<?xml version="1.0" encoding="UTF-8"?>
<svg id="Layer_9" data-name="Layer 9" xmlns="http://www.w3.org/2000/svg" viewBox="0 0 200 200">
  <defs>
    <style>
      .cls-1 {
        fill: #feca74;
      }

      .cls-2 {
        fill: #cddbf1;
      }

      .cls-3 {
        fill: #598ddd;
      }

      .cls-4 {
        fill: #446aa8;
      }

      .cls-5 {
        fill: #446aa9;
      }

      .cls-6 {
        fill: #f0a041;
      }

      .cls-7 {
        fill: #e48a29;
      }

      .cls-8 {
        fill: #febd51;
      }

      .cls-9 {
        fill: #ecf3f9;
      }

      .cls-10 {
        fill: #456aa9;
      }

      .cls-11 {
        fill: #fefefe;
      }
    </style>
  </defs>
  <path class="cls-8" d="M83.81,189c-23,14.6-52.84,8.58-68.23-13.8l-.39-2.16c-.05-17.76-.08-35.53-.02-53.3.01-4.41,3.31-8.59,7.25-10.31,4.57-1.99,18.68-1.46,24.04-1.12,5.81.37,10.21,1.33,12.22,7.61l-.12,17.22c.28,20.36,8.32,41.17,24.37,54.19l.88,1.66Z"/>
  <path class="cls-1" d="M107.47,57.67l-.45,1.28c-7.39,5.59-15.3,5.95-24.12,6.25-5.99.21-12.03.23-18.03.04-9.77-.3-16.34-.55-24.47-6.69-13.97-10.57-14.09-24.09-13.36-40.25l.76-1.26c33.97-24.26,78.34-.43,79.67,40.62Z"/>
  <path class="cls-8" d="M27.8,17.04c.3,8.94-1.14,17.99,2.07,26.53,3.84,10.25,14.63,19.41,25.75,20.4,9.42.84,26.39.72,35.9.02,5.7-.42,11.4-3.01,15.96-6.33.08,2.35,0,4.74,0,7.1l-1.19,1.18c-13.24,4.19-24.69,12.51-32.35,23.81-4.15,4.65-6.85,6.36-13.23,7.01-9.45.97-21.76.9-31.24.08-6.47-.56-14.19-4.84-14.24-12.15-.12-17.75-.09-35.51-.04-53.26l.39-2.16c3.83-5.56,6.83-8.37,12.23-12.23Z"/>
  <path class="cls-6" d="M107.47,64.77c0,3.68,0,7.37,0,11.04l-1.22,1.42c-5.37,2.54-10.3,5.93-14.74,9.86l-1.78.55c-1.16,2.25-2.8,4.32-4.9,6.22-1.42,2.2-3.08,3.94-4.96,5.21l-1.08.79H16.46l-.49-.79.79.45c.23,1.3.36,5.3-.79,5.86l.27-.79h59.58l.48.79-.07,1.98c-11.34,24.7-5.62,55.11,14.97,73.14l.88,1.78c-2.12,2.98-5.27,4.79-8.28,6.7-14.82-10.88-23.58-29.9-25.59-47.97-.91-8.19-.2-16.41-.22-24.62-.91-3.59-3.91-6.44-7.62-6.97-4.71-.68-20.32-.68-25.04,0-5.14.74-9.11,5.19-9.39,10.33-.12,17.75.21,35.51.02,53.26,0,.67.25,1.75-.4,2.16-1.51-2.19-2.76-4.32-3.94-6.7l-.79-3.55V39.53l.79-3.55c1.18-2.39,2.44-4.52,3.94-6.7.65.41.39,1.5.4,2.16.19,17.73-.19,35.48.04,53.21.8,6.06,5.9,10.77,11.97,11.3,8.63.74,24.48.69,33.16,0,10.72-.85,12.81-8.94,19.3-15.41,7.17-7.14,17.32-13.03,27.03-15.76Z"/>
  <path class="cls-3" d="M175.31,180.33c-2.53.77-5.78.36-8.39-.22l-.29-.96.91-1.7c12.12-9.51,19.84-23.58,21-38.98l.97-3.5-.78-1.6c.06-30.51-25.5-55.83-55.99-55.6l-1.61-.77-2.64.83c-14.15,1.21-27.1,7.62-36.98,17.77l-1.79.73c-1.31-2.44-1.15-6.16,0-8.68,5.19-4.82,11.21-9,17.75-11.83,65.35-28.25,120.15,57.13,67.84,104.52Z"/>
  <path class="cls-4" d="M89.73,96.32c.35.07.34.21,0,.39l-.51,1.83c-39.3,50.62,20.8,116.82,75.07,81.41l1.96-.41c-.11-.37.02-.5.39-.39,2.7,1.25,5.96.27,8.68,1.18-23.39,21.19-58.78,22.17-83.22,1.97-22.47-18.57-28.58-50.86-15.78-76.91-.55-1.9,1.63-5.61,3.55-6.31,2.71-4.09,6.28-8.11,9.86-11.44.06,2.88-.08,5.79,0,8.68Z"/>
  <path class="cls-7" d="M11.63,168.49c-2.86-5.78-4.77-12.23-5.15-18.71-1.8-31.19,1.4-64.11,0-95.48.62-6.55,2.24-12.45,5.14-18.32v132.52Z"/>
  <path class="cls-7" d="M79.87,99.08c-1.22,1.84-2.57,4.31-3.55,6.31H15.97v-6.31h63.89Z"/>
  <path class="cls-9" d="M131.14,76.99l-.22.92c-5.02,2.2-5.14,9.28.46,10.76,4.29-.22,19.02,2.08,20.72,4.89.15.24.25.51.33.78l.03.97c-2.82,2.53-3.96,6.82-2.69,10.42l-.49.84c.9.77-3.2,4.55-3.62,4.71l-1.11.02c.23,1.09-1.25,1.2-2.14,1.2-6.34,0-13.33-.12-19.63-.47-.69-.04-1.31-.39-1.9-.73-1.71-.04-4.98-3.1-4.73-4.73l-.47-.87c3.13-7.92-6.25-15.82-13.32-10.38-8.38,6.45-.64,18.52,8.58,15.12l.87.47c1.35-.49,4.69,2.96,4.34,4.34l.18,1.32c-2.34,4.38-4.5,8.86-6.52,13.4l-1.15.67c-.45,1.2-7.22.92-7.63.53-.13-.13-.21-.32-.26-.53-1.01-.44-1.89-1.28-2.63-2.53-1.25-.9-2.08-1.89-2.5-2.99-.31-.26-.61-.53-.87-.84-2.33-2.8-4.68-15.66-5.19-19.92-.67-2.72-.62-5.27.14-7.64,0-.13,0-.26,0-.39,10.97-11.68,25.17-18.89,41.41-19.33Z"/>
  <path class="cls-9" d="M166.63,179.14c-.15.11-.26.29-.39.39-.37.14-.75.27-1.14.35-3.27.66-14.06-2.85-17.79-4.18-9.37-3.34-19.56-8.71-26.92-15.45-.26-.24-.45-.57-.64-.91s-.33-.73-.45-1.11c-.71-1,.47-2.23,1.58-1.97-.21-1.04.86-1.19,1.73-1.2,6.5-.08,13.12.01,19.63.1.32,0,.63.11.96.22s.65.29.96.48c1.7.35,4.22,2.75,5.29,4.18l-.16.95.47.87c-3.13,7.9,6.27,15.81,13.32,10.38,8.38-6.45.65-18.55-8.58-15.12l-.88-.47c-1.35.49-4.68-2.96-4.34-4.34l-.18-1.32c2.34-4.38,4.5-8.86,6.52-13.4l1.15-.67c1.03-.99,5.87-1.09,7.32-.79l.56.79.96.33c2.57,5.83,10.87,6.88,14.97,2.08l1.02-.04c3,.46,5.97-.94,6.93-4l.95-.34c-.38,17.97-8.67,33.52-22.88,44.17Z"/>
  <path class="cls-11" d="M189.51,134.97c-.99,3.09-2.76,4.85-6.11,5.14-.64.06-2.07.39-1.78-.8l-.34-.92c2.71-4.79.16-11.62-5.18-13.18l-.39-.89-.96-1c-1.55-5.92-4.15-11.44-7.81-16.56l.09-1.38-.58-.81c1.88-7.41-6.42-13.91-13.06-9.91l-.94-.32c-5.15-2.9-10.95-4.01-16.77-4.73-2.56-.32-4.22.57-6.7-1.19-4.5-3.18-2.78-9.84,2.17-11.44,32.55-.86,59.07,25.41,58.37,57.98Z"/>
  <path class="cls-2" d="M95.64,125.11l-.87.5c-19.24-3.23-12.11,25.86,3.68,13.86.64-1.27,1.41-2.12,2.32-2.53.31-1.03.43-1.03.79,0l1.47.86c3.17,5.06,6.58,10.03,10.96,14.12l.59,1.58c.41,1.24-1.46,3.45-2.76,3.16l-.87.47c-7.9-3.13-15.81,6.27-10.38,13.32,6.45,8.37,18.52.64,15.11-8.58l.47-.87c-.3-1.3,1.91-3.17,3.16-2.76,12.9,11.83,29.65,18.82,46.93,21.3-18.8,13.66-43.28,14.85-63.23,2.69-29.71-18.12-36.21-59.21-13.29-85.51.38,9.76,2.53,19.27,5.92,28.4Z"/>
  <path class="cls-3" d="M144.55,111.31c2.08-1.47,5.76,1.93,4.73,3.94l1.21.57c2.36,4.41,4.54,8.94,6.57,13.51l-.29,1.31c2.67.77,2.7,5.54,0,6.31-2.02,4.67-5.05,10.94-7.49,15.38,1.05,2.37-2.83,5.41-5.13,3.55-6.82.37-14.63.12-21.52-.02-.71-.01-1.54.42-1.75.41-1.85,1.61-5.87-2-4.73-3.94l-1.21-.57c-2.36-4.41-4.54-8.94-6.57-13.51l.29-1.31c-2.67-.77-2.7-5.54,0-6.31,2.02-4.66,5.05-10.95,7.49-15.38-.98-2.07,2.63-5.38,4.73-3.94,6.82-.29,14.55.29,21.52.41.86.01,1.87-.42,2.15-.41Z"/>
  <path class="cls-3" d="M116.15,106.57l.4.79c-.47.9-3.75,4.44-4.74,3.55-9.37,4.6-19.22-8.24-10.46-15.78,8.13-7.01,19.08,2.73,14.8,11.45Z"/>
  <path class="cls-3" d="M167.03,105.39c.78,3.75-4.82,6.59-8.07,7.04-1.57.22-5.19.37-5.34-1.51l-.79.4c-.9-.47-4.44-3.75-3.55-4.74-1.9-3.86-.35-9.75,3.16-12.23,7.37-5.21,17.41,2.44,14.59,11.04Z"/>
  <path class="cls-3" d="M95.64,125.11c1.75.76,4.53,3.71,5.13,5.52,1.75.29,1.75,6.02,0,6.31-2.19,6.7-11.42,8.49-16.18,2.97-6.67-7.74,1.93-18.78,11.05-14.8Z"/>
  <path class="cls-4" d="M108.66,130.63c-.42.97-1.16,1.85-1.21,2.97-.06,1.37.71,2.19,1.21,3.34-2.35.78-4.74.78-7.1,0h-.79c.56-1.71.56-4.6,0-6.31h7.89Z"/>
  <path class="cls-10" d="M153.62,110.91c.5,1.33-2.97,4.72-4.34,4.34-.39-.7-1.44-2.58-1.98-2.95-.31-.22-2.52-.98-2.76-.99l4.73-4.73c.26.52,3.82,4.08,4.34,4.34Z"/>
  <path class="cls-10" d="M120.88,111.31c-.24.01-2.45.77-2.76.99-.53.37-1.59,2.25-1.98,2.95l-4.34-4.34c.52-.26,4.08-3.82,4.34-4.34l4.73,4.73Z"/>
  <path class="cls-3" d="M175.7,124.32c6.25,1.08,9.65,9.71,5.92,14.99-4.34,6.13-14.65,4.68-16.96-2.37-1.75-.29-1.75-6.02,0-6.31-1.29-1.92,2.35-4.73,4.06-5.69,1.68-.94,5.97-2.59,6.99-.62Z"/>
  <path class="cls-3" d="M149.28,161l-.4-.79c.47-.9,3.75-4.44,4.74-3.55,9.44-4.64,19.19,8.26,10.46,15.78-8.11,6.98-19.08-2.73-14.8-11.45Z"/>
  <path class="cls-4" d="M164.66,130.63c-.56,1.71-.56,4.6,0,6.31h-7.89c.42-.97,1.16-1.85,1.21-2.97.06-1.37-.71-2.19-1.21-3.34l.45-.79h6.87l.56.79Z"/>
  <path class="cls-10" d="M153.62,156.66c-.52.26-4.08,3.82-4.34,4.34l-5.13-5.13c3.46-.19,3.49-.57,5.13-3.55l4.34,4.34Z"/>
  <path class="cls-5" d="M120.88,156.27c-.48.61-1.05,1.44-1.58,1.97-.9.92-2.16,1.9-3.16,2.76-.26.16-.63.35-.83.2-1.05-.81-3.72-3.39-3.51-4.53.86-.99,1.85-2.25,2.76-3.16-.57-1.09.52-1.75,1.58-1.18.39.7,1.44,2.58,1.98,2.95.31.22,2.52.98,2.76.99Z"/>
  <path class="cls-9" d="M175.7,124.32c-4.25-.74-9.67,2.13-11.04,6.31h-7.89c-2.02-4.66-5.05-10.95-7.49-15.38l4.34-4.34c4.77,2.34,11.76-.47,13.41-5.52,3.58,5.95,7.74,11.84,8.68,18.93Z"/>
  <path class="cls-3" d="M111.81,156.66c.52.26,4.08,3.82,4.34,4.34,4.6,9.37-8.24,19.22-15.78,10.46-6.98-8.11,2.73-19.08,11.45-14.8Z"/>
  <path class="cls-9" d="M108.66,136.94c2.02,4.66,5.05,10.95,7.49,15.38-.47.38-1.16.78-1.58,1.18-5.35-4.6-9.31-10.61-13.02-16.56h7.1Z"/>
  <polygon class="cls-4" points="122.33 118.07 143.57 118.4 151.16 133.92 143.37 149.37 121.86 149.17 114.27 133.65 121.71 118.64 122.33 118.07"/>
  <path class="cls-5" d="M106.58,99.16c4.62-1.01,5.42,5.36,1.79,6.16-4.62,1.01-5.42-5.36-1.79-6.16Z"/>
  <path class="cls-5" d="M157.06,99.16c4.62-1.01,5.42,5.36,1.79,6.16-4.62,1.01-5.42-5.36-1.79-6.16Z"/>
  <path class="cls-5" d="M90.8,130.71c4.62-1.01,5.42,5.36,1.79,6.16-4.62,1.01-5.42-5.36-1.79-6.16Z"/>
  <path class="cls-5" d="M172.84,130.71c4.62-1.01,5.42,5.36,1.79,6.16-4.62,1.01-5.42-5.36-1.79-6.16Z"/>
  <path class="cls-5" d="M157.06,162.26c4.62-1.01,5.42,5.36,1.79,6.16-4.62,1.01-5.42-5.36-1.79-6.16Z"/>
  <path class="cls-5" d="M106.58,162.26c4.62-1.01,5.42,5.36,1.79,6.16-4.62,1.01-5.42-5.36-1.79-6.16Z"/>
</svg>