<?xml version="1.0" encoding="UTF-8"?>
<svg id="Layer_9" data-name="Layer 9" xmlns="http://www.w3.org/2000/svg" viewBox="0 0 200 200">
  <defs>
    <style>
      .cls-1 {
        fill: #df9393;
      }

      .cls-2 {
        fill: #b9e5ee;
      }

      .cls-3 {
        fill: #dbf1f5;
      }

      .cls-4 {
        fill: #d87b7b;
      }

      .cls-5 {
        fill: #7bcfdf;
      }

      .cls-6 {
        fill: #c1c8d0;
      }

      .cls-7 {
        fill: #93d7e5;
      }

      .cls-8 {
        fill: #fe725c;
      }

      .cls-9 {
        fill: #e4eaf4;
      }

      .cls-10 {
        fill: #c2c9d1;
      }

      .cls-11 {
        fill: #c2c9d0;
      }

      .cls-12 {
        fill: #94d7e5;
      }

      .cls-13 {
        fill: #70c5da;
      }
    </style>
  </defs>
  <g>
    <path class="cls-3" d="M85.84,48.2l.58.26v18.6c.22.63.42,1.27.58,1.9.07.11.14.23.16.35.19.98-8.56.68-10.54-.06-.12-3.4-.5-12.5.44-15.27,1.02-3.01,3.83-4.92,6.77-5.77h2.02Z"/>
    <path class="cls-3" d="M109.19,48.2l.58.27v18.41c.35.71.64,1.4.86,2.08-.43.29-.9.51-1.41.58-2.49.34-6.35.14-8.68-.58.34-.69.63-1.43.88-2.22v-18.2s.56-.35.56-.35h7.21Z"/>
    <path class="cls-3" d="M121.01,48.2l.58.27v18.29c.21.77.5,1.5.86,2.2-.47.28-.97.53-1.52.58-2.66.22-6.11.22-8.57-.58.15-.63.44-1.32.87-2.07v-18.34s.57-.34.57-.34h7.21Z"/>
    <path class="cls-3" d="M97.37,48.2l.58.27c-.14,6.41-.06,12.78.27,19.1.47.47.67.94.6,1.39-.21.15-.42.28-.65.38-.87.38-7.92.38-8.79,0-.23-.1-.44-.24-.65-.38.28-.56.57-1.15.87-1.77v-18.65s.57-.34.57-.34h7.21Z"/>
    <path class="cls-3" d="M132.83,48.2l.58.26v18.73c.3.61.59,1.2.86,1.77-3.08.97-7,.92-10.09,0-.08-.46.12-.92.6-1.39.32-6.29.41-12.63.27-19.02l.58-.35h7.21Z"/>
    <path class="cls-12" d="M101.99,48.2v18.6c-.14.92-.41,1.95-1.44,2.16-.56.56-1.17.56-1.73,0-.96-.48-1.37-1.41-1.44-2.45v-18.31s4.61,0,4.61,0Z"/>
    <path class="cls-12" d="M113.81,48.2v18.6c-.02.94-.65,1.71-1.44,2.16-.56.56-1.17.56-1.73,0-.79-.44-1.42-1.21-1.45-2.16v-18.6h4.62Z"/>
    <path class="cls-12" d="M125.63,48.2v18.31c-.08,1.04-.49,1.97-1.44,2.45-.56.56-1.17.56-1.73,0-1.03-.2-1.3-1.24-1.45-2.16v-18.6h4.62Z"/>
    <path class="cls-7" d="M90.17,48.2v18.89c0,.97-.54,1.58-1.44,1.87-.56.57-1.17.56-1.73,0-.73-.36-1.13-1.07-1.16-1.87v-18.89h4.33Z"/>
    <path class="cls-7" d="M137.16,48.2l.58.26v18.65c-.08,1.1-.51,2.13-1.73,1.84-.56.56-1.17.55-1.73,0-.9-.29-1.43-.9-1.45-1.87v-18.89h4.33Z"/>
    <path class="cls-3" d="M139.18,48.2c.46.22.96.4,1.44.58l.57.64-.08,18.01c-.55,1.72-1.68,2.25-3.39,2.42-.75.08-2.05.11-1.72-.89.73-.36,1.13-1.07,1.16-1.87v-18.89s2.01,0,2.01,0Z"/>
    <path class="cls-7" d="M140.62,88.28c4.31,3.65,8.5,7.48,12.68,11.24,1.23,1.66,1.76,3.65,1.6,5.97.08,15.04-.02,30.09-.31,45.13.39,1.86.35,3.47-.13,4.82-.6,1.91-2.44,3.98-4.32,4.61-.65,1.93-2.97,3.94-4.9,4.61l-.58-.2-.03-44.25c-.47-2.97-2.2-5.58-5.07-6.69l-.38-.75c-.44.42-1.09.44-1.97.05-12.95-.56-25.94-.5-38.98.19-4.6-.15-9.12-.14-13.56.03-5.78,1.6-7.1,7.04-6.13,12.71-.48,14-.53,27.97-.14,41.91.33.87.32,1.6-.05,2.19l.73.27c1.13,2.61,3.59,4.49,6.4,4.92h50.47s.36.57.36.57l.41.67c-.54,2.31-.56,4.73-.22,7.07l-.47.62-.2.58h-71.61l-.55-.58c-.28-.8-.72-1.48-.59-2.44l.08-74.03c.48-1.82,1.2-3.33,2.52-4.69,4.56-4.73,11.58-10.17,16.73-14.55l1.37-.58h55.49l1.37.58Z"/>
    <path class="cls-3" d="M159.93,108.74c.02.14.47.6.31.97l-.02,39.96c5.68-5.24,13.27-5.9,19.6-1.44,4.34,5.69,2.43,14.09-2.22,19.06-3.25,3.12-6.44,6.31-9.56,9.55l-.62-.08-.54.28c-5.63-5.44-11.27-10.89-16.9-16.34l.15-.66c1.47-1.48,2.86-3.12,4.32-4.61l.18-.97c1.74-1.46,3.32-3.05,4.74-4.79l-.02-40.59.58-.35Z"/>
    <path class="cls-5" d="M152.73,195.81l.62-.67c4.26-.8,7.67-3.72,10.63-6.74l6.6-7.21.89-.08-.03-.78c4.69-3.86,8.88-8.14,12.55-12.83.27-.83.71-1.29,1.32-1.39,16.17,4.8,13.74,28.12-3.03,29.69h-29.55Z"/>
    <path class="cls-2" d="M135.72,75.3c-.88.16-1.77.31-2.66.41s-1.78.2-2.67.21c-12.58.17-25.19.17-37.77,0-.89-.01-1.78-.11-2.67-.21s-1.78-.25-2.66-.41c-1.84-.02-5.31-.07-7.07-.28-3.36-.4-3.51-3.15-3.6-5.77,3.13-.03,6.27.03,9.4.02.53,0,.92-.31.97-.31.58,0,1.15,0,1.73,0,3.23-.02,6.86,0,10.09,0,.58,0,1.15,0,1.73,0,3.25,0,6.84,0,10.09,0,.58,0,1.15,0,1.73,0,3.26,0,6.83,0,10.09,0,.58,0,1.15,0,1.73,0,3.3,0,6.76.07,10.09,0,.57-.01,1.16,0,1.73,0,.04,0,.33.28.7.3,1.81.09,3.15-.07,3.85-1.95l.06-18.53c2.71,1.01,5.12,3.33,5.64,6.33.46,2.69.53,13.88.11,16.57-.67,4.35-6.51,3.3-9.65,3.33-.41,0-.84.29-1,.29Z"/>
    <path class="cls-5" d="M136,183.99c.69.54,1.18,1.38,1.47,2.52.81,1.04,1.19,2.02,1.13,2.95.25.1.25.19,0,.29h-68.18c-3.27-.69-5.67-2.57-6.77-5.77h72.36Z"/>
    <path class="cls-5" d="M135.72,75.3v8.94l-.2.58h-47.88l-.36-.58v-.29l.2-.58h41.68c.33-.22.33-1.34.01-1.57l-41.55-.16-.35-.58v-5.77c15.94.16,32.49.16,48.43,0Z"/>
    <path class="cls-5" d="M159.93,108.74v41.08c-.19.95-4.5,4.62-5.48,5.63l-.29-1.58c-.96-16.38,1.3-34.26.02-50.47-.11-1.34-.52-2.61-.88-3.88,3.76,3.38,5.81,3.53,6.63,9.23Z"/>
    <path class="cls-13" d="M135.72,84.24c.76.14,4.01,3.28,4.9,4.04h-58.23c.85-.72,4.23-3.91,4.9-4.04h48.43Z"/>
    <path class="cls-2" d="M185.3,166.11c-1.74,4.79-10.18,11.34-13.84,14.99-.92.28-2.82-1.64-3.51-2.45-.79-.57-.96-1.1-.52-1.58-.27-.1-.27-.19,0-.29.22-.84,8.6-8.51,9.95-10.09,4.77-5.57,5.47-11.76,2.45-18.45,5.6,3.94,7.84,11.36,5.48,17.87Z"/>
    <path class="cls-4" d="M167.43,177.07c.19.74,3.31,3.3,4.04,4.04-5.11,5.11-10.84,13.81-18.74,14.7-5.22.59-11.02-1.82-14.13-6.05-.05-.06.05-.22,0-.29l.56-.45c6.14,3.05,12.82,2.03,17.77-2.74l9.54-9.46c.4-.34.67-.18.96.26Z"/>
    <polygon class="cls-7" points="87.28 81.07 129.96 81.23 129.95 83.95 87.28 83.95 87.28 81.07"/>
    <path class="cls-3" d="M139.18,112.78l.58.55v54.26c-.02,1-.43,2.12-1.49,2.28l-59.36.56-.56-.57c-.31-.87-.52-1.8-.59-2.73-1.13-15.05.86-31.51.01-46.71.56-4.57,3.87-7.83,8.49-8.23,16.37,1.01,34.28-1.31,50.47,0,.94.08,1.58.31,2.44.59Z"/>
    <path class="cls-2" d="M145.23,164.67l.06.76c-3.38,2.91-6.14,6.22-8.29,9.94l-.7.25h-50.89c-3.19-.47-5.98-2.72-7.06-5.77l60.12-.57c.53-.47.75-1.17.73-1.87v-54.65c3.42,1.1,5.43,3.86,6.01,7.38l.03,44.51Z"/>
    <path class="cls-1" d="M167.43,176.78c-.02.06-.02.22,0,.29-.56,0-.8.39-1.16.72-7.54,6.93-12.76,16.4-24.85,12.75-.96-.29-1.83-.86-2.82-1.07-1.2-1.73-2.16-3.31-2.59-5.48-.48-2.41-.46-6.01.29-8.36,1.15-3.63,6.2-8.16,8.94-10.96,1.55-1.59,3.34-3.04,4.9-4.61l17.3,16.72Z"/>
    <path class="cls-7" d="M172.04,189.75c2.71-3,5.82-5.62,8.67-8.49,2.24-2.26,5.83-5.52,7.48-8.08.4-.61,1.15-2.69,1.29-2.75.56-.21.63,1.28.68,1.62.85,5.76-.3,11.58-5.17,15.22-.94.7-4.58,2.47-5.6,2.47h-7.35Z"/>
    <path class="cls-1" d="M117.27,124.89c-.7.75-3.81,1-4.32,0,.22,0,.57.05.58.2.09,1.21.21,8.77,0,9.41l-.58.34c.74-.27,1.68.9,1.3,1.59.42-.94,3.95-.91,4.47,0-.25-.14-.53-.31-.63-.59-.14-.42,0-8,.13-8.84l.5-.66.29,10.09,10.09.29-.31.55c-1.15-.05-2.32-.07-3.45.14-.1,1.49-.07,2.98.07,4.48.14,2.34-.44,4.21-3.16,4.11l-6.79-.07c-1.57.11-1.84,1.47-1.98,2.78l.13,5.68c.19,1.71-1.15,4.11-2.82,3.09-.03.22-.09.56-.25.58-.74.07-5.77.08-6.05-.19-.1-.09-.15-.23-.19-.38,1.01.47.75,3.66,0,4.32-.48-.3-.29-1.09-.29-1.58-.04-2.93.06-5.87,0-8.8l-.58-.33c.32-4.57.31-5.21-4.45-5.26-2.01-.02-4.01.12-6,.32l-.79-.49c-.04-1.84-.29-5.71.06-7.29.17-.75,1.39-1.93,2.1-1.93h9.66v-9.95c0-.62,1.47-1.75,2.18-1.86,2.4-.38,6.87-.05,9.5-.02.49,0,1.28-.18,1.58.29Z"/>
    <path class="cls-4" d="M129.09,136.71c1.23.19,1.64,1.29,1.74,2.44.2,2.21.29,8.31-.03,10.38-.1.65-.97,1.89-1.57,1.89h-10.23v9.95c0,1-1.2,1.77-2.16,1.88-2.1.24-8.94.29-10.94-.02-.84-.13-1.46-.56-1.6-1.42-.2-1.28.15-2.99,0-4.32h6.49c.09,0,1.43-.6,1.58-.73,2-1.74-1.53-10.68,2.76-11.36,2.02-.32,7.56.51,8.89-.33,1.69-1.07.08-6.91.88-8.06.27-.38,3.54-.37,4.2-.27Z"/>
    <path class="cls-4" d="M104,151.41c-2.56-.45-8.46.7-10.59-.22-1.78-.76-1.19-3.89-1.23-5.55,2.73-.32,6.34-.55,9.09-.3,3.74.35,2.67,3.14,2.73,6.07Z"/>
    <path class="cls-4" d="M117.27,124.89c.8.13,1.32.65,1.44,1.44.46,2.95-.34,7.01,0,10.09h-4.47c-.13,0-1.3-1.38-1.3-1.59v-9.95c1.34.15,3.04-.2,4.32,0Z"/>
  </g>
  <g>
    <path class="cls-9" d="M37.59,47.84c-7.54-.79-13.81,5.28-13.92,12.74v88.22c-.14.78-3.28,2.93-4.17,3.9-11.81,12.71-5.71,33.81,11.1,37.92,23.36,5.71,38.62-23.31,20.76-39.5-.73-.66-2.42-1.43-2.59-2.31l-.04-89.62c-.66-5.85-5.2-10.72-11.14-11.34Z"/>
    <path class="cls-10" d="M13.82,80.7c-.32-.32-1.06-.33-1.5-.37-1.49-.12-5.9-.23-7.21.02-1.75.33-1.89,2.79.3,3.15,1.2.2,5.98.2,7.17,0,1.41-.23,2.27-1.77,1.24-2.8Z"/>
    <path class="cls-10" d="M13.11,106.64c-.7-.2-7.16-.21-8-.05-1.75.33-1.89,2.79.3,3.15,1.12.18,6.4.21,7.47,0,1.66-.31,1.74-2.67.23-3.1Z"/>
    <path class="cls-11" d="M13.82,135.62c1.02-1.02.16-2.57-1.24-2.8-1.2-.2-5.98-.2-7.17,0-2.19.36-2.04,2.82-.3,3.15,1.32.25,5.72.14,7.21.02.45-.04,1.19-.05,1.5-.37Z"/>
    <path class="cls-10" d="M12.82,67.14c-1.02-.22-6.64-.22-7.66,0-1.93.43-1.72,2.79-.05,3.1.99.18,6.78.18,7.77,0,1.67-.31,1.87-2.68-.05-3.1Z"/>
    <path class="cls-10" d="M4.16,96.13c.52.51,7.57.49,8.71.33,1.38-.19,1.82-1.76.9-2.59s-8.15-.82-9.19-.22c-.8.47-1.05,1.84-.42,2.47Z"/>
    <path class="cls-6" d="M4.81,119.84c-1.55.26-.89,2.88-.29,2.88h8.94c1.04,0,.74-2.88,0-2.88-2.41,0-6.49-.36-8.65,0Z"/>
    <path class="cls-8" d="M39.87,157.28l-.03-92.94c.11-3.97-4.62-5.48-6.71-2.08-.51,31.39-.08,62.91-.22,94.34-.17.92-2.03,1.32-2.8,1.82-11.82,7.59-3.02,25.53,10.08,21.04,10.5-3.6,10.19-18.92-.33-22.17Z"/>
  </g>
</svg>