<?xml version="1.0" encoding="UTF-8"?>
<svg id="Layer_9" data-name="Layer 9" xmlns="http://www.w3.org/2000/svg" viewBox="0 0 200 200">
  <defs>
    <style>
      .cls-1 {
        fill: #fe5471;
      }

      .cls-2 {
        fill: #43ef43;
      }

      .cls-3 {
        fill: #909bd0;
      }

      .cls-4 {
        fill: #e9806f;
      }

      .cls-5 {
        fill: #84c9fe;
      }

      .cls-6 {
        fill: #a34f41;
      }

      .cls-7 {
        fill: #6cbefc;
      }

      .cls-8 {
        fill: #909cd0;
      }

      .cls-9 {
        fill: #c76f5c;
      }

      .cls-10 {
        fill: #65bbfc;
      }

      .cls-11 {
        fill: #a24f41;
      }

      .cls-12 {
        fill: #fefefe;
      }

      .cls-13 {
        fill: #f19887;
      }

      .cls-14 {
        fill: #5eb8fc;
      }

      .cls-15 {
        fill: #4eb0fb;
      }
    </style>
  </defs>
  <path class="cls-13" d="M155.93,24.82c.37.75.54.74,1.32.8,7.85.64,17.25-.12,25.32-.03.66,0,1.73-.25,2.13.4l-.11.51c3.82,1.78,6,6.01,5.96,10.15v145.52c-.31,3.82-2.41,8.07-6.19,9.35l.34.52c-.4.64-1.47.39-2.13.4-39.14.49-78.31-.39-117.46,0-5.11-.09-9.56-3.84-10.64-8.8l-.03-31.66c.88-.7,2.15-.89,3.81-.57,1.58-.32,2.77-.13,3.58.57l.78.36v28.16c1.13.05,1.91.39,2.33,1.03l.37-.78h117.15c.41-47.66.48-95.49.21-143.49h-25.34c-.12,1.74-.59,2.39-1.41,1.95-.34-.11-.33-.24,0-.39-.38-.27-.7-.6-.84-1.05-.33-1.05.01-10,.15-11.83l.69-1.11Z"/>
  <path class="cls-5" d="M54.44,66.04c1.38-1.36,6.01-1.37,7.39,0,.86-1.07,2.51-.86,3.11.39,3.35-.98,8.1,1.11,11.36,2.62s6.5,3.54,9.35,5.88c2.75,2.26,6.69,5.59,7.29,9,.48.96.87,1.87,1.17,2.72,17.95,33.04-13.68,71.87-49.91,59.63-4.54-.77-7.81,1.52-9.82,6.89l-.93-.02c-.12.15-.24.28-.39.37-.27.15-4.05-2.15-4.58-2.58l-.09-.9c4.15-6.63-.41-9.05-3.88-13.43-21.54-27.16-4.85-68.55,29.93-70.57Z"/>
  <path class="cls-9" d="M113.55,14.32c6.9-9.6,19.4-3.54,19.4,7.44,1.65-.66,2.83-.68,3.55-.05,3.21-.54,6.49-1.18,9.72-1.56,2.23.7,3.62,1.92,4.85,4.13l-.57.73c.3,0,.76.07.78.26.22,2.67.43,10.72,0,13.08l-.78.46c.31-1.28,4.91-1.18,5.44,0v.39l-.27.78h-63.02c-1.64-.3-1.72-2.57-.48-3.5l-.8-.74c-.17-3.16-.18-6.32-.04-9.48l.84-.67c.32-2.95,2.68-5.91,5.75-6.14,2.25-.17,13.23,2.77,13.69,2.25.15-2.52.26-5.36,1.95-7.39Z"/>
  <path class="cls-4" d="M184.71,25.99c5.08.47,8.52,4.2,9.33,9.14v147.01c-.31,5.23-4.11,9.48-9.33,9.9-.55.04-2.56.3-2.72-.38,4.55-.76,7.49-5.1,7.79-9.52V36.28c-.09-4.61-3.15-9.02-7.79-9.9.15-.68,2.19-.43,2.72-.38Z"/>
  <path class="cls-9" d="M28.39,150.03c.95.36,3.92,2.4,5.06,3.11.99-.56,1.22-.23.78.78,1.45,1.02,1.99,2.86,1.18,4.5l-18.64,32.46c-2.36,3-6.48,5.19-10.14,3.48-3.3-2.85-3.96-7.1-2.28-11.03,4.39-10.28,13.3-20.94,18.06-31.33,1.55-2.07,3.47-2.92,6-1.97Z"/>
  <path class="cls-13" d="M92.16,25.6c-.33,3.07-.09,7.68,0,10.89-1.75.66-3.58.94-5.44.82-7.14.22-14.78.18-21.78-.82-.52.65-1.3.94-2.34.87v28.21s-.78.47-.78.47c-2.23-.14-5.15-.13-7.39,0v-31.3c.8-4.77,4.79-8.46,9.57-9.1l28.15-.04Z"/>
  <path class="cls-15" d="M101.1,106.48c1.31.77,1.31,4.68,0,5.44.18.24.35.48.46.75.62,1.38-.73,6.48-1.23,8.28-3.71,13.24-13.74,24.06-26.54,29-1.73.67-6.66,2.5-8.07,2.02-.27-.09-.53-.23-.78-.39-.19,1.23-2.62,1.52-3.11.39-3.06.29-4.34.27-7.39,0-3.43-.3-8.92-1.95-11.77-1.46-2.39.41-4.84,2.55-5.34,4.96-1.06.86-2.52-.45-3.11-1.56-.26-.17-.49-.6-.78-.78,1.92-2.7,3.19-6.93,6.89-7.69s8.28,1.33,12.01,1.81c34.05,4.41,55.82-30.49,41.75-60.61-.27-.64-.23-.75.39-.39.29.1.57.22.83.38,2.38,1.49,7.32,16.44,6.24,19.05-.12.28-.28.54-.46.79Z"/>
  <path class="cls-11" d="M37.33,155.48c1.59,1.44,1.92,3.4,1.38,5.46l-18.89,32.44c-3.51,3.93-9.19,4.45-13.21.98.6-.59,1.55.09,2.47-.02,2.75-.34,5.37-1.67,7.03-3.89l18.58-32.36c.79-1.44-.2-2.76-.48-4.17.66.43,2.35.87,3.11,1.56Z"/>
  <path class="cls-11" d="M155.93,24.82c.47,4.38-.35,9.53,0,14h-5.44v-13.8c0-.65-2.07-3.01-2.74-3.48-.8-.58-2.49-.29-1.54-1.38,4.15-.49,9.11-.99,9.72,4.67Z"/>
  <path class="cls-6" d="M136.49,21.71c-.72.12-3.82,1.2-4.27.77-.32-4.6-1.86-9.77-6.63-11.45-4.3-1.52-9.16-.18-12.05,3.3,6.27-12.18,24.54-6.18,22.94,7.39Z"/>
  <path class="cls-12" d="M92.16,36.49c.03.9-.02,1.82,0,2.72h63.77c.84-.18.15-2.49.39-2.73h27.22s0,145.05,0,145.05h-118.6s-.78-.36-.78-.36v-29.11l.78-.47c19.65-3.31,34.85-19.57,36.16-39.66.04-.3.14-.76.35-.78,1.24-.09,10.32-.08,10.79.2.27.16.45.4.6.67,1.2,4.36,2.42,8.72,3.65,13.07.83,1.69,3,1.88,3.69,0l7.71-29.85c.55-.42,1.05-.23,1.62.06l9.03,40.47c.84,1.63,3,1.25,3.62-.4l8.37-32.08c.54-.48,1.08-.3,1.6.2.9,2.5,1.92,4.9,3.08,7.2,1.1.82,14.95.97,16.13.28,1.7-.99,2.05-3.25-.04-3.75-4.54.21-9.01.13-13.43-.23-1.89-4.76-3.62-9.59-5.19-14.5-1-1.51-2.99-.98-3.61.6l-7.89,29.7c-.55.42-1.05.23-1.63-.07l-8.97-39.8c-2.79-6.73-6.51,7.28-6.53,9.33-1.29,7.07-2.92,14.04-4.88,20.92-.48,1.11-1.47,1.15-2.06.13-.3-2.22-1-4.17-2.1-5.86-4.43-.36-8.92-.4-13.46-.12l-.45-.84c-.47-7.21-2.91-14.1-6.61-20.22-.81-.35-1.31-1.45-1.56-2.33-6.4-9.19-16.78-15.84-28-17.5l-.78-.36v-29.11l.78-.47c9.06-.21,18.16.16,27.22,0Z"/>
  <path class="cls-4" d="M64.94,151.59v29.94h-3.11s0-29.55,0-29.55c1.16-.11,1.96-.2,3.11-.39Z"/>
  <path class="cls-12" d="M81.66,88.6c.65.06,1.3.91,1.17,1.56,3.58,4.77,5.83,10.33,6.22,16.33l-.29.83c-4.62-.22-9.21-.2-13.75.06-1.46,2.57-2.67,5.32-3.62,8.26-.75.93-1.83.76-2.23-.35l-5.85-22.04c-1.23-2.15-3.55-1.34-3.91,1.06-1.2,4.19-2.53,8.35-3.97,12.46-3.27.71-6.72.85-10.34.42-2.83-.63-5.74,1.57-2.71,3.73,1.14.81,14.51.68,15.73-.29,1.12-1.77,1.83-3.78,2.15-6.03,1.22-1.42,2.17-.53,2.83,2.67l5,18.08c1.24,1.97,2.9,1.68,3.87-.3,1.63-4.68,3.47-9.23,5.51-13.65,3.66-.21,7.33-.28,11.01-.23l.57.77c-1.59,22.64-27.02,35.4-46.67,24.31-11.02-6.22-16.24-17.25-15.55-29.75-.22-1.1-.45-2.77.39-3.5,2.2-25.94,39.67-35.35,54.44-14.39Z"/>
  <path class="cls-2" d="M89.05,111.93l-11.21.07c-.63.39-4.22,11.93-5.42,13.82-1.5,2.36-3.65,2.11-5.04-.19-2.09-7.13-3.68-14.49-6.13-21.48-1.05,2.41-.9,7.13-3.98,7.68-2.28.41-11.97.44-14.28.07-3.19-.51-3.46-4.71-.72-5.34,2.39-.55,11.41.51,12.57-.26,1.97-4.67,2.47-10.2,4.88-14.56,1.59-.89,3.84-.55,4.35,1.4l5.92,22.28c.89.16.62-.06.87-.5.98-1.76,2.23-7.54,3.81-8.25,2.46-1.11,11.21.41,14.38-.2.11,1.63.11,3.82,0,5.44Z"/>
  <path class="cls-15" d="M82.05,88.21c.52.55.3.75-.39.39-16.96-19.51-49.8-11.05-54.44,14.39-.39-.04-.52-.56-.39-1.56,3.77-27.6,39.19-36.17,55.22-13.22Z"/>
  <path class="cls-4" d="M64.94,36.49v29.94c-1.02-.15-2.08-.32-3.11-.39v-29.55c1.03-.02,2.08.03,3.11,0Z"/>
  <path class="cls-10" d="M27.22,102.98c-.23,1.25-.32,2.23-.39,3.5-1-1.39-.2-3.6,0-5.06l.39,1.56Z"/>
  <path class="cls-7" d="M94.49,86.26l-.39.39c-.36-.76-1.4-1.51-1.17-2.72.57.82,1.03,1.47,1.56,2.33Z"/>
  <path class="cls-14" d="M82.83,90.15c-.38-.51-.75-1.08-1.17-1.56l.39-.39c.34.48,1.74,1.57.78,1.94Z"/>
  <path class="cls-1" d="M101.1,106.48c3.69.6,10.77-.88,14.02.17,1.96.63,2.15,5.12,2.89,6.83.52-.32.47-.82.64-1.31,3.01-8.98,3.96-20.67,7.32-29.23,1.25-3.18,4.03-3.47,5.36-.27l9.05,40.14,7.87-29.64c.58-2.44,3.76-3.28,5.12-1.04l4.95,14.3c.86.55,11.12-.35,13.35.06,2.67.5,2.45,4.9-.79,5.41-2.15.34-13,.32-14.97-.15-.65-.15-1.34-.41-1.71-1.02l-2.93-7.37-8.36,32.27c-.79,2.32-4.09,2.68-5.07.41l-9.13-40.84-7.78,30.12c-.86,2.52-4,2.44-5.13.09-.89-1.85-3.27-13.07-3.86-13.44l-10.83-.05c.11-1.64.11-3.81,0-5.44Z"/>
  <path class="cls-8" d="M92.44,52.51l62.93-.1c3.83.99,2.66,5.73-1.17,5.48-19.39-1.24-40.75,1.61-59.91,0-3.66-.31-4.67-3.15-1.85-5.38Z"/>
  <path class="cls-8" d="M91.49,147.8c.44-.48,2.07-.9,2.79-.9,19.4,1.25,40.75-1.59,59.92,0,4.78.4,4.27,5.08,1.17,5.48h-62.26c-2.2-.1-2.98-3.12-1.63-4.59Z"/>
  <path class="cls-3" d="M92.83,65.74l61.75-.09c3.6.12,3.41,5.27,0,5.46h-61.06c-3.03.01-3.66-4.71-.69-5.37Z"/>
  <path class="cls-8" d="M156.61,161.02c1.35,1.47.57,4.49-1.63,4.59h-61.87c-3.59-.82-2.74-5.39.79-5.47h59.91c.72-.02,2.35.4,2.79.89Z"/>
</svg>