<?xml version="1.0" encoding="UTF-8"?>
<svg id="Layer_9" data-name="Layer 9" xmlns="http://www.w3.org/2000/svg" viewBox="0 0 800 600">
  <defs>
    <style>
      .cls-1 {
        fill: #a15948;
      }

      .cls-2 {
        fill: #fff;
      }

      .cls-3 {
        fill: #942e51;
      }

      .cls-4 {
        fill: #cfdbff;
      }

      .cls-5 {
        fill: #f7f3ef;
      }

      .cls-6 {
        fill: #e1f1f9;
      }

      .cls-7 {
        fill: #ffd2fe;
      }

      .cls-8 {
        fill: #7a4437;
      }

      .cls-9 {
        fill: #efdbd9;
      }

      .cls-10 {
        fill: #e8dbd1;
      }

      .cls-11 {
        fill: #dbdbdb;
      }

      .cls-12 {
        fill: #391828;
      }

      .cls-13 {
        fill: #6062c4;
      }

      .cls-14 {
        fill: #d9b3a4;
      }

      .cls-15 {
        fill: #e95b73;
      }

      .cls-16 {
        fill: #ffa7a6;
      }
    </style>
  </defs>
  <g>
    <path class="cls-6" d="M791.07,355.19c0,187.62-66.56,206.21-406.3,206.21-294.93,0-375.84-18.59-375.84-206.21S72.93,36.88,397.01,38.62c295.36,1.59,394.06,128.95,394.06,316.57Z"/>
    <path class="cls-10" d="M391.87,561.4c.43,0,.86,0,1.29,0,215.59-.2,318.9-8.61,364.89-65.25H44.07c46.7,56.65,146.08,65.05,333.6,65.25.18,0,.36,0,.53,0,2.18,0,4.37,0,6.57,0,1.52,0,3.03,0,4.53,0,.86,0,1.71,0,2.57,0Z"/>
  </g>
  <g>
    <g>
      <path class="cls-12" d="M392.14,264.1c-2.74,3.19,15.97,10.5,15.97,10.5l2.28-3.65-10.5-10.04-7.76,3.19Z"/>
      <path class="cls-1" d="M577.89,230.33h-1.37c-2.52,0-4.56,1.98-4.56,4.43v163.45H105.52v-138.2c0-2.69-2.25-4.87-5.02-4.87s-5.02,2.18-5.02,4.87v271.09h10.04v-118.71h466.44v118.71h10.5V234.76c0-2.45-2.04-4.43-4.56-4.43Z"/>
      <path class="cls-7" d="M105.66,407.89c27.59-4.61,55.61,3.46,83.59,4.05,26.39.56,52.46-5.55,78.82-6.77,33.74-1.55,67.42,4.93,101.19,4.06,24.32-.62,48.5-5.06,72.81-4.28,26.03.84,51.86,7.65,77.81,5.53,17.33-1.42,34.73-6.8,51.81-3.55v-90.81l-465.25,9.22-.78,82.53Z"/>
      <path class="cls-7" d="M512.46,214.13c-47.93,25.15-83.13,75.3-83.13,75.3,39.71,58.88,69.37,51.57,69.37,51.57,46.2-13.67,67.55-50.39,74.01-63.87,1.57-3.28,1.75-7.06.52-10.48-11.47-31.91-45.23-48.45-55.26-52.75-1.78-.76-3.8-.68-5.52.22Z"/>
      <path class="cls-5" d="M515.29,329.57c-1.33-.41-2.63-.58-3.8-.55,1.21-.76,2.51-1.74,3.81-2.87,4.63-4.03,4.77-7.03,3.39-8.34-1.38-1.31-5.2-.38-8.39,3.59-1.17,1.45-2.18,2.79-2.96,3.98.1-1.41,0-3.16-.29-5.01-.66-4.22-4.22-6.87-6.29-6.14-3.25,1.14-2.99,4.79-1.63,8.79.62,1.8,1.72,3.11,2.89,4.02-.82-.11-1.69-.16-2.56-.15-4.51.06-8.12,1.98-8.04,5.37.04,1.91,2.28,4.06,6.32,2.84,1.78-.54,3.24-1.07,4.44-1.57-.8,1.08-1.47,2.32-1.79,3.65-.29,1.24-.41,2.4-.39,3.43,2.82-.87,5.54-1.82,8.18-2.86.01-.11.02-.23.03-.34.08-1.13.14-2.28.15-3.36.75.79,1.77,1.62,3.06,2.38,2.97-1.27,5.82-2.63,8.54-4.07-.97-1.13-2.62-2.17-4.68-2.8ZM507.63,332.23c-1.48.73-3.24.17-3.95-1.26-.7-1.42-.08-3.17,1.4-3.9,1.48-.73,3.24-.17,3.95,1.26.7,1.42.08,3.17-1.4,3.9Z"/>
      <path class="cls-5" d="M527.61,218.66c-1.33-.41-2.63-.58-3.8-.55.41-.26.84-.55,1.27-.85-2.92-1.49-5.36-2.6-7.1-3.35-1.77-.76-3.79-.68-5.5.21.55.81,1.2,1.47,1.87,2-.82-.11-1.69-.16-2.56-.15-1.34.02-2.59.2-3.69.54-1.08.61-2.15,1.23-3.21,1.87-.74.8-1.16,1.8-1.13,2.97.04,1.91,2.28,4.06,6.32,2.84,1.78-.54,3.24-1.07,4.44-1.57-.8,1.08-1.47,2.32-1.79,3.65-1.06,4.45.08,7.93,2.54,8.04,3.51.16,4.99-3.87,5.28-7.8.08-1.13.14-2.28.15-3.36.9.95,2.19,1.97,3.87,2.83,3.53,1.8,7.66.49,8.5-1.53.46-1.1-.06-2.38-1.26-3.5-1.33-.78-2.61-1.5-3.84-2.17-.12-.04-.23-.08-.36-.12ZM519.95,221.32c-1.48.73-3.24.17-3.95-1.26-.7-1.42-.08-3.17,1.4-3.9,1.48-.73,3.24-.17,3.95,1.26.7,1.42.08,3.17-1.4,3.9Z"/>
      <path class="cls-1" d="M447.86,255.85c.21-.47.45-.95.85-1.28.49-.4,1.15-.51,1.77-.54,2.04-.13,4.06.33,6.1.36s4.26-.48,5.53-2.08c1.42-1.8,1.24-4.47,2.54-6.36,1.72-2.49,5.31-2.77,7.66-4.68.76-.62,1.38-1.39,1.98-2.16,3.11-3.93,6.21-7.86,9.32-11.8,1.34-1.69,2.72-3.42,4.58-4.51,1.86-1.08,4.34-1.39,6.12-.18.43.29.81.67,1.26.93,1.62.96,3.66.38,5.49-.02,1.84-.4,4.13-.42,5.16,1.16.34.53.48,1.16.79,1.71,1.01,1.81,3.4,2.21,5.48,2.35s4.44.39,5.63,2.09c.99,1.42.76,3.31.84,5.03.12,2.46.96,4.87,2.41,6.86,1.11,1.54,2.61,2.9,3.08,4.73.48,1.87-.24,4.99-1.34,6.58-2.47,3.59-6.39,5.48-10.62,6.16-10.33,1.67-19.16,8.42-28.88,12.27-1.89.75-3.8,1.49-5.76,2.04-4.56,1.27-9.34,1.49-14.07,1.35-3.52-.11-7.18-.46-10.17-2.32-3.01-1.87-4.8-4.94-6.49-7.96-1.7-3.04-.64-6.66.73-9.76Z"/>
      <path class="cls-5" d="M523.26,266.23c-1.38-1.31-5.2-.38-8.39,3.59-1.17,1.45-2.18,2.79-2.96,3.98.1-1.41,0-3.16-.29-5.01-.66-4.22-4.22-6.87-6.29-6.14-3.25,1.14-2.99,4.79-1.63,8.79.62,1.8,1.72,3.11,2.89,4.02-.82-.11-1.69-.16-2.56-.15-4.51.06-8.12,1.98-8.04,5.37.04,1.91,2.28,4.06,6.32,2.84,1.78-.54,3.24-1.07,4.44-1.57-.8,1.08-1.47,2.32-1.79,3.65-1.06,4.45.08,7.93,2.54,8.04,3.51.16,4.99-3.87,5.28-7.8.08-1.13.14-2.28.15-3.36.9.95,2.19,1.97,3.87,2.83,3.53,1.8,7.66.49,8.5-1.53.84-2.02-1.6-4.61-5.45-5.78-1.33-.41-2.63-.58-3.8-.55,1.21-.76,2.51-1.74,3.81-2.87,4.63-4.03,4.77-7.03,3.39-8.34ZM512.19,280.66c-1.48.73-3.24.17-3.95-1.26-.7-1.42-.08-3.17,1.4-3.9s3.24-.17,3.95,1.26c.7,1.42.08,3.17-1.4,3.9Z"/>
      <path class="cls-5" d="M573.95,269.73c-1.26-.36-2.48-.52-3.59-.5.96-.6,1.97-1.34,3-2.19-.04-.13-.08-.26-.13-.39-.81-2.24-1.73-4.41-2.74-6.5-.45.43-.89.91-1.33,1.44-1.17,1.45-2.18,2.79-2.96,3.98.1-1.41,0-3.16-.29-5.01-.66-4.22-4.22-6.87-6.29-6.14-3.25,1.14-2.99,4.79-1.63,8.79.62,1.8,1.72,3.11,2.89,4.02-.82-.11-1.69-.16-2.56-.15-4.51.06-8.12,1.98-8.04,5.37.04,1.91,2.28,4.06,6.32,2.84,1.78-.54,3.24-1.07,4.44-1.57-.8,1.08-1.47,2.32-1.79,3.65-1.06,4.45.08,7.93,2.54,8.04,3.51.16,4.99-3.87,5.28-7.8.08-1.13.14-2.28.15-3.36.9.95,2.19,1.97,3.87,2.83.45.23.91.41,1.37.54.08-.17.16-.33.24-.49,1.11-2.33,1.53-4.9,1.23-7.42ZM566.5,272.44c-1.48.73-3.24.17-3.95-1.26-.7-1.42-.08-3.17,1.4-3.9,1.48-.73,3.24-.17,3.95,1.26.7,1.42.08,3.17-1.4,3.9Z"/>
      <g>
        <path class="cls-5" d="M138.38,416.09c179.37-39.71,245.09-.91,245.09-.91,64.81,31.95,109.08,31.95,109.08,31.95,72.11-105.43-41.08-138.75-41.08-138.75,0-26.93-28.3-40.62-28.3-40.62-1.86.86-1.37,1.37-15.06,6.39-26.51,9.72-74.85,7.76-74.85,7.76-43.36-1.83-76.22,3.65-76.22,3.65l-82.15,10.04c-44.27,5.02-70.74,43.36-70.74,43.36,20.54,62.07,34.23,77.13,34.23,77.13Z"/>
        <path class="cls-7" d="M494.05,413.65c-1.38-1.31-5.2-.38-8.39,3.59-1.17,1.45-2.18,2.79-2.96,3.98.1-1.41,0-3.16-.29-5.01-.66-4.22-4.22-6.87-6.29-6.14-3.25,1.14-2.99,4.79-1.63,8.79.62,1.8,1.72,3.11,2.89,4.02-.82-.11-1.69-.16-2.56-.15-4.51.06-8.12,1.98-8.04,5.37.04,1.91,2.28,4.06,6.32,2.84,1.78-.54,3.24-1.07,4.44-1.57-.8,1.08-1.47,2.32-1.79,3.65-1.06,4.45.08,7.93,2.54,8.04,3.51.16,4.99-3.87,5.28-7.8.08-1.13.14-2.28.15-3.36.9.95,2.19,1.97,3.87,2.83,3.53,1.8,7.66.49,8.5-1.53.84-2.02-1.6-4.61-5.45-5.78-1.33-.41-2.63-.58-3.8-.55,1.21-.75,2.51-1.74,3.81-2.87,4.63-4.03,4.77-7.03,3.39-8.34ZM482.98,428.07c-1.48.73-3.24.17-3.95-1.26-.7-1.42-.08-3.17,1.4-3.9,1.48-.73,3.24-.17,3.95,1.26s.08,3.17-1.4,3.9Z"/>
        <path class="cls-7" d="M514.33,365.66c-.67-.1-1.32-.14-1.93-.13.51-.32,1.05-.69,1.59-1.09-.7-2.39-1.53-4.68-2.47-6.89-.1.12-.21.23-.31.36-1.17,1.45-2.18,2.79-2.96,3.98.1-1.41,0-3.16-.29-5.01-.66-4.22-4.22-6.87-6.29-6.14-3.25,1.14-2.99,4.79-1.63,8.79.62,1.8,1.72,3.11,2.89,4.02-.82-.11-1.69-.16-2.56-.15-4.51.06-8.12,1.98-8.04,5.37.04,1.91,2.28,4.06,6.32,2.84,1.78-.54,3.24-1.07,4.44-1.57-.8,1.08-1.47,2.32-1.79,3.65-1.06,4.45.08,7.93,2.54,8.04,3.51.16,4.99-3.87,5.28-7.8.08-1.13.14-2.28.15-3.36.9.95,2.19,1.97,3.87,2.83.94.48,1.93.73,2.88.82-.38-2.97-.96-5.82-1.7-8.55ZM508.54,368.74c-1.48.73-3.24.17-3.95-1.26-.7-1.42-.08-3.17,1.4-3.9,1.48-.73,3.24-.17,3.95,1.26.7,1.42.08,3.17-1.4,3.9Z"/>
        <path class="cls-7" d="M464.38,326.48c-1.38-1.31-5.2-.38-8.39,3.59-1.17,1.45-2.18,2.79-2.96,3.98.1-1.41,0-3.16-.29-5.01-.66-4.22-4.22-6.87-6.29-6.14-3.25,1.14-2.99,4.79-1.63,8.79.62,1.8,1.72,3.11,2.89,4.02-.82-.11-1.69-.16-2.56-.15-4.51.06-8.12,1.98-8.04,5.37.04,1.91,2.28,4.06,6.32,2.84,1.78-.54,3.24-1.07,4.44-1.57-.8,1.08-1.47,2.32-1.79,3.65-1.06,4.45.08,7.93,2.54,8.04,3.51.16,4.99-3.87,5.28-7.8.08-1.13.14-2.28.15-3.36.9.95,2.19,1.97,3.87,2.83,3.53,1.8,7.66.49,8.5-1.53.84-2.02-1.6-4.61-5.45-5.78-1.33-.41-2.63-.58-3.8-.55,1.21-.76,2.51-1.74,3.81-2.87,4.63-4.03,4.77-7.03,3.39-8.34ZM453.31,340.9c-1.48.73-3.24.17-3.95-1.26-.7-1.42-.08-3.17,1.4-3.9,1.48-.73,3.24-.17,3.95,1.26.7,1.42.08,3.17-1.4,3.9Z"/>
        <path class="cls-7" d="M437.48,389.64c-1.38-1.31-5.2-.38-8.39,3.59-1.17,1.45-2.18,2.79-2.96,3.98.1-1.41,0-3.16-.29-5.01-.66-4.22-4.22-6.87-6.29-6.14-3.25,1.14-2.99,4.79-1.63,8.79.62,1.8,1.72,3.11,2.89,4.02-.82-.11-1.69-.16-2.56-.15-4.51.06-8.12,1.98-8.04,5.37.04,1.91,2.28,4.06,6.32,2.84,1.78-.54,3.24-1.07,4.44-1.57-.8,1.08-1.47,2.32-1.79,3.65-1.06,4.45.08,7.93,2.54,8.04,3.51.16,4.99-3.87,5.28-7.8.08-1.13.14-2.28.15-3.36.9.95,2.19,1.97,3.87,2.83,3.53,1.8,7.66.49,8.5-1.53.84-2.02-1.6-4.61-5.45-5.78-1.33-.41-2.63-.58-3.8-.55,1.21-.76,2.51-1.74,3.81-2.87,4.63-4.03,4.77-7.03,3.39-8.34ZM426.41,404.07c-1.48.73-3.24.17-3.95-1.26-.7-1.42-.08-3.17,1.4-3.9,1.48-.73,3.24-.17,3.95,1.26.7,1.42.08,3.17-1.4,3.9Z"/>
        <path class="cls-7" d="M391.25,337.45c-1.38-1.31-5.2-.38-8.39,3.59-1.17,1.45-2.18,2.79-2.96,3.98.1-1.41,0-3.16-.29-5.01-.66-4.22-4.22-6.87-6.29-6.14-3.25,1.14-2.99,4.79-1.63,8.79.62,1.8,1.72,3.11,2.89,4.02-.82-.11-1.69-.16-2.56-.15-4.51.06-8.12,1.98-8.04,5.37.04,1.91,2.28,4.06,6.32,2.84,1.78-.54,3.24-1.07,4.44-1.57-.8,1.08-1.47,2.32-1.79,3.65-1.06,4.45.08,7.93,2.54,8.04,3.51.16,4.99-3.87,5.28-7.8.08-1.13.14-2.28.15-3.36.9.95,2.19,1.97,3.87,2.83,3.53,1.8,7.66.49,8.5-1.53.84-2.02-1.6-4.61-5.45-5.78-1.33-.41-2.63-.58-3.8-.55,1.21-.76,2.51-1.74,3.81-2.87,4.63-4.03,4.77-7.03,3.39-8.34ZM380.18,351.87c-1.48.73-3.24.17-3.95-1.26-.7-1.42-.08-3.17,1.4-3.9,1.48-.73,3.24-.17,3.95,1.26.7,1.42.08,3.17-1.4,3.9Z"/>
        <path class="cls-7" d="M348.14,397.13c-1.33-.41-2.63-.58-3.8-.55,1.21-.75,2.51-1.74,3.81-2.87,4.63-4.03,4.77-7.03,3.39-8.34-1.38-1.31-5.2-.38-8.39,3.59-1.17,1.45-2.18,2.79-2.96,3.98.1-1.41,0-3.16-.29-5.01-.66-4.22-4.22-6.87-6.29-6.14-3.25,1.14-2.99,4.79-1.63,8.79.62,1.8,1.72,3.11,2.89,4.02-.82-.11-1.69-.16-2.56-.15-4.51.06-8.12,1.98-8.04,5.37,0,.16.03.32.06.48,3.38.37,6.59.78,9.65,1.21.37-.14.71-.28,1.04-.41-.12.17-.24.34-.36.51,2.26.33,4.43.67,6.52,1.03.01-.34.02-.68.02-1.01.39.41.86.84,1.4,1.26,3.23.57,6.25,1.17,9.07,1.78.92-.43,1.61-1.04,1.91-1.74.84-2.02-1.6-4.61-5.45-5.78ZM340.47,399.79c-1.48.73-3.24.17-3.95-1.26s-.08-3.17,1.4-3.9c1.48-.73,3.24-.17,3.95,1.26.7,1.42.08,3.17-1.4,3.9Z"/>
        <path class="cls-7" d="M347.2,281.66c-3.73.17-6.83.24-9.15.26-.94,1.19-1.77,2.31-2.42,3.31.07-.97.04-2.09-.07-3.29-1.49,0-2.29-.03-2.29-.03-2.09-.09-4.16-.16-6.21-.21.11.39.23.78.37,1.17.62,1.8,1.72,3.11,2.89,4.02-.82-.11-1.69-.16-2.56-.15-4.51.06-8.12,1.98-8.04,5.37.04,1.91,2.28,4.06,6.32,2.84,1.78-.54,3.24-1.07,4.44-1.57-.8,1.08-1.47,2.32-1.79,3.65-1.06,4.45.08,7.93,2.54,8.04,3.51.16,4.99-3.87,5.28-7.8.08-1.13.14-2.28.15-3.36.9.95,2.19,1.97,3.87,2.83,3.53,1.8,7.66.49,8.5-1.53.84-2.02-1.6-4.61-5.45-5.78-1.33-.41-2.63-.58-3.8-.55,1.21-.76,2.51-1.74,3.81-2.87,1.88-1.63,3.01-3.09,3.61-4.34ZM335.91,292.08c-1.48.73-3.24.17-3.95-1.26-.7-1.42-.08-3.17,1.4-3.9,1.48-.73,3.24-.17,3.95,1.26.7,1.42.08,3.17-1.4,3.9Z"/>
        <path class="cls-7" d="M310.01,331.06c-1.38-1.31-5.2-.38-8.39,3.59-1.17,1.45-2.18,2.79-2.96,3.98.1-1.41,0-3.16-.29-5.01-.66-4.22-4.22-6.87-6.29-6.14-3.25,1.14-2.99,4.79-1.63,8.79.62,1.8,1.72,3.11,2.89,4.02-.82-.11-1.69-.16-2.56-.15-4.51.06-8.12,1.98-8.04,5.37.04,1.91,2.28,4.06,6.32,2.84,1.78-.54,3.24-1.07,4.44-1.57-.8,1.08-1.47,2.32-1.79,3.65-1.06,4.45.08,7.93,2.54,8.04,3.51.16,4.99-3.87,5.28-7.8.08-1.13.14-2.28.15-3.36.9.95,2.19,1.97,3.87,2.83,3.53,1.8,7.66.49,8.5-1.53.84-2.02-1.6-4.61-5.45-5.78-1.33-.41-2.63-.58-3.8-.55,1.21-.76,2.51-1.74,3.81-2.87,4.63-4.03,4.77-7.03,3.39-8.34ZM298.94,345.48c-1.48.73-3.24.17-3.95-1.26-.7-1.42-.08-3.17,1.4-3.9,1.48-.73,3.24-.17,3.95,1.26.7,1.42.08,3.17-1.4,3.9Z"/>
        <path class="cls-7" d="M257.31,394.39c-1.33-.41-2.63-.58-3.8-.55,1.21-.75,2.51-1.74,3.81-2.87,4.63-4.03,4.77-7.03,3.39-8.34-1.38-1.31-5.2-.38-8.39,3.59-1.17,1.45-2.18,2.79-2.96,3.98.1-1.41,0-3.16-.29-5.01-.66-4.22-4.22-6.87-6.29-6.14-3.25,1.14-2.99,4.79-1.63,8.79.62,1.8,1.72,3.11,2.89,4.02-.82-.11-1.69-.16-2.56-.15-4.51.06-8.12,1.98-8.04,5.37.04,1.91,2.28,4.06,6.32,2.84,1.78-.54,3.24-1.07,4.44-1.57-.34.47-.66.96-.94,1.48,2.41-.19,4.77-.36,7.11-.51,0-.15,0-.3,0-.44.13.14.27.27.42.41,4.11-.27,8.12-.48,12.02-.65-.48-1.65-2.58-3.36-5.51-4.25ZM249.65,397.05c-1.48.73-3.24.17-3.95-1.26-.7-1.42-.08-3.17,1.4-3.9s3.24-.17,3.95,1.26c.7,1.42.08,3.17-1.4,3.9Z"/>
        <path class="cls-7" d="M265.28,289.98c-1.38-1.31-5.2-.38-8.39,3.59-1.17,1.45-2.18,2.79-2.96,3.98.1-1.41,0-3.16-.29-5.01-.66-4.22-4.22-6.87-6.29-6.14-3.25,1.14-2.99,4.79-1.63,8.79.62,1.8,1.72,3.11,2.89,4.02-.82-.11-1.69-.16-2.56-.15-4.51.06-8.12,1.98-8.04,5.37.04,1.91,2.28,4.06,6.32,2.84,1.78-.54,3.24-1.07,4.44-1.57-.8,1.08-1.47,2.32-1.79,3.65-1.06,4.45.08,7.93,2.54,8.04,3.51.16,4.99-3.87,5.28-7.8.08-1.13.14-2.28.15-3.36.9.95,2.19,1.97,3.87,2.83,3.53,1.8,7.66.49,8.5-1.53.84-2.02-1.6-4.61-5.45-5.78-1.33-.41-2.63-.58-3.8-.55,1.21-.75,2.51-1.74,3.81-2.87,4.63-4.03,4.77-7.03,3.39-8.34ZM254.21,304.4c-1.48.73-3.24.17-3.95-1.26s-.08-3.17,1.4-3.9c1.48-.73,3.24-.17,3.95,1.26.7,1.42.08,3.17-1.4,3.9Z"/>
        <path class="cls-7" d="M220.1,333.8c-1.38-1.31-5.2-.38-8.39,3.59-1.17,1.45-2.18,2.79-2.96,3.98.1-1.41,0-3.16-.29-5.01-.66-4.22-4.22-6.87-6.29-6.14-3.25,1.14-2.99,4.79-1.63,8.79.62,1.8,1.72,3.11,2.89,4.02-.82-.11-1.69-.16-2.56-.15-4.51.06-8.12,1.98-8.04,5.37.04,1.91,2.28,4.06,6.32,2.84,1.78-.54,3.24-1.07,4.44-1.57-.8,1.08-1.47,2.32-1.79,3.65-1.06,4.45.08,7.93,2.54,8.04,3.51.16,4.99-3.87,5.28-7.8.08-1.13.14-2.28.15-3.36.9.95,2.19,1.97,3.87,2.83,3.53,1.8,7.66.49,8.5-1.53.84-2.02-1.6-4.61-5.45-5.78-1.33-.41-2.63-.58-3.8-.55,1.21-.75,2.51-1.74,3.81-2.87,4.63-4.03,4.77-7.03,3.39-8.34ZM209.03,348.22c-1.48.73-3.24.17-3.95-1.26-.7-1.42-.08-3.17,1.4-3.9,1.48-.73,3.24-.17,3.95,1.26s.08,3.17-1.4,3.9Z"/>
        <path class="cls-7" d="M119.02,348.3c-1.33-.41-2.63-.58-3.8-.55,1.21-.76,2.51-1.74,3.81-2.87,4.63-4.03,4.77-7.03,3.39-8.34-1.38-1.31-5.2-.38-8.39,3.59-1.17,1.45-2.18,2.79-2.96,3.98.1-1.41,0-3.16-.29-5.01-.34-2.2-1.48-3.97-2.78-5.06-2.54,3.02-3.86,4.93-3.86,4.93,1.03,3.11,2.04,6.09,3.03,8.97.17-.88.75-1.68,1.63-2.12,1.48-.73,3.24-.17,3.95,1.26.7,1.42.08,3.17-1.4,3.9-1.11.55-2.39.37-3.25-.37,1.1,3.14,2.18,6.15,3.23,9.01.33-1.08.52-2.27.61-3.46.08-1.13.14-2.28.15-3.36.9.95,2.19,1.97,3.87,2.83,3.53,1.8,7.66.49,8.5-1.53.84-2.02-1.6-4.61-5.45-5.78Z"/>
        <path class="cls-7" d="M151.67,314.12c1.78-.54,3.24-1.07,4.44-1.57-.8,1.08-1.47,2.32-1.79,3.65-1.06,4.45.08,7.93,2.54,8.04,3.51.16,4.99-3.87,5.28-7.8.08-1.13.14-2.28.15-3.36.9.95,2.19,1.97,3.87,2.83,3.53,1.8,7.66.49,8.5-1.53.84-2.02-1.6-4.61-5.45-5.78-1.33-.41-2.63-.58-3.8-.55,1.21-.76,2.51-1.74,3.81-2.87,4.63-4.03,4.77-7.03,3.39-8.34-1.38-1.31-5.2-.38-8.39,3.59-1.17,1.45-2.18,2.79-2.96,3.98.1-1.41,0-3.16-.29-5.01-.05-.33-.13-.65-.21-.97-2.75.79-5.42,1.7-7.99,2.71.09.3.19.6.29.9.62,1.8,1.72,3.11,2.89,4.02-.82-.11-1.69-.16-2.56-.15-4.51.06-8.12,1.98-8.04,5.37.04,1.91,2.28,4.06,6.32,2.84ZM159.02,306.09c1.48-.73,3.24-.17,3.95,1.26.7,1.42.08,3.17-1.4,3.9-1.48.73-3.24.17-3.95-1.26-.7-1.42-.08-3.17,1.4-3.9Z"/>
        <path class="cls-7" d="M172.63,379.44c-1.38-1.31-5.2-.38-8.39,3.59-1.17,1.45-2.18,2.79-2.96,3.98.1-1.41,0-3.16-.29-5.01-.66-4.22-4.22-6.87-6.29-6.14-3.25,1.14-2.99,4.79-1.63,8.79.62,1.8,1.72,3.11,2.89,4.02-.82-.11-1.69-.16-2.56-.15-4.51.06-8.12,1.98-8.04,5.37.04,1.91,2.28,4.06,6.32,2.84,1.78-.54,3.24-1.07,4.44-1.57-.8,1.08-1.47,2.32-1.79,3.65-1.06,4.45.08,7.93,2.54,8.04,3.51.16,4.99-3.87,5.28-7.8.08-1.13.14-2.28.15-3.36.9.95,2.19,1.97,3.87,2.83,3.53,1.8,7.66.49,8.5-1.53.84-2.02-1.6-4.61-5.45-5.78-1.33-.41-2.63-.58-3.8-.55,1.21-.76,2.51-1.74,3.81-2.87,4.63-4.03,4.77-7.03,3.39-8.34ZM161.56,393.86c-1.48.73-3.24.17-3.95-1.26-.7-1.42-.08-3.17,1.4-3.9,1.48-.73,3.24-.17,3.95,1.26.7,1.42.08,3.17-1.4,3.9Z"/>
        <path class="cls-7" d="M430.05,278.57c-1.38-1.31-5.2-.38-8.39,3.59-1.17,1.45-2.18,2.79-2.96,3.98.1-1.41,0-3.16-.29-5.01-.66-4.22-4.22-6.87-6.29-6.14-3.25,1.14-2.99,4.79-1.63,8.79.62,1.8,1.72,3.11,2.89,4.02-.82-.11-1.69-.16-2.56-.15-4.51.06-8.12,1.98-8.04,5.37.04,1.91,2.28,4.06,6.32,2.84,1.78-.54,3.24-1.07,4.44-1.57-.8,1.08-1.47,2.32-1.79,3.65-1.06,4.45.08,7.93,2.54,8.04,3.51.16,4.99-3.87,5.28-7.8.08-1.13.14-2.28.15-3.36.9.95,2.19,1.97,3.87,2.83,3.53,1.8,7.66.49,8.5-1.53.84-2.02-1.6-4.61-5.45-5.78-1.33-.41-2.63-.58-3.8-.55,1.21-.76,2.51-1.74,3.81-2.87,4.63-4.03,4.77-7.03,3.39-8.34ZM418.98,292.99c-1.48.73-3.24.17-3.95-1.26-.7-1.42-.08-3.17,1.4-3.9,1.48-.73,3.24-.17,3.95,1.26.7,1.42.08,3.17-1.4,3.9Z"/>
      </g>
      <path class="cls-15" d="M392.82,305.41c11.3,16.8,25.46,28.07,33.59,33.7,3.93,2.71,8.98,2.68,13.14.35,20.82-11.68,36.79-29.48,36.79-29.48,12.78-12.78,3.19-34.23,3.19-34.23l-15.06-13.24c-12.32-2.74-27.84,1.37-27.84,1.37-13.24-2.74-18.26-4.11-18.26-4.11-13.24-3.19-26.24,4.34-26.24,4.34,12.32,0,15.52,10.5,15.52,10.5,11.41-5.93,19.4-4.34,19.4-4.34,13.69,15.06,18.26,30.12,18.26,30.12-4.11,3.19-8.67,4.11-8.67,4.11-7.76-8.22-24.65-20.08-24.65-20.08-10.04,7.3-19.17,20.99-19.17,20.99Z"/>
      <path class="cls-16" d="M407.13,272.56h0c-.91,1.08-1.16,2.57-.65,3.89,2.06,5.26,2.77,10.25,2.77,10.25-8.22,7.3-12.5,13.36-12.5,13.36l-3.02-3.78c-2.74,3.19-4.11-.46-4.11-.46-3.65,1.83-4.11-2.28-4.11-2.28-2.74.91-3.19-.91-3.19-.91-.46-.91-.46-1.83-.46-1.83-3.65.91-3.19-1.83-3.19-1.83,2.28-12.32,12.78-18.26,12.78-18.26,2.28-1.83,4.79-6.16,4.79-6.16,7.26,1.47,10.89,8,10.89,8Z"/>
      <path class="cls-12" d="M393.74,296.51s-.06,0-.09-.02c-.12-.05-.17-.18-.12-.3.01-.03,1.17-2.74,1.69-5.62.12-.64.35-1.26.7-1.82.68-1.1,2.01-2.92,4.5-5.41l.15-.15.16.14s3.69,3.23,5.79,5.6c.08.09.08.24-.02.32-.09.08-.24.07-.32-.02-1.84-2.06-4.86-4.77-5.59-5.41-2.36,2.38-3.63,4.12-4.28,5.18-.32.51-.54,1.07-.64,1.66-.54,2.93-1.71,5.69-1.72,5.72-.04.09-.12.14-.21.14Z"/>
      <path class="cls-12" d="M389.63,296.05c-.13,0-.23-.1-.23-.23,0-.03,0-2.65.42-5.71.03-.2.07-.39.14-.59.26-.79,1.29-3.63,3.59-7.07.07-.11.21-.13.32-.06.11.07.13.21.06.32-2.26,3.39-3.27,6.18-3.53,6.96-.06.17-.09.34-.12.5-.41,3.03-.42,5.62-.42,5.65,0,.13-.1.23-.23.23Z"/>
      <path class="cls-12" d="M385.52,293.77c-.1,0-.2-.07-.22-.17-.01-.05-.32-1.28-.43-3.25-.05-.91.13-1.82.53-2.66.69-1.44,1.87-3.75,3.57-6.59.06-.11.2-.14.31-.08s.14.21.08.31c-1.69,2.82-2.87,5.12-3.55,6.55-.36.76-.53,1.6-.49,2.43.11,1.92.41,3.15.41,3.16.03.12-.04.25-.17.28-.02,0-.04,0-.06,0Z"/>
      <path class="cls-12" d="M381.87,291.03c-.1,0-.2-.07-.22-.17-.02-.08-.46-1.9,0-4.21.02-.1.5-2.38,3.69-6.49.08-.1.22-.12.32-.04.1.08.12.22.04.32-3.11,4-3.6,6.27-3.61,6.29-.44,2.21,0,3.99,0,4.01.03.12-.04.25-.17.28-.02,0-.04,0-.06,0Z"/>
      <path class="cls-16" d="M477.71,235.12c-4.94,5.6-10.11,16.18-12.62,21.65-1.55,3.38-2.31,7.09-2.07,10.8,1.2,18.5,24.27,15.93,24.27,15.93,5.48-9.58,10.95-10.5,10.95-10.5,15.06-5.93,19.17-14.15,19.17-14.15-13.24-41.08-39.71-23.73-39.71-23.73Z"/>
      <path class="cls-1" d="M481.71,245.17c-2.47-1.02-3.73-.92-6.03-.46-.13.03-.19.14-.15.27h0c.05.14.2.26.35.26,3.14.04,4.48.63,5.54,1.2.4.21.81.04.91-.3h0c.1-.35-.17-.8-.61-.98Z"/>
      <path class="cls-1" d="M496.98,257.36c1.58,1.85,1.78,3.13,1.88,5.62,0,.14-.09.27-.23.3h0c-.15.03-.3-.05-.34-.2-.78-3.03-1.67-4.02-2.48-4.73-.3-.27-.23-.77.07-1.05h0c.32-.29.81-.27,1.09.06Z"/>
      <path class="cls-12" d="M478.34,253.62c-.63.31-1.37.46-2.11.33-.38-.03-.73-.19-1.08-.34-.17-.09-.33-.2-.49-.3-.16-.1-.29-.25-.44-.37-.55-.53-.92-1.2-1.12-1.89-.19-.69-.25-1.42-.05-2.11.37.61.69,1.16,1.03,1.67.34.51.7.96,1.09,1.35.19.2.42.36.63.54.24.14.46.31.74.43.26.15.54.24.84.36.3.13.62.18.96.34Z"/>
      <path class="cls-12" d="M488.74,262.1c.15.34.19.67.31.97.12.3.2.59.34.85.1.27.28.5.41.75.17.22.32.45.52.64.38.41.82.78,1.32,1.13.5.35,1.05.69,1.65,1.07-.7.18-1.42.11-2.11-.1-.69-.22-1.35-.61-1.86-1.17-.12-.15-.26-.28-.36-.45-.1-.17-.2-.33-.29-.5-.14-.36-.28-.71-.31-1.09-.12-.74.06-1.48.38-2.1Z"/>
      <path class="cls-12" d="M478.63,261.89c-.1,0-.19-.05-.25-.13-.09-.14-.05-.32.08-.41.01,0,1.32-.9,2.18-2.62.07-.15.25-.21.4-.13.15.07.21.25.13.4-.94,1.87-2.32,2.81-2.38,2.85-.05.03-.11.05-.16.05Z"/>
      <path class="cls-12" d="M479.54,266.46s-.01,0-.02,0c-.03,0-2.72-.2-3.52-2.83-.05-.16.04-.32.2-.37.16-.05.32.04.37.2.68,2.24,2.97,2.41,2.99,2.41.16.01.29.15.28.31,0,.16-.14.28-.3.28Z"/>
      <path class="cls-12" d="M477.29,272.54c-.06,0-.11-.03-.16-.07l-5.3-4.84c-.1-.09-.09-.23,0-.31.1-.08.25-.08.35,0l5.3,4.84c.1.09.09.23,0,.31-.05.04-.12.06-.19.06Z"/>
      <path class="cls-12" d="M445.08,300.5c-.14,0-.26-.08-.32-.22-.07-.18.02-.38.19-.44,4.48-1.79,12.19-6.77,12.26-6.82.16-.1.37-.06.47.1.1.16.06.37-.1.47-.08.05-7.84,5.06-12.38,6.88-.04.02-.09.02-.13.02Z"/>
      <path class="cls-12" d="M426.83,270.38c-.19,0-.34-.15-.34-.34,0-.37.67-1.92,9.32-6.24.17-.09.38-.02.46.15.08.17.02.37-.15.46-8.19,4.09-8.89,5.55-8.94,5.68-.02.16-.17.29-.34.29Z"/>
      <path class="cls-12" d="M437.32,320.13s-.04,0-.06,0c-.19-.03-.31-.21-.28-.4.02-.1,1.77-9.99-.88-15.3-.08-.17-.02-.37.15-.46.17-.09.38-.02.46.15,2.76,5.52,1.02,15.32.94,15.73-.03.17-.17.28-.34.28Z"/>
      <path class="cls-12" d="M433.21,316.93c-.05,0-.1-.01-.15-.04-.17-.08-.24-.29-.15-.46.02-.05,2.26-4.56,2.7-8.56.02-.19.19-.32.38-.3.19.02.32.19.3.38-.46,4.12-2.68,8.6-2.77,8.79-.06.12-.18.19-.31.19Z"/>
      <path class="cls-8" d="M474.75,238.95c-.62.87-1.45,1.55-2.33,2.06-.89.52-1.83.87-2.76,1.2-.93.33-1.87.61-2.77.96-.9.35-1.79.72-2.54,1.26-.76.54-1.35,1.26-1.74,2.09-.37.84-.47,1.8-.53,2.76-.06.97-.07,1.97-.27,2.96-.19,1-.61,1.96-1.2,2.78-1.17,1.65-3.02,2.83-5.02,3.09-.99.15-1.98.15-2.95.22-.97.07-1.93.22-2.78.66-1.71.85-2.58,3.04-2.01,4.86.57,1.83,2.6,3.09,4.52,2.81h-.02c.37-.24.5-.72.44-1.16-.06-.44-.29-.86-.66-1.12-.37-.26-.82-.38-1.27-.4-.45-.02-.91.05-1.35.16h0c-.32.15-.32.69,0,.84-.33-.15-.34-.69-.01-.86h0c.44-.12.89-.2,1.35-.19.46.01.92.13,1.31.39.39.26.63.7.71,1.16.08.45-.05.98-.46,1.27h-.01s-.01,0-.01,0c-1.98.32-4.09-.92-4.74-2.85-.64-1.92.23-4.24,2.06-5.2.9-.48,1.91-.66,2.89-.74.98-.09,1.96-.11,2.91-.27,1.89-.28,3.6-1.41,4.67-2.98.54-.78.91-1.67,1.07-2.59.17-.93.17-1.9.21-2.89.04-.98.13-2.02.53-2.99.42-.96,1.1-1.8,1.93-2.41.83-.62,1.76-1.02,2.68-1.4.93-.37,1.86-.67,2.77-1.01,1.81-.65,3.59-1.5,4.62-3l.76.51Z"/>
      <path class="cls-1" d="M494.68,249.78c-.77-.05-1.55-.05-2.32.02-.39.04-.77.09-1.15.16-.37.07-.79.14-1.09.26-.3.11-.49.32-.55.61-.07.29.01.65.16.97.15.32.37.6.65.84.29.24.62.46.95.69.33.23.66.48.95.81.29.31.5.72.59,1.14.16.85-.11,1.74-.7,2.35-.58.63-1.54.81-2.31.55-.78-.24-1.46-.85-1.67-1.64l-.02-.07.06.04.94.67-.97-.62.04-.03c.24.76.91,1.32,1.66,1.5.74.21,1.59,0,2.07-.58.5-.56.7-1.38.53-2.09-.17-.72-.78-1.22-1.44-1.63-.33-.21-.68-.42-1.01-.67-.34-.25-.65-.6-.85-.99-.2-.39-.34-.85-.26-1.34.04-.25.14-.49.31-.7.17-.2.39-.35.6-.44.44-.18.81-.25,1.22-.35.4-.09.8-.16,1.21-.22.81-.11,1.63-.16,2.45-.14l-.04.91Z"/>
      <path class="cls-2" d="M483.19,225.08c-10.5,7.3-8.22,13.24-8.22,13.24,16.89,3.65,32.4,30.12,32.4,30.12,5.93-3.65,12.32-11.41,12.32-11.41-13.69-32.86-36.51-31.95-36.51-31.95Z"/>
      <path class="cls-12" d="M486.16,287.72s-.05,0-.07,0c-.19-.04-.3-.22-.27-.4.38-1.86,1.25-3.81,2.66-5.96,2.45-3.74,6.15-6.97,10.69-9.32,1.32-.68,2.71-1.24,4.05-1.78,1.71-.68,3.47-1.39,5.08-2.35,2.61-1.57,4.9-3.64,6.98-5.65,3.66-3.53,6.81-7.6,9.84-11.54,3.02-3.92,6.15-7.97,9.81-11.52.14-.13.35-.13.48,0,.13.14.13.35,0,.48-3.62,3.52-6.74,7.55-9.74,11.45-3.05,3.96-6.21,8.05-9.91,11.61-2.11,2.04-4.44,4.14-7.11,5.75-1.65.99-3.44,1.71-5.17,2.4-1.33.53-2.7,1.08-3.99,1.75-4.44,2.3-8.05,5.44-10.43,9.08-1.36,2.07-2.19,3.94-2.56,5.72-.03.16-.18.27-.33.27Z"/>
      <path class="cls-12" d="M500.93,340.99c-.15,0-.29-.1-.33-.26-.05-.18.07-.37.25-.41.22-.05,21.89-5.54,42.05-24.13.14-.13.36-.12.48.02.13.14.12.36-.02.48-20.29,18.71-42.13,24.24-42.35,24.29-.03,0-.06.01-.08.01Z"/>
      <g>
        <path class="cls-1" d="M295.51,106.71c-.06-.4-.16-.8-.29-1.18-.47-1.45-1.4-2.72-2.42-3.74-1.02-1.03-2.13-1.91-3.14-2.83-1.02-.91-1.87-1.92-2.68-3.05-.81-1.11-1.57-2.3-2.47-3.43-.89-1.12-1.93-2.2-3.23-2.96-1.29-.78-2.79-1.13-4.25-1.19-1.47-.07-2.91.16-4.3.49-2.79.69-5.33,1.9-7.99,2.58-1.33.35-2.67.53-4.03.5-.64-.01-1.27-.07-1.91-.14-2.6-.75-5.15-1.75-7.78-1.3-.09.01-.17.04-.26.05-.86-.05-1.72-.05-2.58.03-1.43.15-2.87.53-4.13,1.29-.62.38-1.21.85-1.7,1.39-.5.53-.92,1.1-1.33,1.67-.82,1.14-1.61,2.27-2.7,3.06-1.08.81-2.34,1.37-3.66,1.77-2.64.82-5.45,1.1-8.15,1.99-1.34.44-2.67,1.07-3.75,2.03-1.09.95-1.88,2.22-2.34,3.56-.96,2.7-.89,5.57-1.68,8.23-.39,1.32-.96,2.61-1.88,3.63-.33.37-.71.69-1.13.96-.21.01-.43.03-.64.04-1.79.11-3.8.45-5.14,1.51-.26.07-.52.14-.78.23-.67.23-1.31.55-1.88.99-.55.45-1.02,1.04-1.23,1.73-.22.68-.21,1.43-.05,2.11.16.69.42,1.35.71,1.99.57,1.27,1.21,2.54,1.31,3.94.25,2.77-1.11,5.66-3.48,7.17,2.39-1.48,3.8-4.37,3.57-7.18-.09-1.42-.73-2.72-1.28-3.99-.27-.64-.53-1.29-.68-1.97-.15-.67-.15-1.38.07-2.03.2-.65.65-1.21,1.18-1.63.54-.42,1.17-.72,1.83-.94.11-.04.23-.07.35-.11-.3.3-.55.65-.74,1.05-1.58,3.33,2.33,6.82,2.31,10.51-.02,2.97-2.52,5.23-4.6,7.35-.48.49-.96,1.01-1.18,1.66-.54,1.54.56,3.23,1.95,4.06,1.4.84,3.05,1.1,4.58,1.67,4.01,1.49,7.07,5.26,7.71,9.49.15.98.19,2.03.74,2.85.77,1.15,2.29,1.51,3.68,1.65,8.45.82,16.56-3.2,23.95-7.4,4.59-2.61,9.15-5.36,13.17-8.79,4.98-4.25,9.05-9.45,13.74-14.02,4.33-4.22,9.16-7.87,13.53-12.05,3.37-3.23,9.11-8.02,7.08-13.33ZM237.28,101.75c-2.29,1.19-4.95,1.42-7.45,2.06-2.51.64-5.11,1.89-6.17,4.25-1.4,3.14.33,7.33-1.88,9.97-1.3,1.55-3.42,1.9-5.49,2.05.28-.21.55-.45.79-.71.98-1.06,1.58-2.39,1.99-3.73.42-1.35.61-2.76.83-4.14.22-1.38.46-2.75.93-4.04.46-1.29,1.21-2.47,2.25-3.35,1.03-.89,2.29-1.48,3.6-1.9,2.63-.84,5.44-1.1,8.17-1.91,1.36-.4,2.7-.97,3.87-1.83,1.19-.85,2.05-2.06,2.87-3.17.82-1.13,1.69-2.17,2.85-2.84,1.15-.67,2.48-1.02,3.83-1.14.12-.01.23-.01.35-.02-4.31,2.29-6.77,8.09-11.33,10.46ZM288.42,100.66c-3.32-2.71-4.82-7.46-8.66-9.37-4.72-2.35-10.17.77-15.48,1.17.23-.05.46-.09.68-.15,2.78-.68,5.35-1.87,8-2.49,1.33-.31,2.68-.5,4.01-.42,1.33.07,2.63.4,3.74,1.08,1.12.67,2.05,1.64,2.89,2.72.84,1.07,1.58,2.25,2.4,3.41.8,1.16,1.75,2.31,2.81,3.27,1.05.97,2.13,1.85,3.06,2.82.16.17.32.34.47.51-1.3-.85-2.74-1.58-3.93-2.55Z"/>
        <g>
          <path class="cls-16" d="M237.19,366.16c13.1,4.09,24.84,6.37,24.84,6.37-4.12,43.4-8.55,103.71-9.94,123.01-.27,3.74-1.39,7.37-3.28,10.59-9.32,15.84,1.03,16.99,1.03,16.99l38.39,5,20.77-23.66c-2.96-.87-5.4-1.75-7.4-2.62-5.41-2.33-8.41-8.2-7.22-14,15.75-76.65,25.58-116.18,28.52-133.02,1.37-7.85-1.5-15.86-7.58-20.97-19.38-16.3-38.38-25.03-38.38-25.03-38.39,20.47-39.74,57.33-39.74,57.33Z"/>
          <g>
            <path class="cls-12" d="M297.54,520.94c-2.41-.06-4.75-.19-7.01-.34-.06.3-.16.61-.33.92-.24.44-.43.86-.57,1.28-.09.55-.16,1.1-.23,1.66,4.22.27,8.82.62,13.72,1.09,19.5,1.88,29.79-.08,29.82-1.35.03-1.28-15.82-2.73-35.4-3.24Z"/>
            <path class="cls-3" d="M303.49,500.38c-15.87,6.98-19.06,20.68-19.06,20.68l44.85,4.19c9.68-1.29,4.35-7.57,4.35-7.57-10.08-9.35-30.14-17.29-30.14-17.29Z"/>
          </g>
          <path class="cls-12" d="M284.43,509.08s-.06,0-.09-.01c-.24-.06-5.94-1.64-8.11-8.91-.83-2.76-.88-5.79-.15-8.77,4.03-16.51,24.28-100.66,27.64-135.7.39-4.06-1.33-7.96-4.59-10.44-5.49-4.18-13.56-10.03-20.81-14.21-.16-.09-.22-.3-.13-.47.09-.16.3-.22.47-.13,7.28,4.2,15.37,10.07,20.88,14.26,3.45,2.62,5.27,6.75,4.86,11.05-3.36,35.08-23.63,119.28-27.66,135.8-.7,2.86-.65,5.77.14,8.41,2.07,6.91,7.58,8.43,7.63,8.45.18.05.29.24.24.42-.04.15-.18.26-.33.26Z"/>
          <path class="cls-12" d="M262.06,373.07c-.12,0-.23-.06-.29-.17-.1-.16-.04-.37.12-.47l4.56-2.74c.16-.1.37-.04.47.12.1.16.04.37-.12.47l-4.56,2.74c-.06.03-.12.05-.18.05Z"/>
          <g>
            <path class="cls-12" d="M313.87,531.35c-.08,1.3-10.66,2.91-30.5.24-24.59-3.31-41.86-3.17-41.61-5.67.56-5.63,16.12-.51,36.09.76,19.97,1.28,36.1,3.37,36.02,4.67Z"/>
            <path class="cls-3" d="M284.43,505.09c-12.77,9.46-16.89,22.82-16.89,22.82l42.54,4.39c9.93-.95,4.73-7.57,4.73-7.57-9.93-9.93-30.38-19.65-30.38-19.65Z"/>
          </g>
          <path class="cls-12" d="M314.04,524.33c-.09,0-.18-.04-.25-.11-.08-.08-7.83-8.43-22.26-15.14-.17-.08-.25-.28-.17-.45.08-.17.28-.25.45-.17,14.56,6.77,22.4,15.21,22.48,15.3.13.14.12.36-.02.48-.07.06-.15.09-.23.09Z"/>
        </g>
        <path class="cls-13" d="M158.15,286.35c-38.71,73.37,95.47,85.24,95.47,85.24,27.38-48.84,47.92-49.75,47.92-49.75-25.56-17.8-54.31-32.86-54.31-32.86l-89.08-2.63Z"/>
        <path class="cls-16" d="M270.51,194.5c31.73,52.61,65.93,74.48,73.68,78.97.92.54,2.04.62,3.03.2,5.08-2.12,14.11-2.5,14.11-2.5,5.02,0,13.69-1.83,13.69-1.83,1.37,1.83-.91,2.74-.91,2.74l9.13-.46c3.65.91.46,2.74.46,2.74,2.28.46,3.65.46,3.65.46,3.65,1.37-.46,4.11-.46,4.11,1.83,3.19-2.28,2.74-2.28,2.74-5.48,0-8.67-1.37-8.67-1.37-5.48-1.83-12.78,2.28-12.78,2.28,1.23,0,4.12.21,5.87.34.81.06,1.43.74,1.43,1.55h0c0,.54-.28,1.05-.75,1.33-2.44,1.43-5.54,2-6.85,2.18-.36.05-.72.07-1.09.08-2.71.09-6.38.9-6.38.9-9.58.46-13.69-3.19-13.69-3.19-42.9-13.69-72.57-44.27-72.57-44.27l1.37-47.01Z"/>
        <path class="cls-16" d="M294.2,140.97c-.35-1.44-.21-2.95.4-4.3,1.96-4.33,6.04-14.74-2.63-30.25,0,0-17.69-21.11-40.16-5.48-13.84,9.62-22.59,33.55.45,49.27,0,0,3.14,10.68,21.72,17.63,2.77,1.04,5.85.6,7.76-1.67,1.15-1.36,3.19-3.21,4.98-5.22-1.1-.87-2.93-1.58-4.11-2.28,0,0,3.23.52,6.39.46.91-2.28,1.57-3.4,2.77-5.75,0,0,1.52-.09,3-.42.99-.22,1.61-1.21,1.37-2.19l-1.94-9.81Z"/>
        <path class="cls-12" d="M280.45,140.65c-.16,0-.29-.13-.3-.29,0-.16.13-.3.29-.3,3.4-.08,5.14-.43,7.46-1.5.15-.07.32,0,.39.15.07.15,0,.33-.15.39-2.41,1.1-4.2,1.47-7.69,1.55,0,0,0,0,0,0Z"/>
        <path class="cls-12" d="M282.84,139.95c-.28.53-.33,1.17-.06,1.76.46,1,1.64,1.44,2.64.98,1-.46,1.44-1.64.98-2.64-.13-.28-.32-.52-.55-.7l-3.01.6Z"/>
        <path class="cls-12" d="M287.36,129.93c-3.32.53-4.66,1.64-6.95,4.04-.13.14-.14.34-.01.49h0c.13.15.37.2.53.09,3.5-2.38,5.32-2.61,6.82-2.66.56-.02.92-.58.84-1.1h0c-.08-.55-.64-.95-1.23-.85Z"/>
        <path class="cls-16" d="M246.77,138.82c-5.02,10.04-24.19,21.91-24.19,21.91,18.71,47.47,47.92,32.4,47.92,32.4-4.11-12.32,2.74-35.6,2.74-35.6l-26.47-18.71Z"/>
        <rect class="cls-12" x="252.17" y="131.01" width="22.28" height="49.99" rx="3.41" ry="3.41" transform="translate(-36.45 217.74) rotate(-42.28)"/>
        <path class="cls-11" d="M246.37,141.63c.48.59,1.66.42,2.64-.37s1.39-1.91.91-2.5c-.48-.59-1.66-.42-2.64.37-.98.79-1.39,1.91-.91,2.5Z"/>
        <path class="cls-4" d="M229.2,155.94c-14.6,8.22-20.08,11.41-20.08,11.41-14.15,6.85-23.9,8.82-29.67,51.12-6.85,50.2-24.65,71.2-24.65,71.2,57.96,37.43,101.32,2.28,101.32,2.28-13.69-15.06,4.56-38.34,4.56-38.34,3.88-4.79,9.13-9.58,9.13-9.58,2.28,1.83,4.56,3.65,4.56,3.65,0,0,6.37-3.63,11.87-9.13,4.56-4.56,7.76-10.5,7.76-10.5-14.15-17.8-21.72-30.6-21.72-30.6-.19-4.09-1.04-7.61-1.04-7.61,0,0-6.1,2-18.78-2.41-20.99-7.3-23.28-31.49-23.28-31.49Z"/>
        <path class="cls-16" d="M232.17,224.17l2.28,4.56c17.34-27.38,20.54-42.45,20.54-42.45,1.37-7.76-1.83-15.52-1.83-15.52-4.11-7.3-2.74-12.32-2.74-12.32l4.56,5.02c-1.46-5.85-2.63-16.65-3.04-21.08-.09-.98.6-1.85,1.58-1.99h0c.86-.12,1.69.37,1.99,1.19,2.96,8.01,5.4,17.77,5.4,17.77,1.67-3.35,4.03-7.03,5.61-9.39,1.33-1.99,3.64-3.15,6.01-2.89,3.53.39,4.81,2.7,4.81,2.7.46,2.74-2.28,3.19-2.28,3.19h-2.74c-2.28,1.37-3.65,7.76-3.65,7.76,6.39-6.39,11.41-5.48,11.41-5.48,2.57.26,2.82,1.81,2.56,3.12-.2.99-1.05,1.75-2.06,1.77-1.32.03-1.87.58-1.87.58-4.11,3.65-4.56,7.3-4.56,7.3,4.14-1.72,9.83-2.15,12.38-2.25.76-.03,1.42.5,1.57,1.24h0c.12.62-.14,1.26-.67,1.6-2.8,1.77-5.06,2.15-5.06,2.15-3.65.46-6.39,3.19-6.39,3.19-1.02,7.79-5.05,15.08-7.06,18.32-.77,1.25-1.3,2.63-1.56,4.08-9.49,52.7-21.85,70.77-27.79,77.03-1.85,1.95-4.71,2.56-7.19,1.54-17.21-7.07-29.87-31.59-29.87-31.59,15.52-11.41,29.67-19.17,29.67-19.17Z"/>
        <path class="cls-12" d="M360.6,283.02c-1.72,0-3.3-.19-3.4-.21-.13-.02-.21-.13-.2-.26.02-.13.13-.21.26-.2.04,0,3.64.45,5.86,0,.12-.02.24.06.27.18.02.12-.06.24-.18.27-.78.16-1.71.21-2.61.21Z"/>
        <path class="cls-12" d="M386.89,279.17s-.02,0-.03,0c-.03,0-3.26-.48-6.45-1.84-.01,0-1.78-.71-4.92-1.78-.88-.3-1.83-.42-2.75-.34-1.57.14-4.03.31-6.84.31-.13,0-.23-.1-.23-.23s.1-.23.23-.23c2.8,0,5.24-.17,6.8-.31.98-.09,2,.03,2.94.36,3.16,1.08,4.93,1.79,4.95,1.8,3.13,1.34,6.31,1.81,6.34,1.81.13.02.21.13.19.26-.02.11-.11.2-.23.2Z"/>
        <path class="cls-12" d="M383.7,274.6s-.02,0-.02,0c-.16-.02-3.93-.4-6.68-1.53-.5-.21-1.02-.33-1.53-.37-1.71-.14-4.86-.38-6.83-.38-.13,0-.23-.1-.23-.23s.1-.23.23-.23c1.99,0,5.16.24,6.87.38.56.05,1.12.18,1.67.41,2.69,1.1,6.51,1.49,6.55,1.5.13.01.22.12.2.25-.01.12-.11.21-.23.21Z"/>
        <path class="cls-12" d="M254.53,187.89s-.06,0-.09-.02c-.12-.05-.17-.18-.12-.3.03-.06,2.64-6.45-1.78-17.71-.01-.02-2.8-5.05-2.34-11.43,0-.13.12-.22.24-.21.13,0,.22.12.21.24-.45,6.25,2.27,11.15,2.3,11.2,4.51,11.47,1.9,17.82,1.79,18.08-.04.09-.12.14-.21.14Z"/>
        <path class="cls-12" d="M275.53,153.2c-.11,0-.21-.08-.22-.19-.02-.12.06-.24.19-.26.08-.01,1.97-.36,1.81-2.15-.04-.47-.24-.93-.58-1.34-.82-1.01-2.73-2.6-6.29-1.91-.12.02-.24-.06-.27-.18-.02-.12.06-.24.18-.27,3.8-.74,5.85.98,6.73,2.07.39.48.63,1.03.67,1.59.2,2.21-2.17,2.63-2.19,2.64-.01,0-.03,0-.04,0Z"/>
        <path class="cls-12" d="M281.46,160.5c-.08,0-.16-.05-.2-.13-.06-.11-.01-.25.1-.31.42-.21,1.51-1.72,1.19-2.91-.34-1.27-2.13-1.84-5.19-1.67-.13,0-.23-.09-.24-.22,0-.13.09-.23.22-.24,4.17-.23,5.38.97,5.65,2.01.38,1.45-.83,3.14-1.43,3.44-.03.02-.07.02-.1.02Z"/>
        <path class="cls-12" d="M201.82,244.37c-.09,0-.18-.03-.24-.1-.06-.06-5.59-5.66-11.48-17.89-.08-.17-.01-.37.16-.46.17-.08.38-.01.46.16,5.83,12.12,11.29,17.65,11.34,17.71.13.13.13.35,0,.48-.07.07-.15.1-.24.1Z"/>
        <path class="cls-12" d="M232.4,223.83c-.15,0-.29-.11-.33-.26-.03-.13-3.26-13.38-9.57-28.24-.07-.17,0-.38.18-.45.17-.07.38,0,.45.18,6.33,14.91,9.57,28.22,9.6,28.35.04.18-.07.37-.25.41-.03,0-.05,0-.08,0Z"/>
        <path class="cls-12" d="M228.29,239.35c-.06,0-.13-.02-.18-.05-.16-.1-.21-.31-.1-.47l6.39-10.04c.1-.16.31-.21.47-.11.16.1.21.31.1.47l-6.39,10.04c-.07.1-.18.16-.29.16Z"/>
        <path class="cls-12" d="M269.82,244.37c-.12,0-.24-.06-.3-.18-.09-.17-.03-.37.13-.47.12-.07,11.99-6.99,5.32-28.35-.03-.1-2.3-8.82-3.21-17.87-.02-.19.12-.36.31-.37.19-.02.36.12.37.31.9,9,3.16,17.66,3.19,17.75,6.85,21.9-5.52,29.07-5.64,29.14-.05.03-.11.04-.17.04Z"/>
        <path class="cls-12" d="M278.04,329.71c-.06,0-.13-.02-.18-.05-9.92-6.31-20.42-12.25-20.52-12.31-.16-.09-.22-.3-.13-.47.09-.16.3-.22.47-.13.11.06,10.62,6.01,20.55,12.33.16.1.21.31.1.47-.07.1-.18.16-.29.16Z"/>
        <path class="cls-1" d="M265.03,93.64c-21.58,1.6-31.22,19.57-26.82,42.55.66,1.29,1.34,2.57,2.03,3.84.07.12.12.24.17.36.52.15,1.04.26,1.59.32-.55-2-1.06-4.65-.7-6.91.75-4.71,4.89-7.8,12.32-2.28,0,0,9.13,5.48,10.5-3.65,0,0,.4-2.19,2.77-3.15.67.08,1.33.2,1.97.38,1.87.5,3.65,1.31,5.53,1.92,1.88.6,3.9.97,5.92.61.5-.08,1-.24,1.48-.43.47-.22.94-.46,1.34-.79.84-.63,1.47-1.5,1.92-2.41.92-1.85,1.18-3.88,1.52-5.77.17-.95.37-1.88.68-2.76.31-.87.73-1.7,1.31-2.34.59-.64,1.35-1.15,2.15-1.41.81-.25,1.65-.22,2.33.14l.14-.27c.61.13,1.25.31,1.93.53,0,0-2.33-20.55-30.1-18.49ZM287.67,112.34c-.71.84-1.15,1.8-1.46,2.78-.31.98-.49,1.97-.64,2.94-.29,1.95-.49,3.87-1.28,5.57-.38.84-.92,1.61-1.63,2.18-.34.3-.75.52-1.16.72-.42.18-.86.34-1.32.43-1.84.38-3.8.1-5.64-.43-1.86-.54-3.67-1.3-5.6-1.76-.46-.11-.94-.2-1.41-.27,1.17-.31,2.72-.35,4.79.17,0,0,9.13.91,11.41-8.22,0,0,.5-4.19,4.92-5.05-.36.28-.7.59-.99.93Z"/>
        <path class="cls-8" d="M287.97,107.71c-2.11-.27-3.97-1.35-5.6-2.52-1.64-1.17-3.13-2.53-4.78-3.54-1.66-.99-3.54-1.71-5.44-1.66-.94.02-1.86.3-2.63.81-.79.49-1.37,1.29-2.07,2.03-.71.76-1.58,1.38-2.53,1.8-.95.42-1.95.68-2.97.81-2.03.28-4.07.09-6.04-.17-1.98-.25-3.95-.53-5.91-.42-.49.04-.98.08-1.46.17-.48.08-.95.19-1.39.37-.44.18-.84.42-1.15.77-.18.15-.29.36-.42.55-.1.21-.22.41-.28.64-.31.9-.29,1.9-.29,2.89.01.99.06,2.01-.09,3.02-.08.51-.21,1.01-.42,1.49-.22.47-.5.91-.84,1.3-.68.78-1.55,1.36-2.47,1.79-1.85.89-3.89,1.09-5.85,1.38-.98.15-1.96.32-2.91.6-.47.14-.94.31-1.38.52-.44.22-.86.48-1.25.77-.78.6-1.46,1.34-1.87,2.23-.43.88-.53,1.91-.24,2.85.58,1.9,2.3,3.23,2.93,5.18.31.97.22,2.03-.16,2.96-.38.93-1,1.76-1.75,2.41-1.53,1.32-3.48,1.96-5.36,2.59,1.88-.64,3.81-1.31,5.32-2.63.74-.66,1.35-1.48,1.71-2.4.37-.92.44-1.96.13-2.9-.62-1.9-2.35-3.2-2.98-5.16-.15-.49-.21-1-.17-1.51.03-.51.19-1.01.4-1.47.42-.93,1.12-1.71,1.91-2.33.4-.31.83-.58,1.29-.81.46-.22.93-.4,1.41-.55.96-.3,1.95-.48,2.94-.64,1.97-.31,3.97-.53,5.74-1.41.88-.42,1.7-.99,2.33-1.72.31-.37.57-.77.77-1.21.19-.44.3-.91.38-1.39.13-.96.08-1.96.05-2.95-.01-1-.05-2.03.28-3.04.29-1.01,1.12-1.88,2.1-2.26.49-.2.99-.33,1.49-.41.5-.1,1.01-.15,1.51-.19,2.03-.13,4.04.14,6.01.36,1.97.24,3.95.39,5.89.11.96-.14,1.91-.39,2.78-.79.87-.41,1.65-.97,2.3-1.67.66-.7,1.27-1.56,2.18-2.15.88-.6,1.95-.93,3-.96,2.12-.07,4.12.7,5.88,1.72,1.77,1.06,3.26,2.4,4.87,3.53,1.59,1.13,3.33,2.09,5.21,2.31l-.11.91Z"/>
      </g>
    </g>
    <g>
      <g>
        <path class="cls-4" d="M629.49,259.83v-3.69h-13.54v3.56c-3.76.99-6.53,4.4-6.53,8.47v36.63c0,2.25,1.83,4.08,4.08,4.08h17.97c2.25,0,4.08-1.83,4.08-4.08v-36.63c0-3.9-2.55-7.2-6.07-8.34Z"/>
        <rect class="cls-13" x="614.09" y="244.94" width="16.8" height="10.74"/>
        <path class="cls-12" d="M629.26,259.94h-13.54c-.16,0-.3-.13-.3-.3s.13-.3.3-.3h13.54c.16,0,.3.13.3.3s-.13.3-.3.3Z"/>
      </g>
      <g>
        <path class="cls-9" d="M598.89,290.44h1.97c3.32,0,6.02,2.7,6.02,6.02v10.7c0,1.08-.88,1.95-1.95,1.95h-10.1c-1.08,0-1.95-.88-1.95-1.95v-10.7c0-3.32,2.7-6.02,6.02-6.02Z"/>
        <polygon class="cls-13" points="604.07 282.28 603.14 273.41 601.27 271.54 601.27 268.74 598.7 268.74 598.7 271.54 596.84 273.41 595.9 282.28 604.07 282.28"/>
        <rect class="cls-13" x="594.5" y="280.88" width="10.74" height="9.8"/>
      </g>
      <g>
        <polygon class="cls-1" points="562.24 308.99 562.24 533.04 577.17 533.04 577.17 524.63 687.33 524.63 687.33 533.04 702.26 533.04 702.26 308.99 562.24 308.99"/>
        <rect class="cls-14" x="685.46" y="390.68" width="5.61" height="45.28"/>
      </g>
      <g>
        <path class="cls-15" d="M641.49,288.97c1.98,3.4,5.43,6.95,8.86,7.65l.98,12.27h26.64l2.74-39.18h-32.52l.28,3.47c-3.81.39-6.49,1.75-8,4.08-1.94,3-1.57,7.27,1.01,11.71ZM643.77,279.38c.81-1.25,2.53-2.03,5.02-2.3l1.22,15.27c-1.6-.84-3.62-2.76-5.13-5.35-1.79-3.07-2.2-5.92-1.11-7.62Z"/>
        <path class="cls-2" d="M678.06,272.44c-1.19.1-2.07,1.15-1.96,2.33.1,1.19,1.15,2.07,2.33,1.96.93-.08,1.67-.75,1.9-1.6l.06-.8c-.13-1.15-1.16-2-2.33-1.9Z"/>
        <path class="cls-2" d="M673.95,283.25c.1,1.19-.78,2.23-1.96,2.33-1.19.1-2.23-.78-2.33-1.96-.1-1.19.78-2.23,1.96-2.33s2.23.78,2.33,1.96Z"/>
        <path class="cls-2" d="M667.09,274.83c.1,1.19-.78,2.23-1.96,2.33-1.19.1-2.23-.78-2.33-1.96-.1-1.19.78-2.23,1.96-2.33,1.19-.1,2.23.78,2.33,1.96Z"/>
        <path class="cls-2" d="M654.07,274.51c.1,1.19-.78,2.23-1.96,2.33-1.19.1-2.23-.78-2.33-1.96s.78-2.23,1.96-2.33,2.23.78,2.33,1.96Z"/>
        <path class="cls-2" d="M661.42,284.34c.1,1.19-.78,2.23-1.96,2.33-1.19.1-2.23-.78-2.33-1.96-.1-1.19.78-2.23,1.96-2.33,1.19-.1,2.23.78,2.33,1.96Z"/>
        <path class="cls-2" d="M679.21,291.25c-1.17.12-2.03,1.15-1.93,2.33.08.94.76,1.69,1.63,1.91l.3-4.24Z"/>
        <path class="cls-2" d="M675.12,302.06c.1,1.19-.78,2.23-1.96,2.33-1.19.1-2.23-.78-2.33-1.96-.1-1.19.78-2.23,1.96-2.33,1.19-.1,2.23.78,2.33,1.96Z"/>
        <path class="cls-2" d="M668.26,293.63c.1,1.19-.78,2.23-1.96,2.33-1.19.1-2.23-.78-2.33-1.96-.1-1.19.78-2.23,1.96-2.33,1.19-.1,2.23.78,2.33,1.96Z"/>
        <path class="cls-2" d="M655.25,293.32c.1,1.19-.78,2.23-1.96,2.33-1.19.1-2.23-.78-2.33-1.96-.1-1.19.78-2.23,1.96-2.33,1.19-.1,2.23.78,2.33,1.96Z"/>
        <path class="cls-2" d="M662.59,303.14c.1,1.19-.78,2.23-1.96,2.33-1.19.1-2.23-.78-2.33-1.96s.78-2.23,1.96-2.33c1.19-.1,2.23.78,2.33,1.96Z"/>
      </g>
    </g>
  </g>
</svg>