<?xml version="1.0" encoding="UTF-8"?>
<svg id="Layer_9" data-name="Layer 9" xmlns="http://www.w3.org/2000/svg" viewBox="0 0 200 200">
  <defs>
    <style>
      .cls-1 {
        fill: #7da3c6;
      }

      .cls-2 {
        fill: #ea785d;
      }

      .cls-3 {
        fill: #cbd6dc;
      }

      .cls-4 {
        fill: #ecf2f4;
      }

      .cls-5 {
        fill: #f7fcfe;
      }

      .cls-6 {
        fill: #d5543a;
      }

      .cls-7 {
        fill: #3e5a80;
      }

      .cls-8 {
        fill: #83a9cb;
      }

      .cls-9 {
        fill: #feb298;
      }

      .cls-10 {
        fill: #f88d5f;
      }

      .cls-11 {
        fill: #e3eaee;
      }

      .cls-12 {
        fill: #3d5a80;
      }

      .cls-13 {
        fill: #ed6c4d;
      }

      .cls-14 {
        fill: #577ba2;
      }
    </style>
  </defs>
  <path class="cls-11" d="M73.94,11.28c.03.15.36.4.43.99.27,2.32-.58,15.3-.02,15.86,3.42,0,6.85-.01,10.27,0l.84.21c.53,6.18,1.05,12.37,1.58,18.55l-.78.55c-2.79,1.08-5.45.81-8.31.51-.03,0,.4.03.58.17.25.18-.12,5.7-.9,5.89,3.06.19,6.15.28,9.29.29-.33,5.78-.81,11.58-1.44,17.38l-.86.41c-2.29,1.14-4.69,1.12-6.98,0,1.35.68,1.29,5.78,0,6.57,1.88-1.12,3.87-1.14,5.75,0l.68.6c-1.97,6.57-3.94,13.14-5.92,19.71l-.92.23-.78.79c-17.38.04-34.75.06-52.13.04l-.5-.82c-.12.36-.25.35-.41,0l-.82-.29V28.63l.82-.5c8.62-.05,17.26,0,25.88,0,1.11-1.17,4.63-1.35,5.75,0,2.06-1.18,4.51-1.15,6.57,0,3.64-.96,7.48-1.21,11.51-.74v-15.62s.82-.48.82-.48Z"/>
  <path class="cls-12" d="M64.9,155.49c.59,8.08-.81,17.27.05,25.22.56,5.16,4.33,9.27,9.59,9.72,17.18,1.49,36.45-1.16,53.85,0,4.74-.43,8.51-4.16,9.23-8.85.44-44.26-.89-88.7.68-132.85,7.93-27.04,45.23-23.09,47,5.88.57,9.39-.48,19.34,0,28.8.09.42-.3,1.42-.64,1.42h-5.96v-31.43c0-3.2-2.69-8.8-4.92-11.1-10.67-11.06-29.44-3.25-29.61,11.91l.03,127.4c-.67,7.77-7.13,14.73-15,15.41-17.71,1.52-37.56-1.18-55.49,0-21.1-3.26-14.28-26.35-15.39-41.51,2.18-.8,4.39-.8,6.57,0Z"/>
  <path class="cls-10" d="M77.22,99.21l.63-.82h30.1l.5.82c0,.14,0,.27,0,.41-.12.36-.25.35-.41,0-.03.33-.15.82-.38.82-9.86.29-20.92.12-30.29-.23-4.14,12.56-14.52,29.35-23.62,39.01-.65.69-1.55,1.1-2.41,1.48.36.12.35.25,0,.41-3.69.81-7.4.81-11.09,0-5.47,0-10.96.02-16.43,0l-.82-.28v-41.12l.82-.5h53.41Z"/>
  <path class="cls-5" d="M23.4,28.13v71.08l-.47.82h-7.16l-.59-.82c-.38-23.13-.48-47.72,0-71.08,2.73-.01,5.48.01,8.22,0Z"/>
  <path class="cls-3" d="M108.45,78.66c0,6.84,0,13.7,0,20.54h-31.22l6.16-20.54c8.2-1.23,16.87-1.35,25.06,0Z"/>
  <path class="cls-3" d="M84.62,28.13c7.94.03,15.89-.02,23.83,0,0,6.43-.02,12.88,0,19.31-7.34,1.21-14.84,1.17-22.19,0l-1.64-19.31Z"/>
  <path class="cls-3" d="M108.45,54.01c0,6.02,0,12.06,0,18.08-7.84,1.29-15.98,1.22-23.83,0l1.65-17.67c-.28-.28-6.75.18-8.03.01-.42-.05-.46,0-.59-.42l.38-.82h29.94l.49.82Z"/>
  <path class="cls-9" d="M23.4,99.21h.41v41.91c-3.01-.01-6.03,0-9.04,0,0-13.96.02-27.95,0-41.91.12-.36.25-.35.41,0h8.22Z"/>
  <path class="cls-6" d="M51.34,141.11c10.58-.23,21.17-.3,31.76-.21.19,2.55.15,5.08-.13,7.6,0,.32-.09.82-.29.82-12.68.14-26.23.07-38.94-.37-1.73.28-2.9,0-3.5-.86v-6.98c3.69,0,7.4,0,11.09,0Z"/>
  <path class="cls-13" d="M82.98,148.51c-.01,2.32,0,4.66,0,6.99-6.02,0-12.06-.02-18.08,0-2.19,0-4.39,0-6.57,0-6.02-.02-12.06.01-18.08,0,0-2.46,0-4.94,0-7.4l42.73.41Z"/>
  <path class="cls-12" d="M73.94,11.28v16.85c-4.1.05-8.23-.08-12.33,0-.32-.03-.81-.15-.82-.38-.26-6.51-.26-14.05,0-20.57-.26-1.49.01-2.59.82-3.3-.36-.12-.35-.25,0-.41,6.11.04,10.77,1.05,12.33,7.81Z"/>
  <path class="cls-12" d="M86.26,47.44c7.39-.03,14.8.03,22.19,0,0,2.19,0,4.39,0,6.57h-30.81c-.45-1.37.33-4.91,0-6.58,2.87,0,5.76.02,8.63,0Z"/>
  <path class="cls-12" d="M84.62,72.09c7.94-.06,15.89.04,23.83,0,0,2.19,0,4.39,0,6.57-8.35-.06-16.72.08-25.06,0-1.91-.02-3.84.01-5.75,0v-6.57c2.32-.01,4.66.02,6.98,0Z"/>
  <path class="cls-8" d="M61.61,3.48v.41l-.39,1.06c-4.22,1.86-5.51,6.22-5.52,10.51.16,4.03.23,8.06.22,12.09l-.88.58c-1.77,0-4.02,0-5.75,0,.39-5.6.39-11.22,0-16.84.31-2.19,2.51-5.32,4.38-6.51,2.58-1.64,5.04-1.32,7.95-1.3Z"/>
  <path class="cls-7" d="M189.8,126.32h-16.02v-6.57c.75-.19,1.45-.37,2.24-.43,3.04-.24,9.43-.34,12.37,0,.41.05,1.42.19,1.42.64v6.37Z"/>
  <rect class="cls-12" x="173.77" y="97.56" width="16.02" height="6.57"/>
  <path class="cls-2" d="M108.45,99.62c-.01,13.83.01,27.67,0,41.5h-25.06c-.23,1.26.48,7.1-.41,7.4.01-2.46-.01-4.94,0-7.4-10.54,0-21.1.01-31.64,0v-.41l1.5-.82h54.08c.35-13.14.45-26.4.29-39.76l.82-.5h.41Z"/>
  <path class="cls-4" d="M15.19,99.21h-.41c-.02-22.93-.25-45.9,0-68.82,0-.7-.26-1.83.42-2.25v71.08Z"/>
  <path class="cls-1" d="M49.29,28.13c.53-5.21-.72-11.82,0-16.84.68.43.41,1.56.42,2.25.05,4.17.16,8.6,0,12.74-.02.57.29,1.69-.41,1.85Z"/>
  <path class="cls-14" d="M61.61,28.13c-2.18.04-4.39,0-6.57,0,.91-8.29-3.4-20.28,6.57-24.24v24.24Z"/>
  <path class="cls-13" d="M108.04,99.62v41.09s-56.7,0-56.7,0c10.84-12.03,19.61-25.92,25.54-41.02l31.16-.07Z"/>
  <path class="cls-9" d="M32.76,120.65c4.6-.67,7.13,5.47,3.11,8.07-6.28,4.06-9.86-7.09-3.11-8.07Z"/>
  <path class="cls-9" d="M32.75,112.42c3.69-.66,4.2,5.05.69,5.27-3.25.21-3.75-4.73-.69-5.27Z"/>
</svg>