<?xml version="1.0" encoding="UTF-8"?>
<svg id="Layer_13" data-name="Layer 13" xmlns="http://www.w3.org/2000/svg" viewBox="0 0 200 200">
  <defs>
    <style>
      .cls-1 {
        fill: #5c677a;
      }

      .cls-2 {
        fill: #d8effe;
      }

      .cls-3 {
        fill: #fedcd5;
      }

      .cls-4 {
        fill: #737d8c;
      }

      .cls-5 {
        fill: #fed852;
      }

      .cls-6 {
        fill: #505d70;
      }

      .cls-7 {
        fill: #f8baae;
      }

      .cls-8 {
        fill: #feec95;
      }

      .cls-9 {
        fill: #8fa3c3;
      }

      .cls-10 {
        fill: #5c6779;
      }

      .cls-11 {
        fill: #6c91fe;
      }

      .cls-12 {
        fill: #81a1fe;
      }

      .cls-13 {
        fill: #f9fdfe;
      }

      .cls-14 {
        fill: #fecfc4;
      }

      .cls-15 {
        fill: #ecf6fe;
      }

      .cls-16 {
        fill: #c3eafe;
      }

      .cls-17 {
        fill: #5d687a;
      }

      .cls-18 {
        fill: #afbdd4;
      }
    </style>
  </defs>
  <path class="cls-10" d="M116.05,128.11l.38.96-3.01,5.28c-3.63,4.95,1.73,8.06,4.28,2.64l3.04-5.15.99-.08c3.87,3.13,7.11,7.27,8.92,11.94.58,1.49,2.02,5.93,2.02,7.3v45.18c-5.4.01-10.81-.02-16.21,0l-.81-.37-.02-26.06c-.58-2.67-4.28-2.61-4.83,0l-.02,25.94-.81.48c-28.09.05-56.2.05-84.28,0l-.81-.37-.02-26.06c-.58-2.67-4.28-2.61-4.83,0l-.02,25.94-.81.48c-3.24-.01-6.49.02-9.72,0-.32,0-.81-.08-.81-.28-.28-14.6-.11-29.65.33-44.24,1.72-11.05,9.73-17,19.24-21.39,5.06-2.33,11.91-4.99,17.24-6.58l1.28.37c.14-.35.27-.35.41,0l1.02.49c9.2,19.22,36.77,15.37,41.33-5.29l1.01-.87c8.46,3.34,17.16,6.16,25.53,9.72Z"/>
  <path class="cls-14" d="M44.74,51.52l-.13-.54c5.04-3.68,9.51-7.39,12.49-13.32l1.25-.91c6.15,6.89,13.69,11.73,22.88,12.71l.6.85c0-.31.08-.8.28-.81,1.74-.1,13.87-.44,14.44,0l.48.81c1.12,2.13,1.1,4.35,0,6.48,1.31,5.16,1.37,11.06,0,16.21-.26,12.08-3.39,22.42-14.59,28.77l-.44,1.16c-3.47,1.75-7.26,2.86-11.13,3.23l-.99-.74c-9.7-.47-18.68-7.9-22.75-16.47-2.85-6-2.94-11.37-3.01-17.95-.07-6.36-.09-13.46.64-19.47Z"/>
  <path class="cls-5" d="M116.05,21.54c1.43,5.13-.68,13.61-2.76,18.51-2.67,6.29-7.54,11.87-12.63,16.34-.04,1.35-3.5,1.97-3.65.41-.02-2.16.01-4.33,0-6.48h-15.2c-1.56,0-5.74-1-7.41-1.51-6.3-1.91-12.2-6.2-16.09-11.46-1.98,2.67-3.52,5.92-5.86,8.32-1.39,1.43-6,4.99-7.72,5.86l-.16.94-5.02,1.64c.13,1.39-.17,2.29-.89,2.69-1.04,1.11-2.2,1.09-3.24,0l-.74-.8c-.12-6.49-.15-12.99-.09-19.5,1.81-18.09,18.1-20.47,30.11-9.66,8.54-6.42,18.7-6.72,28.96-6.91,7.15-.13,14.48-.06,21.52.67l.89.95Z"/>
  <path class="cls-7" d="M82.42,101.77l.19,13.39c2.75.82,5.28,2.19,7.92,3.23-3.15,16.71-21.34,25.26-35.79,15.32-3.31-2.28-6.42-5.77-7.57-9.65l.15-.93c4.06-1.08,7.59-2.84,10.61-5.27,1.15-4.16,1.51-8.58,1.07-13.27l1.55.02,1.13-.58,8.19,1.39c4.08-.19,9.02-1.64,12.56-3.65Z"/>
  <path class="cls-11" d="M146.04,73c2.95.2,6.71,2.53,8.51,4.86.86-.74,1.43-.2,1.22.81.43.48.57,1.21.42,2.19,1.42,2.12,3.49,3.62,6.19,4.5l.28,1.01c-1.09,1.89-2.15,3.79-3.24,5.67l-.86.53c-6.79-4.44-9.55-4.23-8.26.64,1.65,1.42,3.52,2.55,5.62,3.41l.25,1.09c-1.1,1.88-2.13,3.8-3.24,5.67l-.92.48c-2.72-1.8-10.02-6.51-8.4.42,1.76,1.51,3.74,2.75,5.95,3.72l.13,1.06c-1.1,1.76-2.03,4.11-3.91,5.21-3.27,1.91-6.1.43-9.06-1.16l-1.42.14c-2.88-1.71-5.73-3.48-8.53-5.31l-.58-1.32c-2.23-1.36-2.91-4.37-1.97-6.74,5.16-10.03,10.95-19.67,17.37-28.92,1.34-.93,4.25.42,4.46,2.03Z"/>
  <path class="cls-8" d="M116.05,21.54c-.89-.08-1.72-.37-2.62-.42-8.86-.47-21.63-.63-30.4.02-6.41.47-12.99,2.94-18.31,6.41-6.54-4.18-11.69-8.56-19.98-5.4-13.78,5.24-8.2,23.33-9.33,34.64-.64.77-1.78,1.12-3.43,1.05-1.18.64-2.2.83-3.06.57.58-9.67-.77-20.23-.01-29.8.7-8.83,8.62-15.19,17.46-13.78,4.55.73,7.96,4.18,11.86,6.24,5.64-3.72,12.31-6,19.1-6.44,7.93-.5,22.72-.82,30.41.01,3.57.38,7.34,3.41,8.3,6.89Z"/>
  <path class="cls-4" d="M45.14,118.38c1.41.15,2.65,4.71,1.62,5.67-15.62,6.28-35.48,9.87-37.27,30.19v41.93c-2.16-.02-4.33.01-6.49,0v-44.77c0-3.66,3.33-10.91,5.51-13.94,7.5-10.44,24.94-14.38,36.63-19.08Z"/>
  <path class="cls-9" d="M159,36.13c1.29.17,5.07,2.47,6.48,3.24,3.1.25,6.71,2.33,8.51,4.86,2.65,1.56,8.81,4.74,10.74,6.49,5.95,5.4-.85,14.05-7.49,10.94-.38.19-.81.42-1.21.31-1.34-.36-6.72-3.77-8.08-4.79l-.44-1.19c-3.39-.51-6.8-2.57-8.91-5.27-1.9.04-3.2-.73-4.05-2.43-.95.87-1.82-.05-1.62-1.22-5.59-3.42.26-14.03,6.08-10.94Z"/>
  <path class="cls-3" d="M44.74,51.52c.67.42.41,1.54.41,2.22.08,7.97-.59,16.91,0,24.72,1.03,13.74,11.56,24.13,24.71,26.95-2.93.14-6.47-.12-9.32-.81-.52-.18-.86-.06-1.02.56-.34.15-6.67-2.06-6.28-3.4-11.12-6.23-14.29-16.86-14.59-28.77-.22-.36-.42-.73-.57-1.12-.68-1.79-.69-12.18,0-13.96.15-.39.35-.76.57-1.12.03-1.06-.1-2.13.06-3.19.17-.27,5.17-1.65,6.02-2.08Z"/>
  <path class="cls-15" d="M180.88,11.41c1.29.15,12.22,6.39,13.75,7.52,5.38,3.99,2.67,12.11-3.82,11.96-2.14-.05-5.47-2.2-7.5-3.27l-1.09.32c-2.2-1.49-4.5-2.75-6.92-3.79l-.5-.99c.55-.58.05-.68,0-.81-5.89-3.82.07-13.93,6.08-10.94Z"/>
  <path class="cls-12" d="M141.58,70.57c.35.11.34.25,0,.41-5.52,9.56-11.02,19.14-16.4,28.78-1.36,2.45-.03,4.65,1,6.88-.51.98-1.23.72-1.22-.41-3.45-2.18-7.1-4.31-5.65-9.09,5.35-9.9,10.96-19.67,16.59-29.4,1.14-.91,5.58,1.37,5.67,2.84Z"/>
  <path class="cls-2" d="M177.24,61.65c-1.9,2.51-3.3,5.39-4.86,8.1-.17.33-.43.52-.79.52-2.67-1.84-10.1-6.54-8.55.3,1.82,1.52,3.82,2.78,6.01,3.79l.08,1.06c-1.17,2.04-2.47,4.04-3.65,6.08l-.79-.22c-2.83-2.48-5.8-3.36-8.93-2.62-.52-.06-.89-.65-1.22-.81l-.51-.73c4.18-7.05,8.35-14.1,12.53-21.15h.94c3.07,1.74,6.68,4.25,9.72,5.67Z"/>
  <path class="cls-6" d="M116.46,196.18c-2.16,0-4.33,0-6.48,0l.02-26.52c.56-3.58,5.87-3.59,6.44,0l.02,26.52Z"/>
  <path class="cls-6" d="M25.69,196.18c-2.16,0-4.33,0-6.48,0l.02-26.52c.56-3.58,5.87-3.59,6.44,0l.02,26.52Z"/>
  <path class="cls-7" d="M97.01,73c.11-5.38.04-10.82,0-16.21,1.1.42,2.94-.43,3.65-.41.65.02,3.71.74,4.45,1.02,5.03,1.91,6.31,8.72,3.01,12.73-2.89,3.5-7.03,2.87-11.11,2.87Z"/>
  <path class="cls-7" d="M35.42,56.79c1.08-.02,2.16.02,3.24,0-.16,5.26-.13,10.94,0,16.21-3.73-.03-7.63.6-10.55-2.21-3.54-3.4-3.15-9.48.82-12.37,2.27-1.65,3.82-1.57,6.48-1.62Z"/>
  <path class="cls-15" d="M152.93,47.07c.51.32,1.01.84,1.62,1.22l-.57,2.21c-3.37,6.84-7.14,14.1-11.41,20.05l-.98.03-5.67-2.84c4.35-7.53,9.13-14.91,12.97-22.69,1.35-.51,2.7.16,4.05,2.03Z"/>
  <path class="cls-14" d="M60.54,104.6c-1.23-.23-.78.62-.81,1.4-.15,3.7.88,9.58-1.28,12.51-1.74,2.35-8.31,4.34-11.28,5.54-.12.05-.29-.05-.41,0l-1.62-5.67c2.57-1.03,5.22-2.33,7.93-3.22l.18-13.4c1.59.89,5.53,2.41,7.29,2.84Z"/>
  <path class="cls-2" d="M128.21,120c-2.26,3.83-4.22,7.93-6.48,11.75-.91,1.53-4.16,7.34-5.06,8.11-1.93,1.65-5.03.52-5.41-1.94-.25-1.64,3.72-7.92,4.79-9.82,1.83-3.26,3.93-6.41,5.67-9.72,1.79-.78,5.31.04,6.48,1.62Z"/>
  <path class="cls-15" d="M126.18,106.63c3.32,2.05,7.17,4.68,10.54,6.48-.98-.05-1.04.59-1.43,1.2-1.29,2.03-2.5,4.25-3.48,6.45-.63.4-2.79-.56-3.6-.76-2.09-.52-4.44-1.02-6.48-1.62-.63-.18-1.63-.54-2.27-.77-.41-.15-.72.2-.57-.65.4-2.29,5.31-7.98,6.09-10.74.23.14.81.16,1.22.41Z"/>
  <path class="cls-2" d="M183.32,27.62c-1.74,4-4.33,7.59-6.48,11.35-1.3-.01-2.58-.57-3.86-1.68-2.01-.74-3.43-1.8-4.25-3.18,2.09-3.59,3.96-7.37,6.08-10.94,3.03.75,5.76,2.99,8.51,4.46Z"/>
  <path class="cls-13" d="M180.88,11.41c-4.16-.49-7.99,2.76-7.68,7.04.1,1.39,1.18,2.67,1.6,3.9-4.47-1.76-8.8-5.05-6.57-10.42,2.2-5.31,9.35-4.28,12.64-.52Z"/>
  <path class="cls-18" d="M159,36.13c-5.88-.78-9.74,6.29-6.08,10.94-1.13-.7-2.97-1.26-4.05-2.03-5.61-3.99-2.51-12.71,4.14-12.07,1.86.18,4.58,1.88,5.99,3.15Z"/>
  <path class="cls-16" d="M176.83,38.96c-.98,1.71-1.72,3.62-2.84,5.27-2.76-1.63-5.7-3.32-8.51-4.86.81-1.85,2.26-3.58,3.24-5.27,2.73,1.42,5.76,2.87,8.1,4.86Z"/>
  <path class="cls-1" d="M152.93,103.39c-1.11,1.86-2.09,3.83-3.24,5.67-2.52-1.87-9.31-3.49-6.84-7.86,2.23-3.94,7.43,1.19,10.08,2.18Z"/>
  <path class="cls-1" d="M159.41,92.04c-1.09,1.88-2.14,3.79-3.24,5.67-2.82-1.82-8.71-3.17-6.91-7.54,1.79-4.36,7.59,1.06,10.15,1.87Z"/>
  <path class="cls-1" d="M172.37,69.76c-1.09,1.88-2.16,3.79-3.24,5.67-2.43-2-9.31-3.49-6.84-7.86,2.2-3.89,7.51,1.05,10.08,2.18Z"/>
  <path class="cls-1" d="M165.49,81.51c-.94,1.62-1.9,3.24-2.84,4.86-2.71-1.21-9.15-3.8-6.89-7.7,1.75-3,6.52.04,8.52,1.41.58.4,1.27.42,1.21,1.43Z"/>
  <path class="cls-7" d="M77.04,87.29c3.97,3.98-4.44,8.04-7.84,8.34-3.2.29-8.4-1.02-10.51-3.57-1.83-2.21-.8-5.41,2.09-5.69,3.02-.3,4.35,4.68,10.04,1.97,1.92-.91,3.81-3.47,6.22-1.05Z"/>
  <path class="cls-17" d="M79.88,60.11c4.75-1.04,5.57,5.51,1.84,6.32-4.75,1.04-5.57-5.51-1.84-6.32Z"/>
  <path class="cls-17" d="M53.95,60.11c4.75-1.04,5.57,5.51,1.84,6.32-4.75,1.04-5.57-5.51-1.84-6.32Z"/>
  <path class="cls-16" d="M167.51,55.98l-12.97,21.88c-2.99-1.51-5.63-3.24-8.51-4.86l-.52-.72s4.05-7.18,12.14-21.54l.94-.02c2.94,1.75,5.95,3.58,8.91,5.27Z"/>
  <path class="cls-2" d="M158.6,50.71l-12.56,22.29c-1.38-.78-2.93-1.54-4.46-2.03.06-.1-.06-.3,0-.41.47-.81,1.51-1.95,2.1-2.97,3.69-6.4,7.4-12.8,10.87-19.32,1.34.81,2.71,1.63,4.05,2.43Z"/>
</svg>