<?xml version="1.0" encoding="UTF-8"?>
<svg id="Layer_13" data-name="Layer 13" xmlns="http://www.w3.org/2000/svg" viewBox="0 0 200 200">
  <defs>
    <style>
      .cls-1 {
        fill: #7aadec;
      }

      .cls-2 {
        fill: #7aaeec;
      }

      .cls-3 {
        fill: #bcddfe;
      }

      .cls-4 {
        fill: #fff;
      }

      .cls-5 {
        fill: #febd71;
      }

      .cls-6 {
        fill: #497fcd;
      }

      .cls-7 {
        fill: #f64f73;
      }

      .cls-8 {
        fill: #ee8d4d;
      }
    </style>
  </defs>
  <path class="cls-3" d="M59.51,64.39l1.21-.43c6.99,2.48,13.86,5.39,20.6,8.47l.59,1.16c4.17,1.96,4.94,3.14,3.5,7.7-.89,2.83-2.45,5.54-3.5,8.3l-.62.76-6.42-2.45c-3.09-.6-1.76,2.93.68,3.22l4.51,1.47.25,1.01c.04,3.11-1.07,6.13-3.2,8.4l-.62.61-3.33-1.49c-10.83-2.96-2.26,2.87,2,3.66.54.19.54.67.35,1.22-.03,3.05-1.13,5.76-3.2,8l-.76.63c-2.84-1.08-5.63-2.3-8.36-3.66-4.31-2.39-6.9.86-1.47,2.49l8.59,3.37c.53.16.54.63.4,1.17.19,2.85-1.14,6.02-3.2,8l-.7.62-5.75-2.31c-7.12-.2,2.55,4.37,4.7,4.65l.15,1.03c.98.51.72,2.26-.4,2.4l-.4.4c-.85,1.07-1.81,4.12-2.4,5.6l-.69.52c-2.2-2.31-12.99-4.5-5.9.28l4.8,1.81.18.99c-1.9,4.77-3.34,9.77-5.6,14.4-.82.03-1.68.07-2.46-.23-10.07-3.77-20.14-7.67-30.13-11.66-.72-.44-1.33-1.02-1.82-1.72,1.06.24.76-.55,1.01-1.17,10.32-24.95,19.61-50.35,29.89-75.33,1.56-2.83,4.75-2.82,7.5-1.9Z"/>
  <rect class="cls-4" x="77.09" y="123.27" width="56.42" height="55.52"/>
  <path class="cls-5" d="M133.11,117.99v9.6h-44.59c-2.97.06-6.25,2.79-6.61,5.79-1.38,11.41,1.05,25.52,0,37.22-.09,2.1,3.5,5.79,5.41,5.79h46.2v11c0,3.68-3.67,8.1-7.43,8.56-17-1.08-36.02,1.55-52.78.05-3.92-.35-6.96-3.19-7.79-7.01l-.39-56.21c.12-.15.26-.28.4-.4l.71,1.37c-.35,6.73-.25,13.51.07,20.23l13.94-35.8c.19-.57.61-.87,1.2-.96l51.19-.05.49.8Z"/>
  <path class="cls-5" d="M91.11,92.39c14.05,0,28.11-.04,42.15.04,2.25-.24,6.24,3.37,6.24,5.36v13.4h-6l-.4,16.4c-.02-3.19.02-6.41,0-9.6-1.11-2.23-1.09-4.56,0-6.8l-.28.8h-48.04l-.49-.8c-.28-.14-.69-.41-.63-.62.71-2.27,5.84-17.44,6.65-17.96l.78-.22Z"/>
  <path class="cls-8" d="M91.11,92.39l-6.8,18.8h48.8c.01,2.26-.02,4.54,0,6.8l-51.95.05-15.25,39.15c-.7.1-.38-.91-.39-1.39-.26-7.03-.54-16.51,0-23.4.07-.89.14-1.53.4-2.4-1.03-.81.34-4.18,1.6-4,1.01-2.66,2.16-5.33,3.2-8-.51-1.69.06-3.1,1.6-4,1.04-2.67,2.15-5.33,3.2-8-.39-1.73.13-3,1.6-4,1.09-2.79,2.12-5.61,3.2-8.4-.72-.9-.29-1.39.8-1.2h10Z"/>
  <path class="cls-1" d="M21.11,142.79c10.97,5.2,23.46,8.54,34.4,13.6,1.58.73,3.6,1.7,3.61,3.79,0,.85-1.83,5.61-2.33,6.49-.97,1.69-2.34,1.97-4.19,1.63-2.77-.52-9.92-3.87-13.1-5.11-.13.29-.38.68-.61.62-1.31-.33-9.98-3.24-10.51-3.69l-.07-.93s.13-.61-.3-.78c-3.26-1.31-10.32-3.34-12.87-5.05-1.16-.78-1.69-1.98-1.47-3.37.16-.99,2.24-6.11,2.86-6.78,1.18-1.27,3.15-.87,4.58-.42Z"/>
  <path class="cls-1" d="M22.31,174.79c3.57,0,8.62,1.56,11.2,4,.05.02.26.52.69.7,2.77,1.13,8.65,2.9,10.8,4.42,2.1,1.49,2.11,3.41,1.5,5.68-.19.7-2.13,5.67-2.39,6.01-.33.41-.6.51-1.1.34l-39.73-15.92c-.35-.43-.09-.8.01-1.22.2-.88,2.2-5.78,2.68-6.54,1.31-2.08,3.44-2.33,5.62-1.74,3.27.88,7.41,3.01,10.72,4.28Z"/>
  <path class="cls-7" d="M113.51,137.99v8.4h8.4v11.2h-7.8s-.6.56-.6.6v7.8h-10.6s-.6-.56-.6-.6v-7.8h-8v-11.2h8v-7.8s.56-.6.6-.6h10.6Z"/>
  <path class="cls-3" d="M171.51,195.99l-.8-.37v-18.75l.8-.48c4.83,0,16.18-.82,20,.99,8.44,4.01,6.35,17.75-3.39,18.62-5.03.45-11.42-.01-16.62-.02Z"/>
  <path class="cls-1" d="M171.51,176.39v19.6c-5.08,0-11.29.46-16.22.02-11.67-1.04-11.86-18.58.4-19.63,4.84-.42,10.83.02,15.81.01Z"/>
  <path class="cls-3" d="M184.71,123.99l.14.83-29.37,16.22c-.36.71-.67,1.33-1.58.95-5.13-18.33,17.02-31.81,30.8-18Z"/>
  <path class="cls-3" d="M158.31,149.59l-.15-.83c10.18-5.74,20.35-11.48,30.53-17.22l.82.46c4.9,18.4-17.96,31.5-31.2,17.6Z"/>
  <path class="cls-6" d="M69.51,52.39l1.48-.3c3.63,1.37,7.26,2.79,10.85,4.27l.87,1.23c.67.28,2.61,1.17,2.99,1.61,2.31,2.74-3.41,11.08-3.79,14.38-6.13-2.89-16.1-7.09-22.4-9.2,1.57-2.44,3.21-10.16,4.91-11.89,1.38-1.4,3.51-.7,5.09-.11Z"/>
  <path class="cls-1" d="M189.51,131.99l-31.2,17.6c-2.25-2.37-3.51-4.43-4.4-7.6l1.06-1.54,29.74-16.46c2.59,2.59,3.82,4.31,4.8,8Z"/>
  <path class="cls-1" d="M69.51,52.39c1.44-1.76,1.86-7.2,4.58-7.23,1.17-.01,2.18.96,3.37.8l15.29-38.52c1.11-3.21,5.33-2.09,4.08,1.27l-15.26,38.38c-.32,1.66,3.23,1.3,3.53,3.52.25,1.78-1.97,5.12-2.41,6.98-4.02-1.68-9.08-3.67-13.2-5.2Z"/>
  <path class="cls-6" d="M39.51,163.19l-6,15.6c-3.53-1.43-7.55-2.59-11.2-4l6-15.6c.45.39,9.39,3.29,11.2,4Z"/>
  <path class="cls-2" d="M81.91,89.59c-.28.74-.46,1.92-.8,2.8-.21.55-.71.97-.8,1.2-2.35-1.31-8.99-1.73-7.92-5.31s7.18,1.46,9.52,1.31Z"/>
  <path class="cls-2" d="M62.71,138.39c-.5,1.25-1.15,2.48-1.6,3.6-1.66-.99-7.74-2.25-8.01-4.22-.7-5.18,7.61-.57,9.61.62Z"/>
  <path class="cls-1" d="M72.31,113.99c-.52,1.34-1.09,2.68-1.6,4-1.87-1.47-12.23-4.2-12.73-5.88-.48-1.61.76-3.06,2.43-2.85,3.16.4,8.5,3.98,11.91,4.73Z"/>
  <path class="cls-2" d="M67.51,125.99c-.46,1.2-1.29,2.97-1.6,4-2.25-1.68-9.07-1.91-7.92-5.72.87-2.89,7.67,1.31,9.52,1.72Z"/>
  <path class="cls-1" d="M77.11,101.99c-.52,1.33-1.08,2.67-1.6,4-1.43-1.46-7.67-2.38-8.01-4.21-.99-5.34,7.51-.65,9.61.21Z"/>
</svg>