<?xml version="1.0" encoding="UTF-8"?>
<svg id="Layer_13" data-name="Layer 13" xmlns="http://www.w3.org/2000/svg" viewBox="0 0 800 600">
  <defs>
    <style>
      .cls-1 {
        stroke: #68a416;
      }

      .cls-1, .cls-2, .cls-3, .cls-4, .cls-5, .cls-6, .cls-7, .cls-8, .cls-9, .cls-10, .cls-11, .cls-12 {
        stroke-linecap: round;
      }

      .cls-1, .cls-2, .cls-3, .cls-4, .cls-5, .cls-7, .cls-8, .cls-9, .cls-10, .cls-11, .cls-12 {
        fill: none;
      }

      .cls-1, .cls-2, .cls-4, .cls-5, .cls-6, .cls-7, .cls-8, .cls-9, .cls-10, .cls-11, .cls-12 {
        stroke-width: 2.78px;
      }

      .cls-1, .cls-2, .cls-4, .cls-5, .cls-6, .cls-7, .cls-9, .cls-10 {
        stroke-linejoin: round;
      }

      .cls-13 {
        fill: #565b62;
      }

      .cls-14 {
        fill: #ea8045;
      }

      .cls-2 {
        stroke: #00b6f1;
      }

      .cls-15 {
        fill: #68a416;
      }

      .cls-16 {
        fill: #d4eefd;
      }

      .cls-3 {
        stroke: #fff;
        stroke-width: 1.39px;
      }

      .cls-3, .cls-8, .cls-11, .cls-12 {
        stroke-miterlimit: 10;
      }

      .cls-17, .cls-6 {
        fill: #fff;
      }

      .cls-18 {
        fill: #ffc5a2;
      }

      .cls-4 {
        stroke: #3a7200;
      }

      .cls-5, .cls-8 {
        stroke: #ea8045;
      }

      .cls-6, .cls-10 {
        stroke: #d4eefd;
      }

      .cls-7 {
        stroke: #0f6895;
      }

      .cls-19, .cls-20 {
        fill: #1e3e54;
      }

      .cls-21 {
        fill: #2d9fad;
      }

      .cls-22 {
        fill: #bc5d00;
      }

      .cls-23 {
        fill: #add872;
      }

      .cls-9 {
        stroke: #1e3e54;
      }

      .cls-24 {
        fill: #00b6f1;
      }

      .cls-25 {
        fill: #88e1e1;
      }

      .cls-20 {
        fill-rule: evenodd;
      }

      .cls-11 {
        stroke: #31363e;
      }

      .cls-26 {
        fill: #0085b2;
      }

      .cls-12 {
        stroke: #376788;
      }

      .cls-27 {
        fill: #6fc1d3;
      }
    </style>
  </defs>
  <path class="cls-25" d="M656.09,334.96c-8.81-38.53,25.75-76.07,20.49-115.24-3.29-24.54-21.73-44.38-41.79-58.88-20.06-14.5-42.7-25.55-60.96-42.27-19.47-17.83-33.02-41.26-51.89-59.72C453.97-7.64,330.48.03,263.12,62.75c-13.46,12.53-24.99,27.08-33.98,43.13-8.39,14.98-17,29.47-33.66,36.57-13.44,5.73-28.75,4.62-42.96,8.01-27.31,6.53-47.93,28.94-63.21,52.5-29.89,46.1-44.8,109.37-13.84,154.75,18.22,26.71,51.72,48.1,49.67,80.37-.55,8.67-3.82,16.92-5.39,25.47-6.04,32.92,15.18,66.76,44.68,82.57,24.82,13.29,54.03,15.64,82.13,11.77,13.92,10.61,28.46,20.34,44.7,26.68,22.77,8.89,49.8,10.24,70.73-2.39,15.47-9.33,26.59-25.51,43.46-31.96,18.78-7.19,39.63-.62,59.1,4.36,44.28,11.32,91.35,14.08,135.66,2.91,44.32-11.17,85.66-37.02,111.12-74.98,7.57-11.28,13.84-24.08,13.98-37.66.47-44.3-59.36-66.71-69.24-109.89Z"/>
  <g>
    <g>
      <g>
        <path class="cls-21" d="M415.19,93.22s.04-.03.06-.04c.06-.04.1-.09.16-.13-.07.06-.15.11-.22.17Z"/>
        <path class="cls-21" d="M415.02,93.35c.06-.04.11-.09.17-.13-.03.03-.07.04-.1.07-.02.02-.05.04-.07.06Z"/>
        <g>
          <path class="cls-21" d="M385.48,59.92s.04-.02.07-.02c-.14.02-.19.03-.07.02Z"/>
          <path class="cls-21" d="M385.64,59.88s-.06,0-.09.01c0,0,0,0,0,0,.03,0,.04,0,.09-.01Z"/>
          <path class="cls-21" d="M427.2,82.4c-.09-.42-.16-.85-.3-1.26-.19-.53-.39-1.05-.62-1.56-.08-.18-.18-.34-.3-.5-.12-.17-.27-.42-.41-.55-.05-.04-.1-.07-.15-.1-.04-.05-.09-.1-.13-.15-.37-.41-1-.54-1.52-.4-.52.14-.85.52-1.05,1-.17.29-.27.62-.33.96-1.1-.15-2.34.06-3.32.22-1.42.23-2.83.59-4.2,1.02-.09.03-.18.06-.26.09-.01-.25-.02-.51-.04-.76-.27-2.78-1.09-5.33-2.38-7.61,1.18-.73,2.39-1.41,3.58-2.13.83-.5,1.64-1,2.36-1.62.12.14.24.28.37.41.29.3.62.53.98.74.12.07.24.15.37.22.41.22.84.31,1.29.25.04,0,.08.01.12.02.38.03.89-.2,1.14-.47.29-.32.47-.7.47-1.14,0-.04,0-.08,0-.12.1-.68-.24-1.3-.51-1.92.08.18.15.36.23.53-.15-.44-.33-.75-.62-1.1-.07-.09-.14-.17-.21-.26-.14-.17-.3-.33-.46-.49-.32-.34-.63-.69-.98-1-.34-.3-.67-.6-1.01-.89-.27-.23-.57-.43-.86-.64-.21-.15-.42-.28-.65-.38-.05-.02-.09-.05-.14-.07-.62-.32-1.32-.3-1.88.13-.24.18-.4.4-.52.68-.13.32-.22.77-.09,1.1.04.09.08.19.12.28-.02-.16-.04-.32-.06-.48.03.43.11.75.32,1.13.03.06.07.13.11.19-.71.2-1.4.47-2.13.78-1.36.58-2.65,1.28-3.93,2.01-.14.08-.27.18-.42.26-.73-.75-1.5-1.47-2.36-2.13-.83-.64-1.72-1.25-2.65-1.81.13-.31.25-.63.38-.94.55-1.34,1.09-2.68,1.59-4.04.3-.8.67-1.77.82-2.72.14.04.27.11.41.14.42.11.9.18,1.33.19.57-.09.67-.09.27-.02.21,0,.41-.03.61-.07.24-.06.46-.17.66-.31.05-.03.12-.04.17-.07.77-.48,1.03-1.66.3-2.32-.05-.05-.12-.08-.17-.13-.15-.17-.32-.31-.53-.43.08.04-.95-.35-.36-.15-.42-.14-.82-.32-1.24-.45-.31-.09-.62-.17-.93-.28-.13-.04-.26-.09-.39-.14-.02,0-.16-.06-.26-.1-.09-.04-.29-.13-.32-.14-.13-.06-.26-.12-.39-.18-.17-.08-.34-.17-.51-.25-.14-.06-.28-.12-.42-.18-.4-.15-.77-.37-1.17-.5-.13-.04-.26-.08-.39-.11-.17-.06-.35-.09-.54-.09-.1.01-.16.02-.23.03-.45-.03-.87.09-1.17.49-.3.39-.4,1.03-.1,1.47.04.07.06.1.07.1.08.2.18.39.34.55.12.14.25.28.38.41.31.29.68.54,1.02.79-.62.77-1.09,1.76-1.46,2.54-.64,1.36-1.25,2.72-1.84,4.1-.11.26-.23.51-.34.77-2.07-.69-4.23-1.03-6.39-.86-.19-.33-.37-.66-.57-.98-.6-.99-1.24-2.06-1.98-3.02l.46-.2c.28-.12.56-.23.82-.38.26-.14.49-.31.69-.52.47-.49.57-.98.66-1.63.09-.74-.47-1.42-1.03-1.8-1.12-.77-2.38-.11-3.44.4-.59.28-1.18.57-1.77.85-.59.28-1.19.55-1.77.85-.68.36-1.25.86-1.82,1.36-.58.5-.69,1.55-.28,2.19.17.26.39.48.65.65.43.28.91.25,1.39.18.07,0,.14-.02.21-.03.17-.05.65-.08.83-.13.36-.1.69-.23,1.03-.37.39,1.07.94,2.1,1.37,3.13.07.17.15.33.23.5-1.64.67-3.2,1.58-4.63,2.68-.31-.37-.61-.76-.94-1.12-.69-.76-1.45-1.52-2.25-2.16-.53-.43-1.07-.85-1.63-1.24-.08-.06-.18-.09-.27-.14.5-.68.95-1.38,1.28-2.15.18-.3.27-.63.27-.98,0-.35-.09-.68-.27-.98-.34-.59-1-.98-1.68-.97-1.36.02-2.71.4-3.88,1.09-.55.33-1.13.73-1.55,1.21-.26.3-.52.62-.74.96-.21.32-.34.71-.46,1.07-.08.24-.06.51,0,.77-.17.32-.29.68-.27,1.06.02.54.18,1.02.51,1.45.31.4.74.74,1.24.86.66.15,1.24.05,1.85-.24.25-.12.47-.29.7-.43.98,1.39,2.19,2.59,3.29,3.9.3.35.6.7.89,1.05.12.15.24.29.36.44-.56.7-1.1,1.42-1.56,2.18-1,1.44-1.85,2.97-2.52,4.57-.1-.02-.19-.05-.29-.07-.95-.2-1.93-.38-2.9-.46-.57-.05-1.2-.13-1.79-.09-.01-.88-.12-1.77-.37-2.61-.26-.85-.96-1.47-1.85-1.59-.82-.11-1.83.27-2.21,1.06-.32.68-.62,1.38-.84,2.1-.21.69-.3,1.41-.39,2.13-.08.73-.08,1.4.02,2.13.11.76.31,1.7.94,2.19.37.29.7.47,1.17.49.45.02.86-.2,1.17-.51,0,0,0,.02,0,.02.02-.02.03-.04.04-.06.55-.13,1.07-.45,1.33-.97.04-.08.06-.17.1-.25.1-.14.19-.3.26-.46.35.18.73.34,1.1.5.92.4,1.86.74,2.81,1.07.11.04.21.07.32.1-.19,1.14-.29,2.31-.27,3.49.02,1.46.23,2.91.57,4.33-.34.23-.68.46-1.02.68-.98.65-1.95,1.29-2.86,2.03-.08.06-.15.13-.23.19-.03-.35-.12-.7-.31-1.03-.31-.53-.91-1.03-1.52-1.17-.55-.22-1.47-.06-1.96.26-.08.05-.15.11-.22.17-.45.31-.81.77-.94,1.35-.32,1.34-.28,2.84.2,4.14.32.87.68,1.52,1.28,2.23.27.32.6.58.97.78.1.05.2.1.3.15.44.2.85.3,1.33.31,1.39.04,2.3-1.36,2-2.62-.03-.13-.08-.25-.13-.37.05-.01.1-.02.15-.04,0,0,.03-.01.06-.02.11-.01.59-.12.55-.11.13-.03.26-.09.39-.14.99-.39,1.95-.83,2.87-1.37.34-.2.67-.43,1.01-.64.97,1.7,2.22,3.24,3.74,4.52.4.34.82.63,1.23.93-.05.1-.1.2-.15.3-.56,1.2-1.05,2.46-1.39,3.75-.02.08-.04.17-.06.25-1.13-.42-2.31-.72-3.48-.64-1.03.07-1.95,1.23-1.27,2.22.16.24.34.48.54.69.06.06.07.08.09.1.07.1.15.19.22.29.34.39.8.66,1.22.94.69.48,1.41.91,2.14,1.33.7.4,1.45.74,2.17,1.1.36.18.72.37,1.08.54.31.15.63.29.96.38.56.16,1.02.09,1.59.01.53-.08.94-.45,1.25-.89.37-.39.66-.88.59-1.44-.1-.83-.41-1.42-1.02-1.81-.09-.07-.15-.16-.25-.22-.15-.08-.3-.14-.46-.2-.01,0-.02,0-.03-.02-.26-.13-.52-.25-.79-.37,0-.02.02-.05.03-.07,0-.02.01-.03.02-.06.42-.94.82-1.88,1.27-2.81.14-.28.27-.56.41-.84,2.69,1,5.56,1.38,8.53,1.16.41.81.85,1.61,1.35,2.36.23.35.51.71.81,1.05-.22.12-.43.25-.58.44-.01.02,0,.01-.01.02-.2.1-.36.28-.52.43-.88.83-.36,2.15.66,2.51,1.24.44,2.75.37,4.01.01.69-.2,1.35-.46,2.01-.76.81-.36,1.65-.78,2.1-1.6-.13.16-.25.32-.38.49.19-.21.38-.44.52-.68.89-1.49-.25-3.48-1.98-3.46-.29,0-.59.05-.88.11.21-.03.43-.06.64-.09-.48-.02-.94.13-1.38.33-.15-.45-.32-.9-.52-1.32-.15-.33-.31-.66-.47-.99,2.73-1,5.17-2.63,7.24-4.66.07.03.13.05.2.08.84.32,1.7.64,2.55.93.42.15.87.25,1.32.33.05,0,.1,0,.15,0-.08.17-.17.35-.22.52-.07.27-.07.57-.09.85,0-.01,0-.02,0-.03,0,.07-.02.15-.01.22.06.82.4,1.55,1.13,1.98.72.42,1.6.4,2.31,0,.23-.13.42-.3.61-.47.49-.43.75-.97,1.01-1.59.25-.58.5-1.16.7-1.76.15-.43.2-.89.27-1.34.05-.37.12-.74.15-1.12.02-.22-.06-.53-.12-.77-.12-.44-.31-.7-.59-1.05.1.13.21.27.31.4-.03-.04-.06-.08-.08-.13-.24-.51-.82-.81-1.35-.88-.55-.07-.98.09-1.4.39-.19.12-.39.25-.54.42-.06.06-.09.12-.13.18-.09-.08-.18-.16-.29-.22-.32-.21-.65-.42-.99-.6-.48-.25-.98-.46-1.48-.68.99-1.66,1.74-3.53,2.22-5.45,1-.36,2.01-.71,3.02-1.07,1.36-.49,2.73-.94,4.08-1.45.5-.19.99-.43,1.46-.68.07.35.23.68.39,1.01.12.25.22.44.45.65.32.29.64.43,1.04.6.69.29,1.61-.07,2.11-.56.79-.77.82-1.93.62-2.94Z"/>
        </g>
      </g>
      <path class="cls-27" d="M393,69.94c-.18-1.03-1.04-1.73-1.97-2.06-.48-.17-1-.2-1.51-.14,0,0,0,0,0,0-.2,0-.38.02-.59.04-.5.07-.97.27-1.41.52-.41.24-.75.54-1.07.88-.28.24-.48.49-.71.8-.37.48-.62,1.03-.73,1.63,0,.03-.02.05-.03.08-.11.39-.16.81-.18,1.22-.03.44.1.85.2,1.27.12.54.59,1.15,1.08,1.41.55.29,1.21.43,1.82.24,1.2-.39,2.21-1.01,3.17-1.8.47-.39.85-.86,1.22-1.34.14-.18.27-.36.38-.56.13-.24.25-.49.32-.76.14-.52.12-.89.02-1.41Z"/>
      <path class="cls-27" d="M404.64,72.26s-.01-.04-.02-.06c-.12-.42-.18-.47-.4-.76-.08-.11-.16-.21-.25-.3-.07-.07-.13-.15-.2-.22-.06-.07-.14-.13-.22-.17-.07-.06-.14-.12-.22-.17-.02-.01-.04-.02-.05-.03-.04-.02-.08-.04-.12-.07-.21-.11-.43-.2-.66-.26-.23-.07-.47-.08-.7-.03-.23.01-.45.08-.66.21-.12.09-.24.18-.36.28-.22.22-.37.48-.45.78,0,.03-.01.07-.02.1-.02.1-.03.19-.04.29-.01.11-.04.2-.03.3,0,.24.02.6.09.78.03.09.07.17.11.26.02.04.03.08.05.12.22.54.13.41.4.76.11.14.12.18.22.26.14.11.29.22.43.33.24.15.5.24.79.25.19.05.37.05.56,0,.28-.01.54-.1.79-.25.14-.11.29-.22.43-.33.11-.14.22-.29.33-.43.15-.24.24-.5.25-.79.06-.28.05-.56-.04-.84Z"/>
      <path class="cls-27" d="M391.84,84.14c-.08-.18-.15-.36-.23-.54-.14-.26-.33-.47-.58-.63-.41-.32-.84-.45-1.36-.48-1.19-.07-2.46.29-3.47.92-.32.2-.62.44-.9.67-.15.12-.28.27-.4.43-.12.07-.24.14-.36.23-.59.31-1.03.9-1.38,1.44-.28.42-.47.9-.62,1.39-.03.22-.06.45-.09.67-.01.35.06.67.22.97.2.47.55.96,1.03,1.2.81.41,1.67.66,2.58.63.93-.03,1.73-.27,2.57-.67.61-.29,1.17-.75,1.59-1.27.57-.69.96-1.37,1.28-2.21.16-.43.21-.89.25-1.34.04-.46-.04-.95-.13-1.4Z"/>
      <path class="cls-27" d="M408.16,79.71c-.33-.52-.78-.85-1.36-1.05-.13-.04-.25-.08-.39-.1-.31-.05-.63-.11-.95-.11-.13,0-.26,0-.4.02-.31.04-.64.06-.94.15-.41.13-.83.3-1.2.52-.06.04-.12.07-.18.12-.15.11-.35.24-.48.37-.13.13-.26.33-.37.48-.08.1-.15.21-.22.33-.07.16-.14.33-.21.49-.02.06-.02.12-.03.18-.19.15-.38.3-.55.48-.13.16-.25.33-.38.49-.08.19-.16.39-.25.58-.03.22-.06.43-.09.65-.01.34.06.65.21.94.06.21.16.39.31.54.11.18.25.33.44.44.15.15.33.26.54.31.29.15.6.22.94.21.41.03.83-.04,1.23-.11.2-.03.39-.07.58-.14.56-.19,1.14-.42,1.63-.77.3-.22.62-.45.89-.72.28-.28.52-.6.74-.92.34-.48.58-1.06.71-1.63.13-.57.1-1.25-.23-1.76Z"/>
      <path class="cls-27" d="M401.22,91.92c-.06-.26-.18-.5-.3-.73-.02-.04-.05-.08-.07-.12-.13-.17-.26-.36-.41-.52-.18-.19-.4-.36-.63-.49-.04-.02-.08-.04-.12-.06-.34-.19-.7-.29-1.09-.29-.21,0-.4.03-.59.1-.03,0-.07,0-.1.01-.03,0-.06.01-.08.02-.03,0-.06.02-.09.03-.18.07-.36.14-.54.23-.01,0-.02.01-.03.02-.08.05-.35.25-.42.32-.02.02-.04.04-.05.06,0,0-.02.02-.02.03-.09.11-.23.27-.31.39-.05.09-.16.35-.19.45-.02.05,0,.11-.02.16-.09.16-.17.32-.22.51-.05.19-.08.39-.08.58-.01.3.12.58.32.81.12.37.4.75.77.81.03,0,.06,0,.09,0,.03.15.1.29.24.37,0,0,.02,0,.02.01.11.23.26.44.49.56.32.17.66.21,1.02.13.25-.06.48-.17.71-.29.12-.05.23-.1.35-.15.07-.03.14-.08.19-.14.11-.08.14-.09.2-.17.1-.13.23-.28.33-.43.07-.1.13-.22.18-.33.07-.09.17-.14.23-.25.07-.17.14-.34.21-.51.1-.38.1-.75,0-1.13Z"/>
    </g>
    <g>
      <g>
        <path class="cls-21" d="M122.45,214.01s0-.06-.01-.1c0-.1-.05-.19-.05-.28.02.13.04.25.06.38Z"/>
        <path class="cls-21" d="M122.5,214.29c-.02-.09-.03-.19-.05-.28,0,.06,0,.11.02.16,0,.04.02.08.02.12Z"/>
        <g>
          <path class="cls-21" d="M62.61,227.98s.01-.06.02-.1c-.07.18-.09.24-.02.1Z"/>
          <path class="cls-21" d="M62.67,227.76s-.03.08-.04.11c0,0,0,0,0,0,.02-.04.02-.05.04-.12Z"/>
          <path class="cls-21" d="M117.28,192.36c-.56-.17-1.14-.37-1.72-.46-.77-.12-1.52-.23-2.3-.28-.28-.02-.53,0-.8.03-.29.04-.68.05-.93.14-.08.03-.15.07-.22.11-.09.02-.18.04-.26.06-.73.18-1.32.85-1.49,1.57-.17.73.07,1.38.52,1.93.24.39.58.74.95,1.03-.91,1.23-1.47,2.87-1.92,4.16-.66,1.86-1.15,3.81-1.54,5.75-.03.13-.04.25-.07.38-.31-.15-.62-.32-.94-.45-3.54-1.5-7.16-2.19-10.78-2.14-.11-1.91-.13-3.83-.22-5.74-.06-1.33-.13-2.64-.4-3.91.25-.06.5-.11.74-.17.56-.16,1.06-.4,1.55-.7.17-.1.34-.2.5-.3.53-.35.93-.82,1.16-1.39.03-.05.07-.09.1-.13.29-.43.35-1.21.18-1.7-.19-.56-.54-1.03-1.07-1.33-.05-.03-.1-.05-.15-.07-.75-.57-1.73-.57-2.66-.65.27.03.53.05.8.08-.64-.11-1.12-.09-1.74.02-.15.03-.3.06-.45.09-.3.06-.6.15-.89.23-.62.16-1.25.31-1.85.53-.58.21-1.16.41-1.74.63-.46.18-.9.4-1.34.62-.32.15-.61.32-.88.54-.06.04-.12.08-.18.12-.79.53-1.23,1.4-1.08,2.36.07.41.22.75.48,1.08.29.37.79.78,1.28.83.14.01.28.03.41.04-.21-.08-.42-.16-.62-.24.54.25.97.36,1.57.36.1,0,.2,0,.3,0-.23.99-.35,2.01-.46,3.09-.2,2.02-.2,4.05-.17,6.08,0,.23.03.45.04.68-1.39.38-2.77.84-4.13,1.44-1.33.58-2.65,1.26-3.93,2.02-.29-.36-.59-.71-.88-1.07-1.26-1.55-2.52-3.08-3.83-4.59-.77-.89-1.7-1.97-2.75-2.78.14-.14.31-.26.44-.4.41-.43.81-.96,1.11-1.48.27-.75.32-.87.15-.35.13-.25.24-.51.32-.78.09-.33.1-.67.06-1,0-.08.03-.17.02-.25-.07-1.25-1.33-2.34-2.61-1.89-.09.03-.18.08-.27.12-.3.07-.59.18-.86.36.11-.07-1.05.92-.42.33-.44.41-.92.78-1.36,1.2-.32.31-.62.64-.95.94-.14.13-.29.26-.43.38-.03.02-.19.16-.3.25-.1.08-.34.27-.38.29-.16.12-.31.23-.47.35-.21.15-.43.29-.64.45-.16.13-.33.26-.49.39-.44.38-.95.68-1.38,1.09-.13.13-.27.27-.4.4-.18.17-.34.37-.47.59-.05.13-.08.21-.12.29-.33.53-.46,1.11-.18,1.74.27.63.98,1.16,1.7,1.09.11,0,.16-.01.17-.02.3.04.6.04.89-.05.24-.05.5-.11.74-.19.56-.18,1.1-.46,1.63-.71.52,1.26,1.41,2.47,2.11,3.44,1.22,1.67,2.47,3.3,3.74,4.93.24.3.47.61.71.92-2.2,2.05-4.03,4.44-5.25,7.16-.52.01-1.04.01-1.56.04-1.59.08-3.31.15-4.95.4l.06-.68c.04-.41.08-.83.09-1.25,0-.4-.05-.8-.17-1.18-.28-.89-.81-1.34-1.53-1.87-.83-.6-2.03-.36-2.85.06-1.67.85-1.69,2.81-1.78,4.42-.05.9-.09,1.8-.14,2.7-.05.9-.12,1.8-.14,2.7-.02,1.06.22,2.08.45,3.1.23,1.03,1.42,1.86,2.46,1.78.43-.03.83-.15,1.21-.36.62-.34.9-.94,1.14-1.56.03-.09.07-.18.1-.27.05-.23.33-.84.39-1.09.11-.5.18-.98.24-1.48,1.55.23,3.16.25,4.69.4.25.02.51.04.76.06-.26,2.42-.2,4.91.19,7.37-.66.13-1.32.24-1.97.4-1.38.33-2.79.75-4.1,1.3-.86.36-1.73.73-2.57,1.15-.12.06-.23.16-.35.23-.49-1.05-1.05-2.07-1.75-2.96-.25-.41-.59-.74-1.01-.97-.43-.23-.88-.34-1.37-.33-.93.03-1.84.57-2.28,1.4-.87,1.66-1.3,3.54-1.24,5.41.03.88.13,1.84.44,2.67.19.52.41,1.04.67,1.52.25.47.64.88.99,1.27.24.26.58.41.93.51.28.42.63.8,1.1,1.03.67.33,1.35.45,2.09.33.68-.11,1.39-.41,1.86-.94.61-.7.88-1.46.92-2.39.02-.38-.04-.75-.05-1.13,2.33-.27,4.58-.94,6.88-1.41.62-.13,1.24-.26,1.86-.39.26-.05.51-.1.77-.14.47,1.14.99,2.26,1.61,3.32,1.08,2.16,2.37,4.19,3.87,6.06-.09.1-.19.2-.28.3-.87,1.02-1.73,2.08-2.46,3.2-.43.65-.95,1.36-1.29,2.11-1.07-.57-2.22-1.03-3.4-1.27-1.2-.25-2.41.19-3.14,1.18-.67.91-.89,2.39-.18,3.38.61.84,1.26,1.66,1.99,2.4.69.71,1.51,1.3,2.31,1.87.83.58,1.63,1.02,2.58,1.38.98.37,2.26.75,3.26.3.59-.26,1.03-.54,1.36-1.1.32-.53.33-1.17.15-1.75.01,0,.02,0,.03,0-.02-.03-.03-.06-.05-.1.2-.75.16-1.6-.3-2.25-.07-.11-.17-.18-.24-.28-.11-.21-.24-.42-.39-.62.45-.3.89-.66,1.33-1,1.09-.85,2.12-1.76,3.14-2.69.11-.1.22-.21.33-.32,1.25.98,2.6,1.87,4.04,2.63,1.78.94,3.67,1.65,5.61,2.16.05.56.11,1.13.15,1.69.13,1.61.27,3.2.57,4.8.03.13.06.27.08.41-.45-.2-.92-.32-1.45-.3-.84.03-1.85.43-2.42,1.07-.63.52-1.04,1.75-.98,2.54,0,.13.04.26.06.38.08.75.4,1.48,1.01,2.03,1.42,1.27,3.25,2.21,5.14,2.49,1.27.19,2.29.18,3.54-.08.57-.12,1.1-.34,1.59-.66.13-.08.25-.17.38-.27.54-.4.92-.83,1.25-1.4.97-1.65-.12-3.67-1.85-4.14-.18-.05-.35-.06-.53-.09.02-.07.04-.13.05-.2,0,0,0-.04.01-.08.06-.15.25-.8.23-.74.05-.18.06-.38.08-.57.19-1.46.29-2.9.24-4.37-.02-.55-.08-1.1-.11-1.65,2.7-.06,5.38-.55,7.93-1.54.67-.26,1.3-.57,1.94-.88.09.12.18.25.27.37,1.09,1.46,2.29,2.89,3.61,4.15.08.08.17.16.26.24-1.25,1.09-2.39,2.31-3.07,3.79-.6,1.29.2,3.16,1.84,3,.4-.04.8-.09,1.19-.19.12-.03.15-.04.17-.04.17-.03.33-.05.5-.08.69-.15,1.32-.54,1.95-.85,1.03-.52,2.03-1.11,3.01-1.71.95-.58,1.85-1.26,2.76-1.89.46-.32.92-.62,1.37-.95.38-.27.77-.57,1.1-.91.56-.58.79-1.18,1.06-1.91.26-.69.08-1.44-.25-2.1-.23-.71-.63-1.37-1.35-1.66-1.07-.42-1.99-.44-2.86.04-.14.06-.29.07-.43.15-.19.13-.37.28-.54.42-.02.01-.02.01-.04.03-.33.23-.65.47-.97.71-.02-.02-.05-.05-.06-.08-.02-.02-.03-.04-.05-.07-.86-1.12-1.73-2.24-2.55-3.38-.25-.35-.5-.7-.75-1.05,2.98-2.59,5.33-5.81,7.03-9.55,1.25.03,2.5.03,3.74-.07.58-.05,1.2-.15,1.81-.28,0,.34.02.68.15,1,.01.02.01.02.02.03-.01.3.11.62.18.91.42,1.6,2.37,1.85,3.48.85,1.35-1.21,2.25-3.08,2.65-4.84.22-.97.33-1.94.41-2.93.1-1.23.15-2.51-.55-3.6.11.26.23.52.34.78-.13-.37-.28-.74-.48-1.08-1.21-2.05-4.37-2-5.49.12-.19.36-.32.75-.44,1.14.11-.28.21-.55.32-.83-.35.57-.46,1.22-.51,1.89-.64-.12-1.29-.21-1.94-.25-.5-.03-1-.05-1.51-.08.59-3.96.23-7.99-.86-11.83.07-.06.15-.12.23-.18.95-.81,1.89-1.63,2.81-2.47.46-.42.88-.89,1.26-1.37.05-.06.07-.12.11-.18.15.22.31.43.49.6.28.27.64.46.96.66-.01,0-.03-.02-.04-.03.09.06.17.12.26.16,1.03.47,2.14.54,3.14-.07.98-.59,1.54-1.66,1.52-2.8,0-.36-.09-.7-.16-1.05-.2-.87-.68-1.54-1.25-2.27-.54-.68-1.08-1.37-1.67-2.01-.42-.46-.95-.84-1.44-1.21-.41-.31-.82-.64-1.25-.92-.26-.17-.68-.28-1.01-.36-.61-.14-1.05-.09-1.66.03.23-.04.46-.07.69-.11-.07.01-.14.02-.21,0-.77-.05-1.52.46-1.96,1.05-.45.61-.54,1.24-.44,1.95.02.32.05.63.16.93.04.11.09.18.13.28-.15.06-.31.11-.46.2-.46.24-.94.51-1.38.8-.62.42-1.21.88-1.8,1.34-1.36-2.29-3.12-4.42-5.13-6.27.23-1.45.47-2.9.7-4.35.3-1.97.67-3.92.94-5.89.1-.73.13-1.48.13-2.22.47.15.98.16,1.47.2.38.02.68.02,1.08-.11.57-.19.94-.49,1.41-.87.81-.65.97-1.99.72-2.91-.41-1.46-1.79-2.27-3.15-2.68Z"/>
        </g>
      </g>
      <path class="cls-27" d="M79.68,225.49c-1.36-.46-2.77.12-3.79,1.02-.52.46-.9,1.08-1.17,1.73,0,0,0,0,0,0-.14.24-.23.47-.34.74-.25.65-.32,1.35-.3,2.04.02.65.16,1.27.36,1.87.1.5.28.91.5,1.39.34.76.84,1.43,1.49,1.96.03.03.05.06.08.08.41.39.88.73,1.35,1.02.52.32,1.09.44,1.66.6.73.21,1.78.04,2.42-.38.71-.47,1.32-1.18,1.48-2.04.32-1.7.24-3.33-.09-5.02-.16-.83-.48-1.59-.82-2.35-.13-.28-.26-.57-.43-.83-.21-.31-.44-.62-.71-.88-.54-.51-1-.73-1.69-.96Z"/>
      <path class="cls-27" d="M90.16,212.95s-.06-.01-.09-.02c-.59-.13-.69-.09-1.18-.01-.19.03-.35.05-.53.1-.13.03-.27.06-.41.1-.13.03-.24.08-.35.15-.12.04-.24.09-.35.16-.02.01-.05.03-.07.04-.05.03-.11.07-.16.1-.27.18-.52.39-.75.62-.24.24-.41.51-.5.83-.14.29-.2.6-.18.93.03.2.07.41.1.61.12.41.34.76.64,1.06.04.03.08.06.11.09.11.08.21.16.32.24.12.09.21.17.34.24.3.15.74.37,1.01.4.13.02.26.03.39.04.06,0,.12.01.18.02.8.09.58.11,1.18.01.24-.04.3-.03.46-.09.23-.1.45-.2.68-.3.35-.19.62-.45.82-.79.18-.19.31-.42.37-.68.17-.35.24-.72.21-1.12-.04-.25-.08-.49-.12-.74-.1-.23-.2-.45-.3-.68-.19-.35-.45-.62-.79-.82-.3-.26-.65-.43-1.04-.51Z"/>
      <path class="cls-27" d="M96.08,236.25c-.27-.03-.53-.05-.8-.08-.41,0-.79.09-1.15.28-.65.29-1.1.72-1.48,1.33-.86,1.39-1.27,3.17-1.17,4.8.03.52.12,1.03.22,1.54.05.26.14.52.25.77,0,.19.01.39.04.58-.02.91.42,1.84.83,2.62.32.61.78,1.17,1.27,1.66.25.18.5.37.75.55.41.24.85.37,1.31.38.71.07,1.53-.03,2.13-.45,1.02-.71,1.9-1.58,2.47-2.71.58-1.15.81-2.28.88-3.55.05-.92-.14-1.9-.48-2.76-.46-1.14-1.02-2.07-1.83-3-.41-.47-.94-.85-1.46-1.19-.53-.36-1.17-.58-1.78-.76Z"/>
      <path class="cls-27" d="M101.49,213.61c-.84.06-1.54.38-2.17.96-.13.12-.26.26-.37.4-.27.34-.55.7-.76,1.08-.09.16-.17.32-.24.49-.16.4-.35.81-.44,1.24-.12.58-.19,1.19-.16,1.79,0,.1.01.19.02.29.03.26.06.58.13.83.07.25.23.53.33.76.07.16.16.32.25.48.15.19.3.38.46.57.06.06.13.11.2.16.06.33.12.66.22.98.12.26.23.52.35.79.18.23.36.45.54.68.24.18.49.36.73.53.4.24.82.36,1.28.37.29.07.57.06.86-.02.29-.01.57-.09.82-.24.28-.08.53-.23.73-.44.38-.25.67-.58.87-1,.3-.48.49-1.03.68-1.56.09-.26.17-.52.21-.79.14-.8.25-1.66.15-2.47-.07-.51-.14-1.05-.28-1.55-.15-.52-.39-1.03-.63-1.51-.36-.72-.9-1.4-1.51-1.93-.61-.53-1.45-.94-2.28-.88Z"/>
      <path class="cls-27" d="M111.67,230.04c-.35-.09-.72-.12-1.08-.12-.06,0-.13,0-.19.01-.29.04-.6.07-.89.15-.35.1-.7.25-1.01.44-.05.03-.1.07-.15.1-.46.28-.81.65-1.07,1.12-.15.25-.22.51-.27.77-.01.04-.04.08-.05.12-.01.04-.02.07-.03.11,0,.04-.02.09-.02.13-.04.26-.07.53-.08.8,0,.02,0,.04,0,.05,0,.13.08.59.11.71,0,.04.02.07.03.1,0,.02.01.03.02.05.07.19.17.46.28.63.07.12.32.43.42.53.05.06.13.08.19.13.13.22.28.42.47.6.2.18.42.35.65.48.35.21.79.23,1.19.14.53.09,1.18.02,1.49-.4.03-.04.04-.07.06-.11.2.06.41.06.61-.05.01,0,.02-.02.03-.02.35.01.71-.03,1.01-.22.42-.28.69-.65.83-1.14.1-.34.12-.69.11-1.05.02-.17.03-.35.05-.52,0-.11,0-.22-.05-.32-.03-.18-.02-.23-.07-.35-.09-.21-.19-.46-.3-.68-.08-.15-.18-.29-.28-.43-.06-.14-.06-.3-.15-.43-.16-.2-.32-.4-.47-.59-.39-.37-.84-.62-1.37-.75Z"/>
    </g>
    <g>
      <g>
        <path class="cls-21" d="M677.03,438.12s0-.07-.01-.11c0-.11-.05-.2-.05-.31.02.14.04.28.07.42Z"/>
        <path class="cls-21" d="M677.08,438.43c-.02-.1-.03-.21-.05-.31.01.06.01.12.02.18,0,.04.02.09.03.13Z"/>
        <g>
          <path class="cls-21" d="M611.06,453.52s.01-.07.02-.11c-.07.2-.09.27-.02.11Z"/>
          <path class="cls-21" d="M611.13,453.28s-.03.08-.05.12c0,0,0,0,0,0,.02-.05.02-.06.05-.13Z"/>
          <path class="cls-21" d="M671.33,414.25c-.62-.19-1.25-.41-1.89-.51-.84-.13-1.68-.25-2.53-.31-.31-.02-.58,0-.89.04-.32.04-.75.06-1.02.15-.09.03-.16.08-.25.12-.1.02-.19.05-.29.07-.81.2-1.45.94-1.64,1.73-.19.8.08,1.52.57,2.13.26.43.63.81,1.05,1.14-1,1.36-1.62,3.16-2.12,4.59-.72,2.06-1.27,4.2-1.69,6.34-.03.14-.05.28-.07.42-.35-.17-.69-.35-1.04-.5-3.9-1.66-7.89-2.42-11.88-2.35-.12-2.11-.14-4.22-.24-6.32-.07-1.47-.14-2.91-.44-4.31.27-.07.55-.12.82-.19.61-.17,1.16-.44,1.7-.77.18-.11.38-.22.56-.33.59-.39,1.03-.9,1.27-1.53.04-.05.08-.1.11-.15.32-.48.38-1.33.2-1.87-.21-.62-.6-1.14-1.18-1.46-.05-.03-.11-.05-.16-.08-.83-.63-1.91-.63-2.93-.71.29.03.58.06.88.09-.7-.12-1.24-.1-1.92.03-.17.03-.33.06-.5.1-.33.07-.66.16-.99.25-.68.18-1.37.34-2.04.58-.64.23-1.28.45-1.91.7-.51.2-.99.44-1.48.68-.35.17-.67.35-.97.59-.07.04-.13.09-.2.14-.87.59-1.36,1.55-1.19,2.61.07.45.24.83.52,1.19.32.41.87.86,1.41.92.15.02.3.03.45.05-.23-.09-.46-.18-.69-.26.6.28,1.07.4,1.73.4.11,0,.22,0,.33,0-.25,1.09-.39,2.21-.51,3.4-.22,2.23-.23,4.46-.18,6.7,0,.25.04.5.05.74-1.53.42-3.05.93-4.56,1.59-1.47.64-2.92,1.39-4.34,2.22-.32-.39-.65-.79-.97-1.18-1.39-1.71-2.78-3.39-4.22-5.06-.85-.98-1.87-2.17-3.03-3.07.16-.15.34-.28.49-.44.45-.48.9-1.06,1.22-1.63.3-.83.36-.96.17-.38.15-.28.26-.56.35-.86.1-.37.11-.73.07-1.1,0-.09.03-.18.02-.28-.08-1.38-1.47-2.58-2.88-2.09-.1.04-.2.09-.3.13-.33.08-.65.2-.95.39.12-.08-1.16,1.02-.47.37-.49.46-1.02.86-1.49,1.33-.35.35-.68.71-1.05,1.04-.16.14-.31.28-.47.42-.03.03-.21.17-.33.28-.11.09-.38.3-.42.32-.17.13-.35.26-.52.38-.23.17-.48.32-.71.5-.18.14-.36.29-.54.43-.49.42-1.05.75-1.52,1.2-.15.14-.3.29-.44.44-.2.19-.38.41-.52.65-.06.14-.09.23-.13.32-.37.59-.51,1.22-.2,1.91.3.69,1.08,1.28,1.88,1.2.13,0,.18-.01.18-.02.33.05.66.04.98-.06.27-.06.55-.12.82-.21.61-.2,1.21-.51,1.79-.78.57,1.39,1.55,2.72,2.33,3.79,1.34,1.84,2.72,3.64,4.13,5.43.26.33.52.67.78,1.01-2.43,2.26-4.45,4.9-5.79,7.89-.57.02-1.15.01-1.72.04-1.75.09-3.65.16-5.46.44l.07-.75c.04-.46.09-.91.1-1.37,0-.44-.05-.88-.19-1.3-.31-.98-.89-1.47-1.69-2.06-.92-.66-2.23-.4-3.15.07-1.84.94-1.87,3.09-1.96,4.87-.05.99-.1,1.98-.16,2.97-.05.99-.14,1.98-.16,2.97-.02,1.17.24,2.29.49,3.42.25,1.13,1.57,2.05,2.71,1.97.47-.03.92-.17,1.33-.39.69-.37.99-1.03,1.25-1.72.04-.1.08-.2.11-.3.05-.26.36-.92.43-1.2.13-.55.2-1.08.26-1.64,1.71.25,3.48.28,5.17.44.28.03.56.04.84.06-.29,2.67-.22,5.42.21,8.12-.72.15-1.45.26-2.17.44-1.52.37-3.08.83-4.52,1.43-.95.4-1.91.81-2.83,1.27-.14.07-.25.17-.38.25-.53-1.16-1.15-2.28-1.93-3.27-.28-.46-.65-.81-1.12-1.07-.47-.25-.97-.37-1.51-.36-1.03.03-2.03.62-2.51,1.54-.96,1.83-1.43,3.9-1.36,5.96.03.98.15,2.03.49,2.95.21.57.45,1.14.74,1.68.28.51.7.97,1.1,1.4.26.29.63.46,1.03.57.31.47.69.88,1.22,1.14.74.36,1.49.5,2.31.37.75-.12,1.53-.45,2.05-1.03.68-.77.97-1.61,1.02-2.64.02-.42-.04-.83-.06-1.25,2.56-.3,5.05-1.03,7.58-1.55.68-.14,1.36-.29,2.05-.43.28-.06.57-.11.85-.16.52,1.26,1.09,2.49,1.77,3.66,1.19,2.38,2.62,4.62,4.27,6.68-.1.11-.21.22-.31.34-.96,1.12-1.91,2.29-2.72,3.53-.47.72-1.05,1.5-1.42,2.33-1.18-.63-2.45-1.13-3.75-1.4-1.32-.27-2.66.21-3.46,1.31-.74,1.01-.98,2.64-.19,3.72.67.93,1.39,1.83,2.19,2.64.76.78,1.66,1.43,2.55,2.06.91.64,1.8,1.12,2.85,1.52,1.08.41,2.49.82,3.6.34.65-.28,1.13-.6,1.5-1.21.35-.59.37-1.29.17-1.93.01,0,.03,0,.04,0-.02-.04-.04-.07-.05-.11.22-.83.17-1.76-.33-2.48-.08-.12-.18-.2-.27-.31-.12-.24-.26-.46-.43-.69.5-.33.98-.73,1.47-1.11,1.21-.94,2.34-1.94,3.46-2.97.12-.11.24-.24.36-.35,1.38,1.08,2.87,2.06,4.46,2.9,1.96,1.03,4.05,1.82,6.19,2.38.05.62.12,1.24.17,1.86.15,1.78.3,3.53.63,5.29.03.15.06.3.09.45-.49-.22-1.02-.35-1.6-.33-.93.03-2.04.47-2.66,1.18-.69.57-1.15,1.92-1.08,2.8.01.14.04.28.06.42.09.83.44,1.63,1.11,2.24,1.56,1.4,3.58,2.43,5.67,2.74,1.4.21,2.52.2,3.91-.09.62-.13,1.21-.37,1.75-.72.14-.09.28-.19.42-.29.59-.44,1.01-.92,1.38-1.54,1.07-1.82-.14-4.05-2.04-4.57-.19-.05-.39-.07-.58-.09.02-.07.04-.15.05-.22,0,0,0-.05.01-.09.07-.16.27-.88.26-.81.05-.2.07-.42.09-.62.21-1.61.32-3.2.26-4.81-.02-.61-.09-1.21-.12-1.81,2.97-.06,5.93-.6,8.74-1.69.74-.29,1.44-.63,2.14-.97.1.14.19.28.29.41,1.2,1.61,2.52,3.19,3.99,4.57.09.09.19.18.28.26-1.38,1.2-2.63,2.55-3.39,4.18-.66,1.42.22,3.48,2.03,3.31.44-.04.88-.1,1.31-.21.13-.03.16-.04.19-.05.18-.03.37-.06.55-.09.76-.17,1.45-.59,2.15-.94,1.13-.57,2.23-1.23,3.32-1.89,1.05-.64,2.04-1.39,3.04-2.09.5-.35,1.01-.69,1.51-1.04.42-.3.85-.63,1.21-1,.62-.64.87-1.3,1.17-2.11.28-.76.09-1.58-.27-2.31-.25-.78-.69-1.51-1.49-1.83-1.18-.47-2.19-.49-3.16.05-.16.06-.32.08-.48.17-.21.14-.4.31-.6.47-.02.01-.02.02-.05.03-.36.25-.71.52-1.07.78-.02-.03-.05-.06-.07-.09-.02-.02-.03-.04-.06-.07-.95-1.24-1.91-2.46-2.82-3.73-.28-.39-.55-.77-.82-1.16,3.29-2.85,5.88-6.41,7.75-10.52,1.38.03,2.76.03,4.12-.08.64-.05,1.32-.16,1.99-.31,0,.38.02.75.17,1.1.01.03.01.02.02.03-.01.33.12.68.2,1,.47,1.77,2.61,2.04,3.83.94,1.49-1.33,2.48-3.4,2.93-5.33.24-1.07.37-2.14.45-3.23.11-1.35.16-2.77-.6-3.96.13.29.25.57.38.86-.14-.4-.31-.82-.53-1.19-1.34-2.26-4.82-2.2-6.05.13-.21.39-.36.83-.49,1.25.12-.31.23-.61.35-.92-.38.63-.51,1.35-.56,2.08-.71-.13-1.43-.23-2.13-.27-.55-.03-1.11-.06-1.66-.09.65-4.36.25-8.81-.95-13.04.08-.07.17-.13.25-.2,1.04-.89,2.08-1.8,3.1-2.73.5-.46.97-.98,1.39-1.52.05-.07.08-.13.12-.2.17.24.34.48.54.67.31.3.71.5,1.06.73-.01-.01-.03-.02-.04-.03.09.06.19.13.28.18,1.14.52,2.36.59,3.46-.08,1.08-.65,1.7-1.83,1.68-3.08,0-.39-.1-.77-.18-1.16-.22-.96-.75-1.7-1.38-2.5-.59-.75-1.19-1.51-1.84-2.22-.46-.51-1.04-.92-1.59-1.33-.45-.34-.9-.7-1.38-1.01-.29-.18-.74-.31-1.11-.39-.67-.16-1.16-.09-1.83.03.25-.04.51-.08.76-.12-.08.02-.15.02-.23,0-.85-.06-1.68.51-2.16,1.16-.49.67-.6,1.37-.49,2.15.03.35.05.7.18,1.03.04.12.1.2.15.31-.17.07-.35.13-.51.22-.51.27-1.04.56-1.52.88-.68.46-1.33.97-1.98,1.48-1.5-2.53-3.44-4.88-5.65-6.91.25-1.6.52-3.19.77-4.79.34-2.17.74-4.32,1.04-6.49.11-.81.14-1.63.15-2.44.52.17,1.08.18,1.62.22.41.03.75.03,1.19-.12.63-.21,1.04-.54,1.56-.95.89-.72,1.07-2.19.79-3.21-.45-1.61-1.97-2.5-3.47-2.96Z"/>
        </g>
      </g>
      <path class="cls-27" d="M629.89,450.78c-1.5-.5-3.06.13-4.17,1.13-.57.51-.99,1.19-1.29,1.9,0,0,0,0,0,.01-.15.27-.26.52-.37.82-.27.72-.35,1.48-.33,2.25.02.72.18,1.4.39,2.06.11.55.31,1,.55,1.53.38.84.93,1.58,1.65,2.16.03.03.05.06.08.09.45.43.97.8,1.49,1.13.57.36,1.2.48,1.83.66.81.23,1.97.04,2.66-.42.78-.52,1.46-1.3,1.64-2.25.36-1.87.26-3.68-.1-5.54-.18-.91-.53-1.75-.91-2.6-.14-.31-.28-.63-.47-.91-.23-.34-.48-.69-.78-.97-.6-.56-1.11-.8-1.86-1.06Z"/>
      <path class="cls-27" d="M641.44,436.95s-.07-.02-.1-.02c-.65-.14-.76-.1-1.3-.02-.21.03-.39.06-.58.11-.15.04-.3.07-.45.11-.14.03-.27.09-.39.17-.13.05-.26.1-.39.17-.03.02-.05.03-.08.05-.06.04-.12.08-.18.11-.3.2-.57.43-.82.69-.27.26-.45.56-.55.92-.16.32-.22.66-.2,1.03.04.23.07.45.11.68.13.45.37.84.71,1.17.04.03.08.07.13.1.12.09.23.17.35.26.13.1.23.19.37.26.33.17.81.41,1.11.44.14.02.28.03.43.05.07,0,.13.02.2.02.89.1.64.12,1.3.01.27-.04.33-.03.51-.1.25-.11.5-.22.75-.33.38-.21.68-.5.91-.87.2-.21.34-.46.41-.75.19-.38.27-.79.24-1.23-.04-.27-.09-.54-.13-.81-.11-.25-.22-.5-.33-.75-.21-.38-.5-.68-.87-.91-.33-.29-.71-.48-1.15-.56Z"/>
      <path class="cls-27" d="M647.96,462.64c-.29-.03-.59-.06-.88-.09-.45,0-.87.1-1.26.31-.72.32-1.22.79-1.63,1.47-.95,1.53-1.4,3.49-1.29,5.29.03.57.13,1.14.24,1.69.05.29.16.57.28.84,0,.21.01.43.04.64-.02,1.01.46,2.02.92,2.89.36.68.86,1.29,1.4,1.83.27.2.55.4.83.6.45.27.93.41,1.45.41.78.08,1.68-.04,2.35-.5,1.13-.78,2.1-1.75,2.72-2.98.64-1.27.9-2.51.97-3.91.06-1.02-.15-2.1-.53-3.04-.51-1.26-1.13-2.28-2.02-3.31-.45-.52-1.04-.93-1.61-1.31-.59-.39-1.29-.64-1.96-.84Z"/>
      <path class="cls-27" d="M653.92,437.68c-.93.07-1.7.42-2.39,1.06-.15.14-.29.28-.41.44-.3.37-.6.77-.84,1.19-.1.17-.18.36-.26.54-.18.44-.39.9-.48,1.37-.13.64-.21,1.32-.18,1.97,0,.11.01.21.02.32.03.28.07.64.14.91.08.28.25.58.37.84.08.18.17.36.28.53.17.21.34.42.5.63.07.07.15.12.22.18.06.37.13.73.24,1.08.13.29.25.58.38.87.2.25.4.5.6.75.27.2.53.39.8.59.44.26.91.4,1.41.4.32.07.63.06.95-.03.32-.01.62-.1.9-.27.31-.09.58-.26.81-.49.42-.28.74-.64.96-1.1.34-.53.54-1.13.76-1.72.1-.28.18-.57.24-.87.15-.89.28-1.82.16-2.73-.07-.57-.15-1.15-.31-1.71-.17-.57-.43-1.13-.69-1.66-.4-.8-.99-1.55-1.66-2.13-.67-.58-1.59-1.04-2.51-.97Z"/>
      <path class="cls-27" d="M665.15,455.79c-.39-.1-.8-.13-1.19-.13-.07,0-.14,0-.21.01-.32.04-.66.08-.98.17-.39.11-.77.28-1.11.48-.06.03-.11.07-.16.11-.5.31-.9.72-1.18,1.23-.16.27-.25.56-.3.85-.02.05-.04.09-.05.14-.01.04-.03.08-.03.13-.01.05-.02.1-.02.15-.04.29-.07.59-.09.88,0,.02,0,.04,0,.06,0,.14.09.65.12.79.01.04.02.08.04.11,0,.02.01.03.02.05.08.21.19.5.3.69.08.13.35.47.46.58.06.06.14.09.2.15.15.24.31.47.52.66.22.2.46.38.71.53.39.23.87.26,1.31.16.58.1,1.3.02,1.64-.45.03-.04.04-.08.07-.12.22.07.46.07.67-.05.01,0,.02-.02.03-.02.39.01.78-.03,1.11-.25.46-.31.76-.72.92-1.26.11-.37.13-.77.12-1.15.02-.19.04-.38.06-.58,0-.12,0-.24-.05-.35-.03-.2-.02-.25-.08-.39-.1-.23-.21-.51-.33-.75-.09-.17-.2-.32-.31-.48-.06-.16-.07-.33-.16-.48-.17-.22-.35-.44-.52-.66-.43-.41-.93-.68-1.51-.82Z"/>
    </g>
    <g>
      <g>
        <path class="cls-21" d="M639.71,158.67s0-.05,0-.07c0-.07-.04-.14-.04-.22.02.1.03.19.05.29Z"/>
        <path class="cls-21" d="M639.74,158.89c-.01-.07-.02-.14-.04-.22,0,.04,0,.08.02.13,0,.03.01.06.02.09Z"/>
        <g>
          <path class="cls-21" d="M593.94,169.36s0-.05.01-.08c-.05.14-.07.19-.01.08Z"/>
          <path class="cls-21" d="M593.99,169.19s-.02.06-.03.09c0,0,0,0,0,0,.01-.03.01-.04.03-.09Z"/>
          <path class="cls-21" d="M635.75,142.12c-.43-.13-.87-.28-1.31-.35-.58-.09-1.17-.17-1.76-.22-.21-.02-.41,0-.62.03-.22.03-.52.04-.71.1-.06.02-.11.06-.17.08-.07.02-.13.03-.2.05-.56.14-1.01.65-1.14,1.2-.13.56.05,1.05.4,1.48.18.3.44.56.73.79-.7.94-1.12,2.19-1.47,3.18-.5,1.43-.88,2.92-1.18,4.4-.02.1-.03.19-.05.29-.24-.11-.48-.24-.72-.34-2.7-1.15-5.48-1.68-8.24-1.63-.08-1.46-.1-2.93-.17-4.39-.05-1.02-.1-2.02-.31-2.99.19-.05.38-.08.57-.13.43-.12.81-.31,1.18-.54.13-.08.26-.15.39-.23.41-.27.71-.62.88-1.06.02-.03.05-.07.08-.1.22-.33.27-.93.14-1.3-.15-.43-.41-.79-.82-1.02-.04-.02-.07-.04-.11-.05-.57-.44-1.32-.44-2.03-.5l.61.06c-.49-.08-.86-.07-1.33.02-.12.02-.23.04-.35.07-.23.05-.46.11-.68.17-.47.12-.95.23-1.41.4-.44.16-.89.31-1.33.49-.35.14-.69.31-1.03.47-.24.12-.47.25-.67.41-.05.03-.09.06-.14.09-.61.41-.94,1.07-.83,1.81.05.31.17.58.36.82.23.28.6.6.98.64.11.01.21.02.32.03-.16-.06-.32-.12-.48-.18.42.19.74.28,1.2.27.08,0,.15,0,.23,0-.17.75-.27,1.53-.35,2.36-.15,1.55-.16,3.09-.13,4.65,0,.17.03.34.03.52-1.06.29-2.12.64-3.16,1.1-1.02.45-2.03.96-3.01,1.54-.23-.27-.45-.55-.67-.82-.96-1.18-1.93-2.36-2.93-3.51-.59-.68-1.3-1.51-2.1-2.13.11-.1.23-.2.34-.31.31-.33.62-.74.85-1.13.21-.57.25-.66.12-.26.1-.19.18-.39.24-.6.07-.26.08-.51.05-.76,0-.06.02-.13.02-.19-.06-.96-1.02-1.79-2-1.45-.07.02-.14.06-.21.09-.23.05-.45.14-.66.27.08-.05-.8.7-.32.26-.34.32-.71.59-1.04.92-.24.24-.47.49-.73.72-.11.1-.22.2-.33.29-.02.02-.14.12-.23.19-.08.06-.26.2-.29.23-.12.09-.24.18-.36.26-.16.12-.33.22-.49.34-.13.1-.25.2-.38.3-.34.29-.73.52-1.05.83-.1.1-.2.2-.3.31-.14.13-.26.28-.36.45-.04.1-.06.16-.09.22-.25.41-.35.85-.14,1.33.21.48.75.89,1.3.83.09,0,.13,0,.13-.01.23.03.46.03.68-.04.19-.04.38-.09.57-.14.43-.14.84-.35,1.24-.54.4.96,1.08,1.89,1.62,2.63.93,1.28,1.89,2.52,2.86,3.77.18.23.36.47.54.7-1.68,1.57-3.08,3.4-4.02,5.47-.4.01-.8.01-1.19.03-1.22.06-2.53.11-3.79.31l.05-.52c.03-.32.06-.63.07-.95,0-.3-.04-.61-.13-.9-.22-.68-.62-1.02-1.17-1.43-.64-.46-1.55-.28-2.18.05-1.28.65-1.3,2.15-1.36,3.38-.04.69-.07,1.37-.11,2.06-.04.69-.1,1.38-.11,2.06-.02.81.17,1.59.34,2.37.17.79,1.09,1.42,1.88,1.36.33-.02.64-.12.93-.27.48-.26.69-.72.87-1.2.03-.07.05-.14.08-.21.04-.18.25-.64.3-.83.09-.38.14-.75.18-1.13,1.18.18,2.42.19,3.59.31.19.02.39.03.58.04-.2,1.85-.15,3.76.14,5.63-.5.1-1.01.18-1.5.3-1.05.25-2.13.57-3.13.99-.66.28-1.32.56-1.97.88-.1.05-.17.12-.26.18-.37-.8-.8-1.58-1.34-2.27-.19-.32-.45-.56-.78-.74-.33-.18-.67-.26-1.04-.25-.71.02-1.41.43-1.74,1.07-.66,1.27-1,2.71-.95,4.14.02.68.1,1.41.34,2.04.15.4.31.79.51,1.16.19.36.49.67.76.97.18.2.44.32.71.39.21.32.48.61.84.79.51.25,1.04.35,1.6.26.52-.08,1.06-.31,1.42-.72.47-.53.67-1.12.71-1.83.01-.29-.03-.58-.04-.87,1.78-.21,3.5-.72,5.26-1.08.47-.1.95-.2,1.42-.3.2-.04.39-.07.59-.11.36.87.76,1.73,1.23,2.54.83,1.65,1.82,3.21,2.96,4.63-.07.08-.14.15-.21.23-.67.78-1.32,1.59-1.88,2.45-.33.5-.73,1.04-.99,1.61-.82-.43-1.7-.78-2.6-.97-.92-.19-1.85.15-2.4.91-.51.7-.68,1.83-.13,2.58.46.64.96,1.27,1.52,1.83.53.54,1.15.99,1.77,1.43.63.45,1.25.78,1.98,1.05.75.28,1.73.57,2.5.23.45-.2.78-.42,1.04-.84.25-.41.25-.9.12-1.34,0,0,.02,0,.03,0-.01-.03-.03-.05-.04-.07.15-.57.12-1.22-.23-1.72-.06-.08-.13-.14-.19-.22-.08-.16-.18-.32-.3-.48.35-.23.68-.5,1.02-.77.84-.65,1.62-1.35,2.4-2.06.09-.08.17-.16.25-.24.96.75,1.99,1.43,3.09,2.01,1.36.72,2.81,1.26,4.29,1.65.04.43.08.86.12,1.29.1,1.23.21,2.45.44,3.67.02.1.04.21.06.31-.34-.15-.71-.24-1.11-.23-.64.02-1.41.33-1.85.82-.48.4-.8,1.34-.75,1.94,0,.1.03.2.04.29.06.58.3,1.13.77,1.55,1.08.97,2.48,1.69,3.93,1.9.97.14,1.75.14,2.71-.06.43-.09.84-.26,1.21-.5.1-.06.2-.13.29-.2.41-.31.7-.64.96-1.07.74-1.26-.09-2.81-1.42-3.17-.13-.04-.27-.05-.4-.07.01-.05.03-.1.04-.15,0,0,0-.03,0-.06.05-.11.19-.61.18-.57.04-.14.05-.29.06-.43.14-1.11.22-2.22.18-3.34-.01-.42-.06-.84-.08-1.26,2.06-.04,4.12-.42,6.06-1.18.51-.2,1-.44,1.48-.67.07.09.13.19.2.29.83,1.12,1.75,2.21,2.76,3.17.06.06.13.12.2.18-.96.83-1.83,1.77-2.35,2.9-.46.99.15,2.42,1.41,2.29.31-.03.61-.07.91-.15.09-.02.11-.03.13-.03.13-.02.25-.04.38-.06.53-.12,1.01-.41,1.49-.65.79-.4,1.55-.85,2.3-1.31.73-.44,1.41-.96,2.11-1.45.35-.24.7-.48,1.05-.72.29-.21.59-.43.84-.69.43-.44.6-.9.81-1.46.2-.53.06-1.1-.19-1.6-.17-.54-.48-1.05-1.03-1.27-.82-.32-1.52-.34-2.19.03-.11.04-.22.05-.33.12-.15.1-.28.21-.42.32-.01,0-.02.01-.03.02-.25.18-.49.36-.74.54-.02-.02-.04-.04-.05-.06-.01-.02-.02-.03-.04-.05-.66-.86-1.32-1.71-1.95-2.59-.19-.27-.38-.54-.57-.81,2.28-1.98,4.08-4.45,5.38-7.3.95.02,1.91.02,2.86-.06.44-.04.92-.11,1.38-.21,0,.26.01.52.11.76,0,.02,0,.01.01.02-.01.23.08.47.14.7.32,1.23,1.81,1.41,2.66.65,1.04-.93,1.72-2.36,2.03-3.7.17-.74.25-1.48.31-2.24.07-.94.11-1.92-.42-2.75.09.2.17.4.26.59-.1-.28-.21-.57-.37-.82-.93-1.57-3.34-1.53-4.2.09-.14.27-.25.58-.34.87.08-.21.16-.42.24-.64-.26.43-.35.93-.39,1.44-.49-.09-.99-.16-1.48-.19-.38-.02-.77-.04-1.15-.06.45-3.02.17-6.11-.66-9.05.06-.05.12-.09.17-.14.72-.62,1.44-1.25,2.15-1.89.35-.32.67-.68.96-1.05.04-.05.05-.09.08-.14.12.16.24.33.37.46.21.21.49.35.74.51,0,0-.02-.01-.03-.02.07.04.13.09.2.12.79.36,1.63.41,2.4-.05.75-.45,1.18-1.27,1.17-2.14,0-.27-.07-.54-.12-.8-.15-.67-.52-1.18-.96-1.73-.41-.52-.83-1.05-1.28-1.54-.32-.35-.72-.64-1.1-.92-.31-.24-.62-.49-.96-.7-.2-.13-.52-.21-.77-.27-.47-.11-.8-.07-1.27.02.18-.03.35-.06.53-.08-.05.01-.11.01-.16,0-.59-.04-1.16.35-1.5.8-.34.47-.41.95-.34,1.49.02.24.04.48.12.71.03.08.07.14.1.21-.12.05-.24.09-.35.15-.36.19-.72.39-1.05.61-.47.32-.92.67-1.37,1.03-1.04-1.75-2.38-3.38-3.92-4.8.17-1.11.36-2.22.53-3.33.23-1.5.51-3,.72-4.51.08-.56.1-1.13.1-1.69.36.12.75.13,1.13.15.29.02.52.02.83-.09.43-.15.72-.37,1.08-.66.62-.5.75-1.52.55-2.23-.31-1.12-1.37-1.73-2.41-2.05Z"/>
        </g>
      </g>
      <path class="cls-27" d="M607,167.46c-1.04-.35-2.12.09-2.9.78-.4.35-.69.83-.89,1.32,0,0,0,0,0,0-.1.19-.18.36-.26.57-.19.5-.24,1.03-.23,1.56.01.5.12.97.27,1.43.08.38.21.69.38,1.06.26.58.64,1.09,1.14,1.5.02.02.04.04.06.06.31.3.67.55,1.04.78.39.25.83.34,1.27.46.56.16,1.36.03,1.85-.29.54-.36,1.01-.9,1.13-1.56.25-1.3.18-2.55-.07-3.84-.12-.63-.36-1.21-.63-1.8-.1-.22-.2-.44-.33-.63-.16-.24-.33-.48-.54-.67-.41-.39-.77-.56-1.29-.73Z"/>
      <path class="cls-27" d="M615.01,157.87s-.05-.01-.07-.02c-.45-.1-.53-.07-.9-.01-.14.02-.27.04-.4.07-.1.02-.21.05-.31.07-.1.02-.19.06-.27.12-.09.03-.18.07-.27.12-.02.01-.04.02-.05.03-.04.03-.08.05-.12.08-.21.14-.4.3-.57.48-.19.18-.31.39-.38.64-.11.22-.15.46-.14.71.02.16.05.31.08.47.09.31.26.58.49.81.03.02.06.05.09.07.08.06.16.12.25.18.09.07.16.13.26.18.23.12.56.28.77.31.1.01.2.02.3.03.05,0,.09.01.14.02.62.07.44.08.9.01.18-.03.23-.02.35-.07.17-.08.35-.15.52-.23.27-.15.47-.35.63-.6.14-.15.24-.32.28-.52.13-.27.18-.55.16-.85-.03-.19-.06-.37-.09-.56-.08-.17-.15-.35-.23-.52-.15-.27-.35-.47-.6-.63-.23-.2-.49-.33-.8-.39Z"/>
      <path class="cls-27" d="M619.54,175.69c-.2-.02-.41-.04-.61-.06-.31,0-.61.07-.88.22-.5.22-.84.55-1.13,1.02-.66,1.06-.97,2.42-.9,3.67.02.39.09.79.17,1.18.04.2.11.39.19.59,0,.15,0,.3.03.44-.01.7.32,1.4.64,2,.25.47.6.89.97,1.27.19.14.38.28.57.42.31.19.65.28,1,.29.54.05,1.17-.03,1.63-.35.78-.54,1.46-1.21,1.89-2.07.44-.88.62-1.74.68-2.71.04-.71-.1-1.46-.37-2.11-.35-.87-.78-1.58-1.4-2.3-.31-.36-.72-.65-1.11-.91-.41-.27-.9-.44-1.36-.58Z"/>
      <path class="cls-27" d="M623.67,158.37c-.64.05-1.18.29-1.66.73-.1.1-.2.2-.29.31-.21.26-.42.53-.58.82-.07.12-.13.25-.18.38-.12.3-.27.62-.34.95-.09.44-.14.91-.12,1.37,0,.07,0,.15.02.22.02.2.05.44.1.63.05.19.17.4.26.58.06.13.12.25.19.36.12.15.23.29.35.44.05.05.1.08.15.12.04.25.09.5.17.75.09.2.18.4.26.6.14.17.28.35.42.52.19.14.37.27.56.41.3.18.63.27.98.28.22.05.44.04.66-.02.22,0,.43-.07.63-.18.22-.06.4-.18.56-.34.29-.19.51-.45.67-.76.23-.37.38-.79.52-1.19.07-.2.13-.4.16-.6.11-.62.19-1.27.11-1.89-.05-.39-.1-.8-.22-1.18-.12-.4-.29-.79-.48-1.15-.28-.55-.69-1.07-1.15-1.48-.46-.4-1.11-.72-1.74-.67Z"/>
      <path class="cls-27" d="M631.46,170.94c-.27-.07-.55-.09-.83-.09-.05,0-.1,0-.15,0-.23.03-.46.05-.68.11-.27.07-.53.19-.77.33-.04.02-.08.05-.11.08-.35.21-.62.5-.82.86-.11.19-.17.39-.21.59-.01.03-.03.06-.04.09,0,.03-.02.06-.02.09,0,.03-.01.07-.02.1-.03.2-.05.41-.06.61,0,.01,0,.03,0,.04,0,.1.06.45.09.55,0,.03.02.05.03.08,0,.01,0,.02.01.04.06.14.13.35.21.48.05.09.24.33.32.4.04.04.1.06.14.1.1.16.21.32.36.46.15.14.32.26.49.37.27.16.6.18.91.11.4.07.9.01,1.14-.31.02-.03.03-.06.05-.08.15.05.32.05.47-.04,0,0,.01-.01.02-.02.27,0,.54-.02.77-.17.32-.21.53-.5.64-.87.07-.26.09-.53.08-.8.01-.13.03-.27.04-.4,0-.08,0-.16-.03-.25-.02-.14-.02-.18-.05-.27-.07-.16-.15-.35-.23-.52-.06-.12-.14-.23-.22-.33-.04-.11-.05-.23-.11-.33-.12-.15-.24-.3-.36-.45-.3-.28-.65-.47-1.05-.57Z"/>
    </g>
    <g>
      <g>
        <path class="cls-21" d="M420.09,377.2s0-.07-.01-.11c0-.11-.05-.21-.05-.31.02.14.05.28.07.42Z"/>
        <path class="cls-21" d="M420.14,377.52c-.02-.11-.03-.21-.05-.32.01.06.01.12.02.18,0,.04.02.09.03.13Z"/>
        <g>
          <path class="cls-21" d="M353.57,392.73s.01-.07.02-.11c-.08.2-.1.27-.02.11Z"/>
          <path class="cls-21" d="M353.64,392.49s-.03.08-.05.13c0,0,0,0,0,0,.02-.05.02-.06.05-.13Z"/>
          <path class="cls-21" d="M414.35,353.14c-.63-.19-1.26-.41-1.91-.51-.85-.13-1.7-.25-2.55-.32-.31-.02-.59,0-.89.04-.32.04-.76.06-1.03.15-.09.03-.16.08-.25.12-.1.02-.19.05-.29.07-.82.2-1.47.95-1.65,1.75-.19.81.08,1.53.58,2.15.26.44.64.82,1.05,1.15-1.01,1.37-1.63,3.19-2.14,4.62-.73,2.07-1.28,4.24-1.71,6.39-.03.14-.05.28-.07.42-.35-.17-.69-.35-1.05-.5-3.93-1.67-7.96-2.44-11.98-2.37-.12-2.12-.14-4.25-.24-6.38-.07-1.48-.14-2.94-.45-4.35.27-.07.55-.12.82-.19.62-.17,1.17-.45,1.72-.78.19-.11.38-.22.56-.34.59-.39,1.03-.91,1.28-1.54.04-.05.08-.1.11-.15.32-.48.39-1.35.2-1.89-.21-.63-.6-1.15-1.19-1.48-.05-.03-.11-.05-.16-.08-.83-.63-1.92-.63-2.95-.72.29.03.59.06.88.09-.71-.12-1.25-.1-1.93.03-.17.03-.34.06-.51.1-.33.07-.66.17-.99.25-.69.18-1.38.34-2.05.59-.64.23-1.29.46-1.93.71-.51.2-1,.45-1.49.69-.35.17-.68.36-.98.6-.07.05-.13.09-.2.14-.88.59-1.37,1.56-1.2,2.63.07.46.24.84.53,1.2.33.41.88.87,1.42.92.15.02.31.03.46.05-.23-.09-.46-.18-.69-.27.6.28,1.08.4,1.75.4.11,0,.22,0,.33,0-.25,1.1-.39,2.23-.51,3.43-.22,2.25-.23,4.5-.19,6.75,0,.25.04.5.05.75-1.54.43-3.08.94-4.59,1.6-1.48.65-2.95,1.4-4.37,2.24-.33-.4-.66-.79-.98-1.19-1.4-1.72-2.81-3.42-4.26-5.1-.85-.98-1.89-2.19-3.06-3.09.16-.15.34-.29.49-.44.45-.48.9-1.07,1.23-1.64.3-.84.36-.96.17-.38.15-.28.27-.57.36-.87.1-.37.11-.74.07-1.11,0-.09.03-.19.02-.28-.08-1.39-1.48-2.6-2.9-2.1-.1.04-.2.09-.3.14-.34.08-.66.2-.96.39.12-.08-1.17,1.02-.47.37-.49.46-1.03.86-1.51,1.34-.35.35-.69.71-1.06,1.05-.16.14-.32.29-.48.43-.03.03-.21.17-.33.28-.11.09-.38.3-.42.33-.17.13-.35.26-.53.38-.24.17-.48.33-.71.5-.18.14-.36.29-.55.43-.49.43-1.06.76-1.53,1.21-.15.14-.3.3-.44.45-.21.19-.38.41-.52.66-.06.14-.09.23-.13.32-.37.59-.51,1.23-.2,1.93.31.69,1.09,1.29,1.89,1.21.13,0,.18-.01.18-.02.33.05.66.04.99-.06.27-.06.56-.12.82-.21.62-.2,1.22-.51,1.81-.79.58,1.4,1.56,2.75,2.35,3.83,1.35,1.86,2.75,3.67,4.16,5.48.26.34.52.68.79,1.02-2.45,2.28-4.48,4.94-5.84,7.96-.58.02-1.16.01-1.73.04-1.77.09-3.68.16-5.51.44l.07-.76c.04-.46.09-.92.1-1.38,0-.44-.05-.89-.19-1.31-.32-.99-.9-1.49-1.71-2.07-.92-.67-2.25-.4-3.17.07-1.86.95-1.88,3.12-1.98,4.91-.05,1-.1,2-.16,3-.05,1-.14,2-.16,3-.02,1.18.25,2.31.5,3.45.25,1.14,1.58,2.07,2.73,1.98.47-.03.93-.17,1.35-.4.69-.38,1-1.04,1.26-1.74.04-.1.08-.2.11-.31.05-.26.36-.93.43-1.21.13-.55.2-1.09.26-1.65,1.72.26,3.51.28,5.22.45.28.03.56.04.84.06-.29,2.7-.22,5.46.21,8.19-.73.15-1.47.27-2.19.44-1.53.37-3.1.83-4.56,1.44-.96.4-1.93.81-2.86,1.28-.14.07-.25.17-.38.25-.54-1.17-1.16-2.3-1.95-3.3-.28-.46-.66-.82-1.13-1.08-.47-.26-.98-.38-1.52-.36-1.04.03-2.05.63-2.53,1.56-.97,1.84-1.45,3.93-1.38,6.01.03.98.15,2.05.49,2.97.21.58.45,1.15.74,1.69.28.52.71.97,1.1,1.41.26.29.64.46,1.04.57.31.47.7.89,1.23,1.15.74.36,1.51.5,2.33.37.76-.12,1.54-.45,2.07-1.04.68-.77.98-1.63,1.03-2.66.02-.42-.04-.84-.06-1.26,2.59-.3,5.09-1.04,7.65-1.57.69-.14,1.38-.29,2.07-.43.28-.06.57-.11.86-.16.52,1.27,1.1,2.51,1.79,3.69,1.2,2.4,2.64,4.66,4.3,6.73-.1.11-.21.22-.31.34-.97,1.13-1.93,2.31-2.74,3.56-.48.73-1.06,1.51-1.43,2.35-1.19-.63-2.47-1.14-3.78-1.41-1.34-.28-2.68.21-3.49,1.32-.74,1.02-.98,2.66-.2,3.75.68.93,1.4,1.84,2.21,2.67.77.79,1.68,1.44,2.57,2.08.92.65,1.82,1.13,2.87,1.53,1.09.41,2.51.83,3.63.34.65-.29,1.14-.6,1.51-1.22.36-.59.37-1.3.17-1.94.01,0,.03,0,.04,0-.02-.04-.04-.07-.05-.11.22-.83.17-1.77-.33-2.5-.08-.12-.18-.2-.27-.31-.12-.24-.27-.47-.43-.69.5-.34.99-.73,1.48-1.11,1.22-.94,2.36-1.96,3.49-2.99.13-.11.24-.24.37-.36,1.39,1.09,2.89,2.07,4.49,2.92,1.98,1.04,4.08,1.83,6.24,2.4.05.63.12,1.25.17,1.88.15,1.79.3,3.56.64,5.33.03.15.06.3.09.45-.5-.22-1.03-.35-1.62-.34-.94.03-2.05.47-2.68,1.19-.7.58-1.16,1.94-1.09,2.82.01.14.04.28.06.43.09.84.44,1.64,1.12,2.26,1.57,1.41,3.61,2.45,5.71,2.77,1.41.21,2.55.2,3.94-.09.63-.13,1.22-.38,1.76-.73.14-.09.28-.19.42-.3.6-.44,1.02-.92,1.39-1.55,1.08-1.83-.14-4.08-2.06-4.61-.19-.05-.39-.07-.59-.1.02-.07.04-.15.06-.23,0,0,0-.05.01-.09.07-.16.28-.89.26-.82.05-.2.07-.42.09-.63.21-1.62.32-3.22.26-4.85-.02-.61-.09-1.22-.12-1.83,3-.06,5.98-.61,8.81-1.71.75-.29,1.45-.64,2.16-.97.1.14.2.28.3.42,1.21,1.63,2.54,3.22,4.02,4.61.09.09.19.18.29.27-1.39,1.21-2.66,2.57-3.42,4.21-.66,1.44.23,3.51,2.05,3.33.44-.04.89-.1,1.32-.21.13-.03.17-.04.19-.05.18-.03.37-.06.55-.09.77-.17,1.47-.6,2.16-.95,1.14-.58,2.25-1.24,3.35-1.9,1.05-.64,2.05-1.4,3.07-2.1.51-.35,1.02-.69,1.52-1.05.43-.31.85-.63,1.22-1.01.62-.64.88-1.31,1.18-2.12.28-.77.09-1.6-.27-2.33-.25-.79-.7-1.53-1.5-1.84-1.19-.47-2.21-.49-3.18.05-.16.07-.32.08-.48.17-.21.14-.41.31-.61.47-.02.01-.02.02-.05.03-.36.26-.72.52-1.08.79-.02-.03-.05-.06-.07-.09-.02-.03-.03-.04-.06-.07-.96-1.25-1.92-2.48-2.84-3.76-.28-.39-.55-.78-.83-1.17,3.32-2.88,5.92-6.46,7.81-10.61,1.39.04,2.78.03,4.15-.08.64-.05,1.33-.16,2.01-.31,0,.38.02.76.17,1.11.01.03.01.02.02.03-.01.33.12.69.21,1.01.47,1.78,2.63,2.05,3.86.95,1.5-1.35,2.51-3.43,2.95-5.38.25-1.08.37-2.16.46-3.26.11-1.36.16-2.79-.61-4,.13.29.25.58.38.86-.14-.41-.31-.83-.53-1.2-1.35-2.28-4.86-2.22-6.1.13-.21.39-.36.84-.49,1.26.12-.31.24-.62.35-.92-.38.63-.52,1.36-.57,2.1-.72-.13-1.44-.23-2.15-.28-.56-.03-1.12-.06-1.67-.09.65-4.4.25-8.88-.96-13.15.08-.07.17-.13.25-.2,1.05-.9,2.1-1.82,3.12-2.75.51-.46.97-.99,1.4-1.53.05-.07.08-.13.12-.2.17.24.34.48.54.67.31.3.71.51,1.07.74-.01-.01-.03-.02-.04-.03.09.06.19.13.29.18,1.15.53,2.38.6,3.49-.08,1.09-.65,1.71-1.85,1.69-3.11,0-.4-.1-.78-.18-1.16-.22-.97-.76-1.72-1.39-2.52-.6-.76-1.2-1.52-1.85-2.24-.47-.51-1.05-.93-1.6-1.34-.46-.34-.91-.71-1.39-1.02-.29-.19-.75-.31-1.12-.4-.68-.16-1.17-.09-1.84.03.26-.04.51-.08.77-.12-.08.02-.16.02-.23,0-.86-.06-1.69.51-2.17,1.17-.5.68-.6,1.38-.49,2.17.03.35.05.7.18,1.03.04.12.1.21.15.31-.17.07-.35.13-.51.23-.52.27-1.05.56-1.53.89-.68.46-1.34.98-2,1.49-1.51-2.55-3.47-4.92-5.7-6.97.25-1.61.53-3.22.78-4.83.34-2.19.74-4.36,1.05-6.55.11-.82.14-1.64.15-2.46.53.17,1.09.18,1.64.22.42.03.75.03,1.2-.13.63-.22,1.04-.54,1.57-.96.9-.72,1.08-2.21.79-3.24-.45-1.62-1.99-2.52-3.5-2.98Z"/>
        </g>
      </g>
      <path class="cls-27" d="M372.55,389.97c-1.51-.51-3.08.14-4.21,1.14-.58.52-1,1.2-1.3,1.92,0,0,0,0,0,.01-.15.27-.26.53-.37.83-.28.72-.35,1.5-.33,2.27.02.73.18,1.41.4,2.07.11.55.31,1.01.55,1.55.38.85.93,1.59,1.66,2.17.03.03.06.07.09.09.45.43.98.81,1.5,1.14.57.36,1.21.49,1.85.67.81.23,1.98.04,2.69-.42.79-.52,1.47-1.31,1.65-2.27.36-1.89.26-3.71-.1-5.58-.18-.92-.53-1.76-.91-2.62-.14-.31-.29-.63-.48-.92-.23-.35-.48-.69-.79-.98-.6-.57-1.12-.81-1.88-1.07Z"/>
      <path class="cls-27" d="M384.2,376.03s-.07-.02-.1-.02c-.65-.14-.77-.1-1.31-.02-.21.03-.39.06-.59.11-.15.04-.3.07-.45.11-.14.03-.27.09-.39.17-.14.05-.27.1-.39.17-.03.02-.05.03-.08.05-.06.04-.12.08-.18.12-.3.2-.58.43-.83.69-.27.26-.46.57-.56.92-.16.32-.22.67-.2,1.04.04.23.07.45.11.68.14.46.37.85.71,1.18.04.03.08.07.13.1.12.09.23.17.36.26.13.1.24.19.37.26.33.17.82.41,1.12.45.14.02.29.03.43.05.07,0,.13.02.2.02.89.1.64.12,1.31.01.27-.04.33-.03.51-.1.25-.11.51-.22.76-.33.39-.21.69-.5.91-.87.21-.21.34-.47.41-.76.19-.39.27-.8.24-1.24-.04-.27-.09-.54-.13-.82-.11-.25-.22-.51-.33-.76-.21-.39-.5-.69-.87-.91-.33-.29-.72-.48-1.16-.57Z"/>
      <path class="cls-27" d="M390.78,401.93c-.3-.03-.59-.06-.89-.09-.46,0-.88.1-1.27.32-.72.32-1.23.8-1.65,1.48-.96,1.55-1.41,3.52-1.3,5.33.03.57.14,1.15.24,1.71.06.29.16.57.28.85,0,.21.01.43.04.65-.02,1.02.46,2.04.93,2.91.36.68.87,1.3,1.41,1.85.28.2.55.41.83.61.46.27.94.41,1.46.42.79.08,1.7-.04,2.37-.5,1.14-.79,2.12-1.76,2.74-3.01.64-1.28.9-2.53.98-3.95.06-1.03-.15-2.12-.54-3.07-.51-1.27-1.13-2.3-2.03-3.34-.46-.53-1.05-.94-1.62-1.32-.59-.4-1.3-.64-1.98-.85Z"/>
      <path class="cls-27" d="M396.79,376.76c-.94.07-1.71.42-2.41,1.06-.15.14-.29.29-.41.45-.3.38-.61.77-.85,1.2-.1.18-.19.36-.26.55-.18.44-.39.91-.49,1.38-.13.65-.21,1.33-.18,1.99,0,.11.01.22.02.32.03.29.07.64.15.92.08.28.25.59.37.85.08.18.18.36.28.53.17.21.34.42.51.64.07.07.15.12.22.18.06.37.13.73.24,1.09.13.29.26.58.38.88.2.25.4.51.6.76.27.2.54.39.81.59.44.26.92.4,1.42.41.32.07.64.06.95-.03.33-.01.63-.1.91-.27.32-.09.59-.26.82-.49.42-.28.74-.65.97-1.11.34-.54.55-1.14.76-1.74.1-.29.19-.58.24-.87.15-.89.28-1.84.16-2.75-.07-.57-.15-1.16-.31-1.72-.17-.58-.43-1.14-.7-1.68-.4-.8-1-1.56-1.68-2.15-.67-.59-1.61-1.05-2.53-.98Z"/>
      <path class="cls-27" d="M408.11,395.03c-.39-.1-.81-.13-1.2-.14-.07,0-.14,0-.21.01-.33.04-.67.08-.99.17-.39.11-.77.28-1.12.49-.06.03-.11.07-.16.11-.51.31-.9.72-1.19,1.24-.16.27-.25.56-.3.86-.02.05-.04.09-.05.14-.01.04-.03.08-.03.13-.01.05-.02.1-.02.15-.04.29-.08.59-.09.89,0,.02,0,.04,0,.06,0,.15.09.66.13.79.01.04.02.08.04.11,0,.02.01.03.02.05.08.21.19.51.31.7.08.13.35.47.46.59.06.06.14.09.21.15.15.24.31.47.52.67.22.2.46.38.72.54.39.23.88.26,1.32.16.59.1,1.31.02,1.65-.45.03-.04.04-.08.07-.12.22.07.46.07.68-.05.01,0,.02-.02.03-.02.39.01.79-.03,1.12-.25.47-.31.77-.73.92-1.27.11-.37.13-.77.12-1.16.02-.19.04-.39.06-.58.01-.12,0-.24-.05-.36-.03-.2-.02-.26-.08-.39-.1-.23-.21-.51-.33-.75-.09-.17-.2-.33-.31-.48-.06-.16-.07-.33-.16-.48-.18-.22-.35-.44-.53-.66-.43-.41-.94-.69-1.52-.83Z"/>
    </g>
    <g>
      <g>
        <path class="cls-21" d="M157.4,490.77s0-.05,0-.07c0-.07-.03-.13-.03-.2.01.09.03.18.04.26Z"/>
        <path class="cls-21" d="M157.43,490.97c-.01-.07-.02-.13-.03-.2,0,.04,0,.08.01.11,0,.03.01.06.02.08Z"/>
        <g>
          <path class="cls-21" d="M115.75,500.49s0-.04.01-.07c-.05.13-.06.17-.01.07Z"/>
          <path class="cls-21" d="M115.79,500.34s-.02.05-.03.08c0,0,0,0,0,0,.01-.03.01-.04.03-.08Z"/>
          <path class="cls-21" d="M153.8,475.7c-.39-.12-.79-.26-1.2-.32-.53-.08-1.06-.16-1.6-.2-.19-.01-.37,0-.56.02-.2.02-.48.04-.65.1-.06.02-.1.05-.16.07-.06.01-.12.03-.18.04-.51.12-.92.59-1.03,1.09-.12.51.05.96.36,1.34.16.27.4.51.66.72-.63.86-1.02,2-1.34,2.9-.46,1.3-.8,2.65-1.07,4-.02.09-.03.18-.05.26-.22-.1-.43-.22-.65-.31-2.46-1.05-4.98-1.53-7.5-1.49-.07-1.33-.09-2.66-.15-3.99-.04-.93-.09-1.84-.28-2.72.17-.04.35-.07.52-.12.39-.11.73-.28,1.08-.49.12-.07.24-.14.35-.21.37-.24.65-.57.8-.97.02-.03.05-.06.07-.09.2-.3.24-.84.13-1.18-.13-.39-.38-.72-.75-.92-.03-.02-.07-.03-.1-.05-.52-.4-1.2-.4-1.85-.45.18.02.37.04.55.06-.44-.07-.78-.06-1.21.02-.11.02-.21.04-.32.06-.21.04-.42.1-.62.16-.43.11-.87.21-1.29.37-.4.15-.81.29-1.21.44-.32.13-.63.28-.93.43-.22.11-.43.22-.61.37-.04.03-.08.06-.13.09-.55.37-.86.98-.75,1.64.05.29.15.52.33.75.2.26.55.54.89.58.1.01.19.02.29.03-.14-.06-.29-.11-.43-.17.38.17.68.25,1.09.25.07,0,.14,0,.21,0-.16.69-.25,1.4-.32,2.15-.14,1.41-.14,2.82-.12,4.23,0,.16.02.31.03.47-.97.27-1.93.59-2.88,1-.93.41-1.84.88-2.74,1.4-.2-.25-.41-.5-.61-.75-.88-1.08-1.76-2.14-2.67-3.19-.53-.62-1.18-1.37-1.91-1.94.1-.09.21-.18.31-.28.28-.3.57-.67.77-1.03.19-.52.23-.6.11-.24.09-.17.17-.36.22-.55.06-.23.07-.46.04-.69,0-.06.02-.12.02-.17-.05-.87-.93-1.63-1.82-1.32-.06.02-.12.06-.19.09-.21.05-.41.12-.6.25.07-.05-.73.64-.29.23-.31.29-.64.54-.94.84-.22.22-.43.45-.66.66-.1.09-.2.18-.3.27-.02.02-.13.11-.21.17-.07.05-.24.19-.27.21-.11.08-.22.16-.33.24-.15.11-.3.2-.45.31-.11.09-.23.18-.34.27-.31.27-.66.47-.96.76-.09.09-.19.19-.28.28-.13.12-.24.26-.33.41-.04.09-.06.14-.08.2-.23.37-.32.77-.13,1.21.19.43.68.81,1.19.76.08,0,.11,0,.11-.01.21.03.41.02.62-.04.17-.04.35-.08.52-.13.39-.12.76-.32,1.13-.49.36.88.98,1.72,1.47,2.4.85,1.16,1.72,2.3,2.61,3.43.17.21.33.42.49.64-1.53,1.43-2.81,3.09-3.65,4.98-.36,0-.73,0-1.09.03-1.11.06-2.3.1-3.45.28l.04-.47c.03-.29.06-.58.06-.87,0-.28-.03-.56-.12-.82-.2-.62-.56-.93-1.07-1.3-.58-.42-1.41-.25-1.99.04-1.16.59-1.18,1.95-1.24,3.07-.03.63-.07,1.25-.1,1.88-.03.62-.09,1.25-.1,1.88-.01.74.15,1.45.31,2.16.16.72.99,1.29,1.71,1.24.3-.02.58-.11.84-.25.43-.24.63-.65.79-1.09.02-.06.05-.13.07-.19.03-.16.23-.58.27-.76.08-.35.12-.68.16-1.03,1.08.16,2.2.18,3.27.28.18.02.35.02.53.04-.18,1.69-.14,3.42.13,5.13-.46.09-.92.17-1.37.28-.96.23-1.94.52-2.85.9-.6.25-1.21.51-1.79.8-.09.04-.16.11-.24.16-.34-.73-.73-1.44-1.22-2.06-.17-.29-.41-.51-.71-.68-.3-.16-.61-.24-.95-.23-.65.02-1.28.39-1.59.97-.6,1.15-.91,2.46-.86,3.77.02.62.09,1.28.31,1.86.13.36.28.72.47,1.06.17.32.44.61.69.88.17.18.4.29.65.36.19.3.44.56.77.72.47.23.94.32,1.46.23.47-.08.97-.28,1.29-.65.43-.48.61-1.02.64-1.66.01-.26-.03-.52-.04-.79,1.62-.19,3.19-.65,4.79-.98.43-.09.86-.18,1.29-.27.18-.03.36-.07.54-.1.33.8.69,1.57,1.12,2.31.75,1.5,1.65,2.92,2.69,4.22-.06.07-.13.14-.19.21-.61.71-1.21,1.45-1.71,2.23-.3.46-.66.95-.9,1.47-.75-.39-1.55-.71-2.37-.88-.84-.17-1.68.13-2.19.82-.47.64-.62,1.67-.12,2.35.42.58.88,1.15,1.38,1.67.48.49,1.05.9,1.61,1.3.58.41,1.14.71,1.8.96.68.26,1.57.52,2.27.21.41-.18.71-.38.95-.76.22-.37.23-.82.11-1.22,0,0,.02,0,.02,0-.01-.02-.02-.04-.03-.07.14-.52.11-1.11-.21-1.56-.05-.07-.12-.13-.17-.2-.08-.15-.17-.29-.27-.43.32-.21.62-.46.93-.7.76-.59,1.47-1.22,2.19-1.87.08-.07.15-.15.23-.22.87.68,1.81,1.3,2.81,1.83,1.24.65,2.55,1.15,3.91,1.5.03.39.07.78.11,1.18.09,1.12.19,2.23.4,3.34.02.09.04.19.06.28-.31-.14-.64-.22-1.01-.21-.59.02-1.29.3-1.68.74-.44.36-.72,1.22-.68,1.77,0,.09.03.18.04.27.06.53.28,1.03.7,1.41.99.88,2.26,1.54,3.58,1.73.88.13,1.59.12,2.47-.05.39-.08.77-.24,1.1-.46.09-.06.18-.12.26-.19.37-.28.64-.58.87-.97.67-1.15-.09-2.56-1.29-2.88-.12-.03-.24-.04-.37-.06.01-.05.03-.09.03-.14,0,0,0-.03,0-.06.04-.1.17-.56.16-.51.03-.13.04-.26.06-.39.13-1.01.2-2.02.16-3.04-.01-.38-.06-.76-.07-1.15,1.88-.04,3.75-.38,5.52-1.07.47-.18.91-.4,1.35-.61.06.09.12.18.19.26.76,1.02,1.59,2.01,2.52,2.89.06.05.12.11.18.17-.87.76-1.66,1.61-2.14,2.64-.42.9.14,2.2,1.28,2.09.28-.03.56-.06.83-.13.08-.02.1-.02.12-.03.12-.02.23-.04.35-.06.48-.11.92-.37,1.35-.59.72-.36,1.41-.77,2.1-1.19.66-.4,1.29-.88,1.92-1.32.32-.22.64-.43.95-.66.27-.19.53-.39.76-.63.39-.4.55-.82.74-1.33.18-.48.06-1-.17-1.46-.16-.49-.44-.96-.94-1.15-.74-.29-1.38-.31-1.99.03-.1.04-.2.05-.3.11-.13.09-.25.19-.38.29-.01,0-.01,0-.03.02-.23.16-.45.33-.67.49-.01-.02-.03-.04-.04-.05-.01-.02-.02-.03-.04-.05-.6-.78-1.2-1.56-1.78-2.36-.17-.24-.35-.49-.52-.73,2.08-1.8,3.71-4.05,4.89-6.64.87.02,1.74.02,2.6-.05.4-.03.83-.1,1.26-.19,0,.24.01.47.1.7,0,.02,0,.01.01.02,0,.21.07.43.13.63.29,1.12,1.65,1.29,2.42.59.94-.84,1.57-2.15,1.85-3.37.15-.67.23-1.35.29-2.04.07-.85.1-1.75-.38-2.5.08.18.16.36.24.54-.09-.25-.2-.52-.33-.75-.84-1.43-3.04-1.39-3.82.08-.13.25-.23.52-.31.79.07-.19.15-.39.22-.58-.24.39-.32.85-.36,1.32-.45-.08-.9-.14-1.35-.17-.35-.02-.7-.04-1.05-.06.41-2.75.16-5.56-.6-8.24.05-.04.11-.08.16-.13.66-.56,1.31-1.14,1.95-1.72.32-.29.61-.62.88-.96.03-.04.05-.08.08-.12.11.15.22.3.34.42.19.19.45.32.67.46,0,0-.02-.01-.03-.02.06.04.12.08.18.11.72.33,1.49.37,2.19-.05.68-.41,1.07-1.16,1.06-1.95,0-.25-.06-.49-.11-.73-.14-.61-.48-1.07-.87-1.58-.37-.48-.75-.95-1.16-1.4-.29-.32-.66-.58-1-.84-.29-.22-.57-.45-.87-.64-.18-.12-.47-.19-.7-.25-.43-.1-.73-.06-1.15.02.16-.03.32-.05.48-.08-.05.01-.1.01-.15,0-.54-.04-1.06.32-1.36.73-.31.43-.38.86-.31,1.36.02.22.03.44.11.65.03.08.06.13.09.19-.11.04-.22.08-.32.14-.32.17-.66.35-.96.56-.43.29-.84.61-1.25.94-.95-1.6-2.17-3.08-3.57-4.36.16-1.01.33-2.02.49-3.03.21-1.37.47-2.73.66-4.1.07-.51.09-1.03.09-1.54.33.11.68.11,1.02.14.26.02.47.02.75-.08.4-.14.65-.34.98-.6.56-.45.68-1.38.5-2.03-.28-1.02-1.25-1.58-2.19-1.87Z"/>
        </g>
      </g>
      <path class="cls-27" d="M127.63,498.76c-.95-.32-1.93.08-2.64.71-.36.32-.62.75-.81,1.2,0,0,0,0,0,0-.1.17-.16.33-.23.52-.17.45-.22.94-.21,1.42.01.45.11.88.25,1.3.07.35.2.63.35.97.24.53.59,1,1.04,1.36.02.02.03.04.05.06.28.27.61.51.94.71.36.23.76.3,1.16.42.51.14,1.24.03,1.68-.27.49-.33.92-.82,1.03-1.42.22-1.18.17-2.32-.06-3.5-.11-.58-.33-1.1-.57-1.64-.09-.2-.18-.4-.3-.58-.15-.22-.3-.43-.49-.61-.38-.36-.7-.51-1.18-.67Z"/>
      <path class="cls-27" d="M134.93,490.04s-.04-.01-.06-.01c-.41-.09-.48-.06-.82,0-.13.02-.24.04-.37.07-.09.02-.19.04-.28.07-.09.02-.17.06-.25.11-.08.03-.17.07-.24.11-.02,0-.03.02-.05.03-.04.02-.07.05-.11.07-.19.13-.36.27-.52.43-.17.16-.29.36-.35.58-.1.2-.14.42-.12.65.02.14.05.28.07.43.08.29.23.53.45.74.03.02.05.04.08.06.07.06.15.11.22.17.08.06.15.12.23.17.21.11.51.26.7.28.09.01.18.02.27.03.04,0,.08,0,.13.01.56.06.4.08.82,0,.17-.03.21-.02.32-.06.16-.07.32-.14.47-.21.24-.13.43-.32.57-.55.13-.13.21-.29.26-.47.12-.24.17-.5.15-.78-.03-.17-.05-.34-.08-.51-.07-.16-.14-.32-.21-.47-.13-.24-.32-.43-.55-.57-.21-.18-.45-.3-.73-.35Z"/>
      <path class="cls-27" d="M139.05,506.25c-.19-.02-.37-.04-.56-.06-.29,0-.55.06-.8.2-.45.2-.77.5-1.03.93-.6.97-.88,2.2-.82,3.34.02.36.08.72.15,1.07.03.18.1.36.18.53,0,.13,0,.27.03.4-.01.64.29,1.28.58,1.82.23.43.54.81.88,1.16.17.13.35.25.52.38.28.17.59.26.91.26.49.05,1.06-.02,1.48-.31.71-.49,1.33-1.1,1.72-1.88.4-.8.57-1.58.61-2.47.04-.64-.09-1.32-.34-1.92-.32-.8-.71-1.44-1.27-2.09-.29-.33-.66-.59-1.01-.83-.37-.25-.81-.4-1.24-.53Z"/>
      <path class="cls-27" d="M142.81,490.49c-.59.04-1.07.26-1.51.67-.09.09-.18.18-.26.28-.19.24-.38.48-.53.75-.06.11-.12.22-.16.34-.11.28-.24.57-.31.86-.08.4-.13.83-.11,1.24,0,.07,0,.14.02.2.02.18.04.4.09.58.05.17.16.37.23.53.05.11.11.22.18.33.11.13.21.27.32.4.04.04.09.07.14.11.04.23.08.46.15.68l.24.55c.13.16.25.32.38.47.17.12.34.25.51.37.28.16.57.25.89.25.2.05.4.04.6-.02.2,0,.39-.06.57-.17.2-.06.37-.16.51-.31.26-.17.47-.41.61-.7.21-.34.34-.71.48-1.09.06-.18.12-.36.15-.55.1-.56.17-1.15.1-1.72-.05-.36-.09-.73-.2-1.08-.11-.36-.27-.72-.44-1.05-.25-.5-.63-.98-1.05-1.34-.42-.37-1.01-.66-1.59-.61Z"/>
      <path class="cls-27" d="M149.9,501.93c-.24-.06-.5-.08-.75-.09-.04,0-.09,0-.13,0-.21.03-.42.05-.62.1-.25.07-.48.18-.7.3-.04.02-.07.05-.1.07-.32.19-.57.45-.75.78-.1.17-.16.35-.19.54,0,.03-.02.06-.03.09,0,.03-.02.05-.02.08,0,.03-.01.06-.02.09-.02.18-.05.37-.05.56,0,.01,0,.02,0,.04,0,.09.05.41.08.5,0,.02.01.05.02.07,0,.01,0,.02.01.03.05.13.12.32.19.44.05.08.22.3.29.37.04.04.09.06.13.09.09.15.19.3.33.42.14.13.29.24.45.34.25.15.55.16.83.1.37.06.82.01,1.03-.28.02-.03.03-.05.04-.08.14.04.29.05.42-.03,0,0,.01-.01.02-.01.24,0,.49-.02.7-.16.29-.19.48-.46.58-.79.07-.23.08-.48.08-.73.01-.12.02-.24.04-.36,0-.08,0-.15-.03-.22-.02-.13-.01-.16-.05-.24-.06-.15-.13-.32-.21-.47-.05-.11-.12-.2-.2-.3-.04-.1-.04-.21-.1-.3-.11-.14-.22-.28-.33-.41-.27-.26-.59-.43-.95-.52Z"/>
    </g>
    <path class="cls-17" d="M531.61,74.74c-.17-.6-.47-1.12-.91-1.57-.24-.19-.48-.37-.72-.56-.55-.32-1.15-.48-1.79-.48-.49-.02-.95.08-1.37.31-.44.14-.82.39-1.14.73-.35.32-.59.7-.73,1.14-.22.42-.32.88-.31,1.37l.13.94c.17.6.47,1.12.91,1.57.24.19.48.37.72.56.55.32,1.15.48,1.79.49.49.02.95-.08,1.37-.31.44-.14.82-.39,1.14-.73.35-.32.59-.7.73-1.14.22-.42.32-.88.31-1.37l-.13-.94Z"/>
    <path class="cls-17" d="M390.03,236.54c-.12-.44-.34-.82-.66-1.14-.17-.13-.35-.27-.52-.4-.4-.23-.84-.35-1.3-.35-.36-.01-.69.06-1,.22-.32.1-.6.28-.83.53-.25.23-.43.51-.53.83-.16.31-.24.64-.22,1,.03.23.06.46.09.69.12.44.34.82.66,1.14.17.13.35.27.52.4.4.23.84.35,1.3.35.36.01.69-.06,1-.22.32-.1.6-.28.83-.53.25-.23.43-.51.53-.83.16-.31.24-.64.22-1-.03-.23-.06-.46-.09-.69Z"/>
    <path class="cls-17" d="M321.02,138.74c-.18-.64-.51-1.2-.98-1.68-.03-.04-.06-.08-.09-.12-.02-.02-.03-.04-.05-.06-.48-.47-1.04-.8-1.69-.98-.34-.1-.68-.14-1.03-.14-.52-.02-1.01.09-1.47.33-.47.15-.88.42-1.23.79-.2.26-.4.51-.6.77-.34.59-.52,1.23-.52,1.92,0,.35.04.69.14,1.03.18.65.51,1.21.98,1.69.02.02.04.03.06.05.04.03.08.06.12.09.34.37.75.63,1.22.79.45.24.94.35,1.46.33.52.02,1.01-.09,1.46-.33.47-.15.88-.41,1.22-.79.2-.26.4-.51.59-.77.34-.59.52-1.23.52-1.92-.05-.34-.09-.67-.14-1.01Z"/>
    <path class="cls-17" d="M235.41,58.54c-.09-.29-.26-.54-.48-.75-.29-.29-.64-.49-1.03-.6-.41-.11-.83-.11-1.25,0-.04.01-.09.02-.13.03-.4.09-.82.31-1.1.62-.22.21-.38.45-.47.73-.14.27-.21.56-.2.88.03.2.05.4.08.61.11.39.3.72.59,1.01.28.31.7.52,1.1.62.04.01.09.02.13.03.41.11.83.11,1.25,0,.4-.11.74-.31,1.03-.6.12-.16.24-.32.37-.47.21-.37.32-.76.32-1.18.01-.32-.06-.62-.2-.9Z"/>
    <path class="cls-17" d="M147.91,184.95c.02-.43-.07-.82-.27-1.19-.04-.15-.11-.29-.19-.42-.13-.34-.3-.65-.57-.92-.31-.31-.69-.53-1.11-.65-.66-.18-1.37-.08-1.95.26-.2.07-.4.16-.59.25-.21.16-.42.32-.63.49-.3.28-.52.62-.64,1-.14.24-.21.5-.21.79-.09.41-.07.83.06,1.24.02.06.04.13.06.2.11.45.38,1.01.74,1.31-.06-.08-.12-.15-.18-.23.12.18.26.33.45.44.09.07.18.14.27.21,0,0,0,0,.01,0,0,0,0,0,0,0,.2.14.42.24.67.28.25.03.5.07.74.1.01,0,.02,0,.03,0,.34-.02.69-.07,1.03-.14.25-.1.5-.21.74-.31.36-.2.65-.46.87-.8.19-.19.33-.42.4-.69.19-.37.28-.77.27-1.2,0-.01,0-.02,0-.03Z"/>
    <path class="cls-17" d="M86.86,328.67c-.1-.44-.36-.79-.66-1.12-.29-.29-.64-.49-1.04-.6-.31-.1-.62-.11-.94-.04-.31.01-.6.11-.87.28-.35.21-.63.49-.84.84-.21.41-.37.81-.35,1.28,0,.43.11.83.33,1.21.21.36.5.65.86.86.01,0,.03.01.04.02.19.08.37.16.56.23.31.1.62.11.93.04.21,0,.41-.05.59-.16.29-.09.54-.25.75-.48.01,0,.02-.02.04-.03.3-.3.5-.65.61-1.05.11-.42.11-.85,0-1.27Z"/>
    <path class="cls-17" d="M166.68,468.55c-.03-.25-.05-.58-.1-.78-.12-.42-.33-.79-.64-1.11-.17-.14-.35-.28-.53-.41-.2-.08-.39-.17-.59-.25-.33-.1-.65-.12-.98-.04-.22,0-.43.06-.62.17-.31.1-.57.27-.79.51-.18.14-.32.32-.42.53l-.25.6c-.08.23-.08.54-.1.81,0,.12-.02.24-.02.36.03.23.06.45.09.68.08.33.23.62.46.87.11.19.27.34.46.46.13.12.27.21.41.29.03.02.06.05.09.07.16.11.32.18.53.23.35.1.49.08.79.04.29-.04.55-.09.8-.28.07-.05.13-.1.2-.15,0,0,0,0,0,0,.38-.23.69-.53.92-.92.23-.4.35-.83.35-1.29-.02-.13-.03-.26-.05-.39Z"/>
    <path class="cls-17" d="M389.6,547.48c-.27-.46-.64-.82-1.09-1.09-.3-.17-.62-.27-.95-.34-.12-.06-.25-.1-.38-.12,0,0,0,0,0,0l-.28-.12c-.43-.13-.85-.15-1.28-.06-.29,0-.56.07-.81.22-.4.13-.74.35-1.03.66l-.5.65c-.11.26-.22.51-.32.77-.13.43-.15.85-.06,1.28.02.43.15.82.38,1.19,0,0,.01.02.02.03.15.2.36.47.51.66.01.02.03.03.04.05.02.02.03.03.05.05,0,0,.02.01.02.02.19.16.47.37.67.52.04.03.07.05.11.07,0,0,.02,0,.03.01.23.11.56.24.8.34.01,0,.02,0,.03.01.52.2.84.13,1.33.06.23-.03.33-.02.49-.08.14-.05.31-.13.41-.17.06-.03.28-.11.41-.17.04-.02.08-.04.11-.07.16-.12.5-.38.65-.5,0,0,.02-.01.02-.02.02-.01.03-.03.05-.05.02-.02.03-.03.04-.05.13-.16.37-.47.49-.63,0-.01.02-.02.02-.03.28-.48.41-.99.42-1.54,0-.55-.14-1.06-.42-1.54Z"/>
    <path class="cls-17" d="M627.26,322.1c-.16-.57-.44-1.06-.86-1.47-.23-.17-.45-.35-.68-.52-.52-.3-1.08-.45-1.68-.46-.46-.02-.89.08-1.29.29-.41.13-.77.36-1.07.69-.33.3-.56.66-.69,1.07-.21.4-.3.83-.29,1.29.04.3.08.59.12.89.16.57.44,1.06.86,1.47.23.17.45.35.68.52.52.3,1.08.45,1.68.46.46.02.89-.08,1.29-.29.41-.13.77-.36,1.07-.69.33-.3.56-.66.69-1.07.21-.4.3-.83.29-1.29-.04-.3-.08-.59-.12-.89Z"/>
    <path class="cls-17" d="M670.32,532.89c-1.38,0-2.6,1.72-1.7,2.96.02.03.05.07.07.1.87,1.2,2.38,1.2,3.25,0,.02-.03.05-.07.07-.1.9-1.25-.32-2.96-1.7-2.96Z"/>
    <path class="cls-17" d="M679.82,166.36c-.15-.52-.41-.97-.79-1.35l-.1-.08c-.06-.25-.15-.49-.27-.72-.18-.35-.56-.53-.94-.54-.01-.1-.04-.2-.1-.28-.35-.49-.81-.86-1.38-1.05-.53-.17-1.19-.08-1.71.09-.61.21-1.11.51-1.61.93-.15.13-.29.27-.42.43-.2.25-.41.5-.55.79-.15.3-.3.63-.36.97-.03.15-.03.27-.04.4-.31.56-.43,1.23-.23,1.86.1.32.23.63.39.92.29.53.68.83,1.15,1.18.09.07.19.13.29.19.13.06.27.11.41.17.56.3,1.16.54,1.81.51.44-.02.88-.08,1.3-.19.42-.11.82-.3,1.22-.48.18-.08.35-.18.51-.29.46-.27.83-.64,1.1-1.1.22-.35.35-.73.36-1.14.09-.41.07-.82-.05-1.22Z"/>
  </g>
  <ellipse class="cls-19" cx="389.69" cy="581.82" rx="195.37" ry="11.89"/>
  <g>
    <g>
      <path class="cls-17" d="M352.37,581.3h0c-4.09,0-7.4-3.31-7.4-7.4v-177.08c0-4.09,3.31-7.4,7.4-7.4h0c4.09,0,7.4,3.31,7.4,7.4v177.08c0,4.09-3.31,7.4-7.4,7.4Z"/>
      <path class="cls-17" d="M219.35,581.3h0c-4.09,0-7.4-3.31-7.4-7.4v-177.08c0-4.09,3.31-7.4,7.4-7.4h0c4.09,0,7.4,3.31,7.4,7.4v177.08c0,4.09-3.31,7.4-7.4,7.4Z"/>
      <line class="cls-10" x1="222.39" y1="394.06" x2="222.39" y2="562.5"/>
      <path class="cls-19" d="M219.35,485.36h0c0-4.09,3.31-7.4,7.4-7.4h118.22c4.09,0,7.4,3.31,7.4,7.4h0c0,4.09-3.31,7.4-7.4,7.4h-118.22c-4.09,0-7.4-3.31-7.4-7.4Z"/>
      <path class="cls-17" d="M286.59,581.3h0c-4.09,0-7.4-3.31-7.4-7.4v-177.08c0-4.09,3.31-7.4,7.4-7.4h0c4.09,0,7.4,3.31,7.4,7.4v177.08c0,4.09-3.31,7.4-7.4,7.4Z"/>
    </g>
    <path class="cls-19" d="M378.65,388.76c0,9.86-41.16,17.83-91.95,17.83s-91.95-7.97-91.95-17.83v-25.22h183.46v23.47c.3.57.44,1.16.44,1.75Z"/>
    <ellipse class="cls-19" cx="286.7" cy="363.53" rx="91.95" ry="17.83"/>
    <path class="cls-12" d="M286.7,381.36c-45.49,0-83.26-6.4-90.64-14.82"/>
  </g>
  <g>
    <g>
      <path class="cls-19" d="M547.07,548.41h-29.98s-14.62,26.28-43.4,26.28v6.61h72.85l.52-32.89Z"/>
      <path class="cls-19" d="M474.56,548.41h-29.98s-14.62,26.28-43.4,26.28v6.61h72.85l.52-32.89Z"/>
      <path class="cls-26" d="M442.43,277.1c-1.32,90.53-2.64,181.06-3.96,271.6,13.97.27,27.94.54,41.92.8,8.01-89.88,16.01-179.76,24.02-269.65l-61.97-2.75Z"/>
      <path class="cls-26" d="M488.36,277.1c7.25,90.47,14.5,180.94,21.74,271.41,14.75.11,29.5.22,44.26.33-1.38-92.05-2.75-184.11-4.13-276.16l-61.88,4.43Z"/>
      <line class="cls-7" x1="475.18" y1="315.25" x2="494.25" y2="320.45"/>
      <line class="cls-7" x1="495.95" y1="371.84" x2="491.04" y2="319.58"/>
    </g>
    <g>
      <path class="cls-19" d="M507.73,80c.48-2.03,4.28-19.24-6.34-29.7-3.69-3.63-7.73-5.08-10.27-5.96-11.49-3.98-21.58-.15-32.86,4.13-8.2,3.11-13.66,5.27-14.53,9.91-.77,4.09,2.44,7.97,4.13,9.74-.41,1.61-.92,4.59-.17,8.17.57,2.67,1.63,4.68,2.44,5.95,15.04,1.68,30.08,3.35,45.12,5.03l12.48-7.28Z"/>
      <path class="cls-18" d="M498.45,92.44c3.62,9.47,7.25,18.94,10.87,28.41-8,4.06-15.99,8.11-23.99,12.17-3.88-3.57-7.77-7.14-11.65-10.71,1.2-.48,2.4-.96,3.6-1.45-2.16-6.59-4.32-13.19-6.48-19.78,9.22-2.88,18.43-5.76,27.65-8.64Z"/>
      <path class="cls-18" d="M459.82,58.62c-1.36.67-4.46,2.23-6.86,5.22-1.91,2.4-4.92,7.62-2.05,23.8,2.71,15.27,5.05,28.62,13.97,31.37,4.82,1.49,9.4-.74,14.12-3.03,12.64-6.14,19.08-17.26,21.92-23.26,4.94-5.96,7.49-11.66,6.73-14.81-.44-1.82-1.51-2.92-1.51-2.92-1.26-1.28-2.99-1.73-4.23-1.69-2.77.08-5.47,2.63-6.32,6.36-.87-1.05-2.14-2.83-2.88-5.28-1.93-6.42,2.69-10.24.92-13.77-1.39-2.78-6.42-3.09-16.47-3.72-11.81-.74-15.74.95-17.34,1.73Z"/>
      <path class="cls-5" d="M461.55,83.92c-.8,4.34-1.61,8.68-2.41,13.02,1.44.79,2.89,1.58,4.33,2.37"/>
      <path class="cls-20" d="M471.1,86.44c.13,1.53,1.07,2.7,2.1,2.62,1.03-.09,1.77-1.4,1.65-2.93-.13-1.53-1.07-2.7-2.1-2.62-1.03.09-1.77,1.4-1.65,2.93Z"/>
      <path class="cls-20" d="M454.81,90.19c.13,1.53,1.07,2.7,2.1,2.62,1.03-.08,1.77-1.4,1.65-2.93s-1.07-2.7-2.1-2.62c-1.03.08-1.77,1.4-1.65,2.93Z"/>
      <path class="cls-5" d="M478.12,101.08c.23,1.32-.52,2.7-1.63,3.45-1.12.75-2.53.94-3.87.8-1.34-.14-2.62-.58-3.89-1.03"/>
      <path class="cls-14" d="M499.67,79.89c-.79,2.27-.36,4.47.96,4.93,1.31.46,3.02-1.01,3.8-3.28.79-2.27.36-4.47-.96-4.93-1.31-.46-3.02,1.01-3.8,3.28Z"/>
      <path class="cls-9" d="M476.7,75.14c-3.26-.37-6.61,0-9.71,1.07"/>
      <path class="cls-9" d="M457.32,78.72c-1.9-.27-3.67.17-5.14,1.28"/>
      <g>
        <path class="cls-17" d="M452.09,95.63c.31,2.31,2.41,16.75,10.2,22.31.85.61,2.41,1.7,4.71,2.15,1.74.34,4.86.48,11.31-3.22,3.2-1.84,7.9-5.01,12.7-10.3,2.81-5.07,1.45-17.28,1.45-17.28-10.9,2.75-18.33,2.23-23.21,1.15-1.95-.43-6.03-1.52-10.43.13-3.2,1.19-5.38,3.39-6.72,5.08Z"/>
        <line class="cls-3" x1="495.57" y1="80.74" x2="491.75" y2="91.34"/>
        <path class="cls-3" d="M503.31,90.13c-2.52,4.46-5.99,9.37-10.76,14.05-.98.96-1.96,1.86-2.94,2.7"/>
      </g>
    </g>
    <g>
      <path class="cls-16" d="M442.44,278.68c12.83,3.51,31.1,7.03,53.13,6.6,23.04-.46,41.87-5.08,54.81-9.33,2.15-30.01,3.7-60.82,4.61-93,.3-10.6.62-29.91-10.23-44.23-2.48-3.27-9.45-12.48-21.84-16.31-3.07-.95-5.74-1.34-7.61-1.53-4.17-.64-8.51-1.1-13.07-1.3-9.99-.38-19.06.62-27.09,2.41-.87.19-1.3.27-1.74.38-6.61,1.59-15.32,6-24,18.25-2.09,37.83-4.03,75.67-5.83,113.51-.39,8.18-.77,16.37-1.15,24.56Z"/>
      <polygon class="cls-24" points="476.84 139.37 480.46 150.51 485.56 150.51 495.08 141.28 484.63 136.03 476.84 139.37"/>
      <polyline class="cls-2" points="471.77 141.58 484.72 136.03 498.77 143.09 505.33 137.49"/>
      <path class="cls-17" d="M508.29,118.15c-6.5,39.43-11.29,86-11.19,138.27.08,40.13,3.02,76.66,7.3,108.89h68.13c-2.49-105.75-10.52-184.31-19.49-211.15-2.47-7.4-7.82-23.4-22.62-31.38-8.29-4.47-16.69-4.89-22.13-4.63Z"/>
      <path class="cls-17" d="M473.69,122.31l-24.27,243h-17.75l8.87-112.32c-6.45-3.52-12.91-7.05-19.36-10.56.47-8.48.95-16.94,1.42-25.42,2.71,1.46,5.41,2.9,8.12,4.36,5.62-25.44,7.39-40.7,7.56-50.54.06-3.41,0-12.25,4.95-21.54,2.11-3.98,4.52-6.87,6.2-8.67,0,0,10.13-17.12,24.27-18.31Z"/>
      <polygon class="cls-24" points="480.46 150.51 469.48 255.55 475.18 266.74 484.72 256.05 485.56 150.51 480.46 150.51"/>
      <line class="cls-10" x1="441.83" y1="249.86" x2="447.44" y2="168.62"/>
      <polyline class="cls-6" points="461.3 128.14 464.35 137.76 458.41 147.83 467.98 170.13"/>
      <polyline class="cls-6" points="520.02 121.63 513.52 130.49 520.01 137.55 502.13 170.75"/>
      <g>
        <path class="cls-18" d="M398.95,212.89c-.1-3.12.89-5.25,1.88-5.35.88-.08,1.98,1.42,2.66,3.46l-4.53,1.89Z"/>
        <path class="cls-18" d="M415.62,219.18s6.2-1.61,5.3-4.09c-.9-2.48-10.29-6.85-7.54-12.99,2.76-6.14,21.12,14.38,22.46,21.03,1.34,6.65,2.42,17.34-8.96,18.97-11.38,1.62-20.92-15.35-20.92-15.35l9.65-7.57Z"/>
        <g>
          <path class="cls-17" d="M372.7,228.14c-.21,0-.4-.12-.48-.33-.11-.27.02-.57.29-.68l9.27-3.68c.27-.1.57.03.68.29.11.27-.02.57-.29.68l-9.27,3.68c-.06.02-.13.04-.19.04Z"/>
          <g>
            <path class="cls-17" d="M422.52,210.89l-2.3-5.74c-.24-.61-.93-.9-1.53-.66-.61.24-.9.93-.66,1.53l2.3,5.74c.24.61.93.9,1.53.66.61-.24.9-.93.66-1.53Z"/>
            <path class="cls-17" d="M418.52,207.27l-7.18,2.87-.97-2.41c-.24-.61-.93-.9-1.53-.66-.61.24-.9.93-.66,1.53l.03.08-25.83,10.34c-.54.22-.81.83-.59,1.37l.43,1.07-.76.31c-.17.07-.25.26-.19.43l1.28,3.21c.07.17.26.25.43.19l.76-.31.43,1.07c.22.54.83.81,1.37.59l25.83-10.34-.93-2.33h0l.97,2.41c.24.61.93.9,1.53.66.61-.24.9-.93.66-1.53l-.97-2.41,7.18-2.87-1.31-3.26Z"/>
          </g>
        </g>
        <path class="cls-18" d="M421.55,234.73c-1.35-.83-2.62-1.26-3.5-1.49,0,0,5.06-4.28,4.43-6.75-.63-2.47-6.77.1-6.77.1,0,0,4.72-3.84,3.83-6.76-.89-2.92-7.67,1.04-7.67,1.04,0,0,3.41-5.38,1.14-7.22-2.27-1.84-8.86,5.58-8.86,5.58-2.55-4.47-5.64-9.24-7.12-8.71-1.7.61-1.19,8.12,1.23,14.32,3.58,9.15,11.64,16.19,20.39,17.99.49.1,7.18,1.43,8.24-.73.86-1.76-2.22-5.47-5.33-7.38Z"/>
        <path class="cls-5" d="M426.31,239.35c-.99-1.65-2.87-3.47-4.76-4.62-1.35-.83-2.62-1.26-3.5-1.49,0,0,5.06-4.28,4.43-6.75-.63-2.47-6.77.1-6.77.1,0,0,4.72-3.84,3.83-6.76-.89-2.92-7.67,1.04-7.67,1.04,0,0,3.41-5.38,1.14-7.22-2.27-1.84-8.86,5.58-8.86,5.58-2.55-4.47-5.64-9.24-7.12-8.71-1.7.61-1.19,8.12,1.23,14.32"/>
      </g>
      <g>
        <path class="cls-18" d="M418.11,254.5s-6.02-.49-12.21-4.31c-6.2-3.81-7.8-2.33-8.06-.66-.26,1.67,8.36,7.53,7.12,10.34-1.23,2.81-27.21,4.53-25.61,8.77,1.6,4.24,14.54,3.65,14.54,3.65.85,2.12,4.7,11.01,12.71,12.98,3.14.77,6.14.28,9.36-.25,5.33-.87,9.46-2.64,12.11-4,4.75-4.07,6.53-10.64,4.48-16.48-2.13-6.05-7.96-10.12-14.45-10.05Z"/>
        <path class="cls-5" d="M418.11,254.5s-6.02-.49-12.21-4.31c-6.2-3.81-7.8-2.33-8.06-.66-.26,1.67,8.36,7.53,7.12,10.34-1.23,2.81-27.21,4.53-25.61,8.77,1.6,4.24,14.54,3.65,14.54,3.65.34.99,4.01,11.14,12.71,12.98"/>
      </g>
      <path class="cls-17" d="M549,174.55c-3.15,14.65-12.39,47.55-40.87,73.4-13.85,12.58-27.63,19.28-32.37,21.47-19.21,8.86-36.65,11.06-47.63,11.56-.61-8.06-1.23-16.13-1.84-24.19,9.23-3.28,19.82-7.74,31.08-13.88,12.48-6.8,22.81-14.04,31.08-20.63,6.18-7.3,13.86-17.86,20.33-31.8,6.53-14.07,9.65-26.85,11.23-36.33"/>
      <path class="cls-10" d="M500.29,206.12c2.91-4.63,5.81-9.84,8.5-15.63,6.53-14.07,9.65-26.85,11.23-36.33"/>
      <path class="cls-10" d="M426.29,256.8c9.23-3.28,19.82-7.74,31.08-13.88"/>
      <path class="cls-10" d="M549,174.55c-3.15,14.65-12.39,47.55-40.87,73.4-13.85,12.58-27.63,19.28-32.37,21.47-19.21,8.86-36.65,11.06-47.63,11.56"/>
      <line class="cls-10" x1="517.04" y1="286.27" x2="543.8" y2="290.72"/>
    </g>
  </g>
  <g>
    <g>
      <path class="cls-13" d="M282.18,322.98s.17,52.41,41.69,55.92c41.51,3.51,48.22,3.51,48.22,3.51l13.67,166.01h46.35c-2.09-49.43-3.5-88.41-4.38-124.7-.57-23.45-1.14-54.61-21.59-74.16-6.94-6.64-16.91-12.64-20.01-14.5-17.37-10.46-33.63-15.5-44.93-18.12-19.67,2.01-39.35,4.03-59.02,6.04Z"/>
      <path class="cls-13" d="M219.81,322.98s.17,52.41,41.69,55.92c41.51,3.51,48.22,3.51,48.22,3.51l13.67,166.01h46.35c-2.09-49.43-3.5-88.41-4.38-124.7-.57-23.45-1.14-54.61-21.59-74.16-6.94-6.64-16.91-12.64-20.01-14.5-17.37-10.46-33.63-15.5-44.93-18.12-19.67,2.01-39.35,4.03-59.02,6.04Z"/>
      <path class="cls-11" d="M361.25,381.81c-1.57-7.67-5.63-21.4-17.49-32.26-1.48-1.35-4.22-3.7-8.8-6.51-7.25-4.43-22.91-12.34-49.1-13.64"/>
      <path class="cls-22" d="M330.4,548.41h29.98s14.62,26.28,43.4,26.28v6.61h-72.85l-.52-32.89Z"/>
      <path class="cls-22" d="M395.43,548.41h29.98s14.62,26.28,43.4,26.28v6.61h-72.85l-.52-32.89Z"/>
      <line class="cls-11" x1="309.72" y1="382.4" x2="322.1" y2="375.39"/>
      <line class="cls-11" x1="372.09" y1="382.4" x2="384.94" y2="375.39"/>
      <line class="cls-11" x1="322.62" y1="537.01" x2="369.35" y2="537.01"/>
      <line class="cls-11" x1="384.94" y1="537.01" x2="431.67" y2="537.01"/>
    </g>
    <g>
      <path class="cls-15" d="M336.91,324.53c-14.39,10.76-56.7,5.26-56.7,5.26-13.63-1.77-34.16-4.28-60.4-6.82-.19-6.82-.39-13.64-.58-20.46-3.72.7-7.43,1.41-11.15,2.11-7.38-31.02-5.09-55.6-2.51-70.11,2.51-14.17,4.8-26.18,14.45-37.6,13.32-15.77,32.89-21.22,36.39-22.08,3.57-.87,7.61-1.53,7.61-1.53,4.17-.64,8.51-1.1,13.07-1.3,9.99-.38,19.06.62,27.09,2.41.59.11,1.16.25,1.74.38,15.19,3.51,26.5,9.56,32.67,13.3v48.69l-.03-.03c-.95,23.25-1.87,46.54-2.8,69.8,1.22,1.27,6.61,7.08,5.01,12.83-.81,2.89-3.05,4.57-3.83,5.15Z"/>
      <line class="cls-4" x1="241.63" y1="236.76" x2="238.11" y2="290.72"/>
      <g>
        <path class="cls-18" d="M210.16,293.56c4.1-6.33,12.58-7.88,18.42-7.11,8.96,1.18,13.44,8.09,22.52,17.91,6.28,6.79,15.79,16.18,29.13,26.28,2.68.68,19.24,4.98,28.14,13.2,0,0,5.16,4.77,6.6,11.31.12.54.4,1.81-.29,2.83-.53.79-1.39,1.05-1.66,1.14-2.16.66-4.18-1.12-4.38-1.3.22,2.13-1.09,4.07-2.98,4.6-1.55.43-3.27-.15-4.36-1.48.05,1.97-1.22,3.74-3.08,4.29-1.77.52-3.71-.16-4.78-1.7-.42,1.2-1.15,2.6-2.48,3.13-1.99.79-4.61-.65-10.4-5.89-3.02-2.74-6.99-6.59-11.35-11.61-15.75-10.98-29.22-18.22-39.25-23-8.7-4.15-17.36-7.95-20.71-16.85-.48-1.26-3.32-9.2.92-15.75Z"/>
        <path class="cls-8" d="M308.63,357.83s-1.58-3.93-3.67-7.66"/>
        <path class="cls-8" d="M301.04,360.62s-1.64-4.05-3.25-6.7"/>
        <path class="cls-8" d="M293.44,363.53s-1.11-3.65-2.42-4.98"/>
      </g>
      <polyline class="cls-4" points="288.92 201.8 279.31 195.1 267.49 204.36 257.2 177.3"/>
      <polyline class="cls-4" points="300.21 201.32 305.92 194.59 315.94 201.32 313.42 178.16"/>
      <path class="cls-18" d="M400.62,241.92c-1.33,3.6-7.97,7.07-33.41,4.9-5.43-3.62-10.96-7.24-16.58-10.86-4.04-2.6-8.06-5.16-12.07-7.68v-40.18c.44.27,1.11.68,1.92,1.18,5.63,3.45,9.87,5.88,10.26,6.11,4.28,2.48,54.4,34.3,49.88,46.53Z"/>
      <path class="cls-4" d="M335.73,306.55c-4.31-.99-9.39-1.83-15.12-2.16-3.91-.23-7.52-.19-10.78,0"/>
      <g>
        <path class="cls-18" d="M383.92,225.26c-7.54.35-13.15,6.88-15.43,12.31-3.51,8.34.2,15.69,4.09,28.48,2.69,8.84,6,21.8,7.98,38.41-1.38,3.27-7.12,17.65-2.81,30.95.78,2.4,2.44,5.51,5.77,11.74,3.46,6.48,5.39,9.19,7.56,9.05.06,0,1.09-.09,1.82-.86,1.87-1.98.51-7.05-3.22-12.64,1.73,1.26,4.06,1.11,5.47-.25,1.15-1.12,1.52-2.9.92-4.5,1.68,1.04,3.84.83,5.26-.5,1.35-1.26,1.73-3.28.95-4.98,1.25.25,2.83.32,3.95-.56,1.69-1.32,1.77-4.3.16-11.95-.84-3.99-2.16-9.36-4.3-15.66-1.53-19.14-.98-34.42-.05-45.49.81-9.61,1.9-19-4.09-26.38-.85-1.05-6.26-7.51-14.06-7.16Z"/>
        <path class="cls-8" d="M389.69,342.7s-2.59-3.35-4.75-7.03"/>
        <path class="cls-8" d="M395.94,337.55s-2.67-3.46-4.14-6.19"/>
        <path class="cls-8" d="M402.29,332.46s-2.6-2.8-3.08-4.6"/>
      </g>
      <path class="cls-15" d="M338.57,188.1c3.86,2.23,7.79,4.58,11.78,7.06,3.31,2.05,6.52,4.11,9.63,6.15-2.7,11.81-5.4,23.63-8.1,35.44l-13.31-8.48c-1.54-5.83-3-14.02-2.54-23.8.3-6.4,1.36-11.93,2.54-16.38Z"/>
      <path class="cls-23" d="M357.57,240.46c-1.27.21-4.8.62-8.24-1.41-1.28-.76-2.2-1.65-2.85-2.41-.31.04-2.99.3-4.97-1.76-2.26-2.35-1.48-5.5-1.44-5.67,3.59-4.7,7.34-10.21,10.96-16.54,2.57-4.49,4.73-8.81,6.55-12.86.43-.16,2.85-.99,5.47.27,2.58,1.24,3.44,3.6,3.59,4.04.79.04,2.71.24,4.53,1.61,2.75,2.07,3.15,5.18,3.21,5.76-.95,3.62-2.43,7.95-4.79,12.58-3.8,7.46-8.42,12.84-12.03,16.39Z"/>
      <path class="cls-8" d="M367.21,246.82s.97-3.68,3.89-8.06"/>
      <path class="cls-1" d="M346.48,236.64s4.65-2.68,11.47-16.62"/>
      <path class="cls-1" d="M366.65,204.12s-1,2.73-2.07,3.99"/>
      <path class="cls-4" d="M330.16,263.48c-15.89,22.53-38.82,40.02-64.75,49.38"/>
      <path class="cls-4" d="M338.32,228.42v-10.24"/>
    </g>
    <g>
      <path class="cls-19" d="M319.43,134.43s5.6-12.21-1.35-24.81c.96-.49,5.23-2.83,6.86-7.94.95-2.99.57-5.6.28-6.91-2.61.42-5.22.83-7.83,1.25.61-1.23,1.55-3.55,1.63-6.61.08-3.19-.83-5.64-1.41-6.91-8.68,2.14-17.37,4.29-26.05,6.43-14.43-1.22-27.25,4.3-32.52,14.3-1.21,2.29-2.81,6.33-2.63,12.13-1.74.59-2.95,1.43-3.81,2.26-4.72,4.56-4.43,14.18.42,24.13l14.45,19.58,51.95-26.9Z"/>
      <path class="cls-18" d="M267.48,141.26v33.89c1.21,1.27,2.48,2.53,3.72,3.75,9.62,9.49,19.76,17.17,24.13,17.31,5.01.19,8.49-11.24,10.6-21.78-1.11-.24-2.24-.49-3.4-.67v-32.49h-35.05Z"/>
      <path class="cls-14" d="M302.53,166.71v7.03c-1.23-.02-16.39-.49-22.62-11.71-1.66-3-2.28-6.03-2.44-8.55,8.35,4.41,16.71,8.82,25.06,13.24Z"/>
      <path class="cls-18" d="M319.58,134.29c-.04,2.93-.1,5.8-.19,8.53v.06c-.44,11.74-1.88,21.27-8.65,24.6-4.52,2.22-9.4.75-14.43-.76-5.99-1.81-10.92-4.8-14.89-8.03-4.92-4.02-8.34-8.44-10.42-11.47-5.81-5.1-9.24-10.34-8.99-13.57.15-1.88,1.04-3.13,1.04-3.13,1.04-1.46,2.67-2.17,3.91-2.34,2.75-.36,5.82,1.74,7.24,5.28.69-1.17,1.68-3.13,2.02-5.67.93-7.01-4.57-11.4-3.09-13.45,1.71-2.34,8.45,3.81,16.83,1.85,7.19-1.67,8.49-7.63,15.51-7.76.39,0,4.7-.01,8.33,2.68,1.78,1.33,6.07,5.32,5.78,23.17Z"/>
      <path class="cls-5" d="M309.72,131.02c.42,2.72.85,5.44,1.27,8.16.73,1.54,1.46,3.08,2.19,4.61-1.37.9-2.75,1.81-4.12,2.71"/>
      <ellipse class="cls-19" cx="298.52" cy="134.31" rx="1.88" ry="2.78"/>
      <ellipse class="cls-19" cx="315.07" cy="136.71" rx="1.88" ry="2.78"/>
      <path class="cls-5" d="M294.85,151.87c-.02,1.34.94,2.58,2.16,3.14,1.22.56,2.65.53,3.95.18,1.3-.35,2.5-.99,3.68-1.63"/>
      <path class="cls-14" d="M270.22,134.34c1.14,2.11,1.06,4.36-.16,5.02-1.23.66-3.14-.52-4.27-2.64-1.14-2.11-1.06-4.36.16-5.02,1.23-.66,3.14.52,4.27,2.64Z"/>
      <path class="cls-9" d="M292.37,123.84c3.16-.88,6.52-1.04,9.76-.48"/>
      <path class="cls-9" d="M312.07,124.32c1.84-.57,3.65-.41,5.28.45"/>
      <g>
        <path class="cls-17" d="M319.39,142.83v.06c-.44,11.74-1.88,21.27-8.65,24.6-4.52,2.22-9.4.75-14.43-.76-5.99-1.81-10.92-4.8-14.89-8.03-3.32-4.75-3.24-17.04-3.24-17.04,0,0,24.16-3.22,32.8-2.46,7.95.69,8.38,3.22,8.4,3.64Z"/>
        <line class="cls-3" x1="274.2" y1="133.47" x2="279.1" y2="143.62"/>
        <path class="cls-3" d="M267.48,143.62c2.98,4.18,6.93,8.7,12.16,12.86,1.08.85,2.15,1.65,3.2,2.38"/>
      </g>
    </g>
  </g>
</svg>