<?xml version="1.0" encoding="UTF-8"?>
<svg id="Layer_13" data-name="Layer 13" xmlns="http://www.w3.org/2000/svg" viewBox="0 0 200 200">
  <defs>
    <style>
      .cls-1 {
        fill: #f4aa96;
      }

      .cls-2 {
        fill: #f4ab97;
      }

      .cls-3 {
        fill: #5c677a;
      }

      .cls-4 {
        fill: #c3c6c7;
      }

      .cls-5 {
        fill: #67758c;
      }

      .cls-6 {
        fill: #d0eee8;
      }

      .cls-7 {
        fill: #fedcd5;
      }

      .cls-8 {
        fill: #b9c1c7;
      }

      .cls-9 {
        fill: #a9bbc7;
      }

      .cls-10 {
        fill: #f8baae;
      }

      .cls-11 {
        fill: #c4ecee;
      }

      .cls-12 {
        fill: #657ec7;
      }

      .cls-13 {
        fill: #f4a995;
      }

      .cls-14 {
        fill: #333943;
      }

      .cls-15 {
        fill: #fecfc4;
      }

      .cls-16 {
        fill: #5572c7;
      }

      .cls-17 {
        fill: #d0723d;
      }

      .cls-18 {
        fill: #828c9d;
      }

      .cls-19 {
        fill: #b1eeee;
      }
    </style>
  </defs>
  <path class="cls-9" d="M163.37,2.7c.99.79,1.95,1.47,1.94,2.89v21.1c-2.15.61-4.63.01-6.2-1.55.54-6.17-.72-13.53,0-19.56.18-1.54.79-2.01,1.94-2.89h2.32Z"/>
  <path class="cls-10" d="M90.6,86.7c15.22,2.67,26.82,15.38,28.27,30.76v42.4s-.98.58-.98.58c-4.01-.77-7.87.77-10.69,3.63l-1.12.04c-1.17-1.31-.63-5.22.39-6.58l-.82-.39c-.27-1.84-1.19-3.66-2.9-4.52l-.15-.9c.55-9.52.54-19.04-.01-28.56-.41-2.67-4.04-2.79-4.62-.17v27.87s-.79.47-.79.47c-1.38.33-2.78.67-4.21.67-15.78-.04-31.54-.04-47.32,0-1.43,0-2.83-.33-4.21-.66l-.77-.36-.02-27.99c-1.17-3.38-5.08-1.9-4.75,1.45-.31,8.9-.27,17.77.12,26.61l-.38.68-.1.91c-2.21,1.27-2.6,4.04-2.61,6.37l-.77.46c-1.32,1.39-4.5.63-6.19,0l-.77-.27v-37.92c1.18-16.11,14.56-29.12,30.74-29.65l15.08-.13c6.36-.07,12.59-1.51,18.09-4.81h1.5Z"/>
  <path class="cls-15" d="M99.11,25.54c3.61,2.59,7.16,10.09,8.52,14.32.26.17.51.36.72.58,1.79,1.85,2.9,15.19,1.44,17.32-.17.25-.39.47-.62.69-1.67,11.3-8.93,22.23-18.58,28.26-12.69,7.92-22.22,4.81-35.82,5.79-15.4,1.11-27.64,13.5-28.84,28.84l.02,38.14c0,.22-.25.35-.77.39-1.11.87-4.25.77-5.42,0l-.02-41.63c.89-12.4,8.29-23.21,19.36-28.64l8.91-3.09c-1.73-1.36-3.67-2.28-5.02-4.06-5.66-5.42-7.96-13.59-8.39-21.24-1.08-18.88,10.01-35.61,27.75-41.47l.9.43c-.14,4.8,2.29,12.08,8.45,9.14,4.12-1.96,3.29-7.14,2.09-10.74l.55-.76,1.37-.6c8.33.79,17.24,2.36,23.41,8.34Z"/>
  <path class="cls-11" d="M106.47,157.54c.18,2.28-.31,4.35-.39,6.58.35,1.03-.29,1.94-1.94,2.71l.07,1.28c-2.58,5.72-5.78,10.99-9.6,15.8-.54,1.35-1.23,2.24-2.08,2.66-11.74,9.32-26.96,10.68-40.26,3.87l-.71-1c.1-2.62-.51-5.22-1.7-7.56-3.83-5.95-7.34-12.04-10.73-18.21-.15,4.93,1.07,9.82,2.88,14.38l-.19,1.55c-.54-.1-.97-.36-1.37-.72-.83-.75-5.07-8.83-5.9-10.54l-.08-1.51c-1.63-.77-2.28-1.67-1.94-2.71-1.27-1.88-1.4-3.43-.39-4.65,1.29-1.66,4.66-.14,6.27.9,1.08-2.07,3.18-3.37,5.48-3.61h62.1s.48.77.48.77Z"/>
  <path class="cls-15" d="M34.47,166.83c2.91,4.18,4.52,8.46,7.35,12.77,1.34-.19,3.2,2.87,3.91,4.15,1.03,1.33,1.15,2.27.35,2.82,1.36,8.97-8.63,14.92-15.61,8.84-1.37-1.19-2.66-3.38-3.94-4.58-2.25-2.12-5.47-3.77-7.93-5.81-5.39-5.69-2.14-15.12,4.31-18.54,3.33-1.77,8.74-2.58,11.56.35Z"/>
  <path class="cls-15" d="M120.02,185.02c-2.46,2.03-5.68,3.69-7.93,5.81-1.77,1.66-3.05,4.21-5.26,5.57-7.2,4.42-15.53-1.7-14.29-9.83.42-2.76,4.18-6.2,5.73-8.78,2.23-3.71,3.24-7.2,5.88-10.96,2.85-2.94,8.34-2.1,11.69-.3,6.41,3.45,9.53,12.83,4.18,18.49Z"/>
  <path class="cls-16" d="M177.69,42.96c.09.99-.03,2.08,0,3.1l-.59.81c-3.27-.47-11.44-.27-6.5,4.39,2.14.33,4.29.39,6.48.17l.61.82c.02,2.06-.01,4.13,0,6.19l-.59.81c-3.27-.47-11.44-.27-6.5,4.39,2.14.33,4.29.39,6.48.17l.61.82c0,2.06,0,4.13,0,6.19l-.11.53c-2.22.12-4.51.26-6.86.42l-2.32,2.15c0,1.13-1.29,1.08-1.55,0-.08.3-.21.74-.45.77-1.09.16-7.3.19-8.27,0l-.56-.77c-.31,1.23-4.22,1.18-4.65,0l-.78-1.54c-.46-8.07-.93-18.56.02-26.47.26-2.21,1.32-3.52,3.6-3.74h21.48s.46.78.46.78Z"/>
  <path class="cls-7" d="M62.34,19.73c.21,1-.48.79-1.06,1.05-7.01,3.14-12.21,6.28-17.12,12.32-11.2,13.74-12,35.09-1.17,49.34-7.05-5.49-12.27-15.13-13.55-24-.23-.21-.44-.44-.61-.69-1.39-2.06-.27-15.52,1.45-17.31.21-.22.46-.4.72-.58,4.21-13.26,13.89-21.64,26.72-26.14.62-.22,1.37.08,1.15-.96,2.08.05,4.67,5.27,3.48,6.97Z"/>
  <path class="cls-12" d="M156.02,36.77c3.64-1.34,8.75-1.34,12.39,0,4.94.14,8.75.08,9.29,6.19h-21.88c-2.07.23-2.73,1.28-2.91,3.27-.76,8.35.02,19.07.02,27.7-.64,1.27-5.44,1.21-6.19,0,0-10.74-.08-21.49.09-32.23,1.42-5.12,4.81-4.81,9.2-4.93Z"/>
  <path class="cls-18" d="M146.72,98.7c1.21-1.34,4.88-1.19,6.19,0,1.39-1.12,3.23-1.11,4.65,0,3.11-.99,6.18-.99,9.29,0l1.17-.77c1.66-.2,7.18-.41,8.55-.07.47.12.82.48,1.12.84,3.55.29,6.2,2.45,6.19,6.19l-.36.77-31.48.03c-2.44.38-4.38,2.48-4.55,4.95l-.78.44c-8.33-.68-8.33-11.71,0-12.39Z"/>
  <path class="cls-17" d="M70.86,11.99c1.88.43,4.5,4.23,3.48,5.81,1.07,2.91,1.96,7.3.17,10.05-2.97,4.56-10.42,3.11-11.31-2.2-.37-2.19-.25-3.51-.87-5.91-.83-3.2-1.43-4.43-3.48-6.97-2.36-2.91-5.08-4.45-7.74-6.97h8.32c3.19,0,9.28,3.79,11.42,6.19Z"/>
  <path class="cls-7" d="M25.18,159.86c2.99-.47,6.59,1.12,7.35,4.26.76.84,1.3,1.79,1.94,2.71-11.73-4.91-22.18,7.2-15.87,18.19-4.29-3.55-8.43-7.74-8.14-13.76.25-5.22,4.22-10.16,9.3-11.41,1.87-.46,3.53-.34,5.42,0Z"/>
  <path class="cls-7" d="M118.85,159.86c3.69.91,6.93,3.84,8.32,7.36,3.07,7.77-1.52,13.14-7.16,17.8,6.3-11.08-4.09-23.05-15.87-18.19.64-.91,1.17-1.88,1.94-2.71,3.37-3.66,7.77-5.49,12.77-4.26Z"/>
  <path class="cls-4" d="M157.56,129.67c2.91-1.23,6.38-1.23,9.29,0,4.65.11,10.84-.52,10.84,6.19-1.35,1-3.16,1.3-5.43.9l-9.69-.38c-4.34.01-8.18.31-8.88,5.25l-.77.42c-8.42-.68-7.95-11.6-.58-12.39,1.61-.17,3.55.04,5.23,0Z"/>
  <path class="cls-5" d="M183.89,104.89c0,8.3-11.37,6.14-17.03,6.19-3.11.99-6.18.99-9.29,0-3.48-.03-7.44.28-10.84,0-.09-3.02,2.29-5.75,5.26-6.16l31.9-.03Z"/>
  <path class="cls-10" d="M30.98,39.86c-1.9,5.98-2.45,12.34-1.55,18.58-8.28,1.78-16.34-6.38-11.32-14.22,3.04-4.76,7.81-4.57,12.87-4.36Z"/>
  <path class="cls-10" d="M109.18,58.44c.97-6.54.47-12.3-1.55-18.58,5.06-.21,9.82-.4,12.87,4.36,5.02,7.85-3.04,16-11.32,14.22Z"/>
  <path class="cls-8" d="M168.4,73.93c1.46,1.4,2.18,2.1,2.18,2.1,2.14.34,4.31.39,6.51.17l.6.82v6.19l-.59.81c-3.27-.47-11.44-.27-6.5,4.39,2.14.33,4.29.39,6.48.17l.61.82v9.29c-3.4-.28-7.35.03-10.84,0l-.77-.36v-23.94l.77-.47h1.55Z"/>
  <path class="cls-4" d="M152.92,73.93l.77.36v23.94l-.77.47c-2.01.03-4.23-.16-6.19,0v-24.77h6.19Z"/>
  <path class="cls-19" d="M41.82,179.6c-2.37-5.42-3.77-11.27-3.49-17.22-.05-.34.72-.23.77-.19.22.19,2.55,4.33,2.92,5.02,2.62,4.84,4.02,7.31,7.09,11.88,2.35,3.5,3.54,7.07,3.16,11.35-2.2-1.13-4.3-2.27-6.19-3.87-.33-2.18-2.98-5.03-4.26-6.97Z"/>
  <path class="cls-8" d="M177.69,135.86c0,2.87-2.05,5.62-4.93,6.1-4.03.68-15.49.45-19.84.09-.12-2.83,2.16-5.63,4.93-6.1,5.86-.98,13.76.54,19.84-.09Z"/>
  <path class="cls-8" d="M159.11,25.15c2.06.51,4.15.99,6.19,1.55.58.16,3,.55,3.11,1.03l-.02,9.04c-4.03-.11-8.36-.11-12.39,0v-12.39c1.04.2,2.07.52,3.1.77Z"/>
  <path class="cls-8" d="M166.85,117.28v12.39c-3.07-.07-6.22-.07-9.29,0v-12.39c.08-.3.2-.73.45-.77,1.09-.17,7.23-.18,8.27,0l.56.77Z"/>
  <path class="cls-7" d="M99.11,25.54c-3.1-2.23-9.17-4.92-12.87-5.91-3.96-1.05-7.88-1.26-11.91-1.83-.66-1.79-2.21-4.38-3.48-5.81,10.64.48,21.63,5.19,28.26,13.55Z"/>
  <path class="cls-9" d="M166.85,111.09v6.19h-9.29v-6.19c3.09.03,6.2.03,9.29,0Z"/>
  <path class="cls-14" d="M177.69,46.06c.07,2.05-.02,4.14,0,6.19-2.86-.34-9.13,1.44-9.32-2.91-.2-4.79,6.43-2.95,9.32-3.28Z"/>
  <path class="cls-14" d="M177.69,70.83v6.19c-2.9-.36-9.29,1.51-9.29-3.1s6.39-2.74,9.29-3.1Z"/>
  <path class="cls-14" d="M177.69,58.44c.01,2.06,0,4.13,0,6.19-2.86-.34-9.13,1.44-9.32-2.91-.2-4.79,6.43-2.95,9.32-3.28Z"/>
  <path class="cls-14" d="M177.69,83.22v6.19c-2.86-.34-9.13,1.44-9.32-2.91-.2-4.79,6.43-2.95,9.32-3.28Z"/>
  <path class="cls-6" d="M41.44,151.34c18.06-.52,37.68-.49,55.74,0,.71-1.28,5.17-1.24,5.42.39,2.41.86,3.68,3.41,3.87,5.81h-62.52c-2.37.21-4.72,1.93-5.23,4.26-2.23-2.2-3.66-2.18-6.58-2.32-.06-2.84.43-6.46,3.48-7.74-.07-1.64,5.33-1.68,5.81-.39Z"/>
  <path class="cls-13" d="M97.18,151.34l.02-28.43c.54-3.43,5.72-3.57,6.18.36.83,7.21.25,19.53,0,27.12-.02.75.39,1.55-.77,1.34-1.74-.62-3.6-.34-5.42-.39Z"/>
  <path class="cls-13" d="M41.44,151.34c-1.65.05-4.34-.23-5.81.39-.64-.4-.39-1.47-.39-2.12-.1-7.72-.85-19.02,0-26.34.45-3.93,5.64-3.79,6.18-.36l.02,28.43Z"/>
  <path class="cls-1" d="M68.43,135.94c4.54-.99,5.32,5.26,1.76,6.04-4.54.99-5.32-5.26-1.76-6.04Z"/>
  <path class="cls-2" d="M25.95,159.47c1.86-.14,4.31-.09,6.19,0,.03,1.63.42,3.04.39,4.65-2.13-2.36-4.16-3.69-7.35-4.26.1-.38.45-.36.77-.39Z"/>
  <path class="cls-10" d="M59.52,73.62c2.87-.66,3.65,1.5,5.83,2.52,2.67,1.25,5.87,1.21,8.49-.2,1.02-.55,2.04-2.02,3.11-2.31,4.23-1.13,5.52,3.45,2,6.26-4.04,3.22-9.61,4.13-14.5,2.57-1.53-.49-5.62-2.72-6.39-4.06-.89-1.57-.53-4.32,1.46-4.78Z"/>
  <path class="cls-3" d="M80.81,46.14c1.37-.31,9.69-.31,11.06,0,3.04.68,3.02,5.57-.33,6.09-1.64.26-9.22.28-10.73-.06-2.97-.66-2.97-5.36,0-6.03Z"/>
  <path class="cls-3" d="M46.74,46.14c1.37-.31,9.69-.31,11.06,0,3.04.68,3.02,5.57-.33,6.09-1.64.26-9.22.28-10.73-.06-2.97-.66-2.97-5.37,0-6.03Z"/>
  <path class="cls-9" d="M166.85,73.93v24.77c-3.09-.03-6.2-.03-9.29,0-.31-.03-.77-.14-.77-.36-.24-6.74-.18-14.19,0-20.96-.29-1.72-.03-2.87.77-3.45h9.29Z"/>
  <path class="cls-8" d="M157.56,73.93v24.77c-1.54.01-3.1-.03-4.65,0v-24.77h4.65Z"/>
</svg>