<?xml version="1.0" encoding="UTF-8"?>
<svg id="Layer_13" data-name="Layer 13" xmlns="http://www.w3.org/2000/svg" viewBox="0 0 200 200">
  <defs>
    <style>
      .cls-1 {
        fill: #7586b2;
      }

      .cls-2 {
        fill: #0c4666;
      }

      .cls-3 {
        fill: #f5e496;
      }

      .cls-4 {
        fill: #045f9b;
      }

      .cls-5 {
        fill: #4fdafe;
      }

      .cls-6 {
        fill: #dc1c4b;
      }

      .cls-7 {
        fill: #0a4566;
      }

      .cls-8 {
        fill: #fdab4f;
      }

      .cls-9 {
        fill: #feb25c;
      }

      .cls-10 {
        fill: #636da3;
      }

      .cls-11 {
        fill: #c3f2fe;
      }

      .cls-12 {
        fill: #89e6fe;
      }

      .cls-13 {
        fill: #d58029;
      }

      .cls-14 {
        fill: #eed56a;
      }

      .cls-15 {
        fill: #0b4566;
      }

      .cls-16 {
        fill: #8ae6fe;
      }

      .cls-17 {
        fill: #fecf6a;
      }

      .cls-18 {
        fill: #0b4666;
      }

      .cls-19 {
        fill: #14cefe;
      }

      .cls-20 {
        fill: #ae1e4b;
      }

      .cls-21 {
        fill: #524cb1;
      }

      .cls-22 {
        fill: #fed098;
      }
    </style>
  </defs>
  <g>
    <path class="cls-7" d="M98.49,79.23c1.15,15.62,1.13,31.28,0,46.9,1.29.23,1.23,3.77,0,4.11l.82.77v36.58l-.82.5c-1.76.52-3.56.86-5.39,1.01-22.71.41-45.43.31-68.14.15-.91,0-1.81-.12-2.72-.25s-1.82-.31-2.73-.51l-.82-.39V36.18c.47-3.48,1.55-5.65,5.35-5.9,22.83-.19,45.68.15,68.51-.02,3.33.14,5.6,2.27,5.95,5.57.02,14.47-.03,28.94,0,43.4Z"/>
    <path class="cls-22" d="M131.4,49.61c1.09,4.5,1.11,9.08,0,13.58,1.26,3.02,1.19,6.83,0,9.87l-.6.67-9.19-2.83c13.5-6.1,33.71-7.43,31.09,1.48l24.56,7.21c4.97,3.48-10,16.27-7.37,7.45-9.53-3.11-19.02-6.34-28.48-9.67l-.14-1.03c14.08-1.31,10.18-16.8,24.29-16.37-.59-3.42,6.41.64,18.02,4.95,2.67,1.11,6.14,2.17,8.7,3.6l.55.62c-13.48,36.8-27.01,73.58-40.6,110.32-1.62,4.59-4.03,6.93-9.12,6.09l-44.45-16.53-.18-.94v-37.85c.15-.28.43-.69.65-.63,1.12.33,8.87,3.33,9.39,3.76l.25.99c.41,1.56.11,3.34-.9,5.34l27.9,11.4.15.95c-.07,2.7-.81,5.41-2.2,8.13l4.36,1.98c1.86-4.59,3.84-9.11,5.95-13.56.41-.39,8.39,1.87,7.76,3.66l-1.66,4.64,4.66,1.83,5.88-15.82c-.08-.29-3.77-1.64-4.1-1.58l-2.04,4.37c-.91,1.16-7.78-1.8-8.08-2.42,1.53-4.86,3.23-9.62,5.12-14.28l-4.3-1.77c-1.07,2.89-2.52,5.41-4.36,7.55l-.67.61-28.04-11.61-1.98,4.2-.99.21-.65.63-10.16-4.05c-.57,1.02-1.22,1.47-1.95,1.37,0-15.63.03-31.27,0-46.9l10.79-29.32c1.34-3.95,3.74-5.34,7.89-4.79l14.23,4.49Z"/>
    <path class="cls-8" d="M192.29,68.54c3.03,1.7,3.59,4.5,2.58,7.73-13.89,35.71-25.64,72.34-39.71,107.98-1.75,4.44-2.76,9.66-8.96,8.76l-47.7-17.92v6.58H11.48c-2.95,0-6.1-5.36-5.14-8.23.24-4.36,3.33-5.42,7.1-5.79,1.62-.16,5.25-.4,6.07.86,26.29-.43,52.82.66,78.99-.41l44.82,16.68c5.38.99,7.05-2.28,8.56-6.7l40.42-109.53Z"/>
    <path class="cls-4" d="M24.03,30.28c-2.87,1.23-4.26,2.71-4.54,5.95l.02,132.28c-5.38.09-10.83-1.29-13.16,4.94l.04-138.4c.11-1.44,1.48-3.2,2.63-3.95,2.25-1.46,11.73-.79,15.02-.82Z"/>
    <path class="cls-13" d="M177.4,13.32c1.19,3.11,1.25,5.41.35,8.67l-11.4,24.96,15.06,5.54c-1.88,5.15-3.81,10.3-5.68,15.44l-.55.67-40.74-15.23c-1.35-.96-1.54-1.53-1.74-3.1-.22-1.79,3.47-11.09,4.49-13.2l.98-.49c2.96,1.06,5.92,2.2,8.88,3.27.75,2.01-.22,4.96-1.89,6.32l.72-.61c2.38.87,4.75,1.75,7.13,2.62l.26.97-.69-.59,7.72-27.14c1.65-5.23,6.4-9.36,11.96-9.7,1.86-.11,4.05-.14,5.15,1.6Z"/>
    <path class="cls-20" d="M174.59,71.03c-.29.77-.57,1.55-.85,2.32-1.24,3.34-2.46,6.7-3.69,10.04-13.36-4.96-26.8-9.8-40.16-14.77-.99-.4-2.95-1.23-3.72-1.58-2.79-1.25-3.6-1.37-4.59-2.58-.47-.57-.23-1.25.17-2.34,1.06-3.1,2.29-6.18,3.41-9.27l.55-.67c16.22,5.97,32.45,11.93,48.68,17.9l.19.95Z"/>
    <path class="cls-8" d="M177.4,13.32c-7.33-2.79-14.91,2.01-16.62,9.44l-7.52,26.39-8.11-2.98c.56-2.11,1.32-4.22,1.89-6.32,2.12-7.88,4.18-16.79,6.78-24.44,4.06-11.96,19.07-13.84,23.58-2.09Z"/>
    <path class="cls-8" d="M138.16,36.59c-.63,3.1-5.64,12.38-4.48,14.89.2.44.84.81,1.17,1.21l40.87,15.25c-.37,1.03-.75,2.06-1.14,3.09l-49.42-18.18c1.54-4.25,3.09-8.52,4.69-12.74.72-1.92,1.41-3.87,2.13-5.79,2.06.75,4.12,1.53,6.18,2.27Z"/>
    <path class="cls-3" d="M49.45,79.77c39.69-3.76,44.09,56.29,5.22,59.11-38.63,2.8-43.34-55.5-5.22-59.11Z"/>
    <rect class="cls-14" x="29.38" y="50.03" width="46.08" height="6.58"/>
    <rect class="cls-14" x="35.96" y="63.19" width="32.91" height="6.58"/>
    <path class="cls-22" d="M111.24,128.19c.68,1.64-.83,5.47-2.47,6.17l-10.28-4.11v-4.11l1.44-2.46,11.32,4.51Z"/>
    <path class="cls-22" d="M142.92,134.77c-1.2,6.12-3.58,12.06-6.99,17.28l-29.21-11.94c.89-1.82,1.36-3.94,2.06-5.75.73-1.91,1.66-4.33,2.47-6.17.41-.93,1.9-4.44,2.27-4.94.2-.27.36-.46.73-.35l28.68,11.87Z"/>
    <path class="cls-22" d="M142.92,134.77c1.2-2.89,2.56-5.79,3.9-8.63l5.97,2.46-5.75,14.37,6.74,2.52,2.28-5.2,5.75,1.9-6.56,17.67-6.16-2.48,2.05-5.73-6.74-2.52c-2.09,4.37-3.44,9.12-5.51,13.5-.2.41.13.68-.64.46-.64-.18-5.54-2.34-5.61-2.64,1.2-2.76,2.17-5.62,3.28-8.41,2.29-5.75,4.62-11.56,6.99-17.28Z"/>
    <path class="cls-7" d="M46.86,102.68h11.11c1.53,3.74,1.53,9.42,0,13.16h-11.11c-1.59-1.36-1.2-13.16,0-13.16Z"/>
    <path class="cls-7" d="M74.63,102.68c1.07,4.47,1.07,8.7,0,13.16h-9.46c.51-4.39.51-8.77,0-13.16h9.46Z"/>
    <path class="cls-7" d="M39.66,102.68c-.56,4.38-.56,8.78,0,13.16h-9.46c-1.07-4.47-1.07-8.7,0-13.16h9.46Z"/>
    <path class="cls-18" d="M71.34,122.43c-2.98,4.04-7.09,7.54-12.13,8.64l3.15-6.31.75-2.34h8.23Z"/>
    <path class="cls-15" d="M71.34,96.1h-8.23l-.75-2.34-3.15-6.31c5.06,1.07,9.1,4.66,12.13,8.64Z"/>
    <path class="cls-15" d="M33.49,96.1c3.01-3.99,7.12-7.51,12.13-8.64l-3.15,6.31-.75,2.34h-8.23Z"/>
    <path class="cls-15" d="M41.72,122.43l.75,2.34,3.15,6.31c-5.01-1.13-9.12-4.65-12.13-8.64h8.23Z"/>
    <path class="cls-2" d="M48.71,96.1c.41-.85,3.14-6.48,3.5-6.58.86-.24,1.09,1.96,1.77,2.35l2.14,4.24h-7.41Z"/>
    <path class="cls-2" d="M56.12,122.43c-.41.85-3.14,6.48-3.5,6.58-.86.24-1.09-1.96-1.77-2.35l-2.14-4.24h7.41Z"/>
    <path class="cls-3" d="M121.86,94.98c.02,1.06,3.03.59,3.05,1.65,3.19,0,3.35,1.53,6.54,1.54,3.16,2.1,27.71,8.73,28.58,9.97.81,1.15-8.25,23.43-8.64,26.74l-48.69-15.55,9.19-27.55,9.98,3.2Z"/>
    <path class="cls-6" d="M116.66,108.95c-.24-.51-1.53-3.44-1.43-3.6l5.81-2.79c.62,1.33,3.97,9.35,4.66,9.54l23.44-6.78,1.88,5.77c-.07.42-1.26.52-1.63.65l-1.42,1.03c-7.88,2.85-16.07,5.32-24.24,7.32-2.96.72-6.62-8.01-7.56-10.29l.48-.86Z"/>
    <path class="cls-14" d="M116.66,108.95c.78,1.67,3.95,8.29,4.77,9.3.47.58,1.56.84,2.26,1.08,8.56-2.49,17.27-4.74,25.71-7.58l1.2,3.99-27.34,8.02c-.47,0-.88-.14-1.3-.33-2.04-.89-5.43-10.63-7.13-12.87-.46-1.08.95-1.45,1.84-1.6Z"/>
  </g>
  <g>
    <path class="cls-11" d="M181.11,149.23c0,6.13,0,12.26,0,18.39h9.89c.79,0,2,1.48,2.1,2.36.29,2.32-1,3.58-3.21,3.78-3.53.33-8.2.01-11.85-.01-1.85.84-4.29.89-6.13,0l-.71.53-4.72-.28-.7-.52.56.26v14.73l-.56.33c2.05-.69,4.07-.69,6.13,0,1.83-.59,3.72-.74,5.6-.36-.43-.92-.53-6.27-.16-6.54.19-.14.45-.1.69-.06v6.97h6.55c.22,0,1.58.95,1.82,1.25,1.4,1.78.22,4.32-1.88,4.82-6.52.05-13.06.15-19.58.06-3.6-.07-3.88-5.8-.28-6.13.18-.09.76.2.85-.15v-15.17c-2.33-.02-4.66.03-6.98,0-2.84-.43-2.91-3.18-1.96-5.27l-3.05-.07-.56-.51c.29-.46,1.06-.28,1.53-.28,2.73-.03,5.5-.06,8.22,0l.59-.53c1.64.2,3.28.3,4.92.31l.62.5-.56-.26v-17.52l.56-.34c4.03-.06,8.02-.16,11.98-.28.08-.24.17-.24.28,0Z"/>
    <path class="cls-17" d="M167.46,109.66c2.56-.92,6.39-1.02,8.92,0,2.27.11,4.03.04,4.67,2.71l.06,24.87c-.08.24-.17.24-.28,0,0,.22-.05.55-.19.56-2.9.22-8.66.33-11.47,0l-.33-.56c-.55-8.52-.84-17.16-.4-25.56l.6-1.16-3.23-.07-.59-.51c.46-.5,1.53-.27,2.23-.28Z"/>
    <path class="cls-9" d="M165.23,109.94c1.65-.19,3.6.14,5.29,0-.81.79-1.62,1.37-1.68,2.64.01,8.22,0,16.45,0,24.66-.03.22-.09.54-.25.56-.51.07-5.18.09-5.49,0l-.4-.56c.02-7.35-.79-17.38,0-24.38.18-1.59.88-2.74,2.51-2.93Z"/>
    <path class="cls-12" d="M168.85,149.23c0-.22.05-.55.19-.56,3.56-.17,7.9-.17,11.47,0l.33.56c-.25.3-.59.28-.94.3-3.66.18-7.38-.18-11.04-.02v18.11c-2.03.26-4.2-.23-6.13-.28v-18.11c.03-.22.09-.53.25-.56.59-.09,4.99-.11,5.49,0l.4.56Z"/>
    <path class="cls-12" d="M178.05,173.75c-.06,2.69.08,5.4,0,8.08,0,.04-.28.31-.29.67-.07,2.09.08,4.2.01,6.29-1.95,0-3.91,0-5.85,0l-.56-.26v-14.45l.56-.34c2.04.05,4.09-.01,6.13,0Z"/>
    <path class="cls-5" d="M170.53,91.28c.31-.92,2.75-.92,3.06,0,.82.11,1.41.47,1.61,1.31l.62,10.95c-.03.22-.1.54-.25.56-.91.09-6.56.17-7.14,0l-.41-.56c.33-3.32.22-7.85.89-10.95.18-.84.81-1.2,1.61-1.31Z"/>
    <path class="cls-1" d="M173.59,91.28c-.7-.09-2.37-.09-3.06,0v-23.27c.18-2.35,2.89-2.35,3.07,0v23.27Z"/>
    <path class="cls-1" d="M181.11,149.23h-12.26c-.22-.06-.54-.15-.56-.31-.12-1.19-.12-3.96,0-5.15l.56-.39c3.78-.55,7.59-.74,11.42-.58v-5.16s.56-.4.56-.4h.28c0,3.99,0,7.99,0,11.98Z"/>
    <path class="cls-19" d="M175.82,103.53c.44,1.88.51,4.14.56,6.13-2.88-.13-6.01-.02-8.92,0,.03-1.79.09-3.68.27-5.46.04-.36.29-.62.29-.67h7.8Z"/>
    <path class="cls-21" d="M168.85,137.25c.22.03.54.09.56.25.07.51.09,5.18,0,5.49l-.56.4c-.79.87-4.61.8-5.68.39l-.45-.67c0-1.95,0-3.9,0-5.85h6.13Z"/>
    <path class="cls-16" d="M164.68,188.79c-2.79,1.42-2.62,4.92.28,6.13-2.86-.04-8.4,1.03-8.38-3.21.02-4.02,5.51-2.76,8.1-2.92Z"/>
    <path class="cls-10" d="M168.85,143.38v5.85h-6.13c0-2.04,0-4.09,0-6.13,1.9.51,4.13.27,6.13.28Z"/>
    <path class="cls-16" d="M152.97,167.62c1.64-.2,3.61.14,5.29,0-.34.53-.75.49-1.17,1.19-1.22,2.04-.27,3.44,1.45,4.66-1.61-.02-5.3.31-6.51-.31-2.5-1.28-1.96-5.19.94-5.54Z"/>
    <path class="cls-5" d="M171.92,173.75v15.05c-2.04,0-4.09,0-6.13,0v-15.32c2.06-.15,4.08.23,6.13.28Z"/>
    <path class="cls-10" d="M180.84,137.25v6.13c-3.99-.01-7.99.01-11.98,0v-6.13h11.98Z"/>
  </g>
</svg>