<?xml version="1.0" encoding="UTF-8"?>
<svg id="Layer_8" data-name="Layer 8" xmlns="http://www.w3.org/2000/svg" viewBox="0 0 200 200">
  <defs>
    <style>
      .cls-1 {
        fill: #c0cee7;
      }

      .cls-2 {
        fill: #004080;
      }

      .cls-3 {
        fill: #5c6979;
      }

      .cls-4 {
        fill: #e9f0f6;
      }

      .cls-5 {
        fill: #ecf3f9;
      }

      .cls-6 {
        fill: #e0ebf6;
      }

      .cls-7 {
        fill: #94a8d0;
      }

      .cls-8 {
        fill: #393d48;
      }

      .cls-9 {
        fill: #d5dfea;
      }

      .cls-10 {
        fill: #a7b6d3;
      }

      .cls-11 {
        fill: #006fda;
      }
    </style>
  </defs>
  <path class="cls-5" d="M139.06,137.96c-.38,18.4,4.1,38.51-14.81,49.3-16.77,9.57-38.47.7-43.31-17.97-3.73-14.38,4.81-33.47-10.64-42.94-14.34-8.79-32.15,1.73-31.75,18.26-.43,1.06-3.04.33-3.14-.74-.35,1.23-4.97,1.13-5.54,0,.05,1.11-2.63,1.7-3.14.74-.37-4.81.3-9.18,1.85-13.67l.73.37c.28,3.49,4.46,4.02,5.67.92,3.12-16.09,20.99-18.91,34.42-13.64,17.76,6.97,17.94,23.51,17.11,39.8-1.01,16.93,14.05,30.51,30.7,24.78,16.5-5.68,16.06-21.19,14.92-35.83.02-1.8.15-3.6.54-5.36.33-1.5,1.56-2.93,2.83-3.73.95-.6,3.17-1.69,3.58-.28Z"/>
  <path class="cls-9" d="M127.23,132.05c.15-1.13,2.71-1.08,2.96,0,.08-.29.2-.71.43-.74.9-.11,7.3-.17,7.9,0l.54.74c-.19,1.81.04,4.02,0,5.91-2.59-.11-5.23,1.93-5.75,4.41-1.2,5.7.34,15-.17,21.26-1.69,20.72-27.54,29.16-41.39,13.32-13.66-15.62,3.05-37.83-15.32-53.42-10.52-8.93-33.64-10.14-39.54,4.82-.84,2.13-.81,5.09-3.01,6.23-2.66,1.38-5.5-.75-5.31-3.65,8.92-25.83,49.54-26.75,60.55-2.35,6.16,13.65-1.82,33.46,6.72,43.91,10.47,12.82,30.14,6.27,31.41-9.95.57-7.32.83-23.43-.01-30.5Z"/>
  <path class="cls-11" d="M97.67,10.84c1.98,1.59.65,6.08-2.13,6.45-8.54-.23-15.49,4.56-14.84,13.9l13.13,47.01-.59.63c-2.36.92-4.66.91-7.02,0-3.72-13.42-9.07-29.05-11.65-42.48-1.62-8.43-.43-17.02,6.95-22.27,5.22-3.72,10.1-3.24,16.16-3.24Z"/>
  <path class="cls-11" d="M180.08,78.84c-2.36.91-4.66.92-7.02,0l-.64-.45,13.18-47.21c.72-9.11-6.27-14.19-14.68-13.86-2.9-.28-4.31-4.82-2.3-6.49,6.06,0,10.94-.48,16.16,3.24,7.38,5.25,8.57,13.84,6.95,22.27-2.58,13.42-7.94,29.06-11.65,42.48Z"/>
  <path class="cls-2" d="M103.58,10.84l.68.72.04,5.58-.72.72c.74,1.38,1.28,3.74,0,4.8-12.38.06-20.11-2.49-17.2,13.32,2.41,13.05,7.95,29.37,11.65,42.48-.06,1.59-3.9,1.65-4.43.37-.07.33-.19.32-.37,0l-13.26-47.52c-.66-6.12,2.98-12.08,8.91-13.92,4.93-1.53,9.83,1.45,8.79-6.55,1.97,0,3.95,0,5.91,0Z"/>
  <path class="cls-2" d="M168.62,10.84c-1.05,7.99,3.86,5.02,8.79,6.55,5.93,1.84,9.57,7.81,8.91,13.92l-13.26,47.52c-.07.33-.19.32-.37,0-.54,1.27-4.37,1.22-4.43-.37,3.7-13.12,9.24-29.43,11.65-42.48,2.92-15.8-4.82-13.26-17.2-13.32-1.28-1.06-.74-3.42,0-4.8l-.72-.72.04-5.58.68-.72h5.91Z"/>
  <path class="cls-1" d="M38.54,144.62c27.1,6.7,21.45,47.96-7.22,46.58-26.73-1.29-30.58-40.16-4.6-46.58.64-.16,2.75-.74,3.14-.74h5.54c.39,0,2.5.58,3.14.74Z"/>
  <path class="cls-9" d="M180.08,78.84c-5.97,21.55-6.36,40.65-34,41.39l-.03-.88c1.56-1.16,1.57-3,0-4.16l.03-.88,1.04-.84c11.61-1.18,19.04-10.15,21.3-21.24l3.11-12.05c.27-.55.66-.99,1.16-1.34.12,0,.25,0,.37,0,2.34,0,4.69,0,7.02,0Z"/>
  <path class="cls-9" d="M93.24,78.84c.12,0,.25,0,.37,0,.51.37.9.83,1.17,1.39l3.21,12.34c2.29,10.95,9.73,19.76,21.19,20.9l1.04.84.03.88c-1.56,1.16-1.56,3,0,4.16l-.03.88c-27.63-.74-28.03-19.85-34-41.39,2.34,0,4.69,0,7.02,0Z"/>
  <path class="cls-10" d="M123.17,108.4l.03.88c-1.56,1.16-1.57,3,0,4.16l-.03.88c-.54,1.08-2.46,1.14-2.96,0-10.01-.74-17.72-6.63-21.16-15.98-2.26-6.13-3.58-13.19-5.44-19.5,1.4,0,3.33.31,4.43-.37,4.71,16.69,4.28,29.39,25.13,29.93Z"/>
  <path class="cls-10" d="M172.69,78.84c-1.91,6.36-3.2,13.61-5.54,19.78-3.48,9.18-11.24,14.97-21.07,15.7-.5,1.14-2.42,1.08-2.96,0l-.03-.88c1.56-1.16,1.56-3,0-4.16l.03-.88c20.8-.54,20.42-13.26,25.13-29.93,1.1.68,3.04.36,4.43.37Z"/>
  <path class="cls-3" d="M121.32,15.28c-.22,3.15-1.99,4.45-4.91,5.13-1.45.34-9.27.44-10.54,0-1.62-.56-1.96-.72-2.29-2.55-.04-2.15-.21-4.96,0-7.02.14-1.36.63-2.55,2.11-2.88s9.67-.28,11.22.08c3.8.88,4.26,4.01,4.41,7.23Z"/>
  <path class="cls-3" d="M162.71,10.84c.21,2.06.04,4.87,0,7.02-.33,1.83-.67,1.99-2.29,2.55-1.36.47-8.91.32-10.53,0-2.68-.53-4.52-1.98-4.92-4.76.13-3.26.48-6.69,4.41-7.6,1.55-.36,9.7-.42,11.22-.08s1.97,1.51,2.11,2.88Z"/>
  <path class="cls-6" d="M123.17,114.31c.38-.18.76-.34,1.16-.46s.77-.21,1.16-.22c5.08-.07,10.24-.07,15.33,0,.39,0,.77.1,1.16.22s.78.28,1.16.46c.98-.03,1.98.07,2.96,0,2.52,1.6,2.52,4.32,0,5.91-1.35.04-2.71-.02-4.06,0-5.82,1.19-11.92,1.19-17.74,0-1.35-.02-2.71.04-4.06,0-2.52-1.59-2.52-4.32,0-5.91.97.07,1.98-.03,2.96,0Z"/>
  <path class="cls-7" d="M143.12,108.4c2.52,1.59,2.52,4.32,0,5.91-6.44.2-13.52.2-19.96,0-2.52-1.6-2.52-4.32,0-5.91,6.5.17,13.46.17,19.96,0Z"/>
  <path class="cls-8" d="M162.71,17.86c-.03,1.54.15,3.32,0,4.8s-.76,2.67-2.42,2.93c-1.99.31-7.86.25-9.96.02-5.61-.6-5.54-5.59-5.36-9.98,1.46,1.93,2.35,3.67,5.02,4.03,1.98.27,8.37.31,10.29.01,1.25-.2,1.69-.94,2.42-1.83Z"/>
  <path class="cls-8" d="M103.58,22.67c-.15-1.49.03-3.26,0-4.8.74.89,1.17,1.63,2.42,1.83,1.92.3,8.31.26,10.29-.01,2.57-.35,4.04-2.2,5.02-4.4.2,4.44.33,9.74-5.36,10.35-2.1.22-7.96.29-9.96-.02-1.67-.26-2.26-1.38-2.42-2.93Z"/>
  <path class="cls-2" d="M142.02,120.23c0,1.05-.48,1.98-.74,2.96l-.74.67c-5.42-.7-10.54.91-9.69,7.36l-.65.84h-2.96c-.43-3.6-2.63-8.04-2.96-11.83,5.89.08,11.85.08,17.74,0Z"/>
  <path class="cls-11" d="M141.28,123.18c-.67,2.48-1.97,6.48-2.22,8.87h-8.87c-1.03-8.12,4.12-9.62,11.09-8.87Z"/>
  <path class="cls-4" d="M30.34,146.94c25.91-2.75,31.7,35.16,7.11,40.74-28.62,6.49-35.43-37.73-7.11-40.74Z"/>
  <path class="cls-1" d="M30.7,152.85c20.25-2.35,22.48,28.01,3.22,29.45-19.41,1.45-21.68-27.31-3.22-29.45Z"/>
  <path class="cls-11" d="M44.09,164.94c-.15,5.53-6.34,9.19-11.46,9.19-5.12,0-11.3-3.66-11.45-9.19,2.73-12.14,20.19-12.14,22.91,0Z"/>
  <path class="cls-2" d="M44.09,164.94c4.21,18.76-27.12,18.76-22.91,0,4.03,11.26,18.87,11.28,22.91,0Z"/>
</svg>