<?xml version="1.0" encoding="UTF-8"?>
<svg xmlns="http://www.w3.org/2000/svg" viewBox="0 0 800 600">
  <defs>
    <style>
      .cls-1, .cls-2, .cls-3, .cls-4, .cls-5, .cls-6, .cls-7, .cls-8, .cls-9, .cls-10 {
        mix-blend-mode: multiply;
      }

      .cls-1, .cls-11 {
        fill: #8d1827;
      }

      .cls-1, .cls-9, .cls-12, .cls-13 {
        opacity: .5;
      }

      .cls-14, .cls-2 {
        fill: #d5effb;
      }

      .cls-15 {
        fill: #e3f5fa;
      }

      .cls-16 {
        fill: #d83349;
      }

      .cls-17 {
        fill: #9fb8c6;
      }

      .cls-3 {
        fill: #8d2530;
      }

      .cls-3, .cls-4, .cls-5, .cls-7 {
        opacity: .4;
      }

      .cls-18 {
        fill: #d22f47;
      }

      .cls-4, .cls-9, .cls-19, .cls-20 {
        fill: #aa333e;
      }

      .cls-21 {
        fill: #8ca4b1;
      }

      .cls-22, .cls-23, .cls-13 {
        fill: #fff;
      }

      .cls-24, .cls-25, .cls-10 {
        fill: #edecec;
      }

      .cls-5, .cls-12 {
        fill: #f3a196;
      }

      .cls-26 {
        fill: #12234a;
      }

      .cls-27, .cls-8 {
        fill: #bad7e6;
      }

      .cls-28 {
        fill: #ff7183;
      }

      .cls-29 {
        fill: #ee7d86;
      }

      .cls-30 {
        fill: #e2e2e2;
      }

      .cls-31 {
        fill: #ed2250;
      }

      .cls-32 {
        fill: #dedfe1;
      }

      .cls-33 {
        fill: #ffedf2;
      }

      .cls-34 {
        fill: #9f1d24;
      }

      .cls-35 {
        fill: #0085c9;
      }

      .cls-36 {
        isolation: isolate;
      }

      .cls-6 {
        opacity: .9;
      }

      .cls-6, .cls-37 {
        fill: #f5c3a5;
      }

      .cls-25, .cls-38, .cls-20, .cls-12, .cls-13 {
        mix-blend-mode: screen;
      }

      .cls-39 {
        fill: #2879c6;
      }

      .cls-38 {
        opacity: .6;
      }

      .cls-7 {
        fill: #d37057;
      }

      .cls-40 {
        fill: #96989b;
      }

      .cls-41 {
        fill: #dfeff5;
      }

      .cls-23 {
        stroke: #bfc1c3;
        stroke-linecap: round;
        stroke-linejoin: round;
        stroke-width: 1.57px;
      }

      .cls-42 {
        fill: #721623;
      }

      .cls-43 {
        fill: #8e454f;
      }

      .cls-44 {
        fill: #e41d3c;
      }

      .cls-45 {
        fill: #c6c7c9;
      }

      .cls-46 {
        fill: #569adc;
      }

      .cls-47 {
        fill: #4e9ad3;
      }

      .cls-48 {
        fill: #84c6ef;
      }

      .cls-49 {
        fill: #ebecec;
      }

      .cls-50 {
        fill: #ef3952;
      }

      .cls-51 {
        fill: #114a84;
      }

      .cls-52 {
        fill: #f55075;
      }

      .cls-53 {
        fill: #b72026;
      }

      .cls-54 {
        fill: #b60943;
      }

      .cls-55 {
        fill: #a05727;
      }

      .cls-56 {
        fill: #9c2242;
      }
    </style>
  </defs>
  <g class="cls-36">
    <g id="Layer_8" data-name="Layer 8">
      <g>
        <path class="cls-41" d="M734.17,216.73c-38.28-147.44-160.21-148.86-255.47-154.97-58.78-3.77-117.65-2.67-176.45-.75-95.01,3.1-197.9,16.6-245.59,147.28-30.02,82.25-24.31,187.92,13.89,263.05,38.84,76.39,137.5,89.75,200.1,92.64,93.68,4.33,188.15-4.67,281.28-13.77,53.67-5.25,116.19-12.69,155.06-70.55,47.3-70.42,49.57-176.74,27.19-262.92Z"/>
        <g>
          <g>
            <path class="cls-47" d="M441,182.55h254.54c10.86,0,19.67,8.81,19.67,19.67v354.59c0,10.86-8.81,19.67-19.67,19.67h-254.54c-10.86,0-19.67-8.82-19.67-19.67V202.22c0-10.86,8.82-19.67,19.67-19.67Z"/>
            <path class="cls-35" d="M695.53,182.55h-3.53c.54,3.33,1.02,6.66,1.39,10.01,3.92,35.26-1.09,70.96-7.22,105.67-3.19,18.08-6.82,36.07-10.07,54.13-3.2,17.72-5.55,35.48-7.84,53.33-2.59,20.17-5.09,40.35-6.94,60.6-.79,8.62-1.61,17.29-1.93,25.94-.23,6.28-.25,12.57-.78,18.83-.8,9.44-2.33,21.22-11.25,26.56-3.95,2.36-8.51,3.77-12.93,4.96-14.22,3.8-29.12,5.31-43.75,6.5-19.75,1.61-39.59,2.18-59.4,2.18-21.25,0-42.5-.68-63.7-2.13-15.45-1.05-30.9-2.49-46.25-4.64v12.31c0,10.86,8.81,19.67,19.67,19.67h254.54c10.87,0,19.67-8.81,19.67-19.67V202.22c0-10.86-8.81-19.67-19.67-19.67Z"/>
            <rect class="cls-41" x="445.17" y="215.48" width="253.6" height="337.64"/>
            <rect class="cls-15" x="443.96" y="211.8" width="253.6" height="337.64"/>
            <rect class="cls-22" x="441.47" y="208.88" width="253.6" height="337.64"/>
          </g>
          <g>
            <rect class="cls-48" x="517.55" y="248.21" width="109.24" height="18.21"/>
            <rect class="cls-48" x="548.62" y="309.55" width="120.19" height="5.45"/>
            <rect class="cls-48" x="548.62" y="288.89" width="120.19" height="5.45"/>
            <rect class="cls-48" x="548.62" y="330.29" width="120.19" height="5.45"/>
            <rect class="cls-48" x="548.62" y="351.03" width="62.26" height="5.45"/>
            <rect class="cls-48" x="467.87" y="377.7" width="200.94" height="5.45"/>
            <rect class="cls-48" x="467.87" y="398.44" width="200.94" height="5.45"/>
            <rect class="cls-48" x="467.87" y="419.18" width="104.09" height="5.45"/>
            <rect class="cls-48" x="467.87" y="453.11" width="27.01" height="5.45"/>
            <rect class="cls-30" x="467.87" y="484" width="54.03" height="16.05"/>
            <rect class="cls-48" x="608.71" y="453.11" width="27.01" height="5.45"/>
            <rect class="cls-30" x="608.71" y="484" width="54.03" height="16.05"/>
            <g>
              <path class="cls-50" d="M497.07,286.88c-1.1,4.61-6.12,14-10.94,20.18-4.82,6.18-11.65,17.37-8.57,30.91s14.33,19.13,25.05,18.25c10.72-.88,21.7-10.74,22.64-24.58s-3.48-24.14-11.52-35.91c-3.54-5.19-9.1-12.2-12.14-15.97-.88-1.09-2.64-.7-2.96.67-.44,1.83-1.01,4.19-1.55,6.46Z"/>
              <path class="cls-28" d="M502.55,294.96c-1.08,7.29,3.31,17.32,8.6,20.07,5.29,2.75,5.53-6.95,2.07-12.33-3.46-5.38-9.98-12.4-10.67-7.73Z"/>
            </g>
          </g>
          <path class="cls-35" d="M682.39,175.45h-18.58v18.95c0,1.16-.94,2.11-2.11,2.11h-175.36c-1.16,0-2.11-.94-2.11-2.11v-18.95h-18.58c-2.29,0-4.14,1.85-4.14,4.14v25.86c0,8.92,7.23,16.15,16.15,16.15h192.72c8.92,0,16.15-7.23,16.15-16.15v-25.86c0-2.29-1.85-4.14-4.14-4.14Z"/>
        </g>
        <g>
          <path class="cls-50" d="M721.42,356.85v-17.14h-53.14v17.14c0,4.69-2.42,9.08-6.45,11.46-19.19,11.32-32.08,32.2-32.08,56.09v136.93c0,9.75,7.91,17.66,17.66,17.66h94.88c9.75,0,17.66-7.91,17.66-17.66v-136.93c0-23.9-12.88-44.77-32.08-56.09-4.04-2.38-6.45-6.78-6.45-11.46Z"/>
          <path class="cls-16" d="M727.87,368.31c-4.04-2.38-6.45-6.78-6.45-11.46v-17.14h-17.72c-.31,9.68-.27,19.38,1.05,28.97.95,6.94,14.4,12.94,17.97,18.95,17.06,28.75,9.18,113.6,8.81,126.49-.29,10.17-.86,20.47-3.22,30.41-2.1,8.8-11.01,12.34-18.84,17.52-3.75,2.49-8.01,3.35-12.36,4.12-4.78.85-9.59,1.51-14.41,2.03-11.2,1.19-22.51,1.58-33.75.93-6.09-.35-12.22-1.01-18.25-2.14,2.36,6.98,8.95,12.02,16.72,12.02h94.88c9.75,0,17.66-7.91,17.66-17.66v-136.93c0-23.9-12.88-44.77-32.08-56.09Z"/>
          <rect class="cls-22" x="648.05" y="414.23" width="93.59" height="135.96" rx="11.38" ry="11.38"/>
          <path class="cls-32" d="M648.05,506.32v32.48c0,6.29,5.1,11.38,11.38,11.38h70.82c6.29,0,11.38-5.1,11.38-11.38v-32.48h-93.59Z"/>
          <rect class="cls-16" x="668.28" y="345.59" width="53.14" height="11.81"/>
          <rect class="cls-50" x="662.53" y="319.14" width="64.64" height="31.33" rx="2.9" ry="2.9"/>
        </g>
        <g>
          <path class="cls-46" d="M651.04,439.57v-10.85h-65.59v10.85h0c-11.25,10.97-17.59,26.01-17.59,41.72v84.54c0,7.27,5.9,13.17,13.17,13.17h74.43c7.27,0,13.17-5.9,13.17-13.17v-84.54c0-15.71-6.34-30.75-17.59-41.72h0Z"/>
          <path class="cls-39" d="M651.04,439.57v-10.85h-8.44c-.27,5.22-1.14,10.74.8,12.68,7.65,7.65,8.13,14.18,9.68,23.67,2.02,12.42,1.47,23.34,1.98,35.89.52,12.81-.46,17.28-.38,30.1.03,5.71.84,11.39.86,17.1.02,4.56-.27,9.53-2.7,13.52-3.85,6.3-11.48,8.55-18.37,9.5-7.25,1-14.61.8-21.91,1.1-13.8.57-28.35,1.69-41.75-2.39-.85-.26-1.7-.55-2.54-.87,1.43,5.72,6.59,9.97,12.76,9.97h74.43c7.27,0,13.17-5.9,13.17-13.17v-84.54c0-15.71-6.34-30.75-17.59-41.72Z"/>
          <rect class="cls-39" x="585.44" y="426.2" width="65.59" height="9.14"/>
          <path class="cls-46" d="M582.33,399.21h71.82c1.69,0,3.06,1.37,3.06,3.06v22.63c0,1.69-1.37,3.06-3.06,3.06h-71.82c-1.69,0-3.06-1.37-3.06-3.06v-22.63c0-1.69,1.37-3.06,3.06-3.06Z"/>
          <rect class="cls-39" x="568.11" y="485.02" width="100.52" height="63.53"/>
          <path class="cls-22" d="M645.71,535.93h-56.71c-7.38,0-13.37-5.99-13.37-13.37h0c0-7.38,5.99-13.37,13.37-13.37h56.71c7.38,0,13.37,5.99,13.37,13.37h0c0,7.38-5.99,13.37-13.37,13.37Z"/>
        </g>
        <g>
          <g>
            <path class="cls-52" d="M590.14,321.78s.01-.04.02-.07c.8,1.16,1.34,2.53,1.67,3.99l-8.9,37.03-2.5-.61,9.71-40.34Z"/>
            <path class="cls-52" d="M594.5,363.07l-9.29,38.13-25.39-6.19,9.29-38.13c.79-3.25,7.12-4.5,14.13-2.79,7.01,1.71,12.05,5.73,11.26,8.98Z"/>
            <path class="cls-54" d="M590.57,379.19l-5.36,22.01-25.39-6.19,5.36-22.01c.79-3.25,7.12-4.5,14.13-2.79,7.01,1.71,12.05,5.73,11.26,8.98Z"/>
            <path class="cls-54" d="M573.95,392.22c-7.01-1.71-13.34-.46-14.13,2.79-.79,3.25,4.25,7.27,11.26,8.98,7.01,1.71,13.34.46,14.13-2.79.79-3.25-4.25-7.27-11.26-8.98Z"/>
          </g>
          <path class="cls-54" d="M576.96,379.82c-1.69-.41-3.34-.68-4.91-.8-2.15-.18-4.15-.08-5.85.22-3.12.57-5.3,1.9-5.77,3.85l-19.35,79.41,29.73,7.25,19.35-79.41c.48-1.95-.85-4.14-3.36-6.08-1.37-1.05-3.1-2.06-5.09-2.89-1.45-.62-3.06-1.14-4.75-1.56Z"/>
          <path class="cls-33" d="M574.95,388.16c-1.69-.41-3.34-.68-4.91-.8-2.15-.18-4.15-.08-5.85.22l-24.22,99.38,20.6,5.02,24.22-99.38c-1.37-1.05-3.1-2.06-5.09-2.89-1.45-.62-3.06-1.14-4.75-1.56Z"/>
          <path class="cls-22" d="M574.95,388.16c-1.69-.41-3.34-.68-4.91-.8l-24.6,100.94,9.66,2.35,24.6-100.94c-1.45-.62-3.06-1.14-4.75-1.56Z"/>
          <g>
            <path class="cls-52" d="M570.67,470.28l-19.35,79.4-29.72-7.24,19.35-79.4c.93-3.8,8.33-5.26,16.54-3.27,8.21,2,14.11,6.7,13.18,10.51Z"/>
            <path class="cls-54" d="M551.96,547.12l-4.38,17.98-29.72-7.24,4.38-17.98c.93-3.8,8.33-5.26,16.54-3.26,8.21,2,14.11,6.7,13.18,10.51Z"/>
            <path class="cls-54" d="M538.14,539.17c-8.21-2-15.61-.54-16.54,3.26-.93,3.8,4.97,8.51,13.18,10.51,8.21,2,15.61.54,16.54-3.27.93-3.8-4.97-8.51-13.18-10.51Z"/>
          </g>
          <path class="cls-52" d="M549.71,556.25l-4.38,17.98-29.72-7.24,4.38-17.98c.93-3.8,8.33-5.26,16.54-3.26,8.21,2,14.11,6.7,13.18,10.51Z"/>
          <path class="cls-54" d="M532.15,563.72c-8.21-2-15.61-.54-16.54,3.27-.93,3.8,4.97,8.51,13.18,10.51,8.21,2,15.61.54,16.54-3.26.93-3.8-4.97-8.51-13.18-10.51Z"/>
        </g>
        <g>
          <path class="cls-46" d="M32.82,314.99c0,2.67-2.16,4.83-4.83,4.83s-4.83-2.16-4.83-4.83,2.16-4.83,4.83-4.83,4.83,2.16,4.83,4.83Z"/>
          <path class="cls-46" d="M787.77,424.34c0,2.07-1.68,3.75-3.75,3.75s-3.75-1.68-3.75-3.75,1.68-3.75,3.75-3.75,3.75,1.68,3.75,3.75Z"/>
          <path class="cls-46" d="M199.64,395.79h-5.34v-5.34c0-2.04-1.65-3.69-3.69-3.69s-3.69,1.65-3.69,3.69v5.34h-5.34c-2.04,0-3.69,1.65-3.69,3.69s1.65,3.69,3.69,3.69h5.34v5.34c0,2.04,1.65,3.69,3.69,3.69s3.69-1.65,3.69-3.69v-5.34h5.34c2.04,0,3.69-1.65,3.69-3.69s-1.65-3.69-3.69-3.69Z"/>
          <path class="cls-48" d="M58.49,520.12h-3.53v-3.53c0-1.35-1.09-2.44-2.44-2.44s-2.44,1.09-2.44,2.44v3.53h-3.53c-1.35,0-2.44,1.09-2.44,2.44s1.09,2.44,2.44,2.44h3.53v3.53c0,1.35,1.09,2.44,2.44,2.44s2.44-1.09,2.44-2.44v-3.53h3.53c1.35,0,2.44-1.09,2.44-2.44s-1.09-2.44-2.44-2.44Z"/>
          <path class="cls-48" d="M702.16,91.71h-4.32v-4.32c0-1.65-1.34-2.99-2.99-2.99s-2.99,1.34-2.99,2.99v4.32h-4.32c-1.65,0-2.99,1.34-2.99,2.99s1.34,2.99,2.99,2.99h4.32v4.32c0,1.65,1.34,2.99,2.99,2.99s2.99-1.34,2.99-2.99v-4.32h4.32c1.65,0,2.99-1.34,2.99-2.99s-1.34-2.99-2.99-2.99Z"/>
          <path class="cls-48" d="M484.09,39.02h-4.32v-4.32c0-1.65-1.34-2.99-2.99-2.99s-2.99,1.34-2.99,2.99v4.32h-4.32c-1.65,0-2.99,1.34-2.99,2.99s1.34,2.99,2.99,2.99h4.32v4.32c0,1.65,1.34,2.99,2.99,2.99s2.99-1.34,2.99-2.99v-4.32h4.32c1.65,0,2.99-1.34,2.99-2.99s-1.34-2.99-2.99-2.99Z"/>
          <path class="cls-46" d="M239.48,63.96h-2.79v-2.79c0-1.06-.86-1.93-1.93-1.93s-1.93.86-1.93,1.93v2.79h-2.79c-1.06,0-1.93.86-1.93,1.93s.86,1.93,1.93,1.93h2.79v2.79c0,1.06.86,1.93,1.93,1.93s1.93-.86,1.93-1.93v-2.79h2.79c1.06,0,1.93-.86,1.93-1.93s-.86-1.93-1.93-1.93Z"/>
          <path class="cls-46" d="M419.51,165.18c0,1.85-1.5,3.35-3.35,3.35s-3.35-1.5-3.35-3.35,1.5-3.35,3.35-3.35,3.35,1.5,3.35,3.35Z"/>
          <path class="cls-46" d="M743.53,297.28c0,1.31-1.07,2.38-2.38,2.38s-2.38-1.07-2.38-2.38,1.07-2.38,2.38-2.38,2.38,1.07,2.38,2.38Z"/>
          <path class="cls-48" d="M198.49,293.85c0,1.31-1.07,2.38-2.38,2.38s-2.38-1.07-2.38-2.38,1.07-2.38,2.38-2.38,2.38,1.07,2.38,2.38Z"/>
        </g>
        <g>
          <g>
            <g>
              <rect class="cls-14" x="98.4" y="241.88" width="29" height="65.25" transform="translate(-9.54 4.12) rotate(-2.01)"/>
              <path class="cls-21" d="M128.56,307.52l-28.98,1.02c-.52.02-.93-.37-.95-.88l-2.28-65.21c-.02-.5.37-.93.88-.95l28.98-1.02c.49-.02.93.38.95.88l2.28,65.21c.02.52-.39.93-.88.95ZM100.43,306.67l27.15-.95-2.22-63.39-27.15.95,2.22,63.38Z"/>
            </g>
            <path class="cls-2" d="M114.09,256.37c3.84-.44,7.88-1.35,11.55-2.96l-.47-13.53-28.19.99.46,13.04c4.98,2.69,11.17,3.08,16.66,2.46Z"/>
            <g>
              <path class="cls-24" d="M188.66,72.31c-8.62-19.55-49.91-23.04-74.9-23.32-3.62-.03-6.9,0-9.69.05-2.78.14-6.05.34-9.66.63-24.9,2.03-65.86,8.4-73.09,28.51-7.84,21.77-5.72,153.54,76.16,170.07,4.32.87,8.85,1.4,13.62,1.61,4.75-.54,9.23-1.39,13.48-2.56,80.53-22.22,73.42-153.81,64.08-174.98Z"/>
              <path class="cls-17" d="M111.14,250.77s-.04,0-.07,0c-4.77-.21-9.39-.74-13.77-1.64-23.98-4.84-43.19-19.8-57.09-44.46-26.19-46.48-24.94-112.41-19.76-126.81,7.45-20.7,49.49-27.12,73.88-29.11,3.63-.29,6.9-.48,9.69-.63,2.83-.05,6.11-.08,9.74-.05,24.47.27,66.85,3.74,75.73,23.87,6.18,14,12.03,79.69-10.83,127.88-12.15,25.58-30.25,41.84-53.86,48.35-4.29,1.2-8.87,2.05-13.6,2.59,0,0-.04,0-.07,0ZM104.09,49.96c-2.75.14-6.01.34-9.61.62-23.97,1.96-65.2,8.17-72.3,27.91-5.1,14.18-6.28,79.29,19.62,125.28,13.63,24.18,32.44,38.84,55.87,43.58,4.26.85,8.78,1.39,13.41,1.58,4.61-.52,9.07-1.37,13.27-2.52,23.05-6.37,40.77-22.31,52.67-47.39,22.64-47.69,16.9-112.56,10.82-126.35-8.48-19.19-50.06-22.5-74.08-22.78-3.62-.03-6.87,0-9.66.05Z"/>
            </g>
            <path class="cls-8" d="M184.39,68.86c-8.04-14.2-47.31-18.08-71.03-18.1-3.45,0-14.96,1.03-18.39,1.26-23.68,1.67-62.58,7.67-69.62,22.41-7.62,15.95-6.62,112.09,71.05,123.52,4.1.59,8.41.95,12.93,1.06,4.51-.43,8.78-1.08,12.83-1.96,76.68-16.84,70.95-112.81,62.23-128.19Z"/>
            <g>
              <path class="cls-26" d="M169.91,70.22c-6.65-13.79-38.72-16.16-58.13-16.28-2.83-.03-5.36,0-7.53.05-2.17.11-4.7.25-7.51.48-19.36,1.48-51.19,6.09-56.86,20.31-6.14,15.4-4.82,108.5,58.76,119.98,3.34.61,6.88.98,10.57,1.1,3.68-.38,7.18-1,10.47-1.84,62.63-15.9,57.43-108.87,50.22-123.8Z"/>
              <path class="cls-51" d="M168.67,70.55c-6.52-13.23-37.96-15.47-57-15.6-2.76-.02-5.25.01-7.38.06-2.13.1-4.61.25-7.37.46-18.98,1.45-50.19,5.9-55.76,19.55-6.04,14.78-4.82,104.08,57.53,115.03,3.28.59,6.73.95,10.37,1.05,3.61-.36,7.04-.95,10.27-1.78,61.42-15.28,56.39-104.45,49.34-118.77Z"/>
            </g>
            <g>
              <path class="cls-27" d="M162.78,110.42c.64,18.36-14.01,33.45-32.45,34.1l-44.15,1.55c-18.44.65-33.87-13.4-34.51-31.75l-.04-1.23c-.64-18.36,13.75-34,32.18-34.65l44.15-1.55c18.44-.65,34.14,13.95,34.78,32.3l.04,1.23Z"/>
              <path class="cls-22" d="M130.35,145.43l-44.15,1.55c-18.89.66-34.81-13.98-35.46-32.63l-.04-1.23c-.66-18.97,14.18-34.93,33.07-35.59l44.15-1.55c19.03-.67,35.06,14.21,35.73,33.18l.04,1.23c.65,18.65-14.31,34.38-33.34,35.04ZM83.84,79.35c-17.89.63-31.93,15.75-31.3,33.7l.04,1.23c.62,17.65,15.67,31.5,33.57,30.87l44.15-1.55c18.03-.63,32.19-15.5,31.57-33.15l-.04-1.23c-.63-17.95-15.8-32.05-33.84-31.42l-44.15,1.55Z"/>
            </g>
            <g>
              <path class="cls-22" d="M162.75,109.81c.6,17.19-14.21,31.65-31.82,32.27l-42.89,1.5c-17.61.62-30.98-12.85-31.58-30.05v-.23c-.61-17.2,11.86-29.49,29.47-30.1l42.89-1.5c17.61-.62,33.32,10.69,33.93,27.88v.23Z"/>
              <path class="cls-27" d="M130.97,142.99l-42.89,1.5c-17.61.62-31.9-12.97-32.53-30.93-.62-17.58,12.15-30.64,30.35-31.28l42.89-1.5c18.96-.66,34.28,11.97,34.87,28.77.62,17.6-14.37,32.81-32.69,33.45ZM85.97,84.11c-17.41.61-29.17,12.6-28.59,29.16.61,17.45,13.78,29.98,30.64,29.39l42.89-1.5c17.34-.61,31.51-14.96,30.94-31.32-.56-16-15.04-27.85-32.99-27.23l-42.89,1.5Z"/>
            </g>
            <g>
              <path d="M84.34,103.85l-.29-8.16,2.95-3.17.42,11.99-1.1,1.19-1.98-1.85ZM87.55,107.97l.42,11.95-3.17-2.95-.29-8.15,1.85-1.98,1.18,1.13Z"/>
              <path d="M110.25,91.19l-2.91,3.16-9.89.35-3.13-2.95,15.93-.56ZM111.25,119.67l-15.93.56,2.91-3.16,9.89-.35,3.13,2.95ZM108.05,103.99l1.59,1.48-1.49,1.58-10.64.37-1.55-1.48,1.44-1.58,10.64-.37ZM108.17,103.02l-.29-8.15,2.95-3.17.42,11.98-1.07,1.19-2.01-1.85ZM111.38,107.14l.42,11.94-3.17-2.95-.29-8.15,1.88-1.97,1.15,1.13Z"/>
              <path d="M119.18,102.63l-1.85,1.98-1.18-1.11-.42-11.98,3.17,2.95.29,8.15ZM119.64,115.74l-2.95,3.17-.42-11.94,1.1-1.21,1.98,1.83.29,8.15ZM132.2,90.42l-2.91,3.16-9.89.35-3.13-2.95,15.92-.56ZM133.2,118.9l-15.92.56,2.91-3.16,9.89-.35,3.12,2.95ZM133.22,102.91l-1.07,1.19-2.01-1.85-.29-8.15,2.95-3.17.42,11.98ZM133.75,118.31l-3.16-2.95-.29-8.15,1.88-1.97,1.15,1.13.42,11.94Z"/>
            </g>
            <g>
              <path d="M115.24,130.29l1.14-.04.02.62h.01c.37-.47.86-.72,1.49-.74.41,0,.72.05.97.17.25.15.47.31.68.54.44-.54,1.03-.81,1.79-.83.47-.02.92.14,1.31.45.42.33.63.83.67,1.48l.13,3.83-1.12.04-.12-3.43c-.01-.41-.14-.7-.36-.92-.22-.2-.5-.29-.84-.28-.32.01-.61.12-.81.34-.22.23-.31.53-.3.94l.12,3.43-1.13.04-.12-3.43c-.01-.41-.13-.7-.35-.92-.22-.2-.51-.29-.85-.28-.33.01-.6.12-.81.34-.22.23-.32.53-.31.94l.12,3.43-1.13.04-.2-5.76Z"/>
              <path d="M128.28,135c-.35.44-.83.67-1.42.71-.35.01-.66-.07-.91-.2-.25-.13-.45-.29-.58-.45-.15-.18-.27-.41-.34-.67-.08-.27-.13-.78-.16-1.54-.03-.77-.02-1.3.05-1.57.05-.28.15-.51.29-.7.12-.2.31-.36.55-.51.24-.14.54-.22.89-.25.56-.02,1.04.2,1.47.64l-.02-.62,1.12-.04.2,5.62c.02.86-.21,1.5-.66,1.93-.46.44-1.01.66-1.67.69-.76.01-1.41-.27-1.96-.89l.85-.74c.15.13.31.24.5.34.19.1.4.14.6.15.38-.01.7-.14.92-.36.22-.23.32-.54.32-.94l-.02-.58ZM125.99,132.8c.02.44.04.74.07.91.04.18.1.31.19.42.08.1.21.2.36.28.15.09.32.14.55.14.21,0,.4-.07.54-.17.14-.09.25-.2.31-.31.1-.11.15-.26.18-.43,0-.17.01-.47,0-.91-.02-.46-.04-.75-.06-.94-.04-.17-.11-.31-.21-.41-.07-.12-.19-.21-.34-.3-.15-.08-.34-.12-.55-.11-.23,0-.4.06-.54.15-.15.1-.27.2-.34.32-.08.11-.14.25-.16.42-.02.19-.02.49,0,.94Z"/>
              <path d="M132.76,127.29l.86-.03-2.34,8.3-.86.03,2.34-8.3Z"/>
              <path d="M138.16,134.65c-.36.44-.84.67-1.42.71-.35.01-.63-.05-.88-.18-.25-.12-.47-.29-.65-.51-.15-.18-.27-.42-.32-.73-.07-.28-.13-.78-.15-1.46-.02-.69,0-1.18.05-1.48.03-.3.14-.54.27-.73.3-.49.79-.76,1.48-.8.29,0,.55.04.8.16.23.12.45.27.67.46l-.1-2.93,1.11-.04.28,8.09-1.11.04-.02-.6ZM136.92,130.62c-.27,0-.48.06-.61.15-.15.1-.25.24-.32.42-.06.17-.1.37-.12.57-.02.21-.01.45,0,.67s.01.43.05.65c.04.21.09.41.16.58.08.17.19.3.35.41.14.09.35.14.62.13.25,0,.47-.08.61-.19.15-.11.26-.26.32-.42.06-.19.1-.38.12-.59,0-.22,0-.43,0-.63,0-.22-.03-.43-.04-.64-.04-.2-.09-.39-.16-.55-.07-.19-.19-.32-.35-.42-.14-.11-.37-.14-.62-.13Z"/>
              <path d="M140.56,127.07l1.19-.04.24,6.93,3.82-.13.04,1.16-5,.18-.28-8.09Z"/>
            </g>
            <g>
              <g>
                <g>
                  <path class="cls-26" d="M127.06,200.05c.84-.56,1.58-1,3.35-1.14,5.61-.4,22.41,12.83,23.39,14.33.89.99,1.11,2.08,1.08,3.13.08.96-.17,1.95-.84,2.92-.88,1.81-17.15,16.43-22.78,16.42-2.04,0-2.44-.51-3.34-1.14-1.56-1.07-.79-2.6-.79-2.6l-1.02-29s-.9-1.69.95-2.93Z"/>
                  <path class="cls-51" d="M128.04,201.21c.68-.51,1.87-.93,3.33-1.04,4.63-.36,18.79,11.64,19.59,13,.73.91,1.05,1.88,1.04,2.84.06.86-.07,1.76-.62,2.63-.72,1.63-14.04,14.8-18.68,14.76-1.68,0-3.14-.43-3.87-.99-1.29-.99-1.77-2.33-1.77-2.33l-.92-26.22s.4-1.57,1.9-2.66Z"/>
                </g>
                <g>
                  <path class="cls-26" d="M93.21,201.23c-.89-.5-1.85-.88-3.62-.89-5.62-.01-21.55,14.37-22.42,15.94-.81,1.05-.99,2.15-.89,3.2-.03.96.28,1.94,1.02,2.86,1.01,1.74,18.24,15.19,23.86,14.78,2.03-.14,2.76-.69,3.6-1.39,1.5-1.18.98-2.66.98-2.66l-1.02-29s.41-1.74-1.5-2.84Z"/>
                  <path class="cls-51" d="M91.09,202.5c-.73-.46-1.52-.81-2.97-.82-4.64-.04-17.71,12.92-18.42,14.33-.68.96-.82,1.95-.75,2.9,0,.86.25,1.75.85,2.58.84,1.57,15.07,13.79,19.71,13.42,1.67-.13,2.27-.62,2.94-1.22,1.24-1.08.79-2.42.79-2.42l-.92-26.22s.35-1.57-1.23-2.55Z"/>
                </g>
                <g>
                  <path class="cls-26" d="M122.14,227.55c.2,5.72-4.27,10.52-9.98,10.72l-1.05.04c-5.72.2-10.51-4.27-10.72-9.99l-.63-17.96c-.2-5.7,4.27-10.49,9.99-10.69l1.05-.04c5.7-.2,10.5,4.27,10.7,9.97l.63,17.96Z"/>
                  <path class="cls-51" d="M119.65,225.47c.19,5.29-2.84,9.69-8.12,9.88h0c-5.28.18-8.61-3.99-8.79-9.28l-.5-14.24c-.19-5.29,2.84-9.7,8.12-9.88h0c5.28-.18,8.6,4,8.79,9.29l.5,14.24Z"/>
                </g>
              </g>
              <g>
                <path class="cls-22" d="M114.7,222.43c.02.67-.63,1.25-1.46,1.28l-1.83.06c-.82.03-1.52-.51-1.55-1.18l-.17-4.78c-.02-.69.63-1.26,1.46-1.29l1.83-.06c.83-.03,1.52.49,1.55,1.19l.17,4.78Z"/>
                <path class="cls-22" d="M111.45,226.47c-4.17.15-7.69-3.14-7.84-7.32-.15-4.18,3.14-7.71,7.31-7.85,4.19-.15,7.71,3.14,7.86,7.32.15,4.18-3.13,7.7-7.32,7.85ZM110.98,213.13c-3.17.11-5.66,2.79-5.55,5.96.11,3.17,2.78,5.66,5.95,5.55,3.18-.11,5.67-2.78,5.56-5.95-.11-3.17-2.79-5.66-5.96-5.55Z"/>
              </g>
            </g>
            <path class="cls-25" d="M27.99,163.81s14.37,77.12,79.97,84.03c0,0-54.68-10.37-79.97-84.03Z"/>
            <path class="cls-10" d="M188.28,158.2s-8.93,77.94-73.9,89.42c0,0,53.82-14.17,73.9-89.42Z"/>
          </g>
          <g>
            <g>
              <path class="cls-55" d="M308.98,544.55c-5.35,2.05-11.71,3.21-17.3,2.57-2.75.08-5.53,0-8.38-.17-21.96-1.38-53.11-20.58-58.91-23.75-8.59-4.67-16.59-10.72-24.71-16.16-15.75-10.53-28.65-23.32-40.96-37.65-11.3-13.17-21.36-27.87-29.85-42.97-9.36-16.63-16.26-34.45-25.29-51.28-3.42-6.36-18.86-22.58-7.54-28.08,10.2-4.93,22.97,3.44,29.48,10.53,5.17,5.64,8.76,13.43,12.68,19.95,4.97,8.28,9.43,16.77,14.62,24.92,5.18,8.12,10.23,16.28,15.78,24.18,3.92,5.58,7.93,12.46,12.87,17.62-2.73-6.31-4.38-14.29,3.7-16.28,1.37-.34,2.72-.44,4.06-.39.91-5.56,4.1-12.23,8.87-14.91,5.2-2.94,12.3-2.01,18.07-.33.54-2.02.62-4.65,1.49-6.59,1.08-2.41,3.12-5.24,5.24-6.84,4.34-3.25,9.62-4.83,15.06-3.67,2.46.53,4.87,1.27,7.26,2.13.81-4.17,3.92-8.57,7.49-10.46,4.67-2.45,8.94-.77,13.87.49,15.27,3.98,33.75,10.5,40.31,26.1,1.87,4.5,2.8,9.45,3.51,14.44,15.41,14.84,46.05,41.74,36.14,63.29.59.31,1.21.61,1.78.92,8.05,4.29,15.64,9.24,23.23,14.24,7.99,5.24,15.77,10.87,23.13,17.02,1.11,1.25,2.21,2.49,3.3,3.74.53,5.63-1.51,11.98-3.29,16.83-.28.78-.59,1.56-.9,2.34-4.18,7.76-10.52,14.77-16.34,19.72-7.21,6.1-15.21,11.9-23.86,15.81-.69.33-1.45.66-2.22.96-2.46.83-4.92,1.49-7.5,1.82-1.32-1.46-30.49-34.97-34.89-40.12Z"/>
              <path class="cls-37" d="M208.21,413c-10.93-1.48-13.79,6.98-17.52,14.72,10.24,1.48,19.16,13.37,23.27,21.23,3.66,7.02,6.95,14.76,12.03,20.83,6.98,8.4,17.33,11.8,27.65,13.92-2.23-1.56-4.27-3.39-5.99-5.05-5.12-5.02-7.77-11.32-9.83-17.87-5.66-6.84-13.02-11.23-20.13-16.5-.05,0-.08.02-.1-.02-.12-.09-.26-.19-.39-.31,7.44,1.97,14.61,5.94,19.94,11.53,1.3,1.36,2.52,2.82,3.67,4.29.79,2.68,1.53,5.37,2.58,7.76,3.04,6.95,8.58,12.81,15.14,16.44.43.26,1.26.77,2.19,1.26,1.27.28,2.56.59,3.83.92.71-.18,1.31-.69,1.55-1.79.55-2.59-.02-5.41-.17-8.03-.5-8.05-1.09-16.07-2-24.07-1.76-15.59-19.65-22.05-31.35-29.66-7.14-4.67-15.86-8.49-24.36-9.63Z"/>
              <path class="cls-37" d="M247.23,400.7c-.59-.25-1.17-.51-1.76-.75-.24.1-.48.1-.49-.13,0-.02,0-.05,0-.09-7.24-3.06-15.03-5.53-21.69.9-3.11,3-4.82,7.42-6.08,11.41-.09.29-.13.46-.15.61.55.17,1.1.34,1.61.54,10.75,3.74,20.01,9.9,29.51,16.01,8.45,5.44,16.36,9.22,18.5,19.77.98,4.78,1.24,9.7,1.3,14.66,1.6,2.43,3.48,4.82,5.34,6.48,1.7,1.49,4.03,2.36,6.14,3.02,6.37,2.03,6.19-5.7,6.54-9.3.66-6.64.48-13.4.54-20.05.06-6.52.32-13.26-2.68-19.21-3.07-6.1-11.61-10.05-17.05-13.57-6.2-3.99-12.84-7.34-19.59-10.29Z"/>
              <path class="cls-37" d="M306.78,425.66s0-.02-.02-.04l.12-.07c-.65-3.04-1.32-6.04-2.18-8.88-3.08-10.22-10.97-15.53-20.01-20.2-5.59-2.86-11.63-4.84-17.67-6.64-2.63-.79-5.29-1.44-7.97-2.08-6.77-1.64-10.47,5.15-12.48,10.17,5.6,2.19,11.07,5.11,16.23,7.92,8.25,4.51,18.18,9.8,23.67,17.65,2.49,3.57,3.15,8.62,3.18,13.77,1.49,3.07,3.69,5.66,6.02,8.32,1.49,1.66,2.96,3.25,4.58,4.8,3.35,3.17,10.09,2.44,9.73-2.76-.49-7.09,0-15.47-3.19-21.95Z"/>
              <path class="cls-37" d="M380.57,560.28c7.86-7.98,14.87-19.95,15.25-31.69-1.45-1.37-2.93-2.73-4.47-3.99-7.18-5.99-14.81-11.37-22.49-16.67-6.67-4.58-13.42-9.03-20.33-13.25-.94-.56-1.91-1.13-2.91-1.66-1.44,2.48-3.46,4.9-6.13,7.22,3.09-4.29,5.37-9.09,6.09-13.87,1.01-6.74-1.02-15.82-5.83-21.56-.64-1.3-1.32-2.59-2.06-3.86-6.8-11.7-18.63-19.5-26.87-29.91.36,2.7.69,5.38,1.13,7.97.61,3.59,3.28,12.37-1,14.65-8.35,4.45-16.86-3.41-21.43-11.51-.16,3.28-.42,6.41-.43,9-.07,5.29,1.51,18.21-3.56,21.93-5.65,4.11-13.11.42-17.53-5.05-.01,3.33-.04,6.64.06,9.88.05,2.15.89,6.96-1.11,8.9,10.26,2.92,19.94,7.56,25.17,17.23-4.09-4.52-9.52-8.09-15.45-10.48-6.95-3.88-14.95-6.14-22.71-7.51-14-2.47-24.94-7.21-34.11-18.31-7.44-9.06-10.19-21.05-18.32-29.83-3.36-3.64-19.19-14.62-20.22-3.26-.55,5.94,3.97,12.1,6.56,17.07,6.2,11.84,9.76,25.47,14.49,37.95,5.04,13.38,18.06,19.65,27.74,29.42,1.04,1.05,2.14,2.04,3.24,3.03-1.6-1.08-3.19-2.16-4.87-3.17-1.81-1.08-3.66-2.16-5.5-3.24-.78-.73-1.55-1.44-2.35-2.11-6.03-5.08-13.04-9.62-17.42-16.31-4.42-6.68-6.31-16.07-9.18-23.52-3.26-8.48-4.43-14.53-8.8-22.54-.06-.12-8.52-10.3-11.77-14.66-4.57-6.12-9.72-13.71-14.12-19.94-9.22-13.02-17.05-26.7-25.39-40.28-4.48-7.28-8.67-14.7-14.73-20.85-3.22-3.29-22.19-14.25-25.04-4.31-1.6,5.54,5.59,14.63,8.49,18.81,4.87,6.96,8.11,15.28,11.81,22.88,6.91,14.17,13.09,28.37,21.32,41.86,8.56,14,19.26,27.34,30.23,39.45,10.92,12.02,22.34,22.49,35.78,31.65,6.61,4.49,13.22,8.99,19.84,13.49,3.42,2.34,7.01,4.35,10.72,6.2.53.27,1.07.54,1.6.86-.22-.19-.42-.36-.62-.54,4.83,2.85,9.71,5.6,14.66,8.26,4.53,2.43,9.04,4.11,13.71,5.36,1.07.43,2.18.87,3.27,1.28,7.18,2.6,14.71,4.18,22.29,4.94,4.09.42,8.2.09,12.25-.48.57-.08,1.3-.2,2.12-.35,1.56-.35,3.1-.7,4.61-1.1.51-.11,1.03-.3,1.58-.5l-.05-.06c.17-.02.35-.06.53-.1,4.9-1.97,11.45-6.68,13.23-11,.05-.14.57-.33.55-.11-.67,4.73-6.22,9.36-10.45,11.44,4.53,4.93,9.13,9.81,13.72,14.68,7.08,7.61,14.77,15.79,21.2,24.5,12.89-2.58,25.77-13.96,33.99-22.3Z"/>
            </g>
            <path class="cls-6" d="M291.68,547.12c-2.75.08-5.53,0-8.38-.17-21.96-1.38-53.11-20.58-58.91-23.75-8.59-4.67-16.59-10.72-24.71-16.16-15.75-10.53-28.65-23.32-40.96-37.65-11.3-13.17-21.36-27.87-29.85-42.97-9.36-16.63-16.26-34.45-25.29-51.28-3.42-6.36-18.8-22.54-7.58-28.03-.11.28-.22.56-.28.85-.66,3.26,1.04,6.45,3.04,8.93,3.07,3.83,6.68,7.16,9.91,10.87,3.7,4.23,6.95,8.8,10.03,13.52,6.33,9.7,12.24,19.65,18.31,29.52,6.13,9.92,12.28,19.83,18.63,29.61,3.87,5.91,7.44,12.1,11.49,17.88,2.09,2.97,6.41,10.14,10.9,9.58,5.17-.64,3.78-7.62,2.88-11.09-1.92-7.37-4.3-14.74-6.8-21.95,2.28,3.33,4.67,6.64,7.36,9.44-2.41-5.57-3.96-12.38,1.22-15.31-1.03,1.19-.27,2.96,1.19,4.45,4.21,4.27,8.22,8.16,11.29,13.43,6.84,11.61,9.51,25.15,15.2,37.31,5.32,11.41,13.15,20.68,24.5,26.4,5.02,2.52,10.12,5.09,15.32,7.44,22.41,12.97,55.56,17.78,75.57-1.47,11.08-10.65,19.81-30.86,13.7-45.26-.52-2.21-1.4-4.29-2.65-6.16-2.76-4.08-6.99-7.04-11.65-7.77-.06-.03-.12-.04-.18-.06-1.27-.28-2.5-.34-3.67-.22-.25-.02-.48-.04-.7-.07-.77-.07-1.51-.04-2.23.02-.25-.11-.53-.11-.73.06-6.86.97-13.11,6.86-17.81,11.33-6.17,5.89-12.72,17.42-11.84,26.52.41,4.14-9.38-2.84-16.41-5.34-8.65-3.11-17.91-3.46-26.66-6.12-11.27-3.42-19.57-10.99-26.36-20.37-9.77-13.44-17.37-29.16-33.42-35.08h.02c1.37-.35,2.72-.45,4.06-.4.07-.53.19-1.06.31-1.58.65.25,1.34.46,2.05.65,5.79,1.46,11.46,1.77,16.78,4.73,11.21,6.2,22.84,16.59,36.19,17.39,4.6.27,10.88-1.4,11.95-6.77,1.17-5.93-3.44-8.49-7.82-11.27-11.6-7.3-23.64-14.24-36.43-19.32,1.35.25,2.66.57,3.91.93.54-2.02.62-4.65,1.49-6.59,0-.03.04-.06.05-.08,1.2,4.52,8.28,8.08,12.47,9.92,5.19,2.28,10.42,4.36,15.53,6.89,4.23,2.1,8.42,4.29,12.31,6.95,2.86,1.95,5.77,4.14,9.09,5.25,4.97,1.65,13,.81,15.05-5.01,1.93-5.46-1.75-11.6-6.05-14.9-7.5-5.73-16.6-8.68-24.82-13.15-3.02-1.62-6.02-3.59-9.12-5.24,1.02.31,2.03.64,3.04,1,.22-1.09.59-2.22,1.11-3.29,15.81.85,28.89,13.84,43.17,19.42,4.65,1.83,11.47.72,11.64-5.57.06-1.33-.18-2.68-.62-3.96,2.64,2.73,4.85,5.88,6.38,9.52,1.87,4.5,2.8,9.45,3.51,14.44,15.41,14.84,46.05,41.74,36.14,63.29.59.31,1.21.61,1.78.92,8.05,4.29,15.64,9.24,23.23,14.24,7.99,5.24,15.77,10.87,23.13,17.02,1.11,1.25,2.21,2.49,3.3,3.74.04.48.05.99.05,1.51-7.96-5.75-15.69-11.88-24.6-16.2-8.74-4.21-20.43-7.69-27.97.6-4.92,5.41-8.64,12.23-11.2,19.05-2.41,6.39-2.84,12.41-.02,18.8,3.16,7.2,7.85,13.61,11.37,20.63,1.9,3.77,3.72,7.6,5.71,11.31-2.44.82-4.92,1.47-7.46,1.81-1.32-1.46-30.49-34.97-34.89-40.12-5.35,2.05-11.71,3.21-17.3,2.57Z"/>
            <path class="cls-6" d="M188.37,427.57c5.53,2.74,11.07,5.52,15.12,10.17,2.94,3.36,5.69,6.85,8.38,10.4.2.26.45.24.65.12.23-.09.39-.3.32-.59-.81-3.29-1.84-6.49-3.2-9.58,5.06,1.86,9.58,5.03,14.55,7.17,5.47,2.37,12.1,4.6,16.11,9.3,3.72,4.39,5.33,10.67,10.06,14.18,2.53,1.88,6.2,3.57,9.39,2.28,3.67-1.48,4.61-5.23,4.85-8.85.34-5.18.11-10.72-1.4-15.72-1.27-4.3-3.44-7.86-7.29-10.3-.32-.2-.64-.39-.96-.59-1.56-1.88-3.96-3.3-6.28-4.78-11.6-7.3-23.64-14.24-36.43-19.32,1.35.25,2.66.57,3.91.93.13-.51.24-1.05.34-1.62,2.63.93,5.37,1.65,7.84,2.86,3.97,1.92,7.85,4.02,11.72,6.1,6.68,3.63,13.96,6.56,20.32,10.69,3.67,2.36,7.08,5.32,9.03,9.32,1.76,3.67,2.49,7.62,3.88,11.41,1.25,3.31,3.78,9.14,8.26,8.76,3.55-.33,5.94-3.87,7.11-6.92,2.12-5.4,2.59-12.18,2.47-17.92-.14-6.12-1.66-11.44-6.54-15.2-1.19-1.99-2.8-3.73-4.49-5.05-7.5-5.73-16.6-8.68-24.82-13.15-3.02-1.62-6.02-3.59-9.12-5.24,1.02.31,2.03.64,3.04,1,0-.06.04-.12.06-.18,7.63,2.54,15.13,5.4,22.44,8.94,5.43,2.62,11.54,5.38,16.21,9.22,5.27,4.31,6.77,10.83,8.87,16.98,1.48,4.39,3.38,8.91,7.72,11.13,2.52,1.3,5.7.66,7.15-1.91,2.41-4.29,2.19-10.04,1.94-14.8-.13-2.43-.42-4.86-.78-7.27.69,2.75,1.17,5.59,1.57,8.44,12.29,11.83,34.19,31.28,37.61,49.61-.38,8.96-2.87,17.52-8.89,24.42,2-4.3,4.12-8.6,4.38-13.41.33-6.35-.64-12.84-3.28-18.68-5.63-12.48-16.57-21.17-26.52-30.11-.39-.35-1.07-.1-.97.48.97,5.59,2.97,15.28-4.76,17.11-5.82,1.37-11.26-2.6-16.23-5.06-.35-.17-.86-.03-.88.43-.22,7.05,1.62,14.69-.66,21.54-1.44,4.3-4.93,7.42-9.71,6.15-3.67-.98-6.84-3.11-9.94-5.23-.28-.22-.74-.06-.83.28-1.16,4.19-1.54,8.75-4.22,12.29-6.84-1.62-13.88-2.31-20.61-4.36-11.27-3.42-19.57-10.99-26.36-20.37-9.77-13.44-17.37-29.16-33.42-35.08h.02c1.09-.28,2.16-.41,3.22-.42Z"/>
            <path class="cls-6" d="M347.01,490.09c.55-1.73,1-3.49,1.3-5.29-.19,1.79-.62,3.55-1.3,5.29Z"/>
            <path class="cls-6" d="M103.57,375.15c-2.56-4.8-11.96-15.18-11.6-22.37,1.34,3.1,3.52,6.04,5.29,8.3,2.65,3.45,5.56,6.69,8.31,10.07,3.13,3.85,5.28,8.12,7.63,12.47,8.37,15.62,17.15,30.96,26.79,45.84,4.64,7.18,9.41,14.39,14.77,21.09,4.76,5.93,9.09,12.24,14.14,17.94,2.45,2.76,4.99,5.43,7.87,7.73,2.08,1.68,4.53,3.65,7.26,4.13,3.99.7,5.72-2.61,5.95-6.16.39-5.8-1.19-11.51-3-16.97-1.68-5.09-3.78-10.03-6.27-14.77-1.38-3.72-2.17-7.76-.74-10.68.53,2.61,1.61,5.03,2.94,7.42,4.76,8.4,9.98,16.26,13.6,25.25,3.69,9.14,6.02,19.03,11.2,27.48,2.89,4.69,6.43,8.95,10.42,12.77,15.63,14.92,36.46,26.1,57.51,30.93,17.38,3.98,37.13,3.23,49.67-10.07-.81,5.83-5.17,10.74-5.38,16.69-.26,6.75,5.57,10.51,9.3,15.34,5.04,6.5,9.84,13.22,14.8,19.81,1.56,2.1,3.15,4.18,4.78,6.24-1.62.45-3.27.81-4.94,1.03-1.32-1.46-30.49-34.97-34.89-40.12-5.35,2.05-11.71,3.21-17.3,2.57-2.75.08-5.53,0-8.38-.17-21.96-1.38-53.11-20.58-58.91-23.75-8.59-4.67-16.59-10.72-24.71-16.16-15.75-10.53-28.65-23.32-40.96-37.65-11.3-13.17-21.36-27.87-29.85-42.97-9.36-16.63-16.26-34.45-25.29-51.28Z"/>
          </g>
          <g>
            <path class="cls-34" d="M115.68,287.11c-.32-.48-.61-.88-.83-1.22-.2.35-.46.78-.74,1.27-5.67,9.76-24.85,46.05.96,50.33.52.09,2.66.01,3.16-.11,25.47-6.07,3.79-40.93-2.54-50.27Z"/>
            <path class="cls-31" d="M113.98,297.17c-.24-.35-.45-.66-.63-.89-.15.24-.34.57-.56.93-4.22,7.29-18.55,34.38.73,37.59.39.06,1.98,0,2.36-.08,19-4.55,2.82-30.57-1.91-37.55Z"/>
            <g class="cls-38">
              <path class="cls-22" d="M116.97,326.44c.1,2.99-2.23,5.51-5.23,5.61-2.99.1-5.51-2.24-5.61-5.23-.11-3,2.24-5.5,5.23-5.61,3-.1,5.5,2.23,5.61,5.23Z"/>
              <path class="cls-22" d="M108.81,316.14c.02.51-.39.94-.9.96-.49.02-.93-.39-.95-.9-.02-.5.39-.94.88-.95.52-.02.95.39.97.89Z"/>
            </g>
          </g>
          <polygon class="cls-23" points="254.68 144.63 114.09 325.69 244.8 287.83 254.68 144.63"/>
          <g>
            <circle class="cls-23" cx="308.03" cy="211.77" r="99.83"/>
            <g>
              <g>
                <path class="cls-19" d="M394.71,183.79c-.58-4.52-2.31-8.9-5.22-12.16-3.46-3.87-8.12-6.62-13.11-8.01-1.06-.29-2.18-.59-3.26-.75-30.7,8.45-140.76,53.2-140.76,53.2l.06,2.48c-3.28,5.17-11,9.58-2.74,26.56,6.39,13.1,16.3,8.72,15.55,9.15l1.03,1.43s73.71-29.3,145.29-55.49c1.13-.41,1.98-4.41,2.3-5.46,1.06-3.38,1.35-7.21.86-10.95Z"/>
                <path class="cls-53" d="M248.68,244.66s121.42-48.81,126.07-50.17c4.64-1.36,12.89-8.55,6-16.26-6.89-7.73-18.44-1.45-18.44-1.45l-115.45,44.24c-1.93-3.12-9.51-3.28-14.47-2.96v.49c-3.27,5.17-10.99,9.58-2.73,26.56,5.51,11.31,13.65,9.59,15.29,9.2,4.36-3.43,3.72-9.64,3.72-9.64Z"/>
                <path class="cls-4" d="M383.18,182.59c-1.91.75-3.82,1.48-5.74,2.21-12.79,4.83-25.68,9.37-38.38,14.44-9.91,3.95-19.8,7.92-29.89,11.36-10.58,3.6-21.12,7.31-31.6,11.21-10.21,3.81-20.33,7.99-30.63,11.53-5.07,1.75-10.18,3.37-15.22,5.17-.88.31-1.77.66-2.64,1.01.95,4.41,3.64,9.04,7.14,11.78,2.34,1.84,5.63,2.42,8.28.77,1.59-.98,2.98-2.51,4.01-4.16.32-1.84.18-3.26.18-3.26,0,0,121.42-48.81,126.07-50.17,3.74-1.1,9.84-5.99,8.43-11.9Z"/>
                <path class="cls-3" d="M376.62,189.86c-4.38,2.12-9.03,3.72-13.57,5.49-5.63,2.21-11.26,4.4-16.88,6.61-20.67,8.08-41.23,16.39-61.81,24.69-9.94,4-43.55,19.35-50.77,22.1.79.95,1.67,1.82,2.6,2.55,2.34,1.84,5.63,2.42,8.28.77,1.59-.98,2.98-2.51,4.01-4.16.32-1.84.18-3.26.18-3.26,0,0,121.42-48.81,126.07-50.17,3.16-.93,8.02-4.57,8.57-9.25-1.91,1.93-4.25,3.42-6.7,4.62Z"/>
                <g>
                  <g>
                    <path class="cls-18" d="M374.18,199.57s10.93-5.75,9.32-14.5c-.12,5.29-5.92,9.96-9.41,11.74-4.32,2.2-125.4,47.86-125.4,47.86,0,0,.09.85-.03,2.11l3.54-.11,121.98-47.1Z"/>
                    <path class="cls-56" d="M247.93,247.45l.06-.74c.1-1.16.03-1.98.04-1.99l-.06-.5.48-.19c1.21-.46,121.09-45.65,125.33-47.82,3.56-1.82,8.93-6.29,9.05-11.17l.16-6.37,1.15,6.27c1.68,9.13-9.21,14.95-9.67,15.2l-122.27,47.17-4.28.13ZM249.37,245.1c0,.25.01.59,0,.99l2.7-.09,121.87-47.05s5.92-3.19,8.18-8.23c-2.06,3-5.29,5.43-7.73,6.68-4.22,2.14-115.72,44.2-125.02,47.71Z"/>
                  </g>
                  <g>
                    <path class="cls-29" d="M394.71,183.79c-.58-4.52-2.31-8.9-5.22-12.16-3.46-3.87-8.12-6.62-13.11-8.01-1.06-.29-2.18-.59-3.26-.75-30.7,8.45-140.76,53.2-140.76,53.2l.05,2c4.96-.33,12.54-.16,14.47,2.96l115.45-44.24s11.55-6.28,18.44,1.45c2.04,2.27,2.8,4.63,2.74,6.84,1.61,8.75-9.32,14.5-9.32,14.5l-121.98,47.1-3.54.11c-.19,2.12-.95,5.39-3.69,7.54.26-.07-3.25.33-3.36.38l2.95,1.22s73.53-25.15,146.99-55.71c1.12-.46,1.98-4.41,2.3-5.46,1.06-3.38,1.35-7.21.86-10.95Z"/>
                    <path class="cls-43" d="M244.52,256.61l-2.28-.93-.14.03.07-.05-2.06-.86,1.14-.67c.27-.16,2.59-.38,3.44-.46,2.38-1.96,3.1-4.85,3.28-6.96l.05-.58,4.02-.12,121.87-47.05s10.41-5.6,8.91-13.76c.04-2.4-.81-4.54-2.58-6.53-1.93-2.17-4.47-3.38-7.52-3.6-5.16-.36-10.05,2.27-10.11,2.29l-116.04,44.47-.29-.46c-.9-1.46-3.54-2.38-7.63-2.66-2.33-.16-4.68-.08-6.23.02l-.69.03-.08-3.13.43-.16c1.1-.45,110.45-44.88,140.83-53.23l.14-.04.13.02c1.17.17,2.38.51,3.34.78,5.23,1.45,10,4.36,13.44,8.2,2.85,3.19,4.76,7.63,5.38,12.52.5,3.86.19,7.75-.89,11.23-.04.16-.11.4-.19.7-.8,2.95-1.46,4.74-2.49,5.17-72.64,30.2-146.29,55.46-147.04,55.72l-.23.07ZM244.41,255.13l.16.06c4.66-1.59,76.17-26.26,146.72-55.6.29-.12.82-.96,1.73-4.29.09-.32.15-.58.21-.76,1-3.25,1.3-7.05.83-10.67-.59-4.63-2.39-8.83-5.06-11.81-3.27-3.65-7.81-6.43-12.8-7.81-.95-.26-2.01-.55-3.05-.72-29.53,8.16-132.63,49.92-140.13,52.96l.02.85c1.56-.08,3.63-.12,5.72.03,4.21.29,7.02,1.24,8.34,2.83l114.99-44.05c.13-.08,5.21-2.8,10.75-2.42,3.41.24,6.24,1.6,8.42,4.04,1.99,2.23,2.97,4.69,2.9,7.3,1.67,8.99-9.21,14.81-9.67,15.07l-122.27,47.17-2.96.09c-.29,2.24-1.16,5.11-3.59,7.17l.02.23-1.27.32Z"/>
                  </g>
                  <path class="cls-7" d="M382.28,191.9c-2.64,4.78-8.1,7.67-8.1,7.67l-121.98,47.1-3.54.11c-.19,2.12-.95,5.39-3.69,7.54.26-.07-3.25.33-3.36.38l2.95,1.22s73.53-25.15,146.99-55.71c1.12-.46,1.98-4.41,2.3-5.46.79-2.51,1.14-5.27,1.08-8.05-4.08,1.98-8.39,3.59-12.65,5.22Z"/>
                  <path class="cls-5" d="M239.93,218.15c2.67-1.13,5.33-2.31,7.99-3.49,6.52-2.9,13.09-5.62,19.73-8.25,20.38-8.08,40.69-16.33,61.28-23.89,16.6-6.1,33.27-11.95,49.86-18.09-.8-.31-1.6-.57-2.41-.81-1.06-.29-2.18-.59-3.26-.75-30.7,8.45-140.76,53.2-140.76,53.2l.05,2c2.23-.15,4.98-.18,7.53.09Z"/>
                </g>
                <g>
                  <g>
                    <g>
                      <path class="cls-19" d="M242.28,251.91c-6.32,1.87-10.84-6.24-13.21-13.57-2.61-8.09-.22-17.14,5.46-18.88,5.69-1.74,8.7,2.74,8.7,2.74.11,0,.23,0,.36.01l3.26-1.2s-1.38-5.07-6.67-6.38c-4.77-1.19-9.18,2.4-9.99,3.11-6.92,6.65-4.5,19.36-4.5,19.36,2.44,11.18,5.37,17.09,14.28,19.27,9.86,1.01,11.97-8.42,12.21-9.73l-3.51-2s-.07,5.4-6.4,7.25Z"/>
                      <path class="cls-42" d="M243.14,256.59c-1,.14-2.07.16-3.19.04-9.14-2.22-12.04-8.3-14.48-19.46,0-.04-.61-3.27-.35-7.26.25-3.71,1.29-8.85,4.91-12.33.76-.67,3.47-2.85,6.87-3.33,1.16-.17,2.27-.11,3.34.15,5.36,1.33,6.83,6.49,6.83,6.54.03.12-.03.24-.14.29l-3.26,1.21s-.07.02-.1.01h-.16c-.06,0-.14,0-.21-.01-.07-.02-.13-.05-.17-.11-.03-.04-2.5-3.61-7.05-2.96-.45.08-.91.18-1.38.32-1.91.57-3.51,2.04-4.64,4.22-2.02,3.87-2.28,9.38-.67,14.36,1.43,4.4,5.44,14.55,12,13.61.3-.04.61-.1.92-.19,6.07-1.79,6.22-6.82,6.23-7.04,0-.08.04-.16.12-.2.08-.05.16-.05.24,0l3.51,2c.09.05.13.16.12.25-.12.63-.6,2.81-1.96,4.98-1.76,2.81-4.22,4.46-7.33,4.91ZM236.98,214.73c-3.36.47-6.11,2.75-6.61,3.2-6.74,6.47-4.45,19.01-4.42,19.14,2.38,10.96,5.23,16.92,14.09,19.09,1.05.1,2.08.09,3.04-.05,2.96-.43,5.31-2,6.99-4.69,1.21-1.93,1.7-3.88,1.86-4.65l-3.04-1.73c-.16,1.3-1.11,5.51-6.53,7.11-.33.08-.66.17-.99.21-6.92,1-11.06-9.43-12.51-13.94-1.65-5.11-1.38-10.75.69-14.74,1.19-2.29,2.9-3.83,4.92-4.45.49-.15.98-.26,1.45-.33,4.42-.63,6.99,2.47,7.44,3.07h.06s.14.01.14.01l3-1.12c-.33-.95-1.93-4.9-6.42-6.01-1.01-.24-2.06-.29-3.16-.13Z"/>
                    </g>
                    <path class="cls-9" d="M248.68,244.66s-.07,5.4-6.4,7.25c-6.32,1.87-10.84-6.24-13.21-13.57-2.61-8.09-.22-17.14,5.46-18.88,5.69-1.74,8.7,2.74,8.7,2.74.11,0,.23,0,.36.01l3.26-1.2s-.87-3.22-3.9-5.19c.1.18.18.38.23.58.51,2.18-4.16,1.76-5.25,1.65-10.15-1.08-12,10.21-11.2,17.58.61,5.72,3.88,13.72,8.7,17.03,2.96,2.04,7.4,2,10.5-.25,1.28-.93,2.07-2.22,3.22-3.24.3-.28.68-.6.96-.15.4.64.04,1.78-.26,2.39-.43.86-1.25,1.55-2,2.11-2.27,1.65-4.91,2.76-7.72,2.89,9.72.88,11.8-8.45,12.05-9.74l-3.51-2Z"/>
                  </g>
                  <g>
                    <g>
                      <g>
                        <path class="cls-44" d="M354.87,192.39c.36,1.11-.96,2.21-2.93,2.48-1.97.24-3.85-.43-4.19-1.54-.35-1.1.96-2.21,2.94-2.47,1.97-.25,3.85.43,4.18,1.53Z"/>
                        <path class="cls-11" d="M352.04,195.08h-.07c-2.1.28-4.05-.46-4.43-1.68-.13-.41-.06-.85.19-1.24.46-.75,1.53-1.32,2.85-1.5h.07c2.1-.28,4.05.46,4.43,1.68.14.41.06.84-.18,1.24-.48.75-1.54,1.31-2.86,1.5ZM350.64,191.1c-1.17.17-2.15.66-2.55,1.3-.18.29-.23.58-.14.88.32.99,2.13,1.62,3.95,1.38l.08-.02c1.17-.16,2.15-.66,2.55-1.29.19-.29.24-.59.14-.88-.31-.98-2.13-1.62-3.95-1.38l-.08.02Z"/>
                      </g>
                      <path class="cls-11" d="M352.7,191.49c-.11-.07-.2.29-.08.37.14.12.29.24.41.37.33.35-.19.73-.37.86-.23.17-.53.26-.82.33-.64.15-1.4-.03-2.08-.32-.03-.02-.05.08-.02.11,1.12.72,2.11.78,3.08.15.8-.51.83-1.31-.11-1.87Z"/>
                      <path class="cls-1" d="M353.25,192.31c.17.53-.54,1.07-1.59,1.2-1.04.14-2.01-.18-2.18-.71-.17-.54.54-1.08,1.58-1.22,1.04-.14,2.02.18,2.19.72Z"/>
                      <path class="cls-13" d="M353.19,193.87c-1.59.23-3.36.61-5.02-.88-.05-.04-.07.08-.05.11,1.26,1.92,3.65,1.35,5.05.89.13-.03.18-.15.02-.13Z"/>
                      <path class="cls-13" d="M353.76,193.36l-.06.03c-.09.03-.15.11-.17.2-.02.07.02.19.11.13.04-.02.08-.05.13-.08.06-.04.16-.37,0-.28Z"/>
                    </g>
                    <g>
                      <g>
                        <path class="cls-44" d="M337.22,199.51c1.15.18,1.56,1.85.92,3.72-.64,1.88-2.09,3.27-3.23,3.08-1.15-.17-1.56-1.84-.92-3.72.64-1.87,2.09-3.26,3.23-3.08Z"/>
                        <path class="cls-11" d="M335.36,206.53c-.17.02-.33.02-.48,0-.44-.07-.79-.32-1.04-.72-.46-.78-.49-2-.05-3.28.58-1.71,1.84-3.07,2.99-3.23.17-.02.32-.02.48,0,.43.06.8.31,1.04.72.48.77.49,2,.05,3.28-.57,1.7-1.84,3.07-2.98,3.23ZM336.85,199.72c-.99.15-2.12,1.4-2.64,2.93-.39,1.16-.39,2.28,0,2.93.18.3.42.47.73.52.11.02.23.03.35,0,1-.14,2.1-1.38,2.64-2.93.39-1.15.39-2.28-.02-2.93-.18-.29-.42-.47-.73-.52-.11-.02-.22-.02-.34,0Z"/>
                      </g>
                      <path class="cls-11" d="M335.47,201.05c-.12.08.17.31.28.24.16-.09.33-.16.51-.22.47-.13.57.52.61.72.05.29,0,.59-.06.89-.14.64-.65,1.24-1.21,1.72-.03.03.06.09.09.08,1.14-.69,1.62-1.56,1.49-2.7-.11-.95-.81-1.33-1.71-.73Z"/>
                      <path class="cls-1" d="M336.42,200.93c.55.08.73.95.39,1.94-.34.99-1.05,1.73-1.61,1.64-.56-.08-.72-.95-.4-1.94.34-.99,1.06-1.73,1.61-1.64Z"/>
                      <path class="cls-13" d="M337.81,201.66c-.5,1.54-.94,3.29-3.01,4.13-.05.01.05.09.09.09,2.26-.28,2.8-2.67,3.03-4.14.02-.13-.06-.22-.11-.08Z"/>
                      <path class="cls-13" d="M337.59,200.93v.06c-.01.09.04.17.1.23.06.06.18.08.17-.03,0-.05,0-.09-.01-.14-.02-.08-.26-.31-.26-.12Z"/>
                    </g>
                    <g>
                      <g>
                        <path class="cls-44" d="M326.85,200.3c-.05,1.14-1.35,1.58-2.89.98-1.56-.59-2.77-2-2.73-3.15.05-1.14,1.35-1.58,2.9-.99,1.56.6,2.77,2.02,2.71,3.16Z"/>
                        <path class="cls-11" d="M325.64,201.71c-.53.08-1.14-.02-1.77-.26-1.64-.64-2.9-2.11-2.85-3.34.04-.77.57-1.3,1.41-1.42.52-.08,1.13.02,1.75.26,1.62.63,2.9,2.12,2.85,3.34-.03.76-.55,1.3-1.4,1.41ZM322.5,197.09c-.66.09-1.05.48-1.08,1.05-.05,1.06,1.12,2.38,2.59,2.96.57.21,1.11.29,1.57.23.66-.09,1.05-.48,1.07-1.04.06-1.05-1.11-2.39-2.59-2.96-.57-.22-1.1-.3-1.56-.24Z"/>
                      </g>
                      <path class="cls-11" d="M325.47,198.57c-.07-.11-.23.17-.16.29.08.16.14.34.2.5.15.47-.35.59-.51.62-.23.06-.48.02-.72-.04-.52-.13-1.03-.62-1.47-1.17-.02-.03-.06.05-.04.09.63,1.11,1.36,1.58,2.27,1.43.75-.12.99-.83.44-1.72Z"/>
                      <path class="cls-1" d="M325.65,199.53c-.02.54-.71.74-1.52.42-.82-.31-1.46-1.01-1.44-1.57.02-.55.7-.74,1.52-.42.82.31,1.47,1.01,1.44,1.57Z"/>
                      <path class="cls-13" d="M325.17,200.91c-1.25-.47-2.7-.87-3.53-2.92-.02-.05-.07.05-.06.09.4,2.26,2.36,2.74,3.55,2.94.1.02.18-.07.05-.11Z"/>
                      <path class="cls-13" d="M325.75,200.68h-.05c-.07,0-.14.03-.18.11-.04.06-.04.18.04.17.04,0,.08,0,.11-.02.07-.02.24-.26.08-.26Z"/>
                    </g>
                    <g>
                      <g>
                        <path class="cls-44" d="M311.44,205.33c1.11.19,1.42,1.61.71,3.17-.72,1.56-2.19,2.66-3.29,2.45-1.09-.19-1.41-1.6-.69-3.17.71-1.54,2.19-2.64,3.28-2.46Z"/>
                        <path class="cls-11" d="M309.4,211.16c-.2.03-.39.03-.57,0-.45-.07-.79-.34-1.02-.74-.35-.68-.28-1.69.18-2.7.62-1.37,1.83-2.42,2.93-2.59.19-.02.38-.02.57.01.44.08.8.33,1.02.75.35.68.29,1.68-.19,2.69-.62,1.36-1.82,2.42-2.92,2.58ZM310.98,205.53c-.96.14-2.06,1.12-2.63,2.34-.42.91-.49,1.78-.18,2.35.15.3.4.49.73.54.14.03.29.03.44,0,.96-.14,2.06-1.13,2.63-2.36.41-.89.49-1.77.18-2.34-.16-.3-.41-.48-.74-.55-.14-.02-.28-.02-.44,0Z"/>
                      </g>
                      <path class="cls-11" d="M309.66,206.55c-.11.07.15.26.28.22.16-.06.33-.11.5-.15.46-.1.53.45.56.62.04.24-.03.49-.11.73-.18.54-.7,1.02-1.26,1.41-.03.02.05.08.08.06,1.14-.53,1.65-1.23,1.58-2.2-.05-.8-.71-1.14-1.62-.68Z"/>
                      <path class="cls-1" d="M310.6,206.5c.53.1.66.83.28,1.66-.38.81-1.11,1.4-1.64,1.31-.52-.09-.65-.83-.27-1.65.38-.82,1.11-1.41,1.63-1.32Z"/>
                      <path class="cls-13" d="M311.9,207.17c-.56,1.26-1.08,2.72-3.12,3.35-.05.02.04.08.07.07,2.22-.15,2.85-2.13,3.15-3.35.03-.1-.05-.2-.11-.07Z"/>
                      <path class="cls-13" d="M311.73,206.54v.05c-.03.07.02.15.08.2.05.06.17.08.17-.02,0-.04,0-.09,0-.13-.02-.06-.24-.26-.24-.11Z"/>
                    </g>
                    <g>
                      <g>
                        <path class="cls-44" d="M315.89,209.75c1.23-.05,1.9,1.39,1.52,3.22-.39,1.84-1.69,3.38-2.91,3.44-1.23.05-1.9-1.39-1.52-3.22.39-1.83,1.7-3.38,2.91-3.44Z"/>
                        <path class="cls-11" d="M314.67,216.61s-.1.01-.17,0c-.5.03-.94-.17-1.26-.56-.55-.64-.72-1.73-.47-2.92.41-1.94,1.78-3.54,3.12-3.6.5-.03.94.17,1.27.55.54.64.72,1.73.47,2.92-.4,1.86-1.67,3.4-2.96,3.59ZM315.78,209.98c-1.1.16-2.24,1.59-2.59,3.25-.22,1.06-.09,2.02.37,2.55.24.29.55.42.92.41,1.15-.05,2.35-1.54,2.71-3.26.23-1.06.09-2.01-.37-2.55-.24-.29-.55-.42-.91-.39-.04,0-.09,0-.12,0Z"/>
                      </g>
                      <path class="cls-11" d="M314.29,211.51c-.11.08.21.24.33.15.16-.1.32-.19.51-.29.46-.21.67.35.74.53.1.25.09.54.07.82-.05.61-.49,1.25-1.01,1.81-.03.03.06.07.1.04,1.08-.83,1.46-1.73,1.15-2.74-.25-.83-1.04-1.04-1.89-.32Z"/>
                      <path class="cls-1" d="M315.27,211.21c.58-.03.9.72.7,1.69-.21.97-.85,1.78-1.44,1.81-.58.03-.89-.73-.7-1.7.21-.97.84-1.78,1.44-1.8Z"/>
                      <path class="cls-13" d="M316.82,211.61c-.29,1.49-.49,3.18-2.53,4.34-.04.03.06.08.11.07,2.33-.7,2.54-2.98,2.56-4.36,0-.12-.11-.19-.14-.05Z"/>
                      <path class="cls-13" d="M316.48,210.99l.02.06c0,.08.05.15.14.2.07.04.2.04.17-.07,0-.04-.03-.08-.04-.13-.02-.06-.31-.24-.28-.06Z"/>
                    </g>
                    <g>
                      <g>
                        <path class="cls-44" d="M296.21,216.45c1.37-.32,2.44,1.17,2.38,3.34-.06,2.16-1.22,4.17-2.6,4.49-1.37.32-2.44-1.16-2.38-3.34.07-2.16,1.22-4.17,2.6-4.49Z"/>
                        <path class="cls-11" d="M295.9,224.54c-.55.09-1.04-.08-1.47-.45-.69-.62-1.1-1.81-1.06-3.16.06-2.29,1.28-4.38,2.79-4.73.6-.13,1.16.02,1.63.43.69.62,1.1,1.81,1.06,3.15-.07,2.3-1.29,4.39-2.79,4.73-.05.02-.1.02-.16.03ZM296.4,216.66s-.08.02-.12.02c-1.28.3-2.35,2.21-2.41,4.26-.03,1.22.3,2.25.9,2.78.35.31.75.41,1.18.31,1.28-.3,2.35-2.2,2.41-4.26.03-1.22-.3-2.24-.9-2.77-.31-.28-.67-.4-1.06-.35Z"/>
                      </g>
                      <path class="cls-11" d="M294.75,218.76c-.11.13.29.22.41.12.15-.15.32-.3.51-.43.49-.35.83.25.95.44.16.27.2.59.24.91.06.71-.29,1.53-.75,2.26-.03.04.09.07.11.03,1.06-1.18,1.3-2.25.76-3.35-.47-.9-1.42-.97-2.23.02Z"/>
                      <path class="cls-1" d="M295.8,218.22c.66-.16,1.17.65,1.14,1.79-.03,1.14-.59,2.18-1.25,2.34-.66.16-1.17-.65-1.14-1.78.03-1.15.59-2.2,1.25-2.34Z"/>
                      <path class="cls-13" d="M297.65,218.36c-.01,1.75.1,3.71-1.97,5.45-.05.04.09.08.14.05,2.5-1.26,2.27-3.89,2-5.46-.02-.14-.16-.21-.16-.03Z"/>
                      <path class="cls-13" d="M297.14,217.71l.03.07c.01.1.1.17.19.21.09.02.23,0,.18-.12-.02-.05-.04-.1-.08-.14-.04-.07-.41-.19-.33-.02Z"/>
                    </g>
                    <g>
                      <g>
                        <path class="cls-44" d="M281.15,213.85c1.11.5,1.01,2.02-.23,3.4-1.24,1.37-3.15,2.08-4.26,1.59-1.12-.49-1.02-2,.22-3.38,1.24-1.39,3.16-2.09,4.27-1.61Z"/>
                        <path class="cls-11" d="M277.93,219.17c-.52.08-.98.03-1.36-.14-.46-.2-.76-.57-.86-1.06-.17-.78.21-1.77,1.02-2.66.86-.94,2.07-1.62,3.16-1.79.51-.07.97-.03,1.36.15.45.21.75.57.85,1.05.17.78-.21,1.78-1.01,2.67-.86.95-2.06,1.63-3.15,1.78ZM279.94,213.95c-1,.13-2.11.76-2.9,1.64-.72.79-1.06,1.66-.93,2.3.08.35.28.61.62.75.3.12.69.17,1.12.11.99-.15,2.1-.78,2.89-1.65.72-.79,1.06-1.65.92-2.3-.08-.35-.28-.6-.61-.75-.31-.14-.69-.18-1.12-.11Z"/>
                      </g>
                      <path class="cls-11" d="M278.86,214.61c-.14.03.08.3.22.29.2-.02.4-.03.59-.02.52.03.42.6.39.77-.04.25-.18.5-.34.72-.34.49-1.05.84-1.77,1.06-.04.02.02.1.06.09,1.37-.23,2.14-.79,2.37-1.79.18-.83-.41-1.36-1.53-1.13Z"/>
                      <path class="cls-1" d="M279.89,214.8c.53.24.44,1.02-.21,1.75-.66.72-1.62,1.13-2.15.88-.55-.23-.45-1.01.22-1.74.65-.73,1.61-1.13,2.15-.89Z"/>
                      <path class="cls-13" d="M281.07,215.83c-.99,1.12-1.99,2.45-4.37,2.53-.06,0,.02.09.06.11,2.42.44,3.71-1.38,4.4-2.54.05-.1,0-.2-.09-.1Z"/>
                      <path class="cls-13" d="M281.08,215.15l-.03.06c-.04.07-.02.15.03.22.05.06.16.12.18.03.01-.05.03-.09.03-.14,0-.07-.16-.34-.22-.18Z"/>
                    </g>
                    <g>
                      <g>
                        <path class="cls-44" d="M283.86,220.82c1.22-.08,1.83,1.32,1.35,3.12-.47,1.79-1.84,3.3-3.05,3.37s-1.83-1.32-1.35-3.12c.46-1.78,1.84-3.3,3.05-3.37Z"/>
                        <path class="cls-11" d="M282.32,227.5s-.1.01-.15.02c-.51.03-.94-.16-1.25-.55-.51-.61-.62-1.68-.31-2.84.48-1.86,1.94-3.46,3.25-3.54.5-.02.93.16,1.24.54.52.61.63,1.68.33,2.84-.48,1.79-1.84,3.33-3.11,3.51ZM283.76,221.05c-1.12.15-2.31,1.56-2.75,3.2-.27,1.04-.18,1.96.24,2.47.23.27.53.4.89.37,1.15-.06,2.42-1.51,2.87-3.21.27-1.03.19-1.94-.24-2.46-.22-.27-.52-.41-.89-.38-.04,0-.09,0-.12.01Z"/>
                      </g>
                      <path class="cls-11" d="M282.18,222.54c-.11.08.21.22.33.16.16-.12.33-.2.52-.3.47-.21.65.33.71.51.07.25.06.52.01.79-.08.6-.54,1.23-1.07,1.77-.03.03.06.07.09.04,1.12-.83,1.54-1.69,1.28-2.68-.21-.82-.99-1.01-1.88-.3Z"/>
                      <path class="cls-1" d="M283.17,222.24c.58-.03.86.7.61,1.65-.24.94-.92,1.74-1.51,1.77-.58.04-.85-.71-.61-1.65.25-.94.93-1.74,1.51-1.77Z"/>
                      <path class="cls-13" d="M284.7,222.62c-.36,1.45-.64,3.1-2.72,4.26-.05.03.06.07.09.06,2.36-.7,2.67-2.92,2.75-4.27,0-.11-.09-.19-.12-.05Z"/>
                      <path class="cls-13" d="M284.4,222v.06c0,.09.06.15.14.19.07.03.18.03.17-.06,0-.04-.02-.09-.03-.13-.03-.06-.31-.22-.28-.06Z"/>
                    </g>
                    <g>
                      <g>
                        <path class="cls-44" d="M273.45,222.18c1.32.3,1.57,2.06.53,3.92-1.03,1.86-2.94,3.09-4.26,2.78-1.32-.32-1.55-2.08-.53-3.93,1.04-1.85,2.95-3.1,4.27-2.77Z"/>
                        <path class="cls-11" d="M270.52,229.15c-.3.04-.6.03-.86-.03-.53-.13-.93-.47-1.15-.98-.37-.85-.2-2.09.48-3.3.87-1.55,2.35-2.73,3.68-2.93.31-.04.59-.03.85.04.54.12.94.45,1.16.97.38.85.2,2.09-.48,3.3-.87,1.56-2.35,2.74-3.67,2.93ZM272.73,222.39c-1.17.17-2.55,1.28-3.33,2.68-.6,1.06-.77,2.16-.46,2.87.16.37.44.61.83.7.2.06.43.06.68.03,1.17-.16,2.53-1.26,3.32-2.68.59-1.07.77-2.17.46-2.87-.16-.37-.43-.61-.82-.7-.21-.05-.43-.06-.67-.03Z"/>
                      </g>
                      <path class="cls-11" d="M271.15,223.55c-.14.06.15.32.3.28.21-.07.42-.11.63-.15.58-.08.6.58.62.79.01.31-.08.6-.21.9-.27.64-.95,1.2-1.68,1.62-.04.02.04.1.08.08,1.44-.56,2.15-1.4,2.16-2.57.01-.98-.76-1.46-1.91-.95Z"/>
                      <path class="cls-1" d="M272.3,223.54c.63.14.71,1.06.17,2.05-.54.98-1.5,1.64-2.14,1.49-.63-.15-.71-1.06-.17-2.04.55-.98,1.5-1.65,2.14-1.49Z"/>
                      <path class="cls-13" d="M273.82,224.45c-.82,1.52-1.6,3.27-4.17,3.88-.07.02.03.11.09.1,2.71-.02,3.71-2.41,4.19-3.88.04-.14-.05-.25-.12-.1Z"/>
                      <path class="cls-13" d="M273.68,223.68l-.02.07c-.03.08.02.18.08.26.07.05.2.09.21-.02,0-.05,0-.1,0-.15,0-.08-.25-.35-.28-.15Z"/>
                    </g>
                    <g>
                      <g>
                        <path class="cls-44" d="M254.78,227c1.43.04,2.05,1.8,1.39,3.92-.65,2.12-2.35,3.82-3.77,3.77-1.42-.03-2.05-1.78-1.39-3.91.66-2.12,2.36-3.81,3.77-3.78Z"/>
                        <path class="cls-11" d="M252.75,234.94c-.13,0-.24.01-.36.01-.58-.02-1.06-.27-1.4-.75-.56-.8-.65-2.11-.22-3.5.69-2.2,2.48-3.98,4.02-3.95.58,0,1.07.27,1.41.75.56.8.65,2.1.21,3.5-.63,2.03-2.21,3.72-3.66,3.93ZM254.5,227.27c-1.27.19-2.67,1.73-3.25,3.59-.37,1.22-.32,2.38.15,3.04.24.34.58.53,1,.54,1.34.03,2.91-1.6,3.52-3.6.38-1.21.33-2.38-.14-3.04-.25-.34-.59-.53-1.01-.54-.09,0-.18,0-.27.01Z"/>
                      </g>
                      <path class="cls-11" d="M252.71,228.92c-.13.1.23.29.38.22.2-.12.4-.21.61-.3.58-.21.75.46.81.69.08.31.05.64-.02.97-.13.72-.71,1.43-1.37,2.04-.03.02.07.08.11.06,1.35-.89,1.89-1.9,1.65-3.12-.19-1.01-1.09-1.33-2.17-.56Z"/>
                      <path class="cls-1" d="M253.89,228.65c.69.03.96.95.62,2.06-.34,1.13-1.19,2.01-1.87,2-.68-.02-.96-.94-.62-2.06.35-1.12,1.19-2.01,1.87-2Z"/>
                      <path class="cls-13" d="M255.65,229.27c-.51,1.73-.94,3.69-3.43,4.88-.07.03.07.1.11.08,2.79-.6,3.3-3.27,3.48-4.89,0-.14-.1-.25-.15-.07Z"/>
                      <path class="cls-13" d="M255.34,228.5v.07c-.01.09.06.18.14.24.08.06.23.06.2-.06,0-.05-.01-.1-.03-.16-.03-.07-.34-.31-.31-.09Z"/>
                    </g>
                    <g>
                      <g>
                        <path class="cls-44" d="M266.49,233.95c1.19.74.62,2.37-1.29,3.62-1.9,1.26-4.39,1.67-5.59.92-1.18-.75-.6-2.36,1.3-3.62,1.9-1.25,4.39-1.67,5.57-.92Z"/>
                        <path class="cls-11" d="M262.04,239.06c-1.05.15-1.95.02-2.54-.35-.47-.29-.73-.72-.73-1.24-.01-.91.74-1.95,2.01-2.79,1-.66,2.17-1.11,3.31-1.28,1.05-.14,1.94-.02,2.54.36.47.29.72.72.73,1.25,0,.91-.75,1.94-2.02,2.79-.99.66-2.16,1.11-3.3,1.27ZM264.16,233.89c-1.05.15-2.19.59-3.11,1.2-1.1.74-1.8,1.65-1.79,2.38,0,.34.18.63.5.83.5.32,1.27.41,2.21.28,1.05-.16,2.17-.59,3.09-1.2,1.12-.73,1.8-1.65,1.8-2.37,0-.34-.18-.62-.5-.83-.5-.31-1.27-.41-2.21-.27Z"/>
                      </g>
                      <path class="cls-11" d="M263.54,234.34c-.17,0,0,.34.18.35.24.02.47.04.71.09.61.12.32.72.25.91-.13.27-.37.5-.63.71-.57.48-1.51.71-2.45.84-.05,0,0,.1.05.09,1.72.02,2.81-.46,3.38-1.49.47-.86-.09-1.55-1.49-1.51Z"/>
                      <path class="cls-1" d="M264.7,234.74c.58.35.22,1.17-.77,1.84-1.01.67-2.28.91-2.85.55-.57-.36-.22-1.19.78-1.84,1-.67,2.27-.91,2.83-.55Z"/>
                      <path class="cls-13" d="M265.81,236.08c-1.52,1.03-3.12,2.28-5.98,1.91-.07,0-.02.12.03.13,2.75.95,4.85-.8,6.03-1.92.1-.09.08-.22-.08-.12Z"/>
                      <path class="cls-13" d="M266.03,235.35l-.05.05c-.07.07-.06.16-.03.25.04.08.15.16.21.06.02-.04.05-.08.07-.13.03-.07-.1-.4-.21-.23Z"/>
                    </g>
                    <g>
                      <g>
                        <path class="cls-44" d="M247.79,225.01c1.18.75.61,2.38-1.3,3.63-1.89,1.25-4.39,1.67-5.58.92s-.6-2.38,1.3-3.62c1.89-1.26,4.39-1.68,5.58-.93Z"/>
                        <path class="cls-11" d="M243.33,230.12c-1.05.15-1.96.02-2.54-.35-.48-.3-.73-.73-.73-1.25-.01-.91.74-1.95,2.01-2.8,1-.66,2.17-1.1,3.3-1.26,1.06-.16,1.96-.03,2.55.34.48.3.72.73.73,1.25,0,.9-.75,1.95-2.02,2.78-1,.67-2.17,1.12-3.3,1.28ZM245.44,224.96c-1.05.15-2.18.59-3.1,1.2-1.11.73-1.8,1.64-1.79,2.37,0,.35.16.63.5.83.49.32,1.27.41,2.21.28,1.05-.14,2.17-.59,3.09-1.19,1.12-.74,1.8-1.65,1.79-2.37,0-.35-.16-.64-.49-.84-.5-.31-1.29-.4-2.22-.27Z"/>
                      </g>
                      <path class="cls-11" d="M244.83,225.41c-.18,0,0,.34.17.35.24.02.47.05.71.09.61.12.33.73.25.92-.12.27-.36.49-.63.72-.56.46-1.5.71-2.44.82-.05,0,0,.1.06.11,1.72.02,2.8-.46,3.37-1.5.48-.86-.09-1.54-1.48-1.51Z"/>
                      <path class="cls-1" d="M245.99,225.81c.57.36.22,1.18-.78,1.85-1,.66-2.27.9-2.85.55-.56-.36-.22-1.18.78-1.85,1-.66,2.27-.91,2.84-.55Z"/>
                      <path class="cls-13" d="M247.09,227.14c-1.51,1.04-3.12,2.28-5.99,1.92-.07-.02,0,.11.05.12,2.75.95,4.85-.79,6.03-1.91.1-.09.07-.22-.09-.12Z"/>
                      <path class="cls-13" d="M247.32,226.41l-.04.06c-.08.06-.08.16-.04.24.04.08.15.16.21.07.03-.05.05-.09.07-.14.04-.07-.1-.39-.2-.23Z"/>
                    </g>
                    <g>
                      <g>
                        <path class="cls-44" d="M263.52,220.14c1.18.66.79,2.31-.86,3.69-1.66,1.38-3.96,1.95-5.13,1.29-1.18-.66-.79-2.31.87-3.69,1.65-1.38,3.95-1.96,5.11-1.29Z"/>
                        <path class="cls-11" d="M259.39,225.59c-.8.11-1.48.03-1.97-.26-.47-.27-.75-.68-.8-1.2-.07-.89.53-1.97,1.64-2.89.99-.81,2.27-1.4,3.41-1.56.79-.11,1.47-.02,1.97.25.48.27.75.69.8,1.21.08.89-.53,1.96-1.64,2.88-.99.83-2.27,1.41-3.41,1.58ZM261.74,220.14c-1.06.16-2.25.71-3.18,1.47-.96.81-1.53,1.75-1.46,2.47.03.37.21.63.55.83.4.22.98.29,1.66.19,1.07-.16,2.26-.7,3.18-1.47.96-.79,1.52-1.74,1.46-2.46-.03-.35-.21-.64-.55-.83-.4-.23-.98-.29-1.67-.2Z"/>
                      </g>
                      <path class="cls-11" d="M260.8,220.73c-.16,0,.03.33.19.34.23,0,.45,0,.67.04.59.08.38.7.31.89-.09.27-.29.51-.52.75-.48.5-1.34.8-2.2.98-.04,0,.01.11.07.1,1.59-.09,2.56-.64,3.01-1.7.36-.89-.23-1.53-1.53-1.4Z"/>
                      <path class="cls-1" d="M261.93,221.04c.56.32.32,1.16-.57,1.88-.87.73-2.03,1.07-2.6.74-.57-.32-.31-1.17.56-1.9.88-.73,2.04-1.05,2.61-.73Z"/>
                      <path class="cls-13" d="M263.07,222.3c-1.32,1.14-2.7,2.48-5.41,2.31-.07,0,0,.1.06.12,2.65.75,4.45-1.12,5.44-2.31.09-.11.05-.23-.08-.12Z"/>
                      <path class="cls-13" d="M263.22,221.56l-.04.06c-.06.07-.05.18-.02.26.05.06.17.13.21.05.02-.05.05-.09.06-.14.02-.07-.13-.39-.21-.22Z"/>
                    </g>
                    <g>
                      <g>
                        <path class="cls-44" d="M243.48,240.55c1.2.34,1.26,2.01.16,3.74-1.12,1.71-2.98,2.84-4.17,2.5-1.19-.34-1.26-2.02-.15-3.74,1.1-1.71,2.97-2.84,4.16-2.5Z"/>
                        <path class="cls-11" d="M240.26,247.05c-.31.04-.6.03-.87-.05-.45-.14-.8-.45-.97-.91-.31-.82-.05-2.01.69-3.16.91-1.41,2.34-2.48,3.56-2.65.31-.04.6-.02.87.05.47.14.8.45.97.91.32.82.05,2-.7,3.16-.9,1.41-2.33,2.47-3.56,2.64ZM242.74,240.74c-1.08.15-2.41,1.16-3.23,2.44-.66,1.02-.91,2.08-.66,2.76.12.32.34.53.67.62.2.06.43.07.68.04,1.09-.16,2.4-1.14,3.24-2.44.65-1.02.9-2.09.64-2.76-.12-.32-.35-.53-.67-.62-.2-.06-.43-.07-.68-.04Z"/>
                      </g>
                      <path class="cls-11" d="M241.24,241.79c-.14.05.11.32.26.28.19-.06.39-.1.59-.13.53-.07.5.57.49.77,0,.29-.12.57-.26.85-.3.6-.97,1.1-1.69,1.48-.03.03.03.1.07.09,1.38-.5,2.1-1.25,2.22-2.39.1-.92-.58-1.4-1.68-.95Z"/>
                      <path class="cls-1" d="M242.3,241.81c.57.16.56,1.03-.02,1.94-.59.9-1.52,1.51-2.11,1.35-.57-.17-.56-1.04.02-1.95.58-.9,1.52-1.51,2.1-1.34Z"/>
                      <path class="cls-13" d="M243.61,242.72c-.87,1.41-1.75,3.04-4.16,3.54-.07.02.02.11.07.11,2.51.06,3.63-2.16,4.2-3.56.05-.11-.02-.23-.11-.09Z"/>
                      <path class="cls-13" d="M243.55,241.98l-.02.06c-.04.08,0,.18.06.24.04.06.17.09.19,0,.01-.05.02-.09.02-.14,0-.08-.21-.33-.25-.16Z"/>
                    </g>
                    <g>
                      <g>
                        <path class="cls-44" d="M235.07,230.5c1.04-.64,2.34.27,2.94,2.03.59,1.77.23,3.72-.8,4.37-1.03.65-2.35-.26-2.94-2.02-.58-1.77-.23-3.72.8-4.38Z"/>
                        <path class="cls-11" d="M236.71,237.31c-1.04.16-2.13-.82-2.64-2.36-.63-1.89-.24-3.93.88-4.62.2-.13.4-.2.61-.24,1.05-.14,2.13.83,2.65,2.37.62,1.89.24,3.91-.89,4.62-.2.12-.4.21-.61.23ZM235.63,230.52c-.15.02-.29.09-.43.17-.95.6-1.28,2.45-.72,4.12.54,1.6,1.72,2.47,2.62,1.91.95-.6,1.27-2.44.72-4.12-.45-1.34-1.34-2.2-2.18-2.08Z"/>
                      </g>
                      <path class="cls-11" d="M234.56,232.8c-.05.12.3.1.38-.03.08-.17.17-.33.28-.49.3-.42.77-.02.91.09.22.16.36.41.47.67.26.54.21,1.31.05,2.03-.01.04.09.04.1,0,.52-1.26.4-2.2-.37-2.91-.64-.61-1.44-.4-1.81.64Z"/>
                      <path class="cls-1" d="M235.27,232.06c.49-.32,1.15.19,1.46,1.11.32.94.17,1.94-.33,2.26-.5.32-1.15-.2-1.47-1.13-.31-.92-.16-1.93.34-2.25Z"/>
                      <path class="cls-13" d="M236.82,231.65c.49,1.42,1.17,2.96-.01,4.96-.04.05.09.04.13,0,1.67-1.74.69-3.79.02-5-.05-.1-.18-.11-.14.03Z"/>
                      <path class="cls-13" d="M236.21,231.26l.04.05c.03.07.13.1.22.11.09,0,.19-.07.13-.13-.04-.05-.07-.08-.11-.1-.06-.05-.39-.05-.27.09Z"/>
                    </g>
                    <g>
                      <g>
                        <path class="cls-44" d="M302.56,202.52c1.21.4,1.23,1.98.08,3.51-1.15,1.54-3.06,2.45-4.26,2.04-1.19-.4-1.23-1.98-.07-3.51,1.15-1.54,3.07-2.45,4.25-2.04Z"/>
                        <path class="cls-11" d="M299.43,208.37c-.42.06-.79.03-1.12-.08-.5-.17-.83-.53-.99-1.01-.24-.79.06-1.86.81-2.85.88-1.16,2.21-2.03,3.39-2.19.42-.07.79-.04,1.12.08.5.17.83.52.99,1,.23.81-.06,1.88-.81,2.87-.88,1.16-2.21,2.02-3.39,2.19ZM301.59,202.68c-1.08.15-2.29.94-3.1,2.02-.66.88-.94,1.8-.74,2.46.11.35.34.6.71.71.26.09.56.11.9.06,1.08-.15,2.3-.94,3.1-2.02.66-.88.95-1.8.74-2.45-.11-.35-.34-.6-.71-.71-.26-.09-.56-.11-.9-.06Z"/>
                      </g>
                      <path class="cls-11" d="M300.28,203.5c-.14.04.1.31.25.28.2-.03.4-.06.61-.08.54-.02.5.58.49.77-.02.27-.14.53-.29.78-.31.54-1,.96-1.73,1.27-.03.02.03.1.07.08,1.4-.36,2.14-1.01,2.29-2.07.12-.86-.55-1.37-1.68-1.03Z"/>
                      <path class="cls-1" d="M301.35,203.61c.57.19.55,1.01-.07,1.83-.61.8-1.56,1.3-2.14,1.1-.57-.19-.55-1.01.06-1.82.61-.82,1.57-1.31,2.15-1.12Z"/>
                      <path class="cls-13" d="M302.67,204.57c-.93,1.25-1.84,2.72-4.29,3.02-.06,0,.02.1.07.1,2.54.24,3.72-1.77,4.32-3.03.05-.1-.02-.2-.1-.09Z"/>
                      <path class="cls-13" d="M302.61,203.87v.05c-.05.08-.03.16.03.23.06.06.18.11.2.01.01-.05.02-.1.02-.14,0-.08-.21-.33-.25-.16Z"/>
                    </g>
                    <g>
                      <g>
                        <path class="cls-44" d="M359.96,182.76c.91.61.58,2.21-.74,3.55-1.32,1.35-3.13,1.94-4.06,1.32-.91-.61-.57-2.21.75-3.55,1.33-1.33,3.14-1.94,4.05-1.32Z"/>
                        <path class="cls-11" d="M356.48,188.05c-.57.08-1.06,0-1.42-.25-.35-.23-.55-.59-.59-1.03-.09-.85.4-1.91,1.31-2.83.85-.87,1.93-1.46,2.89-1.6.58-.08,1.07,0,1.42.25.35.23.55.59.6,1.05.09.84-.4,1.89-1.32,2.81-.85.87-1.93,1.47-2.89,1.61ZM358.73,182.75c-.88.13-1.87.68-2.66,1.47-.82.82-1.27,1.78-1.2,2.5.04.32.18.57.43.73.27.18.66.25,1.13.18.88-.11,1.87-.67,2.66-1.47.8-.82,1.27-1.78,1.19-2.5-.03-.32-.16-.57-.41-.73-.28-.18-.67-.25-1.13-.18Z"/>
                      </g>
                      <path class="cls-11" d="M357.81,183.36c-.13.02.02.32.15.32.18,0,.35,0,.53.04.45.06.29.66.23.85-.08.27-.24.5-.42.72-.39.49-1.07.8-1.75.98-.04,0,0,.1.05.1,1.26-.12,2.03-.67,2.39-1.69.3-.84-.16-1.46-1.18-1.32Z"/>
                      <path class="cls-1" d="M358.7,183.64c.43.29.22,1.1-.47,1.83-.7.71-1.63,1.05-2.06.74-.44-.3-.23-1.11.47-1.82.7-.71,1.62-1.05,2.07-.75Z"/>
                      <path class="cls-13" d="M359.58,184.83c-1.05,1.1-2.16,2.42-4.29,2.3-.05,0,0,.09.04.1,2.07.69,3.53-1.15,4.33-2.3.07-.1.04-.23-.07-.11Z"/>
                      <path class="cls-13" d="M359.71,184.12l-.03.05c-.05.08-.04.17,0,.25.02.08.11.14.15.04.02-.04.03-.09.05-.13.02-.07-.1-.37-.16-.21Z"/>
                    </g>
                    <g>
                      <g>
                        <path class="cls-44" d="M376.63,186.82c.5.97-.55,2.19-2.36,2.74-1.81.54-3.68.17-4.19-.8-.5-.98.55-2.22,2.37-2.75,1.81-.54,3.69-.17,4.18.81Z"/>
                        <path class="cls-11" d="M373.43,189.96c-1.66.24-3.07-.2-3.52-1.09-.19-.38-.2-.79-.03-1.2.34-.79,1.28-1.48,2.52-1.85.3-.09.6-.15.91-.2,1.62-.23,3.07.22,3.53,1.1.18.38.2.79.02,1.2-.35.78-1.29,1.48-2.52,1.84-.3.09-.6.15-.9.19ZM373.36,186.03c-.29.04-.57.1-.85.19-1.1.32-1.96.94-2.24,1.6-.14.31-.14.59,0,.85.37.71,1.67,1.08,3.1.88.29-.03.57-.11.84-.18,1.11-.33,1.97-.95,2.26-1.61.12-.3.12-.59-.02-.85-.36-.71-1.67-1.08-3.1-.88Z"/>
                      </g>
                      <path class="cls-11" d="M374.46,186.31c-.12-.05-.14.29-.02.35.15.08.3.17.45.28.37.28-.07.72-.2.86-.2.19-.46.33-.72.44-.57.24-1.32.18-2.01.02-.04-.01-.04.08,0,.1,1.17.51,2.11.41,2.91-.32.68-.59.58-1.35-.39-1.71Z"/>
                      <path class="cls-1" d="M375.09,186.98c.25.47-.33,1.08-1.29,1.36-.95.29-1.93.13-2.17-.34-.24-.47.34-1.08,1.3-1.37.95-.28,1.92-.13,2.16.35Z"/>
                      <path class="cls-13" d="M375.3,188.45c-1.46.46-3.06,1.07-4.87-.06-.05-.04-.05.08-.03.11,1.49,1.59,3.64.69,4.9.08.11-.05.14-.17,0-.13Z"/>
                      <path class="cls-13" d="M375.75,187.88l-.05.03c-.08.04-.12.12-.14.21,0,.07.05.17.13.11.04-.03.08-.06.1-.09.05-.05.09-.37-.05-.26Z"/>
                    </g>
                    <g>
                      <g>
                        <path class="cls-44" d="M375.58,181.71c-.22,1.25-1.93,1.57-3.81.7-1.88-.86-3.22-2.57-2.99-3.81.23-1.25,1.93-1.57,3.81-.7,1.88.85,3.23,2.56,2.99,3.81Z"/>
                        <path class="cls-11" d="M374.23,183.1c-.75.1-1.66-.06-2.56-.48-2-.92-3.37-2.7-3.12-4.06.14-.74.71-1.22,1.59-1.35.74-.1,1.65.06,2.55.47,2,.92,3.37,2.7,3.13,4.06-.13.74-.72,1.23-1.58,1.35ZM370.2,177.67c-.39.06-1.06.26-1.19.98-.2,1.12,1.1,2.76,2.86,3.55.82.38,1.63.54,2.29.44.39-.05,1.06-.26,1.2-.97.2-1.12-1.11-2.76-2.86-3.55-.81-.38-1.64-.53-2.29-.44Z"/>
                      </g>
                      <path class="cls-11" d="M374.1,179.64c-.08-.13-.31.16-.26.3.08.18.14.37.19.57.12.53-.54.59-.74.61-.3.03-.6-.04-.9-.13-.64-.23-1.23-.82-1.69-1.47-.03-.03-.1.04-.08.09.65,1.31,1.51,1.91,2.67,1.86.95-.04,1.38-.79.81-1.83Z"/>
                      <path class="cls-1" d="M374.18,180.72c-.12.59-1,.72-2,.27-.98-.45-1.7-1.31-1.59-1.9.11-.6,1-.73,1.99-.28.99.45,1.7,1.31,1.6,1.92Z"/>
                      <path class="cls-13" d="M373.37,182.17c-1.53-.68-3.29-1.3-4.06-3.66-.02-.05-.09.05-.1.09.19,2.53,2.6,3.32,4.08,3.69.12.04.23-.05.08-.12Z"/>
                      <path class="cls-13" d="M374.13,182l-.07-.02c-.08-.02-.18.03-.24.1-.06.06-.08.19.03.18.05,0,.11,0,.16-.01.07,0,.32-.26.14-.26Z"/>
                    </g>
                    <g>
                      <g>
                        <path class="cls-44" d="M337.75,191.22c1.02.48.9,2.1-.25,3.63-1.16,1.53-2.93,2.38-3.95,1.89-1.01-.47-.9-2.09.26-3.61,1.16-1.53,2.93-2.38,3.94-1.91Z"/>
                        <path class="cls-11" d="M334.54,197.07c-.42.05-.78.01-1.08-.13-.39-.19-.65-.5-.76-.95-.2-.83.16-1.94.94-2.99.85-1.12,2.08-1.94,3.13-2.09.4-.06.76-.01,1.08.13.38.18.65.51.76.95.21.84-.15,1.95-.93,2.99-.86,1.13-2.08,1.94-3.13,2.1ZM336.83,191.33c-.94.13-2.07.89-2.86,1.93-.7.93-1.04,1.93-.86,2.63.08.32.25.54.53.67.23.11.51.14.84.1.94-.14,2.06-.89,2.86-1.94.69-.92,1.04-1.93.85-2.62-.07-.33-.25-.55-.52-.68-.23-.1-.51-.13-.83-.08Z"/>
                      </g>
                      <path class="cls-11" d="M335.64,192.14c-.12.03.07.31.2.29.18-.02.36-.04.54-.05.47.01.38.62.36.81-.05.28-.18.54-.34.79-.32.53-.97.95-1.64,1.23-.04,0,.01.1.06.08,1.27-.31,1.98-.95,2.2-2.03.18-.87-.36-1.42-1.39-1.12Z"/>
                      <path class="cls-1" d="M336.58,192.29c.49.23.39,1.06-.22,1.87-.62.81-1.51,1.27-1.99,1.04-.5-.23-.4-1.06.21-1.87.62-.81,1.51-1.27,2-1.04Z"/>
                      <path class="cls-13" d="M337.65,193.34c-.92,1.25-1.86,2.72-4.06,2.9-.05,0,.01.1.05.11,2.22.37,3.44-1.64,4.09-2.91.06-.11,0-.22-.08-.1Z"/>
                      <path class="cls-13" d="M337.68,192.62l-.03.06c-.04.07-.02.16.03.24.04.07.15.12.16.02.02-.05.02-.09.03-.14.02-.07-.14-.35-.19-.18Z"/>
                    </g>
                  </g>
                  <path class="cls-19" d="M226.86,237.05c0-.4-.4.13-.44.28-.21.93.07,1.84.35,2.71.14.42.64-.4.6-.65-.16-.79-.5-1.53-.51-2.34Z"/>
                  <g>
                    <path class="cls-20" d="M235.64,215.51c-9.42,1.29-10.47,13.03-9.59,20.39.04.33.51-.27.5-.47-.37-7.63-.06-17.01,8.93-19.47.13-.04.33-.47.16-.44Z"/>
                    <path class="cls-20" d="M226.48,237.14c-.06-.15-.34.26-.31.4.2.64.28,1.31.47,1.97.08.28.46-.27.42-.47-.15-.64-.3-1.28-.57-1.89Z"/>
                  </g>
                </g>
                <path class="cls-12" d="M248.59,218.54l111.97-43.06s14.42-7.09,21.44,1.93l8.28-2.69s-5.96-8.04-12.34-8.37l-131.04,50.72,1.7,1.47Z"/>
              </g>
              <g>
                <g>
                  <g>
                    <path class="cls-22" d="M251.02,238.28l-1.27.97s-.46.31-.46.31l.75,1.81,1.92-.43-.74-1.84-.18-.83Z"/>
                    <path class="cls-40" d="M251.86,240.89h0l-1.88.47s.01.01,0,0l-.72-1.8s0-.01.01-.02c.03-.02.4-.29.45-.32h.01s1.27-.95,1.27-.95h.02s0,0,0,.02l.17.83.74,1.84s-.03-.03-.03-.02-.04-.03-.05-.04ZM250.05,241.35l1.88-.42-.73-1.81-.19-.8-1.25.95h-.02s-.27.19-.42.31l.73,1.77Z"/>
                  </g>
                  <g>
                    <polygon class="cls-45" points="252.75 239.35 252.01 237.54 251.02 238.28 251.2 239.11 251.94 240.95 251.98 240.94 252.75 239.35"/>
                    <path class="cls-40" d="M251.89,240.74h0l.02.11s.04.11.03.1l-.74-1.84-.19-.83v-.02s1-.75,1-.75h.02s.01,0,0,.01l.73,1.82s.01.01,0,.01l-.82,1.48-.06-.1ZM251.03,238.3l.17.82.74,1.8.78-1.56-.73-1.78-.96.72Z"/>
                  </g>
                </g>
                <g>
                  <polygon class="cls-49" points="250.19 237.95 249.29 239.55 251.23 239.12 252.03 237.53 250.19 237.95"/>
                  <path class="cls-40" d="M251.31,239.32h0l-1.98.34s-.03-.04-.03-.05c0-.01-.02-.04-.02-.04l.91-1.63h.01s1.84-.44,1.84-.44t.02.01h0s-.76,1.7-.76,1.7c0,.01.04.1.02.11ZM249.33,239.53l1.89-.44.77-1.54-1.78.41-.88,1.56Z"/>
                </g>
              </g>
              <g>
                <g>
                  <g>
                    <path class="cls-22" d="M364.08,182.71l-1.27.96s-.47.32-.47.32l.75,1.81,1.92-.43-.74-1.83-.18-.83Z"/>
                    <path class="cls-40" d="M364.97,184.65h0l-1.9.8s0,.19-.01.18l-.74-1.72s.03-.22.03-.23c.05-.03.43-.53.49-.53h.01s1.25-.7,1.25-.7c0-.01,0,.11.01.12,0,0-.02.07,0,.08l.16.87.74,1.84v-.34s-.03-.36-.03-.36ZM363.11,185.77l1.88-.42-.73-1.81-.19-.8-1.24.95h-.01c-.05.03-.29.19-.45.31l.74,1.77Z"/>
                  </g>
                  <g>
                    <polygon class="cls-45" points="365.8 183.78 365.07 181.96 364.08 182.71 364.25 183.54 365 185.37 365.02 185.36 365.8 183.78"/>
                    <path class="cls-40" d="M364.99,184.65h-.01s.01.37.01.37c0,0,.02.23.02.22l-.75-1.77-.2-.79s0,0,0,0l1-.75h.01s0,.01.02.02l.73,1.81s0,.02,0,.02l-.8,1.23s-.03-.35-.03-.35ZM364.09,182.72l.17.82.74,1.8.78-1.57-.73-1.78-.96.72Z"/>
                  </g>
                </g>
                <g>
                  <polygon class="cls-49" points="363.25 182.37 362.34 183.98 364.28 183.55 365.08 181.95 363.25 182.37"/>
                  <path class="cls-40" d="M364.37,183.74h0l-1.98.35s-.04-.05-.04-.06c-.01-.01-.02-.04-.02-.04l.91-1.62h.01s1.83-.44,1.83-.44c0,0,.01,0,.01.01,0,0,0,.01,0,.02l-.76,1.68s.03.09.02.1ZM362.38,183.95l1.88-.43.77-1.54-1.77.42-.88,1.55Z"/>
                </g>
              </g>
              <g>
                <g>
                  <g>
                    <path class="cls-22" d="M312.98,200.08l-1.27.97s-.46.32-.46.32l.74,1.8,1.93-.43-.75-1.84-.18-.83Z"/>
                    <path class="cls-40" d="M313.82,202.93h-.01s-1.86.35-1.86.35v-.05s-.73-1.83-.73-1.83c0,0-.01.18,0,.17.04-.03.41-.15.46-.14h.01s1.27-1.16,1.27-1.16c0,0,.02-.11.03-.09,0,0,0-.04,0-.03l.17.81.76,1.81s-.04.08-.05.09l-.04.08ZM312.01,203.14l1.89-.42-.74-1.81-.18-.79-1.24.94h-.01s-.29.2-.44.31l.73,1.77Z"/>
                  </g>
                  <g>
                    <polygon class="cls-45" points="314.72 201.16 313.97 199.33 312.98 200.08 313.16 200.91 313.91 202.75 313.93 202.74 314.72 201.16"/>
                    <path class="cls-40" d="M313.87,202.43h0l.03.17s.02.12.02.12l-.76-1.83-.19-.82v-.02s.99-.75.99-.75h.02s.01,0,.02.01l.73,1.82h0s-.83,1.44-.83,1.44l-.05-.16ZM313,200.1l.16.81.74,1.81.77-1.57-.73-1.78-.95.73Z"/>
                  </g>
                </g>
                <g>
                  <polygon class="cls-49" points="312.15 199.75 311.25 201.36 313.2 200.91 313.99 199.32 312.15 199.75"/>
                  <path class="cls-40" d="M313.28,201.12h-.01s-1.98.34-1.98.34c-.01,0-.03-.04-.04-.05,0,0-.02-.03,0-.04l.9-1.63h.01s1.83-.44,1.83-.44c0,0,.02,0,.02.01t0,.02l-.76,1.69.02.1ZM311.29,201.33l1.89-.42.77-1.55-1.78.41-.88,1.56Z"/>
                </g>
              </g>
              <g>
                <g>
                  <g>
                    <path class="cls-22" d="M347.74,200.32l-1.72-1.18s-.58-.45-.58-.45l-1.95,1.68,1.33,2.21,1.97-1.69.95-.58Z"/>
                    <path class="cls-40" d="M345.04,202.4h-.01s-1.44-2.12-1.44-2.12c-.01-.01-.06.03-.05.02l1.9-1.65s.36.02.37.04c.06.04.94.42.93.47h0s1.37,1.16,1.37,1.16c0,.01-.17,0-.17.02,0,0-.1,0-.11,0l-1,.55-1.99,1.69s.1-.08.1-.08l.1-.1ZM343.53,200.39l1.31,2.17,1.95-1.67.91-.56-1.69-1.16h-.01c-.05-.07-.34-.29-.56-.43l-1.9,1.65Z"/>
                  </g>
                  <g>
                    <polygon class="cls-45" points="347.14 202.91 349.1 201.25 347.74 200.32 346.79 200.89 344.82 202.58 344.84 202.6 347.14 202.91"/>
                    <path class="cls-40" d="M344.77,202.41h0s.01.09.01.09c-.01-.01-.05.09-.04.08l2-1.69.97-.58s.02,0,.03,0l1.36.92s0,.01,0,.02,0,.01-.01.02l-1.95,1.67h-.01s-2.34-.41-2.34-.41l-.04-.12ZM347.73,200.35l-.93.54-1.95,1.66,2.27.32,1.92-1.63-1.31-.89Z"/>
                  </g>
                </g>
                <g>
                  <polygon class="cls-49" points="347.82 199.16 345.44 198.69 346.8 200.93 349.11 201.26 347.82 199.16"/>
                  <path class="cls-40" d="M346.58,201.19h0l-1.25-2.35s.04-.08.05-.09c0-.01.04-.05.04-.05l2.39.45s.02,0,.03,0l1.29,2.1s0,.02,0,.03c0,.01-.01.01-.01.01l-2.42-.2s-.11.11-.12.1ZM345.5,198.73l1.31,2.17,2.25.32-1.25-2.05-2.31-.45Z"/>
                </g>
              </g>
              <g>
                <g>
                  <g>
                    <path class="cls-22" d="M307.58,215.75l-1.72-1.18s-.59-.45-.59-.45l-1.94,1.67,1.33,2.22,1.97-1.69.95-.58Z"/>
                    <path class="cls-40" d="M304.88,217.84h-.01s-1.44-2.12-1.44-2.12c-.01-.01-.07.02-.06.01l1.92-1.65s.01,0,.02.01c.06.03.53.39.58.44h0s1.72,1.19,1.72,1.19c.01.01,0,.02,0,.03h-.03s-.96.56-.96.56l-1.96,1.69.1-.08s.12-.08.12-.09ZM303.37,215.82l1.31,2.17,1.95-1.67.91-.57-1.69-1.15s0-.01,0-.02c-.04-.05-.36-.26-.56-.41l-1.91,1.65Z"/>
                  </g>
                  <g>
                    <polygon class="cls-45" points="306.97 218.35 308.92 216.68 307.58 215.75 306.63 216.32 304.66 218.01 304.67 218.03 306.97 218.35"/>
                    <path class="cls-40" d="M304.9,217.57h0l-.14.24s-.12.14-.1.13l1.97-1.65.94-.57s.02,0,.03.01l1.34.93s0,.02,0,.03c0,0,0,.01-.01.02l-1.96,1.67h-.01s-2.18-.56-2.18-.56l.11-.25ZM307.57,215.78l-.95.54-1.94,1.66,2.26.32,1.93-1.63-1.31-.89Z"/>
                  </g>
                </g>
                <g>
                  <polygon class="cls-49" points="307.66 214.59 305.28 214.12 306.63 216.36 308.94 216.69 307.66 214.59"/>
                  <path class="cls-40" d="M306.41,216.55h0l-1.26-2.32s.05-.06.06-.07c0-.02.03-.03.03-.03l2.4.45s.02,0,.02.01l1.29,2.1s0,.02,0,.02c0,0-.01.02-.01.02l-2.42-.25s-.11.07-.12.07ZM305.33,214.16l1.31,2.17,2.25.33-1.26-2.05-2.3-.45Z"/>
                </g>
              </g>
              <g>
                <g>
                  <g>
                    <path class="cls-22" d="M288.49,214.92l-2.02.53s-.73.14-.73.14v2.57s2.53.44,2.53.44v-2.6s.22-1.09.22-1.09Z"/>
                    <path class="cls-40" d="M288.3,218.18h-.01s-2.54-.22-2.54-.22c0,0-.03.11-.03.09v-2.51s.04-.43.04-.43c.09,0,.57,1.18.76-.56h.01s1.99-.09,1.99-.09c0-.01,0,.22,0,.22.02.01,0,.12,0,.13l-.22,1.15-.02,2.62s.02-.19.02-.19c-.01,0,.01-.21,0-.21ZM285.78,218.14l2.5.43v-2.56s.16-.64.16-.64l-2.01.92h-.02c-.06,0-.4-.33-.64-.26l.02,2.11Z"/>
                  </g>
                  <g>
                    <polygon class="cls-45" points="290.08 216.87 290.08 214.39 288.49 214.87 288.3 215.77 288.3 218.18 288.34 218.18 290.08 216.87"/>
                    <path class="cls-40" d="M288.32,218.18h0l-.03.23s-.02.18-.02.16v-2.58s.19-1.08.19-1.08c0-.01.01-.02.01-.02l1.58-.41h.03s0,.02,0,.02l-.02,2.58v.02s-1.74,1.3-1.74,1.3c-.01,0,0-.22-.02-.22ZM288.5,214.94l-.21,1.07v2.56s1.72-1.5,1.72-1.5l.02-2.53-1.53.41Z"/>
                  </g>
                </g>
                <g>
                  <polygon class="cls-49" points="287.66 214.09 285.75 215.58 288.33 216.04 290.09 214.5 287.66 214.09"/>
                  <path class="cls-40" d="M288.32,216.42h-.01s-2.57-.62-2.57-.62c-.01,0-.01-.1-.02-.11v-.07s1.93-1.51,1.93-1.51c0-.01.01-.02.02-.02l2.42.39s.02.01.02.01c0,.01,0,.02,0,.03l-1.76,1.73-.02.18ZM285.82,215.57l2.5.43,1.71-1.49-2.37-.39-1.84,1.44Z"/>
                </g>
              </g>
              <g>
                <g>
                  <g>
                    <path class="cls-22" d="M243.48,232.03l-2.01.53s-.72.16-.72.16l-.02,2.56,2.54.45v-2.6s.21-1.1.21-1.1Z"/>
                    <path class="cls-40" d="M243.36,234.34h0l-2.59.26s-.04.34-.04.33v-2.38s0,.06.02.05c.06,0,.64-.11.71-.11v.02s2.02-.52,2.02-.52c0,0,.01.01.02.02h-.01s-.21,1.13-.21,1.13v2.59s.04-.69.04-.69c-.01.01.05-.7.04-.7ZM240.79,235.27l2.49.43v-2.57s.2-1.13.2-1.13l-1.98.46h-.01c-.07,0-.44.16-.69.22v2.58Z"/>
                  </g>
                  <g>
                    <polygon class="cls-45" points="245.04 234.37 245.06 231.71 243.48 232.08 243.27 233.33 243.24 236.08 243.29 236.08 245.04 234.37"/>
                    <path class="cls-40" d="M243.4,234.34h-.01s-.06.71-.06.71c0,0-.04.41-.04.4v-2.46s.19-1.03.19-1.03h.01s1.58-.39,1.58-.39c0,0,.01.01.02.02h.01s-.02,2.59-.02,2.59c0,.01,0,.02,0,.02l-1.7.83s.03-.7.03-.7ZM243.49,232.06l-.21,1.09v2.55s1.72-1.5,1.72-1.5l.02-2.53-1.53.39Z"/>
                  </g>
                </g>
                <g>
                  <polygon class="cls-49" points="242.66 231.21 240.75 232.71 243.32 233.15 245.08 231.62 242.66 231.21"/>
                  <path class="cls-40" d="M243.26,234.33h0l-2.55-1.01s0-.3-.01-.31c0-.01.01-.17.02-.18l1.91-1.56s.01-.04.01-.04l2.43.39h.02s0,.02,0,.03l-1.79,2.1-.05.58ZM240.82,232.69l2.5.43,1.71-1.48-2.36-.4-1.85,1.45Z"/>
                </g>
              </g>
              <g>
                <g>
                  <g>
                    <path class="cls-22" d="M366.93,192.02l-2.02.53s-.73.14-.73.14v2.56s2.53.44,2.53.44l.02-2.59.19-1.09Z"/>
                    <path class="cls-40" d="M366.72,195.57h0l-2.54-.36-.02.02v-2.56s.01-.01.03,0c.07-.02.64-.15.72-.15h.01s2.02-.52,2.02-.52c0,0,.02,0,.02.01.01,0-.01,0-.01.02l-.2,1.09-.02,2.59s.01-.05.01-.05c-.01,0,0-.07,0-.08ZM364.21,195.24l2.5.43.02-2.56.19-1.36-1.96.22h-.02c-.06,0-.44.39-.69.45l-.03,2.83Z"/>
                  </g>
                  <g>
                    <polygon class="cls-45" points="368.5 194.18 368.51 191.59 366.93 192.02 366.73 193.11 366.71 195.7 366.75 195.71 368.5 194.18"/>
                    <path class="cls-40" d="M366.75,195.57h-.01s-.02.08-.02.08c0,0-.02.1-.02.08l.03-2.61.17-1.1s.01-.03.01-.03l1.59-.42s0,0,.02.01h0s-.01,2.6-.01,2.6c0,0-.01,0-.01.02l-1.74,1.45s-.02-.08-.02-.08ZM366.93,192.04l-.2,1.07-.02,2.56,1.73-1.5.02-2.53-1.53.41Z"/>
                  </g>
                </g>
                <g>
                  <polygon class="cls-49" points="366.1 191.19 364.18 192.68 366.76 193.13 368.53 191.59 366.1 191.19"/>
                  <path class="cls-40" d="M366.86,192.09h-.01s-2.62.09-2.62.09c0,0-.04.25-.05.24,0-.01,0,.12,0,.11l1.9-1.43s0,.02,0,.02l2.43.42s.02.01.02.03v.02s-1.72,1.01-1.72,1.01l.03-.53ZM364.26,192.67l2.5.43,1.71-1.49-2.35-.39-1.85,1.44Z"/>
                </g>
              </g>
              <g>
                <g>
                  <g>
                    <path class="cls-22" d="M347.21,184.58l-2.03.53s-.72.15-.72.15v2.56s2.53.45,2.53.45v-2.6s.22-1.1.22-1.1Z"/>
                    <path class="cls-40" d="M347.07,187.22h0l-2.58.09s-.04.25-.04.24v-2.43s0,.05.02.04c.07-.02.64-.12.71-.12v.02s2.03-.52,2.03-.52t.02,0s-.01.02-.01.02l-.21,1.1v2.6s.03-.52.03-.52c-.01,0,.04-.53.03-.53ZM344.5,187.82l2.5.43v-2.57s.18-.95.18-.95l-1.99.62h-.02c-.06,0-.42-.02-.68.04v2.43Z"/>
                  </g>
                  <g>
                    <polygon class="cls-45" points="348.76 187.09 348.78 184.35 347.21 184.67 346.98 186.07 346.95 188.97 346.98 188.97 348.76 187.09"/>
                    <path class="cls-40" d="M347.09,187.23h0l-.05.54s-.03.33-.03.32v-2.5s.19-1.05.19-1.05c.01,0,.01.01.02,0l1.57-.4h.03s0,.03,0,.03l-.02,2.57s0,.02,0,.02l-1.72.99s.02-.53,0-.53ZM347.22,184.6l-.21,1.08v2.56s1.72-1.5,1.72-1.5l.02-2.52-1.53.39Z"/>
                  </g>
                </g>
                <g>
                  <polygon class="cls-49" points="346.38 183.77 344.47 185.25 347.05 185.7 348.82 184.18 346.38 183.77"/>
                  <path class="cls-40" d="M347.09,185.48h-.01s-2.59-.33-2.59-.33c0,0-.03.06-.04.05,0-.01,0,.01.01,0l1.91-1.48h.02s2.43.42,2.43.42h.02s0,.04,0,.04l-1.74,1.41v-.12ZM344.55,185.24l2.5.43,1.71-1.47-2.36-.4-1.84,1.45Z"/>
                </g>
              </g>
              <g>
                <g>
                  <g>
                    <path class="cls-22" d="M326.85,206.11l-2.02.52s-.72.16-.72.16v2.57s2.53.43,2.53.43v-2.58s.21-1.1.21-1.1Z"/>
                    <path class="cls-40" d="M326.72,208.58h-.01s-2.57.19-2.57.19c0,0-.04.3-.04.28v-2.4s0,.05,0,.05c.07-.02.64-.13.72-.12v.02s2.03-.52,2.03-.52h.02s-.01.03-.01.03l-.21,1.11v2.58s.04-.61.03-.6l.04-.62ZM324.14,209.33l2.5.43v-2.55s.18-1.06.18-1.06l-1.99.51h-.02c-.06,0-.43.08-.67.14v2.52Z"/>
                  </g>
                  <g>
                    <polygon class="cls-45" points="328.42 208.27 328.43 205.69 326.85 206.11 326.65 207.2 326.64 209.79 326.67 209.8 328.42 208.27"/>
                    <path class="cls-40" d="M326.74,208.58h0l-.05.62s-.04.38-.04.37v-2.49s.18-1.03.18-1.03c0-.01,0,.01.02,0l1.57-.4s.02.01.02.01c.01.01.02.02.02.02l-.02,2.59s0,.01-.01.02l-1.7.91.02-.62ZM326.86,206.13l-.21,1.08v2.55s1.72-1.5,1.72-1.5l.02-2.53-1.53.41Z"/>
                  </g>
                </g>
                <g>
                  <polygon class="cls-49" points="326.03 205.28 324.11 206.78 326.69 207.23 328.45 205.69 326.03 205.28"/>
                  <path class="cls-40" d="M326.62,208.57h-.01s-2.54-1.1-2.54-1.1c0,0,0-.34,0-.35,0-.01.01-.19.02-.2l1.91-1.58.03-.05,2.43.39s.02,0,.02.01c0,.01,0,.02,0,.02l-1.8,2.2-.06.66ZM324.18,206.76l2.5.43,1.71-1.49-2.37-.39-1.84,1.45Z"/>
                </g>
              </g>
              <g>
                <g>
                  <g>
                    <path class="cls-22" d="M264.74,226.77l-2.01.52s-.72.15-.72.15v2.56s2.53.44,2.53.44v-2.6s.2-1.08.2-1.08Z"/>
                    <path class="cls-40" d="M264.52,230.55h0l-2.54-.48s0-.03-.02-.04v-2.58s.04-.19.04-.19c.08-.02.66-.34.74-.33h.01s2-.36,2-.36c.01,0,.02.09.03.1,0,.01-.02.06-.03.07l-.2,1.11v2.6s0,.05-.02.06v.04ZM262.05,229.99l2.49.43.02-2.57.16-1.06-1.97.53h-.02c-.07,0-.43.08-.68.14v2.52Z"/>
                  </g>
                  <g>
                    <polygon class="cls-45" points="266.31 228.93 266.33 226.35 264.74 226.77 264.55 227.85 264.54 230.45 264.57 230.46 266.31 228.93"/>
                    <path class="cls-40" d="M264.56,230.55h-.01s0-.04,0-.04c0,0,0,.05,0,.04l.02-2.65.18-1.12v-.03s1.6-.42,1.6-.42h.03s-.01,2.61-.01,2.61t-.01.02l-1.75,1.56s-.02.04-.02.04ZM264.75,226.79l-.2,1.08-.02,2.56,1.73-1.5.02-2.53-1.53.4Z"/>
                  </g>
                </g>
                <g>
                  <polygon class="cls-49" points="263.92 225.95 262.01 227.43 264.6 227.88 266.35 226.35 263.92 225.95"/>
                  <path class="cls-40" d="M264.54,228.8h0l-2.56-.89s0-.23,0-.24c-.01-.01,0-.13,0-.13l1.92-1.55.02-.03,2.44.38s.02,0,.02.01,0,.02-.01.03l-1.78,1.97s-.03.46-.04.46ZM262.08,227.41l2.51.45,1.7-1.49-2.36-.4-1.85,1.44Z"/>
                </g>
              </g>
              <g>
                <g>
                  <g>
                    <path class="cls-22" d="M268.82,216.3l-1.99.4s-.7.11-.7.11l-.27,2.55,2.41.6.18-2.59.36-1.06Z"/>
                    <path class="cls-40" d="M268.48,220.31h-.01s-2.49-.76-2.49-.76c0,0-.01-.1-.01-.11l.17-2.59s0-.04.02-.04c.07-.02.65-.14.72-.13h.01s2.04-.4,2.04-.4c0,0,.02,0,.03.01,0,0-.11,0-.11.01l-.38,1.07-.18,2.58s.11.18.11.18c-.01.01.09.17.09.17ZM265.92,219.34l2.36.57.18-2.55.34-1.04-1.83.39h-.05c-.07,0-.51.07-.77.11l-.23,2.52Z"/>
                  </g>
                  <g>
                    <polygon class="cls-45" points="270.13 218.54 270.3 215.97 268.71 216.29 268.46 217.36 268.28 219.96 268.3 219.96 270.13 218.54"/>
                    <path class="cls-40" d="M268.5,220.31h0l-.11-.16s-.11-.18-.11-.19l.18-2.59.35-1.08s.07-.02.07-.02l1.63-.31s-.1,0-.09,0c0,.01-.12.01-.12.02l-.18,2.57s.13.02.13.03l-1.78,1.58s.04.17.03.17ZM268.67,216.31l-.21,1.06-.18,2.54,1.84-1.38.17-2.52-1.63.3Z"/>
                  </g>
                </g>
                <g>
                  <polygon class="cls-49" points="268.16 215.42 266.16 216.8 268.7 217.41 270.56 215.98 268.16 215.42"/>
                  <path class="cls-40" d="M268.74,216.83h0l-2.57-.3s-.03.13-.03.12c0-.01,0,.05,0,.05l1.99-1.34s.02.01.02.01l2.41.57s.02.01.02.02c0,.01,0,.03-.01.03l-1.83,1.13v-.3ZM266.23,216.78l2.46.6,1.79-1.38-2.32-.54-1.93,1.33Z"/>
                </g>
              </g>
            </g>
          </g>
        </g>
      </g>
    </g>
  </g>
</svg>