<?xml version="1.0" encoding="UTF-8"?>
<svg id="Layer_8" data-name="Layer 8" xmlns="http://www.w3.org/2000/svg" viewBox="0 0 200 200">
  <defs>
    <style>
      .cls-1 {
        fill: #9bc1d5;
      }

      .cls-2 {
        fill: #e6f6f8;
      }

      .cls-3 {
        fill: #6a4c92;
      }

      .cls-4 {
        fill: #607f0a;
      }

      .cls-5 {
        fill: #f16a07;
      }

      .cls-6 {
        fill: #f8e1dd;
      }

      .cls-7 {
        fill: #2a4430;
      }

      .cls-8 {
        fill: #f8e0dc;
      }

      .cls-9 {
        fill: #ed2d02;
      }

      .cls-10 {
        fill: #f8e2df;
      }

      .cls-11 {
        fill: #7d5a34;
      }

      .cls-12 {
        fill: #94c83f;
      }

      .cls-13 {
        fill: #adc14d;
      }

      .cls-14 {
        fill: #2b4530;
      }

      .cls-15 {
        fill: #e15b01;
      }

      .cls-16 {
        fill: #f7dcc3;
      }

      .cls-17 {
        fill: #abd6eb;
      }

      .cls-18 {
        fill: #73bce4;
      }

      .cls-19 {
        fill: #eae2f5;
      }

      .cls-20 {
        fill: #f8e2dd;
      }

      .cls-21 {
        fill: #5c3d98;
      }

      .cls-22 {
        fill: #be6913;
      }

      .cls-23 {
        fill: #e15b00;
      }

      .cls-24 {
        fill: #c82206;
      }

      .cls-25 {
        fill: #7aa722;
      }

      .cls-26 {
        fill: #b8ddee;
      }

      .cls-27 {
        fill: #84b42d;
      }

      .cls-28 {
        fill: #e7f6f8;
      }

      .cls-29 {
        fill: #93bd48;
      }

      .cls-30 {
        fill: #828282;
      }

      .cls-31 {
        fill: #89c826;
      }

      .cls-32 {
        fill: #9ecc51;
      }

      .cls-33 {
        fill: #99c1d7;
      }

      .cls-34 {
        fill: #9ecd52;
      }

      .cls-35 {
        fill: #774d23;
      }

      .cls-36 {
        fill: #91c639;
      }

      .cls-37 {
        fill: #79a722;
      }

      .cls-38 {
        fill: #b1bf51;
      }
    </style>
  </defs>
  <path class="cls-18" d="M24.38,91.82c8.89-1.15,17.91-1.12,26.8,0,2.19-.77,4.41-.76,6.6,0,4-.77,8.04-.76,12.04,0,2.32-.76,4.67-.76,6.99,0,7.37-.77,14.77-.76,22.14,0,10.74-.77,21.5-.77,32.24,0,2.07,0,4.15,0,6.21,0,10.84-1.13,21.79-1.16,32.63,0,3.09-1.06,6.24-1.08,9.32,0,2.8.02,12.88-.5,14.67.26,2.26.95-.71,2.97-.73,3.43,2.01,16.27,5.19,35.01.54,50.99-6.43,22.11-26.32,38.05-49.24,40.09-26.86-.26-53.74.37-80.59,0-2.66-.15-5.25-.46-7.87-.92-2.81-.49-13.24-3.16-14.4-5.34-.12-.23-.2-.48-.26-.73.02-.3.11-.76.3-.76,4.78-.15,10.63.38,15.24,1.54l1.2-.39c5.37,1.69,11.27,1.75,16.63.01l1.2.38,3.1-.78,58.05.02c13.71-.92,26.76-6.99,36.35-16.82,18.65-19.12,16.53-42.73,13.93-67.35-3.07.37-6.37.66-9.29-.52-3.34,1.05-6.76,1.07-10.1,0-10.34,1.05-20.74,1.07-31.07,0-1.41.76-2.86.76-4.27,0-11.78.96-23.57.96-35.35,0-7.5.76-15.03.76-22.53,0-.96.95-5.51,1.07-6.83.78l-.55-.78c-1.3,1.1-4.52.91-6.34.78-1.34.26-2.21,0-2.59-.78-.64,1.27-5.46,1.22-6.21,0l-.36.78h-25.32c-.09-.41-.37-.63-.73-.78-.04.3-.13.76-.35.78-2.64.21-6.93.2-9.57,0l-.56-.78c-.08.3-.21.75-.45.78-.99.12-7.58.18-8.3,0l-.57-.78c-1.65-.67-1.6-2.75.21-3.1,6.02-.04,12.04,0,18.05-.01Z"/>
  <path class="cls-25" d="M64.77,63.08l.88-.34c1.52,1.45,2.74,3.19,3.66,5.21,6.93,1.64,14.09,5.62,12.79,13.96,3.67.01,7.34.56,10.81,2.03,2.52,1.06,6.47,2.96,7.21,5.55.71.83-.18,2.17-1.17,2.33-7.37,0-14.77,0-22.14,0l-.82-.42c-.67-3.73-4.2-2.59-5.37.19l-.8.23c-4.01,0-8.03,0-12.04,0l-.95-.44-.9-4.01c-2.82-6.59-6.59-1.52-4.09,3.72l-.67.73c-8.93.01-17.87-.03-26.8,0-1.08-4.07,1.03-7.61,3.51-10.67.69-.86,3.02-2.69,3.31-3.33.32-.73-.26-1.82-.19-2.84.79-11.59,25.48-17.01,33.77-11.9Z"/>
  <path class="cls-31" d="M134.3,53.37c-.86-2.25-.29-5.42.26-7.71,1.55-6.55,6.65-9.3,13.14-9.42,1.13-.02,3.13.93,4.1.25.2-.14.96-2.94,1.33-3.72,7.65-16.3,32.61-7.97,29.33,9.72,2.6-.1,4.82,1.1,6.99,2.33-.17.33-.35.66-.57.94-1.86,2.4-11.5,5.65-14.9,6.61-12.71,3.58-26.3,3.19-38.95-.38.06.68.09,1.18-.74,1.38Z"/>
  <path class="cls-9" d="M95.07,47.15c1.52-.32,3.19-.45,4.66,0,16.61.52,30.08,6.95,28.35,25.64-5.55-3.33-12.09-3.75-17.63-.09-4.86,4.55-9.01,4.74-14.41.9-4.57-.56-8.2-2.2-10.91-4.94-1.28-6.36-6.34-9.65-12.48-10.93l-.5-.86c2.75-2.05,6.29-4.71,9.32-6.21l.32-1.01c2.61-1.18,5.34-2.1,8.14-2.72l.86.62c.6-.29,1.25-.42,1.94-.39.27-1.18,2.01-1.11,2.33,0Z"/>
  <path class="cls-26" d="M15.44,94.93c.3.04.74.15.74.35-.03,4.18-1.09,9.26-2.3,13.25l.57.71c-.96,3.43-1.37,7.15-.73,10.67l-.62.66c.37,3.07.51,6.16.42,9.28l-.81.82-.25.84c-4.25,1.43-3.95,8.58.89,8.85l.53.79c1.22.06,1.03,1.73.83,2.69l.33.41c.47.86,1.23,2.74.39,3.5l1.14,1.09c4.12,12.31,13.05,22.7,24.09,29.41l.8,1.35c4.33,2.41,9.91,4.57,14.76,5.64,2.58.57,5.21.77,7.77,1.36-2.19-.03-4.41.08-6.6,0-1-.35-2.1-.3-3.11,0-21.26-1.52-40.79-17.2-47.78-37.09-5.98-17.01-2.38-37.07-.38-54.58h9.32Z"/>
  <path class="cls-24" d="M128.08,72.79c-.38,4.17-1.14,7.39-2.72,11.26l-1.26.11c-7.87-5.04-17.32-1.95-22.8,5.07l-1.19.26c-5.32-4.73-11.79-7.31-19.03-6.61,1.53-5.61-1.51-10.03-6.46-12.38-1.35-.64-5.12-1.4-5.81-1.96-.99-.8-1.54-3.92-4.05-5.47,2.31-2.36,4.75-4.25,7.38-6.21,4.02.49,9.53,3.24,11.82,6.63,1.07,1.59.98,3.29,1.83,4.77,1.97,3.41,7.08,3.25,10.53,4.62,1.41.56,3.83,2.32,4.83,2.55,5.12,1.16,6.85-2.74,10.85-4.52,4.8-2.14,10.35-2.24,14.91.51.61.36,1.19.46,1.15,1.37Z"/>
  <path class="cls-25" d="M180.52,70.46c-1.01.14-1.4-.5-1.17-1.94l-1.28-.48c-7.62-10.56-22.65-12.81-32.7-4.34l-1.37.16c-5.48-.72-9.46-4.97-9.71-10.49-.02-.48-.15-2.32.2-2.34,18.48,5.42,38.4,3.85,54.95-6.21,6.78,3.84,7.6,9.32,5.05,16.51-2.29,6.47-6.89,10.06-13.99,9.12Z"/>
  <path class="cls-5" d="M179.35,68.52l.32,1.46c-.05.55-2.54,8.11-2.89,8.37-.28.2-.57.31-.92.27-.67.08-1.34.15-2.01.17s-1.32.01-1.96-.09c-9.59-1.62-19.21-3.3-28.79-4.99-1.31-.23-2.54-.75-3.75-1.29.75-3.57,1.89-6.02,4.66-8.55,10.86-9.9,27.29-7.43,35.35,4.66Z"/>
  <path class="cls-5" d="M173.53,84.44c.24.2.59.51.51.73-.23.65-2.71,6.03-2.97,6.27l-1.04.39c-10.87-.03-21.76,0-32.63,0,.25-4.53.66-9.09,1.17-13.59,11.8.97,23.55,3,34.96,6.21Z"/>
  <path class="cls-31" d="M99.34,46.76c-1.41.07-2.83.2-4.27.39-.77.04-1.57-.07-2.33,0-.69-.03-1.34.1-1.94.39-2.86.51-6.73,1.81-9.32,3.11-.6-3.47-5.68-6.16-4.58-9.83.63-2.1,3.29-1.59,4.69-1.91,3.02-.68,2.55-6.55,5.61-7.22,3.89-.85,4.43,3.99,7.48,4.8,1.64.44,2.32-.82,4.05-.6,5.18.67.83,7.95.62,10.87Z"/>
  <path class="cls-22" d="M175.86,78.61c1.48-1,5.34-.45,6.21,1.17-.32,2.1-1.05,3.83-1.55,5.83-1.6,1.21-5.73.33-6.99-1.17-11.65-2.07-23.32-4.08-34.96-6.21.23-2.05.36-3.86.78-5.83,12.24,1.57,24.37,4.05,36.51,6.21Z"/>
  <path class="cls-31" d="M125.36,84.05c.51.36,3.52,3.63,4.04,4.31.77.99,1.53,2.21,1.78,3.46-10.74,0-21.5,0-32.24,0,.1-.91.64-1.63,1.17-2.33,6.1-8.16,16.25-11.66,25.25-5.44Z"/>
  <path class="cls-23" d="M180.52,85.61c-.48,1.92-.81,4.24-1.17,6.21-3.1-.02-6.22,0-9.32,0l3.5-7.38c2.32.41,4.62,1.05,6.99,1.17Z"/>
  <path class="cls-15" d="M180.52,70.46c1.61,3.28,2.11,5.71,1.55,9.32-2.01-.64-4.15-.8-6.21-1.17l3.5-10.1c.43.65.82,1.24,1.17,1.94Z"/>
  <path class="cls-38" d="M99.34,46.76c.18.02.35.21.39.39-1.5-.05-3.16-.08-4.66,0,.93-.62,3.07-.5,4.27-.39Z"/>
  <path class="cls-17" d="M57.39,186.59c-1.03-.04-2.08.07-3.11,0,.6-.65,2.5-.65,3.11,0Z"/>
  <path class="cls-31" d="M132.74,94.93c2.28,3.15,2.86,7.41,3.11,11.26,1.44.9,1.94,3.17,1.17,4.66,1.68,1.78,2.36,4.2,1.94,6.6,2.28,3.12,4.01,7.8,3.88,11.65l.22,1.28c-1.69,3.61-2.29,7.64-1.91,11.59l-.64,1.12c.91,1.7,1.6,3.5,2.05,5.4l-.5.82c-.07,3.08-3.49,6.33-5.84,8.4-10.49,9.28-26.58,10.46-38.36,2.9-2.8-1.8-6.15-4.17-7.07-7.42-1.19-.52-1.58-1.68-1.17-3.5l-1.02-.62c-.91-2.7-2.13-5.33-3.99-7.52l-.04-1.19c.28-4.05,1.79-8.71,3.11-12.74l.78-.86-.12-1.47c2.66-9.73,5.41-19.45,8.25-29.14l.79-1.24c11.78,0,23.57,0,35.35,0Z"/>
  <path class="cls-33" d="M178.19,94.93c3.22.02,6.47-.03,9.69.02.35,3.28.89,6.6,1.18,9.89,1.08,12.13,1.79,25.2-1.93,36.91-6.92,21.76-27.16,37.14-49.9,38.66l-61.19-.02.42-1.03c5.73-2.83,10.46-7.9,12.59-13.96l.97-.55,1.44.54c10.56,12.71,29.4,14.96,42.48,4.74l1.53-.23,1.11.03c7.81,7.5,21.39,2.87,23.62-7.55l.9-.64.98-.77c16.12-.22,26.19-17.87,17.85-31.76l-.19-1.64-.9.09c-1.93-2.39-4.25-4.53-6.86-6.18l-.02-.9c-1.3-.84-.53-3.52.78-3.88-.06-.6-.1-1.2-.09-1.8s.04-1.18.17-1.74c1.19-5.02,2.49-10.05,3.82-15.03.15-.56.39-1.09.65-1.62s.57-1.05.89-1.56Z"/>
  <path class="cls-25" d="M52.34,94.93l.92.69c.32,2.31.81,4.58,1.46,6.82l-.44,1.04c-.58,1.51-4.89-.27-5.05-1.55l-2.33-.39c-.07.34-.2.33-.39,0-.73.32-1.59.28-2.33,0l-.25.87c-1.68.77-3.23,1.78-4.65,3.01-.37,2.89.04,5.06.92,7.79-1.7,8.59,2.21,10.51,9.78,11.89,2.55,4.89,7.74,9.55,13.41,6.43l1,.31c.11-.34.24-.33.39,0,1.89,3.07-1.91,5.77-4.27,7.38-1,1.38-2.43,2.5-4.3,3.37-1.46,1.42-3.01,2.37-4.64,2.85-4.91,4.03-11.33.17-15.25-3.47l-5.04.39-.69-.81c-.94,1.32-3.12-.06-4.22-.88-2.73-2.02-3.82-5.32-4.54-8.49-.82-.99-1.14-1.88-.95-2.68-1.63-1.94-2.4-3.86-2.61-6.37-.15-1.76-.3-4.95,1.45-5.67,2.05,1.22,3.99,4.42,4.11,7.07,2.98,7.23,5.5,7.37,12.91,6.63,3.43,2.72,7.01,5.46,11.7,5.01l-2.69-3.45c-3.34-.45-7.29-1.23-9.06-4.45-.68-1.24-1.82-3.56-.65-4.59v-2.72l-.73-.57c-.47-3.23-.74-6.41-.82-9.53.69-.62.9-1.29.63-2l-11.66-9.93.16-.89.11-.93c1.58-.32,2.32-1.05,2.22-2.18h26.41Z"/>
  <path class="cls-25" d="M97.4,94.93c-2.26,10.82-5.91,21.26-8.93,31.85-.28.21-.57.4-.88.55-3.49,1.62-18.57-1.88-22.89-3.19-.28-.08-.52-.28-.78-.5s-.49-.48-.7-.75c-.84-1.28.7-5.05,1.94-5.83.24-.79.31-1.55,0-2.33-1.13.3-1.63-1.7-.78-2.33l-.34-.88c3.18-5.39,6.4-10.76,9.64-16.13l1.19-.47c7.5,0,15.02,0,22.53,0Z"/>
  <path class="cls-24" d="M90.79,153.19c1.47,2.87,1,8.16.12,11.25l-.9.4c-1.7,6.41-7.88,13.05-13.98,15.54-5.57,2.27-13.45,2.19-19.03,0-2.54-.29-4.1-1.25-6.09-2.72-1.71-1.27-5.01-3.79-4.79-5.82-3.54-2.01-4.31-7.06-3.79-10.81.29-2.1,1.06-5.87,3.01-6.67l.79.32c10.15,16.26,35.71,14.17,42.39-4.16l1.1-.81c.29.91,1.06,2.64,1.17,3.5Z"/>
  <path class="cls-33" d="M20.88,129.5c2.45,2.48,1.62,3.48,2.82,6.3,1.29,3.01,3.52,5.36,6.89,5.74l.43,1.18c-3.31,11.23,2.9,23.21,13.51,27.79l1.59,1.32c2.54,3.31,6.97,7.02,10.88,8.55l-15.54-.78c-11.77-6.56-22.3-18.79-26.02-31.85.2-.26.48-.48.81-.41,2.08.43,4.67.29,3.53-2.68-.84-2.19-2.46-1.76-3.82-.57-.26.23-.57.27-.9.17l-.77.39-.39-3.5.48-.8c5.69-.72,4.69-9.41-1.01-8.97l-.63-.71c.18-3.34-.42-6.83.39-10.1.93.42,1.7,1.28,2.31,2.58,2.09,1.92,3.91,4.04,5.46,6.35Z"/>
  <path class="cls-5" d="M168.09,94.93l.04,1.4c-4.68,6.92-11.44,15.31-20.24,16.07-3.46.62-7.77.08-10.88-1.55-.44-1.53-.75-3.13-1.17-4.66-.39-3.59-.28-7.18.34-10.79l.83-.48c10.35,0,20.72-.02,31.07,0Z"/>
  <path class="cls-23" d="M178.19,94.93c-1.62,7.29-3.67,14.49-5.44,21.75-.29.86-.73,1.18-1.33.97-6.74-1.2-13.6-2.51-20.38-3.88-.54-.11-1.07-.33-1.6-.56s-1.05-.51-1.55-.81c8.73-2.56,15.61-9.88,20.2-17.48,3.36,0,6.74-.02,10.1,0Z"/>
  <path class="cls-7" d="M58.56,94.93l.69.68c.81,2.68,1.57,5.39,2.28,8.15l4.73-8.24c.31-.29.72-.49,1.23-.59h7.38l-10.49,17.48c-.84-.05-1.66-.55-2.45-1.52-2.67-1.51-5.01-2.98-6.76-5.62-1.05-.29-1.78-.88-.89-1.8-1.04-2.54-1.42-5.83-1.94-8.55h6.21Z"/>
  <path class="cls-33" d="M25.93,94.93c1.9,1.86-.79,2.22-2.33,3.11l-.38,1.13c-3.47,2.15-6.53,5.06-8.25,8.8l-1.07.55,1.55-13.59h10.49Z"/>
  <path class="cls-37" d="M67.49,94.93l-6.02,10.49c-.89.17-.47-.4-.63-.91-.93-3.13-1.54-6.4-2.28-9.58h8.93Z"/>
  <path class="cls-7" d="M57.78,91.82c-2.2,0-4.41,0-6.6,0-.36-2.77-2.68-8.23,2.14-8.2,3.67.03,3.49,5.62,4.46,8.2Z"/>
  <path class="cls-1" d="M137.02,94.93l-1.17,11.26c-1.01-3.75-2.21-7.48-3.11-11.26,1.42,0,2.85,0,4.27,0Z"/>
  <path class="cls-14" d="M76.81,91.82c-2.33,0-4.67,0-6.99,0,1.17-4.41,6.65-5.1,6.99,0Z"/>
  <path class="cls-10" d="M109.33,53.43c4.24-.88,4.91,5.75,1.04,6.15s-4.59-5.41-1.04-6.15Z"/>
  <path class="cls-6" d="M113.96,58.46c2.19-.73,2.72,1.8,1.72,2.5-2.03,1.43-3.37-1.95-1.72-2.5Z"/>
  <path class="cls-13" d="M92.74,47.15c-.29.03-1.42.29-1.94.39.33-.63,1.32-.37,1.94-.39Z"/>
  <path class="cls-4" d="M23.6,98.03l12.07,10.27c.69.9.42,2.98-1.19,2.55l-.93.53c-5.1-1.42-10.77.54-12.84,5.64l-.98.43c-1.48,4.53-.55,7.76,1.17,12.04-2.58-2.61-6.52-5.12-7.77-8.93-.95-2.88-.33-9.16.78-12.04,1.76-4.58,5.59-8.12,9.71-10.49Z"/>
  <path class="cls-28" d="M13.89,141.15c-6.88.1-6.47-9.68-1.17-10.49,7.61-1.16,8.49,10.38,1.17,10.49Z"/>
  <path class="cls-2" d="M15.44,147.75c-.44-1.54-1.01-1.65-.39-3.5,1.46-4.35,7.72-.65,5,3.26-1.06,1.52-3.24,1.19-4.61.24Z"/>
  <path class="cls-20" d="M155.55,63.54c4.84-1.06,5.24,6.35.7,6.16-3.54-.15-3.68-5.51-.7-6.16Z"/>
  <path class="cls-6" d="M150.08,67.79c2.19-.73,2.72,1.8,1.72,2.5-2.03,1.43-3.37-1.95-1.72-2.5Z"/>
  <path class="cls-9" d="M84.58,140.37c2.48,2.52,4.01,6.01,5.05,9.32-5.95,18.67-30.32,22.6-42.71,7.56-.65-.79-1.62-1.8-1.57-2.9-.03-3.41,3.18-7.33,6.21-8.93,2.54-2.56,5.66-4.67,8.93-6.21,4.16-3.63,11.93-4.72,17.22-3.47,2.37.56,6.63,2.07,6.86,4.63Z"/>
  <path class="cls-3" d="M171.97,120.56c2.37,1.24,6.24,4.78,7.77,6.99,1.71,15.82-13.44,27.85-28.67,23.45-4.07-1.17-9.1-3.75-10.56-7.92-.68-4.63.05-9.79,2.33-13.98l.03-1.53c2.39-3.25,5.83-7.22,10.07-7.4.14-.42.32-.88.7-1.13,3.32-2.17,14.47-2.02,17.69.34.38.28.53.75.64,1.18Z"/>
  <path class="cls-25" d="M145.56,154.35c.4,3.02-2.08,7.04-3.84,9.66-.98,1.46-3.98,5.61-5.44,5.86-.27.05-.54.04-.82.02-14.1,11.76-34.28,9.27-45.44-5.05.8-3.01,1.14-8.58.78-11.65,13.53,17,40.54,14.99,51.27-3.88.17-.08.34-.14.51-.14.32-.01,3.78,4.51,2.99,5.19Z"/>
  <path class="cls-21" d="M161.1,161.73c-2.2,1.48-6.53-.19-8.91-1.32-2.4-1.13-6.41-3.39-6.62-6.06-.83-1.01-3-3.99-3.5-5.05-.79-1.68-1.28-4.34-1.55-6.21,10.88,13.56,33.38,9.22,37.87-7.77.68-2.59.63-5.21,1.36-7.76,10.3,14.87-.7,34.58-18.64,34.18Z"/>
  <path class="cls-11" d="M127.3,138.82c-.32,5.49-7.15,8.23-12.04,8.23-4.89,0-11.72-2.74-12.04-8.23.84-4.98,6.1-17.77,12.23-17.51s11.02,12.55,11.85,17.51Z"/>
  <path class="cls-4" d="M88.46,126.78c-1.13,3.96-1.95,8-2.97,11.98-.16.63-.14,1.38-.91,1.61-6.39-6.49-16.69-4.66-24.08-1.17.82-1.69,2.53-2.27,3.43-4.14.49-1.02.74-2.12.84-3.24-.31-.76-.24-1.86,0-2.72-1.23-.23-2.73-5.63-2.12-6.01.17-.1.36-.16.57-.21,8.16,2.47,16.65,4.25,25.25,3.88Z"/>
  <path class="cls-35" d="M127.3,138.82c1.71,10.14-2.34,17.44-13.42,16.72-9.64-.63-12.09-8.26-10.66-16.72,4.07,9.94,20.01,9.94,24.08,0Z"/>
  <path class="cls-22" d="M147.89,112.41c7.69,1.37,15.34,3.09,23.06,4.35.63.1,1.2.41,1.79-.08-.31,1.28-.78,2.54-.78,3.88-5.89-3.07-13.05-3.01-19.03-.39l-2.18.37c-3.71-.71-7.43-1.44-11.13-2.19l-.67-.89c-.69-2.2-1.3-4.39-1.94-6.6,3.6.48,7.31.92,10.88,1.55Z"/>
  <path class="cls-23" d="M152.94,120.17c-3.98,1.74-7.98,5.04-10.1,8.93-1.18-3.92-2.66-7.74-3.88-11.65l13.98,2.72Z"/>
  <path class="cls-23" d="M161.1,161.73c-1.79,11.87-17.45,17.11-25.64,8.16,4.99-4.17,7.9-9.48,10.1-15.54,3.79,4.59,9.58,7.25,15.54,7.38Z"/>
  <path class="cls-31" d="M46.52,101.53c.13,0,.26,0,.39,0l2.33.39c1.7.43,3.36,1.57,5.05,1.55.59,1.44.83.66,1.44,1.27.68.68,1.88,2.41,2.63,2.99,2.07,1.61,4.48,2.11,6.03,4.67.25.41.62,1.77.78,2.33.32.76.25,1.56,0,2.33-.48,2.38-1.25,3.75-1.94,5.83-.4,1.2,1.34,4.34,1.55,6.21-.11.96-.24,1.86-.39,2.72-4.93,3.16-9.56.93-13.02-3.1-.58-.68-1.69-2.92-1.83-3.02-.41-.3-4.93-.99-6.33-1.63-2.48-1.14-3.68-2.96-4.04-5.68-.24-1.84.37-3.94.24-5.35-.09-.95-.96-2.54-1.05-3.95-.09-1.49.5-2.7.05-4.02,1.69-1.15,3.73-3.11,5.77-3.54.75.26,1.58.32,2.33,0Z"/>
  <path class="cls-4" d="M51.56,145.42c-2.54,2.56-4.64,5.69-6.21,8.93-3.01,6.18-3.63,11.72.78,17.48-12.36-3.8-19.9-17.91-15.54-30.3,1.66.19,5.05-.48,5.98-.3.28.05,3.61,2.94,4.63,3.48,3.41,1.8,6.77,2.19,10.36.71Z"/>
  <path class="cls-31" d="M34.47,110.85c.2.07,1.17.5,1.2.62-1.17,3.18.72,6.34.36,9.48v2.72c1.06,6.55,3.98,7.26,10.08,8.39l3.9,4.81c-4.11.44-6.79-.31-10.22-2.39-.77-.47-2.85-2.49-3.25-2.59-.63-.16-4.25.5-5.75.33-4.52-.5-6.19-3.61-7.7-7.45-.33-.84-.13-1.79-.47-2.63-.47-1.14-2.57-3.03-2.9-4.68,2.03-6.2,8.7-8.62,14.76-6.6Z"/>
  <path class="cls-27" d="M58.55,139.21c.09.68-.88.36-1.35.38-.97.04-1.95-.02-2.92,0-.09-.68.88-.36,1.35-.38.97-.04,1.95.02,2.92,0Z"/>
  <path class="cls-12" d="M36.03,123.67c-.27-1.68-.18-1.17,0-2.72v2.72Z"/>
  <path class="cls-36" d="M64.77,131.83h-.39c.09-.85-.35-2.17.39-2.72.08.75.07,1.96,0,2.72Z"/>
  <path class="cls-34" d="M46.52,101.53c-.37.62-1.94.64-2.33,0,.57-.12,1.65,0,2.33,0Z"/>
  <path class="cls-32" d="M49.23,101.92c-.73-.06-1.89.3-2.33-.39,1.15.07,1.34.14,2.33.39Z"/>
  <path class="cls-29" d="M65.16,117.07v-2.33c.05.19.4.39.43.97.04.82-.38,1.07-.43,1.36Z"/>
  <path class="cls-8" d="M75.14,143.55c3.39-1.02,3.63,3.14,1.39,3.75-2.21.6-3.51-3.11-1.39-3.75Z"/>
  <path class="cls-30" d="M163.31,129.22c.12.12,1.41,2.72,1.49,2.98,1.11,3.94-1.81,7.71-5.83,7.81-9.49.23-8.06-14.98,1.83-11.97.3.09,2.41,1.08,2.51,1.18Z"/>
  <path class="cls-19" d="M171.09,127.62c2.98-.87,3.42,3.78.99,4.14s-3.41-3.43-.99-4.14Z"/>
  <path class="cls-16" d="M112.43,129.96c4.77-1.43,5.5,5.4,1.77,6.07s-4.72-5.19-1.77-6.07Z"/>
</svg>