<?xml version="1.0" encoding="UTF-8"?>
<svg id="Layer_8" data-name="Layer 8" xmlns="http://www.w3.org/2000/svg" viewBox="0 0 200 200">
  <defs>
    <style>
      .cls-1 {
        fill: #d6e5ef;
      }

      .cls-2 {
        fill: #3faee0;
      }

      .cls-3 {
        fill: #f9d641;
      }

      .cls-4 {
        fill: #f99f32;
      }

      .cls-5 {
        fill: #a4c2db;
      }

      .cls-6 {
        fill: #2386c2;
      }

      .cls-7 {
        fill: #555a6e;
      }

      .cls-8 {
        fill: #463c4b;
      }

      .cls-9 {
        fill: #fefefe;
      }

      .cls-10 {
        fill: #fef45f;
      }

      .cls-11 {
        fill: #5ad6fe;
      }
    </style>
  </defs>
  <g>
    <path class="cls-6" d="M103.99,131.67c1.01,16.91.35,37.04,0,54.16l-.34.74h-22.79l-.45-.74c-.33-.07-.31-.19,0-.37l-.47-1.25c.31-16.65.12-33.36-.12-50.03,0-.41.08-.83.18-1.25s.25-.84.41-1.25l.34-.74h22.79l.45.74Z"/>
    <path class="cls-5" d="M59.77,113.98c1.57-.99,3.23-1.01,4.79,0,1.75-.91,3.42-.92,5.16,0,1.59-.72,3.2-.72,4.79,0,.45-.19.9-.37,1.36-.49,2.32-.62,12.57-.56,14.96.04.46.12.92.28,1.36.45v5.9c7,.11,11.39,4.99,11.79,11.79h-23.58l-.81-.82c-.95-9.08-8.18-10.35-15.84-10.53l-6.17.25-.76-.69v-5.89c.84-1.03,2.12-1.05,2.95,0Z"/>
    <path class="cls-8" d="M98.09,99.25c.2,1.98.3,11.42-.16,12.91-.75,2.4-3.81,1.76-5.73,1.82-5.87.19-11.81-.01-17.68,0l-.67-.84c-.24-2.92-.36-7.03-.2-9.94.1-1.85.4-3.95,2.53-4.28l21.47-.4.45.73Z"/>
    <path class="cls-7" d="M98.09,99.25l-22.25.41c-.73.47-1.17,1.14-1.31,2.01-.57,3.65.38,8.53-.02,12.32-1.59,0-3.2,0-4.79,0l-.8-.76.23-8.73c.63-5.92-4.63-6.02-4.04-.04l.28,8.56c.06.52-.33.79-.83.97-1.59-.01-3.2.02-4.79,0l-.8-.78.24-9c.72-5.64-4.48-5.81-3.7-.08l.31,8.84c.06.53-.33.81-.83,1.02-1.9-.11-3.66-.02-4.03-2.42-.33-2.11-.33-10.74,0-12.85.17-1.06.81-1.85,1.8-2.25l42.58-.17c1.88.22,2.57,1.15,2.76,2.96Z"/>
    <path class="cls-1" d="M50.93,185.83l.66.62c-.38,4.66,4.95,4.66,4.57,0l.66-.62c7.59-.32,15.91-.31,23.58,0,1.11.65.86,3.72.68,5.06-.43,3.19-1.53,5.41-5.1,5.62-7.86.03-17.64.69-25.25.01-6.47-.57-5.59-5.9-5.7-10.7,1.77-.32,4.09-.31,5.89,0Z"/>
    <path class="cls-11" d="M56.83,131.67l.55,2.05c.37,16.99.38,33.99,0,51h22.58s.45.74.45.74c0,.12,0,.25,0,.37h-23.58l-.42.74c-1.22.21-4.95.33-5.47-.74h-5.89c0-.12,0-.25,0-.37l.42-.74h4.72c-.14-17.01-.07-34.01.21-51l.55-2.05c.61-1.21,5.18-1.15,5.89,0Z"/>
    <path class="cls-1" d="M56.83,119.88c10.16-.66,22.72-1.38,23.58,11.79-7.85.72-15.73.72-23.58,0-.35,0-.6-.16-.74-.46,1.11-6.32-5.4-6.51-4.41-.16l-.74.62c-.61,1.21-5.18,1.15-5.89,0,.44-7.07,4.74-11.33,11.79-11.79Z"/>
    <path class="cls-2" d="M50.93,131.67c-.57,17.89.43,35.9,0,53.79h-5.9c-.31-17.01-1.03-37.01,0-53.79h5.89Z"/>
    <path class="cls-5" d="M103.99,185.83c-.1,4.77.78,10.13-5.7,10.7-6.8.6-15.3-.04-22.31-.01,5.3-2.05,4.32-6.04,4.42-10.68h23.58Z"/>
    <path class="cls-8" d="M59.77,113.98c-.98-.01-1.97.03-2.95,0-.61-.02-1.23.04-1.84,0,.5-3.85-.68-9.45,0-13.07.4-2.13,4.31-2.46,4.76.38.59,3.76-.39,8.78.02,12.69Z"/>
    <path class="cls-2" d="M80.41,131.67c1.08,16.68.31,36.86,0,53.79h-23.58c-.42-17.9.57-35.9,0-53.79h23.58Z"/>
    <path class="cls-8" d="M69.72,113.98c-1.71,0-3.44.01-5.16,0,.49-3.68-.69-9.19.08-12.63.63-2.83,4.58-2.72,5.06.31.57,3.66-.38,8.52.02,12.32Z"/>
    <path class="cls-9" d="M56.83,185.83c1.05,6.47-6.94,6.48-5.89,0h5.89Z"/>
    <path class="cls-9" d="M56.83,131.67h-5.89c.07-2.32-.6-5.78,2.77-5.92,3.7-.16,3.05,3.46,3.12,5.92Z"/>
  </g>
  <g>
    <path class="cls-5" d="M117.46,172.57c.08-22.69-.11-45.4,0-68.09.03-.24.11-.6.28-.61,3.72-.19,8.15-.14,11.88,0,1.25-.22,2.06-.02,2.43.61.28,3.59.55,7.19.57,10.79,0,16.23.02,32.48.14,48.69.02,2.46,4.15,3.42,6.13,3.24l7.29-.16c.32-.02.39.31.46.66v4.86c-9.67.8-19.51.8-29.18,0Z"/>
    <path class="cls-1" d="M132.05,104.49l.35-.61c1-.17,4.08-.27,4.52.61.68,14.61.88,29.25.6,43.9.31,2.31,3.35,2.31,3.67,0-.28-14.65-.08-29.28.6-43.9.5-1,4.27-.95,4.86,0,.11,21.07,0,42.16,0,63.22-4.18-.59-13.51,2.1-14.52-3.87-.06-19.78-.17-39.57-.07-59.35Z"/>
    <path class="cls-4" d="M117.46,104.49c.03-5.37-.14-10.75.14-16.12.62-1.5,1.87-2.76,3.43-3.26.37-.12,1.23-.01,1.29-.07.29-.27-.63-5.58.91-7.75s3.22-1.89,5.47-1.97c1.6-1.03,4.76-1.02,6.38,0,.06-.27.16-.26.3,0,1.37.06,2.31-.14,3.65.45,3.67,1.63,2.6,6.06,2.73,9.27l-.46.57c-5.65-.29-8.63-.29-8.79,6.22l.14,11.61c-.1.41-.3.76-.61,1.05h-14.59Z"/>
    <path class="cls-1" d="M141.77,182.3c-6.45.93-13.01.93-19.45,0-3.12-.02-7.83.41-10.72-.07-4.17-.7-5.31-6.55-1.73-8.88,1.89-1.23,5.31-.74,7.58-.77,9.69-.16,19.49-.16,29.18,0,2.27.04,5.69-.46,7.58.77,3.58,2.33,2.44,8.18-1.73,8.88-2.88.48-7.6.05-10.72.07Z"/>
    <path class="cls-1" d="M122.32,187.16c6.38-1.05,13.08-1.05,19.45,0,1.88.03,4.32-.24,6.1.14,4.98,1.05,5.31,9.7-1.25,9.8-5.75.09-24.47.02-29.2,0-3.81-.15-6.15-4.56-4.05-7.79,1.91-2.94,5.9-2.09,8.95-2.14Z"/>
    <path class="cls-3" d="M141.77,104.49c-.65-4.23-.85-8.5-.6-12.82-.81-1.66-2.87-1.65-3.67,0,.25,4.32.05,8.6-.6,12.82h-4.86c.02-4.65-.41-10.25-.01-14.75.46-5.26,5.61-5.04,9.74-4.7,2.31.19,4.38,1.43,4.79,3.87.68,4.03.05,11.17.07,15.58h-4.86Z"/>
    <path class="cls-5" d="M122.32,187.16v-4.86c6.47.05,12.98.05,19.45,0v4.86c-6.46-.11-13-.11-19.45,0Z"/>
    <path class="cls-8" d="M130.67,75.3c.22-24.19-.75-52.72,1.36-73.16l.25,6.21v45.88c.07,3.85.47,5.61.93,6.93.16,4.63.18,9.35.07,14.14-.84-.2-1.77-.24-2.6,0Z"/>
    <path class="cls-7" d="M132.03,2.14c2.04,20.62,1.18,48.96,1.36,73.16-.04-.01-.08.01-.12,0-.07-3.18.11-8.72-.02-11.45-.09-1.95-1.06-1.69-1.22-9.44V2.14Z"/>
    <path class="cls-9" d="M136.91,104.49l.35-.61c1-.17,4.08-.27,4.52.61.06,14.64-.05,29.29,0,43.93-.3,3.07-4.57,3.08-4.88,0,.06-14.64-.06-29.29,0-43.93Z"/>
    <path class="cls-9" d="M140.03,162.79c-3.98.87-3.85-5.59-2.2-6.77,4.22-3.03,5.56,6.04,2.2,6.77Z"/>
    <path class="cls-10" d="M136.91,104.49c.02-4.3-.02-8.61,0-12.91.85-2.35,4-2.35,4.85,0,.03,4.3-.01,8.61,0,12.91h-4.86Z"/>
  </g>
</svg>