<?xml version="1.0" encoding="UTF-8"?>
<svg id="Layer_8" data-name="Layer 8" xmlns="http://www.w3.org/2000/svg" viewBox="0 0 200 200">
  <defs>
    <style>
      .cls-1 {
        fill: #fec81d;
      }

      .cls-2 {
        fill: #e5e6e7;
      }

      .cls-3 {
        fill: #5e9bf6;
      }

      .cls-4 {
        fill: #d0d2d3;
      }

      .cls-5 {
        fill: #d00028;
      }

      .cls-6 {
        fill: #d6deeb;
      }

      .cls-7 {
        fill: #d8e2f1;
      }

      .cls-8 {
        fill: #f0f1f1;
      }

      .cls-9 {
        fill: #2266d2;
      }

      .cls-10 {
        fill: #e7566f;
      }

      .cls-11 {
        fill: #478bf6;
      }

      .cls-12 {
        fill: #58595b;
      }

      .cls-13 {
        fill: #7dacf3;
      }

      .cls-14 {
        fill: #fea81a;
      }

      .cls-15 {
        fill: #478cf6;
      }

      .cls-16 {
        fill: #fefefe;
      }

      .cls-17 {
        fill: #808184;
      }
    </style>
  </defs>
  <path class="cls-8" d="M101.36,5.79l.83.29v88.72l-.83,1.52c.62.99.09,3.56-.49,4.4l.07.56c1.15-.18,1.35.57.41,1.24.78.87.83,1.42.93,2.45.18,1.95.12,5.58-.93,7.06.43.67-.02,1.47-1.34,2.4-.3,1.11-.82,1.82-1.55,2.14-.19,23-.33,46.15-.41,69.45l-.29.83H10.93l-.51-.83c-1.31-58.71,1-117.59-.02-176.33-.07-2.17,1.74-4,3.93-3.93,28.99.51,58.06-.62,87.04.02Z"/>
  <path class="cls-17" d="M158,79.78l.82,1.18c.4,1.72.53,10.16-2.16,9.96l-48.18.03-.51-.83-.82-.57c-.18-1.94.2-7.7,2.47-7.69,1.09-1.53,4.07-3.13,5.99-3.31,12.41.83,26.22-1.1,38.46-.02,1.56.14,2.57.49,3.91,1.26Z"/>
  <path class="cls-3" d="M105.5,94.25c.17-1.27,2.22-1.2,2.48,0,.54-.23,1.09-.45,1.65-.61s1.12-.32,1.68-.33c15.83-.44,31.65-.41,47.48,0,.56.01,1.11.17,1.68.33s1.11.38,1.66.61c1.72.06,2.42-.09,4.13.41.24,4.07-2.23,6.13-6.13,6.59-20.22-.07-39.94-.06-59.18.03-.09-.64-.53-.98-.42-2.26.06-.73.42-2.12.84-2.7.1-1.84,2.83-3.43,4.13-2.07Z"/>
  <path class="cls-9" d="M162.13,104.59v7.03c-17.91.31-35.83.3-53.74,0-.18-2.39-.29-4.91-.33-7.58,17.38-.42,34.76-.39,52.15.07l1.92.48Z"/>
  <path class="cls-2" d="M105.5,5.79l.8.29c.03,29.22.04,58.44.02,87.67l-.83.51c-1.29.16-3.38,1.02-4.13,2.07V5.79c1.35.03,2.81-.11,4.13,0Z"/>
  <path class="cls-4" d="M98.47,190.16c.67.36,2.97,2.57,3.37,3.18l-.07.96c-29.71.03-59.55.24-89.18-.31-1.74-1-2.02-1.96-2.17-3.82l.29-.83h87.25l.51.83Z"/>
  <path class="cls-10" d="M167.92,176.1c.56-1.23,3.27-1.31,3.72,0,.04-.37.19-.35.41,0,1.19-1.42,4.26.18,5.66,1.08,3.91,2.5,5.38,7.17,3.88,11.56-.46,1.36-2.98,5.2-4.59,4.72-2.29,1.45-13.88.8-17.36.83l-.83-.28v-16.75c-4.15.17-8.35.33-12.4-.74-.36-.12-.36-.26,0-.41,5.68-1.14,12.57-1.32,18.45-.9,1.07.08,2.08.46,3.05.9Z"/>
  <path class="cls-2" d="M98.06,186.02c.24,1.17.38,2.41.41,3.72.36.12.36.25,0,.41H10.42c-.11-1.32.03-2.78,0-4.13h87.64Z"/>
  <path class="cls-10" d="M189.83,172.79c0,.32-.08.81-.28.83-4.13.29-13.15.55-17.01,0l-.49-.83c-.34-4.72-.35-10.39,0-15.3,2.74-6.86,12.32-8.69,16.47-2.21,2.16,3.36,1.31,13.11,1.31,17.5Z"/>
  <path class="cls-4" d="M109.63,81.85c-1.57,2.18-1.63,5.7-1.65,8.27,1.02,1.42,1.03,2.72,0,4.13-.81.03-1.71-.09-2.48,0V5.79c2.72.23,3.6,1.16,4.14,3.92v72.14Z"/>
  <path class="cls-5" d="M146.42,176.52c4.4.02,8.83-.01,13.23,0v17.78c-4.82.04-9.65-.01-14.47,0-2.24-.26-6.04-1.51-5.37-4.13-2.11-.41-2.35-3.78-2.2-5.65.3-3.9,2.97-7.91,7.16-7.99.54-.3,1.1-.31,1.65,0Z"/>
  <path class="cls-11" d="M166.27,94.67c4.94,1.44,4.66,7.99.23,9.53-1.61.56-2.77.33-4.36.39-17.73.73-35.96-.54-53.74,0v7.03c-.09.28-.23.27-.41,0l-.83-.36v-5.83c-.99.2-1.54-.08-1.65-.84-1.26,1.44-3.88-.32-4.13-2.07-.03-.28-.35-.77-.41-1.24-.23-1.25.63-.8,1.43-.83,18.99-.75,38.44.57,57.47,0,1.91-.14,4.5-1.11,5.27-2.99.45-1.1-.23-2.97,1.14-2.79Z"/>
  <path class="cls-12" d="M162.13,94.25c-17.22-.61-36.94-.64-54.15,0,0-1.37-.01-2.76,0-4.13h48.56c.81-.12,1.34-.66,1.45-1.46v-8.88c5.72,3.25,3.88,8.9,4.15,14.47Z"/>
  <path class="cls-5" d="M189.83,172.79c0,4.18.73,13.34-.9,16.67-2.11,4.29-7.62,6.16-11.91,4,.94-.59,3.65-4.21,3.94-5.36,1.69-6.65-2.59-11.27-8.9-12-.35-.87-.33-2.4,0-3.31h17.78Z"/>
  <path class="cls-11" d="M139.81,190.16c1.32,2.1,3.21,3.13,5.37,4.13-14.46.04-28.94-.01-43.41,0-1.84-1.25-2.66-1.91-3.31-4.13l.29-.83c13.43-.04,26.85-.01,40.28.07l.78.76Z"/>
  <path class="cls-15" d="M172.05,130.22l-.19.55c-1.19-.29-2.5-.48-3.95-.55l-.83-.26c-.13-5.81-.26-11.62-.4-17.43l.82-.5h.41c1.8.31,3.68,2.28,4.04,4.02.69,3.4.06,10.31.09,14.17Z"/>
  <path class="cls-6" d="M167.92,130.22h4.13c.07,9.09,0,18.2,0,27.28v18.6c-.14-.02-.28.01-.41,0l-.83-.29v-44.38c-1.12.15-2.09.03-2.89-.8-2.09.37-4.19.72-6.32.73-19.98.15-40.02.29-59.98-.14l-3.15-.59c-.17-.13-.16-.27,0-.41,23.15-.81,46.3-.81,69.45,0Z"/>
  <path class="cls-13" d="M105.5,111.61c.88-1.04,1.6-1.04,2.48,0,.14,0,.28,0,.41,0,17.9-.05,35.83-.05,53.74,0,1.82,0,4.23-.35,5.79.41-.13-.02-.28.02-.41,0l-.29.83h-64.11l-.51-.83c-.92-1.53,2.62-1.92,2.89-.41Z"/>
  <path class="cls-3" d="M102.6,112.03h64.9l.41,18.19h-69.45c-.27-4.52-.27-9.07,0-13.64.22-1,.24-1.71.89-2.63.2-.28,1.88-1.87,2.01-1.92.39-1.15.86-1.1,1.24,0Z"/>
  <path class="cls-14" d="M78.53,118.75c19.8-2.68,22.47,27.51,3.2,28.82-18.71,1.27-21.09-26.4-3.2-28.82Z"/>
  <path class="cls-14" d="M37.19,151.82c19.8-2.68,22.47,27.51,3.2,28.82s-21.09-26.4-3.2-28.82Z"/>
  <path class="cls-14" d="M78.53,151.82c19.8-2.68,22.47,27.51,3.2,28.82s-21.09-26.4-3.2-28.82Z"/>
  <path class="cls-14" d="M37.19,19.54c19.8-2.68,22.47,27.51,3.2,28.82s-21.09-26.4-3.2-28.82Z"/>
  <path class="cls-14" d="M78.53,19.54c19.8-2.68,22.47,27.51,3.2,28.82s-21.09-26.4-3.2-28.82Z"/>
  <path class="cls-14" d="M37.19,85.68c19.8-2.68,22.47,27.51,3.2,28.82s-21.09-26.4-3.2-28.82Z"/>
  <path class="cls-14" d="M78.53,85.68c19.8-2.68,22.47,27.51,3.2,28.82s-21.09-26.4-3.2-28.82Z"/>
  <path class="cls-14" d="M37.19,118.75c19.8-2.68,22.47,27.51,3.2,28.82-18.71,1.27-21.09-26.4-3.2-28.82Z"/>
  <path class="cls-14" d="M37.19,52.61c19.8-2.68,22.47,27.51,3.2,28.82-18.71,1.27-21.09-26.4-3.2-28.82Z"/>
  <path class="cls-14" d="M78.53,52.61c19.8-2.68,22.47,27.51,3.2,28.82-18.71,1.27-21.09-26.4-3.2-28.82Z"/>
  <path class="cls-16" d="M13.73,20.05c.45-1.58,3.31-.99,3.31.41v28.11c0,1.26-3.31,1.26-3.31,0v-28.52Z"/>
  <path class="cls-7" d="M98.47,130.22v.41c.68,15.03,1.07,30.07.53,45.11,15.77-.58,31.68-1.09,47.42.36v.41c-.55,0-1.1,0-1.65,0-15.14,1.02-30.3,1.22-45.47.6v12.03s-.82.6-.82.6c-.34-1.54-.35-2.12-.41-3.72-.86-22.49.67-45.5-.03-68.05-.23-.58.39-1.14.44-1.4v13.64Z"/>
  <path class="cls-2" d="M105.5,104.59c.32.07.68.18.83.46.16.31.4,6.58-.83,6.56-.91.01-2.33-.31-2.89.41-.36.07-.96-.1-1.24,0-.23-3.05.32-6.52,0-9.51,1.28,1.13,2.44,1.75,4.13,2.07Z"/>
  <path class="cls-16" d="M14.85,12.46c2.12-.6,2.98,2.65,1.07,3.19-2.26.64-3.02-2.63-1.07-3.19Z"/>
  <path class="cls-8" d="M167.92,130.63l.83.29v44.68l-.83.5c-7.13-.24-14.36.03-21.5,0-15.98-.07-31.98.05-47.95,0,0-15.15,0-30.32,0-45.47,23.13.34,46.32-.45,69.45,0Z"/>
  <path class="cls-2" d="M167.92,130.63c1.24.02,2.49-.02,3.72,0v45.47c-1.19-.11-2.51.04-3.72,0v-45.47Z"/>
  <path class="cls-3" d="M144.77,176.52c-5.64,1.95-8.17,8.54-4.96,13.64h-41.34c-.04-.12.03-.28,0-.41v-13.23c15.42.05,30.87-.06,46.3,0Z"/>
  <path class="cls-4" d="M105.5,104.59c.55.1,2.34-.14,2.48,0v7.03c-.83,0-1.66-.01-2.48,0v-7.03Z"/>
  <path class="cls-1" d="M86.9,123.61l-14.66,15.3c-1.33,1.39-2.45-2.68-2.6-3.63-1.61-10.21,8.46-16.49,17.26-11.68Z"/>
  <path class="cls-1" d="M90.2,126.91c5.61,10.72-4.94,21.54-15.7,15.7l15.7-15.7Z"/>
  <path class="cls-1" d="M45.56,156.68l-14.66,15.3c-1.33,1.39-2.45-2.68-2.6-3.63-1.61-10.21,8.46-16.49,17.26-11.68Z"/>
  <path class="cls-1" d="M48.86,159.98c5.61,10.72-4.94,21.54-15.7,15.7l15.7-15.7Z"/>
  <path class="cls-1" d="M86.9,156.68l-14.66,15.3c-1.33,1.39-2.45-2.68-2.6-3.63-1.61-10.21,8.46-16.49,17.26-11.68Z"/>
  <path class="cls-1" d="M90.2,159.98c5.61,10.72-4.94,21.54-15.7,15.7l15.7-15.7Z"/>
  <path class="cls-1" d="M45.56,24.4l-14.66,15.3c-1.33,1.39-2.45-2.68-2.6-3.63-1.61-10.21,8.46-16.49,17.26-11.68Z"/>
  <path class="cls-1" d="M48.86,27.7c5.61,10.72-4.94,21.54-15.7,15.7l15.7-15.7Z"/>
  <path class="cls-1" d="M86.9,24.4l-14.66,15.3c-1.33,1.39-2.45-2.68-2.6-3.63-1.61-10.21,8.46-16.49,17.26-11.68Z"/>
  <path class="cls-1" d="M90.2,27.7c5.61,10.72-4.94,21.54-15.7,15.7l15.7-15.7Z"/>
  <path class="cls-1" d="M45.56,90.54l-14.66,15.3c-1.33,1.39-2.45-2.68-2.6-3.63-1.61-10.21,8.46-16.49,17.26-11.68Z"/>
  <path class="cls-1" d="M48.86,93.84c5.61,10.72-4.94,21.54-15.7,15.7l15.7-15.7Z"/>
  <path class="cls-1" d="M86.9,90.54l-14.66,15.3c-1.33,1.39-2.45-2.68-2.6-3.63-1.61-10.21,8.46-16.49,17.26-11.68Z"/>
  <path class="cls-1" d="M90.2,93.84c5.61,10.72-4.94,21.54-15.7,15.7l15.7-15.7Z"/>
  <path class="cls-1" d="M45.56,123.61l-14.66,15.3c-1.33,1.39-2.45-2.68-2.6-3.63-1.61-10.21,8.46-16.49,17.26-11.68Z"/>
  <path class="cls-1" d="M48.86,126.91c5.61,10.72-4.94,21.54-15.7,15.7l15.7-15.7Z"/>
  <path class="cls-1" d="M45.56,57.47l-14.66,15.3c-1.33,1.39-2.45-2.68-2.6-3.63-1.61-10.21,8.46-16.49,17.26-11.68Z"/>
  <path class="cls-1" d="M48.86,60.77c5.61,10.72-4.94,21.54-15.7,15.7l15.7-15.7Z"/>
  <path class="cls-1" d="M86.9,57.47l-14.66,15.3c-1.33,1.39-2.45-2.68-2.6-3.63-1.61-10.21,8.46-16.49,17.26-11.68Z"/>
  <path class="cls-1" d="M90.2,60.77c5.61,10.72-4.94,21.54-15.7,15.7l15.7-15.7Z"/>
  <path class="cls-9" d="M131.13,143.24c.46-3.09,4.03-5.23,6.59-2.87,2.19,2.01.94,6.97,1.26,9.69,3.4.38,9.88-1.6,10.68,3.2.2,1.21-1.3,4.24-2.2,4.24h-8.47v8.06c0,2.03-4.63,3.89-6.63,1.67-.27-.3-1.23-2.27-1.23-2.49v-7.23c-3.76-.25-11.68,1.7-10.25-4.67.19-.84,1.89-2.78,2.6-2.78h7.65c.22-2.13-.3-4.77,0-6.82Z"/>
</svg>