<?xml version="1.0" encoding="UTF-8"?>
<svg id="Layer_1" data-name="Layer 1" xmlns="http://www.w3.org/2000/svg" viewBox="0 0 48 48">
  <defs>
    <style>
      .cls-1 {
        fill: #eb3352;
      }

      .cls-2 {
        fill: #33b8ee;
      }

      .cls-3 {
        fill: #2c3e50;
      }

      .cls-4 {
        fill: #dae8ed;
      }

      .cls-5 {
        fill: #ccd8dd;
      }

      .cls-6 {
        fill: #eb3a58;
      }

      .cls-7 {
        fill: #eb3453;
      }

      .cls-8 {
        fill: #eb3553;
      }

      .cls-9 {
        fill: #ea3957;
      }

      .cls-10 {
        fill: #fdfdfd;
      }
    </style>
  </defs>
  <path class="cls-5" d="M30.32,13.46l.17.1v2.7c1.22-.06,2.41,0,3.57.18.55,0,2.5-.1,2.84.09.19.11.37.5.49.7.38.61.65,1.31,1.01,1.93l-.17.13c-1.81-.15-3.66-.16-5.49-.08-.64.03-1.52.1-1.77.79-.21.58-.21,4.13.06,4.65.14.26.4.47.67.57,2.95.08,5.92.11,8.9.1.76.09,1.02-.12.78-.64l.09-.08c1.89-.11,3.83-.06,4.64,1.96l.21.68v.6c-6.19.07-12.76.07-18.97,0-.29-3.78-.25-7.62,0-11.4h2.89c.11-.11-.11-2.43.08-2.98Z"/>
  <path class="cls-1" d="M46.23,27.92c.06,1.37.09,2.76.09,4.17v.26c-.3.75-.59,1.36-1.24,1.87-1.1.86-2.23.55-3.53.6l-.16-.22c-.29-6.44-9.31-6.44-9.63,0l-.16.21c0,.07-.03.17-.08.17-1.19.05-2.79.09-3.96,0-.26.05-.42,0-.47-.17-.15-.2.04-.38.26-.26l-.07-6.68c6.33-.02,12.65,0,18.96.04Z"/>
  <path class="cls-6" d="M27.34,27.84h18.97v.09c-.02.07-.05.07-.09,0h-18.89s0,6.64,0,6.64l-.17-.08-.08-6.46.17-.1-.08.17H2.94l-.11-.17c.07,0,.17.03.17.08.05,1.87.05,3.91,0,5.78l-.17.1c-.14-.09-.08-.32-.09-.47-.02-1.86,0-3.72,0-5.57l.08-.17h24.4l.11.17Z"/>
  <polygon class="cls-9" points="46.32 32.09 46.23 27.92 46.32 27.92 46.32 32.09"/>
  <path class="cls-4" d="M27.34,16.43c.02,3.8-.02,7.6,0,11.4H2.75v-14.76c.06-.63.59-1.2,1.23-1.24h22.29c.49.13.96.58,1.05,1.09.16.93.01,2.5.02,3.51Z"/>
  <path class="cls-3" d="M17.47,34.81c.08.02.16.07.16.14-.1,1.3-1.03,3.19-2.28,3.69l.41-.17h17.56l.41.17c-.99-.36-1.56-1.46-1.97-2.37-.14-.32-.42-1.24-.15-1.46-.14-2.43,1.7-4.73,4.06-5.17,3.14-.58,6.08,1.97,5.89,5.17-.09,1.56-.95,2.87-2.13,3.83h6.34c.15,0,.58.77-.34.85H3.64c-.92-.08-.49-.85-.34-.85h6.34c-1.18-.95-2.04-2.27-2.13-3.83-.35-.4-.1-1.29.05-1.8,1.49-4.79,8.29-4.82,9.84.02.16.5.41,1.38.06,1.78Z"/>
  <path class="cls-1" d="M2.84,33.88v-5.96h24.42l.09,6.64-.26.26-.2.17c-3.1.07-6.24.01-9.42-.17.14-2.43-1.69-4.73-4.06-5.17-3.14-.58-6.08,1.97-5.89,5.17l-3.85-.02c-.42-.18-.75-.45-.83-.92Z"/>
  <path class="cls-2" d="M38.4,19.16c.96,1.69,2.31,3.68,3.06,5.45.22.52.33.8-.38.85-2.91.24-6.16-.19-9.11,0-.58-.04-1.17-.56-1.24-1.15-.1-.84-.1-3.25,0-4.09.09-.76.81-1.09,1.49-1.15,1.61-.14,4.07-.08,5.71,0,.16,0,.31.04.46.09Z"/>
  <path class="cls-1" d="M34.06,16.43c-1.25-.01-2.5,0-3.74,0v-2.98c.1-.28.25-.46.56-.51.48-.08,2.05-.06,2.55,0,.4.05.59.25.64.64.1.88-.08,1.95,0,2.85Z"/>
  <path class="cls-7" d="M31.87,8.63c.29-.29.68-.02.74.37.04.26.04,1.17-.01,1.42-.11.48-.74.47-.83.02-.05-.25-.03-1.67.1-1.81Z"/>
  <path class="cls-7" d="M29.11,12.07c-.11.11-.35.13-.49.06-.07-.03-1.07-1.03-1.11-1.1-.27-.46.06-.88.55-.63.09.04,1.03.97,1.08,1.05.1.18.12.47-.03.62Z"/>
  <path class="cls-8" d="M36.5,10.32c.22-.02.47.22.46.44-.02.39-1.75,2.17-1.86,1.02-.02-.23,1.18-1.44,1.4-1.46Z"/>
  <path class="cls-1" d="M14.56,14.5c7.82-.67,8.72,11.28.99,11.89-7.85.62-8.79-11.22-.99-11.89Z"/>
  <path class="cls-1" d="M5.03,14.49c.25-.07,2.29-.07,2.62-.02.17.02.35.1.42.26.08.18.09,1.89.05,2.17-.02.17-.1.35-.26.42-.18.08-2.37.09-2.68.05-.22-.03-.42-.15-.46-.39-.06-.31-.05-1.7,0-2.04.02-.18.13-.39.32-.45Z"/>
  <path class="cls-1" d="M22.3,14.49c.25-.07,2.29-.07,2.62-.02.17.02.35.1.42.26.08.18.09,1.89.05,2.17-.02.17-.1.35-.26.42-.18.08-2.37.09-2.68.05-.22-.03-.42-.15-.46-.39-.06-.31-.05-1.7,0-2.04.02-.18.13-.39.32-.45Z"/>
  <path class="cls-10" d="M36.52,32.03c3.23-.12,3.42,4.89.14,5.01s-3.43-4.89-.14-5.01Z"/>
  <path class="cls-10" d="M12.35,32.02c3.26-.18,3.54,4.89.23,5.01s-3.47-4.83-.23-5.01Z"/>
  <path class="cls-10" d="M16.62,18.9h1.4c.09,0,.27.35.29.47.04.28.04,2.16-.04,2.33-.02.04-.24.26-.25.26h-1.4v1.32s-.2.31-.25.34c-.13.06-2.28.09-2.51.04-.14-.03-.38-.27-.38-.38v-1.32h-1.4s-.23-.21-.25-.26c-.08-.17-.08-2.06-.04-2.33.02-.12.2-.47.29-.47h1.4v-1.32s.2-.31.25-.34c.13-.06,2.28-.09,2.51-.04.14.03.38.27.38.38v1.32Z"/>
</svg>