<?xml version="1.0" encoding="UTF-8"?>
<svg id="Layer_1" data-name="Layer 1" xmlns="http://www.w3.org/2000/svg" viewBox="0 0 48 48">
  <defs>
    <style>
      .cls-1 {
        fill: #d0714b;
      }

      .cls-2 {
        fill: #d2dbfa;
      }

      .cls-3 {
        fill: #6e5d76;
      }

      .cls-4 {
        fill: #e48a6c;
      }

      .cls-5 {
        fill: #49b0f6;
      }

      .cls-6 {
        fill: #e48b6c;
      }

      .cls-7 {
        fill: #f19f8a;
      }

      .cls-8 {
        fill: #73c2f8;
      }

      .cls-9 {
        fill: #56415e;
      }

      .cls-10 {
        fill: #fa9360;
      }

      .cls-11 {
        fill: #6288cb;
      }

      .cls-12 {
        fill: #fedc40;
      }

      .cls-13 {
        fill: #bb6242;
      }

      .cls-14 {
        fill: #4f71b5;
      }

      .cls-15 {
        fill: #3c589f;
      }

      .cls-16 {
        fill: #fb9360;
      }

      .cls-17 {
        fill: #e8eefe;
      }

      .cls-18 {
        fill: #fea97b;
      }

      .cls-19 {
        fill: #fe7186;
      }

      .cls-20 {
        fill: #fec6aa;
      }

      .cls-21 {
        fill: #a1b1ec;
      }

      .cls-22 {
        fill: #d0714c;
      }

      .cls-23 {
        fill: #bdc7f6;
      }

      .cls-24 {
        fill: #fe4357;
      }

      .cls-25 {
        fill: #e3e8fb;
      }

      .cls-26 {
        fill: #2a428b;
      }

      .cls-27 {
        fill: #fd4458;
      }

      .cls-28 {
        fill: #fb9460;
      }

      .cls-29 {
        fill: #fe4256;
      }

      .cls-30 {
        fill: #1e9df3;
      }
    </style>
  </defs>
  <path class="cls-2" d="M34.46,27.46h.19c.71,1.54,1.04,3.41,1.31,5.12.24,1.07.33,2.14.27,3.2.23.17.27.45.07.66l.07.44c.19.11.19.19,0,.29.15.09.19.37.07.52-.94.94-1.9,1.65-3.02,2.36l-.11-.18c-.02-1.49-.04-2.99-.06-4.49.08-.77-1-3.37-1.68-1.83,0,2.46,0,4.99,0,7.46l-.15.14c-1.35.63-2.71,1.09-4.18,1.38l-2,.32h-.22c-.14-.06-.3-.06-.44,0h-1.18l-.1-.43c-.08-2.58-.05-5.18-.03-7.76,0-.29.07-.58.13-.86.78-1.76,2.59-2.63,4.25-3.3.01-.31-.05-.62-.18-.94-.06-.24.01-.78.31-.62,0-.06.02-.14.07-.15.19-.02,1.43-.02,1.51.05.02.02.04.06.05.1.11-.19.18-.4.19-.63-.02-1.02-.14-2.02-.35-3l.12-.13.14-.08c1.3.58,2.64,1.09,4.01,1.53.47.15.78.43.93.83Z"/>
  <path class="cls-23" d="M19.95,24h.16c.57,1.25,1.14,2.51,1.7,3.76l-.1.14-.1.13c-.91-.42-1.53-.12-1.87.77.35.07.41.4.34.72-.14.35-.19.69-.14,1,1.08.41,1.97.82,2.9,1.58.56.46.72.75.56,1.47.07.03.07.1,0,.22.07,3.01-.05,6.04,0,9.06h-.15c-.17-.06-.35-.06-.52,0-.15,0-.3.01-.44,0-1.95-.17-4.12-.82-5.89-1.62l-.15-.14.07-5.81.15-.09c.24.05.48.18.73.39,4.26,1.5,4.34-5.42,0-3.94-.24.21-.48.33-.72.38-.17-.17-.08-.64-.02-.88.24-1,.88-1.67,1.82-2.07-.31,0-.55-.17-.6-.5l.26-3.07.16-.18s-.1-.09-.09-.14c.02-.18,1.51-1.39,1.85-1.33l.08.15Z"/>
  <path class="cls-2" d="M23.26,42.85h-.52c.09-.12.42-.12.52,0Z"/>
  <path class="cls-25" d="M25.03,42.85h-.44c.07-.12.37-.12.44,0Z"/>
  <path class="cls-15" d="M20.02,23.85c.17.1.12.16-.07.15-.1-.01-.19,0-.29.04-.27.11-1.49,1.03-1.55,1.29-.06.15-.16.26-.31.3-1.45.44-2.83,1-4.15,1.67-.66.44-1.01,2.09-1.15,2.84-.45,2.38-.73,4.59-1.03,6.99-.01.1-.04.19-.08.29s-.08.19-.13.28c-3.55-3.47-5.45-7.88-5.45-12.89.23-1.07,1.26-1.71,2.25-2.01.35-.1.98-.24,1.29-.13.02-.06.05-.06.07,0h.16c.21.36,1.72,2,2.06,1.9.27-.16.5-.38.69-.65h.19s0-.2,0-.2c1.08-1.19,2.2-2.49,2.71-4.04l.17-.1.19-.03c.88.35,1.76.66,2.66.95,1.39.37,1.68,1.95,1.89,3.18l-.1.17Z"/>
  <path class="cls-12" d="M31.73,8.53c.32.58.45,1.4.37,2.06l-.04.33c-.78,1.05-1.29,2.08-.79,3.37.02.29-.08.57-.24.81-1.02,1.02-.86,1.72-.28,2.91-.03.69.07,1.32.3,1.9l-.05.18-.04.17c-.85.23-1.61.57-2.3,1.03-.45.75-.72,1.6-.8,2.54l-.17.09-.14.08c-.14-.14-.29-.26-.45-.37-.35.02-.67-.83-.52-1.1l.07-.28c.92-1,1.4-2.28,1.59-3.61l.18-.23c.12-.11.28-.2.49-.27.24-.25.72-2.01.68-2.5-.14-.13-.26-.26-.36-.39l-.13-.28.06-1.39c.86-3.24-1.78-5.67-4.89-5.83l-.2-.16-.28.13c-1.91.07-4.15.68-4.21,2.93-.75.55-.96,1-1.08,1.91-.11.79-.03,1.6.08,2.38l-.12.16.08.19c-.64.32-.69.93-.14,1.84.04.68.28,1.05.71,1.13l.09.15.18.21c.22,1.32.72,2.62,1.61,3.64l.05.27c.21.31-.07,1.07-.44,1.1-.06.17-.43.31-.59.22-.34-.89-.27-2.09-1.03-2.76-.49-.44-1.44-.62-2.08-.86-.52-.2-1.02-.43-1.53-.64-.12,0-.17-.08-.14-.24-.38-.17-.79-.36-1.11-.57-.04.04-.11.1-.16.09-.22-.07-.73-.98-.43-1.19l.02-.24c.61-.67.92-1.51,1.05-2.39l.17-.16c-.16-.13-.13-.19.07-.15.03-.11.12-.18.27-.22.16-.14.55-1.41.53-1.73-.08-.13-.1-.24-.06-.33l-.14-.1c.13-1.14.17-2.28.1-3.43l.11-.16c4.93-2.66,11.02-2.56,16.06-.22Z"/>
  <path class="cls-21" d="M18.11,25.32l-.28,3.26c.04.15.13.26.27.32l1.04.11c-1.07.1-2.2.92-2.48,1.97-.1.37-.08.69-.17,1.05l.02.21c-.61.79-.61,1.95,0,2.74l-.02.21-.07,6.04c-2.04-.92-3.57-1.98-5.16-3.53.27-2.83.59-5.69,1.3-8.46.22-.85.34-1.52,1.05-2.11,1.37-.84,3.03-1.12,4.49-1.8Z"/>
  <path class="cls-8" d="M41.23,20.1c1.08,3.74.79,7.83-.66,11.41-.5.19-.92.14-1.25-.15-.13.18-.21.14-.22-.07-.38.16-1.23-1.1-1.22-1.28,0-.04.02-.08.04-.12l-.18-.05c-.11-.28-.16-.64-.04-.91-.07-.19-.04-.4,0-.59-.02-.12-.03-.24-.03-.36s0-.24.01-.35c.26-1.6.53-3.21.89-4.79l.16-.32-.09-.06c.17-1.02.4-2.05.68-3.09l.14-.16c.58.1,1.37.45,1.77.88Z"/>
  <path class="cls-17" d="M38.88,6.55c.25,0,.53-.03.77,0,.59.08,1.02.61,1,1.2s-.31,2.09-.44,2.69c.14.4-.04.75-.4.97-.15.09-.47.14-.48-.09l-.11.13c-.96-.36-1.89-.7-2.95-.64l-.18-.15c-.41-.02-.38-.8,0-.74.1-.15.27-.37.44-.44.04-.18.06-.38.05-.58.86.09,1.07-.74.1-.59-.15-.01-.22-.05-.12-.18l-.03-.5c-.17-.09-.31-.24-.44-.44-.42.09-.4-.61,0-.66.87-.24,1.94-.26,2.8,0Z"/>
  <path class="cls-2" d="M33.35,6.55c.84-.26,1.88-.23,2.72,0,0,.11-.34.38,0,.66-.01.16-.2.38-.37.37l-.03.55c.11.11.06.15-.08.19-1.11-.1-.78.63.13.63-.05.19-.09.42,0,.61.17,0,.35.2.37.37-.18.27-.19.47,0,.74-.24.27-.78.2-1.03.07l-.13.17c-.55.11-1.08.26-1.61.45l-.18-.1c-.42.58-1.33.02-1.03-.66-.16-.68-.27-1.37-.37-2.06-.09-.6-.34-1.1.15-1.64.38-.42.98-.34,1.47-.35Z"/>
  <path class="cls-15" d="M15.68,8.75c.16.53.03,1.18.08,1.73l-.15,1.95c-.16.1-.49.2-.59,0-.05.02-.13.04-.16,0-.13-.22-.43-.85-.29-1.03-.36-1.11-1.28-1.89-2.46-1.98l-.12-.15c-.22-.03-.41-.05-.59-.07-.54-.1-.74-.92-.73-1.41s.28-1.31.8-1.46c1.28,0,3.8,1.11,4.2,2.43Z"/>
  <path class="cls-5" d="M37.7,28.93c.06.36.06.59.22.96.03.52.6,1.36,1.18,1.4.08.04.15.05.22.07.16.21.4.26.66.27.15-.09.5-.17.52.03-.03.08-.05.16-.07.22-.2.12-.22.21-.22.44-.14.3-.3.68-.44.96-.27.11-.37.26-.29.44-.03.05-.05.1-.07.15-.18.11-.23.15-.22.37-.05.08-.1.15-.15.22-.21.16-.35.38-.44.66,0,.02,0,.05,0,.07-.21.07-.34.22-.37.44-.03.04-.04.11-.07.15-.25.08-.3.2-.37.44-.16.2-.35.4-.52.59-.29.1-.31.12-.37.44-.05.05-.1.1-.15.15-.16.15-.28.08-.37-.22,0-.1,0-.2,0-.29l-.07-.44c-.02-.22-.05-.44-.07-.66.22-2.19.79-4.71,1.4-7,.04.02.07.07.07.15Z"/>
  <path class="cls-23" d="M33.43,40.05c-.66.42-1.26.77-1.99,1.1v-7.62c.18-.72.72-.81,1.22-.26.55.62.73,1.59.78,2.39.09,1.43-.07,2.95,0,4.38Z"/>
  <path class="cls-26" d="M11.48,6.32c-.77.88-.94,1.99-.07,2.87l-.12.16c-1.31.1-2.45.73-2.83,2.05.14.22-.19.94-.44,1.03-.07.2-.44.1-.59,0l-.23-2.83c-.05-1.88,2.66-3.28,4.28-3.28Z"/>
  <path class="cls-3" d="M42.19,16.63c-.24.52-1.19.66-1.73.56s-1.33-.56-1.29-1.15l-.1-.14c.17-.44.34-.89.46-1.35l.16-.06.09-.15c.6-.19,1.24-2.6-.03-2.04l-.14-.09c-.27.02-.64-.83-.29-.88.62.09.77-.38.88-.88.51,1.05,1.28,1.71,1.18,2.99-.04.45-.22.73-.13,1.23.12.71.96.84.94,1.97Z"/>
  <path class="cls-2" d="M10.23,13.84l.16.17c.14,1.57.76,3.28,2.24,4.04l.11.21c0,.33-.91.66-1.1.37-.24.29-.85.07-1.17-.07-.36-.16-.93-.48-.97-.88h-.2c-.37-.29-1.1-1.5-.98-1.99-.07-.23-.06-.55-.15-.81l.09-.17c.59-.27,1.17-.59,1.72-.95l.17.09c.02-.07.04-.06.07,0Z"/>
  <path class="cls-9" d="M42.19,16.63c-.01.66-.42.96-.5,1.53-.04.31.05.47.05.71,0,.39-.24.94-.51,1.22-.6-.27-1.21-.53-1.77-.88-.28.13-.81-.37-1-.61s-.47-.59-.25-.86l-.05-.17c.35-.45.6-.97.83-1.49l.18-.04c.7,1.21,1.9,1.29,3.02.59Z"/>
  <path class="cls-26" d="M9.34,22.67c-.48.18-.99.17-1.47.33-.94.3-1.58.96-2.06,1.8,0-1.6.18-3.17.59-4.71.12-.23.85-.58,1.1-.61l.15.1.2.14c.38.97.88,1.87,1.51,2.71v.24Z"/>
  <path class="cls-4" d="M11.48,9.93s.06.1.05.16c-.89.52-1.29.86-1.33,1.92l.1,1.7-.15.12c-.69.24-1.24.91-1.99,1.03,0-.03.02-.08-.02-.13-.01-.02-.14-.05-.2-.09.09-.45.06-.94-.1-1.45-.1-.39-.04-.65.17-.76.07-.22.33-.81.44-1.03.18-.82.92-1.23,1.67-1.44.38-.11,1.06-.29,1.35-.03Z"/>
  <path class="cls-12" d="M9.49,17.66c.26.33-.27,1.34-.66,1.1l-.1.11c-.46.14-.82.37-1.08.7l-1.25.52c.41-1.52,1.08-3.09,1.91-4.42.2.66.7,1.5,1.18,1.99Z"/>
  <path class="cls-2" d="M38.88,6.55c-.93-.03-1.87,0-2.8,0-.73-.17-.71-1.21,0-1.4,1.08-.01,2.19.51,2.8,1.4Z"/>
  <path class="cls-23" d="M36.08,5.15c-.07.15-.25.24-.31.39-.28.69.32.86.31,1.01-.91,0-1.82-.03-2.72,0,.53-.89,1.71-1.39,2.72-1.4Z"/>
  <path class="cls-22" d="M8.02,12.44c-.18.61.19,1.4.15,2.03-.01.23.02.19-.22.18-.03-.02-.12-.01-.19-.07-.1-.08-.5-1.2-.53-1.39-.04-.26-.07-.61.2-.76.23-.12.36-.03.59,0Z"/>
  <path class="cls-5" d="M40.57,31.51c-.02.06-.06.1-.07.15-.27-.25-.35.03-.42.07-.13.07-.85-.05-.76-.37.43.15.8.17,1.25.15Z"/>
  <path class="cls-5" d="M39.02,34.45c-.13.21-.19.55-.44.66.07-.29-.08-.65.44-.66Z"/>
  <path class="cls-5" d="M39.76,33.28c-.09.18-.23.33-.29.44-.37,0-.06-.56.29-.44Z"/>
  <path class="cls-5" d="M37.26,36.81c-.13.14-.24.3-.37.44-.2-.3.05-.65.37-.44Z"/>
  <path class="cls-5" d="M36.37,37.18c.17-.02.18.13.27.22h.1c-.1.1-.19.19-.29.29-.13-.1-.07-.35-.07-.52Z"/>
  <path class="cls-5" d="M38.58,35.19c-.05.19-.29.33-.37.44-.12-.37-.03-.51.37-.44Z"/>
  <path class="cls-5" d="M40.42,31.88c-.08.18-.15.3-.22.44-.15-.24-.1-.48.22-.44Z"/>
  <path class="cls-5" d="M38.14,35.78c-.12.15-.25.29-.37.44-.03-.32,0-.49.37-.44Z"/>
  <path class="cls-5" d="M39.39,33.87c-.08.15-.14.24-.22.37-.19-.18-.04-.41.22-.37Z"/>
  <path class="cls-5" d="M32.91,19.21c.31,1.05.57,2.1.76,3.15l-.1.16c.18.15.25.4.23.75.32,1.38.53,2.78.65,4.19-.59-.79-2.32-1.13-3.26-1.49-.45-.17-1.47-.54-1.82-.79l-.28-.03c-.43-.27-1.02-.74-1.27-1.15-.1.02-.15,0-.15-.07.2-.83.28-2.14.91-2.77.43-.44,1.76-.79,2.4-1.06l.13-.21c.53-.2,1.04-.43,1.54-.7l.25.03Z"/>
  <path class="cls-17" d="M27.83,24c.56.36,1.03.8,1.55,1.18.03.19.12.37.14.56.09.74.22,1.85.23,2.57,0,.22-.05.63-.34.63h-1.62c-.08,0-.18.31-.19.41-.01.35.39.95.16,1.26-.06.08-1.49.64-1.78.8-1.07.61-1.85,1.42-2.58,2.39,0-.07,0-.15,0-.22.05-.32.1-.65-.07-.94-.02-.38.16-1.21.51-1.34-.06-.26.01-.53.22-.79.21-.41.5-1,.89-1.2.06-.53.37-1.09.81-1.4l-.03-.22c.67-1.14,1.21-2.36,1.62-3.64.12-.11.27-.13.47-.04Z"/>
  <path class="cls-30" d="M35.34,22.89c.11.01.2.06.28.13l.41,2.58c.18.95.53,2.43,1.52,2.79l.07.16c.05.06.06.17,0,.22-.4,2.11-.81,4.22-1.21,6.33-.04.21-.06.48-.19.66-.2-1.9-.48-3.82-.91-5.68-.17-.73-.43-2.06-.86-2.64-.26-1.37-.53-2.74-.79-4.11-.05-.26-.05-.59-.1-.82.54-.09,1.3.08,1.77.37Z"/>
  <path class="cls-5" d="M36.37,36.88c-.13-.08-.06-.3-.07-.44.12.13.07.29.07.44Z"/>
  <path class="cls-17" d="M16.49,35.19c-.79-.88-.79-2.29,0-3.17,1.39-1.55,4.03-.63,4.13,1.43.11,2.26-2.61,3.42-4.13,1.73Z"/>
  <path class="cls-2" d="M21.72,27.9c.01-.06.04-.06.07,0l.21.11c.24.32.57.98.67,1.36.05-.02.13-.05.16-.02.15.2.99,1.52,1.03,1.67v.26c-.15.34-.32.72-.36,1.09-.05.4.06.83-.09,1.2,0-.22.05-.55-.04-.74-.03-.07-.52-.54-.62-.63-.44-.38-1.04-.76-1.56-1.02-.31-.15-1.13-.39-1.31-.53-.45-.33.37-1.33-.04-1.66-.13-.1-.28.01-.26-.17.02-.27.47-.85.71-.99.62-.34.91,0,1.43.06Z"/>
  <path class="cls-8" d="M20.61,23.63l.16-.09c.72.72,1.42,1.46,2.12,2.21v.16c.36.17,0,1.26-.36,1.25.14.23-.52.93-.74.74-.02,0-.05,0-.07,0l-1.77-3.9s.04-.12.07-.15c.12-.13.41-.27.59-.22Z"/>
  <path class="cls-14" d="M14.13,18.77s.13-.07.22-.03c.31.13.67.39,1.02.48.03.05.03.29.01.36-.27,1.34-1.91,3.37-2.87,4.34-.29-.11-.68-.45-.89-.69l-.07-.26.08-.3c.98-1.07,1.84-2.28,2.28-3.67l.22-.22Z"/>
  <path class="cls-14" d="M8.83,18.77l.24.23c.33.87.76,1.71,1.31,2.46l.06.33c.06.02.06.05,0,.07l-.1.13c-.38-.05-.74.23-.78.61l-.15.07h-.07c-.62-.9-1.4-2.03-1.69-3.09-.02-.08-.06-.16-.06-.25.02-.08.9-.53,1.04-.58.12-.04.19.02.2.02Z"/>
  <path class="cls-11" d="M10.45,21.86s.04-.05.07-.07c.08-.05.95.85,1.07,1l-.03.17c.25.24.5.45.76.68.09.08.2.11.2.28-.26.26-.65.9-1.05.79-.24-.06-1.25-1.03-1.46-1.27-.13-.14-.59-.65-.59-.78,0-.53.52-.93,1.03-.81Z"/>
  <path class="cls-20" d="M28.64,15.31l.16.08c.02.98-.05,1.96-.22,2.93l-.16.08c-.22,1.59-.69,2.96-1.84,4.12.1.24-.79.91-.96.92-.8.07-2.21-1.97-2.51-2.59-.52-1.07-.74-3.12-.85-4.34-.09-1,0-1.67.48-2.54.04-.48.06-.97.05-1.46.06-.51.25-1.36.76-1.49.12-.15.32-.22.62-.22,1.87-.43,3.73-.79,4.04,1.67-.04,1,.08,1.78.54,2.66l-.12.15Z"/>
  <path class="cls-18" d="M23.56,10.96c.07.01.07.04,0,.07-.02.1-.28.4-.36.56-.43.93-.17,1.54-.31,2.42-.04.24-.26.51-.35.76-.37,1.03-.07,1.97.06,3,.19,1.67.23,2.62,1.27,4.04.24.33,1.37,1.62,1.75,1.49.15-.05.81-.62.96-.77.15.37.25.79.52,1.1v.15c-.71.72-1.42,1.46-2.12,2.21l-.16-.08-.08.16c-.5.04-1.01.02-1.51,0l-.1-.15-.07-.22c.22-.56.44-1.16.41-1.77-.47-.03-.9-.2-1.33-.39-.32-.14-1.05-.64-1.08-1-1.05-1.07-1.64-2.66-1.84-4.12-.03-.01-.06-.03-.09-.05-.1-.1-.32-2.54-.3-2.92l.16-.12-.09-.07c.11-.44.28-.9.51-1.36-.2-2.03.31-3.48,2.62-3.35.45.02,1.16.22,1.53.44Z"/>
  <path class="cls-1" d="M29.23,15.23c-.08.19-.47.24-.59.07-.09-.52-.43-.88-.5-1.31-.16-.93.17-2.1-.64-2.89-1.01-.97-2.77-.09-3.94-.07,0-.02,0-.05,0-.07-1.17-.89-.91-2.89.52-3.39,2.89.13,5.57,1.96,5.38,5.12-.02.28-.12.61-.15.89-.04.53-.04,1.12-.07,1.66Z"/>
  <path class="cls-9" d="M32.1,10.6c.15.66.25.88,1.03.66.27.15-.12.92-.37.96l-.14.09c-1.28-.58-.61,1.94.02,2.05l.12.14.17.1c.25,1.04.61,2.09,1.26,2.95l-.03.19c.21.38-.33.95-.64,1.21-.21.24-.41.33-.61.26-.56.35-1.3.63-1.91.88-.5-.65-.28-1.31-.39-2.01-.09-.57-.55-.95-.5-1.64.07-.89.96-1.26,1.02-2.01.03-.35-.17-.68-.21-1.01-.11-1.07.63-1.99,1.18-2.84Z"/>
  <path class="cls-7" d="M14.57,11.41c.06.11.43.97.44,1.03.04,0,.07,0,.1.01.15.07-.03,1.87-.09,2.16l-.16.11s-.06.08-.07.15l-.24.03c-1.24-.78-2.6-1.45-4.08-.98l-.24-.08s-.05,0-.07,0c.05-1.11-.46-2.4.44-3.28.14-.14.88-.57.89-.62.29-.27,1.03-.08,1.42.03.75.22,1.49.62,1.67,1.44Z"/>
  <path class="cls-13" d="M24.07,7.58l-.77.74c-.36.54-.43,1.08-.24,1.71.09.28.47.78.49.94-.5.02-.95-.24-1.45-.29-1.77-.18-2.56.65-2.61,2.39,0,.28.1.47.06.79-.06.47-.5.95-.57,1.46-.16.2-.72.06-.52-.22-.07-.27-.14-.98-.15-1.29-.04-.8.01-2.07.53-2.72.18-.22.53-.36.6-.51.09-.2.06-.59.15-.88.5-1.67,2.95-2.19,4.47-2.12Z"/>
  <path class="cls-17" d="M14.79,14.87c-.17,1.11-.45,1.97-1.25,2.8,0,.32-.53.74-.81.59-1.69-.72-2.41-2.7-2.5-4.42,1.87-.59,3.02.11,4.57,1.03Z"/>
  <path class="cls-4" d="M14.13,18.77c-.44,1.62-1.44,3-2.58,4.2-.17-.17-1.03-1.09-1.1-1.1v-.29c.7-.76.91-1.81,1.02-2.8l.16-.15c.48-.02.71-.15,1.1-.37.32-.18.55-.32.81-.59-.04.28.33,1.04.59,1.1Z"/>
  <path class="cls-8" d="M27.68,23.92s.09.04.15.07l-.36.12c-.37,1.18-.87,2.32-1.45,3.41-.08.15-.2.26-.26.37-.11.04-.7-.58-.71-.62l.05-.19c-.33.06-.66-1.11-.29-1.18.3-.07,1.89-2.18,2.28-2.28.34-.09.42.19.59.29Z"/>
  <path class="cls-16" d="M21.05,22.53c.22.23.92.75,1.2.9.41.21.91.34,1.37.36.01.75-.23,1.46-.51,2.13-.06.21-.14.2-.22,0-.4-.11-1.86-2.17-2.28-2.28.24-.32.39-.71.44-1.1Z"/>
  <path class="cls-28" d="M18.48,15.09c.06.22.35.11.52.22-.1.78.17,2.09.28,2.91.01.08-.06.16-.06.18-.83.02-.75-.68-.94-1.24-.18-.52-.61-1.15-.26-1.69.19-.29.44-.12.46-.39Z"/>
  <path class="cls-18" d="M29.23,15.23c.98.1.33,1.39.17,1.9-.19.57-.13,1.34-.98,1.27.1-.76.34-2.41.22-3.09.19-.06.39-.09.59-.07Z"/>
  <path class="cls-6" d="M15.6,12.44c.59.4-.17,1.38-.18,1.92-.08.23-.31.38-.55.37.06-.44.21-1.91.15-2.28.22-.02.39-.14.59,0Z"/>
  <path class="cls-18" d="M35.05,10.74h.26c-.02.5-.19.98-.42,1.42-.56,1.94.53,5.2,2.41,6.14l.76-.61.16.05c.09.71.71,1.13,1.25,1.47-.27,1-.42,2.02-.61,3.04-.02.11-.11.2-.13.28l-.2.21c-.44.17-2.67.56-2.96.34-.05-.04-.07-.12-.08-.18l-.04-.32c.42-1.14.55-2.36.55-3.57-.68-.22-1.32-.55-1.83-1.05v-.22c-.66-.71-1.23-2.29-1.41-3.24-.18-.14-.27-.37-.25-.69-.06-.46-.12-1.31.25-1.59.09-.33.34-.58.37-.96.72-.2,1.1-.41,1.91-.52Z"/>
  <path class="cls-5" d="M38.73,22.53c-.36,1.89-.66,3.89-1.03,5.82,0,.09-.03.17-.07.22-1.07-.16-1.45-1.74-1.67-2.64s-.28-1.86-.46-2.78c-.03-.13,0-.19-.15-.25.04-.14.11-.14.15,0,.05,0,.14.07.25.07,1.01.05,2.02-.16,2.99-.44Z"/>
  <path class="cls-5" d="M39.1,31.29c-.09.16-.23.04-.33,0-.61-.22-.44-.35-.72-.83-.1-.19-.45-.23-.13-.57.2.47.72,1.17,1.18,1.4Z"/>
  <path class="cls-5" d="M37.7,28.93s-.08-.09-.07-.15c.01-.07-.01-.15,0-.22.02-.11.07-.18.07-.22v.59Z"/>
  <path class="cls-20" d="M36.08,10.67c.65,0,1.14.03,1.78.17.46.1,1.11.44,1.46.49-.05.36.18.56.29.88l.18.09c.17.68.15,1.4.06,2.09l-.17.11c-.07.4-.35,1.15-.52,1.55-.2.49-.61,1.31-.96,1.69-.1.11-.78.67-.89.7-.17.06-.91-.54-1.07-.7-1.12-1.15-2.14-4.18-1.49-5.69.22-.51.28-.46.36-1.11.02-.14.17-.22-.08-.19.37-.05.63-.07,1.03-.07Z"/>
  <path class="cls-19" d="M35.71,7.58l.15.08c-.18.5.63.53.52.09l.15-.09c.05.18.05.5.07.52.06.07.85-.22.85.4s-.8.43-.85.48c-.03.03.07.38-.07.44l-.14-.09c.09-.45-.69-.39-.53.08l-.14.09c-.15-.08-.03-.48-.07-.52s-.88.08-.88-.48c0-.59.83-.35.88-.4.02-.02,0-.37.07-.59Z"/>
  <path class="cls-27" d="M35.71,9.56c-.03-.18.02-.4,0-.59h.81c-.01.17.02.35,0,.52-.03.24-.17.46-.44.44-.17-.01-.34-.2-.37-.37Z"/>
  <path class="cls-24" d="M36.52,7.65v.52s-.81,0-.81,0v-.59c.06-.16.16-.35.37-.37.32-.03.38.23.44.44Z"/>
  <path class="cls-11" d="M12,9.27c1.19.04,2.49.87,2.58,2.14-.58-1.12-1.9-1.48-3.09-1.47-.69-.33-.09-.9.52-.66Z"/>
  <path class="cls-14" d="M11.41,9.2c.17-.01.48-.05.59.07-.28,0-.66-.06-.66.33,0,.13.15.27.14.33-1.19,0-2.45.36-3.02,1.47.1-1.51,1.63-2.11,2.95-2.21Z"/>
  <path class="cls-18" d="M39.69,14.5c.12-.65.14-1.67-.07-2.28.49-.29,1.02-.15,1.04.48,0,.19-.27,1.23-.36,1.42-.09.21-.37.4-.61.39Z"/>
  <path class="cls-1" d="M11.63,18.62c-.09,1.08-.36,2.4-1.18,3.17-.72-.91-1.23-1.93-1.62-3.02.36-.07.63-.75.66-1.1.59.6,1.26.99,2.14.96Z"/>
  <path class="cls-16" d="M34.16,17.74c.44.48,1.33,1.04,1.99,1.11.01,1.37-.14,2.78-.66,4.05-.05,0-.1,0-.15,0-.61-.07-1.18-.21-1.77-.37-.02-.1-.1-.22-.13-.35-.19-.99-.37-1.97-.54-2.96.56-.35,1.07-.81,1.25-1.47Z"/>
  <path class="cls-15" d="M24.52,27.97h.17c.19.24.42,1.02.27,1.33-.39.67-.82,1.27-1.1,1.99l-1.18-1.91c-.15-.2.15-1.28.27-1.4h.17c0-.06-.01-.16.03-.18.31-.14,1.01-.14,1.33,0,.05.02.04.12.04.19Z"/>
  <path class="cls-5" d="M25.77,27.9c-.26.48-.53.93-.81,1.4,0-.22-.32-1.24-.44-1.33-.15-.21.34-.92.59-.88.17.27.57.48.66.81Z"/>
  <path class="cls-19" d="M18.7,33.13c.33.16.86-.06.89.48.02.5-.55.46-.89.48-.16.24-.73.24-.88,0-.26-.01-.69.04-.83-.24-.07-.15-.08-.48.07-.58.05-.03.67-.14.76-.14l.1-.14c.27.04.53.08.78.14Z"/>
  <path class="cls-29" d="M18.7,33.13c-.26.2-.71,0-.88,0-.19-1.18,1.05-1.11.88,0Z"/>
  <path class="cls-29" d="M18.7,34.09c.18,1.19-1.07,1.18-.88,0,.28.01.61.01.88,0Z"/>
  <path class="cls-5" d="M23.12,27.97c-.12.1-.37,1.18-.44,1.4-.34-.43-.66-.96-.88-1.47.11-.03.65-.6.74-.74.22-.1.72.6.59.81Z"/>
  <path class="cls-14" d="M23.12,25.91c.32.02,1.44.06,1.69,0-.09.34.11.89.29,1.18l-.59.88c-.25-.19-1.17-.19-1.4,0l-.59-.81c.24-.35.43-.82.37-1.25.05.01.15,0,.22,0Z"/>
  <path class="cls-10" d="M32.76,12.22c-.22.79-.15,1.49,0,2.28-.25.03-.54-.12-.65-.34-.09-.16-.39-1.28-.38-1.46.02-.63.55-.76,1.04-.48Z"/>
</svg>