<?xml version="1.0" encoding="UTF-8"?>
<svg id="Layer_1" data-name="Layer 1" xmlns="http://www.w3.org/2000/svg" viewBox="0 0 48 48">
  <defs>
    <style>
      .cls-1 {
        fill: #cbc1be;
      }

      .cls-2 {
        fill: #fecabd;
      }

      .cls-3 {
        fill: #99c2fb;
      }

      .cls-4 {
        fill: #edded9;
      }

      .cls-5 {
        fill: #f3f0ef;
      }

      .cls-6 {
        fill: #8f4e24;
      }

      .cls-7 {
        fill: #9cc5fa;
      }

      .cls-8 {
        fill: #61a1f8;
      }

      .cls-9 {
        fill: #d94a54;
      }

      .cls-10 {
        fill: #fea58c;
      }

      .cls-11 {
        fill: #f8f5f5;
      }

      .cls-12 {
        fill: #bdd7fa;
      }

      .cls-13 {
        fill: #80b3fa;
      }

      .cls-14 {
        fill: #c46e37;
      }

      .cls-15 {
        fill: #c8bdb8;
      }

      .cls-16 {
        fill: #62a2f8;
      }

      .cls-17 {
        fill: #7fb3fa;
      }

      .cls-18 {
        fill: #873f30;
      }
    </style>
  </defs>
  <path class="cls-17" d="M27.1,31c-.14.08-.28.13-.44.15l-3.07-.02c2.23.49,4.35,1.57,6.02,3.13,1.52,1.42,1.64,2.52,1.7,4.41.02.64,0,1.29-.07,1.92h5.35s.1.16.1.16c-.09.14-.31.08-.45.08-1.94.02-3.89-.07-5.82-.09-8.67-.08-17.36.1-26.03-.04l-.16-.2c-.06-.97-.09-1.95-.08-2.95v-.41c.08-1.48,1-2.55,2.12-3.45h.25c.02-.06.05-.13.09-.19.27-.48,1.99-1.31,2.58-1.57,2.02-.87,4.23-1.12,6.41-1.15,3.83.03,7.67.04,11.52.01l-.02.2Z"/>
  <path class="cls-4" d="M5.46,19.04c.11-.17.27-.2.46-.18.48-.04,1.27-.03,1.67.18l.15.28c-.11,2.34-.15,4.7.02,7.04l.29,1.14c-.13.04-.15.12-.13.23l.18.14c.02.59-.15,1.15-.42,1.66v.32c-.65,1.2-1.03,2.49-1.15,3.86-.77.6-1.6,1.41-1.98,2.32-.16.37-.2.78-.4,1.12v-17.29c.01-.08.04-.13.08-.16,0-.55.87-1.01,1.23-.66Z"/>
  <path class="cls-5" d="M4.23,19.69s-.01.13-.08.16v-10.33h.08l.16.06v9.72l-.16.38Z"/>
  <polygon class="cls-3" points="4.23 40.51 4.15 40.51 4.15 37.56 4.23 40.51"/>
  <path class="cls-15" d="M4.23,9.53c.04-1.21,1.03-2.27,2.25-2.38h39.1c.77.1.6,1.23,0,1.23h-2.5v2.13c-.28.22-1.35.22-1.35.05.12-.68.11-1.47.04-2.18l-.08.16H6.45c-.44.19-.78.55-.83,1.04v9.36s-.16.1-.16.1c-.56.05-.92.16-1.23.66v-10.16Z"/>
  <path class="cls-8" d="M27.1,31c.06-.04.12-.08.18-.1.48-.2,3.67.39,4.04.76.05.05.09.11.13.16.04-.03.07-.05.11-.07.31-.13,3.24,1.72,3.59,2.11l.14.34c.22-.12.43.1.33.33.05-.04.14-.08.18-.05.19.14.8.82.64,1.03.45.09.54.93.57,1.36.01.15,0,.3,0,.44.11.77.17,2.07.08,2.83-.03.29-.09.56-.41.61h-5.82c-.02-.13.14-.05.19-.18.12-.26.09-2.77.04-3.21-.14-1.44-1.02-2.53-2.08-3.41-1.9-1.58-4.45-2.69-6.92-2.87-.02-.14.19-.08.29-.08,1.5-.06,3.21-.05,4.71,0Z"/>
  <path class="cls-7" d="M45.54,13.55c.02,2.12.43,5.14-2.21,5.86-.28.08-.97.09-1.11.2-.07.05-.73,1.15-.81,1.32-.41.82-.49,1.16-.16,2.05,1.1,3.01,3.71,4.68.57,7.71-1.49,1.44-3.17,2.86-4.72,4.26-.08.34-.29.58-.66.57-.13-.21-.63-.79-.82-.98l.08-.26,1.12-1.02.27-.03.18-.38,2.72-2.35c1.93-1.55,2.29-2.35,1.27-4.47-1.38-2.19-2.48-4.46-.49-6.74l.26-.08c.15-.09.32-.07.52.05,1.12-.48,1.88-1.37,1.93-2.61,0-1.01.02-2.02.07-3.03l.19-.15c.23-.25,1.36-.24,1.67-.12l.13.2Z"/>
  <path class="cls-11" d="M41.77,8.38c.08,0,.08.05.08.12.04.31-.07,1.94,0,2.01.41,0,.82,0,1.23,0,.11,0,.22,0,.33,0,.12.01.26.11.32.23.22.45.12,1.99.08,2.57l-.15.15-.27.11c-1.29.03-2.56.05-3.83.07l-.16-.1-.16-.15c-.06-.52-.12-2.24.11-2.64.12-.2.31-.48.5-.24.02-.06.04-.16.09-.16.19-.02,1.59-.03,1.72,0l.12.16c-.06-.02-.16-.04-.16-.09-.02-.21-.05-1.83,0-1.92.03-.06.1-.1.16-.12Z"/>
  <path class="cls-4" d="M45.54,13.55c-.56-.15-1.22-.08-1.8-.08-.02.07-.04.07-.08,0-.1-.73.13-1.81,0-2.5-.04-.19-.24-.25-.24-.45.44,0,1.71-.12,1.96.21.29.38.17,2.23.17,2.82Z"/>
  <path class="cls-1" d="M37.02,37.32c-.08-.55-.29-1.33-.57-1.8.21-.19.44-.38.66-.57-.05.78.11,1.63-.08,2.38Z"/>
  <path class="cls-11" d="M17.02,26.33l.17.1c-.01,1.3.1,1.69,1.49,1.73l2.53-.03.24.16.52-.15c1.39.15,2.25-.19,2.02-1.71l.17-.1c.14-.24.8-.27.9,0,2.4.01,4.58,1.5,5.78,3.58.31.54.77,1.33.61,1.91-1.35-.52-2.9-.77-4.34-.82-.09-.14-.31-.08-.45-.08-1.86-.02-3.72.07-5.57.09-5.35.05-10.05-.8-14.55,2.7-.14-.08-.09-.31-.07-.44.14-1.33.47-2.62,1.22-3.74.1-.39.3-.62.54-.92.24-.28.65-.76,1.01-.72.3-.65,1.3-1.04,1.99-1.28,1.52-.53,3.93-.58,5.54-.45l.26.17Z"/>
  <path class="cls-13" d="M15.22,13.96c.27.84.19,1.84,0,2.7.31.71.25,1.46-.44.92-.91-.27-1.45.84-1.36,1.64.13,1.14.95,1.81,1.95,2.18.11.7.33,1.35.65,1.94l-.07.2c.37.32.71.67,1.03,1.06l.04.26c.25.41.24,1.06,0,1.48-2.84,0-5.44-.33-7.79,1.56l-.23.08c-.39-.1-.75-.18-1.08-.25-.05-.43-.29-.93-.33-1.43-.16-2.02-.12-5.21,0-7.26.04-.72.36-1.44.33-2.09s-.66-2.36-.45-2.82c.08-.17.37-.33.56-.32.64.02,1.59.44,2.3.49.82.06,1.31-.26,2.05-.33.9-.08,1.91.06,2.83,0Z"/>
  <path class="cls-16" d="M9.23,27.89c-.51.41-1.19,1.1-1.56,1.64.07-.59.32-1.2.25-1.8-.03-.27.08-.14.23-.11.35.07.76.12,1.08.27Z"/>
  <path class="cls-4" d="M33.58,18.87c.08.16.11.16.28.17.75.06,1.61-.13,2.34.08l-.16.15-.96.03c.25.3.35.69.38,1.08v13.72s-.17.1-.17.1c-.9-.81-2.73-1.94-3.85-2.38-.66-2.5-2.57-4.51-5.08-5.2-.36-.1-.95-.25-1.31-.29l.26-.16c.82-.06,4.39-.05,4.82.5.04.05.06.1.09.15l.26-.07c1.08.52,2.03,1.27,2.76,2.18-.2-.92-.14-1.87.21-2.86.2-2.29.18-4.63,0-6.93l.14-.28Z"/>
  <path class="cls-15" d="M36.2,19.12c.63.09.83.63.9,1.19v12.91c-.49.44-.92.94-1.47,1.31-.09-.09-.24-.25-.33-.33v-13.81c-.02-.36-.15-.81-.41-1.06-.11-.1-.32-.07-.32-.21.51.05,1.14-.07,1.64,0Z"/>
  <path class="cls-12" d="M43.66,13.46s.05,0,.08,0c-.35,2.23.67,4.36-1.69,5.73-.16.09-.32.05-.4.26-.21-.06-.42-.14-.61-.25-2.07-1.19-1.66-3.6-1.64-5.66.14-.09.29-.08.45-.09,1.25-.04,2.56,0,3.82,0Z"/>
  <path class="cls-17" d="M30.13,14.28c.4,3.4.62,7.04-.15,10.38.15.71.27,1.4.34,2.08l-.11.08c-1.64-.66-3.43-.47-5.16-.49-.29-.03-.61.02-.9,0-.26-.12-.23-1.3-.12-1.5.99-.97,1.58-2.14,1.82-3.49,1.82-.25,2.95-3.42.69-3.84-.53.44-.93.01-.5-.51-.16-.86-.21-1.84-.15-2.72,0-.12.08-.22.15-.32.89.06,1.87-.08,2.74,0,.45.04.96.28,1.35.33Z"/>
  <path class="cls-10" d="M24.48,14.69c.39-.15.83.44,1.05.75.35.5.45.94.51,1.54,0,.19,0,.38,0,.57.25-.02.31-.25.61-.24s.71.27.9.5c.94,1.11.12,2.95-1.08,3.5-.14.06-.48.1-.5.11-.03.03-.1.64-.15.79-.27.87-.62,1.48-1.17,2.19-.12.15-.43.36-.47.51-.09.3,0,1.05-.02,1.42-.02.69.15,1.3-.5,1.76-.49.35-1.58.2-2.21.21.05-.18.19-.34.42-.48.15-.25.31-.45.48-.62-.27-.12-.25-1.12,0-1.27-.4.44-1.33.43-1.93.41s-1.22-.14-1.79-.35-1.4-.56-1.61-1.13c-.45-.38-.77-.81-1.07-1.31l.28-.05c3.18,1.46,6.89-.32,7.51-3.83.28-1.56.14-3.48,0-5.04l.16-.1c.16-.21.57-.12.57.16Z"/>
  <path class="cls-2" d="M17.02,24.86c1.48,1.27,3.47,1.62,5.33,1.07v1.27c0,.46-.49.95-.9,1.11-1,.01-2.27.09-3.24,0-1.27-.11-1.16-1-1.19-1.97-.01-.49,0-.99,0-1.48Z"/>
  <path class="cls-8" d="M33.58,18.87c.22,1.9.19,4.83.09,6.77-.04.79-.42,1.82-.42,2.46,0,.45.26.97.25,1.43l-1.11-1.31c-.65-.5-1.41-1.09-2.17-1.4,0-.66-.39-1.47-.4-2.1s.36-1.5.4-2.2c.15-2.25.14-5.8-.23-7.98-.03-.16-.1-.31.14-.27.91.11,2.76-.63,3.28-.46.22.07.4.41.39.64-.05.75-.55,1.81-.56,2.57,0,.47.27,1.28.33,1.84Z"/>
  <path class="cls-14" d="M23.58,11.17c-.05.13-.12.18-.25.15.66.35,1.04.98,1.22,1.68.12.45.28,1.39-.07,1.69-.16-.09-.4-.12-.57-.16l-.14.13c-1.7-.28-3.76-.33-5.5-.16-1.43.14-2.27.7-2.83,2.06l-.22.1c0-.9-.04-1.81,0-2.7.16-3.77,3.99-2.7,6.68-2.78.51-.02,1.16-.23,1.68,0Z"/>
  <path class="cls-6" d="M23.58,11.17c1.61.13,2.35,1.26,2.46,2.79.07.97-.02,2.04,0,3.03-.24-.89-.71-1.84-1.56-2.3.16-1.47-.24-3.13-1.88-3.44-.02-.14.19-.08.29-.08.22,0,.48-.02.7,0Z"/>
  <path class="cls-2" d="M23.9,14.53c0,.21.07.4.09.61.06,1.14.07,2.72,0,3.86-.25,4.08-4.4,6.36-8.04,4.55-.19-.31-.33-.55-.45-.9-.08-.23-.23-1.11-.28-1.18-.02-.03-.59-.19-.77-.31-.99-.65-1.64-2.18-.87-3.22.44-.6,1.1-.83,1.64-.21,0-.35,0-.71,0-1.07.4-1.11,1.23-2.07,2.45-2.26s4.27-.14,5.54-.04c.28.02.45.1.69.17Z"/>
  <path class="cls-9" d="M19.13,21.43c.21-.06,2.43-.06,2.69-.01.59.11.54,1.07-.1,1.21-.29.07-2.13.07-2.42,0-.61-.14-.73-1.03-.16-1.2Z"/>
  <path class="cls-18" d="M17.98,17.9c.92-.12,1.11,1.3.3,1.46-1.18.23-1.24-1.34-.3-1.46Z"/>
  <path class="cls-18" d="M22.62,18.08c.7-.65,1.71.5,1,1.12s-1.74-.43-1-1.12Z"/>
</svg>