<?xml version="1.0" encoding="UTF-8"?>
<svg id="Layer_1" data-name="Layer 1" xmlns="http://www.w3.org/2000/svg" viewBox="0 0 48 48">
  <defs>
    <style>
      .cls-1 {
        fill: #fa4a59;
      }

      .cls-2 {
        fill: #ffebd4;
      }

      .cls-3 {
        fill: #dce9ec;
      }

      .cls-4 {
        fill: #c8effc;
      }

      .cls-5 {
        fill: #9be5fa;
      }

      .cls-6 {
        fill: #68daf8;
      }

      .cls-7 {
        fill: #c4d2dc;
      }

      .cls-8 {
        fill: #c7effc;
      }

      .cls-9 {
        fill: #21c0f7;
      }

      .cls-10 {
        fill: #31a6fa;
      }

      .cls-11 {
        fill: #64b8fb;
      }

      .cls-12 {
        fill: #f72f40;
      }

      .cls-13 {
        fill: #8c9ca6;
      }
    </style>
  </defs>
  <ellipse class="cls-2" cx="23.89" cy="12.38" rx="6.13" ry="6.72"/>
  <path class="cls-13" d="M9.53,26.32c2.11-.23,4.26-.21,6.38,0,.14.85.14,1.7,0,2.55l-.05.14H6.86l-.09-.14c-.44.05-.72-.12-.92-.5v-1.56c.18-.22.21-.44.54-.49.82-.13,2.25,0,3.15,0Z"/>
  <path class="cls-3" d="M9.53,16.12l6.38-.07v-3.44c0-.13.46-.53.6-.53h1.45c-.01.33.03.67.07.99,0,2.66,1.09,5.18,3.66,6.28,3.29,1.4,6.78-.48,7.96-3.69.12-.06.2,0,.28.1v26.48s-.14.09-.14.09c-.49,0-.99,0-1.49,0l-.14-.05v-9.86c-.6-.14-1.23-.16-1.91-.08-.05-.07-.13-.12-.21-.14-.49.19-1,.2-1.49,0-.38.14-.76.14-1.13,0l-.2.14c-1.15-.1-2.29-.07-3.4.07l-.02,9.83-.14.09c-1.25,0-2.5,0-3.75,0l-.14-.05v-11.48l.14-.09c-.14-.61-.14-1.23,0-1.84,0-.85,0-1.7,0-2.55-.2-2-.19-4.02,0-6.02-.18-.55-.17-1.08,0-1.63-.15-.79-.19-1.6-.13-2.41h-6.16s-.09-.14-.09-.14Z"/>
  <path class="cls-7" d="M30.15,12.08c.5.05,1.22-.15,1.63.17.06.05.28.31.28.36v3.44l6.31.07-.05.14h-6.12c.06.81.02,1.62-.13,2.41.15,2.55.24,5.11,0,7.65.14.85.14,1.7,0,2.55.17,4.49.18,8.97,0,13.46-.75,0-1.51,0-2.27,0V15.69s-.6,1.28-.6,1.28c-3.52,5.37-11.3,3.08-11.23-3.51,0-.12-.05-.32.07-.39.34,2.46,2.42,4.6,4.89,4.96.11.05.23.07.35.07.09,0,.19,0,.28,0,.28.07.57.07.85,0,.09,0,.19,0,.28,0,.13,0,.24-.02.35-.07,2.58-.4,4.43-2.52,4.89-5.03.05-.11.08-.23.07-.35.02-.16-.04-.38,0-.52.02-.08.13-.03.14-.04Z"/>
  <path class="cls-6" d="M11.87,20.3s.05.11.03.16c-.87,1.67,1.28,1.65.45.02l.02-.18c-.05-.2,1.09-.17,1.17-.14l.1.14c.03.05.04.11,0,.17-1.01,1.57,1.38,1.7.43.02l-.02-.18c.61-.14,1.23-.14,1.84,0,0,2.01,0,4.02,0,6.02-2.12,0-4.25,0-6.38,0v-6.02c0-.06.02-.14.06-.14.45-.05,1.73-.06,2.17,0l.1.14Z"/>
  <path class="cls-1" d="M24.98,8.82l-.15.13-.92.03c.08.34.11.69.07,1.05,0,.36.21.51.54.5h.88s.14.2.14.2c.06,0,.13.02.17.07.17.21.23,2.48.02,2.6-.06.04-.13.04-.19.02,0,.07-.14.23-.25.27-1.07-.05-1.47-.07-1.3,1.08-.01.34-.07.61-.43.64-.46-.01-.81.15-.99-.35-.02-.5-.04-1-.07-1.49-.42-.14-1.58.26-1.81-.28-.07-.17-.07-1.98-.03-2.23.05-.33.17-.32.42-.39l1.42-.06c.03-.5.05-1,.07-1.5.09-.25.07-.25.35-.28.18-.06.37-.08.57-.07.45-.03,1.06-.04,1.49.07Z"/>
  <path class="cls-13" d="M9.53,16.12h6.38c0,.85,0,1.7,0,2.55l-.07.14h-6.08c-.16,0-.21-.06-.23-.21-.37-.1-.47-.29-.5-.67-.05-.5-.14-1.69.5-1.81Z"/>
  <path class="cls-9" d="M15.91,18.67c0,.54,0,1.09,0,1.63h-1.84c.03.21-.39.2-.43,0h-1.28c-.02.21-.45.2-.5,0h-2.34v-1.7c.1.03.19.1.31.07h6.06Z"/>
  <path class="cls-12" d="M26.89,10.66c.3.05.4.32.43.6.04.41.05,1.46,0,1.84-.04.25-.13.32-.35.39-.47.06-.95.05-1.41.01v-.08c.08-.1.12-.18.14-.32.07-.65.05-1.79-.14-2.38-.06-.02-.06-.04,0-.07.45-.06.89-.06,1.35,0Z"/>
  <path class="cls-12" d="M26.96,13.5c-.44.16-1.01.03-1.49.07v1.38c0,.64-1.48.47-1.91.46.47-.38.21-.87.29-1.38.11-.67.88-.44,1.37-.47.13,0,.26-.14.32-.14,0,0,.08.08.17.07.41-.01.83,0,1.24,0Z"/>
  <path class="cls-12" d="M24.98,8.82c.8.09.39,1.23.5,1.77l.07.07v.07c-.43-.2-1.24.11-1.56-.25-.35-.4.1-1.25-.35-1.67.43.03.93-.05,1.35,0Z"/>
  <path class="cls-3" d="M21.08,10.66c.46-.13.93-.05,1.42-.07.04-.48-.09-1.05.07-1.49-.05.28.09,1.32-.03,1.49-.1.15-1.21.03-1.46.07Z"/>
  <path class="cls-3" d="M22.57,15.06c-.16-.46-.03-1-.07-1.49.07.02.06.03.07.1.05.42-.04.95,0,1.39Z"/>
  <path class="cls-3" d="M26.89,10.66c-.39-.06-.97.07-1.35,0-.05-.01-.06-.02-.07-.07.45.04.99-.09,1.42.07Z"/>
  <path class="cls-3" d="M24.41,18.1c-.2.12-.66.12-.85,0,.27.01.58.01.85,0Z"/>
  <path class="cls-3" d="M23.49,8.75c-.13,0-.4.05-.57.07.12-.14.39-.05.57-.07Z"/>
  <path class="cls-3" d="M29.94,13c.02-.11.06-.28.07-.35,0,.11.04.29-.07.35Z"/>
  <path class="cls-3" d="M25.05,18.03c-.06.11-.24.07-.35.07.03,0,.25-.05.35-.07Z"/>
  <path class="cls-3" d="M23.28,18.1c-.11,0-.29.04-.35-.07.11.02.32.07.35.07Z"/>
  <path class="cls-11" d="M15.91,42.33c-3.02,0-6.05,0-9.07,0-.07-3.84.1-7.71,0-11.55l.05-.14,8.93-.07.09.14v11.62Z"/>
  <path class="cls-11" d="M32.14,28.87l.14.06v1.7s6.5,0,6.5,0c.25.02.33.34.09.43-.04.05-.09.08-.16.07-1.36-.24-2.94-.28-4.31-.14-.26.49-.26,1.51.07,1.98,1.39.11,2.91.11,4.27-.18l.12.11c.2.67.2,1.39,0,2.05-.04.05-.09.08-.16.07-1.42-.26-2.95-.22-4.38-.14-.12.55-.13,1.22,0,1.81.91.06,1.82.08,2.74.04l.1.14.16-.14c.48.06.94.03,1.39-.09l.15.09c.21,1.85.22,3.74,0,5.6-2.27.01-4.54,0-6.8,0,0-4.49,0-8.98,0-13.46.02-.06.04-.06.07,0Z"/>
  <path class="cls-10" d="M41.2,28.87v13.46c-.78,0-1.56,0-2.34,0,0-1.86,0-3.73,0-5.6-.22-.53-.22-1.24,0-1.77,0-.68,0-1.37,0-2.05l-.14-.14c.06-.51.07-1.02.02-1.53l.12-.17c-.02-.08.01-.19,0-.28h-6.73s0-1.91,0-1.91l.26-.11c2.84-.05,5.69-.04,8.54.03l.27.08Z"/>
  <path class="cls-5" d="M23.42,32.2c.06,0,.14.01.14.05.05,3.1.09,6.42,0,9.52.05.28,0,.47-.14.56-1.25,0-2.5,0-3.75,0v-9.94c.06-.14.26-.17.39-.19.97-.11,2.35,0,3.37,0Z"/>
  <path class="cls-13" d="M36.32,26.32c.71-.18,1.42-.18,2.13,0,.94,0,2.2-.1,3.08,0,.33.04.55.28.6.61.04.26.04,1.14-.01,1.4-.1.5-.5.52-.9.55-2.96.18-6.09-.13-9.07,0h-.07c0-.85,0-1.7,0-2.55,0-.06.03-.14.07-.14,1.15-.04,2.46-.04,3.61,0,.3-.05.49,0,.58.14Z"/>
  <path class="cls-9" d="M38.44,26.32c-.71,0-1.42,0-2.13,0-.2-.81-.21-1.67,0-2.48-.21-.3-.21-.83,0-1.13-.21-.33-.21-.73,0-1.06l-.09-.04c.17-.92-.02-1.29-.58-1.11l-.11-.13c-.31.21-.75.21-1.06,0-.12.21-.58.21-.71,0-.55.12-1.11.2-1.67.07-.02-.6,0-1.19.04-1.77.25-.16.53-.22.86-.17,1.78.1,3.56.09,5.31,0l.13.11v7.72Z"/>
  <path class="cls-6" d="M28.31,42.33c-.68,0-1.37,0-2.05,0l-.14-.05v-9.68c-.04-.13-.06-.27-.07-.4.55,0,1.54-.09,2.02,0,.12.02.2.07.24.19v9.94Z"/>
  <path class="cls-10" d="M15.91,28.87c0,.61,0,1.23,0,1.84l-9.07.07s-.07-.14-.07-.24c-.02-.56.01-1.11,0-1.67h9.14Z"/>
  <path class="cls-13" d="M38.37,16.12c.32.05.53.28.57.6s.03,1.11-.02,1.4-.22.4-.48.48c-.12.03-.17.06-.31.07-1.91.17-4.06-.13-5.99,0-.02.06-.04.06-.07,0,0-.85,0-1.7,0-2.55h6.31Z"/>
  <path class="cls-5" d="M26.04,32.2c.18.1.22.26.22.46v9.67c-.57,0-1.14,0-1.7,0l-.14-.05v-10l.14-.09c.49,0,.99,0,1.49,0Z"/>
  <path class="cls-11" d="M24.55,32.2v10.13c-.38,0-.76,0-1.13,0v-10.13c.38,0,.76,0,1.13,0Z"/>
  <path class="cls-5" d="M28.1,20.65l-.11.12c-.53-.01-1.07,0-1.61.04.06.59.21,3.46-.07,3.77l-.26.1c-1.84.01-4.13.15-5.92,0-.39-.03-.43-.06-.46-.46-.09-1.09.04-2.34.04-3.44.07-.12.16-.13.28-.14,1.71-.22,3.91.17,5.67,0,.67-.11,1.37-.08,2.05-.08.12,0,.32-.05.39.07Z"/>
  <path class="cls-5" d="M28.1,26.89l-.11.12c-.54-.02-1.07,0-1.61.05.05.66.07,1.31.07,1.94l1.35.03.17.13h-8.1c-.12-.05-.17-.13-.19-.25-.05-.26-.04-1.42,0-1.7.03-.23.09-.29.32-.32,1.71-.23,3.91.17,5.67,0,.67-.11,1.37-.08,2.05-.08.12,0,.32-.05.39.07Z"/>
  <path class="cls-6" d="M28.1,20.65c.05.01.15.09.18.14v3.76c-.09.11-.22.13-.35.14-.55.06-1.3,0-1.88,0,.1-.14.19-.19.22-.39.08-.61.08-2.72,0-3.34-.02-.15-.07-.2-.15-.31.56.08,1.48-.12,1.98,0Z"/>
  <path class="cls-6" d="M28.1,26.89c.11.03.19.14.21.25.05.26.04,1.42,0,1.7s-.11.29-.36.32c-.57.07-1.26-.05-1.84,0-.03-.02.11-.13.13-.19.06-.27.06-1.46.02-1.76-.02-.15-.07-.2-.15-.31.56.08,1.48-.12,1.98,0Z"/>
  <path class="cls-6" d="M32.14,18.67v1.7c.54,0,1.09,0,1.63,0,.04.04.08.1.06.15-.59,1.78,1.22,1.43.6.03l.05-.18c.35,0,.71,0,1.06,0,.04.04.07.1.05.16-.2.58-.26,1.48.57,1.06l.16.06c0,.35,0,.71,0,1.06l-.16.06c-.49-.34-.7.05-.71.53-.01.61.19.65.69.54.06-.01.12,0,.18,0,0,.83,0,1.65,0,2.48h-4.25c0-2.55-.01-5.1,0-7.65h.07Z"/>
  <path class="cls-8" d="M14.07,20.3c.55.28.52,1.53-.18,1.56-.75.03-.81-1.25-.25-1.56h.43Z"/>
  <path class="cls-8" d="M13.7,22.51c.94-.21.98,1.45.26,1.54-.91.12-.83-1.42-.26-1.54Z"/>
  <path class="cls-4" d="M12.37,20.3c.47.37.45,1.62-.32,1.57-.62-.04-.63-1.29-.18-1.57h.5Z"/>
  <path class="cls-4" d="M11.92,22.51c1.05-.31,1,2-.1,1.49-.36-.17-.36-1.35.1-1.49Z"/>
  <path class="cls-4" d="M9.39,31c.42-.06,2.8-.18,2.97.04.14.19.15,1.79-.05,1.93s-2.47.05-2.85,0c-.25-.03-.32-.04-.36-.32-.03-.24-.04-1.2,0-1.42.03-.17.12-.22.28-.25Z"/>
  <path class="cls-4" d="M9.32,34.89c1.03-.1,2.05-.08,3.06.07.12.09.13,1.72,0,1.84l-.29.08c-.41,0-2.72.06-2.88-.06-.09-.07-.09-.15-.1-.25-.03-.22-.02-1.57.09-1.66.04-.03.09,0,.13,0Z"/>
  <path class="cls-5" d="M9.46,32.98c.29.03,2.56.03,2.69-.04.09-.04.12-.13.14-.21.04-.2.03-1.52-.06-1.63-.05-.06-.11-.08-.19-.1-.34-.06-2.3-.06-2.65,0,.07-.12.27-.07.39-.07,1.07-.01,2.6-.12,3.62,0,.26.03.43.11.46.39.03.23.02,1.44-.07,1.57-.04.06-.14.1-.21.14-1.24.05-2.48.05-3.72.03-.12,0-.32.05-.39-.07Z"/>
  <path class="cls-5" d="M12.09,36.88c.14-.1.2-.13.22-.31.03-.28.03-1.08,0-1.35-.03-.23-.09-.29-.32-.32-.57-.08-2.07-.05-2.66,0h4.36s.11.09.14.14c.07.18.07,1.61-.03,1.74-.14.17-1.4.1-1.71.1Z"/>
  <path class="cls-4" d="M34.4,31c.43-.06,2.77-.17,3,0,.24.19.21,1.79-.12,2.01-.11.07-2.35.04-2.65.01-.05,0-.11-.01-.15-.04-.1,0-.16.02-.25-.07-.14-.14-.15-1.43-.1-1.66.03-.17.12-.22.28-.25Z"/>
  <path class="cls-4" d="M37.17,36.88c-.44,0-2.72.07-2.93-.07-.17-.1-.17-1.59-.08-1.78.03-.07.11-.11.18-.14,1.03-.09,2.05-.09,3.07,0,.2.21.19,1.72-.03,1.92l-.21.05Z"/>
  <path class="cls-5" d="M38.87,31.07c.14.72,0,1.18,0,1.84-.19.06-.32.13-.53.15-1.04.09-2.4,0-3.48,0-.12,0-.32.05-.39-.07.31.03,2.54.04,2.69-.04.29-.14.24-1.18.22-1.49-.02-.28-.02-.41-.33-.45-.47-.06-2.2-.08-2.65,0,.07-.12.27-.07.39-.07,1.14-.01,2.5-.08,3.62,0,.18.01.31.04.46.15Z"/>
  <path class="cls-5" d="M38.87,34.96c0,.58,0,1.19,0,1.77-.45.25-1.16.14-1.7.14.32-.23.28-1.82.07-1.95-.31-.18-2.4.07-2.91-.03.07-.12.27-.07.39-.07,1.16-.01,2.55-.08,3.69,0,.18.01.31.04.46.15Z"/>
  <path class="cls-8" d="M34.47,20.37c.36.43.33,1.52-.39,1.49-.67-.03-.67-1.11-.32-1.49.22,0,.48,0,.71,0Z"/>
  <path class="cls-4" d="M36.32,21.65c-.91.76-1.32-.66-.78-1.28.11,0,.23-.1.45-.07.52.08.41.72.4,1.1,0,.1-.07.21-.07.24Z"/>
  <path class="cls-4" d="M36.32,22.71c0,.37,0,.77,0,1.13-.26.38-.87.26-.98-.19-.17-.76.21-1.56.98-.94Z"/>
  <path class="cls-4" d="M33.96,22.51c.94-.2.97,1.45.26,1.54-.92.12-.84-1.42-.26-1.54Z"/>
</svg>