<?xml version="1.0" encoding="UTF-8"?>
<svg id="Layer_16" data-name="Layer 16" xmlns="http://www.w3.org/2000/svg" viewBox="0 0 200 200">
  <defs>
    <style>
      .cls-1 {
        fill: #fed672;
      }

      .cls-2 {
        fill: #b0e3f8;
      }

      .cls-3 {
        fill: #ea5468;
      }

      .cls-4 {
        fill: #fab958;
      }

      .cls-5 {
        fill: #72caf8;
      }

      .cls-6 {
        fill: #e4384f;
      }

      .cls-7 {
        fill: #fefefe;
      }

      .cls-8 {
        fill: #faba58;
      }

      .cls-9 {
        fill: #75cdf7;
      }

      .cls-10 {
        fill: #dcd9eb;
      }

      .cls-11 {
        fill: #f295a2;
      }
    </style>
  </defs>
  <path class="cls-3" d="M131.04,3.34c.27.16.47.11.76,0h6.42c.23,1.37-.35.64,0,.47.32-.16,5.18,3.26,5.95,3.93,12.38,10.87,18.07,27.63,14.33,43.74l-12.64,46-.85.24c-.1.33-.23.32-.38,0l-3.41-.41c-13.15-3.29-26.38-6.62-39.36-10.56-2.18-.66-4.26-1.63-6.31-2.62l-.84-.83c-1.03-7.5-4.11-14.81-8.93-20.65l-.05-1.18c5.56-18.83,6.72-37.95,24.04-50.14,6.13-4.31,12.5-6.34,19.75-8h1.51Z"/>
  <path class="cls-6" d="M139.72,3.34c26.26,2.54,43.07,28.41,37.64,53.68-3.26,15.18-8.89,31.29-13.1,46.37-6.53-.65-13.36-2.79-19.26-5.66l12.58-45.75c4.04-15.47-1.59-32.89-13.54-43.34-1.98-1.73-4.19-2.88-6.2-4.37-.88-.65.15-.58.36-.93.5.03,1.02-.05,1.51,0Z"/>
  <polygon class="cls-11" points="131.79 3.34 131.34 3.59 131.04 3.34 131.79 3.34"/>
  <path class="cls-1" d="M67.99,51.28c2.67,1.79,4.45,5.21,5.76,8.17,7.13,15.99,8,36.22-5.41,49.18l.4.79-1.25.8c-8.73.56-17.13,3.94-24.09,9.19l-1.47.2c-8.05-3.66-14.88-11.35-17.93-19.64-10.4-28.25,14.88-56.05,43.98-48.69Z"/>
  <path class="cls-2" d="M27.21,144.53l.52-.6c19.57,7.72,39.07,15.54,58.52,23.47.99,2.39-1.75,8.23-2.97,10.75-3.31,6.83-8.18,12.84-13.71,18l-1.59.48c-26.69-1.3-45.84-25.85-40.78-52.1Z"/>
  <path class="cls-10" d="M164.26,103.38c-4.31,15.43-8.01,33.78-13.59,48.52-7,18.51-26.29,30.38-46.07,27.74-.43-1.25.93-3.37,2.27-3.4,0-1.51.65-3.06,1.94-4.65.47-1.45,1.21-2.41,2.22-2.9,9.86-6.04,17.45-14.98,20.61-26.26l12.15-44.47.85-.24c.12.03.26-.03.38,0,6.43,1.77,12.85,3.81,19.26,5.66Z"/>
  <path class="cls-9" d="M88.75,152.08l.79,1.05c-.48,4.96-1.14,9.88-1.97,14.73l19.16,7.51.14.87c-.76,1.2-1.38,2.25-2.27,3.4-8.68,11.25-22.3,17.69-36.62,16.99,8.41-7.62,15.62-17.41,18.08-28.64l-58.85-23.46c.97-5.03,2.98-10,5.66-14.35.7-.69.85-.81,1.74-.54,2.11.64,4.38,1.42,6.53,2.25,15.12,5.8,30.05,12.04,44.97,18.33.48.2.93.51,1.37.82s.86.68,1.27,1.05Z"/>
  <path class="cls-2" d="M77.05,110.18l1.7,1.09c7.99,11.59,11.23,25.01,11.19,38.97,0,.3-.13.61-.27.93s-.33.62-.54.92c-.13.33-.25.33-.38,0-17.48-6.91-36.13-15.68-53.79-21.54-.69-.23-1.35-.44-2.09-.36,2.4-3.89,5.51-7.68,9.06-10.57,7.32-5.96,17.39-10.01,26.81-10.19l.89-.75c1.68-.26,6.36.22,7.42,1.51Z"/>
  <path class="cls-4" d="M85.73,61.47c5.08,5.36,9.27,15.31,9.82,22.65l.82,1.14c.2,6.58-1.33,13.21-4.39,19.05-1.43,2.74-3.71,6.93-6.63,7.75-2.46.45-6.15-.51-8.31-1.89-2.56-.38-5.74-.81-8.31-.76l-2.26-.19c15.48-12.72,13.85-37.32,4.59-53.3-.95-1.64-2.28-2.99-3.09-4.65,5.83,1.47,13.67,5.89,17.75,10.19Z"/>
  <path class="cls-7" d="M144.63,97.72l-12.27,44.92c-3.19,10.95-10.1,19.96-19.85,25.83-.36.22-1.25,1-1.48.22l-.48-.89,1.5-5.76.87-.53-.52-1.47c3.04-19.43-7.56-39.46-26.03-46.79l-1.02-1.19c7.09-6.85,10.93-18.09,10.19-27.94,16.28,4.8,32.72,9.08,49.08,13.59Z"/>
  <path class="cls-8" d="M43.72,84.58c3.97-.52,4.47,5.69.65,5.96-3.87.27-4.4-5.46-.65-5.96Z"/>
  <path class="cls-8" d="M65.82,85.53c-2.61-2.6.95-7.09,4.06-4.25,3.09,2.83-1.58,6.72-4.06,4.25Z"/>
  <path class="cls-8" d="M61.83,101.37c-2.6,2.38-6.75-1.13-4.25-4.06,2.77-3.23,7.17,1.37,4.25,4.06Z"/>
  <path class="cls-8" d="M56.93,66.49c2.48,2.48-1.11,6.79-4.07,4.26-3.21-2.75,1.4-6.93,4.07-4.26Z"/>
  <path class="cls-5" d="M112.91,161.52c-.41,2.18-1.11,5.13-1.89,7.17-.98,2.56-2.7,5.25-4.15,7.55l-20.34-7.97c.66-5.4,2.57-10.67,2.22-16.19.11.04.27-.04.38,0,8.29,2.02,16.39,5.18,23.79,9.44Z"/>
  <path class="cls-9" d="M85.35,112.06c20.05,7.22,31.43,28.68,27.56,49.46-7.9-3.21-15.86-6.3-23.79-9.44.65-14.88-3.26-29.87-12.08-41.91,2.67.4,5.75.97,8.31,1.89Z"/>
</svg>