<?xml version="1.0" encoding="UTF-8"?>
<svg xmlns="http://www.w3.org/2000/svg" viewBox="0 0 800 600">
  <defs>
    <style>
      .cls-1 {
        fill: #ededf9;
      }

      .cls-2 {
        fill: #ffc;
      }

      .cls-3 {
        fill: #8b80c2;
      }

      .cls-4 {
        fill: #dcdbfe;
      }

      .cls-5, .cls-6, .cls-7, .cls-8, .cls-9, .cls-10, .cls-11, .cls-12, .cls-13, .cls-14, .cls-15, .cls-16, .cls-17, .cls-18, .cls-19, .cls-20 {
        mix-blend-mode: multiply;
      }

      .cls-5, .cls-9 {
        fill: #eeeafb;
      }

      .cls-5, .cls-12 {
        opacity: .7;
      }

      .cls-6 {
        opacity: .52;
      }

      .cls-6, .cls-21 {
        fill: #3a3259;
      }

      .cls-7 {
        opacity: .45;
      }

      .cls-7, .cls-22 {
        fill: #d88be8;
      }

      .cls-23, .cls-24, .cls-16 {
        fill: #f7c0b6;
      }

      .cls-23, .cls-25, .cls-26, .cls-27, .cls-28, .cls-29 {
        stroke-miterlimit: 10;
      }

      .cls-23, .cls-25, .cls-27 {
        stroke: #dd8c80;
      }

      .cls-23, .cls-25, .cls-27, .cls-28, .cls-29 {
        stroke-width: 1.15px;
      }

      .cls-30 {
        fill: #586865;
      }

      .cls-31 {
        fill: #fff;
      }

      .cls-25 {
        stroke-linecap: round;
      }

      .cls-25, .cls-32, .cls-26, .cls-27, .cls-28, .cls-29 {
        fill: none;
      }

      .cls-33 {
        fill: #ceceed;
        opacity: .65;
      }

      .cls-34 {
        fill: #f2f1f0;
      }

      .cls-8, .cls-35 {
        fill: #ff976f;
      }

      .cls-8, .cls-10 {
        opacity: .38;
      }

      .cls-9 {
        opacity: .61;
      }

      .cls-36 {
        fill: #f3dff5;
      }

      .cls-26 {
        stroke: #fff;
        stroke-width: 2.3px;
      }

      .cls-37, .cls-10 {
        fill: #f55e40;
      }

      .cls-38 {
        isolation: isolate;
      }

      .cls-39 {
        fill: #ffce76;
      }

      .cls-11, .cls-40 {
        fill: #d4d3f4;
      }

      .cls-11, .cls-15 {
        opacity: .37;
      }

      .cls-12 {
        fill: #e5e1f1;
      }

      .cls-41 {
        fill: #f9e4ca;
      }

      .cls-42 {
        fill: #f1f0f7;
      }

      .cls-43 {
        fill: #554493;
      }

      .cls-44 {
        fill: #c2c2f9;
      }

      .cls-13, .cls-17, .cls-19 {
        opacity: .26;
      }

      .cls-45 {
        fill: #fbfcff;
      }

      .cls-45, .cls-46 {
        mix-blend-mode: overlay;
        opacity: .29;
      }

      .cls-47 {
        fill: #74c0e2;
      }

      .cls-48 {
        fill: #c2eaff;
      }

      .cls-49 {
        fill: #fd6448;
      }

      .cls-50 {
        fill: #f9eae8;
      }

      .cls-14, .cls-51 {
        fill: #f99f55;
      }

      .cls-14, .cls-18 {
        opacity: .2;
      }

      .cls-52, .cls-18, .cls-20 {
        fill: #ffc650;
      }

      .cls-46 {
        fill: #f9fafd;
      }

      .cls-15 {
        fill: #f4e9f3;
      }

      .cls-53 {
        fill: #2c2747;
      }

      .cls-54, .cls-55 {
        fill: #ff6242;
      }

      .cls-28 {
        stroke: #ff976f;
      }

      .cls-16 {
        opacity: .55;
      }

      .cls-17, .cls-56 {
        fill: #88d0f7;
      }

      .cls-19 {
        fill: #8dc1d3;
      }

      .cls-29 {
        stroke: #498da5;
      }

      .cls-55 {
        opacity: .12;
      }
    </style>
  </defs>
  <g class="cls-38">
    <g id="Layer_16" data-name="Layer 16">
      <g>
        <path class="cls-33" d="M703.71,593.3H92.31c-7.07,0-12.81-5.73-12.81-12.81h0c0-7.07,5.73-12.81,12.81-12.81h611.41c7.07,0,12.81,5.73,12.81,12.81h0c0,7.07-5.73,12.81-12.81,12.81Z"/>
        <path class="cls-40" d="M445.16,545c10.19,1.18,18.43,11.43,17.39,21.64,3.08-3.01,7.91-4.07,11.96-2.64,4.06,1.43,7.15,5.29,7.66,9.56,4.84-2.08,11.15.7,12.89,5.66-25.41.92-50.98,1.78-76.41,1.27-24.75-.49-7.44-19.76-1.53-14.15.38-12.97,15.93-22.75,28.04-21.35Z"/>
        <path class="cls-2" d="M502.51,97.22v383.93s-31.06,1.04-71.55,2.02c-.72.02-1.41.04-2.13.06-3.68.08-7.4.18-11.21.27-2.72.08-5.44.14-8.2.18-6.16.12-12.41.27-18.75.39-.12,0-.25.02-.35,0-1.33.02-2.64.06-3.97.08-10,.18-20.08.35-30,.49-1.27.02-2.52.04-3.78.04-51.2.63-97.56.33-104.9-2.64-.02,0-.02-.02-.02-.02-.37-.14-.63-.31-.8-.47-.14-.14-.18-.27-.18-.41.06-.74.02-4.23-.08-9.98,0-.63-.02-1.31-.04-2.02v-.25c-.02-.96-.02-2-.06-3.09-.02-1.37-.04-2.82-.08-4.34,0-.59-.02-1.21-.04-1.82,0-.8-.02-1.64-.04-2.47-.02-.65-.02-1.31-.04-1.98-.04-1.47-.06-3.01-.1-4.58-.02-1.51-.06-3.09-.1-4.7-.08-3.44-.16-7.05-.25-10.88-.02-.92-.04-1.84-.06-2.78-.02-.96-.04-1.96-.08-2.97-.02-.82-.04-1.64-.06-2.47-.04-1.82-.08-3.68-.12-5.58-.08-3.46-.16-7.01-.27-10.67-.02-1.45-.06-2.94-.1-4.44-.02-.61-.04-1.25-.04-1.86-.04-1.64-.08-3.29-.12-4.97-.04-1.53-.08-3.09-.12-4.64,0-.78-.02-1.57-.06-2.37-.02-.86-.04-1.74-.06-2.6-.18-7.48-.37-15.25-.57-23.25-.02-.43-.04-.86-.04-1.29-.16-6.83-.35-13.8-.53-20.88-.04-1.78-.1-3.56-.14-5.34-.08-3.56-.16-7.16-.27-10.76-.06-1.82-.1-3.62-.14-5.42-.04-1.82-.08-3.64-.14-5.46-.04-1.7-.08-3.37-.12-5.07-.08-2.86-.14-5.75-.22-8.61-.06-2.76-.14-5.54-.23-8.3v-.33c-.08-2.88-.14-5.77-.22-8.65-.06-2.52-.12-5.05-.2-7.57-.14-5.5-.31-11-.43-16.46-.2-7.73-.41-15.42-.61-22.98-.14-4.91-.27-9.77-.39-14.58-.04-1.74-.08-3.48-.14-5.19,0-.29-.02-.55-.02-.84-.06-2.7-.14-5.38-.2-8.02-.02-.47-.04-.94-.04-1.41-.04-1.7-.08-3.37-.14-5.03-1.62-60.59-2.88-107.03-2.88-107.03h265.49Z"/>
        <path class="cls-41" d="M502.51,362.65v112.16c-19.55-15.48-82.68-125.58-82.68-125.58,0,0,.63,69.75-.02,81.43-.47,8.34,6.91,36.91,11.14,52.51v.02c-.7.02-1.41.04-2.13.04-3.66.1-7.4.18-11.21.27-2.72.08-5.44.14-8.2.18-6.16.14-12.43.27-18.75.39-.12,0-.25.02-.35,0-1.33.02-2.64.06-3.97.08-9.98.18-20.06.37-30,.49-1.27.02-2.52.04-3.78.04-51.25.65-97.62.33-104.9-2.64-.02,0-.02-.02-.02-.02-.39-.14-.65-.31-.8-.47-.14-.14-.18-.27-.18-.41.06-.74.02-4.23-.08-9.98,0-.63-.02-1.31-.04-2.02v-.25c-.02-.98-.04-2-.06-3.09-.02-1.37-.04-2.82-.08-4.34,0-.59-.02-1.21-.04-1.82,0-.8-.02-1.64-.04-2.47-.02-.65-.02-1.31-.04-1.98-.04-1.47-.06-3.01-.1-4.58-.02-1.51-.06-3.09-.1-4.7-.08-3.44-.16-7.05-.25-10.88-.02-.92-.04-1.84-.06-2.78-.02-.96-.04-1.96-.08-2.97-.02-.82-.04-1.64-.06-2.47-.04-1.82-.08-3.68-.12-5.58-.08-3.46-.16-7.01-.27-10.67-.02-1.45-.06-2.94-.1-4.44-.02-.61-.04-1.25-.04-1.86-.04-1.64-.08-3.29-.12-4.97-.04-1.53-.08-3.09-.12-4.64-.02-.8-.04-1.57-.06-2.37-.02-.86-.04-1.74-.06-2.6-.18-7.5-.39-15.28-.57-23.25-.02-.43-.04-.86-.04-1.29-.18-6.83-.35-13.8-.53-20.88-.04-1.78-.1-3.56-.14-5.34-.08-3.56-.18-7.14-.27-10.76-.06-1.82-.1-3.62-.14-5.42-.06-1.82-.1-3.64-.14-5.46-.04-1.7-.08-3.37-.12-5.07-.08-2.86-.14-5.75-.22-8.61-.08-2.76-.16-5.52-.23-8.3v-.33c-.08-2.88-.14-5.77-.22-8.65-.08-2.52-.14-5.05-.2-7.57-.14-5.5-.31-11-.43-16.46-.12-4.62-.25-9.24-.37-13.82-.08-3.07-.16-6.13-.25-9.16-.14-4.91-.27-9.77-.39-14.58-.04-1.74-.1-3.48-.14-5.19,0-.29-.02-.55-.02-.84-.06-2.7-.14-5.38-.2-8.02-.02-.47-.04-.94-.04-1.41-.06-1.68-.1-3.35-.14-5.03,2.41-.78,4.91-1.39,7.46-1.86,38.53-7.1,49.43-44.03,44.95-78.18h59.45c-4.48,34.15,6.42,71.08,44.95,78.18,38.53,7.08,64.21,49.79,64.01,88.71,0,0,24.58,41.08,41.8,71.55Z"/>
        <path class="cls-15" d="M396.74,343.35c-7.38,4.65-16.01,6.86-24.57,8.53-15.49,3.04-31.27,4.56-47.05,4.55,8.14,11.67,24.02,14.52,38.23,15.32,17.13.97,34.34.4,51.37-1.69,1.14-.14,2.35-.32,3.19-1.1,1.08-1.01,1.18-2.65,1.2-4.13.12-7.01,3.92-27.85-1.99-32.62-7.46-6.01-15.06,7.78-20.39,11.13Z"/>
        <g>
          <circle class="cls-55" cx="385.31" cy="193.46" r="43.79" transform="translate(132.97 543.05) rotate(-80.84)"/>
          <circle class="cls-55" cx="385.31" cy="193.46" r="22.75"/>
          <path class="cls-54" d="M394.19,193.46c0,4.9-3.97,8.88-8.88,8.88s-8.88-3.97-8.88-8.88,3.97-8.88,8.88-8.88,8.88,3.97,8.88,8.88Z"/>
        </g>
        <g>
          <path class="cls-39" d="M324.69,67.35c-10.74,10.74-28.15,10.74-38.88,0-10.74-10.74-10.74-28.15,0-38.88,10.74-10.74,28.14-10.74,38.88,0,10.74,10.74,10.74,28.14,0,38.88Z"/>
          <path class="cls-52" d="M323.34,65.99c-9.99,9.99-26.19,9.99-36.18,0-9.99-9.99-9.99-26.19,0-36.18,9.99-9.99,26.19-9.99,36.18,0,9.99,9.99,9.99,26.19,0,36.18Z"/>
          <path class="cls-20" d="M323.34,65.99c-1.28,1.28-10.41-5.79-20.4-15.78-9.99-9.99-17.05-19.12-15.78-20.4,1.28-1.28,10.41,5.79,20.4,15.78,9.99,9.99,17.05,19.12,15.78,20.4Z"/>
        </g>
        <g>
          <path class="cls-1" d="M487.8,454.62c10.26,10.86,9.78,27.98-1.08,38.25-10.86,10.26-27.98,9.78-38.25-1.08-10.26-10.86-9.78-27.98,1.08-38.25,10.86-10.26,27.98-9.78,38.25,1.08Z"/>
          <path class="cls-40" d="M486.43,455.91c9.55,10.1,9.1,26.04-1,35.59-10.1,9.55-26.04,9.1-35.59-1s-9.1-26.04,1-35.59c10.1-9.55,26.04-9.1,35.59,1Z"/>
          <path class="cls-11" d="M486.43,455.91c1.22,1.29-5.98,10.08-16.09,19.63-10.1,9.55-19.28,16.24-20.5,14.95-1.22-1.29,5.98-10.08,16.09-19.63,10.1-9.55,19.28-16.24,20.5-14.95Z"/>
        </g>
        <g>
          <path class="cls-22" d="M190.55,116.85l-34.18,34.18c-6.26,6.26-16.41,6.26-22.67,0-6.26-6.26-6.26-16.41,0-22.67l34.18-34.18c6.26-6.26,16.41-6.26,22.67,0,3.13,3.13,4.7,7.23,4.7,11.34s-1.57,8.21-4.69,11.33Z"/>
          <path class="cls-52" d="M167.62,139.78l-11.25,11.25c-6.26,6.26-16.41,6.26-22.67,0-6.26-6.26-6.26-16.41,0-22.67l11.25-11.25c6.26-6.26,16.41-6.26,22.67,0,3.13,3.13,4.7,7.23,4.7,11.34s-1.57,8.21-4.69,11.33Z"/>
          <path class="cls-7" d="M138.16,154.18c-1.61-.77-3.13-1.82-4.46-3.15-6.26-6.26-6.26-16.41,0-22.67l34.18-34.18c6.26-6.26,16.41-6.26,22.67,0,1.33,1.33,2.38,2.85,3.15,4.46-5.95-2.83-13.29-1.78-18.21,3.15l-34.18,34.18c-4.93,4.93-5.98,12.27-3.15,18.22Z"/>
          <path class="cls-46" d="M149.23,146.74h0c-1.53-1.52-1.53-4,0-5.52l33.11-33.11c1.53-1.52,4-1.52,5.52,0h0c1.52,1.52,1.52,4,0,5.52l-33.11,33.11c-1.52,1.53-4,1.53-5.52,0Z"/>
        </g>
        <g>
          <path class="cls-49" d="M636.65,443.09l26.71-14.22c4.89-2.61,10.97-.75,13.58,4.14,2.6,4.89.75,10.97-4.14,13.57l-26.71,14.22c-4.89,2.6-10.97.75-13.57-4.14-1.3-2.45-1.49-5.19-.74-7.65.75-2.46,2.44-4.63,4.88-5.93Z"/>
          <path class="cls-52" d="M654.57,433.55l8.79-4.68c4.89-2.61,10.97-.75,13.58,4.14,2.6,4.89.75,10.97-4.14,13.57l-8.79,4.68c-4.89,2.6-10.97.75-13.57-4.14-1.3-2.45-1.49-5.19-.74-7.65.75-2.46,2.44-4.63,4.88-5.93Z"/>
          <path class="cls-20" d="M674.84,430.31c.82.75,1.54,1.66,2.09,2.7,2.6,4.89.75,10.97-4.14,13.57l-26.71,14.22c-4.89,2.6-10.97.75-13.57-4.14-.56-1.04-.91-2.14-1.07-3.24,3.05,2.78,7.63,3.49,11.48,1.44l26.71-14.22c3.85-2.05,5.82-6.25,5.21-10.33Z"/>
          <path class="cls-46" d="M666.85,432.74h0c.63,1.19.18,2.67-1.01,3.31l-25.87,13.78c-1.19.63-2.67.18-3.31-1.01h0c-.63-1.19-.18-2.67,1.01-3.31l25.87-13.78c1.19-.63,2.67-.18,3.31,1.01Z"/>
        </g>
        <g>
          <path class="cls-44" d="M407.19,548.98c-3.52,15.52-8.87,28.13-14.45,31.12-8.19,4.37-20.45,4.67-24.44,4.64-3.93.03-16.28-.27-24.53-4.64-5.59-2.98-10.93-15.6-14.45-31.12-2.72-12.06-4.31-25.83-4.05-38.24.03-1.33.15-2.6.3-3.81,3.34-24.5,32.69-23.97,33.34-42.23l-.24-10.08-.38-15.01-.06-2.51h20.07l-.06,2.51-.38,15.01-.24,10.08c.65,18.26,30,17.73,33.34,42.23.15,1.21.27,2.48.3,3.81.27,12.41-1.33,26.18-4.05,38.24Z"/>
          <path class="cls-12" d="M400.99,552.77c-3.61,13.68-8.07,21.4-10.67,22.79-7.03,3.75-18.26,4.05-21.54,4.05h-.98c-3.31,0-14.57-.3-21.6-4.05-2.6-1.39-7.06-9.1-10.67-22.79-3.52-13.27-5.41-28.93-5.11-41.91.12-5.53,1.68-9.66,4.08-13.03,3.22-4.52,7.98-7.68,12.89-10.93,7.62-5.02,16.25-10.76,16.64-22.02v-.15l-.53-22.49h9.55l-.53,22.49v.15c.38,11.26,9.01,16.99,16.64,22.02,2.57,1.68,5.08,3.37,7.36,5.2,5.35,4.34,9.4,9.69,9.6,18.77.3,12.97-1.6,28.64-5.11,41.91Z"/>
          <path class="cls-52" d="M400.99,552.77c-3.61,13.68-8.07,21.4-10.67,22.79-7.03,3.75-18.26,4.05-21.54,4.05h-.98c-3.31,0-14.57-.3-21.6-4.05-2.6-1.39-7.06-9.1-10.67-22.79-3.52-13.27-5.41-28.93-5.11-41.91.12-5.53,1.68-9.66,4.08-13.03,1.6.95,3.34,1.71,5.08,2.28,7.74,2.54,16.14,1.83,24.26,1.09,11.2-1.03,23.02-2.28,32.21-8.78.15-.12.3-.21.44-.32,5.35,4.34,9.4,9.69,9.6,18.77.3,12.97-1.6,28.64-5.11,41.91Z"/>
          <polygon class="cls-12" points="378.23 439.61 377.85 454.62 358.67 454.62 358.28 439.61 378.23 439.61"/>
          <rect class="cls-21" x="354.92" y="431.26" width="26.67" height="15.03"/>
          <rect class="cls-53" x="354.92" y="438.78" width="26.67" height="7.52"/>
          <path class="cls-46" d="M378.89,510.46c2.71,1.46,5.66,2.62,8.74,2.7,1.38.03,2.81-.17,3.96-.93,1.8-1.18,2.55-3.47,2.7-5.61.33-4.64-1.6-9.24-4.52-12.86s-6.76-6.39-10.71-8.84c-2.57-1.59-5.33-3.11-8.35-3.28-7.18-.39-12.06,7.26-8.6,13.49,3.33,6,10.84,12.13,16.78,15.34Z"/>
          <path class="cls-42" d="M407.2,548.99h-77.88c-2.72-12.05-4.32-25.84-4.04-38.25.03-1.33.13-2.6.29-3.8h85.37c.16,1.2.26,2.47.29,3.8.29,12.41-1.31,26.21-4.04,38.25Z"/>
          <path class="cls-37" d="M353.8,526.3c0,5.34-4.33,9.66-9.66,9.66s-9.66-4.33-9.66-9.66,4.33-9.66,9.66-9.66,9.66,4.33,9.66,9.66Z"/>
          <g>
            <rect class="cls-31" x="362.85" y="516.63" width="32.78" height="3.81"/>
            <rect class="cls-31" x="362.85" y="526.06" width="32.78" height="3.81"/>
            <rect class="cls-31" x="362.85" y="535.48" width="32.78" height="3.81"/>
          </g>
          <path class="cls-12" d="M372.85,584.62c-1.92.12-3.52.12-4.55.12-3.93.03-16.28-.27-24.53-4.64-5.59-2.98-10.93-15.6-14.45-31.12-2.72-12.06-4.31-25.83-4.05-38.24.03-1.33.15-2.6.3-3.81,3.34-24.5,32.69-23.97,33.34-42.23l-.24-10.08-.38-15.01-.06-2.51h10.14l.06,2.51.33,15.01.18,10.08c-.53,18.26-24.26,17.73-26.95,42.23-.12,1.21-.21,2.48-.24,3.81-.24,12.41,1.06,26.18,3.25,38.24,2.87,15.52,7.18,28.13,11.7,31.12,4.97,3.22,11.7,4.23,16.17,4.52Z"/>
        </g>
        <g>
          <path class="cls-42" d="M179.18,371.87l-39.9,25.54c-10.15,6.5-23.65,3.54-30.15-6.62l-54.69-85.44c-6.5-10.15-3.54-23.65,6.62-30.15l39.9-25.54c10.15-6.5,23.65-3.54,30.15,6.62l54.69,85.44c6.5,10.15,3.54,23.65-6.62,30.15Z"/>
          <g>
            <g>
              <g>
                <path class="cls-49" d="M66.55,289.02l12.71-8.13c2.33-1.49,5.42-.81,6.91,1.52,1.49,2.33.81,5.42-1.52,6.91l-12.71,8.13c-2.33,1.49-5.42.81-6.91-1.52-.75-1.16-.95-2.52-.67-3.77.27-1.25,1.03-2.4,2.19-3.14Z"/>
                <path class="cls-52" d="M75.08,283.57l4.18-2.68c2.33-1.49,5.42-.81,6.91,1.52,1.49,2.33.81,5.42-1.52,6.91l-4.18,2.68c-2.33,1.49-5.42.81-6.91-1.52-.75-1.16-.95-2.52-.67-3.77.27-1.25,1.03-2.4,2.19-3.14Z"/>
                <path class="cls-46" d="M81.15,282.68h0c.36.57.2,1.32-.37,1.68l-12.31,7.88c-.57.36-1.32.2-1.68-.37h0c-.36-.57-.2-1.32.37-1.68l12.31-7.88c.57-.36,1.32-.2,1.68.37Z"/>
                <path class="cls-20" d="M85.02,281.15c.44.34.83.76,1.15,1.26,1.49,2.33.81,5.42-1.52,6.91l-12.71,8.13c-2.33,1.49-5.42.81-6.91-1.52-.32-.5-.54-1.03-.66-1.57,1.63,1.26,3.93,1.43,5.76.26l12.71-8.13c1.83-1.17,2.64-3.34,2.18-5.34Z"/>
              </g>
              <g>
                <path class="cls-49" d="M80.82,311.32l12.71-8.13c2.33-1.49,5.42-.81,6.91,1.52,1.49,2.33.81,5.42-1.52,6.91l-12.71,8.13c-2.33,1.49-5.42.81-6.91-1.52-.75-1.16-.95-2.52-.67-3.77.27-1.25,1.03-2.4,2.19-3.14Z"/>
                <path class="cls-52" d="M89.34,305.86l4.18-2.68c2.33-1.49,5.42-.81,6.91,1.52,1.49,2.33.81,5.42-1.52,6.91l-4.18,2.68c-2.33,1.49-5.42.81-6.91-1.52-.75-1.16-.95-2.52-.67-3.77.27-1.25,1.03-2.4,2.19-3.14Z"/>
                <path class="cls-46" d="M95.42,304.97h0c.36.57.2,1.32-.37,1.68l-12.31,7.88c-.57.36-1.32.2-1.68-.37h0c-.36-.57-.2-1.32.37-1.68l12.31-7.88c.57-.36,1.32-.2,1.68.37Z"/>
                <path class="cls-20" d="M99.29,303.44c.44.34.83.76,1.15,1.26,1.49,2.33.81,5.42-1.52,6.91l-12.71,8.13c-2.33,1.49-5.42.81-6.91-1.52-.32-.5-.54-1.03-.66-1.57,1.63,1.26,3.93,1.43,5.76.26l12.71-8.13c1.83-1.17,2.64-3.34,2.18-5.34Z"/>
              </g>
              <g>
                <path class="cls-49" d="M95.09,333.61l12.71-8.13c2.33-1.49,5.42-.81,6.91,1.52,1.49,2.33.81,5.42-1.52,6.91l-12.71,8.13c-2.33,1.49-5.42.81-6.91-1.52-.75-1.16-.95-2.52-.67-3.77.27-1.25,1.03-2.4,2.19-3.14Z"/>
                <path class="cls-52" d="M103.61,328.15l4.18-2.68c2.33-1.49,5.42-.81,6.91,1.52,1.49,2.33.81,5.42-1.52,6.91l-4.18,2.68c-2.33,1.49-5.42.81-6.91-1.52-.75-1.16-.95-2.52-.67-3.77.27-1.25,1.03-2.4,2.19-3.14Z"/>
                <path class="cls-46" d="M109.69,327.26h0c.36.57.2,1.32-.37,1.68l-12.31,7.88c-.57.36-1.32.2-1.68-.37h0c-.36-.57-.2-1.32.37-1.68l12.31-7.88c.57-.36,1.32-.2,1.68.37Z"/>
                <path class="cls-20" d="M113.56,325.74c.44.34.83.76,1.15,1.26,1.49,2.33.81,5.42-1.52,6.91l-12.71,8.13c-2.33,1.49-5.42.81-6.91-1.52-.32-.5-.54-1.03-.66-1.57,1.63,1.26,3.93,1.43,5.76.26l12.71-8.13c1.83-1.17,2.64-3.34,2.18-5.34Z"/>
              </g>
              <g>
                <path class="cls-49" d="M109.36,355.91l12.71-8.13c2.33-1.49,5.42-.81,6.91,1.52,1.49,2.33.81,5.42-1.52,6.91l-12.71,8.13c-2.33,1.49-5.42.81-6.91-1.52-.75-1.16-.95-2.52-.67-3.77.27-1.25,1.03-2.4,2.19-3.14Z"/>
                <path class="cls-52" d="M117.88,350.45l4.18-2.68c2.33-1.49,5.42-.81,6.91,1.52,1.49,2.33.81,5.42-1.52,6.91l-4.18,2.68c-2.33,1.49-5.42.81-6.91-1.52-.75-1.16-.95-2.52-.67-3.77.27-1.25,1.03-2.4,2.19-3.14Z"/>
                <path class="cls-46" d="M123.96,349.56h0c.36.57.2,1.32-.37,1.68l-12.31,7.88c-.57.36-1.32.2-1.68-.37h0c-.36-.57-.2-1.32.37-1.68l12.31-7.88c.57-.36,1.32-.2,1.68.37Z"/>
                <path class="cls-20" d="M127.83,348.03c.44.34.83.76,1.15,1.26,1.49,2.33.81,5.42-1.52,6.91l-12.71,8.13c-2.33,1.49-5.42.81-6.91-1.52-.32-.5-.54-1.03-.66-1.57,1.63,1.26,3.93,1.43,5.76.26l12.71-8.13c1.83-1.17,2.64-3.34,2.18-5.34Z"/>
              </g>
              <g>
                <path class="cls-49" d="M123.63,378.2l12.71-8.13c2.33-1.49,5.42-.81,6.91,1.52,1.49,2.33.81,5.42-1.52,6.91l-12.71,8.13c-2.33,1.49-5.42.81-6.91-1.52-.75-1.16-.95-2.52-.67-3.77.27-1.25,1.03-2.4,2.19-3.14Z"/>
                <path class="cls-52" d="M132.15,372.74l4.18-2.68c2.33-1.49,5.42-.81,6.91,1.52,1.49,2.33.81,5.42-1.52,6.91l-4.18,2.68c-2.33,1.49-5.42.81-6.91-1.52-.75-1.16-.95-2.52-.67-3.77.27-1.25,1.03-2.4,2.19-3.14Z"/>
                <path class="cls-46" d="M138.23,371.85h0c.36.57.2,1.32-.37,1.68l-12.31,7.88c-.57.36-1.32.2-1.68-.37h0c-.36-.57-.2-1.32.37-1.68l12.31-7.88c.57-.36,1.32-.2,1.68.37Z"/>
                <path class="cls-20" d="M142.1,370.33c.44.34.83.76,1.15,1.26,1.49,2.33.81,5.42-1.52,6.91l-12.71,8.13c-2.33,1.49-5.42.81-6.91-1.52-.32-.5-.54-1.03-.66-1.57,1.63,1.26,3.93,1.43,5.76.26l12.71-8.13c1.83-1.17,2.64-3.34,2.18-5.34Z"/>
              </g>
            </g>
            <g>
              <g>
                <path class="cls-49" d="M98.51,268.57l12.71-8.13c2.33-1.49,5.42-.81,6.91,1.52,1.49,2.33.81,5.42-1.52,6.91l-12.71,8.13c-2.33,1.49-5.42.81-6.91-1.52-.75-1.16-.95-2.52-.67-3.77.27-1.25,1.03-2.4,2.19-3.14Z"/>
                <path class="cls-52" d="M107.03,263.11l4.18-2.68c2.33-1.49,5.42-.81,6.91,1.52,1.49,2.33.81,5.42-1.52,6.91l-4.18,2.68c-2.33,1.49-5.42.81-6.91-1.52-.75-1.16-.95-2.52-.67-3.77.27-1.25,1.03-2.4,2.19-3.14Z"/>
                <path class="cls-46" d="M113.11,262.22h0c.36.57.2,1.32-.37,1.68l-12.31,7.88c-.57.36-1.32.2-1.68-.37h0c-.36-.57-.2-1.32.37-1.68l12.31-7.88c.57-.36,1.32-.2,1.68.37Z"/>
                <path class="cls-20" d="M116.98,260.69c.44.34.83.76,1.15,1.26,1.49,2.33.81,5.42-1.52,6.91l-12.71,8.13c-2.33,1.49-5.42.81-6.91-1.52-.32-.5-.54-1.03-.66-1.57,1.63,1.26,3.93,1.43,5.76.26l12.71-8.13c1.83-1.17,2.64-3.34,2.18-5.34Z"/>
              </g>
              <g>
                <path class="cls-49" d="M112.78,290.86l12.71-8.13c2.33-1.49,5.42-.81,6.91,1.52,1.49,2.33.81,5.42-1.52,6.91l-12.71,8.13c-2.33,1.49-5.42.81-6.91-1.52-.75-1.16-.95-2.52-.67-3.77.27-1.25,1.03-2.4,2.19-3.14Z"/>
                <path class="cls-52" d="M121.3,285.41l4.18-2.68c2.33-1.49,5.42-.81,6.91,1.52,1.49,2.33.81,5.42-1.52,6.91l-4.18,2.68c-2.33,1.49-5.42.81-6.91-1.52-.75-1.16-.95-2.52-.67-3.77.27-1.25,1.03-2.4,2.19-3.14Z"/>
                <path class="cls-46" d="M127.38,284.52h0c.36.57.2,1.32-.37,1.68l-12.31,7.88c-.57.36-1.32.2-1.68-.37h0c-.36-.57-.2-1.32.37-1.68l12.31-7.88c.57-.36,1.32-.2,1.68.37Z"/>
                <path class="cls-20" d="M131.25,282.99c.44.34.83.76,1.15,1.26,1.49,2.33.81,5.42-1.52,6.91l-12.71,8.13c-2.33,1.49-5.42.81-6.91-1.52-.32-.5-.54-1.03-.66-1.57,1.63,1.26,3.93,1.43,5.76.26l12.71-8.13c1.83-1.17,2.64-3.34,2.18-5.34Z"/>
              </g>
              <g>
                <path class="cls-49" d="M127.04,313.16l12.71-8.13c2.33-1.49,5.42-.81,6.91,1.52,1.49,2.33.81,5.42-1.52,6.91l-12.71,8.13c-2.33,1.49-5.42.81-6.91-1.52-.75-1.16-.95-2.52-.67-3.77.27-1.25,1.03-2.4,2.19-3.14Z"/>
                <path class="cls-52" d="M135.57,307.7l4.18-2.68c2.33-1.49,5.42-.81,6.91,1.52,1.49,2.33.81,5.42-1.52,6.91l-4.18,2.68c-2.33,1.49-5.42.81-6.91-1.52-.75-1.16-.95-2.52-.67-3.77.27-1.25,1.03-2.4,2.19-3.14Z"/>
                <path class="cls-46" d="M141.64,306.81h0c.36.57.2,1.32-.37,1.68l-12.31,7.88c-.57.36-1.32.2-1.68-.37h0c-.36-.57-.2-1.32.37-1.68l12.31-7.88c.57-.36,1.32-.2,1.68.37Z"/>
                <path class="cls-20" d="M145.52,305.28c.44.34.83.76,1.15,1.26,1.49,2.33.81,5.42-1.52,6.91l-12.71,8.13c-2.33,1.49-5.42.81-6.91-1.52-.32-.5-.54-1.03-.66-1.57,1.63,1.26,3.93,1.43,5.76.26l12.71-8.13c1.83-1.17,2.64-3.34,2.18-5.34Z"/>
              </g>
              <g>
                <path class="cls-49" d="M141.31,335.45l12.71-8.13c2.33-1.49,5.42-.81,6.91,1.52,1.49,2.33.81,5.42-1.52,6.91l-12.71,8.13c-2.33,1.49-5.42.81-6.91-1.52-.75-1.16-.95-2.52-.67-3.77.27-1.25,1.03-2.4,2.19-3.14Z"/>
                <path class="cls-52" d="M149.84,330l4.18-2.68c2.33-1.49,5.42-.81,6.91,1.52,1.49,2.33.81,5.42-1.52,6.91l-4.18,2.68c-2.33,1.49-5.42.81-6.91-1.52-.75-1.16-.95-2.52-.67-3.77.27-1.25,1.03-2.4,2.19-3.14Z"/>
                <path class="cls-46" d="M155.91,329.11h0c.36.57.2,1.32-.37,1.68l-12.31,7.88c-.57.36-1.32.2-1.68-.37h0c-.36-.57-.2-1.32.37-1.68l12.31-7.88c.57-.36,1.32-.2,1.68.37Z"/>
                <path class="cls-20" d="M159.79,327.58c.44.34.83.76,1.15,1.26,1.49,2.33.81,5.42-1.52,6.91l-12.71,8.13c-2.33,1.49-5.42.81-6.91-1.52-.32-.5-.54-1.03-.66-1.57,1.63,1.26,3.93,1.43,5.76.26l12.71-8.13c1.83-1.17,2.64-3.34,2.18-5.34Z"/>
              </g>
              <g>
                <path class="cls-49" d="M155.58,357.75l12.71-8.13c2.33-1.49,5.42-.81,6.91,1.52,1.49,2.33.81,5.42-1.52,6.91l-12.71,8.13c-2.33,1.49-5.42.81-6.91-1.52-.75-1.16-.95-2.52-.67-3.77.27-1.25,1.03-2.4,2.19-3.14Z"/>
                <path class="cls-52" d="M164.11,352.29l4.18-2.68c2.33-1.49,5.42-.81,6.91,1.52,1.49,2.33.81,5.42-1.52,6.91l-4.18,2.68c-2.33,1.49-5.42.81-6.91-1.52-.75-1.16-.95-2.52-.67-3.77.27-1.25,1.03-2.4,2.19-3.14Z"/>
                <path class="cls-46" d="M170.18,351.4h0c.36.57.2,1.32-.37,1.68l-12.31,7.88c-.57.36-1.32.2-1.68-.37h0c-.36-.57-.2-1.32.37-1.68l12.31-7.88c.57-.36,1.32-.2,1.68.37Z"/>
                <path class="cls-20" d="M174.06,349.87c.44.34.83.76,1.15,1.26,1.49,2.33.81,5.42-1.52,6.91l-12.71,8.13c-2.33,1.49-5.42.81-6.91-1.52-.32-.5-.54-1.03-.66-1.57,1.63,1.26,3.93,1.43,5.76.26l12.71-8.13c1.83-1.17,2.64-3.34,2.18-5.34Z"/>
              </g>
            </g>
          </g>
          <line class="cls-26" x1="88.88" y1="274.73" x2="151.35" y2="372.34"/>
        </g>
        <g>
          <path class="cls-36" d="M191.4,578.87c7.19-24.03.41-95.97-16.29-100.31-5.75-1.49-17.19,63.53,16.29,100.31Z"/>
          <g class="cls-13">
            <path class="cls-36" d="M188.9,568.43c-13.15-19.17-10.49-46.47-8.09-53.58.46.48,1,1.2,1.59,2.26,5.77,10.25,8.27,36.65,6.5,51.32Z"/>
          </g>
          <path class="cls-51" d="M196.21,582.14c-1.4-42.02-55.97-97.68-68.38-91.28-12.41,6.4,14.47,74.15,68.38,91.28Z"/>
          <path class="cls-52" d="M191.92,581.79c-25.82-24.54-73.73-48.39-81.01-37.86-7.28,10.54,61.42,44.79,81.01,37.86Z"/>
          <path class="cls-18" d="M183.17,579.35c-19.11-15.19-50.31-31.21-54.3-25.43-3.99,5.78,37.59,19.57,54.3,25.43Z"/>
          <path class="cls-14" d="M196.21,582.14c-9.44-28.75-41.5-69.46-49.12-65.53-7.62,3.93,21.32,50.17,49.12,65.53Z"/>
        </g>
        <g>
          <path class="cls-36" d="M597.28,578.87c-7.19-24.03-.41-95.97,16.29-100.31,5.75-1.49,17.19,63.53-16.29,100.31Z"/>
          <g class="cls-13">
            <path class="cls-36" d="M599.79,568.43c13.15-19.17,10.49-46.47,8.09-53.58-.46.48-1,1.2-1.59,2.26-5.77,10.25-8.27,36.65-6.5,51.32Z"/>
          </g>
          <path class="cls-51" d="M592.48,582.14c1.4-42.02,55.97-97.68,68.38-91.28,12.41,6.4-14.47,74.15-68.38,91.28Z"/>
          <path class="cls-52" d="M596.77,581.79c25.82-24.54,73.73-48.39,81.01-37.86,7.28,10.54-61.42,44.79-81.01,37.86Z"/>
          <path class="cls-18" d="M605.52,579.35c19.11-15.19,50.31-31.21,54.3-25.43,3.99,5.78-37.59,19.57-54.3,25.43Z"/>
          <path class="cls-14" d="M592.48,582.14c9.44-28.75,41.5-69.46,49.12-65.53,7.62,3.93-21.32,50.17-49.12,65.53Z"/>
        </g>
        <g>
          <polygon class="cls-24" points="192.91 553.07 191.6 562.75 208.09 562.75 212.38 549.01 192.91 553.07"/>
          <path class="cls-21" d="M223.21,582.7c-1.22.84-35.14-.67-37.28-1.01-2.14-.34,2.79-21.75,4.88-21.59.63.04,2.65.16,5.17.29,5.83.31,14.31.72,14.31.72,0,0,.37,6.07-.7,7.42,0,0,2.86-.34,7.59,3.71,2.77,2.37,4.78,5.25,5.73,7.41.67,1.54.8,2.7.3,3.05Z"/>
          <path class="cls-35" d="M209.6,568.54c-8.45-.31-13.46,5.2-13.46,5.2,0,0-1.25-2.65,2.76-5.21,4.01-2.57,10.7.01,10.7.01Z"/>
          <polygon class="cls-24" points="276.16 553.07 277.81 562.75 294.29 562.75 295.63 549.01 276.16 553.07"/>
          <path class="cls-21" d="M310.5,581.28c-.08.07-.34.14-.74.21-5.12.9-34.39,1.87-36.38,1.73-2.15-.15.84-21.83,2.94-21.86.55,0,2.15-.06,4.22-.14,5.79-.21,15.2-.58,15.2-.58,0,0,.9,5.99-.04,7.43,0,0,2.8-.59,7.86,3.01,5.05,3.6,8.07,9.26,6.93,10.21Z"/>
          <path class="cls-35" d="M295.7,568.07c-8.42.44-12.9,6.36-12.9,6.36,0,0-1.47-2.52,2.28-5.42,3.76-2.9,10.62-.94,10.62-.94Z"/>
          <path class="cls-21" d="M244.63,263.89c-25.99,19.98-69.6,9.21-72.36-13.01-2.52-20.26,14.36-24.4,21.27-32.19.67-.75,1.24-1.54,1.7-2.38,5.17-9.52-15.3-11.35-15.91-28.25-.61-16.89,8.9-28.84,29.66-32.52,15.98-2.84,20.7,3.6,22.02,6.73.4.93.49,1.57.49,1.57,7.05-.83,17.84,10.99,7.47,23.07,0,0,5.43,14.36,18.89,20.51,13.47,6.15,12.76,36.49-13.22,56.46Z"/>
          <path class="cls-6" d="M244.63,263.89c-25.99,19.98-69.6,9.21-72.36-13.01-2.52-20.26,14.36-24.4,21.27-32.19.55,4.21-3.51,8.75-5.82,12.09,6.15,1.47,11.66-5.4,14.85-9.67,1.41-1.88,2.84-3.82,3.47-6.08.63-2.26.27-4.95-1.48-6.51-1.53-1.36-3.72-1.58-5.65-2.26-3.85-1.34-6.89-4.79-7.73-8.78-.84-3.98.53-8.37,3.5-11.16,3.69-3.47,9.31-4.36,12.81-8.01,1.01-1.05,1.82-2.32,2.97-3.2,1.66-1.28,3.82-1.64,5.82-2.27,5.88-1.82,10.56-5.92,14.73-10.57.4.93.49,1.57.49,1.57,7.05-.83,17.84,10.99,7.47,23.07,0,0,5.43,14.36,18.89,20.51,13.47,6.15,12.76,36.49-13.22,56.46Z"/>
          <g>
            <path class="cls-24" d="M326.9,238.4c2.48-3.61.45-16,2.03-18.71,1.58-2.71,3.16,6.53,3.16,6.53,0,0,9.92-7.3,13.3-7.03,3.38.27-1.58,3.2-1.58,3.2,0,0,5.19-2.71,6.31-1.58,1.13,1.13-3.38,4.96-3.38,4.96,0,0,3.38-3.35,4.51-1.79,1.13,1.56-4.06,6.75-4.06,6.75,0,0,3.93-2.71,4.22-.9.29,1.8-11.43,11.95-18.2,15.33-6.76,3.38-6.31-6.76-6.31-6.76Z"/>
            <path class="cls-25" d="M343.95,231.35c-6.11-1.14-7.72,3.47-7.72,3.47"/>
          </g>
          <path class="cls-35" d="M336.16,249.28c-.32,1.43-3.66,6.29-8.3,11.96-8.21,10.06-20.44,22.68-26.91,23.25-7.76.67-25.86-13.12-33.88-19.61-2.45-1.98-3.96-3.27-3.96-3.27l-7.45-49.04c13.61,4.15,39.97,39.74,39.97,39.74,0,0,28.21-16.67,30.85-16.67s10.56,9.69,9.68,13.65Z"/>
          <path class="cls-8" d="M327.87,261.24c-8.21,10.06-20.44,22.68-26.91,23.25-7.76.67-25.86-13.12-33.88-19.61.15-7.87.16-15.74,0-23.61,3.28,7.54,6.63,15.19,11.85,21.56,5.22,6.36,12.65,11.37,20.86,11.82,5.68.31,11.13-1.6,15.98-4.41,2.78-1.61,8.64-8.13,12.09-8.99Z"/>
          <path class="cls-50" d="M320.45,237.03c1.69-2.32,5.73-4.88,7.7-4.03s11.72,11.17,11,13.82c-.72,2.65-3.28,8.53-5.79,8.51-2.51-.02-15.68-14.51-12.91-18.31Z"/>
          <path class="cls-37" d="M263.11,348.82c-1.75,18.8-6.25,43.67-9.87,61.2-2.24,10.83-4.13,18.86-4.83,20.95-2.43,7.29-3.64,18.83-12.54,41.31-7.98,20.18-18.95,69.26-21.1,79.07-.25,1.12-.38,1.72-.38,1.72h-24.89c1.22-4.25,0-41.35,3.55-72.29,2.7-23.53,9.73-34.19,9.73-34.19-7.9-40.7-5.24-83.33,7.22-113.1,0,0,48.13-25.83,52.99-7.61.3,1.12.51,2.46.65,4.01.44,4.73.18,11.33-.53,18.93Z"/>
          <path class="cls-37" d="M302.47,456.48c0,12.9-5.56,84.31-6.42,95.2-.07.91-.11,1.39-.11,1.39h-25.68s-1.04-16.25-2.42-44.95c-1.62-33.7-6.07-68.06-6.07-68.06,0,0-4.09-14.63-8.54-30.03l-.36-1.26c-4.46-15.44-9.19-31.28-10.44-33.68-1.29-2.46-1.26-13.22-.93-23.21.32-9.71.93-18.7.93-18.7l21.2-3.28,18.42-2.85c2.84,6.51,5.31,14.3,7.45,22.78,10.07,39.85,12.96,95.14,12.96,106.66Z"/>
          <polyline class="cls-28" points="256.99 333.44 259.13 385.52 249.16 396.08 246.17 336.56"/>
          <path class="cls-10" d="M289.51,349.82c-7.91-.54-15.53-1.34-21.76-1.18-1.54.04-3.09.1-4.63.18-7.28.39-14.58,1.29-21.61,3.05-7.44,1.86-14.56,4.68-21,8.87-13.81,8.97-23.73,25.35-21.22,41.63,2.13,13.79,12.6,25.89,11.9,39.83-.31,6.21-2.85,12.06-5.04,17.88-6.28,16.65-9.98,34.27-10.94,52.04-.61,11.22.34,23.65,8.17,31.7,3.2,3.29,7.22,5.5,11.39,7.53-.25,1.12-.38,1.72-.38,1.72h-24.89c1.22-4.25,0-41.35,3.55-72.29,2.7-23.53,9.73-34.19,9.73-34.19-7.9-40.7-5.24-83.33,7.22-113.1,0,0,48.13-25.83,52.99-7.61.3,1.12.51,2.46.65,4.01l18.42-2.85c2.84,6.51,5.31,14.3,7.45,22.78Z"/>
          <path class="cls-35" d="M282.05,329.54c-1.8,3.59-73.69,12.13-73.69,10.78s6.74-25.16,6.74-29.66c0-3.29-13.73-25.61-21.08-42.98-2.69-6.35-4.53-12.03-4.53-15.88,0-14.38,3.14-21.57,19.77-28.76,0,0,39.54-17.52,48.98-8.99,9.44,8.54,14.83,51.22,14.38,72.34-.38,17.81,7.87,33.7,9.39,40.4.28,1.25.33,2.17.05,2.74Z"/>
          <path class="cls-8" d="M282.05,329.54c-1.8,3.59-73.69,12.13-73.69,10.78s6.74-25.16,6.74-29.66c0-3.29-13.73-25.61-21.08-42.98.69-2.99,1.41-5.98,1.54-9.01.27-6.15-1.51-13.41,2.96-17.65,2.01-1.91,4.88-2.63,7.64-2.88,10.16-.92,21.04,10.46,29.23,1.9,2.64-2.75,4.3-6.27,6.39-9.46.44-.68.92-1.35,1.58-1.82.85-.6,1.93-.79,2.96-.7,2.58.22,4.79,2.1,6.09,4.34,1.3,2.24,1.86,4.83,2.39,7.36,1.29,6.13,2.59,12.25,3.88,18.38,1.5,7.11,1.04,13.65,1.38,20.77.27,5.58-.49,12.02-5.52,15.48-4.4,3.03-10.38,2.17-15.41.38-5.03-1.78-9.93-4.4-15.27-4.56-.38-.01-.79,0-1.11.21-.74.5-.48,1.64-.11,2.45,5.76,12.74,17.6,22.56,31.18,25.86,5.38,1.31,11.02,1.66,16.17,3.68,3.69,1.45,7.12,3.75,11.04,4.27.32.04.64.07.96.09.28,1.25.33,2.17.05,2.74Z"/>
          <path class="cls-24" d="M254.16,233.26c.71-7.86-2.05-18.94-3.02-22.32-.97-3.39-5.46-6.24-8.76-5.82-3.3.41-9.15,3.86-9.98,5.44-.83,1.58-1.88,5.46-.87,5.34,1.01-.13,2.98-1.96,2.98-1.96,0,0,6.13,1.05,5.97,1.06-.17.01-5.4-1.13-5.75.51-.35,1.64,4.74,3.03,5.24,4.63.5,1.6.46,13.37.91,14.77.45,1.4,13.28-1.64,13.28-1.64Z"/>
          <g>
            <path class="cls-24" d="M228.97,215.69c0,2.91-1.82,5.68-4.81,6.68-2.91.97-6.12-.07-7.92-2.56l-7.03-9.75-4.58-6.35,17.96-1.33,4.8,8.67.69,1.24c.6,1.09.88,2.25.88,3.39Z"/>
            <path class="cls-16" d="M227.39,211.05c-1.03.42-2.15.78-3.37,1.07-4.57,1.09-9.89.16-14.82-2.06l-4.58-6.35,17.96-1.33,4.8,8.67Z"/>
            <path class="cls-24" d="M233.38,173.14c8.39,17.86,8.25,32.75-7.46,36.48-15.71,3.73-40.2-16.24-27.42-31.15,12.78-14.91,29.98-15.75,34.88-5.32Z"/>
            <path class="cls-24" d="M204.15,195.98c-6.97-6.65-13.77-4.27-12.98,1.42.79,5.7,14.09,9.82,15.36,6.49,1.27-3.32-2.37-7.92-2.37-7.92Z"/>
            <path class="cls-16" d="M201.61,197.22c-3.56-3.4-7.05-2.19-6.64.73.41,2.92,7.21,5.02,7.86,3.32.65-1.7-1.22-4.05-1.22-4.05Z"/>
            <path class="cls-25" d="M223.15,184.58c1.42,4.75,6.81,6.02,3.01,8.87"/>
            <path class="cls-25" d="M227.49,197.88c-4.02-2.69-9.57,0-9.57,0"/>
            <path class="cls-21" d="M229.27,181.77c.36,1.31.07,2.53-.65,2.72-.72.2-1.59-.7-1.95-2.01-.36-1.31-.07-2.53.65-2.72.72-.2,1.59.7,1.95,2.01Z"/>
            <path class="cls-21" d="M216.77,185.37c.36,1.31.07,2.53-.65,2.72-.72.2-1.59-.7-1.95-2.01-.36-1.31-.07-2.53.65-2.72.72-.2,1.59.7,1.95,2.01Z"/>
            <path class="cls-16" d="M225.32,201.35c-4.63-.8-6.06,0-6.06,1.8s9.05-1.28,6.06-1.8Z"/>
            <path class="cls-21" d="M223.19,175.54c1.5-1.06,6.42-.58,6.46.89.05,1.47-5.65,1.28-6.56.4-.92-.88.1-1.29.1-1.29Z"/>
          </g>
          <path class="cls-21" d="M194.94,194.91c-9.33-.39-13.53-11.8-2.78-22.19.58-.56,1.2-1.12,1.87-1.67,10.91-9,20.51-12.37,24.84-10.1.86.45,1.51,1.12,1.92,2.01,6.52,14.12-16.03,32.36-25.86,31.94Z"/>
          <path class="cls-6" d="M194.94,194.91c-9.33-.39-13.53-11.8-2.78-22.19-.02.1-.04.2-.06.3-.43,2.41-.26,4.89.03,7.32.17,1.46.41,2.97,1.27,4.16.69.96,1.75,1.62,2.86,2.02,2.36.82,5.01.5,7.3-.49,2.29-.99,4.27-2.59,6.06-4.33,3.46-3.36,6.35-7.29,8.52-11.6.93-1.85,1.73-3.84,1.51-5.96-.1-1.03-.57-2.12-.78-3.19.86.45,1.51,1.12,1.92,2.01,6.52,14.12-16.03,32.36-25.86,31.94Z"/>
          <path class="cls-35" d="M203.42,236.98c7.2-.33,29.82,11.56,29.82,11.56,0,0,3.43-22.8,5.22-24.15,1.8-1.35,14.83.9,16.18,3.15,1.35,2.25,1.35,31.45,0,45.38-1.35,13.93-11.23,14.38-15.73,13.48-4.49-.9-35.07-12.09-42.24-24.26-7.17-12.17-3.15-24.71,6.74-25.16Z"/>
          <path class="cls-50" d="M238.92,222.72c4.34.05,14.51,1.06,16.74,2.81,2.23,1.75,1.25,9.02,0,10.09-1.25,1.07-19.21-1.54-19.79-3.52-.58-1.98-1.57-9.44,3.05-9.38Z"/>
          <path class="cls-10" d="M296.05,551.68c-.07.91-.11,1.39-.11,1.39h-25.68s-1.04-16.25-2.42-44.95c-1.62-33.7-6.07-68.06-6.07-68.06,0,0-4.09-14.63-8.54-30.03l-.36-1.26c.12-.48.25-.96.38-1.43,9.8,8.37,4.26,26.67,15.88,35.98,1.58,1.26,3.36,2.32,4.68,3.85,4.33,5.03,2.2,12.64.54,19.06-6.22,23.95-2.49,49.23,1.28,73.69.59,3.84,1.49,8.16,4.79,10.19,2.02,1.24,4.52,1.33,6.89,1.39,2.91.06,5.82.13,8.73.2Z"/>
          <path class="cls-6" d="M223.21,582.7c-1.22.84-35.14-.67-37.28-1.01-2.14-.34,2.79-21.75,4.88-21.59.63.04,2.65.16,5.17.29-.15.97-.7,1.95-1.18,2.59-1.34,1.8-2.69,3.37-3.53,5.5-.41,1.04-2.01,5.62-1.06,6.57,4.51,3.31,10.26,4.44,15.84,4.67,5.58.23,11.18-.35,16.76-.07.03,0,.06,0,.1,0,.67,1.54.8,2.7.3,3.05Z"/>
          <path class="cls-6" d="M309.76,581.49c-5.12.9-34.39,1.87-36.38,1.73-2.15-.15.84-21.83,2.94-21.86.55,0,2.15-.06,4.22-.14-.14.39-.31.8-.51,1.21-1.26,2.72-2.47,5.23-2.81,8.27-.39,3.49.59,7.65,3.8,9.06,1.06.46,2.25.57,3.41.66,8.42.65,16.88,1.01,25.33,1.07Z"/>
        </g>
        <g>
          <g>
            <path class="cls-24" d="M460.71,227.39c-6.63-5.19-9.67-4.83-11.82-11.28-2.15-6.45-3.22-8.96-5.55-10.12-2.33-1.16-6.63-2.23-8.06-4.38-1.43-2.15-2.69,3.79,0,6.28,0,0-12.71-10.94-14.68-9.14-1.97,1.79,7.78,11.68,7.78,11.68,0,0-1.45,3.11-1.94,4.6-.5,1.49-4.96,5.77-4.56,9.27.63,5.57,11.88,6.35,16.59,7.35,4.71.99,10.91,9.18,11.41,8.93s10.83-13.18,10.83-13.18Z"/>
            <path class="cls-16" d="M436.03,211.74c.9-.58,1.73-1.47,2.81-1.47-.34,2.52-.53,5.07-.57,7.61-.01.9,0,1.81.28,2.66.45,1.32,1.51,2.32,2.53,3.27-4.39-1.35-9.37-.63-13.19,1.93.47-2.35.88-4.72,1.22-7.1.32-2.26.28-4.79.85-6.99,1.96.95,4.11,1.34,6.07.08Z"/>
            <path class="cls-23" d="M426.33,209.13c1.6.16,6.65,5.92,6.79,6.78.14.85-.71,2.71-1.64,2.78-.93.07-6.05-2.21-7.34-4.42-1.28-2.21-.06-5.36,2.18-5.14Z"/>
            <path class="cls-23" d="M423.35,214.62c1.59-.22,7.85,4.2,8.19,5,.34.8-.06,2.8-.94,3.08-.88.29-6.4-.73-8.16-2.58-1.76-1.85-1.31-5.2.92-5.5Z"/>
            <path class="cls-23" d="M421.95,220.06c1.4-.3,7.27,3.24,7.62,3.93.35.69.13,2.5-.64,2.81-.77.31-5.76-.24-7.45-1.78-1.69-1.53-1.5-4.55.47-4.97Z"/>
            <path class="cls-27" d="M435.28,207.88l3.51,2.99s-1.1,9.09,1.1,11.87"/>
          </g>
          <path class="cls-40" d="M518.81,255.14s-3.04,5.46-7.32,12.14c-6.98,10.89-17.25,24.99-22.99,23.85-8.01-1.6-34.9-34.02-42.68-45.31-1.2-1.75-1.95-2.99-2.1-3.54-1.11-4.07,15.91-17.76,17.39-18.5,1.48-.74,27.75,24.42,28.49,22.08.74-2.34,15.54-30.96,27.44-34.8l1.76,44.08Z"/>
          <path class="cls-11" d="M511.48,267.28c-6.98,10.89-17.25,24.99-22.99,23.85-8.01-1.6-34.9-34.02-42.68-45.31,2.57,1.37,5.27,2.58,7.69,4.19,4.7,3.12,8.26,7.64,11.7,12.11,3.77,4.9,8.04,10.19,14.11,11.36,5.8,1.12,11.54-1.88,16.51-5.08,3.32-2.13,6.63-4.49,8.78-7.8,3.07-4.72,3.39-10.76,6.02-15.74.37-.7,1.28-1.45,1.82-.88.23.24.23.61.23.94-.11,7.24-1.51,15.02-1.2,22.37Z"/>
          <g>
            <g>
              <polygon class="cls-24" points="540.22 552.43 538.57 562.11 522.09 562.11 520.75 548.37 540.22 552.43"/>
              <path class="cls-21" d="M543,582.58c-2.15.15-35.67-.99-36.81-1.94-.55-.45-.21-1.99.86-3.87,1.14-2.03,3.14-4.46,5.77-6.34,5.05-3.6,7.86-3.01,7.86-3.01-.94-1.43-.04-7.43-.04-7.43,0,0,9.6.38,15.37.59,1.98.07,3.52.12,4.05.13,2.09.03,5.09,21.72,2.94,21.86Z"/>
              <path class="cls-31" d="M520.67,567.43c8.42.44,12.9,6.36,12.9,6.36,0,0,1.47-2.52-2.28-5.42-3.76-2.9-10.62-.94-10.62-.94Z"/>
              <path class="cls-6" d="M543,582.58c-2.15.15-35.67-.99-36.81-1.94-.55-.45-.21-1.99.86-3.87,13.22,2.62,30.22,1.33,33.18-.66,2.44-1.64-2.94-10.9-4.21-15.53,1.98.07,3.52.12,4.05.13,2.09.03,5.09,21.72,2.94,21.86Z"/>
            </g>
            <g>
              <polygon class="cls-24" points="580.75 548.37 583.09 562.11 599.58 562.11 600.92 548.37 580.75 548.37"/>
              <path class="cls-21" d="M615.48,580.64c-1.14.95-34.66,2.09-36.81,1.94-2.15-.15.84-21.83,2.94-21.86.23,0,.67-.01,1.24-.03,4.54-.14,18.18-.69,18.18-.69,0,0,.9,5.99-.04,7.43,0,0,2.8-.59,7.86,3.01,2.24,1.6,4.02,3.6,5.21,5.41,1.49,2.28,2.05,4.27,1.42,4.79Z"/>
              <path class="cls-6" d="M615.48,580.64c-1.14.95-34.66,2.09-36.81,1.94-2.15-.15.84-21.83,2.94-21.86.23,0,.67-.01,1.24-.03-4.38,18.12,1.1,17.74,31.21,15.16,1.49,2.28,2.05,4.27,1.42,4.79Z"/>
              <path class="cls-31" d="M600.99,567.43c-8.42.44-12.9,6.36-12.9,6.36,0,0-1.47-2.52,2.28-5.42,3.76-2.9,10.62-.94,10.62-.94Z"/>
            </g>
            <path class="cls-47" d="M601.45,548.73c-.12,4.09-.2,6.51-.2,6.51h-26.89s-8.46-68.57-9.75-79.84c-.38-3.29-1.38-10.63-2.62-19.38-3.01-21.25-7.39-50.8-7.39-50.8,0,0-1.39,22.84-2.26,42.04-.54,11.83-.88,22.28-.57,25.14.82,7.52-2.25,65.74-6.08,82.85h-27.58l-.05-3.78-2.42-195.81-.2-16.5,76.33.67c4.59,22.56,6.69,62.5,8.19,90.41.72,13.38,1.3,24,1.95,28.63,1.67,11.82.11,70.16-.47,89.86Z"/>
            <polyline class="cls-29" points="542.56 340.37 546.09 390.03 554.06 395.61 552.23 341.09"/>
            <path class="cls-19" d="M599.97,430.24c-.35,0-.7,0-1.05-.01-3.68-.09-7.56-.53-10.5-2.74-1.78-1.34-3.07-3.22-4.32-5.07-12.17-17.94-24.33-35.87-36.5-53.8-6.84-10.09-13.67-10.57-25.01-11.37-2.59-.18-4.91-.73-6.94-1.59l-.2-16.5,76.33.67c4.59,22.56,6.69,62.5,8.19,90.41Z"/>
          </g>
          <path class="cls-56" d="M537.71,206.39c15.15-2.5,25.94-2.32,25.94-2.32l19.08,142.34h-26.68l-9.96-6.85-6.24,6.85h-21.53s3.03-122.55,19.39-140.03Z"/>
          <path class="cls-40" d="M627.73,383.9c-1.43,5.74-24.39,21.04-46.87,21.04,0,0-18.65-59.78-22.48-88.95-3.83-29.18,5.26-111.92,5.26-111.92,4.85-.56,9.85-.25,14.14.35,6.7.93,11.68,2.53,11.68,2.53,0,0,2.98,12.98,5.96,26.47,2.99,13.53,6,27.57,6,29.49,0,3.83-5.26,16.74-5.26,18.65,0,1.36,16.67,49.58,25.79,79.43,3.72,12.15,6.19,21.26,5.77,22.92Z"/>
          <path class="cls-11" d="M621.96,360.98c-4.67-.66-9.16-1.98-12.72-4.98-2.6-2.2-4.47-5.12-6.6-7.78-3.85-4.82-8.62-8.81-12.82-13.33-4.2-4.51-7.95-9.77-9.08-15.83-.62-3.34-.42-6.78-.06-10.16,1.62-15.41,6.34-30.78,4.17-46.11-1.22-8.63-6.44-18.89.94-25.89,2.56-2.42,6.14-3.84,9.64-3.5,2.99,13.53,6,27.57,6,29.49,0,3.83-5.26,16.74-5.26,18.65,0,1.36,16.67,49.58,25.79,79.43Z"/>
          <g>
            <polygon class="cls-24" points="588.99 309.81 579.76 324.36 590.22 336.48 603.73 319.86 588.99 309.81"/>
            <path class="cls-40" d="M589.47,206.94c5.7,4.25,20.62,20.8,27.32,31.8,6.7,11,17.64,33.72,18.59,44.24.96,10.52-33.36,53.61-36.23,52.17-2.87-1.43-15.54-17.26-15.54-19.17s21.17-39.22,21.17-39.22c0,0-21.52-21.04-24.39-42.09-2.87-21.04,4.98-30.81,9.09-27.74Z"/>
          </g>
          <path class="cls-1" d="M574.69,312.41c2.35,3.47,29.11,35.34,29.36,36.64.26,1.3-3.38,6.5-5.46,5.46-2.08-1.04-28.59-31.18-28.33-34.82.26-3.64,3.64-8.42,4.42-7.28Z"/>
          <path class="cls-1" d="M567.09,235.28l7.15,7.86-15.86,72.84c-3.83-29.18,5.26-111.92,5.26-111.92,4.85-.56,9.85-.25,14.14.35,0,0-3.61,22.75-10.69,30.86Z"/>
          <path class="cls-40" d="M535.39,206.39c-7.72.52-17.75,2.96-20.06,6.18-2.31,3.22-4.63,68.3-5.02,76.27-.39,7.96-3.86,98.24-3.47,109.04,0,0,7.33,8.87,10.03,9.26,2.7.39,3.86-71.96,5.4-91.15,1.54-19.19,13.12-109.6,13.12-109.6Z"/>
          <path class="cls-1" d="M523.07,208.55c-2.34,10.33,0,31.16,0,31.16,0,0-3.88,10.8-4.27,15.43-.39,4.63,3.81,57.1,3.81,57.1l15.09-105.84s-5.25-1.79-14.63,2.16Z"/>
          <polygon class="cls-1" points="509.03 321.63 513.59 329.65 509.29 357.5 506.82 348.64 509.03 321.63"/>
          <path class="cls-48" d="M540.23,205.41c-4.07,7.82.4,14.62.4,14.62l7.98-5.7,9.11,7.43s4.89-11.47,2.24-18.52l-19.73,2.16Z"/>
          <g>
            <g>
              <path class="cls-21" d="M556.58,187.93s-47.29-7.51-50.31-14.54c-3.02-7.03,4.74-14.73,4.74-14.73,0,0-7.54,2.15-5.98-3.89.42-1.62,1.65-3.06,3.24-4.3,4.3-3.35,11.16-5.19,11.16-5.19,0,0-8.41-2.15,1.41-5.39,9.82-3.23,28.32.86,35.75,6.68,7.43,5.82,5.73,12.08,5.73,12.08.19.12.37.23.55.36,8.18,5.63,5.65,19.24-6.28,28.91Z"/>
              <path class="cls-6" d="M556.58,187.93s-47.29-7.51-50.31-14.54c-3.02-7.03,4.74-14.73,4.74-14.73,0,0-7.54,2.15-5.98-3.89.42-1.62,1.65-3.06,3.24-4.3.98,1.16,2.14,2.18,3.39,3.03,3.17,2.17,6.9,3.37,10.64,4.23,3.16.73,6.41,1.23,9.64.95,6.78-.6,12.73-4.55,18.35-8.39.73,1.89.87,3.95,1.37,5.92.51,1.96,1.52,3.96,3.34,4.84,2.84,1.37,5.34-.6,7.85-2.04,8.18,5.63,5.65,19.24-6.28,28.91Z"/>
              <path class="cls-24" d="M556.58,185.28l-.85,12.49-.5,7.31c-.21,3.06-2.38,5.64-5.37,6.35-.56.13-1.11.2-1.65.2-2.94,0-5.58-1.86-6.58-4.59-.24-.65-.39-1.35-.42-2.08l-.57-11.32,15.95-8.35Z"/>
              <path class="cls-16" d="M556.58,185.28l-.85,12.49c-2.9,3.93-6.6,7.02-10.65,8.38-1.19.4-2.34.69-3.45.88-.24-.65-.39-1.35-.42-2.08l-.57-11.32,15.95-8.35Z"/>
              <path class="cls-24" d="M516.03,174.51c2.31,19.59,10.29,32.17,25.6,27.03,15.31-5.13,25.56-35.03,6.83-40.94-18.73-5.91-33.78,2.47-32.43,13.9Z"/>
              <path class="cls-21" d="M559.96,170.86c-6.48,3.41-5.01,6.13-5.01,6.13,0,0-3.65-9.19,1.64-12.85,5.29-3.67,3.37,6.73,3.37,6.73Z"/>
              <path class="cls-6" d="M559.96,170.86c-6.48,3.41-5.01,6.13-5.01,6.13,0,0-3.65-9.19,1.64-12.85,5.29-3.67,3.37,6.73,3.37,6.73Z"/>
              <path class="cls-24" d="M552.91,178.46c2.4-9.33,9.44-10.9,11.78-5.65,2.34,5.26-6.78,15.78-9.61,13.62-2.83-2.15-2.16-7.98-2.16-7.98Z"/>
              <path class="cls-16" d="M554.53,178.18c1.27-4.92,4.98-5.76,6.21-2.98,1.23,2.77-3.58,8.33-5.07,7.19-1.49-1.14-1.14-4.21-1.14-4.21Z"/>
              <path class="cls-25" d="M530.76,178.82c1.3,4.79-2.6,8.7,2.13,9.12"/>
              <path class="cls-21" d="M524.07,179.67c.39,1.3,1.27,2.18,1.99,1.97.71-.21.98-1.44.59-2.74-.39-1.3-1.27-2.18-1.99-1.97-.71.21-.98,1.44-.59,2.74Z"/>
              <path class="cls-21" d="M536.59,176.12c.39,1.3,1.27,2.18,1.99,1.97.71-.21.98-1.44.59-2.74-.38-1.3-1.27-2.18-1.99-1.97s-.98,1.44-.59,2.74Z"/>
              <path class="cls-16" d="M544.69,192.58c-2.22,4.14-2.52,2.76-3.94,1.65-1.42-1.11,5.37-4.33,3.94-1.65Z"/>
              <path class="cls-21" d="M525.95,171.17c-1.83-.11-5.75,2.9-5.02,4.17.74,1.27,5.47-1.9,5.78-3.13s-.76-1.04-.76-1.04Z"/>
              <path class="cls-31" d="M534.66,190.2c3.64-1.39,6.02-7.45,6.02-7.45,0,0,3.45,5.86,1.6,7.45-3.59,3.09-7.62,0-7.62,0Z"/>
              <path class="cls-21" d="M545.07,157.8c-1.41,15.5-25.22,20.59-30.17,17.94-3.87-2.06-3.26-9.88,1.97-15.46,1.46-1.56,3.28-2.95,5.48-3.99,8.43-3.99,19.1-3.55,21.98-.48.54.57.81,1.24.74,1.99Z"/>
            </g>
            <path class="cls-6" d="M545.07,157.8c-1.41,15.5-25.22,20.59-30.17,17.94-3.87-2.06-3.26-9.88,1.97-15.46-.99,2.79-1.15,5.88-.37,8.74.34,1.25.89,2.51,1.92,3.31,1.82,1.4,4.43.89,6.59.11,6.34-2.28,12.05-6.3,16.34-11.5,1.26-1.54,2.43-3.22,2.99-5.12.54.57.81,1.24.74,1.99Z"/>
          </g>
          <path class="cls-17" d="M552.35,447.89c-.54,11.83-.88,22.28-.57,25.14.82,7.52-2.25,65.74-6.08,82.85h-27.58l-.05-3.78c3.21-.34,6.53-.3,9.67-.16,1.57.07,3.32.08,4.48-.98.93-.84,1.22-2.16,1.47-3.39,1.18-5.8,2.36-11.6,3.55-17.39,1.71-8.41,3.43-16.82,5.14-25.22,1.98-9.73,3.97-19.45,5.7-29.23,1.56-8.78,1.45-19.49,4.27-27.85Z"/>
          <path class="cls-32" d="M561.94,509.39c-3.3-13.67-6.82-27.38-5.25-40.83.14,2.45.29,4.7.53,6.48,1.36,9.89,2.72,19.78,4.08,29.67.21,1.56.43,3.12.64,4.68Z"/>
          <path class="cls-32" d="M561.3,504.71c.21,1.56.43,3.12.64,4.68-3.3-13.67-6.82-27.38-5.25-40.83.14,2.45.29,4.7.53,6.48,1.36,9.89,2.72,19.78,4.08,29.67Z"/>
          <path class="cls-17" d="M601.45,549.37c-.12,4.09-.2,6.51-.2,6.51h-26.89s-8.46-68.57-9.75-79.84c-.38-3.29-1.38-10.63-2.62-19.38.88.81,1.69,2.74,2.35,5.43,1.66,6.82,2.83,13.81,4.24,20.68,2.92,14.25,5.83,28.5,8.76,42.75,1.26,6.19,2.78,12.82,7.47,17.06,4.45,4.02,10.82,5.02,16.65,6.79Z"/>
        </g>
        <g>
          <g>
            <polygon class="cls-43" points="516.18 46.47 514.55 48.64 469.74 15.05 468.13 10.46 516.18 46.47"/>
            <path class="cls-40" d="M579.96,16.44h11.1c6.38,0,11.56,5.18,11.56,11.56v155.82h-34.23V28.01c0-6.38,5.18-11.56,11.56-11.56Z" transform="translate(154.21 508.57) rotate(-53.15)"/>
            <path class="cls-12" d="M660.24,139.97l-15.53,20.72-128.42-96.26c-3.04-2.28-3.66-6.59-1.38-9.64l7.27-9.7c2.28-3.04,6.59-3.66,9.64-1.38l128.42,96.26Z"/>
            <rect class="cls-40" x="645.8" y="120.16" width="9.67" height="57.57" transform="translate(141.2 580.21) rotate(-53.14)"/>
            <rect class="cls-3" x="617.62" y="130.2" width="25.89" height="7.43" transform="translate(145.21 558.15) rotate(-53.15)"/>
            <rect class="cls-43" x="658.78" y="161.04" width="25.89" height="7.43" transform="translate(137 603.43) rotate(-53.15)"/>
            <rect class="cls-43" x="632.31" y="145.23" width="36.64" height="7.43" transform="translate(141.21 580.22) rotate(-53.15)"/>
            <rect class="cls-43" x="508.49" y="46.76" width="16.92" height="3.97" transform="translate(167.89 433.15) rotate(-53.15)"/>
            <rect class="cls-3" x="509.12" y="43.97" width="8.9" height="4.48" transform="translate(168.56 429.42) rotate(-53.14)"/>
            <g>
              <rect class="cls-43" x="526.09" y="72.46" width="12.67" height="2.71" transform="translate(154.02 455.56) rotate(-53.14)"/>
              <rect class="cls-43" x="542.2" y="84.54" width="12.67" height="2.71" transform="translate(150.8 473.29) rotate(-53.15)"/>
              <rect class="cls-43" x="558.32" y="96.62" width="12.67" height="2.71" transform="translate(147.59 491.02) rotate(-53.15)"/>
              <rect class="cls-43" x="574.43" y="108.7" width="12.67" height="2.71" transform="translate(144.37 508.75) rotate(-53.15)"/>
              <rect class="cls-43" x="590.55" y="120.78" width="12.67" height="2.71" transform="translate(141.16 526.48) rotate(-53.15)"/>
              <rect class="cls-43" x="606.66" y="132.86" width="12.67" height="2.71" transform="translate(137.93 544.2) rotate(-53.14)"/>
            </g>
          </g>
          <path class="cls-46" d="M622.34,120.6h0c-1.45,1.93-4.18,2.32-6.11.87l-74.13-55.56c-1.93-1.45-2.32-4.18-.87-6.11h0c1.45-1.93,4.18-2.32,6.11-.87l74.13,55.56c1.93,1.45,2.32,4.18.87,6.11Z"/>
        </g>
        <g>
          <g>
            <path class="cls-4" d="M716.52,276.92v92.15c0,5.39-4.37,9.75-9.75,9.75h-36.72c-5.39,0-9.75-4.37-9.75-9.75v-92.15c0-6.9,5.59-12.49,12.49-12.49h0c2.87,0,5.2-2.33,5.2-5.2v-20.1h20.84v20.1c0,2.87,2.33,5.2,5.2,5.2h0c6.9,0,12.49,5.6,12.49,12.49Z"/>
            <path class="cls-9" d="M712.48,276.93v92.14c0,3.15-2.56,5.71-5.71,5.71h-36.73c-3.15,0-5.71-2.56-5.71-5.71v-92.14c0-4.66,3.78-8.47,8.45-8.47,5.09,0,9.24-4.13,9.24-9.24v-16.05h12.76v16.05c0,5.11,4.13,9.24,9.24,9.24,4.66,0,8.45,3.8,8.45,8.47Z"/>
            <path class="cls-54" d="M712.48,311.44v57.63c0,3.15-2.56,5.71-5.71,5.71h-36.73c-3.15,0-5.71-2.56-5.71-5.71v-57.63h48.14Z"/>
            <path class="cls-5" d="M688.13,239.14v20.08c0,1.43-.57,2.74-1.51,3.68-.94.94-2.25,1.53-3.68,1.53-6.89,0-12.49,5.58-12.49,12.49v92.14c0,5.38,4.38,9.75,9.75,9.75h-10.14c-5.38,0-9.75-4.38-9.75-9.75v-92.14c0-6.91,5.6-12.49,12.49-12.49,1.43,0,2.74-.59,3.68-1.53.94-.94,1.51-2.25,1.51-3.68v-20.08h10.14Z"/>
            <rect class="cls-30" x="673.6" y="231.99" width="29.63" height="8.81"/>
            <rect class="cls-34" x="660.3" y="296.19" width="38.26" height="30.49"/>
          </g>
          <g>
            <rect class="cls-31" x="664.56" y="301.21" width="28.01" height="4.08"/>
            <rect class="cls-31" x="664.56" y="309.4" width="28.01" height="4.08"/>
            <rect class="cls-31" x="664.56" y="317.59" width="28.01" height="4.08"/>
          </g>
          <path class="cls-45" d="M705.1,343.11h0c-2.83,0-5.13-2.3-5.13-5.13v-59.33c0-2.83,2.3-5.13,5.13-5.13h0c2.83,0,5.13,2.3,5.13,5.13v59.33c0,2.83-2.3,5.13-5.13,5.13Z"/>
        </g>
        <g>
          <path class="cls-40" d="M628.15,197.88c0,3.42-2.77,6.19-6.19,6.19s-6.19-2.77-6.19-6.19,2.77-6.19,6.19-6.19,6.19,2.77,6.19,6.19Z"/>
          <path class="cls-40" d="M216.69,59.16c0,2.85-2.31,5.15-5.15,5.15s-5.15-2.31-5.15-5.15,2.31-5.15,5.15-5.15,5.15,2.31,5.15,5.15Z"/>
          <path class="cls-40" d="M95.76,205.08c0,2.23-1.81,4.04-4.04,4.04s-4.04-1.81-4.04-4.04,1.81-4.04,4.04-4.04,4.04,1.81,4.04,4.04Z"/>
          <path class="cls-40" d="M405.71,66.79c0,2.13-1.72,3.85-3.85,3.85s-3.85-1.72-3.85-3.85,1.72-3.85,3.85-3.85,3.85,1.72,3.85,3.85Z"/>
          <path class="cls-40" d="M136.63,441.85c0,1.7-1.37,3.07-3.07,3.07s-3.07-1.37-3.07-3.07,1.37-3.07,3.07-3.07,3.07,1.37,3.07,3.07Z"/>
          <path class="cls-40" d="M428.39,527c0,1.94-1.58,3.52-3.52,3.52s-3.52-1.58-3.52-3.52,1.57-3.52,3.52-3.52,3.52,1.58,3.52,3.52Z"/>
          <path class="cls-40" d="M451.48,33.64c0,1.56-1.27,2.83-2.83,2.83s-2.83-1.27-2.83-2.83,1.27-2.83,2.83-2.83,2.83,1.27,2.83,2.83Z"/>
        </g>
      </g>
    </g>
  </g>
</svg>