<?xml version="1.0" encoding="UTF-8"?>
<svg id="Layer_16" data-name="Layer 16" xmlns="http://www.w3.org/2000/svg" viewBox="0 0 200 200">
  <defs>
    <style>
      .cls-1 {
        fill: #fee0d2;
      }

      .cls-2 {
        fill: #684d42;
      }

      .cls-3 {
        fill: #bbbcbb;
      }

      .cls-4 {
        fill: #747574;
      }

      .cls-5 {
        fill: #edb7aa;
      }

      .cls-6 {
        fill: #745749;
      }

      .cls-7 {
        fill: #6cc1f0;
      }

      .cls-8 {
        fill: #fbe85f;
      }

      .cls-9 {
        fill: #dedfde;
      }

      .cls-10 {
        fill: #47a6ec;
      }

      .cls-11 {
        fill: #9c9d9c;
      }
    </style>
  </defs>
  <path class="cls-8" d="M141.03,95.08c.65-1.3,5.57-1.24,6.34,0,.04-.31.14-.77.35-.79,1.65-.13,10.69-.31,11.75,0l.57.79h3.17l.69,1.58c.14,2.58.52,15.53-.13,16.68-.15.27-.35.52-.57.76h-6.34l-.82-.55c-.89-7.04-13.33-7.04-14.22,0l-.82.55h-6.34v19.02h47.54c.31.04.78.14.79.37.35,4.88.47,13.39,0,18.18l-.79.47c-18.88.78-37.77.78-56.65,0l.36-.98c9.42-5.17,3.86-16.37-6.35-14.05l-.74-.82c-.9-.62-1.14-1.9-.45-2.72-.82.69-2.1.45-2.72-.45-.31-.04-.78-.14-.79-.35-.1-1.46-.15-11.62.26-12.06.13-.13.32-.21.53-.26-.31,0-.78-.08-.79-.27-.1-1.84-.47-14.52,0-15.11l.79-.47.37-.88c3.45-.96,5.4-4.58,5.23-8.03l.74-.59c6.33-.78,12.68-.78,19.02,0Z"/>
  <path class="cls-7" d="M99.83,120.44c0-.31.07-.78.27-.79,3.35-.24,12.1-.51,15.11,0l.47.79v12.68c-1.59.35-3.2.69-4.83.71-14.48.15-29.02.27-43.47-.14l-2.41-.56c1.3.65,1.24,5.57,0,6.34l.28-.79h53.12l.49.79c1.17,4.13,1.13,8.54,0,12.68-19.01.78-38.04.78-57.05,0-4.15-1.67-7.57-3.25-10.07-7.16-6.47-10.13-.06-23.46,11.86-24.52,10.99-.98,24.92,0,36.24,0Z"/>
  <path class="cls-9" d="M131.52,53.88c6.15,3.67,13.69,6.75,19.54,10.77,11.01,7.57,8.95,18.63,8.99,30.43h-12.68l-.79-.37v-18.18l.79-.47c-.65,1.3-5.57,1.24-6.34,0,.31.03.78.14.79.37.24,4.79.16,10.41,0,15.23.29,1.72.03,2.86-.79,3.42h-19.02c-.82-.37-1.51-1.22-2.07-2.55-1.17-.95-1.93-1.95-2.29-3l-1.55-1.05c-6.18-9.22-9.64-19.71-10.6-30.38l.66-.66c2.1-1.19,4.08-2.65,6.34-3.57l.86.73c1.21,10.57,16.12,10.53,17.31-.01l.84-.72Z"/>
  <path class="cls-4" d="M17.43,152.13l.8.48c.18,2.81,2.62,4.92,5.37,5.09l170.83-.02.5.79c-.02,2.11.01,4.23,0,6.34-6.33,0-12.69-.02-19.02,0-4.23.99-8.45.98-12.68,0-6.33,0-12.68,0-19.02,0-6.33.78-12.68.78-19.02,0-2.1.78-4.24.78-6.34,0-6.33.78-12.68.78-19.02,0-21.12,0-42.27.02-63.39,0-4.23.98-8.45.99-12.68,0-6.33-.02-12.68.01-19.02,0v-12.68c4.22-.01,8.46.02,12.68,0Z"/>
  <path class="cls-3" d="M117.66,89.54l-.88.5c-2.21-.54-4.48-.7-6.79-.49l-.65-.8c-.63-.55-.95-1.35-.95-2.38h-4.82s-.56-.79-.56-.79c-.31-.08-.75-.21-.79-.46-.18-1.12-.19-7.4,0-8.47l.79-.58c-.65,1.3-5.57,1.24-6.34,0,.31.08.76.21.79.46.13,1.01.19,7.73,0,8.47l-.79.58c-.07,1.3-2.82,1.09-3.17,0l.79.45c.23,1.31.36,5.32-.79,5.89,0-.31.07-.78.27-.79,3.64-.3,11.63-.45,15.11,0l.47.79c.78,3.83,1.08,7.78.9,11.83l4.8.12.64.72v15.85h-15.85v-15.85h-10.89c-2.04,0-4.64-3.42-4.92-5.38-.77-5.45-.44-20.69,1.64-25.62,3.58-8.47,13.02-11.92,20.51-16.14l1.31,8.8c1.72,8.46,5.57,16.1,10.18,23.29Z"/>
  <path class="cls-11" d="M33.27,151.74c9.3,0,19.05.4,28.52.4,19.01,0,38.04,0,57.05,0-.09-1.16,5.91-.99,6.18-.79s.48.45.56.79h56.65c.04-.31.14-.78.35-.79,1.36-.1,11.23-.27,11.75,0,.31.16.47.47.57.79-.01,2.11.02,4.23,0,6.34l-171.36.02c-3.33-.19-6.23-2.92-6.13-6.35,1.14,0,2.69-.39,3.17-.4,3.95-1.25,8.73-1.23,12.68,0Z"/>
  <path class="cls-1" d="M125.18,25.75c-.85-.95,2.42-3.99,3.17-3.9,1.16.14,2.03,2.44,1.58,3.5l1.22.49c2.06,3.02,5.52,4.89,9.17,5.05l.7.8c-.24,8.12-1.69,15.47-9.51,19.81-.66,2-4.03,2.55-6.06,2.88-4.2.68-8.59.14-12.42-1.7l-.53-1.17c-7.82-4.42-9.29-11.61-9.51-19.81l1.08-.75c7.09.44,14.27-.13,19.8-5.08l1.31-.11Z"/>
  <path class="cls-2" d="M20.59,120.83c.31,0,.78.07.79.27.17,2.67.49,12.67,0,14.72l-.79.47c.08-.31.22-.77.46-.79.93-.09,8.3-.21,8.68,0,.31.16.47.47.57.79.13-.16.26-.3.42-.39.68-.37,10.91,10.05,11,10.83l-.52,1.05c-1.92,1.83-5.3,3.53-7.92,3.96-4.17,0-8.51-.02-12.68,0-16.72-3.24-16.91-27.72,0-30.9Z"/>
  <path class="cls-6" d="M108.94,7.13c1.05-.41,1.15-.69,2.56-.81,4.2-.36,13.77-.48,17.85,0,2.38.28,4.52,2.46,5.25,4.67.16.48,0,1.58.1,1.67s1.19-.06,1.67.1c5.96,1.96,4.58,7.64,4.66,12.59-.04.31-.13.76-.36.79-.96.12-9.06.17-9.58,0l-1.15-.79c-.93-.3-.92-3.12-1.78-2.77-.2.08-2.27,2.52-2.98,3.17-1.35.7-3.39.11-4.84-.39-5.72-1.94-9.58-5.55-11.14-11.51-.32-1.21-1.31-6.09-.02-6.31.05,0,.16.71-.23-.42Z"/>
  <path class="cls-1" d="M41.2,147.77c0-.78-.53-1.1-.98-1.59-1.13-1.23-9.21-9.9-9.91-9.9h-9.71v-15.45c3.61-.68,10.34-.79,13.87.19,11.6,3.21,15.41,18.44,6.73,26.75Z"/>
  <path class="cls-2" d="M36.44,164.81l-3.17,31.69h-9.51v-31.69c4.22.01,8.46,0,12.68,0Z"/>
  <path class="cls-2" d="M175.9,164.81v31.69h-9.51l-3.17-31.69c4.22,0,8.46.01,12.68,0Z"/>
  <path class="cls-2" d="M163.22,95.08c.18-2.21.84-4.07,2.79-5.33.31-.2,2-1.01,2.16-1.01h7.73v25.36h-12.68c.37-6.18-.5-12.91,0-19.02Z"/>
  <path class="cls-11" d="M118.85,180.66c.31.04.78.14.79.35.1,1.33.21,11.2,0,11.75-.11.3-.48.45-.79.57-8.45-.01-16.91,0-25.36,0-.53-5.21,1.55-10.32,6.34-12.68,6.28-1.17,12.74-1.13,19.02,0Z"/>
  <path class="cls-11" d="M144.2,180.66c4.8,2.36,6.87,7.47,6.34,12.68-8.45,0-16.91-.01-25.36,0-.31-.04-.77-.14-.79-.35-.13-1.65-.31-10.69,0-11.75l.79-.57c6.28-1.13,12.74-1.17,19.02,0Z"/>
  <path class="cls-6" d="M118.85,164.81c.31,0,.78.07.79.27.27,3.55.48,11.78,0,15.11l-.79.47c-6.33.03-12.68-.02-19.02,0v-15.85c6.33,0,12.68,0,19.02,0Z"/>
  <path class="cls-6" d="M144.2,164.81v15.85c-6.33-.02-12.68.03-19.02,0-.31,0-.78-.08-.79-.27-.1-1.84-.38-14.46,0-15.11l.79-.47c6.33,0,12.68,0,19.02,0Z"/>
  <path class="cls-2" d="M182.23,133.11c.29-.8,4.81-3.17,5.74-3.17h6.93c-.03,7.39.04,14.8,0,22.19h-12.68v-19.02Z"/>
  <path class="cls-2" d="M108.94,7.13c1.41-.14.45.33.43,1.02-.23,7.01,3.06,13.28,9.73,15.96,2.11.85,3.99.97,6.08,1.64-6.9,6.25-13.15,6.3-22.19,5.94-.12-4.47-.69-16.42.84-19.96,1.09-2.53,2.66-3.64,5.11-4.6Z"/>
  <path class="cls-5" d="M156.88,114.1c0,3.13-2.27,5.88-5.38,6.3-4.77.65-10.46-.43-10.46-6.3,0-8.79,15.85-8.79,15.85,0Z"/>
  <path class="cls-5" d="M131.52,51.5c-.02.79.03,1.59,0,2.38-.49,12.4-18.3,12.78-19.02,0-.04-.79.03-1.59,0-2.38,5.61,3.17,13.39,3.13,19.02,0Z"/>
  <path class="cls-4" d="M125.18,180.66v12.68c-2.11,0-4.23,0-6.34,0v-12.68c2.1-.79,4.24-.79,6.34,0Z"/>
  <path class="cls-2" d="M141.03,25.36c.03,2.1.06,4.24,0,6.34-4.49.1-8.94-2.38-11.09-6.34h11.09Z"/>
  <path class="cls-10" d="M115.68,133.11c1.05.02,2.12-.02,3.17,0,.02,1.05-.03,2.12,0,3.17,1.1,1.01,1.08,2.15,0,3.17h-53.88v-6.34c16.88.3,33.83-.4,50.71,0Z"/>
  <path class="cls-5" d="M117.66,89.54c1.84.83,4.08,3.51,4.36,5.55.55,4.03-2.07,8.84-6.34,9.51-1.88.29-4.37-.22-6.34,0-.02-4.22.03-8.46,0-12.68-1.08-1.01-1.06-2.15,0-3.17,2.82.08,5.67-.4,8.32.79Z"/>
  <path class="cls-5" d="M125.58,152.13h-6.73c-.02-4.22.03-8.46,0-12.68,0-1.05.03-2.12,0-3.17,1.74.12,3.63-.17,5.34,0,9.15.93,9.83,13.01,1.39,15.84Z"/>
  <rect class="cls-11" x="141.03" y="76.07" width="6.34" height="19.02"/>
  <path class="cls-2" d="M125.18,164.81v15.85c-2.11-.01-4.23-.01-6.34,0v-15.85c2.11,0,4.23,0,6.34,0Z"/>
  <path class="cls-11" d="M109.34,91.91h-15.85v-6.34c0-.16,3.17.16,3.17,0v-9.51h6.34v9.51h6.34c.02,1.05-.03,2.12,0,3.17s0,2.12,0,3.17Z"/>
</svg>