<?xml version="1.0" encoding="UTF-8"?>
<svg id="Layer_16" data-name="Layer 16" xmlns="http://www.w3.org/2000/svg" viewBox="0 0 200 200">
  <defs>
    <style>
      .cls-1 {
        fill: #fa505a;
      }

      .cls-2 {
        fill: #c4cfe6;
      }

      .cls-3 {
        fill: #fec2a0;
      }

      .cls-4 {
        fill: #88d2e4;
      }

      .cls-5 {
        fill: #d5e2fe;
      }

      .cls-6 {
        fill: #feaf90;
      }

      .cls-7 {
        fill: #89d2e4;
      }

      .cls-8 {
        fill: #c5d0e6;
      }
    </style>
  </defs>
  <path class="cls-4" d="M196.63,77.76v1.89c-1.89,1.88-6.67,5.58-9,2.77-1.32-1.59-4.13-6.74-5.34-8.81-3.05-2.83-5.49-7.27-6.42-11.32-.91-1.6-5.39-9.21-5.22-10.3.3-1.89,6.49-5.67,8.45-4.07l17.53,29.84Z"/>
  <path class="cls-3" d="M3.37,122.3c-.02-30.57.01-61.16,0-91.72h9.63c.72,0,2.61-2.17,3.86.67l2.76,18.94c7.19.76,15.6,2.27,19.5,9.1,14.06-3.12,28.19.17,36.66,12.32,4.91,7.04,6.49,14.5,7.24,22.96.84,9.46.89,19.37-1.89,28.5.23,1.01-.5,2.9-1.13,3.77.15,1.49.67,3.17.77,4.7.66,10.08-1.77,21.71-5.39,31.07-10.31.99-20.13,4.14-30.11,6.5-.24-.31-.48-.63-.66-.98s-.35-.67-.42-1.01c-3.01-15.61-6.08-33.22-1.63-48.55,6.88-6.26,10.78-13.49,11.4-22.99.13-2.04-.04-7.54-2.89-4.46.04,8.02-1.55,15.63-7.21,21.8-9.76,10.64-25.47,10.49-38.87,10.11l-1.62-.73Z"/>
  <path class="cls-5" d="M171.34,90.59c-14.73,8.75-29.62,17.25-44.54,25.67l-1.16-1.03c-5.06-8.62-9.96-17.21-14.69-25.77,1.88-1.12,3.77-2.29,5.66-3.4l.75.42,5.04,9.05c1.35.39,1.11-.71.52-1.62-1.65-2.87-3.25-5.74-4.8-8.61,2.14-1.25,4.28-2.53,6.42-3.77l.83-.07,5.22,9.41c.55.38.91-.05,1.04-.61l-5.2-9.01.38-.85c1.89-1.1,3.76-2.3,5.66-3.4l.92-.02,4.52,7.88c.61,1.54,2.31,2.12,1.36.1-1.73-3-3.37-6.04-4.91-9.1,2.14-1.24,4.28-2.54,6.42-3.77l.82-.03,4.25,8.02c.58,1.43,2.2,2.45,1.62.22l-4.82-8.5.39-.84c1.9-1.1,3.77-2.3,5.66-3.4l1.06.27,4.03,7.41c.59.97,2.02,2.86,1.96.82l-5.17-8.77.37-.86c1.12-.65,2.31-1.37,3.41-2.06.58-.36,1.17-.43,1.12-1.33.42.35.83.72,1.19,1.12s.72.8.98,1.25c4.3,7.32,8.56,14.73,12.73,22.12.26.45.42.96.58,1.48s.27,1.05.36,1.59Z"/>
  <path class="cls-3" d="M3.37,126.83l1.51-.73c10.49.2,21.31.25,31.15-3.88,1.58-.46,2.48-.69,2.22,1.05-2.09,15.56,0,31.78,3.62,46.59-12.65,2.93-25.42,4.81-38.5,4.15,0-15.72.01-31.46,0-47.19Z"/>
  <path class="cls-6" d="M45.27,169.11c-1.13.27-2.27.49-3.4.75-.93.19-.82-.42-1.02-1.04-.81-2.53-1.34-6.08-1.82-8.76-2.23-12.41-3.38-25.24-1.31-37.75-10.87,5.05-22.6,4.71-34.35,4.53,0-1.51,0-3.02,0-4.53,6.46-.15,12.97.39,19.38-.44,15.11-1.96,25.83-10,27.42-25.8.22-2.14-1.01-6.44,2.11-6.61,3.64-.2,2.28,8.13,1.94,10.28-.86,5.41-3.36,10.85-6.87,15.02-.98,1.17-3.56,3.08-4.13,4.17-2.54,4.86-2.18,20.09-1.72,25.83.65,8.21,2.52,16.23,3.77,24.35Z"/>
  <path class="cls-1" d="M126.8,116.26c-4.02,2.27-9.49,7.95-13.21,2.64l-.8-.28c-3.59-5.79-7.05-11.72-10.36-17.8l-.17-1.55c-2.74-5.18,5.12-7.69,8.68-9.81.91-.05.97.55,1.33,1.12,5.21,8.29,9.66,17.18,14.52,25.68Z"/>
  <path class="cls-7" d="M104.15,120.79c-4.21,2.02-7.17,5.39-12.29,3.8-.82-.25-3.06-1.66-3.56-2.29-1.45.47-2.01-2.03-1.51-3.02-2.02-6.88,4.23-9.66,9.06-12.46l1.06.4c2.26,4.25,4.83,8.35,7.41,12.42l-.16,1.15Z"/>
  <path class="cls-2" d="M113.59,118.9c-2.13.31-6.67,4.79-8.52,3.43-.47-.35-.62-1.08-.92-1.54-2.54-3.95-6.27-9.93-8.3-13.97-.15-.3-.75-1.88-.75-2.09.01-1.26,4.92-3.63,6.17-4.4.49-.3,1.21-.13.99-1.06,4.31,5.87,7.23,13.79,11.32,19.63Z"/>
  <path class="cls-2" d="M182.29,73.61l-12.83,7.93c-3.15-3.3-5.51-7.32-6.79-11.7l13.21-7.55c2.12,3.73,4.27,7.66,6.42,11.32Z"/>
  <path class="cls-7" d="M162.66,69.83c2.27,3.89,4.56,7.79,6.79,11.7,2.26,3.97,4.56,7.93,6.8,11.92.23,1.26-.78,2.55-2.01,1.69-.22-.15-2.51-3.9-2.9-4.55-5.29-8.88-10.85-18.51-15.85-27.55-.38-.68-2.27-4.31-2.21-4.67.15-.82,1.44-1.29,2.21-.81.6.37,6.23,10.66,7.17,12.27Z"/>
  <path class="cls-7" d="M150.96,66.44l5.51,9.44c.23,2.17-1.32,2.48-2.65.73-1.88-2.48-3.35-6.37-5.12-9.03.71-.42,1.62-.76,2.26-1.13Z"/>
  <path class="cls-7" d="M126.8,80.4l5.58,9.69c-.04,1.31-1.26,2.28-2.38,1.26l-5.47-9.82c.72-.42,1.62-.76,2.26-1.13Z"/>
  <path class="cls-7" d="M134.35,75.87c.8-.18.83.43,1.13.93.78,1.26,5,8.33,4.93,9.07-.07.7-.89,1.31-1.56,1.16-1.39-.31-5.07-8.51-6.38-10.02.63-.37,1.25-.76,1.89-1.13Z"/>
  <path class="cls-7" d="M140.77,72.1c.72-.42,1.54-.71,2.26-1.13l5.12,9.04c.6,1.46-.08,2.92-1.72,2.1-.93-.47-4.95-8.45-5.66-10.01Z"/>
  <path class="cls-7" d="M118.12,85.31c.93-.06.96.58,1.33,1.13.81,1.2,4.65,7.6,4.71,8.53.09,1.29-1.3,1.73-2.19,1.21-.41-.24-4.22-7.21-4.76-8.25-.32-.62-.7-1.08-.59-1.86.48-.28,1.03-.47,1.51-.75Z"/>
  <path class="cls-8" d="M88.3,122.3l-8.3,4.53c-.15-1.47-.22-2.62,1.13-3.77.83-.71,3.51-1.86,4.74-2.64.49-.31,1.1-.32.93-1.13.12.4,1.26,2.71,1.51,3.02Z"/>
  <path class="cls-6" d="M28.94,159.35c2.03-.42,3.21,1.93,1.92,3.85-2.57,3.8-11.11,7.44-15.61,7.79-2.2.17-6.77.25-5.68-3.04.75-2.26,4.49-1.31,6.4-1.53,2.19-.25,5.28-1.49,7.14-2.67,1.61-1.02,4.3-4.1,5.82-4.41Z"/>
  <path class="cls-6" d="M29.29,144.66c1.82-.15,2.46,2.18,1.81,3.68-.79,1.83-7.13,5.55-9.14,6.33-2.34.91-11.08,3.12-12.37.47-1.92-3.95,5.08-3.25,6.76-3.44,1.99-.23,4.68-1.24,6.39-2.29,1.58-.98,5.05-4.63,6.55-4.75Z"/>
  <path class="cls-6" d="M28.57,130.32c1.54-.41,2.71.15,2.96,1.78.33,2.15-5.55,6.07-7.39,7.01-2.65,1.34-12.97,4.74-14.53,1.31-1.74-3.83,5.48-2.99,7.82-3.49.99-.21,2.77-.79,3.69-1.22,2.18-1.01,6.14-5.04,7.46-5.38Z"/>
</svg>