<?xml version="1.0" encoding="UTF-8"?>
<svg id="Layer_11" data-name="Layer 11" xmlns="http://www.w3.org/2000/svg" xmlns:xlink="http://www.w3.org/1999/xlink" viewBox="0 0 500 500">
  <defs>
    <style>
      .cls-1 {
        fill: #638748;
      }

      .cls-1, .cls-2, .cls-3, .cls-4, .cls-5, .cls-6, .cls-7, .cls-8, .cls-9, .cls-10, .cls-11, .cls-12, .cls-13, .cls-14, .cls-15, .cls-16, .cls-17, .cls-18, .cls-19, .cls-20, .cls-21, .cls-22, .cls-23, .cls-24, .cls-25, .cls-26, .cls-27, .cls-28, .cls-29, .cls-30, .cls-31, .cls-32, .cls-33, .cls-34, .cls-35, .cls-36 {
        fill-rule: evenodd;
      }

      .cls-2, .cls-37 {
        fill: #1e483a;
      }

      .cls-3 {
        fill: #a44c30;
      }

      .cls-4 {
        fill: #4a1400;
      }

      .cls-5 {
        fill: #c26f39;
      }

      .cls-6 {
        fill: #d98a82;
      }

      .cls-38, .cls-27 {
        fill: #381f4c;
      }

      .cls-7 {
        fill: #935b47;
      }

      .cls-8 {
        fill: #2d2d2d;
      }

      .cls-39, .cls-12 {
        fill: #fff;
      }

      .cls-40, .cls-30 {
        fill: #bab2ce;
      }

      .cls-9 {
        fill: #d98c80;
      }

      .cls-10 {
        fill: #cf615a;
      }

      .cls-11 {
        fill: #80d6dd;
      }

      .cls-13 {
        fill: url(#linear-gradient-3);
      }

      .cls-41 {
        fill: #b27857;
      }

      .cls-42 {
        fill: #b2b2b2;
      }

      .cls-14 {
        fill: #8d7ab2;
      }

      .cls-15 {
        fill: #1b8487;
      }

      .cls-43, .cls-16 {
        fill: #a7a5aa;
      }

      .cls-44 {
        fill: #195072;
      }

      .cls-17 {
        fill: #ebebeb;
      }

      .cls-18 {
        fill: url(#linear-gradient-2);
      }

      .cls-45 {
        fill: #cb5719;
      }

      .cls-46 {
        fill: #939393;
      }

      .cls-19 {
        fill: #394056;
      }

      .cls-20, .cls-47 {
        fill: #afb0b0;
      }

      .cls-48 {
        fill: #0f0f0f;
      }

      .cls-21 {
        fill: #2db252;
      }

      .cls-22 {
        fill: url(#linear-gradient-4);
      }

      .cls-23 {
        fill: #def7ff;
      }

      .cls-24 {
        fill: #c6bfd6;
      }

      .cls-25 {
        fill: #e84f4f;
      }

      .cls-49 {
        fill: #eee7f2;
      }

      .cls-26 {
        fill: #c1c0c8;
      }

      .cls-50 {
        fill: #814d49;
      }

      .cls-28 {
        fill: #d8d8d8;
      }

      .cls-29 {
        fill: #2870b3;
      }

      .cls-31 {
        fill: #858584;
      }

      .cls-32 {
        fill: #ffd5b0;
      }

      .cls-33 {
        fill: url(#linear-gradient);
      }

      .cls-34 {
        fill: #575756;
      }

      .cls-35 {
        fill: #e6b59c;
      }

      .cls-36 {
        fill: #c4c4c4;
      }
    </style>
    <linearGradient id="linear-gradient" x1="319.45" y1="261.36" x2="329.53" y2="261.36" gradientUnits="userSpaceOnUse">
      <stop offset="0" stop-color="#80d6dd"/>
      <stop offset=".1" stop-color="#83d7dd"/>
      <stop offset=".2" stop-color="#8edae0"/>
      <stop offset=".29" stop-color="#a1e0e5"/>
      <stop offset=".37" stop-color="#bbe9ec"/>
      <stop offset=".46" stop-color="#dcf3f5"/>
      <stop offset=".53" stop-color="#fff"/>
      <stop offset=".54" stop-color="#f6fcfc"/>
      <stop offset=".61" stop-color="#d2f0f3"/>
      <stop offset=".67" stop-color="#b4e6eb"/>
      <stop offset=".74" stop-color="#9ddfe4"/>
      <stop offset=".81" stop-color="#8cdae0"/>
      <stop offset=".89" stop-color="#83d6dd"/>
      <stop offset="1" stop-color="#80d6dd"/>
    </linearGradient>
    <linearGradient id="linear-gradient-2" x1="322.94" y1="266.35" x2="326.03" y2="266.35" gradientUnits="userSpaceOnUse">
      <stop offset="0" stop-color="#cb5719"/>
      <stop offset=".08" stop-color="#cb591c"/>
      <stop offset=".15" stop-color="#ce6127"/>
      <stop offset=".22" stop-color="#d26f3a"/>
      <stop offset=".28" stop-color="#d88254"/>
      <stop offset=".35" stop-color="#df9a75"/>
      <stop offset=".41" stop-color="#e9b89e"/>
      <stop offset=".48" stop-color="#f4dbce"/>
      <stop offset=".53" stop-color="#fff"/>
      <stop offset=".55" stop-color="#faf2ed"/>
      <stop offset=".59" stop-color="#efcebb"/>
      <stop offset=".64" stop-color="#e5ae90"/>
      <stop offset=".69" stop-color="#dd936b"/>
      <stop offset=".74" stop-color="#d67d4d"/>
      <stop offset=".79" stop-color="#d16c36"/>
      <stop offset=".85" stop-color="#cd6025"/>
      <stop offset=".92" stop-color="#cb591c"/>
      <stop offset="1" stop-color="#cb5719"/>
    </linearGradient>
    <linearGradient id="linear-gradient-3" x1="367.42" y1="297.4" x2="390.49" y2="297.4" xlink:href="#linear-gradient"/>
    <linearGradient id="linear-gradient-4" x1="369.75" y1="307.54" x2="388.21" y2="307.54" xlink:href="#linear-gradient-2"/>
  </defs>
  <path class="cls-23" d="M460.34,226.13c-10.5,13.42-9.62,33.69-9.03,46.48.69,15.11,2.5,12.46,18.32,21.1,27.88,15.23,32.75,63.8,4.21,87.03-6.16,5.01-2.77,43.86-5.59,66.87-2.79,22.76-.85,29.65-29.67,29.82-114.13-.34-229.79-.35-343.82.21-82.79.41-38.47-59.89-49.41-135.59-.74-5.14,3.08-10.53-24.37-27.78-26.62-16.72-23.23-69.15,16.24-79.97,20.83-5.71,52.24-22.46,23.77-40.07-42.26-26.14-35.58-126.55-9.98-142.8C114.67,11.02,153.38,7.73,233.86,8.5c57.8.56,161.47.99,187.36,16.67,55.05,33.33,57.07,72.64,42.81,86.89-7.55,7.55,16.64-.38,20.82,21.69,6.06,54.54-4.18,66.41-24.51,92.39Z"/>
  <g>
    <g>
      <path class="cls-16" d="M389.31,283.82h45.83c3.5,0,6.69,1.43,8.99,3.74,2.3,2.31,3.74,5.49,3.74,8.99v177.55c0,1.61-1.3,2.91-2.91,2.91h-65.46c-1.61,0-2.91-1.3-2.91-2.91v-177.55c0-3.5,1.43-6.68,3.74-8.99,2.3-2.3,5.49-3.74,8.99-3.74h0ZM442.04,352.65h-59.63v55.54h59.63v-55.54h0ZM382.4,346.82h59.63v-50.28c0-1.89-.78-3.62-2.03-4.87-1.25-1.25-2.98-2.03-4.87-2.03h-45.83c-1.9,0-3.62.78-4.87,2.03-1.25,1.25-2.03,2.98-2.03,4.87v50.28Z"/>
      <path class="cls-16" d="M376.58,296.53c1.55,0,4.86-8.45,6.37-8.49,33.77-.75,60.56-5.89,64.92,8.49v-63.5c0-3.5-1.43-6.69-3.74-8.99-2.3-2.31-5.49-3.74-8.99-3.74h-45.83c-3.5,0-6.69,1.43-8.99,3.74-2.31,2.3-3.74,5.49-3.74,8.99v63.5h0ZM442.04,233.03v50.28h-59.63v-50.28c0-1.9.78-3.62,2.03-4.87,1.25-1.25,2.98-2.03,4.87-2.03h45.83c1.9,0,3.62.78,4.87,2.03,1.25,1.25,2.03,2.98,2.03,4.87Z"/>
    </g>
    <g>
      <g>
        <path class="cls-16" d="M425.5,322.33v20.93c0,1.56-1.28,2.84-2.84,2.84s-2.84-1.28-2.84-2.84v-20.93c-.61,0-1.17-.22-1.17-.94,0-.52.42-.94.94-.94h6.14c.52,0,.94.42.94.94,0,.71-.55.94-1.17.94Z"/>
        <path class="cls-16" d="M434.83,322.33v20.93c0,1.56-1.28,2.84-2.84,2.84s-2.84-1.28-2.84-2.84v-20.93c-.61,0-1.17-.22-1.17-.94,0-.52.42-.94.94-.94h6.14c.52,0,.94.42.94.94,0,.71-.55.94-1.17.94Z"/>
      </g>
      <path class="cls-16" d="M415.47,329.28c-.32,0-.57-.26-.57-.57s.26-.57.57-.57h23.73c.32,0,.57.26.57.57s-.25.57-.57.57h-1.07v15.88c0,.16-.07.31-.18.41h1.25c.47,0,.86.38.86.86s-.38.86-.86.86h-23.73c-.47,0-.86-.38-.86-.86s.38-.86.86-.86h1.25c-.11-.1-.18-.25-.18-.41v-15.88h-1.07ZM436.98,329.28h-19.3v15.31h19.3v-15.31Z"/>
    </g>
    <g>
      <g>
        <path class="cls-16" d="M425.5,259.11v20.94c0,1.56-1.28,2.84-2.84,2.84s-2.84-1.28-2.84-2.84v-20.94c-.61,0-1.17-.22-1.17-.94,0-.52.42-.94.94-.94h6.14c.52,0,.94.42.94.94,0,.71-.55.94-1.17.94Z"/>
        <path class="cls-16" d="M434.83,259.11v20.94c0,1.56-1.28,2.84-2.84,2.84s-2.84-1.28-2.84-2.84v-20.94c-.61,0-1.17-.22-1.17-.94,0-.52.42-.94.94-.94h6.14c.52,0,.94.42.94.94,0,.71-.55.94-1.17.94Z"/>
      </g>
      <path class="cls-16" d="M415.47,266.07c-.32,0-.57-.26-.57-.57s.26-.57.57-.57h23.73c.32,0,.57.26.57.57s-.25.57-.57.57h-1.07v15.88c0,.16-.07.31-.18.41h1.25c.47,0,.86.38.86.86s-.38.86-.86.86h-23.73c-.47,0-.86-.38-.86-.86s.38-.86.86-.86h1.25c-.11-.1-.18-.25-.18-.41v-15.88h-1.07ZM436.98,266.07h-19.3v15.31h19.3v-15.31Z"/>
    </g>
  </g>
  <g>
    <g>
      <g>
        <path class="cls-16" d="M65.02,357.69l-23.09,119.73h-7.88l23.62-122.47c.4-2.09,2.39-3.18,4.41-2.43h0c2.02.75,3.35,3.08,2.95,5.17Z"/>
        <path class="cls-16" d="M66.48,354.95l23.62,122.47h-7.88l-23.09-119.73c-4.07-21.11-.29-5.17,2.94-5.17h0c2.02-.75,4.01.34,4.41,2.43Z"/>
      </g>
      <g>
        <path class="cls-16" d="M262.38,357.69l-23.09,119.73h-7.88l23.62-122.47c.4-2.09,2.39-3.18,4.41-2.43h0c2.02.75,3.35,3.08,2.95,5.17Z"/>
        <path class="cls-16" d="M263.85,354.95l23.62,122.47h-7.89l-24.9-126.52c-.41-2.09,2.6,1.62,4.76,1.62h0c2.02-.75,4.01.34,4.41,2.43Z"/>
      </g>
    </g>
    <path class="cls-16" d="M15.49,346.07h295.62c2.09,0,3.8,1.71,3.8,3.8h0c0,2.09-1.71,3.8-3.8,3.8H15.49c-2.09,0-3.8-1.71-3.8-3.8h0c0-2.09,1.71-3.8,3.8-3.8Z"/>
  </g>
  <g>
    <rect class="cls-45" x="118.49" y="5.62" width="277.82" height="207.12" rx="17.62" ry="17.62"/>
    <path class="cls-39" d="M136.11,13.03h242.58c5.63,0,10.21,4.57,10.21,10.21v171.88c0,5.63-4.57,10.21-10.21,10.21h-242.58c-5.63,0-10.21-4.57-10.21-10.21V23.23c0-5.63,4.57-10.21,10.21-10.21Z"/>
    <rect class="cls-40" x="129.94" y="17.07" width="254.91" height="184.21" rx="6.17" ry="6.17"/>
    <path class="cls-48" d="M264.73,28.23h104.63c2.23,0,4.04,1.81,4.04,4.04v153.8c0,2.23-1.81,4.04-4.04,4.04h-104.63c-2.23,0-4.04-1.81-4.04-4.04V32.27c0-2.23,1.81-4.04,4.04-4.04Z"/>
    <path class="cls-48" d="M145.43,28.23h104.63c2.23,0,4.04,1.81,4.04,4.04v153.8c0,2.23-1.81,4.04-4.04,4.04h-104.63c-2.23,0-4.04-1.81-4.04-4.04V32.27c0-2.23,1.81-4.04,4.04-4.04Z"/>
    <g>
      <path class="cls-26" d="M320.04,188.7c.02.28-.2.52-.47.53-.28.02-.52-.2-.53-.47-.24-3.95-.24-16.19-.24-27.86s0-22.76-.23-24.38c-.29-2.04-3-5.28-5.42-8.18-1.31-1.57-2.54-3.04-3.3-4.22-2.23-3.47-1.98-6.48-1.98-6.49.02-.28.27-.49.54-.46.28.02.49.27.46.54,0,0-.22,2.69,1.82,5.87.72,1.12,1.93,2.57,3.22,4.11,2.51,3,5.31,6.36,5.65,8.68.24,1.7.24,12.83.24,24.52s0,23.91.24,27.8Z"/>
      <path class="cls-26" d="M323.55,30.74c-.02-.28.19-.52.46-.54.28-.02.52.19.54.46l4.04,50.85s0,.06,0,.09c-.01.37,0,4,4.36,8.14.2.19.21.51.02.71-.19.2-.51.21-.71.02-4.64-4.41-4.68-8.45-4.67-8.9l-4.04-50.84Z"/>
      <g>
        <path class="cls-24" d="M341.19,190.12c.37-8.28.62-18.61.67-26.89.03-4.81,0-9.63-.19-14.43-.15-3.67-.36-7.56-.98-11.17-.87-5.09-.75-9.97.1-15.06.75-4.51,2-8.93,3.13-13.36,1.25-4.94,2.3-9.81,2.8-14.89,2.14-21.35,4.23-44.74,6.33-66.08h-66.77c2.11,11.11,4.09,24.3,5.86,35.47,1.03,6.52,1.99,13.07,2.77,19.63.61,5.15,1.19,10.52,1.24,15.7.08,7.63-.37,15.22-.99,22.82-.87,10.79-2.03,21.53-2.33,32.36-.32,11.45.33,24.66,2.37,35.91h45.98Z"/>
        <path class="cls-32" d="M339.25,190.12c.34-8.28.53-18.62.59-26.91.03-4.78,0-9.56-.19-14.34-.15-3.63-.34-7.33-.95-10.91-.91-5.3-.79-10.44.1-15.73.76-4.57,2.02-9.03,3.16-13.52,1.22-4.81,2.26-9.65,2.75-14.59,2.13-21.28,4.03-44.6,6.11-65.88h-62.11c2.03,11,3.68,24.11,5.42,35.15,1.04,6.55,2,13.12,2.79,19.71.63,5.28,1.2,10.6,1.26,15.92.08,7.68-.37,15.35-.99,23-.87,10.74-2.02,21.47-2.33,32.25-.16,5.85-.07,11.73.28,17.58.33,5.42.87,12.9,1.77,18.27h42.34Z"/>
        <path class="cls-12" d="M311.66,120.97s-8.04-4.86-12.06,1.3c-4.02,6.15-2.09,5.4,1.93,11.01,4.02,5.61-.16,33.58,1.13,49.12.26,3.11.47,5.64.66,7.72h9.57c-.49-11.75-1.17-33.13-.26-44.64,1.29-16.41,10.29-20.08-.96-24.51Z"/>
        <g>
          <path class="cls-14" d="M314.45,190.12v-.06c.11-3.37.05-6.77-.04-10.13-.11-4.12-.3-8.25-.51-12.37-.41-7.77-.92-15.56-1.55-23.32-.33-4.07-1.04-8.41-2.81-12.13-1.15-2.42-2.57-4.15-4.21-6.21-1.38-1.74-2.83-3.5-3.47-5.67-1.13-3.84.85-7.29,3.32-10.1,1.54-1.75,3.44-3.2,5.89-3.07,1.87.1,3.45,1.08,5.19,1.62,2.15.66,4.06.44,6.17-.31,2.84-1.01,5.66-1.88,8.7-1.37.29.05.59.11.88.17,3.08.65,5.28,1.42,7.36,3.98.61.75,1.07,1.58,1.36,2.5,1.14,3.55-.53,7.82-1.79,11.14-1.8,4.78-3.5,9.22-4.33,14.31-.6,3.67-.86,7.58-1.11,11.29-.34,5.13-.56,10.28-.75,15.42-.3,8.09-.49,16.2-.62,24.3h-17.67Z"/>
          <path class="cls-14" d="M319.72,109.69c-1.58,1.4-3.98,1.98-6.05,1.99-3.2.01-6.23-1.21-8.8-3.04-6.56-4.66-3.57-13.47.36-18.77,1.96-2.64,2.43-10.25,2.58-13.47.34-7.64,0-15.49-.47-23.12-.51-8.29-1.25-16.57-2.05-24.84l-.02-.19h25.29v.03c-.08,6.16,0,12.32.3,18.48.63,13.08,2.21,26.01,4.17,38.95.05.36.17.69.33,1.01.41.8,1.13,1.52,1.77,2.13.94.9,1.91,1.73,2.78,2.7,2.61,2.9,3.41,6.02,2.65,9.86-.6,3.05-1.67,6.31-4.44,8.06-2.56,1.61-5.99,1.51-8.91,1.39-1.38-.06-2.62-.38-3.84-1.02-.56-.29-1.22-.78-1.78-1-1.75-.7-2.45-.39-3.89.87Z"/>
        </g>
        <path class="cls-12" d="M330.1,190.12c.21-12.76.85-41.24,2.5-51.33,2.16-13.17,9.39-21.16,5.18-26.34-1.41-1.74-4.88-3.43-16.83-.61-1.74.41-7.36-1.62-10.92-1.32-1.6.13-2.87.42-3.34.96-5.51,6.26-2.7,9.5.22,13.17,2.91,3.67,6.48,7.45,7.45,19.43.88,10.89,2.48,34.53,2.12,46.04h13.63Z"/>
        <path class="cls-12" d="M318.39,108.18c-1.74,1.54-6.73,2.81-12.34-1.19-5.61-3.99-2.19-11.87.81-15.92,5.52-7.45,2.38-42.81.44-62.83h21.24c-.25,19.33,1.15,35.68,4.5,57.76.8,5.27,9.28,6.26,7.56,15.01-1.49,7.56-4.65,8.1-11.28,7.83-2.62-.11-3.7-1.38-4.95-1.88-2.14-.85-3.66-.82-5.97,1.24Z"/>
        <path class="cls-25" d="M310.92,91.91c.85-1.76,2.16-3.2,3.83-4.22,2.72-1.66,6.1-2.04,9.19-1.4,2.76.57,5.4,1.96,7.24,4.12,3.42,4.02,2.96,9.14.64,13.58-2.16,4.14-6.84,8.38-11.8,6.19-4.46-1.97-9.12-5.16-10.27-10.21-.63-2.78-.05-5.54,1.17-8.06Z"/>
        <path class="cls-12" d="M312.74,92.79c-3.13,6.48-.22,11.88,8.1,15.55,3.38,1.49,7.13-1.33,9.19-5.28,7.36-14.09-12.61-19.93-17.29-10.27Z"/>
        <path class="cls-28" d="M306.35,134.67c1.85,5,2.26,40.18,2.35,55.45h4.19c-.47-11.35-1.12-31.69-.35-43.44-.06-.82-.13-1.63-.19-2.45-.33-4.07-1.04-8.41-2.81-12.13-1.15-2.42-2.57-4.15-4.21-6.21-1.38-1.74-2.83-3.5-3.47-5.67-.01-.05-.03-.1-.04-.15-.81.49-1.56,1.19-2.21,2.19-.29.45-.55.86-.78,1.24,1.43,3.64,5.85,6.63,7.53,11.17Z"/>
        <path class="cls-28" d="M331.82,103.99c-.51.98-1.17,1.97-1.94,2.88-.55.65-1.16,1.26-1.82,1.79.38.08.79.14,1.25.16,2.7.11,4.82.09,6.49-.49,2.44-.84,3.91-2.85,4.8-7.34.4-2.01.25-3.62-.21-4.96-1.3,5.47-3.69,6.75-8.05,6.88-.16.36-.33.71-.52,1.07Z"/>
        <path class="cls-28" d="M317.35,108.85c-2.41-1.36-4.66-3.13-6.13-5.41-1.6-.36-3.36-1.1-5.18-2.4-1.28-.91-2.09-2.02-2.54-3.25-.92,3.37-.66,6.91,2.54,9.19.53.38,1.06.71,1.58,1,4.01,2.23,7.55,1.89,9.59.94.05-.02.1-.05.14-.07Z"/>
        <path class="cls-28" d="M320.69,102.87c-4.25-1.56-7.32-3.43-9.17-5.56-.16,4.06,2.46,7.54,7.65,10.23.53.27,1.08.54,1.67.8.2.09.39.16.59.22.09.03.17.05.26.07.54.13,1.09.15,1.63.09.87-.1,1.73-.43,2.55-.93.32-.2.64-.42.95-.67,1.26-1.02,2.37-2.44,3.21-4.04,1-1.91,1.5-3.68,1.59-5.27-2.51,3.85-6.94,6.55-10.93,5.08Z"/>
        <path class="cls-28" d="M314.36,144.07c.88,10.89,2.48,34.53,2.12,46.04h2.7v-1.03c-.07-.08-.13-.2-.14-.33-.24-3.95-.24-16.19-.24-27.86s0-22.76-.23-24.38c-.18-1.27-1.3-3.01-2.71-4.84-.85-1.1-1.8-2.24-2.71-3.33-1.31-1.57-2.54-3.04-3.3-4.22-1.14-1.78-1.64-3.44-1.84-4.63-.2-1.14-.14-1.85-.14-1.86.02-.28.27-.49.54-.46.28.02.49.27.46.54,0,0-.07.83.22,2.1.05.23.12.48.19.74,0-.03-.01-.06-.02-.09-.04-.21-.08-.42-.1-.63-.52-3.74.95-6.85,2.8-8.27.58-.45,1.19-.73,1.79-.81-1.32-.21-2.61-.34-3.71-.25-.52.04-1,.1-1.43.18-.91.16-1.59.41-1.92.78-2.89,3.28-3.49,5.74-2.99,7.86.46,1.92,1.82,3.57,3.2,5.31,2.43,3.06,5.31,6.19,6.76,14.09.29,1.58.52,3.35.69,5.34Z"/>
        <path class="cls-28" d="M340.38,96.04c-1.56-4.47-6.73-5.99-7.34-10.05-3.35-22.07-4.75-38.43-4.5-57.76h-4.83c.03.58.07,1.26.12,2.02.06-.03.12-.05.19-.05.28-.02.52.19.54.46l4.04,50.85s0,.06,0,.09c0,.24,0,1.9,1.24,4.18.4.59.84,1.25,1.3,1.97.5.64,1.1,1.31,1.81,1.99.2.19.21.51.02.71-.03.03-.06.06-.09.08,2.19,3.64,4.38,7.83,4.86,10.76,1.18-1.04,2.03-2.68,2.64-5.25Z"/>
      </g>
    </g>
    <g>
      <path class="cls-29" d="M154.55,28.23h69.14c-.03,17.75.08,48.01,1.13,55.52,1.51,10.8,3.46,23.75-1.51,36.49-3.87,9.93-8.66,51.84-10.58,69.87h-52.98c1.34-20.63,9.79-40.59,11.31-47.3,6.51-28.64-9.73-87.1-16.51-114.58Z"/>
      <path class="cls-32" d="M154.55,28.23h69.14c-.03,17.75.08,48.01,1.13,55.52,1.51,10.8,3.46,23.75-1.51,36.49-3.87,9.93-8.66,51.84-10.58,69.87h-52.98c1.34-20.63,9.79-40.59,11.31-47.3,6.51-28.64-9.73-87.1-16.51-114.58Z"/>
      <path class="cls-30" d="M224.71,28.23v.09c-.02,8.86,0,20.81.16,31.49.15,10.68.44,20.08.96,23.8l.08.6c1.51,10.79,3.32,23.65-1.66,36.4-1.9,4.88-4.05,17.76-5.96,31.67-1.91,13.89-3.58,28.81-4.55,37.84h-2.09c1.17-12.51,2.9-25.6,4.62-38.11,1.93-14.04,4.11-27.08,6.08-32.13,4.78-12.26,3.02-24.84,1.54-35.39l-.08-.6c-.53-3.79-.82-13.28-.98-24.05-.14-9.38-.17-19.74-.16-28.13h.02v-3.48h2.02ZM172.05,143.04c-.41,1.81-1.28,4.47-2.38,7.81-4.25,12.98-7.92,25.56-8.9,39.27h-2.05c0-11.4,5.37-28.8,9.01-39.9,1.08-3.31,1.95-5.94,2.33-7.63,5.83-25.63-6.82-75.69-14.3-105.33-.42-1.66-2.23-7.79-2.23-9.03h2.03c6.8,30.28,23.44,84.2,16.49,114.8Z"/>
      <path class="cls-12" d="M196.68,114.67c-.11.08-4.78.99-8.67.55-3.89-.43-5.29,2.32-3.78,6.1,1.51,3.78,5.7,14.86,6.48,25.16.78,10.3-.14,34.02-.5,43.64h11.41c1.53-13.21,4.7-40.84,6.79-50.55,2.09-9.71,3.67-24.41-1.26-25.58-4.93-1.17-7.29-.22-10.47.67Z"/>
      <path class="cls-12" d="M202.18,28.23c.46,10.96,1.09,56.83,6.34,65.67,2.05,3.46,3.78,10.8-3.24,15.55-7.02,4.75-23.54,8.1-25.7-3.02-2.91-14.96,8.87-3.99,7.88-19.76-.14-2.26-4.8-35.61-8.01-58.44h22.73Z"/>
      <path class="cls-25" d="M202.79,95.17c.68-1.04,1.88-2.15,2.97-2.71,1.63-.83,3.39-.75,4.88.36,1.09.8,2.16,1.61,3.07,2.62,1.89,2.09,2.56,4.49,2.33,7.28-.32,3.71-1.62,11.06-6.32,11.35-1.93.12-3.76-.36-5.28-1.59-2.52-2.04-3.45-5.54-3.58-8.65-.11-2.73.39-6.32,1.92-8.65Z"/>
      <path class="cls-12" d="M204.48,96.28s2.48-3.67,4.97-1.84c2.48,1.84,4.97,3.67,4.59,8.1-.38,4.43-1.78,9.34-4.43,9.5-7.82.48-7.77-11.74-5.13-15.76Z"/>
      <path class="cls-26" d="M196.18,31.19c0-.28.21-.51.49-.52.28,0,.51.21.52.49.95,31.56,5.45,57.6,5.46,57.68.05.28-.14.53-.41.58-.27.05-.53-.14-.58-.41-.01-.08-4.52-26.17-5.47-57.81Z"/>
      <path class="cls-26" d="M198.85,187.78c0,.28-.23.5-.5.5s-.5-.22-.5-.5c0-2.87,1.53-14.49,3.16-26.78,1.76-13.3,3.62-27.38,3.74-31.93.24-8.72.24-9.73.24-9.73,0-.28.23-.5.51-.5s.5.23.5.5c0,0,0,.89-.24,9.76-.12,4.6-1.99,18.71-3.74,32.04-1.62,12.24-3.15,23.82-3.15,26.65Z"/>
      <path class="cls-28" d="M194.31,107.28c-4.97.88-11.4.57-14.95-2.17.06.41.14.85.23,1.31,1.94,10.02,15.53,8.3,23.34,4.39-1.17-1.69-1.76-3.81-1.97-5.86-1.77.96-4,1.85-6.65,2.32Z"/>
      <path class="cls-28" d="M208.3,106.63c-1.98-.14-4.03-1.15-5.01-3.12-.13.09-.26.18-.39.27.1,2.24.65,4.47,1.81,6.04,1.07,1.45,2.66,2.36,4.9,2.22,2.02-.12,3.32-3.02,3.98-6.35-1.17.43-2.7.82-4.31.93-.32.02-.65.02-.98,0Z"/>
      <path class="cls-28" d="M202,161.13c-1.62,12.24-3.15,23.82-3.15,26.65,0,.26-.19.47-.44.5-.07.69-.14,1.3-.2,1.84h3.41c1.53-13.21,4.7-40.84,6.79-50.55,2.09-9.71,3.67-24.41-1.26-25.58-4.93-1.17-7.29-.22-10.47.67-.08.06-2.83.61-5.86.67,2.28,1.51,5.99,1.68,10.8,1.57,2.29-.05,3.35.67,3.77,1.94.03,0,.06,0,.08,0,.28,0,.5.23.5.5,0,0,0,.89-.24,9.76-.12,4.6-1.99,18.71-3.74,32.04Z"/>
      <path class="cls-28" d="M202.19,89.43c-.73,1.64-3.97,9.16-4.13,14.11-.04,1.15-.05,2.05-.04,2.74,1.09-.4,2.07-.85,2.94-1.32-.04-.39-.07-.77-.08-1.14-.11-2.73.39-6.32,1.92-8.65.68-1.04,1.88-2.15,2.97-2.71.61-.31,1.23-.49,1.86-.54-4.43-12.25-5.01-53.39-5.44-63.69h-5.44c.03.81.06,1.63.1,2.47.19.07.33.25.34.46.95,31.56,5.45,57.6,5.46,57.68.05.28-.14.53-.41.58-.01,0-.03,0-.04,0Z"/>
    </g>
  </g>
  <g>
    <g>
      <path class="cls-1" d="M57.61,414.36c5.29,14.03,5.93,29.11,1.38,43.43l-.1.31c-.09.27.06.56.33.65.27.09.56-.06.65-.33,3.11-9.78,4.11-20.67,2.34-30.8-.42-2.33-1.06-5-1.61-7.32-.5-2.11-1.25-4.27-2.03-6.3-1.42-3.63-3.17-7.71-5.61-10.76-1.57-1.96-2.47-3.38-3.77-5.52-1.96-3.22-4.15-5.49-6.8-8.12-2.24-2.21-3.63-3.63-6.18-5.46-1.69-1.21-3.32-2.3-5-3.56-.55-.41-2.79-2.17-3.36-2.12-.5.04-.6.63-.14.92,2.19,1.38,4.2,2.95,6.36,4.41,3.1,2.1,4.69,3.52,7.29,6.22,2.89,3,5.32,5.36,7.53,8.96,1.18,1.93,2.18,3.32,3.5,5.12,1.23,1.68,2.05,3.22,2.96,5.09.83,1.71,1.57,3.43,2.25,5.2Z"/>
      <path class="cls-1" d="M21.52,371.53c6.58,3.46,10.12,6.42,15.64,11.17,3.72,3.22,8.41,8.28,10.25,12.87.34.86-.29.29-1.07-.05-3-1.29-5.28-2.8-7.67-5.02-2.06-1.93-3.95-3.44-6.1-5.23-2.5-2.07-4.47-4.79-6.6-7.27-1.91-2.22-2.85-3.38-4.3-5.93-.13-.24-.26-.37-.32-.61l.18.07Z"/>
      <path class="cls-1" d="M48.83,391.62c-.73-4.11-1.02-7.26-1.14-11.42-.1-3.46-.27-6.93-.21-10.39,1,2.86,1.87,5.52,2.98,8.37,2.64,6.77,4.08,14.2,4.08,21.46,0,1.55-.21,3.65-.9,5.08-2.88-3.19-4.07-8.96-4.81-13.1Z"/>
      <path class="cls-1" d="M58.19,414.39c-1.22-3.22-1.06-9.2-.73-12.52.65-6.54,1.73-11.61,3.74-17.89.52-1.64,1.08-3.25,1.67-4.87.77,7.96.94,17.46-.89,25.29-.65,2.75-2.04,7.66-3.78,10Z"/>
      <path class="cls-1" d="M70.77,393.97c-.12,5.99-.27,10.31-1.42,16.25-1.16,6.03-2.73,12.91-6.91,17.61-.1.11-.21.27-.36.32-1.15-4.76.58-13.88,2.33-18.37.84-2.14,2.05-3.45,2.85-5.79,1.21-3.54,1.24-5.75,3.07-9.47.14-.29.23-.55.42-.79l.02.22Z"/>
      <path class="cls-1" d="M66.25,426.26c2.39-4.94,7.03-14.08,10.77-17.74.52-.51,1.04-1.01,1.56-1.52-.81,3.6-2.07,7.73-3.33,11.2-1.19,3.29-3.07,7.18-4.68,10.31-1.75,3.41-4.98,8.5-8.19,10.77-.29.2.39-3.49.47-3.81.73-3.1,2-6.35,3.4-9.21Z"/>
      <path class="cls-1" d="M62.52,450.17c-.07.05-1.24.79-1.21.65,1.44-7.22,8.83-16.37,13.92-21.61,2.05-2.1,5.21-5.46,7.5-7.12-.18.76-1.12,3.02-1.45,3.89-2.53,6.57-8.27,13.9-12.99,19.22-1.74,1.96-3.57,3.54-5.77,4.97Z"/>
      <path class="cls-1" d="M21.09,389.88c5.36,4.5,12.66,8.78,19.24,11.16,3.13,1.14,10.2,3.96,13.27,3.73.36-.03.09-.12-.29-.45-1.11-.98-2.32-1.81-3.48-2.85-1.95-1.74-2.72-2.31-5.06-3.61-1.47-.82-2.97-1.58-4.51-2.26-5.27-2.28-11.8-4.94-17.49-5.65-.34-.04-1.56-.24-1.8-.21l.13.14Z"/>
      <path class="cls-1" d="M24.68,401.18c2.33,1.74,5.05,2.98,7.59,4.47,4.24,2.47,6.15,3.23,10.87,4.55,5.47,1.52,8.68,3.93,14.75,3.5.56-.05.41.01-.21-.6-3.28-3.19-10.78-6.63-15.2-8.12-2.51-.85-5.19-1.66-7.73-2.45-3.59-1.12-4.98-1.3-8.65-1.42-.3,0-1.35-.11-1.54-.06l.14.13Z"/>
      <path class="cls-1" d="M61.74,427.7c.42.05.3.05-.02-.38-3.26-4.22-7.88-6.96-12.36-9.69-3.91-2.38-7.9-3.64-12.17-5.2-2.12-.78-4.1-1.41-6.26-2.07,3.73,3.26,6.73,5.95,11.05,8.46,5.46,3.18,8.73,6.19,15.14,7.96,1.54.42,3.03.71,4.61.92Z"/>
      <path class="cls-1" d="M56.21,436.49c1.34.63,5.19,2.19,6.71,2.23-.74-1.74-4.4-5.36-5.78-6.57-1.53-1.33-3.25-2.76-4.82-4.05-2.86-2.34-6.17-3.98-9.46-5.62-2.13-1.06-4.56-1.99-6.77-2.96-.76-.33-1.5-.64-2.28-.93.96,1.34,2.74,3.18,3.9,4.46,2.32,2.54,4.25,4.21,7.27,5.89,3.16,1.74,3.96,2.75,6.61,4.83,1.47,1.15,2.95,1.91,4.62,2.72Z"/>
      <path class="cls-1" d="M61.66,450.22c-2.34-5.63-8.52-11.07-13.12-15.04-2.86-2.47-6.25-4.2-9.38-6.28-.73-.49-2.8-1.95-3.57-2.28,1.14,2.04,5.44,6.8,7.15,8.73,4.72,5.34,6.69,8.52,13.06,12.43,1.72,1.06,3.99,2.17,5.94,2.72l-.07-.28Z"/>
    </g>
    <g>
      <path class="cls-2" d="M64.86,463.06c.04.26-.13.5-.39.54-.26.04-.5-.13-.54-.39-2.32-27.63,3.81-48.33,20.43-70.53.21-.28,12.22-14.36,7.29-7.23-2.7,3.9-5.89,6.97-8.74,11.26-15.13,22.78-20.86,38.71-18.05,66.36Z"/>
      <path class="cls-2" d="M101.44,380.57c2.53-2.79-.69-1.63-3.21-1.25-12.89,2.36-16.8,13.95-12.54,13.85,5.16-.12,9-4.12,11.91-7.86,1.29-1.66,2.44-3.15,3.84-4.74Z"/>
      <path class="cls-2" d="M95.4,398c1.5-.45.91.19.21,1.16-3.95,5.39-10.73,14.11-18.52,11.61-4.48-1.44-.31-4.75,1.69-6.5,4.87-4.27,10.63-4.64,16.61-6.26Z"/>
      <path class="cls-2" d="M88.36,414.64c-3.76,4.6-11.84,14.06-18.61,9.4-2.61-1.79,1.08-4.37,2.54-5.59,5.15-4.71,10.74-4.6,17.1-6.27,2.21-.61-.06,1.26-1.03,2.47Z"/>
      <path class="cls-2" d="M83.33,426.75c-3.17,5.8-7.95,12.66-15.39,12.28-7.41-.38.7-7.8,3.31-9.38,1.27-.77,13.02-5.87,13.03-5.01,0,.33-.85,1.9-.95,2.11Z"/>
      <path class="cls-2" d="M63.72,451.87c5.56-9.94,7.93-9.63,17.83-12.47,1.77-.51,1.62-1.21-.05,2.42-2.76,5.97-7.54,11.42-14.42,12.15-.85,0-3.47-.57-3.55-1.53l.19-.56Z"/>
      <path class="cls-2" d="M69.64,393.96c-.53-1.22-1.4,1.39-1.69,2.03-2.38,5.16-6.21,17.32-.19,21.27,4.91,3.22,5.06-9.05,4.74-11.62-.46-3.68-1.81-8.07-2.86-11.68Z"/>
      <path class="cls-2" d="M59.03,412.56c-1.45-2.31-1.03-2.85-1.75,1.23-.82,5.34-.8,19.07,7.27,18.57,1.78-.11,1.38-4.17,1.35-5.47-.14-6.32-3.14-9.64-6.87-14.33Z"/>
      <path class="cls-2" d="M53.01,429.03c-2.17-1.87-1.62-3.23-1.57,1.75.07,6.56,2.44,13.48,8.47,16.8.8.33,3.42.81,3.87-.07.24-3.29-1.32-9.17-3.46-11.85-1.76-2.21-5.1-4.74-7.31-6.64Z"/>
      <path class="cls-2" d="M74.77,403.09c3.23,4.19,6.33-4.47,6.8-6.86,1-5.12.03-9.31.14-14.27.03-1.45-1.24.76-1.94,1.58-4.11,4.86-8.94,13.39-5,19.55Z"/>
    </g>
    <path class="cls-7" d="M81.12,453.32h-36.44v8.46c0,6.62,3.58,12.44,8.9,15.63h18.65c5.32-3.19,8.89-9.01,8.89-15.63v-8.46Z"/>
    <rect class="cls-50" x="42.93" y="453.32" width="39.94" height="4.56" rx="1.84" ry="1.84"/>
  </g>
  <g>
    <g>
      <path class="cls-1" d="M435.93,414.36c5.29,14.03,5.93,29.11,1.38,43.43l-.1.31c-.09.27.06.56.33.65.27.09.56-.06.65-.33,3.11-9.78,4.11-20.67,2.34-30.8-.42-2.33-1.06-5-1.61-7.32-.5-2.11-1.25-4.27-2.03-6.3-1.42-3.63-3.17-7.71-5.61-10.76-1.57-1.96-2.47-3.38-3.77-5.52-1.96-3.22-4.15-5.49-6.8-8.12-2.24-2.21-3.63-3.63-6.18-5.46-1.69-1.21-3.32-2.3-5-3.56-.55-.41-2.78-2.17-3.36-2.12-.5.04-.6.63-.14.92,2.19,1.38,4.2,2.95,6.36,4.41,3.1,2.1,4.69,3.52,7.29,6.22,2.89,3,5.32,5.36,7.53,8.96,1.18,1.93,2.18,3.32,3.5,5.12,1.23,1.68,2.05,3.22,2.96,5.09.83,1.71,1.57,3.43,2.25,5.2Z"/>
      <path class="cls-1" d="M399.83,371.53c6.58,3.46,10.12,6.42,15.64,11.17,3.72,3.22,8.41,8.28,10.25,12.87.34.86-.29.29-1.07-.05-3-1.29-5.28-2.8-7.67-5.02-2.06-1.93-3.95-3.44-6.1-5.23-2.5-2.07-4.47-4.79-6.6-7.27-1.91-2.22-2.85-3.38-4.3-5.93-.13-.24-.26-.37-.32-.61l.18.07Z"/>
      <path class="cls-1" d="M427.15,391.62c-.73-4.11-1.02-7.26-1.14-11.42-.1-3.46-.27-6.93-.21-10.39,1,2.86,1.87,5.52,2.98,8.37,2.64,6.77,4.08,14.2,4.08,21.46,0,1.55-.21,3.65-.9,5.08-2.88-3.19-4.07-8.96-4.81-13.1Z"/>
      <path class="cls-1" d="M436.5,414.39c-1.22-3.22-1.06-9.2-.73-12.52.65-6.54,1.74-11.61,3.74-17.89.52-1.64,1.08-3.25,1.67-4.87.77,7.96.94,17.46-.89,25.29-.65,2.75-2.04,7.66-3.78,10Z"/>
      <path class="cls-1" d="M449.09,393.97c-.12,5.99-.27,10.31-1.42,16.25-1.16,6.03-2.73,12.91-6.91,17.61-.1.11-.21.27-.36.32-1.15-4.76.58-13.88,2.33-18.37.84-2.14,2.05-3.45,2.85-5.79,1.21-3.54,1.24-5.75,3.07-9.47.14-.29.23-.55.42-.79l.02.22Z"/>
      <path class="cls-1" d="M444.56,426.26c2.39-4.94,7.03-14.08,10.77-17.74.52-.51,1.04-1.01,1.56-1.52-.81,3.6-2.07,7.73-3.33,11.2-1.19,3.29-3.07,7.18-4.67,10.31-1.75,3.41-4.98,8.5-8.19,10.77-.29.2.39-3.49.47-3.81.73-3.1,2-6.35,3.4-9.21Z"/>
      <path class="cls-1" d="M440.83,450.17c-.07.05-1.24.79-1.21.65,1.44-7.22,8.83-16.37,13.92-21.61,2.05-2.1,5.21-5.46,7.5-7.12-.18.76-1.12,3.02-1.45,3.89-2.53,6.57-8.27,13.9-12.99,19.22-1.74,1.96-3.57,3.54-5.77,4.97Z"/>
      <path class="cls-1" d="M399.41,389.88c5.35,4.5,12.66,8.78,19.23,11.16,3.13,1.14,10.2,3.96,13.27,3.73.36-.03.09-.12-.29-.45-1.11-.98-2.32-1.81-3.48-2.85-1.95-1.74-2.72-2.31-5.06-3.61-1.47-.82-2.97-1.58-4.51-2.26-5.27-2.28-11.8-4.94-17.49-5.65-.34-.04-1.56-.24-1.79-.21l.13.14Z"/>
      <path class="cls-1" d="M403,401.18c2.33,1.74,5.05,2.98,7.59,4.47,4.24,2.47,6.15,3.23,10.87,4.55,5.47,1.52,8.68,3.93,14.75,3.5.56-.05.41.01-.21-.6-3.28-3.19-10.78-6.63-15.2-8.12-2.51-.85-5.19-1.66-7.73-2.45-3.59-1.12-4.98-1.3-8.65-1.42-.3,0-1.35-.11-1.54-.06l.14.13Z"/>
      <path class="cls-1" d="M440.05,427.7c.42.05.3.05-.02-.38-3.26-4.22-7.88-6.96-12.36-9.69-3.91-2.38-7.9-3.64-12.17-5.2-2.12-.78-4.1-1.41-6.26-2.07,3.73,3.26,6.73,5.95,11.05,8.46,5.46,3.18,8.73,6.19,15.14,7.96,1.54.42,3.03.71,4.61.92Z"/>
      <path class="cls-1" d="M434.52,436.49c1.34.63,5.19,2.19,6.71,2.23-.74-1.74-4.4-5.36-5.78-6.57-1.53-1.33-3.25-2.76-4.82-4.05-2.86-2.34-6.17-3.98-9.46-5.62-2.13-1.06-4.56-1.99-6.77-2.96-.76-.33-1.5-.64-2.28-.93.96,1.34,2.74,3.18,3.9,4.46,2.32,2.54,4.25,4.21,7.27,5.89,3.16,1.74,3.96,2.75,6.61,4.83,1.46,1.15,2.95,1.91,4.62,2.72Z"/>
      <path class="cls-1" d="M439.97,450.22c-2.34-5.63-8.52-11.07-13.12-15.04-2.86-2.47-6.25-4.2-9.38-6.28-.73-.49-2.8-1.95-3.57-2.28,1.14,2.04,5.44,6.8,7.15,8.73,4.72,5.34,6.69,8.52,13.06,12.43,1.72,1.06,3.99,2.17,5.94,2.72l-.07-.28Z"/>
    </g>
    <g>
      <path class="cls-2" d="M443.17,463.06c.04.26-.13.5-.39.54-.26.04-.5-.13-.54-.39-2.32-27.63,3.81-48.33,20.43-70.53.21-.28,12.22-14.36,7.29-7.23-2.7,3.9-5.89,6.97-8.74,11.26-15.13,22.78-20.86,38.71-18.05,66.36Z"/>
      <path class="cls-2" d="M479.75,380.57c2.53-2.79-.69-1.63-3.21-1.25-12.89,2.36-16.81,13.95-12.54,13.85,5.16-.12,9-4.12,11.91-7.86,1.29-1.66,2.44-3.15,3.84-4.74Z"/>
      <path class="cls-2" d="M473.71,398c1.5-.45.91.19.22,1.16-3.95,5.39-10.73,14.11-18.52,11.61-4.48-1.44-.31-4.75,1.69-6.5,4.87-4.27,10.63-4.64,16.61-6.26Z"/>
      <path class="cls-2" d="M466.68,414.64c-3.76,4.6-11.84,14.06-18.61,9.4-2.61-1.79,1.08-4.37,2.54-5.59,5.15-4.71,10.74-4.6,17.1-6.27,2.21-.61-.06,1.26-1.03,2.47Z"/>
      <path class="cls-2" d="M461.64,426.75c-3.17,5.8-7.95,12.66-15.39,12.28-7.41-.38.7-7.8,3.31-9.38,1.27-.77,13.02-5.87,13.03-5.01,0,.33-.84,1.9-.95,2.11Z"/>
      <path class="cls-2" d="M442.03,451.87c5.56-9.94,7.93-9.63,17.83-12.47,1.77-.51,1.62-1.21-.05,2.42-2.76,5.97-7.54,11.42-14.42,12.15-.85,0-3.47-.57-3.55-1.53l.19-.56Z"/>
      <path class="cls-2" d="M447.95,393.96c-.53-1.22-1.4,1.39-1.7,2.03-2.38,5.16-6.21,17.32-.19,21.27,4.91,3.22,5.06-9.05,4.74-11.62-.46-3.68-1.81-8.07-2.86-11.68Z"/>
      <path class="cls-2" d="M437.34,412.56c-1.45-2.31-1.03-2.85-1.75,1.23-.82,5.34-.8,19.07,7.27,18.57,1.78-.11,1.38-4.17,1.35-5.47-.14-6.32-3.14-9.64-6.87-14.33Z"/>
      <path class="cls-2" d="M431.32,429.03c-2.17-1.87-1.62-3.23-1.57,1.75.08,6.56,2.44,13.48,8.47,16.8.8.33,3.42.81,3.87-.07.24-3.29-1.32-9.17-3.46-11.85-1.76-2.21-5.1-4.74-7.31-6.64Z"/>
      <path class="cls-2" d="M453.08,403.09c3.23,4.19,6.33-4.47,6.8-6.86,1-5.12.03-9.31.14-14.27.03-1.45-1.24.76-1.94,1.58-4.11,4.86-8.94,13.39-5,19.55Z"/>
    </g>
    <path class="cls-7" d="M459.43,453.32h-36.44v8.46c0,6.62,3.58,12.44,8.9,15.63h18.65c5.32-3.19,8.89-9.01,8.89-15.63v-8.46Z"/>
    <path class="cls-50" d="M423.09,453.32h36.25c1.02,0,1.84.83,1.84,1.84v.87c0,1.02-.83,1.84-1.84,1.84h-36.25c-1.02,0-1.84-.83-1.84-1.84v-.87c0-1.02.83-1.84,1.84-1.84Z"/>
  </g>
  <g>
    <path class="cls-1" d="M196.09,458.72c.21.16.23.45.06.64-.17.19-.48.21-.68.05-12.97-12.54-22.99-24.66-26.43-42.19-.92-4.67-2.96-9.36-3.62-14.51-.35-2.72-.68-31.13.69-13.06.51,6.64-.38,8.95,1.36,16.14.97,3.99.88,5.38,2.49,9.35,1.74,4.28,1.24,8.92,3.84,14.81,4.93,11.18,13.25,20.32,22.3,28.78Z"/>
    <path class="cls-1" d="M165.52,377.57c-6.21,12.6-1.2,25.77,3.43,12.82,1.09-3.05.99-5.65.87-8.78-.11-1.31-.37-7.38-.85-8.03-1.1.1-2.91,3.15-3.46,3.99Z"/>
    <path class="cls-1" d="M177.32,392.54c1.54,7.18,1.4,16.99-5.76,21.52-1.4.89-2.1.02-2.86-1.33-2.96-5.22,3.63-15.75,7.05-20.01l.66-.82.54-.16.37.8Z"/>
    <path class="cls-1" d="M172.73,421.76c1.54-3.6,7.17-15.58,10.35-17.26,3.55,4.07-.55,18.77-7.3,21.92-4.62,2.16-3.99-2-3.06-4.66Z"/>
    <path class="cls-1" d="M179.89,439.88c-5.36-1.95.55-13.39,2.24-16.34.37-.64,4.41-7.79,5.23-6.37,1.33,2.31.28,12.25-.59,15.06-1.18,3.78-2.76,6.43-6.88,7.65Z"/>
    <path class="cls-1" d="M194.34,428.72c.83-.52,1.11,3.86,1.22,4.49,1.02,6.24,1.01,12.19-3.69,17.23-.59.63-3.8,2.61-4.22.61-2.15-10.22.18-13.88,6.38-21.93l.32-.41Z"/>
    <path class="cls-1" d="M153.21,406.38c1.38,4.79,8.34,20.2,15.45,17.19,8.07-3.41-12.91-17.83-15.45-17.92v.73Z"/>
    <path class="cls-1" d="M175.36,435.38c-1.23-6.17-13.27-9.45-19.29-10.42-2.84-.46,15.42,20.95,19.29,10.42Z"/>
    <path class="cls-1" d="M164.8,444.5c4.51,4.07,10.22,7.31,16.77,6,.89-.18,3.54-1.65,3.22-2.56-.73-2.09-7.92-6.02-10.69-6.5-.48-.08-12.57-.45-12.64-.44.14.33,3.01,3.15,3.35,3.49Z"/>
    <path class="cls-1" d="M164.92,409.94c6.68.76-1.83-12.27-3.42-14.33-.4-.52-5.6-6.78-6.03-5.65-.05-.06-1.42,12.52,5.56,17.96,1.4,1.09,2.25,1.38,3.89,2.01Z"/>
  </g>
  <g>
    <g>
      <path class="cls-16" d="M84.22,337.55c.38,0,.7-.31.7-.7s-.31-.7-.7-.7h-19.62c-1.36,0-2.6.56-3.5,1.46-.9.9-1.46,2.14-1.46,3.5s.56,2.6,1.46,3.5c.9.9,2.14,1.45,3.5,1.45h19.62c.38,0,.7-.31.7-.7s-.31-.7-.7-.7h-19.62c-.98,0-1.87-.4-2.52-1.05-.65-.65-1.05-1.54-1.05-2.52s.4-1.87,1.05-2.52c.65-.65,1.54-1.05,2.52-1.05h19.62Z"/>
      <path class="cls-16" d="M82.24,336.15h-48.04c-1.29,0-2.47.56-3.31,1.47-.84.9-1.35,2.13-1.35,3.48s.52,2.59,1.35,3.48c.85.91,2.02,1.47,3.31,1.47h48.04c.39,0,.7-.31.7-.7v-8.52c0-.39-.31-.7-.7-.7Z"/>
      <path class="cls-16" d="M64.6,337.55h16.94v7.13h-16.94c-.98,0-1.87-.4-2.52-1.05-.65-.65-1.05-1.54-1.05-2.52s.4-1.87,1.05-2.52c.65-.65,1.54-1.05,2.52-1.05Z"/>
    </g>
    <g>
      <path class="cls-16" d="M79.18,327.63c.31,0,.57-.31.57-.7s-.25-.7-.57-.7h-15.96c-1.11,0-2.12.56-2.85,1.46-.73.9-1.18,2.14-1.18,3.5s.45,2.6,1.18,3.5c.73.9,1.74,1.46,2.85,1.46h15.96c.31,0,.57-.31.57-.7s-.25-.7-.57-.7h-15.96c-.8,0-1.52-.4-2.05-1.05-.53-.65-.85-1.54-.85-2.52s.33-1.87.85-2.52c.53-.65,1.25-1.05,2.05-1.05h15.96Z"/>
      <path class="cls-16" d="M77.57,326.24h-39.08c-1.05,0-2.01.57-2.7,1.48-.68.9-1.1,2.13-1.1,3.48s.42,2.59,1.1,3.48c.69.91,1.64,1.47,2.7,1.47h39.08c.31,0,.57-.31.57-.7v-8.52c0-.38-.25-.7-.57-.7Z"/>
      <path class="cls-16" d="M63.22,327.63h13.79v7.13h-13.79c-.8,0-1.52-.4-2.05-1.05-.53-.65-.85-1.54-.85-2.52s.33-1.87.85-2.52c.53-.65,1.25-1.05,2.05-1.05Z"/>
    </g>
    <g>
      <path class="cls-16" d="M84.28,318.85c.35,0,.63-.31.63-.7s-.28-.7-.63-.7h-17.79c-1.24,0-2.36.56-3.17,1.46-.81.9-1.32,2.14-1.32,3.5s.5,2.6,1.32,3.5c.82.9,1.94,1.46,3.17,1.46h17.79c.35,0,.63-.31.63-.7s-.28-.7-.63-.7h-17.79c-.89,0-1.7-.4-2.28-1.05-.59-.65-.95-1.54-.95-2.52s.36-1.87.95-2.52c.59-.65,1.39-1.05,2.28-1.05h17.79Z"/>
      <path class="cls-16" d="M82.49,317.46h-43.56c-1.17,0-2.24.56-3.01,1.47-.76.9-1.23,2.13-1.23,3.48s.47,2.59,1.23,3.48c.77.91,1.83,1.47,3.01,1.47h43.56c.35,0,.63-.31.63-.7v-8.52c0-.39-.28-.7-.63-.7Z"/>
      <path class="cls-16" d="M66.49,318.85h15.36v7.13h-15.36c-.89,0-1.7-.4-2.28-1.05-.59-.65-.95-1.54-.95-2.52s.36-1.87.95-2.52c.59-.65,1.39-1.05,2.28-1.05Z"/>
    </g>
  </g>
  <g>
    <path class="cls-16" d="M165.8,330.02h-14.28c-2.41-.65-4.15-2.41-5.04-4.6-.52-1.28-.78-2.7-.73-4.13.05-1.46.39-2.94,1.07-4.32,1.49-3.03,4.62-5.64,9.77-6.77l2.01,5.33,3.96-.05v-14.3c-12.56,0-19.99,5.45-23.27,12.11-1.22,2.49-1.85,5.13-1.93,7.74-.08,2.63.37,5.22,1.32,7.55,4.14,10.2,18.98,13.96,18.98,4.76h6.89l1.24-3.32Z"/>
    <path class="cls-16" d="M168.58,319.57h-4.82c-.4,0-.73-.33-.73-.73h0c0-.4.33-.73.73-.73h4.82c.4,0,.73.33.73.73h0c0,.4-.33.73-.73.73Z"/>
    <rect class="cls-43" x="164.71" y="288.16" width="2.91" height="8.17"/>
    <path class="cls-43" d="M164.45,288.16h3.44c.2,0,.36.16.36.36v.73c0,.2-.16.36-.36.36h-3.44c-.2,0-.37-.16-.37-.37v-.73c0-.2.16-.36.36-.36Z"/>
    <rect class="cls-43" x="162.55" y="296.33" width="7.23" height="22.08"/>
    <path class="cls-16" d="M159.63,343.56v-11.48c0-.47-.4-1.14-1.14-1.14s-1.05.81-1.66,1.68l-7.65,10.94h10.45Z"/>
    <rect class="cls-43" x="146.84" y="342.15" width="32.53" height="4.01"/>
    <path class="cls-16" d="M169.67,296.33h-7c-.4,0-.73-.33-.73-.73h0c0-.4.33-.73.73-.73h7c.4,0,.73.33.73.73h0c0,.4-.33.73-.73.73Z"/>
    <rect class="cls-43" x="150.91" y="328.1" width="22.09" height="2"/>
  </g>
  <g>
    <path class="cls-27" d="M116.6,236.76l7.87-27.19c.19-.64,1.65-.5,2.73-1.83,1.9-2.36,3.01-7.13-.8-9.13-5.96-3.13-21.34,4.28-23.89,6.99-2.55,2.71-.3,5.05-.3,5.05-7.55,5.7-2.38,14.45,2.04,19.61,3.62,4.22,12.3,6.66,12.34,6.5Z"/>
    <path class="cls-9" d="M96.26,458.38l-.32,12.89h6.87l2.52-13.38-9.08.49Z"/>
    <path class="cls-27" d="M95.2,469.31v8.1h23.2l-14.85-8.1h-8.35Z"/>
    <path class="cls-9" d="M138.32,458.38l-.32,12.89h6.87l2.52-13.38-9.08.49Z"/>
    <path class="cls-27" d="M137.27,469.31v8.1h23.2l-14.85-8.1h-8.35Z"/>
    <path class="cls-15" d="M100.92,318.74c-1.15,8.95-2.88,17.93-2.56,26.94,1.53,42.95-.48,84.2-3.75,123.63l13.8.24c6.07-39.83,12.4-77.01,14.34-115.81,6.21,34.19,12.47,70.03,13.36,115.62l11.61.03c6.64-50.54,2.29-102-2.45-151.28,0,0-30.22-5.85-44.36.64Z"/>
    <path class="cls-17" d="M105.78,301.58c.41,12.25-6.61,34.72-6.31,34.78,12.35,2.1,33.23,1.5,46.48-.12.3-.25-4.78-42.34-4.78-48.85,0-33.84-12.13-44.44-22.31-44.97-12.79-.67-14.53,16.42-13.09,59.17Z"/>
    <path class="cls-11" d="M128.18,245.69s1.51,10.31-3.23,25.54l-13.39-26.48c-8.17,2.64-16.93,12.41-16.93,12.41l5.11,60.55-4.06,27.18c9.77,3.91,39.75,5.59,51.73-.65.52-.11,1.05-.22,1.59-.35l-3.09-33.73-1.31-27.29-1.8-12.74.17-14.09s-6.62-7.69-14.79-10.35Z"/>
    <g>
      <rect class="cls-41" x="107.42" y="271.79" width="28.95" height="40.16" rx="1.49" ry="1.49"/>
      <path class="cls-7" d="M136.37,298.56v11.89c0,.82-.67,1.49-1.49,1.49h-25.96c-.82,0-1.49-.67-1.49-1.49v-25.82c6.05,7.47,15.55,13.07,28.95,13.93Z"/>
      <rect class="cls-47" x="114.67" y="270.48" width="14.48" height="2.8" rx=".75" ry=".75"/>
    </g>
    <path class="cls-9" d="M100.63,277.25l-.42,27.6c7.31-3.2,15.23-7.18,22.1-11.25,0,0,1.48-4.03,1.93-4.72.45-.69,3.01-5.06,3.01-5.06,1.45-.13.88,3.72.58,6.26,5.68-2.62,9.23-3.76,10.15-3.56.62.13-1.16,2.28-1.38,3.3-.31,1.4-.12,3.2-1.36,4.53-8.68,9.31-36.03,26.47-44.11,24.21-5.91-1.66-2.95-33.92-2.95-33.92l12.45-7.38Z"/>
    <path class="cls-11" d="M101.17,251.3c-4.67,3.15-10.27,5.02-12.72,17.86-2.45,12.84-1.98,41.67-.35,47.51,1.63,5.84,6.89,4.2,12.14,1.75,5.25-2.45,25.1-14.94,25.1-14.94l-3.38-9.45-20.9,8.87.12-51.6Z"/>
    <path class="cls-2" d="M121.66,294.3l-20.91,8.41h-.02s-4.12.7-5.44,1.33l-.15-.32c1.31-.63,5.19-1.3,5.51-1.35l20.88-8.4.13.33Z"/>
    <polygon class="cls-2" points="100.52 302.71 95.97 300.9 96.1 300.57 100.65 302.38 100.52 302.71"/>
    <path class="cls-2" d="M102.22,269.33c0,2.45-1.75,33.07-1.75,33.16l-.35-.02c0-.09,1.75-30.69,1.75-33.14h.35Z"/>
    <polygon class="cls-2" points="99.62 318.44 119.7 306.65 119.88 306.95 99.8 318.74 99.62 318.44"/>
    <path class="cls-6" d="M112.93,228.69c.44,3.71,1.16,11.11,1.93,15.7,1.77,10.64,13.39,11.68,10.04-1.39l-.3-8.25s-4.89-10.62-11.67-6.06Z"/>
    <path class="cls-35" d="M110.9,228.41c-6.43-4.9-5.65,2.43-2.54,3.26,1.23.33,2.55-.16,2.55-.16,0,0,2.37,5.17,10.05,6.43,7.68,1.26,12.85-3.46,9.58-13.24-3.27-9.78-4.76-15.98-4.76-15.98l-16.53,4.97s3.76,9.08,1.66,14.71Z"/>
    <path class="cls-5" d="M189.54,206.3c-.06.37-.4.62-.77.56-.37-.06-.62-.4-.56-.77l10.93-69.39c.06-.37.4-.62.77-.56.37.06.62.4.56.77l-10.93,69.39Z"/>
    <path class="cls-6" d="M192.56,209.65l-4.28,15.09-5.7-3.09,2.85-10.93s-2.02-7.01.12-10.93c1.32-2.43,1.85-5.43,2.68-8,.51-1.59.26-2.06,1.48-1.56,1.97.8-.06,5.85-.48,7.19-.47,1.54-.12,6.65-.12,6.65l3.44,5.58Z"/>
    <g>
      <path class="cls-35" d="M188.5,192.49c-.75.36-.58,1.89.27,2.73l.85.84s-2.2.41-1.74,2.32c.45,1.91,1.11,2.09,1.11,2.09,0,0-.93.97-.88,2.3.05,1.32.79,1.75.79,1.75,0,0-1.18.97-.46,2.39.71,1.42,3.28,4.84,3.28,4.84,0,0,.88-.65,2.02-4.69.32-1.14.83-1.93,1.05-3.83.09-.74,1.28-1.51,1.14-2.33-.32-1.84-5.44-9.35-7.43-8.4Z"/>
      <path class="cls-3" d="M189.72,195.88c-.04-.06-.13-.06-.18-.02-.06.04-.06.13-.02.18.95,1.18,3.13,4.01,3.87,5.26.04.06.12.08.18.05.06-.04.08-.12.05-.18-.74-1.27-2.94-4.11-3.89-5.29Z"/>
      <path class="cls-3" d="M188.85,200.2c-.04-.06-.13-.06-.18-.02-.06.04-.06.13-.02.18.88,1.1,2.88,3.34,3.47,4.36.04.06.12.08.18.05.06-.04.08-.12.05-.18-.6-1.03-2.61-3.29-3.5-4.39Z"/>
      <path class="cls-3" d="M188.83,204.18c-.04-.06-.13-.06-.18-.02-.06.04-.06.13-.02.18,1.48,1.83,1.71,1.81,2.91,3.87.04.06.12.08.18.05.06-.04.08-.12.04-.18-1.21-2.07-1.45-2.06-2.93-3.9Z"/>
    </g>
    <path class="cls-11" d="M130.54,247.42c15.45,4.7,29.86,7.53,33.45,3.49,5.98-6.72,11.02-20.39,19.08-38.11l8.79,2.63c-2.77,20.81-9.21,43.73-21.44,52.39-9.34,6.61-40.14,2.67-40.11.23l.23-20.63Z"/>
    <path class="cls-2" d="M140.7,261.09c-.06-.18-.24-.49-.07-.55.17-.06.37.03.43.2,2.63,7.18,3.58,23.93,3.58,23.98.01.18-.13.34-.32.35-.19,0-.34-.13-.36-.32,0-.05-.68-16.58-3.28-23.67Z"/>
    <polygon class="cls-2" points="168.31 252.68 163.76 250.87 163.88 250.55 168.44 252.36 168.31 252.68"/>
    <rect class="cls-37" x="164.73" y="250.59" width=".35" height="4.9" transform="translate(-81.37 78.2) rotate(-21.54)"/>
    <g>
      <path class="cls-10" d="M122.35,224.84c1.61.5,4.09-.84,4.09-.84,0,0,.23,2.09-1.96,2.5-2.19.41-2.13-1.66-2.13-1.66Z"/>
      <path class="cls-10" d="M122.05,231.04c1.38.23,3.34-.53,3.34-.53,0,0-.96,4.65-3.34.53Z"/>
      <path class="cls-4" d="M125.01,225.08c-.22.08-.33.32-.24.54.08.22.32.33.54.25l.06-.02c.28-.12.69-.39,1-.72.37-.39.61-.87.45-1.33l-.03-.07c-.12-.29-.35-.51-.64-.79-.4-.4-.94-.93-1.38-1.88-.1-.21-.34-.3-.55-.21-.21.1-.3.34-.21.56.5,1.09,1.1,1.69,1.55,2.13.22.22.39.39.46.52v.03c.04.1-.09.29-.26.47-.23.24-.52.44-.71.52h-.04Z"/>
      <path class="cls-4" d="M127.51,215.03c.17.11.43.06.58-.1.15-.16.13-.37-.05-.48-.12-.07-.24-.13-.37-.17h-.03c-.5-.18-1.12-.18-1.72.01-.61.2-1.19.6-1.59,1.25-.11.18-.21.39-.29.6-.07.19.06.37.28.4.22.03.45-.09.51-.28.06-.18.14-.33.22-.47.28-.45.67-.73,1.08-.86.39-.13.8-.12,1.12-.02h.03c.08.04.16.07.23.11Z"/>
      <path class="cls-4" d="M113.2,219.29c-.09.17-.03.43.12.58.15.14.35.12.44-.05.39-.76.88-1.45,1.53-1.81.64-.35,1.45-.38,2.47.16.17.09.35,0,.39-.21.04-.21-.07-.45-.24-.54-1.22-.64-2.18-.6-2.96-.17-.76.42-1.33,1.2-1.76,2.05Z"/>
      <path class="cls-4" d="M116.77,219.55c.67-.19,1.44.45,1.73,1.44.29.99-.02,1.95-.69,2.15-.67.19-1.44-.45-1.73-1.44-.29-.99.02-1.95.69-2.15Z"/>
      <path class="cls-4" d="M119.79,229.37c-.32.31-.33.81-.02,1.13.31.32.81.33,1.13.02,0,0,2.3-2.26,5.25-1.37.42.13.87-.11,1-.53.13-.42-.11-.87-.53-1-3.86-1.17-6.81,1.74-6.82,1.75Z"/>
      <path class="cls-4" d="M126.74,216.66c.67-.19,1.44.45,1.73,1.45.29.99-.02,1.95-.69,2.15-.67.19-1.44-.45-1.73-1.44-.29-.99.02-1.95.69-2.15Z"/>
    </g>
  </g>
  <g>
    <path class="cls-1" d="M317.63,458.72c-.21.16-.23.45-.06.64.17.19.48.21.68.05,12.97-12.54,22.99-24.66,26.43-42.19.92-4.67,2.96-9.36,3.62-14.51.35-2.72.68-31.13-.69-13.06-.5,6.64.38,8.95-1.36,16.14-.97,3.99-.88,5.38-2.49,9.35-1.74,4.28-1.24,8.92-3.84,14.81-4.93,11.18-13.25,20.32-22.3,28.78Z"/>
    <path class="cls-1" d="M348.2,377.57c6.21,12.6,1.2,25.77-3.44,12.82-1.09-3.05-.99-5.65-.87-8.78.11-1.31.37-7.38.85-8.03,1.1.1,2.91,3.15,3.46,3.99Z"/>
    <path class="cls-1" d="M336.4,392.54c-1.54,7.18-1.4,16.99,5.76,21.52,1.4.89,2.1.02,2.86-1.33,2.96-5.22-3.62-15.75-7.05-20.01l-.66-.82-.54-.16-.37.8Z"/>
    <path class="cls-1" d="M340.99,421.76c-1.54-3.6-7.17-15.58-10.35-17.26-3.55,4.07.55,18.77,7.3,21.92,4.62,2.16,3.99-2,3.06-4.66Z"/>
    <path class="cls-1" d="M333.83,439.88c5.36-1.95-.55-13.39-2.24-16.34-.37-.64-4.41-7.79-5.23-6.37-1.33,2.31-.28,12.25.6,15.06,1.18,3.78,2.76,6.43,6.88,7.65Z"/>
    <path class="cls-1" d="M319.38,428.72c-.84-.52-1.11,3.86-1.22,4.49-1.02,6.24-1.01,12.19,3.69,17.23.59.63,3.8,2.61,4.22.61,2.15-10.22-.18-13.88-6.38-21.93l-.32-.41Z"/>
    <path class="cls-1" d="M360.51,406.38c-1.38,4.79-8.34,20.2-15.45,17.19-8.07-3.41,12.9-17.83,15.45-17.92v.73Z"/>
    <path class="cls-1" d="M338.36,435.38c1.23-6.17,13.27-9.45,19.29-10.42,2.84-.46-15.42,20.95-19.29,10.42Z"/>
    <path class="cls-1" d="M348.92,444.5c-4.51,4.07-10.22,7.31-16.77,6-.89-.18-3.54-1.65-3.22-2.56.73-2.09,7.92-6.02,10.69-6.5.48-.08,12.57-.45,12.64-.44-.14.33-3.01,3.15-3.35,3.49Z"/>
    <path class="cls-1" d="M348.81,409.94c-6.68.76,1.83-12.27,3.42-14.33.4-.52,5.6-6.78,6.03-5.65.05-.06,1.42,12.52-5.56,17.96-1.4,1.09-2.25,1.38-3.89,2.01Z"/>
  </g>
  <g>
    <g>
      <path class="cls-38" d="M188.5,259.36h137.8c5.42,0,9.82,4.4,9.82,9.82v198.4c0,5.42-4.4,9.82-9.82,9.82h-137.8c-5.42,0-9.82-4.4-9.82-9.82v-198.4c0-5.42,4.4-9.82,9.82-9.82Z"/>
      <rect class="cls-49" x="188.8" y="273.38" width="137.2" height="190"/>
      <path class="cls-31" d="M226.77,279.99v-22.34c0-2.01,1.65-3.66,3.66-3.66h17.56c0-5.19,4.21-9.41,9.41-9.41s9.41,4.21,9.41,9.41h17.56c2.01,0,3.66,1.65,3.66,3.66v22.34h-61.25ZM257.4,249.79c-2.32,0-4.2,1.88-4.2,4.2s1.88,4.2,4.2,4.2,4.2-1.88,4.2-4.2-1.88-4.2-4.2-4.2Z"/>
      <path class="cls-19" d="M203.02,312.22h12.02c.37,0,.67.3.67.67v12.02c0,.37-.3.67-.67.67h-12.02c-.37,0-.67-.3-.67-.67v-12.02c0-.37.3-.67.67-.67h0ZM214.37,313.57h-10.68v10.68h10.68v-10.68Z"/>
      <path class="cls-19" d="M203.02,342.6h12.02c.37,0,.67.3.67.67v12.02c0,.37-.3.67-.67.67h-12.02c-.37,0-.67-.3-.67-.67v-12.02c0-.37.3-.67.67-.67h0ZM214.37,343.95h-10.68v10.68h10.68v-10.68Z"/>
      <path class="cls-19" d="M203.02,372.98h12.02c.37,0,.67.3.67.67v12.02c0,.37-.3.67-.67.67h-12.02c-.37,0-.67-.3-.67-.67v-12.02c0-.37.3-.67.67-.67h0ZM214.37,374.33h-10.68v10.68h10.68v-10.68Z"/>
      <path class="cls-19" d="M203.02,403.36h12.02c.37,0,.67.3.67.67v12.02c0,.37-.3.67-.67.67h-12.02c-.37,0-.67-.3-.67-.67v-12.02c0-.37.3-.67.67-.67h0ZM214.37,404.7h-10.68v10.68h10.68v-10.68Z"/>
      <path class="cls-19" d="M203.02,433.74h12.02c.37,0,.67.3.67.67v12.02c0,.37-.3.67-.67.67h-12.02c-.37,0-.67-.3-.67-.67v-12.02c0-.37.3-.67.67-.67h0ZM214.37,435.08h-10.68v10.68h10.68v-10.68Z"/>
      <rect class="cls-44" x="202.81" y="284.96" width="109.17" height="15.91"/>
      <rect class="cls-46" x="222.21" y="312.89" width="87.61" height="2.39"/>
      <rect class="cls-46" x="222.21" y="317.71" width="87.61" height="2.39"/>
      <rect class="cls-46" x="222.21" y="322.53" width="41.89" height="2.39"/>
      <rect class="cls-46" x="222.21" y="343.27" width="87.61" height="2.39"/>
      <rect class="cls-46" x="222.21" y="348.09" width="87.61" height="2.39"/>
      <rect class="cls-46" x="222.21" y="352.91" width="73.69" height="2.39"/>
      <rect class="cls-46" x="222.21" y="373.65" width="87.61" height="2.39"/>
      <rect class="cls-46" x="222.21" y="378.47" width="65.93" height="2.39"/>
      <rect class="cls-46" x="222.21" y="404.03" width="87.61" height="2.39"/>
      <rect class="cls-46" x="222.21" y="408.85" width="25.11" height="2.39"/>
      <rect class="cls-46" x="222.21" y="434.41" width="87.61" height="2.39"/>
      <rect class="cls-46" x="222.21" y="439.23" width="87.61" height="2.39"/>
      <rect class="cls-46" x="222.21" y="444.04" width="20.94" height="2.39"/>
      <path class="cls-21" d="M203.62,440.38c-.6-.63-.57-1.62.05-2.21.63-.6,1.62-.57,2.21.06l3.39,3.56,7.17-8.45c.56-.66,1.55-.74,2.21-.18.66.56.74,1.55.18,2.21l-8.3,9.78h0s-.08.08-.12.12c-.63.6-1.62.57-2.21-.06l-4.59-4.82Z"/>
      <path class="cls-21" d="M203.62,410.07c-.6-.63-.57-1.62.05-2.21.63-.59,1.62-.57,2.21.06l3.39,3.56,7.17-8.45c.56-.66,1.55-.74,2.21-.18.66.56.74,1.55.18,2.21l-8.3,9.78h0s-.08.08-.12.12c-.63.6-1.62.57-2.21-.05l-4.59-4.82Z"/>
      <path class="cls-21" d="M201.02,379.69c-.6-.63-.57-1.62.06-2.21.63-.6,1.62-.57,2.21.06l3.39,3.55,7.17-8.45c.56-.66,1.55-.74,2.21-.18.66.56.74,1.55.18,2.21l-8.3,9.78h0s-.07.08-.12.12c-.63.6-1.62.57-2.21-.06l-4.59-4.82Z"/>
      <path class="cls-21" d="M203.62,349.17c-.6-.63-.57-1.62.05-2.21.63-.6,1.62-.57,2.21.05l3.39,3.55,7.17-8.45c.56-.66,1.55-.74,2.21-.18.66.56.74,1.55.18,2.21l-8.3,9.78h0s-.08.08-.12.12c-.63.6-1.62.57-2.21-.06l-4.59-4.82Z"/>
      <path class="cls-21" d="M201.88,320.06c-.6-.63-.57-1.62.06-2.21.63-.6,1.62-.57,2.21.06l3.39,3.55,7.17-8.45c.56-.66,1.55-.74,2.21-.18.66.56.74,1.55.18,2.21l-8.3,9.78h0s-.07.08-.12.12c-.63.6-1.62.57-2.21-.06l-4.59-4.82Z"/>
    </g>
    <path class="cls-34" d="M231.63,276.43c-.28,0-.51-.23-.51-.5s.23-.51.51-.51h52.01v-16.25c0-.28.23-.51.51-.51s.51.23.51.51v16.75c0,.28-.23.5-.51.5h-52.52Z"/>
    <path class="cls-36" d="M231.99,257.06c-.28,0-.5-.23-.5-.51s.23-.5.5-.5h17.63c-.09-1.76-.03-7.17,4.02-8.98.25-.11.55,0,.67.25.11.25,0,.55-.25.67-4.02,1.8-3.44,8.01-3.39,8.48,0,.03,0,.06,0,.09,0,.28-.23.51-.5.51h-18.18Z"/>
  </g>
  <g>
    <path class="cls-8" d="M396.16,505.35c17.22-.13,34.85.55,52.06,1.49,7.64.4,40.63,1.81,45.59-4.82,4.95-6.62,1.68-17.27-3.78-21.61l-1.6-1.11-1.78-.83-1.91-.5c-11.43-1.75-35.48-.87-47.98-.86-87.52.11-174.81.02-262.32,1.29-17.28.22-152.28-1.98-156.36.33-11.8,9.51-10.61,24.53,4.03,26.88,10.82,1.73,24.2.5,35.26.27l1.57-.02,1.57-.02c18.21-.16,36.05-.87,54.28.3,25.37,1.72,47.48,3.7,73.06,2.6,21.02-.91,41.28-2.39,62.42-2.68,30.61-.42,61.19.1,91.87-.28,18.02-.23,36.04-.29,54.05-.43Z"/>
    <rect class="cls-42" x="33.68" y="482.54" width="437.8" height="1.08"/>
  </g>
  <g>
    <path class="cls-27" d="M400.53,205.43c11.88,8.08,2.85,23.64,8.32,29.59,2.22,2.42,1.79,8.52-.18,11.52-2.87,4.38-9.26,5.4-17.64,5.47-14.14.12-24.83-7.49-19.84-18.3,4.99-10.81,3.56-15.33,3.56-16.16s25.78-12.12,25.78-12.12Z"/>
    <path class="cls-9" d="M391.19,351.33c-.72,16.57-1.87,19.03-1.19,38.95,1.16,34.14,8.02,83.45,8.56,83.43l7.84-.24.47-67.49-3.33-12.83,1.9-24.24-14.26-17.58Z"/>
    <path class="cls-9" d="M366,351.33c-.72,16.57-1.87,19.03-1.19,38.95,1.16,34.14,5.18,83.33,5.71,83.43l7.6,1.43,3.56-69.15-3.33-12.83,1.9-24.24-14.26-17.58Z"/>
    <path class="cls-27" d="M406.71,469.31v8.1h-23.2l14.85-8.1h8.35Z"/>
    <path class="cls-27" d="M378.67,469.31v8.1h-23.2l14.85-8.1h8.35Z"/>
    <path class="cls-15" d="M363.4,392.08c47.35.95,42.95.95,42.95.95,0,0,4.22-67.72-1.26-75.33s-32.74-7.37-32.74-7.37c0,0-15.22,14.26-8.96,81.75Z"/>
    <path class="cls-9" d="M355.85,271.31l-9.33,14.12c-5.1-6.14-12.43-13.74-16.75-20.45,0,0,.6-5.67.51-6.48-.09-.82-.91-7.64-1.38-7.64-1.77,0-1.49,4.7-2.36,7.1-2.6-3.26-3.59-4.44-5-5.36-1.27-.83-1.1.56-.71,1.72.08.25-.79,1.96-.73,2.48.11.94-2.05-1.49-1.77-.53,3.58,12.22,21.92,43.9,30.17,45.5,6.03,1.17,16.94-25.41,16.94-25.41l-9.57-5.03Z"/>
    <path class="cls-17" d="M376.13,248.84c-7.24,3.74-17.16,14.36-21.36,21.95-4.2,7.59-8.06,11.44-8.06,11.44l-16.46-17.63-6.89,5.72s17.39,33.15,25.21,31.98c7.82-1.17,28.02-37.59,28.02-37.59l-.47-15.88Z"/>
    <path class="cls-11" d="M406.48,318.79c-12.35,1.71-25.74,2.07-39,.76-.3-.2.62-35.28.62-40.58,0-27.51,12.13-36.13,22.31-36.56,12.41-.53,14.41,12.54,13.21,45.09-.13,3.66,3.17,31.25,2.86,31.3Z"/>
    <path class="cls-17" d="M397.73,244.76c-2.16,7.92-7.58,21.26-8.1,47.26-1.02,50.69-10.78,72.97,26.82,59.48l-6.88-41.81,5.08-53.8s-8.75-8.75-16.93-11.12Z"/>
    <path class="cls-20" d="M416.38,347.85v-.33c-3.08.83-8.74,2.07-10.59,1.05-2.76-1.52-4.67-11.8-5.1-13.23,1.49-.18,8.36-.74,12.79-2.14v-.33c-4.72,1.52-13.01,2.18-13.04,2.18l-.2.02.05.17s2.21,11.88,5.31,13.59c1.94,1.07,7.64-.16,10.78-.99Z"/>
    <path class="cls-17" d="M381.11,245.6s-2.67,20.51-4.77,37.16c-3.13,24.8-1.61,51.41-4.63,64.55-1.62,7.08-2.78,7.73-16.05,4.88l7.01-46.5,1.52-48.91s8.75-8.81,16.93-11.19Z"/>
    <polygon class="cls-20" points="346.28 282.19 349.56 285.83 349.83 285.59 346.54 281.96 346.28 282.19"/>
    <polygon class="cls-20" points="346.38 282.48 349.64 282.44 349.64 282.09 346.37 282.13 346.38 282.48"/>
    <path class="cls-20" d="M400.9,246.59c.42.73,3.07,5.57,3.63,6.58l-8.9,2.85.11.34,9.31-2.98-.1-.19s-3.27-5.96-3.74-6.77l-.31.17Z"/>
    <polygon class="cls-20" points="398.82 255.5 403.76 260.79 390.15 293.37 390.47 293.5 404.17 260.71 399.08 255.26 398.82 255.5"/>
    <path class="cls-20" d="M375.24,248.47c-.55.63-4.38,5.17-4.39,5.18l-.14.16,7.52,4.19.17-.31-7.14-3.99c.69-.82,3.77-4.47,4.25-5.01l-.26-.23Z"/>
    <polygon class="cls-20" points="375.54 256.44 370.2 260.26 376.3 290.87 376.65 290.8 370.59 260.42 375.74 256.73 375.54 256.44"/>
    <path class="cls-20" d="M357.77,334.1c4.04.67,7.96,1.15,8.8,1.25-.12,1.34-1.11,11.39-3.55,12.91-.65.41-1.81.5-3.16.41-1.38-.09-2.97-.37-4.46-.69l-.08.31c1.5.33,3.11.61,4.52.7,1.43.09,2.66-.01,3.39-.47,2.75-1.72,3.71-13.26,3.71-13.29v-.15s-.15-.02-.15-.02c-.01,0-4.42-.51-8.95-1.27l-.06.31Z"/>
    <path class="cls-6" d="M396.35,228.69c-.44,3.71-1.17,11.11-1.93,15.7-1.77,10.64-13.39,11.68-10.03-1.39l.29-8.25s4.89-10.62,11.67-6.06Z"/>
    <path class="cls-35" d="M396.75,225.93c4.35-6.82,6.14.34,3.51,2.19-1.04.73-2.45.73-2.45.73,0,0-.44,5.67-7.22,9.5-6.78,3.83-13.26,1.18-13.55-9.13-.3-10.31-1.03-16.64-1.03-16.64l17.23-1.03s-.4,9.82,3.5,14.39Z"/>
    <path class="cls-27" d="M374.98,222.17c13.73-18.24,27.09.66,27.39-12.56.16-7.38-15.73-13.52-24.54-4.19-5.54,5.86-3.31,17.35-2.85,16.74Z"/>
    <path class="cls-33" d="M328.06,247.61v26.31c0,1.96-1.6,3.57-3.57,3.57s-3.57-1.6-3.57-3.57v-26.31c-.76,0-1.47-.28-1.47-1.18,0-.65.53-1.18,1.18-1.18h7.72c.65,0,1.18.53,1.18,1.18,0,.89-.69,1.18-1.47,1.18Z"/>
    <path class="cls-18" d="M326.03,257.24h-3.09v16.67c0,.85.7,1.55,1.54,1.55s1.55-.7,1.55-1.55v-16.67Z"/>
    <g>
      <path class="cls-9" d="M324.45,246.34c.74.37.54,1.9-.33,2.73l-.87.83s2.19.46,1.69,2.36c-.49,1.9-1.16,2.06-1.16,2.06,0,0,.91.99.83,2.31-.08,1.32-.83,1.74-.83,1.74,0,0,1.16.99.41,2.4-.74,1.4-3.38,4.76-3.38,4.76,0,0-.87-.67-1.92-4.73-.3-1.15-.79-1.95-.97-3.85-.07-.75-1.24-1.53-1.08-2.35.36-1.83,5.64-9.23,7.61-8.24Z"/>
      <path class="cls-3" d="M323.15,249.69c.05-.05.13-.06.18-.02.06.05.06.13.02.18-.97,1.16-3.22,3.94-3.98,5.18-.04.06-.12.08-.18.04-.06-.04-.08-.12-.04-.18.77-1.25,3.02-4.04,4-5.21Z"/>
      <path class="cls-3" d="M323.93,254.03c.05-.06.13-.06.18-.02.06.05.06.13.02.18-.91,1.08-2.95,3.28-3.57,4.29-.04.06-.12.08-.18.04-.06-.04-.08-.12-.04-.18.62-1.01,2.68-3.23,3.59-4.32Z"/>
      <path class="cls-3" d="M323.86,258.01c.05-.06.13-.06.18-.02.06.05.06.13.02.18-1.51,1.8-1.75,1.77-3,3.81-.04.06-.12.08-.18.04-.06-.04-.08-.12-.04-.18,1.26-2.04,1.5-2.03,3.02-3.84Z"/>
    </g>
    <path class="cls-13" d="M381.23,281.66v14.63l8.02,13.52c2.1,3.54,1.15,4.37-.15,4.37-2.49,0-13.55-.15-20.48-.15-1.35,0-1.88-1.06.09-4.37l7.93-13.36v-14.62s-.59-.01-.59-.01c-.64-.09-.57-1.05.07-1.05h5.34c.85,0,.79.94.16,1.05,0,0-.39,0-.4,0Z"/>
    <path class="cls-22" d="M374.89,303.17l-4.5,7.58c-.15.25-.4.74-.64,1.26,6.15.01,12.31.14,18.46.15-.23-.51-.54-1.07-.69-1.32l-4.7-7.92-7.93.25Z"/>
    <path class="cls-9" d="M408.65,277.25l.42,27.6c-7.31-3.2-15.23-7.18-22.1-11.25,0,0-1.48-4.03-1.93-4.72-.45-.69-3.01-5.06-3.01-5.06-1.45-.13-.88,3.72-.58,6.26-5.68-2.62-9.23-3.76-10.15-3.56-.62.13,1.16,2.28,1.38,3.3.31,1.4.12,3.2,1.36,4.53,8.68,9.31,36.03,26.47,44.11,24.21,5.91-1.66,2.95-33.92,2.95-33.92l-12.45-7.38Z"/>
    <path class="cls-17" d="M408.11,251.3c4.67,3.15,10.27,5.02,12.72,17.86,2.45,12.84,1.99,41.67.35,47.51-1.63,5.84-6.89,4.2-12.14,1.75-5.25-2.45-25.1-14.94-25.1-14.94l3.39-9.45,20.89,8.87-.12-51.6Z"/>
    <path class="cls-20" d="M387.62,294.3l20.91,8.41h.02s4.12.7,5.44,1.33l.15-.32c-1.31-.63-5.19-1.3-5.51-1.35l-20.88-8.4-.13.33Z"/>
    <polygon class="cls-20" points="408.76 302.71 413.31 300.9 413.18 300.57 408.63 302.38 408.76 302.71"/>
    <path class="cls-20" d="M407.06,269.33c0,2.45,1.75,33.07,1.75,33.16l.35-.02c0-.09-1.75-30.69-1.75-33.14h-.35Z"/>
    <polygon class="cls-20" points="409.66 318.44 389.58 306.65 389.4 306.95 409.48 318.74 409.66 318.44"/>
    <g>
      <path class="cls-10" d="M385.03,229.38c-1.61.5-4.09-.84-4.09-.84,0,0-.23,2.09,1.96,2.5,2.19.41,2.13-1.66,2.13-1.66Z"/>
      <path class="cls-4" d="M382.36,229.63c.22.08.33.32.24.54-.08.22-.32.33-.54.25l-.06-.02c-.28-.12-.69-.39-1-.72-.37-.39-.61-.87-.45-1.33l.03-.07c.12-.29.35-.51.64-.79.4-.4.94-.93,1.38-1.88.1-.21.34-.3.55-.21.21.1.3.34.21.56-.5,1.09-1.1,1.69-1.55,2.13-.22.22-.39.39-.46.52v.03c-.04.1.09.29.26.47.23.24.52.44.71.52h.04Z"/>
      <path class="cls-4" d="M379.86,219.57c-.17.11-.43.06-.58-.1-.15-.16-.13-.37.05-.48.12-.07.24-.13.37-.17h.03c.5-.18,1.12-.18,1.72.01.61.2,1.19.6,1.59,1.25.11.18.21.39.29.6.07.19-.06.37-.28.4-.22.03-.45-.09-.51-.28-.06-.18-.14-.33-.22-.47-.28-.45-.67-.73-1.08-.86-.39-.13-.8-.12-1.12-.02h-.03c-.08.04-.16.07-.23.11Z"/>
      <path class="cls-4" d="M394.17,223.84c.09.17.03.43-.12.58-.15.14-.35.12-.44-.05-.39-.76-.88-1.45-1.53-1.81-.64-.35-1.45-.38-2.47.16-.17.09-.35,0-.39-.21-.04-.21.07-.45.24-.54,1.22-.64,2.18-.6,2.96-.17.76.42,1.33,1.2,1.76,2.05Z"/>
      <path class="cls-4" d="M390.6,224.1c-.67-.19-1.44.45-1.73,1.44-.29.99.02,1.95.69,2.15.67.19,1.44-.45,1.73-1.44.29-.99-.02-1.95-.69-2.15Z"/>
      <path class="cls-4" d="M380.24,234.06c-.34-.24-.36-.64-.02-.89.33-.25.88-.26,1.23-.02,0,0,2.5,1.79,5.7,1.08.46-.1.94.09,1.08.42.14.33-.12.69-.58.79-4.19.92-7.4-1.38-7.41-1.38Z"/>
      <path class="cls-4" d="M380.63,221.21c-.67-.19-1.44.45-1.73,1.45-.29.99.02,1.95.69,2.15.67.19,1.44-.45,1.73-1.44.29-.99-.02-1.95-.69-2.15Z"/>
    </g>
  </g>
</svg>