<?xml version="1.0" encoding="UTF-8"?>
<svg xmlns="http://www.w3.org/2000/svg" viewBox="0 0 668 512">
  <defs>
    <style>
      .cls-1 {
        fill: #b52126;
      }

      .cls-2 {
        fill: #bc8e44;
      }

      .cls-3, .cls-4 {
        fill: #a0b4e0;
      }

      .cls-5 {
        fill: #efeeda;
      }

      .cls-6 {
        fill: #ddb260;
      }

      .cls-7 {
        fill: #d8cfbf;
      }

      .cls-8 {
        fill: #208bb5;
      }

      .cls-9 {
        fill: #7ea885;
      }

      .cls-10 {
        fill: #d8778e;
      }

      .cls-11 {
        fill: #82121b;
      }

      .cls-12 {
        fill: #fff;
      }

      .cls-13, .cls-14, .cls-15 {
        fill: none;
      }

      .cls-13, .cls-14, .cls-15, .cls-16, .cls-17 {
        stroke-miterlimit: 10;
      }

      .cls-13, .cls-17 {
        stroke: #fff;
      }

      .cls-18 {
        fill: #e0ada6;
      }

      .cls-14 {
        stroke: #208bb5;
      }

      .cls-19 {
        fill: #d3d1ba;
      }

      .cls-20, .cls-4 {
        opacity: .42;
      }

      .cls-20, .cls-21 {
        fill: #fcfbf5;
      }

      .cls-15 {
        stroke: #1e798e;
      }

      .cls-22 {
        fill: #231f20;
      }

      .cls-23 {
        fill: #0f5970;
      }

      .cls-24 {
        isolation: isolate;
      }

      .cls-25 {
        fill: #9ab3e5;
      }

      .cls-26 {
        fill: #939393;
      }

      .cls-27 {
        fill: #f7f5e8;
      }

      .cls-27, .cls-4 {
        mix-blend-mode: multiply;
      }

      .cls-28 {
        fill: #91364a;
      }

      .cls-29 {
        fill: #efbf7f;
      }

      .cls-30 {
        fill: #b14a5d;
      }

      .cls-31 {
        fill: #59825e;
      }

      .cls-16 {
        stroke: #0f5970;
      }

      .cls-16, .cls-32 {
        fill: #9eb2dd;
      }

      .cls-33 {
        fill: #cb8c84;
      }

      .cls-34 {
        fill: #869cc4;
      }

      .cls-34, .cls-32 {
        opacity: .24;
      }

      .cls-35 {
        fill: #66758e;
      }

      .cls-36 {
        fill: #c6c6c6;
      }

      .cls-37 {
        fill: #252a26;
      }

      .cls-38 {
        fill: #ede6d8;
      }

      .cls-39 {
        fill: #e0dbc1;
      }

      .cls-40 {
        fill: rgba(200, 34, 87, .75);
      }

      .cls-41 {
        fill: #7ddef4;
      }

      .cls-21 {
        opacity: .43;
      }

      .cls-17 {
        fill: rgba(186, 202, 232, .75);
      }

      .cls-42 {
        fill: #48a7b7;
      }
    </style>
  </defs>
  <g class="cls-24">
    <g id="Layer_11" data-name="Layer 11">
      <path class="cls-25" d="M659.85,502.38c5.68,0,10.29-4.6,10.29-10.29s-4.61-10.29-10.29-10.29H17c-5.68,0-10.29,4.61-10.29,10.29s4.61,10.29,10.29,10.29h642.86Z"/>
      <g>
        <path class="cls-32" d="M120.57,312.71c-40.42-19.24-82.6-3.85-108.96,40.4-26.36,44.25,8.79,105.8,75.57,128.89,66.78,23.08,391.9,13.47,458.68,5.77,66.78-7.69,98.41-25.01,115.99-86.57,17.57-61.56-38.19-95.79-75.47-109.1-47.09-16.82,11.77-48.77,17.47-100.58,5.45-49.5-33.39-136.58-133.56-96.19-44.4,17.91-66.78,1.92-121.26-30.78-54.48-32.7-149.45-17.99-183.09,61.05-28.21,66.29,41.47,132.18,37,166.49-5.05,38.68-41.95,39.85-82.38,20.61Z"/>
        <path class="cls-32" d="M151.49,92.55c9.65-19.3,30.49-45.32,52.53-54.14,18.76-7.5,45.03-14.47,16.62-15.54-28.41-1.07-50.92,10.18-69.15,38.06-18.22,27.87-9.65,50.92,0,31.63Z"/>
        <path class="cls-34" d="M155.85,342.13c-63.07-1.26-89.55-15.14-95.86,36.58-6.31,51.71,29.01,79.46,85.77,81.98,56.76,2.52,128.65-42.88,195.5-16.4,66.85,26.49,114.78,50.45,182.89,21.44,68.11-29.01,89.55-56.76,61.8-103.43-27.75-46.67-88.29-29.01-79.46-75.68,8.83-46.67,41.62-25.23,52.97-74.42,11.35-49.19-8.83-88.29-49.19-95.86-34.91-6.55-93.34,3.78-186.67-32.79-57.84-22.67-87.03,5.05-107.21,37.84-20.18,32.79-12.61,58.02,13.87,108.47,26.49,50.45,31.53,63.07,11.35,90.81-20.18,27.75-22.7,22.7-85.77,21.44Z"/>
        <path class="cls-32" d="M591.42,98.14c19.06,20.18,16.82,44.29,24.1,49.89,7.29,5.61,15.14-14.58,7.85-37.56-7.29-22.98-26.35-42.04-52.13-44.85-17.5-1.9-19.62,2.8-17.38,8.97,2.24,6.17,18.5,3.36,37.56,23.54Z"/>
        <path class="cls-32" d="M29.72,315.09c13.45-12.33,40.03-26.45,64.47-21.3,10.65,2.24,20.74-.56,8.41-8.97-12.33-8.41-40.92-14.58-66.15,2.24-25.23,16.82-20.18,40.36-6.73,28.03Z"/>
      </g>
      <g id="Capsule">
        <path class="cls-1" d="M469.88,79.64c5.85,2.83,12.88.38,15.71-5.46l14.18-29.33c1.41-2.92,1.51-6.14.52-8.98-.99-2.84-3.06-5.31-5.99-6.72-1.12-.54-2.27-.89-3.44-1.05-4.93-.73-9.98,1.78-12.27,6.51l-14.18,29.33c-1.85,3.82-1.44,8.14.69,11.46,1.13,1.77,2.75,3.26,4.79,4.24Z"/>
        <path class="cls-11" d="M465.1,75.4c1.13,1.77,2.75,3.26,4.79,4.24,5.85,2.83,12.88.38,15.71-5.46l14.18-29.33c1.41-2.92,1.51-6.14.52-8.98-.99-2.84-3.06-5.31-5.99-6.72-1.12-.54-2.27-.89-3.44-1.05,3.51,2.42,6.06,6.33,6.01,11.53-.07,7.61-12.78,31.01-15.81,34.36-2.58,2.85-10.05,4.48-15.96,1.41Z"/>
        <path class="cls-6" d="M500.29,35.86c-.99-2.84-3.06-5.31-5.99-6.72-.17-.08-.34-.16-.51-.23-.13-.05-.26-.11-.39-.16-.12-.05-.24-.09-.37-.14-.14-.05-.28-.1-.42-.14-.43-.13-.87-.24-1.31-.31-.14-.03-.29-.05-.43-.07-4.93-.73-9.98,1.78-12.27,6.51l-7.01,14.5,21.18,10.24,7.01-14.5c1.41-2.92,1.51-6.14.52-8.98Z"/>
        <path class="cls-2" d="M492.76,59.35l7.01-14.5c1.41-2.92,1.51-6.14.52-8.98-.99-2.84-3.06-5.31-5.99-6.72-.17-.08-.34-.16-.51-.23-.13-.05-.26-.11-.39-.16-.12-.05-.24-.09-.37-.14-.14-.05-.28-.1-.42-.14-.44-.13-.87-.23-1.31-.31-.14-.03-.29-.05-.43-.07,3.51,2.42,6.06,6.33,6.01,11.53-.03,3.75-3.15,11.35-6.66,18.49l2.55,1.23Z"/>
        <path class="cls-29" d="M488.75,38.11c2.7-3.52,3.39-7.01.62-7.94-3.45-1.17-5.57,1.13-7.87,4.64-2.3,3.51-4.65,9.61-3.1,10.16,1.55.55,7.64-3.34,10.35-6.86Z"/>
      </g>
      <g id="Capsule-2" data-name="Capsule">
        <path class="cls-1" d="M235.59,450.77l19.57-18.57c1.95-1.85,2.97-4.31,3.03-6.81.07-2.49-.82-5.01-2.67-6.96-.71-.75-1.5-1.35-2.36-1.82-3.61-2.01-8.25-1.55-11.41,1.45l-19.57,18.57c-2.55,2.42-3.5,5.88-2.82,9.08.36,1.7,1.18,3.33,2.46,4.69,3.7,3.9,9.86,4.07,13.77.37Z"/>
        <path class="cls-11" d="M232.14,449.3c-2.83,1.45-9.1.53-12.78-3.58.36,1.7,1.18,3.33,2.46,4.69,3.7,3.9,9.86,4.07,13.77.37l19.57-18.57c1.95-1.85,2.97-4.31,3.03-6.81.07-2.49-.82-5.01-2.67-6.96-.71-.75-1.5-1.35-2.36-1.82,2.01,2.9,2.84,6.68,1.28,10.69-2.28,5.87-18.98,20.27-22.3,21.99Z"/>
        <path class="cls-6" d="M258.19,425.4c.07-2.49-.82-5.01-2.67-6.96-.11-.11-.22-.22-.33-.33-.08-.08-.17-.16-.26-.24-.08-.08-.16-.14-.25-.21-.09-.08-.19-.16-.29-.23-.29-.23-.6-.44-.92-.63-.1-.06-.21-.12-.32-.18-3.61-2.01-8.25-1.55-11.41,1.45l-9.68,9.18,13.41,14.13,9.68-9.18c1.95-1.85,2.97-4.31,3.03-6.81Z"/>
        <path class="cls-2" d="M243.87,439.68l1.61,1.7,9.68-9.18c1.95-1.85,2.97-4.31,3.03-6.81.07-2.49-.82-5.01-2.67-6.96-.11-.11-.22-.22-.33-.33-.08-.08-.17-.16-.26-.24-.08-.08-.16-.14-.25-.21-.09-.08-.19-.16-.29-.23-.3-.23-.61-.44-.92-.63-.1-.06-.21-.12-.32-.18,2.01,2.9,2.84,6.68,1.28,10.69-1.12,2.9-5.76,7.87-10.57,12.37Z"/>
        <path class="cls-29" d="M248.6,423.77c3.12-1.93,4.67-4.43,2.81-5.97-2.33-1.91-4.64-.76-7.45,1.29-2.81,2.05-6.41,6.08-5.38,6.96,1.04.88,6.9-.35,10.02-2.28Z"/>
      </g>
      <g>
        <path class="cls-10" d="M295.65,130.25c-31.96-2.2-51.79-27.55-51.79-27.55l-14.33,6.61s25.35,120.12,31.96,160.9c6.61,40.78,8.82,71.63,4.41,95.88-4.41,24.24-19.84,71.63-19.84,71.63l16.53,3.31s58.41-48.49,98.08-37.47c39.67,11.02,80.45,59.51,80.45,59.51h12.13s1.1-100.29,9.92-130.04,13.22-68.33,6.61-119.02c-6.61-50.69-45.18-157.59-45.18-157.59l-13.22,3.31s7.71,26.45-13.23,50.69c-20.94,24.24-70.53,22.04-102.49,19.84Z"/>
        <path class="cls-30" d="M295.4,432.75c45.67-7.16,86.8,3.81,113.63,14.51,20.04,7.98,32.09,15.81,32.09,15.81,0,0,4.41-116.82,12.13-139.96,7.71-23.15,11.02-70.53,1.1-126.74-9.92-56.2-42.98-136.65-42.98-136.65,0,0-6.27,11.85-22.7,26.68-4.23,3.81-9.13,7.83-14.77,11.89-19.64,14.14-60.55,18.76-94.4,14.26-13.64-1.81-26.14-5.1-35.64-9.85,15.43,69.43,25.34,147.67,30.86,173.02,5.51,25.35,15.42,106.9-12.13,165.31,11.1-3.92,22.08-6.6,32.81-8.28Z"/>
        <path class="cls-28" d="M409.03,447.26c6.74-33.08,19.17-99.36,19.97-141.79.99-52.49-19.38-162.86-40.33-219.07-4.23,3.81-9.13,7.83-14.77,11.89-19.64,14.14-60.55,18.76-94.4,14.26,9.64,42.17,14.74,98.54,18.36,135.62,4.11,42.11,10.13,107.21-2.46,184.58,45.67-7.16,86.8,3.81,113.63,14.51Z"/>
        <g>
          <path class="cls-5" d="M305.44,245.78c4.8,8.47,13.93,14.4,25.48,16.71,22.04,4.41,13.22-22.04,42.98-14.32,29.75,7.71,41.88,6.61,51.79-15.43,9.92-22.04-17.63-41.88-36.36-60.61-18.74-18.74-19.84-94.78-19.84-94.78,0,0-8.81-2.73-22.44-1.98-12.33.68-28.61,4.21-45.89,15.21,0,0,14.33,40.77,15.43,72.73,1.1,31.96-3.3,30.86-12.12,54-4.2,11.01-3.4,20.78.97,28.47Z"/>
          <path class="cls-19" d="M384.92,231.64c-15.43-2.21-29.2-10.54-40.78,2.2-13.39,14.74-26.79,19.3-38.7,11.94,4.8,8.47,13.93,14.4,25.48,16.71,22.04,4.41,13.22-22.04,42.98-14.32,29.75,7.71,41.88,6.61,51.79-15.43,9.92-22.04-17.63-41.88-36.36-60.61-18.74-18.74-19.84-94.78-19.84-94.78,0,0-8.81-2.73-22.44-1.98.53,11.24,1.88,26.66,4.81,47.17,7.71,54,38.57,76.04,47.39,84.85,8.81,8.82,1.1,26.45-14.33,24.25Z"/>
          <path class="cls-12" d="M333.12,222.83c9.92-8.82,8.82-24.24,7.71-39.67-1.1-15.43-4.41-56.2-7.71-73.84-3.31-17.63-8.97-26.29-18.73-16.53-8.82,8.82,5.51,31.96,9.92,56.2,4.41,24.24-1.1,45.18-5.51,60.61-4.41,15.43,4.41,22.04,14.33,13.22Z"/>
          <path class="cls-5" d="M432.31,306.58c2.2-23.15,1.1-26.45-9.92-35.27-8.31-6.65-13.91-9.73-19.22-10.22-6.02-.55-11.66,2.23-20.45,6.91-16.54,8.82-24.25,8.82-40.78,4.41s-26.45,2.21-31.96,17.64c-5.51,15.42-3.31,26.44,14.33,41.87,17.63,15.43,19.83,25.35,12.12,51.8s-17.63,59.51-17.63,59.51c0,0,17.55,16.79,48.86,15.42,6.3-.26,13.17-1.27,20.57-3.3-1.11-57.3-5.51-91.47,7.71-103.59s34.16-22.04,36.37-45.18Z"/>
          <path class="cls-19" d="M384.92,338.54c-16.53,9.91-16.53,33.06-17.63,60.61-.66,16.36-.15,41.65.37,59.5,6.3-.26,13.17-1.27,20.57-3.3-1.11-57.3-5.51-91.47,7.71-103.59s34.16-22.04,36.37-45.18c2.2-23.15,1.1-26.45-9.92-35.27-8.31-6.65-13.91-9.73-19.22-10.22,10.71,8.46,17.42,20.18,15.91,34.47-2.2,20.93-17.63,33.06-34.16,42.98Z"/>
          <path class="cls-12" d="M352.96,319.81c13.22-3.31,33.06-12.12,31.96-27.55-1.1-15.43-9.92-9.92-19.84-5.51-9.92,4.41-15.43-5.51-24.24-4.41-13.17,1.65-17.63,8.82-17.63,18.73s16.53,22.04,29.76,18.73Z"/>
        </g>
      </g>
      <g>
        <rect class="cls-35" x="561.12" y="129.98" width="32.73" height="4.21" transform="translate(76.94 448.92) rotate(-45.22)"/>
        <rect class="cls-35" x="621.5" y="115.05" width="4.78" height="63.18" transform="translate(33.86 396.85) rotate(-36.21)"/>
        <rect class="cls-35" x="600.03" y="109.66" width="30.81" height="3.95" transform="translate(-9.69 132.59) rotate(-12.2)"/>
        <rect class="cls-35" x="584.54" y="73.85" width="4.24" height="37.99" transform="translate(-2.11 171.17) rotate(-16.57)"/>
        <g>
          <path class="cls-39" d="M647.29,113.7c3.55-5.5,1.96-12.84-3.54-16.39-5.5-3.55-12.84-1.96-16.39,3.54-3.55,5.5-1.96,12.84,3.54,16.39,5.5,3.55,12.84,1.96,16.39-3.54Z"/>
          <path class="cls-27" d="M647.29,113.7c3.54-5.5,1.96-12.84-3.54-16.39-5.5-3.54-12.84-1.96-16.39,3.54-.09.14-.17.28-.26.42,3.88-3.63,9.86-4.31,14.53-1.3,5.37,3.46,7.01,10.52,3.8,15.97.7-.65,1.32-1.4,1.86-2.23Z"/>
          <path class="cls-21" d="M638.07,113.87c1.42-2.21.79-5.15-1.42-6.57s-5.15-.79-6.57,1.42-.79,5.15,1.42,6.57,5.15.79,6.57-1.42Z"/>
        </g>
        <g>
          <path class="cls-39" d="M573.92,153.58c3.55-5.5,1.96-12.84-3.54-16.39-5.5-3.55-12.84-1.96-16.39,3.54-3.55,5.5-1.96,12.84,3.54,16.39,5.5,3.55,12.84,1.96,16.39-3.54Z"/>
          <path class="cls-27" d="M573.92,153.58c3.54-5.5,1.96-12.84-3.54-16.39-5.5-3.54-12.84-1.96-16.39,3.54-.09.14-.17.28-.26.42,3.88-3.63,9.86-4.31,14.53-1.3,5.37,3.46,7.01,10.52,3.8,15.97.7-.65,1.32-1.4,1.86-2.23Z"/>
          <path class="cls-21" d="M564.7,153.75c1.42-2.21.79-5.15-1.42-6.57-2.21-1.42-5.15-.79-6.57,1.42s-.79,5.15,1.42,6.57,5.15.79,6.57-1.42Z"/>
        </g>
        <g>
          <path class="cls-3" d="M646.61,173.91c4.8-7.44,2.65-17.36-4.79-22.16-7.44-4.8-17.36-2.65-22.16,4.79-4.8,7.44-2.65,17.36,4.79,22.16,7.44,4.8,17.36,2.65,22.16-4.79Z"/>
          <path class="cls-4" d="M646.62,173.91c4.79-7.44,2.64-17.36-4.79-22.16-7.44-4.79-17.36-2.64-22.16,4.79-.12.18-.23.38-.35.57,5.25-4.91,13.33-5.83,19.64-1.76,7.26,4.67,9.48,14.22,5.14,21.59.94-.88,1.79-1.89,2.52-3.02Z"/>
          <path class="cls-21" d="M634.15,174.14c1.92-2.98,1.06-6.96-1.92-8.88-2.98-1.92-6.96-1.06-8.88,1.92-1.92,2.98-1.06,6.96,1.92,8.88,2.98,1.92,6.96,1.06,8.88-1.92Z"/>
        </g>
        <g>
          <path class="cls-10" d="M590.09,79.51c3.55-5.5,1.96-12.84-3.54-16.39-5.5-3.55-12.84-1.96-16.39,3.54-3.55,5.5-1.96,12.84,3.54,16.39,5.5,3.55,12.84,1.96,16.39-3.54Z"/>
          <path class="cls-27" d="M590.09,79.51c3.54-5.5,1.96-12.84-3.54-16.39-5.5-3.54-12.84-1.96-16.39,3.54-.09.14-.17.28-.26.42,3.88-3.63,9.86-4.31,14.53-1.3,5.37,3.46,7.01,10.52,3.8,15.97.7-.65,1.32-1.4,1.86-2.23Z"/>
          <path class="cls-20" d="M580.87,79.68c1.42-2.21.79-5.15-1.42-6.57s-5.15-.79-6.57,1.42c-1.42,2.21-.79,5.15,1.42,6.57,2.21,1.42,5.15.79,6.57-1.42Z"/>
        </g>
        <g>
          <circle class="cls-39" cx="596.23" cy="114.62" r="19.84" transform="translate(41.05 360.39) rotate(-34.76)"/>
          <path class="cls-27" d="M612.91,125.37c5.93-9.21,3.27-21.49-5.93-27.43-9.21-5.93-21.49-3.27-27.43,5.93-.15.23-.29.47-.43.7,6.49-6.07,16.5-7.22,24.31-2.18,8.98,5.78,11.73,17.6,6.36,26.72,1.16-1.09,2.22-2.34,3.11-3.74Z"/>
          <path class="cls-21" d="M597.48,125.65c2.38-3.69,1.32-8.61-2.38-10.99s-8.61-1.32-10.99,2.38c-2.38,3.69-1.31,8.61,2.38,10.99,3.69,2.38,8.61,1.32,10.99-2.38Z"/>
        </g>
      </g>
      <g>
        <rect class="cls-35" x="20.14" y="83.48" width="32.73" height="4.21" transform="translate(-49.95 51.21) rotate(-45.22)"/>
        <rect class="cls-35" x="80.52" y="68.55" width="4.78" height="63.18" transform="translate(-43.14 68.31) rotate(-36.21)"/>
        <rect class="cls-35" x="59.05" y="63.16" width="30.81" height="3.95" transform="translate(-12.08 17.21) rotate(-12.2)"/>
        <rect class="cls-35" x="43.57" y="27.35" width="4.24" height="37.99" transform="translate(-11.32 14.95) rotate(-16.57)"/>
        <g>
          <path class="cls-39" d="M106.31,67.2c3.55-5.5,1.96-12.84-3.54-16.39-5.5-3.55-12.84-1.96-16.39,3.54-3.55,5.5-1.96,12.84,3.54,16.39,5.5,3.55,12.84,1.96,16.39-3.54Z"/>
          <path class="cls-27" d="M106.31,67.2c3.54-5.5,1.96-12.84-3.54-16.39-5.5-3.54-12.84-1.96-16.39,3.54-.09.14-.17.28-.26.42,3.88-3.63,9.86-4.31,14.53-1.3,5.37,3.46,7.01,10.52,3.8,15.97.7-.65,1.32-1.4,1.86-2.23Z"/>
          <path class="cls-21" d="M97.09,67.37c1.42-2.21.79-5.15-1.42-6.57s-5.15-.79-6.57,1.42-.79,5.15,1.42,6.57,5.15.79,6.57-1.42Z"/>
        </g>
        <g>
          <path class="cls-39" d="M32.94,107.08c3.55-5.5,1.96-12.84-3.54-16.39-5.5-3.55-12.84-1.96-16.39,3.54-3.55,5.5-1.96,12.84,3.54,16.39,5.5,3.55,12.84,1.96,16.39-3.54Z"/>
          <path class="cls-27" d="M32.95,107.08c3.54-5.5,1.96-12.84-3.54-16.39-5.5-3.54-12.84-1.96-16.39,3.54-.09.14-.17.28-.26.42,3.88-3.63,9.86-4.31,14.53-1.3,5.37,3.46,7.01,10.52,3.8,15.97.7-.65,1.32-1.4,1.86-2.23Z"/>
          <path class="cls-21" d="M23.72,107.24c1.42-2.21.79-5.15-1.42-6.57-2.21-1.42-5.15-.79-6.57,1.42s-.79,5.15,1.42,6.57,5.15.79,6.57-1.42Z"/>
        </g>
        <g>
          <path class="cls-3" d="M105.64,127.41c4.8-7.44,2.65-17.36-4.79-22.16-7.44-4.8-17.36-2.65-22.16,4.79-4.8,7.44-2.65,17.36,4.79,22.16,7.44,4.8,17.36,2.65,22.16-4.79Z"/>
          <path class="cls-4" d="M105.64,127.41c4.79-7.44,2.64-17.36-4.79-22.16-7.44-4.79-17.36-2.64-22.16,4.79-.12.18-.23.38-.35.57,5.25-4.91,13.33-5.83,19.64-1.76,7.26,4.67,9.48,14.22,5.14,21.59.94-.88,1.79-1.89,2.52-3.02Z"/>
          <path class="cls-21" d="M93.17,127.64c1.92-2.98,1.06-6.96-1.92-8.88-2.98-1.92-6.96-1.06-8.88,1.92-1.92,2.98-1.06,6.96,1.92,8.88,2.98,1.92,6.96,1.06,8.88-1.92Z"/>
        </g>
        <g>
          <path class="cls-10" d="M49.12,33.01c3.55-5.5,1.96-12.84-3.54-16.39-5.5-3.55-12.84-1.96-16.39,3.54-3.55,5.5-1.96,12.84,3.54,16.39,5.5,3.55,12.84,1.96,16.39-3.54Z"/>
          <path class="cls-27" d="M49.12,33.01c3.54-5.5,1.96-12.84-3.54-16.39-5.5-3.54-12.84-1.96-16.39,3.54-.09.14-.17.28-.26.42,3.88-3.63,9.86-4.31,14.53-1.3,5.37,3.46,7.01,10.52,3.8,15.97.7-.65,1.32-1.4,1.86-2.23Z"/>
          <path class="cls-20" d="M39.89,33.18c1.42-2.21.79-5.15-1.42-6.57s-5.15-.79-6.57,1.42c-1.42,2.21-.79,5.15,1.42,6.57,2.21,1.42,5.15.79,6.57-1.42Z"/>
        </g>
        <g>
          <circle class="cls-39" cx="55.26" cy="68.12" r="19.84" transform="translate(-28.97 43.66) rotate(-34.76)"/>
          <path class="cls-27" d="M71.93,78.86c5.93-9.21,3.27-21.49-5.93-27.43-9.21-5.93-21.49-3.27-27.43,5.93-.15.23-.29.47-.43.7,6.49-6.07,16.5-7.22,24.31-2.18,8.98,5.78,11.73,17.6,6.36,26.72,1.16-1.09,2.22-2.34,3.11-3.74Z"/>
          <path class="cls-21" d="M56.5,79.14c2.38-3.69,1.32-8.61-2.38-10.99s-8.61-1.32-10.99,2.38c-2.38,3.69-1.31,8.61,2.38,10.99,3.69,2.38,8.61,1.32,10.99-2.38Z"/>
        </g>
      </g>
      <g id="Capsule-3" data-name="Capsule">
        <path class="cls-9" d="M117.05,247.78c1.98.31,3.91-.22,5.41-1.32,1.5-1.1,2.59-2.77,2.89-4.76.12-.76.11-1.51,0-2.23-.46-3.05-2.86-5.59-6.08-6.08l-19.93-3.09c-2.59-.4-5.08.62-6.66,2.48-.84.99-1.43,2.22-1.65,3.6-.62,3.97,2.1,7.7,6.08,8.31l19.93,3.09Z"/>
        <path class="cls-31" d="M91.04,236.38c-.62,3.97,2.1,7.7,6.08,8.31l19.93,3.09c1.98.31,3.91-.22,5.41-1.32,1.5-1.1,2.59-2.77,2.89-4.76.12-.76.11-1.51,0-2.23-.8,2.52-2.65,4.73-5.74,5.65-4.52,1.34-20.67-1.96-23.21-3.14-2.15-1.01-4.47-5.14-3.72-9.2-.84.99-1.43,2.22-1.65,3.6Z"/>
        <path class="cls-38" d="M122.47,246.46c1.5-1.1,2.59-2.77,2.89-4.76.02-.11.03-.23.04-.34,0-.09.02-.17.02-.26,0-.08.01-.16.01-.24,0-.09,0-.18,0-.28,0-.28-.02-.56-.05-.83,0-.09-.02-.18-.04-.27-.46-3.05-2.86-5.59-6.08-6.08l-9.86-1.53-2.23,14.39,9.86,1.53c1.98.31,3.91-.22,5.41-1.32Z"/>
        <path class="cls-7" d="M122.47,246.46c1.5-1.1,2.59-2.77,2.89-4.76.02-.11.03-.23.04-.34,0-.09.02-.17.02-.26,0-.08.01-.16.01-.24,0-.09,0-.18,0-.28,0-.28-.02-.56-.05-.83,0-.09-.02-.18-.04-.27-.8,2.52-2.65,4.73-5.74,5.65-2.23.66-7.29.19-12.15-.59l-.27,1.73,9.86,1.53c1.98.31,3.91-.22,5.41-1.32Z"/>
        <path class="cls-12" d="M123.86,238.97c.07-2.25-1.67-3.09-4.17-3.82-2.49-.73-6.53-1.01-6.58,0-.04,1.01,3.36,3.92,5.93,4.89,2.57.97,4.76.74,4.81-1.07Z"/>
      </g>
      <g>
        <path class="cls-18" d="M134.81,482.65c0,5.88,6.12,12.49,12.49,8.08,4.86-3.36,4.58-7.87,3.09-13.74-.46-1.81-1.04-3.76-1.62-5.85-2.45-8.81-3.43-9.67,0-18.98,3.42-9.3,11.75-37.34,15.18-47.14s10.78-17.14,13.22-32.33l-22.04-4.89s-4.89,27.42-6.85,35.75c-1.96,8.33-7.72,38.94-7.23,49.72.37,8.07-3.32,17.24-5.19,23.8-.63,2.2-1.05,4.11-1.05,5.58Z"/>
        <path class="cls-42" d="M173.69,391.81l-25.47-7.84c-.98,10.29-5.39,35.76-6.37,42.61-.98,6.86-3.92,35.27-3.92,35.27,0,0,6.37,5.88,12.73.49.98-15.67,23.02-70.53,23.02-70.53Z"/>
        <path class="cls-18" d="M201.66,471.27c-2.57,4.04-1.1,7.34,3.31,8.81s6.25.37,10.65,4.78c4.41,4.41,17.64,2.2,18.37,0,.98-2.95-1.51-3.54-5.21-5.3-2.17-1.03-4.75-2.46-7.28-4.99-6.86-6.86-7.1-16.16-7.59-22.04-.49-5.88-1.96-48-1.96-53.88s-.49-13.71-1.96-28.89l-20.57,2.93s11.26,17.15,8.33,28.41c-2.94,11.27,1.47,33.92,5.38,45.19,3.8,10.91,4.5,15.27-.93,24.11-.17.29-.35.58-.54.87Z"/>
        <path class="cls-42" d="M216.3,460.87s-3.43-63.67-4.9-73.96c0,0-5.88,2.45-18.61,6.86-6.37,15.18,6.37,47.02,6.86,65.63,3.43,3.43,16.65,1.47,16.65,1.47Z"/>
        <path class="cls-37" d="M194.09,210.34c-23.48-.64-17.45,18.88-24.75,24.95-7.3,6.08-11.74,11.84-9.84,22.07,1.9,10.24,9.2,11.52,17.45,6.08,8.25-5.44,16.19,2.24,23.8-.64,7.62-2.88,8.25-6.4,6.03-12.48-2.22-6.08,2.86-3.52,5.08-17.28,1.9-16.64-11.04-22.53-17.77-22.71Z"/>
        <path class="cls-12" d="M145.83,391.31c12,9.31,52.41,11.51,67.35,2.69.73-10.29-6.73-49.35-8.2-65.27-1.47-15.92,0-19.47,2.94-32.69,2.94-13.22,2.08-28.65.61-30.61-1.47-1.96-9.8-4.41-16.65-6.12-12.73-3.18-28.9,3.43-28.9,3.43,0,0-2.2,17.88-1.22,22.78.98,4.9,4.9,26.45,4.16,31.84-.73,5.39-17.14,39.67-20.08,73.96Z"/>
        <path class="cls-18" d="M175.46,259.31c8.08,6.61,19.34,12.25,23.02,1.96-1.71-1.23-6.01-.96-4.83-6.23.25-1.13.64-2.38,1.16-3.75,3.19-.11,5.75-.71,8.07-4.38,1.63-2.6,3.14-6.73,4.66-13.32-12.49-5.88-11.75-13.96-11.75-13.96,0,0-6.2,12.16-14.84,16.01-.12.06-.23.11-.35.16-.31,3.65,1.69,2.32,2.44,7.17v.02c.13.83.22,1.84.26,3.09.03,1.26.08,2.59.11,3.81.02,1.41,0,2.68-.11,3.54-.37,2.69.93,4.63-7.84,5.88Z"/>
        <path class="cls-12" d="M200.2,243.39c-3.8,0-7.84-1.1-9.31-2.57-.37,4.41,2.17,5.29,4.04,5.76,2.69.67,5.02-.98,5.27-3.18Z"/>
        <path class="cls-22" d="M191.95,230.94c.33.02.63-.19.95-.3.46-.17.98-.15,1.42.06.74.34,1.2,1.14,1.96,1.43.19.07.42.11.6,0,.29-.16.33-.57.23-.89-.15-.5-.51-.92-.92-1.24-.82-.64-1.88-.92-2.9-.85-.64.05-2.36.32-2.01,1.3.1.27.37.47.66.49Z"/>
        <path class="cls-22" d="M203.59,233.26c.45.07.88.32,1.16.68.19.25.33.56.6.72.24.14.55.12.77-.04.78-.58-.47-1.68-.95-2.04-.78-.59-1.77-.91-2.74-.83-.49.04-.98.18-1.35.49-.23.2-.41.54-.26.81.1.17.29.26.48.3.75.17,1.52-.22,2.28-.1Z"/>
        <path class="cls-12" d="M242.56,329.78c-.24-5.2,4.19-10.77,4.19-10.77,0,0-1.6.7-11.35-2.39-9.75-3.08-12.43-15.18-14.14-24.23-1.71-9.04-4.42-23.28-12.74-26.96l-5.28,33.74s6.99,19.89,10.82,24.03c3.83,4.13,13.31,10.07,28.5,6.58Z"/>
        <g>
          <rect class="cls-8" x="221.75" y="291.87" width="8.5" height="34.24" transform="translate(-104.42 115.68) rotate(-23.49)"/>
          <path class="cls-36" d="M150.51,350.82l75.8-32.94-6.46-14.87-75.8,32.94c-3.8,1.65-5.54,6.07-3.89,9.87l.48,1.11c1.65,3.8,6.07,5.54,9.87,3.89Z"/>
          <path class="cls-40" d="M300.98,282.22l-4.11-9.47c-2.67-6.14-9.81-8.95-15.95-6.29l-57.83,25.13,13.65,31.4,57.97-24.83c6.14-2.67,8.95-9.81,6.29-15.95Z"/>
          <path class="cls-17" d="M300.98,282.22l-4.11-9.47c-2.67-6.14-9.81-8.95-15.95-6.29l-88.67,38.53,13.78,31.7,88.67-38.53c6.14-2.67,8.95-9.81,6.29-15.95Z"/>
          <rect class="cls-17" x="191.01" y="293.42" width="8.5" height="58.37" transform="translate(-112.4 104.55) rotate(-23.49)"/>
          <path class="cls-17" d="M304.25,263.97l-9.42,4.09,8.19,18.84,9.42-4.09c5.2-2.26,7.59-8.31,5.33-13.51h0c-2.26-5.2-8.31-7.59-13.51-5.33Z"/>
          <line class="cls-13" x1="317.76" y1="269.3" x2="362.85" y2="249.71"/>
          <line class="cls-16" x1="278.45" y1="275.18" x2="275.66" y2="268.75"/>
          <line class="cls-16" x1="273.17" y1="277.48" x2="270.38" y2="271.04"/>
          <line class="cls-16" x1="269.12" y1="282.61" x2="265.09" y2="273.34"/>
          <line class="cls-16" x1="262.6" y1="282.07" x2="259.81" y2="275.64"/>
          <line class="cls-16" x1="257.32" y1="284.37" x2="254.52" y2="277.93"/>
          <line class="cls-16" x1="253.27" y1="289.5" x2="249.24" y2="280.23"/>
          <line class="cls-16" x1="246.75" y1="288.96" x2="243.96" y2="282.53"/>
          <line class="cls-16" x1="241.47" y1="291.25" x2="238.67" y2="284.82"/>
          <line class="cls-16" x1="237.41" y1="296.39" x2="233.39" y2="287.12"/>
          <path class="cls-26" d="M148.39,362.16c2.93-1.27,4.27-4.68,3-7.61l-9.47-21.79c-1.27-2.93-4.68-4.27-7.61-3h0c-2.93,1.27-4.27,4.68-3,7.61l9.47,21.79c1.27,2.93,4.68,4.27,7.61,3Z"/>
        </g>
        <path class="cls-18" d="M191.01,337.92c-.37-3.67-6.24-10.65-9.55-12.49-3.31-1.84-5.88.37-9.55-3.31l-5.88,2.94s5.51,6.98,8.08,10.29c2.57,3.31,5.88,9.92,6.61,8.08.73-1.84-2.57-5.88-2.57-5.88,0,0,4.04,4.04,5.88,5.14,1.84,1.1,7.35-1.1,6.98-4.78Z"/>
        <path class="cls-12" d="M162.97,262.74c-6.49,5.76-19.71,24.12-21.92,31.1s-2.57,10.29-1.1,14.69,27.92,24.61,27.92,24.61l6.98-10.65s-14.33-16.53-17.27-19.84c11.39-16.53,5.39-39.92,5.39-39.92Z"/>
        <path class="cls-41" d="M198.48,261.27c-3.68,10.29-14.94,4.65-23.02-1.96,2.82,7.34,10.41,17.63,17.76,31.22,5.51-10.65,5.26-29.26,5.26-29.26Z"/>
        <path class="cls-14" d="M173.01,259.92c-.49,4.41-.98,13.47-.61,16.41.37,2.94,3.31,4.16,7.22,6,3.92,1.84,3.55,1.35,2.82,5.39-.73,4.04,9.18,5.27,10.29,10.04,1.1,4.78,1.59,12.61.61,24.73-.98,12.12-3.06,43.1-3.92,53.63-.86,10.53-1.59,23.51-1.59,23.51"/>
        <path class="cls-14" d="M200.56,262.25c1.71,4.04,6.24,13.84,4.9,16.78-1.35,2.94-5.51,2.2-6.37,4.16-.86,1.96,0,1.1.73,4.04.73,2.94-6.55,8.95-6.42,14.21-.49-7.35-.18-10.91-.18-10.91"/>
        <path class="cls-33" d="M193.22,250.61c-5.3-1.47-8.48-5.02-10.18-7.62.13.83.22,1.84.26,3.09.03,1.26.08,2.59.11,3.81,2.54.53,6.35,1.01,9.81.72Z"/>
        <path class="cls-23" d="M215.62,484.86c4.41,4.41,17.64,2.2,18.37,0,.98-2.95-1.51-3.54-5.21-5.3-.86.98-2.9,2.34-7.16,1.26-6.24-1.6-12.85-4.04-16.16-6.49-1.72-1.27-2.71-2.78-3.26-3.93-.17.29-.35.58-.54.87-2.57,4.04-1.1,7.34,3.31,8.81s6.25.37,10.65,4.78Z"/>
        <path class="cls-23" d="M147.3,490.73c4.86-3.36,4.58-7.87,3.09-13.74-.41,1.89-1.31,3.67-3.09,4.68-4.53,2.58-9.61,1.38-11.44-4.6-.63,2.2-1.05,4.11-1.05,5.58,0,5.88,6.12,12.49,12.49,8.08Z"/>
        <path class="cls-14" d="M157.58,302.66c-4.41-2.57-9.55-.73-9.55-.73"/>
        <path class="cls-18" d="M252.6,323.23c2.69-3.18,9.8-11.27,6.86-14.45s-10.29,3.67-11.76,7.84c-1.47,4.16-5.14,4.9-6.12,11.02-.66,4.11,8.33-1.22,11.02-4.41Z"/>
        <path class="cls-22" d="M203.18,236.21c.18-.62-.16-1.26-.76-1.44-.6-.18-1.23.18-1.42.79-.18.62.16,1.26.76,1.44.6.18,1.23-.18,1.42-.79Z"/>
        <path class="cls-22" d="M196.08,234.62c.18-.62-.16-1.26-.76-1.44-.6-.18-1.23.18-1.42.79s.16,1.26.76,1.44c.6.18,1.23-.18,1.42-.79Z"/>
      </g>
      <g id="Capsule-4" data-name="Capsule">
        <path class="cls-9" d="M261.1,61.77l13.61-14.88c1.36-1.48,1.98-3.38,1.9-5.24-.08-1.86-.88-3.69-2.36-5.05-.57-.52-1.19-.93-1.86-1.23-2.8-1.31-6.23-.72-8.43,1.69l-13.61,14.88c-1.77,1.94-2.3,4.57-1.62,6.92.36,1.25,1.05,2.42,2.09,3.36,2.97,2.71,7.57,2.51,10.29-.46Z"/>
        <path class="cls-31" d="M258.45,60.86c-2.03,1.23-6.76.87-9.72-1.99.36,1.25,1.05,2.42,2.09,3.36,2.97,2.71,7.57,2.51,10.29-.46l13.61-14.88c1.36-1.48,1.98-3.38,1.9-5.24-.08-1.86-.88-3.69-2.36-5.05-.57-.52-1.19-.93-1.86-1.23,1.65,2.06,2.47,4.83,1.52,7.91-1.39,4.5-13.08,16.13-15.47,17.58Z"/>
        <path class="cls-38" d="M276.61,41.65c-.08-1.86-.88-3.69-2.36-5.05-.08-.08-.18-.15-.26-.23-.07-.06-.13-.11-.2-.16-.06-.05-.13-.1-.19-.15-.07-.06-.15-.11-.23-.16-.23-.15-.47-.3-.72-.42-.08-.04-.16-.08-.24-.12-2.8-1.31-6.23-.72-8.43,1.69l-6.73,7.36,10.75,9.83,6.73-7.36c1.36-1.48,1.98-3.38,1.9-5.24Z"/>
        <path class="cls-7" d="M266.69,53.06l1.29,1.18,6.73-7.36c1.36-1.48,1.98-3.38,1.9-5.24-.08-1.86-.88-3.69-2.36-5.05-.08-.08-.18-.15-.26-.23-.07-.06-.13-.11-.2-.16-.06-.05-.13-.1-.19-.15-.07-.06-.15-.11-.23-.16-.24-.15-.48-.29-.72-.42-.08-.04-.16-.08-.24-.12,1.65,2.06,2.47,4.83,1.52,7.91-.68,2.22-3.88,6.17-7.23,9.79Z"/>
        <path class="cls-12" d="M269.37,40.94c2.23-1.61,3.25-3.55,1.78-4.6-1.84-1.3-3.5-.32-5.49,1.36-1.99,1.67-4.46,4.88-3.64,5.48.82.6,5.13-.63,7.35-2.23Z"/>
      </g>
      <g id="Capsule-5" data-name="Capsule">
        <path class="cls-1" d="M626.31,297.99c2.68,2.27,6.23,2.84,9.33,1.82,1.65-.54,3.18-1.53,4.39-2.96,3.48-4.1,2.97-10.25-1.13-13.72l-20.58-17.44c-2.05-1.74-4.61-2.48-7.09-2.27-2.48.21-4.89,1.36-6.63,3.41-.66.78-1.18,1.64-1.55,2.54-1.6,3.8-.64,8.37,2.68,11.18l20.58,17.44Z"/>
        <path class="cls-11" d="M640.03,296.85c3.48-4.1,2.97-10.25-1.13-13.72l-20.58-17.44c-2.05-1.74-4.61-2.48-7.09-2.27-2.48.21-4.89,1.36-6.63,3.41-.66.78-1.18,1.64-1.55,2.54,2.67-2.31,6.33-3.54,10.49-2.43,6.09,1.63,22.21,16.66,24.28,19.78,1.75,2.66,1.51,8.99-2.17,13.09,1.65-.54,3.18-1.53,4.39-2.96Z"/>
        <path class="cls-6" d="M615.91,289.18l12.59-14.86-10.18-8.62c-2.05-1.74-4.61-2.48-7.09-2.27-2.48.21-4.89,1.36-6.63,3.41-.1.12-.2.24-.29.36-.07.09-.14.19-.21.28-.07.09-.12.18-.19.27-.07.1-.13.21-.2.31-.2.32-.37.65-.52.99-.05.11-.1.22-.15.33-1.6,3.8-.64,8.37,2.68,11.18l10.18,8.62Z"/>
        <path class="cls-2" d="M626.98,276.1l1.51-1.79-10.18-8.62c-2.05-1.74-4.61-2.48-7.09-2.27-2.48.21-4.89,1.36-6.63,3.41-.1.12-.2.24-.29.36-.07.09-.14.19-.21.28-.07.09-.12.18-.19.27-.07.1-.13.21-.2.31-.19.32-.37.65-.52.99-.05.11-.1.22-.15.33,2.67-2.31,6.33-3.54,10.49-2.43,3,.8,8.45,4.87,13.45,9.16Z"/>
        <path class="cls-29" d="M614,282.85c.76-1.13-1.1-6.82-3.35-9.72-2.26-2.9-4.92-4.16-6.24-2.14-1.65,2.52-.25,4.7,2.09,7.27s6.74,5.71,7.5,4.59Z"/>
      </g>
      <g>
        <path class="cls-18" d="M402.55,213.64c-1.84,1.1-4.41,1.47-7.71,2.2-3.31.73-2.94,4.41.73,3.67,3.67-.73,7.71-1.1,11.02-.73,3.31.37,8.82,8.08,8.82,8.08l2.57-9.55c-4.78-3.31-6.24-5.51-8.82-12.12-2.57-6.61-7.35-12.86-9.92-12.12s-1.47,6.61.37,11.76c1.84,5.14,4.78,7.71,2.94,8.82Z"/>
        <path class="cls-37" d="M501.65,203.13c.17,2.77,3.28,4.92,5.87,4.04-1.93,3.63.07,8.36,3.3,10.85,3.23,2.49,7.35,3.34,11.28,4.33,3.77.95,6.55,2.36,9.77,4.45,2.18,1.41,6.25,5.18,8.98,3.5,1.76-1.08,1.25-4.38-.75-4.86,3.3-2.03,6.96-4.64,7.28-8.56.3-3.64-2.52-6.91-2.54-10.57-.02-2.49,1.26-4.79,1.81-7.22.55-2.43-.03-5.56-2.33-6.4-.62-.23-1.31-.25-1.91-.54-1.14-.55-1.67-1.85-2.29-2.97-2.08-3.72-6.24-6.13-10.44-6.04-4.55.1-8.96,2.88-13.41,1.93-1.52-.32-2.94-1.07-4.47-1.35-3.58-.65-7.46,1.69-8.61,5.21-1.15,3.52.56,7.77,3.81,9.44-2.67-.55-5.51,1.97-5.34,4.74Z"/>
        <path class="cls-41" d="M529.1,244.13c-12.26,1.36-16.16-3.43-23.02.49-6.86,3.92-9.31,54.37-8.33,65.14s1.04,30.98,1.04,30.98c0,0,34.22,9.67,55.29-2.08-5.39-23.51.65-59.78,1.79-67.85,1.15-8.07,8.49-30.6-26.77-26.68Z"/>
        <path class="cls-18" d="M512.85,229.31s.04.03.06.03c3.42,2.17,7.14-.33,8.13,3.26.17.6.26,1.36.26,2.34,0,6.93,0,7.79-3.12,9.09,5.78,7.79,14.81,2.34,18.81-.26-5.88.37-4.58-7.53-3.69-11.43.89-3.89,3.11-10.39,3.11-10.39,0,0,7.12,1.3,6.67-3.46-.44-4.76-4.89-7.36-6.67-4.76,0-5.63,3.11-7.36-.89-7.8-4-.43-8,2.17-12.45-.43-4.44-2.6-11.55-8.22-11.11,1.3.49,10.46-3.11,19.91.89,22.51Z"/>
        <path class="cls-12" d="M521.02,225.21c2.57-1.1,2.57-4.22,2.57-4.22,0,0-4.34,2.55-7.71,1.65-.18,1.65,2.57,3.67,5.14,2.57Z"/>
        <path class="cls-37" d="M514.04,209.88c.92-.55,1.19-1.1,2.02-.55.83.55,1.38-.18.83-.83-.85-.99-1.93-.83-2.85-.18-.92.64-.92,2.11,0,1.56Z"/>
        <path class="cls-37" d="M523.14,209.27c.8-.58,1.1-.04,2.04.47s.88-.95-.06-1.56c-.94-.61-2.03-.73-2.84.3-.53.66.05,1.38.86.79Z"/>
        <path class="cls-37" d="M516.89,212.82c0-.71-.47-1.29-1.06-1.29s-1.06.58-1.06,1.29.47,1.29,1.06,1.29,1.06-.58,1.06-1.29Z"/>
        <ellipse class="cls-37" cx="523.45" cy="212.54" rx="1.06" ry="1.29"/>
        <path class="cls-33" d="M531.94,224.76c-7.67,5.77-15.29,5.31-19.03,4.58,3.42,2.17,7.14-.33,8.13,3.26,4.16-1.52,10.12-4.31,10.9-7.84Z"/>
        <path class="cls-23" d="M555.97,475.07c-1.47,3.68-3.92,7.11-1.71,10.53,2.2,3.43,8.08,2.21,12.73,2.21s5.39-2.45,4.41-7.35c-.38-1.9-1.16-4.83-1.98-7.7-1.29-4.54-2.67-8.95-2.67-8.95l-12.74,1.71c1.69,3.81,3.02,5.43,2.4,8.17-.09.43-.24.88-.44,1.38Z"/>
        <path class="cls-23" d="M506.5,472.63c-2.45,2.2-19.1,4.65-20.08,6.85-.98,2.21.25,4.41,7.59,4.41s18.37-2.2,22.53-1.47c4.17.74,7.6,1.47,7.6-1.96,0-1.83-1.54-4.72-2.9-7.76-1.18-2.64-2.23-5.39-2-7.67-5.39,1.47-11.27.74-11.27.74,0,0,.82,3.91-.93,6.26-.15.21-.34.41-.54.6Z"/>
        <path class="cls-18" d="M563.07,475.01c2.94-.3,4.98-1.23,6.35-2.25-1.29-4.54-2.67-8.95-2.67-8.95l-12.74,1.71c1.69,3.81,3.02,5.43,2.4,8.17.91.87,2.79,1.71,6.66,1.32Z"/>
        <path class="cls-18" d="M521.24,472.7c-1.18-2.64-2.23-5.39-2-7.67-5.39,1.47-11.27.74-11.27.74,0,0,.82,3.91-.93,6.26,3.2.96,8.6,2.04,14.2.67Z"/>
        <path class="cls-42" d="M525.61,367.56c5.88,1.47,10.29,12.49,11.76,22.04,1.47,9.55,13.22,77.14,13.22,77.14,0,0,12.49,8.08,22.04.73-6.61-47.76-22.78-133.71-22.78-133.71h-49.22l-1.84,6.98s2.57,61.35,4.04,77.51c1.47,16.16,1.47,49.22,1.47,49.22,0,0,11.02,4.41,19.1-.73-2.94-27.18-3.67-100.65,2.2-99.18Z"/>
        <path class="cls-12" d="M557.45,249.76c-10.04-6.12-18.86-6.61-18.86-6.61,0,0-5.02,18.61-6,28.9-.98,10.29.86,65.76,2.57,75.31,1.71,9.55,4.9,38.82,4.9,38.82,0,0,20.33,2.69,26.69-5.14-10.78-36.24-11.9-78.86-11.76-86.94.24-13.59.37-28.29,2.45-44.33Z"/>
        <path class="cls-12" d="M517.53,242.66s-13.22.37-16.16.37c-4.65,19.59-13.22,50.69-5.14,142.65,12.24,1.22,19.84.98,19.84.98,0,0-6.6-82.66-4.78-107.63,1.1-15.06,6.24-36.37,6.24-36.37Z"/>
        <path class="cls-37" d="M502.28,484.01c4.41-1.1,9.18-.37,13.22-.37s9,.37,9,.37c0,0,.37-.92-.55-2.94-2.2,2.02-8.45.18-10.47.37-2.02.18-14.33,1.29-18.18,1.47-3.86.18-7.32-1.46-9.18-2.39-1.1,1.47-.92,2.76,2.02,3.86,2.94,1.1,9.73.73,14.14-.37Z"/>
        <path class="cls-37" d="M571.53,484.19c-6.06,4.22-15.98,1.29-18,0l-.37,2.39c5.14,4.96,18,1.47,18,1.47,0,0,1.47-1.47.37-3.86Z"/>
        <path class="cls-12" d="M499.16,263.97l2.2-20.94c-13.96-.73-35.63.73-40.41-.37-4.78-1.1-43.71-28.65-43.71-28.65,0,0-6.98,6.98-7.35,14.33,9.55,10.65,41.14,31.22,48.49,33.8,7.35,2.57,40.78,1.84,40.78,1.84Z"/>
        <path class="cls-18" d="M562.71,323.11c-2.2-4.78-4.78-7.71-4.78-7.71,0,0-8.08,5.51-9.92,7.35-1.84,1.84-4.04,4.78-4.04,4.78l10.1,11.14s3.86-11.14,8.63-15.55Z"/>
        <path class="cls-12" d="M553.9,315.76l9.55,12.49s27.55-20.57,27.92-24.61c.37-4.04-.37-11.02-4.78-18-4.41-6.98-17.63-31.22-29.14-35.88-4.14-1.67-9.06,18.61-4.65,24.12,4.41,5.51,17.63,18.37,16.9,23.88-.73,5.51-15.8,18-15.8,18Z"/>
        <path class="cls-15" d="M539.57,245.6c2.69,4.65,4.9,19.35,5.14,25.22.24,5.88-2.45,8.57-5.39,11.02-2.94,2.45-2.45,1.47-.49,6.86,1.96,5.39-7.84,20.57-7.84,20.57"/>
        <path class="cls-15" d="M516.79,243.4c-3.92,4.65-12.73,25.71-13.96,30.37-1.22,4.65,3.67,6.86,5.14,8.82,1.47,1.96-.73,4.65-2.2,8.57-1.47,3.92,6.12,15.92,6.12,15.92"/>
      </g>
    </g>
  </g>
</svg>