<?xml version="1.0" encoding="UTF-8"?>
<svg xmlns="http://www.w3.org/2000/svg" xmlns:xlink="http://www.w3.org/1999/xlink" viewBox="0 0 657.84 505.41">
  <defs>
    <style>
      .cls-1, .cls-2, .cls-3, .cls-4, .cls-5, .cls-6, .cls-7, .cls-8, .cls-9, .cls-10, .cls-11, .cls-12, .cls-13, .cls-14, .cls-15, .cls-16, .cls-17, .cls-18, .cls-19, .cls-20, .cls-21, .cls-22, .cls-23, .cls-24, .cls-25, .cls-26, .cls-27, .cls-28 {
        fill-rule: evenodd;
      }

      .cls-1, .cls-29 {
        fill: #1a4766;
      }

      .cls-30 {
        fill: #23648f;
      }

      .cls-2 {
        fill: #fecdb4;
      }

      .cls-3 {
        fill: #d7e8f5;
      }

      .cls-31, .cls-10 {
        fill: #f0460f;
      }

      .cls-4 {
        fill: #f8a387;
      }

      .cls-5 {
        fill: #153851;
      }

      .cls-32 {
        fill: #99dfff;
      }

      .cls-33 {
        fill: #f8cd9e;
      }

      .cls-6 {
        fill: #24638f;
      }

      .cls-7, .cls-34 {
        fill: #f8a287;
      }

      .cls-35 {
        fill: #e25070;
      }

      .cls-36 {
        fill: #ffe6b3;
      }

      .cls-37, .cls-9, .cls-38 {
        fill: #194766;
      }

      .cls-8, .cls-39 {
        fill: #143952;
      }

      .cls-40, .cls-13 {
        fill: #fff;
      }

      .cls-41 {
        fill: #ffd680;
      }

      .cls-11 {
        fill: #782307;
      }

      .cls-12 {
        fill: #aed1ea;
      }

      .cls-42 {
        fill: #b2b1b1;
      }

      .cls-14 {
        fill: #efefef;
      }

      .cls-15 {
        fill: #6d1226;
      }

      .cls-43 {
        fill: #94d2eb;
      }

      .cls-16 {
        fill: #c42144;
      }

      .cls-44 {
        clip-path: url(#clippath-1);
      }

      .cls-17 {
        fill: #fff5e0;
      }

      .cls-18 {
        fill: #2084ac;
      }

      .cls-19, .cls-45 {
        fill: #186381;
      }

      .cls-46 {
        fill: #f77c7c;
      }

      .cls-47 {
        fill: #cdbefe;
        opacity: .36;
      }

      .cls-20 {
        fill: #f9b39d;
      }

      .cls-38 {
        clip-rule: evenodd;
      }

      .cls-21 {
        fill: #ffc54c;
      }

      .cls-22 {
        fill: #28a5d7;
      }

      .cls-48, .cls-28 {
        fill: #ffefcc;
      }

      .cls-49 {
        fill: #d3d1d1;
      }

      .cls-23 {
        fill: #af1d3d;
      }

      .cls-50 {
        fill: #80d2ff;
      }

      .cls-51 {
        fill: #99c6e5;
      }

      .cls-24 {
        fill: #f36a3e;
      }

      .cls-25 {
        fill: #d6e8f5;
      }

      .cls-26 {
        fill: #fbc7b7;
      }

      .cls-52 {
        clip-path: url(#clippath);
      }

      .cls-27 {
        fill: #d6e9f5;
      }

      .cls-53 {
        opacity: .7;
      }
    </style>
    <clipPath id="clippath">
      <path class="cls-38" d="M178.14,461.2c-.17-.67-.57-.66-1.42-.65-1.04.02-2.73.05-5.47-1.1-8.92-5.28-4.28-6.38-11.47,6.21-.59,2.64,23.48,15.2,26.27,11.67,1.65-2.07,1.37-6.16-1.1-8.1-2.47-1.94-6.23-5.86-6.79-8.04Z"/>
    </clipPath>
    <clipPath id="clippath-1">
      <path class="cls-38" d="M218.61,464.56c-.42-.54-.79-.37-1.56-.02-.94.43-2.48,1.15-5.45,1.2-10.29-1.23-6.49-4.11-8,10.31.52,2.65,27.62,4.46,28.74.1.68-2.56-1.23-6.19-4.27-6.97-3.04-.78-8.06-2.85-9.45-4.62Z"/>
    </clipPath>
  </defs>
  <g id="Layer_8" data-name="Layer 8">
    <path class="cls-47" d="M655.05,45.64c-.2-.16-.42-.36-.67-.57.22.19.45.38.67.57Z"/>
  </g>
  <g id="Layer_9" data-name="Layer 9">
    <g>
      <g>
        <path class="cls-28" d="M170.45,166.14c139.89,2.39,139.86,210.47,0,212.83-139.88-2.39-139.86-210.47,0-212.83Z"/>
        <path class="cls-28" d="M333.27,257.33c108.77,1.86,108.75,163.65,0,165.49-108.77-1.86-108.75-163.65,0-165.49Z"/>
        <path class="cls-28" d="M439.75,313.68c100.69,1.72,100.68,151.5,0,153.2-100.69-1.72-100.67-151.5,0-153.2Z"/>
        <path class="cls-28" d="M569.68,254.03c70.09,1.2,70.08,105.46,0,106.65-70.09-1.2-70.08-105.46,0-106.65Z"/>
        <path class="cls-28" d="M323.54,168.71c32.71.56,32.71,49.22,0,49.77-32.71-.56-32.71-49.22,0-49.77Z"/>
        <path class="cls-28" d="M132.64,106.67c22.92.39,22.92,34.49,0,34.88-22.92-.39-22.92-34.49,0-34.88Z"/>
        <path class="cls-28" d="M615.42,200.54c22.33.38,22.32,33.59,0,33.97-22.33-.38-22.32-33.59,0-33.97Z"/>
        <path class="cls-28" d="M464.13,186.75c50.23.86,50.22,75.57,0,76.42-50.23-.86-50.22-75.57,0-76.42Z"/>
        <path class="cls-28" d="M623,390.28c37.25.64,37.25,56.05,0,56.68-37.25-.64-37.24-56.05,0-56.68Z"/>
        <path class="cls-28" d="M29.34,298.77c32.71.56,32.71,49.22,0,49.77-32.71-.56-32.71-49.22,0-49.77Z"/>
        <path class="cls-28" d="M86.71,357.87c75.78,1.29,75.77,114.01,0,115.3-75.78-1.29-75.77-114.01,0-115.3Z"/>
      </g>
      <g>
        <g>
          <path class="cls-21" d="M320.02,473.25c-41.27-40.09-78.62-94.91-100.54-147.38-16.76-42.47-20.44-73.93-31.32-122.91-.78-3.39,4.51-4.88,5.39-1.25,19.71,94.01,42.74,158.31,99.87,232.52,9.9,12.87,20.07,24.69,30.35,35.27,2.42,2.32-1.32,6.27-3.75,3.75Z"/>
          <path class="cls-21" d="M242.85,226.31c.06,3.21-7.21,17.13-13.62,21.1-7.56,5.94-15.5,9.18-23.99,12.18-2.82,2.57-6.82-1.9-3.92-4.41,4.93-10.41,6.22-24.08,13.79-33.47,4.14-5.19,7.79-7.75,7.79-7.75,8.33-12.96,27.83-.9,19.94,12.34Z"/>
          <path class="cls-21" d="M230.4,200.1c-5.06,14.55-19.77,19.05-31.36,27.99-1.64,3.44-7.04.79-5.28-2.62.4-9.47,1-16.88,4.09-24.77,1.93-7.18,13.18-16.9,16.17-17.39,11.21-10.57,27.23,5.82,16.38,16.79Z"/>
          <path class="cls-21" d="M202.45,161.84c4.66,14.46-4.6,26.32-8.69,39.99.73,3.74-5.2,4.82-5.81,1.03-5.21-7.56-9.09-13.67-11.3-21.78-2.67-6.74.53-20.74,2.63-22.89,2.67-15.17,25.31-11.62,23.17,3.66Z"/>
          <path class="cls-21" d="M166.25,193.7c6.23,1.09,17.65,8.86,21.8,16.66,3.63,5.12,6.11,9.29,9.7,13.9,3.28,1.69.56,6.84-2.69,5.04-15.73-.52-34.15-3.84-42.31-17.33-11.85-9.08,1.34-26.95,13.51-18.27Z"/>
          <path class="cls-21" d="M164.42,237.05c5.89-.82,18.9,3.05,25.05,8.59,5.06,3.35,8.7,6.33,13.91,8.87,3.71.07,3.54,5.93-.2,5.75-15.01,6.73-34.98,8.86-46.84-1.84-13.95-5.54-6.08-26.43,8.07-21.37Z"/>
          <path class="cls-21" d="M173.88,281.23c15.91-1.87,26.07,9.2,39.55,15.27,3.72-.18,3.93,5.7.19,5.76-8.05,3.78-15.32,6.56-24.18,7.28-7.11,1.38-20.83-4.14-22.68-6.54-14.22-4.92-7.28-26.21,7.12-21.77Z"/>
          <path class="cls-21" d="M183.41,317.06c15.62-4.55,27.51,4.71,42.03,8.55,3.67-.78,4.86,5.02,1.13,5.71-7.38,5.07-14.15,9.07-22.85,11.27-6.92,2.56-21.32-.57-23.66-2.65-14.99-2.46-11.73-24.81,3.35-22.88Z"/>
          <path class="cls-21" d="M195.72,355.13c14.92-6.88,28.15.62,43.21,2.36,3.56-1.31,5.57,4.32,1.95,5.54-6.62,6.11-12.77,11.1-21.12,14.58-6.51,3.57-21.32,2.58-23.96.86-15.32-.22-15.42-23.02-.08-23.33Z"/>
          <path class="cls-21" d="M212.86,385.2c15.37-5.54,27.86,2.99,42.65,5.96,3.63-1.01,5.17,4.74,1.48,5.65-7.08,5.53-13.61,9.96-22.19,12.7-6.77,2.99-21.38.76-23.85-1.18-15.17-1.52-13.32-24.13,1.91-23.13Z"/>
          <path class="cls-21" d="M237.21,416.56c15.36-5.59,27.87,2.91,42.67,5.84,3.63-1.03,5.18,4.72,1.5,5.64-7.07,5.55-13.58,10-22.15,12.77-6.76,3.02-21.38.83-23.86-1.11-15.17-1.47-13.39-24.09,1.85-23.13Z"/>
          <path class="cls-21" d="M255.3,267.03c-4.28,15.9-22.67,25.03-39.41,27.46-3.14,2.22-6.59-2.75-3.37-4.9,3.08-5.08,4.53-9.66,7.01-15.37,2.25-8.29,11.17-18.66,16.76-21.25,9.45-12.32,28.04,1.41,19.01,14.07Z"/>
          <path class="cls-21" d="M269.31,305.86c-4.28,15.9-22.67,25.03-39.41,27.46-3.14,2.22-6.59-2.75-3.37-4.9,3.08-5.08,4.53-9.66,7.01-15.37,2.25-8.29,11.17-18.66,16.76-21.25,9.45-12.32,28.04,1.41,19.01,14.07Z"/>
          <path class="cls-21" d="M285.1,338.4c-4.28,15.9-22.67,25.03-39.41,27.46-3.14,2.22-6.59-2.75-3.37-4.9,3.08-5.08,4.53-9.66,7.01-15.37,2.25-8.29,11.17-18.66,16.76-21.25,9.45-12.32,28.04,1.41,19.01,14.07Z"/>
          <path class="cls-21" d="M297.86,363.73c-1.12,16.29-17.2,28.76-33.06,34.35-2.62,2.75-6.9-1.42-4.19-4.11,2.04-5.53,2.59-10.27,3.92-16.28.61-8.46,7.29-20.3,12.21-23.89,6.76-13.77,27.42-4.07,21.13,9.93Z"/>
          <path class="cls-21" d="M320.11,400.71c-1.66,6.02-10.39,16.26-18.3,19.69-5.33,3.31-9.61,5.35-14.16,9.13-1.63,3.58-7.24.95-5.5-2.6-.45-16.84,5.59-36.59,20.73-43.18,11.33-11.13,28.19,5.44,17.24,16.96Z"/>
        </g>
        <g>
          <path class="cls-21" d="M423.68,473.18c75.06-92.01,95.98-158.42,115.2-272.69.91-3.87-5.27-5.4-6.11-1.35-18.28,83.15-33.22,148.07-80.32,221.18-10.33,17.06-21.54,33.56-33.46,49.11-2.44,2.94,2.28,6.87,4.69,3.75Z"/>
          <path class="cls-21" d="M477.24,227.57c-.18,3.34,8.57,19.59,15.67,23.73,8.64,6.64,17.66,10.21,27.31,13.51,3.22,2.88,7.7-2.23,4.39-5.04-5.71-11.73-7.33-27.2-16.01-37.73-4.75-5.83-8.92-8.69-8.92-8.69-9.58-14.58-31.53-.69-22.43,14.22Z"/>
          <path class="cls-21" d="M491.02,197.74c1.25,5.71,12.28,18.15,20.1,21.22,5.63,3.51,10.26,5.78,15.75,10.11.84,1.64,2.85,2.3,4.49,1.46,4.52-.98-1.63-29.75-3.47-32.49-2.05-7.86-15.38-19.19-18.52-19.5-12.82-11.83-30.77,6.92-18.35,19.21Z"/>
          <path class="cls-21" d="M522.22,154.09c-2.43,5.36-1.01,21.19,3.55,28.23,2.51,6.06,4.91,10.43,6.77,16.94-.78,4.24,5.94,5.39,6.59,1.09,5.81-8.62,10.12-15.58,12.54-24.8,1.22-4.68,1.28-9.23.8-13.05-1.03-8.2-4.05-12.84-4.05-12.84-3.21-17.15-28.8-12.85-26.2,4.42Z"/>
          <path class="cls-21" d="M563.59,189.73c-17.33,4.1-25.48,21.28-35.3,34.98-3.7,1.96-.56,7.75,3.11,5.68,9.46-.93,18.07-1.24,27.37-4.46,7.17-1.44,19.67-12.87,20.34-15.68,13.31-10.42-1.84-30.5-15.52-20.53Z"/>
          <path class="cls-21" d="M566.18,238.8c-17.33-1.29-29.65,12.42-43.91,20.24-4.2.13-3.94,6.75.29,6.5,9.36,3.52,17.8,6.14,27.87,6.28,7.78,1.12,23.5-6.24,25.15-8.93,15.73-6.44,6.57-30-9.39-24.1Z"/>
          <path class="cls-21" d="M556,288.94c-17-2.2-30.07,10.95-44.61,17.77-4.21-.16-4.38,6.5-.14,6.53,9.16,4.18,17.43,7.25,27.47,7.95,7.75,1.56,23.83-5.06,25.61-7.68,16.05-5.74,7.93-29.77-8.33-24.57Z"/>
          <path class="cls-21" d="M545.63,329.62c-16.7-5.06-31.77,5.77-47.49,10.19-4.17-.84-5.44,5.74-1.21,6.48,8.42,5.65,16.14,10.1,26.01,12.48,7.44,2.85,24.54-.99,26.76-3.29,16.94-2.97,12.98-28.24-4.07-25.86Z"/>
          <path class="cls-21" d="M532.15,372.88c-5.23-3.17-22.29-4.25-30.36-.77-6.79,1.58-11.89,3.34-18.53,3.96-4.05-1.45-6.26,4.96-2.15,6.3,13.13,13.32,34.5,23.83,51.24,16.94,17.35-.43,17.18-26.25-.19-26.42Z"/>
          <path class="cls-21" d="M513.11,407.14c-16.41-6.12-32.2,3.78-48.22,7.26-4.12-1.1-5.79,5.42-1.61,6.41,8.09,6.17,15.53,11.11,25.27,14.11,7.27,3.31,24.63.54,27-1.62,17.16-1.9,14.79-27.48-2.45-26.16Z"/>
          <path class="cls-21" d="M485.91,442.95c-16.41-6.18-32.22,3.69-48.25,7.12-4.12-1.12-5.81,5.41-1.63,6.4,8.07,6.2,15.5,11.16,25.24,14.19,7.26,3.34,24.63.62,27.01-1.54,17.17-1.85,14.87-27.43-2.37-26.18Z"/>
          <path class="cls-21" d="M463.63,273.83c4.91,17.82,26.11,28.16,44.95,30.62,3.58,2.48,7.43-3.2,3.76-5.59-3.54-5.72-5.24-10.89-8.12-17.33-2.16-8.67-13.46-21.62-19.23-23.87-10.85-13.84-31.74,1.93-21.36,16.16Z"/>
          <path class="cls-21" d="M448.22,317.97c4.91,17.82,26.11,28.16,44.95,30.62,3.58,2.48,7.43-3.2,3.76-5.59-3.54-5.72-5.24-10.89-8.12-17.33-2.16-8.67-13.46-21.62-19.23-23.87-10.85-13.84-31.74,1.93-21.36,16.16Z"/>
          <path class="cls-21" d="M430.74,355.02c4.91,17.82,26.11,28.16,44.95,30.62,3.58,2.48,7.43-3.2,3.76-5.59-3.54-5.72-5.24-10.89-8.12-17.33-2.16-8.67-13.46-21.62-19.23-23.87-10.85-13.84-31.74,1.93-21.36,16.16Z"/>
          <path class="cls-21" d="M416.6,383.85c1.24,18.11,20.07,32.59,37.85,38.5,3,3.08,7.8-1.69,4.7-4.7-2.38-6.24-3.05-11.6-4.63-18.39-.46-8.82-8.95-23.61-14.11-26.91-7.82-15.51-31.1-4.28-23.81,11.5Z"/>
          <path class="cls-21" d="M391.84,425.99c5.84,17.03,23.82,22.25,37.11,32.25,1.89,4.04,8.21.99,6.2-3.01-.34-10.24-1.24-19.21-5.24-28.88-2.18-7.91-15.41-19.29-18.75-19.77-12.97-12.46-31.86,6.49-19.32,19.42Z"/>
        </g>
        <g>
          <path class="cls-21" d="M52.55,464.65c-4.07-15.77-8.85-31.25-15.6-46.45-.76-2.34-4.45-1.11-3.61,1.23,3.06,11.39,5.7,22.18,10.05,32.82,1.87,4.79,3.82,9.26,5.73,13.63.77,2.23,4.28.99,3.44-1.24Z"/>
          <path class="cls-21" d="M57.95,424.57c-8.92,7.67-8.69,19.34-11.95,29.78-1.81,1.91,1.23,4.73,3,2.75,5.61-2.65,10.84-5.42,15.62-10.02,4.07-3.09,8.19-13.34,7.88-15.43,4.49-9.63-9.71-16.57-14.54-7.09Z"/>
          <path class="cls-21" d="M49.72,404.15c-9.78,5.44-12.31,18.52-10.98,30.34-.96,2.45,2.91,3.92,3.81,1.43,3.03-2.99,5.68-4.68,8.85-7.18,4.63-2.51,10.28-10.54,10.73-14.2,6.68-8.27-5.43-18.42-12.4-10.39Z"/>
          <path class="cls-21" d="M24.13,389.32c-4.62,9.83,1.18,21.8,9.05,30.05.68,2.54,4.67,1.42,3.91-1.11.69-4.07,1.85-6.87,2.95-10.71,2.29-4.66,2.07-14.17.24-17.33.41-10.62-15.37-11.51-16.15-.9Z"/>
          <path class="cls-21" d="M9.65,428.07c6.39,8.62,19.56,9.73,30.24,8.96,2.34,1,3.88-2.7,1.5-3.65-5.31-5.46-9.68-13.17-16.89-16.58-3.96-1.86-6.84-2.21-6.84-2.21-8.94-5.11-16.78,8.06-8.01,13.48Z"/>
          <path class="cls-21" d="M15.35,459.7c8.8,6.51,22.52,3.66,32.27-1.99,2.56-.14,2.3-4.16-.26-3.96-7.05-2.59-13.36-8.29-21.05-9.26-4.16-.52-6.9-.02-6.9-.02-10.05-2.49-14.02,12.39-4.06,15.23Z"/>
        </g>
        <g>
          <path class="cls-21" d="M607.97,464.34c4.07-15.77,8.85-31.25,15.6-46.45.76-2.34,4.45-1.11,3.61,1.23-3.06,11.39-5.7,22.18-10.05,32.82-1.87,4.79-3.82,9.26-5.73,13.63-.77,2.23-4.28.99-3.44-1.24Z"/>
          <path class="cls-21" d="M602.57,424.26c8.92,7.67,8.69,19.34,11.95,29.78,1.81,1.91-1.23,4.73-3,2.75-5.61-2.65-10.84-5.42-15.62-10.02-4.07-3.09-8.19-13.34-7.88-15.43-4.49-9.63,9.71-16.57,14.54-7.09Z"/>
          <path class="cls-21" d="M610.8,403.84c9.78,5.44,12.31,18.52,10.98,30.34.96,2.45-2.91,3.92-3.81,1.43-3.03-2.99-5.68-4.68-8.85-7.18-4.63-2.51-10.28-10.54-10.73-14.2-6.68-8.27,5.43-18.42,12.4-10.39Z"/>
          <path class="cls-21" d="M636.38,389.01c4.62,9.83-1.18,21.8-9.05,30.05-.68,2.54-4.67,1.42-3.91-1.11-.69-4.07-1.85-6.87-2.95-10.71-2.29-4.66-2.07-14.17-.24-17.33-.41-10.62,15.37-11.51,16.15-.9Z"/>
          <path class="cls-21" d="M650.87,427.76c-6.39,8.62-19.56,9.73-30.24,8.96-2.34,1-3.88-2.7-1.5-3.65,5.31-5.46,9.68-13.17,16.89-16.58,3.96-1.86,6.84-2.21,6.84-2.21,8.94-5.11,16.78,8.06,8.01,13.48Z"/>
          <path class="cls-21" d="M645.17,459.39c-8.8,6.51-22.52,3.66-32.27-1.99-2.56-.14-2.3-4.16.26-3.96,7.05-2.59,13.36-8.29,21.05-9.26,4.16-.52,6.9-.02,6.9-.02,10.05-2.49,14.02,12.39,4.06,15.23Z"/>
        </g>
      </g>
      <g>
        <rect class="cls-37" x="254.25" y="238.02" width="118.63" height="36.18"/>
        <g>
          <path class="cls-24" d="M383.42,216.34h-141.8v26.01c-.08,4.41,3.79,8.28,8.19,8.19,25.03,0,100.37,0,125.41,0,2.17,0,4.26-.86,5.79-2.4,1.54-1.54,2.4-3.62,2.4-5.79v-26.01Z"/>
          <path class="cls-10" d="M380.35,187c-.83-4.32-5.41-7.3-9.69-6.31-24.49,5.18-98.23,20.77-122.72,25.95-4.32.83-7.31,5.42-6.31,9.71l138.73-29.33h0Z"/>
        </g>
        <path class="cls-6" d="M399,297.79c.4-20.53-17.7-38.64-38.23-38.23-28.69,0-67.81,0-96.5,0-20.53-.4-38.64,17.69-38.23,38.23,0,55.55,0,125.36,0,164.71,0,9.05,7.33,16.39,16.39,16.39h140.19c9.05,0,16.39-7.34,16.39-16.39v-164.71Z"/>
        <path class="cls-9" d="M394.15,461.64h-163.25c0,8.01,6.49,14.5,14.5,14.5h134.26c8.01,0,14.5-6.5,14.5-14.5Z"/>
        <path class="cls-13" d="M378.33,303.25c0-3.01-2.45-5.46-5.46-5.46h-146.82v155.96h146.82c3.01,0,5.46-2.45,5.46-5.46v-145.03Z"/>
        <path class="cls-16" d="M367.76,312.47c.06-2.94-2.52-5.52-5.46-5.46-24.25,1.4-106.57-2.78-129.8,1.59-3.33,2.89-.9,22.41-1.6,27.84-.05,2.93,2.53,5.52,5.46,5.46,24.25-1.4,106.57,2.79,129.8-1.6,3.33-2.89.9-22.42,1.6-27.84Z"/>
        <path class="cls-41" d="M357.41,391h-116.49c-1.49,0-2.88-.58-3.91-1.62-3.29-1.04-.96-32.7-1.62-35.3-.05-2.97,2.54-5.58,5.53-5.52,0,0,116.49,0,116.49,0,1.49,0,2.88.58,3.91,1.62,3.3,1.04.96,32.7,1.62,35.3.05,2.97-2.54,5.58-5.53,5.52ZM240.92,348.69c-2.91-.06-5.45,2.48-5.39,5.39.51,2.64-1.51,34.13,1.58,35.21,1.01,1.02,2.37,1.58,3.82,1.58h116.49c2.91.06,5.44-2.49,5.39-5.39-.51-2.64,1.52-34.13-1.58-35.21-1.01-1.02-2.36-1.58-3.81-1.58h-116.49Z"/>
        <g>
          <path class="cls-51" d="M362.88,403.1h-127.42c-.9,0-1.64-.73-1.64-1.64s.73-1.64,1.64-1.64h127.42c2.09-.03,2.15,3.31,0,3.28Z"/>
          <path class="cls-51" d="M362.88,413.61h-127.42c-.9,0-1.64-.73-1.64-1.64s.73-1.64,1.64-1.64h127.42c2.09-.03,2.15,3.31,0,3.28Z"/>
          <path class="cls-51" d="M362.88,424.12h-127.42c-.9,0-1.64-.73-1.64-1.64s.73-1.64,1.64-1.64h127.42c2.09-.03,2.15,3.31,0,3.28Z"/>
          <path class="cls-51" d="M362.88,434.64h-127.42c-.9,0-1.64-.73-1.64-1.64s.73-1.64,1.64-1.64h127.42c2.09-.03,2.15,3.31,0,3.28Z"/>
        </g>
      </g>
      <g>
        <g>
          <g>
            <path class="cls-12" d="M468,225.39h-46.77v197.14c-.47,20.35,25.86,31.27,39.92,16.53,4.38-4.38,6.85-10.33,6.85-16.53v-197.14Z"/>
            <path class="cls-25" d="M463.37,225.39h-37.49v195.92c-.2,10.07,8.68,18.95,18.75,18.74,10.07.2,18.94-8.67,18.74-18.74,0,0,0-195.92,0-195.92Z"/>
            <path class="cls-12" d="M472.72,225.78c.06-3.22-2.77-6.05-5.99-5.99,0,0-44.23,0-44.23,0-3.22-.06-6.05,2.77-5.99,5.99-.06,3.22,2.77,6.05,5.99,5.99,10.8,0,33.43,0,44.23,0,3.21.06,6.05-2.77,5.98-5.99Z"/>
          </g>
          <path class="cls-16" d="M463.37,302.43h-37.49v118.88c-.38,16.31,20.73,25.07,32,13.25,3.51-3.51,5.49-8.28,5.49-13.25v-118.88Z"/>
        </g>
        <g>
          <g>
            <path class="cls-12" d="M537.47,225.39h-46.77v197.14c-.47,20.35,25.86,31.27,39.92,16.53,4.38-4.38,6.85-10.33,6.85-16.53v-197.14Z"/>
            <path class="cls-25" d="M532.84,225.39h-37.49v195.92c-.2,10.07,8.68,18.95,18.75,18.74,10.07.2,18.94-8.67,18.74-18.74,0,0,0-195.92,0-195.92Z"/>
            <path class="cls-12" d="M542.19,225.78c.06-3.22-2.77-6.05-5.99-5.99-10.8,0-33.43,0-44.23,0-3.21-.06-6.05,2.77-5.99,5.99-.06,3.22,2.77,6.05,5.99,5.99,0,0,44.23,0,44.23,0,3.21.06,6.05-2.77,5.98-5.99Z"/>
          </g>
          <path class="cls-10" d="M532.84,302.43h-37.49v118.88c-.38,16.31,20.73,25.07,32,13.25,3.51-3.51,5.49-8.28,5.49-13.25v-118.88Z"/>
        </g>
        <g>
          <g>
            <path class="cls-12" d="M606.94,225.39h-46.77v197.14c-.47,20.35,25.86,31.27,39.92,16.53,4.38-4.38,6.85-10.33,6.85-16.53v-197.14Z"/>
            <path class="cls-25" d="M602.31,225.39h-37.49v195.92c-.2,10.07,8.68,18.95,18.75,18.74,10.07.2,18.94-8.67,18.74-18.74,0,0,0-195.92,0-195.92Z"/>
            <path class="cls-12" d="M611.66,225.78c.06-3.22-2.77-6.05-5.99-5.99,0,0-44.23,0-44.23,0-3.22-.06-6.05,2.77-5.99,5.99-.06,3.22,2.77,6.05,5.99,5.99,10.8,0,33.43,0,44.23,0,3.21.06,6.05-2.77,5.98-5.99Z"/>
          </g>
          <path class="cls-16" d="M602.31,302.43h-37.49v118.88c-.38,16.31,20.73,25.07,32,13.25,3.51-3.51,5.49-8.28,5.49-13.25v-118.88Z"/>
        </g>
        <g>
          <path class="cls-30" d="M638,252.3h-244.07c-1.64,0-2.97-1.33-2.97-2.97s1.33-2.97,2.97-2.97h244.07c3.78-.06,3.9,6,0,5.94Z"/>
          <g>
            <path class="cls-37" d="M405.12,478.58c-1.64,0-2.97-1.33-2.97-2.97v-240.25c0-1.64,1.33-2.97,2.97-2.97s2.97,1.33,2.97,2.97v240.25c0,1.64-1.33,2.97-2.97,2.97Z"/>
            <path class="cls-37" d="M626.81,478.58c-1.64,0-2.97-1.33-2.97-2.97v-240.25c0-1.64,1.33-2.97,2.97-2.97s2.97,1.33,2.97,2.97v240.25c0,1.64-1.33,2.97-2.97,2.97Z"/>
          </g>
        </g>
      </g>
      <g>
        <path class="cls-14" d="M36.79,476.94c-2.73,0-4.95-2.22-4.95-4.95v-185.98c0-2.73,2.22-4.95,4.95-4.95h81.26c2.73,0,4.95,2.22,4.95,4.95v185.98c0,2.73-2.22,4.95-4.95,4.95H36.79Z"/>
        <path class="cls-42" d="M77.42,462.57c-1.17,0-2.12-.95-2.12-2.12v-162.91c0-1.17.95-2.12,2.12-2.12s2.12.95,2.12,2.12v162.91c0,1.17-.95,2.12-2.12,2.12Z"/>
        <g>
          <g>
            <path class="cls-27" d="M45.51,312.46c.25,14.79,22.25,14.78,22.5,0-.25-14.79-22.25-14.78-22.5,0Z"/>
            <path class="cls-24" d="M46.8,312.46c.22,13.09,19.7,13.09,19.92,0-.22-13.09-19.7-13.09-19.92,0Z"/>
            <path class="cls-13" d="M49.26,309.72c.11,6.55,9.85,6.55,9.96,0-.11-6.55-9.85-6.55-9.96,0Z"/>
          </g>
          <g>
            <path class="cls-27" d="M45.51,345.73c.25,14.79,22.25,14.78,22.5,0-.25-14.79-22.25-14.78-22.5,0Z"/>
            <path class="cls-24" d="M46.8,345.73c.22,13.09,19.7,13.09,19.92,0-.22-13.09-19.7-13.09-19.92,0Z"/>
            <path class="cls-13" d="M49.26,342.99c.11,6.55,9.85,6.55,9.96,0-.11-6.55-9.85-6.55-9.96,0Z"/>
          </g>
          <g>
            <path class="cls-27" d="M45.51,379c.25,14.79,22.25,14.78,22.5,0-.25-14.79-22.25-14.78-22.5,0Z"/>
            <path class="cls-24" d="M46.8,379c.22,13.09,19.7,13.09,19.92,0-.22-13.09-19.7-13.09-19.92,0Z"/>
            <path class="cls-13" d="M49.26,376.26c.11,6.55,9.85,6.55,9.96,0-.11-6.55-9.85-6.55-9.96,0Z"/>
          </g>
          <g>
            <path class="cls-27" d="M45.51,412.27c.25,14.79,22.25,14.78,22.5,0-.25-14.79-22.25-14.78-22.5,0Z"/>
            <path class="cls-24" d="M46.8,412.27c.22,13.09,19.7,13.09,19.92,0-.22-13.09-19.7-13.09-19.92,0Z"/>
            <path class="cls-13" d="M49.26,409.53c.11,6.55,9.85,6.55,9.96,0-.11-6.55-9.85-6.55-9.96,0Z"/>
          </g>
          <g>
            <path class="cls-27" d="M45.51,445.54c.25,14.79,22.25,14.78,22.5,0-.25-14.79-22.25-14.78-22.5,0Z"/>
            <path class="cls-24" d="M46.8,445.54c.22,13.09,19.7,13.09,19.92,0-.22-13.09-19.7-13.09-19.92,0Z"/>
            <path class="cls-13" d="M49.26,442.8c.11,6.55,9.85,6.55,9.96,0-.11-6.55-9.85-6.55-9.96,0Z"/>
          </g>
        </g>
        <g>
          <g>
            <path class="cls-27" d="M86.83,312.46c.25,14.79,22.25,14.78,22.5,0-.25-14.79-22.25-14.78-22.5,0Z"/>
            <path class="cls-24" d="M88.12,312.46c.22,13.09,19.7,13.09,19.92,0-.22-13.09-19.7-13.09-19.92,0Z"/>
            <path class="cls-13" d="M90.58,309.72c.11,6.55,9.85,6.55,9.96,0-.11-6.55-9.85-6.55-9.96,0Z"/>
          </g>
          <g>
            <path class="cls-27" d="M86.83,345.73c.25,14.79,22.25,14.78,22.5,0-.25-14.79-22.25-14.78-22.5,0Z"/>
            <path class="cls-24" d="M88.12,345.73c.22,13.09,19.7,13.09,19.92,0-.22-13.09-19.7-13.09-19.92,0Z"/>
            <path class="cls-13" d="M90.58,342.99c.11,6.55,9.85,6.55,9.96,0-.11-6.55-9.85-6.55-9.96,0Z"/>
          </g>
          <g>
            <path class="cls-27" d="M86.83,379c.25,14.79,22.25,14.78,22.5,0-.25-14.79-22.25-14.78-22.5,0Z"/>
            <path class="cls-24" d="M88.12,379c.22,13.09,19.7,13.09,19.92,0-.22-13.09-19.7-13.09-19.92,0Z"/>
            <path class="cls-13" d="M90.58,376.26c.11,6.55,9.85,6.55,9.96,0-.11-6.55-9.85-6.55-9.96,0Z"/>
          </g>
          <g>
            <path class="cls-27" d="M86.83,412.27c.25,14.79,22.25,14.78,22.5,0-.25-14.79-22.25-14.78-22.5,0Z"/>
            <path class="cls-24" d="M88.12,412.27c.22,13.09,19.7,13.09,19.92,0-.22-13.09-19.7-13.09-19.92,0Z"/>
            <path class="cls-13" d="M90.58,409.53c.11,6.55,9.85,6.55,9.96,0-.11-6.55-9.85-6.55-9.96,0Z"/>
          </g>
          <g>
            <path class="cls-27" d="M86.83,445.54c.25,14.79,22.25,14.78,22.5,0-.25-14.79-22.25-14.78-22.5,0Z"/>
            <path class="cls-24" d="M88.12,445.54c.22,13.09,19.7,13.09,19.92,0-.22-13.09-19.7-13.09-19.92,0Z"/>
            <path class="cls-13" d="M90.58,442.8c.11,6.55,9.85,6.55,9.96,0-.11-6.55-9.85-6.55-9.96,0Z"/>
          </g>
        </g>
      </g>
      <g>
        <rect class="cls-29" x="102.51" y="361.42" width="73.45" height="22.4"/>
        <g>
          <path class="cls-5" d="M183.13,348c.05-2.72-2.35-5.13-5.07-5.07-17.39,1.24-64.76-2.5-81.24,1.48-2.93,2.67-.93,15.25-1.48,19.69-.05,2.73,2.35,5.12,5.07,5.07,17.39-1.24,64.75,2.5,81.23-1.48,2.94-2.65.93-15.25,1.49-19.69Z"/>
          <path class="cls-1" d="M183.13,347.99c.05-2.72-2.34-5.12-5.06-5.06-15.5,0-62.16,0-77.66,0-2.72-.05-5.12,2.35-5.06,5.07h87.79Z"/>
        </g>
        <path class="cls-18" d="M204.05,396.81c.25-12.71-10.95-23.92-23.67-23.67-17.76,0-64.54,0-82.3,0-6.28,0-12.3,2.5-16.74,6.93-4.44,4.44-6.93,10.46-6.93,16.74v68.66c0,5.6,4.54,10.14,10.14,10.14h109.35c5.6,0,10.14-4.54,10.14-10.14v-68.66Z"/>
        <path class="cls-19" d="M201.05,463.83h-123.63c0,4.96,4.02,8.98,8.98,8.98h105.68c4.96,0,8.98-4.02,8.98-8.98Z"/>
        <path class="cls-13" d="M186.38,398.64c0-1.87-1.51-3.38-3.38-3.38h-86.95c-2.18,0-3.96,1.77-3.96,3.96v56.58c0,2.18,1.77,3.96,3.96,3.96h86.95c1.87,0,3.38-1.51,3.38-3.38v-57.73Z"/>
        <g>
          <path class="cls-24" d="M146.47,454.6c3.78,1.48.7-48.3,1.65-51.65,0-.91-.74-1.65-1.65-1.65h-14.47c-.91,0-1.65.74-1.65,1.65.94,3.51-2.13,53.06,1.64,51.65,3.39,0,11.09,0,14.48,0Z"/>
          <path class="cls-24" d="M165.88,420.71c1.48-3.78-48.3-.7-51.65-1.65-.91,0-1.65.74-1.65,1.65v14.47c0,.91.74,1.65,1.65,1.65,3.51-.94,53.06,2.13,51.65-1.64,0-3.39,0-11.09,0-14.48Z"/>
        </g>
      </g>
      <g>
        <rect class="cls-48" x="520.06" y="389.68" width="43.79" height="13.44"/>
        <g>
          <path class="cls-22" d="M552.65,327.99c0-2.73-2.22-4.95-4.95-4.95h-11.51c-2.73,0-4.95,2.22-4.95,4.95v31.73h21.41v-31.73Z"/>
          <path class="cls-22" d="M562.96,360.99h-42.02l10.51-19.61h21.01l10.51,19.61Z"/>
        </g>
        <path class="cls-18" d="M572.47,364.67c0-2.73-2.22-4.95-4.95-4.95h-51.15c-2.73,0-4.95,2.22-4.95,4.95v30.25c0,.82.66,1.49,1.48,1.49h58.08c3.17,1.42.79-26.16,1.49-31.73Z"/>
        <path class="cls-13" d="M574.66,408.67c.1-5.32-4.58-10.01-9.9-9.9-74.29.98-52.05-13.81-55.52,83.22,0,1.91,1.55,3.47,3.47,3.47h58.49c1.91,0,3.46-1.55,3.46-3.47v-73.32Z"/>
        <rect class="cls-29" x="509.24" y="415.13" width="57.3" height="59.46"/>
        <g>
          <path class="cls-24" d="M561.24,426.29c0-2.08-1.68-3.76-3.76-3.76h-39.17c-2.08,0-3.76,1.69-3.76,3.76,0,2.08,1.68,3.76,3.76,3.76h39.17c2.08,0,3.76-1.69,3.76-3.76Z"/>
          <path class="cls-24" d="M561.24,438.35c0-2.08-1.68-3.76-3.76-3.76h-39.17c-2.08,0-3.76,1.69-3.76,3.76,0,2.08,1.68,3.76,3.76,3.76h39.17c2.08,0,3.76-1.69,3.76-3.76Z"/>
          <path class="cls-28" d="M561.24,449.58c1.74-3.63-42.12-.77-45.06-1.63-.9,0-1.63.73-1.63,1.63-1.74,3.63,42.12.77,45.06,1.63.9,0,1.63-.73,1.63-1.63Z"/>
          <path class="cls-48" d="M557.78,469.9h-39.78c-1.46.03-2.75-1.26-2.72-2.72,0,0,0-9.43,0-9.43-.03-1.46,1.26-2.75,2.72-2.72,0,0,39.78,0,39.78,0,1.46-.03,2.76,1.26,2.72,2.72,0,0,0,9.43,0,9.43.02,1.46-1.26,2.76-2.72,2.72ZM518,456.46c-.69-.02-1.3.6-1.28,1.28,0,0,0,9.43,0,9.43-.01.69.59,1.3,1.28,1.28,0,0,39.78,0,39.78,0,.34,0,.66-.13.91-.38.77.06.22-9.9.38-10.34,0-.69-.59-1.3-1.28-1.28,0,0-39.78,0-39.78,0Z"/>
        </g>
        <g>
          <path class="cls-45" d="M513.63,395.87c-.31,0-.57-.25-.57-.57v-31.35c0-.31.25-.57.57-.57s.57.25.57.57v31.35c0,.31-.25.57-.57.57Z"/>
          <path class="cls-45" d="M516.33,395.87c-.31,0-.57-.25-.57-.57v-33.56c0-.31.25-.57.57-.57s.57.25.57.57v33.56c0,.31-.25.57-.57.57Z"/>
          <path class="cls-45" d="M519.02,395.87c-.31,0-.57-.25-.57-.57v-33.56c0-.31.25-.57.57-.57s.57.25.57.57v33.56c0,.31-.25.57-.57.57Z"/>
          <path class="cls-45" d="M521.72,395.87c-.31,0-.57-.25-.57-.57v-33.56c0-.31.25-.57.57-.57s.57.25.57.57v33.56c0,.31-.25.57-.57.57Z"/>
          <path class="cls-45" d="M524.42,395.87c-.31,0-.57-.25-.57-.57v-33.56c0-.31.25-.57.57-.57s.57.25.57.57v33.56c0,.31-.25.57-.57.57Z"/>
          <path class="cls-45" d="M527.11,395.87c-.31,0-.57-.25-.57-.57v-33.56c0-.31.25-.57.57-.57s.57.25.57.57v33.56c0,.31-.25.57-.57.57Z"/>
          <path class="cls-45" d="M551.39,395.87c-.31,0-.57-.25-.57-.57v-33.56c0-.31.25-.57.57-.57s.57.25.57.57v33.56c0,.31-.25.57-.57.57Z"/>
          <path class="cls-45" d="M529.81,395.87c-.31,0-.57-.25-.57-.57v-33.56c0-.31.25-.57.57-.57s.57.25.57.57v33.56c0,.31-.25.57-.57.57Z"/>
          <path class="cls-45" d="M554.09,395.87c-.31,0-.57-.25-.57-.57v-33.56c0-.31.25-.57.57-.57s.57.25.57.57v33.56c0,.31-.25.57-.57.57Z"/>
          <path class="cls-45" d="M532.51,395.87c-.31,0-.57-.25-.57-.57v-33.56c0-.31.25-.57.57-.57s.57.25.57.57v33.56c0,.31-.25.57-.57.57Z"/>
          <path class="cls-45" d="M556.78,395.87c-.31,0-.57-.25-.57-.57v-33.56c0-.31.25-.57.57-.57s.57.25.57.57v33.56c0,.31-.25.57-.57.57Z"/>
          <path class="cls-45" d="M535.21,395.87c-.31,0-.57-.25-.57-.57v-33.56c0-.31.25-.57.57-.57s.57.25.57.57v33.56c0,.31-.25.57-.57.57Z"/>
          <path class="cls-45" d="M559.48,395.87c-.31,0-.57-.25-.57-.57v-33.56c0-.31.25-.57.57-.57s.57.25.57.57v33.56c0,.31-.25.57-.57.57Z"/>
          <path class="cls-45" d="M537.9,395.87c-.31,0-.57-.25-.57-.57v-33.56c0-.31.25-.57.57-.57s.57.25.57.57v33.56c0,.31-.25.57-.57.57Z"/>
          <path class="cls-45" d="M562.18,395.87c-.31,0-.57-.25-.57-.57v-33.56c0-.31.25-.57.57-.57s.57.25.57.57v33.56c0,.31-.25.57-.57.57Z"/>
          <path class="cls-45" d="M540.6,395.87c-.31,0-.57-.25-.57-.57v-33.56c0-.31.25-.57.57-.57s.57.25.57.57v33.56c0,.31-.25.57-.57.57Z"/>
          <path class="cls-45" d="M564.87,395.87c-.31,0-.57-.25-.57-.57v-33.56c0-.31.25-.57.57-.57s.57.25.57.57v33.56c0,.31-.25.57-.57.57Z"/>
          <path class="cls-45" d="M543.3,395.87c-.31,0-.57-.25-.57-.57v-33.56c0-.31.25-.57.57-.57s.57.25.57.57v33.56c0,.31-.25.57-.57.57Z"/>
          <path class="cls-45" d="M567.57,395.87c-.31,0-.57-.25-.57-.57v-33.56c0-.31.25-.57.57-.57s.57.25.57.57v33.56c0,.31-.25.57-.57.57Z"/>
          <path class="cls-45" d="M545.99,395.87c-.31,0-.57-.25-.57-.57v-33.56c0-.31.25-.57.57-.57s.57.25.57.57v33.56c0,.31-.25.57-.57.57Z"/>
          <path class="cls-45" d="M570.27,395.87c-.31,0-.57-.25-.57-.57v-31.35c0-.31.25-.57.57-.57s.57.25.57.57v31.35c0,.31-.25.57-.57.57Z"/>
          <path class="cls-45" d="M548.69,395.87c-.31,0-.57-.25-.57-.57v-33.56c0-.31.25-.57.57-.57s.57.25.57.57v33.56c0,.31-.25.57-.57.57Z"/>
        </g>
      </g>
      <g>
        <g>
          <path class="cls-16" d="M150.74,437.86c8.07-8.04,1.65-22.65-9.73-22.14-3.47.08-6.77,1.52-9.17,4.03-6.83,7.13-15.03,15.69-15.03,15.69l18.9,18.11,15.03-15.69Z"/>
          <g>
            <path class="cls-35" d="M135.89,423.92c-1.52.06-2.19-2.15-.83-2.92,1.75-1.02,7.7-3.7,8.2-.41.02.87-.67,1.59-1.55,1.61-2.14-.13-3.91,1.11-5.82,1.72Z"/>
            <path class="cls-35" d="M127.02,432.66c-1.34.05-2.12-1.72-1.14-2.67,0,0,4.02-4.2,4.02-4.2,1.4-1.5,3.72.73,2.28,2.19-.75.53-4.09,4.92-5.16,4.68Z"/>
          </g>
          <path class="cls-28" d="M101.79,451.13c-8.07,8.04-1.65,22.65,9.73,22.14,3.47-.08,6.77-1.52,9.17-4.03,6.83-7.13,15.03-15.69,15.03-15.69l-18.9-18.11-15.03,15.69Z"/>
        </g>
        <g>
          <path class="cls-22" d="M142.83,473.27c-11.43.27-17.55-14.51-9.28-22.41,2.46-2.46,5.8-3.84,9.28-3.84h21.79v26.25h-21.79Z"/>
          <g>
            <path class="cls-43" d="M136.64,456.33c-4.87-1.66,2.66-5.77,4.86-6.12,1.98-.54,2.79,2.59.79,3.07-1.71.44-3.28,1.33-4.53,2.58-.31.31-.71.46-1.12.46Z"/>
            <path class="cls-43" d="M154.38,452.97h-5.83c-.87,0-1.58-.71-1.58-1.58s.71-1.58,1.58-1.58h5.83c2.05-.03,2.06,3.2,0,3.17Z"/>
          </g>
          <path class="cls-23" d="M186.4,447.02c11.43-.27,17.55,14.51,9.28,22.41-2.46,2.46-5.8,3.84-9.28,3.84h-21.79v-26.25h21.79Z"/>
        </g>
        <g>
          <path class="cls-21" d="M162.03,447.02c-8.87.21-13.63-11.27-7.21-17.4,1.91-1.91,4.5-2.98,7.21-2.98h16.92v20.39h-16.92Z"/>
          <g>
            <path class="cls-36" d="M157.22,433.86c-3.78-1.29,2.07-4.48,3.78-4.75,1.54-.42,2.17,2.01.61,2.38-1.77.21-2.85,1.88-4.39,2.37Z"/>
            <path class="cls-36" d="M170.99,431.25h-4.53c-1.59.02-1.6-2.48,0-2.46,0,0,4.53,0,4.53,0,1.59-.02,1.6,2.48,0,2.46Z"/>
          </g>
          <path class="cls-7" d="M195.87,426.63c8.87-.21,13.63,11.27,7.21,17.4-1.91,1.91-4.5,2.98-7.21,2.98h-16.92v-20.39h16.92Z"/>
        </g>
      </g>
      <g>
        <path class="cls-7" d="M393.6,481.48l-1.09-110.85h53.02v27.71h20.73v27.71h20.41v27.71h21.05v27.71h-114.11Z"/>
        <path class="cls-10" d="M367.59,481.48v-110.85h34.62v27.71h19.64v27.71h21.49v27.71h21.05v27.71h-96.8Z"/>
        <g>
          <path class="cls-31" d="M466.26,398.84c-.52-.49-67,.93-66.91-.49-.13-1.43,66.42,0,66.91-.5.62,0,.66,1,0,.99Z"/>
          <path class="cls-31" d="M445.54,371.12c-.53-.5-78.53.95-78.44-.49-.11-1.45,77.95,0,78.44-.5.62,0,.66,1,0,.99Z"/>
          <path class="cls-31" d="M486.99,426.55c-.52-.49-65.73.94-65.63-.49-.12-1.44,65.15,0,65.63-.5.62,0,.66,1,0,.99Z"/>
          <path class="cls-31" d="M507.72,454.26c-.52-.49-64.96.94-64.87-.49-.11-1.44,64.38,0,64.87-.5.62,0,.65,1,0,.99Z"/>
        </g>
      </g>
      <g>
        <g>
          <path class="cls-13" d="M378.76,224.25c4.19,3.29,28.22,25.13,34.69,13.58.93-2.05-.33-4.94-1.86-6.1-.4-.3-22.01-13.52-24.94-14.96-3.71-1.82-10.39,4.68-7.89,7.48Z"/>
          <g>
            <path class="cls-20" d="M366.68,197.88c-.33-2.68,2.18-2.36,1.04-5.44-.05-.92,1.04-1.12,1.55-.47.79,1.76,2.19,5.96-.29,7.28-.93.42-2.06-.36-2.3-1.37Z"/>
            <path class="cls-20" d="M370.53,198.66c1.29,1.67,15.75,17.42,17.1,19.43,2.01,2.98,1.35,6.2-.68,7.65-2.18,1.56-5.69.8-7.52-.87-2.41-2.2-15.81-21.91-16.29-22.47-1.13-1.32-4.24-5.09-5.03-6.19-.63-.88.55-2.01,1.13-1.57.82.62,3.51,3.76,3.51,3.76,0,0-2.33-2.91-3.08-3.99-.45-.65.75-1.84,1.29-1.29.95.96,3.37,3.75,3.37,3.75,0,0-2.83-3.35-2.98-4.28-.06-.4.72-.94,1.09-.86.7.15,3.52,3.9,3.52,3.9-.34-.57-2.62-3.47-2.78-4.22-.1-.46.86-.98,1.28-.64,1.16.91,3.79,4.95,6.06,7.89Z"/>
          </g>
          <path class="cls-13" d="M369.35,212.08c-.66-1.35,5.76-7.91,7.31-6.5,5.07,4.62,10.25,11.45,11.07,12.66,2.63,3.89.57,8.08-3.25,8.5-5.61-.29-10.41-6.71-15.13-14.67Z"/>
          <path class="cls-3" d="M368.65,211.26c.23.91,1.3,2.92,1.69,2.66.96-.64,3.88-3.89,4.93-4.8,1.05-.91,2.77-1.54,2.97-2.26.13-.45-1.85-1.86-2.14-2.16-1.55-.4-7.48,4.97-7.46,6.56Z"/>
        </g>
        <g>
          <path class="cls-20" d="M426.8,279.26c.76-7.38-.71-13.06-.71-13.06l-19.71,2.06s1.84,35,2.58,42.27c.35,3.42,8.5,43.85,8.1,46.01-.82,5.56-12.84,6.34-11.36,11.64.67,4.03,23.01-.59,23.34-2.61.71-4.31-2.06-6.22-2.97-9.83-.47-4.75-.43-20.36-.61-23.91-.33-6.13-3.27-19.55-3.04-21.26.68-5.04,3.23-20.11,4.38-31.31Z"/>
          <path class="cls-5" d="M412.23,361.49c1.35.84-.81,4.13,6.3,2.72,9.32-1.85,7.53-4.86,8.94-5.23.6-.16,1.96,2.57,2.43,3.69.4.93.55,2.33.47,3-.26,2.22-12.4,3.67-15.65,4.21-3.71.62-8.28,1-9.37-1.05-.79-1.5-.58-3.27.6-4.23,1.3-1.06,5.78-3.4,6.27-3.09Z"/>
        </g>
        <g>
          <path class="cls-20" d="M406,357.5c.06-4.78,1.82-20.28,2.02-23.83.35-6.13-1.1-19.79-.68-21.47,2.02-8.11,12.24-42.78,12.24-42.78l-23.52-1.04s-2.02,34.99-2.09,42.3c-.03,3.44,3.62,44.52,2.98,46.63-1.43,5.43-13.46,4.88-12.57,10.32.42,2.29,5.6,2.44,9.09,2.21,3.47-.22,13.96-.41,14.4-2.24.17-.72.53-3.26-.2-5.27-.64-1.75-1.69-3.12-1.67-4.83Z"/>
          <path class="cls-5" d="M391.62,361.69c1.25.98-1.26,4.01,5.96,3.4,9.47-.81,8.02-4,9.46-4.22.61-.09,1.67,2.77,2.01,3.93.29.97.29,2.38.14,3.03-.5,2.18-12.73,2.29-16.02,2.46-3.75.2-8.34.08-9.19-2.08-.62-1.58-.21-3.32,1.06-4.14,1.41-.91,6.12-2.75,6.58-2.38Z"/>
        </g>
        <g>
          <path class="cls-13" d="M391.57,296.86c.41-11.53,4.15-41.3,4.41-53.86,1.02-13.41,9.3-16.49,18.44-17.14l5.71,40.65-.79,31s-27.7,1.04-27.77-.65Z"/>
          <path class="cls-3" d="M395.33,255.34c.66-6.9-.01-19.49,5.93-25.22-6.28,4.88-5.99,19.52-5.93,25.22Z"/>
        </g>
        <path class="cls-8" d="M397.64,257.6c-3.45,7.54-4.25,42.26-5.13,49.83-.46,3.39,29.88,3.04,33.49.34,1.78-1.33,2.77-24.59,3.28-32.78.53-8.45-1.28-14.22-4.75-19.04l-26.88,1.66Z"/>
        <path class="cls-12" d="M412.93,225.76c3.45-.22,7.14,3.03,10.06,12.73.91,3.03.45,7.74,1.87,13.84,1.1,4.73,1.39,3.09.92,5.37-1.09,5.28-18.4,8.04-28.49,4.05-1.03-.41-1.36-1.48-.3-4.26,1.47-3.82-1.38-6.58-.5-14.54,1.53-13.87,8.46-16.68,16.43-17.19Z"/>
        <g>
          <path class="cls-4" d="M401.63,223.75s.74,6.62.76,6.96c3.31-.69,10.34-1.03,11.45-3.67.53-1.33-1.31-6.51-1.31-6.51l-10.91,3.22Z"/>
          <path class="cls-20" d="M403.52,227.31c-5.48-.22-12.76-2.05-13.17-11.92-.24-5.79-2.07-18.07,13.68-18.76,22.63-.56,20.36,31.93-.5,30.68Z"/>
          <path class="cls-15" d="M419.96,199.34c2.11-1.48,8.65-2.67,11.77,6.35,3.72,12.27-1.45,19.58,3.54,25.8.27,1.31-.7,1.49-2.82.75,0,0,2.47,1.68,2.65,1.95.38.57-.67,1.62-3.93,1.44-11.39-1.22-16.56-27.61-11.21-36.3Z"/>
          <path class="cls-10" d="M417.39,197.86c6.17-1.26,9.75,9.02,4.51,12.39l-4.51-12.39Z"/>
          <path class="cls-15" d="M407.47,192.53c18.46-1.69,20.19,31.33,3.48,33.27-9.36.41-10.84-15.71-9.34-23.89.62-5.62,2.32-8.81,5.86-9.38Z"/>
          <path class="cls-20" d="M398.58,212.84c.3-1.86,2.12-4.12,4.37-2.11,2.28,2.04.73,8.18-2.3,8.65-2.29.36-2.32-5-2.07-6.54Z"/>
          <path class="cls-15" d="M395.25,205.87c-3.94,3.5-8.48,1.83-5.36-3.75,1.43-2.65,4.92-6.86,8.64-8.46,4.83-2.08,8.69-.95,8.05,2.01-.21.99-3.17,8.77-4.9,13.46-1.03,2.8-.92,4.18-2.23,4.35-2.8.37-4.5-3.35-4.2-7.6Z"/>
        </g>
        <g>
          <path class="cls-13" d="M410.02,227.69c.63-.2,3.88-1.68,3.79-2.37,5.85,2.16,6.56,5.04,9.17,13.17.91,3.03.45,7.74,1.87,13.84,6.25,7.38,7.56,40.69,6.95,42.7-1.08,5.28-23.95,7.74-34.04,3.76-1.03-.41.13-27.67.35-30.64,1.37-10.67-3.06-35.43,11.91-40.45Z"/>
          <path class="cls-3" d="M410.02,227.69c.63-.2,3.88-1.68,3.79-2.37.51.05,1.57.54,2.49,1.1.23.14-4.73,2.64-9.43,6.81-5.76,6.03-5,18.92-8.42,25.11.33-10.6-.44-26.61,11.57-30.67Z"/>
        </g>
        <g>
          <path class="cls-20" d="M369.71,251.04c2.08-.16,18.05-1.33,20.45-1.36,7.38-.08,8.07,8.84,2.16,9.94-2.19.41-23.01-.53-23.74-.44-1.71.21-6,.45-7.33.5-1.07.04-1.32-1.55-.63-1.79.97-.34,4.5-.57,4.5-.57,0,0-3.99.13-5.29.16-.78.02-1.06-1.63-.32-1.77,1.31-.26,5.26-.54,5.26-.54,0,0-4.63.31-5.46-.08-.36-.17-.35-1.1-.08-1.37.51-.5,5.46-.57,5.46-.57-.65-.03-4.61.06-5.31-.21-.43-.17-.31-1.24.21-1.41,1.39-.46,6.46-.22,10.13-.5Z"/>
          <path class="cls-20" d="M367.29,253.6c-2.18-1.56-.18-3.12-3.21-4.35-.69-.57-.1-1.51.72-1.45.81.06,3.24,1.45,3.96,2.18,2,1.33,1.37,4.74-1.47,3.62Z"/>
          <path class="cls-13" d="M420.65,242.64c-.96,2.21-15.95,15.31-22.41,17.54-1.94.67-10.09.65-17.11.24-1.24.27-1.48-12.02-1.03-12.36,6.01-.57,12.91-.93,13.42-1.26,6.56-4.18,14.61-11.92,15.42-12.57,1.95-1.55,5.81-3.25,8.76-1.08,2.41,1.77,4.65,5.53,2.93,9.49Z"/>
          <path class="cls-3" d="M381.87,247.28c.71.07,2.23,13.25,1.21,13.75-.38.19-3.11.3-3.43-.32-.32-.62-1.28-12.54-.48-13.24.27-.23,1.58-.3,2.7-.19Z"/>
          <path class="cls-3" d="M420.57,242.6c-1.8,3.19-17.47,15.93-22.41,17.33-3.81.85-12.01.43-16.9.22-.31-2.7-.95-8.5-1.13-11.99,4.79-.56,9.89-.54,13.45-1.22,2.31-1.66,5.92-3.93,7.49-5.87-2.4,1.96-5.05,4-7.64,5.63-.75.2-1.46.19-2.64.29-2.72.19-7.03.39-10.92.73-.54,1.39.17,3.56.12,5.24.47,3.19.21,6.31,1,7.73,3.45.2,7.21.31,10.38.29,3.31-.03,5.97-.21,6.96-.56,4.73-1.4,21.47-14.82,22.24-17.82Z"/>
        </g>
      </g>
      <g>
        <g>
          <path class="cls-26" d="M253.38,349.67c-1.98-.83-17.22-7.15-19.55-7.95-7.19-2.46-10.75,6.03-5.33,9.02,2,1.11,22.67,6.93,23.35,7.26,1.6.76,5.72,2.39,7.01,2.87,1.03.38,1.79-1.09,1.2-1.54-.84-.64-4.21-2.02-4.21-2.02,0,0,3.86,1.42,5.12,1.87.76.27,1.56-1.25.88-1.63-1.2-.68-4.97-2.23-4.97-2.23,0,0,4.43,1.8,5.37,1.69.4-.05.7-.96.52-1.31-.34-.65-5.16-2.33-5.16-2.33.64.18,4.49,1.56,5.26,1.52.48-.02.71-1.12.26-1.45-1.21-.9-6.25-2.31-9.74-3.76Z"/>
          <path class="cls-26" d="M254.04,352.76c.97.31,2.21-.3,3.08-.94.87-.64,1.53.11,2.45.22.92.11,1.19-1,.56-1.57-.62-.56-3.39-1.37-4.45-1.38-2.42-.53-4.5,2.37-1.64,3.67Z"/>
          <path class="cls-13" d="M200.75,333.08c9.82,12.72,28.15,21.84,47.07,25.26,1.48.22,5.25-9.13,4.74-9.77-1.34-1.7-15.27-6.67-21.25-9.68-12.1-5.51-18.93-20.44-27.54-15.57-2.48,1.83-4.79,5.69-3.02,9.77Z"/>
          <path class="cls-3" d="M252.34,348.71c-.2,2.07-2.36,7.05-3.98,9-1.36.93-6.78-1.36-10.16-2.13-6.04-1.82-12.47-4.03-14.29-4.66-5.27-1.28-21.33-15.17-23.24-17.8,1.84,3.37,17.94,16.78,23.08,18.26,1.82.63,8.24,2.9,14.28,4.75,3.54.79,9.35,3.41,10.75,1.98,1.71-2.07,3.93-7.22,4.08-9.45-.86-1.35-2.37-1.59-4.27-2.6-9.98-4.17-19.94-7.61-27.79-14.59,8.26,8.63,21.29,11.19,31.53,17.23Z"/>
        </g>
        <g>
          <path class="cls-13" d="M204.64,321.08c10.13,1.04,15.73,5.06,16.91,22.4,1.12,12.65.25,38.17,1.53,47.6,1.28,9.43,1.09,12.18-.34,13.84-1.42,1.65-28.61,3.81-31.16-3.4-2.55-7.2,8.77-75.09,13.06-80.44Z"/>
          <path class="cls-3" d="M216.72,326.57c3.16,3.48,4.53,12.52,4.5,18.61.26,4.6.9,19.07.96,21.1,0,.07.11.07.11,0-.02-2.14-.37-16.44-.67-21.12-.29-4.84-.42-9.05-1.83-12.96-1.38-3.76-2.97-5.98-3.07-5.62Z"/>
        </g>
        <g>
          <path class="cls-2" d="M213.56,367.59c-2.96,15.49-30.91,78.23-37.72,91.17l-8.43-4.54s13.81-40.72,17.75-47.44c1.82-11.44,9.56-47.41,9.56-47.41l18.84,8.22Z"/>
          <path class="cls-13" d="M175.33,461.72s2.84-5.86,2.84-6.45c0-1.01-9.77-5.57-10.37-3.88-.47,1.31-2.35,6.49-2.35,6.49.96,1.94,7.63,6.08,9.88,3.84Z"/>
          <g>
            <path class="cls-9" d="M178.14,461.2c-.17-.67-.57-.66-1.42-.65-1.04.02-2.73.05-5.47-1.1-8.92-5.28-4.28-6.38-11.47,6.21-.59,2.64,23.48,15.2,26.27,11.67,1.65-2.07,1.37-6.16-1.1-8.1-2.47-1.94-6.23-5.86-6.79-8.04Z"/>
            <g class="cls-52">
              <path class="cls-8" d="M188.12,475.75c-2.56,1.2-28.72-10.38-28.19-13.54-.29-1.99-2.53,3.91-2.53,3.91,4.94,5.09,21.42,12.12,27.73,13.59l2.99-3.96Z"/>
            </g>
          </g>
          <g>
            <path class="cls-39" d="M174.19,464.65c-1.96-.31,4.68-3.16,4.87-2.17.04.18-.08.36-.27.39-2.57.49-4.34,1.77-4.6,1.78Z"/>
            <path class="cls-39" d="M175.83,466.37c-1.88-.25,4.16-3.2,4.56-2.19.04.18-.08.36-.27.39-2.61.51-3.95,1.76-4.3,1.8Z"/>
            <path class="cls-39" d="M177.85,468.05c-1.72-.16,3.26-3.27,4-2.22.04.18-.08.36-.27.39-2.7.55-3.23,1.72-3.74,1.83Z"/>
          </g>
          <path class="cls-8" d="M189.69,356.58c-9.54,11.56-4.47,32.83-7.02,48.24-3.55,14.28-16.21,45.77-16.57,48.32-.21,1.54,11.98,6.16,12.58,4.28.5-1.57,16.74-30.2,22.4-45.1,6.18-16.28,15.68-44.89,15.68-44.89l-27.07-10.85Z"/>
        </g>
        <g>
          <path class="cls-2" d="M213.32,364.62c3.53,15.37,3.21,84.05,2.2,98.64l-9.54-.76s-3.76-42.84-2.86-50.57c-2.94-11.2-10.35-47.25-10.35-47.25l20.55-.07Z"/>
          <path class="cls-13" d="M216.25,466.17s.24-6.51,0-7.05c-.41-.92-11.19-1.16-11.06.63.1,1.38.46,6.88.46,6.88,1.6,1.38,9.5,2.48,10.59-.47Z"/>
          <g>
            <path class="cls-9" d="M218.61,464.56c-.42-.54-.79-.37-1.56-.02-.94.43-2.48,1.15-5.45,1.2-10.29-1.23-6.49-4.11-8,10.31.52,2.65,27.62,4.46,28.74.1.68-2.56-1.23-6.19-4.27-6.97-3.04-.78-8.06-2.85-9.45-4.62Z"/>
            <g class="cls-44">
              <path class="cls-8" d="M233.61,473.86c-1.86,2.13-30.47,2.07-31.26-1.04-1.06-1.7-.74,4.59-.74,4.59,6.57,2.67,24.49,2.46,30.85,1.27l1.15-4.83Z"/>
            </g>
          </g>
          <g>
            <path class="cls-39" d="M216.25,469.33c-1.53.2,3.18-4.79,3.71-3.98.11.15.07.36-.08.47-2.33,1.58-3.1,3.38-3.63,3.51Z"/>
            <path class="cls-39" d="M218.44,470.25c-1.46.23,2.69-4.62,3.43-3.87.11.15.07.36-.08.47-2.35,1.6-2.76,3.24-3.34,3.41Z"/>
            <path class="cls-39" d="M220.97,470.98c-.87-.24.24-2.08,2.44-3.76.35-.25.74.31.38.55-2.39,1.64-2.12,2.95-2.82,3.21Z"/>
          </g>
          <path class="cls-8" d="M188.49,363.03s-2.47,8.59-.54,13.59c2.31,6,10.69,26.37,12.1,34.51,2.5,14.5,3.59,48.42,4.3,50.9.43,1.49,13.45.81,13.24-1.15-.18-1.64,3.16-34.38,2.34-50.31-.9-17.39-3.73-47.4-3.73-47.4l-27.7-.15Z"/>
        </g>
        <g>
          <path class="cls-12" d="M214.98,325.69c7.31,5.88,2.79,25.11,3.02,35.06-.26,7.08.55,12.8.1,13.26-4.03,4.09-18.83,1.4-26.02.47-3.35-.43-6.42-1.09-8.4-2.61-1.19-.92,4.71-14.12,6.44-20.27,1.73-6.15-.53-14.79,0-17.18,3.26-13.4,14.02-15.82,24.85-8.73Z"/>
          <path class="cls-1" d="M206.62,327.89c-6.08-.6-6.93-3.15-6.43-4.93,1.08-3.86,10.54-1.83,12.95.44,2.82,3.27-.41,5.23-6.52,4.49Z"/>
          <path class="cls-26" d="M212.6,320.06s.1,4.52-1.08,5.35c-1.74,1.22-8.9.12-9.83-1.28-.93-1.39.39-5.09.39-5.09l10.51,1.02Z"/>
        </g>
        <g>
          <path class="cls-13" d="M211.35,330.96c6.58,13.49,2.35,65.04.65,72.91-6.3,4.16-30.01,1.94-36.69-3.34-.12-10,9.03-36.65,12.39-47.3,2.32-15.62.7-29.37,13.85-32.15,2.83,1.82,7.78,5.55,9.81,9.88Z"/>
          <path class="cls-3" d="M211.35,330.96c3.12,6.03,3.81,19.83,3.43,29.98-1.96-8.87-1.21-19.1-5.16-26.08-5.18-9.78-17.61-12.13-8.08-13.77,2.83,1.82,7.78,5.55,9.81,9.88Z"/>
        </g>
        <g>
          <path class="cls-26" d="M216.89,296.33c18.32,29.5-25.59,33.12-28.2,10.05-2.48-13.89,21.14-23.92,28.2-10.05Z"/>
          <path class="cls-1" d="M211.88,296.2c8.72,6.54,11.38-1.95.15-7.18-9.1-4.45-26.39.62-25.58,13.94-.16,10.36,8.85,18.61,13.64,17.56,5.17-.92-1.74-11.52-.64-12.99,1.03-.3.99,2.69,2.5,2.47,1-.15,6.01-7.11,5.47-10.37,2.18,3.6,7.9,2.88,4.47-3.44Z"/>
          <path class="cls-26" d="M200.36,308.43c-.24-.61-1.44-1.73-3.44-.55-3.21,2.37,2.63,10.23,5.16,6.01,0,0-1.48-4.85-1.72-5.46Z"/>
        </g>
        <g>
          <g>
            <path class="cls-24" d="M244.53,327.23c3.87-6.25-2.59-14.61-9.62-12.44-2.18.59-4.03,2.02-5.15,3.98-3.19,5.57-7.02,12.26-7.02,12.26l14.77,8.46,7.02-12.26Z"/>
            <g>
              <path class="cls-34" d="M232.72,320.79c-3.14-1.06,1.69-3.76,3.11-4.01,1.28-.37,1.83,1.65.54,1.98-1.48.19-2.36,1.62-3.65,2.03Z"/>
              <path class="cls-34" d="M228.5,327.7c-2.57-.3.67-3.83.99-4.82.65-1.16,2.46-.13,1.78,1.02-.5.56-1.77,3.97-2.77,3.8Z"/>
            </g>
            <path class="cls-17" d="M215.72,343.29c-3.87,6.25,2.59,14.61,9.62,12.44,2.18-.59,4.03-2.02,5.15-3.98,3.19-5.57,7.02-12.26,7.02-12.26l-14.77-8.46-7.02,12.26Z"/>
          </g>
          <g>
            <path class="cls-22" d="M264.42,353.63c6.76-2.94,6.22-13.53-.81-15.75-2.13-.76-4.48-.64-6.52.34-5.81,2.77-12.79,6.09-12.79,6.09l7.34,15.41,12.79-6.09Z"/>
            <g>
              <path class="cls-43" d="M262.88,342.05c-1.22-.31-2.46-.61-3.73-.31-1.31.28-1.71-1.79-.39-2.02,1.41-.18,5.4-.56,5.09,1.65-.15.42-.55.69-.97.69Z"/>
              <path class="cls-43" d="M251.52,345.04c-1.05.04-1.43-1.53-.44-1.96,0,0,3.42-1.63,3.42-1.63,1.2-.59,2.1,1.3.89,1.86-.24.08-3.69,1.86-3.87,1.73Z"/>
            </g>
            <path class="cls-23" d="M231.49,350.39c-6.76,2.94-6.22,13.53.81,15.75,2.13.76,4.48.64,6.52-.34,5.81-2.77,12.79-6.09,12.79-6.09l-7.34-15.41-12.79,6.09Z"/>
          </g>
          <g>
            <path class="cls-21" d="M253.62,338.46c4.7-4.71.72-13.41-5.91-12.94-2.04.07-3.97.95-5.36,2.45-3.96,4.25-8.71,9.36-8.71,9.36l11.27,10.49,8.71-9.36Z"/>
            <g>
              <path class="cls-36" d="M244.75,330.38c-3.06-1.27,1.98-3.09,3.35-2.92,1.21-.06,1.27,1.83.07,1.86-1.26-.06-2.3.7-3.42,1.06Z"/>
              <path class="cls-36" d="M239.6,335.6c-2.64-.52,1.13-3.27,1.65-4.07.81-.89,2.2.4,1.36,1.27-.45.33-2.36,2.94-3.01,2.8Z"/>
            </g>
            <path class="cls-7" d="M224.93,346.68c-4.7,4.71-.72,13.41,5.91,12.94,2.04-.07,3.97-.95,5.36-2.45,3.96-4.25,8.71-9.36,8.71-9.36l-11.27-10.49-8.71,9.36Z"/>
          </g>
        </g>
        <g>
          <path class="cls-26" d="M247.29,347.87c-2.15-.04-18.64-.34-21.1-.23-7.59.34-7.79,9.55-1.65,10.35,2.27.3,23.64-1.86,24.39-1.81,1.77.12,6.19.13,7.57.1,1.1-.02,1.27-1.67.55-1.87-1.02-.29-4.66-.33-4.66-.33,0,0,4.11-.09,5.45-.13.8-.03,1-1.73.23-1.84-1.37-.19-5.44-.25-5.44-.25,0,0,4.78.05,5.62-.39.36-.19.3-1.16,0-1.41-.56-.48-5.65-.28-5.65-.28.67-.07,4.75-.2,5.45-.52.44-.2.25-1.3-.29-1.44-1.46-.39-6.66.14-10.44.07Z"/>
          <path class="cls-26" d="M249.03,350.5c1.02-.07,1.94-1.09,2.52-2.01.57-.92,1.46-.46,2.36-.69s.73-1.37-.05-1.66c-.79-.29-3.65-.03-4.64.34-2.44.39-3.32,3.85-.18,4.02Z"/>
          <path class="cls-13" d="M195.05,340.57c.98,2.28,16.43,15.77,23.08,18.07,2.97,1.03,20.1.48,26.47-.61,1.47-.25,1.88-9.53,1.38-10.17-1.34-1.7-22.08-2.41-22.99-2.99-11.42-6.4-16.4-18.52-24.91-14.06-2.48,1.83-4.79,5.69-3.02,9.77Z"/>
          <path class="cls-3" d="M194.97,340.61c1.84,3.37,17.94,16.78,23.08,18.26,1.35.47,5.73.64,10.67.56,4.78-.07,11.91-.42,15.93-1.13,2.16-1.58,1.61-8.07,1.64-9.98.28-3.25-19.6-2.69-21.44-3.32-3.54-.17-6.8-4.32-9.74-6.04,2.21,2.16,5.26,4.29,7.83,6.03,4.53.83,12.45.86,18.46,1.74,2.02.49,4.64.07,4.41,2.17-.03,2.18.14,6.93-1.26,8.84-4.01.69-11.08,1.03-15.84,1.13-4.86.1-9.17-.01-10.5-.47-5.27-1.28-21.33-15.18-23.24-17.79Z"/>
        </g>
      </g>
      <path class="cls-11" d="M653.2,469.89c0-2.04-1.65-3.7-3.7-3.7-50.35,3.5-603.76-6.81-649.5,3.69,0,2.05,1.66,3.71,3.7,3.71,50.35-3.5,603.76,6.81,649.5-3.7Z"/>
      <g>
        <polygon class="cls-49" points="54.9 229.09 72.55 174.97 95.62 208.88 99.09 206.51 71.21 165.52 50.9 227.79 54.9 229.09"/>
        <g>
          <circle class="cls-33" cx="53.25" cy="227.07" r="9.46" transform="translate(-54.28 20.11) rotate(-14.26)"/>
          <circle class="cls-46" cx="72.41" cy="172.16" r="9.46" transform="translate(-45.82 27.58) rotate(-16.46)"/>
          <path class="cls-50" d="M105.58,212.37c2.58-4.54.99-10.32-3.55-12.9-4.54-2.58-10.32-.99-12.9,3.55-2.58,4.54-.99,10.32,3.55,12.9,4.54,2.58,10.32.99,12.9-3.55Z"/>
        </g>
      </g>
      <g>
        <polygon class="cls-49" points="610.61 134.86 560.99 126.44 561.55 123.15 603.57 130.29 585.86 103.58 588.63 101.74 610.61 134.86"/>
        <g>
          <circle class="cls-33" cx="561.27" cy="124.8" r="7.5" transform="translate(343.88 657.09) rotate(-80.32)"/>
          <circle class="cls-46" cx="605.85" cy="131.61" r="7.5" transform="translate(254.07 642.13) rotate(-67.69)"/>
          <circle class="cls-50" cx="587.24" cy="102.66" r="7.5" transform="translate(-8.84 111.56) rotate(-10.77)"/>
        </g>
      </g>
      <g>
        <polygon class="cls-40" points="323.59 97.14 303.35 76.59 339.86 75.73 339.92 78.14 309 78.88 325.31 95.45 323.59 97.14"/>
        <g>
          <circle class="cls-33" cx="339.89" cy="76.93" r="5.44"/>
          <circle class="cls-46" cx="307.19" cy="78.24" r="5.44"/>
          <circle class="cls-50" cx="324.45" cy="96.3" r="5.44" transform="translate(-13.97 99.43) rotate(-17.06)"/>
        </g>
      </g>
      <g class="cls-53">
        <g>
          <path class="cls-32" d="M527.39,39.33c0-.08-.02-.14-.04-.21-.02-.07-.06-.14-.1-.2-.05-.08-.12-.14-.2-.21,0,0,0,0,0,0-1.2-.95-5.38-.61-10.52.79l-.51.92-1.38,2.54-.05.02-.65,1.2.05-.02h0s-1.89,3.5-1.89,3.5c.98-.28,1.99-.59,3.02-.94,5.63-1.92,10.17-4.37,11.71-6.18l.84,2.49c.37,1.1-3.81,4.25-11.48,6.88-.86.29-1.72.57-2.57.81-6.52,1.89-10.41,1.68-10.7.8l-.86-2.53h0s0,0,0,0c1.7.36,4.89,0,8.7-.96l1.87-3.39.66-1.21,1.96-3.57c-.73.22-1.48.46-2.24.72-6.73,2.29-11.89,5.35-12.25,7.15-.02.09-.02.17-.02.25,0,.07.02.14.04.2.02.07.05.13.1.19l1.17,3.44c.73,2.17,6.83,1.24,11.83-.2.86-.25,1.74-.53,2.61-.83,6.58-2.26,12.83-5.75,12.05-8.05l-1.15-3.4Z"/>
          <polygon class="cls-32" points="515.26 39.86 515.26 39.86 515.27 39.86 515.26 39.86"/>
        </g>
      </g>
      <g class="cls-53">
        <path class="cls-32" d="M457.17,117.07h-1.13c-.21-.68-.84-1.17-1.59-1.17h-3.73c-.75,0-1.37.49-1.59,1.17h-3.47v-3.25c0-2.14-1.74-3.88-3.88-3.88h-16.33c-2.15,0-3.89,1.74-3.89,3.88v3.25h-3.47c-.21-.68-.84-1.17-1.59-1.17h-3.73c-.75,0-1.37.49-1.58,1.17h-1.13c-1.36,0-2.45,1.1-2.45,2.45v30.46c0,1.36,1.1,2.45,2.45,2.45h47.11c1.35,0,2.45-1.1,2.45-2.45v-30.46c0-1.35-1.1-2.45-2.45-2.45ZM423.94,113.82c0-.83.68-1.51,1.51-1.51h16.33c.83,0,1.51.68,1.51,1.51v3.25h-19.34v-3.25ZM457.09,148.61c0,1.23-.99,2.22-2.22,2.22h-42.51c-1.23,0-2.23-1-2.23-2.22v-27.73c0-.79.41-1.49,1.04-1.88.08-.05.16-.1.25-.14s.18-.08.27-.11c.11-.03.21-.06.33-.08s.23-.03.35-.03h42.51c.12,0,.23,0,.34.03.11.02.22.04.33.08.19.06.36.14.52.24.62.39,1.03,1.09,1.03,1.88v27.73Z"/>
        <path class="cls-32" d="M433.61,126.45c-4.58,0-8.29,3.71-8.29,8.29s3.71,8.3,8.29,8.3,8.3-3.72,8.3-8.3-3.72-8.29-8.3-8.29ZM438.58,135.68h-4.03v4.03h-1.87v-4.03h-4.03v-1.87h4.03v-4.03h1.87v4.03h4.03v1.87Z"/>
      </g>
      <g class="cls-53">
        <path class="cls-32" d="M65.1,53.1l-5.37-9.31h-9.98l-5.12-8.87h-10.75l-5.37,9.31,5.12,8.87-5.12,8.87,5.37,9.31h10.75l5.12-8.87h9.98l5.37-9.31ZM35.18,37.18h8.13l4.07,7.04-4.07,7.04h-8.13l-4.07-7.04,4.07-7.04ZM43.31,69.02h-8.13l-4.07-7.04,4.07-7.04h8.13l4.07,7.04-4.07,7.04ZM50.29,60.14l-4.07-7.04,4.07-7.04h8.13l4.07,7.04-4.07,7.04h-8.13Z"/>
      </g>
      <g class="cls-53">
        <circle class="cls-32" cx="213.56" cy="37.97" r="3.67" transform="translate(-3.3 33.57) rotate(-8.92)"/>
        <path class="cls-32" d="M202.69,51.71c2.91-.61,7.13-5.57,7.53-7.19,0,0-3.06-1.41-3.46-5.05-.4-3.64-.18-4.53-1.77-4.74-1.59-.21-18.74,7.14-23.14,7.92,0,0,.35.4,2.19-.03.06-.01.12-.03.2-.05-.63.41-1.87,1.35-.93,1.91,1.22.73,7.28-.7,7.28-.7,0,0-4.89,1.35-3.95,2.6.95,1.25,6.52.28,6.52.28,0,0-2.69,1.74-1.77,2.75.92,1.01,5.75-1.01,5.75-1.01,0,0-2.52,2.23-.87,2.78,1.65.55,5.28-1.7,5.28-1.7,0,0-1.74,2.83,1.16,2.22Z"/>
        <path class="cls-32" d="M245.27,42.65c-4.41-.78-21.55-8.14-23.14-7.92-1.59.21-1.38,1.1-1.77,4.74-.4,3.64-3.46,5.05-3.46,5.05.4,1.62,4.62,6.58,7.53,7.19,2.91.61,1.16-2.22,1.16-2.22,0,0,3.63,2.25,5.28,1.7,1.65-.55-.87-2.78-.87-2.78,0,0,4.83,2.02,5.75,1.01s-1.77-2.75-1.77-2.75c0,0,5.57.98,6.52-.28.95-1.25-3.95-2.6-3.95-2.6,0,0,6.06,1.44,7.28.7.94-.56-.31-1.51-.93-1.91.08.02.14.04.2.05,1.84.43,2.19.03,2.19.03Z"/>
        <path class="cls-32" d="M220.72,52.84s-1.23-.65-2.71.21c-1.26.74-1.67,1.75-1.61,1.87.06.12,1.26,1.07,2.94.8,1.55-.25,2.08-1.1,2.08-1.1,0,0,3.52-.34,2.94,1.19-.58,1.53-3.64,2.51-5.48,2.54-.79.01-2.07.1-3.44.28.39-6.8.69-11.97.69-12.03,0-1.42-1.15-2.57-2.57-2.57s-2.57,1.15-2.57,2.57c0,.07.3,5.23.69,12.03-1.37-.18-2.65-.27-3.44-.28-1.84-.03-4.9-1.01-5.48-2.54-.58-1.53,2.94-1.19,2.94-1.19,0,0,.53.85,2.08,1.1,1.68.28,2.88-.67,2.94-.8.06-.12-.35-1.13-1.61-1.87-1.48-.86-2.71-.21-2.71-.21,0,0-3.86-1.15-5.57,1.26-1.65,2.33.88,4.87,3.46,5.64,1.27.37,3.14.61,5.05.85-1.19.94-1.54,2.03-1.42,3.1.13,1.13.93,2.53,2.96,3.61-2.03,1.05-3.57,2.69-3.52,5.06.04,2.09,3.09,4.13,5.02,5.58-.33.41-.59.86-.72,1.37-.23.88.25,1.72.95,2.55-.62.67-1.32,1.39-1.79,2.17-2.36,4.72,2.21,7.41,2.21,7.41-1.23-1.59-1.53-2.94-1.65-5.21-.05-.96.79-1.91,1.74-2.87.27,4.77.46,8.03.46,8.03,0,0,.19-3.27.46-8.03.94.96,1.79,1.91,1.74,2.87-.12,2.27-.43,3.61-1.65,5.21,0,0,4.56-2.7,2.21-7.41-.47-.77-1.17-1.49-1.79-2.17.7-.83,1.18-1.67.95-2.55-.13-.51-.39-.96-.72-1.37,1.93-1.46,4.99-3.49,5.02-5.58.04-2.37-1.5-4.01-3.52-5.06,2.03-1.08,2.83-2.48,2.96-3.61.12-1.07-.22-2.16-1.42-3.1,1.91-.24,3.78-.48,5.05-.85,2.58-.76,5.11-3.31,3.46-5.64-1.71-2.41-5.57-1.26-5.57-1.26ZM211.19,61.9c.19-.1.41-.19.65-.27.08,1.34.16,2.73.24,4.13-1.73-.97-2.81-2.86-.89-3.86ZM209.76,73.33c-1.2-1.81.39-3.25,2.5-4.33.14,2.4.28,4.81.41,7.1-1.04-.79-2.15-1.62-2.91-2.77ZM217.35,73.33c-.76,1.15-1.87,1.98-2.91,2.77.13-2.29.27-4.7.41-7.1,2.11,1.08,3.7,2.52,2.5,4.33ZM215.03,65.76c.08-1.4.16-2.79.24-4.13.24.08.46.17.65.27,1.91,1,.84,2.89-.89,3.86Z"/>
      </g>
      <g class="cls-53">
        <path class="cls-32" d="M108.27,278.1s-6.74-8.23-1.37-20.66c2.15-4.96,5.73-9.17,10.15-12.28,5.92-4.16,10.65-4.62,14.77-4.71,0,0,4.83,10.36.96,21.79-5.47,16.14-20.08,16.11-20.08,16.11,0,0,4.18-18.41,14.94-31.08,0,0-12.67,11.96-19.37,30.84Z"/>
        <path class="cls-32" d="M100.05,278.46s4.48-7.53.09-14.08c-4.39-6.55-9.86-8.25-14.17-8.7,0,0-3.92,8.52.48,16.14,4.39,7.62,10.91,6.81,10.91,6.81,0,0-4.3-15.69-8.52-18.83,0,0,10.22,6.81,11.21,18.65Z"/>
      </g>
    </g>
  </g>
</svg>