<?xml version="1.0" encoding="UTF-8"?>
<svg id="Layer_9" data-name="Layer 9" xmlns="http://www.w3.org/2000/svg" viewBox="0 0 100.28 100.28">
  <defs>
    <style>
      .cls-1 {
        fill: #607d8a;
      }

      .cls-2 {
        fill: #ee5350;
      }

      .cls-3 {
        fill: #dfdfdf;
      }

      .cls-4 {
        fill: #e99;
      }
    </style>
  </defs>
  <path class="cls-2" d="M13.78,21.93c.73-.22,1.47-.4,2.23-.43,4.03-.19,8.36-.13,12.31.43,1.61,0,3.24,0,4.85,0,2.16-.5,4.31-.5,6.46,0,7-.51,14.01-.51,21.01,0,2.16-.5,4.31-.5,6.46,0,1.61,0,3.24,0,4.85,0,3.96-.56,8.29-.62,12.31-.43.76.04,1.5.22,2.23.43,7.01.14,11.48,1.91,12.9,9.42l.02,53.71c-.55,5.18-4.58,9.16-9.79,9.61H10.84c-5.28-.37-9.29-4.2-9.97-9.43l-.03-53.52c1.22-7.73,5.77-9.65,12.94-9.79Z"/>
  <path class="cls-1" d="M67.12,21.93c-2.15,0-4.31,0-6.46,0l-.45-.53c.19-2.94.16-5.82-.1-8.66h-19.85s-.21.35-.21.35v8.61s-.41.24-.41.24c-2.15,0-4.31,0-6.46,0,.36-3.44-.67-8.16.45-11.37.92-2.64,3.38-4.42,6.12-4.79,6.65.36,13.82-.49,20.41-.01,3.7.27,6.65,3.04,6.97,6.77.26,3-.21,6.36,0,9.4Z"/>
  <path class="cls-1" d="M28.33,21.93c-4.84.01-9.71-.1-14.55,0,.13-.79-.41-2.91.55-3.19l13.6.06c.74.36.28,2.37.4,3.13Z"/>
  <path class="cls-1" d="M86.51,21.93c-4.84-.1-9.7.01-14.55,0,.13-.79-.41-2.91.55-3.19l13.6.06c.74.36.28,2.37.4,3.13Z"/>
  <path class="cls-3" d="M48.08,31.69c21.19-1.55,35.87,21.22,25.25,39.8-10.24,17.91-36.21,17.93-46.38,0-9.63-16.97,1.78-38.38,21.13-39.8Z"/>
  <path class="cls-4" d="M4.09,32.13c.22-.77,1.62-.48,1.62,0v11.92c0,.62-1.62.62-1.62,0v-11.92Z"/>
  <path class="cls-4" d="M4.09,48.3c.22-.77,1.62-.48,1.62,0v3.84c0,.62-1.62.62-1.62,0,0-.85-.17-3.23,0-3.84Z"/>
  <path class="cls-2" d="M55.8,52.64h10.81c.36,0,.49.8.52,1.1.2,1.95.25,7.44,0,9.32-.04.27-.26.9-.52.9h-10.81v10.81c0,.26-.63.48-.9.52-1.88.25-7.36.2-9.32,0-.3-.03-1.1-.16-1.1-.52v-10.81h-10.81c-.36,0-.49-.8-.52-1.1-.2-1.95-.25-7.44,0-9.32.04-.27.26-.9.52-.9h10.81v-10.81c0-.36.8-.49,1.1-.52,1.95-.2,7.44-.25,9.32,0,.27.04.9.26.9.52v10.81Z"/>
</svg>