<?xml version="1.0" encoding="UTF-8"?>
<svg id="Layer_9" data-name="Layer 9" xmlns="http://www.w3.org/2000/svg" viewBox="0 0 100.28 100.28">
  <defs>
    <style>
      .cls-1 {
        fill: #fedd2b;
      }

      .cls-2 {
        fill: #c24a01;
      }

      .cls-3 {
        fill: #c34b01;
      }

      .cls-4 {
        fill: #fecd00;
      }

      .cls-5 {
        fill: #feef71;
      }

      .cls-6 {
        fill: #feee6f;
      }

      .cls-7 {
        fill: #feef72;
      }

      .cls-8 {
        fill: #fef47c;
      }

      .cls-9 {
        fill: #e96f00;
      }

      .cls-10 {
        fill: #fea208;
      }

      .cls-11 {
        fill: #bc4300;
      }

      .cls-12 {
        fill: #fe9300;
      }

      .cls-13 {
        fill: #bb4300;
      }

      .cls-14 {
        fill: #fea30f;
      }
    </style>
  </defs>
  <path class="cls-8" d="M47.27.94c.82.16,1.67.17,2.5,0h.96c.76.16,1.54.17,2.3,0h1.15l5.42.82c19.45,3.73,35.15,19.45,38.89,38.9l.82,5.42v1.15c-.16.69-.17,1.42,0,2.11v1.54c-.16.69-.17,1.42,0,2.11-.02.44.03.9,0,1.34-.2,2.54-.94,6-1.59,8.49-.59,2.25-1.37,4.62-2.44,6.68v-1.2c6.28-18.59,1.26-39.32-13.39-52.51C59.53-4.31,25.24.42,8.45,25.01l-.93.71C13.93,13.89,25.75,5.31,38.82,2.19l7.3-1.25h1.15Z"/>
  <path class="cls-5" d="M49.77.94c-.58.32-1.88.33-2.5,0h2.5Z"/>
  <path class="cls-7" d="M53.03.94c-.51.32-1.75.33-2.3,0h2.3Z"/>
  <path class="cls-6" d="M99.32,49.34c-.32-.45-.33-1.63,0-2.11v2.11Z"/>
  <path class="cls-5" d="M99.32,52.99c-.32-.45-.33-1.63,0-2.11v2.11Z"/>
  <path class="cls-4" d="M95.28,69.51c-.71,1.97-1.74,3.89-2.88,5.57-.31.63-.77,1.4-1.34,1.73-13.37,20.26-40.71,26.52-62.11,15.77C7.48,81.79-3.99,55.89,4.25,33.02c.16-.63.35-1.27.58-1.92.83-1.96,1.52-3.57,2.69-5.38C22.19,3.05,52.4-4.21,75.48,10.47c19.83,12.6,27.73,36.89,19.8,59.05Z"/>
  <path class="cls-12" d="M4.25,33.02c-10.68,34.67,17.42,68.68,53.46,63.93,13.68-1.8,25.25-9.19,33.35-20.14.27-.25.37-.15.19.19-15.91,24.39-49.37,29.78-72.11,11.33C2.71,75.01-3.3,52.77,4.06,32.83c.2-.28.26-.21.19.19Z"/>
  <path class="cls-10" d="M91.25,77l-.19-.19c.41-.55,1-1.21,1.34-1.73-.11.77-.75,1.31-1.15,1.92Z"/>
  <path class="cls-14" d="M4.25,33.02l-.19-.19c.22-.6.52-1.15.77-1.73.13.72-.4,1.35-.58,1.92Z"/>
  <path class="cls-8" d="M47.81,12.71c30.04-1.87,50.09,31.01,34.38,56.86-13.93,22.92-46.93,24.14-62.54,2.31-17.09-23.91-.99-57.35,28.16-59.16Z"/>
  <path class="cls-9" d="M76.08,73.93c-.21.56-.59,1.07-1.15,1.54-4.13,4.99-13.02,8.83-19.33,9.76C21.88,90.22,1,49.93,24.8,25.33c.45-.39.89-.71,1.34-.96,6.1-5.58,15.38-7.78,23.53-7.21,22.95,1.59,38.54,23.85,32.04,46.02-1.12,3.83-2.83,7.88-5.63,10.75Z"/>
  <path class="cls-13" d="M76.27,74.12c-.27.25-.37.15-.19-.19,9.06-12.78,9-29.9-.5-42.43-11.67-15.39-33.82-18.69-49.43-7.13-.27.25-.37.15-.19-.19,14.57-13.7,37.5-12.64,50.8,2.3,12.1,13.6,11.92,34.34-.48,47.64Z"/>
  <path class="cls-2" d="M76.27,74.12c-.43.46-.77,1.02-1.34,1.34.27-.33.87-1.13,1.15-1.54l.19.19Z"/>
  <path class="cls-3" d="M26.14,24.37c-.45.33-.79.87-1.34.96.39-.4.74-.76,1.15-1.15l.19.19Z"/>
  <path class="cls-1" d="M64.75,33.79c.17.59-.18.69-.69.76-2.36.05-4.71.06-7.07.02.44.59.53,1.1.27,1.53-.01.15-.05.32-.17.38-.2.1,1.42,3.9,1.57,4.07l5.53-.05c.65.05.8.41.95.97.01.86-.17,1.58-.19,2.3.09.85-.54.98-1.24,1.11-1.64-.03-3.27-.05-4.9-.08-1.04,3.45-2.1,6.05-5.21,8.32-2.29,1.67-5.05,2.62-7.83,3.06.7.55.95,1.02.74,1.42-.06.34-.33.5-.82.49l14.5,16.46c.13.16.05.34-.05.52-.05.06-.13.16-.19.19l-.13.47c-1.35.18-7.04.55-7.81-.3-5.11-6.16-10.35-12.11-15.73-17.87-.71-.61-1.02-1.31-.92-2.08-.32-1.04.01-1.3-.02-2.04-.03-.77-.49-1.83.02-2.57.29.09.43.37.43.83,2.32-.25,4.64-.36,6.99-.34,2.28-.12,4.45-1.04,6.03-2.66.54-.56,1.5-1.62.76-2.25-.37-.4.29-1.73.77-1.92-.02.15-.07.38-.18.38-4.31.12-9.01.12-13.32,0l-.23-.38c-.24.72-1.51-.01-1.25-.77.01-1.37-.45-2.76,0-4.03.31.19.47.57.48,1.15.02-.15.07-.38.18-.38,3.86-.12,8.04-.09,11.92,0,.89-.15,1.57-.02,2.02.38-.54-.33-1.6-1.22-1.34-1.92,1.4-.44-.21-1.56-1.03-2.05-3.12-1.35-6.46-1.78-10.01-1.31-1.53.17-2.27-.19-2.22-1.06,0-1.32-.25-2.92-.19-4.23.35-.07.64-.01.86.19l.13-.38h27.86l.24.38c.18-.35.41-.67.67-.96.47,1.34-.12,2.83-.19,4.23Z"/>
  <path class="cls-8" d="M64.94,29.56v1.54c-.24,0-.57-.58-.67-.58h-28.23c-.39,0-.38.57-.67.58l-.19-.77c.03-.63.06-1.41.76-1.64l27.97-.09c.67.03.86.43,1.05.97Z"/>
  <path class="cls-13" d="M59.94,75.27c.71.7.79,1.82-.33,2.07-.93.21-5.43.17-6.49.05-.32-.04-.6-.08-.85-.3-3.45-3.86-6.69-7.9-10.09-11.81-1.26-1.45-6.72-6.89-6.97-8.2-.08-.44-.2-1.23.15-1.59.14.46.3.68.58,1.05,1.74,2.27,4.31,4.6,6.24,6.82,3.4,3.9,6.64,7.94,10.09,11.81.31.28.65.27,1.04.31,1.52.14,4.25.12,5.78,0,.36-.03.52-.04.85-.2Z"/>
  <path class="cls-13" d="M64.94,43.77c-.01.3.32.83.15,1.59-.51,2.24-5.78.26-6.63,1.14-.12.13-.65,2.36-.86,2.89-1.83,4.63-6.25,7.14-10.9,8.21-.06.17-.13.17-.19,0-.1-.38-1.61-1.43-1.34-1.73,5.21-.64,10.42-3.3,12.44-8.4.21-.52.74-2.76.86-2.89.81-.84,5.54.91,6.49-.81Z"/>
  <path class="cls-8" d="M49.57,46.46c.35.02.82-.2.76.28-.23,1.97-3.01,3.89-4.75,4.47-3.19,1.07-6.4.29-9.55.82-.31.05-.42.29-.67.38.05-.48-.08-1.08,0-1.54.04-.26.06-.4.28-.58.83-.71,5.33-.27,6.73-.38,2.44-.18,5.77-1.21,7.01-3.45.04-.17.1-.16.19,0Z"/>
  <path class="cls-11" d="M35.36,43.77c.07.38.97.77,1.25.77h13.73c.04.75-.47,1.3-.77,1.92-.06,0-.13,0-.19,0-3.86-.13-9.1.49-12.72-.05-1.13-.17-1.48-.61-1.51-1.78,0-.43.21-.8.21-.86Z"/>
  <path class="cls-8" d="M46.5,57.6c.06-.01.13.01.19,0,4.61,5.53,9.56,10.84,13.83,16.63.04.44-.14.58-.39.85l-14.98-17c-.2-.46,1.1-.42,1.34-.48Z"/>
  <path class="cls-13" d="M35.36,34.55c.14.32.32.51.68.57,1.53.28,4.05-.1,5.76,0,2.9.18,6.91.84,8.16,3.84-.45.01-.9-.01-1.34,0-.04.17-.1.17-.19,0-1.93-1.4-4.47-1.8-6.81-1.93-1.41-.08-4.65.3-5.73-.03-.66-.2-.73-1.41-.72-1.99,0-.25.2-.44.2-.47Z"/>
  <path class="cls-8" d="M48.42,38.97c.06,0,.13,0,.19,0,.42.65,1.24,1.16,1.34,1.92h-14.12c-.08,0-.28.4-.48.38.05-.48-.07-1.07,0-1.54.08-.52.31-.77.86-.78,4.07-.04,8.14.08,12.2,0Z"/>
  <path class="cls-8" d="M57.26,36.09c.41.92.77,1.86,1.14,2.79.63.42,4.9-.21,6.02.13.88.26.7,1.77.71,2.46-.32-.18-.48-.5-.87-.57-1.08-.21-5.32.27-5.86-.09-.75-1.52-1.03-3.27-2.1-4.62.2-.19.67-.09.96-.09Z"/>
  <path class="cls-13" d="M64.75,33.79s.21.23.2.47c-.02.59.15,1.56-.57,1.75-1.48.41-5.33.04-7.12.08-.3-.67-.53-1.32-.96-1.92,2.45-.17,5.18.23,7.59,0,.34-.03.66-.06.86-.39Z"/>
</svg>