<?xml version="1.0" encoding="UTF-8"?>
<svg id="Layer_9" data-name="Layer 9" xmlns="http://www.w3.org/2000/svg" viewBox="0 0 100.28 100.28">
  <defs>
    <style>
      .cls-1 {
        fill: #f0d1cc;
      }

      .cls-2 {
        fill: #feeadb;
      }

      .cls-3 {
        fill: #2ad0a6;
      }

      .cls-4 {
        fill: #b4f1d8;
      }

      .cls-5 {
        fill: #41d5ad;
      }

      .cls-6 {
        fill: #a2e8fa;
      }

      .cls-7 {
        fill: #fe407e;
      }

      .cls-8 {
        fill: #fdac44;
      }

      .cls-9 {
        fill: #fecc71;
      }

      .cls-10 {
        fill: #e1035a;
      }

      .cls-11 {
        fill: #6cbdfe;
      }

      .cls-12 {
        fill: #4bd8b1;
      }

      .cls-13 {
        fill: #20cea1;
      }

      .cls-14 {
        fill: #fedab0;
      }

      .cls-15 {
        fill: #0094f1;
      }

      .cls-16 {
        fill: #de0a5c;
      }

      .cls-17 {
        fill: #21cea2;
      }
    </style>
  </defs>
  <path class="cls-14" d="M89.21,23.87c.17,2.73,1.45,5.73,3.21,7.83,2.02,2.39,5.36,3.43,6.03,6.89v50.96c-.89,2.72-2.85,4.84-5.85,5.1v-.54c1.04-1.08,1.79-2.39,1.9-3.91v-49.59c-.15-1.67-1.05-3.05-2.31-4.1-3.2-2.22-5.45-4.93-6.62-8.77l.15-.65-.13.38c-9.54,0-19.09,0-28.66,0l-1.5-.38c1.21.16,2.16.57,3.11,1.32l15.63.08c1.17.34,1.51,1.56,1.02,2.61-.24.51-.8,1.17-1.17.52-.02.15-.07.37-.18.38-3.98.12-8.61.2-12.57,0-.7.13-1.14,0-1.31-.38.45.13.56.31.19.66l.38.13v15.4l-.38.23.13-.38c9.94.06,19.89.12,29.83.19l.23.38c-10.06.37-20.13.37-30.2,0-.18.63-2.54.58-2.83,0,.06-5.15,0-10.31-.19-15.48l-.44-.21c-.27-1.19-1.08-2.05-2.32-2.21l-.26-.41c-.58-.09-1.14-.15-1.7-.19.85-1.89,1.56-3.79,1.89-5.85.05-.6.8-.45,1.19-.16.74,1.04,1.55,1.31,2.22.07.67-.42,6.85-.53,7.57-.19.9.93,1.64,1.62,2.44.19.67-.42,6.85-.53,7.57-.19.9.93,1.64,1.62,2.44.19.77-.49,6.92-.52,7.73-.07.88,1.12,1.6,1.27,2.46.03.45-.21,1.16-.46,1.31.13Z"/>
  <path class="cls-4" d="M52.41,29.72c.51-.02,1.34-.13,1.7.19.03.28-.15.42-.53.4.86.66,1.37,1.66,1.47,2.73v39.1c-.04.16-.09.32-.18.47-2,.37-3.92.96-5.76,1.8-1.17-.36-2.32-.8-3.44-1.32-1-.08-1.38-.4-1.12-.95,2.59-.77,4.65-1.76,5.95-4.3,2.09-4.1.46-9.34-3.87-11.16-10.06-4.22-16.17,10.79-6.22,14.8l.3.52c.04.21-.21.33-.75.38l-.45.42c-4.5.63-8.55,3.59-10.61,7.62-.33,1.09-.81,2.04-1.45,2.83l-18.1.07c-1.21.3-.47,1.83-.05,2.45,0-.15.04-.38.13-.38,5.21-.12,10.98-.2,16.19,0,.7-.12,1.14,0,1.33.38.16.2.31.41.35.67.13.76.29,2.74.28,3.52,0,.26-.12.5-.26.71-6.9-.09-14.77.77-21.61.19-2.33-.2-3.7-1.23-3.88-3.67v-53.99c.16-1.75,1.2-2.95,2.93-3.3h22.28c1.22.19,1.96.95,2.64,1.89.64-1,1.41-1.71,2.64-1.89,6.7-.03,13.42.14,20.1-.18Z"/>
  <path class="cls-2" d="M92.61,94.64c-7.2.61-16.18,0-23.59,0l-.02-.76c2.11-4.13,2.15-9.02.17-13.2l.04-.76c7.04-.37,14.09-.37,21.14,0v-8.49c-.49-.18-.49-.36,0-.54v-22.68l-30.2-.19v-15.76c0-.1-.3-.4-.19-.66h14.06c.98,0,1.67-2.41-.04-2.79l-15.62-.04-.98-.72-1.95-.98h30.29c.75,1.88,1.39,3.67,2.58,5.35,2.21,3.09,6.15,3.87,6.57,8.15v49.64c-.15,1.87-1,3.14-2.26,4.43Z"/>
  <path class="cls-6" d="M49.01,77.47c1.48.14,2.8,2.16,3.51,3.45,2.33,4.23,1.96,9.84-.92,13.72-.43.57-1.34,1.72-1.92,2.03-.21.11-.45.09-.67.05-7.03,5.25-17.58,1.07-19.06-7.55-.04-.25-.2-.39-.45-.46-1.22-8.52,6.91-15.64,15.21-13.64,1.42.34,3.74,1.07,4.3,2.4Z"/>
  <path class="cls-13" d="M54.11,29.91c1.78.16,2.67,1.14,3.02,2.83.17,13.21.13,26.42,0,39.63.15.82.16,1.97,0,2.83-.76.35-1.63.52-2.63.49-.95.31-1.84.4-2.66.27-.43.72-2,1.67-2.83,1.51-8.76-6.35-20.9,1.04-19.06,11.7-.23-.2-.11-.59-.46-.17-.73.88-.96,1.38-2.18,1.68-.31-1.63-.48-3.24-.38-4.91H9.28c-1.07,0-1.55-2.53,0-2.83l18.09-.03c.57-.9.8-1.98,1.34-3,2.12-4,6.68-7.19,11.23-7.55.4-.13.73-.21,1.14-.14.03,0-.53.02-.39-.24-10.82-3.89-4.92-19.78,5.85-15.76,6.59,2.46,7.02,12.11.76,15.29l-2.83,1.03c1.05-.35,3.99,1.52,4.59,1.47.28-.02,2.29-.99,2.96-1.18.85-.24,1.75-.44,2.64-.47v-39.35c-.19-1.51-1.06-2.52-2.45-3.02,0-.15,1.62-.12,1.89-.09Z"/>
  <path class="cls-13" d="M58.07,5.75l.38.18v14.69l-.38.23c0-.15.04-.37.13-.38.83-.05,6.55-.21,6.82,0l.22.38-.38-.18V5.98l.38-.23c.88-.96,2.01-1.14,2.83,0l.38.18v14.69l-.38.23c0-.15.04-.37.13-.38.83-.05,6.55-.21,6.82,0l.22.38-.38-.18V5.98l.38-.23c.88-.96,2.01-1.14,2.83,0l.38.18v14.69l-.38.23c0-.15.04-.37.13-.38.83-.05,6.55-.21,6.82,0l.22.38c-.15-.02-.37-.07-.38-.18-.12-4.78-.12-9.91,0-14.69l.38-.23c.88-.96,2.01-1.14,2.83,0l.38.18.02,14.55h4.61s.28.38.28.38c-.15,3.75-.97,2.88-4.15,3.02-1.69.07-.86.26-1.71.84-1.43.98-1.98-.73-2.54-.84-.61-.12-6.6-.08-6.89.1-.36.22-.41,1.04-1.42,1.02-.91-.02-1.22-1.02-1.69-1.11-.6-.12-6.6-.08-6.89.1-.36.22-.41,1.04-1.42,1.02-.91-.02-1.22-1.02-1.69-1.11-.6-.12-6.6-.08-6.89.1-.36.22-.41,1.04-1.42,1.02-.9-.02-1.19-.94-1.54-1.08-.24-.09-.56-.02-.81-.03-2.3-.13-4.47.75-4.35-2.56,0-.24.2-.44.2-.46l.17-.38,4.55-.04V6.49c-.03-.49.08-.64.57-.74.53-1.14,2.02-.98,2.64,0Z"/>
  <path class="cls-11" d="M57.13,75.2c.02-.17.08-.16.19,0l.45-.33c3.1.49,6.06,2.08,8.09,4.49l-.05.56.65.27c2.83,4.33,2.64,10.01-.37,14.2l-.65.24c-3.36,4.25-9.01,5.47-13.97,3.4l.14-.53c1.75-1.49,3.07-3.38,3.95-5.67,1.37-.24,2.8-.3,4.27-.19,1.43-.02,1.75-1.19.74-2.06l.06-.43c-.02.15-.06.36-.17.38-.36.05-3.35.07-3.62,0l-.27-.38-.32-.71c.29-4.35-1.28-8.54-4.21-11.75l-.18-.75c1.68-.59,3.51-.86,5.28-.75Z"/>
  <rect class="cls-4" x="58.07" y="5.75" width="7.17" height="15.1"/>
  <rect class="cls-4" x="68.07" y="5.75" width="7.17" height="15.1"/>
  <rect class="cls-4" x="78.08" y="5.75" width="7.17" height="15.1"/>
  <path class="cls-15" d="M51.84,75.96c3.49,3.63,5.22,8.12,4.72,13.21h4.06c.11,0,.8.77.85,1.05.55,2.93-4.05,1.34-5.67,1.87-.98,2.19-2.18,4.72-4.33,5.95-.87-.36-1.71-.71-2.45-1.32,6.15-4.59,6.27-14.71,0-19.25.97-.58,1.75-1.13,2.83-1.51Z"/>
  <path class="cls-4" d="M93.36,20.85h-5.29s0-15.1,0-15.1c2.36.27,5.02-1.07,5.29,2.16.31,3.71.15,9.14,0,12.93Z"/>
  <path class="cls-4" d="M55.43,5.75c-.13.28-.23.52-.2.84v14.26s-5.09,0-5.09,0c.1-4.72-.15-9.45.09-14.16.48-1.53,3.92-.74,5.2-.93Z"/>
  <path class="cls-14" d="M69.02,79.92c.05-.16.12-.16.19,0,2.44,4.63,2.39,10.17-.19,14.72h-3.59c3.36-4.25,3.59-10.29.38-14.72l.21-.38c.75-.1,2.54-.18,3,.38Z"/>
  <path class="cls-7" d="M90.34,48.22v22.84c-10.06.15-20.14.15-30.2,0l-.27-1.14c-.21-6.85-.2-13.7.04-20.56l.24-1.14h30.2Z"/>
  <path class="cls-10" d="M60.15,48.22c.13,7.6-.17,15.23,0,22.84-.97.12-1.94.14-2.93.06-.04-7.63-.01-15.26.09-22.89h2.83Z"/>
  <path class="cls-5" d="M57.32,48.22c.02,7.61-.02,15.23,0,22.84.94,0,1.89,0,2.83,0,.17.03.16.1,0,.19-.82.46-1.78.5-2.67.24.41.18.24.71-.16.89-.05.16-.12.16-.19,0v-39.63c.78,3.75.18,11.26.19,15.48Z"/>
  <path class="cls-13" d="M29.14,34.48c.87-.2,1.34.03,1.84.72l.1,38.03c-.22,1.93-2.64,1.75-2.84.19v-37.58c-.02-.65.23-1.21.9-1.37Z"/>
  <path class="cls-13" d="M14.43,36.94c7.31-1,12.4,7.03,8.24,13.15-3.8,5.59-12.65,4.48-14.89-1.88-1.74-4.94,1.4-10.56,6.65-11.27Z"/>
  <path class="cls-13" d="M42.18,36.95c12.51-1.51,12.71,18.01.14,16.74-9.55-.97-9.79-15.58-.14-16.74Z"/>
  <path class="cls-13" d="M15.19,55.63c10.44-.56,12.21,14.6,2.35,16.7-11.82,2.52-14.16-16.06-2.35-16.7Z"/>
  <path class="cls-17" d="M8.68,78.66c.7-.64,5.21-.63,5.97-.14.69.45.81,1.7.19,2.25-.71.63-4.17.61-5.14.43-1.18-.21-2.04-1.6-1.02-2.54Z"/>
  <path class="cls-12" d="M40.71,72c.22.08.52.04.57.38-.44.03-.89-.03-1.32,0l.75-.38Z"/>
  <path class="cls-4" d="M60.15,71.24c10.06-.16,20.14-.15,30.2,0v8.68h-21.33c-.49-.29-.9-.76-1.22-1.43-.5-.46-.79-.93-.86-1.4-.16-.05-.16-.12,0-.19l.17-.38h10.79c1.1-.42.91-2.05-.3-2.08-3.98-.11-8.03-.11-12,.02-.37.18-.74.3-1.11.36l-.57.07c-1.19-.74-2.47-1.33-3.82-1.76-.42-.42-.62-1.7.05-1.9Z"/>
  <path class="cls-14" d="M77.64,28.82c.49-.11,3.45-.13,3.88,0,1.05.31,1.26,2.04.24,2.61-.48.27-3.67.29-4.27.1-1.12-.36-1.09-2.42.15-2.71Z"/>
  <path class="cls-1" d="M90.34,79.92v-8.68c-10.06.07-20.14-.09-30.2,0,0-.06,0-.13,0-.19,10.06.09,20.14-.06,30.2,0v-22.84s0,31.71,0,31.71Z"/>
  <path class="cls-11" d="M35.93,85.43c.55-.16,1.09-.04,1.56.25.57.36,5.24,5.03,5.67,5.65,1.07,1.53-.49,3.06-2.07,2.07-.78-.49-4.7-4.5-5.39-5.37-.66-.82-1.06-2.22.23-2.6Z"/>
  <path class="cls-8" d="M42.36,58.08c8.26-1.22,9.59,11.08,1.83,12.02-7.97.97-9.31-10.91-1.83-12.02Z"/>
  <path class="cls-3" d="M57.32,75.2c-.06,0-.13,0-.19,0v-2.83h.19c.55.74.59,2.11,0,2.83Z"/>
  <path class="cls-13" d="M60.15,71.24c.01.45-.14,1.34.19,1.61.22.18,1.84.63,2.34.87.66.33,1.21.7,1.82,1.11l.47,1.36c.69.29,1.36.6,1.99.9.54.15,1.95,2.18,2.08,2.83h-3.21c-1.79-2.47-5.46-4.45-8.49-4.72.02-.94-.03-1.89,0-2.83.01-.38-.01-.76,0-1.13.94,0,1.89,0,2.83,0Z"/>
  <path class="cls-4" d="M73.92,57.84c1.3-.1,3.51-.15,3.92,1.46.69,2.69-1.74,3.39-3.92,3.07.1,1.3.15,3.51-1.46,3.92-2.66.68-3.35-1.77-3.07-3.92-1.47.08-3.54.2-3.92-1.65-.53-2.59,1.87-3.14,3.92-2.88-.14-1.3-.01-3.65,1.61-3.95,2.67-.5,3.19,1.81,2.92,3.95Z"/>
  <path class="cls-8" d="M15.7,39.27c8.13,0,7.77,12.19,0,12.12-7.91-.08-7.93-12.11,0-12.12Z"/>
  <path class="cls-8" d="M43.44,39.26c7.97.09,7.76,12.17-.16,12.09-7.88-.09-7.87-12.18.16-12.09Z"/>
  <path class="cls-8" d="M14.61,58.08c8.31-1.31,9.71,11.15,1.82,12.01-7.94.87-9.08-10.87-1.82-12.01Z"/>
  <path class="cls-7" d="M66.94,76.9c-.85-.19-2.23-1.24-2.45-2.08.26-.52.67-.69,1.22-.76,3.66-.43,8.14.33,11.9,0,1.71.17,1.91,2.23.37,2.83h-11.04Z"/>
  <path class="cls-16" d="M66.94,76.9v.19c-.26-.07-.74.01-1.14-.08-1.09-.27-1.89-1-1.31-2.18.86.58,1.8,1.29,2.45,2.08Z"/>
  <path class="cls-9" d="M42.55,62.42c.72.78.6,3.09-.57,3.58-2.26.97-2.89-3.89-.59-4.01.26-.01,1.01.26,1.16.42Z"/>
  <path class="cls-9" d="M12.83,47.03c-.73-.59-.72-3.32.46-3.68,2.45-.73,2.52,3.45,1.05,3.89-.42.13-1.17.07-1.51-.21Z"/>
  <path class="cls-9" d="M41.03,43.35c2.55-.55,2.33,3.51,1.05,3.89-2.65.79-2.74-3.52-1.05-3.89Z"/>
  <path class="cls-9" d="M13.48,62.03c2.27-.46,2.45,3.89.48,4.08-2.13.2-2.09-3.75-.48-4.08Z"/>
</svg>