<?xml version="1.0" encoding="UTF-8"?>
<svg id="Layer_9" data-name="Layer 9" xmlns="http://www.w3.org/2000/svg" viewBox="0 0 100.28 100.28">
  <defs>
    <style>
      .cls-1 {
        fill: #87bb6d;
      }

      .cls-2 {
        fill: #f9f6f6;
      }

      .cls-3 {
        fill: #88bb6d;
      }

      .cls-4 {
        fill: #ace093;
      }

      .cls-5 {
        fill: #d4eec7;
      }

      .cls-6 {
        fill: #96d97b;
      }

      .cls-7 {
        fill: #ece0dc;
      }

      .cls-8 {
        fill: #c0e8ae;
      }

      .cls-9 {
        fill: #fdd302;
      }

      .cls-10 {
        fill: #fde35a;
      }
    </style>
  </defs>
  <path class="cls-4" d="M2.57,39.37c7.12-.3,14.23-.33,21.34-.1,18.97-.05,37.94-.02,56.91.1,2.66-.15,5.31-.28,7.96-.41,1.72.32,3.49.46,5.31.41,1.43.16,1.61,1.18,1.62,2.5-.04,5.91-.07,11.81-.08,17.71-.09.78-.66,1.13-1.35,1.33-4.49.32-8.98.32-13.46,0-20.19.12-40.56.15-61.1.1-.13.16-.26.29-.4.29-2.92.05-5.88.06-8.79,0-.1,0-.2-.13-.3-.3-2.59.09-5.15.06-7.66-.09-1.01-.24-1.26-.36-1.73-1.35v-19.03c.47-.57.89-1.2,1.73-1.15Z"/>
  <path class="cls-5" d="M66.39,9.19c.26.26.18.47.1.25-.2-.53,2.61,1.21,2.83,1.37,2.88,2.2,3.42,5.01,3.91,8.38.36,1.99,1.51,3.62,3.4,4.4l4.47,1.53c3.39,1.17,4.77,3.76,4.92,7.25.04.83-.43,6.39-.69,6.73-.07.1-.15.17-.24.17-1.42.06-2.87.02-4.28-.09l-.65-.63c-3.99-10.33-12.89-17.33-23.38-20.32l-.92.22c-14.97-2.65-30.47,5.61-35.72,20.05l-.52.47c19.11-.25,38.25-.42,57.35.21,1.29-.48,2.55-.47,3.84,0,.17.05.17.12,0,.19-26.08-.05-52.17.04-78.24,0l7.88-.19c.29-1.54-.66-2.75-1.02-4.08-1.4-5.13,1.25-10.76,6.4-12.36,1.77-.55,3.7-.28,5.12-1.7s1.15-3.47,1.75-5.27c1.66-5.06,7.26-7.63,12.32-6.25.83.23,1.63.78,2.53.93,3.37.57,4.08-2.14,6.16-3.86,3.65-3.01,9.05-3.01,12.69,0,1.56,1.28,2.44,3.47,4.6,3.86,2.05.37,3.46-.96,5.39-1.26Z"/>
  <path class="cls-5" d="M80.81,60.9c.17.05.17.12,0,.19-1.55.47-3.07.48-4.61,0-18.85.63-37.73.46-56.58.22l.51.47c3.25,9.02,10.79,15.84,19.82,18.87l.69.63c4.23.82,8.58,1.35,12.89.9,11.95-1.25,22.24-9.27,26.63-20.42l.66-.67c1.48-.19,2.92-.17,4.3.06.18,1.73.54,3.44,1.06,5.12.89,3.2-.49,6.21-3.75,7.14-5.25.97-8.25,3.41-9.32,8.74-1.11,3.2-3.94,5.28-7.38,4.82l-4.57-.54c-1.84-.15-3.4.58-4.53,2.01-2.58,4.12-7.54,6.56-12.34,5.72-2.28-1.65-3.21-4.83-6.58-4.37-1.31.18-2.66,1.11-4.11,1.27-4.47.5-9-1.74-10.68-6-.76-1.93-.47-4.34-1.96-5.83-1.38-1.38-3.11-1.13-4.82-1.62-5.26-1.49-8.1-7.06-6.74-12.3.36-1.39,1.35-2.64,1.06-4.23-2.33-.16-4.93.21-7.23.01-.37-.03-.48-.17-.65-.21h78.24Z"/>
  <path class="cls-8" d="M94.27,60.9c.33-.5,3.07-.51,3.33-.26.06.06.1.16.13.26-1.3.38-7.7-.04-7.99.37-.49.71.99,3.8,1.18,4.81.96,5.06-2.05,10.22-7.07,11.6-2.02.55-3.47.11-4.96,1.96-1.12,1.39-.83,2.55-1.24,4.14-1.35,5.18-6.3,7.96-11.49,7.25-2.07-.28-3.27-1.75-5.57-1.05-2.03.62-3.13,3.06-4.93,4.3-3.28,2.26-8.14,2.22-11.37-.12.82-.4,1.86-.11,2.76-.22,1.77-.2,4.32-1.11,5.83-2.05,2.7-1.7,3.49-5.44,7.08-5.8,3.81-.39,7.58,2.04,10.86-1.06,3.39-3.2,1.58-7.83,6.98-10.52,2.68-1.33,6.68-1.1,7.91-4.39,1.18-3.14-1.15-5.89-.86-9.03-1.34,0-2.69,0-4.04,0v-.19h13.46Z"/>
  <path class="cls-8" d="M97.73,39.37c-.82.6-2.68.45-3.65,0-4.42-.06-8.85,0-13.27,0v-.19c1.41,0,2.82,0,4.23,0,.14-3.51,1.4-7.06-.22-10.45-2.12-4.45-7.98-3.19-10.65-6.46-1.64-2.01-1.38-4.59-2.11-6.92-.9-2.9-2.85-4.45-5.48-5.68-.37-.17-.55.05-.2-.47,4.9-.76,9.88,2.33,11.2,7.16.56,2.04.14,3.59,2.06,5.06,1.28.98,2.45.75,3.89,1.11,5.13,1.29,8.29,6.32,7.41,11.52-.16.92-1.84,4.55-1.12,5.06s6.62-.35,7.89.28Z"/>
  <path class="cls-6" d="M97.73,39.37c1,.14,1.46.88,1.55,1.82.53,5.73-.42,12.26,0,18.08-.11.98-.66,1.37-1.54,1.63h-3.46c.26-.54.99-.76.97-1.43-.46-5.91.57-12.66,0-18.48-.09-.96-.5-1.04-1.17-1.62,1.11.01,2.62-.14,3.65,0Z"/>
  <path class="cls-1" d="M34.1,56.19c-.33,1.66-2.76,1.79-3.06-.2s-.27-9.43-.02-11.53c.13-1.1.57-1.54,1.63-1.64,1.31-.12,3.64-.1,4.85.36,3.91,1.47,3.76,7.3-.32,8.3-.34.36,3.38,3.64,3.22,4.48-1.54,4.3-4.65-1.92-6.29-3.14-.14,1,.19,2.43,0,3.36Z"/>
  <path class="cls-1" d="M84.8,43.26c1.19-.26,4.78-.11,5.92.34,5.23,2.06,4.97,11.79-.49,13.55-1.2.39-3.82.44-5.09.3-1.16-.13-1.35-.78-1.45-1.82-.24-2.53-.28-8.5,0-10.97.08-.66.41-1.24,1.1-1.4Z"/>
  <path class="cls-1" d="M17.31,44.24c.64.7.43,2.14-.46,2.4-1.24.37-2.44-.89-3.81-.93-5.46-.13-6.06,8.22-.51,8.8,2.28.24,3.08-1.71,4.16-1.68,1.21.04,1.81,1.28,1.16,2.29-1.91,2.97-6.69,2.84-9.3.86-6.14-4.66-1.88-14.28,5.76-13.07.69.11,2.56.83,3.01,1.32Z"/>
  <path class="cls-3" d="M76.78,45.91v2.88h3.56c.77,0,1.09,1.55.69,2.22-.08.13-.79.66-.88.66h-3.36v2.88h3.94c.05,0,.72.68.76.77.42.98-.13,1.94-1.16,2.1-.85.13-4.72.14-5.52-.04-.86-.19-1.05-1.2-1.11-1.96-.23-2.7-.23-7.69,0-10.4.06-.76.15-1.61.92-1.96.9-.4,5.14-.38,6.06-.01,1.68.68.68,2.84-.15,2.84h-3.75Z"/>
  <path class="cls-3" d="M23.72,45.91v2.88h3.56c.05,0,.72.67.77.77.33.72-.26,2.11-.96,2.11h-3.36v2.88h3.94c.07,0,.65.65.72.82.41.93-.12,1.9-1.12,2.05-.84.13-4.75.14-5.52-.03s-1.02-.87-1.1-1.59c-.29-2.57-.25-8.55,0-11.16.06-.62.2-1.19.79-1.51.78-.42,5.02-.45,5.91-.17,1.8.55,1.28,2.95-.06,2.95h-3.56Z"/>
  <path class="cls-3" d="M61.97,45.91v2.69h3.17c.76,0,1.29,1.33.96,2.11-.04.09-.71.77-.76.77h-3.36v4.71c0,.06-.48.87-.58.95-.91.78-2.26.13-2.45-1,.17-3.62-.38-7.74-.05-11.31.1-1.04.36-1.76,1.49-1.97.85-.15,4.08-.17,4.91,0,2.04.41,1.38,3.03.04,3.03h-3.36Z"/>
  <path class="cls-1" d="M47.94,45.71v10.67c0,.97-2.21,1.57-2.78.29l-.13-10.64c-.27-.82-2.47.4-3.1-1.13-.38-.94.09-1.89,1.11-2.05s6.18-.17,7.06.03c1.51.34,1.34,2.59.04,2.84-.65.12-1.52-.07-2.21,0Z"/>
  <path class="cls-3" d="M54.42,42.87c1.18-.26,1.84.46,1.98,1.59.25,2.1.29,9.51-.02,11.53-.31,2.01-2.8,2.03-3.07-.18-.28-2.31-.27-9.04,0-11.35.08-.64.41-1.44,1.11-1.59Z"/>
  <path class="cls-3" d="M71.34,43.27c.26.32.41,1.32.45,1.77.22,2.68.24,7.73,0,10.39-.22,2.3-2.12,2.94-3.06.76.3-3.76-.44-8.24-.02-11.91.16-1.39,1.85-1.98,2.64-1Z"/>
  <path class="cls-2" d="M56.78,18.22c7.65,2.21,13.94,7.78,17.82,14.65.68,1.2,2.55,4.66,2.46,5.79-.01.17-.05.34-.1.51-19.16.06-38.32-.04-57.48,0,5.23-15.43,21.35-24.1,37.3-20.95Z"/>
  <path class="cls-7" d="M80.81,39.18c-1.28,0-2.57,0-3.84,0-2.14-6.5-6.24-12.35-11.78-16.38-2.63-1.92-5.44-3.26-8.41-4.57,10.98,2.17,20.26,10.5,24.03,20.96Z"/>
  <path class="cls-2" d="M76.2,61.09c.04.16.07.33.07.5.03,1.19-2.36,4.91-3.17,6.1-7.08,10.31-20.02,16.36-32.47,13.59-9.79-3.04-17.92-10.34-21.15-20.19,18.9.04,37.81-.05,56.71,0Z"/>
  <path class="cls-7" d="M80.81,61.09c-5.95,16.25-23.41,25.39-40.18,20.19,5.52.79,11,.31,16.25-1.53,8.77-3.08,15.88-10.04,19.32-18.65,1.54,0,3.08,0,4.61,0Z"/>
  <path class="cls-4" d="M34.1,48.98v-3.27c4.41-.55,4.37,3.71,0,3.27Z"/>
  <path class="cls-4" d="M86.77,54.56v-8.46c1.97-.12,3.64-.02,4.38,2.06,1.21,3.43-.32,6.96-4.38,6.4Z"/>
  <path class="cls-10" d="M62.36,33.41c-9.69.09-19.4-.04-29.09-.03-.12-.04-.28-.15-.32-.27-.16-.57,2.25-3.05,2.79-3.54,1.95-1.8,4.89-3.56,7.4-4.43,7.26-1.16,14.32,2,19.11,7.54l.11.73Z"/>
  <path class="cls-9" d="M62.36,33.41c-3.48-4.27-8.93-7.63-14.52-8.07-1.53-.12-3.24.24-4.71-.2,8-2.77,17.52-.33,22.98,6.15.37.44,1.35,1.42.97,1.94-.23.32-4,.17-4.72.18Z"/>
  <path class="cls-10" d="M62.16,66.86c.08.15.17.32.13.5-.1.48-2.33,2.64-2.87,3.06-4.8,3.72-10.28,5.62-16.29,4.71-2.47-.85-5.47-2.66-7.4-4.43-.54-.49-2.96-2.98-2.79-3.54.03-.11.2-.23.32-.27,9.63,0,19.27-.11,28.9-.03Z"/>
  <path class="cls-9" d="M43.13,75.13c1.4-.43,3.05-.09,4.52-.19,3.93-.29,8.53-2.28,11.53-4.81,1.02-.86,2.29-2.15,2.99-3.26.74,0,4.68-.14,4.92.18.38.52-.6,1.5-.97,1.94-5.45,6.48-14.99,8.92-22.98,6.15Z"/>
</svg>