<?xml version="1.0" encoding="UTF-8"?>
<svg id="Layer_9" data-name="Layer 9" xmlns="http://www.w3.org/2000/svg" viewBox="0 0 100.28 100.28">
  <defs>
    <style>
      .cls-1 {
        fill: #a34f3e;
      }

      .cls-2 {
        fill: #fd6772;
      }

      .cls-3 {
        fill: #fee077;
      }

      .cls-4 {
        fill: #fee4c1;
      }

      .cls-5 {
        fill: #d78955;
      }

      .cls-6 {
        fill: #fc4755;
      }

      .cls-7 {
        fill: #873f2e;
      }

      .cls-8 {
        fill: #fdd1a3;
      }

      .cls-9 {
        fill: #fef2dd;
      }

      .cls-10 {
        fill: #e99a58;
      }

      .cls-11 {
        fill: #febc85;
      }

      .cls-12 {
        fill: #f8f2f0;
      }

      .cls-13 {
        fill: #ccbeb9;
      }

      .cls-14 {
        fill: #fd646f;
      }

      .cls-15 {
        fill: #f2e9e5;
      }

      .cls-16 {
        fill: #e0d2cd;
      }

      .cls-17 {
        fill: #fed05b;
      }

      .cls-18 {
        fill: #fefefe;
      }
    </style>
  </defs>
  <path class="cls-16" d="M73.46,1.73c.53.48,1.2.85,1.32,1.62.23,1.47.22,7.6.02,9.11-.15,1.12-1.19.98-2.1,1.03-1.48.72-3.96.59-5.5,0,0,.09-.02.18-.06.25-.12.22-4.4.25-4.91.21l-.35-.27c-.58-.4-1.59-.04-1.95-.8-.31-.64-.12-2.71-.14-3.56,0-.38.22-.46.55-.44,2.98.22,5.89.18,8.74-.11.32-2.11.37-4.31.17-6.6l.41-.44h3.8Z"/>
  <path class="cls-15" d="M69.66,1.73c-.2,2.04.27,4.58,0,6.56-.05.35-.15.66-.47.86-1.15.69-7.68-.15-9.41.18-.03-1.55-.23-4.57.04-5.93.18-.87.82-1.21,1.48-1.66h8.35Z"/>
  <path class="cls-8" d="M11.01,92.81c-.1-9.99.07-19.99,0-29.98.42-.1.84-.19,1.26-.25s.84-.12,1.26-.13c5.94-.11,11.91-.2,17.84-.07l1.27.25-.39.61c-8.83,4.4-11.16,16.32-4.33,23.54l.16.71.88.31c16.76,13.22,35.2-11.63,17.63-23.99-.71-.24-1.18-.57-1.43-.99-.17-.05-.16-.12,0-.19,5.33-.39,10.67-.52,16.02-.37.83-.05,1.2-.66,1.58-1.37l.43.03.38.13v27.32c-.35,3.04-2.85,4.7-5.76,4.81H11.24s-.23-.39-.23-.39Z"/>
  <path class="cls-16" d="M48.4,13.88l-.47.35-3.14.06v9.42s-.38.22-.38.22c-.56.21-1.48-.6-1.71-1.14l-.39.29c-2.25-.56-3.89,1.11-3.63,3.35l-.34.35.41.28c.85,2.07,3.83,2.37,5.21.66h.45c.15,0,.37.04.38.14.15,1.97.22,5.9,0,7.81l-.38.22c-.56.21-1.48-.6-1.71-1.14l-.39.29c-2.25-.56-3.89,1.11-3.63,3.35l-.34.35c.56.49,1.48,1.37,1.52,2.09l-.18.38h-10.23l-.23-.38.04-.46c1.79-1.19,1.86-4.14-.17-5.12l-.25-.5-.36.3c-2.16-.52-4.14,1.07-3.69,3.33l-.31.35c.57.47,1.43,1.42,1.52,2.09-.02.15-.07.38-.17.38-2.81.12-6.09.12-8.9,0l-.23-.38c0-6.95-.61-15.56,0-22.29.19-2.13,1.4-3.82,3.42-4.56,9-.45,18.18-.38,27.24-.29.32,0,.84-.12,1.04.19Z"/>
  <path class="cls-11" d="M69.28,98.88c-18.88.04-37.77-.02-56.65-.01-2.3-.36-1.61-4.32-1.62-6.06h46.8c2.85-.19,4.96-1.46,5.4-4.46v-27.42c.03-.33.06-.65.12-.97s.12-.63.24-.92c1.39-3.51,2.97-6.99,4.59-10.4.13-.28.32-.54.51-.81s.41-.51.62-.75c.25.16.35.8.38,1.15v44.41l-.28.26c.06,2.05.02,4.04-.09,5.99Z"/>
  <path class="cls-9" d="M16.7,46.7l2.39-.28c9.56-.26,19.14-.19,28.71-.11.8,0,1.59.07,2.39.13s1.59.16,2.39.25c0-.15.04-.37.13-.38.82-.05,6.57-.17,6.86,0l.22.38c.15-.63,2.4-.58,2.66,0,.03.18.05.35.05.53-.02,1.25-2.53,6.32-3.28,7.81-.37.73-.75,1.44-1.18,2.13-.07.11-.92.46-1.12.51l-50.23.03-.24-.38c1.08-2.49,2.04-5.06,3.19-7.53.48-1.03.98-2.89,2.23-3.09s3.41,0,4.83-.01Z"/>
  <path class="cls-1" d="M67.19,13.5l.79.32,8.8,9.98c1.01,1.34,1.86,2.86,1.99,4.57v18.11s-.39.23-.39.23h-3.42c-.16-3.35-.14-6.71,0-10.06l-.38-.29.04-4.93c.18-2.42-1.24-3.33-4.24-2.73l-.36-.22c-.18.19-.39.32-.64.39l-6.08-.11c-2.56-.05-3.15.06-3.26,2.47l.11,2.36-.38.2c.51.87.52,1.79,0,2.66.55,3.38.58,6.87,0,10.25h-7.21c-.32-1.58-.46-3.18-.4-4.8-.14-5.84-.09-11.79.4-17.59l9.3-10.63c.55-.37,4.32-.18,5.31-.19Z"/>
  <path class="cls-13" d="M48.4,13.88c5.08.45,4.14,6.88,4.18,10.44.08,7.46-.06,14.93,0,22.39-11.95,0-23.93-.13-35.88,0v-5.88h9.3c.45-.18,1.01-.18,1.68-.01.63-.18,1.14-.17,1.55.01h10.63l.39-.23c2.62,1.15,5.38-1.75,3.97-4.29l.19-.42v-8.16l-.2-.42c.45-.92.47-2.02,0-2.94l.19-.43v-10.06c1.29.08,2.71-.11,3.99,0Z"/>
  <path class="cls-10" d="M74.22,57.33l.49.16c.59,1.71,1.41,3.25,2.46,4.61,1.72.26,3.46.31,5.22.17l.37.38c.56,5.73.59,11.54,0,17.27.17.04.16.1,0,.19l-.44.41c-1.92-.02-3.8-.06-5.64-.12.15.02.37.07.38.18.1,2.18.23,5.71,0,7.79.11.53-.02.84-.38.95,1.8.25,3.72.29,5.77.1l.31.38c1.13.96-.38,3.81-1.8,3.04l-.17.38h-11.08l-.23-.38c.15.02.37.06.38.17.13,1.14.16,4.53,0,5.63l-.38.28c-.06,0-.13,0-.19,0v-51.8c-.24-.24-.14-.3.19-.19,2.04,3.24,3.65,6.77,4.75,10.44Z"/>
  <path class="cls-4" d="M70.04,46.7c.04-.15.1-.36.22-.38.58-.08,3.76-.1,4.26,0l.27.38c.16.11.28.32.16.42-.41.35-4.24.2-5.04.12l-.44-.35-.19.19c-2.11,4.57-4.24,9.19-6.07,13.85-.6.92-.73,1.56-1.99,1.71-5.35,0-10.7-.02-16.04,0-4.17.48-8.36.47-12.53,0-7.19,0-14.5.23-21.64.19-.03,0-.3-.2-.64-.2-1.5-.01-3.56.2-4.97.02-2.13-.27.6-4.29,1.05-5.32h50.38s.94-.41.94-.41c1.87-3.2,3.2-6.8,4.68-10.22,0-.15.03-.37.13-.38,1.74-.14,5.57-.22,7.24,0l.22.38Z"/>
  <path class="cls-7" d="M72.7,13.5c.1.29.27.53.47.76,3.23,3.79,9.99,9.59,10.36,14.51v17.94c-1.71.12-3.42.12-5.13,0v-18.32c-.12-1.65-.94-3.06-1.9-4.35l-9.3-10.54c1.8-.01,3.73.11,5.5,0Z"/>
  <path class="cls-8" d="M78.39,46.7c1.71,0,3.42-.02,5.13,0,1.31.01,3.48-.2,4.64,0,.36.06.68.34.94.57l6.52,13.98c.13.62.09,1.24-.63,1.37-1.45.27-4.51,0-6.16,0-2.01.53-4.06.54-6.07,0-1.26-.01-4.89.23-5.77-.21-.93-.47-2.25-3.98-2.78-5.1l.18-.38h12.05c.5-.05.67-.08.71-.62l-4.05-8.93c-2.61-.18-5.24-.28-7.9-.31l-.21-.39h3.42Z"/>
  <path class="cls-5" d="M88.83,89.78c-.01,2.07.32,5.85,0,7.68-.17.94-1.13,1.36-1.97,1.44-5.18.5-12-.02-17.38,0v-6.07h11.48c.07,0,.91-.39,1.04-.48.92-.66.72-1.57.77-2.55,2.03-.47,4.05-.47,6.07,0Z"/>
  <path class="cls-5" d="M88.83,62.64v17.27c-.02.15-.06.37-.17.38-1.14.13-4.53.16-5.63,0l-.28-.38c.02-5.75-.02-11.51,0-17.27,2.02.02,4.05.01,6.07,0Z"/>
  <path class="cls-6" d="M88.83,79.91c0,3.29.02,6.58,0,9.87-2.02,0-4.05,0-6.07,0-.09-.18-.17-.37-.23-.57s-.11-.38-.11-.56c-.05-2.46-.06-4.96-.04-7.42,0-.19.06-.38.12-.57s.16-.38.25-.56c0-.06,0-.13,0-.19h6.07Z"/>
  <path class="cls-14" d="M45.17,62.64v.19l-.31.35-1.83.04c1.63,2.02,2.54,4.59,2.91,7.16.14.99.35,2.48-.2,3.27-.01.14-.05.37-.14.38-.55.06-4.22.18-4.01-.58.03-.1.09-.19.16-.27-.15-.04-.36-.1-.38-.22-.06-.44-.08-3.56,0-3.87l.38-.27c-.35.15-.76.16-1.23.04-1.59-.01-3.14-.03-4.65-.04.15.02.37.06.38.17.05.35.06,3.52,0,3.74l-.38.27c.54.43-.07.85-.57,1.03l-3.37-.02c-.83-.09-1.17.51-1.02,1.8-.08,1.31-.09,2.9.5,3.92.02-.15.06-.37.17-.38.4-.05,3.55-.08,3.84,0l.27.38c.48.02.51.1.19.47.15.04.36.1.38.22.07.5.09,3.52,0,3.97l-.38.27c.67-.35,2.49-.36,3.04.19-.02.22-.06.47-.23.63-1.7,1.76-8.1,3.13-10.59,2.02-7.71-7.65-5.16-20.41,4.56-24.86,4.17,0,8.36,0,12.53,0Z"/>
  <path class="cls-6" d="M45.17,62.83c2.5.35,6.4,5.02,7.44,7.27,7.15,15.55-12.59,29.23-24.52,17.39h3.52c2.59-.32,5.2-1.04,7.3-2.66l.34-.37c.86.07,1.69,0,2.5-.2,0-1.91.21-3.52,1.9-4.55l.26-.38c.93.13,1.8.05,2.59-.25v-5.02c-.41,0-.66-.14-.76-.42-.08-1.15-.05-2.33-.21-3.49-.28-1.95-.93-3.64-1.84-5.37-.26-.49-1.05-1.39-1.17-1.68-.17-.39.27-.27.47-.28.58-.04,1.63-.08,2.19,0Z"/>
  <path class="cls-12" d="M44.42,23.93c.72,1.08.69,2.69,0,3.79-1.49,2.38-5.67,1.74-6.07-.95l.38-.28c2.2.61,3.91-1.22,3.65-3.38l.34-.32c.51.15,1.42.71,1.71,1.14Z"/>
  <path class="cls-12" d="M44.42,35.89c1.96,2.94-1.46,6.59-4.56,4.93-.55-.29-1.42-1.43-1.52-2.09l.38-.28c2.2.61,3.91-1.22,3.65-3.38l.34-.32c.51.15,1.42.71,1.71,1.14Z"/>
  <path class="cls-12" d="M24.48,26.78l.38-.28c2.21.62,3.88-1.24,3.64-3.39l.34-.32c2.12.62,2.78,3.3,1.52,5.03-1.69,2.3-5.16,1.72-5.88-1.04Z"/>
  <path class="cls-12" d="M29.23,40.82c-.94.49-2.29.48-3.23,0-.75-.38-1.31-1.29-1.52-2.09l.38-.28c2.21.62,3.88-1.24,3.64-3.39l.34-.32c2.76.8,2.82,4.8.38,6.07Z"/>
  <path class="cls-18" d="M28.85,34.75c.43,2.68-1.64,4.92-4.37,3.98-.72-2.76,1.63-4.78,4.37-3.98Z"/>
  <path class="cls-18" d="M28.85,22.8c.43,2.68-1.64,4.92-4.37,3.98-.72-2.76,1.63-4.78,4.37-3.98Z"/>
  <path class="cls-18" d="M42.71,34.75c.46,2.71-1.65,4.91-4.37,3.98-.43-2.85,1.54-4.81,4.37-3.98Z"/>
  <path class="cls-18" d="M42.71,22.8c.46,2.71-1.65,4.91-4.37,3.98-.43-2.85,1.54-4.81,4.37-3.98Z"/>
  <path class="cls-18" d="M70.04,36.46l.38.18v9.84l-.38.23h-10.25c.02-3.41-.02-6.83,0-10.25,3.4-.52,6.85-.53,10.25,0Z"/>
  <path class="cls-4" d="M74.98,46.7l8.32.22,4.21,9.36c-.04.81-.29.96-1.05,1.04h-12.25c-1.63-3.45-3.21-6.94-4.75-10.44,1.58-.15,3.5.2,5.04,0,.15-.02.28,0,.27-.19l-.38-.17v-9.66l.38-.22c.05-.17.12-.16.19,0,.03,3.35-.02,6.71,0,10.06Z"/>
  <path class="cls-17" d="M74.98,36.65h-.19l-.47.29c-1.28-.15-2.56-.18-3.85-.1l-.43-.38c-3.41-.01-6.84,0-10.25,0,0-.88,0-1.77,0-2.66.17-.2.38-.34.63-.41l6.29.1c1.74-.02,3.07-.25,3-2.29l-.06-2.49.39-.21s.21-.19.46-.2c1.25-.03,3.51-.29,4.18.97.58,1.1.29,5.83.3,7.38Z"/>
  <path class="cls-3" d="M70.04,28.49c-.18,2.42.96,5.03-2.37,5.32-2.51.22-5.34-.18-7.89,0,.02-1.89-.77-5.11,1.6-5.32,2.66-.24,5.9.06,8.65,0Z"/>
  <path class="cls-14" d="M82.76,80.1c-.01,3.18.15,6.53,0,9.68-1.34,0-4.72.25-5.75,0-.11-.03-.32-.42-.32-.48v-8.92c0-.21.46-.27.65-.29,1.67-.2,3.71.16,5.42,0Z"/>
  <path class="cls-12" d="M74.79,36.65v10.06h-4.75v-10.25c1.54,0,3.3-.16,4.75.19Z"/>
  <path class="cls-18" d="M45.74,73.65c.36.02.96-.14,1.11.31.09.27.09,4.98,0,5.26-.25.75-2.46.49-3.2.51-.26.34-.73.47-1.41.4-.21,1.39-.42,2.75-.49,4.15-.47.89-1.92.56-2.85.57-1.01,0-2.06.1-3.04-.19v-4.46c0-.06-.25-.29-.19-.47h-4.27s-.59-.22-.61-.24c-.36-.38-.37-5.06-.04-5.53.46-.65,3.51-.12,4.45-.3.27-.05.66-.45.66-.67v-4.17c0-.13.32-.26.47-.28.76-.14,3.92-.11,4.76,0,.19.02.65.09.65.29v4.36c0,.74,3.32.44,3.99.47Z"/>
  <path class="cls-2" d="M43.66,79.72c-.14.87-1.42,1.83-1.62,2.46-.24.75.11,1.36-.27,2.1.08-1.47-.19-3.01.17-4.44.16-.23,1.36-.1,1.73-.11Z"/>
</svg>