<?xml version="1.0" encoding="UTF-8"?>
<svg id="Layer_9" data-name="Layer 9" xmlns="http://www.w3.org/2000/svg" viewBox="0 0 100.28 100.28">
  <defs>
    <style>
      .cls-1 {
        fill: #a37b67;
      }

      .cls-2 {
        fill: #a6c4ec;
      }

      .cls-3 {
        fill: #fccaa7;
      }

      .cls-4 {
        fill: #3178d1;
      }

      .cls-5 {
        fill: #e52626;
      }

      .cls-6 {
        fill: #e5e5e5;
      }

      .cls-7 {
        fill: silver;
      }

      .cls-8 {
        fill: #fed65a;
      }

      .cls-9 {
        fill: #c9dbf9;
      }

      .cls-10 {
        fill: #f6b991;
      }

      .cls-11 {
        fill: #f6b890;
      }

      .cls-12 {
        fill: #88b1e5;
      }

      .cls-13 {
        fill: #673821;
      }

      .cls-14 {
        fill: #fefefe;
      }

      .cls-15 {
        fill: #f3f3f3;
      }
    </style>
  </defs>
  <path class="cls-13" d="M75.79,30.13c.13.53.06.81-.21.84-.62-.04-1.28-.3-1.98-.78-.84-.1-1.51-.33-2.02-.7-.45-1.95-.55-3.94-.28-5.92-2.17.34-4.61-.09-6.81-.49-7.1-1.3-14.58-4.42-19.71-9.49-.03,1.53-1.34,3.37-2.32,4.64-1.87,2.42-4.54,4.58-7.51,5.37l.02,5.07c-.06.31-.21.58-.42.82l-.35.39c-1.3.08-2.5.57-3.59,1.49l-.48-.19c.92-3.44.48-8.64,1.15-12.42C34.46.73,57.56-5.6,69.68,8.15c6.07,6.89,5.3,13.49,6.11,21.98Z"/>
  <path class="cls-15" d="M72.63,62.74c1.12.74,2.15,1.64,3.16,2.52l.42.77v32.85l-.42.26c-5.89.02-11.79,0-17.67,0-.6-1.3-.54-3.44-.46-4.96-.1-.88.13-1.26.67-1.14,3.13-3.97,6.34-8.26,9.31-12.4-1.44-1.88-2.76-3.81-3.95-5.81.08-.56,5.09-3.47,5.84-3.68-.78-3.17-1.47-6.54-1.91-9.81-.05-.38.07-.76.18-1.12,1.23-.23,3.51,1.01,4.53,1.83l.31.7Z"/>
  <path class="cls-15" d="M38.55,60.01l.15,1.23-1.99,10.59,5.49,2.58c.22.22.27.5.19.79l-3.91,5.5c3.1,4.19,6.21,8.3,9.34,12.34.53-.18.75.2.67,1.14.09,1.52.14,3.66-.46,4.96-3.99,0-8,0-11.99,0,.17-.51.38-1.04.64-1.59l-.08-12.42-.38-.47c-1.79-.33-3.62-.41-5.48-.24l-.37-.42-.42-.15c0-5.94,0-11.88,0-17.83l.42-.75c1.01-.88,2.04-1.79,3.16-2.52.91-1.43,3.35-2.65,5.05-2.74Z"/>
  <path class="cls-6" d="M75.79,65.27c3.93,3.46,6.89,7.46,8.36,12.58,1.89,6.6.44,14.45.9,21.3-3.08,0-6.18,0-9.26,0v-33.87Z"/>
  <path class="cls-7" d="M30.34,83.99c1.29.01,5.29-.26,6.1.32.25.18.43.44.54.72l.1,12.53c0,.77-.52,1.14-1.06,1.57-6.59,0-13.19.04-19.78,0-1.33-.13-1.49-1.05-1.54-2.2-.23-3.82-.22-7.69.09-11.5.08-.82.41-1.25,1.11-1.65.87-.5,7.42-.28,8.87-.2.3-.07.51-.12.73.19.12-.2.29-.33.5-.42.45-.17,3.91.1,4.34.63Z"/>
  <path class="cls-13" d="M34.76,39.6l.52.57c1.05,5.87,5.1,11,10.61,13.31l.45.63c.65.37.67,2.59,0,2.95.13.59-2.46,1.51-2.94,1.55l-.43-.29c-.49-.22-.55-.21-.17.03l-3.58.73c-.12.51-.35.82-.67.92-1.7.86-3.46,1.68-5.05,2.74-4.92-2.47-5-6.32-4.85-11.26l1.06-14.4.51.02c.95,1.33,2.58,2.17,4.22,2.12l.32.39Z"/>
  <path class="cls-13" d="M72.63,62.74c-1.48-.97-3.18-1.89-4.84-2.52-.4-.02-.67-.4-.83-1.14l-3.63-.76c.19-.19.11-.18-.18,0-.07.17-.2.25-.37.31s-3.2-1.03-3-1.57c-.71-.19-.62-2.61,0-2.95l.45-.63c5.5-2.31,9.56-7.44,10.61-13.31l.52-.57.34-.39c1.63.06,3.25-.76,4.18-2.09l.52-.04,1.06,14.4c.15,4.92.06,8.81-4.85,11.26Z"/>
  <path class="cls-2" d="M62.53,61.9c.06.32.11.64.14.96s.04.63,0,.94c-1.3,9.15-2.58,18.28-3.76,27.45-.08.63-.33,1.22-.58,1.8,0,.04-.2.24-.22.51-.12,1.81.11,3.76,0,5.59-1.4,0-2.81,0-4.21,0l-.42-.15v-33.26l.42-.26c1.5.22,3.27,1.8,4.07,3.04-.06-.18,0-.32.08-.47.78-1.6,2.8-5.29,3.85-6.55.48-.58.74-.24.62.41Z"/>
  <path class="cls-2" d="M52.22,65.48l.42.15v33.26l-.42.26c-1.4,0-2.81,0-4.21,0-.1-1.83.13-3.78,0-5.59-.02-.27-.22-.47-.22-.51-.25-.58-.5-1.17-.58-1.8-1.18-9.17-2.46-18.29-3.76-27.45-.04-.31-.03-.62,0-.94s.08-.64.14-.96c-.07-1.61,1.09.13,1.54,1.07.92,1.83,1.96,3.57,3.12,5.22l3.47-2.84.5.13Z"/>
  <path class="cls-12" d="M22.35,78.94c.43.05.56.51.4,1.39,1.27.58,3.23,1.99,2.75,3.45-.04,0-.34.22-.71.23-1.59,0-7.93-.29-8.84.22-.62.35-.71.9-.77,1.54-.25,2.72-.31,9.15,0,11.8.1.84.43,1.09,1.06,1.57-1.67-.01-4.74.27-6.2,0-.42-.08-.68-.31-.74-.74.59-4.54-1.45-12.68,1.59-16.28,1.02-1.21,2.61-1.26,2.19-3.17.17-.1.35-.2.53-.26.66-.24,7.53-.24,8.19,0,.19.07.36.16.53.26Z"/>
  <path class="cls-6" d="M30.34,83.99c-1.57-.02-3.4-.22-4.84-.21-.34-.69-.71-1.45-1.25-2.01-.47-.48-1.81-1.09-1.87-1.18-.18-.29.05-1.24-.03-1.65.96-.44,1-1.29.86-2.36l-.44-1c1.59-4.12,4.29-7.43,7.57-10.31v18.72Z"/>
  <path class="cls-12" d="M53.9,65.48v33.66c-.56,0-1.12,0-1.68,0v-33.66c-.39-.41-.35-.51.21-.42.44-1.02,1.86-.71,1.47.42Z"/>
  <path class="cls-11" d="M75.57,30.97c.28-.29.38.08.42.42,1.2,1.6,1.44,3.92.42,5.68s-3.12,2.76-5.05,2.52c-.18-.05-.18-.12,0-.21-.17-.3-.31-.62-.32-.96-.05-1.21.02-7.92.25-8.45.07-.17.17-.32.28-.47,1.48-.12,2.95.43,4,1.47Z"/>
  <path class="cls-11" d="M34.55,29.5c.11.15.2.3.28.47.23.53.3,7.26.26,8.47-.01.34-.16.66-.32.96.19.05.18.12,0,.21-1.87.26-4.11-.9-5.05-2.52-1.52-2.63-.16-3.69.42-5.89,1.42-.88,2.59-1.93,4.42-1.68Z"/>
  <path class="cls-4" d="M22.77,75.58c1.43.22.66,2.28.84,3.37-.42.01-.84-.02-1.26,0-2.96.1-6.3.1-9.26,0-.42-.01-.84.01-1.26,0,.14-.82-.42-3.03.57-3.32l10.37-.04Z"/>
  <path class="cls-1" d="M76,31.39c-.05-.06-.32-.32-.42-.42l.21-.84c.02.24.42.81.21,1.26Z"/>
  <path class="cls-3" d="M34.55,29.5c.01-2.03-.09-4.08.1-6.11,4.82-1.65,8.28-5.41,10.11-10.09,7.35,6.43,17.07,9.86,26.83,10.09,0,2.03,0,4.07,0,6.1,0,3.27.18,6.66-.21,9.89l-.4.52c-5.07,1.6-9.91,2.82-14.62-.43-.77-.16-1.3-.47-1.6-.93l-.36-.41c.39-3.44-3.04-3.42-2.64,0l-.36.41c-.3.45-.83.77-1.59.94-4.69,3.3-9.58,1.97-14.63.43l-.4-.52c-.39-3.19-.23-6.65-.21-9.89Z"/>
  <path class="cls-14" d="M63.16,58.32c.04-.13-.11-.43.11-.43.2-.03,3.79.72,3.96.83.2.13.48,1.18.56,1.49.85,3.61,1.18,7.41,2.08,11.01l-5.86,3.61,4.19,5.86-9.57,12.75-.3-.41c.85-10.03,2.68-21.12,4.21-31.14-.44-.46-.24-2.65.11-3.26.1-.18.33-.25.52-.32Z"/>
  <path class="cls-14" d="M38.55,60.01c.08-.32.06-.84.21-1.11.26-.47,3.38-.73,4.1-1,.22,0,.07.3.11.43.2.06.42.14.52.32.35.61.55,2.81.11,3.26,1.53,10.01,3.36,21.11,4.21,31.14l-.3.41-9.56-12.75,4.18-5.86-5.87-2.76c.91-3.98,1.32-8.11,2.3-12.07Z"/>
  <path class="cls-5" d="M21.08,86.52c.69.35.66,2.96,0,3.37-1.42,0-3.47.28-3.38-1.78.08-1.88,2.04-1.58,3.38-1.58Z"/>
  <path class="cls-8" d="M21.08,89.88v-3.37c1.42,0,3.47-.28,3.38,1.78-.08,1.88-2.04,1.58-3.38,1.58Z"/>
  <path class="cls-5" d="M31.18,86.52c.69.35.66,2.96,0,3.37-1.42,0-3.47.28-3.38-1.78.08-1.88,2.04-1.58,3.38-1.58Z"/>
  <path class="cls-8" d="M31.18,89.88v-3.37c1.42,0,3.47-.28,3.38,1.78-.08,1.88-2.04,1.58-3.38,1.58Z"/>
  <path class="cls-5" d="M21.08,93.25c.69.35.66,2.96,0,3.37-1.42,0-3.47.28-3.38-1.78.08-1.88,2.04-1.58,3.38-1.58Z"/>
  <path class="cls-8" d="M21.08,96.62v-3.37c1.42,0,3.47-.28,3.38,1.78-.08,1.88-2.04,1.58-3.38,1.58Z"/>
  <path class="cls-5" d="M31.18,93.25c.69.35.66,2.96,0,3.37-1.42,0-3.47.28-3.38-1.78.08-1.88,2.04-1.58,3.38-1.58Z"/>
  <path class="cls-8" d="M31.18,96.62v-3.37c1.42,0,3.47-.28,3.38,1.78-.08,1.88-2.04,1.58-3.38,1.58Z"/>
  <path class="cls-14" d="M54.75,38.55c1.84.23,3.63,1.75,5.43,2.25,3.97,1.12,7.36-.58,11.19-1.41,0,.07,0,.14,0,.21-.92,6.51-5.41,12.2-11.57,14.52-1.59,1.47-4.73,1.73-6.93,1.7-1.37-.02-5.41-.42-6.24-1.29-.11-.12-.21-.26-.3-.41-6.16-2.32-10.65-8.01-11.57-14.52,0-.07,0-.14,0-.21,4.07.86,7.48,2.66,11.68,1.27,1.6-.53,3.17-1.89,4.94-2.11.29-.76,2.94-.74,3.37,0Z"/>
  <path class="cls-11" d="M59.8,54.12v2.95c.06.08.11.16.14.25.13.48-6,7.29-6.48,7.37-.1.02-1.07-.19-.81-.47-.12.11-.34.24-.41.17-1.72-1.76-3.88-4.17-5.38-6.09-.56-.43-.74-.84-.53-1.23v-2.95c4.54,1.71,8.93,1.71,13.46,0Z"/>
  <path class="cls-9" d="M52.64,64.22c.43.1.36.38-.21.84-.04.14-.16.28-.21.42l-4.1,3.36c-1.64-2.19-2.72-4.87-4.25-7.11-.37-.54-.25-.15-.27.17-.17-1.13-.31-2.5-.63-3.58l3.37-1.26,6.31,7.15Z"/>
  <path class="cls-9" d="M63.16,58.32c-.33,1.08-.46,2.45-.63,3.58-.02-.32.1-.71-.27-.17-1.53,2.24-2.61,4.92-4.25,7.11-1.24-1.27-2.72-2.3-4.1-3.36-.51-.39-.53-1.33-1.47-.42.09-.27.17-.56.21-.84.14.08.34.19.49.15.86-.2,5.5-6.38,6.66-7.31l3.37,1.26Z"/>
  <path class="cls-13" d="M41.87,24.3c.68-.08,1.34-.1,2.02-.03,1.22.12,5.3,1.29,4.73,2.99-.33.98-2.61-.73-3.39-.97-1.67-.52-3.03-.51-4.7.05-.84.28-3.57,2.41-3.26.33.18-1.22,3.5-2.24,4.59-2.37Z"/>
  <path class="cls-13" d="M62.06,24.3c.68-.08,1.34-.1,2.02-.03,1.22.12,5.3,1.29,4.73,2.99-.33.98-2.61-.73-3.39-.97-1.67-.52-3.03-.51-4.7.05-.84.28-3.57,2.41-3.26.33.18-1.22,3.5-2.24,4.59-2.37Z"/>
  <path class="cls-13" d="M42.49,29.34c3.51-.57,4.02,4.68.76,4.99s-3.79-4.5-.76-4.99Z"/>
  <path class="cls-13" d="M62.69,29.34c3.51-.57,4.02,4.68.76,4.99s-3.79-4.5-.76-4.99Z"/>
  <path class="cls-10" d="M54.75,38.55c-.76-.1-2.6-.1-3.37,0-.81-4.57,4.17-4.56,3.37,0Z"/>
</svg>