<?xml version="1.0" encoding="UTF-8"?>
<svg id="Layer_9" data-name="Layer 9" xmlns="http://www.w3.org/2000/svg" viewBox="0 0 100 100">
  <defs>
    <style>
      .cls-1 {
        fill: #a6c4ec;
      }

      .cls-2 {
        fill: #fccaa7;
      }

      .cls-3 {
        fill: #3178d1;
      }

      .cls-4 {
        fill: #e52626;
      }

      .cls-5 {
        fill: #e5e5e5;
      }

      .cls-6 {
        fill: silver;
      }

      .cls-7 {
        fill: #fed65a;
      }

      .cls-8 {
        fill: #c9dbf9;
      }

      .cls-9 {
        fill: #f6b890;
      }

      .cls-10 {
        fill: #88b1e5;
      }

      .cls-11 {
        fill: #673821;
      }

      .cls-12 {
        fill: #f3f3f3;
      }
    </style>
  </defs>
  <path class="cls-2" d="M69.82,31.07l.41.75c.1,1.44.25,7.85-.3,8.64-.09.13-.2.23-.32.34-.85,6.22-5.3,11.78-11.15,13.99-1.46,1.39-4.43,1.63-6.49,1.63-1.34,0-5.43-.37-6.22-1.24-.1-.12-.19-.25-.27-.39-5.86-2.25-10.3-7.73-11.15-13.99-.12-.1-.23-.21-.32-.34-.55-.78-.4-7.2-.3-8.64l.41-.75c-.54-1.04-.69-5.2-.2-6.09,3.59-1.3,6.87-2.67,8.84-6.17,6.17,2.47,12.73,2.8,18.71-.41,2.07,3.29,4.78,5.44,8.52,6.57.46.67.38,5.2-.19,6.1Z"/>
  <path class="cls-11" d="M72.25,31.48c-.53.35-2.05.11-2.43-.41-.01-1.96.09-3.93-.09-5.89-3.69-.99-6.52-3.08-8.32-6.47-5.47,3.36-12.81,3.03-18.53.41-1.66,3.52-5.14,4.97-8.64,6.06-.18,1.95-.08,3.93-.09,5.89-.38.52-1.9.76-2.43.41.29-4.83-.39-10.11,0-14.89,1-12.21,12.06-14.91,22.4-14.1,2.58.2,3.34,1.57,4.91,1.99.89.23,2.35-.03,3.37.07,5.07.52,9.24,5.06,9.83,10.03l.02,16.9Z"/>
  <path class="cls-12" d="M73.87,65.53l.41.74v31.64l-.41.25c-5.67.02-11.35,0-17.03,0-.58-1.26-.52-3.31-.44-4.78-.09-.85.12-1.22.64-1.1l.29.39,9.22-12.28-4.03-5.65,5.65-3.48-2-10.61c2.87,1.09,5.43,2.88,7.7,4.86Z"/>
  <path class="cls-12" d="M30.09,65.53c2.29-2,4.83-3.78,7.7-4.86l-2.01,11.43,5.66,2.66-4.03,5.65,9.21,12.28.29-.39c.51-.17.73.19.64,1.1.09,1.46.13,3.52-.44,4.78-3.31,0-6.62,0-9.93,0-.07-.35.07-.66.41-.92.64-1.31.54-10.3.2-12.01-.17-.85-.25-1.14-1.15-1.27-2.05-.11-4.11-.11-6.17.02l-.38-.41-.41-.14c0-5.72,0-11.45,0-17.17l.4-.72Z"/>
  <path class="cls-5" d="M73.87,65.53c5.08,4.45,8.53,10.22,8.93,17.12.29,5.07-.24,10.42,0,15.52-2.97,0-5.95,0-8.92,0v-32.63Z"/>
  <path class="cls-6" d="M30.09,83.57c1.96.02,4.98-.27,6.78.01.97.15,1.26.81,1.34,1.7.24,2.61.3,8.81,0,11.36-.1.81-.41,1.05-1.02,1.52-6.35,0-12.71.04-19.05,0-1.28-.12-1.43-1.01-1.48-2.12-.22-3.68-.21-7.41.09-11.08.07-.79.39-1.2,1.07-1.59.84-.48,7.14-.27,8.54-.2.29-.07.49-.12.71.19.38-.67,2.63-.4,3.04.2Z"/>
  <path class="cls-1" d="M61.11,62.28c-.98,9.98-3.21,20.02-4.05,30,0,.04-.19.23-.21.49-.12,1.75.1,3.63,0,5.39-1.35,0-2.71,0-4.05,0l-.41-.14v-32.04l.41-.25c1.44.21,3.15,1.74,3.92,2.93-.06-.17,0-.31.08-.46.75-1.54,2.7-5.1,3.71-6.31.46-.55.73-.23.6.39Z"/>
  <path class="cls-1" d="M51.17,65.73l.41.14v32.04l-.41.25c-1.35,0-2.71,0-4.05,0-.09-1.76.13-3.64,0-5.39-.02-.26-.21-.45-.21-.49-.84-9.97-3.08-20.02-4.05-30-.12-1.59,1.04.1,1.49,1.03.89,1.77,1.89,3.44,3,5.03l3.34-2.74.48.13Z"/>
  <path class="cls-10" d="M24.01,78.7c.41.05.54.49.39,1.34,1.22.56,3.11,1.92,2.65,3.32-.04,0-.32.21-.69.22-1.53,0-7.64-.28-8.51.21-.6.33-.69.86-.74,1.49-.24,2.62-.3,8.81,0,11.36.1.81.41,1.05,1.02,1.52-1.61-.01-4.57.26-5.97,0-.41-.08-.65-.29-.71-.71.34-3.92-.5-8.7.05-12.51.14-1,.83-2.41,1.48-3.18.99-1.17,2.51-1.22,2.11-3.06.17-.1.34-.19.51-.25.64-.23,7.25-.23,7.89,0,.18.06.35.16.51.25Z"/>
  <path class="cls-5" d="M30.09,83.57c-1,0-2.22-.21-3.04-.2-.32-.66-.69-1.4-1.21-1.93-.45-.46-1.74-1.05-1.8-1.14-.17-.27.04-1.19-.03-1.59.17-.37.45-.44.81-.44.46-1.91-.13-2.71-1.75-2.39l-.28-.41c1.53-3.96,4.13-7.17,7.3-9.93v18.04Z"/>
  <path class="cls-9" d="M58.47,54.78v2.84c.1.12.24.31.17.4-.69.89-5.84,6.8-6.3,6.91-.31.07-1.01-.16-.96-.62-.11.13-.31.25-.39.17-1.79-1.87-4.08-4.37-5.63-6.41l.15-.45v-2.84c4.28,1.64,8.69,1.62,12.97,0Z"/>
  <path class="cls-8" d="M58.47,57.62l3.24,1.22-.61,3.44c-.02-.31.09-.69-.26-.16-1.47,2.15-2.52,4.74-4.1,6.85-1.2-1.22-2.62-2.22-3.95-3.24l-.23.16c-.35-.4-.75-.59-1.19-.57-.61-.01-.56-.9,0-1.01l.54.38c.54.08,5.67-6.26,6.55-7.07Z"/>
  <path class="cls-8" d="M51.38,64.31v1.01c.41.37.34.4-.2.41l-3.95,3.24c-1.58-2.11-2.62-4.69-4.1-6.85-.36-.52-.24-.15-.26.16l-.61-3.44,3.24-1.22,5.88,6.69Z"/>
  <path class="cls-10" d="M52.8,65.73v32.43c-.54,0-1.08,0-1.62,0v-32.43c.08-.12.12-.3.2-.41.77-.94,1.01.09,1.42.41Z"/>
  <path class="cls-9" d="M34.15,31.07c-.02,3.13-.21,6.67.2,9.73-5.47.58-7.66-7.07-2.63-9.32.71-.32,1.65-.46,2.43-.41Z"/>
  <path class="cls-9" d="M72.25,31.48c5.02,2.25,2.83,9.9-2.63,9.32.42-3.06.22-6.6.2-9.73.78-.06,1.72.08,2.43.41Z"/>
  <path class="cls-3" d="M22.8,75.46c3.09.08,2.38.14,2.43,3.24-.4.01-.81-.02-1.22,0-2.85.1-6.06.1-8.92,0-.4-.01-.81.01-1.22,0,.12-.75-.34-2.78.41-3.14.57-.28,7.31-.13,8.51-.1Z"/>
  <path class="cls-4" d="M56.85,46.27c-.39,6.45-9.31,6.45-9.73,0h9.73Z"/>
  <path class="cls-9" d="M51.52,36.58c.7-.15,1.49.04,1.86.69.32.57.34,3.87.18,4.6-.35,1.59-2.91,1.58-3.19-.17-.2-1.26-.4-4.78,1.15-5.12Z"/>
  <path class="cls-11" d="M41.2,26.06c.65-.08,1.29-.1,1.95-.03,1.17.11,5.11,1.25,4.56,2.88-.32.95-2.51-.71-3.26-.94-1.61-.5-2.92-.49-4.52.05-.81.27-3.44,2.32-3.14.32.18-1.18,3.37-2.16,4.42-2.28Z"/>
  <path class="cls-11" d="M60.66,26.06c.65-.08,1.29-.1,1.95-.03,1.17.11,5.11,1.25,4.56,2.88-.32.95-2.51-.71-3.26-.94-1.61-.5-2.92-.49-4.52.05-.81.27-3.44,2.32-3.14.32.18-1.18,3.37-2.16,4.42-2.28Z"/>
  <path class="cls-11" d="M41.8,30.91c3.38-.55,3.87,4.51.73,4.81-3.15.3-3.65-4.34-.73-4.81Z"/>
  <path class="cls-11" d="M61.26,30.91c3.38-.55,3.87,4.51.73,4.81-3.15.3-3.65-4.34-.73-4.81Z"/>
  <path class="cls-4" d="M22.8,86c.66.33.64,2.85,0,3.24-1.37,0-3.34.27-3.26-1.72.08-1.81,1.97-1.52,3.26-1.52Z"/>
  <path class="cls-7" d="M22.8,89.24v-3.24c1.37,0,3.34-.27,3.26,1.72-.08,1.81-1.97,1.52-3.26,1.52Z"/>
  <path class="cls-4" d="M32.53,86c.66.33.64,2.85,0,3.24-1.37,0-3.34.27-3.26-1.72.08-1.81,1.97-1.52,3.26-1.52Z"/>
  <path class="cls-7" d="M32.53,89.24v-3.24c1.37,0,3.34-.27,3.26,1.72-.08,1.81-1.97,1.52-3.26,1.52Z"/>
  <path class="cls-4" d="M22.8,92.48c.66.33.64,2.85,0,3.24-1.37,0-3.34.27-3.26-1.72.08-1.81,1.97-1.52,3.26-1.52Z"/>
  <path class="cls-7" d="M22.8,95.73v-3.24c1.37,0,3.34-.27,3.26,1.72-.08,1.81-1.97,1.52-3.26,1.52Z"/>
  <path class="cls-4" d="M32.53,92.48c.66.33.64,2.85,0,3.24-1.37,0-3.34.27-3.26-1.72.08-1.81,1.97-1.52,3.26-1.52Z"/>
  <path class="cls-7" d="M32.53,95.73v-3.24c1.37,0,3.34-.27,3.26,1.72-.08,1.81-1.97,1.52-3.26,1.52Z"/>
</svg>