<?xml version="1.0" encoding="UTF-8"?>
<svg id="Layer_9" data-name="Layer 9" xmlns="http://www.w3.org/2000/svg" viewBox="0 0 96.69 96.71">
  <defs>
    <style>
      .cls-1 {
        fill: #85dde7;
      }

      .cls-2 {
        fill: #c1cdd4;
      }

      .cls-3 {
        fill: #788f9b;
      }

      .cls-4 {
        fill: #b9c2cc;
      }

      .cls-5 {
        fill: #01897b;
      }

      .cls-6 {
        fill: #4faa85;
      }

      .cls-7 {
        fill: #fec04e;
      }

      .cls-8 {
        fill: #c1cbd4;
      }

      .cls-9 {
        fill: #99b8b6;
      }

      .cls-10 {
        fill: #b8c2cc;
      }

      .cls-11 {
        fill: #bbc1cb;
      }

      .cls-12 {
        fill: #77c1a3;
      }

      .cls-13 {
        fill: #78c1a3;
      }

      .cls-14 {
        fill: #85dee9;
      }

      .cls-15 {
        fill: #4fab86;
      }

      .cls-16 {
        fill: #b1eaf1;
      }

      .cls-17 {
        fill: #80dde9;
      }

      .cls-18 {
        fill: #00897b;
      }

      .cls-19 {
        fill: #fea80b;
      }

      .cls-20 {
        fill: #c52430;
      }

      .cls-21 {
        fill: #4faa86;
      }

      .cls-22 {
        fill: #df4955;
      }

      .cls-23 {
        fill: #546e7a;
      }

      .cls-24 {
        fill: #dbe5ea;
      }
    </style>
  </defs>
  <path class="cls-6" d="M86.54,24.48c.09,3.86.13,7.75.12,11.65l.44.02c-.06-1.26.39-3.04,1.11-4.08-.01-.51.05-1,.19-1.48-.16-.25-.32-.52-.34-.82-.06-.8-.19-4.57-.02-4.96.06-.14.19-.25.34-.35,2.11-.03,4.22-.02,6.32.02.68.08.7.2,1.11.74v21.5c-.81,1.37-2.65.9-4.08.93-1.61.59-3.57.56-5.19,0l-.37-.17v-8.87c-.56.8-1.24,1.47-1.98,2.11l-.43-.1c-.3-5.39-.58-10.78-.06-16.15l2.84.03Z"/>
  <path class="cls-24" d="M10.19,47.65c.94-.46,1.84-.46,2.78,0,2.15-.5,4.34-.51,6.49,0,.86-.36,1.74-.36,2.59,0,2.16-.46,4.32-.46,6.49,0,.92-.36,1.86-.36,2.78,0,2.16-.36,4.33-.37,6.49,0,.92-.36,1.86-.36,2.78,0,2.16-.36,4.33-.36,6.49,0,.86-.36,1.74-.36,2.59,0,2.16-.36,4.33-.36,6.49,0,.92-.36,1.86-.36,2.78,0,2.16-.36,4.33-.36,6.49,0,.92-.36,1.86-.36,2.78,0,2.16-.46,4.32-.46,6.49,0,.86-.36,1.73-.36,2.59,0,2.15-.51,4.34-.5,6.49,0,.1-.35.27-.35.37,0l.37.13-.02,25.73c-.86,6.32-5.94,11.34-12.27,12.12h-36.77s-.23-.37-.23-.37l-.37-.21v-3.42l.37-.26c-.46-3.89-.45-7.79,0-11.67l-.25-.38c.1-4.48.02-8.94-.24-13.38-2.11-.29-4.27-.34-6.49-.15l-.44-.37c-4.82.42-9.66.54-14.52.36-.34.24-.31-.08-.31-.06.1,8.42.06,16.87,0,25.3,0,1.42-.19,2.83-.37,4.24,0,.14-.03.37-.12.37-1.14.07-6.3.22-7.07,0l-.22-.37v-37.62c1.56-.54,3.45-.57,5,0Z"/>
  <path class="cls-10" d="M86.54,47.65c1.73,0,3.46.03,5.19,0v41.33c-1.36.64-3.42.75-4.82.19-17.26.03-34.49-.03-51.7-.19l-.37-.21v-3.23l.37-.27h36.97c6.19-.8,11.05-5.61,11.93-11.79l.02-25.83c.82-.46,1.59-.46,2.41,0Z"/>
  <path class="cls-22" d="M50.78,12.07c3.36,2.41,4.61,7.2,4.45,11.12-.1.35-.26.35-.37,0l-.29.36c-1.09.24-4.03.21-3.97-1.36.08-1.25.03-2.45-.17-3.62-.17-.26-4.93-.79-4.31.85.23,1.41.08,2.67-.46,3.78-1.12.42-2.35.52-3.68.32-1.54-.36-1.52,4.88,0,4.52l2.97-.03c.78.05,1.19.52,1.23,1.29-.11,1.4-.06,2.76.16,4.08.76.12,1.5.18,2.22.19,0,.2,0,.42-.13.58-.61.74-2.88,1.44-3.86,1.71-1.69.47-4.06.84-5.65.12-.72.31-.95-.51-1.11-1.11-.09.1-.15.03-.19-.19-.51.19-.69-.12-.37-.56-.63-.16-1.07-.78-1.3-1.85-.51-.04-.55-.2-.19-.56-.42-.24-.54-.49-.37-.74-.85-.65-1.12-2.48-1.26-3.6-.11-.87-.15-1.74-.08-2.62l.41-.46c.78-8,8.5-13.47,16.31-12.23Z"/>
  <path class="cls-23" d="M91.73,88.97c.45-.02,2.78-.14,2.78.28v6.39c-19.76,0-39.54,0-59.3,0l-.37-.21v-3.23l.37-.27.18-.37h49.56c1.32-.15,1.74-.82,1.63-2.12l.35-.29c1.63-.01,3.27-.13,4.82-.19Z"/>
  <path class="cls-13" d="M34.47,24.3c-.26,2.64.2,4.24.93,6.67-.12.23,0,.48.37.74.06.18.15.4.19.56l.27.55c.06.79.41,1.22,1.03,1.3.12.16.2.35.37.56.16,2.96.16,6.13,0,9.08-1.93.15-4.15.15-6.12,0-.14-6.36-.2-12.79-.19-19.27-.91.51-1.87.51-2.78,0-2.15.49-4.34.49-6.49,0-.82.48-1.67.47-2.54.15.18,6.43.35,12.9-.24,19.31-.04.15-.1.36-.22.37-.74.05-5.44.13-5.81,0l-.27-.37c-.3-6.44-.49-12.88-.25-19.32-.86.34-1.7.35-2.53-.13l-.56.36c-2.28-.1-4.56-.11-6.84-.04l-.56-.33,32.24-.19Z"/>
  <path class="cls-20" d="M62.26,24.3c.16.06.16.12,0,.19.1.1.19.2.27.31.53.83-.21,4.29-.55,5.36-.5,1.56-1.4,3.85-2.86,4.52-.01.15-.07.22-.19.19-.15.89-1.54,2.32-2.32,2.72l-.46-.13-.23.57c-1.83,1-3.84,1.68-5.9,1.98l-.36-.33c-.23.64-2.37.64-2.59,0l-.35.34c-2.07-.31-4.09-.99-5.92-1.99l-.21-.57c-.56.33-1.84-.89-1.67-1.48h2.88c2.33-.29,4.93-.85,6.76-2.41l.12-.12c1.3.08,2.06-.5,2.29-1.74.45-1.17,1.38-2.68,2.41-3.34.5-.34,1.19-.49,2.08-.43.08-.02.21-.06.25-.14.31-.66.26-4.18-.47-4.62-.68-.37-.3-1.43-.37-2.13-.29-2.68-1.2-5.22-2.81-7.38-.42-.56-1.09-.92-1.27-1.61,5.94.94,10.93,6.22,11.49,12.23Z"/>
  <path class="cls-13" d="M2.22,24.48c2.37-.23,5.52-.02,7.97,0l.37.13s-.06,6.37-.18,19.1l-.37.22c-.02.15-.07.37-.17.37-2.74.11-5.95.11-8.69,0l-.22-.37c-.13-6.08.1-12.18,0-18.26.17-.89.45-1.11,1.31-1.2Z"/>
  <path class="cls-6" d="M35.21,81.38v7.6c.16.05.16.11,0,.19.62.18.57,2.49,0,2.78v3.71c-7.59,0-15.2.01-22.79,0l-.37-.21v-3.23l.37-.27c.03-.17.1-.16.19,0l.21-.37,7.06.12c2.32.17,4.52-.05,6.62-.67h3.52c-.1-.43-.07-.46.37-.37.14-3.08.2-6.17.19-9.27.04-.14.1-.35.21-.37.59-.09,3.6-.1,4.16,0l.26.37Z"/>
  <path class="cls-13" d="M94.69,24.48c-1.94-.24-4.31.18-6.3,0-.07,2.03.1,4.09,0,6.12-.13.48-.19.97-.19,1.48-.2,1.43-.57,2.74-1.11,4.08-.27.58-.45.39-.48-.19.05-3.84.03-7.67-.08-11.48-.58-.19-2.07.14-2.78,0,0,5.37,0,10.75,0,16.12.16.05.16.11,0,.19-.41,1.02-1.92,1.71-2.96,2.18-.99.63-1.92.83-2.79.6-.49.05-.89-.03-.93-.58v-18.16c-.83.07-1.67.09-2.41-.35-2.13.52-4.36.54-6.49,0-.18.62-2.49.57-2.78,0-.05.16-.11.16-.19,0-.31.61-2.61.58-2.97,0,0-.06,0-.12,0-.19l32.43.19Z"/>
  <path class="cls-23" d="M12.42,91.94v3.71c-3.33,0-6.67,0-10.01,0-.13-1.26-.18-2.51-.04-3.79,3.34-.52,6.71-.3,10.05.08Z"/>
  <path class="cls-21" d="M10.01,43.94c.05-.16.11-.16.19,0,.14.04.36.1.37.21.05.44.05,3.19-.12,3.37-.06.06-.15.1-.25.12-1.66,0-3.34.03-5,0-.93-.01-2.19.12-3.05-.01-1.67-.26-1.19-2.44-1.22-3.7h9.08Z"/>
  <path class="cls-2" d="M12.6,85.27l.37.21v3.42l-.37.26c-.05.16-.11.16-.19,0l-.17.37-9.48.02c.05.74.04,1.48-.03,2.21l-.51.18v-2.97h2.78c.11-1.2-.24-2.6.19-3.71h7.41Z"/>
  <path class="cls-3" d="M12.42,89.16c.17.8.15,1.94,0,2.78-3.33,0-6.67,0-10.01,0v3.71c-.3-1.09-.24-2.56-.18-3.71,0-.02.18-.21.19-.45.05-.77-.05-1.56,0-2.33h10.01Z"/>
  <path class="cls-18" d="M86.54,47.65c-.8,0-1.61,0-2.41,0-.12,0-.25,0-.37,0-.09,0-.17.01-.25-.01-.3-.1-.2-6.06-.11-6.37l.35-.47v-.19l1.39-1.29,1.39-1.85v10.19Z"/>
  <path class="cls-12" d="M86.54,24.48c.19.06.17.08.19.27.08,3.58-.12,7.19,0,10.77.01.36-.19.74.37.64-.13.32-.11.8-.55.93v-12.6Z"/>
  <path class="cls-12" d="M88.21,32.08c.06-.46-.19-1.16.19-1.48-.03.62-.11.96-.19,1.48Z"/>
  <path class="cls-16" d="M78.57,55.43l-.41.32c-.51.08-5.26.17-5.52.08-.18-.06-.28-.24-.37-.4l.37.17v13.6l-.37.22c.61.24-.09,1.67-.37,2.13-1.03,1.7-3.17,3.36-5.23,2.79,0-5.3-6.57-5.53-6.39-.05l-.42.23h-12.39s-.22-.37-.22-.37c.13-5.52-.5-11.99,0-17.34.04-.47.05-.88.49-1.18l30.84-.2Z"/>
  <path class="cls-17" d="M78.57,55.43c.79.13,1.05.83,1.12,1.57.57,6.17-.44,13.2,0,19.47,0,.53-.34.98-.75,1.29-3.86.2-7.73.07-11.59.09-2.6.01-5.35.53-7.95,0-3.38-.36-7.87.51-11.11,0-1.42-.23-1.26-2.13-1.22-3.25,0-.24.19-.42.19-.45h12.79c-.57-5.69,7.16-5.62,6.85,0,2.15.11,4.35-1.57,5.04-3.58.07-.19.33-1.06.33-1.15v-13.99c1.92.22,4.46-.29,6.3,0Z"/>
  <path class="cls-13" d="M27.8,55.43c.14.04.34.09.37.22.09.35.06,3.5,0,3.96l-.37.27c-.6.55-2.38.75-2.97.19l-.71.26c-2.38,0-4.67.09-6.89.3-.15,8.41-.17,16.99-.07,25.74.41,1.58.5,3.07.25,4.47,3,.2,6.03.26,9.08.19-.13.27-.33.48-.61.6-1.75.76-10.72.33-13.29.33-.17-.8-.15-1.94,0-2.78v-3.89c0-9.88-.07-19.78.08-29.66l.56-.18c4.85.03,9.71-.02,14.56,0Z"/>
  <path class="cls-21" d="M35.21,69.7c-.03.14-.08.32-.21.37-.19.08-3.73.04-4.16,0l-.26-.37c.02-3.16-.04-6.31-.19-9.45-.72.02-1.48.02-2.29,0l-.3-.37v-4.45c2,0,4.69-.23,6.59-.01.77.09.77.54.83,1.21.35,3.97-.02,8.98,0,13.07Z"/>
  <path class="cls-3" d="M35.21,69.7c0,3.89,0,7.79,0,11.67h-4.63c-.14-3.89-.14-7.78,0-11.67h4.63Z"/>
  <path class="cls-21" d="M83.76,40.79v6.86c-2.16,0-4.33,0-6.49,0l-.28-.38c.13-1.06.15-2.13.08-3.21l.39-.3c-.02-.35.16-.41.56-.19,2.13-.5,3.96-1.56,5.74-2.78Z"/>
  <path class="cls-21" d="M74.5,43.94c.03-.17.1-.16.19,0l.37.21v3.23l-.37.27c-2.16,0-4.33,0-6.49,0l-.37-.21v-3.23l.37-.27c1.9-.6,4.37-.53,6.3,0Z"/>
  <path class="cls-21" d="M28.54,43.94l.37.21v3.23l-.37.27c-2.16,0-4.33,0-6.49,0l-.37-.21v-3.23l.37-.27c.05-.16.11-.16.19,0,.04-.14.09-.34.22-.37.89-.19,4.74-.09,5.81,0l.27.37Z"/>
  <path class="cls-21" d="M37.8,43.94c.14.04.36.1.37.21.08.72.08,2.51,0,3.23l-.37.27c-2.16,0-4.33,0-6.49,0l-.37-.21v-3.23l.37-.27c2.16-.14,4.33-.14,6.49,0Z"/>
  <path class="cls-21" d="M65.42,43.94l.37.21v3.23l-.37.27c-2.16,0-4.33,0-6.49,0-.14-.04-.36-.1-.37-.21-.04-.31-.06-3.08,0-3.23.06-.14.22-.21.37-.27,2.16-.15,4.33-.14,6.49,0Z"/>
  <path class="cls-21" d="M46.88,43.94c.37.49.48,1.17.34,2.05.17.69.12,1.24-.15,1.65-2.16,0-4.33,0-6.49,0-.14-.04-.36-.1-.37-.21-.04-.31-.06-3.08,0-3.23.06-.14.22-.21.37-.27,2.1-.46,4.2-.46,6.3,0Z"/>
  <path class="cls-21" d="M56.15,43.94l.37.21v3.23l-.37.27c-2.16,0-4.33,0-6.49,0-.27-.42-.32-.97-.15-1.65-.14-.88-.03-1.57.34-2.05,2.1-.46,4.2-.46,6.3,0Z"/>
  <path class="cls-21" d="M19.27,43.94c.39.5.5,1.21.34,2.14.16.65.11,1.18-.16,1.57-2.16,0-4.33,0-6.49,0-.55-.2-.42-1.85-.37-2.5-.13-.63,0-1.03.37-1.21h6.3Z"/>
  <path class="cls-5" d="M49.85,43.94c.04,1.18.12,2.58-.19,3.71-.86,0-1.73,0-2.59,0-.3-1.12-.22-2.53-.19-3.71.98-.36,1.98-.36,2.97,0Z"/>
  <path class="cls-5" d="M77.46,43.76c-.1,1.27.22,2.68-.19,3.89-.86,0-1.73,0-2.59,0v-3.71c.38-.58,2.3-.66,2.78-.19Z"/>
  <path class="cls-5" d="M58.93,43.94v3.71c-.92,0-1.86,0-2.78,0v-3.71c.92-.37,1.86-.36,2.78,0Z"/>
  <path class="cls-18" d="M31.32,43.94v3.71c-.92,0-1.86,0-2.78,0v-3.71c.18-.62,2.49-.57,2.78,0Z"/>
  <path class="cls-18" d="M68.19,43.94v3.71c-.92,0-1.86,0-2.78,0v-3.71c.91-.51,1.87-.5,2.78,0Z"/>
  <path class="cls-5" d="M40.58,43.94v3.71c-.92,0-1.86,0-2.78,0v-3.71c.92-.36,1.86-.36,2.78,0Z"/>
  <path class="cls-5" d="M12.97,43.94v3.71c-.92,0-1.86,0-2.78,0v-3.71c.18-.62,2.49-.57,2.78,0Z"/>
  <path class="cls-5" d="M22.05,43.94v3.71c-.86,0-1.73,0-2.59,0-.33-1.14-.18-2.5-.19-3.71.18-.62,2.49-.57,2.78,0Z"/>
  <path class="cls-8" d="M86.91,89.16c-4.04.45-8.1.44-12.16.41-13.17.08-26.38.11-39.54-.41v-.19l51.7.19Z"/>
  <path class="cls-24" d="M54.85,23.19c.28.9.19,1.9-.27,3.01-.15,1.03-.55,1.76-1.21,2.18-.54.35-1.21.56-2,.65.07.99-.07,1.88-.41,2.69-.47,2.06-2.97,1.93-4.63,1.67-1.26-.66-.02-4.01-.79-4.77-.62-.62-3.73.15-4.51-.4-.67-.47-.65-4.19-.09-4.75.75-.74,3.6.21,4.47-.53.95-.8-.28-4.1.81-4.75.43-.26,3.7-.29,4.18-.08,1.18.52.12,3.6.73,4.64.46.77,2.81.39,3.72.45Z"/>
  <path class="cls-6" d="M38.92,35.97c.41.37,1.28,1.23,1.67,1.48l.37.47v5.75l-.37.27c-.92,0-1.86,0-2.78,0-.14-3.03-.14-6.05,0-9.08.23.27.83.86,1.11,1.11Z"/>
  <path class="cls-4" d="M55.22,23.19c.2.03.57.1.7.23.34.35.34,4.01.11,4.55-.27.64-2.01.38-2.66.41.8-1.62,1.18-3.42,1.48-5.19.12,0,.25-.02.37,0Z"/>
  <path class="cls-13" d="M31.32,24.48l.19,19.27h6.12v-9.08c.05.07.13.12.19.19v9.08c-2.16,0-4.33,0-6.49,0l-.37-.13v-19.1l.37-.23Z"/>
  <path class="cls-11" d="M50.96,31.71c-.1,2.22-.25,1.83-2.41,1.85-.72,0-1.61.14-2.22-.19,2.41.24,3.05-.03,4.63-1.67Z"/>
  <path class="cls-13" d="M37.25,34.12c-1.48.68-1.07-.92-1.3-1.85.56.49.84,1.26,1.3,1.85Z"/>
  <path class="cls-13" d="M35.76,31.71c-.54-.08-1.02-.51-.37-.74.03.09.26.39.37.74Z"/>
  <path class="cls-3" d="M86.91,89.16c.18,1.63-.23,2.59-1.95,2.78h-49.76v-2.78c17.23-.09,34.47.12,51.7,0Z"/>
  <path class="cls-13" d="M28.54,24.48c.36,6.48.36,12.97,0,19.46h-6.3l-.37-.12c-.12-12.74-.18-19.1-.18-19.1l.37-.23c2.16-.02,4.33-.02,6.49,0Z"/>
  <path class="cls-21" d="M10.19,24.48c.92,0,1.86,0,2.78,0,0,6.48,0,12.98,0,19.46h-2.97l.19-19.46Z"/>
  <path class="cls-21" d="M22.05,24.48l.19,19.46h-2.97c-.02-6.48.02-12.98,0-19.46.92,0,1.86,0,2.78,0Z"/>
  <path class="cls-21" d="M31.32,24.48v19.46h-2.78v-19.46c.92,0,1.86,0,2.78,0Z"/>
  <path class="cls-13" d="M65.23,24.48c.16,6.22.16,12.98,0,19.27-1.93.16-4.15.15-6.12,0-.16-2.9-.16-6.12,0-9.08,2.35-2.91,3.42-6.45,3.15-10.19h2.97Z"/>
  <path class="cls-13" d="M47.07,39.68c.54.94.47,2.53.37,3.65-.04.43-.09.55-.56.61-2.1,0-4.2,0-6.3,0v-6.49c1.57,1.04,4.62,2.06,6.49,2.22Z"/>
  <path class="cls-13" d="M56.15,37.46c.36,2.16.36,4.33,0,6.49-2.1,0-4.2,0-6.3,0-1.07-.41-.62-3.3-.19-4.26,1.88-.16,4.91-1.18,6.49-2.22Z"/>
  <path class="cls-21" d="M58.93,43.94c-.92,0-1.86,0-2.78,0v-6.49c.77-.51,2.15-1.86,2.78-2.59.11,2.91.14,5.86.09,8.86.24.08.19.16-.09.22Z"/>
  <path class="cls-15" d="M49.66,39.68c.03,1.2-.05,2.42,0,3.62.01.27.18.54.19.64-.99,0-1.98,0-2.97,0,0-.1.18-.37.19-.64.05-1.2-.04-2.42,0-3.62.73.06,1.87.06,2.59,0Z"/>
  <path class="cls-13" d="M65.42,43.94c-2.16.01-4.33,0-6.49,0v-9.08c.06-.07.13-.12.19-.19v9.08h6.12v-19.27h.19l.37.13v19.1l-.37.23Z"/>
  <path class="cls-22" d="M53.37,28.38c-.55,1.11-1.54,2.44-2.41,3.34.13-3.09-.84-3.18,2.41-3.34Z"/>
  <path class="cls-17" d="M27.8,59.88c.73.01,2.15-.22,2.59.37.19,7.06.19,14.1,0,21.13.17,2.96.3,6.23,0,9.27-.09.16-.17.33-.37.37-4.21.08-8.41.02-12.6-.19-.13-.1-.24-.19-.29-.35-.07-9.59-.19-19.23-.08-28.84,0-.31-.12-.82.19-1.02l.37.13v26.33l-.37.23c.02-.14.06-.35.16-.37.27-.04,2.99-.05,3.19,0l.26.37.16-.38c1.38-.11,3.59-2.43,3.6-3.75.07-7.56.08-15.28.05-22.79l.18-.32c.87-.01,1.93-.2,2.97-.19Z"/>
  <path class="cls-14" d="M30.02,91.01c-.77.17-2.59,0-3.52,0-2.55.03-6.22.29-8.64.01-.28-.03-.26-.06-.44-.2l12.6.19Z"/>
  <path class="cls-1" d="M30.39,90.64v-9.27c.05-.16.11-.16.19,0,0,2.64.31,6.33.01,8.82-.03.29-.11.28-.2.44Z"/>
  <path class="cls-9" d="M12.6,91.94c-.06,0-.12,0-.19,0v-2.78h.19v2.78Z"/>
  <path class="cls-13" d="M74.68,24.48l.37.13c-.06,6.37-.12,12.74-.18,19.1l-.37.22c-2.09.07-4.21-.02-6.3,0l-.37-.13v-19.1l.37-.23c2.16,0,4.33-.02,6.49,0Z"/>
  <path class="cls-21" d="M68.19,24.48v19.46c-.92,0-1.86,0-2.78,0v-19.46h2.78Z"/>
  <path class="cls-21" d="M74.68,24.48c.92,0,1.86,0,2.78,0v18.63s.55.45.55.45c-.13.03-.26.13-.56.19-.79.14-1.95.15-2.78.19-.06,0-.12,0-.19,0l.19-19.46Z"/>
  <rect class="cls-10" x="5.19" y="85.45" width="7.23" height="3.52"/>
  <path class="cls-19" d="M63.38,65.44c-.58-.11-.55-1.7,0-1.85l.22-.4c1.53-.19,2.61-1.39,2.26-2.96l.3-.35c1.64.1,2.91.85,2.97,2.69.1,3.22-3.64,2.87-5.75,2.87Z"/>
  <path class="cls-22" d="M63.38,59.88l.37.21v3.23l-.37.27-.38.39c-1.52-.08-3.04-.06-4.55.07l-.45-.28c-.58-1.28-.25-2.62.94-3.42,1.14-.76,3.05-.47,4.43-.48Z"/>
  <path class="cls-7" d="M66.16,59.88c.58,2.05-.73,3.54-2.78,3.71v-3.71c.9,0,1.89-.05,2.78,0Z"/>
  <path class="cls-20" d="M63.38,63.59v1.85c-2,0-4.39.52-5.37-1.67,1.69-.44,3.63-.04,5.37-.19Z"/>
  <path class="cls-16" d="M24.83,60.06c.31.19.18.7.19,1.02.09,7.28-.06,14.57-.02,21.85-.03,1.78-2.41,4.38-4.15,4.38h-3.61v-26.69c-.02-.33.12-.54.46-.56,2.38-.03,4.76.04,7.13,0Z"/>
  <path class="cls-1" d="M30.58,69.7c.01,3.89.01,7.79,0,11.67h-.19v-21.13c.14.18.17.17.2.44.29,2.59-.02,6.28-.01,9.01Z"/>
</svg>