<?xml version="1.0" encoding="UTF-8"?>
<svg id="Layer_9" data-name="Layer 9" xmlns="http://www.w3.org/2000/svg" viewBox="0 0 100.28 100.28">
  <defs>
    <style>
      .cls-1 {
        fill: #005697;
      }

      .cls-2 {
        fill: #e8a661;
      }

      .cls-3 {
        fill: #3679ad;
      }

      .cls-4 {
        fill: #d1d8dc;
      }

      .cls-5 {
        fill: #8b808e;
      }

      .cls-6 {
        fill: #e7dbcb;
      }

      .cls-7 {
        fill: #c4bdc5;
      }

      .cls-8 {
        fill: #de646e;
      }

      .cls-9 {
        fill: #eef3f6;
      }

      .cls-10 {
        fill: #655e67;
      }

      .cls-11 {
        fill: #4481af;
      }

      .cls-12 {
        fill: #5391f8;
      }

      .cls-13 {
        fill: #3276a9;
      }

      .cls-14 {
        fill: #decab5;
      }

      .cls-15 {
        fill: #d6dbdd;
      }

      .cls-16 {
        fill: #80b5fb;
      }

      .cls-17 {
        fill: #e2dfe3;
      }

      .cls-18 {
        fill: #1664a0;
      }

      .cls-19 {
        fill: #025798;
      }

      .cls-20 {
        fill: #f2e7d6;
      }

      .cls-21 {
        fill: #edbf6b;
      }

      .cls-22 {
        fill: #035798;
      }

      .cls-23 {
        fill: #fd2a00;
      }

      .cls-24 {
        fill: #5392f8;
      }

      .cls-25 {
        fill: #7fb5fb;
      }

      .cls-26 {
        fill: #989898;
      }
    </style>
  </defs>
  <g>
    <path class="cls-5" d="M59.17,31.64c.06-.17.13-.17.19,0,.22.97-2.56.73-3.07.19.15.02.37.06.38.17.11,1.16.18,4.83,0,5.87l-.38.28.13-.38h29.32l.24.38.33.34c-.14.86.1,1.64.95,2.03,2.37.83,4.09,2.17,5.11,4.61.39.93,1.04,2.72.31,3.47.15.02.36.06.38.17.05.28.06,3.04,0,3.3l-.38.27c.04-.15.1-.37.22-.38,1.26-.12,4.83-.18,6.01,0l.28.38v.19c-.04.15-.09.34-.22.38-.41.14-5.41.05-6.2,0l-.28-.38-.43.25c-5.43-.02-10.87-.05-16.33-.09-4.88-.39-9.38,1.82-10.26,6.84-.07,6.58-.06,13.15,0,19.71.5,4.79,4.82,7.39,9.44,7.13,5.69.03,11.37.02,17.04,0l.52.25c.05-.17.12-.16.19,0,.15.02.37.08.38.19.12,4.06.07,8.87-4.1,11.04-.09.13,2.77.17,3.21.12l.71.34c-.2.32-.73.19-1.05.19-12.21.15-24.53.11-36.69-.28-3.02-.8-5.1-3.25-5.55-6.33.04-11.33-.06-22.67,0-34-.47-.97-.48-1.9,0-2.87.03-4.77-1.18-10.57,3.64-13.32.82-.47,2.63-.86,2.84-1.76l.04-8.29c.04-.17.1-.16.19,0,.5-.59,2.33-.52,2.87,0Z"/>
    <path class="cls-10" d="M64.53,31.64c1-.53,2.06-.52,3.07,0,1.71-.53,3.46-.52,5.17,0,.04-.17.1-.16.19,0,.97-.48,1.9-.47,2.87,0,1.79-.48,3.57-.47,5.36,0,1.03-.48,2.03-.47,3.07,0,1.71-.53,3.46-.52,5.17,0,.04-.17.1-.16.19,0,.89-.55,1.98-.54,2.87,0,.04-.17.1-.16.19,0l.39.17.11,8.29.57.38c2.94.81,5.33,3.1,5.45,6.29v5.56h-6.51v-3.74c0-2.48-1.09-4.99-3.08-6.5-1.73-1.31-4.18-.91-3.62-3.94h-29.69v-6.32c.86-.05,1.74.06,2.6,0,.25-.02.44-.2.46-.2,1.41-.68,3.71-.6,5.17,0Z"/>
    <path class="cls-7" d="M99.21,52.52v34.1c-.04.15-.11.37-.22.38-.77.05-5.62.13-6.01,0l-.28-.38h-.19c-.44-4.41-.56-8.85-.37-13.32-.1-.27-.04-.49.18-.66l-.36-.4c.46-1.89.47-3.68.03-5.38l.33-.35c-.27-.08-.33-.3-.18-.66-.19-4.46-.07-8.91.37-13.32h6.7Z"/>
    <path class="cls-16" d="M99.21,21.49v8.05c-.02,2.86-4.2,2.78-6.25,2.49l-.26-.38c-.06,0-.13,0-.19,0l-.38-.18v-11.85l.38-.23c-.17-.05-.16-.12,0-.19,2.57.04,5.63-.69,6.7,2.3Z"/>
    <path class="cls-10" d="M99.21,86.62v5.75c-.86,3.04-2.99,5.67-6.32,5.94-1.94.16-4-.04-5.94-.1,2.81-.64,4.95-2.94,5.54-5.76l.21-5.83h6.51Z"/>
    <path class="cls-16" d="M75.84,19.19c.17.05.16.12,0,.19-.18.64-2.58.59-2.87,0,.02,4.11-.05,8.2-.19,12.26-1.72,0-3.45-.01-5.17,0l-.38-.18v-11.85l.38-.23c-.32.63-2.69.6-3.07,0l.38.18v11.85l-.38.23c-1.71.02-3.46-.08-5.17,0-.05-4.03-.12-8.12-.19-12.26l-.25.33-2.24.09v11.6s-.38.23-.38.23c-.06,0-.13,0-.19,0-2.63.02-6.21.76-6.52-2.77-.14-1.58-.21-5.8.02-7.28s1.74-2.29,3.14-2.41c7.01-.6,15.87,0,23.09,0Z"/>
    <path class="cls-17" d="M33.5,67.85l-.43.88c-3.4,3.67-6.97,7.11-10.71,10.32-1.93,1.26-5.27,1.97-7.05.29-.27-.68-.28-1.22-.38-1.92-.13-.57-.13-1.15,0-1.72.22-1.62.51-2.6,1.54-3.92,2.66-3.4,7.53-7.46,10.72-10.64.12-.09.32-.21.4-.13,1.68,1.63,4.05,4,5.47,5.8.49.34.64.69.45,1.04Z"/>
    <path class="cls-21" d="M45.38,49.84c.52.6.68,2.93.57,3.75-.24,1.79-1.07,3.24-2.29,4.55-2.32,2.48-4.73,4.85-7.23,7.15-.86,1.1-1.77,1.95-2.74,2.56-.05.17-.12.16-.19,0l-6.32-6.7c3.08-3.07,6.24-6.77,9.48-9.58,2.77-2.4,5.18-3.27,8.72-1.72Z"/>
    <path class="cls-17" d="M21.43,83.94c1.82-.55,2.15.37,1.25,3l-.1,6.01-.98.34c-4.88.2-9.72.16-14.55-.11-2.2-.35-5.18-2.38-5.55-4.63.74-2.14,3.64-4.72,5.94-4.79,4.65-.06,9.37-.07,13.98.19Z"/>
    <path class="cls-21" d="M37.71,83.94c2.81.2,4.94,2.01,5.94,4.6-.17,2.3-3.12,4.21-5.27,4.61-4.86.3-9.75.35-14.66.14l-.95-.34-.18-9.11c5.05-.07,10.09-.03,15.12.11Z"/>
    <path class="cls-16" d="M92.5,19.19v.19c-.18.64-2.58.59-2.87,0,.02,4.11-.05,8.2-.19,12.26-1.72.01-3.45,0-5.17,0l-.38-.18v-11.85l.38-.23c-.32.63-2.69.6-3.07,0l.38.18v11.85l-.38.23c-1.79,0-3.58,0-5.36,0l-.38-.18v-11.85l.38-.23v-.19c5.55,0,11.12-.08,16.67,0Z"/>
    <path class="cls-2" d="M49.59,55.01c0,.96,0,1.92,0,2.87-.58,1.48-1.17,2.62-2.2,3.83-2.81,3.31-6.75,6.64-9.87,9.77l-.58.08c-1.19-.93-2.27-1.98-3.24-3.15l-.02-.57c0-.38.26-.53.48-.77,2.85-3.14,6.46-6.01,9.2-9.19,1.1-1.28,2.02-2.57,2.2-4.31l-.19-3.73c2.37,1.04,3.43,2.78,4.21,5.17Z"/>
    <path class="cls-7" d="M33.69,67.85c1.18,1.23,2.37,2.77,3.83,3.64-3.24,3.25-6.9,7.59-10.34,10.44-1.07.88-1.87,1.36-3.26,1.63-.18.25-.54.34-1.06.26l-.11.22c-.32-.16-.76-.26-1.32-.3-.3.15-.98.1-1.15-.19-2.06-.33-4.22-2.31-4.98-4.21,3.26,1.22,5.81.45,8.34-1.72,3.41-2.93,6.39-6.85,9.86-9.78h.19Z"/>
    <path class="cls-7" d="M22.58,92.95c.16,1.74.16,3.78,0,5.56-4.6,0-10.2.39-14.66,0-4.92-.43-8.04-5.29-6.41-9.97,1.7,2.59,3.58,4.17,6.79,4.41,4.6.34,9.63-.27,14.28,0Z"/>
    <path class="cls-2" d="M22.77,98.5c-.16-1.74-.16-3.78,0-5.56,4.64-.27,9.69.36,14.28,0,3.04-.24,5.2-1.76,6.6-4.41,1.82,4.73-1.38,9.57-6.41,9.97-4.48.35-9.88-.01-14.47,0Z"/>
    <path class="cls-14" d="M23.92,83.56l13.79.38c-4.83-.35-10.07.26-14.94,0,0,3,0,6.01,0,9v5.56c-.06,0-.13,0-.19,0v-5.56c0-3,0-6.01,0-9-.38-.01-.77.01-1.15,0-.17-.05-.16-.12,0-.19.94-.03,1.53,0,2.49-.19Z"/>
    <path class="cls-6" d="M21.43,83.75v.19c-4.32-.15-9.77-.33-13.98-.19,4.12-.06,8.25.08,12.37,0,.42,0,.44-.2.47-.2.29,0,.7.21,1.15.19Z"/>
    <path class="cls-20" d="M14.92,77.43c-.03-.2-.21-.39-.21-.86s.19-.67.21-.86v1.72Z"/>
    <path class="cls-17" d="M92.5,52.52c.02,4.44-.03,8.89.01,13.34,0,.35-.21.61-.21.65-.52.25-1.18.3-1.97.14l-3.8.13c-.97.01-1.35-.24-1.13-.75-.15-.02-.37-.06-.38-.17-.13-1.22-.17-4.7,0-5.87l.38-.28-.42.09c-.44-.69-5.42-.47-5.63-.22-.11,1.92-.13,3.85-.06,5.79-.03,1.09-.76,1.39-1.75,1.38-1.83-.16-3.63-.15-5.39.04-.32.52-.44,5.03.21,5.63l-.08.4c.02-.15.06-.37.17-.38,1.23-.13,4.68-.16,5.87,0l.28.38c.41-.33.54-.18.29.29.15.02.37.06.38.17.11,1.16.18,4.83,0,5.87l-.38.28c2.13.52,4.35.42,6.51,0-.15-.02-.37-.06-.38-.17-.13-1.22-.17-4.7,0-5.87l.38-.28c-.58-.59.56-.73,1.13-.75l3.8.13c.79-.16,1.45-.11,1.97.14,0,.03.21.3.21.65-.05,4.45,0,8.89-.01,13.34-6.21,0-13.58.49-19.64,0-4.1-.32-7.46-3.39-7.76-7.57-.46-6.31.36-13.18.01-19.55.51-3.56,3.56-6.63,7.18-6.99,5.98-.6,14,0,20.21,0Z"/>
    <path class="cls-12" d="M59.17,19.38c.18,4.1.18,8.19,0,12.26-.88.09-1.96,0-2.87,0v-12.26c.72.15,2.29-.2,2.87,0Z"/>
    <path class="cls-25" d="M59.36,31.64c-.06,0-.13,0-.19,0v-12.26c.58.2-.05,10.92.19,12.26Z"/>
    <path class="cls-24" d="M64.53,31.64v-12.26h3.07v12.26c-1.02,0-2.05-.01-3.07,0Z"/>
    <path class="cls-24" d="M81.2,31.64v-12.26h3.07v12.26c-1.02,0-2.05,0-3.07,0Z"/>
    <path class="cls-12" d="M75.84,19.38v12.26c-.96,0-1.92,0-2.87,0-.08-4.04-.08-8.13,0-12.26h2.87Z"/>
    <path class="cls-12" d="M92.5,19.38v12.26c-.96.01-1.92,0-2.87,0-.08-4.04-.08-8.13,0-12.26h2.87Z"/>
    <path class="cls-25" d="M72.96,31.64c-.06,0-.13,0-.19,0l.19-12.26v12.26Z"/>
    <path class="cls-25" d="M89.63,31.64c-.06,0-.13,0-.19,0l.19-12.26v12.26Z"/>
    <path class="cls-8" d="M92.31,66.51c0,.38.37,1.12.39,1.81.05,1.65-.34,3.03-.39,4.32-1.91.6-4.54-.15-6.42.19-.16.03-.48.15-.48.29v6.32c0,.89-4.33.75-5.09.68-.35-.03-1.43-.29-1.43-.68v-6.32s-.27-.29-.29-.29h-6.32c-.13,0-.62-.62-.67-.87-.12-.61-.07-4.78.14-5.22.13-.27.23-.37.53-.43,1.62-.29,4.05.23,5.76,0,.63-.08.78-.24.86-.86.14-1.08-.29-5.67.18-6.14.2-.2.59-.25.86-.29.67-.08,4.48-.08,4.88.1.1.05.58.53.58.57v6.32c0,.13.32.26.48.29,1.88.34,4.51-.41,6.42.19Z"/>
  </g>
  <g>
    <path class="cls-26" d="M20.37,2.07l4.08,2.8c.19.18.26.49.1.71l-4.25,2.87c-.43.08-.71-.44-.38-.74l2.67-1.87c-1.48,0-3.11.36-4.53.8C2.8,11.39-1.36,31.43,10.91,41.79c12.82,10.83,32.33,2.61,33.73-14,.03-.39-.13-1.86.24-1.99.35-.12.61.03.66.38.17,1.26-.19,3.42-.48,4.69-1.86,8.37-8.8,15.02-17.29,16.4C13.12,49.66.59,37.05,3.16,22.4,4.83,12.87,13.07,5.41,22.77,4.91l-2.94-2.17c-.2-.24.06-.47.18-.67h.36Z"/>
    <path class="cls-1" d="M22.49,8.76c17.53-1.36,26.16,20.37,12.59,31.17-11.08,8.81-27.62,1.31-28.39-12.75-.5-9.17,6.57-17.7,15.8-18.42Z"/>
    <path class="cls-9" d="M22.95,10.15c.3-.06.72-.09,1.02-.03,0,0-.03.05-.08.11v3.08c.09.01.17.03.19.08.04.09.05,1.66.03,1.9l-.18.11c.18.08.35.08.53,0-.07,0-.17-.03-.18-.08-.02-.28,0-2.07.04-2.17.02-.04.09-.06.18-.08-.03-1-.03-1.98.01-2.96l.93.05c2.09.09,4.65.88,6.49,1.87.17.14.14.35-.08.63l-.72,1.13c-.14.24-.08.53.23.38l.97-1.73c.05-.06.16-.04.31.04,2.19,1.35,4,3.23,5.33,5.42v.2s-1.73.93-1.73.93c-.13.37.07.39.61.07l1.29-.77.19.1c1.23,2.26,1.88,4.81,1.96,7.38v.09l-.08.18h-5.18c-.08,0-.06.26-.02.27h5.18s.11.17.11.17v.09c-.08,2.58-.72,5.11-1.96,7.38l-.17.12c.06-.17-2.75-1.51-1.86-.69l1.64.89.03.22c-1.38,2.25-3.1,4.01-5.33,5.42-.15.08-.27.09-.34,0l-.94-1.72c-.27-.06-.38.04-.23.29l.81,1.49-.1.2c-1.02.62-2.5.78-3.71.87-.73.05-2.86.14-3.39-.18-.07-.04-.13-.1-.19-.15-.08,0-.14-.03-.18-.09v-2.96c-.07-1.73-.54-.18-.4.64l.05,2.08-.18.24c-.07.03-.14.06-.22.08-.6.14-2.86-.79-3.54-1.11-4.1-1.91-7.36-5.57-8.7-9.91-.19-.61-.76-2.7-.52-3.14.86.03,1.72.01,2.57-.04-.03-.2-.03-.42,0-.62-.88-.05-1.77-.07-2.65-.04-.34-.52.02-3.38.16-4.16s.33-1.53.64-2.22l.26.02c.1-.08.21-.16.33-.22l-.15-.49c-.02-.08-.03-.16-.03-.24,0-.6,1.18-2.43,1.59-3.03.42-.6,1.71-2.33,2.29-2.54.08-.03.16-.04.24-.06h.2s.73,1.27.73,1.27c.22.08.36-.04.28-.27l-.68-1.16.09-.2c-.14-.26,0-.4.2-.57l1.23-.67c1.59-.62,3.06-1.08,4.8-1.16Z"/>
    <path class="cls-15" d="M13.44,26.51c-.32.24-1.98,0-2.49.09.63,6.91,6.1,12.76,12.89,14.04.07,0,.16.02.18.08.05.13.06,1.5-.18,1.52.08.03.08.05,0,.09-2.57-.07-5.11-.76-7.38-1.96-.17-.14-.14-.35.08-.63l.72-1.13c.14-.24.08-.53-.23-.38l-.97,1.73c-.05.06-.16.05-.31-.04-2.26-1.42-3.94-3.15-5.33-5.42v-.2s1.73-.93,1.73-.93c.13-.37-.07-.39-.6-.07l-1.3.77-.19-.1c-1.27-2.34-1.87-4.61-1.96-7.29-.04-.07-.04-.13,0-.18l.08-.18h5.14l.11.18Z"/>
    <path class="cls-15" d="M11.84,19.49c-.17.06-.18.22-.23.35-.68,1.9-.81,3.96-.75,5.96.1.1,2.26-.14,2.58.09,0,.07-.03.18-.08.18-1.45.05-3.27.09-4.7,0-.3.06-.49,0-.55-.18-.03-.05-.03-.11,0-.18.08-2.66.69-4.96,1.96-7.29.02-.04.05-.07.08-.09.12-.07,1.42.78,1.63.95l.06.21Z"/>
    <path class="cls-15" d="M15.75,12.46c.33-.23.6.21.36.44-1.8,1.6-3.18,3.64-4.09,5.87-.55-.04-1.29-.44-1.6-.89,1.36-2.24,3.1-4.03,5.33-5.42Z"/>
    <path class="cls-15" d="M31.84,40.2c.24-.07.28,0,.09.18-2.21,1.2-4.86,1.89-7.38,1.96-.08-.03-.08-.05,0-.09l-.18-.1c-.06-.26-.07-1.3.18-1.41,2.43.42,4.94.15,7.29-.53Z"/>
    <path class="cls-22" d="M31.84,40.2c-.18-.39-.98-1.64-.96-1.89.02-.3.39-.34.59-.22.07.04.63,1.15.75,1.34.09.16.22.53.43.51-.25.16-.43.29-.71.44,0-.08-.07-.13-.09-.18Z"/>
    <path class="cls-19" d="M16.73,12.55c.16.27.71,1.13.76,1.33.11.4-.24.61-.57.43-.07-.04-.7-1.2-.82-1.4-.11-.19-.13-.5-.36-.44.25-.16.43-.3.71-.44.25.03.35.31.27.53Z"/>
    <path class="cls-19" d="M32.64,12.46c-.21-.02-.34.35-.43.51-.11.19-.68,1.3-.75,1.34-.33.19-.68-.03-.57-.43.14-.5.91-1.28,1.03-1.87.25.13.47.3.71.44Z"/>
    <path class="cls-19" d="M15.75,39.93c.21.02.34-.35.43-.51.11-.19.68-1.3.75-1.34.33-.19.68.03.57.43-.14.5-.91,1.28-1.03,1.87-.22-.11-.47-.29-.71-.44Z"/>
    <path class="cls-19" d="M38.33,33.97c-.12.22-.25.36-.36.53l-1.84-1c-.44-1.48,1.69.25,2.2.47Z"/>
    <path class="cls-19" d="M10.06,33.97c.38-.17,1.88-1.27,2.21-1.06.1.06.12.49-.01.59l-1.84,1c-.12-.2-.25-.33-.36-.53Z"/>
    <path class="cls-19" d="M12.02,18.78c.2.13.38.08.33.47-.03.28-.25.31-.51.24-.39-.11-1.31-.9-1.78-1.07.11-.2.22-.32.36-.53.54.26,1.1.55,1.6.89Z"/>
    <path class="cls-19" d="M37.97,17.89c.11.18.25.35.36.53-.37.19-1.87,1.27-2.21,1.06-.1-.06-.12-.48.01-.59l1.84-1Z"/>
    <path class="cls-3" d="M25.44,10.15c-.29-.01-.59,0-.89,0l-.09,5.24-.15-.34c.02-1.57,0-3.15-.08-4.72h-.12c-.02,1.57-.03,3.15-.04,4.72l-.15.35-.09-5.24c-.29,0-.59-.01-.89,0,.09-.15.34-.09.49-.09.64,0,1.39-.07,2,.09Z"/>
    <path class="cls-4" d="M18.15,11.31c-.43.42-1.2.65-1.42,1.24-.09-.16-.27-.3-.27-.53.55-.29,1.12-.49,1.69-.71Z"/>
    <path class="cls-13" d="M8.11,25.89c.17.2.17.42,0,.62,0,.06,0,.12,0,.18-.15-.21-.15-.75,0-.98,0,.06,0,.12,0,.18Z"/>
    <path class="cls-18" d="M40.28,26.6s0-.06,0-.09c-.17-.2-.17-.42,0-.62,0-.03,0-.06,0-.09.15.17.15.63,0,.8Z"/>
    <path class="cls-11" d="M24.55,42.24v.09c-.24,0-.48,0-.71,0v-.09c.04-.27.65-.26.71,0Z"/>
    <path class="cls-23" d="M22.89,27.45c-.78-.78-.57-1.95.12-2.7l.84-6.18c.11-.32.54-.34.67,0l.83,6.1c.1.36.45.55.55.96.5,1.9-1.69,3.15-3.02,1.82Z"/>
    <path class="cls-22" d="M23.84,40.64c0-1.05-.11-2.42,0-3.42.05-.42.42-.67.63-.34.17.27.08,3.27.08,3.85v1.51h-.71v-1.6Z"/>
    <path class="cls-1" d="M13.44,25.89c.23.17.23.45,0,.62h-5.33c0-.21,0-.42,0-.62h5.33Z"/>
    <path class="cls-1" d="M40.28,25.89c0,.21,0,.42,0,.62h-5.36c-.17-.04-.17-.58,0-.63h5.36Z"/>
    <path class="cls-22" d="M23.93,15.4c-.16-1.65.12-3.56,0-5.24h.48c-.03,1.66.21,3.61.05,5.24-.03.34-.5.34-.53,0Z"/>
  </g>
</svg>