<?xml version="1.0" encoding="UTF-8"?>
<svg id="Layer_5" data-name="Layer 5" xmlns="http://www.w3.org/2000/svg" viewBox="0 0 200 200">
  <defs>
    <style>
      .cls-1 {
        fill: #feca74;
      }

      .cls-2 {
        fill: #cddbf1;
      }

      .cls-3 {
        fill: #598ddd;
      }

      .cls-4 {
        fill: #446aa8;
      }

      .cls-5 {
        fill: #446aa9;
      }

      .cls-6 {
        fill: #f0a041;
      }

      .cls-7 {
        fill: #e48a29;
      }

      .cls-8 {
        fill: #febd51;
      }

      .cls-9 {
        fill: #ecf3f9;
      }

      .cls-10 {
        fill: #456aa9;
      }

      .cls-11 {
        fill: #fefefe;
      }
    </style>
  </defs>
  <path class="cls-8" d="M83.7,188.15c-23.07,14.64-53,8.61-68.44-13.85l-.39-2.16c-.05-17.82-.08-35.64-.02-53.46.01-4.42,3.32-8.61,7.27-10.34,4.58-2,18.73-1.46,24.11-1.12,5.82.37,10.24,1.33,12.26,7.63l-.12,17.27c.28,20.42,8.35,41.3,24.44,54.36l.89,1.67Z"/>
  <path class="cls-1" d="M107.44,56.4l-.45,1.29c-7.41,5.61-15.34,5.97-24.2,6.27-6.01.21-12.07.23-18.08.04-9.8-.3-16.4-.55-24.54-6.71-14.02-10.6-14.13-24.17-13.4-40.37l.76-1.27c34.08-24.34,78.59-.43,79.92,40.75Z"/>
  <path class="cls-8" d="M27.52,15.65c.3,8.97-1.14,18.04,2.07,26.61,3.85,10.28,14.67,19.47,25.83,20.46,9.45.84,26.47.73,36.01.02,5.72-.42,11.44-3.02,16.01-6.35.08,2.36,0,4.76,0,7.12l-1.19,1.18c-13.28,4.2-24.77,12.55-32.45,23.88-4.16,4.66-6.88,6.38-13.27,7.04-9.48.98-21.82.9-31.34.08-6.49-.56-14.23-4.85-14.28-12.19-.12-17.81-.09-35.62-.04-53.43l.39-2.17c3.84-5.58,6.85-8.4,12.26-12.26Z"/>
  <path class="cls-6" d="M107.44,63.52c0,3.69,0,7.39,0,11.08l-1.23,1.42c-5.39,2.55-10.33,5.95-14.79,9.89l-1.79.56c-1.17,2.25-2.81,4.33-4.91,6.24-1.43,2.21-3.09,3.95-4.98,5.23l-1.08.79H16.14l-.49-.79.79.45c.23,1.3.36,5.32-.79,5.88l.28-.79h59.77l.49.79-.07,1.99c-11.38,24.78-5.64,55.28,15.01,73.37l.88,1.79c-2.12,2.99-5.29,4.81-8.31,6.73-14.87-10.92-23.65-29.99-25.67-48.12-.91-8.21-.2-16.46-.23-24.7-.92-3.6-3.93-6.46-7.64-7-4.73-.68-20.38-.68-25.11,0-5.15.74-9.14,5.21-9.41,10.37-.12,17.81.21,35.62.02,53.43,0,.67.25,1.76-.4,2.17-1.51-2.2-2.77-4.33-3.96-6.73l-.79-3.56V38.21l.79-3.56c1.18-2.4,2.45-4.53,3.96-6.73.66.41.4,1.5.4,2.17.19,17.79-.19,35.59.04,53.37.8,6.08,5.92,10.81,12.01,11.33,8.66.75,24.56.69,33.26,0,10.75-.85,12.85-8.97,19.36-15.46,7.19-7.16,17.37-13.07,27.11-15.81Z"/>
  <path class="cls-3" d="M175.49,179.44c-2.53.78-5.8.36-8.42-.22l-.29-.97.91-1.7c12.15-9.54,19.9-23.66,21.06-39.1l.97-3.51-.78-1.61c.06-30.61-25.58-56-56.16-55.78l-1.61-.77-2.64.83c-14.19,1.21-27.18,7.65-37.1,17.83l-1.8.73c-1.31-2.44-1.16-6.18,0-8.7,5.21-4.84,11.24-9.03,17.8-11.87,65.55-28.33,120.53,57.3,68.05,104.84Z"/>
  <path class="cls-4" d="M89.64,95.17c.35.07.34.21,0,.4l-.51,1.83c-39.43,50.77,20.87,117.19,75.3,81.66l1.97-.42c-.11-.37.02-.5.4-.4,2.71,1.25,5.98.27,8.7,1.19-23.47,21.26-58.96,22.24-83.48,1.98-22.54-18.63-28.67-51.02-15.83-77.15-.56-1.91,1.64-5.63,3.56-6.33,2.72-4.1,6.3-8.14,9.89-11.47.06,2.89-.08,5.81,0,8.7Z"/>
  <path class="cls-7" d="M11.3,167.58c-2.91-5.89-4.54-11.81-5.16-18.38,1.41-31.47-1.81-64.49,0-95.78.38-6.5,2.3-12.97,5.16-18.77v132.93Z"/>
  <path class="cls-7" d="M79.75,97.94c-1.22,1.85-2.58,4.33-3.56,6.33H15.66v-6.33h64.09Z"/>
  <path class="cls-9" d="M131.18,75.79l-.22.92c-5.04,2.2-5.15,9.31.46,10.8,4.3-.22,19.08,2.09,20.79,4.91.15.24.25.51.33.78l.03.97c-2.83,2.54-3.97,6.84-2.7,10.45l-.49.84c.17.27.34.58.25.87-.15.46-4.01,4.4-4.99,3.87.23,1.09-1.25,1.2-2.14,1.2-6.36,0-13.37-.12-19.69-.47-.69-.04-1.32-.39-1.9-.73-1.72-.04-4.99-3.11-4.75-4.75l-.47-.87c3.14-7.94-6.27-15.87-13.36-10.41-8.4,6.47-.64,18.58,8.61,15.16l.87.47c1.35-.49,4.7,2.97,4.35,4.35l.18,1.32c-2.35,4.39-4.52,8.89-6.54,13.44l-1.16.67c-.45,1.2-7.24.92-7.65.53-.13-.13-.21-.32-.26-.53-1.01-.44-1.89-1.29-2.63-2.54-1.25-.9-2.09-1.9-2.51-3-.31-.26-.61-.53-.87-.84-2.33-2.8-4.69-15.71-5.21-19.98-.67-2.73-.62-5.28.14-7.67,0-.13,0-.26,0-.4,11-11.72,25.25-18.95,41.54-19.39Z"/>
  <path class="cls-9" d="M166.79,178.26c-.15.11-.26.3-.4.4-.38.14-.75.27-1.14.35-3.28.66-14.1-2.86-17.85-4.2-9.4-3.35-19.62-8.74-27-15.49-.26-.24-.45-.57-.64-.91s-.33-.73-.45-1.12c-.71-1,.47-2.23,1.58-1.98-.21-1.04.86-1.19,1.73-1.2,6.52-.08,13.16.01,19.69.1.32,0,.64.11.96.22s.65.29.96.48c1.71.35,4.23,2.76,5.31,4.19l-.16.95.47.87c-3.14,7.93,6.29,15.86,13.36,10.41,8.41-6.47.66-18.6-8.61-15.16l-.88-.47c-1.36.49-4.69-2.97-4.35-4.35l-.18-1.32c2.35-4.39,4.52-8.89,6.54-13.44l1.16-.67c1.04-1,5.89-1.09,7.35-.79l.57.79.97.33c2.58,5.85,10.91,6.9,15.02,2.08l1.03-.04c3.01.46,5.99-.94,6.96-4.01l.96-.34c-.38,18.03-8.69,33.63-22.95,44.31Z"/>
  <path class="cls-11" d="M189.73,133.95c-1,3.1-2.76,4.86-6.13,5.16-.64.06-2.08.39-1.79-.81l-.34-.92c2.72-4.81.16-11.66-5.2-13.22l-.39-.89-.96-1c-1.55-5.94-4.16-11.47-7.83-16.61l.09-1.38-.59-.81c1.89-7.43-6.44-13.95-13.11-9.94l-.95-.32c-5.16-2.91-10.99-4.02-16.82-4.74-2.57-.32-4.24.57-6.72-1.19-4.51-3.19-2.78-9.87,2.18-11.48,32.65-.87,59.25,25.49,58.55,58.16Z"/>
  <path class="cls-2" d="M95.57,124.06l-.87.5c-19.3-3.24-12.14,25.94,3.69,13.9.64-1.28,1.42-2.12,2.33-2.54.31-1.03.43-1.03.79,0l1.47.86c3.18,5.08,6.6,10.06,10.99,14.17l.59,1.59c.41,1.24-1.47,3.46-2.77,3.17l-.87.47c-7.93-3.14-15.86,6.29-10.41,13.36,6.47,8.4,18.58.64,15.16-8.61l.47-.87c-.3-1.3,1.92-3.18,3.17-2.77,12.94,11.86,29.74,18.88,47.08,21.36-18.85,13.7-43.42,14.9-63.42,2.69-29.81-18.18-36.33-59.39-13.33-85.78.38,9.79,2.54,19.33,5.93,28.49Z"/>
  <path class="cls-3" d="M144.63,110.21c2.09-1.47,5.78,1.93,4.75,3.96l1.21.57c2.37,4.43,4.55,8.97,6.59,13.55l-.29,1.31c2.68.78,2.7,5.56,0,6.33-2.03,4.68-5.06,10.98-7.52,15.43,1.05,2.38-2.84,5.43-5.14,3.56-6.84.37-14.68.12-21.59-.02-.72-.01-1.54.42-1.75.41-1.85,1.62-5.89-2-4.75-3.96l-1.21-.57c-2.37-4.43-4.55-8.97-6.59-13.55l.29-1.31c-2.68-.78-2.7-5.56,0-6.33,2.03-4.67,5.06-10.99,7.52-15.43-.99-2.08,2.64-5.4,4.75-3.96,6.84-.29,14.59.29,21.58.41.86.02,1.88-.43,2.15-.41Z"/>
  <path class="cls-3" d="M116.15,105.46l.4.79c-.47.9-3.76,4.45-4.76,3.56-9.4,4.62-19.28-8.26-10.49-15.83,8.16-7.03,19.14,2.74,14.84,11.48Z"/>
  <path class="cls-3" d="M167.18,104.27c.78,3.76-4.84,6.61-8.1,7.06-1.58.22-5.2.37-5.36-1.52l-.79.4c-.9-.47-4.45-3.76-3.56-4.76-1.9-3.87-.35-9.78,3.17-12.26,7.39-5.23,17.46,2.45,14.64,11.08Z"/>
  <path class="cls-3" d="M95.57,124.06c1.76.77,4.55,3.72,5.14,5.54,1.75.29,1.76,6.04,0,6.33-2.2,6.72-11.45,8.52-16.23,2.98-6.69-7.77,1.93-18.83,11.09-14.84Z"/>
  <path class="cls-4" d="M108.63,129.59c-.42.97-1.17,1.86-1.22,2.98-.06,1.37.72,2.2,1.22,3.35-2.36.78-4.76.78-7.12,0h-.79c.56-1.71.56-4.62,0-6.33h7.91Z"/>
  <path class="cls-10" d="M153.73,109.81c.5,1.33-2.98,4.73-4.35,4.35-.39-.7-1.45-2.59-1.98-2.96-.31-.22-2.52-.98-2.77-.99l4.75-4.75c.26.52,3.83,4.09,4.35,4.35Z"/>
  <path class="cls-10" d="M120.89,110.21c-.24.01-2.45.78-2.77.99-.53.37-1.59,2.26-1.98,2.96l-4.35-4.35c.52-.26,4.09-3.83,4.35-4.35l4.75,4.75Z"/>
  <path class="cls-3" d="M175.89,123.26c6.27,1.09,9.68,9.74,5.93,15.03-4.36,6.15-14.7,4.7-17.01-2.37-1.75-.29-1.76-6.04,0-6.33-1.29-1.92,2.36-4.75,4.07-5.71,1.69-.95,5.98-2.6,7.01-.62Z"/>
  <path class="cls-3" d="M149.38,160.06l-.4-.79c.47-.9,3.76-4.45,4.76-3.56,9.47-4.65,19.25,8.29,10.49,15.83-8.13,7.01-19.14-2.74-14.84-11.48Z"/>
  <path class="cls-4" d="M164.81,129.59c-.56,1.71-.56,4.62,0,6.33h-7.91c.42-.97,1.17-1.86,1.22-2.98.06-1.37-.72-2.2-1.22-3.35l.45-.79h6.89l.57.79Z"/>
  <path class="cls-10" d="M153.73,155.71c-.52.26-4.09,3.83-4.35,4.35l-5.14-5.14c3.48-.19,3.5-.58,5.14-3.56l4.35,4.35Z"/>
  <path class="cls-5" d="M120.89,155.31c-.49.61-1.06,1.45-1.58,1.98-.91.92-2.17,1.91-3.17,2.77-.26.16-.63.35-.83.2-1.05-.81-3.73-3.4-3.52-4.55.86-1,1.85-2.26,2.77-3.17-.57-1.1.52-1.76,1.58-1.19.39.7,1.45,2.59,1.98,2.96.31.22,2.52.98,2.77.99Z"/>
  <path class="cls-9" d="M175.89,123.26c-4.27-.74-9.7,2.14-11.08,6.33h-7.91c-2.03-4.68-5.06-10.99-7.52-15.43l4.35-4.35c4.78,2.35,11.79-.47,13.45-5.54,3.59,5.96,7.76,11.88,8.7,18.99Z"/>
  <path class="cls-3" d="M111.79,155.71c.52.26,4.09,3.83,4.35,4.35,4.62,9.4-8.26,19.28-15.83,10.49-7.01-8.13,2.74-19.14,11.48-14.84Z"/>
  <path class="cls-9" d="M108.63,135.92c2.03,4.68,5.06,10.99,7.52,15.43-.47.39-1.17.78-1.58,1.19-5.37-4.61-9.34-10.64-13.06-16.62h7.12Z"/>
  <polygon class="cls-4" points="122.34 117 143.65 117.32 151.27 132.89 143.45 148.39 121.88 148.19 114.26 132.63 121.73 117.57 122.34 117"/>
  <path class="cls-5" d="M106.54,98.02c4.64-1.01,5.44,5.38,1.8,6.17-4.64,1.01-5.44-5.38-1.8-6.17Z"/>
  <path class="cls-5" d="M157.18,98.02c4.64-1.01,5.44,5.38,1.8,6.17-4.64,1.01-5.44-5.38-1.8-6.17Z"/>
  <path class="cls-5" d="M90.72,129.67c4.64-1.01,5.44,5.38,1.8,6.17-4.64,1.01-5.44-5.38-1.8-6.17Z"/>
  <path class="cls-5" d="M173.01,129.67c4.64-1.01,5.44,5.38,1.8,6.17-4.64,1.01-5.44-5.38-1.8-6.17Z"/>
  <path class="cls-5" d="M157.18,161.32c4.64-1.01,5.44,5.38,1.8,6.17-4.64,1.01-5.44-5.38-1.8-6.17Z"/>
  <path class="cls-5" d="M106.54,161.32c4.64-1.01,5.44,5.38,1.8,6.17-4.64,1.01-5.44-5.38-1.8-6.17Z"/>
</svg>