<?xml version="1.0" encoding="UTF-8"?>
<svg id="Layer_5" data-name="Layer 5" xmlns="http://www.w3.org/2000/svg" viewBox="0 0 200 200">
  <defs>
    <style>
      .cls-1 {
        fill: #feecfe;
      }

      .cls-2 {
        fill: #cccced;
      }

      .cls-3 {
        fill: #f98888;
      }

      .cls-4 {
        fill: #e54242;
      }

      .cls-5 {
        fill: #75a0f1;
      }

      .cls-6 {
        fill: #7ba8fe;
      }

      .cls-7 {
        fill: #e3bde7;
      }
    </style>
  </defs>
  <path class="cls-6" d="M81.34,42.37c-1.98,23.1,24.51,31.84,32.28,50.04,6.32,14.82,2.34,44.83-1,60.73-4.51,21.46-11.77,42.04-37.31,43.8-14.26-.8-27.21-10.78-31.79-24.68l.39-1.48.47-.82c8.45,1.01,17.45,1.11,26.1.76,14.32-.57,19.67-3.6,23.7-17.69,3.61-12.6,5.62-30.58,4.94-43.63-.83-16.02-11.93-18.99-25.7-19.48-11.02-.39-22.35-.29-33.18.65l-.77-.69c-.17-1.51.42-2.97,1.78-4.39,5.57-6.58,11.57-12.78,17.97-18.61,6.22-6.29,10.14-14.3,10.42-23.21l.82-1.28.63-.81c3.2.19,6.4.22,9.59.09l.65.72Z"/>
  <path class="cls-5" d="M69.27,42.37c.37-.78.84-.78,1.21,0,.03,4.57-.96,9.34-2.75,13.56-5.75,13.59-21.47,21.09-28.25,33.94l-1,.97c-13.59,4.66-14.5,15.54-13.93,28.22.46,10.33,2.06,21.69,4.53,31.69,1.99,8.07,4.65,16.28,13.65,18.61l.78,1.02c.57-.53.77-.31.4.4,2.93,10.34,10.82,18.81,20.66,23.02l10.74,3.15c-9.83.68-28.63.98-37.54-2.51-18.49-7.24-23.05-23.98-26.74-41.69-3.45-16.55-7.62-47.35.06-62.49,8.24-16.25,32.39-25.39,31.21-46.68l.4-1.66c8.66-.55,17.81-.81,26.57.45Z"/>
  <path class="cls-6" d="M182.78,162.73c-.65,7.24-4.06,25.86-9.04,31.01-4.42,4.57-14.69,3.24-20.74,3.21-7.4-.08-10.3-9.44-12.07-15.47-.97-3.33-4.05-15.26-3.25-17.81.1-.33.26-.64.42-.94,14.44-.35,30.1-.35,44.68,0Z"/>
  <path class="cls-7" d="M68.87,4.13l-.35.93c-3.46,1.13-6.03,3.63-6.8,7.22-.81,3.78-.89,20.14.64,23.48,1.26,2.74,3.77,4.53,6.53,5.61l.39,1c-8.66.08-17.33-.03-25.99-.03l-.98,1.24c-.03-.52.11-1.05-.05-1.56-4.49-.91-7.69-4.72-8.3-9.21-.57-4.22-.53-14.5-.1-18.81.48-4.84,4.1-9.55,9.09-10.23,6.29-.86,16.98-.13,23.72-.04.68,0,1.79-.26,2.21.41Z"/>
  <path class="cls-1" d="M81.34,42.37c-2.74.47-7.79-.04-10.87,0-.4,0-.81,0-1.21,0-4.36-1.52-8.03-4.56-8.47-9.44-.37-4.1-.56-17.52.19-21.17s4.27-6.79,7.87-7.62c7.22-1.67,19.09-1.1,20.75,8.03.64,3.53.64,18.25,0,21.77-.67,3.65-4.6,7.81-8.27,8.43Z"/>
  <path class="cls-1" d="M182.78,162.33c-14.44.35-30.1.35-44.68,0-.31-.04-.77-.13-.81-.36-.31-2.12-.26-9.14,0-11.33l.81-.59c-.31-.22-.73-.53-.69-.85.44-3.44,5.47-8.32,9.15-8.21,7.88-.09,18.37-.75,25.96,0,11.62,1.15,11.01,12.47,10.27,21.33Z"/>
  <path class="cls-5" d="M138.1,162.73c1.06,8.69,2.75,18.02,6.37,26.03,1.88,4.17,3.92,6.83,8.52,8.18-9.6-.06-16.41,2.31-21.12-7.66-3.46-7.33-6-18.07-6.25-26.15v-.4c.04-.31.14-.79.36-.81,1.44-.1,11.42-.14,11.85.27.14.13.21.32.27.54Z"/>
  <path class="cls-7" d="M146.56,141c-1.02.94-2.4,1.03-3.6,1.84-1.7,1.15-4.86,5.17-4.86,7.22v12.28h44.68c-.01.13.01.27,0,.4h-57.16c-.15-.76-.28-1.57-.4-2.42-.04-4.12-.59-9.74,1.28-13.41,3.85-7.54,13.01-5.83,20.05-5.91Z"/>
  <path class="cls-2" d="M125.62,162.73c0,.13,0,.27,0,.4-.7-.55-.39-1.94-.4-2.82.68.44.39,1.66.4,2.42Z"/>
  <path class="cls-1" d="M43.91,170.78l-.4-.4c-.33-.43-.65-.86-.92-1.32s-.52-.91-.66-1.4c-5.43-19.31-11.43-51.21-5.92-71.02.47-2.95,1.63-5.2,3.48-6.77.93-.17,2.82-.36,3.81-.42,10.62-.66,26.48-.72,37.07,0,11.04.75,18.75,7.96,19.52,19.12.7,10.07-.78,23.33-2.56,33.3-2.24,12.58-4.7,27.79-20.25,29.26-8.03.76-21.58.58-29.75.07-1.15-.07-2.24-.54-3.41-.42Z"/>
  <path class="cls-7" d="M39.48,89.87c-6.28,11.9-4.97,30.06-3.62,43.27,1.29,12.64,4.24,25.05,7.64,37.24-11.36-2.52-13.74-12.68-15.91-22.54-2.37-10.81-6.03-35.62-2.52-45.6,2.1-5.96,8.18-11.2,14.4-12.37Z"/>
  <path class="cls-3" d="M55.18,115.64c.42-.67,1.53-.4,2.21-.41,4.05-.04,9.93-.88,12.68,2.63,1.84,2.34.75,4.95,1.39,5.86.48.69,2.9.26,3.96.47,5.48,1.09,5.14,10.38,4.72,14.6-.51,4.99-3.97,7.23-8.85,6.64.54,3.72-.91,7.84-5.06,8.42-1.64.23-4.24.36-5.98.46-1.22.07-3.2.25-4.25-.42.48-.69,1.22-.96,2.24-.81-2.02-1.71-2.86-4.14-2.7-6.74-6.68-.2-8.26-3.45-8.55-9.46-.34-6.89-.22-13.72,8.54-13.79-.04-2.44.63-5.01,2.54-6.67-1.44.22-2.4-.04-2.88-.77Z"/>
  <path class="cls-4" d="M55.18,115.64c1.21-.13,2.98-.06,4.23,0,.45.02,1.1-.26,1,.4-3.4,1.02-4.36,4.86-4.02,8.06-2.88-.39-6.45.45-7.81,3.26-.95,1.97-.91,9.78-.67,12.25.42,4.33,4.45,6.4,8.48,5.81-.26,3.1.2,5.23,2.61,7.25.64.53,1.65.53,1.81,1.2-1.6-.07-3.24.11-4.83,0-4.73-.32-6.52-3.96-6.04-8.46-9.19,1.07-9.5-7.32-8.85-14.28.51-5.48,3.45-7.51,8.85-7.45-.48-3.73,1.12-7.61,5.23-8.05Z"/>
</svg>