<?xml version="1.0" encoding="UTF-8"?>
<svg id="Layer_5" data-name="Layer 5" xmlns="http://www.w3.org/2000/svg" viewBox="0 0 200 200">
  <defs>
    <style>
      .cls-1 {
        fill: #96e3f8;
      }

      .cls-2 {
        fill: #62d7f8;
      }

      .cls-3 {
        fill: #c6edfa;
      }

      .cls-4 {
        fill: #c8e1e6;
      }

      .cls-5 {
        fill: #d9e9ee;
      }
    </style>
  </defs>
  <path class="cls-5" d="M2.1,88.72c1.27-4.53,12.96-4.13,15.96-2.76,3.09,1.41,3.6,9.28,4.96,12.22.2.44.52.6.88.87,1.72,4.71,3.19,10.05,4.54,15.06.12.45.14.93.15,1.42s-.04.99-.1,1.49c6.05,18.07,11.62,36.29,16.7,54.67,1.75,3.26,5.01,5.31,8.74,5.38h95.56c2.15-.14,4.05-1.11,4.78-3.22,5.15-19.12,10.9-38.06,17.24-56.83-.05-.54-.08-1.08-.06-1.61s.05-1.05.19-1.54c1.32-4.94,2.76-10.2,4.47-14.82.36-.26.68-.43.88-.87,1.34-2.89,1.8-10.29,4.49-11.92,2.31-1.4,7.72-1.01,10.5-.98.65,0,1.7-.24,2.1.39l-.92.7-7.67.11-29.68,103.28c-1.46,3.5-4.08,5.95-7.99,6.03-36.87.3-73.91.08-110.72-.36-3.76-1.26-6.21-4.33-7.15-8.14L2.1,91.4v-2.68Z"/>
  <path class="cls-2" d="M176.08,99.05c.69.31.18,1.26.05,1.77-1.42,5.42-3.09,10.82-4.64,16.21-1.7,1.91-5.12,3.42-7.62,4.38-5.84,2.24-8.76,2.26-14.67.35-8.36-4.52-15.43-4.6-23.8-.03-4.08,1.63-8.5,1.97-12.67.47-4.2-2.12-8.51-3.47-12.94-4.05-4.84.78-9.61,2.24-14.3,4.39-2.98.84-6.15.88-9.12-.01-9.33-4.38-16.51-6.22-25.95-.74-3.95,1.61-7.78,1.77-11.88.65-3.26-.89-7.86-2.97-10.05-5.4-1.55-5.38-3.26-10.78-4.64-16.21-.13-.51-.64-1.45.05-1.77,7.59,3.47,13.04,8.45,21.98,7.64,5.43-.49,9.14-4.25,14.9-4.6,10.82-.66,15.17,7.91,27.46,3.37,2.2-.81,3.99-2.17,6.4-2.78,11.19-2.8,15.58,4.81,25.83,4.03,5.45-.41,9.22-4.11,14.52-4.6,11.16-1.01,15.76,7.93,28.2,3.34,2.58-.95,10.84-4.91,12.9-6.41Z"/>
  <path class="cls-4" d="M194.05,85.66c2.97.31,4.25,3.07,3.73,5.84l-28.77,98.94c-3.59,7.4-14.26,5.29-21.23,5.35,3.42-1.1,5.87-2.92,7.28-6.3l29.83-103.81c2.94.19,6.28-.32,9.16-.02Z"/>
  <path class="cls-3" d="M81.15,21.5c1.82-.4,3.6.57,3.85,2.5.2,1.55-2.89,5.17-3.28,7.65-1.67,10.68,9.3,14.21,6.16,27.19-.67,2.78-3.99,11.02-7.8,7.53-2.78-2.55,1.11-5.49,1.91-8.45,2.58-9.61-6.14-13.56-6.49-22.91-.12-3.08,2.27-12.78,5.65-13.51Z"/>
  <path class="cls-3" d="M117.09,21.5c1.85-.4,3.66.51,3.85,2.5.16,1.71-2.87,5.07-3.27,7.65-1.68,10.72,9.32,14.14,6.16,27.19-.67,2.78-3.99,11.02-7.8,7.53-2.8-2.57,1.28-5.59,1.98-8.75,2.21-9.85-6.49-13.49-6.59-22.99-.03-2.98,2.4-12.41,5.66-13.12Z"/>
  <path class="cls-3" d="M153.03,21.5c1.89-.43,3.61.53,3.86,2.51.21,1.61-2.19,4.11-2.8,6.21-3.52,12.02,10.76,16.16,4.85,31.23-.98,2.51-3.81,7.83-6.97,4.92-2.74-2.52,1.26-5.54,1.98-8.75,2.25-10.02-6.49-13.35-6.59-22.99-.03-3.02,2.44-12.4,5.66-13.12Z"/>
  <path class="cls-3" d="M43.41,22.57l4.87,3.63c-.95,1.63-2.2,3.55-2.49,5.45-1.64,10.5,8.98,14.15,6.3,26.57-.63,2.91-4,11.77-7.94,8.15-2.78-2.55,1.11-5.49,1.91-8.45,2.37-8.83-3.92-11.46-5.77-18.65-1.65-6.38-.05-11.19,3.13-16.69Z"/>
  <path class="cls-1" d="M171.49,117.02c-5.43,18.84-10.97,37.65-16.33,56.51-.81,2.84-2.76,4.04-5.64,4.3H53.9c-4.09-.1-7.56-2.3-9.42-5.87-5.41-18.29-10.72-36.62-15.99-54.94,5,2.3,9.3,5.38,15.1,5.38,6.98,0,11.91-5.03,18.74-5.03,6.58,0,11.55,4.78,17.96,5.02,7.48.29,12.43-5.02,19.52-5.02,6.6,0,11.22,4.63,17.59,5,7.78.45,12.62-5,19.88-5s12.03,5.31,19.52,5.02c5.53-.21,9.77-3.44,14.71-5.37Z"/>
</svg>