<?xml version="1.0" encoding="UTF-8"?>
<svg id="Layer_5" data-name="Layer 5" xmlns="http://www.w3.org/2000/svg" viewBox="0 0 200 200">
  <defs>
    <style>
      .cls-1 {
        fill: #6b6c74;
      }

      .cls-2 {
        fill: #fe7f9e;
      }

      .cls-3 {
        fill: #6a6b73;
      }

      .cls-4 {
        fill: #87929d;
      }

      .cls-5 {
        fill: #f8ecec;
      }

      .cls-6 {
        fill: #6a6b72;
      }

      .cls-7 {
        fill: #67676f;
      }

      .cls-8 {
        fill: #a3d2de;
      }

      .cls-9 {
        fill: #696a72;
      }

      .cls-10 {
        fill: #d6d6de;
      }

      .cls-11 {
        fill: #6b6d75;
      }

      .cls-12 {
        fill: #696971;
      }

      .cls-13 {
        fill: #92d5e4;
      }

      .cls-14 {
        fill: #6a6a72;
      }

      .cls-15 {
        fill: #696a71;
      }

      .cls-16 {
        fill: #9fd5e2;
      }

      .cls-17 {
        fill: #a1c7d1;
      }

      .cls-18 {
        fill: #6b6e76;
      }

      .cls-19 {
        fill: #bb5972;
      }
    </style>
  </defs>
  <path class="cls-5" d="M169.43,55.2c.38.12.38.27,0,.44.25.24.55.68.4.84-20.79,21.16-42.6,42.5-63.84,63.27-5.72,4.74-12.28,8.3-19.04,11.32-13.75,5.2-24.9,10.86-35.92,20.76l-22.25,21.83c-.67.66-1.18.67-1.71-.19h-1.22c-1.76-1.75-3.55-3.52-5.59-4.96l-.2-1.18c14.74-14.91,21.31-19.67,29.24-40.19,7.62-19.73,9.72-31.17,24.63-47.65,18.17-20.08,40.48-41.15,60.02-60.22l.84-.4c11.63,11.77,23.26,23.55,34.89,35.32l-.25,1Z"/>
  <path class="cls-10" d="M180.38,65.72c-19.63,19.65-40.22,42.08-60.66,60.46-17.01,15.3-29.32,17.01-49.4,25.07-19.06,7.65-24.1,14.62-38,28.36l-.99-.11c-1.1-1.59-2.45-2.97-4.05-4.14l.22-1c-1.15.31-1.29-.07-.44-.88.87,0,1.22-.59,1.76-1.09,14.03-12.74,24.78-27.67,42.76-35.65,14.06-6.23,27.21-10.39,38.5-21.95l59.34-59.15,1.36-.03c2.97,3.08,6.05,6.03,9.25,8.83l.34,1.27Z"/>
  <path class="cls-2" d="M133.95,19.28c6.98-6.81,12.22-12.97,22.33-15.12,8.99-1.91,17.44-.2,25.33,4.26.21.26.02.63.08.78,1.98,1.51,2.9,4.51,3.6,6.88,3.19,10.74.72,21.39-5.96,30.25-1.44,1.92-6.43,7.8-8.23,8.59-.54.24-1.08.36-1.68.27l-35.48-35.92Z"/>
  <path class="cls-19" d="M180.38,65.72c-4.17-2.54-7.06-7.09-10.95-10.07v-.44c10.62-8.81,17.49-19.05,16.2-33.5-.39-4.38-2.36-8.47-3.94-12.49,2.3.53,4.79,3.08,6.36,4.81,9.58,10.62,11.02,26.54,3.79,38.85-2.98,5.08-7.38,8.76-11.46,12.85Z"/>
  <path class="cls-4" d="M27.07,173.47c.18.19.25.69.44.88.21.28.47.75.29.92-5.79,5.69-12.53,11.93-18.72,17.19-1.07,1.4-2.08,1.94-3.03,1.6-2.85-2.73-3.64-6.33-1.93-10.03,1.26-2.72,12.95-13.66,15.94-16.69,2.43,1.49,4.96,4.06,7.01,6.13Z"/>
  <path class="cls-7" d="M27.51,174.35c1.56,1.58,4.05,3.07,4.82,5.26-3.31,3.28-12.99,13.92-16.05,15.7-3.59,2.09-7.34,1.52-10.23-1.25l21.46-19.71Z"/>
  <polygon class="cls-13" points="135.11 43.41 156.26 64.56 106.63 113.87 85.8 92.71 135.11 43.41"/>
  <path class="cls-3" d="M129.13,81.92c.19.83-.47,1.04-.87,1.53-1.63,1.99-3.81,3.72-5.69,5.47-1.3-2.33,5.11-8.26,6.56-7.01Z"/>
  <path class="cls-12" d="M126.07,63.09c-.31.67-3.24.97-2.63-.44,1.75-2.02,4.63-4.15,6.57-6.13,1.06,3.28-3.07,4.4-3.94,6.57Z"/>
  <path class="cls-9" d="M142.71,68.79l-6.57,6.57c-.59-2.99,3.6-7.16,6.57-6.57Z"/>
  <path class="cls-18" d="M110.3,76.22l6.57-6.57c.59,2.99-3.6,7.16-6.57,6.57Z"/>
  <path class="cls-15" d="M100.66,85.86l6.57-6.57c.59,2.99-3.6,7.16-6.57,6.57Z"/>
  <path class="cls-3" d="M112.92,85.86c.72-.03.63,1.5,0,1.75-1.83.73-3.33,4.28-5.46,4.4-.65.04-.8.04-.67-.68.11-.63,3.97-4.68,4.6-5.06.67-.4.85-.35,1.54-.41Z"/>
  <path class="cls-9" d="M112.92,95.94c1.03-1.44,4.62-4.71,6.57-3.94-2,2.21-4.06,4.42-6.13,6.57-1.04.46-.72-1.81-.44-2.63Z"/>
  <path class="cls-6" d="M136.14,63.09c.82.78-4.97,6.8-6.13,5.69-.82-.78,4.97-6.8,6.13-5.69Z"/>
  <path class="cls-3" d="M122.56,76.23c1.11,1.16-4.91,6.94-5.69,6.13-1.11-1.16,4.91-6.94,5.69-6.13Z"/>
  <path class="cls-1" d="M142.71,68.34c-2.05,1.35-7.22-4.12-6.13-5.25.88-.91,5.5,4.45,6.13,5.25Z"/>
  <path class="cls-1" d="M112.92,85.42c-1.13,1.09-6.6-4.08-5.25-6.13.8.63,6.16,5.25,5.25,6.13Z"/>
  <path class="cls-14" d="M122.12,88.93c-.8-.63-6.16-5.25-5.25-6.13,1.13-1.09,6.6,4.08,5.25,6.13Z"/>
  <path class="cls-9" d="M115.99,82.36c-.51.59-5.26-4.59-5.69-5.25,2.2-1.27,6.95,3.8,5.69,5.25Z"/>
  <path class="cls-3" d="M113.8,85.86c1.75.34,4.35,3.87,5.69,5.25-1.72.9-5.3-2.13-5.69-3.5-.74.02-.64-1.5,0-1.75Z"/>
  <path class="cls-7" d="M129.13,81.48c-1.88,1.06-6.69-4.12-5.69-5.25,2.25.94,4.04,3.48,5.69,5.25Z"/>
  <path class="cls-11" d="M126.07,63.96c.28.11,4.12,4.2,3.5,4.82-.7.7-4.96-3.66-5.69-4.38-.69-1.21,1.8-1.19,2.19-.44Z"/>
  <path class="cls-8" d="M126.07,63.09c-.08.2.05.61,0,.88-.4-.15-2-.12-2.19.44-.44-.43-1.16-.37-.85-1.5.08-.19.34-.17.41-.25.49.77,1.8.37,2.63.44Z"/>
  <path class="cls-1" d="M131.98,77.11c.52,0,1.74,1.89.43,2.18-1.41.31-1.71-2.18-.43-2.18Z"/>
  <path class="cls-17" d="M113.8,85.86c.09.52-.13,1.31,0,1.75-.27.05-.68-.08-.88,0v-1.75c.25-.02.65-.04.88,0Z"/>
  <path class="cls-16" d="M113.36,98.57c-.16.16-.04.67-.87.44.01-1.23-.3-2.04.44-3.06.06.83-.34,2.14.44,2.63Z"/>
</svg>