<?xml version="1.0" encoding="UTF-8"?>
<svg id="Layer_19" data-name="Layer 19" xmlns="http://www.w3.org/2000/svg" viewBox="0 0 200 200">
  <defs>
    <style>
      .cls-1 {
        fill: #fecdbe;
      }

      .cls-2 {
        fill: #e83234;
      }

      .cls-3 {
        fill: #0c95d9;
      }

      .cls-4 {
        fill: #f8f0ee;
      }

      .cls-5 {
        fill: #fead47;
      }

      .cls-6 {
        fill: #fe9422;
      }

      .cls-7 {
        fill: #dc7917;
      }

      .cls-8 {
        fill: #b2291c;
      }

      .cls-9 {
        fill: #cbcbcb;
      }

      .cls-10 {
        fill: #fea68e;
      }

      .cls-11 {
        fill: #fea68f;
      }

      .cls-12 {
        fill: #be161c;
      }

      .cls-13 {
        fill: #dad8d8;
      }

      .cls-14 {
        fill: #fecf39;
      }

      .cls-15 {
        fill: #0e96d9;
      }
    </style>
  </defs>
  <g>
    <path class="cls-1" d="M47.7,73l1.52.29c9.07,7.45,19.27,12.75,30.75,13.88l.38.77-1.05.79c-23.02,1.89-39.95,28.73-19.3,45.92,2.18,1.81,11.25,7.83,14.26,6.11,1.72-.98.16-3.63-1.52-3.92-28.15-8.88-20.45-41.13,7.01-43.94,31.01-3.17,47.06,33.12,13.99,44.21-1.37.47-2.53,1.99-1.45,3.26,2.69,3.15,13.55-4.74,15.5-6.44,19.58-17.03,2.17-43.68-20.13-45.19l-1.05-.79.18-.74c11.55-1.29,21.79-6.19,30.94-13.9l1.52-.29c-1.13,25.03,12.46,56.74,34.41,69.95,2.45,1.47,10.39,4.27,10.39,7.32v18.23H2.9v-18.23c0-.21.74-1.5.96-1.82,1.33-1.98,6.93-3.99,9.43-5.5,22.03-13.34,35.44-44.74,34.41-69.95Z"/>
    <path class="cls-1" d="M144.6,7.36l.39.96c-.64,7.47-1.58,14.79-2.82,21.96-.28.26-.71.34-.72.87-.88,6.29-1.07,12.11-4.62,17.58-3.24,5-11.2,9.92-16.19,13.5-.32.63-.64,1.18-1.14,1.68-2.92,2.86-9.88,7.17-13.59,9.37-15.97,9.47-29.1,9.36-45.07-.16-3.88-2.32-10.36-6.33-13.53-9.32l-.99-1.57c-4.96-3.55-12.99-8.56-16.19-13.5-3.54-5.47-3.74-11.3-4.62-17.59-.06-.44-.44-.6-.72-.86-.98-6.61-1.95-13.35-2.9-20.23-.21-.95-.01-1.85.47-2.7,40.74-.1,81.51-.1,122.25,0Z"/>
    <path class="cls-10" d="M120.64,62.23c-.77,3.56-1.22,7.12-1.39,10.77-6.97,5.34-14.24,10.7-22.85,13.1l-9.8,1.84-.6.66h-5.05s-.6-.66-.6-.66l-7.86-1.34c-9.41-2.15-17.3-7.83-24.79-13.59-.15-3.65-.63-7.21-1.39-10.77,8.4,6.01,19.27,14.56,29.45,16.57,18.81,3.71,30.7-6.41,44.87-16.57Z"/>
    <path class="cls-10" d="M22.35,7.36c.44,6.98,2.19,14.1,2.78,21.03.05.63.16,1.41-.35,1.9-3.14-2.93-9.07-5.06-11.96-8.36-3.28-3.75-2.9-9.82-4.37-14.38,4.61-.33,9.27-.17,13.9-.18Z"/>
    <path class="cls-10" d="M144.6,7.36c4.62.01,9.29-.16,13.9.18-1.48,4.57-1.09,10.63-4.37,14.38-2.88,3.3-8.8,5.44-11.96,8.36-.56-.35-.4-1.34-.35-1.9.65-7.01,2.29-13.98,2.78-21.02Z"/>
    <path class="cls-3" d="M80.35,87.93c1.79-.14,4.47-.14,6.25,0,28.15,2.17,42.98,34.33,16.43,50.29-2.35,1.42-9.77,5.72-11.49,2.23-1.83-3.71,3.8-4.52,6.06-5.58,26.74-12.62,11.01-43.38-16.73-41.38-24.53,1.76-36.04,29.26-12,41.17,2.18,1.08,7.06,1.66,6.79,4.72-.48,5.29-9.4.25-11.74-1.15-26.55-15.86-11.74-48.12,16.43-50.29Z"/>
    <path class="cls-8" d="M69.49,104.69c3.48-.59,6.37,1.04,9.09,2.9,1.65,1.12,1.79,2.42,4.36,2.6,3.77.26,4.61-2.43,7.5-3.99,3.92-2.12,8.52-2.55,11.44,1.37,5.87,7.87-4.21,22.24-13.68,19.93-1.52-.37-2.96-1.62-4.59-1.66-1.77-.05-2.9,1.1-4.3,1.53-9.41,2.9-19.92-11.22-14.54-19.4.97-1.48,2.94-2.97,4.71-3.27Z"/>
    <path class="cls-15" d="M82.69,138.01c4.07-.89,4.78,4.72,1.58,5.42-4.07.89-4.78-4.72-1.58-5.42Z"/>
    <path class="cls-10" d="M67.6,45.47c-1.04-1.04-.98-3.3.25-4.24.94-.72,4.6-1.78,5.9-2.09,5.53-1.29,13.63-1.32,19.17-.07,2.56.58,9.97,2.46,6.54,6.33-1.74,1.96-6.25-.6-8.68-1.06-5.57-1.05-11.62-.72-17.1.63-1.87.46-4.34,2.24-6.08.5Z"/>
    <path class="cls-11" d="M91,49.84c3.18,3.48-1.87,5.13-4.62,5.41-3.01.3-12.24.65-11.18-4.22.7-3.24,4.11-1.44,6.01-1.3,1.13.08,2.71.1,3.83.02,1.93-.14,4.5-1.49,5.95.09Z"/>
  </g>
  <path class="cls-13" d="M129.56,180.2h-3.31c.82-.37,2.44-.37,3.31,0Z"/>
  <g>
    <path class="cls-9" d="M148.55,159.73c-5.17,7.72-10.81,17.24-16.43,24.4-2.37,3.02-6.22,5.9-9.91,7.05l-.61.12c-1.04.03-2.08.23-3.05.6-.2.02-.41.11-.61.12-5.3.42-11.21-1.92-15.05-5.48l.88-.12c9.29,3.29,19.07-.59,24.12-9.02,4.66-7.18,9.31-14.31,13.95-21.39l.46-.13c.02-.19.09-.2.2-.04,1.28.38,2.49,1.07,3.63,2.06,1.05.49,1.86,1.1,2.43,1.81Z"/>
    <path class="cls-4" d="M142.29,155.9l-.17.67c-5.67,7.46-10.26,16.61-16,23.9-5.56,7.06-14.94,9.33-23.23,6.08-7.01-6.51-8.02-16.58-3.32-24.73,4.58-7.94,10.93-16.2,16.1-23.92l.35-.26c8.76,5.92,17.53,11.84,26.29,17.77l-.02.49Z"/>
    <path class="cls-2" d="M155.85,107.95c2.09,1.33,3.34,3.62,4.3,5.86,2.46,5.72,2.26,12.27-.78,17.74l-16.38,24.34-.49-.02-.2.04-26.62-17.99c5.02-7.5,9.95-15.86,15.32-23.03,6.11-8.16,15.34-11.27,24.86-6.93Z"/>
    <path class="cls-12" d="M148.55,159.73c-.4.08-.62-.16-.92-.34-1.76-1.08-3.46-2.33-5.14-3.53l16.51-24.52c4.24-7.62,2.73-17.06-3.16-23.39,10.44,4.76,14.5,17.31,8.93,27.42-5.5,8.06-10.8,16.26-16.22,24.36Z"/>
  </g>
  <g>
    <path class="cls-7" d="M167.9,162.16l.53.25v20.57c9.27-.38,19.92-1.88,26.4-9.31l.95-.34c3.64,6.32-.85,11.57-6.29,14.55-12.36,6.78-35.34,6.35-47.53-.7-5.18-3-9.67-8.27-6.2-14.39l.59-.15c6.52,7.55,17.35,9.89,27.02,10.23v-20.38s.55-.32.55-.32c1.31-.02,2.68-.06,3.98,0Z"/>
    <path class="cls-6" d="M163.91,162.16v21.25c-8.88-.14-18.45-2.22-25.5-7.83l-2.65-2.79c4.62-8.12,19.62-10.46,28.15-10.62Z"/>
    <path class="cls-6" d="M195.78,173.31c-6.31,8.29-18.14,9.7-27.89,10.36v-21.51c8.41.39,23.33,3.25,27.89,11.15Z"/>
  </g>
  <g>
    <path class="cls-5" d="M124.29,178.48c-.9,2.06-2.75,4.07-4.78,5.05-2.45-2.83-4.28-6.01-5.38-9.62l-.99-3.92v-7.17l.53-1.06.55.49c.83,6.18,5.03,11.84,9.93,15.51l.14.72Z"/>
    <path class="cls-14" d="M156.43,146.61c-10.11,11.19-20.9,21.81-32.13,31.87-4.79-2.98-10.56-10.99-10.62-16.73-.05-4.44,4.62-11.67,7.84-14.6,9.91-9.02,24.74-9.19,34.92-.54Z"/>
    <path class="cls-14" d="M165.19,162.01c-1.52,14.05-16.12,23.68-29.79,21.53-2.41-.38-5.94-1.07-7.39-2.94,9.79-10.97,20.15-21.49,31.07-31.34,3.05,3.56,5.35,8.06,6.11,12.75Z"/>
    <path class="cls-5" d="M122.17,186.18c1.25-2.31,3.49-4.4,5.84-5.58,13.13,6.7,29.46.46,35.28-12.92.81-1.87,1.24-3.76,1.9-5.67,3.94,24.29-24.44,40.34-43.02,24.17Z"/>
    <path class="cls-6" d="M159.08,149.27c-10.35,10.44-20.67,20.94-31.07,31.34-1.89,1.89-3.9,3.73-5.84,5.58-1.02-.89-1.77-1.63-2.66-2.66,1.58-1.68,3.15-3.42,4.78-5.05,10.66-10.67,21.42-21.25,32.13-31.87,1.02.87,1.79,1.64,2.66,2.66Z"/>
  </g>
</svg>