<?xml version="1.0" encoding="UTF-8"?>
<svg id="Layer_19" data-name="Layer 19" xmlns="http://www.w3.org/2000/svg" viewBox="0 0 200 200">
  <defs>
    <style>
      .cls-1 {
        fill: #fedb64;
      }

      .cls-2 {
        fill: #4a4a4a;
      }

      .cls-3 {
        fill: #fec750;
      }

      .cls-4 {
        fill: #666;
      }

      .cls-5 {
        fill: #e54c3c;
      }

      .cls-6 {
        fill: #8c8c8c;
      }

      .cls-7 {
        fill: #444;
      }

      .cls-8 {
        fill: #5b5d6e;
      }

      .cls-9 {
        fill: #f9c076;
      }

      .cls-10 {
        fill: #464655;
      }

      .cls-11 {
        fill: #f08c46;
      }

      .cls-12 {
        fill: #f8e9af;
      }
    </style>
  </defs>
  <g>
    <path class="cls-12" d="M153.48,162.42c.11-.34.24-.34.39,0-.03,8.17.8,18.63-.05,26.49-.34,3.14-1.69,5.49-4.66,6.75l-96.96.2c-3.76-.36-5.65-3.48-6.03-6.95-.85-7.86-.02-18.32-.05-26.49.11-.34.24-.34.39,0l.38-.79h106.09l.49.79Z"/>
    <path class="cls-9" d="M46.52,7.09c.31.08.77.22.79.46.2,2.6.44,10.89,0,13.12l-.79.58.38-.79h106.09l.49.79c-.31-.07-.68-.18-.79-.46-.25-.68-.1-11.55,0-13.12l.79-.58c1.02,4.6.06,9.8.39,14.55h8.45c.57,0,3.13,2.13,3.56,2.74,1.83,2.62,1.86,10.36.65,13.27-2.13,5.14-8.18,3.98-12.66,4.05-1.61.23-3.23.45-4.85.6s-3.24.31-4.86.33c-29.44.38-58.88.38-88.32,0-1.62-.02-3.24-.18-4.86-.33s-3.23-.37-4.85-.6c-4.48-.07-10.53,1.08-12.66-4.05-1.15-2.78-1.2-10.5.47-13.06.42-.65,3.13-2.94,3.74-2.94h8.45c.33-4.75-.63-9.95.39-14.55Z"/>
    <path class="cls-12" d="M153.87,41.7c-.12,40.23.16,80.49,0,120.72h-.39l-.79-.38V62.24l.79-.49-.38.79H47.01l-.49-.79.79.38v99.8l-.79.49h-.39c-.16-40.23.12-80.49,0-120.72,35.55.59,72.19.59,107.74,0Z"/>
    <path class="cls-11" d="M153.48,7.09v14.16H46.52V7.09c.64-2.87,2.26-4.93,5.3-5.51l97.34.19c2.54,1.11,3.72,2.66,4.31,5.32Z"/>
    <rect class="cls-5" x="46.52" y="61.75" width="106.96" height="100.67"/>
    <path class="cls-5" d="M115.73,82.99c2.01.26,4.49,4.44,3.54,6.29,1.71,5.76.88,11.86-2.36,16.91.32,1.72-2.36,4.55-3.9,5.51h-1.21c-.41.34-1.5.71-1.58,1.06-.31,1.32.07,3.21-.49,4.93-1.07,3.27-3.97,4.4-7.15,4.64-4.27.32-10.43.48-12.21-4.34-.52-1.41-.41-4.99-.67-5.43-.09-.15-1.12-.56-1.49-.86-2.22-.02-5.26-3.37-5.11-5.51-3.27-5-4.06-11.16-2.36-16.91-.95-1.86,1.51-6.05,3.54-6.29,8.47-10.37,23.05-10.5,31.46,0Z"/>
    <path class="cls-5" d="M76.3,132.23l46.7-.09c4.41,0,5.36,6.16.8,6.69h-47.6c-4.06-.47-4.02-5.85.1-6.6Z"/>
    <path class="cls-5" d="M86.53,145.6c4.37-.73,22.08-.67,26.61-.06,4.95.67,4.95,6.34,0,7.01s-21.39.66-26.28,0c-4.84-.65-4.93-6.18-.33-6.95Z"/>
    <path class="cls-5" d="M88.2,111.69c-1.48.72-7.24,4.2-7.89,5.28-1.18,1.96.96,7.57-2.63,8.38-4.65,1.05-4.72-3.19-4.42-6.58-2.86.06-6.72.66-6.72-3.34,0-4.92,6.24-2.68,9.1-3.52,1.09-.32,5.2-3.62,6.48-4.55.47-.34,1.17-.28.97-1.17,1.45,2.22,3.09,3.81,5.11,5.51Z"/>
    <path class="cls-5" d="M116.91,106.19c-.2.89.5.83.97,1.17,1.29.93,5.38,4.22,6.48,4.55,2.86.85,9.1-1.4,9.1,3.52,0,4-3.87,3.4-6.72,3.34.3,3.39.23,7.63-4.42,6.58-3.59-.81-1.45-6.42-2.63-8.38-.65-1.08-6.42-4.56-7.89-5.28,2-1.68,3.69-3.3,5.11-5.51Z"/>
    <path class="cls-5" d="M115.73,82.99c.99-.34,3.75-1.94,4.12-2.76.93-2.06-1.16-7.63,2.79-8.24,4.47-.69,4.33,3.44,4.1,6.67,3.26-.21,7.33-.39,6.67,4.1-.57,3.91-6.54,2.02-9.04,2.77-1.3.39-3.89,2.83-5.09,3.75-.72-2.42-2-4.36-3.54-6.29Z"/>
    <path class="cls-5" d="M80.73,89.28c-1.21-.92-3.8-3.37-5.09-3.75-2.51-.74-8.47,1.14-9.04-2.77-.66-4.49,3.41-4.31,6.67-4.1-.23-3.23-.37-7.36,4.1-6.67,3.95.61,1.85,6.18,2.79,8.24.37.82,3.13,2.42,4.12,2.76-1.58,1.93-2.81,3.84-3.54,6.29Z"/>
  </g>
  <g>
    <path d="M97.66,72.88l.3.15c.07-.13.18-.1.3,0,.17-.05.36-.1.59-.15h2.96l.3.15c.07-.13.18-.09.3,0,.04-.06.14-.11.3-.15h.3l6.37,1.11c29.47,7.49,38.86,44.93,15.75,65.34-21.12,18.66-54.93,7.9-61.68-19.26-.51-2.04-.72-4.13-1.14-6.19v-.59l.15-.3c-.13-.07-.1-.18,0-.3-.05-.17-.1-.36-.15-.59v-2.96l.15-.3c-.13-.07-.09-.18,0-.3-.06-.04-.11-.14-.15-.3.01-.19-.02-.4,0-.59.15-8.35,4.18-16.59,9.77-22.68,6.36-6.92,15.64-11.94,25.15-12.1h.44Z"/>
    <path class="cls-7" d="M98.84,72.88c-.1.22-.4.15-.59.15-.13-.04-.13-.09,0-.15h.59Z"/>
    <path class="cls-7" d="M62.43,112.69c-.04.13-.09.13-.15,0v-.59c.22.1.15.4.15.59Z"/>
    <path class="cls-6" d="M97.95,72.88c.13.04.13.09,0,.15-.13-.01-.25,0-.3-.15h.3Z"/>
    <path class="cls-4" d="M98.25,72.88v.15c-.1,0-.2,0-.3,0v-.15h.3Z"/>
    <path class="cls-2" d="M102.1,72.88c.13.04.13.09,0,.15-.13,0-.25,0-.3-.15h.3Z"/>
    <path class="cls-4" d="M102.39,72.88c.13.04.13.09,0,.15-.09,0-.2,0-.3,0v-.15h.3Z"/>
    <path class="cls-6" d="M102.69,72.88c-.04.15-.17.14-.3.15v-.15h.3Z"/>
    <path class="cls-6" d="M62.43,108.55c-.04.13-.09.13-.15,0v-.3c.15.04.14.17.15.3Z"/>
    <path class="cls-4" d="M62.43,108.84c-.04.13-.09.13-.15,0v-.3h.15c0,.09,0,.2,0,.3Z"/>
    <path class="cls-2" d="M62.29,109.14v-.3h.15c0,.13,0,.25-.15.3Z"/>
    <path class="cls-4" d="M62.43,112.99c-.04.13-.09.13-.15,0v-.3h.15c0,.1,0,.2,0,.3Z"/>
    <path class="cls-6" d="M62.29,113.28v-.3h.15c-.01.13,0,.25-.15.3Z"/>
    <path class="cls-3" d="M98.07,75.29c28.11-1.64,47.07,28.81,32.85,53.28s-47.81,23.58-61.5,0c-13.28-22.86,2.43-51.76,28.65-53.28Z"/>
    <path class="cls-1" d="M93.22,96.11c-.08-.38.35-.4.6-.51,3.93-1.74,9.02-1.72,12.93.09.22.1.46.08.39.42l.02.55-2.09,3.64c-.84,1.06-.93,1.88-.25,2.45,3.03,1.83,4.33,4.68,4.7,8.12.18.34.37.65.58.92,1.74.52,4.45-.12,6.29.15.22.03.24-.09.22.22-.29,4.24-3.06,9.38-6.59,11.76-.21.14-.38.29-.66.3l-.37-.06-2.25-3.99c-.48-1.19-1.11-1.66-1.89-1.42-3.18,1.7-6.6,1.5-9.79-.16-.83.41-1.47,1.17-1.92,2.27l-1.75,3.27-.39.08c-.28,0-.45-.16-.66-.3-3.52-2.34-6.31-7.57-6.59-11.76-.02-.31,0-.19.22-.22,1.85-.27,4.55.37,6.29-.15l.58-.92c.37-3.44,1.66-6.29,4.7-8.12.68-.57.59-1.39-.25-2.45l-2.09-3.64.02-.55Z"/>
    <path d="M109.35,124.23c2.36,4.03,5.51,8.75,7.48,12.87.27.57.55.91.26,1.59-.21.49-2.44,1.56-3.04,1.84-8.96,4.15-20.39,4.11-29.11-.69-1.53-.84-2.27-.98-1.35-2.84,2.05-4.16,5.05-8.71,7.42-12.78.85-1.45,2.07-4.14,3.04-5.32s1.63-.28,2.69.1c1.96.7,3.73.88,5.78.37,1.02-.25,2.49-1.36,3.34-.91.59.31,2.95,4.81,3.5,5.75Z"/>
    <path d="M93.22,96.11c.87,1.52,2.01,3.35,2.74,4.88.18.37.41.66.37,1.1-.08.84-1.9,1.74-2.52,2.37-.95.96-1.81,2.44-2.17,3.75-.33,1.2-.16,2.49-.87,3.42-.15.11-.33.11-.5.16l-22.24-.03c-.99-.29-.74-2.72-.7-3.59.55-9.67,6.48-19.57,14.51-24.85.92-.61,2.54-1.93,3.46-.82,2.52,4.61,5.33,9.05,7.92,13.61Z"/>
    <path d="M110.09,111.8c-.17-.05-.35-.05-.5-.16-.71-.93-.54-2.23-.87-3.42-.36-1.31-1.22-2.79-2.17-3.75-.62-.63-2.44-1.54-2.52-2.37-.04-.44.19-.73.37-1.1.73-1.54,1.87-3.36,2.74-4.88,2.59-4.56,5.41-9,7.92-13.61.92-1.11,2.53.21,3.46.82,8.03,5.28,13.96,15.18,14.51,24.85.05.88.3,3.31-.7,3.59l-22.24.03Z"/>
    <path d="M99.25,104.59c8.51-1.09,9.65,11.5,1.72,12.38-8.35.92-9.48-11.38-1.72-12.38Z"/>
    <path class="cls-10" d="M94.4,123.2c3.81,1.51,7.75,1.54,11.54,0,2.82,4.8,5.68,9.58,8.42,14.43-8.6,4.77-19.77,4.78-28.38,0,2.74-4.85,5.6-9.63,8.42-14.43Z"/>
    <path class="cls-8" d="M94.4,123.2c.17-.29.95-2.06,1.13-2.08,2.99,1.24,6.29,1.24,9.28,0,.18.03.96,1.79,1.13,2.08.08.37-.17.31-.4.4-3.57,1.43-7.17,1.4-10.74,0-.23-.09-.48-.04-.4-.4Z"/>
    <path class="cls-10" d="M92.33,99.52l-.17.32c-3.01,2.03-5.05,5.55-5.42,9.17l-.32.42c-5.57.05-11.15-.04-16.72,0,.29-9.93,5.79-19.28,14.13-24.55l.35.38c2.68,4.78,5.47,9.49,8.16,14.26Z"/>
    <path class="cls-8" d="M92.33,99.52c.2.35,1.23,1.87,1.17,2.13-2.52,1.92-4.12,4.62-4.6,7.76-.83.05-1.67.01-2.5.02.16-3.48,2.05-6.93,4.66-9.18.34-.29.78-.74,1.26-.74Z"/>
    <path class="cls-10" d="M108.01,99.52c2.69-4.77,5.48-9.48,8.16-14.26l.35-.38c8.34,5.27,13.84,14.62,14.13,24.55-5.57-.04-11.15.05-16.72,0l-.33-.43c-.37-3.62-2.42-7.14-5.42-9.16l-.17-.32Z"/>
    <path class="cls-8" d="M113.93,109.43c-.83,0-1.67.03-2.5-.02-.48-3.14-2.07-5.85-4.6-7.76-.06-.26.97-1.78,1.17-2.13.48,0,.93.44,1.26.74,2.61,2.27,4.5,5.68,4.66,9.18Z"/>
    <path class="cls-8" d="M99.39,106.95c3.4-.58,5.96,3.14,3.95,6.02-2.39,3.42-7.69,1.14-6.98-2.99.23-1.33,1.7-2.81,3.03-3.03Z"/>
  </g>
</svg>