<?xml version="1.0" encoding="UTF-8"?>
<svg id="Layer_19" data-name="Layer 19" xmlns="http://www.w3.org/2000/svg" viewBox="0 0 200 200">
  <defs>
    <style>
      .cls-1 {
        fill: #e3e7ea;
      }

      .cls-2 {
        fill: #fdb1cb;
      }

      .cls-3 {
        fill: #e4e6ea;
      }

      .cls-4 {
        fill: #fbc4d6;
      }

      .cls-5 {
        fill: #eaf0f4;
      }

      .cls-6 {
        fill: #f48bae;
      }
    </style>
  </defs>
  <path class="cls-4" d="M43.83,48.86c17,5.11,18.93,24.81,20.37,39.99,1.01,16.8,14.84,22.64,30.01,22.38l1.48-.67c6.36.51,12.84.05,18.91-2l1.6.27,3.8-2.71.99.31c11.65-7.74,8.59-23.65,11.39-35.59,2.14-9.1,9.1-20.87,19.39-21.98,2.95,1.65,3.99,5.28,4.64,8.45.92,20.92,3.79,42.09,9.93,62.47,5.22,16.11,2.79,34.67-16.97,36.22-10.34-.49-19.3-5.38-27.99-10.39-2.2.19-5.42-2.04-6.4-4-1.13.09-4.79-1.36-5.69-1.98l-.31-.82c-4.23-1.15-8.45-1.47-12.67-.94l-.92-.66c-1.5-.17-3.56-.08-4.99.32-8.66,2.38-14.61,6.19-22.04,11.21-6.69,3.75-13.99,6.79-21.74,7.27-18.05-.96-23.04-13.44-20.2-29.59,2.39-13.56,6.92-26.59,8.94-40.64,1.38-9.56.85-20.44,2.57-29.41.66-3.43,1.94-7,5.89-7.51Z"/>
  <path class="cls-5" d="M82.61,2.08c3.09.32,3.63,2.15,4.2,4.86,1.04,8.11,3.56,19.49,14.19,17.53,7.68-3.59,6.68-12.36,8.48-18.9,1.27-4.61,8.15-3.6,11.9-3.49,4.55.44,4.8,4.91,3.71,8.5-2.13,6.99-4.58,13.23-8.01,19.71-1.77,4.23-2.95,8.09-3.94,12.43-.46,1.93-1.39,2.46-3.2,2.89-3.81.89-20.72.94-24.5.06-.75-.18-2.19-.75-1.44-1.33l-.61.13c-.72-3.24-1.4-6.55-2.5-9.69-2.5-7.16-11.65-22.12-10.2-29.2.96-4.68,8.22-3.59,11.9-3.49Z"/>
  <path class="cls-5" d="M117.79,164.8c1.09.78,2.89.99,3.19,2.61.59,3.15.09,10.95,0,14.58-4.63,9.41-17.79,12.78-27.58,10.16-5.19-1.39-12.11-4.99-14-10.16-.08-3.64-.58-11.42,0-14.58.3-1.61,2.09-1.83,3.19-2.61l1.5.25c9.34,7.94,22.84,7.94,32.18,0l1.5-.25Z"/>
  <path class="cls-5" d="M83.81,61.65l1.04-.28c8.55,7.38,22.12,7.32,30.71,0l1.04.27c1.57-.79,3.42-.51,4.32,1.08.06,4.96.19,9.96.08,14.92-.46,2.63-2.72,4.36-4.77,5.91-9.19,6.98-22.18,7.1-31.53.36-2.23-1.61-4.76-3.51-5.28-6.28-.12-4.96.02-9.95.08-14.92.9-1.58,2.75-1.87,4.32-1.08Z"/>
  <path class="cls-5" d="M85.41,141.61l1.51-.28c8.38,4.8,18.23,4.77,26.6-.02l1.48.3c2.27,1.27,4.23,2.75,6.4,4-.79,3.26-.32,7-.4,10.39-1.1,3.52-5.38,6.32-8.62,8.02-7.71,4.05-16.69,4.12-24.37-.01-3.17-1.71-7.42-4.62-8.58-8.01-.08-3.39.39-7.13-.4-10.39.92-2,4.2-4.19,6.4-4Z"/>
  <path class="cls-5" d="M117.79,86.84c1.29.81,2.68.42,3.11,2.28.7,3.05.09,10.88.09,14.51-.73,2.27-2.32,4-4.8,5.2-6.83,2.67-14.71,3.16-21.99,2.4-3.18.33-6.46-.27-9.44-1.34l-.55-1.06c-2.48-1.17-4.08-2.9-4.8-5.2,0-3.62-.61-11.46.09-14.51.43-1.87,1.83-1.47,3.11-2.28l1.45.21c9.25,7.71,23.04,7.71,32.29,0l1.45-.21Z"/>
  <path class="cls-2" d="M149.37,156c9.75-2.34,17.58-7.35,18.41-18.18.8-10.59-3.92-22.97-6.22-33.39-2.21-10.05-4.09-20.33-4.99-30.59-.61-7.03.82-18.93-4.45-23.95-.45-.43-1.2.12-.36-1.03,9.49-1.03,10.42,4.23,11.19,12.2.83,8.59.77,16.8,2.07,25.52,1.98,13.33,6.2,25.69,8.61,38.57,3.57,19.1-3.25,31.86-24.27,30.87Z"/>
  <path class="cls-2" d="M79.41,106.43l.85-.39,3.95,2.79c3.68,1.39,6.06,1.99,9.99,2.4-1.17.68-3.27.49-4.59.4-41.04-2.91-15.99-38.62-38.8-58.35l-6.98-4.41c13.03-1.66,21.68,11.23,24.19,22.38,2.79,12.41-.49,26.91,11.39,35.19Z"/>
  <path class="cls-1" d="M113.39,50.06l-.26.89c-8.42.89-17.25.91-25.72.02l-.41-.92c-1.9-.54-2.95-1.56-3.51-3.5-.21-.73.03-1.53-.09-2.1-.17-1.58.97.29,2.18.42,5.52.59,18.03.51,23.63,0,1.07-.1,1.82-.14,2.59-1.01.71-.79,1.87-6.86,2.49-8.7,2.84-8.42,8.15-15.78,10.02-24.76.83-3.99,1.1-6.12-2.93-8.33,4.56.13,8.99-.06,8.35,6.16-1.07,10.46-9.51,20.95-11.83,31.34-.86,3.86,0,9.21-4.52,10.48Z"/>
  <path class="cls-5" d="M113.39,50.06c3.48,1.99,3.13,3.62,3.2,7.2-1.49,2.89-6.31,4.6-9.5,5.47-8.19,2.24-15.98.39-22.85-4.31l-.43-1.16c.04-3.58-.25-5.22,3.2-7.2,3.7,1.04,19.27.73,23.81.42.97-.07,1.65-.16,2.58-.42Z"/>
  <path class="cls-1" d="M120.99,181.99c-.03,1.49.27,4.06-.09,5.31-.26.92-3.24,3.91-4.12,4.67-9.83,8.39-24.53,7.87-33.98-.78-4-3.66-3.28-4.02-3.39-9.21,9.42,11.9,26.71,13.95,38.17,3.59,1.3-1.18,2.01-2.61,3.41-3.59Z"/>
  <path class="cls-1" d="M120.99,156c-.11,5.14.74,5.2-3.2,8.8-10.25,9.37-24.94,9.37-35.18,0-3.94-3.6-3.08-3.66-3.2-8.8,4.44,4.84,9.65,8.75,16.29,9.89,9.96,1.72,18.89-2.41,25.29-9.89Z"/>
  <path class="cls-1" d="M120.99,77.64c-.12,4.96.67,5.61-3.2,9.2-9.76,9.06-25.41,9.07-35.18,0-3.87-3.59-3.08-4.23-3.2-9.2,10.47,13.91,31.13,13.94,41.58,0Z"/>
  <path class="cls-1" d="M116.59,57.25c.03,1.46-.02,2.94,0,4.4-.78.4-1.83,1.6-2.83,2.17-8.97,5.1-17.85,5.26-26.88.15-1.09-.62-2.23-1.89-3.08-2.32.01-1.46-.02-2.94,0-4.4,2.91,1.63,5.63,3.54,8.88,4.51,8.62,2.57,16.7.54,23.9-4.51Z"/>
  <path class="cls-2" d="M95.4,137.21c-.45,1.55-2.61,1.37-4,1.2-.94,1.75-3.97,3.3-6,3.2-2.32,1.3-4.26,2.77-6.4,4-10.01,5.77-20.4,11.03-32.38,10.39,6.92-1.57,13.61-3.76,19.86-7.13,7.2-3.89,14.6-10.46,22.82-11.96,1.76-.32,4.68-.9,6.09.3Z"/>
  <path class="cls-1" d="M101,24.47c-.41.19-.49.64-1.41.78-6.48.99-10.14-4.23-11.9-9.66-.98-3.03-1.41-10.33-3.07-12.12-.59-.63-1.48-.72-2.01-1.39,2.69.07,5.21-.56,7.2,1.79,1.53,1.81,1.75,8.09,2.6,11,1.14,3.91,3.78,9.85,8.59,9.6Z"/>
  <path class="cls-3" d="M84.21,108.83c-2.29-.87-2.7-.94-4.8-2.4v-2.8l4.8,5.2Z"/>
  <path class="cls-1" d="M120.99,106.43c-1.66,1.1-2.96,1.68-4.8,2.4l4.8-5.2v2.8Z"/>
  <path class="cls-1" d="M108.99,138.81c1.9.01,4.36,1.88,6,2.8-2.81.93-5.13,2.58-8.08,3.31-3.96.98-8.81,1.03-12.79.17-3.19-.69-5.72-2.45-8.71-3.48,2.04-1.14,3.77-2.32,6-3.2,4.46.63,8.15,1.03,12.72.77,1.68-.7,3.31-.83,4.88-.37Z"/>
  <path class="cls-6" d="M42.51,135.28c1.86-.3,2.86,1.88,4.72,1.96,2.04.09,2.37-1.33,3.87-1.77,3.09-.91,5.12,2.86,1.88,5.51s-7.95,2.59-11.12,0c-2.3-1.88-2.32-5.22.65-5.69Z"/>
  <path class="cls-6" d="M47.72,72.51c2.03-.37,2.67,1.88,4.71,1.97,2.16.09,2.42-1.42,3.77-1.86,3.05-.99,5.12,2.22,2.84,4.85-2.65,3.05-7.91,3.39-11.19,1.15-2.5-1.7-3.84-5.43-.13-6.11Z"/>
  <path class="cls-6" d="M154.03,77.5c-2.98,3.26-9.09,3.43-12.26.35-1.34-1.3-2.21-3.05-.61-4.62,2.52-2.47,4.27,1.15,6.42,1.25s2.45-1.45,3.78-1.86c2.7-.84,4.83,2.53,2.67,4.89Z"/>
  <path class="cls-6" d="M148.06,135.28c1.93-.31,2.89,2.05,5.11,1.96,1.76-.08,5.12-4.09,6.8-.42,1.42,3.12-2.98,5.71-5.59,5.99-3.28.35-10.34-1.68-8.39-5.99.23-.51,1.51-1.44,2.07-1.53Z"/>
  <path class="cls-6" d="M45.14,93.76c2.53-2.04,4.45,1.42,6.48,1.42s4.96-4.27,6.94-.49-4.6,6.26-7.61,6.05-9.46-4.03-5.81-6.98Z"/>
  <path class="cls-6" d="M122.87,125.69c2.3-.36,2.89,2.83,6.23,1.84,1.07-.32,2.08-2.32,3.89-1.75,3.14.98,2.35,4.37-.03,6.01-3.14,2.17-7.77,2-10.73-.41-2.3-1.88-2.32-5.22.65-5.69Z"/>
  <path class="cls-6" d="M155.27,93.74c3.41,3.21-2.82,6.78-5.82,7s-9.57-2.32-7.61-6.05,4.94.49,6.94.49c1.86,0,4.3-3.5,6.5-1.44Z"/>
  <path class="cls-6" d="M67.7,125.68c1.98-.31,3.05,2.83,6.23,1.86.61-.19,1.05-1.06,1.77-1.43,3.07-1.56,5.71,2.02,2.92,4.92s-8.06,2.92-11.18.76c-2.58-1.79-2.96-5.61.26-6.11Z"/>
  <path class="cls-6" d="M142.07,114.51c2.61-.59,3.09,1.77,5.13,1.9,2.27.15,3.03-2.41,5.48-1.91s2.43,3.51.89,5.13c-2.63,2.76-7.85,2.99-10.98.98-2.27-1.46-3.92-5.33-.53-6.1Z"/>
  <path class="cls-6" d="M47.72,114.49c2.45-.5,3.21,2.06,5.48,1.91,1.63-.11,5.11-4.18,6.72-.69,1.71,3.68-4.12,6.33-7.1,6.33-1.93,0-6.19-1.66-6.82-3.6-.54-1.7-.26-3.55,1.71-3.95Z"/>
  <path class="cls-5" d="M108.99,138.81c-1.49,0-3.32,1.03-5,1.2-3.87.39-9.12.22-12.59-1.6,1.42-.56,2.47-.93,4-1.2,4.36-.78,9.7-.82,13.59,1.6Z"/>
</svg>