<?xml version="1.0" encoding="UTF-8"?>
<svg id="Layer_19" data-name="Layer 19" xmlns="http://www.w3.org/2000/svg" viewBox="0 0 200 200">
  <defs>
    <style>
      .cls-1 {
        fill: #f96f5f;
      }

      .cls-2 {
        fill: #f1c99b;
      }

      .cls-3 {
        fill: #6b777c;
      }

      .cls-4 {
        fill: #ccd6da;
      }

      .cls-5 {
        fill: #cdd6da;
      }

      .cls-6 {
        fill: #ea5e4e;
      }

      .cls-7 {
        fill: #202b30;
      }

      .cls-8 {
        fill: #fcd8b0;
      }

      .cls-9 {
        fill: #d4dbde;
      }

      .cls-10 {
        fill: #fad0aa;
      }

      .cls-11 {
        fill: #fad0b1;
      }

      .cls-12 {
        fill: #ced7db;
      }

      .cls-13 {
        fill: #34444c;
      }

      .cls-14 {
        fill: #fee3c3;
      }

      .cls-15 {
        fill: #afbdc4;
      }
    </style>
  </defs>
  <g>
    <path class="cls-14" d="M111.88,1.82c2.28.4,3.76,1.09,4.6,3.41.89,2.49.9,18.75-.05,21.21-.83,2.16-2.36,2.96-4.55,3.24-11.46.3-22.92.32-34.37,0-.54,1.02-2.04.25-2.67-.38-.69-1.07-1.71-1.67-2.25-2.9-1.22-2.8-1.09-14.06-.81-17.54.26-3.36,1.2-5.43,4.22-7.05h35.9Z"/>
    <path class="cls-8" d="M124.1,1.82c1.85,1.19,3.54,2.36,3.83,4.76.41,3.44.48,15.38-.03,18.69-.27,1.77-1.69,2.7-2.65,4.03l-.51.74c-3.35.67-7.32.89-10.56-.36-.76.28-1.54.28-2.29,0,1.91-.97,3.69-2.18,4.11-4.48.43-2.34.41-17.5-.17-19.51-.64-2.22-2.24-2.74-3.94-3.88h12.22Z"/>
    <path class="cls-1" d="M71.78,41.91c.7-.27,1.52-.1,2.47.51,13.04,3.16,26.98,2.51,40.37,1.53l1.46.63.46-.81c3.91.05,7.55-.67,10.91-2.17l.85.3c2.19-1.91,4.5-6.25,6.86-8.6,5.66-5.66,14.16-9.74,22.17-10.48l.28.43c14.58,3.21,17.56,19.04,11.73,31.3-8.3,19.67-16.33,39.63-24.1,59.89-3.15,8.31-9.91,16.51-19.22,17.18l-.99.59c-3.02-.65-5.94-1.76-8.61-3.31l-.34-1.1c-1.13.26-2.26-.31-3.37-1.71-6.18-7.41-13.41-10.52-21.54-3.76-5.07,5.61-10.93,9.51-18.66,10.36l-.74-.69c-11.59,1.03-21.53-4.01-26.53-14.52-5.67-11.92-10.29-26.44-15.3-38.91-3.58-8.9-8.24-18.24-11.44-27.12-10.96-30.42,27.78-36.6,46.23-18.34,2.44,2.41,4.81,6.84,7.05,8.8Z"/>
    <path class="cls-8" d="M126.01,131.62c1.09-.28,1.73-.15,1.91.38.08,3.06.52,7.09-2.67,8.78l-.2.93c-2.96.72-6.03.89-9.19.53.84,1.25.92,2.1.22,2.55l.76.35v20.57l-.76.46c1.17.69-.72,3.29-1.91,2.86-12.1.29-24.32.41-36.67.38.21,1.16-1.71,1.7-2.29.76-1.75-1.33-2.85-2.43-3.07-4.75-.4-4.19-.56-16.67.04-20.61.32-2.04,2.05-2.65,2.65-4.41.75-.78,1.71-.3,1.53.76,11.71.38,23.42.38,35.14,0,.56-.81,1.42-1.55,2.57-2.21,1.43-3.13,1.84-6.7,1.22-10.71l.79-.44c2.81,1.81,6.64,3.26,9.93,3.82Z"/>
    <path class="cls-6" d="M127.92,132c-.54-.05-1.29-.28-1.91-.38,8.4-2.65,13.69-6.87,17.37-14.9,5.87-12.82,10.73-27.57,16.07-40.82,3.81-9.46,12.99-26.45,11.97-36.04-.85-7.99-7.1-15.26-15.23-16.28l1.14-.76c14.94-1.39,27.43,5.87,25.97,22.33-.63,7.09-9.67,24.94-12.78,32.66-5.09,12.64-9.71,26.67-15.3,38.91-5.14,11.26-14.91,16.39-27.3,15.28Z"/>
    <path class="cls-14" d="M111.88,169.41c2.81.32,4.16,1.61,4.86,4.34.63,2.43.56,17.95-.27,20.12-.89,2.35-2.26,3.03-4.6,3.41-10.51.1-24.46,1-34.58.02-2.05-.2-3.87-1.35-4.72-3.3-1.23-2.82-1.09-14.04-.81-17.54.22-2.81.77-5.08,3.45-6.29.74-.33,1.56-.43,2.29-.76,11.46-.15,22.92-.15,34.37,0Z"/>
    <path class="cls-14" d="M116.08,127.8c-.41,5.04,1.95,11.81-4.58,13.36-11.71.39-23.42.39-35.14,0-.39-.12-1.16-.53-1.53-.76-.26-.17-.62-.06-1.15-.55-1.86-1.74-1.92-5.43-1.91-7.84,3.01-.27,7.48-1.6,10.19-2.99,7.43-3.8,9.71-12.44,20-10.97,7.36,1.05,8.81,6.35,14.11,9.75Z"/>
    <path class="cls-8" d="M77.51,29.69c12.23.14,24.45.27,36.67.38.32-.12.62-.11.92.04,2.4,1.22,1.98,11.29,1.69,13.84l-.7.63c-11.68,1.09-28.75,1.64-40.11-.95-1.69-.39-2.9-.59-4.2-1.72,1.28-3.48-1.35-10.74,3.06-12.6,1.17-.49,1.73.22,2.67.38Z"/>
    <path class="cls-2" d="M125.25,140.78c.96,1.33,2.38,2.27,2.65,4.03.61,3.94.45,16.41.04,20.61-.19,1.94-1.06,3.34-2.69,4.37l-.71.57c-3.21-.32-6.43-.38-9.66-.19l-.7-.76c-.33-.11-.33-.24,0-.38.42-.41,1.91-2.55,1.91-2.86v-21.38c0-.79-1.4-2.55-1.91-3.24,3.23-.35,8.2.75,11.08-.77Z"/>
    <path class="cls-8" d="M114.17,169.41c2.32.03,9.44-.39,11.08.38.67.32,2.51,3.11,2.65,4.03.54,3.53.41,14.57.04,18.32-.21,2.19-1.85,4.58-4.12,5.05-2.91.59-8.66.06-11.94.09,1.71-1.14,3.3-1.67,3.94-3.88.58-2.01.59-17.17.17-19.51-.42-2.29-2.2-3.51-4.11-4.48.73-.28,1.56-.29,2.29,0Z"/>
    <path class="cls-2" d="M125.25,29.31c.87.17,2.4,2.44,2.59,3.33.58,2.85-.56,6.48.47,9.27-2.62,2.28-8.74,2.35-12.22,2.67-.6-4.68,1.6-10.81-1.91-14.51-.33-.11-.33-.24,0-.38,2.73,0,5.49.07,8.23.02.93-.02,2.06-.56,2.85-.4Z"/>
    <path class="cls-10" d="M111.88,29.69c.76,0,1.53,0,2.29,0v.38l-35.37.03c-.53.25-1.14-.38-1.29-.41,11.45,0,22.92,0,34.37,0Z"/>
    <path class="cls-6" d="M91.53,68.32c2.54-.57,3.07,1.4,4.8,2.29,2.08,1.08,4.46,1.15,6.66.39s4.95-4.56,7.15-1.21-4.25,6.6-6.95,7.14c-3.95.8-10.26-.44-12.88-3.74-1.36-1.71-.97-4.38,1.22-4.87Z"/>
    <path class="cls-6" d="M86.55,93.57c2.57,2.35-.77,5.17-2.94,6.18-4.18,1.94-8.86,1.73-12.86-.51-2.1-1.18-6.35-4.71-3.55-7.11s4.52,1.21,6.52,2.24c2.31,1.18,4.37,1.29,6.83.41,2.06-.73,3.72-3.29,6-1.2Z"/>
    <path class="cls-6" d="M113.53,93.57c2.28-2.09,3.94.47,6,1.2,2.45.88,4.52.77,6.83-.41,2-1.03,3.83-4.55,6.52-2.24s-1.45,5.94-3.55,7.11c-3.98,2.23-8.37,2.41-12.58.61-2.22-.95-5.88-3.84-3.21-6.28Z"/>
    <path class="cls-6" d="M52.95,61.84c3.66-.84,3.38,2.29,5.27,4.11,1.43,1.38,4.13,2.41,6.11,2.32,1.32-.06,2.29-.74,3.44-.81,3.76-.22,4.92,4.45.17,5.92-4.95,1.54-10.9-.11-14.31-3.99-1.49-1.69-4.38-6.71-.68-7.56Z"/>
    <path class="cls-6" d="M145,61.84c2.33-.69,4.23.65,3.92,3.13-.53,4.31-6.7,8.22-10.67,8.84-2.89.45-10.44-.1-9.11-4.52.98-3.25,4.93-1.01,6.99-1.01,1.83,0,4.42-1.07,5.73-2.32,1.06-1.02,1.91-3.75,3.14-4.12Z"/>
    <path class="cls-10" d="M114.17,169.03v.38c-.76,0-1.53,0-2.29,0-11.45-.1-22.92.08-34.37,0l36.67-.38Z"/>
    <path class="cls-11" d="M111.5,141.16c-.34.08-.55.35-1.29.41-10.37.9-22.04-.75-32.55,0-.59.23-1.02-.32-1.29-.41h35.14Z"/>
  </g>
  <g>
    <path class="cls-13" d="M54.77,131.01c.83,20.64,1.08,41.31.74,61.99-.28,2.69-1.69,4.71-4.46,4.99-1.72.04-3.48.04-5.21,0-1.93-.06-5.23-2.54-3.72-4.28l-.74-.26v-61.97l.74-.46c4.04-.31,8.57-.3,12.65,0Z"/>
    <path class="cls-12" d="M50.68,97.15c-.07.33-.2.32-.37,0-2.75-.16-5.48-.28-8.19-.37-.56-5.29.77-12.18-.02-17.28-.35-2.23-4.38-8.17-5.37-11.74-4.58-16.56,2.7-25.96,13.95-36.46l.74.26v65.13l-.74.46Z"/>
    <path class="cls-3" d="M41.01,97.15c1.52-.32,3.35-.4,4.84,0l-.2.91c-2.34,1.28-3.26,3.55-2.76,6.79l-.76.49c1.03,1.37,1.04,3.12,0,4.46.87,1.61.88,3.43.66,5.21h11.44s.54.74.54.74c.33.07.32.2,0,.37l-.43.74h-11.42c.13,1.29-.13,2.4-.79,3.35.99,2.08.99,4.24,0,6.33.6,1.02.91,2.13.94,3.35h11.17s.54.74.54.74c.33.07.32.2,0,.37h-12.65v62.69c0,1.57,2.44,3.56,3.72,4.28-5.13-.11-9.49.94-10.06-5.75v-90.43c.49-3.13,2.19-4.44,5.22-4.65Z"/>
    <path class="cls-7" d="M55.89,97.15c2.94.26,4.58,1.71,5.22,4.64v90.43c-.57,6.69-4.93,5.65-10.05,5.75,2.11-1.29,3.43-2.4,3.72-5.02-.04-20.65.05-41.31,0-61.95,0-.12,0-.25,0-.37-.73-1.35-.73-2.74,0-4.09-.93-2.13-.92-4.19,0-6.33-.93-1.39-.92-2.7,0-4.09,0-.12,0-.25,0-.37-1.08-1.86-1.05-4.08,0-5.95-1.1-1.23-1.06-3.22,0-4.46l-.76-.5c.46-3.03-.37-5.29-2.49-6.76l-.1-.93c1.09-1.43,3.11-.76,4.46,0Z"/>
    <path class="cls-15" d="M50.68,31.29c1.34-1.25,2.66-2.57,4.09-3.72l-.03,68.67,1.15.91c-1.41-.12-3.01.03-4.46,0-.21.71-.53.71-.74,0V31.29Z"/>
    <path class="cls-9" d="M42.12,96.78c2.56-.11,5.74-.23,8.19.37-1.52.9-2.95.9-4.46,0-1.6.03-3.25-.11-4.84,0,.18-.49.71-.35,1.12-.37Z"/>
    <path class="cls-13" d="M50.31,97.15c.12,0,.25,0,.37,0,.25,0,.5,0,.74,0,3.78,2.12,3.23,4.44,3.35,8.19-.08.29-.21.73-.43.74-1.49.11-10.92.26-11.67,0l-.54-.74c.12-3.8-.45-6.44,3.72-8.19,1.48-.03,2.98-.02,4.46,0Z"/>
    <path class="cls-13" d="M54.77,120.22c0,2.1,0,4.22,0,6.33-.08.29-.21.73-.43.74-1.49.11-10.92.26-11.67,0l-.54-.74c-.03-2.1-.03-4.23,0-6.33.08-.29.2-.72.43-.74,2.53-.29,9.17-.31,11.67,0l.54.74Z"/>
    <path class="cls-13" d="M54.77,109.8c.03,1.98-.01,3.97,0,5.95h-12.65c0-1.98.02-3.97,0-5.95.08-.29.2-.72.43-.74,2.46-.23,9.39-.36,11.67,0l.54.74Z"/>
    <path class="cls-5" d="M54.77,105.33c.05,1.48-.02,2.98,0,4.46h-12.65c-.01-1.48-.05-2.99,0-4.46h12.65Z"/>
    <path class="cls-4" d="M54.77,116.12c0,1.36,0,2.73,0,4.09h-12.65c.02-1.36-.01-2.73,0-4.09h12.65Z"/>
    <path class="cls-12" d="M54.77,126.54c0,1.36,0,2.73,0,4.09h-12.65c-.01-1.36.02-2.73,0-4.09h12.65Z"/>
  </g>
</svg>