<?xml version="1.0" encoding="UTF-8"?>
<svg xmlns="http://www.w3.org/2000/svg" viewBox="0 0 800 600">
  <defs>
    <style>
      .cls-1 {
        fill: #ba5543;
      }

      .cls-2 {
        fill: #e1e7f9;
      }

      .cls-3 {
        fill: #df659d;
      }

      .cls-4 {
        fill: #fdddb7;
      }

      .cls-5 {
        fill: #633925;
      }

      .cls-6 {
        fill: #f59678;
      }

      .cls-7 {
        opacity: .63;
      }

      .cls-7, .cls-8 {
        fill: #fff;
      }

      .cls-9 {
        fill: #e87a5d;
      }

      .cls-10 {
        fill: #304654;
      }

      .cls-11 {
        opacity: .31;
      }

      .cls-11, .cls-12, .cls-13, .cls-14 {
        mix-blend-mode: multiply;
      }

      .cls-15 {
        fill: #f3f7fa;
      }

      .cls-16 {
        fill: #6a4a3f;
      }

      .cls-17 {
        fill: #e8f3f9;
      }

      .cls-18 {
        fill: #86a1bc;
      }

      .cls-19 {
        fill: #9fc1dd;
      }

      .cls-20 {
        fill: #546b2b;
      }

      .cls-21 {
        fill: #e1e7ff;
      }

      .cls-22 {
        fill: #b2b2b2;
      }

      .cls-23 {
        fill: #dceae5;
      }

      .cls-24 {
        fill: #38261c;
      }

      .cls-12 {
        opacity: .27;
      }

      .cls-13 {
        opacity: .79;
      }

      .cls-25 {
        fill: #edcc7b;
      }

      .cls-26 {
        fill: #110903;
      }

      .cls-27 {
        fill: #603f36;
      }

      .cls-28 {
        fill: #28221e;
      }

      .cls-29 {
        fill: #86a8db;
      }

      .cls-30 {
        fill: #102b46;
      }

      .cls-31 {
        fill: #e35e3f;
      }

      .cls-32 {
        isolation: isolate;
      }

      .cls-33 {
        fill: #d9966c;
      }

      .cls-34 {
        fill: #cedafd;
      }

      .cls-35 {
        fill: #925661;
      }

      .cls-36 {
        fill: #ccb8c6;
      }

      .cls-37 {
        fill: #81a44e;
      }

      .cls-38 {
        fill: #ffc192;
      }

      .cls-39 {
        fill: #ffce00;
      }

      .cls-40 {
        fill: #454d77;
      }

      .cls-41 {
        fill: #5e71c5;
      }

      .cls-42 {
        fill: #a1bcd1;
      }

      .cls-43 {
        fill: #76b1e2;
      }

      .cls-44 {
        fill: #ffe3ab;
      }

      .cls-45 {
        fill: #ffb47d;
      }

      .cls-46 {
        fill: #f7e4a1;
      }

      .cls-47 {
        fill: #b2db6c;
      }

      .cls-48 {
        fill: #e79bc2;
      }

      .cls-49 {
        fill: #d8e5f5;
      }

      .cls-50 {
        fill: #6a928f;
      }

      .cls-51 {
        fill: #e7e7f2;
      }

      .cls-52 {
        fill: #bed4e0;
      }

      .cls-53 {
        fill: #ab5b44;
      }

      .cls-54 {
        fill: #4c495b;
      }

      .cls-55 {
        fill: #c1dbee;
      }

      .cls-56 {
        fill: #95a3fb;
      }

      .cls-57 {
        fill: #a7d2fc;
      }

      .cls-58 {
        fill: #ffab6d;
      }

      .cls-59 {
        fill: #c6c6c6;
      }

      .cls-60 {
        fill: #accfe5;
      }

      .cls-61 {
        fill: #ee7035;
      }

      .cls-62 {
        fill: #b4bbd3;
      }

      .cls-63 {
        fill: #ffbab2;
      }

      .cls-64 {
        fill: #a03f32;
      }

      .cls-65 {
        fill: #bdd1e5;
      }
    </style>
  </defs>
  <g class="cls-32">
    <g id="Layer_19" data-name="Layer 19">
      <g>
        <path class="cls-2" d="M73.07,411.18c-56.43,40.62-60.33,119.16-27.15,175.88,35.49,1.33,71.06.38,106.43-2.85,35.73-3.26,71.29-8.85,107.16-9.89,36.31-1.05,72.57,2.57,108.83,4.92,53.01,3.44,106.15,4.16,159.26,4.87,61.29.83,122.58,1.66,183.87,2.49,5.43.07,11.14.08,15.91-2.52,5.03-2.74,8.18-7.93,10.96-12.94,63.57-114.37,72.89-302.24-32.53-396.04-34.96-31.11-79.01-50.98-124.67-61.25-61.85-13.92-129.52-10.03-184.69,21.2-65.3,36.96-94.65,108.34-138.21,165.58-21.47,28.2-46.31,53.33-79.25,67.49-34.79,14.95-73.86,20.29-105.29,42.61-.21.15-.41.29-.61.44Z"/>
        <g>
          <path class="cls-47" d="M736.49,405.8c-17.48,13.97-23.84,45.8-27.28,65.92-1.41,8.24-15.98,108.07-10.46,108.25,9.5.3,19,.6,28.5.9,6.31-24.97,15-49.34,25.9-72.67,11.95-25.56,28.51-52.68,26.53-81.96-1.34-19.79-21.13-33.84-39.26-23.15-1.37.81-2.68,1.72-3.93,2.72Z"/>
          <path class="cls-37" d="M712.54,576.22s-.09,0-.13,0c-.84-.07-1.47-.81-1.4-1.65,4.8-57.2,18.68-112.96,41.25-165.74.33-.78,1.23-1.14,2.01-.8.78.33,1.14,1.23.81,2.01-22.45,52.48-36.25,107.92-41.02,164.8-.07.8-.74,1.4-1.52,1.4Z"/>
          <path class="cls-37" d="M739.39,449.93c-.48,0-.95-.22-1.25-.64-.49-.69-.33-1.64.36-2.13,7.81-5.56,15.89-11.31,24.79-15.46,2.18-1.02,3.9-1.7,5.58-2.22.82-.25,1.66.21,1.91,1.02.25.81-.21,1.66-1.02,1.91-1.54.47-3.14,1.11-5.18,2.06-8.65,4.04-16.62,9.71-24.32,15.18-.27.19-.58.28-.89.28Z"/>
          <path class="cls-37" d="M727.8,486.57c-.39,0-.79-.15-1.09-.45-.59-.6-.59-1.57.01-2.16,9.33-9.23,20.4-16.07,34.83-21.52.8-.3,1.68.1,1.97.89.3.79-.1,1.67-.89,1.97-14.02,5.29-24.74,11.91-33.76,20.83-.3.29-.69.44-1.08.44Z"/>
          <path class="cls-37" d="M720.35,520.39c-.57,0-1.17-.3-1.46-.79-.35-.57-.43-1.49.39-2.33,1.93-1.94,4.17-3.44,6.34-4.88,5.34-3.56,10.86-7.25,16.51-10.58.57-.34,1.43-.84,2.47-.9.84-.04,1.57.6,1.61,1.45.04.84-.6,1.56-1.45,1.61-.29.01-.75.28-1.08.48-5.58,3.29-11.06,6.95-16.37,10.49-1.84,1.23-3.73,2.49-5.33,3.98-.1.63-.65,1.25-1.25,1.42-.13.03-.25.05-.39.05Z"/>
          <path class="cls-37" d="M738.49,450.05c-.72,0-1.36-.51-1.5-1.24-1.95-10.07-6.22-18.06-10.56-25.19-.44-.72-.21-1.66.51-2.1.71-.44,1.66-.21,2.1.51,4.26,7.02,8.9,15.63,10.95,26.2.16.83-.38,1.63-1.21,1.79-.1.02-.19.03-.29.03Z"/>
          <path class="cls-37" d="M728.21,486.46c-.7,0-1.33-.48-1.49-1.18-1.68-7.27-6.39-14.46-10.54-20.81l-1.34-2.06c-.46-.71-.26-1.66.45-2.12.7-.46,1.65-.26,2.12.45l1.33,2.05c4.29,6.56,9.16,13.99,10.96,21.79.19.82-.32,1.64-1.15,1.84-.11.03-.23.04-.34.04Z"/>
          <path class="cls-37" d="M720.26,518.93c-.6,0-1.17-.36-1.42-.95-2.65-6.44-5.73-10.98-10.5-17.1-.52-.67-.4-1.63.27-2.15.67-.52,1.63-.4,2.15.27,4.93,6.33,8.14,11.05,10.92,17.82.32.78-.05,1.67-.83,2-.19.08-.39.12-.58.12Z"/>
        </g>
        <path class="cls-2" d="M263.48,175.9c21.02,18.26,16.18,62.2,3.71,85.13-24.2,44.5-76.24,90.21-129.69,89.94-26.68-.14-54.55-19.85-49.9-49.11,2.89-18.21,15.57-33.2,28.67-46.18,23.29-23.07,49.44-42.96,76.06-62,19.76-14.13,47.22-38.56,71.14-17.78Z"/>
        <g>
          <rect class="cls-25" x="69.47" y="347.77" width="108.49" height="209.47"/>
          <g>
            <rect class="cls-36" x="75.99" y="293.11" width="92.49" height="185.49" rx="8.14" ry="8.14"/>
            <g class="cls-14">
              <rect class="cls-52" x="-5.85" y="432.3" width="256.16" height="2.19" rx=".07" ry=".07" transform="translate(555.62 311.16) rotate(90)"/>
            </g>
            <g class="cls-13">
              <rect class="cls-52" x="107.93" y="401.45" width="28.6" height="92.49" transform="translate(569.93 325.46) rotate(90)"/>
            </g>
            <g>
              <circle class="cls-8" cx="144.86" cy="328.62" r="11.77"/>
              <path class="cls-34" d="M133.13,327.8c-.02.27-.04.54-.04.81s.02.54.04.81h23.45c.02-.27.04-.54.04-.81s-.02-.54-.04-.81h-23.45Z"/>
            </g>
            <g>
              <circle class="cls-8" cx="144.86" cy="371.97" r="11.77" transform="translate(-57.71 28.01) rotate(-9.22)"/>
              <path class="cls-34" d="M133.13,371.15c-.02.27-.04.54-.04.81s.02.54.04.81h23.45c.02-.27.04-.54.04-.81s-.02-.54-.04-.81h-23.45Z"/>
            </g>
            <g>
              <circle class="cls-48" cx="144.86" cy="413.72" r="11.77" transform="translate(-64.4 28.55) rotate(-9.22)"/>
              <g class="cls-11">
                <path d="M133.13,412.9c-.02.27-.04.54-.04.81s.02.54.04.81h23.45c.02-.27.04-.54.04-.81s-.02-.54-.04-.81h-23.45Z"/>
              </g>
            </g>
            <g>
              <circle class="cls-8" cx="99.41" cy="328.62" r="11.77"/>
              <path class="cls-34" d="M87.69,327.8c-.02.27-.04.54-.04.81s.02.54.04.81h23.45c.02-.27.04-.54.04-.81s-.02-.54-.04-.81h-23.45Z"/>
            </g>
            <g>
              <circle class="cls-8" cx="99.41" cy="371.97" r="11.77"/>
              <path class="cls-34" d="M87.69,371.15c-.02.27-.04.54-.04.81s.02.54.04.81h23.45c.02-.27.04-.54.04-.81s-.02-.54-.04-.81h-23.45Z"/>
            </g>
            <g>
              <circle class="cls-48" cx="99.41" cy="413.72" r="11.77"/>
              <g class="cls-11">
                <path d="M87.69,412.9c-.02.27-.04.54-.04.81s.02.54.04.81h23.45c.02-.27.04-.54.04-.81s-.02-.54-.04-.81h-23.45Z"/>
              </g>
            </g>
          </g>
          <rect class="cls-56" x="30.97" y="426.23" width="185.49" height="108.49" transform="translate(604.19 356.76) rotate(90)"/>
          <path class="cls-46" d="M69.47,387.73v93.82c14.44,12.8,33.43,20.59,54.25,20.59s39.81-7.79,54.25-20.59v-93.82h-108.49Z"/>
          <path class="cls-41" d="M177.96,481.55v-24.13c-14.44,12.8-33.43,20.59-54.25,20.59s-39.81-7.79-54.25-20.59v24.13c14.44,12.8,33.43,20.59,54.25,20.59s39.81-7.79,54.25-20.59Z"/>
          <rect class="cls-3" x="125.63" y="523.81" width="25.34" height="26.46" rx=".75" ry=".75" transform="translate(675.33 398.73) rotate(90)"/>
          <rect class="cls-15" x="135.6" y="425.26" width="58.05" height="4.4" rx=".13" ry=".13" transform="translate(592.08 262.84) rotate(90)"/>
          <rect class="cls-15" x="130.94" y="420.64" width="48.79" height="4.4" rx=".13" ry=".13" transform="translate(578.17 267.5) rotate(90)"/>
        </g>
        <g>
          <path class="cls-35" d="M239.49,510.85l-12.77-14.84h-.02v-9.26h-67.24v9.26h-.02l-12.77,14.84c-.4.46-.62,1.05-.62,1.66v48.49c0,.46.13.92.37,1.32l5.02,8.33c1.27,2.11,3.56,3.4,6.02,3.4h71.22c2.46,0,4.75-1.29,6.02-3.4l5.02-8.33c.24-.4.37-.85.37-1.32v-48.49c0-.61-.22-1.2-.62-1.66Z"/>
          <g>
            <rect class="cls-8" x="163.98" y="516.92" width="76.13" height="41.47"/>
            <rect class="cls-47" x="163.98" y="516.92" width="14.89" height="41.47"/>
            <path class="cls-29" d="M186.48,525.04h48.68c.09,0,.17.08.17.17v5.03c0,.09-.08.17-.17.17h-48.68c-.09,0-.17-.08-.17-.17v-5.03c0-.09.08-.17.17-.17Z"/>
            <path class="cls-29" d="M186.48,534.97h48.68c.09,0,.17.08.17.17v5.03c0,.09-.08.17-.17.17h-48.68c-.09,0-.17-.08-.17-.17v-5.03c0-.09.08-.17.17-.17Z"/>
          </g>
          <g class="cls-12">
            <polyline class="cls-5" points="226.7 496.01 226.7 486.76 159.46 486.76 159.46 496.01"/>
          </g>
          <g>
            <path class="cls-8" d="M153.61,454.66h78.94c.25,0,.45.2.45.45v25.26h-79.85v-25.26c0-.25.2-.45.45-.45Z"/>
            <g>
              <rect class="cls-51" x="157.85" y="458.72" width="2.9" height="26.87" rx=".09" ry=".09"/>
              <rect class="cls-51" x="164.52" y="458.72" width="2.9" height="26.87" rx=".09" ry=".09"/>
              <rect class="cls-51" x="171.19" y="458.72" width="2.9" height="26.87" rx=".09" ry=".09"/>
              <rect class="cls-51" x="177.86" y="458.72" width="2.9" height="26.87" rx=".09" ry=".09"/>
              <rect class="cls-51" x="184.53" y="458.72" width="2.9" height="26.87" rx=".09" ry=".09"/>
              <rect class="cls-51" x="191.2" y="458.72" width="2.9" height="26.87" rx=".09" ry=".09"/>
              <rect class="cls-51" x="197.87" y="458.72" width="2.9" height="26.87" rx=".09" ry=".09"/>
              <rect class="cls-51" x="204.54" y="458.72" width="2.9" height="26.87" rx=".09" ry=".09"/>
              <rect class="cls-51" x="212.08" y="458.72" width="2.9" height="26.87" rx=".09" ry=".09"/>
              <rect class="cls-51" x="218.75" y="458.72" width="2.9" height="26.87" rx=".09" ry=".09"/>
              <rect class="cls-51" x="225.42" y="458.72" width="2.9" height="26.87" rx=".09" ry=".09"/>
            </g>
            <rect class="cls-51" x="150.84" y="479.02" width="84.49" height="10.83"/>
          </g>
        </g>
        <g>
          <path class="cls-20" d="M763.9,492.86c-9.9,7.11-15.55,20.89-17.99,31.94-3.71,16.81-5.31,34.07-4.78,51.27,6.66-1.07,13.53-.9,20.13.5,2.83-11.01,7.56-21.53,13.93-30.96,7.37-10.92,17.35-21.14,18.82-34.88,1.19-11.11-6.49-24.12-19.09-22.36-4.15.58-7.81,2.18-11.02,4.49Z"/>
          <path class="cls-37" d="M751.27,572.75s.02,0,.02,0c.47-.03.82-.43.79-.89-.08-1.19.02-2.37.19-3.79.76-6.3,2.31-12.56,3.68-18.09,2.69-10.83,5.96-21.54,9.73-31.84,3.24-8.83,7.17-17.9,13.98-24.37.34-.32.35-.85.03-1.18-.32-.34-.85-.35-1.18-.03-7.06,6.71-11.09,15.98-14.4,25.01-3.79,10.35-7.08,21.12-9.79,32.01-1.38,5.57-2.95,11.89-3.72,18.29-.16,1.31-.29,2.71-.2,4.1.03.45.41.79.86.78Z"/>
          <path class="cls-37" d="M764.35,520.76c.23,0,.46-.11.61-.3,2.92-3.45,7.37-5.42,11.29-7.16l8.44-3.74c.42-.19.61-.68.43-1.1-.19-.42-.68-.62-1.1-.43l-8.44,3.74c-3.62,1.61-7.68,3.4-10.76,6.4-1.1-5.05-2.63-10.04-4.54-14.85-.17-.43-.66-.64-1.09-.47-.43.17-.64.66-.47,1.09,2.07,5.22,3.68,10.65,4.78,16.15.06.31.3.57.61.65.08.02.16.03.23.03Z"/>
          <path class="cls-37" d="M757.53,540.86c.2,0,.4-.09.56-.23,5.6-5.41,12.52-9.35,20.03-11.41.45-.12.71-.58.59-1.03-.12-.44-.58-.71-1.03-.59-7.28,1.99-14.03,5.7-19.63,10.77-1.12-5.46-3.09-10.67-5.89-15.51-.23-.4-.74-.54-1.14-.31-.4.23-.54.74-.31,1.14,2.95,5.11,4.96,10.66,5.97,16.47.05.31.27.56.56.65.09.03.19.04.29.04Z"/>
          <path class="cls-37" d="M753.07,558.96c.25,0,.48-.13.64-.33,2.72-3.54,6.26-6.48,10.25-8.49.41-.21.58-.71.37-1.12-.21-.41-.71-.57-1.13-.37-3.81,1.92-7.23,4.64-9.97,7.9-1.68-3.51-3.61-6.94-5.74-10.2-.25-.39-.78-.5-1.16-.24-.39.25-.49.77-.24,1.16,2.34,3.57,4.42,7.33,6.2,11.2.12.27.38.45.67.48.04,0,.08,0,.12,0Z"/>
        </g>
        <g>
          <path class="cls-37" d="M51.04,447.94c15.49,10.41,24.79,31.24,29.04,48.05,6.47,25.55,9.74,51.91,9.73,78.27-10.25-1.32-20.75-.74-30.79,1.71-4.85-16.73-12.6-32.61-22.78-46.74-11.8-16.37-27.55-31.54-30.46-52.5-2.35-16.96,8.8-37.23,28.17-35.14,6.37.69,12.06,2.97,17.09,6.35Z"/>
          <path class="cls-20" d="M74.14,569.9s-.04,0-.06,0c-.85-.03-1.5-.74-1.47-1.59.07-1.92-.18-3.9-.46-5.74-1.35-8.91-3.64-17.37-6.48-27.49-4.63-16.45-10.14-32.69-16.39-48.26-5.36-13.35-11.79-27.02-22.49-36.56-.63-.56-.68-1.53-.12-2.16.56-.63,1.53-.68,2.16-.12,11.16,9.96,17.79,24.01,23.29,37.7,6.29,15.67,11.84,32.01,16.5,48.57,2.87,10.23,5.18,18.77,6.56,27.85.3,1.99.58,4.14.5,6.32-.03.82-.71,1.47-1.53,1.47Z"/>
          <path class="cls-20" d="M51.67,490.93c-.43,0-.84-.18-1.14-.5-4.6-5.1-11.47-7.9-17.53-10.36l-13.11-5.34c-.78-.32-1.16-1.21-.84-1.99.32-.78,1.21-1.16,1.99-.84l13.11,5.33c5.52,2.24,11.67,4.75,16.51,9.04,1.45-7.66,3.53-15.23,6.18-22.56.29-.79,1.18-1.2,1.96-.92.79.29,1.21,1.17.92,1.96-2.92,8.07-5.12,16.44-6.55,24.9-.1.58-.52,1.05-1.08,1.21-.14.04-.28.06-.43.06Z"/>
          <path class="cls-20" d="M63.05,521.39c-.37,0-.74-.14-1.03-.4-8.79-7.99-19.54-13.68-31.08-16.46-.82-.2-1.33-1.02-1.13-1.85.2-.82,1.02-1.33,1.85-1.13,11.14,2.68,21.56,7.96,30.32,15.33,1.48-8.28,4.24-16.24,8.24-23.67.4-.75,1.33-1.03,2.07-.62.74.4,1.02,1.33.62,2.07-4.26,7.94-7.07,16.49-8.34,25.41-.08.56-.46,1.03-1,1.22-.17.06-.35.09-.52.09Z"/>
          <path class="cls-20" d="M70.74,548.87c-.45,0-.89-.2-1.19-.56-4.3-5.26-9.83-9.57-16-12.44-.77-.36-1.1-1.27-.74-2.03.36-.77,1.28-1.1,2.03-.74,5.84,2.72,11.14,6.64,15.46,11.4,2.38-5.36,5.13-10.58,8.17-15.56.44-.72,1.39-.95,2.1-.5.72.44.95,1.38.51,2.1-3.39,5.54-6.4,11.4-8.94,17.41-.21.49-.66.84-1.19.92-.07.01-.15.01-.22.01Z"/>
        </g>
        <g>
          <path class="cls-20" d="M110.03,513.84c-7.24,5.2-11.37,15.27-13.15,23.35-2.71,12.29-3.89,24.91-3.49,37.49,4.87-.78,9.89-.66,14.72.36,2.07-8.05,5.53-15.74,10.18-22.63,5.39-7.98,12.68-15.45,13.76-25.5.87-8.13-4.75-17.63-13.96-16.35-3.03.42-5.71,1.59-8.06,3.28Z"/>
          <path class="cls-37" d="M100.8,572.25h.02c.34-.02.6-.32.58-.65-.06-.87.01-1.73.14-2.77.56-4.61,1.69-9.19,2.69-13.22,1.97-7.92,4.36-15.75,7.11-23.28,2.37-6.46,5.24-13.09,10.22-17.82.25-.23.25-.62.02-.87-.23-.25-.62-.25-.87-.02-5.16,4.9-8.11,11.68-10.53,18.28-2.77,7.57-5.18,15.44-7.15,23.4-1.01,4.07-2.15,8.69-2.72,13.37-.12.96-.21,1.98-.14,3,.02.33.3.58.63.57Z"/>
          <path class="cls-37" d="M110.36,534.24c.17,0,.33-.08.45-.22,2.14-2.52,5.39-3.96,8.25-5.23l6.17-2.74c.31-.14.45-.5.31-.81-.14-.31-.5-.45-.81-.31l-6.17,2.74c-2.65,1.17-5.61,2.49-7.87,4.68-.81-3.7-1.92-7.34-3.32-10.86-.12-.31-.49-.47-.79-.34-.31.13-.47.48-.34.79,1.52,3.81,2.69,7.79,3.5,11.81.05.23.22.41.45.47.06.01.11.02.17.02Z"/>
          <path class="cls-37" d="M105.38,548.93c.15,0,.29-.06.41-.17,4.09-3.95,9.16-6.84,14.64-8.34.33-.09.52-.43.43-.75-.09-.32-.42-.52-.75-.43-5.32,1.46-10.26,4.17-14.35,7.87-.82-3.99-2.26-7.8-4.3-11.34-.17-.29-.54-.39-.84-.22-.29.17-.39.54-.22.84,2.16,3.74,3.63,7.79,4.37,12.04.04.22.2.41.41.48.07.02.14.03.21.03Z"/>
          <path class="cls-37" d="M102.11,562.16c.18,0,.35-.09.47-.24,1.99-2.59,4.58-4.74,7.49-6.21.3-.15.42-.52.27-.82-.15-.3-.52-.42-.82-.27-2.78,1.4-5.28,3.39-7.29,5.78-1.23-2.57-2.64-5.07-4.2-7.46-.19-.28-.57-.36-.85-.18-.28.19-.36.56-.18.85,1.71,2.61,3.23,5.36,4.53,8.19.09.19.28.33.49.35.03,0,.06,0,.09,0Z"/>
        </g>
        <path class="cls-40" d="M773.02,598.16H22.36c-6.76,0-12.24-5.48-12.24-12.24s5.48-12.24,12.24-12.24h750.66c6.76,0,12.24,5.48,12.24,12.24s-5.48,12.24-12.24,12.24Z"/>
        <g>
          <g>
            <path class="cls-54" d="M337.86,31.71h264.74c7.77,0,14.08,6.31,14.08,14.08v372.75c0,7.77-6.31,14.08-14.08,14.08h-264.74c-7.77,0-14.08-6.31-14.08-14.08V45.79c0-7.77,6.31-14.08,14.08-14.08Z"/>
            <rect class="cls-23" x="343.26" y="52.35" width="252.58" height="357.93"/>
            <path class="cls-8" d="M577.46,57.45c0,4.39-2.82,8.79-8.43,8.79s-8.44-4.4-8.43-8.79h-213.15v251.38c10.9.28,10.88,17.28,0,17.55v7.98c10.15.82,10.13,16.67,0,17.5v53.57h243.6V57.45h-13.57Z"/>
            <g>
              <path class="cls-17" d="M502.93,86.35c-.15,14.25-4.88,64.71-9.5,110.81-4.45,44.44-8.79,84.83-8.79,84.83h-23.66l-9.2-84.83-12.02-110.81s31.87-12.12,63.16,0Z"/>
              <path class="cls-17" d="M493.43,197.16c-4.45,44.44-8.79,84.83-8.79,84.83h-23.66l-9.2-84.83h41.65Z"/>
              <g>
                <path class="cls-49" d="M505.95,90.22s-26.72,19.32-6.12,71.79c7.08-.64,41.85,6.12,41.85,6.12,0,0-1.29-22.54,9.34-34.77,10.62-12.23,4.17-45.99,10.62-57.63-16.67-6.19-55.7,14.49-55.7,14.49Z"/>
                <path class="cls-17" d="M496.3,142.37s-4.97-34.65,7.34-41.15c27.44,2.19,40.07-5.53,44.98-12.94-.16,13.2-18.83,22.86-39.76,19.64-4.83,5.8-9.98,3.86-12.56,34.45Z"/>
              </g>
              <g>
                <path class="cls-49" d="M440.84,90.22s26.72,19.32,6.12,71.79c-7.08-.64-41.85,6.12-41.85,6.12,0,0,1.29-22.54-9.34-34.77-10.62-12.23-4.17-45.99-10.62-57.63,16.67-6.19,55.7,14.49,55.7,14.49Z"/>
                <path class="cls-17" d="M450.5,142.37s4.97-34.65-7.34-41.15c-27.43,2.19-40.07-5.53-44.98-12.94.16,13.2,18.83,22.86,39.76,19.64,4.83,5.8,9.98,3.86,12.56,34.45Z"/>
              </g>
              <g>
                <path class="cls-49" d="M504.84,318.01c-8.35,4.39-17.36,6.4-27.01,6.04-10.11-.03-19.67-2.08-28.69-6.13v77.83c6.84,3.1,17.42,5.1,29.3,5.1s22.46-1.99,29.3-5.1v-78.06h-1.96c-.31.11-.62.22-.94.32Z"/>
                <path class="cls-65" d="M510.27,386.93c0-2.12-1.69-3.51-3.17-2.63-6.71,3.96-17.03,6.48-28.61,6.48s-21.9-2.53-28.57-6.46c-1.49-.88-3.14.48-3.14,2.55v3.06c0,2.72,1.2,5.22,3.11,6.35,6.71,3.96,17.03,6.48,28.61,6.48s21.9-2.53,28.57-6.46c1.98-1.17,3.21-3.71,3.21-6.49v-2.88Z"/>
                <path class="cls-65" d="M510.27,368.2c0-2.12-1.69-3.51-3.17-2.63-6.71,3.96-17.03,6.48-28.61,6.48s-21.9-2.53-28.57-6.46c-1.49-.88-3.14.48-3.14,2.55v3.06c0,2.72,1.2,5.22,3.11,6.35,6.71,3.96,17.03,6.48,28.61,6.48s21.9-2.53,28.57-6.46c1.98-1.17,3.21-3.71,3.21-6.49v-2.88Z"/>
                <path class="cls-65" d="M510.27,349.47c0-2.12-1.69-3.51-3.17-2.63-6.71,3.96-17.03,6.48-28.61,6.48s-21.9-2.53-28.57-6.46c-1.49-.88-3.14.48-3.14,2.55v3.06c0,2.72,1.2,5.22,3.11,6.35,6.71,3.96,17.03,6.48,28.61,6.48s21.9-2.53,28.57-6.46c1.98-1.17,3.21-3.71,3.21-6.49v-2.88Z"/>
                <path class="cls-65" d="M510.27,330.74c0-2.12-1.69-3.51-3.17-2.63-6.71,3.96-17.03,6.48-28.61,6.48s-21.9-2.53-28.57-6.46c-1.49-.88-3.14.47-3.14,2.55v3.06c0,2.72,1.2,5.22,3.11,6.35,6.71,3.96,17.03,6.48,28.61,6.48s21.9-2.53,28.57-6.46c1.98-1.17,3.21-3.71,3.21-6.49v-2.88Z"/>
                <path class="cls-65" d="M510.27,312.01c0-2.12-1.69-3.51-3.17-2.63-6.71,3.96-17.03,6.48-28.61,6.48s-21.9-2.53-28.57-6.46c-1.49-.88-3.14.47-3.14,2.55v3.06c0,2.72,1.2,5.22,3.11,6.35,6.71,3.96,17.03,6.48,28.61,6.48s21.9-2.53,28.57-6.46c1.98-1.17,3.21-3.71,3.21-6.49v-2.88Z"/>
              </g>
              <g>
                <path class="cls-1" d="M448.4,225.2s27.19,16.57,15.17,56.79h-33.05s-18.32-40.78-8.73-52.37c7.87-10.73,26.62-4.42,26.62-4.42Z"/>
                <path class="cls-64" d="M444.48,225.2s22.15,22.66,16.51,56.79c7.3-25.54-7.21-50.14-16.51-56.79Z"/>
                <path class="cls-64" d="M449.09,226.4s20.55,18.3,13.87,53.56c6.64-24.09-.67-42.14-13.87-53.56Z"/>
                <path class="cls-64" d="M441.04,224.54s21.93,23.32,16.28,57.45c7.3-25.54-6.98-50.8-16.28-57.45Z"/>
                <path class="cls-64" d="M436.81,224.54s22.5,23.32,16.85,57.45c7.3-25.54-7.55-50.8-16.85-57.45Z"/>
                <path class="cls-64" d="M433.42,224.54s22.22,23.32,16.57,57.45c7.3-25.54-7.27-50.8-16.57-57.45Z"/>
                <path class="cls-64" d="M431.09,225.2s20.88,22.66,15.24,56.79c7.3-25.54-5.94-50.14-15.24-56.79Z"/>
                <path class="cls-64" d="M427.87,225.76s21.27,24.46,13.86,56.21c8.61-23.6-4.92-49.44-13.86-56.21Z"/>
                <path class="cls-64" d="M425.8,227.56s19.67,22.45,12.26,54.2c8.61-23.6-3.32-47.44-12.26-54.2Z"/>
                <path class="cls-64" d="M422.03,229.36s19.72,21.65,12.37,52.21c8.56-22.7-3.42-45.67-12.37-52.21Z"/>
                <path class="cls-64" d="M420.95,234.07s16.4,21.39,10.63,47.07c6.65-20.96-2.16-40.41-10.63-47.07Z"/>
                <path class="cls-64" d="M419.27,240.5c3.35,4.46,12.76,16.4,10.16,36.3,3.66-16.54-1.6-29.53-10.16-36.3Z"/>
                <path class="cls-64" d="M419.95,247.3c2.03,2.92,7.74,10.71,6.02,23.81,2.35-10.9-.8-19.41-6.02-23.81Z"/>
              </g>
              <g>
                <path class="cls-1" d="M495.58,223.1s-27.19,16.57-15.17,56.79h33.05s18.32-40.78,8.73-52.37c-7.87-10.73-26.62-4.42-26.62-4.42Z"/>
                <path class="cls-64" d="M499.5,223.1s-22.15,22.66-16.51,56.79c-7.3-25.54,7.21-50.14,16.51-56.79Z"/>
                <path class="cls-64" d="M494.88,224.3s-20.55,18.3-13.87,53.56c-6.64-24.09.67-42.14,13.87-53.56Z"/>
                <path class="cls-64" d="M502.93,222.44s-21.93,23.32-16.28,57.45c-7.3-25.54,6.98-50.8,16.28-57.45Z"/>
                <path class="cls-64" d="M507.17,222.44s-22.5,23.32-16.85,57.45c-7.3-25.54,7.55-50.8,16.85-57.45Z"/>
                <path class="cls-64" d="M510.55,222.44s-22.22,23.32-16.57,57.45c-7.3-25.54,7.27-50.8,16.57-57.45Z"/>
                <path class="cls-64" d="M512.88,223.1s-20.88,22.66-15.24,56.79c-7.3-25.54,5.94-50.14,15.24-56.79Z"/>
                <path class="cls-64" d="M516.11,223.66s-21.27,24.45-13.86,56.21c-8.61-23.6,4.92-49.44,13.86-56.21Z"/>
                <path class="cls-64" d="M518.17,225.46s-19.67,22.45-12.26,54.2c-8.61-23.6,3.32-47.44,12.26-54.2Z"/>
                <path class="cls-64" d="M521.94,227.26s-19.72,21.65-12.37,52.2c-8.56-22.7,3.42-45.67,12.37-52.2Z"/>
                <path class="cls-64" d="M523.02,231.97s-16.4,21.39-10.63,47.07c-6.65-20.96,2.16-40.41,10.63-47.07Z"/>
                <path class="cls-64" d="M524.71,238.4c-3.35,4.46-12.76,16.4-10.16,36.3-3.66-16.54,1.6-29.53,10.16-36.3Z"/>
                <path class="cls-64" d="M524.03,245.2c-2.03,2.91-7.74,10.71-6.02,23.81-2.35-10.9.8-19.41,6.02-23.81Z"/>
              </g>
              <path class="cls-33" d="M395.09,77.98s2.65,27.18,54.01,22.7c13.4,9.17,23.85.54,23.85.54,0,0,12.68,9.72,28,0-8.48,16.97-6.06,27.63-6.06,27.63,0,0,5.94-24.7,13.98-27.32,17.98,6.02,35.31-.37,41.47-15.82,8.39,2.66,11.32-9.98,11.32-9.98,0,0-20.96,17.06-49.76,16.1-28.8-.97-81,11.91-116.81-13.84Z"/>
              <g>
                <path class="cls-4" d="M544.98,69.54c-9.23,8.16-21.68,10.09-21.68,10.09,0,0,6.87-7.08,3-10.09-3.86-3-4.72-3-22.68,7.94-9.16-14.59-30.69-6.65-30.69-6.65v25.97s3.15,3,9.89,4.29c6.74,1.29,15.36-7.3,25.24-4.94,27.47,3.22,35.84-7.3,40.54-12.88,4.7-5.58,23.63-.22,26.42-11.16,2.79-10.95-20.82-10.73-30.05-2.58Z"/>
                <path class="cls-4" d="M437.81,96.16c9.87-2.36,18.49,6.22,25.24,4.94,6.75-1.29,9.89-4.29,9.89-4.29v-25.97s-21.53-7.94-30.69,6.65c-17.96-10.95-18.82-10.95-22.68-7.94-3.86,3,3,10.09,3,10.09,0,0-12.45-1.93-21.68-10.09-9.23-8.16-32.84-8.37-30.05,2.58,2.79,10.95,21.73,5.58,26.42,11.16,4.7,5.58,13.07,16.1,40.54,12.88Z"/>
              </g>
              <g>
                <path class="cls-60" d="M397.14,153.8s-3.86,25.89,7.41,15.65c11.27-10.24,0-11.1,0-22.76s-2.24-18.78-8.04-13.37c-5.8,5.4,4.5,12.8.64,20.48Z"/>
                <path class="cls-60" d="M546.16,153.8s3.86,25.89-7.4,15.65c-11.27-10.24,0-11.1,0-22.76s2.24-18.78,8.04-13.37c5.8,5.4-4.5,12.8-.64,20.48Z"/>
                <g>
                  <path class="cls-65" d="M488.61,160.68c-5.98,11.88-12.47,15.67-16.89,16.75-4.42-1.08-10.9-4.86-16.89-16.75-10.36-20.57-58.81-.05-56.23,10.93,2.58,10.98,15.05,27.67,15.02,51.57-.02,21.7,32.04,14.19,48.48,8.05,5.57-2.08,11.82-2.12,17.42-.11,15.46,5.55,48.26,11,50.29-7.94,2.55-23.8,12.45-40.59,15.02-51.57,2.58-10.98-45.87-31.5-56.23-10.93Z"/>
                  <g>
                    <path class="cls-49" d="M456.81,194.23s-5.6,20.99,8.65,32.03c7.21-.2,5.9-4.56,5.9-4.56,0,0-10.9-8.72-9.88-24.37-1.56-6.26-4.67-3.09-4.67-3.09Z"/>
                    <path class="cls-19" d="M443.57,232.21s-16.53,6.54-20.21-4.5c1.47-15.88,6.96-26.69-7.28-46.47-6.86-9.54-.67-21.87,17.19-22.32,18.61-.47,22.34,8.54,22.34,8.54,0,0-4.3-10.99-18.8-12.23-14.51-1.24-23.65,2.36-28.91,13.75-4.32,9.35,8.62,16.69,9.4,32.62.77,15.93-5.52,44.18,26.28,30.62Z"/>
                    <path class="cls-60" d="M511.89,232.21s-35.26,2.11-34.28-15.82c.98-17.93,17.67-10.77,13.27-29.19-4.4-18.41,1.47-33.18,19.68-32.22,18.21.95,31.94,7.12,30.62,20.15-1.32,13.02-17.95,26.1-14.33,46.83,2,11.44-14.95,10.25-14.95,10.25Z"/>
                    <path class="cls-19" d="M544.39,169.86s-11.38-16.07-36.58-16.09c-8.83,0-29.98,20.64-17,25.75,5.98,2.35,15.76-5.03,12.02-11.29s14.59-20.16,41.56,1.63Z"/>
                  </g>
                </g>
              </g>
              <g>
                <path class="cls-9" d="M473.18,259.11s-4.85-9.81-15.93-3.45c-4.85-5.83-15.7,1.59-15.47,7.43-3.93-17.5-18.24-26.52-27.71-27.58.46-13.79-5.54-29.17-23.78-18.3-18.24,10.87-9.93,39.52,0,53.57-1.85,20.95-4.66,35.27,2.52,46.41,0,14.59,8.4,57.1,36.73,56.22,14.08.01,21.93-18.3,21.93-18.3,0,0,14.56,1.08,20.1-10.6,5.99-.01,7.77-2.4,7.81-7.44,4.65,10.87,15.04,10.87,15.04,10.87,0,0,2.77,18.83,23.78,14.06,15.01,14.59,45.48-9.81,35.55-22.28,5.77-4.51,1.95-14.59,1.95-14.59,0,0,19.06-29.97,12.83-60.2,11.78-22.54,1.39-76.11-22.39-60.2-10.98-4.21-27.94,17.24-25.63,29.17-9-2.12-17.55,1.86-19.86,14.85-6.93,2.92-12.01,5.04-12.7,12.2-6.23-6.1-12.47-7.69-14.78-1.86Z"/>
                <path class="cls-6" d="M518.43,253.54s-2.31-22.66,15.24-22.74c-5.08-11.74,1.59-25.75,16.67-23.94,15.82,2.95,13.35,23.26,13.35,23.26,0,0,16.44,11.22.14,28.72,1.24,9.55,9.09,23.34-4.3,32.36,6.52,10.3-8.45,40.31-14.85,40.31,5.15,13.26-6.68,25.55-20.23,24.58-9.91,6.54-20.79,2.5-20.79-11.57-9.24,3.44-16.16-16.72-16.16-16.72,0,0-1.68,11.67-15.92,6.9-2.09,13.26-18.25,24.93-29.79,13.79-15.24,30.23-36.02,14.85-36.48-.53l-.46-15.38s-14.82-21.22-12.03-29.17c.49-12.2,7.87-24.93,7.87-24.93,0,0-5.45-5.37-7.82-12.14-1.9-5.4-4.71-10.35-8.54-14.18-9.32-9.33.04-29.73,7.45-28.84,7.93-9.68,19.53.15,17.68,7.5,8.49-.3,10.33,6.49,10.03,13.4-.23,5.35,2.39,10.34,6.6,12.65,1.88,1.04,3.83,3.08,5.6,6.76,21.18-5.3,27.64,1.06,27.64,1.06,0,0,19.86-6.36,27.24,9.55,14.08-25.46,31.86-20.69,31.86-20.69Z"/>
                <path class="cls-9" d="M393.76,238.68s-4.27,15.65,10.27,12.33c-4.36,3.63-4.83,10.43-.82,11.68,13.75,4.28,12.95,13.49,11.12,18.47,2.8-4.46,1.57-7.38,0-10.88-1.85-4.13-5.18-7.14-9.07-8.42-3.44-1.14-7.06-4.27,1.67-12.88-16.28,5.21-13.18-10.31-13.18-10.31Z"/>
                <path class="cls-9" d="M402.79,332.65c16.89.73,9.31,15.13,9.31,15.13,0,0,8.22-13.41-6.51-15.34,5.11-1.93,7.37-8.24,3.88-10.83-3.37-2.5-5.49-3.41-6.65-7.55-.38,7.05,14.86,9.31-.03,18.6Z"/>
                <path class="cls-9" d="M529.37,333.49c-2.71-1.83-19.68,2.61-6.62,16.35,8.72,9.17,26.04-1.09,16.07-11.88,9.29,14.57-14.06,18.01-17.73,8.76-5.55-14.02,8.27-13.24,8.27-13.24Z"/>
                <path class="cls-9" d="M443.71,348.02c.78,2.47,12.22,6.68,10.47-8.72-1.17-10.28-15.19-10.52-13.98,1.45.73-14.34,15.36-6.66,13.64,1.48-2.61,12.34-10.12,5.79-10.12,5.79Z"/>
                <path class="cls-9" d="M562.91,253.07c.78,2.47,12.22,6.68,10.47-8.72-1.17-10.28-15.19-10.51-13.98,1.45.73-14.34,15.36-6.66,13.64,1.48-2.62,12.34-10.12,5.8-10.12,5.8Z"/>
                <path class="cls-9" d="M551.44,230.1c.78,2.47,12.22,6.68,10.47-8.72-1.17-10.28-15.19-10.51-13.98,1.45.73-14.34,15.36-6.66,13.64,1.48-2.62,12.34-10.12,5.8-10.12,5.8Z"/>
                <path class="cls-9" d="M396.76,237.75c.78,2.47,12.22,6.68,10.47-8.72-1.17-10.28-15.19-10.51-13.98,1.45.73-14.34,15.36-6.66,13.64,1.48-2.62,12.34-10.12,5.8-10.12,5.8Z"/>
                <path class="cls-9" d="M548.26,218.97c1.82-.81,4.76-12.09-6.65-10.12-7.61,1.32-7.56,15.07,1.31,13.68-10.67-.47-5.21-14.95.87-13.4,9.21,2.36,4.47,9.83,4.47,9.83Z"/>
                <path class="cls-9" d="M392.78,241.41c1.75-.87,4.87-12.01-5.95-9.6-7.22,1.61-7.61,15.04.8,13.31-10.04-.01-4.43-14.38,1.25-13.12,8.61,1.92,3.9,9.41,3.9,9.41Z"/>
                <path class="cls-9" d="M425.65,269.43c1.87.39,9.84-6.9-.32-11.78-6.79-3.26-13.58,7.68-5.75,11.59-8.36-6.4,3.24-14.79,7.36-10.13,6.24,7.07-1.29,10.32-1.29,10.32Z"/>
                <path class="cls-9" d="M408.28,248.19c-1.46-.52-8.28,4.56-.52,9.66,5.18,3.4,11.31-4.79,5.34-8.84,6.22,6.14-3.56,11.73-6.53,7.47-4.5-6.46,1.7-8.29,1.7-8.29Z"/>
                <path class="cls-9" d="M469.46,261.08c-1.46-.52-8.28,4.56-.52,9.66,5.18,3.4,11.31-4.79,5.34-8.84,6.22,6.14-3.56,11.73-6.53,7.47-4.5-6.46,1.71-8.29,1.71-8.29Z"/>
                <path class="cls-9" d="M498.87,342.8c.84,1.47,8.92,2.53,5.74-7.08-2.12-6.41-11.38-4.56-9.01,2.93-1.41-9.28,9.24-6.46,9.17-1.01-.1,8.27-5.9,5.16-5.9,5.16Z"/>
                <path class="cls-9" d="M403,287.85c.84,1.47,8.92,2.53,5.74-7.07-2.12-6.41-11.38-4.56-9.01,2.92-1.41-9.28,9.24-6.46,9.17-1-.1,8.27-5.9,5.15-5.9,5.15Z"/>
                <path class="cls-9" d="M417.61,286.59c-1.59-4.75-7.28-4.78-8.71-1.23.1.1.19.21.29.32,1.69-4.15,8.62-1.54,8.58,2.75-.07,7.91-5.67,4.91-5.67,4.91.81,1.41,8.59,2.45,5.51-6.75Z"/>
                <path class="cls-9" d="M404.47,300.46c.62,1.53,7.72,1.76,5.74-8.48-1.32-6.83-9.74-3.71-8.29,4.28-.44-10.09,8.8-8.21,8.26-2.17-.82,9.15-5.71,6.38-5.71,6.38Z"/>
                <path class="cls-9" d="M422.65,279.24c1.02,1.55,10.24,3.13,6.19-6.87-2.7-6.67-13.12-5.35-10.09,2.43-2.03-9.56,10.18-6.03,10.36-.46.27,8.44-6.46,4.9-6.46,4.9Z"/>
                <path class="cls-9" d="M416.98,285.76c.65.99,6.5,1.99,3.93-4.36-1.72-4.24-8.36-2.85-6.43,2.09-1.29-6.07,6.6-4.07,6.61-.53.01,4.89-4.1,2.8-4.1,2.8Z"/>
                <path class="cls-9" d="M430.53,277.46c-.33,1.18,2.65,6.84,5.65,1.45,1.98-3.56-3.07-9.77-5.47-5.11,3.73-4.08,6.6,3.4,4.19,5.9-3.15,2.49-4.36-2.24-4.36-2.24Z"/>
                <path class="cls-9" d="M431.62,269.57c-.26.95,2.14,5.52,4.56,1.17,1.6-2.88-2.48-7.89-4.42-4.12,3.02-3.29,5.33,2.75,3.38,4.77-2.55,2.01-3.52-1.81-3.52-1.81Z"/>
                <path class="cls-9" d="M427.55,292.24c1.47-.96,4.04-11.25-5.12-7.95-6.12,2.2-6.34,14.24.78,11.81-8.52,1.05-3.87-12.38.96-11.86,7.32.8,3.38,7.99,3.38,7.99Z"/>
                <path class="cls-9" d="M393.74,246.68c-.75-1.54-8.74-3.25-6.17,6.59,1.72,6.56,11.07,5.47,9.17-2.18.83,9.37-9.61,5.69-9.21.26.61-8.24,6.2-4.66,6.2-4.66Z"/>
                <path class="cls-9" d="M405.88,243.52c-.56,2.46,5.46,14.58,11.14,1.74,3.79-8.57-5.81-19.78-10.32-9.92,6.91-10.11,13.6,7.12,8.77,11.82-7.32,7.13-9.59-3.65-9.59-3.65Z"/>
                <path class="cls-9" d="M521.71,247.51c-.56,2.46,5.46,14.58,11.14,1.74,3.79-8.57-5.81-19.78-10.32-9.92,6.91-10.11,13.6,7.12,8.77,11.82-7.32,7.13-9.59-3.65-9.59-3.65Z"/>
                <path class="cls-9" d="M460.02,332.38c-1.11-1.56-10.27-1.3-5.65,9.3,3.08,7.08,13.26,3.21,9.77-5.07,2.61,10.56-9.63,9.23-10.16,2.86-.81-9.66,6.04-7.1,6.04-7.1Z"/>
                <path class="cls-9" d="M548.9,224.65c-1.11-1.56-10.27-1.3-5.65,9.3,3.08,7.08,13.26,3.21,9.77-5.07,2.61,10.56-9.63,9.23-10.16,2.86-.81-9.66,6.04-7.1,6.04-7.1Z"/>
                <path class="cls-6" d="M437.32,354.45c-.95.91-.72,8.33,5.76,4.51,4.32-2.55,1.87-10.77-3.19-7.88,6.46-2.19,5.74,7.73,1.83,8.21-5.92.73-4.4-4.84-4.4-4.84Z"/>
                <path class="cls-6" d="M434.34,359.47c-1.71.13-2.64,3.76,1.1,3.76,3.09,0,3.75-5.63.28-5.75,4.05.96,1.17,6.1-1.07,5.06-2.21-1.02-.31-3.08-.31-3.08Z"/>
                <path class="cls-6" d="M510.1,254.45c1.7.27,3.25-3.07-.41-3.94-3.02-.72-4.66,4.64-1.29,5.56-3.8-1.88-.07-6.24,1.94-4.71,1.98,1.51-.24,3.08-.24,3.08Z"/>
                <path class="cls-6" d="M489.19,272.97c1.7.27,3.25-3.07-.41-3.94-3.02-.72-4.66,4.64-1.29,5.56-3.8-1.88-.07-6.24,1.94-4.7,1.98,1.51-.24,3.08-.24,3.08Z"/>
                <path class="cls-9" d="M513.07,342.74c-1.34-1.77-12.25-1.69-6.57,10.31,3.79,8.01,15.83,3.89,11.55-5.47,3.28,11.9-11.31,10.14-12.05,2.99-1.12-10.85,7.07-7.83,7.07-7.83Z"/>
                <path class="cls-9" d="M433.43,260.63s-5.25,5.55-4.22,21.95c1.02,16.4-14.49,15.18-14.49,15.18,0,0,4.53,3.79,11.99-1.92,7.95-6.1,0-26.04,9.28-35.21h-2.55Z"/>
                <path class="cls-9" d="M443.1,276.88s-8.81,2.65-3.91,15.91c-7.34,2.65-10.4,10.34-5.75,17.77-2.51-9.02-1.52-15.38,9.53-16.84,11.05-1.46,16.95.93,27.04,8.88,10.09,7.96,20.33.53,20.33.53,0,0-9.31,6.63-16.47-1.33,9.7-2.65,11.45-7.75,12.65-15.55-3.19,9.98-8.73,16.21-17.96,11.5-9.24-4.71-13.97-8.33-28.09-5.37-4.96-11.98,2.63-15.52,2.63-15.52Z"/>
                <path class="cls-9" d="M528,242.2s-7.65-5.66-12.85,7.45c-6.66-4.42-13.67-1.82-15.29,7.14,4.09-8.22,8.84-11.68,17.25-3.32,8.41,8.37,10.86,14.98,12.58,28.9,1.72,13.92,13.4,17.57,13.4,17.57,0,0-10.55-3.4-10.28-14.84,8.26,6.42,12.72,4.45,18.53.2-8.56,4.05-16.3,3.57-19.52-7.43-3.22-11-4.1-17.46-15.54-27.41,4.33-12.3,11.73-8.26,11.73-8.26Z"/>
                <path class="cls-9" d="M547.85,332.79c-6.15-3.07-11.45-4.74-22.42-2.44-4.96-11.98,2.63-15.52,2.63-15.52,0,0-8.81,2.65-3.91,15.91-7.34,2.65-10.4,10.34-5.75,17.77-2.51-9.02-1.52-15.38,9.53-16.84,8.21-1.08,13.57-.04,19.92,3.82v-2.71Z"/>
                <path class="cls-9" d="M396.45,277.25c3.79,6.43,4.98,12.9,5.45,23.38.63,14.04,11.98,18.88,11.98,18.88,0,0-10.24-4.47-9.08-15.84,7.72,7.24,12.32,5.75,18.44,2.11-8.84,3.15-16.51,1.88-18.86-9.41-1.69-8.09-2.35-13.73-6.51-20.36l-1.41,1.24Z"/>
                <path class="cls-9" d="M565.12,223.15c-2.11,6.41-5.34,10.76-11.21,16.62-7.87,7.86-5.81,19.51-5.81,19.51,0,0-1.79-10.57,5.29-15.59-.89,10,1.94,12.91,6.67,15.92-5.61-5.45-8.15-12.29-2.62-20.09,3.96-5.59,6.95-9.08,9.01-15.89l-1.32-.49Z"/>
                <path class="cls-6" d="M518.2,250.37c1.09-.66,2.2-7.98-4.82-5.77-4.69,1.47-3.77,10.09,1.7,8.47-6.72.61-4.23-8.93-.32-8.47,5.93.69,3.44,5.78,3.44,5.78Z"/>
                <path class="cls-6" d="M505.59,257.72c1.09-.66,2.2-7.98-4.82-5.77-4.69,1.47-3.77,10.09,1.7,8.46-6.72.61-4.23-8.93-.32-8.47,5.93.69,3.44,5.78,3.44,5.78Z"/>
                <path class="cls-6" d="M467.35,266.27c1.68.22,8.04-6.97-1.34-10.72-6.26-2.51-11.26,7.94-4.02,10.97-7.92-5.27,1.52-13.72,5.57-9.75,6.13,6.02-.2,9.51-.2,9.51Z"/>
                <path class="cls-6" d="M455.71,268.68c1.68.22,8.04-6.97-1.34-10.73-6.26-2.5-11.26,7.94-4.02,10.97-7.92-5.26,1.52-13.72,5.57-9.75,6.13,6.02-.2,9.51-.2,9.51Z"/>
                <path class="cls-6" d="M434.8,266.05c1.68.22,8.04-6.97-1.34-10.73-6.26-2.5-11.26,7.94-4.02,10.97-7.92-5.27,1.52-13.72,5.57-9.75,6.13,6.02-.2,9.51-.2,9.51Z"/>
                <path class="cls-9" d="M437.41,345.38s-11.71,4.17-12.21-10.15c-.5-14.32,16.12-9.15,22.05-15.71,5.92-6.56,4.66-14.52-1.94-17.35,6.17,4.95,6.23,13.61.01,17.35-6.21,3.74-18.62.51-22.09,8.64-3.46,8.13-9.53,2.76-9.53,2.76,0,0,4.58,8.54,11.5,0-5.89,14.56,5.69,19.31,12.21,14.46Z"/>
                <path class="cls-9" d="M477.73,283.77s-3.28-5.01-7.72-1.19c-4.93,4.23.97,18.6,7.72,15.18,8.51-4.31.5-13.59.5-13.59,0,0,4.51,9.7-.5,11.63-8.33,3.19-8.93-18.95,0-12.02Z"/>
                <path class="cls-9" d="M532.21,239.49s.14,6.26,5.68,6.11c6.15-.16,8.6-15.8,1.38-17.51-9.11-2.16-7.27,10.74-7.27,10.74,0,0,1.23-10.91,6.28-9.13,8.4,2.95-2.3,21.39-6.07,9.79Z"/>
                <path class="cls-9" d="M405.09,341.08s1.84,25.41,17.12,17.53c1.15-.6,1.97-1.72,2.59-2.99,6.38-13.2-7.16-11.07-7.16-11.07,0,0,6.42-2.33,9.52,2.31,2.33,3.48-.24,9.16-3.42,11.83-5.19,4.36-12.53,2.43-15.86-3.89-1.8-3.4-3.7-8.5-2.79-13.73Z"/>
                <path class="cls-9" d="M412.85,271.25s-7.05-11.78-15.7-5.77c-6.76,7.25,11.24,18.18,15.7,9.63-1.2,3.03-8.81,4.32-14.62-2.08-2.07-2.28-1.65-6.29.87-7.86,1.78-1.11,4.29-1.25,7.16.51,5.44,3.33,6.6,5.57,6.6,5.57Z"/>
                <path class="cls-9" d="M565.75,265.51s-7.05-11.78-15.7-5.77c-6.76,7.25,11.24,18.18,15.7,9.63-1.2,3.03-8.81,4.32-14.62-2.08-2.07-2.28-1.65-6.29.87-7.86,1.78-1.11,4.29-1.25,7.16.51,5.44,3.33,6.6,5.57,6.6,5.57Z"/>
                <path class="cls-9" d="M447.96,258.99s-12.02,3.71-9.97,15.09c3.7,9.74,18.66-6.12,13.14-13.8,2.09,2.31.61,10.98-6.58,15.14-2.56,1.48-5.71-.3-6.16-3.55-.32-2.3.4-5.06,2.8-7.59,4.55-4.78,6.77-5.29,6.77-5.29Z"/>
                <path class="cls-9" d="M525.7,263.89s10.89,6.92,16.29-2.9c3.23-9.96-17.13-10.49-17.8-.55-.11-3.32,6.2-8.38,13.89-5.65,2.74.97,3.93,4.78,2.28,7.47-1.16,1.91-3.35,3.33-6.6,3.23-6.16-.19-8.07-1.59-8.07-1.59Z"/>
                <path class="cls-9" d="M488.31,334.02s-3.67-11.18,5.84-19.18c9.51-7.99,5.8-19.13,1.07-21.12,6.86-1.72,9.14,14.9,3.21,20.15-16.07,14.19-6.17,28.04-6.17,28.04l-3.95-7.89Z"/>
                <path class="cls-9" d="M476.74,335.8s-15.87-3.88-12.03-20.96c-6.31,2.08-7.15,20.31,10.2,23.69l1.83-2.73Z"/>
                <g>
                  <path class="cls-9" d="M547.04,307.45c6.91-10.11,13.6,7.12,8.77,11.82-4.97,4.84-7.61,1.43-8.79-1.26-.26-.24-.47-.52-.65-.83,1.02,3.87,6.13,11.18,10.99.18,3.78-8.57-5.81-19.78-10.32-9.92Z"/>
                  <path class="cls-9" d="M548.37,321.3s-2.48-9.55-11.98-8.8c-10.45.83-13.52,7.46-11.23,12.46,2.42,5.31,16.37,6.13,19.43-5.35-2.37,4.3-7.72,9.1-14.75,7.34-4.73-1.18-5.47-7.9-1.36-10.84,7.2-5.15,16.43-3.47,19.89,5.18Z"/>
                </g>
                <path class="cls-9" d="M435.9,261.27c-.86-.11-4.28,3.51-.09,5.37,2.77,1.23,6.24-4.36,2.64-5.8,3.41,2.74-1.28,6.55-3.39,4.75-2.23-2.47.84-4.32.84-4.32Z"/>
              </g>
            </g>
          </g>
          <g>
            <g>
              <g>
                <path class="cls-30" d="M644.37,560.78c.08,0,.15-.04.19-.11,1.09-1.96,1.09-4.2.02-6.16-.05-.09-.18-.13-.29-.09-.11.04-.15.15-.1.24,1.02,1.86,1.01,4-.02,5.86-.05.09,0,.2.1.24.03.01.06.02.1.02Z"/>
                <path class="cls-30" d="M646.63,558.86s.09-.01.12-.04c.09-.06.11-.17.04-.25-1.53-1.73-3.86-2.79-6.4-2.9-.12,0-.22.07-.23.17,0,.1.09.19.2.19,2.41.11,4.63,1.11,6.08,2.75.04.05.11.07.18.07Z"/>
                <path class="cls-30" d="M638.91,563.12c.1,0,.19-.07.21-.16.35-2.14-.44-4.29-2.15-5.89-.08-.07-.22-.08-.3-.01-.09.07-.09.18-.01.26,1.63,1.52,2.37,3.55,2.04,5.59-.02.1.07.19.18.21.01,0,.02,0,.03,0Z"/>
                <path class="cls-30" d="M640.39,560.72c.07,0,.13-.03.17-.08.07-.08.05-.2-.05-.25-2.07-1.26-4.66-1.68-7.12-1.14-.11.03-.18.12-.15.22.03.1.15.15.26.13,2.34-.51,4.8-.12,6.76,1.08.04.02.09.04.13.04Z"/>
                <g>
                  <path class="cls-30" d="M641.85,555.81c-.05.02-.12.03-.18,0-.07-.02-.12-.08-.13-.14-.34-1.86-.13-5.04,1.43-5.95.41-.24,1.09-.42,2.07.07.61.3.94.72.98,1.23.15,1.93-3.96,4.64-4.13,4.76-.01,0-.02.01-.04.02ZM643.37,549.95c-.05.02-.1.05-.15.08-1.17.68-1.59,3.2-1.3,5.27.93-.66,3.78-2.78,3.67-4.25-.03-.4-.28-.7-.76-.94-.57-.28-1.04-.33-1.46-.16Z"/>
                  <path class="cls-30" d="M641.85,555.81c-2.18.5-5.92.65-7.14-.56-.32-.32-.6-.88-.14-1.76.29-.55.74-.87,1.34-.96,2.24-.33,5.85,2.85,6,2.99.05.05.07.11.05.18-.02.05-.06.09-.11.11ZM635.64,552.99c-.28.12-.51.33-.67.65-.3.57-.28,1.02.07,1.37.92.91,3.91,1.01,6.3.54-.87-.72-3.66-2.9-5.35-2.66-.13.02-.24.05-.35.1Z"/>
                </g>
              </g>
              <polygon class="cls-58" points="644.96 488.8 647.36 557.58 629.46 564.89 617.64 487.14 644.96 488.8"/>
              <g>
                <path class="cls-58" d="M647.07,554.98s.27,5.03,1.36,9.49c1.15,4.7,3.06,8.86.23,10.33h-32.86c-1.31,0-2.31-1.18-2.1-2.48.46-2.82,3.19-7.1,15.36-7.43,6.24-9.91,18.01-9.91,18.01-9.91Z"/>
                <g>
                  <path class="cls-42" d="M607.79,575.67c.05,0,40.62-.81,40.62-.81,1.38-.03,2.4-1.3,2.13-2.65l-1.65-8.36-.52-2.66-11.91.9s-2.71-3.43-7.62-4.45c-13.89.27-19.86,7.52-22.36,12.77-.46.96-.8,1.86-1.06,2.63-.44,1.33.75,2.64,2.36,2.64Z"/>
                  <path class="cls-30" d="M637.69,565.46c.14-.01.22-.11.21-.21-.83-5.49-8.83-7.77-8.91-7.8-.11-.03-.23.02-.27.12-.04.1.03.2.14.23.08.02,7.83,2.24,8.62,7.5.01.09.11.16.22.16Z"/>
                  <path class="cls-30" d="M623.09,564.33c.08,0,.15-.04.19-.1,1.08-1.96,1.09-4.2.02-6.17-.05-.09-.18-.13-.29-.09-.11.04-.15.15-.1.24,1.02,1.86,1.01,4-.02,5.86-.05.09,0,.2.1.24.03.01.06.02.1.02Z"/>
                  <path class="cls-30" d="M625.35,562.42s.09-.01.12-.04c.09-.06.11-.18.04-.26-1.53-1.73-3.86-2.79-6.4-2.9-.12,0-.22.07-.22.17,0,.1.08.19.2.19,2.41.11,4.63,1.11,6.08,2.75.04.05.11.07.18.07Z"/>
                  <path class="cls-30" d="M617.62,566.68c.1,0,.19-.07.21-.16.35-2.14-.44-4.29-2.15-5.89-.08-.07-.22-.08-.3-.01s-.09.18-.01.26c1.63,1.52,2.37,3.55,2.04,5.59-.02.1.07.19.18.21.01,0,.02,0,.03,0Z"/>
                  <path class="cls-30" d="M619.11,564.28c.07,0,.13-.03.17-.08.07-.08.05-.2-.05-.26-2.07-1.26-4.66-1.68-7.12-1.14-.11.03-.18.12-.15.22.03.1.15.15.26.13,2.34-.51,4.8-.12,6.77,1.08.04.03.08.04.13.03Z"/>
                  <g>
                    <path class="cls-30" d="M620.57,559.37c-.05.02-.12.03-.18,0-.07-.02-.12-.08-.13-.14-.34-1.86-.13-5.04,1.43-5.95.41-.24,1.1-.42,2.07.07.61.3.94.72.98,1.23.15,1.93-3.96,4.65-4.13,4.76-.01,0-.02.01-.04.02ZM622.09,553.51c-.05.02-.1.05-.15.07-1.17.68-1.59,3.2-1.3,5.27.94-.66,3.78-2.78,3.67-4.25-.03-.4-.28-.7-.76-.94-.57-.28-1.05-.33-1.46-.16Z"/>
                    <path class="cls-30" d="M620.57,559.37c-2.18.5-5.92.65-7.14-.56-.32-.32-.6-.88-.14-1.76.29-.55.74-.87,1.34-.96,2.24-.33,5.85,2.85,6,2.99.05.05.07.11.05.18-.02.05-.06.09-.11.11ZM614.35,556.55c-.29.12-.51.33-.67.65-.3.57-.28,1.02.08,1.37.92.92,3.91,1.01,6.3.54-.87-.72-3.66-2.9-5.35-2.66-.12.02-.24.05-.35.1Z"/>
                  </g>
                </g>
              </g>
            </g>
            <g>
              <g>
                <path class="cls-30" d="M644.37,560.78c.08,0,.15-.04.19-.11,1.09-1.96,1.09-4.2.02-6.16-.05-.09-.18-.13-.29-.09-.11.04-.15.15-.1.24,1.02,1.86,1.01,4-.02,5.86-.05.09,0,.2.1.24.03.01.06.02.1.02Z"/>
                <path class="cls-30" d="M646.63,558.86s.09-.01.12-.04c.09-.06.11-.17.04-.25-1.53-1.73-3.86-2.79-6.4-2.9-.12,0-.22.07-.23.17,0,.1.09.19.2.19,2.41.11,4.63,1.11,6.08,2.75.04.05.11.07.18.07Z"/>
                <path class="cls-30" d="M638.91,563.12c.1,0,.19-.07.21-.16.35-2.14-.44-4.29-2.15-5.89-.08-.07-.22-.08-.3-.01-.09.07-.09.18-.01.26,1.63,1.52,2.37,3.55,2.04,5.59-.02.1.07.19.18.21.01,0,.02,0,.03,0Z"/>
                <path class="cls-30" d="M640.39,560.72c.07,0,.13-.03.17-.08.07-.08.05-.2-.05-.25-2.07-1.26-4.66-1.68-7.12-1.14-.11.03-.18.12-.15.22.03.1.15.15.26.13,2.34-.51,4.8-.12,6.76,1.08.04.02.09.04.13.04Z"/>
                <g>
                  <path class="cls-30" d="M641.85,555.81c-.05.02-.12.03-.18,0-.07-.02-.12-.08-.13-.14-.34-1.86-.13-5.04,1.43-5.95.41-.24,1.09-.42,2.07.07.61.3.94.72.98,1.23.15,1.93-3.96,4.64-4.13,4.76-.01,0-.02.01-.04.02ZM643.37,549.95c-.05.02-.1.05-.15.08-1.17.68-1.59,3.2-1.3,5.27.93-.66,3.78-2.78,3.67-4.25-.03-.4-.28-.7-.76-.94-.57-.28-1.04-.33-1.46-.16Z"/>
                  <path class="cls-30" d="M641.85,555.81c-2.18.5-5.92.65-7.14-.56-.32-.32-.6-.88-.14-1.76.29-.55.74-.87,1.34-.96,2.24-.33,5.85,2.85,6,2.99.05.05.07.11.05.18-.02.05-.06.09-.11.11ZM635.64,552.99c-.28.12-.51.33-.67.65-.3.57-.28,1.02.07,1.37.92.91,3.91,1.01,6.3.54-.87-.72-3.66-2.9-5.35-2.66-.13.02-.24.05-.35.1Z"/>
                </g>
              </g>
              <polygon class="cls-58" points="644.96 488.8 647.36 557.58 629.46 564.89 617.64 487.14 644.96 488.8"/>
              <g>
                <path class="cls-58" d="M647.07,554.98s.27,5.03,1.36,9.49c1.15,4.7,3.06,8.86.23,10.33h-32.86c-1.31,0-2.31-1.18-2.1-2.48.46-2.82,3.19-7.1,15.36-7.43,6.24-9.91,18.01-9.91,18.01-9.91Z"/>
                <g>
                  <path class="cls-42" d="M607.79,575.67c.05,0,40.62-.81,40.62-.81,1.38-.03,2.4-1.3,2.13-2.65l-1.65-8.36-.52-2.66-11.91.9s-2.71-3.43-7.62-4.45c-13.89.27-19.86,7.52-22.36,12.77-.46.96-.8,1.86-1.06,2.63-.44,1.33.75,2.64,2.36,2.64Z"/>
                  <path class="cls-30" d="M637.69,565.46c.14-.01.22-.11.21-.21-.83-5.49-8.83-7.77-8.91-7.8-.11-.03-.23.02-.27.12-.04.1.03.2.14.23.08.02,7.83,2.24,8.62,7.5.01.09.11.16.22.16Z"/>
                  <path class="cls-30" d="M623.09,564.33c.08,0,.15-.04.19-.1,1.08-1.96,1.09-4.2.02-6.17-.05-.09-.18-.13-.29-.09-.11.04-.15.15-.1.24,1.02,1.86,1.01,4-.02,5.86-.05.09,0,.2.1.24.03.01.06.02.1.02Z"/>
                  <path class="cls-30" d="M625.35,562.42s.09-.01.12-.04c.09-.06.11-.18.04-.26-1.53-1.73-3.86-2.79-6.4-2.9-.12,0-.22.07-.22.17,0,.1.08.19.2.19,2.41.11,4.63,1.11,6.08,2.75.04.05.11.07.18.07Z"/>
                  <path class="cls-30" d="M617.62,566.68c.1,0,.19-.07.21-.16.35-2.14-.44-4.29-2.15-5.89-.08-.07-.22-.08-.3-.01s-.09.18-.01.26c1.63,1.52,2.37,3.55,2.04,5.59-.02.1.07.19.18.21.01,0,.02,0,.03,0Z"/>
                  <path class="cls-30" d="M619.11,564.28c.07,0,.13-.03.17-.08.07-.08.05-.2-.05-.26-2.07-1.26-4.66-1.68-7.12-1.14-.11.03-.18.12-.15.22.03.1.15.15.26.13,2.34-.51,4.8-.12,6.77,1.08.04.03.08.04.13.03Z"/>
                  <g>
                    <path class="cls-30" d="M620.57,559.37c-.05.02-.12.03-.18,0-.07-.02-.12-.08-.13-.14-.34-1.86-.13-5.04,1.43-5.95.41-.24,1.1-.42,2.07.07.61.3.94.72.98,1.23.15,1.93-3.96,4.65-4.13,4.76-.01,0-.02.01-.04.02ZM622.09,553.51c-.05.02-.1.05-.15.07-1.17.68-1.59,3.2-1.3,5.27.94-.66,3.78-2.78,3.67-4.25-.03-.4-.28-.7-.76-.94-.57-.28-1.05-.33-1.46-.16Z"/>
                    <path class="cls-30" d="M620.57,559.37c-2.18.5-5.92.65-7.14-.56-.32-.32-.6-.88-.14-1.76.29-.55.74-.87,1.34-.96,2.24-.33,5.85,2.85,6,2.99.05.05.07.11.05.18-.02.05-.06.09-.11.11ZM614.35,556.55c-.29.12-.51.33-.67.65-.3.57-.28,1.02.08,1.37.92.92,3.91,1.01,6.3.54-.87-.72-3.66-2.9-5.35-2.66-.12.02-.24.05-.35.1Z"/>
                  </g>
                </g>
              </g>
            </g>
            <g>
              <g>
                <g>
                  <g>
                    <path class="cls-30" d="M671.58,556.18c.08-.02.14-.08.16-.15.53-2.17-.06-4.34-1.62-5.95-.07-.07-.21-.08-.3,0-.09.07-.11.19-.04.26,1.48,1.53,2.03,3.58,1.53,5.65-.02.1.05.19.16.21.03,0,.07,0,.1,0Z"/>
                    <path class="cls-30" d="M673.26,553.74s.08-.04.11-.07c.07-.08.06-.2-.03-.26-1.93-1.26-4.46-1.66-6.94-1.1-.12.03-.19.13-.17.23.02.1.13.16.25.13,2.35-.54,4.75-.16,6.59,1.04.05.04.13.04.19.02Z"/>
                    <path class="cls-30" d="M666.94,559.89c.1-.03.17-.12.16-.21-.23-2.16-1.56-4.02-3.63-5.11-.1-.05-.23-.02-.3.07-.07.09-.04.2.05.25,1.97,1.03,3.23,2.8,3.45,4.85.01.1.11.17.23.15.01,0,.02,0,.03,0Z"/>
                    <path class="cls-30" d="M667.73,557.18c.06-.02.12-.06.14-.12.05-.1,0-.2-.11-.23-2.33-.67-4.94-.38-7.17.79-.1.05-.15.17-.09.25.05.09.18.11.29.06,2.12-1.11,4.6-1.39,6.81-.75.04.01.09.01.13,0Z"/>
                    <g>
                      <path class="cls-30" d="M667.84,552.06s-.11.06-.17.05c-.07,0-.14-.04-.17-.1-.82-1.71-1.46-4.83-.2-6.11.33-.33.95-.69,2.01-.48.67.13,1.09.44,1.27.93.65,1.83-2.58,5.53-2.72,5.68,0,0-.02.02-.03.03ZM667.75,546.02s-.09.07-.13.11c-.95.96-.69,3.51.15,5.43.73-.88,2.91-3.69,2.42-5.07-.13-.37-.46-.6-.99-.71-.62-.12-1.1-.04-1.45.23Z"/>
                      <path class="cls-30" d="M667.84,552.06c-1.97,1.06-5.54,2.2-7.04,1.35-.39-.22-.81-.69-.6-1.66.13-.6.48-1.03,1.04-1.28,2.08-.91,6.4,1.2,6.58,1.29.06.03.1.09.1.15,0,.05-.03.1-.08.14ZM661.1,550.99c-.24.19-.4.46-.48.81-.14.63,0,1.06.44,1.3,1.13.64,4.04-.06,6.22-1.15-1.03-.47-4.29-1.83-5.87-1.14-.12.05-.22.11-.31.18Z"/>
                    </g>
                  </g>
                  <polygon class="cls-53" points="661.09 484.29 673.62 552.31 658.3 564.1 636.96 487.14 661.09 484.29"/>
                  <g>
                    <path class="cls-53" d="M655.78,575.07h-10.73c-.13-2.88,1.71-7.47,12.87-10.86,3.4-11.21,14.74-14.33,14.74-14.33,0,0,1.59,4.78,3.83,8.79,2.35,4.22,5.3,7.73,2.96,9.9l-23.67,6.5Z"/>
                    <g>
                      <path class="cls-22" d="M679.21,568.69l-21.54,6.38h-19.99c1.14-5.71,5.1-13.96,18.09-17.81,5.01-.32,8.53,2.27,8.53,2.27l11.24-4.02,1.21,2.42,3.8,7.63c.62,1.23-.03,2.73-1.36,3.12Z"/>
                      <path class="cls-30" d="M666.39,562.47c.13-.05.19-.16.15-.25-2.25-5.08-10.58-5.16-10.66-5.16-.12,0-.22.08-.23.18,0,.1.08.18.19.18.08,0,8.14.08,10.3,4.94.04.09.15.13.25.1Z"/>
                      <path class="cls-30" d="M652,565.26c.08-.02.14-.08.16-.15.53-2.17-.06-4.34-1.61-5.95-.07-.07-.21-.08-.3,0-.09.07-.11.19-.04.26,1.47,1.53,2.03,3.58,1.53,5.65-.02.1.05.19.16.21.03,0,.07,0,.1,0Z"/>
                      <path class="cls-30" d="M653.68,562.81s.08-.04.11-.07c.07-.08.06-.2-.03-.26-1.93-1.27-4.46-1.66-6.94-1.1-.12.03-.19.13-.17.23.02.1.13.16.25.13,2.35-.54,4.75-.16,6.59,1.04.05.04.12.04.19.02Z"/>
                      <path class="cls-30" d="M647.36,568.96c.1-.03.17-.12.16-.21-.24-2.16-1.56-4.02-3.63-5.11-.1-.05-.23-.02-.3.07-.07.09-.04.2.05.25,1.97,1.03,3.23,2.8,3.45,4.85.01.1.11.17.23.15.01,0,.02,0,.03,0Z"/>
                      <path class="cls-30" d="M648.15,566.25c.06-.02.12-.06.14-.12.04-.1,0-.2-.11-.23-2.33-.67-4.94-.38-7.17.79-.1.05-.14.17-.09.25s.18.11.29.06c2.12-1.11,4.6-1.39,6.81-.75.04.01.09.01.13,0Z"/>
                      <g>
                        <path class="cls-30" d="M648.26,561.13s-.11.06-.17.05c-.07,0-.14-.04-.17-.1-.82-1.71-1.46-4.83-.2-6.11.33-.33.95-.69,2.01-.48.67.13,1.09.44,1.27.93.65,1.83-2.58,5.53-2.72,5.68,0,0-.02.02-.03.03ZM648.17,555.09s-.09.07-.13.11c-.95.96-.69,3.51.15,5.43.73-.88,2.91-3.69,2.42-5.07-.13-.37-.46-.6-.99-.71-.62-.12-1.1-.04-1.45.23Z"/>
                        <path class="cls-30" d="M648.26,561.13c-1.97,1.06-5.54,2.2-7.04,1.35-.39-.22-.81-.69-.6-1.66.13-.61.48-1.03,1.04-1.28,2.08-.91,6.4,1.2,6.58,1.29.06.03.1.09.1.16,0,.05-.03.1-.08.14ZM641.52,560.06c-.24.19-.4.46-.48.81-.14.63,0,1.06.44,1.3,1.13.64,4.04-.06,6.22-1.15-1.03-.47-4.29-1.83-5.87-1.14-.12.05-.22.11-.31.18Z"/>
                      </g>
                    </g>
                  </g>
                </g>
                <g>
                  <g>
                    <path class="cls-30" d="M644.37,560.78c.08,0,.15-.04.19-.11,1.09-1.96,1.09-4.2.02-6.16-.05-.09-.18-.13-.29-.09-.11.04-.15.15-.1.24,1.02,1.86,1.01,4-.02,5.86-.05.09,0,.2.1.24.03.01.06.02.1.02Z"/>
                    <path class="cls-30" d="M646.63,558.86s.09-.01.12-.04c.09-.06.11-.17.04-.25-1.53-1.73-3.86-2.79-6.4-2.9-.12,0-.22.07-.23.17,0,.1.09.19.2.19,2.41.11,4.63,1.11,6.08,2.75.04.05.11.07.18.07Z"/>
                    <path class="cls-30" d="M638.91,563.12c.1,0,.19-.07.21-.16.35-2.14-.44-4.29-2.15-5.89-.08-.07-.22-.08-.3-.01-.09.07-.09.18-.01.26,1.63,1.52,2.37,3.55,2.04,5.59-.02.1.07.19.18.21.01,0,.02,0,.03,0Z"/>
                    <path class="cls-30" d="M640.39,560.72c.07,0,.13-.03.17-.08.07-.08.05-.2-.05-.25-2.07-1.26-4.66-1.68-7.12-1.14-.11.03-.18.12-.15.22.03.1.15.15.26.13,2.34-.51,4.8-.12,6.76,1.08.04.02.09.04.13.04Z"/>
                    <g>
                      <path class="cls-30" d="M641.85,555.81c-.05.02-.12.03-.18,0-.07-.02-.12-.08-.13-.14-.34-1.86-.13-5.04,1.43-5.95.41-.24,1.09-.42,2.07.07.61.3.94.72.98,1.23.15,1.93-3.96,4.64-4.13,4.76-.01,0-.02.01-.04.02ZM643.37,549.95c-.05.02-.1.05-.15.08-1.17.68-1.59,3.2-1.3,5.27.93-.66,3.78-2.78,3.67-4.25-.03-.4-.28-.7-.76-.94-.57-.28-1.04-.33-1.46-.16Z"/>
                      <path class="cls-30" d="M641.85,555.81c-2.18.5-5.92.65-7.14-.56-.32-.32-.6-.88-.14-1.76.29-.55.74-.87,1.34-.96,2.24-.33,5.85,2.85,6,2.99.05.05.07.11.05.18-.02.05-.06.09-.11.11ZM635.64,552.99c-.28.12-.51.33-.67.65-.3.57-.28,1.02.07,1.37.92.91,3.91,1.01,6.3.54-.87-.72-3.66-2.9-5.35-2.66-.13.02-.24.05-.35.1Z"/>
                    </g>
                  </g>
                  <polygon class="cls-53" points="644.96 488.8 647.36 557.58 629.46 564.89 617.64 487.14 644.96 488.8"/>
                  <g>
                    <path class="cls-53" d="M647.07,554.98s.27,5.03,1.36,9.49c1.15,4.7,3.06,8.86.23,10.33h-32.86c-1.31,0-2.31-1.18-2.1-2.48.46-2.82,3.19-7.1,15.36-7.43,6.24-9.91,18.01-9.91,18.01-9.91Z"/>
                    <g>
                      <path class="cls-59" d="M607.79,575.67c.05,0,40.62-.81,40.62-.81,1.38-.03,2.4-1.3,2.13-2.65l-1.65-8.36-.52-2.66-11.91.9s-2.71-3.43-7.62-4.45c-13.89.27-19.86,7.52-22.36,12.77-.46.96-.8,1.86-1.06,2.63-.44,1.33.75,2.64,2.36,2.64Z"/>
                      <path class="cls-30" d="M637.69,565.46c.14-.01.22-.11.21-.21-.83-5.49-8.83-7.77-8.91-7.8-.11-.03-.23.02-.27.12-.04.1.03.2.14.23.08.02,7.83,2.24,8.62,7.5.01.09.11.16.22.16Z"/>
                      <path class="cls-30" d="M623.09,564.33c.08,0,.15-.04.19-.1,1.08-1.96,1.09-4.2.02-6.17-.05-.09-.18-.13-.29-.09-.11.04-.15.15-.1.24,1.02,1.86,1.01,4-.02,5.86-.05.09,0,.2.1.24.03.01.06.02.1.02Z"/>
                      <path class="cls-30" d="M625.35,562.42s.09-.01.12-.04c.09-.06.11-.18.04-.26-1.53-1.73-3.86-2.79-6.4-2.9-.12,0-.22.07-.22.17,0,.1.08.19.2.19,2.41.11,4.63,1.11,6.08,2.75.04.05.11.07.18.07Z"/>
                      <path class="cls-30" d="M617.62,566.68c.1,0,.19-.07.21-.16.35-2.14-.44-4.29-2.15-5.89-.08-.07-.22-.08-.3-.01s-.09.18-.01.26c1.63,1.52,2.37,3.55,2.04,5.59-.02.1.07.19.18.21.01,0,.02,0,.03,0Z"/>
                      <path class="cls-30" d="M619.11,564.28c.07,0,.13-.03.17-.08.07-.08.05-.2-.05-.26-2.07-1.26-4.66-1.68-7.12-1.14-.11.03-.18.12-.15.22.03.1.15.15.26.13,2.34-.51,4.8-.12,6.77,1.08.04.03.08.04.13.03Z"/>
                      <g>
                        <path class="cls-30" d="M620.57,559.37c-.05.02-.12.03-.18,0-.07-.02-.12-.08-.13-.14-.34-1.86-.13-5.04,1.43-5.95.41-.24,1.1-.42,2.07.07.61.3.94.72.98,1.23.15,1.93-3.96,4.65-4.13,4.76-.01,0-.02.01-.04.02ZM622.09,553.51c-.05.02-.1.05-.15.07-1.17.68-1.59,3.2-1.3,5.27.94-.66,3.78-2.78,3.67-4.25-.03-.4-.28-.7-.76-.94-.57-.28-1.05-.33-1.46-.16Z"/>
                        <path class="cls-30" d="M620.57,559.37c-2.18.5-5.92.65-7.14-.56-.32-.32-.6-.88-.14-1.76.29-.55.74-.87,1.34-.96,2.24-.33,5.85,2.85,6,2.99.05.05.07.11.05.18-.02.05-.06.09-.11.11ZM614.35,556.55c-.29.12-.51.33-.67.65-.3.57-.28,1.02.08,1.37.92.92,3.91,1.01,6.3.54-.87-.72-3.66-2.9-5.35-2.66-.12.02-.24.05-.35.1Z"/>
                      </g>
                    </g>
                  </g>
                </g>
                <path class="cls-57" d="M648.98,495.88l14.95-.4-16.76-24.93-4.39-65.31h-30.24l-1.91,32.76c-1.07,18.42-7.73,36.07-2.11,53.64l5.49,1.14c11.5,2.38,23.23,3.42,34.97,3.11Z"/>
                <path class="cls-57" d="M622.12,453.02c-2.48,11.04-3.94,24.99-4.78,38.78,20.62,3.25,43.55,4.62,58.72,0,0,0-8.16-18.53-6.31-41.08,2.59-31.52-3.65-44.78-3.65-44.78h-49.57s.03.07.1.2c7.06,14.56,9.04,31.09,5.49,46.88Z"/>
                <g>
                  <path class="cls-24" d="M633.01,281.01s25.54-15.04,31.88,14c3.54,16.21-40.94,12.74-34.78-2.71,1.41-3.53,2.29-7.31,2.9-11.3Z"/>
                  <g>
                    <path class="cls-53" d="M561.62,361.11c.97,4.79,4.12,8,6.55,9.84,1.61,1.22,2.9,1.82,3.03,1.88.08.04.16.07.25.09,2.74,1.31,6.91,2.39,11.32-.06,1.41-.78,2.03-1.69,2.14-2.63.26-.39.38-.87.3-1.38-1.3-7.99-8.83-11.97-9.15-12.13-.57-.29-1.21-.28-1.73,0-.34.18-.63.47-.81.84-.46.95-.21,1.21.88,2.6.02.02.2.22.51.6-1.52-1.35-2.93-3.13-3.67-5.44-.33-1.02-.51-2.26-1.56-2.27-.31,0-.61.07-.87.21-.41.21-.72.58-.88,1.02-.21-.72-.78-1.32-1.5-1.48-.39-.09-.75-.03-1.06.13-.46.24-.79.72-.85,1.34-.04.41-.05.81-.04,1.2-.2-.2-.45-.31-.79-.25-.2.03-.38.1-.55.18-.71.37-1.13,1.19-.97,2.04.1.56.23,1.1.37,1.61-.69.4-1.08,1.22-.91,2.06ZM571.15,368.62c-.06-.03-.12-.06-.18-.09.07.03.13.05.2.07l-.02.02Z"/>
                    <path class="cls-18" d="M608.61,364.8c-.92,2.06,3.3,5.32,8.88,7.83,5.58,2.51,11.09,3.49,12.01,1.44.92-2.06-3.08-6.37-8.67-8.88-5.58-2.51-11.31-2.44-12.23-.38Z"/>
                    <path class="cls-53" d="M634.33,336.23c-4.97-2.52-11.01.02-12.74,5.31-2.81,8.56-6.21,17.78-9.72,24.66-4.46,8.75,1.13-2.22-1.12,2.2-.49.96,0,.02-.02.05-.36.75-.69,1.38-1.36,1.95-.67.57-1.45.93-2.31,1.19-.43.13-.93.15-1.39.19-.04,0-.12,0-.18,0-.15,0-.4,0-.56-.02-.14,0-.25-.02-.4-.04-.05,0-.12-.01-.19-.03-.07-.01.13.04-.08-.02-.21-.05.59.14-.22-.05-.81-.19,1.13.29-.84-.2-1.97-.48-1.59-.37-6.3-1.66-4.71-1.3-14.2-6.04-20.1-8.23-3.38-1.26-7.11.11-8.52,3.57-1.36,3.33.11,6.31,3.31,8.1,5.89,3.29,16.33,8.31,21.28,10.23,4.95,1.92,4.85,1.57,6.95,2.29,2.1.72.03,0,.9.28.88.29,0,0,.23.07.22.07.05,0,.21.05.16.05.4.1.55.13.41.09.78.17,1.18.24.4.07.77.12,1.19.17.16.02.4.04.58.05.17,0,.43.04.58.04,1.62-.02,3.17.04,4.76-.32,3.18-.71,6.03-1.83,8.77-3.64,1.37-.91,2.54-2.1,3.65-3.35,1.11-1.25,1.94-2.78,2.74-4.25-.09.18-.28.46-.28.61,5.92-9.69,10.41-19.76,14.73-29.96,1.25-2.99.14-6.38-2.55-8.08-.95-.6-1.85-1.12-2.72-1.56Z"/>
                    <path class="cls-43" d="M629.31,374.36c-2.28-6.01-13.44-14.48-20.35-9.91,8.16-21.53,17.18-40.3,23.15-42.01,1.34,1.59,2.46,2.86,3.97,4.59,2.26,5.06,11.05,7.14-6.77,47.34Z"/>
                    <path class="cls-43" d="M640.4,345.85l-11.04,28.54s-2.79-6.88-11.28-10.18c-6.79-2.54-9.48.6-9.48.6l13.05-29.37,18.74,10.41Z"/>
                  </g>
                  <g>
                    <g>
                      <path class="cls-43" d="M604.97,411.27c10.49-27.13,15.07-90.56,32.98-91.04,4.78-.13,8.99.31,12.65.96,6.13,1.09,17.16,12.16,18.61,18.22,2.23,9.3-4.45,12.86-2.47,33.78l4.8,40.64c-11.9,4.37-24.77,5.42-37.22,3.04l-29.33-5.59Z"/>
                      <path class="cls-43" d="M640.86,328.29c6.76,0,9.05-7.12,9.08-7.19.04-.12-.03-.25-.15-.29-.12-.04-.25.03-.29.15-.02.07-2.38,7.37-9.37,6.84-6.11-.47-7.49-5.4-7.55-5.61-.03-.12-.16-.2-.28-.16-.12.03-.2.16-.17.28.01.06,1.51,5.46,7.96,5.95.26.02.52.03.77.03Z"/>
                    </g>
                    <g>
                      <g>
                        <path class="cls-24" d="M659.29,295.2c1.03,8.46-1.94,16.96-18.77,21.26-1.4.36-3.76.74-5.05.09-6.05-3.06-3.6-12.94,3.15-19.72,7.6-7.63,19.24-13.31,20.66-1.63Z"/>
                        <path class="cls-44" d="M641.94,309.82s-13.35,1.84-16.42-16.46c-.29-1.76-.13-3.78.59-5.74,3.35-9.11,17.76-10.01,27.22-1.94,9.07,7.73,1.75,24.56-11.39,24.14Z"/>
                        <g>
                          <path class="cls-53" d="M641.99,327.18c4.4-.7,7.39-4.84,6.69-9.23l-3.04-19.04-15.92,2.54,1.77,11.11,1.22,7.66.04.26c.7,4.4,4.83,7.4,9.23,6.69Z"/>
                          <polygon class="cls-26" points="633.19 322.44 642.18 310.42 631.75 313.69 633.19 322.44"/>
                        </g>
                        <path class="cls-53" d="M649.21,306.67s-11.05,13.71-21.23,8.53c-10.18-5.17-1.38-26.14,2.19-29.75,3.57-3.61,17.28-3.76,21.79,7.64,2.57,6.49-2.76,13.58-2.76,13.58Z"/>
                        <g>
                          <g>
                            <path class="cls-44" d="M626.47,288.26c.67,1.73,3.5,1,6.35-.11,2.85-1.11,4.64-2.19,3.96-3.92s-3.53-2.23-6.38-1.11c-2.85,1.11-4.61,3.41-3.93,5.14Z"/>
                            <path class="cls-24" d="M627.04,290.29c4.8-2.82,5.38,2,10.3.08,4.92-1.92,8.29-5.07,7.52-7.04-.77-1.97-5.38-2-10.3-.08-4.92,1.92-8.28,5.07-7.52,7.04Z"/>
                            <g>
                              <path class="cls-24" d="M647.91,310.13s-2.19-4.78.91-9.83c.3-.49.72-.88,1.21-1.07,2.29-.9,4.01,2.93,3.88,7.1-.15,4.7-4.05,8.25-5.99,3.8Z"/>
                              <path class="cls-24" d="M649.58,304.12s-12.69-.34-18.15-14.94c-.52-1.4-.67-3.04-.3-4.64,1.73-7.48,13.55-9.3,21.83-4.02,9.32,5.94,8.68,23.39-3.38,23.6Z"/>
                            </g>
                          </g>
                          <g>
                            <path class="cls-53" d="M646.24,304.24c1.71-.86,4.99-.56,4.68,2.39-.34,3.21-5.09,2.68-6.56,2.43l1.88-4.82Z"/>
                            <path class="cls-26" d="M646.36,306.21c.08.04.18.02.25-.04,1.49-1.32,2.84-.02,2.9.04.09.09.24.09.33,0,.09-.09.09-.24,0-.33-.02-.02-1.72-1.66-3.53-.05-.1.08-.1.23-.02.32.02.03.05.04.08.06Z"/>
                          </g>
                        </g>
                      </g>
                      <g>
                        <path class="cls-26" d="M626.94,304.14c-.5-.18-1.81-.76-1.42-1.97.35-1.09,1.43-1.23,2.03-1.15l1.84-2.84c.06-.09.16-.12.23-.07.07.05.09.16.03.25l-1.91,2.95c-.04.07-.12.1-.18.09-.06-.01-1.37-.26-1.73.85-.36,1.11,1.4,1.6,1.42,1.6.08.02.13.12.09.22-.03.1-.13.16-.22.13-.01,0-.08-.02-.19-.06Z"/>
                        <path class="cls-26" d="M627.71,297.62c-.07,1.11-1.67,1.25-1.6.14.07-1.09,1.67-1.28,1.6-.14Z"/>
                        <path class="cls-26" d="M633.27,298.94c-.07,1.11-1.67,1.25-1.6.14.07-1.09,1.67-1.28,1.6-.14Z"/>
                        <path class="cls-61" d="M633.1,302.63c-.22.53-.02,1.08.44,1.25.46.16,1-.14,1.22-.66.22-.53.02-1.08-.44-1.24-.46-.16-1.01.14-1.22.66Z"/>
                      </g>
                    </g>
                  </g>
                  <path class="cls-26" d="M627.57,307.41c0,1.14.55,2.06,1.22,2.06s1.22-.92,1.22-2.06-.55-1.14-1.22-1.14-1.22,0-1.22,1.14Z"/>
                </g>
              </g>
              <g>
                <path class="cls-19" d="M637.32,270.04l-10.32,16.93s36.26,7.18,36.27,6.68c0-.5.43-12.33.43-12.33l-26.38-11.28Z"/>
                <polygon class="cls-57" points="664.66 294.12 625.61 286.49 633.6 271.24 664.79 282.72 664.66 294.12"/>
              </g>
              <path class="cls-18" d="M641.53,417.76c-5.09,0-7.15-.57-7.32-.62-.16-.05-.25-.21-.2-.37.05-.16.21-.25.37-.2.09.03,9.12,2.48,37.08-3.05.16-.03.32.07.35.23.03.16-.07.32-.23.35-14.87,2.94-24.36,3.65-30.05,3.65Z"/>
              <path class="cls-18" d="M615.6,369.52c-.23-.05-.33-.21-.29-.37l5.63-23.21c.04-.16.2-.26.36-.22.16.04.26.2.22.36l-5.63,23.21c-.03.14-.15.23-.29.23Z"/>
              <path class="cls-18" d="M654.03,372.71c-.14,0-.26-.1-.29-.24l-2.91-14.79c-.03-.16.07-.32.23-.35.16-.03.32.07.35.24l2.91,14.79c.03.16-.07.32-.23.35-.02,0-.04,0-.06,0Z"/>
              <path class="cls-18" d="M646.86,495.32c-21.48,0-38.23-3.98-38.45-4.03-.16-.04-.26-.2-.22-.36.04-.16.2-.26.36-.22.29.07,28.92,6.86,59.33,2.62.16-.02.31.09.34.25.02.16-.09.31-.25.34-7.25,1.01-14.41,1.4-21.1,1.4Z"/>
            </g>
          </g>
          <g>
            <path class="cls-10" d="M610.52,402.99l-66.95-60.03c1.24-1.01,2.4-2.13,3.51-3.36,1.8-1.73,3.33-3.6,4.62-5.61l72.42,52.09c5.06,3.64,6.03,10.78,2.12,15.63-3.91,4.86-11.09,5.44-15.73,1.28Z"/>
            <g>
              <path class="cls-10" d="M524.32,354.69c22.87-1.88,39.89-21.96,38-44.83-1.88-22.87-21.96-39.89-44.83-38-22.87,1.88-39.89,21.96-38,44.83,1.88,22.87,21.96,39.89,44.83,38ZM484.7,316.26c-1.65-20,13.22-37.54,33.22-39.19,19.99-1.65,37.54,13.22,39.19,33.22,1.65,19.99-13.22,37.54-33.22,39.19-20,1.65-37.54-13.22-39.19-33.22Z"/>
              <path class="cls-7" d="M523.89,349.47c20-1.65,34.87-19.19,33.22-39.19-1.65-20-19.19-34.87-39.19-33.22-19.99,1.65-34.87,19.19-33.22,39.19,1.65,19.99,19.19,34.87,39.19,33.22Z"/>
            </g>
          </g>
          <g>
            <path class="cls-53" d="M620,407.83c3.22,3.29,7.36,4.22,10.22,4.43,1.9.13,3.23-.04,3.36-.06.08-.01.16-.03.24-.05,2.84-.37,6.69-1.65,8.93-5.84.72-1.34.74-2.38.34-3.17,0-.44-.15-.89-.47-1.24-5.12-5.66-13.11-4.94-13.45-4.91-.6.06-1.1.4-1.37.88-.18.32-.26.69-.21,1.08.12.98.46,1.07,2.03,1.61.02,0,.28.07.72.21-1.89-.29-3.92-.98-5.7-2.42-.78-.64-1.56-1.53-2.39-1-.25.16-.44.37-.58.61-.21.38-.28.83-.18,1.26-.53-.47-1.3-.65-1.95-.4-.35.13-.61.36-.78.65-.24.43-.26.98.01,1.49.18.34.38.66.58.97-.26-.06-.52-.01-.75.2-.14.13-.25.27-.34.42-.37.66-.29,1.52.28,2.11.37.39.75.75,1.12,1.08-.34.67-.23,1.52.34,2.1ZM631.39,408.89c-.06,0-.12.01-.19.02.07-.01.13-.03.2-.04v.02Z"/>
            <path class="cls-18" d="M659.07,386.67c.32,2.1,5.34,2.52,11.04,1.64,5.7-.87,10.56-2.92,10.24-5.02-.32-2.1-5.71-3.46-11.41-2.59-5.7.87-10.2,3.86-9.87,5.96Z"/>
            <path class="cls-53" d="M664.78,350.88c-5.22.56-8.7,5.66-7.36,10.74,2.16,8.21,4.19,17.25,4.95,24.49.96,9.21-.24-2.33.24,2.31.1,1.01,0,.01.01.05.1.77.16,1.44-.07,2.24-.24.8-.67,1.48-1.22,2.13-.27.32-.66.6-1,.87-.03.02-.1.07-.14.09-.12.08-.32.2-.45.27-.11.06-.21.11-.33.17-.04.02-.1.05-.16.08-.06.03.12-.04-.07.03-.2.07.54-.19-.2.07-.74.26,1.04-.35-.77.27-1.81.62-1.45.52-5.84,1.91-4.39,1.39-14.33,2.5-20.12,3.79-3.32.74-5.57,3.73-4.91,7.19.63,3.33,3.32,4.94,6.76,4.71,6.34-.42,17.18-1.79,22.08-2.81,4.9-1.02,4.64-1.24,6.67-1.75,2.03-.5.02-.02.86-.24.84-.22,0,0,.22-.06.21-.06.04-.02.19-.06.15-.05.36-.13.5-.18.37-.14.71-.27,1.06-.42.36-.15.67-.3,1.03-.48.13-.07.34-.17.48-.25.14-.08.36-.19.48-.27,1.27-.85,2.52-1.59,3.6-2.69,2.15-2.19,3.83-4.53,5.07-7.38.62-1.42.94-2.96,1.17-4.52.24-1.56.11-3.19,0-4.77.02.19.01.51.09.62-.28-10.7-1.89-20.97-3.7-31.25-.54-3.01-3.16-5.12-6.16-5.09-1.06.01-2.04.06-2.95.16Z"/>
            <path class="cls-43" d="M669.4,340.37c2.89,6.84,8.29,26.55,10.94,43.25-4.89-3.59-18.05-4.57-21.18,2.58-2.66-12.93-5.95-27.27-5.4-36.89l15.64-8.95Z"/>
            <path class="cls-18" d="M659.07,386.89c.11,0,.2-.08.22-.18.42-2.36,3.2-3.8,4.05-4.19.11-.05.16-.18.11-.29-.05-.11-.18-.16-.29-.11-.98.45-3.12,1.61-3.98,3.51l-.4-3.37c-.01-.12-.12-.21-.24-.19s-.21.12-.19.24l.52,4.38c.01.11.1.19.21.19h0Z"/>
            <path class="cls-18" d="M680.4,383.84s.09-.01.12-.04c.07-.05.11-.14.09-.23l-.31-1.5c-.02-.12-.14-.19-.26-.17-.12.03-.19.14-.17.26l.21.99c-.61-.37-1.33-.71-2.21-1.06-.11-.04-.24.01-.28.12-.04.11,0,.24.12.28,1.07.43,1.88.84,2.57,1.3.04.03.08.04.12.04Z"/>
          </g>
          <g>
            <g>
              <g>
                <g>
                  <g>
                    <path class="cls-30" d="M326.1,558.28c-.09,0-.18-.05-.22-.12-1.25-2.29-1.25-4.91-.02-7.2.06-.11.21-.15.33-.1.12.05.18.18.12.28-1.17,2.17-1.16,4.66.02,6.84.06.11,0,.23-.12.28-.04.01-.07.02-.11.02Z"/>
                    <path class="cls-30" d="M323.5,556.05c-.05,0-.1-.01-.14-.04-.11-.07-.13-.2-.05-.3,1.75-2.02,4.43-3.25,7.35-3.38.14,0,.25.08.26.2,0,.12-.1.22-.23.22-2.77.12-5.31,1.29-6.98,3.21-.05.06-.13.09-.2.08Z"/>
                    <path class="cls-30" d="M332.38,561.02c-.12,0-.22-.08-.24-.18-.4-2.5.5-5.01,2.47-6.87.09-.09.25-.09.35-.01.1.08.11.21.02.3-1.87,1.77-2.72,4.15-2.35,6.53.02.12-.08.22-.21.24-.01,0-.03,0-.04,0Z"/>
                    <path class="cls-30" d="M330.67,558.22c-.07,0-.15-.03-.2-.09-.08-.1-.05-.23.06-.3,2.37-1.47,5.36-1.96,8.18-1.33.13.03.21.15.18.26-.03.11-.17.18-.3.15-2.68-.6-5.52-.14-7.77,1.26-.05.03-.1.04-.15.04Z"/>
                    <g>
                      <path class="cls-30" d="M324.7,547.2c.19,1.69,3.19,3.97,4.21,4.7.22-1.59.09-3.41-.42-4.7h.52c.57,1.57.59,3.69.33,5.13-.01.07-.07.14-.15.17-.07.02-.14.02-.2,0-.23-.15-4.56-3.06-4.78-5.29h.49Z"/>
                      <path class="cls-30" d="M328.86,552.35c-.02-.07,0-.15.06-.2.18-.16,4.32-3.87,6.89-3.49.69.1,1.21.48,1.54,1.12.53,1.02.2,1.68-.16,2.05-1.4,1.42-5.7,1.24-8.16.67-.11-.04-.15-.09-.17-.15ZM335.73,549.08c-1.95-.29-5.15,2.26-6.15,3.1,2.75.55,6.18.44,7.24-.63.4-.41.43-.93.09-1.6-.19-.37-.45-.62-.77-.76-.12-.05-.26-.09-.4-.11Z"/>
                    </g>
                  </g>
                  <polygon class="cls-58" points="345.6 547.2 343.22 563.08 322.67 554.55 322.92 547.2 345.6 547.2"/>
                  <g>
                    <path class="cls-58" d="M323,551.52s-.31,5.88-1.57,11.08c-1.32,5.48-3.52,10.35-.27,12.05h37.74c1.51,0,2.66-1.38,2.41-2.89-.53-3.3-3.66-8.29-17.64-8.68-7.17-11.57-20.68-11.57-20.68-11.57Z"/>
                    <g>
                      <path class="cls-42" d="M368.11,575.67c-.06,0-46.65-.95-46.65-.95-1.59-.03-2.76-1.51-2.45-3.09l1.89-9.76.6-3.1,13.67,1.05s3.11-4.01,8.76-5.2c15.95.31,22.8,8.78,25.68,14.9.53,1.12.92,2.17,1.21,3.07.5,1.55-.86,3.08-2.71,3.08Z"/>
                      <path class="cls-30" d="M333.77,563.75c-.16-.02-.26-.12-.24-.24.95-6.41,10.14-9.08,10.24-9.1.13-.04.27.02.31.14.04.11-.03.23-.16.27-.09.03-8.99,2.61-9.9,8.75-.02.11-.12.19-.25.19Z"/>
                      <path class="cls-30" d="M350.54,562.44c-.09,0-.18-.05-.22-.12-1.25-2.29-1.25-4.91-.02-7.2.06-.11.2-.15.33-.1.12.05.18.18.12.28-1.17,2.17-1.16,4.66.02,6.84.06.11,0,.23-.12.28-.04.02-.07.02-.11.02Z"/>
                      <path class="cls-30" d="M347.95,560.2s-.1-.01-.14-.04c-.11-.07-.13-.2-.05-.3,1.76-2.02,4.43-3.25,7.35-3.38.14,0,.25.08.26.2,0,.12-.1.22-.23.23-2.77.12-5.31,1.29-6.98,3.21-.05.06-.13.09-.2.08Z"/>
                      <path class="cls-30" d="M356.82,565.17c-.12,0-.22-.08-.24-.18-.4-2.5.5-5.01,2.47-6.87.09-.09.25-.09.35-.01.1.08.11.21.02.3-1.87,1.77-2.72,4.15-2.35,6.53.02.12-.08.23-.21.24-.01,0-.03,0-.04,0Z"/>
                      <path class="cls-30" d="M355.11,562.37c-.07,0-.15-.03-.2-.09-.08-.1-.05-.23.06-.3,2.37-1.47,5.35-1.96,8.18-1.33.13.03.21.15.18.26-.03.12-.17.18-.3.15-2.68-.6-5.52-.14-7.77,1.26-.05.03-.1.04-.15.04Z"/>
                      <g>
                        <path class="cls-30" d="M353.39,556.62c-.2-.13-4.91-3.3-4.75-5.56.05-.6.42-1.09,1.12-1.44,1.12-.57,1.91-.35,2.38-.08,1.78,1.05,2.03,4.77,1.64,6.94-.01.07-.07.14-.15.17-.07.02-.14.02-.2,0-.01,0-.03-.01-.04-.02ZM350.02,549.99c-.56.28-.84.64-.88,1.1-.13,1.71,3.15,4.19,4.22,4.96.34-2.42-.15-5.36-1.49-6.15-.06-.03-.12-.06-.18-.09-.48-.2-1.03-.14-1.68.18Z"/>
                        <path class="cls-30" d="M353.31,556.51c-.02-.07,0-.15.06-.21.17-.16,4.32-3.87,6.89-3.49.69.1,1.21.48,1.54,1.12.53,1.02.2,1.68-.16,2.05-1.4,1.42-5.7,1.24-8.16.67-.11-.04-.15-.09-.17-.15ZM360.18,553.23c-1.95-.29-5.15,2.26-6.15,3.1,2.75.55,6.18.44,7.24-.63.4-.41.43-.94.09-1.6-.19-.37-.45-.62-.77-.76-.12-.05-.26-.09-.4-.11Z"/>
                      </g>
                    </g>
                  </g>
                </g>
                <g>
                  <g>
                    <path class="cls-30" d="M284.91,558.28c-.09,0-.18-.05-.22-.12-1.25-2.29-1.25-4.91-.02-7.2.06-.11.2-.15.33-.1.12.05.18.18.12.28-1.17,2.17-1.16,4.66.02,6.84.06.11,0,.23-.12.28-.04.01-.07.02-.11.02Z"/>
                    <path class="cls-30" d="M282.31,556.05c-.05,0-.1-.01-.14-.04-.11-.07-.13-.2-.05-.3,1.75-2.02,4.43-3.25,7.35-3.38.14,0,.25.08.26.2,0,.12-.1.22-.23.22-2.77.12-5.31,1.29-6.98,3.21-.05.06-.13.09-.2.08Z"/>
                    <path class="cls-30" d="M291.18,561.02c-.12,0-.22-.08-.24-.18-.4-2.5.5-5.01,2.47-6.87.09-.09.25-.09.35-.01.1.08.11.21.02.3-1.87,1.77-2.72,4.15-2.35,6.53.02.12-.08.22-.21.24-.01,0-.03,0-.04,0Z"/>
                    <path class="cls-30" d="M289.48,558.22c-.07,0-.15-.03-.2-.09-.08-.1-.05-.23.06-.3,2.37-1.47,5.35-1.96,8.18-1.33.13.03.21.15.18.26-.03.11-.17.18-.3.15-2.68-.6-5.52-.14-7.77,1.26-.05.03-.1.04-.15.04Z"/>
                    <g>
                      <path class="cls-30" d="M283.51,547.2c.19,1.69,3.19,3.97,4.21,4.7.22-1.59.09-3.41-.42-4.7h.52c.56,1.57.59,3.69.33,5.13-.01.07-.07.14-.15.17-.07.02-.14.02-.2,0-.23-.15-4.56-3.06-4.78-5.29h.49Z"/>
                      <path class="cls-30" d="M287.67,552.35c-.02-.07,0-.15.06-.2.18-.16,4.32-3.87,6.89-3.49.69.1,1.21.48,1.54,1.12.53,1.02.21,1.68-.16,2.05-1.4,1.42-5.7,1.24-8.16.67-.11-.04-.15-.09-.17-.15ZM294.54,549.08c-1.95-.29-5.15,2.26-6.15,3.1,2.75.55,6.18.44,7.24-.63.4-.41.43-.93.09-1.6-.19-.37-.45-.62-.77-.76-.12-.05-.26-.09-.4-.11Z"/>
                    </g>
                  </g>
                  <polygon class="cls-58" points="304.4 547.2 302.03 563.08 281.48 554.55 281.73 547.2 304.4 547.2"/>
                  <g>
                    <path class="cls-58" d="M281.8,551.52s-.31,5.88-1.57,11.08c-1.32,5.48-3.52,10.35-.27,12.05h37.74c1.51,0,2.66-1.38,2.41-2.89-.53-3.3-3.66-8.29-17.64-8.68-7.17-11.57-20.68-11.57-20.68-11.57Z"/>
                    <g>
                      <path class="cls-42" d="M326.92,575.67c-.06,0-46.65-.95-46.65-.95-1.59-.03-2.76-1.51-2.45-3.09l1.89-9.76.6-3.1,13.67,1.05s3.11-4.01,8.76-5.2c15.95.31,22.81,8.78,25.68,14.9.53,1.12.92,2.17,1.21,3.07.5,1.55-.86,3.08-2.71,3.08Z"/>
                      <path class="cls-30" d="M292.58,563.75c-.16-.02-.26-.12-.24-.24.95-6.41,10.14-9.08,10.24-9.1.13-.04.27.02.31.14.04.11-.03.23-.16.27-.09.03-8.99,2.61-9.9,8.75-.02.11-.13.19-.25.19Z"/>
                      <path class="cls-30" d="M309.35,562.44c-.09,0-.18-.05-.22-.12-1.25-2.29-1.25-4.91-.02-7.2.06-.11.2-.15.33-.1.12.05.18.18.12.28-1.17,2.17-1.16,4.66.02,6.84.06.11,0,.23-.12.28-.04.02-.07.02-.11.02Z"/>
                      <path class="cls-30" d="M306.75,560.2c-.05,0-.1-.01-.14-.04-.11-.07-.13-.2-.05-.3,1.75-2.02,4.43-3.25,7.35-3.38.14,0,.25.08.26.2,0,.12-.1.22-.23.23-2.77.12-5.31,1.29-6.98,3.21-.05.06-.13.09-.2.08Z"/>
                      <path class="cls-30" d="M315.63,565.17c-.12,0-.22-.08-.24-.18-.4-2.5.5-5.01,2.47-6.87.09-.09.25-.09.35-.01.1.08.11.21.02.3-1.87,1.77-2.72,4.15-2.35,6.53.02.12-.08.23-.21.24-.01,0-.03,0-.04,0Z"/>
                      <path class="cls-30" d="M313.92,562.37c-.08,0-.15-.03-.2-.09-.08-.1-.05-.23.06-.3,2.37-1.47,5.35-1.96,8.18-1.33.13.03.21.15.18.26-.03.12-.17.18-.3.15-2.68-.6-5.52-.14-7.77,1.26-.05.03-.1.04-.15.04Z"/>
                      <g>
                        <path class="cls-30" d="M312.2,556.62c-.2-.13-4.91-3.3-4.74-5.56.04-.6.42-1.09,1.12-1.44,1.12-.57,1.91-.35,2.38-.08,1.78,1.05,2.03,4.77,1.64,6.94-.01.07-.07.14-.15.17-.07.02-.14.02-.2,0-.01,0-.03-.01-.04-.02ZM308.83,549.99c-.56.28-.84.64-.88,1.1-.13,1.71,3.15,4.19,4.22,4.96.34-2.42-.15-5.36-1.49-6.15-.06-.03-.12-.06-.18-.09-.48-.2-1.03-.14-1.68.18Z"/>
                        <path class="cls-30" d="M312.11,556.51c-.02-.07,0-.15.06-.21.18-.16,4.32-3.87,6.89-3.49.69.1,1.21.48,1.54,1.12.53,1.02.21,1.68-.16,2.05-1.4,1.42-5.7,1.24-8.16.67-.11-.04-.15-.09-.17-.15ZM318.98,553.23c-1.95-.29-5.15,2.26-6.15,3.1,2.75.55,6.18.44,7.24-.63.4-.41.43-.94.09-1.6-.19-.37-.45-.62-.77-.76-.12-.05-.26-.09-.4-.11Z"/>
                      </g>
                    </g>
                  </g>
                </g>
                <g>
                  <g>
                    <path class="cls-57" d="M281.41,540.26l7.51-43.55.69-4.01c.52-3.04.84-6.12.95-9.21.55-15.57,2.32-65.27,2.45-69.83l39.2-.07c-.08,6.3-.37,29.3-.63,62.87-.02.06-.03.12-.05.18-1.41,5.5-4.23,14.2-7.54,23.83-.03.09-.06.19-.1.28-2.06,5.98-4.3,12.32-6.5,18.46-2.7,7.52-5.35,14.76-7.55,20.72-1.45,3.93-2.69,7.3-3.63,9.84l-26.44.05,1.65-9.57Z"/>
                    <path class="cls-57" d="M351.58,413.57s7.68,46.43,5.24,79.23c-.59,7.99-2.71,17.82-4.37,28.98-1.27,8.57-3.1,21.78-4.49,31.52h-26.18c.6-14.74.5-37.25,2.11-52.52.03-.3.06-.61.09-.91,1.66-15.67,3.17-27.56,3.17-27.56l-3.23-8.25-6.66-16.98-7.62-19.42-5.49-14,47.42-.08Z"/>
                  </g>
                  <path class="cls-18" d="M279.64,550.12h26.44c.13,0,.25-.08.29-.21l16.06-43.69c3.26-8.86,5.15-18.15,5.62-27.6.47-9.45-.48-18.88-2.84-28.03l-1.59-6.19c-.04-.17-.21-.27-.38-.23-.17.05-.27.22-.22.39l1.59,6.19c4.73,18.36,3.77,37.47-2.76,55.24l-15.98,43.48h-26.22c-.17,0-.31.14-.31.32s.14.32.31.32Z"/>
                </g>
              </g>
              <g>
                <g>
                  <path class="cls-38" d="M362.04,372.5s2.5,10.66,11.78,12.97c7.07,1.76,39.6,3.59,39.6,3.59l5.85-12.75-47.16-10.33-10.06,6.52Z"/>
                  <path class="cls-38" d="M409.79,384.36l2.42,3s2.27,4.08,6.4,5.5c4.13,1.42,9.12,3.26,9.94,4.17.82.91,2.36-2.07-1.26-5.17-3.61-3.1-3.12-2.4-1.95-3.49,6.5-.33,13.77,5.13,14.04,3.02s-6.69-5.99-6.71-6.68c-.02-.69,6.45,5.65,5.7,3.26s-4.68-6.71-5.13-7.24c-.46-.52,4.59,5.54,4.92,4.69.33-.85-1.35-5.41-5.5-8.09-4.75.53.49,1.13.49,1.13,0,0,3.6,4.26,4.25,2.67.7-1.69-8.7-8.11-14.12-6.66-6.03,1.61-10.06,2.93-10.78,3.13-6.56,1.76-5.12,4.38-2.71,6.75Z"/>
                </g>
                <polygon class="cls-43" points="365.99 332.54 362.1 331.6 354.22 365.48 369.08 384.57 388.4 370.52 365.99 332.54"/>
              </g>
              <path class="cls-55" d="M364.57,331.15l-4.93,69.76-1.51,15.19h-67.59l6.82-47.8,3.29-23.31c1.99-12.87,10.29-24.01,23.02-25.47,4.57-.52,9.8-.7,15.64-.25,5.57.43,11.69,1.42,18.33,3.22,8.85,7.23,6.94,8.66,6.94,8.66Z"/>
              <path class="cls-43" d="M347.65,320.47s-4.57,25.4-2.08,53.33c2.01,22.56-5.16,67-5.16,67l25.99.68s-3.05-43.07-2.73-57.03c.47-20.78.26-38.84,3.29-49.84.09-6.99-10.69-15.07-19.3-14.13Z"/>
              <path class="cls-43" d="M323.37,317.08s2.87,7.83,2.94,40.51c4.5,28.36-7.35,81.96-7.35,81.96l-31.3-2.24s5.4-68.38,8.2-83.07c1.18-6.21,3.27-12.69,5.3-18.11,2.98-7.98,9.25-14.25,17.14-17.17l5.08-1.88Z"/>
              <path class="cls-49" d="M345.48,315.11s-2.14,34.82-.4,51.48c2.67-18.55,8.52-25.5,8.52-25.5l-3.79-5.97,6.32-.65-4.49-14.08-6.15-5.28Z"/>
              <path class="cls-27" d="M361.71,298.97c-2.69,7.77-7.62,21.42,3.03,21.91-8.62,8.5-20.42-.49-20.42-.49,0,0-1.63,1.94-5.79,2.57-3.29.5-15.91,2.22-19.24-5.21-9.07,2.22-11.37-8.61-11.37-8.61,1.72.6,10.97,2.76,18.79-20.58,4.7-14.02,22.12-16.58,32.81-5.37,3.04,3.19,3.58,11.74,2.18,15.78Z"/>
              <g>
                <path class="cls-27" d="M329.98,285.61c-1.33,1.01-2.32,2.4-2.95,3.96-1.94,4.85-7.3,20.27,2.1,21.96,1.62.29,2.67,3.44,4.26,3.86,7.49,1.97,12.82-8.16,12.12-18.91-.69-10.59-9.58-15.38-15.53-10.88Z"/>
                <path class="cls-27" d="M334.04,305.11s11.77,9.86,25.84-5.62c1.35-1.49.94-2.84,1.43-5.12,2.3-10.67-5.24-18.2-19.27-16.3-13.44,1.82-20.94,19.46-7.99,27.04Z"/>
                <g>
                  <path class="cls-58" d="M334.04,332.3l-.28-.04c-4.94-.77-8.34-5.48-7.58-10.5l3.22-21.29,18.19,2.85-3.22,21.29c-.76,5.03-5.39,8.48-10.33,7.7Z"/>
                  <path class="cls-61" d="M342.93,319.17c-6.59-1.03-10.12-7.8-10.16-7.88-.07-.13-.01-.28.12-.35.13-.06.29-.01.35.12.04.08,4.25,8.13,11.96,7.71.14,0,.27.1.28.24,0,.14-.1.27-.25.27-.8.04-1.57,0-2.3-.11Z"/>
                </g>
                <path class="cls-58" d="M328.92,297.71s2.35,19.7,15.32,20.98c12.97,1.28,17.2-23.92,15.94-29.52-1.26-5.59-14.41-14.06-25.68-6-6.42,4.59-5.58,14.54-5.58,14.54Z"/>
                <path class="cls-16" d="M349.6,311.15c.81.16,1.22-.94.5-1.36-.63-.36-1.37-.95-1.89-1.85-1.11-1.92-2.43-.03-1.46,1.4.54.8,1.78,1.59,2.85,1.81Z"/>
                <path class="cls-8" d="M348.26,302.82c-2.32,0-4.2-1.92-4.2-4.27s1.88-4.27,4.2-4.27,4.2,1.92,4.2,4.27-1.88,4.27-4.2,4.27ZM348.26,294.58c-2.15,0-3.9,1.78-3.9,3.97s1.75,3.97,3.9,3.97,3.9-1.78,3.9-3.97-1.75-3.97-3.9-3.97Z"/>
                <path class="cls-8" d="M357.85,305.41c-2.22,0-4.02-1.83-4.02-4.09s1.8-4.09,4.02-4.09,4.02,1.83,4.02,4.09-1.8,4.09-4.02,4.09ZM357.85,297.53c-2.05,0-3.72,1.7-3.72,3.79s1.67,3.79,3.72,3.79,3.73-1.7,3.73-3.79-1.67-3.79-3.73-3.79Z"/>
                <path class="cls-8" d="M354.76,299.26c-.11-.02-.16-.1-.15-.19.07-.29.02-.6-.13-.86-.16-.26-.4-.44-.69-.51-.29-.07-.59-.02-.84.14-.25.16-.43.41-.5.7-.02.08-.1.13-.18.11-.08-.02-.13-.1-.11-.18.09-.37.31-.69.63-.89.32-.2.7-.26,1.07-.17s.68.32.88.64c.2.33.26.71.17,1.09-.02.07-.08.12-.15.12Z"/>
              </g>
              <path class="cls-27" d="M352.06,308.73c.74.12,2.75.29,3.1-1.16.32-1.31-.9-2.08-1.7-2.35l-.28-4c0-.11-.11-.2-.22-.19-.11,0-.2.1-.19.22l.29,4.14c0,.09.07.16.15.18.08.02,1.88.55,1.55,1.91-.33,1.36-2.86.82-2.88.81-.11-.03-.22.04-.25.15-.02.11.05.22.16.24.02,0,.12.03.27.05Z"/>
              <path class="cls-27" d="M355.67,301.65c-.69,1.17,1.18,2.26,1.87,1.09.68-1.15-1.16-2.29-1.87-1.09Z"/>
              <path class="cls-27" d="M347.9,299.71c-.69,1.17,1.18,2.26,1.87,1.09.68-1.15-1.16-2.29-1.87-1.09Z"/>
              <path class="cls-61" d="M345.54,303.59c-.1.67-.73,1.12-1.41,1.01-.67-.11-1.14-.73-1.04-1.4.1-.67.73-1.12,1.4-1.01.68.11,1.14.73,1.04,1.4Z"/>
              <path class="cls-27" d="M359.23,304.11s2.29-6.82-1.43-11.13c-3.71-4.31-4.53-6.32-4.38-8.56.15-2.24,3.24-4.28,6.1-1.23,2.86,3.05,4.18,15.26-.3,20.92Z"/>
              <path class="cls-27" d="M357.69,281.65s-.89,3.83-10.04,2.77c-9.15-1.06-11.07,18.7-17.7,18.22-.09,0-.17-.01-.26-.02-4.14-.36-6.09-5.31-3.41-8.54,1.51-1.82,2.8-4.21,2.94-7.11.35-7.27,13.84-15.28,28.46-5.32Z"/>
              <path class="cls-27" d="M356.6,287.47s-4.11,2.82-11.37,3.36c-11.38.86-13.08,24.29-20.45,26.25-10.72,2.84-11.64-4.26-11.64-4.26,0,0,19.02-11.64,20.12-17.62,1.11-5.98,13.44-21.67,23.34-7.72Z"/>
              <g>
                <path class="cls-58" d="M339.09,298.4c-1.27-1.16-4.48-3.56-5.96-.58-1.62,3.24,3.29,5.63,4.86,6.29l1.11-5.71Z"/>
                <path class="cls-61" d="M337.78,300.2c-.1-.02-.18-.09-.21-.19-.64-2.16-2.73-1.74-2.82-1.72-.14.03-.28-.06-.31-.2-.03-.14.06-.28.2-.31.03,0,2.66-.53,3.44,2.09.04.14-.04.28-.18.32-.04,0-.08.01-.11,0Z"/>
              </g>
              <path class="cls-49" d="M328.51,313.62s-2.47,28.75-1.74,57.51c-1.99-16-7.11-31.48-7.11-31.48l3.54-2.79-7.25-.15s4.93-15.73,3.14-19.63c8.25-2.85,9.43-3.46,9.43-3.46Z"/>
              <path class="cls-27" d="M334.28,301.86s-5.19,13.07-2.45,20.69c-11.15-7.52-3.54-22.23-3.54-22.23l5.99,1.53Z"/>
              <path class="cls-27" d="M330.16,312.09s-2.63,10.45-16.06,7.94c3.23-.48,7.54-5.51,7.76-9.29,3.48-1.42,8.3,1.35,8.3,1.35Z"/>
              <path class="cls-8" d="M365.41,281.15h-.3c0-.94-.75-1.7-1.67-1.7s-1.67.76-1.67,1.7h-.3c0-1.1.88-2,1.97-2s1.97.9,1.97,2Z"/>
              <g>
                <g>
                  <path class="cls-8" d="M408.96,383.63h85.66c1.03,0,1.87.84,1.87,1.87v56.14c0,1.03-.84,1.87-1.87,1.87h-85.66c-1.03,0-1.87-.84-1.87-1.87v-56.14c0-1.03.84-1.87,1.87-1.87Z"/>
                  <rect class="cls-19" x="407.61" y="384.54" width="88.1" height="58.06" rx="1.83" ry="1.83"/>
                  <rect class="cls-28" x="409.54" y="386.79" width="84.02" height="53.38"/>
                </g>
                <g>
                  <g>
                    <rect class="cls-21" x="481.03" y="390.17" width="7.72" height=".75"/>
                    <rect class="cls-21" x="481.03" y="392.43" width="7.72" height=".75"/>
                    <rect class="cls-21" x="481.03" y="394.68" width="7.72" height=".75"/>
                    <rect class="cls-21" x="481.03" y="396.94" width="7.72" height=".75"/>
                    <rect class="cls-21" x="481.03" y="399.2" width="7.72" height=".75"/>
                    <rect class="cls-21" x="479.2" y="401.45" width="9.54" height=".75"/>
                    <rect class="cls-21" x="481.03" y="403.71" width="7.72" height=".75"/>
                    <rect class="cls-21" x="481.03" y="405.97" width="7.72" height=".75"/>
                    <rect class="cls-21" x="481.03" y="408.22" width="7.72" height=".75"/>
                    <rect class="cls-21" x="479.2" y="410.48" width="9.54" height=".75"/>
                    <rect class="cls-21" x="479.2" y="412.73" width="9.54" height=".75"/>
                  </g>
                  <g>
                    <rect class="cls-21" x="465.81" y="390.17" width="5.04" height=".44"/>
                    <rect class="cls-21" x="459.06" y="390.17" width="5.04" height=".44"/>
                  </g>
                  <g>
                    <path class="cls-62" d="M455.52,428.41c0,.51-.41.92-.91.92s-.91-.41-.91-.92.41-.93.91-.93.91.41.91.93Z"/>
                    <path class="cls-62" d="M455.52,432.11c0,.51-.41.93-.91.93s-.91-.41-.91-.93.41-.93.91-.93.91.41.91.93Z"/>
                    <path class="cls-62" d="M455.52,435.82c0,.51-.41.93-.91.93s-.91-.41-.91-.93.41-.93.91-.93.91.41.91.93Z"/>
                  </g>
                  <g>
                    <path class="cls-62" d="M472.67,428.41c0,.51-.41.92-.91.92s-.91-.41-.91-.92.41-.93.91-.93.91.41.91.93Z"/>
                    <ellipse class="cls-62" cx="471.76" cy="432.11" rx=".91" ry=".93"/>
                    <ellipse class="cls-62" cx="471.76" cy="435.82" rx=".91" ry=".93"/>
                  </g>
                </g>
                <g>
                  <path class="cls-62" d="M439.98,394.09s15.86,4.25,26.58,0c2.36,9.15,3.22,15.9-4.98,16.23-8.2.33-10.56,9.04-15.27,7.52-4.72-1.53-12.43-2.72-12.75-6.65-.32-3.92,6.43-17.1,6.43-17.1Z"/>
                  <path class="cls-50" d="M463.05,416.55h-15.05l3.87-18.06h7.31l3.87,18.06ZM448.36,416.24h14.31l-3.74-17.46h-6.83l-3.74,17.46Z"/>
                  <path class="cls-45" d="M458.9,404.46c0,.95-.76,1.72-1.69,1.72s-1.69-.77-1.69-1.72.76-1.72,1.69-1.72,1.69.77,1.69,1.72Z"/>
                  <path class="cls-31" d="M454.42,413.57c0,.95-1.18,1.71-2.63,1.71s-2.63-.77-2.63-1.71,1.18-1.72,2.63-1.72,2.63.77,2.63,1.72Z"/>
                </g>
              </g>
            </g>
            <polygon class="cls-17" points="370.48 379.26 369.08 384.57 384.77 386.95 397.54 371.55 383.37 366.94 372.9 371.74 370.48 379.26"/>
            <g>
              <g>
                <g>
                  <path class="cls-38" d="M393.98,375.45l-16.98,2.41c-3.69.52-7.11-2.09-7.62-5.85-.52-3.75,2.06-7.22,5.75-7.75l16.98-2.41c3.69-.52,7.11,2.09,7.62,5.85.52,3.75-2.06,7.22-5.75,7.75Z"/>
                  <g>
                    <path class="cls-8" d="M420.06,357.67c-.21-.81-1.08-1.6-1.88-1.77l-20.49-4.55c-2.87-.64-5.8,1.09-6.52,3.98-.76,3.03,1.1,6.08,4.09,6.74l20.07,4.46c1.15.25,2.3-.24,3-1.2.3-.4.72-.75,1.27-1.01.78-.36,1.52-.4,2.16-.22.97.28,2.01-.26,2.23-1.26.09-.41.13-.79.13-1.16,0-.73-.56-1.31-1.28-1.39-1.39-.15-2.44-1.3-2.78-2.63Z"/>
                    <g>
                      <path class="cls-19" d="M410.87,365.83c-.06,0-.11-.02-.16-.05-.14-.09-.17-.28-.08-.42,2.85-4.34,3.22-4.37,3.38-4.38.09,0,.17.02.23.07.45.2,4.49.91,6.97,1.32.16.03.27.18.25.35-.03.17-.18.28-.34.25-5.11-.83-6.59-1.18-7.05-1.35-.41.38-1.77,2.3-2.94,4.08-.06.09-.15.13-.25.13Z"/>
                      <path class="cls-19" d="M420.49,361.49c-.06,0-6.4-1.25-6.4-1.25-.13-.02-.23-.13-.24-.27l-.34-3.67c-.02-.17.1-.31.27-.33.16-.02.31.11.32.27l.32,3.45,6.13,1.2c.16.03.27.19.24.35-.03.15-.15.25-.29.25Z"/>
                    </g>
                  </g>
                  <path class="cls-38" d="M383.15,364.88s4.12,2.29,7.14-2.77c3.01-5.06,1.72-7.93,4.84-9.38,3.12-1.45,8.61-3.64,9.41-3.18.8.47,12.65,1.67,10.96,4.73-1.69,3.06-10.82-.48-10.82-.48,0,0,3.08,2.4,2.11,4.95,2.45,2.04,2.52,4.28.36,5.52,2.89,2.49,1.98,5.19-.79,6.36l-4.07-.14-3.63,3.72s-1.08,1.45-3.86,1.07c-2.78-.38-10.72.31-11.65-10.4Z"/>
                </g>
                <path class="cls-38" d="M386.88,362.91l-45.61,3.64s-4.56-.14-2.92,11.4c5.79,6.87,58.39-2.96,58.39-2.96l-9.86-12.07Z"/>
              </g>
              <g>
                <path class="cls-43" d="M333.61,349.74s-10.24-10.01-22.55-14.14c-4.28,1.36-6.67,6-5.32,10.35l4.87,15.79c16.57,14.01,38.92,24.29,38.92,24.29,0,0,2.34-7.72,9.01-21.02-5.99-3.69-24.92-15.28-24.92-15.28Z"/>
                <path class="cls-43" d="M349.68,386.38s-.08,0-.12-.02c-.15-.07-.22-.24-.16-.4l8.75-20.82-27.93-17.2c-.14-.09-.19-.27-.1-.42.09-.14.27-.19.41-.1l28.15,17.34c.13.08.18.24.12.38l-8.85,21.06c-.05.12-.16.18-.27.18Z"/>
              </g>
            </g>
          </g>
        </g>
      </g>
      <g>
        <path class="cls-39" d="M565.71,483.73c-.93-3.52.75-12.18.75-12.18,0,0-6.01,6.47-9.4,7.79-3.39,1.32-11.61-.79-11.61-.79,0,0,6.55,5.4,7.48,8.92.93,3.52-.75,12.18-.75,12.18,0,0,6.01-6.47,9.4-7.79,3.39-1.32,11.61.79,11.61.79,0,0-6.55-5.4-7.48-8.92Z"/>
        <path class="cls-39" d="M718.01,203.78c-1.46-5.5,1.17-19.03,1.17-19.03,0,0-9.38,10.1-14.68,12.17-5.3,2.06-18.15-1.23-18.15-1.23,0,0,10.23,8.44,11.69,13.93,1.46,5.5-1.17,19.03-1.17,19.03,0,0,9.38-10.1,14.68-12.17,5.3-2.06,18.15,1.23,18.15,1.23,0,0-10.23-8.44-11.69-13.93Z"/>
        <path class="cls-39" d="M644.48,29.83c-.94-3.54.76-12.27.76-12.27,0,0-6.05,6.51-9.47,7.84-3.42,1.33-11.7-.79-11.7-.79,0,0,6.6,5.44,7.54,8.98.94,3.54-.76,12.27-.76,12.27,0,0,6.05-6.51,9.47-7.84s11.7.79,11.7.79c0,0-6.6-5.44-7.54-8.98Z"/>
        <path class="cls-39" d="M97.08,137.62c-1.46-5.5,1.17-19.03,1.17-19.03,0,0-9.38,10.1-14.68,12.17-5.3,2.06-18.15-1.23-18.15-1.23,0,0,10.23,8.44,11.69,13.93,1.46,5.5-1.17,19.03-1.17,19.03,0,0,9.38-10.1,14.68-12.17,5.3-2.06,18.15,1.23,18.15,1.23,0,0-10.23-8.44-11.69-13.93Z"/>
        <path class="cls-39" d="M389.91,508.93c-.5-1.89.4-6.55.4-6.55,0,0-3.23,3.48-5.05,4.19-1.82.71-6.24-.42-6.24-.42,0,0,3.52,2.9,4.02,4.8.5,1.89-.4,6.55-.4,6.55,0,0,3.23-3.48,5.05-4.19,1.82-.71,6.24.42,6.24.42,0,0-3.52-2.9-4.02-4.8Z"/>
        <path class="cls-39" d="M308.81,151.82c-.5-1.89.4-6.55.4-6.55,0,0-3.23,3.48-5.05,4.19-1.82.71-6.25-.42-6.25-.42,0,0,3.52,2.9,4.02,4.8.5,1.89-.4,6.55-.4,6.55,0,0,3.23-3.48,5.05-4.19,1.82-.71,6.24.42,6.24.42,0,0-3.52-2.9-4.02-4.8Z"/>
        <path class="cls-39" d="M522.7,242.19c-.5-1.89.4-6.55.4-6.55,0,0-3.23,3.48-5.05,4.19-1.82.71-6.25-.42-6.25-.42,0,0,3.52,2.9,4.02,4.8.5,1.89-.4,6.55-.4,6.55,0,0,3.23-3.48,5.05-4.19,1.82-.71,6.24.42,6.24.42,0,0-3.52-2.9-4.02-4.8Z"/>
        <path class="cls-39" d="M723.4,385.11c-.5-1.89.4-6.55.4-6.55,0,0-3.23,3.48-5.05,4.19-1.82.71-6.25-.42-6.25-.42,0,0,3.52,2.9,4.02,4.8.5,1.89-.4,6.55-.4,6.55,0,0,3.23-3.48,5.05-4.19,1.82-.71,6.24.42,6.24.42,0,0-3.52-2.9-4.02-4.8Z"/>
      </g>
      <g>
        <path class="cls-63" d="M32.76,207.74c-.44-1.65.35-5.71.35-5.71,0,0-2.81,3.03-4.4,3.65-1.59.62-5.44-.37-5.44-.37,0,0,3.07,2.53,3.5,4.18.44,1.65-.35,5.71-.35,5.71,0,0,2.81-3.03,4.4-3.65,1.59-.62,5.44.37,5.44.37,0,0-3.07-2.53-3.5-4.18Z"/>
        <path class="cls-63" d="M447.27,340c-.44-1.65.35-5.71.35-5.71,0,0-2.81,3.03-4.4,3.65-1.59.62-5.44-.37-5.44-.37,0,0,3.07,2.53,3.5,4.18.44,1.65-.35,5.71-.35,5.71,0,0,2.81-3.03,4.4-3.65,1.59-.62,5.44.37,5.44.37,0,0-3.07-2.53-3.5-4.18Z"/>
        <path class="cls-63" d="M581.69,272.52c-.44-1.65.35-5.71.35-5.71,0,0-2.81,3.03-4.4,3.65-1.59.62-5.44-.37-5.44-.37,0,0,3.07,2.53,3.5,4.18.44,1.65-.35,5.71-.35,5.71,0,0,2.81-3.03,4.4-3.65,1.59-.62,5.44.37,5.44.37,0,0-3.07-2.53-3.5-4.18Z"/>
        <path class="cls-63" d="M195.65,220.38c-.44-1.65.35-5.71.35-5.71,0,0-2.81,3.03-4.4,3.65s-5.44-.37-5.44-.37c0,0,3.07,2.53,3.5,4.18.44,1.65-.35,5.71-.35,5.71,0,0,2.81-3.03,4.4-3.65,1.59-.62,5.44.37,5.44.37,0,0-3.07-2.53-3.5-4.18Z"/>
        <path class="cls-63" d="M130.63,30.83c-.44-1.65.35-5.71.35-5.71,0,0-2.81,3.03-4.4,3.65s-5.44-.37-5.44-.37c0,0,3.07,2.53,3.5,4.18.44,1.65-.35,5.71-.35,5.71,0,0,2.81-3.03,4.4-3.65,1.59-.62,5.44.37,5.44.37,0,0-3.07-2.53-3.5-4.18Z"/>
        <path class="cls-63" d="M741.44,80.09c-.44-1.65.35-5.71.35-5.71,0,0-2.81,3.03-4.4,3.65s-5.44-.37-5.44-.37c0,0,3.07,2.53,3.5,4.18.44,1.65-.35,5.71-.35,5.71,0,0,2.81-3.03,4.4-3.65,1.59-.62,5.44.37,5.44.37,0,0-3.07-2.53-3.5-4.18Z"/>
        <path class="cls-63" d="M518.54,548.98c-.44-1.65.35-5.71.35-5.71,0,0-2.81,3.03-4.4,3.65s-5.44-.37-5.44-.37c0,0,3.07,2.53,3.5,4.18.44,1.65-.35,5.71-.35,5.71,0,0,2.81-3.03,4.4-3.65,1.59-.62,5.44.37,5.44.37,0,0-3.07-2.53-3.5-4.18Z"/>
        <path class="cls-63" d="M61.48,395.64c-.44-1.65.35-5.71.35-5.71,0,0-2.81,3.03-4.4,3.65-1.59.62-5.44-.37-5.44-.37,0,0,3.07,2.53,3.5,4.18.44,1.65-.35,5.71-.35,5.71,0,0,2.81-3.03,4.4-3.65,1.59-.62,5.44.37,5.44.37,0,0-3.07-2.53-3.5-4.18Z"/>
        <path class="cls-63" d="M271.62,325.23c-.44-1.65.35-5.71.35-5.71,0,0-2.81,3.03-4.4,3.65s-5.44-.37-5.44-.37c0,0,3.07,2.53,3.5,4.18s-.35,5.71-.35,5.71c0,0,2.81-3.03,4.4-3.65,1.59-.62,5.44.37,5.44.37,0,0-3.07-2.53-3.5-4.18Z"/>
      </g>
    </g>
  </g>
</svg>