<?xml version="1.0" encoding="UTF-8"?>
<svg id="Layer_3" data-name="Layer 3" xmlns="http://www.w3.org/2000/svg" viewBox="0 0 100 100">
  <defs>
    <style>
      .cls-1 {
        fill: #b7e3fd;
      }

      .cls-2 {
        fill: #dcbb9d;
      }

      .cls-3 {
        fill: #c0272d;
      }

      .cls-4 {
        fill: #f1f1f1;
      }

      .cls-5 {
        fill: #ec5276;
      }

      .cls-6 {
        fill: #f3cca4;
      }

      .cls-7 {
        fill: #f4cfa9;
      }

      .cls-8 {
        fill: #7dcdfc;
      }
    </style>
  </defs>
  <g>
    <path class="cls-8" d="M11.75,85.39c.16-.02.23.03.19.21l-1.11,2.53c.84.49,1.67,1.01,2.48,1.56.04.97.08,1.94.11,2.9l6.39,2.14,6.28-2.13c.05-.95.09-1.92.12-2.89.85-.54,1.7-1.08,2.54-1.62l-1.06-2.54.1-.16c5.01.71,10.22,3.18,10.91,9.55.02.2.12,1.42.08,1.47H.76v-.51c.06-.19.06-.4,0-.59v-.25c.27-1.14.43-2.25.9-3.31,1.83-4.16,6.28-5.82,10.09-6.36Z"/>
    <path class="cls-4" d="M21.11,53.34l2.39.36c2.61.59,5.03,1.84,7.33,3.3l.06.15c-.4,1.09-.8,2.19-1.18,3.3-.05.13-.04.29-.07.38-.26,1.26-.76,2.6-1.34,3.74-5.31-2.87-11.79-2.86-17.08,0-.58-1.15-1.08-2.48-1.34-3.74-.03-.09-.02-.25-.07-.38-.39-1.1-.78-2.2-1.18-3.3l.06-.15c2.93-1.86,6.13-3.42,9.55-3.57l.18-.09h2.67Z"/>
    <path class="cls-1" d="M.76,95.91v-.59c.12.11.12.48,0,.59Z"/>
    <path d="M29.65,60.83c.83,3.78,1.92,7.61,2.37,11.49.15,1.34.49,4.59-.44,5.53-1.77,1.79-6.03,3.53-8.38,3.67-.21.23-.8.34-.89-.08l.16-.28c2.56-1.5,4.77-4.12,5.02-7.5l.17-.29c.02-.06.05-.14.1-.15,1.23-.09,2.49-.31,2.35-2.17-.08-1.12-.86-1.98-1.86-1.97l-.15-.16c-.17.07-.29.07-.37,0-.16.11-.34.09-.54-.08-1.6-1.04-2.95-2.59-4.15-4.12-3.22,2.07-7.03,3.4-10.74,4.16-.08.02-.17.01-.26,0s-.18-.03-.27-.05c-.02.12-.14.15-.37.08l-.14.17c-2.71.38-2.23,4.57.53,4.15l.13.14.17.3c.26,3.38,2.44,6,5.01,7.49l.17.28c-.09.42-.68.31-.89.08-2.36-.13-6.61-1.88-8.38-3.67-.93-.94-.59-4.2-.44-5.53.45-3.88,1.53-7.71,2.37-11.49.02.06.12.15.16.28.4,1.12.75,2.26,1.21,3.34,1.65-1.09,3.55-1.62,5.43-1.92,3.82-.62,8.14-.16,11.57,1.92.46-1.09.81-2.23,1.21-3.34.04-.12.14-.22.16-.28Z"/>
    <path class="cls-4" d="M13.31,85.23l.29.1,6.11,7.02c2.09-2.29,4.17-4.63,6.23-7.02l.29-.1c.52.07,1.05.1,1.56.17l1.18,2.82-2.63,1.55-.07,2.95-6.46,2.19-6.56-2.21-.05-2.93-2.56-1.56c.32-.84.72-1.65,1.07-2.47.04-.09.19-.29.04-.34.51-.07,1.03-.1,1.56-.17Z"/>
    <path class="cls-6" d="M23.04,82.03c-.03.83.02,1.68,0,2.52,1.07.16,2.12.53,3.19.68l-6.49,7.4-6.43-7.4c1.07-.15,2.12-.52,3.19-.68-.01-.84.03-1.68,0-2.52h.33c1.86,1.05,4,1.05,5.86,0h.33Z"/>
    <path class="cls-2" d="M22.3,81.44c.21.14.62.1.89.08-.22.1-.14.29-.15.5-2.16,1.28-4.37,1.28-6.53,0,0-.22.07-.4-.15-.5.27.02.68.06.89-.08l.28-.03c1.48.92,3,.92,4.48,0l.28.03Z"/>
    <path class="cls-3" d="M20.27,55.81c.21.28.17.89.17,1.24,1.73-.31,1.72,1.79,0,1.51.25,1.94-1.58,1.95-1.34,0-1.71.28-1.73-1.82,0-1.51-.02-.65-.05-1.47.71-1.44.14,0,.37.08.46.2Z"/>
    <path class="cls-6" d="M27.71,68.91s-.03.06-.1.05c-.07,1.47-.06,2.94.03,4.41-.15,3.7-2.55,6.51-5.35,8.08-2.03,1.13-3.02,1.13-5.05,0-2.81-1.56-5.18-4.36-5.35-8.08.05-1.43.06-2.87.04-4.33-.17-.07-.23-.14-.19-.22,3.92-.87,7.77-2.01,11.25-4.29.21,0,.48.54.63.72.95,1.11,2.82,3.2,4.09,3.66Z"/>
    <path class="cls-2" d="M28.09,68.91c2.26-.13,2.97,3.26,1.06,4.28-.29.16-1.23.29-1.51.18-.08-1.46-.09-2.93-.04-4.4l.48-.06Z"/>
    <path class="cls-2" d="M11.38,68.91c.18,0,.36.02.53.08.06,1.46.05,2.92-.01,4.38-.28.1-1.21-.02-1.51-.18-1.88-1-1.22-4.33.99-4.28Z"/>
    <path class="cls-7" d="M11.75,68.82l.23.2c-.12,1.3.14,2.87,0,4.13-.01.09.03.16-.08.21-.06-1.45.05-2.92,0-4.37-.16.09-.47-.08-.52-.08.13,0,.25-.06.37-.08Z"/>
    <path class="cls-7" d="M27.71,68.91c.09.03.26-.02.37,0-.07,0-.29.17-.45.08-.04,1.45.06,2.92,0,4.37-.11-.04-.07-.11-.08-.21-.11-1.01-.03-2.89,0-3.96,0-.16-.08-.34.15-.29Z"/>
    <path class="cls-5" d="M17.52,76.41c.54-.18.83.28,1.26.48.54.25,1.33.26,1.88.05.4-.16,1.35-1.08,1.67-.21.4,1.09-1.38,1.77-2.08,1.85-.83.09-2.37-.21-2.93-.97-.26-.34-.2-1.07.2-1.2Z"/>
    <path d="M16.77,70.11c1.11,1.3-.44,3.32-1.72,2.24-1.48-1.24.42-3.75,1.72-2.24Z"/>
    <path d="M24.65,70.11c1.09,1.32-.44,3.32-1.72,2.24-1.53-1.29.48-3.74,1.72-2.24Z"/>
  </g>
  <g>
    <path class="cls-8" d="M72.19,85.39c.16-.02.23.03.19.21l-1.11,2.53c.84.49,1.67,1.01,2.48,1.56.04.97.08,1.94.11,2.9l6.39,2.14,6.28-2.13c.05-.95.09-1.92.12-2.89.85-.54,1.7-1.08,2.54-1.62l-1.06-2.54.1-.16c5.01.71,10.22,3.18,10.91,9.55.02.2.12,1.42.08,1.47h-38.01v-.51c.06-.19.06-.4,0-.59v-.25c.27-1.14.43-2.25.9-3.31,1.83-4.16,6.28-5.82,10.09-6.36Z"/>
    <path class="cls-4" d="M81.55,53.34l2.39.36c2.61.59,5.03,1.84,7.33,3.3l.06.15c-.4,1.09-.8,2.19-1.18,3.3-.05.13-.04.29-.07.38-.26,1.26-.76,2.6-1.34,3.74-5.31-2.87-11.79-2.86-17.08,0-.58-1.15-1.08-2.48-1.34-3.74-.03-.09-.02-.25-.07-.38-.39-1.1-.78-2.2-1.18-3.3l.06-.15c2.93-1.86,6.13-3.42,9.55-3.57l.18-.09h2.67Z"/>
    <path class="cls-1" d="M61.21,95.91v-.59c.12.11.12.48,0,.59Z"/>
    <path d="M90.09,60.83c.83,3.78,1.92,7.61,2.37,11.49.15,1.34.49,4.59-.44,5.53-1.77,1.79-6.03,3.53-8.38,3.67-.21.23-.8.34-.89-.08l.16-.28c2.56-1.5,4.77-4.12,5.02-7.5l.17-.29c.02-.06.05-.14.1-.15,1.23-.09,2.49-.31,2.35-2.17-.08-1.12-.86-1.98-1.86-1.97l-.15-.16c-.17.07-.29.07-.37,0-.16.11-.34.09-.54-.08-1.6-1.04-2.95-2.59-4.15-4.12-3.22,2.07-7.03,3.4-10.74,4.16-.08.02-.17.01-.26,0s-.18-.03-.27-.05c-.02.12-.14.15-.37.08l-.14.17c-2.71.38-2.23,4.57.53,4.15l.13.14.17.3c.26,3.38,2.44,6,5.01,7.49l.17.28c-.09.42-.68.31-.89.08-2.36-.13-6.61-1.88-8.38-3.67-.93-.94-.59-4.2-.44-5.53.45-3.88,1.53-7.71,2.37-11.49.02.06.12.15.16.28.4,1.12.75,2.26,1.21,3.34,1.65-1.09,3.55-1.62,5.43-1.92,3.82-.62,8.14-.16,11.57,1.92.46-1.09.81-2.23,1.21-3.34.04-.12.14-.22.16-.28Z"/>
    <path class="cls-4" d="M73.75,85.23l.29.1,6.11,7.02c2.09-2.29,4.17-4.63,6.23-7.02l.29-.1c.52.07,1.05.1,1.56.17l1.18,2.82-2.63,1.55-.07,2.95-6.46,2.19-6.56-2.21-.05-2.93-2.56-1.56c.32-.84.72-1.65,1.07-2.47.04-.09.19-.29.04-.34.51-.07,1.03-.1,1.56-.17Z"/>
    <path class="cls-6" d="M83.48,82.03c-.03.83.02,1.68,0,2.52,1.07.16,2.12.53,3.19.68l-6.49,7.4-6.43-7.4c1.07-.15,2.12-.52,3.19-.68-.01-.84.03-1.68,0-2.52h.33c1.86,1.05,4,1.05,5.86,0h.33Z"/>
    <path class="cls-2" d="M82.74,81.44c.21.14.62.1.89.08-.22.1-.14.29-.15.5-2.16,1.28-4.37,1.28-6.53,0,0-.22.07-.4-.15-.5.27.02.68.06.89-.08l.28-.03c1.48.92,3,.92,4.48,0l.28.03Z"/>
    <path class="cls-3" d="M80.71,55.81c.21.28.17.89.17,1.24,1.73-.31,1.72,1.79,0,1.51.25,1.94-1.58,1.95-1.34,0-1.71.28-1.73-1.82,0-1.51-.02-.65-.05-1.47.71-1.44.14,0,.37.08.46.2Z"/>
    <path class="cls-6" d="M88.16,68.91s-.03.06-.1.05c-.07,1.47-.06,2.94.03,4.41-.15,3.7-2.55,6.51-5.35,8.08-2.03,1.13-3.02,1.13-5.05,0-2.81-1.56-5.18-4.36-5.35-8.08.05-1.43.06-2.87.04-4.33-.17-.07-.23-.14-.19-.22,3.92-.87,7.77-2.01,11.25-4.29.21,0,.48.54.63.72.95,1.11,2.82,3.2,4.09,3.66Z"/>
    <path class="cls-2" d="M88.53,68.91c2.26-.13,2.97,3.26,1.06,4.28-.29.16-1.23.29-1.51.18-.08-1.46-.09-2.93-.04-4.4l.48-.06Z"/>
    <path class="cls-2" d="M71.82,68.91c.18,0,.36.02.53.08.06,1.46.05,2.92-.01,4.38-.28.1-1.21-.02-1.51-.18-1.88-1-1.22-4.33.99-4.28Z"/>
    <path class="cls-7" d="M72.19,68.82l.23.2c-.12,1.3.14,2.87,0,4.13-.01.09.03.16-.08.21-.06-1.45.05-2.92,0-4.37-.16.09-.47-.08-.52-.08.13,0,.25-.06.37-.08Z"/>
    <path class="cls-7" d="M88.16,68.91c.09.03.26-.02.37,0-.07,0-.29.17-.45.08-.04,1.45.06,2.92,0,4.37-.11-.04-.07-.11-.08-.21-.11-1.01-.03-2.89,0-3.96,0-.16-.08-.34.15-.29Z"/>
    <path class="cls-5" d="M77.96,76.41c.54-.18.83.28,1.26.48.54.25,1.33.26,1.88.05.4-.16,1.35-1.08,1.67-.21.4,1.09-1.38,1.77-2.08,1.85-.83.09-2.37-.21-2.93-.97-.26-.34-.2-1.07.2-1.2Z"/>
    <path d="M77.22,70.11c1.11,1.3-.44,3.32-1.72,2.24-1.48-1.24.42-3.75,1.72-2.24Z"/>
    <path d="M85.09,70.11c1.09,1.32-.44,3.32-1.72,2.24-1.53-1.29.48-3.74,1.72-2.24Z"/>
  </g>
  <g>
    <path class="cls-8" d="M38.86,80.66c.23-.03.33.04.27.3l-1.59,3.61c1.2.71,2.38,1.45,3.55,2.22.06,1.39.11,2.77.16,4.15l9.14,3.07,8.98-3.04c.07-1.36.12-2.74.18-4.13,1.22-.78,2.43-1.55,3.62-2.31l-1.52-3.63.14-.23c7.17,1.02,14.61,4.54,15.6,13.65.03.28.17,2.03.11,2.1H23.16v-.72c.09-.27.09-.57,0-.84v-.36c.38-1.62.62-3.21,1.29-4.74,2.62-5.94,8.97-8.32,14.42-9.09Z"/>
    <path class="cls-4" d="M52.24,34.85l3.42.51c3.73.85,7.2,2.63,10.49,4.72l.09.22c-.58,1.56-1.14,3.14-1.69,4.71-.07.19-.06.42-.1.54-.37,1.8-1.08,3.71-1.91,5.35-7.59-4.1-16.85-4.09-24.41,0-.82-1.65-1.54-3.55-1.91-5.35-.04-.12-.03-.35-.1-.54-.55-1.58-1.11-3.15-1.69-4.71l.09-.22c4.19-2.66,8.76-4.9,13.65-5.11l.26-.13h3.82Z"/>
    <path class="cls-1" d="M23.16,95.69v-.84c.18.15.18.69,0,.84Z"/>
    <path d="M64.44,45.55c1.19,5.41,2.74,10.88,3.38,16.43.22,1.91.7,6.57-.63,7.91-2.54,2.56-8.62,5.05-11.99,5.24-.31.33-1.14.48-1.27-.12l.23-.4c3.66-2.14,6.81-5.89,7.17-10.72l.24-.42c.03-.09.07-.2.14-.21,1.76-.14,3.55-.45,3.37-3.11-.11-1.61-1.23-2.82-2.67-2.82l-.21-.24c-.24.09-.42.09-.53,0-.23.16-.49.13-.77-.11-2.29-1.49-4.22-3.71-5.94-5.89-4.6,2.96-10.05,4.86-15.35,5.95-.12.02-.24.02-.37,0s-.26-.04-.39-.08c-.03.17-.2.21-.53.12l-.2.24c-3.88.54-3.18,6.53.76,5.93l.18.2.24.43c.37,4.83,3.49,8.58,7.16,10.71l.24.41c-.13.6-.97.45-1.27.12-3.37-.19-9.45-2.68-11.99-5.24-1.33-1.34-.85-6-.63-7.91.64-5.55,2.19-11.02,3.38-16.43.03.08.17.22.23.39.57,1.6,1.07,3.23,1.73,4.78,2.36-1.55,5.07-2.31,7.76-2.75,5.46-.88,11.64-.23,16.54,2.75.66-1.55,1.16-3.18,1.73-4.78.06-.17.2-.31.23-.39Z"/>
    <path class="cls-4" d="M41.09,80.42l.42.14,8.73,10.04c2.99-3.28,5.96-6.62,8.9-10.04l.42-.14c.75.1,1.5.14,2.23.24l1.69,4.03-3.76,2.22-.1,4.22-9.24,3.13-9.38-3.15-.07-4.19-3.65-2.24c.46-1.2,1.03-2.35,1.53-3.53.05-.12.26-.41.05-.48.73-.1,1.48-.14,2.23-.24Z"/>
    <path class="cls-6" d="M55,75.85c-.05,1.19.03,2.41,0,3.6,1.53.23,3.03.76,4.56.97l-9.27,10.57-9.2-10.57c1.53-.21,3.03-.74,4.56-.97-.02-1.2.05-2.41,0-3.6h.48c2.66,1.5,5.72,1.5,8.38,0h.48Z"/>
    <path class="cls-2" d="M53.94,75.01c.3.2.89.14,1.27.12-.31.15-.2.41-.21.72-3.09,1.83-6.25,1.83-9.34,0-.01-.31.1-.57-.21-.72.38.02.97.08,1.27-.12l.41-.04c2.11,1.31,4.29,1.32,6.4,0l.41.04Z"/>
    <path class="cls-3" d="M51.04,38.37c.3.4.24,1.27.24,1.77,2.47-.44,2.45,2.56,0,2.16.35,2.77-2.26,2.79-1.91,0-2.44.41-2.48-2.6,0-2.16-.03-.94-.08-2.1,1.01-2.06.21,0,.53.11.66.29Z"/>
    <path class="cls-6" d="M61.68,57.09c0,.06-.05.08-.14.07-.09,2.11-.08,4.21.04,6.3-.21,5.3-3.64,9.31-7.64,11.54-2.9,1.62-4.32,1.61-7.22,0-4.01-2.23-7.41-6.23-7.64-11.54.07-2.04.09-4.11.06-6.18-.24-.09-.33-.2-.27-.31,5.6-1.25,11.11-2.87,16.08-6.13.3,0,.68.78.9,1.02,1.36,1.58,4.04,4.58,5.84,5.23Z"/>
    <path class="cls-2" d="M62.21,57.09c3.23-.19,4.25,4.66,1.52,6.11-.42.22-1.76.41-2.16.26-.11-2.09-.13-4.19-.05-6.29l.69-.08Z"/>
    <path class="cls-2" d="M38.33,57.09c.26-.01.52.02.76.11.08,2.09.07,4.18-.02,6.27-.4.15-1.74-.04-2.16-.26-2.68-1.43-1.75-6.2,1.42-6.11Z"/>
    <path class="cls-7" d="M38.86,56.97l.33.29c-.17,1.86.19,4.1,0,5.91-.01.13.05.24-.11.29-.09-2.07.07-4.18,0-6.25-.24.13-.68-.12-.74-.12.18,0,.35-.08.53-.12Z"/>
    <path class="cls-7" d="M61.68,57.09c.12.04.38-.03.53,0-.09,0-.42.24-.64.12-.06,2.08.08,4.18,0,6.25-.16-.06-.1-.16-.11-.29-.16-1.45-.05-4.12,0-5.66,0-.23-.11-.48.21-.42Z"/>
    <path class="cls-5" d="M47.11,67.82c.77-.26,1.19.4,1.8.68.77.35,1.9.38,2.69.07.58-.22,1.93-1.54,2.39-.29.58,1.56-1.98,2.53-2.97,2.64-1.18.13-3.38-.3-4.19-1.38-.37-.49-.29-1.53.29-1.72Z"/>
    <path d="M46.04,58.82c1.59,1.85-.63,4.74-2.46,3.2-2.11-1.78.6-5.37,2.46-3.2Z"/>
    <path d="M57.29,58.82c1.56,1.89-.64,4.74-2.46,3.2-2.18-1.84.68-5.35,2.46-3.2Z"/>
  </g>
</svg>