<?xml version="1.0" encoding="UTF-8"?>
<svg id="Layer_3" data-name="Layer 3" xmlns="http://www.w3.org/2000/svg" viewBox="0 0 100 100">
  <defs>
    <style>
      .cls-1 {
        fill: #8fd4a9;
      }

      .cls-2 {
        fill: #a9c5f9;
      }

      .cls-3 {
        fill: #f0c5c0;
      }

      .cls-4 {
        fill: #8ed4a9;
      }

      .cls-5 {
        fill: #cad8f6;
      }

      .cls-6 {
        fill: #84adf7;
      }

      .cls-7 {
        fill: #f1f6fd;
      }

      .cls-8 {
        fill: #addbca;
      }

      .cls-9 {
        fill: #98b8f9;
      }

      .cls-10 {
        fill: #628ff6;
      }

      .cls-11 {
        fill: #ee9d99;
      }

      .cls-12 {
        fill: #94b5f8;
      }
    </style>
  </defs>
  <path class="cls-6" d="M99.47,13.71c.05,21.09.11,41.91.19,62.46v.19c-.8,2.14-1.95,3.62-4.27,4.07-13.11.15-26.36.19-39.75.14-.16.19-.33.33-.49.34-3.41.09-6.96.1-10.37.02-.17,0-.33-.16-.49-.35l-33.86.04c-1.45,0-2.91.02-4.37,0-.33,0-.86.12-1.06-.2l.54-.36,2.69-.04c-1-.93-2.88-2.74-2.06-4.06.08-2.41.14-4.87.19-7.36l.2-.4c.42-.26.86-.1.97.39-.04-.56,2.74-.48,2.99-.39.1.04.16.19.2.38,1.02.12,1.88,0,2.59-.38.07.18.14.33.27.39.24.12,4.84.09,5.3,0,.14-.03.25-.19.35-.39h7.82c.13.2.26.36.43.39.75.15,2.64.07,3.5,0,.16-.01.31-.18.45-.39h33.28c.31.5.62.5.93,0,.44.57.94.57,1.38,0,.3.5.61.5.91,0,.3.5.6.5.9,0,.43.57.91.57,1.33,0,.42.57.89.57,1.31,0,.59-.12,1.02,0,1.29.39.7-.13,1.39-.26,2.08-.39.27.5.54.5.81,0,.63.6,2.12.61,2.73,0l.38.39c.25-.5.49-.5.74,0,.69-.78,1.7-.34,2.46,0l.34-.39c.74.35,1.88.78,2.52,0,.39.59,1.85.61,2.2,0,.51.68,1.94.51,2.46,0,.16.56.46.56.88,0h.31c.07.56.75.57.77,0,.05.51.15.5.3,0,.11.48.3.56.4.13l.14.26c.72-.73,1.08-1.1,1.08-1.1l.1-50.75c-.17-.53-.44-1.03-.79-1.5h-.31c-.13.57-.37.57-.43,0-.02.56-.54.56-.6,0-.66-.11-1.15.02-1.49.39-.15-.57-.66-.56-.82,0-.61-.57-1.08-.57-1.41,0h-1.05c-.28-.59-1.13-.58-1.43,0h-.3c-.33-.59-1.23-.58-1.57,0h-.66c-.38-.59-1.34-.58-1.73,0h-.36c-.37-.58-1.09-.58-1.47,0h-.38c-.36-.57-.79-.56-1.16,0-.24-.45-1.13-.53-1.59-.39-.39.57-.84.57-1.23,0-.39-.12-5.82-.13-6.09,0-.17.08-.32.23-.45.39-.61-.55-1.89-.49-2.77-.39-.83.61-2.48.61-3.32,0l-.48.39c-.46-.57-.98-.57-1.45,0l-.49-.39c-.54.59-1.41.58-1.96,0-.76-.13-1.94-.12-2.46.39-.83-.13-1.65-.26-2.48-.39-.9.61-2.59.61-3.49,0-1.12-.15-2.02.09-2.98.39-.48-.57-1.01-.57-1.49,0-.33-.5-.66-.5-.99,0-.49-.13-.98-.26-1.48-.39-.47.57-1,.57-1.47,0h-2.9c-.73.6-2.13.61-2.85,0-.52-.06-3.03-.1-3.24,0-.17.08-.32.23-.45.39-.49-.58-1.31-.59-1.79,0h-1.32c-.29-.5-.58-.5-.87,0-.7-.6-2.25-.61-2.94,0-.48-.59-1.53-.6-2,0-.62.1-1.58.12-1.91-.39-.87-.12-1.48.07-2.16.39-.38-.58-1.32-.59-1.69,0h-.64c-.33-.58-1.22-.59-1.52,0-.26-.57-.88-.57-1.13,0-.33.04-.68-.09-1.05-.39-.21.57-.77.57-.96,0-.29-.12-1.51-.09-1.46.39-.12-.57-1.64-.61-1.68,0,0-.38-.32-.51-.95-.39.03.49-.39.62-.78.39l-.2.03-.19-1.77-.33-.4c.33-1.52,1.2-2.85,2.53-3.65l-2.84-.05-.52-.36c.2-.32.74-.19,1.06-.2,1.16-.01,2.34-.04,3.5,0,28.51.84,57.18-.21,85.73.2,2.13.34,4.01,2.06,4.17,4.27Z"/>
  <path class="cls-2" d="M99.66,76.17c-.32-.2-.19-.74-.2-1.06-.22-20.46.17-40.94,0-61.39h.19v62.46Z"/>
  <path class="cls-10" d="M5,9.45c1.49-.13,3.14.09,4.65,0l-2.1,1.49c-.68.85-1.27,1.88-1.39,2.97.18.83.18,1.61,0,2.33.09.29.18.57.24.87s.11.58.12.86c.04,2.59.06,5.2.03,7.79,0,.29-.06.58-.13.87s-.16.58-.26.86c.14.71.14,1.43,0,2.13.14,12.67.12,25.35,0,38.02l.13.27c.02,2.7-.02,5.39-.13,8.07.18,1.6,1.15,2.78,2.34,3.77l1.34.69c-1.58-.09-3.29.13-4.85,0-2.82-.23-4.63-2.56-4.66-5.33V14.4c.25-2.64,1.93-4.72,4.66-4.95Z"/>
  <path class="cls-6" d="M63.58,91.11c3.8.27,6.79,3.26,7.37,6.98-10.66.52-21.34.53-32.01,0-.67-.75.12-2.32.59-3.15,1.14-2.04,3.22-3.76,5.62-3.84.34-.21.71-.34,1.1-.4l8.74-.16c.4.49.79.49,1.18-.01.61-.22,6.19-.01,6.88.28.18.08.36.18.53.29Z"/>
  <path class="cls-5" d="M95.39,80.44c-.11.02-.39.32-.66.21h-39.5s0,10.27,0,10.27l8.34.19c-5.75-.4-12.57-.04-18.43,0-2.57.41-5.57.48-8.2.34l-.73-.34,8.53-.19v-10.28c-11.44,0-22.89,0-34.33,0l84.96-.19Z"/>
  <path class="cls-10" d="M36.23,91.11c2.78-.22,6.07.02,8.92,0-3.22.92-5.9,3.55-6.21,6.98-3.29,0-6.6,0-9.89,0,.5-3.6,3.5-6.69,7.18-6.98Z"/>
  <path class="cls-7" d="M92.68,15.27c.73.11,1.21.91,1.17,1.64l-.1,50.74c-.38.81-.65.89-1.47.96h-27.16l-.39-.14V15.51l.39-.24h27.54Z"/>
  <path class="cls-7" d="M7.33,15.27h55.67l.39.18v11.42l-.39.23c-5.19.15-10.42.21-15.71.19-.8,1.39-1.4,2.89-1.81,4.51-.3.5-.91.44-1.13-.09l-3.72-10.56c-.85-.74-1.19-.21-1.52.68-1.16,3.14-2.28,6.31-3.36,9.49-.76,1.56-1.4.94-1.94-1.85-1.01-3.05-2.08-2.22-3.2,2.48-.63.58-1.11.2-1.42-1.15l-2.72-8.1c-.72-2.4-1.84-2.52-2.5-.01l-1.34,4.11c-.17.42-.32.78-.73,1l-15.29.07-.23-.39c-.06.17-.12.17-.19,0,.01-3.74-.1-7.51,0-11.25.06-.38.19-.58.39-.58.26-.28.39-.34.78-.39Z"/>
  <path class="cls-7" d="M6.36,67.64c-.18-7.97-.22-16.61,0-24.63l.13-.39h27.37l.24.39.39.14v25.23l-.39.24h-6.79l-.36-.46c.3-3.69-.13-7.86-3.85-9.66l-.25-.55-.06-.45c2.73-2.36,2.27-6.75-1.34-7.9-4.83-1.54-7.79,4.73-4.08,7.85l.05.51-.24.56c-2.2,1.12-3.63,3.1-3.8,5.58l-.42.45c-.13,1.33-.15,2.67-.08,4.02-1.78.09-3.57.11-5.35.06-.42-.04-.65-.1-.97-.39-.3.07-.33-.34-.19-.58Z"/>
  <path class="cls-5" d="M92.68,15.27h-27.54v53.34h27.16H7.52c1.68.14,3.54-.11,5.24,0,.19-.19-.29-3.54.19-4.07.57,1,.56,2.8.15,3.82,4.73-.21,9.5-.33,14.21.25,2.26,0,4.53,0,6.79,0v-25.6H6.36v24.63c-.06.17-.12.17-.19,0-.08-12.67-.03-25.35,0-38.02.06-.17.12-.17.19,0,.38,3.75.38,7.5,0,11.25l.19-.39h55.92l.24.39-.15-.35c.18-3.58.18-7.16,0-10.75l.25-.35c-.24-.43-.32-1.01-.24-1.75h-15.05s-.23-.39-.23-.39l15.71-.19v-11.83H7.33h85.35Z"/>
  <path class="cls-12" d="M6.55,68.22c0,2.12-.17,4.49-.19,6.69,0,.33.12.86-.2,1.06-.27-2.45.02-5.77,0-8.34h.19c0,.21.19.48.19.58Z"/>
  <path class="cls-9" d="M6.55,15.65c-.11.11-.15.48-.39.58.02-.75-.08-1.61,0-2.33l.39,1.75Z"/>
  <path class="cls-8" d="M6.36,29.62h-.19c0-.71,0-1.42,0-2.13h.19c.61.13.59,1.95,0,2.13Z"/>
  <path class="cls-3" d="M85.31,21.47v5.82h-15.71v-5.53s.27-.29.29-.29h15.42Z"/>
  <path class="cls-4" d="M69.15,43.82l19.17-.05c1.44.16,1.35,1.97,0,2.15h-18.64c-1.09.05-1.52-1.81-.53-2.1Z"/>
  <path class="cls-4" d="M69.15,49.64l19.17-.05c1.44.16,1.35,1.97,0,2.15h-18.64c-1.09.05-1.52-1.81-.53-2.1Z"/>
  <path class="cls-4" d="M69.15,55.46l19.17-.05c1.44.16,1.35,1.97,0,2.15h-18.64c-1.09.05-1.52-1.81-.53-2.1Z"/>
  <path class="cls-4" d="M69.15,61.28l19.17-.05c1.44.16,1.35,1.97,0,2.15h-18.64c-1.09.05-1.52-1.81-.53-2.1Z"/>
  <path class="cls-1" d="M78.28,34.03c-.21.21-.71.22-1.01.25-1.8.15-6.03.21-7.76-.03-1.02-.14-1.2-1.47-.61-1.94.69-.55,7.55.05,8.94-.17.85.05.86,1.47.44,1.89Z"/>
  <path class="cls-1" d="M78.28,39.85c-.21.21-.71.22-1.01.25-1.8.15-6.03.21-7.76-.03-1.02-.14-1.2-1.47-.61-1.94.69-.55,7.55.05,8.94-.17.85.05.86,1.47.44,1.89Z"/>
  <path class="cls-4" d="M6.36,27.49l15.39-.03c.75-.25,1.91-6.4,2.84-6.85.39-.19.92-.18,1.28.08.92.66,3.4,9.64,4.16,11.26.27.06.21-.2.29-.39.33-.8,1.08-3.89,1.65-4.17,2-.97,2.44,3.32,2.91,4.56l.29-.19c1.21-3.22,2.17-6.56,3.44-9.75.48-1.22.97-2.29,2.32-1.07l3.84,10.81c.5.08.3-.05.4-.27.49-1.07.87-3.99,2.12-4.19h15.71c0,.55.01,1.11,0,1.66,0,.25-.2.45-.2.47l-.18.39-14.09.02c-.75,1.92-1.45,3.87-2.09,5.85-.67,1.37-2.02,1.65-2.84.26l-3.62-10.05-3.49,9.77c-.62,1.81-2.83,1.43-3.2-.35l-.73-2.37c-.27,1.4-1.62,5.41-3.54,3.5l-3.85-10.52-.7,2.4c-.23.71-.5,1.53-1.34,1.64l-16.56.05-.24-.39v-2.13Z"/>
  <path class="cls-11" d="M22.85,57.94c4.49,2.03,4.78,6.26,4.46,10.67-4.78.02-9.57-.02-14.35,0,.05-1.35-.07-2.73,0-4.07.17-3.22,1.6-5.17,4.46-6.6l.43-.2c1.42.65,3.15.69,4.56.01l.44.19Z"/>
  <path class="cls-3" d="M22.85,57.94c-1.4.94-4.02.89-5.43,0-2.71-1.7-2.8-6.21-.18-8.04,3.86-2.7,8.94.94,7.45,5.51-.21.63-1.32,2.17-1.84,2.52Z"/>
  <path class="cls-7" d="M62.81,29.43c.05,3.39.6,7.39.2,10.78-.02.2-.09.67-.3.67H6.36v-11.25l16.74-.05c.23-.05.38-.09.53-.28.54-.67.91-2.93,1.33-3.86.1-.23-.09-.35.4-.27l3.93,11.01c2.65,1.3,2.17-3.01,3.44-4.22.34,1.02.81,3.32,1.35,4.13.28.42,1.29.43,1.68.15.47-.34,3.28-8.98,3.82-10.34.1-.26.24-.88.53-.92l3.84,10.8c.69,1.14,1.6.82,2.15-.26.44-.87,1.76-5.88,2.28-6.06l14.42-.03Z"/>
  <rect class="cls-7" x="36.23" y="43" width="26.77" height="25.6"/>
  <path class="cls-11" d="M45.1,48.29c1.8-.27,3.25.65,4.44,1.88.81-.45,1.19-1.15,2.1-1.54,4.11-1.75,7.68,2.83,5.04,6.59l-7,6.98c-.23.05-.32-.16-.46-.27-1.35-1.04-5.65-5.34-6.69-6.69-2.04-2.65-.73-6.44,2.57-6.94Z"/>
</svg>