<?xml version="1.0" encoding="UTF-8"?>
<svg id="Layer_3" data-name="Layer 3" xmlns="http://www.w3.org/2000/svg" viewBox="0 0 100 100">
  <defs>
    <style>
      .cls-1 {
        fill: #82c8fc;
      }

      .cls-2 {
        fill: #c3d2e0;
      }

      .cls-3 {
        fill: #bdc2bd;
      }

      .cls-4 {
        fill: #c4bdad;
      }

      .cls-5 {
        fill: #0584e2;
      }

      .cls-6 {
        fill: #d9e9f9;
      }

      .cls-7 {
        fill: #b93333;
      }

      .cls-8 {
        fill: #c2bcad;
      }

      .cls-9 {
        fill: #056bb7;
      }

      .cls-10 {
        fill: #7dc1e0;
      }

      .cls-11 {
        fill: #70d940;
      }

      .cls-12 {
        fill: #0592fb;
      }

      .cls-13 {
        fill: #8bd6f9;
      }

      .cls-14 {
        fill: #054d85;
      }

      .cls-15 {
        fill: #fabc80;
      }

      .cls-16 {
        fill: #8ad6f9;
      }

      .cls-17 {
        fill: #cfd9db;
      }

      .cls-18 {
        fill: #e1a973;
      }

      .cls-19 {
        fill: #cad7dd;
      }

      .cls-20 {
        fill: #dbe5ec;
      }

      .cls-21 {
        fill: #fcddbf;
      }

      .cls-22 {
        fill: #fe4646;
      }
    </style>
  </defs>
  <path class="cls-12" d="M37.33,40.34c.23.3.19.45-.18.37-1.48,2.38-3.7,4.75-5.79,6.69-.35.32-.79.51-1.23.69-.85-.8-1.71-1.62-2.58-2.4,0,6.89,0,13.79,0,20.68l-.32.24c-3.88-.1-7.79-.16-11.73-.19l-.68-.24-.19-.43c1.06-1.38,1.26-2.65,1.41-4.33s.55-10.34-.06-11.3c-.54-.85-1.35-.75-2.07-.22l-.39-.15c-.33-.66-.47-1.4-.4-2.22H3.05s-.22-.37-.22-.37c0-2.98-.07-5.88-.18-8.68v-.55c1.07-4.32,3.76-6.56,8.2-6.84,4.1-.26,11.11-.37,15.13.01.47.04.93.19,1.39.28,3.47,2.72,6.8,5.84,9.96,8.95Z"/>
  <path class="cls-1" d="M2.83,47.17c-.05.16-.11.16-.18,0v-8.68c.31.19.18.7.19,1.01.03,2.55,0,5.11,0,7.66Z"/>
  <path class="cls-21" d="M2.83,62.13h-.18v-8.49c.05-.16.11-.16.18,0l.37.63c-.09,2.41-.11,4.82-.05,7.23l-.32.63Z"/>
  <path class="cls-3" d="M2.83,53.63h-.18v-6.46h.18c.51,2.14.5,4.32,0,6.46Z"/>
  <path class="cls-16" d="M95.08,57.88c-2.46.17-4.92.17-7.38,0-4.93.15-9.91.2-14.92.15-.07.19-.15.34-.23.34-.59.04-3.5.15-3.84.03-.09-.03-.15-.18-.19-.35h-3.33c-1.32,0-2.41.08-3.69-.17l.16-.37h2.15c-.63-.51-.78-.97-.47-1.38l-.37-.17v-13.73l.37-.22c1.65.01,3.32-.05,4.98-.18-.11-.54.23-.63.55-.18l.53.22c2.82,2.76,5.67,5.51,8.81,7.92,3.07-2.34,5.92-4.94,8.53-7.79l.94-.54.22-.32c1.55.19,3.11.32,4.67.31,2.14.07,2.17-2.47.06-2.43l-2.44.06-.29-.4-.1-.5c2.77-4.1,5.03-11.38-.41-14.33-4.08-2.21-8.31-.01-10.98,3.3-.23.21-.44.2-.63-.04-3.05-5.21-12.03-5.87-13.81.69l-.46.35c-.42.33-.56-.02-.58-.47-.15-3.45-.16-6.91-.03-10.36.15-1.4.62-2.28,2.09-2.46,10.17-.14,20.43-.01,30.58.14,1.39.59,1.45,2.1,1.54,3.45.77,11.89-.6,24.59,0,36.57-.16,1.62-.39,2.46-2.04,2.86Z"/>
  <path class="cls-9" d="M8.73,66.19c1.8-.2,3.58-.39,5.39-.36l.7.36c3.85-.03,7.89-.14,11.73,0,.35.01.7-.02,1.01.19,0,8.46,0,16.93,0,25.39-.42,4.81-5.79,7.09-9.23,3.41l-.37-.87v-18.96c-.24-1.53-2.03-1.22-2.22.18v18.64s-.18,1.01-.18,1.01c-2.88,3.26-8,1.91-9.14-2.2l-.08-26.97c.42-.39,2.16-.4,2.4.18Z"/>
  <path class="cls-15" d="M19.25,26.49c-5-.4-8.44-5.45-8.44-10.24,0-4.8,3.44-9.85,8.44-10.25,11.51,1.97,11.42,18.63,0,20.49Z"/>
  <path class="cls-11" d="M42.86,53.45v21.7c.37,5.1,3.17,10.56,8.07,12.6,3.44,1.43,14.2,1.44,17.64.02,5.39-2.23,7.93-7.89,8.05-13.45.07-1.06.14-2.11.18-3.14.3-.6,2.59-.58,2.95,0,.86,8.17-3.24,17.72-11.66,19.99-3.06.83-10.76.77-14.07.5-8.16-.67-13.74-8.48-14.12-16.24-.06-7.35-.1-14.71-.11-22.06,1.03-.04,2.05-.01,3.06.09Z"/>
  <path class="cls-15" d="M2.83,47.17h10.7c0,.86,0,1.73,0,2.58.09.12.18.24.25.37s.12.25.13.38c.13,3.43.24,7.03.02,10.45-.2,3.1-1.91,5.41-5.2,5.23-.88-.07-1.47.05-2.4-.18-1.69-.43-3.35-2.12-3.51-3.88-.23-2.6.01-5.81,0-8.49-.01-2.15,0-4.31,0-6.46Z"/>
  <path class="cls-10" d="M65.01,14.86c-.75.49-1.5.97-1.65,1.95-.4,2.57-.05,7.51-.02,10.33,0,.31-.12.82.19,1.01.28.48.34,1.09.18,1.85.17.76.11,1.38-.18,1.84.3,2.26.36,4.53.19,6.81l-.37.21-.13.4c-1.91.82-.79,2.52.95,2.25l3.8-.03.37.33c-1.57.42-3.36.07-4.98.18v14.12c0,.14.33.68.45.84.3.4.78.55,1.02.91h-3.32c-1.28-.25-1.75-.52-2.03-1.93V16.79c.31-2.59,3.67-1.91,5.54-1.93Z"/>
  <path class="cls-6" d="M95.08,57.88c-.16.04-.26.17-.62.2-2.15.19-4.58-.17-6.76-.01v7.02c-1.41-.03-2.83.04-4.24,0-.07.27-.28.32-.65.17l-5.47.02c-1.36-.44-3-.34-4.4-.19-1.2,0-2.85.15-3.98,0-.15-.02-.28,0-.27-.19.04-.14.1-.36.21-.37.33-.04,3.25-.07,3.41,0,.14.06.2.22.26.37-.09,0-.17.01-.25-.01-.32-.11-.23-6.29-.12-6.6l.37-.22c5.1,0,10.14-.06,15.13-.18,2.46-.05,4.92.03,7.38,0Z"/>
  <path class="cls-18" d="M19.25,6c-10.77,3-10.76,17.51,0,20.49-8.16,1.34-14.47-6.7-11.29-14.34,1.84-4.43,6.57-6.96,11.29-6.15Z"/>
  <path class="cls-6" d="M38.81,41.63c.3.32.47.7.92.92,1.65.15,3.31.21,4.98.18l.37.17v10.13l-.37.22c-2.43.31-4.85.34-7.24.09v-12.53s.23-.12.23-.12l1.11.92Z"/>
  <path class="cls-14" d="M18.33,95.18c-.79-.84-1.23-1.37-1.38-2.59-.37,1-.67,1.78-1.38,2.59-.31-.19-.18-.7-.19-1.01-.07-6.22.06-12.44,0-18.65.22-1.92,2.74-2.12,2.96-.18v19.85Z"/>
  <path class="cls-15" d="M46,42.74c5.84.56,6.56,9.32.18,10.52-.53.1-1.02.1-1.48,0v-10.52h1.29Z"/>
  <path class="cls-15" d="M37.33,53.26c-.53.2-1.26.13-1.85,0-1.62-1.13-3.8-3.7-5.35-5.17,2.43-2.36,4.69-4.92,7.01-7.39.16-.17.24-.08.35.09.04,4.1-.02,8.25-.17,12.46Z"/>
  <path class="cls-13" d="M83.46,65.08v6.09c-1.23,0-2.46,0-3.69,0h-2.95c-.39-1.95-.49-3.94-.23-5.92-1.23.29-2.46.3-3.64-.18l.27-.19c3.21.07,6.42-.08,9.63,0,.33,0,.59.2.62.2Z"/>
  <path class="cls-2" d="M87.7,57.88s-.29.19-.62.2c-4.83.08-9.68-.09-14.51-.01v6.83h-3.87v-6.83c-1.17,0-2.34.01-3.51,0l22.51-.18Z"/>
  <path class="cls-10" d="M72.94,65.08c1.29,0,2.59,0,3.88,0,0,2.03,0,4.07,0,6.09,0,1,.16,2.25-.18,3.14.02-1.04-.02-2.1,0-3.14h-3.69v-6.09Z"/>
  <path class="cls-17" d="M37.7,40.71l-.19,12.56c2.4,0,4.8,0,7.2,0,.16.05.16.11,0,.18-.61.03-1.23,0-1.85,0-.98,0-1.97,0-2.95,0,.27,7.25-.35,14.75,0,21.97l-.18-21.97c-.8-.01-1.6.02-2.4,0-.16-.05-.16-.11,0-.18-.04-3.84.05-7.7,0-11.54,0-.31.12-.82-.19-1.01.08-.08.11-.27.18-.37.13.13.24.24.37.37Z"/>
  <path class="cls-19" d="M46,42.74c-.42-.04-.87.01-1.29,0-1.2-.04-4.12.23-4.98-.18l6.27.18Z"/>
  <path class="cls-20" d="M38.81,41.63c-.56-.02-.78-.58-1.11-.92.5-.06.83.63,1.11.92Z"/>
  <path class="cls-4" d="M37.33,53.26v.18c-.61-.02-1.36.16-1.85-.18h1.85Z"/>
  <path class="cls-8" d="M46.19,53.26c-.59.11-.83.15-1.48.18v-.18h1.48Z"/>
  <path class="cls-5" d="M14.82,66.19c-2.09.01-3.96.16-6.09,0,2.76-.32,4.58-2.09,4.8-4.89.28-3.53.03-7.93,0-11.55,1.05-1.01,2.76-.81,2.96.83.28,2.41.23,11.27-.47,13.38-.25.77-.84,1.49-1.19,2.22Z"/>
  <path class="cls-22" d="M63.53,28.15c1.4-7.29,11.49-6.94,14.58-1.11,2.76-3.72,7.55-5.94,11.87-3.29,5.31,3.27,2.83,10.84-.06,14.92-.34.84-1.02-.29-1.32-.82l-1.84-3.27c-.43-.69-1.17-1.24-1.95-.73l-2.19,3.16c-.32.24-.59.34-.84,0l-2.2-5.53c-.6-1.25-1.61-1.94-2.43-.47l-2.06,5.22c-.21.62-.63,1.19-1.21.62l-1.3-2.36c-1.33-2.37-2.65-.44-3.43,1.14l-1.25,2.49c-.49,1.02-.91,1.27-1.24.74l-.59-.26c-1.53-2.07-2.38-4.33-2.55-6.76-.23-1.38-.27-2.3,0-3.69Z"/>
  <path class="cls-7" d="M66.67,38.86c.18-.02.21.06.38-.12,1.2-1.25,2.81-7.6,5.25-5.24.78.76,1.3,2.45,2.02,3.33.45-.22,2.02-5.44,2.7-6.34.89-1.16,2.01-.7,2.66.42,1.01,1.75,1.56,4.26,2.48,6.1l2.38-3.43c.69-.54,1.55-.33,2.12.3,1.01,1.11,1.82,3.35,2.78,4.61.11.17.28.16.46.18,1.34.2,4.33-.7,4.61,1.21.22,1.52-.79,1.86-2.11,1.93-.55.03-4.52-.23-4.71-.38l-.44.06-1.82-3.18-1.44,2.39c-1.12,1.86-3.13,2.16-4-.07l-1.76-4.36-.88,2.49c-.83,2.58-2.36,5.23-4.73,2.02l-1.42-2.51-1.87,3.3-.45.05c-.2-.02-.41.16-.55.18-.98.14-4.06.12-5.08,0-1.93-.23-1.79-2.72.1-2.96.52-.71,2.59-.46,3.32,0Z"/>
  <path class="cls-22" d="M87.7,41.45c-2.72,3.31-6.01,6.14-9.47,8.65-3.47-2.41-6.53-5.35-9.35-8.47l2.31-4.06c1.16,1.21,1.91,5.09,4.15,4.15.94-.39,2.35-5.04,2.77-6.18.23.02.31.25.4.43.61,1.12,1.77,5.35,2.74,5.75,2.1.89,3.06-2.8,4.15-3.96.38-.01,1.89,3.38,2.31,3.69Z"/>
  <path class="cls-13" d="M66.67,38.86c-1.02.14-2.29-.13-3.32,0l.18-7.02c.43,2.55,1.8,4.85,3.14,7.02Z"/>
</svg>