<?xml version="1.0" encoding="UTF-8"?>
<svg id="Layer_3" data-name="Layer 3" xmlns="http://www.w3.org/2000/svg" viewBox="0 0 100 100">
  <defs>
    <style>
      .cls-1 {
        fill: #f1b509;
      }

      .cls-2 {
        fill: #fcfcfc;
      }

      .cls-3 {
        fill: #fedbb5;
      }

      .cls-4 {
        fill: #f95655;
      }

      .cls-5 {
        fill: #1cabbd;
      }

      .cls-6 {
        fill: #1eabbb;
      }

      .cls-7 {
        fill: #f2b60b;
      }

      .cls-8 {
        fill: #bbb;
      }

      .cls-9 {
        fill: #21bcd5;
      }

      .cls-10 {
        fill: #555;
      }

      .cls-11 {
        fill: #565655;
      }

      .cls-12 {
        fill: #545454;
      }

      .cls-13 {
        fill: #e4e4e4;
      }

      .cls-14 {
        fill: #3e3e3f;
      }

      .cls-15 {
        fill: #10a2b1;
      }

      .cls-16 {
        fill: #d8a782;
      }
    </style>
  </defs>
  <path class="cls-3" d="M32.03,24.65l.52.58c.41,2.18.95,4.54,2,6.36-1.01-4.28-1.18-9.74,1.96-13.18,1.83-2.01,3.21-1.57,5.24-.22,4.99,2.43,10.12,1.82,14.83-.64,7.19-2.01,8.28,8.67,8.41,13.58.98-1.65,1.48-3.54,1.82-5.42l.49-.44c3.31-1.24,3.32,3.15,3.13,5.32s-1.7,6.25-3.7,7.15c-.41.18-1.13.19-1.32.4-.24.26-1.36,3.13-1.75,3.84-1.38,2.51-3.52,5.5-5.74,7.3-1.54,2.34-5.16,3.57-7.93,3.57-2.78,0-6.39-1.23-7.93-3.57-2.22-1.81-4.36-4.79-5.74-7.3-.39-.71-1.51-3.58-1.75-3.84-.19-.21-.92-.21-1.32-.4-3.03-1.37-5.25-10.34-2.68-12.38.68-.54,1.51.07,1.48-.71Z"/>
  <path class="cls-13" d="M71.27,78.08l-.33.43c-3.88.27-4.14,6.06-.34,6.72,4.01.7,5.66-4.81,2.07-6.45l-.14-.5-.35-.71c.69-6.57.98-13.86-3.3-19.36l-.12-.8c1.67.72,4.12,1.18,5.95,1.87,6.06,2.31,9.12,5.64,10.47,12.07,1.62,7.72,2.42,15.8,4,23.55.33,1.82-.41,3.55-2.37,3.84-11.1,0-22.2-.01-33.3,0l-.32-.3,12.95-28.94c-1.35-.84-2.68-1.72-4-2.62l.14-.48c0-.16.04-.41.14-.42.94-.09,6.72-.17,7.29,0l.71.42-.71-.25c-2.68-3.45-5.35-6.9-8.02-10.36l.18-.45c.13-.44.38-.46.78-.39,9.56,1.54,10.8,15.13,9.11,22.7l-.5.44Z"/>
  <path class="cls-13" d="M29.73,57.84l.06.61c-1.95,2.83-1.35,6.23-.78,9.38l-.42.48c.28.75.41,1.5.38,2.24-3.24,1.26-5.49,3.88-6,7.36-.12.79-.28,2.13.29,2.67l.43.08,1.37,9.56c.45,1.1,1.63,1.21,2.65.88l.35.33.46-.08c2.49,1.3,2.01-3.17-.2-.92l-.47.17c-.23,1.19-2.48.74-2.81-.45l-1.32-9.27.37-.3c-.03-.21-.04-.44.17-.5-.57-4.17,2.53-8.16,6.71-8.68,1.05-.13,3.08-.17,3.55.83l.72.61c2.08,4.74,4.17,9.49,6.24,14.23l-.28.4c-.06.18-.13.18-.21,0l-.46.08c-2.51-1.29-2.01,3.18.2.91l.46-.15c.06-.18.13-.18.21,0,.6-.11.76.03,1.12.48l4.17,9.56-.28.4c-11.1,0-22.2,0-33.3,0-2.15-.42-2.52-1.87-2.37-3.84.44-5.92,2.26-13.98,3.38-20,.78-4.23,1.04-7.47,3.91-10.91,3.07-3.69,7.28-4.76,11.68-6.16Z"/>
  <path class="cls-14" d="M32.03,24.65c-.25-1.58-.23-3.4-.42-5.01l-1.04.83c-.62-4.34.4-9.04,4.53-11.23.76-.4,2.45-.75,2.78-.98.15-.11.7-2,1.12-2.63,1.56-2.34,5.49-3.28,8.17-3.31.28.29-.46.29-.63.62-.14.27-.11.56-.1.84,4.09-1.91,8.43-1.44,12.52.21l-3.05.6c-1.1.39.44.44.76.53,8.01,2.35,11.38,9.39,11.68,17.33l-.83-1.56c.06,1.49-.01,2.91-.21,4.38-.33,2.43-1.21,5.37-2.71,7.31.05-3.89-.54-12.43-4.45-14.44-2.67-1.37-4.82.69-7.24,1.4-3.98,1.18-7.43.71-11.21-.91-2.06-.88-2.22-2.09-4.43-.33-2.49,1.97-3.09,6.17-2.94,9.16.11,2.14.82,4.24.94,6.37-1.79-2.62-2.75-6.05-3.24-9.18Z"/>
  <path class="cls-8" d="M39.12,56.37c.16.23.34.57.21.83,1.99,7.16,3.67,14.4,5.04,21.73,1.07,4.13,1.9,8.3,2.47,12.5l.42.31c.22,2.2.75,4.37,1.28,6.52.93.11,1.86.14,2.79.08l.31.4c.62-.37.81-.7.58-1.01l.05-1.29c-.53-.53-.27-2,.42-2.3.66-.48.79-.97.42-1.46-.58-.12-.6-1.15,0-1.25.61-4.4,1.47-8.77,2.59-13.1,1.33-7.13,2.98-14.17,4.92-21.13-.14-.27.05-.6.21-.83-.58-.25-.16-1.46.42-1.46.42-.26.63-.04.63.42l8.56,11.06h-8.14c.88,1.16,3.33,1.87,4.18,2.83.09.1.21.14.12.32l-13.07,29.21c-2.27,0-4.81,0-7.1,0l-4.28-9.81-.73-.63.09-.47c1.02-.26,1.91-.93,1.81-2.07l-3.05-8.99.32-.37c.15-1.23-1.22-2.83-2.1-3.72-1.81-1.82-3.97-2.8-6.52-2.51-.73.04-1.05-.18-.98-.65l.29-.38c.6.78,5.41-2.15,5.17-2.32l-6.55-.02-.38-.42c-.6.11-.67-.23-.21-.63,2.89-3.09,5.51-6.55,8.03-9.98.41-.14.52-.29.32-.45-.07-.53.61-.9,1.04-.63.54.29.92,1.21.42,1.67Z"/>
  <path class="cls-12" d="M39.12,54.08c.38.45.17.84-.42.63-.36.33-.48.48-1.04.63l-.25.49c-5.15.38-8.79,4.02-7.77,9.36l-.33.59c.04.25.15.43.21.63.99.59,1.97,1.81,1.46,3.13.82.44,1.88.13,2.8.23,3.31.37,6.29,3.35,7.43,6.34-.14.3-.44.23-.62.31.04.59-.38.74-.83.42-.08.7-.83.4-1.15-.09-.56-1.64-1.78-3.1-3.39-3.79l-.68-.71c-1.98-.67-3.96-.66-5.85.3-2.74,1.4-4.59,4.65-3.94,7.71-.02.13-.51.3-.64.34-.15.62-.64.58-.83,0-.13.01-.39.28-.62.21-.9-4.25,1.83-9.27,6.05-10.44l-.62-2.4.63-.21c-.9-3.17-1.17-7.2,1.04-9.91,1.97-2.42,6.35-3.78,9.39-3.76Z"/>
  <path class="cls-9" d="M48.73,59.71c.28.61-.79,1.72-1.46,1.67-.03.31-.08.63-.26.89-.58.79-3.85,4.36-4.47,4.15-.66-.23-2.39-6.62-2.8-8.16-.09-.34-.15-.7-.19-1.05-.15-.25-.29-.52-.42-.83-.11-.5-.46-1.08-.42-1.67.16-.14.26-.48.42-.63.96-.91,1.93-1.84,2.92-2.71.14-.08.36-.16.44-.07,1.22,1.34,5.89,6.61,6.41,7.86l-.17.55Z"/>
  <path class="cls-9" d="M60.83,54.08c.63.13.93.32.42.83-.05.5-.31,1-.42,1.46-.13.31-.27.59-.42.83-.17,1.42-2.46,9.18-3.02,9.24-.81.08-4.51-3.9-4.7-5.06-.71.04-1.66-1.01-1.46-1.67l-.21-.41c2.13-2.67,4.27-5.34,6.4-8l.48.07c.9.88,2.1,1.81,2.92,2.71Z"/>
  <path class="cls-3" d="M57.91,50.11c0,.32.07,1.04,0,1.25l-6.68,8.35c-.1.63-2.25.57-2.5,0-.46-.92-1.23-1.8-1.88-2.6s-4.67-5.35-4.8-5.74c-.07-.21,0-.93,0-1.25h.42c4.61,3.63,10.42,3.63,15.03,0h.42Z"/>
  <path class="cls-12" d="M68.76,57.42c4.98,5.84,4.51,13.67,3.76,20.87-.35.46-1.06.33-1.25-.21,1.47-8.31,1.29-19.95-8.51-22.7-.31-.09-.64,0-.88-.05-.4-.08-.39-.08-.63-.42-.13-.19-.16-.55-.42-.83,1.53-.05,3.11.41,4.49,1.04,1.3.6,2.41,1.85,3.44,2.3Z"/>
  <path class="cls-16" d="M57.91,49.28v.83c-4.63,4.23-11.23,4.21-15.86,0v-.83c5.17,4.21,10.69,4.2,15.86,0Z"/>
  <path class="cls-14" d="M71.27,78.08c.56,0,.74.04,1.25.21,4.14,1.36,2.89,7.66-1.47,7.42-4.84-.27-4.79-7.58.22-7.63Z"/>
  <path class="cls-8" d="M39.75,76.83c.32-.22.5-.14.6.2l2.95,8.67c.25,1.11-1.37,2.66-2.1,1.77l-6.68-15.24c2.03.69,2.94,1.56,4.06,3.35.21.33.27.84.43,1.04.24.31.6.14.73.21Z"/>
  <path class="cls-7" d="M24.1,80.59l1.31,9.44c.41.99,1.58.98,2.45.58.59-.04.68.51.21.83-1.39.44-2.78.39-3.38-1.1l-1.42-9.75c.26-.02.62.05.83,0Z"/>
  <path class="cls-1" d="M41.42,88.31h-.21c-.6.06-.73-.56-.21-.83h.21c1.09-.16,1.92-.72,1.65-1.96-.51-1.01-2.71-8.47-3.12-8.68.22-.25.55-.29.83-.42l3.14,9.29c.09,1.53-1.03,2.17-2.31,2.6Z"/>
  <path class="cls-10" d="M28.06,91.44c-.05-.08-.22-.74-.21-.83.13-1.27,2.29-1.72,2.67-.48.57,1.86-1.66,2.58-2.46,1.32Z"/>
  <path class="cls-11" d="M41,87.47s.21.79.21.83c-.11,1.22-2.28,1.75-2.67.48-.58-1.9,1.73-2.56,2.46-1.32Z"/>
  <path class="cls-4" d="M51.23,59.71c.24.06,1.16,1.36,1.46,1.67-.11.46-.46.65-1.06.59.71,8.82,1.31,17.7,1.79,26.64l-.31,2.83c0,.39.05.88,0,1.25.63.42.09,1.12-.42,1.46-.13.74-.26,1.58-.42,2.3.21,1.15,0,1.92-.63,2.3-.61.03-3.22.13-3.45-.2-.18-.25-1.21-5.36-1.29-6.02-.05-.38-.06-.7-.06-1.08l-.33-3.52c.53-8.7,1.14-17.34,1.82-25.94-.61.06-.96-.14-1.07-.59.3-.31,1.22-1.61,1.46-1.67.26-.06,2.25-.06,2.5,0Z"/>
  <path class="cls-15" d="M39.54,57.21c1.04,2.99,2.13,5.97,3.13,8.97,1.64-1.48,3.06-3.2,4.59-4.8,1.37.4,1.57-.27,1.47,1.37-.6,9.33-1.79,19.43-1.89,28.69-2.82-11.33-5.04-22.82-7.51-34.23.06-.18.13-.18.21,0Z"/>
  <path class="cls-15" d="M53.11,91.44c-.14-9.32-1.28-19.31-1.89-28.69-.11-1.64.09-.96,1.47-1.37,1.53,1.6,2.95,3.32,4.59,4.8.95-3.02,2.17-5.96,3.13-8.97.06-.18.13-.18.21,0-2.47,11.41-4.72,22.89-7.51,34.23Z"/>
  <path class="cls-13" d="M37.66,55.33c.78-.14.12.55,0,.73-2.01,2.76-5.31,7.11-7.61,9.51-.24.25-.37.51-.73.2-.81-4.55.59-8,5.01-9.7,1.18-.45,2.27-.44,3.34-.73Z"/>
  <path class="cls-13" d="M29.52,66.39h8.35s-4.6,3.02-4.6,3.02c-.4.13-1.96.22-2.29.11-.35-.12-.36-1.6-.61-1.96-.28-.41-.43.4-.85-1.17Z"/>
  <path class="cls-8" d="M52.27,96.45c-.02.92.73,1.24.42,2.3-.35.01-.7-.02-1.04,0,.11-.76.47-1.58.63-2.3Z"/>
  <path class="cls-8" d="M53.11,92.69c1.22.41.65,1.25-.42,1.46.08-.45.38-1.16.42-1.46Z"/>
  <path class="cls-5" d="M39.54,57.21h-.21c-.05-.24-.14-.54-.21-.83.36.19.31.54.42.83Z"/>
  <path class="cls-6" d="M60.62,57.21h-.21c.1-.31.07-.64.42-.83-.06.28-.15.58-.21.83Z"/>
  <path class="cls-2" d="M71,80.41c1.91-.35,2.27,2.61.57,2.89-2.15.35-2.36-2.56-.57-2.89Z"/>
</svg>