<?xml version="1.0" encoding="UTF-8"?>
<svg id="Layer_3" data-name="Layer 3" xmlns="http://www.w3.org/2000/svg" viewBox="0 0 100 100">
  <defs>
    <style>
      .cls-1 {
        fill: #394b7d;
      }

      .cls-2 {
        fill: #d1f0fc;
      }

      .cls-3 {
        fill: #405282;
      }

      .cls-4 {
        fill: #a2bacf;
      }

      .cls-5 {
        fill: #f3f6f9;
      }

      .cls-6 {
        fill: #34dfa9;
      }

      .cls-7 {
        fill: #3f5281;
      }

      .cls-8 {
        fill: #3a4d7e;
      }

      .cls-9 {
        fill: #fa6768;
      }

      .cls-10 {
        fill: #fefd99;
      }

      .cls-11 {
        fill: #bbd9e5;
      }

      .cls-12 {
        fill: #384b7d;
      }

      .cls-13 {
        fill: #00bbde;
      }

      .cls-14 {
        fill: #55658f;
      }

      .cls-15 {
        fill: #475987;
      }

      .cls-16 {
        fill: #3a4b7c;
      }

      .cls-17 {
        fill: #fe4b3a;
      }

      .cls-18 {
        fill: #29d8f0;
      }

      .cls-19 {
        fill: #fa6564;
      }

      .cls-20 {
        fill: #878787;
      }

      .cls-21 {
        fill: #a3bbd0;
      }

      .cls-22 {
        fill: #29cfe6;
      }

      .cls-23 {
        fill: #00fec0;
      }

      .cls-24 {
        fill: #fdfdfe;
      }

      .cls-25 {
        fill: #4c5d8a;
      }

      .cls-26 {
        fill: #fde73e;
      }

      .cls-27 {
        fill: #d3f3fe;
      }

      .cls-28 {
        fill: #f2fbfe;
      }

      .cls-29 {
        fill: #00fdc0;
      }

      .cls-30 {
        fill: #fefefe;
      }

      .cls-31 {
        fill: #00c4e9;
      }

      .cls-32 {
        fill: #384c7d;
      }

      .cls-33 {
        fill: #fd4b3a;
      }

      .cls-34 {
        fill: #3f5181;
      }
    </style>
  </defs>
  <path class="cls-25" d="M15.73,94.11c.1-.1,1.35-.06,1.22.5-.19.78-1.75.03-1.22-.5Z"/>
  <path class="cls-14" d="M98.66,94.11c.52.52-1.03,1.36-1.01.3,0-.28.9-.42,1.01-.3Z"/>
  <path class="cls-20" d="M96.43,94.01c.93-.85,1.8-1.91,1.84-3.24v-40.26c-.16-2.36-2.31-4.07-4.57-4.17h-58.55c-1.14.07-2.31.56-3.15,1.32-.29.26-.28.69-.6.72v-30.9h1.63v3.15c0,1.09,2.4,1.05,3.15.91.71-.13.87-.68.93-1.3.1-1.06.12-6.9-.17-7.58-.51-1.21-3.91-.8-3.91.25v3.76h-1.63V6.2c0-1.21-2.89-1.26-3.72-1.08-.28.06-1.16.71-1.16.87v10.67h-3.66c-.01-1.93-.84-3.96-2.97-4.25-4.72-.64-10.76.43-15.62,0-1.65.48-2.61,1.61-2.77,3.33-.82,9.25.63,19.7,0,29.08-.07,1.39,1.89,3.15,3.15,3.15h4.98c.11,0-.09,1.58.15,2.18.33.82,1.86,1.49,1.89,1.61.25,1.01-.1,3.33.02,4.62.64,6.83,6.73,5.71,7.81,10.89.22,1.07.13,2.34.43,3.43.76,2.73,3.72,4.84,6.57,4.51v14.43c-.46-.16-2.44.19-2.44.71v3.76h-6.5c-.09.57.12.83.7.82h78.28c1.04-.12,1.04-.96-.11-.92ZM26.5,74.6c-2.6-.08-5.13-1.63-5.83-4.23-.51-1.87-.08-3.27-1.11-5.19-1.72-3.18-5.18-3.05-6.57-6.64-.85-2.21-.4-4.47-.52-6.78,1.92-.5,2.72-1.81,2.45-3.78,2.48-.15,6.36.81,7.53-2.12.07-.17.4-1.36.4-1.43v-26.93h3.66v57.12Z"/>
  <path class="cls-31" d="M95.82,49.4c.1.14.2.29.27.45s.13.3.13.45c-.03,1.05-.12,2.09-.22,3.13-.14,1.34-.64,5.69-1.12,6.6-.24.46-.53.58-.7.17l-.19-9.37-.19.41c-16.45.03-32.9.07-49.35.1l-.25-.41.41.14v39.14l-.41.25.37-.33c6.24.32,12.52.4,18.82.26l.52.27c-.08.14-.18.27-.29.38-1.46,1.47-10.91,1.76-13.18,1.77-5.23-.12-10.46-.17-15.69-.15l-.83-.21-.1-1.8c-.06-.23-.41-.65-.41-.81-.1-.12-.2-.24-.27-.37-.39-.73-.02-4.81.47-5.73l.5.19c1.69,4.75,8.99,2.36,7.18-2.47-1.29-3.45-5.83-3.06-7.19.08l-.49.17c-.1-.13-.2-.26-.27-.4-.27-.52-.16-5.09-.09-6.11l.37-.8.24-.45c2.58.12,5.15.12,7.69,0,.28-.65.48-4.02-.08-4.2-2.47-.2-4.95-.19-7.44.02l-.42-.25c-.57-.29-.57-2.55,0-2.85l.14-.4,7.82.09c.24-.66.45-3.95-.11-4.13-2.47-.2-4.95-.19-7.44.02l-.42-.25c-.57-.29-.57-2.55,0-2.85l.14-.4,7.82.09c.24-.66.45-3.95-.11-4.13-2.47-.2-4.95-.19-7.44.02l-.42-.25c-.52-.15-.45-1.08-.41-1.57.16-2.1,1.92-3.65,3.95-3.91,17.85-.03,35.71,0,53.56.05,1.71,0,3.41.18,5.1.36Z"/>
  <path class="cls-13" d="M97.03,49.19c.35.69.58,1.34.62,2.13v38.43c-.19,2.46-1.39,4.14-3.96,4.37h-58.35s-1.51-.22-1.51-.22v-3.24c.14.54.32.95.19,1.63,6.86-.28,14.01.36,20.85,0,2.93-.15,6.26-.71,9.04-1.64,9.86-.41,19.7-.57,29.52-.46.11-13.03.16-26.07.16-39.13l.41-.25.4,9.55c.7-3.58,1.47-7.29,1.42-10.98.12-.55.85-.48,1.22-.2Z"/>
  <path class="cls-23" d="M20.61,27.24l.44.58c.43,9.82-7.84,18.57-17.73,18.33l-.6-.42c-.45-.84-.5-1.2-.41-2.24h4.57c.34,0,.48-.81-.2-.81H2.31v-2.44h3.25c.08-.24-.09-.81-.3-.81h-2.95v-2.44h4.57c.34,0,.48-.81-.2-.81H2.31v-2.44h3.25c.08-.24-.09-.81-.3-.81h-2.95v-2.44h4.57c.35,0,.35-.81,0-.81H2.31v-2.44c6.09.13,12.21-.17,18.29,0Z"/>
  <path class="cls-30" d="M22.03,26.43H2.31v-2.44h4.57c.35,0,.35-.81,0-.81H2.31v-2.44h2.95c.35,0,.35-.81,0-.81h-2.95v-2.44h4.57c.35,0,.35-.81,0-.81H2.31c-.26-1.49.51-3.27,2.13-3.46,4.74-.56,10.58.42,15.44.02.95.06,2.15,1.45,2.15,2.32v10.87Z"/>
  <path class="cls-18" d="M95.61,47.77c.58.47.99,1.2.2,1.63-19.54.24-39.1-.18-58.64,0-1.5.11-3.21,1.53-3.51,2.99-.14.69.04,1.43-.05,2.09l.36.37c-.24,1.32-.18,2.65.01,3.97l-.37.34c.08.75.07,2.1,0,2.85l.32.35c-.46,1.26-.44,2.6.05,4.02l-.37.3c.08.75.07,2.1,0,2.85l.37.37c-.18,1.38-.11,2.78.01,4.17l-.38.34c.15,2.34-.02,4.94,0,7.32.51.69.51,1.34,0,2.03,0,2.02-.2,4.17-.2,6.1l-2.04-.32v-39.01c.21-1.87,2.06-3.45,3.96-3.36h58.56c.74-.06,1.17.3,1.72.62Z"/>
  <path class="cls-11" d="M28.74,5.9c.4,0,1.83-.06,1.83.51v83.24c-.67-.02-1.36.02-2.03,0l-.41-.2c.07-27.76.13-55.53.2-83.3l.41-.25Z"/>
  <path class="cls-6" d="M20.61,27.24c.47.01.95-.01,1.42,0v16.98c-.06,1.64-1.11,2.76-2.74,2.94-4.58-.32-9.73.43-14.24,0-1.22-.11-1.78-.41-2.33-1.43,10.12.6,18.7-8.43,17.89-18.5Z"/>
  <path class="cls-21" d="M28.74,5.9l-.2,83.74c-.28,0-1.19.1-1.22-.12V6.6c-.04-.93.75-.68,1.43-.7Z"/>
  <path class="cls-11" d="M33.01,91.67c.03.51.18,2.24-.33,2.41-.95-.06-7.65.26-7.8-.17-.13-.65-.31-2.23.14-2.64.28-.26,6.81-.05,7.76,0l.24.41Z"/>
  <path class="cls-11" d="M34.84,12.81c.47-.04.95.02,1.42,0-.13.96.25,7.78-.2,7.93-.46.16-1.3.25-1.63-.14-.24-.29-.05-6.63,0-7.55l.41-.24Z"/>
  <path class="cls-4" d="M33.01,91.67h-8.13c.12.58-.16,1.77,0,2.24-.38-.46-.3-3.36.14-3.46,1.08.16,7.58-.26,7.91.2.17.24.07.73.09,1.03Z"/>
  <path class="cls-29" d="M14.1,47.97c.68,4.03-4.34,3.85-3.86,0h3.86Z"/>
  <path class="cls-21" d="M34.84,12.81v7.93c.34-.06.95.09,1.22,0-.29.42-2.16.22-2.24-.14.16-1.08-.27-7.35.2-7.7.21-.16.57-.07.82-.09Z"/>
  <path class="cls-22" d="M97.03,49.19c-.22.34-.84.2-1.22.2,0-.55.1-1.12-.2-1.63.84.48.95.5,1.42,1.42Z"/>
  <path class="cls-12" d="M93.99,50.82l-.09,39.65-.61.2c-9.79-.03-19.59,0-29.38,0-5.89,0-12.86.46-18.61.01-.39-.03-.74-.12-1.11-.21v-39.53l49.8-.1Z"/>
  <path class="cls-32" d="M33.62,83.75c0-.68,0-1.36,0-2.03,1.09-3.62,6.42-4.29,7.93-.72,2.38,5.62-6.04,8.61-7.93,2.75Z"/>
  <path class="cls-16" d="M33.62,59.15c-.24-2.4-.34-2.16,0-4.68.34-.23.72-.2,1.11-.21,1.63-.05,5.3-.25,6.71.01.69.13.67.53.73,1.1.07.72.17,3.59-.42,3.87l-8.13-.1Z"/>
  <path class="cls-32" d="M33.62,74.4c-.16-2.35-.25-2.41,0-4.88.34-.23.72-.2,1.11-.21,1.63-.05,5.3-.25,6.71.01.69.13.67.53.73,1.1.07.72.17,3.59-.42,3.87-1.21.59-6.48-.23-8.13.1Z"/>
  <path class="cls-1" d="M33.62,66.67c-.11-1.06-.56-1.88-.42-3.36.06-.62.39-1.06.42-1.31.34-.23.72-.2,1.11-.21,1.63-.05,5.3-.25,6.71.01.69.13.67.53.73,1.1.07.72.17,3.59-.42,3.87l-8.13-.1Z"/>
  <path class="cls-27" d="M69.39,51.43c.59.35,1.27,2.07.81,2.64.41.54.74,1.12,1,1.74l3.44,10.4.04.87c-1.88,4.05-3.53,8.22-5.59,12.19l-6.29-9.96c-1.14-.95-6.61-.08-8.3-.44-.52-.16-2.14-3.16-2.58-3.82-.56-1.86-1.28-3.68-2.14-5.44l.11-.45.36-.4c2.11.25,2.79-1.15,1.17-2.44l.07-.48c1.83-1.64-1.61-2.71-2.39-1l-.44.05c-.61.09-.66-.44-.2-.81-.82-.56-1.16-1.71-.81-2.64,7.24-.08,14.51,0,21.75,0Z"/>
  <path class="cls-27" d="M78.33,78.46c.17.18.34.37.48.57,1.1,1.57,2.61,6.99,3.19,9.17.06.22.07.46.06.7s-.03.49-.07.74c-7.18.11-14.36.11-21.55,0-.56-.17-1.33-1.83-.81-2.24-.92-.86-1.39-2.42-1.29-3.65l-.56-.88c-1.17-4.19-2.53-8.31-4.07-12.36l.02-.99c2.77.49,5.68.02,8.5.25l6.34,10.22c.39.18.95.22,1.2-.23,1.56-3.28,3.01-6.61,4.52-9.91.22-.48.61-.96.78-1.35,1.59,3.14,2.68,6.49,3.25,9.96Z"/>
  <path class="cls-30" d="M53.74,69.52c2.27,5.22,4.05,12.33,5.89,17.89l-.18.41-11.55.21c-.65-.06-.95-.64-.26-.82.67-.27.67-.54,0-.81-.52-.76-.51-1.47,0-2.24.67-.27.67-.54,0-.81-.68-.37-.69-2.24.2-2.24l.26-.37c1.31.06,2.6.03,3.87-.11l.14-.34c-1.56-.2-3.14-.19-4.73.03-.19-4.75-.24-9.53-.15-14.34l.41-1.55c.32-.62.55-1.37.92-2.04.09-.16.05-.57.4-.4.4.19,4.44,6.74,4.78,7.52Z"/>
  <path class="cls-28" d="M93.17,70.74l.1,18.99c-.11.12-2.96-.02-3.2-.22l-5.14-15.77.31-.36,3.35-6.5c1.13,1.91,1.71,4.14,4.46,3.67l.11.19Z"/>
  <path class="cls-30" d="M80.77,54.27c3.23.48,6.53.56,9.9.23l.26.38c.09.15.17.3.23.46.5,1.44-1.7,8.85-2.56,10.48l-.72.65c-.86,1.93-2.06,3.82-3.05,5.69-.21-.25-.41-.51-.59-.79s-.35-.54-.46-.84c-1.93-4.99-3.52-10.16-5-15.28l-.04-.98c-.28-1.02,1.97-.81,2.03,0Z"/>
  <path class="cls-27" d="M85.25,73.38l5.26,16.14,2.67.12v-18.9s.2,19.11.2,19.11l-48.38-.2c5.15-.5,10.3-.51,15.45,0,7.18,0,14.37.06,21.55,0,0-.18.06-.32.2-.4h3.36s-3.79-10.83-3.79-10.83c-.22-.78-.34-1.58-.38-2.39-.19-.24-.37-.48-.53-.74s-.31-.51-.4-.79c-1.19-3.52-2.3-7.17-3.34-10.67.08-.18.71-2.06,1.01-1.83l5.32,11.04c.56.79.97,1.05,1.79.34Z"/>
  <path class="cls-28" d="M77.73,51.43c5.21,0,10.44,0,15.65,0v18.29c-1.34,0-1.86.28-2.73-.83-.79-1.01-1.12-3.33-2.76-2.42,1.59-3.57,2.71-7.7,3.05-11.59v-.44c-3.38.02-6.7.04-9.98.07l-.18-.24c-.37,0-1.57-.6-2.03,0-.86-.7-1.25-1.77-1.02-2.85Z"/>
  <path class="cls-28" d="M47.64,64.44v15.65c.2.21,3.89-.31,4.47.2l-.13.24c-1.3.1-2.7.21-4.05.2l-.09.37c-.38.54-.19,1.53-.2,2.24.57.14.58.67,0,.81,0,.74,0,1.49,0,2.24.46.24.4.54,0,.81.04.11-.12.38.12.42l11.87-.21c.23.69.73,1.45.81,2.24-5.15,0-10.3,0-15.45,0v-20.21c.79-1.71,1.79-3.32,2.64-4.99Z"/>
  <path class="cls-27" d="M77.73,51.43c.34.94.7,1.9,1.02,2.85,2,5.97,3.81,12.02,6.1,17.89-.17.33,0,.97-.61.81l-5.6-11.37c-.87-.8-1.28-.19-1.72.6-1.58-2.3-2.61-5.35-2.85-8.13-.82-.63-1.13-1.66-.81-2.64,1.49,0,2.98,0,4.47,0Z"/>
  <path class="cls-30" d="M77.12,63.83c.55-.12.39.28.5.6,1.36,3.83,2.48,7.74,3.76,11.59.18.73-2.44,3.01-2.64,2.94l-.41-.51c-1.11-3.31-2.19-6.64-3.25-9.96.69-1.51,1.31-3.14,2.03-4.68Z"/>
  <path class="cls-30" d="M74.07,54.07c.9,2.72,1.81,5.46,2.85,8.13-.75,1.34-1.55,3.4-2.24,4.88-.31-.2-.35-.55-.46-.86-1.43-4.01-2.68-8.11-4.01-12.15.02-.16.06-.39.18-.41.27-.05,3.21-.06,3.4,0l.29.41Z"/>
  <path class="cls-28" d="M47.64,51.43c.27.88.52,1.78.81,2.64.09.28-.04.5-.4.65l.17,6.49c-.24.28-.33.63-.38.99l-2.85,5.28v-16.06c.88,0,1.76,0,2.64,0Z"/>
  <path class="cls-24" d="M48.46,54.07c.1.3.13.62.2.81.57-.14,1.22,1.03,1.09,1.54-1.08.7-1.34,1.92.11,2.25l.02.47c.78.53,1.7,3.88,2.04,4.98.08.27.39.74,0,.92-.36-.54-2.23-3.63-2.44-3.76-.76-.46-1.42.22-1.63.91l-.2-7.83.81-.3Z"/>
  <path class="cls-28" d="M73.25,51.43c.26.88.52,1.77.81,2.64h-3.86c-.29-.87-.72-1.71-.81-2.64,1.28,0,2.58,0,3.86,0Z"/>
  <path class="cls-26" d="M40.32,80.7c1.86,2.2.51,5.05-2.24,5.49v-3.56c0-.3-.61-.3-.61,0v3.25c0,.65-1.48-.24-1.83-.51-1.62-2.57,2.08-6.35,4.68-4.68Z"/>
  <path class="cls-10" d="M40.32,80.7c-3.01-.5-5.12,1.68-4.68,4.68-3.74-2.79,1.29-8.66,4.68-4.68Z"/>
  <path class="cls-17" d="M41.54,55.9c.05.87-.04,1.77,0,2.64h-7.52c.04-.87-.05-1.77,0-2.64.18-.22.4-.43.69-.45,2.02-.13,4.13-.13,6.15,0,.28.02.5.24.69.45Z"/>
  <path class="cls-9" d="M34.02,55.9c.02-.27-.01-.54,0-.81h7.4c.23.03.1.58.12.81-2.38-.34-5.14-.34-7.52,0Z"/>
  <path class="cls-33" d="M41.54,70.94c.03.54.19,2.65-.33,2.82-.45.15-5.76.13-6.49.04-1.07-.13-.76-1.92-.7-2.86-.01-.1-.01-.19.02-.27.12-.35,6.62-.24,7.27-.14l.24.41Z"/>
  <path class="cls-19" d="M34.02,70.94c.02-.27-.01-.54,0-.81h7.4c.23.03.1.58.12.81h-7.52Z"/>
  <path class="cls-33" d="M41.54,63.42c.03.54.19,2.65-.33,2.82-.45.15-5.76.13-6.49.04-1.07-.13-.76-1.92-.7-2.86.18-.22.4-.43.69-.45,2.02-.13,4.13-.13,6.15,0,.28.02.5.24.69.45Z"/>
  <path class="cls-9" d="M34.02,63.42c.02-.27-.01-.54,0-.81h7.4c.23.03.1.58.12.81-2.38-.34-5.14-.34-7.52,0Z"/>
  <path class="cls-8" d="M49.88,59.15c-.46-.31-1.19-.18-1.39-1.17-.27-1.34.97-1.62.98-1.78,0-.08-.59-.72-.81-1.32.45-1.74,3.5-1.8,3.78,0,.12.77-.73,1.22-.73,1.33,0,.13,1.64.7.79,2.21-.54.94-1.71.73-2.62.73Z"/>
  <path class="cls-8" d="M56.38,56.11c.67.7,1.24.73,1.01,1.92-.37,1.93-4.62,1.02-3.86.31.76.15,3.02.51,3.22-.54.23-1.2-1.98-.95-2.2-1.4-.26-.52,1.47-.47,1.78-.76.75-.7-.18-1.39-1.07-1.39-.21,0-2.03.43-1.63-.19.49-.75,3.21-.67,3.52.35.22.71.07,1.62-.77,1.69Z"/>
  <path class="cls-28" d="M81.38,76.02c1.51,4.51,3.17,9,4.68,13.51,0,.2-3.65.1-4.07.1-1.04-3.78-2.42-7.46-3.66-11.18.38.32.46.02.71-.2.81-.71,1.57-1.49,2.34-2.24Z"/>
  <path class="cls-7" d="M47.64,84.15c0-.25,0-.56,0-.81,3.13.26,6.81-.35,9.87,0,.98.11.95.73,0,.83-3.07.33-6.73-.27-9.87,0Z"/>
  <path class="cls-34" d="M47.64,87.2c-.22-.61,0-.55,0-.81,3.13.26,6.81-.35,9.87,0,.98.11.95.73,0,.83-3.07.33-6.73-.27-9.87,0Z"/>
  <path class="cls-15" d="M52.11,80.29c.43.15.19.68-.13.78-.35.11-3.68.12-4.13.03-.35-.06-.51-.49-.41-.81,1.12.23,3.78-.31,4.68,0Z"/>
  <path class="cls-34" d="M90.94,54.88c-1.82.25-7.58.22-9.46.01-.46-.05-.7-.07-.7-.62.15,0,.52-.21.9-.21,3.12-.02,6.24.03,9.36,0l.51.5c-.17.26-.33.27-.61.31Z"/>
  <path class="cls-3" d="M81.08,57.12h6.71c.06,0,.37.41.5.51-.1.07-.25.3-.3.3h-6.91c-.26,0-.45-.63,0-.81Z"/>
  <path class="cls-2" d="M49.88,58.34c-.43-.31-.55-.71-.41-1.22.94-1.61,3.46.25,2.12,1.2-.56.4-1.15.24-1.71.02Z"/>
  <path class="cls-2" d="M50.02,54.32c1.91-.58,2.36,1.59.57,1.59-1.26,0-1.52-1.31-.57-1.59Z"/>
  <path class="cls-5" d="M49.88,58.34c-.73-.3-.86-.45-.41-1.22l.41,1.22Z"/>
</svg>