<?xml version="1.0" encoding="UTF-8"?>
<svg id="Layer_3" data-name="Layer 3" xmlns="http://www.w3.org/2000/svg" viewBox="0 0 100 100">
  <defs>
    <style>
      .cls-1 {
        fill: #c6dde1;
      }

      .cls-2 {
        fill: #5f95e5;
      }

      .cls-3 {
        fill: #f4ad66;
      }

      .cls-4 {
        fill: #4d6c8f;
      }

      .cls-5 {
        fill: #5f96e5;
      }

      .cls-6 {
        fill: #5ccdc3;
      }

      .cls-7 {
        fill: #69a6fe;
      }

      .cls-8 {
        fill: #f4ac65;
      }

      .cls-9 {
        fill: #a6bdd5;
      }

      .cls-10 {
        fill: #fabc80;
      }

      .cls-11 {
        fill: #52beb5;
      }

      .cls-12 {
        fill: #fa4455;
      }

      .cls-13 {
        fill: #4d6c8e;
      }

      .cls-14 {
        fill: #b6cee7;
      }
    </style>
  </defs>
  <path class="cls-2" d="M4.66,70.97l.35.16c-.05.83,0,1.63.12,2.38l92.54.08.23.37c0,.52.11,1.91,0,2.25-2.17.1-4.35.12-6.54.07-.64.54-2.28.68-3.01.12l-3.47.29c-23.27.48-46.57.48-69.83,0l-3.47-.29c-.93.47-2.18.56-3.01-.05-2.19-.01-4.36-.06-6.54-.14V17.04c.88-1.05,2.44-1.14,2.62.46.14,17.82-.2,35.65,0,53.46Z"/>
  <path class="cls-14" d="M11.59,76.4c.15.04.37.1.37.22.05.75.13,5.5,0,5.87l-.37.27.18-.37h76.35l.23.37c-.15-.04-.36-.1-.37-.22-.09-1.13-.19-4.91,0-5.87l.37-.27c1.13-.01,2.23-.17,3.27-.19,2.09-.05,4.19.05,6.28,0-.06.19-.08.17-.27.19-.96.12-6.24-.23-6.47,0v13.67c-.29.43-.46.31-.56-.19-.63.13-1.27.23-1.91.29l-.34-.29v-4.49H11.59v4.49c-.09.48-.19.44-.37,0l-2.14.3-.29-.3v-13.48s-6.74,0-6.74,0v-.19c3.2-.14,6.38.15,9.55.19Z"/>
  <path class="cls-14" d="M19.83,59.17c1.18.04,2.36.68,3,1.69l1.64.57,4.8,3.02c1.62,1.15,3.38,1.36,5.36,1.27,2.77-.25,5.52-.25,8.24,0,1.43-.37,2.88-.37,4.31,0l.58-.25c5.81.2,11.57.17,17.29-.07l.29.31,1.09-.37h20.21l.23.37c.24-.18.54-.24.89-.17l.07-2.96.35-.61c.43,1.2.07,2.67.19,3.93h4.12c.01,1.06-.02,2.13,0,3.18l-.18.37-61.61-.03c-6.46-3.63-12.88-7.35-19.25-11.14-.83-.27-1.46-.66-1.91-1.18.52-.91,1.13-1.82,1.5-2.81,2.91,1.56,5.91,3.21,8.8,4.87Z"/>
  <path class="cls-7" d="M95.29,70.97c.59-.6,2-.55,2.62,0,0,1,.01,2,0,3l-93.07-.08c-.31-.22-.17-2.36-.18-2.91h.19c7.96.18,16.31.15,24.49.1.15,0,.3-.12.45-.27h62.68c.05.15.11.27.17.27.88.04,1.89.04,2.65-.1Z"/>
  <path class="cls-13" d="M31.25,30.9c-.12.86-.1,3.31.04,4.17.57,3.42,5.71,3.56,8.38,4.16.91.2,2.82.99,3.48,1.02.49.02,1.6-.43,2.26-.52,5.98-.81,10.36.13,15.37,3.49,2.73,1.83,9.73,8.11,11.1,10.9l.19.77c-.05.26-3.12.35-3.19-.39-.27-.1-.39-.22-.37-.37-.32-.06-.61-.19-.86-.39-5.33-6.1-12.36-12.63-21.02-11.01,1.86,2.6,1.97,5.91,1.86,9.03l-.39.5c-.45.55-2.26.21-2.62-.37l-.36-.4c.04-2.25-.08-4.58-1.36-6.5-.15-.22-1.18-1.3-1.33-1.35-.62-.22-7.25,3.31-8.31,3.93l-.43-.18c-.57.04-1.84-1.29-1.87-1.87l-.07-.39,5.74-3.19c-5.29-.9-8.87-1.57-9.35-7.69-.08-.97-.18-2.62.31-3.34.18-.62,2.52-.57,2.81,0Z"/>
  <path class="cls-9" d="M92.48,69.1c.01.62,0,1.25,0,1.87h2.62l.19-11.05.37.17v10.65l-.37.22c-.06,0-.4.31-.63.2H5.48s-.63-.2-.63-.2h24.53c-.02-.24-.27-.31-.43-.41-6.41-4.06-13.5-7.47-19.97-11.49-.8-.39.23-1.4.55-1.96.36-.03.64.12.94.27,6.84,3.4,13.42,8.29,20.32,11.7h61.69Z"/>
  <path class="cls-4" d="M67.39,38.2v-20.6h28.65v20.6c-4.81.2-9.68.23-14.61.09-.58.45-1.95.45-2.53,0l-11.51-.09Z"/>
  <path class="cls-14" d="M31.25,21.54c-.95.45-1.86.45-2.81,0-.62-.15-.57-2.36,0-2.62,0,.15-.03.37-.13.37-1.85.15-5.63.21-7.42,0l-.22-.37.37.13c-.03,9.39-.06,18.79-.09,28.19l-.38.51.07.42c-1.06.93-1.93,2.12-2.46,3.43l-.42.08.08-34.46c.23-.45.56-.94,1.12-.94l11.35.09c1.52.47.74,3.89.93,5.16Z"/>
  <path class="cls-11" d="M45.48,51.87c.81.04,1.81.3,2.62.37.96-.1,1.93-.17,2.9-.1,5.69.4,11.55,1.09,17.13,2.16.28-.09.53-.01.75.19.79.08,1.77.25,2.54.19.57-.05.48.1.46-.56.12.24.21.75.3.76,2.29.11,4.55.45,6.82.74.46-.51,1.94-.44,2.25.19.64-.54,2.67-.24,3,.56,2.58.95,3.79,2.97,3.93,5.62.07,1.3-.05,2.63,0,3.93-.44-.02-.95.13-1.31-.19l-.33-.46c.31-3.26-1.44-6.3-4.78-6.95l-37.88-4.2c-2.05-.22-3.84.46-5.68,1.2l-.38-.26c-.24-.9.99-1.84,1.71-2.33.8-.55,1.73-.88,2.69-1.06s2.63-.47,3.28.21Z"/>
  <path class="cls-7" d="M28.44,21.54c.93-.01,1.88-.01,2.81,0,.68.01,1.38,0,2.06,0v6.65c0,.21-.66,1.36-.85,1.58-.47.53-1.13.54-1.21,1.14h-2.81c-.57-.06-1.17-.5-1.53-.95-.33-.42-1.12-1.49-.53-1.77-.15,0-.37-.03-.37-.13-.07-.97-.18-5.65,0-6.3l.37-.22c.66-.51,1.39-.51,2.06,0Z"/>
  <path class="cls-14" d="M84.24,38.39v17.98c-.98-.36-1.97-.42-3-.56l-.37-.13c-.05-5.78-.02-11.54.1-17.28,1.05-.19,2.19-.13,3.27,0Z"/>
  <path class="cls-9" d="M96.04,38.2c-.02.26-.28.17-.46.2-3.18.39-7.95-.03-11.34,0-1,0-2,0-3,0v17.41c-.68-.09-1.51-.1-2.25-.19v-17.23s-11.61-.19-11.61-.19h28.65Z"/>
  <path class="cls-7" d="M91.17,90.07c3.98,1.54,3.13,7.29-.56,7.86-4.1-.91-4.19-7.37,0-8.05.21.05.37.11.56.19Z"/>
  <path class="cls-7" d="M11.59,89.88c.9.25,2.04,1.5,2.39,2.38.93,2.28-.48,5.29-2.96,5.67-4.11-.87-3.96-7.67.19-8.05.08-.02.3-.02.37,0Z"/>
  <path class="cls-8" d="M25.82,46.44l-.37.49c-6.92,1.99-7,11.43-.17,13.62l.35.5c-.7.57-1.63.51-2.81-.19-.98-.56-2.01-1.12-3-1.69-1.79-1.98-2.78-4.82-2.06-7.49.33-1.21,1.78-3.2,2.81-3.93.21-.94,1.52-1.28,2.41-1.5.83-.2,2.3-.51,2.84.18Z"/>
  <path class="cls-2" d="M97.91,70.97c-.87.03-1.75-.05-2.62,0v-11.05c.2-1.49,1.98-1.49,2.58-.24.06,3.76.06,7.53.04,11.29Z"/>
  <path class="cls-5" d="M90.61,89.88c-3.1,1.48-3.79,5.02-1.03,7.3.34.28.83.32,1.03.75-5.46.85-6.78-6.56-2.25-8.05.87-.29,1.41-.18,2.25,0Z"/>
  <path class="cls-5" d="M11.22,89.88c-.99.21-2.17,1.5-2.53,2.44-.97,2.58.31,4.21,2.34,5.61-5.37.82-6.63-6.54-2.25-8.05.65-.23,1.77-.24,2.43,0Z"/>
  <path class="cls-6" d="M86.86,65.73h-21.53l.05-.42c1.14-.66,1.82-1.91,2.2-3.14l-.39-.18c-.22-1.34-1.15-2.34-2.42-2.76l-.09-.43-.13.37h-16.96l-.23-.37.35.52c.07.78.23,4.53.07,4.99-.07.21-.23.36-.41.48.49.2.18.77-.19.94-1.43,0-2.87,0-4.31,0-4.12.24-7.02-3.83-6.52-7.7.12-.96.48-2.76,1.47-2.97l2.81-1.03c1.07-.3,2.17-.33,3.28-.28l37.93,4.2c3.8.81,5.48,4.07,5.05,7.78Z"/>
  <path class="cls-3" d="M65.33,65.73c-.31.11-1.21.17-1.58.2-5.43.36-11.17-.18-16.58-.2-.18-.35.17-.78.19-.94l.13-.37h17.14c1.22-.18,1.92-1.25,2.5-2.23l.45-.02c.04,1.33-.97,3.12-2.25,3.56Z"/>
  <path class="cls-7" d="M31.81,45.51c.47.19,1.69,1.4,1.87,1.87.7,1.78-.23,3.49-1.5,4.68-1.55.48-3.47-1.31-4.35-2.57-.44-.64-1.39-2.13-.71-2.68,1.18-1.26,2.98-2,4.68-1.31Z"/>
  <path class="cls-1" d="M68.89,54.49c-.35-.03-.65-.18-.75-.19l.37-.19c.1.11.33.16.37.37Z"/>
  <rect class="cls-7" x="68.89" y="19.29" width="25.46" height="17.23"/>
  <path class="cls-10" d="M27.13,46.82c.1.22.12.74.28,1.12.95,2.18,2.46,3.48,4.77,4.12.9,4.4-2.06,8.55-6.55,8.99-7.83-2.11-7.74-12.73.19-14.6.3.02,1.2.12,1.31.37Z"/>
  <path class="cls-10" d="M67.58,62.17c-.71,1.16-1.42,2.4-2.92,2.6l-17.3.02c.19-1.89-.14-4.07,0-5.99h17.32c.08,0,1.12.49,1.28.59.85.55,1.59,1.76,1.62,2.78Z"/>
  <path class="cls-12" d="M85.55,27.53c.58-.12.72-.49,1.4-.57,1.07-.13,3.99-.13,5.04.02.78.11,1.43.52,1.43,1.39,0,2.28-4.25,1.05-5.64,1.49-.45.73-.77,2.78-1.53,3.15-.68.32-1.41.09-1.8-.54s-1.02-3.49-1.15-3.63c-.31-.32-.32.1-.39.26-.61,1.35-.71,4.97-2.98,3.95-.69-.31-1.39-3.22-1.69-4.02-.08-.06-.48.43-.7.52-.79.35-5.11.35-6.14.23-1.85-.22-1.87-2.43-.33-2.77.91-.2,4.55.16,4.9-.06.58-1.21.75-3.85,2.65-3.26,1.2.37,1.16,3.08,2.05,3.85.29-.95,1.03-4.25,1.77-4.69,2.24-1.34,2.61,3.41,3.1,4.69Z"/>
</svg>