<?xml version="1.0" encoding="UTF-8"?>
<svg id="Layer_3" data-name="Layer 3" xmlns="http://www.w3.org/2000/svg" viewBox="0 0 100 100">
  <defs>
    <style>
      .cls-1 {
        fill: #f89291;
      }

      .cls-2 {
        fill: #b4d855;
      }

      .cls-3 {
        fill: #cef15a;
      }

      .cls-4 {
        fill: #fc7674;
      }

      .cls-5 {
        fill: #99be3c;
      }

      .cls-6 {
        fill: #98be3c;
      }

      .cls-7 {
        fill: #f04b47;
      }

      .cls-8 {
        fill: #e9f5fe;
      }

      .cls-9 {
        fill: #fc8483;
      }

      .cls-10 {
        fill: #f04a46;
      }
    </style>
  </defs>
  <path class="cls-4" d="M75.67,52.83c.15.02.37.06.38.17.05.58.09,4.98,0,5.22-.05.14-.23.21-.38.27l-.58.38c-3.01.14-6.27,1.01-8.56,2.88l8.8,8.88.34.87c.49-.21.57.04.19.38.51,2.21.24,5.3-.19,7.73l-.36.18-13.53-13.42c-7.44,10.42.39,25.71,13.3,25.88l.59.38c.15.02.37.06.38.17.05.58.09,4.98,0,5.22-.05.14-.23.21-.38.27h-.38c-.36-.16-.77-.15-1.13,0h-1.32c-1.13-.45-2.36-.55-3.54-.89-15.39-4.5-21.46-22.83-11.74-35.7l-.15-.43c1.12-1.38,2.33-2.71,3.68-3.86l.43.14c3.8-2.91,9.36-4.7,14.15-4.72Z"/>
  <path class="cls-4" d="M98.12,73.01c.06.27.13.59.19.94v4.15c-.42,10.38-9.81,19.71-20.19,20.19h-2.45v-5.66l.62-.4c2.93-.21,6.08-1.01,8.32-2.87l-8.61-8.69-.33-.87c-.17-.03-.16-.1,0-.19,0-2.23-.03-4.47,0-6.7,0-.32-.12-.84.19-1.03l.36-.18,13.16,13.04c7.43-10.44-.28-25.36-13.12-25.87l-.59-.4v-5.66c11.06-.04,21.78,8.94,22.45,20.19Z"/>
  <path class="cls-4" d="M24.36,73.39c.19.06.17.08.19.27.1.82-.18,4.27.03,4.6.75.21,1.26.62,1.88,1.05.19.13.5.08.54.11l.36-.12c1.18,1.37,2.15,2.89,2.73,4.63l-.26.4c.02.18.02,2.84,0,3.02l.3.3c-.6,1.62-1.5,3.39-2.68,4.66-.08.09-.3,0-.45-.05-.04.03-.37-.02-.54.11-.6.41-1.18.83-1.88,1.05l-.03,4.88h-.19l-.38-.22v-3.99c-.98.36-1.73.32-2.26-.13-.15-5.41-.15-10.81,0-16.22.44-.49,1.15-.54,2.15-.14.13-1.27.16-2.58.11-3.93l.38-.27Z"/>
  <path class="cls-4" d="M18.88,73.39l.38.22.03,4.05,1.2-.27c2.13-.31,2.04,2.36,1.16,5.75l-.12,10.82c-.56.38-1.31.41-2.26.09v3.98s-.38.27-.38.27h-.19l-.03-4.88c-.7-.22-1.28-.64-1.88-1.05-.18-.12-.5-.07-.54-.11l-.41.1c-1.16-1.41-2.04-2.98-2.71-4.67l.28-.34c-.03-.15-.03-2.87,0-3.02-.2-.11-.26-.16-.28-.35-.08-.72,2.04-3.93,2.66-4.61.08-.09.3,0,.45.05.04-.03.37.02.54-.11.6-.41,1.18-.83,1.88-1.05.19-1.58-.24-3.35.22-4.88Z"/>
  <path class="cls-7" d="M21.71,93.95c.97,0,1.72-.07,2.64-.38v4.72s-2.83,0-2.83,0c-.15-.04-.36-.1-.38-.22-.06-.43-.08-3.54,0-3.85l.38-.27c.03-.17.1-.16.19,0Z"/>
  <path class="cls-7" d="M21.53,93.95v4.34h-2.64v-4.72c.92.16,1.69.34,2.64.38Z"/>
  <path class="cls-9" d="M75.29,98.29h-1.13c.19-.31.95-.3,1.13,0Z"/>
  <path class="cls-1" d="M98.31,73.96c-.31-.16-.17-.64-.19-.94h.19v.94Z"/>
  <path class="cls-3" d="M38.69,13.59l.38.17c.07,4.07.02,8.12-.13,12.15l-.25.13-.41.39c-7.17.45-7.21,11.4,0,11.86l.42.39c.09,0,.17-.01.25.01.39.13.2,7.4.13,8.25l-.38.22c-.18.63-2.54.58-2.83,0,.15.02.37.06.38.17.07.74.14,4.71,0,5.22l-.38.27c.18-.63,2.54-.58,2.83,0l.38.17v10.35l-.38.23c-.52.59-2.36.66-2.83,0-4.05-.37-9.64-2.76-12.83-5.28l-.46.11c-1.3-1.1-2.51-2.32-3.61-3.61l.11-.46c-2.83-3.56-4.77-8.3-5.28-12.83-.17-.05-.16-.11,0-.19-.5-.75-.68-1.7-.54-2.85-.14-1.08.04-1.95.54-2.62.52-4.67,2.36-9.17,5.28-12.83v-.6c1.02-1.21,2.15-2.34,3.36-3.36h.6c3.69-2.94,8.13-4.74,12.83-5.28.49-.66,2.26-.78,2.83-.19Z"/>
  <path class="cls-3" d="M41.52,13.59c4.17.48,9.56,2.83,12.83,5.47l.51-.07c1.26,1.08,2.45,2.26,3.53,3.53l-.07.51c2.78,3.49,4.78,8.39,5.28,12.83.11.13.21.26.29.4.51.9.37,4.14-.29,5.07.27.14.21.27-.19.38-.63,4.61-2.19,8.94-5.09,12.64l.15.42c-1.13,1.32-2.37,2.57-3.69,3.69l-.42-.15c-3.52,2.75-8.41,4.67-12.83,5.28-.08.61-1.52.54-1.7,0-.43.15-.81.15-1.13,0v-10.75c.01-.55,2.01-.4,2.58-.32l.25.32c-.15-.02-.37-.06-.38-.17-.05-.65-.12-4.86,0-5.22l.38-.27c-.18.63-2.54.58-2.83,0v-8.49l.38-.38c6.1-.36,7.51-9.21,1.76-11.39l-.25-.49c-.48-.52-1.04-.65-1.7-.38-.03.17-.1.16-.19,0v-12.45c.32-.61,2.57-.67,2.83,0Z"/>
  <path class="cls-3" d="M13.79,41.51h-6.23s.19,2.45.19,2.45c-.93-.18-5,1.03-5.49.67-.78-4-.76-8.18.02-12.18l5.45.96c-.09.81-.11,1.63-.17,2.44l.36.25c-.07.61-.37,4.7-.15,4.85,1.92.03,3.85.02,5.79-.04l.22.41c0,.06,0,.13,0,.19Z"/>
  <path class="cls-2" d="M69.82,35.85c-.04-.76-.26-1.68-.38-2.45l5.66-.94c.56,4.05.55,8.21,0,12.26l-5.48-.84c-.34-.2.22-1.88.2-2.36l-6.41.19c.02-.18.18-.34.19-.38l.17-.38h5.65s.05-4.36.05-4.36l.35-.73Z"/>
  <path class="cls-3" d="M14.73,18.68c-.18.2-.51.37-.75.66-.28.34-.52,1.09-.85,1.04l-4.42-3.14c-.12-.6,3.88-4.88,4.59-5.55.8-.74,2.55-2.3,3.43-2.8.21-.12.36-.28.63-.14.23.12,2.98,4.07,3.02,4.36-.02.38-.67.54-1.04.85-.29.24-.47.58-.66.75l-.08.57c-1.18,1.03-2.28,2.14-3.31,3.31l-.57.08Z"/>
  <path class="cls-3" d="M14.73,58.68l.57.08c1.03,1.18,2.13,2.28,3.31,3.31l.08.57c.44.38,1.81,1.27,1.68,1.75l-3.1,4.28c-3.43-2.28-6.24-5.36-8.76-8.58l4.62-3.27c.53.62,1.07,1.24,1.6,1.85Z"/>
  <path class="cls-2" d="M62.65,18.68l-.57-.08c-1.03-1.18-2.13-2.28-3.31-3.31l-.08-.57c-.61-.54-1.22-1.09-1.85-1.6l3.27-4.62c3.22,2.52,6.31,5.33,8.58,8.76l-4.28,3.1c-.48.13-1.37-1.24-1.75-1.68Z"/>
  <path class="cls-2" d="M18.7,14.72l4.34,4.34c-1.35,1.08-2.88,2.61-3.96,3.96l-4.34-4.34c1.43-1.62,2.31-2.54,3.96-3.96Z"/>
  <path class="cls-2" d="M23.04,58.3l-4.34,4.34c-1.64-1.43-2.54-2.32-3.96-3.96l4.34-4.34c.93,1.17,2.8,3.04,3.96,3.96Z"/>
  <path class="cls-6" d="M62.65,18.68l-4.34,4.34c-.99-1.24-2.72-2.96-3.96-3.96l4.34-4.34c1.63,1.43,2.53,2.32,3.96,3.96Z"/>
  <path class="cls-2" d="M13.79,35.85c-.23,2.01-.2,3.46,0,5.47-1.01-.19-5.71.29-6.24-.08-.48-.34-.05-4.57.01-5.39h6.23Z"/>
  <path class="cls-6" d="M69.82,35.85c.1,1.81-.07,3.66,0,5.47h-6.23c.21-1.83.21-3.64,0-5.47h6.23Z"/>
  <path class="cls-3" d="M35.86,69.81c.64-.53,2.03-.57,2.64,0l.46.16c.15,1.71.16,3.42.05,5.13.52-.06.99-.03,1.37.37-.74.5-1.75.03-2.54,0-1.81-.09-3.59-.03-5.38-.37l.94-5.66c.77.12,1.68.33,2.45.38Z"/>
  <path class="cls-2" d="M38.69,1.71c2.07,0,3.98.19,6.04.38l-.76,5.66c-.82.02-1.63-.13-2.45-.19-.77.51-2.11.39-2.83-.19-.15-.02-.36-.06-.38-.17-.13-.99-.14-4.25,0-5.22l.38-.27Z"/>
  <path class="cls-3" d="M38.69,1.71v5.66c-.55.54-2.26.73-2.83.19-.81.06-1.63.08-2.44.17l-.96-5.45c2.03-.46,4.14-.56,6.23-.57Z"/>
  <path class="cls-3" d="M41.52,69.62c.81-.05,1.64,0,2.45-.19l.77,5.55c-.11.39-3.78.5-4.35.49s-1.13,0-1.7,0c-.2-.2.29-4.95-.19-5.66.03-.17.1-.16.19,0,.65-.57,2.14-.72,2.83-.19Z"/>
  <rect class="cls-10" x="83.21" y="41.51" width="5.66" height="5.66"/>
  <rect class="cls-10" x="41.52" y="83.01" width="5.66" height="5.66"/>
  <path class="cls-5" d="M61.52,57.55c-1.13.86-3.09,2.99-3.96,4.15l-3.21-3.4c1.07-.84,3.12-2.89,3.96-3.96l3.21,3.21Z"/>
  <path class="cls-7" d="M27,79.43l4.15-2.26,2.6,4.81c-.03.36-3.36,2.05-3.92,2.36-.01-.13-.83-2.05-.98-2.33-.16-.31-1.73-2.48-1.85-2.58Z"/>
  <path class="cls-7" d="M29.83,87.35l3.96,2.08-2.64,5.09-4.15-2.26c.13-.1,1.7-2.27,1.85-2.58.14-.28.96-2.2.98-2.33Z"/>
  <path class="cls-10" d="M16.24,92.26l-4.15,2.26-2.6-4.81c.03-.32,3.37-2.06,3.92-2.36.07.35,1.04,2.35,1.29,2.77.17.29,1.44,2.06,1.54,2.14Z"/>
  <path class="cls-10" d="M16.24,79.43c-.13.1-1.7,2.27-1.85,2.58-.17.33-.93,2.1-.98,2.33-.53-.35-3.89-2.01-3.92-2.36l2.6-4.81,4.15,2.26Z"/>
  <path class="cls-2" d="M38.69,63.58h1.13c.1.37-.15.58-.75.61v5.34s-.38.27-.38.27c-.06,0-.13,0-.19,0-.87,0-1.77.05-2.64,0v-6.23c.87.08,1.93,0,2.83,0Z"/>
  <path class="cls-2" d="M38.69,7.37c.15.02.37.06.38.17.11,1.14.18,4.76,0,5.78l-.38.27c-1.02.02-1.82.07-2.83.19v-6.23c.97-.07,1.78-.2,2.83-.19Z"/>
  <path class="cls-5" d="M41.52,7.55v6.04c-.78-.09-2-.01-2.83,0v-6.23c.95.01,1.88.12,2.83.19Z"/>
  <path class="cls-2" d="M41.52,63.58v6.04c-.93.06-1.85.18-2.83.19v-6.04c.42.18.91-.16,1.13-.19.54-.06,1.17.07,1.7,0Z"/>
  <path class="cls-7" d="M21.53,73.39c.1.1.19.21.26.33.26.45.25,3.36-.07,4.01.16,5.39-.12,10.83,0,16.22-.06,0-.13,0-.19,0,0-5.41,0-10.82,0-16.22-.92-.14-1.75.29-2.64.38v-4.72c.88,0,1.76,0,2.64,0Z"/>
  <path class="cls-7" d="M24.36,73.39v4.72c-.87-.22-1.72-.49-2.64-.38,0-.1-.18-.37-.19-.65-.05-1.23.04-2.46,0-3.69.59,0,2.45-.12,2.83,0Z"/>
  <path class="cls-4" d="M88,7.37c.19.06.17.08.19.27.1.82-.18,4.27.03,4.6.75.21,1.26.62,1.88,1.05.19.13.5.08.54.11l.36-.12c1.18,1.37,2.15,2.89,2.73,4.63l-.26.4c.02.18.02,2.84,0,3.02l.3.3c-.6,1.62-1.5,3.39-2.68,4.66-.08.09-.3,0-.45-.05-.04.03-.37-.02-.54.11-.6.41-1.18.83-1.88,1.05l-.03,4.88h-.19l-.38-.22v-3.99c-.98.36-1.73.32-2.26-.13-.15-5.41-.15-10.81,0-16.22.44-.49,1.15-.54,2.15-.14.13-1.27.16-2.58.11-3.93l.38-.27Z"/>
  <path class="cls-4" d="M82.53,7.37l.38.22.03,4.05,1.2-.27c2.13-.31,2.04,2.36,1.16,5.75l-.12,10.82c-.56.38-1.31.41-2.26.09v3.98s-.38.27-.38.27h-.19l-.03-4.88c-.7-.22-1.28-.64-1.88-1.05-.18-.12-.5-.07-.54-.11l-.41.1c-1.16-1.41-2.04-2.98-2.71-4.67l.28-.34c-.03-.15-.03-2.87,0-3.02-.2-.11-.26-.16-.28-.35-.08-.72,2.04-3.93,2.66-4.61.08-.09.3,0,.45.05.04-.03.37.02.54-.11.6-.41,1.18-.83,1.88-1.05.19-1.58-.24-3.35.22-4.88Z"/>
  <path class="cls-7" d="M85.36,27.93c.97,0,1.72-.07,2.64-.38v4.72s-2.83,0-2.83,0c-.15-.04-.36-.1-.38-.22-.06-.43-.08-3.54,0-3.85l.38-.27c.03-.17.1-.16.19,0Z"/>
  <path class="cls-7" d="M85.17,27.93v4.34h-2.64v-4.72c.92.16,1.69.34,2.64.38Z"/>
  <path class="cls-7" d="M90.64,13.4l4.15-2.26,2.6,4.81c-.03.36-3.36,2.05-3.92,2.36-.01-.13-.83-2.05-.98-2.33-.16-.31-1.73-2.48-1.85-2.58Z"/>
  <path class="cls-7" d="M93.47,21.33l3.96,2.08-2.64,5.09-4.15-2.26c.13-.1,1.7-2.27,1.85-2.58.14-.28.96-2.2.98-2.33Z"/>
  <path class="cls-10" d="M79.89,26.23l-4.15,2.26-2.6-4.81c.03-.32,3.37-2.06,3.92-2.36.07.35,1.04,2.35,1.29,2.77.17.29,1.44,2.06,1.54,2.14Z"/>
  <path class="cls-10" d="M79.89,13.4c-.13.1-1.7,2.27-1.85,2.58-.17.33-.93,2.1-.98,2.33-.53-.35-3.89-2.01-3.92-2.36l2.6-4.81,4.15,2.26Z"/>
  <path class="cls-7" d="M85.17,7.37c.1.1.19.21.26.33.26.45.25,3.36-.07,4.01.16,5.39-.12,10.83,0,16.22-.06,0-.13,0-.19,0,0-5.41,0-10.82,0-16.22-.92-.14-1.75.29-2.64.38v-4.72c.88,0,1.76,0,2.64,0Z"/>
  <path class="cls-7" d="M88,7.37v4.72c-.87-.22-1.72-.49-2.64-.38,0-.1-.18-.37-.19-.65-.05-1.23.04-2.46,0-3.69.59,0,2.45-.12,2.83,0Z"/>
  <path class="cls-8" d="M75.67,79.62c0,.06,0,.13,0,.19.37,4.27.37,8.56,0,12.83-13.2.18-21.57-14.55-14.68-25.9.13-.22.49-.95.8-.88l13.88,13.76Z"/>
  <path class="cls-8" d="M75.86,71.88l-.19-.38-.38-.76v-12.03l.38-.23c11.93.18,20.19,12.19,15.75,23.39-.21.52-1.61,3.49-2.06,3.39l-13.5-13.39Z"/>
  <path class="cls-8" d="M75.67,58.49v13.02l-9.81-9.9c2.79-1.98,6.38-3.17,9.81-3.12Z"/>
  <path class="cls-8" d="M75.67,92.63c0-4.27,0-8.55,0-12.83l9.62,9.71c-2.78,1.99-6.19,3.07-9.62,3.12Z"/>
  <path class="cls-2" d="M38.69,26.04l.38.17v12.24l-.38.23c-8.35-.07-8.14-12.68,0-12.64Z"/>
  <rect class="cls-2" x="24.54" y="41.51" width="5.47" height="5.66"/>
  <path class="cls-2" d="M38.69,47.17c.15.02.36.06.38.17.12.98.14,4.28,0,5.22l-.38.27h-2.83v-5.66h2.83Z"/>
  <path class="cls-2" d="M40.58,26.42c6.76,2.11,5.03,12.32-1.89,12.26v-12.64c.06,0,.13,0,.19,0,.75-.27,1.11-.33,1.7.38Z"/>
  <rect class="cls-2" x="47.18" y="41.51" width="5.66" height="5.66"/>
  <path class="cls-2" d="M38.69,47.17h2.83v5.66c0,.14-2.53,0-2.83,0v-5.66Z"/>
  <path class="cls-2" d="M40.58,26.42c-.31-.1-1.45-.37-1.7-.38.45.16.42-.48.67-.56.51-.16.87.54,1.02.94Z"/>
</svg>