<?xml version="1.0" encoding="UTF-8"?>
<svg xmlns="http://www.w3.org/2000/svg" viewBox="0 0 656 504">
  <defs>
    <style>
      .cls-1 {
        fill: #9ecfe5;
      }

      .cls-2, .cls-3, .cls-4, .cls-5, .cls-6 {
        mix-blend-mode: multiply;
      }

      .cls-2, .cls-3, .cls-4, .cls-6, .cls-7, .cls-8 {
        opacity: .5;
      }

      .cls-2, .cls-9 {
        fill: #b9c5ef;
      }

      .cls-3 {
        fill: #90a6cb;
      }

      .cls-10 {
        fill: #e8f1f9;
      }

      .cls-11 {
        fill: #50bfa5;
      }

      .cls-12 {
        fill: #184655;
      }

      .cls-13 {
        fill: #86b1f2;
      }

      .cls-4, .cls-14 {
        fill: #fae0b2;
      }

      .cls-15 {
        fill: #9bc1f9;
      }

      .cls-16 {
        fill: #f7a491;
      }

      .cls-17 {
        fill: #fafdff;
      }

      .cls-18 {
        fill: #fe875e;
      }

      .cls-19 {
        fill: #184655;
      }

      .cls-20 {
        fill: #daeef7;
      }

      .cls-21 {
        fill: #96d9c9;
      }

      .cls-22, .cls-6 {
        fill: #81b4da;
      }

      .cls-23 {
        fill: #355389;
      }

      .cls-24 {
        fill: #cce2f2;
      }

      .cls-25 {
        isolation: isolate;
      }

      .cls-26 {
        fill: #f47458;
      }

      .cls-27 {
        fill: #74bdc1;
      }

      .cls-28 {
        fill: #f7a491;
      }

      .cls-29 {
        fill: #eafcfc;
      }

      .cls-30 {
        fill: #55587a;
      }

      .cls-31 {
        fill: #3c8f7c;
      }

      .cls-32 {
        fill: #b75742;
      }

      .cls-5, .cls-33 {
        fill: #d2e7f3;
      }

      .cls-34 {
        fill: #5280b3;
      }

      .cls-35 {
        fill: #c5ddf9;
      }

      .cls-36 {
        fill: #327f6b;
      }

      .cls-37 {
        fill: #f3faff;
      }

      .cls-38 {
        fill: #4276a5;
      }

      .cls-39 {
        fill: #256653;
      }

      .cls-40 {
        fill: #f3f7fc;
        opacity: .1;
      }

      .cls-41 {
        fill: #13375b;
      }

      .cls-42 {
        fill: #f7cc7f;
      }

      .cls-43 {
        fill: #66ccb2;
      }

      .cls-44 {
        fill: #f47458;
      }

      .cls-8 {
        fill: #fff;
        mix-blend-mode: screen;
      }
    </style>
  </defs>
  <g class="cls-25">
    <g id="Layer_3" data-name="Layer 3">
      <g>
        <path class="cls-29" d="M423.61,27.05s-165.47,29.73-150.07,83.06c15.4,53.33-82.35-18.94-121.35.29-27.77,13.69-16.67,55.36-30.11,72.15-30.81,38.5-62.31-9.98-101.52,19.11-39.21,29.09,5.89,294.82,21.86,294.78l584.13.02s43.26-72.93,3.12-118.56c-40.14-45.63-12.58-66.49-7.7-84.13,5.6-20.25,25.66-78.06-31.48-103.37-41.41-18.34-42.52-82.47-40.84-94.11,0,0,16.02-92.03-126.04-69.24Z"/>
        <g>
          <path class="cls-30" d="M393.29,260.75h-2.03v-23.54c0-6.01,4.89-10.89,10.89-10.89h15.99c4.88,0,8.86-3.97,8.86-8.86v-8.14h2.03v8.14c0,6.01-4.89,10.89-10.89,10.89h-15.99c-4.88,0-8.86,3.97-8.86,8.86v23.54Z"/>
          <path class="cls-30" d="M429.18,260.75h-2.03v-23.03c0-6.29,5.12-11.41,11.41-11.41,5.17,0,9.37-4.2,9.37-9.37v-7.63h2.03v7.63c0,6.29-5.12,11.41-11.41,11.41-5.17,0-9.37,4.2-9.37,9.37v23.03Z"/>
          <g>
            <g>
              <rect class="cls-30" x="421.29" y="168.23" width="2.71" height="14.29"/>
              <rect class="cls-30" x="426.7" y="168.23" width="2.71" height="14.29"/>
              <rect class="cls-30" x="474.63" y="151.7" width="2.71" height="19.13" transform="translate(314.72 637.25) rotate(-90)"/>
              <rect class="cls-30" x="474.63" y="146.29" width="2.71" height="19.13" transform="translate(320.13 631.83) rotate(-90)"/>
              <rect class="cls-30" x="452.42" y="168.23" width="2.71" height="14.29"/>
              <rect class="cls-30" x="421.29" y="116.34" width="2.71" height="14.29" rx=".19" ry=".19"/>
              <rect class="cls-30" x="426.7" y="116.34" width="2.71" height="14.29" rx=".19" ry=".19"/>
              <rect class="cls-30" x="452.42" y="116.34" width="2.71" height="14.29" rx=".19" ry=".19"/>
              <rect class="cls-22" x="408.39" y="180.03" width="56.51" height="30.45" rx=".6" ry=".6"/>
              <rect class="cls-35" x="411.99" y="183.87" width="45.41" height="22.78" rx=".57" ry=".57"/>
              <rect class="cls-22" x="405.98" y="124.78" width="61.33" height="44.18" rx=".73" ry=".73"/>
              <rect class="cls-35" x="410.98" y="129.78" width="47.44" height="34.18" rx=".86" ry=".86"/>
              <path class="cls-40" d="M439.13,129.78l-28.15,25.76v3.84c0,2.53,2.05,4.58,4.58,4.58l37.01-34.18h-13.43Z"/>
              <polygon class="cls-40" points="431 163.95 458.42 138.95 458.42 143.12 435.66 163.95 431 163.95"/>
              <path class="cls-30" d="M408.39,193.04h-13.27v-49.63h10.86v-2.71h-12.22c-.75,0-1.35.61-1.35,1.35v52.34c0,.75.61,1.35,1.35,1.35h14.62v-2.71Z"/>
              <path class="cls-30" d="M408.39,187.68h-7.8v-38.9h5.4v-2.71h-6.75c-.75,0-1.35.61-1.35,1.35v41.61c0,.75.61,1.35,1.35,1.35h9.16v-2.71Z"/>
              <rect class="cls-3" x="461.9" y="124.78" width="5.41" height="44.18" rx=".68" ry=".68"/>
              <rect class="cls-3" x="460.84" y="180.03" width="4.06" height="30.45" rx=".51" ry=".51"/>
              <polygon class="cls-40" points="426.7 206.65 446.86 183.87 451.97 183.87 431.28 206.65 426.7 206.65"/>
              <path class="cls-40" d="M432.43,183.87l-20.33,19.67c.41,1.78,2,3.1,3.91,3.1h2.19l22.05-22.78h-7.82Z"/>
              <path class="cls-30" d="M525.11,138.11h2.71v14.09c0,.11-.09.19-.19.19h-2.32c-.11,0-.19-.09-.19-.19v-14.09h0Z" transform="translate(1052.93 290.51) rotate(180)"/>
              <path class="cls-30" d="M489.19,138.11h2.71v14.09c0,.11-.09.19-.19.19h-2.32c-.11,0-.19-.09-.19-.19v-14.09h0Z" transform="translate(981.09 290.51) rotate(-180)"/>
              <rect class="cls-22" x="483.65" y="146.07" width="53.34" height="35.14" rx=".8" ry=".8"/>
              <rect class="cls-3" x="530.93" y="146.07" width="6.07" height="35.14" rx=".76" ry=".76"/>
              <rect class="cls-3" x="487.31" y="151.26" width="39.15" height="2.27" rx=".16" ry=".16"/>
              <rect class="cls-3" x="487.31" y="158.56" width="39.15" height="2.27" rx=".16" ry=".16"/>
              <rect class="cls-3" x="487.31" y="165.86" width="39.15" height="2.27" rx=".16" ry=".16"/>
              <rect class="cls-3" x="487.31" y="173.15" width="39.15" height="2.27" rx=".16" ry=".16"/>
              <path class="cls-30" d="M497.7,208c-2.41,0-4.38-1.96-4.38-4.38v-22.41h2.46v22.41c0,1.06.86,1.91,1.91,1.91s1.91-.86,1.91-1.91v-9.58c0-2.73,2.22-4.95,4.95-4.95h18.94c1.96,0,3.55-1.59,3.55-3.55v-4.33h2.46v4.33c0,3.31-2.7,6.01-6.01,6.01h-18.94c-1.37,0-2.49,1.12-2.49,2.49v9.58c0,2.41-1.96,4.38-4.38,4.38Z"/>
            </g>
            <polygon class="cls-44" points="435.78 156.05 433.47 145.95 427.07 145.95 425.97 151.54 421.48 139.91 417.29 147.29 410.98 147.29 410.98 146.59 416.62 146.59 421.66 137.7 425.66 148.05 426.21 145.24 434.32 145.24 435.82 151.81 439.38 137.42 442.34 146.01 458.42 146.01 458.42 146.72 441.56 146.72 439.54 140.85 435.78 156.05"/>
          </g>
        </g>
        <g>
          <path class="cls-35" d="M336.12,264.99l1.32-.54c-3.9-9.59-6.46-29.43-4.92-48.7,1.73-21.72-.35-33.31-.37-33.43l-1.4.26c.02.11,2.06,11.55.35,33.06-1.55,19.5,1.04,39.54,5.02,49.35Z"/>
          <g>
            <g>
              <path class="cls-14" d="M247.79,472.3c5.03-5.03,11.71-7.79,18.82-7.79h68.37c7.11,0,13.79,2.77,18.82,7.79l9.06,9.06-3.77,3.77-9.06-9.06c-4.02-4.02-9.36-6.23-15.05-6.23h-68.37c-5.68,0-11.03,2.21-15.05,6.23l-9.06,9.06-3.77-3.77,9.06-9.06Z"/>
              <rect class="cls-14" x="298.07" y="104.53" width="5.05" height="359.98" transform="translate(601.18 569.03) rotate(180)"/>
              <path class="cls-22" d="M295.17,459.27h11v4.21c0,.57-.46,1.02-1.02,1.02h-8.95c-.57,0-1.02-.46-1.02-1.02v-4.21h0Z" transform="translate(601.35 923.78) rotate(180)"/>
              <rect class="cls-41" x="297.07" y="104.53" width="7.04" height="3.05" rx=".3" ry=".3" transform="translate(601.18 212.11) rotate(180)"/>
              <path class="cls-41" d="M269.09,116.18h.22c.5,0,.91.39.95.89.45,4.66,4.38,8.31,9.15,8.31s8.71-3.65,9.15-8.31c.05-.5.45-.89.95-.89h24.6c.5,0,.91.39.95.89.45,4.66,4.38,8.31,9.15,8.31s8.71-3.65,9.15-8.31c.05-.5.45-.89.95-.89h.22c.55,0,1.01.47.96,1.02-.52,5.77-5.38,10.3-11.28,10.3-1.13,0-2.22-.18-3.25-.48l.02.05c-3.94-1.13-7.01-4.34-7.93-8.36-.1-.44-.48-.74-.93-.74h-20.64c-.45,0-.83.31-.93.74-.92,4.02-3.99,7.23-7.93,8.36l.02-.05c-1.03.31-2.12.48-3.25.48-5.9,0-10.76-4.54-11.28-10.3-.05-.55.4-1.02.96-1.02Z"/>
              <path class="cls-22" d="M229.59,485.12c0,6.7,5.43,12.12,12.13,12.12s12.12-5.43,12.12-12.12-5.43-12.13-12.12-12.13-12.13,5.43-12.13,12.13Z"/>
              <path d="M235.23,485.12c0,3.58,2.9,6.48,6.48,6.48s6.48-2.9,6.48-6.48-2.9-6.48-6.48-6.48-6.48,2.9-6.48,6.48Z"/>
              <path class="cls-22" d="M348.67,485.12c0,6.7,5.43,12.12,12.12,12.12s12.13-5.43,12.13-12.12-5.43-12.13-12.13-12.13-12.12,5.43-12.12,12.13Z"/>
              <circle cx="360.79" cy="485.12" r="6.48"/>
            </g>
            <g>
              <path class="cls-35" d="M352.14,170.07c0,1.72-.77,3.35-2.11,4.44-2.53,2.07-7.49,4.9-15.62,4.91l-.03,2.54c-.02,1.48-1.24,2.67-2.72,2.65h0c-1.48-.02-2.67-1.24-2.65-2.72l.03-2.54c-8.51-.07-13.58-3.13-16.12-5.32-1.3-1.12-2.03-2.77-1.99-4.49l1.05-40.93c.06-2.52,1.88-4.64,4.36-5.1l4.47-.82c.71-.13,1.34-.51,1.79-1.07l1.75-2.18c.48-.6,1.21-.94,1.97-.93l11.75.15c.77,0,1.48.37,1.95.98l1.7,2.22c.44.57,1.06.97,1.76,1.11l4.45.94c2.46.52,4.23,2.69,4.23,5.21v40.94ZM329.95,123.32c-.02,1.2.95,2.19,2.15,2.21,1.2.02,2.19-.95,2.21-2.15.02-1.2-.95-2.19-2.15-2.21-1.2-.02-2.19.95-2.21,2.15Z"/>
              <path class="cls-20" d="M316.1,132.75c-1.01.12-1.77.96-1.8,1.96l-.83,32.46c-.04,1.5.6,2.93,1.75,3.91,2.3,1.96,6.96,4.74,14.86,4.63.92-.01,1.84,0,2.77.04,7.89.31,12.62-2.34,14.97-4.25,1.17-.95,1.85-2.37,1.85-3.86v-32.76c0-1.01-.76-1.87-1.77-2.01-13.02-1.78-24.75-.98-31.79-.12Z"/>
              <path class="cls-44" d="M348.03,145.69l-16.18,2.2-16.13-4.27v-.02s-.58,22.08-.58,22.08c-.04,1.37.55,2.69,1.59,3.58,2.09,1.8,6.33,4.34,13.5,4.24.84-.01,1.68,0,2.51.03,7.17.28,11.47-2.15,13.61-3.89,1.06-.87,1.68-2.17,1.68-3.54v-20.42h0Z"/>
              <path class="cls-32" d="M315.71,143.62s13.74,4.19,21.97-.31c8.23-4.5,15.34,2.12,5.85,6.89-9.74,4.9-27.83-6.58-27.83-6.58Z"/>
              <path class="cls-8" d="M329.5,149.38h30.29c.76,0,1.37.61,1.37,1.37v1.65c0,.76-.61,1.37-1.37,1.37h-30.29c-.76,0-1.37-.61-1.37-1.37v-1.65c0-.76.61-1.37,1.37-1.37Z" transform="translate(188.65 494.24) rotate(-89.26)"/>
            </g>
            <path class="cls-41" d="M329.95,123.36c1.9-1.51,3.19-3.75,3.43-6.3.05-.5.45-.89.95-.89h.22c.55,0,1.01.47.96,1.02-.29,3.28-1.99,6.15-4.48,8.03-.9-.56-1.06-1.7-1.08-1.87Z"/>
          </g>
        </g>
        <g>
          <path class="cls-42" d="M612.56,260.4c-19.52,10.24-27.88-6.97-27.33-6.55-.43-.37-3.62-1.36-5.68-2.1-8.55-3.08-14.4-11.66-15.14-20.82-12.41-5.77-16.95-20.2-9.75-29.16-3.39-8.81,2.12-19.41,9.94-24.84,5.19-11.31,21.47-8.34,30.84-.83,4.75,3.81,7.88,9.78,8.44,15.98,10.44,3.04,16.79,13.31,15.61,24.44,14.64,9.51,12.98,33.42-6.94,43.87Z"/>
          <g>
            <path class="cls-28" d="M564.68,257.5l-13.11-.6-2.02,8.59c-13.22-2.04-30.68-7.91-30.68-7.91,0,0-1.65-.53-3.71-1.37-1.9-.78-4.57-1.87-5.61-2.3-1.69-.7-2.99-1.64-4.05-2.47-1.06-.83-2.88-2.24-3.89-2.44-.64-.13-2.34-.53-3.26-.74-.91-.22-1.97-.51-2.47-.56-.3-.03-.9-.36-1.32-.61-.63-.37-1.39.22-1.18.92.2.66,1.03,1.18,1.55,1.51,1.46.92,4.16,1.45,4.01,1.67-.15.22-4.76.88-5.28.99-.52.11-5.88.91-6.87,1.41-.99.5-.84,1.2-.23,1.39.52.17,8.01-.39,8.01-.39,0,0,.95-.07.65.34-.31.41-7.1.93-8.1,1.2-1,.27-1.54.92-.76,1.5.95.71,8.17-.3,8.17-.3,0,0,.91-.11.81.27-.09.38-5.88.73-6.39,1.02-.51.29-.7,1.04.12,1.42.97.45,7.41-.5,7.41-.5,0,0,.51.07.33.3-.17.24-5.09.89-5.55,1.37-.39.41-.03.77-.03.77.6.93,5.29-.36,7.61-.3,2.31.07,4.94-.94,7.69-.56,1.66.23,4.2,1.29,6.46,2.36,1.5.78,3.14,1.63,4.89,2.53h0c15.89,8.12,37.2,18.39,39.46,12.93,1.15-2.78,5.51-15.28,7.34-21.43Z"/>
            <path class="cls-21" d="M548.08,260.51l15.49,3.07s4.49-13.65,6.27-20.25c2.16-8.01,7.75-19.18,6.75-19.21-2.8-.09-8.01,1.15-10.92,3.58-10.09,8.38-17.59,32.82-17.59,32.82Z"/>
            <path class="cls-28" d="M629.33,464.49s1.55,10.77,4.21,14.24c.89,1.17,2.53,2.64,3.6,4.75,1.67,3.28.75,8.17-.48,10.86-.63,1.38.04,1.38-1.39,1.82-4.26,1.32-8.8-.9-10.61-4.99-1.01-2.29-1.9-5.33-2.08-9.18-.46-9.78-3.49-14.75-3.49-14.75l10.25-2.75Z"/>
            <path class="cls-28" d="M582.71,469.41s-.96,12.14-.18,16.09c.42,2.11,2.73,6.46,1.67,8.45-1.06,1.99-2.28,2.49-2.28,2.49l-27.52.44c-1.5.02-.51-.94.7-1.83,1.98-1.46,3.57-2.42,9.89-5.49.41-.2,1.91-1.16,2.45-1.49,1.37-.84,2.75-2.16,3.94-3.48,1.98-2.2,2.15-12.9,2.15-12.9l9.17-2.28Z"/>
            <path class="cls-36" d="M561.21,308.02s-3.47,19.71-1.19,32.64c2.28,12.92,13.2,132.72,13.2,132.72l12.14.69s2.54-50.04,2.09-57-4.06-18.6-4.06-18.6l1.21-40.4-15.31-53.08-8.07,3.04Z"/>
            <path class="cls-31" d="M596.87,303.87s9.56,14.42,11.83,26.35c2.28,11.93-1.67,48.59,2.71,64.23,2.37,8.46,11.35,21.53,12.71,32.47,1.37,10.94,6.72,39.58,6.72,39.58l-12.13,2.41-28.19-71.54-22.11-64.66-5.66-33.3,34.13,4.47Z"/>
            <path class="cls-43" d="M589.14,221.86s12.65-.81,17.66,4.66c5,5.47-11.1,48.72-12.01,55.68-.91,6.96,4.64,25.46,4.64,25.46,0,0-29.72,5.99-38.21.36,0,0-.91-50.04,0-55.01.91-4.97,8.49-25.19,10.31-27.17,1.82-1.99,17.62-3.98,17.62-3.98Z"/>
            <path class="cls-16" d="M584.92,204.91s.07.37.18,1.01c.56,3.05,2.74,13.16,4.2,15.94,1.77,3.36-6.07,14.08-13.62,12.77-2.25-.39,1.9-9.85,1.7-10.85-.38-1.92-.9-4.53-1.43-7.22-.3-1.51-.6-3.05-.89-4.49-.81-4.1-1.47-7.45-1.47-7.45l11.31.28Z"/>
            <path class="cls-44" d="M585.11,205.92c-.12-.64-.18-1.01-.18-1.01l-11.31-.28s.66,3.35,1.47,7.45c.28,1.43.58,2.96.88,4.46,1.75-.26,3.57-1.11,5.4-2.71,2-1.75,3.3-3.85,4.09-6.1-.14-.72-.26-1.33-.34-1.81Z"/>
            <path class="cls-16" d="M577.31,179.14s5.33-.62,8.68,3.72c3.34,4.33,6.95,17.73-1.36,25.02-8.3,7.29-16.51-.96-17.72-9.7-1.22-8.74-1.69-19.35,10.41-19.03Z"/>
            <path class="cls-42" d="M576.71,177.71s7.12,12.74,12.22,13.33c5.1.59,5.77,7.36,5.77,7.36,0,0-1.82-15.6-6.87-18.61-5.05-3.01-11.12-2.08-11.12-2.08Z"/>
            <path class="cls-12" d="M623.83,489.01c6.61,1.21,11.01-2.67,13.3-5.57,1.68,3.29,2.5,8.19,1.26,10.89-1.09,2.38-4.27,2.31-6.77,2.4-2.65.1-4.7-1.38-6.01-3.69-.61-1.08-1.25-2.42-1.78-4.04Z"/>
            <path class="cls-12" d="M567.46,488.07c7.28,1.87,12.66.6,15.67-.62.78,2.2,1.8,4.97,1.26,6.56-.67,1.95-1.62,2.39-2.46,2.42-6.65.17-24.35.41-29.42.48-.71,0-1.1-.82-.64-1.36,1.26-1.5,15.05-7.15,15.59-7.48Z"/>
            <path class="cls-16" d="M587.6,194.24c-.41,2.26.42,4.34,1.86,4.64,1.44.3,2.95-1.3,3.36-3.56.41-2.26-.42-4.34-1.86-4.64-1.44-.3-2.95,1.3-3.36,3.56Z"/>
            <rect class="cls-12" x="563.65" y="251.93" width="38.19" height="49.7" rx="1.87" ry="1.87" transform="translate(-61.95 300.71) rotate(-27.53)"/>
            <path class="cls-41" d="M564.04,256.92c-.1-.19-.03-.42.16-.51l12.72-6.69c.19-.1.42-.03.51.16l.69,1.32-13.39,7.04-.7-1.32Z"/>
            <path class="cls-41" d="M569.71,251.46c1.11-.58,2.48-.16,3.06.95.58,1.11.16,2.48-.95,3.06-1.11.58-2.48.16-3.06-.95-.58-1.11-.16-2.48.95-3.06ZM571.44,254.75c.71-.37.98-1.25.61-1.96-.37-.71-1.25-.98-1.96-.61-.71.37-.98,1.25-.61,1.96.37.71,1.25.98,1.96.61Z"/>
            <path class="cls-23" d="M564.08,256.51c-.09.11-.12.28-.04.42l.7,1.32,13.39-7.04c.48.92.13,2.05-.79,2.53l-10.07,5.3c-.92.48-2.05.13-2.53-.79l-.7-1.32c-.07-.14-.05-.3.04-.42Z"/>
            <path class="cls-28" d="M561.35,282.97c.21-.23.15-.37.15-.37-.4-.35-.61-1.89-.17-2.31.44-.43,3-1.14,3.21-1.33.21-.19.56-.6.93-.7.37-.11,2.85-1.76,3.38-1.91.52-.15,2.44.36,3.54.37,1.1.01,2.93.82,3.45,1,.39.14,7.42-1.78,9.24-2.25,1.97-.51,3.47-1.03,3.47-1.03,0,0,11.32-4.28,23.31-7.84l-4.36-9.56,11.2-3.84c2.02,5.52,5.99,13.91,6.67,16.58,1.33,5.25-16.81,8.64-32.93,11.39h0c-1.77.3-3.45.58-4.97.82-2.06.41-5.46,1.38-7.03,1.82h0c-.97.36-2.29.87-2.44.99-.24.2-1.99.94-2.14.99-.15.04-.71.54-.95.74-.24.2-3.87,1.12-4.45,1.29-.58.17-1.97.1-1.97.1l-2.45.51c-1.8.37-1.6-1.58-1.6-1.58-.85.17-1.34-.06-1.57-.52-.23-.46-.18-1.05-.23-1.13-.05-.09-.32-.08-.32-.08-.54.13-1.05-.42-1.18-.81-.14-.39.02-1.13.23-1.37Z"/>
            <path class="cls-21" d="M619.83,253.08s-7.83-21.18-12.75-26.23c-4.92-5.05-15.47-5.34-18.66.03-3.19,5.37,17.14,31.2,17.14,31.2l14.27-4.99Z"/>
          </g>
        </g>
        <g>
          <path class="cls-16" d="M482.89,257.79l-12.88,10.2s-21.25,1.79-22.46-3.7c-1.01-4.61,15.21-10.7,15.21-10.7,0,0,9.19-2.43,12.82-5.35,3.63-2.92,7.3,9.55,7.3,9.55Z"/>
          <path class="cls-26" d="M475.6,248.25c3.63-2.92,7.3,9.55,7.3,9.55l-1.07.85c-4.73,2.58-13.15-1.56-12.48-7.18,2.34-.9,4.76-2.01,6.25-3.21Z"/>
          <g>
            <path class="cls-16" d="M503.27,239.48c.39.17-12.19,17.33-20.09,17.77-7.9.44-16.78-5.47-16.32-11.37.51-6.53,16.37-22.7,26.55-21.19,10.17,1.51,9.87,14.8,9.87,14.8Z"/>
            <path class="cls-19" d="M503.52,218.77c3.75,5.44,4.02,11.2,3.96,13.49,1.88,2.29,3.63,6.23,1.86,14.02-2.18,9.57-11.33,13.68-18.76,12.87-7.42-.81-12.68,2.6-12.68,2.6,0,0,5.14-5.91,6.81-7.31,1-.84,2.18-1.66,3.37-2.12,3.14-1.21,1.33-5.77,2.18-8.47.66-2.08,3.73-5.33,4.87-8.71l.4-3.04s-.75-5.26-4.35-7.44c-3.59-2.18,7.53-12.87,12.33-5.89Z"/>
            <path class="cls-16" d="M487.86,246.74c-1.82,1.82-2.43,4.15-1.38,5.2,1.05,1.05,3.37.42,5.19-1.4,1.82-1.82,2.43-4.15,1.38-5.2-1.05-1.05-3.37-.42-5.19,1.4Z"/>
          </g>
          <path class="cls-11" d="M377.8,260.8s59.06-8.07,67.14-7.18c8.08.88,28.73,8.15,26.64,18.73-2.09,10.58-47.97,51.03-97.71,45.17l3.93-56.71Z"/>
          <polygon class="cls-16" points="425.88 283.07 403.35 294.25 408.54 314.68 443.27 298.53 425.88 283.07"/>
          <path class="cls-9" d="M526.18,258.64c-.61-3.47-3.11-6.29-6.36-7.66-10.92-4.6-23.06.57-33.86,5.54-33.27,15.32-12.01,32.7-4.55,31.1,8.34-2.36,21.5-4.81,29.56-7.8,4.99-2.57,6.34-7,8.66-11.48,5.56-1.99,7.24-5.79,6.55-9.71Z"/>
          <path class="cls-38" d="M378.84,256.01s-99.13,14.61-105.17,15.81c-6.04,1.19-48.36,4.97-54.78,8.37-6.42,3.4-22.29,13.6-33.62,9.07-11.33-4.53-21.73-12.09-29.38-4.53-7.65,7.56-26.7,34.38-26.7,34.38,0,0,61.74,10.58,84.03,12.47,22.29,1.89,33.76,7.93,62.02,0,28.27-7.93,20.2-12.47,56.53-6.04,36.33,6.42,71.2,7.93,76.62-.76,5.42-8.69-15.44-66.88-29.56-68.76Z"/>
          <path class="cls-31" d="M425.36,282.26s25.03-16.38,34.17-17.78c9.15-1.4,16.74,7.68,15.78,16.06-.96,8.38-39.07,18.78-39.07,18.78l-10.89-17.05Z"/>
          <path class="cls-1" d="M526.18,258.64c-.61-3.47-3.11-6.29-6.36-7.66-10.92-4.6-23.06.57-33.86,5.54-33.27,15.32-12.01,32.7-4.55,31.1,8.34-2.36,21.5-4.81,29.56-7.8,4.99-2.57,6.34-7,8.66-11.48,5.56-1.99,7.24-5.79,6.55-9.71Z"/>
          <path class="cls-2" d="M492.9,263.47c10.52-4.84,22.33-9.87,33.03-5.87.1.34.19.69.25,1.04.69,3.92-.99,7.72-6.55,9.71-2.32,4.48-3.68,8.91-8.66,11.48-8.06,2.99-21.22,5.44-29.56,7.8-1.5.32-3.55-.13-5.61-1.16-2.85-6.15-.56-14.86,17.11-22.99Z"/>
          <g>
            <path class="cls-41" d="M400.73,370.09l3.84,9.16c.38.9,1.41,1.32,2.31.95l148.54-62.2c.9-.38,1.32-1.41.95-2.31l-3.84-9.16c-.38-.9-1.41-1.32-2.31-.95l-148.54,62.2c-.9.38-1.32,1.41-.95,2.31Z"/>
            <path class="cls-33" d="M133.04,315.41h267.07l120.19-51.84c7.25-3.13,15.65.21,18.78,7.46,3.13,7.25-.21,15.65-7.46,18.78l-124.29,53.61c-2,.86-4.08,1.22-6.12,1.15v7.62H133.04c-10.16,0-18.39-8.23-18.39-18.39h0c0-10.16,8.23-18.39,18.39-18.39Z"/>
            <path class="cls-5" d="M133.04,352.18c-.08,0-.16,0-.24,0-16.08-.21-17.27-24.2-1.27-25.83.62-.06,1.25-.1,1.89-.1h267.07l120.19-51.84c3.41-1.47,7.08-1.51,10.34-.38,7.19,2.5,7.67,12.65.71,15.72-.04.02-.07.03-.11.05l-124.29,53.61c-2,.86-4.08,1.22-6.12,1.15v7.62H133.04Z"/>
            <rect class="cls-41" x="301.9" y="314.63" width="4.01" height="188.72" transform="translate(1.84 819.34) rotate(-107.03)"/>
            <rect class="cls-41" x="301.9" y="314.63" width="4.01" height="188.72" transform="translate(-176.15 579.8) rotate(-72.97)"/>
            <path class="cls-41" d="M139.79,264.92h233.32c3.89,0,7.05,3.16,7.05,7.05v59.22c0,3.89-3.16,7.05-7.05,7.05h-20.3v13.94h-5.47v-13.94h-177.15v13.94h-5.47v-13.94h-24.93c-3.89,0-7.05-3.16-7.05-7.05v-59.22c0-3.89,3.16-7.05,7.05-7.05ZM330.51,332.77h35.45c3.89,0,7.05-3.16,7.05-7.05v-22.24h-42.5v29.28ZM330.51,298.52h42.5v-21.08c0-3.89-3.16-7.05-7.05-7.05h-35.45v28.13ZM191.79,332.77h133.75v-29.28h-133.75v29.28ZM191.79,298.52h133.75v-28.13h-133.75v28.13ZM139.9,325.73c0,3.89,3.16,7.05,7.05,7.05h39.87v-29.28h-46.92v22.24ZM139.9,298.52h46.92v-28.13h-39.87c-3.89,0-7.05,3.16-7.05,7.05v21.08Z"/>
            <rect class="cls-34" x="102.61" y="371.33" width="445.87" height="16.41" transform="translate(651.08 759.06) rotate(180)"/>
            <rect class="cls-41" x="115.92" y="430.24" width="400.56" height="11.36" transform="translate(632.41 871.83) rotate(180)"/>
            <rect class="cls-41" x="440.65" y="387.74" width="7.57" height="42.5" transform="translate(888.88 817.97) rotate(180)"/>
            <rect class="cls-41" x="164.73" y="387.74" width="7.57" height="42.5" transform="translate(337.02 817.97) rotate(180)"/>
            <g>
              <circle class="cls-22" cx="493.89" cy="481.47" r="15.48"/>
              <path d="M485.62,481.47c0,4.57,3.7,8.27,8.27,8.27s8.27-3.7,8.27-8.27-3.7-8.27-8.27-8.27-8.27,3.7-8.27,8.27Z"/>
              <path class="cls-14" d="M513.43,457.62s.6,7.71-7.64,11.9c-8.24,4.19-8.24,8.24-8.24,8.24,0,0,.8,6.25-3.72,6.38-4.52.13-4.78-5.72-4.39-10.5.4-4.78,3.99-9.7,4.72-10.9.73-1.2.27-5.12.27-5.12h19.01Z"/>
              <rect class="cls-22" x="492.83" y="453.96" width="23.66" height="5.45" transform="translate(1009.32 913.37) rotate(180)"/>
            </g>
            <rect class="cls-41" x="503.18" y="441.6" width="3.67" height="12.37" transform="translate(1010.03 895.56) rotate(180)"/>
            <g>
              <path class="cls-22" d="M111.96,481.47c0,8.55,6.93,15.48,15.48,15.48s15.48-6.93,15.48-15.48-6.93-15.48-15.48-15.48-15.48,6.93-15.48,15.48Z"/>
              <path d="M118.88,481.47c0,4.57,3.7,8.27,8.27,8.27s8.27-3.7,8.27-8.27-3.7-8.27-8.27-8.27-8.27,3.7-8.27,8.27Z"/>
              <path class="cls-14" d="M146.98,457.62s.6,7.71-7.64,11.9c-8.24,4.19-8.24,8.24-8.24,8.24,0,0,.8,6.25-3.72,6.38-4.52.13-4.18-6.16-3.78-10.95s3.38-9.26,4.11-10.45c.73-1.2.27-5.12.27-5.12h19.01Z"/>
              <rect class="cls-22" x="126.38" y="453.96" width="23.66" height="5.45" transform="translate(276.43 913.37) rotate(180)"/>
            </g>
            <rect class="cls-41" x="136.73" y="441.6" width="3.67" height="12.37" transform="translate(277.14 895.56) rotate(180)"/>
            <path class="cls-14" d="M393.52,349.03l143.11-61.4,2.33,6.15c3.08,8.12-1.01,17.2-9.13,20.28l-136.31,57.27H135.32c-8.69,0-15.73-7.04-15.73-15.73v-6.57h273.93Z"/>
            <path class="cls-4" d="M394.82,361.34H120.68c-.7-1.78-1.08-3.71-1.08-5.74v-6.57h273.93l143.11-61.4,2.33,6.15c.82,2.16,1.13,4.38.99,6.54l-145.13,61.03Z"/>
            <rect class="cls-41" x="93.9" y="302.74" width="13.46" height="88.57" rx="1.77" ry="1.77" transform="translate(201.26 694.05) rotate(180)"/>
            <rect class="cls-41" x="540.25" y="335.98" width="13.46" height="51.76" rx="1.77" ry="1.77" transform="translate(1093.96 723.72) rotate(180)"/>
            <path class="cls-34" d="M385.01,339.56h22.28v37.6c0,5.84-4.74,10.58-10.58,10.58h-1.12c-5.84,0-10.58-4.74-10.58-10.58v-37.6h0Z" transform="translate(792.31 727.3) rotate(-180)"/>
            <circle class="cls-41" cx="396.16" cy="352.18" r="8.08"/>
            <rect class="cls-6" x="385.01" y="363.65" width="22.28" height="7.68" transform="translate(792.31 734.97) rotate(180)"/>
          </g>
        </g>
        <g class="cls-7">
          <path class="cls-27" d="M225.67,218.92h8.87v7.2h7.2v8.87h-7.2v7.2h-8.87v-7.2h-7.2v-8.87h7.2v-7.2ZM219.66,227.31v6.49h7.2v7.2h6.49v-7.2h7.2v-6.49h-7.2v-7.2h-6.49v7.2h-7.2Z"/>
          <path class="cls-27" d="M598.3,71.32h11.32v9.19h9.19v11.32h-9.19v9.19h-11.32v-9.19h-9.19v-11.32h9.19v-9.19ZM590.63,82.03v8.28h9.19v9.19h8.28v-9.19h9.19v-8.28h-9.19v-9.19h-8.28v9.19h-9.19Z"/>
          <path class="cls-27" d="M379.35,31.17h4.69v3.81h3.81v4.69h-3.81v3.81h-4.69v-3.81h-3.81v-4.69h3.81v-3.81ZM376.17,35.61v3.43h3.81v3.81h3.43v-3.81h3.81v-3.43h-3.81v-3.81h-3.43v3.81h-3.81Z"/>
          <path class="cls-27" d="M628.07,329.35h5.64v4.58h4.58v5.64h-4.58v4.58h-5.64v-4.58h-4.58v-5.64h4.58v-4.58ZM624.25,334.68v4.13h4.58v4.58h4.13v-4.58h4.58v-4.13h-4.58v-4.58h-4.13v4.58h-4.58Z"/>
          <path class="cls-27" d="M58.61,62.05h5.64v4.58h4.58v5.64h-4.58v4.58h-5.64v-4.58h-4.58v-5.64h4.58v-4.58ZM54.79,67.39v4.13h4.58v4.58h4.13v-4.58h4.58v-4.13h-4.58v-4.58h-4.13v4.58h-4.58Z"/>
          <path class="cls-27" d="M190.09,172.68h3.35v2.72h2.72v3.34h-2.72v2.72h-3.35v-2.72h-2.72v-3.34h2.72v-2.72ZM187.82,175.85v2.45h2.72v2.72h2.45v-2.72h2.72v-2.45h-2.72v-2.72h-2.45v2.72h-2.72Z"/>
          <path class="cls-27" d="M453.55,56.58c4.06,0,7.37,3.31,7.37,7.37s-3.31,7.37-7.37,7.37-7.37-3.31-7.37-7.37,3.31-7.37,7.37-7.37ZM453.55,69.45c3.03,0,5.5-2.47,5.5-5.5s-2.47-5.5-5.5-5.5-5.5,2.47-5.5,5.5,2.47,5.5,5.5,5.5Z"/>
          <path class="cls-27" d="M33.19,160.09c2.23,0,4.05,1.82,4.05,4.05s-1.82,4.05-4.05,4.05-4.05-1.82-4.05-4.05,1.82-4.05,4.05-4.05ZM33.19,167.16c1.67,0,3.02-1.36,3.02-3.02s-1.36-3.02-3.02-3.02-3.02,1.36-3.02,3.02,1.36,3.02,3.02,3.02Z"/>
          <path class="cls-27" d="M630.87,186.43c-2.23,0-4.05-1.82-4.05-4.05s1.82-4.05,4.05-4.05,4.05,1.82,4.05,4.05-1.82,4.05-4.05,4.05ZM630.87,179.36c-1.67,0-3.02,1.36-3.02,3.02s1.36,3.02,3.02,3.02,3.02-1.36,3.02-3.02-1.36-3.02-3.02-3.02Z"/>
          <path class="cls-27" d="M61.23,278h3.73v3.03h3.03v3.73h-3.03v3.03h-3.73v-3.03h-3.03v-3.73h3.03v-3.03ZM58.7,281.54v2.73h3.03v3.03h2.73v-3.03h3.03v-2.73h-3.03v-3.03h-2.73v3.03h-3.03Z"/>
          <path class="cls-27" d="M254.23,59.69h8.87v7.2h7.2v8.87h-7.2v7.2h-8.87v-7.2h-7.2v-8.87h7.2v-7.2ZM248.22,68.08v6.49h7.2v7.2h6.49v-7.2h7.2v-6.49h-7.2v-7.2h-6.49v7.2h-7.2Z"/>
          <path class="cls-27" d="M207.72,122.8c2.55,0,4.63,2.08,4.63,4.63s-2.08,4.63-4.63,4.63-4.63-2.08-4.63-4.63,2.08-4.63,4.63-4.63ZM207.72,130.89c1.91,0,3.46-1.55,3.46-3.46s-1.55-3.46-3.46-3.46-3.46,1.55-3.46,3.46,1.55,3.46,3.46,3.46Z"/>
          <path class="cls-27" d="M143.48,56.24c2.55,0,4.63,2.08,4.63,4.63s-2.08,4.63-4.63,4.63-4.63-2.08-4.63-4.63,2.08-4.63,4.63-4.63ZM143.48,64.33c1.91,0,3.46-1.55,3.46-3.46s-1.55-3.46-3.46-3.46-3.46,1.55-3.46,3.46,1.55,3.46,3.46,3.46Z"/>
          <path class="cls-27" d="M268.11,169.95c1.91,0,3.46,1.55,3.46,3.46s-1.55,3.46-3.46,3.46-3.46-1.55-3.46-3.46,1.55-3.46,3.46-3.46ZM268.11,175.99c1.42,0,2.58-1.16,2.58-2.58s-1.16-2.58-2.58-2.58-2.58,1.16-2.58,2.58,1.16,2.58,2.58,2.58Z"/>
          <path class="cls-27" d="M553.85,106.42c2.98,0,5.4,2.42,5.4,5.4s-2.42,5.4-5.4,5.4-5.4-2.42-5.4-5.4,2.42-5.4,5.4-5.4ZM553.85,115.85c2.22,0,4.03-1.81,4.03-4.03s-1.81-4.03-4.03-4.03-4.03,1.81-4.03,4.03,1.81,4.03,4.03,4.03Z"/>
          <path class="cls-27" d="M364.09,94.23c2.01,0,3.64,1.63,3.64,3.64s-1.63,3.64-3.64,3.64-3.64-1.63-3.64-3.64,1.63-3.64,3.64-3.64ZM364.09,100.59c1.5,0,2.72-1.22,2.72-2.72s-1.22-2.72-2.72-2.72-2.72,1.22-2.72,2.72,1.22,2.72,2.72,2.72Z"/>
        </g>
        <g>
          <path class="cls-24" d="M80.11,262.4c.35,1.22.56,1.62,1.01,2.44,2.9,5.27,9.62,12.8,9.62,12.8l5.2-11.72s-.85-3.68-2.32-8.94c-5.02,1.31-9.81,2.07-13.51,5.42Z"/>
          <g>
            <path class="cls-33" d="M112.43,269.18l39.85-6.5s-4.53-11.42-6.15-11.42-30.14,12.45-30.14,12.45l-2.27,4.55-1.3.91Z"/>
            <g>
              <path class="cls-33" d="M131.06,250.7s15.08,14.23,21.88,11.8c6.8-2.43,9.62-10.73-6.98-22.88-14.86-10.87-14.9,11.08-14.9,11.08Z"/>
              <g>
                <path class="cls-28" d="M121.46,200.91s-1.2.08-1.49.66-6.25,2.59-6.97,7.85c-.72,5.26,4.07,4.7,4.07,4.7l4.4-13.21Z"/>
                <path class="cls-10" d="M138.3,208.1l-13.53-3.8-3.13,9.69s13.42,10.29,13.42,9.95,3.24-15.84,3.24-15.84Z"/>
                <g>
                  <path class="cls-12" d="M164.91,192l-36.48-1.66c-1.87-.09-3.85,1.22-4.41,2.92l-14.95,44.87c-.57,1.7.49,3.14,2.37,3.23l36.48,1.66c1.87.09,3.85-1.22,4.41-2.92l14.95-44.87c.57-1.7-.49-3.14-2.37-3.23Z"/>
                  <polygon class="cls-37" points="165.57 193.47 126.81 191.71 110.86 239.6 149.62 241.36 165.57 193.47"/>
                  <path class="cls-13" d="M138.49,190.11c.07-.22.32-.38.56-.37l16.27.74c.24.01.37.19.3.41l-.51,1.53-17.14-.78.51-1.53Z"/>
                  <path class="cls-13" d="M147.81,188.24c1.42.06,2.22,1.16,1.79,2.44-.43,1.28-1.92,2.27-3.34,2.21-1.42-.06-2.22-1.16-1.79-2.44.43-1.28,1.92-2.27,3.34-2.21ZM146.54,192.06c.91.04,1.87-.59,2.14-1.42.27-.82-.24-1.53-1.15-1.57-.91-.04-1.87.59-2.14,1.42-.27.82.24,1.53,1.15,1.57Z"/>
                  <g>
                    <path class="cls-15" d="M138.87,189.76c-.17.05-.33.19-.38.35l-.51,1.53,17.14.78c-.35,1.06-1.59,1.88-2.76,1.83l-12.89-.59c-1.17-.05-1.84-.96-1.48-2.02l.51-1.53c.05-.16.21-.3.38-.35Z"/>
                    <path class="cls-15" d="M155.32,190.48h0c.15,0,.26.08.3.19-.04-.11-.15-.18-.3-.19Z"/>
                    <path class="cls-15" d="M155.64,190.77s0-.05,0-.07c0,.02,0,.05,0,.07Z"/>
                  </g>
                  <polygon class="cls-15" points="159.37 203.29 135.79 202.21 136.03 201.5 159.61 202.57 159.37 203.29"/>
                  <polygon class="cls-15" points="158.02 207.36 134.43 206.28 134.67 205.57 158.25 206.64 158.02 207.36"/>
                  <polygon class="cls-15" points="156.51 211.88 132.93 210.81 133.17 210.09 156.75 211.16 156.51 211.88"/>
                  <polygon class="cls-15" points="155.15 215.95 131.57 214.88 131.81 214.16 155.39 215.23 155.15 215.95"/>
                  <polygon class="cls-15" points="153.8 220.02 130.22 218.95 130.46 218.23 154.04 219.3 153.8 220.02"/>
                  <polygon class="cls-15" points="152.44 224.09 128.86 223.02 129.1 222.3 152.68 223.37 152.44 224.09"/>
                  <polygon class="cls-15" points="151.09 228.16 127.51 227.09 127.75 226.37 151.33 227.44 151.09 228.16"/>
                  <polygon class="cls-15" points="149.73 232.23 126.15 231.16 126.39 230.44 149.97 231.51 149.73 232.23"/>
                  <polygon class="cls-15" points="147.98 237.49 120.77 236.25 121.01 235.54 148.22 236.77 147.98 237.49"/>
                </g>
                <path class="cls-33" d="M109.93,252.23s-26.12,15.68-27.06,15.44c-.6-.15-14.79-22.24-14.91-40.02-.06-8.21,8.47-18.09,17.99-16.14,4.79.98,4.72,2.32,11.8,12.61,7.09,10.3,12.18,28.11,12.18,28.11Z"/>
                <path class="cls-28" d="M134.69,476.22s-.69,11.39-.69,11.42c-.25,1.45-1.25,5.02-1.25,6.34,0,4.94,23.46-4.19,18.2-6.38-.48-.2-2.97-1.7-3.13-3.38-.24-2.59-.85-7.83-.85-7.83l-12.28-.16Z"/>
                <path class="cls-12" d="M150.61,487.55s-5.51,1.51-8.33,1.89c-2.82.38-6.54-2.8-8.53-1.94-2.2.95-2.11,9.46-2.11,9.46,0,0,29.54,2.42,37.84-.08,3.29-.99-7.61-5.8-18.87-9.32Z"/>
                <path class="cls-28" d="M86.7,476.22s-.69,11.39-.69,11.42c-.25,1.45-1.25,5.02-1.25,6.34,0,4.94,23.46-4.19,18.2-6.38-.48-.2-3.71-2.82-3.86-4.5-.24-2.59-.11-6.71-.11-6.71l-12.28-.16Z"/>
                <path class="cls-12" d="M102.91,487.55s-5.51,1.51-8.33,1.89c-2.82.38-6.54-2.8-8.54-1.94-2.2.95-2.28,9.46-2.28,9.46,0,0,29.67,2.83,38.01-.08,8-2.79-2.3-4.14-18.87-9.32Z"/>
                <g>
                  <path class="cls-28" d="M88.88,192.92l-2.66,16.82s10.13,8.14,16.04,6.42c4.96-1.44,1.56-7.92,1.56-7.92,0,0-2.64-8.98-1.83-13.69.81-4.71-13.11-1.63-13.11-1.63Z"/>
                  <path class="cls-18" d="M90.79,198.01c2.54,1.2,7.56,2.84,11.47,3.23-.37-2.35-.59-4.84-.27-6.68.37-2.17-2.39-2.69-5.47-2.61-4.04.35-7.64.98-7.64.98l-.51,3.23c.77.81,1.57,1.45,2.42,1.85Z"/>
                  <path class="cls-28" d="M85.84,169.27c-.4-.14-2.5,19.05,2.87,24.38,5.37,5.33,15.56,7.16,19.06,3.03,3.87-4.57,2.98-25.22-5.28-30.73-8.26-5.51-16.65,3.32-16.65,3.32Z"/>
                  <path class="cls-41" d="M99.07,155.65c-6.21,1.15-10.14,4.72-11.57,6.24-2.83.29-6.63,1.74-10.41,7.93-4.64,7.62-.75,16.13,5.09,20.35,5.84,4.22,5.54,9.95,5.54,9.95l2.16-5.44s-.02-4.55-1.48-7.34c-1.46-2.79,2.79-4.6,3.93-6.9.87-1.77.78-5.85,2.15-8.78,0,0,5.56-4.2,9.61-4.29,6.9-.16,2.95-13.18-5.01-11.71Z"/>
                  <path class="cls-41" d="M99.5,168.64s-3.65,3.87-3.07,9.1,3.49,14.82,1.16,17.44-9.91,5.31-9.91,5.31l-3.17-18.97s2.62-8.43,3.2-9.01,11.78-3.87,11.78-3.87Z"/>
                  <path class="cls-28" d="M100.02,181.52c.12,2.34-.95,4.25-2.38,4.26-1.43.01-2.69-1.88-2.81-4.23-.12-2.34.95-4.25,2.38-4.26,1.43-.01,2.69,1.88,2.81,4.23Z"/>
                </g>
                <path class="cls-11" d="M92.02,296.5s-3.98,19.22-2.36,33.79c1.62,14.57,1.75,66.34,1.75,66.34l-6.18,82.83,14.67.32s17.4-82.79,17.07-80.67c-.32,2.13,5.83-58.29,5.83-58.29l-20.74-46.15-10.04,1.82Z"/>
                <path class="cls-11" d="M95.9,295.59s-2.59,17.31.65,24.9c3.24,7.59,27.79,82.07,28.12,88.14.32,6.07,8.49,73.19,8.49,73.19l17.06-.48,3.69-74.62-7.73-93.79-7.5-23.71-42.77,6.38Z"/>
                <path class="cls-28" d="M86.22,209.74s4.21,2.76,8.13,2.44c3.92-.32,9.47-3.94,9.47-3.94l-.77-2.61s-10.15-1.48-10.41-1.32c-.26.16-6.42,5.43-6.42,5.43Z"/>
                <path class="cls-28" d="M118.81,206.22s4.94-1.45,6.1-2.03,2.03,1.16.87,2.32c-.29.29-2.47,2.5-4.14,3.58-1.67,1.07-3.54.9-3.54.9l.7-4.76Z"/>
                <path class="cls-17" d="M141.27,268.27c-2.24-12.18-18.47-50.1-19.77-57.08-.63-3.4-9.38-3.47-17.72-3.03-8.81.47-17.56,1.58-17.56,1.58,0,0-7.8,1.28-11.23,4.5-3.43,3.21-4.34,12.1.59,28.98,3.89,13.32,8.72,20.64,11.11,30.34.48,3.25.9,6.47,1.45,10.22.88,14.51-1.92,127.65-1.92,127.65,0,0,53.65,11.07,69.53-2.29,0,0-12.19-128.39-14.49-140.87Z"/>
                <path class="cls-33" d="M157.1,251.26s-17.31,8.1-18.28,8.1c-.63,0-28.12-20.57-33.47-34.56-2.95-7.73,3.24-16.38,10.32-16.35,4.9.02,7.08,1.28,16.81,9.48,9.72,8.2,24.63,33.33,24.63,33.33Z"/>
              </g>
            </g>
          </g>
        </g>
        <g>
          <g>
            <path class="cls-39" d="M50.85,281.09s2.17,17.89,4.88,26.02c2.71,8.13,5.28,15.9,3.27,35.41-2.01,19.51-3.26,21.14-3.72,26.2-.46,5.06.26,26.38-.82,29.9-1.08,3.52,6.32,27.91,6.87,38.39.54,10.48,2.53,25.84,0,32.52l-1.45-.9s3.79-16.26-1.99-35.77c-5.78-19.51-3.25-22.04-13.01-34.23-9.76-12.2-10.48-37.49-10.48-37.49,0,0-4.7-28.73,0-41.37,4.7-12.65,5.06-25.29,16.44-38.66Z"/>
            <path class="cls-39" d="M75.31,262.48s-2.86,10.38-1.51,17.52c1.36,7.14,3.02,11.75,1.51,18.53-1.51,6.78-4.87,24.41,1.69,35.65,6.56,11.24-.22,36.44,4.39,46.2,4.61,9.76,3.79,15.45-1.63,27.91-5.42,12.47-15.54,28.91-12.83,55.47l4.16-5.06s-1.14-21.5,4.22-32.16c5.36-10.66,16.92-25.66,17.28-34.51.36-8.85,9.21-7.77,8.13-21.68-1.08-13.91,2.35-17.52-1.08-30.35,0,0-.54-.72.54-10.3s-8.13-30.71-13.01-38.48c-4.88-7.77-11.62-19.87-11.86-28.73Z"/>
            <path class="cls-31" d="M86.28,321.91s3.61,16.26.9,25.11c-2.71,8.85-5.96,15.72-5.78,29.09.18,13.37-10.3,18.43-10.12,25.84.18,7.41-2.17,15.36-4.16,21.32-1.99,5.96.9,28.73-.9,39.21-1.81,10.48-3.61,9.94-3.61,9.94,0,0,2.71-13.73,1.99-18.79-.72-5.06-2.35-22.22-1.99-28.55.36-6.32-2.53-11.38-2.89-22.4-.36-11.02-2.71-20.96,2.17-34.87,4.88-13.91,3.97-30.53,24.39-45.89Z"/>
            <path class="cls-31" d="M60.24,461.52s1.84-18.58-13.34-25.35c-15.18-6.78-25.41-6.62-32.46-22.89-7.05-16.26-7.05-38.48-9.49-43.09,0,0,6.5-1.08,13.01,10.57,6.5,11.65,10.92,20.33,14.67,27.1,3.76,6.78,9.18,4.88,13.78,10.03,3.86,4.32,7.43,14.35,8.78,19.45.44,1.66,1.08,3.25,1.92,4.74.77,1.36,1.67,3,2.21,4.18,1.08,2.35,2.1,15.72,2.1,15.72l-1.2-.45Z"/>
            <path class="cls-31" d="M66.77,460.22s1.26-23.04,8.31-32.25c7.05-9.21,21.14-13.19,22.76-19.87,1.63-6.69-.18-26.74,10.12-37.94,0,0-1.45,12.47,0,15.81,1.45,3.34,13.73,18.88,6.5,31.89-7.23,13.01-23.49,11.38-28.55,14.27-5.06,2.89-10.12,1.26-11.02,3.97-.9,2.71-5.06,12.29-6.5,22.58l-1.63,1.54Z"/>
            <path class="cls-36" d="M65.26,444.05l-.6-24.93s1.2-19.51,3.37-35.41c2.17-15.9,18.25-61.8,18.25-61.8,0,0,3.61,16.26.9,25.11-2.71,8.85-5.96,15.72-5.78,29.09.18,13.37-10.3,18.43-10.12,25.84.18,7.41-2.17,15.36-4.16,21.32-1.99,5.96.9,28.73-.9,39.21-.99,5.74-1.98,8.17-2.67,9.2,4.06-8.37,1.71-27.61,1.71-27.61Z"/>
            <path class="cls-36" d="M31.17,418.4c6.5,3.61,12.87,5.13,19.15,13.91,6.28,8.78,9.03,16.89,9.03,16.89,0,0,1.59,7.81,2,11.8.05.6.08.96.08.96l-1.2-.45s1.84-18.58-13.34-25.35c-15.18-6.78-25.41-6.62-32.46-22.89-7.05-16.26-7.05-38.48-9.49-43.09,0,0,8.88,12.98,13.57,23.46,4.7,10.48,6.14,21.14,12.65,24.75Z"/>
            <path class="cls-36" d="M107.96,385.97c1.45,3.34,13.73,18.88,6.5,31.89-7.23,13.01-23.49,11.38-28.55,14.27-5.06,2.89-10.12,1.26-11.02,3.97-.9,2.71-5.06,12.29-6.5,22.58l-.71.67c.4-4.07,1.12-10.24,2.16-14.76,1.69-7.35,3.79-9.94,7.95-15,4.16-5.06,22.22-12.29,27.79-17.34,5.57-5.06-1.59-18.79-2.32-24.54-.72-5.75,4.7-17.55,4.7-17.55,0,0-1.45,12.47,0,15.81Z"/>
          </g>
          <g>
            <path class="cls-22" d="M61.86,442.76h21.03c1.44,0,2.5,1.97,2.17,4.02l-7.67,47.29c-.24,1.47-1.13,2.51-2.17,2.51h-25.26c-1.03,0-1.93-1.04-2.17-2.51l-7.67-47.29c-.33-2.05.73-4.02,2.17-4.02h19.56Z"/>
            <polygon class="cls-3" points="79.99 478.02 45.19 478.02 42.44 461.04 82.74 461.04 79.99 478.02"/>
          </g>
        </g>
        <rect class="cls-41" x="44.58" y="496.86" width="594.4" height="3.35" transform="translate(683.56 997.07) rotate(180)"/>
        <path class="cls-42" d="M573.17,178.22s-.87,13.66,14.24,16.56c12.11,2.33,8.14-6.68,8.14-6.68l-17.15-16.27-5.23,6.39Z"/>
        <path class="cls-42" d="M588.86,191.01s-6.68,7.56,0,13.08c6.68,5.52,10.17-5.52,9.88-5.81s.29-7.27-1.74-8.14-8.14.87-8.14.87Z"/>
      </g>
    </g>
  </g>
</svg>