<?xml version="1.0" encoding="UTF-8"?>
<svg id="Layer_3" data-name="Layer 3" xmlns="http://www.w3.org/2000/svg" viewBox="0 0 100 100">
  <defs>
    <style>
      .cls-1 {
        fill: #fe7373;
      }

      .cls-2 {
        fill: #f8daae;
      }

      .cls-3 {
        fill: #e8f0f1;
      }

      .cls-4 {
        fill: #cfd7d9;
      }

      .cls-5 {
        fill: #00b3d7;
      }

      .cls-6 {
        fill: #48c9e3;
      }

      .cls-7 {
        fill: #ee5451;
      }

      .cls-8 {
        fill: #ee5350;
      }

      .cls-9 {
        fill: #e7f0f1;
      }

      .cls-10 {
        fill: #ace7f3;
      }

      .cls-11 {
        fill: #cae0e0;
      }

      .cls-12 {
        fill: #d99267;
      }

      .cls-13 {
        fill: #ecb78d;
      }

      .cls-14 {
        fill: #cfd8da;
      }

      .cls-15 {
        fill: #0095c6;
      }

      .cls-16 {
        fill: #b7bdbe;
      }

      .cls-17 {
        fill: #e43935;
      }
    </style>
  </defs>
  <path class="cls-3" d="M73.95,39.33c.84-.52,1.64-.51,2.49,0,3.03-.58,6.1-.59,9.13,0,2.86.01,6.95-.35,9.63.02,1.66.23,2.69,1.57,2.83,3.19.54,6.08-.02,13.76,0,20.03l-.19.41h-6.15c.23,2.63.21,5.29-.3,7.88l-.7.41c-4.81.19-9.55-.42-13.7-3.04l-.33-.7.44-.43c8.62.39,11.52-6.88,10.57-14.41l.4-.51c-.01-.58.4-1.06,1.24-1.45l-.27-.42c.97-2.42-1.25-4.64-3.67-3.67l-.42-.27c-1.49,1.68-2.35,3.67-.25,5.29l.04.52.4.39c.23,5.52.42,10.91-6.33,11.97-1.58.25-4.32.27-5.92.08l-.39-.41c-1.1-.31-2.76-2.32-3.1-3.37l.2-.57.24-.55c2.77-1.28,4.5-4.06,4.54-7.1l.41-.44c-.01-.58.4-1.06,1.24-1.45l-.27-.42c.97-2.42-1.25-4.64-3.67-3.67l-.42-.27c-1.49,1.68-2.35,3.67-.25,5.29l.04.52c.85.68.14,2.41-.4,3.25s-1.97,2.3-2.92,1.73c-.14-.05-.27-.1-.39-.18-1.36-.88-1.69-7.15-1.74-8.9-.07-2.54-.05-5.58.09-8.11l.38-.65c2.28-.72,5.17-.65,7.47,0Z"/>
  <path class="cls-4" d="M76.64,67.55c1.97,1.27,4.33,2.3,6.63,2.81,2.76.61,5.3.49,8.1.51.37,1.49.52,3.01.44,4.57h5.9s.3.41.3.41c0,5.53.03,11.07,0,16.6-.02.16-.07.4-.19.41-1.25.14-4.95.17-6.15,0l-.3-.41c-.73-1.21-.57-3.68,0-4.98l-.45-.31c-.36-3.01-2.73-4.58-5.69-4.36l-6.37.1-.56-.41c-.1.64-1.71.61-1.87,0l-.47-.46c-.54-4.91-5.1-6.59-9.41-7.06l-4.7-.53-.36-.46c-.15-.03-.41-.08-.41-.19-.05-.67-.11-5.67,0-5.95.06-.16.25-.23.41-.3.31-.11.62-.21.94-.28s.63-.13.95-.13c3.78-.03,7.58-.01,11.36.04.65,0,1.28.19,1.89.37Z"/>
  <path class="cls-4" d="M5.06,92.45l.43.23c.13,1.39,1.26,2.59,2.67,2.68h89.59s.26.41.26.41c0,1.1,0,2.22,0,3.32H1.74v-6.64c1.1,0,2.22,0,3.32,0Z"/>
  <path class="cls-15" d="M74.78,52.2c.14,3.53-1.91,6.8-5.19,8.09l-.33.56c-2.28.62-4.92.66-7.28.48l-.48-.41-.67.42c-4.28-.16-8.55-.22-12.83-.18-2.75.1-4.32.47-5.88,2.67,6.47-.17,12.93-.03,19.38.41,3.6-.64,7.39-.61,11,0,3.37-.03,7.66.68,10.28-1.86,2.75-2.67,1.81-6.76,1.96-10.18.5-.14,1.1-.12,1.79.04.61-.22,1.12-.23,1.53-.04.1,5.11.53,9.96-3.96,13.36-2.43,1.84-4.56,1.9-7.45,1.99-5.02.15-10.12,0-15.15,0l-.14.41h-17.1l-.39-.41-.38.2c-1.52-1.58-3.22-1.27-5-.34l-.43-.27c-.45-4.89,2.8-9.16,7.77-9.55,4.9-.39,10.65.06,15.67,0l.44-.42c1.92.17,3.81.08,5.68-.27l.52.27c2.19-.8,3.44-2.56,3.32-4.98.5-.14,1.1-.12,1.79.04.61-.22,1.12-.23,1.53-.04Z"/>
  <path class="cls-3" d="M34.94,92.45c2.3-.19,4.61-.37,6.92-.38,9.22-.04,18.45-.06,27.66-.02,1.15,0,2.3.07,3.46.13s2.31.17,3.46.27c.02-.16.08-.41.19-.41,4.22-.13,9.24-.24,13.43,0,.71-.14,1.15,0,1.31.41h6.64c0,1.1,0,2.22,0,3.32H8.27c-1.78-.01-3.2-1.58-3.21-3.32,5.98-.05,11.97.07,17.95,0,.35,0,.92.13,1.14-.21l.84-.32c3.2.13,6.38.21,9.55.25l.4.28Z"/>
  <path class="cls-5" d="M16.27,71.49l.6.19c1.93,4.74,5.67,8.38,10.62,9.86l.39.53,1.04.21c.72-.33,1.54-.4,2.47-.21,1.34-.16,2.52-.02,3.54.42l.41.19v9.52l-.41.25c-3.49-.02-7.39.26-10.79-.21-4.55-.63-7.9-2.89-10.78-6.33-3.49-4.18-6.5-9.05-9.94-13.3l-.02-.28,3.52-2.5.89.79c3.08,4.07,6.18,8.14,9.38,12.1,1.57,1.94,6.53,3.99,9.04,4.32l.3.42.24-.41h4.54l.3.41-.41-.26c-.09-2.29-1.91-2.85-3.93-2.65-6.74-.94-11.56-4.24-14.36-10.49-.49-1.08-1.7-4.53-1.58-5.56.03-.22.2-.4.36-.54,1.86.18,3.59,2.02,4.56,3.53Z"/>
  <path class="cls-6" d="M71.46,12.78c.53-.6,1.33-.59,1.87,0l.92.36c1.31,1.37,2.63,2.74,3.94,4.12l-.09.51c0,.2-.1.34-.29.41l-3.7-.06c-3.23-.29-2.9,2.98.15,2.65l6.4-.09.76.4c.04-.19.11-.18.21,0,1.24.52,2.78,2.13,3.62,3.23l-.09.5.24.4c-.77,1.43.42,2.61,1.85,1.85l.4.24c.13-.1.33-.23.43-.16.83.66,3.42,3.2,4.01,4.01l-.08.51c-1.61,1.61-4.25,1.01-6.43,1.04-3.83.67-7.79.67-11.62,0l-.25.41c-1.49.15-4.76.22-5.98-.59-2.05-1.37-2.13-5.47-1.24-7.5-.68-2.86-.63-6.05,0-8.92-.63-.17-.43-1.05.21-1.04-.1-1.69.96-2.3,2.44-2.58.62-.12,2.12-.33,2.33.3Z"/>
  <path class="cls-12" d="M24.77,62.15c.66.31,1.11,1.25,1.45,1.87-.32.43-1.86.75-2.28.41l-.08.52c-1.88,1.09-1.45,3.04-.48,4.64,2.3,3.78,6.51,5.99,10.97,5.5l.59.34c.16.04.41.12.41.24.06.83.14,6.09,0,6.51l-.41.3c-2.03,0-4.03.09-6.02-.21l-1.04-.21c-3.52-.83-7.2-3.42-9.3-6.36-.99-1.39-1.46-2.9-2.32-4.22-1.33-3.64-2.32-7.65,1.66-9.96l.55-.15c1.67.86,3.72,1.16,5.45.35.47-.15.78-.13.85.42Z"/>
  <path class="cls-10" d="M74.78,12.78c4.57-.04,10.88-.47,15.25,0,1.62.17,2.83,1.38,3.01,3.01.36,3.18.3,10.46,0,13.7-.1,1.18-.27,1.4-1.05,2.17l-4.36-4.36c-.18-.06-.18-.13,0-.21l-.19-.45c.77-1.71-.84-1.87-2.09-1.83-.05.19-.12.18-.21,0l-3.53-3.73c0-.2.1-.34.29-.41l3.5.06c3.21.3,2.91-2.96-.12-2.64l-6.24.08-.74-.39c-.04.19-.11.18-.21,0l-4.77-4.98c.51-.52.94-.52,1.45,0Z"/>
  <path class="cls-4" d="M58.18,9.46c-.51-4.28,1.88-7.96,6.32-8.31,4.2-.33,11.15-.29,15.37,0,2.29.16,4.24,1.08,5.45,3.06.94,1.53,2.17,5.63-.87,5.25-1.77-.23-1.11-2.3-1.9-3.51-.3-.47-1.55-1.46-2.06-1.46h-5.71v8.3c-.48,0-.97,0-1.45,0-.62,0-1.25-.02-1.87,0-.16,0-.41-.04-.41-.14-.15-1.9-.24-6.09,0-7.92l.41-.24c0,.16-.03.38-.14.41-.72.2-5.91.08-6.98,0l-.25-.41-.06.46c-1.95.62-2.29,2.39-2.14,4.22l-.4.3c-1.09.55-2.23.55-3.32,0Z"/>
  <path class="cls-17" d="M61.5,26.05l.39.35c.19,2,.29,6.47-.4,8.25-1.04,2.7-3,3.16-5.52,3.59-.21.08-.39.18-.52.37-.28.41-.26,3.86-.25,4.57.05,5.15.44,6.01,6.03,5.7l.28.41c.51,1.12.51,2.2,0,3.32-4.27.54-9.33-.76-9.94-5.73-.21-1.71-.24-6.97.07-8.6.35-1.83,2.07-3.4,3.84-3.84.9-.22,2.07.15,2.55-.98.64-1.51-.16-5.61.16-7.42,1.09-.55,2.23-.55,3.32,0Z"/>
  <path class="cls-6" d="M11.7,67.96c.2,2.24,1.12,5.06,2.13,7.1,2.7,5.44,7.5,8.14,13.35,9.06.65.1,1.32-.04,2,.08,1.57.26,2.55,1.71,2.44,3.27h-5.08c-2.88,0-7.79-2.66-9.86-4.66-3.4-4.19-6.68-8.52-9.75-12.97,1.24-1.5,2.84-2.06,4.77-1.87Z"/>
  <path class="cls-4" d="M66.48,39.33c.34,5.89-1.04,12.39,1.66,17.84-1.99.73-4.47.39-6.64.41v-4.98c0-1.1,0-2.22,0-3.32l-.42-.22c-.3-2.55-.63-8.28,1.83-9.68.74-.42,3.12-.83,3.56-.06Z"/>
  <path class="cls-8" d="M56.52,16.1l.46.46c.4,4.22,3.76,5.89,7.59,5.95-.22-1.88-.23-3.87-.2-5.78,0-.1.07-.21.15-.32s.19-.21.3-.31c.08-.64,1.52-.61,1.66,0,.02,2.97-.04,5.95,0,8.92-.01,1.81-3.5,1.71-4.75,1.45l-.23-.41c-1.1.02-2.22.02-3.32,0-1.96-.03-4.76.75-4.99-1.75-.22-2.44-.02-5.68,0-8.21.35-.68,2.92-.65,3.32,0Z"/>
  <path class="cls-2" d="M26.23,50.95c2.24,2.02,2.55,5.53,1.24,8.09-4.51,2.22-9.91-1.82-9.54-6.83.06-.86.15-1.93,1.03-2.3,2.42-.97,5.26-.76,7.26,1.04Z"/>
  <path class="cls-2" d="M26.23,64.02c2.49.35,2.45,4.03,5.59,4.68,2.73.56,3.96-.66,6.24-1.57,1.65-.66,2.83-1.43,4.58-.53.23.12,1.13.79,1.23.95.76.08,1.08,1.27.41,1.66l-.37.55c-5.65,3.06-12.27,4.48-17.4-.4-1.19-1.13-2.99-3.32-2.57-4.92.84-.43,1.24-.56,2.28-.41Z"/>
  <path class="cls-3" d="M58.18,9.46c1.1-.02,2.22-.02,3.32,0l.36-.41c.92-.17,3.58-.17,4.29.44.87.75,1.15,2.95.33,3.71-.21.56-.53,1.1-.95,1.61-.09.66-.33,1.09-.71,1.29,0,.16-.04.41-.14.41-1.28.08-7.05.24-7.92,0l-.24-.41c-.46-.39-.51-.89-.46-1.46-.13-1.54-.07-3.81.46-5.18.55-.02,1.11,0,1.66,0Z"/>
  <path class="cls-13" d="M18.97,49.91c-2.06,4.3,1.21,9.29,5.91,9.35.96.01,1.77-.51,2.6-.22-.25.49-.56,1.05-.93,1.46-.56.61-1.53.89-1.77,1.66-.61-.29-1.31.31-1.99.4-1.61.22-3.48-.13-4.86-1.02-3.92-2.54-3.84-9.03.21-11.41.17-.1.59-.11.83-.21Z"/>
  <path class="cls-10" d="M98.01,62.57c0,2.76,0,5.54,0,8.3-2.15.61-4.5.64-6.64,0-.01-2.76,0-5.54,0-8.3h6.64Z"/>
  <path class="cls-4" d="M85.56,34.35v4.98c-3.04-.02-6.09-.01-9.13,0-.67-.52-.16-1.71.15-2.41,1.43-3.18,5.67-3.23,8.65-3.01l.33.44Z"/>
  <path class="cls-16" d="M85.56,32.69v1.66c-4.1-.31-8.8-.18-9.13,4.98-.83,0-1.66,0-2.49,0-.16-.02-.41-.07-.41-.19-.07-.86-.16-5.6,0-6.15l.41-.3c3.86.05,7.76.05,11.62,0Z"/>
  <path class="cls-6" d="M98.01,70.87c0,1.66,0,3.32,0,4.98h-6.64c0-1.66,0-3.32,0-4.98,2.21.02,4.43-.01,6.64,0Z"/>
  <path class="cls-4" d="M56.52,9.46c.1,2.18-.14,4.48,0,6.64h-3.32c.01-1.28-.23-4.84.16-5.76.51-1.2,2.11-.85,3.16-.88Z"/>
  <path class="cls-4" d="M72.49,64.23c-3.66.04-7.33,0-11,0-.68-.34-.65-2.92,0-3.32,2.65-.03,5.61.36,8.09-.62.62,1.54,1.86,2.71,2.9,3.94Z"/>
  <path class="cls-6" d="M76.02,50.74c-2.32,2.23-6.54-2.04-4.36-4.36,2.97-1.42,5.78,1.39,4.36,4.36Z"/>
  <path class="cls-6" d="M89.3,50.74c-2.32,2.23-6.54-2.04-4.36-4.36,2.97-1.42,5.78,1.39,4.36,4.36Z"/>
  <path class="cls-5" d="M71.66,46.39c-.97,2.77,1.57,5.36,4.36,4.36-.31.64-.58,1.07-1.24,1.45-1.07.6-2.26.63-3.32,0-2.37-1.4-2.27-4.63.21-5.81Z"/>
  <path class="cls-5" d="M84.94,46.39c-.97,2.77,1.57,5.36,4.36,4.36-.31.64-.58,1.07-1.24,1.45-1.07.6-2.26.63-3.32,0-2.37-1.4-2.27-4.63.21-5.81Z"/>
  <path class="cls-10" d="M61.5,73.98c6.08.78,14.16.54,14.94,8.51l.45.44c.04,1.36.03,2.71-.03,4.07l-.42.47c-1.4.38-2.89.5-4.46.35-10.03.59-19.47,1.02-25.78-7.91-1.54-2.18-2.61-4.67-3.06-7.31l.31-.7c4.67,0,9.59.51,14.23,1.2,1.32.08,2.59.38,3.82.88Z"/>
  <path class="cls-5" d="M78.3,82.49l.53.32c.89,2.96,3.59,4.18,6.48,4.27l5.68-.02.38.42c.12,1.61-.09,3.35,0,4.98h-14.94c-.16-.04-.4-.11-.41-.24-.1-1.14-.1-3.3,0-4.43l.41-.3c0-1.56.15-3.48,0-4.98h1.87Z"/>
  <path class="cls-6" d="M91.37,87.47c-5.06-.07-11.3,1.24-13.07-4.98,2.63,0,6.1-.27,8.61,0,2.65.29,4.28,2.44,4.46,4.98Z"/>
  <path class="cls-7" d="M77.62,70.91c2.43-.53,2.85,2.82.94,3.24-2.43.53-2.85-2.82-.94-3.24Z"/>
  <path class="cls-7" d="M84.26,70.91c2.43-.53,2.85,2.82.94,3.24-2.43.53-2.85-2.82-.94-3.24Z"/>
  <path class="cls-6" d="M76.44,87.47v4.98c-13.83,0-27.67.09-41.5,0v-17.01l.25-.48c2.66-.78,5.36-1.76,7.76-3.18l.5.13c1.12,8.33,8.34,14.94,16.7,15.56,5.26.39,10.97-.28,16.28,0Z"/>
  <path class="cls-11" d="M28.92,82.28l-1.04-.21c.23.05.82.18,1.04.21Z"/>
  <path class="cls-4" d="M72.64,24.44c.82-.18,6.77-.18,7.59,0,1.63.37,1.62,2.98-.18,3.26-1.04.16-6.47.18-7.41-.03-1.59-.35-1.59-2.88,0-3.23Z"/>
  <path class="cls-4" d="M78.1,17.76c.07,0,.14,0,.21,0,.57-.13,3.15,2.56,3.21,2.82.04.18-.02.35-.1.5-2.49.03-6.05.28-8.41,0-1.85-.22-2.08-2.57-.67-3.17.91-.39,4.49-.15,5.76-.16Z"/>
  <path class="cls-3" d="M81.62,21.07c-.07,0-.14,0-.21,0l-3.11-3.32c2.43-.02,5.89-.27,8.2,0,1.85.22,2.08,2.57.67,3.17-.9.38-4.3.14-5.55.16Z"/>
  <path class="cls-14" d="M87.64,27.09c-.02.06.02.14,0,.21-1.94,1.26-3.75-.56-2.49-2.49.06-.02.15.02.21,0,.72-.24,2.48,1.57,2.28,2.28Z"/>
  <path class="cls-14" d="M66.68,15.06c0,.16-.21.6-.21,1.04h-1.66c.11-1.35.51-2.16,1.66-2.9.02.63.2,1.5.21,1.87Z"/>
  <path class="cls-13" d="M23.94,64.44c1.8,5.9,8.04,8.79,13.9,7.37,2.18-.53,4.26-1.99,6.43-2.59.06.98-.11,1.98-.83,2.7-1.01,1-6.96,3.27-8.51,3.53-3.98.66-8.07-.91-10.69-3.94-1.81-2.09-3.55-5.4-.31-7.06Z"/>
  <path class="cls-9" d="M87.64,27.09l-2.28-2.28c.07-.03.19-.27.39-.32,1.27-.32,2.36.3,2.32,1.67-.02.63-.34.69-.43.94Z"/>
  <path class="cls-1" d="M64.82,16.1c-.17,2.14.13,4.48,0,6.64-4.57.39-7.99-1.9-8.3-6.64h8.3Z"/>
</svg>