<?xml version="1.0" encoding="UTF-8"?>
<svg id="Layer_3" data-name="Layer 3" xmlns="http://www.w3.org/2000/svg" viewBox="0 0 100 100">
  <defs>
    <style>
      .cls-1 {
        fill: #f4ad65;
      }

      .cls-2 {
        fill: #734b3d;
      }

      .cls-3 {
        fill: #ec9e02;
      }

      .cls-4 {
        fill: #5f95e5;
      }

      .cls-5 {
        fill: #feab03;
      }

      .cls-6 {
        fill: #4d6c8f;
      }

      .cls-7 {
        fill: #3c5c82;
      }

      .cls-8 {
        fill: #5f96e5;
      }

      .cls-9 {
        fill: #53beb5;
      }

      .cls-10 {
        fill: #956857;
      }

      .cls-11 {
        fill: #feaa03;
      }

      .cls-12 {
        fill: #d4e2f1;
      }

      .cls-13 {
        fill: #ec9e01;
      }

      .cls-14 {
        fill: #5ccdc3;
      }

      .cls-15 {
        fill: #69a6fe;
      }

      .cls-16 {
        fill: #f4ac65;
      }

      .cls-17 {
        fill: #815646;
      }

      .cls-18 {
        fill: #825646;
      }

      .cls-19 {
        fill: #fefdfb;
      }

      .cls-20 {
        fill: #fabc80;
      }

      .cls-21 {
        fill: #52beb5;
      }

      .cls-22 {
        fill: #fa4455;
      }

      .cls-23 {
        fill: #b6cee7;
      }
    </style>
  </defs>
  <path class="cls-6" d="M99.2,11.6v22.68c-11.52-.24-23.09.33-34.6,0l-.38-.13V11.83l.38-.23h34.6Z"/>
  <path class="cls-12" d="M98.62,63.7c.25.42.3.8.58,1.15v4.81h-5.58s-.19,2.31-.19,2.31c-.51-.34-.58-1.77-.14-2.06-2.64.24-5.32.25-7.93-.25-.15-.02-.38-.07-.38-.17-.11-1.74-.11-4.15,0-5.89l.38-.28c.02-.15.07-.38.18-.38,4.02-.14,8.4-.14,12.37.26l.71.51Z"/>
  <path class="cls-15" d="M84.78,51.39c.34.55.51,1.09.58,1.73l.43.5c.05,1.9.04,3.8-.04,5.7l-.38.53c.38.5.38,1.03,0,1.54,0,.13,0,.26,0,.38.59.08.56,1.41,0,1.54v6.34c-13.31.57-26.67.6-39.98,0l-.38-.13v-18.24c.12-2.03,1.35-3.67,3.39-4.06,12.09,1.32,23.95,2.56,35.58,3.72l.81.46Z"/>
  <path class="cls-10" d="M42.49,69.65c.04-.17.1-.16.19,0,.89-.38,1.8-.38,2.69,0,13.32,0,26.66-.04,39.98,0,2.69,0,5.39,0,8.07,0-.05.76.06,1.55,0,2.31-.06.7-.12.91-.38,1.54-.7.96-1.81,1.26-2.95,1.35H18.54c-1.84-.09-3.55-1.2-4.37-2.85-.31-.63-.87-1.98-.13-2.34,9.47-.56,18.99-.59,28.45,0Z"/>
  <path class="cls-14" d="M47.3,35.63c.48-.27,1.12-.27,1.92,0,.35-.49.62-.49.96,0,1.85.04,3.24-.1,5.08.4,5.14,1.39,7.57,6.23,7.22,11.33-1.13.07-2.27.13-3.4.02l-13.39-1.35c-2.05.41-2.66,1.77-2.61,3.73l-.4.29c-1.19.24-3.11.08-4.36-.16-.26-.05-.46-.24-.64-.42l-.38-.49c-.71-6.24,1.53-12.47,8.45-13.35.51-.02,1.03.01,1.54,0Z"/>
  <path class="cls-12" d="M8.28,69.65c-.69-.48-.39-2.44-.18-3.27.31-1.17.73-1.95,1.74-2.66.45-.31,1.53-1.02,1.8-.42l.13-.38h30.48l.24.38c.16,2,.16,4.3,0,6.34-9.48,0-18.97.03-28.45,0-.44.38-.91.38-1.35,0-1.47,0-2.95.04-4.42,0Z"/>
  <path class="cls-18" d="M14.04,69.65c-.11,2.52,2.02,4.7,4.51,4.81h71.52c1.08-.05,2.02-.52,2.97-.97-.7,1.69-2.15,2.65-3.96,2.86-.45.05-2.3-.06-2.38.02-.15.15.25,1.78-.19,1.92-.45-.52-.53-1.1-.16-1.67-2.12.24-4.28.25-6.37-.25-17.87-.08-35.76.06-53.63,0l-.19,2.12c-.17-.04-.16-.1,0-.19-.48-.46-.54-1.15-.19-1.69-1.72.21-3.51.2-5.26.17-.18,0-.36-.07-.54-.13s-.37-.17-.54-.27c-.72-.02-1.5.06-2.21,0-3.79-.36-5.1-3.2-4.71-6.72.45,0,.9,0,1.35,0Z"/>
  <path class="cls-20" d="M50.18,35.63c-.32,0-.64,0-.96,0-6.88-.87-7.33-7.06-6.9-12.65l.37-.42.88-.25c4.35-.05,8.66-.11,12.95-.17l.4.23c.14,5.98.21,11.53-6.73,13.26Z"/>
  <path class="cls-20" d="M30.58,51.58c.39.4-.15,1.64-.77,1.35-.63,1.77-2.48,2.5-4.23,2.69-.06.58-1.22.56-1.35,0-8.07-1.14-7.96-13.48.19-14.42,5.24.32,8.13,5.64,6.15,10.38Z"/>
  <path class="cls-23" d="M28.85,11.99c-.48.74-.97,1.48-1.59,2.11-4.95,5.05-9.94,10.1-14.95,15.11-.63.63-1.37,1.13-2.11,1.62-1.41-1.23-3.15-2.54-2.21-4.62.46-1.03,5.79-6.07,7.02-7.3.25-1,.92-1.67,1.92-1.92,1.01-1,7-7.09,7.64-7.26,1.99-.51,3.15.9,4.28,2.26Z"/>
  <path class="cls-4" d="M62.49,47.36c6,.65,13.5,1.05,19.27,2.16,1.32.25,2.3.69,3.03,1.87l-8.36-.77c-9.33-1.06-18.68-2.23-28.02-3.03-1.95.49-2.84,1.76-3.02,3.71v18.35c-.9,0-1.8,0-2.69,0-.11-2.05-.15-4.16-.1-6.33-.47-.21-.46-1.56.1-1.74-.58-.07-.56-1.23,0-1.35-.58-2.72-.57-5.92-.42-8.75.03-.5.22-.98.42-1.44.09-2.47.29-3.72,3-4.4,5.61.5,11.21,1.11,16.8,1.71Z"/>
  <path class="cls-12" d="M33.46,13.52c0,.4-.16.47-.5.55l-19.17,19.17c-.8.5-1.63.63-2.53.35-.62-.2-2.14-1.12-1.84-1.81.26-.28.51-.69.77-.96,6.07-6.29,12.46-12.75,18.65-18.84.04-.04.33-.04.48-.19.52-.5,1.02-1.04,1.54-1.54.79.95,2.44,1.96,2.6,3.26Z"/>
  <path class="cls-20" d="M37.69,49.47c1.63.07,3.42.22,5,.58-.12,3.37,0,6.81,0,10.19-.51.28-1.15.33-1.92.16-3.59.24-7.3.2-9.43-3.19-1.15-1.82-1.36-4.23-.19-6.01.87-.78,2.9-1.87,4.04-1.92.27-.62,2.2-.39,2.5.19Z"/>
  <path class="cls-14" d="M56.91,22.37c-.32.22-.68.19-1.05.2-4.37.13-8.81,0-13.18,0-.05.17-.12.17-.19,0l-.28-.35c-.08-3.24.37-6.54,4.32-6.95,2.26-.08,6.44-.39,8.25.88,2.29,1.59,2.07,3.78,2.13,6.24Z"/>
  <path class="cls-17" d="M26.15,78.3c0,.06,0,.13,0,.19.07,5.47-.01,10.96,0,16.44,0,.76.24.73,0,1.63-.21-.03-.36-.16-.45-.39h-2.21c-.85-.02-2.61-.54-1.77-1.43l-.38-.18v-16.03l.38-.23c.04-.15.1-.37.22-.38.44-.06,3.61-.08,3.92,0l.28.38Z"/>
  <path class="cls-17" d="M86.51,78.3c.1,5.81.08,11.68,0,17.49-.01.15-.05.36-.17.38-.84.16-3.34.05-4.03-.42-.46-.31-.74-.66-.22-1.02l-.38-.18v-16.03l.38-.23.14-.41c.23-.13,3.9.01,4.28.41Z"/>
  <path class="cls-23" d="M12.89,61.58c.73.14,1.14,0,1.24-.38h18.47l2.4.38.5-.31c2.25.27,4.57.22,6.81.07l.38.24v8.07c-.06,0-.13,0-.19,0v-6.34H11.64c-.28,0-1.63.71-1.92.96-1.52,1.33-1.48,3.53-1.44,5.38-.45-.01-.9.01-1.35,0,.11-2.5-.62-5.53,1.74-7.2.16-.11,1.17-.68,1.24-.68h2.79c.04-1.37-.14-2.73.19-4.04l.38.22v3.35l-.38.28Z"/>
  <path class="cls-2" d="M79.98,76.38c2.18,0,4.36,0,6.54,0,0,.64-.01,1.28,0,1.92-.89.29-3.34-.22-4.42,0v16.44c0,1.44,3.49,1.02,4.42,1.06,0,.02.17.13.16.42-.06.89-.56,1.49-1.45,1.65-1.1.2-4.74.35-5.16-.9l-.08-20.58Z"/>
  <path class="cls-2" d="M19.62,76.38c2.17.06,4.36-.04,6.54,0,0,.64-.01,1.28,0,1.92h-4.42v16.44c0,1.43,3.28,1,4.14,1.06.55.04.2.48.28.77-.26.99-.53,1.22-1.63,1.35s-4.41.29-4.82-.95l-.08-20.58Z"/>
  <path class="cls-20" d="M93.82,60.04l-.36.37c-2.63-.06-5.26-.12-7.89-.18l-.22-.39c-.02-2.11.2-4.69,0-6.73l6.81.59c2.32.8,2.38,4.39,1.64,6.33Z"/>
  <path class="cls-6" d="M16.93,16.98c-.64.63-1.29,1.28-1.92,1.92l-5.77-5.86-7.55-.14c-1.4-.81-1.08-2.47.53-2.66,1.08-.13,7.19-.16,7.99.09,1.21.37,5.39,5.6,6.72,6.64Z"/>
  <path class="cls-23" d="M33.46,13.52c.17,1.42-.68,2.14-1.54,3.08-.16,1.06-1.44,2.28-2.5,2.5.07.62-.15.84-.77.77-1.2,1.22-2.44,2.43-3.65,3.65-.51,1.26-1.43,2.18-2.69,2.69.08.45-.13.66-.58.58-1.22,1.21-2.43,2.45-3.65,3.65-.47,1.25-1.43,2.24-2.69,2.69.25.49-.03.9-.58.77-.04.04-.32.04-.48.19-.82.73-1,1.25-2.31,1.25-1.59,0-2.5-1.52-3.54-2.52-.07-.38.73-.8.95-1.03,1.2,1.22,2.38,2.16,4.13,1.15l19.22-19.23.67-.19Z"/>
  <path class="cls-16" d="M42.69,60.24v1.35c-.32.22-.68.19-1.05.2-2.01.07-4.71.15-6.64-.2-2.02-.05-3.7-.78-4.94-2.42-.45-.6-1.28-1.81-.64-2.39-.61-.1-.55-.97,0-1.15-.84-.68-.11-1.92.38-2.69.3-.36.59-.91.77-1.35.39.06.43-.25.58-.38l-.39,2.4c-.16,3.42,2.61,6.08,5.9,6.42,1.96.2,4.11-.26,6.03.22Z"/>
  <path class="cls-21" d="M45.76,35.63c-3.45,1.06-6.16,2.78-7.45,6.29-.93,2.51-.57,4.93-.62,7.55-.67-.03-2.05-.21-2.5-.19-.54-6.36,1.49-12.42,8.46-13.46.36-.15.74-.21,1.15-.19.32-.02.64.02.96,0Z"/>
  <path class="cls-7" d="M64.6,11.6v22.68c-.45-.01-.9.01-1.35,0V11.52c.03-.23,1.15-.17,1.35.08Z"/>
  <path class="cls-16" d="M24.42,41.2c-3.03.93-5.5,3.1-5.77,6.43-.33,3.94,1.92,6.79,5.58,7.98-.63.38-1.29.38-1.92,0-8.54-2.28-6.77-14.95,2.11-14.42Z"/>
  <path class="cls-8" d="M22.31,55.62c.64,0,1.28,0,1.92,0h1.35c1.28-.38,2.57-.38,3.84,0,0,.36-.05.83,0,1.15-.26.21-.55.36-.88.42l-9.15-.12c-3.64.02-5.3.37-4.97,4.35-.48.16-.99.21-1.53.15v-3.84c.15-.6.32-1.13.86-1.54,1.22-.93,6.74-.57,8.56-.57Z"/>
  <path class="cls-1" d="M42.49,22.56h.19c.18,3.48-.76,6.94,1.54,9.9,1.29,1.66,3,2.6,4.99,3.18-.64,0-1.28-.02-1.92,0-6.66-1.89-6.69-7.2-6.54-13.07.09-.59,1.58-.57,1.73,0Z"/>
  <path class="cls-23" d="M98.62,63.7l-2.01-.39h-11.25s0-1.53,0-1.53l10.65.02c1.24.24,1.98.86,2.61,1.91Z"/>
  <path class="cls-9" d="M46.53,15.25c-1.78.58-3.56,1.97-3.83,3.96-.15,1.09.22,2.31-.21,3.35h-1.73c.07-2.5-.2-4.8,2.13-6.43,1.31-.91,2.15-.82,3.64-.88Z"/>
  <path class="cls-16" d="M93.82,60.04c-.24.63-.51,1.21-1.26,1.33-2.1.35-5.01-.23-7.2.01,0-.51,0-1.03,0-1.54l8.46.19Z"/>
  <path class="cls-5" d="M20.2,32.75c-.41.74-1.67,2.23-2.56,2.32s-2.2-1.09-2.25-1.94c.9-.88,1.79-1.8,2.69-2.69.46.82,1.72,1.51,2.11,2.31Z"/>
  <path class="cls-11" d="M27.12,25.83c-.21.49-1.48,1.94-1.98,2.17-1.12.52-2.7-.72-2.82-1.79.89-.89,1.8-1.8,2.69-2.69.59.87,1.52,1.44,2.11,2.31Z"/>
  <path class="cls-11" d="M33.84,18.71c.3.8-1.46,2.3-2.2,2.4-.94.13-2.52-1.06-2.22-2.02.81-.83,1.73-1.66,2.5-2.5.58.77,1.33,1.36,1.92,2.11Z"/>
  <path class="cls-3" d="M28.65,19.87c.25-.26.52-.51.77-.77,1.88,2.71,2.69,1.73,4.42-.38.16.2.5.29.54.7.06.68-1.98,2.81-2.6,2.92-1.07.19-2.41-1.74-3.13-2.47Z"/>
  <path class="cls-13" d="M27.12,25.83c.14.2.38.27.34.64-.07.7-2.05,2.75-2.77,2.82-.94.09-2.29-1.84-2.96-2.5.19-.19.38-.38.58-.58.79.47,1.33,1.7,2.39,1.54.75-.11,1.53-1.81,2.41-1.93Z"/>
  <path class="cls-13" d="M20.2,32.75c.56,1.14-.72,2.44-1.63,3.08-1.74,1.21-2.39-1.15-3.75-1.92.04-.04.26-.46.58-.77.81.44,1.2,1.61,2.21,1.56s1.6-1.74,2.6-1.94Z"/>
  <path class="cls-14" d="M44.8,35.63c-.2.02-.84.15-1.15.19.22-.34.79-.16,1.15-.19Z"/>
  <rect class="cls-15" x="64.98" y="13.14" width="32.49" height="19.41"/>
  <path class="cls-19" d="M29.42,55.62h-3.84c1.55-.58,3.16-1.39,4.23-2.69-.27.98-.38,1.67-.38,2.69Z"/>
  <path class="cls-15" d="M29.42,56.78c.42,2.66,3.12,4.36,5.57,4.81H12.89h1.15c-.13-3.11.23-4.57,3.55-4.81,3.82-.28,7.97.22,11.83,0Z"/>
  <path class="cls-22" d="M84.79,25.06l1.33-3.32c2.45-2.26,3.18,3.86,3.76,3.9.05,0,.5-.34.96-.39.91-.09,3.8-.14,4.61,0,.55.1,1.1.87,1.06,1.42-.13,2.04-3.64.95-4.86,1.3-.88.26-1.05,2.22-2.89,1.65-.68-.21-1.07-2.04-1.38-2.65-.68.74-.89,3.22-1.49,3.79-.41.39-1.46.33-1.89-.03-.77-.64-1.65-5.09-2.1-6.26-1.01.91-.52,1.93-2.2,2.12-1.43.16-5.96.37-4.5-2.19.63-1.11,2.99-.09,3.82-.6.97-.59,1.24-5.32,3.65-4.23.86.39,1.79,4.43,2.12,5.47Z"/>
  <path class="cls-12" d="M67.04,28.37c.66-.15,4.45-.15,5.11,0,1.49.33,1.3,2.41.04,2.65-.66.12-4.7.11-5.34-.04-1.35-.31-1.11-2.32.19-2.61Z"/>
  <path class="cls-12" d="M72.82,24.15c.56.53.56,1.68-.15,2.15-.62.4-4.8.44-5.62.26-1.35-.3-1.58-2.4-.03-2.64,1.02-.16,3.71-.11,4.8-.02.32.03.76.03,1,.25Z"/>
  <path class="cls-12" d="M67.04,14.72c.66-.15,4.45-.15,5.11,0,1.49.33,1.3,2.41.04,2.65-.66.12-4.7.11-5.34-.04-1.35-.31-1.11-2.32.19-2.61Z"/>
  <path class="cls-12" d="M66.85,19.33c.42-.12,5.08-.12,5.5,0,1.19.35,1.22,2.39-.36,2.64-.65.1-4.62.12-5.14-.03-1.09-.32-1.23-2.25,0-2.61Z"/>
</svg>