<?xml version="1.0" encoding="UTF-8"?>
<svg xmlns="http://www.w3.org/2000/svg" xmlns:xlink="http://www.w3.org/1999/xlink" viewBox="0 0 500 500">
  <defs>
    <style>
      .cls-1, .cls-2, .cls-3, .cls-4, .cls-5 {
        fill: #c7c6c6;
      }

      .cls-1, .cls-6, .cls-7 {
        mix-blend-mode: screen;
      }

      .cls-8 {
        fill: #949393;
      }

      .cls-9 {
        fill: #111;
      }

      .cls-10, .cls-11, .cls-12, .cls-13, .cls-14, .cls-15, .cls-16, .cls-17, .cls-4, .cls-18, .cls-19, .cls-20, .cls-21, .cls-22 {
        mix-blend-mode: multiply;
      }

      .cls-10, .cls-23 {
        fill: #7e7f80;
      }

      .cls-24 {
        fill: #30723d;
      }

      .cls-25 {
        fill: #b48055;
      }

      .cls-26 {
        fill: #c9d4dc;
      }

      .cls-27 {
        fill: #6f6f6e;
      }

      .cls-28 {
        fill: #442112;
      }

      .cls-29 {
        fill: #9c9c9b;
      }

      .cls-30 {
        fill: #e5f1fa;
      }

      .cls-11, .cls-31, .cls-14, .cls-32 {
        fill: #9caab3;
      }

      .cls-33 {
        fill: #345787;
      }

      .cls-12, .cls-17, .cls-21 {
        opacity: .1;
      }

      .cls-12, .cls-34 {
        fill: #1d662e;
      }

      .cls-35 {
        fill: #4b7a90;
      }

      .cls-36 {
        fill: #6f7070;
      }

      .cls-37 {
        fill: #5d9ece;
      }

      .cls-38 {
        fill: #fdf8d1;
      }

      .cls-39 {
        fill: #d5e9f7;
      }

      .cls-40 {
        fill: #628685;
      }

      .cls-41 {
        fill: #adacaa;
      }

      .cls-13, .cls-15 {
        fill: #1d1d1b;
      }

      .cls-13, .cls-16, .cls-3 {
        opacity: .3;
      }

      .cls-42, .cls-6, .cls-43, .cls-44 {
        fill: #fff;
      }

      .cls-45 {
        fill: #575872;
      }

      .cls-46 {
        fill: #b27d6b;
      }

      .cls-47 {
        fill: #ced0d8;
      }

      .cls-48 {
        fill: #898888;
      }

      .cls-14, .cls-15, .cls-18, .cls-43, .cls-20 {
        opacity: .4;
      }

      .cls-49 {
        fill: #232c30;
      }

      .cls-50 {
        fill: #f0f1f2;
      }

      .cls-51 {
        fill: #a0c8ea;
      }

      .cls-52 {
        fill: #d1dfe5;
      }

      .cls-53 {
        fill: #e6e1d0;
      }

      .cls-54 {
        fill: #5b7e7e;
      }

      .cls-16 {
        fill: #cb8191;
      }

      .cls-55 {
        fill: #4a362c;
      }

      .cls-17, .cls-19 {
        fill: #5a287f;
      }

      .cls-56 {
        fill: #bfdef7;
      }

      .cls-57 {
        fill: #583f2f;
      }

      .cls-58 {
        fill: #4a4f51;
      }

      .cls-59 {
        fill: #5c7c87;
      }

      .cls-60 {
        fill: #231f20;
      }

      .cls-61 {
        isolation: isolate;
      }

      .cls-62 {
        fill: #9899a0;
      }

      .cls-63, .cls-18 {
        fill: #7e7e7d;
      }

      .cls-7 {
        fill: url(#linear-gradient);
        opacity: .9;
      }

      .cls-64 {
        fill: #a8aab2;
      }

      .cls-65 {
        fill: #a56c5d;
      }

      .cls-32, .cls-44 {
        opacity: .6;
      }

      .cls-66 {
        fill: #949493;
      }

      .cls-67 {
        fill: #c9e98e;
      }

      .cls-68 {
        fill: #77aaaf;
      }

      .cls-69 {
        fill: #e6c8b9;
      }

      .cls-70 {
        fill: #585857;
      }

      .cls-71 {
        fill: #495b69;
      }

      .cls-72 {
        fill: #6b6c6b;
      }

      .cls-73 {
        fill: #211915;
      }

      .cls-74 {
        fill: #7facad;
      }

      .cls-75 {
        fill: #bcbaad;
      }

      .cls-76 {
        fill: #49281a;
      }

      .cls-77 {
        fill: #929091;
      }

      .cls-78 {
        fill: #eee;
      }

      .cls-19, .cls-79 {
        opacity: .2;
      }

      .cls-43, .cls-79 {
        mix-blend-mode: soft-light;
      }

      .cls-80 {
        fill: #ad756a;
        opacity: .5;
      }

      .cls-81 {
        fill: #a9a9a8;
      }

      .cls-20 {
        fill: #32394b;
      }

      .cls-82 {
        fill: #604534;
      }

      .cls-83 {
        fill: #54b56f;
      }

      .cls-84 {
        fill: #93ccce;
      }

      .cls-21 {
        fill: #5789e3;
      }

      .cls-85 {
        fill: #c1ccd7;
      }

      .cls-86 {
        fill: #8f9199;
      }

      .cls-87 {
        fill: #b3b3b3;
      }

      .cls-88 {
        fill: #d8b1a0;
      }

      .cls-89 {
        fill: #dfebef;
      }

      .cls-79 {
        fill: #fefcdf;
      }

      .cls-90 {
        fill: #3a3938;
      }

      .cls-91 {
        fill: #fff3e7;
      }

      .cls-92 {
        fill: #bcd4e3;
      }

      .cls-93 {
        fill: #bbbdc4;
      }

      .cls-94 {
        fill: #c9cbd1;
      }

      .cls-95 {
        fill: #afaeaf;
      }

      .cls-96 {
        fill: #c7e5f0;
      }

      .cls-97 {
        fill: #ededed;
      }

      .cls-5, .cls-98 {
        mix-blend-mode: color-burn;
      }

      .cls-99 {
        fill: #575857;
      }

      .cls-100 {
        fill: #42413e;
      }

      .cls-101 {
        fill: #6b6e72;
      }

      .cls-98 {
        fill: #a4a4a4;
      }

      .cls-102 {
        fill: #6eaecd;
      }

      .cls-103 {
        fill: #545653;
      }

      .cls-104 {
        fill: #d1d1d1;
      }

      .cls-105 {
        fill: #71d388;
      }

      .cls-106 {
        fill: #4a6e98;
      }

      .cls-107 {
        fill: #1c1c1e;
      }

      .cls-22 {
        fill: #929293;
      }

      .cls-108 {
        fill: #011721;
      }

      .cls-109 {
        fill: #2d282a;
      }

      .cls-110 {
        fill: #a96b60;
      }

      .cls-111 {
        fill: #7f99ba;
      }
    </style>
    <linearGradient id="linear-gradient" x1="74.56" y1="101.8" x2="74.56" y2="122.1" gradientTransform="translate(156.56) rotate(-180) scale(1 -1)" gradientUnits="userSpaceOnUse">
      <stop offset="0" stop-color="#fff"/>
      <stop offset="1" stop-color="#000"/>
    </linearGradient>
  </defs>
  <g class="cls-61">
    <g id="Layer_9" data-name="Layer 9">
      <g>
        <g>
          <path class="cls-17" d="M51.97,387.51c-11.37,13.38,9.01,24.85,28,27.83,12.73,2,56.97,14.91,89.79,17.89,32.83,2.98,224,35.78,253.94,29.82,29.93-5.96,85.93-54.66,71.45-57.65-14.48-2.98-327.32-50.69-356.28-50.69s-80.14,24.85-86.9,32.8Z"/>
          <g>
            <g>
              <path class="cls-84" d="M317.35,166.15c.99.24,1.49,0,1.49,1.73,0,.98-.5,2.06-1.3,3.07-.63.79-1.44,1.54-2.35,2.2-1.8,1.3-3.22,1.43-4.3,1.46-1.02.03-1.76-.04-2.24.69-.88,1.33-3.48,2.29-3.36-1.69,0,0-.96-.62-1.04-1.52-.04-.4.1-.86.55-1.34,1.49-1.61,2.61-.87,4.47-2.24,1.87-1.36,2.98-4.22,4.97-4.22s2.12,1.61,3.11,1.87Z"/>
              <path class="cls-84" d="M332.26,406.54h.06c-.04,2.75-.13,4.57-.31,4.97-.99,2.32-16.42,11.56-17.89,8.37-.99-2.16,5.79-10.93,5.79-10.93,0,0,8.12.08,12.34-2.41Z"/>
              <path class="cls-84" d="M267.91,410.52c-.67,1.32-16.49,9.24-18.39,6.71-1.11-1.49,6.29-10.44,6.29-10.44,0,0,8.12,1.99,12.59,1.74l.35.15c-.48,1.06-.77,1.71-.84,1.84Z"/>
              <path class="cls-74" d="M270.64,404.46c-4.75-.23-12.38-1.84-14.4-2.29,2.04-21.84,10.76-114.33,13.83-126.58,1.96-7.85,11.26-22.86,11.26-22.86,0,0,16.15,3.48,39.43.67,0,0,9.27,10.6,12.58,22.52,3.4,12.23-5.3,64.28-5.3,64.28,0,0,2.98,7.29,3.31,15.57.12,2.87.93,29.66.99,45.05h-.33c-4.22,2.98-13.67,3.23-13.67,3.23h-.03c-4.3-13.13-15.89-48.94-17.78-58.89-.95-5.02-2.35-17.06-3.66-29.52l-.32.03-8.61,36.45c3.18,4.5-11.12,38.3-17.31,52.34Z"/>
              <path class="cls-54" d="M255.81,406.79s.15-1.66.43-4.61c2.02.45,9.65,2.06,14.4,2.29-.78,1.74-1.41,3.17-1.89,4.21l-.35-.15c-4.47.25-12.59-1.74-12.59-1.74Z"/>
              <path class="cls-54" d="M332.34,400.83c.01,2.17.01,4.09-.02,5.71h-.06c-4.22,2.48-12.34,2.41-12.34,2.41,0,0-.61-1.83-1.6-4.88h.03s9.44-.26,13.67-3.24h.33Z"/>
              <path class="cls-74" d="M289.52,192.6c2.48,0,12.01-11.43,12.01-11.43,0,0,.95-.02,2.54.12v.13s-10.33,13.55-14.8,13.42c-4.47-.13-5.96-11.06-5.96-11.06v-.06c1.15.21,1.82.44,1.82.44,0,0,1.41,8.45,4.39,8.45Z"/>
              <path class="cls-84" d="M326.05,214.3l2.67.2c-1.35,18.38-7.97,38.9-7.97,38.9-22.86,7.61-39.43-.67-39.43-.67l-1.8-4.25c.88-.22,1.71-.46,2.47-.72,11.59-3.98,25.84-19.21,25.84-19.21l.2-.27c1.45,1.01,2.57,1.53,3.11,1.26,2.65-1.33,8.62-4.97,14.91-15.25Z"/>
              <path class="cls-84" d="M326.05,214.3c-.61,1-1.22,1.92-1.82,2.8-2.64,5.94-5.55,11.97-9.8,16.75.23,0,.45,0,.69,0-.23,0-.46,0-.69,0-1.29,1.45-2.71,2.8-4.28,3.98,1.57-1.18,2.99-2.52,4.28-3.98-2.72,0-5.25-.03-7.78-.27-5.64,6.07-12.93,9.79-20.61,12.41-1.37.71-2.72,1.31-4.05,1.77-.76.26-1.58.5-2.47.72l1.8,4.25s16.57,8.28,39.43.67c0,0,6.62-20.52,7.97-38.9l-2.67-.2Z"/>
              <path class="cls-17" d="M311.14,229.55c-.54.27-1.66-.25-3.11-1.26l-.2.27s-1.8,1.92-4.63,4.57c-4.24,3.97-10.8,9.58-17.16,12.87,7.68-2.62,15.98-6.57,21.63-12.64,5.47-.25,11.06-8.2,16.56-16.25-5.6,8.15-10.69,11.24-13.08,12.45Z"/>
              <path class="cls-84" d="M257.4,191.63c.13-.95.24-1.51.24-1.51l13.59-4.79v-.02c5.06-2.33,9.66-2.02,12.1-1.59v.06s1.48,10.93,5.95,11.06c4.47.13,14.79-13.42,14.79-13.42v-.13c1.32.11,3.07.34,5.06.78,4.2.94,9.45,2.85,13.94,6.73,3.24,2.79,4.92,7.56,5.57,13.3.43,3.82.41,8.05.09,12.4l-2.67-.2c-6.29,10.28-12.25,13.91-14.91,15.25-.54.27-1.66-.25-3.11-1.26-4.44-3.1-12.01-10.84-15.69-15.04l-.08.06s-13.58,16.81-19.65,18.81h0s-1.47-3.49-1.47-3.49c0,0-4.55-7.62-5.05-10.36-.29-1.58-.01-3.67.64-6l-.14-.04s-5.39,1.99-6.3,1.41c-.1-.07-.26-.28-.45-.61-.83-1.46-2.29-5.32-2.78-9.92-.48-4.52.02-9.16.35-11.49Z"/>
              <path class="cls-17" d="M258.19,208.8c.57,1.94,1.2,3.45,1.64,4.24.19.33.35.54.45.61.91.58,6.3-1.41,6.3-1.41l.06.02c2.13-3.4,3.2-7.66,4.53-11.71-3.71,3.75-8.04,7.01-12.99,8.25Z"/>
              <path class="cls-88" d="M209.4,158.34c-1.13-2.17-1.74-6,2.84-2.08,4.12,3.53,8.11,4.23,8.95,4.34,1.16-.57,2.58-.87,4.14-.64,4.97.75,1.07,7.53,1.07,7.53,0,0,15.16,21.45,19.63,23.44,2.48,1.09,7.13,1.97,11.36.69-.33,2.33-.83,6.97-.35,11.49.5,4.6,1.96,8.46,2.78,9.92l-.03.02c-5.05,1.27-11.86,2.18-17.91.25-10.03-3.19-26.34-39.76-26.34-39.76-10.44-2.74-12.16-13.08-11.18-13.99.32-.3.85-.14,1.51.28l.07-.11s-.66-2.31.33-2.98c.63-.44,1.74.42,3.12,1.6Z"/>
              <path class="cls-88" d="M257.12,193.99c.09-.92.19-1.73.28-2.36-4.23,1.28-8.89.41-11.36-.69-4.47-1.99-19.63-23.44-19.63-23.44,0,0,3.9-6.79-1.07-7.53-1.56-.24-2.98.07-4.14.64-.83-.11-4.83-.81-8.95-4.34-4.58-3.93-3.98-.09-2.84,2.08-1.38-1.18-2.5-2.04-3.12-1.6-.98.68-.33,2.98-.33,2.98l-.07.11c-.66-.42-1.19-.58-1.51-.28-.97.91.75,11.25,11.18,13.99,0,0,12.86,28.82,22.76,37.51,6.18.91,12.53.9,18.15-1.51-.39-5.16.06-10.51.65-15.56Z"/>
              <path class="cls-17" d="M258.17,208.74c-.47-1.62-.9-3.54-1.12-5.62-.35-3.3-.18-6.65.07-9.13-.59,5.05-1.04,10.4-.65,15.56-5.62,2.41-11.97,2.42-18.15,1.51,1.25,1.1,2.45,1.89,3.58,2.25,4.99,1.59,10.49,1.25,15.1.37.98-.19,1.93-.4,2.81-.62l.03-.02c-.45-.8-1.09-2.33-1.66-4.3Z"/>
              <path class="cls-88" d="M279.52,248.48c-12.63,3.14-36.96,2.34-41.6,3.26-4.97.99-18.55-4.3-18.55-4.3-1.37-.53-.83-2.08,1.7-2.27h0c-1.73-.01-6.33-2.07-2.11-3.2v-.05s-1.08-.94-1.08-1.94,3.19-1.6,7.61-1.33c3.38.21,6.51.79,6.51.79,0,0-5.99-2-3.36-2.44,4.97-.83,9.61,2.64,10.6,2.81.99.17,27.16-5.96,33.13-7.62.07-.02.15-.04.23-.07,6.07-2.01,19.65-18.81,19.65-18.81l.08-.06c3.69,4.19,11.25,11.94,15.69,15.04l-.2.27s-14.25,15.24-25.84,19.21c-.76.26-1.58.5-2.47.72Z"/>
              <path class="cls-88" d="M317.27,136.94c-5.38-1.75-8.36,1.75-9.29,3.12-22.9-.19-38.58-20.6-41.75-25.09l-.49.27s-2.16,20.14-11.31,28.42l.22.24s.58,2.4,1.11,4.95c.55,2.54,1.36,6.52,1.2,7.1-.34,1.16-2.82,7.55.37,12.05,2.73,3.85,13.61,9.9,26.67,9.44l1.11,6.71s1.41,8.45,4.39,8.45c2.48,0,12.01-11.43,12.01-11.43l-1.3-8.71-.16-1.05c8.04-6.66,10.9-16.41,10.9-16.41l.12-.42c2.01.58,3.74.41,5.18-.27,6.3-2.92,7.16-15.37,1-17.37Z"/>
              <path class="cls-19" d="M300.36,173.32l-.13-.85-.16-1.05c-3.4,2.79-7.7,5.05-13.11,5.78-.99.13-1.98.22-2.94.25l.76,4.6c6.01-.95,11.6-3.71,15.58-8.72Z"/>
              <path class="cls-9" d="M333.01,195.58c4.47,3.35,7.7,1.49,8.08,2.24.37.75-5.84,7.63-12.45,4.27-.65-5.73-2.33-10.51-5.57-13.3-4.49-3.88-9.75-5.78-13.94-6.73-1.07-3.14,1.77-7.28,1.77-7.28v-.19c1.08-.03,2.5-.16,4.3-1.46.9-.66,1.72-1.41,2.35-2.2l.06.04s7.08-.5,10.44,5.1c3.36,5.59,2.1,17.35,4.97,19.5Z"/>
              <path class="cls-9" d="M266.24,114.98l-.49.27s-2.16,20.14-11.31,28.42l.22.24s.58,2.4,1.11,4.95l-.95.19c-15.9-2.65-10.58-28.69-.82-39.92,5.47-6.29,11.76-3.15,11.76-3.15,0,0,23.85-16.73,41.09-1.82,10.64,9.21,10.44,32.8,10.44,32.8-5.38-1.75-8.36,1.75-9.29,3.12-22.9-.19-38.58-20.6-41.75-25.09Z"/>
              <path class="cls-9" d="M316.27,154.32c-.07.95-.54,6.19-2.03,9.86v.1c-1.99,0-3.1,2.86-4.97,4.22-1.86,1.36-2.98.63-4.47,2.24-.45.49-.59.94-.55,1.34h-.2c-1.95.4-3.35.32-3.35.32l-.48.07-.16-1.05c8.04-6.66,10.9-16.41,10.9-16.41l.12-.42c2.01.58,3.74.41,5.18-.27Z"/>
              <path class="cls-68" d="M277.83,189.51c-.9,1.55-1.75,3.12-2.6,4.7-.83,1.59-1.69,3.15-2.47,4.77-.81,1.6-1.56,3.21-2.3,4.84-.39.8-.73,1.63-1.05,2.46l-1,2.48-.82,2.53c-.13.42-.29.85-.4,1.25l-.32,1.31c-.16.86-.34,1.7-.36,2.57,0,.21-.03.43-.03.64l.05.63c.02.19.02.45.07.59l.19.65c.11.45.29.83.44,1.23.16.4.31.79.51,1.2.37.81.75,1.61,1.16,2.4.81,1.59,1.67,3.16,2.54,4.72v.02s.02.03.02.03l1.4,3.51c.06.14-.01.3-.15.35-.14.05-.29,0-.35-.14l-1.54-3.45.02.04c-.95-1.53-1.85-3.09-2.7-4.68-.43-.79-.84-1.59-1.24-2.41-.21-.4-.39-.83-.57-1.26-.18-.43-.38-.87-.49-1.29l-.19-.65c-.08-.29-.06-.49-.1-.74l-.06-.71c0-.24.02-.47.03-.7.01-.93.2-1.86.37-2.76l.31-1.31c.12-.46.27-.87.41-1.31l.84-2.59,1.03-2.51c.34-.84.69-1.67,1.09-2.48l1.15-2.45c.39-.81.83-1.6,1.24-2.4.82-1.6,1.72-3.16,2.6-4.73.92-1.54,1.84-3.09,2.81-4.6.08-.13.25-.16.38-.08.12.08.16.24.09.37Z"/>
              <path class="cls-40" d="M304.92,361.57l-1.58-4.99c-.52-1.67-1.06-3.32-1.55-5l-1.34-5.08-.33-1.29-.21-1.29-.42-2.58-.83-5.16c-.27-1.72-.53-3.44-.73-5.18l-1.28-10.4c-.21-1.74-.44-3.46-.63-5.21l-.53-5.2-1.05-10.4c-.65-6.94-1.3-13.88-1.83-20.83l.33.5h0c-1.45-.89-2.83-1.84-4.18-2.85-.66-.53-1.33-1.03-1.96-1.59-.32-.28-.65-.54-.94-.85l-.9-.89c-.09-.09-.09-.25,0-.34.09-.09.23-.09.32-.02h.02s.94.81.94.81c.3.27.65.51.98.75.65.5,1.36.94,2.04,1.4,1.4.88,2.84,1.71,4.3,2.45h0c.19.1.3.28.33.47v.03c.85,6.92,1.57,13.86,2.29,20.79l1,10.41,1.02,10.39,1.04,10.39c.15,1.73.37,3.46.61,5.19l.64,5.19.32,2.6.16,1.3.28,1.25,1.12,5.08c.4,1.69.86,3.38,1.28,5.07l1.28,5.07Z"/>
              <path class="cls-46" d="M219.42,160.6c-.67-.01-1.4-.2-2.04-.44-.33-.12-.65-.26-.95-.41-.31-.15-.63-.3-.92-.47-1.2-.68-2.29-1.51-3.32-2.41-.52-.44-1-.87-1.53-1.23-.26-.18-.53-.34-.8-.47-.25-.13-.54-.2-.66-.17-.1,0-.22.19-.25.48-.04.28,0,.6.04.92.09.64.29,1.27.53,1.89h0s.04.08.04.08v.02c.04.07,0,.14-.06.17-.06.02-.12,0-.16-.05l-.06-.08h0c-.38-.59-.66-1.23-.87-1.9-.1-.34-.17-.7-.16-1.09,0-.19.03-.41.12-.63.08-.22.29-.46.55-.56.53-.19.94-.03,1.29.09.36.14.67.32.96.51.6.38,1.13.83,1.66,1.24.53.39,1.02.85,1.56,1.23l.79.6.81.56c.26.2.54.37.82.54.28.18.56.34.85.48.58.33,1.15.57,1.81.75.09.03.15.12.12.21-.02.08-.09.13-.17.13h0Z"/>
              <path class="cls-46" d="M212.29,165.15s-.15-.04-.41-.13c-.13-.05-.29-.08-.46-.19-.18-.09-.38-.2-.6-.33-.23-.13-.42-.28-.64-.44-.22-.16-.46-.33-.68-.52-.46-.37-.92-.79-1.38-1.2-.45-.42-.9-.84-1.32-1.23-.41-.4-.82-.72-1.16-1.01-.2-.15-.33-.24-.48-.33-.15-.08-.28-.13-.38-.14-.2-.03-.31.05-.31.04h-.02c-.06.05-.14.04-.18-.02-.04-.05-.03-.12.02-.17,0,0,.04-.03.1-.1.07-.06.2-.14.37-.16.17-.03.37,0,.58.05.2.05.45.14.65.24.43.23.93.53,1.39.89.49.35.95.77,1.43,1.18.46.42.92.84,1.33,1.24.21.2.41.39.6.57.19.17.37.37.53.5.16.14.31.28.44.4.12.13.28.21.39.3.23.16.35.26.35.26h0c.08.07.09.18.03.25-.04.06-.12.08-.18.06Z"/>
              <path class="cls-46" d="M205.79,159.77s-.09-.21-.2-.58c-.09-.38-.26-.92-.16-1.67.08-.37.11-.81.72-1.2.1-.04.14-.08.28-.11.16-.03.37-.04.52-.02.25.05.49.13.69.24.82.41,1.47.99,2.13,1.55,1.3,1.13,2.54,2.29,3.55,3.04.5.39.94.68,1.26.86.32.19.51.29.51.29h.01c.06.04.08.12.05.18-.03.05-.09.08-.15.06,0,0-.21-.05-.58-.17-.36-.13-.89-.32-1.46-.65-1.17-.63-2.55-1.72-3.85-2.84-.64-.55-1.3-1.12-1.91-1.47-.15-.1-.29-.14-.42-.19-.04,0-.03,0-.06-.04-.04-.02-.16.05-.24.07h-.02s0,0,0,0h0s.15-.08.08-.04h-.01s-.03.04-.03.04c-.02.02-.04.03-.06.05-.03.05-.08.07-.1.13-.07.1-.12.22-.15.35-.14.53-.13,1.08-.1,1.43.03.37.05.57.05.57.01.1-.06.18-.15.2-.08.01-.15-.04-.18-.1Z"/>
              <path class="cls-46" d="M309.61,146.61s-.03-.76.26-1.84c.14-.54.38-1.17.75-1.8.37-.64.9-1.28,1.6-1.78.18-.12.37-.22.56-.33l.04-.02.09-.04.06-.02.12-.05.24-.1c.35-.13.88-.25,1.28-.27.43-.03.86.05,1.25.17.38.14.72.33.97.55.52.43.78.9.93,1.22.14.33.18.53.19.55.11.28-.02.6-.3.71-.28.11-.6-.02-.71-.3.01.02-.08-.1-.26-.28-.18-.18-.45-.41-.78-.57-.16-.09-.35-.12-.52-.16-.19-.02-.38-.01-.59.02-.25.04-.37.09-.65.2l-.23.1-.12.05-.06.03h-.01c.11-.04.02,0,.05-.01h-.02c-.1.08-.21.14-.32.22-.85.59-1.53,1.66-1.99,2.49-.23.42-.41.79-.54,1.04-.13.26-.2.4-.2.4h0c-.14.29-.47.4-.75.27-.19-.09-.3-.28-.31-.48Z"/>
              <g>
                <path class="cls-16" d="M273.55,153.38c-.1-1.2,1.48-3.55,3.91-3.6,2.43-.06,4.1,2.51,4.28,3.22.31,1.22-.7,3.07-3.92,3.43-3.27.37-4.19-2.07-4.28-3.05Z"/>
                <path class="cls-55" d="M279.45,155.92c-.26-.09,1.41-1.84,1.88-1.59.39.21-.96,1.91-1.88,1.59Z"/>
                <path class="cls-46" d="M275.07,150.36s-.41.36-.84,1.03c-.2.34-.47.74-.62,1.24-.09.24-.16.5-.21.78-.06.27-.1.58-.02.96.32,1.3,1.39,2.02,2.19,2.28.41.15.77.15,1.01.17.24-.01.38-.02.38-.02.17,0,.3-.15.29-.32,0-.14-.1-.25-.23-.28h-.04s-.11-.04-.31-.09c-.19-.06-.46-.15-.75-.31-.57-.29-1.29-.95-1.42-1.68-.02-.12-.05-.32,0-.54.03-.22.07-.43.14-.63.12-.41.25-.81.4-1.14.29-.67.51-1.1.51-1.1.08-.15.02-.34-.13-.42-.12-.06-.25-.04-.35.04h0Z"/>
              </g>
              <g>
                <path d="M286.52,145.42c.46,1.69,1.98,2.74,3.41,2.35,1.43-.39,2.21-2.07,1.76-3.75-.46-1.69-1.98-2.74-3.41-2.35-1.43.39-2.21,2.07-1.76,3.75Z"/>
                <path d="M288.8,142.35s1.05-.26,1.8-.8c1.35-.96,1.52-1.73,1.86-1.55.34.17-.22,3.2-2.52,4.16,0,0-1.2-1.22-1.14-1.81Z"/>
              </g>
              <g>
                <path d="M269.04,147.67c.34,1.71-.56,3.33-2.02,3.62-1.45.29-2.9-.87-3.24-2.59-.34-1.71.57-3.33,2.02-3.62,1.45-.29,2.9.87,3.23,2.59Z"/>
                <path d="M265.63,145.93s-1.05.23-1.97.08c-1.63-.26-2.13-.88-2.36-.57-.23.31,1.61,2.77,4.1,2.61,0,0,.53-1.63.22-2.13Z"/>
              </g>
              <path class="cls-80" d="M285.02,161.54s-2.22-2.16-6.33-1.41c-2.31.42-4.89,3.37-4.89,3.37,0,0,6.39.68,11.21-1.96Z"/>
              <path class="cls-80" d="M274.06,163.51s2.17,3.3,6.02,2.75c4.59-.65,5.27-4.96,5.27-4.96,0,0-8.35,3.04-11.29,2.2Z"/>
              <path class="cls-73" d="M289.41,157.15s-.06.07-.17.21c-.11.13-.27.31-.48.54-.23.23-.5.5-.82.81-.34.29-.72.61-1.14.96-.45.31-.93.65-1.44,1-.55.3-1.12.61-1.72.94-.61.29-1.28.51-1.93.77-.66.27-1.39.33-2.09.53l-.52.13c-.06.02-.23.06-.2.05l-.28.02c-.37.03-.74.05-1.11.08-.76.11-1.4-.03-2.05-.09-.64-.02-1.27-.25-1.87-.38-.61-.11-1.13-.42-1.64-.59-.99-.44-1.78-.91-2.3-1.26-.52-.37-.79-.59-.79-.59h-.01c-.15-.13-.37-.11-.49.03-.11.14-.1.33.02.45,0,0,.27.3.78.74.27.2.59.47.98.74.4.24.83.57,1.36.82.54.22,1.08.57,1.74.74.65.18,1.3.48,2.07.52.75.09,1.55.23,2.27.14.37-.02.74-.04,1.11-.06h.28c.21-.03.22-.05.34-.08l.57-.13c.75-.2,1.53-.31,2.24-.6.71-.3,1.42-.55,2.07-.88.63-.36,1.25-.71,1.8-1.08.52-.41,1.02-.8,1.48-1.16.42-.4.8-.77,1.13-1.11.3-.36.56-.68.78-.94.41-.56.6-.89.6-.89.1-.16.04-.38-.13-.47-.15-.09-.34-.05-.44.09Z"/>
              <path class="cls-43" d="M285.55,115.2c-1.32,1.65,6.71,16.03,13.54,15.28,4.63-.51-.37-9.44,1.24-10.81,2.08-1.76,7.83,2.86,10.31,1.37,2.48-1.49-6.93-16.97-11.43-13.67-1.86,1.37,4.47,6.83,3.23,7.21-1.24.37-5.8-3.38-7.7-2.11-1.49.99,1.62,8.32-.12,9.32-1.74.99-7.08-9.07-9.07-6.58Z"/>
              <path class="cls-90" d="M266.52,114.77s-.1,2.26-.66,5.58c-.29,1.66-.65,3.6-1.19,5.64-.52,2.05-1.21,4.2-2.01,6.32-.82,2.11-1.8,4.18-2.89,6.02-.55.92-1.14,1.78-1.74,2.57-.6.79-1.21,1.5-1.82,2.12-.3.32-.6.6-.9.86-.15.13-.28.25-.45.39-.14.11-.28.22-.41.32-.53.41-1.09.8-1.52,1.04-.43.27-.8.43-1.05.55-.25.12-.38.18-.38.18-.27.13-.6.01-.72-.26-.12-.25-.03-.54.2-.69l.04-.02s.11-.07.32-.21c.21-.13.52-.33.89-.61.39-.28.78-.6,1.28-1.07.12-.12.25-.24.38-.36.12-.12.23-.25.36-.38.25-.27.52-.53.77-.85.53-.6,1.05-1.3,1.57-2.06.52-.76,1.01-1.61,1.51-2.49.97-1.78,1.87-3.76,2.65-5.8.79-2.04,1.47-4.12,2.05-6.1.57-1.98,1.09-3.84,1.46-5.45.37-1.61.7-2.95.88-3.9.19-.94.3-1.48.3-1.48h0c.06-.3.35-.49.64-.43.27.05.45.3.44.56Z"/>
              <path class="cls-90" d="M266.1,113.81s.12.16.35.46c.23.29.57.72,1,1.26.44.53.96,1.19,1.6,1.91.63.73,1.36,1.54,2.15,2.42.81.86,1.68,1.81,2.65,2.76.48.47.98.96,1.49,1.46.52.48,1.06.97,1.6,1.47.53.51,1.11.99,1.69,1.47.59.48,1.16,1,1.77,1.47,1.23.93,2.46,1.92,3.78,2.77.65.43,1.28.91,1.95,1.31.67.4,1.34.79,2.01,1.19,1.32.8,2.72,1.41,4.02,2.1,1.37.53,2.66,1.15,3.93,1.6,1.29.39,2.5.82,3.64,1.12,1.16.23,2.22.48,3.16.7.94.22,1.79.24,2.48.35,1.39.18,2.18.29,2.18.29h.01c.07.01.12.08.11.15,0,.07-.06.11-.13.11,0,0-.8,0-2.21.01-.7-.03-1.57.04-2.55-.08-.98-.11-2.09-.23-3.29-.4-1.19-.22-2.47-.57-3.84-.88-1.34-.38-2.73-.88-4.18-1.39-.7-.31-1.4-.63-2.12-.95-.72-.32-1.45-.63-2.14-1.04-.7-.39-1.41-.78-2.12-1.18-.71-.39-1.37-.87-2.06-1.3-1.39-.85-2.65-1.88-3.94-2.84-.63-.49-1.23-1.02-1.82-1.52-.6-.51-1.18-1.01-1.72-1.55-.55-.52-1.09-1.04-1.62-1.54-.5-.53-1-1.05-1.47-1.56-.96-1.01-1.81-2.02-2.58-2.95-.77-.94-1.45-1.82-2.02-2.62-.59-.79-1.07-1.51-1.47-2.09-.19-.29-.36-.56-.51-.78-.15-.24-.27-.44-.37-.61-.19-.32-.29-.49-.29-.49-.15-.26-.07-.59.19-.75.24-.14.55-.08.71.14h0Z"/>
              <path class="cls-90" d="M267,138.66c-.41-.8-3.07-1.69-5.55.08-2.33,1.66-2.7,4.7-2.06,5.39.75.81,1.42-.54,3.48-1.78,2.6-1.56,5.11-1.78,4.13-3.69Z"/>
              <path class="cls-90" d="M283.76,136.7c.02-.9,2.04-2.85,5.04-2.32,2.82.49,4.46,3.08,4.19,3.97-.33,1.06-1.51.12-3.9-.1-3.02-.28-5.37.6-5.32-1.54Z"/>
            </g>
            <g>
              <path class="cls-27" d="M218.21,78.57c-.22,0-.42-.14-.49-.36-.06-.2-6.38-20.01-12.5-22.58-.26-.11-.39-.41-.28-.68.11-.26.41-.39.68-.28,6.56,2.75,12.83,22.39,13.09,23.22.09.27-.07.56-.34.65-.05.02-.1.02-.16.02Z"/>
              <path class="cls-104" d="M187.3,55.56s-.12.04-.34.12c-.22.08-.54.2-.99.3-.44.11-.97.24-1.59.4-.62.18-1.31.25-2.07.37-.76.11-1.58.23-2.45.35-.87.13-1.79.13-2.75.18-.95.04-1.94.08-2.94.12l-.75.02h-.19s-.21,0-.21,0h-.37c-.49-.02-1.02-.05-1.56-.1-1.06-.12-2.13-.29-3.2-.72-.54-.19-1.06-.53-1.54-.92-.47-.43-.85-.98-1.07-1.55-.23-.58-.28-1.14-.3-1.66,0-.26,0-.51.02-.75v-.18s.02-.12.02-.12v-.02s.01-.04.01-.04l.02-.08.06-.32c.21-.68.49-1.16.87-1.52.36-.38.79-.66,1.23-.85.87-.39,1.9-.38,2.66.05.77.43,1.08,1.12,1.27,1.61.14.51.18.9.17,1.16,0,.26.01.4.01.4,0,.3-.23.55-.52.56-.27,0-.5-.18-.55-.44l-.02-.08s-.02-.11-.06-.32c-.02-.1-.03-.23-.07-.37-.05-.13-.11-.29-.16-.46-.16-.3-.38-.63-.72-.76-.34-.14-.82-.1-1.31.14-.24.13-.48.3-.66.53-.21.21-.29.51-.36.64l-.04.32v.08s-.02.04-.02.04v.02c-.01.09,0-.11,0-.09h0s0,.16,0,.16c0,.21,0,.4.02.6.04.38.1.75.23,1.05.13.3.32.54.57.77.28.2.59.41.99.54.77.3,1.71.46,2.64.55.46.03.93.08,1.44.09h.37s.16.02.16.02h.18s.73-.02.73-.02c.98-.01,1.94-.03,2.87-.04.93-.03,1.83.03,2.68-.04.85-.06,1.65-.12,2.39-.18.74-.07,1.43-.07,2.01-.17.59-.08,1.1-.15,1.53-.2.42-.05.77-.11,1-.16.23-.04.36-.07.36-.07h.01c.3-.06.58.14.64.43.05.27-.11.53-.36.62Z"/>
              <path class="cls-104" d="M191.64,54.51s.12.02.36.07c.23.05.58.11,1,.16.42.06.94.12,1.53.2.58.1,1.27.1,2.01.17.74.05,1.54.11,2.39.18.85.06,1.75,0,2.68.04.93.01,1.89.02,2.87.04l.73.02h.18s.16,0,.16,0h.37c.51-.02.98-.07,1.44-.11.93-.09,1.87-.25,2.64-.55.4-.14.71-.34.99-.54.25-.22.44-.47.57-.77.13-.3.19-.66.23-1.05.02-.19.03-.39.02-.6v-.15s0,0,0,0c0-.02.02.17,0,.09v-.02s0-.04,0-.04v-.08s-.05-.32-.05-.32c-.07-.13-.15-.44-.36-.64-.18-.22-.42-.4-.66-.53-.49-.24-.98-.28-1.32-.14-.35.13-.56.47-.72.76-.05.17-.11.32-.16.46-.04.14-.05.27-.07.37-.04.21-.06.32-.06.32l-.02.08c-.05.29-.34.49-.63.43-.27-.05-.45-.29-.44-.55,0,0,0-.14.01-.4,0-.26.03-.65.17-1.16.19-.49.49-1.17,1.27-1.61.76-.43,1.78-.43,2.66-.05.44.2.86.47,1.23.85.38.36.66.84.87,1.52l.06.32.02.08v.04s.01.02.01.02v.12s.02.18.02.18c.02.24.02.49.02.75-.02.52-.08,1.09-.3,1.66-.22.58-.6,1.12-1.07,1.55-.48.39-1,.73-1.54.92-1.07.43-2.14.6-3.2.72-.54.05-1.08.09-1.56.09h-.37s-.21.02-.21.02h-.19s-.75-.03-.75-.03c-1-.04-1.99-.08-2.94-.12-.95-.05-1.88-.05-2.75-.18-.87-.13-1.69-.24-2.45-.35-.76-.11-1.45-.19-2.07-.37-.61-.15-1.15-.29-1.59-.4-.44-.1-.77-.22-.99-.3-.22-.08-.34-.12-.34-.12-.28-.1-.43-.41-.33-.69.09-.26.36-.41.62-.36h.01Z"/>
              <rect class="cls-48" x="186.6" y="51.59" width="5.92" height="326.76"/>
              <path class="cls-36" d="M186.6,55.82s-1.71-11.68-.4-12.8c1.05-.89,5.65-1.2,6.86.12,1.21,1.33-.54,12.63-.54,12.63,0,0-3.23,2.03-5.92.04Z"/>
              <g>
                <path class="cls-103" d="M178.7,139.02c-2.59,1.3-1.78,29.92-.5,31.31,1.49,1.61,22.16,2.86,23.73-.87.99-2.36,1.74-29.94-1.74-30.69-3.48-.75-19.01-.99-21.49.25Z"/>
                <path d="M182.8,141.62h13.91c1.1,0,1.99.89,1.99,1.99v7.21c0,1.1-.89,1.99-1.99,1.99h-13.91c-1.1,0-1.99-.89-1.99-1.99v-7.21c0-1.1.89-1.99,1.99-1.99Z"/>
                <rect class="cls-8" x="180.9" y="155.21" width="4.23" height="2.89" rx=".85" ry=".85"/>
                <rect class="cls-8" x="187.94" y="155.21" width="4.23" height="2.89" rx=".85" ry=".85"/>
                <rect class="cls-8" x="194.26" y="155.21" width="4.23" height="2.89" rx=".85" ry=".85"/>
                <rect class="cls-8" x="180.9" y="160.06" width="4.23" height="2.89" rx=".85" ry=".85"/>
                <rect class="cls-8" x="187.94" y="160.06" width="4.23" height="2.89" rx=".85" ry=".85"/>
                <rect class="cls-8" x="194.26" y="160.06" width="4.23" height="2.89" rx=".85" ry=".85"/>
                <rect class="cls-8" x="180.9" y="164.9" width="4.23" height="2.89" rx=".85" ry=".85"/>
                <rect class="cls-8" x="187.94" y="164.9" width="4.23" height="2.89" rx=".85" ry=".85"/>
                <rect class="cls-8" x="194.26" y="164.9" width="4.23" height="2.89" rx=".85" ry=".85"/>
              </g>
              <path class="cls-27" d="M194.35,79.18s.33-1.75.95-4.34c.6-2.6,1.57-6.02,2.67-9.42.55-1.7,1.2-3.36,1.87-4.91.68-1.54,1.39-2.96,2.18-4.12.42-.57.83-1.09,1.34-1.48.11-.11.27-.18.4-.26.13-.08.27-.16.43-.2.17-.04.27-.1.48-.11.11,0,.21,0,.31,0,.55.08.84.34,1,.53.16.2.21.35.21.35,0,0-.16.06-.38.11-.22.04-.53.13-.75.17-.1.02-.2.04-.3.05-.05.02-.11.04-.16.06-.07,0-.14.05-.22.11-.08.06-.16.08-.25.17-.35.27-.7.72-1.05,1.23-.69,1.05-1.35,2.42-1.98,3.93-.63,1.51-1.19,3.18-1.76,4.84-1.15,3.33-2.07,6.73-2.82,9.28-.7,2.55-1.17,4.25-1.17,4.25-.07.28-.36.44-.63.36-.26-.07-.42-.33-.37-.59Z"/>
            </g>
            <g>
              <path class="cls-77" d="M186.33,205.8s15.35,10.49,18.76,12.08l.13.09c-.5.71-.89,1.17-1.07,1.2-1.48.27-16.84-10.22-20.01-12.48-1.42-1,1.61-5.47,2.51-5.8.81-.3,1.83-.5,2.98-.59v.05s-2.94,2.92-3.31,5.46Z"/>
              <path class="cls-77" d="M212.06,221.78c.39.61,20.54,14.7,27.86,20.58l.3.18c-.43.74-.8,1.17-.8,1.17l-30.31-21.45s4.8-10.02,6.48-9.76c.48.07.93.16,1.4.27l-.09.42c-.57.82-5.34,7.81-4.83,8.59Z"/>
              <path class="cls-77" d="M190.79,195.2c7.89.45,21.24,2.98,35.87,13.4,19.29,13.74,26.54,39.17,25.21,46.46-.78,4.31-5.89,14.64-6.76,15.7-.86,1.07-2.61-.09-2.61-.09,0,0,5.43-7.97,7.15-16.18,1.71-8.21-8.96-34.62-27.91-47.32-12.37-8.3-23.75-11.24-30.94-11.98Z"/>
              <path class="cls-95" d="M221.73,207.17c18.95,12.7,29.62,39.11,27.91,47.32-1.72,8.21-7.15,16.18-7.15,16.18l-69.41-49.98s7.45-24.24,10.28-25.3c0,0,2.76-.47,7.43-.19,7.19.74,18.57,3.68,30.94,11.98ZM240.22,242.55c.71-1.2,1.53-3.2,1.03-5.37-1.19-5.24-9.88-21.27-24.27-24.4-.47-.11-.92-.2-1.4-.27-1.68-.26-6.48,9.76-6.48,9.76l30.31,21.45s.38-.44.8-1.17ZM205.22,217.97c1.7-2.39,4.59-7.54,4.44-7.96-2.45-7.36-13.42-10.26-20.03-9.71-1.15.09-2.17.29-2.98.59-.9.34-3.94,4.8-2.51,5.8,3.17,2.27,18.53,12.75,20.01,12.48.18-.03.58-.5,1.07-1.2Z"/>
            </g>
            <path class="cls-95" d="M301.59,266.62l.93-15.46-.18-.4c-10.16-.09-19.6.33-22.57,1.44-2.21.83-2.74,11.13-1.92,11.71.27.19,10.06,1.31,23.28,2.68l.46.03ZM341.64,270.55l1.08-16.92v-.06c-5.76-.64-12.16-1.26-19.01-1.88-4.64-.41-10.47-.71-16.35-.84l-.02.19-.94,15.57-.03.52c11.08,1.14,23.81,2.38,35.17,3.41h.1ZM346.41,270.96c14.59,1.28,25.93,2.08,26.75,1.6,2.37-1.4.99-13.21-.76-14.05-2.72-1.32-11.62-2.82-24.45-4.34l-.39.14-1.12,16.38-.03.28ZM378.51,255.94c2.77,3.95,1.74,37.21,1.74,37.21,0,0-11.54-.97-28.92-2.66.1-1.78.53-10.77-1.21-12.66-3.08-3.34-48.27-6.28-51.32-5-2.04.85-2.27,11.31-2.27,11.31l-.06.5c-9.05-1.07-18.23-2.22-27.22-3.42,0,0,.56-30.84,6.12-33.4,5.57-2.55,28.07-3.12,47.13-1.73,26.53,1.94,53.22,5.89,56.01,9.85Z"/>
            <g>
              <path class="cls-78" d="M458,364.48c-17.92,7.89-39.39,16.7-46.47,16.97,0,0-.44-27.85-.74-49.2h.07l80.46-35.79c-2,24.19-6.24,55.67-6.24,55.67,0,0-12.34,5.86-27.07,12.35ZM470.83,348.81c.5-1.49,2.81-33.88.33-34.13-2.48-.25-32.8,12.84-33.05,15.33,0,0-1.74,31.56,1.24,31.56s30.98-11.26,31.48-12.75Z"/>
              <path class="cls-50" d="M418.58,316.97c.41,1.87,1.04,3.18,1.89,3.1,2.49-.25,27.08-11.18,34.04-16.15,2.03-1.45-1.24-21.37-3.98-20.87-.47.09-1.49.51-2.91,1.2-6.83,3.35-22.68,13.01-28.64,21.66-1.13,1.65-1.2,7.41-.4,11.06ZM462.24,279.47c-3.52,1.13-5.99,2.09-5.99,2.09,2.68,4.34,3.94,11.94,4.48,16.55.16,1.37.26,2.47.32,3.16,0,0,25.26-10.02,26.01-11.01.75-.99,2.25-12.52-4.47-14.16-.45-.11-.94-.18-1.46-.23-5.03-.46-13.28,1.8-18.88,3.61ZM488.8,268.71c.93.07,1.69.21,2.24.43,1.87.75,1.49,12.7.28,27.32l-80.46,35.79h-.07c-.15-10.67-.26-19.72-.26-22.86,0-9.44,27.33-26.84,40.25-32.3,11.5-4.87,30.48-8.94,38.02-8.38Z"/>
              <path class="cls-104" d="M482.59,276.09c6.72,1.64,5.22,13.17,4.47,14.16-.75.99-26.01,11.01-26.01,11.01-.06-.69-.16-1.79-.32-3.16l23.1-8.85c.52-2.22.49-4.26.18-6.03-.71-4.18-2.91-6.89-2.91-6.89l.03-.48c.53.05,1.01.12,1.46.23Z"/>
              <path class="cls-104" d="M450.54,283.05c2.73-.5,6,19.42,3.98,20.87-6.96,4.97-31.56,15.9-34.04,16.15-.84.08-1.48-1.23-1.89-3.1,15.57-5.5,33.44-15.78,33.44-15.78.5-5.96-3.98-16.9-3.98-16.9l-.43-.04c1.42-.7,2.45-1.11,2.91-1.2Z"/>
              <path class="cls-104" d="M441.17,276.66c11.19-5.55,32.83-11.4,47.63-7.95-7.53-.57-26.52,3.51-38.02,8.38-12.92,5.47-40.25,22.86-40.25,32.3,0,3.14.11,12.19.26,22.86.3,21.35.74,49.2.74,49.2-.92.04-3.1-.11-6.32-.4l.03-.27s.28-15.93.51-32.95c.24-18.13.43-37.48.15-40.1-.36-3.38,6.4-15.67,33.96-30.39.42-.23.86-.45,1.32-.67Z"/>
              <path class="cls-33" d="M471.16,314.68c2.48.25.17,32.64-.33,34.13-.5,1.49-28.49,12.75-31.48,12.75s-1.24-31.56-1.24-31.56c.25-2.48,30.56-15.57,33.05-15.33Z"/>
              <path class="cls-83" d="M484.01,283.23c.31,1.77.34,3.82-.18,6.03l-23.1,8.85c-.55-4.61-1.8-12.21-4.48-16.55,0,0,2.47-.95,5.99-2.09,10.81,1.56,18.43,2.87,21.34,3.83l.43-.07Z"/>
              <path class="cls-64" d="M481.92,363.23c1.71,1.02.67,16.48.17,17.22-.32.47-3.39,2.39-8.14,5.11-2.43,1.4-5.3,3.02-8.47,4.76-4.24,2.34-9.02,4.91-13.96,7.51-9.82,5.16-20.33,10.44-28.81,14.26l.25-25.81c1.33-.5,2.17-.83,2.17-.83l56.8-22.23Z"/>
              <path class="cls-62" d="M422.96,386.28c-3.97,1.5-12.29,4.52-15.41,4.77-3.53.28-7.17-.04-10.92-.52-.66-.09-1.32-.18-1.99-.27l-13.99-11.94c10.63,1.26,19.1,2.21,24.56,2.71,3.22.29,5.4.44,6.32.4,7.09-.27,28.56-9.07,46.47-16.97,3.98-.4,22.45-2.14,23.92-1.25l-56.8,22.23s-.83.33-2.17.83Z"/>
              <path class="cls-49" d="M473.97,385.59s2.16,6.46,1.83,13.58c-.2,4.14-2.16,13.59-13.09,14.08-.61.03-1.17,0-1.71-.06,8.17-3.75,4.52-22.8,4.52-22.8l-.04-.07c3.17-1.74,6.04-3.36,8.47-4.76l.02.03Z"/>
              <path class="cls-58" d="M465.52,390.39s4.22,20.6-4.52,22.8c-9.24-1.13-9.39-15.18-9.39-15.18l-.09-.18c4.95-2.6,9.72-5.18,13.96-7.51l.04.07Z"/>
              <path class="cls-83" d="M448.05,284.29s4.47,10.93,3.98,16.9c0,0-17.87,10.29-33.44,15.78-.8-3.65-.73-9.41.4-11.06,5.96-8.65,21.82-18.31,28.64-21.66l.43.04Z"/>
              <path class="cls-34" d="M437.68,276.35l.02-.13c1.17.15,2.33.29,3.47.44-.46.23-.9.45-1.32.67-27.56,14.72-34.32,27.01-33.96,30.39.28,2.62.09,21.98-.15,40.1h-.51s-241.19-28.5-241.19-28.5c-.77-.46-7.19-4.15-11.96-6.91l.03-.05c4.33-.46,10.76-8.67,11.79-10,16.89-1.27,35.09-9.05,35.09-9.05,0,0,4.8.17,7.61-1.82,2.82-1.99,6.3-4.3,6.3-4.3,0,0,6.13-3.03,5.91-4.64-.07-.52-.76-.83-1.98-.67v-.08c3.1-.44,4.09-1.99,4.15-3.23.06-1.11-2.97-.44-4.91-.04,2.56-.67,3.41-3.17,2-3.56,0,0-3.61-.21-8.58,1.19-.85.24-1.73.62-2.57,1.04l-.04-.07s2.21-2.42-.43-2.11c-3.23.37-8.72,5.2-8.72,5.2-4.07,0-10.86.37-17.68.82.64-1.15,3.63-6.01,10.8-9.93,6.41-3.5,11.75-7.3,14.13-11.51l-.47-.17s-.65-1.9-1.65-4.3c.69-.63,5.35-4.44,13.58-2.16,8.95,2.48,20.13,4.47,27.08,4.22,3.24-.12,9.71-.87,17.07-1.39,8.4-.61,17.96-.9,25.18.4,3.6.65,10.65,2.74,18.72,5.18,14.62,4.39,32.59,9.9,39.42,9.9,18.22,0,40.25,1.32,57.15,4.3,16.9,2.98,15.9,1.99,15.9,1.99,0,0,7.47-2.71,20.69-1.23Z"/>
              <path class="cls-12" d="M195.04,301.09c4.03-3.13,8.33-3.78,12.49-7.11,6.79-6.79,9.84-8,11.74-9.38,1.34-.98.93-2.24,1.68-3.6.62-1.24.48-1.45-.05-1.83-.32,1.1-1.42,2.27-4.06,2.64v.08c1.23-.16,1.92.15,1.99.67.22,1.61-5.91,4.64-5.91,4.64,0,0-3.48,2.32-6.3,4.3-2.81,1.99-7.61,1.82-7.61,1.82,0,0-18.21,7.78-35.09,9.05-.57.75-2.85,3.66-5.51,6.15,12.25.33,24.27-5.39,36.64-7.43Z"/>
              <path class="cls-83" d="M437.7,276.22l-.02.13c-13.22-1.48-20.69,1.23-20.69,1.23,0,0,.99.99-15.9-1.99-16.9-2.98-38.93-4.3-57.15-4.3-6.83,0-24.8-5.51-39.42-9.9-8.07-2.44-15.13-4.53-18.72-5.18-7.22-1.3-16.78-1-25.18-.4-7.35.52-13.83,1.27-17.07,1.39-6.96.25-18.14-1.74-27.08-4.22-8.23-2.29-12.89,1.53-13.58,2.16,1,2.4,1.65,4.3,1.65,4.3l.47.17c-2.39,4.21-7.72,8.01-14.13,11.51-7.18,3.92-10.17,8.78-10.8,9.93,6.82-.45,13.61-.82,17.68-.82,0,0,5.49-4.83,8.72-5.2,2.63-.31.43,2.11.43,2.11l.04.07c.84-.43,1.72-.81,2.57-1.04,4.97-1.4,8.58-1.19,8.58-1.19,1.41.39.57,2.88-2,3.56,1.94-.4,4.97-1.07,4.91.04,0,.19-.05.39-.11.59.53.38.79.88.79,1.4,1.99,7.95-7.95,9.94-12.92,14.91-4.16,3.33-9.7,2.49-13.73,5.62,1.92-.32,3.84-.55,5.78-.65-1.94.1-3.86.33-5.78.65-.79.61-1.52,1.36-2.17,2.33.65-.97,1.39-1.72,2.17-2.33-12.37,2.04-24.39,7.76-36.64,7.43-2.07,1.95-4.38,3.64-6.28,3.84l-.03.05c4.77,2.75,11.19,6.45,11.96,6.91l241.19,28.49h.51c.24-18.12.43-37.47.15-40.09-.36-3.38,6.4-15.67,33.96-30.39.42-.23.86-.45,1.32-.67-1.14-.15-2.3-.29-3.47-.44Z"/>
              <path class="cls-52" d="M437.7,276.22l-.02.13c-13.22-1.48-20.69,1.23-20.69,1.23,0,0,.99.99-15.9-1.99-16.9-2.98-38.93-4.3-57.15-4.3-6.83,0-24.8-5.51-39.42-9.9,41.87,4.31,95.36,10.08,133.18,14.83Z"/>
              <path class="cls-47" d="M422.96,386.28l-.25,25.81c-7.35,3.33-13.18,5.55-15.65,5.62-.8.03-4.57-.41-10.68-1.21l.25-25.87v-.1c3.77.48,7.41.79,10.93.52,3.11-.25,11.44-3.27,15.41-4.77Z"/>
              <path class="cls-89" d="M136.18,339.21l-9.75-8.7c-.34-7.01-1-12.59-2.15-13.51-3.31-2.65-14.91-9.61-16.9-8.29-.37.25-.38,1.99-.14,4.7l-71.42-63.67c-1.37-.99,2.65-22.28,3.6-22.61l18.6,12.67c4.63,3.51,25.47,19.83,45.8,35.78,21.79,17.11,43,33.79,43,33.79,0,0,2.33,1.33,5.27,3.03,4.77,2.75,11.19,6.45,11.96,6.91l241.19,28.49h.51c-.23,17.03-.51,32.96-.51,32.96l-.03.27c-5.46-.51-13.93-1.45-24.56-2.71-7.59-.9-16.28-1.98-25.75-3.14-52.13-6.52-127.66-16.58-172.27-22.57-8.44-1.12-15.77-2.11-21.63-2.89-9.67-1.31-15.34-2.08-15.34-2.08l-9.47-8.44Z"/>
              <path class="cls-93" d="M176.07,358.69c57.76,8.34,137.34,20,186.63,27.06,13.12,1.88,24.08,3.43,31.93,4.51.67.09,1.33.18,1.99.27v.1s-.26,25.87-.26,25.87c-2.39-.32-5.13-.69-8.2-1.1-2.65-.37-5.56-.78-8.68-1.21-4.35-.62-9.14-1.29-14.29-2.03-58.91-8.47-165.24-24.54-222.36-33.59-4.5-.71-8.69-1.38-12.53-2-5.57-.89-10.4-1.69-14.33-2.35-7.38-1.24-11.66-2.03-11.9-2.23-1.99-1.66-.91-21.62.66-23.19.09-.09,3,.26,8.19.94,1.36,7.48,2.42,12.97,2.42,12.97,0,0,8.94,2.32,10.27.66.44-.54.79-5.38.97-11.75,5.97.82,13.01,1.82,20.87,2.95,8.64,1.23,18.28,2.61,28.61,4.1Z"/>
              <path class="cls-101" d="M380.64,378.33l13.99,11.94c-7.85-1.08-18.81-2.63-31.93-4.51l-7.81-10.57c9.47,1.16,18.16,2.24,25.75,3.14Z"/>
              <path class="cls-49" d="M388.17,415.41c7.12,4.14,5.13,19.87.67,23.68-5.17,4.41-16.3,4.51-16.3,4.51v-.06c.28,0,.55-.01.83-.04,6.63-.61,9.67-8.22,9.51-17.5-.09-4.71-.79-9.03-3.38-11.81,3.12.44,6.02.84,8.68,1.21Z"/>
              <path class="cls-58" d="M379.49,414.19c-4.35-.62-9.14-1.29-14.29-2.03-3.42,2.4-5.9,10.18-5.37,16.07.81,8.67,6.39,15.32,12.7,15.31.28,0,.55-.01.83-.04,6.63-.61,9.67-8.22,9.51-17.5-.09-4.71-.79-9.03-3.38-11.81Z"/>
              <path class="cls-108" d="M370.11,418.75c2.12.06,3.73,3.53,3.62,7.74-.11,4.22-1.92,7.59-4.03,7.53-2.11-.05-3.73-3.52-3.62-7.73.12-4.22,1.92-7.59,4.02-7.54Z"/>
              <path class="cls-62" d="M354.89,375.19l7.81,10.57c-49.3-7.07-128.88-18.73-186.63-27.06l6.53-5.9.02-.17c44.62,5.99,120.14,16.05,172.27,22.57Z"/>
              <path class="cls-69" d="M225.14,245.57c12.49,3.66,33.44,6.87,35.48,10.25-7.35.52-13.83,1.27-17.07,1.39-6.96.25-18.14-1.74-27.08-4.22-8.23-2.29-12.89,1.53-13.58,2.16-1.31-3.15-3.22-7.18-5.06-8.87-.58-.53-1.44-1.13-2.48-1.76,2.15-4.31,2.92-9.15,3.19-11.91h.03c10.79,5.28,21.37,11.18,21.37,11.18,1.44.61,3.21,1.19,5.19,1.78Z"/>
              <path class="cls-69" d="M163.9,302.37c-7.38.56-14.5-.13-19.74-3.25-8.74-5.21-9.44-21.37-9.44-21.37l.04-.12c5.21,1.91,14.05,4.13,22.77,1.6l.05.17s-.08,3.19.91,3.15c2.37-.1,12.01-.87,21.58-1.5,6.82-.45,13.61-.82,17.68-.82,0,0,5.49-4.83,8.72-5.2,2.63-.31.43,2.11.43,2.11l.04.07c.84-.43,1.72-.81,2.57-1.04,4.97-1.4,8.58-1.19,8.58-1.19,1.41.39.57,2.88-2,3.56,1.94-.4,4.97-1.07,4.91.04-.06,1.24-1.05,2.79-4.16,3.23v.08c1.23-.16,1.92.15,1.99.67.22,1.61-5.91,4.64-5.91,4.64,0,0-3.48,2.32-6.3,4.3-2.81,1.99-7.61,1.82-7.61,1.82,0,0-18.21,7.78-35.09,9.05Z"/>
              <path class="cls-52" d="M225.14,245.57c-1.98-.59-3.75-1.17-5.19-1.78,0,0-10.58-5.9-21.37-11.18h-.03c.14-1.37.15-2.22.15-2.22-.59-.29-1.16-.56-1.75-.82l.03-.06c-.37-2.5-.83-4.95-1.34-7.33,4.05,3.29,18.41,14.94,29.5,23.4Z"/>
              <path class="cls-30" d="M157.53,279.23c-8.72,2.53-17.56.31-22.77-1.6-2.9-1.06-4.68-2.04-4.68-2.04,0,0,.42-2.72,1.26-6.57,1.19-5.37,3.22-12.92,6.11-18.28,2.22-4.09,5.27-6.51,7.97-7.93.39.44,7.02,7.78,17.62,2.96,9.44-4.29,7.76-12.28,7.13-14.39,2.6-1.97,6.22-4.12,10.38-4.99.46-.1.91-.19,1.38-.25,4.08-.55,9.51.92,15.02,3.42.59.27,1.16.54,1.75.82,0,0-.01.85-.15,2.22-.27,2.75-1.04,7.59-3.19,11.91,1.03.63,1.9,1.23,2.48,1.76,1.84,1.69,3.75,5.71,5.06,8.87,1,2.4,1.65,4.3,1.65,4.3l.47.17c-2.39,4.21-7.72,8.01-14.13,11.51-7.18,3.92-10.17,8.78-10.8,9.93-9.57.63-19.21,1.4-21.58,1.5-.99.04-.91-3.15-.91-3.15l-.05-.17Z"/>
              <path class="cls-17" d="M175.92,278.48c-4.83.39-9.71-.03-14.43-1.58-1.99-4.26-3.3-8.9-3.97-13.45-.15,4.06.93,8.12.68,12.18-.07,1.22-.26,2.44-.64,3.66l.03.1s-.08,3.19.91,3.15c.95-.04,3.1-.19,5.93-.4,4.2-.3,9.93-.73,15.65-1.1.3-.55,1.14-1.93,2.7-3.65,1.72-1.91,4.33-4.22,8.11-6.28,3.67-2,6.98-4.1,9.59-6.32-9.02,4.06-17.77,5.99-24.55,13.68Z"/>
              <path class="cls-37" d="M195.64,222.17c.52,2.39.97,4.83,1.34,7.33l-.03.06c-5.51-2.49-10.93-3.97-15.02-3.42-.47.06-.92.15-1.38.25-.97-2.94-3.66-11.71-6.26-20.32-3.06-10.08-6.02-19.94-6.02-19.94,1.91-.68,2.35-2.26,1.98-3.78,4.74-.57,6.31-3.53,4.33-5.39,2.07-1.22,2.23.46,2.71.88,0,0,12.83,18.59,18.35,44.31Z"/>
              <path class="cls-101" d="M182.62,352.62l-.02.17-6.53,5.9c-10.34-1.49-19.98-2.87-28.61-4.1l.02-.15,13.52-4.71c5.85.78,13.19,1.77,21.63,2.89Z"/>
              <path class="cls-28" d="M170.18,231.39c-2.75,2.08-4.39,3.96-4.39,3.96l-3.96-6.27c10.38-5.54,12.43-15.61,12.16-20.89-.04-.63-.16-1.26-.37-1.89l.68-.21c2.6,8.61,5.29,17.37,6.26,20.32-4.15.86-7.77,3.02-10.38,4.99Z"/>
              <path class="cls-28" d="M174.29,206.08l-.68.21c-1.39-4.38-6.26-8.39-6.26-8.39,0,0-3.14-8.95-3.98-10.76v-.27c1.47.03,3.2-.13,4.89-.73,0,0,2.96,9.86,6.02,19.94Z"/>
              <path class="cls-69" d="M165.78,235.34l-3.96-6.27c10.38-5.54,12.43-15.61,12.16-20.89-.04-.63-.16-1.26-.37-1.89-1.39-4.38-6.26-8.39-6.26-8.39,0,0-3.14-8.95-3.98-10.76v-.27c-2.12-.03-3.7-.45-3.8-.47.14.13,1.68,1.61.24,2.48-4.1,2.46-22.27,4.41-33.24-.31.44,1.55,3.13,12.49-3.54,27.01,0,0-4.22-3.72-8.58-.37-1.67,1.28-1.87,4.35-.87,7.31,1.61,4.74,6.31,9.21,13.05,5.62,0,0,8.37,5.43,20.74,4.71h0s4.22,7.96,4.22,7.96c0,0-2.82.23-6.19,2.01.39.44,7.02,7.78,17.62,2.96,9.44-4.29,7.76-12.28,7.13-14.39-2.75,2.08-4.39,3.96-4.39,3.96Z"/>
              <path class="cls-19" d="M164.06,232.61l-2.23-3.54c-1.98,1.06-4.26,1.96-6.9,2.62-2.64.67-5.16,1.02-7.53,1.15h0s.92,1.74.92,1.74c5.42.95,10.78.19,15.75-1.98Z"/>
              <path class="cls-62" d="M160.99,349.73l-13.52,4.71-.02.15c-7.86-1.13-36.82-4.81-42.8-5.63.25-1.74,18.39-5.28,22.04-6.85l9.48-2.89,9.47,8.44s5.67.76,15.34,2.08Z"/>
              <path class="cls-52" d="M131.06,269.27c.1-.08.2-.16.29-.25-.84,3.85-1.26,6.57-1.26,6.57,0,0,1.78.97,4.68,2.04l-.04.12s.71,16.16,9.44,21.37c5.24,3.12,12.36,3.81,19.74,3.25-1.02,1.33-7.45,9.54-11.79,10l-.03.05c-2.94-1.7-5.27-3.03-5.27-3.03,0,0-21.21-16.68-43-33.79l.43-.55c1.21.95,2.13,1.47,2.64,1.54,3.42.49,17.1-1.26,24.16-7.32Z"/>
              <path class="cls-28" d="M174.58,176.98h-.01c-.44-.42-1.04-.77-1.83-1.02-1.7-.57-5.47-3.23-14.41-8.45-15.79-9.21-31.31-2.73-39.01,1.74-7.7,4.47-7.45,15.16-7.45,15.16,0,0-4.78,1.65-7.23,6.56-.56,1.11-.99,2.4-1.22,3.88-.53,3.36,3.21,15.02,8.18,28.28,6.79,18.13,15.87,39.24,19.46,46.16.1-.08.2-.16.29-.25,1.19-5.37,3.22-12.92,6.11-18.28,2.22-4.09,5.27-6.51,7.97-7.93,3.37-1.78,6.19-2.01,6.19-2.01l-4.22-7.95h0c-12.37.71-20.74-4.72-20.74-4.72-6.74,3.6-11.44-.87-13.05-5.62-1-2.95-.81-6.02.87-7.31,4.35-3.35,8.58.37,8.58.37,6.67-14.52,3.98-25.46,3.54-27.01,10.96,4.72,29.13,2.77,33.24.31,1.44-.86-.1-2.35-.24-2.48.1.02,1.68.44,3.81.47,1.46.03,3.19-.13,4.88-.73,1.91-.68,2.35-2.26,1.98-3.78,4.74-.57,6.31-3.53,4.33-5.39Z"/>
              <path class="cls-49" d="M142.84,378.57c3.45,3.43,2.48,19.44-4.14,23.74-7.12,4.63-17.39,2.81-17.39,2.81v-.06c.28.03.55.04.82.04,6.67,0,12.07-7.36,12.07-16.44,0-4.78-1.5-9.08-3.89-12.1,3.85.62,8.03,1.29,12.53,2Z"/>
              <path class="cls-86" d="M126.43,330.52c-.34-7.01-1-12.59-2.15-13.51-3.31-2.65-14.91-9.61-16.9-8.29-.37.25-.38,1.99-.14,4.7.64,7.32,3.06,21.72,5.09,33.07.2,1.12.4,2.22.59,3.27,1.36,7.48,2.42,12.97,2.42,12.97,0,0,8.94,2.32,10.27.66.44-.54.79-5.38.97-11.75.08-2.94.12-6.21.12-9.53-.01-3.94-.1-7.95-.27-11.59Z"/>
              <path class="cls-58" d="M130.31,376.57c-5.57-.89-10.4-1.69-14.33-2.35l-.06.35c-3.51,2.88-5.85,8.11-5.85,14.09,0,8.7,4.97,15.82,11.25,16.4.27.03.54.04.82.04,6.67,0,12.07-7.36,12.07-16.44,0-4.78-1.5-9.08-3.89-12.1Z"/>
              <path class="cls-108" d="M121.88,382.11c2.2,0,3.98,3.56,3.98,7.95s-1.78,7.95-3.98,7.95-3.98-3.57-3.98-7.95,1.78-7.95,3.98-7.95Z"/>
              <path class="cls-37" d="M111.6,223.12c6.79,18.13,15.87,39.24,19.46,46.16-7.07,6.05-20.74,7.8-24.16,7.32-5.47-52.68-27.33-68.91-27.33-68.91-1.59-1.03-2.34-.32-2.68.51-.19-2.68-2.08-5.24-1.41-6.14.68-.93,1.88-.54,3.48-1.37,6.42-3.35,15.46-6.71,25.48-9.81l.21.1c-.56,1.11-.99,2.4-1.22,3.88-.53,3.36,3.21,15.02,8.18,28.28Z"/>
              <path class="cls-76" d="M105.4,175.21c2.24-.75,5.08,6.34,4.22,6.96-1.74,1.24-6.46-6.21-4.22-6.96Z"/>
              <path class="cls-106" d="M106.89,276.59c-.52-.07-1.43-.59-2.64-1.54-6.69-5.3-22.17-24.08-26.42-56.27-.45-3.34-.76-6.83-.94-10.46,0-.04,0-.09-.01-.13.35-.83,1.09-1.54,2.68-.51,0,0,21.87,16.23,27.33,68.91Z"/>
              <path class="cls-52" d="M104.25,275.05l-.43.55c-20.33-15.95-41.17-32.27-45.8-35.78l-18.6-12.67c18.76-6.46,37.15-8.2,37.15-8.2l1.25-.17c4.24,32.19,19.73,50.98,26.42,56.27Z"/>
              <path class="cls-76" d="M108.71,183.66c-1.49,1.74-7.95,2.48-7.7.25.25-2.24,7.7-.25,7.7-.25Z"/>
            </g>
            <path class="cls-92" d="M140.55,244.33h0c-2.13,0-3.52-.55-4.03-1.59-.24-.48-.13-.83,0-1.04.28-.45.89-.65,1.99-.65,2.55,0,7.03,1.12,7.21,1.17.18.05.33.19.37.37.05.18,0,.38-.15.51-.68.64-3.26,1.23-5.4,1.23ZM138.51,242.08c-.93,0-1.12.17-1.12.17.37.67,1.51,1.03,3.16,1.03,1.23,0,2.46-.2,3.36-.43-1.54-.33-3.88-.78-5.4-.78Z"/>
            <path class="cls-92" d="M145.82,243.2s-.02,0-.04,0c-1.2-.08-4.29-2.39-5.59-4.43-.66-1.04-.85-1.96-.55-2.73.25-.65.74-.72.94-.72,1.63,0,4.52,4.98,5.69,7.12.09.17.08.37-.02.53-.1.15-.26.24-.43.24ZM140.58,236.35c-.19.62.15,1.35.48,1.87.84,1.32,2.39,2.61,3.53,3.34-1.71-2.91-3.44-5.19-4.01-5.21Z"/>
            <path class="cls-94" d="M412.18,332.1c-.2,0-.39-.11-.47-.31-.12-.26,0-.57.26-.68l78.52-34.95c.26-.11.56,0,.68.26.12.26,0,.57-.26.68l-78.52,34.95c-.07.03-.14.04-.21.04Z"/>
            <g>
              <path class="cls-57" d="M159.77,186.2s.14.12.37.38c.19.27.6.66.6,1.47-.02.41-.3.82-.65,1.05-.38.23-.68.37-1.07.57-.41.15-.85.32-1.3.49-.46.13-.94.27-1.44.41-1.01.24-2.12.47-3.29.66-1.18.19-2.42.36-3.71.46-1.29.13-2.63.19-3.99.23-1.36.04-2.74.04-4.13-.01-1.38-.08-2.76-.15-4.12-.32-1.36-.13-2.68-.37-3.96-.6-1.27-.27-2.5-.56-3.64-.94-.29-.09-.57-.17-.85-.26-.27-.11-.54-.21-.8-.31-.53-.21-1.02-.39-1.52-.61-.46-.23-.9-.45-1.32-.65-.42-.22-.8-.49-1.17-.71-.75-.43-1.29-.95-1.78-1.31-.47-.4-.78-.77-1.02-1-.23-.23-.35-.36-.35-.36-.1-.11-.1-.28,0-.38.1-.1.27-.1.37,0l.03.03s.12.11.35.33c.24.21.55.55,1.01.91.49.32,1.02.81,1.75,1.18.36.19.71.43,1.14.63.43.2.88.4,1.34.62.44.19.96.36,1.47.55.26.09.52.19.78.29.27.08.55.15.83.23.56.15,1.13.34,1.73.46.6.13,1.21.26,1.83.39,1.25.21,2.55.44,3.88.56,1.33.16,2.69.22,4.05.29.68.02,1.36.04,2.04.05.68,0,1.35-.01,2.02-.02,1.34-.04,2.66-.08,3.93-.2,1.27-.09,2.5-.24,3.66-.39,1.16-.16,2.24-.36,3.24-.57.49-.13.96-.25,1.41-.36.43-.14.83-.27,1.21-.39.36-.16.78-.35,1.02-.48.26-.16.38-.35.4-.55.04-.42-.25-.83-.42-1.06-.18-.24-.3-.34-.3-.34-.11-.1-.12-.27-.02-.38.1-.11.26-.12.37-.03l.02.02Z"/>
              <path class="cls-57" d="M170.51,182.32s.05.2.15.56c.01.2.06.46.05.75-.01.14-.02.3-.04.46-.03.16-.09.33-.14.5-.13.34-.31.71-.6,1.01-.13.17-.29.31-.47.44-.17.14-.36.26-.56.35-.21.09-.38.21-.64.27-.2.05-.4.11-.6.16-.4.1-.79.25-1.25.27-.44.05-.88.09-1.32.14-.44.07-.85.01-1.26.02-.41,0-.8-.03-1.17-.04-.37,0-.72-.07-1.03-.13-1.27-.22-2.11-.41-2.11-.41-.15-.03-.24-.18-.21-.32.03-.13.15-.22.28-.21h.03s.84.03,2.08.14c.31.03.64.07,1,.04.36,0,.73-.03,1.12-.03.38-.02.79.03,1.18-.05.39-.05.79-.1,1.18-.15.39-.02.81-.14,1.21-.24.2-.05.4-.1.6-.15.14-.02.32-.13.47-.18.17-.06.3-.15.43-.25.14-.08.27-.17.37-.29.23-.2.38-.45.49-.69.11-.25.17-.49.21-.72.04-.22.03-.42.05-.58-.03-.37-.05-.58-.05-.58-.01-.15.1-.28.25-.3.14-.01.26.08.29.2Z"/>
              <path class="cls-57" d="M170.27,182.64s-.06.01-.16.03c-.11.02-.25.06-.48.07-.2.02-.44.05-.72.07-.27.04-.62.02-.98.02-.37,0-.75-.06-1.17-.11-.21-.05-.42-.1-.64-.15-.22-.07-.44-.17-.66-.26-.42-.25-.9-.52-1.19-1.09-.3-.54-.24-1.34.17-1.82.39-.49.93-.73,1.43-.87.28-.03.47-.11.81-.08.23.03.41-.01.7.09.56.13.94.4,1.29.66.16.14.33.28.47.42.13.15.25.3.37.45.45.59.68,1.17.82,1.57.1.41.16.65.16.65.04.14-.05.29-.2.33,0,0-.01,0-.02,0h-.03ZM169.84,182.1c-.03-.06-.06-.14-.09-.22-.16-.34-.44-.81-.85-1.28-.11-.11-.22-.23-.34-.35-.13-.11-.27-.21-.41-.32-.28-.2-.64-.35-.91-.43-.11-.08-.39-.05-.6-.07-.1-.02-.35.05-.52.07-.35.11-.68.29-.86.53-.18.24-.21.49-.09.75.1.27.43.49.73.68.34.16.69.28,1.04.39.36.06.71.16,1.03.17.33.02.61.07.9.07.28,0,.52.01.72.01.08,0,.16,0,.24,0Z"/>
            </g>
            <path class="cls-65" d="M218.77,282.59s-.09-.1-.24-.27c-.1-.04-.19-.11-.31-.16-.15-.03-.29-.09-.47-.09-.35-.05-.79.03-1.25.09-.46.09-.94.24-1.42.39-.48.15-.95.35-1.38.55-.43.2-.84.39-1.16.58-.33.18-.6.36-.78.49-.18.13-.28.21-.28.21h0c-.06.05-.14.03-.18-.03-.04-.05-.03-.11,0-.16,0,0,.34-.43.99-.9.33-.23.72-.48,1.16-.71.45-.22.94-.43,1.44-.6,1.01-.33,2.1-.52,2.94-.31.42.07.73.33.9.52.11.2.17.32.17.32.02.03,0,.07-.03.09-.03.01-.06,0-.08-.02Z"/>
            <path class="cls-65" d="M201.86,280.36s.18-.22.53-.55c.36-.32.86-.81,1.54-1.29.67-.49,1.48-1.03,2.41-1.51.92-.48,1.94-.94,3-1.28.52-.19,1.07-.32,1.59-.46.53-.16,1.07-.21,1.58-.31.51-.11,1.02-.11,1.49-.16.47-.05.92-.05,1.34-.05.83-.03,1.52.07,1.99.12.48.05.75.09.75.09.01,0,.02.01.02.03,0,.01-.01.02-.02.02,0,0-.27.03-.75.08-.24.02-.52.04-.85.07-.33.02-.7.11-1.1.15-.4.05-.83.1-1.29.2-.45.1-.93.17-1.42.31-.48.13-.99.23-1.49.4-.5.16-1.02.29-1.51.49-.5.18-1,.36-1.48.57-.49.19-.95.42-1.41.62-.9.44-1.74.85-2.43,1.27-1.4.81-2.27,1.44-2.27,1.44-.08.06-.19.04-.24-.04-.05-.07-.04-.16,0-.22Z"/>
            <path class="cls-59" d="M179.72,281.2s.03-.12.17-.41c.12-.25.29-.61.57-1.06.26-.46.63-.97,1.05-1.57.48-.54.94-1.23,1.59-1.85.32-.32.65-.65.99-.99.37-.31.75-.63,1.15-.95.77-.68,1.69-1.24,2.59-1.89.92-.62,1.94-1.17,2.93-1.77,1-.57,2.05-1.11,3.04-1.71l1.51-.87c.49-.31.98-.62,1.46-.93.97-.62,1.87-1.29,2.74-1.95.83-.7,1.62-1.4,2.28-2.14.71-.7,1.25-1.45,1.82-2.1.48-.7.96-1.33,1.27-1.94.18-.31.33-.61.44-.87.12-.27.23-.51.3-.75.18-.46.28-.84.33-1.1.06-.26.1-.4.1-.4v-.03c.04-.14.18-.22.31-.19.13.03.21.15.19.28,0,0-.02.15-.06.43-.03.28-.1.69-.24,1.2-.14.5-.37,1.15-.69,1.77-.32.67-.81,1.33-1.3,2.09-.59.67-1.18,1.46-1.97,2.11-.73.71-1.59,1.36-2.44,2.06-.87.68-1.76,1.4-2.72,2.05-.48.33-.96.66-1.44,1l-1.49.95c-.99.65-2.02,1.18-3.02,1.77-.98.61-1.95,1.15-2.84,1.77-.86.66-1.73,1.24-2.45,1.93-.37.33-.73.65-1.08.95-.33.33-.65.64-.95.95-.63.59-1.13,1.2-1.62,1.7-.43.55-.86.99-1.14,1.4-.3.39-.54.72-.7.95-.14.19-.22.35-.22.33-.06.13-.21.18-.34.12-.13-.06-.18-.21-.12-.34Z"/>
            <path class="cls-59" d="M202.67,255.08s.11-.1.34-.3c.23-.2.59-.46,1.07-.77.97-.61,2.51-1.38,4.64-1.78,1.06-.19,2.25-.27,3.55-.23,1.29.07,2.68.27,4.13.65,2.85.74,6.05,1.57,9.59,2.29,3.54.72,7.4,1.41,11.52,1.79,2.06.17,4.19.32,6.33.17,2.18-.14,4.38-.43,6.62-.68,4.49-.53,9.18-.85,13.93-1.07,4.76-.24,9.6-.37,14.45-.06,2.42.14,4.83.45,7.22.88,2.36.48,4.69,1.13,6.99,1.7,4.63,1.11,9.09,2.55,13.41,3.88,4.32,1.36,8.49,2.67,12.47,3.84,3.97,1.2,7.78,2.11,11.29,2.98,3.51.87,6.72,1.66,9.6,2.22,2.87.57,5.4.98,7.48,1.22,2.09.24,3.74.32,4.86.32.56.01.99-.01,1.28-.02.29-.01.44-.02.44-.02h0c.11,0,.2.08.2.19,0,.1-.08.19-.18.2,0,0-.15.01-.44.04-.29.02-.73.07-1.3.08-1.14.05-2.81.05-4.93-.13-2.11-.19-4.68-.5-7.58-1.04-2.9-.54-6.16-1.23-9.67-2.15-3.51-.92-7.25-2.12-11.24-3.26-3.98-1.18-8.18-2.42-12.52-3.7-4.34-1.27-8.83-2.57-13.35-4.02-2.27-.71-4.57-1.31-6.93-1.77-2.35-.37-4.75-.62-7.15-.71-4.8-.22-9.62-.1-14.35.18-4.74.32-9.37.84-13.9,1.11-2.27.15-4.5.26-6.67.36-2.21.07-4.34-.05-6.42-.23-4.15-.38-8.03-1.01-11.59-1.71-3.56-.7-6.8-1.49-9.63-2.29-1.4-.38-2.74-.59-3.99-.68-1.25-.05-2.4.02-3.42.19-2.05.37-3.55,1.05-4.5,1.62-.96.57-1.37.99-1.37.99-.08.08-.2.07-.27,0-.07-.08-.07-.2,0-.27,0,0,0,0,.01,0Z"/>
            <path class="cls-82" d="M136.41,195.41c-.46-.59-2.88-.68-4.77,1.47-1.78,2.02-1.68,4.75-1.04,5.18.76.51,1.22-.72,2.53-2.57,1.3-1.83,4.37-2.68,3.27-4.08Z"/>
            <g>
              <path class="cls-16" d="M152.19,205.03c-.54-.92-3.06-1.1-4.86.13-1.8,1.22-2.27,2.7-1.59,3.87.57.97,2.4,1.85,4.93.44,2.57-1.43,1.97-3.68,1.52-4.44Z"/>
              <path class="cls-55" d="M149.22,209.94c.14-.2-1.98-.61-2.19-.18-.17.35,1.69.89,2.19.18Z"/>
              <path class="cls-110" d="M148.95,203.93s.5-.16,1.28-.11c.39.04.86.13,1.33.39.23.13.45.31.64.53.1.11.18.22.26.34l.12.2.08.16c.25.54.29,1.08.26,1.6-.04.52-.23.98-.45,1.33-.22.35-.49.57-.66.71-.19.13-.3.2-.3.2-.13.07-.29.02-.36-.11-.05-.1-.04-.21.03-.3h.01s.07-.1.19-.25c.11-.15.26-.37.39-.65.12-.28.19-.63.21-1,.02-.37-.08-.79-.2-1.13l-.07-.16-.06-.11c-.04-.09-.1-.16-.16-.23-.11-.15-.26-.26-.4-.37-.29-.22-.65-.34-.96-.41-.31-.08-.59-.11-.79-.12-.2-.01-.3-.01-.3-.01-.15,0-.27-.12-.27-.26,0-.12.08-.22.19-.26Z"/>
            </g>
            <path class="cls-92" d="M130.16,275.44s.41.17,1.12.48c.72.29,1.77.62,2.98,1.1.6.25,1.28.44,2.02.67.73.24,1.49.42,2.28.65.78.24,1.62.4,2.46.59.84.21,1.7.32,2.57.46l1.29.22c.43.04.86.08,1.29.12.86.07,1.7.19,2.52.16.82,0,1.61.03,2.36.04.75-.06,1.46-.12,2.11-.17.66-.04,1.26-.08,1.78-.2.53-.09.99-.17,1.36-.24.76-.13,1.2-.2,1.2-.2h.02c.07-.01.14.03.15.1.01.07-.03.13-.09.15,0,0-.43.12-1.18.34-.38.1-.83.23-1.36.37-.26.07-.54.16-.84.22-.3.04-.62.09-.95.14-.67.09-1.39.19-2.15.29-.77.03-1.58.07-2.42.08-.84.05-1.71-.06-2.59-.11-.44-.03-.88-.06-1.33-.09l-1.33-.19c-.89-.13-1.77-.28-2.62-.5-.86-.2-1.7-.38-2.51-.64-.81-.24-1.59-.46-2.3-.74-.7-.27-1.4-.5-2.01-.79-.62-.27-1.17-.53-1.67-.76-.49-.24-.93-.42-1.27-.61-.67-.38-1.06-.6-1.06-.6-.08-.05-.11-.15-.07-.24.04-.08.14-.11.22-.07Z"/>
            <path class="cls-92" d="M198.87,230.4c.04.61.03,1.22.05,1.83,0,.16,0,.28,0,.48l-.03.46-.07.91c-.06,1.21-.36,2.44-.58,3.65-.12.61-.33,1.19-.51,1.78-.19.59-.37,1.18-.57,1.76-.5,1.13-1.08,2.23-1.67,3.3v-.06s0,.08-.03.1c.02-.02.03-.05.03-.08,0,.07-.06.13-.13.13s-.13-.06-.13-.13c0-.03.02-.08.04-.1-.02.02-.04.05-.03.08v-.06c.17-.6.37-1.17.55-1.75.19-.57.39-1.14.58-1.71.13-.59.29-1.17.43-1.75.14-.58.35-1.15.44-1.74l.36-1.76c.15-.58.24-1.18.34-1.78l.16-.9.09-.45c.02-.1.04-.29.06-.43.1-.6.18-1.21.3-1.81.02-.09.11-.16.2-.14.08.01.14.08.14.16Z"/>
            <path class="cls-92" d="M145.53,242.67s.1.1.3.29c.19.18.49.44.88.74.78.62,1.97,1.4,3.52,2.07,1.54.68,3.48,1.13,5.57,1.15,2.09.03,4.32-.48,6.39-1.35.52-.2,1.02-.44,1.54-.7.49-.25.97-.53,1.43-.82.92-.6,1.76-1.29,2.46-2.05.69-.77,1.29-1.59,1.7-2.44.42-.85.71-1.72.87-2.54.33-1.65.27-3.08.14-4.07-.13-.99-.28-1.54-.28-1.54-.02-.07.02-.14.09-.16.06-.02.13.02.16.08h0s.22.55.43,1.56c.19,1,.41,2.48.14,4.25-.26,1.75-1.05,3.8-2.56,5.48-.74.84-1.63,1.6-2.61,2.25-.49.32-1,.62-1.53.91-.5.26-1.04.52-1.59.75-2.18.9-4.56,1.4-6.79,1.35-2.24-.03-4.28-.67-5.87-1.43-1.61-.76-2.76-1.7-3.52-2.38-.38-.34-.66-.64-.84-.85-.18-.21-.27-.32-.27-.32h0c-.06-.08-.05-.19.02-.25.07-.06.17-.05.23,0Z"/>
            <path class="cls-85" d="M157.45,278.97l.54-.19-.22.31c-.17-1.57-.26-3.15-.35-4.73-.05-1.58-.12-3.16-.11-4.74,0-.79,0-1.58.03-2.37.02-.79.03-1.58.09-2.37l.21-2.38c.04-.4.13-.79.2-1.19l.22-1.18c.03-.15.17-.24.32-.22.14.03.23.15.22.28v.05c-.05.78-.15,1.55-.19,2.32l-.07,2.34c0,.78,0,1.57-.01,2.35-.01.78,0,1.57.01,2.36,0,3.14.07,6.29.05,9.44v.04c0,.13-.09.24-.22.27l-.56.13h0c-.15.03-.29-.06-.33-.2-.03-.14.05-.27.17-.32Z"/>
            <path class="cls-85" d="M182.29,237.82s1.9.73,4.72,1.94c.7.32,1.45.67,2.25,1.03.8.37,1.64.74,2.5,1.19.85.46,1.72.93,2.61,1.41.45.25.88.47,1.35.74l1.28.83c.43.34.84.64,1.27,1.03.35.37.69.73,1.01,1.18.65.86,1.13,1.71,1.6,2.57.92,1.71,1.61,3.36,2.19,4.78.31.73.51,1.38.72,1.97.21.59.38,1.1.53,1.52.3.84.46,1.32.46,1.32.05.14-.02.3-.17.35-.14.05-.29-.02-.34-.15,0,0-.78-1.87-1.96-4.69-.61-1.39-1.37-2.99-2.29-4.64-.46-.81-.97-1.67-1.54-2.41-.26-.38-.61-.74-.96-1.11-.32-.27-.73-.58-1.11-.87l-1.28-.84c-.43-.24-.87-.49-1.29-.73-.87-.48-1.72-.96-2.55-1.42-1.7-.85-3.29-1.65-4.65-2.34-1.38-.64-2.51-1.22-3.32-1.6-.81-.38-1.27-.59-1.27-.59-.14-.06-.2-.23-.13-.36.06-.13.21-.19.35-.14Z"/>
            <path class="cls-65" d="M208.93,280.97s.6-.53,1.61-1.13c1.01-.6,2.45-1.27,3.97-1.71.77-.2,1.54-.37,2.29-.44.74-.08,1.44-.08,2.03-.03.6.06,1.08.16,1.41.26.33.09.52.15.52.15,0,0-.2.01-.54.02-.34-.02-.82.05-1.38.1-.28.03-.59.1-.91.14-.32.04-.65.14-1,.2-.69.16-1.41.36-2.13.58-1.44.45-2.85,1.01-3.91,1.43-1.07.43-1.78.72-1.78.72-.09.04-.19,0-.23-.1-.03-.07,0-.15.05-.2Z"/>
            <path class="cls-65" d="M116.07,221.02s0-.04,0-.1c0-.07,0-.2.04-.33.06-.26.14-.66.4-1.07.1-.22.3-.4.47-.62.21-.18.43-.39.71-.53.14-.06.28-.13.42-.19.09-.03.11-.06.25-.1l.2-.05c.22-.07.69-.12.98-.09.65.05,1.25.27,1.76.52.51.25.93.58,1.27.85.68.57,1.03,1.06,1.03,1.06.09.12.06.29-.06.38-.1.07-.23.07-.32,0h0s-.11-.09-.3-.23c-.19-.15-.48-.33-.82-.55-.17-.11-.36-.22-.56-.33-.2-.11-.42-.2-.64-.31-.44-.2-.94-.34-1.42-.36-.13-.01-.23-.01-.33,0-.09,0-.22,0-.36.04l-.2.04-.13.05-.32.13c-.2.09-.37.23-.55.33-.14.15-.31.26-.41.42-.23.29-.38.57-.46.78-.08.2-.12.32-.12.33h0c-.04.15-.19.24-.34.2-.12-.03-.2-.15-.2-.27Z"/>
            <path class="cls-17" d="M262.94,282.8l-8.45,1.74s7.33-3.4,14.66-6.96c5.66-2.75,9.89-6.43,19.63-3.48,27.83,8.45,35.95,2.32,45.22,6.96,9.28,4.64,17.39,8.45,26.84,14.66,4.95,3.26,20.13,12.42,20.13,12.42,0,0-11.09-3.86-17.39-6.46-8.45-3.48-19.38-11.35-30.31-14.66-10.93-3.31-16.48-6.13-30.73-5.46-14.24.66-39.59,1.24-39.59,1.24Z"/>
            <path class="cls-34" d="M254.41,283.78s2.12-.4,5.84-.93c3.72-.52,9.04-1.21,15.46-1.71,3.21-.26,6.69-.47,10.38-.6,3.69-.13,7.58-.25,11.61-.32,4.03-.1,8.21-.08,12.46.05,2.14.16,4.27.2,6.45.53l1.63.2c.55.09,1.1.24,1.65.36.56.13,1.09.23,1.67.4l1.52.53c4.09,1.46,8.03,3.23,11.88,4.96,3.84,1.75,7.63,3.46,11.29,5.13,3.66,1.65,7.26,3.12,10.65,4.54,3.4,1.39,6.6,2.75,9.54,3.99,1.47.61,2.88,1.21,4.21,1.69.68.28,1.3.43,1.92.63.68.21,1.34.42,1.98.62.61.17,1.23.45,1.83.73.59.28,1.18.51,1.69.8,1.01.58,1.97,1.08,2.75,1.63,1.62,1.05,2.76,2.04,3.55,2.7.77.68,1.17,1.09,1.17,1.09.29.3.29.79-.02,1.08-.28.27-.72.29-1.02.04h-.01s-.38-.33-1.18-.91c-.79-.57-1.95-1.43-3.55-2.32-.77-.49-1.68-.91-2.65-1.41-.49-.25-1-.41-1.53-.64-.52-.22-1.06-.44-1.71-.6-.61-.18-1.23-.37-1.88-.56-.7-.21-1.46-.4-2.15-.66-1.42-.49-2.86-1.07-4.37-1.67-2.99-1.23-6.15-2.71-9.46-4.32-3.32-1.6-6.79-3.34-10.45-4.99-3.67-1.63-7.46-3.31-11.36-4.88-3.91-1.57-7.87-3.12-11.88-4.44l-1.53-.48-1.46-.32c-.5-.1-.98-.23-1.48-.3l-1.55-.17c-2.05-.28-4.17-.3-6.24-.43-4.18-.08-8.3-.07-12.3.07-4,.13-7.86.36-11.52.64-1.83.13-3.61.26-5.33.39-1.72.11-3.39.22-4.99.33-3.2.21-6.13.38-8.73.52-2.6.13-4.87.24-6.74.33-3.74.16-5.89.2-5.89.21-.42,0-.77-.33-.78-.75,0-.38.26-.7.62-.77Z"/>
            <path class="cls-79" d="M127.02,181.17c.27,2.27,8.95,7.45,17.39,6.46,8.45-.99,3.23-2.24,4.22-3.98.99-1.74,5.71-.99,6.46-2.98.75-1.99-5.22-4.72-4.47-6.71.75-1.99,5.22-.99,5.22-2.73s-4.72-4.72-13.91-4.97c-9.19-.25-8.95,4.97-7.7,6.71,1.24,1.74,10.19,3.98,9.94,5.72-.25,1.74-17.64-1.74-17.14,2.48Z"/>
            <path class="cls-79" d="M119.15,190.95c-2.25.15-1.16,7.45-4.64,8.78-1.13.43-3.48-6.96-5.3-5.14-1.82,1.82,1.66,15.74,5.3,15.74s4.14-6.13,5.3-7.12c1.16-.99,2.15,2.15,2.98.33.83-1.82-1.16-12.75-3.64-12.59Z"/>
            <g>
              <path class="cls-51" d="M227.65,240.53c-.8,0-1.48-.61-1.54-1.42-.92-11.37-2.34-23.82-3.6-34.81-1.03-8.97-1.92-16.71-2.36-22.35-.29-3.61-.21-6.53-.15-9.1.16-6.28.24-9.42-5.24-13.83-4.28-3.44-3.44-15.93-3.22-18.4.07-.85.83-1.48,1.68-1.41.85.07,1.48.82,1.41,1.68-.47,5.46-.13,13.95,2.08,15.72,6.68,5.37,6.57,9.73,6.4,16.32-.06,2.5-.13,5.33.14,8.78.44,5.58,1.33,13.3,2.35,22.24,1.26,11.01,2.69,23.49,3.61,34.91.07.85-.57,1.6-1.42,1.67-.04,0-.08,0-.13,0Z"/>
              <g>
                <path class="cls-81" d="M208.56,137.19s4.72,1.07,7.25-.33l.07.03-.11.3-.46,5.3c-2.36,1.12-5.63.3-5.63.3l-1.12-5.6Z"/>
                <path class="cls-104" d="M205.62,133.16c3.84,0,8.04-.24,11.72-.7l.05.39-1.51,4.05-.07-.03c-2.52,1.4-7.25.33-7.25.33l-2.94-3.9v-.14Z"/>
                <path class="cls-38" d="M224.08,88.38l.33-.06c2.63,12.79,3.31,36.52,1.33,39.26-2.61,3.63-26.93,4.42-30.55,2.12-2.65-1.71-4.83-24.97-3.95-38.63.48-.34,2.39-1.57,4.54-1.33,2.5.28,3.54,1.48,6.25.76,2.7-.74,2.6-3.21,6.57-3.74,3.96-.53,6.31,2.49,8.29,2.29,1.99-.2,4.27-2.03,7.19-.66Z"/>
                <path class="cls-39" d="M224.41,88.32l-.33.06c-2.91-1.37-5.2.46-7.19.66-1.98.2-4.33-2.81-8.29-2.29-3.97.53-3.87,3-6.57,3.74-2.71.73-3.75-.48-6.25-.76-2.16-.24-4.07.99-4.54,1.33.32-4.88,1.01-8.54,2.23-9.55,3.12-2.62,22.8-4.41,27.84-1.08,1.22.81,2.27,3.79,3.1,7.89Z"/>
                <path class="cls-56" d="M192.2,79.6c3.39-2.83,24.69-4.77,30.14-1.17,5.44,3.6,7.63,47.11,4.8,51.04-1,1.39-4.95,2.39-9.8,3-3.68.46-7.88.7-11.72.7-5.4,0-10.08-.47-11.55-1.41-3.92-2.5-6.84-47.98-1.87-52.15ZM221.31,80.43c-5.04-3.33-24.72-1.54-27.84,1.08-1.21,1.01-1.91,4.67-2.23,9.55-.88,13.67,1.29,36.92,3.95,38.63,3.62,2.31,27.94,1.51,30.55-2.12,1.98-2.74,1.3-26.47-1.33-39.26-.84-4.1-1.88-7.09-3.1-7.89Z"/>
              </g>
              <path class="cls-45" d="M221.28,95.03s.25-.11.62-.2c.38-.11.89-.18,1.39-.24.26-.02.51-.03.75-.04.24-.01.47,0,.66,0,.39.02.65.07.65.07.15.03.26.18.23.33-.02.1-.09.18-.17.21,0,0-.25.1-.63.2-.19.04-.41.1-.65.14-.24.03-.49.07-.75.11-.51.04-1.03.07-1.42.04-.39-.02-.65-.08-.65-.08-.15-.03-.25-.18-.22-.34.02-.09.08-.17.17-.2Z"/>
              <path class="cls-45" d="M221.79,100.52s.25-.11.62-.2c.38-.1.89-.18,1.4-.24.26-.02.51-.03.75-.04.24-.01.47,0,.66,0,.39.02.65.07.65.07.15.03.26.18.23.33-.02.1-.09.17-.17.21,0,0-.25.1-.63.2-.19.04-.41.1-.65.14-.24.03-.49.07-.75.11-.51.04-1.03.07-1.42.04-.39-.02-.65-.08-.65-.08-.15-.03-.25-.18-.22-.34.02-.09.08-.17.17-.2Z"/>
              <path class="cls-45" d="M222.25,105.78s.25-.1.62-.19c.37-.1.88-.16,1.39-.22.25,0,.51-.02.75-.03.24,0,.46.02.66.02.39.03.65.08.65.08.15.03.25.18.22.34-.02.1-.09.17-.17.21,0,0-.25.1-.62.19-.19.04-.41.09-.64.13-.24.03-.49.06-.74.09-.51.03-1.02.05-1.4.01-.39-.03-.65-.09-.65-.09-.15-.04-.25-.19-.21-.34.02-.09.09-.17.17-.2Z"/>
              <path class="cls-45" d="M222.57,110.28s.25-.11.62-.2c.38-.1.88-.18,1.39-.24.26-.02.51-.03.75-.04.24-.01.47,0,.66,0,.39.02.65.07.65.07.15.03.26.18.23.33-.02.1-.09.17-.17.21,0,0-.25.1-.63.2-.19.04-.41.1-.65.14-.24.03-.49.07-.75.11-.51.04-1.02.07-1.41.04-.39-.02-.65-.08-.65-.08-.15-.03-.25-.18-.22-.34.02-.09.08-.17.17-.2Z"/>
              <path class="cls-45" d="M222.83,114.83s.25-.11.62-.2c.38-.1.89-.18,1.4-.24.26-.02.51-.03.75-.04.24-.01.47,0,.66,0,.39.02.65.07.65.07.15.03.26.18.23.33-.02.1-.09.17-.17.21,0,0-.25.1-.63.2-.19.04-.41.1-.65.14-.24.03-.49.07-.75.11-.51.04-1.03.07-1.42.04-.39-.02-.65-.08-.65-.08-.15-.03-.25-.18-.22-.34.02-.09.08-.17.17-.2Z"/>
              <path class="cls-45" d="M222.66,119.97s.25-.11.62-.2c.38-.11.89-.18,1.39-.24.26-.02.51-.03.75-.04.24-.01.47,0,.66,0,.39.02.65.07.65.07.15.03.26.18.23.33-.02.1-.09.18-.17.21,0,0-.25.1-.63.2-.19.04-.41.1-.65.14-.24.03-.49.07-.75.11-.51.04-1.03.07-1.42.04-.39-.02-.65-.08-.65-.08-.15-.03-.25-.18-.22-.34.02-.09.08-.17.17-.2Z"/>
              <g>
                <path class="cls-104" d="M199.68,96.91c-1.49.95-.39,12.67,1.47,13.3,1.86.62,16.65.89,17.02-1.34.38-2.23.39-12.67-1.47-13.17-1.86-.5-15.65.35-17.02,1.22Z"/>
                <path class="cls-42" d="M200.51,97.48c-1.35.86-.35,11.51,1.34,12.07,1.69.57,15.11.81,15.45-1.22.34-2.03.35-11.5-1.34-11.96-1.69-.45-14.21.32-15.45,1.11Z"/>
                <path class="cls-70" d="M202.6,102.3c-.2,0-.37-.16-.39-.36-.01-.21.15-.4.36-.41l12.84-.85c.21,0,.4.15.41.36.01.21-.15.4-.36.41l-12.84.85s-.02,0-.03,0Z"/>
                <path class="cls-70" d="M202.83,106.7c-.2,0-.37-.16-.39-.36-.01-.21.15-.4.36-.41l12.84-.85c.22,0,.4.15.41.36.01.21-.15.4-.36.41l-12.84.85s-.02,0-.03,0Z"/>
              </g>
              <path class="cls-17" d="M222.43,104.89c-2.72.26-2.48,7.7-3.98,11.43-1.49,3.73-13.91,8.7-13.42,12.18.5,3.48,19.13.75,19.88-1.24.75-1.99,2.73-22.86-2.48-22.36Z"/>
              <path class="cls-44" d="M200.07,81.66c-.37-1.74-5.88.62-6.54,1.95-.66,1.33-1.63,9.86-.33,10.19,2.32.58,1.74-5.63,2.77-7.41,1.13-1.94,4.56-2.59,4.1-4.72Z"/>
              <path class="cls-44" d="M204.67,81.04c-.12-1.62-3.73-.99-3.73.37s3.84,1.13,3.73-.37Z"/>
            </g>
            <g>
              <path d="M155.28,201.68c.68,1.61,2.34,2.44,3.7,1.87,1.36-.58,1.91-2.35,1.23-3.96-.68-1.61-2.34-2.44-3.7-1.87-1.36.58-1.91,2.35-1.23,3.96Z"/>
              <path d="M157.12,198.33s1-.4,1.68-1.04c1.2-1.13,1.27-1.92,1.63-1.79.36.13.22,3.2-1.93,4.46,0,0-1.36-1.05-1.37-1.64Z"/>
            </g>
            <g>
              <path d="M134.86,209.97c.68,1.61,2.34,2.44,3.7,1.87,1.36-.58,1.91-2.35,1.23-3.96-.68-1.61-2.34-2.44-3.7-1.87-1.36.58-1.91,2.35-1.23,3.96Z"/>
              <path d="M136.7,206.62s1-.4,1.68-1.04c1.2-1.13,1.27-1.92,1.63-1.79.36.13.22,3.2-1.93,4.46,0,0-1.36-1.05-1.37-1.64Z"/>
            </g>
            <path class="cls-88" d="M279.52,248.48c-12.63,3.14-36.96,2.34-41.6,3.26-4.97.99-18.55-4.3-18.55-4.3-1.37-.53-.83-2.08,1.7-2.27h0c-1.73-.01-6.33-2.07-2.11-3.2v-.05s-1.08-.94-1.08-1.94,3.19-1.6,7.61-1.33c3.38.21,6.51.79,6.51.79,0,0-5.99-2-3.36-2.44,4.97-.83,9.61,2.64,10.6,2.81.99.17,27.16-5.96,33.13-7.62.07-.02.15-.04.23-.07,6.07-2.01,19.65-18.81,19.65-18.81l.08-.06c3.69,4.19,11.25,11.94,15.69,15.04l-.2.27s-14.25,15.24-25.84,19.21c-.76.26-1.58.5-2.47.72Z"/>
            <path class="cls-17" d="M292.34,213.25l-.08.06s-.16.2-.43.53c4.46,6.85,7.73,13.74,8.9,21.55,4.22-3.75,7.11-6.83,7.11-6.83l.2-.27c-4.44-3.1-12.01-10.84-15.69-15.04Z"/>
            <path class="cls-46" d="M231.96,239.7s-.26-.02-.72-.07c-.46-.04-1.12-.13-1.9-.17-.78-.06-1.7-.11-2.67-.2-.49-.04-.99-.11-1.5-.12-.53-.02-1.03-.03-1.55-.03-1.04-.01-2.07.02-3.02.14-.47.07-.93.13-1.33.24-.39.1-.78.27-.92.42-.02.03-.05.06-.04.07h-.01c0-.07,0,.03,0,.03v.14c.01.21.07.28.09.4.1.25.22.48.35.65.24.35.42.53.42.53.11.11.11.28,0,.39-.1.1-.25.1-.35.03h0s-.23-.17-.56-.55c-.16-.19-.34-.43-.51-.77-.07-.18-.17-.43-.18-.58l-.02-.14s0,0-.01-.12l.02-.13c.02-.19.1-.32.19-.45.39-.45.84-.6,1.3-.77.46-.15.95-.26,1.46-.34,1.01-.15,2.09-.21,3.16-.21.53,0,1.08.03,1.6.06.53.03,1.04.11,1.54.16.99.11,1.92.25,2.71.36.8.09,1.43.28,1.88.36.45.1.71.16.71.16.15.03.24.18.21.33-.03.13-.16.22-.29.21Z"/>
            <path class="cls-46" d="M239.18,240.08s-.06-.01-.18-.04c-.11-.03-.34-.11-.55-.2-.42-.19-1.01-.45-1.72-.77-.7-.32-1.53-.64-2.43-.95-.45-.15-.92-.28-1.39-.4-.48-.11-.97-.19-1.46-.26-.49-.05-.99-.1-1.47-.08-.48-.01-.97.07-1.4.13-.11.02-.15.04-.2.06,0,0,0,0,.05-.06.03-.05.04-.19.02-.21-.05-.06.13.16.28.24.33.23.7.42,1.03.59.68.33,1.27.6,1.69.77.41.18.65.28.65.28.14.06.2.22.14.36-.05.12-.19.19-.32.16,0,0-1.02-.24-2.5-.83-.37-.16-.76-.32-1.19-.58-.11-.07-.21-.14-.33-.23-.11-.09-.25-.2-.35-.47-.06-.12-.06-.39.04-.54.1-.18.2-.23.3-.3.17-.1.36-.15.48-.18.52-.08,1.03-.18,1.57-.18.54-.03,1.08,0,1.62.06.54.06,1.07.17,1.58.3.51.14,1.01.29,1.48.46.94.33,1.77.76,2.47,1.13.7.36,1.25.72,1.64.93.2.11.3.17.42.22.11.04.18.07.18.07h.01c.14.06.21.22.16.36-.05.13-.18.2-.31.17Z"/>
            <path class="cls-46" d="M229.44,245.88c-1.4-.08-2.79-.18-4.19-.22-.7-.02-1.39-.05-2.09-.05-.35,0-.69,0-1.04,0l-.52.02-.54.02h.04c-.6.06-1.2.2-1.62.49-.21.14-.34.32-.34.42-.02.08.04.18.22.3l-.08-.04,2.64.99,2.66.94c.89.29,1.77.57,2.67.84l2.73.74c1.82.46,3.64.98,5.48,1.2.91.13,1.84.02,2.79,0,.95-.03,1.88-.08,2.83-.15.01,0,.02,0,.02.02,0,.01,0,.02-.02.02-.93.18-1.87.32-2.81.43l-1.41.18c-.48.08-.98.07-1.45.04-1.92-.13-3.79-.5-5.64-.92l-2.76-.66c-.92-.25-1.84-.51-2.76-.78-1.81-.58-3.59-1.24-5.36-1.92h-.02s-.04-.03-.06-.04c-.19-.13-.38-.27-.53-.5-.15-.22-.22-.53-.18-.8.08-.57.45-.91.77-1.14.68-.46,1.42-.57,2.13-.62h.03s.01,0,.01,0h.51s.54,0,.54,0c.36,0,.71,0,1.07.03.71.02,1.41.07,2.12.12,1.4.14,2.8.29,4.2.51.15.02.25.16.22.31-.02.14-.15.24-.29.23Z"/>
            <path class="cls-46" d="M221.06,245.43c-.28.01-.61,0-.92-.07-.3-.05-.6-.13-.89-.21-.59-.17-1.15-.42-1.69-.79-.13-.1-.27-.22-.39-.34-.12-.17-.26-.28-.33-.53-.1-.21-.07-.5,0-.75.11-.2.25-.43.4-.51.3-.27.6-.37.9-.51l.44-.15.22-.07.18-.05h.04s0-.01,0-.01l1.32-.28c.44-.08.89-.11,1.34-.17.45-.04.9-.05,1.34-.08.45-.02.9,0,1.34,0,.45,0,.89.07,1.34.1.44.03.88.11,1.33.16.44.05.87.16,1.31.24.43.09.86.2,1.29.32.15.04.23.19.2.33-.04.13-.16.22-.3.2h0c-.86-.11-1.72-.22-2.59-.29-.43-.03-.86-.08-1.29-.08-.43,0-.86-.03-1.29-.02-.43.01-.86,0-1.29.02-.43.03-.86.05-1.28.1l-1.27.18-1.25.24h.04s-.24.05-.24.05l-.19.06-.39.12c-.12.05-.23.1-.34.15-.13.05-.19.12-.28.17-.11.06-.09.11-.15.15.01.03-.03.04,0,.1-.02.04.08.13.11.21.08.08.16.16.25.24.39.32.9.57,1.41.78.26.1.52.2.78.27.26.07.5.13.81.16.15.02.26.15.24.3-.01.14-.13.24-.26.24h-.01Z"/>
            <path class="cls-88" d="M226.41,167.51s3.9-6.79-1.07-7.53c-1.56-.24-2.98.07-4.14.64-2.54,1.22-3.89,3.65-2.98,4.33,1.22.91,5.79-.83,5.79-.83"/>
            <path class="cls-46" d="M226.26,167.42s.17-.35.41-.99c.25-.63.57-1.56.73-2.68.09-.56.08-1.16-.07-1.73-.14-.57-.53-1.02-1.09-1.27-.25-.17-.62-.18-.93-.28-.37-.03-.73-.05-1.11-.08-.35.03-.69.07-1.04.1-.35.1-.71.16-1.06.29-.69.24-1.37.58-1.94,1.02-.57.44-1.09.96-1.43,1.52-.36.55-.5,1.23-.21,1.31.4.25,1.09.2,1.64.15,1.14-.13,2.1-.36,2.76-.53.66-.18,1.04-.28,1.04-.28.07-.02.14.02.16.09.02.06-.01.13-.07.15,0,0-.36.17-1.01.42-.66.23-1.58.6-2.79.82-.3.05-.62.09-.97.1-.17,0-.36-.01-.55-.03-.21-.05-.48-.11-.6-.19l-.11-.06c-.15-.11-.13-.11-.2-.17-.11-.09-.16-.22-.22-.34-.1-.25-.11-.5-.08-.72.05-.45.22-.83.43-1.19.41-.71.98-1.3,1.63-1.83.66-.53,1.4-.92,2.19-1.22.39-.17.82-.22,1.22-.33.43-.05.87-.09,1.29-.11.41.04.73.04,1.19.1.41.13.83.16,1.21.4.4.17.72.49,1,.8.11.18.21.37.32.55.08.19.12.38.18.57.15.76.1,1.46-.03,2.06-.11.61-.3,1.14-.49,1.6-.19.46-.37.84-.53,1.15-.32.62-.56.96-.56.96-.05.08-.16.1-.24.05-.07-.05-.1-.14-.06-.22Z"/>
            <path class="cls-68" d="M307.09,189.7s-3.27,3.55-7.96,9.06c-1.17,1.38-2.43,2.88-3.71,4.5-1.27,1.62-2.62,3.35-3.76,5.22-.29.47-.54.95-.71,1.41-.08.21-.12.49-.1.46,0,0,0,0-.02,0h0s-.05-.08-.02-.03l.03.04.13.18.26.35c.33.49.72.88,1.08,1.32l.55.64.6.65c.81.87,1.62,1.75,2.44,2.64.82.88,1.68,1.71,2.52,2.57,1.65,1.74,3.42,3.37,5.14,4.99.44.4.85.82,1.3,1.19.45.37.9.73,1.35,1.09.9.71,1.75,1.48,2.67,2.1.45.29.91.57,1.36.75.21.08.45.16.57.15.1,0,.03,0,.11,0l.36-.19c.49-.25.96-.51,1.38-.78.44-.26.87-.53,1.28-.84,1.68-1.14,3.12-2.45,4.4-3.7.67-.6,1.2-1.27,1.76-1.87.55-.6,1.08-1.17,1.52-1.75.89-1.16,1.73-2.12,2.29-3.01,1.18-1.74,1.86-2.73,1.86-2.73v-.02c.12-.16.34-.2.5-.09.16.11.2.32.1.48,0,0-.65,1.03-1.79,2.82-.54.92-1.36,1.92-2.23,3.13-.42.61-.95,1.21-1.49,1.84-.55.63-1.09,1.32-1.77,1.95-1.29,1.3-2.74,2.68-4.48,3.9-.42.32-.87.62-1.34.91-.47.31-.94.58-1.42.83l-.36.2c-.17.09-.51.19-.68.16-.43,0-.73-.12-1.04-.23-.58-.24-1.09-.54-1.59-.87-.96-.64-1.83-1.43-2.76-2.15-.46-.37-.93-.74-1.39-1.12-.46-.38-.88-.8-1.32-1.2-1.75-1.63-3.55-3.26-5.23-5.02-.85-.87-1.72-1.73-2.54-2.61-.81-.89-1.62-1.77-2.42-2.65l-.6-.66-.6-.71c-.38-.47-.81-.93-1.13-1.41l-.26-.35-.13-.18-.03-.04s-.04-.06-.05-.08l-.02-.05c-.03-.07-.05-.14-.07-.22-.12-.59.04-.89.13-1.22.24-.61.52-1.14.83-1.64,1.23-1.99,2.61-3.7,3.93-5.32,1.33-1.61,2.62-3.1,3.82-4.46,2.4-2.73,4.49-4.91,5.95-6.45,1.47-1.53,2.31-2.4,2.31-2.4.14-.14.36-.15.5,0,.14.13.14.35.01.5Z"/>
            <g>
              <path class="cls-78" d="M123.63,248.76c26.83,22.52,38.76,64.6,34.79,76.86-3.98,12.25-13.59,23.53-13.59,23.53l-97.73-87.8s15.41-35.78,19.88-36.93c0,0,4.24-.25,11.26.9,10.84,2.31,27.8,8.68,45.39,23.45ZM146.01,305.82c1.26-1.73,2.86-4.64,2.46-8.03-.96-8.18-11.57-34.09-33.02-41.28-.69-.23-1.39-.45-2.11-.64-2.51-.68-11.51,13.84-11.51,13.84l42.74,37.77s.66-.61,1.43-1.66ZM96.64,262.51c2.97-3.37,8.25-10.75,8.1-11.43-2.54-11.66-18.8-17.88-28.99-18.13-1.77-.05-3.35.09-4.64.41-1.44.35-6.8,6.67-4.8,8.45,4.47,3.98,26.17,22.52,28.49,22.36.28-.02.95-.67,1.84-1.66Z"/>
              <path class="cls-95" d="M130.91,251.74c27.18,24.16,34.04,64.19,30.81,75.12-1.91,6.45-11.43,21.37-12.92,22.86-1.49,1.49-3.98-.58-3.98-.58,0,0,9.61-11.27,13.59-23.53,3.98-12.25-7.95-54.34-34.79-76.86-17.59-14.77-34.55-21.14-45.39-23.45,11.97,1.97,31.99,8.04,52.68,26.43Z"/>
              <path class="cls-95" d="M145.57,305.49l.44.33c-.78,1.05-1.43,1.66-1.43,1.66l-42.74-37.77s8.99-14.51,11.51-13.84c.72.19,1.42.41,2.11.64l-.12.53s-9.58,11.07-8.9,12.42c.5.99,28.94,25.84,39.13,36.03Z"/>
              <path class="cls-95" d="M75.75,233.02s-4.97,3.98-5.96,7.79c0,0,21.7,18.55,26.67,21.53l.19.17c-.88.99-1.56,1.64-1.84,1.66-2.33.16-24.02-18.39-28.49-22.36-2-1.78,3.36-8.1,4.8-8.45,1.29-.32,2.87-.46,4.64-.41v.07Z"/>
            </g>
            <g>
              <path class="cls-95" d="M289.23,337.22c17.99,2.04,31.98,3.38,33.01,2.81,2.98-1.66,1.65-16.29-.5-17.39-3.32-1.71-14.27-3.86-30.07-6.13l-.49.17-1.91,20.21-.04.34ZM283.34,336.55l1.88-20.87v-.07c-7.1-.96-14.98-1.94-23.44-2.91-5.73-.66-12.91-1.2-20.2-1.57l-.02.25-1.65,19.21-.06.65c13.67,1.75,29.37,3.69,43.38,5.31h.11ZM293.59,345.83c-3.71-4.22-59.48-9.27-63.28-7.78-2.54.99-3.15,13.91-3.15,13.91l67.43,8.12s1.32-11.6-.99-14.25ZM233.96,330.46l1.64-19.08-.21-.5c-12.54-.43-24.23-.21-27.95,1.07-2.75.95-3.73,13.67-2.73,14.41.32.24,12.39,1.93,28.69,4.05l.56.05ZM329.37,319.66c3.31,4.97-.91,51.19-.91,51.19,0,0-1.9,2.82-2.9,2.65-13.56-2.26-75.48-11.97-132.27-21.04,0,0,1.91-43.07,8.87-46.05,6.96-2.98,34.79-2.98,58.3-.67,32.73,3.23,65.6,8.94,68.92,13.91Z"/>
              <path class="cls-78" d="M286.58,338.88c17.99,2.04,31.98,3.38,33.01,2.81,2.98-1.66,1.65-16.29-.5-17.39-3.32-1.71-14.27-3.86-30.07-6.13l-.49.17-1.91,20.21-.04.34ZM280.69,338.21l1.88-20.87v-.07c-7.1-.96-14.98-1.94-23.44-2.91-5.73-.66-12.91-1.2-20.2-1.57l-.02.25-1.65,19.21-.06.65c13.67,1.75,29.37,3.69,43.38,5.31h.11ZM290.94,347.48c-3.71-4.22-59.48-9.27-63.28-7.78-2.54.99-3.15,13.92-3.15,13.92l67.43,8.12s1.32-11.6-.99-14.25ZM231.31,332.12l1.64-19.08-.21-.5c-12.54-.43-24.23-.21-27.95,1.07-2.75.95-3.73,13.67-2.73,14.41.32.24,12.39,1.93,28.69,4.05l.56.05ZM326.72,321.31c3.31,4.97-1.16,52.18-1.16,52.18,0,0-70.65-9.11-134.92-19.38,0,0,1.91-43.07,8.87-46.05,6.96-2.98,34.79-2.98,58.3-.67,32.73,3.23,65.6,8.94,68.92,13.92Z"/>
            </g>
            <path class="cls-25" d="M153.96,215.29c-2.12,1.95-4.75,4.91-4.89,8.01,1.63-3.11,3.5-6.13,6.43-8.19,1.72-1.21,3.95-2.09,6.07-1.68.37.07.56.22.82.2-2.51-2.33-6.11-.48-8.43,1.66Z"/>
          </g>
        </g>
        <g>
          <g>
            <g>
              <path class="cls-107" d="M8.63,395.19c3.43-.31,9.21,1.23,10.35,4.38,1.14,3.15-2.89,7.45-2.89,7.45-1.45,1.69-1.9,2.23-4.79.92-2.89-1.31-5.93-2.77-6.47-5.3-.53-2.53.38-7.15,3.81-7.45Z"/>
              <path class="cls-100" d="M10.18,400.23c-1.41,3.42-.36,7.12,2.36,8.26,2.71,1.14,6.06-.71,7.47-4.13,1.41-3.42.35-7.12-2.36-8.26-2.71-1.14-6.06.71-7.47,4.13Z"/>
              <path class="cls-107" d="M13.9,401.97c-.41.99-.1,2.06.68,2.39.79.33,1.76-.2,2.17-1.2.41-.99.1-2.06-.69-2.39-.79-.33-1.76.2-2.16,1.2Z"/>
              <path class="cls-111" d="M20.55,397.32s-10.55,5.43-11.36,5.63c-.81.21-2.44-.51-5.38-2.46,0,0-.71-7.58,5.88-8.91,6.59-1.33,9.94,2.77,10.85,5.74Z"/>
              <path class="cls-31" d="M9.1,402.96c-.2-2.9.48-6.02,2.98-7.66,2.73-1.78,6.26-1.3,8.13,1.13.13.3.25.6.34.88,0,0-10.55,5.43-11.36,5.63-.03,0-.06,0-.09.01Z"/>
              <path class="cls-15" d="M9.69,391.58c4.7-.95,7.74.86,9.44,3.06-1.92-1.26-4.45-1.49-6.66-.28-3.17,1.73-4.18,5.2-3.98,8.58-.93-.18-2.41-.94-4.68-2.44,0,0-.71-7.58,5.88-8.91Z"/>
              <path class="cls-111" d="M14.36,387.69l-.1,5.53s-1.83,1.95-4.97-.41l.3-5.94,4.77.82Z"/>
              <path class="cls-13" d="M9.59,386.87l4.77.82-.05,2.92c-.2-.66-.2-.84-.76-.71-1.83.41-2.33-.21-2.35.72-.01.42-.05,2.23.02,2.66.09.59.6.52,1.16.7-.8.03-1.84-.22-3.09-1.16l.3-5.94Z"/>
              <path class="cls-20" d="M9.41,390.43l.18-3.56,4.77.82-.05,2.63c-1.52.92-3.27.76-4.9.12Z"/>
              <path class="cls-71" d="M16.69,376.52l-.81,11.68s-3.76,3.38-7.71-.61l.2-11.37,8.32.31Z"/>
              <path class="cls-32" d="M12.32,376.36l3.13.12c-.3,4.15-.55,8.3-.71,12.46-.72.36-1.73.69-2.89.58.04-4.39.15-8.78.46-13.15Z"/>
              <path class="cls-20" d="M8.27,382.21l.11-5.99,8.32.31-.37,5.38c-2.37,1.3-5.22,1.15-8.05.31Z"/>
            </g>
            <g>
              <path class="cls-107" d="M69.37,400.71c3.42-.31,9.21,1.23,10.35,4.38,1.14,3.15-2.89,7.45-2.89,7.45-1.45,1.69-1.9,2.23-4.79.92-2.89-1.31-5.93-2.77-6.47-5.3-.53-2.53.38-7.15,3.81-7.45Z"/>
              <path class="cls-100" d="M70.93,405.75c-1.41,3.42-.35,7.12,2.36,8.26,2.71,1.14,6.06-.71,7.47-4.13,1.41-3.42.35-7.12-2.36-8.26-2.71-1.14-6.06.71-7.47,4.13Z"/>
              <path class="cls-107" d="M74.64,407.49c-.41.99-.1,2.07.68,2.39.79.33,1.76-.2,2.17-1.19.41-.99.1-2.06-.69-2.4-.79-.33-1.75.2-2.17,1.2Z"/>
              <path class="cls-111" d="M81.29,402.84s-10.55,5.43-11.36,5.63c-.81.21-2.44-.51-5.38-2.46,0,0-.71-7.58,5.88-8.91,6.59-1.33,9.94,2.77,10.85,5.74Z"/>
              <path class="cls-31" d="M69.84,408.48c-.2-2.9.48-6.03,2.98-7.66,2.73-1.78,6.26-1.3,8.13,1.13.13.3.25.6.34.88,0,0-10.55,5.43-11.36,5.63-.03,0-.06,0-.09,0Z"/>
              <path class="cls-15" d="M70.44,397.1c4.7-.95,7.74.86,9.44,3.06-1.91-1.26-4.45-1.49-6.66-.28-3.16,1.73-4.18,5.2-3.98,8.58-.93-.18-2.41-.94-4.68-2.44,0,0-.71-7.58,5.88-8.91Z"/>
              <path class="cls-111" d="M75.1,393.21l-.1,5.53s-1.83,1.95-4.97-.41l.31-5.94,4.77.82Z"/>
              <path class="cls-13" d="M70.34,392.39l4.77.82-.05,2.92c-.2-.66-.2-.84-.76-.71-1.83.41-2.33-.21-2.35.72-.01.42-.05,2.23.02,2.66.09.59.6.52,1.16.7-.8.03-1.84-.22-3.09-1.16l.31-5.94Z"/>
              <path class="cls-20" d="M70.15,395.94l.18-3.56,4.77.82-.05,2.63c-1.52.92-3.28.76-4.9.11Z"/>
              <path class="cls-71" d="M77.44,382.04l-.81,11.68s-3.75,3.38-7.71-.62l.2-11.37,8.32.31Z"/>
              <path class="cls-32" d="M73.06,381.88l3.14.12c-.3,4.15-.55,8.31-.71,12.46-.72.36-1.73.69-2.89.58.04-4.39.15-8.77.46-13.15Z"/>
              <path class="cls-20" d="M69.01,387.72l.11-5.99,8.32.31-.37,5.38c-2.37,1.3-5.22,1.15-8.05.31Z"/>
            </g>
            <g>
              <path class="cls-107" d="M49.96,410.46c3.43-.31,9.21,1.23,10.35,4.38,1.14,3.15-2.89,7.45-2.89,7.45-1.45,1.69-1.9,2.23-4.79.92-2.89-1.31-5.93-2.77-6.47-5.3-.53-2.53.38-7.15,3.81-7.45Z"/>
              <path class="cls-100" d="M51.51,415.5c-1.41,3.42-.36,7.12,2.36,8.26,2.71,1.14,6.06-.71,7.47-4.13,1.41-3.42.35-7.12-2.36-8.26-2.71-1.14-6.06.71-7.47,4.13Z"/>
              <path class="cls-107" d="M55.23,417.24c-.41.99-.1,2.07.68,2.4.79.33,1.76-.2,2.17-1.2.41-.99.1-2.06-.69-2.39-.79-.33-1.76.2-2.16,1.19Z"/>
              <path class="cls-111" d="M61.88,412.58s-10.55,5.43-11.36,5.63c-.81.21-2.44-.51-5.38-2.46,0,0-.71-7.58,5.88-8.91,6.59-1.33,9.94,2.77,10.85,5.74Z"/>
              <path class="cls-31" d="M50.42,418.23c-.2-2.9.48-6.03,2.98-7.66,2.73-1.78,6.26-1.3,8.13,1.13.13.3.25.6.34.88,0,0-10.55,5.43-11.36,5.63-.03,0-.06,0-.09.01Z"/>
              <path class="cls-15" d="M51.02,406.85c4.7-.95,7.74.86,9.44,3.06-1.91-1.26-4.45-1.49-6.66-.28-3.17,1.72-4.18,5.2-3.98,8.58-.93-.18-2.41-.94-4.68-2.44,0,0-.71-7.58,5.88-8.91Z"/>
              <path class="cls-111" d="M55.69,402.95l-.1,5.53s-1.83,1.95-4.97-.41l.3-5.94,4.77.82Z"/>
              <path class="cls-13" d="M50.92,402.13l4.77.82-.05,2.92c-.2-.66-.2-.84-.76-.71-1.83.41-2.33-.21-2.35.72-.01.42-.05,2.23.02,2.66.09.59.6.52,1.16.7-.8.03-1.84-.22-3.09-1.16l.3-5.94Z"/>
              <path class="cls-20" d="M50.74,405.69l.18-3.56,4.77.82-.05,2.63c-1.52.92-3.27.76-4.9.11Z"/>
              <path class="cls-71" d="M58.02,391.79l-.81,11.68s-3.75,3.38-7.71-.61l.2-11.37,8.32.31Z"/>
              <path class="cls-32" d="M53.65,391.62l3.13.12c-.3,4.15-.55,8.3-.71,12.46-.72.36-1.73.69-2.89.58.04-4.39.15-8.77.46-13.15Z"/>
              <path class="cls-20" d="M49.6,397.47l.11-5.99,8.32.31-.37,5.38c-2.37,1.3-5.22,1.15-8.05.31Z"/>
            </g>
            <g>
              <path class="cls-107" d="M28.04,385.45c3.42-.31,9.21,1.23,10.35,4.38,1.14,3.15-2.89,7.45-2.89,7.45-1.45,1.69-1.9,2.23-4.79.92-2.89-1.31-5.93-2.77-6.47-5.3-.53-2.53.38-7.14,3.81-7.45Z"/>
              <path class="cls-100" d="M29.6,390.49c-1.41,3.42-.35,7.12,2.36,8.26,2.71,1.14,6.06-.71,7.47-4.13,1.41-3.42.35-7.12-2.36-8.26-2.71-1.14-6.06.71-7.47,4.13Z"/>
              <path class="cls-107" d="M33.31,392.23c-.41.99-.1,2.06.68,2.39.79.33,1.76-.2,2.17-1.2.41-.99.1-2.06-.69-2.39-.79-.33-1.75.2-2.17,1.2Z"/>
              <path class="cls-111" d="M39.96,387.57s-10.55,5.43-11.36,5.63c-.81.21-2.44-.51-5.38-2.46,0,0-.71-7.58,5.88-8.91,6.59-1.33,9.94,2.77,10.85,5.74Z"/>
              <path class="cls-31" d="M28.51,393.22c-.2-2.9.48-6.03,2.98-7.66,2.73-1.78,6.26-1.3,8.13,1.13.13.3.25.6.34.88,0,0-10.55,5.43-11.36,5.63-.03,0-.06,0-.09.01Z"/>
              <path class="cls-15" d="M29.11,381.84c4.7-.95,7.74.86,9.44,3.06-1.91-1.26-4.45-1.49-6.66-.28-3.16,1.72-4.18,5.2-3.98,8.58-.93-.18-2.41-.94-4.68-2.44,0,0-.71-7.58,5.88-8.91Z"/>
              <path class="cls-111" d="M33.78,377.94l-.1,5.53s-1.83,1.95-4.97-.41l.31-5.94,4.77.82Z"/>
              <path class="cls-13" d="M29.01,377.12l4.77.82-.05,2.91c-.2-.66-.2-.84-.76-.71-1.83.41-2.33-.21-2.35.72-.01.42-.04,2.23.02,2.66.09.59.6.52,1.16.7-.8.03-1.84-.22-3.09-1.16l.31-5.94Z"/>
              <path class="cls-20" d="M28.83,380.68l.18-3.56,4.77.82-.05,2.63c-1.52.92-3.28.76-4.9.11Z"/>
              <path class="cls-71" d="M36.11,366.77l-.81,11.68s-3.75,3.39-7.71-.61l.2-11.37,8.32.31Z"/>
              <path class="cls-32" d="M31.73,366.61l3.14.12c-.3,4.15-.55,8.31-.71,12.46-.72.36-1.73.69-2.89.58.04-4.39.15-8.78.46-13.15Z"/>
              <path class="cls-20" d="M27.68,372.46l.11-5.99,8.32.31-.37,5.38c-2.37,1.3-5.22,1.15-8.05.31Z"/>
            </g>
            <path class="cls-31" d="M7.77,380.61v-11.88h19.4c2.34-1.15,3.93-1.9,3.93-1.9,0,0,5.19-2.67,8.82-.59l7.35,2.49h30.05l-.16,12.05c.28,1.07-.21,2.38-2.36,3.87l-19.01,10.39s-3.53,2.67-7.94,1.48l-35.27-11.58s-6.1-1.29-4.82-4.33Z"/>
            <path class="cls-11" d="M45.79,368.22l1.48.5h8.79v26.16l-.27.15s-3.53,2.67-7.94,1.48l-2.07-.68v-27.61Z"/>
            <path class="cls-26" d="M40.1,353.36l33.31,11.28s7.84,2.77,1.57,7.13l-19.01,10.39s-3.53,2.67-7.93,1.48l-35.27-11.58s-7.05-1.48-4.41-5.05c2.64-3.56,22.93-13.06,22.93-13.06,0,0,5.19-2.67,8.82-.59Z"/>
            <path class="cls-14" d="M8.36,367.01c2.64-3.56,22.93-13.06,22.93-13.06,0,0,5.19-2.67,8.82-.59l33.31,11.28s.37.13.89.38c-4.49-.72-8.89-2.37-13.23-3.57-3.7-1.02-8.54-2.72-12.27-1.03-.21.1-.22.41-.07.56,1.47,1.48,3.99,3.57,3.91,5.88-.1,2.78-3.17,3.85-5.49,4.08-4.28.43-8.56-.51-12.72-1.39-7.89-1.66-16.29-2.35-23.08,2.09-1.91-.65-4.85-2.13-2.99-4.64Z"/>
          </g>
          <g>
            <path class="cls-31" d="M48.57,284.36v81.2c-1.8,2.8-6.92,2.71-9.74.52v-81.72h9.74Z"/>
            <path class="cls-20" d="M48.57,284.36v81.2c-.64.99-1.68,1.62-2.9,1.92v-83.12h2.9Z"/>
            <path class="cls-20" d="M41.95,284.36v83.13c-1.16-.25-2.25-.73-3.13-1.41v-81.72h3.13Z"/>
          </g>
          <g>
            <path class="cls-23" d="M17.95,280.63c0,3.91,3.14,7.08,7.01,7.08h39.06c3.87,0,7.01-3.17,7.01-7.08v-29.26c0-3.91-3.14-7.08-7.01-7.08H24.96c-3.87,0-7.01,3.17-7.01,7.08v29.26Z"/>
            <path class="cls-10" d="M17.95,260.93v-9.55c0-3.91,3.14-7.08,7.01-7.08h39.06c3.87,0,7.01,3.17,7.01,7.08v9.55H17.95Z"/>
            <g>
              <g>
                <g>
                  <polygon class="cls-2" points="38.18 84.15 61.39 112.81 63.91 110.73 40.7 82.07 38.18 84.15"/>
                  <path class="cls-4" d="M43.38,85.84c-.34,1.1-.85,2.05-1.53,2.85l-3.67-4.54,2.52-2.08,2.77,3.42c-.03.12-.05.24-.09.35Z"/>
                  <path class="cls-4" d="M53.24,97.56l10.67,13.17-2.52,2.08-12.35-15.25c1.4.02,2.8,0,4.2,0Z"/>
                  <rect class="cls-2" x="-32.66" y="147.74" width="132.28" height="4.78" transform="translate(-117.72 178.39) rotate(-88.01)"/>
                  <polygon class="cls-22" points="28.83 216.16 31.49 216.13 35.51 82.64 33.35 83.95 28.83 216.16"/>
                  <path class="cls-5" d="M33.18,89.11l.18-5.16,4.78.17-.18,5.37c-1.57.31-3.21.13-4.77-.37Z"/>
                  <g>
                    <path class="cls-97" d="M31.09,82.64c.07-2.17.44-3.81,2.01-5.36.63-.62,1.54-.85,2.4-.85,2.55,0,5.28.23,6.76,2.64,1.61,2.62.54,8.67-3.19,8.67-1.91,0-3.82.19-5.62-.63-1.71-.79-2.41-2.66-2.36-4.46Z"/>
                    <path class="cls-3" d="M31.09,82.64c.07-2.17.44-3.81,2.01-5.36.48-.47,1.11-.71,1.76-.81,2.54-.17,3.97.94,4.87,2.95.63,1.42.52,2.82,1.06,4.21.16.42.72.64,1.07.29,1.22-1.2,1.06-3.43.38-4.91,0,.01.01.02.02.03,1.61,2.62.54,8.67-3.19,8.67-1.91,0-3.82.19-5.62-.63-1.71-.79-2.41-2.66-2.36-4.46Z"/>
                    <path class="cls-2" d="M31.09,82.64c.06-1.97.55-4.89,2.69-5.65.7-.25,1.83-.33,2.55-.11,2.19.65,3.52,3.11,3.6,5.32.05,1.38-.34,2.68-1.09,3.82-1.26,1.92-3.44,1.97-5.38,1.08-1.71-.79-2.41-2.66-2.36-4.46Z"/>
                    <path class="cls-87" d="M33.42,84.09c.4.96,1.63,1.29,2.28.42.55-.72.48-2.09.26-2.93-.11-.43-.42-1.01-.84-1.22-.83-.4-1.43.29-1.69,1.02-.31.88-.38,1.83-.02,2.7Z"/>
                    <path class="cls-29" d="M33.44,81.39c.26-.73.86-1.42,1.69-1.02.09.05.18.11.26.18-.29-.04-.61.06-.8.25-.74.73-.77,2.09-.43,3.02.27.74,1.18,1.08,1.69.45-.05.09-.09.17-.15.24-.66.87-1.89.55-2.28-.42-.37-.88-.3-1.83.02-2.7Z"/>
                  </g>
                  <g>
                    <path class="cls-66" d="M42.53,99.23s-3.49-.31-3.56,3.22c-.07,3.53,1.65,57.47,1.65,57.47,0,0-.58,5.64,2.69,5.71l70.96-1.38s6.05.44,6.54-4.58c.33-3.31.25-59.08.25-59.08,0,0-.18-2.59-4.36-3.15l-74.16,1.79Z"/>
                    <path class="cls-99" d="M39.86,135.75c.38,12.71.75,24.17.75,24.17,0,0-.58,5.64,2.69,5.71l70.96-1.38s6.05.44,6.54-4.58c.14-1.39.2-12.04.23-23.92H39.86Z"/>
                    <g>
                      <path class="cls-41" d="M46.94,104.02l-7.08-3.91c-.49.48-.86,1.21-.89,2.33-.07,3.53,1.65,57.47,1.65,57.47,0,0-.38,3.74,1.24,5.16l7.23-4.99-2.14-56.07Z"/>
                      <path class="cls-72" d="M121.05,100.59s-.1-1.4-1.82-2.36l-1.23,3.64-.85,58.05s1.33,1.34,2.48,2.54c.61-.66,1.06-1.55,1.18-2.78.33-3.31.25-59.08.25-59.08Z"/>
                    </g>
                    <g>
                      <path class="cls-63" d="M47.68,104.59s-3.13-.27-3.19,2.89c-.06,3.16,1.48,51.52,1.48,51.52,0,0-.52,5.05,2.41,5.11l63.61-1.23s5.42.39,5.86-4.1c.29-2.97.22-52.96.22-52.96,0,0-.16-2.32-3.91-2.82l-66.47,1.6Z"/>
                      <path class="cls-18" d="M117.59,141.09c-2.75,2.19-5.89,3.95-9.07,5.43-7.18,3.35-15.01,5.13-22.91,5.41-5.95.21-11.97-.17-17.86-1.06-7.48-1.12-15.67-3.2-22.27-7.43.27,8.71.49,15.55.49,15.55,0,0-.52,5.05,2.41,5.11l63.61-1.23s5.42.39,5.86-4.1c.11-1.11.17-8.84.2-18.06-.15.13-.3.25-.46.37Z"/>
                    </g>
                    <path class="cls-6" d="M42.21,100.2c-1.68.36-2.26,1.72-2.46,2.68-.12.49-.2,1.18-.2,2.17,0,3.46,1.57,55.13,1.57,55.13,0,0,0,3.6,1.14,3.6,0,0-.57-1.15-.57-4.75s-1.14-53.12-1.14-53.12c0,0,.08-1.83.47-2.89.12-.26.27-.48.44-.67.03-.02.06-.03.09-.05.23-.08.26-.15.18-.23,1.13-.98,2.76-.92,2.76-.92l72.6-2.88s-72.22,1.34-74.88,1.92Z"/>
                  </g>
                  <path class="cls-60" d="M117.16,154.64s0-40.58,0-45.47c0-4.9-3.36-4.28-3.36-4.28l-62.68,1.5s-5.51-1.25-4.65,4.79l.85,45.01s.17,6.27,3.98,6.03l62.33-1.12s3.53-.51,3.53-6.46Z"/>
                  <path d="M117.16,154.64s0-40.58,0-45.47c0-4.9-3.36-4.28-3.36-4.28l-62.68,1.5s-5.51-1.25-4.65,4.79l.85,45.01s.17,6.27,3.98,6.03l62.33-1.12s3.53-.51,3.53-6.46Z"/>
                  <path class="cls-109" d="M115.22,151.91s0-38.35,0-42.98c0-4.63-3.18-4.04-3.18-4.04l-59.24,1.42s-5.2-1.18-4.4,4.53l.8,42.55s.17,5.92,3.76,5.7l58.91-1.06s3.34-.48,3.34-6.11Z"/>
                  <path class="cls-7" d="M49.09,122.36c.73-1.61,1.52-3.21,2.48-4.69.8-1.24,1.68-2.07,3.01-2.8,2.57-1.4,5.48-2.13,8.36-2.6,3.13-.5,6.3-.73,9.47-.84,3.12-.11,6.24-.12,9.36-.24,4.2-.16,8.4-.42,12.61-.39,3.93.03,8.08.18,11.89,1.21,2.49.67,4.66,2.09,6.18,4.13,1.71,2.29,2.67,4.97,3.32,7.75,0-8.41,0-15.18,0-15.18,0,0-.15-2.06-3.59-2.5l-61,1.42s-2.87-.24-2.93,2.56c-.02.95.13,6.47.34,13.36.17-.4.34-.79.52-1.18Z"/>
                </g>
                <path class="cls-2" d="M16.33,250.11c0,4.64,3.72,8.39,8.31,8.39h46.3c4.59,0,8.31-3.76,8.31-8.39v-34.68c0-4.64-3.72-8.4-8.31-8.4H24.64c-4.59,0-8.31,3.76-8.31,8.4v34.68Z"/>
                <path class="cls-4" d="M75.31,208.31c2.36,1.48,3.94,4.11,3.94,7.13v34.68c0,3.01-1.58,5.65-3.94,7.13v-48.94Z"/>
                <rect class="cls-1" x="54.34" y="207.04" width="9.57" height="51.47"/>
                <path class="cls-4" d="M24.64,207.04h4.26v51.47h-4.26c-4.59,0-8.31-3.76-8.31-8.39v-34.68c0-4.64,3.72-8.4,8.31-8.4Z"/>
                <path class="cls-23" d="M13.61,211.78c0,2.66,3.72,4.82,8.31,4.82h52.63c4.59,0,8.31-2.16,8.31-4.82v-1.67c0-2.66-3.72-4.82-8.31-4.82H21.92c-4.59,0-8.31,2.16-8.31,4.82v1.67Z"/>
                <path class="cls-2" d="M13.61,209.18c0,2.66,3.72,4.82,8.31,4.82h52.63c4.59,0,8.31-2.16,8.31-4.82v-1.67c0-2.66-3.72-4.82-8.31-4.82H21.92c-4.59,0-8.31,2.16-8.31,4.82v1.67Z"/>
                <path class="cls-35" d="M16.33,209.29c0,2.15,3.48,3.9,7.79,3.9h49.32c4.3,0,7.79-1.75,7.79-3.9v-1.35c0-2.15-3.49-3.89-7.79-3.89H24.12c-4.3,0-7.79,1.74-7.79,3.89v1.35Z"/>
                <path class="cls-102" d="M16.33,208.99c0,2.03,3.48,3.67,7.79,3.67h49.32c4.3,0,7.79-1.64,7.79-3.67v-1.27c0-2.03-3.49-3.67-7.79-3.67H24.12c-4.3,0-7.79,1.64-7.79,3.67v1.27Z"/>
                <g>
                  <path class="cls-53" d="M69.92,206.28c.4-.14.89-.22,1.43-.22s1.04.09,1.43.22h.86v.76c0,.55-1.03.98-2.29.98s-2.29-.44-2.29-.98v-.76h.86Z"/>
                  <path class="cls-91" d="M69.06,206.28c0,.54,1.03.98,2.29.98s2.29-.44,2.29-.98-1.03-.98-2.29-.98-2.29.44-2.29.98Z"/>
                </g>
                <g>
                  <path class="cls-53" d="M69.92,209.6c.4-.14.89-.22,1.43-.22s1.04.08,1.43.22h.86v.76c0,.54-1.03.98-2.29.98s-2.29-.44-2.29-.98v-.76h.86Z"/>
                  <path class="cls-91" d="M69.06,209.6c0,.54,1.03.98,2.29.98s2.29-.44,2.29-.98-1.03-.99-2.29-.99-2.29.44-2.29.99Z"/>
                </g>
                <g>
                  <path class="cls-53" d="M64.53,206.28c.39-.14.89-.22,1.43-.22s1.04.09,1.43.22h.86v.76c0,.55-1.03.98-2.29.98s-2.29-.44-2.29-.98v-.76h.86Z"/>
                  <path class="cls-91" d="M63.67,206.28c0,.54,1.03.98,2.29.98s2.29-.44,2.29-.98-1.03-.98-2.29-.98-2.29.44-2.29.98Z"/>
                </g>
                <g>
                  <path class="cls-53" d="M64.53,209.6c.39-.14.89-.22,1.43-.22s1.04.08,1.43.22h.86v.76c0,.54-1.03.98-2.29.98s-2.29-.44-2.29-.98v-.76h.86Z"/>
                  <path class="cls-91" d="M63.67,209.6c0,.54,1.03.98,2.29.98s2.29-.44,2.29-.98-1.03-.99-2.29-.99-2.29.44-2.29.99Z"/>
                </g>
                <g>
                  <path class="cls-53" d="M58.93,206.28c.39-.14.89-.22,1.43-.22s1.04.09,1.43.22h.86v.76c0,.55-1.03.98-2.29.98s-2.3-.44-2.3-.98v-.76h.86Z"/>
                  <path class="cls-91" d="M58.07,206.28c0,.54,1.03.98,2.3.98s2.29-.44,2.29-.98-1.03-.98-2.29-.98-2.3.44-2.3.98Z"/>
                </g>
                <g>
                  <path class="cls-53" d="M58.93,209.6c.39-.14.89-.22,1.43-.22s1.04.08,1.43.22h.86v.76c0,.54-1.03.98-2.29.98s-2.3-.44-2.3-.98v-.76h.86Z"/>
                  <path class="cls-91" d="M58.07,209.6c0,.54,1.03.98,2.3.98s2.29-.44,2.29-.98-1.03-.99-2.29-.99-2.3.44-2.3.99Z"/>
                </g>
                <g>
                  <g>
                    <path class="cls-75" d="M56.29,209.55v.88c0,.48-.71.88-1.59.88h-31.46c-.88,0-1.59-.39-1.59-.88v-.88h34.65Z"/>
                    <path class="cls-91" d="M21.65,209.55c0,.48.71.88,1.59.88h31.46c.88,0,1.59-.39,1.59-.88h0c0-.48-.71-.88-1.59-.88h-31.46c-.88,0-1.59.39-1.59.88h0Z"/>
                  </g>
                  <g>
                    <path class="cls-75" d="M56.29,206.2v.88c0,.48-.71.88-1.59.88h-31.46c-.88,0-1.59-.4-1.59-.88v-.88h34.65Z"/>
                    <path class="cls-91" d="M21.65,206.2c0,.48.71.88,1.59.88h31.46c.88,0,1.59-.39,1.59-.88h0c0-.48-.71-.88-1.59-.88h-31.46c-.88,0-1.59.39-1.59.88h0Z"/>
                  </g>
                </g>
                <path class="cls-67" d="M71.14,145.52h.02c.31-.01.56-.26.59-.57l1.06-15.06,2.97,6.24c.1.22.35.36.57.35l14.64-.5,1.23,6.47c.06.3.35.51.61.5.3,0,.55-.22.59-.52l1.38-8.82,1.99,10.73c.06.3.35.52.64.5.31-.02.55-.26.57-.57l.93-13.44,3.06,14.14c.06.29.35.48.61.48.29,0,.54-.22.59-.52l1.6-10.22,1.49,4.32c.09.26.31.42.61.41.27-.01.5-.21.56-.48l2.35-10.23,2.58,9.78c.09.33.41.52.75.44.33-.09.52-.42.43-.75l-3.21-12.18c-.07-.27-.33-.45-.6-.46-.28,0-.52.2-.59.48l-2.42,10.57-1.6-4.62c-.09-.27-.34-.43-.63-.41-.28.02-.5.24-.55.52l-1.48,9.41-3.28-15.15c-.07-.3-.35-.5-.64-.48-.3.02-.54.27-.56.57l-.89,12.93-1.77-9.51c-.05-.29-.26-.5-.61-.5-.3,0-.55.22-.6.52l-1.39,8.85-.67-3.52c-.06-.3-.34-.53-.62-.5l-14.77.5-3.8-7.96c-.12-.25-.39-.39-.67-.34-.27.05-.47.28-.49.56l-.82,11.71-.81-5.59c-.05-.32-.31-.54-.64-.53-.32.02-.57.28-.57.61l-.03,2.34-.39-1.56c-.07-.27-.3-.46-.58-.47-.3,0-.52.17-.6.44l-.53,1.8-.22-1.03c-.06-.28-.31-.49-.6-.49h0l-14.25.1c-.34,0-.61.28-.61.62,0,.34.28.61.61.61h0l13.75-.1.61,2.9c.06.28.29.48.57.49.26.02.53-.17.61-.44l.59-1.98.98,3.91c.08.3.37.5.66.46.21-.02.38-.15.47-.33l.58,4.02c.04.3.3.53.6.53Z"/>
                <path class="cls-96" d="M51.59,153.75h.03l17.71-.82c.34-.02.6-.31.58-.65-.01-.34-.29-.6-.64-.59l-17.71.82c-.34.02-.6.3-.58.64.01.33.28.59.61.59Z"/>
                <path class="cls-96" d="M51.59,153.75h.03l17.71-.82c.34-.02.6-.31.58-.65-.01-.34-.29-.6-.64-.59l-17.71.82c-.34.02-.6.3-.58.64.01.33.28.59.61.59Z"/>
                <path class="cls-96" d="M51.59,156.83h.03l17.71-.82c.34-.02.6-.31.58-.64-.01-.34-.29-.61-.64-.59l-17.71.82c-.34.02-.6.3-.58.64.01.33.28.59.61.59Z"/>
              </g>
              <polygon class="cls-98" points="29.28 203.05 29.36 200.6 34.15 200.6 34.07 203.05 29.28 203.05"/>
              <g>
                <path class="cls-53" d="M75.52,206.28c.39-.14.89-.22,1.43-.22s1.04.09,1.43.22h.86v.76c0,.55-1.03.98-2.29.98s-2.29-.44-2.29-.98v-.76h.86Z"/>
                <path class="cls-91" d="M74.66,206.28c0,.54,1.03.98,2.29.98s2.29-.44,2.29-.98-1.03-.98-2.29-.98-2.29.44-2.29.98Z"/>
              </g>
              <g>
                <path class="cls-53" d="M75.52,209.6c.39-.14.89-.22,1.43-.22s1.04.08,1.43.22h.86v.76c0,.54-1.03.98-2.29.98s-2.29-.44-2.29-.98v-.76h.86Z"/>
                <path class="cls-91" d="M74.66,209.6c0,.54,1.03.98,2.29.98s2.29-.44,2.29-.98-1.03-.99-2.29-.99-2.29.44-2.29.99Z"/>
              </g>
            </g>
          </g>
        </g>
      </g>
      <g>
        <path class="cls-105" d="M309.56,139.23s-12.26,14.45-18.27,15.51c-6.01,1.06-14.14-6.87-19.68-5.18-5.53,1.69-11.32,7.38-13.29,6.63-1.98-.76-2.21-5.9-2.21-5.9,0,0-3.84,5.75-3.7,13.48.14,7.73,4.34,14.61,13.06,16.39,8.72,1.77,23.7-1.02,31.86-6.47,8.17-5.45,10.89-12.04,10.89-12.04,0,0-3.39,1.49-5.04-1.64,0,0,.56-11.31,6.49-18.43l-.11-2.34Z"/>
        <path class="cls-21" d="M303.18,160s.24-4.72,2-9.98c-4.32,7.57-9.6,14.67-15.99,19.51-8.68,6.58-18.35,7.04-26.84.83-4.79-3.5-7.73-9.57-8.29-15.81-.88,2.37-1.71,5.57-1.64,9.22.14,7.73,4.34,14.61,13.06,16.39,8.72,1.77,23.7-1.02,31.86-6.47,8.17-5.45,10.89-12.04,10.89-12.04,0,0-3.39,1.49-5.04-1.64Z"/>
        <g>
          <path class="cls-24" d="M260.64,159.49c.04.05.99-.73,2.42-1.89.72-.58,1.55-1.26,2.47-1.92.92-.67,1.93-1.34,3-1.8,1.07-.47,2.19-.72,3.25-.67,1.05.06,2.03.24,2.85.51,1.64.5,2.7,1,2.7,1,0,0,.27.11.74.29.46.2,1.13.5,1.93.85,1.59.72,3.69,1.81,5.99,2.43,1.14.3,2.34.44,3.46.34,1.12-.09,2.15-.4,2.98-.77.42-.17.79-.36,1.11-.55.33-.17.6-.34.82-.5.44-.3.69-.48.67-.51-.04-.08-1.06.61-2.71,1.24-1.64.69-4,.86-6.18.15-2.19-.67-4.25-1.81-5.83-2.57-.8-.37-1.46-.69-1.93-.91-.47-.2-.74-.32-.74-.32,0,0-1.08-.48-2.8-.96-.85-.26-1.9-.43-3.03-.46-1.14-.02-2.37.29-3.48.83-1.12.52-2.14,1.25-3.04,1.97-.92.71-1.72,1.43-2.41,2.05s-1.25,1.15-1.64,1.53c-.39.38-.6.61-.59.63Z"/>
          <path class="cls-24" d="M256.4,161.29s.18.25.56.63c.19.19.42.42.68.69.13.13.28.27.42.42.16.13.34.26.52.4,1.4,1.19,3.52,2.37,5.77,3.23,2.27.8,4.64,1.21,6.44,1.37.89.1,1.65.08,2.17.11.53.02.82.02.82.02,0,0,.3-.02.82-.05.52-.05,1.28-.04,2.17-.17,1.79-.18,4.17-.62,6.51-1.24,2.33-.66,4.62-1.46,6.3-2.22.85-.34,1.52-.71,2-.95.48-.25.74-.4.73-.42-.03-.07-1.14.42-2.84,1.05-1.69.65-3.99,1.35-6.31,1.93-2.33.53-4.67.9-6.43,1.03-.88.11-1.62.08-2.13.12-.51.02-.81.03-.81.03,0,0-.29.01-.81,0-.51-.02-1.25.01-2.13-.06-1.75-.12-4.08-.45-6.32-1.16-2.22-.76-4.34-1.83-5.77-2.92-.18-.13-.36-.25-.53-.36-.16-.13-.3-.26-.44-.38-.28-.24-.52-.44-.73-.61-.41-.34-.65-.52-.67-.5Z"/>
          <path class="cls-24" d="M255.41,167.95s.12.34.4.9c.13.29.32.62.56.98.23.37.5.78.84,1.19.63.86,1.53,1.71,2.56,2.51,1.04.79,2.27,1.44,3.54,1.96,2.56,1.02,5.31,1.35,7.35,1.4,1.03.03,1.88.01,2.48-.03.6-.03.94-.05.94-.05,0,0,1.37-.11,3.39-.49,2.02-.37,4.7-1.04,7.3-1.98,2.61-.91,5.15-2.07,7-3.05.92-.5,1.68-.94,2.2-1.27.52-.33.81-.54.79-.56-.01-.03-.33.12-.86.41-.54.28-1.32.67-2.25,1.11-1.88.88-4.42,1.94-7.03,2.76-2.6.85-5.25,1.45-7.24,1.77-1.99.33-3.33.41-3.33.41,0,0-.33.03-.92.07-.59.05-1.42.08-2.42.08-2-.01-4.68-.26-7.19-1.18-1.24-.47-2.45-1.06-3.48-1.79-1.02-.74-1.93-1.53-2.58-2.33-1.35-1.57-1.97-2.88-2.04-2.83Z"/>
        </g>
      </g>
    </g>
  </g>
</svg>