<?xml version="1.0" encoding="UTF-8"?>
<svg id="Layer_7" data-name="Layer 7" xmlns="http://www.w3.org/2000/svg" viewBox="0 0 100 100">
  <defs>
    <style>
      .cls-1 {
        fill: #94d5a3;
      }

      .cls-2 {
        fill: #a4dcaa;
      }

      .cls-3 {
        fill: #e17a66;
      }

      .cls-4 {
        fill: #b2e49e;
      }

      .cls-5 {
        fill: #8fd7f8;
      }

      .cls-6 {
        fill: #80b3fa;
      }

      .cls-7 {
        fill: #80b4fa;
      }

      .cls-8 {
        fill: #95d5a3;
      }

      .cls-9 {
        fill: #dc636e;
      }

      .cls-10 {
        fill: #868086;
      }
    </style>
  </defs>
  <path class="cls-4" d="M78.9,10.9h.63s1.99,1.39,1.99,1.39l8.5-4.62.76.02c4.69,2.32,3.33,7.01,3.2,11.21-.14,4.48-.35,8.92-.57,13.39-.21,4.27.87,9.63-3.57,11.98-.6-.19-1.21-.39-1.75-.73-6.88-4.27-13.87-8.61-20.54-13.07-4.65-3.35-3.11-10.02,2.02-11.95,1.69-1.43-.3-2.44-1.67-2.82-4.49-1.24-9.22-2.03-13.88-1.97C27.24,11.06,6.97,37.35,16.3,62.66c4.66,12.64,16.62,22.05,30.08,23.47,3.28.35,6.65-.43,8.85,2.65,2.57,3.62.45,8.3-3.66,9.41h-.19c-.98-.29-2.37-.44-4.19-.47C13.86,91.78-3.07,52.15,15.46,23.77,23.4,11.61,37.65,1.72,52.5,1.66c8.55-.48,19.43,4.64,26.4,9.24Z"/>
  <path class="cls-1" d="M52.5,1.66c-18.43,1.03-35.74,15.15-41.67,32.33-9.93,28.74,9.4,60.87,39.88,63.83.36.03.76-.23.66.37h-2.64c-.42-.16-.9-.16-1.32,0-.37-.02-.76.03-1.13,0C18.15,95.88-1.95,69.31,2.78,41.59,6.81,17.98,28.48.43,52.5,1.66Z"/>
  <path class="cls-6" d="M90.4,71.8c.02-.67,2.77-.7,2.99-.44.16.2.27.35.2.62l-9.95,22.5c-.23,1.23.21,2.01,1.07,2.85l-.16.49-1.13.38h-.38c-1.73-.67-3.16-2.05-2.44-4.04l9.79-22.35Z"/>
  <path class="cls-2" d="M48.73,98.19h-1.32c.24-.31,1.08-.31,1.32,0Z"/>
  <path class="cls-3" d="M35.72,37.67c4.51.67,8.23,4.13,8.65,8.79.56,6.34-6.86,13.46-9.97,18.55h8.96c.05,0,.8.46.94.57,2.25,1.69,1.17,5.03-1.5,5.29s-5.63.1-8.3.19c-1.34.04-2.97.11-4.25-.2l.07-.22c-2.33-.9-2.34-3.88-.83-5.64,3.05-4.08,6.11-8.16,9.17-12.24,2.9-3.21,4.01-9.22-1.81-8.75l-.57-.12c-1.78-.89-4-.23-5.06,1.44-.89,1.41-.34,2.3-2.1,3.27-1.3-.04-1.74-2.02-1.56-3.17.62-3.83,4.14-7.63,8.16-7.77Z"/>
  <path class="cls-5" d="M84.56,97.82c-.28-.69-.94-.87-1.19-1.73-.16-.57-.19-1.14-.08-1.72l9.94-22.49c.05-.38-.01-.24-.28-.28-.91-.12-1.87.2-2.55.19-3.11-.04-6.36-.15-9.52-.19-.32,0-.84.12-1.03-.19.2-.33.57-.46,1.11-.37-1.49-1.37-1.44-3.57.1-4.89-.55.06-.89-.08-1.02-.4,1.06-.52,2.42-.03,3.48,0,4.07.14,8.18-.13,12.25,0,2.82,1.01,2.35,2.94,1.46,5.21-3.44,8.75-7.92,17.43-11.62,26.09l-1.05.75Z"/>
  <path class="cls-1" d="M89.84,44.27c-1.99,1.05-3.82,1.05-5.85.1l-22.71-14.43c-2.09-1.89-2.77-4.72-1.7-7.35,1.16-2.84,4.43-3.81,6.88-5.19-3.72-2.07-8.21-3.25-12.44-3.68.2-.31.72-.19,1.03-.19,4-.04,7.75.31,11.6,1.42,1.18.34,3.79.88,3.92,2.31.15,1.6-1.34,1.72-2.28,2.35-2.59,1.71-3.77,4.6-2.78,7.61.69,2.12,2.16,2.89,3.87,4.05,6.66,4.53,13.8,8.46,20.46,13.01Z"/>
  <path class="cls-10" d="M79.98,49.02c1.52-.31,2.18,1.38,1.4,2.55-5.93,10.78-10.46,22.85-16.4,33.56-1.2,2.16-3.41,1.09-2.97-.69l16.85-34.44c.22-.4.66-.87,1.12-.97Z"/>
  <path class="cls-9" d="M36.29,43.9c2.31-1.43,5.44,1.09,5.24,3.62-.35,4.51-10.07,14.38-12.36,18.77-.99,1.67.12,4.09,2.02,4.38.01.34-.7.18-.94.19-1.27.03-2.46.13-3.49-.75-1.6-1.37-1.13-3.16-.17-4.7,2.49-3.99,11.16-13.49,11.72-17.51.23-1.64-.52-3.26-2.02-4Z"/>
  <path class="cls-9" d="M61.93,37.48c-1.62.81-2.33,1.97-3.28,3.41-3.58,5.42-6.45,11.59-9.77,17.19-.41,1.09-.07,2.48.79,3.26.33.31.8.32.95.65h-2.45c-.91-.18-1.39-.26-1.99-1.12-1.41-2.02.24-3.98,1.2-5.79,1.76-3.3,3.75-6.78,5.66-9.99,1.33-2.24,3.61-6.82,6.07-7.69,1.29-.46,1.63-.35,2.82.09Z"/>
  <path class="cls-9" d="M35.72,37.67c-3.37.91-6.14,2.94-7.36,6.31-.7,1.94-.77,3.07.76,4.62-2.38,1.31-4.58-.52-4.32-3.09.5-4.91,6.23-8.54,10.92-7.84Z"/>
  <path class="cls-8" d="M90.78,7.7l-9.23,5.01c-.21.03-2.25-1.55-2.65-1.81,3.94-1.65,7.4-5.42,11.88-3.21Z"/>
  <path class="cls-9" d="M59.1,62.18s.22-.2.46-.19c.85,0,1.71,0,2.56,0v5.75c0,.35.89,1.63,1.32,1.79-.08.05-.11.25-.47.37-1.4.47-2.83-.08-3.53-1.37-.81-1.5-.1-4.6-.34-6.35Z"/>
  <path class="cls-7" d="M80.03,65.77c.28-.03,2.26-.05,2.26.09-2.07.8-2.82,3.26-1.12,4.88.29.28.81.34.92.68-.73-.05-1.55.08-2.26,0-2.94-.31-3.2-5.29.19-5.66Z"/>
  <path class="cls-3" d="M65.14,56.15c-.23-4.4.31-9.12,0-13.49-.17-2.4-.84-4.31-3.21-5.18-1.05-.17-1.9.84-2.5,1.62-.77.99-1.56,2.2-2.19,3.3-2.96,5.12-5.94,10.29-8.7,15.52-.57,1.09,0,2.85.81,3.69-.67-.13-1.06,0-1.18.38,1.74.34,2.63,0,4.23,0,2.24-.03,4.52.18,6.7.2.84.38,1.85.32,3.02-.19l-.38.28c-.14,1.01-.13,4.28,0,5.3.01.11.23.15.38.17-.69.4.7,2.3,1.32,1.79.84-.48,1.29-.78,1.46-1.84.17-1-.15-5.13.13-5.53.11-.15,1.56-.21,2.27-.74,2.47-1.83.78-5.57-2.17-5.28ZM59.1,56.15h-5.47l5.47-9.43v9.43Z"/>
</svg>