<?xml version="1.0" encoding="UTF-8"?>
<svg id="Layer_7" data-name="Layer 7" xmlns="http://www.w3.org/2000/svg" viewBox="0 0 96.69 96.71">
  <defs>
    <style>
      .cls-1 {
        fill: #016fda;
      }

      .cls-2 {
        fill: #c0cee7;
      }

      .cls-3 {
        fill: #004080;
      }

      .cls-4 {
        fill: #8292b0;
      }

      .cls-5 {
        fill: #02b8f1;
      }

      .cls-6 {
        fill: #8293b1;
      }

      .cls-7 {
        fill: #ecf3f9;
      }

      .cls-8 {
        fill: #2b2b37;
      }

      .cls-9 {
        fill: #393d48;
      }

      .cls-10 {
        fill: #8597b9;
      }

      .cls-11 {
        fill: #8393b1;
      }

      .cls-12 {
        fill: #a7b6d3;
      }

      .cls-13 {
        fill: #006fda;
      }
    </style>
  </defs>
  <path class="cls-2" d="M33.12,31.43l.29.4c-.74,3.15,2.13,6,5.27,5.1l.41.27c.17.15.33.31.48.48.69.83,3.01,5.88,3.15,6.91.03.23.03.45.03.68h-4.5c-1.45-1.97-4.59-1.08-4.91,1.31l-.4.23c-3.27,2.11-5.89,5.07-6.15,9.14-.34,5.15,3.51,14.7,9.42,15.48l.1.51c-1.72,2.81-3.25,5.72-4.59,8.75l-.51.17c.1-.43-.24-.41-.48-.57-1.97-1.37-3.59-2.5-5.3-4.24l-.23-.51c2.41-3.11,2.58-4.64,0-7.77-4.18-7.66-5.4-18.25.99-25.07,2.92-2.27,2.77-3.02,1.21-6.26l-2.31-4.35.14-.66h7.89Z"/>
  <path class="cls-13" d="M58.71,35.28l-.26.55c-6.82,3.98-13.85,2.77-16.71-5.14-2.51-4.75-5.05-9.65-6.89-14.69l.39-.35c2.26-1.71,4.93-3.02,7.7-3.66,1.37-.64,2.8-1.19,4.14-1.92l.19.19,11.45,25.01Z"/>
  <path class="cls-7" d="M25.43,76.07c-11.63-11.82-13.37-33.24-.19-44.63.87,2.18,2.51,4.44,3.3,6.6,1.14,3.12-.59,3.34-2.25,5.13-6,6.46-4.81,16.95-.89,24.18.83,1.54,2.36,2.9,2.13,4.76-.17,1.45-1.73,2.55-2.1,3.96Z"/>
  <path class="cls-8" d="M32.35,89.92l.04.43c-.98.73-.82,2.11.47,2.27h46.45c.89-.1,1.41-.55,2.07-1.13l.42.16c1.25,1.17,2.03,2.66,1.92,4.42H22.15c-.24-2.75,2.32-5.76,5-6.16l.28-.42c1.53-.06,3.05-.05,4.58.04l.34.38Z"/>
  <path class="cls-3" d="M58.71,35.28l1.73,3.46c-1.48.48-2.83,1.27-4.23,1.93l-.34.58c-2.61,1-5.1,2.22-7.48,3.65h-.65s-.25-.16-.51-.04c-.54.25-3.44,1.73-3.66,1.75-.51.05-.68-.98-.83-1.32-1.2-2.7-2.54-5.34-3.66-8.08l.17-.48c5.22-2.27,1.24-10.14-3.72-7.44l-.48-.17-5-11.06c1.45-.58,2.82-1.36,4.23-2.02-.12-.57.64-.83.96-.38-.07.39.08.69.22,1.03,1.65,4.12,4.16,9.05,6.16,13.08,1.3,2.62,2.16,4.97,4.8,6.55,4.49,2.7,8.03.99,12.3-1.04Z"/>
  <path class="cls-13" d="M44.86,68.57c.22.09.37,0,.49-.24.18-.05,3.2,1.32,2.98,1.98,2.79,2.22,2.99,5,3.08,8.27.61.99.58,2.45,0,3.46,0,.77,0,1.54,0,2.31-.21,2.25-1.66,2.77-3.66,2.94-5.08.42-12.56-.21-12.01-7.13.17-2.14,3.46-9.52,5.06-10.79.74-.59,1.37-.85,2.34-.8.64-.16,1.05-.18,1.73,0Z"/>
  <path class="cls-3" d="M43.12,68.57c-.96.24-2.04.89-2.66,1.67-1.01,1.28-3.29,6.33-3.92,8.01-1.38,3.73.4,7.33,4.27,8.31,1.55.39,6.54.53,8.09.2,1.32-.28,1.98-1.28,2.49-2.42v5.58c-.53.1-1.06.19-1.59.26s-1.06.12-1.59.13c-4.23.03-8.47.02-12.7-.02-1.07-.01-2.12-.18-3.17-.36-1.54.02-3.78-.21-5.19,0-.64.05-.31-.11-.16-.44,1.28-2.88,2.78-5.78,4.2-8.6,1.29-2.57,3.37-7.34,5-9.43,1.39-1.77,4.66-3.57,6.93-2.89Z"/>
  <path class="cls-9" d="M51.4,89.92c8.88-.01,17.76,0,26.64,0,1.52.16,2.66.7,3.75,1.73-.78.62-1.49,1.38-2.59,1.35h-46.38c-1.79-.21-1.91-2.26-.48-3.09,6.34-.07,12.7,0,19.05,0Z"/>
  <path class="cls-2" d="M74.87,54.52l-.87.7c-5.24,2.58-10.64,4.91-16.02,7.23-.33.14-.69.24-1.05.33s-.73.16-1.1.21l-.2.51c-1.22.47-2.39,1.04-3.51,1.72l-.52-.11s-.24-.16-.51-.04c-.9.42-1.83.8-2.73,1.22l-.03,4.01c-.59-.47-2.74-1.55-3.46-1.73.58.11.37-.29.38-.66.04-1.08-.31-3.03.48-3.76l29.53-13.37c1.83-.67,3.19,1.28,1.64,2.6-.27.23-1.67.98-2.02,1.15Z"/>
  <path class="cls-3" d="M70.06,60.48c-3.19,2.11-6.72,3.73-10.39,4.81-2.2,1.03-4.43,2.03-6.64,3.03-.31-.05-1.21-2.74-1.44-3.23,1.49-1.03,2.54-1.35,4.23-2.12l1.16-.08,17.71-7.87.37.26c.18.45,1.08,2,.88,2.31-1.94.99-3.91,1.97-5.88,2.88Z"/>
  <path class="cls-11" d="M71.98,72.99c-.04.13-.08.26-.15.37-.37.65-7.95,3.66-9.32,4.16l-.73-.1c-.79,1.01-2.39,1.82-3.66,1.73-2.22.99-4.55,1.8-6.73,2.89-.01-1.15.03-2.31,0-3.46l19.57-8.62c2.04-.41,2.74,2.1,1.01,3.04Z"/>
  <path class="cls-9" d="M42.16,10.46c-.09.38-.43.62-1.03.72-2.95,1.35-5.02,2.24-6.87-1.27l-2.68-6.37c1.98-.93,3.92-2.01,5.97-2.8,1.68,3.18,3.01,6.52,4.61,9.73Z"/>
  <path class="cls-9" d="M54.86,55.1l-.44-.17c-.45-.67-1.73-3.8-2.02-4.68-.8-2.39-.67-4.05,1.76-5.24,1.11-.48,2.18-1.02,3.21-1.64,1.3,2.87,2.66,5.72,4.02,8.56-.03.36-5.73,2.81-6.52,3.17Z"/>
  <path class="cls-8" d="M57.36,43.36c.1.59-.03.46-.37.68-1.38.87-4.18,1.49-4.59,3.3-.53,2.37,1.92,5.44,2.46,7.75-.31.14-1.89,1.13-2.11.96l-5-11.16c2.25-1.77,5.75-2.96,8.47-4.23.35.9.75,1.81,1.15,2.69Z"/>
  <path class="cls-8" d="M31.58,3.54c.46-.01.51.25.67.58.86,1.67,2.16,6.17,3.41,7.17,2.3,1.82,4.19-.38,6.49-.82.26.51.52,1.03.77,1.54-2.57,1.2-5.12,2.46-7.7,3.66-.33.15-.68.25-.96.38l-5.2-11.44c.8-.4,1.7-.68,2.51-1.06Z"/>
  <path class="cls-8" d="M39.08,37.21c-3.61,1.28-7.08-2.07-5.96-5.77.21-.68,1.3-1.93,1.92-2.31,5.78-3.53,10.28,5.86,4.04,8.08Z"/>
  <path class="cls-2" d="M72.56,74.72c.14.49.6,1.26.08,1.52l-13.45,5.96c-.27-.03-1.01-2.58-1.05-3.05,1.22-.54,2.43-1.19,3.66-1.73.97,1,2.28.98,3.92-.07l5.77-2.77c.56-.3.92-.25,1.09.15Z"/>
  <path class="cls-10" d="M70.06,60.48c-.04.3.08.51.19.77.17.38.2.67.06.87l-4.14,1.75c-1.43.67-2.87,1.77-2.38,3.53l-.29.39c-.84.36-1.39.93-2.38.36-.72-.41-1.17-2.09-1.46-2.86,3.45-1.62,6.94-3.21,10.39-4.81Z"/>
  <path class="cls-8" d="M38.7,45.29c1.33,2.2-.66,4.9-3.16,4.6-1.45-.17-2.68-1.59-2.62-3.06.12-3.05,4.19-4.16,5.77-1.54Z"/>
  <path class="cls-12" d="M63.52,67.8c-1.24-3.75,3.85-4.62,6.32-5.91.34-.18.53.07.42-.63.42.97,1.29,2.17.29,3.08-2.31,1.15-4.66,2.43-7.03,3.46Z"/>
  <path class="cls-7" d="M71.98,72.99c.08.61.41,1.16.58,1.73-.41,0-.78.14-1.15.29-2.05.84-5.96,3.14-7.84,3.52-.8.16-1.82-.11-1.78-1.11,3.11-1.38,7.34-2.87,10.2-4.42Z"/>
  <path class="cls-1" d="M74.87,54.52c.08.25.1.53.19.77l-17.79,7.9c-.55.31-.96.1-1.45-.2,6.29-2.85,12.85-5.52,19.05-8.47Z"/>
  <path class="cls-5" d="M44.8,13c.69-.15,1.24,0,1.68.55.49.59,2.78,5.28,3.08,6.15.27.79.55,1.3-.11,2s-1.75.68-2.38-.09c-.34-.41-3.14-5.98-3.28-6.53-.24-.88.04-1.87,1.01-2.08Z"/>
  <path class="cls-8" d="M43.07,73.04c4.33-.7,4.96,5.46,1.25,6.06-4.33.7-4.96-5.46-1.25-6.06Z"/>
  <path class="cls-6" d="M36.92,29.94c4.33-.7,4.96,5.46,1.25,6.06-4.33.7-4.96-5.46-1.25-6.06Z"/>
  <path class="cls-4" d="M35.57,45.32c2.25-.49,2.65,2.62.87,3-2.25.49-2.65-2.62-.87-3Z"/>
  <path class="cls-4" d="M43.26,74.57c2.25-.49,2.65,2.62.87,3-2.25.49-2.65-2.62-.87-3Z"/>
</svg>