<?xml version="1.0" encoding="UTF-8"?>
<svg id="Layer_7" data-name="Layer 7" xmlns="http://www.w3.org/2000/svg" viewBox="0 0 100.28 100.28">
  <defs>
    <style>
      .cls-1 {
        fill: #e67186;
      }

      .cls-2 {
        fill: #97d2cf;
      }

      .cls-3 {
        fill: #4689d2;
      }

      .cls-4 {
        fill: #b0b4c9;
      }

      .cls-5 {
        fill: #afb4c9;
      }

      .cls-6 {
        fill: #b0b5c9;
      }

      .cls-7 {
        fill: #cbd2de;
      }

      .cls-8 {
        fill: #53d7d7;
      }

      .cls-9 {
        fill: #46a9a6;
      }

      .cls-10 {
        fill: #f2f7fb;
      }

      .cls-11 {
        fill: #b6f8f6;
      }

      .cls-12 {
        fill: #f3f7fb;
      }
    </style>
  </defs>
  <path class="cls-8" d="M61.16,65.23c.21.49.25,1.16.81,1.42v.46c-1.01.6-.66,1.6.46,1.62l.36.36c.94,2.05,1.9,4.1,2.94,6.11,2.61,5.02,6.69,11.02,8.75,16.07,1.37,3.36-.51,6.34-4.06,6.72-14.07-.13-28.15.15-42.21,0-2.23-.12-4.01-2.44-4.05-4.59,0-.47.1-1.18.59-1.31.42-.13.86-.24,1.32-.34,1.79-2.99,3.68-6.44,5.12-9.61.11-.23-.54-.86-.91-.66l-.24-.38c-.06-.46.16-.53.54-.61.29-1.04.72-1.58,1.29-1.62,1.9-.15,2.69-1.81,1.83-3.46.04-.49.08-.99.29-1.44,1.93-4.15,3.65-7.96,5.39-12.21.19-.46.51-.84.83-1.21.04-.18.11-.17.2,0l.61-.37c3.57.74,7.02,2.01,10.35,3.8,2.85,1.13,6.01,1.54,9.04.98l.74.26Z"/>
  <path class="cls-11" d="M61.16,65.23c-2.56.58-4.98.5-7.53-.1-4.57-1.07-8.36-4.39-13.22-4.58l-.36-.24c1.53-5.57,3.05-11.14,4.58-16.71l.46-.13.45-.02c3.07,2.64,4.62-3.29.54-2.39l-.38-.23c-.46.16-.66-.02-.6-.49.82-4.52,1.44-9.13,1.55-13.75.08-3.33-.28-3.75-2.64-5.77-.96-1.38-.81-3.73.65-4.72l-3.72-.13-.52-.37c.21-.34.77-.2,1.12-.21,2.06-.03,4.07.15,6.1.22,1.76.05,4.02-.23,5.69,0,3.03.43,3.53,4.88.67,6.13-.38.17-.96.11-1.17.25-.32.22-.22,3.44-.2,4.09.35,12.68,3.53,27.52,8.55,39.15Z"/>
  <path class="cls-1" d="M32.28,35.94c2.74-.16,5.32.36,7.53,2.03.06.29.12.58.15.87s.05.57,0,.85c-.84,5.66-2.34,11.53-4.13,16.96-.09.26-.23.51-.39.75s-.33.48-.52.71c-2.18.1-4.71-.07-6.71-1.02-.43.55-2.22-.78-2.03-1.42-3.08-2.48-4.34-5.84-4.07-9.76-.7-.39-.16-2.57.61-2.64,1.14-3.28,3.74-5.9,7.12-6.92.35-.78,1.85-1.02,2.44-.41Z"/>
  <path class="cls-2" d="M40.41,15.6c1.72-.19,3.73.14,5.49,0l-1.51,1.23c-.57.74-.65,1.81-.51,2.72.3,1.88,2.79,2.17,3.04,4.28.51,4.24-.6,11.66-1.3,16.01-.05.3-.32.79.07.98,0,.44-.14.93-.39,1.48.11.53.04.92-.22,1.16l-4.68,17.09c-.07,0-.14,0-.2,0l-.53.42c-1.83.16-3.62.57-5.35,1.24l-.63-.23c.47-1.26.8-2.59,1.22-3.86,2.2-6.59,3.9-13.22,4.88-20.14.46-3.22.87-6.6,1.03-9.86.1-1.99-.24-4.06.2-6.01-4.04-.11-4.58-6.08-.61-6.51Z"/>
  <path class="cls-9" d="M40.21,60.55c-1.66,5.15-3.99,10.07-6.51,14.85l-.2.38c-1.37.42-1.62,1.86-1.63,3.08-.37.39-.75,1.63-1,1.9-.12.14-.55.19-.83.33.07.27-.06.5-.38.69-1.65,2.98-3.3,5.97-4.93,8.97.16.57.17,1.01.03,1.33.1.38-.21.89-.18,1.3.14,2.27,1.68,3.73,3.64,4.6-3.17-.04-7.66.85-9.26-2.63-.81-1.75-.55-2.82.2-4.49,4.47-9.86,10.6-18.33,14.55-28.87,2.21-.69,4.12-1.44,6.51-1.42Z"/>
  <path class="cls-1" d="M23.53,59.94c.52-.5,2.09.55,1.83,1.22,4.53,4.63-1.7,12.25-7.31,8.22-5.08-3.65-.65-11.85,5.48-9.45Z"/>
  <path class="cls-1" d="M29.43,22.31c.04.84-2.18,1.19-2.44.41-7.69-.2-6.7-12.11,1.43-10.69,5.05.88,5.83,8.34,1.01,10.28Z"/>
  <path class="cls-1" d="M16.41,41.84c.72.4.21,2.43-.61,2.44-2.7,5.21-11.41,2.78-10.28-3.67,1.1-6.31,11.03-5.61,10.89,1.23Z"/>
  <path class="cls-8" d="M45.77,3.06c3.06-3.27,8.26,1.35,5.33,4.82-3.13,3.71-8.68-1.23-5.33-4.82Z"/>
  <path class="cls-5" d="M32.28,35.94c-.83.05-1.65.17-2.44.41l-2.85-13.63c1.05.03,1.48-.02,2.44-.41l2.85,13.63Z"/>
  <path class="cls-7" d="M3.55,53.68c4.3-.63,5,6.22.53,6.39-3.97.15-4.61-5.79-.53-6.39Z"/>
  <path class="cls-7" d="M6.72,24.28c-1.35-1.35-1.16-3.55.33-4.72,2.82-2.21,6.44.92,4.72,4.11-.96,1.78-3.68,1.98-5.06.6Z"/>
  <path class="cls-6" d="M22.72,43.26c-.35,1.01-.53,1.55-.61,2.64l-6.31-1.63c.37-.72.59-1.64.61-2.44l6.31,1.42Z"/>
  <path class="cls-4" d="M28.21,57.1l-2.85,4.07c-.36-.37-1.34-1.03-1.83-1.22l2.64-4.27c.45.36,1.58,1.21,2.03,1.42Z"/>
  <path class="cls-12" d="M30.04,81.1c.92-.14,1.44.2,1.54,1.12-1.48,3.35-3.45,6.53-5.19,9.77-.42.46-1.13.37-1.64.09-.08-.31-.78-.92-.31-1.64,1.83-2.52,3.03-6.39,4.82-8.81.37-.49.4-.34.78-.54Z"/>
  <path class="cls-10" d="M33.7,75.4c1.87.49.07,4.74-1.83,3.46-1.15-.78.54-3.8,1.83-3.46Z"/>
  <path class="cls-8" d="M47.89,51.44c3.31-.46,4.62,4.36,1.52,5.6-4.17,1.67-5.89-5-1.52-5.6Z"/>
  <path class="cls-8" d="M45.09,43.47c-.41-.87-.19-2.06.61-2.64,2.09-1.51,4.57,1.68,2.55,3.26-.97.75-2.61.54-3.16-.61Z"/>
  <path class="cls-3" d="M97.92,15.85c-.69.21-1.57,3.14-2.07,4.03-2.98,5.26-9.53,7.49-15.01,9.12-4.3-4.63-8.48-10.02-7.87-16.75.1-1.15,1.35-3.61-.36-3.94-1.72-.33-2.01,2.89-2.1,4.13-.4,5.62,1.8,9.77,5.01,14.13.56.75,2.09,2.24,2.42,2.86.11.21.13.38.1.61-7.29,1.98-14.38,5.51-16.78,13.22-2.63,8.43,1.78,15.04,7.02,21.15-2.06.64-4.39,1.23-6.31,2.24-1.95,1.03-.73,2.81.81,2.44.29-.07,1.37-.74,1.83-.91.95-.34,4.49-1.76,5.2-1.72.48.03,2.38,2.5,2.81,3.06,3.04,3.87,5.61,8.15,5.2,13.3-.09,1.17-1.16,3.47-.06,4.13,1.93,1.17,2.43-2.97,2.51-4.12.41-5.87-2.44-10.64-5.91-15.05-.25-.32-2.01-2.13-1.82-2.34,7.23-1.95,14.3-5.4,16.83-12.97,2.85-8.52-1.62-15.18-6.87-21.41,5.85-1.82,12.21-4.35,15.42-9.91.63-1.09,3.21-6.27-.02-5.31ZM87.8,48.25c-.24,3.09-1.78,6.56-3.93,8.78-3.32,3.42-8.7,5.12-13.16,6.48-4.69-5.54-9.46-11.43-7.21-19.23,2.2-7.63,9.47-10.19,16.31-12.38l.26.06c3.83,4.64,8.24,9.81,7.73,16.28Z"/>
  <path class="cls-3" d="M67.21,44.32c.51-.14,1.04.12,1.52.23,4.87,1.08,9.83,3.03,14.71,4.2,1.53.57,1.11,2.6-.56,2.41l-15.66-4.49c-1.07-.34-1.02-2.07,0-2.35Z"/>
  <path class="cls-3" d="M73.06,39.09l8.65,2.44c1.47.64.97,2.46-.69,2.33-.98-.08-7.48-1.94-8.41-2.38-1.44-.69-1.03-2.18.45-2.39Z"/>
  <path class="cls-3" d="M68.83,51.64c.45-.14.86-.01,1.29.05,1.48.22,6.63,1.63,7.92,2.24,1.55.73,1.18,2.5-.69,2.32-1.05-.1-7.46-1.91-8.41-2.38-1.01-.49-1.13-1.94-.12-2.24Z"/>
</svg>