<?xml version="1.0" encoding="UTF-8"?>
<svg id="Layer_7" data-name="Layer 7" xmlns="http://www.w3.org/2000/svg" viewBox="0 0 100.28 100.28">
  <defs>
    <style>
      .cls-1 {
        fill: #e3f6fe;
      }

      .cls-2 {
        fill: #fecdbe;
      }

      .cls-3 {
        fill: #fedece;
      }

      .cls-4 {
        fill: #f5f4f5;
      }

      .cls-5 {
        fill: #f9f6f6;
      }

      .cls-6 {
        fill: #e17a66;
      }

      .cls-7 {
        fill: #a69aa6;
      }

      .cls-8 {
        fill: #bab1ba;
      }

      .cls-9 {
        fill: #feaf9d;
      }

      .cls-10 {
        fill: #d1cbd1;
      }

      .cls-11 {
        fill: #c7eefd;
      }

      .cls-12 {
        fill: #b4acb5;
      }

      .cls-13 {
        fill: #e4e0e4;
      }

      .cls-14 {
        fill: #f2f1f1;
      }

      .cls-15 {
        fill: #eeecee;
      }

      .cls-16 {
        fill: #e3f6fd;
      }

      .cls-17 {
        fill: #b0eafc;
      }

      .cls-18 {
        fill: #98e5fb;
      }

      .cls-19 {
        fill: #908290;
      }

      .cls-20 {
        fill: #eceaec;
      }
    </style>
  </defs>
  <path class="cls-11" d="M98.33,72.65c.06.36.12.74.19,1.13v2.83c-.07.39-.13.77-.19,1.13.36,7.77-5.57,14.97-12.16,18.51-2.01,1.08-4.67,2.34-6.91,2.07-4.99-.65-10.18-3.73-13.22-7.69l.19-.43.32-.31c5.54.56,11.27.49,16.84.07,5.6-1.53,3.06-6.67.93-10.12l.23-.4c-1.23-1.86-2.3-3.81-3.17-5.85l-.09-12.86c-.27-.74-9.47-.53-10.85-.41-.29.03-1.35.13-1.46.34l-.14,12.92c-.88,2.05-1.95,4-3.18,5.85l.23.39c-1.01,1.7-1.84,3.47-2.47,5.31l-.4.15c-.14-.07-.28-.14-.4-.23-.97-.74-1.93-5.08-2.13-6.49-1.54-10.7,4.47-21.22,14.49-25.33,1.41-.58,2.72-1.09,4.28-1,9.77,1.67,18.47,10.28,19.07,20.39Z"/>
  <path class="cls-18" d="M79.26,52.26c-6.37,1.52-11.76,5.18-15.18,10.78-4.05,6.63-4.67,15.31-1.05,22.26l.36.34c-.07,1.81.9,3.52,2.66,4.12l.2.45c.46.89,1.5,1.88,2.26,2.55,3.18,2.77,6.76,4.35,10.76,5.57-.6.23-1.29.35-2.08.38h-.76c-.87-.16-1.77-.16-2.64,0h-.94c-.39-.07-.77-.13-1.13-.19-4.29-.18-8.44-2.22-11.75-4.89-1.61-1.3-3.5-2.93-4.11-4.93-.61-.16-1.08-.68-1.39-1.57-.61-.8-.84-1.54-.68-2.21-.14-.09-.28-.18-.4-.29-.96-.88-1.77-5.22-1.93-6.71s-.3-6.26.49-7.37c.09-.13.21-.25.33-.36,2.72-12.47,14.45-20.09,27-17.94Z"/>
  <path class="cls-5" d="M27.72,78.5c.53.2.54.75,0,.94.38,1.23.52,2.55.42,3.97l3.65,13.52c.11.53.17,1.26.08,1.76h-1.89c-1.21-.07-2.41-.14-3.59-.19l-.63-.22c-1.74-2.1-3.49-4.23-5.15-6.39.18-2.15.37-4.31.59-6.47-1.15-.09-2.17-.38-3.05-.85l-.07-12.52.38-.35c1.45-.6,2.96-1.11,4.39-1.75.29-.13.58-.18.71-.52l.46.09c1.24,1.89,2.47,3.79,3.69,5.71.37.62.41,1.05.1,1.31.06.66.03,1.32-.09,1.96Z"/>
  <path class="cls-5" d="M52.27,70.2c-1.11,5.09-.64,9.98,1.51,14.73-.03.35-.33.53-.9.54.4,2.18.61,4.38.64,6.59l-4.99,6.14-.6.14c.24.24.13.31-.19.19-1.41.07-2.86.14-4.34.19h-1.13c-.14-.18-.14-.38,0-.57l.18-2.01,3.56-12.54.03-3.5.38-.65c-.6-.44-.68-2.58,0-3.02-.09-.04-.17-.08-.23-.14-.36-.43,3.31-5.76,3.91-6.57l.47-.09,1.7.57Z"/>
  <path class="cls-15" d="M32.06,78.13c.14-.04.34-.07.41.03.26.35,1.82,3.1,1.84,3.31-.96,2.75-1.53,4.76-1.66,7.85l-.16,8.54c-.08.26-.22.48-.43.66.16.05.16.12,0,.19h-.19l-4.11-15.24c-.05-1.33-.1-2.69-.05-4.01l.33-.29c1.24-.01,2.46-.45,3.67-1.31l.34.28Z"/>
  <path class="cls-4" d="M71.71,98.52c.36,0,.93-.13,1.13.19h-21.34c-.16-.05-.16-.12,0-.19.03-.17.1-.16.19,0,5.54-.45,11.1-.58,16.68-.41l3.33.41Z"/>
  <path class="cls-4" d="M22.62,98.52c.16.05.16.12,0,.19h-12.84c-.16-.05-.16-.12,0-.19,4.25-.55,8.59-.57,12.84,0Z"/>
  <path class="cls-10" d="M42.26,98.14c0,.19,0,.38,0,.57h-6.8c-.16-.05-.16-.12,0-.19,2.15-.3,4.3-.5,6.46-.25-.37-.56-.31-1.12.15-1.64.43-.08.49.42.19,1.51Z"/>
  <path class="cls-20" d="M9.78,98.52v.19H3.36v-.19l.47-.33c1.82.06,3.65.04,5.48-.04l.47.38Z"/>
  <path class="cls-14" d="M47.73,98.52c.16.05.16.12,0,.19h-4.34c1.19-.56,3.19.1,4.34-.19Z"/>
  <path class="cls-20" d="M51.51,98.52v.19h-3.78v-.19s.11-.16.19-.19c.7-.22,2.52-.31,3.26-.19l.32.37Z"/>
  <path class="cls-20" d="M26.4,98.52c.16.05.16.12,0,.19h-3.78v-.19c1.25-.37,2.52-.37,3.78,0Z"/>
  <path class="cls-14" d="M29.99,98.71h-3.59v-.19c1.14,0,2.52-.16,3.59.19Z"/>
  <path class="cls-8" d="M35.46,98.52v.19h-3.4v-.19c.02-.15.06-.36.17-.38.6-.07,2.35-.07,2.96,0l.27.38Z"/>
  <path class="cls-17" d="M76.43,98.71h-2.64c.63-.31,1.97-.32,2.64,0Z"/>
  <path class="cls-16" d="M98.52,77.75h-.19c.02-.36-.14-.92.19-1.13v1.13Z"/>
  <path class="cls-1" d="M98.52,73.78c-.33-.21-.17-.78-.19-1.13h.19v1.13Z"/>
  <path class="cls-7" d="M56.61,14.69l.14.82c-.44,1.19-1.3,2.02-2.21,2.85-.41.37-2.65,2.25-2.95,2.39-.15.07-.31.04-.45-.02-.08.2-.18.39-.29.57s-.22.35-.37.48c-3.17,2.69-6.35,5.38-9.59,7.98-1.83,1.47-3.67,2.94-5.57,4.3-2.82,2.03-6.18,3.33-9.67,3.33-1.85,0-4.6-.24-5.86-1.56l-.47.21c-1.75-.85-3.3-2.05-4.8-3.28l-.02-.51c-.96-.82-1.85-1.91-2.92-2.65-1.3-2.39,2.26-2.87,3.15-4.58C18.42,14.07,22.11,1.9,36.13,2.03c5.39.05,17.1,5.91,19.8,10.6.43.75.38,1.37.68,2.06Z"/>
  <path class="cls-3" d="M53.02,22.99c.84-.04,1.82,2.29,1.13,2.83.1,1.43.14,2.85.12,4.28.33.17.36.29.07.35.15.02.37.07.38.17.11,2.67.2,6.25,0,8.88.12.58,0,.93-.38,1.05.29-.59,1.56-.53,1.89,0-.29.43-1.75.05-1.89.19-.15.15.05,3.6,0,4.26-.34,6.12-2.84,11.39-7.72,15.13l-.03,7.05c-.06.16-.13.16-.19,0-.15-.02-.35-.06-.38-.17-.13-.64-.1-2.82.38-3.23-.24-.91-.43-1.85-.35-2.79l-2.07,1.11-.41-.21c-1.97.66-4.26-.16-6.09-1.01-5.57-2.56-9.55-7.79-10.8-13.68-.64-3.02-.74-6.76,2.66-8.06,4.29-1.16,7.84-3.27,11.22-6.31l10.86-9.24c.57-.6,1.1-.8,1.6-.6Z"/>
  <path class="cls-2" d="M51.13,20.73c.75-.23,2.23,1.35,1.89,2.08.17.05.17.11,0,.19-.82.42-1.64,1.12-2.36,1.7-4.62,3.78-9.98,8.97-14.84,12.16-2.39,1.57-4.12,1.73-6.53,2.72-4.66,1.91-1.93,9.93-.09,13.19,2.78,4.91,8.59,9.21,14.38,9.12-.04.13-.1.26-.17.37-.35.56-2.38,1.12-3.14,1.3-4.26,1.04-8.66-.11-12.25-2.52l-.29-.66c-3.59-2.57-7.93-8.55-7.93-13.12v-6.51c0-.11-1.9.21-2.08-.19.38-.34.95-.49,1.7-.46v-3.99s.38-.27.38-.27c5.51,2.26,10.91,1.16,15.57-2.27,5.16-3.8,10.84-8.7,15.77-12.83Z"/>
  <path class="cls-13" d="M18.47,71.71v12.83s3.19.59,3.19.59l-.71,6.64,5.45,6.75c-1.26,0-2.52,0-3.78,0l-.69-.26-4.28-5.42c.01-1.69.15-3.38.43-5.08-2.13-.19-3.18-.72-3.11-3-.35-1.49-2.5,2.69-2.65,3.09-1.26,3.27-2.25,6.32-2.16,9.9l-.38.77c-1.97-.01-4.55.22-6.42,0-.66-.08-1.32-.58-1.47-1.27-.23-1.01-.12-4.44-.04-5.62.73-10.58,7.58-16.17,16.61-19.92Z"/>
  <path class="cls-9" d="M43.58,61.89l2.83-1.51c0,1.13,0,2.27,0,3.4l-.32.59c-3.22,1.78-6.62,2.72-10.23,2.4-1.83.17-2.07.83-2.18,2.64l-.49.22c-.14.04-.28.08-.42.09-.49.04-3.83-1.54-4.57-1.94l-.48-.6v-6.8c4.76,3.4,10.56,4.36,15.86,1.51Z"/>
  <path class="cls-15" d="M27.72,67.17c1.76.68,3.71,1.67,5.48,2.45.77-.29,3.06.78,3.65,1.34l.12.55c.07.49-.11.65-.57.38-.7.97-2.39,2.24-3.59,2.27-.94,1.41-2.95,2.32-4.53,2.84.18,1.03,0,1.53-.56,1.5-.04-.87.13-1.74-.14-2.59-.58-1.79-3.25-4.65-4.01-6.47-.34-.82-.33-1.57.43-2.12,1.49-1.08,2.22-.73,3.72-.15Z"/>
  <path class="cls-15" d="M50.57,69.63c-.71,1.53-3.93,5.41-4.15,6.8l-.2.51c-.59.52-4.56-1.91-4.89-2.77-.06.07-.12.13-.2.16-.19.09-3.04-1.8-3.56-2.18l-.39-.63c-.17-.39.06-.68.69-.88,1.29-.68,7.22-3.59,8.1-3.54.16,0,.31.04.46.09.05-.02.13.02.19,0,1.4-.52,2.04-.99,3.46.03.84.61.94,1.49.5,2.42Z"/>
  <path class="cls-7" d="M59.25,31.68l-.37.19c-1.35-.98-2.76-1.4-4.44-1.37-.16-1.54-.26-3.1-.29-4.68-.23-1.37-.46-1.68-1.13-2.83-.03-.05.03-.14,0-.19l.25-.7c1.61-1.21,3.12-2.54,4.52-3.98l.7-.23c2.32,4.88,1.35,8.64.76,13.78Z"/>
  <path class="cls-2" d="M54.15,25.83c.01.06.17.2.2.46.12,1.23-.1,2.63,0,3.89.92-.04,1.92.03,2.8.32.35.11,1.91.99,2.11,1.19.29.3,1.2,2.14,1.28,2.59.5,2.92-1.22,6.01-4.3,6.28-.62.05-1.27-.04-1.89,0v-10.1c0-.07-.19-.31-.2-.56-.05-1.35.05-2.72,0-4.07Z"/>
  <path class="cls-9" d="M19.79,35.83v4.72c-.68-.05-1.41.06-2.08,0-3.85-.36-5.78-5.43-3.21-8.31,1.4,1.19,3.62,2.9,5.29,3.59Z"/>
  <path class="cls-19" d="M58.5,17.9c-1.57,1.9-3.59,3.34-5.48,4.91-.55-.88-1.1-1.41-1.89-2.08.1-.08.19-.33.37-.47,1.95-1.64,4.51-2.95,5.11-5.57.4.95,1.34,2.05,1.89,3.21Z"/>
  <path class="cls-15" d="M84.55,79.45l-.13.38h-18.52l-.23-.38c.94-1.98,1.88-3.97,2.82-5.96l.1-12.92c.18-.37.93-.52,1.32-.56,2.42-.27,7.53-.2,10.01,0,.53.04,1.56.08,1.75.7l.05,12.79c.94,1.99,1.88,3.97,2.82,5.96Z"/>
  <path class="cls-6" d="M84.55,79.45c.72,1.53,2.53,4.41,2.65,5.94.21,2.71-1.53,4.79-4.25,5.02-4.09.35-11.58.33-15.69,0-.38-.03-.67-.1-1.03-.2-2.23-.58-3.42-2.69-3.21-4.91.14-1.47,1.94-4.36,2.64-5.85h18.88Z"/>
  <path class="cls-15" d="M71.71,98.52c-6.66-.08-13.35,0-20.01,0l-.28-.33c1.41-1.82,2.86-3.62,4.35-5.4.07-1.26-.03-2.55-.3-3.87l.38-.23c3.66,5.27,9.58,8.69,15.86,9.82Z"/>
  <path class="cls-13" d="M53.78,84.92c.54,1.19,1.33,2.71,2.08,3.78-.06,1.18.64,3.09.29,4.16-.22.67-2.85,3.44-3.5,4.24-.33.41-.8.91-.95,1.41-.06,0-.13,0-.19,0-1.14,0-2.52.16-3.59-.19l5.25-6.36c0-2.28-.42-4.58-.72-6.85l1.32-.19Z"/>
  <path class="cls-13" d="M32.06,78.13c-1.41.48-2.73,1.95-4.34,1.32.01-.31-.02-.63,0-.94,0-.03.17-.22.2-.46.05-.53-.05-1.09,0-1.62.04-.05.31.18.49.18.62,0,3.63-1.96,4.42-2.45l.3.34-.7,2.18c.02.62-.1,1.1-.36,1.44Z"/>
  <path class="cls-15" d="M46.41,79.45c-.03,1.4.06,2.81-.05,4.2l-4.11,14.49c0-.47.14-1.2-.19-1.51l-.25-.44c0-4.26-.47-8.47-1.39-12.62l.13-.92c-.59.03-.83-1.22-.38-1.51.49-.95.98-1.94,1.47-2.98l.42-.04.33-.3c1.23.83,2.46,1.27,3.69,1.33l.33.29Z"/>
  <path class="cls-13" d="M46.41,76.43c-.13.82.02,2.11,0,3.02-1.65.62-2.89-.94-4.34-1.32l-.3-.34c.06-1.1-.18-2.18-.72-3.24l.27-.38c.55.33,3.85,2.35,4.11,2.42.36.09.68.05.99-.15Z"/>
  <path class="cls-7" d="M40.18,81.15c.19.47.24,1.06.38,1.51.15.5.1.76-.16.77-2.14-.05-3.78.2-3.94,2.65-.2,2.97-.33,5.97-.37,8.97.1,1.3-.11,2.46-.63,3.47h-3.4c.38-4.09-.11-9.12.58-13.11.17-.97,1.33-3.34,1.3-3.99,0-.19-1.66-2.5-1.88-3.29-.38-1.39.46-2.65.76-3.96,1.21-.74,2.29-1.63,3.59-2.27.31-.15.51-.06.49.27l-1.02,2.51c-1.04,2.29-.68,4.15.88,6.03,1.05.15,2.1.12,3.15.09l.27.35Z"/>
  <path class="cls-15" d="M22.62,98.52c-4.28,0-8.56.03-12.84,0-.03-4.01.7-7.96,2.55-11.52.25-.48,1.46-2.57,1.8-2.73,1.56-.72,1.2,1.12,1.36,1.85.31,1.43,2.54.93,2.9,1.44s-.69,4.21-.4,5.12l4.64,5.85Z"/>
  <path class="cls-12" d="M42.07,96.63c-.01.63,0,1.26,0,1.89-2.2,0-4.41,0-6.61,0,.45-3.94.22-8.07.57-11.99.25-2.87,1.21-3.38,3.88-3.5.36-.02.76.19.65-.38,1.32,4.35,1.59,9.37,1.51,13.97Z"/>
  <path class="cls-2" d="M46.41,67.17c-2.56,1.01-5.45,2.45-8,3.61-.42.19-.92.4-1.25.73-.03.17-.1.16-.19,0-1.07-.8-2.53-1.34-3.78-1.89.35-.64.09-1.2.4-1.96.74-1.86,3.54-1.12,5.17-1.25,2.67-.22,5.32-1.42,7.65-2.64v3.4Z"/>
  <path class="cls-12" d="M37.16,71.52c1.26.62,2.42,1.42,3.62,2.15.25.15.43.43.54.5.43,1.31,1.18,2.56.76,3.96-.1.32-1.14,2.48-1.31,2.7-.12.15-.4.29-.57.32-.5.08-3.22.07-3.58-.1s-1.5-2.29-1.61-2.73c-.44-1.7.63-4.1,1.32-5.68.07-.16.4-.69.1-.75.15-.08.29-.33.57-.38.06-.01.13,0,.19,0Z"/>
</svg>