<?xml version="1.0" encoding="UTF-8"?>
<svg id="Layer_7" data-name="Layer 7" xmlns="http://www.w3.org/2000/svg" viewBox="0 0 100.28 100.28">
  <defs>
    <style>
      .cls-1 {
        fill: #f15c5c;
      }

      .cls-2 {
        fill: #c2c7d0;
      }

      .cls-3 {
        fill: #e44a4a;
      }

      .cls-4 {
        fill: #d7dbe4;
      }

      .cls-5 {
        fill: #f67c7c;
      }

      .cls-6 {
        fill: #b2b9c5;
      }

      .cls-7 {
        fill: #434a5e;
      }

      .cls-8 {
        fill: #e3e9f7;
      }

      .cls-9 {
        fill: #f15d5d;
      }

      .cls-10 {
        fill: #707487;
      }

      .cls-11 {
        fill: #00a9ef;
      }

      .cls-12 {
        fill: #52586d;
      }

      .cls-13 {
        fill: #707486;
      }

      .cls-14 {
        fill: #00c2fe;
      }
    </style>
  </defs>
  <path class="cls-13" d="M90.6,92.4c.06,2.83.48,5.79-2.88,6.71h-36.83c-3.33-.2-3.21-3.92-3.08-6.42l.39-.29c1.76-.18,3.53-.35,5.3-.36,10.6-.03,21.2,0,31.8.03,1.77,0,3.54.16,5.3.33Z"/>
  <path class="cls-12" d="M48.21,92.4c-.05,2.8-.49,5.59,2.69,6.71h-5.95c-2.96-1.16-2.78-4-2.69-6.71,1.92-.55,4.03-.58,5.95,0Z"/>
  <path class="cls-8" d="M84.47,54.04c1.87-.03,6.14-.55,6.67,1.86l.04,29.6c-5.56.15-11.13.17-16.69,0l-.38-.13.05-29.54c.26-.86.81-1.35,1.48-1.77,2.91.1,5.85.09,8.83-.01Z"/>
  <path class="cls-8" d="M54.54,24.11c1.42,1.43,1.9,4.16,2.24,6.21.43,2.63.64,11.45-1.09,13.25-.11.11-.24.21-.37.3.13.21.17.44.15.69-.05.84-1.91,3.86-2.49,4.75s-2.6,3.81-3.31,4.2c-.22.12-.44.18-.68.15-.24,1.11-1.78,2.3-2.88,2.49.21.53-.45,1.09-.96.96-.12-.42-.54.05-.71.15-3.96,2.33-8.25,3.88-12.91,4.07-.3-.29.55-.42.77-.38.04,0-.5.14-.72.15-4.25.17-10.37-3.32-13.49-6.11-1.04-.92-4.39-4.35-4.44-5.51,0-.14.01-.29.04-.43l.72.24c4.5,5,9.85,6.49,16.27,7.09.26.02.47.18.66.35.55-.02.99-.18,1.33-.48,24.07-3.3,26.27-36.52,1.84-42.31-1.07-.14-2.02-.32-2.97-.75-.2.21-.45.28-.73.31-6.57.53-11.87,2.08-16.36,7.27l-.75.29c-.27.3-.41.25-.53-.13-.12-.4,1.94-2.82,2.4-3.32,3.46-3.8,7.35-6.81,12.38-8.2.67-.19,3.67-.88,3.92-.6.02.02-.49.25-.14-.21,9.7.5,18.85,6.7,22.83,15.54Z"/>
  <path class="cls-4" d="M31.71,8.57l.29.38c-7.68.89-13.77,5.25-18.14,11.4-.12.16-.64.52-.18.68l-.18.85c-5.86,7.66-5.93,18.66,0,26.31l.19.85c3.76,6.49,11.12,11.17,18.61,11.9l-.77.38c-16.93.69-30.07-14.68-26.99-31.31,2.36-12.75,14.18-22.11,27.18-21.45Z"/>
  <path class="cls-7" d="M36.89,87.23l.44-.05c.39.49.93.84,1.57.83,18.7.08,37.36.03,55.99-.15.39-.4.77-.57,1.14-.5.11,1.19.09,2.36-.06,3.52-.23,2.23-3.72,1.51-5.37,1.53-14.11.19-28.28.06-42.4,0-1.98,0-3.97.03-5.95,0-1.54-.02-5.04.59-5.36-1.45-.11-.72-.11-3-.01-3.73Z"/>
  <path class="cls-14" d="M62.79,10.49c1.23-.27,3.41.58,4.22,1.53.26-.49,2.97.49,3.21.71l.05.44c1.09.52,1.47,1.15,1.33,2.38-.21,1.78-2.34,6.7-3.05,8.75-.46,3.09-1.5,6.12-3.07,8.82.06,1.6-.67,3.41-1.73,4.6-.68,1.91-1.3,3.86-2.01,5.76-.11.3-.13.61-.49.76l-.27-.35c2.58-8.46,1.3-18.46-3.76-25.97l-.19-.92c.41-1.13,1.97-5.87,2.49-6.43.79-.84,2.27-.4,3.26-.09Z"/>
  <path class="cls-4" d="M75.45,45.79c.15-.03.32-.05.43.04.46.35.14,6.88-.07,7.96,1.48-.25,3-.22,4.43.25,1.41-.48,2.8-.47,4.22,0-.03,0-.3.2-.65.21-2.2.03-5.46-.31-7.49,0-.92.14-1.46.85-1.79,1.66l-.04,29.6c-2.02.11-4.05.14-6.09.1-.43-5.02-.27-10.05.14-15.06,0-4.76-.01-9.52.01-14.28.06-.84,1.42-2.22,2.19-2.22h4.7v-8.25Z"/>
  <path class="cls-12" d="M38.43,85.69l25.7-.1c.13-.16.26-.28.4-.29,1.3-.05,2.71-.05,4.01,0,.14,0,.27.13.4.29,8.65-.06,17.21-.03,25.7.1,1.88.25,1.55,2.74,1.54,4.13,0,.32.12.85-.2,1.05.11-1.09-.08-2.34,0-3.45-.5.58-.97.98-1.81.97h-55.27c-.87,0-1.53-.49-2-1.16.09-.69.76-1.58,1.53-1.53Z"/>
  <path class="cls-11" d="M61.25,44.25c-.43,1.02-1.42,1.2-2.49.96-.11.11-.23.17-.38.18-.39.03-2.81-.95-3.07-1.52,2.19-6.17,1.92-13.79-.77-19.76.89-2.34,1.64-4.74,2.49-7.1,4.64,6.28,6.37,14.76,5.32,22.49-.17,1.24-.63,3.65-1.1,4.75Z"/>
  <path class="cls-13" d="M84.47,54.04c-1.4,0-2.82,0-4.22,0l-.4-.46.05-5.38c.47-6.39-3.7-9.68-8.59-13.01-.16-.21-.25-.45-.28-.72-.41-.04-.31-.17,0-.38-.05-1.59.71-3.56,1.73-4.8,3.76,2.83,7.82,5.55,9.92,9.93,2.27,4.74,1.75,9.7,1.78,14.81Z"/>
  <path class="cls-12" d="M80.25,54.04c-1.53,0-3.07,0-4.61,0-.15-2.47.2-5.16.02-7.6-.03-.35-.19-.54-.21-.65-.56-3.87-2.68-5.56-5.76-7.67l-.26-.34,1.16-3.21.44-.09c1.93,1.59,4.36,3.17,6.14,4.89,4.13,3.98,2.89,9.48,3.07,14.68Z"/>
  <path class="cls-2" d="M68.54,70.54c0,4.98,0,9.98,0,14.96,1.98,0,3.97-.01,5.95,0,5.56.03,11.13,0,16.69,0,1.1,0,2.43-.16,3.45.19h-56.21l26.09-.19c-.16-.27-.38-.51-.58-.77l-.37-.98c.06-4.33.12-8.66.18-12.99l.39-.23h4.41Z"/>
  <path class="cls-14" d="M39,72.07c-1.72-.27-2-2.8.28-3.07,6.63.55,14.43-.72,20.92,0,.86.1,1.62.6,1.63,1.54.16.03.38.14.36.26-.41,2.01-2.99,1.71-4.75,1.18-6.25-.09-12.39-.06-18.43.1Z"/>
  <path class="cls-6" d="M64.13,70.54l-.19,14.2c-.77-1.03-5.46-6.91-5.56-7.48l-.4-.14c.07-1.56.05-3.1-.06-4.64-3.53-.12-7.06-.13-10.59-.02l-.26-.38c-1.82.6-4.15.65-5.95,0-.65-.02-1.52.09-2.11,0,.2-.32.73-.19,1.05-.2,6.84-.07,13.69.05,20.54.01.61.02,1.24-.79,1.24-1.35h2.3Z"/>
  <path class="cls-8" d="M58.38,77.25c-3.39-.02-6.78.03-10.17,0-1.97.02-1.73-3.56-1.51-4.93l.36-.25c1.43,0,10.68-.23,11.14.08s.02,4.24.18,5.1Z"/>
  <path class="cls-7" d="M58.76,45.21l-3.84,10.74-.83.1c-.74-.2-4.97-1.47-5.14-1.67-.26-.31-.26-.35.02-.73,2.59-2.57,5.11-6.33,6.33-9.78.95.38,1.95.72,2.94,1,.24.07.48.33.51.34Z"/>
  <path class="cls-12" d="M72.76,29.29c-.5,1.62-1.14,3.21-1.73,4.8-.05.23-.19.45-.39.58-.61.41-2.13,0-2.8-.2s-2.24-.7-2.38-1.34c1.04-2.93,2.05-5.89,3.07-8.82,1.12.3,4.48,1.07,4.75,2.25.25,1.08-.24,1.8-.53,2.74Z"/>
  <path class="cls-4" d="M47.06,72.07c.24,1.84-.78,4.13,1.15,5.18-1.23-.01-5.6.24-6.33-.29-1.26-.92-.62-3.53-.77-4.89,1.98.05,3.97-.01,5.95,0Z"/>
  <path class="cls-7" d="M68.74,5.5c.31-.42.44-.32.38.19.13.09.32.22.29.33-.26,1.02-1.52,5.16-1.95,5.85l-.45.14c-1.35-.5-2.9-1.12-4.22-1.53l2.11-6.14c.62-.25,2.74.25,3.33.59.25.14.37.25.5.56Z"/>
  <path class="cls-10" d="M48.98,53.65c-.11.53.27.36.57.47,1.76.67,3.64,1.14,5.38,1.83.75.3,1.88.62,2.07,1.48.27,1.2-.61,1.91-1.76,1.77-.57-.07-1.17-.73-1.46.01-.34-.24-.73-.41-1.16-.49l-.18-.47c-1.71-.12-3.81-.8-5.45-1.46-.34-.14-.62-.38-.88-.65.94-.85,1.98-1.6,2.88-2.49Z"/>
  <path class="cls-7" d="M71.04,34.09c-.04.1.04.29,0,.38-.36.98-.93,2.83-1.34,3.64-1.15,2.23-4.23.11-5.95-.38.55-1.54,1.18-3.07,1.73-4.6,1.76.55,3.73,1.96,5.56.96Z"/>
  <path class="cls-12" d="M72.38,7.04l-2.11,6.14c-.78-.38-2.33-.81-3.26-1.15l2.11-6.33c.11-.12.25-.24.42-.26s3.01,1.09,2.84,1.6Z"/>
  <path class="cls-7" d="M52.43,58.26l.09.48c-.61.87-2.05,2.29-3.16,2.01-1.66-.52-5.34-1.01-4.22-3.64.15-.35.68-.71.96-.96,2.13.58,4.27,1.32,6.33,2.11Z"/>
  <path class="cls-10" d="M72.38,7.04c-.87-.28-2.2-.98-3.26-1.34-.13-.04-.25-.15-.38-.19-1.17-.6-.08-2.95,1.15-2.69,1.45.52,3.71,1.17,4.99,1.82,1.64.84,1.21,2.92-.67,2.79-.26-.02-1.56-.31-1.83-.39Z"/>
  <path class="cls-12" d="M69.89,2.82c-1,.68-1.52,1.45-1.15,2.69-1.18-.41-2.67-.68-3.84-1.15-1.1-.45-2.84-1.08-2.16-2.64.36-.84,1.18-.87,1.97-.73,1.27.23,3.81,1.34,5.17,1.83Z"/>
  <path class="cls-12" d="M52.43,58.26c.78.3,1.42.17,1.34.96-.07.69-.62,1.99-1.33,2.22-1.2.38-2.07-.37-3.08-.68,1.2-.41,2.27-1.53,3.07-2.49Z"/>
  <path class="cls-5" d="M31.33,56.72v-.27c-23.36-4.65-23.47-38.3-.04-43.02l.23-.26c8.58.44,16.36,6.09,19.33,14.15,5.13,13.94-4.78,28.77-19.52,29.4Z"/>
  <path class="cls-1" d="M31.52,13.18l.77.38c-6.14.77-11.94,4.84-15.12,10.11-7.99,13.26.09,30.56,15.31,32.67l-1.15.38c-6.44.28-13.5-2.73-17.65-7.67-6.71-8-6.61-20.02,0-28.01,4.35-5.26,10.99-8.22,17.84-7.87Z"/>
  <path class="cls-3" d="M29.22,24.69l-.13.57c-2.96,2.26-2.96,6.38,0,8.64l.13.57c-2.82,1.5-6.54.26-7.71-2.75-1.89-4.88,3.12-9.48,7.71-7.03Z"/>
  <path class="cls-3" d="M32.67,41.38l.02.53c-2.22,2.25-2.07,5.11.13,7.28l-.15.44c-2.74,1.65-6.27.39-7.16-2.72-1.24-4.32,3.26-7.89,7.16-5.53Z"/>
  <path class="cls-1" d="M29.22,34.47c-3.66-2.54-3.66-7.25,0-9.78,3.91,2.08,3.9,7.71,0,9.78Z"/>
  <path class="cls-3" d="M42.45,22.96c.07,1.15.07,2.3,0,3.45-1.8,2.8-5.86,1.43-5.77-1.83.08-3,4.17-4.19,5.77-1.63Z"/>
  <path class="cls-1" d="M32.67,49.63l-1.45-1.91c-1.14-2.38-.34-4.58,1.45-6.34,3.11,1.88,3.11,6.38,0,8.25Z"/>
  <path class="cls-3" d="M39.77,33.51c.12,1.15.12,2.49,0,3.64-1.38,1.6-3.93,1.09-4.61-.85-1.03-2.92,2.6-5.11,4.61-2.79Z"/>
  <path class="cls-1" d="M18.04,37.97c3.12-.64,3.91,3.93,1.06,4.52-3.12.64-3.91-3.93-1.06-4.52Z"/>
  <path class="cls-3" d="M41.06,41.21c.62-.11,1.48.42,1.59,1.04.23,1.37-2.28,3.62-3.35,1.99-.7-1.07.86-2.86,1.76-3.03Z"/>
  <path class="cls-1" d="M39.77,37.16c-.49-1.35-.49-2.29,0-3.64,1.05,1.2,1.05,2.43,0,3.64Z"/>
  <path class="cls-9" d="M42.45,26.41c-.58-1.2-.46-2.25,0-3.45.76,1.21.76,2.28,0,3.45Z"/>
</svg>