<?xml version="1.0" encoding="UTF-8"?>
<svg id="Layer_7" data-name="Layer 7" xmlns="http://www.w3.org/2000/svg" viewBox="0 0 100.28 100.28">
  <defs>
    <style>
      .cls-1 {
        fill: #787680;
      }

      .cls-2 {
        fill: #e5e6e7;
      }

      .cls-3 {
        fill: #57565c;
      }

      .cls-4 {
        fill: #e28c24;
      }

      .cls-5 {
        fill: #3e3d42;
      }

      .cls-6 {
        fill: #fea633;
      }

      .cls-7 {
        fill: #ed8600;
      }

      .cls-8 {
        fill: #feb555;
      }

      .cls-9 {
        fill: #fe6243;
      }

      .cls-10 {
        fill: #2d2d30;
      }

      .cls-11 {
        fill: #fec377;
      }

      .cls-12 {
        fill: #fe5023;
      }

      .cls-13 {
        fill: #3d99e1;
      }

      .cls-14 {
        fill: #ec1d24;
      }

      .cls-15 {
        fill: #1e81cd;
      }

      .cls-16 {
        fill: #4b9ddd;
      }

      .cls-17 {
        fill: #e20000;
      }

      .cls-18 {
        fill: #ec1c24;
      }

      .cls-19 {
        fill: #1e80cd;
      }
    </style>
  </defs>
  <g>
    <path class="cls-6" d="M40.12,58.52c-3.88.57-7.81.58-11.69,0-6.5-.01-13.01.01-19.52,0-1.67-.16-2.98-1.53-3.03-3.23v-30.49c.29-1.96,1.53-2.89,3.44-3.04,9.76-.73,20.42.56,30.28,0,1.34.12,2.49,1.06,2.88,2.34.33,10.43.05,20.93.14,31.38-.18,1.58-1.15,2.42-2.51,3.03Z"/>
    <path class="cls-13" d="M50.14,65.2l.53-.42c2.08-.16,4.5-.19,6.6-.13,3.63.1,4.15.22,4.26,3.95.06,1.92.04,4.19-.12,6.1l-.42.52-.54.27c-6.24-.07-12.49-.05-18.74.06-3.73-.11-6.65,2.19-6.98,5.93l-.45.42.38.73.02,5.23-.4.73h-6.68c.02-1.67-.02-3.34,0-5.01-.65-.66-.73-2.74,0-3.34.68-7.6,6.78-13.66,14.2-14.82.1-.12.2-.24.32-.33.91-.7,6.66-.39,8.03.12Z"/>
    <path class="cls-13" d="M82.08,56.85c1.53,5.03,3.27,10.01,4.8,15.03l.5.19c.63,1.73,1.15,3.49,1.55,5.29l-.37.37c-.15.47-.15.99,0,1.46.09.08.18.16.24.25.68.95-3.01,5.7-4.42,5.8l.15.45-3.01,3.14-.49-.04c-.22-.35-.79-.21-1.15-.21-6.29-.08-12.6,0-18.89,0-.16-.02-.4-.07-.42-.19-.15-1.26-.16-4.95,0-6.19l.42-.3c3.31-.61,6.71-.59,10.02,0,1.45-.43,3.01-.59,4.68-.46l3.22-9.51c-1.06-5-1.82-10.02-2.27-15.08.04-.16.11-.41.24-.42.53-.05,4.67-.12,4.89,0l.3.42Z"/>
    <path class="cls-1" d="M53.9,36.19c-6.19-4.66-6.05-14.59.35-18.96,7.23-4.94,17.1-.77,18.23,7.9-1.04,0-2.09,0-3.13,0-3.23.54-6.5.63-9.82.26.33,1.05.32,2.1-.2,3.08.65,2.59.74,5.78,0,8.35.5.28.56,1.16.31,1.62-.54.99-4.83-1.11-5.72-1.73l-.02-.52Z"/>
    <path class="cls-12" d="M53.27,37.23l.69.03c2.33,1.92,5.76,2.73,8.29,2.48.6,2.22,1.48,4.4,1.88,6.68l-.43.19-2.99-2.87c-2.56-3.05-6.59-1.75-5.98,2.4l-.4.27c.38,1.83,1.4,3.38,3.06,4.64l3.5,3.28.12.43c-.1,1.47-.65,2.7-1.67,3.76-.28.1-.55.19-.84.26s-.56.12-.83.13c-2.77.05-5.58.06-8.35.03-.28,0-.55-.07-.84-.14s-.56-.17-.83-.28c-.16-10.95.75-12.15,5.64-21.29Z"/>
    <path class="cls-2" d="M60.99,81.9v6.68c-3.33,0-6.77.21-10.02.21-1.93.67-4.74.46-6.68-.21-1.11.41-2.23.41-3.34,0l-.63.41c-1.8-.08-3.59-.05-5.38.11l-.67-.32c0-.07,0-.14,0-.21-.05-2.12-.13-4.59,0-6.68,8.89-.62,17.83-.59,26.72,0Z"/>
    <path class="cls-19" d="M40.12,58.52c2.5,0,5.01,0,7.52,0l.42.3c-.52,2.76.12,4.72,1.93,5.87l.15.52c-2.75,0-5.66-.21-8.35.21-.22-.35-.79-.21-1.15-.21-3.62-.04-7.99.34-11.49.01-3.94-.37-4.36-5.33-.72-6.69,3.89,0,7.8,0,11.69,0Z"/>
    <path class="cls-3" d="M87.71,88.58c.68.34.65,2.94,0,3.34.34-.68,2.94-.65,3.34,0-.68-.34-.65-2.94,0-3.34,2.15-.41,4.32-.41,6.47,0,2.04,11.21-14.48,13.77-16.28,3.13.34-.88,2.13-3.01,2.96-3.4.64-.3,3.12-.4,3.51.27Z"/>
    <path class="cls-9" d="M64.13,46.42c.14.1.18.48.52.43,1.57,0,3.14-.03,4.7-.01.16.02.4.07.42.19.14,1.25.17,4.98,0,6.19l-.42.3-.38.42c-2.42.14-4.83.16-7.25.04l-.3-.46c-.07.18-.2.28-.39.33-.44.13-5.79-5.31-6.35-6.14-.25-.37-.48-.83-.36-1.29-.05-1.45-.4-2.23.74-3.54,3.33-3.79,6.66,1.78,9.07,3.54Z"/>
    <path class="cls-13" d="M88.55,72.09c6.32,1.3,10.85,6.65,10.86,13.15-.87.02-1.75-.02-2.62,0-.27,0-.48.21-.51.22-.2.11-.4.21-.61.28-.96.32-7.78.14-8.79-.21-.21-.07-.42-.17-.62-.28l-.12-.53c2.2-2.22,4.29-4.44,3.41-7.82l-1.29-4.31.3-.49Z"/>
    <path class="cls-13" d="M74.77,46.83l11.53-2.88c.93.23,1.31.78,1.42,1.73.15,1.38.16,4.89,0,6.27-.06.55-.25,1.04-.76,1.33-.83.47-4.67.22-5.93.23-1.61.62-3.39.6-5.01,0-.26.41-.57.41-.84,0l.14-.5c2.61-1.13,2.61-5.05-.32-5.71l-.25-.46Z"/>
    <path class="cls-3" d="M40.95,91.92c.34-.68,2.94-.65,3.34,0,.02-.16.07-.41.19-.42.67-.05,5.7-.11,5.98,0,.16.06.24.25.3.42-1.71,8.86-14.58,8.83-16.28,0,.02-.16.07-.4.19-.42,1.17-.14,4.85-.16,5.98,0l.3.42Z"/>
    <path class="cls-11" d="M62.66,28.46c.36.14.51.56.47,1.26h2.46c0-.46.18-.87.41-1.26.34-.68,2.93-.66,3.34,0-.08,5.55-1.9,8.24-7.72,8.35-.68.6-1.6.59-2.3,0,.08-2.77-.02-5.57,0-8.35.34-.68,2.94-.65,3.34,0Z"/>
    <path class="cls-5" d="M86.25,85.24c3.31,0,6.78.24,10.02.21.68,1.02,1.03,1.92,1.25,3.13-2.15,0-4.32,0-6.47,0-1.05.6-2.29.58-3.34,0-.81.02-2.73-.17-3.34.11-.79.36-2.16,2.55-3.14,3.02-.13-.76-.41-2.14-.21-2.92.06-.24,2.87-3.04,3.34-3.55.58-.36,1.57-.79,1.88,0Z"/>
    <path class="cls-11" d="M74.77,46.83c3.69.46,3.89,5.51.42,6.68-1.95.53-3.89.53-5.85,0v-6.68c1.67.02,3.86-.19,5.43,0Z"/>
    <rect class="cls-6" x="17.57" y="3.41" width="15.03" height="3.34"/>
    <rect class="cls-6" x="7.55" y="86.91" width="15.03" height="3.34"/>
    <path class="cls-6" d="M27.59,80.23c-.09,1.04.01,2.27,0,3.34h-10.02v-3.34h10.02Z"/>
    <rect class="cls-6" x="30.93" y="10.09" width="10.02" height="3.34"/>
    <rect class="cls-6" x="20.91" y="93.59" width="10.02" height="3.34"/>
    <path class="cls-8" d="M69.34,25.12c-.01,1.11.02,2.23,0,3.34h-3.34c-.36-.14-.51-.56-.47-1.26h-2.46c0,.46-.18.87-.41,1.26h-3.34c0-1.11,0-2.23,0-3.34,3.34-.02,6.68.03,10.02,0Z"/>
    <path class="cls-5" d="M40.95,88.58l.42.24c.12.69.19,2.81-.42,3.1h-6.47c-.23-1.19-.18-1.95-.21-3.13,2.13-.38,4.49-.21,6.68-.21Z"/>
    <path class="cls-5" d="M50.97,88.79c.07,1.13,0,2.05-.21,3.13h-6.47c-.68-.34-.65-2.94,0-3.34,2.21,0,4.53.21,6.68.21Z"/>
    <path class="cls-15" d="M88.55,72.09c.82,3.3,2.56,5.93.87,9.33-.67,1.35-2.29,2.58-3.17,3.82h-1.88c1.66-1.8,3.83-3.44,4.18-6.05-.16-.47-.16-.99,0-1.46-.16-1.56-1.18-4.22-1.67-5.85.56-.02,1.13.1,1.67.21Z"/>
    <path class="cls-18" d="M53.9,36.19c.44.33,1.81,1.05,2.36,1.29.44.2,2.81,1.05,3.06.8.01-.49-.01-.98,0-1.46.76-.01,1.53.01,2.3,0,.21.96.37,1.98.63,2.92.12.63-.32.4-.72.42-3.03.13-5.99-.96-8.26-2.92.17-.31.09-.88.63-1.04Z"/>
    <path class="cls-15" d="M81.03,53.51c.47,1.07.7,2.23,1.04,3.34h-5.43c-.78-.55-1.26-2.59-.63-3.34,1.67,0,3.34.01,5.01,0Z"/>
    <rect class="cls-6" x="17.57" y="10.09" width="3.34" height="3.34"/>
    <rect class="cls-6" x="10.89" y="80.23" width="3.34" height="3.34"/>
    <rect class="cls-6" x=".87" y="86.91" width="3.34" height="3.34"/>
    <rect class="cls-6" x="24.25" y="10.09" width="3.34" height="3.34"/>
    <rect class="cls-6" x="7.55" y="93.59" width="3.34" height="3.34"/>
    <rect class="cls-6" x="14.23" y="93.59" width="3.34" height="3.34"/>
    <rect class="cls-6" x="10.89" y="3.41" width="3.34" height="3.34"/>
    <path class="cls-6" d="M19.45,38.69l.36.33c-.18,2.19,1.5,3.72,2.98,5.02v.29c.87.42,1.92.87,2.92.63l.47-.12c1.76,1.76,3.53,3.53,5.29,5.29l-.12.47c-.79,1.18-3.03,1.45-4.46,1.58-2.85.26-6.25-.25-8.28-2.42-5.59-3.56-7.42-10.73-4.8-16.7.11-.11.32-.26.4-.2.69.61,5.32,4.99,5.36,5.36l-.12.47Z"/>
    <path class="cls-6" d="M18.62,49.76c3.93,2.51,8.54,2.65,12.73.84l.29-.59c1.46-.67,2.84-1.57,3.87-2.82l.64-.14c.65.64,2.94,2.53,3.25,3.13.22.43-.93,1.36-1.27,1.66-5.74,5.16-15.12,4.24-19.51-2.08Z"/>
    <path class="cls-6" d="M36.15,47.04c-1.22,1.69-2.93,2.74-4.8,3.55l-5.64-5.64c1.19-.28,4.19-3.96,4.49-3.96,1.97,2.04,3.93,4.06,5.95,6.05Z"/>
    <path class="cls-6" d="M13.82,33.06c.83-1.88,1.88-3.65,3.65-4.8l5.75,6.26.07.45c-1.26,1.1-2.39,2.33-3.36,3.7l-.47.03-5.64-5.64Z"/>
    <path class="cls-6" d="M22.79,44.33c-1.84-.89-3.85-3.51-3.34-5.64.15-.63,3.11-3.87,3.76-4.18.1-.05.19-.14.31-.15.46.46,3.32,3.04,3.24,3.38-1.1.87-3.76,3.28-3.95,4.61-.11.74.32,1.39-.01,1.97Z"/>
    <path class="cls-3" d="M59.32,58.52l.37-.41c9.17-.58,8.88,8.11,8.31,14.81.16.98.05,1.74-.33,2.3l-.65.37-5.37.04-.65-.42c-.01-2.57.29-6.02,0-8.46-.11-.97-.61-1.45-1.57-1.57-2.64-.31-6.51,0-9.29,0-3.13-1.2-2.47-3.97-2.51-6.68,3.89.02,7.81-.11,11.69,0Z"/>
    <path class="cls-19" d="M60.99,75.22c.58,2.21.58,4.46,0,6.68-8.9.02-17.82-.01-26.72,0,.23-3.75,2.55-6.39,6.36-6.69,6.23-.49,13.98-.04,20.36,0Z"/>
    <path class="cls-5" d="M67.67,75.22c3.9.33,3.39,3.71,3.34,6.68-3.34.02-6.68,0-10.02,0,0-2.22.01-4.46,0-6.68,2.13.01,4.61-.18,6.68,0Z"/>
    <path class="cls-16" d="M88.55,79.19c-.35-.26-.35-1.2,0-1.46.04.39.05,1.08,0,1.46Z"/>
    <path class="cls-14" d="M61.41,53.51c.05.5-.23.84-.42,1.25-.41,0-.58-.28-.84-.52-1.16-1.06-4.71-4.33-5.43-5.43-.22-.34-.59-1.33-.62-1.71-.03-.44.21-.66.21-.69.11.32.29.58.52.84,1.21,1.4,4.58,4.96,5.95,5.96.25.18.3.25.63.3Z"/>
    <path class="cls-10" d="M44.29,88.58v3.34h-3.34v-3.34c1.11,0,2.23,0,3.34,0Z"/>
    <path class="cls-10" d="M91.05,88.58v3.34h-3.34v-3.34c1.11-.02,2.23,0,3.34,0Z"/>
    <path class="cls-7" d="M62.66,28.46c0-.56,0-1.12,0-1.67h3.22c.22.03.12,1.35.12,1.67,0,.56,0,1.12,0,1.67h-3.22c-.22-.03-.12-1.35-.12-1.67Z"/>
  </g>
  <g>
    <rect class="cls-4" x="21.91" y="29.79" width="5.45" height="21.7"/>
    <rect class="cls-4" x="21.91" y="29.79" width="5.45" height="21.7" transform="translate(-16.01 65.27) rotate(-90)"/>
  </g>
  <g>
    <rect class="cls-17" x="21.16" y="29.01" width="5.45" height="21.7"/>
    <rect class="cls-17" x="21.16" y="29.01" width="5.45" height="21.7" transform="translate(-15.98 63.74) rotate(-90)"/>
  </g>
</svg>