<?xml version="1.0" encoding="UTF-8"?>
<svg id="Layer_7" data-name="Layer 7" xmlns="http://www.w3.org/2000/svg" viewBox="0 0 100.28 100.28">
  <defs>
    <style>
      .cls-1 {
        fill: #0282fb;
      }

      .cls-2 {
        fill: #766aaf;
      }

      .cls-3 {
        fill: #b6b0d4;
      }

      .cls-4 {
        fill: #fad64c;
      }

      .cls-5 {
        fill: #ee4424;
      }

      .cls-6 {
        fill: #d7ebfd;
      }

      .cls-7 {
        fill: #1f9efc;
      }

      .cls-8 {
        fill: #fd653b;
      }

      .cls-9 {
        fill: #0ed190;
      }

      .cls-10 {
        fill: #1ee5a5;
      }

      .cls-11 {
        fill: #b2d9fd;
      }

      .cls-12 {
        fill: #d6ebfd;
      }

      .cls-13 {
        fill: #fef2dd;
      }

      .cls-14 {
        fill: #54469b;
      }

      .cls-15 {
        fill: #aaa3cd;
      }

      .cls-16 {
        fill: #1e9dfc;
      }

      .cls-17 {
        fill: #1e9efc;
      }

      .cls-18 {
        fill: #0182fb;
      }

      .cls-19 {
        fill: #fc6930;
      }

      .cls-20 {
        fill: #fefefe;
      }

      .cls-21 {
        fill: #a9a2cd;
      }

      .cls-22 {
        fill: #8279c0;
      }

      .cls-23 {
        fill: #f9c500;
      }
    </style>
  </defs>
  <path class="cls-14" d="M53.97,98.78h-1.53c-.3-.15-.65-.15-.95,0h-2.67c-.36-.16-.78-.16-1.14,0h-.57c-.14-.08-.24-.05-.38,0h-.76C22.44,97.63,2.32,76.88,1.31,53.94v-.76c.08-.14.05-.24,0-.38v-5.72c.08-.14.05-.24,0-.38.02-.31-.03-.64,0-.95C5,4.66,55.46-13.97,84.76,15.42c29.36,29.45,10.39,80.18-30.79,83.36Z"/>
  <path class="cls-2" d="M48.82,98.78h-1.14c.19-.31.96-.31,1.14,0Z"/>
  <path class="cls-2" d="M52.44,98.78h-.95c.13-.3.83-.3.95,0Z"/>
  <polygon class="cls-21" points="1.31 47.07 1.31 46.69 1.44 46.92 1.31 47.07"/>
  <polygon class="cls-15" points="1.31 53.17 1.31 52.79 1.44 53.02 1.31 53.17"/>
  <polygon class="cls-3" points="47.1 98.78 46.72 98.78 46.95 98.65 47.1 98.78"/>
  <path class="cls-22" d="M47.25,5.53c36.04-2.17,59.92,37.27,40.56,68.04-16.82,26.75-55.51,27.93-73.88,2.17C-6.24,47.44,12.73,7.61,47.25,5.53Z"/>
  <path class="cls-6" d="M49.2,91.53c-5.37-.85-10.33-3.73-14.71-6.87-.6-.43-3.98-3.17-4.01-3.43-.04-.4-.04-.51.41-.39.35-.29.86-.43,1.53-.41.57-.32,1.08-.43,1.53-.35.32.4.57.93.74,1.59.89,1.55,8.15,4.17,10.01,2.89.29-.31.58-.41.89-.29l.2-.16c2.03,2.46,6.43,2.63,9.5,2.23,3.66-.47,3.94-4.39.3-5.04-2.27-.07-4.53-.15-6.78-.26l-2.64,1.13-.42-.12c-.2-.64-.66-1.27-1.24-1.62-.97-.59-6.25-2.33-7.38-2.43-.58-.05-1.22.22-1.73.48l-.5-.12h-.45s-.64-1.59-.64-1.59c-.67-1.14-5.68-4.51-7.01-4.91-.8-.24-1.65-.18-2.34.33l-.45-.13-.53.25c-.53-.06-3.13-5.77-3.37-6.93l.27-.38c.5-.58,1.76-.41,2.48-.19l.19-.47c3.37-1.38,3.18-6.38-.18-7.65.03-.21-.02-.37-.2-.46l-.36.28c-1.32-.18-2.72.06-3.76.94l-.47-.08c-.11-.14-.22-.28-.31-.43-.53-.96-.96-9.41-.53-9.66.14-.08.31-.07.46-.02.24.43.5.87.77,1.3.89,1.23,4.03-2.62,4.04-3.02,0-1.48-1.77-1.37-2.42-.25l-1.95,2.01-.44-.04c-.16-.21-.31-.45-.33-.73-.08-1.3.52-4.7.82-6.1l.46-.62c-.51-.24-.54-1.31,0-1.53,1.1-3.56,2.38-6.8,4.35-9.99.07-.12.2-.2.34-.29s.29-.15.45-.21c.08-.05.16-.09.24-.11.32-.05,2.73,1.98,2.05,2.78l.36.31c-.03,2.62,2.23,4.82,4.86,4.55l.5.29c.7.19,1.33.69,1.88,1.49,2.97,2.55,3.32-.83.8-2.35v-.47c-.31-.51.85-1.48,1.32-1.14l.21-.16c.84.8,1.75,1.43,2.72,1.89,1.73-.96,0-2.54-1.01-3.32v-.51c-.21-.62.71-1.52,1.32-1.34l.48-.03c2.96,3.94,4.72.58,1.2-1.58l.03-.49-.23-.43c.8-2.15-.09-4.69-2.13-5.77l-.12-.47c-.53.19-1.16.19-1.91.02-.74.18-1.38.17-1.91-.02l-.63.12c-.8-.9-1.67-1.58-2.61-2.03l-.2-.38c.07-.2.15-.39.25-.57.94-1.68,6.09-4.89,8.01-5.99,3.06-1.74,6.35-3.32,9.87-3.75,19.25-.41,36.36,12.41,41.19,31.02,6.97,26.83-13.58,52.75-41.19,52.17Z"/>
  <path class="cls-11" d="M49.2,8.34c-6.91,2.03-12.87,5.41-18.12,10.3.3.48-.66,1.46-1.14,1.14-.16.89-1.04,1.92-1.91,2.1-.12.25-.35.49-.68.71-.06.67-.28,1.01-.66,1.01.37.51-.8,1.6-1.34,1.72l-1.35.64c-.14.6-.19,1.22-.18,1.84-2.28,3.27-3.84,7.18-4.77,11.07-.28.03-.21-.33-.38-.57l-.39.12c-.9-1.08-1.89-2.06-2.98-2.94-3.37.11,1.43,5.51,3.03,4.08l.34.26c-.29,2.58-.78,4.74-.95,7.44,0,.03-.19.21-.2.46-.16,3.24.21,6.45.58,9.65l.1.47c-1.7,2.22-.74,5.89,2,6.73l.19.44.92,2.61c.71,1.27,1.21,2.68,2.03,3.88.19.27.2.6.67.57l.1.44c-1.22,1.77-.2,3.14,1.22,4.3,1.65,1.35,3.59,2.55,5.44,3.6l.11.44c-.39.08.21.5.29.57,1.2.95,2.31,2.03,3.54,2.95,4.35,3.27,9.28,5.58,14.48,7.17-18.08-.38-34.13-12.73-39.06-30.11C2.7,35.19,22.01,8.91,49.2,8.34Z"/>
  <path class="cls-8" d="M59.12,47.26c.51-.42,2.16,1.33,1.91,1.91.1.11.92,2.46.95,2.67.67.32.67,2.54,0,2.86-.03.21-.86,2.56-.95,2.67.52.28-1.26,1.94-1.47,2.02-.14.06-.3-.03-.43-.12-.09.07-1.82.68-2.1.76-.35-.48-.08-.28-.11-.25-.34.41-2.08-1.28-2.46-1.7-3.6-3.92-1.99-9.35,2.58-11.6.26.07,2.01.7,2.1.76Z"/>
  <path class="cls-16" d="M40.8,27.61c.41.61-.99,2.22-1.72,2.1-.38.42-.91.89-1.34,1.34.23.62-1.23,2.29-1.91,2.1-.19.18-1.07.94-1.34,1.14.07.86-2.11,2.05-2.67,1.14-.92.33-1.8-1.5-2.05-2.33-.8-2.71.54-4.5,2.34-6.39,1.73-1.81,3.96-4.05,5.8-5.67l.39-.11c2.48,1.03,3.63,4.25,2.48,6.68Z"/>
  <path class="cls-4" d="M62.94,15.21c1.82-.5,2.44.06,3.92.95,2.18,1.31,5.98,3.61,5.62,6.49,2.11-.34,3.11.8,4.38,2.2,1.53,1.69,4.12,4.67,3.44,6.96-.88,1.3-2.76.13-3.63-.7-1.92-1.83-4.27-5.09-4.96-7.64l-1.62-.33c-1.4-.53-5.48-3.34-6.55-4.41-.79-.79-1.85-2.79-.6-3.52Z"/>
  <path class="cls-5" d="M56.45,46.31c.11.01.39.14.57.19.37.54.12.28-.19.47-5.33,3.24-5.3,9.33,0,12.6.31.19.56-.07.19.47-.17.05-.46.18-.57.19-.05.17-.11.17-.19,0-.29.65-2.4.67-2.67,0-.61-.08-1.74-.62-2.29-.95-.91.27-2.56-1.38-2.29-2.29-.38-.61-.87-1.58-.95-2.29-.68-.22-.66-2.52,0-2.86.09-.71.58-1.68.95-2.29-.23-.92,1.36-2.55,2.29-2.29.55-.33,1.68-.87,2.29-.95.37-.67,2.48-.66,2.86,0Z"/>
  <path class="cls-16" d="M34.89,78.36c.24.46-.48,1.55-.95,1.72-.82.7-1.99.96-3.05.76-.87-.16-6.24-3.89-6.87-4.67-.93-1.16-1.2-3.04,0-4.1,1.12-.99,2.49-.86,3.76-.23.7.35,5.42,3.57,5.88,4.04.79.82.66,1.62,1.24,2.48Z"/>
  <path class="cls-16" d="M46.15,82.18c.17-.7,1.91-1.44,2.6-1.51.76-.07,1.23.17,1.88.18,2.08.02,5.69-.51,7.16,1.1,1.48,1.62.61,3.84-1.34,4.52-2.08.73-7.58.39-9.54-.76l-1.33-1.43c-.21-.23-.17-.55.09-.93-.08-.66.08-1.05.48-1.16Z"/>
  <path class="cls-18" d="M46.15,82.18c-.22.87.22,1.08-.57,2.1-1.71,2.19-5.75.45-7.92-.38-1.91-.73-3.8-1.36-3.72-3.82.02-.51.56-1.39.95-1.72.49-.4,1.52-.77,2.16-.75s7.05,2.13,7.63,2.5c.68.44,1.31,1.25,1.46,2.07Z"/>
  <path class="cls-18" d="M38.32,20.93c0,.37-.26.53-.47.77-2.03,2.2-4.87,4.42-6.68,6.67-1.27,1.58-1.61,3.44-.74,5.33.21.45.97,1.55,1.41,1.74.17.05.16.12,0,.19-3.08.71-6-2.03-5.72-5.15l-.2-1.05c.04-.56,1.23-2.49,1.91-2.19-.3-.51.45-1.25.95-.95.18-1.05,1.24-2.1,2.29-2.29-.24-.55.4-1.19.95-.95-.06-.87,1.55-2.43,2.48-2.1,1.16-.49,2.65-.48,3.82,0Z"/>
  <path class="cls-23" d="M62.94,15.21c-.53,1,.1,2.51.86,3.24.5.48,5.33,3.87,5.94,4.17.71.34,1.8.3,2.16.51.29.17.55,1.79.87,2.37.35.65,3.7,4.91,4.27,5.46.79.76,2.17,1.37,3.25.85-.58,1.97-2.63,2.31-4.26,1.3-.44-.27-4.78-5.63-5.06-6.2-.37-.77-.53-1.54-.22-2.35-1.01.01-1.87.1-2.8-.35-.48-.23-5.37-3.73-5.79-4.13-1.59-1.54-1.54-4.24.77-4.87Z"/>
  <path class="cls-10" d="M22.87,64.81c-.92.07-1.52-.67-2.04-1.34-1.93-2.5-1.05-6.08,1.84-7.25,4.12,1.15,4.34,7.3.19,8.59Z"/>
  <path class="cls-9" d="M22.68,56.23c.39.56.07.28-.19.47-.68.48-1.27.79-1.69,1.57-1.42,2.63-.26,5.05,2.07,6.55-.64.2-1.85.31-2.48.19-3.23-.61-4.55-5.22-2.29-7.63,1.08-1.15,3.09-1.56,4.58-1.14Z"/>
  <path class="cls-10" d="M70.95,81.8c-1.68-.1-2.75-2.44-2.72-4s1.1-3.75,2.72-3.83c3.57,1.17,3.57,6.65,0,7.82Z"/>
  <path class="cls-9" d="M70.95,73.97c-3.12,2.13-3.11,5.7,0,7.82-4.61,1.51-7.69-4.41-3.91-7.25,1.14-.86,2.57-1.01,3.91-.57Z"/>
  <path class="cls-13" d="M82.01,39.25l-.07.52c-1.98,1.5-1.87,4.11.02,5.64l.05.52c-.97.36-2.42.32-3.31-.22-3.83-2.37-.93-8.31,3.31-6.46Z"/>
  <path class="cls-5" d="M39.47,50.12l-.06.51c-1.87,1.4-1.87,3.87,0,5.27l.06.51c-4.4,1.85-6.84-4.15-3.23-6.19,1.25-.71,1.98-.63,3.23-.11Z"/>
  <path class="cls-5" d="M56.26,66.91c.05-.17.12-.16.19,0v.58c-2.04,1.37-1.98,4-.02,5.42l.02.49c-4.63,2.17-6.89-5.04-2.86-6.49.11-.84,2.55-.83,2.67,0Z"/>
  <path class="cls-5" d="M56.45,33.14l-.02.49c-1.94,1.41-2.03,3.97-.04,5.38l.06.42v.19c-.23.79-2.72.89-2.86,0-4.05-1.52-1.76-8.61,2.86-6.49Z"/>
  <path class="cls-5" d="M73.24,49.93l.24.37c-2.1,1.86-2.1,4.09,0,5.94l-.24.37c-1.66.62-3.94-.21-4.58-1.91-.86-.1-.86-2.76,0-2.86.63-1.67,2.94-2.52,4.58-1.91Z"/>
  <path class="cls-20" d="M82.01,45.92c-2.47-1.8-2.6-4.91,0-6.68,2.91,1.27,2.83,5.62,0,6.68Z"/>
  <path class="cls-19" d="M48.05,51.84c-.08.66-.08,2.21,0,2.86h-6.68c-.26-.29-.33-1.96-.27-2.43.02-.18.15-.31.27-.43h6.68Z"/>
  <path class="cls-19" d="M56.45,39.63v6.68c-.67-.08-2.2-.09-2.86,0v-6.68c.94.35,1.92.19,2.86,0Z"/>
  <path class="cls-19" d="M68.66,51.84c-.29.78-.29,2.08,0,2.86h-6.68c.08-.57.08-2.29,0-2.86h6.68Z"/>
  <path class="cls-8" d="M73.24,56.61c-.32-.74-1-.96-1.37-1.78-.5-1.1-.5-2.02,0-3.12.37-.82,1.05-1.04,1.37-1.78,2.93,1.1,2.93,5.58,0,6.68Z"/>
  <path class="cls-8" d="M56.45,39.44c-.44-.05-1.29-1.04-1.49-1.46-.94-1.95-.15-3.65,1.49-4.83,2.08.96,2.76,3.58,1.31,5.41-.25.31-.91.93-1.31.89Z"/>
  <path class="cls-8" d="M56.45,73.4c-1.65-1.18-2.44-2.88-1.49-4.83.2-.42,1.06-1.42,1.49-1.46.39-.04,1.06.58,1.31.89,1.47,1.83.78,4.43-1.31,5.41Z"/>
  <path class="cls-8" d="M41.38,51.84c.26.66.26,2.2,0,2.86-.3.77-1.16,1.4-1.91,1.72-2.47-1.64-2.47-4.65,0-6.3.75.31,1.61.95,1.91,1.72Z"/>
  <path class="cls-19" d="M56.26,60.23c.16,2.13.16,4.53,0,6.68-.79-.26-1.89-.28-2.67,0v-6.68c.65.08,1.99.06,2.67,0Z"/>
  <path class="cls-20" d="M17.72,47.26c.06-.22,2.79-2.97,3.1-3.1,1.3-.56,2.49.77,1.95,1.95-.09.19-2.76,2.87-2.96,2.96-1.23.53-2.4-.62-2.1-1.81Z"/>
  <path class="cls-20" d="M51.05,20.21c.59-.13,3.52-.13,4.07.04,1.37.43,1.22,2.53-.31,2.77-.64.1-3.35.1-3.91-.07-1.32-.41-1.21-2.43.15-2.74Z"/>
  <path class="cls-8" d="M66.37,45.73c-.31-.31-.11-.42-.11-.25-.01.56-1.92-1.42-1.83-3,.06-1.07.96-2.68,2.13-2.67,2.85.91,2.74,5.02-.19,5.91Z"/>
  <path class="cls-8" d="M66.56,66.72c-2.91-.77-2.64-4.67-.19-5.91,2.92.87,3.06,4.97.19,5.91Z"/>
  <path class="cls-20" d="M42.77,16.49c-.65-.65-.46-1.4.04-2.05.21-.28,2.42-2.49,2.58-2.57,1.55-.71,2.78.83,1.62,2.38-.27.36-2.32,2.39-2.63,2.52-.5.21-1.24.08-1.61-.29Z"/>
  <path class="cls-20" d="M82.34,53.79c1.25-.37,3.2,1.56,3.87,2.54,1.06,1.53-.23,3.12-1.7,2.27-.43-.25-2.97-2.87-3.04-3.27-.1-.53.34-1.38.87-1.54Z"/>
  <path class="cls-20" d="M18.67,38.29c.01.54.06.98,0,1.53-.78.37-1.32.61-2.17.17-.26-.13-2.32-2.18-2.5-2.46-.79-1.25.08-2.81,1.43-2.39.48.15,2.85,2.63,3.24,3.17Z"/>
  <path class="cls-20" d="M78.52,61.61c1.45-.44,2.46.66,1.87,2.06-.08.18-2.54,2.62-2.78,2.75-1.27.73-2.67-.57-2.04-1.84.16-.32,2.72-2.9,2.95-2.97Z"/>
  <path class="cls-8" d="M47.48,43.83c.65.59-1.5,2.63-1.91,1.72-2.92.02-2.8-5.51,0-5.72,1.51.54,2.3,2.51,1.91,4.01Z"/>
  <path class="cls-8" d="M47.48,62.71c.4,1.51-.4,3.45-1.91,4.01-2.05-.18-2.68-3.08-1.71-4.7.31-.51.92-1.38,1.52-1.03.57-.86,2.71,1.02,2.1,1.72Z"/>
  <path class="cls-5" d="M45.57,39.82c-2.25,1.31-2.49,4.55,0,5.72.17.05.16.12,0,.19-5.9,1.37-5.15-7.77,0-5.91Z"/>
  <path class="cls-5" d="M45.38,60.81c.17.05.16.12,0,.19-.34.08-1.25,1.19-1.38,1.58-.6,1.82.09,3.14,1.57,4.15-1.47.55-2.97.05-3.78-1.27-1.53-2.48.87-5.46,3.59-4.64Z"/>
  <path class="cls-5" d="M66.37,60.81c.4.55.05.29-.17.49-2.03,1.91-1.78,3.73.36,5.42-2.57.85-4.9-1.53-4.01-4.01-.51-.64,1.27-2.44,1.91-1.91.56-.2,1.34-.17,1.91,0Z"/>
  <path class="cls-5" d="M66.56,39.82c-2.15,1.7-2.39,3.51-.36,5.42.22.2.57-.06.17.49-.63.19-1.28.23-1.91,0-.65.51-2.41-1.25-1.91-1.91-.91-2.44,1.44-4.82,4.01-4.01Z"/>
  <path class="cls-19" d="M51.3,59.28c-1.49.79-2.44,2.45-3.82,3.43-.13-.5-1.47-1.87-2.1-1.72v-.19c1.22-1.18,2.76-2.36,3.62-3.82.55.9,1.38,1.74,2.29,2.29Z"/>
  <path class="cls-19" d="M64.46,45.73l-3.43,3.43c-.14-.16-1.8-1.83-1.91-1.91l3.43-3.43c.22.58,1.33,1.69,1.91,1.91Z"/>
  <path class="cls-19" d="M51.3,47.26c-.91.55-1.74,1.39-2.29,2.29-.2-1-3.32-3.16-3.43-3.82v-.19c.59.09,1.81-1.34,1.91-1.72,1.37.98,2.33,2.65,3.82,3.43Z"/>
  <path class="cls-19" d="M61.03,57.37l3.43,3.43c-.56.2-1.7,1.35-1.91,1.91l-3.43-3.43c.11-.08,1.76-1.75,1.91-1.91Z"/>
  <path class="cls-7" d="M25.35,25.32l.38-.25c.22,0,2.17,1.75,2.1,2.16-.94,1.07-1.58,1.64-1.72,3.24-.06-1.14-1.73-1.9-2.29-2.67-.92-1.27-.13-3.09,1.53-2.48Z"/>
  <path class="cls-1" d="M31.84,35.62v-.19c.72.31,2.07-.66,2.67-1.14,1.15.73,3.4,3.15,1.28,4.05-1.41.6-3.06-1.82-3.96-2.72Z"/>
  <path class="cls-17" d="M34.51,20.93c-1.07.45-1.71,1.39-2.48,2.1-.61-.29-1.73-1.29-2.1-1.89s-.39-.77,0-1.35c.45-.47.64-.68,1.14-1.14,1.59-.13,2.1,1.84,3.43,2.29Z"/>
  <path class="cls-1" d="M39.09,29.71c.46-.5,1.46-1.55,1.72-2.1.93.92,3.33,2.4,2.02,3.83s-2.89-.81-3.73-1.73Z"/>
  <path class="cls-1" d="M35.84,33.14c.47-.45,1.32-1.49,1.91-2.1.95.84,2.78,2.1,1.92,3.54-1.12,1.89-2.89-.76-3.83-1.44Z"/>
  <path class="cls-8" d="M56.45,66.91h-.19v-6.68c.06,0,.13,0,.19,0v6.68Z"/>
  <path class="cls-17" d="M28.02,21.88c1.06-.8,2.5,1.3,3.05,2.1-.79.76-1.53,1.49-2.29,2.29-.39.36-2.15-1.97-2.23-2.22l.13-.45c.27-.6,0-1.65,1.34-1.72Z"/>
  <path class="cls-12" d="M32.03,23.03c-.36.33-.63.65-.95.95-1.16-.33-1.75-2.17-3.05-2.1.54-.79,1.25-1.42,1.91-2.1-.16,1.52,1.69,1.97,2.1,3.24Z"/>
  <path class="cls-12" d="M28.79,26.27c-.31.32-.61.57-.95.95-1.04-.34-1.43-1.52-2.48-1.91.04-.57,1.22-1.46,1.34-1.72l2.1,2.67Z"/>
</svg>