<?xml version="1.0" encoding="UTF-8"?>
<svg xmlns="http://www.w3.org/2000/svg" xmlns:xlink="http://www.w3.org/1999/xlink" viewBox="0 0 500 500">
  <defs>
    <style>
      .cls-1 {
        fill: #fbfff2;
      }

      .cls-2, .cls-3 {
        fill: #ffb294;
      }

      .cls-4 {
        fill: #29abe2;
      }

      .cls-5, .cls-6, .cls-7, .cls-3, .cls-8, .cls-9, .cls-10, .cls-11, .cls-12, .cls-13, .cls-14, .cls-15 {
        mix-blend-mode: multiply;
      }

      .cls-5, .cls-16 {
        fill: #c25643;
      }

      .cls-17 {
        fill: #748597;
      }

      .cls-18, .cls-19 {
        fill: #8cc63f;
      }

      .cls-20 {
        fill: #fbc33b;
      }

      .cls-21 {
        fill: url(#linear-gradient-2);
      }

      .cls-6 {
        fill: #c24a42;
      }

      .cls-22 {
        fill: #e6f6ff;
      }

      .cls-23 {
        fill: #ad3814;
      }

      .cls-24, .cls-14 {
        fill: #b2b6b7;
      }

      .cls-25 {
        fill: #c1b880;
      }

      .cls-7 {
        fill: #ffc8b3;
      }

      .cls-7, .cls-26, .cls-3, .cls-9, .cls-10, .cls-11, .cls-13, .cls-14, .cls-27, .cls-15 {
        opacity: .5;
      }

      .cls-28 {
        fill: #4d4d4d;
      }

      .cls-29 {
        fill: #db4248;
      }

      .cls-30 {
        fill: #7696ab;
      }

      .cls-31 {
        fill: #e5fc21;
      }

      .cls-32 {
        fill: #c9c9c9;
      }

      .cls-33, .cls-26, .cls-34, .cls-27 {
        fill: #fff;
      }

      .cls-35 {
        fill: #6f819a;
      }

      .cls-36 {
        fill: #c69c6d;
      }

      .cls-37 {
        fill: #9b9b9b;
      }

      .cls-38 {
        fill: #d67c76;
      }

      .cls-8 {
        fill: #e3735f;
      }

      .cls-8, .cls-12 {
        opacity: .75;
      }

      .cls-39 {
        fill: #4f4925;
      }

      .cls-40 {
        fill: #4c4c4c;
      }

      .cls-41 {
        fill: url(#linear-gradient-4);
      }

      .cls-42 {
        fill: #4d5865;
      }

      .cls-43 {
        fill: url(#linear-gradient-3);
      }

      .cls-44 {
        isolation: isolate;
      }

      .cls-45 {
        fill: #c7b299;
      }

      .cls-46 {
        fill: #333942;
      }

      .cls-47 {
        fill: #64c63f;
      }

      .cls-34, .cls-27 {
        mix-blend-mode: screen;
      }

      .cls-34, .cls-19 {
        opacity: .3;
      }

      .cls-48 {
        fill: #666;
      }

      .cls-49 {
        fill: #8a6945;
      }

      .cls-50 {
        fill: #34424b;
      }

      .cls-51 {
        fill: #6d7983;
      }

      .cls-52 {
        fill: #736357;
      }

      .cls-9 {
        fill: #e3382d;
      }

      .cls-53 {
        fill: #575859;
      }

      .cls-54 {
        fill: #b1d9f2;
      }

      .cls-55 {
        fill: #165375;
      }

      .cls-10 {
        fill: #233657;
      }

      .cls-56 {
        fill: #e84350;
      }

      .cls-57 {
        fill: #db997f;
      }

      .cls-11 {
        fill: #b51b27;
      }

      .cls-58 {
        fill: #333;
      }

      .cls-59 {
        fill: #549ac7;
      }

      .cls-60 {
        fill: #fcc674;
      }

      .cls-61 {
        fill: #365485;
      }

      .cls-62 {
        fill: #1a1a1a;
      }

      .cls-63 {
        fill: #2584e6;
      }

      .cls-64 {
        fill: #4e7085;
      }

      .cls-65 {
        fill: #f2e8df;
      }

      .cls-66 {
        fill: #889099;
      }

      .cls-67 {
        fill: #97b9cf;
      }

      .cls-68 {
        fill: #604213;
      }

      .cls-69 {
        fill: #ffd9d7;
      }

      .cls-12 {
        fill: #e37974;
      }

      .cls-13 {
        fill: #96320b;
      }

      .cls-70 {
        fill: #ff7847;
      }

      .cls-71 {
        fill: #b3b3b3;
      }

      .cls-72 {
        fill: #f15a24;
      }

      .cls-73 {
        fill: #22b573;
      }

      .cls-74 {
        fill: #d4bfa7;
      }

      .cls-75 {
        fill: #3376a1;
      }

      .cls-76 {
        fill: #ffb294;
      }

      .cls-77 {
        fill: #fabab4;
      }

      .cls-78 {
        fill: #dee5eb;
      }

      .cls-79 {
        fill: gray;
      }

      .cls-80 {
        fill: #7f7f7f;
      }

      .cls-81 {
        fill: #ed1c24;
      }

      .cls-82 {
        fill: #ee675e;
      }

      .cls-83 {
        fill: #2ea8c7;
      }

      .cls-84 {
        fill: #bdd5e0;
      }

      .cls-85 {
        fill: #0e0e14;
      }

      .cls-86 {
        fill: url(#linear-gradient);
      }

      .cls-87 {
        fill: #d4eeff;
      }

      .cls-88 {
        fill: #2e658a;
      }

      .cls-89 {
        fill: #dfecf5;
      }

      .cls-90 {
        fill: #888b8c;
      }

      .cls-91 {
        fill: #4a2a1a;
      }

      .cls-92 {
        fill: #e6e6e6;
      }

      .cls-93 {
        fill: #b5d5eb;
      }
    </style>
    <linearGradient id="linear-gradient" x1="6296.85" y1="998.64" x2="6296.85" y2="967.38" gradientTransform="translate(7053.22 874.62) rotate(-165.72) scale(1.09 -.97) skewX(-12.79)" gradientUnits="userSpaceOnUse">
      <stop offset="0" stop-color="#ffaba6"/>
      <stop offset="1" stop-color="#f0948e"/>
    </linearGradient>
    <linearGradient id="linear-gradient-2" x1="7136.15" y1="179.21" x2="7136.15" y2="175.38" gradientTransform="translate(7483.05) rotate(-180) scale(1 -1)" gradientUnits="userSpaceOnUse">
      <stop offset="0" stop-color="#ff8b82"/>
      <stop offset="1" stop-color="#f08f86"/>
    </linearGradient>
    <linearGradient id="linear-gradient-3" x1="7121.54" y1="182.08" x2="7121.54" y2="130.15" xlink:href="#linear-gradient-2"/>
    <linearGradient id="linear-gradient-4" x1="6703.34" y1="1574.27" x2="6703.34" y2="1523.17" gradientTransform="translate(7005.57 1607.57) rotate(-155.65) scale(1.1 -.91) skewX(-20.59)" gradientUnits="userSpaceOnUse">
      <stop offset="0" stop-color="#ff8b73"/>
      <stop offset="1" stop-color="#f0856f"/>
    </linearGradient>
  </defs>
  <g class="cls-44">
    <g id="Layer_4" data-name="Layer 4">
      <g>
        <g>
          <polygon class="cls-89" points="11.13 365.83 10.51 133.8 249.71 5.3 488.87 133.79 489.49 365.8 250.29 494.31 11.13 365.83"/>
          <path class="cls-22" d="M250.29,237.32L26.01,356.85l-.57-215.05L249.7,21.33s.58,216,.58,216Z"/>
          <polygon class="cls-89" points="474.56 357.81 464.72 363.1 421.12 386.51 250.29 478.28 26.02 357.81 250.29 237.32 474.56 357.81"/>
          <polygon class="cls-84" points="474.54 357.81 250.29 237.33 249.71 21.34 473.97 141.81 474.54 357.81"/>
          <polygon class="cls-1" points="26.02 351.06 26.02 357.81 176.59 276.92 176.59 270.17 26.02 351.06"/>
          <path class="cls-33" d="M474.56,357.81v-6.76s-224.27-120.47-224.27-120.47c-.01.01-73.69,39.59-73.69,39.59v6.75l73.69-39.59,224.27,120.47Z"/>
          <polygon class="cls-67" points="10.51 133.8 25.44 141.8 26.02 357.81 250.29 478.28 250.29 494.31 11.13 365.83 10.51 133.8"/>
          <polygon class="cls-93" points="488.91 133.81 473.97 141.81 474.57 357.81 250.3 478.28 250.29 494.31 489.46 365.83 488.91 133.81"/>
        </g>
        <g>
          <path class="cls-14" d="M464.72,363.1c-26.17-14.14-67.83-36.61-114.81-62.01-2.91-1.57-7.65-1.57-10.57,0l-7.13,3.83c-1.53-1.48-4.05-2.15-6.34-2.54-3.21-.56-6.52-1-9.74-.48-7.69,1.25-12.4,7.32-18.74,10.88-5.71,3.21-8.56,9.46-4.83,15.36,2.77,4.38,8.96,6.59,14.17,5.06.8-.23,1.58-.55,2.23-1.04,1.51-1.13,2.1-2.97,2.98-4.59,34.57,18.68,75.96,41,109.17,58.95l43.6-23.41Z"/>
          <path class="cls-14" d="M305.92,296.82l.2-1.14c-1.45-.22-2.92-.41-4.38-.6-3.92-.5-7.97-1.02-11.73-2.24-5.01-1.62-8.83-4.42-10.77-7.82l25.4-13.65-54.81-29.64-42.06,22.59,54.81,29.64,15.58-8.37c2.1,3.64,6.14,6.62,11.43,8.33,3.88,1.25,7.99,1.78,11.97,2.29,1.45.19,2.91.37,4.35.59Z"/>
        </g>
        <g>
          <g>
            <g>
              <g>
                <g>
                  <polygon class="cls-54" points="186.98 75.46 48.34 149.89 48.34 256.67 186.98 182.53 186.98 75.46"/>
                  <polygon class="cls-26" points="130.11 107.85 94.58 127.33 68.99 244.58 104.84 225.72 130.11 107.85"/>
                  <polygon class="cls-26" points="146.26 98.8 134.64 105.62 108.9 223.58 120.85 217.29 146.26 98.8"/>
                  <path class="cls-49" d="M45.05,148.19v110.85l2.54,1.36,140.37-78.13,2.54-109.49-2.54-1.36L45.05,148.19ZM181.8,179.85L51.21,250v-99.39l130.58-70.15v99.39Z"/>
                  <path class="cls-33" d="M47.59,149.55v110.85l142.91-76.77v-110.85L47.59,149.55ZM184.33,181.21L53.75,251.36v-99.39l130.58-70.15v99.39Z"/>
                  <g>
                    <polygon class="cls-49" points="136.44 104.83 140.88 102.44 140.88 201.83 139.5 202.57 139.68 208.21 147.04 204.25 147.04 93.4 136.26 99.19 136.44 104.83"/>
                    <polygon class="cls-33" points="136.52 107.51 143.42 103.81 143.42 203.19 139.58 205.25 139.76 210.89 149.58 205.62 149.58 94.76 136.34 101.87 136.52 107.51"/>
                    <polygon class="cls-49" points="81.44 134.38 85.88 131.99 85.88 231.38 84.5 232.12 84.68 237.76 92.04 233.8 92.04 122.95 81.26 128.74 81.44 134.38"/>
                    <polygon class="cls-33" points="81.52 137.06 88.42 133.35 88.42 232.74 84.59 234.8 84.76 240.44 94.58 235.16 94.58 124.31 81.34 131.42 81.52 137.06"/>
                  </g>
                </g>
                <g>
                  <polygon class="cls-60" points="44.4 152.05 44.4 259.1 49.68 256.28 49.68 149.22 44.4 152.05"/>
                  <polygon class="cls-49" points="50.66 145.18 44.4 148.54 44.4 154.27 44.5 154.22 44.5 253.61 44.4 253.66 44.4 259.51 50.66 256.03 53.2 146.54 50.66 145.18"/>
                  <polygon class="cls-33" points="44.4 151.26 44.4 157 47.03 155.58 47.03 254.97 44.4 256.38 44.4 262.12 53.2 257.39 53.2 146.54 44.4 151.26"/>
                </g>
              </g>
              <polygon class="cls-89" points="44.4 271.76 199.46 188.46 190.49 183.64 44.4 262.12 44.4 271.76"/>
              <polygon class="cls-67" points="199.46 188.46 199.46 77.6 190.49 72.78 190.49 183.64 199.46 188.46"/>
              <polygon class="cls-22" points="44.4 160.9 199.46 77.6 190.49 62.95 44.4 139.52 44.4 160.9"/>
            </g>
            <polygon class="cls-22" points="44.32 143.29 44.32 279.15 54.79 279.15 54.79 135.4 44.32 143.29"/>
          </g>
          <polygon class="cls-33" points="205.43 77.19 44.68 163.54 44.68 154.01 205.43 67.65 205.43 77.19"/>
        </g>
        <path class="cls-53" d="M267.35,285.41c.52.23.85.78.85,1.6,0,1.53-1.15,3.38-2.57,4.14-.71.38-1.35.41-1.81.16,0,0-1.83-.98-1.83-.98-.47-.25-.76-.79-.76-1.56,0-1.53,1.15-3.38,2.57-4.14.71-.38,1.34-.41,1.81-.16l1.83.98s-.06-.03-.09-.04Z"/>
        <path class="cls-58" d="M268.2,287.01c0-1.53-1.15-2.16-2.57-1.4-1.42.76-2.57,2.61-2.57,4.14s1.15,2.16,2.57,1.4c1.42-.76,2.57-2.61,2.57-4.14Z"/>
        <path class="cls-53" d="M267.35,287.47c0-1.02-.77-1.44-1.72-.93-.95.51-1.72,1.74-1.72,2.77s.77,1.44,1.72.93c.95-.51,1.72-1.75,1.72-2.77Z"/>
        <path class="cls-53" d="M215.58,257.89c.52.23.85.78.85,1.6,0,1.53-1.15,3.38-2.57,4.14-.71.38-1.35.41-1.81.16,0,0-1.83-.98-1.83-.98-.47-.25-.76-.79-.76-1.56,0-1.53,1.15-3.38,2.57-4.14.71-.38,1.34-.41,1.81-.16l1.83.98s-.06-.03-.09-.04Z"/>
        <path class="cls-58" d="M216.43,259.49c0-1.53-1.15-2.16-2.57-1.4-1.42.76-2.57,2.61-2.57,4.14s1.15,2.16,2.57,1.4c1.42-.76,2.57-2.61,2.57-4.14Z"/>
        <path class="cls-53" d="M215.58,259.95c0-1.02-.77-1.44-1.72-.93s-1.72,1.74-1.72,2.77.77,1.44,1.72.93,1.72-1.75,1.72-2.77Z"/>
        <path class="cls-64" d="M302.12,266.69c.52.23.85.78.85,1.6,0,1.53-1.15,3.38-2.57,4.14-.71.38-1.35.41-1.81.16,0,0-1.83-.98-1.83-.98-.47-.25-.76-.79-.76-1.56,0-1.53,1.15-3.38,2.57-4.14.71-.38,1.34-.41,1.81-.16l1.83.98s-.06-.03-.09-.04Z"/>
        <path class="cls-64" d="M302.97,268.29c0-1.53-1.15-2.16-2.57-1.4-1.42.76-2.57,2.61-2.57,4.14s1.15,2.16,2.57,1.4c1.42-.76,2.57-2.61,2.57-4.14Z"/>
        <path class="cls-54" d="M302.12,268.74c0-1.02-.77-1.44-1.72-.93-.95.51-1.72,1.74-1.72,2.77s.77,1.44,1.72.93c.95-.51,1.72-1.75,1.72-2.77Z"/>
        <polygon class="cls-80" points="209.46 255.53 209.47 259.81 262.38 288.42 262.36 284.13 209.46 255.53"/>
        <polygon class="cls-37" points="262.36 284.13 262.38 288.42 302.97 266.61 302.96 262.32 262.36 284.13"/>
        <polygon class="cls-32" points="209.46 255.53 262.36 284.13 302.96 262.32 250.05 233.72 209.46 255.53"/>
        <polygon class="cls-37" points="220.13 215.14 220.25 255.97 261.02 278.02 260.9 237.19 220.13 215.14"/>
        <polygon class="cls-54" points="257.93 238.78 223.11 219.96 223.22 254.38 258.03 273.2 257.93 238.78"/>
        <polygon class="cls-37" points="260 264.37 221.03 243.3 221.15 244.52 260.12 265.59 260 264.37"/>
        <polygon class="cls-37" points="260 253.36 221.03 232.28 221.15 233.5 260.12 254.58 260 253.36"/>
        <polygon class="cls-80" points="260.9 237.19 261.02 278.02 292.31 261.21 292.18 220.38 260.9 237.19"/>
        <polygon class="cls-78" points="220.13 215.14 260.9 237.19 292.18 220.38 251.41 198.33 220.13 215.14"/>
        <polygon class="cls-33" points="209.46 212.44 209.47 216.72 262.38 245.33 262.36 241.05 209.46 212.44"/>
        <polygon class="cls-37" points="262.36 241.05 262.38 245.33 302.97 223.52 302.96 219.24 262.36 241.05"/>
        <polygon class="cls-32" points="209.46 212.44 262.36 241.05 302.96 219.24 250.05 190.63 209.46 212.44"/>
        <polygon class="cls-80" points="218.49 212.4 261.17 235.48 293.93 217.88 251.24 194.8 218.49 212.4"/>
        <polygon class="cls-80" points="295.01 219.06 262.66 236.43 262.66 226.73 295.01 209.35 295.01 219.06"/>
        <polygon class="cls-39" points="295.01 209.35 262.66 226.73 261.32 226.01 293.67 208.63 295.01 209.35"/>
        <polygon class="cls-37" points="262.66 226.73 262.66 236.43 261.32 235.71 261.32 226.01 262.66 226.73"/>
        <polygon class="cls-80" points="250.83 195.32 218.48 212.7 218.48 203 250.83 185.62 250.83 195.32"/>
        <polygon class="cls-39" points="250.83 185.62 218.48 203 217.14 202.28 249.49 184.9 250.83 185.62"/>
        <polygon class="cls-37" points="218.48 203 218.48 212.7 217.14 211.98 217.14 202.28 218.48 203"/>
        <polygon class="cls-33" points="212.02 197.76 212.04 201.81 262.03 228.84 262.02 224.79 212.02 197.76"/>
        <polygon class="cls-37" points="262.02 224.79 262.03 228.84 300.4 208.23 300.38 204.18 262.02 224.79"/>
        <polygon class="cls-32" points="212.02 197.76 262.02 224.79 300.38 204.18 250.39 177.15 212.02 197.76"/>
        <polygon class="cls-33" points="228.27 191.18 228.28 200.29 259.83 217.34 259.82 208.24 228.27 191.18"/>
        <polygon class="cls-90" points="259.82 208.24 259.83 217.34 284.03 204.34 284.03 195.23 259.82 208.24"/>
        <polygon class="cls-40" points="268.3 210.75 267.41 211.23 267.41 207.09 268.3 206.62 268.3 210.75"/>
        <polygon class="cls-40" points="269.93 209.87 269.04 210.35 269.04 206.22 269.93 205.74 269.93 209.87"/>
        <polygon class="cls-40" points="271.57 209 270.68 209.47 270.68 205.34 271.57 204.86 271.57 209"/>
        <polygon class="cls-40" points="273.2 208.12 272.31 208.6 272.31 204.46 273.2 203.98 273.2 208.12"/>
        <polygon class="cls-40" points="274.84 207.24 273.95 207.72 273.95 203.58 274.84 203.1 274.84 207.24"/>
        <polygon class="cls-40" points="276.47 206.36 275.58 206.84 275.58 202.7 276.47 202.22 276.47 206.36"/>
        <polygon class="cls-40" points="278.11 205.48 277.22 205.96 277.22 201.82 278.11 201.34 278.11 205.48"/>
        <polygon class="cls-24" points="228.27 191.18 259.82 208.24 284.03 195.23 252.48 178.18 228.27 191.18"/>
        <path class="cls-30" d="M256.54,192.14c.19-.94-.36-1.91-1.7-2.63-2.34-1.26-6.13-1.26-8.46,0-1.16.63-1.74,1.45-1.74,2.27,0,0,0,2.21,0,2.21-.01,4.14,11.95,4.39,11.96.03v-2.22c0,.11-.03.23-.05.34Z"/>
        <path class="cls-33" d="M254.84,189.51c2.34,1.26,2.36,3.3.03,4.56-2.33,1.26-6.12,1.26-8.46,0s-2.36-3.3-.03-4.56c2.33-1.26,6.12-1.26,8.46,0Z"/>
        <polygon class="cls-30" points="244.53 179.38 236.6 162.74 244.53 163.41 268.34 176.2 268.34 192.17 244.53 179.38"/>
        <polygon class="cls-25" points="236.6 182.5 236.6 162.74 266.06 178.57 266.06 198.32 236.6 182.5"/>
        <polygon class="cls-64" points="266.06 198.32 268.34 192.17 268.34 176.2 266.06 178.57 266.06 198.32"/>
        <polygon class="cls-33" points="234.78 182.66 232.94 161.17 234.78 160.18 268.3 178.19 268.3 200.66 266.46 201.65 234.78 182.66"/>
        <polygon class="cls-30" points="232.94 183.64 232.94 161.17 266.46 179.17 266.46 201.65 232.94 183.64"/>
        <polygon class="cls-62" points="264.07 180.46 235.33 165.02 235.33 182.36 264.07 197.8 264.07 180.46"/>
        <polygon class="cls-62" points="249.09 204.3 249.11 209.8 257.62 214.4 257.6 208.9 249.09 204.3"/>
        <path class="cls-30" d="M236.03,198.91c0,.6.45,1.33,1.02,1.64.56.3,1.02.06,1.02-.55s-.45-1.33-1.02-1.64c-.56-.3-1.02-.06-1.02.55Z"/>
        <path class="cls-4" d="M233.08,197.33c0,.6.45,1.33,1.02,1.64s1.02.06,1.02-.55-.45-1.34-1.02-1.64c-.56-.3-1.02-.06-1.02.55Z"/>
        <path class="cls-81" d="M230.14,195.74c0,.6.45,1.33,1.02,1.64.56.3,1.02.06,1.02-.55s-.45-1.33-1.02-1.64c-.56-.3-1.02-.06-1.02.55Z"/>
        <polygon class="cls-81" points="245.04 204.45 246.5 205.23 246.5 203.66 245.04 202.87 245.04 204.45"/>
        <polygon class="cls-73" points="245.04 207.32 246.5 208.1 246.5 206.53 245.04 205.74 245.04 207.32"/>
        <polygon class="cls-30" points="242.37 203.01 243.83 203.8 243.83 202.22 242.37 201.43 242.37 203.01"/>
        <polygon class="cls-62" points="242.37 205.88 243.83 206.67 243.83 205.09 242.37 204.3 242.37 205.88"/>
        <polygon class="cls-30" points="239.7 201.58 241.16 202.36 241.16 200.79 239.7 200 239.7 201.58"/>
        <polygon class="cls-30" points="239.7 204.45 241.16 205.23 241.16 203.66 239.7 202.87 239.7 204.45"/>
        <polygon class="cls-19" points="239.52 168.53 239.52 183.36 259.87 194.29 259.87 179.46 239.52 168.53"/>
        <path class="cls-19" d="M246.2,180.85c0,2.79,1.62,6.03,3.9,8.19l4.33,2.33c2.28.29,3.91-1.21,3.91-3.99,0-3.61-2.72-7.98-6.07-9.78-3.36-1.8-6.07-.34-6.07,3.26Z"/>
        <path class="cls-18" d="M239.52,172.09v.84c.46.36.94.79,1.42,1.23.78.72,2.82,3.68,4.49,6.12-.07,0-.13,0-.2,0-.24-.03-.48-.07-.73-.11-.53-.08-1.08-.17-1.59-.13-.89.07-1.7,1.6-1.81,4.19l.8.43c-.08-2.09.72-3.67,1.38-3.72.45-.04.94.04,1.47.13.25.04.51.09.75.11.2.02.39.03.56.03,1.5,2.18,2.39,3.45,2.81,3.81.08.07.14.11.22.15.77.41,1.79-.17,2.77-1.11.04.38.14.77.23,1.16.06.24.12.48.17.71.2,1.05.03,2-.47,2.53-.48.51-1.24.66-2.08.39l1.76.95c.37-.09.69-.28.94-.55.61-.65.83-1.82.58-3.1-.05-.26-.12-.53-.19-.79-.14-.58-.29-1.14-.2-1.53.02-.11.02-.29-.02-.52.31-.35.61-.7.89-1.06.82-1.06,4.36-1.11,6.38-1.01v-.89c-1.35-.07-4.99-.21-6.54.73-.1-.07-.2-.14-.3-.22-.73-.59-1.45-1.45-2.09-2.49-.32-.52-.62-1.08-.91-1.62-.75-1.39-1.53-2.83-2.71-3.85-.39-.34-.79-.6-1.19-.81-.33-.18-.66-.32-.98-.47-.1-.04-.21-.13-.32-.23l-1.96-1.05c.63,1.05,1.84,1.89,2.34,2.12.67.31,1.31.6,1.9,1.11.97.83,1.63,2.07,2.34,3.39.3.57.62,1.15.96,1.71.73,1.18,1.56,2.16,2.41,2.86-1.93,2.46-3.35,3.15-3.71,2.84-.34-.29-1.86-2.51-3.08-4.29-1.91-2.8-3.89-5.69-4.82-6.54-.57-.52-1.13-1.02-1.67-1.43Z"/>
        <path class="cls-19" d="M249.53,183.35c0,1.63,1.23,3.6,2.74,4.42,1.51.81,2.74.15,2.74-1.47s-1.23-3.6-2.74-4.42c-1.51-.81-2.74-.15-2.74,1.47Z"/>
        <path class="cls-33" d="M335.26,210c4.25,11.76,7.55,19.15,10.77,24.52l-9.58,5.02c-2.5-3.13-5.52-7.08-9.71-12.4l8.52-17.14Z"/>
        <path d="M307.58,304.12c-.59,1.11-1.83,4.53-1.13,7.03,1.26,2.43,3.83,1.77,6.12,1.71,4.42-.13,7.17,2.5,12.89,1.49,3.4-.6,5.53-1.68,5.83-3.81-.08-.94-.85-1.78-2.25-2.52,0,0-8.45-1.88-8.68-1.97-.23-.09-4.2-1.85-4.32-2.09-.12-.24-2.52-5.57-2.52-5.57h-7.11l1.16,5.73Z"/>
        <path d="M293.49,317.16c-.67,2.38-.79,3.07-.37,4.79.42.9.82,1.3,1.29,2.55.56,1.55.62,4.17,3.22,5.63,3.1,2.07,8.89,1.91,10.59-.51-.06-1.14-1-3.63-2.62-5.61l-3.2-4.95-.06-4.77-8.52-1.35-.33,4.22Z"/>
        <path class="cls-61" d="M303.55,243.88l6.36,31.32c-.86,9.56-4.35,19-3.34,28.22.78,3.82,9.27,3.2,10.87.37-.6-7.17,3.85-17.83,5.47-29.6.3-11.64.07-23.62-2.54-32.84l-16.82,2.53Z"/>
        <path class="cls-55" d="M303.55,243.88l6.36,31.32c-.86,9.56-4.35,19-3.34,28.22.78,3.82,9.27,3.2,10.87.37-.6-7.17,3.85-17.83,5.47-29.6.3-11.64.07-23.62-2.54-32.84l-16.82,2.53Z"/>
        <path class="cls-55" d="M320.7,244.01c.41,3.24-3.93,11.98-9.18,16.06.11,6.93-.24,18.95-1.09,26.82-3.37,11.45-6.4,22.42-6.87,29.59-1.34,1.73-5.55,2.56-8.26,1.76-.22-.06-.39-.11-.54-.19-.06-.02-.12-.05-.18-.08-.96-.44-1.63-1.17-1.68-2.22-.4-9.08.92-18.32,3.2-27.68l-2.1-31.97c-1.95-4.33-3.04-9.36-.87-17.07l2.31.42,25.27,4.55Z"/>
        <path class="cls-33" d="M337.87,218.49c-2.25,11.82-12.22,17.84-12.22,17.84l-2.1,3.74-1.79,4.27.22.77c1.36,5.65,2.71,25.51,1.92,34.19-.02.2-.94,2.73-4.46,2.54,0-5.92-1.88-17.45-1.95-17.45-.68,7.44-1.49,14.81-3.1,17.9-10.6,4.25-15.57-.69-21.27-4.01-3.32-21.36-1.49-36.69,0-39.24,1.73-15.6,12.88-20.36,12.88-20.36,4.24-6.61,12.33-10.41,12.33-10.41,25.58-10.41,19.54,10.21,19.54,10.21Z"/>
        <path class="cls-87" d="M323.9,279.31c-.02.2-.94,2.73-4.46,2.54,0-5.92-1.88-17.45-1.95-17.45-.68,7.44-1.49,14.81-3.1,17.9-10.6,4.25-15.57-.69-21.27-4.01,13.42-12.35,12-42.17,12-42.17l11.7-4.09,4.94,12.31.22.77c1.36,5.65,2.71,25.51,1.92,34.19Z"/>
        <path class="cls-87" d="M331.32,213.12s-5.88-2.23-8.31.79c-2.43,3.02-2.29,7.92-1.27,13.15l1.2,3.98,1.88-1.04-1.19,2.66-1.19,10.01,11.66-15.7-1.81-.8,1.8-.55s3.78-6.99-2.77-12.5Z"/>
        <path class="cls-83" d="M325.15,221.84c.36,1.8,3.17,7.43-.95,18.48,0,0,8.8-14.03,8.73-20.21l-7.78,1.74Z"/>
        <path class="cls-76" d="M338.07,222.5l-3.75,1.63-5.86,2.55s-2.6-.41-3.52-5.89c-.94-5.65,2.27-6.25,2.27-6.25l5.66-.62,5.2,8.59Z"/>
        <polygon class="cls-7" points="334.32 224.13 328.46 226.68 331.23 221.15 334.32 224.13"/>
        <path class="cls-76" d="M331.23,221.15s-3.96-11.22,6.85-13.3c3.06-.59,9.45,1.67,10.85,6.99.87,3.33,2,7.1-4.43,10.64l-.57,2.29c-.91.31-.86.56-1.55.4l-1.35.23s-1.55,1.15-3.87.67c-2.32-.49-6.41-3.89-5.92-7.92Z"/>
        <path d="M333.35,221.73s1.17,1.07,1.17,1.07c1.75-.27,3.11.1,4.57-.63.97-.48,2.18-.42,3.08.16,1.05.68,2.72,1.31,5.19,1.12,0,0,1.53-.58,2.23-1.22,1.62-1.46,2.95-7.55-3.78-12.66-1.97-1.5-5.15-3.5-10.17-1.29-5.23,2.31-6.99,7.66-5.79,11.9.4,1.41,2.09,2.19,3.49,1.53Z"/>
        <path class="cls-76" d="M335.05,221c-.29-.75-1.3-1.13-2.12-.9-.82.23-1.41.96-1.57,1.75-.08.4-.06.84.18,1.19.32.46.97.66,1.55.6,1.3-.13,2.44-1.36,1.96-2.63Z"/>
        <path class="cls-48" d="M425.92,308.6l-23.79,5.55v53.04c0,.52.37,1.04,1.11,1.44l9.71,5.21c1.48.8,3.88.8,5.37,0l24.84-13.38c.74-.4,1.11-.92,1.11-1.44v-53.04l-18.34,2.62Z"/>
        <path class="cls-48" d="M346.12,265.73l-23.79,5.55v53.04c0,.52.37,1.04,1.11,1.44l9.71,5.21c1.48.8,3.88.8,5.37,0l24.84-13.38c.74-.4,1.11-.92,1.11-1.44v-53.04l-18.34,2.62Z"/>
        <path class="cls-58" d="M444.27,311.55v23.6c0,.52-.37,1.04-1.11,1.44l-24.84,13.38c-1.48.8-3.88.8-5.37,0l-9.71-5.21c-.74-.4-1.11-.92-1.11-1.44v-31.77h42.13Z"/>
        <path class="cls-58" d="M364.46,261.42v30.87c0,.52-.37,1.04-1.11,1.44l-24.84,13.38c-1.48.8-3.88.8-5.37,0l-9.71-5.21c-.74-.4-1.11-.92-1.11-1.44v-39.03h42.13Z"/>
        <g>
          <polygon class="cls-64" points="343.65 296.37 336.75 292.61 329.5 283.54 336.4 287.3 343.65 296.37"/>
          <polygon class="cls-75" points="343.65 296.37 336.75 292.61 329.5 283.54 336.4 287.3 343.65 296.37"/>
        </g>
        <g>
          <polygon class="cls-30" points="336.4 287.3 329.5 283.54 366.6 263.61 373.5 267.37 336.4 287.3"/>
          <polygon class="cls-59" points="336.4 287.3 329.5 283.54 366.6 263.61 373.5 267.37 336.4 287.3"/>
        </g>
        <g>
          <polygon class="cls-64" points="413.54 333.91 406.64 330.16 399.39 321.09 406.29 324.85 413.54 333.91"/>
          <polygon class="cls-75" points="413.54 333.91 406.64 330.16 399.39 321.09 406.29 324.85 413.54 333.91"/>
        </g>
        <g>
          <polygon class="cls-30" points="406.29 324.85 399.39 321.09 436.5 301.16 443.39 304.92 406.29 324.85"/>
          <polygon class="cls-59" points="406.29 324.85 399.39 321.09 436.5 301.16 443.39 304.92 406.29 324.85"/>
        </g>
        <path class="cls-91" d="M304.22,268.42c-.24-1.17.45-2.39,2.13-3.29l33-17.73c2.93-1.57,7.66-1.57,10.56,0,55.64,30.09,103.81,56.05,127.63,68.93,1.45.78,2.17,1.81,2.17,2.84,0,0,.02,5.47.02,5.47,0,1.04-.73,2.08-2.21,2.87l-33,17.73c-2.93,1.57-7.66,1.57-10.56,0-36.54-19.76-87.49-47.23-127.63-68.93-1.44-.78-2.17-1.8-2.17-2.83l-.02-5.48c0,.14.05.29.08.43Z"/>
        <path class="cls-91" d="M306.35,265.13c-2.93,1.57-2.94,4.12-.03,5.69,40.13,21.7,91.08,49.17,127.63,68.93,2.91,1.57,7.64,1.57,10.56,0l33-17.73c2.93-1.57,2.94-4.12.03-5.69-23.81-12.88-71.98-38.84-127.63-68.93-2.91-1.57-7.64-1.57-10.56,0l-33,17.73Z"/>
        <path class="cls-36" d="M439.21,337.91c-1.41,0-2.74-.28-3.65-.77-17.73-9.59-29.97-16.22-54.42-29.41-25.94-13.99-52.55-28.35-73.2-39.52-.15-.08-.27-.16-.36-.23.1-.07.22-.16.39-.25l33-17.72c.92-.49,2.25-.77,3.67-.77s2.74.28,3.65.77c33.75,18.25,69.04,37.28,96.89,52.31,18.06,9.74,21.37,11.55,30.74,16.62.15.08.27.16.36.23-.1.07-.22.16-.39.24l-33,17.73c-.92.49-2.25.78-3.67.78Z"/>
        <path class="cls-33" d="M361.68,251.66c.01,1.85-6.03,4.6-7.54,3.23-8.75-5.16-11.79-7.97-17.69-15.36l9.58-5.02c4.55,7.58,8.94,11.12,15.65,17.14Z"/>
        <polygon class="cls-57" points="343.95 268.08 342.57 265.83 340.93 261.19 344.86 261.19 343.95 268.08"/>
        <path class="cls-2" d="M333.3,272.66l-2.77-2.1-1.52-.16-3.83-2.12-1.76-.6-.64.11-.89.12c-.84.18-1.11-.65-.32-.94l1.57-.42,1.83.15.03-.41-2.15-.92-1.22-.11c-.53.08-.95-.65-.22-1.01l1.13-.28.67-.5c.34-.25.76-.39,1.19-.39h.81s.94-.75.94-.75c.31-.25.76-.31,1.13-.14l1.8.79,2.11,1.27s1.34-.22,2.28.52c.6.47.73,2.19.73,2.19l2.92,2.12-3.8,3.6Z"/>
        <path class="cls-52" d="M369.19,271.51s-15.48,9.37-20.89,8.84c-5.41-.53-5.73-14.52-5.73-14.52,1.7-1.55,2.91-2.44,5.14-2.32l3.22,7.16,10.81-8,7.45,8.84Z"/>
        <path class="cls-29" d="M369.19,271.51s-15.48,9.37-20.89,8.84c-5.41-.53-5.73-14.52-5.73-14.52,1.7-1.68,3.16-2.3,5.48-1.56l2.87,6.4,10.81-8,7.45,8.84Z"/>
        <path class="cls-13" d="M369.19,271.51s-15.48,9.37-20.89,8.84c-5.41-.53-5.73-14.52-5.73-14.52,1.7-1.68,3.16-2.3,5.48-1.56l2.87,6.4,10.81-8,7.45,8.84Z"/>
        <path class="cls-2" d="M358.98,254.11l-5.06-1.41s-2.18-6.32-9.03-6.29c-6.85.03-8.92,5.48-8.92,5.48,0,0-2.94,6.04,3.88,10.23,10.01,6.14,10.45,1.66,10.56-2.28l3.22,2.62,5.35-8.36Z"/>
        <path d="M357.04,253.24c-4.38.5-6.54.05-11.24-2.89l-2.09.91c-.9-.25-1.68-.58-2.49-.35-3.03.85-7.74,4.13-4.42,8.02-3.35,1.57-6.12-8.5.04-13.12,4.64-3.47,8.31-3.28,11.15-1.66,3.51,2,6.32,6.27,11.11,5.81.52.98-1.73,2.24-2.07,3.29Z"/>
        <path class="cls-3" d="M352.42,257.38l-4.41-2.84s2.81,1.44.09,8.02c-2.72,6.58,4.32-5.18,4.32-5.18Z"/>
        <path d="M437.35,293.31c2.47.07,4.07-.7,5.63.11.76.59,2.71,1.78,3.79,2.51,1.35.88,5.62,3.78,6.34,6.33,1.18,3.14-.71,7.51-3.5,8.29-2.03,0-4.61-4.18-6.09-6.06l-4.72-4.47-5.22-.56.83-5.7,2.94-.46Z"/>
        <path d="M432.7,299.33c.59-.68,2.98-1.11,4.92-1.44,2.05.03,1.37,2.68,2.77,3.43,1.74.94,5.7,1.54,6.69,5.26.59,2.21-.46,5.65-1.84,6.46-.67.23-1.48.02-2.4-.6,0,0-5.2-4.58-5.33-4.69-.13-.11-3.78-1.12-3.98-1.12-.2,0-3.34-.7-3.34-.7l-3.58-7.5,6.09.88Z"/>
        <path class="cls-61" d="M388.75,301.15c1.09,10.97,34.52,6.86,44.78,5.5.78-1.54-1.09-3.5-1.17-5.09-.09-1.51,0-1,.34-2.23-7.37-1.89-21.11-2.17-30.37-.96l5.52-9.69,4.29-7.52-1.72-3.51-5.2-10.61-2-4.1-3.57,2.71-5.15,3.92-4.13,13.6c-.58,2.19-.96,4.62-1.21,6.98-.52,5.01-.47,9.67-.41,11Z"/>
        <path class="cls-10" d="M389.16,290.15c7.58,5.48,3.04,13.19,10.76,14.32,11.17-.88,24.96-1.13,32.45-2.92-.09-1.51,0-1,.34-2.23-7.37-1.89-21.11-2.17-30.37-.96l5.52-9.69,2.44-8.76c.08-.79.13-1.55.13-2.27.08-5.06-1.66-8.6-5.2-10.61-1.21-.7-2.62-1.2-4.27-1.54-.44.02-.88.07-1.3.16l-5.15,3.92-4.13,13.6c-.58,2.19-.96,4.62-1.21,6.98Z"/>
        <path class="cls-61" d="M396.17,271.98c-1.23,7.99-.59,16.53.86,25.31.42,2.44,1.73,3.61,4.99,4.27,13.51-.39,29.05-1.18,36.77-1.54,1.98-1.55,2.05-4.04-1.06-6.79-13.38.32-18.26-5.66-28.99-2.14l4.68-12.84c6.57-13.97-7.21-18.62-16.39-18.14-4.86.25,1.11,5.31-.86,11.87Z"/>
        <path class="cls-56" d="M351.98,265.83c1.65,1.42,2.25,2.36,2.69,3.41.58,1.35.9,2.86,2.98,5.83,7.61,7.08,11.05-8.23,32.72,8.1,2.38-3.46,4.82-7.51,5.8-11.19.07-.22.12-.44.17-.65,3.22-7.15,1.5-11.32,1.5-11.32-12.54,1.65-23.97-4.26-29.61-7.86-2.38-1.53-5.18-2.37-8.06-2.37-1.39.01-2.31.26-3.43,2.22l-4.75,13.83Z"/>
        <path class="cls-11" d="M354.67,269.24c.58,1.35.9,2.86,2.98,5.83,7.61,7.08,11.05-8.23,32.72,8.1,2.38-3.46,4.82-7.51,5.8-11.19-.26-.12-.58-.18-.94-.22-1.94-.18-4.06.64-6.01.79-2.49.19-5,.05-7.44-.42-3.02-.6-8.31-2.49-13.16-4.74-.84.42-1.72.77-2.67.95-2.31.44-4.82-.09-6.7-1.42-.76-.54-1.41-1.22-1.93-1.96-.69,1.28-1.61,2.76-2.66,4.28Z"/>
        <path class="cls-56" d="M364.11,258.24c-5.6,9.08-8.44,16.26-14.66,20.28-6.06,2.13-18.81-6.71-19.49-7.77-.7-1.07,2.42-4.34,4.8-3.66l9.7,4.12,6.8-13.11c1.27-3.43,2.82-7.14,7.35-8.02l5.51,8.17Z"/>
        <path class="cls-2" d="M348.27,252.01c.05-.38-.12-.74-.28-1.09-.22-.46-.44-.93-.79-1.32-.34-.39-.82-.71-1.36-.76-.54-.05-1.13.21-1.32.68-.13.32-.07.69.09,1s.41.57.66.82c.49.5,2.74,2.48,2.99.66Z"/>
        <path class="cls-33" d="M345.58,263.86c.24-.53-.14-1.1-.27-1.66-.12-.47-.07-.96-.24-1.41-.2-.53-.69-.94-1.23-1.18-.54-.25-1.15-.36-1.74-.46-.5-.09-1.04-.17-1.5.03-.69.29-.95,1.07-1.07,1.76-.1.52-.16,1.07.01,1.58.35,1.05,1.57,1.61,2.71,1.88.95.22,2.82.62,3.33-.53Z"/>
        <path class="cls-33" d="M304.74,228.69s-2.54,23.79,4.1,26.77c4.88,5.28,19.26,7.85,21.62,8.36,0,0,4.75-3.26,2.23-5.74-2.43-.9-16.81-9.19-16.81-9.19l.49-11.79c2.96-12.76-10.67-14.07-11.63-8.41Z"/>
        <path class="cls-83" d="M331.89,258.72c2.25-.44,4.15-.22,5.61-.14,1.46.08,5.83,2.81,5.83,2.81l1.06,2.62s.3,1.64-.39,2.6c-.23.32-1.06.34-1.06.34,0,0-.02.69-.38.83-.71.29-1.15-.31-1.41-.86,0,0-.7.3-1.14.08s-.94-1.15-.94-1.15c0,0-.57.38-1-.04-.55-.52-1.02-2.49-1.02-2.49l-2.28-.29-2.53.34c-1.05-.15-1.75.2-2.45-.42-.48-.83.56-3.62,2.09-4.24Z"/>
        <g>
          <g>
            <g>
              <g class="cls-44">
                <path class="cls-58" d="M107.24,322.8l-2.14,1.16c.41-.22.98-.19,1.61.15l2.14-1.16c-.63-.34-1.2-.37-1.61-.15Z"/>
                <path class="cls-58" d="M108.3,329.09l2.14-1.16c.41-.22.66-.69.66-1.35,0-1.33-1-2.96-2.25-3.63l-2.14,1.16c1.25.67,2.26,2.3,2.25,3.63,0,.66-.25,1.13-.66,1.35Z"/>
                <path d="M106.71,324.11c-1.25-.67-2.26-.13-2.27,1.2,0,1.34,1,2.96,2.25,3.63s2.26.13,2.27-1.2c0-1.33-1.01-2.96-2.25-3.63Z"/>
              </g>
              <g class="cls-44">
                <path class="cls-58" d="M123.56,340.07l-2.14,1.16c.41-.22.98-.19,1.61.15l2.14-1.16c-.63-.34-1.2-.37-1.61-.15Z"/>
                <path class="cls-58" d="M124.62,346.35l2.14-1.16c.41-.22.66-.69.66-1.35,0-1.33-1-2.96-2.25-3.63l-2.14,1.16c1.25.67,2.26,2.3,2.25,3.63,0,.66-.25,1.13-.66,1.35Z"/>
                <path d="M123.03,341.37c-1.25-.67-2.26-.13-2.27,1.2,0,1.33,1.01,2.96,2.25,3.63,1.25.67,2.26.13,2.27-1.2,0-1.33-1-2.96-2.25-3.63Z"/>
              </g>
              <g class="cls-44">
                <path class="cls-58" d="M158.98,337.04l-2.14,1.16c.41-.22.98-.19,1.61.15l2.14-1.16c-.63-.34-1.2-.37-1.61-.15Z"/>
                <path class="cls-58" d="M160.04,343.33l2.14-1.16c.41-.22.66-.69.66-1.35,0-1.33-1-2.96-2.25-3.63l-2.14,1.16c1.25.67,2.26,2.3,2.25,3.63,0,.66-.25,1.13-.66,1.35Z"/>
                <path d="M158.45,338.35c-1.25-.67-2.26-.13-2.27,1.2,0,1.33,1,2.96,2.25,3.63,1.25.67,2.26.13,2.27-1.2,0-1.33-1.01-2.96-2.25-3.63Z"/>
              </g>
              <g class="cls-44">
                <path class="cls-58" d="M164.28,318.44l-2.14,1.16c.41-.22.98-.19,1.61.15l2.14-1.16c-.63-.34-1.2-.37-1.61-.15Z"/>
                <path class="cls-58" d="M165.34,324.73l2.14-1.16c.41-.22.66-.69.66-1.35,0-1.34-1-2.96-2.25-3.63l-2.14,1.16c1.25.67,2.26,2.3,2.25,3.63,0,.66-.25,1.13-.66,1.35Z"/>
                <path d="M163.74,319.74c-1.25-.67-2.26-.13-2.27,1.2,0,1.33,1.01,2.96,2.25,3.63,1.25.67,2.26.13,2.27-1.2,0-1.34-1-2.96-2.25-3.63Z"/>
              </g>
              <g class="cls-44">
                <path class="cls-58" d="M132.28,309.17l-2.14,1.16c.41-.22.98-.19,1.61.15l2.14-1.16c-.63-.34-1.2-.37-1.61-.15Z"/>
                <path class="cls-58" d="M133.34,315.46l2.14-1.16c.41-.22.66-.69.66-1.35,0-1.34-1-2.96-2.25-3.63l-2.14,1.16c1.25.67,2.26,2.3,2.25,3.63,0,.66-.25,1.13-.66,1.35Z"/>
                <path d="M131.75,310.47c-1.25-.67-2.26-.13-2.27,1.2,0,1.33,1,2.96,2.25,3.63s2.26.13,2.27-1.2c0-1.34-1-2.96-2.25-3.63Z"/>
              </g>
              <g>
                <path class="cls-71" d="M166.41,319.23l-25.31,7.58-.64-6.78,22.4-3.53c.67-.09,1.63-.18,2.25.4.77.71,1.08,1.23,1.29,2.32Z"/>
                <path class="cls-48" d="M166.41,319.23l-25.31,7.58-.94-3.96,24.04-5.06c1.32-.3,1.93.35,2.21,1.44Z"/>
                <path class="cls-71" d="M138.97,318.55l-4.65-10.06c-.07-.15-.23-.24-.4-.22l-2.03.17c-.18.01-.31.15-.33.31l-.09.99,2.28,10.62,5.21-1.8Z"/>
                <path class="cls-48" d="M131.48,309.73l2.28,10.62.86-.14-2.71-11.38c-.07-.29-.29-.38-.34-.08l-.09.99Z"/>
                <path class="cls-48" d="M132.31,326.39c-.14-2.18-.27-4.36,0-5.41h10.75v5.41c0,.74-.52,1.48-1.57,2.04-2.1,1.13-5.5,1.13-7.6,0-1.05-.56-1.57-1.3-1.57-2.04Z"/>
                <path class="cls-71" d="M133.88,318.94c-2.1,1.13-2.1,2.96,0,4.08,2.1,1.13,5.5,1.13,7.6,0,2.1-1.13,2.1-2.96,0-4.08-2.1-1.13-5.5-1.13-7.6,0Z"/>
                <path class="cls-71" d="M132.76,323.11l-.07,4.07-26.49-2.7.5-2.1s.69-1.28,2.31-1.28,23.37-.52,23.37-.52c-.21.93-.11,1.86.37,2.53Z"/>
                <path class="cls-71" d="M160.93,337.98l-1.78.91-19.84-9.82-.03-4.07c1.72-.27,2.87-.94,3.55-1.93l16.42,11.82c1.11.71,1.64,1.75,1.67,3.09Z"/>
                <path class="cls-48" d="M132.76,323.11l-24.27-.61c-1.27-.04-2.02.63-2.29,1.98l26.49,2.7.07-4.07Z"/>
                <path class="cls-71" d="M137.72,325.04v4.25l-13.34,12.51-2.04-.47c-.11-1.2.19-2.3.88-3.33l10.13-14.12c.98.94,2.51,1.24,4.38,1.16Z"/>
                <path class="cls-48" d="M137.72,325.04v4.25l-13.34,12.51c.03-1.14.21-2.23,1.05-3.11l12.3-13.65Z"/>
                <path class="cls-48" d="M159.15,338.89c-.04-1.32-.5-2.37-1.64-2.99l-18.23-10.91.03,4.07,19.84,9.82Z"/>
              </g>
            </g>
            <g>
              <path class="cls-92" d="M140.11,307.64c-.13-.12-.29-.24-.48-.34-1.15-.62-3.01-.62-4.16,0-.19.1-.35.22-.48.34h-.38v12.89c0,.4.29.81.86,1.12,1.15.62,3.01.62,4.16,0,.57-.31.86-.71.86-1.12v-12.89h-.38Z"/>
              <path class="cls-28" d="M140.5,303.12c1.63.87,1.63,2.29,0,3.16-1.63.87-4.26.87-5.89,0-1.63-.87-1.63-2.29,0-3.16,1.63-.87,4.26-.87,5.89,0Z"/>
              <path class="cls-58" d="M142.86,291.9c-.6-.57-1.52-1.06-2.81-1.38-1.63-.41-3.36-.41-5,0-1.29.33-2.22.82-2.81,1.38h-.79v13.86c0,1.16,1.14,2.32,3.43,2.96,1.74.48,3.6.48,5.34,0,2.29-.63,3.43-1.8,3.43-2.96v-13.86h-.79Z"/>
              <path class="cls-28" d="M140.22,288.94c4.57,1.27,4.57,4.65,0,5.91-1.74.48-3.6.48-5.34,0-4.57-1.27-4.57-4.65,0-5.91,1.74-.48,3.6-.48,5.34,0Z"/>
            </g>
            <path class="cls-58" d="M143.16,296.88l-10.88-5.84c-9.24-4.96-16.47-15.64-16.47-24.32v-14.68h3.84v14.68c0,7.39,6.53,16.91,14.55,21.22l10.88,5.84-1.92,3.09Z"/>
            <path class="cls-50" d="M114.93,292.95v-5.94h2.91c.98-.93,2.2-1.81,3.68-2.6,8.78-4.72,23.03-4.72,31.81,0,1.48.79,2.7,1.67,3.68,2.6h2.91v5.94c0,3.09-2.2,6.18-6.59,8.54-8.78,4.72-23.03,4.72-31.81,0-4.39-2.36-6.59-5.45-6.59-8.54Z"/>
            <path class="cls-50" d="M153.33,278.46c8.78,4.72,8.78,12.37,0,17.09-8.78,4.72-23.03,4.72-31.81,0-8.78-4.72-8.78-12.37,0-17.09,8.78-4.72,23.03-4.72,31.81,0Z"/>
            <path class="cls-33" d="M121.52,298.91c8.78,4.72,23.03,4.72,31.81,0,4.39-2.36,6.59-5.45,6.59-8.54v2.58c0,3.09-2.2,6.18-6.59,8.54-8.78,4.72-23.03,4.72-31.81,0-4.39-2.36-6.59-5.45-6.59-8.54v-2.58c0,3.09,2.2,6.19,6.59,8.54Z"/>
            <g>
              <path class="cls-33" d="M127.02,240.37c-1.08-.58-2.57-.5-4.22.38l-13.85,7.44c-3.27,1.76-5.91,6.01-5.9,9.51v2.64c.01,1.74.67,2.96,1.74,3.53l4.58,2.48s.08.04.12.06c1.07.52,2.5.41,4.09-.44l13.85-7.44c3.27-1.76,5.91-6.02,5.9-9.51v-2.63c-.02-1.74-.67-2.96-1.74-3.53l-3.04-1.64-1.55-.84Z"/>
              <path class="cls-50" d="M128.56,241.2c-1.07-.52-2.51-.41-4.09.44l-13.85,7.44c-3.27,1.76-5.91,6.01-5.9,9.51v2.64c.01,1.74.67,2.96,1.74,3.53l3.04,1.64c1.07.52,2.5.41,4.09-.44l13.85-7.44c3.27-1.76,5.91-6.02,5.9-9.51v-2.63c-.02-1.74-.67-2.96-1.74-3.53l-3.04-1.64Z"/>
              <g>
                <path class="cls-50" d="M113.54,250.67c-3.27,1.76-5.91,6.02-5.9,9.51v2.63c.02,3.5,2.68,4.91,5.95,3.15l13.85-7.44c3.27-1.76,5.91-6.02,5.9-9.51v-2.63c-.02-3.5-2.68-4.91-5.95-3.15l-13.85,7.44Z"/>
                <path class="cls-50" d="M113.54,250.67c-3.27,1.76-5.91,6.02-5.9,9.51v2.63c.02,3.5,2.68,4.91,5.95,3.15l13.85-7.44c3.27-1.76,5.91-6.02,5.9-9.51v-2.63c-.02-3.5-2.68-4.91-5.95-3.15l-13.85,7.44Z"/>
              </g>
            </g>
          </g>
          <g class="cls-15">
            <path class="cls-24" d="M269.41,349.87c1.48.79,1.48,2.06.03,2.85l-115.73,62.58c-1.55.84-4.06.85-5.61.01l-76.74-41.22c-1.47-.79-1.48-2.07-.03-2.86l30.13-16.45c1.45-.79,3.82-.79,5.29,0l23.96,12.87c1.62.87,4.22.86,5.82,0l79.89-43.2c1.46-.79,3.84-.79,5.32,0l47.67,25.44Z"/>
          </g>
          <g class="cls-44">
            <path class="cls-79" d="M218.69,324.13l-4.07,2.2c.69-.37,1.65-.32,2.7.25l4.07-2.2c-1.06-.57-2.01-.62-2.7-.25Z"/>
            <polygon class="cls-79" points="236.67 336.97 240.74 334.77 221.4 324.38 217.33 326.58 236.67 336.97"/>
            <polygon class="cls-58" points="260.64 355.58 264.71 353.38 264.71 351.72 260.64 353.92 260.64 355.58"/>
            <polygon class="cls-79" points="256.85 347.81 260.92 345.61 244.32 336.69 240.25 338.89 256.85 347.81"/>
            <path class="cls-79" d="M260.64,353.92l4.07-2.2c0-2.24-1.69-4.98-3.79-6.11l-4.07,2.2c2.1,1.13,3.8,3.86,3.79,6.11Z"/>
            <polygon class="cls-48" points="240.25 338.89 244.32 336.69 244.42 304.46 240.35 306.66 240.25 338.89"/>
            <polygon class="cls-58" points="240.35 306.66 244.42 304.46 240.83 302.54 236.77 304.73 240.35 306.66"/>
            <path class="cls-58" d="M236.77,304.73l-.1,32.23-19.34-10.39c-2.1-1.13-3.81-.22-3.81,2.02v1.66s47.12,25.32,47.12,25.32v-1.66c.01-2.24-1.68-4.98-3.79-6.11l-16.6-8.92.1-32.23-3.58-1.92Z"/>
          </g>
          <g class="cls-44">
            <path class="cls-79" d="M83.82,362.52l-4.07,2.2c.69-.37,1.65-.32,2.7.25l4.07-2.2c-1.06-.57-2.01-.62-2.7-.25Z"/>
            <polygon class="cls-79" points="133.5 392.39 137.57 390.19 86.53 362.77 82.46 364.97 133.5 392.39"/>
            <polygon class="cls-58" points="157.47 411 161.54 408.8 161.54 407.14 157.48 409.34 157.47 411"/>
            <polygon class="cls-79" points="153.68 403.23 157.75 401.03 141.15 392.11 137.08 394.31 153.68 403.23"/>
            <path class="cls-79" d="M157.48,409.34l4.07-2.2c0-2.24-1.69-4.98-3.79-6.11l-4.07,2.2c2.1,1.13,3.8,3.86,3.79,6.11Z"/>
            <polygon class="cls-48" points="137.08 394.31 141.15 392.11 141.25 359.88 137.18 362.08 137.08 394.31"/>
            <polygon class="cls-58" points="137.18 362.08 141.25 359.88 137.67 357.96 133.6 360.16 137.18 362.08"/>
            <path class="cls-58" d="M133.6,360.16l-.1,32.23-51.04-27.42c-2.1-1.13-3.81-.22-3.81,2.02v1.66s78.82,42.35,78.82,42.35v-1.66c.01-2.24-1.68-4.98-3.79-6.11l-16.6-8.92.1-32.23-3.58-1.92Z"/>
          </g>
          <polygon class="cls-48" points="239.67 325.64 237.32 324.38 137.99 377.58 140.34 378.84 239.67 325.64"/>
          <polygon class="cls-58" points="239.67 327.85 140.34 381.05 140.34 378.84 239.67 325.64 239.67 327.85"/>
          <g class="cls-44">
            <polygon class="cls-79" points="148.94 400.68 153.01 398.48 141.15 392.11 137.08 394.31 148.94 400.68"/>
            <polygon class="cls-48" points="137.08 394.31 141.15 392.11 141.25 328.5 137.18 330.7 137.08 394.31"/>
            <polygon class="cls-58" points="137.18 330.7 141.25 328.5 137.67 326.58 133.6 328.78 137.18 330.7"/>
            <polygon class="cls-58" points="133.6 328.78 133.5 392.39 137.08 394.31 137.18 330.7 133.6 328.78"/>
          </g>
          <g class="cls-44">
            <polygon class="cls-48" points="108.64 379.03 112.7 376.83 112.8 315.89 108.73 318.09 108.64 379.03"/>
            <polygon class="cls-58" points="108.73 318.09 112.8 315.89 109.22 313.96 105.15 316.16 108.73 318.09"/>
            <polygon class="cls-58" points="105.15 316.16 105.06 377.11 108.64 379.03 108.73 318.09 105.15 316.16"/>
          </g>
          <g>
            <path class="cls-74" d="M270.49,294.25c.12-.59-.23-1.2-1.08-1.65l-47.67-25.44c-1.48-.79-3.86-.79-5.32,0l-79.89,43.2c-1.6.86-4.2.87-5.82,0l-23.96-12.87c-1.47-.79-3.84-.79-5.29,0l-30.13,16.45c-.72.39-1.08.91-1.08,1.43,0,0-.01,3.63-.01,3.63,0,.52.37,1.05,1.11,1.45l76.74,41.22c1.56.84,4.07.83,5.61-.01l115.73-62.58c.72-.39,1.08-.9,1.08-1.41v-3.64c.01.07-.01.14-.03.21Z"/>
            <path class="cls-65" d="M269.41,292.59c1.48.79,1.48,2.06.03,2.85l-115.73,62.58c-1.55.84-4.06.85-5.61.01l-76.74-41.22c-1.47-.79-1.48-2.07-.03-2.86l30.13-16.45c1.45-.79,3.82-.79,5.29,0l23.96,12.87c1.62.87,4.22.86,5.82,0l79.89-43.2c1.46-.79,3.84-.79,5.32,0l47.67,25.44Z"/>
          </g>
          <g>
            <g>
              <path class="cls-85" d="M191.51,326.56c0-.17-.05-.34-.18-.5l-5.76-7.02c-.11-.14-.27-.26-.46-.36-.62-.33-1.59-.45-2.43-.25l-23.39,5.54c-.83.2-1.31.63-1.31,1.09,0-.01,0,2.6,0,2.6,0,.16.06.33.19.48l5.75,7.02c.11.14.27.26.46.36.62.33,1.58.45,2.44.25l23.39-5.54c.82-.19,1.3-.63,1.3-1.08v-2.61s0,.01,0,.02Z"/>
              <path class="cls-17" d="M185.11,318.68c.19.1.35.22.46.36l5.76,7.02c.49.6-.01,1.3-1.12,1.56l-23.39,5.54c-.85.2-1.82.09-2.44-.25-.19-.1-.34-.22-.46-.36l-5.75-7.02c-.49-.6,0-1.3,1.12-1.56l23.39-5.54c.85-.2,1.81-.09,2.43.25Z"/>
            </g>
            <g class="cls-44">
              <polygon class="cls-46" points="206.2 276.91 206.1 313.56 141.41 328.89 141.51 292.24 206.2 276.91"/>
              <polygon class="cls-46" points="141.51 292.24 141.41 328.89 140.14 327.33 140.24 290.69 141.51 292.24"/>
              <g>
                <polygon class="cls-17" points="204.92 275.36 206.2 276.91 141.51 292.24 140.24 290.69 204.92 275.36"/>
                <polygon class="cls-17" points="204.92 275.36 206.2 276.91 141.51 292.24 140.24 290.69 204.92 275.36"/>
              </g>
            </g>
            <g class="cls-44">
              <polygon class="cls-42" points="191.51 291.55 191.46 311.9 155.53 320.42 155.59 300.06 191.51 291.55"/>
              <polygon class="cls-46" points="155.59 300.06 155.53 320.42 154.82 319.55 154.88 299.2 155.59 300.06"/>
              <g>
                <polygon class="cls-17" points="190.81 290.69 191.51 291.55 155.59 300.06 154.88 299.2 190.81 290.69"/>
                <polygon class="cls-17" points="190.81 290.69 191.51 291.55 155.59 300.06 154.88 299.2 190.81 290.69"/>
              </g>
            </g>
            <g class="cls-44">
              <g>
                <polygon class="cls-17" points="179.16 310.12 179.06 325.93 170.33 327.99 170.43 312.18 179.16 310.12"/>
                <polygon class="cls-42" points="179.16 310.12 179.06 325.93 170.33 327.99 170.43 312.18 179.16 310.12"/>
              </g>
              <polygon class="cls-85" points="170.43 312.18 170.33 327.99 168.55 325.84 169.15 310.63 170.43 312.18"/>
              <polygon class="cls-35" points="177.89 308.56 179.16 310.12 170.43 312.18 169.15 310.63 177.89 308.56"/>
            </g>
          </g>
          <g>
            <g>
              <path class="cls-23" d="M247.91,296.15s-2.82-2.71-2.82-2.71h-2.15c-4.17-1.3-9.35-1.3-13.53,0h-2.15l-2.84,2.71c-2.88,2.76-2.16,6.32,2.22,8.67,5.27,2.83,13.8,2.83,19.07,0,4.38-2.35,5.1-5.91,2.2-8.67Z"/>
              <path class="cls-70" d="M228.94,292.25c-3.99,2.15-3.99,5.63,0,7.77,3.99,2.15,10.47,2.15,14.47,0,3.99-2.15,3.99-5.63,0-7.77-3.99-2.15-10.47-2.15-14.47,0Z"/>
            </g>
            <path class="cls-62" d="M243.37,294.94c0,.93-2.2.9-2.23,0v-12.18c0-2.08-.65-4.1-1.87-5.84l-9.65-13.67,1.44-.88,9.65,13.67c1.41,2,2.16,4.32,2.16,6.72l.51,12.18Z"/>
            <g>
              <g>
                <path class="cls-28" d="M212.62,269.22l10.34-8.88c.19-.18.65-.13,1.37.24.11.06.22.12.33.18l3.17-2.73c.07-.07.21-.09.4-.06.55.1,1.11.21,1.66.31.1.02.24.07.42.16.85.44,2.1,1.61,2.78,2.6.27.39.4.69.42.9.03.24.07.51.1.77.03.23.06.47.09.7,0,.02.02.06.01.08.02.18-.01.31-.11.38.02,0-3.2,2.75-3.2,2.75.4.76.46,1.27.19,1.45.03-.02-10.31,8.86-10.31,8.86-.21.18-.67.12-1.37-.24-1.72-.89-4.22-3.23-5.58-5.23-.81-1.19-1.03-1.99-.72-2.26Z"/>
                <g class="cls-44">
                  <path class="cls-23" d="M213.35,271.48c1.36,2,3.86,4.34,5.58,5.23.7.36,1.16.43,1.37.24l5.66-4.86,1.88-1.61,2.8-2.41c-.21.18-.67.12-1.36-.23-.25-.13-.49-.27-.75-.44-1.63-1.08-3.67-3.06-4.84-4.8-.81-1.19-1.03-1.99-.72-2.26l-.32.28-1.88,1.61-8.14,6.99c-.31.27-.09,1.07.72,2.26Z"/>
                  <path class="cls-72" d="M224.33,260.58c-1.72-.89-2.01.01-.65,2.02,1.36,2,3.86,4.34,5.58,5.23,1.72.89,2.01-.02.65-2.02-1.36-2-3.86-4.34-5.58-5.23Z"/>
                </g>
                <g class="cls-44">
                  <path class="cls-70" d="M230.32,258.45c-.85-.44-1,0-.32,1,.68,1,1.92,2.17,2.78,2.61.85.44,1,0,.32-1.01-.68-.99-1.92-2.16-2.78-2.6Z"/>
                  <path class="cls-23" d="M227.84,258.04l-3.54,3.04c-.23.2-.06.81.55,1.7,1.03,1.51,2.91,3.28,4.21,3.95.52.27.87.32,1.03.18l3.54-3.04c-.16.14-.51.09-1.03-.18-1.3-.67-3.18-2.44-4.21-3.95-.61-.9-.78-1.5-.55-1.7Z"/>
                  <path class="cls-72" d="M229.9,258.29c-.55-.1-1.11-.21-1.66-.31-.7-.13-.68.55.14,1.76,1.03,1.51,2.91,3.28,4.21,3.95.8.41,1.19.31,1.13-.19.01-.02,0-.05-.01-.08-.03-.23-.06-.47-.09-.7-.03-.26-.07-.52-.1-.78.04.33-.21.4-.74.13-.85-.44-2.1-1.61-2.78-2.61-.55-.8-.56-1.25-.09-1.16Z"/>
                </g>
              </g>
              <path class="cls-72" d="M227.88,267.17l-9.67,8.57c-.66-.36-1.22-.85-1.7-1.45l9.7-8.49c.55.55,1.11,1.03,1.67,1.37Z"/>
            </g>
          </g>
          <g>
            <g>
              <polygon class="cls-45" points="99.45 330.11 122.6 317.59 122.67 317.54 99.52 330.05 99.45 330.11"/>
              <polygon class="cls-23" points="99.23 329.49 122.38 316.98 104.71 307.48 81.56 320 99.23 329.49"/>
              <polygon class="cls-70" points="99.43 325.3 122.58 312.78 104.72 303.19 81.57 315.7 99.43 325.3"/>
              <path class="cls-70" d="M99.49,325.38l-.06-.08,23.15-12.52.06.08c.47.61.78,1.38.87,2.15.12,1.09-.19,2.03-.84,2.52l-23.15,12.52c.65-.5.96-1.44.84-2.52-.09-.78-.4-1.54-.87-2.15Z"/>
              <path class="cls-33" d="M119.93,318.3c.45-.37.66-1.11.56-1.96-.06-.51-.23-1.02-.48-1.47l2.36-1.27c.26.45.43.96.49,1.48.1.84-.12,1.59-.56,1.96l-2.36,1.27Z"/>
              <path class="cls-23" d="M99.88,327.34c.08.56,0,1.08-.18,1.5-.13.26-.28.49-.48.65l-17.67-9.49v.49l17.9,9.61.08-.05c.3-.23.53-.56.65-.94.18-.47.23-1.01.18-1.59-.02-.16-.05-.3-.08-.47-.15-.61-.43-1.19-.8-1.68l-.05-.07-.65-.35-15.61-8.4-1.61-.87v.51l1.61.87,15.16,8.12.96.51c.3.44.53,1.01.6,1.57v.07Z"/>
              <polygon class="cls-1" points="83.41 317.19 98.32 325.2 98.32 328.1 83.41 320.09 83.41 317.19"/>
              <path class="cls-65" d="M98.32,325.19v2.92l1.56-.84c-.08-.56-.3-1.12-.6-1.57l-.96-.51Z"/>
              <polygon class="cls-33" points="98.14 309.88 108.98 315.7 114.95 312.5 104.11 306.67 98.14 309.88"/>
            </g>
            <g>
              <polygon class="cls-45" points="100.45 324.65 123.6 312.13 123.67 312.08 100.52 324.59 100.45 324.65"/>
              <polygon class="cls-50" points="100.23 324.03 123.38 311.52 105.71 302.02 82.56 314.54 100.23 324.03"/>
              <polygon class="cls-58" points="100.43 319.84 123.58 307.32 105.72 297.73 82.57 310.24 100.43 319.84"/>
              <path class="cls-58" d="M100.49,319.92l-.06-.08,23.15-12.52.06.08c.47.61.78,1.38.87,2.15.12,1.09-.19,2.03-.84,2.52l-23.15,12.52c.65-.49.96-1.44.84-2.52-.09-.78-.4-1.54-.87-2.15Z"/>
              <path class="cls-65" d="M120.93,312.84c.45-.37.66-1.11.56-1.96-.06-.51-.23-1.02-.48-1.47l2.36-1.27c.26.45.43.96.49,1.48.1.84-.12,1.59-.56,1.96l-2.36,1.27Z"/>
              <path class="cls-65" d="M104.66,321.33c.21-.4.3-.93.24-1.52-.03-.26-.09-.52-.17-.77l12.12-6.51c.08.25.14.51.17.77.07.59-.02,1.12-.23,1.52l-12.12,6.51Z"/>
              <path class="cls-79" d="M100.89,321.88c.08.56,0,1.08-.18,1.5-.13.26-.28.49-.48.65l-17.67-9.5v.49l17.9,9.61.08-.05c.3-.23.53-.56.65-.94.18-.47.23-1.01.18-1.59-.02-.16-.05-.3-.08-.47-.15-.61-.43-1.19-.8-1.68l-.05-.07-.65-.35-15.61-8.4-1.61-.87v.51l1.61.87,15.16,8.12.96.51c.3.44.53,1.01.6,1.57v.07Z"/>
              <polygon class="cls-65" points="84.41 311.73 99.32 319.74 99.32 322.64 84.41 314.63 84.41 311.73"/>
              <path class="cls-65" d="M99.33,319.73v2.92l1.56-.84c-.08-.56-.3-1.12-.6-1.57l-.96-.51Z"/>
            </g>
          </g>
        </g>
        <path class="cls-14" d="M231.55,416.08l28.4,15.54c2.05,1.1,5.37,1.1,7.43,0l34.79-18.69c2.05-1.1,2.05-2.89,0-3.99l-28.4-15.54c-2.05-1.1-5.37-1.1-7.43,0l-34.79,18.69c-2.05,1.1-2.05,2.89,0,3.99Z"/>
        <g>
          <path class="cls-33" d="M298.92,410.97c-5.73-23.56-5.73-23.72-5.73-23.91h2.75-1.38l1.36-.2c.13.67,3.47,14.45,5.68,23.54.38,1.12-2.4,1.66-2.69.57Z"/>
          <path class="cls-33" d="M265.32,430.3c-.23,1.08-2.74,1-2.74-.25l3.03-28.96,2.74.25-3.03,28.96Z"/>
          <path class="cls-33" d="M235.8,414.33c-.2,1.29-2.93,1.21-2.74-.25l3.03-28.96,2.74.25-3.03,28.96Z"/>
          <path class="cls-50" d="M302.98,350.22s0,.07-.02.2c-.22,2.71-2.54,31.39-2.62,34.39-.09,3.15-2.47,4.16-2.47,4.16,0,0-29,15.48-30.92,16.55-1.92,1.07-2.9.48-2.9.48l-29.78-15.75c-3.48-1.84-3.35-5.07-3.35-5.07v-2.4c.05-5.87,5.74-9.13,5.74-9.13,0,0,18.3-11.05,20.42-12.27.68-.39,1.18-.84,1.54-1.26.78-.89.95-1.68.95-1.68.32-1.44,5.23-23.43,5.51-24.9.17-.89.42-1.46.59-1.78.13-.23.22-.33.22-.33,1.86-1.65,5.74-.27,5.74-.27,0,0,28.14,15.06,29.98,16.1,1.84,1.04,1.38,2.96,1.38,2.96Z"/>
          <path class="cls-66" d="M233.88,385.61l29.78,15.96s-.86-6.03,4.53-9.34c5.39-3.31,16.87-10.3,16.87-10.3l-25.07-13.03-26.1,16.71Z"/>
          <path class="cls-51" d="M299.95,352.69l-5.77,26.3-2.58-1.44-6.54,4.38-25.07-13.03,1.66-7.37-3.02-1.41c.78-.89.95-1.68.95-1.68.32-1.44,5.23-23.43,5.51-24.9.18-.94,1.3-1.4,2.16-.93l31.18,16.92c1.18.64,1.8,1.91,1.52,3.16Z"/>
        </g>
        <path d="M329.97,267.96c-.3.37-.57.76-.84,1.15-.48.7-.94,1.35-1.55,1.87-1.79,1.51-4.61,1.43-6.65.86-1.68-.48-2.95-1.21-3.78-2.19-1.39-1.65-1.35-3.8-1.21-4.93.19-1.51.79-2.97,1.66-4.27l-1.19-.44c-.9,1.39-1.51,2.95-1.71,4.58-.29,2.26.24,4.32,1.47,5.78.98,1.17,2.46,2.04,4.39,2.58,1.05.3,2.09.44,3.08.44,1.88,0,3.55-.53,4.77-1.55.73-.62,1.25-1.37,1.76-2.1.25-.37.51-.73.79-1.08,1.6-1.96,4.05-3.2,6.37-4.26l-.37-1.12c-2.5,1.13-5.18,2.46-6.99,4.68Z"/>
        <path d="M295.6,280.51c-2.77.2-5.41-.05-7.59-1.38-2.12-1.29-3.69-3.62-4.43-6.56-.59-2.33-.64-4.81-.69-7.2l-.02-1.01c-.15-6.09-.78-12.25-1.4-18.21-.5-4.8-1.01-9.76-1.26-14.65-.19-3.72-.28-8.01,1.14-11.93.64-1.78,1.61-3.51,2.55-5.19,1.47-2.62,2.98-5.34,3.35-8.36.32-2.6-.59-5.78-3.23-7.03v1.34c1.61,1.16,2.24,3.52,1.99,5.56-.34,2.81-1.74,5.31-3.22,7.95-.96,1.72-1.95,3.49-2.62,5.35-1.49,4.11-1.4,8.53-1.2,12.36.25,4.92.77,9.89,1.26,14.71.61,5.94,1.25,12.08,1.39,18.13l.02,1c.05,2.46.1,5,.72,7.45.81,3.23,2.58,5.8,4.96,7.26,1.99,1.22,4.27,1.64,6.65,1.64.56,0,1.13-.02,1.71-.07l-.09-1.16Z"/>
        <g>
          <polygon class="cls-33" points="397.94 215.25 447.26 241.75 447.26 153.3 397.94 126.81 397.94 215.25"/>
          <g>
            <polygon class="cls-88" points="443.58 158 401.62 135.46 401.62 132.63 443.58 155.17 443.58 158"/>
            <polygon class="cls-88" points="423.71 152.48 401.62 140.62 401.62 137.79 423.71 149.66 423.71 152.48"/>
          </g>
          <g>
            <polygon class="cls-88" points="424.8 218.71 443.07 228.53 443.07 229.94 424.8 220.12 424.8 218.71"/>
            <polygon class="cls-88" points="431.18 224.7 443.07 231.09 443.07 232.5 431.18 226.11 431.18 224.7"/>
            <polygon class="cls-88" points="424.8 223.83 443.07 233.65 443.07 235.06 424.8 225.24 424.8 223.83"/>
            <polygon class="cls-88" points="435.46 232.12 443.07 236.21 443.07 237.62 435.46 233.53 435.46 232.12"/>
          </g>
          <g>
            <path class="cls-82" d="M407.1,199.03c.07.5.18,1.12.36,1.74.19.66.47,1.3.86,1.8.06.08.12.15.19.22.06.07.13.14.21.22.06.06.12.12.18.17.03.03.06.05.08.07.04.04.08.07.12.1.05.04.09.08.14.12.11.09.17.14.24.18.07.05.15.11.22.15.07.05.15.1.22.14.1.06.17.1.24.14.09.05.19.11.29.15.15.08.3.15.45.22l.17.08c.11.05.23.09.34.14.07.03.15.06.22.08.03,0,.05.02.07.03.07.02.14.05.23.08.14.05.29.1.43.14.71.22,1.52.24,2.02-.02.02.03.05.07.07.11.2.3.44.59.71.85.31.3.67.56,1.07.74.48.21,1.01.27,1.45.17.1-.02.19-.05.27-.09-.03.81-.51,1.5-1.27,1.81-.65.27-1.5.29-2,.72-.63.53-.55,1.49-.44,2.37.08.67.16,1.34.24,2.01.05.43.11.87.28,1.31.16.4.43.81.82,1.1.04.03.07.05.11.08.45.29,1.04.4,1.39.18.3-.19.37-.58.31-.97-.06-.38-.24-.77-.35-1.15-.28-.96-.17-1.91.31-2.63.48-.72,1.32-1.19,2.32-1.32.75-.09,1.66-.03,2.05-.53.27-.33.22-.82.14-1.3-.02-.15-.05-.3-.07-.45-.03-.22-.04-.43-.03-.64.12.1.23.2.35.29.11.09.21.17.32.26.71.55,1.46,1.07,2.29,1.4.95.38,2.01.47,2.7.06.69-.41.85-1.41.2-2.17-.35-.41-.93-.83-.83-1.24.1-.39.72-.33,1.18-.36,1.21-.08,2.29-1.19,1.12-2.94-.26-.39-.56-.76-.79-1.15-.24-.39-.35-.87-.09-1.13.18-.17.48-.21.75-.27,1.38-.26,2.58-.57,3.25-1.51.08-.11.15-.24.21-.37.59-1.25.52-2.84-.19-4.35l-.13.94c-1.17,1.46-3.01,2.44-5.16,2.75-.73.1-1.06.08-1.66.38-.6.3-.97.97-.62,1.66,1.1,2.14,1.73,2.48,1.54,2.88-.18.38-1.18-.04-1.79-.18-.08-.45-.19-.91-.31-1.36-.34-1.35-.74-2.97-1.68-4.32-.03-.04-.06-.09-.09-.13.03,0,.06,0,.08,0,1.3.14,2.13-.39,2.26-.97.49.72,1.6,1.01,2.33.79,1.5-.45,1.56-2.23,2.64-3.1.41-.33,1.03-.51,1.66-.4.21.04.42.1.62.21-.24-.69-.48-1.43-1.23-1.8-.09-.05-.19-.09-.28-.12-.15-.05-.29-.1-.44-.13-.22-.05-.43-.07-.64-.07-.28-1.1-1.75-2.74-2.97-2.51-1.09.2-1.96,1.7-2.11,2.82-.02.16-.03.31-.02.45,0,.11.03.23.06.34-.23-.25-.44-.52-.67-.77-.22-.25-.46-.48-.75-.64-1.05-.61-2.14-.08-2.57.51-.09.13-.15.25-.18.37-1.2-.74.26-3.77-2.76-5.15-.21-.1-.45-.19-.7-.26-.5-.15-1.49.8-1.8,1.07-.29-.89-.77-1.82-1.58-2.53-.8-.71-1.97-1.17-2.85-.95-.52.13-.91.5-1.02.98s-.27,1.06.11,1.55c.09.02.19.05.28.07-1.15.03-2,.72-2.3,1.64-.3.92.19,2.03.32,3.08.07.56.18,1.05.33,1.47.86,2.46,2.87,2.73,3.81,2-.18.27-.32.56-.42.86-.02.05-.03.11-.05.16-.01.04-.02.08-.03.12,0,.04-.02.08-.03.13-.01.07-.03.15-.04.22,0,.06-.01.11-.02.16,0,.04,0,.09-.01.13-.03.47.02.96.17,1.45-.72-.98-2.25-1.42-3.22-1.05-.97.37-1.38,1.37-1.24,2.41ZM413.67,192.92s.05.09.07.13c-.33.13-.62.29-.89.49-.17.13-.33.27-.47.4.69-1.52-.36-5,.81-6.4.7.29.67.6.67,1.21,0,.13-.02.26-.05.39-.21.99-1,2.05-.14,3.77ZM410.21,199.84c.2-.17.49-.27.83-.19.03,0,.07.02.11.03.03.01.06.02.1.04.03.01.07.03.11.05.04.02.07.04.11.07.04.02.08.05.11.08.08.05.15.12.24.2.04.04.08.08.12.12.37.39.77.99,1.17,1.88.03.07.06.15.1.22-.4.19-.84.22-1.27.13-.3-.07-.58-.2-.85-.38-.07-.05-.15-.11-.21-.17-.04-.03-.07-.06-.11-.1-.03-.03-.07-.07-.1-.1-.06-.07-.13-.14-.19-.22-.06-.08-.12-.16-.17-.25-.03-.04-.05-.09-.08-.13-.25-.45-.34-1-.01-1.28Z"/>
            <path class="cls-12" d="M417.38,186.32c-.02.19.08.42.21.62.16.24.38.46.54.71.61.92.3,1.88.54,2.85.24.98,1.11,1.97,2.18,2.5-.45-.28-.55-1.34-.53-1.9-.09.13-.15.25-.18.37-1.2-.74.26-3.77-2.76-5.15Z"/>
            <path class="cls-82" d="M423.73,183.33c-1.29-.5-2.64-.4-3.65.07-1.01.48-1.7,1.3-2.19,2.22-.27.5-.48,1.06-.39,1.69.09.63.56,1.34,1.25,1.65.8.37,1.62.1,2.14-.33.52-.43.86-1.02,1.42-1.39.55-.36,1.3-.51,2.09-.42,1.03.12,2.96.41,2.15-1.07-.51-.94-1.76-2.01-2.83-2.42Z"/>
            <path class="cls-86" d="M411.12,171.77c.19,1.47.57,3.01,1.5,4.43,1.3,1.97,3.59,3.51,5.93,4.26,2.34.74,4.7.74,6.76.26,1.02-.24,1.86-1.04,2.63-1.6.13-.1.27-.2.46-.23.53-.07,1.1.48,1.38.98.45.81.56,1.65.44,2.42-.06.41-.19.79-.36,1.15-.51,1.02-1.39,1.8-2.25,2.57.07-.04.14-.07.21-.11l1.82.85,1.31.61c1.55-1.67,2.28-3.98,2.04-6.46-.08-.84-.28-1.7-.7-2.54-.28-.55-.67-1.09-1.15-1.55-.25-.24-.53-.46-.83-.66-1.54-.98-3.56-1.27-5.19-1.25-.05-.04-.1-.08-.15-.12-1.27-1.06-1.99-2.56-2.11-3.91-.13-1.4.3-2.67.89-3.81.59-1.14,1.36-2.18,1.94-3.32,1.18-2.3,1.61-5.01,1.27-7.84-.05-.38-.34-.65-.75-.88-.46-.25-.98-.46-1.44-.43-.46.03-.82.39-.68.82.77,2.3-.3,4.52-1.72,6.05-.25.27-.53.53-.91.67-.38.14-.87.15-1.31-.06-3.02-1.42-6.02.35-7.55,2.3-.75.96-1.2,2.1-1.42,3.33-.24,1.29-.22,2.68-.04,4.07Z"/>
            <path class="cls-12" d="M419.86,171.11c-.01,1.06.4,2.35,1.51,3.13,1.1.77,2.42.74,3.58.54-1.27-1.06-1.99-2.56-2.11-3.91-.13-1.4.3-2.67.89-3.81.59-1.14,1.36-2.18,1.94-3.32,1.18-2.3,1.61-5.01,1.27-7.84-.05-.38-.34-.65-.75-.88-.52,1.11-.19,3.75-.27,4.33-.2,1.42-.68,2.75-1.42,3.92-.82,1.29-1.95,2.38-2.89,3.59-.95,1.21-1.72,2.6-1.75,4.24Z"/>
            <path class="cls-12" d="M411.12,171.77c.19,1.47.57,3.01,1.5,4.43,1.3,1.97,3.59,3.51,5.93,4.26,2.34.74,4.7.74,6.76.26,1.02-.24,1.86-1.04,2.63-1.6.13-.1.27-.2.46-.23.53-.07,1.1.48,1.38.98.45.81.56,1.65.44,2.42.42-.13.5-1.09.52-1.4.04-.64-.16-1.37-.7-1.96-.85-.92-2.27-1.22-3.37-1.07-1.1.14-2.02.62-3.07.86-1.9.45-4.23.1-6.31-.94-2.07-1.04-3.86-2.75-4.83-4.63-.93-1.8-1.09-3.62-1.3-5.45-.24,1.29-.22,2.68-.04,4.07Z"/>
            <path class="cls-12" d="M429.63,186.74l1.31.61c1.55-1.67,2.28-3.98,2.04-6.46-.08-.84-.28-1.7-.7-2.54-.28-.55-.67-1.09-1.15-1.55.07.73.77,1.96.87,2.67.14,1.09.05,2.15-.22,3.12-.42,1.53-1.24,2.87-2.15,4.15Z"/>
            <path class="cls-27" d="M417.79,163.27c-1.43-.44-2.7.18-3.48,1.02-2.02,2.16-1.86,5.89.38,8.93.51.7,1.55,1.86,2.48,1.89-1.09-2.26-1.95-4.25-1.85-6.49.1-2.1.93-4.01,2.46-5.34Z"/>
            <path class="cls-27" d="M421.28,163.48c-.27.01-.63-.05-.78-.29-.11-.18-.03-.36.12-.45s.35-.11.54-.13c.73-.11,1.35-.42,1.81-.87.24-.24.71-1.13.96-.22.31,1.11-1.73,1.92-2.66,1.96Z"/>
            <path class="cls-38" d="M404.62,177.36c0,.3.01.58.02.86.02,1.03.04,2.06.07,3.09,0,.2.01.4.02.6.02.72.05,1.43.09,2.15,0,.21.02.43.03.64.06.96.13,1.91.22,2.87.02.18.03.36.06.55.1.96.22,1.92.36,2.89.03.21.06.41.1.62.02.15.05.31.08.46.14.8.3,1.63.54,2.44.06.22.14.43.21.64.37,1.01.91,1.98,1.74,2.84.3.1.61.17.92.2.71.07,1.35-.09,1.63-.57.19-.34.17-.78.14-1.2-.27-4.21-.55-8.42-.82-12.63-.05-.75,0-1.61.45-2.15.11-.14.24-.25.41-.34.1.09.2.18.3.27.05.05.1.09.15.14.14.13.29.26.43.39.46.43.93.85,1.4,1.28.29.27.59.54.88.81.25.23.5.45.76.67.85.75,1.74,1.46,2.69,2.09.09.06.17.11.26.17.1.06.19.12.29.18,1.06.63,2.18,1.08,3.33,1.44.17.05.34.11.51.16,1.58.47,3.2.81,4.79,1.31.43.14.85.29,1.27.45.32.13.64.26.96.42.16.07.32.17.48.28.6.42,1.17,1.06,1.38,1.6.29.74.29,1.46.26,2.16-.05,1.42-.2,2.83-.42,4.21-.02.12-.04.25-.06.37-.25,1.5-.58,2.98-.95,4.44-.04.17-.09.35-.13.52-.24.95-.51,1.88-.78,2.81-.12.41-.35.74-.67.99-.55.42-1.35.6-2.24.43-.77-.15-1.52-.23-2.19-.2-1.12.86-1.06,2.61-.12,4.06.1.16.22.32.34.47.06.08.13.16.2.23.69.74,1.57,1.32,2.51,1.7.91.37,1.87.58,2.76.58.12,0,.25,0,.37,0,.44-.02.86-.09,1.25-.19,1.03-.27,1.91-.79,2.61-1.45.17-.16.32-.33.47-.5.04-.04.07-.08.11-.13.5-.63.88-1.35,1.18-2.1.06-.15.12-.31.17-.47.21-.6.37-1.23.51-1.85.05-.23.1-.46.15-.69.03-.13.05-.27.08-.4.22-1.15.42-2.31.62-3.46.02-.08.03-.16.04-.24,0-.05.02-.11.03-.16.17-.96.29-1.93.37-2.92.02-.18.03-.35.04-.52.07-1.09.09-2.19.05-3.31,0-.13,0-.26-.01-.39-.01-.38-.04-.76-.07-1.14-.07-.89-.18-1.81-.43-2.71-.03-.1-.06-.2-.09-.3-.2-.6-.46-1.2-.83-1.78-.43-.68-.97-1.3-1.6-1.86-.05-.04-.1-.09-.15-.13-.09-.08-.17-.15-.26-.22-1-.82-2.16-1.5-3.35-2.06-.18-.09-.36-.17-.55-.25-.12-.05-.24-.11-.37-.16-1.88-.78-3.81-1.33-5.71-2.01-.24-.08-.48-.17-.72-.27-.33-.13-.67-.26-1-.4-.6-.25-1.19-.53-1.77-.83-.23-.11-.45-.23-.67-.36-1.14-.62-2.23-1.33-3.26-2.11-.13-.1-.25-.19-.38-.29-.27-.21-.54-.43-.8-.65-.52-.44-1.02-.91-1.52-1.37-.11-.1-.21-.19-.32-.29-.71-.65-1.43-1.29-2.22-1.86-.45-.33-.94-.64-1.43-.9-.12-.06-.25-.13-.37-.19-1-.48-2.05-.78-3.03-.73-.74.04-1.35.74-1.59,1.32-.24.58-.23,1.26-.22,1.93Z"/>
            <path class="cls-12" d="M405.08,187.58c.02.18.03.36.06.55.39.29.78.57,1.19.81.6.35,1.55.81,1.84.2.06-.11-.17-.28-.27-.2-.54.45-1.72-.51-2.28-.92-.14-.1-.33-.27-.54-.44Z"/>
            <path class="cls-12" d="M405.5,191.02c.03.21.06.41.1.62.29.21.6.41.85.55.74.43,1.52.68,2.2.45.22-.07.02-.42-.21-.35-1.08.35-2.04-.51-2.94-1.27Z"/>
            <path class="cls-12" d="M406.21,194.54c.06.22.14.43.21.64.86.53,1.8.84,2.66.59.15-.04.05-.27-.12-.27-.81.03-1.47-.09-2.25-.6-.17-.11-.34-.24-.5-.36Z"/>
            <path class="cls-12" d="M426.52,215.18c1.03.42,2.13.63,3.13.58,1.91-.1,3.45-1.02,4.45-2.27,1-1.25,1.51-2.82,1.86-4.42.34-1.56.61-3.2.89-4.79.48-2.71.63-5.53.41-8.42-.12-1.58-.37-3.25-1.35-4.8-.46-.73-1.06-1.4-1.75-1.99-.27-.07-.54-.1-.79-.06-1.02.14-1.86.95-1,1.76.85.79,1.99,2.52,2.02,6.7.03,4.17-1.34,12.89-3.84,15.87-1.08,1.29-2.55,1.37-4.03,1.87Z"/>
            <path class="cls-12" d="M410.83,181.04c.62.4,1.47.86,3.65,2.64,1.62,1.32,3.23,2.29,4.89,3.18,5.96,3.2,10.04,3.57,10.73,3.75,1.06.27,1.79.85,2.27,1.76,1.62,3.15.61,6.35.23,9.16-.41,3-.84,6.16-2.36,8.67-1.15,1.9-3.69,3.01-6.42,3.03-.13-.15-.24-.31-.34-.47,1-.2,2.08-.25,3.04-.52,1.37-.39,2.4-1.08,3.11-2.14,1.39-2.1,1.9-4.88,2.27-7.44.36-2.52,1.66-5.04.7-7.79-1.22-3.47-2.59-3.26-3.67-3.77-.32-.15-.64-.29-.96-.42-.42-.17-.85-.32-1.27-.45-3.02-.96-6.18-1.34-8.92-3.09-1.67-1.07-3.14-2.41-4.59-3.74-.61-.56-1.22-1.11-1.82-1.67-.15-.13-.3-.27-.45-.41-.08.04-.14.09-.21.14-.09.08-.15.13-.2.2-.44.54-.5,1.4-.45,2.15.27,4.21.55,8.42.82,12.63.03.42.05.87-.14,1.2-.27.48-.92.64-1.63.57-.35-.72-.8-1.84-.85-2.28-.55-4.74-1.16-10.54-1.17-15.17,0-1.34,2.13-1.5,3.76.26Z"/>
            <path class="cls-82" d="M407.1,199.03c.07.5.18,1.12.36,1.74.19.66.47,1.3.86,1.8.06.08.12.15.19.22.06.07.13.14.2.21.07.07.13.13.19.18.03.03.06.05.08.07.04.04.08.07.12.1.05.04.09.08.14.12.11.09.17.14.24.18.07.05.15.11.22.15.07.05.15.1.22.14.1.06.17.1.24.14.09.05.19.11.29.15.15.08.3.15.45.22l.17.08c.11.05.23.09.34.14.07.03.15.06.22.08.03,0,.05.02.07.03.07.02.14.05.21.07.02,0,.02-2.41.02-2.41-.3-.07-.58-.2-.85-.38-.07-.05-.15-.11-.21-.17-.04-.03-.07-.06-.11-.1-.03-.03-.07-.07-.1-.1-.06-.07-.13-.14-.19-.22-.06-.08-.12-.16-.17-.25-.03-.04-.05-.09-.08-.13-.25-.45-.34-1-.01-1.28.2-.17.49-.27.83-.19.03,0,.07.02.1.03.04.01.07.02.1.04.04.01.07.03.11.05.04.02.07.04.11.07.04.02.08.05.11.08.08.06.15.12.23.19.05.05.09.08.13.13v-5.71c-.18.29-.32.6-.42.92-.01.04-.02.08-.03.12,0,.04-.02.08-.03.13-.01.07-.03.15-.04.22,0,.06-.01.11-.02.16,0,.04,0,.09-.01.13-.03.47.02.96.17,1.45-.72-.98-2.25-1.42-3.22-1.05-.97.37-1.38,1.37-1.24,2.41Z"/>
            <path class="cls-82" d="M411.93,194.47c-1.13.79-3.62.23-4.08-3.51-.13-1.05-.62-2.16-.32-3.08.3-.92,1.15-1.62,2.3-1.64-.1-.02-.19-.05-.29-.07-.39-.49-.22-1.06-.11-1.55.11-.48.49-.85,1.02-.98.45-.11.97-.05,1.48.14v10.69Z"/>
            <path class="cls-12" d="M423.64,191.24c.12.26.27.52.48.75.48.52,1.35.85,1.82.55.37-.24.78-1.16.53-1.63-.52.17-.89.68-1.58.57-.22-.04-.43-.13-.62-.27-.02.16-.03.31-.02.45,0,.11.03.23.06.34-.23-.25-.44-.52-.67-.77Z"/>
            <path class="cls-12" d="M415.05,190.24c-.23.75-.25,1.59-.6,2.28.23-.45.99-.81,1.32-1.23.34-.42.83-.97.92-1.52.07-.4.07-.81-.63-.8-.58,0-.89.88-1.01,1.27Z"/>
            <path class="cls-12" d="M416.49,192.56c.12-.95.52-1.89.36-2.9.15.83-.03,1.6,0,2.41.03.81.34,1.77,1.16,2.37.62.46,1.39.62,2.1.68.89.08,1.76.05,2.57-.09.22-.04.45-.09.61-.21.36-.27.31-.84.03-1.31-.27-.47-.8-1.01-1.24-1.4.6.15,1.14.57,1.6,1s.89.91,1.42,1.26c.53.36,1.22.59,1.71.41.54-.2.65-.79.81-1.29.29-.88.88-1.63,1.68-2.15.58.36,1.1.94,1.29,1.47-.36.06-.69.2-.94.41-1.08.86-1.14,2.65-2.64,3.1-.73.22-1.84-.08-2.33-.79-.14.59-1,1.13-2.35.96.03.04.06.09.09.13.94,1.35,1.34,2.97,1.68,4.32.12.45.23.91.31,1.36-.33,1.61-1.33,2.95-2.98,3.52,1.19-1.66,1.45-3.9.84-6.15-.3-1.14-1.13-2.18-1.51-3.25-.18-.02-.36-.04-.53-.07-.91-.12-1.91-.28-2.68-.89-.96-.77-1.18-1.95-1.06-2.89Z"/>
            <path class="cls-12" d="M419.55,202.05c.48-1.22-.25-2.96-1.66-4,.73,0,1.55.33,2.15.87,1.69,1.53.46,2.27-.49,3.12Z"/>
            <path class="cls-12" d="M415.16,205.96c.31.3.67.56,1.07.74.48.21,1.01.27,1.44.17.13-.07.25-.15.36-.25,2.13-1.86-.39-4.54-.93-7.01.31,1.98.58,4.13-.65,5.46-.35.37-.79.66-1.3.88Z"/>
            <path class="cls-12" d="M414.14,195.56c-.69.4-1.16,1.06-1.17,1.86,0,.81.52,1.75,1.39,2.3-.13-.57-.26-1.15-.25-1.69.01-.55.18-1.07.59-1.4.34-.27.82-.4,1.23-.59.56-.26,1.17-.86.12-1.02-.63-.1-1.48.3-1.92.56Z"/>
            <path class="cls-12" d="M408.76,199.83c.02.09.04.18.07.26.17.57.36,1.24.92,1.64,1.02.72,1.72,1.02,2.18,1.04v-.3c-.66-.15-1.3-.62-1.71-1.35-.25-.45-.34-1-.01-1.28.36-.31.99-.38,1.73.4-.43-.69-1.02-1.27-1.64-1.5-.55-.2-1.17-.15-1.43.21-.17.23-.17.55-.1.88Z"/>
            <path class="cls-12" d="M407.46,200.76c.19.66.47,1.3.86,1.8.06.08.12.15.19.22.06.07.13.14.2.21.07.07.13.13.19.18.03.03.06.05.08.07.04.04.08.07.12.1.05.04.09.08.14.12.11.09.17.14.24.18.07.05.15.11.22.15.07.05.15.1.22.14.1.06.17.1.24.14.09.05.19.11.29.15.15.08.3.15.45.22l.17.08c.11.05.23.09.34.14.07.03.15.06.22.08.03,0,.05.02.07.03.07.02.14.05.21.07.16.06.3.1.45.14.71.22,1.52.24,2.02-.02.02.03.05.07.07.11-.13-.39-.65-.8-1.46-.92-.36-.05-.71-.14-1.06-.25-1.75-.55-3.42-1.73-4.48-3.17Z"/>
            <path class="cls-12" d="M408.1,191.84c.02.2.05.39.08.58.86,2.46,2.87,2.73,3.81,2,.21-.21.31-.26.39-.47.7-1.54-.36-5.02.82-6.41.7.29.67.6.67,1.21,0,.13-.02.26-.05.39.31-.3.84-.5.81-.98-.06-.9-1.86-2.21-2.7-2.66.23,2.43.04,4.8-.55,6.99-.15.57-.44,1.19-1.14,1.2-.46,0-.97-.29-1.33-.65-.35-.36-.58-.79-.81-1.2Z"/>
            <path class="cls-12" d="M410.67,189.14c-.21.82-.7,1.5-1.18,2.17.14-.52.27-1.04.41-1.56.09-.33.17-.66.14-1.03-.03-.36-.19-.77-.52-1.07-.33-.3-.97-.41-1.3-.25,0-.47,1.13-1.33,1.99-.77.75.48.58,2.02.45,2.52Z"/>
            <path class="cls-12" d="M415.58,216.1c.45.35,1.12.5,1.5.26.3-.19.37-.58.31-.97-.06-.38-.24-.77-.35-1.15-.28-.96-.17-1.91.31-2.63.48-.72,1.32-1.19,2.32-1.32.75-.09,1.66-.03,2.05-.53.27-.33.22-.82.14-1.3-.02-.15-.05-.3-.07-.45-.03-.22-.04-.43-.03-.64.12.1.23.2.35.29.11.09.21.17.32.26.37.28.75.56,1.15.81.67-.03,1.43.05,2.19.2.89.17,1.7,0,2.24-.43.07-.41-.04-.89-.39-1.29-.35-.41-.93-.83-.83-1.24.1-.39.72-.33,1.18-.36.63-.04,1.23-.36,1.49-.91.05-.17.09-.34.13-.52.03-.42-.11-.93-.49-1.51-.26-.39-.56-.76-.79-1.15-.24-.39-.35-.87-.09-1.13.18-.17.48-.21.75-.27.56-.11,1.09-.22,1.58-.38.02-.12.04-.25.06-.37.02-.34.03-.67.03-1-.73.08-1.49.28-1.84.35-1,.23-2.2.76-1.93,1.92.25,1.11,1.83,2.29,1.4,3.19-.33.69-1.69.57-1.96,1.29-.17.44.14,1.02.13,1.51-.01.8-.9,1.26-1.84,1.13-.94-.13-1.88-.74-2.57-1.46-.69-.72-1.17-1.54-1.65-2.35-.23.99.03,1.79.61,2.87.31,1.71-.9,2.15-2.51,2.6-1.85.51-2.78,2.1-2.42,4,.07.37.11.74.12,1.1,0,.59-.32,1.1-.6,1.59Z"/>
            <path class="cls-12" d="M430.61,199.36c-.02.12-.04.25-.06.37.05-.13.05-.25.06-.37Z"/>
            <path class="cls-12" d="M429.6,204.17c-.04.17-.09.35-.13.52.08-.15.12-.33.13-.52Z"/>
            <path class="cls-27" d="M406.74,175.93c.16-.46.53-.89,1.14-.89.22,0,.31.26.14.33-.39.15-.68.42-.8.8-.13.41.05.72.12,1.15.02.14-.13.24-.29.12-.51-.39-.45-1.1-.32-1.5Z"/>
            <path class="cls-27" d="M405.28,181c.21.22.37.42.62.61.23.17.49.31.72.48.15.12.05.29-.12.22-.54-.22-1.3-.72-1.52-1.23-.07-.16.18-.2.3-.08Z"/>
            <path class="cls-27" d="M405.47,177.56c.23.28.43.56.67.82.11.12.22.23.33.34.1.1.17.19.25.28.09.11,0,.26-.15.18-.13-.07-.23-.12-.35-.23-.14-.13-.27-.26-.4-.39-.26-.27-.54-.56-.71-.87-.12-.2.18-.35.34-.14Z"/>
            <path class="cls-27" d="M405.15,183.83c.19-.05.37.13.52.26.17.14.33.29.51.41.2.13.06.4-.15.27-.2-.12-.37-.25-.55-.4-.16-.13-.39-.26-.41-.44,0-.05.03-.09.08-.1Z"/>
            <path class="cls-27" d="M405.62,187.39c.1-.01.21.04.26.14.1.17.21.28.4.38.26.13.15.43-.11.32-.29-.12-.63-.37-.68-.65-.01-.09.02-.17.12-.18Z"/>
            <path class="cls-27" d="M406.18,190.99c.11.04.23.13.32.2.04.03.08.05.11.08.17.1.17.26.04.26-.01,0-.07-.01-.07,0-.09-.01-.16-.04-.22-.07-.15-.07-.31-.16-.4-.29-.11-.15.07-.23.21-.18Z"/>
            <path class="cls-27" d="M406.7,194.42s.07.04.11.04c.3,0,.25.42,0,.28-.1-.06-.23-.15-.21-.26,0-.04.04-.08.1-.06Z"/>
            <path class="cls-27" d="M433.2,192.33c.34-.14.82-.37,1.27-.16.16.08.21.29.05.33-.18.04-.37.04-.54.1-.17.06-.33.15-.51.19-.31.07-.54-.35-.27-.46Z"/>
            <path class="cls-27" d="M434.03,195.95c.31.07.61.18.92.23.23.04.31.35.12.39-.29.07-.71-.09-1.03-.17-.35-.09-.35-.54,0-.46Z"/>
            <path class="cls-27" d="M433.99,200.02c.32.12.56.23.87.22.17-.01.3.2.23.3-.21.28-.88.07-1.24-.12-.32-.17-.19-.52.14-.4Z"/>
            <path class="cls-27" d="M433.23,203.37c.22,0,.43.14.65.2.23.06.45.09.67.18.24.1.2.37,0,.38-.23,0-.5-.05-.75-.11-.23-.06-.51-.14-.68-.33-.11-.13-.08-.32.11-.31Z"/>
            <path class="cls-27" d="M432.83,206.95c.27.17.58.32.88.31.2,0,.35.26.2.34-.37.21-.93-.08-1.35-.33-.32-.19-.04-.52.27-.33Z"/>
            <path class="cls-27" d="M431.31,210.01c.1-.09.2-.1.33-.05.32.12.67.21.99.35.23.1.24.41,0,.4-.24-.01-.48-.1-.72-.19-.21-.07-.51-.12-.6-.34-.03-.06-.05-.14,0-.18Z"/>
            <path class="cls-27" d="M429.95,211.98c.27.16.51.34.77.52.28.19.52.23.82.34.16.06.16.23.08.29-.47.38-1.43-.47-1.9-.76-.3-.18-.08-.57.22-.39Z"/>
            <path class="cls-27" d="M428.55,213.82c.13.27.38.49.64.66.23.15.12.44-.13.37-.23-.06-.44-.24-.61-.41-.18-.17-.32-.36-.41-.56-.12-.27.38-.34.51-.06Z"/>
            <path class="cls-27" d="M423.39,209.97c.23-.66.83-.74,1.58-.82.38-.04.6.52.27.61-.23.06-.51.04-.73.11-.31.09-.39.32-.47.57-.17.55-.11,1.08,0,1.69.04.24-.32.33-.47.06-.42-.77-.41-1.56-.18-2.22Z"/>
            <path class="cls-12" d="M427.02,213.85c.73.65,1.3,1.56,2.26,1.9.12,0,.25,0,.37,0,.44-.02.86-.09,1.25-.19-.39.01-.79-.01-1.18-.08-1.09-.2-1.63-1.17-2.44-1.85-.2-.17-.46.06-.27.23Z"/>
            <path class="cls-12" d="M428.97,212.47c1.42,1.29,3.05,1.76,4.56,1.64.17-.16.32-.33.47-.5-1.52.27-3.18.02-4.68-1.35-.24-.22-.59-.01-.35.21Z"/>
            <path class="cls-12" d="M430.64,210.56c1.37,1.24,3.2,1.24,4.64.81.06-.15.12-.31.17-.47-.54.17-1.11.28-1.7.3-1.08.03-1.9-.38-2.95-.83-.14-.06-.29.07-.15.19Z"/>
            <path class="cls-12" d="M431.91,207.6c1.15,1.01,2.88,1.07,4.2.77.03-.13.05-.27.08-.4-1.26.25-2.86.24-4.04-.65-.26-.2-.47.08-.24.29Z"/>
            <path class="cls-12" d="M432.63,203.93c.35,1.24,2.78.93,4.19.57.02-.08.03-.16.04-.24,0-.05.02-.11.03-.16-1.15.32-3.01.6-3.89-.27-.16-.15-.42-.1-.36.09Z"/>
            <path class="cls-12" d="M433.2,200.57c.55.72,1.67.8,2.4.79.48,0,1.12-.03,1.65-.17.02-.18.03-.35.04-.52-1.16.23-2.73.73-3.78-.28-.22-.21-.49-.04-.31.19Z"/>
            <path class="cls-12" d="M433.79,196.79c1.04.87,2.4.7,3.55.57,0-.13,0-.26-.01-.39-.43,0-.85.04-1.28.06-.79.04-1.35-.17-2.14-.48-.19-.07-.29.1-.13.23Z"/>
            <path class="cls-12" d="M433.51,193.45c1.08-.14,2.26-.12,3.32-.33-.03-.1-.06-.2-.09-.3-1.15.09-2.52-.13-3.46.33-.18.09.05.33.23.3Z"/>
            <path class="cls-12" d="M431.79,190.51c.38-.99,1.37-1.25,2.52-1.33-.05-.04-.1-.09-.15-.13-.09-.08-.17-.15-.26-.22-1.2.08-2.16.44-2.56,1.47-.09.23.37.44.46.21Z"/>
            <path class="cls-12" d="M428.13,189.3c.3-.51.41-1.15.78-1.61.39-.49,1.01-.71,1.64-.93-.18-.09-.36-.17-.55-.25-.46.12-.88.31-1.21.59-.58.5-.7,1.26-1.07,1.89-.12.21.29.51.41.3Z"/>
            <path class="cls-12" d="M421.04,187.74c.03.33.16.68.33,1.02.17.05.34.11.51.16-.24-.47-.47-.93-.4-1.39.06-.36.32-.63.32-1.01,0-.18-.27-.24-.34-.12-.22.4-.47.83-.43,1.34Z"/>
            <path class="cls-12" d="M417.49,186.98c.09.06.17.11.26.17.1.06.19.12.29.18-.12-.36-.23-.71-.23-1.07,0-.52.23-.95.43-1.38.07-.14-.22-.31-.31-.18-.44.61-.67,1.44-.45,2.29Z"/>
            <path class="cls-12" d="M414.05,184.21c.25.23.5.45.76.67-.27-.92-.64-1.76.11-2.47.1-.1-.13-.31-.25-.22-.59.46-.78,1.22-.62,2.02Z"/>
            <path class="cls-12" d="M411.15,181.03c0,.19,0,.37.04.56.05.05.1.09.15.14.14.13.29.26.43.39-.13-.43-.2-.84-.15-1.25.06-.44.32-.79.33-1.25,0-.16-.31-.28-.34-.12-.1.55-.45.94-.46,1.53Z"/>
            <path class="cls-12" d="M407.6,176.81c.13-.75.66-1.23,1.27-1.62-.24-.32-.45-.57-.57-.64.27.16.53.33.79.51.12-.07.25-.14.37-.21.12.06.25.12.37.19-.14.1-.28.18-.41.27,1.1.84,2.1,1.87,3.08,2.91.09-.06.2-.12.29-.16.21-.11.45-.2.69-.26.11.1.21.19.32.29-.25.1-.51.18-.74.31-.08.05-.16.11-.24.17.72.77,1.44,1.54,2.2,2.24.19-.35.68-.51,1.1-.69.12.1.25.19.38.29-.19.1-.41.17-.61.26-.26.13-.38.28-.46.5.35.3.7.58,1.07.83.65.45,1.33.88,2.02,1.28.14-.25.44-.46.66-.57.17-.09.36-.16.57-.2.22.12.45.24.67.36-.36.02-.69.07-.98.25-.15.1-.28.21-.39.35-.02.03-.05.06-.07.09.98.56,2,1.07,3.02,1.56.07-.11.15-.21.21-.3.1-.18.21-.37.4-.49.16-.11.36-.18.58-.23.24.09.48.18.72.27-.43.05-.89.14-1.12.41-.11.13-.18.38-.3.57,1.2.56,2.39,1.07,3.54,1.55.18-.36.3-.76.72-.95.3-.14.76-.27,1.13-.26.13,0,.26.14.22.24-.11.27-.57.27-.84.36-.44.14-.54.48-.72.81.09.03.08.06-.02.04-.02.04-.04.07-.06.11-.11.16-.46-.02-.47-.2-.21-.03-.45-.07-.73-.1-8.12-1.02-15.08-9.9-15.27-10.14-.13-.17-.52-.74-.9-1.27-.53.37-1,.79-1.1,1.48-.15,1.04.46,2.07.69,3.14.03.15-.21.21-.3.04-.55-1.05-.97-2.35-.8-3.35Z"/>
            <path class="cls-12" d="M404.62,177.37c0,.28.01.57.02.85.21.3.43.59.7.87.62.64,1.37,1.38,2.28,1.5.26.04.25-.25,0-.34-.98-.34-1.78-1.13-2.39-1.91-.24-.31-.42-.64-.61-.97Z"/>
            <path class="cls-12" d="M404.71,181.32c0,.2.01.4.02.6.19.16.37.3.54.44.67.52,1.4.88,2.19,1.02.27.05.27-.28,0-.35-.87-.23-1.58-.63-2.28-1.24-.17-.15-.32-.31-.48-.47Z"/>
            <path class="cls-12" d="M404.82,184.07c0,.21.02.43.03.64.23.19.46.37.65.52.67.51,1.45.95,2.24,1.01.23.01.15-.28-.05-.34-.93-.28-1.66-.7-2.4-1.35-.16-.14-.32-.3-.47-.47Z"/>
            <path class="cls-27" d="M423.04,185.17c.35-.05.71.11,1.08.27.5.22.97.43,1.48.6.22.07.31.38.06.36-.4-.02-.79-.18-1.19-.35-.45-.2-.96-.33-1.38-.56-.14-.08-.21-.29-.05-.31Z"/>
            <path class="cls-27" d="M419.94,183.43c.36.08.74.32,1.06.51.26.16.6.33.72.6.04.09-.06.17-.16.14-.27-.08-.52-.29-.77-.43-.3-.16-.62-.28-.91-.44-.24-.13-.22-.45.06-.38Z"/>
            <path class="cls-27" d="M416.53,181.33c.45.18.8.57,1.22.81.29.16.61.3.74.6.04.09-.07.14-.16.1-.66-.3-1.41-.78-1.95-1.24-.17-.15-.07-.35.15-.26Z"/>
            <path class="cls-27" d="M413.78,178.88c.44.38.77.83,1.24,1.19.15.11.08.27-.08.25-.27-.04-.51-.28-.7-.47-.25-.23-.49-.48-.72-.73-.17-.19.06-.41.27-.23Z"/>
            <path class="cls-27" d="M411.82,177.02c.19.05.36.23.48.37.14.15.24.3.31.47.05.11-.13.11-.19.02-.1-.13-.23-.26-.36-.37-.12-.11-.29-.2-.36-.34-.04-.09,0-.17.12-.15Z"/>
            <path class="cls-27" d="M427.17,187c.13-.01.3.09.43.15.14.06.27.12.39.2.17.11.05.28-.12.21-.23-.09-.69-.12-.81-.37-.05-.11,0-.19.11-.2Z"/>
            <path class="cls-27" d="M429.74,188.15c.43,0,.84.39,1.25.56.46.19.76-.13,1.23-.03.19.04.23.26.09.31-.41.15-.72.39-1.26.22-.42-.13-1.1-.46-1.39-.8-.1-.12-.06-.26.09-.26Z"/>
            <path class="cls-27" d="M411.17,183.93c.64-.04,1.36.32,1.85.83.19.2-.05.41-.28.24-.5-.38-.84-.62-1.44-.63-.31,0-.43-.42-.13-.44Z"/>
            <path class="cls-27" d="M421.59,190.79c.42-.12.88-.04,1.32.26.23.16.07.46-.18.32-.67-.38-1.09-.08-1.53.2-.07.04-.16.04-.25,0-.1-.05-.15-.1-.17-.15-.09-.34.54-.54.82-.62Z"/>
            <path class="cls-27" d="M413.1,193.96c.53-.52,1.42-.65,1.9-1.23.11-.13.42.05.36.21-.21.51-.81.7-1.31.97-.76.4-1.58,1.28-1.67,2.14-.01.14-.27.09-.27-.06.02-.85.42-1.46.99-2.02Z"/>
            <path class="cls-27" d="M407.68,198.16c.33-1.06,2.07-1.56,3.3-.54.27.22.04.48-.25.31-.64-.38-1.14-.46-1.69-.25-.43.16-.66.5-1.06.7-.13.07-.34-.08-.3-.22Z"/>
            <path class="cls-27" d="M424.27,202.77c.63-.42,1.7.2,2.38-.12.15-.07.44.14.3.27-.57.54-1.64,0-2.39.25-.24.08-.48-.27-.29-.39Z"/>
            <path class="cls-27" d="M425.39,198.19c.41-.33,1.05-.27,1.58-.41.17-.05.37.21.22.29-.4.2-1,.22-1.34.49-.24.2-.18.71-.59.73-.08,0-.16-.05-.21-.12-.22-.33.12-.8.34-.98Z"/>
            <path class="cls-27" d="M422,194.46c.09-.21.41-.16.59-.29.18-.13.03-.36.07-.56.02-.1.16-.08.25-.03.36.22.37.69.19.9-.15.18-.64.42-.95.23-.11-.06-.19-.17-.15-.26Z"/>
            <path class="cls-27" d="M414.79,209.64c.23-.28.71-.66,1.24-.37.17.09.18.3,0,.31-.55.02-.96.46-1.02.93-.02.15.1.43-.02.53-.11.09-.31-.03-.41-.15-.33-.41,0-.98.21-1.24Z"/>
            <path class="cls-27" d="M417.53,198.14c1.09.58,1.95,2.07,1.83,2.99-.02.16-.32.1-.31-.07.03-.92-.81-1.96-1.69-2.62-.2-.15-.07-.43.17-.3Z"/>
          </g>
        </g>
        <g>
          <polygon class="cls-33" points="337.48 184.09 386.79 210.58 386.79 122.13 337.48 95.64 337.48 184.09"/>
          <g>
            <polygon class="cls-88" points="382.64 123.79 357.15 110.12 357.15 113.22 382.64 126.89 382.64 123.79"/>
            <polygon class="cls-88" points="355.14 109.04 342.08 102.04 342.08 105.14 355.14 112.14 355.14 109.04"/>
            <polygon class="cls-88" points="366.29 123.77 342.08 110.79 342.08 107.69 366.29 120.68 366.29 123.77"/>
          </g>
          <g>
            <polygon class="cls-88" points="364.18 185.64 382.46 195.45 382.46 196.86 364.18 187.04 364.18 185.64"/>
            <polygon class="cls-88" points="355.69 183.75 382.46 198.01 382.46 199.42 355.69 185.16 355.69 183.75"/>
            <polygon class="cls-88" points="364.18 190.76 382.46 200.57 382.46 201.98 364.18 192.17 364.18 190.76"/>
            <polygon class="cls-88" points="365.14 193.92 382.46 203.13 382.46 204.54 365.14 195.33 365.14 193.92"/>
          </g>
          <g>
            <path class="cls-21" d="M343.09,177.3c0,1.06,1.71,1.92,3.81,1.92,1.1,0,2.09-.24,2.79-.61.64-.34,1.02-.8,1.02-1.31s-.41-.99-1.07-1.33c-.69-.36-1.66-.59-2.74-.59-2.1,0-3.81.86-3.81,1.92Z"/>
            <path class="cls-43" d="M343.09,177.3h7.62s0-5.54.02-5.53c11.2,6.71,11.8,7.71,19.74,10.05,0,0,8.08,1.83,9.34-4.2.04-.21.08-.42.11-.63.72-5.69-5.25-9.57-7.29-11.04-.89-.63-2.47-1.44-4.3-2.3-.27-.13-.56-.26-.84-.39.86.3,1.63.5,2.13.55,1.32.11,6.3.51,7.16-4.74.03-.17.05-.34.06-.51.46-5-4.52-8.73-5.8-9.56-8.64-5.54-13.95-6.48-16.91-10.84-.05-.07-.1-.14-.15-.22.8.23,7.43,4.98,9.71,6.17,3.76,1.97,6.51,2.63,9.59,0,3.07-2.63,1.79-11.24,1.79-11.24h-7.62v5.04c-3.96-3.14-10.12-6.37-10.12-6.37-7.37-3.5-10.14.55-10.84,1.94-.13.27-.19.44-.19.44-2.64,7.36,5.72,12.72,8.15,14.09.27.15.44.24.54.3-8.63-3.29-10.29,3.42-10.29,3.42-.12.66-.16,1.29-.13,1.9.16,3.41,2.45,5.77,3.94,7.45,1.75,1.97,9,5.72,15.02,8.23,6.02,2.52,8.36,5.52,8.36,5.52-.07-.02-.13-.03-.21-.05-4.96-2.93-15.31-8.04-16.97-9.04-4.03-2.43-7.53-1.74-9.8.49-2.27,2.23-1.82,11.09-1.82,11.09Z"/>
            <path class="cls-9" d="M350.37,138.55c2.35.67,2.09-1.31,3.6-.61.8.23,7.43,4.98,9.71,6.17,3.76,1.97,6.51,2.63,9.59,0,3.07-2.63,1.79-11.24,1.79-11.24,0-.68-.71-1.28-1.78-1.62.14.54.28,1.08.41,1.62.11.44.21.89.29,1.33.15.81.27,1.63.29,2.45.07,1.88-.31,3.83-1.44,5.39-1.13,1.56-3.09,2.68-5.11,2.56-1.71-.1-3.23-1.02-4.65-1.91-1.79-1.12-3.58-2.24-5.36-3.36-1.25-.78-2.58-1.41-3.87-2.14-1.84-1.03-3-1.38-3.56-1.16-.94.36-1.4,2.09.09,2.51Z"/>
            <path class="cls-9" d="M354.43,148c.21.11.4.21.58.32,3.01,1.65,6.26,3.72,9.21,5.34,1.51.83,3.07,1.71,4.04,3.07.83,1.17,1.51,2.68,1.21,4.06,1.05-.56,1.57-1.78,1.44-2.9-.13-1.12-.82-2.14-1.69-2.92-.87-.78-1.93-1.36-2.97-1.94-2.83-1.55-5.66-3.11-8.48-4.67-3.15-1.73-6.37-3.52-8.7-6.15-2.13-2.42-3.4-5.73-2.59-8.73-.13.27-.19.44-.19.44-2.64,7.36,5.72,12.72,8.15,14.09Z"/>
            <path class="cls-9" d="M347.46,154.68c.2.61.95.96,1.63.94.69-.02,1.47-.38,2.06-.71,1.18.26,2.49,1.21,12.12,6.44,1.51.81,2.23,1.21,4.2,1.91.86.3,1.63.5,2.13.55,1.32.11,6.3.51,7.16-4.74.03-.17.05-.34.06-.51-.93,1.89-2.82,3.4-5.02,3.82-1.91.36-3.91-.02-5.69-.75-1.78-.73-3.33-1.86-4.98-2.82-3.38-1.94-6.38-3.75-9.82-5.19-.81-.34-1.67-.72-2.55-.57-.88.16-1.56.83-1.29,1.63Z"/>
            <path class="cls-9" d="M344.56,153.61c.16,3.41,2.45,5.77,3.94,7.45,1.75,1.97,9,5.72,15.02,8.23,6.02,2.52,8.36,5.52,8.36,5.52.36.66-1.92,1.78-.22,2.94.76.52,1.68.44,2.01-.4.4-1-.29-2.06-.95-2.93-2.57-3.43-6.41-4.7-10.6-6.6-3.86-1.75-7.72-3.5-11.18-5.87-.76-.52-1.48-1.09-2.15-1.7-1.17-1.06-2.21-2.26-3-3.59-.39-.65-.73-1.34-.98-2.05-.11-.3-.17-.66-.24-1.01Z"/>
            <path class="cls-9" d="M347.45,171.41c.54.59,1.55.69,2.3.36-.08,1.38-.11,2.79-.11,4.2,0,.44,0,.89.01,1.33,0,.44.02.87.03,1.31.64-.34,1.02-.8,1.02-1.31v-5.54c11.22,6.72,11.82,7.72,19.76,10.06,0,0,8.08,1.83,9.34-4.2.04-.21.08-.42.11-.62-.38.74-.94,1.41-1.62,1.94-1.48,1.16-3.46,1.68-5.39,1.69-4.86.03-18.8-8.2-22.84-10.69-.68-.42-1.52-.84-2.25-.52-.76.33-.9,1.4-.36,1.99Z"/>
            <path class="cls-77" d="M367.43,132.87c0,1.06,1.71,1.92,3.81,1.92,1.07,0,2.05-.22,2.74-.58.66-.34,1.07-.81,1.07-1.33,0-.68-.71-1.28-1.78-1.62-.59-.19-1.29-.3-2.03-.3-2.11,0-3.81.86-3.81,1.92Z"/>
            <path class="cls-6" d="M368.71,132.87c0,.7,1.13,1.27,2.53,1.27.71,0,1.36-.15,1.82-.39.44-.23.71-.54.71-.88,0-.45-.47-.85-1.18-1.08-.39-.13-.85-.2-1.35-.2-1.4,0-2.53.57-2.53,1.27Z"/>
            <path class="cls-27" d="M358.35,132.68s-3.78-3-7.92-2.09c0,0-2.15.44-3.14,2.28,0,0,1.35-1.39,3.87-1.62,3.31-.3,7.19,1.43,7.19,1.43Z"/>
            <path class="cls-27" d="M357.04,150.02s-3.78-3-7.92-2.09c0,0-2.15.44-3.14,2.28,0,0,1.35-1.39,3.87-1.62,3.31-.3,7.19,1.43,7.19,1.43Z"/>
            <path class="cls-27" d="M355.89,166.91s-3.78-3-7.92-2.09c0,0-2.15.44-3.14,2.28,0,0,1.35-1.39,3.87-1.62,3.31-.3,7.19,1.43,7.19,1.43Z"/>
            <path class="cls-69" d="M354.05,163.03c1.14.53,5.3,2.58,6.03,2.96.73.38,4.19,2.04,5.22,2.63.65.38,1.02.04,1.21-.26.11-.17.15-.32.15-.32.6-1.13.99-1.6,1.57-2.26.36-.41.74-.85.04-1.4-.7-.55-6.78-3.51-6.78-3.51,0,0-4.17-2.08-4.58-2.15-.41-.07-1.16-.54-2.08.37-.92.9-1.39,2.1-1.39,2.1,0,0-.51,1.33.62,1.86Z"/>
            <path class="cls-6" d="M354.59,162.43c.76.37,5.02,2.52,5.39,2.71.59.3,5.22,2.45,6.52,3.22.11-.17.15-.32.15-.32.6-1.13.99-1.6,1.57-2.26,0-.19-.07-.43-.32-.61-.47-.34-3.09-1.67-3.93-2.1-.83-.43-6.83-3.34-7.27-3.52-.44-.18-1-.41-1.52.08-.52.49-1.07,1.21-1.08,1.51,0,.3-.27.92.49,1.3Z"/>
            <g>
              <path class="cls-47" d="M365.52,165.48h1.1c.19,0,.35-.15.35-.33s-.16-.33-.35-.33h-1.1c-.19,0-.35.15-.35.33s.16.33.35.33Z"/>
              <path class="cls-47" d="M363.79,164.64l.93.55c.16.1.38.05.48-.1.1-.15.06-.35-.11-.45l-.93-.55c-.16-.1-.38-.05-.48.1-.1.15-.06.35.11.45Z"/>
              <path class="cls-47" d="M362.38,164.89l1.05-.31c.18-.05.29-.24.23-.41-.06-.17-.26-.27-.44-.21l-1.05.31c-.18.05-.29.24-.23.41.06.17.26.27.44.21Z"/>
            </g>
            <g>
              <path class="cls-47" d="M360.8,162.52h.07v.21c-.02.17.13.31.22.38.05.04.12.08.17.12.09.06.18.12.26.19.13.12.24.32.17.51-.01.03-.04.04-.08.03-.03-.01-.05-.04-.04-.07.06-.14-.04-.31-.14-.4-.07-.07-.16-.12-.24-.18-.06-.04-.12-.08-.18-.13-.06-.05-.14-.12-.2-.21.04.09.07.12.1.16.02.03.05.05.07.08.23.29.25.71.06,1.02-.01.02-.03.03-.05.03-.06-.02-.07-.06-.05-.08.17-.27.15-.64-.05-.9-.02-.03-.04-.05-.06-.07-.04-.04-.07-.08-.1-.13-.04-.07-.04-.18.02-.38l.06-.19Z"/>
              <path class="cls-47" d="M360.48,164.49c.23-.29.41-.58.36-.88-.02-.09-.05-.18-.09-.26-.02-.04-.04-.08-.05-.12-.03-.1-.06-.23,0-.34.02-.03,0-.06-.02-.07-.03-.02-.06,0-.08.02-.07.11-.07.26-.01.43.02.04.03.09.05.13.03.08.07.16.08.23.05.26-.11.52-.29.78-.02.03,0,.06.02.08,0,0,.02,0,.03,0Z"/>
              <path class="cls-20" d="M361.02,162.44c-.04-.2-.26-.35-.48-.33-.22.02-.4.19-.44.39-.04.2.07.41.24.53.12.08.49.19.61.06.05-.05.02-.22.03-.29.02-.12.06-.24.03-.36Z"/>
              <path class="cls-31" d="M360.93,162.48c-.03-.16-.21-.28-.39-.26s-.32.15-.35.31c-.03.16.05.33.19.42.1.06.39.15.49.05.04-.04.02-.17.03-.23.02-.1.05-.19.03-.29Z"/>
              <ellipse class="cls-68" cx="360.52" cy="162.51" rx=".18" ry=".17"/>
            </g>
            <g>
              <path class="cls-47" d="M365.3,166.58l-.04.05-.17-.14c-.14-.11-.35-.09-.47-.06-.07.01-.14.04-.21.06-.1.03-.21.06-.32.08-.18.02-.42-.02-.54-.19-.02-.03-.01-.06.02-.08.03-.02.06,0,.08.02.09.13.29.16.43.14.1-.01.2-.04.3-.07.07-.02.14-.04.22-.06.08-.02.19-.03.3-.02-.1-.03-.15-.02-.2-.02-.04,0-.07,0-.11,0-.38,0-.76-.24-.91-.57,0-.02,0-.04,0-.05.05-.03.09-.02.1.01.13.29.46.5.8.51.03,0,.07,0,.1,0,.06,0,.11,0,.17,0,.08,0,.18.08.31.24l.13.16Z"/>
              <path class="cls-47" d="M363.82,165.15c.11.35.24.65.53.8.09.04.18.07.27.09.05.01.09.02.14.04.1.03.24.1.29.21.01.03.05.04.08.03.03-.01.04-.04.03-.07-.05-.12-.18-.21-.36-.27-.05-.02-.1-.03-.14-.04-.09-.02-.17-.04-.25-.08-.25-.13-.38-.4-.49-.69-.01-.03-.04-.04-.08-.03-.01,0-.02.01-.03.02Z"/>
              <path class="cls-20" d="M365.24,166.79c.2.09.46.01.57-.16.12-.17.08-.41-.06-.56-.15-.15-.39-.2-.6-.14-.14.04-.46.25-.42.42.02.06.17.15.22.2.09.09.17.19.29.25Z"/>
              <path class="cls-31" d="M365.26,166.7c.16.07.36.01.46-.13.09-.14.07-.33-.05-.45-.12-.12-.31-.16-.48-.11-.11.03-.37.2-.34.34.01.05.14.12.18.16.07.07.13.15.23.2Z"/>
              <path class="cls-68" d="M365.59,166.24c-.08-.06-.19-.04-.25.03-.06.07-.05.18.03.23.08.06.19.04.25-.03s.04-.18-.03-.23Z"/>
            </g>
            <g>
              <path class="cls-63" d="M356.71,160.6c.19.13.29.34.39.53.1.19.23.4.43.5.12.06.26.08.38.15.18.11.27.32.26.53-.02.31-.28.59-.6.66-.32.07-.69-.08-.85-.35-.14-.24-.14-.53-.27-.78-.08-.15-.21-.27-.33-.4-.12-.13-.23-.27-.27-.44-.09-.44.51-.64.84-.4Z"/>
              <path class="cls-20" d="M356.7,160.85c.13.12.21.28.29.44.08.15.18.31.33.41.18.12.42.15.55.31.12.14.12.36,0,.51-.11.15-.32.22-.52.19-.19-.03-.36-.15-.46-.3-.15-.24-.13-.53-.28-.77-.1-.16-.28-.28-.4-.43-.08-.1-.22-.4-.06-.5.15-.1.43.04.54.14Z"/>
              <path class="cls-33" d="M357.31,161.94c.07.02.15.03.22.07.07.03.13.09.15.15.05.12-.04.27-.17.32-.14.06-.32.01-.42-.1-.08-.1-.09-.23-.05-.35.05-.13.14-.13.27-.1Z"/>
              <path class="cls-33" d="M356.29,160.95c.06.02.12,0,.14-.03.02-.04,0-.09-.06-.12-.06-.02-.12,0-.14.03-.02.04,0,.09.06.12Z"/>
              <path class="cls-33" d="M356.65,161.08s.05,0,.06-.02c.01-.02,0-.05-.03-.06-.02-.01-.05,0-.07.02-.01.02,0,.05.03.06Z"/>
              <path class="cls-33" d="M356.52,161.33s.09,0,.11-.02c.01-.03-.01-.07-.06-.08-.04-.02-.09,0-.11.02-.01.03.01.07.06.08Z"/>
              <path class="cls-33" d="M356.83,161.5s.09,0,.11-.04c.02-.04,0-.09-.04-.1-.04-.02-.09,0-.11.04-.02.04,0,.09.04.1Z"/>
              <path class="cls-33" d="M356.9,161.94s.1,0,.12-.04c.02-.04,0-.09-.05-.11-.04-.02-.1,0-.12.04-.02.04,0,.09.05.11Z"/>
              <path class="cls-63" d="M356.01,160.9s0-.05-.02-.07c-.05-.04-.13-.1-.23-.09-.06,0-.1.02-.14.04-.02,0-.04.02-.06.02-.05.02-.11.01-.15,0-.05-.02-.08-.06-.1-.11-.01-.03-.05-.05-.08-.04-.03.01-.05.04-.04.07.03.08.09.14.16.17.08.03.17.04.25.01.03,0,.05-.02.07-.03.03-.02.06-.03.09-.03.05,0,.1.03.15.07.03.02.07.02.09,0,0,0,0,0,0-.01Z"/>
              <path class="cls-63" d="M356.07,161.18s0-.06-.03-.08c-.09-.04-.2,0-.26.05-.03.02-.05.05-.07.07-.02.03-.05.05-.07.07-.07.05-.17.06-.25.04-.03-.01-.07,0-.08.03-.01.03,0,.06.04.07.12.04.27.02.37-.05.03-.02.06-.05.09-.08.02-.02.04-.04.06-.06.03-.03.09-.05.13-.04.03.01.07,0,.08-.03h0Z"/>
              <path class="cls-63" d="M356.26,161.47c-.01-.08-.05-.09-.08-.08-.08.03-.14.1-.18.15-.05.07-.08.11-.12.14-.03.03-.09.05-.14.04-.03-.01-.07,0-.08.04-.01.03,0,.06.04.07.08.03.18,0,.26-.06.05-.04.08-.09.12-.13.06-.08.1-.12.15-.14.02,0,.03-.02.03-.03Z"/>
              <path class="cls-63" d="M356.3,160.59s0-.06-.03-.07c-.06-.03-.11-.09-.13-.15,0-.02,0-.05-.01-.08,0-.04,0-.08-.03-.12-.04-.11-.15-.19-.27-.2-.03,0-.06.02-.07.05,0,.03.02.06.06.06.07,0,.14.06.16.12.01.03.01.06.02.09,0,.03,0,.06.02.09.03.1.1.18.19.23.03.02.07,0,.08-.02,0,0,0,0,0,0Z"/>
              <path class="cls-63" d="M356.67,160.64c-.03-.14-.06-.24-.02-.3.02-.04.06-.06.1-.09.05-.04.1-.07.14-.12.05-.07.06-.14.03-.2-.02-.03-.05-.04-.08-.03-.03.01-.04.05-.03.08.01.03,0,.06-.02.09-.02.03-.06.06-.1.09-.06.04-.11.08-.14.13-.07.11-.03.24.01.35.01.03.05.05.08.04.02,0,.03-.02.04-.03Z"/>
              <path class="cls-63" d="M357.32,160.51s.03-.08.04-.11c0-.03,0-.06-.04-.07-.03,0-.07,0-.08.04-.02.08-.05.16-.11.19-.03.02-.08.02-.12.02-.06,0-.11,0-.16.02-.07.02-.13.07-.14.13,0,.03.01.06.05.07.03,0,.07-.01.08-.04,0-.02.03-.04.06-.05.03-.01.07-.01.11-.01.07,0,.13,0,.19-.03.07-.03.11-.09.14-.15Z"/>
              <path class="cls-63" d="M357.85,160.95s0-.06-.03-.07c-.11-.05-.26-.04-.36.03-.03.02-.06.04-.08.07-.04.03-.07.06-.1.07-.04.01-.09,0-.15-.02l-.14-.05s-.07,0-.08.04c-.01.03,0,.06.04.07l.14.05c.06.02.14.04.22.02.07-.02.12-.06.16-.1.02-.02.04-.04.06-.05.06-.04.16-.05.23-.02.03.01.07,0,.08-.02,0,0,0,0,0,0Z"/>
              <path class="cls-63" d="M357.98,161.4s0-.07-.04-.08c-.09-.02-.22-.06-.34,0-.06.03-.1.07-.14.11-.01.01-.03.03-.04.04-.04.03-.09.06-.13.04-.03-.01-.07,0-.08.03-.02.03,0,.06.03.08.1.05.21,0,.27-.06.02-.02.03-.03.05-.05.03-.03.06-.07.1-.08.07-.03.16-.01.25.01.03,0,.06,0,.07-.03Z"/>
              <path class="cls-63" d="M358.58,161.67c-.03-.12-.12-.17-.21-.18-.08,0-.16.03-.22.08-.06.05-.1.11-.13.16-.02.04-.04.07-.07.08-.03,0-.05.04-.04.07.01.03.05.05.08.04.07-.02.11-.08.14-.13.03-.04.06-.1.11-.13.04-.03.09-.05.14-.05.04,0,.09.03.1.06.01.03.05.04.08.03.02,0,.03-.02.03-.03Z"/>
              <path class="cls-63" d="M358.75,162.28c0-.06-.03-.08-.06-.08-.07,0-.14,0-.18-.03-.1-.13-.18-.16-.26-.16-.06,0-.12.01-.19.04-.03.01-.04.05-.03.08.01.03.05.04.08.03.05-.02.1-.03.14-.03.04,0,.08.01.1.04.03.05.04.07.06.09.08.08.21.07.28.07.02,0,.04-.02.05-.03Z"/>
              <path class="cls-63" d="M358.54,162.8c-.01-.07-.05-.09-.08-.08-.03.01-.07-.01-.1-.04-.02-.02-.03-.05-.05-.08-.01-.03-.03-.05-.05-.08-.05-.06-.13-.12-.23-.1-.03,0-.06.04-.05.07,0,.03.04.05.07.04s.07.02.1.06c.01.02.03.04.04.06.02.03.03.06.06.09.05.06.15.11.24.08.02,0,.03-.02.03-.03Z"/>
              <path class="cls-63" d="M358.05,163.35s0-.06-.03-.08c-.07-.03-.12-.1-.12-.17,0-.03,0-.06.01-.09,0-.03.01-.06.01-.09,0-.09-.04-.19-.14-.22-.03,0-.07,0-.08.04-.01.03,0,.06.04.07.03,0,.05.06.05.1,0,.02,0,.05-.01.08,0,.04-.01.08-.01.12,0,.11.08.22.19.27.03.01.07,0,.08-.03,0,0,0,0,0,0Z"/>
              <path class="cls-63" d="M357.46,163.19c.06-.16.02-.31-.08-.4-.02-.02-.06-.02-.09,0-.02.02-.02.06,0,.08.07.06.1.17.07.25-.03.09-.12.15-.21.17-.03,0-.06.03-.05.07,0,.03.04.05.07.05.13-.02.25-.1.3-.22Z"/>
              <path class="cls-63" d="M357.11,162.83s.02-.05.01-.08c0-.03-.04-.05-.07-.05-.03,0-.06.03-.05.07,0,.03-.03.06-.06.07-.02,0-.05.02-.08.02-.03,0-.06.02-.1.03-.11.05-.19.15-.2.26,0,.03.02.06.06.06.03,0,.06-.02.07-.05,0-.07.06-.14.13-.17.02-.01.05-.02.08-.02.03,0,.06-.02.1-.03.05-.02.1-.06.12-.11Z"/>
              <path class="cls-63" d="M356.89,162.51s0-.04,0-.06c-.02-.03-.06-.03-.09,0-.03.02-.07.03-.13.04-.03,0-.05,0-.08,0-.03,0-.07,0-.1,0-.09,0-.15.02-.2.06-.07.06-.1.15-.06.22.01.03.05.04.08.03.03-.01.05-.05.03-.08-.01-.02,0-.06.03-.08.03-.02.07-.03.13-.04.03,0,.06,0,.09,0,.03,0,.06,0,.09,0,.09,0,.15-.02.2-.06,0,0,.01-.01.02-.02Z"/>
              <path class="cls-63" d="M356.69,162.1c-.01-.08-.05-.09-.08-.08-.04.02-.1.02-.16.01-.06,0-.11,0-.17.01-.14.03-.24.16-.23.29,0,.03.03.06.06.06.03,0,.06-.03.06-.06,0-.08.06-.16.14-.18.04,0,.09,0,.14,0,.07,0,.14,0,.22-.02.01,0,.03-.02.03-.03Z"/>
            </g>
          </g>
        </g>
        <g>
          <polygon class="cls-33" points="277.71 152.64 327.02 179.13 327.02 90.69 277.71 64.2 277.71 152.64"/>
          <polygon class="cls-88" points="306.88 83.48 282.66 70.57 282.66 73.41 306.88 86.31 306.88 83.48"/>
          <polygon class="cls-88" points="294.74 82.07 282.66 75.62 282.66 78.45 294.74 84.9 294.74 82.07"/>
          <polygon class="cls-88" points="296.94 83.25 296.94 86.08 314.62 95.52 314.62 92.69 296.94 83.25"/>
          <polygon class="cls-88" points="309.51 85.14 309.51 87.97 321.92 94.58 321.92 91.75 309.51 85.14"/>
          <g>
            <polygon class="cls-88" points="284 142.22 304.37 153.17 304.37 154.74 284 143.79 284 142.22"/>
            <polygon class="cls-88" points="291.11 148.9 304.37 156.03 304.37 157.6 291.11 150.47 291.11 148.9"/>
            <polygon class="cls-88" points="284 147.94 304.37 158.88 304.37 160.45 284 149.51 284 147.94"/>
            <polygon class="cls-88" points="295.89 157.18 304.37 161.74 304.37 163.31 295.89 158.75 295.89 157.18"/>
          </g>
          <g>
            <path class="cls-41" d="M284.46,125.97c.99,11.93,16.56,20.64,24.62,18.47,2.01-.55,3.21-2.4,5.58-2.17.47.05.99.6,1.18,1.11.19.51.09.94.06,1.39-.02.31-.04.63-.05.96-.1,2.37,0,5.12-.37,7.05.02.92,1.6,2.06,2.82,2.3.73.15,1.33-.03,1.4-.76.18-2.42.11-5.31.39-7.33.28-2.02-.05-4.44-1.39-6.76-1.03-1.79-2.59-3.38-4.31-4.57-.71-.5-1.45-.93-2.19-1.27-2.52-1.17-5.37-2.08-7.54-1.81-1.19-2.96-.94-5.76.05-7.88.99-2.12,2.68-3.66,4.37-5.15,1.69-1.49,3.42-2.96,4.53-4.99,1.78-3.23,1.9-7.44,1.96-11.72-.04-.01-.09-.03-.13-.04-1.08-.32-2.73-1.13-4.02-1.64-.35-.14-.67-.25-.95-.32.19,3.29.07,6.69-.89,9.38-.78,2.18-2.36,3.65-4.68,3.95-.3.04-.6.06-.93.05-.25,0-.51-.01-.78-.04-.77-.08-14.67-10.14-18.13,1.56-.71,2.4-.98,5.73-.61,10.24Z"/>
            <path class="cls-27" d="M292.33,111.03c-2.84-.1-5.21,1.3-5.6,3.98-.04.29-.04.65.23.94.42.47.97.27,1.3.03,1.07-.82,2.24-1.56,3.62-1.97,1.38-.41,2.99-.49,4.71-.01.93.26,1.89.68,2.81.89.56.13,2.22.46,1.64-.51-.45-.75-2.15-1.39-2.81-1.71-2-.95-4.03-1.58-5.89-1.65Z"/>
            <path class="cls-27" d="M303.97,114.22c3.11.31,5.65-1.27,6.65-3.78.68-1.7.89-3.7.96-5.74.02-.63.37-2.4-.16-3.53-.35-.14-.67-.25-.95-.32.19,3.29.07,6.69-.89,9.38-.78,2.18-2.36,3.65-4.68,3.95-.3.04-.6.06-.93.05,0,0,0,0,0,0Z"/>
            <path class="cls-5" d="M312.82,102.78c.14,0,.29,0,.43,0-.13.03-.36.2-.43,0Z"/>
            <path class="cls-8" d="M298.29,127.51c.06,2.61,3.11,5.47,5.51,5.19.28-.03.56-.08.85-.13-1.19-2.96-.94-5.76.05-7.88.99-2.12,2.68-3.66,4.37-5.15,1.69-1.49,3.42-2.96,4.53-4.99,1.78-3.23,1.9-7.44,1.96-11.72-.04-.01-.09-.03-.13-.04-.71,0-1.41-.01-2.12-.02.02,0,.04.03.04.08.22,7.45-2.76,13.6-8.13,16.75-2.14,1.25-4.68,2.09-6.02,4.17-.65,1.01-.94,2.3-.91,3.73Z"/>
            <path class="cls-8" d="M318.66,145.7c-.04,1.29-.26,5.5-.38,9.37.73.15,1.33-.03,1.4-.76.18-2.42.11-5.31.39-7.33.28-2.02-.05-4.44-1.39-6.76-1.03-1.79-2.59-3.38-4.31-4.57,2.65,2.85,4.41,6.26,4.28,10.05Z"/>
            <path class="cls-8" d="M284.46,125.97c.99,11.93,16.56,20.64,24.62,18.47,2.01-.55,3.21-2.4,5.58-2.17.47.05.99.6,1.18,1.11.19.51.09.94.06,1.39-.02.31-.04.63-.05.96.07-.26.14-.53.23-.79.9-2.7-1.83-5.24-3.95-5.26-3.29-.03-8.67,2.28-15.26-1.35-10.58-5.83-11.88-14.29-11.8-22.6-.71,2.4-.98,5.73-.61,10.24Z"/>
            <path class="cls-16" d="M311.21,100.04c-1,.12-1,.98,0,1.94,1,.95,2.61,1.63,3.6,1.52,1-.12,1-.98,0-1.94-1-.95-2.61-1.63-3.6-1.52Z"/>
            <path class="cls-5" d="M311.73,100.54c-.71.08-.71.7,0,1.37.71.68,1.85,1.16,2.55,1.08.71-.08.71-.7,0-1.37-.71-.68-1.85-1.16-2.55-1.08Z"/>
            <path class="cls-34" d="M297.43,125c-.17.56-.77.79-.97,1.33-.23.62.06,1.56-.26,2.1-.27.45-.93.51-1.58.32-.66-.19-1.32-.6-1.97-1-1.19-.75-2.53-1.73-2.96-2.97-.16-.45-.17-.88-.36-1.33-.31-.71-1.04-1.39-1.15-2.08-.12-.74.55-1.03,1.19-1.14.79-.14,1.64-.17,2.48-.21.72-.03,1.48-.05,2.29.29,1.42.6,3.71,3.41,3.31,4.7Z"/>
            <path class="cls-5" d="M296.03,123.82c.07.39-.15.66-.4.84-.25.18-.54.33-.66.64-.18.46.08,1.2-.22,1.58-.26.33-.88.23-1.41-.09-.53-.32-.99-.81-1.43-1.28-.43-.46-.87-.93-1.2-1.45-.29-.44-.49-.91-.69-1.37-.25-.57-.49-1.26-.14-1.53.45-.34,1.38.37,2.06.42.66.05,1.04-.52,1.74-.32.65.19.96.8,1.38,1.32.3.38.9.8.98,1.23Z"/>
            <path class="cls-5" d="M294.31,123.31c.2.15.36.44.25.57-.08.1-.28.05-.43.07-.24.03-.35.25-.41.47-.06.22-.09.48-.22.64s-.42.22-.68.02c-.36-.28-.38-.78-.68-1.13-.15-.19-.36-.32-.55-.46-.19-.15-.38-.36-.4-.56-.02-.2.15-.29.34-.29s.39.06.58.06c.22,0,.39-.1.57-.17.19-.07.41-.1.65,0,.27.12.29.36.48.5.16.12.33.14.49.26Z"/>
            <path class="cls-27" d="M311.19,134.43c-.91-.45-1.84-.83-2.73-.98-.88-.15-1.72-.04-2.25.43-.03.03-.06.06-.06.1,0,.08.08.18.17.23.09.05.17.06.25.07,2.68.34,5.58,1.67,8.37,3.15.04.02-.17-.4-.2-.44-.08-.12-.18-.24-.29-.35-.3-.33-.68-.62-1.03-.87-.72-.54-1.49-.96-2.25-1.34Z"/>
          </g>
        </g>
      </g>
    </g>
  </g>
</svg>