<?xml version="1.0" encoding="UTF-8"?>
<svg id="Layer_4" data-name="Layer 4" xmlns="http://www.w3.org/2000/svg" viewBox="0 0 668 512">
  <defs>
    <style>
      .cls-1 {
        opacity: .6;
      }

      .cls-2, .cls-3, .cls-4, .cls-5 {
        opacity: .2;
      }

      .cls-2, .cls-6, .cls-7, .cls-8, .cls-9, .cls-10, .cls-11, .cls-12 {
        fill: #fff;
      }

      .cls-13 {
        fill: #66c6dd;
      }

      .cls-14 {
        fill: #478e99;
      }

      .cls-3, .cls-15 {
        fill: #d23f40;
      }

      .cls-16 {
        fill: #d2b3ab;
      }

      .cls-17 {
        opacity: .05;
      }

      .cls-18 {
        fill: #fcd0d3;
      }

      .cls-19 {
        fill: #fcfcfc;
      }

      .cls-20 {
        fill: #b0494c;
      }

      .cls-21 {
        fill: #2b454e;
      }

      .cls-22 {
        fill: #f0f0f0;
      }

      .cls-23 {
        fill: #9ebcd3;
      }

      .cls-24 {
        fill: #1d4347;
      }

      .cls-7 {
        opacity: .5;
      }

      .cls-25, .cls-10 {
        opacity: .4;
      }

      .cls-26 {
        fill: #e1e1e1;
      }

      .cls-27 {
        fill: #375a64;
      }

      .cls-28 {
        fill: #d2c7d2;
      }

      .cls-29 {
        fill: #1a2e35;
      }

      .cls-30 {
        fill: #f9f9f9;
      }

      .cls-31 {
        fill: #f7b0b7;
      }

      .cls-32 {
        fill: #2b464e;
      }

      .cls-8 {
        opacity: .25;
      }

      .cls-33, .cls-12 {
        opacity: .15;
      }

      .cls-9 {
        opacity: .8;
      }

      .cls-5, .cls-34, .cls-35 {
        fill: #d24741;
      }

      .cls-11, .cls-36 {
        opacity: .1;
      }

      .cls-37 {
        fill: #ececec;
      }

      .cls-35 {
        opacity: .3;
      }

      .cls-38 {
        fill: #d24348;
      }

      .cls-39 {
        fill: #f5f5f5;
      }

      .cls-40 {
        fill: #1a2f35;
      }

      .cls-41 {
        fill: #ffaaa8;
      }

      .cls-42 {
        fill: #375b64;
      }

      .cls-43 {
        fill: #e1e1e1;
      }
    </style>
  </defs>
  <path id="Floor" class="cls-39" d="M136.42,231.86c-109.12,63-109.11,165.14,0,228.14,109.12,63,286.03,63,395.15,0,109.12-63,109.11-165.14,0-228.14-109.12-63-286.03-63-395.15,0Z"/>
  <path id="Shadow" class="cls-43" d="M202,378.73c-31.49-18.18-82.55-18.18-114.05,0-31.49,18.18-31.49,47.66,0,65.85,31.49,18.18,82.55,18.18,114.05,0,31.49-18.18,31.49-47.66,0-65.85Z"/>
  <path id="Shadow-2" data-name="Shadow" class="cls-43" d="M584.43,327.94c27.26,21.99-1.72,69.31-64.74,105.7-63.02,36.38-136.2,48.05-163.46,26.06-27.26-21.99,1.72-69.31,64.74-105.7,63.02-36.38,136.2-48.05,163.46-26.06Z"/>
  <path id="Shadow-3" data-name="Shadow" class="cls-43" d="M404.55,214.97c27.26,21.99-1.72,69.31-64.74,105.7-63.02,36.38-136.2,48.05-163.46,26.06-27.26-21.99,1.72-69.31,64.74-105.7,63.02-36.38,136.2-48.05,163.46-26.06Z"/>
  <path id="Shadow-4" data-name="Shadow" class="cls-43" d="M221.24,451.85l-24.07,13.89c-3.79,2.19-10.41,1.91-14.79-.61h0c-4.38-2.53-4.85-6.35-1.06-8.54l24.07-13.89c3.79-2.19,10.41-1.91,14.79.61h0c4.38,2.53,4.85,6.35,1.06,8.54Z"/>
  <path id="Shadow-5" data-name="Shadow" class="cls-43" d="M202.16,451.85l24.07,13.89c3.79,2.19,10.41,1.91,14.79-.61h0c4.38-2.53,4.85-6.35,1.06-8.54l-24.07-13.89c-3.79-2.19-10.41-1.91-14.79.61h0c-4.38,2.53-4.85,6.35-1.06,8.54Z"/>
  <path id="Shadow-6" data-name="Shadow" class="cls-43" d="M317.75,445.11c-17.43,10.06-45.68,10.06-63.11,0-17.43-10.06-17.43-26.37,0-36.44,17.43-10.06,45.68-10.06,63.11,0,17.43,10.06,17.43,26.37,0,36.44Z"/>
  <g id="Stomach_2" data-name="Stomach 2">
    <g>
      <path class="cls-34" d="M231.03,169.66c0-1.38-.91-2.76-2.73-3.81-3.64-2.1-9.55-2.1-13.19,0-1.82,1.05-2.73,2.43-2.73,3.81v139.07c0,1.38.91,2.76,2.73,3.81,3.64,2.1,9.55,2.1,13.19,0,1.82-1.05,2.73-2.43,2.73-3.81v-139.07Z"/>
      <path class="cls-34" d="M302.51,152.94c-2.4-6.07-6.97-11.02-11.15-15.89-4.2-4.89-8.46-9.98-11.13-15.9-.75-1.66-1.34-3.4-1.83-5.16-.47-1.71-1.07-3.33-1.41-5.09-.33-1.7-.68-3.42-.94-5.13-.26-1.72-.34-3.43-.69-5.14-.04-.22-.24.02-.26.12-.46,2.74-.56,5.72-.37,8.49.22,3.2.52,6.32,1.48,9.39,1.95,6.23,5.59,11.46,9.63,16.5,3.87,4.82,7.89,9.61,10.48,15.27,2.37,5.16,4.14,11.12,2.4,16.75-1.67,5.4-6.06,9.12-9.95,12.95-4.36,4.29-8.11,9.07-11.06,14.44-1.39,2.53-2.66,5.15-4.73,7.21-1.66,1.65-3.78,2.82-5.98,3.61-5.49,1.96-11.34,2.02-17.06,2.78-3.51.47-7.47,1.27-10.49,2.56-3.03,1.29-8.42,5.86-8.42-4.23v10.55c-3.21,4.22-4.79,9.82-3.15,14.92.32.98,2.04,2.09,2.31.46.49-2.86,1.01-5.82,2.22-8.48,1.16-2.54,2.95-4.76,5.12-6.5,4.64-3.74,10.87-4.32,16.58-4.73,5.34-.38,10.9-.83,15.93-2.77,2.65-1.02,5.08-2.38,7.21-4.28,2.27-2.02,3.85-4.69,5.3-7.32,3-5.46,6.47-10.33,10.85-14.77,3.9-3.95,8.06-8,10.05-13.31,2.13-5.67,1.22-11.82-.95-17.33Z"/>
      <path class="cls-12" d="M228.29,176.05c-1.02.6-2.24,1.02-3.53,1.27v133.61c1.29-.25,2.51-.68,3.53-1.27.47-.27.88-.57,1.22-.88v-133.61c-.35.32-.76.61-1.22.88Z"/>
      <path class="cls-33" d="M218.46,164.63c-1.22.26-2.37.66-3.35,1.23-1.82,1.05-2.73,2.43-2.73,3.81v139.07c0,1.38.91,2.76,2.73,3.81.98.57,2.13.97,3.35,1.23v-149.15Z"/>
      <path class="cls-34" d="M215.11,165.85c-1.82,1.05-2.73,2.43-2.73,3.81,0,1.38.91,2.76,2.73,3.81,3.64,2.1,9.55,2.1,13.19,0,1.82-1.05,2.73-2.43,2.73-3.81,0-1.38-.91-2.76-2.73-3.81-3.64-2.1-9.55-2.1-13.19,0Z"/>
      <path class="cls-12" d="M215.11,165.85c-1.82,1.05-2.73,2.43-2.73,3.81,0,1.38.91,2.76,2.73,3.81,3.64,2.1,9.55,2.1,13.19,0,1.82-1.05,2.73-2.43,2.73-3.81,0-1.38-.91-2.76-2.73-3.81-3.64-2.1-9.55-2.1-13.19,0Z"/>
      <path class="cls-34" d="M217.36,167.34c-1.2.64-1.8,1.48-1.8,2.32,0,.84.6,1.68,1.8,2.32,2.4,1.28,6.28,1.28,8.68,0,1.2-.64,1.8-1.48,1.8-2.32,0-.84-.6-1.68-1.8-2.32-2.4-1.28-6.28-1.28-8.68,0Z"/>
      <path class="cls-33" d="M217.36,167.34c-1.2.64-1.8,1.48-1.8,2.32,0,.84.6,1.68,1.8,2.32,2.4,1.28,6.28,1.28,8.68,0,1.2-.64,1.8-1.48,1.8-2.32,0-.84-.6-1.68-1.8-2.32-2.4-1.28-6.28-1.28-8.68,0Z"/>
    </g>
    <g>
      <path class="cls-34" d="M428.99,135.06c-1.17-53.48-30.73-103.79-83.42-100.93-38.24,2.08-66.82,24.79-66.82,62.17,0,9.97,1.97,20,7.29,28.54,5.56,8.92,14.71,14.69,19.69,24.32,3.73,7.22,5.26,15.96,2.35,23.55-1.09,2.85-2.76,5.43-4.42,8-2.39,3.7-4.79,7.41-7.18,11.11-2,3.1-4.01,6.21-6.34,9.07-7.69,9.45-20.57,19.74-34.52,17.59-9.03-.98-22.35-.32-30.02,9.61-8.63,11.18-5.49,18.05-15.5,31.59-6.9,9.33-31,14.56-31,39.44v21.56c0,2.64,1.74,5.28,5.23,7.3,6.98,4.03,18.3,4.03,25.28,0,3.49-2.01,5.23-4.66,5.23-7.3h0c0-22.14-.31-25.67,11.02-32.32,11.1-6.52,14.29-13.32,16.65-22.06,1.8-6.67,5.6-12.52,10.92-13.93,7.38-1.16,12.98,10.3,16.15,15.16,3.14,4.81,9.1,11.78,15.01,16.07,7.05,5.12,20.85,11.86,41.59,11.24,27.58-.83,67.37-16.54,92.06-85.2,7.96-22.15,11.25-51.39,10.75-74.58Z"/>
      <g class="cls-1">
        <path class="cls-6" d="M428.99,135.06c-1.17-53.48-30.73-103.79-83.42-100.93-38.24,2.08-66.82,24.79-66.82,62.17,0,9.97,1.97,20,7.29,28.54,5.56,8.92,14.71,14.69,19.69,24.32,3.73,7.22,5.26,15.96,2.35,23.55-1.09,2.85-2.76,5.43-4.42,8-2.39,3.7-4.79,7.41-7.18,11.11-2,3.1-4.01,6.21-6.34,9.07-7.69,9.45-20.57,19.74-34.52,17.59-9.03-.98-22.35-.32-30.02,9.61-8.63,11.18-5.49,18.05-15.5,31.59-6.9,9.33-31,14.56-31,39.44v21.56c0,2.64,1.74,5.28,5.23,7.3,6.98,4.03,18.3,4.03,25.28,0,3.49-2.01,5.23-4.66,5.23-7.3h0c0-22.14-.31-25.67,11.02-32.32,11.1-6.52,14.29-13.32,16.65-22.06,1.8-6.67,5.6-12.52,10.92-13.93,7.38-1.16,12.98,10.3,16.15,15.16,3.14,4.81,9.1,11.78,15.01,16.07,7.05,5.12,20.85,11.86,41.59,11.24,27.58-.83,67.37-16.54,92.06-85.2,7.96-22.15,11.25-51.39,10.75-74.58Z"/>
      </g>
      <path class="cls-35" d="M390.31,47.11c-12.22-8.99-27.19-13.93-44.73-12.98-38.24,2.08-66.82,24.79-66.82,62.17,0,9.97,1.97,20,7.29,28.54,5.56,8.92,14.71,14.69,19.69,24.32,3.73,7.22,5.26,15.96,2.35,23.55-1.09,2.85-2.76,5.43-4.42,8-2.39,3.7-4.79,7.41-7.18,11.11-2,3.1-4.01,6.21-6.34,9.07-7.69,9.45-20.57,19.74-34.52,17.59-9.03-.98-22.35-.32-30.02,9.61-8.63,11.18-5.49,18.05-15.5,31.59-6.9,9.33-31,14.56-31,39.44v21.56c0,2.64,1.74,5.28,5.23,7.3,6.98,4.03,18.3,4.03,25.28,0,.25-.15.48-.3.71-.45-2.25.77-4.41,1.04-6.66,1.09-8.79.17-15.55-8.82-16.2-17.59-.57-7.76-.84-18.77,4.54-24.42,7.65-8.03,16.27-9.13,22.31-14.39,12.96-11.29,11.73-21.14,18.66-32.02,10.55-16.57,27.07-8.25,42.23-11.53,15.09-3.26,25.83-18.26,34.13-31.28,8.3-13.01,14.97-31.29,11.56-46.35-4.35-19.24-19.86-30.07-19.86-49.61,0-54.73,48-67.46,89.26-54.31Z"/>
      <path class="cls-36" d="M269.58,267.52c3.14,4.81,9.1,11.78,15.01,16.07,7.05,5.12,20.85,11.86,41.59,11.24,14.75-.44,32.99-5.14,50.54-19.92-31.83,24.51-76.32,15.2-90.53-4.65-9.8-13.69-20.08-24.81-32.77-17.9,7.38-1.16,12.98,10.3,16.15,15.16Z"/>
      <path class="cls-11" d="M250.84,246.45c.22-.13.43-.25.66-.36,8.25-4.36,19.53.77,26.92,5,7.52,4.3,12.82,14.31,20.15,18.93,24,15.12,53.18,7.8,66.8,0,22.2-12.71,36.5-37.89,45.02-62.01,8.52-24.12,9.85-49.34,9.1-74.92-.54-18.22-3.62-36.73-13.67-52.65-9.2-14.57-23.42-25.15-40.79-24.09-8,.49-15.99,3.19-22.09,8.39-7.6,6.48-11.09,18.05-11.86,27.72-.39,4.99,0,10.05,1.14,14.92,2.33,9.88,7.66,18.72,12.15,27.82,4.49,9.1,8.27,19.08,7.11,29.15-1.24,10.77-7.71,19.89-11.45,29.83-3.92,10.42-3.62,21.98-9.68,31.76-4.54,7.33-12.31,12.75-20.91,13.92-15.62,2.12-30.93-6.76-46.55-6.73-13.2.03-25.01,5.63-29.62,18.65-2.33,6.59-4.1,13.84-9.27,18.55-4.52,4.12-9.5,7.02-14.52,10.29-4.95,3.23-6.49,9.84-6.23,15.75.05,1.21.18,2.46.79,3.5.61,1.04,1.83,1.82,3.01,1.54,1.09-.26,1.81-1.29,2.27-2.32,1.19-2.68,1.3-5.77,2.62-8.4,1.62-3.21,4.83-5.3,8.06-6.86,4.28-2.06,8.58-3.54,11.73-7.27,2.8-3.32,4.41-7.35,6.06-11.32,2.92-7.05,6.21-14.82,13.06-18.8Z"/>
    </g>
    <g>
      <g>
        <path class="cls-34" d="M301.27,67.26c-2.9,0-10.83.97-10.83-12.25V15.37c0-2.19-1.45-4.38-4.34-6.05-5.79-3.34-15.17-3.34-20.96,0-2.89,1.67-4.34,3.86-4.34,6.05v39.64c0,14.83,2.27,22.57,10.01,31.59,6.24,7.27,14.25,11.09,19.83,17.11,3.71,4,9.96,4.61,14.16,1.14,4.04-3.34,6.79-9.05,6.79-17.45,0-14.67-7.42-20.15-10.32-20.15Z"/>
        <path class="cls-9" d="M301.27,67.26c-2.9,0-10.83.97-10.83-12.25V15.37c0-2.19-1.45-4.38-4.34-6.05-5.79-3.34-15.17-3.34-20.96,0-2.89,1.67-4.34,3.86-4.34,6.05v39.64c0,14.83,2.27,22.57,10.01,31.59,6.24,7.27,14.25,11.09,19.83,17.11,3.71,4,9.96,4.61,14.16,1.14,4.04-3.34,6.79-9.05,6.79-17.45,0-14.67-7.42-20.15-10.32-20.15Z"/>
        <path class="cls-5" d="M297.68,102.53c-6.05-3.43-2.77-4.86-15.59-15.6-5.44-4.56-9.18-10.33-11.13-17.68-1.42-5.36-1.29-42.57-1.29-48.66V7.54c-1.64.42-3.18,1-4.53,1.78-2.89,1.67-4.34,3.86-4.34,6.05v39.64c0,14.83,2.27,22.57,10.01,31.59,6.24,7.27,14.25,11.09,19.83,17.11,3.71,4,9.96,4.61,14.16,1.14,1.98-1.63,3.64-3.84,4.83-6.64-3.15,3.99-8.02,6.53-11.95,4.3Z"/>
        <path class="cls-34" d="M265.14,9.32c-2.89,1.67-4.34,3.86-4.34,6.05,0,2.19,1.45,4.38,4.34,6.05,5.79,3.34,15.17,3.34,20.96,0,2.89-1.67,4.34-3.86,4.34-6.05,0-2.19-1.45-4.38-4.34-6.05-5.79-3.34-15.17-3.34-20.96,0Z"/>
        <path class="cls-7" d="M265.14,9.32c-2.89,1.67-4.34,3.86-4.34,6.05,0,2.19,1.45,4.38,4.34,6.05,5.79,3.34,15.17,3.34,20.96,0,2.89-1.67,4.34-3.86,4.34-6.05,0-2.19-1.45-4.38-4.34-6.05-5.79-3.34-15.17-3.34-20.96,0Z"/>
        <path class="cls-34" d="M268.73,11.69c-1.9,1.02-2.86,2.35-2.86,3.68,0,1.33.95,2.66,2.86,3.68,3.81,2.03,9.98,2.03,13.79,0,1.9-1.02,2.86-2.35,2.86-3.68,0-1.33-.95-2.66-2.86-3.68-3.81-2.03-9.98-2.03-13.79,0Z"/>
        <path class="cls-2" d="M268.73,11.69c-1.9,1.02-2.86,2.35-2.86,3.68,0,1.33.95,2.66,2.86,3.68,3.81,2.03,9.98,2.03,13.79,0,1.9-1.02,2.86-2.35,2.86-3.68,0-1.33-.95-2.66-2.86-3.68-3.81-2.03-9.98-2.03-13.79,0Z"/>
      </g>
      <path class="cls-2" d="M281.8,26.56v30.49c0,8.72,1.98,15.73,11.99,19.47,10.01,3.74,14.08,4.07,14.96,7.81.33-5.72-4.21-14.27-6.6-14.52-3.64-.38-6.43-.6-8.65-1.98-3.92-2.44-5.2-5.53-5.2-11.25s0-32.65,0-32.65c-1.61,1.71-3.85,2.48-6.49,2.63Z"/>
    </g>
    <g>
      <path class="cls-34" d="M336.9,151.36c-.87,1.24-1.7,2.51-2.98,3.34-1.15.75-2.44,1.22-3.78,1.5-2.92.6-5.93.31-8.89.2-2.52-.1-5.07-.15-7.47.69.8-2.07,1.65-4.12,3.04-5.83,2.45-3.01,6.45-4.29,8.64-7.6,2.19-3.32,2.51-7.56,2.37-11.42-.1-2.78-.36-5.55-.37-8.34,0-2.63.37-4.91,1.31-7.37.01-.04-.01-.11-.05-.06-2.5,3.25-2.52,7.82-2.43,11.72.09,3.81.41,8.35-1.67,11.74-2.31,3.78-6.69,4.76-9.85,7.57-.12.11-.22.23-.33.34-.21-1.12-.7-2.49-.75-2.81-.54-4.05,2.04-7.75,2.98-11.54.48-1.96.51-4,.03-5.95-.43-1.74-.99-3.8-2.25-5.14-.08-.09-.16.13-.13.19.73,1.79,1.6,3.44,1.62,5.43.02,2.03-.34,3.99-1.07,5.89-1.35,3.52-3.41,6.85-2.98,10.77.1.94.33,1.88.67,2.76.19.48.4,1.19.8,1.61-2.17,2.82-3.04,6.43-4.58,9.63-1.03,2.15-2.4,4.11-4.03,5.85-.77.82-1.59,1.59-2.46,2.29-1,.81-1.95,1.27-1.77,2.72.08.66.46,3.1-.24,6.43,2.55-2.61,5.8-6.79,7.26-8.3,1.31-1.35,2.44-2.86,3.44-4.46.85-.39,1.46-1.14,2.23-1.74,1.02-.8,2.2-1.31,3.44-1.64,2.8-.74,5.59-.6,8.45-.71,2.49-.09,5.15-.45,7.27-1.88,2.05-1.39,3.39-3.63,4.63-5.72.06-.09-.01-.3-.11-.16Z"/>
      <path class="cls-34" d="M314.24,193.03c-.05-.02-.11-.05-.16-.07-3.18-1.29-6.62-1.81-9.95-2.63-2.44-.6-4.88-1.39-7.02-2.72-.91-.57-1.72-1.26-2.52-1.96-1.02-.9-1.16-2.08-.05-3.21,1.4-1.41-6.21.31-5.23,5.75,1.77-1.32,2.37-1.03,3.18-.23.84.84,1.62,1.73,2.18,2.89,1.16,2.35,1.34,5.16,2.21,7.64.75,2.11,1.72,4.26,3.18,5.99,1.32,1.56,3.14,3,4.89,4.05.05.03.12-.11.07-.14-3.76-2.88-5.89-7.82-6.57-12.44-.24-1.67-.38-3.35-.82-4.96,1.4.49,2.86.81,4.33.99,4.69.57,9.93.15,14.2,2.52-.39-.72-1.16-1.15-1.92-1.47Z"/>
      <path class="cls-34" d="M273.11,214.48c-.56-1.89-3.43-4.09-.87-5.48.84-.46.81-1.76,1.42-2.5.18-.21.36-.5.23-.75-4.89-.15-9.81,1.83-13.24,5.33-.25.25-.54.76-.49,1.11.84.03,1.72-.14,2.56-.12.15,0,.33.02.43.14.08.1.09.24.07.36-.08.54-.54.95-1.03,1.21-1.12.6-2.45.69-3.61,1.22-2.87,1.31-4.63,4.15-5.09,7.08-.14.87.09.71.16.53.37-1.01.65-1.57,1.05-2.27.46-.81,1.16-1.52,1.74-2.08,1.32-1.26,2.28-1.74,4.03-2.2,1.71-.45,3.46-.37,4.81-1.35,1.13-.82,1.56-1.54,1.94-3.33,1.64,1.43,3.72,2.87,4.75,4.95.46.93.87,1.94,1.05,2.96.17.98.17,2.06.12,3.05-.01.18.16.05.19-.05.27-1.2.29-2.34.29-3.56,0-1.44-.11-2.85-.51-4.24Z"/>
    </g>
    <path class="cls-34" d="M356.9,47.47c-20.42,0-33.02,15.28-34.97,26.78-1.34,7.87-9.99,7.74-17.58,4.57-3.5-1.46-8.09-4.02-10.16-5.3-3.27-2.02-9.39-2.28-11.83,2.55-2.44,4.83-.11,13.93,10.35,21.79,20.93,15.72,25.96,19.39,33.46,37.34,9.91,23.72.13,50.04-11.09,68.14-11.21,18.11-17.34,28.01-38.13,29.14-8.56.47-16.38-1.27-21.89-.85-9.19.7-16.9,5.23-21.04,14.59-3.88,8.8,5.29,14.85,13.98,5.47,3.75-4.04,13.14-6.38,19.06-3.96,16.44,6.72,16.96,18.31,33.23,27.5,16.27,9.19,49.79,15.61,79.16-9.32,29.37-24.94,46.47-75.13,46.7-122.52.24-47.39-21.11-97.6-69.26-95.93Z"/>
    <path class="cls-4" d="M356.9,47.47c-20.42,0-33.02,15.28-34.97,26.78-1.34,7.87-9.99,7.74-17.58,4.57-3.5-1.46-8.09-4.02-10.16-5.3-3.27-2.02-9.39-2.28-11.83,2.55-2.44,4.83-.11,13.93,10.35,21.79,20.93,15.72,25.96,19.39,33.46,37.34,9.91,23.72.13,50.04-11.09,68.14-11.21,18.11-17.34,28.01-38.13,29.14-8.56.47-16.38-1.27-21.89-.85-9.19.7-16.9,5.23-21.04,14.59-3.88,8.8,5.29,14.85,13.98,5.47,3.75-4.04,13.14-6.38,19.06-3.96,16.44,6.72,16.96,18.31,33.23,27.5,16.27,9.19,49.79,15.61,79.16-9.32,29.37-24.94,46.47-75.13,46.7-122.52.24-47.39-21.11-97.6-69.26-95.93Z"/>
    <path class="cls-34" d="M350.66,48.65c-1.4,0-2.76.08-4.08.22-14.32,4.02-23.05,15.97-24.65,25.38-.89,5.22-5,6.91-9.89,6.54-3.5,1.66-8.66.89-13.41-1.1-3.47-1.45-8.01-3.98-10.06-5.24-.98-.6-2.22-1.05-3.54-1.24-1.08.63-2.02,1.55-2.69,2.87-2.44,4.83-.11,13.93,10.35,21.79,20.93,15.72,25.96,19.39,33.46,37.34,9.91,23.72.13,50.04-11.09,68.14-11.21,18.11-17.34,28.01-38.13,29.14-8.56.47-16.38-1.27-21.89-.85-9.19.7-16.9,5.23-21.04,14.59-1.78,4.02-.82,7.47,1.57,9.13,2.24-.43,4.77-1.83,7.26-4.52,3.63-3.91,12.59-6.2,18.46-4.07,2.06-.02,4.05.27,5.75.97,16.44,6.72,16.96,18.31,33.23,27.5,4.26,2.41,9.72,4.62,15.97,6.13,16.66,2.58,37.59-.21,56.73-16.46,29.07-24.69,46-74.37,46.24-121.29.23-46.92-20.9-96.62-68.56-94.96Z"/>
    <g class="cls-17">
      <path d="M414.31,158.29c-3.66-3.2-8.21-6.07-10.05-10.68-2.5-6.25-.06-13.29.15-19.73.06-1.93-.05-3.92-.42-5.84,1.16,1.25,2.45,2.37,3.81,3.35,1.82,1.31,3.76,2.45,5.81,3.37,1.26.56,2.55,1.1,3.88,1.49.41.12.83.21,1.24.28-.14-1.68-.3-3.36-.49-5.03-.54-.2-1.07-.41-1.62-.65-1.73-.77-3.42-1.67-4.95-2.8-2.91-2.15-5.24-4.87-6.5-8.3-1.67-4.53-.84-9.54-1.6-14.24-.63-3.9-1.99-7.75-4.29-10.99-.68-.96-1.47-1.85-2.33-2.67-.27-1.22-1.07-2.37-1.47-3.53-.34-.98-.59-1.98-.87-2.97-.53-1.93-1.15-3.85-2.18-5.59-2.39-4.07-6.34-6.97-10.57-8.92-4.53-2.08-9.41-3.11-14.23-4.27-2.32-.56-4.64-1.14-6.89-1.94-.44-.16-.9-.33-1.35-.51-1.08-1.04-2.26-1.97-3.53-2.76-.11-.21-.21-.42-.29-.65-.28-.89-1.4-1.22-1.76-.49-3.91-1.97-8.39-2.96-12.82-3.25-1.97.93-3.81,2.02-5.5,3.22,7.6,1.1,17.05,1.79,21.72,8.82,2.52,3.8,3.61,8.34,6.02,12.2.51.81,1.08,1.58,1.69,2.32-6.07-2.61-12.77-3.62-18.56-6.86-5.96-3.34-10.05-9.2-11.94-15.69-.83.64-1.62,1.31-2.37,1.99.67,3.73,2.28,7.23,4.57,10.29-2.66-.79-5.42-1.29-8.22-1.44-1.15-.06-2.29-.03-3.42.06-1.25,2.26-2.17,4.54-2.71,6.72.17.51.34,1.01.54,1.5,1.06,2.55,2.49,5.02,3.95,7.35,1.56,2.49,3.25,5.05,5.39,7.12-1.25-.22-2.53-.34-3.74-.17-1.27-.76-2.67-1.36-4.17-1.89-4.41-1.57-8.85-3.04-13.28-4.56-.43-.15-.87-.3-1.3-.45-2.55.44-5.57.04-8.58-.91,1.38,1.68,2.59,3.5,3.59,5.44.83,1.62,1.55,3.29,2.44,4.87.11.2.23.4.35.61-.27-.12-.55-.24-.86-.38-.95-.41-1.9-.82-2.85-1.22-1.82-.78-3.64-1.56-5.46-2.35-3.69-1.59-7.39-3.16-11.08-4.76-2.06-.9-4.02-1.93-5.73-3.31-.14,2.42.52,5.3,2.15,8.33,1.03.77,2.06,1.53,3.03,2.29,2.99,2.34,5.38,4.99,6.9,8.41,2.09,1.57,4.02,3.02,5.8,4.37-.71-2.18-1.51-4.33-2.61-6.36-1.09-2.02-2.47-3.77-4.04-5.35,1.62.53,3.24,1.06,4.85,1.59.15.05.29.09.44.14,1.1.45,2.21.87,3.32,1.26,1.26.45,2.57.9,3.87,1.39.02,0,.05.02.07.03,3.34,1.27,6.63,2.84,8.95,5.52,3.59,4.14,3.08,9.99,2.63,15.07-.06.69-.12,1.38-.17,2.07,2.39,2.93,4.38,6.12,6.36,10.11,2.07,3.02,4.71,5.45,7.75,7.63,3,2.16,6.43,4.47,7.08,8.4.25,1.5-.03,3.16-1.17,4.25-1.43,1.37-3.42,2-4.86,3.37-.74.7-1.27,1.47-1.65,2.27.08,2.26.02,4.53-.14,6.78.4,1.29.96,2.55,1.61,3.72,1.56,2.82,5.21,7.49,2.8,10.44-1.67,2.05-5.08,2.68-7.66,3.78-.14.06-.27.13-.41.19-1.54,4.79-3.46,9.41-5.58,13.75.24,1.37.44,2.7.37,3.96-.05.89-.14,1.33-.57,1.92,0-.03-.37.38-.41.41-.44.32-1,.43-1.52.53-.54.11-1.1.19-1.65.27-.65,1.13-1.32,2.24-1.98,3.32-.36.58-.72,1.16-1.07,1.72,1.9.05,3.79-.04,5.72-.33.75-.11,1.48-.28,2.18-.51-.12.52-.22,1.05-.27,1.6-.27,3.27,1.01,6.85.03,10.03-.98,3.17-4.28,3.86-7.22,3.94-3.57.1-7.08-.6-10.6.08-2.88,3.43-5.94,6.17-9.63,8.22-1.56,2.52-3.25,4.94-6.12,6.14-4.54,1.9-9.35.24-13.86-1.69-7.49.04-14.27-1.3-19.19-.92-2.76.21-5.38.78-7.82,1.7-1.44,1.56-2.64,3.33-4.32,4.66-1.87,1.49-4.07,2.48-6,3.89-.36.26-.71.55-1.06.86-.68,1.08-1.3,2.24-1.85,3.49-1.58,3.57-.99,6.69.83,8.5.39-3.67,2.8-6.96,5.79-9,3.1-2.12,6.69-2.89,10.42-2.74.96.04,1.9.14,2.84.27-1.2,1.18-2.35,2.42-3.61,3.53,3.11-.86,6.53-1.1,9.45-.45,1.26-.49,2.58-.65,3.93-.39,1.73.34,3.41,1.12,5.07,1.72,1.99.72,4.13,1.23,6.02,2.2.27.14.55.31.68.58.03.06.05.12.04.19-.07.47-.73.71-1.35.87,1.25.85,2.4,1.74,3.45,2.67,1.15.25,2.25.7,3.14,1.4,1.25.96,2.53,1.89,3.88,2.7,2.38,1.42,4.97,2.42,7.72,2.82,2.46.36,4.99.12,7.33-.72,2.58-.92,4.15-2.73,5.95-4.68,3-3.23,7.5-1.46,11.26-.74,1.72.33,3.45.59,5.19.61-1.83,1.47-3.51,3.16-5.13,5.02-3,3.44-6.49,7.98-11.3,8.78-4.28.71-8.12-2.83-11.57-5.23-3.48-2.43-7.17-4.23-11.26-4.64,2.31,2.64,4.54,5.38,7.31,8.1,2.54,1.74,4.93,3.67,7.64,5.07-.35.11-.7.23-1.05.35,1.11.76,2.29,1.5,3.58,2.23,1.06.6,2.2,1.19,3.41,1.76,2.19-.13,4.44.13,6.67.45,4.46.65,8.81,1.36,13.33,1.26,4.49-.1,8.94-.84,13.22-2.2,1.96-.62,3.85-1.42,5.62-2.42.15.13.33.15.53-.09.13-.16.26-.3.38-.45,1.36-.84,2.65-1.81,3.83-2.93.3-.28.58-.58.86-.88,1.58-.72,3.34-1.24,5-1.56,4.47-.84,9.1-.19,13.59-.95,2.33-.4,4.39-1.2,6.23-2.29.01-.01.03-.02.04-.03,2.18-1.85,4.29-3.86,6.33-5.99,1.69-2.35,3.06-5.01,4.19-7.77,2.9-7.1,4.35-15.58,10.56-20.73,2.22-1.84,4.79-3.17,7.31-4.57,1.67-3.55,3.23-7.21,4.67-10.96-1.32,1.81-2.9,3.4-4.77,4.74-.97.69-1.98,1.32-3.01,1.91.15-.27.29-.54.43-.82,1.68-3.48,2.27-7.26,1.91-11.1-.35-3.86-1.54-7.59-2.52-11.32-.94-3.58-1.8-7.41-1.21-11.12.6-3.75,2.35-7.12,3.99-10.49,1.7-3.5,3.3-7.06,3.85-10.95.44-3.13.38-6.25-.18-9.32,1.07,1.01,2.19,1.98,3.32,2.92,2.1,1.75,4.36,3.54,5.96,5.6,1.99,2.56,2.68,5.38,2.39,8.7-.29,3.38-1.3,6.75-1.16,10.16,1.43-7.06,2.5-14.24,3.2-21.44-1.15-1.46-2.49-2.8-3.94-4.07ZM394.55,90.95c2,2.9,3.03,6.45,3.39,9.93.41,3.99.16,7.99,1.03,11.89-.27-.23-.55-.45-.84-.65-2.33-1.65-5-2.59-7.71-3.44-1.17-.37-2.35-.71-3.5-1.13-.09-.04-.66-.26-.61-.24-.3-.13-.6-.26-.9-.41-.29-.14-.58-.29-.86-.45-.05-.03-.43-.27-.51-.32-2.16-1.54-2.82-4-3.08-6.69-.3-3.11-.39-6.26-1.64-9.17-.89-2.08-2.14-3.89-3.62-5.49,1.15.37,2.32.66,3.53.86,2.32.37,4.65.29,6.99.45,3.65.25,6.21,1.79,8.32,4.86ZM397.55,142.41c-1.9-2.3-3.93-4.56-5.44-7.11-.33-.57-.61-1.16-.87-1.75.31-2.4.44-4.83.32-7.24-.24-4.82-1.6-9.65-4.33-13.66,1.32.44,2.66.85,3.96,1.31,2.37.84,4.3,1.91,5.65,4.1,1.4,2.28,1.77,5.08,1.84,7.71.15,5.59-1.4,11.1-1.13,16.65ZM365.47,177.09c.53-.56,1.05-1.13,1.54-1.74,4.18-5.22,6.34-11.57,6.59-18,.42.68.85,1.35,1.27,2.02,2.02,3.22,4.27,6.69,4.51,10.59.23,3.76-1.59,6.92-3.93,9.71-2.52,3.02-5.51,5.62-7.98,8.69-.64.8-1.2,1.62-1.71,2.46,0-.02,0-.03.01-.04.94-4.45,1.09-9.32-.3-13.71ZM362.63,201.02c-.41,4.86-.21,9.72-2.72,14.09-2.2,3.81-5.54,6.65-9.67,8.17-2.45.9-4.91,1.61-7.14,2.72.76-.38,1.5-2.96,1.8-3.73.5-1.28.87-2.6,1.23-3.93.68-2.47,1.02-5.05,2.52-7.21,1.04-1.49,2.47-2.47,3.81-3.65,1.19-1.04,2.72-1.56,4.07-2.39,2.81-1.73,4.92-4.12,6.48-6.86-.17.91-.3,1.84-.38,2.8ZM362.93,220.66c-2.65,5.44-4.8,11.18-7.91,16.38-2.41,4.03-5.47,7.87-9.63,10.19-3.61,2.01-7.75,2.47-11.77,3.24,2.45-2.52,4.25-5.68,5.52-8.92,1.58-4.01,2.63-9,6.73-11.25,2.18-1.2,4.66-1.75,6.99-2.58,2.25-.8,4.38-1.92,6.28-3.37,1.4-1.07,2.68-2.32,3.8-3.69ZM327.08,210.57c-.25-2.91-.43-6.16,1.91-8.05,4.1-3.3,10.68-3,13.93-7.65-.03.58-.01,1.17.03,1.74.12,1.73.41,3.46.23,5.19-.11,1.05-.42,2.12-1,3.01-.15.23-.32.45-.51.66-1.04,1.12-2.83,1.56-4.18,2.23-3.8,1.88-7.32,4.21-10.24,7.21.07-1.44-.04-2.92-.17-4.34ZM346.41,129.48c-.7-2.38-1.73-4.66-3.06-6.74.13.03.27.05.4.07,1.35.55,2.78.96,4.12,1.48,1.67.65,3.35,1.37,4.86,2.35,3.29,2.13,5.22,5.16,5.52,9.1.35,4.45-1.19,8.83-2.43,13.03-.49,1.67-.95,3.36-1.27,5.06-1.13-1.45-2.44-2.78-3.63-4.12-.97-1.1-2-2.21-2.72-3.5-.29-.51-.49-1.04-.67-1.58.12-1.13.2-2.27.24-3.41.14-3.96-.24-7.95-1.36-11.76ZM348.77,101.77c2.32,3.18,3.18,6.84,3.63,10.7.44,3.81.47,7.97,1.84,11.6-.27-.72-2.86-1.62-3.55-1.93-1.05-.48-2.08-.96-3.13-1.44-1.95-.9-3.94-2.12-4.81-4.18-.5-1.19-.56-2.5-.74-3.77-.41-2.93-1.52-5.77-3.17-8.22-.79-1.17-1.49-1.98-1.95-3.31-.49-1.4-1.25-2.71-1.85-4.06-.66-1.5-1.32-2.99-2.15-4.4-.16-.27-.34-.51-.51-.75.58.14,1.16.29,1.74.46,2.25.67,4.45,1.53,6.54,2.61,3.08,1.59,6.06,3.88,8.12,6.69ZM344.11,92.91c1.16.12,2.32.28,3.47.56,2.14.52,4.26,1.23,6.25,2.2,4.06,1.97,7.77,4.8,10.59,8.33,3.05,3.83,5.11,8.33,6.15,13.1,1.08,4.92.74,9.86-.34,14.75-.53,2.41-1.1,4.83-1.43,7.26-1.29-2.07-2.84-4-4.64-5.73-1.04-1.33-2.22-2.56-3.15-3.96-1.43-2.16-2.2-4.44-2.83-6.92-1.05-4.08-.96-8.37-1.73-12.5-.75-4.05-2.27-7.69-4.89-10.89-2.08-2.53-4.64-4.55-7.45-6.19ZM355.6,166.41c.92,2.07,2.21,3.99,3.86,5.52.44,1.21.75,2.48.98,3.76.04.24-1.51,1.37-1.72,1.55-.66.57-1.33,1.12-2.01,1.67-1.36,1.09-2.74,2.16-4.08,3.28-2.74,2.27-5.08,4.86-7.44,7.51-.26.3-.53.59-.77.9.15-2.12-.36-4.3-.95-6.44-.79-2.86-1.48-5.9.41-8.29,3.13-3.95,8.68-5.32,11.73-9.46ZM361.05,181.11c.08,1.71.06,3.41-.17,5.14-.65,5.03-2.71,11.04-7.03,14.06-2.07,1.45-4.49,2.38-6.84,3.3.02-1.18.06-2.36.17-3.54.36-3.83,1.7-7.3,4.15-10.28,2.78-3.38,6.34-5.93,9.72-8.68ZM358.11,160.89c-.26-4.97,1.51-9.74,2.66-14.5.96-3.95,1.56-8.09.71-12.11.46.44.92.91,1.42,1.34,1.38,1.6,2.63,3.31,3.65,5.2.94,1.76,1.68,3.6,2.22,5.51.08.52.19,1.05.32,1.58.08.32.18.63.28.94.19.99.33,1.99.42,3,.64,7.21-1.75,14.65-6.16,20.37-2.85-3.18-5.28-6.94-5.51-11.32ZM367.06,212.81c1.51-5.31.41-11.03,2.19-16.27,1.22-3.59,3.98-6.48,6.57-9.16,2.83-2.93,5.83-5.84,7.62-9.55.23-.49.44-.98.62-1.47,1.42,3.51,2.7,7.06,2.98,10.87.19,2.59-.17,5.24-1.39,7.56-1.04,1.99-2.51,3.62-4.16,5.12-3.51,3.19-7.62,5.69-10.91,9.14-1.48,1.55-2.77,3.23-3.93,4.98.14-.4.29-.8.4-1.21ZM379.73,153.29c-.24,1.18-.37,2.34-.44,3.49-.67-1.05-1.33-2.1-1.96-3.17-1.06-1.8-2.02-3.65-2.64-5.65-.76-2.44-.79-5.02-.45-7.55.72-5.45,2.58-10.64,2.57-16.2,0-5.12-1.15-10.28-3.3-14.93-.48-1.03-1.01-2.04-1.59-3.01,2.22,1.3,4.41,2.63,6.4,4.25,3.66,2.98,6.07,6.98,6.93,11.63.91,4.92.46,9.95-.65,14.8-1.27,5.55-3.74,10.75-4.88,16.34ZM363.1,62.96c3.04,1.03,6.16,1.79,9.24,2.69,6.22,1.81,13.79,4.73,16.18,11.42.56,1.56.9,3.19,1.34,4.78-.1-.03-.2-.06-.3-.09-4.51-1.03-9.21-.05-13.56-1.84-3.63-1.5-6.57-4.21-8.5-7.61-1.7-3-2.75-6.33-4.4-9.35ZM357.84,79.37c5.26,1.76,11.01,4.2,14.5,8.71,1.71,2.21,2.54,4.78,2.78,7.55.22,2.47.23,5.05.88,7.45-.45-.27-.91-.54-1.37-.8-4.12-2.39-8.63-4.72-11.58-8.58-3.29-4.32-4.82-9.7-8.16-14-.48-.61-.98-1.2-1.49-1.78,1.47.49,2.96.96,4.44,1.46ZM331.31,80.37c-1.59-2.13-3.04-4.36-4.34-6.67-.79-1.39-1.63-2.73-2.45-4.08,8.49-.19,16.96,2.91,23.05,8.94,3.77,3.73,5.71,8.35,8.13,12.96-1.45-.68-2.95-1.27-4.49-1.75-2.58-.81-5.26-1.33-7.96-1.54-2.61-.2-5.07-.22-7.1-2.07-1.84-1.67-3.36-3.81-4.84-5.79ZM314.77,94.69c-1.74-1.26-2.92-3.23-3.95-5.02-.97-1.67-1.74-3.45-2.66-5.15-.15-.28-.33-.53-.49-.8.58.26,1.17.52,1.76.76,3.9,1.57,7.88,2.97,11.81,4.45,3.29,1.24,6.78,1.96,8.64,5.22.89,1.57,1.51,3.24,2.24,4.83-3.08-1.44-6.44-2.02-9.8-2.38-2.38-.26-5.07-.32-7.17-1.64-.13-.08-.26-.17-.39-.27ZM321.73,100.61c2.34.02,4.41.74,6.6,1.43,2.16.68,4.15,1.55,5.86,3.09,2.13,1.92,2.98,4.23,3.69,6.9.25.95.71,2.88-.81,3-.65.05-1.26-.3-1.82-.65-2.14-1.32-4.27-2.65-6.39-4-1.61-1.02-3.24-2.06-4.58-3.43-1.03-1.06-1.89-2.37-2.31-3.78-.25-.83-.35-1.7-.25-2.57ZM336.81,134.79c-2.76-2.11-5.86-3.84-8.21-6.45-3.18-3.52-5.18-8.47-6.05-13.18.11-1.37.17-2.74.15-4.08.86.82,1.79,1.57,2.75,2.26,4.37,3.12,9.71,5.03,12.92,9.48,2.87,3.97,4.25,8.92,4.44,13.78.06,1.63-1.03,2.79-2.41,1.57-1.24-1.09-2.26-2.36-3.59-3.38ZM335.14,157.49c.25-1.95,2.01-2.84,3.53-3.77,1.52-.93,3.14-2.51,3.7-4.26.11-.36.19-.74.38-1.07.19-.33.55-.59.92-.54,1.3.18,2.33,2.58,3.02,3.55,1.21,1.71,2.75,3.18,4.03,4.85,1.47,1.98,2.13,4.26,1.04,6.46-.96,1.93-3.15,3.36-5.04,4.58-2.01,1.3-4.1,2.57-5.86,4.22-.1-.61-.25-1.22-.46-1.85-.79-2.32-2.21-4.34-3.46-6.43-.97-1.63-2.05-3.78-1.8-5.74ZM326.2,186.98c.14-.63.33-1.1.77-1.68.15-.19.98-.9,1.2-1.04,2.68-1.64,5.89-2.13,8.55-3.8.26-.16.5-.33.74-.51.01.2.02.39.04.6.38,3.21,2.49,6.79,1.59,10.04-.64,2.34-2.88,3.47-5.03,4.3-2.33.9-4.78,1.6-6.98,2.81.11-1.97-.34-4.05-.65-5.91-.27-1.6-.56-3.29-.23-4.81ZM327.66,224.65c2.51-5.09,6.3-8.71,11.23-11.46,1.32-.74,2.68-1.41,4.06-2.04-.32,6.9-2.93,13.72-8.7,17.9-2.95,2.14-6.35,3.08-9.87,3.54,1.02-2.68,2.01-5.37,3.28-7.94ZM288.51,239.18c3.83-.85,7.03-3.27,9.21-6.48,1.8-2.65,3.21-6.28,6.23-7.79,3.35-1.67,7.66-.52,11.23-.53,2.16,0,4.45-.33,6.48-1.19-1.49,3.2-2.62,6.58-3.96,9.86-1.14.04-2.27.07-3.38.13-6.72.32-13.91,1.11-19.14,5.8-1.24,1.11-2.37,2.49-3.59,3.76-.42-.23-.84-.46-1.25-.69-1.54-.86-3.08-1.7-4.64-2.47.92-.05,1.86-.17,2.81-.38ZM263.31,237.71c-1.65.63-3.31,1.34-5.07,1.6-.08.01-.16.02-.24.03-1.46.18-2.91-.25-4.34-.52-1.65-.31-3.39-.5-5.08-.44-.11,0-.24,0-.31-.08-.12-.13-.01-.33.09-.47,1.34-1.75,3.06-3.2,5-4.24,2.01-1.08,4.55-1.49,6.82-1.45,3.77.07,7.44,1.47,10.54,3.63-2.55.24-5.03,1.01-7.42,1.93ZM275.09,245.14c-3.13-.89-6.2-2.01-9.27-3.07,2.11-.8,4.36-1.26,6.78-1.25,5.25.02,9.89,2.68,14.37,5.21-3.64,1.27-8.36.11-11.87-.89ZM298.77,254.92c-1.86,1.49-4.11,1.84-6.42,1.5-2.8-.41-5.4-1.49-7.87-2.84-.91-.5-1.77-1.06-2.64-1.63-.05-.03-.1-.06-.13-.11-.07-.12,0-.28.11-.35.11-.07.26-.08.39-.09,1.3-.06,2.6,0,3.9-.12,1.29-.12,2.27-.58,3.46-1.03.47-.18.93-.29,1.39-.53.17-.09,1.31-.91,1.42-.86,3.08,1.42,6.31,2.49,9.64,2.79-1.1,1.05-2.01,2.26-3.25,3.25ZM307.22,246.03c-3.56,1.3-7.24.54-10.7-.88.69-.73,1.38-1.46,2.09-2.16,4.52-4.47,10.89-4.94,16.91-5.26-1.91,3.53-4.54,6.93-8.31,8.3ZM312.73,249.36c.35.06,1.48-1.01,1.76-1.23.57-.45,1.11-.92,1.63-1.43,1.04-1.01,1.99-2.12,2.84-3.29,1.6-2.22,3.33-4.56,5.82-5.86,1.83-.95,3.94-1.16,5.9-1.75.99-.3,1.96-.66,2.9-1.08.54-.24,2.36-.85,2.61-1.4-1.37,3.01-2.17,6.3-3.75,9.21-1.85,3.41-4.71,6.99-8.66,7.98-3.59.9-7.4-.49-11.04-1.16ZM344.92,263.97c-1.94,2.92-4.5,5.1-7.73,6.5-3.72,1.62-7.76,2.46-11.79,2.79-4.32.35-8.54-.22-12.8-.89-.05,0-.11-.02-.16-.02,1.41-.79,2.75-1.74,3.98-2.82,3.98-3.46,6.74-8.39,11.19-11.3,4.71-3.07,10.55-3.03,15.82-4.51,3.28-.92,6.26-2.47,8.87-4.53-1.07,1.77-1.99,3.63-2.84,5.51-1.41,3.12-2.65,6.42-4.55,9.28ZM378.83,247.05c-1.24,3.5-2.76,6.94-5.01,9.91-2.45,3.23-5.7,5.09-9.69,5.71-4,.62-8.05.4-11.99,1.14.35-.68.69-1.36,1.02-2.04,1.5-3.18,2.76-6.47,4.5-9.54,1.63-2.86,3.89-5.29,6.52-7.25,5.88-4.4,12.92-6.8,19.34-10.26.07-.04.14-.08.2-.11-2.04,3.92-3.41,8.27-4.88,12.44ZM394.57,214.12c-1.09,6.6-6.34,11.3-11.81,14.61-6.22,3.77-13.19,6.07-19.41,9.84-1.47.89-2.9,1.88-4.25,2.95,5.15-7.88,7.67-17.16,12.91-25.02,2.88-4.31,6.85-7.3,10.88-10.46,3.59-2.82,6.92-5.96,8.75-10.17,1.37,6.05,3.96,12.07,2.93,18.24ZM397.85,169.24c-1.37,3.8-3.48,7.28-5.03,11-.26.63-.49,1.26-.7,1.89-2.12-7.54-6.88-14.8-7.08-22.64-.16-6.08,2.65-11.86,4.38-17.55.2-.64.38-1.29.55-1.94,1.78,2.79,3.97,5.42,5.55,7.92,4.02,6.34,4.86,14.29,2.32,21.33Z"/>
    </g>
    <g>
      <path class="cls-34" d="M350.66,48.65c-1.4,0-2.76.08-4.08.22-2.47.69-4.76,1.64-6.89,2.75.72.42,1.53.71,2.35.9,2.71.64,5.63.38,8.19-.73,1.15,2.01,3.3,3.34,5.58,3.73,1.43.24,4.46.19,6.86-1.38.75,2.34,2.06,3.68,4.47,4.76,2.58,1.15,6.81.47,7.73-.27,1.46,2.94,4.92,4.75,8.16,4.27-.72,3.21,2.68,6.57,5.88,5.8-1.33,3.19,1.49,7.31,4.95,7.21-.63,3.95,2.73,8.06,6.73,8.24-.5,1.6-.02,3.95.56,5.5.16.44,3.2,4.77,3.71,3.99-1.23,1.89-1.52,4.36-.77,6.48.75,2.12,2.54,3.86,4.69,4.55-.82,2.05-1.27,4.33-.77,6.48.5,2.15,2.11,4.14,4.27,4.62-1.35,1.6-2.36,3.59-2.35,5.69,0,2.1,1.2,4.26,3.17,4.98-1.65,1.32-2.62,3.45-2.54,5.56.08,2.11,1.21,4.16,2.95,5.35-2.25.74-3.85,3.12-3.67,5.49.19,2.45,2.1,4.28,4.37,4.9-1.34,1.48-2.12,3.86-2.18,5.84-.02.54,1.2,6.58,2.09,6.01-3.43,2.16-4.05,7.66-1.2,10.53-4.26,2.79-5.16,9.54-1.79,13.36-3.61,1.83-4.64,7.32-1.93,10.33-4.29.3-7.04,6.08-4.57,9.6-4.16,2.1-6.03,7.79-3.94,11.95-4.36.34-7.53,5.63-5.77,9.64-3.62-.51-6.85,3.97-5.22,7.24-3.77.72-5.98,5.68-3.99,8.97-4.26.23-7.39,5.45-5.59,9.32-2.44-1.03-5.2.53-6.63,2.52-1.07,1.49-1.53,3.4-1.27,5.21-.05-.38-2.9.03-3.2.1-1.17.27-2.28.78-3.24,1.48-1.71,1.25-3.19,3.65-2.45,5.88-1.42-1.38-3.71-1.75-5.49-.9-1.78.85-2.93,2.88-2.74,4.85-3.44-1.59-7.97-.1-9.81,3.21-2.77-2.34-6.88-.77-8.81,1.86-.1.14-.2.28-.36.34-.24.09-.5-.07-.71-.22-2.81-1.83-6.97-1.11-9.01,1.55-2.81-2.66-7.69-2.7-10.54-.09-1.86-2.46-5.73-2.83-8.35-1.21-.99.61-1.88,1.7-1.99,2.73,3.2,1.37,6.8,2.6,10.72,3.54,16.66,2.58,37.59-.21,56.73-16.46,29.07-24.69,46-74.37,46.24-121.29.23-46.92-20.9-96.62-68.56-94.96Z"/>
      <path class="cls-8" d="M350.66,48.65c-1.4,0-2.76.08-4.08.22-2.47.69-4.76,1.64-6.89,2.75.72.42,1.53.71,2.35.9,2.71.64,5.63.38,8.19-.73,1.15,2.01,3.3,3.34,5.58,3.73,1.43.24,4.46.19,6.86-1.38.75,2.34,2.06,3.68,4.47,4.76,2.58,1.15,6.81.47,7.73-.27,1.46,2.94,4.92,4.75,8.16,4.27-.72,3.21,2.68,6.57,5.88,5.8-1.33,3.19,1.49,7.31,4.95,7.21-.63,3.95,2.73,8.06,6.73,8.24-.5,1.6-.02,3.95.56,5.5.16.44,3.2,4.77,3.71,3.99-1.23,1.89-1.52,4.36-.77,6.48.75,2.12,2.54,3.86,4.69,4.55-.82,2.05-1.27,4.33-.77,6.48.5,2.15,2.11,4.14,4.27,4.62-1.35,1.6-2.36,3.59-2.35,5.69,0,2.1,1.2,4.26,3.17,4.98-1.65,1.32-2.62,3.45-2.54,5.56.08,2.11,1.21,4.16,2.95,5.35-2.25.74-3.85,3.12-3.67,5.49.19,2.45,2.1,4.28,4.37,4.9-1.34,1.48-2.12,3.86-2.18,5.84-.02.54,1.2,6.58,2.09,6.01-3.43,2.16-4.05,7.66-1.2,10.53-4.26,2.79-5.16,9.54-1.79,13.36-3.61,1.83-4.64,7.32-1.93,10.33-4.29.3-7.04,6.08-4.57,9.6-4.16,2.1-6.03,7.79-3.94,11.95-4.36.34-7.53,5.63-5.77,9.64-3.62-.51-6.85,3.97-5.22,7.24-3.77.72-5.98,5.68-3.99,8.97-4.26.23-7.39,5.45-5.59,9.32-2.44-1.03-5.2.53-6.63,2.52-1.07,1.49-1.53,3.4-1.27,5.21-.05-.38-2.9.03-3.2.1-1.17.27-2.28.78-3.24,1.48-1.71,1.25-3.19,3.65-2.45,5.88-1.42-1.38-3.71-1.75-5.49-.9-1.78.85-2.93,2.88-2.74,4.85-3.44-1.59-7.97-.1-9.81,3.21-2.77-2.34-6.88-.77-8.81,1.86-.1.14-.2.28-.36.34-.24.09-.5-.07-.71-.22-2.81-1.83-6.97-1.11-9.01,1.55-2.81-2.66-7.69-2.7-10.54-.09-1.86-2.46-5.73-2.83-8.35-1.21-.99.61-1.88,1.7-1.99,2.73,3.2,1.37,6.8,2.6,10.72,3.54,16.66,2.58,37.59-.21,56.73-16.46,29.07-24.69,46-74.37,46.24-121.29.23-46.92-20.9-96.62-68.56-94.96Z"/>
    </g>
  </g>
  <g id="Stomach_1" data-name="Stomach 1">
    <g>
      <path class="cls-27" d="M408.51,280.8c0-1.38-.91-2.76-2.73-3.81-3.64-2.1-9.55-2.1-13.19,0-1.82,1.05-2.73,2.43-2.73,3.81v139.07c0,1.38.91,2.76,2.73,3.81,3.64,2.1,9.55,2.1,13.19,0,1.82-1.05,2.73-2.43,2.73-3.81v-139.07Z"/>
      <path class="cls-27" d="M479.99,264.08c-2.4-6.07-6.97-11.02-11.15-15.89-4.2-4.89-8.46-9.98-11.13-15.9-.75-1.66-1.34-3.4-1.83-5.16-.47-1.71-1.07-3.33-1.41-5.09-.33-1.7-.68-3.42-.94-5.13-.26-1.72-.34-3.43-.69-5.14-.04-.22-.24.02-.26.12-.46,2.74-.56,5.72-.37,8.49.22,3.2.52,6.32,1.48,9.39,1.95,6.23,5.59,11.46,9.63,16.5,3.87,4.82,7.89,9.61,10.48,15.27,2.37,5.16,4.14,11.12,2.4,16.75-1.67,5.4-6.06,9.12-9.95,12.95-4.36,4.29-8.11,9.07-11.06,14.44-1.39,2.53-2.66,5.15-4.73,7.21-1.66,1.65-3.78,2.82-5.98,3.61-5.49,1.96-11.34,2.02-17.06,2.78-3.51.47-7.47,1.27-10.49,2.56-3.03,1.29-8.42,5.86-8.42-4.23v10.55c-3.21,4.22-4.79,9.82-3.15,14.92.32.98,2.04,2.09,2.31.46.49-2.86,1.01-5.82,2.22-8.48,1.16-2.54,2.95-4.76,5.12-6.5,4.64-3.74,10.87-4.32,16.58-4.73,5.34-.38,10.9-.83,15.93-2.77,2.65-1.02,5.08-2.38,7.21-4.28,2.27-2.02,3.85-4.69,5.3-7.32,3-5.46,6.47-10.33,10.85-14.77,3.9-3.95,8.06-8,10.05-13.31,2.13-5.67,1.22-11.82-.95-17.33Z"/>
      <path class="cls-12" d="M405.77,287.18c-1.02.6-2.24,1.02-3.53,1.27v133.61c1.29-.25,2.51-.68,3.53-1.27.47-.27.88-.57,1.22-.88v-133.61c-.35.32-.76.61-1.22.88Z"/>
      <path class="cls-33" d="M395.94,275.77c-1.22.26-2.37.66-3.35,1.23-1.82,1.05-2.73,2.43-2.73,3.81v139.07c0,1.38.91,2.76,2.73,3.81.98.57,2.13.97,3.35,1.23v-149.15Z"/>
      <path class="cls-21" d="M392.58,276.99c-1.82,1.05-2.73,2.43-2.73,3.81,0,1.38.91,2.76,2.73,3.81,3.64,2.1,9.55,2.1,13.19,0,1.82-1.05,2.73-2.43,2.73-3.81,0-1.38-.91-2.76-2.73-3.81-3.64-2.1-9.55-2.1-13.19,0Z"/>
      <path class="cls-29" d="M394.84,278.48c-1.2.64-1.8,1.48-1.8,2.32s.6,1.68,1.8,2.32c2.4,1.28,6.28,1.28,8.68,0,1.2-.64,1.8-1.48,1.8-2.32,0-.84-.6-1.68-1.8-2.32-2.4-1.28-6.28-1.28-8.68,0Z"/>
    </g>
    <g>
      <path class="cls-15" d="M606.47,246.2c-1.17-53.48-30.73-103.79-83.42-100.93-38.24,2.08-66.82,24.79-66.82,62.17,0,9.97,1.97,20,7.29,28.54,5.56,8.92,14.71,14.69,19.69,24.32,3.73,7.22,5.26,15.96,2.35,23.55-1.09,2.85-2.76,5.43-4.42,8-2.39,3.7-4.79,7.41-7.18,11.11-2,3.1-4.01,6.21-6.34,9.07-7.69,9.45-20.57,19.74-34.52,17.59-9.03-.98-22.35-.32-30.02,9.61-8.63,11.18-5.49,18.05-15.5,31.59-6.9,9.33-31,14.56-31,39.44v21.56c0,2.64,1.74,5.28,5.23,7.3,6.98,4.03,18.3,4.03,25.28,0,3.49-2.01,5.23-4.66,5.23-7.3h0c0-22.14-.31-25.67,11.02-32.32,11.1-6.52,14.29-13.32,16.65-22.06,1.8-6.67,5.6-12.52,10.92-13.93,7.38-1.16,12.98,10.3,16.15,15.16,3.14,4.81,9.1,11.78,15.01,16.07,7.05,5.12,20.85,11.86,41.59,11.24,27.58-.83,67.37-16.54,92.06-85.2,7.96-22.15,11.25-51.39,10.75-74.58Z"/>
      <path class="cls-36" d="M567.78,158.25c-12.22-8.99-27.19-13.93-44.73-12.98-38.24,2.08-66.82,24.79-66.82,62.17,0,9.97,1.97,20,7.29,28.54,5.56,8.92,14.71,14.69,19.69,24.32,3.73,7.22,5.26,15.96,2.35,23.55-1.09,2.85-2.76,5.43-4.42,8-2.39,3.7-4.79,7.41-7.18,11.11-2,3.1-4.01,6.21-6.34,9.07-7.69,9.45-20.57,19.74-34.52,17.59-9.03-.98-22.35-.32-30.02,9.61-8.63,11.18-5.49,18.05-15.5,31.59-6.9,9.33-31,14.56-31,39.44v21.56c0,2.64,1.74,5.28,5.23,7.3,6.98,4.03,18.3,4.03,25.28,0,.25-.15.48-.3.71-.45-2.25.77-4.41,1.04-6.66,1.09-8.79.17-15.55-8.82-16.2-17.59-.57-7.76-.84-18.77,4.54-24.42,7.65-8.03,16.27-9.13,22.31-14.39,12.96-11.29,11.73-21.14,18.66-32.02,10.55-16.57,27.07-8.25,42.23-11.53,15.09-3.26,25.83-18.26,34.13-31.28,8.3-13.01,18.47-32.12,15.07-47.17-4.35-19.24-21.75-24.4-23.36-48.78-3.61-54.61,48-67.46,89.26-54.31Z"/>
      <path class="cls-36" d="M447.06,378.66c3.14,4.81,9.1,11.78,15.01,16.07,7.05,5.12,20.85,11.86,41.59,11.24,14.75-.44,32.99-5.14,50.54-19.92-31.83,24.51-76.32,15.2-90.53-4.65-9.8-13.69-20.08-24.81-32.77-17.9,7.38-1.16,12.98,10.3,16.15,15.16Z"/>
      <path class="cls-11" d="M428.32,357.58c.22-.13.43-.25.66-.36,8.25-4.36,19.53.77,26.92,5,7.52,4.3,12.82,14.31,20.15,18.93,24,15.12,53.18,7.8,66.8,0,22.2-12.71,36.5-37.89,45.02-62.01,8.52-24.12,9.85-49.34,9.1-74.92-.54-18.22-3.62-36.73-13.67-52.65-9.2-14.57-23.42-25.15-40.79-24.09-8,.49-15.99,3.19-22.09,8.39-7.6,6.48-11.09,18.05-11.86,27.72-.39,4.99,0,10.05,1.14,14.92,2.33,9.88,7.66,18.72,12.15,27.82,4.49,9.1,8.27,19.08,7.11,29.15-1.24,10.77-7.71,19.89-11.45,29.83-3.92,10.42-3.62,21.98-9.68,31.76-4.54,7.33-12.31,12.75-20.91,13.92-15.62,2.12-30.93-6.76-46.55-6.73-13.2.03-25.01,5.63-29.62,18.65-2.33,6.59-4.1,13.84-9.27,18.55-4.52,4.12-9.5,7.02-14.52,10.29-4.95,3.23-6.49,9.84-6.23,15.75.05,1.21.18,2.46.79,3.5.61,1.04,1.83,1.82,3.01,1.54,1.09-.26,1.81-1.29,2.27-2.32,1.19-2.68,1.3-5.77,2.62-8.4,1.62-3.21,4.83-5.3,8.06-6.86,4.28-2.06,8.58-3.54,11.73-7.27,2.8-3.32,4.41-7.35,6.06-11.32,2.92-7.05,6.21-14.82,13.06-18.8Z"/>
      <path class="cls-11" d="M544.1,175.57c-8.87,1.45-16.39,9.4-7,17.1,2.61,2.14,5.75,3.52,8.75,5.08,4.38,2.28,8.52,5,12.35,8.11,4.73,3.84,9.07,8.33,14.58,10.9,1.58.74,3.43,1.3,5.03.62,1.93-.82,2.73-3.12,3.04-5.19,1.13-7.69-1.72-15.6-6.47-21.75-6.98-9.04-15.72-15.04-27.33-15.1-.98,0-1.97.08-2.94.24Z"/>
    </g>
    <g>
      <g>
        <path class="cls-15" d="M478.75,178.4c-2.9,0-10.83.97-10.83-12.25v-56.61c0-2.19-1.45-4.38-4.34-6.05-5.79-3.34-15.17-3.34-20.96,0-2.89,1.67-4.34,3.86-4.34,6.05v56.61c0,14.83,2.27,22.57,10.01,31.59,6.24,7.27,14.25,11.09,19.83,17.11,3.71,4,9.96,4.61,14.16,1.14,4.04-3.34,6.79-9.05,6.79-17.45,0-14.67-7.42-20.15-10.32-20.15Z"/>
        <path class="cls-10" d="M478.75,178.4c-2.9,0-10.83.97-10.83-12.25v-56.61c0-2.19-1.45-4.38-4.34-6.05-5.79-3.34-15.17-3.34-20.96,0-2.89,1.67-4.34,3.86-4.34,6.05v56.61c0,14.83,2.27,22.57,10.01,31.59,6.24,7.27,14.25,11.09,19.83,17.11,3.71,4,9.96,4.61,14.16,1.14,4.04-3.34,6.79-9.05,6.79-17.45,0-14.67-7.42-20.15-10.32-20.15Z"/>
        <path class="cls-3" d="M475.16,213.67c-6.05-3.43-2.77-4.86-15.59-15.6-5.44-4.56-9.18-10.33-11.13-17.68-1.42-5.36-1.29-59.54-1.29-65.63v-13.04c-1.64.42-3.18,1-4.53,1.78-2.89,1.67-4.34,3.86-4.34,6.05v56.61c0,14.83,2.27,22.57,10.01,31.59,6.24,7.27,14.25,11.09,19.83,17.11,3.71,4,9.96,4.61,14.16,1.14,1.98-1.63,3.64-3.84,4.83-6.64-3.15,3.99-8.02,6.53-11.95,4.3Z"/>
        <path class="cls-15" d="M442.62,103.5c-2.89,1.67-4.34,3.86-4.34,6.05,0,2.19,1.45,4.38,4.34,6.05,5.79,3.34,15.17,3.34,20.96,0,2.89-1.67,4.34-3.86,4.34-6.05,0-2.19-1.45-4.38-4.34-6.05-5.79-3.34-15.17-3.34-20.96,0Z"/>
        <path class="cls-15" d="M446.21,105.87c-1.9,1.02-2.86,2.35-2.86,3.68,0,1.33.95,2.66,2.86,3.68,3.81,2.03,9.98,2.03,13.79,0,1.9-1.02,2.86-2.35,2.86-3.68,0-1.33-.95-2.66-2.86-3.68-3.81-2.03-9.98-2.03-13.79,0Z"/>
        <path class="cls-25" d="M446.21,105.87c-1.9,1.02-2.86,2.35-2.86,3.68,0,1.33.95,2.66,2.86,3.68,3.81,2.03,9.98,2.03,13.79,0,1.9-1.02,2.86-2.35,2.86-3.68,0-1.33-.95-2.66-2.86-3.68-3.81-2.03-9.98-2.03-13.79,0Z"/>
      </g>
      <path class="cls-2" d="M459.27,120.74v47.45c0,8.72,1.98,15.73,11.99,19.47,10.01,3.74,14.08,4.07,14.96,7.81.33-5.72-4.21-14.27-6.6-14.52-3.64-.38-6.43-.6-8.65-1.98-3.92-2.44-5.2-5.53-5.2-11.25v-49.61c-1.61,1.71-3.85,2.48-6.49,2.63Z"/>
    </g>
    <g>
      <path class="cls-27" d="M514.38,262.5c-.87,1.24-1.7,2.51-2.98,3.34-1.15.75-2.44,1.22-3.78,1.5-2.92.6-5.93.31-8.89.2-2.52-.1-5.07-.15-7.47.69.8-2.08,1.65-4.12,3.04-5.83,2.45-3.01,6.45-4.29,8.64-7.6,2.19-3.32,2.51-7.56,2.37-11.42-.1-2.78-.36-5.55-.37-8.34,0-2.63.37-4.91,1.31-7.37.01-.04-.01-.11-.05-.06-2.5,3.25-2.52,7.82-2.43,11.72.09,3.81.41,8.35-1.67,11.74-2.31,3.78-6.69,4.76-9.85,7.57-.12.11-.22.23-.33.34-.21-1.13-.7-2.49-.75-2.81-.54-4.05,2.04-7.75,2.98-11.54.48-1.96.51-4,.03-5.95-.43-1.74-.99-3.8-2.25-5.14-.08-.09-.16.13-.13.19.73,1.79,1.6,3.44,1.62,5.43.02,2.03-.34,3.99-1.07,5.89-1.35,3.52-3.41,6.85-2.98,10.77.1.94.33,1.88.67,2.76.19.48.4,1.19.8,1.61-2.17,2.82-3.04,6.43-4.58,9.63-1.03,2.15-2.4,4.11-4.03,5.85-.77.82-1.59,1.59-2.46,2.29-1,.81-1.95,1.27-1.77,2.72.08.66.46,3.1-.24,6.43,2.55-2.61,5.8-6.79,7.26-8.3,1.31-1.35,2.44-2.86,3.44-4.46.85-.39,1.46-1.14,2.23-1.74,1.02-.8,2.2-1.31,3.44-1.64,2.8-.74,5.59-.6,8.45-.71,2.49-.09,5.15-.45,7.27-1.88,2.05-1.39,3.39-3.63,4.63-5.72.06-.09-.01-.3-.11-.16Z"/>
      <path class="cls-27" d="M491.71,304.17c-.05-.02-.11-.05-.16-.07-3.18-1.29-6.62-1.81-9.95-2.63-2.44-.6-4.88-1.39-7.02-2.72-.91-.57-1.72-1.26-2.52-1.96-1.02-.9-1.16-2.08-.05-3.21,1.4-1.41-6.21.31-5.23,5.75,1.77-1.32,2.37-1.03,3.18-.23.84.84,1.62,1.73,2.18,2.89,1.16,2.35,1.34,5.16,2.21,7.64.75,2.11,1.72,4.26,3.18,5.99,1.32,1.56,3.14,3,4.89,4.05.05.03.12-.11.07-.14-3.76-2.88-5.89-7.82-6.57-12.44-.24-1.67-.38-3.35-.82-4.96,1.4.49,2.86.81,4.33.99,4.69.57,9.93.15,14.2,2.52-.39-.72-1.16-1.15-1.92-1.47Z"/>
      <path class="cls-27" d="M450.59,325.62c-.56-1.89-3.43-4.09-.87-5.48.84-.46.81-1.76,1.42-2.5.18-.21.36-.5.23-.75-4.89-.15-9.81,1.83-13.24,5.33-.25.25-.54.76-.49,1.11.84.03,1.72-.14,2.56-.12.15,0,.33.02.43.14.08.1.09.24.07.36-.08.54-.54.95-1.03,1.21-1.12.6-2.45.69-3.61,1.22-2.87,1.31-4.63,4.15-5.09,7.08-.14.87.09.71.16.53.37-1.01.65-1.57,1.05-2.27.46-.81,1.16-1.52,1.74-2.08,1.32-1.26,2.28-1.74,4.03-2.2,1.71-.45,3.46-.37,4.81-1.35,1.13-.82,1.56-1.54,1.94-3.33,1.64,1.43,3.72,2.87,4.75,4.95.46.93.87,1.94,1.05,2.96.17.98.17,2.06.12,3.05-.01.18.16.05.19-.05.27-1.2.29-2.34.29-3.56,0-1.44-.11-2.85-.51-4.24Z"/>
    </g>
  </g>
  <g id="Character">
    <path id="Gown" class="cls-43" d="M184.05,284.46c-9.82-4.58-62.15-4.82-84.78-1.61l12.1-123.7,68.1-1.85,4.58,127.15Z"/>
    <g id="Bottom">
      <path class="cls-18" d="M177.34,344.86c-.03,14.69-1.75,27.11-.38,36.46.11.78-6.63,4.26-12,3.34-5.37-.93-6.8-2.81-6.8-3.37,0-1.96-1.95-4.57-2.15-6.51-1.28-12.32-3.12-21.13-4.06-29.9l25.39-.02Z"/>
      <g>
        <path class="cls-29" d="M207.89,407.61c.36,0,.83,3.93-1.19,5.55-2.33,1.88-9.13,4.92-17.99,3.65-8.86-1.27-11.31-3.03-14.81-5.98-3.5-2.95-6.7-6.03-10.7-6.96-3.72-.86-9.37-2.41-10.55-3.55-1.17-1.14-.9-6.12-.9-6.12l56.13,13.41Z"/>
        <path class="cls-21" d="M155.62,372.67s-1.27.01-1.53,1.16c-.3,1.37-.68,5.36-1.32,7.6-.88,3.12-1.32,11.93-.88,14.49.44,2.56,8.12,4.27,11.98,5.78,3.94,1.54,6.78,3.57,10.75,6.86,4.11,3.41,10.51,6.06,16.3,6.11,6.86.07,14.62-1.96,16.45-5.01,2.27-3.78,2.67-7.44-7.4-12.18-1.91-.9-7.77-4.37-10.04-5.82-2.49-1.55-4.85-3.34-6.97-5.34-.89-.84-1.75-1.71-2.55-2.64-.65-.76-1.06-1.87-1.35-2.81-.56-1.83-.27-3.79-.54-5.68-.03-.17-.06-.35-.17-.49-.11-.14-.28-.21-.45-.27-1.62-.6-3.29-.41-4.98-.33-1.7.08-3.4.51-5.04,1.01-.89.27-1.82.63-2.33,1.39-.36.53-.47,1.19-.49,1.83-.02.64.02,1.28-.1,1.91-.04.23-.11.46-.28.62-.35.34-.9.05-1.19-.21-1.04-.94-1.8-2.14-2.67-3.24-.47-.59-2.62-.99-3.21-1.46-.54-.43-1.24-.64-1.72-1.12-.61-.61-.28-1.36-.3-2.16Z"/>
        <path class="cls-27" d="M174.62,408.56c-1.74-1.45-2.78-2.33-4.64-3.59h0s10.74,4.33,15.64,1.21c3.16-2.01,1.73-4.54,1.67-5.34-.06-.8,7.69-4.1,10.72-4.4h0c.83.47,1.53.84,1.97,1.05,10.07,4.74,9.67,8.4,7.4,12.18-1.83,3.06-7.47,5.37-16.33,5.22-5.79-.1-12.31-2.91-16.42-6.32Z"/>
        <path class="cls-29" d="M186.5,398.49c6.27,2.56,3.55,3.66,1.77,3.88-1.78.22-10.59-4.92-16.97-10.01-6.66-5.31-12.44-10.9-14.91-12.85-.92-.73-1.91-1.62-2.79-2.45.19-1.35.36-2.57.5-3.22.25-1.15,1.67-1.46,1.67-1.46l.25,2.4c.48.48,1.08.76,1.73,1,1.38.51,2.63,1.05,3.1,1.63.87,1.1,1.63,2.29,2.67,3.24,5.38,6.89,16.71,15.28,22.98,17.84Z"/>
        <g>
          <path class="cls-22" d="M187.84,401.45c-.14,0-.28-.05-.39-.14-.26-.22-.3-.6-.07-.86,1.83-2.09,7.03-4.81,11.67-4.24.34.04.59.35.54.68-.04.33-.32.56-.7.53-4.33-.53-9.11,2.16-10.56,3.82-.13.14-.31.22-.49.21Z"/>
          <path class="cls-22" d="M182.38,398.34c-.14,0-.28-.04-.4-.14-.27-.21-.31-.59-.09-.85,1.78-2.13,6.91-4.96,11.57-4.5.34.03.59.33.56.67-.04.33-.34.58-.69.54-4.35-.42-9.06,2.36-10.47,4.05-.12.15-.3.22-.48.23Z"/>
          <path class="cls-22" d="M177.35,394.82c-.14,0-.28-.05-.39-.14-.26-.22-.29-.6-.07-.86,1.83-2.09,7.03-4.81,11.67-4.23.34.04.59.35.54.68-.04.33-.34.57-.7.53-4.33-.53-9.11,2.16-10.56,3.82-.13.14-.31.22-.49.21Z"/>
          <path class="cls-22" d="M172.91,391.64c-.14,0-.28-.04-.4-.13-.27-.21-.32-.59-.11-.85,1.73-2.16,6.83-5.09,11.48-4.71.34.03.6.32.57.65-.03.33-.32.58-.68.56-4.35-.34-9.01,2.53-10.38,4.25-.12.15-.3.23-.48.23Z"/>
          <path class="cls-22" d="M168.14,387.89c-.14,0-.27-.04-.39-.12-.28-.2-.33-.58-.12-.85,2.4-3.05,7.9-5.15,12.56-4.75.34.03.6.32.57.66-.03.33-.32.57-.68.55-4.19-.36-9.33,1.56-11.46,4.27-.12.15-.3.24-.48.24Z"/>
        </g>
      </g>
      <g>
        <path class="cls-18" d="M97.17,349.77l26.93-1.24-6.2,32.9-2.13,8.76c-.88,5.94-14.93,7.53-18.33-1.67l-.03-9.54c-.1-7.39-.05-18.17-.24-29.2Z"/>
        <g>
          <path class="cls-29" d="M116.09,422.54c-.33,6.23-1.28,10.37-3.47,14.03-2.19,3.66-6.36,4.83-10.58,3.78-4.23-1.05-9.65-3.88-10.89-9.25-1.24-5.37-1.01-9.05-.08-14.83l25.02,6.27Z"/>
          <path class="cls-21" d="M97.41,378.97c-1.47.48-1.79,9.01-2.76,17.39-1.03,8.98-2.6,11.7-3.52,19.06-1.06,8.41-.45,11.22,2.52,16.29,2.97,5.07,13.43,10.01,18.53,2.7,4.16-5.96,4.16-11.6,3.73-19.99-.44-8.68-.36-13.42-.04-20.01.31-6.3,3.54-12.3,2.02-12.99.28.13-.91,4.36-1.01,4.73-.22.77-.44,1.66-.9,2.33-.81,1.18-1.22-.73-1.22-1.46,0-1.24.4-2.24-.57-3.27-.68-.71-1.72-1.12-2.61-1.48-1.02-.41-2.09-.7-3.17-.89-2.21-.39-4.47-.4-6.71-.34-.89.02-2.05.29-2.58,1.09-.13.2-.2.43-.25.66-.16.82-.07,1.67-.23,2.5-.05.23-.14.83-.35.97-.08.05-.58.08-.6-.08,0-.07-.43-5.76-.28-7.22Z"/>
          <path class="cls-27" d="M91.47,412.54c-.16,1.21-.96,8.79,1.23,10.23,2.38,1.55,3.64-4.77,3.64-4.77,0,0,5.54-1.73,13.64,1.77-.41,1.3.86,5.6,3.07,4.68,2.2-.91,2.88-9.18,2.89-9.3.38,8.05.27,13.48-3.77,19.27-5.1,7.31-15.56,2.37-18.53-2.7-2.97-5.07-3.58-7.88-2.52-16.29.11-.84.19-2.12.34-2.88Z"/>
          <path class="cls-29" d="M96.98,418.54c-.02,3.04-2.74,2.01-3.18-2.26-.66-6.4.91-12.53.85-19.92.96-8.38,1.02-17.24,2.76-17.39-.06,1.46.28,7.22.28,7.22-.51,6.27-2.12,13.6-1.83,20.06.25,5.69,1.15,9.25,1.13,12.29Z"/>
          <path class="cls-29" d="M109.05,419.7c.56-2.99,1.52-3.84,2.1-9.51.57-5.62,3.64-15.82,4.8-21.95.31-1.9,1.94-6.75,1.95-6.81,1.09.52.08,4.04-.76,7.83-.84,3.79-1.4,6.12-1.93,9.76-1.46,7.24-1.64,14.93-2.6,19.11-.96,4.19-4.12,4.55-3.56,1.56Z"/>
          <g>
            <path class="cls-22" d="M109.74,419.84c-.08,0-.16-.03-.24-.07-.06-.03-6.39-3.23-13.41-1.32-.35.09-.7-.11-.79-.45-.09-.34.11-.7.45-.79,7.51-2.04,14.06,1.28,14.34,1.42.32.16.44.55.28.87-.12.24-.38.37-.63.35Z"/>
            <path class="cls-22" d="M111.46,413.79c-.07,0-.14-.03-.21-.06-.07-.03-7.82-3.55-15.65-1.7-.35.08-.69-.13-.78-.48-.08-.35.13-.7.48-.78,8.28-1.95,16.19,1.64,16.5,1.78.32.15.46.54.31.86-.12.25-.38.39-.65.37Z"/>
            <path class="cls-22" d="M94.68,407.11c-.24-.02-.46-.19-.55-.43-.11-.34.06-.71.4-.82,7.79-2.68,18.06.92,18.39,1.09.32.16.44.55.28.87-.16.32-.56.43-.87.28-.07-.04-10.13-3.52-17.37-1.01-.09.03-.18.04-.27.03Z"/>
            <path class="cls-22" d="M95.92,401.65c-.24-.02-.46-.18-.54-.42-.12-.34.05-.71.38-.83,8.56-3.12,17.4,1.54,17.71,1.72.31.18.4.58.22.89-.18.31-.59.41-.88.22-.07-.04-8.63-4.51-16.6-1.62-.09.03-.19.05-.28.04Z"/>
            <path class="cls-37" d="M96.41,395.01c-.24-.02-.45-.18-.54-.41-.13-.33.04-.71.37-.83,8.03-3.05,17.49,1.71,17.82,1.9.31.17.42.57.24.88-.17.31-.57.42-.88.24-.08-.04-9.27-4.65-16.72-1.82-.1.04-.2.05-.29.04Z"/>
          </g>
        </g>
      </g>
      <path class="cls-14" d="M142.62,262.63l4.17,32.23s-.37,11.04.16,21.69c.53,10.65,5.11,35.99,7.44,47.29,12.11,7.16,23.31.21,23.31.21,0,0,2.32-56.33,3.27-71.28.95-14.95-.38-75.56-1.11-99.26l-74.93.23s-1.33,12.91-2.62,31.95c-1.29,19.04-3.02,69.92-3.02,69.92-6.86,23.04-4.38,34-2.55,73.2,11.07,7.75,24.3,1.2,24.3,1.2,0,0,6.61-33.17,10.45-50.17,3.88-17.15,6.85-38.66,11.12-57.22"/>
      <path class="cls-24" d="M169.53,230.5l2.09,29.06c.13,4.64,1.16,14.8,1.24,19.44.08,4.63.44,11.04.39,19.12-.05,8.08-.11,31.14.26,40.45,1.38-10.32,1.52-33.52,1.52-45.62s-.85-20.03-2.09-33.52c-1.24-13.49-2.24-19.71-3.42-28.94Z"/>
      <path class="cls-24" d="M129.83,229.97c-2.7,18.42-6.66,51.27-8.02,61.81-1.41,10.53-6.79,44.63-7.81,55.26,1.86-10.52,8.48-44.37,9.95-54.99,1.33-10.63,4.93-41.91,5.88-62.08Z"/>
      <path class="cls-24" d="M148.41,229.08l-5.79,33.55,4.17,32.23-1.03-30.88,6.76-31.56s12.7-3.76,16.01-16.68c-6.47,10.39-20.12,13.34-20.12,13.34Z"/>
    </g>
    <g id="Top">
      <g id="Arm">
        <path class="cls-18" d="M226.95,110.82c-3.29,4.9-15.28,19.72-15.28,19.72,0,0-17.39-12.14-20.94-14.91-10.12-7.91-13.38-10.13-19.2-11.71l-2.87,31.85c9.99,4.37,27.97,15.15,37.99,18.87,7.15,2.66,11.47,1.13,14.81-2.47,6.99-7.53,19.42-35.16,19.42-35.16l-13.92-6.2Z"/>
        <path class="cls-43" d="M171.06,103.2c5.68,1.27,8.13,3.08,12.15,6.14,4.62,3.51,28.58,20.76,28.58,20.76l5.84-7.26s.9,4.87,6.74,8.67c3.59,2.34,8.12,2.77,8.12,2.77,0,0-4.01,8.59-7.22,14.54-2.23,4.13-5.69,8.76-9.46,9.13-3.77.37-6.59-.65-18.53-6.66-13.54-6.82-29.05-15.05-29.05-15.05l2.83-33.04Z"/>
        <path class="cls-36" d="M211.8,130.1c-3.04,3.91-4.65,8.12-5.04,11.74-.51-3.74.59-9.06,3.46-12.95l1.58,1.21Z"/>
        <g>
          <path class="cls-18" d="M223.26,115.83c4.3-5.88,6.62-10.39,5.2-15.77-1.42-5.38-2.9-7.93-2.79-9.26.11-1.32,2.86-7.57,3.35-10.39.49-2.82,1.72-2.91,3.64-4.39,2.32-1.79,12.12-7.05,12.42-6.26,0,0,1.61,2.75-.86,5.33-1.59,1.66-6.81,4.76-6.81,4.76,0,0,2.4,1.71,3.53,2.41,1.13.7,1.16,1.5.72,4.86,0,0,1.58.24,2.08,1.29.5,1.05.39,2.34.31,3.4,0,0,1.02.18,1.69,1.03.68.84.52,3.61.05,6.04.49,2.93.95,5.6.75,8.5-.21,2.96-1.66,4.5-3.3,6.22-1.1,1.16-3.67,6.09-4.7,7.98,0,0-19.2-.39-15.27-5.76Z"/>
          <path class="cls-31" d="M228.97,91.05c1.53-2,2.42-3.98,2.45-6.24.03-2.26-.09-4.77.6-4.98,1.16-.35,3.99,1.33,4.27,5.02.27,3.52-.29,7.86-.15,8.87.14,1.01,1.58,3.09,2.75,4.66,1.17,1.58,2.92,6.1-.4,10.97,0,0,2.42-1.69,3.06-5.84.64-4.15-2.59-7.31-3.52-8.98-.93-1.67-1.11-2.01-.82-5.38.29-3.36.63-6.99-2.55-9.37-3.18-2.37-3.89-.64-4.04.47-.15,1.11.82,7.7-1.66,10.81Z"/>
          <path class="cls-31" d="M237.4,79.85l-1.89,1.65.85.38s1.02-1.2,3.08-.61l-2.04-1.42Z"/>
          <path class="cls-31" d="M241.65,87.12c-.11,1.11-.65,4.54-.75,5.23-.1.69-1.35.81-2.36-.19-1.01-1-1.39-1.78-1.55-3.02,0,0-.15,2.07,1.1,3.4,1.25,1.33,2.42,1.24,3.05.85.63-.39.26-3.89.5-6.27Z"/>
          <path class="cls-31" d="M244.04,91.81c-.07.83-.36,1.96-.59,4.27-.14,1.33-.18,2.19-.95,2.29-.78.1-2.49-1.14-2.7-2.67-.21-1.53-.07-2.66-.07-2.66l-.66-.1s-.35,2.46.44,4.16c.78,1.69,2.86,2.63,3.51,1.97.65-.66.7-1.42.82-3.33.12-1.92.21-3.91.21-3.91Z"/>
          <path class="cls-31" d="M243.11,98.39c.01.55.59,1.64,1.46,1.44.86-.19,1.23-.96,1.23-.96,0,0-.08,1.2-1.21,1.44-1.04.22-1.81-.71-2.21-1.56l.74-.37Z"/>
        </g>
      </g>
      <path class="cls-13" d="M106.02,116.9s-3.98,3.81-4.03,14.74c-.02,4.33.14,14.78,3.25,34.75,2.83,18.1,2.91,26.21,3.59,39l-5.41,46.96c9.03,15.15,56.11,20.58,76.61-1.14,0,0-2.62-82.76-4.36-109.12-1.18-17.9-7.19-31.85-11.38-37.19-5.65-1.23-7.53-1.43-11.13-2.09l-21.12-3.06-26.02,17.15Z"/>
      <path id="Hair" class="cls-29" d="M126.34,89.53c-3.74-6.98-7.14-11.74-10.09-18.29-4.85-10.76-3.47-16.53-2.48-18.5.68-1.36,1.65-2.6,2.87-3.51.22-.17,3.18-1.97,3.22-1.29-.29-5.47,4.59-9.89,9.01-12.22,6.51-3.44,13.97-3.41,21.09-2.42,5.77.8,11.78,2.15,17.52.47-.58,3.29-3.44,5.62-6.11,7.64,1.88,1.08,4.39,1.09,5.84,2.7.92,1.02,1.18,2.59.64,3.85-.54,1.26-1.85,2.15-3.23,2.19.71.67,1.42,1.35,1.93,2.18,1.07,1.72,1.13,3.98.35,5.85-.78,1.87-2.32,3.37-4.12,4.3-.91.47-1.94.84-2.59,1.64-.45.56-.66,1.27-.89,1.95-1.46,4.34-4.2,9.17-7.88,11.98-4.6,3.52-9.91,6.4-14.95,9.23-2.34,1.32-10.08,2.35-10.14,2.24Z"/>
      <g>
        <path class="cls-18" d="M159.71,49.76c2.19,2.77,3.5,6.47,3.68,9.66.13,2.18.25,4.18.81,6.29.54,2.06,1.13,4.06,1.25,6.21.84,15.92-2.74,20.04-6.95,22.15-2.51,1.26-4.03,1.43-8.13,1.6l.2,7.19c2.39,3.69,1.56,10.5-.09,15.13-.31.88-1.04,1.06-1.94.01-5.7-6.68-21.8-15.49-21.8-15.49,0,0-.68-22.23-.68-22.23-1.68,2.29-5.43,2.94-8.77-.17-3.66-3.4-5.21-8.75-2.53-12.26,2.67-3.51,7.81-2.34,9.76.54,1.95,2.89,6.36,1.82,4.8-2.64.04.11,1.7-1.32,1.82-1.46.7-.89,1.04-1.99,1.17-3.11.43-3.66-1.47-1.84-2.05-5.39-.34-2.11-.16-4.44,1.15-6.14.44-.57,1.01-1.06,1.7-1.24.61-.16,1.26-.06,1.88.08,4.14.92,7.96,3.55,12.2,3.36,1.69-.08,3.33-1.42,3.97-2.95.35-.83.49-1.81,1.15-2.43.68-.64,1.76-.7,2.63-.38,1.88.69,3.49,2.01,4.79,3.66Z"/>
        <path class="cls-29" d="M160.71,59.68l-5.27-.85c.18-1.47,1.51-2.48,2.96-2.24,1.45.24,2.49,1.62,2.3,3.1Z"/>
        <path class="cls-29" d="M137.87,61.9l4.93-2.04c-.51-1.39-2.04-2.07-3.4-1.51-1.36.56-2.05,2.15-1.53,3.54Z"/>
        <g>
          <path class="cls-20" d="M143.25,79.76l7.53,2.09c-.5,2.12-2.6,3.36-4.68,2.79-2.08-.58-3.36-2.76-2.85-4.88Z"/>
          <path class="cls-41" d="M147.81,84.7c-.14-1.91-1.79-3.35-3.71-3.23-.29.02-.57.08-.84.17.33,1.4,1.38,2.6,2.83,3,.58.16,1.16.17,1.72.06Z"/>
        </g>
        <polygon class="cls-31" points="148.99 63.15 150.95 77.28 157.91 74.93 148.99 63.15"/>
        <path class="cls-31" d="M150.37,95.66c-7.7.29-18.86-4.55-21.87-11.19,0,0-.62,5.16,7.56,10.62,6.25,4.16,14.37,3.54,14.37,3.54l-.06-2.97Z"/>
        <g>
          <path class="cls-29" d="M144.97,66.92c-.03,1.25-1.07,2.24-2.32,2.21-1.25-.03-2.24-1.07-2.21-2.32.03-1.25,1.07-2.24,2.32-2.21,1.25.03,2.24,1.07,2.21,2.32Z"/>
          <path class="cls-29" d="M160.5,65.39c-.2,1.23-1.36,2.07-2.59,1.87-1.23-.2-2.07-1.36-1.87-2.59.2-1.23,1.36-2.07,2.59-1.87,1.23.2,2.07,1.36,1.87,2.59Z"/>
        </g>
      </g>
      <g id="Tie">
        <g>
          <path class="cls-13" d="M148.54,118c-.12,0-.45.05-.58.07-1.32-1.48-3.48-3.26-4.13-3.57-.97-.47-4.82,6.47-5.54,8.28-.73,1.79-.58,1.78-3.07.25-4.82-2.99-8.81-7.09-11.38-10.27-3.99-4.92-5.3-9.18-5.3-9.18,0,0,3.28-3.35,4.05-4.84,1.48-2.88,2.3-4.58,3.91-4.39l.1,2.01c.36,2.46,3.03,5.09,6.57,7.95,3.55,2.88,9.21,5.51,10.57,6.74.99.89,3.53,4.83,4.8,6.97Z"/>
          <path class="cls-13" d="M160.05,117.86c-.36,1.01-3.81-6.75-5.38-6.53-.76.09-2.61,4.37-3.95,6.67,0,0-.09-.01-.25-.01.24-3.03.53-5.61.51-7.21-.04-2.92-.63-7.89-.63-7.89v-6.48c.54.04,1.16.08,1.6.11.41.39.75.75,1.17,1.4,1.62,2.46,5.81,8.14,6.41,11.13.97,4.79.66,8.43.52,8.81Z"/>
        </g>
      </g>
      <g>
        <path class="cls-22" d="M126.62,97.3l-.1,1.92s-.04,7.67,1.25,16.5c1.65,11.22,9.8,25.29,9.89,36.26.08,10.97-6.16,141.1-6.16,141.1,0,0-21.88-1.4-38.31-17.37,0-23.42,4.61-59.06,6.08-81.74.68-10.57.28-28.58-1.05-45.33-1.53-19.2,6.84-41.43,6.84-41.43,0,0,6.07-2.88,11.5-5.54,6.87-3.37,10.07-4.36,10.07-4.36Z"/>
        <path class="cls-43" d="M126.47,94c-2.5,0-4.15,2.76-9.91,7.67-1.12,7.73-.6,22.98.37,28.82.75,4.54,10.73,10.78,10.73,10.78l-6.93,12.26s15.81,22.79,15.6,34.81c0,0,3.01-28.71,1.55-41.53-1.46-12.82-11.18-27.16-11.18-45.98,0-3.18-.22-6.83-.22-6.83Z"/>
      </g>
      <g>
        <path class="cls-22" d="M150.37,96.52v4.41s6.21,4.09,9.5,13.1c3.29,9.01,7.25,23.72,8.11,47.52,1.75,48.27,1.9,129.85,1.9,129.85,0,0,10.98-1.33,17.07-6.56,0,0-1.05-66.21-1.9-92.65-1.02-31.54-3.06-55.23-5.11-68.05-2.25-14.03-5.33-18.2-8.86-20.95-5.24-.71-13.09-3-20.7-6.68Z"/>
        <path class="cls-43" d="M150.37,95.66v5.71s3.95,2.81,6.32,7.4c2.37,4.59,5.33,9.15,7.77,23.32,2.44,14.18,3.63,38.28,4.16,47.52,1.24-3.84,6.21-33.14,6.49-35.77.27-2.63-6.21-10.93-6.21-10.93,0,0,2.67-6.58,1.61-9.55-1.06-2.98-7.36-15.1-11.1-20.46-2.3-3.29-4.9-6.45-6.34-7.39-1.46.12-2.7.15-2.7.15Z"/>
      </g>
      <g>
        <g>
          <path class="cls-42" d="M134.34,110.1l.77-.88c-7.85-6.84-13.63-17.56-14.23-18.94,0,0-1.46-4.14-.24-10.95l-1.15-.21c-1.28,7.15.24,11.42.3,11.59.74,1.71,6.52,12.39,14.55,19.39Z"/>
          <path class="cls-42" d="M150.35,96.41c0,.32,0,.66,0,1.05.19.36.4.75.62,1.17.29-.25.71-.44,1.07-.49-.34-.67-.62-1.16-.91-1.68,0,0-.48-.03-.78-.06Z"/>
          <path class="cls-32" d="M119.43,75.69h0c.43-.87,1.3-1.49,2.34-1.51,1.48-.03,2.71,1.14,2.74,2.62.03,1.35-.95,2.48-2.24,2.7h0s-1.04-.03-1.38,1.55c-.33,1.57-.31,1.96-.3,2.95-.46.28-1.6.18-1.88-.41-.42-2.07-.08-6.55.71-7.9Z"/>
          <path class="cls-28" d="M190.94,146.26c7.98,0,16.06-2.21,23.55-6.53,17.78-10.25,23.88-34.19,24.05-44.18l-2.09-.03c-.16,9.6-6,32.59-23,42.4-10.54,6.08-22.31,7.79-33.13,4.82-10.64-2.92-19.42-10.06-25.37-20.66l-1.83,1.03c6.24,11.09,15.45,18.58,26.64,21.65,3.65,1,7.41,1.5,11.18,1.5Z"/>
          <path class="cls-28" d="M127.52,103.73c3.67,4.65,9.54,10.13,9.8,10.36,2.41,1.95,8.97,7.08,13.57,8.97,1.09.44,2.07.71,2.85.71.28,0,.55-.04.78-.11.81-.27,3.25-1.05,2.51-14.77-.13-2.41-3.61-9.2-4.31-10.54-.12-.2-.39-.26-.68-.22-.36.05-.78.25-1.07.49-.29.26-.46.55-.32.81,1.52,2.92,3.96,8.11,4.04,9.59.37,7-.2,11.82-.97,12.44-.49.16-1.62-.25-3.12-1.04-3.08-1.61-7.76-4.86-11.76-8.11,0,0-5.93-5.54-9.5-10.05-.64-.64-2.28.86-1.83,1.45Z"/>
        </g>
        <g>
          <g>
            <path class="cls-40" d="M232.59,88.99c-.32-2.39.76-5.37,2.42-6.65.75-.58,1.49-.71,2.1-.46.16.07,2.62,1.08,2.78,1.15.74.31,1.3,1.17,1.47,2.47.32,2.39-.76,5.37-2.42,6.65-.75.58-1.49.71-2.1.46-.16-.07-2.62-1.08-2.78-1.15-.74-.31-1.3-1.17-1.47-2.48Z"/>
            <path class="cls-40" d="M235.37,90.14c.32,2.39,1.92,3.3,3.58,2.02,1.66-1.28,2.74-4.25,2.42-6.65-.32-2.39-1.92-3.3-3.58-2.02-1.66,1.28-2.74,4.25-2.42,6.65Z"/>
          </g>
          <g>
            <path class="cls-32" d="M234.58,92.1c-.59-4.38,1.39-9.83,4.42-12.17,1.37-1.06,2.73-1.3,3.85-.83.3.12,1.48.6,1.78.73,1.35.56,2.37,2.14,2.69,4.53.59,4.38-1.39,9.83-4.42,12.17-1.37,1.06-2.73,1.3-3.85.84-.3-.12-1.48-.6-1.77-.73-1.36-.56-2.38-2.14-2.7-4.53Z"/>
            <path class="cls-42" d="M236.35,92.83c.59,4.38,3.52,6.04,6.56,3.7,3.03-2.34,5.01-7.79,4.42-12.17-.59-4.38-3.52-6.04-6.56-3.7-3.03,2.34-5.01,7.79-4.43,12.17Z"/>
          </g>
          <path class="cls-26" d="M237.57,91.89c.46,3.41,2.74,4.7,5.1,2.88,2.36-1.82,3.9-6.06,3.44-9.47-.46-3.41-2.74-4.7-5.1-2.88-2.36,1.82-3.9,6.06-3.44,9.47Z"/>
        </g>
        <path class="cls-18" d="M231.07,84.14c.25-2.25.1-4.75,1.08-4.9,1.2-.18,3.84,1.7,3.76,5.4-.07,3.53-1.11,7.8-1.06,8.82l-6.83-3.34c1.71-1.85,2.8-3.72,3.05-5.98Z"/>
      </g>
      <g id="Arm-2" data-name="Arm">
        <path class="cls-31" d="M146.92,143.07c4.27-3.18,6.41-4.41,8.4-4.97,1.99-.56,8.97-3.47,11.64-4.13,1.7-.42,2.38,2.28.22,4.13-1.66,1.43-5.99,3.3-7.89,4.34-1.9,1.04-5.62,5.56-5.62,5.56l-6.76-4.93Z"/>
        <path class="cls-18" d="M86.63,124.98c4.23-9.01,8.19-9.53,18.42-13.72,4.99,6.71,1.05,29.91,1.05,29.91l-5.01,25.77s26.12-6.85,29.01-8.69c2.89-1.84,10.63-10.17,13.22-12.66,3.53-3.39,5.29-2.94,7.08-2.67,5.88.88,7.17,1.38,8.42,2.17,1.25.79,1.14,2.29,1.14,2.29,1.56.2,3.9.15,4.2,2.71.2,1.69.09,2.06.09,2.06,0,0,.56.06,1.02.58,1.3,1.51-.93,6.72-2.35,7.99-.99.89-2.41,1-4.27.75-1.58-.21-.85-1.82-.85-1.82l-2.21.13c-4.78,3.4-5.03,10.13-11.35,11.61-1.33.31-4.08.27-7.72,1.5-13.62,4.57-35.93,18.44-48.07,19.48-11.84,1.02-11.5-5.29-11.69-12.54-.16-6.47,5.64-45.85,9.86-54.84Z"/>
        <path class="cls-43" d="M105.06,107.21c-12.65,4.52-16,5.82-19.87,13.69-3.87,7.87-5.94,22.28-7.74,30.17-1.81,7.89-4,30.34-4,33.96s2.06,9.29,8.9,9.55c6.84.26,16.13-3.1,27.1-7.87,10.97-4.77,16.26-7.4,16.26-7.4,0,0-2.88-14.92.95-20.54l-24.56,6.78,5.42-26.49s3.81-23.84-2.45-31.84Z"/>
        <path class="cls-36" d="M102.66,162.73l-.57,2.81c-5.63,1.45-11.71,5.5-13.06,8.58,1.05-4.88,3.72-8.74,13.63-11.39Z"/>
        <g>
          <path class="cls-31" d="M159.97,147.38l-6.98-1.41,6.84.44c.11.33.16.65.15.97Z"/>
          <path class="cls-31" d="M164.26,152.14l-8.04-1.04,8.05.11c.03.29.03.6,0,.93Z"/>
          <path class="cls-31" d="M162.03,156.43c-.35.13-.71.23-1.07.31-.86.15-2.8.19-2.8.19,0,0-.06.57-1,1.55-.5.52-1.56,1.3-1.56,1.3l2.21-.13s.51-.89,2.28-1.31c.35-.07.75.01,1.08.2.33.21.61.51.82.88-.13-.39-.35-.78-.7-1.05-.24-.18-.53-.29-.83-.32l.46-.99c.42-.1.83-.22,1.21-.42.43-.21.84-.53,1.08-.94-.32.36-.75.57-1.17.74Z"/>
        </g>
      </g>
    </g>
  </g>
  <g id="Pill_Bottle" data-name="Pill Bottle">
    <g>
      <path class="cls-16" d="M249.51,359.15c0-5.67,3.75-11.34,11.24-15.67,14.99-8.66,39.3-8.66,54.29,0,7.5,4.33,11.24,10,11.24,15.67h0v65.26h0c0,5.67-3.75,11.34-11.24,15.67-14.99,8.66-39.3,8.66-54.29,0-7.5-4.33-11.24-10-11.24-15.67h0v-65.26Z"/>
      <path class="cls-36" d="M250.18,355.06c1.99-2.82,4.96-5.47,8.93-7.76,14.8-8.54,38.14-9.12,54.12-1.77v-3c.61.31,1.23.61,1.81.95,7.5,4.33,11.24,10,11.24,15.67v15s0,0,0,0v28.77s0,0,0,0v21.49c0,5.67-3.75,11.34-11.24,15.67-14.99,8.66-39.3,8.66-54.29,0-2.81-1.62-5.09-3.43-6.84-5.36,7.14,6.67,24.91,10.34,38.12,7.74,13.2-2.6,21.2-11.02,21.2-17.01v-5.82c-7.4,4.01-17.09,5.92-26.56,5.92v-29.25c9.47,0,19.15-1.47,26.56-5.45v-8.55c-15.99,7.36-39.33,6.77-54.12-1.77-4.47-2.58-7.64-5.62-9.6-8.86v-12.54c0-1.37.23-2.74.67-4.09Z"/>
      <path class="cls-36" d="M319.81,427.16v-80.33c4.31,3.72,6.48,8.02,6.48,12.32v65.26c0,5.67-3.75,11.34-11.24,15.67-4.25,2.45-9.26,4.19-14.58,5.25,14.43-3.91,19.34-13.76,19.34-18.17Z"/>
      <path class="cls-36" d="M312.84,438.34c-13.77,6.92-36.1,6.92-49.87,0-13.77-6.92-13.77-18.14,0-25.06,13.77-6.92,36.1-6.92,49.87,0,13.77,6.92,13.77,18.14,0,25.06Z"/>
    </g>
    <path class="cls-2" d="M254.66,348.11v87.35c1.65,1.65,3.65,3.22,6.1,4.63,1.12.65,2.3,1.23,3.52,1.78v-100.16c-1.21.55-2.4,1.13-3.51,1.78-2.45,1.41-4.45,2.98-6.1,4.63ZM268.81,339.95v103.67c1.79.59,3.63,1.1,5.52,1.51v-106.7c-1.9.41-3.74.92-5.52,1.51Z"/>
    <path class="cls-6" d="M326.29,376.05c0,5.67-3.75,11.34-11.24,15.67-7.5,4.33-17.32,6.49-27.15,6.49v28.77c9.83,0,19.65-2.16,27.15-6.49,7.5-4.33,11.24-10,11.24-15.67v-28.77Z"/>
    <g>
      <path class="cls-43" d="M247.19,341.62c0-6.02,3.98-12.03,11.93-16.62,15.9-9.18,41.68-9.18,57.58,0,7.95,4.59,11.93,10.61,11.93,16.62h0v18.05h0c0,6.02-3.98,12.03-11.93,16.62-15.9,9.18-41.68,9.18-57.58,0-7.95-4.59-11.93-10.61-11.93-16.62h0v-18.05h0Z"/>
      <g>
        <path class="cls-36" d="M278.16,382.47c20.15.11,30.78-6.43,34.01-11.77,2.45-4.06,2.88-11.56,2.88-18.99,0,0,2.27-16.92,1.83-16.98-.27-.03,4.83-1.14,8.75-1.97,1.99,2.83,2.99,5.85,2.99,8.86h0v18.05h0c0,6.02-3.98,12.03-11.93,16.62-10.45,6.03-25.16,8.08-38.54,6.18Z"/>
        <g class="cls-36">
          <path d="M309.28,379.67c.66-.24,1.31-.48,1.95-.74v-23.33h-1.95v24.07Z"/>
          <path d="M300.9,381.95c.66-.13,1.31-.26,1.95-.41v-23.53h-1.95v23.94Z"/>
          <path d="M324.85,369.56v-22.89h-1.95v25.02c.72-.69,1.37-1.41,1.95-2.13Z"/>
          <path d="M291.96,383.06c.65-.04,1.3-.08,1.95-.14v-23.71h-1.95v23.85Z"/>
          <path d="M318.82,374.96v-23.09h-1.95v24.32c.68-.4,1.33-.81,1.95-1.23Z"/>
          <path d="M327.64,364.77c.64-1.68.98-3.39.98-5.1h0v-18.05h0c0-1.12-.14-2.23-.41-3.34h-.57v26.49Z"/>
          <path d="M273.78,381.72c.65.14,1.3.27,1.95.38v-23.95h-1.95v23.56Z"/>
          <path d="M247.19,359.67c0,1.71.33,3.42.98,5.1v-24.82h-.86c-.07.56-.11,1.11-.11,1.67v18.05Z"/>
          <path d="M250.7,369.23c.58.75,1.23,1.49,1.95,2.22v-23.92h-1.95v21.7Z"/>
          <path d="M257.5,375.3c.52.34,1.05.67,1.61.99.11.06.23.12.34.19v-23.73h-1.95v22.56Z"/>
          <path d="M265.25,379.2c.64.25,1.29.49,1.95.72v-23.93h-1.95v23.22Z"/>
          <path d="M282.8,382.99c.65.05,1.3.09,1.95.11v-23.86h-1.95v23.74Z"/>
        </g>
      </g>
      <path class="cls-37" d="M316.69,358.24c-15.9,9.18-41.68,9.18-57.58,0-15.9-9.18-15.9-24.07,0-33.25,15.9-9.18,41.68-9.18,57.58,0,15.9,9.18,15.9,24.07,0,33.25Z"/>
      <path class="cls-39" d="M256.92,356.84c-13.64-9.24-12.94-23.12,2.19-31.85,7.75-4.48,17.85-6.75,28.01-6.86,5.44.92,10.57,2.61,14.86,5.06,13.75,7.86,13.75,23.55,0,31.41-12.27,7.01-31.32,7.75-45.05,2.24Z"/>
      <path class="cls-6" d="M325.51,350.64s-13.24,13.33-38.83,12.64c-25.58-.7-35.81-14.67-37.16-19-1.35-4.33-.49-9.97,3.45-14.74-3.43,3.22-5.74,7.45-5.78,12.08v18.05c0,1.52-.79,6.77,7.47,13.57,0,0-4.84-5.5-4.84-10.8v-12.47s9.05,15.14,36.86,15.14,37.43-12.2,38.83-14.47Z"/>
    </g>
  </g>
  <g id="Pills">
    <g>
      <path class="cls-19" d="M205.05,455.46c1.2-.69,1.94-2.17,1.94-4.28,0-4.22-2.96-9.34-6.61-11.45-1.83-1.05-3.48-1.15-4.68-.46l-10.65,6.15c-4.48,2.59-6.01,8.31-3.43,12.79,2.59,4.48,8.31,6.01,12.79,3.43l10.64-6.17Z"/>
      <path class="cls-23" d="M219.12,447.36c4.48-2.59,6.01-8.31,3.43-12.79-2.59-4.48-8.31-6.01-12.79-3.43l-14.06,8.12c1.2-.69,2.85-.59,4.68.46,3.65,2.11,6.61,7.24,6.61,11.45,0,2.11-.74,3.59-1.94,4.28l14.07-8.09Z"/>
      <path class="cls-10" d="M217.01,433.63c.99,1.71.4,3.91-1.31,4.9l-16.5,9.53c-1.2-2.08-1.94-4.42-1.94-6.53,0-.22.01-.43.03-.64l14.83-8.56c1.71-.99,3.91-.4,4.9,1.31Z"/>
      <path class="cls-19" d="M205.05,455.46c1.2-.69,1.94-2.17,1.94-4.28,0-4.22-2.96-9.34-6.61-11.45-1.83-1.05-3.48-1.15-4.68-.46l-10.65,6.15c-4.48,2.59-6.01,8.31-3.43,12.79,2.59,4.48,8.31,6.01,12.79,3.43l10.64-6.17Z"/>
      <path class="cls-36" d="M200.37,439.72c3.65,2.11,6.61,7.24,6.61,11.45,0,2.11-.74,3.59-1.94,4.28l.67-.39.51-.29c1.2-.69,1.94-2.17,1.94-4.28,0-4.22-2.96-9.34-6.61-11.45-1.83-1.05-3.48-1.15-4.68-.46l-1.17.68c1.2-.69,2.85-.59,4.68.46Z"/>
      <path class="cls-30" d="M180.43,452.53h0c-.2,1.9.16,3.89,1.19,5.67,2.59,4.48,8.31,6.01,12.79,3.43l10.64-6.17c1.2-.69,1.94-2.17,1.94-4.28,0-.92-.15-1.89-.41-2.86-4.96,2.86-13.18,7.61-16.35,9.44-4.67,2.69-9.75-2.16-9.8-5.22Z"/>
      <path class="cls-6" d="M183.66,452.89c.99,1.71,3.18,2.3,4.9,1.31l16.5-9.53c-1.2-2.08-2.85-3.89-4.68-4.95-.19-.11-.38-.21-.57-.3l-14.83,8.56c-1.71.99-2.3,3.18-1.31,4.9Z"/>
      <path class="cls-36" d="M221.89,433.6c-.11-.14-.22-.28-.34-.42-.08-.1-.17-.19-.25-.29-.1-.1-.2-.2-.3-.3-.11-.1-.21-.21-.32-.31-.06-.05-.11-.1-.17-.14-.5-.42-1.04-.79-1.61-1.1-.02,0-.03-.02-.05-.03-.21-.11-.41-.21-.63-.31h0c2.63,1.58,4.29,8.4-.38,11.1-1.6.92-6.34,3.66-11.28,6.51.26.97.41,1.94.41,2.86,0,2.11-.74,3.59-1.94,4.28l14.07-8.09c4.48-2.59,6.01-8.31,3.43-12.79-.15-.25-.31-.5-.47-.73-.06-.08-.12-.16-.18-.24Z"/>
    </g>
    <g>
      <path class="cls-19" d="M219.21,450.07c-.87-1.07-1.03-2.72-.27-4.69,1.51-3.94,6.12-7.66,10.28-8.32,2.08-.33,3.66.17,4.53,1.25l7.73,9.56c3.25,4.02,2.63,9.92-1.39,13.17-4.02,3.25-9.92,2.63-13.17-1.39l-7.71-9.58Z"/>
      <path class="cls-23" d="M208.99,437.47c-3.25-4.02-2.63-9.92,1.39-13.17,4.02-3.25,9.92-2.63,13.17,1.39l10.21,12.62c-.87-1.07-2.45-1.57-4.53-1.25-4.17.66-8.77,4.38-10.28,8.32-.76,1.97-.6,3.62.27,4.69l-10.23-12.6Z"/>
      <path class="cls-10" d="M215.88,425.4c-1.54,1.24-1.78,3.5-.53,5.04l11.98,14.82c1.87-1.51,3.4-3.42,4.16-5.39.08-.21.14-.41.2-.61l-10.77-13.32c-1.24-1.54-3.5-1.78-5.04-.53Z"/>
      <path class="cls-19" d="M219.21,450.07c-.87-1.07-1.03-2.72-.27-4.69,1.51-3.94,6.12-7.66,10.28-8.32,2.08-.33,3.66.17,4.53,1.25l7.73,9.56c3.25,4.02,2.63,9.92-1.39,13.17-4.02,3.25-9.92,2.63-13.17-1.39l-7.71-9.58Z"/>
      <path class="cls-36" d="M229.22,437.07c-4.17.66-8.77,4.38-10.28,8.32-.76,1.97-.6,3.62.27,4.69l-.49-.6-.37-.46c-.87-1.07-1.03-2.72-.27-4.69,1.51-3.94,6.12-7.66,10.28-8.32,2.08-.33,3.66.17,4.53,1.25l.85,1.06c-.87-1.07-2.45-1.57-4.53-1.25Z"/>
      <path class="cls-30" d="M243.24,456.18h0c-.49,1.85-1.55,3.57-3.15,4.87-4.02,3.25-9.92,2.63-13.17-1.39l-7.71-9.58c-.87-1.07-1.03-2.72-.27-4.69.33-.86.82-1.71,1.41-2.53,3.6,4.45,9.57,11.83,11.87,14.68,3.39,4.19,9.87,1.49,11.02-1.36Z"/>
      <path class="cls-6" d="M240.1,455.35c-1.54,1.24-3.8,1.01-5.04-.53l-11.98-14.82c1.86-1.51,4.06-2.61,6.15-2.94.22-.03.43-.06.64-.07l10.77,13.32c1.24,1.54,1.01,3.8-.53,5.04Z"/>
      <path class="cls-36" d="M211.34,423.63c.15-.09.31-.19.46-.27.11-.06.23-.12.34-.18.13-.06.26-.12.39-.18.14-.06.27-.12.41-.17.07-.03.14-.05.21-.07.62-.22,1.25-.37,1.89-.45.02,0,.04,0,.05,0,.23-.03.46-.05.7-.06h0c-3.02.53-7.02,6.31-3.63,10.49,1.16,1.44,4.6,5.69,8.19,10.12-.59.81-1.08,1.66-1.41,2.53-.76,1.97-.6,3.62.27,4.69l-10.23-12.6c-3.25-4.02-2.63-9.92,1.39-13.17.23-.18.46-.35.7-.51.09-.06.17-.11.26-.16Z"/>
    </g>
  </g>
  <g id="Speech_Bubble" data-name="Speech Bubble">
    <g id="Speech_Bubble-2" data-name="Speech Bubble">
      <path class="cls-6" d="M575.64,52.27c.03,11.91-4.6,22.76-12.14,30.87l-3.74,3.56c-7.87,6.72-18.06,10.81-29.19,10.83-24.91.05-45.22-20.16-45.27-45.07-.03-11.13,4.02-21.35,10.7-29.24l3.56-3.75c8.07-7.59,18.9-12.26,30.81-12.29,24.91-.05,45.22,20.16,45.27,45.07Z"/>
      <path class="cls-27" d="M530.36,3.37c-27.02.06-48.96,22.1-48.88,49.11.05,24.24,17.8,44.37,40.95,48.21l5.53,14.18c.94,2.42,4.37,2.41,5.31-.01l5.47-14.21c23.14-3.95,40.79-24.16,40.73-48.38-.06-27.02-22.09-48.95-49.1-48.89ZM575.64,52.27c.03,11.91-4.6,22.76-12.14,30.87l-3.74,3.56c-7.87,6.72-18.06,10.81-29.19,10.83-24.91.05-45.22-20.16-45.27-45.07-.03-11.13,4.02-21.35,10.7-29.24l3.56-3.75c8.07-7.59,18.9-12.26,30.81-12.29,24.91-.05,45.22,20.16,45.27,45.07Z"/>
    </g>
    <g id="Lactobacilli">
      <g>
        <path class="cls-38" d="M500.69,55.22c-6.76,3-4.54,14.82,9.02,25.23,13.99,10.74,27.93,8.81,29.72,2.21,1.91-7.03-9.41-7.76-19.39-14.91-8.24-5.9-12.8-15.43-19.35-12.52Z"/>
        <path class="cls-2" d="M500.69,55.22c-6.76,3-4.54,14.82,9.02,25.23,13.99,10.74,27.93,8.81,29.72,2.21,1.91-7.03-9.41-7.76-19.39-14.91-8.24-5.9-12.8-15.43-19.35-12.52Z"/>
        <path class="cls-38" d="M539.43,82.66c.83-3.04-.82-4.9-3.77-6.61,1.06,1.87,1.19,4-.35,5.57-2.66,2.73-9.16,4.41-22.77-3.54-13.61-7.95-15.55-19.19-13.77-21.53h0c-4.19,4.3-1.1,14.66,10.95,23.89,13.99,10.74,27.93,8.81,29.72,2.21Z"/>
        <path class="cls-2" d="M502.27,59.7c-.03.71.16,1.46.49,2.07.65,1.19,1.52,2.36,2.52,3.26,1.73,1.55,3.51,2.94,5.47,4.18,4.57,2.89,9.46,5.59,14.89,6.38.74.11,1.72.1,1.92-.81.18-.84-.57-1.17-1.2-1.5-1.8-.96-3.71-1.7-5.48-2.7-4.26-2.41-7.91-5.81-11.19-9.42-1.46-1.61-3.19-4.54-5.79-3.74-1.11.34-1.58,1.28-1.62,2.29Z"/>
      </g>
      <g>
        <path class="cls-38" d="M551.13,27.9c2.62-6.92-7.36-13.64-24.29-11.3-17.47,2.41-25.89,13.68-22.46,19.59,3.66,6.3,12.14-1.24,24.24-3.32,9.99-1.71,19.97,1.73,22.51-4.97Z"/>
        <path class="cls-2" d="M551.13,27.9c2.62-6.92-7.36-13.64-24.29-11.3-17.47,2.41-25.89,13.68-22.46,19.59,3.66,6.3,12.14-1.24,24.24-3.32,9.99-1.71,19.97,1.73,22.51-4.97Z"/>
        <path class="cls-38" d="M504.39,36.19c1.58,2.72,4.07,2.86,7.35,1.97-2.08-.56-3.68-1.97-3.72-4.17-.07-3.82,3.3-9.61,18.52-13.72,15.22-4.1,24.58,2.42,25,5.32h0c-.12-6.01-9.66-11.08-24.69-9-17.47,2.41-25.89,13.68-22.46,19.59Z"/>
        <path class="cls-2" d="M546.83,25.88c-.49-.52-1.16-.91-1.82-1.1-1.3-.37-2.75-.58-4.09-.5-2.32.14-4.56.43-6.82.95-5.27,1.22-10.63,2.81-15,6.11-.6.45-1.28,1.15-.77,1.94.47.72,1.23.41,1.92.2,1.95-.6,3.81-1.45,5.77-2.01,4.71-1.34,9.69-1.55,14.57-1.35,2.17.09,5.47.92,6.73-1.49.54-1.03.2-2.02-.49-2.76Z"/>
      </g>
      <g>
        <path class="cls-38" d="M519.2,46.32c-4.1,6.16,4.11,14.94,21.14,16.46,17.57,1.56,28.3-7.53,26.27-14.07-2.16-6.96-12.11-1.5-24.37-2.19-10.12-.57-19.08-6.16-23.05-.2Z"/>
        <path class="cls-2" d="M519.2,46.32c-4.1,6.16,4.11,14.94,21.14,16.46,17.57,1.56,28.3-7.53,26.27-14.07-2.16-6.96-12.11-1.5-24.37-2.19-10.12-.57-19.08-6.16-23.05-.2Z"/>
        <path class="cls-38" d="M566.61,48.71c-.93-3.01-3.32-3.7-6.73-3.56,1.9,1.01,3.14,2.74,2.69,4.89-.78,3.74-5.37,8.63-21.12,9.22-15.75.59-23.41-7.87-23.17-10.79h0c-1.23,5.88,6.93,12.96,22.05,14.3,17.57,1.56,28.3-7.53,26.27-14.07Z"/>
        <path class="cls-2" d="M522.93,49.26c.36.62.92,1.15,1.52,1.48,1.18.65,2.55,1.18,3.87,1.4,2.29.38,4.54.6,6.86.6,5.41-.01,10.99-.36,15.99-2.6.68-.31,1.51-.84,1.19-1.71-.3-.81-1.11-.68-1.82-.62-2.03.15-4.04.56-6.08.66-4.89.25-9.79-.66-14.5-1.95-2.09-.57-5.12-2.12-6.89-.05-.76.89-.65,1.93-.14,2.8Z"/>
      </g>
    </g>
  </g>
</svg>