<?xml version="1.0" encoding="UTF-8"?>
<svg id="Layer_4" data-name="Layer 4" xmlns="http://www.w3.org/2000/svg" xmlns:xlink="http://www.w3.org/1999/xlink" viewBox="0 0 668 512">
  <defs>
    <style>
      .cls-1 {
        stroke: #ffc87d;
      }

      .cls-1, .cls-2, .cls-3, .cls-4, .cls-5, .cls-6, .cls-7, .cls-8, .cls-9, .cls-10, .cls-11, .cls-12, .cls-13, .cls-14, .cls-15, .cls-16, .cls-17, .cls-18, .cls-19, .cls-20, .cls-21, .cls-22, .cls-23, .cls-24, .cls-25, .cls-26, .cls-27, .cls-28, .cls-29, .cls-30, .cls-31, .cls-32, .cls-33, .cls-34, .cls-35, .cls-36, .cls-37, .cls-38, .cls-39, .cls-40 {
        fill: none;
      }

      .cls-1, .cls-4, .cls-5, .cls-6, .cls-7, .cls-11, .cls-41, .cls-13, .cls-14, .cls-17, .cls-18, .cls-19, .cls-20, .cls-22, .cls-23, .cls-24, .cls-25, .cls-28, .cls-29, .cls-30, .cls-31, .cls-33, .cls-34, .cls-35, .cls-36, .cls-37, .cls-38, .cls-39, .cls-40 {
        stroke-miterlimit: 10;
      }

      .cls-1, .cls-8, .cls-15, .cls-16, .cls-17, .cls-22, .cls-26 {
        stroke-width: .74px;
      }

      .cls-42 {
        fill: #375b9e;
      }

      .cls-2, .cls-3, .cls-8, .cls-9, .cls-12, .cls-15, .cls-16, .cls-21, .cls-26, .cls-27, .cls-32 {
        stroke-linejoin: round;
      }

      .cls-2, .cls-3, .cls-32 {
        stroke-width: .64px;
      }

      .cls-2, .cls-41, .cls-12, .cls-16, .cls-20, .cls-27, .cls-39 {
        stroke: #000;
      }

      .cls-43 {
        fill: #56391a;
      }

      .cls-44 {
        fill: #ff8951;
      }

      .cls-45 {
        fill: #753c34;
      }

      .cls-3 {
        stroke: #5c3629;
      }

      .cls-46 {
        fill: #e8eef9;
      }

      .cls-4 {
        stroke-width: 2.66px;
      }

      .cls-4, .cls-5, .cls-14, .cls-36, .cls-37 {
        stroke: #bfd1ed;
      }

      .cls-5, .cls-7, .cls-19, .cls-31, .cls-33, .cls-36 {
        stroke-width: 1.5px;
      }

      .cls-6 {
        stroke: #375b9e;
      }

      .cls-6, .cls-29 {
        stroke-width: 1.28px;
      }

      .cls-47 {
        fill: #fff;
      }

      .cls-7 {
        stroke: #17df20;
      }

      .cls-8 {
        stroke: #723c2e;
      }

      .cls-9, .cls-19, .cls-23 {
        stroke: #fff;
      }

      .cls-9, .cls-37 {
        stroke-width: 1.33px;
      }

      .cls-48, .cls-41 {
        fill: #ffcba7;
      }

      .cls-49 {
        fill: #ff6341;
      }

      .cls-11, .cls-33 {
        stroke: #b4c5eb;
      }

      .cls-11, .cls-40 {
        stroke-width: .89px;
      }

      .cls-41, .cls-20, .cls-21 {
        stroke-width: .5px;
      }

      .cls-50 {
        fill: #425d86;
      }

      .cls-12, .cls-25 {
        stroke-width: .75px;
      }

      .cls-51 {
        fill: #257c2a;
      }

      .cls-13 {
        stroke: #ff902c;
      }

      .cls-13, .cls-39 {
        stroke-width: 1px;
      }

      .cls-52 {
        fill: #ffe1a1;
      }

      .cls-14 {
        stroke-width: 1.8px;
      }

      .cls-14, .cls-36 {
        stroke-linecap: round;
      }

      .cls-53 {
        fill: #ffa23e;
      }

      .cls-15, .cls-32 {
        stroke: #ff7631;
      }

      .cls-54 {
        fill: #697ea7;
      }

      .cls-17 {
        stroke: #a15743;
      }

      .cls-55 {
        fill: #df8f64;
      }

      .cls-18, .cls-30 {
        stroke-width: 1.99px;
      }

      .cls-18, .cls-31, .cls-38 {
        stroke: #dae2f9;
      }

      .cls-56 {
        fill: #82a2ec;
      }

      .cls-57 {
        fill: #ffd2cc;
      }

      .cls-21 {
        stroke: #3e55a1;
      }

      .cls-22 {
        stroke: #d07b6d;
      }

      .cls-23, .cls-24 {
        stroke-width: 1.35px;
      }

      .cls-58 {
        fill: #dae2f9;
      }

      .cls-59 {
        fill: #ffd785;
      }

      .cls-24 {
        stroke: #ffb4a4;
      }

      .cls-25 {
        stroke: #70c2ef;
      }

      .cls-26 {
        stroke: #4a140c;
      }

      .cls-27, .cls-35 {
        stroke-width: .96px;
      }

      .cls-60 {
        fill: #4f2212;
      }

      .cls-28 {
        stroke-width: 1.08px;
      }

      .cls-28, .cls-34, .cls-40 {
        stroke: #425d86;
      }

      .cls-29 {
        stroke: #ff6341;
      }

      .cls-61 {
        fill: #2c1309;
      }

      .cls-30 {
        stroke: #e8eef9;
      }

      .cls-62 {
        fill: #3d0c05;
      }

      .cls-63 {
        fill: #09103c;
      }

      .cls-64 {
        fill: #242d68;
      }

      .cls-65 {
        fill: #93f093;
      }

      .cls-66 {
        fill: #f0f4ff;
      }

      .cls-67 {
        fill: #ffc25b;
      }

      .cls-34 {
        stroke-width: 1.06px;
      }

      .cls-35 {
        stroke: #7d311b;
      }

      .cls-38 {
        stroke-width: 4.99px;
      }

      .cls-68 {
        fill: #b0cbf5;
      }

      .cls-69 {
        fill: #ffb4a4;
      }

      .cls-70 {
        clip-path: url(#clippath);
      }

      .cls-71 {
        fill: #ffbf92;
      }

      .cls-72 {
        fill: #ae3b14;
      }

      .cls-73 {
        fill: #313e8a;
      }
    </style>
    <clipPath id="clippath">
      <path class="cls-10" d="M94.19,378.97H28.43s-9.25,27.93,8.26,92.5h49.24c17.51-64.57,8.26-92.5,8.26-92.5Z"/>
    </clipPath>
  </defs>
  <path class="cls-66" d="M46.53,442.53c8.61,7.89,15.2,17.94,19.26,28.93h540.08c.98-4.99,2.58-9.86,4.79-14.44,9.15-18.93,41.57-26.19,44.59-55.41,1.43-13.89-9.91-26.27-21.47-33.96-11.56-7.69-25.07-11.69-38.08-16.48-51.96-19.12-77.29-80.24-93.73-129.64-5.49-16.49-10.75-34-23.26-45.99-16.57-15.88-41.65-18.11-64.49-17.12-22.84.99-46.52,4.21-67.97-3.77-39.13-14.56-58.77-61.59-97.44-77.37-26.87-10.96-58.58-4.14-82.67,12.11-24.09,16.25-41.52,40.81-55.37,66.48-16.01,29.68-27.94,61.58-35.41,94.51-6.15,27.13-5.28,61.81-22.03,84.93-8.11,11.19-19.79,19.13-29.46,28.98-9.67,9.85-17.68,23.24-15.27,36.88,3.35,18.93,23.82,28.42,37.93,41.35Z"/>
  <g>
    <g>
      <g>
        <rect class="cls-47" x="141.64" y="39.84" width="78.96" height="117.06" transform="translate(279.49 -82.76) rotate(90)"/>
        <polyline class="cls-33" points="239.66 113.69 239.66 137.85 181.05 137.85"/>
        <polyline class="cls-33" points="239.63 102.91 239.63 58.89 122.59 58.89 122.59 137.85 167.2 137.85"/>
      </g>
      <g>
        <line class="cls-38" x1="133.86" y1="72.84" x2="165.66" y2="72.84"/>
        <line class="cls-18" x1="133.86" y1="79.17" x2="179.91" y2="79.17"/>
        <line class="cls-18" x1="154.38" y1="83.82" x2="179.91" y2="83.82"/>
        <line class="cls-18" x1="133.86" y1="83.82" x2="149.1" y2="83.82"/>
        <line class="cls-18" x1="133.86" y1="88.47" x2="179.91" y2="88.47"/>
        <line class="cls-18" x1="133.86" y1="93.12" x2="167.74" y2="93.12"/>
        <line class="cls-18" x1="133.86" y1="109.11" x2="158.14" y2="109.11"/>
        <line class="cls-18" x1="133.86" y1="114.08" x2="158.14" y2="114.08"/>
      </g>
    </g>
    <g>
      <rect class="cls-47" x="307.82" y="75.58" width="209.05" height="137.65"/>
      <polyline class="cls-33" points="347.87 213.23 307.82 213.23 307.82 199.46"/>
      <polyline class="cls-33" points="485.99 75.58 516.87 75.58 516.87 213.23 371.85 213.23"/>
      <polyline class="cls-33" points="307.82 186.35 307.82 75.58 475.37 75.58"/>
      <g>
        <g>
          <path class="cls-57" d="M210.87,104.97c.04-.42.11-.82.2-1.2.49-2.02,1.5-3.92,1.63-6.03.21-3.3-2.33-4.9-3.02-7.81-.5-2.09.03-4.58,1.81-5.77,2.68-1.79,6.54-.59,9.09.87,2.91,1.67,5.2,4.31,6.91,7.16,2.59,4.31,4.9,10.08,3.49,15.14-.63,2.27-2.01,4.24-3.8,5.75-2.73,2.29-6.81,2.98-10.25,2.29-4.57-.93-6.45-6.19-6.05-10.4Z"/>
          <path class="cls-69" d="M223.32,96.34c-1.26-.5-2.56-.74-3.92-.55-.65.09-1.28.31-1.88.57-.46.2-.96.44-1.39.76-.15-.01-.3-.02-.44-.03.07-.29.08-.61.04-.9-.11-.91-.27-1.82-.43-2.72-.14-.85-.33-1.71-.2-2.58.12-.82.47-1.59.99-2.23.13-.16-.08-.38-.23-.23-1.09,1.08-1.54,2.52-1.48,4.03.04.87.13,1.74.2,2.6.04.43.1.88.1,1.31,0,.22-.03.58-.28.66-.46.15-.95.2-1.41.34-.84.12-5.53,1.13-5.53,8.03v19.48h1.66v-19.48c0-5.97,3.6-6.26,4.13-6.4.53-.14,2.42-.41,4.61,2.43,1.14,1.47,1.55,3.4,1.52,5.23,0,.15.21.17.25.03,1.01-3.07-.58-6.36-3.16-8.11.32.02.64.06.96.13,1.76.36,3.36,1.15,4.73,2.3.21.18.61-.06.42-.32-1.17-1.55-2.82-2.75-4.71-3.27.02-.01.05-.03.07-.04.54-.26,1.12-.42,1.7-.55,1.16-.27,2.41-.37,3.57-.08.27.07.36-.31.11-.41ZM213.25,99.01"/>
        </g>
        <g>
          <path class="cls-57" d="M201.98,104.97c-.04-.42-.11-.82-.2-1.2-.49-2.02-1.5-3.92-1.63-6.03-.21-3.3,2.33-4.9,3.02-7.81.5-2.09-.03-4.58-1.81-5.77-2.68-1.79-6.54-.59-9.09.87-2.91,1.67-5.2,4.31-6.92,7.16-2.59,4.31-4.9,10.08-3.49,15.14.63,2.27,2.01,4.24,3.8,5.75,2.73,2.29,6.81,2.98,10.25,2.29,4.57-.93,6.45-6.19,6.05-10.4Z"/>
          <path class="cls-69" d="M189.64,96.76c1.16-.29,2.41-.19,3.57.08.58.14,1.16.29,1.7.55.03.01.05.03.07.04-1.88.53-3.53,1.73-4.71,3.27-.2.26.21.5.42.32,1.37-1.16,2.97-1.94,4.73-2.3.32-.06.64-.1.96-.13-2.58,1.75-4.17,5.04-3.16,8.11.04.14.26.12.25-.03-.04-1.83.38-3.76,1.52-5.23,2.19-2.84,4.08-2.57,4.61-2.43.53.14,4.13.43,4.13,6.4v19.48h1.66v-19.48c0-6.91-4.69-7.91-5.53-8.03-.47-.14-.95-.19-1.41-.34-.25-.08-.28-.44-.28-.66,0-.44.06-.88.1-1.31.08-.87.17-1.73.2-2.6.06-1.51-.39-2.96-1.48-4.03-.15-.15-.36.07-.23.23.52.64.87,1.42.99,2.23.13.87-.06,1.73-.2,2.58-.15.9-.32,1.81-.43,2.72-.03.29-.02.61.04.9-.15,0-.3.02-.44.03-.42-.31-.92-.56-1.39-.76-.6-.26-1.23-.47-1.88-.57-1.35-.19-2.65.05-3.92.55-.25.1-.16.48.11.41ZM199.6,99.01"/>
        </g>
      </g>
      <line class="cls-38" x1="328.76" y1="91.12" x2="428.54" y2="91.12"/>
      <line class="cls-18" x1="328.76" y1="101.35" x2="395.91" y2="101.35"/>
      <line class="cls-18" x1="328.76" y1="108.22" x2="373.33" y2="108.22"/>
      <polyline class="cls-18" points="408.14 172.08 424.32 198.91 501.86 198.91"/>
      <line class="cls-38" x1="501.86" y1="170.61" x2="460.15" y2="170.61"/>
      <line class="cls-18" x1="501.86" y1="182.18" x2="469.51" y2="182.18"/>
      <line class="cls-18" x1="501.86" y1="188.17" x2="469.51" y2="188.17"/>
      <g>
        <line class="cls-30" x1="501.86" y1="96.3" x2="465.33" y2="96.3"/>
        <line class="cls-30" x1="501.86" y1="103.23" x2="465.33" y2="103.23"/>
        <circle class="cls-46" cx="452.66" cy="97.6" r="7.56"/>
        <polyline class="cls-19" points="447.91 95.59 452.66 101.01 460.22 91.59"/>
      </g>
      <g>
        <line class="cls-30" x1="501.86" y1="120.79" x2="465.33" y2="120.79"/>
        <line class="cls-30" x1="501.86" y1="127.72" x2="465.33" y2="127.72"/>
        <circle class="cls-46" cx="452.66" cy="122.1" r="7.56" transform="translate(-8.46 206.81) rotate(-25.51)"/>
        <polyline class="cls-19" points="447.91 120.09 452.66 125.5 460.22 116.09"/>
      </g>
      <g>
        <line class="cls-30" x1="501.86" y1="145.29" x2="465.33" y2="145.29"/>
        <line class="cls-30" x1="501.86" y1="152.21" x2="465.33" y2="152.21"/>
        <circle class="cls-46" cx="452.66" cy="146.59" r="7.56" transform="translate(231.18 567.71) rotate(-80.2)"/>
      </g>
      <g>
        <path class="cls-69" d="M401.2,159.17c-.13-1.64-.35-3.29-.75-4.88-.3-1.18-.69-2.34-1.16-3.46-1.06-2.54-2.44-4.91-4.15-7.08-1.64-2.09-3.61-3.96-5.85-5.4-2.23-1.43-4.75-2.37-7.4-2.59-1.41-.12-2.84,0-4.22.3-1.62.36-3.17.95-4.79,1.31-.4.09-.8.17-1.2.22l.27-.04c-.73.1-1.47.12-2.21.03l.27.04c-.59-.08-1.17-.23-1.72-.46l.24.1c-.59-.25-1.16-.57-1.67-.96l.2.16c-.46-.36-.87-.77-1.22-1.23l.16.2c-.4-.53-.73-1.11-.99-1.72l.1.24c-.37-.88-.59-1.81-.72-2.76l.04.27c-.18-1.36-.17-2.73-.05-4.09.04-.41.08-.82.14-1.22l-.04.27c.28-2.11.78-4.2,1.4-6.24.16-.54.33-1.07.51-1.61.21-.63-.35-1.28-.98-1.28h-7.01c-.47,0-.83.32-.98.74-.88,2.5-1.5,5.08-1.88,7.7-.38,2.69-.53,5.4-.4,8.11.13,2.69.53,5.38,1.19,7.99.65,2.53,1.61,4.95,2.55,7.38s1.83,4.81,2.29,7.34c.06.31.11.62.15.93l-.04-.27c.11.82.17,1.65.16,2.49s-.09,1.6-.2,2.39l.04-.27c-.3,2.24-.87,4.45-1.63,6.57-.22.6-.45,1.2-.7,1.79l.1-.24c-.81,1.91-1.78,3.75-2.94,5.47-.32.47-.65.93-1,1.39l.16-.2c-1.08,1.39-2.29,2.66-3.68,3.74l.2-.16c-1.36,1.05-2.85,1.9-4.41,2.63-.46.21-.92.42-1.38.61l.24-.1c-1.1.46-2.23.97-3.42,1.13l.27-.04c-.49.06-.98.05-1.47-.01l.27.04c-1.12-.16-2.17-.57-3.23-.94-1.16-.41-2.35-.76-3.59-.79-.75-.02-1.51.19-2.26.1l.27.04c-.28-.04-.55-.12-.82-.23l.24.1c-.5-.21-.94-.52-1.39-.82-.52-.35-1.03-.66-1.61-.9-1.28-.52-2.79-.5-4.1-.07-2.21.72-4.02,2.35-5.34,4.22-1.23,1.76-2.05,3.81-2.6,5.87-.29,1.07-.45,2.18-.65,3.27-.13.7-.26,1.4-.39,2.1-.08.45-.16.9-.27,1.34,0,.03-.02.07-.03.1l.1-.24s0,0,0,0l.16-.2s0,0,0,0l.45-.26h0c-.48.15-.79.61-.72,1.11s.49.88.99.88c1.52,0,3.04,0,4.56,0,.22,0,.43,0,.65,0,.46,0,.84-.32.98-.74.15-.48.33-.96.51-1.43.1-.26.21-.52.32-.78l-.1.24c.49-1.15,1.04-2.28,1.71-3.33.2-.31.41-.61.63-.9l-.16.2c.38-.49.79-.94,1.28-1.32l-.2.16c.26-.2.53-.37.83-.5l-.24.1c.39-.16.8-.24,1.22-.29l-.27.04c.76-.1,1.53-.08,2.3.02l-.27-.04c1.07.15,2.11.46,3.11.87l-.24-.1c1.27.54,2.46,1.24,3.56,2.08l-.2-.16c.61.48,1.16,1.01,1.72,1.54.53.5,1.07.98,1.63,1.45,1.15.95,2.36,1.84,3.64,2.63,2.43,1.5,5.07,2.68,7.8,3.5s5.51,1.27,8.32,1.41,5.69-.07,8.48-.57,5.54-1.36,8.17-2.48,4.99-2.47,7.22-4.12c2.35-1.74,4.49-3.73,6.35-5.99,2.21-2.68,4.14-5.59,5.74-8.68,1.62-3.14,2.93-6.46,3.82-9.89.88-3.38,1.37-6.89,1.34-10.39,0-.81-.04-1.63-.1-2.44-.02-.27-.1-.52-.3-.72-.18-.18-.46-.31-.72-.3-.51.02-1.06.45-1.01,1.01.15,1.99.13,3.98-.05,5.96-.05.56-.11,1.12-.19,1.68l.04-.27c-.4,3-1.15,5.94-2.17,8.79-.29.8-.6,1.59-.93,2.38l.1-.24c-1.26,2.99-2.83,5.86-4.66,8.54-.51.74-1.04,1.47-1.59,2.19l.16-.2c-1.48,1.92-3.12,3.71-4.96,5.3-.49.42-.99.83-1.5,1.23l.2-.16c-1.9,1.47-3.96,2.74-6.12,3.8-.61.3-1.23.58-1.86.85l.24-.1c-2.34.99-4.79,1.73-7.28,2.22-.71.14-1.42.25-2.13.35l.27-.04c-2.45.33-4.93.41-7.4.23-.69-.05-1.37-.12-2.06-.21l.27.04c-2.25-.3-4.47-.83-6.61-1.58-.61-.21-1.21-.45-1.8-.7l.24.1c-1.92-.81-3.77-1.81-5.49-2.99-.49-.34-.98-.69-1.45-1.06l.2.16c-.84-.65-1.64-1.34-2.4-2.06-.41-.39-.8-.79-1.23-1.15-.5-.42-1.03-.82-1.57-1.19-2.07-1.4-4.5-2.39-7.01-2.55-.64-.04-1.26,0-1.89.09-.52.07-.99.19-1.47.4-.72.32-1.34.86-1.86,1.44-1.14,1.27-1.97,2.8-2.67,4.35-.44.98-.87,1.99-1.19,3.03,0,.02,0,.03-.01.05l.98-.74c-1.52,0-3.04,0-4.56,0-.22,0-.43,0-.65,0l.27,1.99c.72-.22.77-.94.89-1.55.13-.67.26-1.34.38-2.02.21-1.11.38-2.24.63-3.35s.63-2.29,1.09-3.37l-.1.24c.5-1.18,1.12-2.31,1.9-3.33l-.16.2c.56-.72,1.19-1.38,1.91-1.93l-.2.16c.6-.47,1.26-.86,1.96-1.16l-.24.1c.49-.2.99-.35,1.52-.42l-.27.04c.47-.06.94-.07,1.4,0l-.27-.04c.42.06.82.17,1.2.33l-.24-.1c.8.35,1.47.93,2.23,1.36.44.25.92.46,1.42.55.33.06.67.09,1,.07.28-.01.55-.05.82-.08.51-.05,1.03-.04,1.54.03l-.27-.04c1.96.27,3.71,1.29,5.65,1.61.54.09,1.08.15,1.63.11.66-.05,1.3-.19,1.93-.4,1.13-.37,2.23-.86,3.32-1.35,1.92-.87,3.73-1.93,5.37-3.26s3.01-2.95,4.21-4.67,2.21-3.58,3.05-5.51c.88-2.03,1.6-4.14,2.09-6.3.25-1.09.43-2.18.56-3.29s.18-2.2.11-3.3c-.16-2.32-.74-4.58-1.5-6.77s-1.63-4.27-2.41-6.42-1.41-4.37-1.82-6.64c-.1-.55-.18-1.11-.26-1.66l.04.27c-.37-2.8-.45-5.63-.24-8.45.06-.8.14-1.59.25-2.38l-.04.27c.29-2.13.74-4.24,1.36-6.3.18-.58.36-1.16.57-1.74l-.98.74h7.01l-.98-1.28c-.65,1.93-1.21,3.9-1.6,5.91-.41,2.1-.68,4.27-.55,6.42.12,1.98.55,4.02,1.66,5.69.58.88,1.31,1.61,2.18,2.21,1.08.75,2.34,1.19,3.64,1.35,1.48.18,2.99-.1,4.41-.49s2.73-.85,4.13-1.15c.32-.07.65-.13.98-.17l-.27.04c1.16-.15,2.33-.15,3.49,0l-.27-.04c1.25.17,2.48.52,3.64,1.01l-.24-.1c1.44.61,2.79,1.43,4.03,2.38l-.2-.16c1.27.98,2.43,2.11,3.47,3.32.3.35.6.71.88,1.08l-.16-.2c1.18,1.52,2.2,3.17,3.04,4.89.23.48.45.96.66,1.45l-.1-.24c.62,1.47,1.11,2.99,1.43,4.55.12.6.22,1.21.3,1.81l-.04-.27c.08.61.14,1.22.19,1.83.02.27.1.52.3.72.18.18.46.31.72.3.51-.02,1.06-.45,1.01-1.01Z"/>
        <path class="cls-57" d="M365.61,168.65c-.61,3.35-2.83,7-4.68,9.54-1.49,2.06-3.31,3.89-5.37,5.43-2.16,1.61-4.78,2.54-6.93,4.14-1.65,1.23-2.44,3.15-1.25,4.94,2.48,3.75,8.18,5.06,12.49,5.33,10.91.67,20.26-4.11,26.67-11.77,1.52-1.81,5.63-7.2,8.09-14.08l-29.02-3.53Z"/>
        <path class="cls-23" d="M372.91,178.2c-.22,1.79-1.85,3.07-3.64,2.85-1.79-.22-3.07-1.85-2.85-3.64.22-1.79,1.85-3.07,3.64-2.85s3.07,1.85,2.85,3.64Z"/>
        <path class="cls-23" d="M382.13,176.56c-.14,1.15-1.19,1.97-2.34,1.83-1.15-.14-1.97-1.19-1.83-2.34.14-1.15,1.19-1.97,2.34-1.83,1.15.14,1.97,1.19,1.83,2.34Z"/>
        <path class="cls-23" d="M379.14,183.79c-.14,1.15-1.19,1.97-2.34,1.83s-1.97-1.19-1.83-2.34c.14-1.15,1.19-1.97,2.34-1.83,1.15.14,1.97,1.19,1.83,2.34Z"/>
        <path class="cls-24" d="M379.7,161.71c-.17,1.41-1.45,2.41-2.86,2.24-1.41-.17-2.41-1.45-2.24-2.86.17-1.41,1.45-2.41,2.86-2.24,1.41.17,2.41,1.45,2.24,2.86Z"/>
        <path class="cls-24" d="M388,149.89c-.11.9-.93,1.54-1.83,1.43-.9-.11-1.54-.93-1.43-1.83.11-.9.93-1.54,1.83-1.43.9.11,1.54.93,1.43,1.83Z"/>
      </g>
    </g>
    <g>
      <path class="cls-5" d="M31.24,251.3c0,1.55-1.26,2.81-2.81,2.81s-2.81-1.26-2.81-2.81,1.26-2.81,2.81-2.81,2.81,1.26,2.81,2.81Z"/>
      <path class="cls-5" d="M196.73,164.35c0,1.55-1.26,2.81-2.81,2.81s-2.81-1.26-2.81-2.81,1.26-2.81,2.81-2.81,2.81,1.26,2.81,2.81Z"/>
      <path class="cls-5" d="M275.57,62.2c0,1.55-1.26,2.81-2.81,2.81s-2.81-1.26-2.81-2.81,1.26-2.81,2.81-2.81,2.81,1.26,2.81,2.81Z"/>
      <path class="cls-5" d="M666.84,308.39c0,1.55-1.26,2.81-2.81,2.81s-2.81-1.26-2.81-2.81,1.26-2.81,2.81-2.81,2.81,1.26,2.81,2.81Z"/>
      <circle class="cls-5" cx="11.64" cy="435.56" r="2.81"/>
      <g>
        <line class="cls-36" x1="558.66" y1="92.89" x2="565.08" y2="99.32"/>
        <line class="cls-36" x1="565.08" y1="92.89" x2="558.66" y2="99.32"/>
      </g>
      <g>
        <line class="cls-36" x1="641.75" y1="186.86" x2="648.17" y2="193.28"/>
        <line class="cls-36" x1="648.17" y1="186.86" x2="641.75" y2="193.28"/>
      </g>
      <g>
        <line class="cls-14" x1="297.87" y1="156.74" x2="290.09" y2="149.06"/>
        <line class="cls-14" x1="290.09" y1="156.74" x2="297.87" y2="149.06"/>
      </g>
      <g>
        <line class="cls-36" x1="619.21" y1="418.96" x2="625.63" y2="425.39"/>
        <line class="cls-36" x1="625.63" y1="418.96" x2="619.21" y2="425.39"/>
      </g>
      <g>
        <line class="cls-36" x1="89.17" y1="117.29" x2="95.59" y2="123.71"/>
        <line class="cls-36" x1="95.59" y1="117.29" x2="89.17" y2="123.71"/>
      </g>
      <g>
        <line class="cls-36" x1="8.43" y1="280.6" x2="14.85" y2="287.02"/>
        <line class="cls-36" x1="14.85" y1="280.6" x2="8.43" y2="287.02"/>
      </g>
      <g>
        <g>
          <polygon class="cls-31" points="619.49 183.28 619.49 170.32 608.26 163.84 597.04 170.32 597.04 183.28 608.26 189.77 619.49 183.28"/>
          <line class="cls-31" x1="600.58" y1="173.11" x2="600.58" y2="180.49"/>
          <line class="cls-31" x1="615.95" y1="173.11" x2="615.95" y2="180.49"/>
        </g>
        <g>
          <polygon class="cls-31" points="585.78 163.85 585.78 150.89 574.55 144.41 563.33 150.89 563.33 163.85 574.55 170.33 585.78 163.85"/>
          <line class="cls-31" x1="566.87" y1="153.68" x2="566.87" y2="161.06"/>
          <line class="cls-31" x1="582.24" y1="153.68" x2="582.24" y2="161.06"/>
        </g>
        <g>
          <polygon class="cls-31" points="630.72 150.89 619.49 144.41 608.26 150.89 608.26 163.85 619.49 170.33 630.72 163.85 630.72 150.89"/>
          <line class="cls-31" x1="612.45" y1="162.17" x2="618.85" y2="165.87"/>
          <line class="cls-31" x1="620.13" y1="148.87" x2="626.53" y2="152.56"/>
        </g>
        <line class="cls-31" x1="619.49" y1="144.41" x2="619.49" y2="137.58"/>
        <line class="cls-31" x1="630.7" y1="151.04" x2="637.05" y2="148.53"/>
        <line class="cls-31" x1="597.04" y1="170.56" x2="585.78" y2="163.85"/>
        <line class="cls-31" x1="608.26" y1="196.9" x2="608.26" y2="190.07"/>
        <path class="cls-31" d="M622.87,130.41c0,1.87-1.52,3.38-3.38,3.38s-3.38-1.52-3.38-3.38,1.52-3.38,3.38-3.38,3.38,1.52,3.38,3.38Z"/>
        <line class="cls-31" x1="573.9" y1="144.41" x2="573.9" y2="137.58"/>
        <path class="cls-31" d="M577.28,130.41c0,1.87-1.52,3.38-3.38,3.38s-3.38-1.52-3.38-3.38,1.52-3.38,3.38-3.38,3.38,1.52,3.38,3.38Z"/>
        <path class="cls-31" d="M611.65,204.39c0,1.87-1.52,3.38-3.38,3.38s-3.38-1.52-3.38-3.38,1.52-3.38,3.38-3.38,3.38,1.52,3.38,3.38Z"/>
      </g>
    </g>
  </g>
  <g>
    <path class="cls-52" d="M603.18,346.46h-68.24s-9.6,37.74,8.57,125h51.1c18.17-87.26,8.57-125,8.57-125Z"/>
    <g>
      <path class="cls-65" d="M645.64,289.81c3.17,1.21,5.99,3.73,9.37,3.65,4.26-.09,7.4-4.57,7.46-8.84.06-4.26-2.14-8.21-4.54-11.74-3.65-5.37-8.12-10.47-14.04-13.16-5.92-2.68-13.54-2.41-18.24,2.07-2.73,2.59-5.56,6.77-9.08,5.46-.89-.33-1.6-.99-2.4-1.5-4.51-2.89-10.87-.42-14.05,3.89-3.18,4.31-3.99,9.87-4.7,15.17-1.03,7.7-2.07,15.4-3.1,23.1-.45,3.37-2.5,7.83-5.73,6.77-1.76-.58-2.54-2.63-2.82-4.46-1.85-11.99,7.26-24.89,1.84-35.75-.89-1.78-2.14-3.39-2.81-5.26-1.56-4.37.3-9.13.69-13.76.54-6.53-2.13-13.24-7-17.62-4.42-3.97-10.45-6.07-14.13-10.73-4.88-6.17-4.28-14.85-5.92-22.55-.9-4.24-3.12-8.85-7.33-9.91-4.81-1.21-9.32,2.89-11.86,7.15-7.42,12.45-6.74,27.89-9.52,42.12-.29,1.51-.79,3.22-2.2,3.84-2.72,1.21-5.26-2.8-8.23-2.59-3.13.22-3.89,4.46-3.69,7.6,1,15.7,4.42,33.03,17.14,42.29,5.65,4.11,12.91,6.43,16.8,12.23.89,1.33,1.59,2.93,1.33,4.51-.26,1.59-1.77,3.03-3.35,2.72-.81-.16-1.47-.72-2.06-1.29-4.69-4.61-7.34-11.8-13.56-13.91-3.07-1.04-6.45-.59-9.6-1.35-3.85-.93-7.02-3.57-10.11-6.04-3.1-2.47-6.48-4.93-10.42-5.37-3.94-.44-8.46,1.96-8.94,5.89-1.06,8.78,12.75,11.37,17.06,16.97,1.81,2.36,2.76,5.33,4.79,7.49,2.38,2.53,5.93,3.61,9.36,4.15,3.44.54,6.97.66,10.27,1.74,3.31,1.08,6.47,3.39,7.41,6.74-2.84-.48-8.6-.45-9.56-.39-2.89.18-5.93.85-8.49,2.25-2,1.1-3.73,2.89-4.22,5.12-.22,1-.18,2.06-.61,2.99-1.02,2.22-4.03,2.56-5.94,4.08-1.59,1.26-2.35,3.28-2.81,5.25-.52,2.2-.75,4.55,0,6.68,1.36,3.81,5.59,5.91,9.61,6.26,4.62.4,9.38-1.06,12.98-4,2.24-1.82,4.42-4.34,7.31-4.21,3.85.17,6.22,1.7,9.17-1.88,2.53-3.08,4.84-5.05,9.07-5.23,0,0,41.51,0,41.51,0,1.73-1.28,3.92-1.75,6.04-1.22,1.69.43,3.23,1.55,4.03,3.1,1.35,2.62.49,5.91,1.59,8.65.67,1.67,2.02,3,3.55,3.96,1.53.96,3.28,1.44,4.85,2.28,1.49.8,3.33,1,5,.71,1.04-.18,2.06-.56,3.11-.45,2.01.21,3.35,2.14,4.21,3.97,1.95,4.14,2.86,8.73,4.99,12.78,2.13,4.05,6.02,7.7,10.6,7.56,4.88-.15,10.56-5.25,10.23-10.27-.11-1.66-.72-3.24-1.01-4.87-.84-4.82,1.17-10.06-.77-14.55-1.99-4.59-7.47-6.84-9.66-11.34-2.17-4.47-.51-9.93-1.94-14.69-1.3-4.35-5.03-7.58-9.05-9.68-6.28-3.27-13.68-4.33-20.62-2.94,2.64-2.48,6.31-3.48,9.48-5.22,5.61-3.08,5.98-7.85,6.33-13.53.48-7.77,9.61-13.66,16.89-10.89Z"/>
      <g>
        <path class="cls-7" d="M522,360.82c3.86-1.32,5.47-5.73,7.76-9.11,1.48-2.19,3.39-4.06,5.42-5.75,2.31-1.93,4.98-3.73,7.99-3.88,1.82-.09,3.64.42,5.45.22,2.04-.22,3.87-1.33,5.86-1.81,4.3-1.05,9.17,1.85,11.16,5.79"/>
        <path class="cls-7" d="M507.63,351.27c4.74.09,8.63-3.49,12.16-6.65,3.76-3.36,7.78-6.53,12.39-8.58.87-.39,1.78-.74,2.74-.75,1.24,0,2.39.56,3.59.88,2.94.79,6.05.08,9.06-.41,4.36-.72,8.94-.97,13.1.52,4.16,1.49,7.82,5.62,8.35,10.01"/>
        <path class="cls-7" d="M540.22,329.53c4.27,1.78,9.09,1.3,13.72,1.28,4.63-.02,9.69.64,12.88,3.99,2.8,2.94,3.48,7.45,3.9,11.49"/>
        <path class="cls-7" d="M494.44,288.19c1.08,2.1,3.3,3.39,5.53,4.27,2.23.88,4.6,1.47,6.63,2.72,3.33,2.05,5.34,5.57,7.4,8.85,2.07,3.27,4.58,6.62,8.3,7.87,2.41.81,5.04.63,7.54,1.06,2.23.39,4.37,1.28,6.21,2.57,2.67,1.89,4.66,4.59,7.35,6.45,6.28,4.33,15.3,3.37,21.39,7.96,4.99,3.76,6.75,10.2,6.95,16.35"/>
        <path class="cls-7" d="M547.16,314.43c1.22,2.59,4.03,4.05,6.79,4.81,2.76.75,5.67.99,8.33,2.05,4.49,1.79,7.84,5.81,9.6,10.31,1.76,4.5,2.07,9.87,1.77,14.69"/>
        <path class="cls-7" d="M515.45,246.21c.67,4.86,1.34,9.72,2.01,14.58.55,4,1.17,8.17,3.53,11.48,2.99,4.2,8.4,6.47,10.82,11,.96,1.81,1.38,3.88,2.52,5.59,2.57,3.88,7.91,4.83,11.66,7.65,4.34,3.27,6.18,8.76,9.57,12.97,2.99,3.71,7.13,6.36,10.52,9.73,7.02,7,10.48,17.37,9.08,27.07"/>
        <path class="cls-7" d="M525.37,248.01c-.22,3.31.92,6.69,3.1,9.18,2.28,2.61,5.63,4.29,7.37,7.29,1.44,2.47,1.57,5.47,2.38,8.21,1.04,3.5,3.27,6.64,6.23,8.77,3.19,2.29,7.23,3.51,9.71,6.55,2.64,3.24,2.88,7.76,4.58,11.57,1.69,3.78,4.75,6.74,7.35,9.97,8.16,10.11,11.97,23.85,10.29,36.73"/>
        <path class="cls-7" d="M541,197.22c-5.41,17.1-3.62,36.36,4.87,52.17,2.6,4.84,5.84,9.49,6.98,14.86.73,3.42.56,6.99,1.47,10.37.88,3.28,2.71,6.2,4.52,9.08,5.96,9.5,11.88,19.15,15.72,29.69,3.84,10.54,5.51,22.02,2.77,32.9"/>
        <path class="cls-7" d="M557.22,212.69c-.6,6.85.9,13.87,4.26,19.87,1.63,2.91,3.67,5.57,5.42,8.41,2.9,4.69,5.04,10.07,4.72,15.57-.37,6.6-4.22,13.15-2.32,19.48,1.5,5.01,6.25,8.44,8.1,13.33,2.1,5.57.06,11.83.87,17.72.7,5.08,3.49,9.64,4.66,14.64,1.9,8.12-.6,16.67-3.2,24.59"/>
        <path class="cls-7" d="M615.63,265.87c-5.28,2.5-9.63,7.08-10.89,12.57-.89,3.84-.26,7.82-.11,11.75.15,3.93-.29,8.14-2.89,11.2-1.87,2.2-4.71,3.59-6.27,6-1.62,2.5-1.63,5.76-3.41,8.17-1.51,2.04-4.13,3.25-5.24,5.51-.91,1.86-.6,4.03-.37,6.07.75,6.7-.82,14.1-5.51,19.15"/>
        <path class="cls-7" d="M581.87,346.29c3.79-3.59,7.62-7.42,9.26-12.24.84-2.48,1.07-5.14,2.15-7.55,1.7-3.79,5.29-6.49,8.85-8.87,2.39-1.6,4.93-3.24,6.2-5.73.93-1.82,1.07-3.88,1.24-5.89.32-3.8.81-7.58,1.46-11.34.45-2.59.99-5.22,2.3-7.54,1.38-2.43,3.54-4.38,5.69-6.26,2.83-2.48,5.74-4.92,9.08-6.76,7.8-4.29,17.31-4.91,26.31-4.09.71.06,1.62.35,1.58,1.02"/>
        <path class="cls-7" d="M661.06,287.45c-5.7-3.18-12.63-3.89-19.26-3.54-4.39.23-8.87.94-12.63,3.06-5.49,3.1-8.67,8.74-11.2,14.24-2.53,5.5-4.8,11.33-9.27,15.62-2.19,2.11-4.85,3.78-6.78,6.1-3.54,4.25-5.42,8.76-8.59,13.26-2.66,3.79-5.63,7.68-9.73,10.09"/>
        <path class="cls-7" d="M643.38,338.96c-.05-3.27-2.83-5.91-5.62-7.92-3.71-2.67-7.86-4.93-12.45-5.86-3.75-.76-7.88-.57-11.57.42-4.7,1.27-8.85,4.44-12,8.08-2.68,3.11-8.41,9.29-16.33,12.61"/>
        <path class="cls-7" d="M589.32,346.29c4.9-2.26,8.88-5.9,13.45-8.74,4.58-2.85,10.4-4.69,15.32-2.49,6.18,2.77,8.46,10.66,14.19,14.28,1.77,1.12,3.8,1.77,5.7,2.66,3.3,1.55,6.43,4.1,7.34,7.63.49,1.89.31,3.9.78,5.8.54,2.18,1.89,4.04,2.85,6.07,2.01,4.3,2.16,9.2,2.28,13.94"/>
        <path class="cls-7" d="M638.43,383.95c1.14-5.45,2.24-11.3.08-16.43-.74-1.75-1.83-3.34-2.98-4.85-1.18-1.56-2.5-3.1-4.25-3.96-1.81-.89-3.92-.97-5.77-1.75-3.06-1.29-5.03-4.31-6.31-7.37-.66-1.58-1.21-3.26-2.35-4.52-.75-.84-1.73-1.44-2.74-1.94-4.44-2.16-16.72-1.93-22.09,3.17"/>
      </g>
    </g>
    <line class="cls-39" x1="556.27" y1="346.46" x2="603.18" y2="346.46"/>
    <line class="cls-39" x1="604.37" y1="353.52" x2="577.86" y2="353.52"/>
    <line class="cls-39" x1="571.73" y1="353.52" x2="559.53" y2="353.52"/>
  </g>
  <g>
    <g>
      <path class="cls-69" d="M222.15,394.15h253.26c7.7,0,13.95,6.25,13.95,13.95v.68H208.2v-.68c0-7.7,6.25-13.95,13.95-13.95Z"/>
      <rect class="cls-73" x="211.32" y="408.78" width="4.24" height="61.43"/>
      <rect class="cls-73" x="238.72" y="408.78" width="4.24" height="61.43"/>
      <rect class="cls-73" x="453.8" y="408.78" width="4.24" height="61.43"/>
      <rect class="cls-73" x="481.56" y="408.78" width="4.24" height="61.43"/>
      <line class="cls-22" x1="209.17" y1="403.54" x2="384.83" y2="403.54"/>
      <line class="cls-22" x1="397.87" y1="403.54" x2="488.39" y2="403.54"/>
    </g>
    <g>
      <path class="cls-71" d="M249.17,237.71l-1.29,16.96-11.19,2.7s2.2,21.87,27.89,20.41c18.51-1.05,11.35-20.74,11.35-20.74l-2.96-.68-.73-16.11"/>
      <path class="cls-71" d="M280.12,231.92c-.7-5.67-2.2-12.22-6.24-16.54-5.26-5.63-13.11-5.02-18.65.08-8.96,8.23-5.53,23.06,3.6,29.94,3.21,2.42,7,3.62,11.29,2.99,6.62-.98,11.14-7.16,9.99-16.47Z"/>
      <g>
        <path class="cls-52" d="M271.74,207.11c-.05-.24-.09-.5-.13-.78-.13-.81-.62-1.52-1.17-2.12-2.32-2.52-5.93-3.55-9.36-3.41-2.66.11-5.29.86-7.6,2.18-1.23.7-2.36,1.55-3.42,2.48-.93.81-1.38,1.99-2.21,2.93-1.7,1.9-3.91,3.24-5.81,4.92-3.09,2.75-5.33,6.57-5.71,10.68.89-1.47,2.28-2.63,3.88-3.25.04.31-.15.6-.34.86-.71,1.01-1.3,2.12-1.51,3.33-.21,1.21,0,2.53.78,3.49.45-1.1,1.17-2.08,2.07-2.85-.08.07.61.15.65.15.71.06,1.43.06,2.15.06,1.45.01,2.9-.01,4.35-.05.65-.02,1.25,0,1.89.07.62.08,1.27-.15,1.87-.3,2.54-.63,5.23-1.59,7.3-3.24.47-.38.82-.81,1.13-1.33.57-.95.23-1.93.56-2.96.33-1.04,1.08-1.93,1.99-2.53,2.61-1.71,6.33-1.39,9.01-.03,3.35,1.7,5.64,5.04,6.35,8.62,1.17-2.28,1.49-4.02,1.51-4.96.07-3.04-.89-6.05-3.59-7.73-1.05-.65-2.24-1.07-3.24-1.82-.95-.71-1.23-1.45-1.41-2.42Z"/>
        <path class="cls-1" d="M240.32,220.68c3.62-2.23,8.03-3.17,12.25-2.61"/>
        <path class="cls-1" d="M247.3,209.07c4.13-2.68,9.1-4.02,14.02-3.79"/>
        <path class="cls-1" d="M264.48,205.75c1.08.34,2.15.71,3.15,1.26.99.54,4.66,2.66,4.17,8.26"/>
        <path class="cls-1" d="M247.04,213.65c2.68-.42,5.4-.83,8.09-.53s5.3.95,6.45,3.87"/>
      </g>
      <path class="cls-16" d="M258.83,245.4c2.12,2.18,7.71,4.16,13.76,2.71"/>
      <path d="M265.71,230.14c.18.66-.1,1.31-.64,1.45-.54.14-1.12-.29-1.31-.95-.18-.66.1-1.31.64-1.45.54-.14,1.12.29,1.31.95Z"/>
      <path d="M276.91,228.55c.18.66-.1,1.31-.64,1.45-.54.14-1.12-.29-1.31-.95-.18-.66.1-1.31.64-1.45.54-.14,1.12.29,1.31.95Z"/>
      <path class="cls-16" d="M271.55,227.58c.74,1.6,1.53,3.16,2.37,4.71,1.1,2.04-1.08,3.2-2.89,2.55"/>
      <path class="cls-26" d="M267.61,235.26c-1.13,3.52,2.6,5.09,4.18,2.38"/>
      <path d="M264.6,225.44c-1.59-.54-3.4-.16-4.68.91-.36.3-.66.65-.91,1.05-.11.17-.04.41.13.51.18.1.4.04.51-.13.05-.08.1-.15.15-.23s.06-.09.14-.18c.12-.14.24-.27.38-.39.07-.06.14-.12.21-.17-.05.04.04-.03.05-.04.04-.03.09-.06.13-.09.15-.1.3-.19.47-.28.08-.04.16-.08.24-.12.06-.03-.05.02.01,0,.02,0,.03-.01.05-.02.05-.02.1-.04.15-.06.18-.06.36-.12.54-.16.08-.02.17-.04.25-.05.02,0,.14-.02.08-.01.05,0,.1-.01.14-.02.18-.02.36-.02.55-.02.11,0,.22,0,.33.02.02,0,.15.02.08,0,.05,0,.11.02.16.03.21.04.42.09.63.16.19.06.41-.07.46-.26.06-.2-.07-.39-.26-.46h0Z"/>
      <path d="M277.45,223.86c-1.07-1.05-2.76-1.42-4.11-.71-.37.2-.71.48-.97.81-.12.15-.16.38,0,.53.13.12.4.16.53,0,.11-.13.22-.26.35-.37.03-.03.06-.05.09-.08.05-.04,0,0,0,0,.02-.01.03-.02.05-.04.07-.05.14-.1.21-.14.06-.04.13-.07.2-.1.02-.01.12-.05.05-.02.04-.02.08-.03.12-.05.15-.05.31-.1.46-.12.01,0,.12-.02.07-.01s0,0,.02,0c.02,0,.04,0,.06,0,.08,0,.16-.01.25-.01.07,0,.15,0,.22,0,.04,0,.08,0,.12,0,.02,0,.04,0,.06,0,.05,0-.07-.01,0,0,.16.03.31.06.46.1.08.02.15.05.23.08.02,0,.13.05.05.02.04.02.08.04.12.06.16.08.32.17.47.27.04.03.07.05.11.08.01,0,.05.04,0,0,.02.02.04.03.06.05.07.06.15.13.21.19.14.14.39.15.53,0s.15-.38,0-.53h0Z"/>
      <path class="cls-45" d="M255.73,232.4c.59-.99.51-2.37-.26-3.21-.75-.82-.77-1.76-.21-2.77.47-.85,1.23-1.48,2.03-2.03.8-.55,1.64-1.03,2.37-1.67.73-.65,1.36-1.58,1.17-2.54-.82.9-2.16,1.1-3.38,1.11-2.63.01-5.28-.6-7.86-.11-1.69.32-3.45,1.03-4.98,1.83-.52.28-1.01.61-1.49.96-.35.27-.69.55-1.03.83-.23.19-1.06.71-1.12.98-.19.85-.14,2.73-.09,3.21.56,5.47,3.38,10.57,7.69,14.07.02.02.04.04.07.05.46-1.12,1.03-2.22,1.44-3.35.32-.9.2-1.89.6-2.77.41-.92,1.17-1.65,1.97-2.25.98-.73,2.45-1.28,3.1-2.35Z"/>
      <g>
        <path class="cls-71" d="M255.03,233.23c-1.23-1.37-3.42-1.97-5.11-.97-3.81,2.25-1.85,6.81.45,9.05,2.31,2.25,6.02,2.28,6.6-.58"/>
        <path class="cls-16" d="M250.44,233.98c1.04,0,2.04.48,2.74,1.22.7.74,1.1,1.7,1.25,2.69.13.84.03,1.8-.62,2.37"/>
        <path class="cls-16" d="M252.78,234.97c-.25-.02-.49.08-.7.21-.49.31-.83.83-.94,1.39-.11.56,0,1.14.25,1.65"/>
        <path class="cls-16" d="M250.17,241.09s1.78,2.78,4.63,1.83c1.75-.58,2.1-1.91,2.1-1.91"/>
      </g>
      <g>
        <g>
          <polyline class="cls-71" points="329.54 425.35 340.2 461.29 374.38 463.08 362.39 421.26"/>
          <path class="cls-61" d="M391.33,460.48c-5.16-2.42-13.82-4.08-16.24-6.09-2.37-1.96-3.7-3.92-3.7-3.92l-35.21-.44,5.34,20.17h60.28s-2.24-5.88-10.46-9.73Z"/>
          <line class="cls-8" x1="399.38" y1="466.6" x2="340.25" y2="465.76"/>
          <line class="cls-8" x1="377.47" y1="454.67" x2="371.2" y2="458.71"/>
          <line class="cls-8" x1="380.65" y1="456.34" x2="374.38" y2="460.38"/>
          <line class="cls-8" x1="384.99" y1="458.03" x2="378.73" y2="462.07"/>
          <path class="cls-8" d="M366.97,452.08c-1.64.23-2.14,2.37.29,3.22,2.4.84,7.41-1.1,7.41-1.1,0,0-5.35-2.45-7.7-2.13Z"/>
          <path class="cls-8" d="M381.3,454.5c1.15-.77.79-3.64-1.33-4-2.09-.35-5.19,3.59-5.19,3.59,0,0,4.87,1.52,6.52.41Z"/>
        </g>
        <g>
          <polyline class="cls-71" points="294.05 425.35 301.61 461.29 335.65 463.08 327.25 421.26"/>
          <path class="cls-60" d="M352.82,460.48c-4.95-2.42-13.47-4.08-15.72-6.09-2.2-1.96-3.36-3.92-3.36-3.92l-35.17-.44,3.6,20.17h60.28s-1.73-5.88-9.63-9.73Z"/>
          <line class="cls-15" x1="360.34" y1="466.6" x2="301.29" y2="465.76"/>
          <line class="cls-15" x1="339.46" y1="454.67" x2="332.84" y2="458.71"/>
          <line class="cls-15" x1="342.49" y1="456.34" x2="335.88" y2="460.38"/>
          <line class="cls-15" x1="346.69" y1="458.03" x2="340.08" y2="462.07"/>
          <path class="cls-15" d="M329.18,452.08c-1.65.23-2.35,2.37.02,3.22,2.33.84,7.5-1.1,7.5-1.1,0,0-5.14-2.45-7.52-2.13Z"/>
          <path class="cls-15" d="M343.31,454.5c1.22-.77,1.11-3.64-.99-4-2.06-.35-5.5,3.59-5.5,3.59,0,0,4.74,1.52,6.49.41Z"/>
        </g>
        <path class="cls-45" d="M267.27,345.35l-2.86,10.43c-6.2,9.34-6.2,38.37,15.89,38.37h38.71l12.33,52.59h39.04l-23.01-78.92c-2.76-11.05-12.16-19.19-23.49-20.34l-36.79-3.75"/>
        <path class="cls-45" d="M232.29,345.35l-4.89,6.13c.22,7.69-4.17,42.67,17.93,42.67h38.71l12.33,52.59h39.04l-18.15-73.64c-2.76-11.05-12.16-19.19-23.49-20.34l-36.79-3.75"/>
        <path class="cls-17" d="M242.55,350.7s.52,12.76,1.3,17.17c1.01,5.7,6.28,12.95,16.82,12.95h23.02c4.82,0,8.98,3.38,9.97,8.09l11.65,57.82"/>
        <path class="cls-16" d="M335.4,446.74l-18.15-73.64c-2.76-11.05-12.16-19.19-23.49-20.34l-36.79-3.75"/>
        <line class="cls-16" x1="284.03" y1="394.15" x2="290.15" y2="395.72"/>
        <line class="cls-16" x1="294.49" y1="438.98" x2="333.52" y2="438.98"/>
        <line class="cls-16" x1="368.5" y1="439.95" x2="333.52" y2="439.95"/>
      </g>
      <g>
        <path class="cls-71" d="M301.36,297.57s1.3,15.35,3.89,19.46c2.6,4.11,22.19,20.6,26.15,28.04l-14.47,7.96s-3.55-2.86-5.21-5.82c-2.61-4.64-25.79-16.48-29.25-23.11-3.01-5.76-5.29-29.78-5.29-29.78"/>
        <path class="cls-71" d="M309.49,342.37c1.12,1.64,2.02,3.41,2.68,5.26.47,1.32.82,2.68,1.29,4.01,1.44,4.06,3.95,6.14,6.44,9.7.2.28.54.6.85.43.14-.08.24-.24.26-.4.16-1.14.34-2.2-.17-3.51-.4-1.02-.94-2.15-.94-2.15,0,0,2.02,1.36,2.54,1.88,1.93,1.95,3.1,3.26,3.9,6.26.21.79.24,1.63.58,2.38.34.75,1.03,1.56,1.47,1.49.43-.07.43-.58.58-.87.1.55.16.73.49,1.18.33.45,1.28.8,1.55.63.27-.17.64-2.25.64-2.25,0,0,1.16-.94,1.77-2.42.43.13,1.1-1.34,1.39-2.35.12-.42.36-3.17.35-5.46,0-6.73-1.53-9.02-5.76-14.21-2.39-2.93-9.46-10.03-9.46-10.03"/>
        <g>
          <path class="cls-49" d="M275.94,257.04s8.27,1.88,12.42,4.11c4.15,2.23,9.08,6.07,11.15,16.66,2.07,10.59,3.66,26.21,3.66,26.21l-26.2,1.27,2.33-25"/>
          <path class="cls-49" d="M289.94,276.3s2.93,46.78,4.64,55.29c1.71,8.51,8.24,13.76,8.24,13.76l-77.38,10.71s-6.26-41.21.33-79.76l9.47-18.52,7.22-1.88s2.74,21.51,20.56,19.02c15.43-2.16,12.91-17.88,12.91-17.88"/>
          <path class="cls-16" d="M275.29,337.89c6.15-.07,12.29-.61,18.35-1.62"/>
          <path class="cls-16" d="M278.18,331c4.57,1.25,9.95,2.32,14.69,1.72"/>
        </g>
        <path class="cls-16" d="M328.97,366.85s.15-6.63-3.63-13.19"/>
        <path class="cls-16" d="M331.68,366.44s1.64-6.97-2.14-14.86"/>
        <path class="cls-16" d="M333.58,363.98s1.31-7.54-1.15-14.58"/>
        <line class="cls-16" x1="312.17" y1="347.63" x2="310.55" y2="343.5"/>
        <line class="cls-16" x1="319.9" y1="355.71" x2="316.09" y2="352.35"/>
        <line class="cls-16" x1="291.96" y1="305.3" x2="290.09" y2="278.63"/>
        <path class="cls-16" d="M249.2,274.92s5.36,5.11,14.89,3.71c9.55-1.4,15.9-7.49,14.8-20.85"/>
        <path class="cls-16" d="M239.06,256.79s1.55,9.82,7.02,15.46"/>
      </g>
      <g>
        <path class="cls-71" d="M249.41,296.93l3.19,18.63,36.51,25.92-15.96,15.62s-32.29-13.05-40.03-17.47c-7.74-4.42-9.92-14.29-11.39-22.65-1.69-9.63-2.38-25.03-2.38-25.03"/>
        <path class="cls-71" d="M270.29,355.85c1.61.43,2.76,1.86,3.93,2.95,4.42,4.12,11.51,3.12,16.81,5.31,3.4,1.4,5.66,4.41,7.28,7.57.62,1.21,2.68,6.41,4.55,6.05.51-.1.69-.84.67-1.89,0-.03,0-.07,0-.11.69,1.19,1.38,2.01,1.97,1.93.47-.06.69-.71.76-1.66.48.95.99,1.57,1.47,1.55.82-.04,1.08-2,1.05-4.33.56.85,1.1,1.39,1.57,1.32,1.76-.25,0-9.21-.77-11.5-.27-.79-.59-1.54-.94-2.25.77-.53-.9-3.43-1.2-3.98-.79-1.49-1.76-2.88-2.84-4.17-2.09-2.5-5.24-4.91-7.9-6.72-3.93-2.67-8.08-4.92-12.57-6.66"/>
        <path class="cls-16" d="M303.54,375.83c-.05-2.55-1.28-6.93-1.9-8.35-2.13-4.89-6.49-7.94-6.49-7.94"/>
        <path class="cls-16" d="M306.26,375.98c.18-2.65-.88-7.67-1.44-9.27-1.86-5.33-6.06-8.85-6.06-8.85"/>
        <path class="cls-16" d="M308.79,373.2c-.02-2.71-.42-5.92-.72-7.19-1.36-5.75-5.22-9.83-5.22-9.83"/>
        <path class="cls-16" d="M309.49,362.22c-1.91-5.6-5.08-7.69-5.08-7.69"/>
        <path class="cls-49" d="M236.69,257.38c-4.39,1.19-13.47,3.9-17.11,17.4-3.58,13.29-1.97,33.88-1.97,33.88l34.76-1.55-2.21-25.64"/>
        <line class="cls-16" x1="252.37" y1="307.11" x2="250.44" y2="284.66"/>
      </g>
    </g>
  </g>
  <g>
    <g>
      <path class="cls-11" d="M229.77,311.35v73.17c0,15.08-12.22,27.3-27.3,27.3h-76.88c-15.08,0-27.3-12.22-27.3-27.3v-133.68"/>
      <path class="cls-11" d="M247.65,287.96v168.41c0,7.17-5.81,12.98-12.98,12.98h-112.71c-7.17,0-12.98-5.81-12.98-12.98v-131.66"/>
      <path class="cls-11" d="M263.31,320.52v102.13c0,7.24-5.87,13.11-13.11,13.11h-56.16c-7.24,0-13.11-5.87-13.11-13.11v-157.24"/>
      <path class="cls-11" d="M312.38,335.01v93.87c0,7.17-5.81,12.98-12.98,12.98h-158.36c-7.17,0-12.98-5.81-12.98-12.98v-180.17"/>
      <g>
        <path class="cls-54" d="M236.14,311.57c0,3.52-2.85,6.37-6.37,6.37s-6.37-2.85-6.37-6.37,2.85-6.37,6.37-6.37,6.37,2.85,6.37,6.37Z"/>
        <path class="cls-40" d="M229.77,316.42c-2.68,0-4.85-2.17-4.85-4.85"/>
        <path class="cls-40" d="M229.77,306.73c2.68,0,4.85,2.17,4.85,4.85"/>
        <path class="cls-50" d="M232.19,311.57c0,1.34-1.09,2.42-2.42,2.42s-2.42-1.09-2.42-2.42,1.09-2.42,2.42-2.42,2.42,1.09,2.42,2.42Z"/>
      </g>
      <g>
        <path class="cls-54" d="M253.02,287.96c0,2.9-2.35,5.25-5.25,5.25s-5.25-2.35-5.25-5.25,2.35-5.25,5.25-5.25,5.25,2.35,5.25,5.25Z"/>
        <path class="cls-40" d="M247.78,291.96c-2.21,0-3.99-1.79-3.99-3.99"/>
        <path class="cls-40" d="M247.78,283.97c2.21,0,3.99,1.79,3.99,3.99"/>
        <path class="cls-50" d="M249.77,287.96c0,1.1-.89,2-2,2s-2-.89-2-2,.89-2,2-2,2,.89,2,2Z"/>
      </g>
      <g>
        <ellipse class="cls-54" cx="263.31" cy="313.36" rx="6.39" ry="6.37" transform="translate(-103.61 494.74) rotate(-76.27)"/>
        <path class="cls-28" d="M262.15,318.09c-2.6-.64-4.19-3.27-3.55-5.88"/>
        <path class="cls-28" d="M264.46,308.63c2.6.64,4.19,3.27,3.55,5.88"/>
        <path class="cls-50" d="M265.66,313.94c-.32,1.31-1.63,2.11-2.93,1.79-1.3-.32-2.1-1.63-1.78-2.94.32-1.31,1.63-2.11,2.93-1.79,1.3.32,2.1,1.63,1.78,2.94Z"/>
      </g>
      <g>
        <path class="cls-54" d="M316.91,337.72c-1.68,2.99-5.53,4.02-8.6,2.3-3.07-1.72-4.19-5.55-2.5-8.54,1.68-2.99,5.53-4.02,8.6-2.3s4.19,5.55,2.5,8.54Z"/>
        <path class="cls-34" d="M309.04,338.72c-2.33-1.31-3.19-4.22-1.91-6.5"/>
        <path class="cls-34" d="M313.68,330.47c2.33,1.31,3.19,4.22,1.91,6.5"/>
        <path class="cls-50" d="M313.47,335.79c-.64,1.14-2.11,1.53-3.27.87-1.17-.66-1.59-2.11-.95-3.25.64-1.14,2.11-1.53,3.27-.87,1.17.66,1.59,2.11.95,3.25Z"/>
      </g>
    </g>
    <rect class="cls-43" x="129.03" y="250.25" width="8.53" height="219.96"/>
    <g>
      <path class="cls-58" d="M196.29,265.41h-126.39c-1.62,0-2.97-.97-3.42-2.46l-23.53-77.98c-.16-.54.3-1.13.89-1.13h126.39c1.62,0,2.97.97,3.42,2.46l23.53,77.98c.16.54-.3,1.13-.89,1.13Z"/>
      <path class="cls-9" d="M189.45,260.99h-112.27c-1.62,0-2.97-.97-3.42-2.46l-20.86-69.14c-.16-.54.3-1.13.89-1.13h112.27c1.62,0,2.97.97,3.42,2.46l20.86,69.14c.16.54-.3,1.13-.89,1.13Z"/>
      <polyline class="cls-9" points="85.05 207.34 92.74 207.34 99.94 219.95 99.34 198.91 113.44 226.73 110.12 194.93 119.51 214.22 119.2 201.37 128.72 219.43 129.31 204.68 139.52 219.95 135.53 196.22 152.97 225.22 147.27 201.2 158.58 216.75 156.18 206.53 170.58 206.53"/>
      <g>
        <path class="cls-47" d="M67.54,207.21l.23-3.95c.02-.25.2-.42.46-.42.28-.02.55.15.73.4l5.02,7.12.09-2.72c0-.26.2-.44.47-.44h7.2c.31-1,.24-2.2-.32-3.49-1.03-2.37-3.54-4.28-6-4.56-2.65-.31-4.44,1.2-4.61,3.4-1.57-2.35-4.52-3.93-7.11-3.38-1.92.4-3.08,2.04-2.89,4.07.13,1.47.86,2.85,1.89,3.96h4.83Z"/>
        <path class="cls-47" d="M75.39,208.49l-.13,3.93c0,.25-.19.43-.46.44,0,0-.01,0-.02,0-.26,0-.54-.16-.71-.4l-5.05-7.18-.17,2.79c-.02.25-.2.42-.47.42h-4.21l9.75,7.49c.69.53,1.56.53,1.93,0l5.23-7.49h-5.69Z"/>
      </g>
      <line class="cls-4" x1="159.87" y1="237.71" x2="178.56" y2="237.71"/>
      <line class="cls-37" x1="162.02" y1="242.9" x2="180.71" y2="242.9"/>
      <line class="cls-37" x1="162.99" y1="248.08" x2="181.69" y2="248.08"/>
      <line class="cls-37" x1="163.97" y1="253.26" x2="182.66" y2="253.26"/>
      <polygon class="cls-68" points="165.64 268.04 105.85 268.04 104.64 264.05 164.43 264.05 165.64 268.04"/>
      <g>
        <path class="cls-66" d="M148.22,243.45c-7.2-.83-7.4-16.36-11.52-16.83-4.12-.47,3.09,22.68-1.83,22.11-4.92-.57-6.83-17.88-10.66-18.32-3.82-.44,2.84,21.17-1.5,20.93-4.34-.25-7.5-18.76-11.02-18.99-3.53-.24,1.43,11.59-3.11,11.07-4.54-.52-7.82-19.46-11.47-19.33-3.65.13.56,21.05-3.36,21.09-3.92.04-5.16-14.81-11.85-15.58l6.41,23.95h63.59l-3.68-10.09Z"/>
        <line class="cls-37" x1="80.6" y1="253.55" x2="156.84" y2="253.55"/>
        <line class="cls-37" x1="80.9" y1="227.32" x2="88.81" y2="253.55"/>
        <line class="cls-37" x1="97.26" y1="224.08" x2="106.14" y2="253.55"/>
        <line class="cls-37" x1="123.64" y1="230.56" x2="130.58" y2="253.55"/>
        <line class="cls-37" x1="148.37" y1="242.05" x2="151.84" y2="253.55"/>
      </g>
    </g>
  </g>
  <g>
    <path class="cls-53" d="M94.19,378.97H28.43s-9.25,27.93,8.26,92.5h49.24c17.51-64.57,8.26-92.5,8.26-92.5Z"/>
    <g class="cls-70">
      <path class="cls-13" d="M-6.63,424.35c28.1,2.06,50.1,22.6,64.49,45.47,6.96,11.05,9.73,23.61,11.78,36.36"/>
      <path class="cls-13" d="M-24.62,413.36c28.1,2.06,50.1,22.6,64.49,45.47,6.96,11.05,9.73,23.61,11.78,36.36"/>
      <path class="cls-13" d="M3.63,386.99c3.64,11.32,12.92,20.66,24.21,24.39,7.62,2.51,15.8,2.55,23.73,3.75,6.51.98,11.91,4.07,13.42,10.85,1.19,5.32.75,10.93,2.86,16.04,1.93,4.68,5.32,8.68,9.32,11.74,8.19,6.26,18.98,9.4,29.19,9.59"/>
      <path class="cls-13" d="M28.59,373.44c3.6,14.13,16.95,24.36,31.22,27.37,7.33,1.54,15.41,1.34,21.76-2.64,7.73-4.85,11.38-14.4,11.91-23.51"/>
      <path class="cls-13" d="M92.9,448.3c-3.89-4.58-7.83-9.23-10.32-14.69-2.38-5.21-3.32-11.6-.89-16.97,1.6-3.54,4.55-6.35,7.89-8.33,5.28-3.13,11.67-4.93,17.8-5.14"/>
      <path class="cls-13" d="M17.75,415.08c3.27,5.31,7.53,10.02,12.5,13.79,7.19,5.47,17.55,1.96,24.17,8.92,4.58,4.81,4.97,12.37,9.03,17.62,6.4,8.28,18.01,7.31,26.27,12.53,5,3.16,6.88,9.44,8.12,15.23"/>
    </g>
    <line class="cls-39" x1="27" y1="386.08" x2="46.51" y2="386.08"/>
    <line class="cls-39" x1="50.37" y1="386.08" x2="84.89" y2="386.08"/>
    <g>
      <path class="cls-51" d="M14.02,364.86c.84.48,1.7,1.36,1.38,2.27-.3.84-1.37,1.04-2.26,1.1-2.48.16-6.64.65-7.38,3.7-.67,2.75,2.88,4.13,5.03,4.37,3.68.42,7.05-.39,10.71-.53.88-.03,2.03.23,2.13,1.1.08.72-.62,1.25-1.19,1.68-2.62,1.98-4.11,5.35-3.83,8.62.06.73.22,1.47.66,2.06.52.69,1.36,1.05,2.2,1.28,2.29.62,4.81.36,6.93-.7,1.05-.53,2-1.24,2.94-1.94,1.62-1.22,3.25-2.44,4.73-3.81,1.59-1.47,3.06-3.15,5-4.11,2.03-1,4.37-1.12,6.63-1.01,7.15.36,14.25.08,21.41,0,7.38-.08,14.76-.05,22.15-.02,4.58.02,9.15.05,13.73.05h2.33c.7-.31,1.31-.75,1.72-1.45,1.03-1.73.23-4.03-1.11-5.54-3.15-3.57-8.37-4.19-13.05-5.03-.56-.1-1.17-.23-1.55-.66-.65-.74-.28-1.89.22-2.74,1.94-3.3,5.53-6.4,4.61-10.12-.78-3.17-4.54-4.61-7.8-4.66-3.26-.05-6.59.77-9.75-.06-1.01-.26-2.03-.74-2.63-1.59-.67-.96-.7-2.23-.56-3.4.35-3.03,1.59-5.89,2.24-8.88.64-2.99.59-6.39-1.35-8.75-4.52-5.5-12.1-3.32-15.37-10.91-2.51-5.81-2.48-12.58-3.83-18.73-1.49-6.8-3.95-25.18-12.81-26.5-3.76-.56-7.82,1.5-10.38,4.15-5.25,5.44-6.95,13.41-7.12,20.97-.14,6.31.63,12.63,2.29,18.72,1.1,4.04,2.59,8.3,1.36,12.31-.19.6-.45,1.21-.93,1.62-1.21,1.02-3.07.29-4.35-.64-2.36-1.73-4.26-4.06-6.73-5.62-2.27-1.43-5.64-1.65-7.99-.27-7.06,4.15-.78,13.75,3.49,17.27,2.6,2.14,5.48,3.96,7.73,6.46.92,1.02,1.75,2.18,2.06,3.52.36,1.56-.14,3.49-1.61,4.32-1.51.85-3.43.26-4.89-.66-3.45-2.16-6.62-3.87-10.54-1.82-2.89,1.51-6.3,4.55-5.09,8.21,1.32,4.01,6.78,4.29,10.44,6.38Z"/>
      <path class="cls-47" d="M14.22,368.09c2.9,1.28,5.52,3.18,8.61,4.01,3.19.85,6.56.67,9.79.18,1.54-.23,3.06-.57,4.6-.74s3-.19,4.44.23c.71.21,1.36.53,1.97.94s1.12.84,1.67,1.27c.59.46,1.2.91,1.88,1.23.72.35,1.48.56,2.26.71s1.59.24,2.38.38c.73.13,1.45.3,2.16.51,1.4.42,2.69,1.01,3.91,1.85.3.21.54.39.82.63.19.16.46.18.64,0,.16-.16.19-.48,0-.64-1.17-1-2.51-1.77-3.95-2.32s-2.9-.84-4.41-1.05c-.78-.11-1.57-.21-2.33-.42-.72-.2-1.37-.5-1.99-.91-1.21-.8-2.25-1.85-3.58-2.48-2.88-1.38-6.17-.72-9.18-.17-3.17.58-6.46.98-9.67.43-1.59-.27-3.08-.81-4.53-1.51s-2.82-1.44-4.27-2.06c-.36-.15-.73-.28-1.1-.4-.2-.06-.34.26-.14.34h0Z"/>
      <path class="cls-47" d="M6.44,352.32c1.95.25,3.42,1.61,4.72,2.96.69.71,1.35,1.46,2.04,2.17.74.76,1.53,1.47,2.38,2.11,1.7,1.27,3.59,2.28,5.58,3.02s4.11,1.19,6.24,1.32c1.07.07,2.14.05,3.21-.05,1.3-.12,2.58-.34,3.87-.52,1.11-.15,2.32-.27,3.48-.21.57.03.98.07,1.5.17s1.02.24,1.51.43c.05.02.11.04.16.06-.07-.03,0,0,.02,0,.03.01.06.03.09.04.12.05.24.11.36.17.23.12.46.26.68.41.33.23.68.54,1.01.89.16.17.32.35.46.54.07.09.14.17.21.26.05.06-.05-.06,0,0,.02.02.04.05.05.07.04.05.08.11.12.16.28.37.55.75.83,1.11.59.78,1.22,1.52,2.04,2.07.97.66,2.11.83,3.24,1.05.5.1.98.22,1.46.39.11.04.22.08.33.12.05.02.1.04.15.06.03.01.06.02.09.04.06.02-.06-.03.03.01.23.1.46.21.68.32.44.23.86.48,1.27.76.21.14.42.3.62.45-.08-.06.04.03.06.05.05.04.1.08.15.12.1.08.2.17.3.25.78.67,1.48,1.43,2.12,2.24.05.07-.04-.06,0,0,.01.02.03.04.04.06.04.05.08.1.12.16.08.1.15.21.23.32.15.21.29.43.43.65.27.43.52.87.75,1.31.11.21.21.42.31.64.05.11.1.21.14.32-.04-.1.03.07.04.09.02.06.05.11.07.17.1.26.36.46.65.37.25-.08.47-.37.37-.65-.76-1.97-1.89-3.76-3.33-5.3s-3.16-2.77-5.11-3.5c-.46-.17-.92-.31-1.4-.41-.59-.12-1.19-.21-1.78-.35-.54-.13-.94-.28-1.4-.58-.09-.06-.18-.12-.27-.18-.02-.02-.05-.03-.07-.05.02.01.08.06,0,0-.05-.04-.1-.08-.15-.12-.17-.14-.33-.3-.48-.46s-.32-.34-.46-.52c-.07-.08-.14-.17-.21-.26-.04-.05-.07-.09-.11-.14-.05-.06.05.06,0,0-.02-.03-.05-.06-.07-.09-.28-.37-.56-.76-.84-1.13-.62-.81-1.28-1.58-2.12-2.17-1.8-1.26-4.13-1.55-6.27-1.43-2.5.14-4.9.77-7.39.83-1.06.03-2.13-.03-3.18-.16-.01,0-.11-.01-.06,0s-.05,0-.06,0c-.06,0-.12-.02-.17-.02-.14-.02-.28-.04-.42-.07-.26-.04-.53-.09-.79-.15-.52-.1-1.03-.23-1.54-.37-2.05-.57-3.93-1.41-5.74-2.56-.9-.58-1.7-1.16-2.49-1.84s-1.48-1.4-2.2-2.12c-1.35-1.38-2.82-2.82-4.7-3.43-.44-.14-.91-.23-1.37-.26-.24-.02-.22.33,0,.36h0Z"/>
      <path class="cls-47" d="M23.67,352.69c1.25,1.23,2.71,2.22,4.29,2.97s3.3,1.25,5.06,1.48,3.55.11,5.33.14,3.43.19,4.93,1.03c.17.09.33.19.48.3.07.05.14.1.21.15.04.03.07.05.1.08,0,0,.06.04.03.02-.03-.02.04.03.04.03.28.22.55.47.8.73s.51.54.74.83c.12.14.23.29.35.43.04.05.05.07.12.16.06.08.12.15.17.23.9,1.21,1.74,2.49,2.8,3.57.55.56,1.17,1.06,1.85,1.44.82.47,1.74.79,2.58,1.16.72.32,1.41.69,2.07,1.13.17.11.33.23.49.34.07.05.15.11.22.17.06.05-.01,0,.05.04.04.03.08.07.13.1.3.24.59.49.87.76s.56.55.83.84c.13.14.26.29.38.44.06.07.12.14.18.22.03.04.06.07.09.11.01.02.1.12.05.07.47.62.9,1.28,1.27,1.96.18.34.36.69.51,1.04.02.04.04.08.06.13,0,.02.02.04.03.06,0,0,.03.07.01.03-.01-.03.04.09.05.11.02.05.04.1.06.15.07.18.14.36.2.54.26.74.45,1.49.58,2.26.02.09.03.18.04.27,0,.02.02.14.01.1s0,.07.01.1c.02.19.04.38.06.58.02.25.21.5.49.49.25-.01.51-.21.49-.49-.13-1.62-.54-3.19-1.19-4.68s-1.52-2.81-2.58-4-2.29-2.2-3.66-2.98c-.78-.44-1.6-.78-2.42-1.12s-1.59-.69-2.29-1.21c-.02-.01-.03-.03-.05-.04,0,0,.05.04,0,0s-.08-.06-.12-.1c-.07-.06-.15-.12-.22-.18-.14-.12-.27-.24-.4-.37-.27-.26-.52-.54-.76-.82-.12-.14-.24-.28-.35-.43-.06-.07-.11-.14-.16-.21-.01-.01-.08-.1-.04-.05-.03-.04-.06-.08-.09-.12-.23-.3-.45-.61-.68-.91-.89-1.21-1.78-2.47-2.96-3.42-.66-.53-1.38-.95-2.17-1.24-.84-.31-1.72-.47-2.6-.56-1.78-.17-3.58-.03-5.37-.08s-3.42-.36-5.06-.93c-.82-.28-1.61-.63-2.37-1.04s-1.49-.89-2.19-1.4c-.34-.25-.67-.51-1-.78-.27-.23-.64.14-.39.39h0Z"/>
      <path class="cls-47" d="M13.27,321.36c.46,2.41,1.5,4.66,2.91,6.67,1.48,2.11,3.28,3.98,5.25,5.63,1.99,1.67,4.14,3.14,6.39,4.43,2.49,1.42,5.21,2.33,7.87,3.37.68.27,1.3.52,1.91.78.65.28,1.29.58,1.91.91s1.19.66,1.77,1.03c.27.18.55.37.81.56.13.09.26.19.39.29.03.02.05.04.08.06-.08-.06.01,0,.03.02.07.06.15.11.22.17,1.01.81,1.94,1.72,2.79,2.7.21.25.42.5.62.76.06.08-.08-.1.02.03.02.03.04.05.06.08.05.07.1.13.15.2.1.14.2.27.29.41.37.52.71,1.06,1.03,1.62,1.3,2.28,2.06,4.82,3.33,7.11.66,1.18,1.46,2.27,2.46,3.18s2.22,1.74,3.26,2.69c.47.43.92.87,1.35,1.34.21.23.42.47.63.71.1.12.2.24.3.36.05.06.09.12.14.18.03.03.05.07.08.1.01.02.12.16.05.06.79,1.02,1.49,2.11,2.1,3.24.31.57.6,1.15.86,1.74.07.15.13.29.19.44,0-.02-.04-.1,0,0,.02.04.03.08.05.12.04.09.07.17.1.26.12.3.23.59.34.89.43,1.22.78,2.47,1.02,3.73.06.3.11.6.15.9.01.07.02.15.03.22,0,.03.02.14,0,.02,0,.03,0,.07.01.1.02.16.04.33.06.49.03.3.24.59.57.57.28-.01.61-.25.57-.57-.28-2.64-.99-5.2-2.07-7.63s-2.5-4.64-4.26-6.58c-.88-.97-1.84-1.83-2.87-2.64-.58-.45-1.16-.9-1.72-1.38-.52-.45-.98-.95-1.41-1.48-.06-.08.08.1-.02-.03-.02-.03-.04-.05-.06-.08-.05-.07-.1-.13-.15-.2-.1-.14-.19-.27-.28-.41-.17-.26-.34-.54-.49-.81-.32-.57-.61-1.16-.88-1.75-.54-1.19-1.02-2.41-1.57-3.59-1.1-2.4-2.61-4.6-4.5-6.46-.94-.93-1.98-1.77-3.08-2.51-1.15-.77-2.39-1.42-3.65-1.98s-2.69-1.11-4.05-1.62c-.66-.25-1.33-.5-1.99-.76s-1.22-.49-1.88-.79c-2.4-1.08-4.66-2.48-6.78-4.03-.55-.4-.97-.73-1.5-1.16-.5-.4-.98-.82-1.45-1.25-.96-.87-1.87-1.79-2.72-2.78s-1.52-1.89-2.17-2.96-1.18-2.07-1.6-3.19c-.21-.55-.38-1.11-.52-1.68-.08-.32-.56-.18-.5.14h0Z"/>
      <path class="cls-47" d="M32.97,323.99c.04.52.1,1.05.24,1.55s.3.97.5,1.44c.4.96.92,1.86,1.53,2.71,1.25,1.72,2.79,3.21,4.44,4.55s3.44,2.56,5.19,3.8c.44.31.88.63,1.31.94s.81.61,1.22.93c.82.65,1.62,1.34,2.37,2.08.37.37.73.75,1.07,1.15.17.19.33.39.49.59,0,.01.12.15.07.09.04.05.08.1.12.15.08.11.16.22.24.33.3.43.58.87.84,1.32.13.23.25.46.36.69.06.12.11.24.17.36.03.06.05.12.08.18.01.03.03.06.04.09,0,.02.03.07,0,.02.84,1.99,1.24,4.13,1.8,6.21.58,2.11,1.36,4.18,2.82,5.85.78.9,1.69,1.66,2.51,2.51.83.86,1.46,1.76,2.04,2.82.28.52.55,1.06.79,1.6.05.12.11.24.16.36.02.05.05.11.07.16-.03-.07,0,0,0,.02.02.05.04.09.06.14.1.25.2.5.3.76.4,1.07.73,2.16.99,3.27.13.56.25,1.11.35,1.68.05.29.1.58.14.87,0,.03,0,.05.01.08-.01-.08,0,.01,0,.02,0,.07.02.14.03.21.02.15.03.3.05.45.11,1.12.15,2.25.09,3.38-.01.26-.03.52-.06.78-.01.13-.03.26-.04.39,0,.02,0,.05,0,.07-.01.08.01-.07,0,.01-.01.07-.02.15-.03.22-.04.26.07.56.36.63.24.06.58-.07.63-.36.35-2.28.24-4.6-.14-6.87s-1.04-4.48-1.97-6.58c-.48-1.08-1.02-2.15-1.69-3.13-.69-1.01-1.54-1.87-2.43-2.71-.43-.41-.86-.82-1.26-1.26-.18-.2-.4-.46-.54-.63-.13-.16-.31-.42-.44-.63-.29-.44-.54-.91-.76-1.38-.05-.11-.1-.22-.15-.33-.01-.03-.03-.06-.04-.09.03.07,0,0,0-.01-.03-.07-.06-.14-.08-.2-.1-.25-.19-.5-.28-.76-.7-2.04-1.08-4.17-1.74-6.23-.33-1.04-.74-2.06-1.27-3.02s-1.14-1.79-1.82-2.6c-1.39-1.64-3.05-3.01-4.76-4.29-1.71-1.28-3.51-2.44-5.24-3.69-1.69-1.22-3.34-2.57-4.76-4.15-1.34-1.48-2.5-3.22-3.12-5.14-.16-.48-.32-.96-.44-1.46-.05-.22-.42-.18-.4.05h0Z"/>
      <path class="cls-47" d="M39.76,271.28c-.18.43-.39.85-.53,1.29s-.28.89-.41,1.33c-.27.88-.51,1.77-.74,2.67-.46,1.79-.82,3.61-1.12,5.44-.3,1.84-.52,3.7-.67,5.56s-.2,3.69-.17,5.54.16,3.67.37,5.5.51,3.66.91,5.47.88,3.53,1.47,5.25,1.29,3.46,2.09,5.12c.79,1.65,1.68,3.24,2.67,4.78.99,1.53,2.08,3,3.21,4.43,1.12,1.42,2.28,2.82,3.43,4.21.58.7,1.15,1.4,1.71,2.1.28.35.56.7.83,1.05.04.05.07.09.11.14.02.02.03.04.05.06,0,0-.05-.06,0-.01.08.1.15.2.23.29.13.18.27.35.4.53,1.06,1.42,2.06,2.88,2.94,4.41.44.76.84,1.55,1.21,2.35.09.2.18.4.27.6.01.03.03.06.04.09,0,0-.03-.07,0-.02.02.05.04.1.07.16.04.1.09.21.13.32.16.41.31.82.45,1.24.66,1.98,1.01,4.04,1.3,6.11s.55,4.25,1.06,6.34,1.25,3.98,2.06,5.9c.82,1.94,1.67,3.79,2.41,5.73.68,1.78,1.2,3.63,1.48,5.52,0,.05.02.1.02.16,0,.02.02.18.01.1.02.12.03.25.05.37.03.24.05.47.07.71.04.48.06.96.06,1.45s-.01.94-.05,1.4c-.02.23-.04.46-.07.69,0,.01-.02.12,0,.06,0-.06,0,.03,0,.03,0,.05-.01.1-.02.15-.02.12-.04.23-.06.35-.08.44-.18.87-.31,1.3-.06.21-.13.41-.2.62-.04.1-.07.2-.11.3-.02.05-.04.09-.06.14-.04.1-.01.03,0,.01-.01.03-.03.06-.04.09-.11.25-.08.58.19.73.23.12.61.08.73-.19.76-1.76,1.06-3.67,1.05-5.58s-.32-3.88-.82-5.76-1.28-3.82-2.07-5.67-1.63-3.72-2.34-5.68c-.35-.98-.67-1.97-.92-2.98-.26-1.04-.45-2.09-.62-3.15-.33-2.12-.55-4.25-.96-6.36-.37-1.91-.95-3.76-1.74-5.55-.72-1.61-1.6-3.15-2.57-4.62s-2.09-2.96-3.21-4.37c-1.13-1.42-2.29-2.8-3.44-4.2-.58-.7-1.15-1.4-1.71-2.11-.14-.18-.28-.35-.42-.53-.07-.09-.14-.18-.21-.27-.03-.04-.06-.08-.09-.12.06.08-.05-.07-.07-.09-.27-.35-.54-.71-.81-1.07-1.08-1.46-2.08-2.98-2.98-4.56-.45-.79-.87-1.6-1.27-2.42-.2-.4-.39-.81-.57-1.22-.09-.21-.18-.41-.27-.62-.05-.11-.09-.21-.14-.32.03.08-.01-.03-.02-.06-.03-.06-.05-.12-.08-.18-.69-1.68-1.29-3.4-1.78-5.14-.5-1.74-.9-3.52-1.2-5.3-.08-.45-.15-.91-.22-1.37-.02-.11-.03-.22-.05-.32,0-.05-.01-.1-.02-.15,0-.01-.02-.12,0-.06,0,.05,0-.05,0-.06-.03-.22-.06-.45-.08-.68-.11-.91-.19-1.82-.26-2.74-.13-1.84-.17-3.68-.13-5.52s.15-3.7.35-5.54.46-3.59.82-5.42c.35-1.81.77-3.6,1.26-5.37.12-.43.24-.86.37-1.29s.21-.87.31-1.3c.03-.13-.03-.27-.16-.32-.11-.05-.29-.01-.34.11h0Z"/>
      <path class="cls-47" d="M51.22,272.88c-.47,3.6-.75,7.24-.78,10.87s.26,7.26.79,10.84c.54,3.57,1.38,7.09,2.57,10.5,1.14,3.28,2.63,6.4,4.27,9.46s3.29,5.9,4.81,8.91c.37.74.74,1.49,1.08,2.25.17.38.34.75.51,1.13.04.09.08.19.12.28.07.16-.04-.09.03.06.02.05.04.1.06.14.08.19.16.38.23.57.61,1.52,1.14,3.08,1.54,4.68.2.81.37,1.62.5,2.44.03.2.06.39.09.59.02.17-.01-.11,0,.06,0,.05.01.1.02.15.02.14.03.27.05.41.05.49.09.98.12,1.47.12,1.96.08,3.93.09,5.9s.13,3.93.4,5.89c.26,1.89.65,3.77,1.07,5.63s.88,3.77,1.29,5.66c.2.92.38,1.85.54,2.78.08.44.15.87.21,1.31.02.11.03.22.05.33,0,.04.01.07.02.11-.02-.12,0,.06,0,.07.03.24.06.48.09.72.2,1.75.28,3.52.18,5.28-.03.44-.06.87-.11,1.3-.01.11-.03.22-.04.32,0,0-.03.19,0,.07,0,.05-.01.11-.02.16-.03.21-.07.43-.1.64-.15.85-.35,1.7-.62,2.52-.13.4-.27.79-.42,1.18-.04.1-.08.2-.12.3-.02.05-.04.1-.06.15,0,0-.07.17-.03.07-.09.2-.17.41-.27.6-.13.25-.08.6.19.74.25.13.61.08.74-.19.41-.83.78-1.67,1.06-2.55.26-.83.47-1.67.62-2.52.31-1.76.41-3.54.34-5.32-.13-3.72-.92-7.38-1.76-10.99-.44-1.88-.89-3.77-1.26-5.66s-.65-3.66-.78-5.59c-.26-3.92.1-7.85-.51-11.75-.52-3.31-1.66-6.47-3.05-9.5-1.41-3.06-3.08-5.98-4.71-8.92-.82-1.47-1.63-2.94-2.4-4.44-.38-.74-.76-1.49-1.11-2.25s-.73-1.59-1.04-2.35c-1.37-3.32-2.39-6.77-3.1-10.29-.72-3.54-1.13-7.1-1.28-10.71s-.09-7.27.19-10.89c.07-.88.15-1.76.24-2.63.01-.14-.13-.26-.26-.26-.16,0-.24.12-.26.26h0Z"/>
      <path class="cls-47" d="M70.05,322.15c1.17,1.02,2.04,2.32,2.67,3.73.29.65.55,1.42.73,2.16.1.39.18.78.25,1.18.03.2.07.4.09.6,0,.02,0,.05,0,.07,0,0,.01.08,0,.03,0-.02.01.09.02.12.01.1.02.2.03.3.18,1.66.17,3.32.03,4.98-.18,2.13-.52,4.14-.76,6.24-.24,2.08-.41,4.17-.24,6.26.17,2.09.7,4.12,1.24,6.13s1.02,3.98,1.3,6.02c0,.06,0,.01,0,0,0,.03,0,.06.01.09,0,.06.01.12.02.17.02.13.03.27.05.4.03.25.05.5.08.75.05.49.08.98.11,1.47.05.99.06,1.99.03,2.98-.03.99-.11,1.98-.22,2.96-.01.11-.03.23-.04.34,0,.07-.02.13-.03.2s0,0,0,0c0,.04-.01.08-.02.11-.03.25-.07.49-.11.74-.08.49-.17.98-.27,1.47-.4,1.96-.97,3.89-1.66,5.77-.17.47-.36.94-.55,1.41-.1.24.09.52.3.61s.55.03.65-.21c.82-1.91,1.5-3.86,2-5.88s.8-3.98.95-6,.13-4-.06-5.99-.57-4.14-1.09-6.16c-.52-2.01-1.14-4-1.46-6.06-.02-.13-.04-.26-.06-.38,0,.06,0-.07-.01-.09,0-.08-.02-.16-.03-.24-.03-.26-.05-.52-.07-.78-.04-.52-.05-1.04-.06-1.56,0-1.06.06-2.11.16-3.16.2-2.11.52-4.2.73-6.3.18-1.76.3-3.56.13-5.33-.16-1.63-.47-3.25-1.06-4.78-.29-.74-.63-1.5-1.08-2.16s-.95-1.28-1.53-1.82c-.29-.27-.59-.52-.91-.75-.22-.16-.5.2-.29.38h0Z"/>
      <path class="cls-47" d="M82.36,349.31c.25,1.03.61,2.02.91,3.03s.58,2.05.77,3.1c.02.13.04.25.06.38,0,.06.02.13.03.19,0,.04.01.07.02.11.01.09-.01-.09,0,0,.03.26.06.52.08.78.05.51.08,1.03.07,1.54,0,.26-.01.53-.03.79,0,.11-.02.23-.03.34,0,.06-.01.12-.02.18,0,.03,0,.07-.01.1,0-.06,0-.06,0,0-.08.5-.18,1-.33,1.49-.08.25-.16.5-.26.75-.02.05-.04.1-.06.15-.04.11-.01.03,0,0-.01.03-.03.07-.04.1-.05.12-.11.25-.17.37-.23.47-.5.92-.78,1.37-.57.92-1.15,1.84-1.52,2.87-.76,2.11-.51,4.39-.65,6.59-.01.22-.03.44-.06.66,0,.05-.01.11-.02.16,0,0-.01.07,0,.07-.01,0,.02-.12,0-.02-.02.12-.03.23-.05.35-.08.44-.18.88-.31,1.31-.03.1-.07.2-.1.3-.03.09-.06.24-.12.32,0-.01.05-.12,0-.02,0,.02-.02.04-.03.06-.02.05-.04.1-.07.14-.05.1-.1.2-.16.3-.1.19-.22.37-.35.54,0,0-.05.07-.05.07,0,0,.07-.09.03-.03-.03.04-.06.08-.1.12-.07.08-.15.17-.22.24-.15.15-.31.3-.48.43-.23.18-.21.56-.05.77s.52.32.76.15c1.63-1.14,2.26-3.17,2.5-5.05.13-1.02.13-2.05.15-3.08,0-.56.02-1.13.07-1.69.01-.14.02-.28.04-.42,0-.07.01-.13.02-.2,0-.03,0-.06.01-.08-.01.09,0,.01,0-.03.04-.27.09-.54.15-.81s.14-.55.24-.82c.04-.12.09-.24.14-.36-.04.11.02-.05.04-.08.03-.07.06-.13.09-.2.23-.48.5-.94.78-1.4.58-.94,1.15-1.87,1.54-2.91.77-2.02.84-4.25.5-6.37s-1.05-4.29-2.07-6.2c-.12-.23-.25-.46-.39-.67-.15-.24-.53-.09-.46.19h0Z"/>
      <path class="cls-47" d="M97.16,351.55c-.09.05-.18.12-.28.16-.12.06-.25.1-.37.16-.21.1-.42.2-.61.33-.41.29-.81.59-1.18.92-.7.64-1.36,1.33-1.95,2.08-1.22,1.54-2.15,3.33-2.79,5.18-.32.94-.55,1.9-.71,2.88-.19,1.17-.28,2.35-.43,3.53,0,.07-.02.14-.03.2-.02.12,0,.04,0,.02,0,.04-.01.08-.02.12-.02.15-.04.29-.06.44-.04.28-.09.56-.15.84-.11.54-.25,1.08-.43,1.61-.08.25-.18.51-.27.75-.02.06-.05.12-.07.17-.01.02-.02.05-.03.07,0,.01-.05.12-.02.05.03-.06,0,.02-.01.03-.01.03-.03.07-.04.1-.03.07-.06.13-.09.2-.22.49-.47.97-.73,1.44-.53.95-1.13,1.87-1.78,2.75-.16.22-.32.43-.48.64-.07.09-.02.03,0,.01-.02.02-.03.04-.05.07-.04.05-.08.1-.12.15-.09.12-.18.23-.27.35-.34.42-.68.83-1.03,1.23-.09.11-.19.21-.27.32-.1.13-.14.31-.2.47-.06.17.03.39.17.49.16.12.34.12.52.04.14-.07.28-.12.39-.23.1-.1.19-.22.28-.32.17-.2.34-.4.51-.6.37-.44.72-.89,1.07-1.34.66-.86,1.29-1.74,1.85-2.67,1.15-1.88,2.02-3.91,2.38-6.08.2-1.17.29-2.35.43-3.52.02-.15.03-.29.05-.44,0-.07.02-.14.03-.2,0,.01-.01.08,0,.01,0-.05.01-.1.02-.15.04-.28.09-.56.14-.84.09-.47.2-.94.32-1.4s.27-.9.43-1.33c.08-.23.17-.45.27-.68-.04.1.01-.02.03-.06.02-.05.05-.1.07-.16.05-.11.1-.22.15-.33.4-.85.87-1.68,1.41-2.45.14-.2.28-.4.42-.59.07-.09.13-.18.2-.27.03-.05.07-.09.1-.13.04-.05,0,.01-.01.02.02-.03.05-.06.07-.1.29-.37.6-.74.93-1.09s.65-.67.99-1c.17-.17.35-.34.52-.5s.32-.33.48-.5.3-.34.49-.48c.22-.17.03-.53-.22-.38h0Z"/>
      <path class="cls-47" d="M106.05,370.15c-2.37-1.39-5.58-1.24-7.8.38-.6.44-1.09.95-1.55,1.53-.25.31-.49.63-.74.93-.12.14-.25.28-.38.42-.06.06-.12.12-.19.18-.04.03-.08.07-.12.1-.01.01-.15.12-.1.08-.3.23-.64.41-.99.57-.01,0-.09.04-.02,0-.05.02-.09.04-.14.06-.09.03-.17.07-.26.1-.18.07-.37.13-.55.18-.75.23-1.51.4-2.25.66-1.53.53-2.74,1.7-3.79,2.89-.19.22-.39.43-.29.74.07.22.23.33.46.33.29,0,.45-.23.62-.43.14-.15.27-.31.41-.45.26-.28.54-.55.82-.81.14-.13.29-.25.44-.37,0,0,.13-.1.06-.05.04-.03.08-.06.12-.09.08-.06.17-.12.25-.18.15-.1.31-.2.47-.29.09-.05.17-.09.26-.14.03-.01.06-.03.09-.04.03-.01.06-.03.09-.04-.05.02-.04.02.01,0,.36-.14.73-.25,1.11-.36.73-.21,1.48-.38,2.19-.67.77-.32,1.47-.75,2.03-1.37.53-.58.96-1.26,1.45-1.83s.92-.94,1.51-1.29,1.14-.6,1.78-.79c1.27-.36,2.65-.37,3.91.03.31.1.6.22.89.37.23.11.42-.21.2-.34h0Z"/>
      <path class="cls-47" d="M19.29,388.32c.51-.15,1-.36,1.43-.66s.84-.65,1.22-1.03c.76-.77,1.41-1.63,2.09-2.47.76-.94,1.58-1.81,2.52-2.56s2.04-1.48,3.21-1.89c.58-.2,1.18-.33,1.8-.34.69,0,1.37.11,2.06.14s1.33-.05,1.98-.24,1.22-.46,1.82-.73c1.08-.49,2.17-.9,3.33-1.16s2.29-.36,3.46-.35c2.32.03,4.65.58,6.7,1.64.26.13.51.27.76.42.2.12.47.05.59-.16s.05-.47-.16-.59c-2.1-1.21-4.47-1.9-6.88-2.07s-4.82.19-7.04,1.1c-1.18.48-2.3,1.18-3.56,1.39-.66.11-1.33.04-1.99-.01s-1.36-.07-2.05.05c-1.26.23-2.43.86-3.48,1.58s-2.02,1.58-2.87,2.54c-.72.82-1.36,1.71-2.06,2.54-.34.4-.71.8-1.1,1.15s-.81.64-1.25.91c-.22.13-.44.25-.67.35-.11.05-.19.15-.16.28.03.12.16.19.28.16h0Z"/>
    </g>
    <line class="cls-39" x1="47.57" y1="378.97" x2="94.19" y2="378.97"/>
  </g>
  <g>
    <g>
      <polyline class="cls-48" points="100.77 442.32 100.55 466 119.34 466.97 119.89 439.41"/>
      <path class="cls-64" d="M132.43,465.11c-3.36-1.29-9.27-2.58-10.62-3.89-1.31-1.27-2.22-3.63-2.22-3.63l-19.68-.19-2.08,14.06h39.39s.61-4.27-4.78-6.34Z"/>
      <line class="cls-21" x1="136.52" y1="469.1" x2="97.9" y2="468.95"/>
      <line class="cls-21" x1="123.51" y1="461.38" x2="117.98" y2="464.11"/>
      <line class="cls-21" x1="125.48" y1="462.46" x2="119.95" y2="465.18"/>
    </g>
    <g>
      <polyline class="cls-48" points="137.45 442.32 137.24 466 156.03 466.97 156.58 439.41"/>
      <path class="cls-64" d="M169.11,465.11c-3.36-1.29-9.27-2.58-10.61-3.89-1.31-1.27-2.22-3.63-2.22-3.63l-19.68-.19-1.2,14.06h38.5s.61-4.27-4.78-6.34Z"/>
      <line class="cls-21" x1="173.2" y1="469.1" x2="135.47" y2="468.95"/>
      <line class="cls-21" x1="160.19" y1="461.38" x2="154.66" y2="464.11"/>
      <line class="cls-21" x1="162.16" y1="462.46" x2="156.63" y2="465.18"/>
    </g>
    <path class="cls-63" d="M129.01,355.8s2.52,28.57.84,49.17c-1.67,20.6-4.78,53.78-4.78,53.78h-28.39l6.69-53.32,1.86-48.21"/>
    <path class="cls-63" d="M153.99,352.72s3.2,23.47,4.31,44.35c1.11,20.89.2,61.68.2,61.68h-30.79l3.93-59.76-3.8-50.92"/>
    <path class="cls-56" d="M145.48,295.3s4.45,21.8,6.3,36.03c1.86,14.23,2.2,21.39,2.2,21.39h-40.43l-.92-55.43"/>
    <g>
      <path class="cls-48" d="M129.2,247.2c5.88,1.78,9.65,10.84,11.08,16.64,1.29,5.22,1.99,10.06-2.89,11.63-4.1,1.32-11.24-1.12-14.71-3.45-3.02-2.03-5.82-4.68-7.88-7.84-2.72-4.17-.08-8.73,2.79-12.04.37-.42.75-.83,1.13-1.22,2.78-2.82,6.6-4.89,10.47-3.72Z"/>
      <polyline class="cls-48" points="132.31 273.98 132.31 284.56 114.31 283.01 117.28 263.81"/>
      <path class="cls-72" d="M109.17,256.4c.01-.13.02-.26.04-.39.17-1.33.65-2.61,1.24-3.82,1.25-2.51,3.14-4.83,5.52-6.42,1.2-.8,2.53-1.42,3.94-1.77,1.55-.4,3.22-.47,4.63-1.3.67-.39,1.24-.93,1.92-1.3,1.46-.79,3.38-.67,4.73.31.42.3.78.68,1.24.92,1.44.76,3.24-.06,4.8.39,1.47.43,2.42,1.98,2.49,3.5.12,2.64-1.81,5.12-3.67,6.78-.49-.71-1.08-1.36-1.73-1.92-.16-.14-.34-.28-.54-.34-.33-.1-.69,0-1.02.13-2,.78-4.55,2.65-5.17,4.83-.68,2.37.33,5.37.73,7.71.75,4.43-1.62,9.06-6.18,10.31-2.24.62-4.62.35-6.93.07-.68-4.31-3.18-8.09-4.9-11.99-.79-1.8-1.28-3.77-1.12-5.72Z"/>
      <path class="cls-47" d="M136.96,264.75s-.36,3.38,1.35,3.52c1.71.14,1.51-3.15,1.51-3.15l-2.86-.37Z"/>
      <path d="M136.19,254.65c-1.05.34-1.84,1.26-2.16,2.3-.09.31-.14.63-.15.95,0,.13.12.26.25.25s.25-.11.25-.25c0-.06,0-.13,0-.19,0-.03,0-.06,0-.09,0-.01,0-.03,0-.04,0-.03,0,.04,0-.01.02-.13.04-.25.08-.37s.07-.24.12-.36c0-.01.04-.09.02-.04.01-.03.03-.06.04-.09.03-.06.05-.11.08-.17.06-.11.12-.22.19-.32.03-.05.07-.1.11-.15.02-.03-.02.03,0,0,0-.01.02-.02.03-.03.02-.03.04-.05.06-.07.08-.1.17-.19.26-.27.04-.04.09-.08.13-.11.01,0,.02-.02.03-.03,0,0,.04-.03.02-.01s.01,0,.02-.01c.02-.01.03-.03.05-.04.11-.08.22-.15.34-.21.03-.01.06-.03.08-.04.01,0,.03-.01.04-.02,0,0,.07-.03.02,0,.06-.03.13-.05.2-.07.12-.04.22-.17.17-.31-.04-.12-.17-.22-.31-.17h0Z"/>
      <path d="M136.08,258.45c.22.49.67.74,1,.56.33-.18.42-.72.19-1.2-.22-.49-.67-.74-1-.56-.33.18-.42.72-.19,1.2Z"/>
      <path class="cls-48" d="M138.37,258.9c.63.2,1.24.5,1.75.94s.91,1.06,1.06,1.75c.03.12.05.26,0,.37-.05.11-.15.19-.24.25-.74.46-1.62.56-2.47.6"/>
      <line class="cls-20" x1="132.31" y1="275.47" x2="129.09" y2="275.05"/>
      <path class="cls-72" d="M140.85,262.99c-.87-.32-1.8-.44-2.55-.25-1.01.26-2.62,1.17-2.56,3.32,0,0,7.36-1.59,7.36-1.59-.5-.61-1.34-1.15-2.24-1.47Z"/>
      <g>
        <path class="cls-41" d="M131.83,265.59c-.13.46-.26,1.1-.76,1.25-2.62.76-4.42-3.61-4.63-4.79-.25-1.36.03-3.13,1.83-3.76.78-.27,2.15-.04,3.04,1.38"/>
        <path d="M128.37,260.32c.92.73,1.51,1.8,1.72,2.94.06.33.08.66.07.99s.49.32.5,0c.03-1.28-.4-2.56-1.2-3.56-.22-.27-.46-.52-.73-.73-.11-.08-.25-.1-.35,0-.09.09-.11.27,0,.35h0Z"/>
        <path d="M130.04,262.1c-.21-.17-.44-.29-.7-.36s-.52-.08-.78-.03c-.15.02-.28.07-.41.13-.05.02-.1.1-.11.15-.02.06,0,.14.03.19s.09.1.15.11h.07s.09,0,.13-.03h.01s-.04.01-.06.02c.12-.05.25-.08.38-.1h-.07c.14,0,.28,0,.42,0h-.07c.14.01.27.05.4.1l-.06-.03c.12.05.24.12.35.2l-.05-.04s.02.02.03.02c.05.04.1.07.18.07.06,0,.13-.03.18-.07s.08-.11.07-.18c0-.06-.02-.14-.07-.18h0Z"/>
      </g>
    </g>
    <g>
      <path class="cls-48" d="M174.58,303c2.89-2.65,4.74-5.03,6.66-8.45.5-.89.93-1.84,1.14-2.85.57-2.81.37-6.11-1.68-8.12-.38-.38-.8-.73-1.29-.94-.45-.19-.94-.24-1.43-.25-1.39-.02-2.79.3-4.02.94.34.35.68.7,1.02,1.05-.53.16-1.08.42-1.32.91-.24.5.08,1.25.63,1.22-.62.14-1.38.44-1.39,1.07,0,.23.1.44.13.66.07.56-.33,1.05-.68,1.48-2.42,2.96-3.9,6.68-4.18,10.49"/>
      <g>
        <polygon class="cls-49" points="157.24 307.85 133.83 295.54 162.56 270.66 185.96 282.97 157.24 307.85"/>
        <polygon class="cls-53" points="158.31 303.81 138.95 293.63 163.01 273.2 182.37 283.38 158.31 303.81"/>
        <polygon class="cls-67" points="178.51 280.01 168.41 274.7 169.92 273.56 180.01 278.87 178.51 280.01"/>
        <rect class="cls-59" x="170.22" y="272.77" width="1.06" height="15.85" transform="translate(-157.16 301.2) rotate(-62.26)"/>
        <rect class="cls-59" x="166.32" y="275.88" width="1.06" height="15.85" transform="translate(-162 299.41) rotate(-62.27)"/>
        <rect class="cls-59" x="162.42" y="278.99" width="1.06" height="15.85" transform="translate(-166.83 297.62) rotate(-62.27)"/>
        <rect class="cls-59" x="158.52" y="282.1" width="1.06" height="15.85" transform="translate(-171.67 295.83) rotate(-62.27)"/>
        <rect class="cls-59" x="154.62" y="285.21" width="1.06" height="15.85" transform="translate(-176.51 294.04) rotate(-62.26)"/>
        <rect class="cls-59" x="150.71" y="288.32" width="1.06" height="15.85" transform="translate(-181.35 292.24) rotate(-62.26)"/>
      </g>
      <g>
        <path class="cls-48" d="M138.78,284.74c1.49-1.64,3.08-3.2,4.75-4.67,1.03-.9,2.03-2.03,3.36-2.4,1.95-.55,4.82-2.01,6.73-.71.47.32.92.72,1.16,1.23.24.52.23,1.18-.15,1.61.55-.09,1.06.42,1.14.97.08.55-.16,1.1-.46,1.57.17-.13.38.13.44.34.19.7.26,1.54-.23,2.09.22.39.28.87.15,1.3-.31,1.03-1.35,1.23-2.13,1.77-.41.27-.83.47-1.25.72-.54.32-.99.77-1.47,1.17-3,2.5-7.11,3.07-10.99,3.53"/>
        <path d="M151.35,279.15c.36-.27.73-.54,1.09-.81.05-.04.1-.08.11-.15.02-.06,0-.14-.03-.19s-.09-.1-.15-.11-.14-.01-.19.03c-.36.27-.73.54-1.09.81-.05.04-.1.08-.11.15-.02.06,0,.14.03.19s.09.1.15.11.14.01.19-.03h0Z"/>
        <path d="M149.39,281.88c-.03.23.18.39.38.45.19.05.4.06.59.07.38.02.77-.01,1.15-.08.75-.14,1.48-.45,2.09-.9.35-.26.67-.56.94-.91.08-.11.1-.25,0-.35-.09-.09-.27-.11-.35,0-.81,1.04-2.08,1.69-3.4,1.75-.18,0-.37,0-.55,0-.08,0-.17-.01-.25-.03-.04,0-.07-.02-.11-.02,0,0-.03-.01-.03-.01.02-.02.03.15.04.06.02-.13-.13-.25-.25-.25-.15,0-.23.12-.25.25h0Z"/>
        <path d="M149.69,282.4c-.06.51-.06,1.06.34,1.45.34.33.82.45,1.27.5.93.11,1.9-.1,2.72-.56.47-.26.89-.6,1.23-1.01.09-.1.1-.25,0-.35-.09-.09-.27-.1-.35,0-.53.63-1.25,1.08-2.04,1.3-.39.11-.8.16-1.2.14-.37-.01-.78-.06-1.11-.26-.44-.27-.4-.76-.35-1.22.01-.13-.13-.25-.25-.25-.15,0-.23.11-.25.25h0Z"/>
        <path d="M150.55,284.31c0,.37.17.72.44.97.28.27.66.41,1.03.48s.78.08,1.17.07c.37,0,.74-.05,1.09-.14.41-.11.79-.29,1.11-.56.1-.09.09-.26,0-.35-.1-.1-.25-.09-.35,0-.46.38-1.09.52-1.67.55-.33.02-.66.01-.99-.02s-.64-.1-.9-.27c-.25-.16-.43-.43-.42-.72,0-.32-.49-.32-.5,0h0Z"/>
        <path d="M151.44,285.51c-.03.27-.06.54-.02.81s.14.52.32.74c.32.4.85.59,1.35.62.33.02.65-.03.97-.11.13-.03.21-.18.17-.31-.04-.13-.17-.21-.31-.17-.13.03-.26.06-.38.07.05,0-.02,0-.04,0-.03,0-.06,0-.1,0-.06,0-.13,0-.2,0-.06,0-.12,0-.18,0-.01,0-.03,0-.04,0,0,0-.07,0-.03,0,.03,0-.01,0-.02,0-.02,0-.04,0-.05,0-.06-.01-.11-.02-.17-.04-.05-.01-.1-.04-.15-.05.05.01.03.01.01,0-.01,0-.02,0-.03-.01-.02-.01-.05-.02-.07-.03-.05-.03-.09-.05-.14-.08-.02-.01-.04-.03-.06-.04.04.02.03.02.01,0,0,0-.02-.01-.03-.02-.04-.03-.08-.07-.12-.11-.02-.02-.03-.04-.05-.06-.02-.02-.01,0,0,.01,0,0-.02-.02-.02-.03-.03-.04-.06-.09-.08-.13,0-.01-.01-.02-.02-.03,0,0-.02-.05,0-.02.01.03,0,0,0-.02,0-.01,0-.03-.01-.04-.02-.06-.04-.12-.05-.19,0-.01,0-.03,0-.04,0,.06,0,0,0-.01,0-.03,0-.07,0-.1,0-.07,0-.14,0-.21,0-.14.02-.28.04-.41.01-.13-.13-.25-.25-.25-.15,0-.23.11-.25.25h0Z"/>
        <polygon class="cls-49" points="156.37 291.45 144.78 269.68 146.19 268.93 157.78 290.7 157.85 292.71 156.37 291.45"/>
        <path class="cls-41" d="M147.41,279s3.12.04,3.88.16c.77.13,2.53,1.17,2.26,1.8-.27.63-2.39.02-2.8.3-.41.28-2.48.69-2.48.69,0,0-.16,5.24-2.78,8.4"/>
      </g>
      <path class="cls-47" d="M147.34,327.32c2.05,24.74,0,89.6,0,89.6h-27.87l.43-20.62-4.75,20.62-26.68-1.14,19.71-74.33s1-31.45,1.12-34.67c.45-12.24,2.81-24,2.81-24l30.4,5.12s2.79,14.68,4.83,39.42Z"/>
      <path class="cls-25" d="M141.49,303.55s3.84,52.24,0,112.93"/>
      <path class="cls-47" d="M136.99,284.23s-1.67-5.92-3.68-6.11c-2.01-.2-17.44-.34-18.42-.05-.98.3-2.26,4.34-2.26,4.34"/>
      <path class="cls-47" d="M112.1,282.78s20.23-.92,23.83-.37c3.6.55,9.87,3.01,12.14,7.04,2.27,4.04,9.36,17.54,9.36,17.54l12.64-10.13,13.25,10.13s-13.79,14.41-18.06,18.72c-5.42,5.45-12.54,9.1-19.19.44-8.51-11.09-15.94-24.18-15.94-24.18"/>
      <line class="cls-12" x1="147.34" y1="327.32" x2="132.02" y2="305.13"/>
      <line class="cls-12" x1="135.94" y1="282.41" x2="112.1" y2="282.78"/>
      <line class="cls-12" x1="157.45" y1="306.99" x2="162.27" y2="313.95"/>
      <g>
        <path class="cls-48" d="M180.05,290.66c-.33-1.89-.88-3.73-1.64-5.5-.12-.27-.32-.59-.61-.56-.19.02-.33.19-.44.35-.69,1.06-.97,2.38-.75,3.63.07.41.2.83.16,1.25-.11,1.11-1.27,1.75-2.04,2.56-.73.78-1.16,1.84-1.16,2.91"/>
        <path class="cls-20" d="M179.57,288.51s.93,2.84.75,4.2"/>
        <path class="cls-20" d="M176.77,289.83c-.12.48-4.34,4.61-3.79,6.85"/>
      </g>
    </g>
    <path class="cls-12" d="M109.29,354.74c5.26-2.25,10.13-5.39,14.36-9.24"/>
    <path class="cls-12" d="M112.1,348.07c2.38-1.4,8.46-6.63,10.07-10.28"/>
  </g>
  <g>
    <line class="cls-39" x1="634.69" y1="471.46" x2="656.1" y2="471.46"/>
    <line class="cls-39" x1="9.03" y1="471.46" x2="627.62" y2="471.46"/>
  </g>
  <g>
    <g>
      <polyline class="cls-55" points="410.25 434.04 410.84 463.02 385.94 464.46 384.86 430.74"/>
      <g>
        <path class="cls-62" d="M368.56,462.37c4.31-1.95,12.26-3.29,14.02-4.91,1.72-1.58,2.52-2.58,2.52-2.58l26.21-.93.96,16.27h-50.96s.39-4.74,7.25-7.85Z"/>
        <path class="cls-3" d="M411.54,457.81s-7.4,1.8-8.61,8.94"/>
        <line class="cls-3" x1="362.57" y1="467.3" x2="412.15" y2="466.62"/>
        <line class="cls-3" x1="380.34" y1="457.68" x2="387.71" y2="460.94"/>
        <line class="cls-3" x1="377.74" y1="459.03" x2="385.11" y2="462.28"/>
        <line class="cls-3" x1="374.01" y1="460.39" x2="381.38" y2="463.64"/>
      </g>
    </g>
    <g>
      <polyline class="cls-48" points="431.67 434.04 435.27 463.02 410.37 464.46 405.81 430.74"/>
      <g>
        <path class="cls-61" d="M392.19,462.37c4.31-1.95,12.26-3.29,14.02-4.91,1.72-1.58,2.52-2.58,2.52-2.58l26.21-.93.96,16.27h-50.96s.39-4.74,7.25-7.85Z"/>
        <path class="cls-32" d="M435.17,457.81s-7.4,1.8-8.61,8.94"/>
        <line class="cls-32" x1="386.2" y1="467.3" x2="435.77" y2="466.62"/>
        <line class="cls-32" x1="403.97" y1="457.68" x2="411.33" y2="460.94"/>
        <line class="cls-32" x1="401.37" y1="459.03" x2="408.73" y2="462.28"/>
        <line class="cls-32" x1="397.64" y1="460.39" x2="405" y2="463.64"/>
      </g>
    </g>
    <path class="cls-56" d="M408.16,322.53s7.93,15.94,4.63,31.03c-3.3,15.09-9.54,37.43-9.54,37.43l8.6,60.74h-29.15s-4.8-37.4-6.61-46.09c-1.56-7.53-2.4-14.67-.55-26.58,2.52-16.19,5.1-45.23,5.1-45.23"/>
    <path class="cls-56" d="M430.86,327.05s5.37,13.28,3.25,28.58c-3.25,23.5-5.56,42.99-5.56,42.99l7.22,53.1h-29.15s-9.25-48.08-9.66-55.39c-.41-7.31,7.6-62.51,7.6-62.51"/>
    <path class="cls-27" d="M406.63,451.72s-9.25-48.08-9.66-55.39c-.41-7.31,7.6-62.51,7.6-62.51"/>
  </g>
  <g>
    <g>
      <path class="cls-44" d="M291.72,305.79c7-1.18,11.62-8.49,10.3-16.34-1.32-7.85-8.06-13.26-15.07-12.09-7,1.18-11.61,8.49-10.3,16.34,1.32,7.85,8.07,13.26,15.07,12.09Z"/>
      <path class="cls-29" d="M287.13,281.65c-2.56,1.05-4.91,3.14-5.87,5.76-2.17,5.92,1.09,13.38,8.72,14.78"/>
      <path class="cls-29" d="M297.44,287.87c.43,2.12.83,3.7.55,5.84-.29,2.14-1.64,4.96-3.35,6.29"/>
      <path class="cls-48" d="M318.01,300.47s-6.27-1.23-10.99-2.67c-5.16-1.58-11.47-4.26-11.3-5.03.31-1.45,8.29.24,8.52-.95.24-1.2-3.15-4.9-4.46-5.07-1.31-.17-4.47,3.27-6.83,2.24-1.24-.54,1.64-3.16,2.61-4.06.92-.86,3.61-3.52,4.22-3.32.61.2,3.06-1.29,3.84-1.49.78-.2,3.25.2,4.16.33.92.13,3.31.53,4.88.62,1.58.09,11.22,1.88,11.22,1.88"/>
      <path class="cls-2" d="M299.78,281.59c.3,0,6.33,4.76,6.91,5.32"/>
      <path class="cls-2" d="M308.17,284.46c-.13-.06-6.16-3.64-6.16-3.64"/>
      <path class="cls-2" d="M309.17,282.15c-.11,0-4.83-2.1-4.83-2.1"/>
      <path class="cls-49" d="M291.4,287.45h4.09v5.49c0,.6-.48,1.08-1.08,1.08h-1.93c-.6,0-1.08-.48-1.08-1.08v-5.49h0Z" transform="translate(548.79 -33.96) rotate(83.45)"/>
    </g>
    <g>
      <path class="cls-72" d="M383.18,221.29c-4.21-3.97-.53-8.9,3.95-10.33,2.79-.89,5.97-.46,8.42,1.14,4.1,2.68,5.88,8.15,10.25,10.37,2.19,1.11,4.75,1.25,7,2.23,4.96,2.17,7.36,8.8,4.95,13.63-.48.97-1.13,2.13-.55,3.04.25.4.69.64,1.09.88,3.37,2.05,5.57,5.91,5.61,9.86.04,3.95-2.06,7.86-5.39,9.99-3.61,2.31-8.13,2.47-12.42,2.56-1.27.03-2.57.05-3.77-.37-1.28-.45-2.35-1.38-3.25-2.4-1.85-2.12-3.11-4.75-3.6-7.53-.41-2.32-.4-4.98-2.1-6.61-.83-.8-1.97-1.22-2.85-1.97-2.11-1.8-2.28-4.94-2.29-7.71,0-2.5-.01-5.03.56-7.47"/>
      <path class="cls-48" d="M395.67,244.53l4.64,14,4.88,3.91s-1.98,10.12-15.31,13.07c-13.33,2.95-16.77-12.55-16.77-12.55l7.45-3.35-1.75-11.35,13-10.84,3.86,7.1Z"/>
      <path class="cls-48" d="M371.12,230.21c.47-.72,1.02-1.38,1.66-1.94,2.81-2.44,7.09-2.07,10.36-.88,2.2.81,4.19,2.23,5.53,4.15,2.6,3.75,2.38,8.87.71,13.11-1.15,2.92-2.96,5.62-5.47,7.51-3.89,2.92-8.97,3.39-12.45.42-2.16-1.84-2.69-4.47-2.65-8.39.03-2.76-.31-6.03.16-8.62.33-1.82,1.09-3.74,2.15-5.37Z"/>
      <path class="cls-72" d="M397.59,237.43c.58-7.27-1.91-17.8-11.67-16.99-.47.04-.94.1-1.4.05-.5-.05-.97-.23-1.44-.39-5.43-1.76-12.23,0-15.43,4.89-1.63,2.49-2.73,6.13-1.63,9.04.35.93.94,1.75,1.69,2.4.07.06,1.05.71,1.04.77.04-.18,11.25-4.29,13.26-5.41.48,1.91,1.78,4.02,2.82,5.31.92,1.14,11.06,8.32,11.06,8.32,0,0,1.44-4.83,1.69-7.99Z"/>
      <g>
        <path class="cls-48" d="M386.58,240.62c.64-1.32,2.17-2.24,3.66-1.8,3.36,1,2.84,4.98,1.58,7.21-1.27,2.24-4.08,3.01-5.12.88"/>
        <path class="cls-2" d="M392.49,244.38s-1.97,5.95-5.43,3.07"/>
        <path class="cls-2" d="M390.32,240.69c-.79.21-1.44.79-1.81,1.52-.37.72-.47,1.56-.38,2.37.08.69.36,1.42.97,1.74"/>
        <path class="cls-2" d="M388.76,241.95c.19-.06.39-.04.58.02.44.14.8.48,1,.9.2.41.25.9.16,1.35"/>
      </g>
      <path class="cls-2" d="M385.91,249.91s-1.27,2.73-5.96,4.62"/>
      <path d="M376.33,241.02c-.03.56.3,1.03.73,1.05.44.02.82-.41.85-.96.03-.56-.3-1.03-.73-1.05-.44-.02-.82.41-.85.96Z"/>
      <path d="M369.65,241.09c-.03.56.3,1.03.73,1.05.44.02.82-.41.85-.96.03-.56-.3-1.03-.73-1.05-.44-.03-.82.41-.85.96Z"/>
      <path class="cls-2" d="M373.29,240.4c-.17.81-.42,1.6-.63,2.4-.16.61-.63,1.79-.21,2.36.36.5,1.67.22,1.9-.26"/>
      <path class="cls-47" d="M377.04,245.32l-3.44,2.61c2.55,3.67,6.09.28,3.44-2.61Z"/>
      <path d="M381.64,237.2c-.43-.38-.88-.77-1.39-1.04-.57-.29-1.19-.38-1.81-.26-.34.07-.67.21-.99.36-.15.07-.2.3-.12.44.1.15.28.2.44.12.17-.08.27-.13.44-.19.16-.06.32-.09.49-.13.04,0,.04,0,.01,0,.02,0,.04,0,.07,0,.04,0,.09,0,.13,0,.08,0,.15,0,.23,0,.14,0,.27.03.45.09.16.05.28.11.44.19.15.08.29.17.42.27s.22.16.36.28c.13.11.25.22.38.33s.33.13.45,0c.11-.12.13-.34,0-.45h0Z"/>
      <path d="M372.81,236.29c-.34-.41-.76-.8-1.29-.94-.26-.07-.55-.07-.81.02s-.49.23-.7.4-.39.38-.56.58c-.11.13-.13.33,0,.45.12.11.34.14.45,0,.14-.17.29-.33.45-.49.04-.04.08-.07.13-.11,0,0,.02-.01.03-.02.03-.03-.05.04-.01,0,.02-.02.05-.03.07-.05.09-.06.18-.1.27-.15-.08.04,0,0,.02,0s.05-.02.07-.02.05-.01.07-.02c.01,0,.02,0,.03,0,.07-.01-.01,0-.01,0,0,0,.14,0,.15,0,.03,0,.05,0,.08,0,.04,0-.06-.01-.02,0,.02,0,.04,0,.05,0,.05.01.1.02.15.04.02,0,.05.02.07.03.03.01-.02,0-.03-.01,0,0,.04.02.05.02.1.05.2.11.29.18,0,0,.03.02.03.02-.03-.02-.04-.03-.02-.01,0,0,.01,0,.02.01.02.02.05.04.07.06.05.05.1.09.15.14.1.1.19.2.28.3.11.13.34.12.45,0,.13-.14.11-.32,0-.45h0Z"/>
      <path class="cls-35" d="M383.58,220.26s6.47-3.83,12.93,6.2c4.99,7.75-.6,18.96-.6,18.96"/>
    </g>
    <g>
      <path class="cls-48" d="M358.14,275.89l-12.87,12.67s-22.11-6.5-26.24-6.5-6.16,16.57-6.16,16.57l28.85,11.28c6.01,1.35,12.29-.38,16.76-4.61l23.15-21.86"/>
      <path class="cls-56" d="M375.83,261.59s-7.29,2.09-11.62,6.14c-6.88,6.43-13.33,14.94-13.33,14.94l23.47,18.89,8.64-22.84"/>
      <line class="cls-27" x1="369.76" y1="290.89" x2="375.14" y2="298.13"/>
      <g>
        <path class="cls-56" d="M376.33,325.72c.02-4.58-4.5-17.61-6.64-26.72-2.14-9.12-1.76-11.68-1.51-15.71.26-4.03-.64-17.5-.64-17.5l8.3-4.19,11.2,13.21,13.28-16.27s10.63,3.7,14.08,6.81c6.23,5.6,8.67,13.25,10.45,22.6,1.79,9.35,8.11,54.97,8.11,54.97l-60.67,2.99s4.03-15.59,4.04-20.18Z"/>
        <line class="cls-27" x1="432.95" y1="342.91" x2="372.28" y2="345.89"/>
        <line class="cls-27" x1="387.04" y1="274.8" x2="382.3" y2="280.94"/>
      </g>
      <path class="cls-27" d="M369.24,297.8s-1-17.66-1.09-20.06"/>
    </g>
    <g>
      <path class="cls-42" d="M391.81,244.47c0,.86-.7,1.56-1.56,1.56s-1.56-.7-1.56-1.56.7-1.56,1.56-1.56,1.56.7,1.56,1.56Z"/>
      <path class="cls-6" d="M372.59,253.7s-.93,17.15,7.37,17.57c14.03.71,10.3-26.8,10.3-26.8"/>
      <path class="cls-42" d="M296.87,290.93c6.59-1.67,13.46-1.49,20.18-.89s13.66,1.5,20.51,2.04,13.55.75,20.33.43c5.77-.28,11.67-1.24,16.32-4.91,4.98-3.93,7.81-10,7.84-16.32,0-.83-1.28-.83-1.28,0-.03,5.52-2.3,10.8-6.4,14.51-4.37,3.95-10.16,5.08-15.87,5.4-6.57.37-13.15.19-19.71-.3s-13.4-1.32-20.1-1.98c-7.37-.73-14.91-1.05-22.16.78-.8.2-.46,1.44.34,1.24h0Z"/>
      <path class="cls-48" d="M400.21,289.76l-2.62,11.8-17.34-6.08-7.06,16.07,20.67,8.59c5.12,2.09,10.21,3.03,14.6.37,2.64-1.6,3.64-4.92,4.95-9.55,2.2-7.74,4.54-17.43,4.54-17.43"/>
      <path class="cls-56" d="M402.36,262.16s12.08,1.48,17.29,13.05c3.67,8.16,2.6,25.15,2.6,25.15l-24.54-4.39,2.67-19.79"/>
      <line class="cls-27" x1="399.81" y1="280.44" x2="397.71" y2="295.97"/>
      <path class="cls-48" d="M385.7,297.39s-16.84-7.55-16.81-6.81c.09,2.15,3.79,4.25,4.94,5.82.41.56-.76.48-1.87.14-1.22-.37-5.85-3.09-5.85-3.09,0,0-1.7-3.03-2.02-3.69-.32-.67-3.06-3.46-2.85-1.81.22,1.79,1.97,7.01,1.97,7.01l-.77,6.43c-.3,2.18,2.7,5.89,4.85,7.16,2.15,1.27,8.43,4.06,8.43,4.06"/>
      <line class="cls-2" x1="363.16" y1="295.29" x2="370.06" y2="300.86"/>
      <line class="cls-2" x1="362.64" y1="298.99" x2="369.24" y2="304.76"/>
      <line class="cls-2" x1="362.38" y1="301.72" x2="367.81" y2="306.76"/>
      <line class="cls-2" x1="372.66" y1="296.64" x2="377.35" y2="296.25"/>
      <line class="cls-2" x1="397.59" y1="301.56" x2="406.7" y2="304.99"/>
      <polyline class="cls-27" points="421.72 283.43 422.25 300.36 416.5 299.33"/>
    </g>
  </g>
</svg>