<?xml version="1.0" encoding="UTF-8"?>
<svg id="Layer_1" data-name="Layer 1" xmlns="http://www.w3.org/2000/svg" viewBox="0 0 200 200">
  <defs>
    <style>
      .cls-1 {
        fill: #8ee4fe;
      }

      .cls-2 {
        fill: #f07571;
      }

      .cls-3 {
        fill: #514c68;
      }

      .cls-4 {
        fill: #e4eef8;
      }

      .cls-5 {
        fill: #e5f0f9;
      }

      .cls-6 {
        fill: #fe223d;
      }

      .cls-7 {
        fill: #ececfe;
      }

      .cls-8 {
        fill: #727dac;
      }

      .cls-9 {
        fill: #8cccf9;
      }

      .cls-10 {
        fill: #70c0f8;
      }

      .cls-11 {
        fill: #e51f37;
      }

      .cls-12 {
        fill: #e4eff8;
      }

      .cls-13 {
        fill: #49445e;
      }

      .cls-14 {
        fill: #4f5d99;
      }

      .cls-15 {
        fill: #b9192d;
      }

      .cls-16 {
        fill: #ebebfe;
      }

      .cls-17 {
        fill: #e8e8fe;
      }

      .cls-18 {
        fill: #ebebfd;
      }

      .cls-19 {
        fill: #81cde5;
      }

      .cls-20 {
        fill: #ec524e;
      }

      .cls-21 {
        fill: #ce1c32;
      }
    </style>
  </defs>
  <g>
    <path class="cls-15" d="M30.37,154.01c3.53-.91,7.35-1.11,10.94-.44.06.01.36.88.39.98l-5.24,20.38c-.17,1.83.66,3.23,2.24,4.11l.06.93c-4.62,0-14.73,1.89-14.04-5.04.22-2.19,4.7-15.01,4.11-15.56l-25.01.02c-1.16.07-1.54-1.08-2.46-1.55v-2.29c.92-.46,1.3-1.62,2.46-1.55,8.85.07,17.7-.03,26.54.02Z"/>
    <path class="cls-6" d="M144.83,93.72c4.57,0,14.12-.15,18.04,1.23,3.55,1.25,6.57,4.19,7.92,7.73l9.1,29.35c7.13.57,13.26,3,15.87,10.15,1.49,4.1.98,6.27.2,10.3-4.33,1.23-9.38,1.13-13.74,0-.81,1-2.29.99-3.37.5-.61,4-1.6,8-2.96,11.99,1.43-.09,2.39.19,2.9.87,4.41-1.13,9.34-1.2,13.74,0-1.25,4.65-2.35,9.35-3.79,13.95l-24.06.17-.62-.82c.88-4.51-1.14-9.08-6.02-9.78l-.61-.85c-6.51,1.04-12.9,4.43-15.11,11.01l-.92.44h-20.22c-.01-.66-.01-1.32.04-1.98s.12-1.29.27-1.91c1.55-6.18,3.15-12.39,4.84-18.54.17-.62.45-1.2.73-1.79s.63-1.16.99-1.72c.13-1.23.27-2.46.46-3.68s.4-2.43.71-3.62c4.07-15.43,8.22-30.88,12.79-46.17.35-1.17.81-2.31,1.28-3.45s1-2.26,1.54-3.37Z"/>
    <path class="cls-21" d="M20.07,94.11c13.88-.3,27.79-.39,41.73-.28l.06,1.05c-2.52,1.27-3.98,2.54-5.26,5.06l-14.12,53.3h85.09s.47.76.47.76c-2.32,8.63-4.37,17.36-6.87,25.95h-50.36l-.61-.79c.86-4.44-1.4-9.01-6.09-9.81l-.55-.85c-6.56.96-13.05,4.26-15.12,10.98l-.91.47h-8.78c-2.19-1.25-3.21-2.51-3.06-5.14l5.35-20.8c-3.56-.02-7.13.02-10.68,0l2.67-9.54H7.67c-1.97,0-3.43-4.76-.37-5.33l27.23-.05,2.33-9.88H11.1c-.14,0-1.3-1.31-1.44-1.64-.71-1.67.52-3.45,2.29-3.61l26.79-.11,2.31-9.52H15.3c-1.76,0-2.95-4.77.4-5.32l26.82-.08,2.72-9.49h-25.75c-1.85,0-3.49-4.88.57-5.34Z"/>
    <path class="cls-11" d="M118.89,93.72c2.12.25,4.1,0,5.94-.76,6.37-.52,13.73-.14,20.01.76-5.99,19.87-11.38,40.18-16.79,60.28H41.43s14.48-54.39,14.48-54.39l2.1-3.24,3.64-2.27H20.07c.4-.64,1.45-.38,2.09-.39,32.21-.4,64.57,0,96.73,0Z"/>
    <path class="cls-21" d="M133.77,74.27c2.87-.09,6.98-.29,9.74,0,1.66.17,1.92.45,2.09,2.09.25,2.37-.19,15.46-.76,17.37-8.54,0-17.44,0-25.95,0,.09-.15.33-.27.38-.38.93-.35,2.08-.51,3.45-.48,2.79-6.28,5.91-12.32,9.36-18.11l1.68-.48Z"/>
    <path class="cls-3" d="M70.81,179.96c-1.67,6.94-9.83,12.78-16.79,11.45l.06-.75c-8.79-7.11-.51-21.41,9.48-22.15,5.85.64,8.55,6.04,7.25,11.45Z"/>
    <path class="cls-3" d="M164.67,179.96c-1.54,7.01-9.46,12.6-16.41,11.45l.05-.62c-9.24-6.85-.64-21.32,9.11-22.27,6.18.6,8.5,5.78,7.25,11.45Z"/>
    <path class="cls-1" d="M195.96,152.48c-.86,4.42-2.26,8.99-3.43,13.35-4.57-.04-9.16.05-13.74,0-.29-.07-.71-.25-.67-.44.47-2.84,2.2-10.19,3.26-12.67l.85-.24c4.57-.07,9.16.05,13.74,0Z"/>
    <path class="cls-6" d="M160.73,49.2c2.17-.12,3.58,2.41,2.37,4.23l-10.42,12.09c-2.98,1.44-5.12-1.04-3.6-3.98,3.43-3.19,6.17-7.97,9.47-11.13.61-.58,1.29-1.15,2.18-1.2Z"/>
    <path class="cls-6" d="M170.3,62.14c3.2-.64,4.62,2.23,2.75,4.67l-13.71,6.9c-3.17,1.05-5.05-2.04-3.04-4.57l14-7Z"/>
    <path class="cls-6" d="M142.43,45.35c2.11-.63,3.75.67,3.91,2.74-1.77,3.93-2.04,10.43-3.89,14.07-1.4,2.76-5.36,1.36-5.18-1.34.13-1.79,2.94-12.08,3.71-13.86.27-.63.75-1.41,1.44-1.61Z"/>
    <path class="cls-13" d="M157.43,168.51c-6.63,2.25-13.2,8.62-12.17,16.18.36,2.67,2.8,6.15,5.69,6.33l-2.67.38c-5.9-.98-8.31-5.71-6.87-11.45,1.65-6.57,9.23-12.11,16.03-11.45Z"/>
    <path class="cls-13" d="M63.56,168.51c-5.21,1.86-9.91,5.1-11.74,10.58-1.62,4.85-.39,10.83,5.25,11.94l-3.05.38c-6.12-1.17-7.78-5.66-6.49-11.45,1.5-6.75,9.14-12.2,16.03-11.45Z"/>
    <path class="cls-6" d="M122.98,51.07c2.09-.62,3.05.35,3.84,2.1.65,1.45,3.41,10.11,3.51,11.41.23,3.14-3.89,4.11-5.35,1.12-.71-1.46-3.18-9.53-3.38-11.12-.16-1.26-.14-3.06,1.38-3.51Z"/>
    <path class="cls-6" d="M106.57,64.8c.84-.25,1.51-.08,2.29.23.87.34,9.64,6.28,10.22,6.94,2.17,2.47-.11,5.46-3.23,4.38-.57-.2-9.47-6.32-9.95-6.83-1.39-1.46-1.4-4.1.67-4.71Z"/>
    <path class="cls-15" d="M133.77,74.27c-1.1.75-1.69,1.68-2.35,2.8-3.03,5.05-5.19,11.13-8.13,16.29-.66.59-3.24.66-4.01,0,1.56-3.65,6.76-15.45,8.99-17.91,1.58-1.74,3.39-1.1,5.51-1.17Z"/>
    <path class="cls-1" d="M157.04,106.7c.58.37,1.09.8,1.53,1.33,3.05,7.84,5.27,16.12,7.63,24.23-5.46-.06-10.95.09-16.41,0l-.05-2c1.54-8,3.48-16.53,6.24-23.89l1.06.33Z"/>
    <path class="cls-19" d="M157.04,106.7c-1.02-.22-.76.51-.94,1.14-2.38,8.04-4.41,16.26-6.31,24.43-1.27-.02-2.55.02-3.82,0l6.89-26.68c1.61-.15,2.88.28,4.17,1.12Z"/>
    <path class="cls-19" d="M182.23,152.48l-3.43,13.35c-1.04-.01-2.25.11-3.25,0-.58-.06-.64.21-.5-.51.82-4.2,2.83-8.52,3.39-12.83,1.26-.05,2.54,0,3.8-.02Z"/>
    <path class="cls-1" d="M88.36,169.65c-3.12-.45-3.12-4.89,0-5.34,7.41-.2,14.87.13,22.3.02,2.91.43,2.92,4.86,0,5.29-7.42-.11-14.88.24-22.3.02Z"/>
    <path class="cls-19" d="M88.36,164.31c-2.09,2.04-2.08,3.31,0,5.34-2.32-.07-5.54.57-5.38-2.86.13-2.89,3.44-2.43,5.38-2.48Z"/>
    <path class="cls-1" d="M114.69,140.27l-58.05-.11c-.78.18-1.14-.96-.99-1.58,2.45-10.24,5.13-20.85,8.62-30.66l1.58-.46c19.32-.35,38.7.12,58.02.17l.39,1.16c-2.52,9.24-4.55,18.99-7.39,28.13-.39,1.26-.58,3.24-2.18,3.35Z"/>
    <path class="cls-19" d="M65.85,107.46c-1.42.87-1.61,2.35-2.1,3.82-2.92,8.78-4.55,18.51-7.36,27.39l.28,1.44,58.02.17-64.05-.05c-.21-.88-.04-1.77.12-2.64,1.64-9.25,5.86-19.16,7.76-28.49,1.17-2.51,4.87-1.59,7.33-1.64Z"/>
    <path class="cls-5" d="M157.47,150.54h5.11c1.44,0,2.19,1.75,1.44,3.16-.33.63-1.77,1.89-2.41,1.89h-5.53l-1.59,5.79c-.06.21-1.11,1.09-1.4,1.25-2.03,1.16-3.91-.15-3.38-2.09l1.36-4.95h-5.53c-.6,0-1.27-1.21-1.22-1.84.11-1.49,1.7-3.21,3.24-3.21h4.91l1.36-4.95c.07-.24.77-1.21,1.03-1.48,1.11-1.13,2.66-1.27,3.55-.49.23.2.67,1.1.6,1.34l-1.54,5.58Z"/>
    <path class="cls-4" d="M57.17,182.14c-2.54-2.39,1.08-6.54,3.71-4.27,2.81,2.43-1.15,6.68-3.71,4.27Z"/>
    <path class="cls-12" d="M155.04,182.14c-2.56,2.41-6.52-1.85-3.71-4.27,2.63-2.27,6.24,1.89,3.71,4.27Z"/>
  </g>
  <g>
    <path class="cls-7" d="M55.91,16.42h.36c2.94,8.81,5.87,17.63,8.81,26.45.04.27.04.64-.07.88.1.21.09.68.05.94l-3.42,10.13c.46,2.77,2.04-1.16,2.24-2.12l1.78-5.59.4-.1h.36c3.69,10.84,7.38,21.68,11.07,32.52l-.26.31c-1.02.58-2.04,1.14-3.11,1.63-.25.12-.61-.04-.5.43-.29.32-.49.03-.64-.3-.71-1.61-1.35-3.29-1.96-4.93-6.32,3.12-14.21,3.18-20.93,1.21-1.15-.34-4.38-1.34-5.11-1.99-.23-.2-.44-.42-.59-.69-.46.2-.55.1-.34-.34l-.58-.67c-3.73-11.37-7.47-22.73-11.19-34.08l.26-.31.29-.27c1,.35,2.02.57,2.29-.72l-2.26-16.16c-.25-.33-.3-.63-.14-.9,2.3-2.62,5.28-4.83,8.31-6.56.92-.53,2.74-1.15,3.45-1.71.29-.23.19-.25.28-.49l.4.05,2.26,5.14c1.59-.64,6.73-2.48,8.15-1.95.13.05.25.12.37.19Z"/>
    <path class="cls-17" d="M63.31,16.42c.8-.26,1.26-.15,1.38.34.12.17.11.36-.02.56l7.48,22.38c2.18.16,4.38.24,6.61.26l.19.35-.3.31c-2.09-.11-4.18-.1-6.28.03l-.3-.34-.29.34c-1-.38-2.66.38-1.41,1.15l.16.4,1.96.09c.11-.21.2-.17.27.08.13-.03.33-.06.38.03.24.47,1.6,4.23,1.62,4.57l-.11.73c.41.28.33.49-.17.52l.11.53c-.75,1.29-1.43,2.61-2.04,3.97-.13.33-.16.62-.03.96.68,1.79,2.48-2.39,2.62-2.96l.38-.09c.05-.15.11-.15.17,0l.46.79c2.58,7.61,5.1,15.23,7.57,22.87l.05.92c-2.13,1.94-4.03,3.23-6.53,4.64l-11.17-32.83c-.26-.26-.2-.46.17-.52-.02-.22-.03-.43-.02-.65s.02-.42.08-.61c.56-1.73,1.13-3.46,1.77-5.17-.66-2.1-1.62.31-1.84,1.34l-.66,2.23-.36.12c-.05.15-.11.15-.17,0l-9.11-27.33c-.04-.24.19-.3.69-.17l.51-.37c1.9-.08,3.82-.04,5.71.15l.48.4Z"/>
    <path class="cls-20" d="M32.02,39.46c-.98.16-1.98-.25-2.79-.79-.73,3.93-1.24,7.7-.87,11.72.92,9.93,6.51,18.72,15.12,23.76l.57.72c.12.06.23.28.34.34l.56.61,2.29,7.17-.27.3c-17.18-5.87-27.92-23.18-25.25-41.32.3-2.04.94-4.01,1.37-6.01-1.16-.98-7.16-1.79-4.92-4.24,3-2.3,6.02-4.58,9.03-6.87h.36c1.57,4.77,3.14,9.54,4.71,14.31l-.26.31Z"/>
    <path class="cls-10" d="M71.39,11.78c7.14,2.44,13.28,6.83,17.87,12.81,7.45,9.72,9.82,22.97,5.85,34.63.2.26,4.3,1.46,5.04,2.06.56.46.58,1.57.04,2.07-2.99,2.32-6.02,4.58-9.03,6.87-.13.04-.34.07-.36,0-1.5-4.22-3.04-8.82-4.32-13.12-.34-.64-.38-1.14-.13-1.48l.31-.25,2.38.89c3.76-13.53-1.93-28.28-14.17-35.34l-.55-.71c-.42.18-.5.08-.34-.34l-.56-.61-2.29-7.17.27-.3Z"/>
    <path class="cls-7" d="M64.68,16.77c.15-.06.3-.12.45-.15,1.28-.27,6.95,1.76,8.24,2.56l.59.68c.24.12.32.33.34.34l.58.67,11.06,33.68c.14.31.19.5-.13.71l-.29.26c-.99-.36-2.03-.55-2.29.72l2.26,16.16c.25.33.3.63.14.9-.53.73-1.23,1.29-1.89,1.89-2.58-8.22-5.78-16.29-8.08-24.58-.11-.12-.11-.44-.08-.62l3.84-8.03c.11-.63-.05-1.18-.49-1.66l-7.02-.2-7.69-23,.45-.36Z"/>
    <path class="cls-2" d="M73.62,81.92c.05.16.06.58-.11.7-.4.31-3,1.08-3.68,1.27-7.65,2.19-15.36,1.96-22.86-.6l-2.58-8.08c8.09,4.28,18.32,4.96,26.73,1.21.82,1.63,1.51,3.35,2.17,5.05.08.2.31.4.32.44Z"/>
    <path class="cls-2" d="M32.71,21.75c.12.08.42.63.47.82l2.27,16.28c-.41,1.72-1.59,1.39-2.92.95-.38.37-.61.13-.52-.34l-4.81-14.61c.89-.68,3.14-2.84,3.96-3.17.38-.15,1.21-.13,1.54.08Z"/>
    <path class="cls-9" d="M85.82,55.27c.28-.43.69-.1.52.34l4.81,14.61c-.91.7-3.08,2.81-3.96,3.17-.38.15-1.21.13-1.54-.08-.12-.08-.42-.63-.47-.82l-2.27-16.28c.37-1.69,1.62-1.41,2.92-.95Z"/>
    <path class="cls-9" d="M71.39,11.78l2.58,8.08c-2.95-1.55-6.01-2.52-9.28-3.09-.36-.06-1.04-.3-1.38-.34-.1-.17-.05-.33.14-.48l-1.82-5.52c-.44-.14-.62-.37-.55-.7,3.61.15,6.92.9,10.31,2.06Z"/>
    <path class="cls-9" d="M53.85,10.06c.22-.03.34,0,.39.09l1.73,5.41c.46.15.67.38.63.69-.06,0-.38.14-.69.17-2.98.28-5.98.91-8.68,2.23l-2.49-5.67c.05-.13-.12-.39.1-.53.55-.35,2.79-1.01,3.55-1.23,1.79-.53,3.61-.91,5.46-1.16Z"/>
    <path class="cls-10" d="M61.07,9.72l.83.46,2.01,6.07-.61.17c-2.03-.24-4.66-.3-6.7-.17l-.9-.39-1.85-5.8c2.39-.32,4.8-.45,7.22-.34Z"/>
    <path class="cls-17" d="M32.02,39.46c.16.06.36.29.52.34l11.52,35.07c-13.07-7.26-18.91-21.98-14.95-36.44.98.31,1.95.68,2.92,1.03Z"/>
    <path class="cls-8" d="M58.49,48.91c3.11-.56,2.99,2.39,0,1.89-.07.94.45,3.64-1.09,3.57-.23-.01-.98-.37-.98-.56v-3.01h-6.27c-.66,0-1.24-1.55-.73-2.11l6.25-8.02c.58-.87,2.82-.57,2.82.42v7.82Z"/>
    <path class="cls-8" d="M40.79,52.18h6.45c1,0,1.56,1.84.16,2.05s-6.27.19-7.73.01c-1.2-.14-1.26-1.04-1.04-2.08.67-3.12,7.13-4.93,7.62-7.33.61-3.02-2.73-2.98-4.78-2.55-.75.16-1.83.99-2.48.26-1.35-1.54,2.64-2.34,3.6-2.41,2.08-.15,4.23.12,5.28,2.12,2.55,4.84-4.65,7.19-7.08,9.92Z"/>
    <path class="cls-8" d="M66.23,46.5c-.06.17-.11.34-.17.52-.65,1.94-2.08,7.05-2.95,8.48-.73,1.21-2.07.49-1.79-.75l3.71-11h.17c.59.56.94,1.89,1.03,2.75Z"/>
    <path class="cls-8" d="M78.95,40.32c.91.14.98,1.01.82,1.77l-4.09,8.55h-.17l-.36-.09c-.35-.79-.58-1.56-.67-2.32.09-.18.11-.39.17-.52l.03-.78,2.28-4.38-3.88.02-.32-.2c-.85.02-1.43.05-2.23-.17.25-.37.79-.49,1.61-.34-.33-.69-.35-1.2-.06-1.55,1.83-.04,5.22-.26,6.88,0Z"/>
    <path class="cls-16" d="M72.76,42.38s.19-.18.42-.18c1.41-.02,2.82.03,4.22,0,.23.2-2.49,4.96-2.75,5.5l-1.89-5.33Z"/>
    <path class="cls-14" d="M66.23,46.5c-.46-.51-1.03-2.1-1.03-2.75,0-.43,1.23-4.19,1.47-4.46.69-.79,1.91-.16,1.72.86-.79,2.09-1.45,4.23-2.16,6.35Z"/>
    <path class="cls-14" d="M75.51,50.63c.01.27-1.39,3.21-1.64,3.43-.87.76-2.05.08-1.72-1.2.27-1.05,1.76-3.48,2.33-4.64.35.32,1.02,2.04,1.03,2.41Z"/>
    <path class="cls-14" d="M72.07,40.32l.52,1.89h-2.06c-.69-.19-.97-.15-.85-1.1.15-1.17,1.46-.77,2.4-.79Z"/>
    <path class="cls-17" d="M74.31,20.2c12.97,7.2,18.99,22.06,14.95,36.44-.11.11-2.55-.89-2.92-1.03-.16-.06-.36-.29-.52-.34l-11.52-35.07Z"/>
    <polygon class="cls-18" points="56.43 48.91 51.79 48.91 56.43 42.89 56.43 48.91"/>
  </g>
</svg>