<?xml version="1.0" encoding="UTF-8"?>
<svg id="Layer_1" data-name="Layer 1" xmlns="http://www.w3.org/2000/svg" viewBox="0 0 200 200">
  <defs>
    <style>
      .cls-1 {
        fill: #016fda;
      }

      .cls-2 {
        fill: #fe80a9;
      }

      .cls-3 {
        fill: #c0cee7;
      }

      .cls-4 {
        fill: #6699fe;
      }

      .cls-5 {
        fill: #004080;
      }

      .cls-6 {
        fill: #8292b0;
      }

      .cls-7 {
        fill: #6698fe;
      }

      .cls-8 {
        fill: #fe4d88;
      }

      .cls-9 {
        fill: #80befe;
      }

      .cls-10 {
        fill: #02b8f1;
      }

      .cls-11 {
        fill: #8293b1;
      }

      .cls-12 {
        fill: #b8c8d8;
      }

      .cls-13 {
        fill: #ecf3f9;
      }

      .cls-14 {
        fill: #2b2b37;
      }

      .cls-15 {
        fill: #cedee5;
      }

      .cls-16 {
        fill: #393d48;
      }

      .cls-17 {
        fill: #e5eff1;
      }

      .cls-18 {
        fill: #8597b9;
      }

      .cls-19 {
        fill: #8393b1;
      }

      .cls-20 {
        fill: #fe7fa9;
      }

      .cls-21 {
        fill: #a7b6d3;
      }

      .cls-22 {
        fill: #006fda;
      }

      .cls-23 {
        fill: #fe4d87;
      }
    </style>
  </defs>
  <g>
    <path class="cls-3" d="M117.97,69.67l.27,1.3-4.53,8.55c-3.07,6.37-3.34,7.86,2.39,12.3,12.55,13.39,10.16,34.2,1.94,49.23-3.84,5.02-5.65,8.63-.78,13.77.78.89.89,1.72.34,2.5-3.34,3.39-6.52,5.64-10.4,8.32-.47.32-1.12.29-.93,1.13l-1.01-.33c-2.63-5.95-5.63-11.67-9.01-17.18l.2-.99c11.61-1.53,19.16-20.3,18.5-30.4-.52-8-5.66-13.81-12.08-17.95l-.79-.44c-.61-4.71-6.78-6.45-9.63-2.59h-.91s-7.93,0-7.93,0c-.01-.45,0-.9.05-1.34.27-2.02,4.83-11.94,6.18-13.57.28-.34.61-.65.94-.95l.78-.55c6.17,2.14,11.64-3.95,10.35-10.04l.59-.74h15.49Z"/>
    <path class="cls-22" d="M83.22,31.52c5.43,1.25,10.67,3.82,15.11,7.18l.77.69c-3.66,9.88-8.54,19.55-13.61,28.8-5.43,15.59-19.4,17.9-32.74,10.12l-.51-1.08c7.29-16.63,15.13-33.1,22.85-49.48,2.62,1.43,5.43,2.51,8.12,3.77Z"/>
    <path class="cls-13" d="M117.59,157.31c-.73-2.77-3.78-4.93-4.12-7.78-.44-3.64,2.55-6.32,4.19-9.34,7.68-14.2,10.03-34.8-1.76-47.48-3.27-3.51-6.66-3.94-4.42-10.07,1.55-4.25,4.78-8.69,6.49-12.97,25.88,22.37,22.46,64.43-.38,87.64Z"/>
    <path class="cls-14" d="M114.19,184.51c5.27.77,10.28,6.7,9.82,12.09H3.13c-.2-3.47,1.33-6.4,3.78-8.69l.82-.31c1.3,1.14,2.31,1.99,4.06,2.21h91.21c2.56-.33,2.83-3.04.92-4.45l.08-.85.66-.75c3-.16,6-.19,8.99-.07l.54.83Z"/>
    <path class="cls-5" d="M100.22,39.45c2.78,1.29,5.46,2.82,8.31,3.96l-9.82,21.73-.92.34c-10.12-5.32-17.68,10.39-7.28,14.64l.27.88c-2.2,5.37-4.81,10.57-7.18,15.87-.3.67-.62,2.69-1.63,2.6-.45-.04-6.11-2.94-7.19-3.44-.53-.24-.97.11-1.01.08l-1.24.02c-4.68-2.82-9.6-5.23-14.75-7.2l-.64-1.13c-2.75-1.29-5.4-2.84-8.31-3.78l3.4-6.79c8.38,4,15.33,7.34,24.15,2.05,5.17-3.11,6.86-7.72,9.42-12.87,3.94-7.92,8.85-17.59,12.1-25.68.27-.68.55-1.26.42-2.03.64-.87,2.12-.36,1.89.76Z"/>
    <path class="cls-22" d="M82.46,142.2c4.32.54,5.72,2.23,7.71,5.74,2.12,3.73,7.54,14.61,7.41,18.61-.39,12.24-12.95,13.23-22.31,12.86-4.12-.17-7.95-.63-8.68-5.47,0-1.63-.01-3.28,0-4.91-1.14-1.98-1.19-4.86,0-6.8.18-6.42.56-11.89,6.04-16.24l.52-1.26c.55-.74,5.46-2.99,6.27-2.14.76-.2,2.2-.34,3.02-.38Z"/>
    <path class="cls-5" d="M96.44,148.25c3.2,4.1,7.29,13.46,9.82,18.51,2.79,5.54,5.68,11.24,8.24,16.88.3.66.95.97-.31.87-2.78-.41-7.18.04-10.2,0-2.06.34-4.14.69-6.23.71-8.3.08-16.63.11-24.93.05-1.04,0-2.08-.12-3.12-.25s-2.08-.31-3.12-.5v-10.58c1.28,2.08,2.53,3.99,5.19,4.44,3.2.54,12.46.32,15.59-.47,5.74-1.46,10.02-6.77,9.4-12.81-.26-2.5-7.3-17.77-9.03-19.68-1.42-1.58-3.51-2.19-5.29-3.21,5.16-.25,10.74,1.9,13.98,6.04Z"/>
    <path class="cls-16" d="M66.6,184.51c12.46.02,24.94-.15,37.4,0,2.82,1.63,2.57,5.65-.94,6.05H11.99c-2.16.05-3.55-1.43-5.09-2.65,2.16-2.01,4.39-3.09,7.37-3.39,17.44,0,34.88-.03,52.31,0Z"/>
    <path class="cls-3" d="M20.51,115c-.69-.33-3.44-1.81-3.97-2.26-3.04-2.6-.36-6.43,3.23-5.11l57.98,26.26c1.53,1.44.87,5.27.94,7.39.02.73-.39,1.52.76,1.31-1.41.36-5.63,2.47-6.8,3.4l-.06-7.87c-2.06-.6-4.14-2.6-6.36-2.33-2.67-1.13-5.39-2.22-8.16-3.26l-.16-.89c-.69-.1-1.38-.22-2.06-.38s-1.34-.34-1.96-.61c-10.66-4.59-21.36-9.2-31.75-14.31l-1.62-1.32Z"/>
    <path class="cls-5" d="M57.91,131.62c2.14.98,6.07,2.11,7.85,3.28.41.27.49.36.46.87-.03.65-2.47,6.28-2.82,6.33-4.35-1.96-8.72-3.93-13.05-5.96-7.2-2.12-14.14-5.29-20.4-9.44-3.88-1.8-7.74-3.72-11.55-5.66-.39-.61,1.38-3.67,1.73-4.54l.54-.59,35.06,15.57,2.17.12Z"/>
    <path class="cls-19" d="M66.6,162.22c-.06,2.26.02,4.54,0,6.8-4.29-2.13-8.85-3.73-13.22-5.67-2.49.17-5.63-1.42-7.18-3.4l-1.43.2c-2.69-.97-17.57-6.89-18.3-8.16-.13-.22-.21-.47-.28-.72-3.38-1.84-2.02-6.78,1.99-5.97l38.43,16.92Z"/>
    <path class="cls-16" d="M105.51,14.9l-5.25,12.5c-3.68,6.91-7.69,5.15-13.5,2.51-1.18-.19-1.86-.66-2.03-1.41,3.16-6.29,5.76-12.87,9.06-19.11,4.02,1.56,7.82,3.67,11.72,5.51Z"/>
    <path class="cls-16" d="M54.88,93.09l2.04,1.2c11.55,3.63,9.42,10.31,4.57,19.26-.29,1.39-.85,2.25-1.7,2.58-1.55-.71-12.75-5.52-12.81-6.23,2.67-5.58,5.34-11.19,7.89-16.82Z"/>
    <path class="cls-14" d="M57.15,87.8c5.3,2.49,12.24,4.88,16.62,8.31l-9.83,21.91c-.44.33-3.53-1.61-4.15-1.89,1.06-4.54,5.88-10.57,4.83-15.22-.8-3.56-6.31-4.79-9.01-6.49-.68-.43-.93-.19-.73-1.34.79-1.73,1.58-3.51,2.27-5.29Z"/>
    <path class="cls-14" d="M105.51,14.9c1.59.75,3.35,1.3,4.92,2.09l-10.21,22.46c-.56-.26-1.24-.45-1.89-.76-5.05-2.36-10.06-4.83-15.11-7.18.5-1.01,1.01-2.02,1.51-3.02,4.52.86,8.23,5.18,12.75,1.61,2.51-1.98,4.96-10.77,6.7-14.07.33-.63.41-1.16,1.32-1.13Z"/>
    <path class="cls-14" d="M98.71,65.14c1.23.75,3.37,3.19,3.78,4.53,1.26,4.2-.87,9.37-4.91,11.14-2.74,1.21-4.07,1.04-6.8.19-2.43-.76-4.03-1.6-5.1-4.16-3.63-8.66,5.17-16.53,13.03-11.71Z"/>
    <path class="cls-3" d="M46.2,159.96c2.41,1.07,4.78,2.34,7.18,3.4-.09.93-1.54,5.94-2.07,5.99l-26.41-11.7c-1.03-.49-.13-2.01.15-2.98.32-.79,1.03-.89,2.13-.29l11.33,5.43c3.22,2.06,5.79,2.11,7.7.15Z"/>
    <path class="cls-18" d="M50.35,136.16c-.59,1.51-1.46,4.82-2.87,5.62-1.95,1.11-3.04,0-4.68-.71l-.56-.77c.96-3.44-1.86-5.62-4.67-6.93l-8.21-3.48c-.11-.53-.04-1.09.21-1.66.21-.5.45-.93.38-1.51,6.77,3.14,13.62,6.27,20.4,9.44Z"/>
    <path class="cls-14" d="M102.86,99.89c.12,2.9-2.28,5.67-5.14,6.01-4.91.59-8.8-4.72-6.2-9.04,3.1-5.15,11.09-2.96,11.33,3.02Z"/>
    <path class="cls-21" d="M29.57,128.22c-.23,1.39.15.89.82,1.25,4.85,2.53,14.84,4.24,12.4,11.6-4.64-2.01-9.26-4.53-13.8-6.79-1.97-1.81-.23-4.13.57-6.05Z"/>
    <path class="cls-13" d="M46.2,159.96c.07,1.97-1.93,2.51-3.5,2.19-3.7-.74-11.37-5.25-15.4-6.9-.73-.3-1.46-.57-2.26-.57.32-1.12.97-2.21,1.13-3.4,5.61,3.06,13.91,5.98,20.02,8.69Z"/>
    <path class="cls-1" d="M57.91,131.62c-.95.59-1.77,1-2.84.4l-34.93-15.51c.19-.47.22-1.03.38-1.51,12.19,5.79,25.05,10.97,37.4,16.62Z"/>
    <path class="cls-10" d="M77.83,33.48c2.51-.55,4.35,1.31,3.8,3.8-2.32,3.36-4.13,10.19-6.55,13.11-2.05,2.48-5.99.84-5.3-2.65.26-1.31,5.4-11.68,6.32-12.96.46-.63.93-1.13,1.73-1.3Z"/>
    <path class="cls-14" d="M80.47,151.36c8.5-1.38,9.74,10.73,2.46,11.91-8.5,1.38-9.74-10.73-2.46-11.91Z"/>
    <path class="cls-11" d="M92.56,66.74c8.5-1.38,9.74,10.73,2.46,11.91-8.5,1.38-9.74-10.73-2.46-11.91Z"/>
    <path class="cls-6" d="M95.96,96.94c4.43-.97,5.19,5.14,1.72,5.9-4.43.97-5.19-5.14-1.72-5.9Z"/>
    <path class="cls-6" d="M80.85,154.36c4.43-.97,5.19,5.14,1.72,5.9-4.43.97-5.19-5.14-1.72-5.9Z"/>
  </g>
  <g>
    <path class="cls-17" d="M119.68,127.18l.42.14v20.53l-.42.25-.88.17c-4.85-1.48-10.06-1.78-14.85.07l-7.77,3.26-.8-.16c-.02-3.09.05-6.18-.05-9.27l-6.24-11.04v-1.67c.66-1.24,1.32-2.07,2.82-2.31,9.25.02,18.51-.01,27.76,0Z"/>
    <path class="cls-20" d="M119.68,89.92l.42.14v18.44l-.42.25c-8.8.09-12.88-11.15-5.96-16.74,1.31-1.06,2.58-1.44,4.08-2.1h1.88Z"/>
    <path class="cls-23" d="M121.15,89.92c2.12.65,4.18,1.51,5.65,3.25,5.2,6.15.91,15.5-7.12,15.59v-18.84h1.47Z"/>
    <path class="cls-4" d="M194.04,89.92c5.15,2.06.57,8.84-3.04,5.45-1.83-1.72-.84-4.63,1.37-5.45h1.68Z"/>
    <path class="cls-2" d="M98.32,89.92c3.19.78,3.38,5.36.22,6.18-4.1,1.06-5.68-5.03-1.47-6.18h1.26Z"/>
    <path class="cls-23" d="M143.77,154.18c.53,3.62.53,7.26,0,10.88l.28.6c.26,4.86.39,9.8.37,14.69,0,2.28-.07,4.55-.23,6.83-.34,5.1-4.33,9.84-9.64,9.9-4.95,0-9.92.02-14.87,0l-.42-.2v-48.31l.42-.26.9-.07c7.55,3.49,15.4,2.92,22.44-1.32l.75.13c0,2.37,0,4.75,0,7.12Z"/>
    <path class="cls-20" d="M119.68,148.11c.18.06.18.13,0,.21v48.77c-4.56-.02-13.7.71-17.59-.74-8.28-3.07-6.66-12.08-6.7-19.15l.19-.42,11.94-.04c2.76-.93,2.84-4.5,0-5.37l-11.88-.04-.25-.42c0-2.09,0-4.19,0-6.28l.19-.42,11.75-.04c2.96-.71,3.09-4.45.19-5.36l-11.88-.04-.25-.42c0-2.3.01-4.61,0-6.91,4.18-1.43,8.05-3.92,12.49-4.58,4.11-.61,7.88,0,11.8,1.23Z"/>
    <path class="cls-7" d="M186.7,163.38c2.3,4.49,9.3,16.36,9.63,20.62.49,6.45-4.33,12.4-10.81,13.05s-15.67,0-22.7.03l-.42-.15v-32.66l.42-.26.72-.15c7.58,4.3,14.95,3.92,22.4-.58l.76.11Z"/>
    <path class="cls-15" d="M172.25,106.87c.68,10.5-1.72,22.55,2.14,32.5,2.97,7.63,8.47,16.54,12.31,24.01-3.81,1.74-7.07,3.73-11.41,3.99-5.08.3-8.09-1.55-12.47-3.36-.31.28-.43.15-.21-.21l-.22-.35c.06-17.67.11-35.55.15-53.64l.28-2.93c.18-.11.36-.21.55-.28.7-.26,7.58-.23,8.33.02.19.07.37.16.55.25Z"/>
    <path class="cls-17" d="M162.83,106.87c0,18.58.23,37.2,0,55.78,0,.35.13.93-.21,1.15l-.89.1c-5.4-2.03-11.84-1.93-16.68,1.22-.66.42-1.09.4-1.28-.07,0-3.62,0-7.26,0-10.88,3.78-7.42,8.85-14.58,9.64-23.12v-24.18c.17-.1.35-.19.54-.25.75-.26,7.63-.29,8.33-.02.19.07.37.17.55.28Z"/>
    <path class="cls-9" d="M162.62,163.8c.07.03.13.18.21.21v33.07c-9.42.02-18.85.01-28.27,0,5.07-.92,8.83-4.71,9.22-9.93.52-6.88-.02-15.05,0-22.09,1.02,0,1.79-.85,2.64-1.23,5.26-2.36,10.92-2.19,16.21-.03Z"/>
    <path class="cls-15" d="M143.77,147.06c-2.91,1.22-5.38,2.87-8.54,3.5-5.53,1.1-10.48,0-15.54-2.24v-21.14c7.08.01,14.18,0,21.26,0,1.56.26,2.56,1.26,2.83,2.83,0,5.69-.02,11.38,0,17.06Z"/>
    <path class="cls-23" d="M95.39,170.92l12.2.05c3.31.95,3.23,5.17,0,6.18l-12.2.05c-.01-2.09,0-4.19,0-6.28Z"/>
    <path class="cls-23" d="M95.39,158.36l12.2.05c3.38,1.01,3.23,5.41-.21,6.18l-11.99.05c0-2.09,0-4.19,0-6.28Z"/>
    <path class="cls-15" d="M162.83,100.59c.16.02.41.07.42.19.05.64.1,5.52,0,5.79-.06.16-.25.24-.42.3-3.08,0-6.38.15-9.42,0-.37-.02-.75.04-1.13-.02-3.64-.55-3.59-5.86.18-6.26,3.03-.32,7.2,0,10.37,0Z"/>
    <path class="cls-12" d="M172.25,106.87c-3.05.15-6.35,0-9.42,0v-6.28c3.17,0,7.34-.33,10.37,0,3.77.4,3.83,5.71.18,6.26-.38.06-.75,0-1.13.02Z"/>
    <path class="cls-4" d="M183.51,109.43c4.16-.85,5.3,5.38,1.37,6.18-4.16.85-5.3-5.38-1.37-6.18Z"/>
    <path class="cls-8" d="M136.59,111.53c4.16-.85,5.3,5.38,1.37,6.18-4.16.85-5.3-5.38-1.37-6.18Z"/>
    <path class="cls-2" d="M103.71,114.46c4.16-.85,5.3,5.38,1.37,6.18-4.16.85-5.3-5.38-1.37-6.18Z"/>
    <path class="cls-4" d="M192.51,127.01c4.16-.85,5.3,5.38,1.37,6.18-4.16.85-5.3-5.38-1.37-6.18Z"/>
  </g>
</svg>