<?xml version="1.0" encoding="UTF-8"?>
<svg id="Layer_1" data-name="Layer 1" xmlns="http://www.w3.org/2000/svg" viewBox="0 0 200 200">
  <defs>
    <style>
      .cls-1 {
        fill: #c3d1db;
      }

      .cls-2 {
        fill: #0067c4;
      }

      .cls-3 {
        fill: #febc86;
      }

      .cls-4 {
        fill: #7a8c98;
      }

      .cls-5 {
        fill: #fd5693;
      }

      .cls-6 {
        fill: #c4d2dc;
      }

      .cls-7 {
        fill: #00f1a5;
      }

      .cls-8 {
        fill: #05e29b;
      }

      .cls-9 {
        fill: #e7ecf1;
      }

      .cls-10 {
        fill: #b5c3ce;
      }

      .cls-11 {
        fill: #fdd1a3;
      }

      .cls-12 {
        fill: #0573cd;
      }

      .cls-13 {
        fill: #fd76a7;
      }

      .cls-14 {
        fill: #7a8b97;
      }

      .cls-15 {
        fill: #596c76;
      }

      .cls-16 {
        fill: #7a8c97;
      }

      .cls-17 {
        fill: #d8e6eb;
      }

      .cls-18 {
        fill: #fc3581;
      }

      .cls-19 {
        fill: #6cf4c0;
      }

      .cls-20 {
        fill: #fefefe;
      }

      .cls-21 {
        fill: #6cf4c1;
      }

      .cls-22 {
        fill: #528ed7;
      }
    </style>
  </defs>
  <path class="cls-20" d="M86.12,76.69l.75.26v41.58l-.75.71c.29.08.73.2.75.44.14,1.32.23,10.92,0,11.63l-.75,1.1-.66,1.38c-14.66,10.57-18.56,31.18-8.86,46.41l.1,1.53,2.25,1.76c5.36,6.54,12.81,11.41,21.23,12.78l1.01.89h-52.74l.34-.93c6.35-2.57,5.85-11.29-1.25-12.19l-.59-.81c-.33-.11-.32-.23,0-.38l-.71-.37c3.86-27.12,7.72-54.24,11.58-81.36l.81-.36-.75-.35v-20.29l.75-.45.4-.75c5.19.47,10.25.23,15.17-.7,1.17-1.55,2.13-2.07,2.88-1.56.18-.79.78-1.1,1.81-.92l6.66.23.58.69Z"/>
  <path class="cls-15" d="M141.12,164.05c1.25,3.03-.45,7.75-1.67,10.87-4.74,12.03-16.39,21.91-29.59,22.27-2.77-.22-5.96.3-8.66,0-9.75-1.09-19.08-7.53-24.49-15.44l.9-.51c20.95,12.31,48.22-.13,51.89-24.39,1.32-8.72-.94-15.26-3.97-22.91l.53-.77c.27-.04.54-.07.81-.04,3.15.28,9.89,10.08,11.41,13.14s5.17,14.42,3.39,17.16c-.15.23-.34.42-.54.62Z"/>
  <path class="cls-20" d="M141.12,164.05l.35-.8c3.67.39,7.15.2,10.43-.59,0-.96.3-1.5.9-1.63,2.85-.31,6.16-.3,9.04,0,.3.08.74.21.75.44.11,1.5.26,11.05,0,11.81l-.75.55-.29.82c-10.76,3.8-10.66,17.8.22,21.59l.45.93h-52.36c1.96-.55,3.98-.82,5.94-1.41,14.04-4.19,24.4-16.98,25.33-31.73Z"/>
  <path class="cls-6" d="M46.94,183.25c8.75.54,9.49,11.27,1.51,13.93h-29.01v-14.31l.78-.45c3.91.19,7.87.2,11.87.04l1.08.54c4.6-.14,9.19-.06,13.77.25Z"/>
  <path class="cls-14" d="M167.11,173.84c.29-.57.54-.45.75.38,11.92,3.34,10.67,20.3-1.13,22.97h-4.52c-7.05-2.07-11.49-9.15-8.59-16.3,1.19-2.93,5.03-6.57,8.21-7.04.27-1.31,4.78-1.27,5.27,0Z"/>
  <path class="cls-22" d="M46.94,100.79l.44.89c-.73,7.18-1.71,14.37-2.94,21.58l-.89,1.63c-1.2.62-2.04,1.41-2.5,2.37l-7.92,54.52c1.16.42,2.51.54,4.05.34l.71.75c2.86-1.1,6.2-1.14,9.04,0v.38c-8.27-.51-17.09.27-25.45.02-.72-.02-1.43.04-2.05-.39,0-27.35-.03-54.73,0-82.08l.35-.75h26.7l.45.75Z"/>
  <path class="cls-21" d="M36.77,31.88c.47-.74,1.03-.73,1.51,0,4.25.13,7.45,3.41,8.79,7.27.6,1.74,1.47,5.16-.13,6.29l-.41.31c-1.65-.53-3.15-.07-4.49,1.39.29.08.73.2.75.43.11.96.18,7.61,0,8.25l-.75.54-.43.75c-1.24.21-5.06.34-5.6-.75-.29-.08-.72-.2-.75-.44-.19-1.26-.2-7.39,0-8.61l.75-.55-.76-.12c-.86-1.38-3.03-1.64-3.91-.09-.7,1.23-.64,13.22.31,14.13.84.3,1.42.75,1.73,1.34l.68.62-.38,5.07c.19,9.87,2.89,11.83,12.7,11.25l.57.76c.32.54.65,1.12.69,1.75.17,3.08.69,16.83-.14,18.5-.15.3-.34.57-.55.84h-27.5c.02-19.96-.16-39.93.17-59.89,2.48-9.59,9.07-8.89,17.16-9.02Z"/>
  <path class="cls-10" d="M152.8,158.02c.61.39.89,1.02.84,1.88h26.59s.45.75.45.75l-13.19.38c-.22,4.07-.21,8.19,0,12.38l-.38.43c-1.09-.15-4.2-.16-5.27,0v-12.8h-9.04c-.09,0,.12,1.25-.19,1.88-1,2.09-9.25.75-11.49,1.13.77-12.26-5.17-23.96-15.07-30.88l-1.63-.19c-7.3-4.85-16.05-6.55-24.66-4.99l-1.59-.47c-.22-3.99-.28-8.07-.18-12.26,1.42-1.56,9.52-1.18,12.02-.95,22.62,2.04,42.38,20.89,42.78,43.71Z"/>
  <path class="cls-6" d="M157.69,109.07l-1.47.66c-3.99-.08-7.97,0-11.95.21,6.31,3.12,9.04,8.67,9.39,15.51.32,6.3.14,12.98-.11,19.29-.01.27-.13.53-.26.8s-.31.54-.5.8c1.04,2.86,1.02,5.79,0,8.66,1.07.85,1.05,2.15,0,3.01l-1.38-7.46c-5.77-23.46-29.23-39.08-53.22-35.06l-.02,12.03c-.13.32-.25.32-.38,0-.29-.03-.74-.13-.75-.34-.12-1.57-.29-10.16,0-11.17l.75-.55c-.74-2.12-.74-4.28,0-6.4.08-.29.21-.73.44-.75,2.7-.27,9.59-.35,12.19,0l.55.75c1.75-.74,3.53-.74,5.27,0,4.38-.3,8.8-.29,13.19,0,8.73-.08,17.41-.48,26.19-.38.64,0,1.68-.24,2.07.38Z"/>
  <path class="cls-12" d="M157.69,109.07c5.99.48,9.61,4.4,10.55,10.17.28,8.93.35,17.89.18,26.87.57.55.27.77-.43,1h-14.75s-.44-.75-.44-.75c-.02-7.14.56-15.45.01-22.42-.48-6.12-4-11.29-9.68-13.67l-3.14-1.18c5.75.33,12.01-.46,17.7,0Z"/>
  <path class="cls-13" d="M108.35,73.68c3.72-.03,8.96,4.73,9.51,8.24.07.44.02.65-.47.98l.75.35v24.99l-.75.45c.03-.29.13-.74.34-.75,1.35-.09,10.69-.13,11.09.25.13.12.2.3.25.5l-.54-.91c-.23-7.19-.27-14.42-.11-21.69l.65-1.87.38,24.85c-4.39.04-8.8,0-13.19,0-.55-.3-.93-.71-.85-1.34l.32-10.49c.2-10.27-6.14-4.93-4.58,2.07l.31,9.01-.46.75h-13.19c-.19-.31-.37-.63-.5-.97s-.25-.66-.26-.98c-.18-6.82-.34-13.67-.3-20.5.02-3.3.06-6.69.55-9.88l.88-.43c1.2-3.75,6.95-2.59,10.17-2.64Z"/>
  <path class="cls-11" d="M44.68,62.01c.98.03,1.37.81,1.16,2.32-.42,2.22-.07,3.2,1.04,2.95.03.28.08.51.2.56.5.2,8.94.07,10.26,0,.44-.02.86-.09,1.29-.2.26,0,.97.39,1.67.39,3.73.03,9.38-.52,12.81,0,1.29.2,3.47,1.81,3.98,2.99,1.8.21,1.53,5.19,0,5.65-.68.16-1.68,1.72-2.5,2.2-2.48,1.46-12.45.78-15.95.81-3.76,1.16-7.93,1.19-11.68,0-4.05-.07-8.83.73-11.84-2.66s-2.28-11.01-1.72-15.04l.75-.7c3.26.19,6.54.15,9.81-.01l.75.71Z"/>
  <path class="cls-9" d="M98.17,76.31c-.2.62-.34,1.76-.39,2.43-.68,9.49.02,20.65.02,30.33v6.4l-1.01,1.02c-3.14.77-6.28,1.59-9.24,2.9l-1.42-.16v-42.55c-1.23-.57-.24-2.06.6-2.77,1.77-1.47,6.03-1.34,8.06-.62,1.04.02,2.93,2.03,3.39,3.01Z"/>
  <path class="cls-5" d="M110.61,73.68c1.47-1.15,4.24-1.21,5.65,0,6.72.3,12.29,3.15,12.81,10.54.55,7.93-.41,16.48,0,24.47h-11.68v-25.79c0-.55-1.94-4.07-2.44-4.72-1.77-2.27-4.17-3.21-6.6-4.51.75-.01,1.51,0,2.26,0Z"/>
  <path class="cls-7" d="M41.29,31.88c8.32.11,15.3-.6,17.34,9.59l-.02,26.18c-1.7.19-11.77.54-12.36-.18-.21-.25-.46-6,.68-6.22-.41-.48-.43-.79-.06-1.22l.06-14.59c.8-6.38-2.61-11.64-8.66-13.55.99-.75,2.03-.75,3.01,0Z"/>
  <path class="cls-11" d="M45.81,6.28c3.69,3.66,2.27,10.67-.49,14.6-3.87,5.51-12.3,8.4-17.97,4.23C20.17,13.09,33.19-.42,45.81,6.28Z"/>
  <path class="cls-11" d="M120.4,49.2c3.37,3.62,1.76,10.38-.93,14.07-3.77,5.17-11.75,7.96-17.15,4-7.01-12.05,5.63-25.12,18.08-18.07Z"/>
  <path class="cls-3" d="M41.29,31.88c-1-.01-2.01,0-3.01,0-.5,0-1,0-1.51,0-4.13-1.25-7.19-3.04-9.42-6.78l4.37,1.09c11.1,1.23,18.82-9.92,14.09-19.91,11.67,6.19,7.95,23.2-4.52,25.6Z"/>
  <path class="cls-16" d="M180.67,160.66h-27.88c-.02-.87.03-1.76,0-2.64-.03-1,0-2.01,0-3.01l1.37-.53c6.36-.39,12.84-.28,19.24-.16.46,0,.91.11,1.37.23s.93.28,1.38.46c1.05-.03,2.46.22,3.38-.2,1.3-.59,4.26-4.99,5.55-5.38,2.64-.79,4.9,1.91,3.29,4.43-.5.78-5.2,5.47-6.01,6.04-.54.38-1,.73-1.69.75Z"/>
  <path class="cls-21" d="M168.24,119.24c.04.23.35.57.4,1.27.69,8.25-.57,17.48-.03,25.84h5.84c.21,0,1.58,1.53,1.69,2.08.36,1.87-.24,4.59,0,6.58-7.76.25-15.59-.19-23.36,0-.02-2.88,0-5.78,0-8.66h15.45s0-27.11,0-27.11Z"/>
  <path class="cls-3" d="M116.26,73.68c-1.87-.08-3.78,0-5.65,0-3.83-1.43-6.21-2.82-8.29-6.4l4.76,1.08c10.32.52,17.2-9.61,13.33-19.16,10.77,6.1,7.47,21.67-4.14,24.47Z"/>
  <path class="cls-4" d="M94.78,73.3s-.41.4-.91.39c-3.03-.07-7.27-.86-7.75,3-2.55.39-6.73-.53-9.04,0,.33-1.77.74-3.92,0-5.65h15.63c.88.17,1.98,1.33,2.08,2.26Z"/>
  <path class="cls-10" d="M167.87,174.21c-.3-.09-.68-.37-.75-.38.36-3.84-.49-8.52-.01-12.26.04-.3.02-.56.39-.55l.38,13.18Z"/>
  <path class="cls-14" d="M126.05,133.17l3.72,10.4c6.12,27.78-20.68,51.16-47.52,40.72-1.9-.74-3.56-2.01-5.55-2.55-11.1-16.23-6.89-38.37,9.42-49.33l.55-1.24c3.2-1.86,6.66-3.26,10.23-4.22l.9.56c.12-.03.26.02.38,0,10.31-2.09,19.38-.28,27.88,5.65Z"/>
  <path class="cls-12" d="M58.62,100.79l-11.68,82.08c-3.01-.03-6.03.04-9.04,0l-.71-.37,7.96-54.56-1.6-3.06c.51-7.93,2.87-16.25,3.39-24.1.04-.29.12-.72.34-.75,2.1-.28,8.68-.27,10.8,0l.54.75Z"/>
  <path class="cls-7" d="M58.62,79.7v21.09h-11.68c.46-6.85-.34-14.18,0-21.09,3.88.07,7.8.03,11.68,0Z"/>
  <path class="cls-17" d="M97.8,127.52c-3.58.81-8.64,2.86-11.68,4.89v-13.18c3.68-1.84,7.7-2.79,11.68-3.77v12.05Z"/>
  <path class="cls-1" d="M164,182.55c3.24-.59,4.92,4.74,1.33,5.52-4.37.94-4.6-4.92-1.33-5.52Z"/>
  <path class="cls-2" d="M43.55,124.89c1.47.23,2.73,2.07,2.26,3.57l-7.91,54.42c-1.87-.02-3.82.18-5.66-.19l8.02-55.24c.18-1.68,1.59-2.81,3.29-2.55Z"/>
  <path class="cls-8" d="M33.38,62.01c-1.46-.13-2.56-.49-2.93-2.15s-.34-10.9-.06-12.7c.6-3.83,5.63-2.4,5.63-.4v9.6h6.03v-9.22c0-2.1,3.21-3.23,4.9-1.69.45.41.7,1.07.77,1.68.36,2.93.24,10.14-.12,13.12-.04.37-.63.81-.66,1.02-.27,1.41-1.46,2.1-2.26.75-3.17.21-8.17.27-11.3,0Z"/>
  <path class="cls-18" d="M116.26,109.07c-1.75,0-3.52,0-5.27,0-.43-.63-.37-1.34-.39-2.05-.13-3.58-.42-9.81.05-13.16.55-3.92,5.13-3.74,5.59-.76.74,4.71-.5,11.08.02,15.98Z"/>
  <path class="cls-19" d="M46.94,61.25c-.28,1.94.2,4.4,0,6.4h11.68c-.07,0-.6.4-1.27.4l-12.29-.02c-.3-.3.46-5.11-.37-6.03.93-.06,1.53-.02,2.26-.75Z"/>
  <path class="cls-6" d="M104.11,150.21c14.9-1.96,18.47,20.09,4.33,23.15-16.31,3.53-19.91-21.1-4.33-23.15Z"/>
</svg>