<?xml version="1.0" encoding="UTF-8"?>
<svg id="Layer_1" data-name="Layer 1" xmlns="http://www.w3.org/2000/svg" viewBox="0 0 200 200">
  <defs>
    <style>
      .cls-1 {
        fill: #198ac0;
      }

      .cls-2 {
        fill: #cce3fe;
      }

      .cls-3 {
        fill: #ecf5fe;
      }

      .cls-4 {
        fill: #f5ccbc;
      }

      .cls-5 {
        fill: #1471a8;
      }

      .cls-6 {
        fill: #f7dbcf;
      }

      .cls-7 {
        fill: #c2e5fe;
      }

      .cls-8 {
        fill: #996855;
      }

      .cls-9 {
        fill: #e8f4fe;
      }

      .cls-10 {
        fill: #a47062;
      }

      .cls-11 {
        fill: #146ca3;
      }

      .cls-12 {
        fill: #51251f;
      }

      .cls-13 {
        fill: #f4c9b8;
      }

      .cls-14 {
        fill: #9e6c5b;
      }

      .cls-15 {
        fill: #4d4d4d;
      }

      .cls-16 {
        fill: #c1e5fe;
      }

      .cls-17 {
        fill: #f5d3c6;
      }

      .cls-18 {
        fill: #cfe2fe;
      }

      .cls-19 {
        fill: #a26f5f;
      }

      .cls-20 {
        fill: #a16e5d;
      }

      .cls-21 {
        fill: #a16e5e;
      }

      .cls-22 {
        fill: #cae3fe;
      }

      .cls-23 {
        fill: #ef9890;
      }

      .cls-24 {
        fill: #198cc3;
      }

      .cls-25 {
        fill: #f4c6b4;
      }

      .cls-26 {
        fill: #9f6d5c;
      }

      .cls-27 {
        fill: #f0bba8;
      }

      .cls-28 {
        fill: #f4cfc2;
      }

      .cls-29 {
        fill: #aa7569;
      }

      .cls-30 {
        fill: #1885bc;
      }

      .cls-31 {
        fill: #f3c2af;
      }

      .cls-32 {
        fill: #a47061;
      }

      .cls-33 {
        fill: #966651;
      }

      .cls-34 {
        fill: #f4ccbf;
      }

      .cls-35 {
        fill: #c7e3fe;
      }

      .cls-36 {
        fill: #93634d;
      }

      .cls-37 {
        fill: #bbbdbf;
      }

      .cls-38 {
        fill: #976753;
      }

      .cls-39 {
        fill: #1783ba;
      }

      .cls-40 {
        fill: #167bb2;
      }

      .cls-41 {
        fill: #956550;
      }

      .cls-42 {
        fill: #f0b8a5;
      }

      .cls-43 {
        fill: #9a6855;
      }

      .cls-44 {
        fill: #f2c0ae;
      }

      .cls-45 {
        fill: #f5ccbb;
      }

      .cls-46 {
        fill: #9d6a59;
      }

      .cls-47 {
        fill: #f5cdbc;
      }

      .cls-48 {
        fill: #f6d7ca;
      }

      .cls-49 {
        fill: #e7f3fe;
      }

      .cls-50 {
        fill: #a97467;
      }

      .cls-51 {
        fill: #efb7a4;
      }

      .cls-52 {
        fill: #1574ab;
      }

      .cls-53 {
        fill: #1779b0;
      }

      .cls-54 {
        fill: #f4c8b7;
      }

      .cls-55 {
        fill: #cee2fe;
      }

      .cls-56 {
        fill: #c8e3fe;
      }

      .cls-57 {
        fill: #edf5fe;
      }

      .cls-58 {
        fill: #eef6fe;
      }

      .cls-59 {
        fill: #efb4a0;
      }

      .cls-60 {
        fill: #a67264;
      }

      .cls-61 {
        fill: #c5e4fe;
      }

      .cls-62 {
        fill: #c7e4fe;
      }

      .cls-63 {
        fill: #515151;
      }

      .cls-64 {
        fill: #f1bcaa;
      }

      .cls-65 {
        fill: #7a5954;
      }

      .cls-66 {
        fill: #eff6fe;
      }

      .cls-67 {
        fill: #9b6957;
      }

      .cls-68 {
        fill: #94644e;
      }

      .cls-69 {
        fill: #c4e4fe;
      }

      .cls-70 {
        fill: #c2e4fe;
      }

      .cls-71 {
        fill: #177eb5;
      }

      .cls-72 {
        fill: #cde2fe;
      }

      .cls-73 {
        fill: #eaf4fe;
      }

      .cls-74 {
        fill: #f8dbcf;
      }

      .cls-75 {
        fill: #f6d8cb;
      }

      .cls-76 {
        fill: #fefefe;
      }

      .cls-77 {
        fill: #f7dbce;
      }

      .cls-78 {
        fill: #f3cbbe;
      }

      .cls-79 {
        fill: #146ea6;
      }

      .cls-80 {
        fill: #eeb19d;
      }

      .cls-81 {
        fill: #e9f4fe;
      }

      .cls-82 {
        fill: #f6d5c9;
      }

      .cls-83 {
        fill: #eeb3a0;
      }

      .cls-84 {
        fill: #1576ad;
      }

      .cls-85 {
        fill: #9e6b5a;
      }

      .cls-86 {
        fill: #f2bfac;
      }

      .cls-87 {
        fill: #f7dacd;
      }

      .cls-88 {
        fill: #f6d5c8;
      }
    </style>
  </defs>
  <path class="cls-87" d="M124.24,36.05c2.41,1.03,5.04,3.86,5.61,6.41,1.01-.4,1.15.02.4.8l.42.77c-2.4,3.08-5.06,5.91-7.98,8.49l-.86-.45-.56.89-8.06-.19c-7.26,1.23,1.96,2.43,4.32,1.73l.69.78c.2.28.43.6.4.95-.09.93-3.42,3.61-4.4,4.26.68,1.03.18,1.56-.8.8-2.49,2.86-5.21,5.45-8.15,7.78l-.66-.17-.89.03c-2.02-2.82-6.75-1.89-7.45,1.58l-.87.39c1.11.5,1.21,3.18,0,3.61,1.11.91,1.13,2.3,0,3.2.77.37.77.83,0,1.2l-.59,1.71-24.14,23.76-.91-.23c-5.23-5.65-7.47-9.79-9.61-17.23-.03-1.08-.04-1.65.54-2.55,1.45-1.73,3.02-3.41,4.58-5.08,1.83-1.96,13.26-13.97,14.84-13.85.36.03.64.35.87.65l.84.35c.2,1.73.93,2.87,2.81,2.55,3.41-.58,1.77-6.8,1.16-8.92l-.3-.83c6.67-6.46,13.18-13,19.53-19.6-.19-1.1,1.41-1.6,1.95-.68l.86-.12c2.71-1.64,6.11-2.28,9.21-1.6,1.21-1.47,5.45-1.84,7.21-1.2Z"/>
  <path class="cls-74" d="M79.37,40.05c1.89-.89,5.15-.59,6.75.55l2.06.25c1.28-.91,3.08-1.22,4.29-.16l1.72.16c.77-.11,1.57-.24,2.4-.4.72-1.01,1.28-1,2,0,.62-.14,1.29-.27,2-.4,1.02-1.19,3.2-1.41,4.41-.4l.8.6-20.03,19.83-.42.75c-3.73-.57-3.95,1.25-3.64,4.58l-.75.68c-.86.04-1.38.49-2.01.99-4.71,3.78-12.69,12.16-16.83,16.82-.74.83-1.69,1.93-1.99,3.02-.25-.87-.87-3.86-.98-4.03-.28-.43-.95-.4-1.42-.38.18-1,.58-1.67,1.2-2,.26-1.33.13-2.53-.4-3.61-.77-.23-.77-.58,0-.8-1.12-4.25-1.1-8.57,0-12.82-1.14-.47-1.71-4.42-.4-4.81,0-.16.4-1.1.4-2,.53-1.28,1.7-4.02,3.2-3.61-.43-1.25.28-2.18,1.6-2,.05-1.29.74-2.12,2-2.4-.08-1.48.54-2.22,2-2.4-.07-1.48.54-2.22,2-2.4-.25-1.59,2.52-4.39,4.01-4.81,1.18-1.27,5.16-.19,6.01,1.2Z"/>
  <path class="cls-17" d="M141.86,56.48c0,.67,0,1.34,0,2,.8,1.59.8,3.22,0,4.81,1.18,2.61,1.23,5.81,0,8.41-.13.94-.53,1.23-1.4,1.45l-43.03,43c-.02,1.03-.43,1.57-1.24,1.61-.26.3-.56.64-.95.69-1.96.24-8.66-2.41-10.67-3.49-.13.35-.27.35-.4,0-.2-.24-.47-.65-.32-.82,3.4-3.85,7.64-8.1,11.37-11.67,1.01-1.38,2.27-2.29,3.78-2.73l.42-.81c2.12.08,13.39-1.04,12.74-3.94-.08-.35-.64-.48-.96-.43-1.72,1.23-3.86,1.8-5.93,2.21s-6.08.99-7.47-.62c.41-.68,1.2-.91,2.36-.69,12.41-12.53,25.21-25.08,38.41-37.64l2.49-1.73c.39-.78.63-.39.8.4Z"/>
  <path class="cls-22" d="M173.91,170.25c2.15,6.11,2.97,10.33,3.2,16.83-10.04.86-20.12,1.12-30.23.78-1.34.51-2.21.38-2.62-.38-.09.18-.19.34-.33.46-.5.41-7.57-4.67-8.57-5.55l.09-.92c-1.11,1.12-2.69-.32-2.26-1.98.07-.25,3.59-2.76,4.27-2.83l1.04-.02c5.29,5.76,15.13,2.06,15.39-5.74l.8-.66.37-.8h18.12l.74.8Z"/>
  <path class="cls-49" d="M144.27,187.47c1.45-.02,1.26.5.79,1.66-2.78,3.23-6.16,7.01-10.01,8.76-8.41,0-16.83,0-25.24,0,.46-4.61,2.16-9.03,4.81-12.82-.95-.79-.03-2.98,1.2-2.8l1.5-.7c6.17.72,12.22.69,18.13-.1,1.32.9,8.06,5.92,8.81,6.01Z"/>
  <path class="cls-55" d="M177.12,187.07c.13,3.59-.1,7.22,0,10.82-14.02,0-28.05-.02-42.06,0,2.51-2.79,6.89-5.88,9.04-8.8.47-.65.8-.82.18-1.61.72.08,1.71-.42,2.59-.42,10.09-.02,20.18.05,30.26.02Z"/>
  <path class="cls-15" d="M77.77,111.36c.05-1.07.52-1.04.8,0,1.32-.17,5.71,1.63,5.21,3.2-.42.43-.91.73-1.49.87l-14.15-.25c-9.22-.98-15.33,4.45-16.63,13.3,3.39,1.74,6.62,3.83,9.69,6.28l.56,1.43c2.36-.1,4.21,3.02,5.21,4.99s2.27,6.61,2.56,8.85l-.56.98c.36.11.35.24,0,.4.71,1.87-1.61,2.62-2.8,1.6l-.88-.19-1.89-7.54c-1.31-4.09-2.44-4.82-6.17-7l.13-.9-.88.33c-6.37-6.52-9.46-5.26-15.84.32l-4.87,3.85c-1.31,3.44-2.34,6.97-3.09,10.6l-.97.52c-1.14.94-3.48.19-2.8-1.6.92-3.3,1.91-10.04,4-12.51,1.64-1.93,8.81-6.63,11.33-8.41.85-.6,2.49-1.1,2.89-1.51.52-.54,1.31-4.9,1.8-6.22,1.79-4.87,5.56-9.06,10.61-10.63,3.63-1.13,14.3-1.24,18.25-.78Z"/>
  <path class="cls-48" d="M95.39,80.51c1.17.53,1.12,2.25,0,2.8,1.04.14,1.36,2.43.8,3.2.98-.39,1.45.78,1.2,1.6.19.25.46.65.32.82-.58.71-5.04,5.29-5.57,5.57l-1.15.02-.35.43c-4.81-1.92-3.96.73-.21,2.24l.16.93c1.04.44.95.98.27,1.8-4.11,3.55-7.89,7.39-11.32,11.51l-.97-.1c-.17-.07-.54.03-.8,0-3.11-2.16-5.46-4.46-8.01-7.21l25.64-25.24c1.01.59,1.01,1.01,0,1.6Z"/>
  <path class="cls-61" d="M173.91,170.25h-19.23l-.84-.48c-.51-3.64-3.21-6.88-6.79-7.84l-.38-.89c-1.28-.32-1.22-4.37,0-4.81-1.06-.13-1.02-.5,0-.8.03-.32.13-.79.35-.81,4.5-.34,9.91-.37,14.45-.31,1.55-.27,2.9-.03,4.03.72,4.14,5.35,6.13,8.73,8.41,15.22Z"/>
  <path class="cls-32" d="M90.19,6.4c.47.51.24,1.03-.69,1.57l-15.6,30.01-.94.06-.89.46c-1.59-.43-5.93-2.39-5.92-4.07-1.16.41-1.66-.07-1.2-1.2,4.79-8.26,9.17-16.74,13.14-25.45l2.49-.59c3.21-.17,6.41-.61,9.61-.8Z"/>
  <path class="cls-46" d="M115.82,7.2c2.64.55,3.66,1.01,6.01,2l.53.7-14.72,27.79c-.24.43-.28.79.17,1.15-.67.11-2.14.71-2.8.8-1.44.2-2.95.38-4.41.4-.63.29-1.38.34-2,0-.09-1.91.44-3.76,1.59-5.56,4.97-9.09,9.69-18.22,14.15-27.4l1.49.1Z"/>
  <path class="cls-67" d="M129.04,13.21c-3.88,7.52-7.82,15.11-11.8,22.76.39.48.26.83-.22,1.28-3.05.52-6.12,1.12-9.21,1.6-1.61.2-1.39-.27-.89-1.49l14.91-28.15c3,1.27,4.65,2.14,7.21,4.01Z"/>
  <path class="cls-19" d="M96.59,6l.59.61-16.16,31.95c-.29,1.04-.84,1.54-1.65,1.49-2.03-.31-3.94-1.09-6.01-1.2-1.07.18-1.14-.02-.4-.8l15.95-30.69,1.27-.96c2.14-.13,4.27-.28,6.41-.4Z"/>
  <path class="cls-60" d="M80.57,7.2c-.32.62-1.29.11-1.62.67-.53.9-1.11,2.92-1.77,4.15-3.37,6.23-6.58,13.06-10.16,19.09-.48.81-.95,2.09-2.07,2.14-1.22.76-3.47-1.48-3.2-2.8-1.24.58-1.93-.82-1.6-2-.43-.6-.54-1.19-.8-1.6l-.17-1.45c2.9-5.83,5.82-11.66,8.77-17.47l1.02-.31c3.81.05,7.81-.19,11.62-.4Z"/>
  <path class="cls-21" d="M107.81,6l-.44.8c-2.55-.31-3.33-.15-4.65,2.08-5.43,10.19-10.78,20.43-16.05,30.72,1.34-.05,1.84.37,1.51,1.25-3.05-.1-5.79-.34-8.81-.8L96.59,6c.53-.03,1.07.02,1.6,0,1.45-.3,2.92-.43,4.41-.4,1.57-.08,3.93-.27,5.21.4Z"/>
  <path class="cls-49" d="M90.59,197.89c-8.41,0-16.83,0-25.24,0-1.43-.33-3.78-1.61-3.2-3.2l.16-.55c1.11-.05,1.99-.4,2.65-1.05l.82-.74c6.57.72,12.55-.68,10.95-8.68l.65-.99.57-.83c1.97.16,3.93.11,5.87-.16l.77.59c.55.43,1.14.9,1.45,1.54,1.17,2.43,4.89,11.01,4.76,12.97-.02.37-.1.74-.2,1.11Z"/>
  <path class="cls-26" d="M107.81,6c1.12,0,2.82-.31,3.61.4-.1.56-.59.85-1.47.87l-17.1,32.3c.69.05,1.14.34,1.34.88.35.11.34.25,0,.4-1.99.03-4.02.07-6.01,0-1.12-1.05-3.1.52-2.22-1.62,5.98-9.58,10.37-22.32,16.56-31.51,1.63-2.42,2.61-1.7,5.28-1.73Z"/>
  <path class="cls-14" d="M111.42,6.4c1.46.08,2.98.5,4.41.8-1.1-.24-.74.59-1.01,1.18-4.97,10.72-11.8,20.78-16.22,31.67.35.11.34.25,0,.4-.67.02-1.34,0-2,0-.76.3-1.66.37-2.4,0-.58-.02-2.78.38-2.4-.59L109.37,6.65c.36-.47,1.51-.28,2.05-.25Z"/>
  <path class="cls-15" d="M122.63,111.36c6.08-.98,14.21,1.73,18.59,6.05,6.52,6.45,5.34,13.64,5.45,21.99,1.29,5.17,1.24,10.84,0,16.02v.8c-.16,1.23-2.94,1.17-3.2,0-.79-3.73-.79-7.49,0-11.22-1.15-2.28-1.13-4.92,0-7.21l-.81-.82c2.29-16.99-9.49-23.46-25.09-21.61l-.94-.8c-.34-.11-.33-.25,0-.4-.68-.91,4.83-3.4,5.16-3.38l.84.58Z"/>
  <path class="cls-34" d="M141.46,81.71c.7.05.57.58-.4,1.6-.55,3.03-.91,4.35-2,7.21-8.52,8.16-16.93,16.44-25.24,24.84.15,1.3-2.82,2.22-3.61,1.2-.82,1.45-3.12,1.85-4.41.8l-.37-.76c11.7-11.7,23.41-23.41,35.11-35.11l.91.22Z"/>
  <path class="cls-6" d="M143.46,82.52c.09-2.11.06-4.29-.08-6.54l.88-.67v-.98c2.29-1.77,2.82-4.66,1.89-7.31l.12-1.33c-.89.23-2.64-1.57-2.8-2.4-1.41-.72-.75-3.87-.4-5.21,6.49-3.71,11.29,1.81,11.63,8.2.39,7.3-3.76,14.86-11.23,16.24Z"/>
  <path class="cls-6" d="M56.54,57.68c.49.31.59,5.11.44,5.35l-.84.66c.08.82-1.16,2.24-2,2l.21.82c-1.23,2.56-.33,6.03,1.84,7.86l-.05.94.68.48c.1,2.24.14,4.48.12,6.73-9.49-.29-14.93-17.18-8.23-23.65,2.54-2.45,4.75-2.41,7.83-1.19Z"/>
  <path class="cls-70" d="M165.5,155.02l-18.83.4c0-5.33.07-10.69,0-16.02,7.74,3.73,13.63,8.9,18.83,15.62Z"/>
  <path class="cls-38" d="M134.25,18.02c2.58,3.09,3.4,4.75,4.81,8.41-2.52,5.29-5.3,10.48-8.33,15.58l-.88.45c-1.85-2.14-3.85-4.19-5.61-6.41-.73-.3-.95-.68-.6-1.35l7.84-14.87c.86-1.93,1.78-2.53,2.77-1.81Z"/>
  <path class="cls-8" d="M129.04,13.21c2.18,1.6,3.41,2.66,5.21,4.81-1.29.27-2.24,2.58-2.87,3.74-2.23,4.05-4.37,8.22-6.51,12.32-.34.66-.74,1.14-.63,1.97-2.33.78-4.88.8-7.21,1.2l-.71-1.31c4.04-6.89,7.24-14.72,11.31-21.54.37-.63.47-1.23,1.42-1.19Z"/>
  <path class="cls-37" d="M28.89,151.42c-.3,1.28,1.88.86,2.8,1.6.35,3.54-.98,7.01-2.8,10.01.14,4.43-.95,9.81-3.2,13.62l.61.81-2.09,6.68c-.88,4.32,1.78,5.94,7.97,4.88l.71.85c.98,1.11.98,2.09,0,3.2l-.59.76c-2.23.27-8.26.72-9.02-1.56-2.52-1.39-3.6-5.03-3.16-7.77,2.82-11.06,5.72-22.1,8.77-33.09Z"/>
  <path class="cls-18" d="M52.13,191.08l.79.43c.83,5.08,4.95,4.31,8.63,2.44l.59.73,3.2,3.2c-14.02-.01-28.05,0-42.06,0v-5.61c2.72,1.51,6.6.53,9.62.8,1,.84,2.45,1.12,4.35.83,2.99,2.56,7.19,1.88,7.68-2.38l.79-.44c.66-1.31,5.63-1.26,6.41,0Z"/>
  <path class="cls-50" d="M68.95,7.6l-9.61,19.23c-2.3-3.62-3.01-5.16-4.41-9.21-.17-.42-.29-.92-.18-1.37.15-.62,4.05-8.48,4.42-8.89l.97-.16c2.51.25,6.23.37,8.81.4Z"/>
  <path class="cls-41" d="M139.06,26.43c1.78,4.62,2.95,8.97,2.8,14.02-.58-.04-.96-.09-1.03-.66l-4.37,8.09c-.25.56-.79.64-1.41.58-1.94-.35-4.76-3.23-4.81-5.21-.17-.2-.23-.61-.4-.8,2.83-4.72,4.99-10.15,7.8-14.84.37-.63.47-1.23,1.42-1.19Z"/>
  <path class="cls-2" d="M82.97,177.46l1.04-.65c1.22-.04,8.91-.03,9.22.31.54.59.42,1.27.15,1.94,1.11.29,1.2,2.18,0,2.4.86,1.06,1.01,2.63-.05,3.52l-.35,2.09c1.06.14,1,.45,0,.8,1.14,1.52.6,3.04-.4,4.41,1.1.65,1.11,1.76,0,2.4.36.07.34.21,0,.4-.15.97-.28,1.91-.4,2.8-.53,0-1.07,0-1.6,0-1.69-5.32-4.07-10.41-6.01-15.62-1.56-.73-2.32-3.27-1.6-4.81Z"/>
  <path class="cls-78" d="M139.06,90.53c-3.42,8.97-8.59,15.32-16.42,20.83-.99.16-4.54,2.2-6.01,2.8-.1,1.24-2.01,2.28-2.8,1.2.21-.62.57-1.12.99-1.61,5.96-7,15.56-16.1,22.43-22.44.25-.23,1.49-1.56,1.81-.79Z"/>
  <path class="cls-68" d="M141.86,40.45c.45,4.9-.03,10.96,0,16.02-.22-.16-.63-.24-.8-.4l-.97.16c-1.55-1.68-3.04-3.42-4.47-5.2l.23-.97c-1.18.3-1.64-.83-.8-1.6,2.62-3.29,3.61-7.76,6.41-10.82-.41,1.02.36,2.26.4,2.8Z"/>
  <path class="cls-72" d="M114.62,185.07c-1.58,4.27-3.23,8.54-4.81,12.82-.53,0-1.07,0-1.6,0-.12-.9-.25-1.83-.4-2.8-.35-.11-.34-.25,0-.4-1.12-.64-1.1-1.75,0-2.4-1.04-1.16-1.04-1.96,0-2.4l-.4-2.8c-.28-.81-.28-1.48,0-2-.26-1.13,6.16-.98,6.64-.8l.57.8Z"/>
  <path class="cls-43" d="M61.74,30.44c1.63,5.03,3.53,9.96,5.7,14.78l-.09.85c-.67.78-1.34,1.61-2,2.4l-1.07.58c-.79-.04-4.71-12.39-5.34-14.6.23-2.02.2-4.14,1.2-6.01.43.6,1.11,1.46,1.6,2Z"/>
  <path class="cls-29" d="M60.14,7.2l-5.21,10.42c-.05-.16-.53-.51-.7-1.08-.41-1.35-2.45-10.45-2.1-10.94,2.53.83,5.37,1.34,8.01,1.6Z"/>
  <path class="cls-11" d="M107.81,194.68v.4c.31.85.36,2.03,0,2.8-5.07,0-10.15,0-15.22,0-.37-.73-.3-1.95,0-2.8,0-.13,0-.27,0-.4,0-.31.07-.78.27-.8,3.41-.31,11.18-.41,14.48,0l.47.8Z"/>
  <path class="cls-85" d="M58.94,34.44c.7.26.86.88,1.11,1.49,1.54,3.74,2.56,7.73,4.21,11.44.27.6.06,1.31,1.09,1.1-.67.8-1.34,1.61-2,2.4l-1.04-.05c-1.59-3.18-2.85-6.51-3.77-9.97.06-2.37.14-4.09.4-6.41Z"/>
  <path class="cls-20" d="M63.35,50.87c-.54.65-1.04,1.34-1.6,2-1.93,1.4-2.5-2.26-2.73-3.88l-.48-1.33c.03-2.26-.06-4.55,0-6.81,2.54,2.64,2.45,7.17,4.81,10.01Z"/>
  <path class="cls-75" d="M144.27,75.3c-.42,2.09.95,5.78-.8,7.21-.92.17-1.91-.47-2.4.8.1-.57.35-1.23.4-1.6-1.04-1.04-.82-4.75.4-5.61.18-1.22.77-1.26,1.6-.4.24-.81.51-.95.8-.4Z"/>
  <path class="cls-75" d="M57.34,75.7c.78-.83,1.03-.68,1.2.4,0,.27,0,.53,0,.8.62.98.75,2.18.4,3.61-.26.72.61,1.68-1.2,2-.23.04-.55,0-.8,0-1.75-1.43-.38-5.12-.8-7.21.34-.55.74-.42,1.2.4Z"/>
  <path class="cls-10" d="M58.54,47.66c1.85.92,1.1,4.73,3.2,5.21-1.03,1.23-1.74,2.77-3.2,3.61.01-2.93-.04-5.88,0-8.81Z"/>
  <path class="cls-75" d="M58.14,58.48c0,1.24.4,3.16.4,4.81-.55.88-1.77,1.34-2.4.4.22-1.91-.5-4.34.4-6.01.54.21,1.25.1,1.6.8Z"/>
  <path class="cls-82" d="M143.46,63.29c-.37,1.08-1.23,1.13-1.6,0,.01-1.6,0-3.21,0-4.81.44-.04.82-.18,1.2-.4.89,1.36.19,3.56.4,5.21Z"/>
  <path class="cls-19" d="M102.6,5.6c-1.24.06-2.88.33-4.41.4,1.08-.87,3.02-.21,4.41-.4Z"/>
  <path class="cls-79" d="M92.59,197.89c-.13,0-.27,0-.4,0,.09-.88-.36-2.24.4-2.8v2.8Z"/>
  <path class="cls-79" d="M108.21,197.89c-.13,0-.27,0-.4,0v-2.8c.76.57.31,1.93.4,2.8Z"/>
  <path class="cls-48" d="M135.05,48.46c.32.38.48,1.22.8,1.6l-.41,1.49c-1.9,2.17-14.14,15.49-15.41,14.94-.33-.14-.49-.48-.6-.81l-.78-.52c.17-2.78-.31-5.14-3.65-4.08l-.78-.6c.11-.14.07-.66.38-1,1.25-1.38,2.77-2.45,3.62-4.2l.14-.54c3.11-.04,4.11-.66,3.02-1.86l.45-.8c1.17-.27,7.35-7.35,8.41-8.81,1.49,1.74,3.38,3.52,4.81,5.21Z"/>
  <path class="cls-48" d="M113.42,61.28l.48.27c-.68,3.19-.18,5.9,1.52,8.14.34.09.75.29.72.59-.06.84-9.67,10.69-10.39,10.5-.35-.09-.59-.35-.75-.67-.99-.85-1-1.55,0-2.4-1.13-.91-1.11-2.29,0-3.2-1.21-.5-1.12-3.04,0-3.61-1.12-.34-1.28-1.27-.4-2,2.58-1.85,4.58-4.88,7.01-6.81.74-.59,1.31-.52,1.8-.8Z"/>
  <path class="cls-12" d="M85.78,60.08c2.13.76,2.63,8.66-.28,9.53s-4.33-.82-4.53-3.52c-.13-1.91-.57-5.55,1.81-6,.46-.09,2.68-.12,3-.01Z"/>
  <path class="cls-12" d="M119.43,65.69c2.48,1.99-2.06,6.74-4.01,4.01-3.31-.2-2.63-5.96-2-8.41.53-.3.49-.39.8-.8,4.77-1.53,5.43,1.19,5.21,5.21Z"/>
  <path class="cls-65" d="M121.83,52.07c2.36,3.63-1.08,3.12-3.61,3.2-1.64.05-6.06.3-7.33-.08s-1.49-2-.52-2.76c1.4-1.09,9.15.17,11.45-.36Z"/>
  <path class="cls-25" d="M105.01,70.9c.11,1.14-.04,2.43,0,3.61-.09.31-.21.76-.47.8-1.13.16-7.55.2-8.56,0l-.58-.8c.04-1.16-.13-2.49,0-3.61l.47-.8h8.56l.58.8Z"/>
  <path class="cls-45" d="M104.61,68.89c.25.53.34,1.4.4,2h-9.61c.6-5.25,7.47-5.7,9.21-2Z"/>
  <path class="cls-44" d="M105.01,74.5c.03,1.06,0,2.14,0,3.2-.09.31-.22.77-.47.8-1.02.13-7.82.19-8.56,0l-.58-.8c0-1.07-.03-2.14,0-3.2h9.61Z"/>
  <path class="cls-64" d="M105.01,77.71c0,.8.02,1.6,0,2.4.36.07.34.21,0,.4-.09.31-.21.76-.47.8-1.13.16-7.55.2-8.56,0l-.58-.8c-.01-.53.01-1.07,0-1.6,0-.4,0-.8,0-1.2h9.61Z"/>
  <path class="cls-33" d="M64.95,33.24c.39.33.71.84,1.2,1.2,1.26,3.18,2.33,6.25,3.2,9.21-.67.79-1.33,1.61-2,2.4-.74-.26-.83-.9-1.1-1.5-1.57-3.45-3.5-8.58-4.63-12.2-.18-.58-.61-1.55.13-1.93,1.17,1.29,1.97,1.76,3.2,2.8Z"/>
  <path class="cls-65" d="M78.37,52.07h11.22c1.22,0,1.22,3.2,0,3.2h-11.22c-.73,0-.97-2.82,0-3.2Z"/>
  <path class="cls-54" d="M58.54,63.29c0,4.27-.02,8.55,0,12.82-.44-.02-.81-.26-1.2-.4-.51-.31-.97-.72-1.25-1.25-.31-.57-2.03-6.79-2.21-7.77-.07-.37.03-.7.26-1,.71-1.14.36-1.35,2-2,.83-.33,1.48-.54,2.4-.4Z"/>
  <path class="cls-36" d="M72.96,38.05c.11.05.26.62.4.8-1,1.87-2.67,3.23-4.01,4.81-1.06.24-.76-.55-1.01-1.17-.78-1.89-1.77-4.19-2.31-6.13-.16-.58-.64-1.53.12-1.92,2.66,1.97,4.07,2.27,6.81,3.61Z"/>
  <path class="cls-87" d="M58.94,80.51c-.73-.79-.39-2.48-.4-3.61,2.27,1.21.89,2.24.4,3.61Z"/>
  <path class="cls-87" d="M96.59,40.45c-.44.67-1.65.39-2.4.4v-.4c.8.03,1.61,0,2.4,0Z"/>
  <path class="cls-87" d="M100.6,40.05c-.34.64-1.36.39-2,.4v-.4c.67,0,1.34.01,2,0Z"/>
  <path class="cls-82" d="M141.06,56.08c-12.64,12.64-25.66,24.98-38.07,37.85-1.93,2-1.53,2.69-5.2,2.21-1.03,1.48-6.58.21-6.81-1.6l6.41-6.41.85-.43c1.81,1.01,3.88.58,5.02-1.17h.94c-.56-.84-.25-2.76.8-3.21-1.12-.56-1.17-2.28,0-2.8,0-.13,0-.27,0-.4.78,0,1.11-.54,1.61-.99,2.53-2.33,5.51-5.27,7.81-7.81.45-.5,1-.82.99-1.61,3.37.21,3.84-1.04,4.01-4.01.91.16,1.22-.3,1.82-.79,5.02-4.05,9.78-10.4,14.61-14.84,1.47,1.74,3.69,4.53,5.21,6.01Z"/>
  <path class="cls-28" d="M141.86,71.7c1.16,1.19,1.21,3.24,0,4.41-.07,2.1-.12,3.53-.4,5.61l-35.65,35.65c-.21,1.19-1.38,1.45-2,.4-1.48,1.25-5.67,1.51-6.81,0-.48.61-.74.61-.8,0l.58-2.03,43.27-43.26,1.82-.79Z"/>
  <path class="cls-88" d="M95.79,99.34l2,.4c.37-.77.84-.77,1.2,0l-14.82,15.22c-.11.35-.25.34-.4,0-.36-.1-.35-.23,0-.4-.21-.49-3.76-2.1-4.56-2.47-.36-.17-.59-.71-.65-.73l4-4.62c2.17-2.49,4.87-4.52,7.2-6.82.59-.58.97-.81.83-1.78,1.15-.8,4.55-.04,5.21,1.2Z"/>
  <path class="cls-77" d="M84.58,114.96c.77.35,1.5.71,2.16,1.26,1.9,1.59,4.85,4.16,5.46,6.35,1.75.64,2.97,1.86,3.61,3.61,1.12-.6,2.1.95,1.6,2,.98.75-.45,3.15-1.6,2.8-.74.89-1.78.35-1.6-.8-2.8-.88-5.41-2.4-7.82-4.54-1.58-.67-2.58-1.56-3-2.67-1-.53-1-.82-.88-1.89l.54-5.49.73-.63h.4c.13,0,.27-.01.4,0Z"/>
  <path class="cls-23" d="M90.99,94.53c3.2,1.27,3.27,1.28,6.81,1.6,4.55.42,6.88.23,11.33-1.29.75-.25,1.47-1.07,2.08-1.1,1.78-.07,2.42,1.66,1.03,3.01-2.33,2.27-10.02,2.93-13.24,2.98-.4,0-.8.01-1.2,0l-2-.4c-1.64-.19-3.67-.62-5.21-1.2-1.37-.52-5.73-2.6-3.44-4.44,1.09-.88,2.56.33,3.84.84Z"/>
  <path class="cls-83" d="M96.19,117.77c.26.02.54-.02.8,0,1.2,1.49-3.29,5.96-4.81,4.81-2.53-2.53-5.37-4.79-7.61-7.61,3.41.31,7.78,2.44,11.62,2.8Z"/>
  <path class="cls-13" d="M143.46,63.29c1.79.45,2.01,1.18,2.8,2.4.07,1.58-.29,3.19-1.07,4.84-.21,2.01-.79,3.73-1.73,5.18-.5.19-1.09.23-1.6.4.05-1.46-.02-2.94,0-4.41.05-2.8-.02-5.61,0-8.41.49.07,1.17-.11,1.6,0Z"/>
  <path class="cls-73" d="M138.66,163.44l.07,1.04c-2.83,2.99-3.31,7.72-1.03,11.15l-.24,1.02c.07,1.34-3.33,2.82-3.6,3.21-.55.77,1.25,1.35,1.6,1.6.23,1.22-1.43,1.16-2.19,1.22-5.49.42-11.97-.04-17.44-.42.14-3.31,1.41-7.92,2.89-10.96.36-.73.89-1.34,1.52-1.86-.51-2.18.98-5.49,2.8-6.81,4.95-.05,9.92.03,14.92.23l.7.57Z"/>
  <path class="cls-15" d="M146.67,161.03c4.19.65,7.85,5.01,8.01,9.21.35,9.16-11.45,13.66-17.23,6.41-3.13-3.92-2.5-9.93,1.2-13.22-.52-1.46,3.75-3.64,4.81-2.4-.09-1.32,3.06-1.31,3.2,0Z"/>
  <path class="cls-22" d="M120.23,169.44c-1.56,4.22-2.85,8.61-4.41,12.82-.3.81-.82,1.78-1.2,2.8h-7.21c-1.1-.92-1.61-2.47-.4-3.61-1.21-.66-1.44-2.28-.4-3.2-1.14-.49-1.08-1.5,0-2-1.11-2.12-1.25-3.99-.4-5.61-1.09-.25-.99-.71,0-1.2.08-.31.23-.79.47-.8,1.54-.1,12.43-.37,12.97,0,.3.2.5.44.59.8Z"/>
  <path class="cls-76" d="M83.78,114.56c.02.13-.02.27,0,.4.4,2.49-.84,5.41-.4,8.01-3.36,3.02-6.97,5.56-10.82,7.61l.06.94c-1.48.9-2.84,1.92-4.07,3.07-.17,1.03-.44.97-.8,0l-.42.83c-.82.44-4.71,1.33-5.58.78-2.71-2.1-5.95-4.32-8.83-6.19-.6-.39-2.18-.69-2.28-1.2,1.18-7.27,4.97-13.53,12.92-14.24,6.46-.58,13.68.42,20.22,0Z"/>
  <path class="cls-76" d="M57.34,137.4c.62.99.26,1.3-.8.8l-.84,1.32c-8.73,4.15-16.4,9.91-21.77,18.06l-1.43.66c.06,1.59-2.43,6.78-3.61,4.81.89-3.33,1.87-6.69,2.8-10.01.7-2.49,2.29-9.97,3.42-11.6.52-.75,10.33-8.04,11.44-8.59,4.05-2.01,7.69,2.22,10.77,4.56Z"/>
  <path class="cls-58" d="M66.15,153.02c1.99,2.52,2.86,6.82,2.4,10.01-1.67.97-13.6,1.29-14.04.73-.28-.36-.21-1.12.02-1.53-1.14-.45-1.25-2.86,0-3.2-.17-.44-.32-.89-.41-1.35s-.17-.9-.14-1.33c.45-5.18.99-10.43,1.59-15.6.05-.43.19-.86.35-1.28s.38-.86.61-1.27c.27-.13.55-.58.8-.8,1.51,1.15,4.61,2.72,5.55,4.27,1.17,1.93,2.54,8.72,3.26,11.36Z"/>
  <path class="cls-37" d="M72.96,166.24l1.11,1.05c.78,2.17,4.17,13.44,3.7,14.65-.1.26-.25.49-.41.73,1.8,9.94-3.88,11.1-12.42,10.42-.98-1.11-.98-2.09,0-3.2l.47-.82c6.25,1.03,8.98-.54,8.17-4.7-1.42-6.75-3.25-13.4-5.49-19.95l.45-1.37c-.88-3.3-1.49-6.71-2.4-10.01.9-.63,3.05-.21,2.8-1.6,2.47,4.55,3.87,9.64,4.01,14.82Z"/>
  <path class="cls-3" d="M72.96,150.22c2.73,3.87,4.4,8.91,4.81,13.62.86.35,1.48,1.25.8,2,.33,1.84-5.09,1.64-5.61.4-1.28-4.95-2.64-9.9-4.01-14.82-.03-.12.03-.28,0-.4-.37-1.6,2.14-1.27,2.89-1.02l.71-.18c.56-.56.8-.31.4.4Z"/>
  <path class="cls-66" d="M67.75,134.59c1.71,4.26,3.49,8.99,5.02,13.49.08.24.06.53.02.82s-.13.61-.24.91c.33,1.62-2.39.22-3.61,1.2-1.8-6.47-1.62-10.49-7.21-14.82,1.73-.56,4.23-1.58,6.01-1.6Z"/>
  <path class="cls-42" d="M105.01,80.51c-.02.93.06,1.88,0,2.8-.08.31-.2.74-.47.8-.83.2-7.52.13-8.56,0l-.58-.8c-.06-.92.02-1.88,0-2.8h9.61Z"/>
  <path class="cls-59" d="M105.01,83.32c-.13,1.84.08,1.58-.8,3.2-2.42-.28-4.8-.18-7.14.29l-.88-.29c-.85-1.63-.68-1.33-.8-3.2h9.61Z"/>
  <path class="cls-80" d="M104.21,86.52c-1.41,2.59-4.24,3.28-6.81,1.6-1.08-.71-.74-.72-1.2-1.6,1.04-1.29,4.62-.92,6.23-.82.75.04,1.5-.09,1.78.82Z"/>
  <path class="cls-37" d="M146.67,156.23v4.81c-.68-.11-2.52-.11-3.2,0-1.28-.32-1.22-4.37,0-4.81h3.2Z"/>
  <path class="cls-73" d="M82.97,177.46c.59,1.58,1.02,3.25,1.6,4.81-2.23.85-4.86.21-7.21.4-.93-5.12-3.06-11.23-4.41-16.42,1.77-.22,4.08.5,5.61-.4,2.5,3.38,4.07,7.42,4.41,11.62Z"/>
  <path class="cls-15" d="M57.74,186.67c.95-.5,2.01-.23,3.2.82,4.26-.44,5.6.36,4.01,2.38.02,1.06.02,2.14,0,3.2-.05,2.58-.31,1.38-2.8,1.6s-2.88,1.41-4.66,1.58c-2.97.28-5.54-2.22-5.36-5.19-1.63-.73.3-3.08,1.3-3.89s3.91-2.27,4.31-.51Z"/>
  <path class="cls-76" d="M143.46,137.8l-.84.59c-3.07-1.27-6.22-2.26-9.43-2.96l-.54-.83c-.12,1.06-.44.97-.8,0-4.79-3.97-9.73-7.84-14.82-11.62-1.42-1-.85-3.48-.2-4.9l-.2-.71c-1.22-.41-1.14-2.34,0-2.8,7.51.02,14.77-.98,21.02,4.02,6.7,5.36,5.7,11.57,5.82,19.22Z"/>
  <path class="cls-57" d="M129.84,144.21l11.75-.03c.69.12,1.32.4,1.87.83,0,3.73,0,7.48,0,11.22v4.81c-1.27.2-3.83,1.53-4.81,2.4-4.52-.25-9.36.32-13.84.02-.75-.05-1.5.1-1.78-.82-.27-2.81.79-6.05,2.8-8.01.07-3.69,1.64-7.58,4.01-10.42Z"/>
  <path class="cls-66" d="M143.46,137.8c.04,2.4,0,4.81,0,7.21-4.06-.12-8.17.16-12.24,0-.77-.03-1.61.41-1.38-.8l-.4-1.22c.98-2.9,2.05-5.7,3.2-8.39,3.2.04,7.67,2.35,10.82,3.2Z"/>
  <path class="cls-86" d="M116.62,114.56c.05.93-.08,1.88,0,2.8.32.62.29,1.36-.09,1.96-3.72,3.53-7.3,7.15-10.73,10.86-.39,1.66-2.38,2.86-4.01,2.4-1.32.3-3.22-1.94-2.8-3.2l-.23-.9,10.88-10.66c-.12-.59-.02-.94.56-1.26.99-.25,2.56-.84,3.61-1.2,1.15-.4,1.82-.8,2.8-1.2v.4Z"/>
  <path class="cls-27" d="M110.22,116.57l.42,1.42-11.64,11.4c-1.06.58-1.93,0-1.6-1.2-.53-.53-1.07-1.47-1.6-2,.65-1.76,1.95-3.34,3.89-4.74,1.18-1.61,2.56-2.84,4.12-3.67.41-.03,1.32-.31,2-.4,1.47-.2,2.97-.44,4.41-.8Z"/>
  <path class="cls-47" d="M144.27,75.3c-.23.15-.55.3-.8.4.25-3.3,1.2-7.09,2.8-10.01,2.06,3.17,1.27,7.55-2,9.61Z"/>
  <path class="cls-4" d="M57.34,75.7c-.4-.14-.79-.15-1.2-.4-2.66-1.65-3.76-5.71-2.8-8.62.25-.76.66-.78.79-.99,1.83,2.92,1.98,6.8,3.2,10.01Z"/>
  <path class="cls-35" d="M54.53,159.03c-.09,1.05.09,2.15,0,3.2.29,1.89.31,4.02.06,6.39,2.86,2.27,5.24,4.82,7.15,7.63.75.9-.04,1.32-1.01,1.52-11.44.72-23.22.78-34.63-.17l-.42-.95c1.13-4.5,2-9.13,3.2-13.62.99.23.81-.54,1.13-1.05.8-1.29,1.63-2.5,2.48-3.75,7.03-.03,14.12.05,21.26.23l.77.57Z"/>
  <path class="cls-2" d="M61.74,176.25c1.79-.14,5.33,2.6,5.21,4.21-.04.51-7.56,6.22-8.07,6.34l-1.15-.14c-2.62-.34-5.44,1.73-5.61,4.41h-6.41l-.9-.57c-1.49-3.71-4.55-3.64-7.55-1.46-1.88-.27-3.33,0-4.37.83-3.31-.39-8.9,1.54-9.59-3.03-.49-3.23,1.61-7.11,2.38-10.19.71.22,1.43.38,2.18.42,9.38.44,22.4.65,31.68,0,.83-.06,1.66,0,2.19-.82Z"/>
  <path class="cls-15" d="M45.72,191.08c.22,3.56-3.31,6.13-6.64,4.84-.76-.29-1.16-1.07-1.98-1.23s-4.03.16-4.2,0c-.01-.53.01-1.07,0-1.6-.02-1.06-.02-2.14,0-3.2.01-.53-.01-1.07,0-1.6.18-.17,3.39.15,4.2,0,1.23-.24,1.75-1.68,4-1.61s4.49,2.22,4.62,4.42Z"/>
  <path class="cls-56" d="M77.77,163.84c.04-1.39,1.36-.9,1.9.06,4.62.06,9.25.02,13.9-.14l1.03.87c.8.09.77.49,0,.8.65,1.78.52,3.55-.4,5.21.93,1.24.96,3.16-.12,4.22l-.28,1.39c1.15.24,1.12,1.63,0,2,.9.68.7,1.02-.4.8.05-1.4.25-1.11-.98-1.2-3.12-.24-6.32.18-9.43-.4-1.45-3.87-2.97-7.74-4.41-11.62-.25-.67-.55-1.33-.8-2Z"/>
  <path class="cls-5" d="M107.41,187.87c.31.62.44,1.29.4,2,.05.8-.03,1.61,0,2.4-5.03-.28-10.19-.25-15.22,0,.07-1.46.19-2.97.4-4.41.08-.31.22-.78.47-.8,2.92-.25,10.65-.42,13.36,0l.59.8Z"/>
  <path class="cls-84" d="M107.01,181.46c.11,1.2.31,2.45.4,3.61.05.66-.04,1.34,0,2-.77.12-1.24-.42-1.42-1.61h-11.65c-.15,1-.6,1.54-1.35,1.61.05-1.87.25-3.75.4-5.61.18-.23.36-.45.58-.62,1.19-.96,11.27-.96,12.46,0,.22.18.4.39.58.62Z"/>
  <path class="cls-79" d="M92.59,192.28c.38-.76.55-.77,1.36-.83,3.41-.24,9.11-.28,12.49,0,.8.07.98.06,1.36.83.03.8,0,1.61,0,2.4h-15.22c0-.8-.04-1.61,0-2.4Z"/>
  <path class="cls-52" d="M92.99,187.07c.11-.66.58-1.64.63-2.41h13.4c-.34,1.03.25,1.79.4,2.41v.8h-14.42c.04-.26-.04-.55,0-.8Z"/>
  <path class="cls-53" d="M106.61,178.26c.14,1.09.3,2.09.4,3.2-4.29-.67-9.33-.67-13.62,0,.06-.78-.09-1.63,0-2.4,0-.09.35-.43.4-.8.04-.31.13-.78.36-.8,2.36-.24,9.67-.35,11.88,0l.58.8Z"/>
  <path class="cls-22" d="M107.81,189.88c-.02-.29-.35-1.14-.4-2-.02-.27.02-.54,0-.8.19.82.71,1.65.4,2.8Z"/>
  <path class="cls-51" d="M103.81,117.77c-2.15,3.21-5.18,5.8-8.01,8.41-1.2-1.2-2.41-2.41-3.61-3.61,1.82-.84,3.97-2.99,4.81-4.81,1.98.13,4.85.16,6.81,0Z"/>
  <path class="cls-17" d="M97.8,99.74c-.71-.02-1.42.19-2-.4.62.07,1.66-.28,2,.4Z"/>
  <path class="cls-3" d="M131.85,134.59c.65.92-.89,3.19-2,2.8l-1.21.82c-8.19.12-16.38.24-24.57.37l-1.06-.79c-.96.05-1.9-.78-2.8-2.49-.85,1.64-1.92,2.74-3.21,3.29-.06,2.22-1.56,4.32-3.61,5.21l-1,.82c-5.33.12-10.66.24-15.98.36l-1.04-.78c-.26.16-.7.36-.82.21-1.85-2.3-4.66-6.38-6.21-8.92l.22-.9c-.59-1.6,2.97-3.18,4.01-4.01l2.19-.84c5.74-.12,11.48-.22,17.22-.29l2.22.73c.4.25,1.04.46,1.6.8,1.63-.07,3.13.61,4.47,2.02.34-.67.83-.93,1.53-.41,1.4-.78,2.65-1.57,4.01-2.4,2.82-3.08,7.14-6.47,11.22-7.21.38-.22.71-.54,1.18-.21,3.91,3.53,8.68,6.41,12.63,9.84.53.46,1.74,1.17,1.02,1.99Z"/>
  <path class="cls-66" d="M83.38,122.98c3.34,1.49,7.56,5.2,10.82,7.21l-21.63.4c3.23-2.57,6.41-5.24,9.63-7.83.49-.35.79.04,1.19.22Z"/>
  <path class="cls-75" d="M99,129.39c.93.93,1.93,2.18,2.8,3.2-.5.28-1.04,1.24-1.73,1.14-1.39-.97-2.83-1.87-4.28-2.74l1.6-2.8c.41.42,1.19.79,1.6,1.2Z"/>
  <path class="cls-61" d="M119.43,153.42c2.05-.1,4.08,0,6.1.26l.31.94c-.98,2.65-1.83,5.37-2.8,8.01-.84,2.27-1.96,4.53-2.8,6.81h-14.02c-1.25-.95-1.47-2.84-.4-4.01-1.25-.85-1.53-2.96-.4-4.01-1.23-.48-1.63-3.84-.4-4.41-1.4-.51-.84-2.45-.29-3.56.73-1.45,3.55-4.95,5.1-4.85l.89-.12,5.41,7.86,2.41-3.04.91.1Z"/>
  <path class="cls-37" d="M144.17,165.92c6.68-1.09,7.66,8.92,1.45,9.51-6.23.59-7.21-8.57-1.45-9.51Z"/>
  <path class="cls-39" d="M105.81,165.44c.1,1.35.3,2.68.4,4.01.03.4-.03.81,0,1.2-1.77.57-3.77.67-6.01.3-2.23.36-4.24.26-6.01-.3.14-1.73.27-3.47.4-5.21.04-.31.14-.78.36-.8,1.15-.09,9.81-.24,10.27,0,.31.17.48.48.59.8Z"/>
  <path class="cls-71" d="M106.21,170.65c.16,1.86.34,3.74.4,5.61-.58.12-.99-.16-1.22-.83h-10.39c-.28.55-.48.87-1.22.83.05-1.87.25-3.75.4-5.61,3.74-.66,8.28-.66,12.02,0Z"/>
  <path class="cls-40" d="M93.79,176.25c.04-.21.54-1.61.63-1.63h11.56c.09.02.59,1.43.63,1.63.11.58-.08,1.38,0,2h-12.82c.09-.62-.12-1.42,0-2Z"/>
  <path class="cls-16" d="M68.55,134.59c.55.21,5.97,8.37,6.81,9.61,1.8.52,3.54,3.87,3.2,5.61-.3,1.7-4.83,1.7-5.61.4-.05-.14-.35-.28-.4-.4-1.57-4.29-3.51-9.11-4.83-13.42-.2-.66-.49-1.16.03-1.8.24,0,.66-.06.8,0Z"/>
  <path class="cls-70" d="M56.54,138.2c-.35,6.97-1.38,13.9-2,20.83-6.57-.39-13.73.53-20.24,0-.71-.06-1.38-.14-1.79-.81,6.96-10.28,13.06-14.58,24.04-20.03Z"/>
  <path class="cls-81" d="M54.53,162.23c-.22,1.21.61.77,1.38.8,4.2.17,8.44-.12,12.64,0,1.73,6.44,4.92,14.74,5.83,21.21,1.02,7.3-4.18,5.41-9.43,5.63-.01-.53.01-1.07,0-1.6-.18-.17-3.4.15-4.2,0-.91-.18-1.77-1.43-3.01-1.6l8.81-6.61c-1.51-1.27-3.34-2.55-4.81-3.8-2.7-2.31-5.29-4.69-7.81-7.22-.33-.71.13-4.96.22-6.17.03-.31.36-.56.37-.64Z"/>
  <path class="cls-69" d="M95.39,157.03c1.23.56.83,3.93-.4,4.41,1.17.6.79,2.8-.4,3.2-4.74-.43-10.43.57-15.05.03-.74-.09-.59-1.25-1.78-.83-1.67-4.5-3.15-9.11-4.81-13.62,1.88-.05,3.8.24,5.61-.4l.88-.12c1.41,2.38,3.03,4.61,4.84,6.67l5.34-7.76h.96c1.59-.08,4.47,3.53,5.19,5.02.51,1.05.96,2.96-.38,3.4Z"/>
  <path class="cls-7" d="M132.65,134.59c.52.64.23,1.14.03,1.8-.76,2.45-1.92,5.35-2.83,7.81-1.28,3.48-2.72,6.93-4.01,10.42-1.64-.62-3.33-.34-5.03-.4-.77-.03-1.61.41-1.38-.8.03-.41.08-.82.18-1.22.47-1.88,7.67-13.13,9.14-14.19.34-.24.71-.43,1.09-.61.43-.6,1.56-2.63,2-2.8.14-.06.56,0,.8,0Z"/>
  <path class="cls-31" d="M117.03,122.98c-3.8,2.18-7.46,4.9-11.22,7.21-.16-.91.3-1.22.79-1.82,2.31-2.86,6.55-6.84,9.29-9.54.47-.46,1.04-.28.74-1.46,0,.07.38.45.42.97.1,1.53-.1,3.11-.02,4.64Z"/>
  <path class="cls-30" d="M105.41,161.43c.08,1.3.3,2.66.4,4.01h-11.22c.02-.26-.02-.54,0-.8.08-1.14.34-2.16.4-3.2.08-.31.21-.76.46-.8,1.42-.21,7.99-.22,9.38,0l.58.8Z"/>
  <path class="cls-81" d="M129.84,137.4c-3.7,5.18-6.83,10.79-10.42,16.02-.45.66-2.99,4.11-3.4,4.01-.52-.13-5.45-7.69-6.21-8.81-2.99-2.18-5.5-6.41-6.41-10.01-.7-.16-1.03-.32-.4-.8l26.84-.4Z"/>
  <path class="cls-24" d="M103.41,138.6c2.23,3.27,4.21,6.75,6.41,10.01-1.06,1.24-4.07,4.33-4.59,5.62-.36.88-.26,1.87-.22,2.79-.09.31-.21.76-.47.8-1.13.16-7.55.2-8.56,0l-.58-.8c.04-.92.14-1.91-.22-2.79-.52-1.29-3.53-4.38-4.59-5.62-.52-1.55,1.18-4.4,2.8-4.81,1.17-1.74,2.43-3.44,3.61-5.21,1.4-1.21,5.05-1.28,6.41,0Z"/>
  <path class="cls-9" d="M93.39,143.81c-.94,1.39-1.81,3.35-2.8,4.81-.78,1.14-5.69,8.68-6.21,8.81-.58.14-.66-.37-.94-.66-1.19-1.26-3.72-5.25-4.87-6.95-1.24-1.84-2.1-3.97-3.2-5.61l18.03-.4Z"/>
  <path class="cls-62" d="M103,137.8c.16.24.24.56.4.8h-6.41c.43-.65,2.75-4.34,3.01-4.41.55-.14,2.53,2.93,3,3.6Z"/>
  <path class="cls-1" d="M105.01,157.03c.06,1.25.31,2.95.4,4.41h-10.42c.09-1.46.34-3.15.4-4.41h9.61Z"/>
  <path class="cls-63" d="M144.55,169.1c2.21-.62,2.92,2.56,1.03,3.09-2.21.62-2.92-2.56-1.03-3.09Z"/>
</svg>