<?xml version="1.0" encoding="UTF-8"?>
<svg id="Layer_14" data-name="Layer 14" xmlns="http://www.w3.org/2000/svg" viewBox="0 0 200 200">
  <defs>
    <style>
      .cls-1 {
        fill: #febda9;
      }

      .cls-2 {
        fill: #fea58c;
      }

      .cls-3 {
        fill: #feccbd;
      }

      .cls-4 {
        fill: #fe6666;
      }

      .cls-5 {
        fill: #fe9898;
      }
    </style>
  </defs>
  <path class="cls-3" d="M51.39,25.35l.79.69-.07,8.86c.51,9.26,3.5,13.23,12.98,13.63,3.47-.31,6.88-.23,10.21.23.43,5.53,3.14,10.03,8.59,11.66l.21.87c.08-.3.19-.71.44-.76,2.17-.4,9.78-.2,12.24,0l.55.76c1.26-.85,2.08,1.2,2.46,2.27.33.11.33.23,0,.38l.76,1.58v54.32l-.76.46-.8.87c-14.86,2.56-14.87,24.84,0,27.38l.8.87.76.26v46.56l-.76.46c-18.55.33-38.43.33-57.12,0l-.76-.26v-46.18l.76-.46-.26.76H3.43l-.46-.76v-62.42c1.08-3.53,1.15-5.92,0-9.46v-21.18c.4-7.99,4.34-15.28,9.73-21.04,10.42-11.16,23.16-11.32,37.44-11.1l1.25.74Z"/>
  <path class="cls-4" d="M125.15,3.03c.24,7.53-1.85,15.96,5.79,20.5,6.08,3.61,24.93,1.21,33,1.8,6.62.49,13.99,3.82,19.09,7.96,0,.28,0,.56-.05.84-.41,2.06-7.74,7.63-9.9,9.04-6.47,4.23-14.84,7.38-22.55,6.47.61,2.24-.2,5.27-.89,7.57-5.58,18.52-27.74,25.56-43.16,13.92-2.4-1.81-5.53-4.5-6.66-7.19v-.38c-.74-20.17-.74-40.35,0-60.53h25.34Z"/>
  <path class="cls-5" d="M99.8,3.03v60.53c-.63-.16-2.24-2.27-2.46-2.27h-13.24c-.16,0-2.57-1-2.96-1.2-3.97-2.07-6.46-6.41-6.31-10.91-6.64-.54-14.71,1.91-19.87-3.39-5.1-5.23-3.22-13.82-3.58-20.44l.7-.76c10.05.78,21.8.42,21.7-12.72l-.12-8.09.8-.74h25.34Z"/>
  <path class="cls-3" d="M2.97,87.39v-9.46c.45,1.1,1.88,3.71,1.85,4.74-.02.88-1.44,3.7-1.85,4.72Z"/>
  <path class="cls-1" d="M183.02,33.3c13.45,10.91,14.93,26.11,13.63,42.57-.17,2.2-1.89,5.68-1.87,6.8.03,1.14,1.85,4.18,1.85,5.67v61.47c-9.58.02-19.17-.03-28.75,0-.5-1.48-.6-3.19-.31-5.13-.51-12.99-.39-25.6,5.09-37.66,1.71-5.21,2.49-10.72,2.74-16.22l.81-1.9c-.04.29-.12.73-.34.76-1.97.23-8.58.29-10.47,0l-.54-.76c.19.22.37.45.51.7,1.14,2.12-1.8,14.52-2.96,17.22-.3.69-.56,1-1.33.61l-.46.76-34.29.15c-6.47,1.44-9.49,5.94-9.84,12.4-5.11.37-10.28.44-15.49.21l-1.19-.65v-56.37c4.1,3.8,7.29,7.65,12.6,9.9,18.09,7.69,37.41-5.26,37.7-24.66,12.85.47,24.83-6.26,32.91-15.89Z"/>
  <path class="cls-1" d="M99.8,149.43l.88-.69c1.21-.13,7.41-.3,7.91.29.49,16.1,16.45,25.64,31.48,24.76l15.31-.2,1.16.82c.11-.33.23-.33.38,0-.01,7.43,0,14.89,0,22.32-19.03,0-38.09,0-57.12,0v-47.29Z"/>
  <path class="cls-1" d="M34.74,88.91c.07,3.82.52,7.63,1.32,11.35,1.04,4.84,3.25,9.26,4.54,13.99,3.17,11.64,1.83,23.24,2.08,35.18h-11.35c-.35-10.69,1.11-21.42-1.62-31.86-1.3-4.97-3.54-9.46-4.69-14.6-1.03-4.61-1.61-9.33-1.63-14.07h11.35Z"/>
  <path class="cls-5" d="M66.8,84.84c17.49-2.56,18.91,23.97,2.15,24.12-14.64.14-16.18-22.07-2.15-24.12Z"/>
  <path class="cls-5" d="M99.8,149.43c-16.91-1.81-16.99-27.24,0-29.13l.76.35v28.32l-.76.46Z"/>
  <rect class="cls-5" x="27.18" y="56.37" width="11.35" height="11.35"/>
  <rect class="cls-5" x="67.65" y="157" width="11.35" height="11.35"/>
  <path class="cls-2" d="M161.08,107.44c.04-.13.52-.52.68-1.01,1.75-5.7,3.21-11.49,3.11-17.53h11.35c-.05,4.83-.63,9.68-1.7,14.38-1.13,4.97-3.36,9.45-4.63,14.29-2.62,10.05-1.3,19.92-1.6,30.17-.02.72.04,1.43-.39,2.06-3.65,0-7.32,0-10.97,0,0,8.19.02,16.4,0,24.59h-.38l-.75-.27.38-48.76c.61-5.63,1.92-11.24,3.72-16.61.08-.25.27-.47.47-.7s.46-.43.72-.62Z"/>
  <path class="cls-4" d="M161.08,107.44c-1.79,5.9-3.62,11.78-4.16,17.97l-.38,48.98c-10.26-.67-21.6,1.78-31.27-2.2-9.13-3.75-17.62-12.26-17.14-22.77-2.67-.2-5.71.28-8.32,0v-29.13c5.06-.56,11.09.42,16.27,0-.46-6.55,4.15-11.68,10.5-12.77l34.51-.1Z"/>
</svg>