<?xml version="1.0" encoding="UTF-8"?>
<svg id="Layer_14" data-name="Layer 14" xmlns="http://www.w3.org/2000/svg" viewBox="0 0 800 600">
  <defs>
    <style>
      .cls-1 {
        fill: #435b89;
      }

      .cls-2 {
        fill: #633f23;
      }

      .cls-3 {
        fill: #613738;
      }

      .cls-4 {
        fill: #009b00;
      }

      .cls-5 {
        fill: #e9dcc6;
      }

      .cls-6 {
        fill: #f3806a;
      }

      .cls-7 {
        fill: #743f54;
      }

      .cls-8 {
        fill: #f9ac7a;
      }

      .cls-9 {
        fill: #fff;
      }

      .cls-10 {
        fill: #1096a5;
      }

      .cls-11 {
        fill: #51679b;
      }

      .cls-12 {
        fill: #6275ae;
      }

      .cls-13 {
        fill: #754c28;
      }

      .cls-14 {
        fill: #2c435e;
      }

      .cls-15 {
        fill: #313144;
      }

      .cls-16 {
        fill: #de5966;
      }

      .cls-17 {
        fill: #42587f;
      }

      .cls-18 {
        fill: #00b400;
      }

      .cls-19 {
        fill: #cf3300;
      }

      .cls-20 {
        fill: #425b75;
      }

      .cls-21 {
        fill: #fbead5;
      }

      .cls-22 {
        fill: #c96e66;
      }

      .cls-23 {
        fill: #263c51;
      }

      .cls-24 {
        fill: #9e2b00;
      }

      .cls-25 {
        fill: #5b3243;
      }

      .cls-26 {
        fill: #5dc4be;
      }

      .cls-27 {
        fill: #fcf6d9;
      }

      .cls-28 {
        fill: #4f2a2d;
      }

      .cls-29 {
        fill: #ffb000;
      }

      .cls-30 {
        fill: #8f3f67;
      }

      .cls-31 {
        fill: #4b6c87;
      }

      .cls-32 {
        fill: #e2705d;
      }

      .cls-33 {
        fill: #4daea7;
      }

      .cls-34 {
        fill: #c0e5f7;
      }

      .cls-35 {
        fill: #507b8e;
      }

      .cls-36 {
        fill: #3b3b4c;
      }

      .cls-37 {
        fill: #f58720;
      }

      .cls-38 {
        fill: #e2cfb5;
      }

      .cls-39 {
        fill: #f9a229;
      }

      .cls-40 {
        fill: #c64456;
      }

      .cls-41 {
        fill: #f74e08;
      }
    </style>
  </defs>
  <path class="cls-34" d="M93.25,140.01c22.36-222.55,186.64-53.79,264.27,71.72,77.63,125.51,138.74-68.73,178.38-143.44,39.64-74.71,130.48-104.59,168.47,176.32s-128.83,376.54-289.04,340.68C255.11,549.42,63.52,435.86,93.25,140.01Z"/>
  <g>
    <g>
      <g>
        <g>
          <path class="cls-14" d="M509.13,504.61c0,1.29.23,2.27.75,2.41,9.62.32,20.04.37,28.59.32,7.79-.04,14.02-.17,16.68-.22.89-.02,1.72-.42,2.28-1.1l1.63-1.97c.79-.95,2.26-.89,2.96.13h0c1.01,1.45,2.69,2.26,4.45,2.13,3.79-.27,10.56-.75,15.04-1.03,2.51-.16,4.32-2.45,3.88-4.92,0-.05-.02-.09-.02-.14-.07-.4-.15-.82-.24-1.25-.54-2.8-1.29-6.17-2.11-9.5-.55-2.24-1.12-4.44-1.67-6.42-.91-3.24-1.77-5.9-2.39-7.11-.07-.15-.15-.26-.27-.38-.76-.84-4.03-4.34-5.35-3.51-1.04.66-2.97,3.72-4.04,5.53-.46.77-1.38,1.11-2.22.8-3.13-1.14-10.46-3.61-13.06-2.86-3.15.91-20.9,13.28-23.02,14.76-.15.1-.27.17-.44.22-1.74.58-12.59,4.22-17.17,6-.85.33-1.49.6-1.81.77-1.48.78-2.44,4.71-2.44,7.34Z"/>
          <path class="cls-20" d="M537.34,492.45c5-2.34,9.11-5.91,13.49-9.18,3.69-2.75,8.28-6.03,13.05-6.22.33-.01.43.53.12.64-2.29.86-4.58,1.53-6.76,2.7-2.45,1.32-4.7,2.97-6.9,4.66-4.01,3.08-7.92,6.37-12.57,8.45-.68.3-1.1-.75-.44-1.06Z"/>
          <path class="cls-15" d="M571.06,481.08c-.51-.32-1.14-.37-1.69-.13-3.6,1.57-15.87,8.03-15.29,7.66,3.99-2.55-7.91,5.21-11.79,10.7-.87,1.23.06,2.92,1.56,2.92,5.38,0,8.38.1,10.03.2,1.02.06,1.88-.71,1.95-1.73.15-2.12.95-5.55,4.2-7.98,3.19-2.38,10.88-3.9,16.08-4.69,1.71-.26,2.16-2.52.68-3.43l-5.73-3.51Z"/>
          <path class="cls-20" d="M509.13,504.61c0,1.29.23,2.27.75,2.41,9.48.31,19.73.37,28.2.32.26,0,.51-.06.74-.16l7.46-3.33v-.61s-3.19-5.19-7.3-6.67c-3.05-1.1-18.09-.47-25.61-.07-.85.33-1.49.6-1.81.77-1.48.78-2.44,4.71-2.44,7.34Z"/>
          <path class="cls-20" d="M574.17,501.02l9.11-.66c1.12-.08,1.92-1.11,1.7-2.22-.52-2.63-1.21-5.68-1.95-8.68-.55-2.24-1.12-4.44-1.67-6.42l-2.14.73-.43,2.79c-.05.35-.2.67-.44.94-1.19,1.34-5.04,5.85-5.67,8.57-.26,1.14-.41,2.11-.49,2.89-.12,1.17.82,2.15,1.99,2.07Z"/>
          <path class="cls-15" d="M569.08,477.94c-.35.6-.35,1.35.03,1.94,1.19,1.85,4.1,5.9,7.8,7.78.9.45,1.95.83,3.04,1.13,1.39.39,2.68-.88,2.32-2.27-1.23-4.75-2.5-8.96-3.32-10.59-.08-.15-.16-.26-.27-.38-.76-.85-4.03-4.33-5.35-3.51-1.12.7-3.25,4.17-4.26,5.9Z"/>
          <path class="cls-15" d="M509.13,504.61c0,1.29.23,2.27.75,2.41,18.41.61,39.7.22,45.27.1.89-.02,1.71-.42,2.28-1.1l1.63-1.97c.79-.95,2.26-.89,2.96.13h0c1.01,1.45,2.69,2.26,4.45,2.13,3.79-.27,10.56-.75,15.04-1.03,2.51-.16,4.32-2.45,3.88-4.92,0-.05-.02-.09-.02-.14-.07-.4-.15-.82-.24-1.25l-76,5.65Z"/>
          <path class="cls-15" d="M544.82,480.35c1.63-.8,3.69-.12,5.37.34,2.06.56,4.56,1.06,6.27,2.37.53.41.53,1.5-.29,1.59-2.02.24-4.21-.48-6.16-.98-1.9-.5-4.26-.91-5.4-2.63-.15-.22-.03-.57.2-.69Z"/>
          <path class="cls-15" d="M541.22,483.02c1.55-1.25,3.82-.22,5.57.23,2.05.53,5.01.85,6.36,2.62.27.36.29,1-.21,1.2-2.02.83-4.36-.2-6.38-.73-1.89-.5-4.72-.75-5.5-2.78-.07-.17.02-.44.16-.55Z"/>
          <path class="cls-15" d="M537.53,484.69c1.93-.48,4.13.62,5.96,1.23,1.82.61,4.11,1.01,5.45,2.44.43.46.19,1.28-.44,1.4-1.95.39-4.11-.66-5.96-1.23-1.82-.57-4.18-.94-5.45-2.44-.42-.49-.19-1.25.44-1.4Z"/>
          <path class="cls-15" d="M535.14,486.95c1.65.01,3.29.78,4.84,1.32,1.53.53,3.18.98,4.5,1.96.64.47.34,1.46-.47,1.47-1.66.01-3.29-.6-4.86-1.08-1.55-.47-3.31-.81-4.64-1.77-.85-.61-.4-1.91.64-1.9Z"/>
        </g>
        <path class="cls-26" d="M583.67,480.58c-6.56,1.94-14.11,2.06-20.98,1.45-11.36-.99-20.85-3.96-20.85-3.96l2.17-126.22s-1.79-1.31-6.74-13.41c-4.4-6.4-4.06-127.01-3.14-128.84l14.07,6.55,1.48.69s25.32-8.74,32.91-11.21l.13-.05c1.06-.34,1.75-.56,1.94-.59.12-.02.22.19.31.62,1.11,5.13.45,40.33.45,40.33l-8.82,88.17s2.71,11.8,7.84,32.67c5.14,20.87,2.2,92.5-.77,113.78Z"/>
        <path class="cls-33" d="M583.67,480.58c-6.56,1.94-14.11,2.06-20.98,1.45,3.46-17.3,19.52-98.04,18.57-105.39-1.06-8.24-6.53-24.31-6.53-24.31,0,0-5.65,9.22-10.69,10-4.97.76,7.04-16.63,7.35-17.08-.38.26-12.48,8.52-15.59,7.43-3.15-1.1,11.77-12.78,11.77-12.78-5.75-9.18,8.56-68,8.56-68,0,0-13.33,6.69-20.64,9.18-7.31,2.48,16.58-21.75,16.58-21.75,0,0-20.37,4.91-29.95,5.64-9.57.73,28.77-21.64,30.61-23.22,1.84-1.57-37.97-16.98-37.97-16.98l6.88-6.61,6.55-2.01,34.39-10.52.13-.05,1.94-.59.31.62c1.11,5.13.45,40.33.45,40.33l-8.82,88.17s2.71,11.8,7.84,32.67c5.14,20.87,2.2,92.5-.77,113.78Z"/>
      </g>
      <g>
        <g>
          <path class="cls-14" d="M567.43,518.6c0,1.29.23,2.27.75,2.41,9.62.32,20.04.37,28.59.32,7.79-.04,14.02-.17,16.68-.22.89-.02,1.72-.42,2.28-1.1l1.63-1.97c.79-.95,2.26-.89,2.96.13h0c1.01,1.45,2.69,2.26,4.45,2.13,3.79-.27,10.56-.75,15.04-1.03,2.51-.16,4.32-2.45,3.88-4.92,0-.05-.02-.09-.02-.14-.07-.4-.15-.82-.24-1.25-.54-2.8-1.29-6.17-2.11-9.5-.55-2.24-1.12-4.44-1.67-6.42-.91-3.24-1.77-5.9-2.39-7.11-.08-.15-.15-.26-.27-.38-.76-.84-4.03-4.34-5.35-3.51-1.04.66-2.97,3.72-4.04,5.53-.46.77-1.38,1.11-2.22.8-3.13-1.14-10.46-3.61-13.06-2.86-3.15.91-20.9,13.28-23.02,14.76-.15.1-.27.17-.44.22-1.74.58-12.59,4.22-17.17,6-.85.33-1.49.6-1.81.77-1.48.78-2.44,4.71-2.44,7.34Z"/>
          <path class="cls-20" d="M595.65,506.45c5-2.34,9.11-5.91,13.49-9.18,3.69-2.75,8.28-6.03,13.05-6.22.33-.01.43.53.12.64-2.29.86-4.58,1.53-6.76,2.7-2.45,1.32-4.7,2.97-6.9,4.66-4.01,3.08-7.92,6.37-12.57,8.45-.68.3-1.1-.75-.44-1.06Z"/>
          <path class="cls-15" d="M629.37,495.07c-.51-.32-1.14-.37-1.7-.13-3.6,1.57-15.87,8.03-15.29,7.66,3.99-2.55-7.91,5.21-11.79,10.7-.87,1.23.06,2.92,1.56,2.92,5.38,0,8.38.1,10.03.2,1.02.06,1.88-.71,1.95-1.73.15-2.12.95-5.55,4.2-7.98,3.19-2.38,10.88-3.9,16.08-4.69,1.71-.26,2.16-2.52.68-3.43l-5.73-3.51Z"/>
          <path class="cls-20" d="M567.43,518.6c0,1.29.23,2.27.75,2.41,9.48.31,19.73.37,28.2.32.26,0,.51-.06.74-.16l7.46-3.33v-.61s-3.19-5.19-7.3-6.67c-3.05-1.1-18.09-.47-25.61-.07-.85.33-1.49.6-1.81.77-1.48.78-2.44,4.71-2.44,7.34Z"/>
          <path class="cls-20" d="M632.47,515.01l9.1-.66c1.12-.08,1.92-1.11,1.7-2.22-.52-2.63-1.21-5.68-1.95-8.68-.55-2.24-1.12-4.44-1.67-6.42l-2.14.73-.43,2.79c-.05.35-.2.67-.44.94-1.19,1.34-5.04,5.85-5.67,8.57-.26,1.14-.41,2.11-.49,2.89-.12,1.17.82,2.15,1.99,2.07Z"/>
          <path class="cls-15" d="M627.39,491.93c-.35.6-.35,1.35.03,1.94,1.19,1.85,4.1,5.9,7.8,7.78.9.45,1.95.83,3.04,1.13,1.39.39,2.68-.88,2.32-2.27-1.23-4.75-2.5-8.96-3.32-10.59-.08-.15-.16-.26-.27-.38-.76-.85-4.03-4.33-5.35-3.51-1.12.7-3.25,4.17-4.26,5.9Z"/>
          <path class="cls-15" d="M567.43,518.6c0,1.29.23,2.27.75,2.41,18.41.61,39.7.22,45.27.1.89-.02,1.71-.42,2.28-1.1l1.63-1.97c.79-.95,2.26-.89,2.96.13h0c1.01,1.45,2.69,2.26,4.45,2.13,3.79-.27,10.56-.75,15.04-1.03,2.51-.16,4.32-2.45,3.88-4.92,0-.05-.02-.09-.02-.14-.07-.4-.15-.82-.24-1.25l-76,5.65Z"/>
          <path class="cls-15" d="M603.13,494.34c1.63-.8,3.69-.12,5.37.34,2.06.56,4.56,1.06,6.27,2.37.53.41.53,1.5-.29,1.59-2.02.24-4.21-.48-6.16-.98-1.9-.5-4.26-.91-5.4-2.63-.15-.22-.03-.57.2-.69Z"/>
          <path class="cls-15" d="M599.53,497.02c1.55-1.25,3.82-.22,5.57.23,2.05.53,5.01.85,6.36,2.62.27.36.29,1-.21,1.2-2.02.83-4.36-.2-6.38-.73-1.89-.5-4.72-.75-5.5-2.78-.07-.17.02-.44.16-.55Z"/>
          <path class="cls-15" d="M595.84,498.68c1.93-.48,4.13.62,5.96,1.23,1.82.61,4.11,1.01,5.45,2.44.43.46.19,1.28-.44,1.4-1.95.39-4.11-.66-5.96-1.23-1.83-.57-4.18-.94-5.45-2.44-.42-.49-.19-1.25.44-1.4Z"/>
          <path class="cls-15" d="M593.44,500.95c1.65.01,3.29.78,4.84,1.32,1.53.53,3.18.98,4.5,1.96.64.47.34,1.46-.47,1.47-1.66.01-3.29-.6-4.86-1.08-1.55-.47-3.31-.81-4.64-1.77-.85-.61-.4-1.91.63-1.9Z"/>
        </g>
        <path class="cls-26" d="M644.27,494.58c-6.25,2.71-16.25,2.23-25.21.94-10.46-1.51-19.5-4.14-19.5-4.14l2.36-128.77s-2.67-3.74-9.6-15.52c-2.27-4.42-5.82-37.69-8.62-67.6-2.43-25.85-4.28-49.17-4.28-49.17l-31.66-30.79s54.63-6.66,55.43-6.61c.81.04,35.62,19.19,35.62,19.19l-.96,135.1s4.67,9.65,9.19,27.11c4.53,17.46,1.35,85.65-2.78,120.26Z"/>
        <path class="cls-33" d="M644.27,494.58c-6.25,2.71-16.25,2.23-25.21.94,10.04-25.85,15.43-132.32,15.43-132.32,0,0-12.44,5.06-19.12,5.21-6.68.15-3.07-6.65,12.23-12.16,15.3-5.5-29.55.35-28.07-8.87,14.26-8.85,28.49-1.64,28.49-1.64l-1.26-68.37s-21.74,16.25-31.06,17.77c-5.75-.46-10.01-10.09-12-15.65-2.43-25.85-4.28-49.17-4.28-49.17l-31.66-30.79s54.63-6.66,55.43-6.61c.81.04,35.62,19.19,35.62,19.19l-.96,135.1s4.67,9.65,9.19,27.11c4.53,17.46,1.35,85.65-2.78,120.26Z"/>
      </g>
      <g>
        <path class="cls-5" d="M438.65,119.04s-6.2,11.04-5.1,26.15c1.1,15.11.09,82.6,11.62,85.02,11.53,2.42,16.26,2.89,18.64-3.25,2.39-6.14,5.47-65.72,5.47-65.72l-30.64-42.21Z"/>
        <path class="cls-8" d="M464.4,222.99c-.42,7.77-8.86,15.77-18.05,16.12-2.33.09-4.5-.2-6.45-.67h0c-5.73-1.37-9.5-4.37-9.5-4.37l3.73-14.27s1.37.05,9.87-4.7c.03-.02.05-.03.08-.04,8.51-4.69,20.74.18,20.32,7.93Z"/>
        <path class="cls-5" d="M464.4,222.99c-.42,7.77-8.86,15.77-18.05,16.12-2.33.09-4.5-.2-6.45-.67,7.21-1.23,12.26-7.16,11.68-13.6-.45-5.04-5.09-8.38-7.51-9.78,8.51-4.69,20.74.18,20.32,7.93Z"/>
        <path class="cls-6" d="M420.26,230.44s8.09,5.82,14.16,4.78c6.07-1.04,9.38-5.76,9.76-7.54,0,0,6.5-4.91,4.43-11.7l-1.96-5.82s-3.39-13.32-4.92-13.45c-1.53-.13-3.7,2.29-3.44,4.95.25,2.67,1.57,9.13,1.57,9.13l-4.33,5.66-15.27,13.99Z"/>
        <path class="cls-8" d="M439.63,216.73s3.11,1.14,3.34-1.87c.23-3.01-11.33-11.72-13.85-11.52-2.52.19-5.1,2.88-3.1,6.36-3.68-1.75-7.56,1.8-3.66,6.28-2.19-.39-4.15-.75-5.2,1.47-1.05,2.21,2.34,5.69,2.34,5.69,0,0-3.03.46-3.22,4.01-.14,2.57,6.27,4.08,7.6,4.27,1.34.19,8.02.87,9.84.12,1.82-.75,1.89-2.38,1.41-4.25,3.25-.78,3.21-2.14,2.55-4.58,2.75-1.65,4.69-2.59,1.94-5.97Z"/>
        <path class="cls-6" d="M443.39,214.08c-.07-.27-.49-.34-.62-.08-1.38,2.84-6.91-.44-8.8-1.35-2.17-1.05-4.28-2.23-6.62-2.84-.41-.11-.74.44-.41.74,1.82,1.64,4.03,2.72,6.21,3.81,1.94.97,4.27,2.34,6.39,2.9,1.69.45,4.43-.73,3.85-3.17Z"/>
        <path class="cls-6" d="M441.23,217.64c-.09-.33-.85-.35-.92.02-1.09,5.78-9.19-.84-13.48-.52-.31.02-.45.37-.25.6,1.21,1.41,3.05,1.91,4.74,2.63,1.85.79,3.85,1.93,5.89,2.19,2.15.28,4.67-2.47,4.02-4.93Z"/>
        <path class="cls-6" d="M438.75,224.48c-.08-.44-.55.47-.75.78-1.36,2.11-6.31.34-8.28-.1-2.14-.48-4.4-1.3-6.6-1.02-.43.05-.59.57-.21.82,2.01,1.33,16.92,5.44,15.83-.48Z"/>
      </g>
      <g>
        <path class="cls-26" d="M579.15,174.37l31.44,34.52-74.17,57.02-39.64-51.21s-54.68-59.65-57.49-75.3c-2.15-11.99,5.34-28.33,14.64-41.88,5.96,4.09,20.7,12.96,25.98,4.97,4.82-7.29,14.73-29.68,19.9-41.63,12.52-4.5,34.46-8.99,49.25,7.02,21.75,23.53,30.09,106.5,30.09,106.5Z"/>
        <path class="cls-33" d="M499.8,60.85s-4.83,51.56,2.31,76.53c-9.38.42-22.74,4.62-21.41,7.24,1.34,2.62,26.83,3.79,26.83,3.79,0,0-22.15,13.98-18.09,16.13,4.06,2.15,17.32-3,17.32-3l-15.78,36.83,11.59,7.15,38.14-57.84-21.12-78.01-19.8-8.82Z"/>
        <path class="cls-27" d="M522.14,227.67c22.87,30.95,41.3,52.47,41.3,52.47,0,0-27,6.02-33.1,2-6.11-4.03-36.39-64.02-36.39-64.02,0,0-47.95-51.58-54.05-70.24-4.76-14.58-4.71-25.89,3.86-39.07,1.96-3.01,6.49-8.78,9.39-12.04,0,0,25,74.34,57.53,115.25,4.04,5.56,7.88,10.79,11.48,15.65Z"/>
        <path class="cls-38" d="M480.79,202.23c-4.95-5.43-9.61-11.12-13.99-17.02-9.07-12.24-19.36-29.21-27.53-41.98-.54-.84-1.65.03-1.39.84,4.27,13.74,16.58,30.05,25.05,41.54,4.5,6.11,9.36,11.97,14.49,17.57,4.77,5.21,10.12,12.05,16.44,15.32.89.46,1.45-.77,1.02-1.42-3.61-5.52-9.62-9.95-14.09-14.84Z"/>
        <path class="cls-5" d="M510.67,212.01c4.04,5.56,7.88,10.79,11.48,15.65-12.85-8.86-50.7-49.93-50.7-49.93l-1.38-15.41s-1.53.05-12.81-5.05c-6.02-13.88-12.01-41.74-13.5-48.47,1.96-3.01,6.49-8.78,9.39-12.04,0,0,25,74.34,57.53,115.25Z"/>
        <path class="cls-27" d="M645.85,215.95c-.9,5.24-38.02,44.72-38.58,44.42-8.54-4.46-23.85-22.36-39.58-43.53-4.16-5.61-8.36-11.45-12.46-17.33-3.64-5.21-7.21-10.46-10.63-15.6-7.8-11.74-14.81-22.96-20.04-32.09-15.83-27.64-20.42-59.99-24.82-90.92,6.31-4.22,20.84-6.15,27.97-5.12,12.18,1.75,20.87,10.21,30.11,18.35,4.85,4.26,9.22,9.04,13.28,14.08,3.66,4.55,7.09,9.32,10.4,14.13,11.41,16.56,21.73,33.86,32.03,51.13,4.76,7.98,9.52,15.96,14.28,23.94,3.49,5.85,19.25,31.46,18.03,38.55Z"/>
        <path class="cls-38" d="M567.69,216.84c-4.16-5.61-8.36-11.45-12.46-17.33-3.64-5.21-7.21-10.46-10.63-15.6.87-9.53,1.86-19.27,2.38-19.31,1.02-.08,6.6-23.52-9.64-104.02,32.27,13.48,48.89,56.77,51.45,83.01,2.19,22.41-14.87,64.24-21.1,73.25Z"/>
        <path class="cls-5" d="M532.26,95.17l.59,29.21,16.12,27.75,6.27,47.37c-11.95-17.11-23.14-34.56-30.67-47.69-19.86-34.66-24.76-90.97-24.76-90.97,2.25-1.17,4.45-2.16,6.57-2.99h0c.97.83,25.88,37.31,25.88,37.31Z"/>
        <path class="cls-5" d="M579.94,204.85c-.68,3.75,18.11,4.65,25.76-2.29,7.65-6.94,8.9-21.72,5.1-21.59-3.8.13-29.72,17.61-30.86,23.89Z"/>
        <path class="cls-5" d="M512.5,253.51c.01-1.1,16.08-10.6,16.96-9.25.88,1.35.69,8.92-3.98,12.16-4.67,3.24-13.02.41-12.98-2.91Z"/>
        <path class="cls-38" d="M574.53,198.68c-1.93,1.11-3.86,2.23-5.8,3.34-.05.03,0,.1.05.07,1.93-1.11,3.86-2.23,5.8-3.34.05-.03,0-.1-.05-.07Z"/>
        <path class="cls-38" d="M542.6,209.67s0,.1.05.07c.04-.03,0-.1-.05-.07Z"/>
      </g>
      <g>
        <path class="cls-39" d="M474.23,41.53c1.9,6.86,1.81,12.22.16,11.82-1.65-.41-29.9-10.04-29.9-10.04l-40.19,6.83s-5.04,1.44-7.81-1.74c-2.56-2.92-1.27-8.08,3.15-13.46.38-.46.79-.93,1.21-1.4,5.38-5.87,20.86-18.99,31.19-23.45,10.32-4.46,17.26-4.02,20.33-1.82,1.19.86,4.46,5.01,8.12,10.19,5.79,8.17,12.57,18.87,13.73,23.07Z"/>
        <path class="cls-37" d="M474.23,41.53c1.9,6.86,1.81,12.22.16,11.82-1.65-.41-29.9-10.04-29.9-10.04l-40.19,6.83s-5.04,1.44-7.81-1.74c-2.56-2.92-1.27-8.08,3.15-13.46-.14,3.41.28,7.37,2.52,7.4,3.91.04,25.96-22.7,27.1-21.46,1.06,1.15-2.46,9.29-2.55,9.75,0,0,.02-.02.03-.05.49-.85,14.55-17.37,15.61-15.23,1.07,2.14-.83,8.16-.83,8.16,0,0,9.1-7.42,10.26-6.31,1.17,1.11-2.95,8.02-2.1,7.09.64-.71,7.29-4.07,10.81-5.83,5.79,8.17,12.57,18.87,13.73,23.07Z"/>
        <path class="cls-8" d="M499.8,60.85c-5.17,11.95-15.09,34.34-19.9,41.63-5.28,7.98-20.02-.88-25.98-4.97,2.83-4.14,5.83-8.01,8.78-11.43-.13-.35-.4-.77-.77-1.22-2.13-2.65-7.47-6.54-7.47-6.54l9.95-36.21,8.27,7.39,17.45,15.6s3.8-2.12,9.68-4.24Z"/>
        <path class="cls-6" d="M472.68,49.49c3.55,6.94,6.12,14.78,3.61,20.25-3.98,8.65-10.81,13.22-14.36,15.11-2.13-2.65-7.47-6.54-7.47-6.54l9.95-36.21,8.27,7.39Z"/>
        <path class="cls-8" d="M468.57,51.07c1.42,4.36-2.89,23.84-7.67,29.09-4.78,5.24-12.26,8.94-14.77,9.34-2.52.4-3.78-3.22-3.78-3.22,0,0-11.84-6.28-16.75-10.5-4.9-4.23-6.98-5.92-8.39-10.54-2.4-2.21-4.48-4.28-6.21-6.14-.25-.25-.48-.51-.71-.76-.33-.35-.63-.7-.92-1.03-3.8-4.29-5.46-7.1-4.93-7.23,20.02-5.5,34.62-24.35,35.01-24.29,0,0-.17,10.73,5.3,11.08,3.32-.56.31-6.46.31-6.46,0,0,6.5,8.59,8.9,7.29,1.08-.58.95-2.12.47-3.63,2.39,1.34,4.1,2.31,4.1,2.31,0,0,8.61,10.37,10.03,14.73Z"/>
        <path class="cls-6" d="M443.34,76.83l-1.69,1.89s.43,5.9.7,7.56c0,0-11.84-6.28-16.75-10.5-4.9-4.23-6.98-5.92-8.39-10.54-2.74-2.52-5.05-4.85-6.93-6.9,1.47-1.95,5.23-6.05,10.44-4.72,3.48,1.57,7.15,5.75,7.77,8.68.64,2.92,1.05,8.09,1.05,8.09l6.67-3.18,2.18,3.14,2.1,3.03,2.86,3.48Z"/>
        <path class="cls-9" d="M441.21,46.7c-.17.59-.65,1.78-1.67,3.19-.99,1.38-2.49,2.99-4.68,4.5-.41.12-.72.2-.96.24-.8.13-.8-.1-.93-.07-.16.05-2.5-2.18-3.63-5.75,0,0,2.37-1.91,4.81-2.41,2.44-.51,5.99-.15,7.05.3Z"/>
        <path class="cls-9" d="M427.22,59.4c-.15.42-.49.99-.96,1.61-1.18,1.56-3.18,3.39-4.92,3.68h-.01c-2.38-.28-4.97-4.83-4.97-4.83,0,0,2.53-2.02,5.01-2.11,2.48-.09,5.45.95,5.85,1.65Z"/>
        <path class="cls-3" d="M440.23,48.77c-.3.32-.6.65-.89.98-1.34-.92-4.72-1.51-6.35.3-1.37,1.52-.31,3.25.5,4.16-.13.08-.27.15-.4.23-.23.14-.18.57.14.5,2.96-.66,6.11-3.13,7.5-5.81.14-.28-.29-.59-.51-.36Z"/>
        <path class="cls-3" d="M426.26,61.01c-1.65-1.33-6.43-1.37-6.71.42-.21,1.37.77,2.44,1.36,2.94-.16.06-.33.13-.49.19-.29.1-.1.53.18.44.41-.13.85-.28,1.29-.45.3-.1.6-.23.9-.4,1.12-.55,2.17-1.29,2.8-2.27.02-.03.02-.06.02-.09.23-.26.45-.52.64-.77Z"/>
        <path class="cls-3" d="M442.03,46.27c-3.95-2.44-11.67-.22-14.03,3.65-.18.3.16.62.44.41,2.11-1.5,3.87-2.97,6.46-3.58,2.45-.58,4.47.03,6.88.2.36.03.58-.48.25-.69Z"/>
        <path class="cls-3" d="M421.44,57.41c-2.67.24-5.21,1.41-6.98,3.43-.28.32.22.71.53.48,2.15-1.59,4.43-2.84,7.17-2.91,1.95-.05,3.63.8,5.5.96.14.01.27-.16.16-.28-1.47-1.64-4.32-1.87-6.39-1.68Z"/>
        <path class="cls-22" d="M436.04,66.63c-2.05.95-4.05,2.02-6.05,3.07.41-3.31-.12-6.66-1.73-9.63-1.67-3.09-4.89-6.4-8.48-7.05-.41-.07-.57.52-.26.73,2.93,1.98,5.6,3.42,7.44,6.63,1.79,3.13,2.28,6.75,1.61,10.27-.1.51.39.99.9.72,2.36-1.24,4.76-2.42,7.07-3.77.61-.36.14-1.28-.51-.98Z"/>
        <path class="cls-6" d="M448.35,41.32c-.11.7,3.48.11,4.94,1.23,1.46,1.12.26,5.03.26,5.03,0,0,3.29,5.93,3.7,5.34.41-.59-1.33-6.86-1.33-6.86,0,0,1.39-4.65-.07-5.66-1.46-1.01-7.39.23-7.5.93Z"/>
        <path class="cls-6" d="M424.99,48.43s2.96,1.62,3.63,1.22,4.15-3.96,8.19-4c4.03-.04,5.22.61,5.22.61,0,0-.3-3.21-1.17-4.01s-3.84-1.72-6.2-1.09-7.84,4.48-9.66,7.27Z"/>
        <path class="cls-3" d="M424.93,48.07c-.19.1-1.33,1.01-.88.97s1.04.39,2.14-.63c1.1-1.01,5.73-4.91,7.85-6.14,2.12-1.23,5.01-.44,5.3-1.13s-5.19-1.75-7.82-.21c-2.65,1.56-7.93,6.36-8.25,6.63-.89.78,1.64.5,1.64.5Z"/>
        <path class="cls-3" d="M419.97,52.74c-.19.41,0,1.1-1.34,1.78-1.17.6-5.34,2.94-7.64,4.57-.25-.25-.48-.51-.71-.76-.33-.35-.63-.7-.92-1.03.13-.14.26-.26.4-.38,2.38-1.94,8.73-5.21,9.1-5.4,1.04-.56-.12,1.72-.12,1.72.16-.14,1.41-.9,1.22-.48Z"/>
        <path class="cls-6" d="M442.46,47.84c-.49.22-.68.81-.92,1.26-.28.52-.59,1.05-.72,1.63-.06.25.31.44.49.26.43-.43.71-.98,1-1.51.25-.44.64-.9.56-1.42-.03-.19-.24-.3-.41-.23Z"/>
        <path class="cls-22" d="M449.25,56.63c-.29-.17-.61.17-.45.46,4.47,8.02-5.18,14.47-12.07,15.33-.84.1-.78,1.26.05,1.3,4.8.24,9.4-1.97,12.37-5.74,2.51-3.18,4.35-8.8.1-11.34Z"/>
      </g>
      <g>
        <path class="cls-8" d="M540.94,237.29s-10.49,26.66-18.11,30.96c-13.79,3.06-17.59,1.66-17.59,1.66,0,0-6.15,14.92-9.68,14.23-3.53-.68,3.28-14.19,3.28-14.19-.81-1.02-8.06,14.42-13.18,11.49-2.16-1.24,9.93-14.02,9.22-14.53-.71-.51-10.63,13.5-14.72,11.44-2.71-1.38,3.98-8.4,7.86-12.15-4.22,3.82-12.35,10.78-13.48,8.6-1.54-2.96,15.05-19.37,17.97-19.64,2.92-.26,20.91.56,20.91.56l6.51-24.13s6.18-.88,12.24.61c3.3.82,6.57,2.33,8.78,5.07Z"/>
        <path class="cls-6" d="M540.94,237.29s-10.49,26.66-18.11,30.96c-13.79,3.06-17.59,1.66-17.59,1.66,0,0-6.15,14.92-9.68,14.23-3.53-.68,3.28-14.19,3.28-14.19-.81-1.02-8.06,14.42-13.18,11.49-2.16-1.24,9.93-14.02,9.22-14.53,0,0,2.78-3.9,6.15-4.63,3.37-.72,15.96,1.02,19.7-.49,6.18-17.86,9.69-26,11.44-29.59,3.3.82,6.57,2.33,8.78,5.07Z"/>
        <path class="cls-27" d="M551.11,243.35s-1.99.45-8.21-.32c-1.92-.24-4.25-.6-7.04-1.13-5.12-.97-11.8-2.5-20.46-4.9.86-7.61,17.72-70.94,17.72-70.94,0,0-3.36-1.73-4.19-4.82-.83-3.09,7.22-4.49,7.22-4.49,0,0-4.3-.71-4.95-4.66-.65-3.95,4.8-4.71,4.8-4.71,0,0-24.37-64.86-13.54-83.75,1.46-2.54,3.57-4.25,6.45-4.85,19.6-4.08,49.91,59.52,49.92,79.56.01,20.04-27.72,105.01-27.72,105.01Z"/>
        <path class="cls-5" d="M551.11,243.35s-1.99.45-8.21-.32c6.12-21.81,19.24-79.48,20.85-91.78,2.01-15.43-20.8-70.67-25.76-78.78-3.94-6.45-12.26-8.32-15.52-8.83,1.46-2.54,3.57-4.25,6.45-4.85,19.6-4.08,49.91,59.52,49.92,79.56.01,20.04-27.72,105.01-27.72,105.01Z"/>
        <path class="cls-5" d="M537.52,156.8c1.49-3.16,11.45-4.75,14.26-1.93,2.81,2.82-5.87,3.05-5.87,3.05,0,0,10.12,4.38,4.66,6.27-5.46,1.89-14.55-4.23-13.05-7.39Z"/>
        <path class="cls-22" d="M496.99,276.58c.95-2.6,1.94-5.23,3.14-7.73.27-.57-.45-1.13-.91-.66-1.76,1.8-2.59,4.15-3.48,6.48-.87,2.28-1.9,4.7-1.97,7.17-.03,1.2-.09,2.6,1.31,3.03,1.75.54,2.71-1.14,3.77-2.11.22-.21-.06-.57-.32-.42-.46.26-.91.53-1.36.81-1.67-.26-2.21-.99-1.61-2.18,0-1.33,1-3.19,1.43-4.38Z"/>
        <path class="cls-22" d="M496.08,265.84c-1.25-.77-4.17,2.9-6.61,6.46-1.04.84-1.99,1.81-3.01,2.68-.59.51-2.06,2.05-3.01,2.24-3.29,1.13-3.52-.66-2.44-1.99.37-.62.79-1.2,1.26-1.75,2.8-3.41,6.45-6.35,8.82-10.08.14-.22-.15-.56-.38-.38-2.14,1.63-4.06,3.73-5.9,5.83-.05-.02-.11-.02-.17.03-1.9,1.32-4.15,3.42-6.32,4.25-1.94.74-2.73.11-1.12-1.93.86-1.09,1.81-2.14,2.73-3.17,3.72-4.15,8.07-7.7,11.77-11.83.23-.26-.06-.69-.39-.5-4,2.4-7.44,5.9-10.65,9.25-2.05,2.15-6.31,5.53-6.49,8.79-.23,4.34,5.2.4,8.46-2.41-.2.23-.41.46-.61.69-1.18,1.3-4.01,4.05-2.97,6.08,1.53,3,5.34.39,8.16-2.37-.71,1.12-1.25,2.01-1.5,2.39-.73,1.14-2.23,3.23-.57,4.37,1.5,1.03,3.66-.38,4.57-1.53.31-.39-.1-1-.57-.72-.56.34-2.31.49-2.59-.3-.13-.35,1.64-2.45,1.82-2.72.99-1.44,1.99-2.87,3.01-4.29.91-1.26,1.82-2.52,2.71-3.79.41-.59,1.32-2.58,1.91-2.68.3-.05.31-.48.08-.62Z"/>
      </g>
    </g>
    <g>
      <g>
        <path class="cls-11" d="M335.32,261.23c-2.18,1.7-8.67,18.01-9.29,20.92-.63,2.91,5.79,43.92,4.5,43.67-1.3-.26-31.24,6.24-31.24,6.24,0,0,9.07-47.72,8.41-48.83-.67-1.11,17.54-30.45,17.54-30.45l14.18,2.76-4.08,5.71Z"/>
        <path class="cls-8" d="M402.14,503.94c.47,1.56-14.57,6.95-21.27,7.08-6.69.13-35.1-7.98-35.1-7.98,0,0-12.05,1.02-14.64-2-2.58-3.03,6.16-15.97,6.16-15.97,0,0-.45-21.85.76-32.97.28-2.56.68-4.98,1.13-7.2,1.52-7.43,3.72-12.56,4.78-12.77l23.58,4.56-4.46,16.7-7.38,27.69,29.77,20.83s16.22.48,16.69,2.03Z"/>
        <g>
          <path class="cls-30" d="M323.36,505.78s23.38,5.84,44.18,6.36c12.8-2.36,27.14-3.72,39.23-7.01,0,0,.63,1.94.33,2.62-2.11,1.44-25.95,5.98-36.66,7.54-10.71,1.56-43.43-6.44-46.63-7.52l-.45-1.99"/>
          <path class="cls-16" d="M368.41,511.02s6.39-13.89,10.42-18.5c21.37,6.73,26.08,8.73,27.93,12.6,1.84,3.87-38.14,8.04-39.06,8.37-.92.33-42.76-5.01-44.35-7.71-1.59-2.7,45.06,5.24,45.06,5.24Z"/>
          <path class="cls-40" d="M380.71,496.37c.68-2.06,22.39,5.98,22.61,7.84.21,1.86-25.89,6.11-26.85,3.89s6.99-6.42,6.99-6.42c0,0-3.72-2.37-2.75-5.31Z"/>
        </g>
        <path class="cls-6" d="M367.53,436.69l-4.46,16.7c-7.89-.94-17.99-5.52-23.9-8.49,1.52-7.43,3.72-12.56,4.78-12.77l23.58,4.56Z"/>
        <path class="cls-15" d="M312.2,317.94s75.41,16.58,91.23,31.9c4.43,6.99-25.74,96.91-25.74,96.91,0,0-30.83-2.64-40.89-11-.07-17.32,17.69-55.34,17.69-55.34l-62.44-41.44,20.15-21.04Z"/>
      </g>
      <g>
        <rect class="cls-15" x="427.02" y="284.81" width="8.29" height="226"/>
        <rect class="cls-36" x="337.87" y="280.09" width="182.69" height="8.29"/>
        <rect class="cls-15" x="337.87" y="285.86" width="182.69" height="8.29"/>
        <rect class="cls-36" x="358.83" y="506.93" width="145.24" height="10.05"/>
      </g>
      <g>
        <path class="cls-13" d="M326.52,395.04l-39.19-1.23s-.18,0-.52,0l-68.49-2.15-42.71-1.34s3.42-15.64,6.8-22.92c.71-1.53,1.42-2.68,2.09-3.25,3.38-2.85,97.21,4.42,129.19,10.35,4.77.89,8.17,1.74,9.68,2.53,11.69,6.07,3.14,18.02,3.14,18.02Z"/>
        <path class="cls-2" d="M315.46,377.67l-28.13,16.14s-.18,0-.52,0c-5.55-.1-53.2-.93-54.33.02-.5.42-6.71-.6-14.15-2.18-10.48-2.21-23.4-5.53-26.32-7.5-5-3.38,17.5-12.17,18.84-12.3.9-.08-14.52-2.46-25.19-4-1.78-.26-2.53-2.52-1.16-3.69,0,0,.01-.01.02-.02,3.38-2.85,97.21,4.42,129.19,10.35l1.77,3.18Z"/>
        <rect class="cls-35" x="170.34" y="381.04" width="167.92" height="136.65"/>
        <polygon class="cls-31" points="338.26 381.04 338.26 475 170.34 431.5 170.34 411.67 283.23 430.59 198.47 381.04 338.26 381.04"/>
        <path class="cls-14" d="M338.26,503.15v14.54h-167.92v-14.54c30.82-.02,132.43,0,167.92,0Z"/>
      </g>
      <g>
        <path class="cls-3" d="M322.38,193.49s18.07-.21,25.42-8.97c7.34-8.76.31-21.26,2.83-25.62,2.52-4.36,3.29-2.43,6.97-9.46,3.69-7.02-1.39-21.85-3.86-24.44-4.9-15.94-30.62-17.54-37.59-16.92-6.98.63-19.1,8.74-25.94,21.43-6.84,12.69-4.78,15.95-12.49,19.58-10.75,5.06-17.92,2.57-22.17,12.19-2.29,5.17,3.74,10.19-1.07,16.81-4.81,6.62-16.26,18.84-1.41,27.1,14.85,8.27,28.34,8.86,40.45,2.84,12.11-6.03,21.54-16.35,28.86-14.56Z"/>
        <path class="cls-28" d="M294.88,139.26c-.51,1.02-2.31,8.82-6.06,12.42-3.75,3.6-15.28,4.28-17.64,8.45-2.36,4.18.42,6.95-1.67,11.12-2.08,4.17-13.3,7.19-11.86,13.32s12.69,8.81,12.69,8.81l30.14-1.7s20.52.69,28.18-2.64c7.66-3.33,13.7-3.23,15.4-10.92,1.7-7.69-.2-13.42,1.66-16.81s8.1-3.99,7.82-10.15c-.28-6.16-4.7-10.03-6.12-10.86-1.42-.82-42.57,4.62-42.57,4.62l-8.94-.66-1.03-5Z"/>
        <path class="cls-11" d="M384.65,233.4c-2.33,1.47-6.13,4.43-7.48,8.86-.05.16-.09.31-.13.47h0c-1.14,4.02-1.1,8.15-.92,10.7-6.19-1.3-11.75-2.77-14.75-4.28-14.69-9.2-37.97-33.11-43.56-38.94-2.18-2.28-4.38-6.38-5.6-10.82-1.91-6.94-1.43-14.69,5.28-17.54,0,0,11.18,1.7,17.65,6.82,6.48,5.12,40.56,41.56,40.56,41.56,0,0,3.78,1.29,8.94,3.18Z"/>
        <path class="cls-1" d="M377.04,242.74c-1.14,4.01-1.1,8.14-.92,10.69-6.19-1.3-11.75-2.77-14.75-4.28-14.69-9.2-37.97-33.11-43.56-38.94-2.18-2.28-4.38-6.38-5.6-10.82l15-3.33,31.68,37.35s.84-5.38,2.78-5.39c1.95,0,1.39,8.15,1.39,8.15,0,0,7.4-5.13,7.87-2.76.47,2.38-3.43,6.44-3.43,6.44l9.53,2.88h0Z"/>
        <path class="cls-8" d="M411.85,245.15c-.47,1.86-1.04,3.53-1.65,5.01-2.15,5.24-4.77,8.06-4.77,8.06,0,0-16.09-2-29.31-4.78-.18-2.55-.22-6.69.92-10.7.04-.16.08-.31.13-.47,1.35-4.43,5.15-7.39,7.48-8.86,9.23,3.37,22.91,8.63,27.2,11.74Z"/>
        <path class="cls-6" d="M410.2,250.16c-2.15,5.24-4.77,8.06-4.77,8.06,0,0-16.09-2-29.31-4.78-.18-2.55-.22-6.69.92-10.7,8.66,1.73,30.93,6.91,33.16,7.43Z"/>
        <path class="cls-6" d="M402.42,243.3s-4.15,6.54-2.95,12.44c1.2,5.9,16.31,5.93,16.1,5.44-.21-.48-2.92-16.01-2.92-16.01l-10.24-1.88Z"/>
        <path class="cls-8" d="M335,232.46c-1.41,14.71-20.57,56.25-20.57,56.25,0,0,1.46,5.36,4.78,26.36-16.25.83-84.26-16.56-84.26-16.56l4.94-14.87c.52-44.91,3.65-68.66,9.03-82.66,5.22-13.6,14.11-18.22,19.96-20.58.17-.07.33-.13.5-.2,1.13-.44,2.34-.91,3.63-1.39,5.38-2.02,12.06-4.42,19.04-7.56h0c4.2-3.91,10.58-30.32,10.58-30.32l2.23,3.99,13.79,24.65s-2.64,5.04-6.45,10.89c1.83,1.33,5.44,3.46,9.23,6.57,1.37,1.11,2.76,2.35,4.1,3.73,5.08,5.19,10.88,27,9.47,41.71Z"/>
        <path class="cls-6" d="M292.04,171.25c-.47.35-15.22,11.44-16.85,14.73-3.53-1.59-5.38-3.66-6.32-5.58.17-.07.33-.13.5-.2,1.13-.44,2.34-.91,3.63-1.39,5.38-2.02,12.06-4.42,19.04-7.56Z"/>
        <path class="cls-6" d="M318.65,169.56s-2.64,5.04-6.45,10.89c-.48-.08-6.67-4.48-8.75-10.89-2.08-6.41-.4-22.45-.25-22.7,0,0,.77-.91,1.67-1.95l13.79,24.65Z"/>
        <path class="cls-8" d="M351.8,139.78c0,1.09-.25,2.12-.44,3.1-.98,5.18-3.06,9-4.43,12.4-3.43,5.28-18.52,24.3-22.89,24.78-2.99,0-9.18-3.23-13.27-9.01-5.93-8.37-7.44-23.25-7.44-23.25,0,0-.47-2.94-.7-6.88.31-.11,4.95,3.11,10.45-5.34,26.04,3.2,33.47-4.86,33.47-4.86,0,0,5.31,1.08,5.25,9.05Z"/>
        <path class="cls-32" d="M316.96,143.36s.42,1.03,2.21,2.4c2.08,1.6,3.49,1.11,3.49,1.11,0,0-1.06-.42-2.7-1.61-.66-.48-1.96-2.29-1.96-2.29l-1.04.39Z"/>
        <path class="cls-32" d="M320.57,141.77s1.28-.98,5.76-.36c4.49.62,4.97,2.29,4.97,2.29,0,0,5.47-4.59,4.71-6.02-3.72.58-13.19.33-14.28-.09-4.93.23-4.77,5.77-4.77,5.77,0,0,1.63-1.33,3.61-1.59Z"/>
        <path class="cls-6" d="M351.36,142.88c-.27,1.43-.63,2.75-1.03,3.98-1.05,3.27-2.41,5.95-3.41,8.42-3.43,5.28-18.52,24.3-22.89,24.78,5.29-4.92,5.64-10.53,5.64-10.53l1.87-3.05-1.93-.23,1.92-1.6,2.78-4.64s1.73.41,5.41.88c-1.81-7.23-.34-11.31.25-13.86.05-.23.13-.47.23-.7.93-2.31,3.68-4.45,5.53-5.1,1.47-.51,4.13.79,5.63,1.65Z"/>
        <path class="cls-32" d="M351.36,142.88c-.27,1.43-1.38,4.05-1.78,5.29-1.32-.63-3.12-1.75-4.73-1.26-3.07.94-5.81,2.12-4.36-.37l-.28-.21c.93-2.31,3.68-4.45,5.53-5.1,1.47-.51,4.13.79,5.63,1.65Z"/>
        <path class="cls-9" d="M331.31,143.7s-.62.9-1.34,1.78c-.56.7-1.18,1.38-1.63,1.63-.84-.06-1.68-.19-2.5-.38-2.67-.61-5.11-1.88-6.75-3.71-.15-.17-.3-.34-.43-.52,0,0,2.59-1.28,5.68-1.35.65-.02,1.33.09,2.02.27,2.53.66,4.97,2.29,4.97,2.29Z"/>
        <path class="cls-21" d="M331.31,143.7s-.62.9-1.34,1.78c-3.18-1.88-8.59-2.35-10.88-2.47-.15-.17-.3-.34-.43-.52,0,0,2.59-1.28,5.68-1.35.65-.02,1.33.09,2.02.27,2.53.66,4.97,2.29,4.97,2.29Z"/>
        <path class="cls-3" d="M332.69,143.76c-1.66-2.14-5.34-2.94-7.9-3.12-2.86-.2-5.87.31-8.29,1.89-.47.3-.02,1.02.47.83.09-.03.17-.06.26-.1.78,1.16,2.24,2.35,3.6,2.5.07,0,.09-.09.05-.13-.54-.59-1.26-1.02-1.83-1.59-.35-.35-.69-.71-1.04-1.07,2.26-.8,4.49-1.29,6.95-1.06,1.31.12,2.6.42,3.83.89,1.17.45,2.18,1.25,3.36,1.64.4.13.83-.29.54-.67Z"/>
        <path class="cls-3" d="M330.2,146.45c-.68.01-1.33.28-2.02.31-.67.02-1.35-.04-2.01-.08-.09,0-.12.13-.04.17,1.12.6,3.12.78,4.2-.02.17-.12.09-.39-.13-.38Z"/>
        <path class="cls-3" d="M331.31,143.7s-1.96,2.85-2.98,3.4c-.84-.06-1.68-.19-2.5-.38-.31-.33-.51-.73-.58-1.22-.51-3.3.83-3.94.83-3.94l.26-.15c2.53.66,4.97,2.29,4.97,2.29Z"/>
        <path class="cls-9" d="M348.83,147.84s-.1,3.07-1.44,3.58c-.78.15-1.53.24-2.3.19-1.55-.11-3.25-.79-5.78-2.76,0,0,.14-.3.53-.66.54-.51,1.55-1.15,3.32-1.29.32-.02.63-.03.94-.03,1.09.02,2.1.17,2.9.38,1.12.27,1.84.59,1.84.59Z"/>
        <path class="cls-21" d="M346.99,147.24c.02.44-.32,1.28-1.57,2-2.5-.61-5.66-.49-5.66-.49l.07-.56c.54-.51,1.55-1.15,3.32-1.29.32-.02.63-.03.94-.03,1.09.02,2.1.17,2.9.38Z"/>
        <path class="cls-3" d="M349.58,148.16c-2.71-1.94-7.81-2.53-10.11.41-.06.01-.11.07-.11.14,0,0-.01.02-.02.02-.04.06.02.14.09.13.68,1.02,2.14,1.99,3.35,2.07.13,0,.14-.17.05-.23-.54-.38-1.16-.61-1.71-.96-.48-.3-.9-.67-1.35-1.01,1.4-.52,2.63-1.25,4.19-1.39-.12.5-.2,1.18-.15,1.91.07,1,.57,1.88,1.29,2.34.78.05,1.22.19,2.3-.19,1-.46,1.31-2.01,1.4-2.92.14.07.28.15.42.23.33.19.68-.34.36-.56Z"/>
        <path class="cls-22" d="M346.11,141.1c-3.65-.83-6.21,3.84-7,6.67-1.14,4.08-1.24,8.71.05,12.77-.99-.37-2.07-.56-3.09-.8-1.49-.35-3.03-.82-4.56-.91-.47-.03-.76.66-.25.85,1.38.53,2.89.72,4.34,1.01,1.41.28,2.87.69,4.31.59.17-.01.23-.2.14-.32,0-.04.01-.07,0-.11-.53-3.62-.85-7.06-.21-10.7.33-1.9.85-3.88,1.97-5.48,1.17-1.67,2.61-2.13,4.32-3,.25-.13.27-.51-.04-.58Z"/>
        <path class="cls-9" d="M331.53,164.65l-.55.89-.58.94s-11.3-2.18-12.9-3.24c-.87-.58-1.2-1.96-.78-3.11.35-.98,1.25-1.78,2.84-1.76,3.44.03,11.49,6,11.97,6.28Z"/>
        <path class="cls-21" d="M330.98,165.54l-.58.94s-11.3-2.18-12.9-3.24c-.87-.58-1.2-1.96-.78-3.11,1.42.55,4.07,1.56,6.97,2.58,2.96,1.05,5.81,2.21,7.29,2.83Z"/>
        <path class="cls-22" d="M332.07,166.26c-2.56-.6-5.12-1.16-7.69-1.73-1.65-.37-3.37-.51-4.94-1.15-1.36-.56-3.3-1.99-2.24-3.7.68-1.09,2.24-.77,3.27-.51.62.15,1.2.42,1.79.66,1.12.47,2.22.98,3.3,1.52,2.14,1.07,4.18,2.45,6.36,3.43.22.1.43-.18.25-.36-1.49-1.42-3.44-2.5-5.25-3.47-1.95-1.04-4.09-2.2-6.24-2.76-1.31-.35-2.97-.37-3.92.81-.35.43-.59.88-.61,1.45-.03,1.14.21,2.16,1.14,2.88.79.62,1.8.98,2.76,1.21,3.66.9,7.36,1.68,11.05,2.47-.63.7-1.24,1.41-1.73,2.23-.11.19.14.4.31.28,1.01-.71,1.84-1.61,2.69-2.51.27-.28.01-.69-.3-.76Z"/>
        <path class="cls-3" d="M343.65,138s-.2,1.15.37,1.93c.57.78,1.61,2.51,3.77,3.05,2.16.54,3.48-.2,3.45-.56-.03-.36-1.51.37-2.98-.57-1.48-.94-3.54-4.32-3.84-4.43-.3-.1-.22.89-.22.89,0,0-.53-.68-.56-.31Z"/>
        <path class="cls-3" d="M320.63,136.77c-.83,1.16,7.35,4.68,15.61,1.21,1.04-.76-.58-.56-.58-.56,0,0,1.62-.9.92-1.17-.7-.28-3.63.43-5.5.81-6.35,1.28-10.13-.73-10.46-.28Z"/>
        <path class="cls-6" d="M316.23,156.63c-.62.44-1.28,1.09-1.73,1.7-.17.23.08.53.33.37.66-.4,1.36-.99,1.86-1.57.25-.29-.14-.72-.46-.5Z"/>
        <path class="cls-6" d="M331.4,156.46c-.43.17-.77.56-1.1.86-.22.2.11.58.35.39.35-.28.78-.56,1.02-.95.09-.16-.09-.37-.26-.3Z"/>
        <path class="cls-8" d="M487.82,477.12c-4.83,8.02-24.19,14.43-24.19,14.43,0,0-11.89,13.18-16.84,11.2-4.96-1.98-5.85-15.23-5.85-15.23-.02,0-1.28-.05-14.35-13.09-6.91-6.37-12.67-13.54-17.04-19.75-6.16-8.78-9.56-15.64-9.56-15.64,0,0,26.06-18.85,26.69-18.3.21.19,3.17,6.66,6.98,15.13,7.44,16.54,18.17,40.71,18.17,40.71l28.5-3.03s6.15-7.87,8.93-7.08c2.78.79,2.83,1.53-1.45,10.66Z"/>
        <path class="cls-6" d="M433.67,435.85c-5.79,5.59-18.41,14.95-24.11,18.82-6.16-8.78-9.56-15.64-9.56-15.64,0,0,26.06-18.85,26.69-18.3.21.19,3.17,6.66,6.98,15.13Z"/>
        <path class="cls-14" d="M432.45,423.14s-9.03,7.92-17.99,16.29c-7.08,6.61-14.1,13.51-16.57,17.01-15.4-11.23-30.37-55.82-30.37-55.82,0,0-105.36-17.69-127.8-38.02-22.44-20.34,15.96-64.53,15.96-64.53l21.58,4.24,38.2,7.51s3.22,15.15,3.15,19.63c16.59,5.4,74.89,32.31,84.08,38.81,16.65,26.5,29.76,54.88,29.76,54.88Z"/>
        <path class="cls-15" d="M414.47,439.42c-7.08,6.61-14.1,13.51-16.57,17.01-15.4-11.23-30.37-55.82-30.37-55.82,0,0-105.36-17.69-127.8-38.02-22.44-20.34,15.96-64.53,15.96-64.53l21.58,4.24,6.11,7.47s.81,34.01-5.77,48.87c27.19,4.86,93.68,27.51,93.68,27.51,0,0,9.63-10.53,13.04-8.26,3.4,2.28-6.53,14.78-6.53,14.78,0,0,19.43-5.21,16.76-1.35-2.67,3.85-14.34,9.28-14.34,9.28,0,0,24.83,27.9,34.25,38.81Z"/>
        <path class="cls-15" d="M311.25,330.47c-1.54-.9-13.63-3.82-17.13-1.02-3.5,2.8,11.41,6.24,11.41,6.24,0,0-18.86,17.47-8.83,14.52,10.03-2.96,25.72-13.18,14.54-19.74Z"/>
        <g>
          <path class="cls-30" d="M445.59,512.43s34.09-24.37,52.7-47.11c0,0,1.63,1.22,1.79,1.94-.89,2.4-17.66,19.94-25.47,27.42s-24.27,18.13-27.5,19.11l-1.52-1.36"/>
          <path class="cls-16" d="M471.07,490.38s-3.44-13.02-2.83-19.11c21.31-6.92,26.31-8.03,30.06-5.95,3.75,2.08-26.39,28.68-26.95,29.48-.56.8-22.9,18.9-25.76,17.63-2.86-1.27,25.48-22.06,25.48-22.06Z"/>
          <path class="cls-40" d="M472,473.31c-.64-2.07,21.71-8.13,22.96-6.74,1.25,1.39-17.54,20-19.6,18.75s1.97-9.29,1.97-9.29c0,0-4.4.23-5.33-2.73Z"/>
        </g>
        <path class="cls-7" d="M335,232.46c-.34,3.56-1.72,8.68-3.61,14.39-2.25,6.83-5.24,14.5-8.08,21.39-1.08,2.64-2.15,5.18-3.14,7.49-3.25,7.58-5.73,12.97-5.73,12.97,0,0,1.46,5.36,4.78,26.36-16.25.83-84.26-16.56-84.26-16.56l4.94-14.87c.52-44.91,3.65-68.66,9.03-82.66,5.37-13.99,14.63-18.48,20.46-20.78,1.13-.44,2.34-.91,3.63-1.39,1.2,2.08,2.48,4.04,3.34,4.68,2.05,1.52,6.73,5.61,12.87,7.73,6.13,2.12,15.29,7.24,24.32,5.79,8.59-1.38,9.3-5.75,7.89-9.98,1.37,1.11,2.76,2.35,4.1,3.73,5.08,5.19,10.88,27,9.47,41.71Z"/>
        <path class="cls-25" d="M320.16,275.74c-3.25,7.58-5.73,12.97-5.73,12.97,0,0-10.47,6.03-12.97,5.83-2.5-.21-22.65-14.32-21-16.88,1.52-2.36,16.99,2.63,18.69,3.27-1.46-1.04-10.58-13.99-7.11-13.2,3.58.81,15.67,10.77,15.67,10.77l12.45-2.75Z"/>
        <path class="cls-11" d="M312.2,180.46s16.46,10.75,20.59,58.19c8.02,7.99,6.98,7.13,6.98,7.13,0,0-1.71-27.67-4.45-38.25-2.74-10.58-8.77-24.95-23.12-27.07Z"/>
        <path class="cls-12" d="M285.91,302.15c-6.93,22.97-27.36,64.28-27.36,64.28,0,0,3.74,17.22.17,20.44-3.58,3.22-40.11-7.22-43.76-8.98-3.64-1.75,0-13.01,0-13.01,0,0-1.93-.39-4.12-2.3-2.19-1.9,1.22-3.79,1.22-3.79,0,0-9.51-10.15-11.45-18.83-1.91-8.54,30.85-37.36,31.84-38.24l.02-.02s-4.08-3.65-2.8-6.9c1.38-3.5,8.39-8.92,8.39-8.92,0,0,1.94-31.11,1.66-48.08-.28-16.97,5.62-38.36,11.9-47.21,6.28-8.84,21.38-11.79,21.38-11.79,0,0,22.35,22.59,26.55,45.35,4.2,22.76-6.7,55.02-13.64,77.99Z"/>
        <path class="cls-11" d="M259.47,200.98s-7.41,22.72,3.93,31.53c11.25,8.75,12.64,9.31,12.64,9.31,0,0-23.99,5-21.37,6.95,2.62,1.94,24.15,0,24.15,0,0,0-19.03,18.61-15.56,19.17,3.47.56,21.11-7.78,21.11-7.78,0,0-7,43.89-4.96,42.57,2.04-1.32,17.04-42.57,16.49-56.88-.56-14.31-16.67-26.81-17.78-27.37-1.11-.56-18.65-17.5-18.65-17.5Z"/>
        <path class="cls-11" d="M258.71,386.87c-3.58,3.22-40.11-7.22-43.76-8.98-3.64-1.75,0-13.01,0-13.01,0,0,33.39,3.42,43.59,1.54,0,0,3.74,17.22.17,20.44Z"/>
        <path class="cls-11" d="M220.34,333.7c.83,9.11,8.61,22.16,7.78,22.16s-8.49,4.48-16.05,2.93c0,0-9.51-10.15-11.45-18.83-1.91-8.54,30.85-37.36,31.84-38.24l.02-.02s-12.97,22.89-12.13,31.99Z"/>
        <path class="cls-11" d="M273.01,178.81c-14.84,5.74-20.99,17.03-24.16,27.31-3.17,10.28-.45,72.23-.45,72.23l-10.33,7.54s1.94-31.11,1.66-48.08c-.28-16.97,5.62-38.36,11.9-47.21,6.28-8.84,21.38-11.79,21.38-11.79Z"/>
        <path class="cls-8" d="M303.44,141.23s-1.35-6.36-4.17-7.27c-2.81-.91-5.42-.37-6.46,2.22-1.04,2.6.31,10.44,3.23,13.65,2.92,3.22,6.77.63,6.77.63l.63-9.24Z"/>
        <path class="cls-32" d="M301.81,143.53c-.38-1.66-2.06-6.46-2.62-6.9s-1.73-.73-2.97,0c-1.23.73-1.47,2.38-1.34,2.63.45.84,1.29-1.17,1.9-1.85.62-.67,1.23-.78,1.62-.27.33.43,1.3,2.53,1.6,4.01-.49-.18-1.1-.21-1.43-.13-.95.21-2.11,1.17-1.89,2.26.05.26.35.33.49.1.37-.59.56-1.17,1.27-1.45.35-.14.73-.16,1.1-.08-.9.24-2.01,1.71-1.96,2.9.06,1.46,1.75,3.61,3.3,2.81,1.21-.62,1.32-2.36.94-4.02Z"/>
        <path class="cls-6" d="M290.21,186.6c-.16-.93,20.32,3.33,20.32,3.33,0,0,5.58-4.38,6.44-3.02.85,1.35-4.87,6.36-6.44,6.46-1.57.1-20.01-5-20.32-6.77Z"/>
        <path class="cls-17" d="M271.75,178.93c-8.34,1.36-14.78,4.83-20.2,11.51-6.11,7.52-8.88,16.89-10.21,26.35-1.59,11.34-1.69,22.95-2.18,34.38-.49,11.45-1.62,23.1-1.39,34.57-2.56,2.1-5.29,4.22-7.21,6.81-2.11,2.84-2.67,9.17,2.23,9.23.57,0,.72-.72.38-1.07-4.49-4.69,2.25-9.57,6.27-12.8.01,0,.03-.02.04-.03.46-.37.88-.72,1.25-1.04,3.42-3.02,7.76-5.83,10-9.89.24-.44-.23-1.03-.72-.84-3.78,1.5-6.82,4.85-9.83,7.58.81-9.29.73-18.77,1.11-28.06.42-10.29.56-20.64,1.28-30.92.67-9.5,2.32-19.19,7.01-27.61,4.45-7.97,12.7-15.92,22.21-17,.75-.09.68-1.29-.06-1.17Z"/>
        <path class="cls-28" d="M350.81,126.85c-6.61,2.84-12.41,5.71-19.63,6.95-6.93,1.19-13.94,1.01-20.88-.13-.71-.12-.94.89-.25,1.09,13.11,3.79,30.59,2.58,41.81-5.95.98-.75.15-2.48-1.05-1.96Z"/>
        <g>
          <path class="cls-8" d="M428.19,267.27c-13.95,4.57-37.47,9-55.52,11.73-.83-2.44-1.38-5.8-1.73-9.32-.73-7.2-.67-15.05-.88-17.02,20.61-1.04,44.51.65,50.08,1.08.78.07,1.21.1,1.21.1,0,0,3.74,4.5,5.68,8.97.68,1.55,1.14,3.1,1.16,4.45Z"/>
          <path class="cls-8" d="M449.33,258.95s2.66,2.69,1.63,4.66c-1.02,1.97-18.78,4.45-22.78,3.66-1.63-.33-3.2-1.69-4.51-3.54-1.9-2.68-3.27-6.38-3.57-9.43,0-.08,0-.28.03-.54.17-2.34,1.47-10.91,3.62-11.71,2.79-1.05,6.49.63,6.49.63,0,0,5.75-4.78,8.16-3.92,2.4.87,2.25,4.88,2.25,4.88,0,0,3.58-.28,5.63,1.62,2.04,1.91.6,5.52.6,5.52,0,0,3.2,1.03,4.22,2.61.03.04.06.08.08.13.93,1.64-1.85,5.43-1.85,5.43Z"/>
          <path class="cls-6" d="M449.33,258.95s2.66,2.69,1.63,4.66c-1.02,1.97-18.78,4.45-22.78,3.66-13.95,4.57-37.47,9-55.52,11.73-.83-2.44-1.38-5.8-1.73-9.32,11.66-1.26,39.78-4.17,47.93-5.03,1.45-.17,3.08-.5,4.81-.93,1.08-.26,2.2-.57,3.35-.91,9.21-2.72,20.08-7.47,24.07-9.43.03.04.06.08.08.13.93,1.64-1.85,5.43-1.85,5.43Z"/>
          <path class="cls-26" d="M424.31,269.36c-.6.49-12.69,4.68-24.84,6.59-1.17.18-2.33.35-3.48.48-.99.12-1.98.22-2.95.29-.63.05-1.23-.27-1.53-.84-1.59-3.08-2.73-6.43-3.52-9.67-1.9-7.83-1.69-14.92-.69-15.44.21-.11.95-.18,2.08-.23,1.2-.05,2.85-.07,4.74-.05,8.7.05,22.69.74,23.93,1.84.94.84,2.63,4.73,4.03,8.66,1.2,3.41,2.17,6.83,2.23,8.37Z"/>
          <path class="cls-33" d="M424.31,269.36c-.6.49-12.69,4.68-24.84,6.59-1.17.18-2.33.35-3.48.48-.99.12-1.98.22-2.95.29-.63.05-1.23-.27-1.53-.84-1.59-3.08-2.73-6.43-3.52-9.67,2.11.73,4.4,1.29,6.24,1.2,3.31-.17,19-4.13,27.85-6.43,1.2,3.41,2.17,6.83,2.23,8.37Z"/>
          <path class="cls-23" d="M414.79,254.05c-.79.68-.02,1.87,1.63,1.39,1.65-.48,21.35-16.54,21.35-16.54,0,0,1.26-1.06-1.51-.28-2.77.78-19.62,13.84-21.47,15.44Z"/>
          <path class="cls-23" d="M420.35,267.42c-1.21.42-.63,1.49,1.12,1.67,1.75.18,30.79-3.02,30.22-5.22-.45-1.75-29.47,2.91-31.34,3.55Z"/>
          <path class="cls-12" d="M373.63,279.97c.44-.06-10.61.61-14.62.76-7.73.3-12.9-1.19-14.49-1.24-3.53-.13-9.93-1.24-29.46-13.99-28.63-18.69-51.99-47.28-55.01-54.85-3.03-7.57.29-15.4,7.03-18.3,19.74-8.48,77.07,55.19,77.07,55.19,0,0,5.8-.98,5.56,2.78,3.93-1.43,4.62.46,5.38,2.73,1.88-.55,8.99-1.6,15.98-1.11l2.57,28.04Z"/>
          <path class="cls-10" d="M399.47,275.95c-1.17.18-2.33.35-3.48.48-1.54-2.14-3.92-5.95-5.58-11.08-1.97-6.08-1.43-12.1-1.03-14.82,1.2-.05,2.85-.07,4.74-.05-.07,2.85-.12,9.33.64,14.17.67,4.31,3.16,8.83,4.7,11.29Z"/>
          <path class="cls-11" d="M345.57,252.33c-1.24.73-15.43,9.38-10.35,11.28,5.07,1.9,12.75-8.06,12.75-8.06,0,0-7.12,10.95-3.23,10.73,3.89-.22,7.22-12.4,5.28-13.95-1.94-1.55-.73-2.19-4.44,0Z"/>
        </g>
        <path class="cls-8" d="M405.6,241.97s-1.25-1.24-2.96.62c-1.71,1.86,7.27,14.61,9.6,14.28,2.33-.33,2.07-2.85,2.07-2.85,0,0,2.26,1.03,2.8,0s.12-2.49.12-2.49c0,0,2.04,1.35,2.97.63.93-.72,0-2.15,0-2.15,0,0,2.68,1.26,3.54.03.86-1.23-3.68-9.17-5.08-9.7-1.4-.52-2.68,1.62-2.68,1.62,0,0-1.27-2.22-3.48-1.55s-1.55,1.55-1.55,1.55c0,0-1.81-4.78-5.34,0Z"/>
        <path class="cls-6" d="M424.27,248.34c-.29-1.29-1.26-2.51-1.79-3.72-.7-1.59-1.57-2.78-2.95-3.82-.47-.36-1.14.2-.77.65,1.35,1.66,2.28,3.26,3.02,4.99.5,1.19,1.98,2.92-.47,3.18-.24-.4-.51-.77-.78-1.11-.55-.72-1.15-1.38-1.74-2.07-.62-.71-1.12-1.6-1.84-2.21-.27-.23-.98,0-.75.35,1.1,1.71,1.84,2.87,2.76,4.21.4.58,1.65,2.46.8,3.04-1.27.87-1.9.3-2.63-.65-.2-.35-.4-.67-.55-.93-.86-1.54-2.73-3.9-3.78-4.77-.3-.25-.73.36-.49.69.77,1.11,1.66,2.28,2.4,3.46.37.59.69,1.2,1.01,1.8.18.34.36.67.54,1.01-.07.92-.37,1.2-.91.85-1.37-.08-2.59-2.49-3.3-3.46-.9-1.23-1.72-2.68-2.97-3.56-.37-.26-.8.21-.69.58.36,1.26,1.26,2.29,2,3.36.68.99,1.35,2.03,2.14,2.94.38.43.93.93,1.55,1.32-.08.03-.14.1-.15.21-.05.58-.83,1.23-1.38,1.25-.72.02-1.4-.74-1.92-1.19-.73-.64-1.48-1.26-2.15-1.96-1.35-1.41-2.35-3.07-3.64-4.51-.18-.2-.53.03-.44.27.64,1.62,1.82,3.05,2.94,4.36,1.07,1.24,2.2,2.67,3.64,3.48.94.53,2.15,1.06,3.15.31.74-.56.82-1.3.35-1.99.96.51,2.02.71,2.87.03.54-.43.67-.98.59-1.56,1.58.72,3.52.75,3.91-1.24.05-.25.04-.49.02-.73,1.47.25,2.8-1.05,2.39-2.84Z"/>
        <path class="cls-36" d="M412.25,228.36c-1.03-.09-1.93.91-2.59,1.6-.82.87-1.5,1.88-1.94,3-.28.7.7,1.19,1.05.52.49-.93,1.04-1.81,1.76-2.58.62-.67,1.68-1.2,2-2.07.07-.18-.1-.44-.29-.46Z"/>
        <path class="cls-36" d="M409.93,223.47c-1.61-.19-3.2.85-4.09,2.14-.42.61-.72,1.31-.83,2.05-.06.38-.05.76.02,1.14.08.49.3.6.52.95.18.29.69.22.74-.14.06-.39.26-.89.37-1.28.15-.54.4-1.05.75-1.5.72-.94,1.64-1.23,2.73-1.54.93-.26.66-1.72-.22-1.82Z"/>
        <path class="cls-36" d="M467.37,255.22c-.17-.75-1.4-1.21-1.7-.26-.29.91-.34,1.71-1,2.46-.59.67-1.55.93-1.95,1.71-.08.16-.06.41.1.52,1.07.78,2.47-.12,3.26-.97.78-.84,1.57-2.27,1.3-3.45Z"/>
        <path class="cls-36" d="M470.26,257.68c-.54.95-1.02,1.87-1.76,2.7-.71.8-1.58,1.47-2.45,2.08-.57.4-.1,1.28.55,1.07,2.3-.74,4.54-2.78,5.28-5.13.34-1.09-1.05-1.72-1.62-.72Z"/>
      </g>
    </g>
  </g>
  <g>
    <path class="cls-41" d="M193.49,449.78c.79-18.11,1.21-33,.67-33.65-1.39-1.67-49.65.36-50.45,1.95-.51,1.02.47,14.22,1.83,30.6,15.74.21,32.07,1.8,47.95,1.1Z"/>
    <path class="cls-29" d="M192.22,476.11c.46-8.73.91-17.88,1.28-26.33-15.89.7-32.21-.89-47.95-1.1.71,8.57,1.52,18.02,2.27,27.04,14.72,1.09,29.63,1.44,44.4.39Z"/>
    <path class="cls-41" d="M147.82,475.73c1.74,20.9,2.03,37.61,2.31,39.91.26,2.11,38.18,2.79,39.3.56.48-.96,1.68-19.33,2.79-40.08-14.77,1.06-29.68.71-44.4-.39Z"/>
    <path class="cls-19" d="M148.25,481.23c1.36,18.27,1.63,32.32,1.88,34.41.26,2.11,38.18,2.79,39.3.56.4-.81,1.32-13.92,2.26-30.41-14.83,4.61-30.9,4.07-43.43-4.56Z"/>
    <path class="cls-24" d="M145.25,419.34c3.34,2.79,46.96.98,47.24-2.09.17-1.87-49.47.23-47.24,2.09Z"/>
    <path d="M149.77,483.66c-1.3-14.28-2.48-28.56-3.55-42.85-.01-.1.15-.12.16-.01.67,7.14,1.24,14.28,1.86,21.42.56,7.15,1.17,14.29,1.69,21.43.01.1-.15.12-.16.01h0Z"/>
    <path d="M190.95,481.14c.52-13.94,1.15-27.88,1.88-41.81,0-.1.16-.1.16,0-.24,6.97-.57,13.94-.85,20.91-.34,6.97-.64,13.94-1.03,20.9,0,.1-.16.1-.16,0h0Z"/>
    <path d="M163.71,440.34c3.65,6.18,7.56,12.42,10.84,18.71-2.02-2.88-3.72-6.24-5.62-9.29-1.79-3.12-3.61-6.21-5.36-9.35-.05-.08.08-.17.14-.08h0Z"/>
    <path d="M168.31,441.6c2.67,4.4,5.25,8.86,7.73,13.38.05.08-.08.17-.14.08-2.67-4.41-5.25-8.86-7.73-13.38-.05-.08.08-.17.14-.08h0Z"/>
    <path class="cls-18" d="M113.89,287.36c28.19-20.27,45.99,3.07,47.94,26.76,1.95,23.69-10.03,47.66-11.43,49.33-1.39,1.67-86.13-40.41-36.51-76.09Z"/>
    <path class="cls-18" d="M183.3,346.73c1.69.51,30.94-25.92,34.28-43.48,1.53-8.06-2.23-23.41-19.51-27.04-17.28-3.62-30.1,13.38-29.82,32.89.28,19.51,12.26,36.79,15.05,37.63Z"/>
    <path class="cls-18" d="M146.62,396.45c-.87,1.26-33.17,3.14-44.02-4.85-4.98-3.67-10.05-14.51-.43-26.49,9.62-11.98,26.45-9.75,35.86,1.43,9.42,11.18,10.01,27.83,8.59,29.91Z"/>
    <path class="cls-4" d="M118.07,330.84c-2.98,1.66-5.56,3.58-7.8,5.76,15.14,16.29,39.4,27.74,40.14,26.85,1.27-1.53,11.4-21.7,11.63-43.25-14.9-3.14-30.99,3.44-43.96,10.64Z"/>
    <path class="cls-4" d="M168.72,302.07c-.34,2.28-.51,4.64-.47,7.03.28,19.51,12.26,36.79,15.05,37.63,1.24.37,17.3-13.75,27.1-28.24-11.11-10.74-26.18-16.67-41.67-16.42Z"/>
    <path class="cls-4" d="M114.98,396.11c13.57,2.52,31.01,1.27,31.64.35,1.31-1.91.91-16.13-6.48-27.1-4.66,1.87-8.98,4.87-12.86,8.32-5.39,4.86-10.09,11.45-12.3,18.44Z"/>
    <path d="M128.74,302.66c15.59,37.3,28.37,76.25,33.17,116.53.02.1-.15.12-.16.02-4.77-40.14-18.25-79.61-33.02-116.55h0Z"/>
    <path d="M172.35,419.75c3.83-30.85,8.06-61.69,14.27-92.17,2.22-10.12,4.37-20.32,8.31-29.94.04-.09.19-.03.14.07-3.91,9.61-6.03,19.81-8.21,29.92-6.2,30.31-10.23,61.97-14.51,92.12h0Z"/>
    <path d="M122.86,374.12c15,11.52,30.28,26.47,35.43,45.2.03.1-.13.14-.15.04-3.87-14.19-13.82-25.73-24.24-35.71-3.55-3.32-7.23-6.5-11.13-9.4-.08-.05,0-.19.09-.13h0Z"/>
    <path d="M99.2,376.71c-2.53,13.39,10.06,18.62,21.38,17.74.1-.01.12.15.01.16-7.88.69-18.11-1.42-21.14-9.71-.95-2.64-.93-5.51-.4-8.22.02-.1.17-.07.15.03h0Z"/>
    <path d="M102.12,320.92c4.74,10.55,12.59,19.79,22.82,25.33.08.04.02.19-.07.14-10.37-5.35-18.35-14.74-22.89-25.4-.04-.09.1-.16.14-.06h0Z"/>
    <path d="M151.31,360.08c2.93-8.31,6.11-16.55,8.36-25.08.02-.09.18-.06.15.04-1,4.3-2.35,8.51-3.77,12.69-1.47,4.16-3.01,8.29-4.6,12.41-.03.09-.18.04-.15-.05h0Z"/>
    <path d="M169.98,318.17c-1.44-9.98-.52-20.67,4.47-29.59.05-.08.19-.02.14.07-2.33,4.48-3.84,9.38-4.47,14.38-.69,5-.55,10.09.02,15.11.01.09-.15.12-.16.02h0Z"/>
    <path d="M176.68,334.71c1.86,3.11,3.62,6.26,5.29,9.47.05.09-.08.17-.14.08-1.86-3.1-3.63-6.27-5.3-9.48-.05-.09.09-.16.14-.07h0Z"/>
    <path d="M145.31,393.55c.03-3.82-.39-7.77-.48-11.5.76,3.67.75,7.7.64,11.5,0,.1-.16.1-.16,0h0Z"/>
    <path class="cls-9" d="M113.45,358.42c8.93-2.07,18.85,1.83,23.85,9.54.11.16-.14.34-.26.18-5.34-7.29-14.66-10.92-23.53-9.41-.19.04-.26-.27-.06-.31h0Z"/>
    <path class="cls-9" d="M133.12,280.52c7.51-.46,15.18,3.56,18.53,10.39.09.17-.17.33-.27.15-3.75-6.47-10.86-10.16-18.26-10.23-.19,0-.2-.31,0-.32h0Z"/>
    <path class="cls-9" d="M202,278.85c5.81,1.39,9.97,6.76,12.1,12.08.07.18-.21.3-.29.12-2.53-5.01-6.37-10.05-11.87-11.89-.19-.04-.13-.35.07-.31h0Z"/>
    <path d="M198.01,330.23c5.53-6.39,10.33-13.34,15.04-20.34.05-.08.19,0,.13.09-4.54,7.12-9.36,14.11-15.06,20.36-.06.07-.19-.03-.12-.1h0Z"/>
  </g>
</svg>