<?xml version="1.0" encoding="UTF-8"?>
<svg id="Layer_14" data-name="Layer 14" xmlns="http://www.w3.org/2000/svg" viewBox="0 0 200 200">
  <defs>
    <style>
      .cls-1 {
        fill: #b7daf1;
      }

      .cls-2 {
        fill: #c5e9fe;
      }

      .cls-3 {
        fill: #b9dff7;
      }

      .cls-4 {
        fill: #bbddf4;
      }

      .cls-5 {
        fill: #b5d9f1;
      }

      .cls-6 {
        fill: #fe6846;
      }

      .cls-7 {
        fill: #52527b;
      }

      .cls-8 {
        fill: #b5d9f2;
      }

      .cls-9 {
        fill: #90c4f7;
      }

      .cls-10 {
        fill: #4d8dc0;
      }

      .cls-11 {
        fill: #6184a7;
      }

      .cls-12 {
        fill: #5da8fe;
      }

      .cls-13 {
        fill: #b8dbf2;
      }

      .cls-14 {
        fill: #84adf4;
      }

      .cls-15 {
        fill: #8eefb5;
      }

      .cls-16 {
        fill: #f0f1f1;
      }

      .cls-17 {
        fill: #d9f3fe;
      }

      .cls-18 {
        fill: #fea846;
      }

      .cls-19 {
        fill: #b4d9f1;
      }

      .cls-20 {
        fill: #49d192;
      }

      .cls-21 {
        fill: #8dbad4;
      }

      .cls-22 {
        fill: #678bae;
      }

      .cls-23 {
        fill: #fefefe;
      }

      .cls-24 {
        fill: #f46647;
      }

      .cls-25 {
        fill: #8375a7;
      }

      .cls-26 {
        fill: #343962;
      }

      .cls-27 {
        fill: #93d0fe;
      }

      .cls-28 {
        fill: #499f8d;
      }

      .cls-29 {
        fill: #f64867;
      }
    </style>
  </defs>
  <path class="cls-26" d="M9.26,176.77l1.05.48c2.31,5.08,7.37,7.08,12.59,7.81,13.2,1.84,26,1.83,39.22.06,5.12-.69,10.31-2.72,12.36-7.84l1.02-.5c.04-.3.12-.74.34-.77.57-.08,6.11-.13,6.4,0s.42.47.54.77l.73.97c-.26,8-4.34,17.58-13.36,18.17-1.37.39-3.69.69-5.15.78-15.78.98-33.1-.37-48.92-.51-7.27-1.79-12.25-7.27-14.08-14.44v-4.98c.11-.33.24-.33.38,0,.04-.3.12-.73.34-.77.46-.08,5.66-.1,6,0l.55.77Z"/>
  <path class="cls-26" d="M27.64,84.5l.72.64c.63,4.96.62,10.85-4.2,13.79l-8.24,5.69c-6.22,4.03-7.51,9.67-7.63,16.82l.3,23.58c-.13.7-.42,1.32-.85,1.89-.3,1.26-4.83,1.16-5.36,0-.11.33-.24.33-.38,0v-33.31c1.13-3.4,2.42-6.77,4.96-9.4,3.32-3.44,10.86-6.59,13.42-9.66,2.22-2.65,1.37-6.83,1.53-10.04,1.86-.27,3.89-.32,5.74,0Z"/>
  <path class="cls-24" d="M2.37,176.77h-.38v-29.86h.38c.3.03.76.14.77.35.25,9.44.25,19.61,0,29.05l-.77.46Z"/>
  <path class="cls-27" d="M96.55,41.62c.46-.3.9-.04,1.33.79l60.93.03c4.45.78,9.48,4.12,8.95,9.14.47.06.6.57.38,1.53-.59,9.88-.89,19.81-1.91,29.68l-3.83,62.59c-1.09.69-2.49,1.04-4.2,1.05-1.53.71-2.94,1-4.22.86-.84-1.11-1.09-2.59-.76-4.44,2-24.88,3.75-49.87,5.04-74.7.3-5.73-2.85-9.22-8.6-7.2-10.93,5.2-23.55,5.48-35.5,3-9.22-2.15-18.48-4.12-27.77-5.9-8.96-1.25-27.52-3.53-28.47,9.19l-.8.79c-2.71,1.08-5.72,1.11-8.42,0-.72-8.27-1-16.6-1.53-24.89l.26-.77h48.1s1.02-.77,1.02-.77Z"/>
  <path class="cls-2" d="M94.26,3.34c25.54-.24,51.21-.31,76.99-.18.18.69.3,1.39.35,2.1.01.46-.33,1.27-.38,1.91-.29,1.31-.29,2.59,0,3.83-.07.77-.28,1.53-.38,2.3-.29,1.19-.29,2.34,0,3.45-.06.78-.29,1.52-.38,2.3-.29,1.31-.29,2.59,0,3.83-.06.67-.28,1.53-.38,2.3-.29,1.19-.29,2.34,0,3.45-.06.77-.28,1.53-.38,2.3-.29,1.19-.29,2.34,0,3.45-.06.78-.29,1.52-.38,2.3-.29,1.31-.29,2.59,0,3.83-.07.7-.3,1.3-.38,1.91-.29,1.31-.29,2.59,0,3.83-.07.66-.17,1.29-.38,1.91.03,1.5-.22,2.65-.77,3.45-1.12-4.69-4.34-7.49-9.04-8.38l-61.57-.02-.6-1.55-.75-2.21c-.45-9.79-1.15-19.57-2.09-29.33-.43-2.44-.25-4.69.55-6.75Z"/>
  <path class="cls-14" d="M94.26,2.95c.33.11.33.24,0,.38.03,12.56,2.53,25.81,2.3,38.29,0,.51.01,1.02,0,1.53h-49.39c-.85-13.4-1.93-26.8-2.68-40.2,16.59,0,33.19.01,49.77,0Z"/>
  <path class="cls-16" d="M168.53,187.88c-2.69-.91-5.55-4.2-6.51-6.89l-.31-.79c6.57-6.82,13.15-13.65,19.73-20.47l.87.2c4.16,4.13,13.48,12.5,15.05,17.69,3.44,11.4-7.29,21.9-18.58,18.2-3.99-1.31-7.27-5.05-10.25-7.94Z"/>
  <path class="cls-18" d="M139.43,166.82c.3.03.76.14.77.36.24,8.43.38,18.06,0,26.47.27,1.42.01,2.31-.77,2.66-6.26,0-12.54-.35-18.76-.38-7.36-.35-12.36-8.54-12.01-15.42.09-1.7.3-4.78,2.05-5.25-.86-2.03,2.81-5.02,4.52-6.19,2.42-1.66,4.42-2.13,7.34-2.23l.94-.86c4.96-.18,9.91-.15,14.87.09l1.04.77Z"/>
  <path class="cls-29" d="M162.41,145.38c7.56.44,14.66,9.34,19.91,14.55l-20.29,21.06-.92.17c-4.68-3.97-9.52-8.7-13.28-13.52l.42-.81c-1.04-.06-1.17-.45-.38-1.15-2.04-.99-1.98-5.16-1.76-7.33.23-2.22.93-4.41,2.07-6.33s3.58-5.23,5.81-4.72c2.71-1.57,5.3-2.09,8.42-1.91Z"/>
  <path class="cls-10" d="M83.15,156.1c1.11,3.48,1.08,7.23,0,10.72.18.02.36.05.51.13.32.18.25,6.37.16,7.29l-.67.62c9.17.12,18.36.24,27.57.38-3.85,8.36,1.26,18.3,9.95,20.67-16.84-.08-33.7.06-50.54,0,9.16-2.62,12.4-10.41,12.63-19.14-.34-1.3-.67-2.63-.69-3.98-.09-7.29-.12-14.62-.06-21.9,0-.66.12-1.32.24-1.99s.31-1.33.5-1.99c.11-.33.24-.33.38,0,.95,3.08.95,6.11,0,9.19Z"/>
  <path class="cls-20" d="M145.18,166.82c1.3-.46,2.33-.46,3.06,0,1.93,3.67,10.44,10.82,13.78,14.17,2.21,2.21,4.26,4.72,6.51,6.89-5.53,10.81-18.86,8.41-29.1,8.42v-29.48c.37-1.27,5.15-1.17,5.74,0Z"/>
  <path class="cls-11" d="M68.22,76.85c1.09,1,1.07,2.82,0,3.83.29,1.95-.63,4.99-2.68,3.45l-2.25.18c-.16.75-.32.76-.5,0-14.56.12-29.09.05-43.58-.19-1.43-.45-2.06-.57-2.3-2.3-.45-2.65-1.11-7.5,2.14-8.52,14.24-.37,28.53-.52,42.87-.45,3.04.14,6.1.36,6.29,3.99Z"/>
  <path class="cls-21" d="M48.7,68.04c2.8.01,5.62-.03,8.42,0l.4-.77c4.45-.61,12.69-1.04,11.08,5.74.96.52.72,3.57-.38,3.83-1.02-2.13-2.06-2.82-4.41-3.06-13.49-1.36-29.15,1-42.87,0-4.62,0-4.51,4.45-4.03,8.03-.63-.4-.38-1.45-.39-2.1-.03-2.77-.86-10.53,2.28-11.51,9.95-.28,19.93-.22,29.88-.17Z"/>
  <path class="cls-3" d="M94.26,2.95c25.77-.02,51.57.01,77.34,0v2.3c0-.1-.5-1.91-.6-1.93l-76.74.02v-.38Z"/>
  <path class="cls-22" d="M65.54,84.12c.13.75-.41,1.1-1.61,1.06l.12,5.79-.81.42c-1.56-1.12-1.51-4.86-.74-6.41-1.8.54-3.72.44-5.39-.48-9.66,1.16-19.84,1.35-29.48,0-1.9-.03-3.85.1-5.74,0-1.25-.07-1.47,0-2.68-.38h46.33Z"/>
  <path class="cls-4" d="M168.15,53.11c-.38-.46-.27-1.05-.38-1.53l.77-3.45c-.08,1.34.11,2.71.02,4.05-.04.49-.4.87-.4.93Z"/>
  <path class="cls-13" d="M171.21,10.99c-1.07-.98-.08-2.92,0-3.83-.08,1.26.11,2.58,0,3.83Z"/>
  <path class="cls-1" d="M170.45,22.86c-1.04-1.02-.12-2.83,0-3.83-.08,1.25.12,2.59,0,3.83Z"/>
  <path class="cls-19" d="M168.92,46.22c-1.04-1.02-.13-2.83,0-3.83-.09,1.24.13,2.61,0,3.83Z"/>
  <path class="cls-19" d="M169.3,40.47c-1.04-1.02-.12-2.83,0-3.83-.09,1.24.12,2.61,0,3.83Z"/>
  <path class="cls-8" d="M170.06,28.6c-1.05-.97-.12-2.59,0-3.45-.06,1.14.09,2.31,0,3.45Z"/>
  <path class="cls-5" d="M170.83,16.74c-1.04-.97-.12-2.59,0-3.45-.06,1.14.09,2.31,0,3.45Z"/>
  <path class="cls-5" d="M169.68,34.35c-1.04-.97-.12-2.59,0-3.45-.06,1.14.09,2.31,0,3.45Z"/>
  <path class="cls-7" d="M22.28,176.77c13.52-.75,27.06-.75,40.58,0,3.39-1.09,8.4-1.03,12.08-.77l.56.77c-2.66,7.41-9.36,8.66-16.32,9.52-10.34,1.28-22.48,1.23-32.83,0-7.26-.86-13.94-2-17.09-9.52,4.33-.75,8.69-.75,13.02,0Z"/>
  <path class="cls-6" d="M77.03,146.91c.37-1.27,5.15-1.17,5.74,0,.01,9.93.26,19.95,0,29.86h-7.27l-.77-.35v-29.05l.77-.46c0-1.12,1.28-1.07,1.53,0Z"/>
  <path class="cls-6" d="M7.73,146.91c0-1.12,1.28-1.07,1.53,0l.77.35v29.05l-.77.46H2.37v-29.86h5.36Z"/>
  <path class="cls-7" d="M57.12,84.5l.81.55c-.56,3.7-.25,7.05.92,10.06,3.21,3.1,6.8,5.82,10.77,8.17,7.58,4.92,8.34,12.06,8.4,20.59-.19,7.02-.3,14.04-.31,21.06l-.68,1.98h-1.53c-.15,1.17-2.81,1.12-3.06,0l-.77-.35-.06-30.99c-3.06-7.39-11.39-7.57-18.34-7.66-7.74-.28-15.5-.29-23.24,0-6.67.25-15.15.88-16.94,8.63v29.91s-.76.46-.76.46c-.15,1.17-2.81,1.12-3.06,0h-1.53c.56-9.52-.75-19.88-.01-29.3.98-12.56,9.6-13.61,17.2-20.32,4.39-3.87,2.27-7.52,2.72-12.79,9.82.14,19.66-.08,29.48,0Z"/>
  <path class="cls-12" d="M153.98,147.29c-6.36,3.67-8.82,11.56-6.13,18.38-.08.74-.97,1.12-2.68,1.15h-5.74c-5.11,0-11.98-.55-16.85,0l-4.72.77h-34.25l-.46-.77c-.03-3.57,0-7.15,0-10.72l.26-.77h52.7c3.06-.3,6.16-3.38,6.56-6.41.88-6.67,1.37-13.45,1.69-20.22.37-13.32,1.14-26.57,2.3-39.75.68-7.15-.05-13.87-8.92-13.63-8.53,1.52-17.5.69-26.04-1.37-9.28-2.47-18.54-4.61-28.01-6.21-4.94-.83-12.5-1.04-14.18,4.82l-.92.45c-.7-1.7-.41-4.12-2.66-4.81-1.87-.57-6.56-.15-8.83-.17.2-8.55,6.52-10.97,13.98-11.48,25.9-1.78,47.67,13.88,72.85,5.85,4.23-1.35,8.88-5.01,13.06-1.03,2.39,2.27,2.05,5.37,1.97,8.4-.68,24.02-3.53,49.01-4.99,73.12-.09,1.46.05,2.94,0,4.4Z"/>
  <path class="cls-23" d="M105.63,17.2l53.88-.06c1.24.2,2.91,1.71,3.19,2.93s-.11,5.42-.34,6.77c-.3,1.72-.7,3.28-2.36,4.15-17.94.66-36.05.13-54.05.27-1.96-.48-2.74-1.72-2.91-3.6-.25-2.77-.78-9.71,2.59-10.46Z"/>
  <path class="cls-27" d="M122.59,166.82c-4.47.5-9.98,4.31-11.87,8.42-9.08-.16-18.27-.29-27.57-.38-.34-1.02.02-6.41,0-8.04h39.44Z"/>
  <path class="cls-9" d="M148.24,166.82h-3.06c.73-.73,2.12-.13,2.68-1.15.14.36.33,1.04.38,1.15Z"/>
  <path class="cls-17" d="M83.15,156.1c0-3.06,0-6.13,0-9.19.06-10.19-.06-20.15-.38-29.86l-.82-.97c0-8.34-5.92-12.83-12.27-17l-.3-1.17c-1.04-1.17-1.08-3.87-.38-5.17-1.27-.37-1.17-5.15,0-5.74l-.78-.37c-.33-1.98-.33-3.96.01-5.94-.06-1.26-.02-2.57,0-3.83.02-1.57,0-2.29.38-3.83,1.71-6.97,8.56-6.71,14.35-6.12,16.12,1.63,31.69,9.21,48.26,8.44,4.17-.2,7.95-1.86,11.93.29,4.96,2.68,4.48,7.61,4.32,12.52-.15,4.57-.88,9.23-1.14,13.79-.86,14.87-.97,31.29-2.69,45.94-.48,4.09-3.22,7.66-7.46,8.24h-53.03Z"/>
  <path class="cls-12" d="M83.15,146.91h-.38c-.2-.46-.38-.93-.51-1.41s-.25-.94-.25-1.41c-.03-8.06,0-16.17.09-24.23.01-.97.34-1.91.66-2.82.63.4.38,1.45.39,2.1.11,9.25-.02,18.52,0,27.76Z"/>
  <path class="cls-12" d="M110.72,175.24l-26.63.02c-.42-.05-.75.17-.94-.4,8.59.25,17.26-.34,25.84,0,.53.02,1.58-.27,1.72.38Z"/>
  <path class="cls-12" d="M69.37,97.9l-.78.38c-1.44-.62-4.96-3.22-5.65-4.59-.42-.83-.86-1.97.31-2.3.19-.97-.26-6.66,0-6.89.09-.08,1.45-.11,2.3-.38,1.92-.61,2.47-1.35,2.68-3.45.08,1.65.77,4.7.77,6.32v5.74c0,.13.36.64.4,1.13.09,1.33-.09,2.7-.01,4.04Z"/>
  <path class="cls-26" d="M57.12,84.5c1.91.02,3.84-.01,5.74,0-.08,2.41-.07,4.6.38,6.89.09.46-.06.98.17,1.53.86,2.1,4.18,3.67,5.95,4.97,8,5.87,12.91,8.06,13.4,19.14.43,9.73-.01,20.06,0,29.86h-5.74c-.53-9.42.7-19.59.01-28.92-.94-12.82-9.24-13.91-17.21-20.69-4.44-3.78-2.22-7.56-2.71-12.79Z"/>
  <path class="cls-23" d="M65.16,166.44l.77.46c.49,2.71.74,9.75-3.06,9.88H22.28c-4.18.18-3.97-7.09-3.45-9.92l.77-.41c0-.3.08-.76.27-.77,13.77-.25,28.8-.51,42.55,0,1.43-.25,2.34,0,2.74.77Z"/>
  <path class="cls-18" d="M12.32,146.91c.04-.3.12-.74.34-.77.57-.08,6.11-.13,6.4,0s.42.47.54.77c1.17,6.36,1.11,13.16,0,19.53.05,3.51-1.18,8.85,2.68,10.34h-13.02v-29.86h3.06Z"/>
  <path class="cls-18" d="M72.43,146.91h3.06v29.86h-12.63c3.42-1.97,2.25-6.79,2.3-10.34-1.1-6.4-1.15-13.13,0-19.53.04-.3.12-.74.34-.77.57-.08,6.11-.13,6.4,0s.42.47.54.77Z"/>
  <path class="cls-25" d="M72.43,146.91h-7.27c-.8-8.06-1.05-16.15-.74-24.28-.15-.83-.78-1.48-1.54-1.86-11.83-.26-23.74-.44-35.74-.55-1.16-.03-6.47,0-6.52,1.84.03,8.24-.31,16.52-1.02,24.85h-7.27v-30.44c.61-5.43,7.19-8.58,12.07-8.99,9.61-.8,25.53-.66,35.24-.02,5.43.35,10.7,2.61,12.72,7.95l.09,31.5Z"/>
  <path class="cls-25" d="M35.19,93.78c2.51-.42,12.6-.4,14.96.17,3.22.77,8.4,6.61,3.35,8.18l-22.91-.1c-3.91-2.55,1.43-7.72,4.6-8.25Z"/>
  <path class="cls-23" d="M111.38,124.03c5.69-.92,9.96,5.44,6.78,10.22-4.55,6.84-14.72,1.27-11.84-6.1.81-2.07,2.85-3.77,5.06-4.12Z"/>
  <path class="cls-23" d="M136.28,95.68c5-.87,6.17,6.44,2.11,7.49-5.86,1.51-6.98-6.64-2.11-7.49Z"/>
  <path class="cls-23" d="M106.78,79.61c4.79-1.1,6.99,4.39,3.37,6.81-5.04,3.37-8.6-5.61-3.37-6.81Z"/>
  <path class="cls-28" d="M65.16,146.91c.02,6.5.08,13.03,0,19.53H19.6c-.09-6.5-.02-13.03,0-19.53.02-8.09-.04-16.19.02-24.29.48-1.96,1.72-2.74,3.6-2.91,12.16-1.11,25.99.89,38.32,0,1.63-.08,3.44,1.25,3.64,2.87-.02,8.11-.04,16.23-.02,24.33Z"/>
  <path class="cls-20" d="M58.65,138.49c.05,5.35.61,13.13,0,18.19-.14,1.18-.59,1.95-1.55,2.67l-27.77.22c-1.99.04-2.94-1.05-3.2-2.92-.69-4.95-.09-13.23-.04-18.53.75.29,1.51.79,2.3,1.51,9.51.25,18.99.19,28.42-.16.54-.92,1.15-1.24,1.83-.97Z"/>
  <path class="cls-15" d="M26.11,138.1c.02-2.34-.48-8.3.59-9.94.83-1.28,2.38-1.44,3.8-1.56,6.26-.53,17.89-.53,24.15,0,1.51.13,3.52.51,3.9,2.22.52,2.34.08,7.01.1,9.67-.78.76-1.18,1.98-2.47,1.93-8.6-.87-19.26,1.09-27.6,0-1.62-.21-1.7-1.13-2.47-2.32Z"/>
</svg>