<?xml version="1.0" encoding="UTF-8"?>
<svg id="Layer_14" data-name="Layer 14" xmlns="http://www.w3.org/2000/svg" viewBox="0 0 200 200">
  <defs>
    <style>
      .cls-1 {
        fill: #dcdbfe;
      }

      .cls-2 {
        fill: #ed8678;
      }

      .cls-3 {
        fill: #feae92;
      }

      .cls-4 {
        fill: #ed8778;
      }

      .cls-5 {
        fill: #dcdcfe;
      }

      .cls-6 {
        fill: #3e7ffe;
      }

      .cls-7 {
        fill: #65b8fe;
      }
    </style>
  </defs>
  <path class="cls-3" d="M103.7,102.54c.27.18.64.55.52.72-9.64,14.34-19.82,28.96-29.96,43.07-1.05,2.09-2.44,3.61-4.19,4.55-.14.36-.28.36-.42,0-.58.5-1.04.81-1.74,1.01-2.69.75-9.8.65-12.85.53-8.59-.35-18.19-2.15-22.95-10.13-.91-1.53-2.81-5.61-2.65-7.23,2.01-20.83,5.28-41.59,8.6-62.24-.03-2.33.59-3.36,2.28-2.77,5.01,7.29,12.04,15.15,21.91,13.77l.5.41c-2.92-8.14-6.27-16.07-10.03-23.78-1.35-2.8-1.48-5.92-1.31-9.04.82-10.57,1.49-21.27,2.02-32.08l.66-1.7c14.13.75,28.32,2.35,42.28,4.6,1.3,26.02,1.98,52.75,6.5,78.42.13.74.05,1.47.83,1.9Z"/>
  <path class="cls-2" d="M54.1,17.62c-.45,6.93-.53,13.88-.82,20.83-.22,5.24-1.6,13.54-.83,18.45.51,3.26,6.27,13.9,7.86,18.21,1.13,3.07,2.03,6.24,3.05,9.35-7.75,1.7-14.42-2.67-19.35-8.18l-4.61-6.1c-3.93,21.48-6.51,43.2-9.1,64.88,3.56,18.58,24.77,17.21,39.36,15.83l.54.71-9.54,14.11c-.6,1.34-.7,2.76.14,4.02l-.38.92-33.83-.85C10.07,167.14-.04,152.63,3.01,136.15c2.11-11.41,7.18-23.79,10.19-35.21,7.22-27.36,9.66-55.49,9.79-83.75,7.9.22,15.87-.28,23.77-.02,2.39.08,4.92.31,7.34.44Z"/>
  <path class="cls-7" d="M113.37,105.06l-.19,1.72c-6.45,8.46-12.28,17.28-17.5,26.45-3.63,8.83,5.93,15.74,13.29,9.77l15.84-23.49c.97-1.29,2.06-2.46,3.28-3.51l8.41,7.15.26,1.08c-4.04,5.73-8.04,11.62-11.65,17.66-6.46,9.2,6.39,19.28,13.32,10.13,4.03-5.38,7.8-10.92,11.33-16.62l1.03-.06c3.5,3.82,8.04,4.77,6.31,10.93l.65.73c-1.96,4.82-4.74,9.52-8,13.79-1.99,2.61-8.75,10.61-11.32,11.36-.35.1-.71.15-1.08.18-.14.34-.28.34-.42,0l-1.98-.8c-16.68-16.13-40.67-24.13-63.45-19.94l-1.41-.7,33.63-48.34c4.13-2.18,6.23,1,9.67,2.52Z"/>
  <path class="cls-6" d="M136.91,172.32l-.13,1.02c-2.27,2.27-4.51,4.58-6.72,6.93l-1.56.04c-1.25.59-2.62.5-3.99.41-9.65-.66-21.6-3.65-31.59-4.98-9.19-1.22-19.6-1.53-28.48-3.05-1.66-.28-2.99-.66-4.04-2.06-1.33-1.77-1.36-3.36-.5-5.34l9.75-14.42c.14-.01.28.01.42,0,5.77-.53,10.64-1.58,16.6-1.26,18.84,1.02,37.17,9.21,50.24,22.7Z"/>
  <path class="cls-3" d="M192.4,177.78c-.42.13-.84.25-1.27.31s-.82.11-1.21.05c-9.24-1.47-17.88-3.31-26.53-6.02l-3.37.42c-4.26,1.12-18.54,4.83-22.16,1.81-.63-.53-1.16-1.31-.53-2.03,6.96-5.8,13.08-12.64,17.31-20.74.77-1.47,2.02-3.8,2.45-5.33,2.72,1.69,4.62,3.36,7.89,4.09,8.3,1.85,18.46,1.01,26.75,2.68,6.81,1.37,6.14,9.48,5.24,14.84-.64,3.84-2.08,6.98-4.57,9.93Z"/>
  <path class="cls-6" d="M128.09,115.99c-5.95,9.31-12.34,18.37-18.48,27.55-8.63,7.08-19.58-1.8-14.06-11.96,4.5-8.28,12.27-18.63,17.83-26.52,1.23-1.74,2.11-4.99,4.73-4.55.73.12,11.22,6.91,12.07,7.72,2.65,2.55-.53,5.32-2.08,7.76Z"/>
  <path class="cls-6" d="M150.79,135.33c-2.28,3.59-11.29,17.76-13.9,19.52-7.07,4.77-16.23-1.87-14.07-10.28.68-2.66,11.36-18.31,13.68-21.43,1.02-1.37,1.88-3.27,3.89-2.88,2.25,1.57,12.57,7.19,13.17,9.18.42,1.39-1.91,4.53-2.78,5.89Z"/>
  <path class="cls-4" d="M192.4,177.78c-8.83,10.42-19.71-.09-30.37,1.37-2.37.33-4.87,1.75-7.29,2.38-8.55,2.23-17.93,1.65-26.24-1.23,2.36-1.11,6.33-7.22,8.41-7.99.06-.02.37-.03.42,0,.22.13.9,1.39,1.45,1.7,1.16.66,6.75.53,8.45.41,4.45-.3,13.01-3.36,16.23-3.15,2.27.14,7.62,2.38,10.36,3.01,6.16,1.43,12.41,2.19,18.58,3.49Z"/>
  <path class="cls-5" d="M100.06,139.82c-3.68-4.03,3.57-9.16,6.11-4.23,2.13,4.13-3.5,7.09-6.11,4.23Z"/>
  <path class="cls-1" d="M130.93,143.81c6.08-.72,5.39,9.08-.67,7.21-3.83-1.18-2.96-6.78.67-7.21Z"/>
</svg>