<?xml version="1.0" encoding="UTF-8"?>
<svg id="Layer_14" data-name="Layer 14" xmlns="http://www.w3.org/2000/svg" viewBox="0 0 200 200">
  <defs>
    <style>
      .cls-1 {
        fill: #f4405f;
      }

      .cls-2 {
        fill: #fe5471;
      }

      .cls-3 {
        fill: #d0d0d5;
      }

      .cls-4 {
        fill: #f13353;
      }

      .cls-5 {
        fill: #e3e7ea;
      }

      .cls-6 {
        fill: #fecdbf;
      }

      .cls-7 {
        fill: #c2c2c8;
      }

      .cls-8 {
        fill: #efe2e0;
      }

      .cls-9 {
        fill: #f4e3e0;
      }

      .cls-10 {
        fill: #f0e4e3;
      }

      .cls-11 {
        fill: #f0e3e2;
      }

      .cls-12 {
        fill: #ecdedc;
      }

      .cls-13 {
        fill: #f6e2de;
      }

      .cls-14 {
        fill: #f4e2e0;
      }

      .cls-15 {
        fill: #fcaf9f;
      }

      .cls-16 {
        fill: #eaf0f4;
      }

      .cls-17 {
        fill: #e8e1e1;
      }

      .cls-18 {
        fill: #fefefe;
      }
    </style>
  </defs>
  <path class="cls-16" d="M137.16,140.36l-.53,2c-5.15,9.49-10.69,18.75-16.61,27.79l-1.46,1.49c-.39.39-.92.65-1.58.79-.13.02-.27-.02-.4,0l-1.98.4c-6.09,1.22-12.01,3.4-17.82,5.54l-.46-.74,14.82-22.34c.58-1.61-.81-2.94-2.41-2.6l-19.35,27.62-2.1,1.62c-11.03,4.59-26.72,13.79-38.4,15.05l-6.33-.4c-3.74-.54-6.19-1.37-8.71-4.36l1.14-.67c9.13.62,18.17-4.65,24.89-10.47,17.13-14.84,29.56-33,42.09-51.77l1.17-.84c11.31-17.53,21.66-35.32,31.28-53.85l-.36-1.02,4.4-8.18c2.12-4.33,2.74-9.28-.23-13.4l.14-1.16c7.55,2.32,21.26,6.13,27.84,9.57,3.16,1.65,5.1,5.73,5.05,9.23-.08,5.84-6.46,17.64-9.19,23.31-7.71,15.96-16.17,31.94-24.89,47.37Z"/>
  <path class="cls-6" d="M34.62,34.65l.68,1.35c-1.51,19.7,13.31,37.66,33.29,38.59l1.26.84c1.18-.35,2.24-.35,3.17,0,2.33,10.12,3.38,20.83,5.94,30.88-1.39,5.67-5.59,11.34-9.64,15.71-7.49,8.06-18.12,13.81-28.47,17.33-.26.09-.57.07-.89.04s-.66-.12-.98-.22l-.91-2.18c-.78-12.97-4.84-25.3-9.09-37.67-6.52-18.96-13.83-38.5-20.86-56.74l.37-.8c.24-.07.64-.46,1.16-.6,8.27-2.34,16.66-4.36,24.97-6.52Z"/>
  <path class="cls-2" d="M74.21,3.37c.05.48-.8.25-.75.25,13.24,1.92,23.27,10.69,27.82,23.29,7.35,20.32-5.33,45.28-27.46,47.73-1.06.48-2.38.75-3.96.79-21.68-.42-37.4-19.36-35.24-40.78,1.4-13.85,13.17-26.81,26.44-30.37,4.05-1.09,9.06-1.86,13.15-.9Z"/>
  <path class="cls-5" d="M97.18,125.71c-5.37,7.98-11.18,16.57-17.06,24.52-10.36,14.02-28.46,36.89-46.85,39.44-.21.03-.45-.06-.69-.16s-.5-.27-.73-.44c-1.33-2.72-1.79-4.46-1.98-7.52-.32-2.22-.41-4.55,0-6.73l1.16-1.03c13.81-3.39,26.37-13.07,35.24-23.92,2.41-2.95,2.48-4.39-1.58-4.28-8.87,10.11-19.44,20.19-32.67,24.03-.25.07-.54.02-.84-.04s-.61-.18-.91-.31c-.3-.65-.3-1.32,0-1.98.01-3.5,1.05-6.86,1.58-10.29.28-.62.42-1.27.4-1.98.04-.25-.03-.54,0-.79.28-.62.41-1.28.4-1.98.03-.26-.03-.53,0-.79l.4-2.77c0-.4,0-.79,0-1.19.16-2.16.29-4.27.4-6.33.68-1.21,4.37-2.87,5.54-1.98,15.03-5.21,27.87-12.4,36.35-26.41,1.27-2.09,2.14-4.57,3.64-6.46,2.59,10.15,9.37,14.67,18.21,19.4Z"/>
  <path class="cls-6" d="M118.56,172.04c-.29-.11-.28-.25,0-.4,5.97-10.51,12.7-20.83,18.61-31.28,9,2.59,18.6,3.02,27.91,2.37,7.74-.54,34.25-7.26,31.85,7.7-1.06,6.62-14.03,12.26-19.67,14.37-21.47,8.03-37.49,4.15-58.69,7.23Z"/>
  <path class="cls-3" d="M97.18,125.71c1.8.96,4.16,1.62,5.94,2.77-11.39,17.64-23.82,36.31-39.59,50.49-7.82,7.03-18.68,14.83-29.7,13.26-.87-1.03-1.39-1.96-1.98-3.17,13.46-1.55,25.03-12.62,33.86-22.17,11.8-12.76,19.82-26.45,30.04-40.04.41-.54.53-1.19,1.43-1.14Z"/>
  <path class="cls-15" d="M8.49,41.78c.77.87,1.19,2.26,1.59,3.36,7.91,21.8,16.99,44.8,23.86,66.81,2.77,8.87,4.66,17.9,5.03,27.23-1.66.58-3.62,1.69-5.54,1.98-.11.35-.24.34-.4,0-.45-13.67-3.56-23.53-7.91-36.23-7.04-20.57-14.99-40.88-22.12-61.43-.24-.76.08-.42.49-.56,1.58-.56,3.42-.7,5-1.15Z"/>
  <path class="cls-4" d="M74.21,3.37c11.95.03,24.51,9.76,29.37,20.32,10.53,22.87-3.81,48.46-28.57,51.34-.75.12-1.14-.02-1.19-.4,18.59-3.56,31.15-21.88,28.46-40.53-2.19-15.18-14.65-28.5-30.04-30.34-.03-.7,1.49-.39,1.98-.39Z"/>
  <path class="cls-3" d="M29.87,174.81c-.11.35-.24.34-.4,0,.05-1.99.19-3.59.4-5.54.11-.35.24-.34.4,0,13.9-3.47,24.79-14,34.06-24.34,7.45-.64,3.77,4.17.99,7.32-8.77,9.92-22.18,20.24-35.44,22.56Z"/>
  <path class="cls-3" d="M134.39,49.7c2.35,1.92,2.33,6.8,1.76,9.73-.66,3.34-3.94,9.88-5.85,12.81l-1.06.42c-15.4-6.58-8.74-25.2,5.15-22.96Z"/>
  <path class="cls-3" d="M96.78,178.37c-3.14,1.16-6.41,2.28-9.5,3.56l20.96-29.92c2.35-.78,4.5,1.28,3.61,3.6l-15.07,22.76Z"/>
  <path class="cls-7" d="M138.35,50.88c6.38,8.37-.06,16.24-3.96,23.76-1.71-.66-3.46-1.26-5.15-1.98,2.62-6.07,7.33-11.34,6.33-18.41l-1.18-4.56c1.87.3,2.43.72,3.96,1.19Z"/>
  <path class="cls-17" d="M29.87,181.54c-.69-1.88-.45-4.62-.4-6.73h.4c.1,2.23-.14,4.51,0,6.73Z"/>
  <path class="cls-1" d="M73.82,74.64l1.19.4c-.49.06-1.02.34-1.98.4-1.04.06-2.13.02-3.17,0,1.11-.58,2.68-.55,3.96-.79Z"/>
  <path class="cls-12" d="M33.04,147.49c.01-2.1.07-4.24,0-6.33h.4c-.22,2.02.5,4.55-.4,6.33Z"/>
  <path class="cls-14" d="M48.87,196.98c-2.19.24-4.29-.1-6.33-.4,2.02.22,4.55-.5,6.33.4Z"/>
  <path class="cls-8" d="M32.64,151.45c.09-.87-.35-2.21.4-2.77-.01.87.29,2.23-.4,2.77Z"/>
  <path class="cls-10" d="M32.24,154.22c.1-.72.36-1.65.4-1.98-.02.63.25,1.64-.4,1.98Z"/>
  <path class="cls-10" d="M31.85,156.99c.11-.72.33-1.55.4-1.98-.02.63.25,1.64-.4,1.98Z"/>
  <path class="cls-11" d="M30.26,169.27h-.4c.07-.62-.28-1.64.4-1.98,0,.66,0,1.32,0,1.98Z"/>
  <path class="cls-9" d="M118.56,172.04c-.3.04-.96.29-1.58.4l1.58-.79v.4Z"/>
  <path class="cls-13" d="M116.58,172.43c-.52.09-1.36.27-1.98.4l1.98-.4Z"/>
  <path class="cls-18" d="M77.78,46.53v13.66s-.55.59-.59.59h-12.67c-.09,0-.99-1.24-.99-1.39v-12.87h-12.87c-.11,0-1.08-.61-1.19-.79-.36-.59-.36-11.87,0-12.66.09-.19.72-.8.79-.8h13.26v-12.87c0-.8,1.3-1.68,2.16-1.8,1.66-.23,9.17-.26,10.7.03.43.08,1.4.68,1.4.98v13.07s.55.59.59.59h13.07c.07,0,.7.61.79.8.37.79.36,12.07,0,12.66-.11.18-1.08.79-1.19.79h-13.26Z"/>
</svg>