<?xml version="1.0" encoding="UTF-8"?>
<svg id="Layer_15" data-name="Layer 15" xmlns="http://www.w3.org/2000/svg" viewBox="0 0 200 200">
  <defs>
    <style>
      .cls-1 {
        fill: #e16d68;
      }

      .cls-2 {
        fill: #ed8272;
      }

      .cls-3 {
        fill: #e9dcc1;
      }

      .cls-4 {
        fill: #e7dabf;
      }

      .cls-5 {
        fill: #e06b67;
      }

      .cls-6 {
        fill: #ef927f;
      }

      .cls-7 {
        fill: #ea8976;
      }

      .cls-8 {
        fill: #e4d8be;
      }

      .cls-9 {
        fill: #85b717;
      }

      .cls-10 {
        fill: #ea7d6f;
      }

      .cls-11 {
        fill: #ed8f7c;
      }

      .cls-12 {
        fill: #eee0c5;
      }

      .cls-13 {
        fill: #488fde;
      }

      .cls-14 {
        fill: #d9535a;
      }

      .cls-15 {
        fill: #e8796d;
      }

      .cls-16 {
        fill: #e6766c;
      }

      .cls-17 {
        fill: #dd6866;
      }

      .cls-18 {
        fill: #ed8372;
      }

      .cls-19 {
        fill: #665946;
      }

      .cls-20 {
        fill: #a3c6e6;
      }

      .cls-21 {
        fill: #f69e8a;
      }

      .cls-22 {
        fill: #f39885;
      }

      .cls-23 {
        fill: #e87a6d;
      }

      .cls-24 {
        fill: #d8d5d0;
      }

      .cls-25 {
        fill: #e6816f;
      }

      .cls-26 {
        fill: #d65c60;
      }

      .cls-27 {
        fill: #fceccf;
      }

      .cls-28 {
        fill: #edad9a;
      }

      .cls-29 {
        fill: #e3716a;
      }

      .cls-30 {
        fill: #f3c2b1;
      }

      .cls-31 {
        fill: #f49a87;
      }

      .cls-32 {
        fill: #df6b67;
      }

      .cls-33 {
        fill: #e26f69;
      }

      .cls-34 {
        fill: #efedeb;
      }

      .cls-35 {
        fill: #cd444c;
      }

      .cls-36 {
        fill: #df6c67;
      }

      .cls-37 {
        fill: #d64f57;
      }

      .cls-38 {
        fill: #e5746b;
      }

      .cls-39 {
        fill: #efe1c6;
      }

      .cls-40 {
        fill: #efe0c5;
      }

      .cls-41 {
        fill: #dd6765;
      }

      .cls-42 {
        fill: #e27069;
      }

      .cls-43 {
        fill: #f29783;
      }

      .cls-44 {
        fill: #f2c0ae;
      }

      .cls-45 {
        fill: #d45a5f;
      }

      .cls-46 {
        fill: #76abe6;
      }

      .cls-47 {
        fill: #fbeace;
      }

      .cls-48 {
        fill: #ea7c6f;
      }

      .cls-49 {
        fill: #e87a6e;
      }

      .cls-50 {
        fill: #e4736b;
      }

      .cls-51 {
        fill: #abc849;
      }

      .cls-52 {
        fill: #e98573;
      }

      .cls-53 {
        fill: #e4d8bd;
      }

      .cls-54 {
        fill: #f4c8b7;
      }

      .cls-55 {
        fill: #ef917e;
      }

      .cls-56 {
        fill: #e6756c;
      }

      .cls-57 {
        fill: #ee8473;
      }

      .cls-58 {
        fill: #edad99;
      }

      .cls-59 {
        fill: #f8cb5c;
      }

      .cls-60 {
        fill: #feedd0;
      }

      .cls-61 {
        fill: #f4e5c9;
      }

      .cls-62 {
        fill: #f6e6cb;
      }

      .cls-63 {
        fill: #ef8573;
      }

      .cls-64 {
        fill: #ec8c79;
      }

      .cls-65 {
        fill: #ee8f7c;
      }

      .cls-66 {
        fill: #f0927f;
      }

      .cls-67 {
        fill: #ecdec3;
      }

      .cls-68 {
        fill: #ed8271;
      }

      .cls-69 {
        fill: #e1d5bb;
      }

      .cls-70 {
        fill: #e78371;
      }

      .cls-71 {
        fill: #e5736b;
      }

      .cls-72 {
        fill: #d0ccc6;
      }

      .cls-73 {
        fill: #db6464;
      }

      .cls-74 {
        fill: #f8e8cc;
      }

      .cls-75 {
        fill: #e7786d;
      }

      .cls-76 {
        fill: #f49a86;
      }

      .cls-77 {
        fill: #f3c5b4;
      }

      .cls-78 {
        fill: #d5d2cd;
      }

      .cls-79 {
        fill: #3182da;
      }

      .cls-80 {
        fill: #f1bdaa;
      }

      .cls-81 {
        fill: #eb7f70;
      }

      .cls-82 {
        fill: #c0d676;
      }

      .cls-83 {
        fill: #f19481;
      }

      .cls-84 {
        fill: #ea6466;
      }

      .cls-85 {
        fill: #a2c6ee;
      }

      .cls-86 {
        fill: #f1e2c7;
      }

      .cls-87 {
        fill: #e7776d;
      }

      .cls-88 {
        fill: #d86062;
      }

      .cls-89 {
        fill: #ed7b7f;
      }

      .cls-90 {
        fill: #f08674;
      }

      .cls-91 {
        fill: #e7e5e2;
      }

      .cls-92 {
        fill: #f59d89;
      }

      .cls-93 {
        fill: #d2575e;
      }

      .cls-94 {
        fill: #f7e7cb;
      }

      .cls-95 {
        fill: #e06d68;
      }

      .cls-96 {
        fill: #e97b6f;
      }

      .cls-97 {
        fill: #e95b60;
      }

      .cls-98 {
        fill: #e8dac0;
      }

      .cls-99 {
        fill: #d54d55;
      }

      .cls-100 {
        fill: #da6464;
      }

      .cls-101 {
        fill: #f29683;
      }

      .cls-102 {
        fill: #f2bfac;
      }

      .cls-103 {
        fill: #fae9cd;
      }

      .cls-104 {
        fill: #f3e4c8;
      }

      .cls-105 {
        fill: #f4a73d;
      }

      .cls-106 {
        fill: #f59c88;
      }
    </style>
  </defs>
  <g>
    <path class="cls-93" d="M103.34,84.41l-.15,1.33c-3.69,4.39-6.06,9.59-6.71,15.3l-.87,1.03c.58,1.26.72,2.71.44,4.35.32,1.68.17,3.05-.44,4.12,1.23.94,1.98,3.84,1.1,5.15,1.28.73,2.01,3.21,1.1,4.42,1.08,1.69,1.45,3.55,1.1,5.52,1.41,1.65,1.84,3.85,1.1,5.89,1.18,1.48,1.42,3.02.74,4.78,1.37,1.87,1.67,4.5.74,6.63,1.24,1.05,1.51,4.34.37,5.52,1.18,1.25,1.21,4.3,0,5.52,1.19.61.78,3.73-.37,4.42l.62.77-1.11,4.17.41.17,19.26-10.76c1.01-.45,1.87-.36,1.44.86-7.38,15.87-21.86,37.91-41.41,39.01-7.7.43-8.33-4.14-10.49-9.93l-.06-.81,21.21-11.59c1.67-1.36,3.2-2.87,4.61-4.54-.83-1.24.88-3.4,1.84-4.42-.86-1.36-.39-3.67.74-4.78-1.01-1.26-.7-4.33.37-5.52-1.06-1.95-1.18-4.16-.37-6.63-.77-.94-.89-2.29-.37-4.05-1.08-.11-1.25-1.16-.37-1.84-1.34-.88-1.38-3.68-.71-5.09l-.02-.8c-1.14-.56-1.27-1.71-.37-2.58-1.18-.43-1.68-2.44-.74-3.31-1.6-1.52-1.41-3.2-1.1-5.15-1.51-1.05-1.65-2.87-1.1-4.42l-.81-.31-.78-4.9c-4.52,2.31-7.79,6.48-9.55,11.2l-1.01.64c.72.97.06,4.68-1.1,5.15.25,2.28.37,3.42.37,3.42-.29,3.1-5.13,2.53-3.68-.11-1.4-.83-.89-4.51.37-5.52-1.11-1.51.36-5.09,1.84-6.26-.12-.17-.23-.34-.3-.52-.77-2.01,9.4-12.07,12.43-12.79-.02-.63.27-.98.75-1.41l-.68-1.02c-.1-2.58.47-7.03,2.15-8.91-.13-.24-.24-.48-.3-.74-.55-2.21,4.4-10.54,6.93-11.77l-.24-.86c.86-1.31,5.9-6.36,7.2-6.7,1.59-.41,3.53.77,2.94,2.3-.74,1.91-4.97,5.33-6.95,6.36Z"/>
    <path class="cls-69" d="M47.76,94.35c.04,1.25-1.52,2.14-2.58,1.47l-.24.96c-6.07,3.01-12.95,6.16-19.87,5.08l-.5-.89c-6.49-1.93-4.91-11.22-3.68-16.19l.76-.94c16.82-5.08,33.65-10.11,50.49-15.1l.64.58c.02.33.02.65-.02.97-.4,2.73-8.11,11.11-10.51,13.51-2.41,2.41-10.78,10.13-13.53,10.53-.32.05-.64.04-.97.02Z"/>
    <path class="cls-90" d="M47.76,111.65l.06.81c-6.64,3.67-13.28,7.35-19.92,11.03l-.75-.43c-2.82-7.44-3.62-14.1-2.58-22.08,5.9,1.76,15.38-2.32,20.61-5.15.21.24.42.5.57.77.52.9,2.09,11.26,2.31,13.27.07.61-.09,1.21-.31,1.78Z"/>
    <path class="cls-18" d="M53.65,126.37l.17,1.06c-5.98,3.58-12.05,6.9-18.21,9.98-3.79-5.05-6.17-8.31-8.47-14.35l20.61-11.41.94.63c1.33,4.47,3.02,8.86,5.18,12.99l-.23,1.1Z"/>
    <path class="cls-60" d="M58.06,45.4c.12-.32.25-.32.37,0l.81-.76c3.64-.02,7.3.69,10.58,2.29l.39,1.05c.86-.83,2.55.74,2.21,1.84.31.89-.18,1.49-1.48,1.78-11.8,3.63-24.08,7.29-35.91,10.61-.98.2-1.98.21-1.63-.98-.32-.12-.32-.25,0-.37-.34-1.3.88-2.76,2.21-2.58,1.86-1.94,4.47-4.27,6.63-5.89,1.44-2.62,5.09-4.27,7.85-5.48,1.25-.55,6.06-2.43,7.06-2.15.38.11.69.31.92.64Z"/>
    <path class="cls-81" d="M128.73,85.52c.95-.28,1.07.04.37.74.75,1.93,1.32,3.88,1.84,5.89l-.06.86c-11.51,6-23.03,11.99-34.54,17.99l-.74-.45c-.44-3.38-.36-5.16,0-8.47.65-.13,1.36-.29,2.14-.49l27.38-15.05c1.16-.5,2.36-.84,3.61-1.02Z"/>
    <path class="cls-77" d="M75.73,21.84l3.7-.73c11.37-.02,22.74,0,34.11.02l3.41.71c.82.36,1.79.55,2.58,1.1-1.32,1.82-4.36,2.58-6.63,2.58l-.21.87c-1.92,1.08-5.91,2.97-7.89,2.44-.65.23-1.33.39-2.06.47-3.65-1.02-7.43-1.14-11.21-.58l-.72-.63-4.32.6c-6.29-.2-12.56-.39-18.82-.59l-.41-.75c2.92-2.73,4.8-3.9,8.47-5.52Z"/>
    <path class="cls-75" d="M132.78,101.71c.35,3.39.41,6.71.37,10.13,0,.62.24,1.64-.37,2.02l-.72-.48c.2-1.49.09-2.68-.33-3.55l-31.06,17.02c-.77.29-1.35-.11-1.75-1.21-.36-1.84-.73-3.69-1.1-5.52l.06-.86c11.39-5.99,22.78-11.99,34.17-17.98l.74.44Z"/>
    <path class="cls-87" d="M95.97,126.74l-.04.86c-15.32,8.56-30.64,17.13-45.95,25.69l-.75-.42c-1.05-1.07-2-2.32-2.94-3.31l-.14-.77c10.1-5.65,20.2-11.3,30.31-16.96l.75.43c.21,1.26,1.32,2.04,2.43,1.14.94-.77.34-2.49.5-3.56.07-.47.37-.78.38-.89l.79.28c4.62-2.31,9.26-4.79,13.56-7.64.38,1.73.76,3.4,1.1,5.15Z"/>
    <path class="cls-42" d="M97.81,138.52l-.04.86c-13.11,7.34-26.22,14.68-39.33,22.02l-.75-.42c-.98-.98-2.34-1.96-3.31-2.94l-.45-1.07c10.51-6.14,21.27-12,32.25-17.59,3.75-2.04,7.71-4.33,10.89-6.74.36,2.16.47,3.82.74,5.89Z"/>
    <path class="cls-54" d="M93.4,13.74c.26,2.95-1.25,6.78,3.13,6.66,3.94-.12,2.52-3.92,2.76-6.66l.97-.18c3.32,2.29,8,2.29,11.31,0l.97.18c.19,2.13-.15,4.46.02,6.61,1.66-.1,2.99.87,4.4,1.49h-41.22c1.41-.63,2.75-1.58,4.4-1.49.17-2.15-.17-4.48.02-6.61l.97-.18c3.32,2.29,8,2.29,11.31,0l.97.18Z"/>
    <path class="cls-48" d="M130.94,92.14c.38,1.46.83,2.93,1.1,4.42l-.08.8c-11.46,6.31-22.96,12.57-34.51,18.77l-.75-.43c-.35-1.74-.87-3.36-1.1-5.15l35.33-18.4Z"/>
    <path class="cls-42" d="M132.78,114.22c-.05,2.43-.42,4.28-.74,6.63l-.42.77c-9.32,4.92-18.64,10.02-27.95,15.31-1.84.92-2.25,1.12-2.91-.62-.22-1.6-.47-3.19-.74-4.78l.07-.83c10.63-5.67,21.28-11.31,31.94-16.91l.74.44Z"/>
    <path class="cls-5" d="M132.04,120.85c-.39,2.92-.84,5.24-1.47,8.1l-.84-.26c-7.92,4.47-15.83,8.96-23.72,13.49-2.03,1.44-3.53,1.69-4.52.76-.18-2.24-.43-4.41-.74-6.63l1.19.68c9.24-4.73,18.09-10.27,27.27-15.1.89-.47,1.75-1.06,2.82-1.04Z"/>
    <path class="cls-41" d="M98.92,151.03l-.49,1.12c-10.68,5.98-21.58,12.1-32.25,18.08l-.75-.42c-.52-.91-2.18-2.75-2.94-3.68l-.4-.79c11.57-6.91,23.41-13.52,35.51-19.83-.19-.41.11-1.18.96-1.09.17,2.18.41,4.3.37,6.63Z"/>
    <path class="cls-71" d="M96.71,130.05c.16.87.23,1.72.37,2.58.21,1.27-.89,1.59-1.73,2.13-12.37,7.96-27.1,14.33-39.87,21.96-.58.34-1.13.44-1.09,1.3-.98-.98-1.97-1.95-2.94-2.94l-.13-.77c14.88-8.23,29.77-16.46,44.66-24.69l.75.43Z"/>
    <path class="cls-71" d="M132.78,113.86c0,.12,0,.25,0,.37l-32.76,17.3c-.33-1.96-.72-3.94-1.1-5.89l1.19.68,32.12-17.6c.84.05.55,4.22.55,5.14Z"/>
    <path class="cls-49" d="M132.78,101.71l-34.97,18.4c-.29-1.46-.8-2.92-1.1-4.42l35.33-19.14c.28,1.51.58,3.61.74,5.15Z"/>
    <path class="cls-56" d="M95.97,126.74c.21,1.07.54,2.23.74,3.31l-45.27,25.03c-.73-.74-1.48-1.47-2.21-2.21l46.74-26.13Z"/>
    <path class="cls-100" d="M98.92,151.03c-.03,1.99-.15,3.56-.37,5.52l-.53,1.08c-9.98,5.58-19.99,11.13-30.01,16.65l-.75-.43c-.34-.84-1.44-3.35-1.84-4.05l33.49-18.77Z"/>
    <path class="cls-49" d="M77.2,132.26l-30.92,17.3c-1.07-1.13-2.24-2.12-3.31-3.31-.12-.26-.26-.69-.09-.81,4.48-2.97,9.69-6.02,14.4-8.7,1.31-1.12,2.43-1.51,3.36-1.17l.75-.33c1.3,1.08,2.03.7,2.2-1.14-.1-.14-.18-.29-.2-.45-.11-.7,10.99-6.22,12.26-6.73.79-.65,1.43-.72,1.93-.19-.22,1.28-.56,4.34-.37,5.52Z"/>
    <path class="cls-41" d="M101.49,142.93c.74.1,1.32-.12,1.98-.4,8.57-3.73,17.4-10.44,25.97-14.52,1.21-.45,1.23-.18,1.13.94-.45,2.05-.91,3.88-1.47,5.89-8.11,4.6-16.25,9.15-24.44,13.64-1.45.9-2.38.89-2.8-.02-.03-1.99-.22-3.6-.37-5.52Z"/>
    <path class="cls-98" d="M75.73,63.06c.3.2.27.83,0,1.1.49,1.09-.11,2.78-1.47,2.58l-1.28,1.14c-16.79,4.85-33.57,9.69-50.35,14.54l-.64-.58c.39-1.23.63-2.07,1.1-3.31l.75-.99c17.09-5.02,34.17-10.04,51.24-15.05l.64.58Z"/>
    <path class="cls-95" d="M98.18,140.36l-.15,2.61c-12.72,6.8-25.04,13.72-36.95,20.74l-.81-.16c-.73-.79-1.77-1.77-2.58-2.58l40.12-22.45c.07.53.29,1.1.37,1.84Z"/>
    <path class="cls-67" d="M75.73,60.49c1.01.52,1.01,1.38,0,2.58l-52.63,15.46c.29-.76.49-2,.74-2.58-.83-.81.1-1.77,1.1-1.47,13.88-4.01,28-8.2,42.35-12.57,2.79-1.04,5.6-1.51,8.44-1.42Z"/>
    <path class="cls-32" d="M98.55,144.41l-.46,1.58c-11.14,6.65-23.36,12.22-34.39,18.96-.52.32-.98.58-1.21,1.18-.71-.86-1.46-1.76-2.21-2.58.82-1.17,2.52-1.91,3.8-2.64,11.06-6.31,22.38-12.21,33.52-18.38l.59-2.17c.14,1.3.26,2.67.37,4.05Z"/>
    <path class="cls-81" d="M57.33,131.89l.09.81c-5.66,3.42-11.33,6.85-17,10.27l-.76-.4c-1.48-1.74-2.72-3.39-4.05-5.15-.04-.87.51-.96,1.09-1.3,5.1-3.05,10.64-5.49,15.73-8.56.52-.31.98-.58,1.21-1.18,1.64.62,3.73,3.77,3.68,5.52Z"/>
    <path class="cls-73" d="M129.1,134.84c-.6,2.14-1.15,3.81-1.84,5.89-7.66,4.62-15.65,8.98-23.97,13.08l-1.43.17c.1-1.76.03-3.74,0-5.52,1.37.12,2.54-.7,3.69-1.28,7.39-3.74,14.58-8.47,21.95-12.28.47-.24,1.24-.82,1.59-.06Z"/>
    <path class="cls-88" d="M98.55,156.55c-.18,1.6-.35,3.22-.74,4.78l-1.15,1.46c-9.19,4.94-18.37,9.88-27.55,14.81l-.74-.44c-.4-1.09-.74-2.41-1.1-3.31l31.29-17.3Z"/>
    <path class="cls-22" d="M104.81,29.2c8.35.49,16.73.39,25.17-.29l.6.66c1.06.1,2.31,1.51,2.21,2.58-.79.44-1.53.74-2.21,1.1-.22,1.31-1.34,1.96-2.58,1.47-10.1.21-20.2.04-30.3-.52l-.99-.58v-.88c1.98-1.54,5.67-4.08,8.1-3.54Z"/>
    <path class="cls-26" d="M101.49,158.39l.49-1c6.88-3.25,13.64-6.9,20.28-10.96,1.5-.8,3.49-1.84,2.78.55-.97,2.48-1.86,4.29-2.94,6.63-.36-.76-1.13-.18-1.59.06-6.41,3.26-12.49,7.28-18.91,10.53l-1.58-.11c.49-1.75,1.23-3.94,1.48-5.7Z"/>
    <path class="cls-8" d="M74.26,66.74c.86.8-.35,2.9-1.47,2.58l-51.9,15.46c.29-1.16.81-2.01,1.1-2.94l52.27-15.09Z"/>
    <path class="cls-61" d="M114.01,54.23c10.76.25,22,.47,32.76-.08l.73.45c.9-.38,1.11-.19.74.74,1.01-.29,1.56.96,1.47,1.84-2.05.56-5.69,1.44-7.73,1.47-.43.2-.86.38-1.31.51s-.89.26-1.33.26c-8.8-.03-17.97-.06-26.53-.61l.08-.89c-1-.21-.98-.76,0-1.1-1-.54.05-2.8,1.1-2.58Z"/>
    <path class="cls-88" d="M127.26,140.73c-.73,2.2-1.36,4.09-2.21,6.26.16-1.06-.39-.86-1.09-.54-6.14,2.79-12.29,7.29-18.41,10.3l-4.06,1.65c.17-1.22.29-3.13.37-4.42,7.65-3.79,14.93-8.3,22.44-12.34.61-.33,2.36-1.55,2.95-.91Z"/>
    <path class="cls-30" d="M90.82,28.1l-.32.82c-3.48.91-6.85,2.39-9.9,4.3l-.82-.33-1.57.64c-3.43.26-10.87.71-13.9.1-1.07-.22-1.94-.39-1.1-1.47-.52-1.35,1.45-4.22,2.94-4.05.26-.27.81-.46,1.1-.74l23.56.74Z"/>
    <path class="cls-83" d="M62.11,33.25c.51,1.2-.52,4.44-1.84,4.78.66.84.19,1.2-.74.74l-.44.74-13.77-.02c-.34.56-.76.81-1.25.76.2-2.58.29-5.14.37-7.73l1.52-.68c2.42-.13,15.23-.56,16.15.25.48.43.46.61,0,1.16Z"/>
    <path class="cls-43" d="M66.16,27.73v.37c-1.11,1.16-2.05,2.71-2.94,4.05.64.92-.18,1.65-1.1,1.1-.26-.85-.95-.71-1.64-.76-5.19-.35-10.79.3-16.03.02.03-.98-.04-1.97,0-2.94-.42-1.45-.3-2.43.35-2.94l20.71.35.66.75Z"/>
    <path class="cls-103" d="M150.45,48.71c-.52.68-1.58.99-3.18.95-.23.79-.52,1.58-.86,2.37-.47.18-.95.34-1.43.46s-.95.22-1.43.22c-9.49.15-19.16.28-28.54-.02-.53-.03-.64-.48-.62-1.03-.69-.4-.33-.57.37-.74-.82-.84-.03-2.37,1.1-2.21,1.13-.42,2.47-.54,4.03-.36l15.92-.52c1-.05,1.88-.06,2.51.87.05.02.18.51.39.56,2.05.54,7.53-2.53,9.71-2.39,1.58.1,1.52,1.08,2.05,1.83Z"/>
    <path class="cls-67" d="M141.98,63.8s-.09.5.07.64c.39.34,7.72-.03,9.13.09.54,1.04-1.89,3.08-2.94,2.94-10.21-.51-20.87-.37-31.2,0l-1.19-.38c-1.02.61-4.39-1.77-4.05-2.94-.15-.33-.12-.62.11-.88,9.84-.63,19.99-.86,29.86-.32l.21.83Z"/>
    <path class="cls-76" d="M64.32,22.94c.67,1.57,1.35,3.14,1.84,4.78l-21.72-.37c-.02.73.03,1.48,0,2.21-.64-1.62-.42-4.06-.37-5.89l-.1-1.71c6.54-.05,13.1.03,19.67.24l.67.74Z"/>
    <path class="cls-60" d="M133.88,42.45c.32.84,1.92,2.81,2.58,3.68l-.38.87c-.96.64-18.58.71-19.13-.08v-1.16c-.96-.12-.89-.38,0-.74-.64-1.67,2.38-5.04,4.05-5.15.11-.31.24-.31.37,0,3.8-2.57,9.59-.36,12.51,2.58Z"/>
    <path class="cls-48" d="M60.64,135.57l-17.67,10.67c-1.11-1.24-2.22-2.41-3.31-3.68l17.67-10.67c1.13-.39,3.58,2.53,3.31,3.68Z"/>
    <path class="cls-26" d="M97.81,161.34c-.48,1.94-1,2.76-1.84,4.42l-1.67,1.77c-8.04,4.46-16.06,8.92-24.09,13.38l-.74-.43c-.43-1.15-.72-2.28-1.1-3.31l29.45-15.83Z"/>
    <path class="cls-69" d="M123.58,75.95l.65-.57c1.7-.79,14.79-.92,14.87-.18l-.43,1.12c-1.12,2.02-1.59,3.48-3.3,5.35-1.91,2.08-3.96,3.08-6.27,4.59-.08-.2-.25-.46-.37-.74-.51-.28-.97-.63-1.29-1.12-1.03-1.58-2.87-5.02-3.63-6.76-.23-.53-.28-1.11-.24-1.69Z"/>
    <path class="cls-86" d="M141.98,58.65v2.58l-.26.73c-9.82-.12-19.65-.24-29.48-.36l-.44-.74c-.84-.8-.05-2.9,1.1-2.94.38.61,1.4.37,2.02.37,8.89.09,18.32.52,27.06.36Z"/>
    <path class="cls-45" d="M95.97,165.75c-1.34,2.63-1.62,3.39-4.22,5.16l-21.54,11.77c-.3-.8-.49-1.53-.74-2.21l26.5-14.72Z"/>
    <path class="cls-40" d="M141.98,61.22v2.58c-1.17-.78-24.84-.13-28.18-.02-.7.02-1.39-.04-2.01.38-.83.65-1.4.29-1.1-.74-.97-.12-.9-.37,0-.74-.88-.74.03-1.91,1.1-1.84l30.18.37Z"/>
    <path class="cls-55" d="M59.54,38.77c.5.85.49,1.98-.05,3.39.06,1.52-.29,2.6-1.05,3.23-.12,0-.25-.01-.37,0-.55.09-.94-.15-1.18-.72l-12.62.34-.56-.72c.18-1.2.14-2.96.37-4.05.04-.2.5-1.48.58-1.5l14.88.03Z"/>
    <path class="cls-106" d="M51.07,17.79c3.39-.07,6.8,0,10.23.23l.81.51c.93,1.63,1.47,2.69,2.21,4.42l-20.25-.37c-.01.37.01.74,0,1.1-.31-.91-.71-3.02-.74-4.05.64-.2,1.45-.2,2.42-.02,1.27-.64,2.55-1,3.84-1.08-.39-.92.74-.97,1.47-.74Z"/>
    <path class="cls-53" d="M146.4,72.63c.79.68,1.38,2.35.74,3.31-2.45-.4-4.74-1.27-7.14-1.87-.34.79-.92,1.5-1.33,2.24.21-1.11-.56-.71-1.27-.74-4.48-.15-9.43-.19-13.82.37-.83.61-1.19.18-.74-.74-1.1.32-2.11-1.31-1.47-2.21l.33-.74c8.08-.12,16.17-.24,24.25-.36l.45.73Z"/>
    <path class="cls-92" d="M132.41,20.37c.04.9-.3,1.88-1.02,2.93-.11,1.36-.5,2.34-1.19,2.95l-1,.68-11.03.12c-2.33.19-4.08-.32-5.26-1.54,2.19-.81,4.38-1.9,6.63-2.58,3.27-.98,9.63-2.68,12.88-2.58Z"/>
    <path class="cls-28" d="M112.54,13.74c-3.56,3.03-9.68,3.03-13.25,0,.32-3.7,5.54-3.99,8.55-3.59,2.45.33,4.47.97,4.7,3.59Z"/>
    <path class="cls-28" d="M93.4,13.74c-3.56,3.03-9.68,3.03-13.25,0,.23-2.61,2.25-3.26,4.7-3.59,3.01-.41,8.23-.11,8.55,3.59Z"/>
    <path class="cls-35" d="M12.42,63.06c1.79-.09,3.09,2.99,1.47,3.68,1.09.32.76,2.23-.37,2.21.98.64.06,2.84-1.1,2.58.75,1.77-1.62,3.22-3.31,3.31-3.43-.31-2.8-3.64-2.02-6.26s2.34-5.27,5.34-5.52Z"/>
    <path class="cls-11" d="M43.71,44.29l13.81-.37.54,1.48c-5.28.45-11.63,3.84-15.83,6.99.68-2.66,1.05-5.39,1.47-8.1Z"/>
    <path class="cls-27" d="M136.46,46.13c.6.79,1.53,1.47,1.84,2.58-1.76-.49-16.82.51-20.45.38-.7-.02-1.39.04-2.01-.38-.78-.88-.17-3.16,1.1-2.94.26.85.95.71,1.64.76,4.68.31,11.13.22,15.87,0,.7-.03,1.35-.18,2.01-.38Z"/>
    <path class="cls-93" d="M132.78,32.15c-.87-.51-1.89-1.63-2.21-2.58-1.24.24-1.55-2.98-.37-3.31.01-2.28.57-4.28,2.21-5.89,4.69.15,4.6,9.43,1.66,11.43-.56.38-1.11.25-1.29.35Z"/>
    <path class="cls-15" d="M30.09,53.86c1.29,1.28,2.94,2.2,4.05,3.68l-.44.76c-4.85.48-10.78.86-15.39-.02-.57-.74-1.21-1.23-1.84-2.21.66-.46,3.95-2.72,4.3-2.56.18.08.33.21.48.35.06-.29.23-.48.51-.57.34-.11,6.46,0,7.17.07l1.15.5Z"/>
    <path class="cls-102" d="M133.88,42.45c-.31.88-.99-.12-1.31-.35-2.55-1.82-5.29-2.68-8.46-2.61-.92.02-1.89.5-2.75.38-.78-1.6,3.97-4.74,5.33-5.24.46-.17.89-.26,1.29.09.84-.49,1.72-1.01,2.58-1.47.77,2.06,1.77,4.01,2.59,6.06.4,1,.41,2.33.72,3.14Z"/>
    <path class="cls-60" d="M151.55,73.37c-1.62.49-6.01,1.29-4.78-1.47-.95-.35-.96-.78,0-1.1-.1-1.08-.06-3.21,1.47-3.31.6-.98,2.07-2.15,2.94-2.94,4.78.42,1.95,6.37.37,8.83Z"/>
    <path class="cls-21" d="M62.11,18.53c-3.25-.09-6.52.13-9.77,0-.71-.03-1.48.38-1.27-.74-.03-.27.1-.39.37-.37-.53-1.21.81-1.57,1.84-1.84-.65-.88.95-2.27,1.84-1.84-.67-.77.41-2.33,1.1-2.94,2.5,1.75,4.41,5.14,5.89,7.73Z"/>
    <path class="cls-29" d="M25.67,72.26c.94.55.39,2.22-.74,2.21-.19.41-.93,1.08-1.1,1.47-4.83-1.25-9.94-.68-14.72-1.1,1.36-.82,2.53-1.91,3.31-3.31,3.91.08,8.14.06,12.19-.05l1.06.79Z"/>
    <path class="cls-16" d="M34.14,57.54c.37.04,1.03.61,1.47.74-.76.79-1.49,1.73-2.21,2.58-4.22-.16-8.63-.16-12.88,0-.77-.91-1.39-1.53-2.21-2.58.38-.61,1.4-.37,2.02-.37,3.81-.05,7.62.06,11.43.02.81,0,1.7-.45,2.38-.38Z"/>
    <path class="cls-10" d="M22.36,63.06c1.08-.28,2.36.74,1.84,1.84,1.02-.29,1.4.81.74,1.47l-.69.89c-3.15.29-6.31.35-9.49.18l-.86-.7c.05-1.4-.22-2.84-1.47-3.68,2.43-.2,8.46.75,9.94,0Z"/>
    <path class="cls-10" d="M30.09,53.86c-2.35.65-5.11.37-7.59.39-.69,0-1.18-.39-1.25-.39-1.3-.32-.38-2.09.74-1.47-.55-.8.41-3.27,1.47-3.31-.86-.67-.41-2,.37-2.58,2.16,2.21,3.98,5.09,6.26,7.36Z"/>
    <path class="cls-50" d="M33.4,60.85c-.06.07.06.3,0,.37.5,1.08-.78,2.2-1.84,1.84-2.83-.28-5.65-.15-8.43.4l-.77-.4c-.74-.82-1.2-1.45-1.84-2.21.26-.84.95-.72,1.64-.76,2.81-.16,6.82-.19,9.61,0,.69.05,1.38-.09,1.64.76Z"/>
    <path class="cls-99" d="M21.99,52.39c-.3.46-.79.74-.74,1.47-.67.01-3.17,2.93-4.78,2.21-.08-.13-.52-.26-.69-.58-.7-1.35-.41-2.11-.05-3.47.95-1.73,6.32-1.85,6.26.37Z"/>
    <path class="cls-38" d="M48.49,13.01c1.83-.76,6.33-1.83,6.63.74-.57.81-1.25,1.23-1.84,1.84-1.32.93-5.61,1.13-6.98.51l-.38-.88c1.15-1.19,1.33-1.29,2.58-2.21Z"/>
    <path class="cls-37" d="M23.46,49.08c-.41,1.49-.62,2.03-1.47,3.31-1.2-1.37-4.64-.79-6.26-.37.4-1.52.92-2.13,1.84-3.31,1.4-.56,4.97-.83,5.89.37Z"/>
    <path class="cls-14" d="M23.83,46.5c.25,1.07-.14,1.75-.37,2.58-1.96-.08-4,.27-5.89-.37,1.11-1.43,3.23-3.83,5.26-3.25.63.18.69.73.99,1.04Z"/>
    <path class="cls-96" d="M56.22,10.8c.19,1.3-.44,2-1.1,2.94-1.44-1.57-4.68-.38-6.63-.74,1.78-1.31,4.39-3.31,6.8-2.95.78.11.73.61.92.74Z"/>
    <path class="cls-62" d="M146.77,71.9c.05.27-.08,1.04,0,1.1.38.33,4.16-.52,4.79.37-.83,1.3-1.67,2.98-3.52,2.97-.53,0-.79-.38-.9-.4-.74-1.06-.79-2.05-.74-3.31-.85-.61-.65-.95.37-.74Z"/>
    <path class="cls-1" d="M53.28,15.58c-.69.71-.97,1.16-1.84,1.84-2.09.31-4.27.32-6.55.05l-.44-.78c.55-.79.95-.93,1.47-1.47,2.29.79,4.96.18,7.36.37Z"/>
    <path class="cls-12" d="M151.55,50.92c.31.94.66,1.49.74,2.58-.98.55-4.65.81-5.15-.37-1.08.48-1.47-.6-.37-1.1-1.15-2.46,3.7-2.39,4.78-1.1Z"/>
    <path class="cls-61" d="M150.45,48.71c.14.21.6.33.83.83.25.53.15,1.01.28,1.38-1.2.18-3.13-.3-4.19.05-.63.21-.51.98-.59,1.05-.12.33-.24.32-.37,0-.59-3.75.84-3.3,4.05-3.31Z"/>
    <path class="cls-100" d="M49.6,18.53c-1.88,1.04-4.2,2.93-6.26,1.1-.03-.91.19-.9.37-1.47.86-1.14,5.64-.97,5.89.37Z"/>
    <path class="cls-3" d="M152.29,53.49c.07,1.1,0,1.29-.37,2.21-1.01-.12-2.04-.2-3.03.13l-.65-.5c-.1-.16-.51-.29-.74-.74-1.15-.01-1.38-.98-.37-1.47,1.69.13,3.59-.36,5.15.37Z"/>
    <path class="cls-17" d="M51.44,17.42c-.13.1-.24.27-.37.37-.57.41-1,.48-1.47.74-1.66-.83-4.02-.16-5.89-.37.26-.82.26-.79.74-1.47l6.99.74Z"/>
    <path class="cls-8" d="M148.24,55.33c.79-.56,4.11-.85,3.68.37-.75,1.93-.78,1.08-2.21,1.47-1-.48-1.07-1.22-1.47-1.84Z"/>
    <path class="cls-63" d="M111.8,64.17c1.19.92,3.09,2.12,4.05,2.94,1.32-.21,3.41,1.71,2.94,2.94,1.43.18,2.98,1.45,2.58,2.94.53.65.97,1.51,1.47,2.21.11.27.23.71.05.81-5.87,3.46-12.26,6.76-18.37,9.62-.91-.11-1.31-.52-1.2-1.22,1.84-2.18,3.86-4.1,6.08-5.89.59-1.51-.46-2.56-2.01-2.01-1.22.44-5.98,5.51-7.01,6.8l-2.47,2.17c-15.19,8.22-30.36,16.42-45.51,24.61l-1.7.09c-1.88-1.89-2.68-6.3-1.84-8.83l.37-.73c15.62-7.5,30.93-15.84,45.94-25.02.89-.12,1.16-.38.8-.75l.62-.84c2.24-.83,4.49-1.54,6.74-2.11l.02-.88c1.44-1.27,2.9-2.32,4.4-3.17-.53-1.11,1.74-4.41,2.94-4.42.36.25.76.47,1.1.74Z"/>
    <path class="cls-2" d="M123.58,75.95c2.05,2.98,3.76,6.23,5.15,9.57-10.94,5.5-21.49,11.81-32.28,17.6l-.85-1.04c.78-7.29,3.03-12.12,7.73-17.67l1.48.58,18.03-9.78c.19.26.55.47.74.74Z"/>
    <path class="cls-57" d="M100.39,83.31c-2.99,3.72-5.39,7.92-6.63,12.51l-.96,1.37c-9.95,5.49-19.91,10.98-29.85,16.47l-1.21-.17-1.13.28c-3-1.11-6.08-1.98-9.23-2.63l-.68-.96,49.69-26.87Z"/>
    <path class="cls-18" d="M92.29,105.76c-.12.51-.24.84-.64,1.19l-21.48,11.82c-1.16.62-2.01.58-2.54-.13l-.82.07c-1.34-1.81-3.16-3.23-5.07-4.38v-.83s32.03-17.67,32.03-17.67c-.96,3.57-1.27,6.27-1.47,9.94Z"/>
    <path class="cls-81" d="M92.29,105.76c-.03.59.16,1.3-.18,1.84-.16.25-3.16,1.9-3.84,2.42-3.17,2.42-7.24,6.81-8.87,10.46l-1.14,1.42c-5.76,2.99-11.52,5.98-17.27,8.97l-.73-.45c-1.63-.12-4.18-3.56-3.68-5.15l.44-.95c2.49-.95,4.97-2.07,6.99-3.85l1.04.02c.66-.06,1.45.17,2.36.7-.16-1.09-.08-1.94.22-2.54l1.98-.4,22.68-12.48Z"/>
    <path class="cls-48" d="M79.41,120.48c-.57,1.29-1.59,4.85-1.84,6.26l-13.99,7.36c-1.18.65-4.33-2.42-3.31-3.68l19.14-9.94Z"/>
    <path class="cls-15" d="M94.87,121.59c.21,1.01-.08.9-.67,1.34-1.19.89-11.75,6.78-12.83,7.06-1.17.3-.85-.2-.85-1.04.35-2.11.4-3.01,1.1-5.15,4.08-2.11,8.13-4.32,12.15-6.63.35,1.48.77,2.9,1.1,4.42Z"/>
    <path class="cls-48" d="M81.62,123.79c1.84-5.57,5.66-10.5,11.04-12.88.24.21.89,5.36,1.11,6.26.04.81-.52.97-1.05,1.34-2.03,1.4-5.28,3.07-7.53,4.25-.83.44-2.73,1.82-3.56,1.04Z"/>
    <path class="cls-90" d="M77.57,67.85c1.63.82,3.79,2.77,4.42,4.42.28-.27.56-.3.9-.2,3.57,1.13,5.9,1.81,9.71,2.13,1.47-.24,2.59-.02,3.37.64,2.24.13-1.7,2.12-1.96,2.27-12.76,7.71-27.93,16.02-41.22,22.82-1.22.63-2.48,1.51-3.93,1.41-1.37-1.42-1.75-5.15-1.1-6.99,9.94-6.06,18.99-15.13,25.03-25.03.62-1.01.92-1.46,1.47-2.58.35-.72,1.3-1.72,1.47-2.58.1-.32.23-.32.37,0,.91.35,2.15,2.87,1.47,3.68Z"/>
    <path class="cls-93" d="M48.86,101.34c.46,2.97.92,5.96,1.84,8.83,3.63,1.09,7.64,1.56,11.04,3.31,1.84.95,4.88,3.36,5.89,5.15,1.68,2.99-.23,4.69-2.58,1.84-.28.12-.62.18-.78-.03-1.9-2.5-8.33-6.22-11.46-5.92-.49.05,2.91,7.93,3.68,9.06l.09,1.68c1.22,2.1,2.27,3.34,3.68,5.15.3.39.48.96.91,1.48.59.71,2.05,1.7,2.4,2.2,1.29,1.83-.53,3.62-2.94,1.47-.94-.84-2.51-2.65-3.31-3.68-1.28-1.64-2.65-3.71-3.68-5.52-2.28-4.02-4.68-10.25-5.89-14.72-1.37-5.06-2.04-10.62-2.58-15.83.83-.45,1.77-.98,2.58-1.47.63,2.26.75,4.67,1.1,6.99Z"/>
    <path class="cls-58" d="M104.81,28.83c.32.1.32.23,0,.37-1.25-.17-6.74,3.56-8.1,4.42l-.38,1.11c-2.34,1.82-4.79,3.29-7.35,4.41-.2,1.15-.98,2.19-2.34,3.11-1.02,1.42-2.2,2.35-3.55,2.78.04,1.11-.54,2.21-1.73,3.31-.58,1.25-1.35,1.99-2.32,2.21.56,1.14-1.02,4.06-2.21,4.42-1.06.29-1.31-.08-.74-1.1-.91.34-2.02-1.03-1.47-1.84-1.11.14-2.72-1.12-2.21-2.21-.65-.53-1.55-1.46-2.21-1.84l-.57-.83c.38-2.42,2.02-7.44,4.25-8.38l-.19-.97c1.01-1.68,4.09-4.63,6.08-4.92,2.5-1.81,8.03-4.23,11.04-4.78,2.15-.39,5.37-.52,7.56-.38,1.78.11,5.14,1.23,6.43,1.12Z"/>
    <path class="cls-47" d="M74.63,52.02l-.04.78-41.11,12.21c-.89.1-2.17.24-2.28-.84-.95-.51-.72-1.09.37-1.1.45-.59,1.41-1.32,1.84-1.84.66.76,2.13.03,2.94-.19,10.84-2.98,21.93-6.32,32.68-9.65,1.08-.34,2.72-.61,3.4-1.57.98.8,1.4,1.31,2.21,2.21Z"/>
    <path class="cls-80" d="M73.89,38.77c-1.66,2.44-3.1,6.31-3.68,9.2-3.28-1.9-8.02-2.79-11.78-2.58.04-1.98.47-4.75,1.1-6.63.07-.2.66-.53.74-.74,4.03.09,8.4.05,12.58-.05l1.04.79Z"/>
    <path class="cls-31" d="M112.9,25.52c5.39,1.6,11.65.34,17.3.74,0,.78.15,2.64.37,3.31-.8.07-1.56.34-2.38.38-6.2.37-14.81.36-21.01,0-1.23-.07-1.95-.69-2.38-.75v-.37c.91-.07,6.51-2.72,8.1-3.31Z"/>
    <path class="cls-7" d="M112.9,56.81c-.09.27.09.83,0,1.1-.28.81-.78,2.15-1.1,2.94-.25.62-.86,1.32-1.1,1.84.05.38-.14.59-.46.73l-33.17-.35c-.2.54-.52.91-.97,1.1h-.37c.06-.32-.03-.75,0-1.1.07-.83-.09-1.76,0-2.58-1.01-.63-.77-2.25.37-2.58-1.01-.47-.72-1.36.37-1.47l.46-.73c11.85.12,23.69.24,35.54.36l.44.74Z"/>
    <path class="cls-39" d="M76.1,57.91c-.15.9-.26,1.67-.37,2.58-16.01,3.81-31.57,9.59-47.48,13.8-.93.25-2.52,1-3.31.19.28-.6.44-1.64.74-2.21-.43-.98-.21-1.18.74-.74,16.32-4.7,32.72-9.48,49.18-14.34l.51.73Z"/>
    <path class="cls-101" d="M96.71,33.62c9.91.96,20.05-.03,30.01.37.71.03,1.48-.38,1.27.74-1.45.84-3.31,2-4.75,3.16-.71.57-1.39,1.22-1.87,1.99-.13-.02-.32.04-.37,0-5.18-.14-10.36-.19-15.55-.16l-.28-.94-.22-.44c5.34-5.73-5.15.57-6.72,1.9l-.79-.35-1.04.33c-2.26-.39-4.55-.49-6.87-.31l-.56-.76c2.65-2.24,4.82-3.69,7.73-5.52Z"/>
    <path class="cls-64" d="M85.3,51.29l.44.69c-1.28,4.13,2.5.04,3.12-1.43h.86s.35-.73.35-.73c8.08.12,16.17.24,24.25.36l.43.74c-.09.25-.28.48-.37.74.99.51.83,2.43-.37,2.58-.28.81-.84,1.82-1.1,2.58l-36.44-.37c-.95-.51-.73-1.49.37-1.47.61-1.78,1.29-2.84,2.21-4.42.69-.88,4.83-.42,5.83-.06l.43.79Z"/>
    <path class="cls-94" d="M146.4,52.02c.13-.02.32.04.37,0-.17.49.3.86.37,1.1.14.5.07.88.37,1.47-.61.42-1.31.36-2.01.38-9.66.34-20.55.31-30.22-.02-.71-.02-1.48.37-1.27-.74.25-.71.17-1.99.37-2.58.61.42,1.31.36,2.01.38,9.98.35,20.04-.29,30.02-.02Z"/>
    <path class="cls-44" d="M79.78,32.88c-1.4,1.02-4.93,4.48-5.89,5.89-3.86-.27-8.17.36-11.97,0-.65-.06-1.27-.12-1.65-.74.58-1.54,1-3.36,1.84-4.78.13-.22.82-.68,1.1-1.1.26.84.95.72,1.64.76,4.87.28,10.03-.25,14.93-.02Z"/>
    <path class="cls-65" d="M116.95,45.03c-.08.16.08.57,0,.74-.58,1.23-.68,1.84-1.1,2.94-.21.54-.86,1.49-1.1,2.21l-25.03-.37c-.62-2.11-1.83-1.81-3.61.9l-.8-.16-6.26-.74c1.33-2.28,2.37-3.55,4.05-5.52,1.26-.57,2.75-.65,4.46-.24,1.4-.23,2.36-.03,2.9.61l.76.33c.12,1.76,1.54,1.31,4.28-1.34l.84.28,2.07-.7c12.08.22,18.11.32,18.11.32l.43.74Z"/>
    <path class="cls-3" d="M148.24,67.48c-.5.81-.7,2.52-1.47,3.31-8.85-.45-17.75-.57-26.7-.34l-1.28-.4c-.78-.81-2.17-2.27-2.94-2.94.61-.42,1.31-.36,2.01-.38,8.84-.27,20.04-.59,28.75,0,.69.05,1.38-.09,1.64.76Z"/>
    <path class="cls-66" d="M105.18,38.77c.61.42,1.31.36,2.01.38,3.25.11,11.1-.66,13.59-.03.41.1.19.71.23.75-1.37,1.68-3.06,3.18-4.05,5.15l-20.61-.37c.29-1.14,1.1-2,2.43-2.6,1.77-1.31,4.33-3.22,6.41-3.29Z"/>
    <path class="cls-52" d="M110.7,62.7c-.08.17.08.58,0,.74-.65,1.3-2.03,3.22-2.94,4.42l-1.32.74c-9.3.02-18.59,0-27.88-.03l-.98-.7c-.81-1.32-1.34-2.02-1.47-3.68-.05-.61.03-1.23,0-1.84l34.6.37Z"/>
    <path class="cls-4" d="M146.77,70.79c.05.28.03.79,0,1.1,0,.09-.35.4-.37.74l-25.03.37c-.79-.97-1.71-2.05-2.58-2.94,9.12-.72,18.48-.37,27.63-.2.35.22.28.6.34.93Z"/>
    <path class="cls-16" d="M13.53,68.95c1.57-.67,13.67-.85,13.69.37l-.44,1.1c.79.68.67.99-.37,1.1-.13.24-.61.49-.74.74-3.74-.26-7.92.35-11.6,0-.65-.06-1.27-.12-1.65-.74.23-.41,1.01-2.2,1.1-2.58Z"/>
    <path class="cls-23" d="M27.88,68.58c.85.92.06,2.1-1.1,1.84.2-.91-.7-.99-1.31-1.07-2.95-.37-6.83,0-9.92-.03-.62,0-1.64.24-2.02-.37.1-.38.35-1.85.37-2.21,3.62-.21,7.52.46,11.04-.37.97-.46,2.95,1.2,2.94,2.21Z"/>
    <path class="cls-33" d="M31.56,63.06c-.25.33-.24.93-.37,1.1.34,1.01-.29,1.39-1.1.74-.7.5-1.69.6-2.95.29-1.26.31-2.24.22-2.94-.29-.54-.59-1.24-1.17-1.84-1.84,2.11-1.07,5.03-.9,7.57-.76.69.04,1.38-.08,1.64.76Z"/>
    <path class="cls-36" d="M30.09,64.9c.79,1.08-.77,3.04-1.84,3.68-.09.32-.21.31-.37,0-.8-.14-2.33-1.55-2.94-2.21-.42-.45-.6-1.32-.74-1.47,1.71-.6,4.16-.6,5.89,0Z"/>
    <path class="cls-70" d="M107.75,67.85c-1.63,2.14-2.12,2.62-4.42,4.05-7.13.24-14.24.36-21.35.37-1.84-1.08-3.31-2.6-4.42-4.42h30.18Z"/>
    <path class="cls-25" d="M103.34,71.9c-2.2,1.37-4.72,2.64-7.36,2.94-4.09.47-10.39-.46-13.99-2.58-.21-1.11.56-.71,1.27-.74,5.77-.23,12.29-.19,18.07-.02.7.02,1.39-.03,2.01.38Z"/>
    <path class="cls-68" d="M65.06,120.48c-2.16,2.26-5.57,3.72-8.47,4.78-2.17-3.75-3.73-7.68-5.15-11.77,4.65.91,10.08,2.33,13.27,6.07.28.32.26.81.35.92Z"/>
    <path class="cls-104" d="M76.83,54.97c-.16.46-.24.99-.37,1.47-.14.53-.27.86-.37,1.47-1.02-.03-1.98.28-2.94.55-14.47,4.07-29.21,9.39-43.72,12.96-.86.21-2.31.92-3.02.11.14-.26.14-.72.37-1.1.33-.56.93-1.1,1.1-1.84.12.02.25-.02.37,0l2.01-1.1c15.54-4.57,30.82-9.11,45.84-13.62.22.38.46.76.74,1.1Z"/>
    <path class="cls-74" d="M74.63,52.02c.78.86.79.62,1.47,1.84.17,1.06-1.91,1.33-2.66,1.57-14.89,4.85-30.17,8.7-45.19,13.15.39-1.13,1.18-2.73,1.84-3.68.17-.24.93-.5,1.1-.74l1.86.2,41.58-12.35Z"/>
    <path class="cls-6" d="M97.45,39.87c.16.24.34.62.18.78-.66.67-6.01,5.09-6.45,5.2l-.72-.46c-1.8.39-5.46-.05-7.36-.37,2.03-2.38,3.47-3.85,5.89-5.89,2.79.16,5.86-.5,8.47.74Z"/>
    <path class="cls-21" d="M97.45,39.87c1.27-.89,7.22-4.72,8.32-4.79,1.36-.08,1.98,1.53,1.15,2.48-.15.17-1.36.96-1.73,1.21-3.02,2.07-5.76,3.59-8.83,5.89-1.86,1.39-5.66,5.39-5.89.74.76-.16,5.73-4.63,6.99-5.52Z"/>
    <path class="cls-21" d="M85.3,51.29c.31-.47,2.43-2.79,2.84-2.89,1.38-.35,2.15.9,1.58,2.15-.2.44-2.05,2.93-2.42,3.28-1.78,1.68-3.71.04-1.99-2.54Z"/>
  </g>
  <g>
    <path class="cls-89" d="M140.93,127.44c4.77.18,9.18,2.52,12.97,5.23.18-.61.13-1.33.11-1.96.21,0,.48.01.57.17.58,1.12-.72,8.51-1.48,9.31-.12.12-.25.22-.4.32l-.34.38c-1.4-.38-2.6-1.32-3.46-2.47-.15,0-2.31,1.25-2.39,1.38-.17.27,1.53,1.93,1.9,2.19,3.37,2.37,6.89,2.47,10.43.38.37-.22,2.54-2.21,2.52-2.46-.01-.14-2.34-1.46-2.5-1.47-.69,1.07-1.36,1.47-2.02,1.2l-.21-.91c.64-2.55.93-5.19.73-7.82l.36-.86c21.33-10.88,31.48,15.46,26.42,32.41-1.88,6.31-5.96,12.23-11.39,15.96-.58.09-1.16.09-1.74,0-.51.37-.98.22-.87-.44-1.24-.02-2.73-1.07-3.27-2.18l-.92-.22c-8.77-5.23-18.04-9.27-27.39-13.33-.57-.25-1.06-.65-1.53-1.05-1.18.26-2.74-.36-3.49-1.31-.43.42-.52.37-.44-.22-.15-.11-.29-.23-.41-.36-.84-.96-1.34-5.82-1.44-7.38-.44-6.44.84-13.12,4-18.77,1.16-2.07,2.72-4.73,4.83-5.74.32-.56.56-.56.87,0Z"/>
    <path class="cls-59" d="M122.41,157.29c.18-.09.36-.17.55-.23,1.12-.32,8.83,1.44,9.73,2.19.15.13.28.28.4.43.1.03.25.16.44.22l.36.28-6.3,18.69c.14.28,2.57,1.01,2.66.9l6.26-18.46.5-.11c10.13,3.82,20.6,9,29.85,14.6l.32.44-2.79,9.37c.07.26,2.48,1,2.64.86l2.6-8.38.49-.12c.2.13.56.22.87.44.45-.08,1.05-.1.87.44,2.69,1.88,8.67,6.48,9.59,9.59-.24.3-.51.61-.87.76-3.45,1.46-8.9,1.93-12.67,2.07-7,.28-14.14-.51-21.06-1.29l-.18-.56,1.07-3.74c-.92-.23-1.84-.44-2.76-.62-.27,1.7-.83,3.24-1.69,4.61-8.72-1.08-17.47-2.38-25.71-5.53-8.21-3.14-13.19-9.26-9.77-18.17l-.36-.35c.57-1.69,1.45-3.29,2.48-4.74l.49.08c.1-1.38,2.06-2.36,3.26-2.96.76-.37,3.66-1.51,4.33-1.35.21.05.35.22.47.38.07-.19.15-.19.22,0,.75-.78,3-.58,3.7.22Z"/>
    <path class="cls-51" d="M110.43,161c-.86,1.04-2.3,3.69-2.61,5.01-.64,2.03-1.2,4.11-1.67,6.22l-.51.31-.61,1.17c-1.4,1.82-4.99,4.91-6.89,6.35-4.43,3.35-9.41,5.41-14.34,1.88-1.03-.73-2.64-2.01-2.57-3.3.64-1.46,1.29-2.41,2.51-3.48.45-.39,2.67-1.7,2.72-1.86.13-.38-.12-.29-.28-.37-2.77-1.45-5.54-2.49-7.31-5.33-2.16-3.48-1.21-8.74,2.36-10.96.06-.19.13-.19.22,0,.06-.41.22-.56.51-.76,1.66-1.11,6.2-1.19,8.17-.81l.47.48c.39-.51.39-1.24,0-2.18-1.02-.49-1.12-2.8-1.12-3.96,0-1.06.01-3.16,1.12-3.45.23-2.34,2.81-3.55,4.9-3.98,10.71-2.24,13.65,10.37,15.23,18.31l-.31.71Z"/>
    <path class="cls-91" d="M140.93,127.44c-.29-.01-.58,0-.87,0l-.99.5c-12.85,1.75-17.16,17.61-16.29,28.72l-.37.63c-1.23-.14-2.46-.31-3.7-.22-.17-13.21-.25-27.24.04-40.54.64-.4.92-.91.84-1.51l.14-.62c3.34-4.07,6.46-8.22,9.37-12.47l.52-.2c-.11-.13.07-.33.22-.44l10.9,14.48c.47,3.83.08,7.79.21,11.67Z"/>
    <path class="cls-105" d="M107.81,166.01c-2.17,9.17,1.11,14.03,9.38,17.53,8.11,3.44,17.36,4.44,26,5.8.25-.05,1.42-4.18,1.45-4.81l3.7.87-1.31,4.35c11.32.78,23.54,2.68,34.43-1.31,1.94,6.58-7.77,7.49-12.09,7.84-8.21.67-18.1-.17-26.33-1.11-9.07-1.04-29.07-3.76-35.11-10.86-1.44-1.69-2-3.4-2.72-5.45-.72-1.79-.61-4.62.44-6.32.31-1.64,1.1-4.01,1.68-5.62.12-.33.16-.71.49-.92Z"/>
    <path class="cls-13" d="M129.6,89.97c.31,3.79.3,7.79.03,11.61-9.31.13-18.62.11-27.92-.06l-.39-.78c-.24-3.61-.5-8.18.47-11.57-2.47-.12-4.93-.17-7.4-.14l-.53-.37c.23-.36.83-.22,1.2-.22,10.68-.11,21.36.1,32.04,0,1.25.11,2.06.29,2.5,1.53Z"/>
    <path class="cls-91" d="M129.82,101.3c-.03.22-.19.34-.22.44l-.41.44-27.23.02c-3.98,4.25-7.61,9.05-10.87,13.9l-.49.24.15-.27c9.15-.2,18.34-.25,27.58-.16l.27.44c-.31-.61.29-1.48.98-1.31,1.34.83-.82,1.52-.89,2.06l.02,39.99c-.07,0-.15,0-.22,0-.72-11.01-.65-22.11,0-33.12-.19-.04-.19-.11,0-.22-.59-2.28-.52-4.6-.19-6.91-5.24.29-10.48.2-15.71-.28-3.99.53-7.99.53-11.98,0-2.96.57-5.98.55-8.97.29.36,1.95.36,4.18.27,6.2-.02.48-.11.83-.67.71.15-2.67-.33-5.52.28-8.11l10.74-13.88c.6-3.42-.57-8.37.31-11.56l.44.2v10.73c2.93-.2,5.84-.07,8.72.4,9.29.03,18.6-.02,27.89,0v-11.55c.09.27.19.3.23.74.22,2.41.27,8.24-.02,10.59Z"/>
    <path class="cls-9" d="M105.2,178.86c-.28.61-3.02,3.19-3.7,3.82-2.81,2.56-7.58,6.33-11.44,6.64-5.73.46-11.35-4.89-8.82-10.67,2.23,3.33,5.98,5.41,10.03,4.47,5.73-1.32,10.24-6.78,14.37-10.57-.19,1.02-.36,2.55-.43,3.6-.07.92.31,2.05,0,2.72Z"/>
    <path class="cls-82" d="M162.67,110.94c3.22-.41,6.67.83,8.64,3.45,1.19,1.58,1.38,2.36.12,4.01-3.18,4.17-9.23,4.8-13.29,1.53-2.16-1.74-3.17-3.26-1.3-5.66,1.3-1.67,3.72-3.06,5.82-3.33Z"/>
    <path class="cls-19" d="M157.71,130.06c.36,3.33.01,6.36-.87,9.59-.19,1.26-3.45,1.95-4.14.87.74-2.53,1.37-5.08,1.53-7.73.04-.59.14-1.59-.23-2.08-.22-5.55-3.77-10.47-4.14-16.02-.23-3.51.77-7.03,2.31-10.15l3.33,1.65c-4.94,8.27,1.3,15.58,2.21,23.86Z"/>
    <path class="cls-79" d="M93.87,88.66c2.59-.41,6.22.31,8.93,0-.71.74-.98,1.24-1.09,2.29-.34,3.33.24,7.18,0,10.56-3.05,0-6.1,0-9.15,0v-11.33c.21-.75.4-1.38,1.31-1.53Z"/>
    <path class="cls-72" d="M90.6,116.55c.17.04.43.11.44.24.09.87.34,6.39.2,6.84l-.43.33c-.04.19-.11.19-.22,0-2.88.45-5.79.59-8.72.41v31.69c-.06.21-.21.41-.43.59-.06.03-.17-.03-.22,0,.19-10.95-.25-21.95,0-32.9,0-.04.22-.34.23-.74.06-2.15-.07-4.31-.02-6.45,3.05,0,6.11.01,9.15,0Z"/>
    <path class="cls-84" d="M172.74,178.43c-.27.19-.52.41-.87.44-.17-.12-.57-.23-.87-.44.34-.37,1.41-.36,1.74,0Z"/>
    <path class="cls-97" d="M140.06,127.44c-8.15,8.21-10.3,21.37-6.97,32.25-3.41-1.09-7.11-2-10.68-2.4-1.4-11.27,3.97-29.46,17.65-29.85Z"/>
    <path class="cls-105" d="M137.01,161.21l-6.43,18.96-.21.18-3.38-1.06,6.54-19.39c1.18.39,2.33.87,3.49,1.31Z"/>
    <path class="cls-97" d="M156.84,139.64c.24-.15.51-.22.76-.43.4-.35.94-1.32,1.28-1.29.45.4,3.09,1.49,2.97,2.03-.08.35-1.89,2.17-2.31,2.49-3.36,2.48-8.09,2.49-11.38-.09-.45-.36-2.39-2.16-2.11-2.71.11-.21,2.83-1.77,3.05-1.76.63,1.15,2.32,2.45,3.61,2.63,1.67.23,2.75-.01,4.14-.87Z"/>
    <path class="cls-105" d="M170.13,177.99l-2.84,9.15-3.47-1.1,3.04-10.23c1.15.69,2.16,1.45,3.27,2.18Z"/>
    <path class="cls-85" d="M118.49,123.96c.05,11.04-.04,22.08,0,33.12-2.72.25-6.3,1.79-8.06,3.92-1.1-5.68-3.41-16.8-9.98-18.46-3.52-.89-8.09-.14-9.85,3.42l-.44-.15v-21.59l.44-.26c.07,0,.15,0,.22,0,6.9-.6,13.86-.69,20.75-.11l6.92.11Z"/>
    <path class="cls-46" d="M90.6,123.96v22.01c-1.06,2.15-.75,5.19,0,7.41.48,1.09.48,1.81,0,2.18-3.32-.28-6.1-.64-9.15,1.09v-32.68c3.05,0,6.1.01,9.15,0Z"/>
    <path class="cls-20" d="M90.6,153.37c.21.63.87,1.33.87,2.07-.02.19-.66.13-.87.11v-2.18Z"/>
    <path class="cls-34" d="M129.6,101.73c-.3,1.05-.6,1.3-1.22,2.16-2.64,3.67-5.91,7.64-8.8,11.13-.34.42-.63.9-.98,1.31h-28c.03-.55.47-1.07.78-1.51,2.41-3.46,6.65-9.06,9.47-12.1.25-.27.7-.85,1.02-.94l27.74-.04Z"/>
    <path class="cls-78" d="M102.58,116.55l.4.1c2.2,2.18,4.38,4.4,6.54,6.65h8.7s.26.43.26.43c0,.07,0,.15,0,.22-9.22.02-18.45-.03-27.67,0l-.22-7.41c3.99-.01,7.99,0,11.98,0Z"/>
    <path class="cls-24" d="M102.58,116.55c5.3,0,10.61,0,15.91,0,0,2.39-.01,4.8,0,7.19h-9.22c-1.83-2.3-4.18-4.14-6.15-6.32-.25-.27-.55-.44-.54-.87Z"/>
  </g>
</svg>