<?xml version="1.0" encoding="UTF-8"?>
<svg id="Layer_15" data-name="Layer 15" xmlns="http://www.w3.org/2000/svg" viewBox="0 0 200 200">
  <defs>
    <style>
      .cls-1 {
        fill: #757575;
      }

      .cls-2 {
        fill: #64b4f5;
      }

      .cls-3 {
        fill: #fea626;
      }

      .cls-4 {
        fill: #ee5350;
      }

      .cls-5 {
        fill: #42a4f4;
      }

      .cls-6 {
        fill: #dfdfdf;
      }

      .cls-7 {
        fill: #feb64d;
      }

      .cls-8 {
        fill: #ededed;
      }

      .cls-9 {
        fill: #e43935;
      }
    </style>
  </defs>
  <path class="cls-8" d="M49.62,24.75c1.13.32,1.16,1.33,0,1.64l.66,2.31c-.24,3.9-.41,10.3,4.32,11.57l56.02-.11c3.39-1.56,4.21-4.5,3.97-8.04l-.13-6.74.78-.62h2.46c9.2.92,11.42,8.07,11.68,16.25.19,6.06.04,12.38-.44,18.3l-.99-.09c-.58.16-1.18-.06-1.82-.65-14.32-.04-28.68-.24-43.07-.58-2.61.04-5.25.21-7.79.55-2.73.36-2.48,4.68.46,4.8h49.51c.91-.33,1.81-.61,2.71-.83l.82.28v35.3l-.82.5c-.58.16-1.18-.06-1.82-.65-16.86-.24-34.58-.44-51.38.09-4.99,5.25,4.62,5.24,8.31,5.08,14.48-.3,28.9-.52,43.26-.67.5-.39.93-.71,1.63-.56.32.08.81.21.83.46.35,4.11.5,9.56.38,13.68l-.8.62-1.39.75c-26.72-.89-31.48,30.68-23.68,50.42l-.36,1.33-.29.82-71.31-.05c-5.87-.9-10.99-5.28-11.24-11.43-.6-40.88.36-81.83.11-122.72,3.15-14.64,18.3-10.41,29.42-10.97Z"/>
  <path class="cls-4" d="M128.36,116.61c1.09-.8,2.46-.86,4.13-.17,2.97.67,7.79,2.36,9,5.09,1.08-.24,2.17.38,3.29,1.87,1.15-1.47,2.24-2.1,3.27-1.87,2.34-1.66,4.66-2.81,7.38-3.69,6.3.32,12.09,6.56,15.09,11.85,11.45,20.22.32,51.55-18.7,63.48-.21.13-.49.16-.79.18s-.62-.01-.94-.06c-.88-.48-2.31-1.42-3.07-2.06s-1.89-2.6-2.46-2.45c-12.41,14.47-28.2,2.31-36.3-9.84l-1.37-.61c-1.64-2.62-3.13-5.34-4.39-8.16l.43-1.08c-8.77-21.31-3.44-54.48,25.43-52.49Z"/>
  <path class="cls-6" d="M145.18,101.85l.11,1.29c-2.77,5.27-3.76,11.07-2.99,17.39l-.8,1.01c-3.83-2.72-8.37-4.59-13.12-4.92l-.41-14.76c-.73-.59-.7-2.67,0-3.28v-36.09c-.73-.59-.7-2.67,0-3.28.68-.43.41-1.56.42-2.25.08-6.18.46-13.67.01-19.71-.49-6.52-4.61-10.67-10.68-12.49,11.08,0,25.13-2.65,27.08,12.08.15,20.92-.24,41.85-.02,62.77,0,.69-.26,1.82.42,2.25Z"/>
  <path class="cls-9" d="M150.1,193.3c11.96-7.32,20.34-20.8,23.17-34.44,3.33-16.08-1.07-34.88-17.84-41.01,23.55-7.63,36.82,14.62,35.26,35.47-1.25,16.76-20.12,51.05-40.59,39.99Z"/>
  <path class="cls-6" d="M102.94,169.1c1.26,3.05,3.49,7.09,5.33,9.84l-77.2-.11c-11.55-2.81-10.83-10.68-10.97-20.4,1.64,5.52,5.44,9.73,11.32,10.62l71.52.04Z"/>
  <path class="cls-2" d="M77.92,5.88c3.21.31,5.74,3.19,7.11,6.05.69,1.45,1.99,4.73,1.01,5.69,3.17-.5,6.45-.47,9.52.56,1.64,0,3.29-.02,4.92,0,8.18,1.14,7.24,12.45-.52,13.89h-44.85c-3.07-.63-5.32-2.44-5.49-5.69.02-.54-.05-1.1,0-1.64.9-10.01,12.84-5.62,19.69-6.56,0-5.59,3.4-10.4,8.61-12.31Z"/>
  <path class="cls-5" d="M115.24,24.75c.18,2.51.37,9.75-.19,11.91-.4,1.53-2.77,3.91-4.31,4.31l-56.31.1c-6.21-2.02-5.03-9.47-4.81-14.67,1.19,2.4,2.77,4.41,5.57,4.89h44.63c7.17-1.79,7.46-10.35.65-13.09,6.13.07,14.15-1.8,14.76,6.56Z"/>
  <path class="cls-7" d="M148.05,121.53c-.74.53-2.88,2.94-3.43,2.84-1.1-.88-1.98-2.02-3.13-2.84-.09-7.13-.7-13.62,3.69-19.68,2.02-2.79,5.14-5.33,8.33-6.64,2.8-1.14,10.35-3.45,10.93,1.14.6,4.73-4.68,3.57-7.66,4.59-9.18,3.16-9.16,12.4-8.73,20.59Z"/>
  <path class="cls-5" d="M95.55,18.18c-3.27-.01-6.56.01-9.84,0-.04-3.32-1.61-7.38-4.1-9.64-1.16-1.06-2.75-1.44-3.7-2.66,8.77-3.21,17.63,3.01,17.63,12.3Z"/>
  <path class="cls-1" d="M127.95,59.19c.54,1.1.51,2.16,0,3.28-.47,1.02-1.55,1.61-2.66,1.65h-49.64c-4.14-.48-4.4-6.15.4-6.59,15.63-1.42,33.39,1.11,49.24.01,1.14.04,2.15.61,2.66,1.65Z"/>
  <path class="cls-1" d="M127.95,98.56c.54,1.1.51,2.16,0,3.28-.47,1.02-1.55,1.61-2.66,1.65-15.86-1.1-33.61,1.43-49.24.01-4.8-.44-4.54-6.11-.4-6.59h49.64c1.14.04,2.15.61,2.66,1.65Z"/>
  <path class="cls-3" d="M49.62,60.84h9.84v19.68h-19.68c0-3.28,0-6.57,0-9.84l.58-.83c4.41-.3,8.13-4.02,8.43-8.43l.83-.58Z"/>
  <path class="cls-3" d="M49.62,100.21h9.84v19.68h-19.68c0-3.28,0-6.57,0-9.84l.58-.83c4.41-.3,8.13-4.02,8.43-8.43l.83-.58Z"/>
  <path class="cls-3" d="M49.62,139.57h9.84v19.68h-19.68c0-3.28,0-6.57,0-9.84l.58-.83c4.41-.3,8.13-4.02,8.43-8.43l.83-.58Z"/>
  <path class="cls-1" d="M74.93,77.33l31.06-.06c3.63.57,3.79,6.06-.38,6.55-9.35,1.08-20.76-.81-30.33-.03-3.46-.54-3.68-5.47-.35-6.45Z"/>
  <path class="cls-1" d="M74.93,116.7c5.45.42,12.7-.88,17.93-.06,3.63.57,3.62,5.95,0,6.51-2.8.44-14.79.44-17.59,0-3.46-.54-3.68-5.47-.35-6.45Z"/>
  <path class="cls-1" d="M74.93,136.38c1.45-.32,10.27-.33,11.72,0,3.22.72,3.2,5.9-.35,6.45-1.74.27-9.77.29-11.37-.06-3.14-.7-3.15-5.68,0-6.39Z"/>
  <path class="cls-1" d="M74.93,156.07c1.45-.32,10.27-.33,11.72,0,3.22.72,3.2,5.9-.35,6.45-1.74.27-9.77.29-11.37-.06-3.14-.7-3.15-5.68,0-6.39Z"/>
  <path class="cls-7" d="M49.62,60.84c.05,5.27-4.58,9.89-9.84,9.84,0-3.28,0-6.57,0-9.84,3.28,0,6.57,0,9.84,0Z"/>
  <path class="cls-7" d="M49.62,100.21c.05,5.27-4.58,9.89-9.84,9.84,0-3.28,0-6.57,0-9.84,3.28,0,6.57,0,9.84,0Z"/>
  <path class="cls-7" d="M49.62,139.57c.05,5.27-4.58,9.89-9.84,9.84,0-3.28,0-6.57,0-9.84,3.28,0,6.57,0,9.84,0Z"/>
</svg>