<?xml version="1.0" encoding="UTF-8"?>
<svg id="Layer_15" data-name="Layer 15" xmlns="http://www.w3.org/2000/svg" viewBox="0 0 200 200">
  <defs>
    <style>
      .cls-1 {
        fill: #feed93;
      }

      .cls-2 {
        fill: #79b490;
      }

      .cls-3 {
        fill: #039da0;
      }

      .cls-4 {
        fill: #029da1;
      }

      .cls-5 {
        fill: #f6bea8;
      }

      .cls-6 {
        fill: #8795da;
      }

      .cls-7 {
        fill: #e16186;
      }

      .cls-8 {
        fill: #29cfb2;
      }

      .cls-9 {
        fill: #fef9e2;
      }

      .cls-10 {
        fill: #049da2;
      }

      .cls-11 {
        fill: #9e1959;
      }

      .cls-12 {
        fill: #019da1;
      }

      .cls-13 {
        fill: #cde8fe;
      }

      .cls-14 {
        fill: #f2e0c0;
      }

      .cls-15 {
        fill: #fe85ad;
      }

      .cls-16 {
        fill: #009da1;
      }

      .cls-17 {
        fill: #d9387d;
      }

      .cls-18 {
        fill: #fbdb45;
      }

      .cls-19 {
        fill: #586db9;
      }

      .cls-20 {
        fill: #009ca1;
      }

      .cls-21 {
        fill: #9bcf69;
      }
    </style>
  </defs>
  <path class="cls-14" d="M28.64,28.36l.78.87-.11,11.26c-.61,10.3,4.94,19.24,15.15,21.27l.33.76.26-.74h61.11l.45.74.12.8c-4.87,2.4-8.64,5.85-11.3,10.33l-1.08.38-1.18.74-14.35-.32c-4.09-.5-7.64.09-10.65,1.76-7.48,11.24,7.66,11.43,15.5,10.46l1.02.74.35,1.32c-2.77,8.94-.08,18.48,6.74,24.84l.34,1.32-1.17.74c-6.56-.36-13.11-.34-19.64.04-2.07.3-3.73,1.49-4.59,3.39-4.22,9.33,10.01,9.4,15.6,8.46l.89.74.32,1.04-1.62,3.49c-.46,2.72-1.22,5.26-2.28,7.64-5.35,3.34-5.25,8.98-4.96,14.61l-.74.71-.47.76c-10.05-.62-9.52,13.1.38,11.85l.47.75c.07-.33.19-.32.37,0l.91,1.13c1.48,8.78,6.56,16.52,13.13,22.38l.44,1.37c-22.71-.02-45.42.02-68.13,0-5.56-.6-9.95-4.92-10.23-10.56l.05-145.91c2.7-10.16,9.4-8.86,17.79-9.13Z"/>
  <path class="cls-21" d="M143,71.81c1.31,1.41,2,3.23,3.14,4.74,7.5-2.87,16.52.41,21.35,6.59,1.33,1.71,2.01,4.4,2.97,5.57.55.68,2.88,1.59,3.9,2.41,5.41,4.3,6.34,10.91,4.2,17.17-.27.79-1.09,1.53-1.21,2.08-.2.9.48,2.6.47,3.58-.02,2.31-.88,5.28-2.15,7.24l-1.01.1c-6.23-4.67-14.42-.16-19.59,4.14l-.94-.16c-1.65.14-3.42-2.68-4.25-4.13-.41-.72-1.4-2.44-1.41-3.14,0-.53.15-.81.46-1.27-.68-.25-.96-1.07-.83-2.45l-2.41-.72-4.09,5.24-.84-.21c-.81,3.09-11.36,6.67-12.87,5.66-.18-.12-.34-.29-.5-.46l-.34-.95c1.75-2.17,2.99-12.71.32-13.8-3.04-1.25-14.08,5.25-15.31,8.88l-1.01.3c-.63.71-1.14.46-1.75-.16-1.75-2.12-3.29-4.4-4.62-6.84-1.57-.08-2.67-.59-3.29-1.54-1.71.9-4.29-1.47-5.57-2.77-3.63-3.7-5.28-9.4-4.16-14.47.4-1.81,1.11-4.59,3.05-5.04-.53-.56-.3-.95.28-1.36l5.22-3.52c.7-2.84,1.42-5.58,3.36-7.87l1.53-.62c.09-2.17,3.94-3.58,5.93-4.17,3.91-1.16,7.15-.82,10.83.68,4.49-4.39,11.17-5.19,16.87-2.62,1.77.8,3.89,1.83,4.24,3.89Z"/>
  <path class="cls-6" d="M115.89,27.99c.32.12.32.25,0,.37l.78.44c.65,2.94.55,14.92-.19,17.88-.92,3.71-3.93,6.48-7.58,7.45-16.46,0-32.96.23-49.52.68-4.73-.04-9.5-.11-14.15-.7-3.66-.47-6.67-3.42-7.8-6.8-.83-2.49-1.27-17-.32-19.03l.8-.3c.6-3.22,2.29-6.07,5.46-7.35,2.33-.94,4.81-.41,6.76-1.78,2.32-1.62,1.67-3.2,2.44-5.36,1.45-4.07,4.59-6.38,8.89-6.7,10.07-.75,21.05.6,31.22,0,4.31.48,6.97,2.79,8.45,6.77.61,1.65.24,2.73,1.55,4.39,1.96,2.47,4.25,1.56,6.87,2.41,3.26,1.05,5.93,4.18,6.32,7.61Z"/>
  <path class="cls-5" d="M37.92,27.99c-.71,3.84-.86,15.95.35,19.52,1.27,3.75,4.95,5.83,8.73,6.12,19.4,1.45,40.59-1.13,60.18,0,3.85-.08,7.99-3.55,8.62-7.34.63-3.74.39-13.88.09-17.92,2.9-.21,5.87-.21,8.91,0,.29,0,.73.07.74.25.21,4.8.46,12.03,0,16.67.22,1.02-.03,1.63-.74,1.83l.72.5c-1.02,5.1-4.32,9.81-8.63,12.67l3.21.38c6.91-3.73,14.76-4.05,22.18-1.09l.71,1.1v11.14c-4.26-4.59-11.8-5.95-17.41-3.11-.87.44-3.4,2.64-3.62,2.69s-3.41-1.27-4.44-1.39c-4.3-.5-9.27,1.03-12.4,4.04l-1.42.74h-8.81l-.55-.74c1.63-2.81,3.07-5.08,5.57-7.24l6.69-4.27h-61.82c-2.62,0-7.63-2.72-9.64-4.47-8.91-7.74-6.02-19.19-6.51-29.69.21,0,.73-.35,1.28-.37,2.66-.09,5.34.07,8,0Z"/>
  <path class="cls-7" d="M111.07,193.97c-10.53-.13-19.46-6.81-24.61-15.71l.1-1.37,1.4-.04c8.04,5.15,17,5.92,26.52,5.6,12.38-.37,24.75-.55,37.09-.53,10.28-1.46,19.83-7.65,24.11-17.28l1.11-.74c.07-.33.19-.32.37,0l.62-.47c3.76.72,7.24.41,10.46-.93l.81.28c-.64,16.13-12.65,29.98-29.13,31.2-15.24,1.13-33.27-.04-48.84-.01Z"/>
  <path class="cls-9" d="M175.67,121.19s.6.9.74,1.11c6.05,6.32,4.18,16.38,2.44,24.15l-.95.72c-2.75,1.06-5.79,1.08-8.54,0l-.67-.7c.59-12.9-17.91-12.64-16.96,0l-.56.7c-2.71.73-5.46.73-8.17,0-1.09-.45-.66-3.25-.43-4.39.18-.84.45-1.76,1.17-2.3-.23-.21-.49-.46-.53-.78-.18-1.65,8.45-14.09,10-14.6.31-.1.64.03.93.15,5.24-4.74,15.23-9.99,21.54-4.08Z"/>
  <path class="cls-14" d="M143,60.67c-5.51-2.39-12.11-3.15-17.9-1.38-1.38.42-3.97,2.03-4.97,2.12-1.47.14-3.99-.82-5.72-.37l4.26-2.98c2.41-2.08,6.14-7.75,6.14-10.94v-18.75h-8.91c0-.12.01-.25,0-.37l18.29.46c3.61.84,6.71,3.37,7.99,6.86,1.8,4.93.83,19.29.83,25.35Z"/>
  <path class="cls-5" d="M83.59,169.09c.95.83,1.58,2.08,1.89,3.75.93,1.46,1.28,2.81,1.08,4.05,3.59,6.89,9.82,12.64,17.26,15.23,2.38.83,4.81,1.26,7.25,1.85-7.3.01-14.61,0-21.91,0-7.41-6.27-13.26-15.05-14.48-24.88,2.61-1.1,6.36-1.2,8.91,0Z"/>
  <path class="cls-19" d="M185.7,147.18c1.21.06,3.04-.3,3.25,1.37.03,4.72.28,9.51.09,14.22-2.35,2.27-7.69,1.56-10.99,1.5-.49,0-.85-.39-.9-.39l-.21-1.5c1.65-4.42,2.25-9.15,2.12-13.86l.69-1.35c1.5-1.14,4.51-1.22,5.94,0Z"/>
  <path class="cls-1" d="M176.42,122.3c7.16,5.7,10.59,15.82,9.28,24.88-1.96-.1-3.97.02-5.94,0-.6.72-1.26.73-1.86,0,2.07-7.91,3.41-17.7-1.49-24.88Z"/>
  <path class="cls-21" d="M35.6,107.18c3.35-.49,13.96-.52,17.32-.06,2.84.39,5.44,2.82,5.8,5.71.44,3.63.41,13.79,0,17.46-.36,3.12-3.07,5.41-6.13,5.76-3.84.43-12.44.36-16.35.01s-6.1-2.83-6.48-6.52c-.38-3.78-.41-12.56.04-16.29.39-3.24,2.56-5.59,5.81-6.07Z"/>
  <path class="cls-21" d="M35.22,66.33c3.03-.52,14.57-.48,17.7-.06,2.84.39,5.44,2.82,5.8,5.71.43,3.51.43,13.96,0,17.47-.38,3.1-3.12,5.41-6.13,5.75-3.84.43-12.44.36-16.35.01s-6.1-2.83-6.48-6.52c-.38-3.78-.41-12.56.04-16.29.35-2.91,2.45-5.57,5.43-6.08Z"/>
  <path class="cls-21" d="M31.74,149.92c1.04-1.04,3.03-1.84,4.5-1.99,3.77-.4,11.77-.34,15.61-.01,3.68.32,6.42,2.3,6.86,6.14.44,3.87.38,12.79.01,16.72-.29,3.1-2.62,5.78-5.77,6.11-4,.43-12.66.38-16.72.01-3.88-.35-6.09-2.69-6.48-6.52s-.37-11.74-.02-15.61c.15-1.67.81-3.67,2.01-4.86Z"/>
  <path class="cls-8" d="M94.36,74.04c.41.81.13,1.73-.83,2.73-3.13,3.02-5.62,6.4-7.5,10.15l-.95.48c-.11.32-.23.32-.37,0-3.98,0-8.97.38-12.81,0-8.74-.88-8.37-12.46-.38-13.36,6.57-.74,15.94,0,22.84,0Z"/>
  <path class="cls-8" d="M92.13,114.88c.12-.99.46-.94.74,0,1.75.23,3.15,2.82,1.87,4.08-4.22,1.81-7.87,4.9-10.13,8.92l-1.03.37c-.11.32-.23.32-.37,0-3.57,0-8.3.38-11.7,0-8.26-.93-7.94-12.51,0-13.37,6-.65,14.33,0,20.61,0Z"/>
  <path class="cls-5" d="M94.73,128.25l-.16,1.12c-4.46,4.31-6.22,10.78-5.54,16.86l-.61.95-.14.5c-1.66-.03-3.16.24-4.49.79-.23,2.37-.36,4.76-.39,7.16l-.92.09c-2.27,1.23-6.17,1.07-8.54,0,.05-4.7-.76-9.17,2.23-13.18.73-.98,2.93-2.39,3.26-3.05.69-1.39,1.16-5.29,1.93-7.35.51-1.35,1.25-2.59,1.87-3.89h.37c3.7-.73,7.44-.73,11.14,0Z"/>
  <path class="cls-5" d="M94.73,87.4c-5.51,7.52-1.99,19.09,6.68,22.28,1.4,1.17,2.1,3.47,1.49,5.2-3.33.73-6.69.73-10.03,0h-.74c-7.98-7.01-10.95-17.31-7.43-27.48h.37c3.21-.73,6.44-.73,9.65,0Z"/>
  <path class="cls-20" d="M82.48,155.72l.74.47.34,6-.71.58c1.1,1.37,1.58,4.83.74,6.31-2.96-.06-5.95.08-8.91,0-.12,0-.25,0-.37,0-1.61-3.83-1.63-9.42-.37-13.37,2.83-.12,5.71.09,8.54,0Z"/>
  <path class="cls-8" d="M73.94,155.72c-.05,4.47-.08,8.93.37,13.37-2.53-.08-4.07.33-6.29-1.32-4.17-3.11-3.14-9.91,1.74-11.57,1.52-.52,2.65-.4,4.17-.47Z"/>
  <path class="cls-2" d="M154.14,125.28c-3.44,3.11-9.1,10.83-10.4,15.22-1.29,2.06-2.47,4.17-3.57,6.35l-.89.34c-1.1.73-2.24.73-3.34,0l-.57-.95c1.27-7.42-1.69-16.03-8.93-19.21l-.53-1c-.95-.93.31-2.56,1.49-2.23,2.99-.19,6.27-1.03,8.93-2.4.89-.46,3.76-2.22,4.44-2.8l.61.85-1.32,4.33,7.98-7.22.9.19c.59,3.34,2.94,6.2,5.2,8.54Z"/>
  <path class="cls-8" d="M127.4,123.79c-.36.66-1.28,1.34-1.49,2.23l-1.03.45c-3.82-1.08-8.2-.46-11.44,1.83-1.39.71-4.09-.4-4.23-1.9-1.31-1.38-.06-6.13.85-7.77l1-.4c2.55-5.04,9.04-8.79,14.46-9.86,1.94-.38,2.77-.17,3.48,1.75,1.52,4.08.46,9.93-1.6,13.67Z"/>
  <path class="cls-20" d="M105.13,74.04c-1.09,1.05-2.3,2.93-2.92,4.32-.48,1.1-1.12,4.25-1.35,4.59-.25.37-4.94,2.83-6.13,4.45-3.21,0-6.44,0-9.65,0,.79-2.47,2.35-4.96,4.07-6.88,2.75-3.06,2.98-2.66,5.21-6.49h10.77Z"/>
  <path class="cls-2" d="M101.41,109.68c1.03.38,3.2.62,3.71.93.9.55,3.57,7.18,5.95,7.61-1.18,2.34-1.77,5.55-1.86,8.17-.53,1-2.95-.04-2.97-1.11-2.1-3.06-3.3-6.68-3.34-10.4-.54-1.71-1.09-3.44-1.49-5.2Z"/>
  <path class="cls-12" d="M140.77,118.59c1-.86,4.26-5.8,4.63-5.85.18-.03,3.4.92,3.49,1.07.27.43-.08,2.18.05,2.92l-9.84,8.91c-.97.07-.39-.15-.27-.64.55-2.16,1.65-4.18,1.94-6.41Z"/>
  <path class="cls-3" d="M116.54,87.1c3.12-.66,3.79,3.83.94,4.33-2.88.51-3.66-3.76-.94-4.33Z"/>
  <path class="cls-3" d="M125.08,107.36c-1.61,1.7-4.94.08-3.8-2.49,1.31-2.94,6.09.09,3.8,2.49Z"/>
  <path class="cls-4" d="M157.21,102.35c1.68-1.77,4.82.22,3.8,2.5-1.33,2.94-6.07-.1-3.8-2.5Z"/>
  <path class="cls-4" d="M151.26,90.66c-1.75-1.75,1.01-5.6,3.26-3.07,2.23,2.51-1.6,4.73-3.26,3.07Z"/>
  <path class="cls-4" d="M136.78,96.6c-2.44-2.43,2.44-5.51,3.8-2.5,1.14,2.52-2.41,3.89-3.8,2.5Z"/>
  <path class="cls-13" d="M74.95,22.51c11.78-2,13.07,13.92,4.2,15.71-12.23,2.48-13.66-14.11-4.2-15.71Z"/>
  <path class="cls-6" d="M88.42,147.18c.78-.21,1.56-.41,2.35-.55s1.57-.27,2.36-.29c13.47-.36,27.01-.03,40.46.35l2.36.5c1.11,0,2.23,0,3.34,0,1.23-.73,2.49-.73,3.71,0,2.72,0,5.45,0,8.17,0,6.03-1.02,12.16-1.04,18.19,0,2.84.01,5.7-.02,8.54,0,.62,0,1.24,0,1.86,0,.31,5.79-.35,11.35-2.6,16.71-.12,0-.25,0-.37,0-2.78.33-5.56.64-8.36.65-27.89.12-55.79.21-83.69.08-.73,0-1.8-1.06-1.89-1.85-.11-2.05-.4-5.23-.37-7.05,0-.05.38-.43.38-.9.02-1.55-.33-5.36.18-6.52.74-1.67,3.81-1.08,5.38-1.12Z"/>
  <path class="cls-15" d="M176.79,163.89c-4.14,10.69-14.99,17.73-26.22,18.89-15.46-.75-32.15,1.18-47.47.04-6.07-.45-11.4-2.89-16.53-5.94-1.42-2.73-2.31-4.74-2.97-7.8-.51-2.33-.62-3.96-.74-6.31l2.02,1.14c30.63.29,61.3-.46,91.92-.02Z"/>
  <path class="cls-18" d="M169.36,147.18c-6.06-.03-12.14,0-18.19,0-1.46-4.12,1.76-9.05,5.68-10.47,7.05-2.55,13.54,3.2,12.52,10.47Z"/>
  <path class="cls-10" d="M143.74,140.5c-.51,1.73-.63,4.81-.74,6.68-1.23,0-2.48,0-3.71,0,.44-1.58,1.47-3.15,2.36-4.5.44-.66,1.19-2.17,2.09-2.18Z"/>
  <path class="cls-12" d="M47.09,116.81c2.26-.69,3.79,1.25,2.66,3.41-.64,1.23-5.83,6.15-7.2,6.2-1.75.06-4.96-3.08-3.84-4.99,1.51-2.59,3.6-.2,4.04-.4,1.02-.46,3.22-3.88,4.35-4.22Z"/>
  <path class="cls-12" d="M47.09,75.97c2.26-.69,3.79,1.25,2.66,3.41-.64,1.23-5.83,6.15-7.2,6.2-2.01.07-6.1-4.06-2.91-5.93,1.84-1.07,2.54.8,3.11.54,1.02-.46,3.22-3.88,4.35-4.22Z"/>
  <path class="cls-16" d="M47.09,157.65c2.26-.69,3.79,1.25,2.66,3.41-.28.53-5.1,5.4-5.7,5.81-3,2.01-7.61-3.95-4.65-5.39,1.59-.77,3.09.51,3.34.4,1.03-.47,3.22-3.88,4.35-4.22Z"/>
  <path class="cls-20" d="M102.9,114.88c1.09,3.47,2.25,6.93,3.34,10.4l-.85.65c-3.36-.26-6.81.52-9.6,2.45l-1.06-.13c-3.71,0-7.43,0-11.14,0,2.14-4.4,6.55-8.33,11.14-10.03-.39-1.28-.98-2.33-1.86-3.34,3.34,0,6.69,0,10.03,0Z"/>
  <path class="cls-17" d="M106.24,125.28c.7.1,2.18.82,2.97,1.11.96.35,2.41,1.46,3.16,1.46.84,0,1.61-.95,2.41-1.27,3.72-1.49,7.28-1.93,11.14-.56,8.36,2.97,11.84,12.99,10.03,21.16-15.74.01-31.83-.43-47.53,0-1.14-6.51,1.08-14.66,6.31-18.94,3.06-2.5,7.61-3.52,11.51-2.97Z"/>
  <path class="cls-11" d="M117.69,132.02c.3.48.05,3.91-.12,4.76-2.43-.38-10.42-5.32-6.34-7.81,1.92-1.18,2.87.79,4.17,1.81.55.43,2.22,1.13,2.29,1.24Z"/>
</svg>