<?xml version="1.0" encoding="UTF-8"?>
<svg id="Layer_15" data-name="Layer 15" xmlns="http://www.w3.org/2000/svg" viewBox="0 0 200 200">
  <defs>
    <style>
      .cls-1 {
        fill: #404040;
      }

      .cls-2 {
        fill: #e2f1fc;
      }

      .cls-3 {
        fill: #fa8864;
      }

      .cls-4 {
        fill: #fefefe;
      }

      .cls-5 {
        fill: #4671c5;
      }
    </style>
  </defs>
  <path class="cls-1" d="M171.66,4.09c12.19.42,22.97,11.15,23.36,23.36v143.51c-.56,12.34-12.27,23.38-24.65,23.17H29.82c-12.98.13-24.91-11.65-24.83-24.64V28.75c-.23-12.24,11.09-24.7,23.53-24.66h143.14Z"/>
  <path class="cls-2" d="M29.56,10.14l140.08-.12c10.47.83,18.69,8.95,19.47,19.47v138.72c-.69,10.75-8.76,18.94-19.47,19.84H30.92c-10.7-.69-18.97-8.78-19.84-19.47l.02-139.44c.91-9.91,8.59-17.83,18.46-18.99Z"/>
  <path class="cls-1" d="M93.71,20.89c21.93-1.48,43.76,5.49,60.15,20.09,1.03.92,6.04,5.76,6.39,6.59.6,1.45.32,2.45-.68,3.58-10.38,11.34-19.4,25.02-29.83,36.18-4.25,4.55-4.4,2.4-7.97-.54-12.13-9.94-28.48-11.17-41.3-1.65-3.54,2.63-6,7.65-10.03,2.18l-30.59-37.28c-.44-.94-.24-1.83.22-2.72.49-.95,5.14-5.37,6.25-6.36,12.63-11.21,30.47-18.95,47.4-20.09Z"/>
  <path class="cls-4" d="M97.13,26.71v7.97c0,2.59,5.93,2.59,5.93,0v-7.97c18.95.67,37.06,8.8,50.39,22.12l-27.24,33.53c-.77.12-3.06-2.1-3.97-2.7-4.51-3.01-8.89-4.92-14.18-6.22l-5.19-20.03c-1.01-2.52-4.55-2.54-5.56,0l-5.19,20.03c-6.58,1.6-12.46,4.73-17.75,8.87l-27.51-33-.13-.48c13.32-13.28,31.46-21.46,50.39-22.12Z"/>
  <path class="cls-3" d="M100.46,67.13l1.11,5.56h-2.96c.34-1.65.63-3.41,1.1-5.02.16-.54-.21-.65.75-.54Z"/>
  <g>
    <path class="cls-5" d="M77.24,175.83c-1.59-1.62-2.47-3.87-3.17-6-3.64-11.16-7.06-25.01-9.78-36.52-.85-3.59-2.11-6.69,1.68-9.2,3.39-2.25,14.92-8.08,18.67-8.98,3.19-.77,6.14-.84,7.86,2.51.78,1.51,2.7,8.5,2.93,10.26.73,5.69-3.06,11.33-3.75,16.77-1.13,8.87,9.57,17.88,5.02,27.85-3.43,7.53-13.67,9.19-19.46,3.3Z"/>
    <path class="cls-5" d="M80.99,109.07c.43,3.47-2.59,4.67-5.14,2.57.39,3.57-2.19,4.41-5.15,3.22,1.12,3.53-1.88,4.41-4.82,3.54,1.64,3.08-2.73,5.45-4.46,2.69-2.03-3.25-.95-7.95,3.49-5.58-.58-3.68,1.19-5.87,4.82-4.18-.44-3.49,1.72-4.46,4.82-3.53-.05-2.48,1.63-4.28,4.2-3.4.87.3.65.96,1.26,1.14-.89-5.52,6.22-7.78,8.45-2.5,2.64,6.21-2.44,10.65-7.48,6.04Z"/>
    <path class="cls-5" d="M119.98,175.83c1.59-1.62,2.47-3.87,3.17-6,3.64-11.16,7.06-25.01,9.78-36.52.85-3.59,2.11-6.69-1.68-9.2-3.39-2.25-14.92-8.08-18.67-8.98-3.19-.77-6.14-.84-7.86,2.51-.78,1.51-2.7,8.5-2.93,10.26-.73,5.69,3.06,11.33,3.75,16.77,1.13,8.87-9.57,17.88-5.02,27.85,3.43,7.53,13.67,9.19,19.46,3.3Z"/>
    <path class="cls-5" d="M116.23,109.07c-.43,3.47,2.59,4.67,5.14,2.57-.39,3.57,2.19,4.41,5.15,3.22-1.12,3.53,1.88,4.41,4.82,3.54-1.64,3.08,2.73,5.45,4.46,2.69,2.03-3.25.95-7.95-3.49-5.58.58-3.68-1.19-5.87-4.82-4.18.44-3.49-1.72-4.46-4.82-3.53.05-2.48-1.63-4.28-4.2-3.4-.87.3-.65.96-1.26,1.14.89-5.52-6.22-7.78-8.45-2.5-2.64,6.21,2.44,10.65,7.48,6.04Z"/>
  </g>
</svg>