<?xml version="1.0" encoding="UTF-8"?>
<svg id="Layer_4" data-name="Layer 4" xmlns="http://www.w3.org/2000/svg" viewBox="0 0 200 200">
  <defs>
    <style>
      .cls-1 {
        fill: #ccccd3;
      }

      .cls-2 {
        fill: #98ebfe;
      }

      .cls-3 {
        fill: #676e74;
      }

      .cls-4 {
        fill: #0093fc;
      }

      .cls-5 {
        fill: #0092fc;
      }

      .cls-6 {
        fill: #99ebfe;
      }

      .cls-7 {
        fill: #12affe;
      }

      .cls-8 {
        fill: #b9b9bf;
      }

      .cls-9 {
        fill: #5ce2fe;
      }
    </style>
  </defs>
  <path class="cls-6" d="M197.38,170.6v2.28c-1.17,2.72-10.02,2.42-11.43.97-1.05-1.08-1.01-3.36.13-4.28.8-.65,7.94-.73,9.2-.49.97.19,1.28,1.13,2.1,1.51Z"/>
  <path class="cls-6" d="M197.38,183.54v1.9c-.51.38-.82,1.23-1.3,1.55-.76.5-7.15.54-8.42.37-3.14-.41-3.51-5.28.39-5.73,2.62-.3,7.98-.66,9.33,1.91Z"/>
  <path class="cls-6" d="M197.38,158.05v2.28c-1.86,2.02-7.11,1.9-9.68,1.5-3.33-.52-3.44-5.25.35-5.69,2.62-.3,7.98-.66,9.33,1.91Z"/>
  <path class="cls-7" d="M79.84,146.26c3.06-.96,6.07-.95,9.13,0,6.97.01,13.96-.07,20.92,0,2.01.28,2.84,1.25,3.03,3.29.49,11.53.42,23.08-.23,34.66.39,4.43.29,8.51-.32,12.22l5.05.11.84.69c-3.14,1.06-6.93.06-10.07-.02-5.51-.14-11.06.05-16.56.02-.37.04-.64-.09-.82-.4l.18-6.81c.26-2.08-.23-3.7-1.47-4.83l-58.37-5.79-.39-.8c-1.2-.35-2.74-.21-3.04-1.72-.25-1.27.72-6.34,1.13-7.79-1.17-2.75,6.06-13.63,7.71-13.75.22-.02.44.01.66.05,0-1.67,3.36-4.7,4.95-4.18.06-.26.13-.52.24-.76,1.11-2.24,10.5-4.21,13.23-4.59,6.64-.93,16.31-.94,23.02-.36l1.16.76Z"/>
  <path class="cls-2" d="M37.23,155.39c-3.47,3.42-7.04,8.99-8.37,13.69L6.46,85.16c-.63-6.17,3.1-6.91,7.57-9.28-.3-1.12,1.32-1.67,1.9-.76l.8.06c7.06,26.42,14.05,52.86,20.96,79.32l-.47.88Z"/>
  <path class="cls-1" d="M91.63,197.23c-19.56-.11-39.13.15-58.7-.08-1.23-.7-1.94-1.8-2.14-3.19-.66-4.66.42-10.57-.03-15.37l58.99,5.88c3.39,1.09,1.31,9.82,1.88,12.76Z"/>
  <path class="cls-9" d="M88.97,146.26c-3.04,0-6.09-.02-9.13,0l-.86-.26-22.01-83.3c-.71-2.22-2.83-3.64-5.07-3.87-1.33.43-1.91.15-1.74-.82.54-1.56,3.03-2.89,4.56-2.28,4.34-1.88,7.41-2.68,10.46,1.9l23.77,88.64Z"/>
  <path class="cls-1" d="M42.94,43.92c.29-.08.74-.13.8.05,1.22,3.54,3.57,11.4,4,14.91l-.62.63c-8.06,5.25-16.8,9.71-25.87,12.93-1.28,1.81-3.11,2.71-5.33,2.66-.61.31-1.3.44-1.9.76-2.42-7.5-4.09-15.21-6.09-22.82,11.25-4.26,23.12-7.25,35-9.13Z"/>
  <path class="cls-1" d="M147.55,152.72c-1.44.75-3.2,1.01-5.26.79,2.61,2.04,2.81,5.53,2.57,8.59-1.84.33-3.73.5-5.68.51l-.52.83c-12.14,3.63-7.45,18.9,4.87,17.04l.6.78c1.2.46.92,3.41.66,4.59-.37,1.69-1.04,2.92-2.31,4.13l4.61.1.84.7-27.01.38c-.18-.52-.35-1.04-.46-1.58s-.21-1.06-.21-1.59c0-10.82,0-21.65,0-32.47,0-.53.1-1.05.21-1.59s.28-1.06.46-1.58l26.63.38Z"/>
  <path class="cls-7" d="M39.51,31.37c2.34,3.67,3.21,8.72,3.8,12.17.53.51.3.73-.38.38-11.65,3.07-23.36,6-35,9.13-1.07-4.06-2.4-8.09-3.42-12.17,11.26-4.36,23.09-7.49,35-9.51Z"/>
  <path class="cls-1" d="M39.51,31.37c-11.65,3.19-23.36,6.27-35,9.51C2.98,34.74-.03,29.41,7.93,26.61c7.13-2.51,16.86-4.75,24.35-6.65,3.78.07,5.27,2.33,6.52,5.62.55,1.45,1.63,4.72.7,5.8Z"/>
  <path class="cls-5" d="M120.92,152.34c.4,12.47.4,26.33,0,38.8-.08,2.49.67,5.7-2.66,6.09-2.49.29-5.44-.21-7.99,0-.03-.59.71-.43,1.1-.99.43-.62.74-1.47.81-2.23-.99-14.21,1.29-30.15,0-44.16-.18-1.96-.81-2.45-2.3-3.6,2.18.02,7.8-.4,9.41.29,2.19.93,1.56,3.88,1.62,5.8Z"/>
  <path class="cls-3" d="M139.18,162.61l4.52-.22c.21-.34.43-.6.68-.62,2.45-.21,6.35-.06,8.5.85.04,1.9-.02,3.81,0,5.71-2.56,1.21-6.14,1.12-8.75,0l-.67.76c-8.51-1.2-8.16,6.63.03,5.32l.64.76c2.61-1.12,6.19-1.21,8.75,0-.02,2.02.04,4.06,0,6.09-2.47,1.14-6.36,1.27-8.75,0-3.91-.13-7.86.06-10.81-3.08-5.18-5.53-1.66-14.95,5.86-15.56Z"/>
  <path class="cls-8" d="M54.73,55.72c-1.55.67-3.04,1.55-4.56,2.28-.52,1.41-1.6,1.97-3.04,1.52l-4.18-15.6c.12-.03.27-.35.38-.38,1.65-1.66,5.25-2.15,7.61-2.28,1.29,4.8,2.9,9.55,3.8,14.46Z"/>
  <path class="cls-4" d="M47.88,29.09c1.15,4,1.97,8.15,3.04,12.17-.23.78-.97.71-1.59.89-1.98.56-4.05.88-6.02,1.4-1.1.23-.69-.54-.87-1.21-.96-3.66-1.89-7.34-2.94-10.97,2.49-1.76,5.33-2.51,8.37-2.28Z"/>
  <path class="cls-8" d="M47.88,29.09c-2.78.78-5.59,1.52-8.37,2.28-1.02-3.55-1.3-8.23-4.82-10.21-.83-.47-1.99-.24-2.41-1.2,5.29-1.35,11.1-3.93,13.77,2.78.7,1.77,1.27,4.4,1.83,6.35Z"/>
  <path class="cls-8" d="M147.55,152.72c5.9.49,5.23,5.52,5.33,9.89-4.45.27-9.29-.36-13.69,0l4.95-.38c.11-2.81.19-5.65-1.89-7.82l-2.3-1.69c2.48.14,5.16-.21,7.61,0Z"/>
  <path class="cls-8" d="M152.88,181.25c-.08,4.03.58,8.91-4.95,9.51-2.51.27-5.43-.2-7.99,0,.32-.64,1.23-.73,1.91-1.32,2.73-2.38,2.32-4.84,2.27-8.19,2.91.1,5.84-.07,8.75,0Z"/>
  <path class="cls-6" d="M167.98,156.23c1.19-.27,7.82-.24,8.77.2,1.72.8,1.83,3.99.24,5.01-.99.64-8.44.65-9.57.14-1.87-.85-1.77-4.81.56-5.34Z"/>
  <path class="cls-6" d="M167.6,169.16c.82-.24,8.16-.24,8.97,0,2.44.71,2.02,4.92-.76,5.55-1.18.26-6.63.25-7.74-.09-2.48-.75-2.61-4.84-.47-5.46Z"/>
  <path class="cls-6" d="M168.36,181.71c1.28-.29,6.88-.24,8,.21,2.08.84,2.54,4.21.38,5.13-1.12.48-8.21.51-9.32,0-2.08-.95-1.64-4.77.94-5.35Z"/>
  <path class="cls-8" d="M152.88,168.32c.02,2.28.02,4.57,0,6.85-2.91-.05-5.84.07-8.75,0-.3-.04-.74-.13-.76-.34-.15-1.21-.14-4.74,0-5.96l.76-.54c2.91-.07,5.84.05,8.75,0Z"/>
  <path class="cls-2" d="M79.84,146.26c-12.16.06-27.11-1.92-37.66,4.95l-.8-.06c-6.91-26.01-13.82-52.02-20.73-78.04l.62-.65c8.61-4.32,17.21-8.72,25.87-12.93,1.02-.49,2.02-1.03,3.04-1.52.41.59,1.26-.04,1.98.07,2.73.43,4.85,1.98,5.64,4.67l22.05,83.51Z"/>
  <path class="cls-9" d="M21.25,72.46l20.92,78.75c-1.33.87-3.77,3.02-4.95,4.18L15.93,75.12c1.77-.91,3.55-1.77,5.33-2.66Z"/>
  <path class="cls-1" d="M144.13,168.32v6.85c-2.57-.06-7.49.75-7.57-3.23-.09-4.42,4.71-3.56,7.57-3.62Z"/>
</svg>