<?xml version="1.0" encoding="UTF-8"?>
<svg id="Layer_4" data-name="Layer 4" xmlns="http://www.w3.org/2000/svg" viewBox="0 0 200 200">
  <defs>
    <style>
      .cls-1 {
        fill: #cee5e5;
      }

      .cls-2 {
        fill: #7fbefe;
      }

      .cls-3 {
        fill: #4da5fe;
      }

      .cls-4 {
        fill: #e5f1f1;
      }

      .cls-5 {
        fill: #80befe;
      }

      .cls-6 {
        fill: #cde9f1;
      }

      .cls-7 {
        fill: #333e73;
      }

      .cls-8 {
        fill: #98dcfe;
      }

      .cls-9 {
        fill: #cfe5e5;
      }

      .cls-10 {
        fill: #1f3259;
      }
    </style>
  </defs>
  <path class="cls-4" d="M111.44,62.83l.76.35v19.06c3.56-.21,7.13-.11,10.62.69,4.17.01,8.35,0,12.52,0,10.23-.93,20.49-.94,30.72,0,1.56,0,1.68,3.84.38,4.17-.13,2.45-.25,4.85-.38,7.2-10.23.94-20.49.93-30.72,0-7.69.82-15.42.97-23.14.57v21.72s-.76.46-.76.46l-.38-22.75h-10.05c-3.73,0-8.98,5.56-9.26,9.32-1.09,21.75,1.33,44.73-.02,66.33-.49,7.84-3.86,15.37-9.87,20.46-4.36,3.69-9.24,5.55-14.8,6.63-2.08-.15-4.41.21-6.45,0-12.83-1.3-23.73-12.81-24.67-25.58v-67.31c1.94-.93,3.78-.94,5.7,0,1.92-.94,3.77-.93,5.69,0v66.55c2.67,20.07,30.74,19.69,32.95-.44l.04-67.07c.09-8.82,10.76-20.27,19.55-20.27h11.19c.38-2.68-.66-19.05.38-20.09Z"/>
  <path class="cls-2" d="M197.15,94.3v23.13l-.35.76c-9.98-.15-19.85-.06-29.61.28v78.11s-.76.47-.76.47h-30.72c-.33-25.95-.33-53.53,0-79.62,9.92-.7,19.86-1.02,29.82-.95.31-7.07.44-14.19.4-21.36l.5-.81.35-.76h29.91l.46.76Z"/>
  <rect class="cls-3" x="166.43" y="117.43" width="30.72" height="79.62"/>
  <path class="cls-3" d="M166.43,37.43c8.71-.95,17.45-.93,26.17,0-.37.37-.38.34-.91.4-3.6.4-7.92-.34-11.61-.02v13.84c6.31,3.7,11.52,8.67,14.48,15.48,1.2,2.77,1.66,5.4,2.59,8.22v7.58c-.03.3-.14.75-.35.76-8.85.24-18.91.4-27.74,0-1.41.26-2.29.01-2.63-.76l-.76-.26v-43.83c-4.16-.44-8.44-.65-12.85-.63l-.42-.77c4.67-.74,9.36-.74,14.03,0Z"/>
  <path class="cls-1" d="M197.15,82.93v11.37h-30.72c-.29-2.39-.32-4.82,0-7.2-.01-1.38.25-2.93-.38-4.17.11-.33.23-.33.38,0h30.72Z"/>
  <path class="cls-2" d="M135.71,197.04h-.38v-79.62c.07-.34.2-.32.38,0v79.62Z"/>
  <path class="cls-4" d="M41.65,2.93c1.04,9.33,1.05,18.73,0,28.06-.04.29-.12.72-.34.76-1.94.34-9.09.21-11.25,0l-.55-.76c.29.04.73.12.76.34.23,1.98.29,8.6,0,10.49l-.76.54c.03-.3.13-.74.34-.76,1.58-.13,10.23-.29,11.25,0l.55.76.76.75c.19,1.65.49,12.73-.13,13.32l-1.77.34-.79.84c-9.11.84-10.55,10.14-10.41,17.64l.19,8.93-.76.64c-11.13-3.57-21.45-14.81-24.54-26.08-2.49-9.06-.71-19.35-1.24-28.7.16-.84,1.27-1.69,1.88-2.29C13.77,19.19,24.66,11.69,33.7,3.13c2.62-.37,5.32-.2,7.96-.2Z"/>
  <path class="cls-1" d="M54.55,84.82l-.76-.67.16-9.11c.19-7.96-1.74-17.21-11.42-17.48l-.88-.8c-.36,1.01-.78,1.01-1.14,0,.46-.46,1.06-.09,1.17-.92.49-3.65-.05-9.54-.03-13.48.03-.3.13-.74.34-.76,1.58-.13,10.23-.29,11.25,0l.55.76c-.3-.03-.74-.13-.76-.34-.11-1.3-.23-9.76,0-10.49l.76-.54c-.03.3-.13.74-.34.76-1.27.09-10.72.2-11.25,0-.29-.11-.43-.46-.55-.76.01-9.35,0-18.71,0-28.06,2.64,0,5.34-.17,7.96.2l29.21,25.01,1.51,1.91c-.46,9.04,1.09,18.9-1.08,27.72-2.87,11.69-13.24,23.32-24.7,27.06Z"/>
  <path class="cls-2" d="M152.4,37.43l14.03.38v45.12h-.38c-10.23,0-20.49.01-30.72,0-.95-12.51,5.33-25.64,17.07-30.71v-14.41c-3.87-.37-8.59.49-12.35.01-.3-.04-.57-.02-.55-.39.08-.3.2-.73.44-.76,2.55-.31,9.32-.29,11.9,0l.55.76Z"/>
  <path class="cls-8" d="M40.52,56.77c.37-.03.76,0,1.14,0l.76.26v46.66l-.76.47c-1.89,0-3.8.01-5.69,0-2.4-.01-4.81,0-7.21,0,.02-6.44-.02-12.9,0-19.34.03-10.21-2.76-27.04,11.76-28.06Z"/>
  <path class="cls-5" d="M54.55,84.82c.03,6.44-.02,12.9,0,19.34-2.4,0-4.81-.02-7.21,0-1.89.01-3.8,0-5.69,0v-47.39c15.66.32,12.85,17.15,12.89,28.06Z"/>
  <path class="cls-7" d="M160.74,26.06c1.89-.75,3.8-.75,5.69,0,1.76-.75,3.55-.75,5.31,0,.07-.34.2-.32.38,0,6.95.01,13.91,0,20.86,0-.29,3.32.38,7.22.02,10.47-.06.53-.03.54-.4.91-.3-.04-.73-.13-.76-.34-.22-1.82-.28-8.36,0-10.09l.76-.56-.35.76h-25.36l-.46-.76c.3.03.74.13.76.34.1,1.15.2,9.52,0,10.09l-.76.56c-4.67,0-9.36,0-14.03,0h-12.89c.25-1.66-.48-10.63.36-11.21.86-.6,18.2-.16,20.88-.17Z"/>
  <path class="cls-7" d="M111.44,62.83c.96-.97,9.43-.06,11.38-.38v20.47c-3.79,0-7.59,0-11.38,0v-20.1Z"/>
  <path class="cls-4" d="M160.74,26.06v-14.41h11.38v14.41c-.13,0-.25,0-.38,0-.18.02-.35.02-.51-.03-.65-.22-.45-12.35-.25-13.55l.76-.44c-.3,1.25-4.79,1.15-5.31,0,.18-.02.35-.02.51.03.65.22.45,12.39.25,13.55l-.76.44c-1.89,0-3.8,0-5.69,0Z"/>
  <path class="cls-7" d="M135.33,94.3l.76.35v22.32l-.76.46c-6.8-.02-16.57.81-22.97.02-.37-.05-.89.13-.93-.4v-22.75c7.96,0,15.93.01,23.89,0Z"/>
  <path class="cls-8" d="M166.05,94.3c.11-.33.23-.33.38,0,.01,6.71.49,14.49.02,21.06-.05.7-.12,1.39-.45,2.02-10.09.08-20.2.08-30.29.05-.13,0-.25,0-.38,0v-23.13c10.23-.01,20.49,0,30.72,0Z"/>
  <path class="cls-6" d="M166.43,94.3h-.38c.22-2.3-.48-5.04.38-7.2.02,2.4,0,4.81,0,7.2Z"/>
  <path class="cls-10" d="M166.43,37.43v-10.99h26.17v10.99c-8.72,0-17.45-.01-26.17,0Z"/>
  <path class="cls-8" d="M41.65,30.99c1.04,3.77,1.05,7.61,0,11.37h-12.14v-11.37h12.14Z"/>
  <path class="cls-2" d="M41.65,30.99h12.14v11.37h-12.14c.02-3.79,0-7.59,0-11.37Z"/>
  <path class="cls-9" d="M166.43,26.06v-14.03h5.31v14.03c-1.77,0-3.54,0-5.31,0Z"/>
</svg>