<?xml version="1.0" encoding="UTF-8"?>
<svg id="Layer_4" data-name="Layer 4" xmlns="http://www.w3.org/2000/svg" viewBox="0 0 200 200">
  <defs>
    <style>
      .cls-1 {
        fill: #c0d8f9;
      }

      .cls-2 {
        fill: #d0e1fc;
      }

      .cls-3 {
        fill: #f993ad;
      }

      .cls-4 {
        fill: #536291;
      }

      .cls-5 {
        fill: #6a7ea9;
      }

      .cls-6 {
        fill: #f4708e;
      }

      .cls-7 {
        fill: #fec76f;
      }

      .cls-8 {
        fill: #818eba;
      }

      .cls-9 {
        fill: #5c66a1;
      }

      .cls-10 {
        fill: #8c96c4;
      }
    </style>
  </defs>
  <path class="cls-8" d="M93.57,77.7c12.57-.52,25.12-.24,37.67.86.29.75.33,1.51.14,2.26l-28,104.75c-4.54,10.97-15.97,7.34-25.41,7.92l.82-.97c14.71-3.27,22.38-20.27,13.21-32.82v-1.3s-1.86-1.1-1.86-1.1c-3.92-4.42-9.24-6.45-15.08-6.65l-1-.83c.74-4.09,1.49-8.19,2.56-12.21,4.25-16.04,8.57-32.09,12.96-48.09,1.1-4.01,2.54-7.92,3.98-11.82Z"/>
  <path class="cls-4" d="M196.49,112.4c.36,20.57.34,41.8,0,62.38l-.27.78h-49.15l-.48-.78c-.22-1.08-.42-2.16-.57-3.25s-.29-2.17-.3-3.26c-.27-16.44-.32-32.93-.02-49.37.02-1.09.16-2.17.31-3.26s.36-2.17.58-3.24l.27-.78h49.15l.48.78Z"/>
  <path class="cls-1" d="M92.01,158.4c10.67,13.61,2.3,31.99-14.04,35.09-16.18-.97-33.9,1.3-49.9,0l-.78-.27v-34.3c.21-2.38,1.71-3.49,4-3.65,5.94-.43,11.87-.61,17.83-.39,11.26.64,22.52.77,33.78.4,3.33.51,6.37,1.55,9.1,3.12Z"/>
  <path class="cls-1" d="M180.9,62.5c-.45,9.17.1,16.93,5.86,24.36,8.4,10.84,9.48,10.85,9.74,25.54h-49.9l-.76-.97c-.19-7.23.87-14.52,5.69-20.26,7.99-7.52,10.89-16.63,9.91-27.51l.75-1.17c.23-.19.46-.37.72-.51.74-.38,14.49-.34,16.54-.18.55.04,1.02.37,1.45.69Z"/>
  <path class="cls-1" d="M196.49,174.78c-.04,2.43.23,5.25,0,7.6-.58,5.92-5.6,10.62-11.48,11.13-8.32.71-19.73.2-28.28-.01-6.58-.39-10.16-5.62-10.89-11.79-.23-1.93-.45-5.61.76-6.93h49.9Z"/>
  <path class="cls-1" d="M99.81,44.95c10.09,1.53,20.1,4.13,29.63,7.8-1.73,6.46-3.62,12.91-5.4,19.37l1.11.91-2.06.55c-9.01-.46-18.01-.85-26.98-1.17l-.98-.56c-.43,1.07-3.03.77-3.12-.39-.29-.11-.71-.34-.66-.55,1.74-7.54,3.92-16.18,6.23-23.55.11-1.47.59-2.27,1.44-2.41.03-1,.29-1,.78,0Z"/>
  <path class="cls-8" d="M85.77,71.07c1.4-1.2,4.89-.87,6.24.39,1.13.05,2.43.36,3.12.39.65,1.85-.01,4.62-1.56,5.85l-.55.76c-5.19-1.36-8.89-.38-11.11,2.95l-18.27,68.15-.88.26c-1.79,1.21-6.04.87-7.8-.39l20.07-74.86c2.17-4.38,6.58-3.59,10.72-3.51Z"/>
  <path class="cls-2" d="M62.77,149.83c3.31-1.22,8.08-1.37,11.31,0,7.96.34,13,2.28,17.93,8.58l-9.15-2.35c-16.58,1.16-35.16-1.5-51.49,0-1.99.18-3.06.83-3.3,2.93v34.51c-3.86-.31-5.91-2.36-6.23-6.24-.22-.22-.42-.45-.57-.7s-.29-.49-.31-.74c-.48-7.53-.23-15.32.35-22.77l.53-.74c-1.2-1.32-1.35-5.02,0-6.24.24-2.96,1.84-5.62,4.97-6.14,7.72-1.3,18.41.76,26.44-.08.55.2,1.43-.41,1.73-.41,2.39.01,5.23.37,7.8.39Z"/>
  <path class="cls-4" d="M104.87,27.02c9.72,2.5,19.49,4.81,29.08,7.78.32.41.08.78,0,1.19-.95,5.15-3.12,11.53-4.52,16.76-9.89-2.52-19.79-5.09-29.63-7.8-.76-.18-1.26-.48-1.12-1.29,1.19-5.71,2.69-11.35,4.49-16.92l1.69.27Z"/>
  <path class="cls-3" d="M155.95,62.5c-8.43-.68-7.91-11.5-.94-12.44,1.33-.18,2.71.08,4.04-.06l4.72-37.38h9.32c.32,2.06.52,4.15.8,6.22-.44.8-1.51,1.08-3.2.84l-3.7,29.41c3.22.05,6.47.18,9.74.39l1.06.54c4.44.12,9.36.25,9.36,6.24l-.36.78-25.75.08c-2.42.58-3.96,2.37-4.24,4.84l-.84.54Z"/>
  <path class="cls-9" d="M146.59,112.4c-.41,20.55-.31,41.81,0,62.38-.64,1.28-5.48,1.22-6.24,0-.33-20.55-.41-41.84,0-62.38.64-1.28,5.48-1.22,6.24,0Z"/>
  <path class="cls-4" d="M21.83,162.3c-.12,7.73-.61,17.41,0,24.95-4.15-.02-8.32.03-12.48,0-.31-.03-.77-.15-.78-.36-.26-8.22-.07-16.79.28-24.95.54-.61,10.78-.52,12.41-.41l.57.78Z"/>
  <path class="cls-2" d="M162.18,62.5c.17,6.93.34,13.28-2.78,19.64-2.6,5.31-7.62,8.58-10.16,14.02-2.77,5.93-2.54,9.92-2.66,16.25h-6.24c.11-5.7-.14-9.77,2.15-15.2,2.64-6.24,8.49-9.96,11.17-16.12,3.06-7.02,1.7-11.56,2.27-18.59,1.38-1.09,4.93-1.22,6.24,0Z"/>
  <path class="cls-9" d="M21.83,156.06c-.16,1.98.03,4.21,0,6.24h-12.48s0,24.95,0,24.95c-2.07-.02-4.16.01-6.24,0v-31.19h18.71Z"/>
  <path class="cls-6" d="M173.88,18.83c1.43,10.37,2.65,20.79,3.9,31.19-3.89-.11-7.81.08-11.7,0l3.92-31.17,3.88-.02Z"/>
  <path class="cls-10" d="M125.15,73.02c4.53.57,7.36,3.04,6.24,7.8-.17-.59.54-1.5-.58-1.56-12.4-.69-24.82-1.15-37.24-1.56.52-1.94.94-3.93,1.56-5.85,9.63.39,20.56-.01,30.02,1.17Z"/>
  <path class="cls-6" d="M187.13,56.26c0,3.8-2.68,5.98-6.24,6.24-5.76.42-12.83.09-18.71,0-2.03-.03-4.26.16-6.24,0,.26-3.22,1.77-5.33,4.97-6.14l26.22-.09Z"/>
  <path class="cls-2" d="M99.03,44.95l-7.02,26.51c-2.07-.08-4.29-.35-6.24-.39,2.27-9.4,4.88-18.75,7.41-28.07,1.16-1.16,5.35.52,5.85,1.95Z"/>
  <path class="cls-9" d="M104.87,27.02c-1.44-.14-.96-.07-1.22.9-1.24,4.61-3.33,10.56-4.08,15.07-.12.74-.28,1.3.23,1.96-.22-.06-.56.06-.78,0-1.77-.49-3.88-1.63-5.85-1.95,1.61-5.96,3.25-11.93,4.68-17.94,2.39.43,4.68,1.35,7.01,1.95Z"/>
  <path class="cls-2" d="M146.59,174.78c.07,4.91-.71,8.29,1.88,12.74,1.98,3.4,4.68,4.69,8.25,5.98-4.43-.11-6.94.35-10.88-2.18-6.28-4.03-5.38-10.03-5.49-16.54h6.24Z"/>
  <path class="cls-5" d="M93.57,77.7c-6.47,24.04-12.83,48.14-19.49,72.12-3.74-.16-7.56.04-11.31,0l18.42-68.71c2.57-5.37,7.75-3.57,12.37-3.42Z"/>
  <path class="cls-7" d="M151.94,124.96l32.64-.06c3.46.54,3.6,5.77-.36,6.22-9.85,1.14-21.87-.85-31.95-.03-3.29-.51-3.5-5.2-.33-6.13Z"/>
  <path class="cls-7" d="M151.94,140.55l32.64-.06c3.46.54,3.6,5.77-.36,6.22-9.85,1.14-21.87-.85-31.95-.03-3.29-.51-3.5-5.2-.33-6.13Z"/>
  <path class="cls-7" d="M151.94,156.15l32.64-.06c3.46.54,3.6,5.77-.36,6.22-9.85,1.14-21.87-.85-31.95-.03-3.29-.51-3.5-5.2-.33-6.13Z"/>
</svg>