<?xml version="1.0" encoding="UTF-8"?>
<svg id="Layer_4" data-name="Layer 4" xmlns="http://www.w3.org/2000/svg" viewBox="0 0 200 200">
  <defs>
    <style>
      .cls-1 {
        fill: #407092;
      }

      .cls-2 {
        fill: #94d5a3;
      }

      .cls-3 {
        fill: #365e7d;
      }

      .cls-4 {
        fill: #90d7f8;
      }

      .cls-5 {
        fill: #b2e49e;
      }

      .cls-6 {
        fill: #8fd7f8;
      }

      .cls-7 {
        fill: #b0e3f8;
      }

      .cls-8 {
        fill: #454b4b;
      }

      .cls-9 {
        fill: #fedf7d;
      }

      .cls-10 {
        fill: #eeebee;
      }

      .cls-11 {
        fill: #fecf64;
      }

      .cls-12 {
        fill: #4e5959;
      }

      .cls-13 {
        fill: #dcd9eb;
      }
    </style>
  </defs>
  <path class="cls-3" d="M41.3,28.11h4.18l-1.11.89c-13.63,1.93-25.61,11.64-31.17,24.13-1.25,2.79-2.83,7.25-2.93,10.27-.48,14.81-.72,29.75-.88,44.57-.1,10.01-.18,20.08.62,30.02,1.49,18.35,16.55,34.46,34.92,36.32,1.85.97-.7,1.26-1.73,1.19l-1.2.7c-3.63-.16-7.28-.49-10.79-1.52l-.92-1.08c-11.85-3.99-22.47-14.98-26.01-26.97l-1.71-7.22v-75.21c2.71-19.35,18.91-35.39,38.73-36.09Z"/>
  <path class="cls-1" d="M45.47,28.11c7.22-.16,14.45-.22,21.69-.16,1.77-1.13,2.07,2.64.72,3.2l-.47,1.01c-4.63,2.06-8.45,5.91-10.32,10.64l-.98.51-1.07.8-10.31-.1c-13.9-.54-25.37,10.04-26.24,23.84-.42,20.3-.32,40.61.3,60.93-1.46,10.49,1.89,20.66,10.86,26.44l.64,1.29c1.89.19,3.82.79,5.8,1.78,7,1.53,14.18,1.95,21.54,1.26l1.14.76c.75-.4,1.55-.65,2.4-.74,16.52.76,32.94.67,49.26-.28l.75.63c12.49.47,23.45-8.25,24.08-21.13.25-8.62.13-17.24-.35-25.86-1.03-13.32,2.36-25.78,13.78-33.48,2.19-1.48,5.56-3.74,8.06-3.1l.5,1.39c-.67,3.73-.56,7.56.31,11.25l-.43,1.41c-6.18.72-11.02,5.36-12.36,11.37-.92,12.53.66,25.74-.17,38.19-.98,14.64-10.99,28.88-25.06,33.62-.12.24-.25.47-.42.67-.91,1.06-8.67,2.39-10.21,1.23-22,.04-44.7.41-64.98.79l-.71-.79,2.28-.38c-12.26-.95-23.78-8.62-30.15-19.03-3.99-6.51-5.89-13.39-6.31-21.03-1.3-23.71.63-48,.5-71.71,2.26-17.73,18.12-33.5,35.97-35.24Z"/>
  <path class="cls-7" d="M119.9,156.12c-1.24,2.93-5.65,3.98-8.73,3.8-.81.14-1.63.33-2.45.4-15.45,1.14-34.17.08-49.95-.02l-.76-.34c-.12-9.1-.25-18.2-.37-27.3l.75-.47c.13-.33.25-.33.38,0l1.28-.53c29.66,4.97,33.35-41.64,3.32-41.66l-1.18-.74c-.43.13-.81.13-1.14,0-.27-.26-.58-.56-.61-.92-.1-1.42,2.93-7.11,3.82-8.69.58-1.03,6.95-9.6,7.46-9.95l1.09-.19.48-.55,3.69.55.89-.89c4.84-.78,9.29-3.22,12.32-7.1l1.21-.36c15.74,6.72,27.04,21.58,28.12,38.92s-.21,36.41-.02,53.96c0,.64-.24,1.69.39,2.08Z"/>
  <path class="cls-7" d="M119.52,173.6c-.06,4.77.62,9.27-1.75,13.63-1.67,3.07-5.65,6.24-9.16,6.79-10.41,1.62-24.45-1.01-35.24.08-9.59.11-21.17,1.37-30.55.02l.35-.76h22.57c-2.42-.35-8.66-8.45-7.45-10.02.13-.17.3-.3.48-.43-.29-.04-.72-.12-.76-.34-.09-.49-.1-5.77,0-6.15l.76-.54c16.62-.11,33.33-.24,50.12-.38,3.56-.33,7.23-.75,10.63-1.9Z"/>
  <path class="cls-5" d="M184.83,54.32l.59.69c-.64,12.07-.79,24.19-.47,36.37l-.5.93c-.11.91-1.31.83-2.14.74-10.79-1.15-22.32-8.54-24.82-19.36,3.95-11.44,15.14-19.6,27.34-19.37Z"/>
  <path class="cls-9" d="M81.93,31.15c11.96,4.27,16.81,19.55,9.49,30.01-3.37,4.82-8.64,7.69-14.43,8.36-22.53-2.56-22.49-36.87,0-39.51.85-1.22,4.67-.29,4.94,1.14Z"/>
  <path class="cls-3" d="M157.11,75.21c.78.72.66.97-.38,1.14-11.73,3.81-20.05,14.37-20.9,26.76-.83,12.07,1.17,25.74.01,37.62-.65,6.69-5.83,14.03-11.76,17.1-3.69,1.91-8.84,3.21-12.92,2.08,3.26-.57,6.06-1.92,8.73-3.8,18.59-13.07,3.24-46.34,12.46-64.83,4.46-8.94,14.61-15.99,24.75-16.08Z"/>
  <path class="cls-12" d="M196.98,91.93c-.62,7.06-11.33,7.36-12.53.38-.06-11.33-.94-25.28-.02-36.3.06-.77.23-1.06.4-1.68,1.85-6.98,11.53-5.87,12.17,1.31.97,10.91.04,25.04-.02,36.29Z"/>
  <path class="cls-6" d="M43.19,175.5c2.39.11,3.97-.02,6.25-.02,19.81.01,39.63.03,59.44.02-.15.01-.81.63-1.28.41l-48.84-.03v7.03c0,2.74,4,8.14,6.57,9.38l4.06,1.82h-26.58c-11.13-1.6-13.24-10.53-12.53-20.51,4.36,1.47,8.4,1.7,12.91,1.9Z"/>
  <path class="cls-2" d="M184.45,92.31l.74,2.09c-.39,5.43-.3,10.82.25,16.18l-.61.72c-12.68-.26-24.39-8.49-27.72-20.89-1.29-4.8-1.42-9.18-.38-14.06.09-.44.28-.78.38-1.14.13-.5.21-1.03.38-1.52,1.12,1.13,1.53,2.9,2.35,4.29,5.02,8.55,12.58,12.74,22.19,14.27.8.13,1.79-.09,2.42.05Z"/>
  <path class="cls-10" d="M58.38,5.7c.39-.63,1.44-.38,2.08-.39,3.96-.05,7.87.33,11.76.4,6.04.12,13.17-.58,19.02-.03,6.57.62,7.89,9.15,2.48,12-.35.19-2.29.93-2.49.93h-9.3v12.54c-1.46-.52-3.39-1-4.94-1.14-.77.2-1.4.2-1.9,0l-.76-.34-.02-10.14c-1.74-.03-3.46-.32-5.13-.85l-.55-.83c-5.29-.3-5.85-8.5-2.01-11.33l-7.27-.14-.97-.68Z"/>
  <path class="cls-8" d="M184.83,111.3c-1.14-4.32-.35-13.99-.38-18.99.74.17,1.79,3.54,4.45,4.09,3.91.8,6.59-.97,8.08-4.47-.03,5.65.53,12.6.01,18.06-.67,7.12-10.41,7.93-12.17,1.31Z"/>
  <path class="cls-13" d="M58.38,5.7c3.33-.36,7.23.26,10.63,0l-2.82,2.3c-2.5,3.36-1.31,8.13,2.45,9.86.61.88-.56,1.5-1.01.58-3.08.07-6.16,0-9.24-.2-2.06-.41-2.83-.64-4.17-2.47-2.79-3.81-.58-9.55,4.17-10.06Z"/>
  <path class="cls-13" d="M68.64,17.85c1.61.06,4.34,1.44,6.46.76v11.4c-2.01.64-4.1,1.17-6.26,1.61l-.96-.47v-3.04c-7.19.52-15.32-.69-22.4,0-1.39.03-2.79-.05-4.18,0l26.58-.38v-9.12c-3.21-.04-6.41.23-9.49-.38,2.98.03,5.98-.05,8.97.03.69.02,1.22-.41,1.28-.41Z"/>
  <path class="cls-6" d="M72.81,69.51l-7.9,10.52c-1.41,3.01-3.4,5.87-3.87,9.23l-.97.89c-21.61,3.38-23.81,35.04-2.57,41.02l.88,1.02.38,28.11c-10.24-.06-19.39,1.63-28.48-3.8l-.76-1.03v-52.77c.5-13.51,5.74-25.57,16.12-34.43,2.14-1.83,9.46-7.29,11.82-7.25.31,0,.61.06.92.13l1.15.29c3.05,3.92,7.64,6.37,12.5,7.19l.78.88Z"/>
  <path class="cls-11" d="M75.09,30.01c.62,0,1.29-.06,1.9,0-21.62,5.16-21.62,34.46,0,39.51-1.97.23-2.18.24-4.18,0-5.57-.66-11.21-3.63-14.43-8.36-3.44-5.05-4.12-12.13-2.28-17.85,1.73-5.36,6.51-10.19,11.77-12.16,2.56-.96,4.5-1.16,7.21-1.14Z"/>
  <path class="cls-10" d="M58.76,132.19c-1.16-.62-1.39-5.86.38-5.7l.94-.55c24.75,3.05,24.44-32.91.04-29.67l-.98-.55c-.81-.59.11-4.93.64-5.56s1.58-.8,2.4-.9c33.05-1.11,28.57,49.7-3.42,42.92Z"/>
  <path class="cls-10" d="M97.87,126.87h8.16c1.85,0,3.97,5.18-.85,5.99-2.2.37-12.8.34-14.51-.5-1.34-.66-2-2.92-1.24-4.24,2.95-4.59,7.05-8.68,9.73-13.43,1.38-2.44,3.88-7.19-.75-7.93-5.84-.92-3.05,5.93-8.32,4.91-3.63-.71-1.01-6.6.86-8.35,5.85-5.48,15.78-1.79,16.05,6.26.22,6.54-6.19,11.98-9.13,17.3Z"/>
  <path class="cls-13" d="M61.04,89.27c.37-.04.76.01,1.14,0-2.81.45-1.96,4.28-3.04,6.46.52.51.29.73-.38.38l-.66,1.04c-12.7,4.97-12.71,22.96,0,27.92l.66,1.04c.55-.52.76-.29.38.38-.85,1.58-.17,3.89-.38,5.7-.12-.03-.26.03-.38,0-23.84-5.7-20.86-40.47,2.66-42.92Z"/>
  <path class="cls-7" d="M72.43,40.64c2.07-.15,3.48,1.2,4.7,2.71,4.52,5.61,1.99,13.4-4.32,15.91-8.88-1.5-10.21-16.09-.38-18.61Z"/>
  <path class="cls-4" d="M72.81,59.26l4.64-4.67c2.81-5.62.49-11.33-5.02-13.94,15.4-3.96,16.43,21.32.38,18.61Z"/>
  <path class="cls-7" d="M59.14,126.49c-.11-.03-.24-.34-.38-.38l-.76-.71v-28.59l.76-.71c.12-.04.26-.35.38-.38,12.67-3.39,23.71,8.65,19.28,21-2.7,7.52-11.58,11.9-19.28,9.77Z"/>
  <path class="cls-6" d="M58.76,96.1v30.01c-14.61-4.81-14.63-25.16,0-30.01Z"/>
</svg>