<?xml version="1.0" encoding="UTF-8"?>
<svg id="Layer_1" data-name="Layer 1" xmlns="http://www.w3.org/2000/svg" xmlns:xlink="http://www.w3.org/1999/xlink" viewBox="0 0 668 512">
  <defs>
    <style>
      .cls-1 {
        fill: #473d46;
      }

      .cls-2 {
        fill: #c67c54;
      }

      .cls-3 {
        fill: url(#linear-gradient-2);
      }

      .cls-4 {
        opacity: .05;
      }

      .cls-5 {
        fill: #ffb0ca;
      }

      .cls-6 {
        fill: #464652;
      }

      .cls-7 {
        fill: #fdb0a8;
      }

      .cls-8 {
        fill: url(#linear-gradient-10);
      }

      .cls-9 {
        fill: #00deca;
      }

      .cls-10 {
        opacity: .3;
      }

      .cls-11 {
        fill: #d3d5e2;
      }

      .cls-12 {
        fill: #bac0e1;
      }

      .cls-13, .cls-14, .cls-15 {
        fill: #fff;
      }

      .cls-16 {
        fill: #72e891;
      }

      .cls-17 {
        fill: #a5b1c7;
      }

      .cls-18 {
        fill: #593028;
      }

      .cls-19 {
        fill: #7494ce;
      }

      .cls-20 {
        fill: #aab2c7;
      }

      .cls-21 {
        fill: url(#linear-gradient-4);
      }

      .cls-22 {
        fill: #c8f4ff;
      }

      .cls-23 {
        fill: #483e56;
      }

      .cls-24 {
        fill: #808393;
      }

      .cls-25 {
        fill: url(#linear-gradient-3);
      }

      .cls-26 {
        fill: url(#linear-gradient-5);
      }

      .cls-27, .cls-28 {
        fill: #606b41;
      }

      .cls-28, .cls-14 {
        opacity: .25;
      }

      .cls-29 {
        fill: #3e364b;
      }

      .cls-30 {
        fill: #98a1d1;
      }

      .cls-31 {
        fill: url(#linear-gradient-8);
      }

      .cls-32 {
        fill: #b6b6d0;
      }

      .cls-33 {
        opacity: .15;
      }

      .cls-34 {
        fill: #4e577c;
      }

      .cls-35, .cls-36 {
        fill: #d0344a;
      }

      .cls-37 {
        fill: #723c35;
      }

      .cls-38 {
        fill: #5f3737;
      }

      .cls-39 {
        fill: #9698af;
      }

      .cls-15, .cls-40 {
        opacity: .1;
      }

      .cls-41 {
        fill: #b5aaba;
      }

      .cls-42 {
        fill: url(#linear-gradient-7);
      }

      .cls-43 {
        fill: url(#linear-gradient-9);
      }

      .cls-44 {
        fill: #e3e6f3;
      }

      .cls-45 {
        fill: #a9b881;
      }

      .cls-46 {
        fill: #6c7294;
      }

      .cls-47 {
        fill: url(#linear-gradient-6);
      }

      .cls-48 {
        fill: #fd4b34;
      }

      .cls-49 {
        fill: #465073;
      }

      .cls-50 {
        fill: #a7a7aa;
      }

      .cls-51 {
        fill: #d11515;
      }

      .cls-52 {
        fill: #474753;
      }

      .cls-53 {
        fill: #eaeaea;
      }

      .cls-54 {
        fill: url(#linear-gradient);
      }

      .cls-55 {
        fill: #db8b5a;
      }

      .cls-56 {
        fill: #fdcfbf;
      }

      .cls-36 {
        opacity: .4;
      }

      .cls-57 {
        fill: #87708a;
      }

      .cls-58 {
        fill: #00657f;
      }

      .cls-59 {
        fill: #657795;
      }

      .cls-60 {
        opacity: .5;
      }

      .cls-61 {
        fill: #d6d9ed;
      }

      .cls-62 {
        fill: #84473d;
      }

      .cls-63 {
        fill: #35333e;
      }

      .cls-64 {
        fill: #7f4949;
      }
    </style>
    <linearGradient id="linear-gradient" x1="537.63" y1="202.18" x2="537.63" y2="172.07" gradientUnits="userSpaceOnUse">
      <stop offset="0" stop-color="#311944"/>
      <stop offset=".04" stop-color="#3a1c49"/>
      <stop offset=".19" stop-color="#572659"/>
      <stop offset=".35" stop-color="#6d2e66"/>
      <stop offset=".52" stop-color="#7c346f"/>
      <stop offset=".72" stop-color="#863774"/>
      <stop offset="1" stop-color="#893976"/>
    </linearGradient>
    <linearGradient id="linear-gradient-2" x1="537.44" y1="220.44" x2="537.44" y2="207.84" xlink:href="#linear-gradient"/>
    <linearGradient id="linear-gradient-3" x1="537.44" y1="220.44" x2="537.44" y2="207.84" xlink:href="#linear-gradient"/>
    <linearGradient id="linear-gradient-4" x1="537.44" y1="220.44" x2="537.44" y2="207.84" xlink:href="#linear-gradient"/>
    <linearGradient id="linear-gradient-5" x1="537.44" y1="220.44" x2="537.44" y2="207.84" xlink:href="#linear-gradient"/>
    <linearGradient id="linear-gradient-6" x1="537.44" y1="220.44" x2="537.44" y2="207.84" xlink:href="#linear-gradient"/>
    <linearGradient id="linear-gradient-7" x1="537.44" y1="220.44" x2="537.44" y2="207.84" xlink:href="#linear-gradient"/>
    <linearGradient id="linear-gradient-8" x1="537.44" y1="220.44" x2="537.44" y2="207.84" xlink:href="#linear-gradient"/>
    <linearGradient id="linear-gradient-9" x1="537.44" y1="220.44" x2="537.44" y2="207.84" xlink:href="#linear-gradient"/>
    <linearGradient id="linear-gradient-10" x1="602.93" y1="173.55" x2="602.93" y2="241.33" gradientUnits="userSpaceOnUse">
      <stop offset="0" stop-color="#893976"/>
      <stop offset=".21" stop-color="#7c346f"/>
      <stop offset=".58" stop-color="#5c285c"/>
      <stop offset="1" stop-color="#311944"/>
    </linearGradient>
  </defs>
  <path class="cls-22" d="M636.22,496.11c4.23-8.05,14.51-31.75,20.28-80.5,7.39-62.43-26.29-103.5-34.5-125.68-8.21-22.18,18.07-69-19.71-115-37.79-46-101.04-45.18-136.36-27.11-35.32,18.07-80.5,36.97-116.65,2.46-36.14-34.5-61.42-50.95-119.59-58.08-60.92-7.47-157.8,31.3-150.93,113.42,6.77,81-50.35,70.3-66.27,147.56-18.86,91.54,28.77,135.17,33.94,142.93h589.79Z"/>
  <g>
    <path class="cls-48" d="M209.8,160.34h0c-2.62-5.34-9.49-6.94-14.2-3.29l-1.04.81-1.04-.81c-4.71-3.65-11.57-2.05-14.2,3.29h0c-1.6,3.26-1.18,7.15,1.08,9.99l14.16,12.28,14.16-12.28c2.26-2.84,2.68-6.73,1.08-9.99Z"/>
    <path class="cls-13" d="M199.55,176.3h0c-.21,0-.39-.14-.44-.34l-3.6-14.33-4.4,12.12c-.07.19-.26.31-.46.3-.2-.02-.37-.17-.41-.37l-1.82-9.48-1.96,4.81c-.07.17-.23.28-.42.28h-14.21c-.25,0-.45-.2-.45-.45s.2-.45.45-.45h13.91l2.42-5.94c.08-.19.26-.3.46-.28.2.02.36.17.4.36l1.8,9.37,4.35-11.97c.07-.19.25-.31.45-.3.2.01.37.15.42.34l3.52,14.02,2.66-10.5c.05-.2.23-.34.44-.34h0c.2,0,.38.14.44.33l1.32,4.9h12.88c.25,0,.45.2.45.45s-.2.45-.45.45h-13.23c-.2,0-.38-.14-.44-.33l-.96-3.56-2.67,10.56c-.05.2-.23.34-.44.34Z"/>
  </g>
  <g>
    <circle class="cls-9" cx="39.57" cy="115.77" r="16.33" transform="translate(-81.01 136.47) rotate(-80.87)"/>
    <path class="cls-48" d="M35.94,102.57c-2.51,0-4.54,2.03-4.54,4.54v6.5h9.09v-6.5c0-2.51-2.03-4.54-4.54-4.54Z"/>
    <path class="cls-13" d="M35.94,124.66c-2.51,0-4.54-2.03-4.54-4.54v-6.5h9.09v6.5c0,2.51-2.03,4.54-4.54,4.54Z"/>
    <path class="cls-48" d="M49.64,112.28c-1.74-1.81-4.61-1.87-6.43-.14l-4.69,4.5,6.29,6.56,4.69-4.5c1.81-1.74,1.87-4.61.14-6.42Z"/>
    <path class="cls-13" d="M33.7,127.56c-1.74-1.81-1.68-4.69.14-6.43l4.69-4.5,6.29,6.56-4.69,4.5c-1.81,1.74-4.69,1.68-6.42-.14Z"/>
  </g>
  <g>
    <g>
      <g>
        <rect class="cls-23" x="412.18" y="124.41" width="236.03" height="320.51" rx="6.54" ry="6.54"/>
        <rect class="cls-46" x="409.26" y="124.41" width="236.02" height="320.51" rx="6.54" ry="6.54"/>
        <polygon class="cls-13" points="633.08 138.76 633.08 373.06 608.89 434.43 421.47 434.43 421.47 138.76 633.08 138.76"/>
        <path class="cls-44" d="M633.08,373.06c0,34.06-24.19,61.37-24.19,61.37,3.39-16.02-7.35-29.45-7.35-29.45,25.75-11.35,31.54-31.92,31.54-31.92Z"/>
        <g>
          <path class="cls-23" d="M549.67,154.41h-45.33c-.53,0-1.01-.32-1.21-.82l-1.96-4.89h-49.44c-1.65,0-3-1.35-3-3v-19.6c0-1.65,1.34-2.99,3-2.99h151.07c1.65,0,2.99,1.34,2.99,2.99v19.6c0,1.65-1.34,3-2.99,3h-49.51l-2.46,4.98c-.22.44-.67.72-1.17.72ZM505.22,151.8h43.64l2.46-4.98c.22-.44.67-.72,1.17-.72h50.32c.22,0,.39-.18.39-.4v-19.6c0-.22-.18-.4-.39-.4h-151.07c-.22,0-.4.18-.4.4v19.6c0,.22.18.4.4.4h50.32c.53,0,1.01.33,1.21.82l1.96,4.88Z"/>
          <path class="cls-44" d="M457.44,120.61h139.68c.68,0,1.23.55,1.23,1.23v5.14c0,.68-.55,1.24-1.24,1.24h-139.68c-.68,0-1.24-.55-1.24-1.24v-5.13c0-.68.56-1.24,1.24-1.24Z"/>
        </g>
        <path class="cls-34" d="M452.63,267.7h-18.92c-.61,0-1.12-.5-1.12-1.12v-18.92c0-.62.5-1.12,1.12-1.12h18.92c.62,0,1.12.5,1.12,1.12v18.92c0,.61-.5,1.12-1.12,1.12ZM434.82,265.47h16.7v-16.69h-16.7v16.69Z"/>
        <path class="cls-34" d="M452.63,310.26h-18.92c-.61,0-1.12-.5-1.12-1.12v-18.92c0-.62.5-1.12,1.12-1.12h18.92c.62,0,1.12.5,1.12,1.12v18.92c0,.61-.5,1.12-1.12,1.12ZM434.82,308.03h16.69v-16.69h-16.69v16.69Z"/>
        <path class="cls-34" d="M452.63,352.82h-18.92c-.61,0-1.12-.5-1.12-1.12v-18.92c0-.62.5-1.12,1.12-1.12h18.92c.62,0,1.12.5,1.12,1.12v18.92c0,.61-.5,1.12-1.12,1.12ZM434.82,350.59h16.69v-16.69h-16.69v16.69Z"/>
        <path class="cls-34" d="M452.63,395.38h-18.92c-.61,0-1.12-.5-1.12-1.12v-18.92c0-.62.5-1.12,1.12-1.12h18.92c.62,0,1.12.5,1.12,1.12v18.92c0,.62-.5,1.12-1.12,1.12ZM434.82,393.15h16.69v-16.69h-16.69v16.69Z"/>
        <rect class="cls-24" x="468.88" y="247.66" width="156.43" height="6.73"/>
        <rect class="cls-50" x="468.88" y="259.86" width="68.49" height="6.73"/>
        <rect class="cls-24" x="468.88" y="290.22" width="104.65" height="6.73"/>
        <rect class="cls-50" x="468.88" y="302.41" width="132.28" height="6.74"/>
        <rect class="cls-24" x="468.88" y="332.78" width="141.38" height="6.73"/>
        <rect class="cls-50" x="468.88" y="344.97" width="131.02" height="6.73"/>
        <rect class="cls-24" x="468.88" y="375.34" width="129.14" height="6.73"/>
        <rect class="cls-50" x="468.88" y="387.53" width="141.38" height="6.73"/>
        <path class="cls-16" d="M446.79,263.7c-.4,0-.77-.16-1.05-.44l-9.54-9.54c-.58-.58-.58-1.52,0-2.1.58-.58,1.52-.58,2.1,0l8.49,8.49,21.28-21.27c.58-.58,1.52-.58,2.1,0,.58.58.58,1.52,0,2.1l-22.33,22.33c-.28.27-.66.44-1.05.44Z"/>
        <path class="cls-16" d="M446.79,306.24c-.4,0-.77-.16-1.05-.44l-9.54-9.54c-.58-.58-.58-1.52,0-2.1.58-.58,1.52-.58,2.1,0l8.49,8.49,21.28-21.27c.58-.58,1.52-.58,2.1,0,.58.58.58,1.52,0,2.1l-22.33,22.33c-.28.27-.66.44-1.05.44Z"/>
        <path class="cls-16" d="M446.79,348.78c-.4,0-.77-.16-1.05-.44l-9.54-9.54c-.58-.58-.58-1.52,0-2.1.58-.58,1.52-.58,2.1,0l8.49,8.49,21.28-21.27c.58-.58,1.52-.58,2.1,0,.58.58.58,1.52,0,2.1l-22.33,22.33c-.28.27-.66.44-1.05.44Z"/>
      </g>
      <g>
        <g>
          <g>
            <path d="M528.29,172.07l-7.99,30.11h-7.77l-4.21-16.61-3.98,16.61h-8.1l-8-30.11h8.7l4.21,17.33,4.11-17.33h7.26l4.47,17.36,4.22-17.36h7.07Z"/>
            <path d="M556.77,172.07v30.11h-9.24v-11.71h-7.06v11.71h-9.24v-30.11h9.24v11.07h7.06v-11.07h9.24Z"/>
            <path d="M587,172.07l-9.42,17.36v12.75h-8.98v-12.75l-10.13-17.36h10.11l5.28,9.93,5.06-9.93h8.08Z"/>
          </g>
          <g>
            <path class="cls-54" d="M528.29,172.07l-7.99,30.11h-7.77l-4.21-16.61-3.98,16.61h-8.1l-8-30.11h8.7l4.21,17.33,4.11-17.33h7.26l4.47,17.36,4.22-17.36h7.07Z"/>
            <path class="cls-54" d="M556.77,172.07v30.11h-9.24v-11.71h-7.06v11.71h-9.24v-30.11h9.24v11.07h7.06v-11.07h9.24Z"/>
            <path class="cls-54" d="M587,172.07l-9.42,17.36v12.75h-8.98v-12.75l-10.13-17.36h10.11l5.28,9.93,5.06-9.93h8.08Z"/>
          </g>
        </g>
        <g>
          <g>
            <path d="M495.74,215.59l3.43.21c-.16,1.5-.72,2.65-1.66,3.45-.95.8-2.11,1.2-3.49,1.2-1.66,0-3-.55-4.02-1.65-1.02-1.1-1.53-2.62-1.53-4.55s.48-3.46,1.45-4.64c.97-1.18,2.32-1.76,4.05-1.76,1.62,0,2.86.45,3.73,1.34.87.9,1.36,2.08,1.47,3.56l-3.5.19c0-.82-.16-1.41-.47-1.77s-.68-.55-1.11-.55c-1.18,0-1.77,1.19-1.77,3.56,0,1.33.15,2.24.46,2.71.31.48.74.72,1.29.72.99,0,1.55-.67,1.67-2.02Z"/>
            <path d="M510.91,208.03v12.22h-3.75v-4.76h-2.87v4.76h-3.75v-12.22h3.75v4.5h2.87v-4.5h3.75Z"/>
            <path d="M518.32,220.44c-1.72,0-3.12-.57-4.2-1.71-1.08-1.14-1.63-2.67-1.63-4.58s.52-3.34,1.55-4.53c1.04-1.19,2.47-1.79,4.31-1.79,1.7,0,3.09.56,4.16,1.68,1.07,1.12,1.61,2.62,1.61,4.5s-.54,3.5-1.62,4.67c-1.08,1.17-2.47,1.76-4.18,1.76ZM518.3,217.67c.63,0,1.09-.28,1.37-.83.28-.55.42-1.56.42-3.03,0-2.13-.57-3.19-1.71-3.19-1.23,0-1.84,1.21-1.84,3.64,0,2.28.59,3.41,1.77,3.41Z"/>
            <path d="M530.99,220.44c-1.72,0-3.12-.57-4.2-1.71-1.08-1.14-1.63-2.67-1.63-4.58s.52-3.34,1.55-4.53c1.04-1.19,2.47-1.79,4.31-1.79,1.7,0,3.09.56,4.16,1.68,1.07,1.12,1.61,2.62,1.61,4.5s-.54,3.5-1.62,4.67c-1.08,1.17-2.47,1.76-4.18,1.76ZM530.97,217.67c.63,0,1.09-.28,1.37-.83.28-.55.42-1.56.42-3.03,0-2.13-.57-3.19-1.71-3.19-1.23,0-1.84,1.21-1.84,3.64,0,2.28.59,3.41,1.77,3.41Z"/>
            <path d="M537.12,216.72l3.48-.63c.29.98,1.04,1.48,2.26,1.48.94,0,1.41-.25,1.41-.75,0-.26-.11-.47-.33-.61-.22-.15-.61-.28-1.17-.39-2.14-.41-3.52-.95-4.13-1.61-.61-.66-.91-1.44-.91-2.34,0-1.15.44-2.11,1.31-2.88.87-.76,2.13-1.15,3.78-1.15,2.49,0,4.13,1,4.93,3l-3.11.94c-.32-.82-.98-1.23-1.96-1.23-.82,0-1.23.25-1.23.76,0,.23.09.4.28.53.19.12.54.24,1.08.36,1.46.31,2.5.58,3.12.82.62.24,1.13.65,1.54,1.22.41.58.62,1.26.62,2.04,0,1.24-.5,2.24-1.5,3.01-1,.77-2.32,1.15-3.95,1.15-2.98,0-4.82-1.24-5.52-3.73Z"/>
            <path d="M558.72,217.33v2.92h-9.2v-12.22h9.2v2.82h-5.52v1.77h4.46v2.71h-4.46v2h5.52Z"/>
            <path d="M574.71,208.03v8.1c0,1.53-.46,2.64-1.37,3.31-.91.67-2.1,1.01-3.56,1.01-1.54,0-2.78-.32-3.71-.97s-1.4-1.7-1.4-3.15v-8.29h3.82v7.85c0,.59.12,1.01.37,1.28s.64.4,1.18.4c.45,0,.82-.1,1.11-.29.29-.19.46-.41.52-.66.06-.24.09-.72.09-1.43v-7.16h2.96Z"/>
            <path d="M575.45,216.72l3.48-.63c.29.98,1.04,1.48,2.26,1.48.94,0,1.41-.25,1.41-.75,0-.26-.11-.47-.33-.61-.22-.15-.61-.28-1.17-.39-2.14-.41-3.52-.95-4.13-1.61-.61-.66-.91-1.44-.91-2.34,0-1.15.44-2.11,1.31-2.88.87-.76,2.13-1.15,3.78-1.15,2.49,0,4.13,1,4.93,3l-3.11.94c-.32-.82-.98-1.23-1.96-1.23-.82,0-1.23.25-1.23.76,0,.23.09.4.28.53.19.12.54.24,1.08.36,1.46.31,2.5.58,3.12.82.62.24,1.13.65,1.54,1.22.41.58.62,1.26.62,2.04,0,1.24-.5,2.24-1.5,3.01-1,.77-2.32,1.15-3.95,1.15-2.98,0-4.82-1.24-5.52-3.73Z"/>
          </g>
          <g>
            <path class="cls-3" d="M495.74,215.59l3.43.21c-.16,1.5-.72,2.65-1.66,3.45-.95.8-2.11,1.2-3.49,1.2-1.66,0-3-.55-4.02-1.65-1.02-1.1-1.53-2.62-1.53-4.55s.48-3.46,1.45-4.64c.97-1.18,2.32-1.76,4.05-1.76,1.62,0,2.86.45,3.73,1.34.87.9,1.36,2.08,1.47,3.56l-3.5.19c0-.82-.16-1.41-.47-1.77s-.68-.55-1.11-.55c-1.18,0-1.77,1.19-1.77,3.56,0,1.33.15,2.24.46,2.71.31.48.74.72,1.29.72.99,0,1.55-.67,1.67-2.02Z"/>
            <path class="cls-25" d="M510.91,208.03v12.22h-3.75v-4.76h-2.87v4.76h-3.75v-12.22h3.75v4.5h2.87v-4.5h3.75Z"/>
            <path class="cls-21" d="M518.32,220.44c-1.72,0-3.12-.57-4.2-1.71-1.08-1.14-1.63-2.67-1.63-4.58s.52-3.34,1.55-4.53c1.04-1.19,2.47-1.79,4.31-1.79,1.7,0,3.09.56,4.16,1.68,1.07,1.12,1.61,2.62,1.61,4.5s-.54,3.5-1.62,4.67c-1.08,1.17-2.47,1.76-4.18,1.76ZM518.3,217.67c.63,0,1.09-.28,1.37-.83.28-.55.42-1.56.42-3.03,0-2.13-.57-3.19-1.71-3.19-1.23,0-1.84,1.21-1.84,3.64,0,2.28.59,3.41,1.77,3.41Z"/>
            <path class="cls-26" d="M530.99,220.44c-1.72,0-3.12-.57-4.2-1.71-1.08-1.14-1.63-2.67-1.63-4.58s.52-3.34,1.55-4.53c1.04-1.19,2.47-1.79,4.31-1.79,1.7,0,3.09.56,4.16,1.68,1.07,1.12,1.61,2.62,1.61,4.5s-.54,3.5-1.62,4.67c-1.08,1.17-2.47,1.76-4.18,1.76ZM530.97,217.67c.63,0,1.09-.28,1.37-.83.28-.55.42-1.56.42-3.03,0-2.13-.57-3.19-1.71-3.19-1.23,0-1.84,1.21-1.84,3.64,0,2.28.59,3.41,1.77,3.41Z"/>
            <path class="cls-47" d="M537.12,216.72l3.48-.63c.29.98,1.04,1.48,2.26,1.48.94,0,1.41-.25,1.41-.75,0-.26-.11-.47-.33-.61-.22-.15-.61-.28-1.17-.39-2.14-.41-3.52-.95-4.13-1.61-.61-.66-.91-1.44-.91-2.34,0-1.15.44-2.11,1.31-2.88.87-.76,2.13-1.15,3.78-1.15,2.49,0,4.13,1,4.93,3l-3.11.94c-.32-.82-.98-1.23-1.96-1.23-.82,0-1.23.25-1.23.76,0,.23.09.4.28.53.19.12.54.24,1.08.36,1.46.31,2.5.58,3.12.82.62.24,1.13.65,1.54,1.22.41.58.62,1.26.62,2.04,0,1.24-.5,2.24-1.5,3.01-1,.77-2.32,1.15-3.95,1.15-2.98,0-4.82-1.24-5.52-3.73Z"/>
            <path class="cls-42" d="M558.72,217.33v2.92h-9.2v-12.22h9.2v2.82h-5.52v1.77h4.46v2.71h-4.46v2h5.52Z"/>
            <path class="cls-31" d="M574.71,208.03v8.1c0,1.53-.46,2.64-1.37,3.31-.91.67-2.1,1.01-3.56,1.01-1.54,0-2.78-.32-3.71-.97s-1.4-1.7-1.4-3.15v-8.29h3.82v7.85c0,.59.12,1.01.37,1.28s.64.4,1.18.4c.45,0,.82-.1,1.11-.29.29-.19.46-.41.52-.66.06-.24.09-.72.09-1.43v-7.16h2.96Z"/>
            <path class="cls-43" d="M575.45,216.72l3.48-.63c.29.98,1.04,1.48,2.26,1.48.94,0,1.41-.25,1.41-.75,0-.26-.11-.47-.33-.61-.22-.15-.61-.28-1.17-.39-2.14-.41-3.52-.95-4.13-1.61-.61-.66-.91-1.44-.91-2.34,0-1.15.44-2.11,1.31-2.88.87-.76,2.13-1.15,3.78-1.15,2.49,0,4.13,1,4.93,3l-3.11.94c-.32-.82-.98-1.23-1.96-1.23-.82,0-1.23.25-1.23.76,0,.23.09.4.28.53.19.12.54.24,1.08.36,1.46.31,2.5.58,3.12.82.62.24,1.13.65,1.54,1.22.41.58.62,1.26.62,2.04,0,1.24-.5,2.24-1.5,3.01-1,.77-2.32,1.15-3.95,1.15-2.98,0-4.82-1.24-5.52-3.73Z"/>
          </g>
        </g>
        <path class="cls-8" d="M598.65,227.85c0-4.41.76-8.49,2.28-12.25.72-1.81,2.64-5.13,5.75-9.97,3.04-4.84,4.55-9.47,4.55-13.88,0-.58-.04-1.16-.11-1.73-.43-4.91-3.51-7.37-9.21-7.37-1.88,0-3.4.4-4.55,1.19-1.3.94-2.13,3.11-2.49,6.5-.15,1.16-.29,2.02-.43,2.6-.58,2.6-2.21,3.9-4.88,3.9-3.4-.07-5.17-1.99-5.31-5.75.07-2.31,1.08-4.41,3.04-6.29,3.54-3.32,8.74-4.99,15.61-4.99,2.89,0,5.56.33,8.02.98,7.15,2.02,10.73,6.4,10.73,13.12,0,1.88-.4,3.69-1.19,5.42-1.01,2.17-3.51,5.02-7.48,8.56-1.66,1.45-2.89,2.57-3.69,3.36-4.92,4.92-7.37,10.44-7.37,16.59h-3.25ZM605.26,238.77c-1.01,2.1-2.67,3.14-4.99,3.14-.8,0-1.59-.18-2.39-.54-2.1-1.01-3.14-2.67-3.14-4.99,0-.79.18-1.59.54-2.38.94-2.17,2.6-3.25,4.99-3.25.79,0,1.55.18,2.28.54,2.17,1.01,3.25,2.71,3.25,5.1,0,.8-.18,1.59-.54,2.39Z"/>
        <g id="Heart">
          <g>
            <path class="cls-35" d="M448.86,169.94c-.36-1.67-2.07-2.9-3.9-2.79-.42.03-.82.13-1.18.29l-.81-3.22s-.97-.76-3.54.05c-2.57.81-2.78,1.73-2.78,1.73l3.3,14.03-5.2.8c-1.6,1.43-.29,4.72.43,4.99l6.19-.81,1.16,4.45,6.3-1.77-2.39-11.81c.68-.97,2.28-3.81,2.24-4.23.24-.53.3-1.12.18-1.72Z"/>
            <path class="cls-33" d="M448.86,169.94c-.36-1.67-2.07-2.9-3.9-2.79-.42.03-.82.13-1.18.29l-.81-3.22s-.97-.76-3.54.05c-2.57.81-2.78,1.73-2.78,1.73l3.3,14.03-5.2.8c-1.6,1.43-.29,4.72.43,4.99l6.19-.81,1.16,4.45,6.3-1.77-2.39-11.81c.68-.97,2.28-3.81,2.24-4.23.24-.53.3-1.12.18-1.72Z"/>
            <path class="cls-40" d="M448.63,171.84c-.12.32-.56,1.02-2.11,1.4-2.08.51-3.59-1.18-3.59-1.18,0,0-.14.66-1.02,2.17-.88,1.51-1.42,1.38-1.65.91-.23-.47-.52-1.92-1.38-5.39-.86-3.47-.72-4.54.71-5.52-.06.02-.11.03-.17.05-2.57.81-2.78,1.73-2.78,1.73l3.3,14.03c.57-.03,1.12-.08,1.69-.02.58.07,1.14.26,1.63.56.5.3,1.02.7,1.04,1.29.04,1.3-2.62,2.01-5.37,2.4-2.75.4-4.11.64-4.69.06.25.78.64,1.38.93,1.49l6.19-.81,1.16,4.45,6.3-1.77-2.39-11.81c.57-.81,1.79-2.94,2.14-3.85l.05-.19Z"/>
            <path class="cls-35" d="M446.07,173.33c-1.83.11-3.55-1.11-3.9-2.79-.17-.8,0-1.59.48-2.23.52-.68,1.36-1.11,2.31-1.17,1.83-.11,3.55,1.11,3.9,2.79.17.8,0,1.59-.48,2.23-.52.69-1.36,1.11-2.31,1.17Z"/>
            <path class="cls-35" d="M448.19,170.08c.28,1.33-.69,2.49-2.17,2.58-1.48.09-2.91-.92-3.2-2.25-.28-1.33.69-2.49,2.17-2.58,1.48-.09,2.91.92,3.2,2.25Z"/>
            <path class="cls-10" d="M448.19,170.08c.28,1.33-.69,2.49-2.17,2.58-1.48.09-2.91-.92-3.2-2.25-.28-1.33.69-2.49,2.17-2.58,1.48-.09,2.91.92,3.2,2.25Z"/>
            <path class="cls-10" d="M447.32,172.23s0-.02,0-.03c-.28-1.33-1.72-2.34-3.2-2.25-.5.03-.94.19-1.3.43,0,.01,0,.02,0,.03.28,1.33,1.72,2.34,3.2,2.25.5-.03.94-.19,1.3-.43Z"/>
            <path class="cls-35" d="M440.28,173.61c.45-.7.81-1.44,1.14-2.19.32-.76.62-1.53.82-2.33-.38.73-.72,1.48-1.04,2.23-.32.76-.64,1.51-.92,2.29ZM444.94,177.76c-.48.64-.95,1.29-1.38,1.97.58-.56,1.09-1.18,1.57-1.82.48-.64.93-1.31,1.3-2.02-.53.6-1.02,1.24-1.5,1.88Z"/>
            <path class="cls-60" d="M440.28,173.61c.45-.7.81-1.44,1.14-2.19.32-.76.62-1.53.82-2.33-.38.73-.72,1.48-1.04,2.23-.32.76-.64,1.51-.92,2.29ZM444.94,177.76c-.48.64-.95,1.29-1.38,1.97.58-.56,1.09-1.18,1.57-1.82.48-.64.93-1.31,1.3-2.02-.53.6-1.02,1.24-1.5,1.88Z"/>
            <g class="cls-40">
              <path d="M448.63,171.84c.04-.11.05-.18.05-.18l-.05.18Z"/>
            </g>
          </g>
          <g>
            <path class="cls-35" d="M447.37,179.27c.55-2.91,1.79-6.2,4.09-9.06,1.87-2.31,2.65-2.55,2.55-3.14-.1-.58-1.15-5.91-1.15-5.91,0,0,.39-.58,1.78-.87,1.39-.29,1.84.1,1.84.1l1.28,6.33c.01.07.06.13.12.15h0c.15.06.31-.05.29-.21l-.14-1.7s.22-.42,1.37-.59c1.15-.17,1.62.61,1.62.61l.53,3.65s2.16,1.9,2.84,4.61l1.11,18.42-18.52,1.12s-.91-6.7.37-13.52Z"/>
            <path class="cls-15" d="M447.37,179.27c.55-2.91,1.79-6.2,4.09-9.06,1.87-2.31,2.65-2.55,2.55-3.14-.1-.58-1.15-5.91-1.15-5.91,0,0,.39-.58,1.78-.87,1.39-.29,1.84.1,1.84.1l1.28,6.33c.01.07.06.13.12.15h0c.15.06.31-.05.29-.21l-.14-1.7s.22-.42,1.37-.59c1.15-.17,1.62.61,1.62.61l.53,3.65s2.16,1.9,2.84,4.61l1.11,18.42-18.52,1.12s-.91-6.7.37-13.52Z"/>
            <path class="cls-40" d="M453.59,181.9c-1.2,3.03-2.93,2.15-3.91,1.15-1.78-1.82.02-9.94,2.24-13.15v-.25c-.15.17-.3.36-.47.56-2.3,2.85-3.55,6.15-4.09,9.06-1.28,6.82-.37,13.52-.37,13.52l18.52-1.12-1.11-18.42c-6.61-1.31-9.6,5.62-10.81,8.65Z"/>
            <path class="cls-40" d="M454.16,183.79s-1.74,4.41-4.27,2.66c-2.53-1.75-2.64-4.93-2.25-8.42-.1.42-.2.83-.27,1.24-1.28,6.82-.37,13.52-.37,13.52l7.68-.46-.52-8.53Z"/>
            <path class="cls-40" d="M454.64,160.29c-1.39.29-1.78.87-1.78.87,0,0,1.05,5.33,1.15,5.91.05.28-.11.49-.5.88.91-.89,1.49-.98,1.36-1.68-.15-.75-.43-2.03-.72-3.46-.29-1.42-.39-2.26.5-2.53Z"/>
            <path class="cls-40" d="M458.33,167.07c.41.15.65.26.92.37.27.11-.25-.5-.32-1.33-.04-.49-.08-1.15-.12-1.62-.64.19-.78.46-.78.46l.14,1.7c.01.16-.15.28-.29.21-.06-.03-.11-.08-.12-.15.06.29.16.2.57.35Z"/>
          </g>
          <g>
            <path class="cls-35" d="M475.52,173.35c-1.83.58-5.64.46-8.02.05-2.38-.41-7.37-.66-10.44,4.65-3.07,5.3-4.28,9.25-5.77,13.22-1.49,3.96-6.64,10.24-8.66,14.71-2.01,4.47-2.14,11.54,4.86,16.37,7,4.83,13.18,6.33,15.58,7.08,2.4.75,9.81,3.28,13.71.21,3.9-3.07,8.15-9.28,6.56-20.73-1.59-11.46-6.61-15.05-8.05-16.44-2.79-2.69-9-4.67-9.17-7.42-.17-2.76,1.54-4.31,3.75-4.31,2.21,0,3.78-.26,5.21-.69.68-.45,1.36-1.3,1.66-2.72.37-1.8-.13-4.17-1.22-3.97Z"/>
            <path class="cls-14" d="M475.52,173.35c-1.83.58-5.64.46-8.02.05-2.38-.41-7.37-.66-10.44,4.65-3.07,5.3-4.28,9.25-5.77,13.22-1.49,3.96-6.64,10.24-8.66,14.71-2.01,4.47-2.14,11.54,4.86,16.37,7,4.83,13.18,6.33,15.58,7.08,2.4.75,9.81,3.28,13.71.21,3.9-3.07,8.15-9.28,6.56-20.73-1.59-11.46-6.61-15.05-8.05-16.44-2.79-2.69-9-4.67-9.17-7.42-.17-2.76,1.54-4.31,3.75-4.31,2.21,0,3.78-.26,5.21-.69.68-.45,1.36-1.3,1.66-2.72.37-1.8-.13-4.17-1.22-3.97Z"/>
            <path class="cls-35" d="M482.02,210.07c-.48-.51-.69-1.21-1.12-1.77-.51-.65-1.27-.68-1.99-.96-.67-.26-1.22-.77-1.83-1.14-.67-.41-1.35-.59-2.14-.53-.46.03-1,.15-1.43-.05-.42-.19-.79-.59-1.07-.95-.44-.57-.95-1.27-1.08-1.98-.16-.88-.3-1.77-.4-2.67-.05-.4-.31-1.64.34-1.67.54-.02.83.73,1.03,1.11.25.47.51.92.98,1.19.48.28,1.17.41,1.31,1.04,0,.03.03,0,.03-.02-.08-.48-.49-.75-.89-.96-.26-.14-.53-.28-.73-.5-.19-.21-.32-.46-.43-.71-.21-.45-.4-.89-.73-1.27-.34-.4-.78-1.13-.66-1.68.14-.65.32-1.2.23-1.89-.06-.43-.82-.43-1.05-.18-.42.45-.54,1.1-.77,1.67-.38.95-.93,1.8-2.02,1.26-.51-.25-.96-.61-1.51-.77-.53-.15-1.06-.07-1.58.07-.65.18-1.41.35-1.99-.11-.02-.01-.03.04-.02.05.95,1.1,2.59-.03,3.73.54.44.22.86.62,1.11,1.06.41.74-.28,1.36-.69,1.93-.19.27-.45.46-.77.56-.59.19-1.23.13-1.83.31-.26.08-.52.21-.72.4-.22.21-.31.46-.43.73-.29.67-.88,1.13-1.61,1.21-.03,0-.03.08,0,.07.62-.03,1.19-.33,1.53-.86.18-.28.31-.61.56-.84.25-.24.61-.33.95-.39.54-.09,1.14-.09,1.63.2.54.32.48,1.1.33,1.61-.11.39-.27.77-.3,1.17-.04.55.18,1.07.16,1.61-.02.43-.09.85-.1,1.29-.02.55-.18,1.13-.59,1.52-.3.28-.81.47-.83.94,0,.03.02.03.03,0,.04-.49.71-.67,1-1,.46-.52.5-1.1.61-1.73.08-.5.29-.99.23-1.49-.05-.52-.07-1.07.12-1.56.17-.43.48-.79.62-1.23.15-.49.07-1,.12-1.5.04-.38.17-.83.32-1.19.24-.56.87-1.65,1.63-1.5.46.09.49.67.53,1.04.08.68.18,1.35.23,2.04.06,1-.11,1.77-.46,2.69-.23.6-.33,1.2-.29,1.84.05.62.08,1.17-.19,1.75-.2.43-.49.82-.77,1.21-.61.84-1.1,1.64-.96,2.72.08.62.26,1.23-.11,1.79-.29.44-.72.77-1,1.22-.55.89-.66,1.95-.81,2.97-.07.49-.12.97-.27,1.45-.17.56-.45,1.03-.8,1.49-.34.45-.73.9-.93,1.43-.1.26-.14.53-.14.81.01.36.11.73.02,1.09-.22.96-1.37,1.63-1.18,2.69,0,.03.03,0,.02-.02-.14-.97.92-1.59,1.23-2.42.21-.57-.03-1.16.13-1.73.14-.52.52-.94.87-1.34.35-.39.68-.79.92-1.26.22-.43.35-.9.47-1.36.25-1.03.35-2.16.81-3.13.24-.51.61-.87.97-1.29.38-.44.56-.91.52-1.49-.04-.59-.23-1.16-.08-1.75.11-.45.38-.86.64-1.23.57-.81,1.22-1.57,1.31-2.59.05-.61-.29-2.76.83-2.72.43.02.66.4.88.71.3.42.64.82.9,1.27.34.57.48,1.21.68,1.83.16.47.39.89.65,1.28,0,.03.02.06.02.08.07.31.1.64.09.96-.01.58-.17,1.16-.27,1.73-.09.53.01,1.05.04,1.58.03.61,0,1.2-.27,1.76,0,.01,0,.05.02.03.28-.42.33-.93.35-1.42.02-.56.04-1.11.18-1.66.08-.32.25-.6.37-.91.11-.3.08-.51.46-.45.17.03.31.13.42.26.3.32.43.83.52,1.25.2.86.22,1.74.3,2.61.11,1.09.4,2.3,1.34,2.97.02.01.03-.04.01-.06-.95-.74-1.17-1.99-1.18-3.13,0-.49-.25-1.44.42-1.44.36,0,.76.18,1.09.31.14.06.27.12.39.2.14.09.33.19.42.33,0,0,.02-.01,0-.02-.12-.09-.22-.22-.34-.32-.08-.07-.17-.13-.26-.19-.26-.18-.51-.37-.77-.55-.26-.19-.52-.37-.72-.63-.2-.26-.32-.56-.48-.85-.08-.22-.17-.44-.29-.65-.37-.68-.87-1.29-1.28-1.95,0-.03-.01-.05-.02-.08-.05-.15-.11-.23-.2-.3-.11-.21-.21-.42-.29-.65-.22-.62-.33-1.28-.63-1.88-.04-.08-.08-.15-.12-.23.15.05.31.09.47.11.85.1,1.71-.31,2.54-.01.71.26,1.28.8,1.78,1.35.41.44.54,1,.84,1.51.22.37.49.7.69,1.07.23.43.35.85.36,1.34,0,.05.05.07.06.01.05-.4-.05-.8-.2-1.17-.16-.39-.37-.78-.57-1.15-.19-.35-.44-.83-.25-1.24.21-.45,1.03-.03,1.35.09.56.21.78.57,1.05,1.07.18.33.36.66.63.93.03.03.04-.04.02-.06Z"/>
            <path class="cls-35" d="M460.13,211.49c-.63-.38-1.46-.53-1.96-1.1-.24-.27-.37-.6-.67-.82-.31-.22-.67-.31-.97-.54-.29-.23-.53-.54-.69-.88-.27-.58-.4-1.37-.22-1.99.02-.08.06-.17.12-.22.21-.17.9.37,1.12.46.49.19.99.2,1.51.2.34,0,.71-.02,1.03.11.22.09.38.23.55.39.04.04.06-.06.05-.08-.21-.41-.73-.61-1.15-.71-.58-.15-1.2-.07-1.77-.25-.78-.25-1.6-.86-2.15-1.45-.09-.1-.17-.22-.17-.35,0-.24.26-.3.44-.35.25-.07.48-.16.71-.27.45-.21.94-.43,1.45-.37.01,0,.02-.03,0-.03-.51-.1-.96,0-1.45.12-1.22.28-2.38.43-3.63.22-.51-.08-1.02-.19-1.48-.42-.46-.23-.8-.55-1.09-.97-.31-.44-.34-1.05-.49-1.56-.08-.28-.19-.56-.34-.81-.19-.33-.41-.55-.8-.6-.05,0-.1.03-.12.08-.08.34.16.5.31.77.13.24.21.5.27.76.17.65.39,1.43.33,2.11-.03.38-.17.73-.32,1.08-.11.28-.22.53-.36.8-.1.19-.19.39-.28.59-.15.11-.24.29-.33.46-.13.23-.24.46-.32.71-.09.25-.15.49-.18.75-.05.42-.07.79-.32,1.15-.29.42-.62.79-.82,1.27-.19.48-.25.97-.18,1.47,0,.05.05.03.05,0-.02-.56.09-1.13.39-1.6.16-.25.38-.45.59-.67.09-.1.21-.2.28-.31.12-.19.18-.54.47-.23.16.17.14.48.13.69-.03.47-.19.92-.22,1.39-.07,1.04.6,1.94.62,2.95.01.95-.79,2.1-.07,2.96.03.04.05-.05.03-.08-.69-.87.23-1.9.28-2.82.05-1.02-.49-1.97-.34-2.99.07-.47.24-.93.26-1.41.02-.52-.14-1.02-.16-1.54-.02-.39.41-3.05,1.14-2.58.2.13.22.47.31.67.37.84,1.15,1.39,1.79,2.01.02.02.03-.02.02-.03-.3-.35-.59-.72-.89-1.07-.28-.33-.53-.68-.64-1.09-.1-.37-.35-1.14-.14-1.51.07-.12.18-.2.32-.22.09-.02.17,0,.26,0,.19.02.34.13.52.18.23.07.47.12.71.16.98.16,2.29.06,2.94.96.63.87.64,2.07.72,3.08.06.75.02,1.52.13,2.26.1.72.41,1.33.79,1.93.4.62.84,1.22,1.04,1.93.02.05.06,0,.05-.04-.2-.82-.73-1.5-1.15-2.22-.48-.81-.64-1.61-.45-2.54.02-.1.05-.2.1-.29.01-.02.02-.04.04-.04.02-.01.05,0,.07,0,.14.05.28.13.39.23.13.12.36.2.52.29.18.1.38.15.55.26.19.12.3.33.43.51.43.6,1.1.89,1.79,1.1.39.12.79.2,1.13.43.36.24.65.56.75.99.02.08.09.03.08-.04-.15-.69-.71-1.05-1.27-1.39Z"/>
            <path class="cls-36" d="M457.06,178.05c-3.07,5.3-4.28,9.25-5.77,13.22-1.49,3.96-6.64,10.24-8.66,14.71-2.01,4.47-2.14,11.54,4.86,16.37,7,4.83,13.18,6.33,15.58,7.08,2.4.75,9.81,3.28,13.71.21,2.3-1.81,4.72-4.72,6-9.15-1.45,4.43-5.65,7.36-9.73,7.74-4.24.39-13.32-1.87-22.03-12.38-6.61-7.98-1.72-10.77,1.27-21.89,1.17-4.36,1.51-8.44,4.76-15.91Z"/>
            <path class="cls-4" d="M457.06,178.05c-3.07,5.3-4.28,9.25-5.77,13.22-1.49,3.96-6.64,10.24-8.66,14.71-2.01,4.47-2.14,11.54,4.86,16.37,7,4.83,13.18,6.33,15.58,7.08,2.4.75,9.81,3.28,13.71.21,2.3-1.81,4.72-4.72,6-9.15-1.45,4.43-5.65,7.36-9.73,7.74-4.24.39-13.32-1.87-22.03-12.38-6.61-7.98-1.72-10.77,1.27-21.89,1.17-4.36,1.51-8.44,4.76-15.91Z"/>
            <path class="cls-40" d="M476.33,193.41c-.43-.4-.78-.71-1.03-.95-2.79-2.69-9-4.67-9.17-7.42-.02-.36,0-.7.03-1.03h-.06c-.48,1.84-.17,3.52.74,5.84.9,2.32,1.25,6.5,3.97,7.36,2.68.84,5.28-1.8,5.53-3.8Z"/>
          </g>
          <g>
            <path class="cls-35" d="M451.19,191.46c-.15-2.56-2.41-4.24-5.32-5.14-2.9-.91-4.51-1.3-4.51-1.3l-2.96.39s-1.13,1.6-2.36,3.72c-1.24,2.13-3.23,6.47-3.13,11.88.1,5.41,2.76,11.8,8.55,11.5.34-2.93,1.64-5.06,4.12-8.23,2.49-3.17,5.85-8.57,5.6-12.82Z"/>
            <path class="cls-40" d="M446.77,200.68c-2.19,2.22-5,2.86-7.47.39-2.47-2.47-3.18-7.02-1.34-11.47,1.78-4.29,3.3-4.58,3.4-4.59l-2.95.39s-1.13,1.6-2.36,3.72c-1.24,2.13-3.23,6.47-3.13,11.88.1,5.41,2.76,11.8,8.55,11.5.34-2.93,1.64-5.06,4.12-8.23,2-2.56,4.58-6.56,5.37-10.24-.55,1.89-2.36,4.79-4.19,6.65Z"/>
          </g>
          <g>
            <path class="cls-35" d="M466.56,182.65s-1.03,1.11-.4,3.71c.5,2.05,1.59,4.27,2.23,6.32,1.11,3.5,2.26,4.51,4.43,3.75,2.17-.76,3.46-2.29,3.86-4.2.45-2.2.18-3.04,1.77-3.58,1.64-.56,4.03-1.38,4.03-1.38,0,0,.36-2.36-1.19-3.26l-4.71,1.23,3.97-2.56s.49-1.41-.67-2.65c-1.16-1.24-1.74-.98-1.74-.98,0,0-5.13,3.29-5.96,3.75s-1.24.82-3.1.28c-1.26-.37-2.52-.42-2.52-.42Z"/>
            <path class="cls-15" d="M466.56,182.65s-1.03,1.11-.4,3.71c.5,2.05,1.59,4.27,2.23,6.32,1.11,3.5,2.26,4.51,4.43,3.75,2.17-.76,3.46-2.29,3.86-4.2.45-2.2.18-3.04,1.77-3.58,1.64-.56,4.03-1.38,4.03-1.38,0,0,.36-2.36-1.19-3.26l-4.71,1.23,3.97-2.56s.49-1.41-.67-2.65c-1.16-1.24-1.74-.98-1.74-.98,0,0-5.13,3.29-5.96,3.75s-1.24.82-3.1.28c-1.26-.37-2.52-.42-2.52-.42Z"/>
            <path class="cls-40" d="M476.68,192.23c.45-2.2.18-3.04,1.77-3.58,1.64-.56,4.03-1.38,4.03-1.38,0,0,.03-.21.04-.52-1.51.4-4.07,1.21-5,1.67-1.1.55-.85,1.98-1.38,3.97-.53,1.99-2.55,3.33-4.13,3.49-1.58.15-2.54-2.12-2.97-3.54-.43-1.42-1.36-3.67-2.09-4.96-.67-1.17-1.07-2.76-.85-3.74-.16.6-.23,1.5.07,2.72.5,2.05,1.59,4.27,2.23,6.32,1.11,3.5,2.26,4.51,4.43,3.75,2.17-.76,3.46-2.29,3.86-4.2Z"/>
            <path class="cls-40" d="M477.46,185l-.89.23,3.97-2.56s.49-1.41-.67-2.65c-.03-.03-.06-.06-.09-.09.48.68.41,1.49-.79,2.36-1.15.84-1.97,1.38-3.07,2.15-.95.67.06,2.21.64,2.23.58.01.36-1.52.89-1.66Z"/>
            <path class="cls-40" d="M480.54,182.67s.23-.67,0-1.49c.09.6-.17,1.01-.51,1.23-.34.22-3.12,2.01-3.75,2.43-.64.42.07,1.22.27,1.13.2-.09-.08-.53.02-.74l3.97-2.56Z"/>
          </g>
        </g>
      </g>
    </g>
    <g>
      <g>
        <g>
          <polygon class="cls-52" points="194.56 464.94 201.31 464.94 211.03 337.9 199.77 337.9 194.56 464.94"/>
          <polygon class="cls-52" points="93.93 464.94 100.69 464.94 110.41 337.9 99.14 337.9 93.93 464.94"/>
          <polygon class="cls-63" points="150.79 464.94 157.54 464.94 167.27 337.9 156 337.9 150.79 464.94"/>
          <polygon class="cls-63" points="50.16 464.94 56.92 464.94 66.64 337.9 55.38 337.9 50.16 464.94"/>
          <path class="cls-56" d="M134.08,284.16s8.83-8.82,17.76-8.82,22.73,8.74,59.2,19.3l-5.58,8.64-55.34-9.19c-6.44-1.07-12.2-4.64-16.03-9.92h0Z"/>
          <path class="cls-61" d="M48.34,324.43h77.8l14.13-143.57c.97-9.81-6.73-18.3-16.59-18.3H50.8c-9.85,0-17.55,8.5-16.59,18.3l14.13,143.57Z"/>
          <path class="cls-30" d="M63.27,324.43h77.8l14.13-143.57c.97-9.81-6.74-18.3-16.59-18.3h-72.87c-9.85,0-17.55,8.5-16.59,18.3l14.13,143.57Z"/>
          <path class="cls-2" d="M159.42,291.18s39.66.86,62.65,6.76l-20.58,37.23s-45.57,8.15-81.14,1.88l-5.35-21.07-1.99-25.15,46.42.36Z"/>
          <path class="cls-56" d="M154.43,183.8s10.21,4.78,11.66,18.71c3.06,29.36-.81,76.88-.81,76.88h-16.91s-9.02-35.9-8.02-72.34c.55-20.06,14.08-23.25,14.08-23.25Z"/>
          <path class="cls-45" d="M154.43,183.8s20.79,3.1,14.36,66.38c0,0-12.07,2.22-20.41-.12-6.5-14.03,6.04-66.26,6.04-66.26Z"/>
          <path class="cls-56" d="M128.51,176.27h-29.95s1.65-4.96,2.59-17.43c.27-3.55.48-7.72.58-12.56.11-5.35.08-11.51-.15-18.58h20.58c3.29,13.45,4.9,27.68,5.67,37.23.32,3.95.49,7.1.58,9.07.07,1.46.09,2.27.09,2.27Z"/>
          <path class="cls-45" d="M153.77,291.2l-64.53.79s.02-1.81,0-4.73c-.04-8.92-.41-28.17-2.7-37.74-1.91-8.01-8.37-31.46-12.89-47.72-2.65-9.56-4.64-16.63-4.64-16.63,10.64-5.13,21.41-7.5,26.51-8.4,1.93-.35,3.04-.48,3.04-.48h29.95s1.52.1,4.04.49c4.89.76,13.5,2.62,21.88,7.03,2.58,39.71-1.57,65.72-1.57,65.72,0,0-3.88,26.61.9,41.68Z"/>
          <path class="cls-27" d="M151.39,269.59c-.1,0-.18-.08-.18-.18.13-10.56,1.46-19.83,1.48-19.92.04-.26,4.02-25.84,1.65-64.32,0-.1.07-.18.17-.18.1,0,.18.07.19.16,2.37,38.52-1.61,64.14-1.65,64.39-.01.09-1.35,9.34-1.48,19.88,0,.1-.08.17-.18.17Z"/>
          <path class="cls-2" d="M153.76,291.2l-65.36.53-.92-12.88c5.47-.86,11.8-1.36,18.35-1.58,4.07-.14,8.21-.18,12.27-.14,15.57.16,29.85,1.5,33.62,2.71,1.47,7.22,2.04,11.36,2.04,11.36Z"/>
          <path class="cls-2" d="M124.28,338.32h-35.3c-5.82,0-11.02-3.64-13-9.11-1.95-5.38-2.15-15.8-.56-21.29l8.48-18.61s38.24-4.85,65.94,5.67c-6.14,19.7-25.56,43.35-25.56,43.35Z"/>
          <path class="cls-30" d="M48.34,324.44l.7,6.49c.75,6.93,6.61,12.2,13.59,12.2h153.43c3.73,0,7.11-1.51,9.55-3.95,2.45-2.45,3.97-5.85,3.95-9.59,0-2.85-2.33-5.14-5.18-5.14H48.34Z"/>
          <g>
            <path class="cls-52" d="M146.3,446.09c.73,2.83,4.56,6.48,7.5,8.95,2.14,1.78,3.08,4.62,2.43,7.33l-.62,2.58h-33.23c-1.07-5-.98-10.17.28-15.12l.95-3.73h22.69Z"/>
            <path class="cls-55" d="M158.3,300.26c.11.11.22.23.33.35,5.45,6.01,8.18,14,7.68,22.09-2.55,41.69-16.06,51.02-19.72,117.64-.1,1.87.95,3.3.08,6.74-.87,3.43-21.75,4.48-23.72,1.62-1.97-2.87.77-6.66.8-8.64.73-45.06-2.1-72.48-2.1-124.53,0-14.01,10.46-19.1,18.94-20.93,6.49-1.4,13.22.78,17.72,5.66Z"/>
          </g>
          <path class="cls-61" d="M48.34,324.44l.53,6.13c.61,7.1,6.55,12.56,13.68,12.56h43.16c3.72,0,7.1-1.51,9.54-3.95,2.45-2.45,3.97-5.85,3.96-9.59,0-2.85-2.34-5.14-5.18-5.14H48.34Z"/>
          <g>
            <path class="cls-52" d="M187.18,446.09c2.89,4.3,12.27,8.32,17.95,10.45,2.61.98,4.17,3.65,3.76,6.4l-.3,2h-45.09l-.15-1.69c-.48-5.35.72-10.72,3.42-15.36l1.05-1.8h19.37Z"/>
            <path class="cls-55" d="M222.07,297.94l.29.72c7.85,25.47-21.23,85.49-33.6,140.03-.56,2.48.04,6.92-.82,8.92-1.81,4.21-18.03,4.32-21.42.73-3.39-3.58,2.22-7.92,2.56-10.88,4.01-34.37-1.53-79.16,12.2-119.23,10.95-31.95,40.8-20.29,40.8-20.29Z"/>
          </g>
          <path class="cls-56" d="M84.56,245.16c-.06,2.91-.12,5.77-.18,8.5-.31,13.14-.62,23.46-.62,23.46l-17.57,2.28s-2.08-10.62-4.15-24.96c-.47-3.27-.94-6.72-1.38-10.3-1.84-14.9-3.23-31.74-2.37-44.59.56-8.18,10.73-14.39,10.73-14.39,0,0,14.75,2.03,15.65,17.24.45,7.56.23,26.06-.11,42.76Z"/>
          <path class="cls-56" d="M143.14,289.87l-5.59,8.64-55.34-9.19c-6.44-1.07-12.2-4.64-16.03-9.92,0,0,8.83-8.83,17.76-8.83,1.48,0,3.1.24,4.93.69,5.97,1.46,14.23,5.15,27.59,9.96,7.25,2.61,15.99,5.55,26.69,8.64Z"/>
          <path class="cls-7" d="M155.63,294.19c2.86,1.94,5.59,6.44,7.36,9.81,1.33,2.53,1.97,5.37,1.85,8.23l-.23,5.67c-.03.79-.68,1.4-1.46,1.4s-1.4-.58-1.46-1.35l-.91-11.21-5.14-12.56Z"/>
          <path class="cls-56" d="M143.14,289.87l9.8,2.99c2.76.84,4.96,2.93,5.95,5.64l3.24,8.89c.38,1.05.47,2.18.27,3.28l-1.52,8.1c-.14.72-.79,1.23-1.53,1.18-.8-.05-1.41-.75-1.35-1.55l.62-8.85-4.55-11.1,2.96,9.67c.28.92.3,1.89.07,2.82l-1.82,7.17c-.16.62-.71,1.05-1.35,1.05-.83,0-1.47-.72-1.38-1.54l.92-8.31-3.91-7.42,2.07,6.61c.32,1.04.4,2.16.21,3.24l-.81,4.63c-.11.63-.66,1.09-1.3,1.09-.75,0-1.34-.62-1.32-1.37l.21-6.22-2.52-6.07-2.41-.61c-2.6-.65-4.82-2.35-6.14-4.69l5.59-8.64Z"/>
          <path class="cls-45" d="M87.24,249.26s-.24.12-.68.32c-.47.2-1.19.5-2.11.83-4.31,1.54-13.09,3.83-22.77,1.51-.98-.23-1.97-.52-2.96-.85-2.78-20.98-10.28-58.74,10.3-65.9,5.56.12,9.87,2.05,13.03,5.93.17.21.33.41.49.62,2.04,2.74,3.57,6.35,4.62,10.89,2.44,10.48,2.33,25.86.08,46.66Z"/>
          <path class="cls-27" d="M88.11,240.31c-.11-.01-.18-.1-.18-.19,1.42-17.22,1.03-29.82-1.21-38.52-2.28-8.87-6.54-13.98-13.02-15.65-.1-.02-.15-.12-.13-.21.03-.1.12-.15.22-.13,6.62,1.7,10.97,6.9,13.28,15.9,2.25,8.74,2.65,21.38,1.22,38.64,0,.09-.09.17-.18.17Z"/>
          <path class="cls-56" d="M128.51,196.13c14.8-4.72,7.75-15.12,4.04-19.37-2.52-.39-4.04-.49-4.04-.49h-29.95s-1.12.13-3.04.48c-4.07,10.57,15.21,25.04,32.99,19.37Z"/>
        </g>
        <g>
          <path class="cls-18" d="M92.86,111.12s-3.75-2.65-1.47-9.99c.3,3.96,2.13,5,2.13,5,0,0-1.17-6.17.88-7.64-.22,4.19,5,8.01,5,8.01l-6.54,4.63Z"/>
          <path class="cls-56" d="M142.49,135.29c-.21,1.52-.32,2.36-.32,2.36,0,0,.11.4.25,1.11.37,1.84.98,5.72.64,10.03-.81,8.76-6.64,19.32-8.42,23.14-.31.67-.97,1.11-1.71,1.14-1.13.05-2.9.11-4.56.12-1.62.01-3.15-.02-3.9-.17-2.87-.49-17.03-9.31-19.5-13.96-.42-2.09-2.31-7.93-3.29-10.92-.36-1.1-.6-1.81-.6-1.81,0,0-2.05-2.78-4.16-5.07-1.83-1.99-6.95-9.94-6.66-13.55,3.16-9.52,7.12-16.71,7.12-16.71,0,0,6.37-4.56,18.71-6.74,11.87,1.9,28.5,16.19,28.02,19.57-.73,5.13-1.29,9.12-1.61,11.46h0Z"/>
          <path class="cls-37" d="M107.4,143.97s-.93-3.75,1.76-6.4c2.32-2.29-4.79-12.3-4.79-12.3,0,0,19.59-.19,28.35,8.64,0,0,.39-5.31-4.18-8.41,3.78.07,14.76.74,19.61,7.61,0-2.9-.36-14.39-9.29-19.37,3.03.27,7.81,1.69,7.81,1.69,0,0-6.04-11.92-28.98-16.71-12.54.54-19.34,5.07-19.34,5.07,0,0-9.91,7.01-10.31,24.46,2.22,10.85,9.1,14.43,9.1,14.43l10.26,1.28Z"/>
          <path class="cls-56" d="M105.42,151.01c-.82.43-1.74.52-2.7.33-.37-.07-.76-.2-1.13-.36-1.73-.74-3.43-2.34-4.59-4.53-2.04-3.89-1.59-8.15,1.01-9.52,2.6-1.37,6.37.67,8.41,4.56,2.05,3.89,1.6,8.15-1.01,9.52Z"/>
          <path class="cls-18" d="M118.52,136.87s2.51-2.82,4.42-4.13c4.46-1.21,9.15-1.51,10.37-1.56.15,0,.27.13.24.28l-.17.93c-.03.17-.18.3-.36.31-1.34.06-6.82.38-9.52,1.34-3.11,1.53-4.98,2.84-4.98,2.84Z"/>
          <g>
            <path class="cls-13" d="M132.62,140.1s-.25.33-1.03.74c-.79.42-2.13.92-4.32,1.26-.36.06-.74.11-1.15.16-2.44-.14-3.33-1.87-3.33-1.87,0,0,1.13-2.03,3.31-3.43.6-.39,1.29-.73,2.06-.96.65.04,1.29.22,1.87.49,1.77.8,2.6,3.61,2.6,3.61Z"/>
            <path class="cls-7" d="M122.78,140.39c.22-.55.54-1.07.89-1.55.36-.48.77-.93,1.23-1.33.12-.1.23-.2.35-.29l.36-.27c.12-.09.26-.17.38-.25l.19-.12c.07-.04.14-.07.2-.11l.4-.21.42-.18c.07-.03.14-.06.21-.08l.22-.07.44-.13c.27.02.46.05.64.1.18.05.36.11.54.17.17.07.34.15.51.24s.32.19.47.3c-.18-.05-.35-.11-.53-.15-.18-.05-.35-.09-.53-.12-.18-.03-.35-.06-.53-.08-.18-.02-.35-.03-.52-.02.08-.01-.32.15-.32.15l-.2.08c-.06.03-.13.06-.19.09l-.39.19-.37.21-.19.11-.18.12c-.12.08-.24.15-.36.24l-.35.25c-.12.08-.23.18-.34.27-.9.72-1.71,1.55-2.47,2.46Z"/>
          </g>
          <path class="cls-18" d="M139.05,131.5l-.34.87c-.07.18.05.39.24.41.63.07,2.02.32,4.27,1.16.26-.77-1.13-2.01-3.83-2.63-.14-.03-.29.05-.34.18Z"/>
          <g>
            <path class="cls-7" d="M141.17,154.81c-.52,1.57-2.56,2.5-2.56,2.5,0,0-2.02-.48-2.39-.57.84-1.18-2.74-.65-2.74-.65,0,0,6.21-2.92,7.69-1.28Z"/>
            <path class="cls-7" d="M141.34,154.82c-.12.34-.28.63-.47.89-.19.26-.41.49-.64.7-.47.42-.99.76-1.56,1.03-.09.01-5.2-1.27-5.2-1.27-.15-.35-.2-.66-.21-.98,0-.32.04-.63.14-.93.1-.3.25-.58.47-.81.2-.24.46-.41.73-.57-.26.18-.51.36-.69.6-.2.23-.34.51-.42.8-.17.57-.12,1.2.07,1.75l5.05,1.14c.52-.26,1.01-.6,1.44-.99.21-.2.42-.42.59-.65.16-.23.29-.48.39-.73-.33-1.51-.65-3.03-.94-4.56-.3-1.53-.57-3.08-.83-4.62-.26-1.55-.51-3.09-.72-4.64-.2-1.55-.4-3.1-.53-4.67.05-.71.13-1.41.25-2.11.12-.7.27-1.39.56-2.03-.14.33-.23.67-.3,1.01-.08.34-.13.69-.18,1.04-.04.27-.07.54-.09.8-.04.43-.07.86-.08,1.29.12,1,.25,2.02.4,3.02.07.53.16,1.08.24,1.61.25,1.55.49,3.09.77,4.63.27,1.54.56,3.07.86,4.61.29,1.54.6,3.07.92,4.6v.04Z"/>
          </g>
          <path class="cls-13" d="M142.25,137.97c.05.19.11.46.17.8-.25.12-1.67.52-3.32.57-.18,0-.37,0-.56,0-.15-1.01-.28-2.02-.4-3.03.02-.42.04-.85.09-1.29.43-.11.83-.18,1.2-.21,2.03-.22,3.07.49,3.07.49-.08.61-.15,1.1-.2,1.49-.08.57-.12.87-.12.87.02.07.04.17.08.32Z"/>
          <path class="cls-7" d="M138.23,135.02c.33-.16.69-.27,1.06-.34.37-.07.74-.1,1.12-.09.37.02.75.07,1.11.18.36.11.71.27.99.52-.35-.12-.7-.2-1.05-.26-.35-.05-.7-.09-1.06-.09-.36-.02-.71,0-1.07.01l-1.09.06Z"/>
          <path class="cls-7" d="M97.65,139.33c.83-.14,1.69-.02,2.5.19.82.23,1.6.59,2.32,1.04.73.44,1.38,1,1.99,1.6.3.3.58.62.86.94l.78,1.01c.09.11.09.27.02.38-.35.56-.66,1.13-.72,1.7-.03.28,0,.55.12.81.11.25.29.48.51.69.11.11.13.24.09.35-.09.2-.2.34-.32.47-.11.12-.23.24-.36.34-.12.11-.26.19-.39.29-.14.08-.28.17-.43.23-.59.27-1.25.39-1.89.31-.16-.03-.32-.03-.47-.09-.15-.05-.3-.09-.46-.15-.28-.14-.57-.27-.81-.46-.27-.16-.48-.39-.7-.6-.22-.22-.39-.47-.59-.7.23.2.44.41.68.59.24.17.47.36.74.49.51.29,1.07.47,1.64.48.56.01,1.12-.12,1.61-.39.12-.07.24-.15.36-.22.11-.09.23-.16.32-.26.21-.17.4-.41.47-.57l.08.35c-.27-.24-.53-.53-.7-.89-.17-.36-.22-.77-.18-1.15.03-.39.15-.74.29-1.07.14-.33.33-.63.52-.93v.39s-.73-.98-.73-.98c-.27-.3-.52-.63-.8-.92-.29-.28-.56-.59-.87-.84-.15-.13-.3-.27-.46-.4l-.49-.36c-.66-.46-1.37-.88-2.13-1.17-.76-.29-1.56-.5-2.4-.51Z"/>
          <path class="cls-7" d="M102.35,148.8c-4.05-3.31-2.1-7.82-2.08-7.87.04-.09.14-.13.23-.09.09.04.13.14.09.23-.08.18-1.86,4.31,1.87,7.41.08.06.09.17.02.25-.03.04-.08.06-.14.06Z"/>
          <g>
            <path class="cls-13" d="M134.09,163.52s-.69.9-1.94.9c-2,0-6.94-1.72-7.13-1.8,4.27.44,7.04-.07,7.88-.07.44.1.74.35.93.58.18.2.26.38.26.38Z"/>
            <path class="cls-7" d="M132.15,164.6c-1.71-.07-5.34-1.09-7.2-1.81-.55-.21-1.01-.4-1.35-.53-.09-.04-.14-.14-.1-.23.04-.09.14-.14.23-.1.33.14.8.32,1.34.53,2.03.78,5.57,1.73,7.08,1.78,1.13,0,1.79-.83,1.8-.84.06-.08.17-.09.25-.03.08.06.09.17.03.25-.03.04-.76.97-2.08.97Z"/>
            <g>
              <path class="cls-7" d="M134.09,163.52s.42-.02.76-.17l-.76.17Z"/>
              <path class="cls-7" d="M134.09,163.7c-.09,0-.17-.07-.18-.17,0-.1.07-.18.17-.19,0,0,.39-.02.69-.15.09-.04.19,0,.23.09.04.09,0,.2-.09.23-.36.16-.8.18-.82.18h0Z"/>
            </g>
            <path class="cls-7" d="M123.62,162.55c-.07,0-.13-.04-.16-.1,0-.02-.08-.19.01-.39.08-.17.25-.29.51-.36.1-.02.19.04.22.13.02.09-.03.19-.13.21-.15.04-.25.1-.28.16.04.18,0,.28-.09.32-.02.01-.05.01-.07.01Z"/>
          </g>
          <path class="cls-18" d="M131.59,140.62c0,.07,0,.15,0,.22-.79.42-2.13.92-4.32,1.26-.15-.45-.24-.95-.24-1.48,0-1.85,1.02-3.35,2.28-3.35s2.28,1.5,2.28,3.35Z"/>
          <path class="cls-18" d="M142.42,138.76c-.25.12-1.67.52-3.32.57,0-.21.01-.41.04-.61.07.01.14.02.22.02.6,0,1.08-.48,1.08-1.07,0-.35-.17-.66-.43-.85.33-.33.73-.52,1.16-.52s.8.18,1.12.48c-.08.57-.12.87-.12.87.02.07.04.17.08.32.05.19.11.46.17.8Z"/>
          <path class="cls-13" d="M128.46,139.87c0,.76-.62,1.38-1.38,1.38s-1.39-.62-1.39-1.38.62-1.39,1.39-1.39,1.38.62,1.38,1.39Z"/>
        </g>
      </g>
      <g>
        <path class="cls-59" d="M208.34,271.38c-15.65,0-28.71-3.52-39.01-10.52-13.72-9.33-22.53-24.96-26.17-46.42l1.65-.28c3.56,21,12.13,36.25,25.46,45.32,15.63,10.63,37.88,13,66.13,7.02,21.74-4.59,32.35-29.08,37.42-48.81,5.54-21.54,5.86-42.27,5.86-42.48l1.67.02c0,.21-.33,21.11-5.91,42.84-3.29,12.8-7.74,23.4-13.22,31.5-6.9,10.2-15.48,16.45-25.49,18.56-10.24,2.17-19.72,3.25-28.4,3.25Z"/>
        <path class="cls-30" d="M197.09,416.69s46.1,12.92,94.81,0l2.61-52.47-85.94.15-11.47,52.32Z"/>
        <rect class="cls-1" x="275.74" y="352.03" width="97.44" height="8.66"/>
        <g>
          <rect class="cls-57" x="361.82" y="282.76" width="11.36" height="214.66"/>
          <rect class="cls-57" x="275.74" y="282.76" width="11.36" height="214.66"/>
        </g>
        <g>
          <g>
            <path class="cls-13" d="M309.44,270.25h-34.69s-4.39-1.02-1.64-9.44c7.16-3.07,40.67-13.27,40.67-13.27l-4.34,22.71Z"/>
            <path d="M309.59,270.42h-34.88s-1.2-.3-1.98-1.68c-1.01-1.78-.93-4.47.21-7.98,7.19-3.14,40.45-13.29,40.79-13.38l.27-.09-4.42,23.14ZM274.78,270.07h34.52l4.26-22.28c-3.22.98-33.43,10.23-40.31,13.15-1.36,4.21-.87,6.47-.22,7.63.66,1.17,1.6,1.47,1.74,1.51Z"/>
          </g>
          <g>
            <path class="cls-13" d="M331.44,185.74s-11.47,8.9-16.24,22.45c-4.37,12.42-12.11,30.66-15.71,46.06-1.11,4.73.43,13.25,4.92,15.13,8.75,3.65,14.15-5.04,16.58-8.46,9-12.71,23.98-27.95,23.98-42.02,0-16.16-13.52-33.16-13.52-33.16Z"/>
            <path d="M308.53,270.42c-1.3,0-2.7-.27-4.19-.89-4.55-1.9-6.16-10.47-5.02-15.33,2.6-11.13,7.31-23.59,11.46-34.57,1.56-4.15,3.04-8.06,4.26-11.51,4.72-13.44,16.18-22.44,16.29-22.53.38.2,13.8,17.27,13.8,33.3,0,11-9.23,22.87-17.38,33.34-2.39,3.07-4.64,5.97-6.64,8.78-.13.19-.27.39-.42.61-2.13,3.05-6.14,8.81-12.17,8.81ZM331.41,185.98c-1.31,1.06-11.63,9.71-16.04,22.26-1.21,3.45-2.7,7.37-4.26,11.52-4.15,10.97-8.85,23.42-11.45,34.53-1.11,4.74.42,13.09,4.81,14.93,8.14,3.39,13.41-4.16,15.94-7.79.15-.21.29-.42.43-.61,2-2.82,4.25-5.72,6.64-8.79,8.11-10.43,17.3-22.24,17.3-33.12,0-15.15-12.1-31.26-13.37-32.91Z"/>
          </g>
        </g>
        <path class="cls-7" d="M260.99,141.61l-.89,15.89c-.08,1.51,1.27,2.74,2.76,2.45,1.85-2.76,2.24-7.99,2.24-7.99l-.82-3.9-3.28-6.44Z"/>
        <path class="cls-56" d="M300.21,169.01c-7.7,3.62-17.18,5.25-27.78,5.55-1.77.05-3.44-.45-4.84-1.36-1.89-1.22-3.29-3.19-3.75-5.54-1.34-6.8-.86-15.51-3.24-28.25-.13-.67-.26-1.36-.4-2.06-.93-4.54-.94-8.41-.29-11.7,2.72-13.75,17.08-17.45,25.46-17.45,19.38,0,29.35-.02,30.64,22.23.87,14.95-15.81,38.58-15.81,38.58Z"/>
        <path class="cls-7" d="M267.59,173.2c1.4.91,3.07,1.41,4.84,1.36,10.6-.3,19.91-2.32,27.78-5.55,1.11-1.91,13.65-22.92,13.45-23.83-.27-1.28-10.56-1.73-12.43-2.26-1.87-.53-16.79,7.26-16.79,7.26,0,0,.47,8.07-2.44,14.77-5.33,7.01-14.41,8.26-14.41,8.26Z"/>
        <polygon class="cls-7" points="312.55 177.62 282.72 177.62 283.51 148.36 283.59 145.26 286.89 145.77 303.16 148.29 308.58 149.13 308.88 151.34 311.26 168.4 312.55 177.62"/>
        <path class="cls-64" d="M314.46,150.17c.52,3.1.01,5.74-1.25,7.7-4.18,6.47-16.53,5.63-26.82-9.63-.76-1.14-1.51-2.34-2.25-3.63-.06-.11-2.97-.15-2.97-.15l-2.36-.04c-2.24-.27-4.04-2-4.36-4.23-.45-3.11-1.98-7.08-6.85-7.28-5.5,0-7.51,3.79-7.51,3.79,0,0-7.1-2.58-7.57-14.25-.46-11.47,11.36-21,27.12-15.5,25.62-5.74,33.46-1.62,37.03,10.23,3.76,12.48-3.03,22.14-2.4,31.39.04.53.1,1.07.19,1.6Z"/>
        <g>
          <path class="cls-56" d="M287.32,143.05c.01.97-.09,1.99-.31,3.03-.16.75-.37,1.48-.63,2.16-.77,2.02-1.94,3.72-3.29,4.85-1.11.94-2.35,1.49-3.58,1.54-.27.01-.54,0-.8-.04-3.49-.5-5.42-5.13-4.32-10.34.17-.8.4-1.56.68-2.28,1.28-3.28,3.61-5.67,6.05-6.17.53-.11,1.06-.13,1.58-.06,2.79.4,4.59,3.44,4.63,7.3Z"/>
          <path class="cls-7" d="M275.43,145.65c-.64,3.05.08,5.69,1.61,5.92,1.53.22,3.3-2.06,3.94-5.11.65-3.05-.08-5.69-1.61-5.92-1.54-.22-3.3,2.07-3.95,5.11Z"/>
        </g>
        <path class="cls-29" d="M175.06,497.41s48.22.02,48.22.02c0,0,.07-.66.14-1.72.13-2.04.26-5.58-.14-8.92-.6-5.08-1.69-5.79-3.31-7.76-1.62-1.97-13.33,2.87-19.69,0,0,0-12.73,5.7-18.57,7.91-3.76,1.42-6.31,4.87-6.64,8.77-.05.56-.05,1.13-.01,1.7Z"/>
        <g>
          <path class="cls-29" d="M257.35,495.63c0,.55.03,1.11.08,1.7,0,.02,38.46.02,38.46.02,0,0,.07-.65.14-1.72.13-2.04.26-5.58-.14-8.92-.6-5.07-3.31-7.76-3.31-7.76-2.43-1.3-5.89-1.61-9.22-1.49-6.59.24-12.77,3.08-17.46,7.72-1.12,1.12-2.33,2.09-3.86,2.74-3.69,1.56-4.72,4.07-4.68,7.72Z"/>
          <path class="cls-39" d="M264.08,348.29c.07-.1,31.68,22.67,31.68,22.67,3,4.29,4.71,10.04,5.5,16.82,0,0,1.99,9.09,1.52,21.23-.36,9.12-5.1,36.98-4.39,60.13.28,9.08-2.77,16-2.77,16,0,0-6.63.76-24.11-4.27-2.39-21.22-12.85-106.52-12.85-106.52-1.49-9.06.43-18.35,5.41-26.07Z"/>
        </g>
        <path class="cls-19" d="M356.73,331.1c0,12.74-8.78,21.08-8.78,21.08h-50.73s-42.53,11.81-74.29,11.81l-31.38-30.98s9.63-10.29,62.88-20.82c3.28-.65,6.73-1.3,10.36-1.95,3.22-.58,5.95-2.58,7.52-5.33.55-.96.95-2.02,1.19-3.14,0,0,76.68,0,76.68,0,0,0,3.99,11.5,6.57,29.34Z"/>
        <g>
          <path class="cls-13" d="M199.75,473.24c.35,3.69,1.14,11.56,1.14,11.56l19.08-5.77c0-1.74.03-3.5.1-5.29-4.67.29-11.59.38-20.31-.49Z"/>
          <path d="M200.74,485.02l-.02-.21c-.01-.08-.79-7.9-1.14-11.55l-.02-.21.21.02c8.97.89,15.99.76,20.29.49h.19s0,.18,0,.18c-.06,1.78-.1,3.56-.1,5.28,0,.13-19.41,6-19.41,6ZM199.95,473.43c.32,3.38.97,9.88,1.09,11.13l18.76-5.67c0-1.63.03-3.3.09-4.98-4.3.26-11.18.38-19.94-.48Z"/>
        </g>
        <path class="cls-39" d="M231.46,376.55c-.93,25.61-8.6,73.67-5.85,96.68,1.07,8.89-1.44,12.97-1.44,12.97,0,0-21,4.69-29.68-4.63-2.39-21.23-8.42-122.39-8.42-122.39-1.49-9.06.43-18.35,5.41-26.06.07-.11,38.81,28.23,38.81,28.23,1.18,2.61,1.44,8.03,1.18,15.21Z"/>
        <path class="cls-61" d="M355.63,316.26c-43.24,24.77-88.22-6.85-88.22-6.85,0,0,6.91-24.2,4.18-44.57-.93-6.91-2.97-12.83-5.27-17.64-6.28-13.15-9.51-27.55-9.15-42.12.01-.58.03-1.16.04-1.73.29-11.96,8.73-22.16,20.42-24.7.94-.21,1.9-.41,2.88-.6.72-.14,1.46-.29,2.21-.43.94-.17,1.88-.33,2.81-.48,6.86-1.1,13.56-1.59,19.52-1.81,3.6-.14,7.2.2,10.68.98,4.4.99,8.63,2.69,12.5,5.07.13.08.25.15.37.23,6.88,4.28,11.96,10.76,14.58,18.25,5.83,12.64,7.99,67.79,8.64,90.99.18,6.5,1,12.96,2.45,19.3.4,1.74.85,3.76,1.35,6.11Z"/>
        <path class="cls-12" d="M277.29,376.55l1.68,48.33s24.97,4.85,39.91,0v-53.14l-41.59,4.81Z"/>
        <path class="cls-61" d="M267.41,309.41s-66.12,5.84-79.18,23.6c-13.06,17.75-3.82,89.94-3.82,89.94,0,0,28.85,7.26,50.25,4,1.45-28.66,2.9-50.06,2.9-50.06l54.33-35.55-3.91-23.58-20.58-8.35Z"/>
        <path class="cls-59" d="M216.07,364.06c-16.03-14.43-19.16-30.73-18.97-41.87.22-12.01,4.24-20.64,4.41-21.01l8.81,4.18-4.41-2.09,4.41,2.07c-.03.07-3.39,7.39-3.49,17.4-.13,13.1,5.17,24.56,15.74,34.07l-6.52,7.25Z"/>
        <g>
          <path class="cls-32" d="M317.05,361.59c.21,2.07.1,4.45-.58,7.09-1.2,4.65-5.43,7.87-10.22,7.87h-106.73s-.06-.11-.18-.32c-5.92-10.84,2-24.06,14.35-24.06h92.86c5.39,0,9.97,4.05,10.51,9.42Z"/>
          <path class="cls-11" d="M393.38,361.59c.21,2.07.1,4.45-.58,7.09-1.19,4.65-5.42,7.87-10.22,7.87h-99.5c-5.03,0-9.35-3.54-10.36-8.46-.37-1.81-.59-3.8-.5-5.86.27-5.63,4.92-10.06,10.56-10.06h100.09c5.39,0,9.97,4.05,10.51,9.42Z"/>
          <g>
            <path class="cls-49" d="M342.97,489.63c0,4.3,3.49,7.8,7.79,7.8s7.8-3.49,7.8-7.8-3.49-7.79-7.8-7.79-7.79,3.49-7.79,7.79Z"/>
            <path class="cls-49" d="M269.5,489.63c0,4.3,3.49,7.8,7.79,7.8s7.79-3.49,7.79-7.8-3.49-7.79-7.79-7.79-7.79,3.49-7.79,7.79Z"/>
            <rect class="cls-17" x="308.68" y="376.55" width="10.2" height="76.74" transform="translate(627.56 829.84) rotate(180)"/>
            <path class="cls-20" d="M305.23,453.29h17.11v23.89c0,1.02-.83,1.86-1.86,1.86h-13.4c-1.03,0-1.86-.83-1.86-1.86v-23.89h0Z" transform="translate(627.57 932.32) rotate(180)"/>
            <path class="cls-17" d="M267.64,489.63h92.29c0-5.85-4.75-10.59-10.6-10.59h-71.09c-5.85,0-10.6,4.74-10.6,10.59h0Z"/>
            <path class="cls-32" d="M307.88,448.45h11.81v4.09c0,.42-.34.76-.76.76h-10.3c-.42,0-.75-.34-.75-.75v-4.09h0Z" transform="translate(627.56 901.74) rotate(180)"/>
          </g>
        </g>
        <path class="cls-32" d="M265.15,352.03s26.91-32.14,22.75-143.03c-.25-6.7,3.7-12.86,9.91-15.37,19.32-7.77,56.48-11.28,75.92.51,4.23,2.56,7.03,6.95,7.58,11.87,9.81,86.93-12.92,146.16-12.92,146.16l-103.25-.15Z"/>
        <path class="cls-11" d="M385.81,346.1c-.68,2.18-1.23,3.8-1.59,4.81-.29.83-.45,1.26-.45,1.26l-103.25-.15s1.48-1.77,3.7-5.92c7.23-13.51,22.23-52.26,19.04-137.1-.25-6.7,3.7-12.87,9.91-15.36,13.63-5.48,36.12-8.84,55.02-6.21,7.9,1.09,15.17,3.24,20.9,6.72,4.23,2.56,7.03,6.95,7.59,11.87,7.96,70.58-5.53,122.91-10.88,140.08Z"/>
        <path class="cls-59" d="M285.89,307.8h-90.8c-2.58,0-4.66-2.08-4.66-4.66v-.82c0-5.73,4.65-10.37,10.37-10.37h86.57c2.89,0,5.04,2.67,4.43,5.5l-1.48,6.79c-.45,2.08-2.3,3.57-4.43,3.57Z"/>
        <path class="cls-17" d="M306.28,376.55h15v20.41c0,1.34-1.09,2.43-2.43,2.43h-10.14c-1.34,0-2.43-1.09-2.43-2.43v-20.42h0Z"/>
        <rect class="cls-59" x="308.71" y="399.4" width="10.17" height="3.66"/>
        <path class="cls-38" d="M313.2,157.87c-4.18,6.47-16.53,5.63-26.82-9.63.26-.68.48-1.41.63-2.16.22-1.05.32-2.07.31-3.03,4.17,4.41,14.04,12.29,26.95,5.52.04.53.1,1.07.19,1.6.52,3.1.01,5.74-1.25,7.7Z"/>
        <path class="cls-62" d="M281.11,135.81c-2.43.5-4.77,2.89-6.05,6.17-.31-.54-.53-1.15-.62-1.79-.45-3.11-1.98-7.08-6.85-7.28-5.5,0-7.51,3.79-7.51,3.79,0,0,2.11-7.05,11.64-6.41,4.7.32,7.63,2.95,9.39,5.51Z"/>
        <g>
          <path class="cls-7" d="M148.23,202.98l-6.38.55c-1.27.11-2.31,1.06-2.53,2.32l-.03.19c-.98,1.39-1.26,3.16-.74,4.78-.32,1.18-.25,2.33.24,3.31l.21.43c-.27.95.15,1.95,1.02,2.42l5.72,3.06,3.92-5.47-1.44-11.58Z"/>
          <path class="cls-61" d="M281.65,185.59c-7.45-5.49-13.66-3.07-17.67.92-12.81,12.74-44.25,57.4-44.25,57.4l14.58,13.67s41.93-31.94,47.34-41.3c6.77-11.72,8.31-24.55,0-30.69Z"/>
          <path class="cls-32" d="M263.52,234.31c-.2-.14-.19-.24-.12-.31,10.2-8.69,16.29-14.68,18.09-17.8,7.51-12.99,7.52-24.95.05-30.46-.08-.06-.1-.17-.04-.25.06-.08.17-.1.25-.04,7.63,5.63,7.65,17.77.05,30.93-1.82,3.15-7.94,9.17-18.17,17.89-.03.03-.07.04-.11.04Z"/>
          <path class="cls-56" d="M161.46,228.83c-3.52-2.18-5.65-3.54-5.65-3.54l3.89-10.98s1.15.36,3.14.99c-.53,2.33-1.59,7.83-1.39,13.54Z"/>
          <path class="cls-56" d="M159.71,214.3s-4.44-8.16-9.39-10.83c-2.79-1.51-8.08.8-8.8,2.4-.21.48-.39.96-.53,1.44-1.55,5.27,1.02,10.88,5.9,13.39l8.93,4.59,3.89-10.99Z"/>
          <path class="cls-61" d="M225.3,236.51c-2.35-1.26-9.36-3.81-17.97-6.75-.1-.03-44.21-15.63-44.21-15.63,0,0-.11.41-.28,1.16-.53,2.33-1.59,7.83-1.39,13.54.06,1.92.28,3.86.7,5.71,14.36,10.12,49.87,22.2,50.43,22.39,4.13,1.73,7.72,2.95,10.43,3.39,4.49.74,11.3-2.73,11.3-2.73,0,0,2.12-15.15-9.01-21.08Z"/>
        </g>
        <path class="cls-59" d="M280.7,146.05c0,1.37-1.11,2.49-2.49,2.49s-2.48-1.11-2.48-2.49,1.11-2.48,2.48-2.48,2.49,1.11,2.49,2.48Z"/>
        <path class="cls-6" d="M282.72,177.23h-2.2c-1.39,0-2.74-.58-3.69-1.6-.96-1.02-1.45-2.4-1.35-3.8l1.74-25.59c.04-.55.52-.97,1.06-.93.55.04.97.51.93,1.06l-1.74,25.59c-.06.85.23,1.67.82,2.29.58.62,1.38.97,2.23.97h2.2c.55,0,1,.45,1,1s-.45,1-1,1Z"/>
        <path class="cls-61" d="M315.73,176.31c-3.49-.78-7.08-1.12-10.68-.98-5.95.22-12.66.71-19.52,1.81-.93.15-1.87.31-2.81.48-.75.14-1.48.28-2.21.43v-4.72s14.8-5.98,32.03-4.14c1.73,3.86,2.67,5.96,3.18,7.12Z"/>
        <path class="cls-18" d="M265.89,139.11l.1.95c.02.2-.17.36-.38.32-.69-.12-2.23-.3-4.87-.17-.04-.83,1.81-1.6,4.85-1.38.16,0,.29.13.31.28Z"/>
        <path class="cls-13" d="M261.31,143.94c.03.19.07.49.11.81.24.12,1.21.37,2.78.41.18,0,.35,0,.53,0,.14-.96.27-1.93.38-2.89-.02-.4-.04-.81-.08-1.23-.41-.11-.8-.17-1.14-.2-1.94-.21-2.93.47-2.93.47.08.58.14,1.05.19,1.42.07.54.11.83.11.83-.02.07,0,.19.04.39Z"/>
        <path class="cls-7" d="M265.03,141.04c-.32-.15-.66-.26-1.01-.32-.35-.06-.71-.1-1.06-.09-.35.02-.71.07-1.05.17-.34.11-.68.26-.94.5.33-.12.66-.19,1-.24.33-.05.67-.08,1.01-.09.34-.02.68,0,1.02,0l1.04.06Z"/>
        <path class="cls-18" d="M261.41,144.74c.24.12,1.21.37,2.78.41,0-.2-.01-.39-.04-.58-.01-.19,0-.28-.01-.35-.02-.24-.1-.52-.26-.76-.18-.28-.38-.55-.55-.71-.32-.32-.7-.5-1.11-.5s-.76.17-1.07.46c.04.55.1.83.1.83,0,.09.03.22.06.4s.06.47.11.79Z"/>
        <g>
          <path class="cls-7" d="M263.07,162.01c.34.08.62.37,2.39-.31.52-.2.97-.38,1.29-.51.09-.03.13-.13.09-.22-.04-.09-.13-.13-.22-.09-.32.13-.75.35-1.28.5"/>
          <path class="cls-7" d="M266.73,161.47c.07,0,.13-.03.16-.1,0-.02.08-.18-.01-.37-.08-.16-.24-.27-.49-.34-.09-.02-.18.03-.21.12-.02.09.03.18.12.2.14.04.24.09.27.15-.03.17,0,.27.09.31.02,0,.05.01.07.01Z"/>
        </g>
      </g>
      <path class="cls-7" d="M84.45,250.4c-.03,1.11-.05,2.19-.07,3.26-9.53,3.03-20.12,1.21-22.34.77-.12-.83-.24-1.67-.35-2.52,9.68,2.32,18.46.02,22.77-1.51Z"/>
    </g>
    <path class="cls-28" d="M118.1,277.13c-4.06-.04-8.2,0-12.27.14-7.44-2.85-12.77-4.98-16.97-6.01-.35-7.91-1.03-16.31-2.31-21.69.44-.2.68-.32.68-.32,2.25-20.79,2.35-36.18-.08-46.66,3.6,9.62,7.96,24.35,8.88,40.88.79,14.36,9.23,27.19,22.07,33.64h0Z"/>
    <path class="cls-7" d="M128.41,174h-5.63s-14.5-5.82-17.86-8.27c-1.11-1.42-2.66-4.53-3.78-6.89.18-2.35.33-4.96.45-7.86.38.16.76.29,1.13.36.93,2.89,1.96,6.24,2.25,7.72,2.47,4.65,16.63,13.47,19.5,13.96.75.15,2.27.18,3.9.17,0,.29.02.56.04.81Z"/>
  </g>
  <g>
    <ellipse class="cls-5" cx="383.78" cy="119.82" rx="17.46" ry="17.32"/>
    <polygon class="cls-9" points="391.65 112.24 391.42 112.01 403.72 99.8 403.95 100.03 391.65 112.24"/>
    <polygon class="cls-13" points="371.75 139.85 363.6 131.76 365.68 129.7 373.83 137.79 371.75 139.85"/>
    <polygon class="cls-41" points="370.94 134.92 368.56 132.57 391.68 109.62 394.06 111.98 370.94 134.92"/>
    <polygon class="cls-13" points="377.9 130.65 372.86 125.65 388.42 110.21 393.46 115.21 377.9 130.65"/>
    <polygon class="cls-41" points="377.9 130.65 372.86 125.65 373.57 124.95 378.61 129.95 377.9 130.65"/>
    <polygon class="cls-13" points="377.38 134.26 369.23 126.17 371.31 124.11 379.46 132.2 377.38 134.26"/>
    <polygon class="cls-58" points="389.96 114.09 388.01 112.15 388.27 111.9 390.22 113.83 389.96 114.09"/>
    <polygon class="cls-58" points="388.49 114.01 387.32 112.85 387.57 112.59 388.75 113.76 388.49 114.01"/>
    <polygon class="cls-58" points="387.79 114.71 386.62 113.54 386.87 113.29 388.05 114.45 387.79 114.71"/>
    <polygon class="cls-58" points="387.09 115.4 385.92 114.23 386.17 113.98 387.35 115.15 387.09 115.4"/>
    <polygon class="cls-58" points="386.4 116.09 385.22 114.93 385.47 114.67 386.65 115.84 386.4 116.09"/>
    <polygon class="cls-58" points="386.45 117.57 384.5 115.64 384.76 115.38 386.71 117.32 386.45 117.57"/>
    <polygon class="cls-58" points="384.98 117.5 383.8 116.33 384.06 116.08 385.23 117.24 384.98 117.5"/>
    <polygon class="cls-58" points="384.28 118.19 383.1 117.02 383.36 116.77 384.54 117.94 384.28 118.19"/>
    <polygon class="cls-58" points="383.58 118.88 382.41 117.72 382.66 117.46 383.84 118.63 383.58 118.88"/>
    <polygon class="cls-58" points="382.88 119.58 381.71 118.41 381.96 118.16 383.14 119.32 382.88 119.58"/>
    <polygon class="cls-58" points="382.94 121.06 380.99 119.12 381.25 118.87 383.2 120.81 382.94 121.06"/>
    <polygon class="cls-58" points="381.47 120.98 380.29 119.82 380.55 119.56 381.72 120.73 381.47 120.98"/>
    <polygon class="cls-58" points="380.77 121.68 379.59 120.51 379.85 120.26 381.02 121.42 380.77 121.68"/>
    <polygon class="cls-58" points="380.07 122.37 378.89 121.2 379.15 120.95 380.33 122.12 380.07 122.37"/>
    <polygon class="cls-58" points="379.37 123.06 378.2 121.9 378.45 121.64 379.63 122.81 379.37 123.06"/>
    <polygon class="cls-58" points="379.43 124.54 377.48 122.61 377.73 122.35 379.68 124.29 379.43 124.54"/>
    <polygon class="cls-58" points="377.96 124.47 376.78 123.3 377.03 123.05 378.21 124.22 377.96 124.47"/>
    <polygon class="cls-58" points="377.26 125.16 376.08 123.99 376.34 123.74 377.51 124.91 377.26 125.16"/>
    <polygon class="cls-58" points="376.56 125.85 375.38 124.69 375.64 124.43 376.81 125.6 376.56 125.85"/>
    <polygon class="cls-58" points="375.86 126.55 374.68 125.38 374.94 125.13 376.12 126.29 375.86 126.55"/>
  </g>
  <g>
    <path class="cls-41" d="M125.12,414.79h-5.42v-12.76c0-3.44-2.8-6.25-6.25-6.25h-33.73c-3.44,0-6.25,2.8-6.25,6.25v12.76h-5.42v-12.76c0-6.43,5.23-11.67,11.67-11.67h33.73c6.43,0,11.67,5.23,11.67,11.67v12.76Z"/>
    <rect class="cls-53" x="20.83" y="411.74" width="117.47" height="85.69"/>
    <rect class="cls-41" x="138.31" y="411.74" width="34.52" height="85.69" transform="translate(311.13 909.17) rotate(180)"/>
    <circle class="cls-51" cx="79.57" cy="454.58" r="28.45"/>
    <g>
      <rect class="cls-13" x="70.76" y="435.39" width="18.28" height="38.39"/>
      <rect class="cls-13" x="70.76" y="435.39" width="18.28" height="38.39" transform="translate(534.49 374.68) rotate(90)"/>
    </g>
  </g>
</svg>