<?xml version="1.0" encoding="UTF-8"?>
<svg xmlns="http://www.w3.org/2000/svg" xmlns:xlink="http://www.w3.org/1999/xlink" viewBox="0 0 668 512">
  <defs>
    <style>
      .cls-1 {
        fill: #a2a7ae;
      }

      .cls-2 {
        fill: url(#linear-gradient-43);
      }

      .cls-2, .cls-3, .cls-4, .cls-5, .cls-6, .cls-7, .cls-8, .cls-9 {
        opacity: .3;
      }

      .cls-2, .cls-3, .cls-4, .cls-7, .cls-8, .cls-10, .cls-9, .cls-11 {
        mix-blend-mode: multiply;
      }

      .cls-12 {
        fill: url(#linear-gradient-61);
      }

      .cls-13 {
        fill: url(#linear-gradient-15);
      }

      .cls-14 {
        fill: url(#linear-gradient-13);
      }

      .cls-15 {
        fill: url(#linear-gradient-28);
      }

      .cls-16 {
        fill: url(#linear-gradient-53);
      }

      .cls-17 {
        fill: url(#linear-gradient-42);
      }

      .cls-3 {
        fill: url(#linear-gradient-39);
      }

      .cls-18 {
        fill: url(#linear-gradient-46);
      }

      .cls-19 {
        fill: #ad8e50;
      }

      .cls-20 {
        fill: #d9e8ff;
      }

      .cls-21 {
        fill: url(#linear-gradient-60);
      }

      .cls-22 {
        fill: url(#linear-gradient-2);
      }

      .cls-23 {
        opacity: .05;
      }

      .cls-24 {
        fill: url(#linear-gradient-56);
      }

      .cls-25 {
        fill: url(#linear-gradient-25);
      }

      .cls-26 {
        fill: url(#linear-gradient-10);
      }

      .cls-27 {
        fill: url(#linear-gradient-12);
      }

      .cls-28 {
        fill: url(#linear-gradient-40);
      }

      .cls-29 {
        fill: url(#linear-gradient-27);
      }

      .cls-4, .cls-30 {
        fill: #97a6b7;
      }

      .cls-31 {
        fill: url(#linear-gradient-55);
      }

      .cls-32 {
        fill: #c9c9c9;
      }

      .cls-33, .cls-34, .cls-35, .cls-36, .cls-37 {
        fill: #fff;
      }

      .cls-38, .cls-6, .cls-37 {
        mix-blend-mode: soft-light;
      }

      .cls-39 {
        fill: url(#linear-gradient-52);
      }

      .cls-40 {
        fill: #b9e5e8;
      }

      .cls-41 {
        fill: #4678c1;
      }

      .cls-42 {
        fill: url(#linear-gradient-58);
      }

      .cls-43 {
        fill: url(#linear-gradient-47);
      }

      .cls-44 {
        fill: url(#linear-gradient-26);
      }

      .cls-45 {
        fill: url(#linear-gradient-4);
      }

      .cls-46 {
        fill: url(#linear-gradient-35);
      }

      .cls-47 {
        fill: url(#linear-gradient-30);
      }

      .cls-48 {
        fill: #4c360f;
      }

      .cls-49 {
        fill: url(#linear-gradient-44);
      }

      .cls-50 {
        fill: url(#linear-gradient-49);
      }

      .cls-51 {
        fill: url(#linear-gradient-3);
      }

      .cls-52 {
        fill: url(#linear-gradient-34);
      }

      .cls-6 {
        fill: #f4f7fa;
      }

      .cls-53 {
        fill: url(#linear-gradient-5);
      }

      .cls-7 {
        fill: url(#linear-gradient-37);
      }

      .cls-54 {
        fill: url(#linear-gradient-38);
      }

      .cls-55 {
        fill: url(#linear-gradient-22);
      }

      .cls-56 {
        fill: url(#linear-gradient-24);
      }

      .cls-57 {
        fill: #a0a0a0;
      }

      .cls-58 {
        fill: url(#linear-gradient-54);
      }

      .cls-59 {
        isolation: isolate;
      }

      .cls-60 {
        fill: url(#linear-gradient-33);
      }

      .cls-61 {
        fill: url(#linear-gradient-51);
      }

      .cls-62 {
        fill: url(#linear-gradient-8);
      }

      .cls-34 {
        opacity: .25;
      }

      .cls-63, .cls-10 {
        opacity: .15;
      }

      .cls-64 {
        fill: url(#linear-gradient-57);
      }

      .cls-65, .cls-66 {
        fill: #d0344a;
      }

      .cls-8, .cls-67 {
        fill: #d8dee8;
      }

      .cls-9 {
        fill: #0080f9;
      }

      .cls-68 {
        fill: url(#linear-gradient-14);
      }

      .cls-69 {
        fill: url(#linear-gradient-62);
      }

      .cls-70 {
        fill: url(#linear-gradient-29);
      }

      .cls-71 {
        fill: url(#linear-gradient-20);
      }

      .cls-72 {
        fill: url(#linear-gradient-17);
      }

      .cls-35, .cls-73 {
        opacity: .1;
      }

      .cls-74 {
        fill: url(#linear-gradient-50);
      }

      .cls-75 {
        fill: url(#linear-gradient-7);
      }

      .cls-76 {
        fill: url(#linear-gradient-9);
      }

      .cls-77 {
        fill: #7eb7b6;
      }

      .cls-78 {
        fill: url(#linear-gradient-59);
      }

      .cls-79 {
        fill: #ebeff2;
      }

      .cls-80 {
        fill: url(#linear-gradient-11);
      }

      .cls-81 {
        fill: url(#linear-gradient-19);
      }

      .cls-82 {
        fill: #8dafe2;
      }

      .cls-83 {
        fill: url(#linear-gradient-6);
      }

      .cls-36 {
        opacity: .74;
      }

      .cls-37, .cls-84, .cls-11 {
        opacity: .5;
      }

      .cls-85 {
        fill: url(#linear-gradient-36);
      }

      .cls-86 {
        fill: url(#linear-gradient-21);
      }

      .cls-87 {
        fill: url(#linear-gradient-45);
      }

      .cls-88 {
        fill: url(#linear-gradient-48);
      }

      .cls-89 {
        fill: url(#linear-gradient-32);
      }

      .cls-90 {
        fill: url(#linear-gradient-41);
      }

      .cls-91 {
        fill: #398aff;
      }

      .cls-92 {
        fill: url(#linear-gradient-16);
      }

      .cls-93 {
        fill: #eaeaea;
      }

      .cls-94 {
        fill: url(#linear-gradient);
      }

      .cls-66 {
        opacity: .4;
      }

      .cls-95 {
        fill: url(#linear-gradient-23);
      }

      .cls-96 {
        fill: url(#linear-gradient-31);
      }

      .cls-97 {
        fill: url(#linear-gradient-18);
      }
    </style>
    <linearGradient id="linear-gradient" x1="448.34" y1="92.76" x2="566.17" y2="92.76" gradientUnits="userSpaceOnUse">
      <stop offset="0" stop-color="#444b8c"/>
      <stop offset="1" stop-color="#26264f"/>
    </linearGradient>
    <linearGradient id="linear-gradient-2" x1="120.86" y1="321.05" x2="196.71" y2="321.05" gradientUnits="userSpaceOnUse">
      <stop offset="0" stop-color="#ffc444"/>
      <stop offset="1" stop-color="#f36f56"/>
    </linearGradient>
    <linearGradient id="linear-gradient-3" x2="196.71" xlink:href="#linear-gradient-2"/>
    <linearGradient id="linear-gradient-4" x1="5748.57" y1="291.8" x2="5830.55" y2="272.86" gradientTransform="translate(6050.55) rotate(-180) scale(1 -1)" gradientUnits="userSpaceOnUse">
      <stop offset="0" stop-color="#26264f"/>
      <stop offset="1" stop-color="#444b8c"/>
    </linearGradient>
    <linearGradient id="linear-gradient-5" x1="5750.84" y1="292.04" x2="5831.02" y2="273.52" gradientTransform="translate(6050.55) rotate(-180) scale(1 -1)" xlink:href="#linear-gradient"/>
    <linearGradient id="linear-gradient-6" x1="342.47" y1="330.88" x2="494.91" y2="564.85" xlink:href="#linear-gradient"/>
    <linearGradient id="linear-gradient-7" x1="5012.13" y1="320.44" x2="5012.7" y2="328.82" gradientTransform="translate(5248.21) rotate(-180) scale(1 -1)" gradientUnits="userSpaceOnUse">
      <stop offset="0" stop-color="#f36f56"/>
      <stop offset="1" stop-color="#ffc444"/>
    </linearGradient>
    <linearGradient id="linear-gradient-8" x1="5015.79" y1="301.77" x2="5014.97" y2="291.91" gradientTransform="translate(5212.23 -235.55) rotate(176.92) scale(1 -1)" xlink:href="#linear-gradient-4"/>
    <linearGradient id="linear-gradient-9" x1="5012.88" y1="287.24" x2="5013.67" y2="316.29" gradientTransform="translate(5212.23 -235.55) rotate(176.92) scale(1 -1)" xlink:href="#linear-gradient-7"/>
    <linearGradient id="linear-gradient-10" x1="3835.45" y1="176.67" x2="3843.16" y2="184.8" gradientTransform="translate(-3536.43 1150.94) rotate(-14.98)" xlink:href="#linear-gradient-7"/>
    <linearGradient id="linear-gradient-11" x1="4988.91" y1="328.25" x2="4990.53" y2="333.43" xlink:href="#linear-gradient-7"/>
    <linearGradient id="linear-gradient-12" x1="4406.8" y1="445.4" x2="4401.6" y2="428.28" gradientTransform="translate(-4175.25 -60.31) rotate(.79)" xlink:href="#linear-gradient"/>
    <linearGradient id="linear-gradient-13" x1="4402.33" y1="442.08" x2="4402.33" y2="414.5" gradientTransform="translate(-4175.25 -60.31) rotate(.79)" xlink:href="#linear-gradient-2"/>
    <linearGradient id="linear-gradient-14" x1="4411.99" y1="441.05" x2="4411.99" y2="413.47" gradientTransform="translate(-4175.25 -60.31) rotate(.79)" xlink:href="#linear-gradient-2"/>
    <linearGradient id="linear-gradient-15" x1="4413.9" y1="442.09" x2="4408.7" y2="424.94" gradientTransform="translate(-4175.25 -60.31) rotate(.79)" xlink:href="#linear-gradient"/>
    <linearGradient id="linear-gradient-16" x1="-500.37" y1="191.8" x2="-475.12" y2="191.8" gradientTransform="translate(990.49 0) skewX(8.44)" xlink:href="#linear-gradient"/>
    <linearGradient id="linear-gradient-17" x1="505.05" y1="327.15" x2="591.07" y2="327.15" xlink:href="#linear-gradient"/>
    <linearGradient id="linear-gradient-18" x1="594.37" y1="324.23" x2="652.13" y2="324.23" xlink:href="#linear-gradient"/>
    <linearGradient id="linear-gradient-19" x1="593.44" y1="198.56" x2="623.54" y2="183.78" xlink:href="#linear-gradient"/>
    <linearGradient id="linear-gradient-20" x1="-882.07" y1="-414.58" x2="-876.68" y2="-414.58" gradientTransform="translate(1539.23 423.61) rotate(-11.55)" xlink:href="#linear-gradient"/>
    <linearGradient id="linear-gradient-21" x1="85.84" y1="409.86" x2="97.22" y2="483.66" gradientUnits="userSpaceOnUse">
      <stop offset="0" stop-color="#d8dee8"/>
      <stop offset="1" stop-color="#97a6b7"/>
    </linearGradient>
    <linearGradient id="linear-gradient-22" x1="78.17" y1="410.61" x2="155.12" y2="376.38" gradientUnits="userSpaceOnUse">
      <stop offset="0" stop-color="#d8dee8"/>
      <stop offset="1" stop-color="#97a6b7"/>
    </linearGradient>
    <linearGradient id="linear-gradient-23" x1="109.64" y1="410.43" x2="172.56" y2="410.43" xlink:href="#linear-gradient-22"/>
    <linearGradient id="linear-gradient-24" x1="8921.3" y1="443.45" x2="8925.45" y2="443.45" gradientTransform="translate(9371.7) rotate(-180) scale(1 -1)" xlink:href="#linear-gradient"/>
    <linearGradient id="linear-gradient-25" x1="8924.12" y1="448.43" x2="8922.44" y2="434.62" gradientTransform="translate(9371.7) rotate(-180) scale(1 -1)" xlink:href="#linear-gradient-2"/>
    <linearGradient id="linear-gradient-26" x1="8938.94" y1="449.82" x2="8944.23" y2="449.82" gradientTransform="translate(9371.7) rotate(-180) scale(1 -1)" xlink:href="#linear-gradient"/>
    <linearGradient id="linear-gradient-27" x1="8939.96" y1="449.65" x2="8935.25" y2="433.5" gradientTransform="translate(9371.7) rotate(-180) scale(1 -1)" xlink:href="#linear-gradient-2"/>
    <linearGradient id="linear-gradient-28" x1="456.39" y1="346.47" x2="424.55" y2="326.13" xlink:href="#linear-gradient"/>
    <linearGradient id="linear-gradient-29" x1="8948.36" y1="353.33" x2="8952.24" y2="330.1" gradientTransform="translate(9371.7) rotate(-180) scale(1 -1)" xlink:href="#linear-gradient-2"/>
    <linearGradient id="linear-gradient-30" x1="8900.19" y1="375.43" x2="8997.35" y2="375.43" gradientTransform="translate(9371.7) rotate(-180) scale(1 -1)" gradientUnits="userSpaceOnUse">
      <stop offset="0" stop-color="#aa80f9"/>
      <stop offset="1" stop-color="#6165d7"/>
    </linearGradient>
    <linearGradient id="linear-gradient-31" x1="9442.47" y1="1808.82" x2="9442.2" y2="1830.53" gradientTransform="translate(10009.86 1044.99) rotate(-164.92) scale(1 -1)" xlink:href="#linear-gradient-2"/>
    <linearGradient id="linear-gradient-32" x1="382.57" y1="644.89" x2="390.13" y2="644.89" gradientTransform="translate(27.22 -213.47) rotate(2.66)" xlink:href="#linear-gradient"/>
    <linearGradient id="linear-gradient-33" x1="388.46" y1="635.81" x2="384.64" y2="642.79" gradientTransform="translate(27.22 -213.47) rotate(2.66)" xlink:href="#linear-gradient-2"/>
    <linearGradient id="linear-gradient-34" x1="374.24" y1="643.94" x2="387.68" y2="585.34" gradientTransform="translate(27.22 -213.47) rotate(2.66)" xlink:href="#linear-gradient"/>
    <linearGradient id="linear-gradient-35" x1="387.3" y1="451.54" x2="397.7" y2="451.54" xlink:href="#linear-gradient"/>
    <linearGradient id="linear-gradient-36" x1="392.95" y1="451.01" x2="396.98" y2="442.68" xlink:href="#linear-gradient-2"/>
    <linearGradient id="linear-gradient-37" x1="374.42" y1="643.98" x2="387.86" y2="585.38" gradientTransform="translate(27.22 -213.47) rotate(2.66)" xlink:href="#linear-gradient-30"/>
    <linearGradient id="linear-gradient-38" x1="386.8" y1="421.83" x2="410.53" y2="384.42" xlink:href="#linear-gradient"/>
    <linearGradient id="linear-gradient-39" x1="389.83" y1="423.76" x2="413.56" y2="386.35" gradientTransform="matrix(1,0,0,1,0,0)" xlink:href="#linear-gradient-30"/>
    <linearGradient id="linear-gradient-40" x1="389.82" y1="393.53" x2="379.65" y2="352.27" gradientUnits="userSpaceOnUse">
      <stop offset="0" stop-color="#61a7d7"/>
      <stop offset="1" stop-color="#aaecf9"/>
    </linearGradient>
    <linearGradient id="linear-gradient-41" x1="8934.47" y1="-1620.76" x2="8934.93" y2="-1632.83" gradientTransform="translate(9225.83 -1728.28) rotate(156.5) scale(1 -1)" xlink:href="#linear-gradient-2"/>
    <linearGradient id="linear-gradient-42" x1="9024.67" y1="-1901.02" x2="9024.41" y2="-1879.89" gradientTransform="translate(9312.71 -1959.55) rotate(153.67) scale(1 -1)" xlink:href="#linear-gradient-2"/>
    <linearGradient id="linear-gradient-43" x1="398.8" y1="391.32" x2="388.62" y2="350.04" gradientUnits="userSpaceOnUse">
      <stop offset="0" stop-color="#b1d4eb"/>
      <stop offset="1" stop-color="#d4f5fc"/>
    </linearGradient>
    <linearGradient id="linear-gradient-44" x1="390.45" y1="365.35" x2="390.79" y2="356.32" xlink:href="#linear-gradient-2"/>
    <linearGradient id="linear-gradient-45" x1="388.82" y1="351.72" x2="382.64" y2="373.54" xlink:href="#linear-gradient-2"/>
    <linearGradient id="linear-gradient-46" x1="410.5" y1="395.92" x2="400.33" y2="354.68" xlink:href="#linear-gradient-40"/>
    <linearGradient id="linear-gradient-47" x1="384.25" y1="402.46" x2="374.07" y2="361.19" xlink:href="#linear-gradient-40"/>
    <linearGradient id="linear-gradient-48" x1="407.44" y1="350.26" x2="411.05" y2="367.78" xlink:href="#linear-gradient-2"/>
    <linearGradient id="linear-gradient-49" x1="490.73" y1="29.99" x2="1471.43" y2="672.94" gradientTransform="matrix(1,0,0,1,0,0)" xlink:href="#linear-gradient-7"/>
    <linearGradient id="linear-gradient-50" x1="562.37" y1="68.83" x2="741.56" y2="186.31" xlink:href="#linear-gradient-2"/>
    <linearGradient id="linear-gradient-51" x1="544.89" y1="106.47" x2="783.56" y2="262.94" xlink:href="#linear-gradient-2"/>
    <linearGradient id="linear-gradient-52" x1="551.52" y1="89.1" x2="561.41" y2="89.1" gradientUnits="userSpaceOnUse">
      <stop offset="0" stop-color="#311944"/>
      <stop offset="1" stop-color="#893976"/>
    </linearGradient>
    <linearGradient id="linear-gradient-53" x1="561.55" y1="89.63" x2="572.05" y2="89.63" xlink:href="#linear-gradient-52"/>
    <linearGradient id="linear-gradient-54" x1="573.06" y1="90.06" x2="582.73" y2="90.06" xlink:href="#linear-gradient-52"/>
    <linearGradient id="linear-gradient-55" x1="584.3" y1="90.49" x2="593.76" y2="90.49" xlink:href="#linear-gradient-52"/>
    <linearGradient id="linear-gradient-56" x1="595.13" y1="90.98" x2="598.35" y2="90.98" xlink:href="#linear-gradient-52"/>
    <linearGradient id="linear-gradient-57" x1="599.7" y1="91.37" x2="609.54" y2="91.37" xlink:href="#linear-gradient-52"/>
    <linearGradient id="linear-gradient-58" x1="610.87" y1="91.79" x2="617.98" y2="91.79" xlink:href="#linear-gradient-52"/>
    <linearGradient id="linear-gradient-59" x1="618.48" y1="92.24" x2="627.97" y2="92.24" xlink:href="#linear-gradient-52"/>
    <linearGradient id="linear-gradient-60" x1="628.81" y1="92.72" x2="637.71" y2="92.72" xlink:href="#linear-gradient-52"/>
    <linearGradient id="linear-gradient-61" x1="637.61" y1="93.03" x2="646.73" y2="93.03" xlink:href="#linear-gradient-52"/>
    <linearGradient id="linear-gradient-62" x1="599.12" y1="103.53" x2="599.12" y2="77.55" gradientUnits="userSpaceOnUse">
      <stop offset="0" stop-color="#311944"/>
      <stop offset=".07" stop-color="#45204f"/>
      <stop offset=".19" stop-color="#5e295d"/>
      <stop offset=".31" stop-color="#713068"/>
      <stop offset=".46" stop-color="#7e3570"/>
      <stop offset=".65" stop-color="#863874"/>
      <stop offset="1" stop-color="#893976"/>
    </linearGradient>
  </defs>
  <g class="cls-59">
    <g id="Layer_1" data-name="Layer 1">
      <g>
        <path class="cls-9" d="M68.22,327.91c-.07,0-.15,0-.22,0-.99-.06-1.78-.8-1.93-1.81l-12.22-81.69-12.54,60.12c-.21.99-1.01,1.74-1.99,1.86-.98.13-1.9-.42-2.27-1.33l-10.95-27.1-6.38,13.11c-.39.79-1.17,1.31-2.04,1.33l-13.07.38c-1.28.04-2.31-.97-2.31-2.26s1.03-2.35,2.31-2.39l11.66-.31,8.01-16.43c.4-.82,1.22-1.32,2.11-1.31.89.02,1.67.56,2.01,1.39l10.06,24.95,13.59-65.01c.22-1.07,1.15-1.82,2.22-1.79,1.06.03,1.95.84,2.11,1.92l12.7,85.13,14.37-40.84c.31-.88,1.11-1.48,2.01-1.5.89-.02,1.69.55,2,1.42l6.66,18.67,8.06-19.98c.32-.8,1.05-1.34,1.87-1.38.81-.04,1.57.42,1.94,1.18l5.28,11.03,26.22-.71,5.95-14.52c.33-.8,1.08-1.33,1.86-1.33.8,0,1.53.5,1.84,1.29l8.74,22.01,11.4-58.96c.19-1,1-1.71,1.93-1.71.01,0,.02,0,.03,0,.94.02,1.74.76,1.91,1.77l12.73,78.62,11.49-38.3c.25-.83.94-1.42,1.73-1.48.79-.05,1.52.42,1.84,1.21l7.4,18.26,7.35-18.58c.28-.7.87-1.18,1.54-1.27.68-.08,1.33.24,1.72.86l6.18,9.82,21.54-.58,6.04-13.07c.33-.7.98-1.12,1.67-1.13.69.02,1.31.48,1.59,1.2l7.83,20.19,10.26-55.99c.18-.96.91-1.67,1.77-1.62.85.02,1.57.73,1.71,1.7l10.75,74.14,6.86-25.32c.23-.84.9-1.43,1.65-1.45l39.33-1.06c.92-.02,1.66.84,1.66,1.92s-.74,1.99-1.66,2.02l-38.06,1.11-8.65,31.96c-.24.9-.99,1.52-1.79,1.49-.81-.03-1.47-.69-1.6-1.61l-10.44-71.88-9.44,51.61c-.16.88-.79,1.55-1.57,1.67-.78.11-1.51-.35-1.83-1.15l-8.6-22.13-4.78,10.36c-.32.68-.93,1.12-1.61,1.14l-23.62.69c-.61.02-1.19-.3-1.54-.86l-4.85-7.69-7.7,19.5c-.3.77-.98,1.28-1.73,1.31-.75.03-1.43-.44-1.74-1.19l-7.16-17.62-12.31,41.09c-.28.94-1.09,1.58-1.98,1.54-.89-.03-1.62-.72-1.77-1.67l-12.34-76.08-10.57,54.76c-.18.93-.89,1.64-1.76,1.77-.86.13-1.69-.38-2.03-1.23l-9.44-23.73-4.58,11.2c-.33.8-1.05,1.32-1.85,1.35l-28.83.84c-.79.02-1.52-.43-1.87-1.17l-3.85-8.02-8.33,20.71c-.34.85-1.13,1.42-2,1.42-.87,0-1.64-.54-1.94-1.39l-6.53-18.26-15.21,43.33c-.32.9-1.13,1.52-2.04,1.56Z"/>
        <path class="cls-9" d="M543.74,198.56s-.07,0-.1,0c-.45-.03-.81-.36-.87-.82l-5.53-36.98-5.68,27.22c-.09.45-.46.79-.9.84-.45.06-.86-.19-1.03-.6l-4.96-12.27-2.89,5.94c-.17.36-.53.59-.92.6l-5.92.17c-.58.02-1.05-.44-1.05-1.02s.47-1.07,1.05-1.08l5.28-.14,3.63-7.44c.18-.37.55-.6.96-.59.4,0,.76.25.91.63l4.55,11.29,6.15-29.43c.1-.48.52-.83,1.01-.81.48.01.88.38.95.87l5.75,38.54,6.5-18.49c.14-.4.5-.67.91-.68.4,0,.77.25.91.64l3.01,8.45,3.65-9.05c.15-.36.48-.61.85-.63.37-.02.71.19.88.54l2.39,4.99,11.87-.32,2.69-6.57c.15-.36.49-.6.84-.6.36,0,.69.23.83.58l3.96,9.96,5.16-26.69c.09-.45.45-.77.87-.77,0,0,0,0,.01,0,.43,0,.79.34.86.8l5.76,35.59,5.2-17.34c.11-.38.42-.64.78-.67.36-.02.69.19.83.55l3.35,8.26,3.33-8.41c.13-.32.39-.54.7-.57.31-.04.6.11.78.39l2.8,4.45,9.75-.26,2.73-5.92c.15-.32.45-.51.76-.51.31,0,.59.22.72.54l3.54,9.14,4.65-25.35c.08-.43.41-.76.8-.73.39,0,.71.33.77.77l4.87,33.56,3.11-11.46c.1-.38.41-.65.75-.66l17.8-.48c.41-.01.75.38.75.87s-.34.9-.75.91l-17.23.5-3.91,14.47c-.11.41-.45.69-.81.67-.36-.01-.66-.31-.73-.73l-4.73-32.54-4.28,23.36c-.07.4-.36.7-.71.76-.35.05-.69-.16-.83-.52l-3.89-10.02-2.16,4.69c-.14.31-.42.51-.73.52l-10.69.31c-.28,0-.54-.14-.7-.39l-2.2-3.48-3.48,8.83c-.14.35-.45.58-.78.59-.34.01-.65-.2-.79-.54l-3.24-7.98-5.57,18.6c-.13.42-.49.71-.9.7-.4-.01-.73-.33-.8-.76l-5.59-34.44-4.78,24.79c-.08.42-.4.74-.8.8-.39.06-.77-.17-.92-.56l-4.27-10.74-2.07,5.07c-.15.36-.48.6-.84.61l-13.05.38c-.36.01-.69-.19-.85-.53l-1.74-3.63-3.77,9.38c-.15.38-.51.64-.91.64-.39,0-.74-.25-.88-.63l-2.96-8.27-6.89,19.62c-.14.41-.51.69-.92.71Z"/>
        <path class="cls-91" d="M94.85,178.42c-.1,0-.2,0-.3-.02-1.32-.14-2.39-1.21-2.59-2.6l-16.45-112.69-17.01,81.45c-.28,1.34-1.38,2.32-2.7,2.42-1.34.1-2.58-.71-3.09-2l-14.97-38.2-8.76,17.59c-.53,1.06-1.62,1.72-2.8,1.68l-18.07-.5c-1.77-.05-3.21-1.53-3.21-3.32s1.44-3.18,3.21-3.13l16.12.5,11.02-22.05c.55-1.09,1.67-1.72,2.9-1.63,1.22.1,2.29.92,2.75,2.09l13.74,35.17,18.45-88.06c.3-1.45,1.55-2.38,3-2.23,1.43.15,2.63,1.34,2.85,2.84l17.09,117.4,19.19-54.54c.41-1.18,1.48-1.93,2.67-1.88,1.19.05,2.25.88,2.66,2.09l8.82,25.85,10.63-26.43c.42-1.06,1.39-1.73,2.46-1.72,1.07,0,2.07.7,2.55,1.76l6.93,15.31,34.15,1.06,7.69-18.98c.42-1.04,1.39-1.69,2.4-1.62,1.04.06,1.96.79,2.37,1.87l11.22,30.07,14.57-77.59c.25-1.31,1.27-2.18,2.46-2.09.01,0,.03,0,.04,0,1.2.11,2.22,1.17,2.42,2.53l16.13,105.3,14.47-49.82c.31-1.08,1.18-1.81,2.17-1.82,1,0,1.91.68,2.31,1.75l9.26,24.61,9.16-23.9c.34-.9,1.08-1.49,1.92-1.55.84-.06,1.66.42,2.14,1.26l7.66,13.36,26.53.83,7.38-16.58c.4-.89,1.2-1.39,2.04-1.34.85.07,1.6.73,1.94,1.68l9.52,26.82,12.43-71.8c.21-1.23,1.1-2.09,2.14-1.94,1.03.1,1.89,1.09,2.06,2.35l12.93,96.64,8.22-32.19c.27-1.07,1.07-1.78,1.97-1.75l46.52,1.45c1.07.03,1.94,1.18,1.94,2.57s-.87,2.48-1.94,2.46l-45.01-1.25-10.35,40.63c-.29,1.15-1.19,1.9-2.15,1.81-.97-.09-1.76-.99-1.92-2.18l-12.57-93.71-11.43,66.19c-.19,1.13-.96,1.96-1.9,2.06-.94.1-1.84-.55-2.22-1.62l-10.47-29.39-5.83,13.14c-.39.87-1.14,1.4-1.97,1.38l-29.08-.81c-.76-.02-1.47-.48-1.9-1.24l-6.02-10.46-9.58,25.08c-.38.99-1.23,1.62-2.16,1.61-.94-.02-1.79-.68-2.17-1.69l-8.97-23.75-15.48,53.47c-.35,1.22-1.38,2.02-2.51,1.92-1.12-.09-2.04-1.05-2.24-2.33l-15.66-101.91-13.49,72.05c-.23,1.23-1.14,2.13-2.25,2.23-1.11.11-2.17-.62-2.6-1.79l-12.13-32.41-5.91,14.63c-.42,1.04-1.36,1.69-2.4,1.66l-37.55-1.04c-1.04-.03-1.99-.69-2.45-1.72l-5.06-11.14-10.99,27.4c-.45,1.13-1.5,1.84-2.65,1.78-1.15-.05-2.17-.85-2.57-2.02l-8.66-25.28-20.3,57.89c-.43,1.21-1.52,2-2.73,2Z"/>
        <path class="cls-79" d="M294.67,383.06c-7.09,2.09-20.34,6.47-38.93,6.91-27.64.65-40.61-8.03-77.1-13.82-6.67-1.06-24.51-3.82-44.28-3.84-57.49-.05-109.85,23.16-108.4,32.24.84,5.28,19.74,4.94,19.85,9.21.17,6.62-45.21,8.75-45.8,16.89-.55,7.49,36.85,19.19,77.1,23.79,52.61,6.01,69.25-4.79,115.27,1.54,33.14,4.56,34.28,11.5,74.81,22.26,26.59,7.06,109.41,29.05,196.19,3.84,42.46-12.34,53.29-42.6,87.03-38.38,23.01,2.88,34.73,13.43,60.69,8.83,20.78-3.69,44.94-16.73,45.04-30.7.1-14.03-24.06-29.26-32.44-34.54-9.68-6.1-15.13-7.5-15.27-11.13-.4-10.87,47.78-17.33,47.33-21.49-1.17-10.76-277.33,3.73-361.08,28.4Z"/>
        <path class="cls-67" d="M328.42,399c-29.09-.3-60.99,1.31-61.16,4.64-.25,4.94,69.14,11.34,68.85,14.7-.2,2.37-34.86,2.34-71.54,2.32-21.52-.01-38.79-.28-61.16,6.19-2.09.6-29.63,8.67-28.85,13.54.88,5.43,36.63,3.86,85.78,1.55,50.07-2.36,86.76-5.71,91.93-6.19,79.37-7.35,119.05-11.03,119.24-16.24.32-8.71-76.06-19.8-143.09-20.5Z"/>
        <path class="cls-67" d="M405.35,441.93c-12.53.69-44.39,2.43-44.62,6.96-.18,3.71,20.85,8.63,39.23,10.06,38.92,3.02,76.33-8.84,75.77-13.92-.65-5.95-53.33-4.03-70.39-3.09Z"/>
        <path class="cls-32" d="M557.61,365.59c-1.07,2.68,10,10.23,21.54,20.85,10.11,9.3,16.55,19.31,17.31,20.51,7.08,11.16,8.41,18.64,13.08,18.8,3.02.11,6.12-2.88,7.31-5.81,1.76-4.34-.05-10.08-16.92-28.38-5.44-5.9-15.07-17.63-25-26.67-13.54-1.54-16.74-.75-17.31.68Z"/>
        <path class="cls-67" d="M176.87,385.07c9.72-1.1,28.09-3.08,30,2.32,1.92,5.43-12.58,18.98-28.85,25.14-9.5,3.6-18.19,4.13-18.46,7.35-.33,3.93,12.43,5.59,12.69,10.44.31,5.61-16.21,12.67-33.08,14.7-17.08,2.05-28.78-1.75-41.54-4.64-45.27-10.24-75.65-2.61-76.16-6.96-.43-3.68,21.73-5.64,59.62-18.56,38.69-13.2,57.44-25.43,95.78-29.78Z"/>
        <g>
          <path class="cls-48" d="M608.83,99.99l-218.83-12.22c-5.04-.24-9.58,5.07-9.58,9.53v272.08c0,6.18,6.54,7.43,11.58,6.93l216.82-21.38c3.96-.39,7.16-3.89,7.16-7.82V107.43c0-3.93-3.2-7.26-7.16-7.45Z"/>
          <path class="cls-19" d="M612.43,97.82l-219.26-10.41c-5.04-.24-9.14,3.21-9.14,7.7v274.21c0,4.49,4.1,7.73,9.14,7.23l219.26-21.79c3.96-.39,7.16-3.92,7.16-7.88V105.33c0-3.96-3.2-7.32-7.16-7.51Z"/>
          <path class="cls-36" d="M393.17,372.83c-2.72.27-4.94-1.49-4.94-3.91V95.29c0-2.42,2.22-4.29,4.94-4.17l219.26,10c2.14.1,3.88,1.92,3.88,4.06v242c0,2.14-1.74,4.05-3.88,4.26l-219.26,21.38Z"/>
          <polygon class="cls-33" points="598.3 344.96 410.76 362.41 410.76 109.97 598.3 116.79 598.3 344.96"/>
          <path class="cls-4" d="M523.29,118.02l-74.95.91,1.68-16.32c.13-2.12,1.71-3.86,3.8-4.17l12.69-1.88c1.49-.22,2.78-1.18,3.43-2.54l1.38-2.89,33.2,1.98,18.76,24.92Z"/>
          <path class="cls-94" d="M563.31,107.43c-.36-1.85-1.89-3.14-3.82-3.23l-11.98-.52c-5.44-.24-9.42-4.5-9.22-9.9l.46-12.52c.09-2.31-1.63-4.17-3.98-4.3l-3.93-.23c-3-.17-5-2.73-4.58-5.68.74-5.16-2.93-9.61-8.23-9.96-5.35-.35-10.34,3.59-11.14,8.82-.12.78-.39,1.54-.83,2.23-1.24,1.91-3.4,2.97-5.52,2.85l-4.06-.23c-2.46-.14-4.8,1.52-5.42,3.87l-3.37,12.7c-1.46,5.49-6.97,9.46-12.81,9.21l-13.14-.57c-2.15-.09-4.26,1.12-5.25,3.02l-7.92,15.17c-.65,1.24.15,2.58,1.56,2.63l113.93,3.65c1.25.04,2.3-1.16,2.08-2.35l-2.82-14.66ZM516.42,71.93c-1.57-.09-2.66-1.41-2.43-2.94.23-1.53,1.69-2.69,3.26-2.59,1.57.1,2.65,1.42,2.42,2.94-.23,1.53-1.68,2.69-3.25,2.59Z"/>
          <path class="cls-30" d="M563.99,107.77c-.36-1.85-1.89-3.14-3.82-3.23l-11.98-.52c-5.44-.24-9.42-4.5-9.22-9.9l.46-12.52c.09-2.31-1.63-4.17-3.98-4.3l-3.93-.23c-3-.17-5-2.73-4.58-5.68.74-5.16-2.93-9.61-8.23-9.96-5.35-.35-10.34,3.59-11.14,8.82-.12.78-.39,1.54-.83,2.23-1.24,1.91-3.4,2.97-5.52,2.85l-4.06-.23c-2.46-.14-4.8,1.52-5.42,3.87l-3.37,12.7c-1.46,5.49-6.97,9.46-12.81,9.21l-13.14-.57c-2.15-.09-4.26,1.12-5.25,3.02l-7.92,15.17c-.65,1.24.15,2.58,1.56,2.63l113.93,3.65c1.25.04,2.3-1.16,2.08-2.35l-2.82-14.66ZM517.09,72.27c-1.57-.09-2.66-1.41-2.43-2.94.23-1.53,1.69-2.69,3.26-2.59,1.57.1,2.65,1.42,2.42,2.94-.23,1.53-1.68,2.69-3.25,2.59Z"/>
          <path class="cls-37" d="M544.49,114.74c-10.16-6.06-17.96-1.76-24.29-8.59-6.78-7.31-2.21-16.94-9.22-21.49-4.49-2.91-8.5-.34-13.72-1.13-1.91-.29-3.95-1.02-6.07-2.45l-2.81,10.6c-1.46,5.49-6.97,9.46-12.81,9.21l-13.14-.57c-2.15-.09-4.26,1.12-5.25,3.02l-7.92,15.17c-.65,1.24.15,2.58,1.56,2.63l103.54,3.32c-2.61-4-5.85-7.32-9.85-9.71Z"/>
          <g>
            <g>
              <path class="cls-40" d="M452.57,230.91v14.97l-16.43.54v-15.12l16.43-.39ZM453.96,229.49l-19.2.46v17.91l19.2-.63v-17.74Z"/>
              <polygon class="cls-40" points="581.42 243.08 461.02 247 461.02 229.32 581.42 226.46 581.42 243.08"/>
            </g>
            <g>
              <path class="cls-40" d="M452.57,256.79v14.97l-16.43.75v-15.11l16.43-.6ZM453.96,255.34l-19.2.7v17.91l19.2-.87v-17.74Z"/>
              <polygon class="cls-40" points="581.42 267.29 461.02 272.77 461.02 255.08 581.42 250.67 581.42 267.29"/>
            </g>
            <g>
              <path class="cls-40" d="M452.57,282.66v14.97l-16.43.96v-15.11l16.43-.81ZM453.96,281.2l-19.2.95v17.91l19.2-1.12v-17.74Z"/>
              <polygon class="cls-40" points="581.42 291.5 461.02 298.53 461.02 280.85 581.42 274.88 581.42 291.5"/>
            </g>
            <g>
              <path class="cls-40" d="M452.57,308.53v14.97l-16.43,1.17v-15.11l16.43-1.03ZM453.96,307.05l-19.2,1.2v17.91l19.2-1.37v-17.74Z"/>
              <polygon class="cls-40" points="581.42 315.71 461.02 324.29 461.02 306.61 581.42 299.09 581.42 315.71"/>
            </g>
            <path class="cls-40" d="M434.76,214.03c-.18,0-.36-.07-.49-.2-.13-.13-.21-.31-.21-.5v-83.61c0-.19.08-.37.21-.5.13-.13.32-.21.5-.2l76.34,1.97c.38,0,.67.32.67.7v80.45c0,.38-.3.69-.68.7l-76.34,1.19h-.01ZM435.45,130.45v82.18l74.96-1.17v-79.09l-74.96-1.93ZM511.1,212.15h0,0Z"/>
            <polygon class="cls-40" points="581.42 143.72 523.09 142.54 523.09 132.01 581.42 133.51 581.42 143.72"/>
            <polygon class="cls-40" points="581.42 166.42 523.09 165.94 523.09 160.67 581.42 161.31 581.42 166.42"/>
            <polygon class="cls-40" points="581.42 174.84 523.09 174.62 523.09 169.35 581.42 169.73 581.42 174.84"/>
            <polygon class="cls-40" points="581.42 183.25 523.09 183.3 523.09 178.03 581.42 178.15 581.42 183.25"/>
            <g>
              <path class="cls-77" d="M462.71,164.57c-.54-.46-1.5-1.26-1.97-2.6-.65-1.85.3-2.91.13-4.91-.17-1.97-1.22-2.53-2.36-4.7-.65-1.24-3-5.71-1.18-9.37,1.63-3.28,6.34-5.35,9.56-4.34,2.71.84,2.75,3.35,5.72,3.91,2.44.46,3.25-1.08,5.69-.37.86.25,1.99,1.17,4.24,3,1.75,1.42,2.62,2.14,2.95,2.84.86,1.88.12,3.85-.26,4.85-.92,2.43-2.07,2.46-2.82,4.45-1.03,2.75.69,3.97,0,5.83-1.7,4.58-15.13,5.26-19.71,1.41Z"/>
              <polygon class="cls-40" points="437.73 210.36 437.73 178.31 448.85 176.76 496.33 176.31 508.34 178.22 508.34 209.37 437.73 210.36"/>
              <g>
                <path class="cls-33" d="M475.39,156.31c.55,4.92,1.1,9.84,1.65,14.76.15,1.33,1.28,2.38,2.69,2.5,5.56.46,11.67,2.88,17.17,3.33l-25.22,6.95-22.25-6.51c6-.81,10.37-2.5,14.78-3.76,1.13-.32,1.94-1.24,2.08-2.34.38-3.05.76-6.09,1.14-9.14l7.96-5.79Z"/>
                <path class="cls-40" d="M471.68,184.54c-.07,0-.13,0-.19-.03l-22.25-6.51c-.31-.09-.52-.39-.5-.72.02-.33.27-.59.6-.64,4.5-.6,8.04-1.7,11.46-2.77,1.11-.34,2.15-.67,3.22-.97.86-.25,1.48-.94,1.58-1.76l1.14-9.14c.02-.19.13-.36.28-.48l7.96-5.79c.2-.14.46-.17.69-.07.22.1.38.31.41.56l1.65,14.76c.11,1,.98,1.79,2.06,1.88,2.84.23,5.84.97,8.73,1.69,2.83.7,5.75,1.42,8.44,1.64.33.03.6.29.63.63s-.18.65-.51.74l-25.22,6.95c-.06.02-.12.02-.18.02ZM452.55,177.53l19.13,5.59,21.79-6.01c-1.76-.33-3.54-.77-5.29-1.2-2.84-.7-5.79-1.43-8.52-1.65-1.74-.14-3.14-1.45-3.32-3.11l-1.51-13.58-6.76,4.91-1.11,8.84c-.17,1.38-1.18,2.52-2.58,2.92-1.06.3-2.09.62-3.19.97-2.68.83-5.42,1.69-8.65,2.32Z"/>
              </g>
              <g>
                <path class="cls-33" d="M481.41,155.85c0,7.2-4.35,15.62-9.73,15.59-5.42-.03-9.83-8.58-9.83-15.85s4.41-10.45,9.83-10.35c5.39.1,9.73,3.41,9.73,10.61Z"/>
                <path class="cls-40" d="M471.71,172.13h-.03c-5.92-.03-10.52-8.92-10.52-16.54,0-3.52,1.03-6.41,2.98-8.33,1.86-1.83,4.47-2.77,7.55-2.72,6.42.12,10.41,4.45,10.41,11.31,0,5.17-2.09,10.73-5.2,13.84-1.6,1.6-3.4,2.45-5.2,2.45ZM471.43,145.93c-2.6,0-4.78.8-6.32,2.32-1.7,1.68-2.57,4.15-2.57,7.34,0,6.84,4.08,15.12,9.14,15.15h.02c1.43,0,2.89-.71,4.23-2.04,2.82-2.82,4.79-8.1,4.79-12.85,0-6.1-3.38-9.81-9.05-9.91-.08,0-.16,0-.24,0Z"/>
              </g>
              <path class="cls-77" d="M459.47,151.25c.16,1.27.94,3.49,2.84,4.21,1.84.69,3.58-.46,11.83-3.34,1.43-.5,2.05-.7,2.8-.47,3.35.99,2.84,8.4,4.04,8.46.96.05,3.08-4.56,1.53-9.02-1.44-4.14-5.32-6.1-6.27-6.56-.42-.2-6.84-3.21-12.23-.1-.78.45-5,3.03-4.54,6.82Z"/>
            </g>
          </g>
        </g>
        <g id="Heart">
          <g>
            <path class="cls-65" d="M272.12,100.4c-1.92-9.07-11.16-15.7-21.03-15.1-2.26.14-4.4.69-6.34,1.56l-4.39-17.47s-5.24-4.11-19.06.27c-13.83,4.38-14.99,9.38-14.99,9.38l17.78,76.04-28,4.35c-8.65,7.76-1.57,25.58,2.3,27.03l33.39-4.39,6.25,24.12,33.95-9.6-12.87-63.98c3.64-5.25,12.3-20.66,12.07-22.9,1.3-2.85,1.64-6.06.95-9.3Z"/>
            <path class="cls-63" d="M272.12,100.4c-1.92-9.07-11.16-15.7-21.03-15.1-2.26.14-4.4.69-6.34,1.56l-4.39-17.47s-5.24-4.11-19.06.27c-13.83,4.38-14.99,9.38-14.99,9.38l17.78,76.04-28,4.35c-8.65,7.76-1.57,25.58,2.3,27.03l33.39-4.39,6.25,24.12,33.95-9.6-12.87-63.98c3.64-5.25,12.3-20.66,12.07-22.9,1.3-2.85,1.64-6.06.95-9.3Z"/>
            <path class="cls-73" d="M270.92,110.67c-.66,1.76-3.02,5.5-11.39,7.56-11.2,2.75-19.32-6.41-19.32-6.41,0,0-.74,3.58-5.5,11.78-4.75,8.2-7.64,7.5-8.89,4.94-1.26-2.56-2.8-10.38-7.43-29.22-4.62-18.81-3.89-24.59,3.84-29.92-.31.09-.6.17-.93.27-13.83,4.38-14.99,9.38-14.99,9.38l17.78,76.04c3.1-.19,6.03-.45,9.11-.1,3.11.36,6.14,1.39,8.81,3.03,2.69,1.65,5.5,3.8,5.59,6.99.2,7.03-14.14,10.88-28.95,13.03-14.81,2.14-22.17,3.46-25.29.34,1.36,4.21,3.46,7.49,5.03,8.08l33.39-4.39,6.25,24.12,33.95-9.6-12.87-63.98c3.05-4.4,9.64-15.95,11.55-20.88l.28-1.05Z"/>
            <path class="cls-65" d="M257.08,118.79c-9.87.6-19.11-6.03-21.03-15.1-.92-4.35,0-8.63,2.6-12.06,2.81-3.71,7.34-6.02,12.45-6.33,9.87-.6,19.11,6.03,21.03,15.1.92,4.35,0,8.63-2.6,12.06-2.81,3.71-7.34,6.02-12.45,6.33Z"/>
            <path class="cls-65" d="M268.55,101.16c1.53,7.22-3.7,13.47-11.69,13.96-7.99.49-15.71-4.97-17.24-12.2-1.53-7.22,3.7-13.47,11.69-13.96,7.99-.49,15.71,4.98,17.24,12.2Z"/>
            <path class="cls-5" d="M268.55,101.16c1.53,7.22-3.7,13.47-11.69,13.96-7.99.49-15.71-4.97-17.24-12.2-1.53-7.22,3.7-13.47,11.69-13.96,7.99-.49,15.71,4.98,17.24,12.2Z"/>
            <path class="cls-5" d="M263.86,112.82c-.01-.06-.02-.12-.03-.18-1.53-7.22-9.25-12.68-17.24-12.2-2.71.16-5.09,1-7.01,2.31.01.06.02.12.03.18,1.53,7.22,9.25,12.68,17.24,12.2,2.71-.16,5.09-1,7.01-2.31Z"/>
            <path class="cls-65" d="M225.89,120.27c2.41-3.78,4.36-7.8,6.14-11.89,1.74-4.11,3.32-8.28,4.43-12.63-2.07,3.97-3.86,8.03-5.63,12.11-1.73,4.09-3.45,8.18-4.93,12.41ZM251.01,142.76c-2.57,3.48-5.09,6.97-7.42,10.66,3.13-3.03,5.87-6.4,8.47-9.87,2.57-3.49,5-7.09,7.03-10.95-2.88,3.27-5.49,6.7-8.08,10.16Z"/>
            <path class="cls-84" d="M225.89,120.27c2.41-3.78,4.36-7.8,6.14-11.89,1.74-4.11,3.32-8.28,4.43-12.63-2.07,3.97-3.86,8.03-5.63,12.11-1.73,4.09-3.45,8.18-4.93,12.41ZM251.01,142.76c-2.57,3.48-5.09,6.97-7.42,10.66,3.13-3.03,5.87-6.4,8.47-9.87,2.57-3.49,5-7.09,7.03-10.95-2.88,3.27-5.49,6.7-8.08,10.16Z"/>
            <g class="cls-73">
              <path d="M270.92,110.67c.22-.6.25-.97.25-.97l-.25.97Z"/>
            </g>
          </g>
          <g>
            <path class="cls-65" d="M264.09,150.93c2.95-15.74,9.63-33.61,22.05-49.07,10.06-12.52,14.26-13.83,13.74-16.99-.52-3.16-6.21-32.02-6.21-32.02,0,0,2.11-3.14,9.59-4.72,7.47-1.58,9.9.52,9.9.52l6.92,34.28c.07.37.33.68.67.83h0c.79.34,1.66-.29,1.59-1.15l-.78-9.22s1.18-2.26,7.38-3.17c6.2-.91,8.76,3.31,8.76,3.31l2.84,19.8s11.62,10.3,15.33,24.99l6,99.81-99.8,6.07s-4.9-36.3,2.02-73.26Z"/>
            <path class="cls-35" d="M264.09,150.93c2.95-15.74,9.63-33.61,22.05-49.07,10.06-12.52,14.26-13.83,13.74-16.99-.52-3.16-6.21-32.02-6.21-32.02,0,0,2.11-3.14,9.59-4.72,7.47-1.58,9.9.52,9.9.52l6.92,34.28c.07.37.33.68.67.83h0c.79.34,1.66-.29,1.59-1.15l-.78-9.22s1.18-2.26,7.38-3.17c6.2-.91,8.76,3.31,8.76,3.31l2.84,19.8s11.62,10.3,15.33,24.99l6,99.81-99.8,6.07s-4.9-36.3,2.02-73.26Z"/>
            <path class="cls-73" d="M297.63,165.22c-6.49,16.44-15.8,11.62-21.05,6.22-9.59-9.87.09-53.84,12.09-71.24v-1.36c-.8.94-1.62,1.93-2.51,3.03-12.42,15.46-19.11,33.33-22.05,49.07-6.92,36.97-2.02,73.26-2.02,73.26l99.8-6.07-6-99.81c-35.63-7.09-51.75,30.46-58.25,46.9Z"/>
            <path class="cls-73" d="M300.7,175.44s-9.36,23.92-23.02,14.4c-13.65-9.51-14.25-26.7-12.12-45.62-.56,2.27-1.05,4.51-1.47,6.7-6.92,36.97-2.02,73.26-2.02,73.26l41.4-2.52-2.78-46.24Z"/>
            <path class="cls-73" d="M303.27,48.12c-7.47,1.58-9.59,4.72-9.59,4.72,0,0,5.69,28.86,6.2,32.02.25,1.53-.61,2.63-2.7,4.77,4.92-4.82,8.06-5.29,7.31-9.08-.8-4.05-2.33-11.03-3.9-18.75-1.58-7.72-2.12-12.22,2.68-13.69Z"/>
            <path class="cls-73" d="M323.16,84.85c2.21.83,3.52,1.39,4.96,2,1.44.62-1.37-2.73-1.71-7.19-.2-2.64-.45-6.24-.63-8.76-3.45,1.04-4.21,2.48-4.21,2.48l.78,9.22c.07.86-.79,1.49-1.59,1.15-.35-.15-.6-.46-.67-.83.31,1.56.86,1.1,3.07,1.92Z"/>
          </g>
          <g>
            <path class="cls-65" d="M415.85,118.87c-9.88,3.13-30.42,2.48-43.23.27-12.81-2.21-39.73-3.57-56.27,25.17-16.54,28.75-23.08,50.14-31.11,71.62-8.03,21.48-35.81,55.49-46.65,79.72-10.84,24.24-11.52,62.51,26.22,88.71,37.74,26.19,71.04,34.29,83.96,38.38,12.92,4.09,52.89,17.78,73.89,1.13,20.99-16.65,43.95-50.28,35.37-112.36-8.58-62.08-35.61-81.54-43.39-89.08-15.04-14.58-48.5-25.29-49.4-40.23-.9-14.94,8.29-23.37,20.22-23.35,11.93.02,20.38-1.39,28.07-3.73,3.64-2.42,7.34-7.04,8.93-14.75,2.01-9.75-.71-22.62-6.59-21.51Z"/>
            <path class="cls-34" d="M415.85,118.87c-9.88,3.13-30.42,2.48-43.23.27-12.81-2.21-39.73-3.57-56.27,25.17-16.54,28.75-23.08,50.14-31.11,71.62-8.03,21.48-35.81,55.49-46.65,79.72-10.84,24.24-11.52,62.51,26.22,88.71,37.74,26.19,71.04,34.29,83.96,38.38,12.92,4.09,52.89,17.78,73.89,1.13,20.99-16.65,43.95-50.28,35.37-112.36-8.58-62.08-35.61-81.54-43.39-89.08-15.04-14.58-48.5-25.29-49.4-40.23-.9-14.94,8.29-23.37,20.22-23.35,11.93.02,20.38-1.39,28.07-3.73,3.64-2.42,7.34-7.04,8.93-14.75,2.01-9.75-.71-22.62-6.59-21.51Z"/>
            <path class="cls-65" d="M450.85,317.88c-2.6-2.78-3.74-6.58-6.06-9.58-2.74-3.53-6.87-3.71-10.75-5.21-3.62-1.4-6.57-4.17-9.84-6.2-3.6-2.24-7.28-3.19-11.52-2.87-2.48.19-5.38.83-7.72-.25-2.27-1.05-4.23-3.19-5.74-5.14-2.39-3.07-5.11-6.87-5.82-10.72-.87-4.79-1.6-9.61-2.17-14.45-.25-2.15-1.66-8.91,1.83-9.06,2.91-.12,4.45,3.94,5.53,5.99,1.32,2.52,2.74,4.99,5.27,6.45,2.6,1.5,6.29,2.25,7.05,5.64.04.17.17-.01.15-.12-.44-2.59-2.66-4.04-4.8-5.22-1.4-.77-2.84-1.52-3.92-2.73-1.01-1.12-1.7-2.49-2.33-3.86-1.12-2.45-2.17-4.8-3.91-6.88-1.82-2.18-4.2-6.13-3.57-9.12.74-3.52,1.74-6.48,1.23-10.22-.32-2.33-4.44-2.32-5.67-1-2.28,2.44-2.9,5.94-4.13,9.05-2.03,5.14-5.04,9.78-10.9,6.84-2.74-1.38-5.15-3.31-8.14-4.17-2.83-.81-5.7-.37-8.5.39-3.52.96-7.62,1.89-10.73-.62-.1-.08-.15.19-.09.26,5.11,5.94,13.95-.18,20.09,2.95,2.38,1.22,4.65,3.38,5.96,5.74,2.21,3.99-1.51,7.36-3.74,10.45-1.05,1.45-2.43,2.47-4.13,3.02-3.19,1.03-6.65.71-9.86,1.67-1.43.42-2.78,1.13-3.86,2.17-1.18,1.14-1.7,2.48-2.33,3.95-1.57,3.62-4.72,6.13-8.66,6.54-.17.02-.19.41-.02.4,3.33-.15,6.42-1.8,8.24-4.64.98-1.54,1.65-3.29,2.99-4.57,1.37-1.31,3.31-1.8,5.12-2.12,2.92-.51,6.12-.47,8.77,1.09,2.92,1.72,2.58,5.94,1.81,8.74-.59,2.11-1.44,4.16-1.62,6.34-.24,2.96.98,5.8.87,8.73-.08,2.31-.47,4.63-.56,6.99-.11,2.99-.95,6.13-3.19,8.24-1.62,1.52-4.37,2.55-4.47,5.1,0,.14.13.16.14.02.2-2.63,3.81-3.65,5.4-5.43,2.5-2.81,2.71-5.93,3.29-9.4.45-2.71,1.54-5.35,1.26-8.08-.29-2.83-.4-5.78.65-8.48.9-2.32,2.59-4.29,3.32-6.67.81-2.65.38-5.44.65-8.15.21-2.08.93-4.49,1.74-6.42,1.28-3.04,4.7-8.95,8.76-8.12,2.5.51,2.63,3.64,2.85,5.63.41,3.69.98,7.34,1.21,11.06.33,5.4-.58,9.6-2.48,14.6-1.24,3.27-1.81,6.48-1.54,9.99.25,3.36.45,6.34-1,9.48-1.09,2.35-2.65,4.44-4.16,6.53-3.27,4.53-5.93,8.91-5.2,14.72.42,3.36,1.41,6.67-.6,9.72-1.57,2.38-3.87,4.17-5.38,6.62-2.97,4.83-3.56,10.59-4.38,16.08-.4,2.67-.65,5.28-1.44,7.88-.91,3.02-2.41,5.57-4.31,8.06-1.86,2.44-3.92,4.86-5.02,7.76-.54,1.42-.78,2.89-.73,4.4.06,1.96.57,3.94.13,5.89-1.18,5.19-7.39,8.84-6.38,14.6.03.15.15,0,.13-.1-.74-5.26,4.96-8.61,6.65-13.1,1.15-3.08-.16-6.29.68-9.39.77-2.84,2.82-5.11,4.71-7.26,1.87-2.12,3.68-4.26,4.95-6.81,1.16-2.34,1.9-4.86,2.52-7.39,1.36-5.6,1.89-11.69,4.35-16.96,1.29-2.76,3.29-4.71,5.23-6.99,2.03-2.39,3.01-4.92,2.81-8.1-.2-3.19-1.25-6.29-.44-9.48.61-2.43,2.02-4.64,3.44-6.67,3.06-4.38,6.57-8.5,7.06-14.05.28-3.31-1.55-14.93,4.49-14.71,2.3.09,3.57,2.18,4.75,3.84,1.62,2.29,3.44,4.44,4.87,6.86,1.82,3.07,2.57,6.58,3.69,9.93.85,2.55,2.1,4.8,3.52,6.95.04.15.08.3.12.45.36,1.7.54,3.44.49,5.18-.08,3.15-.94,6.26-1.44,9.36-.46,2.88.06,5.67.21,8.55.17,3.33-.05,6.5-1.45,9.55-.03.06.02.26.09.15,1.51-2.27,1.78-5.05,1.87-7.71.1-3.03.21-6.03.97-8.99.45-1.74,1.37-3.24,2-4.91.61-1.63.41-2.77,2.46-2.42.93.16,1.66.73,2.28,1.4,1.64,1.75,2.31,4.48,2.83,6.75,1.07,4.66,1.16,9.41,1.62,14.14.58,5.92,2.14,12.46,7.23,16.11.11.08.17-.22.08-.3-5.12-4.03-6.32-10.81-6.36-16.98-.02-2.67-1.35-7.81,2.28-7.79,1.95.01,4.08.96,5.85,1.69.74.31,1.44.67,2.13,1.09.76.47,1.76,1.03,2.27,1.79.03.05.1-.07.05-.1-.67-.48-1.2-1.21-1.84-1.73-.45-.37-.92-.72-1.41-1.05-1.4-.97-2.77-1.99-4.15-2.97-1.42-1.01-2.83-2-3.9-3.39-1.09-1.41-1.74-3.05-2.59-4.58-.43-1.19-.93-2.37-1.55-3.51-2-3.69-4.7-6.98-6.91-10.54-.04-.14-.07-.29-.11-.43-.25-.82-.57-1.24-1.08-1.65-.6-1.13-1.15-2.28-1.58-3.51-1.18-3.38-1.8-6.96-3.37-10.2-.2-.42-.44-.82-.67-1.23.82.29,1.66.5,2.52.6,4.57.54,9.21-1.71,13.69-.08,3.82,1.39,6.91,4.36,9.61,7.32,2.19,2.41,2.89,5.44,4.5,8.2,1.16,1.99,2.64,3.78,3.71,5.82,1.21,2.33,1.89,4.63,1.92,7.25,0,.26.29.39.34.07.29-2.16-.27-4.34-1.09-6.33-.88-2.13-1.98-4.22-3.09-6.24-1.04-1.89-2.4-4.5-1.34-6.71,1.16-2.42,5.53-.15,7.27.5,3.01,1.12,4.23,3.1,5.68,5.78.98,1.8,1.95,3.58,3.39,5.06.14.14.23-.21.13-.31Z"/>
            <path class="cls-65" d="M332.89,325.55c-3.38-2.06-7.85-2.9-10.56-5.95-1.29-1.46-2-3.28-3.63-4.44-1.65-1.18-3.64-1.66-5.24-2.94-1.59-1.27-2.86-2.91-3.72-4.75-1.48-3.15-2.15-7.42-1.18-10.78.13-.44.3-.9.66-1.19,1.15-.92,4.84,2,6.05,2.47,2.63,1.02,5.34,1.07,8.12,1.07,1.85,0,3.8-.08,5.55.61,1.19.47,2.05,1.24,2.97,2.11.23.21.33-.3.26-.44-1.15-2.2-3.91-3.29-6.17-3.86-3.13-.79-6.45-.36-9.54-1.35-4.21-1.35-8.62-4.66-11.61-7.86-.49-.52-.91-1.18-.89-1.89.03-1.31,1.39-1.62,2.37-1.9,1.32-.38,2.59-.89,3.84-1.48,2.4-1.16,5.08-2.34,7.8-2.01.07,0,.09-.16.02-.17-2.75-.53-5.15,0-7.82.63-6.6,1.54-12.81,2.31-19.56,1.22-2.74-.44-5.48-1.06-7.98-2.27-2.5-1.22-4.3-2.98-5.89-5.24-1.66-2.36-1.85-5.7-2.66-8.46-.45-1.53-1.02-3.02-1.81-4.4-1.02-1.78-2.21-3-4.3-3.27-.27-.03-.56.15-.62.42-.41,1.83.88,2.69,1.67,4.16.69,1.29,1.11,2.72,1.48,4.13.93,3.52,2.09,7.77,1.79,11.43-.17,2.04-.94,3.98-1.7,5.88-.6,1.51-1.21,2.88-1.95,4.31-.54,1.04-1.04,2.11-1.5,3.2-.78.61-1.28,1.6-1.78,2.48-.69,1.22-1.27,2.51-1.74,3.84-.46,1.33-.81,2.66-.99,4.06-.28,2.27-.38,4.3-1.7,6.21-1.59,2.29-3.36,4.27-4.39,6.91-1,2.57-1.36,5.24-.99,7.98.03.25.29.18.28-.05-.11-3.01.5-6.1,2.13-8.67.87-1.37,2.07-2.46,3.16-3.63.48-.52,1.13-1.09,1.5-1.68.66-1.05.96-2.94,2.55-1.26.86.91.76,2.59.69,3.76-.16,2.55-1,5.01-1.18,7.56-.39,5.63,3.25,10.49,3.32,16.01.06,5.16-4.28,11.37-.39,16.02.16.19.27-.28.16-.42-3.69-4.7,1.23-10.32,1.49-15.26.29-5.51-2.64-10.69-1.81-16.2.39-2.57,1.3-5.04,1.42-7.66.13-2.82-.75-5.53-.87-8.33-.09-2.1,2.23-16.5,6.12-13.99,1.07.69,1.2,2.56,1.68,3.65,1.98,4.53,6.22,7.55,9.64,10.91.09.09.15-.12.09-.19-1.63-1.91-3.19-3.9-4.81-5.82-1.49-1.77-2.83-3.66-3.46-5.92-.57-2.03-1.89-6.19-.76-8.17.36-.62,1-1.08,1.7-1.21.46-.09.94-.04,1.41.01,1.05.12,1.82.69,2.81,1,1.25.39,2.53.67,3.82.88,5.3.85,12.35.33,15.87,5.2,3.42,4.72,3.47,11.2,3.89,16.69.31,4.07.13,8.22.71,12.26.55,3.88,2.19,7.21,4.28,10.47,2.15,3.35,4.53,6.6,5.62,10.48.08.29.35.01.3-.2-1.1-4.45-3.92-8.14-6.19-12.03-2.56-4.39-3.42-8.72-2.41-13.79.11-.55.24-1.1.52-1.59.05-.1.12-.19.22-.24.12-.05.26-.02.39.03.78.27,1.5.7,2.11,1.27.72.67,1.93,1.1,2.8,1.58.95.52,2.05.83,2.95,1.42,1.03.67,1.61,1.79,2.31,2.77,2.31,3.28,5.95,4.82,9.64,5.95,2.08.64,4.24,1.11,6.08,2.33,1.94,1.29,3.5,3.01,4.03,5.34.1.45.48.14.41-.21-.79-3.71-3.82-5.68-6.85-7.52Z"/>
            <path class="cls-66" d="M316.34,144.32c-16.54,28.75-23.08,50.14-31.11,71.62-8.03,21.48-35.81,55.49-46.65,79.72-10.84,24.24-11.52,62.51,26.22,88.71,37.74,26.19,71.04,34.29,83.96,38.38,12.92,4.09,52.89,17.78,73.89,1.13,12.39-9.82,25.46-25.57,32.33-49.58-7.8,24.02-30.48,39.89-52.43,41.94-22.87,2.14-71.78-10.13-118.72-67.07-35.63-43.22-9.29-58.37,6.86-118.6,6.33-23.61,8.14-45.71,25.67-86.23Z"/>
            <path class="cls-23" d="M316.34,144.32c-16.54,28.75-23.08,50.14-31.11,71.62-8.03,21.48-35.81,55.49-46.65,79.72-10.84,24.24-11.52,62.51,26.22,88.71,37.74,26.19,71.04,34.29,83.96,38.38,12.92,4.09,52.89,17.78,73.89,1.13,12.39-9.82,25.46-25.57,32.33-49.58-7.8,24.02-30.48,39.89-52.43,41.94-22.87,2.14-71.78-10.13-118.72-67.07-35.63-43.22-9.29-58.37,6.86-118.6,6.33-23.61,8.14-45.71,25.67-86.23Z"/>
            <path class="cls-73" d="M420.18,227.57c-2.3-2.17-4.22-3.84-5.56-5.14-15.04-14.58-48.5-25.29-49.4-40.23-.12-1.97-.05-3.82.16-5.56l-.34-.06c-2.6,10.05-.91,19.14,3.97,31.72,4.87,12.58,6.72,35.23,21.39,39.86,14.46,4.56,28.48-9.76,29.78-20.6Z"/>
          </g>
          <g>
            <path class="cls-65" d="M284.71,216.99c-.83-13.85-13.01-22.96-28.66-27.87-15.65-4.91-24.28-7.06-24.28-7.06l-15.93,2.1s-6.07,8.65-12.75,20.17c-6.68,11.52-17.4,35.07-16.87,64.37.53,29.3,14.86,63.93,46.1,62.34,1.83-15.86,8.81-27.4,22.21-44.57,13.4-17.18,31.56-46.43,30.17-69.47Z"/>
            <path class="cls-73" d="M260.89,266.97c-11.79,12.03-26.95,15.51-40.27,2.14-13.32-13.37-17.16-38.03-7.23-62.15,9.57-23.25,17.77-24.8,18.35-24.88l-15.9,2.09s-6.07,8.65-12.75,20.17c-6.68,11.52-17.4,35.07-16.87,64.37.53,29.3,14.86,63.93,46.1,62.34,1.83-15.86,8.81-27.4,22.21-44.57,10.8-13.85,24.69-35.54,28.94-55.51-2.95,10.24-12.73,25.95-22.6,36.01Z"/>
          </g>
          <g>
            <path class="cls-65" d="M367.54,169.26s-5.55,6.02-2.14,20.13c2.68,11.12,8.55,23.16,12.04,34.27,5.96,18.95,12.18,24.42,23.86,20.3,11.68-4.12,18.66-12.44,20.78-22.77,2.45-11.95.95-16.48,9.54-19.43,8.83-3.02,21.7-7.5,21.7-7.5,0,0,1.95-12.78-6.42-17.66l-25.4,6.68,21.39-13.88s2.66-7.65-3.59-14.37c-6.25-6.72-9.36-5.31-9.36-5.31,0,0-27.65,17.84-32.13,20.31-4.48,2.48-6.68,4.44-16.71,1.51-6.8-1.99-13.58-2.28-13.58-2.28Z"/>
            <path class="cls-35" d="M367.54,169.26s-5.55,6.02-2.14,20.13c2.68,11.12,8.55,23.16,12.04,34.27,5.96,18.95,12.18,24.42,23.86,20.3,11.68-4.12,18.66-12.44,20.78-22.77,2.45-11.95.95-16.48,9.54-19.43,8.83-3.02,21.7-7.5,21.7-7.5,0,0,1.95-12.78-6.42-17.66l-25.4,6.68,21.39-13.88s2.66-7.65-3.59-14.37c-6.25-6.72-9.36-5.31-9.36-5.31,0,0-27.65,17.84-32.13,20.31-4.48,2.48-6.68,4.44-16.71,1.51-6.8-1.99-13.58-2.28-13.58-2.28Z"/>
            <path class="cls-73" d="M422.08,221.18c2.45-11.95.95-16.48,9.54-19.43,8.83-3.02,21.7-7.5,21.7-7.5,0,0,.17-1.11.19-2.81-8.14,2.18-21.96,6.55-26.93,9.05-5.94,2.98-4.56,10.74-7.43,21.53-2.87,10.79-13.75,18.07-22.27,18.89-8.52.83-13.7-11.47-16-19.18-2.3-7.71-7.31-19.86-11.25-26.85-3.59-6.36-5.77-14.97-4.6-20.25-.85,3.27-1.24,8.1.36,14.75,2.68,11.12,8.55,23.16,12.04,34.27,5.96,18.95,12.18,24.42,23.86,20.3,11.68-4.12,18.66-12.44,20.78-22.77Z"/>
            <path class="cls-73" d="M426.3,182.02l-4.79,1.26,21.39-13.88s2.66-7.65-3.59-14.37c-.16-.18-.32-.33-.48-.49,2.56,3.69,2.19,8.05-4.24,12.77-6.22,4.56-10.62,7.46-16.53,11.65-5.11,3.63.34,11.99,3.46,12.06,3.11.07,1.93-8.25,4.77-9Z"/>
            <path class="cls-73" d="M442.89,169.4s1.26-3.63,0-8.08c.48,3.27-.94,5.45-2.77,6.65-1.85,1.22-16.8,10.9-20.23,13.18-3.44,2.28.4,6.61,1.47,6.13,1.07-.48-.43-2.87.13-4l21.39-13.88Z"/>
          </g>
        </g>
        <g>
          <g>
            <path class="cls-22" d="M120.86,234.36v158.53c0,8.2,16.98,14.85,37.92,14.85s37.92-6.65,37.92-14.85v-158.53h-75.85Z"/>
            <g class="cls-11">
              <path class="cls-51" d="M170.07,323.01c-6.73-25.19-29.35-26.96-34.16-48.32-2.01-8.92-1.07-21.94,11.72-40.33h-26.77v158.53c0,8.2,16.98,14.85,37.92,14.85,8.06,0,15.54-.99,21.69-2.67-7.35-8.13-12.45-17.2-14.45-27.34-4.47-22.61,9.97-32.59,4.05-54.72Z"/>
            </g>
            <path class="cls-36" d="M196.71,362.91c-13.24,4.66-30.19,6.49-50.83,1.84v-115.94h50.83v114.1Z"/>
          </g>
          <path class="cls-57" d="M121.47,218h74.63c1.88,0,3.4,1.52,3.4,3.4v14.1c0,1.88-1.52,3.4-3.4,3.4h-74.63c-1.88,0-3.4-1.52-3.4-3.4v-14.1c0-1.88,1.52-3.4,3.4-3.4Z"/>
          <rect class="cls-33" x="188.96" y="219.72" width="7.06" height="17.46" rx="2.44" ry="2.44"/>
          <rect class="cls-33" x="179.33" y="219.72" width="7.06" height="17.46" rx="2.44" ry="2.44"/>
          <rect class="cls-33" x="169.7" y="219.72" width="7.06" height="17.46" rx="2.44" ry="2.44"/>
          <rect class="cls-33" x="160.07" y="219.72" width="7.06" height="17.46" rx="2.44" ry="2.44"/>
          <rect class="cls-33" x="150.44" y="219.72" width="7.06" height="17.46" rx="2.44" ry="2.44"/>
          <rect class="cls-33" x="140.81" y="219.72" width="7.06" height="17.46" rx="2.44" ry="2.44"/>
          <rect class="cls-33" x="131.18" y="219.72" width="7.06" height="17.46" rx="2.44" ry="2.44"/>
          <rect class="cls-33" x="121.55" y="219.72" width="7.06" height="17.46" rx="2.44" ry="2.44"/>
        </g>
        <g>
          <path class="cls-45" d="M217.25,278.32c-4.47,24.23,11.51,46.17,36.19,49.06,25.24,2.96,49.9-15.04,54.56-40.28,4.65-25.24-12.62-47.3-38.05-49.24-24.86-1.9-48.23,16.23-52.7,40.46Z"/>
          <path class="cls-53" d="M216.86,278.8c-4.37,24.02,11.26,45.78,35.39,48.65,24.68,2.94,48.79-14.92,53.34-39.94,4.55-25.03-12.34-46.91-37.2-48.83-24.31-1.88-47.16,16.1-51.53,40.12Z"/>
          <path class="cls-6" d="M230.33,280.12c-3.01,16.58,7.83,31.51,24.45,33.38,16.88,1.9,33.27-10.36,36.37-27.41,3.1-17.05-8.34-32.04-25.3-33.46-16.71-1.4-32.5,10.91-35.52,27.49Z"/>
          <path class="cls-6" d="M246.59,281.72c-1.38,7.59,3.62,14.37,11.21,15.17,7.64.8,15.01-4.77,16.41-12.46,1.4-7.68-3.72-14.48-11.38-15.19-7.61-.7-14.85,4.89-16.23,12.47Z"/>
          <path class="cls-6" d="M238,312.34c9.81-11.31,3.09-22.25,12.44-33.17,11.9-13.89,31.25-6.08,39.48-18.76,1.04-1.6,1.92-3.56,2.44-6.02,7.65,8.27,11.38,20.05,9.08,32.7-4.13,22.74-26.03,38.99-48.47,36.36-7.19-.84-13.56-3.53-18.73-7.53,1.34-1.06,2.6-2.25,3.76-3.59Z"/>
        </g>
        <path class="cls-83" d="M397.1,473.89c-27.87,0-57.13-1.52-84.6-4.53-15.65-1.71-46.16-5.59-74.66-12.29-40.56-9.54-60.86-20.86-62.08-34.62-.81-9.13,6.96-14.93,17.71-22.95,9.77-7.29,21.93-16.36,33.35-31.65,15.52-20.78,24.24-46.01,25.92-74.99.1-1.71,1.68-3.01,3.54-2.93,1.86.09,3.28,1.55,3.18,3.25-1.74,30.13-10.86,56.43-27.09,78.16-11.97,16.02-25.08,25.81-34.66,32.95-10.36,7.73-15.74,12.02-15.25,17.65.91,10.35,21.17,20.69,57.04,29.13,29.17,6.86,61.32,10.77,73.79,12.14,48.18,5.28,101.87,5.94,143.62,1.79,22.05-2.19,39.73-5.57,52.55-10.04,12.88-4.49,20.28-9.99,21.4-15.89,1.81-9.48-11.97-21.09-23.03-30.43-11.06-9.33-19.8-16.71-15.68-23.19,2.75-4.33,9.83-5.48,22.28-3.6,8.6,1.3,17.41,3.72,20.3,4.52,25.16,6.93,43.9,18.2,57.58,26.43,10.09,6.07,18.81,11.31,21.93,9.23,2.03-1.35,2.71-5.55,2.05-8.47-.71-3.14-3.2-4.86-7.54-7.63-2.51-1.6-5.35-3.42-7.99-5.92-7.02-6.65-10.74-16.46-11.05-29.16-.04-1.71,1.43-3.12,3.29-3.16,1.85-.04,3.4,1.32,3.44,3.02.27,11.09,3.35,19.49,9.15,24.99,2.19,2.07,4.64,3.64,7,5.15,4.42,2.83,9,5.75,10.29,11.46.91,4.05.42,11.32-4.68,14.73-6.88,4.6-15.91-.83-29.57-9.05-13.34-8.02-31.6-19.01-55.83-25.68-31.3-8.62-34.8-3.77-34.83-3.72-.25.39.02,1.83,2.6,4.75,2.75,3.11,7.16,6.83,11.83,10.77,12.91,10.9,27.55,23.25,25.11,36.06-3.7,19.44-45.47,27.6-79.86,31.02-18.38,1.83-39.05,2.74-60.54,2.74Z"/>
        <g>
          <path class="cls-20" d="M235.05,321.86s1.66,12.4-11.33,21.14l13.82,3.32s4.42-8.32,1.22-22.1l-3.71-2.36Z"/>
          <path class="cls-75" d="M237.48,324.22s.74-1.85.62-2.68c-.12-.83-2.09-1.94-3.43-3.09-1.34-1.15.05,1.15.36,1.68.31.52,1.41,1.31,1.25,3.09l1.2,1.01Z"/>
          <path class="cls-62" d="M222.01,333.65c.68-1.34.96-1.34,1.13-2.05.38-1.62-.6-3.67-1.43-3.7-.54-.02-.58.82-1.72,2.13-1.39,1.6-2.23,1.39-3.05,2.78-.19.32-1.05,1.79-.52,2.88.68,1.39,3.34,1.61,4.46.54.53-.51.31-.92,1.14-2.58Z"/>
          <path class="cls-76" d="M220.01,335.1s.48,2.56.14,4.63c-.31,1.88-3.77,3.83-4.43,4.39-.66.56,1.76,1.17,3.98.87,2.22-.29,8.3-2.25,9.23-3.34.92-1.09-1.08-.55-2.76-.76-1.68-.21-3.29-3.04-3.34-4.49-.05-1.45-2.82-1.31-2.82-1.31Z"/>
          <path class="cls-26" d="M220.74,337.01s1.7.75,3.21-.46c1.35-1.08-.66-4.42-2.03-4.46-.46-.01-1.13.32-1.52.8-.23.28-.25.47-.64.93-.36.42-.52.46-.57.67-.07.26.05.69.97,1.42-.46-.09-.86.04-1.01.31-.02.04-.08.18-.06.32.06.5.71.74,1.65.48Z"/>
          <path class="cls-80" d="M258.11,328.12s1.03-.14.71-2.12c-.25-1.55-.06-2.07.3-1.8.36.27.42,1.17.42,1.17,0,0,1.33-1.14,1.87-2.63.55-1.49.9-.24,1.02.51.12.75-.78,3.06-1.29,3.49-.51.43-1.25,2.34-1.25,2.34l-1.78-.96Z"/>
          <path class="cls-27" d="M220.02,437.49c-.53,1.09-.38,1.55-.25,1.76.39.6,1.32.03,3.75.32.29.03.83.11,1.51-.05.58-.14,1.27-.45,1.24-.61-.01-.06-.11-.08-.15-.09-.67-.14-4.9-1.45-4.9-1.45l-1.19.11Z"/>
          <path class="cls-14" d="M219.7,435.11l.38,2.43s1.04.74,1.31-.16c.2-.64.19-2.38.19-2.38l-1.88.11Z"/>
          <polygon class="cls-68" points="231.53 435.27 230.51 438.07 229.03 437.83 229.37 435.24 231.53 435.27"/>
          <path class="cls-13" d="M230.05,439.61c-.72-.86-1.36-.78-1.49-1.37-.1-.46.18-1.03.6-1.24.6-.3,1.32.17,1.48.28,1.11.72.81,1.86,1.85,2.35.21.1.54.2.9.53.15.14.52.49.43.73-.1.28-.76.27-1.39.26-.75-.01-1.13-.02-1.49-.24-.5-.31-.35-.64-.9-1.3Z"/>
          <path class="cls-20" d="M211.78,377c.27,5.65,1.08,10.47,1.99,14.41.98,4.23,1.52,4.95,1.86,7.89.74,6.38-1.29,7.34-1.51,14.58-.25,7.99,2,14.29,2.88,16.69.77,2.1,1.57,3.79,2.16,4.97.74.62,1.85.35,3.02.09.28-7.25.67-14.07.95-21.32,1.16-10.92,2.32-21.84,3.48-32.76-4.95-1.51-9.89-3.02-14.84-4.53Z"/>
          <path class="cls-82" d="M222.18,435.61c.28-7.25.67-14.07.95-21.32,1.16-10.92,2.32-21.84,3.48-32.76-4.95-1.51-9.89-3.02-14.84-4.53.02.37.04.73.07,1.1,7.02,5.87,8.47,10.61,8.47,13.86,0,3.95-2.1,5.95-1.56,11.66.39,4.08,1.62,4.78,1.7,8.47.1,4.75-1.87,7.47-2.8,10.23-.9,2.67-1.16,6.44.8,11.75.25.55.49,1.04.71,1.46.74.62,1.85.35,3.02.09Z"/>
          <path class="cls-82" d="M220.17,381.22c4.45,5.48,6.99,10.61,8.46,14.2,1.76,4.32,3.04,7.56,2.64,11.75-.44,4.61-2.52,6.27-3.9,10.21-1.34,3.82-1.99,9.69,1.5,18.42.88.31,1.76.61,2.64.92.58-2.36,1.53-5.89,2.94-10.1,2.8-8.33,5.6-13.82,6.35-15.52,2.66-6,2.93-16.71-8.14-37.37-4.16,2.5-8.33,5-12.49,7.5Z"/>
          <path class="cls-20" d="M260.85,328.65c-1.17-.82-2.34-1.65-3.51-2.47-1.43,8.81-4.67,12.27-7.42,13.78-6.64,3.65-12.56-2.85-25.27-.2-3.5.73-9.61,2.09-12.99,7.11-.89,1.32-1.21,2.32-2.68,11.78-1.89,12.09-1.96,14.2-1.69,16.8.49,4.76.78,7.65,2.97,10.21,5.8,6.79,18.13,3.29,19.68,2.83,2.86-.85,7.29-2.17,9.06-5.97.83-1.79.74-3.42-.53-9.95-2.53-12.93-2.85-13.77-2.14-15.19,2.38-4.78,9.92-2.04,16.29-6.49,3.72-2.6,7.92-8.26,8.25-22.24Z"/>
          <path class="cls-82" d="M224.15,386.75c1.24-2.56-.43-4.93,1.41-8.01,2.34-3.93,6.54-2.59,8.12-5.5,2.7-4.96-7.94-11.88-5.78-19.79,1.03-3.77,4.64-6.5,7.65-7.54,6.69-2.3,11.06,3.56,17.34,1.73,1.49-.43,3.19-1.33,4.92-3.2-1.53,3.24-3.42,5.19-5.21,6.44-6.37,4.44-13.91,1.71-16.29,6.49-.71,1.42-.38,2.25,2.14,15.19,1.28,6.53,1.36,8.16.53,9.95-1.76,3.79-6.2,5.12-9.06,5.97-.85.25-4.92,1.41-9.39,1.3,1.99-.81,3.07-1.9,3.62-3.03Z"/>
        </g>
        <g>
          <g>
            <path class="cls-32" d="M605.82,186.35l-4.34-.26c-3.71-.1-12.14,2.77-12.08,6.41l.02,1.3c-.56,5.57,7.83,6.64,11.53,6.71l5.11.17c2.73.05,5.03-1.54,6-3.84,2.02.32,2.68.79,4.47,1.64v-5.8c-1.76-.66-2.29-.85-4.2-1.13-.72-2.9-3.37-5.12-6.5-5.2Z"/>
            <path class="cls-32" d="M616.62,322.2c-2.85,3.64-6.15,6.99-9.86,9.95l-17.93,14.31c-1.81-.12-3.72.48-5.22,1.83l-6.77,6.03c-1.08.96-2.28,1.72-3.55,2.27-1.11-.63-2.45-.95-3.88-.83-1.53.12-2.93.72-4.06,1.62-1.48-.34-2.9-.96-4.18-1.86l-6.96-4.97c-1.61-1.15-3.64-1.49-5.55-1.08l-19.74-12.15c-16.52-10.16-26.73-27.75-27.04-46.89-.03-1.67-.95-3.11-2.34-3.95l-1.16-70.29c-.18-11.03,8.53-20,19.83-21.23,1.17,2.48,3.8,4.25,6.83,4.3l2.86.19c3.98.07,14.99-2.91,14.93-6.65l-.02-1.34c-.06-3.75-9.24-6.87-13.22-6.98l-4.79-.29c-3.48-.09-6.37,2.11-7.07,5.14-14.49,1.33-25.75,12.72-25.52,26.81l1.16,70.55c-1.37.95-2.26,2.46-2.23,4.14.18,11.04,3.23,21.93,8.79,31.46,5.52,9.46,13.49,17.52,22.99,23.3l19.88,12.09c.29,1.51,1.14,2.9,2.51,3.87l7.04,4.95c2.18,1.54,4.57,2.67,7.06,3.42l17.36-.73c3.2-1.22,6.23-3.02,8.89-5.42l6.7-6.04c1.28-1.15,2.04-2.64,2.27-4.16l17.79-14.34c1.41-1.13,2.77-2.33,4.08-3.56l.13-13.46Z"/>
          </g>
          <g>
            <path class="cls-92" d="M529.89,199.43l-2.88-.19c-4.06-.07-7.82-3.21-8.38-7.02l-.2-1.36c-.56-3.8,2.3-6.8,6.36-6.69l4.83.29c3.99.11,13.58,3.23,14.13,6.98l.2,1.34c.55,3.75-10.07,6.73-14.06,6.65Z"/>
            <path class="cls-93" d="M584.78,366.21l-39.68-22.4c-9.93-5.61-18.67-13.42-25.22-22.6-6.59-9.23-10.92-19.79-12.5-30.48l-11-74.6c-2.15-14.57,8.36-26.25,23.46-26.91,1.2-.05,2.24.83,2.42,2.02l.14.93c.2,1.36-.79,2.6-2.15,2.71-11.48.96-19.33,10.06-17.67,21.3l10.96,74.33c2.92,19.83,15.9,38.04,34.4,48.56l39.53,22.46-2.69,4.7Z"/>
            <path class="cls-72" d="M586.82,368.61c-1.01.09-2.07-.12-3.04-.67l-39.73-22.38c-10.25-5.78-19.28-13.83-26.04-23.3-6.81-9.53-11.28-20.42-12.91-31.46-.4-2.74,1.67-5.05,4.63-5.15,2.95-.1,5.66,2.03,6.06,4.75,2.82,19.13,15.33,36.72,33.18,46.89l39.48,22.48c2.4,1.37,3.31,4.3,2.03,6.55-.77,1.35-2.16,2.16-3.66,2.29Z"/>
            <path class="cls-93" d="M601.22,364.79l-3.93-4.1,30.25-27.03c13.28-11.87,19.49-29.76,16.79-48.03l-10.1-68.49c-1.64-11.1-12.08-20.32-23.42-20.56l-.78-5.3c14.27.34,27.36,11.95,29.42,25.9l10.07,68.26c1.44,9.78.57,19.68-2.53,28.67-3.12,9.04-8.52,17.2-15.66,23.62l-30.11,27.07Z"/>
            <path class="cls-97" d="M599.96,367.46c-1.49.13-3.05-.41-4.19-1.59-1.9-1.97-1.86-4.97.07-6.7l30.3-27.02c12.87-11.47,18.88-28.77,16.27-46.45-.37-2.52,1.36-4.63,3.85-4.71,2.49-.09,4.8,1.87,5.16,4.38,1.49,10.07.59,20.27-2.6,29.52-3.21,9.31-8.77,17.72-16.11,24.34l-30.05,27.08c-.77.69-1.72,1.07-2.71,1.16Z"/>
            <path class="cls-81" d="M603.08,200.5l5.13.17c3.65.06,6.18-2.79,5.65-6.38l-.19-1.28c-.53-3.59-3.91-6.57-7.57-6.67l-4.38-.26c-3.72-.1-11.78,2.77-11.24,6.41l.19,1.3c.17,5.57,8.7,6.64,12.41,6.71Z"/>
            <path class="cls-1" d="M593.8,370.9c-5.89.53-12.12-.9-17.56-4.41l-7.69-4.96c-3.33-2.15-4.35-6.37-2.27-9.42,2.07-3.04,6.43-3.74,9.72-1.59l7.62,4.97c5.05,3.3,11.58,2.79,15.52-1.19l5.98-6.03c2.51-2.53,6.76-2.45,9.5.16,2.74,2.6,2.95,6.74.47,9.27l-5.91,6.04c-4.12,4.21-9.59,6.63-15.38,7.15Z"/>
            <path class="cls-1" d="M596.61,387.83c-3.76.38-7.26-2.29-7.81-5.97l-2.79-18.89c-.54-3.68,2.09-6.91,5.86-7.22,3.76-.31,7.22,2.4,7.76,6.05l2.76,18.73c.54,3.65-2.05,6.91-5.79,7.29Z"/>
            <path class="cls-71" d="M597.31,193.04c.42,2.06-.42,3.97-1.88,4.27-1.46.3-2.98-1.13-3.4-3.19-.42-2.06.42-3.97,1.88-4.27,1.46-.3,2.98,1.13,3.4,3.19Z"/>
          </g>
        </g>
        <path class="cls-1" d="M254.35,305.08c-3.66-.96-6.02-4.69-5.25-8.32l3.93-18.69c.77-3.64,4.35-5.75,8-4.71,3.63,1.03,5.94,4.78,5.18,8.39l-3.9,18.53c-.76,3.61-4.31,5.76-7.96,4.81Z"/>
        <g>
          <g>
            <path class="cls-86" d="M101.32,411.79c-4.41-.58-9.25-.9-14.33-.9s-9.92.32-14.33.9h-22.93v10.83c0,6.48,16.68,11.73,37.26,11.73s37.26-5.25,37.26-11.73v-10.83h-22.93Z"/>
            <ellipse class="cls-33" cx="86.99" cy="411.79" rx="37.26" ry="11.73"/>
            <path class="cls-8" d="M86.99,420.32c-9.64,0-18.66-1.17-25.39-3.29-7.08-2.23-8.68-4.59-8.68-5.24s1.59-3.01,8.68-5.24c6.74-2.12,15.76-3.29,25.39-3.29s18.66,1.17,25.39,3.29c7.08,2.23,8.68,4.59,8.68,5.24s-1.59,3.01-8.68,5.24c-6.74,2.12-15.76,3.29-25.39,3.29Z"/>
            <path class="cls-8" d="M86.99,420.32c-9.64,0-18.66-1.25-25.39-3.53-7.08-2.39-8.68-4.93-8.68-5.62s1.59-3.23,8.68-5.62c6.74-2.28,15.76-3.53,25.39-3.53s18.66,1.25,25.39,3.53c7.08,2.39,8.68,4.93,8.68,5.62s-1.59,3.23-8.68,5.62c-6.74,2.28-15.76,3.53-25.39,3.53Z"/>
            <path class="cls-67" d="M66.44,415.72c-.91,0-1.71-.55-1.88-1.33-.19-.88.5-1.72,1.54-1.88l38.8-6c1.04-.16,2.04.42,2.22,1.3.19.88-.5,1.72-1.54,1.88l-38.8,6c-.12.02-.23.03-.35.03Z"/>
          </g>
          <g>
            <path class="cls-55" d="M101.32,399.4c-4.41-.58-9.25-.9-14.33-.9s-9.92.32-14.33.9h-22.93v10.83c0,6.48,16.68,11.73,37.26,11.73s37.26-5.25,37.26-11.73v-10.83h-22.93Z"/>
            <ellipse class="cls-33" cx="86.99" cy="399.4" rx="37.26" ry="11.73"/>
            <path class="cls-8" d="M86.99,407.93c-9.64,0-18.66-1.17-25.39-3.29-7.08-2.23-8.68-4.59-8.68-5.24s1.59-3.01,8.68-5.24c6.74-2.12,15.76-3.29,25.39-3.29s18.66,1.17,25.39,3.29c7.08,2.23,8.68,4.59,8.68,5.24s-1.59,3.01-8.68,5.24c-6.74,2.12-15.76,3.29-25.39,3.29Z"/>
            <path class="cls-8" d="M86.99,407.93c-9.64,0-18.66-1.25-25.39-3.53-7.08-2.39-8.68-4.93-8.68-5.62s1.59-3.23,8.68-5.62c6.74-2.28,15.76-3.53,25.39-3.53s18.66,1.25,25.39,3.53c7.08,2.39,8.68,4.93,8.68,5.62s-1.59,3.23-8.68,5.62c-6.74,2.28-15.76,3.53-25.39,3.53Z"/>
            <path class="cls-67" d="M66.44,403.32c-.91,0-1.71-.55-1.88-1.33-.19-.88.5-1.72,1.54-1.88l38.8-6c1.04-.16,2.04.42,2.22,1.3.19.88-.5,1.72-1.54,1.88l-38.8,6c-.12.02-.23.03-.35.03Z"/>
          </g>
          <g>
            <path class="cls-95" d="M172.21,410.22c2.74,15.97-10.92,29.49-27.07,31.02-16.43,1.56-32.27-10.53-35.09-27.02-2.83-16.49,9.15-33.66,25.67-34.7,16.23-1.02,33.75,14.72,36.49,30.69Z"/>
            <path class="cls-33" d="M173.1,406.24c2.74,15.97-7.92,30.14-24.07,31.67-16.43,1.56-32.27-10.53-35.09-27.02-2.83-16.49,8.49-30.71,25.02-31.74,16.23-1.02,31.41,11.12,34.15,27.09Z"/>
            <path class="cls-8" d="M146.17,435.43c-6.88,0-13.7-2.54-19.23-7.15-5.56-4.65-9.28-10.98-10.45-17.84-1.23-7.2.43-14.14,4.69-19.55,4.28-5.44,10.65-8.69,17.93-9.14.58-.04,1.16-.05,1.74-.05,14.25,0,27.29,10.98,29.69,24.99,1.21,7.03-.39,13.87-4.49,19.26-4.09,5.37-10.22,8.7-17.27,9.37-.87.08-1.75.12-2.62.12Z"/>
            <path class="cls-67" d="M139.79,384.04c-1.49.1-2.49,1.37-2.24,2.85l7.35,42.88c.25,1.48,1.66,2.56,3.14,2.43,1.48-.14,2.47-1.44,2.22-2.91l-7.33-42.76c-.25-1.47-1.66-2.59-3.14-2.49Z"/>
            <path class="cls-8" d="M150.27,429.28l-7.33-42.76c-.25-1.47-1.66-2.59-3.14-2.49-.51.03-.96.21-1.33.48.09-.01.17-.02.26-.03,1.49-.1,2.89,1.02,3.14,2.49l7.33,42.76c.17.99-.22,1.9-.95,2.43,1.36-.23,2.25-1.48,2.01-2.88Z"/>
          </g>
        </g>
        <g>
          <g>
            <path class="cls-56" d="M449.06,441.06s1.34.67,1.34,1.35-1.68,2.36-2.35,3.03c-.67.67-1.34.34-1.68,0-.34-.34,0-.34.67-1.01s2.01-3.37,2.01-3.37Z"/>
            <path class="cls-25" d="M449.06,437.7s.33,3.03.67,4.04c0,0-.33.34-1,.34,0,0-1.01-2.02-1.34-3.03l1.68-1.35Z"/>
            <path class="cls-44" d="M432.31,448.14s1.01.67,0,1.68c-1,1.01-2.35,1.68-3.35,1.68-.39,0-.78-.1-1.12-.23-.45-.17-.51-.77-.12-1.04.42-.28,1.04-.66,1.9-1.09,2.01-1.01,2.68-1.01,2.68-1.01Z"/>
            <path class="cls-29" d="M434.32,444.43s-1.54,3.4-1.77,4.04c-.24.67-.95.34-1.27,0,0,0,.69-3.37,1.03-4.38l2.01.34Z"/>
            <path class="cls-41" d="M431.98,391.55c-5.71,3.78-1.92,17.64-.67,22.23,1.6,5.87,5.49,16.15,16.08,26.61.67-.22,1.34-.45,2.01-.67.41-2,.82-5.07.33-8.76-.1-.74-.45-3.14-1.68-6.4-2.02-5.35-3.87-6.26-5.03-9.09-3.18-7.83,5.6-14,2.68-19.87-2.19-4.4-9.92-6.57-13.74-4.04Z"/>
            <path class="cls-82" d="M452.75,385.82c-.4,8.43-2.13,14.84-3.69,19.2-3.02,8.49-5.69,10.16-7.04,18.19-.75,4.48-.4,6.88-2.01,12.46-.99,3.44-2.85,9.65-6.37,10.11-.81.1-1.52-.12-2.01-.34.78-5.87,1.45-11.94,2.01-18.19,1.31-14.77,1.79-28.74,1.68-41.77,5.81.11,11.61.22,17.42.34Z"/>
            <path class="cls-33" d="M416.23,342.37c-2.41-.36-5.91-.54-9.72.67-6.04,1.92-7.85,5.75-12.06,7.75-3.69,1.75-9.68,2.3-19.77-3.03-.11.9-.22,1.8-.34,2.69,6.04,8.08,11.2,9.89,14.74,10.11,5.93.35,8.69-3.72,16.75-3.03,5.54.47,7.6,2.68,9.72,1.35,1.89-1.19,3.33-4.9.67-16.51Z"/>
            <path class="cls-15" d="M465.82,334.29c3.41,2.03,3.27,3.22,5.7,4.04,4.47,1.51,6.89-1.88,10.72-.67,3.57,1.12,6.24,5.57,6.37,9.43.21,6.5-6.82,10.91-13.07,14.82-4.21,2.64-7.02,4.34-10.39,3.71-4.58-.86-4.8-5.01-9.38-6.06-5.3-1.21-7.56,3.75-13.07,3.03-4.2-.55-4.43-3.65-11.06-9.09-9.23-7.58-15.05-6.7-16.42-11.79-1.03-3.82,1.09-8.61,4.36-10.44,2.92-1.64,6.21-.62,10.39.67,8.25,2.55,8.42,5.76,12.73,5.73,6.13-.04,7.22-6.52,14.07-6.4,4.07.07,8.05,2.44,9.05,3.03Z"/>
            <path class="cls-33" d="M436.67,348.77c-3.05-2.54-5.95-3.7-7.71-4.38-1.96-.62-11.65-3.56-16.75-1.68-1.39.51-1.89,1.18-2.01,1.35-1.26,1.78.11,3.98.34,8.08.15,2.65-.36,3-.34,5.05.05,4.22,2.21,6.77,4.36,10.44,2.53,4.34,7.64,13.36,7.04,22.9-.19,3.03-.83,4.66.34,6.06,1.91,2.31,5.56.23,11.39,2.02,4.49,1.38,3.84,3.08,7.71,4.04,4.5,1.12,10.85.17,14.41-3.71,2.28-2.49,2.14-4.8,4.36-5.39,2.67-.71,4.81,2.13,6.7,1.01,1.04-.62.59-1.6,2.01-4.04,1.63-2.82,3.02-2.86,3.02-4.04-.01-2.29-5.22-2.19-9.05-6.74-2.23-2.65-1.44-3.85-3.69-6.4-2.83-3.21-5.37-2.78-8.71-4.72-7.59-4.41-4.58-12.51-13.4-19.87Z"/>
            <path class="cls-20" d="M428.29,344.39s-6.37-2.69-11.73-2.02c0,0-.67,4.72.34,7.41,0,0,6.7-4.72,11.39-5.39Z"/>
            <path class="cls-70" d="M421.26,338.66s.34,2.02,1.34,3.03c1.01,1.01,2.35,1.68,3.02,2.02s-1,1.01-2.68,1.01-5.36-1.01-5.36-2.02,1.34-.34,2.01-.67c1.5-.75,0-3.37,0-3.37h1.68Z"/>
            <g class="cls-10">
              <path class="cls-47" d="M374.69,347.76c2,1.06,3.83,1.88,5.52,2.51,2.46,5.11,4.94,6.6,6.88,6.92,2.88.48,3.71-1.76,10.72-2.69,3.34-.44,4.8-.15,7.37-1.35,2.45-1.14,3.36-2.44,4.36-2.02,1.91.81.47,7.08,1.68,7.41,1.01.27,2.02-4.06,4.53-4.4,2.22-.31,2.88,2.89,5.77,3.87,5.12,1.73,9.5-6.1,14.23-4.64,1.48.45,1.78,1.44,5.39,8.12,6.32,11.69,7.83,13.18,9.62,14.23,3.76,2.21,5.32.68,7.71,3.03,3.2,3.16,2,6.77,4.36,10.1.91,1.28,2.37,2.56,4.85,3.47-.44,1.19-.43,1.82-1.17,2.26-1.89,1.12-4.03-1.73-6.7-1.01-2.21.59-2.07,2.9-4.36,5.39-3.56,3.87-9.91,4.82-14.41,3.71-3.86-.96-3.22-2.66-7.71-4.04-5.83-1.79-9.48.29-11.39-2.02-1.17-1.41-.53-3.04-.34-6.06.6-9.54-4.5-18.56-7.04-22.91-1.94-3.32-3.89-5.73-4.28-9.27-1.19-.34-2.62-.68-4.43-.83-8.06-.69-10.82,3.39-16.75,3.03-3.54-.21-8.7-2.02-14.74-10.11.11-.9.22-1.8.34-2.69Z"/>
            </g>
            <path class="cls-96" d="M422.96,339.42s-1.24,2.07-3.53,1.45c-2.05-.55-1.31-5.81.21-6.53.51-.24,1.48-.24,2.16.11.48.24,1.82,1.65,1.27,3.4.49-.19.94-.1,1.07.14.17.3-.22.77-.31.88-.3.37-.7.5-.88.54Z"/>
            <path class="cls-33" d="M411.89,352.97s3.85,6.96,12.31,7.73c8.46.77,8.46-12.76,8.46-12.76,0,0,.32-.14.83-.18,0,0,.94-.08,1.96.41,1.12.53,7.33,6.27,5.67,13.31-1.38,5.88-7.44,9.25-12.31,9.67-7.29.63-14.94-5.1-17.69-14.31l.77-3.87Z"/>
          </g>
          <g>
            <path class="cls-89" d="M385.69,444.84c1.34,1.09,1.42,1.87,1.38,2.25-.07.61-.53.85-1.62,2-1.48,1.56-1.25,1.77-2.01,2.33-1.66,1.24-4.02,1.16-4.16.74-.1-.3.96-.54,2.18-1.95,1.12-1.3,1.5-2.59,1.6-2.97.18-.69.23-1.28.24-1.69l2.4-.7Z"/>
            <path class="cls-60" d="M381.19,441.51l2.65,4.64c.64.28,1.25.14,1.81-.69l-1.03-5.64-3.43,1.69Z"/>
            <path class="cls-52" d="M377.98,382.01c-2.58,4.38-6.76,12.83-7.61,24.25-.84,11.28,1.99,19.87,3.18,23.08,2.22,6.01,6.08,12.31,8.33,15.32,1.51-.64,2.4-1.63,3.92-2.27-.23-.83-.93-3.56-1.37-5.19-.34-1.26-.97-3.6-1.1-4.09-1.09-4.18-.23-7.31-.53-12.48-.35-6.02-1.72-5.32-1.51-8.94.31-5.4,3.35-6.66,6.85-14.48,2.39-5.35,4.9-10.97,2.59-14.04-2.91-3.87-11.75-1.44-12.74-1.15Z"/>
            <path class="cls-46" d="M396.65,449.08c.81.52,1.29,1.74.93,2.51-.36.76-1.28.52-3.52,1.21-2.4.74-2.87,1.49-4.63,1.49-.71,0-2.01-.12-2.11-.61-.08-.34.47-.68,2.28-1.9,2.57-1.73,2.54-1.78,3.11-2.05,1.44-.67,2.88-1.34,3.95-.66Z"/>
            <path class="cls-85" d="M392.82,445.41l.98,4.52c.14.2,1.54.69,2.52,0l-.36-4.52h-3.14Z"/>
            <path class="cls-7" d="M390.72,383.17c-2.91-3.87-11.75-1.44-12.74-1.15-1.06,1.8-2.39,4.3-3.65,7.39,3.13-.62,4.49-.06,5.13.69,2.46,2.9-5.24,9.31-3.66,19.02.62,3.8,2.24,5.51,1.94,10.15-.22,3.45-1.29,5.2-2.03,7.73-.44,1.52-.79,3.38-.8,5.64,2.22,4.9,5.13,9.56,6.96,12.01,1.51-.64,2.4-1.63,3.92-2.27-.23-.83-.93-3.56-1.37-5.19-.34-1.26-.97-3.6-1.1-4.09-1.09-4.18-.23-7.31-.53-12.48-.35-6.02-1.72-5.32-1.51-8.94.31-5.4,3.35-6.66,6.85-14.48,2.39-5.35,4.9-10.97,2.59-14.04Z"/>
            <path class="cls-54" d="M384.89,384.39c-.25,10.07.13,21.75,1.78,34.61,1.34,10.47,3.29,19.93,5.44,28.22.3.17,1.34.71,2.68.46.95-.18,1.58-.67,1.86-.92-.23-1.69-.47-4.26-.28-7.35.33-5.32,1.58-6.41,2.12-11.92.47-4.83-.03-8.78-.26-10.61-.74-5.63-1.74-5.75-1.76-9.12-.03-5.19,2.33-7.05,3.63-12,.87-3.3,1.33-8.23-.85-14.99-4.78,1.21-9.57,2.42-14.35,3.63Z"/>
            <path class="cls-3" d="M399.24,380.76c-1.4.35-2.8.71-4.2,1.06.73,2.54,1.44,6.34.59,10.67-1.17,5.97-4.19,7.28-4.63,12.66-.4,4.84,1.87,5.83,2.96,12.29,1.12,6.62-.57,9.73-.93,15.27-.24,3.79.15,8.74,2.44,14.78.57-.23.96-.54,1.17-.72-.23-1.69-.47-4.26-.28-7.35.33-5.32,1.58-6.41,2.12-11.92.47-4.83-.03-8.78-.26-10.61-.74-5.63-1.74-5.75-1.76-9.12-.03-5.19,2.33-7.05,3.63-12,.87-3.3,1.33-8.23-.85-14.99Z"/>
            <path class="cls-28" d="M373.31,348.41s.92,1-.34,3.91c-1.9,4.38.15,8.15.76,15.31.67,7.85-.28,20.94-2.48,25.62-.04.08-.13.31-.09.61.5,3.83,26.11,6.37,31.12-2.54,1.28-2.27-.02-3.06-1.06-12.78-1.34-12.53.36-15.56-2.05-22.7-1.42-4.2-3.53-7.67-5.75-10.48-.91-.66-3.36-1.33-11.49-.25-.7.26-6.78,1.61-8.62,3.3Z"/>
            <g>
              <path class="cls-90" d="M384.88,339.01s1.61,5.08,2.13,5.69c.52.61-2.09,2.21-4.09,1.49-1.84-.66,0-3.48,0-3.48l1.96-3.7Z"/>
              <g>
                <path d="M378.54,341.77c-1.08-.46-1.94-1.87-1.76-3.18.16-1.13,1.05-1.8,1.59-2.2,1.55-1.16,4.04-1.68,5.66-.57.96.66,1.11,3.09,1.16,3.52.06.48-.17.79-.28,1.24-.15.63-.39,1.62-.75,3.26-.26-.27-.6-.6-1.03-.91-.16-.12-.82-.59-1.55-.87-1.48-.56-2,.15-3.03-.28Z"/>
                <path class="cls-17" d="M385.03,342.12s-.06,2.43-2.31,3.56c-2.02,1-4.83-3.21-4.12-4.87.24-.55.99-1.16,1.78-1.37.46-.12.69-.03,1.45-.24.69-.19.83-.36,1.1-.31.34.06.78.44,1.14,1.94.15-.59.52-1,.92-1.03.06,0,.25,0,.4.1.56.34.47,1.25-.35,2.22Z"/>
              </g>
            </g>
            <path class="cls-2" d="M401.23,378.54c-1.34-12.53.36-15.56-2.05-22.7-1.13-3.36-2.71-6.24-4.43-8.7-.77.95-.3,6.11-.93,6.99-5.34,7.46-7,8.29-5.96,11.8,1.03,3.49,3.33,4.69,5.39,10.83,1.34,4.02,3.23,9.64,1.15,15.08-.79,2.06-2.01,3.76-3.43,5.14,5.02-.71,9.52-2.44,11.33-5.65,1.28-2.27-.02-3.06-1.06-12.78Z"/>
            <path class="cls-49" d="M394.53,361.94c-.35-2.51-1.4-3.16-1.78-3.35-.64-.31-.95-.07-3.18-.11-1.99-.03-2.46-.24-2.71.11-.48.65.5,2.35,1.61,3.35,1.56,1.4,3.48,1.52,4.28,1.52l1.78-1.52Z"/>
            <path class="cls-87" d="M383.04,359.88c.35-2.51,1.4-3.16,1.78-3.35.64-.31.95-.07,3.18-.11,1.99-.03,2.46-.24,2.71.11.48.65-.5,2.35-1.61,3.35-1.56,1.4-3.48,1.52-4.28,1.52l-1.78-1.52Z"/>
            <path class="cls-18" d="M392.2,362.45c-.44,1.62,7.61,8.26,13.96,5.37,3-1.37,5.25-4.7,5.34-7.84.17-6.1-7.73-12.78-20.11-15.27-.94,2.67-1.73,6.32,0,9.08,2.94,4.68,11.48,4.15,11.49,6.19,0,.9-1.67,1.8-2.87,2.06-2.03.44-3.12-.85-5.75-.41-.92.15-1.92.32-2.05.83Z"/>
            <path class="cls-43" d="M373.31,348.41s-8.21,7.02-9.03,14.86c-.82,7.84,10.67,10.73,20.52-2.06l-1.64-1.24s-7.8.83-8.62,1.24c-.82.41,2.87-6.6,2.87-6.6l-4.1-6.19Z"/>
          </g>
          <path class="cls-88" d="M411.51,352.97s-3.61-3.49-6.61-2.91c-3,.59,2.38,1.36,3.15,3.68.77,2.32,3.46,1.93,3.46-.77Z"/>
        </g>
        <g>
          <path class="cls-50" d="M640.73,64.37l-85.21-6.42c-5.51-.42-10.02,3.71-10.02,9.21v44.44c0,5.51,4.51,10.04,10.02,10.14l2.18.04v17.35l1.73.42,20.83-17.39,60.47,1c4.83.08,8.71-4.07,8.71-9.26v-39.46c0-5.19-3.88-9.7-8.71-10.06Z"/>
          <g>
            <path class="cls-74" d="M642.38,64.38l-85.21-6.42c-5.51-.42-10.02,3.71-10.02,9.21v44.44c0,5.51,4.51,10.04,10.02,10.13l85.21,1.41c4.83.08,8.71-4.07,8.71-9.26v-39.46c0-5.19-3.88-9.7-8.71-10.06Z"/>
            <polygon class="cls-61" points="559.36 139.73 592.5 113.9 559.36 113.09 559.36 139.73"/>
          </g>
          <g class="cls-38">
            <path class="cls-33" d="M625.49,117.15c-10.88-11.26-8.38-21.11-19.27-29.2-14.13-10.49-27.13-.72-40.49-10.66-4.37-3.25-9.05-8.81-12.03-18.97-3.81,1.12-6.54,4.57-6.54,8.85v44.44c0,5.51,4.51,10.04,10.02,10.13l2.18.04v17.95l22.56-17.58,50.61.84c-2.44-1.61-4.82-3.54-7.04-5.84Z"/>
          </g>
          <g>
            <g>
              <path class="cls-39" d="M558.26,91.83l3.15.52c-.15,2.73-.66,4.81-1.52,6.23-.87,1.43-1.94,2.12-3.21,2.07-1.54-.06-2.78-1.11-3.73-3.17-.95-2.06-1.43-4.87-1.43-8.43s.45-6.35,1.35-8.47c.9-2.11,2.15-3.12,3.75-3.03,1.49.09,2.64.97,3.44,2.65.8,1.68,1.25,3.87,1.35,6.58l-3.22.19c0-1.5-.15-2.59-.43-3.27-.29-.68-.63-1.03-1.02-1.05-1.09-.06-1.64,2.09-1.64,6.45,0,2.44.14,4.11.43,5,.28.89.68,1.34,1.2,1.36.91.04,1.43-1.18,1.54-3.64Z"/>
              <path class="cls-16" d="M568.6,100.75l-.62-4.39-2.97-.12-.67,4.36-2.78-.1,3.45-22.11,3.6.21,3.46,22.29-3.45-.13ZM565.58,91.41l1.8.08-.9-6.48-.9,6.4Z"/>
              <path class="cls-58" d="M582.73,101.27l-3.68-.14-1.59-8.47-1.05-.05v8.42l-3.35-.12v-22.07l5.7.33c1.25.07,2.22.72,2.9,1.94.69,1.22,1.03,2.8,1.03,4.73,0,1.26-.13,2.37-.38,3.32-.25.96-.76,1.78-1.53,2.49l1.95,9.63ZM576.42,87.92l1.43.07c.42.02.76-.14,1.01-.48.25-.34.38-.85.38-1.54,0-1.4-.43-2.13-1.28-2.17l-1.54-.08v4.21Z"/>
              <path class="cls-31" d="M584.3,101.33v-21.85l4.14.24c1.79.1,3.12,1.26,4.01,3.47.88,2.21,1.32,4.73,1.32,7.56,0,3.24-.47,5.85-1.42,7.84-.95,1.99-2.18,2.96-3.71,2.9l-4.34-.16ZM587.58,96.44l.85.04c.54.02,1-.49,1.37-1.55.37-1.06.56-2.51.56-4.35,0-1.58-.16-2.95-.49-4.12-.33-1.16-.81-1.76-1.43-1.79l-.85-.04v11.82Z"/>
              <path class="cls-24" d="M598.35,80.29v21.56l-3.22-.12v-21.63l3.22.18Z"/>
              <path class="cls-64" d="M604.66,102.41c-1.46-.05-2.65-1.1-3.57-3.14-.92-2.05-1.38-4.75-1.38-8.12s.44-5.85,1.32-7.9c.88-2.05,2.1-3.02,3.66-2.93,1.44.08,2.61,1.13,3.51,3.14.9,2.01,1.35,4.65,1.35,7.92s-.45,6.08-1.36,8.09c-.91,2.01-2.08,2.99-3.52,2.94ZM604.64,97.55c.53.02.92-.44,1.15-1.4.23-.96.35-2.72.35-5.29,0-3.72-.48-5.61-1.44-5.66-1.04-.06-1.56,2.05-1.56,6.3,0,3.99.5,6.01,1.5,6.05Z"/>
              <path class="cls-42" d="M617.98,97.38v5.19l-7.12-.26v-21.31l3.13.18v16.03l3.99.17Z"/>
              <path class="cls-78" d="M623.26,103.1c-1.4-.05-2.55-1.08-3.44-3.08-.89-2.01-1.34-4.67-1.34-7.97s.43-5.75,1.28-7.77c.85-2.01,2.03-2.97,3.53-2.89,1.39.08,2.51,1.11,3.39,3.09.87,1.97,1.3,4.57,1.3,7.78s-.44,5.98-1.31,7.95c-.88,1.98-2.01,2.94-3.4,2.89ZM623.24,98.31c.52.02.89-.44,1.11-1.38.23-.94.34-2.67.34-5.2,0-3.66-.46-5.51-1.39-5.56-1.01-.05-1.51,2.01-1.51,6.19,0,3.92.48,5.91,1.45,5.95Z"/>
              <path class="cls-21" d="M637.71,91.67v11.64l-1.46-.05c-.12-.87-.25-1.6-.39-2.19-.6,1.64-1.5,2.45-2.69,2.4-1.26-.05-2.31-1.03-3.12-2.94-.82-1.92-1.23-4.49-1.23-7.71s.4-5.74,1.19-7.83c.79-2.09,1.97-3.08,3.52-2.99,1.16.07,2.1.75,2.81,2.05.71,1.3,1.17,3.11,1.37,5.43l-2.89.46c-.14-2.17-.59-3.28-1.34-3.32-.99-.05-1.48,1.92-1.48,5.92,0,2.42.16,4.02.47,4.8.32.78.7,1.18,1.15,1.2.36.02.67-.21.93-.66.26-.46.39-1.09.39-1.91l-1.62-.07v-4.43l4.39.21Z"/>
              <path class="cls-12" d="M646.73,83.05l-2.99,11.73v8.74l-2.87-.11v-8.77l-3.25-12.12,3.25.19,1.69,6.91,1.61-6.72,2.57.15Z"/>
            </g>
            <g>
              <path class="cls-69" d="M558.26,91.83l3.15.52c-.15,2.73-.66,4.81-1.52,6.23-.87,1.43-1.94,2.12-3.21,2.07-1.54-.06-2.78-1.11-3.73-3.17-.95-2.06-1.43-4.87-1.43-8.43s.45-6.35,1.35-8.47c.9-2.11,2.15-3.12,3.75-3.03,1.49.09,2.64.97,3.44,2.65.8,1.68,1.25,3.87,1.35,6.58l-3.22.19c0-1.5-.15-2.59-.43-3.27-.29-.68-.63-1.03-1.02-1.05-1.09-.06-1.64,2.09-1.64,6.45,0,2.44.14,4.11.43,5,.28.89.68,1.34,1.2,1.36.91.04,1.43-1.18,1.54-3.64Z"/>
              <path class="cls-69" d="M568.6,100.75l-.62-4.39-2.97-.12-.67,4.36-2.78-.1,3.45-22.11,3.6.21,3.46,22.29-3.45-.13ZM565.58,91.41l1.8.08-.9-6.48-.9,6.4Z"/>
              <path class="cls-69" d="M582.73,101.27l-3.68-.14-1.59-8.47-1.05-.05v8.42l-3.35-.12v-22.07l5.7.33c1.25.07,2.22.72,2.9,1.94.69,1.22,1.03,2.8,1.03,4.73,0,1.26-.13,2.37-.38,3.32-.25.96-.76,1.78-1.53,2.49l1.95,9.63ZM576.42,87.92l1.43.07c.42.02.76-.14,1.01-.48.25-.34.38-.85.38-1.54,0-1.4-.43-2.13-1.28-2.17l-1.54-.08v4.21Z"/>
              <path class="cls-69" d="M584.3,101.33v-21.85l4.14.24c1.79.1,3.12,1.26,4.01,3.47.88,2.21,1.32,4.73,1.32,7.56,0,3.24-.47,5.85-1.42,7.84-.95,1.99-2.18,2.96-3.71,2.9l-4.34-.16ZM587.58,96.44l.85.04c.54.02,1-.49,1.37-1.55.37-1.06.56-2.51.56-4.35,0-1.58-.16-2.95-.49-4.12-.33-1.16-.81-1.76-1.43-1.79l-.85-.04v11.82Z"/>
              <path class="cls-69" d="M598.35,80.29v21.56l-3.22-.12v-21.63l3.22.18Z"/>
              <path class="cls-69" d="M604.66,102.41c-1.46-.05-2.65-1.1-3.57-3.14-.92-2.05-1.38-4.75-1.38-8.12s.44-5.85,1.32-7.9c.88-2.05,2.1-3.02,3.66-2.93,1.44.08,2.61,1.13,3.51,3.14.9,2.01,1.35,4.65,1.35,7.92s-.45,6.08-1.36,8.09c-.91,2.01-2.08,2.99-3.52,2.94ZM604.64,97.55c.53.02.92-.44,1.15-1.4.23-.96.35-2.72.35-5.29,0-3.72-.48-5.61-1.44-5.66-1.04-.06-1.56,2.05-1.56,6.3,0,3.99.5,6.01,1.5,6.05Z"/>
              <path class="cls-69" d="M617.98,97.38v5.19l-7.12-.26v-21.31l3.13.18v16.03l3.99.17Z"/>
              <path class="cls-69" d="M623.26,103.1c-1.4-.05-2.55-1.08-3.44-3.08-.89-2.01-1.34-4.67-1.34-7.97s.43-5.75,1.28-7.77c.85-2.01,2.03-2.97,3.53-2.89,1.39.08,2.51,1.11,3.39,3.09.87,1.97,1.3,4.57,1.3,7.78s-.44,5.98-1.31,7.95c-.88,1.98-2.01,2.94-3.4,2.89ZM623.24,98.31c.52.02.89-.44,1.11-1.38.23-.94.34-2.67.34-5.2,0-3.66-.46-5.51-1.39-5.56-1.01-.05-1.51,2.01-1.51,6.19,0,3.92.48,5.91,1.45,5.95Z"/>
              <path class="cls-69" d="M637.71,91.67v11.64l-1.46-.05c-.12-.87-.25-1.6-.39-2.19-.6,1.64-1.5,2.45-2.69,2.4-1.26-.05-2.31-1.03-3.12-2.94-.82-1.92-1.23-4.49-1.23-7.71s.4-5.74,1.19-7.83c.79-2.09,1.97-3.08,3.52-2.99,1.16.07,2.1.75,2.81,2.05.71,1.3,1.17,3.11,1.37,5.43l-2.89.46c-.14-2.17-.59-3.28-1.34-3.32-.99-.05-1.48,1.92-1.48,5.92,0,2.42.16,4.02.47,4.8.32.78.7,1.18,1.15,1.2.36.02.67-.21.93-.66.26-.46.39-1.09.39-1.91l-1.62-.07v-4.43l4.39.21Z"/>
              <path class="cls-69" d="M646.73,83.05l-2.99,11.73v8.74l-2.87-.11v-8.77l-3.25-12.12,3.25.19,1.69,6.91,1.61-6.72,2.57.15Z"/>
            </g>
          </g>
        </g>
      </g>
    </g>
  </g>
</svg>