<?xml version="1.0" encoding="UTF-8"?>
<svg id="Layer_10" data-name="Layer 10" xmlns="http://www.w3.org/2000/svg" viewBox="0 0 200 200">
  <defs>
    <style>
      .cls-1 {
        fill: #48c0e0;
      }

      .cls-2 {
        fill: #ee5050;
      }

      .cls-3 {
        fill: #a6d574;
      }

      .cls-4 {
        fill: #bf282d;
      }

      .cls-5 {
        fill: #ced0d4;
      }

      .cls-6 {
        fill: #f6921e;
      }

      .cls-7 {
        fill: #045c88;
      }

      .cls-8 {
        fill: #368b0e;
      }

      .cls-9 {
        fill: #de841b;
      }

      .cls-10 {
        fill: #046698;
      }

      .cls-11 {
        fill: #d4e862;
      }

      .cls-12 {
        fill: #e5e8ec;
      }

      .cls-13 {
        fill: #90c7df;
      }

      .cls-14 {
        fill: #a1def8;
      }

      .cls-15 {
        fill: #c0282e;
      }

      .cls-16 {
        fill: #bf272d;
      }

      .cls-17 {
        fill: #d64848;
      }

      .cls-18 {
        fill: #fec402;
      }

      .cls-19 {
        fill: #045c8a;
      }

      .cls-20 {
        fill: #88c847;
      }

      .cls-21 {
        fill: #de851b;
      }

      .cls-22 {
        fill: #89c847;
      }
    </style>
  </defs>
  <path class="cls-3" d="M196.68,160.14h-.38c-1.07-.21-1-1.88,0-2.26h.38v2.26Z"/>
  <path class="cls-12" d="M174.03,139l.09.83c-6.69,4.01-13.38,8.03-20.08,12.05l-.77-.42c-1.1-.14-1.3-.88-.38-1.51l-.98-.79c-2.58-10.22-9.28-9.03-17.44-6.19l-17.8,7.11-.77-.51c-1.15,1.61-3.35,2.36-5.28,1.89-9.93,5-20.58,8.86-31.33,11.7l-.96-.89c-1.85-7.99-7.35-14.81-14.94-18.02l-.71-1.1c-.65-2.72-1.96-3.22-4.48-4.09l-3.73-.77-.47-.8c-1.53-.24-3.1-.32-4.71-.26-.93-1.99-2.44-16.11-1.81-17.23.19-.57.73-.91,1.61-1.01,3.75-1.05,7.57-1.03,11.32,0,3.91-.94,7.79-.93,11.7,0,2.76-.74,5.55-.74,8.3,0,1.75-.74,3.53-.74,5.28,0,13.96-.95,27.94-.95,41.9,0,9.42-1.04,18.9-1.06,28.31,0,1.12-.74,2.28-.74,3.4,0,2.14-.78,4.53-1.01,7.16-.7,1.98-.35,3.74-.24,5.3.32.98.8,2.33.06,3.4.56,2.23,1.04.18,6.72.75,8.68l-1.88,11.14Z"/>
  <path class="cls-6" d="M152.9,149.95c.12.51.26.97.38,1.51.28.36.54.73.76,1.12s.42.78.52,1.18c1.52,6.7,2.92,13.59,3.97,20.38.06.41.02.85-.04,1.29s-.17.88-.3,1.32c.61,3.79,1.33,6.35-.3,10.08-2.87,6.53-10.8,6.21-16.9,6.17-.49,0-.86-.39-.91-.39q.82-1.11,0,0c-26.84-.04-53.84.38-80.78.38-2.72.65-9.24-3.11-9.09-5.81.02-.38.16-.7.41-.99v-1.12c1.47-3.6,14.64-7.98,18.58-9.07l1.05.37.83-.25c1.67,1.06,3.49.4,3.33-1.73l.74-.66c.04-.71.58-.95,1.59-.71l35.08-13.42.7.54.83.13c1.38,4.54,5.76,2.75,4.2-1.69l.63-.71.07-.83,24.96-9.22c3.16-.77,7.51-.3,9.7,2.12Z"/>
  <path class="cls-2" d="M79.29,163.16c-1.03,1.66-4.16,3.18-6.04,2.64-1.36,1.32-3.02,1.95-4.91,1.89l-.3.92-7.06,2.45c-6.71,2.71-12.75,5.51-10,14.09l-.38,1.04c1.6,4.23,4.44,5.71,8.68,6.79-8.74,0-17.5.1-26.24,0-.64,0-1.68.24-2.07-.38.69-.61,1.58-.87,2.66-.8-16.48-5.79-24.49-24.56-13.95-39.61,1.6-2.28,4.05-5.58,6.76-6.02.4-1.57,2.58-.3,1.91,1.14-.97.87-3.53,3.79-2.49,4.98,2.52,2.91,12.89-2.75,15.46-4.53,4.14,3.31,22.89,10.48,12.9-.93.07-.51.29-.96.81-1.11l5.09-1.53c.87-.61,1.72-.96,2.56-1.04,8.67,3.25,14.88,10.93,16.61,20.01Z"/>
  <path class="cls-8" d="M93.25,75.96l1.05.2c1.07,1.84,2.01,4.07,1.89,6.16,1.96.21,6,1.24,6.13,3.45,1.93-.37,4.84,4.49,3.4,6.04l.09.99c-1.91,2.15-2.93,4.96-3.1,7.82l-.77.63c-1.16.41-2.36.67-3.59.76-5.35-.04-10.7-.01-16.06.07-1.28.02-1.01,2.55-.81,3.44l-.68.64-.99.09c-2.98-2.6-6.85-4.24-10.76-4.82-9.38-1.41-9.98,1.99-10.38,9.93l-.9.47c-1.27.81-4.43-1.05-5.62-2.01-1.12-.9-3.21-2.62-2.3-4.03-1.91-.52-1.94-4.16-1.79-5.96.36-4.44,3.36-8.73,6.61-10.54-.55-2.56-.47-5.34.42-7.83.63-1.77,2.18-5.02,4.21-4.74,4.12-3.38,10.14-3.36,14.48-.42,4.87-6.45,14.6-7.07,19.49-.34Z"/>
  <path class="cls-10" d="M59.28,69.92c0,2.26,0,4.53,0,6.79-3.91,3.21-4.87,8.15-3.81,12.96-5.55,3.13-8.42,10.17-5.62,16.11-.54.92-1.51,1.66-2.91,2.22-1.03,1.14-2.07,1.78-3.13,1.93-6.3.33-12.99.32-19.25,0l-.75-.26v-39.3l.75-.46c11.18-.33,23.41-.33,34.73,0Z"/>
  <path class="cls-20" d="M174.03,139c2.06-.52,3.67-2.77,6.03-1.69.85.39,3.92,5.67,3.13,6.87l-19.35,13.69,29.26-5.32c2.76-.02,3.1,3.17,3.2,5.32.03.64.1,1.69,0,2.26-.21,1.22-.75,1.38-1.87,1.72l-28.71,5.08,22.41,5.7c1.82,1.26.95,8.18-1.26,8.85l-28.7-4.75c-1.31-8.2-3.11-17.17-4.91-25.29l20.76-12.46Z"/>
  <path class="cls-14" d="M46.07,38.22v11.7c4.48-.08,8.82,1.11,11.49,4.93,2.56,3.67,1.72,10.26,1.72,14.7-11.18.33-23.41.33-34.73,0-.29-.08-.73-.2-.75-.43-.17-1.49-.25-8.1,0-9.41l.75-.54c-1.34-.46.79-4.2,1.47-5.08,2.14-2.79,4.18-4.06,7.76-3.97,4.02.16,7.99.1,11.9-.19-.29-.03-.74-.13-.75-.34-.09-1.21-.19-10.31,0-10.82.11-.29.46-.43.75-.55.07-.34.2-.32.38,0Z"/>
  <path class="cls-17" d="M26.44,146.17c-7.46,6.01-11.44,13.8-10.56,23.59,1.02,11.36,12.2,21.56,23.4,22.47.09.66-.86.35-1.32.37-2.24.09-4.75.08-6.99,0-24.78-.9-37.98-28.98-18.12-45.3.36-1.62,5-4.45,6.53-4.77l.64.62c.59-.53,1.38-.22,2.37.93l3.62,1.19.44.9Z"/>
  <path class="cls-20" d="M142.7,85.4l.26.43c-2.24,1.98-4.02,4.32-5.32,7.03l-.97.46-.64.76c-2.5.13-4.75,1.39-6.64,2.95-.97,1.55-2.07,2.8-2.91.45-.18.04-.35.07-.51.04-.28-.05-2.76-4.41-2.13-4.94-.67-.76-.23-1.3.33-1.94l6.33-6.24c5.02-5.05-1.5-6.29-4.52-1.7l-6.08,6.64-.96-.15c-.59.58-1.56.62-2.9.13-1.42.12-2.34-.17-2.76-.88-1.44-1.99.23-6.23,1.23-8.5.95-2.15,2.82-6.07,5.19-6.22,5.04-4.66,12.96-6.77,19.64-5.11,1.51.38,2.91.66,3.5,2.16,1.77,4.48,1.09,10.12-.12,14.65Z"/>
  <path class="cls-7" d="M24.55,69.92v40.01c-.03.3-.13.74-.34.75-1.24.09-10.37.31-10.82,0-.27-.19-.47-.42-.55-.75,0-13.33-.16-26.69,0-40.01.03-.29.13-.74.34-.75,1.21-.09,10.31-.19,10.82,0,.29.11.43.46.55.75Z"/>
  <path class="cls-13" d="M24.55,109.94h19.25c.53.53.3.75-.38.38l-.83.74-17.29.1v26.64s-.75.45-.75.45l-.13.83c-1.69.56-3.86,1.46-3.71,3.57l-.69.51c-.84-.03-6.22,3.37-7.17,4.15v-37.37h11.7Z"/>
  <path class="cls-2" d="M119.68,73.7c-3.81,3.53-6.29,9.54-6.42,14.72-.18,1.07-3.28,1.88-4.15,1.13-.9-.16-1.72-.84-2.44-2.04-1.68-1.5-2.23-1.56-4.35-1.73-1.89-1.67-4.23-2.41-6.62-3-.39-2.54-.91-4.71-2.44-6.81l15.85-15.67c2.73-2.85,5.58,1.81,6.96,4,1.8,2.85,3.11,6.05,3.62,9.41Z"/>
  <path class="cls-10" d="M46.07,38.22c-.13,0-.25,0-.38,0-.41.21-.82.4-1.25.54s-.84.26-1.27.28c-5.41.27-11.56.4-16.73-.82-.94,0-2.39.29-3.02-.38l.54-.67c.82-.1,6.32-.23,6.58-.03.61.46-.09.82.05.14-.29,0-.74-.07-.75-.25-.35-3.82-.38-11.36,0-15.16l.75-.44c-1.84-.22-3.7-.3-5.57-.25l-.85-.7c.39-.63,1.43-.38,2.07-.38,6.25-.08,14.36-.56,20.4,0,1.58.14,2.97.27,3.21,2.07.58,4.31-.45,9.89-.03,14.35-.61,2.08-2.12,1.63-3.76,1.71Z"/>
  <path class="cls-18" d="M160.82,99.74l-.64.98c-2.75.89-5.3,2.39-7.27,4.51l-1.15.17c-.93.92-5.01-.47-5.58-1.54.14-5.08-4.07-9.15-8.97-9.75l-.55-.79c.52-1.5,1.15-2.85,2.11-4.12.46-.61,3.45-3.56,3.93-3.81.39-.2,3.79-1.02,4.38-1.09,8.76-1.01,15.77,6.88,13.74,15.43Z"/>
  <path class="cls-20" d="M171.77,118.62c-3.97.68-8.37.39-12.46.38-.26-.19-.4-.43-.38-.74l4.65-5.02c3.24-6.22-3.95-3.4-5.88-.11l-1.03-.17-.81-.31c-.61-2.5-2.08-4.82-4.13-6.37l.04-.87c2.3-2.81,5.56-4.7,9.06-5.66,2.73-.75,11.02-1.54,12.79.99,2.81,4.02,1.16,14.01-1.84,17.89Z"/>
  <path class="cls-13" d="M26.44,49.92c.32-.21.65-.4.99-.54,2.06-.85,13.07-.34,16.23-.16.73.04,1.4.38,2.03.71.02.37-.25.35-.55.39-6.37.81-13.64-2.25-18.33,3.95-.57.75-2.27,4.15-2.27,4.91v10.38h34.73v.38H12.85c.14-11.94-1.02-19.32,13.59-20.01Z"/>
  <path class="cls-1" d="M45.69,38.22v11.7c-6.39.22-12.87-.3-19.25,0v-11.7c6.33.05,12.95.21,19.25,0Z"/>
  <path class="cls-19" d="M24.18,20.48c2.27-.23,4.86.16,7.17,0,.04.39-.75.78-.75.94v15.85c0,.08.56.43.38.56-2.15-.32-5.6.45-7.55,0-.29-.07-.82-.48-.94-.75-.38-.85-.39-12.9-.2-14.54.18-1.55.38-1.92,1.89-2.07Z"/>
  <path class="cls-2" d="M101.94,101.25c6.81-1.17,14.39-1.14,21.38-.83,1.22.05,2.39.43,3.54.83.87-1.43,4.64-.99,5.68.21,2.52,2.92-1.24,14.45-3.67,16.9-.37.37-.73.5-1.25.64-13.96-.01-27.94-.01-41.9,0-2.59-1.33-4.26-5.86-4.95-8.75-.67-1.59-.65-2.95.04-4.08-.16-1.69-.9-4.31,1.4-4.82,6.57-.17,13.16-.06,19.74-.08Z"/>
  <path class="cls-8" d="M136.66,93.33c4.48.14,8.85,3.57,10.03,7.9.22.81.01,2.23.33,2.69.16.23,3.86.97,4.75,1.48,2.27,1.31,4.59,4.94,4.91,7.55,1.52,1.01.93,5.41-.75,6.04-9.43-.03-18.88,0-28.31,0,2.64-4.4,5.62-10.38,4.93-15.68-.38-2.86-3.49-2-5.68-2.06-1.08-.23-1.33-3.29-.38-3.77,1.46,1.53,1.6-.34,2.4-1,2.17-1.8,4.85-3.25,7.79-3.15Z"/>
  <path class="cls-8" d="M37.77,137.87c.41-.7.56-.33.75.38.62-.61,1.57-.53,2.86.23,1.23-.71,2.17-.79,2.8-.23,1.15-1.44,4.55-1.95,5.93-.94,1.32-.16,2.62-.1,3.89.18,2.63.18,10.63,1.77,8.68,5.66-1.2,2.4-7.94,3-7.92,3.59,2.45,1.88,5.72,6.48.57,6.99-4.6.46-10.22-2.93-13.98-5.3-3.37,2.26-7.61,4.82-11.73,5.25-6.68.69-5.35-3.77-1.67-6.94-.4-.72-1.02-.43-1.5-.57-1.45-.41-3.06-.74-4.42-1.43-.66-.34-1.64-1.57-2-1.59-.59-2.93,2.2-4.2,4.53-4.91l.43-.9c4.01-.89,8.22-.92,12.27-.34l.5.86Z"/>
  <path class="cls-9" d="M112.51,160.14l-35.67,13.61-1.7-.03-.78-.53c-.21-2.26-.84-4.46-1.61-6.59l.5-.81c2.02-.78,4.03-1.87,6.04-2.64,10.39-3.99,20.91-7.78,31.33-11.7.4.1.71.32.96.64.45.59,1.63,7.11.93,8.04Z"/>
  <path class="cls-20" d="M80.8,106.16c.47,4.83,2.22,8.87,4.91,12.83-1.76,0-3.53,0-5.28,0l-1.66-.63c-2.33-2.97-4.99-5.41-7.99-7.33-3.14,1.08-2.62,3.29,1.57,6.63.4.44.21.9-.23,1.33-3.89,0-7.81,0-11.7,0-1.88-1.73-2.75-4.7-2.64-7.17.73-2.19.22-8.65,2.36-9.9,5.82-3.4,16.09-.39,20.66,4.24Z"/>
  <path class="cls-21" d="M152.9,149.95l-5.91-1.85-3.61.45-25.21,9.32c-1.11-.52-3.01-6.45-2.87-7.37.06-.39.32-.68.61-.93,5.81-2.18,21.88-9.6,27-9.46,6.58.18,8.68,4.38,9.99,9.84Z"/>
  <path class="cls-5" d="M49.09,119c-1.78,1.73-.81,2.92-.76,4.72s.82,12.69,1.53,13.38c.36.35,3.46-.5,4.13.4-3.48-.24-6.45.04-9.81.75-.36,0-.63-.13-.79-.44,1.6-8.82-5.38-8.51-4.11-.16l-.76.6c-.33-.07-.62-.35-.75-.38l-.85-.53c-.41-.68-1.92-13.35-1.86-14.78.16-4.42,2.24-5.05,6.11-3.94.15-.3.34-.62.67-.76.59-.24,6.81.16,7.26,1.13Z"/>
  <path class="cls-18" d="M49.84,105.78c1.77,3.76,4.71,4.57,7.93,6.04,1.14.52.61,1.34.92,2.28.55,1.64,1.17,3.26,1.72,4.9-3.77,0-7.56-.02-11.32,0-2.56.01-5.72-.43-7.93-.38-1.48-.99.07-6.62,1-7.64.37-.41.71-.52,1.27-.66.06-.08.25-.22.38-.38,1.49-1.91,3.7-3.51,6.04-4.15Z"/>
  <path class="cls-18" d="M115.9,149.57c.37,2.72,1.76,5.71,2.26,8.3.34,1.73,1.03,4.79-1.11,5.49-2.83.94-3.85-.92-4.55-3.23-.79-2.59-1.08-6-1.89-8.68,1.75-.66,3.55-1.23,5.28-1.89Z"/>
  <path class="cls-11" d="M80.42,119c-2.76,0-5.54,0-8.3,0-.34-1.87-3.84-3.49-4.15-5.11-.36-1.87.96-3.63,2.83-3.6,2.14.04,7.85,7.04,9.62,8.71Z"/>
  <path class="cls-11" d="M159.31,119c-1.13,0-2.27,0-3.4,0,.68-1.92,1-3.99.75-6.04,2.18-1.41,4.02-5.38,7.17-3.96,4.79,2.17-3.16,8.07-4.53,10Z"/>
  <path class="cls-9" d="M68.34,167.69c.19-.02.37-.02.53.04.38.14,1.7,7.04,1.76,7.85l-.4.8c-6.55,2.92-15.16,3.76-19.63,9.81-4.94-13.04,9.02-15.1,17.74-18.5Z"/>
  <path class="cls-18" d="M140.06,192.6c-.04-3.8-2.43-9.04-2.29-12.64.11-2.87,4.08-3.76,5.34-1.17.47.97,3.1,13.31,2.61,13.81h-5.66Z"/>
  <path class="cls-18" d="M100.43,192.6h-5.66c-.08-2.77-3.26-11.93-1.12-13.76,1.54-1.32,3.99-.56,4.64,1.37,1.18,3.5,1.23,8.69,2.14,12.39Z"/>
  <path class="cls-18" d="M129.87,192.6h-5.47c-.24-.16-.41-.36-.5-.64-.31-.95-1.56-7.81-1.53-8.63.07-1.91,2.67-3.56,4.47-2.23,2.05,1.51,2.21,8.96,3.03,11.5Z"/>
  <path class="cls-18" d="M73.25,165.8c.86,2.21,1.83,5.55,1.89,7.93.04,1.56.06,2.8-1.62,3.5-1,.41-2.66-.09-3.29-.86-1.06-1.29-1.4-6.8-1.89-8.68,1.63-.64,3.27-1.26,4.91-1.89Z"/>
  <path class="cls-6" d="M113.26,88.42c1.5-.14,4.24.24,5.66.75,1.47-.78,5.2,1.82,4.91,3.4.83.95,2.32,3.69,2.64,4.91.28,1.06.35,2.65.38,3.77-8.27-.23-16.64-.03-24.91,0-.04-3.31,1.36-7.15,3.77-9.44-.09-1.36,2.27-3.19,3.4-2.26.96-.42,3.14-1.04,4.15-1.13Z"/>
  <path class="cls-20" d="M68.62,81.72c1.11-.19,2.92-.21,4.03-.06,2.91.41,7.87,4.38,4.37,6.94-2.75,2.01-4.08-2.25-7.56-1.14-2.43.77-1.99,7.86-6.38,5.28-3.95-2.31,1.19-10.29,5.54-11.03Z"/>
  <path class="cls-20" d="M92.4,97.01c-.16.18-1.43.74-1.7.78-2.86.44-3.02-3.49-5.54-3.33-2.05.13-2.26,2.52-3.12,3.04-1.94,1.16-4.72-.1-4.63-2.44.14-3.69,5.43-6.51,8.81-6.23s9.07,5.05,6.18,8.18Z"/>
  <path class="cls-4" d="M109.11,89.55c-.85.37-2.71,1.61-3.4,2.26-.12-2.14-1.84-4.66-3.4-6.04,2.53-2.1,5.62,1.68,6.79,3.77Z"/>
  <path class="cls-11" d="M123.83,92.57c-.87-1-3.66-2.95-4.91-3.4,2.83-2.4,6.52-7.76,9.45-9.61,1.91-1.2,4.65-.5,4.78,1.93.14,2.68-8.28,8.18-9.32,11.08Z"/>
  <path class="cls-14" d="M43.43,110.31c-1.59,2.39-2.24,5.46-2.26,8.3-.05,0-.43.36-.92.39-1.33.07-3.2-.47-4.02.91-1.19,1.99.44,5.98.03,8.32l1.51,9.63c-3.53-.74-9.76-.67-13.21.38v-27.94s18.87,0,18.87,0Z"/>
  <path class="cls-16" d="M109,67.36c1.66-.38,3.42.65,3.54,2.37.19,2.79-6.62,8.93-8.18,3.98-.67-2.11,2.92-5.97,4.64-6.36Z"/>
  <path class="cls-16" d="M113.54,82.66c-1.37,1.48-9.49,1.87-8.71-2.47.53-2.95,5.05-2.81,7.4-2.26,1.91.44,2.55,3.38,1.3,4.73Z"/>
  <path class="cls-16" d="M87.7,110.59c-1.44-1.44-.77-4.26,1.3-4.72,2.38-.53,6.85-.7,7.4,2.26.76,4.07-7.06,4.1-8.7,2.46Z"/>
  <path class="cls-16" d="M125.6,106.65c.56.69.66,2.18.41,3.02-.99,3.34-12.11,2.28-8.77-2.73,1.12-1.68,7.27-1.64,8.35-.29Z"/>
  <path class="cls-16" d="M113.53,111.91c.55-.13,1.24-.18,1.79-.08.67.13,3.95,3.33,4.31,4.01,1.74,3.34-1.86,3.13-4.31,2.8-2.9-.38-5.4-5.9-1.79-6.73Z"/>
  <path class="cls-16" d="M93.31,118.57c-2.16-1.37,4.41-9.32,7.29-5.97,1.86,2.16-.81,5.76-2.99,6.05-.55.07-4.11.05-4.3-.07Z"/>
  <path class="cls-15" d="M109.49,118.62h-5.66c-.61-5.66,6.53-5.86,5.66,0Z"/>
  <path class="cls-22" d="M44.18,138.25c-.92.19-2.13,1-2.83.98-.49-.02-1.96-.78-2.83-.98.1-2.44-.87-7.56,2.83-7.59,4.19-.03,2.53,4.8,2.84,7.59Z"/>
</svg>