<?xml version="1.0" encoding="UTF-8"?>
<svg id="Layer_10" data-name="Layer 10" xmlns="http://www.w3.org/2000/svg" viewBox="0 0 200 200">
  <defs>
    <style>
      .cls-1 {
        fill: #d1dbfc;
      }

      .cls-2 {
        fill: #f9e540;
      }

      .cls-3 {
        fill: #9ba1ac;
      }

      .cls-4 {
        fill: #767f8e;
      }

      .cls-5 {
        fill: #2b3950;
      }

      .cls-6 {
        fill: #ea8c4e;
      }

      .cls-7 {
        fill: #81a8ba;
      }

      .cls-8 {
        fill: #fc8e01;
      }

      .cls-9 {
        fill: #8d95a0;
      }

      .cls-10 {
        fill: #1c2b43;
      }

      .cls-11 {
        fill: #9ecde4;
      }

      .cls-12 {
        fill: #ebf5fa;
      }

      .cls-13 {
        fill: #be94a9;
      }

      .cls-14 {
        fill: #67cbd0;
      }

      .cls-15 {
        fill: #828a97;
      }

      .cls-16 {
        fill: #a1d1e8;
      }

      .cls-17 {
        fill: #fcca50;
      }

      .cls-18 {
        fill: #58bcdb;
      }

      .cls-19 {
        fill: #6864f6;
      }

      .cls-20 {
        fill: #eeb9d4;
      }

      .cls-21 {
        fill: #d3e9f4;
      }

      .cls-22 {
        fill: #052a75;
      }

      .cls-23 {
        fill: #fae640;
      }

      .cls-24 {
        fill: #bb703e;
      }

      .cls-25 {
        fill: #fae540;
      }

      .cls-26 {
        fill: #fefdfd;
      }

      .cls-27 {
        fill: #e4e5e8;
      }

      .cls-28 {
        fill: #b3b8bf;
      }

      .cls-29 {
        fill: #fdfdfe;
      }

      .cls-30 {
        fill: #3a475b;
      }

      .cls-31 {
        fill: #9fcee5;
      }

      .cls-32 {
        fill: #a2d2e9;
      }

      .cls-33 {
        fill: #d1d4d8;
      }

      .cls-34 {
        fill: #fbfbfc;
      }

      .cls-35 {
        fill: #fefefe;
      }

      .cls-36 {
        fill: #fce740;
      }

      .cls-37 {
        fill: #e6b4ce;
      }

      .cls-38 {
        fill: #c1c5cc;
      }

      .cls-39 {
        fill: #f9e440;
      }

      .cls-40 {
        fill: #4696af;
      }

      .cls-41 {
        fill: #4e596c;
      }

      .cls-42 {
        fill: #b1b6be;
      }
    </style>
  </defs>
  <g>
    <path class="cls-10" d="M105.69,50.79l-.1.4c13.86-.2,27.69-.07,41.5.39,9.63,1.15,18.88,6.73,20.07,17.19.15,1.32-.27,4.46.23,5.29.28.46,4.7,2.38,5.69,2.98,15.68,9.64,24,27.27,20.42,45.59-2.87,14.68-13.95,27.68-28.23,32.3-.21,1.74.11,3.53-.05,5.27-1.46,15.56-14.76,19.23-28.39,19.13.15,2.52.15,5.31-2.64,6.23-5.07-.23-10.68,1.07-15.7.49-4.51-.52-2.55-6.12-2.94-9.27l1.77-8.88-16.36,17.16c-6.87,10.09-22.39,6.23-20.91-6.72.59-5.13,11.08-13.81,14.79-17.93.89-.99,1.64-2.18,2.56-3.16h-6.11c-1.47,0-5.92-1.37-7.5-1.96-17.29-6.48-19.75-29.99-2.64-38.14l6.39-2.48c-15.9-1.97-25.53-19.39-16.72-33.49,4.29-6.87,10.28-8.34,17.91-8.71,1.64.36,4.9.15,1.18,0-9.28-1.77-18.85-6.81-20.07-17.2-1.83-15.71,9.24-25.39,24.41-24.6.71-.71-1.08-16.99.7-20,.71-1.19,1.34-1.19,2.63-1.31,5.08-.47,10.94.31,16.1.1,1.06.56,1.82,1.66,1.86,2.87-.76,8.66,1.03,19.06-.11,27.51-.71,5.24-4.71,9.56-9.76,10.95Z"/>
    <path class="cls-41" d="M89.92,72.47c.9,0,1.97-.59,3.15,0-.02.71-1.66.4-2.17.4-.66,0-1.76.25-2.16-.4.39-.02.79,0,1.18,0Z"/>
    <path class="cls-20" d="M106.48,12.54l.79.36-.04,28.27c-.57,3.01-2.11,6.07-5.09,7.25-3.94.66-7.58-.05-11.25.39-2.6.31-4.93,3.53-2,4.78,1.3.55,5.19,1.06,6.73,1.16,15.6,1.04,32.51-.55,48.32-.02,6.15.4,11.38,5.02,13.79,10.52.82,1.88,2.67,7.15-.77,6.04-2.05-.28-6.39.12-7.94-.2-1.31-.28-2.31-1.56-4.86-1.78-12.12-1.05-26.75.31-39.03.42-15.35.15-35.29-1.06-31.98-22.12,1.06-6.71,9.01-13.78,15.79-13.78h8.48V12.54c3.02.02,6.05-.03,9.07,0Z"/>
    <path class="cls-20" d="M131.32,75.63l-8.29,5.71c-3.01,2.82-5.73,5.86-8.14,9.21-8.07.6-16.8-.57-24.79.05-2.13.17-6.96,1.14-4.4,4.24.71.86,5.33,2.48,6.39,2.48h19.12c-1.58,4.85-3.23,9.81-3.15,14.99l-19.08-.44c-13.96-1.48-23.39-16.08-15.55-28.86,2.08-3.39,7.52-7.37,11.55-7.37h46.33Z"/>
    <path class="cls-18" d="M149.77,74.17c31.3-.96,51.85,33.14,35.89,60.33-14.67,24.99-50.7,26.57-67.28,2.76-18.12-26.02-.33-62.12,31.39-63.1Z"/>
    <path class="cls-20" d="M89.72,132.8c-1.79.41-2.33,3.25-1.16,4.71,1.1,1.36,4.57,1.92,6.27,2.01,1.92.1,3.49-.41,5.13-.42,5.13-.05,10.26.06,15.39.02,1.28.24,1.53,1.81,2.55,2.56-1.23.61-4.04,4.81-4.71,5.13-1.55.74-4.04.12-6.59,1.69-2.38,1.47-4.39,5.36-7,5.62-9.91.98-22.07-2.26-25.76-12.54-3.12-8.69.09-17.27,8.31-21.46,7.87-4.02,17.18-1.65,25.67-2.32.9,5.16,2,10.21,4.17,15.01h-22.28Z"/>
    <path class="cls-20" d="M156.16,157.25c1.69,1.29.78,5.4.27,7.45-1,4.05-3.02,8.7-7.36,9.9-3.3,1.96-11.48,1.35-15.38,1.58v6.31l-14.98.39v-6.51c0-3.17,2.27-8.93,4.52-11.25,6.3-6.48,18-.37,22.7-4.9,1.24-1.19,1.07-2.84,1.18-2.96.32-.32,7.66.1,9.05-.02Z"/>
    <path class="cls-40" d="M83.61,182.49l.64-.66c2.41.33,4.8-1.22,6.52-2.85,5.83-5.54,11.11-11.53,16.42-17.58,2.65-2.16,4.76-4.53,6.33-7.11.2-1.66.75-2.78,1.64-3.35,2.23.9,3.35,1.92,4.13,4.34,1.59,4.89-1.33,7.33-4.33,10.65-5.47,6.05-12.46,13.55-18.32,19.14-4.22,4.03-11.46,3.55-13.03-2.58Z"/>
    <path class="cls-18" d="M115.15,150.94c-.44,2.24-.79,4.34-2.38,6.1-7.77,6.74-14.75,17.2-22.65,23.48-1.78,1.42-4.16,2.62-6.52,1.96-.7-2.74-.69-4.65,1.01-7.07,5.81-5.62,11.06-11.83,16.72-17.58,4.07-4.13,7.43-9.47,13.81-6.89Z"/>
    <path class="cls-13" d="M106.48,12.54c1.97.02,3.95-.01,5.91,0v27.01c0,4.79-6.13,8.18-10.25,8.87,2.05-2.19,3.78-4.24,4.3-7.33l.03-28.55Z"/>
    <path class="cls-13" d="M143.94,54.73c1.36.05,2.74-.1,4.09.05,9.32,1.04,16.9,8.4,16.02,18.09-.25.26-6.16-1.45-7.1-1.58,1.73.37,1.26-.96,1.08-2.07-1.19-7.5-7.14-12.36-14.09-14.5Z"/>
    <path class="cls-13" d="M156.16,157.25c1.87-.16,4.03-.89,5.91-1.18.99,8.84-3.93,17.17-13.01,18.53,5.41-3.2,7.83-11.4,7.1-17.35Z"/>
    <path class="cls-34" d="M143.94,157.25c.86.74-2.2,1.5-2.6,1.54-6.4.77-13.49-1.68-19.09,2.79.38-.84.31-4.18,1.05-4.35l20.64.02Z"/>
    <path class="cls-16" d="M116.73,148.17c-.23-.32,2.6-4.03,3.29-3.91.5.09,3.56,3.69,4.58,4.11l-3.34,3.34c-1.4-1.29-2.58-3.03-4.53-3.55Z"/>
    <path class="cls-37" d="M123.83,154.1c.64-.64,2.72-3.8,3.35-3.85.5-.04,4.85,3.16,6.11,3.06l-2.56.78h-6.9Z"/>
    <path class="cls-4" d="M102.54,135.56c.82.15,1.61.28,2.37.39-1.76.73-4.31.4-6.31.39-.69-.13-1.34-.26-1.97-.39-.89.12-1.81.26-2.76.39-.65-.07-1.37.06-1.58-.78,3.41-.02,6.84,0,10.25,0Z"/>
    <path class="cls-15" d="M102.54,135.56c3.67-.01,7.36,0,11.04,0,.09.69-.89.37-1.37.39-2.41.1-4.89.03-7.3,0-.74,0-1.94.27-2.37-.39Z"/>
    <path class="cls-5" d="M114.37,72.47c2.61-.01,5.3-.15,7.89.2,0,.39-7.07.2-7.89.2-.34-.11-.34-.24,0-.39Z"/>
    <path class="cls-30" d="M114.37,72.47v.39c-.74,0-6.31.14-6.31-.2,2.06-.37,4.23-.19,6.31-.2Z"/>
    <path class="cls-27" d="M107.27,93.77c1.82.01,3.73-.17,5.52.2,0,.34-4.82.19-5.52.2-.34-.11-.34-.24,0-.39Z"/>
    <path class="cls-33" d="M107.27,93.77v.39c-1.44,0-2.9,0-4.34,0-.34-.11-.34-.24,0-.39,1.44,0,2.9,0,4.34,0Z"/>
    <path class="cls-38" d="M102.93,93.77v.39c-1.44,0-2.9.01-4.34,0-.34-.11-.34-.24,0-.39,1.44-.01,2.9,0,4.34,0Z"/>
    <path class="cls-42" d="M98.59,93.77v.39c-.61,0-3.95.15-3.95-.2,1.25-.38,2.66-.18,3.95-.2Z"/>
    <path class="cls-28" d="M96.62,135.96c.34.11.34.24,0,.39-.9-.03-1.89.09-2.76,0,.53-.67,1.91-.41,2.76-.39Z"/>
    <path class="cls-3" d="M98.59,136.35c-.66,0-1.32.02-1.97,0v-.39c.63.01,1.64-.24,1.97.39Z"/>
    <rect class="cls-9" x="91.5" y="93.77" width="1.97" height=".39"/>
    <path class="cls-35" d="M91.1,36.2l-15.37,15.77c-.35-8.9,6.96-15.1,15.37-15.77Z"/>
    <path class="cls-35" d="M85.97,78.39l-13.41,14.58c.35-7.77,5.35-14.2,13.41-14.58Z"/>
    <path class="cls-10" d="M148.98,78.5c28.24-1.71,47.28,28.98,33.13,53.63-10.96,19.09-37.07,23.81-53.95,9.55-24.63-20.81-11.29-61.23,20.82-63.18Z"/>
    <path class="cls-35" d="M75.33,131.82c.28-1.95,2.51-5.68,3.93-7.11,1.58-1.59,4.46-3.5,6.72-3.53l-10.65,16.75c.19-1.92-.26-4.26,0-6.11Z"/>
    <path class="cls-35" d="M136.05,163.56l-14.59,11.43c.59-8.05,6.84-12.16,14.59-11.43Z"/>
    <path class="cls-29" d="M110.31,151c1.12-.31,2.22.51,2.1,1.7-.04.43-5.07,6.17-5.71,6.54-2.04,1.18-3.55-.37-2.36-2.35.36-.6,5.57-5.78,5.97-5.9Z"/>
    <path class="cls-32" d="M177.46,95.34c1.96,4.14,1.19,9.83,0,14.14l-.79.45-.79.43c-1.68-1.31-3.73-1.59-6.14-.84-1.37-.49-2.49-3.99-1.66-5.28,8.36-5.37-1.61-15.11-7.14-7.14-.95,1.04-4.53-.13-4.98-1.13,2.88-10.24-11.98-11.07-9.68-.4-.5,1.38-4.19,2.66-5.36,1.56-5.52-8.28-15.08,2.46-6.64,7.2.56,1.07-.65,5.31-2.35,5.09-9.66-2.08-9.39,12.04.1,9.66,1.39.04,3.12,4,2.6,4.98-9.31,4.67,1.15,16.02,6.9,6.87.95-.39,4.35.8,4.71,1.92-.48,2.15-.56,4.41,1.03,6.13l-.18.93-.35,1.06c-4.04,1.55-8.94,1.87-13.05.51-16.95-10.66-20.27-33.49-7.11-48.71,13.78-15.93,38.82-14.52,50.88,2.57Z"/>
    <path class="cls-7" d="M133.69,141.48c4.36-.16,9.48.61,13.41-1.58l.88-.3c3.75,2.78,8.9-.42,8.29-4.99l.69-.63c1.47.97,2.31.25,3.48-.92l.86.13.89-.19c4.99,4.48,12.35-2.28,7.59-7.52l.19-.97-.36-.86c1.12-1.01,1.76-2.17,1.93-3.48l.52-.8c4.77-.16,7.11-4.77,4.08-8.62l.53-.83c-.11-1.21,1.11-5.43,1.2-7.28.12-2.46-.14-4.88-.41-7.31,20.68,29.31-13.35,65.27-43.77,46.13Z"/>
    <path class="cls-10" d="M147.09,139.9c-1.63-1.45-2.01-3.24-1.97-5.32,0-.5.51-1.59.39-1.75s-3.18-1.34-3.67-1.23c-.18.04-1.53,2.16-2.5,2.73-6.62,3.86-12.94-5.69-6.58-10.14.42-.3,1.28-.4,1.32-.45.14-.17-1.48-3.8-1.8-3.89-.28-.07-1.59.4-2.34.38-7.7-.15-8.48-11.95.81-11.89.65,0,1.67.47,1.74.42.25-.19.92-3.26,1.59-3.75-6.49-2.54-4.39-12.02,2.58-11.66,3.39.18,4.84,3.56,5.17,3.61.19.03,3.58-1.07,3.69-1.22.19-.25-1.3-3.29.79-6.1,4.38-5.9,13.17-.54,10.25,6.1,4.9,2.24,3.25.44,5.94-1.36,5.62-3.76,12.36,2.89,8.43,8.43-.58.82-2.39,1.89-2.5,2.26-.06.19,1.02,3.55,1.15,3.69.15.14,2.82-.58,4.11-.37,1.14.18,2.05.96,2.98,1.55.06.62,1.27,1.87,1.48,3.05.82,4.48-2.39,7.21-6.61,7.2l-.59.72c-1.17-.88-2.21,2.47-1.04,2.64l.05.99c6.61,6.95-3.68,14.48-8.67,8.67l-.54.14c-.8-1.38-2.07-1.17-3.8.64,1.25,5.76-5.48,9.8-9.86,5.91Z"/>
    <path class="cls-29" d="M135.66,87.46c.2.12.19.25,0,.39-6.18,5.39-10.03,11.74-13.8,18.93-.51.52-.6.3-.39-.39,1.69-8.17,7.15-14.75,14.2-18.93Z"/>
    <path class="cls-21" d="M135.66,87.46c.28-.17.35-1.09,1.18-.78-.11.61-.79.84-1.18,1.18v-.39Z"/>
    <path class="cls-12" d="M121.86,106.78c-.28.54-.26,1.31-.78,1.18-.33-.7.33-1.27.39-1.58l.39.39Z"/>
    <path class="cls-11" d="M161.29,133.2c-.81,1.4-2.5,1.88-3.75,2.76-.01-.68-.46-1.4-.59-1.97-.1-.42-.22-.78-.4-1.18l3.75-1.58c.19-.06.67,1.6.98,1.97Z"/>
    <path class="cls-31" d="M171.54,120.18c1.93.79-1,3.36-1.58,4.34-.35-.36-1.45-.72-1.52-.85-.13-.23.97-3.77,1.14-3.89.12-.09,1.43.4,1.97.4Z"/>
    <path class="cls-36" d="M148.18,98.2c23.15-3.15,25.47,30.09,4.98,32.18-22.04,2.26-24.23-29.56-4.98-32.18Z"/>
    <path class="cls-39" d="M174.19,112.02c2.82,2.27-1.01,6.53-3.46,4.83-.55-.38-.55-4.47-.2-4.98.53-.75,2.97-.41,3.66.14Z"/>
    <path class="cls-25" d="M165.12,96.6c4.53-.99,4.4,4.77,2.2,5.39-1.81.51-6.4-4.47-2.2-5.39Z"/>
    <path class="cls-25" d="M163.78,131.11c-1.57-1.88,3.02-6.34,4.63-3.65,2.05,3.42-2.47,6.24-4.63,3.65Z"/>
    <path class="cls-2" d="M153.3,91.1c.65.7,1.04,3.05.12,3.66-.4.27-4.38.32-4.69.12s-.54-1.98-.46-2.49c.33-2.13,3.66-2.78,5.03-1.3Z"/>
    <path class="cls-25" d="M148.92,133.65c2.47-.82,6.86.08,4.49,3.3-3.15,4.28-6.99-2.48-4.49-3.3Z"/>
    <path class="cls-25" d="M134.2,101.53c-2.45-2.05.42-6.58,3.66-4.63.39.23,1.39,1.52,1.17,2-.09.19-2.8,2.88-2.99,2.96-.67.3-1.3.12-1.84-.34Z"/>
    <path class="cls-23" d="M128.84,111.59c3.28-.98,3.2,1.54,2.89,4.08-.21,1.69-1.27,1.66-2.8,1.18-2.49-.79-2.19-4.63-.09-5.26Z"/>
    <path class="cls-25" d="M135.16,126.54c1.27-.18,5.92,4.11,2.09,5.3-4.14,1.28-5.3-4.84-2.09-5.3Z"/>
    <path class="cls-10" d="M148.58,100.97c21.11-3.09,20.83,29.41.39,26.61-14.91-2.04-14.8-24.5-.39-26.61Z"/>
    <path class="cls-6" d="M157.74,106.38c4.67,7.57-6.54,18.94-14.2,14.59-8.68-9.74,4.68-22.59,14.2-14.59Z"/>
    <path class="cls-24" d="M143.54,120.97c8.44,2,16.56-6.1,14.2-14.59,11,9.25-4.3,25.69-14.2,14.59Z"/>
    <path class="cls-26" d="M142.06,115.76c-2.02-2.17,2.45-10.51,5.03-9.2,3.18,1.61-2.63,11.77-5.03,9.2Z"/>
  </g>
  <g>
    <path class="cls-22" d="M54.4,105.18c.75.34,1.15.86,1.26,1.69.21,1.54.16,5.41.02,7.01-.04.43-.14,1-.41,1.35-.12.15-.85.64-.95.64h-2.31v3.83c2.16.16,4.25,1.53,5.23,3.45.17.34.67,1.58.67,1.89v19.84c4.32-1.26,9.03-.01,11.95,3.43,1.93,2.28,2.56,4.69,2.72,7.64.31,5.81.31,13.49,0,19.3-.71,13.34-17.39,15.61-21.64,4.42-.13-.35-.68-1.97-.68-2.19v-7.09H18.14c-1.11,0-1.7-1.15-1.68-2.15.14-14.49-.25-29.02.2-43.48.7-2.75,2.99-4.87,5.86-5.06v-3.83h-2.31c-.81,0-1.3-1.13-1.36-1.83-.14-1.54-.21-6.05.02-7.49.1-.65.66-.96,1.11-1.36h34.43Z"/>
    <path class="cls-17" d="M19.81,125.9l.29.57c-.04,1.53.01,3.04.15,4.53h34.27s.2.32.2.32c.02,3.24.02,6.49,0,9.72l-.33.51c-4.62,2.3-7.68,6.7-8.58,11.63l-.34.21c.12,0,.31.03.32.11.05.61.11,4.57,0,4.88l-.32.19c.01-.12.05-.31.14-.32.55-.05,4.1-.1,4.41,0l.23.32c0,.05,0,.11,0,.16-.02.12-.05.3-.14.32-.72.13-3.61.08-4.41,0l-.23-.32c-8.52.34-17.03.3-25.56.21-.01,0,.09.01.21.02v7.86s-.32.19-.32.19v-41.12Z"/>
    <path class="cls-35" d="M54.72,131.32H19.81c.1-1.77-.13-3.66,0-5.42.12-1.7,1.1-2.73,2.79-3.03h29.47c1.18.26,2.32,1.16,2.57,2.38.31,1.53.06,4.37.07,6.07Z"/>
    <path class="cls-14" d="M69.22,175.79c-.08-.17-.14-.34-.19-.51s-.09-.34-.09-.51c-.06-2.95-.05-5.91-.01-8.86h-15.28s-.19-.32-.19-.32c0-3.46-.33-7.9,0-11.24.86-8.66,15.31-9.88,15.94,1.74.33,5.98.06,12.77,0,18.82,0,.27.1.71-.16.87Z"/>
    <path class="cls-17" d="M53.44,165.59h15.78c-.11,3.39.14,6.81,0,10.2-.44,10.34-14.58,9.85-15.74,1.31-.43-3.2-.04-8.12-.04-11.51Z"/>
    <path class="cls-19" d="M52.48,108.37v4.06s-.22.24-.24.24h-30.2v-4.3h30.44Z"/>
    <rect class="cls-1" x="25.71" y="115.86" width="23.11" height="3.83"/>
    <path class="cls-8" d="M50.25,158.58h-4.78v-5.18c0-.71.74-2.98,1.04-3.74,1.46-3.77,4.56-6.91,8.21-8.61,0,1.15.22,4.65-.03,5.47-.04.13-1.63,1.49-1.95,1.88-2.77,3.36-2.44,6.11-2.49,10.18Z"/>
    <path class="cls-1" d="M50.25,158.74c-.01,1.09.17,7.96-.07,8.3-.05.07-.11.11-.19.13l-30.18-.14.11-.32,25.23-.03v-7.75s.32-.19.32-.19h4.78Z"/>
    <path class="cls-35" d="M45.47,158.74v8.29s-25.66,0-25.66,0v-8.29c8.55,0,17.11,0,25.66,0Z"/>
  </g>
</svg>