<?xml version="1.0" encoding="UTF-8"?>
<svg xmlns="http://www.w3.org/2000/svg" xmlns:xlink="http://www.w3.org/1999/xlink" viewBox="0 0 100 100">
  <defs>
    <style>
      .cls-1, .cls-2, .cls-3, .cls-4 {
        opacity: .6;
      }

      .cls-5 {
        fill: #dbb8c9;
      }

      .cls-5, .cls-6, .cls-7, .cls-8, .cls-9, .cls-10 {
        mix-blend-mode: multiply;
      }

      .cls-11 {
        fill: #8bc53f;
      }

      .cls-6 {
        fill: #cfd7a5;
      }

      .cls-12 {
        fill: url(#linear-gradient-2);
      }

      .cls-13 {
        fill: #579b43;
      }

      .cls-14 {
        opacity: .3;
      }

      .cls-15, .cls-16, .cls-4, .cls-17 {
        fill: #fff;
      }

      .cls-16 {
        mix-blend-mode: overlay;
      }

      .cls-16, .cls-18 {
        opacity: .1;
      }

      .cls-19 {
        fill: #627184;
      }

      .cls-7 {
        fill: #fcc794;
      }

      .cls-20 {
        opacity: .4;
      }

      .cls-21 {
        fill: none;
      }

      .cls-22 {
        fill: url(#linear-gradient-4);
      }

      .cls-23 {
        fill: #439141;
      }

      .cls-24 {
        fill: #7789a1;
      }

      .cls-2 {
        fill: #ccc;
      }

      .cls-25 {
        fill: url(#linear-gradient-3);
      }

      .cls-26 {
        fill: #a65252;
      }

      .cls-27, .cls-28 {
        fill: #dbdcdd;
      }

      .cls-27, .cls-17 {
        mix-blend-mode: soft-light;
      }

      .cls-29 {
        fill: #bbbdbf;
      }

      .cls-30 {
        isolation: isolate;
      }

      .cls-31 {
        fill: #147484;
      }

      .cls-8 {
        fill: #cba6b8;
      }

      .cls-18, .cls-32 {
        fill: #1f1e21;
      }

      .cls-33 {
        fill: #ad1f32;
      }

      .cls-3, .cls-34 {
        fill: #fcc3d3;
      }

      .cls-35 {
        fill: #94c847;
      }

      .cls-36 {
        fill: #ddd;
      }

      .cls-32 {
        opacity: .2;
      }

      .cls-37 {
        fill: #462e54;
      }

      .cls-38 {
        fill: #e93e48;
      }

      .cls-39 {
        fill: #f16322;
      }

      .cls-9 {
        fill: #c6d290;
      }

      .cls-40 {
        fill: #f58646;
      }

      .cls-41 {
        fill: url(#linear-gradient);
      }

      .cls-10 {
        fill: #f1f1f2;
      }

      .cls-42 {
        clip-path: url(#clippath);
      }

      .cls-43 {
        fill: #d62b41;
      }
    </style>
    <clipPath id="clippath">
      <rect class="cls-21" x="2.06" y="-137.97" width="96.31" height="96.31"/>
    </clipPath>
    <linearGradient id="linear-gradient" x1="51.44" y1="-298.43" x2="-27.6" y2="-194.61" gradientTransform="translate(24.77 313.26) rotate(-.22)" gradientUnits="userSpaceOnUse">
      <stop offset="0" stop-color="#823d30"/>
      <stop offset="1" stop-color="#422111"/>
    </linearGradient>
    <linearGradient id="linear-gradient-2" x1="-645.62" y1="546.57" x2="-668.68" y2="576.9" gradientTransform="translate(766.68 -457.62) rotate(7.74)" xlink:href="#linear-gradient"/>
    <linearGradient id="linear-gradient-3" x1="30.86" y1="-315.35" x2="7.92" y2="-285.17" xlink:href="#linear-gradient"/>
    <linearGradient id="linear-gradient-4" x1="27.97" y1="-313.5" x2="12.13" y2="-284.42" gradientTransform="translate(24.77 313.26) rotate(-.22)" gradientUnits="userSpaceOnUse">
      <stop offset="0" stop-color="#ff5d96"/>
      <stop offset="1" stop-color="#f76742"/>
    </linearGradient>
  </defs>
  <g class="cls-30">
    <g id="Layer_2" data-name="Layer 2">
      <g class="cls-42">
        <g>
          <g class="cls-14">
            <path class="cls-19" d="M141.06,5.74c-6.63,3.32,3.22,10.42-93.59,10.42-88.44,0-90.28-6.66-92.64-9.68C-45.9,5.56-3.48.57,47.94.57s93.12,5.17,93.12,5.17Z"/>
          </g>
          <path class="cls-26" d="M107.86-14.54V8.09c-.19,0-.38.02-.57.02-.97.03-1.94.06-2.91.08-5.42.13-10.85.12-15.84-.11-31.24-1.46-52.69-.08-67.8-.08s-12.19-1.03-28.19-.49c-.04,0-.08,0-.12,0l1.66-20.86,113.77-1.19Z"/>
          <g>
            <path class="cls-24" d="M101.42-7.1c0,1.41-.13,2.81-.44,4.18-.63,2.84-2.07,5.53-4.27,7.35-4.86,4.04-12,3.52-17.84,3.65-8.64.18-17.23.37-25.85-.13-7.48-.41-14.95.23-22.36,1.15-6.56.82-13.61.63-19.25-3.48-.11-.08-.22-.17-.33-.25-.07-.06-.15-.12-.23-.18-.15-.12-.3-.25-.45-.38-.2-.18-.39-.36-.58-.55-.1-.1-.2-.2-.29-.3-.08-.08-.16-.17-.23-.25-.03-.04-.07-.07-.1-.11-.08-.09-.16-.17-.23-.27-.06-.07-.12-.14-.17-.21-.48-.58-.91-1.2-1.29-1.84-.6-.99-1.1-2.05-1.5-3.17-1.06-2.91-1.45-6.14-1.25-9.29.05-.78.14-1.56.27-2.33.06-.35.12-.7.2-1.05.02-.12.05-.23.07-.34.22-1.02.49-2.02.81-3.01.54-1.67,1.2-3.3,1.94-4.89.07-.13.13-.27.2-.4.11-.23.22-.46.33-.68.11-.23.23-.45.34-.68.23-.45.47-.89.72-1.33.12-.23.25-.45.37-.67.37-.65.75-1.31,1.14-1.95,1.24-2.05,2.81-3.89,3.83-6.04,1.22-2.58,2.61-5.07,4.17-7.44,0-.02-.02-.04-.03-.06-2.11-4.16-3.45-8.78-3.68-13.66-.03-.61-.04-1.23-.03-1.85.05-4.1.82-8.19,2.86-11.78.37-.65.84-1.24,1.3-1.83.38-.48.66-1.04,1.11-1.43.85-.74,1.77-1.46,2.53-2.29,3.95-4.34,6.88-9.56,11.08-13.7.66-.65,1.25-1.15,2.09-1.53.91-.41,1.86-.71,2.81-1,3.41-1.05,6.98-1.54,10.54-1.67.74-.03,1.48-.04,2.22-.03,1.73,0,3.36.17,4.9.47,2.9.57,5.47,1.62,7.85,3.04,1.36.81,2.64,1.73,3.89,2.75,10.35,8.48,19.89,15.35,19.89,29.01,0,.93-.03,2.01-.11,3.17-.37,5.82-1.64,13.91-3.63,17.82.05.08.11.16.16.24,1.09,1.65,2.14,3.34,3.09,5.08.63,1.15.95,2.6,1.74,3.61,1.17,1.49,3.01,2.36,4.38,3.67,1.25,1.21,2.38,2.57,3.35,4.04.22.33.43.67.63,1.01.29.48.56.97.81,1.49.66,1.31,1.2,2.7,1.62,4.13.58,2,.9,4.1.91,6.17Z"/>
            <path class="cls-16" d="M75.76-3.6c3.95-3.29,5.75-8.94,4.44-13.91-.27,2.21-1.47,4.23-3.01,5.84-1.54,1.61-3.41,2.86-5.29,4.05-3.08,1.94-6.26,3.78-9.7,4.95-3.45,1.17-7.2,1.64-10.75.82,4.1.99,8.26,1.99,12.48,2s8.59-1.04,11.83-3.74Z"/>
            <path class="cls-16" d="M19.76-16.67c-1.2,2.83-2.1,5.86-1.95,8.93.15,3.07,1.5,6.19,4.03,7.93,2.34,1.61,5.35,1.85,8.19,1.75.49-.02.99-.05,1.42-.28.43-.23.75-.72.63-1.19-3.96-1.02-7.51-3.6-9.71-7.05-2.2-3.45-3.04-7.75-2.29-11.78l-.32,1.7Z"/>
          </g>
          <path class="cls-18" d="M5.97-18.43c.83,5.51,3.03,10.77,6.28,15.2,1.54,2.11,3.45,4.51,5.63,5.94,2.01,1.31,4.13,1.34,6.41,1.51,2.62.19,5.26,0,7.84-.42,1.24-.21,2.53-.5,3.51-1.32,2.63-2.23-.04-4.81-2.09-6.1,4.57,2.88,9.64,4.82,14.82,6.13,10.29,2.59,21.06,2.27,31.55,1.61,1.06-.07,2.11-.14,3.17-.23,4.73-.41,9.61-1.18,13.82-3.59,1.7-.97,2.93-3.42,3.71-5.2.31-.71.58-1.44.8-2.18,0,1.41-.14,2.81-.44,4.18-.64,2.84-2.08,5.53-4.27,7.35-4.86,4.04-12,3.53-17.85,3.65-8.64.18-17.23.37-25.85-.13-7.48-.41-14.95.23-22.36,1.16-6.56.81-13.61.63-19.25-3.48-.11-.08-.22-.17-.33-.25-.08-.06-.15-.12-.23-.18-.15-.12-.3-.25-.45-.38C7.33,2.07,5.75-1.7,5.01-5.84c-.39-2.19-.5-4.43-.31-6.64.09-1.11.26-2.21.51-3.29.15-.66.86-2.03.77-2.66Z"/>
          <path class="cls-18" d="M5.01-5.84c.6,3.35,1.75,6.45,3.78,8.97-.48-.58-.91-1.2-1.29-1.84-.6-.99-1.1-2.05-1.5-3.17-.58-1.59-.96-3.27-1.15-4.98.04.34.1.68.16,1.02Z"/>
          <path class="cls-18" d="M9.07,3.45c.16.19.33.38.51.56-.02-.02-.04-.03-.06-.05-.08-.08-.16-.17-.23-.25-.04-.04-.07-.07-.1-.11-.04-.05-.08-.1-.12-.15Z"/>
          <path class="cls-18" d="M101.15-3.81c-.31,2.98-1.86,5.91-4.04,7.89,1.96-1.8,3.27-4.33,3.87-7,.07-.29.12-.59.18-.89Z"/>
          <path class="cls-32" d="M101.42-7.1c0,1.41-.14,2.81-.44,4.18-.64,2.84-2.08,5.53-4.27,7.35-4.86,4.04-12,3.53-17.85,3.65-8.64.18-17.23.37-25.85-.13-7.48-.41-14.95.23-22.36,1.16-6.56.81-13.61.63-19.25-3.48-.11-.08-.22-.17-.33-.25-.08-.06-.15-.12-.23-.18-.15-.12-.3-.25-.45-.38-.2-.18-.39-.36-.58-.55-.1-.1-.2-.2-.29-.3-.08-.08-.16-.17-.23-.25-.04-.04-.07-.07-.1-.11-.08-.09-.16-.17-.23-.27-.06-.07-.12-.14-.17-.21-.48-.58-.91-1.2-1.29-1.84-.6-.99-1.1-2.05-1.5-3.17-1.06-2.91-1.45-6.14-1.25-9.29.43-2.25.94-4.49,1.35-6.73.02-.11.04-.22.06-.33.28-1.53,1.17-3.13,1.88-4.56.07-.14.13-.27.2-.4.11-.23.22-.46.33-.68.11-.22.23-.45.34-.68.23-.45.47-.89.71-1.33.12-.22.25-.44.37-.66.37-.66.75-1.31,1.14-1.95,1.24-2.05,2.81-3.89,3.83-6.05,1.22-2.58,2.61-5.07,4.18-7.44,0-.02-.02-.04-.03-.06-2.11-4.16-3.46-8.78-3.68-13.66-.02-.61-.04-1.23-.03-1.85.13-10.59,4.63-14.81,9.74-20.01,1.12-1.13,2.26-2.32,3.4-3.63-.49,1.17-.91,2.38-1.27,3.6-.71,2.42-.72,4.88-1.35,7.28-.32,1.23-.57,2.47-.73,3.73-.33,2.53-.29,5.07.01,7.59.22,1.84.19,3.45.14,5.28-.12,4.05,5.64,4.75,8.06,2.41.6-.58,1.05-1.31,1.48-2.03,2.61-4.4,4.68-9.11,6.14-14.01-.31,2.25-.65,4.51-1.11,6.73-.46,2.22-1.33,4.43-2,6.6-.17.54-.33,1.08-.52,1.61-.96,2.74-2.47,5.25-4.04,7.69-.96,1.5-1.93,3.06-2.75,4.63-.49.94-.78,2.1-.31,3.05.33.67.99,1.13,1.69,1.38s1.46.31,2.2.37c-.38-.03-1.39.93-1.7,1.16-.58.43-1.15.88-1.7,1.35-1.1.94-2.14,1.96-3.18,2.97-2.24,2.18-5.38,4.91-6.54,7.88-1.17,2.98-3.03,5.71-3.71,8.9-.32,1.53-.39,3.1-.41,4.66-.02,1.94.04,3.91.59,5.77.81,2.78,2.69,5.19,5.08,6.83s5.25,2.52,8.14,2.7c-4.27-2.59-7.64-6.62-9.43-11.28C22.91-1.75,25.63-.09,28.31,1.34c3.23,1.73,6.7,3.01,10.3,3.69,3.63.69,7.14.45,10.79.43,3.31-.02,6.66.84,9.97,1.25,7.36.91,14.79,1.24,22.2.98,3.59-.12,7.28-.43,10.76-1.35.66-1.41,1.07-2.91,1.26-4.46.12-1.02.15-2.07.09-3.13-.14-2.44-1.77-5.09-3.17-6.99-2.33-3.15-5.36-5.74-7.31-9.16-2.08-3.63-2.34-7.75-3.97-11.5-.22-.51-1.11-2.7-1.67-2.77-.31-.04-.58.18-.81.39-1.61,1.47-3.11,3.08-4.47,4.79,1.48-1.73,2.42-4.24,3.01-6.4.19-.67.34-1.39.18-2.07-.2-.85-.87-1.52-1.6-2.02-.82-.56-1.89-1.25-2.82-1.58-.89-.31-1.08.11-1.2-.8-.13-1.04.25-2.07-.02-3.18-.66-2.78-2.69-5-4.18-7.39-1.12-1.79-2.18-3.62-3.18-5.49-.97-1.8-1.46-3.56-2.13-5.48-.76-2.18-1.51-4.36-2.27-6.53.26.75,1.16,1.57,1.65,2.2.6.77,1.2,1.54,1.85,2.27,1.25,1.43,2.61,2.77,4.17,3.86,2.53,1.77,10.68,5.04,9.96-.89-.77-6.3-3.24-11.79-5.84-17.49-.99-2.17-2.01-4.32-3.07-6.45-.8-1.61-1.72-4.26-3.45-5.1,5.38,2.64,10.18,6.55,13.94,11.35,5.29,6.76,8.38,15.01,11.08,23.32.43,1.34.86,2.69,1.29,4.03.32,1.02.65,2.03.96,3.05,1.69,5.36,3.36,10.72,4.9,16.13.77,2.71,1.5,5.42,2.18,8.15.45,1.78.73,3.73,1.2,5.59.37,1.47.85,2.89,1.62,4.13.58,2,.9,4.1.91,6.17Z"/>
          <path class="cls-18" d="M19.27,3.42c1.49.58,3.05.66,4.69.77-1.41-.07-3.41-.05-4.69-.77Z"/>
          <path class="cls-18" d="M89.39,3.01c1.17-.24,2.32-.54,3.45-.93-.88.66-2.54.74-3.45.93Z"/>
          <path class="cls-31" d="M31.92-4.84s.47.33,1.32.85c.85.53,2.09,1.23,3.61,2.02.76.39,1.59.81,2.48,1.22.89.41,1.84.81,2.84,1.2,1.99.78,4.17,1.47,6.38,1.99,2.22.54,4.46.93,6.58,1.22,2.12.29,4.11.51,5.81.67l5.69.52s-.57-.02-1.57-.07c-1-.05-2.43-.11-4.14-.23-1.71-.13-3.71-.28-5.84-.56-2.13-.28-4.4-.66-6.62-1.18-2.23-.54-4.42-1.25-6.42-2.05-2-.79-3.79-1.71-5.29-2.54-1.51-.82-2.72-1.59-3.55-2.15-.42-.28-.73-.51-.95-.67-.22-.16-.33-.24-.33-.24Z"/>
          <g class="cls-20">
            <path class="cls-26" d="M131.13,6.68c-2.13-.31-4.81.39-6.96.54-2.6.18-5.17.41-7.78.5-5.69.21-11.37.42-17.06.63-1.43-2.8-.8-6.21-.01-9.27.99-3.83,1.41-7,.53-10.89-.85-3.74-2.67-7.17-4.85-10.24-2.34-3.3-5.15-6.08-7.84-9.07-.12-.13-.24-.27-.35-.4,0,0,0,0-.01-.02-.11-.14-.22-.27-.32-.41,0,0,0-.01-.01-.02-2.2-2.97-2.85-6.89-1.83-10.56-.33,3.28,1,6.54,2.92,9.16,1.92,2.62,4.42,4.71,6.8,6.88,2.39,2.16,4.74,4.47,6.27,7.36,1.33,2.52,1.62,5.39,2.17,8.17.78,3.93,2.59,7.64,5.3,10.51,3.94,4.16,9.55,6.24,15.09,6.42,2.66.09,5.31.32,7.94.71Z"/>
          </g>
        </g>
      </g>
      <g>
        <g>
          <path class="cls-41" d="M18.35,13.33l49.87-.19c2.75-.01,5.03,2.14,5.18,4.88l3.96,72.28c.12,2.15-1.57,3.97-3.72,4.02l-57.15,1.26c-2.02.04-3.69-1.58-3.7-3.6l-.28-72.76c-.01-3.24,2.6-5.87,5.84-5.89Z"/>
          <path class="cls-15" d="M24.84,94.3h0l-6.4-.06c-2.13-.02-3.87-1.77-3.88-3.9l-.04-9.66c0-.07.05-.12.12-.12h0c.07,0,.12.05.12.12l.04,9.66c0,2,1.64,3.64,3.64,3.66l6.4.06c.07,0,.12.05.12.12,0,.07-.05.12-.12.12Z"/>
          <path class="cls-15" d="M14.63,77.82c-.07,0-.12-.05-.12-.12v-1.56c0-.07.05-.12.11-.12h0c.07,0,.12.05.12.12v1.56c0,.07-.05.12-.11.12h0Z"/>
          <g>
            <path class="cls-36" d="M18.5,12.74c6.81.9,30.24,3.66,49.6,2.1.88-.07,1.65.59,1.7,1.48l4.14,72.6c.06,1-.7,1.85-1.7,1.91-8.14.51-41.67,2.51-53.63,1.3-.73-.07-1.28-.68-1.29-1.42l-.75-76.27c-.01-1.04.9-1.84,1.93-1.71Z"/>
            <path class="cls-4" d="M19.24,14.62c6.56.86,29.1,3.52,47.73,2.02.85-.07,1.59.57,1.64,1.42l3.99,69.87c.05.96-.67,1.78-1.63,1.84-7.83.49-40.1,2.41-51.61,1.25-.7-.07-1.23-.66-1.24-1.36l-.72-73.4c0-1,.86-1.77,1.85-1.64Z"/>
            <g class="cls-1">
              <path class="cls-34" d="M64.94,30.48c.26,0,.47-.22.45-.48v-.05c-.02-.26-.25-.48-.52-.48l-42.34-.17c-.26,0-.35.17-.18.37l.48.59c.17.21.52.37.78.37l41.34-.16Z"/>
            </g>
            <g class="cls-1">
              <path class="cls-34" d="M22.54,32.1c-.26,0-.35.17-.18.37l.48.59c.17.21.52.37.78.37l41.34-.16c.26,0,.47-.22.45-.48v-.05c-.02-.26-.25-.48-.52-.48l-42.34-.17Z"/>
            </g>
            <g>
              <path class="cls-34" d="M25.58,39.6h-1.6c-.26-.01-.47-.19-.5-.42l-.15-1.34c-.01-.09.02-.19.08-.26.07-.08.17-.13.28-.14h0c.13,0,.32-.03.52-.04.44-.04.95-.08,1.25-.09.24,0,.45.14.51.35.09.31.08.9.07,1.52,0,.23-.21.42-.47.42ZM23.72,37.68s-.09.02-.12.06c-.01.02-.03.05-.03.08l.15,1.34c.01.11.12.2.26.2h1.59s0,0,0,0c.12,0,.22-.08.23-.19,0-.46.02-1.15-.06-1.45-.03-.1-.14-.18-.27-.18-.29,0-.81.05-1.23.09-.2.02-.39.03-.53.04h0Z"/>
              <g class="cls-1">
                <path class="cls-34" d="M27.32,38.15c-.26,0-.43.18-.37.4.06.22.32.39.59.39l14.02-.2c.26,0,.48-.14.47-.3s-.22-.3-.49-.3h-14.21Z"/>
              </g>
              <path class="cls-35" d="M23.96,37.97h0c.12-.07.27-.03.34.09l.32.56c.03.06.11.05.14,0l.77-1.74c.04-.09.17-.06.17.04,0,.53-.14,1.54-.99,2.39,0,0-.47-.18-.85-1.01-.05-.12-.01-.26.1-.33Z"/>
              <path class="cls-35" d="M46.96,40.87h0c.12-.07.27-.03.34.09l.32.56c.03.06.11.05.14,0l.77-1.74c.04-.09.17-.06.17.04,0,.53-.14,1.54-.99,2.39,0,0-.47-.18-.85-1.01-.05-.12-.01-.26.1-.33Z"/>
              <path class="cls-35" d="M46.96,44.28h0c.12-.07.27-.03.34.09l.32.56c.03.06.11.05.14,0l.77-1.74c.04-.09.17-.06.17.04,0,.53-.14,1.54-.99,2.39,0,0-.47-.18-.85-1.01-.05-.12-.01-.26.1-.33Z"/>
              <path class="cls-35" d="M46.96,47.7h0c.12-.07.27-.03.34.09l.32.56c.03.06.11.05.14,0l.77-1.74c.04-.09.17-.06.17.04,0,.53-.14,1.54-.99,2.39,0,0-.47-.18-.85-1.01-.05-.12-.01-.26.1-.33Z"/>
              <path class="cls-35" d="M24.52,54.47h0c.12-.07.27-.03.34.09l.32.56c.03.06.11.05.14,0l.77-1.74c.04-.09.17-.06.17.04,0,.53-.14,1.54-.99,2.39,0,0-.47-.18-.85-1.01-.05-.12-.01-.26.1-.33Z"/>
              <path class="cls-35" d="M24.52,57.88h0c.12-.07.27-.03.34.09l.32.56c.03.06.11.05.14,0l.77-1.74c.04-.09.17-.06.17.04,0,.53-.14,1.54-.99,2.39,0,0-.47-.18-.85-1.01-.05-.12-.01-.26.1-.33Z"/>
              <path class="cls-35" d="M24.52,61.3h0c.12-.07.27-.03.34.09l.32.56c.03.06.11.05.14,0l.77-1.74c.04-.09.17-.06.17.04,0,.53-.14,1.54-.99,2.39,0,0-.47-.18-.85-1.01-.05-.12-.01-.26.1-.33Z"/>
              <path class="cls-35" d="M24.52,64.71h0c.12-.07.27-.03.34.09l.32.56c.03.06.11.05.14,0l.77-1.74c.04-.09.17-.06.17.04,0,.53-.14,1.54-.99,2.39,0,0-.47-.18-.85-1.01-.05-.12-.01-.26.1-.33Z"/>
              <path class="cls-34" d="M25.59,43.02h-1.6c-.26-.01-.47-.19-.5-.42l-.15-1.34c-.01-.09.02-.19.08-.26.07-.08.17-.13.28-.14.13,0,.32-.03.52-.04.44-.04.95-.08,1.25-.09.24,0,.45.14.51.35.09.31.08.9.07,1.52,0,.23-.21.42-.47.42ZM23.73,41.09s-.09.02-.12.06c-.01.02-.03.05-.03.08l.15,1.34c.01.11.12.2.26.2h1.59c.13.01.23-.07.23-.18,0-.46.02-1.15-.06-1.45-.03-.1-.14-.18-.27-.18-.29,0-.81.05-1.23.09-.2.02-.39.03-.53.04h0Z"/>
              <path class="cls-3" d="M23.9,41.17c.33-.02,1.06-.1,1.41-.11.15,0,.27.09.31.21.07.25.06.74.05,1.19,0,.14-.13.24-.28.24h-1.27c-.16,0-.29-.11-.3-.25l-.12-1.07c-.01-.11.08-.21.2-.22Z"/>
              <g class="cls-1">
                <path class="cls-34" d="M27.33,41.57c-.26,0-.43.18-.37.4.06.22.32.39.59.39l14.02-.2c.26,0,.48-.14.47-.3,0-.16-.22-.3-.49-.3h-14.21Z"/>
              </g>
              <path class="cls-34" d="M25.6,46.43h-1.6c-.26-.01-.47-.19-.5-.42l-.15-1.34c-.01-.09.02-.19.08-.26.07-.08.17-.13.28-.14.13,0,.32-.03.52-.04.44-.04.95-.08,1.24-.09.24,0,.45.14.51.35.09.31.08.9.07,1.52,0,.23-.21.42-.47.42ZM23.75,44.51s-.09.02-.12.06c-.01.02-.03.05-.03.08l.15,1.34c.01.11.12.2.26.2h1.59s0,0,0,0c.12,0,.22-.08.23-.19,0-.46.02-1.15-.06-1.45-.03-.1-.14-.18-.27-.18-.29,0-.81.05-1.23.09-.2.02-.39.03-.53.04h0Z"/>
              <path class="cls-3" d="M23.91,44.59c.33-.02,1.06-.1,1.41-.11.15,0,.27.09.31.21.07.25.06.74.05,1.19,0,.14-.13.24-.28.24h-1.27c-.16,0-.29-.11-.3-.25l-.12-1.07c-.01-.11.08-.21.2-.22Z"/>
              <g class="cls-1">
                <path class="cls-34" d="M27.35,44.98c-.26,0-.43.18-.37.4.06.22.32.39.59.39l14.02-.2c.26,0,.48-.14.47-.3s-.22-.3-.49-.3h-14.21Z"/>
              </g>
              <path class="cls-34" d="M25.62,49.85h-1.6c-.26-.01-.47-.19-.5-.42l-.15-1.34c-.01-.09.02-.19.08-.26.07-.08.17-.13.28-.14.13,0,.32-.03.52-.04.44-.04.95-.08,1.25-.09.24,0,.45.14.51.35.09.31.08.9.07,1.52,0,.23-.21.42-.47.42ZM25.52,47.79s0,0,0,0c-.29,0-.81.05-1.23.09-.2.02-.39.03-.52.04h0s-.09.02-.12.06c-.01.02-.03.05-.03.08l.15,1.34c.01.11.12.2.26.2h1.59s0,0,0,0c.12,0,.23-.08.23-.19,0-.46.02-1.15-.06-1.45-.03-.1-.14-.18-.26-.18Z"/>
              <path class="cls-3" d="M23.93,48c.33-.02,1.06-.1,1.41-.11.15,0,.27.09.31.21.07.25.06.74.05,1.19,0,.14-.13.24-.28.24h-1.27c-.16,0-.29-.11-.3-.25l-.12-1.07c-.01-.11.08-.21.2-.22Z"/>
              <g class="cls-1">
                <path class="cls-34" d="M27.36,48.4c-.26,0-.43.18-.37.4.06.22.32.39.59.39l14.02-.2c.26,0,.48-.14.47-.3,0-.16-.22-.3-.49-.3h-14.21Z"/>
              </g>
            </g>
            <g>
              <path class="cls-34" d="M48.59,39.13h-1.6c-.26-.01-.47-.19-.5-.42l-.15-1.34c-.01-.09.02-.19.08-.26.07-.08.17-.13.28-.14.13,0,.32-.03.52-.04.44-.04.95-.08,1.25-.09.24,0,.45.14.51.35.09.31.08.9.07,1.52,0,.23-.21.42-.47.42ZM48.5,37.07s0,0,0,0c-.29,0-.81.05-1.23.09-.2.02-.39.03-.52.04h0s-.09.02-.12.06c-.01.02-.03.05-.03.08l.15,1.34c.01.11.12.2.26.2h1.59s0,0,0,0c.12,0,.23-.08.23-.19,0-.46.02-1.15-.06-1.45-.03-.1-.14-.18-.26-.18Z"/>
              <g class="cls-1">
                <path class="cls-34" d="M50.34,37.68c-.26,0-.43.18-.37.4.06.22.32.39.59.39l14.02-.2c.26,0,.48-.14.47-.3,0-.16-.22-.3-.49-.3h-14.21Z"/>
              </g>
              <path class="cls-34" d="M48.61,42.54h-1.6c-.26-.01-.47-.19-.5-.42l-.15-1.34c-.01-.09.02-.19.08-.26.07-.08.17-.13.28-.14h0c.13,0,.32-.03.52-.04.44-.04.95-.08,1.25-.09.24,0,.45.14.51.35.09.31.08.9.07,1.52,0,.23-.21.42-.47.42ZM46.75,40.62s-.09.02-.12.06c-.01.02-.03.05-.03.08l.15,1.34c.01.11.12.2.26.2h1.59s0,0,0,0c.12,0,.22-.08.23-.19,0-.46.02-1.15-.06-1.45-.03-.1-.14-.18-.26-.18,0,0,0,0,0,0-.29,0-.81.05-1.23.09-.2.02-.39.03-.53.04h0Z"/>
              <g class="cls-1">
                <path class="cls-34" d="M50.35,41.09c-.26,0-.43.18-.37.4.06.22.32.39.59.39l14.02-.2c.26,0,.48-.14.47-.3s-.22-.3-.49-.3h-14.21Z"/>
              </g>
              <path class="cls-34" d="M48.62,45.96h-1.6c-.26-.01-.47-.19-.5-.42l-.15-1.34c-.01-.09.02-.19.08-.26.07-.08.17-.13.28-.14.13,0,.32-.03.52-.04.44-.04.95-.08,1.25-.09.24,0,.45.14.51.35.09.31.08.9.07,1.52,0,.23-.21.42-.47.42ZM48.52,43.9s0,0,0,0c-.29,0-.81.05-1.23.09-.2.02-.39.03-.53.04h0s-.09.02-.12.06c-.01.02-.03.05-.03.08l.15,1.34c.01.11.12.2.26.2h1.59s0,0,0,0c.12,0,.22-.08.23-.19,0-.46.02-1.15-.06-1.45-.03-.1-.14-.18-.26-.18Z"/>
              <g class="cls-1">
                <path class="cls-34" d="M50.36,44.51c-.26,0-.43.18-.37.4.06.22.32.39.59.39l14.02-.2c.26,0,.48-.14.47-.3s-.22-.3-.49-.3h-14.21Z"/>
              </g>
              <path class="cls-34" d="M48.63,49.38h-1.6c-.26-.01-.47-.19-.5-.42l-.15-1.34c-.01-.09.02-.19.08-.26.07-.08.17-.13.28-.14.13,0,.32-.03.52-.04.44-.04.95-.08,1.24-.09.24,0,.45.14.51.35.09.31.08.9.07,1.52,0,.23-.21.42-.47.42ZM48.54,47.32s0,0,0,0c-.29,0-.81.05-1.23.09-.2.02-.39.03-.53.04h0s-.09.02-.12.06c-.01.02-.03.05-.03.08l.15,1.34c.01.11.12.2.26.2h1.59s0,0,0,0c.12,0,.23-.08.23-.19,0-.46.02-1.15-.06-1.45-.03-.1-.14-.18-.26-.18Z"/>
              <g class="cls-1">
                <path class="cls-34" d="M50.38,47.92c-.26,0-.43.18-.37.4.06.22.32.39.59.39l14.02-.2c.26,0,.48-.14.47-.3s-.22-.3-.49-.3h-14.21Z"/>
              </g>
            </g>
            <g>
              <path class="cls-34" d="M26.16,56.18h-1.6c-.26-.01-.47-.19-.5-.42l-.15-1.34c-.01-.09.02-.19.08-.26.07-.08.17-.13.28-.14.13,0,.32-.03.52-.04.44-.04.95-.08,1.25-.09.24,0,.45.14.51.35.09.31.08.9.07,1.52,0,.23-.21.42-.47.42ZM26.07,54.13s0,0,0,0c-.29,0-.81.05-1.23.09-.2.02-.39.03-.52.04h0s-.09.02-.12.06c-.01.02-.03.05-.03.08l.15,1.34c.01.11.12.2.26.2h1.59s0,0,0,0c.12,0,.23-.08.23-.19,0-.46.02-1.15-.06-1.45-.03-.1-.14-.18-.26-.18Z"/>
              <g class="cls-1">
                <path class="cls-34" d="M27.91,54.73c-.26,0-.43.18-.37.4.06.22.32.39.59.39l14.02-.2c.26,0,.48-.14.47-.3,0-.16-.22-.3-.49-.3h-14.21Z"/>
              </g>
              <path class="cls-34" d="M26.18,59.6h-1.6c-.26-.01-.47-.19-.5-.42l-.15-1.34c-.01-.09.02-.19.08-.26.07-.08.17-.13.28-.14h0c.13,0,.32-.03.52-.04.44-.04.95-.08,1.25-.09.24,0,.45.14.51.35.09.31.08.9.07,1.52,0,.23-.21.42-.47.42ZM24.32,57.67s-.09.02-.12.06c-.01.02-.03.05-.03.08l.15,1.34c.01.11.12.2.26.2h1.59s0,0,0,0c.12,0,.23-.08.23-.19,0-.46.02-1.15-.06-1.45-.03-.1-.14-.18-.27-.18-.29,0-.81.05-1.23.09-.2.02-.39.03-.53.04h0Z"/>
              <g class="cls-1">
                <path class="cls-34" d="M27.92,58.15c-.26,0-.43.18-.37.4.06.22.32.39.59.39l14.02-.2c.26,0,.48-.14.47-.3s-.22-.3-.49-.3h-14.21Z"/>
              </g>
              <path class="cls-34" d="M26.19,63.02h-1.6c-.26-.01-.47-.19-.5-.42l-.15-1.34c-.01-.09.02-.19.08-.26.07-.08.17-.13.28-.14.13,0,.32-.03.52-.04.44-.04.95-.08,1.25-.09.24,0,.45.14.51.35.09.31.08.9.07,1.52,0,.23-.21.42-.47.42ZM26.09,60.96s0,0,0,0c-.29,0-.81.05-1.23.09-.2.02-.39.03-.53.04h0s-.09.02-.12.06c-.01.02-.03.05-.03.08l.15,1.34c.01.11.13.2.26.2h1.59s0,0,0,0c.12,0,.22-.08.23-.19,0-.46.02-1.15-.06-1.45-.03-.1-.14-.18-.26-.18Z"/>
              <g class="cls-1">
                <path class="cls-34" d="M27.94,61.56c-.26,0-.43.18-.37.4.06.22.32.39.59.39l14.02-.2c.26,0,.48-.14.47-.3s-.22-.3-.49-.3h-14.21Z"/>
              </g>
              <path class="cls-34" d="M26.2,66.43h-1.6c-.26-.01-.47-.19-.5-.42l-.15-1.34c-.01-.09.02-.19.08-.26.07-.08.17-.13.28-.14.13,0,.32-.03.52-.04.44-.04.95-.08,1.25-.09.24,0,.45.14.51.35.09.31.08.9.07,1.52,0,.23-.21.42-.47.42ZM26.11,64.37s0,0,0,0c-.29,0-.81.05-1.23.09-.2.02-.39.03-.53.04h0s-.09.02-.12.06c-.01.02-.03.05-.03.08l.15,1.34c.01.11.12.2.26.2h1.59s0,0,0,0c.12,0,.22-.08.23-.19,0-.46.02-1.15-.06-1.45-.03-.1-.14-.18-.26-.18Z"/>
              <g class="cls-1">
                <path class="cls-34" d="M27.95,64.98c-.26,0-.43.18-.37.4.06.22.32.39.59.39l14.02-.2c.26,0,.48-.14.47-.3s-.22-.3-.49-.3h-14.21Z"/>
              </g>
            </g>
            <g>
              <path class="cls-34" d="M49.18,55.71h-1.6c-.26-.01-.47-.19-.5-.42l-.15-1.34c-.01-.09.02-.19.08-.26.07-.08.17-.13.28-.14.13,0,.32-.03.52-.04.44-.04.95-.08,1.25-.09.24,0,.45.14.51.35.09.31.08.9.07,1.52,0,.23-.21.42-.47.42ZM49.08,53.65s0,0,0,0c-.29,0-.81.05-1.23.09-.2.02-.39.03-.53.04h0s-.09.02-.12.06c-.01.02-.03.05-.03.08l.15,1.34c.01.11.12.2.26.2h1.59c.12,0,.23-.07.23-.18,0-.46.02-1.15-.06-1.45-.03-.1-.14-.18-.26-.18Z"/>
              <g class="cls-1">
                <path class="cls-34" d="M50.93,54.26c-.26,0-.43.18-.37.4.06.22.32.39.59.39l14.02-.2c.26,0,.48-.14.47-.3,0-.16-.22-.3-.49-.3h-14.21Z"/>
              </g>
              <path class="cls-34" d="M49.19,59.13h-1.6c-.26-.01-.47-.19-.5-.42l-.15-1.34c-.01-.09.02-.19.08-.26.07-.08.17-.13.28-.14.13,0,.32-.03.52-.04.44-.04.95-.08,1.25-.09.24,0,.45.14.51.35.09.31.08.9.07,1.52,0,.23-.21.42-.47.42ZM49.1,57.07s0,0,0,0c-.29,0-.81.05-1.23.09-.2.02-.39.03-.52.04h0s-.09.02-.12.06c-.01.02-.03.05-.03.08l.15,1.34c.01.11.12.2.26.2h1.59s0,0,0,0c.12,0,.23-.08.23-.19,0-.46.02-1.15-.06-1.45-.03-.1-.14-.18-.26-.18Z"/>
              <g class="cls-1">
                <path class="cls-34" d="M50.94,57.67c-.26,0-.43.18-.37.4.06.22.32.39.59.39l14.02-.2c.26,0,.48-.14.47-.3s-.22-.3-.49-.3h-14.21Z"/>
              </g>
              <path class="cls-34" d="M49.21,62.54h-1.6c-.26-.01-.47-.19-.5-.42l-.15-1.34c-.01-.09.02-.19.08-.26.07-.08.17-.13.28-.14h0c.13,0,.32-.03.52-.04.44-.04.95-.08,1.25-.09.24,0,.45.14.51.35.09.31.08.9.07,1.52,0,.23-.21.42-.47.42ZM47.35,60.61s-.09.02-.12.06c-.01.02-.03.05-.03.08l.15,1.34c.01.11.12.2.26.2h1.59s0,0,0,0c.12,0,.23-.08.23-.19,0-.46.02-1.15-.06-1.45-.03-.1-.14-.18-.27-.18-.29,0-.81.05-1.23.09-.2.02-.39.03-.53.04h0Z"/>
              <g class="cls-1">
                <path class="cls-34" d="M50.95,61.09c-.26,0-.43.18-.37.4.06.22.32.39.59.39l14.02-.2c.26,0,.48-.14.47-.3s-.22-.3-.49-.3h-14.21Z"/>
              </g>
              <path class="cls-34" d="M49.22,65.96h-1.6c-.26-.01-.47-.19-.5-.42l-.15-1.34c-.01-.09.02-.19.08-.26.07-.08.17-.13.28-.14h0c.13,0,.32-.03.52-.04.44-.04.95-.08,1.25-.09.24,0,.45.14.51.35.09.31.08.9.07,1.52,0,.23-.21.42-.47.42ZM47.36,64.03s-.09.02-.12.06c-.01.02-.03.05-.03.08l.15,1.34c.01.11.13.2.26.2h1.59s0,0,0,0c.12,0,.23-.08.23-.19,0-.46.02-1.15-.06-1.45-.03-.1-.14-.18-.27-.18-.29,0-.81.05-1.23.09-.2.02-.39.03-.53.04h0Z"/>
              <g class="cls-1">
                <path class="cls-34" d="M50.97,64.51c-.26,0-.43.18-.37.4.06.22.32.39.59.39l14.02-.2c.26,0,.48-.14.47-.3,0-.16-.22-.3-.49-.3h-14.21Z"/>
              </g>
            </g>
            <g>
              <path class="cls-34" d="M26.75,72.77h-1.6c-.26-.01-.47-.19-.5-.42l-.15-1.34c-.01-.09.02-.19.08-.26.07-.08.17-.13.28-.14.13,0,.32-.03.52-.04.44-.04.95-.08,1.25-.09.24,0,.45.14.51.35.09.31.08.9.07,1.52,0,.23-.21.42-.47.42ZM26.66,70.71s0,0,0,0c-.29,0-.81.05-1.23.09-.2.02-.39.03-.53.04h0s-.09.02-.12.06c-.01.02-.03.05-.03.08l.15,1.34c.01.11.12.2.26.2h1.59s0,0,0,0c.12,0,.22-.08.23-.19,0-.46.02-1.15-.06-1.45-.03-.1-.14-.18-.26-.18Z"/>
              <g class="cls-1">
                <path class="cls-34" d="M28.5,71.31c-.26,0-.43.18-.37.4.06.22.32.39.59.39l14.02-.2c.26,0,.48-.14.47-.3s-.22-.3-.49-.3h-14.21Z"/>
              </g>
              <path class="cls-34" d="M26.77,76.18h-1.6c-.26-.01-.47-.19-.5-.42l-.15-1.34c-.01-.09.02-.19.08-.26.07-.08.17-.13.28-.14.13,0,.32-.03.52-.04.44-.04.95-.08,1.24-.09.24,0,.45.14.51.35.09.31.08.9.07,1.52,0,.23-.21.42-.47.42ZM26.67,74.12s0,0,0,0c-.29,0-.81.05-1.23.09-.2.02-.39.03-.53.04h0s-.09.02-.12.06c-.01.02-.03.05-.03.08l.15,1.34c.01.11.12.2.26.2h1.59s0,0,0,0c.12,0,.22-.08.23-.19,0-.46.02-1.15-.06-1.45-.03-.1-.14-.18-.26-.18Z"/>
              <g class="cls-1">
                <path class="cls-34" d="M28.51,74.73c-.26,0-.43.18-.37.4.06.22.32.39.59.39l14.02-.2c.26,0,.48-.14.47-.3,0-.16-.22-.3-.49-.3h-14.21Z"/>
              </g>
              <path class="cls-34" d="M26.78,79.6h-1.6c-.26-.01-.47-.19-.5-.42l-.15-1.34c-.01-.09.02-.19.08-.26.07-.08.17-.13.28-.14h0c.13,0,.32-.03.52-.04.44-.04.95-.08,1.25-.09.23,0,.45.14.51.35.09.31.08.9.07,1.52,0,.23-.21.42-.47.42ZM24.92,77.67s-.09.02-.12.06c-.01.02-.03.05-.03.08l.15,1.34c.01.11.12.2.26.2h1.59c.12,0,.23-.07.23-.18,0-.46.02-1.15-.06-1.45-.03-.1-.14-.18-.26-.18,0,0,0,0,0,0-.29,0-.81.05-1.23.09-.2.02-.39.03-.53.04h0Z"/>
              <g class="cls-1">
                <path class="cls-34" d="M28.52,78.15c-.26,0-.43.18-.37.4.06.22.32.39.59.39l14.02-.2c.26,0,.48-.14.47-.3,0-.16-.22-.3-.49-.3h-14.21Z"/>
              </g>
              <path class="cls-34" d="M26.79,83.01h-1.6c-.26-.01-.47-.19-.5-.42l-.15-1.34c-.01-.09.02-.19.08-.26.07-.08.17-.13.28-.14h0c.13,0,.32-.03.52-.04.44-.04.95-.08,1.25-.09.24,0,.45.14.51.35.09.31.08.9.07,1.52,0,.23-.21.42-.47.42ZM24.94,81.09s-.09.02-.12.06c-.01.02-.03.05-.03.08l.15,1.34c.01.11.12.2.26.2h1.59s0,0,0,0c.12,0,.23-.08.23-.19,0-.46.02-1.15-.06-1.45-.03-.1-.14-.18-.26-.18,0,0,0,0,0,0-.29,0-.81.05-1.23.09-.2.02-.39.03-.53.04h0Z"/>
              <g class="cls-1">
                <path class="cls-34" d="M28.54,81.56c-.26,0-.43.18-.37.4.06.22.32.39.59.39l14.02-.2c.26,0,.48-.14.47-.3s-.22-.3-.49-.3h-14.21Z"/>
              </g>
            </g>
            <g>
              <path class="cls-34" d="M49.77,72.29h-1.6c-.26-.01-.47-.19-.5-.42l-.15-1.34c-.01-.09.02-.19.08-.26.07-.08.17-.13.28-.14h0c.13,0,.32-.03.52-.04.44-.04.95-.08,1.25-.09.24,0,.45.14.51.35.09.31.08.9.07,1.52,0,.23-.21.42-.47.42ZM47.91,70.36s-.09.02-.12.06c-.01.02-.03.05-.03.08l.15,1.34c.01.11.12.2.26.2h1.59s0,0,0,0c.12,0,.22-.08.23-.19,0-.46.02-1.15-.06-1.45-.03-.1-.14-.18-.27-.18-.29,0-.81.05-1.23.09-.2.02-.39.03-.53.04h0Z"/>
              <g class="cls-1">
                <path class="cls-34" d="M51.51,70.84c-.26,0-.43.18-.37.4s.32.39.59.39l14.02-.2c.26,0,.48-.14.47-.3,0-.16-.22-.3-.49-.3h-14.21Z"/>
              </g>
              <path class="cls-34" d="M49.78,75.71h-1.6c-.26-.01-.47-.19-.5-.42l-.15-1.34c-.01-.09.02-.19.08-.26.07-.08.17-.13.28-.14.13,0,.32-.03.52-.04.44-.04.95-.08,1.25-.09.24,0,.45.14.51.35.09.31.08.9.07,1.52,0,.23-.21.42-.47.42ZM49.69,73.65s0,0,0,0c-.29,0-.81.05-1.23.09-.2.02-.39.03-.53.04h0s-.09.02-.12.06c-.01.02-.03.05-.03.08l.15,1.34c.01.11.12.2.26.2h1.59c.13.01.23-.07.23-.18,0-.46.02-1.15-.06-1.45-.03-.1-.14-.18-.26-.18Z"/>
              <g class="cls-1">
                <path class="cls-34" d="M51.53,74.26c-.26,0-.43.18-.37.4s.32.39.59.39l14.02-.2c.26,0,.48-.14.47-.3s-.22-.3-.49-.3h-14.21Z"/>
              </g>
              <path class="cls-34" d="M49.8,79.12h-1.6c-.26-.01-.47-.19-.5-.42l-.15-1.34c-.01-.09.02-.19.08-.26.07-.08.17-.13.28-.14.13,0,.32-.03.52-.04.44-.04.95-.08,1.24-.09.24,0,.45.14.51.35.09.31.08.9.07,1.52,0,.23-.21.42-.47.42ZM47.94,77.2s-.09.02-.12.06c-.01.02-.03.05-.03.08l.15,1.34c.01.11.12.2.26.2h1.59s0,0,0,0c.12,0,.22-.08.23-.19,0-.46.02-1.15-.06-1.45-.03-.1-.14-.18-.27-.18-.29,0-.81.05-1.23.09-.2.02-.39.03-.53.04h0Z"/>
              <g class="cls-1">
                <path class="cls-34" d="M51.54,77.67c-.26,0-.43.18-.37.4.06.22.32.39.59.39l14.02-.2c.26,0,.48-.14.47-.3,0-.16-.22-.3-.49-.3h-14.21Z"/>
              </g>
              <path class="cls-34" d="M49.81,82.54h-1.6c-.26-.01-.47-.19-.5-.42l-.15-1.34c-.01-.09.02-.19.08-.26.07-.08.17-.13.28-.14.13,0,.32-.03.52-.04.44-.04.95-.08,1.25-.09.24,0,.45.14.51.35.09.31.08.9.07,1.52,0,.23-.21.42-.47.42ZM49.71,80.48s0,0,0,0c-.29,0-.81.05-1.23.09-.2.02-.39.03-.52.04h0s-.09.02-.12.06c-.01.02-.03.05-.03.08l.15,1.34c.01.11.12.2.26.2h1.59c.12,0,.23-.07.23-.18,0-.46.02-1.15-.06-1.45-.03-.1-.14-.18-.26-.18Z"/>
              <g class="cls-1">
                <path class="cls-34" d="M51.55,81.09c-.26,0-.43.18-.37.4.06.22.32.39.59.39l14.02-.2c.26,0,.48-.14.47-.3,0-.16-.22-.3-.49-.3h-14.21Z"/>
              </g>
            </g>
          </g>
          <path class="cls-12" d="M46.34,3.36c-1.81-1.25-3.37-1.22-4.47-.89-1,.3-1.65,1.27-1.55,2.32l.5,5.19,5.66.48s3.41-4.66-.13-7.1ZM43.87,7.56c-.78,0-1.41-.63-1.42-1.41,0-.78.63-1.41,1.41-1.42.78,0,1.41.63,1.42,1.41,0,.78-.63,1.41-1.41,1.42Z"/>
          <path class="cls-15" d="M41.36,7.78c-.06,0-.11-.05-.12-.11l-.08-.83c0-.07.04-.12.11-.13.07,0,.12.04.13.11l.08.83c0,.07-.04.12-.11.13,0,0,0,0-.01,0ZM41.21,6.16c-.06,0-.11-.05-.12-.11l-.06-.63c-.09-.99.52-1.91,1.47-2.19.67-.2,1.36-.23,2.06-.09.07.01.11.08.09.14-.01.07-.08.11-.14.09-.66-.13-1.31-.1-1.94.09-.84.25-1.38,1.07-1.3,1.94l.06.63c0,.07-.04.12-.11.13,0,0,0,0-.01,0Z"/>
          <path class="cls-25" d="M33.1,13.36v-2.61c-.01-.9.73-1.63,1.63-1.6l17.99.55c.8.02,1.45.65,1.5,1.45l.16,2.51-21.28-.29Z"/>
          <path class="cls-15" d="M39.02,10.11c-.07,0-.12-.05-.12-.12,0-.07.05-.12.12-.12h.77s0,0,0,0c.07,0,.12.05.12.12,0,.07-.05.12-.12.12h-.77s0,0,0,0Z"/>
          <path class="cls-15" d="M34.07,12.52c-.07,0-.12-.05-.12-.12v-1.06c0-.39.15-.76.42-1.04.28-.28.64-.43,1.03-.43h2.84s0-.01,0-.01c.07,0,.12.05.12.12,0,.07-.05.12-.12.12h-2.84c-.33.01-.63.14-.86.37-.23.23-.36.54-.35.87v1.06c0,.07-.05.12-.12.12h0Z"/>
          <path class="cls-22" d="M27.46,12.43l31.46-.12c1.13,0,2.1.81,2.3,1.92l.03.15c.22,1.22-.72,2.34-1.96,2.35l-32.27.13c-.74,0-1.33-.61-1.3-1.36l.06-1.44c.04-.9.78-1.62,1.69-1.62Z"/>
          <rect class="cls-2" x="23.45" y="19.98" width="41.59" height="6.92" rx=".43" ry=".43"/>
        </g>
        <g>
          <g>
            <path class="cls-13" d="M73.24,78.42s-.65-1.6-2.06-2.58c-1.95-1.36-1.05-4.52.54-5.39,1.32-.73.88-2.32,1.41-3.47.53-1.15,1.25-2.68,3.06-2.57,1.82.11,1.6-.65,2.8-1.47,1.66-1.14,4.18.37,4.5,1.93.33,1.56-.78,2.33.62,3.31,1.4.98.43,2.38-.08,3.28-.52.9-.54,2.32-.38,3.51.2,1.53-.93,3.12-3.33,3.8-2.15.61-3.69.12-4.43.75l-2.65-1.08Z"/>
            <path class="cls-17" d="M74.69,67.46c.18.62,1.03.52,1.51.39.24-.06.49-.14.7-.28.23-.15.44-.33.67-.48.5-.3,1.03-.53,1.56-.75.44-.18.79-.34,1.04-.77.21-.35.34-.74.39-1.14.04-.32.04-.69-.04-1.02-.39-.01-.78.08-1.12.32-.96.66-.79,1.27-2.25,1.18-1.46-.09-2.04,1.15-2.46,2.07-.02.05-.05.11-.07.16,0,.11.02.21.05.32Z"/>
            <path class="cls-9" d="M84.11,68.16c-1.4-.98-.29-1.74-.62-3.31-.14-.68-.7-1.35-1.42-1.8.08.31.12.63.1.95-.04.69-.21,1.36-.3,2.04-.06.48-.16,1-.04,1.48.25.99,1.16,1.73,1.29,2.77.08.68-.29,1.22-.56,1.81-.34.75-.21,1.58-.4,2.37-.29,1.22-1.12,2.26-2.32,2.68-.68.24-1.39.27-2.1.3-.88.04-1.76.06-2.64-.04-.73-.08-1.41-.2-2.03-.6-.53-.34-1.01-.77-1.59-1.03,0,.03-.02.06-.05.06-.08,0-.16,0-.23-.01,1.4.98,2.04,2.57,2.04,2.57l2.65,1.08c.74-.63,2.28-.15,4.43-.75,2.4-.68,3.53-2.27,3.33-3.8-.16-1.19-.14-2.61.38-3.51.52-.9,1.48-2.3.08-3.28Z"/>
            <path class="cls-13" d="M75.38,78.42s.65-1.6,2.06-2.58c1.95-1.36,1.05-4.52-.54-5.39-1.32-.73-.88-2.32-1.41-3.47-.53-1.15-1.25-2.68-3.06-2.57-1.82.11-1.6-.65-2.8-1.47-1.66-1.14-4.18.37-4.5,1.93-.33,1.56.78,2.33-.62,3.31-1.4.98-.43,2.38.08,3.28.52.9.54,2.32.38,3.51-.2,1.53.93,3.12,3.33,3.8,2.15.61,3.77.12,4.51.75l2.57-1.08Z"/>
            <path class="cls-17" d="M74.44,67.81c-.18.62-1.03.52-1.51.39-.24-.06-.49-.14-.7-.28-.23-.15-.44-.33-.67-.48-.5-.3-1.03-.53-1.56-.75-.45-.18-.79-.35-1.04-.77-.21-.35-.34-.74-.39-1.14-.04-.32-.04-.69.04-1.02.39-.01.78.08,1.12.32.96.66.79,1.27,2.25,1.18,1.46-.09,2.04,1.15,2.46,2.07.02.05.05.11.07.16,0,.11-.02.21-.05.32Z"/>
            <path class="cls-9" d="M72.39,77.04c-1.01-.17-2.05-.04-3.06.02-.48.03-.97.05-1.46,0-.42-.04-.86-.1-1.19-.38-.72-.6-.79-1.67-.78-2.54.01-.7.16-1.4.13-2.1-.02-.47-.15-.86-.37-1.26-.15-.26-.33-.53-.39-.83-.24-1.2,1.03-1.87,1.53-2.78.33-.6.22-1.29.4-1.93.17-.62.46-1.21.86-1.73.25-.33.54-.64.84-.92-1.58-.38-3.48.92-3.76,2.26-.33,1.56.78,2.33-.62,3.31-1.4.98-.43,2.38.08,3.28.52.9.54,2.32.38,3.51-.2,1.53.93,3.12,3.33,3.8,2.15.61,3.77.12,4.51.75l1.83-.77c-.43-.94-1.22-1.52-2.25-1.69Z"/>
            <path class="cls-35" d="M81.05,72.51c-.58-1.05-1.07-2.39-.91-3.41.16-1.02.55-2.68-1.1-3.09-1.65-.41-.9-1.52-1.77-2.86-.87-1.34-3.76-1.84-4.9-.18-.82,1.2-.35,1.83-2.08,2.38-1.73.55-1.85,2.24-1.93,3.51-.08,1.26.91,2.59-.07,3.75-1.16,1.39-.87,4.66,1.44,5.23,1.45.35,2.81,1.27,3.01,1.61,1.15,1.93.19,5.08.19,5.08h2.85s-.73-3.15.36-5.26c.32-.63,1.6-.83,3.17-2.01,1.99-1.5,2.48-3.39,1.74-4.74Z"/>
            <path class="cls-9" d="M81.05,72.51c-.58-1.05-1.07-2.39-.91-3.41.16-1.02.55-2.68-1.1-3.09-1.65-.41-.9-1.52-1.77-2.86-.71-1.09-2.77-1.63-4.12-.88.1-.01.2-.01.3-.01.28,0,.55.06.78.23.22.17.38.41.53.64.2.3.41.59.58.9.18.34.35.69.58,1,.41.55,1,.92,1.51,1.35.42.36.95.84,1.07,1.41.07.33-.06.6-.11.92-.08.51.25.81.48,1.21.35.61.55,1.29.64,1.99.1.77.09,1.54,0,2.31-.08.66-.2,1.3-.59,1.86-.39.56-.9.98-1.47,1.35-.36.24-.75.48-1.03.82-.23.27-.41.58-.58.89-.29.52-1.29,2.48-2.07,1.54-.28-.33-.36-.79-.54-1.17-.33-.67-.93-1.18-1.55-1.58-1.14-.75-2.38-1.63-3.77-1.7.32.77.91,1.4,1.81,1.62,1.45.35,2.81,1.27,3.01,1.61,1.15,1.93.19,5.08.19,5.08h2.85s-.73-3.15.36-5.26c.32-.63,1.6-.83,3.17-2.01,1.99-1.5,2.48-3.39,1.74-4.74Z"/>
            <g>
              <path class="cls-13" d="M74.16,78.03c-.45-.32-.84-.66-1.23-.99-.39-.34-.77-.67-1.14-1-.38-.33-.75-.66-1.13-.99-.38-.33-.77-.66-1.18-1.03.56.02,1.09.2,1.58.43.49.24.94.55,1.35.91.4.36.76.77,1.07,1.21.15.22.29.45.41.7.12.24.23.5.29.77Z"/>
              <path class="cls-13" d="M74.16,78.03c.07-.27.17-.52.29-.77.12-.24.26-.47.41-.7.31-.44.67-.85,1.08-1.21.41-.36.86-.67,1.35-.91.49-.24,1.02-.41,1.58-.44-.41.37-.8.7-1.19,1.03-.39.33-.76.66-1.14.99-.38.33-.76.67-1.15,1-.39.33-.79.67-1.24.99Z"/>
              <path class="cls-13" d="M74.36,74.71c-.43-.29-.79-.6-1.16-.91-.36-.31-.71-.62-1.05-.92l-1.04-.93c-.35-.31-.71-.62-1.08-.98.52,0,1.01.17,1.47.38.46.22.88.51,1.25.85.37.34.7.72.98,1.13.14.21.26.43.37.65.11.23.2.46.25.72Z"/>
              <path class="cls-13" d="M74.36,74.71c.05-.26.15-.49.25-.72.11-.23.23-.45.37-.65.28-.42.61-.8.98-1.13.37-.33.79-.62,1.25-.85.46-.22.95-.38,1.47-.38-.37.36-.73.67-1.08.98l-1.04.93c-.35.31-.69.62-1.05.92-.36.31-.73.61-1.16.91Z"/>
              <path class="cls-13" d="M74.36,71.45c-.39-.3-.72-.6-1.05-.9-.32-.3-.63-.61-.94-.91-.31-.3-.61-.6-.93-.9-.31-.31-.64-.6-.98-.95.49,0,.96.15,1.39.36.43.22.82.51,1.16.84.34.33.63.71.87,1.12.12.21.22.42.3.64.08.22.15.45.18.7Z"/>
              <path class="cls-13" d="M74.36,71.45c.05-.25.14-.48.24-.7.1-.22.22-.44.36-.64.27-.41.59-.78.95-1.11.36-.33.77-.62,1.21-.83.44-.21.93-.37,1.44-.38-.36.35-.7.66-1.04.97l-1,.91c-.33.3-.67.61-1.02.91-.35.3-.72.6-1.14.87Z"/>
            </g>
            <path class="cls-17" d="M69.32,72.96s.07.03.11.04c.38.12.84.07,1.22-.03.56-.15,1.02-.49,1.17-1.07.17-.62.07-1.27.05-1.91-.02-.5-.03-1.07.25-1.51.31-.47.79-.78,1.09-1.27.35-.58.49-1.25.49-1.92,0-.44-.04-.89-.2-1.29-.19.13-.37.29-.51.5-.67.99-.29,1.51-1.72,1.97-1.43.46-1.53,1.86-1.6,2.9-.07,1.04.75,2.14-.05,3.1-.12.15-.22.32-.31.51Z"/>
          </g>
          <g>
            <g>
              <g>
                <path class="cls-13" d="M56.75,59.82s4.09,1.69,3.14,7.27c0,0-4.89-3.21-3.14-7.27Z"/>
                <path class="cls-35" d="M59.89,67.08c.94-5.57-3.14-7.26-3.14-7.26,0,.01,0,.02-.01.04l3.16,7.23Z"/>
              </g>
              <g>
                <path class="cls-13" d="M61.6,59.35s2.33,3.77-1.7,7.74c0,0-2.09-5.46,1.7-7.74Z"/>
                <path class="cls-35" d="M59.9,67.08c4.02-3.97,1.69-7.73,1.69-7.73-.01,0-.02.01-.03.02l-1.66,7.71Z"/>
              </g>
              <g>
                <path class="cls-13" d="M53.03,63.09s1.18,4.27,6.83,4.01c0,0-2.58-5.24-6.83-4.01Z"/>
                <path class="cls-35" d="M59.85,67.1c-5.64.25-6.82-4.01-6.82-4.01.01,0,.02,0,.04-.01l6.78,4.02Z"/>
              </g>
            </g>
            <path class="cls-40" d="M65.12,69.83c1.59,3.63,3.12,12.74,1.82,13.31-1.3.57-7-6.76-8.59-10.4-1.59-3.63-.99-6.59.73-7.34,2.25-.98,4.46.8,6.04,4.43Z"/>
            <path class="cls-7" d="M59.08,65.39c-.2.09-.38.2-.54.34,1.11-.16,2.17.26,3.03,1,.55.47,3.61,3.81,4.93,12.27.14.89-.5,1.93-1.58,1.84-.53-.04-.98-.3-1.4-.61-.13-.09-.25-.18-.38-.27,1.65,1.98,3.21,3.43,3.81,3.16,1.29-.57-.23-9.67-1.82-13.31-1.59-3.63-3.79-5.42-6.04-4.43Z"/>
            <path class="cls-39" d="M57.49,69.76c.07-.09.14-.16.22-.23l.24-.18c.16-.12.34-.21.51-.29.18-.07.36-.14.56-.18l.3-.05c.11,0,.21-.02.32,0v.03s-1.05.48-1.05.48l-1.08.45v-.03Z"/>
            <path class="cls-39" d="M59.48,70.82c.07-.09.15-.16.22-.24l.25-.19c.16-.12.34-.21.53-.29.19-.07.37-.15.57-.18l.3-.05c.11,0,.21-.02.33,0v.03s-1.08.49-1.08.49l-1.1.47v-.03Z"/>
            <path class="cls-39" d="M61.82,68.21c.06-.09.13-.15.19-.22l.22-.17c.14-.11.31-.19.47-.27.17-.07.33-.13.51-.16l.27-.04c.1,0,.19,0,.3,0v.03s-.96.44-.96.44l-.99.41v-.03Z"/>
            <path class="cls-39" d="M62.46,70.52c.08-.1.17-.17.26-.25l.28-.2c.19-.13.39-.23.6-.33.21-.08.42-.17.65-.22l.34-.07c.12,0,.24-.03.36-.02v.03s-1.23.56-1.23.56l-1.25.53v-.03Z"/>
            <path class="cls-39" d="M58.31,72.64c.06-.09.14-.15.21-.23l.24-.18c.16-.12.33-.2.5-.29.18-.07.36-.14.55-.18l.29-.05c.11,0,.2-.01.32,0v.03s-1.04.48-1.04.48l-1.06.45v-.03Z"/>
            <path class="cls-39" d="M62.13,72.93c.08-.1.18-.17.27-.26l.29-.21c.19-.14.4-.24.61-.33.22-.09.43-.17.66-.22l.35-.07c.12,0,.24-.03.37-.02v.03s-1.26.57-1.26.57l-1.28.54v-.03Z"/>
            <path class="cls-39" d="M59.86,75.47c.08-.1.16-.16.25-.25l.27-.2c.18-.13.37-.22.57-.31.2-.08.4-.16.62-.2l.33-.06c.12,0,.23-.02.35-.01v.03s-1.17.53-1.17.53l-1.19.5v-.03Z"/>
            <path class="cls-39" d="M62.86,75.3c.07-.09.14-.16.22-.23l.24-.18c.16-.12.34-.21.51-.29.18-.07.36-.14.56-.18l.3-.05c.11,0,.21-.02.32,0v.03s-1.05.48-1.05.48l-1.08.45v-.03Z"/>
            <path class="cls-39" d="M64.05,76.28c.08-.1.18-.17.27-.26l.3-.21c.2-.14.41-.24.62-.34.22-.09.44-.18.67-.23l.35-.07c.13,0,.24-.03.37-.02v.03s-1.28.58-1.28.58l-1.3.55v-.03Z"/>
            <path class="cls-39" d="M64.34,77.5c-.07.1-.16.16-.24.24l-.26.19c-.17.13-.37.22-.56.31-.2.08-.39.16-.61.2l-.32.06c-.11,0-.22.02-.34.01v-.03s1.14-.52,1.14-.52l1.17-.49v.03Z"/>
            <path class="cls-39" d="M64.13,79.03c.06-.09.14-.15.2-.23l.22-.18c.15-.12.32-.2.48-.28.17-.07.34-.14.53-.17l.28-.04c.1,0,.2-.01.3,0v.03s-1,.46-1,.46l-1.02.43v-.03Z"/>
            <path class="cls-39" d="M65.76,79.86c-.06.09-.13.15-.19.22l-.21.17c-.14.11-.3.19-.46.27-.16.06-.33.13-.51.16l-.27.04c-.1,0-.19,0-.29-.01v-.03s.95-.44.95-.44l.98-.41v.03Z"/>
            <path class="cls-39" d="M65.99,81.59c.03-.08.08-.13.12-.19l.15-.14c.1-.09.21-.15.33-.21.12-.04.24-.09.37-.1h.2c.08,0,.14,0,.23.03v.03s-.68.32-.68.32l-.71.29v-.03Z"/>
            <path class="cls-17" d="M61.02,74.37c.17-1.09-.52-2.01-.94-2.96-.38-.86-1.02-1.83-.94-2.81.05-.6.27-1.31.8-1.65-.29,0-.58.05-.88.18-1.16.51-1.57,2.51-.49,4.97.37.85,1.07,1.99,1.86,3.11.29-.22.54-.5.59-.84Z"/>
          </g>
          <g>
            <path class="cls-38" d="M86.5,77.33c0,4.78-3.07,7.55-7.65,7.55s-7.69-2.75-7.69-7.53c0-3.22,1.01-5.41,3.51-6.75,2.99-1.6,5.82-1.34,8.07-.14,2.2,1.18,3.76,3.17,3.76,6.87Z"/>
            <path class="cls-17" d="M73.8,77.75c.93-.25,1.35-.91,1.34-1.86,0-1.02-.21-1.99.25-2.95.24-.5.63-.96.81-1.48,0-.01,0-.02.01-.03-.49.14-.98.33-1.48.6-1.86,1-2.62,2.63-2.62,5.03,0,.28.02.55.04.82.55.03,1.11.03,1.64-.12Z"/>
            <path class="cls-5" d="M82.74,70.46c-1.04-.56-2.21-.91-3.46-.97.07.03.14.07.22.1,1.2.59,2.52,1.31,3.4,2.34.74.87,1.2,1.91,1.38,3.04.19,1.21.28,2.53-.06,3.72-.34,1.19-.99,2.23-1.95,3.02-1,.82-2.98,1.19-4.24,1.22-4,.11-5.24-1.76-6.45-2.77.99,3.03,3.68,4.72,7.27,4.72,4.58,0,7.65-2.77,7.65-7.55,0-3.7-1.55-5.69-3.76-6.87Z"/>
            <g>
              <path class="cls-35" d="M79.41,69.66s-.13-2.2.75-3.59c0,0-.94-.48-2.12.34,0,0,.77,2.5.63,3.23l.74.02Z"/>
              <path class="cls-6" d="M80.16,66.07s-.28-.14-.72-.14c0,0-.14,1.5-.22,2.03-.05.31-.34,1.46-.55,1.66,0,0,0,.01,0,.02l.74.02s-.13-2.2.75-3.59Z"/>
              <path class="cls-35" d="M81.35,69.87c1.35.45,1.76,2.28,1.76,2.28-.31-.42-1.83-1.28-1.83-1.28.17.89-.38,1.84-.38,1.84-.89-1.36-1.79-1.92-1.79-1.92-1.1.4-2.35,1.82-2.35,1.82.03-.98.23-1.77.23-1.77-1.7.16-2.43.93-2.43.93.39-1.17,1.36-1.73,1.36-1.73,0,0,2.46-1.16,5.43-.17Z"/>
              <path class="cls-6" d="M83.11,72.15s-.41-1.83-1.76-2.28c-.03-.01-.06-.02-.1-.03.22.27.48.58.52.92,0,.05-.7-.31-.89-.3-.12,0-.03,1.31-.15,1.28-.27-.06-.59-.4-.76-.6-.27-.3-.84-.84-1.1-.74-.4.15-1.39.94-1.41.85-.04-.17-.14-.8-.14-.8,0,0-1.52.3-1.5.26.07-.22.14-.47.14-.7-.03.01-.04.02-.04.02,0,0-.98.55-1.36,1.73,0,0,.73-.77,2.43-.93,0,0-.2.79-.23,1.77,0,0,1.24-1.42,2.35-1.82,0,0,.9.56,1.79,1.92,0,0,.54-.95.38-1.84,0,0,1.53.86,1.83,1.28Z"/>
            </g>
          </g>
          <g>
            <path class="cls-37" d="M92.1,67.56c-.82-.99-1.76-1.35-2.61-1.42-1.15-.11-2.15.36-2.63,1.22-.68,1.22-1.16,4.34-2.34,6.8-.99,2.06-2.82,3.12-2.79,5.2.03,2.46,1.51,3.45,3.85,3.6,2.93.2,4.41-1.73,5.35-4.01,1.08-2.62,3.29-8.85,1.18-11.4Z"/>
            <path class="cls-17" d="M85.63,74.31c.35.08.74-.02.98-.29.47-.52.43-1.3.57-1.94.08-.41.19-.82.35-1.2.15-.35.37-.65.6-.95.25-.32.48-.62.61-1.01.03-.1.06-.2.08-.3-.06,0-.11-.02-.17-.02-.75-.07-1.41.24-1.72.8-.44.8-.76,2.85-1.53,4.46-.05.1-.1.19-.15.28.12.08.25.14.39.17Z"/>
            <path class="cls-8" d="M92.1,67.56s-.02-.03-.04-.04c-.06.61-.15,1.23-.24,1.84-.31,2.04-.73,4.15-1.75,5.98-.56,1.01-1.07,2.06-1.74,3-.63.88-1.47,1.83-2.51,2.22-.99.37-2.13.25-3.05-.27-.38-.21-.82-.48-1.05-.87.05,2.42,1.53,3.39,3.85,3.55,2.93.2,4.41-1.73,5.35-4.01,1.08-2.62,3.29-8.85,1.18-11.4Z"/>
            <path class="cls-35" d="M89.7,66.26s-.24-1.38.34-2.18c0,0-.55-.33-1.3.11,0,0,.27,1.54.16,1.97l.8.1Z"/>
            <path class="cls-6" d="M90.05,64.07s-.16-.1-.43-.12c0,0-.17.9-.22,1.22-.06.4-.36.86-.49.98,0,0,0,0,0,.01l.8.1s-.24-1.38.34-2.18Z"/>
            <path class="cls-35" d="M87.44,66.66s-.73,1.38-.42,2.14c0,0,.67-1.07,1.36-1.36,0,0-.19.91.21,1.44,0,0,.56-1.1,1.24-1.3,0,0,.59.41.61,1.12,0,0,.86-.58.19-1.5,0,0,1.18.68,1.08,1.92,0,0,.61-.91.16-1.82,0,0-1.99-2.29-4.43-.64Z"/>
            <path class="cls-6" d="M91.87,67.3s-.48-.55-1.25-.91c.17.21.3.47.31.72,0,.03-.34-.06-.49-.05.03.21.06.43-.07.61-.02.02-.21-.24-.29-.36-.05-.08-.15-.3-.29-.24-.08.04-.16.08-.23.14-.22.18-.62.61-.63.59-.1-.16-.11-.34-.11-.52,0-.1,0-.19,0-.29,0-.07.05-.2-.1-.13-.04.02-.08.04-.12.06-.27.12-.53.24-.76.43-.11.09-.47.33-.47.31-.01-.42.16-.79.34-1.16-.09.05-.18.11-.27.17,0,0-.73,1.38-.42,2.14,0,0,.67-1.07,1.36-1.36,0,0-.19.91.21,1.44,0,0,.56-1.1,1.24-1.3,0,0,.59.41.61,1.12,0,0,.86-.58.19-1.5,0,0,1.18.68,1.08,1.92,0,0,.61-.91.16-1.82Z"/>
          </g>
          <g>
            <rect class="cls-23" x="58.35" y="77.67" width="4.5" height="1.15" transform="translate(-30.38 117.21) rotate(-75.42)"/>
            <path class="cls-13" d="M58.15,76.13s1.23,3.79.75,6.19l1.59.32s.7-3.18,3.37-5.14c0,0-.48-.58-.73-.5-1.61.51-3.01,3.27-3.01,3.27,0,0-.02-3.14-1.05-4.12-.21-.19-.92-.01-.92-.01Z"/>
            <path class="cls-9" d="M62.5,77.97c-.22.27-.42.55-.62.84-.21.31-.43.61-.62.93-.34.58-.63,1.21-1.04,1.75-.17.22-.38.44-.66.51-.13.03-.29.05-.43.01-.06-.02-.11-.04-.16-.06-.02.13-.04.26-.06.38l1.59.32s.7-3.18,3.37-5.14c0,0-.22-.27-.44-.41-.34.27-.66.55-.93.89Z"/>
            <path class="cls-11" d="M66.56,74.71c.2-.98-.4-1.93-1.34-2.19-.26-.55-.77-.97-1.41-1.1,0,0,0,0-.01,0-.1-.78-.69-1.44-1.5-1.6-.74-.15-1.47.16-1.89.73-.66-.08-1.3.18-1.71.66-.96-.1-1.85.54-2.04,1.51-.12.62.07,1.23.48,1.66-.16.22-.28.48-.34.76-.21,1.04.47,2.05,1.5,2.26.61.12,1.21-.06,1.64-.44.25.24.57.41.94.49.37.07.73.04,1.06-.09.25.52.74.92,1.35,1.04,1.04.21,2.05-.47,2.26-1.51.06-.29.05-.58-.02-.86.52-.25.92-.73,1.04-1.34Z"/>
            <path class="cls-17" d="M57.8,73.68c.24.11.51.2.77.21.53.04,1-.24,1.36-.6.19-.19.34-.41.52-.61.18-.2.38-.35.62-.46.27-.12.55-.23.73-.48.17-.24.27-.53.31-.81.02-.14.01-.27-.02-.39-.52,0-1,.25-1.3.66-.57-.07-1.11.16-1.47.57-.82-.08-1.59.47-1.75,1.29-.03.15-.04.31-.03.46.08.07.18.12.27.16Z"/>
            <path class="cls-9" d="M66.56,74.71c.2-.98-.4-1.93-1.34-2.19-.1-.2-.22-.38-.37-.53.02.1.04.2.06.29.07.34.18.67.28,1.01.08.26.11.55,0,.81-.14.3-.34.54-.55.8-.13.17-.24.32-.28.53-.04.16-.05.32-.1.48-.05.16-.11.36-.27.45-.13.08-.29.08-.44.06-.26-.03-.52-.12-.78-.09-.28.03-.54.15-.82.2-.28.05-.56.02-.81-.13-.25-.15-.48-.36-.77-.42-.54-.12-1.08.09-1.61.15-.52.06-1.05-.05-1.36-.51-.08-.13-.15-.26-.19-.41-.04-.14-.05-.28-.09-.41-.02-.08-.06-.16-.09-.23-.1.18-.18.37-.22.59-.21,1.04.47,2.05,1.5,2.26.61.12,1.21-.06,1.64-.44.25.24.57.41.94.49.37.07.73.04,1.06-.09.25.52.74.92,1.35,1.04,1.04.21,2.05-.47,2.26-1.51.06-.29.05-.58-.02-.86.52-.25.92-.73,1.04-1.34Z"/>
          </g>
          <g>
            <rect class="cls-23" x="46.99" y="76.74" width="1.15" height="4.5" transform="translate(-17.83 13.99) rotate(-14.11)"/>
            <path class="cls-13" d="M44.4,78.31s2.9,2.74,3.63,5.07l1.55-.48s-.91-3.13.49-6.13c0,0-.7-.28-.88-.09-1.17,1.21-1.07,4.31-1.07,4.31,0,0-1.52-2.74-2.9-3.1-.27-.07-.82.43-.82.43Z"/>
            <path class="cls-9" d="M49.1,77.84c-.07.34-.11.69-.14,1.03-.04.37-.09.74-.1,1.11-.02.67.03,1.36-.07,2.03-.04.27-.13.57-.33.76-.1.09-.23.19-.37.21-.06.01-.12.02-.17.02.05.12.09.25.13.37l1.55-.48s-.91-3.13.49-6.13c0,0-.32-.13-.58-.15-.17.4-.31.8-.39,1.22Z"/>
            <path class="cls-11" d="M51.1,73.02c-.3-.95-1.27-1.5-2.23-1.28-.49-.35-1.14-.48-1.77-.28,0,0,0,0-.01,0-.46-.63-1.29-.93-2.09-.68-.72.23-1.21.84-1.31,1.55-.62.24-1.05.78-1.18,1.4-.89.37-1.36,1.37-1.07,2.3.19.61.66,1.05,1.22,1.23-.04.27-.02.55.07.83.32,1.01,1.39,1.58,2.41,1.26.59-.19,1.03-.63,1.23-1.17.34.09.7.09,1.06-.02.36-.11.66-.32.88-.58.47.33,1.09.45,1.68.26,1.01-.32,1.58-1.39,1.26-2.41-.09-.29-.24-.53-.43-.74.34-.47.46-1.08.27-1.67Z"/>
            <path class="cls-17" d="M42.92,76.33c.26-.02.54-.07.78-.18.48-.22.76-.69.9-1.18.07-.26.1-.52.16-.78.06-.26.16-.49.32-.7.18-.24.37-.46.41-.77.03-.29-.02-.59-.12-.86-.05-.13-.12-.24-.21-.34-.46.25-.76.7-.83,1.2-.53.21-.9.67-1.01,1.2-.76.32-1.17,1.17-.92,1.98.05.15.11.29.2.41.11.02.21.02.32.01Z"/>
            <path class="cls-9" d="M51.1,73.02c-.3-.95-1.27-1.5-2.23-1.28-.18-.13-.37-.22-.58-.29.06.08.13.15.19.23.23.27.48.5.73.75.19.19.36.43.38.71.02.33-.04.64-.1.96-.04.21-.05.4,0,.6.05.16.11.31.15.47.04.17.07.37-.02.52-.08.13-.22.21-.36.26-.24.09-.51.14-.73.3-.23.16-.41.39-.63.57-.22.18-.48.29-.77.27-.3-.01-.59-.09-.88,0-.53.15-.9.59-1.34.9-.43.3-.94.46-1.44.2-.13-.07-.26-.16-.36-.27-.1-.1-.18-.22-.27-.32-.06-.06-.12-.11-.19-.15,0,.21.02.41.09.62.32,1.01,1.39,1.58,2.41,1.26.59-.19,1.03-.63,1.23-1.17.34.09.7.09,1.06-.02.36-.11.66-.32.88-.58.47.33,1.09.45,1.68.26,1.01-.32,1.58-1.39,1.26-2.41-.09-.29-.24-.53-.43-.74.34-.47.46-1.08.27-1.67Z"/>
          </g>
          <g>
            <rect class="cls-23" x="84.83" y="77.24" width=".96" height="3.73" transform="translate(-16.74 23.25) rotate(-14.15)"/>
            <path class="cls-13" d="M82.68,78.54s2.41,2.27,3.01,4.21l1.28-.4s-.76-2.6.4-5.08c0,0-.58-.23-.73-.08-.97,1.01-.89,3.58-.89,3.58,0,0-1.26-2.27-2.4-2.57-.23-.06-.68.36-.68.36Z"/>
            <path class="cls-9" d="M86.57,78.15c-.05.28-.09.57-.12.86-.03.31-.07.61-.08.92-.02.56.03,1.13-.06,1.69-.04.22-.1.47-.28.63-.08.08-.19.15-.31.18-.05,0-.1.01-.14.02.04.1.08.2.11.3l1.28-.4s-.76-2.6.4-5.08c0,0-.26-.11-.48-.13-.14.33-.26.66-.33,1.02Z"/>
            <path class="cls-11" d="M88.23,74.15c-.25-.79-1.06-1.24-1.85-1.06-.41-.29-.95-.4-1.46-.23,0,0,0,0-.01,0-.38-.52-1.07-.77-1.73-.57-.6.19-1.01.7-1.08,1.28-.52.2-.87.65-.98,1.16-.74.31-1.13,1.13-.89,1.91.16.5.54.87,1.01,1.02-.03.22-.01.46.06.69.26.84,1.15,1.31,1.99,1.05.49-.15.86-.52,1.02-.97.28.07.58.07.88-.02.3-.09.55-.26.73-.48.39.28.9.37,1.39.22.84-.26,1.31-1.16,1.05-2-.07-.24-.2-.44-.36-.61.28-.39.38-.9.23-1.39Z"/>
            <path class="cls-17" d="M81.45,76.9c.22-.01.45-.06.65-.15.4-.19.63-.57.75-.98.06-.21.09-.43.14-.65.05-.21.13-.4.27-.58.15-.2.31-.38.34-.64.03-.24-.01-.49-.1-.71-.04-.11-.1-.2-.17-.28-.38.21-.63.58-.69,1-.44.17-.75.56-.84,1-.63.27-.97.97-.76,1.64.04.12.09.24.16.34.09.01.18.02.26,0Z"/>
            <path class="cls-9" d="M88.23,74.15c-.25-.79-1.06-1.24-1.85-1.06-.15-.1-.31-.19-.48-.24.05.06.11.13.16.19.19.22.4.42.6.63.16.16.3.36.32.59.02.27-.03.53-.08.8-.03.17-.04.33,0,.5.04.13.09.26.12.39.03.14.06.31-.02.43-.07.11-.18.17-.3.22-.2.08-.42.12-.6.25-.19.14-.34.32-.52.47-.19.15-.4.24-.64.23-.25-.01-.49-.07-.73,0-.44.13-.75.49-1.11.75-.36.25-.78.38-1.19.17-.11-.06-.21-.13-.3-.22-.08-.08-.15-.18-.23-.26-.05-.05-.1-.09-.16-.13,0,.17.02.34.07.52.26.84,1.15,1.31,1.99,1.05.49-.15.86-.52,1.02-.97.28.07.58.07.88-.02.3-.09.55-.26.73-.48.39.28.9.37,1.39.22.84-.26,1.31-1.16,1.05-2-.07-.24-.2-.44-.36-.61.28-.39.38-.9.23-1.39Z"/>
          </g>
          <g>
            <g>
              <path class="cls-33" d="M53.69,68.77s2.42-.68,3.97,2.19c.98,1.81,1.48,14.11-3.93,10.8,0,0,.65-1.23.65-6.49,0-5.78-.69-6.5-.69-6.5Z"/>
              <path class="cls-33" d="M51.07,69.04s-3.28-.9-4.29,1.84c-.71,1.92-1.2,14.18,4.22,10.89,0,0-.65-1.22-.65-6.44,0-5.74.73-6.29.73-6.29Z"/>
              <path class="cls-33" d="M49.38,70.21c.2,6.25-.43,12.02,3.06,12.02,2.42,0,2.58-4.11,2.51-11.9-.03-2.99-5.65-2.66-5.57-.13Z"/>
            </g>
            <path class="cls-35" d="M48.73,69.94s.4-.81,3.3-.38c.82.12,1.9-.82,3.55.38,0,0-2.48.78-3.5.76-.86-.01-2.33-.07-3.35-.76Z"/>
            <path class="cls-38" d="M53.29,70.37s3.01-1.66,4.52.42c1.68,2.32,1.88,15.72-4.05,12.36,0,0,.71-1.25.71-6.59,0-5.87-1.18-6.19-1.18-6.19Z"/>
            <path class="cls-38" d="M51.22,70.47s-3.31-1.58-4.62.47c-1.65,2.58-1.77,15.55,4.16,12.22,0,0-.71-1.24-.71-6.54,0-5.82,1.18-6.14,1.18-6.14Z"/>
            <path class="cls-43" d="M52.08,70.23c-1.12-.02-2.7-.76-2.7,2.05,0,6.35-.85,11.35,2.96,11.35,2.65,0,2.68-3.26,2.57-11.16-.04-3.28-1.7-2.22-2.84-2.24Z"/>
            <path class="cls-17" d="M48.1,77.1c.92-.26,1.33-1.14,1.48-2.02.08-.48.06-.96.07-1.44.01-.51.07-1,.17-1.5.07-.31.16-.63.35-.88.05-.07.11-.12.17-.18-.82-.25-2.21-.48-2.9.59-.54.84-.86,3.1-.71,5.24.38.27.87.33,1.36.19Z"/>
            <path class="cls-5" d="M57.81,70.79c-.53-.73-1.25-1-1.96-1.04.38,1.07.62,2.18.82,3.29.12.64.23,1.28.26,1.93.03.67,0,1.35-.07,2.01-.04.34-.09.67-.12,1.01-.03.27-.05.55-.14.81-.15.46-.41.91-.7,1.29-.54.73-1.36,1.45-2.33,1.44-.61,0-1.2-.14-1.77-.33-.68-.22-1.36-.03-1.99.25-.86.38-1.95.83-2.77.12-.31-.27-.6-.73-.94-1.07.67,2.47,2.09,4.06,4.62,2.66.41.3.94.46,1.62.46.6,0,1.07-.17,1.43-.52-.01.03-.02.04-.02.04,5.93,3.36,5.74-10.05,4.05-12.36Z"/>
            <g>
              <path class="cls-35" d="M52.4,69.89s-.16-2.72.92-4.43c0,0-1.16-.59-2.62.42,0,0,.95,3.08.78,3.98l.92.02Z"/>
              <path class="cls-6" d="M53.32,65.46s-.34-.17-.88-.17c0,0-.18,1.85-.28,2.5-.06.39-.42,1.8-.68,2.05,0,0,0,.02,0,.02l.92.02s-.16-2.72.92-4.43Z"/>
            </g>
          </g>
          <g>
            <path class="cls-28" d="M85.15,93.2c-6.41,1.81-26.89,1.81-33.72-.21-3.45-1.02-8.07-11.96-8.07-11.96h49.4s-4.1,11.18-7.61,12.17Z"/>
            <path class="cls-27" d="M51.62,86.65c3.37,2,7.61,2.35,11.17.79,1.62-.71,3.11-1.59,4.51-2.75.33-.27,1.03-1.12.97-1.18-.85-.8-4.37.65-10.34.65s-9.55-.84-9.81-.47c-.5.72,2.19,2.17,3.51,2.95Z"/>
            <path class="cls-10" d="M88.62,81.03c-1.62,2.65-3.82,4.92-6.49,6.63-5.44,3.48-12.1,4.67-18.47,4.69-1.72,0-3.43-.07-5.14-.25-1.99-.2-4.01-.5-5.9-1.17-1.94-.69-3.57-1.81-5.09-3.19-.76-.68-1.52-1.42-2.05-2.3-.05-.09-.11-.18-.16-.27,1.66,3.21,4.09,7.23,6.11,7.83,6.83,2.02,27.31,2.02,33.72.21,3.51-.99,7.61-12.17,7.61-12.17h-4.14Z"/>
            <path class="cls-29" d="M94.52,80.48c0,.75-.59,1.36-1.33,1.36h-50.27c-.73,0-1.33-.61-1.33-1.36h0c0-.75.59-1.36,1.33-1.36h50.27c.73,0,1.33.61,1.33,1.36h0Z"/>
          </g>
        </g>
      </g>
    </g>
  </g>
</svg>