<?xml version="1.0" encoding="UTF-8"?>
<svg xmlns="http://www.w3.org/2000/svg" viewBox="0 0 632 560">
  <defs>
    <style>
      .cls-1 {
        fill: #fdaec2;
      }

      .cls-2 {
        fill: #707a8f;
      }

      .cls-3 {
        opacity: .29;
      }

      .cls-4 {
        fill: #55678f;
      }

      .cls-5 {
        fill: #fff;
      }

      .cls-6 {
        fill: #02024a;
      }

      .cls-7 {
        fill: #fd88a1;
      }

      .cls-8 {
        fill: #e5e5e5;
      }

      .cls-9 {
        fill: #f66c6c;
      }

      .cls-10 {
        isolation: isolate;
      }

      .cls-11 {
        fill: #321f59;
      }

      .cls-12 {
        fill: #ff9c9c;
      }

      .cls-13 {
        fill: #4a6b9c;
      }

      .cls-14 {
        fill: #80acca;
      }

      .cls-15 {
        fill: #e93c3d;
      }

      .cls-16 {
        fill: none;
        stroke: #e5e5e5;
        stroke-miterlimit: 10;
        stroke-width: 2.55px;
      }

      .cls-17 {
        fill: #fc6987;
      }

      .cls-18 {
        fill: #353cb6;
      }

      .cls-19 {
        fill: #a5cde4;
      }

      .cls-20 {
        fill: #412c70;
      }

      .cls-21 {
        fill: #d6d6d6;
      }

      .cls-22 {
        fill: #26323b;
      }

      .cls-23 {
        fill: #575dd9;
      }

      .cls-24 {
        fill: #6e9a89;
      }

      .cls-25 {
        fill: #bcbbbb;
      }

      .cls-26 {
        fill: #c1c1c1;
      }

      .cls-27 {
        fill: #4046ca;
      }

      .cls-28 {
        fill: #1d0a3d;
      }

      .cls-29 {
        fill: #313f4a;
      }

      .cls-30 {
        fill: #5c7cae;
      }

      .cls-31 {
        fill: #f8f8f8;
      }

      .cls-32 {
        fill: #fd342e;
      }

      .cls-33 {
        fill: #f55175;
      }

      .cls-34 {
        fill: #bccae9;
      }

      .cls-35 {
        fill: #8d9cbd;
      }

      .cls-36 {
        fill: #606980;
      }

      .cls-37 {
        mix-blend-mode: multiply;
        opacity: .5;
      }
    </style>
  </defs>
  <g class="cls-10">
    <g id="Layer_2" data-name="Layer 2">
      <g>
        <g class="cls-3">
          <path class="cls-12" d="M107.61,556.34S.04,475.61,3.87,369.14c3.83-106.47,102.98-123.77,156.81-97.78,53.83,25.98,103.24,40.62,146.76-.55,43.52-41.17,26.12-107.23,89.88-154.63,63.76-47.41,169.47-22.07,170.87,54.64,1.4,76.7-49.32,117.56-32.29,153.47s79.21,31.68,91.08,96.46c9.22,50.31-35.02,78.66-50.93,101.42-15.91,22.76-16.73,32.92-16.73,32.92l-451.71,1.27Z"/>
          <path class="cls-12" d="M111.94,216.02c-22.7-34.99-5.98-68.71,29.53-54.74,35.51,13.96,51.93,17.95,88.18-7.3,36.25-25.25,91.56,4.12,96.11,43.29,4.55,39.17-21.9,81.22-94.2,86.14-72.3,4.92-119.62-67.38-119.62-67.38Z"/>
        </g>
        <g>
          <rect class="cls-9" x="315.85" y="88.42" width="8.48" height="23.57" transform="translate(59.41 -110.85) rotate(21.61)"/>
          <rect class="cls-9" x="315.85" y="88.42" width="8.48" height="23.57" transform="translate(531.15 -160.48) rotate(111.61)"/>
        </g>
        <g>
          <rect class="cls-9" x="605.8" y="380.15" width="8.48" height="23.57" transform="translate(187.24 -197.14) rotate(21.61)"/>
          <rect class="cls-9" x="605.8" y="380.15" width="8.48" height="23.57" transform="translate(1199.11 -30.87) rotate(111.61)"/>
        </g>
        <g>
          <rect class="cls-9" x="175.73" y="131.79" width="8.48" height="23.57" transform="translate(-20.17 29.79) rotate(-8.96)"/>
          <rect class="cls-9" x="175.73" y="131.79" width="8.48" height="23.57" transform="translate(293.75 -56.57) rotate(81.04)"/>
        </g>
        <g>
          <rect class="cls-9" x="32.07" y="417.12" width="8.48" height="23.57" transform="translate(-66.38 10.9) rotate(-8.96)"/>
          <rect class="cls-9" x="32.07" y="417.12" width="8.48" height="23.57" transform="translate(454.33 326.21) rotate(81.04)"/>
        </g>
        <path class="cls-15" d="M386.96,57.65c-.55,0-1.06-.33-1.27-.88l-2.67-7.02-7.02,2.67c-.34.13-.71.12-1.04-.03-.33-.15-.58-.42-.71-.76l-3.55-9.33c-.27-.7.08-1.49.79-1.75l7.02-2.67-2.67-7.02c-.13-.34-.12-.71.03-1.04s.42-.59.76-.71l9.33-3.55c.7-.27,1.48.08,1.75.79l2.67,7.02,7.02-2.67c.7-.27,1.48.08,1.75.79l3.55,9.33c.13.34.12.71-.03,1.04-.15.33-.42.59-.76.71l-7.02,2.67,2.67,7.02c.27.7-.08,1.49-.79,1.75l-9.33,3.55c-.16.06-.32.09-.48.09ZM383.8,46.64c.55,0,1.06.33,1.27.88l2.67,7.02,6.79-2.59-2.67-7.02c-.27-.7.08-1.49.79-1.75l7.02-2.67-2.59-6.79-7.02,2.67c-.7.26-1.48-.09-1.75-.79l-2.67-7.02-6.79,2.59,2.67,7.02c.27.7-.08,1.49-.79,1.75l-7.02,2.67,2.59,6.79,7.02-2.67c.16-.06.32-.09.48-.09Z"/>
        <path class="cls-15" d="M37.87,46.21c-.23.06-.47.07-.71,0l-9.63-2.61c-.72-.2-1.15-.94-.96-1.66l1.96-7.25-7.25-1.96c-.72-.2-1.15-.94-.96-1.67l2.61-9.64c.09-.35.32-.64.63-.82.31-.18.68-.23,1.03-.13l7.25,1.96,1.96-7.25c.2-.72.94-1.15,1.66-.96l9.64,2.61c.35.09.64.32.82.63.18.31.23.68.13,1.03l-1.96,7.25,7.25,1.96c.72.2,1.15.94.96,1.66l-2.61,9.64c-.09.35-.32.64-.63.82-.31.18-.68.23-1.03.13l-7.25-1.96-1.96,7.25c-.13.48-.5.83-.95.95ZM29.54,41.34l7.01,1.9,1.96-7.25c.2-.72.94-1.15,1.67-.96l7.25,1.96,1.9-7.01-7.25-1.96c-.72-.2-1.15-.94-.96-1.66l1.96-7.25-7.01-1.9-1.96,7.25c-.09.35-.32.64-.63.82-.31.18-.68.23-1.03.13l-7.25-1.96-1.9,7.01,7.25,1.96c.72.2,1.15.94.96,1.67l-1.96,7.25Z"/>
        <path class="cls-15" d="M213.81,30.62s-15.29,2.72-19.55,11.68c-4.25,8.96,5.04,18.41,14.3,15.53,9.26-2.88,6.99-14.61,6.74-16.23-.39-2.52-1.74-9.35-1.49-10.98Z"/>
        <path class="cls-15" d="M586.26,92.48c-3.61,0-7.16-1.59-9.66-4.47-3.15-3.64-3.84-8.33-1.83-12.55,4.35-9.17,19.4-11.94,20.04-12.05l.93-.17-.14.94c-.18,1.15.62,5.72,1.1,8.45.16.93.3,1.74.39,2.32l.03.21c1.45,8.92-1.12,14.87-7.24,16.77-1.19.37-2.41.55-3.63.55ZM594.23,64.92c-3.19.71-14.73,3.76-18.23,11.13-1.77,3.72-1.16,7.86,1.63,11.08,2.99,3.44,7.64,4.82,11.85,3.51,7.28-2.26,7.07-10.53,6.3-15.26l-.03-.22c-.09-.58-.23-1.38-.39-2.3-.58-3.34-1.07-6.28-1.14-7.95Z"/>
        <path class="cls-15" d="M431.03,137.48s15.29,2.72,19.55,11.68c4.25,8.96-5.04,18.41-14.3,15.53-9.26-2.88-6.99-14.61-6.74-16.23.39-2.52,1.74-9.35,1.49-10.98Z"/>
        <path class="cls-15" d="M198.84,310.14c-1.21,0-2.43-.18-3.62-.55-6.13-1.9-8.7-7.86-7.24-16.78l.03-.2c.09-.58.23-1.4.4-2.33.48-2.73,1.27-7.3,1.1-8.44l-.14-.94.93.17c.64.11,15.69,2.88,20.04,12.05,2.01,4.22,1.32,8.92-1.83,12.55-2.5,2.88-6.05,4.47-9.66,4.47ZM190.88,282.57c-.06,1.66-.55,4.6-1.13,7.94-.16.92-.3,1.73-.39,2.31l-.03.21c-.77,4.73-.98,13,6.3,15.26,4.21,1.31,8.87-.07,11.85-3.51,2.79-3.22,3.4-7.36,1.63-11.08-3.5-7.37-15.04-10.42-18.23-11.13Z"/>
        <g class="cls-37">
          <g>
            <ellipse class="cls-25" cx="268.42" cy="491.68" rx="77.81" ry="18.04"/>
            <ellipse class="cls-25" cx="127.18" cy="516.13" rx="72.34" ry="21.44"/>
            <ellipse class="cls-25" cx="441.63" cy="512.65" rx="175.24" ry="40.64"/>
          </g>
        </g>
        <g>
          <g>
            <path class="cls-7" d="M226.28,196.64c2.51-3,1.97-7.45,1.01-11.24-.95-3.8-2.16-7.91-.58-11.49,2.08,1.58,3.76,3.69,4.82,6.08,1.02-5.12,2.57-10.13,4.61-14.94.31-.73.65-1.48,1.29-1.95.63-.47,1.65-.52,2.13.1.4.51.3,1.24.19,1.88-.47,2.55-.94,5.1-1.41,7.64,1.8-3.13,4.01-6.57,7.55-7.29-.46,3.13-1.42,6.18-2.85,9,1.89-2.49,4.2-4.67,6.8-6.41.35-.23.77-.46,1.16-.32.66.24.55,1.21.31,1.87-1.08,2.97-2.29,5.9-3.62,8.77.89-1.43,2.41-2.45,4.08-2.71.3-.05.64-.06.87.14.24.21.25.57.24.88-.14,2.91-1.63,5.57-3.19,8.04-4.32,6.81-9.53,13.06-15.45,18.53-.72.66-1.55,1.36-2.53,1.33"/>
            <path class="cls-26" d="M138.49,148.21c9.34,5.09,16.98,17.83,25.47,37.36,8.49,19.53,16.56,34.39,16.56,34.39l46.7-30.57,8.91,12.31s-19.15,61.36-65.38,51.37c-46.23-10-58.16-48.82-58.16-48.82l24.2-55.19"/>
            <path class="cls-1" d="M101.43,146.19c1.69.87,3.23,2.16,4.98,2.83,2.95,1.12,6.14,1.61,9.21,1.61,2.46-.02,5.33-.12,7.3-2.26,0-2.68.02-5.33.04-8.01v-.47c.02-3.05.02-6.14.04-9.19v-.39c.02-3.01.02-6.04.04-9.05,0-.69-.02-1.42-.33-1.91-.33-.51-.85-.57-1.32-.61-6.89-.61-13.8-.41-20.66.59-.12,8.97.14,17.95.71,26.86Z"/>
            <path class="cls-17" d="M107.41,126.26c3.15,12.02,10.8,13.3,13.64,13.87.65.12,1.3.22,1.91.24v-.47c.02-3.05.02-6.14.04-9.19-8.09-.73-13.48-3.23-15.11-4.15-.24-.14-.49-.37-.47-.3Z"/>
            <path class="cls-28" d="M131.45,70.63c4.24,1.14,12.46-1.77,18.62,6.59.61.88.92,1.94,1.21,2.97.64,2.27,1.27,4.61,1.06,6.97-.21,2.49-1.36,4.84-2.91,6.8-1.55,1.96-3.49,3.57-5.5,5.07-2.4,1.8-4.91,3.46-7.41,5.11-.36.24-.73.48-1.15.6-1.44.42-2.88-.76-3.62-2.06-1.34-2.35-1.38-5.19-1.44-7.89-.13-5.73-.5-11.45-1.12-17.14"/>
            <path class="cls-7" d="M112.97,371.87c-5.53,4.15-6.01,12.17-5.76,19.08.89,24.6,4.68,48.95,9.19,73.16.75,4.06,1.52,8.12,2.31,12.17.8,4.16,1.61,8.31,2.43,12.46.34,1.68.69,3.41,1.29,5.01,3.76.5,7.52,1.05,11.3,1.38.8.07,1.6.1,2.4.16.89-5.53,1.8-11.07,2.68-16.6.72-4.38,1.32-8.76,2.12-13.11,2.83-15.38,8.33-78.77,10-90.05,1.67-11.29,2.07-30.04-18.93-42.17-21-12.13-18.38,36.62-18.38,36.62"/>
            <path class="cls-1" d="M83.58,393.02c-5.53,4.15-6.01,12.17-5.76,19.08.89,24.6,4.68,48.95,9.19,73.16.75,4.06,1.52,8.12,2.31,12.17.8,4.16,1.61,8.31,2.43,12.46.34,1.68.69,3.41,1.29,5.01,3.76.5,7.52,1.05,11.3,1.38.8.07,1.6.1,2.4.16.89-5.53,1.8-11.07,2.68-16.6.72-4.38,1.32-8.76,2.12-13.11,2.83-15.38,8.33-78.77,10-90.05,1.67-11.29,2.07-30.04-18.93-42.17-21-12.14-18.38,36.62-18.38,36.62"/>
            <g>
              <path class="cls-1" d="M127.07,521.22c-.7.09-20.66-6.42-20.66-6.42l-13.7-1.54-1.04,6.44,8.38,8.25,22.39-.74,5.41-4.92"/>
              <path class="cls-28" d="M114.1,522.43c4.31.59,11.95,2,12.98-1.21,3.86,1.49,7.69,2.95,10.77,4.08.57.21,1.14.42,1.71.64,1.52,1.56,2.11,3.42.95,5.66-.2.39-.46.73-.75,1.06-13.93-.06-27.85-.85-41.69-2.38-1.21-.13-2.5-.31-3.45-1.08-.79-.65-1.21-1.62-1.61-2.56-.38-.89-.86-3.67-1.33-6.94,7.26,1.83,15.45,1.78,22.43,2.73Z"/>
            </g>
            <g>
              <path class="cls-7" d="M156.27,500.4c-.7.09-20.66-6.42-20.66-6.42l-13.7-1.54-1.04,6.44,8.38,8.25,22.39-.74,5.41-4.92"/>
              <path class="cls-28" d="M143.29,501.6c4.31.59,11.95,2,12.98-1.21,3.86,1.49,7.69,2.95,10.77,4.08.57.21,1.14.42,1.71.64,1.52,1.56,2.11,3.43.95,5.66-.2.39-.46.73-.75,1.06-13.93-.06-27.85-.85-41.69-2.38-1.21-.13-2.5-.31-3.45-1.08-.79-.65-1.21-1.62-1.61-2.56-.38-.89-.86-3.67-1.33-6.94,7.26,1.83,15.45,1.78,22.43,2.73Z"/>
            </g>
            <path class="cls-1" d="M144.73,124.08c-1.92,4.97-7.77,7.37-13.12,7.44-5.33.08-10.58-1.31-15.86-2.17-8.81-1.44-19.65-5.34-22.37-7.25-4.02-2.82-6.18-7.74-6.93-12.59-.75-4.87-.2-9.82.5-14.69.65-4.63,1.48-9.38,4.07-13.26,5.89-8.81,18.32-9.94,28.86-8.94,1.34.13,2.71.31,4.09.53,8.18,1.33,16.46,4.6,19.35,12.09.46,1.19.75,2.4.91,3.63.84,6.18-1.45,12.84-.78,19.2.58,5.4,3.26,10.96,1.28,16.02Z"/>
            <g>
              <path class="cls-28" d="M139.06,110.96c3.85.66,4.87-5.32,1.02-5.98-3.85-.66-4.88,5.32-1.02,5.98h0Z"/>
              <path class="cls-5" d="M140.49,108.45c1.54.26,1.95-2.13.41-2.39-1.54-.26-1.95,2.13-.41,2.39h0Z"/>
            </g>
            <path class="cls-17" d="M129.45,117.15c.28.08.54.06.82.02.13-.02.26-.04.39-.05.04,0,.09-.01.13-.02.03,0,.29-.04.14-.02.52-.07,1.05-.2,1.56-.31.48-.11.95-.25,1.42-.37.44-.12.9-.22,1.33-.36.41-.13.8-.31,1.11-.62.39-.39.61-.96.56-1.51s-.27-1.01-.5-1.49c-.05-.1-.09-.19-.13-.29,0-.02-.08-.18-.02-.04s0-.02-.02-.04c-.08-.2-.16-.4-.23-.61-.31-.89-.52-1.82-.65-2.76l.03.25c-.17-1.26-.16-2.53,0-3.78l-.04.27c.04-.25.08-.49.13-.74.07-.32.09-.65.13-.97.02-.24-.13-.57-.3-.73s-.36-.25-.59-.28c-.5-.07-.99.24-1.13.74-.18.65-.21,1.31-.25,1.97-.03.59-.03,1.17,0,1.76.07,1.21.24,2.43.57,3.6.15.54.33,1.06.55,1.58.13.31.26.62.41.92.06.11.12.23.17.34.03.07.06.14.1.21-.01-.02-.07-.19-.02-.04.01.04.03.07.04.11.02.06.02.16.05.22,0,0,0-.18-.01-.09,0,.04,0,.08,0,.11,0,.03,0,.06,0,.09-.02-.13.02-.14,0-.05,0,0-.03.08-.03.09,0-.04.09-.19.02-.06-.01.02-.02.04-.03.06-.06.11.04-.06.05-.07-.04.03-.08.09-.12.12-.09.09.17-.11.02-.01-.05.03-.1.06-.15.09-.03.02-.22.1-.07.04.14-.06-.02,0-.06.02-.12.04-.24.08-.36.11-.31.09-.63.18-.94.28-.72.21-1.44.42-2.15.67-.38.13-.76.27-1.14.44-.35.15-.72.28-.99.57-.2.21-.12.58.17.66h0Z"/>
            <path class="cls-5" d="M124.07,118.37c1.95.47,10.4,2,10.4,2,0,0-.78,6.22-6.71,5.76-5.92-.46-3.7-7.76-3.7-7.76Z"/>
            <g>
              <path class="cls-28" d="M123.17,110.25c4.5.77,5.7-6.22,1.19-6.99-4.5-.77-5.7,6.22-1.19,6.99h0Z"/>
              <path class="cls-5" d="M124.84,107.31c1.8.31,2.28-2.49.48-2.79-1.8-.31-2.28,2.49-.48,2.79h0Z"/>
            </g>
            <path class="cls-28" d="M124.22,98.01c.16,0,.16-.25,0-.25s-.16.25,0,.25h0Z"/>
            <path class="cls-33" d="M103.73,105.37c.04-.46,0-.91-.11-1.36l.09.69v-.07c-.03.24-.06.47-.09.71,0-.01.01-.03.02-.05.08-.52.17-.99,0-1.52-.2-.63-.56-1.15-1.08-1.55-.84-.65-1.9-.78-2.92-.54-1.36.32-2.21,1.55-2.52,2.84-.28,1.21-.51,2.49-.43,3.74.04.71.13,1.47.36,2.15.28.83.69,1.78,1.34,2.41.92.89,2.27,1.15,3.45.65,1.01-.43,1.58-1.22,1.95-2.22.2-.53.35-1.06.44-1.62.14-.85.25-1.71.19-2.57-.04-.58-.12-1.16-.22-1.73-.14-.78-.51-1.59-1.14-2.09-.39-.39-.85-.66-1.38-.81-.56-.15-1.11-.15-1.67,0-1.02.28-1.94,1.14-2.19,2.19-.08.35-.17.65-.16,1.04,0,.29.04.7.12.98.06.19.14.38.19.57.11.37.19.74.24,1.12l-.11-.84c.09.69.1,1.38,0,2.07l.11-.81c-.04.31-.09.64-.2.94l.3-.71c-.02.05-.05.1-.09.15l.47-.6-.06.06.6-.47-.06.04.71-.3-.07.02h1.58-.07c.24.09.47.19.71.29l-.06-.03.6.47-.05-.05.47.6c-.19-.25-.34-.53-.47-.81l.3.71c-.17-.42-.28-.85-.34-1.29l.11.78c-.09-.73-.06-1.45.04-2.18l-.1.78c.07-.52.13-1.11.33-1.6l-.29.69c.02-.05.05-.1.09-.14l-.45.59.06-.06-.59.45s.09-.07.15-.09l-.69.29.08-.02-.77.1c.06-.01.12-.01.17,0l-.77-.1c.06,0,.12.02.18.04.44.08.8.1,1.23.04.51-.07.94-.24,1.35-.56.16-.12.21-.16.32-.25l-1.89.78h.07c-.23-.04-.46-.07-.69-.1.05.01.1.03.15.05l-.6-.25c.15.07.29.16.43.26.63.44,1.59.37,2.23,0,.72-.42,1.02-1.11,1.09-1.91h0Z"/>
            <path class="cls-31" d="M98.36,142.39c-11.69.98-28.64,6.26-37.07,14.36,8.2,2.51,19.28,4.11,23.35,11.96,2.56,4.94,3.93,10.39,4.63,15.88.44,3.42.96,7.07.71,10.51-.12,1.65-.41,3.29-.73,4.92,3.03-.47,5.86-1.62,7.72-3.98l1.38-53.65Z"/>
            <path class="cls-31" d="M153.35,163.38c-1.81-3.74-4.17-7.17-7.24-10.09-6.11-5.8-14.24-8.86-22.17-11.69l10.67,57.02c3.8.68,7.69.87,11.54.59.63-11.49,1.74-25.11,7.2-35.82Z"/>
            <path class="cls-28" d="M106.68,68.99c9.42.19,18.99-1.01,28.16,1.16,1.38.33,2.77.77,3.89,1.64,2.2,1.71,2.95,4.75,2.81,7.53-.18,3.58-1.59,7.03-3.66,9.96-2.07,2.93-4.78,5.35-7.71,7.41-2.22,1.56-4.62,2.95-7.28,3.49-1.47.3-3.12.28-4.32-.62,1.24-1.53,2.48-3.07,3.72-4.6-4.74,3.58-10.71,5.3-16.64,5.53-5.93.23-11.85-.95-17.51-2.72-1.23-.39-2.53-.86-3.27-1.91-.42-.59-.61-1.31-.77-2.02l-3.87-2.44s3.7-15.19,5.21-16.97c1.51-1.78,4.69-5.78,21.25-5.44Z"/>
            <polygon class="cls-30" points="104 276.16 113.5 470.68 149.43 470.07 150.38 404.35 150.85 372.06 152.29 272.06 104 276.16"/>
            <path class="cls-13" d="M122.88,381.78s6.16,13.88,12.43,21.37c3.7,4.41,10.06,3.22,15.08,1.2l.47-32.29-19.05-81.65-8.93,91.37Z"/>
            <path class="cls-14" d="M61.84,353.68c.15,2.92.37,6.03.63,9.32,1.04,13.2,2.85,29.06,4.89,44.78,4.7,36.47,10.55,72.14,10.55,72.14,1.48.02,40.32,1.67,40.32,1.67,0,0,6.24-46.66,10.84-96.38,2.55-27.67,4.61-56.31,4.81-78.35.09-9.78-.18-18.25-.96-24.8-5.59-47.82-58.71,9.34-58.71,9.34,0,0-14.62,20.42-12.37,62.28Z"/>
            <path class="cls-30" d="M133.89,306.86c-4.52-21.23-14.46-24.81-26.6-21.29l-44.81,77.44c1.04,13.2,2.85,29.06,4.89,44.78,18.52.1,47.08-.09,53.63-1.93,3.18-.89,5.87-9.43,8.08-20.65,2.26-19.98,3.64-48.17,4.81-78.35Z"/>
            <path class="cls-31" d="M45.82,394.49c.87,1.06,2.34,1.34,3.67,1.56,22.54,3.53,46.13,5.88,67.75-1.41.79-.28,1.62-.58,2.19-1.22.58-.68.74-1.62.87-2.5,3.62-24.19,2.23-49.17,6.57-73.09.83-4.55,1.85-9.06,3.16-13.53.91,4.68,1.57,9.4,2.1,14.15,2.84,25.2,1.67,51.14,9.89,75.08,6.69-1.28,13.21-3.44,19.36-6.36,8.11-52.65,10.74-107.76-6.75-158.06-1.82-5.25-3.88-10.5-4.51-16.02-.65-5.66.21-11.39.15-17.08-.16-13.5-5.77-26.85-15.27-36.41l-1.83-8.06c-18.96-5.42-37.02-8.67-49.39,1.76-7.2,9.29-9.5,21.47-10.05,33.23-.55,11.74.39,23.59-1.32,35.21-1.69,11.39-5.87,22.2-9.01,33.29-.5,1.78-.97,3.59-1.41,5.39-1.46,6.04-2.45,12.16-3.26,18.33-.43,3.02-.79,6.07-1.16,9.09-4.12,34.12-8.26,68.24-12.38,102.33-.18,1.51-.31,3.18.64,4.34Z"/>
            <path class="cls-16" d="M116.7,158.7s9.96,18.28,11.72,30.78c1.76,12.49-1.06,23.6.09,33.46,1.15,9.86.55,82.1.55,82.1"/>
            <path class="cls-8" d="M58.72,278.72c8.41,3.09,16.82,6.17,25.25,9.26,1.29.47,2.62.97,3.57,1.97,1.24,1.3,1.58,3.22,2.28,4.88,1.91,4.68,6.56,7.51,10.99,9.97,7.25,4.02,14.63,7.81,22.11,11.38,1.27.59,2.6,1.19,3.95,1.64.83-4.55,1.85-9.06,3.16-13.53.91,4.68,1.57,9.4,2.1,14.15.41-.07.83-.18,1.25-.31,2.43-.83,4.24-2.86,5.85-4.88,8.19-10.37,14.02-22.61,16.94-35.52.49-2.26.89-4.71-.14-6.77-1.92-3.77-7.49-4.16-9.87-7.67l-24.35-6.61c-5.45,3.57-10.75,7.4-15.86,11.46-.84.67-1.72,1.37-2.78,1.57-1.26.25-2.55-.26-3.77-.77-11.86-4.96-23.87-9.62-36-13.93-.5,1.78-.97,3.59-1.41,5.39-1.46,6.04-2.45,12.16-3.26,18.33Z"/>
            <path class="cls-35" d="M135.08,248.78c-5.5-4.38-11.6-8.01-18.08-10.75-.49-.21-1.03-.41-1.54-.27-.6.16-.97.74-1.28,1.27-8.1,13.7-15.45,27.84-22.01,42.34-.52,1.14-1.04,2.45-.56,3.61.34.82,1.11,1.37,1.84,1.87,9.26,6.31,19.07,11.82,29.28,16.43,2.01.91,4.13,1.8,6.34,1.75,3.17-.07,6.03-2.12,7.92-4.68,1.89-2.55,2.98-5.59,4.14-8.54,3.25-8.25,7.21-16.22,11.84-23.79.91-1.49,1.88-3.07,1.86-4.82-.05-3.16-3.19-5.26-5.96-6.78-8.12-4.46-16.23-8.91-24.35-13.37"/>
            <path class="cls-1" d="M138.89,262.31c1.28-.91,2.92-1.86,4.33-1.17,1.96.96,1.41,4.01-.04,5.65-1.45,1.64-3.54,2.88-4.14,4.98,3.77.16,7.54.31,11.3.47.76.03,1.54.07,2.2.44,1.42.8,1.65,2.91.81,4.31-.84,1.4-2.41,2.19-3.97,2.65,1.47-.15,2.7,1.45,2.53,2.92-.17,1.47-1.39,2.64-2.76,3.19-1.37.55-2.88.59-4.36.63,1.72.17,2.56,2.47,1.81,4.02-.75,1.56-2.48,2.39-4.17,2.76-.55.12-1.1.18-1.66.24.37.66,1,2.39-2.07,3.02-3.83.8-22.71-10.22-25.03-11.25-.75-.33-.87-.93-.7-1.58-.25-.11-.49-.22-.74-.34-.29-.13-.6-.28-.76-.56-.15-.27-.13-.59-.1-.89.46-5.42,1.35-10.8,2.66-16.08l14.15,4.18"/>
            <path class="cls-1" d="M121.6,147.05c0,.49-4.29,11.24-4.29,11.24l-6.19-12.08,11.14,1.01"/>
            <g>
              <path class="cls-8" d="M127.69,145.84c-1.32.63-10.39,12.95-10.38,12.45,0-.49,6.5-15.96,6.5-15.96l3.88,3.51Z"/>
              <polygon class="cls-8" points="110.18 143.57 117.31 158.29 105.94 151.54 110.18 143.57"/>
              <path class="cls-5" d="M116.47,159.26s.1-.24.23-.56c1.26-2.96,7.11-16.37,7.11-16.37l9.36,9.18-9.96-12.63"/>
              <polygon class="cls-5" points="111.52 141.63 116.7 158.7 109.82 145.04 104.05 156.59 89.05 141.74 96.54 135.47 111.52 141.63"/>
            </g>
            <path class="cls-21" d="M66.78,154.17c-16.24.13-28.69,67.09-30.43,92.65-1.74,25.56,81.99,40.1,81.99,40.1l4.26-18.95-39.02-20.34s35.7-93.87-16.79-93.45Z"/>
            <polygon class="cls-28" points="144.9 258.15 147.21 252.29 125.03 239.61 120.73 246.67 144.9 258.15"/>
            <path class="cls-28" d="M144.71,98.28c.1-.51.1-.92-.1-1.39-.06-.14-.1-.26-.18-.38-.17-.28-.36-.48-.6-.68-.34-.28-.69-.55-1.05-.79s-.78-.44-1.22-.56c-.13-.04-.25-.07-.38-.1-.24-.05-.49-.09-.73-.1-.46-.02-.82.16-1.22.35l.52-.22h-.05c.19-.01.38-.04.57-.06-.13,0-.25.02-.38.03-.21.02-.49.03-.66.09-.36.12-.61.29-.9.53l-.3.39c-.14.22-.22.46-.23.72-.06.43,0,.85.23,1.23.21.35.51.63.87.82.1.05.2.11.3.17l-.43-.33.04.04-.34-.44c.25.37.47.66.86.89.22.13.48.2.72.31l-.54-.23c.27.12.53.25.8.37s.55.2.82.32l-.54-.23c.26.11.52.24.76.38s.52.27.8.34c.42.09.74.11,1.15-.01.64-.19,1.3-.74,1.43-1.43h0Z"/>
            <path class="cls-28" d="M128.29,95.26c-.14-.18-.33-.27-.51-.4.09.07.06.05-.09-.07-.13-.12-.28-.2-.46-.24-.43-.15-.91-.22-1.36-.25-.87-.07-1.69-.07-2.55.08-.74.12-1.48.26-2.19.51-.44.15-.87.31-1.3.5-.48.21-.82.41-1.14.85l.45-.45c-.19.1-.38.2-.57.31-.91.55-.54,2.03.55,2.03.22,0,.43-.01.65-.02l-.63-.17c.78.36,1.59.18,2.42.13.75-.04,1.48-.14,2.23-.2.83-.07,1.61-.26,2.42-.4.35-.06.69-.17,1.02-.29.37-.14.8-.4,1.06-.73.3-.38.31-.78,0-1.17h0Z"/>
            <path class="cls-35" d="M96.33,184.45l16.2-.74s-2.05-6.7-2.61-6.7-16.38.93-16.38.93l3.35,7.26"/>
            <path class="cls-8" d="M104.52,260.93c-.53.02-.95.26-1.24.7-.09.13-.16.27-.24.41-.16.28-.27.59-.41.87-.32.66-.58,1.36-.85,2.04-.47,1.18-.89,2.36-1.29,3.57-.19.59-.38,1.19-.57,1.79s-.38,1.19-.5,1.81c-.05.29-.11.59-.16.88-.04.23-.08.46-.1.7-.01.12.01.41-.05.51l.02-.13c-.01.06-.03.12-.04.17-.01.06-.03.12-.04.17-.03.15-.07.29-.1.44-.07.32-.15.64-.22.96-.05.23-.09.46-.12.7v.09c-.02.11-.02.11-.02,0-.03.08-.05.17-.07.26-.1.34-.2.69-.29,1.03s-.22.68-.34,1.02-.31.67-.36,1.01c-.06.37-.04.82.29,1.09.16.13.29.25.49.3s.39.02.59-.02c.39-.07.66-.43.78-.78.04-.11.1-.61.05-.26,0-.07.02-.15.03-.22.02-.16.05-.33.07-.49.05-.32.1-.65.18-.97.07-.29.15-.58.23-.86.04-.14.08-.29.12-.43,0,.01.06-.27.03-.14-.03.06-.02.04.02-.05.02-.05.05-.11.07-.16.28-.62.48-1.28.71-1.92.03-.08.05-.18.09-.25-.12.22-.03.07,0,.03.09-.13.16-.28.23-.42.16-.28.28-.58.42-.87.58-1.23,1.01-2.53,1.5-3.8.46-1.2.93-2.39,1.4-3.59.25-.66.56-1.32.75-2,.12-.43.24-.86.28-1.31.02-.22.04-.43,0-.65-.09-.65-.67-1.25-1.36-1.22h0Z"/>
            <path class="cls-35" d="M111.78,274.67c.53.02,1.02-.09,1.47-.33.47-.15.88-.42,1.23-.79.37-.35.64-.76.79-1.23.24-.46.35-.95.33-1.47l-.14-1.02c-.18-.65-.51-1.21-.98-1.69l-.77-.6c-.6-.35-1.24-.52-1.93-.52-.53-.02-1.02.09-1.47.33-.47.15-.88.42-1.23.79-.37.35-.64.76-.79,1.23-.24.46-.35.95-.33,1.47l.14,1.02c.18.65.51,1.21.98,1.69l.77.6c.6.35,1.24.52,1.93.52h0Z"/>
            <path class="cls-28" d="M80.22,91.4c-2.18,6.4-7.59,19.46,2.12,26.78,9.71,7.32,18.47,7.64,18.47,7.64l.96-8.28s-7.96-3.34-7.8-9.07c.16-5.73.8-10.35,6.21-9.71,5.41.64,5.09,10.51,7.64,10.98,2.55.48,1.91-8.12,1.91-8.12,0,0,9.07-1.27,11.78-4.62,2.71-3.34-9.87-13.69-9.87-13.69l-9.71-2.07-21.7,10.15Z"/>
            <path class="cls-28" d="M99.73,66.15s3.61-9.47-8.4-10.19c-12.01-.72-31,16.85-22.01,24.86,8.99,8.01,19.14-.9,23.97-5.68,4.83-4.78,6.44-8.99,6.44-8.99Z"/>
          </g>
          <g>
            <path class="cls-35" d="M503.97,517.46c-59.84,4.83-89.67-10.48-89.46-16.63.09-2.44,1.48-4.64,2.96-6.59,11.11-14.71,29.14-23.05,47.39-25.64,18.25-2.59,36.84.04,54.86,3.88,10.58,2.25,21.07,4.92,31.44,8,18.99,7.5,12.65,32.14-47.19,36.98Z"/>
            <path class="cls-2" d="M419.14,492.17c1.44,1.72,3.16,3.33,5.13,4.77,8.88,6.47,19.93,9.86,30.42,12.67,16.32,4.38,32.87,4.02,49.45,1.26,7.84-1.3,15.5-3.4,23.29-4.93,6.26-1.23,12.64-2.42,18.5-5.06,4.42-1.99,9.53-5.35,10.35-10.52.41-2.6-.14-5.5-1.42-7.98,14.07,9.08,4.6,30.6-50.9,35.08-59.84,4.83-89.67-10.48-89.46-16.63.09-2.44,1.48-4.64,2.96-6.59.54-.71,1.1-1.39,1.67-2.07Z"/>
            <path class="cls-2" d="M452.83,491.09c1.24.66,2.5,1.29,3.88,1.75,2.97.96,6.08,1.55,9.17,1.92,5.85.72,11.76.72,17.64.76,12,.1,23.21,1.04,34.48-2.17-3.13-24.42-6.72-48.98-6.47-73.55.02-2,.05-4.02.1-6.02.27-12.42.92-24.82.91-37.25,0-4.76-.12-9.49-.34-14.22v-.2h-54.69c-.03.84-.05,1.7-.07,2.54-.57,18.42-.35,36.85-.45,55.28-.02,5.41-.07,10.8-.17,16.2-.35,18.18-1.19,36.78-4,54.96Z"/>
            <path class="cls-36" d="M457,419.93c4.22.47,8.5.54,12.74.5,11.43-.1,22.95-.79,33.94-3.9,2.69-.77,5.36-1.68,7.96-2.76.27-12.42.92-24.82.91-37.25,0-4.76-.12-9.49-.34-14.22-.17-.08-.35-.15-.54-.2-11.59-4.15-24.28-5.24-36.36-2.91-3.7.71-7.31,1.71-10.87,2.91-1.87.62-3.73,1.28-5.56,1.98-.47.18-.96.37-1.43.55-.57,18.42-.35,36.85-.45,55.28Z"/>
            <path class="cls-14" d="M330.39,368.59c4.38,4.54,11.9,6.72,18.77,8.99,25.07,8.27,50.15,16.53,75.22,24.8,5.63,1.85,11.42,3.74,17.56,3.95,4.54.16,9.04-.61,13.47-1.4,23.96-4.25,47.72-9.13,71.22-14.63,7.46-1.75,14.94-3.57,21.82-6.33,17.82-7.16,30.33-20.19,37.84-34.17,6.98-13.01,29.09-95.64,33.27-123.52,1.44-9.59,2.09-20.38-6.41-27.67-6.02-5.16-15.35-7.34-24.23-9.11-25.61-5.08-51.78-8.62-78.16-10.56-6.29-.46-12.86-.81-18.72.94-6.86,2.05-11.72,6.65-15.51,11.37-12.34,15.34-16.78,33.36-21,50.95-4.11,17.11-8.22,34.22-12.33,51.33l-15.38,42.12s-64.12,15.88-86.35,20.33c-22.23,4.45-12.82,10.8-11.08,12.6Z"/>
            <path class="cls-30" d="M459.7,386.67c13.46-3.9,27.09-7.23,40.94-9.44,12.16-1.94,24.81-1.88,36.66-5.45,9.54-2.88,18.35-8.06,24.77-15.77,7.31-8.79,10.29-18.78,11.3-30.01.56-6.24.66-12.53,1.57-18.73,1.06-7.21,2.3-14.4,3.56-21.57,2.48-14.15,5.45-28.23,9.81-41.93,4.71-14.81,11.13-36.76,27.28-42.66,5.9,7.13,5.26,16.63,3.98,25.17-4.18,27.88-26.29,110.52-33.27,123.52-7.51,13.98-20.02,27.01-37.84,34.17-6.88,2.76-14.36,4.59-21.82,6.33-23.5,5.5-47.26,10.38-71.22,14.63-4.42.78-8.92,1.55-13.47,1.4-5.73-.2-11.15-1.85-16.42-3.58,8.97-9.58,21.84-12.5,34.18-16.08Z"/>
            <path class="cls-30" d="M334,357.92c13.88,1.32,28.02,4.74,41.22,9.17,12.35,4.15,24.1,9.89,35.43,16.28,6.37,3.59,12.38,8.24,18.92,11.64-2.65,1.97-5.06,4.22-7.21,6.7-24.4-8.04-48.8-16.09-73.2-24.13-6.87-2.27-14.39-4.45-18.77-8.99-1.5-1.55-8.68-6.49,3.61-10.67Z"/>
            <path class="cls-19" d="M469.04,300.77c2.49.74,5.45,2.05,5.63,4.64.18,2.7-2.81,4.38-5.34,5.36-18.15,7.07-36.38,14.17-55.35,18.61-8.11,1.9-16.48,3.31-24.75,2.32-8.27-.99-16.51-4.66-21.52-11.32-1.08-1.43-2-3.47-.95-4.93.5-.7,1.33-1.06,2.12-1.39,22.37-9.33,46-15.64,70.04-18.72,6.2-.79,12.53-1.37,18.66-.18,6.13,1.19,12.12,4.39,15.43,9.69"/>
            <path class="cls-30" d="M381.14,321.6c5.96,2.15,11.72,3.36,18.06,2.5,6.65-.91,13.23-3.35,19.57-5.47,6.86-2.29,13.75-4.98,20.83-6.55,5.2-1.15,10.56-1.52,15.84-2.15,6.27-.75,13.08-1.48,19.17-3.73-.39,2.24-3.01,3.69-5.28,4.57-18.15,7.07-36.38,14.17-55.35,18.61-8.11,1.9-16.48,3.31-24.75,2.32-8.27-.99-16.51-4.66-21.52-11.32-.82-1.09-1.55-2.54-1.38-3.81,4.96,1.64,9.93,3.26,14.81,5.02Z"/>
            <path class="cls-1" d="M450.85,297.08c.99.86,2.25,1.34,3.5,1.78,6.84,2.37,14.1,3.51,21.34,3.36l37.89-96.59c-3.11-1.53-6.87-1.24-10.1,0-3.24,1.23-6.07,3.31-8.84,5.38-4.15,3.06-8.37,6.2-11.49,10.3-2.69,3.51-4.49,7.6-6.3,11.63-1.29,2.87-2.6,5.73-3.95,8.59-1.48,3.19-2.99,6.37-4.54,9.51-5.23,10.7-10.74,21.26-16.55,31.66-1.28,2.29-2.6,4.6-3.04,7.19-.45,2.57.1,5.49,2.08,7.19Z"/>
            <path class="cls-1" d="M364.98,317.85c4.19-6.18,10.71-10.45,17.62-13.27,6.91-2.82,14.27-4.33,21.53-6.01,9.93-2.3,19.78-4.97,29.52-7.99,2.73-.85,11.8-3.7,14.48-3.51,2.68.18,6.23-.48,10.66,4.08,2.8,2.88,3.13,6.44,1.99,9.68-1.2,1.05-2.45,2.02-3.82,2.85-3.31,2-7.08,3.1-10.81,4.11-13.91,3.76-28.09,6.51-42.39,8.2-6.3.75-13,1.44-18,5.34-4.05,3.16-7,8.4-12.09,9.15-.66-2.95.12-6.18,2.06-8.5-2.37,1.97-4.75,3.94-7.12,5.91-.88-3.13.16-6.72,2.57-8.89-2.34,1.12-4.68,2.25-7.02,3.37-.9-1.36-.1-3.17.81-4.52Z"/>
            <g>
              <path class="cls-1" d="M306.83,511.35c4.18,1.6,12.54,4.34,12.54,4.34,0,0,5.98-7.46,13.76-18.94,3.21-4.72,6.74-10.13,10.28-16,14.1-23.37,28.41-53.74,24.23-75.6l-19.59-22.89c-6.13,3.76-7.95,14.35-10.43,22.5-6.59,21.58-12.97,43.22-19.16,64.91-1.6,5.61-3.19,11.22-4.77,16.84-2.3,8.27-4.6,16.55-6.86,24.84Z"/>
              <path class="cls-1" d="M350.67,527.01c.77.2,1.55.44,2.32.64,3.68.94,7.41,1.66,11.12,2.44,1.09-1.31,2-2.82,2.87-4.3,2.15-3.65,4.28-7.29,6.42-10.96,2.08-3.56,4.15-7.14,6.2-10.72,12.27-21.36,23.89-43.08,32.87-66,2.52-6.44,4.72-14.17.87-19.91l-41.35-10.72c-5.34,29.96-10.69,59.94-16.03,89.91-.79,4.35-1.56,8.7-2.34,13.07-.99,5.51-1.97,11.04-2.96,16.55Z"/>
              <path class="cls-17" d="M373.4,514.83c-5.95.34-12.74-1.72-19.78-4.37.77-4.37,1.55-8.72,2.34-13.07,6.94,1.43,13.81,3.21,20.57,5.34,1.08.34,2.18.71,3.07,1.38l-6.2,10.72Z"/>
              <path class="cls-17" d="M313.68,486.52c4.89,4.28,10.93,8,19.44,10.23,3.21-4.72,6.74-10.13,10.28-16-.03-.08-.07-.18-.12-.27-.34-.72-.96-1.23-1.6-1.7-6.74-4.97-15.04-7.19-23.24-9.11-1.6,5.61-3.19,11.22-4.77,16.84Z"/>
              <path class="cls-11" d="M448.27,358.66c-20.29,6.61-40.81,12.5-61.51,17.67-8.21,2.05-16.49,3.99-24.92,4.73-3.85.34-8.06.33-11.16-1.98-5.77-4.3-4.23-13.19-2.1-20.06,1.36-4.38,2.82-8.93,6.01-12.23,2.87-2.96,6.82-4.58,10.65-6.11,33.34-13.36,65.77-35.6,101.69-35.33,7.77.06,16.86,36.03,16.86,36.03l-35.5,17.29"/>
              <path class="cls-11" d="M313.73,480.33c-7.65-10.26,20.41-71.48,31.25-107.03,3.16-10.36,5.47-23.81,13.26-28.6l24.9,29.09c6.68,34.89-37.17,113.32-44.13,116.81-6.96,3.49-17.64,0-25.29-10.27Z"/>
              <path class="cls-20" d="M539.97,323.87c-4.19,17.51-9.51,36.68-24.54,46.59-6.55,4.32-14.29,6.37-21.87,8.35-30.01,7.84-60.01,15.69-90.02,23.53-5.41,1.41-11.17,2.83-16.51,1.18-5.24-1.62-9.35-6.18-10.86-11.45-1.51-5.27-.54-11.11,2.2-15.86,3.21-5.58,8.55-9.57,13.9-13.15,31.41-20.99,67.81-33.01,103.71-44.79"/>
              <path class="cls-20" d="M425.91,415.97c-12.6,32.15-40.33,88.57-46.83,92.27-2.01,1.14-4.51,1.65-7.22,1.59-1.07,0-2.19-.11-3.31-.31-5.23-.87-10.75-3.53-14.63-7.33-6.79-6.7,22.12-122.3,22.12-122.3l38,8.6,5.09,1.16,7.84,1.77c4.74,7.1,2.03,16.6-1.07,24.55Z"/>
              <path class="cls-27" d="M519.55,337.34c-2.17,27.79-32.69,28.96-54.14,34.97-12.47,3.53-36.33,6.59-46.27,17.34-1.36,1.45-2.46,3.06-3.24,4.83-3.69,8.31-5.72,17.81-8.78,26.41-10.68,29.94-23.17,59.99-35.26,88.95-1.07,0-2.19-.11-3.31-.31,12.13-29.13,23.42-58.78,34.07-88.45,3.2-8.85,6.19-17.74,8.98-26.72.72-2.32,1.52-4.25,2.44-5.85,3.49-6.17,8.58-7.75,17.43-10.57,14.97-4.74,30.05-9.03,45.24-12.91,18.01-4.6,37.29-6.01,41.31-27.86.16-.87,1.59-.67,1.52.2Z"/>
            </g>
            <path class="cls-23" d="M518.35,202.96c-8.42.24-17.1.64-24.7,4.27-12.92,6.16-19.83,20.3-24.3,33.9-2.76,8.4-10.4,24.6-12.26,27.76-1.86,3.17-5.59,11.92-5.59,11.92l18.81,17.87s12.66-37.61,12.47-38.17c-.19-.56,11.17-28.86,11.17-28.86l24.39-28.69Z"/>
            <path class="cls-11" d="M456.34,301.1s-9.31-13.41-13.03-13.41h-3.72s-1.12-3.72,3.35-3.72,4.84,0,5.59-2.23c.74-2.23,3.35-4.84,3.35-4.84,0,0,8.56.74,13.78,11.54,5.21,10.8-9.31,12.66-9.31,12.66Z"/>
            <path class="cls-18" d="M275.13,504.57c.41-.06.81-.08,1.22-.11,3.12.19,6.26.59,9.34,1.01,6.67.9,13.34,1.79,20.02,2.69,1.91,1.76,4.47,3.17,6.16,4.06,2.95,1.55,6.12,2.78,9.39,3.53-1.66,4.38-3.32,8.77-4.99,13.15l-45.87-18.86c-1.08-3.11,1.59-4.98,4.73-5.47Z"/>
            <path class="cls-18" d="M315.62,539.25c-1.02-2.3-.32-4.13,1.29-5.59.58-.18,1.17-.36,1.75-.53,10.61-3.16,21.22-6.31,31.83-9.47,4.54,3.42,11.17,5.52,16.7,5.85-1.28,2.56-2.57,5.12-3.85,7.69-.46.91-.94,1.86-1.77,2.45-.99.72-2.29.81-3.51.87-13.91.69-27.86.62-41.76-.17-.27-.34-.51-.7-.69-1.1Z"/>
            <path class="cls-23" d="M563.45,220.31l-23.1,54.1-25.37,59.4-.03.1c-.08,0-.13.03-.18.03-6.44.94-13.04,1.22-19.56.94-1.63.59-3.46.71-5.2.76-10.6.38-21.93.61-30.9-5.04-1.4-.87-2.7-1.86-3.92-2.93-2.04-1.78-3.9-3.77-5.71-5.81-3.29-3.69-6.39-7.51-9.37-11.46,4.23-5.55,9.45-10.37,15.33-14.11,3.16-2.04,6.78-4.15,8.97-7.03.56-1.04,1.1-2.09,1.6-3.13.1-.33.18-.64.2-.94l.18.23c2.83-5.99,4.99-12.3,6.9-18.67.41-1.3.76-2.57,1.15-3.87,2.62-9.07,4.99-18.34,8.53-27.1,1.07-2.67,2.27-5.32,3.59-7.87,5.12-9.83,12.76-18.82,22.67-23.56.66-.1,1.35-.25,1.99-.36.97-.18,1.94-.31,2.88-.43,1.71-.25,3.39-.43,5.07-.61.25-.05.43-.15.56-.31,4.79.03,15.26.46,28.71,6.19.1.03.18.08.28.1,5.12,3.49,10.06,7.31,14.72,11.39Z"/>
            <path class="cls-18" d="M541.44,312.68c-4.27,7.91-14.77,15.22-26.45,21.14-.07.04-.16.07-.22.11-6.43.94-13.03,1.23-19.55.94-1.63.6-3.46.71-5.21.78-10.59.38-21.92.6-30.9-5.05-1.39-.87-2.68-1.85-3.91-2.93,4.94-3.64,10.5-6.46,16.38-8.22,6.01-1.81,12.98-2.97,16.49-8.18.89-1.3,1.7-2.95,3.24-3.26.85-.16,1.72.13,2.55-.07,2.55-.58,2.15-4.31,1.05-6.66-2.77-5.94-6.23-11.57-10.26-16.73,6.93,1.18,13.63,3.73,19.62,7.44,2.64,1.63,5.21,3.53,8.13,4.58,2.95,1.05,6.46,1.14,8.98-.67,1.7-1.23,2.75-3.13,3.73-4.98,4.13-7.91,7.84-16.04,11.1-24.35,0,0,1.99,3.02,4.13,7.84,4,9.07,8.51,24.55,1.09,38.27Z"/>
            <path class="cls-19" d="M568.22,325.9c3.19.95,6.99,2.62,7.21,5.94.23,3.46-3.6,5.61-6.84,6.87-23.26,9.06-46.62,18.16-70.92,23.84-10.39,2.43-21.12,4.24-31.71,2.97-10.6-1.27-21.16-5.97-27.58-14.5-1.38-1.84-2.56-4.44-1.22-6.31.64-.89,1.7-1.36,2.72-1.79,28.67-11.95,58.94-20.04,89.74-23.99,7.94-1.02,16.05-1.76,23.91-.23,7.86,1.53,15.53,5.62,19.77,12.41"/>
            <path class="cls-30" d="M439.88,342.92c.25-.1.5-.2.75-.31.63.06,1.25.14,1.86.25,12.03,2.27,20.99,12.04,32.88,14.53,11.46,2.4,22.87-2.7,33.42-6.58,21.16-7.79,41.99-16.57,63.56-23.19,1.67.99,2.96,2.33,3.09,4.22.23,3.46-3.6,5.61-6.84,6.87-23.26,9.06-46.62,18.16-70.92,23.84-10.39,2.43-21.12,4.24-31.71,2.97-10.6-1.27-21.16-5.97-27.58-14.5-1.38-1.84-2.56-4.44-1.22-6.31.64-.89,1.7-1.36,2.72-1.79Z"/>
            <path class="cls-1" d="M498.69,183.54c1.06,5.23,6.42,8.57,11.68,9.54,5.24.97,10.65.49,16,.54,8.92.07,20.26-1.95,23.27-3.38,4.44-2.1,7.39-6.59,8.96-11.24,1.56-4.67,1.85-9.64,1.98-14.57.13-4.67.12-9.49-1.78-13.76-4.32-9.68-16.38-12.89-26.94-13.68-1.34-.1-2.72-.15-4.12-.17-8.28-.07-17.01,1.76-21.1,8.65-.66,1.09-1.14,2.23-1.51,3.43-1.86,5.95-.74,12.9-2.47,19.06-1.48,5.23-5.06,10.25-3.97,15.58Z"/>
            <g>
              <path class="cls-28" d="M506.24,171.52c-3.9,0-3.91-6.06,0-6.06s3.91,6.06,0,6.06h0Z"/>
              <path class="cls-5" d="M505.25,168.8c-1.56,0-1.56-2.43,0-2.43s1.56,2.43,0,2.43h0Z"/>
            </g>
            <path class="cls-17" d="M512.95,182.02c-.1-.13-.19-.26-.29-.37-.13-.14-.29-.24-.45-.35l.57.74c-.06-.22-.12-.32-.25-.48s-.17-.23-.38-.34c0,0-.02,0-.03-.01-.05-.02-.09-.05-.14-.07-.04-.02-.08-.04-.12-.06-.02-.01-.05-.02-.07-.04,0,0-.02,0-.03-.01,0,0-.02,0-.03-.01l-.35-.15c-.2-.06-.41-.12-.61-.17s-.41-.12-.61-.17-.41-.09-.62-.13c-.17-.03-.33-.07-.5-.06-.03,0-.06,0-.09,0-.06,0-.12,0-.18.01-.06,0-.11,0-.17.01-.03,0-.06,0-.09,0-.01,0-.02,0-.03,0-.07,0-.15.01-.22.03-.08,0-.15,0-.22.03-.25.07-.47.2-.66.39-.19.19-.31.41-.39.66-.07.27-.07.53,0,.8.07.25.2.47.39.66h.01c.1.09.2.17.31.25l.18.08c.07.03.13.06.2.08.02,0,.05.02.07.03.05.02.1.04.15.06.1.04.2.08.29.12.18.07.38.07.57.09.06,0,.11.01.17.02.1.01.21.03.31.04.21.02.42.02.63.02s.43.02.64.02c.23,0,.47-.05.7-.09.05,0,.11-.02.16-.03.03,0,.05,0,.08-.01l.31-.13.27-.21c.09-.08.16-.19.22-.29l-.74.57c.19-.05.37-.13.55-.22l-.26.11c.2-.08.34-.13.49-.29l-.21.16s.1-.07.15-.1c.1-.06.18-.13.25-.23.08-.09.13-.18.16-.3l.03-.23c0-.16-.04-.31-.12-.44h0Z"/>
            <path class="cls-6" d="M490.89,196c.08,0,.08-.13,0-.13s-.08.13,0,.13h0Z"/>
            <path class="cls-1" d="M434.87,356.78c2.57-1.5,5.16-2.97,7.73-4.47-2.57,2.71-3.44,6.89-2.17,10.4,2.54-2.47,5.09-4.92,7.65-7.39-2.02,2.82-2.64,6.6-1.63,9.91,5.76-1.29,8.69-7.54,13.06-11.51,5.38-4.91,12.99-6.27,20.15-7.68,16.21-3.16,32.21-7.53,47.81-13.04,4.18-1.48,8.4-3.06,12.01-5.63,3.39-2.42,6.13-5.6,8.7-8.86,10.12-12.8,18.08-27.81,22.25-43.55,1.58-5.9,2.6-11.9,3.01-17.93.55-7.93.03-15.93-1.76-23.78-1.73-7.58-6.08-16.11-13.83-16.82l-11.21,16.4c-3.58,7.54-6.17,15.46-8.39,23.52-1.14,4.15-2.18,8.35-3.23,12.55-2.55,10.38-5.06,20.82-8.86,30.8-1.39,3.65-3.04,7.36-5.93,10-2.42,2.2-5.53,3.48-8.57,4.69-10.89,4.28-21.93,8.2-33.1,11.68-8.18,2.55-16.47,4.92-24.13,8.74-7.66,3.83-14.77,9.29-19.02,16.72-.94,1.61-1.68,3.76-.54,5.24Z"/>
            <g>
              <path class="cls-28" d="M522.02,173.49c-4.56,0-4.57-7.09,0-7.09s4.57,7.09,0,7.09h0Z"/>
              <path class="cls-5" d="M520.87,170.32c-1.82,0-1.83-2.84,0-2.84s1.83,2.84,0,2.84h0Z"/>
            </g>
            <path class="cls-28" d="M523.07,161.25c.16,0,.16-.25,0-.25s-.16.25,0,.25h0Z"/>
            <path class="cls-28" d="M528.65,160.81c-1.39-1.15-2.86-2-4.55-2.65-.86-.33-1.77-.44-2.69-.54-1.06-.12-2.28.11-3.22.62s-1.37,1.6-1.24,2.59c.15,1.08.87,1.79,1.86,2.16.22.08.47.1.7.15.45.09.9.19,1.36.21.5.03,1,.04,1.5.1l-.76-.1c.65.09,1.31.16,1.96.24l-.73-.1c.61.08,1.21.2,1.81.37.28.08.56.17.83.27.12.04.25.12.38.14-.34-.15-.4-.17-.17-.07.08.04.17.08.25.11,1.02.47,2.16.36,2.89-.58.63-.81.69-2.23-.18-2.94h0Z"/>
            <path class="cls-28" d="M510.57,156.72c-.28-.11-.58-.2-.87-.3-.16-.05-.32-.11-.47-.16-.36-.12-.76-.14-1.14-.18-.31-.03-.62-.07-.93-.1-.37-.03-.77.08-1.14.13-.16.02-.32.04-.47.08l-.65.28-.55.43-.43.55c-.2.31-.31.65-.32,1.02-.07.24-.07.48,0,.73,0,.25.06.48.19.69.21.49.61,1.09,1.12,1.31.35.15.69.3,1.05.41.38.13.69.17,1.14.21.32.03.65.04.97.06.53.03,1.06-.09,1.58-.18.31-.05.63-.09.95-.16l.6-.25c.29-.16.53-.37.7-.64.33-.42.56-.97.54-1.52-.02-.44-.13-.87-.34-1.26-.16-.29-.37-.53-.64-.7-.24-.22-.53-.37-.85-.45h0Z"/>
            <path class="cls-17" d="M536.17,147.72l.67-7c-1.86-1.76-4.16-3.02-6.68-3.9-7.84-.06-15.94,1.32-21.06,5.89,8.84,1.26,18.74,1.64,27.07,5.01Z"/>
            <path class="cls-1" d="M399.39,312.76c-1.27.3-1.63,1.9-1.75,3.2-.17,1.86-.34,3.72-.51,5.59-.11,1.24-.49,2.78-1.72,3-1.23.21-2.11-1.13-2.63-2.27-1.26-2.77-2.51-5.55-3.77-8.32"/>
            <path class="cls-33" d="M545.3,174.24c.08-.04.16-.08.25-.11l-.56.24c.11-.04.21-.07.32-.1l-.68.09h.08c-.23-.04-.46-.07-.69-.1l.06.02-1.18-.69.02.02-.43-.56c.38.55.81.95,1.42,1.21.36.15.76.25,1.16.24.07,0,.13,0,.2,0l-.77-.1c.05,0,.1.02.15.04l-.69-.29s.09.05.13.08l-.59-.45.05.06-.45-.59c.04.05.07.11.09.17l-.29-.69c.02.06.03.13.04.19l-.1-.77c.08.83.05,1.7-.06,2.53l.1-.78c-.08.55-.21,1.08-.41,1.59l.3-.71c-.15.36-.34.7-.57,1.01l.46-.6c-.13.16-.26.32-.41.46l.6-.47-.06.04.71-.3-.06.02.79-.11h-.07c.26.04.53.07.79.11l-.06-.02,1.31.77s-.07-.06-.09-.09l.47.6-.04-.06.3.71c-.03-.07-.05-.14-.06-.22l.11.79c-.05-.52-.02-1.05.04-1.57l-.11.82c.1-.7.28-1.37.55-2.02l-.32.77c.1-.24.22-.48.34-.7.38-.69.63-1.36.58-2.16-.06-1.12-.56-2.12-1.55-2.71s-2.17-.54-3.16,0c-.33.18-.63.4-.89.66-.49.5-.67,1.01-.92,1.64-.11.28-.2.56-.28.84-.21.77-.32,1.59-.37,2.39s.05,1.62.18,2.43c.07.48.18.91.44,1.34.6.97,1.6,1.63,2.76,1.65,1.49.02,2.53-1.04,3.28-2.19.38-.59.65-1.26.85-1.93.36-1.17.45-2.46.41-3.68,0-.28-.03-.57-.05-.85-.07-.66-.16-1.16-.48-1.75-.26-.48-.69-.88-1.15-1.18-.78-.5-1.82-.65-2.72-.41-.74.2-1.42.71-1.8,1.39-.4.71-.44,1.43-.28,2.21v-1.42.07c.08-.21.16-.41.25-.62-.13.31-.29.61-.36.94-.06.32-.1.64-.12.96-.06.76.46,1.54,1.09,1.91.73.43,1.5.35,2.23,0h0Z"/>
            <path class="cls-5" d="M548.8,253.77c-10.39,8.99-17.27,21.93-18.9,35.58-20.22-2.62-37.47-15.46-56.6-22.62.41-1.3.76-2.57,1.15-3.87,2.62-9.07,4.99-18.34,8.53-27.1,19.87,11.59,42.82,17.88,65.82,18.01Z"/>
            <path class="cls-18" d="M514.56,255.27c6.51,1.65,13.1,3.06,19.74,4.06,2.76.42,5.55.62,8.33.8,1.89-2.27,3.93-4.42,6.17-6.35-23-.13-45.95-6.42-65.82-18.01-.72,1.78-1.36,3.59-2,5.4,10.22,6.49,21.99,11.18,33.57,14.1Z"/>
            <path class="cls-11" d="M490.02,260.47c6.85,2.81,13.85,5.39,21.07,7.09,7.72,1.81,15.65,3.63,23.6,5.15,1.31-2.83,2.84-5.57,4.6-8.15-9.19-1.08-18.62-3.82-26.74-6.04-11.03-3.02-22.96-7.93-32.36-15.01-1.19,3.59-2.26,7.22-3.3,10.86,4.47,1.87,8.79,4.32,13.14,6.1Z"/>
            <path class="cls-18" d="M508.67,276.46c7.33,1.76,15.27,3.01,22.81,5.16.5-1.86,1.06-3.71,1.76-5.51-6.56-1.5-13.22-2.63-19.79-4.07-13.52-2.98-25.17-9.2-37.29-15.1-.35,1.25-.71,2.49-1.07,3.74,1.49,1.06,2.97,2.09,4.45,3.12,9.92,3.71,18.7,10.16,29.14,12.66Z"/>
            <path class="cls-23" d="M543.48,206.55c10.91,4.59,22.66,9.92,28.12,20.43,2.21,4.27,3.18,9.07,3.79,13.83.78,6.09.83,12.24.7,18.37-.21,10.08-4.3,26.09-10.08,35.22-5.77,9.12-14.15,20.48-14.15,20.48l-26.62-14.71s6.33-23.27,8.75-33.89c2.42-10.61,9.87-38.17,16.57-40.78"/>
            <path class="cls-11" d="M513.51,212.57c1.14,1.93,3.06,3.31,5.09,4.29,5.48,2.59,12.03,2.47,17.71.34,4.65-1.75,8.74-4.76,12.15-8.37-13.48-5.73-23.93-6.17-28.72-6.2-.12.15-.3.27-.55.3-1.7.18-3.38.37-5.06.6-1.85,2.6-2.29,6.28-.62,9.04Z"/>
            <path class="cls-1" d="M519.89,211.7c1.93,2.18,4.81,2.34,7.26,2.39,3.06.07,6.27-.37,9.22-1.44,1.76-.64,3.33-1.92,5.02-2.76.74-8.91,1.14-17.86,1.18-26.83-6.86-1.13-13.76-1.44-20.65-.96-.47.03-.99.1-1.33.59-.34.49-.37,1.23-.37,1.92-.03,3.01-.08,6.03-.12,9.04-.03,3.19-.08,6.4-.12,9.59-.03,2.82-.07,5.65-.1,8.47Z"/>
            <path class="cls-17" d="M519.99,203.23c1.04.08,2.18.02,3.39-.2,2.84-.52,10.5-1.68,13.86-13.64.02-.08-.24.15-.49.29-1.75.96-7.73,3.61-16.65,3.97-.03,3.19-.08,6.4-.12,9.59Z"/>
            <path class="cls-35" d="M515.29,482.4c-3.94.73-7.89,1.01-11.86,1.54-3.83.51-7.7.88-11.57,1.08s-7.77.24-11.64.13c-1.9-.06-3.8.02-5.7-.07-2.06-.09-4.1-.35-6.15-.16-1.87.17-2.28,2.65-.44,3.28,1.97.68,4.05.83,6.12,1.05s3.95.49,5.94.53c4.05.09,8.09-.06,12.12-.42s7.92-.91,11.83-1.71c4.03-.82,7.92-2.3,11.78-3.7.98-.36.59-1.74-.43-1.55h0Z"/>
            <g>
              <g>
                <path class="cls-35" d="M245.73,503.87c35.52,2.87,53.23-6.22,53.1-9.87-.05-1.45-.88-2.75-1.75-3.91-6.59-8.73-17.3-13.68-28.13-15.22-10.83-1.54-21.87.02-32.56,2.3-6.28,1.34-12.51,2.92-18.67,4.75-11.28,4.45-7.51,19.08,28.01,21.95Z"/>
                <path class="cls-2" d="M296.08,488.86c-.86,1.02-1.87,1.98-3.05,2.83-5.27,3.84-11.83,5.85-18.06,7.52-9.69,2.6-19.51,2.39-29.36.75-4.66-.77-9.2-2.02-13.83-2.93-3.72-.73-7.5-1.44-10.98-3-2.62-1.18-5.66-3.17-6.15-6.25-.25-1.55.08-3.26.84-4.74-8.35,5.39-2.73,18.16,30.21,20.82,35.52,2.87,53.23-6.22,53.1-9.87-.05-1.45-.88-2.75-1.75-3.91-.32-.42-.65-.83-.99-1.23Z"/>
                <path class="cls-4" d="M253.39,124.07c-.13,1.08-.25,2.16-.37,3.25l.39-1.46c-.47,1.02-.48,2.22-.59,3.34-.03.35-.07.7-.1,1.06-.02.2-.05.4-.06.6.04-1.59-.03.12-.05.61-.09,1.72-.14,3.45-.2,5.18-.16,4.25-.23,8.49-.27,12.74-.1,11.22-.19,22.44-.19,33.66,0,13.9.02,27.8.05,41.71.03,15.69.08,31.38.14,47.07.06,16.27.12,32.54.2,48.81.07,15.98.15,31.96.23,47.94.07,14.56.18,29.11.28,43.67.08,12.02.2,24.05.32,36.07.09,8.58.18,17.15.26,25.73.04,3.99-.06,8.01.17,12,0,.04,0,.09,0,.13.14,2.05.14.34,0,.09.02.03,0,.13,0,.17,0,.04,0,.09,0,.13.03,4.26,6.65,4.27,6.63,0,0-.05,0-.1,0-.15,0-.04-.02-.13,0-.17-.4.89-.07,1.28,0-.12,0-.04,0-.09,0-.13.02-.55.01-1.11.02-1.66.02-2.13,0-4.27,0-6.4-.02-7.89-.03-15.77-.05-23.66-.02-11.7-.03-23.41-.08-35.11-.07-14.53-.13-29.06-.19-43.59-.07-16.1-.16-32.19-.24-48.29-.08-16.72-.15-33.44-.21-50.16-.06-16.14-.11-32.28-.15-48.43-.03-14.37-.06-28.75-.06-43.12,0-11.64-.06-23.29-.05-34.93,0-4.42,0-8.83-.08-13.25-.03-1.8-.06-3.59-.09-5.39,0-.17,0-.35,0-.52,0-.1,0-.21,0-.31v-.1c-.14-1.08-.15-1.14-.03-.2.06-.35-.06-.83-.08-1.18-.05-.71-.08-1.43-.13-2.14-.02-.27-.1-.8-.1-.91.02,1.1.06.69.05.44,0-.16-.02-.33-.03-.49-.02-.29-.04-.58-.06-.86-.04-.54-.07-1.09-.11-1.64-.09-1.4-1.13-2.6-2.6-2.6-1.54,0-2.43,1.2-2.6,2.6h0Z"/>
              </g>
              <path class="cls-4" d="M229.83,139.54c18.06-.87,36.19-.48,54.2,1.16v-7.92l-54,.37-.19,6.38Z"/>
              <g>
                <g>
                  <path class="cls-35" d="M254.36,197.9c-6.95,1.07-14.05,1.19-21.03.34-.53-.06-1.1-.15-1.47-.53-.44-.44-.47-1.12-.48-1.74-.22-15.91.42-31.84,1.94-47.68.12-1.25.32-2.64,1.31-3.41.7-.54,1.64-.64,2.53-.71,11.17-.88,22.42-.78,33.58.29,2.2.21,4.48.49,6.37,1.63,2.72,1.64,4.18,4.84,4.55,7.99.37,3.15-.19,6.33-.65,9.47-1.29,8.78-1.8,17.66-1.54,26.53.05,1.75.11,3.6-.78,5.1-1.61,2.72-5.38,2.98-8.54,2.92-9.26-.17-18.51-.33-27.77-.5"/>
                  <path class="cls-34" d="M260.69,189.37c-6.37.49-12.73.97-19.1,1.46-.51.04-1.07.07-1.5-.22-.64-.43-.7-1.33-.69-2.1.16-10.98.68-21.95,1.57-32.89.12-1.51.37-3.23,1.63-4.06.78-.52,1.76-.56,2.69-.6,7.63-.26,15.27-.52,22.9-.78,1.11-.04,2.29-.05,3.22.56.75.49,1.2,1.33,1.54,2.16,1.42,3.51,1.28,7.43,1.11,11.21-.27,6.08-.53,12.15-.8,18.23-.04.91-.09,1.86-.51,2.67-.77,1.47-2.51,2.08-4.12,2.49-5.51,1.41-11.26,1.88-16.93,1.39"/>
                  <path class="cls-32" d="M241.43,170.58c4.1-.12,8.12.39,12.2.59,6.74.33,13.47-.63,20.19-1.35-.18,4.17-.37,8.35-.55,12.52-.04.91-.09,1.86-.51,2.67-.77,1.47-2.51,2.08-4.12,2.49-5.51,1.41-11.26,1.88-16.93,1.39l8.98.48c-6.37.49-12.73.97-19.1,1.46-.51.04-1.07.07-1.5-.22-.64-.43-.7-1.33-.69-2.1.09-5.95.29-11.89.59-17.84.48-.03.95-.08,1.43-.09Z"/>
                  <path class="cls-35" d="M260.84,198.99c.26,2.89.51,5.78.77,8.67.08.9.13,1.92-.47,2.6-.52.6-1.37.75-2.16.85-2.06.26-4.13.41-6.2.43-.57,0-1.22-.03-1.59-.48-.33-.4-.29-.98-.24-1.49.43-4.08,1.09-8.14,1.29-12.24.12-2.55,8.81-2.46,8.81-2.46l-.22,4.12Z"/>
                </g>
                <path class="cls-5" d="M269.45,183.05c-.3,0-.6-.03-.9-.02s-.62.09-.92.12c-.62.07-1.25.09-1.88.08-1.32-.03-2.65-.3-3.96-.06-.96.17-1.11,1.65-.27,2.09,1.38.72,3.06.54,4.53.24.66-.14,1.31-.32,1.95-.54.31-.11.67-.21.96-.39s.58-.43.85-.65c.35-.29.05-.87-.36-.87h0Z"/>
                <path class="cls-5" d="M274.8,191.72c-.25.12-.5.1-.76.21-.16.07-.39.15-.61.21-.52.14-1.02.33-1.55.44-.15.02-.14.02.06,0-.16.02-.33.04-.49.07-.17.03-.33.08-.49.11-.05.01-.57.09-.26.05-.17.02-.34.04-.5.05-.77.09-1.58.23-2.22.7-.54.4-.58,1.12,0,1.51.7.47,1.64.6,2.47.51.89-.09,1.73-.22,2.54-.64.63-.32,1.23-.73,1.66-1.3.18-.24.36-.5.46-.78.1-.26.09-.63.1-.91.01-.22-.23-.31-.4-.23h0Z"/>
                <path class="cls-5" d="M239.72,193.91c-.39-.03-.78-.06-1.17-.12l.54.07c-.32-.04-.64-.1-.96-.16-.16-.03-.32-.07-.48-.1-.22-.05-.45-.1-.68-.1-.37,0-.71.09-1.02.28-.15.11-.29.23-.44.34l.4-.31s-.08.06-.12.08l.43-.18c-.16.03-.31.05-.47.07l.42-.06s-.09.01-.13.02c-.27.03-.53.07-.77.21-.29.17-.5.43-.62.73-.23.54-.14,1.26.31,1.66.15.14.31.27.46.4l-.28-.37s.04.09.06.13c.15.32.45.58.75.77.24.16.54.22.82.29s.54.12.82.17c.7.13,1.42.22,2.13.29.5.04,1.11-.26,1.46-.6s.63-.94.6-1.46-.2-1.09-.6-1.46-.89-.57-1.46-.6h0Z"/>
              </g>
            </g>
            <path class="cls-5" d="M242.58,173.39l-.12.17.49-.49c-.79.44-1.15,1.05-1.33,1.92-.15.74-.18,1.49-.2,2.24-.03,1.45.08,2.86.28,4.3.28,1.94,1.23,6.17,4,4.99l-.63.17c.36-.02.78-.04,1.05-.32s.21-.69.2-.93l-.17.63c.32-.73.34-1.26-.05-1.97-.03-.06-.31-.62-.19-.32-.08-.21-.15-.42-.21-.64s-.11-.44-.15-.67c-.01-.08-.07-.58-.03-.2-.05-.53-.08-1.06-.1-1.59-.04-1.15-.06-2.3-.02-3.45.02-.61.08-1.22.06-1.84-.03-.88-.2-1.5-.86-2.11l.35.6-.08-.2c-.4-1.04-1.64-1.21-2.29-.3h0Z"/>
            <path class="cls-20" d="M546.83,324.19s-19.74-17.87-24.95-17.13c-5.21.74-1.49-4.47-1.49-4.47,0,0,2.61.37,2.98-1.86.37-2.23.37-5.21.37-5.21,0,0,16.38,2.98,27.18,13.41,10.8,10.43,8.94,7.82,5.21,9.68-3.72,1.86-.37,5.59-3.72,6.7-3.35,1.12-5.59-1.12-5.59-1.12Z"/>
            <path class="cls-2" d="M257.99,211.33c.23,1.12.46,2.24.67,3.36s.46,2.24.69,3.35c.46,2.22.88,4.44,1.27,6.67.79,4.46,1.45,8.95,2,13.45s1.23,8.86-.13,13.08c-1.2,3.71-3.72,6.84-6.18,9.79-2.94,3.53-5.88,7.06-8.81,10.59-2.9,3.49-5.82,6.98-8.71,10.48-2.58,3.12-5.13,6.3-7.35,9.7-2.15,3.31-4,6.89-5.09,10.7-.94,3.3-1.29,6.82-.9,10.23.38,3.36,1.43,6.68,3.38,9.46,2.07,2.95,5,5.03,8.29,6.43s7.09,2.23,10.72,3.04c3.31.75,6.6,1.57,9.65,3.1,2.77,1.38,5.44,3.28,7.11,5.91.82,1.28,1.35,2.66,1.57,4.18.3,2.03-.09,4.18-.66,6.17-.6,2.09-1.4,4.12-2.04,6.2-.65,2.11-1.19,4.25-1.62,6.41-.86,4.33-1.27,8.76-1.22,13.17.05,3.94.42,7.96,1.7,11.71,1.15,3.34,3.06,6.42,5.79,8.69,2.32,1.92,5.08,3.23,8,3.93s6.2.87,9.31.6,6.46-.98,9.55-2.01,6.14-2.42,9.01-4.05c3.16-1.78,6.19-3.79,9.07-6,2.91-2.23,5.67-4.64,8.25-7.24,2.58-2.6,4.98-5.38,7.19-8.3s4.18-5.94,5.96-9.1c1.78-3.17,3.32-6.46,4.65-9.84,1.23-3.14,2.29-6.34,3.31-9.55,1.03-3.26,2.01-6.54,3.05-9.8,1.03-3.19,2.12-6.37,3.4-9.47.07-.17.14-.33.17-.42.09-.2.17-.41.26-.61.16-.36.32-.73.48-1.09.34-.74.69-1.48,1.06-2.21.73-1.44,1.51-2.86,2.38-4.22,1.7-2.7,3.59-5.08,5.96-7.27,2.36-2.19,5.03-3.99,8.01-5.39.78-.37,1.35-.61,2.13-.91s1.53-.56,2.3-.8c1.55-.49,3.13-.88,4.72-1.2,3.26-.65,6.45-.96,9.82-1.14,3.45-.18,6.91-.2,10.37-.19,3.46,0,6.91.04,10.37-.05,3.42-.08,6.84-.29,10.24-.75,3.24-.44,6.45-1.13,9.53-2.22,3.02-1.07,5.86-2.52,8.46-4.38.35-.25.52-.7.29-1.09-.2-.35-.74-.54-1.09-.29-1.33.95-2.75,1.78-4.21,2.52-.36.18-.73.36-1.1.53-.17.08-.34.16-.52.23-.09.04-.19.08-.28.12-.14.06-.06.03-.2.09-.74.31-1.48.59-2.24.84-1.54.53-3.12.96-4.72,1.3-.79.17-1.59.33-2.38.46-.41.07-.82.13-1.23.2-.45.07-.71.1-1.11.15-3.35.42-6.72.59-10.09.66-3.46.07-6.92.04-10.38.03-3.42,0-6.85.02-10.26.22-3.37.19-6.75.56-10.06,1.24-3.21.66-6.35,1.65-9.32,3.06s-5.76,3.31-8.19,5.56c-2.36,2.18-4.38,4.71-6.11,7.42-1.76,2.76-3.2,5.7-4.47,8.72-1.3,3.09-2.41,6.25-3.44,9.44-1.04,3.23-2.01,6.48-3.02,9.71-1,3.22-2.04,6.43-3.25,9.58-1.26,3.28-2.73,6.48-4.43,9.59-1.74,3.18-3.71,6.24-5.87,9.16-2.13,2.87-4.47,5.6-6.98,8.16-2.54,2.59-5.25,5.02-8.12,7.24-2.83,2.19-5.82,4.19-8.93,5.96-2.83,1.62-5.71,2.98-8.79,4s-6.21,1.72-9.34,1.98c-3.05.25-6.07.12-8.99-.61-2.79-.7-5.42-1.97-7.56-3.85-2.62-2.31-4.34-5.34-5.34-8.7-1.13-3.78-1.39-7.77-1.36-11.7.04-4.37.53-8.73,1.48-13,.47-2.13,1.06-4.24,1.76-6.32s1.47-4.09,1.94-6.21c.45-2.04.59-4.14.13-6.19-.34-1.51-1.01-2.96-1.9-4.22-1.88-2.65-4.6-4.58-7.5-5.99-3.13-1.52-6.45-2.36-9.83-3.11-3.55-.79-7.17-1.52-10.54-2.94-3.18-1.34-6.04-3.41-7.95-6.31-1.81-2.74-2.76-5.98-3.02-9.25-.26-3.37.17-6.78,1.22-10,1.23-3.8,3.19-7.32,5.43-10.61,2.26-3.31,4.82-6.4,7.39-9.47,2.96-3.54,5.92-7.09,8.88-10.63s5.79-6.87,8.62-10.35c2.48-3.06,4.88-6.35,5.86-10.23,1.1-4.34.29-8.93-.31-13.29-.62-4.49-1.41-8.96-2.32-13.4-.44-2.11-.9-4.22-1.4-6.32-.25-1.07-.51-2.14-.81-3.19s-.6-2.11-.92-3.17c-.05-.18-.31-.1-.27.08h0Z"/>
            <path class="cls-5" d="M436.96,303.61c2.21-1.09,4.43-2.19,6.64-3.28.39-.19.83-.44.92-.87.07-.34-.11-.69-.29-.99-1.6-2.79-3.23-5.61-5.5-7.89-.26-.26-.55-.53-.91-.62-.43-.11-.87.06-1.28.22-2.07.83-4.09,1.79-6.05,2.88,2.23,3.72,4.38,7.48,6.44,11.29"/>
            <path class="cls-28" d="M542.41,192.05l.48-7.48s6.69-1.27,8.28-7.16c1.59-5.89-2.07-11.62-6.53-11.14-4.46.48-4.46,11.3-7,10.98-2.55-.32-1.11-10.98-1.11-10.98,0,0-2.07-3.34-3.5-5.73-1.43-2.39,2.23-11.3,2.23-11.3,0,0-5.09-5.57-11.46-6.53-6.37-.96-14.17-.96-14.17-.96,0,0-4.78-4.3,7.32-5.73,12.1-1.43,37.89-1.27,44.89,7.32,7,8.6,1.75,32.63,1.43,35.34-.32,2.71-5.41,12.42-20.85,13.37Z"/>
            <g>
              <path class="cls-18" d="M510.95,165.45c0-.08-.01-.28.03-.34v.1c0-.09.02-.18.01-.27,0-.04,0-.08,0-.11.01-.23.02-.46.02-.69,0-.51-.03-1-.1-1.5-.12-.9-.36-1.77-.76-2.59s-1.05-1.56-1.83-2.07c-.96-.63-2.15-.91-3.28-.97-4.44-.22-8.38,3.28-9.53,7.4-.62,2.2-.53,4.63.25,6.77.41,1.13.97,2.19,1.78,3.08.63.69,1.42,1.26,2.27,1.64,1.79.8,3.88,1.01,5.76.36.36-.12.73-.26,1.06-.45.12-.07.23-.18.34-.27.22-.18.43-.37.63-.57.84-.84,1.57-1.82,2.14-2.87.89-1.61,1.37-3.37,1.56-5.19.05-.49.07-.98.07-1.47,0-.62-.54-1.22-1.19-1.19s-1.19.52-1.19,1.19c0,.62-.04,1.25-.12,1.87l.04-.32c-.11.8-.29,1.59-.55,2.36-.06.17-.12.34-.19.51-.03.08-.06.16-.09.24-.04.1-.19.45-.01.04-.13.3-.27.6-.42.9-.27.51-.57,1-.91,1.46-.07.1-.14.19-.21.28.29-.38.01-.02-.07.08-.13.16-.26.31-.4.46-.19.21-.39.4-.6.59-.05.04-.1.09-.15.13-.01,0-.02.02-.03.03-.01,0,.3-.19.12-.12-.1.04-.19.1-.28.14-.04.02-.09.04-.13.06.3-.15.13-.05.05-.02-.09.03-.18.07-.27.1-.2.07-.4.12-.6.17-.09.02-.18.04-.28.06s-.43.05-.05.01c-.21.02-.42.04-.62.04-.19,0-.38,0-.57-.01-.09,0-.19-.01-.28-.02-.05,0-.09-.01-.14-.02-.08-.01-.04,0,.14.02-.04,0-.08-.01-.11-.02-.39-.06-.78-.16-1.16-.29-.09-.03-.18-.06-.27-.1-.03-.01-.21-.08-.03-.01s0,0-.03-.02c-.19-.09-.38-.18-.56-.29-.16-.09-.32-.2-.48-.3-.07-.05-.3-.26-.06-.04-.08-.08-.18-.14-.26-.22-.14-.13-.28-.26-.41-.4-.07-.07-.13-.15-.2-.22-.04-.05-.1-.11-.13-.16.12.22.03.04,0-.02-.29-.4-.54-.83-.74-1.28-.03-.06-.07-.13-.09-.19.04.2.05.11.02.05-.05-.12-.09-.24-.14-.36-.08-.23-.16-.47-.22-.71s-.12-.48-.17-.73c-.03-.13-.05-.26-.07-.39,0-.05-.01-.1-.02-.14.07.28,0,.03,0-.05-.06-.51-.08-1.02-.06-1.53,0-.24.03-.47.05-.71,0-.05.01-.09.02-.14.03-.25-.04.24,0,0,.02-.14.05-.28.07-.42.09-.49.23-.97.4-1.44.04-.11.08-.22.13-.33.07-.19-.01.05-.02.05.02,0,.07-.15.08-.17.09-.21.2-.41.31-.61.21-.38.45-.75.71-1.1.02-.02.14-.19.03-.04s.02-.02.03-.04c.07-.08.13-.16.2-.24.15-.17.3-.34.47-.5.15-.15.3-.29.45-.43.08-.07.16-.14.24-.2.05-.04.1-.07.15-.12-.18.19-.09.07-.02.01.35-.26.72-.49,1.1-.7.18-.1.37-.19.56-.28.06-.03.12-.05.17-.07-.26.13-.12.05-.05.02.11-.04.23-.09.34-.13.48-.17.96-.3,1.46-.38h.03c.11-.02.09-.02-.07,0,.02-.02.14-.02.18-.02.13-.01.26-.02.39-.03.24-.01.49-.01.73,0,.07,0,.34-.01.38.03,0,0-.26-.04-.06,0,.07.01.14.02.21.04.25.05.5.11.74.19.1.03.24.06.33.12-.02-.01-.21-.1-.04-.02.05.02.1.05.15.07.18.09.35.19.51.31.03.02.06.05.09.06-.23-.12-.1-.08-.03-.02.07.06.13.11.2.17.14.13.25.28.38.42-.21-.21-.02-.03.03.05.05.07.1.14.14.22.1.16.19.33.27.51.04.08.12.36.03.06.02.08.07.17.1.25.07.19.13.38.18.57.1.38.18.76.24,1.15,0,.06.01.11.02.17,0-.02-.03-.24-.01-.08s.04.32.07.47c.04.21.06.41.1.62-.04-.27,0,.05.01.12.01.1.02.19.03.29,0,.06,0,.12.01.17l.03.21c-.01-.11-.01-.13,0-.07.01.1.02.21.04.31.04.39.32.77.75.75s.71-.33.75-.75Z"/>
              <path class="cls-18" d="M531.23,166.68s.08.06.12.08c.03.02.09.07-.01-.02.09.09.2.13.3.19.21.11.41.19.64.26.35.1.7.16,1.05.22.77.12,1.54.22,2.31.31.72.08,1.45.09,2.17.11.71.02,1.41.01,2.12-.02.41-.02.81-.04,1.21-.07.19-.01.39-.03.58-.05s.38-.04.56-.09c.24-.07.44-.22.59-.41s.29-.41.28-.67c-.01-.24-.09-.51-.28-.67-.1-.08-.24-.2-.33-.26-.22-.13-.47-.16-.71-.16-.18,0-.37.02-.55.03-.35.02-.7.04-1.06.06-.71.03-1.43.05-2.14.07s-1.41.01-2.12,0-1.41-.01-2.11-.03c-.4-.01-.81-.04-1.21-.03-.25,0-.49,0-.73.07-.19.05-.37.1-.56.16-.43.14-.48.68-.12.93h0Z"/>
              <path class="cls-17" d="M515.09,175.97c-.18-.22-.44-.35-.7-.48-.28-.14-.56-.28-.84-.39-.5-.21-1-.41-1.51-.59s-1.02-.36-1.53-.53c-.47-.17-.96-.31-1.42-.51l.19.08c-.16-.07-.3-.15-.44-.24-.12-.08.15.14.05.04-.02-.02-.05-.05-.08-.07-.1-.09.11.17.05.06-.02-.04-.04-.08-.06-.12l.08.2c-.02-.05-.04-.1-.04-.16l.03.22c0-.05,0-.1,0-.16l-.03.22c0-.07.03-.13.05-.19l-.08.2c.04-.1.1-.19.17-.28l-.13.17c.18-.23.4-.41.61-.62s.4-.42.59-.63c.41-.48.8-1,1.12-1.55.6-1.01,1.07-2.14,1.31-3.29.06-.3.11-.61.16-.92.03-.23.08-.47.08-.7,0-.16-.02-.32-.04-.48-.03-.27-.09-.5-.29-.71-.17-.17-.46-.3-.71-.29-.57.03-.97.44-1,1-.02.29-.03.58-.03.87s-.02.58-.06.86l.03-.26c-.11.77-.3,1.52-.6,2.24l.09-.22c-.34.8-.78,1.55-1.31,2.23l.14-.18c-.21.26-.42.52-.65.76-.25.27-.52.52-.74.82-.29.39-.4.85-.3,1.33.08.43.4.75.74.99.27.19.59.31.9.41.37.12.74.23,1.1.35s.73.23,1.1.35.75.25,1.13.35c.42.11.85.25,1.27.32.47.08.98.24,1.45.12.3-.07.34-.43.17-.64h0Z"/>
              <path class="cls-18" d="M509.38,163.36s.07.04.11.07l-.21-.16c.15.14.33.25.53.29.04,0,.08.01.11.02.09.02.18.03.27.06.08.02.17.05.25.07.19.04.39.05.58.07.37.03.74.07,1.11.12s.73.05,1.1.08.73.06,1.09.09c.21.02.42.04.63.07.1.01.2.02.3.03.05,0,.1.01.15.02.19.02.36,0,.55-.05l.36-.15.31-.24.24-.31c.11-.17.17-.36.18-.56.04-.13.04-.27,0-.4,0-.14-.03-.26-.1-.38-.04-.13-.1-.24-.19-.33-.11-.16-.25-.29-.42-.39h-.02c-.17-.12-.36-.18-.57-.19-.1-.01-.17-.03-.26-.03-.04,0-.08,0-.12,0-.1,0-.2,0-.3-.01-.18,0-.37-.01-.55-.02-.37,0-.75-.01-1.12-.01-.19,0-.38,0-.57,0-.18,0-.36,0-.54.02-.38.04-.76.08-1.14.12-.1.01-.2.02-.3.04-.15.02-.3.03-.44.07-.05.02-.1.03-.15.05-.1.03-.2.06-.29.08-.05.01-.09.02-.14.04-.16.04-.26.1-.38.19-.06.04-.1.08-.15.13l.2-.15s-.04.03-.07.04c-.29.16-.47.49-.47.81,0,.17.04.33.13.47.08.14.2.25.34.34h0Z"/>
              <path class="cls-18" d="M518.82,176.47c-.11-.08-.16-.13-.27-.21v.03c.04.05.02.04-.03-.05-.06-.08-.13-.14-.21-.19-.07-.04-.16-.08-.23-.12-.28-.15-.56-.33-.82-.51-.03-.02-.06-.04-.09-.07,0,0-.1-.08-.04-.03.05.04-.09-.08-.12-.1-.12-.1-.24-.21-.36-.32-.23-.21-.46-.42-.66-.65-.09-.1-.18-.2-.26-.31-.02-.03-.04-.05-.06-.08,0,0,.09.12.03.04-.05-.06-.09-.12-.13-.18-.16-.23-.31-.47-.45-.71s-.25-.48-.36-.73c-.04-.09.02.06.02.06-.01,0-.03-.08-.04-.09-.02-.06-.05-.12-.07-.18-.05-.13-.1-.26-.14-.4-.08-.26-.15-.52-.21-.78-.03-.14-.06-.28-.08-.42-.01-.06-.02-.13-.03-.19,0-.02-.02-.13,0-.01s0-.02,0-.04c-.06-.54-.08-1.09-.05-1.63,0-.13.02-.26.03-.39,0-.07.01-.13.02-.19,0-.03.01-.07.01-.1,0,.06-.02.16,0,.05.05-.28.1-.56.17-.83s.14-.52.23-.78c.04-.12.09-.25.14-.37.01-.03.03-.06.04-.09,0,0-.07.16-.03.07.03-.07.06-.14.09-.21.24-.5.53-.97.86-1.42.06-.08-.04.06-.05.06.02-.02.04-.05.06-.08.04-.05.08-.1.12-.15.09-.11.18-.21.28-.31.18-.2.38-.38.58-.56.1-.09.21-.18.32-.27.14-.11-.13.09.02-.01.06-.04.12-.09.18-.13.22-.16.44-.3.67-.44s.47-.26.71-.38c.06-.03.12-.05.18-.08.03-.01.22-.09.09-.04s.06-.03.1-.04c.07-.03.14-.05.21-.08.52-.19,1.05-.33,1.59-.41.11-.02-.11.01-.1.01.03,0,.06,0,.1-.01.06,0,.13-.01.19-.02.14-.01.28-.02.42-.03.28-.01.56-.02.84,0s.54.04.81.06c.12.01-.15-.02-.14-.02.03,0,.06,0,.1.01.06,0,.13.02.19.03.14.02.27.05.41.08.54.12,1.07.27,1.58.48.03.01.06.03.09.04.01,0-.25-.11-.14-.06.06.03.12.05.18.08.13.06.26.12.38.19.24.13.48.27.71.42.11.07.22.15.33.22.05.04.11.08.16.12.21.16-.17-.14-.02-.02.22.18.44.36.65.56s.39.39.57.59c.09.1.17.2.26.3.04.05.08.1.12.15.01.01.05.07.06.08-.02,0-.19-.25-.08-.11.33.45.63.93.89,1.43.13.25.24.5.35.75l-.14-.33c.32.77.54,1.59.65,2.42l-.05-.38c.03.21.05.43.08.64l-.05-.38c.09.74.11,1.48.01,2.22l.05-.39c-.07.47-.18.92-.36,1.35l.15-.35c-.19.44-.44.85-.73,1.23l.23-.3c-.41.53-.9,1-1.43,1.42l.3-.23c-.69.53-1.46.95-2.26,1.29l.35-.15c-1.54.65-3.19,1.03-4.84,1.26l.39-.05c-.84.11-1.68.16-2.52.05l.39.05c-.48-.07-.94-.18-1.39-.37l.34.15c-.43-.18-.83-.42-1.21-.7l.29.22c-.35-.27-.69-.57-.99-.9-.14-.15-.27-.3-.39-.46-.06-.08-.15-.24.06.08-.03-.04-.06-.08-.09-.11-.07-.1-.14-.19-.21-.29-.27-.39-.51-.8-.73-1.23-.1-.21-.2-.42-.3-.63-.08-.17.12.31.02.04-.02-.05-.04-.1-.06-.15-.05-.13-.1-.26-.14-.39-.17-.49-.3-.99-.38-1.5,0-.05-.01-.11-.02-.16v.09c.04.2.03.11-.02-.25,0-.02,0-.14-.02-.16l.02.17s0-.08-.01-.12c-.03-.26-.04-.51-.04-.77,0-.23,0-.47,0-.7,0,.01,0-.15,0-.15-.02,0-.05.25,0,.03.02-.12.05-.24.08-.36.05-.22.11-.43.18-.64.03-.11.07-.21.11-.31.02-.05.04-.09.05-.14.09-.23-.09.19.02-.04.21-.48.49-.92.8-1.35.07-.1.14-.21.22-.3-.13.15-.04.05-.01.02.05-.06.09-.12.14-.17.2-.25.36-.54.54-.81.2-.29.13-.77-.13-1.01s-.71-.36-1.01-.13c-.28.21-.6.42-.82.69-.23.28-.46.58-.67.88-.35.51-.67,1.05-.94,1.61-.3.63-.52,1.28-.72,1.94s-.29,1.49-.23,2.21c.11,1.54.63,3,1.31,4.38.27.54.58,1.07.94,1.56.4.55.84,1.09,1.36,1.53.63.51,1.27.9,2.02,1.2s1.51.41,2.28.44c1.43.07,2.88-.2,4.27-.51,1.27-.29,2.51-.69,3.69-1.25s2.26-1.3,3.11-2.25c.5-.56.96-1.17,1.27-1.86.37-.83.57-1.66.64-2.57.09-1.27-.1-2.57-.5-3.77-.12-.35-.27-.7-.41-1.04l.14.33c-.54-1.29-1.25-2.46-2.19-3.51-.84-.94-1.87-1.75-3-2.33-1.21-.62-2.5-1-3.86-1.07-1.24-.07-2.46.13-3.65.46-2.42.67-4.62,2.15-5.94,4.32-1.32,2.17-1.68,4.87-1.1,7.33s2.32,4.89,4.77,5.95c.07.03.14.06.22.09-.09-.04-.13,0,.14.06.1.02.2.03.3.01h.1s-.04,0-.06.01c.16.03.33.02.49.03.23,0,.46-.17.52-.39.07-.24-.05-.47-.25-.61h0Z"/>
            </g>
            <path class="cls-5" d="M515.66,181.12c-1.66-.16-8.71-1.24-8.71-1.24,0,0-1.06,5.1,3.71,6.34,4.78,1.24,5-5.1,5-5.1Z"/>
          </g>
        </g>
        <g>
          <g>
            <path class="cls-24" d="M151.63,457.63c-13-7.91-21.54,6.85-25.08,20.21-3.54,13.36-7.6,14.85-9.08,9.28-1.48-5.57,5.57-33.04,8.17-45.68,2.6-12.64,0-33.01-11.92-33.01s-14.52,20.37-11.92,33.01c2.6,12.64,9.65,40.11,8.17,45.68-1.48,5.57-5.55,4.08-9.08-9.28-3.54-13.36-17.26-35.73-30.26-27.82-15.22,9.26-3.9,28.61,15.59,35.99,16,6.06,22.27,24.13,22.27,24.13h10.47s6.27-18.07,22.27-24.13c19.49-7.38,25.63-19.12,10.41-28.38Z"/>
            <rect class="cls-29" x="113.4" y="418.07" width=".64" height="92.05"/>
            <path class="cls-29" d="M104.49,495.62c-16.1-30-36.59-43.15-36.8-43.28l.34-.55c.21.13,20.83,13.36,37.02,43.52l-.57.3Z"/>
            <path class="cls-29" d="M121.74,495.65l-.53-.37c18.39-26.47,33.21-35.68,33.35-35.77l.34.55c-.15.09-14.86,9.24-33.16,35.59Z"/>
          </g>
          <path class="cls-29" d="M90.89,505.47c0,17.46,4.46,35.48,7.12,44.67,1.07,3.69,4.43,6.21,8.27,6.21h14.86c3.84,0,7.21-2.53,8.27-6.21,2.66-9.19,7.12-27.21,7.12-44.67h-45.66Z"/>
          <path class="cls-22" d="M132.53,537.98c2.08-9.3,4.02-21.02,4.02-32.52h-45.66c0,1.68.05,3.37.13,5.05,5.68,2.39,10.87-.94,17.37,4.07,6.5,5.01,2.31,7.05,9.97,10.39,5.99,2.61,11.82,7.83,14.17,13Z"/>
        </g>
        <g>
          <g>
            <path class="cls-24" d="M588.57,456.35c-13-7.91-21.54,6.85-25.08,20.21-3.54,13.36-7.6,14.85-9.08,9.28-1.48-5.57,5.57-33.04,8.17-45.68,2.6-12.64,0-33.01-11.92-33.01s-14.52,20.37-11.92,33.01c2.6,12.64,9.65,40.11,8.17,45.68-1.48,5.57-5.55,4.08-9.08-9.28-3.54-13.36-17.26-35.73-30.26-27.82-15.22,9.26-3.9,28.61,15.59,35.99,16,6.06,22.27,24.13,22.27,24.13h10.47s6.27-18.07,22.27-24.13c19.49-7.38,25.63-19.12,10.41-28.38Z"/>
            <rect class="cls-29" x="550.33" y="416.8" width=".64" height="92.05"/>
            <path class="cls-29" d="M541.43,494.35c-16.1-30-36.59-43.15-36.8-43.28l.34-.55c.21.13,20.83,13.36,37.02,43.52l-.57.31Z"/>
            <path class="cls-29" d="M558.68,494.38l-.53-.37c18.39-26.47,33.21-35.68,33.36-35.77l.34.55c-.15.09-14.86,9.24-33.16,35.59Z"/>
          </g>
          <path class="cls-29" d="M527.83,504.19c0,17.46,4.46,35.48,7.12,44.67,1.07,3.69,4.43,6.21,8.27,6.21h14.86c3.84,0,7.21-2.53,8.27-6.21,2.66-9.19,7.12-27.21,7.12-44.67h-45.66Z"/>
          <path class="cls-22" d="M569.47,536.71c2.08-9.3,4.02-21.02,4.02-32.52h-45.66c0,1.68.05,3.37.13,5.05,5.68,2.39,10.87-.94,17.37,4.07,6.5,5.01,2.31,7.05,9.97,10.39,5.99,2.61,11.82,7.83,14.17,13Z"/>
        </g>
      </g>
    </g>
  </g>
</svg>