<?xml version="1.0" encoding="UTF-8"?>
<svg id="Layer_2" data-name="Layer 2" xmlns="http://www.w3.org/2000/svg" viewBox="0 0 100 100">
  <defs>
    <style>
      .cls-1 {
        fill: #e01110;
      }

      .cls-2 {
        fill: #232e39;
      }

      .cls-3 {
        fill: #f3fafd;
      }

      .cls-4 {
        fill: #e01211;
      }
    </style>
  </defs>
  <path class="cls-1" d="M31.12,9.25c.84.05,1.87,2.19,1.45,2.9.23.1.49.22.62.45.43.76.71,2.38.86,3.3,1.83,11.07-7.92,21.02-19.06,19.54-.92-.12-2.56-.36-3.33-.76-.23-.12-.36-.38-.47-.6-.72.45-2.83-.61-2.91-1.45C-1.38,26.47-2.03,12.24,7.18,5.36,14.69-.26,25.85,1.46,31.12,9.25Z"/>
  <path class="cls-1" d="M87.99,65.72c.28-.61,2.74.46,3.11.77v.47c7.88,4.43,10.57,14.94,6.11,22.74-6.16,10.76-21.85,11.03-28.52.64-.78.08-1.91-2.21-1.45-2.9-.23-.11-.48-.24-.6-.47-.4-.78-.64-2.42-.77-3.34-1.41-10.59,7.57-19.94,18.24-19.07.93.08,2.59.23,3.38.59.24.11.38.36.5.58Z"/>
  <path class="cls-1" d="M91.1,33.04v.47c-.37.31-2.84,1.38-3.11.77-.12.22-.26.47-.5.58-.8.36-2.45.52-3.38.59-10.67.87-19.66-8.49-18.24-19.08.12-.92.36-2.56.77-3.34.12-.23.38-.36.6-.47-.53-.58.63-2.84,1.45-2.9,6.67-10.4,22.36-10.12,28.52.64,4.46,7.79,1.77,18.3-6.11,22.74Z"/>
  <path class="cls-1" d="M32.57,87.85c.57.25-.62,2.53-.92,2.83-.12.12-.35.09-.53.07-5.27,7.79-16.42,9.51-23.94,3.89-9.2-6.88-8.56-21.11,1.11-27.27-.08-.78,2.22-1.9,2.91-1.45.11-.22.23-.48.47-.6.77-.4,2.41-.64,3.33-.76,11.14-1.48,20.89,8.47,19.06,19.54-.15.91-.44,2.54-.86,3.3-.13.23-.39.35-.62.45Z"/>
  <path class="cls-2" d="M68.69,90.33c-11.62,5.77-25.77,5.65-37.57.41.38-.56,1.18-2.22,1.45-2.9l1.19.04c10.35,4.08,22.05,4.13,32.27-.36l1.2-.09c.26.7,1.04,2.26,1.45,2.9Z"/>
  <path class="cls-2" d="M68.69,9.67c-.41.64-1.19,2.19-1.45,2.9l-1.19-.09c-10.2-4.52-21.94-4.43-32.28-.36l-1.19.04c-.27-.67-1.07-2.33-1.45-2.9,11.82-5.26,25.93-5.33,37.57.41Z"/>
  <path class="cls-2" d="M11.19,34.07l-.04,1.24c-3.53,9.45-3.5,19.91,0,29.36l.04,1.24c-.71.26-2.27,1.04-2.91,1.45-4.69-11.03-4.71-23.73,0-34.75.64.41,2.2,1.19,2.91,1.45Z"/>
  <path class="cls-2" d="M91.1,33.04c4.4,10.88,4.41,23.05,0,33.92-.75-.42-2.26-.98-3.11-1.24l.03-1.2c3.53-9.29,3.55-19.74,0-29.03l-.03-1.2c.85-.26,2.36-.82,3.11-1.24Z"/>
  <path class="cls-3" d="M18.87,21.46h-3.32v3.83c0,1.07-2.69,1.82-3.23.11.12-3.24-.49-7.29-.08-10.44.74-5.59,9.19-5.59,9.93,0,.41,3.15-.2,7.2-.08,10.44-.54,1.7-3.23.96-3.23-.11v-3.83Z"/>
  <path class="cls-3" d="M81.92,73.63c2.79-.44,5.56,1.58,5.87,4.4.18,1.66.18,6.89-.41,8.28-2,4.69-9.01,3.53-9.55-1.45-.18-1.66-.18-6.89.41-8.28.58-1.36,2.21-2.71,3.69-2.94Z"/>
  <path class="cls-3" d="M79,10.74c.81-.18,3.41-.13,4.32-.05,2.89.25,4.8,2.58,4.44,5.47-.09.76-1.01,2.19-.98,2.47.03.33.83,1.39.95,2.15.44,2.81-1.35,5.35-4.21,5.64-1.32.13-5.16.41-5.61-1.02l-.1-13.15c.01-.69.51-1.35,1.19-1.5Z"/>
  <path class="cls-3" d="M20.05,73.62c.81-.18,3.41-.13,4.32-.05,2.89.25,4.8,2.58,4.44,5.47-.09.76-1.01,2.19-.98,2.47.03.33.83,1.39.95,2.15.44,2.81-1.35,5.35-4.21,5.64-1.32.13-5.16.41-5.61-1.02l-.1-13.15c.01-.69.51-1.35,1.19-1.5Z"/>
  <path class="cls-3" d="M12.23,84.34h-3.32v3.83c0,1.07-2.69,1.82-3.23.11.12-3.24-.49-7.29-.08-10.44.74-5.59,9.19-5.59,9.93,0,.41,3.15-.2,7.2-.08,10.44-.54,1.7-3.23.96-3.23-.11v-3.83Z"/>
  <path class="cls-1" d="M48.91,25.23c2.67-.43,6.29,2.88,8.05,4.7,7.68,7.98,15.12,21.19,9.06,32-11.02,19.65-42.59,6.62-33.61-16.74,2.03-5.29,10.6-19,16.5-19.96Z"/>
  <path class="cls-4" d="M18.87,18.15h-3.32v-3c0-1.44,3.32-1.44,3.32,0v3Z"/>
  <path class="cls-1" d="M82.33,76.93c1.15-.25,2,.36,2.14,1.51.13,1.07.16,5.43-.05,6.37-.37,1.63-3.04,1.69-3.28-.36-.14-1.22-.17-5.02.02-6.2.1-.61.55-1.18,1.18-1.32Z"/>
  <path class="cls-4" d="M81.14,16.91v-2.9c1.33.09,3.26-.55,3.34,1.35.09,2.07-1.91,1.5-3.34,1.55Z"/>
  <path class="cls-4" d="M81.14,23.11v-2.9c1.33.09,3.26-.55,3.34,1.35.09,2.07-1.91,1.5-3.34,1.55Z"/>
  <path class="cls-1" d="M22.19,79.79v-2.9c4.48-.75,4.49,3.65,0,2.9Z"/>
  <path class="cls-1" d="M22.19,85.99v-2.9c4.48-.75,4.49,3.65,0,2.9Z"/>
  <path class="cls-4" d="M12.23,81.03h-3.32v-3c0-1.44,3.32-1.44,3.32,0v3Z"/>
  <path class="cls-3" d="M53.12,46.48h3.01c.15,0,1.07.63,1.24.84.84,1.02.82,4.63-.19,5.58-.11.1-.98.62-1.04.62h-3.01v3c0,.15-.63,1.06-.84,1.23-1.02.84-4.65.82-5.6-.19-.11-.11-.62-.98-.62-1.04v-3h-3.01c-.06,0-.93-.51-1.04-.62-1.02-.95-1.03-4.57-.19-5.58.17-.21,1.09-.84,1.24-.84h3.01v-3c0-.15.63-1.06.84-1.23,1.02-.84,4.65-.82,5.6.19.11.11.62.98.62,1.04v3Z"/>
</svg>