<?xml version="1.0" encoding="UTF-8"?>
<svg id="Layer_2" data-name="Layer 2" xmlns="http://www.w3.org/2000/svg" viewBox="0 0 100 100">
  <defs>
    <style>
      .cls-1 {
        fill: #feba5c;
      }

      .cls-2 {
        fill: #fed563;
      }

      .cls-3 {
        fill: #ddfbfe;
      }

      .cls-4 {
        fill: #fecdaf;
      }

      .cls-5 {
        fill: #fdfeac;
      }

      .cls-6 {
        fill: #fee4d3;
      }

      .cls-7 {
        fill: #feef6e;
      }

      .cls-8 {
        fill: #f64340;
      }

      .cls-9 {
        fill: #9dfbfe;
      }

      .cls-10 {
        fill: #fe6652;
      }
    </style>
  </defs>
  <path class="cls-10" d="M32.25,75.77c.16.05.16.12,0,.19-.06.2-.13.39-.22.58s-.18.36-.31.5c-4.14,4.35-8.35,8.66-12.69,12.81-2.42,2.31-5.2,4.69-8.45,5.55-1.33.35-2.69.58-3.92-.18-.06-.05-.31-.04-.47-.18-2.15-1.86-3.18-4.27-4.02-6.92v-3.74c.6-1.91,1.16-3.73,2.43-5.32,5.16-5.09,10.21-10.28,15.32-15.42l.35-.18c4.02,3.96,8.05,7.93,12.08,11.89l-.1.43Z"/>
  <path class="cls-5" d="M78.39,2.16c1.31,1.05,2.37,2.37,3.55,3.55l.17.36c-6.76,6.7-13.53,13.41-20.3,20.11l-.43-.1c-.92-.14-3.8-2.84-3.91-3.52-.02-.13-.02-.27,0-.4,6.59-6.73,13.25-13.41,19.99-19.99h.93Z"/>
  <path class="cls-2" d="M77.83,42.52l-.38.16-3.76-3.52c-1.23,1.03-2.35,2.16-3.36,3.41l-.54.14c-.95-.12-2.1-1.11-2.24-2.06l-.64-.28c-3.79-3.47-7.57-7.06-11.08-10.84-.15-.16-.25-.36-.36-.56s-.19-.42-.26-.65c-.69-.75-1.62-1.51-1.27-2.67.15-.48,2.94-2.91,3.51-3.49,1.17,1.44,2.62,2.62,3.92,3.92,1.69,1.17,3.13,2.61,4.3,4.3,1.66.94,2.98,2.27,3.92,3.92l.46-.07c1.13,1.37,2.35,2.61,3.67,3.74l20.11-20.03.43.1c.8.82,3.56,3,3.56,4.02,0,.26-.08.51-.22.72-6.54,6.63-13.13,13.22-19.78,19.73Z"/>
  <path class="cls-1" d="M63.63,44.76c.12-.09.3-.21.38-.14.63.52,3.26,3.05,3.61,3.61l-.07.46c-8.03,8.03-16.08,16.1-24.1,24.1-1.3,1.18-3.14,1.41-4.75.82-.78-.29-2.14-.89-2.16-1.76l-.17-.36s8.88-8.95,26.65-26.84l.43.1c.05-.16.12-.16.19,0Z"/>
  <path class="cls-8" d="M36.36,80.07c-4.71,4.69-10.28,11.01-15.22,15.14-4.36,3.64-10.13,3.38-14.48,0,3.61.76,7.37-1.44,10-3.73,5.18-4.51,10.66-10.56,15.6-15.51.12-.09.3-.21.38-.15.57.48,3.56,3.37,3.8,3.8l-.07.46Z"/>
  <path class="cls-7" d="M86.05,9.82l.17.36c-6.7,6.76-13.41,13.53-20.11,20.3l-.43-.1c-1.43-1.43-2.87-2.86-4.3-4.3l20.55-20.36c1.37,1.37,2.74,2.74,4.11,4.11Z"/>
  <path class="cls-7" d="M94.27,18.04l-20.37,20.28c-.22.17-.31.02-.47-.09-1.12-.77-2.77-2.89-3.82-3.93l-.17-.36,20.3-20.11.43.1c1.37,1.38,2.75,2.72,4.11,4.11Z"/>
  <path class="cls-5" d="M90.16,13.93l-20.55,20.36c-1.32-1.3-2.61-2.62-3.92-3.92l20.36-20.55c1.37,1.37,2.74,2.73,4.11,4.11Z"/>
  <path class="cls-4" d="M36.54,71.85c2.27,1.91,4.1,2.17,6.91.93-2.4,2.39-4.7,4.9-7.1,7.29l-4.11-4.11s-.03-.16,0-.19l.05-.57c1.22-1.03,2.34-2.16,3.34-3.4l.54-.14c.25-.43.42-.31.37.19Z"/>
  <path class="cls-9" d="M69.8,42.7c.73-.11,1.93,1.34,1.87,2.06-1.37,1.3-2.78,2.59-4.11,3.92l-3.92-3.92-.05-.6c1.01-1.26,2.14-2.42,3.38-3.46l.59-.05c.71.7,1.53,1.35,2.24,2.06Z"/>
  <path class="cls-1" d="M77.83,42.52c-.59.57-3.01,3.36-3.49,3.51-1.16.35-1.92-.58-2.67-1.27-.62-.57-1.25-1.45-1.87-2.06.95-1.56,2.6-2.76,3.86-4.1l4.18,3.91Z"/>
  <path class="cls-2" d="M63.45,44.76l-26.9,27.09c-.09-.08-.29-.11-.37-.19l-.46.09c-2.27-1.82-5.09-4.84-7.05-7.05-2.34-2.65-3.84-5.31-1.28-8.55,7.93-7.94,15.98-15.79,23.91-23.73l.36-.17c3.96,4.02,7.93,8.05,11.89,12.08l-.11.42Z"/>
  <path class="cls-6" d="M36.17,71.66c-.96,1.57-2.62,2.81-3.92,4.11l-12.33-12.14c2.48-2.5,4.98-4.98,7.47-7.47-.99,2.12-1.36,3.93-.22,6.11.78,1.49,7.4,7.98,9,9.4Z"/>
  <path class="cls-3" d="M67.56,40.65c-1.33,1.28-2.95,2.56-3.92,4.11h-.19l-12.14-12.33c1.33-1.33,2.63-2.74,3.92-4.11,3.79,4.11,8.32,8.36,12.33,12.33Z"/>
</svg>