<?xml version="1.0" encoding="UTF-8"?>
<svg id="Layer_2" data-name="Layer 2" xmlns="http://www.w3.org/2000/svg" viewBox="0 0 100 100">
  <defs>
    <style>
      .cls-1 {
        fill: #4a99b7;
      }

      .cls-2 {
        fill: #cb002f;
      }

      .cls-3 {
        fill: #626262;
      }

      .cls-4 {
        fill: #4590ab;
      }

      .cls-5 {
        fill: #606060;
      }

      .cls-6 {
        fill: #fe003b;
      }

      .cls-7 {
        fill: #e5e5e5;
      }

      .cls-8 {
        fill: #5e53c2;
      }

      .cls-9 {
        fill: #7668f3;
      }

      .cls-10 {
        fill: #636262;
      }

      .cls-11 {
        fill: #616161;
      }

      .cls-12 {
        fill: #b7b7b7;
      }

      .cls-13 {
        fill: #5cc0e5;
      }
    </style>
  </defs>
  <path class="cls-7" d="M73.2,32.43c-2.87,1.62-6.42,2.87-9.69,3.16l-2.43.47-22.85.18.15.5,20.13-.02.27.45c.2.06.19.14,0,.23l-.45.58c-1.37.17-2.53.66-3.5,1.46-.29.42,1.46,5.72,1.86,6.18.32.37,2.05-.25,2.52-.42l.47.32c.86.8,1.49,2.71,1.13,3.83l-.15.45h-22.26c-.17.14-.21.44-.13.9l22.94.1c.1-.13.2-.23.32-.26.28-.07,1.65,3.47.86,3.77l-.16.45h-23.69c-.43-.03-.35.31-.11.56l24.14.11.27.45c.68-.09,1.75,2.06,1.13,2.48.93,1.6,1.66,3.3,2.17,5.08,2.45,6.88,4.67,14,6.4,21.07.21,1.45-1.77,2.21-3.02,2.26H18.36c-2.34-.05-4.22-2.06-4.23-4.39-.1-24.72-.19-49.46.31-74.17.03-1.5,2.6-3.13,4.03-3.05h51.05c1.13.09,2.12.74,2.94,1.28-.16-1.07.01-1.79.52-2.18.03.14.37.45.24.76l-.02,27.41Z"/>
  <path class="cls-12" d="M72.98,4.25l-.11,3.83c-.54-1.46-1.86-2.27-3.38-2.48H18.31c-1.54.21-2.99,1.1-3.43,2.66-.68,24.64-.09,49.42-.3,74.11,0,2.13,1.77,4,3.94,3.95h50.96c1.31-.02,2.35-.74,3.03-1.81.79.21,1.38,1.57.9,2.25-.56.41-.39,1.15-.63,1.74-.52,1.3-2.08,2.57-3.54,2.55H11.33c-1.71-.17-3.38-1.75-3.5-3.49V4.58c.05-2.12,1.94-3.58,3.95-3.72h57.27c2.11.23,3.48,1.31,3.94,3.39Z"/>
  <path class="cls-6" d="M81.77,58.12c2.86,8.56,5.87,17.08,8.57,25.7,1.74,7.18-8.75,10.36-12.1,4.05-3.35-9.39-6.57-18.84-9.67-28.35-.05-.47,0-.94.13-1.39,4.35-.56,8.72-.56,13.07,0Z"/>
  <path class="cls-2" d="M68.69,58.12c2.12,9.39,7.03,19.1,9.46,28.52,2.73,7.05,12.72,4.61,12.18-2.82,1.37,3.19,2.59,6.55,1.3,9.98-1.61,4.26-6.39,6.3-10.66,4.91-5.32-1.73-5.95-7.32-7.54-11.96-.26-.76-.65-1.51-.9-2.25-2.96-8.67-5.62-17.47-8.57-26.15l.31-.54c.75-.32,3.91-.4,4.43.31Z"/>
  <path class="cls-1" d="M75.68,40.09c1.02,2.41,1.64,4.97,2.48,7.44l-.22.58-3.96,1.3c-3.64,1.04-6,4.48-4.93,8.22l-.35.5c-1.52,0-3.3-.19-4.73.23-.25-.75-.9-1.81-1.13-2.48-.72-.03-.99-1.12-.45-1.58-.16-.48-.81-3.33-1.04-3.4l-23.08-.21.16-.45h22.23c-.21-.41-.16-.71.15-.9-.41-1.26-.87-2.53-1.13-3.83.15-.17.3-.32.48-.46s.34-.25.53-.32c4.57-1.6,9.2-3.19,13.79-4.71.18-.06.38-.05.58-.04s.42.06.62.11Z"/>
  <path class="cls-13" d="M78.16,36.93l-.11.99c-.42.79-14.64,5.17-16.84,5.76-.31.08-.94-.11-1.22-.31-.46-.33-2.11-5.21-1.86-5.62l.63-.38v-.23l.36-.52c1.43-.48,2.88-.83,4.37-1.06,3.23-1.02,6.46-2.19,9.69-3.16.93-.28,2.34-1.05,3.15-.33.32.28,1.65,4.18,1.81,4.84Z"/>
  <path class="cls-2" d="M87.85,14.84c-.74.28-.85.33-1.36.92-1.07,1.22-2.94,4.76-3.44,6.34-1.83,5.87,6.09,8.53,8.53,3.06l.55-.17c-.27,10.26-17.79,8.39-13.7-3.44.72-2.09,3.81-7.81,5.26-9.39,2.02-2.22,3.31,1.34,4.16,2.69Z"/>
  <path class="cls-13" d="M81.77,58.12c-4.35,0-8.72,0-13.07,0-.52-2.29-.59-3.65.63-5.79,1.88-3.29,5.65-3.47,8.83-4.8,1.19,3.53,2.42,7.06,3.61,10.59Z"/>
  <path class="cls-6" d="M87.85,14.84c1.77,2.82,4.37,6.74,4.28,10.14-1.35,3.72-6.03,5.05-8.68,1.81-1.76-2.16-1.31-3.83-.3-6.17.42-.97,2.94-5.5,3.63-5.84.39-.19.71-.2,1.07.06Z"/>
  <path class="cls-4" d="M75.68,40.09c-4.89,1.62-10.74,3.85-16,5.41-.86.26-2.61,1.07-3.32.39-.23-.22-2.04-5.46-2.08-5.94-.14-1.77,3.18-2.16,4.5-2.56-.22.3-.23.59-.18.95.07.48,1.48,4.57,1.69,4.7.23.15.59.19.86.21,4.9-1.76,10.31-3.02,15.11-4.96.85-.34,1.57-.4,1.91-1.36.66,2.73-.3,2.43-2.48,3.16Z"/>
  <path class="cls-2" d="M53.59,65.34c-.89.61-1.3.93-1.94,1.84-1.27,1.8-4.2,7.11-3.85,9.23.92,5.57,8.37,6.16,10.39.91l.59-.26c0,6.76-8.25,10.5-13.53,6.2-2.79-2.27-3.65-5.48-2.7-8.91-.64-.41-.22-1.23.45-1.35.41-1.07,1.25-2.55,1.8-3.61-.4-.77.14-1.38.9-1.58.71-1.25,2.55-4.6,3.41-5.49,2.21-2.29,3.56,1.57,4.48,3.01Z"/>
  <path class="cls-6" d="M53.59,65.34c.53.83,1.09,1.61,1.58,2.48.81.22,1.23.76.9,1.58.58,1.1,1.37,2.49,1.8,3.61.71.11.99.85.45,1.35.27.96.45,1.68.45,2.7-1.13,3.04-3.53,4.72-6.86,4.26-2.54-.35-4.81-3.38-4.63-5.92.12-1.7,3.61-8.42,4.85-9.6.44-.42.86-.51,1.45-.47Z"/>
  <path class="cls-11" d="M20.57,20.25c-.56-.17-.45-1.32.27-1.53l40.19.07c.67.32.5,1.47.11,1.47H20.57Z"/>
  <path class="cls-9" d="M30.37,30.85c.13,1.96.13,4.8,0,6.76l-.28.69c-1.45.35-6.31.72-7.29-.27-.83-.83-.85-6.53-.11-7.44s6.61-.93,7.31-.36c.22.18.3.34.37.62Z"/>
  <path class="cls-9" d="M30.37,49.56c.13,1.96.13,4.8,0,6.76l-.26.59c-1.47.36-6.18.81-7.26-.16-.94-.85-.9-6.61-.12-7.54.92-1.09,5.9-.7,7.35-.35l.28.69Z"/>
  <path class="cls-9" d="M30.37,68.27c.12,1.92.13,4.61,0,6.54l-.31.73c-.7.6-6.16.63-6.96.07-1.19-.82-1.25-6.81-.28-7.79.91-.93,5.91-.62,7.27-.24l.29.68Z"/>
  <path class="cls-8" d="M30.37,74.8c-.07,1.01,0,1.82-1.25,2.01-1.38.22-6.23.2-7.66.02-.95-.12-1.36-.55-1.46-1.47-.19-1.77-.19-5.68-.01-7.46.08-.82.43-1.44,1.3-1.63,1.09-.25,6.14-.19,7.4-.05,1.57.17,1.6.68,1.69,2.03-.31-.27-.58-.41-1-.46-1.02-.11-4.73-.16-5.64.01-.83.16-.97.98-1.03,1.68-.09.97-.16,5.11.47,5.64s6.36.7,7.21-.33Z"/>
  <path class="cls-8" d="M30.37,30.85c-1.09-.62-6.26-.72-7.08-.2-.36.23-.51.6-.57,1.01-.14.9-.13,5.17.24,5.82.19.33.38.51.77.59.97.18,4.55.12,5.64.01.42-.04.69-.2,1-.46-.04.62.13.99-.43,1.49-.87.76-6.86.69-8.19.48-1.15-.18-1.65-.44-1.76-1.62-.11-1.1-.11-7.54.18-8.19s.89-.68,1.51-.74c1.56-.14,5.99-.21,7.44.02,1.26.21,1.18.79,1.25,1.79Z"/>
  <path class="cls-8" d="M30.37,49.56c-.31-.27-.58-.41-1-.46-1.02-.11-4.73-.16-5.64.01-.39.07-.58.26-.77.59-.37.65-.38,4.92-.24,5.82.06.4.21.78.57,1.01.82.52,5.99.42,7.08-.2-.07,1,0,1.58-1.25,1.79-1.44.24-5.88.17-7.44.02-.62-.06-1.22-.1-1.51-.74s-.29-7.09-.18-8.19c.11-1.18.61-1.44,1.76-1.62,1.32-.2,7.32-.28,8.19.48.56.49.39.86.43,1.49Z"/>
  <path class="cls-5" d="M38.38,32.2c-.99-.16-.53-1.58-.23-1.58h28.18c.65,0,.65,1.58,0,1.58h-27.95Z"/>
  <path class="cls-5" d="M27.33,13.72c-.49-.16-.58-1.58.23-1.58h26.6c.65,0,.65,1.58,0,1.58h-26.82Z"/>
  <path class="cls-11" d="M62.38,54.29c.2.57.3,1.13.45,1.58l-24.57-.11c-.71-.5-.67-1.52.33-1.48h23.79Z"/>
  <path class="cls-5" d="M63.51,35.58c-1.57.5-3.06,1.37-4.73,1.58h-20.4c-.61.07-.79-1.12-.43-1.38l25.57-.2Z"/>
  <path class="cls-3" d="M60.8,49.33c.08.24.58,1.24.45,1.35h-22.99c-.65-.16-.68-1.29.11-1.35h22.43Z"/>
  <path class="cls-3" d="M56.07,69.39c-.28-.54-.6-1.05-.9-1.58,3.32.28,7.24-.38,10.49,0,1.37.16,1.76,1.38.67,1.58h-10.26Z"/>
  <path class="cls-5" d="M58.33,74.35c-.11-.38-.31-.98-.45-1.35,2.6.23,5.7-.31,8.24-.01.7.08,1.12.54.68,1.15-.35.5-7.3.05-8.47.21Z"/>
  <path class="cls-10" d="M45.7,67.82c-.29.52-.63,1.06-.9,1.58-1.91-.24-4.62.33-6.42,0-.61-.11-.76-.62-.46-1.13.54-.9,6.51-.24,7.78-.45Z"/>
  <path class="cls-5" d="M43,73c-.12.31-.36,1.04-.45,1.35-.82-.13-4.3.27-4.64-.21s-.12-1.03.47-1.14c1.31-.24,3.23.17,4.62,0Z"/>
</svg>