<?xml version="1.0" encoding="UTF-8"?>
<svg id="Layer_2" data-name="Layer 2" xmlns="http://www.w3.org/2000/svg" viewBox="0 0 100 100">
  <defs>
    <style>
      .cls-1 {
        fill: #61937d;
      }

      .cls-2 {
        fill: #e8f0f1;
      }

      .cls-3 {
        fill: #f5ba8f;
      }

      .cls-4 {
        fill: #cfd7d9;
      }

      .cls-5 {
        fill: #ed2f56;
      }

      .cls-6 {
        fill: #f7c39d;
      }

      .cls-7 {
        fill: #83ad9a;
      }

      .cls-8 {
        fill: #f5b88c;
      }

      .cls-9 {
        fill: #f37c93;
      }

      .cls-10 {
        fill: #f05574;
      }

      .cls-11 {
        fill: #f8ccad;
      }

      .cls-12 {
        fill: #f6ba90;
      }

      .cls-13 {
        fill: #f2a168;
      }
    </style>
  </defs>
  <path class="cls-8" d="M68.43,6.85V1.87h23.24v51.55c0,.65,5.16,9.83,5.85,11.58,1.64,4.19.77,8.74-3.36,10.93l-.18-.62c1.2-2.82.38-5.8-.92-8.43-2.25-3.83-3.85-7.66-4.99-11.85-3.3-1.41-6.99-1.3-10.54-1.12-4.92.26-9.57.7-12.54,5.06l-.5-.05c1.01-2.54,2.17-3.75,3.94-5.71V10.17s.5-.42.5-.42c1.93-.18,4.98-.26,6.86.06,3.17.53,3.19,4.23,3.03,6.75l-.42.24c-.44.52-.8.52-1.24,0-.61.6-1.46.59-2.07,0,.16.02.39.06.41.19.19,1.06.11,4.97,0,6.15l-.41.3.19-.41h9.52l.25.41c-.41-1.1-.41-2.22,0-3.32l-.41-.24v-2.66c-1.02.11-1.99-.03-2.9-.43l-.41-.43c.42-6.4-1.68-8.96-8.03-9.21l-4.46.1-.38-.42Z"/>
  <path class="cls-8" d="M5.99,24.28l.22.62c-.94,2.73-.22,5.54,1.01,8.06,2.28,3.78,3.95,7.79,5.01,12.03,4.92,1.78,10.86,1.38,15.96.47,2.92-.52,5.37-1.61,6.86-4.33l.61-.25c.21-.28.28-.21.21.21-1.01,2.51-2.16,3.74-3.94,5.71v43.04s-.5.42-.5.42c-1.93.18-4.98.26-6.86-.06-3.17-.53-3.19-4.23-3.03-6.75l.42-.24c.98-.52,2.02-.54,3.06-.21-.27-1.05-.06-2.09.26-3.11-.32-1.02-.52-2.06-.25-3.1-2.49.3-5.21.44-7.63-.22-.66.57-1.4.57-2.07,0,.16.02.41.07.41.19.06.74.13,5.79,0,6.15l-.41.3c1.09-.57,2.23-.58,3.32,0l.41.43c-.42,6.4,1.68,8.96,8.03,9.21l4.46-.1.38.42v4.98H8.69v-51.55c0-.65-5.16-9.84-5.85-11.58-1.66-4.2-.85-8.4,3.15-10.72Z"/>
  <path class="cls-11" d="M64.49,58.92l1.73-2c1.94-1.83,4.04-2.66,6.67-2.97,3.82-.46,9.44-.97,13.09-.03.54.14,2.07.55,2.42.84.23.18,1.37,4.6,1.77,5.55,2.08,4.94,6.68,10,3.98,15.63-1.3.69-2.61,1.17-4.15,1.04l-.25.38c-4.88-.7-9.77-1.4-14.68-2.1-.72-.5-.35-1.72-.12-2.49s.9-2.36,1.76-2.22c-.2-.44.04-.84.73-1.22.7-.57,2.67-1.92,3.32-1.06,0-.16.03-.4.14-.41,1.96-.33,5.46.01,7.43.41-6-.81-8.12-6.94-6.64-12.24-.04-.56-.18-.42-.41.41.26.64-.37,2.14-1.04,2.28-1.61,4.28-6.57,4.91-10.59,5.05-1.75.06-3.98.06-5.72-.07l-.5-.41c.11-1.88.38-2.7,1.04-4.36Z"/>
  <path class="cls-11" d="M10.35,23.03l.25-.38c4.88.7,9.78,1.4,14.68,2.1.71.52.31,1.78.05,2.56s-.85,2.27-1.71,2.15l.1.51c-.41.65-3.49,2.72-4.14,1.77,0,.16-.04.41-.14.41-2.42.19-5.27.05-7.64-.41,6.22.43,8.21,7.01,6.85,12.24-.01.58.12.44.41-.41-.41-.58.36-2.15,1.04-2.28,1.64-4.32,6.62-4.91,10.67-5.05,1.72-.06,3.94-.06,5.64.08l.49.41c-.07,1.35-.26,1.9-.62,3.11-.16.43-.37.78-.62,1.04-2.33,4.46-6.09,4.95-10.69,5.39-3.49.34-7.2.71-10.6-.18-.84-.22-1.61-.57-2.43-.84-.6-1.87-1-3.72-1.76-5.55-2.09-4.97-6.44-9.69-4.19-15.42,1.58-.92,2.4-1.29,4.36-1.24Z"/>
  <path class="cls-5" d="M51.84,59.96v26.87c-.23,3.27-2.65,5.94-5.94,6.29-4.06.44-9.75.06-13.98.03-4.18-.03-9.84,1.04-12.28-3.18-1.27-2.2-1.01-4.34-1-6.78,1.12-.51,2.2-.51,3.32,0-.09,2.56-.39,6.25,3.01,6.64,2.03.23,4.81-.02,6.95,0,4.09.03,9.67.42,13.59,0,1.68-.18,2.95-1.5,3.02-3.21v-26.67c.59-.56,2.71-.56,3.31,0Z"/>
  <path class="cls-8" d="M63.45,70.54c.64-3.46,5.03-3.58,6.65-.7,1.23-2.16,3.8-2.77,5.74-1.09.48.41,1.38,1.22.89,1.79-1.01,1.17-1.75,2.73-1.64,4.34l14.91,2.09c-.32,2.99,1.46,9.54-3.32,9.54l-.44-.22c-.03-1.66,0-3.32.11-4.98.11-1.78-.59-4.41-2.62-4.11l.08,5.59c.06.7-.16,1.18-.66,1.43-.4,1.41-1.64,2.28-3.11,2.28l-.44-.22c-.03-1.66,0-3.32.11-4.98.11-1.78-.59-4.41-2.62-4.11l.08,5.59c.06.7-.16,1.18-.66,1.43-.4,1.41-1.64,2.28-3.11,2.28l-.42-.19-.02-11.89c-.18-1.21-1.27-2.31-2.5-2.36l.09,10.19c.12,1.07-.1,1.73-.68,1.97-.4,1.41-1.64,2.28-3.11,2.28l-.42-.19-.06-12.15c-.31-1.2-1.4-2.06-2.62-2.18l-.22-.42c0-.35,0-.69,0-1.04Z"/>
  <path class="cls-8" d="M13.66,13.49l.44.21c.03,1.66,0,3.32-.11,4.99-.04,1.87.37,3.98,2.54,4.29-.04-2.29,0-4.59.16-6.89l.5-.31c.4-1.42,1.64-2.31,3.11-2.28l.44.21c.03,1.66,0,3.32-.11,4.99-.04,1.87.37,3.98,2.54,4.29-.04-2.29,0-4.59.16-6.89l.5-.31c.4-1.42,1.64-2.31,3.11-2.28l.42.19.02,11.89c.18,1.2,1.25,2.36,2.5,2.36l-.09-10.19c-.12-1.07.1-1.73.68-1.97.4-1.42,1.64-2.31,3.11-2.28l.42.19.04,12.05c.3,1.24,1.32,2.18,2.61,2.27l.25.42c0,.35,0,.69,0,1.04-.64,3.46-5.03,3.58-6.65.7-1.23,2.16-3.8,2.77-5.74,1.09-.48-.41-1.38-1.22-.89-1.79,1.01-1.21,1.69-2.74,1.64-4.34l-14.92-2.09c.32-2.22-.69-6.43.62-8.19.68-.92,1.55-1.37,2.7-1.35Z"/>
  <path class="cls-5" d="M68.43,6.85c4.18.03,9.84-1.04,12.28,3.18,1.27,2.2,1.01,4.34,1,6.78-1.12.51-2.2.51-3.32,0,.09-2.56.39-6.25-3.01-6.64-2.03-.23-4.81.02-6.95,0-4.09-.03-9.67-.42-13.59,0-1.68.18-2.95,1.5-3.02,3.21v21.69c-.55.08-1.09-.23-1.64-.91-.6.68-1.16.98-1.67.91V12.97c.3-3.2,2.71-5.75,5.94-6.1,4.07-.44,9.74-.06,13.98-.03Z"/>
  <path class="cls-9" d="M51.84,35.06c4.57,4.78,10.63,13.03,7.05,19.71-.16.07-.31.14-.48.18-1.18.28-5.87-1.62-6.57-2.88-.18-.06-.18-.13,0-.21-.29-.54.32-.76,1.83-.67,1.69-.22,1.36-2.54-.33-2.46-.94.14-1.55-.04-1.85-.53.48-3.75-3.11-3.75-2.6-.03-.12.67-.6.58-.99.15-.04.18-.11.18-.21,0-1.03-.53-1.81-1.47-2.33-2.84-.68-1.27-1.64-3.06-1.41-4.42,1.33-1.98,2.92-4.3,4.56-6.02.22-.23,1.55-1.47,1.73-1.44.46.5,1.14.97,1.58,1.44Z"/>
  <path class="cls-10" d="M47.69,48.34l-.07.28c-3.32.22-2.37,3.24.77,2.68.44.19.59.67.43,1.43.19,2.73,2.89,2.36,2.63-.29l.38-.36c2.21,1.27,4.55,2.18,7.05,2.7-1.3,2.42-4.28,4.83-7.05,5.19-.73.09-2.6.1-3.32,0-2.74-.37-6.09-3.01-7.3-5.46-2.5-5.08-.05-9.26,2.73-13.42.94,2.59,1.96,5.1,3.73,7.26Z"/>
  <path class="cls-8" d="M36.9,36.72c-6.2.13-12.76-1.34-16.8,4.56l-.31-.49c.49-1.85-.17-3.27-.99-4.84-.84-2.96,1.67-3.03,3.88-3.03l2.08-.68c1.61.73,3.16,1.33,4.41-.34.84-1.63,1.47-1.39,2.23.1,1.59,1.75,4.1,1.1,5.01-.97l.49-.11c-.02,1.91.1,3.92,0,5.81Z"/>
  <path class="cls-8" d="M80.26,58.71l.31.49c-.49,1.85.17,3.27.99,4.84.84,2.94-1.65,3.03-3.87,3.02l-2.09.68c-1.6-.74-3.17-1.32-4.41.35-.5,1.09-1.05,1.37-1.63.84-1.19-2.66-4.43-2.56-5.61.02l-.5.12c.02-1.91-.11-3.93,0-5.81,6.19-.13,12.78,1.32,16.8-4.56Z"/>
  <path class="cls-13" d="M23.62,29.46c1.13,2.15,3.49,3.24,5.5,1.46.51-.14.84-1.57,1.24-1.46.17.05.22.58.43.82,2.08,2.43,4.63,1.83,6.11-.82,0,.48,0,.97,0,1.45-.93,2.53-3.87,3.45-5.82,1.36-.31-.33-.6-1.24-.92-1.15-.17.05-.77,1.94-2.54,2.23s-2.26-.7-2.85-.71c-.25,0-1.53.62-2.13.7-1.46.2-3.69-.43-3.6,1.82.04.93,1.09,2.14,1.25,3.33.12.91.04,1.9-.19,2.78-.22.87-.81,1.54-1.04,2.28-.11.33-.25.47-.41.41-.08-5.09.33-9.18-5.11-11.59l-1.73-.65h7.78c1.16,0,3.3-1.4,4.05-2.28Z"/>
  <path class="cls-13" d="M81.71,56.02c.07,4-.46,7.71,3.13,10.46l3.51,1.78h-7.57c-1.25,0-3.24,1.35-4.05,2.28-1.13-2.15-3.49-3.24-5.5-1.46-.51.14-.84,1.57-1.24,1.46-.17-.05-.22-.58-.43-.82-2.08-2.43-4.63-1.83-6.11.82,0-.48,0-.97,0-1.45.82-2.13,2.93-3.18,5.05-2.04.61.11,1.31,1.94,1.69,1.84.17-.04.76-1.95,2.54-2.23,1.7-.28,2.24.67,2.86.71.16.01,1.58-.63,2.13-.7,1.46-.2,3.69.43,3.6-1.82-.04-.93-1.09-2.14-1.25-3.33-.12-.91-.04-1.9.19-2.78.16-.64.68-1.74,1.04-2.28.08-.38.22-.52.41-.41Z"/>
  <path class="cls-11" d="M26.94,13.49c1.18.02,2.11.51,2.79,1.46.31.43.15,1.33.73.82-.11.39-.18.72-.21,1.13-.29,3.7.23,7.78,0,11.52-1.62.05-3.08-1.23-3.3-2.82l-.02-12.12Z"/>
  <path class="cls-11" d="M73.41,86.51c-1.16,0-2.13-.53-2.79-1.46-.31-.43-.15-1.33-.73-.82.11-.39.18-.72.21-1.13.29-3.7-.23-7.78,0-11.52,1.58-.01,3.08,1.23,3.3,2.82l.02,12.12Z"/>
  <path class="cls-11" d="M36.9,28.42c-1.59.03-2.94-1.12-3.27-2.64l-.05-12.29c1.54.03,3.01,1.07,3.27,2.64.52,3.07.07,8.92.05,12.29Z"/>
  <path class="cls-11" d="M66.77,86.51c-1.54,0-3.01-1.1-3.27-2.64-.52-3.07-.07-8.92-.05-12.29,1.49-.03,3.02,1.17,3.27,2.64l.05,12.29Z"/>
  <path class="cls-11" d="M13.66,13.49c1.18.02,2.11.51,2.79,1.46.31.43.15,1.33.73.82-.62,2.21.04,5.34-.21,7.68-5.04-.38-2.85-6.58-3.32-9.96Z"/>
  <path class="cls-11" d="M20.3,13.49c1.18.02,2.11.51,2.79,1.46.31.43.15,1.33.73.82-.62,2.21.04,5.34-.21,7.68-5.04-.38-2.85-6.58-3.32-9.96Z"/>
  <path class="cls-11" d="M80.05,86.51c-1.16,0-2.13-.53-2.79-1.46-.31-.43-.15-1.33-.73-.82.62-2.21-.04-5.34.21-7.68,5.04.44,2.86,6.53,3.32,9.96Z"/>
  <path class="cls-11" d="M86.69,86.51c-1.16,0-2.13-.53-2.79-1.46-.31-.43-.15-1.33-.73-.82.62-2.21-.04-5.34.21-7.68,5.04.44,2.86,6.53,3.32,9.96Z"/>
  <path class="cls-6" d="M35.86,41.08l-.21-.21c.19-.36.3-.76.62-1.04-.15.52-.21.73-.41,1.24Z"/>
  <path class="cls-4" d="M77.15,16.81l.51.21c1.08,2.9,4.42,2.85,7.03,2.71l.35.4c0,1.1,0,2.22,0,3.32h-9.96v-6.64c.69,0,1.39.01,2.07,0Z"/>
  <path class="cls-2" d="M78.39,16.81c1.1,0,2.22,0,3.32,0s2.22,0,3.32,0v3.32c-3.14.16-6.77.29-7.88-3.32.41,0,.83,0,1.24,0Z"/>
  <path class="cls-4" d="M17.4,76.55l.51.21c1.08,2.9,4.42,2.85,7.03,2.71l.35.4c0,1.1,0,2.22,0,3.32-1.1,0-2.22,0-3.32,0s-2.22,0-3.32,0-2.22,0-3.32,0v-6.64c.69,0,1.39.01,2.07,0Z"/>
  <path class="cls-2" d="M17.4,76.55c2.62-.04,5.26.03,7.88,0,0,1.1,0,2.22,0,3.32-3.14.16-6.77.29-7.88-3.32Z"/>
  <path class="cls-12" d="M81.71,56.02c-.13.14-.31.26-.41.41l.21-1.87c.39.12.2,1.1.21,1.45Z"/>
  <path class="cls-3" d="M19.06,43.57c-.17.56-.22,1.28-.21,1.87-.39-.12-.2-1.1-.21-1.45l.41-.41Z"/>
  <path class="cls-7" d="M47.9,48.34c.21,0,.42,0,.62,0-.8-4.5,4.12-4.5,3.32,0,1.33-.06,3.26-.24,3.33,1.56.08,1.91-1.66,1.77-3.03,1.76-.32,0-.29.2-.31.2-.09.17-.23.24-.4.31-.32.13-3.55-2.77-3.79-3.4l.24-.43Z"/>
  <path class="cls-1" d="M47.69,48.34c.07,0,.14,0,.21,0,.29.84,3.3,3.52,3.94,3.53v.21c.54,4.27-4.21,3.72-3.32-.42-1.59.18-3.75.02-3.28-2.13.29-1.31,1.47-1.12,2.45-1.19Z"/>
</svg>