<?xml version="1.0" encoding="UTF-8"?>
<svg id="Layer_2" data-name="Layer 2" xmlns="http://www.w3.org/2000/svg" viewBox="0 0 100 100">
  <defs>
    <style>
      .cls-1 {
        fill: #f2f0fb;
      }

      .cls-2 {
        fill: #cfcdf1;
      }

      .cls-3 {
        fill: #d22f2f;
      }

      .cls-4 {
        fill: #bcbeda;
      }

      .cls-5 {
        fill: #cfcef1;
      }

      .cls-6 {
        fill: #bcbed9;
      }

      .cls-7 {
        fill: #dedeec;
      }

      .cls-8 {
        fill: #e7e7fb;
      }

      .cls-9 {
        fill: #636f8a;
      }

      .cls-10 {
        fill: #b6b8d4;
      }

      .cls-11 {
        fill: #8991ab;
      }

      .cls-12 {
        fill: #4c5c75;
      }

      .cls-13 {
        fill: #e8e6fb;
      }

      .cls-14 {
        fill: #e47373;
      }

      .cls-15 {
        fill: #e0def6;
      }

      .cls-16 {
        fill: #e89595;
      }

      .cls-17 {
        fill: #dddefa;
      }

      .cls-18 {
        fill: #9ca2ba;
      }
    </style>
  </defs>
  <g>
    <path class="cls-1" d="M72.22,32.44c.12-.4.81-.06,1.05.24,4.13,6.15,8.29,12.31,13.02,18.29,2.03,2.57,4.27,4.81,6.72,6.86,1.36,1.08,2.33,3.42,1.16,4.79.18,5.6-.14,11.22.22,16.81l1.38,15.88-.6-.35c-2.35-6.12-8.95-9.34-15.23-7.65-1.15.3-1.97.15-2.46-.45l-.51-.71c-2.49-8.11-3.93-16.58-5.34-24.95l.14-.85c-.18-.49-.18-.95,0-1.37l-.3-.07-.38-5.42c-.29-.47-.19-1.1,0-1.6-.08-.1-.15-.1-.23,0,.13,1.03.13,2.2-.23,3.2l-.62,6.53-.29.1c.17.36.17.74,0,1.14-.36,4.83-1.42,9.74-2.5,14.5-.27,2.19-.89,4.21-1.85,6.07-2.19-.27-4.39-2.2-6.07-3.7-6.79-6.06-8.55-13.56-9.43-22.02-.37-.55-.46-1.05-.27-1.48l.73-1.17c4.6-4.9,9.23-9.77,13.9-14.61,1.35-2.28,2.98-4.39,4.9-6.35.59-1.07,2.16-3.18,3.1-1.65Z"/>
    <path class="cls-1" d="M72.68,31.29l-.56.42c-5.09-.2-9.26,2.59-11.86,6.8-12.42,14.98-30.38,22.19-49.56,19.02-2.32-.25-4.65.05-6.77,1.11l-.73-.14c3.2-3.09,6.71-5.86,9.95-8.91,5.53-5.22,10.15-10.79,15.3-16.24,1.79-1.89,2.07-2.13,4.79-2.29,12.02-.71,26-.14,38.18,0,.39,0,1.02-.15,1.25.23Z"/>
    <path class="cls-8" d="M65.37,83.4c.04.31.08.63.08.94s0,.61-.07.9c-.98,3.94-2.06,7.9-3.36,11.74-.09.27-.25.52-.42.78s-.36.49-.57.73c.2.06.2.14,0,.23-18.62.02-37.27.2-55.89,0-.39,0-1.02.15-1.25-.23l.16-.46h39.81c.26-1.91.4-3.84.43-5.79l.51-.61-.22-.86c.7-9.42,1.3-18.79.3-28.12-.26-.72-.29-1.35-.08-1.88-.1-.2,0-.27.23-.23.91-1.83,2.71-3.49,4.57-4.34,1.4,1.85,1.05,4.45,1.41,6.7,1.45,9.24,6.18,16,14.36,20.49Z"/>
    <path class="cls-15" d="M16,63.29c-3.26.59-6.58.58-9.87.3l.25.68c-1.03,19.79,18.81,34.39,37.34,27.3l1.08.06c-.2,2-.09,4.26-.46,6.28-.05.26-.07.46-.37.54l-40.08.03c-.59-.03-.94-.44-.93-1.03,1.5-11.4,1.76-22.94.93-34.4l.22-.45c3.88.07,7.76.15,11.63.22l.26.46Z"/>
    <path class="cls-8" d="M72.68,31.29c.72.07,1.5.18,1.83.91-.15.6-.53.6-1.14,0-.17.27-.55.34-1.14.23-1.85-.3-1.83.86-2.75,1.94-1.72,2.04-3.49,4.06-5.25,6.06-5.64,6.21-11.65,12.12-18.18,17.62-.16.13-.36.2-.58.28s-.44.12-.67.16c-.55,1.6-3.42,3.57-5.1,3.88-12.17,0-24.1,0-35.81,0-.64-1.08-2.98.29-3.15-1.52-.06-.69,1.85-2.04,2.46-2.36,4.77-2.51,7.84-1.16,12.68-.9,19.11,1.01,31.39-5.49,43.9-19.21.9-.99,1.69-2.4,2.61-3.33,2.56-2.59,6.65-4.13,10.3-3.76Z"/>
    <path class="cls-8" d="M95.76,95.29c.35,1.16,1.02,3.02-.62,3.38l-14.24.05c-.44-.13-.44-.34,0-.46-.17-.17-.33-.34-.46-.54-.72-1.03-2.77-7.91-3.04-9.49-.08-.47-.04-.94.08-1.4,2.05.35,4.34-.49,6.27-.47,5.25.07,10.49,3.9,12.01,8.92Z"/>
    <path class="cls-13" d="M74.51,32.21c7.76,9.89,15.95,19.42,24.56,28.57,1.09,2.38-2.64,1.82-3.99,1.82l-.38-.48c.31-1.66-.38-3.11-1.58-4.2-7.68-6.76-14-16.04-19.51-24.85-.15-.24-.21-.54-.24-.86.37.04.77-.03,1.14,0Z"/>
    <path class="cls-2" d="M45.02,60.55c-.08.07-.15.15-.23.23-.01,1.39-2.34,3.21-3.75,3.2l-21.2-.22c-1.29-.06-2.58-.22-3.85-.46l-12.11-.23c-.01-.2-.03-.5,0-.69.03-.16-.12-.49.14-.46h35.63c1.54-.17,3.88-2.39,5.14-3.42.85.14.66,1.47.23,2.06Z"/>
    <path class="cls-5" d="M73.36,32.21c3.91,5.51,7.45,11.27,11.67,16.56,1.82,2.29,3.76,4.68,5.81,6.76,2.23,2.27,5.04,3.08,4.24,7.08-.3,0-.61,0-.91,0-.03-.78.06-1.56-.06-2.34-.3-1.95-3.51-4.02-4.97-5.54-3.86-3.99-7.28-8.76-10.47-13.3-.88-1.26-5.39-8.55-6-8.86-.15-.08-.28-.1-.45-.12l.13-.47c.34.12.65.2,1.01.24Z"/>
    <path class="cls-10" d="M75.19,98.49c.04-.2.12-.2.23,0,.2.06.2.14,0,.23-4.8,0-9.6,0-14.4,0v-.23c.55-.48,2.31-.89,2.74-.23.24-.12.49-.22.75-.3,1.24-.37,8.63-.17,9.92.22.26.08.51.19.76.31Z"/>
    <path class="cls-10" d="M80.91,98.72c-1.83,0-3.66,0-5.49,0v-.23l.52-.45c1.47.09,2.93.05,4.39-.12l.58.35c.03.13-.02.31,0,.46Z"/>
    <path class="cls-2" d="M71.76,58.95c-.17.42-.17.88,0,1.37,1.88,9.26,3.15,17.3,5.71,26.51,1.06,3.79,2.45,7.73,3.43,11.43-1.72.42-3.7.22-5.49.23-.08,0-.15,0-.23,0-.17-.41-.33-.81-.45-1.23s-.25-.83-.31-1.25c-1.79-12.82-3.53-25.74-3.6-38.71l.25-1.32c-.43-.45-.22-1.07,0-1.6-.3-.29-.28-.61,0-.91l.69,5.49Z"/>
    <path class="cls-2" d="M70.62,55.98c.42,7.26-.63,14.81-1.8,22.01-.98,6.06-2.23,12.28-3.97,18.17-.11.37-.28.72-.46,1.08s-.4.7-.62,1.03c-.66,0-1.88.47-2.74.23,1.7-4.93,3.04-9.87,4.34-15.08,1.71-6.84,2.81-13.71,4.34-20.57.16-.41.16-.79,0-1.14.23-1.72.45-5.3.91-6.63.34.16.35.76,0,.91Z"/>
    <path class="cls-17" d="M64.22,40.44c-4.72,5.39-9.55,10.71-14.63,15.77-1.48,1.48-3.05,2.9-4.57,4.34l-.23-2.06c6.16-5.05,13.17-11.4,18.39-17.38.1-.11.86-1.08,1.03-.68Z"/>
    <path class="cls-11" d="M71.08,53.46c0,.3,0,.61,0,.91-.05.51-.21.74-.46.69.05-1.15.1-2.05.23-3.2.06-.2.14-.2.23,0,.01.53,0,1.07,0,1.6Z"/>
    <path class="cls-4" d="M71.76,60.32c-.06-.29-.61-.96,0-1.37v1.37Z"/>
    <path class="cls-18" d="M71.08,51.86h-.23c.05-.42-.14-1.03.11-1.37.21,0,.11,1.09.11,1.37Z"/>
    <rect class="cls-7" x="70.85" y="48.21" width=".22" height="1.37"/>
    <path class="cls-6" d="M69.71,62.83c.03-.37-.05-.78,0-1.14.6.33.05.91,0,1.14Z"/>
    <path class="cls-2" d="M35.42,51.86c-.54.1-2.36.33-2.73.08s-1.71-5.56-1.86-6.4l.25-.53.76-.48c4.66-.33,9.13-1.39,13.41-3.17.89.69-.65,2.06-1.25,2.75-1.41,1.6-3.54,3.72-5.14,5.14-.73.65-2.67,2.35-3.43,2.63Z"/>
    <path class="cls-13" d="M45.25,41.35c-.52.71-1.64,1-2.46,1.31-4.18,1.59-7.24,2.22-11.71,2.34-.67.67-1.61.66-2.29,0-1.03,0-5.42.17-5.95-.11-.28-.15-.24-.29,0-.46,2.36-.61,4.68-1.37,6.99-2.16,3.74-1.28,3-.8,6.84-.69,2.72.08,5.39-.24,8.09-.42.41-.03.27.02.49.18Z"/>
    <path class="cls-17" d="M31.08,45.01c.73,1.22,1.26,5.82,1.94,6.63.39.47,1.78.13,2.4.22-.29.1-.31.2-.77.24-2.62.24-8.91.3-11.47,0-2.59-.31,1.63-3.03,2.19-3.55,1.19-1.12,2.35-2.32,3.43-3.55.76,0,1.53.02,2.29,0Z"/>
    <path class="cls-1" d="M44.8,91.63c-9.14,3.86-18.96,2.59-27.04-3.01-8.56-5.95-12.15-15.01-11.81-25.33,3.35,0,6.71.01,10.06,0,8.35-.02,16.68.19,25.03.23,1.97-.22,2.48-1.53,3.77-2.74.53.85.58,2.27.68,3.32.9,9.16.22,18.45-.68,27.54Z"/>
    <path class="cls-12" d="M71.08,55.98c.14,6.12.57,12.3,1.14,18.4.75,8.06,2.02,16.08,2.97,24.11-3.8,0-7.71-.22-11.43-.23,4.08-13.72,6.15-27.97,6.86-42.28.07-.61.28-.58.46,0Z"/>
    <path class="cls-9" d="M71.08,55.98h-.46c.01-.3-.01-.61,0-.91.07-.21.34-.47.46-.69,0,.53-.01,1.07,0,1.6Z"/>
  </g>
  <g>
    <path class="cls-2" d="M23.83,86.71h-.18s-.05-.01-.07,0h-.67s-.05-.01-.07,0h-.22c-.35-.11-.71-.15-1.06-.25-2.2-.64-3.91-2.63-4.18-4.92-.2-1.62.59-3.45,1.21-4.92,1.24-2.96,2.79-5.79,4.29-8.62.17-.28.52-.32.73-.05,1.32,2.46,2.66,4.93,3.8,7.48.56,1.25,1.21,2.71,1.55,4.03.8,3.08-1.03,6.06-4.01,6.99l-1.1.25Z"/>
    <polygon class="cls-2" points="22.91 86.71 22.83 86.71 22.88 86.68 22.91 86.71"/>
    <polygon class="cls-2" points="23.65 86.71 23.57 86.71 23.62 86.68 23.65 86.71"/>
  </g>
  <g>
    <path class="cls-3" d="M23.49,86.87h-.17s-.04,0-.07,0h-.62s-.04,0-.07,0h-.21c-.33-.1-.67-.14-1-.23-2.06-.6-3.65-2.46-3.91-4.6-.19-1.51.56-3.23,1.13-4.6,1.16-2.77,2.61-5.42,4.01-8.06.16-.27.49-.3.68-.04,1.24,2.3,2.49,4.61,3.56,7,.53,1.17,1.13,2.53,1.45,3.77.75,2.89-.96,5.67-3.75,6.54l-1.03.23Z"/>
    <polygon class="cls-16" points="22.63 86.87 22.56 86.87 22.6 86.84 22.63 86.87"/>
    <polygon class="cls-16" points="23.32 86.87 23.25 86.87 23.29 86.84 23.32 86.87"/>
    <path class="cls-14" d="M19.95,80.96c.45-.04.38.49.43.77.18,1.03.93,1.9,1.97,2.12.31.07.93,0,.96.42.04.64-1.11.33-1.45.21-1.12-.38-2.01-1.41-2.2-2.58-.05-.3-.16-.89.29-.93Z"/>
  </g>
</svg>