<?xml version="1.0" encoding="UTF-8"?>
<svg id="Layer_2" data-name="Layer 2" xmlns="http://www.w3.org/2000/svg" viewBox="0 0 100 100">
  <defs>
    <style>
      .cls-1 {
        fill: #5ed2f1;
      }

      .cls-2 {
        fill: #b42f28;
      }

      .cls-3 {
        fill: #f1f1f1;
      }

      .cls-4 {
        fill: #df4a46;
      }

      .cls-5 {
        fill: #e1e6f5;
      }

      .cls-6 {
        fill: #d13f34;
      }

      .cls-7 {
        fill: #f1b8a0;
      }

      .cls-8 {
        fill: #fae0c9;
      }

      .cls-9 {
        fill: #4fb4db;
      }
    </style>
  </defs>
  <path class="cls-8" d="M23.86,89.1c-1.03-.83-1.59-1.94-1.63-3.26-2.69-4.04-4.88-8.46-6.52-13.03,6.11-2.62,9.94-7.72,16.99-8.15,6.61-.41,9.08,2.74,14.49,3.24,5.72.52,15.16-2.32,17.18,4.91l-.14.41h-15.7l-.25-.41c.67.34.64,2.86,0,3.26l.19-.41h15.72c-.11-.45.08-.87.38-1.22,3.31-2.58,6.37-5.79,9.68-8.34,4.47-3.46,9.14-5.19,11.46,1.56,0,.35-1.79,2.01-2.2,2.41-4.06,3.94-8.94,8.59-13.23,12.22-6.71,5.66-13.6,5.69-22.1,5.2-3.07-.18-5.96-1.22-8.98-1.61-5.3-.69-10.7.73-15.35,3.23Z"/>
  <path class="cls-4" d="M65.81,19.06v.8c-4.87,8.35-2.05,19.28,6.32,24.15l.4.69c-1.06,7.14-6.76,13.21-13.84,14.66-4.97-.52-9.6-4.59-11.91-8.93-7.14-13.43,4.01-31.39,11.63-42.29l.48-.29c2.31,3.73,4.68,7.43,6.92,11.2Z"/>
  <path class="cls-3" d="M92.48,42.48c-11.46,4.94-24.29-3.37-25.01-15.99-.28-4.93,1.5-10.79,5.67-13.73,18.86-9.29,35.29,16.41,19.34,29.73Z"/>
  <path class="cls-6" d="M58.88,7.87c-4.62,7.98-10.63,15.43-12.77,24.59-1.53,6.6-1.96,13.48,1.93,19.33,2.56,3.85,6.27,6.21,10.63,7.59-8.04,1.64-16.12-2.03-19.86-9.36-4.4-8.63-.67-21.02,3.81-28.98,3.71-6.59,8.18-12.87,11.88-19.48l.4-.21c1.39,2.11,2.64,4.36,3.97,6.51Z"/>
  <path class="cls-9" d="M22.24,85.85c.54,1.09,1.1,2.17,1.63,3.26.22.46,1.64,3.1,1.54,3.26l-13.12,6.28L1.08,76.17c2.09-1.26,4.33-2.25,6.49-3.36h.45s6.58,13.17,6.58,13.17c1.2,1.76,2.53,1.94,4.39,1.06l2.82-1.45.42.25Z"/>
  <path class="cls-5" d="M73.14,12.75c-11.61,11.84-2.8,31.6,13.75,30.75l5.59-1.03c-5.57,4.65-13.48,5.74-19.95,2.24-9.25-5.01-12.32-16.68-6.72-25.65,1.76-2.81,4.39-4.86,7.33-6.31Z"/>
  <path class="cls-1" d="M15.72,72.82c2.21,4.32,4.36,8.68,6.52,13.03-2.79,1.26-5.66,3.88-7.98.35l-6.68-13.38c2.12-1.08,4.18-2.33,6.39-3.24.28.06,1.5,2.75,1.75,3.24Z"/>
  <path class="cls-2" d="M27.73,59.38c-3.01.98-6.44-.06-7.95-2.95-3.11-5.99,3.55-13.72,5.51-19.24.47-.1.33.06.45.26.88,1.37,1.45,3.17,2.19,4.62l.06.74c-2.81,4.83-6.6,12.32-.29,16.03l.04.53Z"/>
  <path class="cls-6" d="M27.73,59.38c-1.31-.98-2.37-1.53-3.13-3.08-2.29-4.62,1.14-10.22,3.34-14.23,1.92,3.79,4.5,7.42,4.08,11.92-.23,2.45-1.96,4.63-4.28,5.39Z"/>
  <path class="cls-7" d="M64.38,72.82c.19.69.19.88.2,1.63,0,.54,0,1.09,0,1.63h-16.29v-3.26h16.08Z"/>
  <path class="cls-2" d="M67.84,45.13c0,4.48-3.68,8.15-8.14,8.14v-3.26c2.65.05,4.9-2.28,4.89-4.89h3.26Z"/>
  <polygon class="cls-6" points="84.13 19.06 84.13 25.58 90.65 25.58 90.65 32.1 84.13 32.1 84.13 38.61 77.62 38.61 77.62 32.1 71.1 32.1 71.1 25.58 77.62 25.58 77.62 19.06 84.13 19.06"/>
</svg>