<?xml version="1.0" encoding="UTF-8"?>
<svg id="Layer_2" data-name="Layer 2" xmlns="http://www.w3.org/2000/svg" viewBox="0 0 100 100">
  <defs>
    <style>
      .cls-1 {
        fill: #628fb0;
      }

      .cls-2 {
        fill: #c0dad5;
      }

      .cls-3 {
        fill: #38aafe;
      }

      .cls-4 {
        fill: #ebf6f5;
      }

      .cls-5 {
        fill: #628eb0;
      }

      .cls-6 {
        fill: #f62b2b;
      }

      .cls-7 {
        fill: #e8f5f3;
      }

      .cls-8 {
        fill: #fe5555;
      }

      .cls-9 {
        fill: #38a9fe;
      }

      .cls-10 {
        fill: #d8eeeb;
      }

      .cls-11 {
        fill: #e2d2d0;
      }
    </style>
  </defs>
  <path class="cls-10" d="M32.28,22.49c-1.45.47-3.56.25-5.1-.19-.66.1-1.31.19-1.98.25s-1.32.12-1.98.12c-6.8.04-13.91.06-20.46,0l-.33-.19c-.29-.97-.48-1.61-.57-2.64-.06-.3-.13-.62-.19-.94v-1.13c.07-.39.13-.77.19-1.13.86-6,8.33-9.08,13.21-5.37.45.35,2.21,2.39,2.38,2.34,3.55-5.52,11.65-5.19,14.61.69,1.37,2.73,1.03,5.37.22,8.19Z"/>
  <path class="cls-4" d="M1.68,17.76v-1.13h.19c-.05.35.16.92-.19,1.13Z"/>
  <path class="cls-7" d="M1.87,19.84h-.19v-.94c.32.16.17.64.19.94Z"/>
  <path class="cls-8" d="M79.5,91.43c-6.06-4.82-15.84-15.31-11.24-23.62,2.93-5.28,9.91-5.64,13.78-1.11.31.36.49,1.25.88.81.15-.17.31-.64.56-.92.69-.78,1.71-1.71,2.64-2.18.1-.58.41-.66.76-.19,2,.14,3.87,2.52,4.63,4.32,3.37,7.94-5.59,17.91-11.1,22.58-.11.09-.26.15-.41.2s-.32.08-.49.1Z"/>
  <path class="cls-8" d="M12.07,41.94l.02,29.16c1.69,15.84,21.59,22.09,31.89,9.65,1.64-1.98,3.97-6.68,3.97-9.25v-3.31c-3.15-.21-6.8.37-9.87-.23-3.41-.67-2.75-4.98-2.78-7.51,7.37-.14,14.73-.14,22.1,0l.37.28c.27,2.04.17,5.41-1.52,6.82l3.61.12.57.34-9.45.19c.34,8.49-4.45,16.68-12.21,20.19-14.21,6.41-29.63-4.04-29.73-19.33v-26.93s.36-.21.36-.21c.71.37,1.62.32,2.28-.14l.38.16Z"/>
  <path class="cls-8" d="M89.89,55.92c-.44.12-.92.11-1.46-.02-.57.12-1.09.13-1.56.02l-.02-30.29c-1.38-11.28-12.33-18.59-23.31-15.23-5.82,1.78-10.73,6.84-11.99,12.85-.38.2-.87.2-1.45.02-.63.17-1.15.16-1.57-.02,1.32-6.89,6.54-12.93,13.12-15.3,13.89-5,27.91,5.01,28.25,19.55v28.44Z"/>
  <path class="cls-8" d="M27.18,22.3c.02.17.04.34.02.51-.11,1.49-3.58,5.7-4.76,7.02-2.48,2.78-5.55,5.57-8.68,7.39-.29-.23-.81-.45-.94-.57h-.59c-1.39-1.01-3.28-3-3.94-4.53-2.45-2.77-4.79-6.06-5.86-9.63.2-.31.72-.19,1.04-.19,7.9-.08,15.81,0,23.71,0Z"/>
  <path class="cls-8" d="M60.23,27.77l-.61.35-3.46.08c.71.65,2.02,2.27,1.23,3.07.15.02.37.07.38.17.04.63.15,5.27,0,5.5-.09.14-.21.24-.38.28.02-.15.07-.37.17-.38,1.71-.11,4.08-.11,5.79,0l.28.38c0,.06,0,.13,0,.19-.02.15-.06.37-.17.38-1.11.1-4.81.18-5.79,0l-.28-.38-.13.38h-21.55l-.23-.38c-.05.16-.12.16-.19,0,.03-3.09-1.08-9.19,3.21-9.63,2.47-.24,4.97-.25,7.46-.23l.42-.37,6.87.05c.18.28.43.41.74.37,1.72-.04,3.47-.02,5.2,0,.32,0,.84-.12,1.04.19Z"/>
  <path class="cls-6" d="M90.65,63.48c5.84.47,8.47,6.04,7.47,11.34-1.12,5.94-8.89,15.31-14.13,18.17-2,1.09-3-.37-4.48-1.55,2.69-2.42,5.45-4.85,7.63-7.76,4.42-5.89,7.92-14.98-.27-19.44.39-.94,3.1-1.59,3.78-.76Z"/>
  <path class="cls-2" d="M63.63,37.41c.06,7.61.08,15.25,0,22.86-1.96.16-4.23.16-6.23,0l-.38-.17v-2.66s-15.83-.19-15.83-.19l-.22-.38.13-.38h17.67c1.79-.98.38-2.55-1.3-2.08l-.25-.38c-.57-.05-.35-.94.19-.94l.3-.39c2.55.23,2.55-2.39.01-2.24l-.31-.4c-.34-.24-.5-.74-.49-1.52l-6.85-.17-.21-.38.11-.24c2.66.05,5.34,0,8.04-.14,1.24-.23,1.23-1.84,0-2.07-2.55-.25-5.16-.17-7.72-.03l-.23-.36.12-.38c2.33,0,4.62-.1,6.87-.29v-6.85s.38-.22.38-.22h6.23Z"/>
  <path class="cls-6" d="M32.28,22.49c-1.67,5.78-7.43,11.94-12.19,15.48-1.01.75-1.83,1.73-3.19,1.51-.75-.12-2.44-1.71-3.13-2.26-.03-.43.29-.49.54-.69.77-.62,1.62-1.14,2.38-1.77,4.21-3.45,8.06-7.54,10.49-12.46,1.35,0,2.71-.02,4.06,0,.32,0,.84-.12,1.04.19Z"/>
  <path class="cls-6" d="M60.23,27.77c1.91.14,3.23,1.33,3.41,3.3s-.02,4.2,0,6.15h-6.23v-5.95c0-.84-.79-2.32-1.53-2.82l-1.12-.68c1.79.09,3.7-.13,5.48,0Z"/>
  <path class="cls-6" d="M63.63,60.45c-.03,2.89.79,7.2-3.21,7.56-1.81.16-3.83-.12-5.67,0l1.14-.66c2.05-1.54,1.4-4.65,1.51-6.9,1.96-.16,4.23-.16,6.23,0Z"/>
  <path class="cls-5" d="M89.89,55.92c1.36,1.12.52,5.84.76,7.56-1.51-.12-2.43.23-3.78.76-.22.09-.56.09-.76.19.26-1.83-.65-7.35.76-8.5.65-.53,2.37-.53,3.02,0Z"/>
  <path class="cls-1" d="M12.82,36.65c-.12,1.53.41,4.11-.76,5.29-.71.72-2.27.8-3.02.19-.25-.2-.71-1.05-.76-1.41-.36-2.57.28-5.95,0-8.6,1.27,1.44,3.08,3.31,4.53,4.53Z"/>
  <path class="cls-10" d="M51.55,23.24c1.67.74,1.95,2.05,2.08,3.69.03.36-.21.76.38.65-4.73.1-10.96-.28-15.49.19l7.75-.19c-.12-1.79.54-3.59,2.27-4.35,1.08-.48,1.94-.48,3.02,0Z"/>
  <path class="cls-11" d="M35.49,37.41l.38.13v22.37s-.25.11-.25.11c7.26-.25,14.53-.06,21.78.25h6.23c0,.06,0,.13,0,.19h-28.33c-.1-7.67-.07-15.38,0-23.05h.19Z"/>
  <path class="cls-10" d="M57.4,37.41v7.56s-7.37.19-7.37.19l-.16.41c-1.23.24-1.35,1.65-.14,2.02l.11.4,7.56.19v1.89c-.37.16-.76.32-1.16.32-4.93.08-9.89.07-14.8.06-1.54.17-1.78,2.03-.17,2.27,4.89-.04,9.78,0,14.66.04.24,0,.49.05.73.11s.5.14.74.23l-.19.94c-.27.09-.54.17-.81.23s-.54.11-.81.11c-4.83.05-9.67.06-14.5.05-1.07.22-1.33,1.67-.23,2.05l.1.4,16.44.19v3.21c-7.3,0-14.61,0-21.91,0v-22.86h21.91Z"/>
  <path class="cls-3" d="M57.4,50.06c1.13.07,2.61.06,2.55,1.61-.05,1.46-1.53,1.37-2.55,1.41-5.37.21-10.78-.16-16.15,0-2.2-.26-1.78-3.06.38-3.03,5.19.22,10.62-.3,15.77,0Z"/>
  <path class="cls-9" d="M57.21,54.03c.51.02,1.11-.07,1.6.01,1.49.25,1.51,2.57,0,2.81h-17.84c-1.64-.21-1.54-2.55.11-2.81,5.37.12,10.78-.19,16.14-.01Z"/>
  <path class="cls-9" d="M50.03,45.15c1.62-.17,6.48-.23,8.02.01,1.65.26,1.64,2.56,0,2.81-1.39.22-6.78.2-8.21.01-1.74-.24-1.87-2.62.19-2.83Z"/>
  <path class="cls-6" d="M44.56,43.26c.11.12,2.49.12,1.99,1.9-.35,1.26-1.92,1.04-2,1.13-.04.04.05.72-.04,1-.34,1.12-2.18,1.22-2.65.09-.14-.34-.12-1.03-.15-1.07-.16-.17-1.69.15-1.87-1.26-.25-1.96,1.66-1.56,1.87-1.79.04-.04,0-.78.22-1.2.33-.6,1.06-.8,1.69-.6,1.25.4.84,1.69.94,1.8Z"/>
  <path class="cls-9" d="M49.6,41.42c.6-.13,3.47-.13,4.03.04,1.32.4,1.32,2.51-.12,2.74-.56.09-3.84.09-4.24-.09-1.08-.49-.99-2.4.32-2.7Z"/>
</svg>