<?xml version="1.0" encoding="UTF-8"?>
<svg id="Layer_2" data-name="Layer 2" xmlns="http://www.w3.org/2000/svg" viewBox="0 0 100 100">
  <defs>
    <style>
      .cls-1 {
        fill: #e4ebf0;
      }

      .cls-2 {
        fill: #d53030;
      }

      .cls-3 {
        fill: #feb882;
      }

      .cls-4 {
        fill: #fbcfa2;
      }

      .cls-5 {
        fill: #feb883;
      }

      .cls-6 {
        fill: #eb6161;
      }
    </style>
  </defs>
  <path class="cls-3" d="M73.26,49.73c2.77,2.19,5.74,4.2,8.87,5.84,4.2,2.21,10.04,4.11,13.86,6.56,1.41.9,2.01,1.97,2.56,3.53v2.44c-.33.16-.27.54-.37.75-.71-.22-1.38-.67-2-1.35-7.25-4.75-15.51-8.4-23.53-11.95-.04-.02-.19.08-.23.12-3.25,2.75-8.94,5.3-13.28,4.04-2.09-.6-1.93-2.85.15-3.06,5.37.96,11.51-1.7,13.2-7.13.43-.43.91-.43.77.22Z"/>
  <path class="cls-4" d="M88.25,41.11c.84,3.86-1.55,5.94-5.03,6.69s-6.75.99-9.96,1.93c-.04.01-.34-.23-.37-.19-.06.07-.43,1.29-.65,1.69-2.19,3.88-6.27,5.92-10.69,6-.93.02-3.21-.82-3.46.66-.23,1.37,1.12,1.49,2.16,1.58,3.98.35,8.09-.99,11.23-3.38.42-.32.7-.97,1.27-.9,6.17,2.85,12.55,5.6,18.51,8.87,2.41,1.32,5.12,2.71,6.93,4.78-1.51,3.01-4.34,3.88-7.44,2.66-4.07-1.61-8.54-4.62-12.61-5.84-.23.32-.36.24-.61.07-1.99,1.04-.89,3.6.59,4.7,2.52,2.37,11.45,10.9,11.5,13.33,0,.15-.02.29-.05.44-1.97,2.23-4.51,2.45-7.06.97-4.03-3.57-7.53-7.74-11.48-11.38-.23-.21-.39-.47-.75-.46-.96-.53-1.56-.16-2.08.86-.18.36-.3,1.55-.15,1.89,2.58,4.49,4.89,9.1,6.92,13.83.42,1.2,1.01,3.1.55,4.22-2.92,1.83-5.96.91-7.71-1.94-2.1-3.4-3.68-7.67-5.68-11.18-.23-.41-.53-.98-.85-1.31-1.83-.12-3.62,1.55-3.3,3.48.12,2.84.15,5.63-.08,8.47-.09,1.06-.39,2.9-1.49,3.23-2.31.14-4.47-.94-5.39-3.13-.85-2.02-.31-5.87-.41-8.21-.33-7.44-2.1-13.32-5.25-19.95l-.07-.65c4.5-9.82,14.87-15.99,24.85-19.68,5.37-1.99,11.99-3.83,17.61-2.81l.52.66Z"/>
  <path class="cls-4" d="M24.91,18.06c.05.18-.01.24-.19.19l-.48-.03c-1.98-2.25-3.54-.8-5.18.82-2.23,2.21-2.97,3.01-.73,5.61,1.07,1.24,4.74,5.21,6.18,5.57,2.02.5,7.27-4.36,5.15-6.6-.53-.4-.8-.81-.81-1.25-.12-.51.04-.58.37-.19.1-.1.29-.23.36-.17,8.13,7.99,16.39,16.4,24.28,24.56l-.11.42-10.8,11.08-.43-.1c-4.61-5.05-9.81-9.67-14.62-14.43l-.42-.08c-1.23-1.48-2.62-2.95-4.08-4.23-.38-.12-.63-.3-.75-.56l.19-.47L2.62,17.97c3.69-3.77,7.49-7.44,11.24-11.15l.39-.14c3.59,3.65,7.18,7.3,10.77,10.96l-.11.42Z"/>
  <path class="cls-1" d="M8.42,56.47l.5-.43c1.58-.14,3.15-.24,4.73-.29l.57.35c5.67-.26,13.22-.35,18.81.4,3.97.53,4.81,2.33,5.18,6.07.6,6.11.57,13.5.38,19.68-.07,2.26-.22,8.62-1.06,10.37-1.67,3.48-7.35,2.86-10.67,3.01-5.78.25-13.81.6-19.46-.39-2.34-.41-3.89-2.03-4.23-4.38-.93-6.42-.6-14.66-.38-21.17.09-2.53-.1-8.48.91-10.52.94-1.9,2.77-2.44,4.72-2.68Z"/>
  <path class="cls-6" d="M52.27,36.42c-1.83-1.17-3.32-2.67-4.5-4.5.16-.26.36-.47.62-.63,5.99-2.14,11.72-4.39,16.75-8.37,6.88-5.44,1.78-9.81-4.89-10.38-8.63-.74-17.49,1.9-25.13,5.85l-.84.04-.29.61c-1.47.88-2.82,1.94-4.11,3.06l-.66.08c-.05.05-.24.07-.37.19-.04.55-1.48,2.2-1.92,2.49-.34.22-.43.22-.79.08-.3-.11-4.18-3.36-4.27-3.63-.2-.63,1.85-2.67,2.42-3.17l.43.1c.06-.06.12-.13.19-.19l.11-.59c1.37-1.17,2.84-2.23,4.35-3.21l.6.06c9.33-5.89,26.63-10.73,37.17-6.34,5.01,2.08,8.58,6.89,7.11,12.49-2.1,8-14.95,13.32-21.98,15.97Z"/>
  <path class="cls-3" d="M47.77,31.93c1.5,1.49,2.99,3,4.5,4.5.71.71,5.17,5.52,5.55,5.59.33.06,1.13-.68,1.52-.86s.85-.29,1.29-.4c7-1.79,14.98-2.13,22.08-3.78,2.66-.07,4.95,1.46,5.53,4.13-1.22-.77-3.18-.65-4.6-.57-11.54.66-29.46,8.75-35.88,18.65l-2.43,4.41c-.9-1.89-1.91-3.73-2.81-5.62l11.05-11.34-24.36-24.45c1.69-1.47,3.07-2.61,5.06-3.75.64.41,1.28.83,1.82,1.36,3.46,3.4,6.93,6.83,10.34,10.28.26.27.49.57.71.88s.43.64.62.97Z"/>
  <path class="cls-6" d="M22.66,38.67c.37,0,.51-.03.85.18.86.52,3.21,3.22,4.13,4.13.2.2.23.53.27.57-3.41.62-6.79.78-9.56,3.09s-3.92,5.9-4.12,9.46c-1.81.08-4.05.15-5.81.37.24-6.3,2.76-12.64,8.43-15.84,1.36-.77,4.28-1.99,5.81-1.96Z"/>
  <path class="cls-5" d="M13.86,6.82c.57-.56,4.01-4.36,4.38-4.3l11.74,11.79c-1.62,1.02-3.64,2.46-5.06,3.75L13.86,6.82Z"/>
  <path class="cls-5" d="M78.13,65.65l11.25,11.33c1.89,2.29,2.2,4.94.18,7.22-1.87-3.66-5.05-6.85-7.86-9.84-1.33-1.41-4.33-3.84-5.22-5.27-.68-1.09-.5-3.15.77-3.67.49-.2.64.17.88.24Z"/>
  <path class="cls-5" d="M70.26,73.34c1.91,4.73,5.2,9.31,7.09,13.99,1.06,2.62.63,5.26-1.85,6.81-.23-.93-.27-1.82-.51-2.77-1.3-5.09-5.09-10.41-7.31-15.17-.14-1.07-.15-2.03.63-2.84.67-.7,1.45-1.11,1.95-.02Z"/>
  <path class="cls-5" d="M61.26,79.71c-.22,3.3.29,6.96,0,10.22-.23,2.62-2.2,4.8-4.88,4.96.73-.92.97-2.13,1.12-3.28.43-3.15,0-6.31.09-9.47.16-1.32,1.89-2.84,3.21-2.79.36.01.32.22.45.36Z"/>
  <path class="cls-1" d="M24.72,18.25c-.37.35-2.48,2.55-2.55,2.8-.11.44,3.85,3.08,4.33,3.75.69-.95,1.48-1.66,2.34-2.43,1.37.98,2.09,2.13,1.51,3.85-.27.8-3.3,3.84-4.09,4.16-1.08.43-2.01.36-2.95-.33-1.2-.88-4.94-4.68-5.91-5.9-.77-.96-1.01-1.81-.6-3.05.25-.78,3.68-4.15,4.49-4.32,1.47-.31,2.62.23,3.42,1.46Z"/>
  <path class="cls-6" d="M32.4,62.1l.58,8.88c-.01,6.21.08,12.46-.61,18.62-7.8.83-15.74.78-23.56.03l-.58-10.19c-.04-5.8.17-11.56.57-17.34l5.9-.38c5.91-.01,11.82-.06,17.71.39Z"/>
  <path class="cls-2" d="M20.53,68.29c4.02,2.46,7.36,13.86.13,13.97-7.18.1-3.85-11.28-.13-13.97Z"/>
</svg>