<?xml version="1.0" encoding="UTF-8"?>
<svg id="Layer_2" data-name="Layer 2" xmlns="http://www.w3.org/2000/svg" viewBox="0 0 100 100">
  <defs>
    <style>
      .cls-1 {
        fill: #fa5858;
      }

      .cls-2 {
        fill: #f34545;
      }
    </style>
  </defs>
  <path class="cls-2" d="M84.43,1.76c.07.19.23.15.38.19l.09.65-4.71,8.1c-6.62,10.95,3.18,23.6,15.41,20.13l.32.32c-6.41,13.41-25.88,8.71-25.98-5.77-.04-7.04,7.99-15.73,10.83-22.1.55-.81,1.33-1.09,2.15-1.52h1.51Z"/>
  <path class="cls-1" d="M70.68,87.65c-1.93,1.56-4.86,2.52-7.34,3.05-21.93,4.72-38.79-19.05-27.86-38.27l15.3-26.26c.12-.11.29-.15.51-.12,1.29.31,1.51.77,2.22,1.83,5.77,10.67,12.82,20.91,18.53,31.58,5.05,9.43,5.03,19.42-1.35,28.19Z"/>
  <path class="cls-2" d="M51.27,26.06l-15.29,26.24c-11.95,20.53,8.09,45.32,30.79,37l3.91-1.65c-18.39,25.28-56.51,1.49-43.3-26.25l19.97-34.09c1.14-1.46,2.13-1.68,3.92-1.26Z"/>
  <path class="cls-1" d="M95.92,31.14l-3.11.56c-6.18.56-11.93-2.82-14.17-8.61-3.33-8.59,2.62-14.04,6.17-21.15,1.09.3,1.62,1.12,2.22,2.01,2.7,3.99,6.11,9.95,8.36,14.25,2.38,4.55,2.75,8.3.53,12.94Z"/>
  <path class="cls-2" d="M16.05,20.78c.12.75-.15,1.54-.8,2.36-3.24,5-6.07,9.37-3.6,15.42,2.22,5.46,8.11,8.27,13.79,6.85l.6.23c-6.04,15.44-28.92,5.91-22.2-9.49l8.64-14.72c1.16-1.09,2.12-1.24,3.58-.66Z"/>
  <path class="cls-1" d="M16.05,20.78c1.02.41,1.18.82,1.77,1.71,2.17,3.26,8.21,13.14,8.88,16.55.48,2.45.23,4.31-.67,6.6-8.61,2.43-16.43-4.17-15.63-13.09.37-4.14,4.01-8.06,5.65-11.78Z"/>
</svg>