<?xml version="1.0" encoding="UTF-8"?>
<svg id="Layer_2" data-name="Layer 2" xmlns="http://www.w3.org/2000/svg" xmlns:xlink="http://www.w3.org/1999/xlink" viewBox="0 0 668 512">
  <defs>
    <style>
      .cls-1 {
        fill: #f9684b;
      }

      .cls-2 {
        fill: #a9f0fc;
      }

      .cls-3 {
        filter: url(#drop-shadow-2);
      }

      .cls-4 {
        fill: #f6be8e;
      }

      .cls-5, .cls-6 {
        fill: #86b6ce;
      }

      .cls-7 {
        fill: #7cc6ce;
      }

      .cls-8 {
        filter: url(#drop-shadow-6);
      }

      .cls-6, .cls-9 {
        opacity: .71;
      }

      .cls-10 {
        filter: url(#drop-shadow-5);
      }

      .cls-11 {
        fill: #fff;
      }

      .cls-12 {
        fill: #846941;
      }

      .cls-13 {
        fill: #f7ebcb;
      }

      .cls-14 {
        filter: url(#drop-shadow-8);
      }

      .cls-15 {
        fill: #604b2e;
      }

      .cls-16 {
        filter: url(#drop-shadow-4);
      }

      .cls-17 {
        fill: #d13346;
      }

      .cls-18 {
        fill: #40ccbb;
      }

      .cls-19 {
        filter: url(#drop-shadow-7);
      }

      .cls-20 {
        fill: #4c4570;
      }

      .cls-21 {
        fill: #fc8449;
      }

      .cls-22 {
        filter: url(#drop-shadow-1);
      }

      .cls-23 {
        fill: #333135;
      }

      .cls-24 {
        fill: #e27785;
      }

      .cls-25 {
        fill: #b9b419;
      }

      .cls-26 {
        fill: #2b284f;
      }

      .cls-27 {
        fill: #a37b6a;
      }

      .cls-28, .cls-29, .cls-9 {
        fill: #b6cedd;
      }

      .cls-30 {
        fill: #9b553a;
      }

      .cls-31 {
        fill: #ef5964;
      }

      .cls-32 {
        fill: #83819b;
      }

      .cls-33 {
        filter: url(#drop-shadow-3);
      }

      .cls-34 {
        fill: #77445e;
      }

      .cls-35 {
        fill: #718420;
      }

      .cls-36 {
        fill: #e6eded;
      }

      .cls-37 {
        fill: #cca18b;
      }

      .cls-29 {
        opacity: .47;
      }

      .cls-38 {
        fill: #1ca6c6;
      }

      .cls-39 {
        fill: #f5f7f7;
      }

      .cls-40 {
        fill: #f9cb64;
      }
    </style>
    <filter id="drop-shadow-1" x="425.63" y="108.71" width="53.28" height="51.12" filterUnits="userSpaceOnUse">
      <feOffset dx="0" dy="0"/>
      <feGaussianBlur result="blur" stdDeviation="5.53"/>
      <feFlood flood-color="#000" flood-opacity=".75"/>
      <feComposite in2="blur" operator="in"/>
      <feComposite in="SourceGraphic"/>
    </filter>
    <filter id="drop-shadow-2" x="457.55" y="108.71" width="53.04" height="51.12" filterUnits="userSpaceOnUse">
      <feOffset dx="0" dy="0"/>
      <feGaussianBlur result="blur-2" stdDeviation="5.53"/>
      <feFlood flood-color="#000" flood-opacity=".75"/>
      <feComposite in2="blur-2" operator="in"/>
      <feComposite in="SourceGraphic"/>
    </filter>
    <filter id="drop-shadow-3" x="489.23" y="108.71" width="53.28" height="51.12" filterUnits="userSpaceOnUse">
      <feOffset dx="0" dy="0"/>
      <feGaussianBlur result="blur-3" stdDeviation="5.53"/>
      <feFlood flood-color="#000" flood-opacity=".75"/>
      <feComposite in2="blur-3" operator="in"/>
      <feComposite in="SourceGraphic"/>
    </filter>
    <filter id="drop-shadow-4" x="521.15" y="108.71" width="53.04" height="51.12" filterUnits="userSpaceOnUse">
      <feOffset dx="0" dy="0"/>
      <feGaussianBlur result="blur-4" stdDeviation="5.53"/>
      <feFlood flood-color="#000" flood-opacity=".75"/>
      <feComposite in2="blur-4" operator="in"/>
      <feComposite in="SourceGraphic"/>
    </filter>
    <filter id="drop-shadow-5" x="425.63" y="146.87" width="53.28" height="51.36" filterUnits="userSpaceOnUse">
      <feOffset dx="0" dy="0"/>
      <feGaussianBlur result="blur-5" stdDeviation="5.53"/>
      <feFlood flood-color="#000" flood-opacity=".75"/>
      <feComposite in2="blur-5" operator="in"/>
      <feComposite in="SourceGraphic"/>
    </filter>
    <filter id="drop-shadow-6" x="457.55" y="146.87" width="53.04" height="51.36" filterUnits="userSpaceOnUse">
      <feOffset dx="0" dy="0"/>
      <feGaussianBlur result="blur-6" stdDeviation="5.53"/>
      <feFlood flood-color="#000" flood-opacity=".75"/>
      <feComposite in2="blur-6" operator="in"/>
      <feComposite in="SourceGraphic"/>
    </filter>
    <filter id="drop-shadow-7" x="489.23" y="146.87" width="53.28" height="51.36" filterUnits="userSpaceOnUse">
      <feOffset dx="0" dy="0"/>
      <feGaussianBlur result="blur-7" stdDeviation="5.53"/>
      <feFlood flood-color="#000" flood-opacity=".75"/>
      <feComposite in2="blur-7" operator="in"/>
      <feComposite in="SourceGraphic"/>
    </filter>
    <filter id="drop-shadow-8" x="521.15" y="146.87" width="53.04" height="51.36" filterUnits="userSpaceOnUse">
      <feOffset dx="0" dy="0"/>
      <feGaussianBlur result="blur-8" stdDeviation="5.53"/>
      <feFlood flood-color="#000" flood-opacity=".75"/>
      <feComposite in2="blur-8" operator="in"/>
      <feComposite in="SourceGraphic"/>
    </filter>
  </defs>
  <g>
    <g>
      <rect class="cls-25" x="237.15" y="47.35" width="24.5" height="10.15" rx=".69" ry=".69"/>
      <path class="cls-18" d="M260.79,58.1v33.39c0,.33-.25.6-.56.6h-21.65c-.31,0-.56-.27-.56-.6v-33.39c0-.33.25-.6.56-.6h21.65c.31,0,.56.27.56.6Z"/>
      <rect class="cls-38" x="238.02" y="64.45" width="16.46" height="18.83"/>
      <rect class="cls-36" x="238.02" y="66.32" width="14.6" height="15.09"/>
      <g>
        <rect class="cls-35" x="239.26" y="47.35" width="1.28" height="10.15"/>
        <rect class="cls-35" x="242.45" y="47.35" width="1.28" height="10.15"/>
        <rect class="cls-35" x="245.64" y="47.35" width="1.28" height="10.15"/>
        <rect class="cls-35" x="248.84" y="47.35" width="1.28" height="10.15"/>
        <rect class="cls-35" x="252.03" y="47.35" width="1.28" height="10.15"/>
        <rect class="cls-35" x="255.22" y="47.35" width="1.28" height="10.15"/>
        <rect class="cls-35" x="258.42" y="47.35" width="1.28" height="10.15"/>
      </g>
      <path class="cls-38" d="M260.79,58.1v1.87h-22.77v-1.87c0-.33.25-.6.56-.6h21.65c.31,0,.56.27.56.6Z"/>
    </g>
    <g>
      <path class="cls-20" d="M142.49,55.44s-3.11-18.11-17.78-12.75c-14.67,5.36-12.22,18.64-7.11,26.33,5.11,7.7.44,13.01-2.89,10.45-3.33-2.56-5.11-4.68-5.11-4.68,0,0-3.56,9.48,15.56,12.82,19.11,3.34,28.92-18.49,17.33-32.18Z"/>
      <path class="cls-20" d="M191.81,47.94s5.68-21.09,0-29.37c-5.68-8.28-13.99-6.08-15.6-5.4l-1.61.68s-15.85-8.28-27.57,1.01c-11.72,9.29-15.34,23.53-10.22,37.9,5.11,14.37,12.16,19.72,23.3,18.69,11.15-1.03,31.71-23.51,31.71-23.51Z"/>
      <path class="cls-4" d="M155.55,73.78s1.35,6.43-.77,10.61c-2.12,4.18-7.71,6.39-7.71,6.39,0,0,2.46,8.53,10.68,10.49,8.22,1.97,22.05,0,22.05,0l9.66-4.84,3.36-8.48s-10.38-.21-13.02-2.92c-2.64-2.71-3.47-7.21-3.47-7.21l-20.77-4.05Z"/>
      <path class="cls-4" d="M176.32,77.83s.58,11.66,5.19,14.95c4.61,3.3,5.64,3.08,4.61,3.3-1.03.21-10.25,4.34-18.01,2.77-7.77-1.57-13.4-4.42-13.4-4.42,0,0,2.05-11.13,1.88-16.6-.17-5.47-7.51-14.22-7.51-14.22,0,0-5.8-1.38-7-4.73-1.2-3.35-.17-5.8,2.05-7.3,2.22-1.5,4.1-2.16,5.12-1.66,1.02.5.68,5.11,2.56,5.45,1.88.33,2.56,1.78,2.73.73.08-.49-.32-4.86-.77-9.39,0,0,7.38-3.81,13.42-6.38,6.04-2.57,7.91-5.03,7.91-5.03,0,0,3.56,1.72,6.63,2.09,3.07.37,9.2.06,9.2.06,1.3,6.56,4.05,23.84-1.34,30.9-6.72,8.81-13.28,9.5-13.28,9.5Z"/>
      <path class="cls-24" d="M160.17,71.45s3.11,6.4,16.15,6.38c0,0-.79,8.23-1.81,8.06-1.02-.17-12.97-10.4-14.34-14.44Z"/>
      <path class="cls-24" d="M146.32,53.39c-.65.05-1.26.07-1.72.57-.61.65-.75,1.69-.87,2.52-.07.47.67.67.74.2.15-.99.24-2.24,1.45-2.51.5-.11,1.1-.16,1.64-.07-.01.01-.03.03-.04.04-.97,1.32-1.05,3.02-.27,4.44.23.42.9.05.66-.37-.66-1.21-.54-2.58.27-3.69.05-.07.07-.13.07-.19.41.22.7.57.76,1.13.05.47.81.48.77,0-.19-1.89-1.79-2.18-3.46-2.06Z"/>
      <g>
        <ellipse class="cls-20" cx="166.15" cy="49.66" rx="1.8" ry="2.31"/>
        <ellipse class="cls-20" cx="183.71" cy="48.71" rx="1.5" ry="2.02"/>
        <path class="cls-20" d="M161.37,45.37s2.71-2.66,4.37-3.28c1.66-.62,3.78,0,3.78,0v1.86s-2.06-.83-3.37-.35c-1.31.48-4.78,1.78-4.78,1.78Z"/>
        <path class="cls-20" d="M182.21,41.54v1.73s1.52-.5,2.54-.5,2.3.82,2.3.82c0,0-.73-2.49-4.85-2.06Z"/>
      </g>
      <g>
        <path class="cls-24" d="M176.79,50.57c.09,1.47.91,2.55,1.92,3.6.58.6,1.73,1.51,1.37,2.41-.3.75-1.19,1.58-1.68,2.23-.58.77.75,1.51,1.33.75.9-1.19,2.51-2.56,1.85-4.16-.74-1.8-3.12-2.77-3.25-4.82-.06-.95-1.59-.96-1.54,0h0Z"/>
        <path class="cls-24" d="M168.97,63.87c1.57,4.03,6.12,4.77,10.07,4.59.98-.04.99-1.53,0-1.49-3.14.14-7.29-.17-8.59-3.5-.35-.89-1.83-.5-1.48.39h0Z"/>
      </g>
    </g>
    <g>
      <g>
        <path class="cls-4" d="M194.77,375.42c-.26,4.68-9.4,92.26-9.05,93.97.34,1.72,15.17,17.48,15.17,17.48-1.28,1.09-2.98,1.82-5.34,2h0c-3.05.24-7.2-.45-12.94-2.47-10.17-3.59-12.24-13.11-12.76-14.99-.51-1.83-2.83-2.7-2.94-2.73.78-1.36.48-3.9-.6-11.31-1.29-8.9-4.4-32.08-5.43-47.06-1.03-14.99,3.1-33.95,3.16-35.36.06-1.4-4.46-19.67-4.46-19.67,0,0-9.31,34.42-13.71,44.72-4.4,10.3-21.03,58.3-21.14,59.55-.1,1.25.45,6.87,1.14,10.62.69,3.75,9.83,16.86,9.83,16.86-8.79,1.56-20.17-8.12-23.28-12.02-3.1-3.9-3.79-11.71-3.97-12.8-.17-1.09-3.96-3.2-3.96-3.2.78-.23,3.36-3.51,3.62-6.79.26-3.28,2.59-32.31,5.95-53.39,3.36-21.07,10.78-44.33,10.95-45.27.17-.94-.17-4.84-1.9-11.24-.55-2.06-.88-7.01-1.08-12.78-.41-12.19-.21-28.04-.21-28.04,3.41-16.12,59.52,2.58,75.47,15.03,2.65,2.07,4.19,3.97,4.19,5.5,0,1.98-.22,4.87-.57,8.3-.07.64-.14,1.29-.21,1.96-1.73,15.44-5.73,39.46-5.94,43.13Z"/>
        <path class="cls-20" d="M154.34,500.62c-1.03,1.4-33.62-.94-37.24-2.34-3.62-1.4-11.21-12.33-12.41-13.27-1.21-.94-6.04,10.77-6.9,11.24-.86.47-2.24-.31-2.93-1.56-.69-1.25,4.48-29.35,4.74-31.92.26-2.58,4.14-3.51,4.91-3.75,0,0,3.79,2.11,3.96,3.2.17,1.09.86,8.9,3.97,12.8,3.1,3.9,14.48,13.58,23.28,12.02,0,0,2.07.15,2.59.15s14.31,7.49,15,7.96c.69.47,2.07,4.06,1.03,5.47Z"/>
        <path class="cls-20" d="M216.06,502.23c-1.21.21-21.89.88-24.83,0-2.93-.89-22.07-9.89-22.07-9.89l-3.1,9.68s-2.76.47-3.28,0c-.52-.47.86-27.63,1.21-29.35.34-1.72.86-2.03,2.33-3.28.25-.21.44-.43.6-.7.11.04,2.43.9,2.94,2.73.52,1.87,2.59,11.4,12.76,14.99,10.17,3.59,15.34,2.97,18.28.47,0,0,2.24-.63,3.45-.63s2.24,1.25,5.69,3.59c3.45,2.34,7.93,4.68,9.65,7.65,1.72,2.97-2.41,4.53-3.62,4.74Z"/>
        <path class="cls-24" d="M172.27,339.67c-1.03,1.87-5.95,29.89-3.1,32,2.84,2.11,2.07,3.75.52,5.15-1.55,1.4-5.66,36.89-1.78,63.58,3.88,26.69,6.98,35.34,11.64,39.62,4.61,4.24,15.79,8.76,16.01,8.85-3.05.24-7.2-.45-12.94-2.47-10.17-3.59-12.24-13.11-12.76-14.99-.51-1.83-2.83-2.7-2.94-2.73.78-1.36.48-3.9-.6-11.31-1.29-8.9-4.4-32.08-5.43-47.06-1.03-14.99,3.1-33.95,3.16-35.36.06-1.4-4.46-19.67-4.46-19.67l5.64-18.13,6.17-19.81,25.89-.82c2.65,2.07,4.19,3.97,4.19,5.5,0,1.98-.22,4.87-.57,8.3-2.01.82-4.46,1.65-7.44,2.47-5.7,1.58-10.02,2.68-13.23,3.56-5.04,1.37-7.35,2.17-7.98,3.31Z"/>
        <path class="cls-24" d="M197.3,316.53l-25.89.82-6.17,19.81c-3.94-.02-8.02-.21-12.24-.61-10.74-1.01-21.13-3.54-30.95-7.01-.41-12.19-.21-28.04-.21-28.04,3.41-16.12,59.52,2.58,75.47,15.03Z"/>
      </g>
      <g>
        <path class="cls-20" d="M216.06,249.38c-.79,15.81-2.44,34.32-3.91,49.03-1.51,15.13-2.83,26.24-2.83,26.24-5.88.94-13.4,1.93-23.03,2.98-25.23,2.75-50.5-1.39-66.72-5.5t0,0c-7.78-4.87-4.75-7.48-5.04-20.91-.04-1.84-.14-3.89-.34-6.17-1.64-18.71-.04-54.66,0-55.48,2.45-10.58,4.37-18.37,4.37-18.37,2.32-23.27,20.33-27.15,46.85-27.37,26.52-.22,39.77,10.33,39.77,10.33,0,0,5.17,21.23,10.88,45.22Z"/>
        <path class="cls-26" d="M216.06,249.38c-.79,15.81-2.44,34.32-3.91,49.03-7.15.11-12.88-.12-15.3-.94-9.29-3.16-4.2-69.54-6.02-73.75-1.82-4.21-16.8-2.11-16.8-2.11-3.26-.35-6.98,79.37-13.03,81.48-3.54,1.23-27.35-.34-46.47-1.87-.04-1.84-.14-3.89-.34-6.17-1.64-18.71-.04-54.66,0-55.48,2.45-10.58,4.37-18.37,4.37-18.37,2.32-23.27,20.33-27.15,46.85-27.37,26.52-.22,39.77,10.33,39.77,10.33,0,0,5.17,21.23,10.88,45.22Z"/>
      </g>
    </g>
    <g>
      <path class="cls-2" d="M199.32,213.55c-.6,1.51-10.89,3.52-16.61,3.27-5.72-.25-28.02-1.51-28.02-2.51,0-.13-.08-2.28-.23-5.95-.71-18.06-2.92-72.87-4.16-103.59-.52-12.82-.87-21.45-.87-21.45l4.26-.28s8.21,13.23,19.62,14.49c11.41,1.26,5.97-15.21,5.97-15.21l2.72.72s10.62,18.04,15.11,32.54c.29.94.54,2.04.75,3.28,3.11,18.11-1.2,66.89-.75,78.26.21,5.33.78,8.86,1.3,11.27.66,3.07,1.25,4.31.92,5.16Z"/>
      <path class="cls-7" d="M197.1,197.12c.21,5.33.78,8.86,1.3,11.27l-43.94-.03c-.71-18.06-2.92-72.87-4.16-103.59,5.08-.38,8.19-.23,8.19-.23,0,0,6.69,13.68,8.31,14.2,1.09.35,19.29.23,31.06.12,3.11,18.11-1.2,66.89-.75,78.26Z"/>
    </g>
    <g>
      <g>
        <path class="cls-4" d="M233.56,105.2s2.07-9.27,3.37-10.94c1.29-1.68,6.86-5.7,10.1-6.25,3.24-.56,4.92-1.56,3.88.56-1.04,2.12-5.05,4.17-5.05,4.17,0,0,8.66-2.72,9.96-3.83,1.3-1.12,7.51-8.04,8.29-8.04s2.07.22,2.2.78c.13.56-.65,2.23-.65,2.23,0,0,1.94-1.79,2.33-1.34.39.45.26,1.34,0,2.12-.26.78-6.08,10.16-6.99,11.06-.91.89-10.97,7.92-12.82,9.49-1.84,1.57-4.66,4.24-4.66,4.24l-9.97-4.24Z"/>
        <path class="cls-24" d="M253.76,96.15c-.15,0-.29-.07-.35-.2-.09-.17,0-.37.19-.44.04-.02,4.46-1.77,5.55-2.99,1.14-1.27,6.14-8.74,6.19-8.82.11-.16.34-.22.53-.12.19.09.25.3.14.46-.21.31-5.08,7.59-6.24,8.89-1.21,1.36-5.65,3.12-5.84,3.19-.05.02-.11.03-.16.03Z"/>
      </g>
      <path class="cls-36" d="M236.62,161.3c-1.55,3.02-2.16,2.37-3.6,3.9-1.44,1.53-10.2,1.6-11.23,2.07s-4.93-.94-6.5-1.72c-1.55-.77-5.35-5.55-5.47-5.7h0s-.33,7.88-.46,18.06c-.15,11.24-.07,25.3.93,34.66,1.58,14.73,11.83,63.21,15.41,80.56.76,3.67,1.22,5.95,1.23,6.22.09,1.56-8.66,5.6-11.67,6.43-3.01.83-19.11-.34-20.53-1.83-1.36-1.43-3.27-121.3-2.15-144.62.05-1.04.11-1.89.17-2.53.54-5.54.66-12.68.56-19.67-.17-11.8-.96-23.2-1.37-25.79-.66-4.13-11.67-29.62-11.67-29.62,0,0,2.18.82,5.26,1.95,4.1,1.51,9.8,3.57,14.02,4.96,7.39,2.44,9.33,3.35,9.98,4.55.65,1.2,13.38,37.88,14.11,37.33.73-.55,4.77-20.67,5.93-23.84,1.16-3.17,1.62-5.27,3.32-5.53,1.7-.25,10.15.57,10.92.71.45.08,2.83,1.69,4.89,3.4,1.5,1.25,2.84,2.55,3.12,3.34.68,1.87-13.66,49.68-15.21,52.69Z"/>
      <path class="cls-28" d="M209.81,159.86s7.36-19.58,6.87-23.22c-.49-3.64-12.2-25-10.38-22.65,1.81,2.35,12.2,19.21,14.1,22.48,1.9,3.27-4.19,29.51-4.19,29.51,0,0-4.17-2.29-6.39-6.12Z"/>
      <polygon class="cls-28" points="223.64 130.53 221.35 149 222.75 128.9 223.64 130.53"/>
      <path class="cls-29" d="M236.62,161.3c-1.55,3.02-2.16,2.37-3.6,3.9-1.44,1.53-10.2,1.6-11.23,2.07s-4.93-.94-6.5-1.72c0,0,12.69.99,17.2-4.83,3.35-4.33,11.99-38.28,16.22-55.46,1.5,1.25,2.84,2.55,3.12,3.34.68,1.87-13.66,49.68-15.21,52.69Z"/>
      <path class="cls-11" d="M193.31,137.14c-.17-11.8-.96-23.2-1.37-25.79-.66-4.13-11.67-29.62-11.67-29.62,0,0,2.18.82,5.26,1.95,3.09,3.11,7.69,7.84,7.71,8.19.03.52-2.91,5.94-2.22,6.43.7.49,6.08,4.57,6.12,5.27.03.62,1.28,20.26-3.83,33.57Z"/>
      <path class="cls-28" d="M226.92,299.36c.09,1.56-8.66,5.6-11.67,6.43-3.01.83-19.11-.34-20.53-1.83-1.36-1.43-3.27-121.3-2.15-144.62l17.23.51s-.33,7.88-.46,18.06c-.57.11-1,.21-1.21.29-1.22.44-4.52,27.38-4.61,28.16-.09.78-8.54,1.04-8.54,1.04,0,0,5.9,90.72,7.54,91.95,1.63,1.23,16.08,3.16,18.57,1.75,2.49-1.41,4.6-7.96,4.6-7.96.76,3.67,1.22,5.95,1.23,6.22Z"/>
      <path class="cls-39" d="M203.48,239c.26,1.17,1.67,9.41,3.59,10.49s7.03,2.34,8.57,2.21c1.54-.13,3.87.08,3.96-.96.09-1.04-2.43-12.89-3.06-13.77-.62-.88-13.4.53-13.06,2.03Z"/>
      <path class="cls-28" d="M205.82,250.33s2.52,16.91,4.33,18.65c1.81,1.74,9.95,1.23,9.95,1.23,0,0-10.6,2.44-11.71.54-1.11-1.9-2.57-20.42-2.57-20.42Z"/>
    </g>
    <g>
      <path class="cls-36" d="M168.87,177.21c-.42,1.7-1.22,11.07-2.08,23.67-.23,3.39-.47,7.01-.71,10.78-1.72,27.35-3.42,62.43-2.88,72.1.89,15.95-.2,19.51-1.42,20.73s-24.39,5.8-30.06,6.06c-5.5.25-27.84-6.07-29.7-8.91-.06-.09-.1-.17-.11-.25-.58-2.7,13.87-82.03,16.09-93.57,1.21-6.27,3.35-12.4,5.05-17.65,1.43-4.41,2.54-8.21,2.52-10.97-.03-3.89-2.33-35.69-3.96-57.84-.9-12.26-1.61-21.56-1.61-21.56,0,0,5.59-8.8,8.78-9.99,2.34-.87,13.28-4.63,19.24-6.13,2.19-.55,3.72-.8,3.89-.48.5.92,8.55,27.17,12.76,47.02,1.19,5.59,2.07,10.67,2.39,14.54.27,3.28.55,6.27.82,9.01,1.17,11.96,2.09,18.99.98,23.44Z"/>
      <path class="cls-28" d="M168.87,177.21c-.54,2.15-1.67,16.67-2.79,34.46-10.31.59-32.96,1.68-33.28-.11-.42-2.32.25-21.85.25-21.85l-10.01.46c1.43-4.41,2.54-8.21,2.52-10.97-.03-3.89-2.33-35.69-3.96-57.84,4.69-3.1,10.68-4.67,18.28-3.98,0,0-2.16,37.54-.59,32.79,1.58-4.75,4.64-18.99,4.64-18.99l20.75-.95c1.19,5.59,2.07,10.67,2.39,14.54.27,3.28.55,6.27.82,9.01,1.17,11.96,2.09,18.99.98,23.44Z"/>
      <path class="cls-11" d="M154.39,105.54c.24-.79-9.82-11.77-9.86-12.55-.02-.42,1.8-5.1,3.49-9.31,2.19-.55,3.72-.8,3.89-.48.64,1.18,13.69,43.95,15.15,61.56.27,3.28.55,6.27.82,9.01,0,0-18.57-41.76-17.8-43.36.77-1.6,4.06-4.09,4.31-4.88Z"/>
      <path class="cls-28" d="M166.79,200.89c-.23,3.39-.47,7.01-.71,10.78-1.72,27.35-3.42,62.43-2.88,72.1.89,15.95-.2,19.51-1.42,20.73s-24.39,5.8-30.06,6.06c-5.5.25-27.84-6.07-29.7-8.91,10.09,2.68,26.81,7.07,27.62,7.03,1.17-.05,26.19-7.44,26.19-7.44,0,0,1.11-5.77,2.35-19.61,1.23-13.84,4.37-75.86,4.37-75.86.53-2.62,2.03-4.19,4.24-4.89Z"/>
      <path class="cls-39" d="M110.26,233.48s2.6,2.13,12.64,4.1c10.04,1.97,17.33,2.67,17.77,3.69.44,1.02-3.38,11.25-4.85,12.35-1.47,1.11-15.55,1.93-16.31,1.96-.76.03-13.81-4.57-13.87-5.78-.07-1.21-.93-16.77,4.63-16.33Z"/>
      <path class="cls-28" d="M140.87,244.73s-5.41,23.3-6.58,26.3c-1.17,3-1.52,3.54-4.57,3.68-3.05.14-23.28-3.27-21.49-1.96,1.79,1.3,26.23,6.08,27.58,4.11,1.36-1.97,5.76-35.17,5.05-32.12Z"/>
    </g>
    <g>
      <g>
        <path class="cls-12" d="M211.39,127.27l-4.12,31.15-3.48,26.31-2.34,17.69c-.12.92-.91,1.61-1.88,1.66l-62.27,2.85c-1.24.06-2.24-.96-2.09-2.13l.8-6.8,8.09-68.3c.11-.93.91-1.64,1.88-1.69l63.32-2.9c1.25-.06,2.25.98,2.09,2.16Z"/>
        <path class="cls-23" d="M194.32,126.41l-.32,2.61c-.14,1.18-1.21,2.09-2.51,2.14l-29.39,1.35c-1.62.07-2.94-1.18-2.78-2.65l.28-2.61c.13-1.19,1.2-2.11,2.51-2.18l9.6-.44c-.14-2.47,1.95-4.57,4.67-4.69s5.03,1.77,5.17,4.24l9.99-.46c1.64-.07,2.96,1.2,2.77,2.68Z"/>
        <path class="cls-15" d="M207.27,158.42l-3.48,26.31-67.78,13.27,8.09-68.3c.11-.93.91-1.64,1.88-1.69l1.61-.07-3.43,28.76s27.59,4.97,30.34,4.85c2.71-.12,15.62-2.25,16.02-2.32-.31.16-9.29,4.78-7.98,4.55,1.32-.23,21.74-5.22,21.74-5.22l2.99-.14Z"/>
      </g>
      <g>
        <g>
          <path class="cls-4" d="M171.9,165.99c.38-.02,12.19-6.32,13.68-6.75,1.5-.43,6.04-.64,5.37.83-.68,1.47-7.34,4.66-7.34,4.66,0,0,7.22.03,8.72-.4,1.5-.43,11.37-7.37,11.81-6.3s.22,3.95.22,3.95c0,0,2.65-.12,2.75,1.67.1,1.8-.58,3.27-.58,3.27,0,0,2.31.61,2.01,2.07-.3,1.45-.64,2.19-.64,2.19,0,0,1.93.63,1.64,2.09-.3,1.45-9.12,6.9-11.37,7.37-2.25.46-26.97.16-26.97.16l.7-14.8Z"/>
          <g>
            <path class="cls-24" d="M189.72,168.75c5.57-.49,10.75-2.52,15.02-5.94.41-.33-.05-1.01-.47-.68-4.15,3.33-9.17,5.34-14.59,5.81-.55.05-.5.86.04.81h0Z"/>
            <path class="cls-24" d="M192.08,172.24c5.57.61,10.24-2.21,14.62-5.07.45-.29-.02-.97-.47-.68-4.16,2.71-8.66,5.54-13.97,4.96-.54-.06-.73.73-.18.79h0Z"/>
            <path class="cls-24" d="M207.09,171.07c-3.54,1.73-7.1,3.42-11.06,4.08-.53.09-.5.9.04.81,4.12-.69,7.81-2.41,11.49-4.21.49-.24.02-.92-.47-.68h0Z"/>
          </g>
        </g>
        <path class="cls-36" d="M174.75,167.42c-.05,5.12-.8,14.27-1.21,14.59-.55.42-13.01,1.12-21.03,1.87-8.03.76-36.27-.03-38.59-.44-2.31-.41-5.99-4.67-7.07-6.18-1.09-1.51-1.28-10.99-.99-17.76.29-6.77,7.7-62.4,18.54-62.99,0,0,.89.1,2.26.48,0,0,0,0,0,0,4.68,1.3,14.84,5.82,13.21,20.38-2.1,18.82-4.76,38.05-5.2,40.28-.45,2.23.28,2.46,1.28,2.41s23.61,2.3,29.76,2.28c6.15-.02,8.18.28,8.83,1.8.16.37.22,1.61.2,3.27Z"/>
        <path class="cls-9" d="M174.75,167.42c-6.91-1.63-42.51-6.03-44.07-6.14-1.72-.13-2.97,1.56-4.49,1.63-1.52.07,3.23-3.62,4.08-5.56.85-1.94,7-35.5,6.9-45.38-.09-9.72-10.19-14.81-10.5-14.96,4.68,1.3,14.84,5.82,13.21,20.38-2.1,18.82-4.76,38.05-5.2,40.28-.45,2.23.28,2.46,1.28,2.41s23.61,2.3,29.76,2.28c6.15-.02,8.18.28,8.83,1.8.16.37.22,1.61.2,3.27Z"/>
      </g>
    </g>
  </g>
  <g>
    <path class="cls-17" d="M368.92,116.1l-7.16,4.24-12.07-17.32c-.94-1.35-2.54-2.15-4.27-2.15h-24.87c-1.73,0-3.33.81-4.27,2.15l-12.07,17.32-7.16-4.24,12.07-17.32c2.51-3.6,6.78-5.76,11.43-5.76h24.87c4.64,0,8.92,2.15,11.43,5.76l12.07,17.32Z"/>
    <rect class="cls-1" x="268.25" y="113.76" width="130.37" height="13.17" rx="1.62" ry="1.62"/>
    <path class="cls-11" d="M387.58,186.19h-108.29c-3.07,0-5.55-2.49-5.55-5.55v-53.71h119.39v53.71c0,3.07-2.49,5.55-5.55,5.55Z"/>
    <path class="cls-31" d="M273.74,126.93h119.39v53.71c0,3.06-2.49,5.55-5.55,5.55h-108.29c-3.06,0-5.55-2.49-5.55-5.55v-53.71h0Z"/>
    <path class="cls-13" d="M348.94,152.63v6.84c0,.56-.49,1.01-1.1,1.01h-9.74v8.99c0,.56-.49,1.01-1.1,1.01h-7.41c-.61,0-1.1-.45-1.1-1.01v-8.99h-9.74c-.61,0-1.1-.45-1.1-1.01v-6.84c0-.56.49-1.01,1.1-1.01h9.74v-8.99c0-.56.49-1.01,1.1-1.01h7.41c.61,0,1.1.45,1.1,1.01v8.99h9.74c.61,0,1.1.45,1.1,1.01Z"/>
    <rect class="cls-17" x="273.74" y="126.93" width="119.39" height="6.08"/>
  </g>
  <g>
    <rect class="cls-18" x="285.93" y="21.96" width="35.62" height="12.23" rx=".69" ry=".69"/>
    <path class="cls-21" d="M320.29,34.92v40.23c0,.4-.36.72-.81.72h-31.48c-.45,0-.81-.32-.81-.72v-40.23c0-.4.36-.72.81-.72h31.48c.45,0,.81.32.81.72Z"/>
    <rect class="cls-31" x="287.19" y="42.56" width="23.93" height="22.69"/>
    <rect class="cls-40" x="287.19" y="44.81" width="21.23" height="18.18"/>
    <g>
      <rect class="cls-38" x="288.98" y="21.96" width="1.86" height="12.23"/>
      <rect class="cls-38" x="293.63" y="21.96" width="1.86" height="12.23"/>
      <rect class="cls-38" x="298.27" y="21.96" width="1.86" height="12.23"/>
      <rect class="cls-38" x="302.91" y="21.96" width="1.86" height="12.23"/>
      <rect class="cls-38" x="307.56" y="21.96" width="1.86" height="12.23"/>
      <rect class="cls-38" x="312.2" y="21.96" width="1.86" height="12.23"/>
      <rect class="cls-38" x="316.84" y="21.96" width="1.86" height="12.23"/>
    </g>
    <path class="cls-31" d="M320.29,34.92v2.25h-33.1v-2.25c0-.4.36-.72.81-.72h31.48c.45,0,.81.32.81.72Z"/>
  </g>
  <g>
    <rect class="cls-1" x="337.42" y="21.96" width="35.62" height="12.23" rx=".69" ry=".69"/>
    <path class="cls-37" d="M371.78,34.92v40.23c0,.4-.36.72-.81.72h-31.48c-.45,0-.81-.32-.81-.72v-40.23c0-.4.36-.72.81-.72h31.48c.45,0,.81.32.81.72Z"/>
    <rect class="cls-27" x="338.67" y="42.56" width="23.93" height="22.69"/>
    <rect class="cls-13" x="338.67" y="44.81" width="21.23" height="18.18"/>
    <g>
      <rect class="cls-17" x="340.47" y="21.96" width="1.86" height="12.23"/>
      <rect class="cls-17" x="345.12" y="21.96" width="1.86" height="12.23"/>
      <rect class="cls-17" x="349.76" y="21.96" width="1.86" height="12.23"/>
      <rect class="cls-17" x="354.4" y="21.96" width="1.86" height="12.23"/>
      <rect class="cls-17" x="359.04" y="21.96" width="1.86" height="12.23"/>
      <rect class="cls-17" x="363.69" y="21.96" width="1.86" height="12.23"/>
      <rect class="cls-17" x="368.33" y="21.96" width="1.86" height="12.23"/>
    </g>
    <path class="cls-27" d="M371.78,34.92v2.25h-33.1v-2.25c0-.4.36-.72.81-.72h31.48c.45,0,.81.32.81.72Z"/>
  </g>
  <g>
    <g>
      <path class="cls-28" d="M426.85,45.91s-14.8,10.02-17.63.8l-6.12-19.95s-3.6-1.29-4.32-4.18c-.55-2.2,1.82-4.59,4.18-5.75.74-.36,1.48-.61,2.12-.69,2.7-.32,6.84-1.77,9.17.81,1.39,1.53,1,3.39.53,4.83h0c-.32.98-.68,1.76-.53,2.09.02.04.06.11.12.23.78,1.46,5.11,9.02,8.45,14.83,2.23,3.88,4.02,6.99,4.02,6.99Z"/>
      <path class="cls-6" d="M426.85,45.91s-14.8,10.02-17.63.8l-6.12-19.95s-3.6-1.29-4.32-4.18c-.55-2.2,1.82-4.59,4.18-5.75-1.24,1.87-1.96,3.8-.76,4.95,2.85,2.71,12.39.06,12.59,0-.32.98-.68,1.76-.53,2.09.02.04.06.11.12.23-3.26.4-8.61,1.43-7.86,3.8,1.08,3.38,5.04,11.42,8.64,11.42,1.55,0,4.65-.18,7.67-.39,2.23,3.88,4.02,6.99,4.02,6.99Z"/>
    </g>
    <path class="cls-36" d="M476.1,47.62c-1.4,9.53-4.42,17.98-10.58,24.14-6.43,6.44-16.29,10.36-31.29,10.36-27.52,0-39.01-15.01-41.87-34.5-.43-2.95,2.01-5.57,5.15-5.57h73.44c3.14,0,5.58,2.62,5.15,5.57Z"/>
    <path class="cls-9" d="M465.52,71.76c-6.43,6.44-16.29,10.36-31.29,10.36-27.52,0-39.01-15.01-41.87-34.5-.43-2.95,2.01-5.57,5.15-5.57h4.24c4.47,11.24,14.41,29.71,31.39,29.71h32.39Z"/>
    <path class="cls-11" d="M466.3,49.56c0,.79-.34,1.5-.88,2.02-.54.52-1.3.83-2.13.83h-20.96c-1.66,0-3.01-1.27-3.01-2.85,0-.79.34-1.5.88-2.02.54-.52,1.3-.83,2.13-.83h20.96c1.66,0,3.01,1.27,3.01,2.85Z"/>
  </g>
  <g>
    <rect class="cls-36" x="428.91" y="113.73" width="144.29" height="77.49" rx="4.16" ry="4.16"/>
    <path class="cls-28" d="M573.2,164.5v22.1c0,2.55-2.28,4.61-5.1,4.61h-134.1c-2.82,0-5.1-2.06-5.1-4.61v-31.07c19.91,10.36,49.98,16.96,83.62,16.96,22.48,0,43.36-2.95,60.68-7.99Z"/>
    <rect class="cls-5" x="428.91" y="152.47" width="144.29" height="1.79"/>
    <g class="cls-22">
      <path class="cls-11" d="M442.34,134.2c0,4.88,4.38,8.84,9.77,8.84,2.2,0,4.23-.66,5.86-1.77l-13.68-12.37c-1.23,1.48-1.95,3.31-1.95,5.3Z"/>
      <path class="cls-11" d="M452.12,125.37c-2.38,0-4.56.77-6.26,2.05l13.76,12.44c1.41-1.53,2.27-3.51,2.27-5.66,0-4.88-4.38-8.84-9.77-8.84Z"/>
    </g>
    <g class="cls-3">
      <path class="cls-11" d="M474.18,134.2c0,4.88,4.38,8.84,9.77,8.84,2.2,0,4.23-.66,5.86-1.77l-13.68-12.37c-1.23,1.48-1.95,3.31-1.95,5.3Z"/>
      <path class="cls-11" d="M483.95,125.37c-2.38,0-4.56.77-6.26,2.05l13.76,12.44c1.41-1.53,2.27-3.51,2.27-5.66,0-4.88-4.38-8.84-9.77-8.84Z"/>
    </g>
    <g class="cls-33">
      <path class="cls-11" d="M506.01,134.2c0,4.88,4.38,8.84,9.77,8.84,2.2,0,4.23-.66,5.86-1.77l-13.68-12.37c-1.23,1.48-1.95,3.31-1.95,5.3Z"/>
      <path class="cls-11" d="M515.78,125.37c-2.38,0-4.56.77-6.26,2.05l13.76,12.44c1.41-1.53,2.27-3.51,2.27-5.66,0-4.88-4.38-8.84-9.77-8.84Z"/>
    </g>
    <g class="cls-16">
      <path class="cls-11" d="M537.84,134.2c0,4.88,4.38,8.84,9.77,8.84,2.2,0,4.23-.66,5.86-1.77l-13.68-12.37c-1.23,1.48-1.95,3.31-1.95,5.3Z"/>
      <path class="cls-11" d="M547.61,125.37c-2.38,0-4.56.77-6.26,2.05l13.76,12.44c1.41-1.53,2.27-3.51,2.27-5.66,0-4.88-4.38-8.84-9.77-8.84Z"/>
    </g>
    <g class="cls-10">
      <path class="cls-11" d="M452.12,163.65c-2.38,0-4.56.77-6.26,2.05l13.76,12.44c1.41-1.53,2.27-3.51,2.27-5.66,0-4.88-4.38-8.84-9.77-8.84Z"/>
      <path class="cls-11" d="M442.34,172.49c0,4.88,4.38,8.84,9.77,8.84,2.2,0,4.23-.66,5.86-1.77l-13.68-12.37c-1.23,1.48-1.95,3.31-1.95,5.3Z"/>
    </g>
    <g class="cls-8">
      <path class="cls-11" d="M483.95,163.65c-2.38,0-4.56.77-6.26,2.05l13.76,12.44c1.41-1.53,2.27-3.51,2.27-5.66,0-4.88-4.38-8.84-9.77-8.84Z"/>
      <path class="cls-11" d="M474.18,172.49c0,4.88,4.38,8.84,9.77,8.84,2.2,0,4.23-.66,5.86-1.77l-13.68-12.37c-1.23,1.48-1.95,3.31-1.95,5.3Z"/>
    </g>
    <g class="cls-19">
      <path class="cls-11" d="M515.78,163.65c-2.38,0-4.56.77-6.26,2.05l13.76,12.44c1.41-1.53,2.27-3.51,2.27-5.66,0-4.88-4.38-8.84-9.77-8.84Z"/>
      <path class="cls-11" d="M506.01,172.49c0,4.88,4.38,8.84,9.77,8.84,2.2,0,4.23-.66,5.86-1.77l-13.68-12.37c-1.23,1.48-1.95,3.31-1.95,5.3Z"/>
    </g>
    <g class="cls-14">
      <path class="cls-11" d="M537.84,172.49c0,4.88,4.38,8.84,9.77,8.84,2.2,0,4.23-.66,5.86-1.77l-13.68-12.37c-1.23,1.48-1.95,3.31-1.95,5.3Z"/>
      <path class="cls-11" d="M547.61,163.65c-2.38,0-4.56.77-6.26,2.05l13.76,12.44c1.41-1.53,2.27-3.51,2.27-5.66,0-4.88-4.38-8.84-9.77-8.84Z"/>
    </g>
  </g>
  <g>
    <rect class="cls-20" x="489.61" y="17.62" width="83.59" height="88.42" rx="3.01" ry="3.01"/>
    <rect class="cls-36" x="494.32" y="21.37" width="74.18" height="80.93" rx="3.01" ry="3.01"/>
    <path class="cls-18" d="M549.74,16.41v7.35c0,.46-.43.83-.97.83h-34.74c-.53,0-.97-.37-.97-.83v-7.35c0-.46.43-.83.97-.83h9.49c.54-2.9,3.86-5.13,7.88-5.13s7.34,2.23,7.88,5.13h9.49c.53,0,.97.37.97.83Z"/>
    <path class="cls-25" d="M543.76,38.8v4.71c0,.39-.36.7-.81.7h-7.17v6.19c0,.39-.36.7-.81.7h-5.46c-.45,0-.81-.31-.81-.7v-6.19h-7.17c-.45,0-.81-.31-.81-.7v-4.71c0-.39.36-.7.81-.7h7.17v-6.19c0-.39.36-.7.81-.7h5.46c.45,0,.81.31.81.7v6.19h7.17c.45,0,.81.31.81.7Z"/>
    <g>
      <rect class="cls-5" x="503.6" y="59.83" width="56.09" height="2" rx=".93" ry=".93"/>
      <rect class="cls-5" x="503.6" y="67.95" width="56.09" height="2" rx=".93" ry=".93"/>
      <rect class="cls-5" x="503.6" y="76.07" width="56.09" height="2" rx=".93" ry=".93"/>
      <rect class="cls-5" x="503.6" y="84.18" width="56.09" height="2" rx=".93" ry=".93"/>
      <rect class="cls-5" x="503.6" y="92.3" width="56.09" height="2" rx=".93" ry=".93"/>
    </g>
  </g>
  <g>
    <path class="cls-25" d="M390.28,83.63s9.71-2.22,13.74,0c4.03,2.22-3.75,2.6,0,3.96,3.75,1.37,5.72-1.85,8.83-.86,3.12.98-3.28,3.97.75,4.22,4.03.25,8.06-2.61,16.81,0,8.75,2.61,4.86,8.08-2.64,8.2s-15.98-1.49-12.37,0c3.61,1.49,7.36,4.22,2.08,4.28-5.28.07-13.2-7.76-12.92-5.65.28,2.11,2.92,4.1,0,4.1s-11.39-4.6-15.15-9.57c-3.75-4.97-2.75-9.42.85-8.69Z"/>
    <path class="cls-30" d="M386.37,82.29c-.88.59-.83,1.79.09,2.33,4.09,2.36,14.11,7.73,22.98,9.32,11.46,2.05,19.01.75,19.01.75,0,0-12.15.56-21.93-2.8-7.94-2.72-15.61-7.77-18.22-9.58-.56-.39-1.35-.39-1.92-.01h0Z"/>
  </g>
  <g>
    <path class="cls-25" d="M267.93,29.27s-6.96,6.2-11.62,5.17c-4.66-1.04,1.71-4.39-2.23-4.55-3.94-.16-3.8,4.27-6.99,4.31-3.19.04.54-5.79-3.01-4.56-3.55,1.23-5.35,6.03-14.22,6.32-8.87.29-8.66-7.45-2.38-10.41,6.28-2.96,14.35-4.29,10.46-4.65-3.89-.35-8.6-2.07-4.17-4.13,4.43-2.06,15.53,3.95,14.11,1.63-1.42-2.32-4.78-3.61-2.31-4.71,2.47-1.1,12.22,1,18.19,5.3,5.97,4.3,7.62,9.78,4.17,10.29Z"/>
    <path class="cls-30" d="M271.99,29.35c.41-1.01-.3-2.37-1.39-2.63-4.78-1.17-16.28-3.58-24.68-2.06-10.85,1.95-16.5,6.29-16.5,6.29,0,0,9.96-5.21,20.13-5.03,8.24.14,17.57,3.06,20.8,4.16.7.24,1.37-.06,1.63-.71h0Z"/>
  </g>
  <g>
    <path class="cls-28" d="M460.27,27.35c0,2.03-.81,3.89-2.16,5.33-.46.5-.99.94-1.57,1.33-1.56,1.05-3.49,1.67-5.58,1.67-5.14,0-9.31-3.73-9.31-8.33,0-1.87.69-3.6,1.86-4.99.43-.52.93-.99,1.49-1.4,1.61-1.2,3.69-1.93,5.96-1.93,5.14,0,9.31,3.73,9.31,8.33Z"/>
    <path class="cls-6" d="M458.11,32.68c-.46.5-.99.94-1.57,1.33l-13.03-11.66c.43-.52.93-.99,1.49-1.4l13.11,11.73Z"/>
  </g>
  <g>
    <path class="cls-37" d="M254.84,208.53c0,2.59-.97,4.97-2.59,6.81-.56.64-1.19,1.21-1.88,1.7-1.87,1.34-4.19,2.13-6.7,2.13-6.17,0-11.17-4.77-11.17-10.64,0-2.39.83-4.6,2.23-6.38.52-.66,1.12-1.26,1.78-1.79,1.94-1.54,4.43-2.47,7.16-2.47,6.17,0,11.17,4.77,11.17,10.64Z"/>
    <path class="cls-27" d="M252.25,215.35c-.56.64-1.19,1.21-1.88,1.7l-15.64-14.9c.52-.66,1.12-1.26,1.78-1.79l15.74,14.99Z"/>
  </g>
  <g>
    <path class="cls-36" d="M489.61,210.77v288.24c0,3.04-2.56,5.5-5.71,5.5h-204.87c-3.16,0-5.71-2.46-5.71-5.5V210.77c0-3.04,2.56-5.5,5.71-5.5h204.87c3.16,0,5.71,2.46,5.71,5.5Z"/>
    <path class="cls-28" d="M481.7,217.56v274.66c0,2.89-2.37,5.24-5.29,5.24h-189.87c-2.93,0-5.29-2.35-5.29-5.24V217.56c0-2.89,2.37-5.24,5.29-5.24h189.87c2.92,0,5.29,2.35,5.29,5.24Z"/>
    <g>
      <rect class="cls-5" x="281.23" y="255.59" width="200.46" height="14.37"/>
      <rect class="cls-5" x="281.23" y="321.93" width="200.46" height="14.37"/>
      <rect class="cls-5" x="281.23" y="386.89" width="200.46" height="14.37"/>
    </g>
    <path class="cls-36" d="M481.7,398.8v93.43c0,2.89-2.37,5.24-5.29,5.24h-189.87c-2.93,0-5.29-2.35-5.29-5.24v-93.43h200.46Z"/>
    <g>
      <rect class="cls-28" x="285.14" y="403.31" width="93.19" height="89.23" rx="1.85" ry="1.85"/>
      <rect class="cls-28" x="384.21" y="403.31" width="93.19" height="89.23" rx="1.85" ry="1.85"/>
    </g>
    <g>
      <path class="cls-5" d="M378.33,469.19v21.35c0,1.1-.97,2-2.16,2h-88.87c-1.19,0-2.16-.89-2.16-2v-49.23c17.4,15.67,52.32,26.7,93.19,27.89Z"/>
      <path class="cls-5" d="M477.4,447.93v42.61c0,1.1-.97,2-2.16,2h-88.87c-1.19,0-2.16-.89-2.16-2v-21.24c.49,0,.98,0,1.47,0,37.87,0,71.36-8.44,91.72-21.37Z"/>
    </g>
    <g>
      <rect class="cls-32" x="364.31" y="439.05" width="5.67" height="17.75" rx="2.43" ry="2.43"/>
      <rect class="cls-32" x="392.92" y="439.05" width="5.67" height="17.75" rx="2.43" ry="2.43"/>
    </g>
    <rect class="cls-36" x="281.23" y="269.96" width="200.46" height="5.62"/>
    <rect class="cls-36" x="281.23" y="336.32" width="200.46" height="5.62"/>
    <g>
      <rect class="cls-18" x="297.66" y="240.13" width="69.35" height="29.83" rx="1.62" ry="1.62"/>
      <path class="cls-11" d="M341.24,253.09v3.91c0,.32-.28.58-.62.58h-5.55v5.14c0,.32-.28.58-.62.58h-4.22c-.35,0-.62-.26-.62-.58v-5.14h-5.55c-.35,0-.62-.26-.62-.58v-3.91c0-.32.28-.58.62-.58h5.55v-5.14c0-.32.28-.58.62-.58h4.22c.35,0,.62.26.62.58v5.14h5.55c.35,0,.62.26.62.58Z"/>
      <rect class="cls-11" x="299.28" y="237.03" width="66.18" height="3.1"/>
    </g>
    <g>
      <rect class="cls-31" x="383.33" y="237.03" width="30.58" height="32.93" rx="2.08" ry="2.08"/>
      <rect class="cls-13" x="386.24" y="246.28" width="17.06" height="10.79"/>
      <path class="cls-20" d="M390.04,230.48h17.15c.89,0,1.62.73,1.62,1.62v4.93h-20.39v-4.93c0-.89.73-1.62,1.62-1.62Z"/>
    </g>
    <g>
      <rect class="cls-25" x="427.4" y="237.03" width="30.58" height="32.93" rx="2.08" ry="2.08"/>
      <rect class="cls-13" x="430.31" y="246.28" width="17.06" height="10.79"/>
      <path class="cls-30" d="M434.12,230.48h17.15c.89,0,1.62.73,1.62,1.62v4.93h-20.39v-4.93c0-.89.73-1.62,1.62-1.62Z"/>
    </g>
    <path class="cls-34" d="M325.37,313.22v23.1h-24.29v-23.1c0-4.01,2.26-7.52,5.66-9.51,1.55-.91,2.52-2.45,2.52-4.15v-14.42c0-1.1.97-2,2.16-2h3.6c1.19,0,2.16.9,2.16,2v14.46c0,1.67.96,3.2,2.49,4.08.78.45,1.49.98,2.14,1.58,2.2,2.03,3.56,4.85,3.56,7.95Z"/>
    <path class="cls-34" d="M359.98,313.22v23.1h-24.29v-23.1c0-4.01,2.26-7.52,5.66-9.51,1.55-.91,2.52-2.45,2.52-4.15v-14.42c0-1.1.97-2,2.16-2h3.6c1.19,0,2.16.9,2.16,2v14.46c0,1.67.96,3.2,2.49,4.08.78.45,1.49.98,2.14,1.58,2.2,2.03,3.56,4.85,3.56,7.95Z"/>
    <g>
      <path class="cls-36" d="M434.6,290.39v45.18c0,.41-.36.75-.81.75h-60.99c-.45,0-.81-.33-.81-.75v-45.18c0-.41.36-.75.81-.75h60.99c.45,0,.81.34.81.75Z"/>
      <g>
        <rect class="cls-18" x="408.01" y="289.64" width="5.54" height="46.68"/>
        <path class="cls-18" d="M434.6,290.39v45.18c0,.41-.36.75-.81.75h-14.66v-46.68h14.66c.45,0,.81.34.81.75Z"/>
      </g>
    </g>
    <g>
      <rect class="cls-11" x="446.32" y="296.24" width="23.49" height="9.09" rx=".69" ry=".69"/>
      <path class="cls-40" d="M468.98,305.88v29.91c0,.3-.24.54-.53.54h-20.76c-.3,0-.53-.24-.53-.54v-29.91c0-.3.24-.54.53-.54h20.76c.29,0,.53.24.53.54Z"/>
      <rect class="cls-21" x="447.15" y="311.56" width="15.78" height="16.87"/>
      <rect class="cls-11" x="447.15" y="313.23" width="14" height="13.52"/>
      <g>
        <rect class="cls-36" x="448.34" y="296.24" width="1.22" height="9.09"/>
        <rect class="cls-36" x="451.4" y="296.24" width="1.22" height="9.09"/>
        <rect class="cls-36" x="454.46" y="296.24" width="1.22" height="9.09"/>
        <rect class="cls-36" x="457.52" y="296.24" width="1.22" height="9.09"/>
        <rect class="cls-36" x="460.58" y="296.24" width="1.22" height="9.09"/>
        <rect class="cls-36" x="463.64" y="296.24" width="1.22" height="9.09"/>
        <rect class="cls-36" x="466.7" y="296.24" width="1.22" height="9.09"/>
      </g>
      <path class="cls-21" d="M468.98,305.88v1.67h-21.83v-1.67c0-.3.24-.54.53-.54h20.76c.29,0,.53.24.53.54Z"/>
    </g>
    <g>
      <path class="cls-31" d="M462.93,357.8v39.49c0,.83-.73,1.5-1.62,1.5h-99.71c-.89,0-1.62-.67-1.62-1.5v-39.49c0-.83.73-1.5,1.62-1.5h99.71c.89,0,1.62.67,1.62,1.5Z"/>
      <path class="cls-40" d="M462.93,357.8v4.75h-102.95v-4.75c0-.83.73-1.5,1.62-1.5h99.71c.89,0,1.62.67,1.62,1.5Z"/>
      <ellipse class="cls-40" cx="382.58" cy="379.14" rx="11.88" ry="11.01"/>
      <g>
        <rect class="cls-13" x="405.24" y="369.63" width="46.41" height="2.83" rx="1.31" ry="1.31"/>
        <rect class="cls-13" x="405.24" y="379.49" width="31.3" height="2.83" rx="1.31" ry="1.31"/>
      </g>
    </g>
    <g>
      <g>
        <rect class="cls-18" x="297.07" y="354.42" width="18.31" height="10.05" rx=".69" ry=".69"/>
        <path class="cls-21" d="M314.73,365.06v33.05c0,.33-.19.59-.42.59h-16.18c-.23,0-.42-.27-.42-.59v-33.05c0-.33.19-.59.42-.59h16.18c.23,0,.42.27.42.59Z"/>
        <rect class="cls-31" x="297.72" y="371.34" width="12.3" height="18.64"/>
        <rect class="cls-40" x="297.72" y="373.19" width="10.91" height="14.94"/>
        <g>
          <rect class="cls-38" x="298.64" y="354.42" width=".95" height="10.05"/>
          <rect class="cls-38" x="301.03" y="354.42" width=".95" height="10.05"/>
          <rect class="cls-38" x="303.42" y="354.42" width=".95" height="10.05"/>
          <rect class="cls-38" x="305.8" y="354.42" width=".95" height="10.05"/>
          <rect class="cls-38" x="308.19" y="354.42" width=".95" height="10.05"/>
          <rect class="cls-38" x="310.57" y="354.42" width=".95" height="10.05"/>
          <rect class="cls-38" x="312.96" y="354.42" width=".95" height="10.05"/>
        </g>
        <path class="cls-31" d="M314.73,365.06v1.85h-17.01v-1.85c0-.33.19-.59.42-.59h16.18c.23,0,.42.27.42.59Z"/>
      </g>
      <g>
        <rect class="cls-1" x="325.95" y="354.42" width="18.31" height="10.05" rx=".69" ry=".69"/>
        <path class="cls-37" d="M343.61,365.06v33.05c0,.33-.19.59-.42.59h-16.18c-.23,0-.42-.27-.42-.59v-33.05c0-.33.19-.59.42-.59h16.18c.23,0,.42.27.42.59Z"/>
        <rect class="cls-27" x="326.59" y="371.34" width="12.3" height="18.64"/>
        <rect class="cls-13" x="326.59" y="373.19" width="10.91" height="14.94"/>
        <g>
          <rect class="cls-17" x="327.52" y="354.42" width=".95" height="10.05"/>
          <rect class="cls-17" x="329.9" y="354.42" width=".95" height="10.05"/>
          <rect class="cls-17" x="332.29" y="354.42" width=".95" height="10.05"/>
          <rect class="cls-17" x="334.68" y="354.42" width=".95" height="10.05"/>
          <rect class="cls-17" x="337.06" y="354.42" width=".95" height="10.05"/>
          <rect class="cls-17" x="339.45" y="354.42" width=".95" height="10.05"/>
          <rect class="cls-17" x="341.84" y="354.42" width=".95" height="10.05"/>
        </g>
        <path class="cls-27" d="M343.61,365.06v1.85h-17.01v-1.85c0-.33.19-.59.42-.59h16.18c.23,0,.42.27.42.59Z"/>
      </g>
    </g>
  </g>
  <g>
    <path class="cls-34" d="M566.77,256.16v32.68c0,2-1.81,3.62-4.05,3.62h-36.82c-2.24,0-4.05-1.62-4.05-3.62v-32.68c0-6.29,4.18-11.82,10.47-14.95,2.86-1.43,4.67-3.86,4.67-6.52v-22.65c0-1.74,1.79-3.14,3.99-3.14h6.65c2.2,0,3.99,1.41,3.99,3.14v22.73c0,2.63,1.78,5.02,4.61,6.42,1.44.71,2.76,1.54,3.95,2.48,4.06,3.2,6.58,7.62,6.58,12.5Z"/>
    <rect class="cls-25" x="531.78" y="206.31" width="25.16" height="15.78" rx=".93" ry=".93"/>
    <rect class="cls-11" x="527.44" y="258.55" width="29.49" height="18.36"/>
    <rect class="cls-40" x="530.04" y="260.62" width="24.29" height="14.23"/>
  </g>
  <g>
    <rect class="cls-5" x="513.47" y="307.55" width="21.42" height="17.74" rx=".69" ry=".69"/>
    <path class="cls-36" d="M534.14,326.5v55.32c0,4.6-4.46,8.32-9.95,8.32h0c-5.5,0-9.95-3.73-9.95-8.32v-55.32c0-.67.22-1.21.49-1.21h18.94c.27,0,.49.54.49,1.21Z"/>
    <g>
      <rect class="cls-32" x="515.31" y="307.55" width="1.12" height="17.74"/>
      <rect class="cls-32" x="518.1" y="307.55" width="1.12" height="17.74"/>
      <rect class="cls-32" x="520.89" y="307.55" width="1.12" height="17.74"/>
      <rect class="cls-32" x="523.69" y="307.55" width="1.12" height="17.74"/>
      <rect class="cls-32" x="526.48" y="307.55" width="1.12" height="17.74"/>
      <rect class="cls-32" x="529.27" y="307.55" width="1.12" height="17.74"/>
      <rect class="cls-32" x="532.06" y="307.55" width="1.12" height="17.74"/>
    </g>
    <path class="cls-28" d="M534.14,326.34v3.27h-19.91v-3.27c0-.58.22-1.05.49-1.05h18.94c.27,0,.49.47.49,1.05Z"/>
    <path class="cls-31" d="M531.64,347.71v32.71c0,3.44-3.34,6.23-7.46,6.23s-7.46-2.79-7.46-6.23v-32.71h14.91Z"/>
  </g>
  <g>
    <rect class="cls-5" x="549.48" y="307.55" width="21.42" height="17.74" rx=".69" ry=".69"/>
    <path class="cls-36" d="M570.15,326.5v55.32c0,4.6-4.46,8.32-9.95,8.32h0c-5.5,0-9.95-3.73-9.95-8.32v-55.32c0-.67.22-1.21.49-1.21h18.94c.27,0,.49.54.49,1.21Z"/>
    <g>
      <rect class="cls-32" x="551.32" y="307.55" width="1.12" height="17.74"/>
      <rect class="cls-32" x="554.12" y="307.55" width="1.12" height="17.74"/>
      <rect class="cls-32" x="556.91" y="307.55" width="1.12" height="17.74"/>
      <rect class="cls-32" x="559.7" y="307.55" width="1.12" height="17.74"/>
      <rect class="cls-32" x="562.49" y="307.55" width="1.12" height="17.74"/>
      <rect class="cls-32" x="565.29" y="307.55" width="1.12" height="17.74"/>
      <rect class="cls-32" x="568.08" y="307.55" width="1.12" height="17.74"/>
    </g>
    <path class="cls-28" d="M570.15,326.34v3.27h-19.91v-3.27c0-.58.22-1.05.49-1.05h18.94c.27,0,.49.47.49,1.05Z"/>
    <path class="cls-18" d="M567.65,347.71v32.71c0,3.44-3.34,6.23-7.46,6.23s-7.46-2.79-7.46-6.23v-32.71h14.91Z"/>
  </g>
  <g>
    <path class="cls-20" d="M251.97,353.12c0,.24-.05.47-.16.69l-4.04,8.71-2.03,4.4c-.75,1.61-3.41,1.61-4.16,0l-2.03-4.4-4.04-8.71c-.1-.22-.15-.45-.16-.69-.04-6.41-.61-97.18,0-105.69.64-8.81,8.3-8.07,8.3-8.07,0,0,7.67-.75,8.3,8.07.62,8.51.04,99.27,0,105.69Z"/>
    <path class="cls-32" d="M247.78,362.53l-2.03,4.4c-.75,1.61-3.41,1.61-4.16,0l-2.03-4.4h8.23Z"/>
    <rect class="cls-26" x="241.59" y="256.58" width="10.66" height="57.21" rx="1.39" ry="1.39"/>
    <rect class="cls-32" x="243.67" y="252.75" width="10.22" height="57.21" rx="1.39" ry="1.39"/>
  </g>
  <g>
    <path class="cls-36" d="M249.04,396.79v28.92c0,4.68-3.98,8.47-8.9,8.47s-8.9-3.79-8.9-8.47v-28.92c0-4.68,3.98-8.47,8.9-8.47,2.46,0,4.68.95,6.29,2.48,1.61,1.54,2.61,3.65,2.61,5.99Z"/>
    <path class="cls-31" d="M249.04,396.79v14.46h-17.8v-14.46c0-4.68,3.98-8.47,8.9-8.47,2.46,0,4.68.95,6.29,2.48,1.61,1.54,2.61,3.65,2.61,5.99Z"/>
  </g>
  <g>
    <path class="cls-18" d="M249.04,465.27v28.92c0,4.68-3.98,8.47-8.9,8.47s-8.9-3.79-8.9-8.47v-28.92c0-4.68,3.98-8.47,8.9-8.47,2.46,0,4.68.95,6.29,2.48,1.61,1.54,2.61,3.65,2.61,5.99Z"/>
    <path class="cls-36" d="M249.04,465.27v14.46h-17.8v-14.46c0-4.68,3.98-8.47,8.9-8.47,2.46,0,4.68.95,6.29,2.48,1.61,1.54,2.61,3.65,2.61,5.99Z"/>
  </g>
  <g>
    <path class="cls-35" d="M528.37,441.22s-15.9-1.84-19.18-11.19,8.08-19.69,16.91-8.62c8.83,11.08,6.81,18.45,2.27,19.81Z"/>
    <path class="cls-35" d="M544.52,459.57s9.09-36.43,22.97-30.52c13.88,5.91-12.62,34.93-12.62,34.93l-10.35-4.41Z"/>
    <path class="cls-25" d="M551.68,446.53c-1.17,9.73-2.42,17.44-2.42,17.44h-18.62s-10.6-45.51-3.79-57.82c2.05-3.7,5.22-5.69,8.67-6.22,8.02-1.24,17.56,5.37,18.09,16.56.38,8.08-.73,20.11-1.93,30.04Z"/>
    <g>
      <path class="cls-25" d="M561.41,433.92c.48-2.18.66-4.37.52-6.6-.06-.94-1.58-.95-1.51,0,.13,2.09-.01,4.15-.47,6.2-.21.93,1.25,1.32,1.46.39h0Z"/>
      <path class="cls-25" d="M564.2,432.93c1.08-1.39,1.81-2.98,2.17-4.69.2-.93-1.26-1.32-1.46-.39-.34,1.6-1.01,3.04-2.02,4.34-.59.76.73,1.49,1.31.75h0Z"/>
      <path class="cls-25" d="M565.98,438.4h5.55c.97,0,.98-1.48,0-1.48h-5.55c-.97,0-.98,1.48,0,1.48h0Z"/>
      <path class="cls-25" d="M562.29,444.5c1.51.67,3.02,1.33,4.53,2,.88.39,1.65-.88.76-1.28-1.51-.67-3.02-1.33-4.53-2-.88-.39-1.65.88-.76,1.28h0Z"/>
      <path class="cls-25" d="M559.13,450.24c1.87,1.54,3.74,3.07,5.61,4.61.74.61,1.82-.43,1.07-1.04-1.87-1.54-3.74-3.07-5.61-4.61-.74-.61-1.82.43-1.07,1.04h0Z"/>
    </g>
    <g>
      <path class="cls-25" d="M517.1,422.81c-1.59-1.73-3.3-3.35-5.12-4.85-.74-.61-1.82.43-1.07,1.04,1.82,1.51,3.53,3.12,5.12,4.85.65.71,1.72-.34,1.07-1.04h0Z"/>
      <path class="cls-25" d="M512.47,426.09h-3.53c-.97,0-.98,1.48,0,1.48h3.53c.97,0,.98-1.48,0-1.48h0Z"/>
      <path class="cls-25" d="M516.99,431.48c-.41.4-.88.65-1.44.78-.95.22-.55,1.64.4,1.42.8-.18,1.53-.59,2.11-1.16.69-.68-.38-1.72-1.07-1.04h0Z"/>
    </g>
    <path class="cls-35" d="M551.68,446.53c-1.17,9.73-2.42,17.44-2.42,17.44h-18.62s-10.6-45.51-3.79-57.82c2.05-3.7,5.22-5.69,8.67-6.22-2.84,4.84-4.92,11.25-4.24,19.31,1.22,14.41,7.43,23.91,20.4,27.29Z"/>
    <g>
      <path class="cls-40" d="M522.78,407.41c2.02,1.64,4.04,3.28,6.06,4.92.74.6,1.82-.44,1.07-1.04-2.02-1.64-4.04-3.28-6.06-4.92-.74-.6-1.82.44-1.07,1.04h0Z"/>
      <path class="cls-40" d="M528.85,416.26c.59.49,1.18.98,1.77,1.47.31.26.77.3,1.07,0,.27-.27.31-.78,0-1.04-.59-.49-1.18-.98-1.77-1.47-.31-.26-.77-.3-1.07,0-.27.27-.31.78,0,1.04h0Z"/>
      <path class="cls-40" d="M540.81,402.81c-1.26,1.73-2.51,3.46-3.77,5.18-.56.78.75,1.52,1.31.75,1.26-1.73,2.51-3.46,3.77-5.18.56-.78-.75-1.52-1.31-.75h0Z"/>
      <path class="cls-40" d="M544.6,406.22c-.4.97-.91,1.88-1.51,2.75-.54.79.77,1.53,1.31.75.67-.98,1.21-2.01,1.66-3.1.36-.88-1.1-1.27-1.46-.39h0Z"/>
      <path class="cls-40" d="M553.6,406.36c-1.49,2.13-3.33,3.97-5.48,5.48-.78.55-.03,1.83.76,1.28,2.37-1.66,4.38-3.66,6.02-6.01.55-.79-.76-1.53-1.31-.75h0Z"/>
      <path class="cls-40" d="M542.16,420.01c1.11,1.32,2.36,2.47,3.76,3.5.78.57,1.53-.71.76-1.28-1.29-.95-2.43-2.05-3.45-3.27-.62-.74-1.68.31-1.07,1.04h0Z"/>
      <path class="cls-40" d="M532.66,425.37c-2.82.15-5.58-.33-8.15-1.49-.88-.4-1.65.88-.76,1.28,2.82,1.27,5.82,1.86,8.92,1.69.97-.05.98-1.53,0-1.48h0Z"/>
      <path class="cls-40" d="M527.98,420.07c-1.26-.58-2.52-1.17-3.77-1.75-.88-.41-1.65.87-.76,1.28,1.26.58,2.52,1.17,3.77,1.75.88.41,1.65-.87.76-1.28h0Z"/>
      <path class="cls-40" d="M547.69,417.1c1.08.81,2.24,1.5,3.48,2.06.88.4,1.65-.88.76-1.28-1.24-.56-2.4-1.25-3.48-2.06-.77-.58-1.53.7-.76,1.28h0Z"/>
      <path class="cls-40" d="M534.88,415.22c1.64-.44,3.08-1.33,4.17-2.6.62-.73-.45-1.78-1.07-1.04-.93,1.09-2.1,1.85-3.5,2.22-.94.25-.54,1.68.4,1.42h0Z"/>
      <path class="cls-40" d="M542.79,426.36c2.87.62,5.74,1.25,8.6,1.87.95.21,1.36-1.22.4-1.42-2.87-.62-5.74-1.25-8.6-1.87-.95-.21-1.36,1.22-.4,1.42h0Z"/>
      <path class="cls-40" d="M545.64,433.4c1.86.9,3.59,1.98,5.2,3.26.75.6,1.82-.44,1.07-1.04-1.7-1.37-3.53-2.54-5.5-3.49-.87-.42-1.64.85-.76,1.28h0Z"/>
      <path class="cls-40" d="M532.41,431.28c-2.11-.11-4.21-.07-6.32.11-.96.08-.97,1.56,0,1.48,2.11-.18,4.21-.22,6.32-.11.97.05.97-1.43,0-1.48h0Z"/>
      <path class="cls-40" d="M532.77,438.52c-.43.72-1.02,1.29-1.76,1.7-.85.47-.08,1.75.76,1.28.96-.53,1.75-1.3,2.3-2.23.49-.82-.82-1.57-1.31-.75h0Z"/>
      <path class="cls-40" d="M538.21,431.55c-.26-1.05-1.05-1.84-2.07-2.22-.38-.14-.83.16-.93.52-.12.41.14.77.53.91.53.19.89.66,1.01,1.19.23.92,1.69.53,1.46-.39h0Z"/>
      <path class="cls-40" d="M527.36,435.44c-1.6.09-3.2.19-4.79.28-.97.06-.98,1.53,0,1.48,1.6-.09,3.2-.19,4.79-.28.97-.06.98-1.53,0-1.48h0Z"/>
      <path class="cls-40" d="M538.97,445.54c.69.87,1.2,1.85,1.54,2.9.29.9,1.76.52,1.46-.39-.43-1.3-1.07-2.47-1.93-3.55-.6-.75-1.66.3-1.07,1.04h0Z"/>
      <path class="cls-40" d="M541.01,438.87c2.5,2.42,4.86,4.97,7.08,7.63.61.74,1.68-.31,1.07-1.04-2.22-2.67-4.58-5.21-7.08-7.63-.69-.67-1.76.37-1.07,1.04h0Z"/>
      <path class="cls-40" d="M549.2,440.49c2.54,1.41,5.29,2.22,8.2,2.44.97.07.97-1.4,0-1.48-2.64-.2-5.14-.96-7.44-2.23-.85-.47-1.61.8-.76,1.28h0Z"/>
      <path class="cls-40" d="M533.22,444.84c-1.43.27-2.85.53-4.28.8-.96.18-.55,1.6.4,1.42,1.43-.27,2.85-.53,4.28-.8.96-.18.55-1.6-.4-1.42h0Z"/>
      <path class="cls-40" d="M536.75,452.44c-1.93.28-3.86.56-5.79.83-.96.14-.55,1.56.4,1.42,1.93-.28,3.86-.56,5.79-.83.96-.14.55-1.56-.4-1.42h0Z"/>
      <path class="cls-40" d="M542.59,454c1.89.46,3.61,1.28,5.11,2.49.75.6,1.83-.44,1.07-1.04-1.71-1.37-3.63-2.34-5.78-2.87-.95-.23-1.35,1.19-.4,1.42h0Z"/>
    </g>
    <path class="cls-28" d="M568.83,463.3v38.86c0,1.49-1.09,2.71-2.44,2.71h-47.08c-1.35,0-2.44-1.21-2.44-2.71v-38.86c0-1.49,1.09-2.71,2.44-2.71h47.08c1.34,0,2.44,1.21,2.44,2.71Z"/>
    <path class="cls-5" d="M568.83,493.28v8.89c0,1.49-1.09,2.71-2.44,2.71h-47.08c-1.35,0-2.44-1.21-2.44-2.71v-38.86c0-1.49,1.09-2.71,2.44-2.71h9.73c4.02,15.88,13.12,33.65,33.67,32.83,2.08-.08,4.13-.13,6.12-.14Z"/>
  </g>
</svg>