<?xml version="1.0" encoding="UTF-8"?>
<svg id="Layer_10" data-name="Layer 10" xmlns="http://www.w3.org/2000/svg" viewBox="0 0 200 200">
  <defs>
    <style>
      .cls-1 {
        fill: #5ed2f1;
      }

      .cls-2 {
        fill: #2862bd;
      }

      .cls-3 {
        fill: #3279e9;
      }

      .cls-4 {
        fill: #9ca1be;
      }

      .cls-5 {
        fill: #fbe696;
      }

      .cls-6 {
        fill: #e1e6f5;
      }

      .cls-7 {
        fill: #f19a98;
      }

      .cls-8 {
        fill: #9ca1bf;
      }

      .cls-9 {
        fill: #fefefe;
      }

      .cls-10 {
        fill: #c7ccec;
      }

      .cls-11 {
        fill: #4fb4db;
      }

      .cls-12 {
        fill: #f9d75d;
      }
    </style>
  </defs>
  <path class="cls-1" d="M120.01,83.66l-.24.65c-4.08,1.82-8.07,3.83-11.95,6.04l-1.18-.21-.94-.75c-.84-5.45-5.25-8.22-10.55-8.23l-7.7-.12c-.26-.28-.53-.49-.8-.51-3.54-.17-7.4-.14-10.8.29-.18,1.07-.48,1.02-.81,0l-1.07,1.09c-8.01,2.96-7.21,15.88,1.62,17.08l.67.89c3.52.3,7.17.43,10.94.41.04-.31.13-.78.35-.81.6-.08,6.47-.14,6.78,0s.45.49.57.81l.12,1.1c-2.9,3.57-5.43,7.48-7.57,11.55l-1.06.32c-2.33.48-4.87.6-7.61.39-1.74.45-3.26.45-4.55.02l-.44.97c-10,5.3-4.99,18.49,6.05,17.28l.87.8.76.79c-.21,3.65-.21,7.33,0,10.98l-.76.79c-.71.71-1.78.99-3.2.85-1.34.5-2.43.48-3.29-.04l-.45.96c-13.29,8.44-.28,20.65,11.81,17.04l.8.65.98.15,3.05,5.43-.38.91c.64.99-.05,1.21-1.04,1.27-22.42.08-45.17-.02-67.63-.27-6.72-.07-6.82-8.64-6.32-13.38l.81-.58.95.24c1.25,2.87,4.06,4.87,7.12,5.38l.45.86c3.5.32,7.15.46,10.94.41l.65-.81,7.64-.02c3.96-.19,7.86-1.66,9.34-5.63l1.02-.42-.57-.94c1.56-9.68-5.33-10.95-13.17-11.43-5.03-.31-9.98-.51-15.06-.46l-1.19.26c-.18,1.07-.48,1.02-.81,0-2.69,1.76-4.82,3.89-6.4,6.4l-.89.09-.81-.38v-25.48l.81-.49.95.24c1.25,2.87,4.06,4.87,7.12,5.38l.45.86c3.5.32,7.15.46,10.94.41l.65-.81,7.64-.02c3.96-.19,7.86-1.66,9.34-5.63l1.02-.42-.57-.94c1.56-9.68-5.33-10.95-13.17-11.43-5.03-.31-9.98-.51-15.06-.46l-1.19.26c-.18,1.07-.48,1.02-.81,0-2.69,1.76-4.82,3.89-6.4,6.4l-.89.09-.81-.38v-25.48l.81-.49.95.24c1.25,2.87,4.06,4.87,7.12,5.38l.45.86c3.5.32,7.15.46,10.94.41l.65-.81,7.64-.02c3.96-.19,7.86-1.66,9.34-5.63l1.02-.42-.57-.94c1.56-9.68-5.33-10.95-13.17-11.43-5.03-.31-9.98-.51-15.06-.46l-1.19.26c-.18,1.07-.48,1.02-.81,0-2.69,1.76-4.82,3.89-6.4,6.4l-.89.09-.81-.38v-25.48l.81-.49.95.24c1.25,2.87,4.06,4.87,7.12,5.38l.45.86c3.5.32,7.15.46,10.94.41l.65-.81,7.64-.02c3.96-.19,7.86-1.66,9.34-5.63l1.02-.42-.57-.94c1.56-9.68-5.33-10.95-13.17-11.43-5.03-.31-9.98-.51-15.06-.46l-1.19.26c-.18,1.07-.48,1.02-.81,0-2.69,1.76-4.82,3.89-6.4,6.4l-.89.09-.81-.38v-25.48l.81-.49.95.24c1.25,2.87,4.06,4.87,7.12,5.38l.45.86c3.5.32,7.15.46,10.94.41l.65-.81,7.64-.02c3.96-.19,7.86-1.66,9.34-5.63l1.02-.42-.57-.94c1.55-9.15-4.81-10.93-12.45-11.41-5.26-.33-10.45-.56-15.78-.48l-1.19.27c-.2,1.11-.91,1.3-1.62.41-1.04,1.21-2.33,2.35-3.86,3.41-.79,1.37-1.66,2.26-2.63,2.67l-.81-.37-.05-18.27H3.46s-.59-.81-.59-.81l116.35-.23.78,80.89Z"/>
  <path class="cls-3" d="M159.73,193.5c-24.48,5.63-49.99-5.92-62.47-28.33-16.41-29.46-6.47-67.36,24.77-81.91,46.8-13.96,88.62,31.18,71.35,76.82-5.7,15.06-18.55,27.86-33.65,33.43Z"/>
  <path class="cls-11" d="M2.87,3.01h12.97s0,19.46,0,19.46c.64.52.82,1.49.53,2.93.27,1.39.09,2.44-.53,3.15v26.35c.64.52.82,1.49.53,2.93.27,1.39.09,2.44-.53,3.15v26.35c.64.52.82,1.49.53,2.93.27,1.39.09,2.44-.53,3.15v26.35c.64.52.82,1.49.53,2.93.27,1.39.09,2.44-.53,3.15v26.35c.64.52.82,1.49.53,2.93.27,1.39.09,2.44-.53,3.15.04,6.39-1.54,12.44,6.74,13.32,21.73-.09,43.48.29,65.21.06.69,0,1.8.26,2.22-.41l.96-.03,4.59,6.01-.28.91-92.64-.38L2.87,3.01Z"/>
  <path class="cls-2" d="M122.03,83.26l.31.5c-54.63,27.51-35.2,109.78,25.91,110.4l11.48-.66c-22.5,8.3-48.4,2.53-64.45-15.4-1.5-1.68-4.02-5-5.27-6.89-1.14-1.73-2.74-4.61-3.65-6.49-1.26.17-3.29-4.63-3.42-5.71l.58-.77-1.08-.69c-1.14-3.65-2.02-7.41-2.47-11.21l.71-1.07c-.28-3.44-.27-9.12,0-12.56l-.76-.6c-.13-1.06.7-6.2,1.97-6.29l-.54-1.22c.94-3.69,2.24-7.28,3.82-10.74l1.18-.61c1.9-3.9,5.66-9.72,8.51-12.97l-.22-.97c1.31-1.93,4.84-4.96,7.11-5.51-.39-1.39,3.64-4.45,4.86-3.65,3.67-2.38,9.24-5.08,13.38-6.49.68-.23,1.43-.23,2.03-.41Z"/>
  <path class="cls-10" d="M53.94,28.54l-.71.83-16.88.37c-.28,1.6-.36,3.31-.24,5.12l-.81.58c-2.9.02-5.82.04-8.72,0-.69,0-1.8.26-2.22-.41,2.77-1.24,7.1-1.01,10.11-.48-.57-1.58-.89-4.39.43-5.6l-.69-.6c.22-3.98.43-7.97.62-11.96-2.7.63-6.73.57-9.68.32l-1.19-.74c.42-.67,1.54-.4,2.22-.41,5.71-.07,12.7-.45,18.26,0,6.99.55,11.83,6,9.51,12.98Z"/>
  <path class="cls-10" d="M105.82,28.54l-.71.83-16.88.37c-.28,1.6-.36,3.31-.24,5.12l-.81.58c-2.9.02-5.82.04-8.72,0-.69,0-1.8.26-2.22-.41l1.24-.75,8.49-.14v-17.67s.81-.49.81-.49c-.18.21-.36.41-.58.57-.68.49-7.65.31-9.15.17l-1.22-.74c.42-.67,1.54-.41,2.22-.41,5.72-.06,12.68-.45,18.26,0,6.99.55,11.83,6,9.51,12.98Z"/>
  <path class="cls-10" d="M105.82,60.97l-.71.83-16.88.37c-.28,1.6-.36,3.31-.24,5.12l-.81.58c-2.9.02-5.82.04-8.72,0-.69,0-1.8.26-2.22-.41l1.24-.75,8.49-.14v-17.67s.81-.49.81-.49c-.18.21-.36.41-.58.57-.68.49-7.65.31-9.15.17l-1.22-.74c.42-.67,1.54-.41,2.22-.41,5.72-.06,12.68-.45,18.26,0,6.99.55,11.83,6,9.51,12.98Z"/>
  <path class="cls-10" d="M53.94,60.97l-.71.83-16.88.37c-.28,1.6-.36,3.31-.24,5.12l-.81.58c-2.9.02-5.82.04-8.72,0-.69,0-1.8.26-2.22-.41l1.24-.75,8.49-.14v-17.67s.81-.49.81-.49c-.18.21-.36.41-.58.57-.68.49-7.65.31-9.15.17l-1.22-.74c.42-.67,1.54-.4,2.22-.41,5.71-.07,12.7-.45,18.26,0,6.99.55,11.83,6,9.51,12.98Z"/>
  <path class="cls-10" d="M53.94,125.82l-.71.83-16.88.37c-.28,1.6-.36,3.31-.24,5.12l-.81.58c-2.9.02-5.82.04-8.72,0-.69,0-1.8.26-2.22-.41l1.24-.75,8.49-.14v-17.67s.81-.49.81-.49c-.18.21-.36.41-.58.57-.68.49-7.65.31-9.15.17l-1.22-.74c.42-.67,1.54-.4,2.22-.41,5.71-.07,12.7-.45,18.26,0,6.99.55,11.83,6,9.51,12.98Z"/>
  <path class="cls-10" d="M53.94,93.39l-.71.83-16.88.37c-.28,1.6-.36,3.31-.24,5.12l-.81.58c-2.9.02-5.82.04-8.72,0-.69,0-1.8.26-2.22-.41l1.24-.75,8.49-.14v-17.67s.81-.49.81-.49c-.18.21-.36.41-.58.57-.68.49-7.65.31-9.15.17l-1.22-.74c.42-.67,1.54-.4,2.22-.41,5.71-.07,12.7-.45,18.26,0,6.99.55,11.83,6,9.51,12.98Z"/>
  <path class="cls-10" d="M53.94,158.24l-.71.83-16.88.37c-.28,1.6-.36,3.31-.24,5.12l-.81.58c-2.9.02-5.82.04-8.72,0-.69,0-1.8.26-2.22-.41l1.24-.75,8.49-.14v-17.67s.81-.49.81-.49c-.18.21-.36.41-.58.57-.68.49-7.65.31-9.15.17l-1.22-.74c.42-.67,1.54-.4,2.22-.41,5.71-.07,12.7-.45,18.26,0,6.99.55,11.83,6,9.51,12.98Z"/>
  <path class="cls-10" d="M106.63,90.15c-1.38.89-3.58,2.58-4.86,3.65l-1.96.81h-11.77s-.06,5.1-.06,5.1l-.81.58c-2.9,0-5.82.04-8.72,0-.69,0-1.8.26-2.22-.41l1.24-.75,8.49-.14v-17.67s.81-.49.81-.49c-.18.21-.36.41-.58.57-.68.49-7.65.31-9.15.17l-1.22-.74c.42-.67,1.54-.4,2.22-.41,5.65-.07,12.32-.39,17.86-.01,6.17.43,9.87,3.54,10.72,9.75Z"/>
  <path class="cls-6" d="M23.14,48.4l.45.87c-2.4,6.51,4.1,12.17,10.49,10.85v-11.12s.81-.59.81-.59v19.05c-3.44-.19-7.13.25-10.54,0-3.55-.26-7.41-3-8.51-6.49-.38-1.19-.38-4.89,0-6.08.82-2.61,4.54-6.04,7.3-6.49Z"/>
  <path class="cls-6" d="M23.14,113.25l.45.87c-2.4,6.51,4.1,12.17,10.49,10.85v-11.12s.81-.59.81-.59v19.05c-3.44-.19-7.13.25-10.54,0s-7.41-3-8.51-6.49c-.38-1.19-.38-4.89,0-6.08.82-2.61,4.54-6.04,7.3-6.49Z"/>
  <path class="cls-6" d="M23.14,80.83l.45.87c-2.4,6.51,4.1,12.17,10.49,10.85v-11.12s.81-.59.81-.59v19.05c-3.44-.19-7.13.25-10.54,0s-7.41-3-8.51-6.49c-.38-1.19-.38-4.89,0-6.08.82-2.61,4.54-6.04,7.3-6.49Z"/>
  <path class="cls-6" d="M23.14,145.68l.45.87c-2.4,6.51,4.1,12.17,10.49,10.85v-11.12s.81-.59.81-.59v19.05c-3.44-.19-7.13.25-10.54,0-3.55-.26-7.41-3-8.51-6.49-.38-1.19-.38-4.89,0-6.08.82-2.61,4.54-6.04,7.3-6.49Z"/>
  <path class="cls-6" d="M75.02,15.98l.45.87c-2.4,6.51,4.1,12.17,10.49,10.85v-11.12s.81-.59.81-.59v19.05c-3.44-.19-7.13.25-10.54,0-11.46-.85-11.12-17.46-1.22-19.05Z"/>
  <path class="cls-6" d="M75.02,48.4l.45.87c-2.4,6.51,4.1,12.17,10.49,10.85v-11.12s.81-.59.81-.59v19.05c-3.44-.19-7.13.25-10.54,0-11.46-.85-11.12-17.46-1.22-19.05Z"/>
  <path class="cls-6" d="M75.02,80.83l.45.87c-2.4,6.51,4.1,12.17,10.49,10.85v-11.12s.81-.59.81-.59v19.05c-3.44-.19-7.13.25-10.54,0-11.46-.85-11.12-17.46-1.22-19.05Z"/>
  <path class="cls-6" d="M22.33,16.38l.7.92c-.84,6.8,4.53,11.21,11.03,10.87l.83.77c-.11,2.01.08,4.07,0,6.08-3.45-.19-7.13.25-10.54,0s-7.41-3-8.51-6.49c-.38-1.19-.38-4.89,0-6.08.84-2.66,3.84-5.3,6.49-6.08Z"/>
  <path class="cls-6" d="M74.21,146.08l.71.77c-.62,5.12,2.46,10.34,7.94,10.58l.67.82c.61,1.79,1.98,4.71,2.84,6.49-2.25.6-5.57.6-7.92.42-12.78-.96-14.65-15.53-4.24-19.07Z"/>
  <path class="cls-6" d="M74.21,113.66l.71.84c-.51,4.62,1.78,9.09,6.45,10.35l.54.97c-.43,1.89-1.07,5.04-1.22,6.89-1.87.05-3.96-.07-5.77-.52-9.28-2.3-9.99-15.38-.72-18.53Z"/>
  <path class="cls-9" d="M23.95,15.98c3.63-.32,7.67.24,11.35,0-.12,3.71.15,7.46.01,11.18-.03.78-.4,1.44-.42,1.79-7.92.57-13.84-4.27-12.56-12.56.66-.2.69-.32,1.62-.41Z"/>
  <path class="cls-9" d="M23.95,113.25c3.52-.29,7.38.21,10.94,0v12.57c-2.88,0-5.06.38-7.67-1.04-3.88-2.11-6.5-7.46-4.08-11.52.25-.04.55.02.81,0Z"/>
  <path class="cls-9" d="M75.83,15.98c3.52-.29,7.38.21,10.94,0v12.57c-2.88,0-5.06.38-7.67-1.04-3.88-2.11-6.5-7.46-4.08-11.52.25-.04.55.02.81,0Z"/>
  <path class="cls-9" d="M23.95,48.4c3.52-.29,7.38.21,10.94,0v12.57c-2.88,0-5.06.38-7.67-1.04-3.88-2.11-6.5-7.46-4.08-11.52.25-.04.55.02.81,0Z"/>
  <path class="cls-9" d="M75.83,48.4c3.52-.29,7.38.21,10.94,0v12.57c-2.88,0-5.06.38-7.67-1.04-3.88-2.11-6.5-7.46-4.08-11.52.25-.04.55.02.81,0Z"/>
  <path class="cls-9" d="M23.95,80.83c3.52-.29,7.38.21,10.94,0v12.57c-2.88,0-5.06.38-7.67-1.04-3.88-2.11-6.5-7.46-4.08-11.52.25-.04.55.02.81,0Z"/>
  <path class="cls-9" d="M23.95,145.68c3.52-.29,7.38.21,10.94,0v12.57c-2.88,0-5.06.38-7.67-1.04-3.88-2.11-6.5-7.46-4.08-11.52.25-.04.55.02.81,0Z"/>
  <path class="cls-9" d="M75.83,80.83c3.52-.29,7.38.21,10.94,0v12.57c-2.88,0-5.06.38-7.67-1.04-3.88-2.11-6.5-7.46-4.08-11.52.25-.04.55.02.81,0Z"/>
  <path class="cls-9" d="M86.37,113.25c-1.8,3.7-3.56,8.56-4.46,12.56-5.86-1.24-8.56-6.41-7.7-12.16,3.34-1.14,6.44-.85,9.94-.82.68,0,1.8-.26,2.22.41Z"/>
  <path class="cls-4" d="M53.94,60.97c-2.74,8.28-11.62,6.84-18.64,6.89v-6.49s18.64-.4,18.64-.4Z"/>
  <path class="cls-4" d="M105.82,28.54c-2.74,8.27-11.62,6.85-18.64,6.89v-6.49s18.64-.4,18.64-.4Z"/>
  <path class="cls-4" d="M53.94,28.54c-2.74,8.28-11.62,6.84-18.64,6.89v-6.49s18.64-.4,18.64-.4Z"/>
  <path class="cls-4" d="M53.94,93.39c-2.74,8.28-11.62,6.84-18.64,6.89v-6.49s18.64-.4,18.64-.4Z"/>
  <path class="cls-4" d="M105.82,60.97c-2.74,8.27-11.62,6.85-18.64,6.89v-6.49s18.64-.4,18.64-.4Z"/>
  <path class="cls-4" d="M53.94,158.24c-2.74,8.28-11.62,6.84-18.64,6.89v-6.49s18.64-.4,18.64-.4Z"/>
  <path class="cls-4" d="M53.94,125.82c-2.74,8.28-11.62,6.84-18.64,6.89v-6.49s18.64-.4,18.64-.4Z"/>
  <path class="cls-9" d="M80.69,145.27c.32,3.99,1.55,9.17,2.84,12.97-6.61.15-10.37-5.98-9.32-12.16,2.25-.76,4.07-1.01,6.49-.81Z"/>
  <path class="cls-8" d="M101.77,93.8c-1.99,1.65-5.22,4.58-6.89,6.49h-7.7v-6.49s14.59,0,14.59,0Z"/>
  <path class="cls-7" d="M109.61,148.66c5.81-5.82,14.97-.5,21.53-5.42,7.28-5.46,5.22-17.82-3.82-20.07-4.57-1.14-7.54-.25-12.27-2.73-1.5-.79-8.44-6.06-8.44-7.38,0-.99,7.98-8.11,9.19-9.5,4.59,3.81,8.1,6.75,14.54,6.05,3.45-.38,5.2-3.33,7.85-5.12,15.03-10.14,37.58-1.32,39.36,17.08.71,7.34.7,25.66-1.83,32.21-7.37,19.09-31.43,23.18-46.01,9.55-2.4-2.24-2.87-5.34-7.06-4.65-7.22,1.18.62,16.71-7.51,18.83-5.65,1.48-8.54-2.09-8.94-7.29-.46-5.81-.84-17.31,3.4-21.55Z"/>
  <path class="cls-12" d="M142.3,151.76l.98-.67c16.14,2.04,18.93-11.04,17.64-24.07l.84-.79c2.81.27,5.57,1.52,6.05,4.69s.32,15.89-.71,18.69c-3.65,9.97-22.04,13.24-24.8,2.15Z"/>
  <path class="cls-5" d="M161.76,126.22c-.32,6.59,1.17,14.68-3.07,20.23-3.93,5.13-10.28,6.32-16.38,5.3-1.72-6.91,4.68-5.61,8.26-7.35,6.82-3.31,2.75-10.17,5.03-14.83.84-1.71,3.38-3.57,5.29-3.69.61-.04.81.32.88.33Z"/>
</svg>