<?xml version="1.0" encoding="UTF-8"?>
<svg id="Layer_10" data-name="Layer 10" xmlns="http://www.w3.org/2000/svg" viewBox="0 0 200 200">
  <defs>
    <style>
      .cls-1 {
        fill: #6ecefb;
      }

      .cls-2 {
        fill: #bbe6f7;
      }

      .cls-3 {
        fill: #666;
      }

      .cls-4 {
        fill: #61caf8;
      }

      .cls-5 {
        fill: #fbfdfe;
      }

      .cls-6 {
        fill: #c8e9f4;
      }

      .cls-7 {
        fill: #66cbfe;
      }

      .cls-8 {
        fill: #b8e4f7;
      }

      .cls-9 {
        fill: #fefefe;
      }

      .cls-10 {
        fill: #fdfefe;
      }

      .cls-11 {
        fill: #595857;
      }

      .cls-12 {
        fill: #42c0f3;
      }
    </style>
  </defs>
  <path class="cls-7" d="M78.73,26.44v17.63h6.21c5.11,0,13.14,4.35,17.03,7.61l.59,1.12c-1.48,16.02-12.96,29.12-29.68,30.55H3.88s-.49-.82-.49-.82c-.02-10.09.02-16.85,6.09-25.38,4.11-5.78,14.52-13.1,21.77-13.1h6.61v-17.63c.33-.19.66-.36,1.01-.48s.68-.22,1.01-.22c12.3.11,24.53.11,36.84,0,.33,0,.67.1,1.01.22s.68.3,1.01.48Z"/>
  <path class="cls-12" d="M107.99,97.78c2.96.33,4.8,2.54,5.21,5.41-1.13,13.71,1.51,29.86,0,43.28-.23,2.04-1.2,3.6-2.82,4.79-.68.5-2.23.41-1.99,1.21,2.47.98,4.4,2.92,4.78,5.65.79,5.73.49,19.58.05,25.63-.5,6.87-5.75,12.34-12.63,13.02l-84.97-.02c-5.63-.69-10.62-4.83-11.83-10.42l.71-.75c17.82.84,35.75.89,53.77.14l15.06.22c16.97-.93,30.18-16.02,28.92-32.88l-91.72.03c-1.36,0-1.72-.08-2.33-1.23-5.24-1.48-4.32-6.22-4.41-10.42l.28-.8,69.21.02c3.59-.36,7.15-.9,10.67-1.62.57-.75,1.56-1.14,2.98-1.16.79-.68,1.54-1.1,2.23-1.24l.51-1.31c9-6.14,13.86-15.94,13.55-26.83l-.05-9.46.82-1.27c1.19-.33,2.82-.32,4.01,0Z"/>
  <path class="cls-7" d="M8.19,151.88c.85.24,1.69.47,2.59.42l92.4-.02c1.04,18-11.72,33.27-29.84,34.48-21.81-.87-44.44,1.1-66.16,0-1.17-.06-2.23-.38-3.39-.42-1.76-8.16.45-19.67-.37-28.22.37-2.72,2.16-4.06,4.29-5.34.57-.34,1.35.34.49-.9Z"/>
  <path class="cls-7" d="M134.04,143.07l.28-.8h57.81c.87.1,1.28.77,1.22,2-2.85,15.67-5.57,31.38-8.46,47.05-.92,3.28-2.75,4.97-6.17,5.45-9.58-.64-20.23.85-29.67.02-3.16-.28-5.26-2.02-6.17-5.05-3.04-16.21-5.89-32.45-8.84-48.67Z"/>
  <path class="cls-7" d="M9,97.78c31.65-.33,63.34-.36,94.98,0-.15,7.67.78,15.14-1.7,22.55-2.25,6.74-7.25,12.5-13.13,16.33-.63-.53-1.01-1.19-.92-2.02l.38-14.45c.58-3.61.06-6.34-1.57-8.18l-57.09-.17c-.63.42-1.07.94-1.32,1.56-.12,7.66-.1,15.31.05,22.94.23,1.53,2.04,1.93,3.36,1.95,3.64-.14,7.29-.25,10.94-.2,12.62.19,25.21.28,37.83.33,1.07,0,2.11.32,3.13.65-3.23,1.78-7.05,1.83-10.6,2.42l-69.55-.02c-.28-12.86.19-25.78.02-38.65.74-2.56,2.32-4.89,5.19-5.03Z"/>
  <path class="cls-12" d="M107.99,97.38c-1.13.35-2.86.33-4.01,0-31.65.44-63.34.27-94.98,0-7.27-1.21-5.6-9.28-5.61-14.83l69.55.02c12.37-1.11,22.97-9.35,27.05-21.04l1.99-9.83c6.04,5.08,10.47,13.14,11.17,21.09.34,3.87.65,16.09-.04,19.5-.44,2.18-2.83,4.78-5.12,5.1Z"/>
  <path class="cls-6" d="M194.15,123.83c1.12.07,2.18.88,2.4,2-.27.78-.3,1.63,0,2.4-.41,4.93-2.3,11.05-3.21,16.03l-.98-1.2h-58.33c-.98-5.4-2.34-10.79-3.13-16.24.12-1.69,1.2-2.82,2.73-3.39,20.17-.03,40.34.1,60.52.4Z"/>
  <path class="cls-3" d="M76.73,3.6c1.42,1.37.22,4.51-.5,6.25-3.57,8.64-12.36,10.56-21.06,10.03-7.11-.24-14.22-.35-21.32-.35l-2.01-.71c-.09-2.97-.44-9.1.09-11.73.32-1.57,1.62-2.81,3.1-3.31,13.87-.07,27.83-.56,41.69-.19Z"/>
  <path class="cls-11" d="M78.73,26.44c-12.38.65-28.5.65-40.88,0-6.14-.32-5.85-2.18-6.01-7.61,9.83-.59,20.55.78,30.27.01,8.36-.66,14.39-6.81,14.61-15.24,3.51.1,7.46-.53,8.02,4.2.29,2.44.34,13.37-.2,15.45-.77,2.99-3.33,3.06-5.82,3.19Z"/>
  <path class="cls-7" d="M158.48,109.8c-8.05-7.63.24-17.91,6.01-24.05l1.01.22c2.02,2.65,5.75,8.77,6,12,.51,6.85-6.05,13.73-13.02,11.82Z"/>
  <path class="cls-7" d="M140.05,79.34c-7.28-6.48-.32-15.45,4.81-20.84.33-.13.67-.17,1.01-.08,1.19.34,4.42,6.87,4.85,8.37,2.12,7.46-3.16,13.77-10.67,12.54Z"/>
  <path class="cls-12" d="M158.48,109.8c1.13-.75,2.63-.29,4.03-.58,3.31-.67,6.84-4.21,7.8-7.43,1.95-6.57-3.22-10.66-5.82-16.04.37-.4.91-1.47,1.46-1.57.64-.11,4.42,4.71,5.11,5.62,4.25,5.55,8.86,12.1,3.66,18.8-3.86,4.98-11.69,5.5-16.24,1.19Z"/>
  <path class="cls-12" d="M140.05,79.34c2.47-.59,4.62-.68,6.79-2.23,6.96-4.98,2.54-13.67-1.98-18.61.48-.51,1.02-1.92,2-1.43.67.34,4.07,4.76,4.74,5.71,1.57,2.22,4.23,6.07,4.48,8.74.83,8.64-9.63,13.51-16.03,7.82Z"/>
  <path class="cls-1" d="M103.98,97.38c.35.11.34.25,0,.4-31.62-.75-63.35.56-94.98,0v-.4c31.62-.62,63.37.83,94.98,0Z"/>
  <path class="cls-8" d="M194.15,123.83l-60.52-.4c20.14.26,40.5-.53,60.52.4Z"/>
  <path class="cls-4" d="M107.99,97.38v.4c-1.23-.14-2.72.03-4.01,0v-.4c1.26-.03,2.83.16,4.01,0Z"/>
  <path class="cls-2" d="M196.56,128.24c-.64-.38-.66-2,0-2.4.11.54.05,1.79,0,2.4Z"/>
  <path class="cls-10" d="M38.65,55.7c.62,2.75-3.25,2.03-5.3,2.51-10.35,2.45-14.35,9.1-15.98,18.89-.62,3.76-2.66,2.84-2.36-1.16.87-11.53,12.08-21.24,23.64-20.24Z"/>
  <path class="cls-9" d="M89.15,136.65c-.77,2.38-3.17,2.29-5.21,2.4-16.97.98-34.85-.75-51.92.02-2.2-.25-3.91-.55-4.2-3.01-.82-6.93.64-15.37-.01-22.47.02-1.15,1.02-1.94,1.91-2.5l57.45.1c1.29.54,1.83,1.45,1.99,2.82.81,6.99-.62,15.5,0,22.65Z"/>
  <path class="cls-5" d="M47.27,161.9c.54.17.85,1.54.56,1.97-.21.32-2.02.42-2.55.46-7.84.45-20.81.7-28.48-.02-3.01-.28-1.63-2.41-1.2-2.41h31.66Z"/>
  <path class="cls-10" d="M149.23,157.13l4.83,22.66c.42,1.21-1.51,1.86-2.03,1.11-1.59-7.92-3.84-15.81-4.77-23.82l1.96.04Z"/>
  <path class="cls-9" d="M17.01,131.84c-.18.28-2,.12-2,0v-23.04c0-.75,2-.75,2,0v23.04Z"/>
  <path class="cls-3" d="M77.03,123.12c.71.72.81,3.17-.3,3.71l-35.49.22c-3.03-.41-2.56-4.41.41-4.43,10.77.7,22.65-.91,33.29,0,.62.05,1.65.07,2.09.51Z"/>
</svg>