<?xml version="1.0" encoding="UTF-8"?>
<svg xmlns="http://www.w3.org/2000/svg" viewBox="0 0 800 600">
  <defs>
    <style>
      .cls-1 {
        fill: #cacbcd;
      }

      .cls-1, .cls-2, .cls-3, .cls-4, .cls-5, .cls-6 {
        mix-blend-mode: multiply;
      }

      .cls-7, .cls-2 {
        fill: #d8d9da;
      }

      .cls-8, .cls-4 {
        fill: #b7b8ba;
      }

      .cls-9 {
        fill: #5f6062;
      }

      .cls-10, .cls-11, .cls-6 {
        fill: #b01a1f;
      }

      .cls-12 {
        fill: #fff;
      }

      .cls-13 {
        fill: #929496;
      }

      .cls-14 {
        opacity: .53;
      }

      .cls-15 {
        fill: #faeae1;
        opacity: .6;
      }

      .cls-16 {
        fill: #f4c2a1;
      }

      .cls-17 {
        fill: #22446a;
      }

      .cls-11 {
        mix-blend-mode: color-dodge;
      }

      .cls-18 {
        fill: #231f20;
      }

      .cls-19 {
        isolation: isolate;
      }

      .cls-20 {
        fill: #c9cacc;
      }

      .cls-21 {
        fill: #cd1e25;
      }

      .cls-22 {
        fill: #9c5116;
      }

      .cls-23 {
        fill: #e2e3e4;
      }

      .cls-24, .cls-3 {
        fill: #386698;
      }

      .cls-25 {
        fill: #b6b8ba;
      }

      .cls-26 {
        fill: #fad6be;
      }

      .cls-5 {
        fill: #f9ceb2;
      }

      .cls-27 {
        fill: #5a0000;
      }

      .cls-28 {
        fill: #4a85c5;
      }
    </style>
  </defs>
  <g class="cls-19">
    <g id="Layer_3" data-name="Layer 3">
      <g>
        <g>
          <g>
            <path class="cls-10" d="M190.46,357.19c13.58,0,25.65-5.5,33.05-15.87,16.06-22.51,5.11-58.83-29.3-97.16-20.22-22.52-13.12-39.06-4.12-60,4.95-11.52,10.28-23.93,11.22-38.47,2.51-.3,5.04-.84,7.57-1.61,23.23-7.08,43.77-32.33,54.93-67.53,8.3-26.16,27.01-52.59,54.71-48.3,18.93,2.93,32.67,19.92,32.67,40.4v88c0,1.73,1.41,3.14,3.14,3.14s3.14-1.41,3.14-3.14v-88c0-23.6-15.98-43.2-37.99-46.6-20.71-3.2-47.8,8.93-61.66,52.61-10.54,33.23-29.52,56.94-50.78,63.42-1.89.57-3.76,1-5.62,1.28-.24-8.75-2.17-18.27-6.71-28.78-4.78-11.09-13.13-17.42-22.41-17-7.36.35-13.56,5.06-15.79,11.99-1.52,4.72-3.13,17.24,14.82,31.51,7.05,5.6,15.16,8.61,23.66,8.9-.98,13.11-5.88,24.52-10.68,35.71-9.09,21.17-17.68,41.16,5.22,66.67,47.86,53.31,34.19,81.84,28.86,89.31-9.58,13.44-28.85,17.05-47.96,8.96-28.46-12.03-62.55-41.27-62.89-41.56-1.31-1.13-3.3-.99-4.43.33-1.13,1.31-.99,3.3.33,4.43,1.42,1.23,35.17,30.17,64.55,42.6,7.6,3.21,15.25,4.77,22.47,4.77ZM173.19,99.84c6.3,0,12.16,4.9,15.76,13.23,4.22,9.78,6.01,18.56,6.21,26.66-7.14-.23-13.89-2.78-19.92-7.57-10.32-8.21-15.09-17.43-12.76-24.66,1.43-4.42,5.4-7.42,10.12-7.65.19,0,.39-.01.58-.01Z"/>
            <path class="cls-27" d="M190.46,357.51c13.91,0,26.04-5.83,33.3-16,16.15-22.64,5.19-59.11-29.32-97.55-20.09-22.37-13.02-38.83-4.07-59.66,5.04-11.73,10.24-23.84,11.22-38.31,2.45-.31,4.92-.85,7.36-1.59,23.33-7.11,43.94-32.43,55.14-67.73,8.26-26.04,26.89-52.35,54.37-48.09,18.78,2.91,32.4,19.76,32.4,40.09v88c0,1.91,1.55,3.45,3.45,3.45s3.45-1.55,3.45-3.45v-88c0-23.75-16.09-43.48-38.26-46.91-20.85-3.23-48.09,8.96-62,52.83-10.51,33.13-29.42,56.76-50.57,63.21-1.75.53-3.5.94-5.22,1.22-.3-9.43-2.5-18.77-6.72-28.54-4.68-10.84-12.79-17.2-21.82-17.2-.3,0-.59,0-.89.02-7.49.36-13.8,5.15-16.08,12.21-1.54,4.78-3.18,17.46,14.93,31.85,6.93,5.51,15.05,8.6,23.52,8.96-1.03,12.93-5.91,24.29-10.63,35.28-9.13,21.26-17.76,41.35,5.27,67.01,47.71,53.14,34.13,81.5,28.83,88.92-9.5,13.32-28.63,16.87-47.59,8.86-28.01-11.84-61.4-40.31-62.81-41.51-.7-.61-1.57-.9-2.52-.83-.92.07-1.76.49-2.36,1.19-1.24,1.44-1.08,3.63.36,4.87,1.42,1.23,35.22,30.21,64.63,42.65,7.53,3.18,15.13,4.8,22.6,4.8h0ZM312.63,27.48c-24.63,0-41.4,24.6-49.13,48.98-11.14,35.1-31.59,60.27-54.73,67.32-2.49.76-5.01,1.3-7.51,1.6-.15.02-.27.14-.27.29-.93,14.48-6.15,26.62-11.19,38.35-9.04,21.05-16.18,37.67,4.17,60.35,34.3,38.2,45.24,74.38,29.27,96.76-7.14,10-19.09,15.74-32.78,15.74h0c-7.38,0-14.9-1.59-22.35-4.74-29.33-12.4-63.04-41.32-64.46-42.54-1.18-1.02-1.31-2.8-.29-3.99.49-.57,1.18-.92,1.93-.97.75-.06,1.48.18,2.06.68,1.41,1.21,34.88,29.74,62.97,41.62,19.24,8.14,38.67,4.49,48.34-9.07,5.36-7.52,19.14-36.22-28.88-89.71-22.77-25.36-14.22-45.27-5.16-66.34,4.78-11.13,9.72-22.64,10.71-35.81,0-.08-.02-.17-.08-.23-.06-.06-.14-.1-.22-.1-8.45-.29-16.57-3.34-23.48-8.83-17.8-14.15-16.22-26.51-14.72-31.17,2.19-6.81,8.28-11.43,15.51-11.77.29-.01.57-.02.86-.02,8.78,0,16.67,6.23,21.25,16.83,4.24,9.82,6.43,19.2,6.68,28.67,0,.09.05.17.11.23.07.06.16.08.25.07,1.86-.28,3.77-.71,5.66-1.29,21.35-6.51,40.42-30.29,50.99-63.62,13.79-43.49,40.72-55.59,61.31-52.4,21.86,3.38,37.72,22.85,37.72,46.29v88c0,1.56-1.27,2.83-2.83,2.83s-2.83-1.27-2.83-2.83v-88c0-20.64-13.85-37.75-32.94-40.71-2.02-.31-4-.46-5.93-.46ZM195.16,140.04c.08,0,.16-.03.22-.09.06-.06.1-.15.09-.23-.22-8.8-2.26-17.56-6.24-26.78-3.74-8.66-10-13.72-16.64-13.4-4.86.23-8.94,3.32-10.41,7.86-2.38,7.37,2.43,16.72,12.86,25.01,6.08,4.83,12.84,7.4,20.1,7.64h.01ZM173.19,100.15c6.16,0,11.94,4.87,15.47,13.04,3.9,9.03,5.92,17.61,6.18,26.21-7-.3-13.52-2.82-19.4-7.49-10.22-8.12-14.94-17.21-12.65-24.32,1.38-4.29,5.25-7.21,9.84-7.43.19,0,.38-.01.57-.01Z"/>
          </g>
          <path class="cls-6" d="M200.36,151.7c-.1-.29-.26-.57-.39-.83-.04-.07-.08-.14-.13-.2-.17-.22-.35-.45-.56-.63-.22-.19-.46-.36-.71-.48-.02,0-.03-.01-.05-.02-.17-.07-.47-.17-.64-.23-.04-.01-.07-.02-.11-.03-.29-.04-.59-.09-.88-.05-.25.04-.6.08-.87.2-.23.1-.56.24-.78.41-.38.29-.55.46-.76.77.21-1.47.39-2.96.51-4.47,1.12.07,2.24.08,3.35,0,.96-.07,1.99-.11,2.96-.34-.15,2.26-.44,4.46-.78,6.63-.04-.24-.07-.49-.15-.72Z"/>
          <path class="cls-6" d="M194.86,139.71c.1,0,.2.02.3.02-.06-2.23-.24-4.51-.56-6.85.03.06.05.13.08.19.07.17.21.29.32.43.02.07.03.13.05.2.36,1.06,1.14,1.97,2.29,2.2.99.2,2.09-.17,2.74-.96.38-.46.67-1.04.74-1.64.04-.32.04-.65.05-.98.31,2.39.49,4.72.56,7-1.55.26-3.11.48-4.69.52-.09,0-.19,0-.28-.02-.22-.05-.44-.08-.66-.08-.31,0-.62-.01-.93-.02v-.02Z"/>
          <path class="cls-27" d="M196.48,140.07c1.53,0,3.55-.09,5.37-.46.17-.03.28-.2.25-.37-.03-.17-.19-.28-.37-.25-2.42.49-5.21.48-6.66.43,0,0,0,0-.01,0-.17,0-.31.13-.31.3,0,.17.13.32.3.32.39.02.89.03,1.44.03Z"/>
          <path class="cls-27" d="M196.01,146.3c1.74,0,3.97-.11,5.92-.37.17-.02.29-.18.27-.35-.02-.17-.19-.29-.35-.27-2.42.33-5.31.4-7.08.35,0,0,0,0-.01,0-.17,0-.31.13-.31.3,0,.17.13.32.3.33.38.01.81.02,1.27.02Z"/>
          <path class="cls-11" d="M266.94,63.25c.3,0,.58-.17.72-.46,5.5-12.13,21.32-39.88,49.17-35.56.45.08.83-.23.9-.65.07-.43-.23-.83-.65-.9-20.39-3.16-38.91,10.14-50.85,36.46-.18.4,0,.86.39,1.04.11.05.22.07.32.07Z"/>
          <path class="cls-11" d="M207.31,143.07c.08,0,.15-.01.23-.03,13.37-4.08,26.03-14.12,36.61-29.05.25-.35.17-.84-.19-1.09-.35-.25-.84-.17-1.09.19-10.37,14.65-22.75,24.49-35.78,28.46-.41.13-.65.56-.52.98.1.34.41.56.75.56Z"/>
        </g>
        <g>
          <g>
            <g>
              <path class="cls-22" d="M22.32,305.38c5.99-21.74,16.62-45.69,36.96-56.42,24.6,16.29,122,69.79,146.85,85.7,22.14,14.2,44.67,27.59,67.66,40.28-6.25,12.04-9.03,27.78-11.67,40.28-2.81,13.33-3.45,26.97-5.64,40.36-9.52-2.22-19-4.47-28.42-6.63-36.43-8.37-71.69-19.67-106.15-34.08-11.69-4.88-98.47-35.31-109.68-40.93-2.66-18.58,5.68-52.57,10.09-68.56Z"/>
              <path class="cls-26" d="M22.32,305.38c5.55-20.15,15.1-42.21,32.67-53.88,3.69,2.64,7.33,5.33,10.81,8.19,21.78,14.82,116.78,66.36,139,80.45,21.82,13.85,43.92,27.42,66.71,39.69-.31.74-.58,1.52-.87,2.28-.12.12-.26.21-.38.33-.13.13-.08.31-.07.48.06-.03.12-.06.18-.09-3.93,10.53-6.15,22.46-8.24,32.37-2.43,11.54-3.24,23.32-4.82,34.97-9.97-2.38-19.93-4.8-29.85-7.26-30.48-7.53-60.6-16.12-89.79-27.71-16.69-6.62-109.2-38.79-125.99-46.74-1.04-17.24,6.67-48.66,10.65-63.11Z"/>
              <path class="cls-5" d="M16.88,327.72c16.44,6.63,105.68,49.82,120.77,55.52,34.11,12.87,68.75,24.34,103.75,34.56,7.21,2.11,13.26,4.75,19.41,4.59-1.48,9.23-2.25,18.56-3.51,27.8-9.97-2.38-19.93-4.8-29.85-7.26-30.48-7.53-60.6-16.12-89.79-27.71-16.69-6.62-109.2-38.79-125.99-46.74-.56-9.28,3.38-31.44,5.21-40.77Z"/>
            </g>
            <path class="cls-15" d="M50.78,254.61c14.39,7.65,100,55.18,114.32,62.88,27.97,15.04,54.3,35.02,81.07,52.2.93.59,1.02,2.14-.35,1.41-28.02-14.73-55.39-30.27-82.38-46.74-14.73-8.99-101.77-55.95-116.37-65.17-.25-.16-.55-.31-.81-.47,1.44-1.46,2.96-2.82,4.54-4.12Z"/>
          </g>
          <g>
            <path class="cls-22" d="M220.16,424.22c1.16,3.17,2.56,6.25,3.81,9.14,3.55,8.13,7.81,18.85,16.44,22.78,1.55.71,3.16-.14,3.29-1.89,1.12-15.19-4.02-29.91,4.52-43.98,3.94-6.49,8.34-12.46,14.85-16.59,2.53-1.6,7.42-3.24,9.06-5.86,3.31-5.27-4.35-11.82-12.1-16.28,12.63-4.23,27.81-2.23,40.35-.26,5.49.86,26.74,9.37,37.06,11.76,14.04-2.68,26.07-6.14,40.66-5,14.41,1.13,28.63,7.42,41.63,13.19,7.15,3.18,14.04,6.93,20.92,10.67,3.56,1.93,9.23,6.56,14.74,10.43,49.76-23.03,91.03-61.49,132.22-97.15,12.51-10.83,103.03-90.26,115.96-100.65,38.37,8.74,79.48,61.57,87.61,99.23-15.87,12.34-98.27,65.38-131.32,85.16-51.85,31.03-114.71,63.05-174.14,76.8-.54,3.23-1.04,6.13-.97,5.89-2.96,9.5-7.18,16.65-12.96,24.73-1.21,1.69-2.5,3.34-3.75,5.02-.14-.37-.3-.71-.45-1.07,3.46,12.43,6.19,24.69-7.3,32-5.89,3.19-11.7-.54-16.1-5.18.32,1.39.64,2.77.96,4.14,3.32,14.4,3.75,30.89-14.52,31.78-6.57.32-12.96-6.01-18.48-13.96,1.72,11.29.07,21.54-10.32,23.99-9.39,2.21-15.93-3.08-20.67-10.77.31,6.52-1.47,12.84-10.12,10.77-9.14-2.18-15.71-7.26-21.2-13.82-15.35,6.87-29.24-3.55-37.18-17.9-5.42.72-14.17-5.47-16.8-7.59-5.62-4.54-8.98-12.66-9.97-20.21-8.56-6.71-19.07-17.91-17.91-28.8-10.07-5.09-19.72-10.84-28.52-17.56-17.05-13.02-20.27-32.84-19.31-52.96Z"/>
            <path class="cls-26" d="M307.9,390.06c9.54-.99,19.07.25,28.63-.91,2.04-.25,4.08-.37,6.12-.5,1.21-.28,2.43-.52,3.62-.83,31.53-8.38,58.83.81,86.93,15.38,8.01,4.16,26.48,18.8,35.38,17.93,1.38-.13-.32-2.62-1.23-2.7-1.5-.13-3.32-.86-5.3-1.9,17.25-6.46,33.64-18.2,47.3-28.8,25.88-20.09,51.26-40.9,76.06-62.34,15.81-13.67,109.42-95.98,125.67-108.83,33.2,10.48,69.42,58.79,78.73,91.64-16.47,13.01-115.75,75.3-133.27,86.62-52.19,33.74-112.05,56.15-170.21,77.25.03-.22.06-.37.08-.57-1.67.99-3.37,1.91-5.07,2.84-.89,4.12-3.05,7.96-4.32,12.06-1.3,4.26-2.69,8.21-4.47,10.72-1.99,2.8-4.07,5.73-6.21,8.68-5.37-18.91-10.88-35.69-25.38-49.95-13.15-12.92-27.12-25.52-42.32-36.12.6-.29.33-1.31-.15-2.17-9.29-4.34-16.68-6.98-27.69-5.87-12.57,1.26-24.76,4.94-37.17,7.15-13.56,2.42-25.94-2.51-34.21-13.55-5.81-7.76.17-14.34,8.47-15.2Z"/>
            <path class="cls-5" d="M307.9,390.06c2.72-.28,5.44-.37,8.16-.39-1.1,1.17-2.09,2.44-2.79,3.95-5.97,12.83,19.5,10.96,24.27,10.53,24.34-2.2,54.64-6.26,76.23,8.23,10.64,7.14,21.31,15.95,29.46,25.9,8.46,10.32,13.63,22.24,20.89,33.31.87,1.33,2.95,1.51,3.78,0,7.58-13.78,2.41-33.59-5.78-46.05-1.95-2.98-4.1-5.78-6.33-8.51,4.9,2.61,9.51,4.42,12.8,4.1,1.38-.13-.32-2.62-1.23-2.7-1.5-.13-3.32-.86-5.3-1.9,9.67-3.62,19.04-8.92,27.85-14.73-.27.49-.57.97-.82,1.48-6.46,13.08-13.76,41.24,7.09,44.9,9.44,1.66,20.15-2.76,28.73-5.96,13.55-5.05,26.57-11.35,39.68-17.47,122.95-57.4,191.55-113.71,213.99-141.77,4.9,7.92,8.75,16.4,11.25,25.2-16.47,13.01-115.75,75.3-133.27,86.62-52.19,33.74-112.05,56.15-170.21,77.25.03-.22.06-.37.08-.57-1.67.99-3.37,1.91-5.07,2.84-.89,4.12-3.05,7.96-4.32,12.06-1.3,4.26-2.69,8.21-4.47,10.72-1.99,2.8-4.07,5.73-6.21,8.68-5.37-18.91-10.88-35.69-25.38-49.95-13.15-12.92-27.12-25.52-42.32-36.12.6-.29.33-1.31-.15-2.17-9.29-4.34-16.68-6.98-27.69-5.87-12.57,1.26-24.76,4.94-37.17,7.15-13.56,2.42-25.94-2.51-34.21-13.55-5.81-7.76.17-14.34,8.47-15.2Z"/>
            <path class="cls-16" d="M311.54,537.77c.04.55.28.95.57,1.29,2.24,6.57,6.09,13.13,9.13,17.38,6.81,9.52,15.94,9.83,25.77,9.16-1.58-2.18-3.1-4.45-4.56-6.83-1.11-1.82-2.21-3.64-3.3-5.46.56-2.46.74-5.1.61-7.81.1.16.2.32.29.48-.14-.6-.27-1.21-.4-1.81-.86-9.56-5.63-19.56-12.57-24.32-4.49-3.08-9.4-4.82-13.85-.84-2.63,2.35-3.06,5.9-2.84,9.52-.15,2.58.24,5.36,1.04,8.22.04.34.09.7.12,1.02Z"/>
            <path class="cls-16" d="M293.85,535.03c1.8,3.42,4.38,6.16,7.73,8.21,1.02.72,5.62,3.05,9.07,4.04-4.05-8.9-5.84-18.75-4.41-26.72.33-1.83.95-3.22,1.7-4.41,1.68-1.08,3.65-1.79,5.47-2.35,1.7-.51,1.98-2.38.97-3.66-.84-1.05-1.87-2.23-3.03-3.37-.48-.69-.95-1.38-1.46-2.06-2.34-3.11-4.75-4.04-7.04-3.66-.03.06-.1.07-.15.11-3.01-.78-6-.07-8.39,3.56-1.94,2.94-2.86,6.53-3.18,10.23-.08.3-.21.64-.26.89-1.37,6.37.24,13.44,2.99,19.19Z"/>
            <path class="cls-16" d="M273.57,500.97c.44,2.59,1.75,5.18,3.25,7.55.33.72.64,1.43.88,2.12.28.78.84,1.2,1.47,1.38.28.4.56.8.81,1.17.84,1.22,3.51,3.82,5.64,6.31-.01-.55-.05-1.1-.03-1.63.03-.7.12-1.46.2-2.2.24-.26.43-.56.5-1.02.99-6.08,3.13-10.83,7.47-15.27.27-.28.43-.56.53-.86.75-.49,1.55-.91,2.4-1.24-1.67-1.52-3.37-3-5.33-4.28-3.29-2.14-7.57-3.1-11.16-2.25-2.29-.03-4.44.64-5.82,2.66-1.66,2.42-1.56,4.99-.81,7.55Z"/>
            <path class="cls-5" d="M337.71,565.62c-11.72-6.44-7.78-28.9-12.32-40.05-1.67-4.12-5.14-7.61-8.8-8.49.54-.17,1.09-.29,1.65-.34.35.41.88.69,1.6.69h.46c.47,0,.84-.15,1.15-.35,1.91.51,3.8,1.51,5.63,2.77,6.95,4.76,11.71,14.76,12.57,24.32.13.6.26,1.21.4,1.81-.1-.16-.2-.32-.29-.48.14,2.7-.05,5.35-.61,7.81,1.09,1.82,2.19,3.64,3.3,5.46,1.46,2.38,2.98,4.65,4.56,6.83-3.2.22-6.31.29-9.3.02Z"/>
            <path class="cls-5" d="M306.23,520.56c-1.41,7.84.32,17.5,4.24,26.29-.25-.37-.57-.7-1.08-.89-6.77-2.54-8.91-11.71-8.57-18.2.3-5.59,3.97-10.54,4.01-16.05.03-3.94-2.53-9.29-5.91-10.6,1.22-.31,2.49-.27,3.77.05.05-.04.12-.05.15-.11,2.29-.37,4.69.56,7.04,3.66.51.68.98,1.37,1.46,2.06,1.16,1.15,2.19,2.32,3.03,3.37,1.02,1.27.74,3.14-.97,3.66-1.82.56-3.79,1.27-5.47,2.35-.74,1.19-1.37,2.57-1.7,4.41Z"/>
            <path class="cls-5" d="M274.01,494.15c.12-.25.2-.49.37-.73,1.38-2.02,3.53-2.68,5.82-2.66,3.6-.85,7.87.1,11.16,2.25,1.96,1.27,3.66,2.76,5.33,4.28-.85.33-1.65.74-2.4,1.24-.1.3-.26.59-.53.86-3.38,3.46-5.4,7.14-6.61,11.47-2.1-5.9-7.63-14.95-13.15-16.7Z"/>
            <path class="cls-26" d="M256.7,483.93c4.01,2.4,8.2,4.49,12.44,6.5.11-.26.17-.52.29-.77,6.32-13.1,24.48-2.49,31.28,6.84.09,0,.17-.03.27-.03,8.55.04,14.38,8.04,17.57,15.63,4.74.72,9.74,3.27,12.97,5.85,9.73,7.77,14.52,24.23,13.36,36.27.64,1.13,1.3,2.26,1.94,3.4,2.1,4.24,4.79,7.92,8.08,11.06,1.39,1.9,2.88,3.7,4.63,5.18,3.65,3.1,9.63,6.24,14.35,3.24,6.57-4.16,3.02-13.92-.8-20.65-2.99-9.79-9.01-18.58-13.59-27.86-5.31-6.91-10.94-13.73-15.33-21.12,2.93,1.63,5.73,3.47,8.49,5.41,5.77,6.63,12.87,16.8,14.39,18.83,1.91,2.59,3.54,5.13,5.08,7.69,2.59,7.04,4.69,14.17,7.5,21.2,3.48,8.7,8.83,19.42,20.02,18.37,7.78-.73,8.98-12.27,8.81-18.09-.37-11.89-5.03-22.82-10.19-33.38-.16-.5-.32-1.05-.48-1.54-3.66-11-11.47-20.28-18.11-29.56-4.65-6.5-7.91-13.98-12.21-20.71-.13-.21-.18-.56.1-.67l.34-.14c.35-.14.74.48.63.77.18-.43,11.39,13.85,12.09,14.85,5.45,7.74,11.85,14.78,16.21,23.19,3.57,6.89,6.82,14.08,9.87,21.36,4.52,16.48,11.02,35.97,31.2,30.11,13.15-3.82,1.78-30.26-4.56-46.01-1.06-3.41-2.2-6.73-3.49-9.99,0-.07-.04-.16-.05-.22-.06-.44-.23-.74-.45-.99-2.6-6.34-5.8-12.5-10.26-18.72-13.06-18.18-32.45-33.33-41.38-54.14-.22-.53.39-.41.62-.17,16.87,18.21,34.04,36.83,48.57,56.99,7.09,9.84,11.18,21.39,14.32,33.15.28,1.81.67,3.57,1.33,5.19.07.29.16.58.22.87.13.1.25.18.38.27.74,1.46,1.65,2.85,2.95,4.03,3.5,3.18,9.89,2.95,13.71.5,14.57-9.32,1.82-32.51-2.4-44.88-.02-.08-.06-.16-.08-.24-.05-.15-.12-.32-.17-.47,0,0,0-.01,0-.02-3.25-9.51-7.37-18.21-14.14-26.59-3.02-3.73-33.75-33.03-46.96-44.39-18.62-4.7-35.73.55-54.11,4.33-9.71,2-22.37,4.54-31.3-1.64-9.24-6.41-27.27-20.81-15.81-32.47,6.93-7.05,31-4.41,40.3-6.06-38.9-8.24-82-20.35-105.06,22.33-15.86,29.36.25,62.33,26.62,78.1Z"/>
            <path class="cls-5" d="M442.78,531.11c-.07-.29-.15-.58-.22-.87-.66-1.63-1.05-3.39-1.33-5.19-3.14-11.76-7.23-23.31-14.32-33.15-13.64-18.92-29.61-36.47-45.46-53.61-.57-2-1.2-3.98-1.84-5.95,20.35,11.41,42.59,26.97,53.78,47.5,6.9,12.67,8.79,26.18,14.83,38.93,2.76,5.85,8.87,12.55,14.46,5.12,1.68-2.24,2.75-4.59,3.41-7.01,1.31,7.67.37,14.8-6.27,19.04-3.82,2.45-10.21,2.67-13.71-.5-1.3-1.18-2.2-2.57-2.95-4.03-.13-.09-.25-.17-.38-.27Z"/>
            <path class="cls-5" d="M396.85,513.68c-4.36-8.42-10.76-15.45-16.21-23.19-.2-.29-1.28-1.68-2.7-3.5-.04-.06-.05-.12-.1-.18-6.23-7.52-11.75-15.26-15.82-23.97,19.81,15.04,40.32,30.75,47.94,55.18,3.54,11.38,6.47,23.49,13.74,33.21,5.13,6.86,11.27,5.53,15.03-1.59,1.66-3.15,2.27-6.71,2.21-10.44,3.82,12.08,5.31,23.54-3,25.95-20.19,5.86-26.69-13.63-31.2-30.11-3.05-7.28-6.3-14.47-9.87-21.36Z"/>
            <path class="cls-5" d="M230.09,405.82c4.74-8.77,10.34-15.18,16.56-19.83-8.55,9.92-12.83,22.3-8.37,37.95,4.23,14.87,14.05,26.53,26.27,35.39,1.24,1.14,2.53,2.23,3.88,3.25,6.96,5.27,15.63,6.98,22.5,11.97,8.64,6.27,15.99,14.31,23.67,21.68,6.71,6.44,16.8,12.04,22.59,19.1,5.94,7.24,8.68,15.86,12.53,24.25,3.24,7.07,10.07,22.4,20.16,21.36,2.25-.23,3.41-1.47,3.9-3.22,3.52,6.65,6.3,15.47.12,19.38-4.72,3-10.7-.14-14.35-3.24-1.75-1.48-3.25-3.29-4.63-5.18-3.29-3.14-5.98-6.82-8.08-11.06-.64-1.14-1.3-2.27-1.94-3.4,1.16-12.05-3.63-28.5-13.36-36.27-3.23-2.58-8.23-5.13-12.97-5.85-3.19-7.59-9.02-15.59-17.57-15.63-.1,0-.18.03-.27.03-6.81-9.33-24.96-19.94-31.28-6.84-.12.25-.19.51-.29.77-4.24-2.01-8.43-4.1-12.44-6.5-26.37-15.77-42.48-48.74-26.62-78.1Z"/>
            <path class="cls-5" d="M388.16,422.42c-6.14.44-11.7,2.13-17.36,4.59-9.34,4.06-19.27,6.13-29.41,6.83-14.05.97-30.35,1.41-43.08-5.69-7.36-4.11-16.16-12.93-12.67-22.57,1.17-3.25,3.15-5.72,5.56-7.69.04,9.52,12.33,19.2,19.45,24.14,8.94,6.19,21.6,3.64,31.3,1.64,18.38-3.78,35.5-9.03,54.11-4.33,2.48,2.14,5.62,4.95,9.05,8.07-5.59-3.21-11.32-5.39-16.96-4.98Z"/>
            <path class="cls-5" d="M367.06,531.71c-1.51-2.04-8.62-12.2-14.39-18.83-.77-.54-1.57-1.06-2.35-1.58-.07-.4-.22-.79-.58-1.15-7.82-7.77-16.34-15.5-21.83-25.15,8.24,4.64,15.69,10.48,23.2,16.29,7.15,5.53,15.32,10.21,19.84,18.37,5.69,10.28,8,22.95,14.88,32.57,3.46,4.84,9.81,10.58,15.6,5.13,3.01-2.83,4.41-6.3,4.84-10.01,1.22,4.39,2.04,8.88,2.18,13.53.18,5.81-1.02,17.35-8.81,18.09-11.19,1.05-16.54-9.66-20.02-18.37-2.81-7.03-4.91-14.15-7.5-21.2-1.54-2.56-3.17-5.11-5.08-7.69Z"/>
          </g>
          <path class="cls-15" d="M369.76,388.65c30.87-4.3,69.74,15.53,89.98,38.35.21.24.14.75-.25.49-28.16-18.56-55.8-30.07-88.75-36.73-.6-.12-2.15-1.95-.97-2.11Z"/>
          <path class="cls-15" d="M411.49,439.56c10.98,8.4,22.43,17,31.06,27.88,8.67,10.93,13.19,25.29,15.82,38.96.14.73-.79.1-.92-.21-6.09-13.77-10.78-26.48-20.03-38.61-7.64-10.01-17.72-18.35-26.19-27.69-.23-.26-.04-.56.26-.33Z"/>
          <path class="cls-15" d="M398.11,471.79c18.93,14.85,28.49,33.39,33.89,56.54.22.96-1.05.12-1.24-.28-4.35-9.56-8.93-18.98-13.42-28.47-4.83-10.2-12.91-18.44-19.56-27.39-.24-.32-.06-.68.32-.4Z"/>
          <path class="cls-15" d="M372.34,494.31c.18-.58.93.38.98.6-.14-.57,3.98,2.46,4.21,2.75,3.16,3.93,6.33,7.88,9.31,11.96,5.35,7.33,7.62,15.31,9.94,24.01.32,1.2-.93.73-1.33.1-5.6-8.66-9.5-18.15-15.31-26.75-2.51-3.72-4.67-7.78-7.48-11.27-.35-.43-.49-.89-.33-1.41Z"/>
        </g>
        <g>
          <g>
            <path class="cls-24" d="M710.63,268.64l-32.95,24.79s.72,11.61,13.19,14.67l41.45-30.91s7.22-5.38,6.68-8.34c-.55-2.96-10.14-17.15-28.37-.2Z"/>
            <path class="cls-17" d="M732.76,277.77c1.27-.94,7.55-5.81,6.95-9.05-.36-1.97-3.32-6.57-8.53-8.3-4.28-1.43-11.41-1.24-21.01,7.67l-33.23,25,.02.39c0,.12.9,12.17,13.74,15.32l.33.08,41.72-31.12ZM711.07,269.22l.06-.05c7.2-6.69,13.98-9.25,19.6-7.38,4.67,1.55,7.3,5.77,7.56,7.19.32,1.74-3.55,5.51-6.4,7.63l-41.17,30.71c-10.39-2.72-12.04-11.57-12.28-13.55l32.62-24.54Z"/>
          </g>
          <path class="cls-3" d="M739,268.85c-.55-2.96-10.14-17.15-28.37-.2l-8.2,6.17c3.36.76,7.37,2.31,8.46,5.89.67,2.19.03,4.07-1.62,5.6-1.89,1.76-9.75,10-12.31,9.77-2.82-.25-6.24-5.31-8.98-5.91-2.6-.57-4.95-.09-7.14.9l-3.16,2.38s.72,11.61,13.19,14.67l41.45-30.91s7.22-5.38,6.68-8.34Z"/>
          <g>
            <path class="cls-28" d="M690.39,295.59c3.63,4.15,3.82,9.92.43,12.88-3.39,2.96-9.08,2-12.71-2.15-3.63-4.15-3.82-9.92-.43-12.88,3.39-2.96,9.08-2,12.71,2.15Z"/>
            <path class="cls-17" d="M691.3,309.01c3.68-3.22,3.52-9.46-.36-13.9h0c-1.86-2.13-4.3-3.55-6.87-3.98-2.59-.45-5.05.18-6.86,1.76-3.68,3.22-3.52,9.46.36,13.9,1.86,2.13,4.3,3.55,6.87,3.98.09.01.18.03.26.04,2.52.36,4.85-.28,6.6-1.8ZM683.83,292.55c2.24.38,4.37,1.62,6.02,3.51,3.36,3.85,3.58,9.17.5,11.86-1.47,1.29-3.46,1.79-5.67,1.42-2.24-.38-4.37-1.62-6.02-3.51-3.36-3.85-3.58-9.17-.5-11.86,1.42-1.24,3.35-1.76,5.44-1.46.08.01.15.02.23.03Z"/>
          </g>
          <path class="cls-24" d="M688.18,297.52c2.67,3.05,2.81,7.3.32,9.47-2.49,2.18-6.68,1.47-9.35-1.58-2.67-3.05-2.81-7.3-.31-9.47,2.49-2.18,6.68-1.47,9.35,1.58Z"/>
          <g>
            <path class="cls-10" d="M668,317.41c6.63-4.84,13.14-9.72,19.28-14.4.05-1.42-.5-2.93-1.34-3.96-.72-.87-1.64-1.31-2.77-1.34-.33,0-.67.02-1,.06-6.15,4.67-12.64,9.53-19.23,14.34,1.66,1.79,3.35,3.55,5.06,5.29Z"/>
            <path class="cls-27" d="M668.42,318c6.14-4.49,12.63-9.34,19.29-14.41l.27-.21v-.34c.06-1.55-.51-3.25-1.49-4.44-.85-1.03-1.96-1.57-3.31-1.6-.37,0-.74.02-1.1.07l-.19.02-.16.12c-6.64,5.05-13.11,9.87-19.22,14.33l-.66.48.55.6c1.67,1.79,3.36,3.55,5.07,5.3l.44.45.51-.37ZM682.45,298.47c.23-.02.47-.04.7-.03.91.02,1.65.37,2.23,1.08.68.83,1.13,2.03,1.17,3.14-6.37,4.84-12.58,9.48-18.47,13.8-1.37-1.4-2.72-2.81-4.06-4.24,5.87-4.3,12.07-8.92,18.43-13.75Z"/>
          </g>
        </g>
        <g>
          <g>
            <path class="cls-12" d="M671,259.27s50.96,11.07,74.99,56.7l24.71-18.9s-35.46-56.14-75.8-56.09l-23.89,18.29Z"/>
            <path class="cls-7" d="M771.66,297.24l-.35-.56c-.36-.57-36.15-56.47-76.41-56.42h-.24s-25.33,19.38-25.33,19.38l1.52.33c.51.11,50.92,11.54,74.5,56.33l.4.76,25.91-19.82ZM695.14,241.7c37.25.18,70.76,49.39,74.58,55.2l-23.5,17.97c-21.74-40.45-65.06-53.68-73.59-55.94l22.51-17.23Z"/>
          </g>
          <path class="cls-2" d="M722.04,248.76c1.75,1.79,3.12,3.95,2.79,6.38-.29,2.14-2.49,3.53-4.17,4.56-2,1.23-4.12,2.24-6.08,3.52-2.51,1.64-4.95,3.44-7.67,4.71-1.32.62-2.73,1.1-4.18,1.3-1.6.22-3.24-.04-4.81-.33-.91-.17-1.82-.38-2.73-.6,3.17,1.56,6.5,3.36,9.92,5.42,1.35-.9,2.71-1.79,4.06-2.7,7.63-5.12,15.21-10.4,22.28-16.28-3.02-2.18-6.16-4.2-9.4-5.98Z"/>
          <path class="cls-2" d="M730.26,291.74c-.59-3.61,2.65-6.22,5.34-7.96,1.47-.95,3.01-1.77,4.5-2.67,1.7-1.03,3.18-2.35,4.82-3.47,1.65-1.12,3.37-1.87,5.38-1.87,1.66,0,3.28.37,4.81.98-2.69-3.06-5.65-6.24-8.88-9.4-.47.31-.95.61-1.43.92-8.09,5.3-16.12,10.82-23.45,17.15,3.55,3.04,7.03,6.4,10.36,10.12-.68-1.19-1.24-2.42-1.47-3.8Z"/>
        </g>
        <g>
          <g>
            <g>
              <g class="cls-14">
                <path class="cls-20" d="M313.86,310.06s.34-92.66,0-109.08c-.34-16.41,2.72-19.98,16.83-29.81,14.62-10.19,12.32-20.39,12.32-20.39h35.06v-16.39c0-3.9,2.07-3.68,2.07-3.68h4.4s2.07-.22,2.07,3.68v16.39h49.03s-2.3,10.2,12.32,20.39c14.11,9.83,17.17,13.4,16.83,29.81-.34,16.41,0,109.08,0,109.08,0,0,2.05,22.9-25.64,31.11-16.14,4.78-32.84,8.1-49.73,8.13-16.9.03-33.75-3.35-49.9-8.13-27.7-8.21-25.64-31.11-25.64-31.11ZM375.56,346.17h27.52c1.46,0,2.66-1.2,2.66-2.66s-1.2-2.66-2.66-2.66h-27.52c-1.46,0-2.66,1.2-2.66,2.66s1.2,2.66,2.66,2.66Z"/>
                <path class="cls-13" d="M389.15,349.53c.09,0,.17,0,.25,0,15.12-.03,31.41-2.69,49.8-8.14,14.39-4.26,20.64-12.56,23.35-18.76,2.94-6.73,2.46-12.53,2.45-12.59,0-.91-.34-92.83,0-109.05.34-16.4-2.68-20.08-16.93-30.01-7.5-5.23-10.42-10.45-11.56-13.9-1.22-3.72-.68-6.23-.67-6.25l.06-.28h-49.09v-16.16c0-1.64-.36-2.8-1.06-3.43-.6-.54-1.24-.48-1.26-.48h-4.38s-.63-.06-1.24.48c-.7.63-1.06,1.78-1.06,3.43v16.16h-35.11l.06.28c.02.1,2.08,10.18-12.23,20.16-14.24,9.93-17.27,13.61-16.93,30.01.34,16.18,0,107.67,0,109.06-.02.29-.42,5.99,2.46,12.58,2.71,6.2,8.96,14.5,23.35,18.76,18.49,5.48,34.76,8.14,49.71,8.14ZM435.36,151c-.23,1.73-.78,11.13,12.46,20.35,14.08,9.81,17.07,13.44,16.73,29.62-.34,16.23,0,108.16,0,109.08,0,.08.47,5.78-2.43,12.4-2.67,6.11-8.84,14.27-23.05,18.48-18.35,5.44-34.59,8.09-49.67,8.12-.08,0-.17,0-.25,0-14.91,0-31.13-2.66-49.58-8.13-14.22-4.21-20.39-12.39-23.06-18.5-2.89-6.62-2.42-12.31-2.42-12.36v-.02c0-.93.34-92.85,0-109.08-.34-16.17,2.65-19.81,16.73-29.62,13.24-9.23,12.69-18.63,12.46-20.35h35.02v-16.62c0-1.87.49-2.7.9-3.08.45-.41.9-.37.92-.37h4.42s.49-.04.94.37c.41.37.9,1.21.9,3.08v16.62h48.99ZM375.56,346.4h27.52c1.59,0,2.89-1.29,2.89-2.89s-1.29-2.89-2.89-2.89h-27.52c-1.59,0-2.89,1.29-2.89,2.89s1.29,2.89,2.89,2.89ZM403.08,341.08c1.34,0,2.43,1.09,2.43,2.43s-1.09,2.43-2.43,2.43h-27.52c-1.34,0-2.43-1.09-2.43-2.43s1.09-2.43,2.43-2.43h27.52Z"/>
              </g>
              <path class="cls-1" d="M320.76,200.95c.39-5.86,1.94-11.09,4.58-15.56,2.09-3.52,5.01-6.86,9.2-10.49,2.38-2.07,4.35-3.68,6.18-5.09,1.94-1.48,3.17-2.8,3.78-4.01,1.04-2.1,1.49-4.62,1.84-6.82.23-1.47.41-4.95.5-7.75h14.69c-.04,4.9.36,10.79,1.54,12.69,1.13,1.83,3.35,2.36,5,2.48.46.03.9.05,1.32.05,2.21,0,3.86-.47,5.04-1.45,2.34-1.93,6.28-2.8,9.14-2.8.62,0,1.22.04,1.78.12,2.77.39,4.51,1.72,5.91,2.8,1.42,1.09,2.23,1.66,3.67,1.66.14,0,.29,0,.44-.02.32-.02.7-.12,1.15-.66,2.15-2.59,2.24-10.41,1.79-14.88h13c-.43,3.93-.56,12.5,1.76,15.11.38.42.75.6,1.27.6h.1c.08,0,.28-.01.61-.38,1.9-2.1,2.67-9.06,2.75-15.33h15.14c.35,5.19,1.69,12.91,6.31,17.36,1.69,1.63,3.47,3.17,5.19,4.67,7.53,6.54,15.31,13.3,16.28,27.69.56,8.34-.16,20.88-.93,34.15-.77,13.32-1.57,27.1-1.05,36.96.09,1.74.19,3.48.28,5.22,1.05,18.94,1.95,35.3-2,41.76-9.42,15.43-44.35,19.34-58.88,20.3-.17.02-4.19.38-6.76.38-.23,0-.44,0-.64,0-.2,0-.42,0-.64,0-2.57,0-6.6-.37-6.72-.38-14.58-.96-49.5-4.87-58.92-20.3-3.94-6.46-3.04-22.81-2-41.75.1-1.73.19-3.48.28-5.22.52-9.85-.27-23.63-1.05-36.95-.77-13.28-1.5-25.81-.93-34.15Z"/>
              <path class="cls-10" d="M323.05,201.1c.34-5.1,1.65-10.12,4.26-14.54,2.27-3.83,5.39-7.03,8.73-9.93,1.98-1.72,3.99-3.41,6.07-5,1.63-1.25,3.49-2.91,4.44-4.82,1.15-2.33,1.65-4.94,2.05-7.48.37-2.36.6-8.9.58-11.29h10.13s-.66,13.1,1.8,17.08c1.47,2.38,4.1,3.37,6.79,3.57,2.78.21,5.76-.08,7.99-1.92,2.03-1.68,6.26-2.58,9.14-2.18,4.73.66,5.58,4.84,10.52,4.46,6.95-.54,5.02-18.29,5.02-18.29h8.47s-2.2,18.8,5.49,18.46c6.78-.3,5.44-23.52,5.44-23.52h10.59s-1.19,16.57,7.07,24.53c9.07,8.75,19.65,14.25,20.77,30.86,1.12,16.6-3.03,51.36-1.98,71.07s2.54,39.24-1.38,45.65c-6.81,11.16-30.63,17.46-57.12,19.21,0,0-4.84.44-7.19.36-2.35.08-7.21-.36-7.21-.36-26.49-1.75-50.3-8.05-57.11-19.21-3.92-6.42-2.43-25.94-1.38-45.65,1.05-19.71-3.1-54.47-1.98-71.07Z"/>
              <g>
                <rect class="cls-12" x="335.3" y="206.3" width="109.24" height="109.24" rx="10.55" ry="10.55" transform="translate(779.84 521.83) rotate(180)"/>
                <g>
                  <path class="cls-21" d="M414.13,224.5c2.2-3.49,4.47-6.46,6.27-8.63,1.8,2.17,4.06,5.14,6.27,8.63,5.43,8.61,10.41,20.42,6.86,31.44-.14.43-.27.86-.43,1.28-1.3,3.38-3.37,5.61-5.77,6.97-2.13,1.2-4.53,1.7-6.93,1.65-2.39.05-4.79-.45-6.93-1.65-2.4-1.35-4.46-3.59-5.77-6.97-.16-.43-.3-.86-.43-1.29-3.55-11.02,1.43-22.83,6.86-31.44Z"/>
                  <path class="cls-12" d="M419.22,225.14c1.01-1.61,2.05-2.97,2.88-3.97.83,1,1.87,2.36,2.88,3.97,2.5,3.96,4.79,9.38,3.15,14.45-.06.2-.12.39-.2.59-.6,1.55-1.55,2.58-2.65,3.2-.98.55-2.08.78-3.18.76-1.1.02-2.2-.21-3.18-.76-1.1-.62-2.05-1.65-2.65-3.2-.08-.2-.14-.39-.2-.59-1.63-5.07.66-10.49,3.15-14.45Z"/>
                  <g>
                    <g>
                      <g>
                        <g>
                          <rect class="cls-18" x="395.57" y="266.43" width="2.68" height="10.13" transform="translate(793.81 542.99) rotate(180)"/>
                          <rect class="cls-18" x="393.54" y="266.43" width="1.34" height="10.13" transform="translate(788.43 542.99) rotate(180)"/>
                          <rect class="cls-18" x="392.19" y="266.43" width=".67" height="10.13" transform="translate(785.05 542.99) rotate(180)"/>
                          <rect class="cls-18" x="390.3" y="266.43" width="1.2" height="10.13" transform="translate(781.81 542.99) rotate(180)"/>
                          <rect class="cls-18" x="389.02" y="266.43" width=".6" height="10.13" transform="translate(778.64 542.99) rotate(180)"/>
                          <rect class="cls-18" x="388.04" y="266.43" width=".3" height="10.13" transform="translate(776.38 542.99) rotate(180)"/>
                          <rect class="cls-18" x="384.67" y="266.43" width="2.68" height="10.13" transform="translate(772.03 542.99) rotate(180)"/>
                          <rect class="cls-18" x="368.45" y="266.43" width="8.01" height="10.13" transform="translate(744.91 542.99) rotate(180)"/>
                          <rect class="cls-18" x="382.65" y="266.43" width="1.34" height="10.13" transform="translate(766.64 542.99) rotate(180)"/>
                          <rect class="cls-18" x="381.3" y="266.43" width=".67" height="10.13" transform="translate(763.26 542.99) rotate(180)"/>
                          <rect class="cls-18" x="379.41" y="266.43" width="1.2" height="10.13" transform="translate(760.02 542.99) rotate(180)"/>
                          <rect class="cls-18" x="378.13" y="266.43" width=".6" height="10.13" transform="translate(756.86 542.99) rotate(180)"/>
                          <rect class="cls-18" x="377.14" y="266.43" width=".3" height="10.13" transform="translate(754.59 542.99) rotate(180)"/>
                        </g>
                        <g>
                          <rect class="cls-18" x="364.05" y="266.43" width="3.91" height="10.13" transform="translate(732.01 542.99) rotate(180)"/>
                          <rect class="cls-18" x="362.03" y="266.43" width="1.34" height="10.13" transform="translate(725.39 542.99) rotate(180)"/>
                          <rect class="cls-18" x="360.67" y="266.43" width=".67" height="10.13" transform="translate(722.01 542.99) rotate(180)"/>
                          <rect class="cls-18" x="358.79" y="266.43" width="1.2" height="10.13" transform="translate(718.78 542.99) rotate(180)"/>
                          <rect class="cls-18" x="357.5" y="266.43" width=".6" height="10.13" transform="translate(715.61 542.99) rotate(180)"/>
                          <rect class="cls-18" x="356.52" y="266.43" width=".3" height="10.13" transform="translate(713.34 542.99) rotate(180)"/>
                          <rect class="cls-18" x="353.16" y="266.43" width="2.68" height="10.13" transform="translate(708.99 542.99) rotate(180)"/>
                          <rect class="cls-18" x="340.94" y="266.43" width="4.01" height="10.13" transform="translate(685.88 542.99) rotate(180)"/>
                          <rect class="cls-18" x="351.13" y="266.43" width="1.34" height="10.13" transform="translate(703.61 542.99) rotate(180)"/>
                          <rect class="cls-18" x="349.78" y="266.43" width=".67" height="10.13" transform="translate(700.23 542.99) rotate(180)"/>
                          <rect class="cls-18" x="347.89" y="266.43" width="1.2" height="10.13" transform="translate(696.99 542.99) rotate(180)"/>
                          <rect class="cls-18" x="346.61" y="266.43" width=".6" height="10.13" transform="translate(693.82 542.99) rotate(180)"/>
                          <rect class="cls-18" x="345.63" y="266.43" width=".3" height="10.13" transform="translate(691.56 542.99) rotate(180)"/>
                        </g>
                      </g>
                      <g>
                        <rect class="cls-9" x="341.61" y="279.64" width="55.97" height="2.31" transform="translate(739.19 561.58) rotate(180)"/>
                        <rect class="cls-9" x="341.61" y="283.23" width="55.97" height="2.31" transform="translate(739.19 568.76) rotate(180)"/>
                        <g>
                          <rect class="cls-25" x="363.37" y="286.82" width="34.21" height="2.31" transform="translate(760.94 575.94) rotate(180)"/>
                          <rect class="cls-25" x="341.61" y="286.82" width="20.4" height="2.31" transform="translate(703.62 575.94) rotate(180)"/>
                        </g>
                      </g>
                      <g>
                        <g>
                          <rect class="cls-25" x="367.27" y="290.92" width="30.31" height="1.43" transform="translate(764.85 583.27) rotate(180)"/>
                          <rect class="cls-25" x="367.27" y="293.15" width="30.31" height="1.43" transform="translate(764.85 587.74) rotate(180)"/>
                          <g>
                            <rect class="cls-25" x="379.05" y="295.38" width="18.53" height="1.43" transform="translate(776.63 592.2) rotate(180)"/>
                            <rect class="cls-25" x="367.27" y="295.38" width="11.05" height="1.43" transform="translate(745.59 592.2) rotate(180)"/>
                          </g>
                        </g>
                        <g>
                          <rect class="cls-25" x="341.61" y="290.92" width="24.68" height="1.43" transform="translate(707.9 583.27) rotate(180)"/>
                          <rect class="cls-25" x="341.61" y="293.15" width="24.68" height="1.43" transform="translate(707.9 587.74) rotate(180)"/>
                          <g>
                            <rect class="cls-25" x="351.2" y="295.38" width="15.08" height="1.43" transform="translate(717.49 592.2) rotate(180)"/>
                            <rect class="cls-25" x="341.61" y="295.38" width="9" height="1.43" transform="translate(692.21 592.2) rotate(180)"/>
                          </g>
                        </g>
                      </g>
                      <g>
                        <g>
                          <rect class="cls-25" x="341.61" y="298.27" width="30.31" height="1.43"/>
                          <rect class="cls-25" x="341.61" y="300.5" width="30.31" height="1.43"/>
                          <g>
                            <rect class="cls-25" x="341.61" y="302.73" width="18.53" height="1.43"/>
                            <rect class="cls-25" x="360.87" y="302.73" width="11.05" height="1.43"/>
                          </g>
                        </g>
                        <g>
                          <rect class="cls-25" x="372.9" y="298.27" width="24.68" height="1.43"/>
                          <rect class="cls-25" x="372.9" y="300.5" width="24.68" height="1.43"/>
                          <g>
                            <rect class="cls-25" x="372.9" y="302.73" width="15.08" height="1.43"/>
                            <rect class="cls-25" x="388.58" y="302.73" width="9" height="1.43"/>
                          </g>
                        </g>
                      </g>
                    </g>
                    <g>
                      <g>
                        <rect class="cls-23" x="404.79" y="279.76" width="32.82" height=".77"/>
                        <rect class="cls-23" x="404.79" y="281.45" width="32.82" height=".77"/>
                        <rect class="cls-23" x="404.79" y="278.06" width="32.82" height=".77"/>
                        <rect class="cls-23" x="404.79" y="283.15" width="32.82" height=".77"/>
                        <rect class="cls-23" x="404.79" y="286.53" width="32.82" height=".77"/>
                        <rect class="cls-23" x="404.79" y="288.23" width="32.82" height=".77"/>
                        <rect class="cls-23" x="404.79" y="284.84" width="32.82" height=".77"/>
                        <rect class="cls-23" x="404.79" y="289.92" width="32.82" height=".77"/>
                      </g>
                      <g>
                        <rect class="cls-23" x="404.79" y="293.62" width="32.82" height=".77"/>
                        <rect class="cls-23" x="404.79" y="295.31" width="32.82" height=".77"/>
                        <rect class="cls-23" x="404.79" y="291.92" width="32.82" height=".77"/>
                        <rect class="cls-23" x="404.79" y="297" width="32.82" height=".77"/>
                        <rect class="cls-23" x="404.79" y="300.39" width="32.82" height=".77"/>
                        <rect class="cls-23" x="404.79" y="302.09" width="32.82" height=".77"/>
                        <rect class="cls-23" x="404.79" y="298.7" width="32.82" height=".77"/>
                        <rect class="cls-23" x="404.79" y="303.78" width="32.82" height=".77"/>
                      </g>
                    </g>
                  </g>
                </g>
              </g>
              <path class="cls-4" d="M323.05,201.1c.34-5.1,1.65-10.12,4.26-14.54,2.27-3.83,5.39-7.03,8.73-9.93,1.98-1.72,3.99-3.41,6.07-5,1.63-1.25,3.49-2.91,4.44-4.82,1.15-2.33,1.65-4.94,2.05-7.48.37-2.36.6-8.9.58-11.29h10.13s-.66,13.1,1.8,17.08c1.47,2.38,4.1,3.37,6.79,3.57,2.78.21,5.76-.08,7.99-1.92,2.03-1.68,6.26-2.58,9.14-2.18,4.73.66,5.58,4.84,10.52,4.46,6.95-.54,5.02-18.29,5.02-18.29h8.47s-2.2,18.8,5.49,18.46c6.78-.3,5.44-23.52,5.44-23.52h10.59s-1.19,16.57,7.07,24.53c9.07,8.75,19.65,14.25,20.77,30.86,1.12,16.6-3.03,51.36-1.98,71.07s2.54,39.24-1.38,45.65c-6.81,11.16-30.63,17.46-57.12,19.21,0,0-4.84.44-7.19.36-2.35.08-7.21-.36-7.21-.36-26.49-1.75-50.3-8.05-57.11-19.21-3.92-6.42-2.43-25.94-1.38-45.65,1.05-19.71-3.1-54.47-1.98-71.07ZM329.13,307.61c3.05,13.39,20.68,18.64,50.32,21.86,29.65,3.21,65.43-6.27,71.87-13.09,6.44-6.83,2.37-27.58-.51-45.2-2.88-17.63,5.08-55.25,5.25-64.04.17-8.79-1.07-18.63-11.35-26.12-10.29-7.49-13.74-15.21-13.74-15.21-1.03-5.2-8.12-3.44-8.8-1.21-.68,2.23-2.2,9.81-7.64,9.95-4.39.11-3.54-2.67-10.73-2.59-4.17.05-5.25,4.49-16.81-1.45-8.6-4.41-13.63,4.57-20.72,4.04-7.08-.53-10.82-7.78-16.4-1.48-6.58,7.43-12.62,10.66-18.55,19.44-5.93,8.79-1.86,47.65-1.19,63.07.68,15.42-4.07,38.64-1.02,52.03Z"/>
              <path class="cls-4" d="M323.05,201.1c.34-5.1,1.65-10.12,4.26-14.54,2.27-3.83,5.39-7.03,8.73-9.93,1.98-1.72,3.99-3.41,6.07-5,1.63-1.25,3.49-2.91,4.44-4.82,1.15-2.33,1.65-4.94,2.05-7.48.37-2.36.6-8.9.58-11.29h10.13s-.66,13.1,1.8,17.08c1.47,2.38,4.1,3.37,6.79,3.57,2.78.21,5.76-.08,7.99-1.92,2.03-1.68,6.26-2.58,9.14-2.18,4.73.66,5.58,4.84,10.52,4.46,3.83-.3,4.96-5.84,5.21-10.74.54-.37,1.1-.71,1.7-.99,1.74-.84,3.82-1.2,5.64-.41.23.1.45.22.66.35.09,5.4,1.13,12.17,5.78,11.97,6.78-.3,5.44-23.52,5.44-23.52h10.59s-1.19,16.57,7.07,24.53c9.07,8.75,19.65,14.25,20.77,30.86,1.12,16.6-3.03,51.36-1.98,71.07s2.54,39.24-1.38,45.65c-6.81,11.16-30.63,17.46-57.12,19.21,0,0-4.84.44-7.19.36-2.35.08-7.21-.36-7.21-.36-26.49-1.75-50.3-8.05-57.11-19.21-3.92-6.42-2.43-25.94-1.38-45.65,1.05-19.71-3.1-54.47-1.98-71.07ZM329.13,307.61c3.05,13.39,20.68,18.64,50.32,21.86,29.65,3.21,65.43-6.27,71.87-13.09,6.44-6.83,2.37-27.58-.51-45.2-2.88-17.63,5.08-55.25,5.25-64.04.17-8.79-1.07-18.63-11.35-26.12-10.29-7.49-13.74-15.21-13.74-15.21-1.03-5.2-8.12-3.44-8.8-1.21-.68,2.23-2.2,9.81-7.64,9.95-4.39.11-3.54-2.67-10.73-2.59-4.17.05-5.25,4.49-16.81-1.45-8.6-4.41-13.63,4.57-20.72,4.04-7.08-.53-10.82-7.78-16.4-1.48-6.58,7.43-12.62,10.66-18.55,19.44-5.93,8.79-1.86,47.65-1.19,63.07.68,15.42-4.07,38.64-1.02,52.03Z"/>
              <g>
                <g class="cls-14">
                  <path class="cls-20" d="M421.08,125.46h9.1s2.63-.27,2.63,4.39v25.78h-14.36v-25.78c0-4.66,2.63-4.39,2.63-4.39Z"/>
                  <path class="cls-13" d="M418.22,155.86h14.82v-26.01c0-1.9-.43-3.25-1.27-4.01-.76-.69-1.59-.62-1.62-.61h-9.06c-.12,0-.89-.04-1.61.61-.84.76-1.27,2.11-1.27,4.01v26.01ZM432.58,155.4h-13.9v-25.55c0-1.73.38-3,1.11-3.66.61-.56,1.25-.51,1.28-.51h.02s9.1,0,9.1,0c.05,0,.69-.05,1.3.5.72.66,1.11,1.93,1.11,3.66v25.55Z"/>
                </g>
                <g>
                  <path class="cls-8" d="M420.8,129.91h9.66c.63,0,1.15-.51,1.15-1.15s-.51-1.15-1.15-1.15h-9.66c-.63,0-1.15.51-1.15,1.15s.51,1.15,1.15,1.15Z"/>
                  <path class="cls-8" d="M420.8,133h9.66c.63,0,1.15-.51,1.15-1.15s-.51-1.15-1.15-1.15h-9.66c-.63,0-1.15.51-1.15,1.15s.51,1.15,1.15,1.15Z"/>
                  <path class="cls-8" d="M420.8,136.1h9.66c.63,0,1.15-.51,1.15-1.15s-.51-1.15-1.15-1.15h-9.66c-.63,0-1.15.51-1.15,1.15s.51,1.15,1.15,1.15Z"/>
                  <path class="cls-8" d="M420.8,139.19h9.66c.63,0,1.15-.51,1.15-1.15s-.51-1.15-1.15-1.15h-9.66c-.63,0-1.15.51-1.15,1.15s.51,1.15,1.15,1.15Z"/>
                  <path class="cls-8" d="M420.8,142.28h9.66c.63,0,1.15-.51,1.15-1.15s-.51-1.15-1.15-1.15h-9.66c-.63,0-1.15.51-1.15,1.15s.51,1.15,1.15,1.15Z"/>
                  <path class="cls-8" d="M420.8,145.38h9.66c.63,0,1.15-.51,1.15-1.15s-.51-1.15-1.15-1.15h-9.66c-.63,0-1.15.51-1.15,1.15s.51,1.15,1.15,1.15Z"/>
                  <path class="cls-8" d="M420.8,148.47h9.66c.63,0,1.15-.51,1.15-1.15s-.51-1.15-1.15-1.15h-9.66c-.63,0-1.15.51-1.15,1.15s.51,1.15,1.15,1.15Z"/>
                  <path class="cls-8" d="M420.8,151.56h9.66c.63,0,1.15-.51,1.15-1.15s-.51-1.15-1.15-1.15h-9.66c-.63,0-1.15.51-1.15,1.15s.51,1.15,1.15,1.15Z"/>
                </g>
              </g>
              <g>
                <g class="cls-14">
                  <path class="cls-20" d="M349.78,125.46h9.1s2.63-.27,2.63,4.39v25.78h-14.36v-25.78c0-4.66,2.63-4.39,2.63-4.39Z"/>
                  <path class="cls-13" d="M346.91,155.86h14.82v-26.01c0-1.9-.43-3.25-1.27-4.01-.76-.69-1.59-.62-1.62-.61h-9.06c-.12,0-.89-.04-1.61.61-.84.76-1.27,2.11-1.27,4.01v26.01ZM361.28,155.4h-13.9v-25.55c0-1.73.38-3,1.11-3.66.61-.56,1.25-.51,1.28-.51h.02s9.1,0,9.1,0c.05,0,.69-.05,1.3.5.72.66,1.11,1.93,1.11,3.66v25.55Z"/>
                </g>
                <g>
                  <path class="cls-8" d="M349.5,129.91h9.66c.63,0,1.15-.51,1.15-1.15s-.51-1.15-1.15-1.15h-9.66c-.63,0-1.15.51-1.15,1.15s.51,1.15,1.15,1.15Z"/>
                  <path class="cls-8" d="M349.5,133h9.66c.63,0,1.15-.51,1.15-1.15s-.51-1.15-1.15-1.15h-9.66c-.63,0-1.15.51-1.15,1.15s.51,1.15,1.15,1.15Z"/>
                  <path class="cls-8" d="M349.5,136.1h9.66c.63,0,1.15-.51,1.15-1.15s-.51-1.15-1.15-1.15h-9.66c-.63,0-1.15.51-1.15,1.15s.51,1.15,1.15,1.15Z"/>
                  <path class="cls-8" d="M349.5,139.19h9.66c.63,0,1.15-.51,1.15-1.15s-.51-1.15-1.15-1.15h-9.66c-.63,0-1.15.51-1.15,1.15s.51,1.15,1.15,1.15Z"/>
                  <path class="cls-8" d="M349.5,142.28h9.66c.63,0,1.15-.51,1.15-1.15s-.51-1.15-1.15-1.15h-9.66c-.63,0-1.15.51-1.15,1.15s.51,1.15,1.15,1.15Z"/>
                  <path class="cls-8" d="M349.5,145.38h9.66c.63,0,1.15-.51,1.15-1.15s-.51-1.15-1.15-1.15h-9.66c-.63,0-1.15.51-1.15,1.15s.51,1.15,1.15,1.15Z"/>
                  <path class="cls-8" d="M349.5,148.47h9.66c.63,0,1.15-.51,1.15-1.15s-.51-1.15-1.15-1.15h-9.66c-.63,0-1.15.51-1.15,1.15s.51,1.15,1.15,1.15Z"/>
                  <path class="cls-8" d="M349.5,151.56h9.66c.63,0,1.15-.51,1.15-1.15s-.51-1.15-1.15-1.15h-9.66c-.63,0-1.15.51-1.15,1.15s.51,1.15,1.15,1.15Z"/>
                </g>
              </g>
              <g>
                <path class="cls-11" d="M401.79,177.36c.49-1.33,2.29-1.54,3.5-1.49,1.5.07,2.96.45,4.42.78,1.31.3,2.63.6,3.95.86,2.66.52,5.93.99,8.28-.71,1.33-.96,2.12-2.55,2.7-4.05.57-1.48,1.01-3.02,1.45-4.54.28-.96.58-2.19,1.41-2.84,1-.78,2.17.16,2.63,1.08.58,1.15.73,2.44,1.14,3.65.57,1.66,1.33,3.31,2.37,4.73,2.11,2.9,5.33,4.86,8.23,6.88,2.87,1.99,5.68,4.14,7.53,7.16,1.76,2.87,2.68,6.18,3.1,9.5.12.92.18,1.84.21,2.77.07.47.12.94.16,1.41.17,1.94.21,3.9.03,5.83-.08.84-.23,1.67-.37,2.5-.1.58-.21,1.37-.71,1.75-1.08.82-1.97-.5-2.25-1.41-.46-1.51-.8-3.05-1.24-4.57-.52-1.81-1.1-3.62-1.89-5.33-.81-1.76-1.89-3.36-3.1-4.86-2.4-2.97-5.3-5.41-8.7-7.17-6.64-3.43-14.28-4.52-21.6-5.51-3.34-.45-6.99-1.08-9.66-3.31-.85-.71-2.05-1.91-1.59-3.14ZM448.39,189.04c-.89-1.42-2-2.63-3.25-3.73-.65-.56-1.32-1.09-2.01-1.61,1.25,1.01,2.45,2.08,3.5,3.29,1.2,1.38,2.17,2.93,3,4.56.13.25.25.51.37.76-.43-1.14-.96-2.24-1.61-3.28Z"/>
                <path class="cls-11" d="M373,176.54c.06-.21.15-.41.27-.6,1.22-1.85,4.06-2.59,6.08-3.04,3.91-.87,9.37-.38,12.62,2.17,1.39,1.09,2.68,3.56.37,4.44-.7.27-1.48.24-2.22.16-2.54-.26-4.79-1.48-7.23-1.84-2.58-.38-5.13.7-7.71.63-.81-.02-1.76-.21-2.11-.94-.15-.31-.16-.66-.07-1Z"/>
                <path class="cls-11" d="M351.13,176.46c.19-.49.51-.95.84-1.28,1.27-1.27,3.23-1.42,4.91-1.14,2.05.34,4.12,1.19,5.92,2.21,3.4,1.92-.87,2.04-2.42,1.9-2.34-.21-4.22.43-6.47.78-.76.12-1.63.18-2.3-.29-.78-.55-.79-1.41-.48-2.19Z"/>
              </g>
              <path class="cls-11" d="M435.1,321.02c.42-.64,2.23-1.79,2.37-1.88,4.61-3.07,8.16-6.16,10.22-11.46,1.8-4.64,2.24-9.73,2.03-14.66-.1-2.24-.31-4.47-.58-6.69-.23-1.89-.92-4.13-.45-6.01.38-1.52,1.26-1.62,1.93-.1.43.97.39,2.14.44,3.18.1,2.05.25,4.11.44,6.15.34,3.62.77,7.24,1.12,10.86.45,4.75.64,9.24-2.09,13.37-2.55,3.87-6.97,6.13-11.38,7.2-.44.11-4.54.81-4.04.05Z"/>
              <path class="cls-11" d="M356.51,323.74s-.08-.04-.12-.07c-.42-.26-1.01-.66-1.11-1.13-.29-1.36,3.46-.2,3.97-.04.82.24,1.62.53,2.43.8,1.46.48,3.03.73,4.54.98,3.85.65,7.74.93,11.63,1.22,7.95.6,16,1.01,23.95.29,1.95-.18,3.95-.36,5.87-.77,1.55-.33,3.04-.86,4.58-1.21,1.14-.26,2.45-.58,3.62-.33,2.64.57-3.39,2.57-4.13,2.74-8.09,1.87-16.38,2.5-24.66,2.1-9.47-.44-18.86-2.03-28.13-3.95-.69-.14-1.6-.32-2.45-.62Z"/>
              <path class="cls-11" d="M329.58,215.88c.76-10.37.05-23.73,9.66-30.49.64-.45,1.35-.84,2.12-.95.77-.11,1.63.1,2.14.7,1.14,1.35-.61,3.3-1.43,4.33-1.8,2.27-5.43,5.24-5.67,8.28-.15,1.86,1.67,2.52,3.15,2.85,3.27.75,6.66.7,9.99.67,1.46-.01,3.19-.09,4.58.38,1.46.5,1.48,1.33.45,2.15-1.25,1.01-3.91.75-5.38.63-3.15-.25-6.39-.17-9.54.13-3.75.36-6,2.76-6.93,6.32-.94,3.59-.56,7.4-1.81,10.93-.11.31-.52.2-.7.01-.6-.65-.69-1.64-.74-2.48-.06-1.16.02-2.32.1-3.48Z"/>
              <path class="cls-12" d="M449.28,173.7c1.79,1.4,3.83,2.43,5.62,3.83,1.78,1.39,3.2,3.14,4.47,5,1.29,1.89,2.39,3.86,3.13,6.03.71,2.08,1.12,4.26,1.27,6.45.09,1.27.12,2.54.11,3.82,0,1.22-.03,2.46-.28,3.66-.04.17-.31.03-.32-.1-.03-2.21-.29-4.39-.46-6.59-.17-2.17-.49-4.34-1.11-6.43-.63-2.11-1.59-4.02-2.78-5.86-1.2-1.87-2.51-3.68-4.21-5.13-1.83-1.56-3.89-2.8-5.63-4.48-.15-.15.04-.31.2-.19Z"/>
              <path class="cls-12" d="M444.72,337.1c4.05-2.02,7.96-4.64,10.9-8.12,2.68-3.17,4.52-6.88,5.69-10.84.65-2.22.96-4.46,1.37-6.72.03-.15.25-.01.26.08.22,2.1-.06,4.3-.49,6.35-.43,2.05-1.15,4.04-2.05,5.92-1.83,3.81-4.54,7.22-7.97,9.72-2.25,1.64-4.85,2.95-7.43,3.97-.17.07-.49-.26-.28-.36Z"/>
              <path class="cls-12" d="M315.84,312.41c.02-.17.33-.03.33.11,0,1.06.21,2.15.45,3.18.23,1.01.52,2,.86,2.98.69,1.97,1.6,3.88,2.64,5.69,2.02,3.52,4.69,6.64,8.04,8.95,2.11,1.47,4.49,2.51,6.61,3.96.16.11.09.36-.12.26-2.15-1.05-4.4-1.94-6.43-3.23-1.8-1.14-3.43-2.55-4.87-4.12-2.86-3.09-5.08-6.86-6.52-10.81-.42-1.15-.78-2.33-.97-3.54-.19-1.16-.16-2.27-.02-3.44Z"/>
              <path class="cls-12" d="M316.71,188.11c.84-2.28,2.18-4.42,3.78-6.24.46-.52.95-1.01,1.46-1.49.53-.49,1.12-.9,1.67-1.37.12-.1.4.13.28.24-.55.55-1.03,1.18-1.53,1.78-.47.57-.93,1.14-1.38,1.72-.94,1.21-1.8,2.5-2.5,3.87-1.41,2.75-2.22,5.86-2.21,8.95,0,.21-.3.08-.32-.07-.36-2.51-.13-5.02.75-7.4Z"/>
            </g>
            <path class="cls-20" d="M381.97,132.45h1.35c.55,0,1.35.23,1.35,1.34v18.28h12.23s-5.15,4.71-14.94,4.58c-9.79-.13-18.6-4.58-18.6-4.58h16.04v-17.13s-.75-2.79,2.55-2.49Z"/>
          </g>
          <path d="M369.54,242.96l2.38,8.59h7.85l-10.23-33.47h-9.93l-10.38,33.47h8.14l2.58-8.59h9.59ZM361.05,237.3l2.09-7.1c.6-1.99,1.19-4.47,1.69-6.46h.1c.5,1.99.99,4.52,1.54,6.46l1.99,7.1h-7.4Z"/>
        </g>
        <path class="cls-27" d="M583.21,140.07c.56,0,1.05-.01,1.44-.03.17,0,.31-.15.3-.32,0-.17-.15-.3-.31-.3,0,0,0,0-.01,0-1.45.06-4.24.07-6.66-.43-.18-.03-.34.08-.37.25-.03.17.08.34.25.37,1.82.37,3.84.46,5.37.46Z"/>
        <path class="cls-27" d="M583.68,146.3c.46,0,.89,0,1.27-.02.17,0,.31-.15.3-.33,0-.17-.15-.3-.31-.3,0,0,0,0-.01,0-1.77.06-4.66-.02-7.08-.35-.18-.02-.33.1-.35.27-.02.17.1.33.27.35,1.94.27,4.18.37,5.92.37Z"/>
        <g>
          <g>
            <path class="cls-10" d="M611.71,352.42c29.38-12.42,63.12-41.37,64.55-42.6,1.31-1.13,1.46-3.11.33-4.43-1.13-1.31-3.12-1.46-4.43-.33-.34.29-34.43,29.53-62.89,41.56-19.11,8.08-38.38,4.47-47.96-8.96-5.33-7.47-19-36,28.86-89.31,22.9-25.51,14.31-45.5,5.22-66.67-4.81-11.19-9.7-22.6-10.68-35.71,8.5-.29,16.62-3.3,23.66-8.9,17.95-14.27,16.35-26.79,14.82-31.51-2.23-6.93-8.43-11.64-15.79-11.99-9.27-.43-17.62,5.91-22.41,17-4.54,10.52-6.47,20.03-6.71,28.78-1.86-.28-3.73-.71-5.62-1.28-21.26-6.48-40.24-30.19-50.78-63.42-13.85-43.69-40.95-55.82-61.66-52.61-22.01,3.41-37.99,23.01-37.99,46.6v88c0,1.73,1.41,3.14,3.14,3.14s3.14-1.41,3.14-3.14v-88c0-20.48,13.74-37.47,32.67-40.4,27.7-4.29,46.42,22.14,54.71,48.3,11.17,35.2,31.7,60.44,54.93,67.53,2.53.77,5.06,1.31,7.57,1.61.94,14.54,6.27,26.95,11.21,38.47,8.99,20.94,16.1,37.48-4.12,60-34.4,38.32-45.36,74.64-29.3,97.16,7.4,10.37,19.47,15.87,33.05,15.87,7.22,0,14.88-1.56,22.47-4.77ZM607.09,99.85c4.72.23,8.69,3.23,10.12,7.65,2.33,7.24-2.43,16.46-12.76,24.66-6.03,4.79-12.77,7.33-19.92,7.57.2-8.1,1.99-16.89,6.21-26.66,3.6-8.33,9.45-13.23,15.76-13.23.19,0,.39,0,.58.01Z"/>
            <path class="cls-27" d="M589.23,357.51h0c7.47,0,15.07-1.61,22.6-4.8,29.41-12.44,63.21-41.42,64.63-42.65,1.44-1.24,1.6-3.43.36-4.87-.6-.7-1.44-1.12-2.36-1.19-.93-.07-1.82.23-2.51.83-1.41,1.21-34.8,29.67-62.81,41.51-18.97,8.02-38.09,4.46-47.59-8.86-5.3-7.42-18.87-35.78,28.84-88.92,23.04-25.66,14.41-45.74,5.27-67.01-4.72-10.99-9.6-22.35-10.63-35.28,8.47-.36,16.6-3.45,23.52-8.96,18.1-14.39,16.47-27.07,14.93-31.85-2.28-7.06-8.59-11.85-16.08-12.21-9.4-.43-17.88,5.99-22.71,17.18-4.22,9.77-6.42,19.11-6.72,28.54-1.72-.28-3.48-.68-5.22-1.22-21.16-6.45-40.06-30.08-50.57-63.21-13.91-43.87-41.16-56.06-62-52.83-22.17,3.43-38.26,23.16-38.26,46.91v88c0,1.91,1.55,3.45,3.45,3.45s3.45-1.55,3.45-3.45v-88c0-20.32,13.63-37.18,32.4-40.09,27.5-4.27,46.11,22.05,54.37,48.09,11.2,35.3,31.81,60.62,55.14,67.73,2.44.74,4.91,1.28,7.36,1.59.99,14.47,6.19,26.58,11.22,38.3,8.95,20.84,16.02,37.3-4.06,59.68-34.51,38.44-45.47,74.91-29.32,97.55,7.26,10.17,19.39,16,33.3,16ZM611.59,352.13c-7.45,3.15-14.97,4.74-22.35,4.74h0c-13.7,0-25.65-5.74-32.78-15.74-15.97-22.38-5.02-58.56,29.27-96.76,20.35-22.67,13.21-39.29,4.18-60.34-5.05-11.75-10.26-23.88-11.19-38.36,0-.15-.12-.27-.27-.29-2.5-.3-5.02-.84-7.51-1.6-23.13-7.05-43.59-32.22-54.73-67.32-8.34-26.29-27.17-52.83-55.06-48.52-19.08,2.95-32.94,20.07-32.94,40.71v88c0,1.56-1.27,2.83-2.83,2.83s-2.83-1.27-2.83-2.83v-88c0-23.44,15.87-42.91,37.72-46.29,20.61-3.2,47.52,8.9,61.31,52.4,10.57,33.33,29.63,57.11,50.99,63.62,1.9.58,3.8,1.01,5.66,1.29.09.01.18-.01.25-.07.07-.06.11-.14.11-.23.26-9.47,2.44-18.85,6.68-28.67,4.57-10.6,12.47-16.83,21.25-16.83.28,0,.57,0,.85.02,7.23.35,13.32,4.97,15.51,11.77,1.5,4.66,3.08,17.02-14.72,31.17-6.91,5.49-15.03,8.55-23.48,8.83-.09,0-.17.04-.22.1-.06.07-.09.15-.08.23.98,13.17,5.93,24.68,10.71,35.81,9.05,21.07,17.6,40.98-5.16,66.34-48.02,53.49-34.24,82.19-28.88,89.71,9.67,13.56,29.1,17.21,48.34,9.07,28.09-11.88,61.56-40.4,62.97-41.61.58-.5,1.31-.74,2.06-.68.75.06,1.44.4,1.93.97,1.02,1.18.88,2.97-.29,3.99-1.42,1.22-35.14,30.14-64.46,42.54ZM584.54,140.04h.01c7.26-.24,14.03-2.81,20.1-7.64,10.43-8.29,15.23-17.64,12.86-25.01-1.47-4.54-5.55-7.63-10.4-7.86h0c-6.64-.34-12.9,4.74-16.64,13.4-3.98,9.22-6.02,17.98-6.24,26.78,0,.09.03.17.09.23.06.06.14.09.22.09ZM607.08,100.16c4.59.22,8.45,3.14,9.84,7.43,2.29,7.11-2.44,16.2-12.65,24.32-5.87,4.67-12.4,7.19-19.4,7.49.26-8.6,2.28-17.18,6.18-26.21,3.52-8.16,9.31-13.04,15.47-13.04.19,0,.38,0,.57.01Z"/>
          </g>
          <path class="cls-6" d="M579.33,151.7c.09-.29.26-.57.39-.83.04-.07.08-.14.13-.2.17-.22.35-.45.56-.63.22-.19.46-.36.71-.48.02,0,.03-.01.05-.02.17-.07.47-.17.64-.23.04-.01.07-.02.11-.03.29-.04.59-.09.89-.05.25.04.6.08.87.2.23.1.56.24.78.41.38.29.55.46.76.77-.21-1.47-.39-2.96-.51-4.47-1.12.07-2.24.08-3.35,0-.96-.07-1.99-.11-2.96-.34.15,2.26.44,4.46.78,6.63.04-.24.07-.49.15-.72Z"/>
          <path class="cls-6" d="M584.84,139.71c-.1,0-.2.02-.3.02.06-2.23.24-4.51.56-6.85-.03.06-.05.13-.08.19-.07.17-.21.29-.32.43-.02.07-.03.13-.05.2-.36,1.06-1.14,1.97-2.29,2.2-.99.2-2.09-.17-2.74-.96-.38-.46-.67-1.04-.74-1.64-.04-.32-.04-.65-.05-.98-.31,2.39-.49,4.72-.56,7,1.55.26,3.11.48,4.69.52.09,0,.19,0,.28-.02.22-.05.44-.08.66-.08.31,0,.62-.01.93-.02v-.02Z"/>
          <path class="cls-27" d="M583.22,140.07c.56,0,1.05-.01,1.44-.03.17,0,.31-.15.3-.32,0-.17-.15-.3-.31-.3,0,0,0,0-.01,0-1.45.05-4.24.07-6.66-.43-.19-.03-.34.08-.37.25-.03.17.08.34.25.37,1.82.37,3.84.46,5.37.46Z"/>
          <path class="cls-27" d="M583.68,146.3c.46,0,.89,0,1.27-.02.17,0,.31-.15.3-.33,0-.17-.15-.3-.31-.3,0,0,0,0-.01,0-1.77.06-4.66-.02-7.08-.35-.18-.02-.33.1-.35.27-.02.17.1.33.27.35,1.94.27,4.18.37,5.92.37Z"/>
          <path class="cls-11" d="M512.75,63.25c-.3,0-.58-.17-.72-.46-5.5-12.13-21.32-39.88-49.17-35.56-.45.08-.83-.23-.9-.65-.07-.43.23-.83.65-.9,20.39-3.16,38.91,10.14,50.85,36.46.18.4,0,.86-.39,1.04-.11.05-.22.07-.33.07Z"/>
          <path class="cls-11" d="M572.39,143.07c-.08,0-.15-.01-.23-.03-13.37-4.08-26.03-14.12-36.61-29.05-.25-.35-.17-.84.19-1.09.35-.25.84-.17,1.09.19,10.37,14.65,22.75,24.49,35.78,28.46.41.13.65.56.52.98-.1.34-.41.56-.75.56Z"/>
        </g>
        <g>
          <g>
            <path class="cls-12" d="M626.64,300.66s36.92,14.58,55.94,47.04l19.22-15.37s-28.99-43.8-60.9-43.07l-14.25,11.4Z"/>
            <path class="cls-7" d="M702.63,332.46l-.31-.47c-.29-.44-29.54-44.06-61.43-43.35h-.21s-15.26,12.21-15.26,12.21l1,.39c.37.14,36.94,14.89,55.63,46.77l.36.62,20.22-16.17ZM641.12,289.87c29.36-.48,56.6,37.63,59.84,42.33l-18.21,14.56c-17.27-28.91-48.95-43.69-54.9-46.27l13.27-10.62Z"/>
          </g>
          <path class="cls-2" d="M656,316.59c6.09-4.78,12.73-8.82,18.99-13.38-.84-.67-1.69-1.32-2.55-1.96-.08.05-.15.1-.23.15-4.64,3.18-9.14,6.56-13.71,9.85-1.05.75-2.08,1.52-3.13,2.29-.77.57-1.57,1.14-2.47,1.5-.25.1-.5.17-.74.22.94.68,1.9,1.4,2.85,2.13.33-.27.65-.55.98-.81Z"/>
          <path class="cls-2" d="M667.16,327.79c-.37-1.22-.48-2.48.13-3.64.65-1.24,1.7-2.26,2.73-3.2,2.27-2.06,4.83-3.77,7.23-5.68,1.45-1.16,3.22-1.94,5.09-1.96,1.72-.02,3.36.57,4.84,1.41.23.13.45.28.67.42-2.37-2.52-4.97-5.11-7.8-7.65-.24.19-.48.37-.72.56-3.75,3.04-7.32,6.27-11.39,8.89-2.47,1.6-5.02,3.16-7.36,4.97,2.26,1.94,4.51,4.03,6.72,6.24-.04-.12-.1-.24-.13-.37Z"/>
        </g>
      </g>
    </g>
  </g>
</svg>