<?xml version="1.0" encoding="UTF-8"?>
<svg id="Layer_3" data-name="Layer 3" xmlns="http://www.w3.org/2000/svg" viewBox="0 0 200 200">
  <defs>
    <style>
      .cls-1 {
        fill: #e8f0f1;
      }

      .cls-2 {
        fill: #f5ba8f;
      }

      .cls-3 {
        fill: #cfd7d9;
      }

      .cls-4 {
        fill: #ed2f56;
      }

      .cls-5 {
        fill: #f7c39d;
      }

      .cls-6 {
        fill: #f5b88c;
      }

      .cls-7 {
        fill: #f37c93;
      }

      .cls-8 {
        fill: #f05574;
      }

      .cls-9 {
        fill: #f8ccad;
      }

      .cls-10 {
        fill: #b7bdbe;
      }

      .cls-11 {
        fill: #f2a168;
      }
    </style>
  </defs>
  <path class="cls-6" d="M134.88,42.52l.42,1.22c-1.84,5.36-.42,10.88,1.98,15.81,4.48,7.42,7.76,15.29,9.83,23.61,9.65,3.5,21.31,2.72,31.31.92,5.72-1.03,10.54-3.16,13.47-8.49l1.2-.5c.41-.55.54-.42.41.41-.66,1.66-1.29,3.34-2.27,4.85-.9,1.38-5.46,5.53-5.46,5.94v94.64h-45.59v-19.54l1.02-.82c12.1,1.66,23.35-5.1,24.2-17.84l.83-.88c1.91-1.02,3.97-1.05,6.01-.41-.53-2.06-.13-4.1.5-6.1-.63-2-1.02-4.04-.49-6.09-4.88.58-10.23.87-14.98-.43-1.3,1.12-2.74,1.11-4.07,0,.32.04.79.13.81.36.27,2.45.34,9.71,0,12.07l-.81.59c2.14-1.11,4.38-1.13,6.51,0,1.51,1.02.23,4.18-.45,5.7-3.43,7.67-10.79,8.64-18.3,8.13l-.79-.81-.02-68.16c-4.76-12.92-23.31-33.72-5.27-44.19Z"/>
  <path class="cls-3" d="M32.71,34.38c.91-1.17,2.33-1.15,3.26,0,1.37,8.33,1.19,17.29,0,25.64-.57.42-1.18.77-1.88.91-3.54.69-8.67,1.27-12.34,1.61-.5.05-1,.08-1.49-.05.4,2.56.57,5.3-.57,7.71,1,2.2,1.02,4.32,0,6.51.8,2.16.8,4.35,0,6.51.8,2.16.8,4.35,0,6.51.8,2.16.79,4.35,0,6.51,1.12,2.14,1.11,4.37,0,6.51,1.18,2.04,1.15,4.47,0,6.51,1.27,1.53,1.15,4.92,0,6.51l.88.78c.38,4.14,2.96,6.95,6.9,8.1l42.38.09c6.36-1.33,7.59-5.59,7.61-11.5l.84-.73,1.37-.74c1.77-.15,10.17-.37,11,.17.24.16.45.36.66.57-.24,9.97-1.85,15.97-9.86,22.5l-3.16,13.32h-9.77v-9.77h-13.03v13.03c-1.08.02-2.17-.03-3.26,0-2.03,1.22-4.48,1.22-6.51,0-1.08-.03-2.18.02-3.26,0v-13.03h-13.03v9.77h-9.77c-1.54-3.78-1.6-9.81-3.16-13.32-.63-1.41-2.53-2.22-3.56-3.36-3.35-3.67-5.56-8.35-6.25-13.29,1.25-20.46-1.84-43.26-.04-63.44,1.3-14.65,12.9-20.22,26.04-20.56Z"/>
  <path class="cls-1" d="M39.22,34.38c6.44-1.25,13.09-1.25,19.54,0,1.84-1.22,4.72-1.27,6.51,0,14.64.41,23.9,6.04,26.07,21.35-.37,18.92.44,37.89-.02,56.8-4.25-.23-8.82.32-13.03,0l-.49-2.22c-.48-16.12-.49-32.23-.02-48.31-6.17,1.84-13.18,1.37-19.68.75-6.76-1.05-13.55-1.7-20.37-1.95l-1.78-.78c-.12-8.54.09-17.1,0-25.64,1.04-1.12,2.21-1.11,3.26,0Z"/>
  <path class="cls-9" d="M143.42,40.08l.49-.75c9.58,1.37,19.18,2.74,28.81,4.13,1.39,1.02.6,3.49.11,5.02s-1.67,4.45-3.35,4.23l.19,1c-.8,1.27-6.84,5.34-8.12,3.48,0,.31-.06.78-.28.81-4.01.72-10.9-.18-14.99-.81,12.21.85,16.12,13.76,13.43,24.02-.03,1.13.24.86.81-.81-.81-1.13.7-4.21,2.04-4.48,3.22-8.48,12.98-9.64,20.93-9.91,3.38-.11,7.72-.11,11.07.15l.97.8c-.14,2.65-.51,3.72-1.22,6.11-.31.85-.72,1.53-1.22,2.04-4.58,8.75-11.96,9.71-20.97,10.58-6.85.66-14.13,1.4-20.81-.35-1.65-.43-3.15-1.13-4.76-1.65-1.17-3.67-1.96-7.3-3.46-10.89-4.09-9.75-12.64-19.01-8.21-30.25,3.1-1.8,4.71-2.54,8.55-2.44Z"/>
  <path class="cls-4" d="M166.22,141.84c.1,8.83-6.4,17.04-14.98,19.01-3.68.84-7.32.47-11.07.53-7.22.11-15.59-.62-22.61-.01-13.12,1.13-15.76,21.34-32.15,22.8-5.97.53-21.96.65-27.17-1.31-13.75-5.17-12.97-18.92-12.51-31.25,2.15.05,4.36.05,6.51,0,.22,9.25-2.4,21.84,8.96,25.44,3.67,1.16,19.02,1.01,23.42.63,10.81-.93,15.27-15.59,24.33-20.44,7.31-3.92,22.55-2.23,31.21-2.37,5.56-.09,9.76.76,14.54-2.76,3.07-2.26,4.97-6.47,5-10.27,2.19-.99,4.32-.99,6.51,0Z"/>
  <path class="cls-6" d="M149.94,21.35l.87.42c.06,3.26-.02,6.52-.22,9.78-.08,3.67.72,7.81,4.98,8.41-.09-4.5.02-9,.31-13.52l.99-.62c.79-2.78,3.22-4.53,6.11-4.48l.87.42c.06,3.26-.02,6.52-.22,9.78-.08,3.67.72,7.81,4.98,8.41-.09-4.5.02-9,.31-13.52l.99-.62c.79-2.78,3.22-4.53,6.11-4.48l.81.37.03,23.33c.35,2.35,2.46,4.63,4.91,4.64l-.18-20c-.24-2.1.21-3.39,1.34-3.87.79-2.78,3.22-4.53,6.11-4.48l.82.37.09,23.65c.59,2.43,2.59,4.28,5.12,4.46l.49.82c0,.68,0,1.36,0,2.04-1.26,6.78-9.88,7.03-13.04,1.38-2.42,4.25-7.45,5.43-11.27,2.14-.94-.81-2.7-2.4-1.74-3.51,1.98-2.37,3.32-5.38,3.22-8.52l-29.27-4.1c.62-4.35-1.35-12.61,1.22-16.08,1.34-1.8,3.05-2.69,5.29-2.65Z"/>
  <path class="cls-6" d="M195.53,66.94c-12.16.25-25.04-2.62-32.97,8.96l-.61-.97c.97-3.62-.34-6.41-1.94-9.5-1.65-5.8,3.27-5.94,7.62-5.94l4.07-1.34c3.15,1.43,6.21,2.61,8.65-.67,1.65-3.2,2.88-2.72,4.38.2,3.12,3.42,8.04,2.17,9.84-1.9l.97-.22c-.04,3.74.2,7.69,0,11.4Z"/>
  <path class="cls-10" d="M65.27,34.38c-2.16-.06-4.35.02-6.51,0l-.89-.75c-1.39-10.84-16.37-10.84-17.76,0l-.89.75c-1.08.01-2.17-.02-3.26,0s-2.17-.03-3.26,0c.99-21.59,31.61-21.52,32.56,0Z"/>
  <path class="cls-11" d="M169.48,52.7c2.22,4.21,6.84,6.35,10.8,2.86.99-.28,1.66-3.07,2.43-2.86.33.09.43,1.13.83,1.61,4.08,4.77,9.08,3.58,11.99-1.61,0,.95,0,1.9,0,2.85-1.83,4.96-7.59,6.78-11.41,2.66-.6-.65-1.18-2.43-1.81-2.26-.33.09-1.5,3.82-4.99,4.38s-4.44-1.37-5.6-1.39c-.5,0-3,1.22-4.18,1.38-2.86.39-7.24-.84-7.06,3.58.07,1.82,2.14,4.21,2.45,6.54.24,1.79.07,3.73-.37,5.46s-1.6,3.02-2.04,4.48c-.21.65-.48.92-.81.81-.17-9.99.65-18.01-10.03-22.73l-3.4-1.28h15.26c2.29,0,6.48-2.74,7.94-4.48Z"/>
  <path class="cls-9" d="M175.99,21.35c2.32.04,4.14,1,5.48,2.86.6.84.3,2.61,1.44,1.61-.22.76-.36,1.41-.42,2.22-.58,7.26.46,15.27.01,22.61-3.19.09-6.05-2.42-6.47-5.53l-.04-23.78Z"/>
  <path class="cls-9" d="M195.53,50.66c-3.13.07-5.76-2.19-6.42-5.19l-.1-24.12c3.03.06,5.9,2.1,6.42,5.19,1.01,6.02.13,17.5.1,24.12Z"/>
  <path class="cls-9" d="M149.94,21.35c2.32.04,4.14,1,5.48,2.86.6.84.3,2.61,1.44,1.61-1.23,4.33.07,10.48-.41,15.06-9.89-.74-5.6-12.9-6.51-19.54Z"/>
  <path class="cls-9" d="M162.96,21.35c2.32.04,4.14,1,5.48,2.86.6.84.3,2.61,1.44,1.61-1.23,4.33.07,10.48-.41,15.06-9.89-.74-5.6-12.9-6.51-19.54Z"/>
  <path class="cls-5" d="M193.49,75.49l-.41-.41c.37-.7.59-1.49,1.22-2.04-.3,1.01-.41,1.43-.81,2.44Z"/>
  <path class="cls-3" d="M157.26,128.81l1,.41c2.12,5.7,8.66,5.59,13.79,5.32l.68.78c0,2.17,0,4.35,0,6.51-2.17,0-4.35-.02-6.51,0s-4.35.02-6.51,0-4.35.01-6.51,0v-13.03c1.35-.02,2.72.02,4.07,0Z"/>
  <path class="cls-1" d="M157.26,128.81c5.15-.09,10.32.07,15.47,0,0,2.17,0,4.35,0,6.51-6.16.31-13.28.56-15.47-6.51Z"/>
  <path class="cls-8" d="M35.96,60.02l.83,1.3c-2.37,25.04,14.99,47.34,40.18,50.27l1.32.94c-.2,6.77-.75,11.24-8.34,13.03l-42.64-.1c-4.85-1.47-7.33-4.62-7.63-9.67-.05-.38.07-.68.39-.88l7.25.2c6.31.32,6.14-5.56-.08-5.16l-6.97.22-.59-.9c-.03-2.16.02-4.35,0-6.51-.05-.38.07-.68.39-.88l7.25.2c6.31.32,6.14-5.56-.08-5.16l-6.97.22-.59-.9c-.01-2.17,0-4.35,0-6.51-.05-.38.07-.68.39-.88l7.25.2c6.31.32,6.14-5.56-.08-5.16l-6.97.22-.59-.9c0-2.17,0-4.35,0-6.51-.05-.38.07-.68.39-.88l7.25.2c6.31.32,6.14-5.56-.08-5.16l-6.97.22-.59-.9c.01-2.7-.03-5.42.02-8.12,5.38-.96,10.78-1.86,16.26-2.05Z"/>
  <path class="cls-4" d="M19.68,76.71c0-2.17-.01-4.35,0-6.51,3.32.68,12.84-2.06,13.05,3.06.24,5.65-9.63,2.76-13.05,3.45Z"/>
  <path class="cls-4" d="M19.68,89.74c0-2.17,0-4.35,0-6.51,3.32.68,12.84-2.06,13.05,3.06.24,5.65-9.63,2.76-13.05,3.45Z"/>
  <path class="cls-4" d="M19.68,102.76c-.02-2.17.01-4.35,0-6.51,3.32.68,12.84-2.06,13.05,3.06.24,5.65-9.63,2.76-13.05,3.45Z"/>
  <path class="cls-4" d="M19.68,115.79c-.13-2.14.03-4.36,0-6.51,3.32.68,12.84-2.06,13.05,3.06.24,5.65-9.63,2.76-13.05,3.45Z"/>
  <path class="cls-7" d="M35.96,60.02c10.41-.37,19.84,2.28,29.9,2.46,4.08.07,8.36-.52,12.43-.83-.36,16.93.49,33.96,0,50.88-18.65-1.4-35.53-14.88-40.59-32.88-1.95-6.92-1.65-12.58-1.74-19.63Z"/>
  <path class="cls-2" d="M160.52,80.37c-.33,1.09-.43,2.51-.41,3.66-.77-.23-.39-2.16-.4-2.85l.81-.81Z"/>
</svg>