<?xml version="1.0" encoding="UTF-8"?>
<svg id="Layer_3" data-name="Layer 3" xmlns="http://www.w3.org/2000/svg" viewBox="0 0 200 200">
  <defs>
    <style>
      .cls-1 {
        fill: #6ab790;
      }

      .cls-2 {
        fill: #9399ae;
      }

      .cls-3 {
        fill: #4da57f;
      }

      .cls-4 {
        fill: #8187a0;
      }

      .cls-5 {
        fill: #d2ab91;
      }

      .cls-6 {
        fill: #8bdc79;
      }

      .cls-7 {
        fill: #d3d7e0;
      }

      .cls-8 {
        fill: #e6f3cd;
      }

      .cls-9 {
        fill: #c6ccd7;
      }

      .cls-10 {
        fill: #575f7c;
      }

      .cls-11 {
        fill: #eceff3;
      }

      .cls-12 {
        fill: #ca9f7a;
      }

      .cls-13 {
        fill: #d5d9e1;
      }

      .cls-14 {
        fill: #9cd4de;
      }

      .cls-15 {
        fill: #7ecd67;
      }

      .cls-16 {
        fill: #9a756d;
      }

      .cls-17 {
        fill: #82d06c;
      }
    </style>
  </defs>
  <path class="cls-6" d="M129.52,115.7c2.68-.19,19.89,1.72,21.21,3.03l.81.17c.28.82,1.02.76,2.22-.17l.99-.77c6.15.27,11.98.2,17.35-2.91l.59.65c2.62-.37,6.65.68,9.08,1.72,10.3,4.41,13.8,17.19,14.41,27.45-.13.9-.38,1.65-.76,2.27.32,2.33-.54,5.1-1.32,7.5-5.26,16.25-19.72,38.81-39.64,31.64l-2.12-.15c-11.51,2.39-17.82,2.78-26.71-6.04-8.95-8.89-16.15-22.62-17.34-35.22l-.71-.98c.54-6.74,2.2-13.86,5.93-19.59,1.47-2.26,4.16-6.07,6.89-5.94.82-2.11,6.27-3.26,8.54-3.36l.55.71Z"/>
  <path class="cls-5" d="M44.66,9.63c1.06,1.68,1.07,4,0,5.68,1,1.55,1,2.69,0,3.41l-.35.76h-27.73c.13,39.52.07,79.05,0,118.57,0,2.84-.11,5.68-.23,8.52s-.28,5.68-.47,8.52c.77,2.2.88,4.51.72,6.82h93.64c.28,0,.52.24.72.76l.93.38,2.49,5.88-.39.94c.53,1-.02,1.11-.97,1.18-34.36.25-69.29.07-103.91-.43-1.84-.03-3.97-3.11-3.84-4.92-1.01-50.37.68-100.87.09-151.25.5-2.44,2.55-4.42,5.06-4.79l34.25-.03Z"/>
  <path class="cls-5" d="M129.52,115.7c-2.47.18-6.99,1.37-9.09,2.65-.3,0-.76-.08-.76-.27-.24-27.87-.26-56.68.03-84.55-.34-.74-.22-1.26.35-1.55l-1.6-.53-9.85-9.85c-.85-.67-1.2-1.46-1.43-2.51l-.68.37c-5.11-.14-10.24-.11-15.38.08l-.98-.83c-1-.72-1-1.85,0-3.41-1.07-1.68-1.06-4,0-5.68h33.91c3.04.29,5.42,2.78,5.51,5.86l-.02,100.21Z"/>
  <path class="cls-12" d="M113.99,169.87l.9.12,2.91,5.51-.4.81H10.37c-5.93-1.46-5.01-5.83-5.11-10.61.84,1.94,1.96,3.32,3.96,4.19,34.12.34,68.5.79,102.68.37.64,0,1.68.24,2.08-.39Z"/>
  <path class="cls-15" d="M195.43,147.14c.27-.77.52-.89.76-.38,0,.38,0,.76,0,1.14l-.38,3.41c-.6,13.42-14.14,38.98-27.95,42.7-6.53,1.76-9.98-.96-15.42-1.05-4.38-.07-8.21,2.09-13.64,1.54-7.88-.8-17.43-11.77-21.41-18.18-1.02-1.65-2.55-4.64-3.41-6.44-.99-2.07-2.31-5.05-3.03-7.2-1.71-1.12-2.84-5.77-1.89-7.58-1.47-1.33-2.1-8.11-1.29-9.53.14-.25.33-.48.53-.7,1.04,2.75,1.4,5.72,2.27,8.53,3.54,11.42,15.72,32.43,28.97,33.53,5.1.42,9.78-1.99,14.37-1.49,2.26.25,4.76,1.3,7.24,1.47,18.07,1.23,31.14-24.8,34.28-39.77Z"/>
  <path class="cls-2" d="M90.12,9.63c.06,1.87.05,3.81,0,5.68-.49,2.35-2.54,3.31-6.15,2.88-12.62-.06-25.21-.22-37.75-.47-.92-.38-1.43-1.19-1.55-2.41-.05-1.87-.06-3.81,0-5.68.1-3.03-.76-5.72,3.2-6.08,12.61-1.15,26.98.88,39.77.04,3.17.67,2.4,3.57,2.48,6.04Z"/>
  <path class="cls-1" d="M182.17,97.52c-1.6,13.69-14.98,18.81-27.42,17.41l-.99-.75c-1.01-1.23-1.01-2.56,0-3.79,3.44-7.06,10-12.22,18-12.87,1.38-.11,9.67-.26,10.41,0Z"/>
  <path class="cls-3" d="M172.7,115.7c-1.4.2-2.91,1.42-4.34,1.91-4.8,1.63-9.62,1.04-14.6,1.12-1.02-.52-1.16-4.15,0-4.55,4.61-.1,9.24.44,13.72-.87,7.44-2.17,12.8-8.41,14.69-15.8.98.34-.04,4.37-.26,5.24-1.33,5.44-4.8,9.71-9.21,12.95Z"/>
  <path class="cls-16" d="M153.76,110.4c.03,1.25.02,2.53,0,3.79-.02,1.38.2,3.29,0,4.55-.22,1.35-1.33,2.05-2.5,1.16-.5-.37-.46-1.1-.53-1.16-.45-7.47,2.45-18.64-6.61-21.99-1.84-.68-6.14-.29-5.46-2.74.85-3.07,7.93.49,9.54,1.69,5.56,4.14,5.4,8.38,5.56,14.71Z"/>
  <path class="cls-17" d="M195.81,151.31c.05-1.08-.34-2.64.38-3.41,0,1.07.31,2.66-.38,3.41Z"/>
  <path class="cls-17" d="M196.19,146.76l-.76.38c.17-.79.04-1.67.76-2.27.04.63-.02,1.27,0,1.89Z"/>
  <path class="cls-7" d="M44.66,18.72l.81.32c.13.98.53,1.64,1.56,1.84,1.21.23,2.58.32,3.87.35,9.06.17,18.09-.13,27.15-.44,3.74.31,7.26.23,10.55-.25.39-.97.89-1.58,1.52-1.81,5.04.48,11.24-.64,16.14-.02.37.05.69.05.91.4l.71,1.65-.31,10.82,11.01-.31,1.47.72.4,1.29-.03,85.09c-8.23,5.01-11.73,17.43-12.12,26.52-.15,3.55.13,6.75.76,10.23l-.26.76H16.34l-.47-.76c-.23-45.45.18-90.93,0-136.38h28.79Z"/>
  <path class="cls-8" d="M172.97,123.36c3.24-.98,8.09,2.06,10.16,4.46,3.45,4.03,6.2,14.34,5.51,19.53-.27,1.99-2.05,2.36-2.97.66-.02-6.67-1.6-18.87-9.09-21.22-1.14-.36-3.5-.37-4.09-.83-.93-.71-.64-2.27.49-2.61Z"/>
  <path class="cls-9" d="M109.06,155.1c.43,2.35,1.13,5.32,1.89,7.58H15.87c0-2.52.01-5.06,0-7.58h93.19Z"/>
  <path class="cls-4" d="M90.12,15.31c-.03,1.11.11,2.35,0,3.41-.19,1.85-.89,2.81-2.83,3.04-12.69-.89-26.91,1.15-39.42,0-2.14-.19-2.97-.88-3.2-3.05-.11-1.06.03-2.31,0-3.41.78.97,1.44,1.91,2.83,1.9,12.68-.89,26.93,1.16,39.42,0,1.71-.16,2.21-.53,3.2-1.91Z"/>
  <polygon class="cls-11" points="120.05 31.98 106.79 32.36 107.17 19.1 120.05 31.98"/>
  <path class="cls-13" d="M54.41,9.71c4.44-.97,5.21,5.15,1.72,5.91-4.44.97-5.21-5.15-1.72-5.91Z"/>
  <path class="cls-13" d="M78.65,9.71c4.44-.97,5.21,5.15,1.72,5.91-4.44.97-5.21-5.15-1.72-5.91Z"/>
  <path class="cls-10" d="M48.64,38.42h54.17c1.16,0,1.15,3.03,0,3.03h-54.17c-.95,0-1.39-2.57,0-3.03Z"/>
  <path class="cls-10" d="M48.64,62.67h54.17c1.16,0,1.15,3.03,0,3.03h-54.17c-.95,0-1.39-2.57,0-3.03Z"/>
  <path class="cls-10" d="M48.64,86.91h54.17c1.16,0,1.15,3.03,0,3.03h-54.17c-.95,0-1.39-2.57,0-3.03Z"/>
  <path class="cls-10" d="M48.64,111.16h54.17c1.16,0,1.15,3.03,0,3.03h-54.17c-.95,0-1.39-2.57,0-3.03Z"/>
  <path class="cls-10" d="M48.64,135.4h54.17c1.16,0,1.15,3.03,0,3.03h-54.17c-.95,0-1.39-2.57,0-3.03Z"/>
  <rect class="cls-14" x="28" y="111.16" width="12.12" height="12.12"/>
  <rect class="cls-14" x="28" y="38.42" width="12.12" height="12.12"/>
  <rect class="cls-14" x="28" y="86.91" width="12.12" height="12.12"/>
  <rect class="cls-14" x="28" y="62.67" width="12.12" height="12.12"/>
  <rect class="cls-14" x="28" y="135.4" width="12.12" height="12.12"/>
  <path class="cls-10" d="M48.64,47.51h40.53c1.16,0,1.15,3.03,0,3.03h-40.53c-.93,0-1.42-2.53,0-3.03Z"/>
  <path class="cls-10" d="M48.64,144.49h40.53c1.16,0,1.15,3.03,0,3.03h-40.53c-.95,0-1.39-2.57,0-3.03Z"/>
  <path class="cls-10" d="M48.64,71.76h40.53c1.16,0,1.15,3.03,0,3.03h-40.53c-.95,0-1.39-2.57,0-3.03Z"/>
  <path class="cls-10" d="M48.64,120.25h40.53c1.16,0,1.15,3.03,0,3.03h-40.53c-.95,0-1.39-2.57,0-3.03Z"/>
  <path class="cls-10" d="M48.64,96h40.53c1.15,0,1.16,3.03,0,3.03h-40.53c-.95,0-1.39-2.57,0-3.03Z"/>
</svg>