<?xml version="1.0" encoding="UTF-8"?>
<svg id="Layer_3" data-name="Layer 3" xmlns="http://www.w3.org/2000/svg" viewBox="0 0 200 200">
  <defs>
    <style>
      .cls-1 {
        fill: #0055a2;
      }

      .cls-2 {
        fill: #fa2b3a;
      }

      .cls-3 {
        fill: #0067c4;
      }

      .cls-4 {
        fill: #e7b700;
      }

      .cls-5 {
        fill: #fc4755;
      }

      .cls-6 {
        fill: #e31f2d;
      }

      .cls-7 {
        fill: #fdd302;
      }

      .cls-8 {
        fill: #e4202e;
      }

      .cls-9 {
        fill: #f9c500;
      }

      .cls-10 {
        fill: #fdefad;
      }
    </style>
  </defs>
  <path class="cls-5" d="M114.08,23.81l.59,1.21c.13,1.79.4,10.05-.13,10.94-.12.21-.29.39-.46.57l-.3.76c-15.97.31-32.03.37-48.17.17-2.15.36-1.27,3.51.64,3.54l45.31-.06c.78,0,1.33.16.93,1,.53,1.27-1.14,2.79-2.13,3.6-1.36,1.11-2.13,1.46-3.91,1.49.25.92-1.06,1.41-1.59.64-1.11,1.18-5.23,1.18-6.36,0-.19.52-.79.51-1.79-.03-.93.41-1.6.42-2.03.03-1.11,1.18-5.26,1.18-6.36,0-.19.52-.79.51-1.79-.03-.93.41-1.6.42-2.03.03-1.11,1.18-5.26,1.18-6.36,0-.25.64-.89.66-1.9.08-.88.39-1.52.36-1.92-.08l-.36.16c-1.91.79-4.07.6-6-.16-.4.43-1.05.46-1.96.08-.88.55-1.5.52-1.86-.08-.48.74-.98.81-1.81.73l-5.71-.14-.75-.59c0-5.7-.7-14.21.03-19.54.3-2.21,1.9-3.48,3.79-4.32h54.4Z"/>
  <path class="cls-2" d="M123.63,23.81c1.55.94,3.16,2.01,3.48,4,1.1,7-.78,16.71.02,24-2.49.19-5.03.19-7.63,0l-.58-.6c.31-4.9-4.25-4.87-3.93,0l-.58.6h-5.09l-.62-.57c.25-2.23-.37-3.43-1.86-3.61l-.38-.6c2.7-.97,4.62-2.6,6.04-5.09-.4-.46-.23-.62.32-.32.7-.57,1.71-.78,3.02-.63,4.86-.5,3.11-4.7-1.3-3.49l-.45-.66c-.2-.11-.2-.21,0-.32.29-4.13-.21-8.56,0-12.72h9.54Z"/>
  <path class="cls-3" d="M109.95,56.89c1.01.57,1.96,1.34,2.85,2.33,10.1,5.8,16.54,16.33,17.21,28.08v53.19s-.65.39-.65.39c-3.07.62-6.16.62-9.23,0-1.05.62-2.13.62-3.18,0l-.65-.38c-.21-2.47-1.71-3.79-3.86-4.69-1.26-7.15-9.38-10.02-14.94-5.38l-.9-.04-.64-.22.02-27.57c-.77-6.81-6.65-7.07-12.18-6.88l-.56-.64c-1.56.28-3.14.57-4.74.58-11.84.1-23.71.2-35.53-.13l-2.36-.45c.37-9.62,3.69-18.05,10.97-24.5,4.81-4.26,10.72-5.35,9.39-13.67,2.17-.28,4.34-.55,6.53-.56,11.97-.07,23.96-.09,35.93-.05,1.09,0,2.18.09,3.27.2s2.18.25,3.26.41Z"/>
  <path class="cls-5" d="M83.23,95.06l.64.22c.1,15.06.21,30.13.31,45.19l-.63.4c-1.73,2.94-2.26,6.36-1.6,10.23l-.63.58c-1.32,4.48-6.44,7.36-10.82,8.41l-29.52.18-.39-.64c-.11-21.18-.81-43.51,0-64.58,14.2.17,28.43-.23,42.63,0Z"/>
  <path class="cls-1" d="M142.4,151.05l-.08,26.16c-.91,5.04-5.37,9.23-10.56,9.48l-81.13-.02c-3.95-.57-7.04-2.77-8.75-6.36l.21-.64,39.03-.31c-.52-2.25-.55-4.72-.43-7.1l.63-.54.79.21c.65,1.61,2.71,3.85,4.52,3.9,9.69.25,19.47.18,29.16.04,2.58-.1,4.36-1.7,5.43-3.95l.81-.2c2.48-.87,7.55-12.04,6.1-13.36h-5.65s-.45-.63-.45-.63c-.88-2.2-.86-4.47,0-6.68,6.73-.98,13.63-.93,20.36,0Z"/>
  <path class="cls-1" d="M122.04,56.89c.02,1.19-.07,2.38.09,3.57.77,5.56,5.11,6.43,8.82,9.63,6.6,5.69,10.56,13.58,11.46,22.26v48.53c-4.31.91-8.77.93-13.06,0v-53.62c-.61-9.47-4.91-18.35-12.25-24.32-2.42-1.96-5.68-3.11-7.15-6.05,3.84-1,8.24-.94,12.09,0Z"/>
  <path class="cls-3" d="M81.32,166.32c.87,1.13.86,2.35,0,3.5.8.67.79,1.23,0,1.91.05,2.76-.46,5.76.95,8.27l-40.4.32c-2-4.2-1.23-9.38-1.27-14l.22-.64h40.11l.39.64Z"/>
  <path class="cls-4" d="M129.35,140.87c4.34,0,8.7-.02,13.04,0,4.61.02,12.09-.63,16.31.08,5.25.88,5.39,8.88.25,9.96-3.88.82-12.16.12-16.56.14-6.78.04-13.58-.03-20.36,0l-.64-.31c.33-2.91.15-5.71-.51-8.4-.73-.41-.98-.9-.76-1.47,3.07,0,6.16,0,9.23,0Z"/>
  <path class="cls-5" d="M55.87,52.12c2.62-.91,5.62-1.1,8.22-.19l4.12.02c1.77-.86,3.68-.49,5.48.17,3.1-.19,6.18-.42,9.25-.69,1.52.46,3.07.67,4.66.48,2.32-.79,4.67-.83,6.99-.03,10.85-.15,21.7-.07,32.54.24,2.23.06,4.51-.52,4.16,2.72-.32,2.95-6.99,2.02-9.25,2.06-4.02.06-8.07-.01-12.09,0-16.31.06-32.69.25-48.99,0-2.26-.03-8.92.89-9.25-2.06-.35-3.23,1.93-2.66,4.16-2.72Z"/>
  <path class="cls-2" d="M81.32,166.32h-40.72c-.02-2.22.01-4.46,0-6.68l29.34-.08c4.9-.91,8.62-3.86,11.38-7.87.88,4.83.88,9.8,0,14.63Z"/>
  <path class="cls-2" d="M64.14,47.66c.37.93.19,3.52-.64,4.14.52-1.04,4.47-1,5.09,0-1-.18-.88-2.55,0-2.86l-.32-.95c-.43.48-.62.27-.32-.32h6.36c.45.48.27.66-.32.32l-.32.95c.88.32,1,2.68,0,2.86.28.09.27.2,0,.32-5.92.02-11.9-.16-17.81,0v-4.45c2.63-.22,5.71.31,8.27,0Z"/>
  <path class="cls-2" d="M84.5,47.66c.37.93.19,3.52-.64,4.14.52-1.04,4.47-1,5.09,0-.82-.62-1-3.21-.64-4.14,1.45.17,4.92.17,6.36,0l.38.67c-.38.87-.43,1.83-.4,2.77,1.62-.12,3.11.11,4.48.69,1.67-.86,3.42-.88,5.09,0,1.72-.78,3.38-.79,5.09,0,1.69,0,3.4,0,5.09,0,.52-1.04,4.47-1,5.09,0h7.63v.32c-17.63-.48-35.77-.05-53.44,0v-.32l.36-.64h4.07c.11-.95,0-1.94-.36-2.83l.38-.67c1.45.17,4.92.17,6.36,0Z"/>
  <path class="cls-2" d="M114.08,36.85c1.08.75.05,4.56-1.27,4.77-.06.12-.25.21-.32.32-.33-.53-1.21-.32-1.75-.32-14.63-.18-29.27.15-43.9,0-3.33.44-4.37-4.38-1.29-4.78,15.58-.33,31.23.5,46.8.03.61-.02,1.2.03,1.73-.33,0,.11,0,.21,0,.32Z"/>
  <path class="cls-2" d="M104.86,47.66c.48.98.18,3.39-.64,4.14-1.69,0-3.4.01-5.09,0-.82-.58-1.01-3.23-.64-4.14,1.32.16,5.09.19,6.36,0Z"/>
  <path class="cls-8" d="M67.96,47.66c.09.04.18.26.32.32.58-.03.76.56.32.95.13.87-.09,1.95,0,2.86h-5.09c-.06-1.45-.09-2.83.64-4.14,1.84-.22,1.09-1.13,3.82,0Z"/>
  <path class="cls-8" d="M78.14,47.66c.73,1.3.69,2.68.64,4.14h-5.09c.09-.91-.13-1.99,0-2.86-.51-.34-.25-.88.32-.95.26-.11.3-.31.32-.32,2.72-1.13,1.96-.22,3.82,0Z"/>
  <path class="cls-8" d="M88.32,47.66c.73,1.3.69,2.68.64,4.14h-5.09c-.06-1.45-.09-2.83.64-4.14.52-.06,1.01-.7,2.06-.66.8.03,1.35.61,1.76.66Z"/>
  <path class="cls-8" d="M98.5,47.66c.73,1.3.69,2.68.64,4.14-1.69-.01-3.4,0-5.09,0-.06-1.45-.09-2.83.64-4.14.52-.06,1.01-.7,2.06-.66.8.03,1.35.61,1.76.66Z"/>
  <path class="cls-6" d="M106.45,47.03c2.89-.42,2.94,2.66,2.86,4.77-1.69,0-3.4,0-5.09,0-.09-1.41.05-2.84.64-4.14.21-.03,1.18-.49,1.59-.64Z"/>
  <path class="cls-6" d="M112.81,41.62c.63-1.29,1.14-3.34,1.27-4.77,1.45.15,4.49-.64,5.02,1.18,1.2,4.07-3.65,3.67-6.29,3.59Z"/>
  <path class="cls-6" d="M119.49,51.8h-5.09c-.83-6.57,5.92-6.57,5.09,0Z"/>
  <path class="cls-9" d="M116.95,140.87c1.06,0,2.12,0,3.18,0,.35.42.96.67,1.28,1.11,1.1,1.51.61,6.89.63,9.07s0,4.46,0,6.68c.16.26.31.53.42.81.56,1.45.27,9.3.15,11.55-.03.59-.3,1.13-.57,1.63-1.32,2.78-2.96,4.55-6.19,4.79-9.43.7-19.73-.53-29.25-.04-2.67-.49-4.25-2.36-5.28-4.74-.01-.64,0-1.27,0-1.91.44-.5.99-.8,1.66-.73l11.8.29c9.38,1.04,14.8-6.19,13.57-15.08l.64-.71.56-.65c5.3.75,5.46-4.67-.02-3.47l-.54-.65c-.28-.09-.27-.2,0-.32-.63-2.54-.63-5.1,0-7.63,2.66-.79,5.29-.79,7.95,0Z"/>
  <path class="cls-2" d="M96.59,130.38c.77.62-.13,1.89-1.08,1.89-3.11-.9-4.25.74-4.94,3.55-1.85,1.08-3.31,2.31-3.5,4.62l-.66.43c-.44.93-2.38.81-2.86,0l-.32-45.81c6.44.1,12-.53,13.37,7.46v27.85Z"/>
  <path class="cls-10" d="M96.59,130.38c4.93-4.74,12.94-3.42,15.74,2.87.28.63.39,1.92.55,2.15.11.16,1.37.56,1.82.89,1.39,1.02,2.23,2.87,2.25,4.59-2.65,0-5.31,0-7.95,0-.43.17-.87.32-1.32.42s-.89.2-1.32.21c-5.75.04-11.55.01-17.3-.07-.91-.01-1.79-.29-2.64-.57,0-1.73.8-3.34,2.07-4.46.46-.4,1.3-.55,1.58-.96.4-.59.24-1.57.95-2.55,1.88-2.59,4.37-1,4.89-1.3.11-.06.39-.95.69-1.23Z"/>
  <path class="cls-1" d="M75.18,62.37l32.85.1c2.2,2.32.95,4.3-2.07,4.6-9.11.92-19.68-.67-28.94,0-2.97.1-4.37-2.97-1.85-4.7Z"/>
  <path class="cls-7" d="M86.41,140.87c7.43-.26,15.13.02,22.59,0,0,2.54,0,5.09,0,7.63l-.63.46c-5.5.08-11.01.18-16.53.31-2.68.04-2.68,3.5-.02,3.57,5.32.48,10.76.35,16.12.16l1.05.6c-.06,2.97.25,5.79-.71,8.68-1.17,3.54-5.21,7.14-8.99,7.55-5.61.61-12.26-.46-17.98,0-.02-1.16,0-2.34,0-3.5-.04-4.87-.05-9.77,0-14.63.03-2.65-1-10.08,2.23-10.82.68-.16,2.03.03,2.86,0Z"/>
  <path class="cls-7" d="M76.15,105.64c.25.24.32.72.38,1.06-2.06,5.63-6.46,10.74-8.95,16.14-1.28,2.78,1.13,2.93,3.38,3.09,1.89.13,8.75-1.04,7.75,2.3l-20.62,22.97c-1.9.71-2.58-.77-2.14-2.46l4.64-15.59c-.19-.64-.52-1.12-1.12-1.43-1.8-.95-5.86-1.17-7.51-2.27-.53-.35-.64-1.37-.4-1.93l11.01-21.78c.5-.46,1.1-.45,1.72-.5,2.62-.24,7.58-.22,10.21,0,.5.04,1.3.05,1.66.41Z"/>
  <path class="cls-3" d="M122.04,157.73h7c-.17,5.58-2.86,11.13-6.84,14.95-.31-.07-.14-.66-.16-.95-.23-4.54.01-9.41,0-14Z"/>
  <path class="cls-2" d="M74,47.98c.16.38-.3.82-.32.95-.46-.21-.75-.42-.63-.95.28-.06.76.08.95,0Z"/>
  <path class="cls-2" d="M68.27,47.98c.19.08.68-.06.95,0,.11.53-.18.75-.63.95-.02-.14-.48-.57-.32-.95Z"/>
  <path class="cls-9" d="M108.99,148.51v.32c.92,1.49.94,3.29,0,4.77-4.67.19-10.84.34-15.44.01-2.15-.15-4.42-.08-4.31-2.72.09-2.25,2.1-2.22,4.01-2.38,5.07-.4,10.62.29,15.74,0Z"/>
  <path class="cls-4" d="M108.99,153.6c.03-1.58,0-3.19,0-4.77,2.09.15,5-.87,5.12,2.06.13,3.07-2.91,2.62-5.12,2.71Z"/>
</svg>