<?xml version="1.0" encoding="UTF-8"?>
<svg id="Layer_4" data-name="Layer 4" xmlns="http://www.w3.org/2000/svg" viewBox="0 0 100 100">
  <defs>
    <style>
      .cls-1 {
        fill: #34507b;
      }

      .cls-2 {
        fill: #2b4266;
      }

      .cls-3 {
        fill: #91563a;
      }

      .cls-4 {
        fill: #3085cc;
      }

      .cls-5 {
        fill: #b6e6ea;
      }

      .cls-6 {
        fill: #459ce5;
      }

      .cls-7 {
        fill: #feb431;
      }

      .cls-8 {
        fill: #dfdfdd;
      }

      .cls-9 {
        fill: #76bac3;
      }

      .cls-10 {
        fill: #78462f;
      }

      .cls-11 {
        fill: #8ecfd8;
      }

      .cls-12 {
        fill: #f9a40f;
      }

      .cls-13 {
        fill: #348ed8;
      }

      .cls-14 {
        fill: #fdc8a2;
      }
    </style>
  </defs>
  <path class="cls-13" d="M68.32,56.88c.51,1.1.51,2.17,0,3.28.4,2.02.55,4.07.43,6.15h5.83s.3.41.3.41c.4,7.65.4,15.31,0,22.95-.02.57-.51.68-.82.2l-71.32-.2c.02-10.93-.02-21.87,0-32.79l.19-.41h65.13l.25.41Z"/>
  <path class="cls-7" d="M81.64,33.92c.88-.41,1.78-.41,2.66,0,5.36.04,12.94-1.25,13.53,6.24.48,6.14.02,13.7,0,19.99l-.24.41h-4.38l-.3-.41-.41-.14v-19.28l.41-.25c-.34.67-2.88.64-3.28,0l.41.14v19.28l-.41.25c-4.37.4-8.75.4-13.12,0l-.41-.14v-19.28l.41-.25c-.34.67-2.88.64-3.28,0l.41.14v19.28l-.41.25-.24.41h-4.38l-.3-.41c0-1.09,0-2.19,0-3.28-.4-1.09-.4-2.19,0-3.28-.6-2.14-.61-4.42,0-6.56.04-4.32-1.11-10.22,3.65-12.44,2.41-1.13,6.91-.65,9.68-.67Z"/>
  <path class="cls-11" d="M19.13,24.09l.69.28,5.9,8.53c1.46-2.88,2.91-5.77,4.37-8.65l.52-.16c3.04.05,5.73-.39,7.99,2.16,2.45,2.76,2.28,9.29,3.49,12.8l1.64-3.48c.13-.11.27-.21.42-.29.64-.33,5.73-.16,6.92-.08.32.02.6.2.86.37l-4.92,11.48c-3.82.4-7.66.4-11.48,0-1.17-1.24-1.43-3.41-1.43-5.12-.73.07-.73-.71-.44-1.25,2.29-2.68,2.33-5.81.94-8.95-1.05-2.38-1.64-1.7-2.92.14,2.29,2.7,1.53,5.81-.63,8.26-.02,2.3-.07,4.55-.14,6.76l-.29.15c-4.37.51-8.75.5-13.12,0l-.41-.19v-15.96l.41-.25c-.34.67-2.88.64-3.28,0l.41.19v15.96l-.41.25c-1.65.51-3.27.5-4.92,0v-16.92c1.02-5.96,4.86-5.95,9.84-6.04Z"/>
  <path class="cls-6" d="M9.3,47.04c1.64,0,3.28,0,4.92,0,1.09-.4,2.19-.4,3.28,0,4.37,0,8.75,0,13.12,0,1.09-.4,2.19-.4,3.28,0,.54-.4,1.1-.4,1.64,0,3.82,0,7.65,0,11.48,0h21.31c-.02,2.18,0,4.38,0,6.56l-.19.41H2.99l-.25-.41c.01-2.18,0-4.38,0-6.56,2.18,0,4.38.01,6.56,0Z"/>
  <path class="cls-3" d="M76.52,60.16h13.12c.08-.63,1.5-.6,1.64,0,.16.02.4.07.41.18.06.73.12,5.72,0,6.08l-.41.3c0,7.65.04,15.31,0,22.95-.02.16-.07.4-.18.41-.73.06-5.72.12-6.08,0l-.3-.41-.41-.14v-25.02l.41-.25-.23.41c-.68.12-2.75.18-3.05-.41l.41.14v25.02l-.41.25-.61.41-5.34-.04-.61-.37v-22.95c-.16-.02-.4-.07-.41-.18-.07-.85-.16-5.53,0-6.08l.41-.3c.08-.63,1.5-.6,1.64,0Z"/>
  <path class="cls-11" d="M47.98,1.18c4.47.26,9.71-.52,14.09-.05,1.74.19,2.83,1.45,2.98,3.17.43,4.83-.34,10.28,0,15.18-.22,1.75-1.43,2.83-3.17,2.98-3.26.29-10.33.34-13.54,0-1.49-.16-2.75-1.29-2.95-2.79-.13-.96.21-3.09-.12-3.77-.26-.53-3.57-2.24-4.27-2.9-.15-.14-.41-.18-.34-.48s4.13-2.59,4.61-3.18c.52-2.92-1.17-7.15,2.71-8.15Z"/>
  <path class="cls-4" d="M68.32,53.6c0,1.09,0,2.19,0,3.28H2.74c0-1.09,0-2.19,0-3.28h65.58Z"/>
  <path class="cls-3" d="M89.64,27.36l-.32.37c-2.09.14-4.17.13-6.23-.03-1.72-1.48-3.36-3.08-4.91-4.8-.8.06-1.35-.1-1.66-.47-4.6-.58-4.19-6.21-.11-6.57,1.95-.17,7.53-.21,9.19.46,4.54,1.84,4.31,6.88,4.04,11.02Z"/>
  <path class="cls-14" d="M30.61,14.25c.11,4.76-.14,8.25-5.33,9.84-.9.51-1.76.5-2.66,0-3.18-1.21-4.9-3.08-5.12-6.56.12-1.14,4.26-5.09,4.96-5.22,2.4.91,4.86,1.65,7.45,1.56l.7.38Z"/>
  <path class="cls-3" d="M30.61,14.25c-2.79.17-5.59-.38-8.1-1.58-1.7,1.59-3.52,3.06-5.02,4.86-.11-1.62.08-3.3,0-4.92-.2-.01-.41.01-.62,0,.32-2.63,1.48-4.54,3.48-5.74.02-.01.22.16.4.07,2.75-1.43,5.93-1.21,8.11,1.16,1.82,1.99,1.68,3.66,1.74,6.15Z"/>
  <path class="cls-14" d="M89.64,27.36c-.23,3.5-2.03,5.53-5.33,6.56-.89,0-1.78,0-2.66,0-5.53-1.76-5.36-6.55-5.12-11.48.59.07,1.27-.15,1.84.11,1.04.67,4.02,4.52,4.86,4.77,1.5.44,4.72-.24,6.41.04Z"/>
  <path class="cls-14" d="M43.73,35.56c1.11-1.84,1.85-4.82,3.82-5.91.19-.1,1.52-.64,1.61-.64h9.33c-1.83,3.36-2.11,6.28-6.56,6.56-2.67.17-5.51-.13-8.2,0Z"/>
  <path class="cls-1" d="M74.88,89.67c2.03-.18,4.47.02,6.56,0,.54-.41,1.1-.4,1.64,0,.16.02.4.07.41.18.06.73.12,5.72,0,6.08l-.41.3c-2.57,0-6.05.28-8.51,0-3.57-.4-4.19-5.41-.51-6.35.3-.08.45-.17.82-.2Z"/>
  <path class="cls-13" d="M22.62,24.09c.89,0,1.78,0,2.66,0,1.77,0,3.56-.03,5.33,0l-4.82,9.63-6.66-9.63c1.16-.02,2.33,0,3.48,0Z"/>
  <path class="cls-2" d="M84.72,89.67h6.56c-.01,2.18,0,4.38,0,6.56-2.73,0-5.47,0-8.2,0v-6.56c.54-.4,1.1-.4,1.64,0Z"/>
  <path class="cls-10" d="M20.36,6.87s0,.3-.12.39c-1.27.98-1.95,1.93-2.48,3.46-.26.74.07,1.65-.88,1.89-6.16-.32-5.26-8.31-.1-8.21,1.49.03,3.16.99,3.59,2.48Z"/>
  <path class="cls-14" d="M92.92,60.16h4.92c-.01,2.18,0,4.38,0,6.56h-6.56v-6.56c.08-.63,1.5-.6,1.64,0Z"/>
  <polygon class="cls-8" points="42.09 61.8 42.09 68.35 48.65 68.35 48.65 74.91 42.09 74.91 42.09 81.47 35.53 81.47 35.53 74.91 28.97 74.91 28.97 68.35 35.53 68.35 35.53 61.8 42.09 61.8"/>
  <path class="cls-14" d="M73.24,60.16c.08-.63,1.5-.6,1.64,0v6.56h-6.56c0-2.18.01-4.38,0-6.56h4.92Z"/>
  <rect class="cls-6" x="7.66" y="66.71" width="3.28" height="13.12"/>
  <rect class="cls-6" x="7.66" y="60.16" width="3.28" height="3.28"/>
  <polygon class="cls-12" points="73.24 60.16 73.24 40.48 76.52 40.48 76.52 60.16 74.88 60.16 73.24 60.16"/>
  <polygon class="cls-12" points="89.64 60.16 89.64 40.48 92.92 40.48 92.92 60.16 91.28 60.16 89.64 60.16"/>
  <path class="cls-9" d="M34.1,41.92c.13,1.58.2,3.17.23,4.75l-.43.37c-1.09,0-2.19,0-3.28,0,.27-2.04-.39-5.13.04-7.03.13-.59,1.08-1.36,1.43-2.06.91-1.84.69-3.28-.13-5.07-.17-.37-.65-.73-.71-.95-.13-.48,1.84-2.45,2.31-2.3.18.06,1.24,1.6,1.4,1.9,1.24,2.37,1.31,5.22.21,7.66-.27.59-1.15,1.55-1.24,1.85-.13.44.12.6.17.87Z"/>
  <path class="cls-9" d="M14.22,47.04v-16.4h3.28v16.4c-1.09,0-2.19,0-3.28,0Z"/>
  <path class="cls-10" d="M81.44,89.67v-25.41h3.28v25.41c-.55,0-1.09,0-1.64,0s-1.09,0-1.64,0Z"/>
  <rect class="cls-5" x="53.57" y="12.61" width="3.28" height="4.92"/>
  <rect class="cls-5" x="53.57" y="6.05" width="3.28" height="3.28"/>
</svg>