<?xml version="1.0" encoding="UTF-8"?>
<svg id="Layer_4" data-name="Layer 4" xmlns="http://www.w3.org/2000/svg" viewBox="0 0 100 100">
  <defs>
    <style>
      .cls-1 {
        fill: #fecdbe;
      }

      .cls-2 {
        fill: #8694dd;
      }

      .cls-3 {
        fill: #57bd91;
      }

      .cls-4 {
        fill: #b88080;
      }

      .cls-5 {
        fill: #7a6d79;
      }

      .cls-6 {
        fill: #c49090;
      }

      .cls-7 {
        fill: #feaf9d;
      }

      .cls-8 {
        fill: #fdfefd;
      }

      .cls-9 {
        fill: #eeb6ac;
      }

      .cls-10 {
        fill: #c8bec7;
      }

      .cls-11 {
        fill: #685e68;
      }

      .cls-12 {
        fill: #e4e0e4;
      }

      .cls-13 {
        fill: #eeecee;
      }

      .cls-14 {
        fill: #fefefe;
      }

      .cls-15 {
        fill: #7ac9a5;
      }

      .cls-16 {
        fill: #fdfdfd;
      }
    </style>
  </defs>
  <path class="cls-6" d="M61.77,2.1c3.59.68,6.8,1.75,9.79,3.87.2.15.3.39.38.46.01.35-.03.7-.18,1.02-1.03,2.25-5.8,7.87-7.87,9.2-.3.19-.64.28-.99.32-.07.18-.15.36-.26.52-.68,1.08-3.82,2.78-5.13,3.48-3.96,2.13-8.53,3.73-13,4.14.21,3.06.21,6.14,0,9.25-.62,5.74,1.72,11.2,6.85,13.9l.23.52c.67.49.27,3-.57,3.2.1.17.2.36.17.55-.25,1.35-2.56,2.93-3.71,3.58-.91.51-2.5,1.39-3.42,1.15-6.96.76-12.89-4.19-12.24-11.39.36-3.97,3.77-6.37,5.17-9.89,2.54-6.35.06-13.1,2.31-19.72,2.24-6.6,7.97-11.81,14.7-13.54l2.68-.62h5.09Z"/>
  <path class="cls-10" d="M23.92,74.39l.22.85c.23,6.75.23,13.5,0,20.22l1.05-.2c4.11.07,7.96.08,11.54.02.27-.26.51-.2.55.04,13.32-.21,26.63-.1,39.94.33,1.95-.47,3.89-.47,5.84,0,3.08-.53,6.57-.58,9.73-.4.61.03,1.19.2,1.76.4.73.02,1.66-.1,2.34.01,1.84.29,1.51,2.92-.36,2.82H3.28c-.78.06-1.17-.39-1.59-.95v-.94c.2-.23.77-.94,1.04-.94h21l.19-21.27Z"/>
  <path class="cls-3" d="M19.58,2.1c11.28,1.21,16.94,14.92,10.33,24.16-.44.62-2.5,2.66-2.53,3.04,0,.12.07.33.16.42.55.53,5.67,2.46,2.12,2.87-1.48.17-3.25-.17-4.8-.19-.18-.12-.25-.29-.21-.53-1.82-1.07-2.41-3.03-1.39-4.9,6.72-8.76,3.08-20.95-7.75-24.14l-.43-.55c.19-.04.46.08.57-.19,1.27.1,2.71-.13,3.96,0Z"/>
  <path class="cls-15" d="M15.06,2.29c3.47,1.15,6.61,2.77,8.85,5.75,3.45,4.59,4.12,10.42,1.73,15.65-1.03,2.25-3.96,4.69-1.64,7.22.43.47,1.44.62.86,1.5-7.06-.07-13.04.97-18.36-4.7C-1.91,18.75,3.22,4.62,15.06,2.29Z"/>
  <path class="cls-2" d="M43.13,57.82c.15.02.37.07.38.17.05.57.1,4.73,0,5.01l-.38.28c-.08,2.25-.15,4.51-.19,6.78,0,.15-.04.37-.13.38-.79.06-5.73.14-6.15,0l-.22-.38v.41c-1.04.5-1.69,1.35-1.64,2.55l2.27,22-.35.27c.1.57-.29.36-.65.38-4.04.16-8.12-.12-12.16,0,.21-7.04-.27-14.25,0-21.27.44-11.27,10.78-12.72,19.21-16.57Z"/>
  <path class="cls-1" d="M69.12,54.44h.55c1.43.98,2.99,1.75,4.69,2.31l.22.51c.23.1.46.25.75.38l.38.4c.06.23.09,4.38,0,4.59-.06.14-.23.22-.38.28-.16.15-.33.3-.51.43s-.36.24-.55.3c-9.82,3.18-21.34,2.74-30.96.05l-.18-.4v-5.46c.25-.12.64-.42.94-.56,2.78-1.29,5.67-2.09,6.97-5.27l.55.03c4.59,4.33,11.92,3.57,17.53,2.42Z"/>
  <path class="cls-2" d="M94.54,95.66c-3.82-.09-7.67,0-11.49,0l-.36-.17,2.37-22.96c-.37-1.6-1.47-2.32-3.11-2.18-1.52.15-2.98.05-4.37-.29-.77.46-1.49.47-2.26,0-.15,0-.37-.04-.38-.13-.05-.82-.19-6.54.03-6.81l.35-.22v-5.27c7.74,3.49,18.4,5.55,19.21,15.72v22.3Z"/>
  <path class="cls-6" d="M74.58,57.26c-1.83-.84-3.97-1.38-5.46-2.82-1.18,0-2.48-2.99-2.53-4.03l.27-.49c-.15-.47-.15-.91,0-1.32l.35-.59c4.13-2.03,6.08-5.99,6.8-10.33l-.27-.37c.1-1.9.19-3.78.27-5.66l-.28-.52c.14-1.93.16-3.86.07-5.8l.4-.46.33-.34c1.78.27,3.54.14,5.32-.22-.15-1.14-.02-2.14.38-3.02.31.2.19.71.19,1.03.07,5.7-.81,10.77,2.16,15.91.93,1.6,2.34,2.9,3.11,4.61,3.43,7.62-3.11,15.38-11.11,14.4Z"/>
  <path class="cls-4" d="M80.23,21.3c.05,1.12-.03,2.26-.01,3.38-1.01.05-2.31.39-3.29.4-.57,0-2.16-.12-2.73-.2l-.55.29c-3.03-.56-5.95-1.93-8.21-4.04-1.06-.99-2.75-2.74-2.54-4.16,3.64-2.9,6.66-6.55,9.04-10.54,4.73,3.57,7.99,8.78,8.29,14.87Z"/>
  <path class="cls-1" d="M62.9,16.97c1.84,4.32,6.74,7.27,11.3,7.91-.15,2.19.28,4.65-.19,6.78.13,2.62-2.35,5.34-4.37,6.84-.95.71-2.88,2.04-3.92,1.44l-.42.06c-1.43-1.39-6.85-1.57-7.48.74-1.1,4.05,5.72,3.89,7.66,2.16l.42.05.56-.53c2.85-.81,5.25-2.54,7.1-4.76l.44.02c.36.19.14.66.1.94-.62,4.48-3.15,8.08-7.26,9.98-.02.16-.08.23-.19.19l-.18.47c-2.77,1.27-11.96,1.29-14.71,0l-.17-.48c-3.8-1.66-7.03-6.11-7.35-10.25-.34-4.37.25-9.21.03-13.63,6.87-1.03,13.19-3.61,18.62-7.93Z"/>
  <path class="cls-7" d="M66.67,48.79c.08.35.14.73.19,1.13.36,1.67,1,3.3,2.26,4.52-.23.44-.88.54-1.32.66-2.78.75-8.71.75-11.49,0-1.87-.5-3.97-1.66-5.27-3.11.36-.88.57-2.24.57-3.2,3.26,1.43,11.79,1.38,15.07,0Z"/>
  <path class="cls-13" d="M43.13,63.28c.32,2.18.43,4.37.21,6.56,8.87-.22,17.76-.21,26.63-.17.89,0,1.79.07,2.68.13s1.79.16,2.68.26c.75,0,1.51,0,2.26,0,1.78.11,2.33,1.3,2.46,2.93l-2.44,22.49-.4.19c-13.34-.02-26.68,0-40.02.01l-.47-.39-2.27-21.73c-.11-1.17.09-2.17,1.04-2.93.13-.1.89-.56.94-.56h6.5c.17-2-.23-4.36,0-6.31.02-.21-.09-.37.2-.46Z"/>
  <path class="cls-12" d="M83.05,95.66c-1.94,0-3.9,0-5.84,0l2.46-22.68c0-1.43-.81-2.41-2.09-2.92,1.45.01,4.87-.26,6.03.09.94.28,1.75,1.57,1.84,2.51l-2.41,23Z"/>
  <path class="cls-8" d="M12.93,16.28c1.38,1.51-1.03,3.36-2.2,1.92-1.12-1.38.94-3.3,2.2-1.92Z"/>
  <path class="cls-8" d="M17.27,15.88c2.38-.49,2.22,3.48-.19,2.75-1.26-.38-1.15-2.48.19-2.75Z"/>
  <path class="cls-16" d="M22.92,15.88c2.08-.43,2.51,2.9.34,2.8-1.78-.08-1.7-2.52-.34-2.8Z"/>
  <path class="cls-14" d="M75.33,70.06c-10.73-.06-21.47.04-32.21,0,0-2.26,0-4.52,0-6.78.19-.06,2.99.77,3.54.88,9.6,2.02,19.3,1.77,28.66-1.26v7.15Z"/>
  <path class="cls-5" d="M74.01,37.68c-.19.41-1.82,1.99-2.26,2.36-1.59,1.34-3.8,2.47-5.84,2.92-.13-.44-.15-.97-.06-1.6-.25-.58-.3-1.05-.13-1.41,3.62-.68,7.49-4.72,8.29-8.28.31.2.19.71.19,1.03.01,1.11.19,4.19-.19,4.99Z"/>
  <path class="cls-9" d="M66.86,49.92c-.07-.32-.35-.67-.19-1.13.06-.03.12-.16.19-.19v1.32Z"/>
  <path class="cls-11" d="M65.73,39.94c.57.88.76,2.08.19,3.01-.96,1.58-4.47,1.52-6.1,1.3-3.26-.44-3.15-5-.38-5.43.85-.13,3.83-.13,4.68,0,.67.1,1.26.57,1.61,1.12Z"/>
  <path class="cls-10" d="M59.47,79.52c5.39-.59,5.98,7.75.69,8.05s-5.8-7.5-.69-8.05Z"/>
</svg>