<?xml version="1.0" encoding="UTF-8"?>
<svg id="Layer_4" data-name="Layer 4" xmlns="http://www.w3.org/2000/svg" viewBox="0 0 100 100">
  <defs>
    <style>
      .cls-1 {
        fill: #10228b;
      }

      .cls-2 {
        fill: #111;
      }

      .cls-3 {
        fill: #fe8b5f;
      }

      .cls-4 {
        fill: #fdd4c4;
      }

      .cls-5 {
        fill: #f6c354;
      }

      .cls-6 {
        fill: #feb59e;
      }

      .cls-7 {
        fill: #2044b3;
        font-family: SegoeUIVariable-BoldSmall, 'Segoe UI Variable';
        font-size: 9.1px;
        font-variation-settings: 'wght' 700, 'opsz' 8;
        font-weight: 700;
      }

      .cls-8 {
        fill: #4e4e4e;
      }

      .cls-9 {
        fill: #fd6127;
      }

      .cls-10 {
        fill: #fd6025;
      }

      .cls-11 {
        fill: #cdcdcd;
      }

      .cls-12 {
        fill: #f6bf8a;
      }

      .cls-13 {
        fill: #fbc928;
      }

      .cls-14 {
        fill: #f4dfc3;
      }

      .cls-15 {
        fill: #060606;
      }

      .cls-16 {
        fill: #4c4c4c;
      }

      .cls-17 {
        fill: #757060;
      }

      .cls-18 {
        fill: #0dbf2f;
      }

      .cls-19 {
        fill: #f3e8dc;
      }

      .cls-20 {
        fill: #f6be08;
      }

      .cls-21 {
        fill: #030303;
      }

      .cls-22 {
        fill: #67e57c;
      }

      .cls-23 {
        fill: #fbc929;
      }

      .cls-24 {
        fill: #f2f1ef;
      }

      .cls-25 {
        fill: #fd5e22;
      }

      .cls-26 {
        fill: #fbc927;
      }

      .cls-27 {
        fill: #2547b0;
      }

      .cls-28 {
        fill: #f8a77e;
      }

      .cls-29 {
        fill: #fd6026;
      }

      .cls-30 {
        fill: #fbd877;
      }

      .cls-31 {
        fill: #0a0a0a;
      }

      .cls-32 {
        fill: #edb80d;
      }

      .cls-33 {
        fill: #6175e8;
      }

      .cls-34 {
        fill: #fefefe;
      }

      .cls-35 {
        fill: #585443;
      }

      .cls-36 {
        fill: #fbc824;
      }

      .cls-37 {
        fill: #f73434;
      }
    </style>
  </defs>
  <g>
    <path class="cls-4" d="M35.15,11.2c.11.22.33.38.23.74l-.02,42.44,47.11.22c-.5.59-2.68.74-3.05,0,.17.02.43.08.44.2.13,3.09.23,7.22,0,10.25.14.67,0,1.07-.44,1.21l.42.42c-.77,6.01-6.7,11.56-12.75,11.92H29.97s-.27-.45-.27-.45c-.02-.29.02-.58,0-.87H12.69s-.22,20.5-.22,20.5l-.44-.15v-20.08l.44-.27c-.07-.17-.05-.33.03-.49.37-.71,13.97-.25,15.98-.12.32.02.63.07.94.18-.3-1.4-.18-2.8.28-4.15-.54-1.32-.54-2.61,0-3.93-.67-2.86-.72-6.09,0-8.94-.64-.28-.61-2.95-.41-3.61.59-1.94,1.39-2.38,3.36-2.32.13-12.22.16-24.48.1-36.77l.44-.27.44.15.21,36.77c.06.26.73.24.88,0V11.46s.44-.27.44-.27Z"/>
    <path class="cls-6" d="M82.48,54.6c2.11.29,1.5,3.63,1.53,5.23.73,2.85.68,6.08,0,8.94.54,1.32.55,2.61,0,3.93.63,1.39.64,2.97,0,4.36-.02,1.42.6,6.32-1.64,6.32h-47l-.22,13.74-.37-.91c-.01-4.14-.05-8.27-.11-12.4l-.84.05v12.78s-.44.26-.44.26l-.22-13.52c-4.43.4-3.31-2.25-3.49-5.23h37.19c5.51.21,12.53-6.48,12.53-11.89v-11.67c.96.09,2.12-.13,3.05,0Z"/>
    <path class="cls-18" d="M95.34,15.99c.23,8.27-.17,16.59,0,24.86h-48.2c.17-8.27-.23-16.59,0-24.86l.15-.44h47.78l.27.44Z"/>
    <path class="cls-3" d="M6.36,41.29c-.27.4-.78.63-1.53.7v17.41c.59-.08,1.11-.02,1.53.42.87-.19,1.75-.39,2.65-.4,3.97-.05,7.96-.06,11.93-.03.44,0,.88.07,1.33.14s.89.18,1.32.29c.02-.17.08-.43.2-.44.71-.05,5.53-.07,5.76.15.07.07.12.18.15.29-.04,2.98.01,5.97,0,8.94l-.15.44H1.61l-.27-.44c-.22-3.2,0-6.28,0-9.48.04-6-.04-12.01-.01-18,1.65.17,3.42-.66,5.02,0Z"/>
    <path class="cls-16" d="M29.7,72.7c0,1.45,0,2.91,0,4.36-5.4.26-11.13-.35-16.49-.02-.4.02-.64.22-.74.23-.13.34-.5.54-1.09.58v19.65s-.44.27-.44.27c-1.38.04-2.77-.03-4.14,0v-24.86c-.34-.49.24-.66.71-.67,6.47-.06,12.95-.03,19.42.04.46,0,.92.07,1.38.14s.93.17,1.39.28Z"/>
    <path class="cls-16" d="M92.73,72.92v24.86c-1.38-.03-2.77.04-4.14,0l-.44-.15-.12-19.77c-.06-.23-.47-.23-.53,0v19.65s-.44.27-.44.27l-.22-20.72h-2.84c.02-1.45,0-2.91,0-4.36.25-.11.51-.21.78-.28s.52-.14.77-.14c2.07-.05,4.16-.06,6.23-.02.5,0,1,.1.94.66Z"/>
    <path class="cls-3" d="M98.4,68.77l-.2.44h-13.93l-.26-.44c0-2.97.05-5.97,0-8.94h12.55c.57.06,1.44.39,1.69.92.38.82.19,6.65.16,8.02Z"/>
    <path class="cls-16" d="M17.05,16.65c-.36-.19-.57-.33-.65-.77-.18-.97-.31-4.95.84-5.23,1.62-.39,1.02,2.47,1.12,3.38h15.05c.15-.99-.57-3.52.99-3.48.38,0,.61.35.76.65v43.18s-1.75,0-1.75,0l-.22-37.51-.15.44h-7.59c0,.65-.18,1.09-.55,1.31-.06.14-.14.14-.22,0-.35-.23-.64-.23-.87,0-.16.16-1.77.17-1.84.11l-.03-1.97c-1.63.05-3.26.02-4.88-.1Z"/>
    <path class="cls-25" d="M29.7,68.77c0,1.31,0,2.62,0,3.93-7.38.1-14.78-.13-22.16-.02-.4,0-.7.23-.74.23-1.27.03-3.69.25-4.66-.47-1.21-.89-.71-2.39-.8-3.68h28.35Z"/>
    <path class="cls-11" d="M16.83,45.22c.28.03.51.1.48.37l-.11,6.82c.82-.15,1.28,0,1.38.45,1.42-.11,3.45,1.4,4.31,2.66.73,1.06,1.65,3.32.7,4.32-5.73,0-11.5.11-17.23,0-.67-.09-.64-1.6,0-1.74.66-1.83,1.43-3.34,3.2-4.32.32-.18,1.44-.7,1.7-.7h5.34c.17-2.57-.33-5.36.22-7.85Z"/>
    <path class="cls-36" d="M24.9,20.14l.4.32c.17.89.15,4.13.13,5.2-.04,2.46-.13,5.84-3.28,6.07-.11.31-.42.3-.96-.02-1.47-.66-2.59-1.24-2.96-3.04-.39-1.91-.19-6.61-.1-8.74l.68-.34c1.81.17,3.62.22,5.44.13l.64.43Z"/>
    <path class="cls-22" d="M47.15,15.99c0-.32-.11-1.49.13-1.53h48.07c.01.51-.02,1.02,0,1.53h-48.2Z"/>
    <path class="cls-25" d="M98.4,68.77c-.03,1.39.44,2.99-.88,3.81-.92.57-3.58.36-4.79.34-.16,0-.55-.22-.97-.23-2.58-.05-5.18.05-7.76,0,0-1.31,0-2.62,0-3.93h14.39Z"/>
    <path class="cls-33" d="M18.58,52.85c-.34-.1-1.64.1-1.75,0-.27-.27.21-6.67,0-7.63.31-1.41,1-2.46,2.44-2.9.98-.3,1.95,0,2.53-1.18.55-1.12.25-5.09.27-6.6,0-.67,1.52-.83,1.74-.22l.44.29c.48,2.4.51,8.75-2.66,9.44-.99.15-1.83.46-2.53.93l-.05,7.62-.44.26Z"/>
    <path class="cls-25" d="M6.36,41.29v18.54c-.65-.01-1.31,0-1.96,0v-18.41s1.96-.13,1.96-.13Z"/>
    <path class="cls-21" d="M12.47,77.28v20.5c-.51.01-1.02-.01-1.53,0v-20.5c.49-.04,1.04.06,1.53,0Z"/>
    <path class="cls-15" d="M87.06,97.78v-20.5s1.4,0,1.4,0l.13,20.5c-.51-.01-1.02.01-1.53,0Z"/>
    <path class="cls-30" d="M23.81,31.91c-.04.45-.49.59-1.35.41.12.71.08,1.41-.4,1.98-.71-1.09.52-1.99-.87-2.62,5.68-.5,3.16-7.7,3.71-11.56.24-.63,2.15-.59,2.62-.22l.45.25c.34,2.15.35,8.59-.94,10.31-.6.8-2.39,2.3-3.21,1.43Z"/>
    <path class="cls-8" d="M33.41,96.91v-13.52s1.75,0,1.75,0c-.31,4.42.41,9.39,0,13.74-.09.93-1.56.96-1.74-.22Z"/>
    <path class="cls-27" d="M21.85,18.83c.65-.14,1.31-.15,1.96,0,.36-.16.73-.16,1.09,0,1.41-.96,4.1-.4,2.62,1.09-.78.37-1.75.21-2.62.22-2.21.02-4.61.16-6.76-.22.02-.36-.01-.73,0-1.09,1.23,0,2.48.01,3.71,0Z"/>
    <path class="cls-10" d="M44.69,5.58c.39.39.41,1.52-.17,1.8-.83.41-2.96.3-2.77-1.06.16-1.16,2.36-1.32,2.94-.74Z"/>
    <path class="cls-26" d="M87.22,47.67c.39.39.41,1.52-.17,1.8-.83.41-2.96.3-2.77-1.06.16-1.16,2.36-1.32,2.94-.74Z"/>
    <path class="cls-9" d="M46,2.07c1.65-.24,1.55,3.07.37,3.24-1.8.25-1.82-3.03-.37-3.24Z"/>
    <path class="cls-23" d="M88.53,44.16c1.65-.24,1.55,3.07.37,3.24-1.8.25-1.82-3.03-.37-3.24Z"/>
    <path class="cls-26" d="M90.7,47.45c2.67-.59,2.97,1.91,1.27,2.14-2.57.35-2.69-1.83-1.27-2.14Z"/>
    <path class="cls-10" d="M48.18,5.36c2.67-.59,2.97,1.91,1.27,2.14-2.57.35-2.69-1.83-1.27-2.14Z"/>
    <path class="cls-13" d="M88.07,49.83c2.33-.8,1.88,2.73,1.02,2.99-1.89.56-1.91-2.68-1.02-2.99Z"/>
    <path class="cls-29" d="M45.54,7.74c2.33-.8,1.88,2.73,1.02,2.99-1.89.56-1.91-2.68-1.02-2.99Z"/>
    <path class="cls-1" d="M23.81,31.91c.69.15.66,2.19,0,2.4l-1.74.22c0-.07,0-.15,0-.22.01-.8,0-1.6,0-2.4.08-.07,1.39.05,1.75,0Z"/>
    <path class="cls-17" d="M17.05,16.65c.69.13,4.84-.18,5.02,0,.1.1-.1,1.87,0,1.97.06.06,1.43,0,1.75,0,.19.06.19.13,0,.22-.65,0-1.31,0-1.96,0v-1.96c-.18-.18-3.85.28-4.8-.22Z"/>
    <path class="cls-34" d="M33.19,16.87v37.51c-4.34-.46-3.45,2.41-3.49,5.45h-6.11c.1-3.38-1.55-5.51-4.65-6.59-.23-.08-.34-.38-.37-.39l.05-7.92c.44-1.5,3.66-.43,4.79-3.06.72-1.67.4-5.58.4-7.57v-2.4c1.54-.23,2.95-1.3,3.43-2.79.58-1.79.38-7.09.28-9.21-.02-.36.01-.73,0-1.09-.87,0-1.75.01-2.62,0-.19-.06-.19-.13,0-.22v-1.75s8.29,0,8.29,0Z"/>
    <path class="cls-34" d="M74.34,59.21c1.09-.28,1.54,1.21.82,1.92-4.16,4.15-7.8,9.01-11.87,13.21-1.4,1.45-3.02,1.68-2.07-.76,4.02-4.13,7.58-8.71,11.55-12.88.28-.29,1.33-1.43,1.58-1.49Z"/>
    <path class="cls-34" d="M61.05,59.2c1.01-.14,1.36.92.71,1.83-3.03,4.26-7.96,8.15-11.12,12.44-.77.53-1.97,2.73-2.96,1.64-.76-.84.19-1.59.78-2.3,3.73-4.5,8.11-8.52,11.77-13.09.2-.21.53-.48.81-.52Z"/>
    <path class="cls-34" d="M47.52,59.21c.72-.18,1.45.62,1.11,1.33-4.07,4.97-8.63,9.56-12.8,14.46-1.22.9-2.35.04-1.55-1.34,4-4.07,7.53-8.62,11.46-12.75.3-.31,1.55-1.65,1.79-1.71Z"/>
    <path class="cls-34" d="M88.1,18.66c.62.63.38,2.37,2.15,3.41.67.39,1.96.39,2.16,1.1-.13,3.06.49,7,.11,9.95-.17,1.26-1.2,1.01-2.06,1.43-2.06,1.01-1.73,3.43-2.96,3.8l-32.38.09c-1.3-.2-1.85-2.33-2.84-3.27-.75-.71-1.75-.82-2.25-1.67l.05-10.33c.2-.72,1.49-.71,2.16-1.1,1.58-.93,1.84-3.31,2.37-3.53l33.49.13Z"/>
    <rect class="cls-31" x="18.36" y="14.25" width="15.05" height=".65"/>
    <path class="cls-2" d="M23.81,18.61c.14-1.03-.53-1.93.76-1.75.25.03.05,1.42.11,1.75-.29.16-.59.16-.87,0Z"/>
    <path class="cls-35" d="M24.68,18.61h.22v.22c-.36,0-.73,0-1.09,0v-.22c.29,0,.58,0,.87,0Z"/>
    <path class="cls-4" d="M88.66,22.24c.83.83,1.87.97,2.73,1.52l.04,9.33c-2.41.44-3.58,2.08-4.3,4.28h-31.81c-.51-.11-1.55-2.22-2.17-2.85s-1.33-1.01-2.09-1.45l.04-9.31c.86-.55,1.9-.7,2.73-1.52.83-.83.97-1.87,1.52-2.73l31.6-.03c.68.06.51.87.78,1.4.19.38.64,1.07.93,1.36Z"/>
    <path class="cls-25" d="M70.65,21.29c9.4-.86,10.32,13.99.59,13.99-8.96,0-9.31-13.2-.59-13.99Z"/>
    <path class="cls-20" d="M71.14,22.97c.38.07.68.22.87.44.25-.13.57-.07.65.22,3.91.95,4.23,7.85.44,9.16-.07.37-.74.55-1.09.44-.18.3-.72.26-1.09.22-.62-.02-.85.16-1.7-.16-1.47-.55-3.07-2.44-3.32-3.99.15-.64.15-1.32,0-1.96.39-2.44,2.8-4.32,5.23-4.36Z"/>
    <path class="cls-24" d="M73.32,33c-.32.1-.38.09-.22-.22,3.13-2.01,2.92-7.36-.44-9.16-.27-.27-.15-.26.22-.22,1.67.61,2.67,1.3,3.32,3.12,1,2.8-.32,5.28-2.88,6.48Z"/>
    <path class="cls-5" d="M65.9,29.3c-.06-.41-.06-1.56,0-1.96.37.41.37,1.56,0,1.96Z"/>
    <path class="cls-19" d="M73.32,33c-.65.3-.5.29-1.31.44-.19-.06-.19-.13,0-.22.4-.13.73-.2,1.09-.44l.22.22Z"/>
    <path class="cls-28" d="M72.01,33.44c-.82.15-.59.02-1.09,0,.42.08.73-.1,1.09-.22v.22Z"/>
    <path class="cls-12" d="M72.23,23.19c.26.18.18.25-.22.22-.3-.11-.64-.19-.87-.44.62,0,.7.14,1.09.22Z"/>
    <path class="cls-14" d="M72.88,23.41l-.22.22c-.23-.12-.44-.14-.65-.22l.22-.22c.32.07.4.13.65.22Z"/>
    <path class="cls-32" d="M71.79,30.6l.11-1.74c.64.37.95,1.68-.11,1.74Z"/>
    <path class="cls-32" d="M70.7,27.33c-.6-.21-.59-.95-.11-1.31l.11,1.31Z"/>
    <text class="cls-7" transform="translate(68.23 31.72)"><tspan x="0" y="0">₹</tspan></text>
  </g>
  <path class="cls-37" d="M82.6,19.1c-4.55-6.33-13.37-7.77-19.69-3.23-6.33,4.55-7.77,13.37-3.23,19.69,4.55,6.33,13.37,7.77,19.69,3.23s7.77-13.37,3.23-19.69ZM64.23,17.73c5.01-3.6,11.88-2.71,15.83,1.86l-19.12,13.74c-3.07-5.2-1.72-12,3.29-15.6ZM62.83,35.74l18.92-13.6c2.5,5.09,1.03,11.38-3.72,14.79-4.75,3.41-11.18,2.8-15.2-1.19Z"/>
</svg>