<?xml version="1.0" encoding="UTF-8"?>
<svg id="Layer_4" data-name="Layer 4" xmlns="http://www.w3.org/2000/svg" viewBox="0 0 100 100">
  <defs>
    <style>
      .cls-1 {
        fill: #60a0f6;
      }

      .cls-2 {
        fill: #5b3117;
      }

      .cls-3 {
        fill: #80b2f9;
      }

      .cls-4 {
        fill: #f6f3f3;
      }

      .cls-5 {
        fill: #ffa68d;
      }

      .cls-6 {
        fill: #853e2f;
      }

      .cls-7 {
        fill: #61a1f6;
      }

      .cls-8 {
        fill: #ca454e;
      }

      .cls-9 {
        fill: #bcd6f9;
      }

      .cls-10 {
        fill: #ffcbbe;
      }

      .cls-11 {
        fill: #7fb2f9;
      }

      .cls-12 {
        fill: #b6adaa;
      }

      .cls-13 {
        fill: #b1a8a3;
      }

      .cls-14 {
        fill: #ac6030;
      }

      .cls-15 {
        fill: #e7d8d3;
      }

      .cls-16 {
        fill: #9cc4f9;
      }
    </style>
  </defs>
  <path class="cls-13" d="M98.04,20.95v.93c-.23.33-.82.93-1.21.93h-5.69v4.85c-.63.5-3.08.51-3.08.11.27-1.56.26-3.35.1-4.96l-.18.37-80.28.03c-1,.4-1.78,1.22-1.89,2.33v21.31s-.37.23-.37.23l-.22.4c-.86.06-1.63.37-2.13,1.1h-.45c.05-7.93-.05-15.86.02-23.79.5-2.33,2.11-4.13,4.46-4.69h90.19s.75.85.75.85Z"/>
  <path class="cls-11" d="M54.72,74.35c-.31.19-.64.3-1,.34l-6.99-.05c5.08,1.12,9.91,3.57,13.72,7.12,3.47,3.24,3.75,5.73,3.86,10.05.04,1.46-.01,2.93-.15,4.37h12.19s.22.38.22.38c-.19.31-.71.19-1.02.19-4.43.05-8.85-.16-13.25-.2-19.67-.19-39.34.16-59.01,0-.49-.08-.76-.58-.83-1.03-.2-1.23-.15-5.31-.01-6.62-.12-3.58,2.18-6.24,4.8-8.39h.62c.05-.17.11-.33.19-.48.62-1.08,4.52-2.98,5.88-3.57,4.59-1.99,9.63-2.55,14.59-2.61,8.73.08,17.48.09,26.24.03l-.04.45Z"/>
  <path class="cls-1" d="M54.72,74.35c.13-.09.26-.17.41-.23,1.09-.45,8.37.89,9.2,1.73.11.11.2.24.29.37.08-.06.17-.12.26-.17.7-.31,7.39,3.92,8.19,4.81l.33.77c.51-.27.99.22.75.75.12-.08.31-.18.41-.11.44.32,1.81,1.87,1.45,2.35,1.03.2,1.24,2.11,1.3,3.09.02.34.02.68,0,1.01.24,1.75.38,4.71.19,6.44-.07.66-.2,1.28-.93,1.4h-13.26c-.05-.3.31-.12.44-.41.26-.6.2-6.32.1-7.32-.33-3.28-2.33-5.75-4.74-7.77-4.33-3.6-10.13-6.13-15.77-6.54-.04-.33.42-.18.65-.18,3.41-.14,7.32-.11,10.74,0Z"/>
  <path class="cls-15" d="M5.43,47.09c.26-.4.62-.46,1.06-.42,1.1-.09,2.88-.07,3.8.42l.34.63c-.25,5.33-.34,10.71.04,16.03l.65,2.6c-.3.09-.35.27-.29.53l.4.32c.05,1.35-.34,2.61-.96,3.79l-.02.73c-1.45,2.74-2.31,5.67-2.59,8.8-2.69,2.09-5.03,4.85-5.41,8.4.07-13.16-.09-26.34,0-39.5,0-.35.19-.7.19-.83.73-1.11,1.51-1.39,2.8-1.49Z"/>
  <path class="cls-16" d="M96.73,34.58c.05,4.83.97,11.7-5.04,13.35-.64.17-2.22.22-2.54.45-.15.11-1.67,2.63-1.86,3-.94,1.87-1.11,2.65-.37,4.67,2.51,6.86,8.45,10.65,1.31,17.56-3.39,3.28-7.22,6.52-10.74,9.7-.19.79-.65,1.32-1.49,1.31-.29-.49-1.43-1.79-1.87-2.24l.18-.59,2.55-2.33.62-.07.4-.86,6.2-5.36c4.41-3.53,5.22-5.35,2.89-10.18-3.15-5-5.65-10.16-1.12-15.34l.59-.18c.33-.21.73-.17,1.19.11,2.55-1.09,4.28-3.12,4.39-5.95-.01-2.3.04-4.6.16-6.9l.42-.33c.53-.58,3.09-.54,3.81-.26l.3.45Z"/>
  <path class="cls-4" d="M88.14,22.81c.18,0,.17.12.19.27.09.71-.17,4.42,0,4.59.93,0,1.87,0,2.8,0,.25,0,.5,0,.75,0,.28.03.6.26.73.52.5,1.04.28,4.54.17,5.85l-.34.35-.62.25c-2.93.06-5.83.12-8.72.17l-.37-.23-.37-.34c-.14-1.19-.28-5.1.26-6.02.27-.46.71-1.1,1.14-.55.04-.15.1-.36.21-.37.99-.09,2.92-.09,3.91,0l.27.37c-.15-.04-.36-.1-.37-.21-.04-.48-.1-4.18,0-4.37.08-.14.22-.22.37-.27Z"/>
  <path class="cls-15" d="M96.73,34.58c-1.28-.34-2.77-.18-4.11-.19-.03.17-.1.16-.19,0-.22-1.67.3-4.13,0-5.69-.08-.43-.55-.57-.56-1.03,1,.01,3.89-.27,4.46.48.66.87.38,5.09.39,6.42Z"/>
  <path class="cls-12" d="M77.32,88.72c-.17-1.25-.66-3.03-1.31-4.11.49-.44,1.01-.87,1.49-1.31-.12,1.77.24,3.7-.19,5.41Z"/>
  <path class="cls-4" d="M31.76,63.7l.38.24c-.03,2.95.23,3.85,3.4,3.94l5.76-.06.54.36,1.17-.35c3.16.34,5.12-.43,4.61-3.9l.38-.23c.32-.54,1.81-.61,2.05,0,5.48.02,10.44,3.41,13.17,8.16.7,1.22,1.74,3.03,1.39,4.35-3.08-1.19-6.61-1.76-9.9-1.87-.19-.31-.71-.19-1.02-.19-4.24-.04-8.48.16-12.69.2-12.18.12-22.88-1.82-33.15,6.15-.32-.19-.2-.7-.17-1,.31-3.03,1.06-5.97,2.78-8.52.24-.89.67-1.42,1.24-2.09.54-.64,1.48-1.73,2.31-1.64.68-1.48,2.96-2.37,4.52-2.91,3.46-1.2,8.94-1.31,12.61-1.01l.6.38Z"/>
  <path class="cls-15" d="M69.47,46.71c.18.36.26.36.64.39,1.72.14,3.67-.29,5.34.17l-.36.34-2.19.07c.56.69.8,1.58.87,2.46v31.26s-.38.23-.38.23c-2.04-1.84-6.21-4.43-8.78-5.41-1.5-5.71-5.87-10.28-11.58-11.86-.83-.23-2.17-.57-2.99-.65l.59-.37c1.87-.14,9.99-.11,10.97,1.15.08.1.14.22.2.34l.59-.15c2.47,1.19,4.62,2.9,6.29,4.97-.47-2.09-.31-4.27.47-6.52.45-5.21.4-10.55,0-15.78l.31-.63Z"/>
  <path class="cls-13" d="M75.45,47.27c1.43.19,1.89,1.42,2.05,2.71v29.41c-1.11,1-2.11,2.14-3.36,2.99-.21-.21-.55-.57-.75-.75v-31.47c-.05-.82-.33-1.84-.94-2.41-.25-.24-.72-.15-.74-.47,1.17.11,2.6-.16,3.73,0Z"/>
  <path class="cls-3" d="M27.65,35.51c.62,1.9.44,4.2,0,6.16.71,1.62.56,3.32-1,2.1-2.07-.62-3.3,1.92-3.09,3.73.3,2.6,2.16,4.13,4.44,4.97.26,1.59.76,3.06,1.49,4.42l-.16.47c.84.73,1.62,1.54,2.34,2.4l.09.58c.57.94.56,2.41,0,3.36-6.46-.02-12.4-.74-17.74,3.55l-.53.18c-.89-.23-1.72-.42-2.46-.56-.12-.98-.66-2.12-.75-3.26-.37-4.61-.27-11.87,0-16.53.1-1.64.81-3.27.76-4.77s-1.51-5.38-1.03-6.43c.17-.38.85-.75,1.28-.74,1.47.04,3.63.99,5.25,1.11,1.86.14,2.99-.6,4.68-.75,2.06-.18,4.35.13,6.44,0Z"/>
  <path class="cls-7" d="M14.02,67.25c-1.17.94-2.72,2.5-3.55,3.73.16-1.35.72-2.73.56-4.11-.07-.61.18-.32.53-.25.8.16,1.74.27,2.46.62Z"/>
  <path class="cls-9" d="M92.44,34.39c.06,0,.12,0,.19,0-.79,5.08,1.52,9.93-3.86,13.04-.37.21-.74.11-.92.59-.48-.14-.95-.32-1.38-.57-4.71-2.7-3.77-8.2-3.73-12.88.31-.21.66-.18,1.02-.19,2.85-.1,5.83,0,8.69,0Z"/>
  <path class="cls-11" d="M61.63,36.26c.91,7.75,1.41,16.03-.35,23.66.34,1.61.61,3.19.78,4.73l-.25.18c-3.74-1.51-7.82-1.07-11.76-1.12-.65-.07-1.39.05-2.05,0-.6-.27-.53-2.95-.28-3.43,2.24-2.21,3.61-4.88,4.14-7.95,4.15-.57,6.71-7.79,1.58-8.76-1.21,1.01-2.11.03-1.15-1.15-.36-1.96-.49-4.2-.33-6.19.02-.27.18-.51.33-.72,2.02.13,4.25-.18,6.25,0,1.04.09,2.19.64,3.08.74Z"/>
  <path class="cls-1" d="M69.47,46.71c.5,4.32.44,11,.19,15.41-.1,1.8-.96,4.14-.95,5.59,0,1.02.59,2.21.57,3.27l-2.52-2.98c-1.47-1.14-3.21-2.48-4.94-3.18,0-1.51-.89-3.34-.91-4.78s.81-3.42.92-5.01c.34-5.12.33-13.21-.52-18.17-.06-.36-.23-.7.33-.6,2.08.25,6.28-1.44,7.48-1.04.49.16.92.93.89,1.46-.12,1.71-1.24,4.13-1.27,5.85-.02,1.07.6,2.91.75,4.19Z"/>
  <path class="cls-14" d="M46.69,29.16c-.12.29-.28.41-.57.35,1.5.8,2.37,2.22,2.79,3.83.27,1.03.64,3.17-.16,3.84-.29.45-1.25.15-1.31-.37l-.31.3c-3.87-.64-8.57-.75-12.53-.36-3.26.31-5.16,1.58-6.46,4.68l-.49.24c.01-2.04-.09-4.13,0-6.16.37-8.58,9.1-6.15,15.22-6.34,1.17-.04,2.64-.53,3.82,0Z"/>
  <path class="cls-2" d="M46.69,29.16c3.67.29,5.35,2.88,5.6,6.35.16,2.22-.06,4.65,0,6.91l-.46-.25c-.53-1.73-1.4-3.45-2.95-4.47l-.13-.51c.37-3.36-.54-7.14-4.29-7.84-.04-.33.42-.18.65-.18.5-.02,1.1-.04,1.59,0Z"/>
  <path class="cls-5" d="M48.75,37.19c1.94,1.04,2.99,3.21,3.55,5.23.01.43,0,.87,0,1.31.56-.05.72-.58,1.38-.55s1.62.62,2.06,1.13c2.15,2.53.27,6.72-2.46,7.97-.32.15-1.1.22-1.14.26-.07.06-.24,1.45-.34,1.8-.61,1.98-1.41,3.36-2.67,4.98-.27.34-.98.83-1.08,1.16-.2.67-.01,2.39-.04,3.23-.04,1.56.35,2.96-1.13,4-1.13.79-3.6.46-5.03.48.12-.42.44-.79.97-1.1.34-.56.7-1.03,1.09-1.42-.61-.28-.58-2.55,0-2.89-.91.99-3.02.99-4.39.94s-2.78-.31-4.08-.79-3.19-1.27-3.66-2.58c-1.02-.87-1.75-1.85-2.43-2.99l.64-.11c7.25,3.34,15.69-.73,17.1-8.72.63-3.56.32-7.93,0-11.49l.37-.23c.39.11.94.18,1.31.37Z"/>
  <path class="cls-10" d="M31.76,60.34c3.37,2.89,7.9,3.69,12.14,2.43v2.89c0,1.04-1.12,2.17-2.05,2.52-2.28.03-5.18.2-7.38,0-2.89-.25-2.64-2.27-2.7-4.49-.03-1.12.02-2.24,0-3.36Z"/>
  <path class="cls-10" d="M47.44,36.82c-.02.48.17.92.19,1.39.14,2.6.16,6.2,0,8.79-.58,9.29-10.03,14.5-18.31,10.35-.42-.71-.75-1.26-1.02-2.06-.18-.53-.53-2.52-.64-2.68-.05-.08-1.35-.43-1.76-.7-2.26-1.49-3.73-4.96-1.99-7.34.99-1.36,2.51-1.88,3.73-.47,0-.81,0-1.62,0-2.43.92-2.53,2.81-4.7,5.59-5.14,2.74-.43,9.72-.32,12.62-.09.65.05,1.02.23,1.58.38Z"/>
  <path class="cls-8" d="M36.56,52.54c.47-.14,5.53-.14,6.12-.03,1.34.25,1.23,2.43-.22,2.76-.67.15-4.85.15-5.52,0-1.39-.31-1.65-2.35-.37-2.72Z"/>
  <path class="cls-6" d="M33.95,44.51c2.11-.27,2.53,2.97.69,3.32-2.69.52-2.81-3.05-.69-3.32Z"/>
  <path class="cls-6" d="M44.51,44.9c1.58-1.47,3.89,1.13,2.28,2.56s-3.97-.99-2.28-2.56Z"/>
</svg>