<?xml version="1.0" encoding="UTF-8"?>
<svg id="Layer_4" data-name="Layer 4" xmlns="http://www.w3.org/2000/svg" viewBox="0 0 100 100">
  <defs>
    <style>
      .cls-1 {
        fill: #424454;
      }

      .cls-2 {
        fill: #e5e5e5;
      }

      .cls-3 {
        fill: #34aadf;
      }

      .cls-4 {
        fill: #3c3e4c;
      }

      .cls-5 {
        fill: #4bc898;
      }

      .cls-6 {
        fill: #3aae80;
      }

      .cls-7 {
        fill: #e17727;
      }

      .cls-8 {
        fill: #e4995c;
      }

      .cls-9 {
        fill: #bcd8e4;
      }

      .cls-10 {
        fill: #fec38e;
      }

      .cls-11 {
        fill: #cbcbcb;
      }

      .cls-12 {
        fill: #3b3d4c;
      }

      .cls-13 {
        fill: #5c5e70;
      }

      .cls-14 {
        fill: #3c3d4c;
      }

      .cls-15 {
        fill: #fefefe;
      }

      .cls-16 {
        fill: #f68d39;
      }

      .cls-17 {
        fill: #e2f3fb;
      }

      .cls-18 {
        fill: #1895b6;
      }
    </style>
  </defs>
  <path class="cls-16" d="M40.4,1.23c2.96.91,4.43,3.75,3.38,6.71-.65,1.83-1.96,2.5-3.76,2.8-.93.1-1.87.15-2.82.15-.05.14-.11.26-.17.26-3.79.24-8.18.19-12,.14-.84.15-1.42.03-1.74-.36-.28-.33-.12-.47.26-.56.55-4.73,4.25-9.08,9.25-9.14h7.61Z"/>
  <path class="cls-7" d="M32.79,1.23c-4.44.9-7.25,3.33-8.61,7.65-.16.5-.17,1.39-.32,1.73-.1.22-.5.12-.57.32l.33.3c.1,1.14.14,3.31-.14,4.37-.14.51-.43,1.57-.95,1.61.12,1.55-4.36,4.01-5.28,3.16-.45-.42-.1-8.07-.04-9.43.24-5.1,3.73-8.51,8.56-9.7h7.03Z"/>
  <path class="cls-12" d="M73.29,65.69l.67.16c1.92,2.11,3.02,4.75,4.05,7.37l-.15.65c.57.12.84.73.38,1.14,1.36,3.79.72,7.94-.69,11.63l-.49.34c2.09-.33,4.24-.27,6.31.2.78-.47,1.51-.48,2.28,0,1.28-.55,2.72-.56,3.99,0,1.01.01,3.8-.19,4.52.14.78.36.83,1.67.12,2.12-1.06.68-6.52-.07-8.06.21l-.49.09c-1.71-1.2-4.14-1.17-5.86,0l-.49-.1c-.97.16-3-.27-3.8.1-.29.13-2.27,2.85-2.85,3.42-8.84,8.63-23.81,6.61-30.12-3.91-5.66-9.43-2.5-21.71,7.11-26.98l.37.24c-.12,1.8-.13,3.6-.03,5.4l-.34.25-.2.7c-11.2,10.81.57,29.3,15.11,23.34,14.48-5.93,9.57-27.54-5.79-27.11l-.57-.35c-.7-1.24-.54-3.62,0-4.94-.12-.57,2.73-.46,2.87-.38.14.08.22.23.27.38l.36-.37c4.18.51,8.11,2.81,11.28,5.49l.24.77Z"/>
  <path class="cls-12" d="M17.2,58.46c-.09-.13-.16-.56-.1-.64.12-.16,3.71-.07,3.89.26.18,3.73,2.29,6.58,5.28,8.63l.05,27c.15,1.84,1.19,3.34,2.86,4.14.17.2.04.38-.39.55-3.22.83-6.39-1.36-6.27-4.75-.18-2.63-.24-5.38-.09-8.06,0-.05.03.97-.29.84l-9.71,7.12c-4.08,2.14-8.71-1.69-7.08-6.13,1.01-2.76,7.49-6,9.84-8.22.23-.22.51-.39.62-.71l3.84-13.64c-1.2-2.01-2.53-3.89-2.45-6.37Z"/>
  <path class="cls-17" d="M65.31,45.53c.23-.52,2.56.28,1.9.76,0,.03-.16.09-.19.17,2.4,1.01,4.5,3.47,5.46,5.86,1.48,3.68.55,8.01.8,11.91.02.07.48.28.58.31-.11.55-.3.93-.57,1.14-2.41-2.53-8.38-5.89-11.88-5.89h-3.14c.08,1.62-.11,3.34,0,4.94.27.11.42.38.48.82l2.95,2.83c1.69,1.66,3.73,4.17,2.27,6.58-.44.73-1.4,1.99-2.28,1.75l-.63-.12c-2.05-1.73-4.78-4.3-6.37-6.42-.39-.51-1.1-1.51-.6-2.02-.11-.82-.13-1.69-.04-2.6l-.09-8.39c-.58-1.2-.04-3.02.46-4.28,1.17-2.91,3.75-5.22,6.51-6.63.45-.23,2.51-1.24,2.8-.92.02.02-.37.38.07-.18.44.07,1.07.26,1.52.38Z"/>
  <path class="cls-13" d="M20.63,57.7c2.98-.37,5.96-.37,8.94,0l.55.03c1.86,2.15,4.51,1.78,7.02,1.35l.42.33c-.39,3.1-2.45,5.85-5.14,7.35v27.33c-.24,1.96-1.66,3.79-3.6,4.3.4-.58.06-.26-.22-.44-1.63-1.02-2.41-2.29-2.63-4.22v-26.96c-3.24-1.86-5.19-5.14-5.33-8.88h-3.42c0,.19,0,.38,0,.57-.29-.13-.18-.51-.19-.76.02-.15.06-.36.17-.38.26-.05,2.94-.06,3.18,0l.27.38Z"/>
  <path class="cls-10" d="M40.02,10.74c-.06.01-.21.17-.46.2-.78.09-1.63-.16-2.39.09,7.51,6.4,4.17,19.13-5.51,21.01-5.11-.78-8.61-5.38-9.44-10.32-.25-1.47-.47-3.2.31-4.51.1-.72.64-1.54.74-2.4.11-.94-.19-3.27.02-3.88l16.73-.19Z"/>
  <path class="cls-3" d="M28.99,32.22c3.17.8,5.9,2.4,7.49,5.34,1.94,3.6,1.08,7.65,1.26,11.58,0,.63-1.6.87-2.06.65l-2.12-2.82-5.87,4.43-.41-.17c-.05.17-.12.16-.19,0l-.41.07-1.99-2.97c-1.19.6-1.2.74-.35,1.72l1.5,1.8-.08.52.57.15c1.03,1.57,2.11,3.11,3.24,4.6v.57h-8.95c-.15-.02-.38-.07-.38-.18-.14-5.53-.06-11.23.16-16.76.42-3.61,4.2-8.21,7.94-8.36.04,0-.35.4.07-.19.16-.55.29-.47.57,0Z"/>
  <path class="cls-11" d="M75.38,17.77l-.36.59c-6.49,2.98-11.17,8.96-9.96,16.35l-.33.56-.6.3c-1.76-.26-3.38-.98-4.93-1.83-.02,1.28,0,2.57.26,3.83l-.25.56c-5.18,2.68-11.08-2.12-9.37-7.76,1.11-3.68,5.02-5.45,8.62-4.3,2.02-7.58,9.56-11.49,16.91-8.29Z"/>
  <path class="cls-10" d="M79.56,26.14c1.31.28,2.27,2.45,2.79,3.71.57,1.39.93,2.87,1,4.37l-.37.48c0,6.13-4.61,11.06-10.55,11.98-.58.09-1.82.23-2.37,0-.05-.48.59-.07.55-.08-2.63-.71-4.84-4.36-5.54-6.88-.36-1.3-.9-3.28-.34-4.45l.56-.32c5.92.56,11.34-3.46,12.48-9.31l.47-.45c.41-.54,1.59.36,1.33.95Z"/>
  <path class="cls-5" d="M73.86,64.54c3.07.91,8.82.44,10.73,3.24l6.15,15.53c.25,1.57-.13,2.65-1.09,3.85-1.33-.02-2.66,0-3.99,0l-.71-.31c-1.35-2.82-2.51-5.75-3.48-8.78-.51-2.15-1.63-3.44-3.34-3.86l-.27-.37c-1.28-3.13-2.13-5.62-4.56-8.18.06-.7-.31-1.32.57-1.14Z"/>
  <path class="cls-2" d="M77.66,18.91l.51.41c.47,1.75.73,3.57.51,5.37l-.45.49c-1.04,6.56-6.92,10.93-13.5,10.08-.2-2.03-.33-3.71.06-5.74,1.06-5.57,5.66-9.5,10.59-11.75.68.29,1.67,1.05,2.28,1.14Z"/>
  <path class="cls-10" d="M27.28,51.24l6.21-4.74c.39-.07,2.09,2.53,2.38,3,.23.13,1.53-.31,1.87-.35,3.81-.47,10.25-2.37,11.6,2.66-.37,2.88-3.19,3.44-5.57,3.9-2.37.46-9.15,1.69-11.27,1.12-2.18-.58-4.24-3.19-5.32-5.11l.11-.48Z"/>
  <path class="cls-18" d="M27.28,32.22c.19-.56.94-.54,1.14,0,.38.59.1.28-.26.4-4.43,1.49-7.08,4.67-7.54,9.38v15.69s-3.6,0-3.6,0c-.12-4.69-.28-10.29,0-14.92.37-6.04,4.1-10.23,10.26-10.55Z"/>
  <path class="cls-9" d="M49.71,62.07c.08-1.7.14-3.41.19-5.13l.21-.38h3.51l.27.38c.08,3.33.12,6.67.12,10-.16.67-.14,1.07.07,1.22.19.21.27.83.47,1.15,1.67,2.69,4.98,5.04,7.14,7.41.25.4,0,.5-.38.57-.32.49-1.77.43-2.41.36-.48-.05-1.45-.19-1.4-.74-2.24-1.43-4.75-3.84-6.5-5.94-.62-.74-1.15-1.45-1.53-2.36l.23-.45c-.24-1.26-.04-4.43,0-5.89,0-.06,0-.13,0-.19Z"/>
  <path class="cls-13" d="M86.22,89.64c3.92,3.49.37,10.32-4.99,8.69-3.69-1.12-4.76-6.21-1.86-8.69,1.79-1.54,5.06-1.59,6.84,0Z"/>
  <path class="cls-8" d="M49.33,51.81c.56,2.11-.12,4.47-2.03,5.67-1.42.9-7.74,1.67-9.76,1.93-3.32.43-5.52,1.07-7.99-1.71-1.27-1.43-2.64-3.72-3.8-5.32-.37-.45.85-1.48,1.33-1.14h.19c1.62,2.08,3.03,5.08,5.98,5.33,1.83.16,11.03-1.18,12.88-1.77,1.53-.49,2.43-1.66,3.19-2.99Z"/>
  <path class="cls-8" d="M17.2,10.93c-.14,3.03.11,6.1,0,9.13,2.22.22,4.01-1.23,5.32-2.85-.72,5.2,1.36,10.67,5.96,13.34,1.02.59,2.16.9,3.17,1.49-.93.18-1.75.14-2.66.19-.19.01-.38-.01-.57,0-.38.02-.76-.02-1.14,0-4.19-1-7.76-3.57-9.35-7.67-1.34-3.45-.96-8.82-.92-12.59,0-.32-.12-.85.19-1.04Z"/>
  <path class="cls-2" d="M85.27,21.58c3.64,4.01,2.47,10.59-2.28,13.12,0-2.96-1.37-6.43-3.42-8.56-.49-.81.78-2.52,1.37-3.24,1.23-1.49,2.47-2.44,4.33-1.32Z"/>
  <path class="cls-8" d="M64.73,35.27c.2,2.08.47,4.24,1.36,6.15.93,2,2.74,4.11,4.72,5.07.04.33-.54.19-.76.19-1.03,0-1.86-.2-2.85-.38,0-.09,0-.15-.1-.19-.63-.04-1.25-.42-1.8-.57-2.69-1.61-5.24-4.32-6.08-7.41-.46-1.68-.4-3.41-.38-5.13,1.89,1.27,3.63,1.99,5.89,2.28Z"/>
  <path class="cls-9" d="M63.78,45.15c.38.59.1.28-.26.4-4.54,1.54-9.03,5.18-9.44,10.33-.31,3.94.25,8.29,0,12.27-.03-.03-.36.11-.4-.11-.03-.2.2-.75.22-1.12.13-3.32-.11-6.67,0-9.99h-3.99c-.05,1.55.06,3.12,0,4.67,0,.25-.2.43-.2.46.09-2.48-.22-5.01.24-7.46,1.2-6.39,7.46-10.53,13.83-9.46Z"/>
  <path class="cls-11" d="M85.27,21.58c-.46.32-1.01-.2-1.57-.15-1.81.15-3.62,3.13-4.13,4.71-.33-.35-.88-.75-1.33-.95.35-2.23.03-4.13-.57-6.27.78.11,1.75-.08,2.56,0,1.71.17,3.89,1.39,5.04,2.66Z"/>
  <path class="cls-1" d="M22.53,93.63c-.32-.2-.19-.72-.19-1.04-.03-2.04-.19-4.24-.19-6.18,0-.13.2-.49.2-.84,0-6.01-.25-12.3,0-18.27,0-.23-.14-.71.19-.66v27Z"/>
  <path class="cls-2" d="M58.27,64.73c11.38-.74,19.15,11.38,13.6,21.49-4.83,8.79-17.14,10-23.68,2.38-5.22-6.09-4.43-15.19,1.53-20.44.05.24.75,1.54.95,1.81.98,1.34,5.4,5.63,6.78,6.63.09.06.05.3.07.31l.07.46c-3.44,4.87,5.84,5.97,3.57.31l.16-.39c-.08-.33.15-.41.38-.57,5.74-3.93-.27-7.82-3.24-10.92-.28-.32-.16-.69-.18-1.06Z"/>
  <path class="cls-15" d="M83.37,87.17c-2.15,0-4.31,0-6.46,0,1.71-3.84,2.09-8.04,1.33-12.17l.42.36c1.5,3.89,3.14,7.67,4.92,11.36l-.2.44Z"/>
  <path class="cls-6" d="M85.65,87.17c-.76,0-1.52,0-2.28,0-.22-.49-.57-.9-.8-1.39-1.56-3.35-2.93-7.3-4.34-10.78-.15-.37-.23-.77-.38-1.14,1.22.01,2.23.62,2.82,1.65,1.67,2.95,2.64,7.3,4.18,10.46.23.47.48.8.8,1.2Z"/>
  <path class="cls-14" d="M35.13,19.24c-.74-.74-1.06-5.88,1.33-5.43,1.58.3,1.51,3.4,1.24,4.59-.25,1.11-1.73,1.68-2.57.84Z"/>
  <path class="cls-14" d="M31.03,13.81c2.06-.37,2.05,3.5,1.68,4.73-.5,1.63-2.74,1.38-2.96-.48-.14-1.21-.28-3.97,1.29-4.25Z"/>
  <path class="cls-18" d="M27.09,51.24l-1.33,1.14c-.55-.75-2.07-2.37-2.38-3.05-.32-.72.91-1.15,1.42-1.52l2.29,3.42Z"/>
  <path class="cls-4" d="M73.81,35.11c2.71-.81,1.8,4.69-.59,3.17-.95-.6-.29-2.91.59-3.17Z"/>
  <path class="cls-14" d="M77.99,36.26c2.54-.75,1.9,3.19.52,3.39-2.08.29-1.59-3.07-.52-3.39Z"/>
  <path class="cls-13" d="M61.31,77.28c1.19,1.15.62,4.01-1.13,4.47-3.21.85-5.11-2.66-2.67-4.85.06.04,1.29.35,1.44.36.51.06,2.19-.14,2.36.02Z"/>
  <path class="cls-12" d="M81.89,92.54c1.06-1.01,2.97.69,1.77,1.86s-2.88-.8-1.77-1.86Z"/>
</svg>