<?xml version="1.0" encoding="UTF-8"?>
<svg id="Layer_4" data-name="Layer 4" xmlns="http://www.w3.org/2000/svg" viewBox="0 0 100 100">
  <defs>
    <style>
      .cls-1 {
        fill: #fecdbe;
      }

      .cls-2 {
        fill: #d1e3e6;
      }

      .cls-3 {
        fill: #eff4f6;
      }

      .cls-4 {
        fill: #4377c3;
      }

      .cls-5 {
        fill: #e95e42;
      }

      .cls-6 {
        fill: #7397d3;
      }

      .cls-7 {
        fill: #feaf9d;
      }

      .cls-8 {
        fill: #f0f5f6;
      }

      .cls-9 {
        fill: #f17a55;
      }
    </style>
  </defs>
  <path class="cls-9" d="M62.68,1.89c1.48,1.25,11.2,5.11,11.68,6.24.12.29.12.49.15.79.27,3.08.16,7.95,0,11.09-.72,14.02-8.97,27.63-21.22,34.44-.35,0-.72-.03-1.04-.2-3.17-1.68-7.01-5.26-9.43-7.95-9.32-10.37-11.54-21.85-11.07-35.24.11-3.26.21-3.64,3.19-4.99,2.91-1.53,6.13-3.03,9.15-4.17h18.58Z"/>
  <path class="cls-5" d="M44.1,1.89c-1.48,1.25-11.2,5.11-11.68,6.24-.12.29-.12.49-.15.79-.4,4.56-.15,11.77.63,16.28,2.14,12.32,9.79,22.85,20.4,29.25-2.58,1.43-2.36,1.8-5.12.34-9.52-5.02-17.21-14.99-20.12-25.3-1.99-7.05-1.67-14-1.56-21.27l.77-.73,11.02-5.6h5.82Z"/>
  <path class="cls-1" d="M32.27,88.99l-.38-.13c-.06-5.99-.03-11.97.09-17.95,1.08-4.18,8.3-5.39,11.92-5.76,3.61.28,6.59,2.55,9.49,2.99,2.75.42,6.49-.25,9.38,0,2.33.21,4.07,2.64,3.28,4.89.65,1.13-1.53,1.83-2.51,1.77-5.37.01-10.75-.04-16.12-.15-2.89.08-2.3,2.28-.95,2.31,5.73.1,11.49.14,17.21.02,1.23-.08,2.39-.49,3.44-1.13l23.78-14.23c.16-.05.32,0,.5.14,1.67,1.67,1.43,3.79-.02,5.52-8.51,6.03-16.45,13.59-24.96,19.53-1.72,1.2-3.37,2.01-5.51,2.18-9.54-.01-19.09,0-28.63,0Z"/>
  <path class="cls-6" d="M20.45,64.97c.11.31.21.62.28.93s.14.63.15.94c.22,9.07.36,18.19-.15,27.23l-.28.93c-.03.98.29,2.54-.93,2.92-1.1.34-5.67.11-7.14.08l-.38-.13v-35.68l.38-.23c1.47-.02,6.04-.26,7.14.08,1.22.38.9,1.94.93,2.92Z"/>
  <path class="cls-7" d="M91.4,61.78l-23.9,14.3c-1.22.75-2.33,1.18-3.78,1.29-5.56.42-11.65-.31-17.26-.02-2-.28-1.98-2.8.16-3,5.54-.5,12.24.66,17.66.01.82-.1,1.5-.53,1.78-1.32l20.8-11.96c1.63-.81,3.26-.59,4.54.7Z"/>
  <path class="cls-4" d="M12.38,61.96v36.04c-1.15-.02-3.66.44-3.94-1.04l.09-34.25c.47-1.12,2.77-.74,3.84-.76Z"/>
  <path class="cls-7" d="M43.91,65.15c-1.55.59-3.27.74-4.88,1.22-2.6.77-6.57,2.07-6.77,5.25v17.37s-5.81,0-5.81,0c-.52-6.47-.51-13.05,0-19.52,5.18-3.19,11.34-4.79,17.46-4.32Z"/>
  <path class="cls-8" d="M26.45,69.47c.08,6.49.07,13.03,0,19.52-.01,1.15.21,4.38-.14,5.21-.47,1.1-2.06.77-3.05.8-.15,0-.37-.04-.38-.13-.12-9.78-.12-19.89,0-29.67l.38-.23c.89.02,2.64-.25,3.09.75.26.57.09,2.92.1,3.75Z"/>
  <path class="cls-2" d="M23.26,64.97v30.03c-.94.02-1.88-.02-2.82,0,.31-9.65.31-20.39,0-30.03.94.01,1.88-.02,2.82,0Z"/>
  <path class="cls-8" d="M54.56,11.14c1.11,1.03-.24,7.25.79,8.31.9.92,6.02.25,7.6.48.45.06.8.28.93.74.53,1.79-.14,5.21.07,7.18-.05.17-.46.62-.61.7-.94.53-5.46,0-6.96.17-.71.08-1.31.45-1.41,1.21-.25,1.93.23,4.42.01,6.4-.03.31-.26,1.07-.51,1.23-.88.56-6.4,0-7.78.09-.17-.03-.26-.11-.37-.24-.8-.98-.15-5.9-.36-7.48-.1-.76-.7-1.13-1.41-1.21-1.94-.23-4.76.34-6.57,0-.29-.06-.84-.51-.94-.75-.53-1.28.13-5.71-.02-7.33.06-.17.16-.33.3-.45.74-.63,5.66-.13,7.03-.29.95-.11,1.48-.4,1.6-1.4.16-1.41-.45-6.76.5-7.43.22-.16.97-.33,1.28-.36,1.34-.13,3.91-.12,5.26,0,.39.03,1.27.19,1.54.43Z"/>
  <path class="cls-3" d="M14.2,69.5c1.99-.36,2.44,2.68.48,2.94-1.78.23-2.2-2.63-.48-2.94Z"/>
</svg>