<?xml version="1.0" encoding="UTF-8"?>
<svg id="Layer_4" data-name="Layer 4" xmlns="http://www.w3.org/2000/svg" viewBox="0 0 100 100">
  <defs>
    <style>
      .cls-1 {
        fill: #c5886f;
      }

      .cls-2 {
        fill: #505050;
      }

      .cls-3 {
        fill: #5cb2c7;
      }

      .cls-4 {
        fill: #3c3c3c;
      }

      .cls-5 {
        fill: #c63e3e;
      }

      .cls-6 {
        fill: #1c1c1c;
      }

      .cls-7 {
        fill: #1d8ea9;
      }

      .cls-8 {
        fill: #efefef;
      }

      .cls-9 {
        fill: #c53900;
      }

      .cls-10 {
        fill: #fefefe;
      }

      .cls-11 {
        fill: #d1d1d1;
      }
    </style>
  </defs>
  <path class="cls-8" d="M29.47,15.41c1.14-.42,2.3-.42,3.44,0,8.02-.54,16.06-.54,24.08,0,6.88,0,13.76,0,20.64,0v32.14c-3.26,2.5-6.48,2.2-10.32,2.26-.7-.35-.67-3.02,0-3.44l-.15.43H19.41l-.27-.43c.7.35.67,3.02,0,3.44,13.73-.74,27.55-.63,41.28,0v3.44l-.15.43H19.41l-.27-.43c.7.35.67,3.02,0,3.44l.15-.43h40.86l.27.43v3.44l-.15.43H19.41l-.27-.43c.7.35.67,3.02,0,3.44l.15-.43h40.86l.27.43c0,1.14,0,2.3,0,3.44,0,.17-.05.43-.15.43-12.86.14-26.16.25-39.07,0-.98.16-1.67.02-2.06-.43.7.35.67,3.02,0,3.44l.15-.43h40.86l.27.43c0,1.14-.02,2.3,0,3.44,0,.17-.05.43-.15.43-12.86.14-26.16.25-39.07,0-.98.16-1.67.02-2.06-.43.7.35.67,3.02,0,3.44,0-.17.05-.43.15-.43,13.47-.14,27.39-.14,40.86,0l.27.43c.04,1.25.03,2.18.22,3.44l-.15.43H19.41l-.26-.43c.7.35.67,3.02,0,3.44l.15-.43h41.94l.27.43c1.42,4.53,4,7.99,7.89,10.71,1.55,1.08,3.35,1.82,4.8,3.05-19.49-.07-38.99.1-58.48,0l-.43-.21V15.68l.43-.27c4.58-.04,9.18,0,13.76,0Z"/>
  <path class="cls-3" d="M67.31,53.25c3.7-.03,5.87.21,9.39-1.25.79-.33,3.98-2.18,4.44-2.14.59.05,3.53,1.83,4.45,2.2s3.06,1.19,3.97,1.19h8.71v26.34c0,8.7-9.24,13.84-15.7,17.52-2.88-1.57-6.07-3.36-8.7-5.36-4.32-3.29-6.76-7.2-7-12.77v-25.46s.44-.26.44-.26Z"/>
  <path class="cls-11" d="M15.71,15.41v82.56c-2.29-.01-4.59,0-6.88,0v-37.95c0-.63,3.44-6.03,3.44-6.67V15.41c1.14,0,2.3,0,3.44,0Z"/>
  <path class="cls-6" d="M8.83,18.85c.08,11.18-.06,22.36,0,33.54l-.46.43H2.4l-.46-.43c.06-11.18-.08-22.37,0-33.54.02-.17.07-.42.19-.43,1.3-.16,5.09-.17,6.38,0l.31.43Z"/>
  <path class="cls-2" d="M44.73,1.86c3.26.68,5.27,3.39,5.38,6.67h6.88v6.88c-8.02,0-16.06,0-24.08,0-.17-.02-.42-.07-.43-.19-.05-.74-.15-6.09,0-6.38.09-.17.26-.26.43-.31,1.14,0,2.3,0,3.44,0,.35-.7,3.02-.67,3.44,0l.45.31c.24,3.4,5.42,3.62,5.97.29.58-3.51-3.78-4.91-5.67-2.15l-.53.03c-.65-.94.5-2.56,1.21-3.34.91-1.03,2.1-1.86,3.52-1.82Z"/>
  <path class="cls-11" d="M60.43,49.81c-13.76.07-27.52-.05-41.28,0v-3.44h48.16v3.44c-2.29.03-4.59-.01-6.88,0Z"/>
  <path class="cls-7" d="M67.31,53.25v25.7c.7,10.3,7.34,12.74,14.74,17.51.28.18.63.18.53.64-.48.27-1.15.93-1.73.77-5.75-3.78-12.39-6.06-15.44-12.74-.49-1.07-1.54-4.05-1.54-5.13v-26.77c1.14,0,2.3,0,3.44,0Z"/>
  <path class="cls-11" d="M60.64,80.77c.17,1.18.5,2.3.86,3.44H19.15v-3.44h41.5Z"/>
  <rect class="cls-11" x="19.15" y="53.25" width="41.28" height="3.44"/>
  <rect class="cls-11" x="19.15" y="60.13" width="41.28" height="3.44"/>
  <path class="cls-11" d="M60.43,67.01c0,1.14,0,2.3,0,3.44H19.15v-3.44h41.28Z"/>
  <path class="cls-11" d="M60.43,73.89c.02,1.14-.04,2.3,0,3.44H19.15v-3.44h41.28Z"/>
  <path class="cls-6" d="M8.83,15.41c-.02.17-.07.42-.19.43-.77.06-6,.13-6.38,0l-.31-.43c.02-1.38-.24-3.64.24-4.82.81-2.01,3.37-2.68,5.12-1.51,2.14,1.43,1.49,4.08,1.52,6.33Z"/>
  <path class="cls-1" d="M8.83,52.39c-.99,2.14-1.95,4.41-3.12,6.46-.13.22.01.54-.42.43-.37-.1-2.87-6.06-3.33-6.88h6.88Z"/>
  <path class="cls-4" d="M44.73,1.86c-2.48,1.02-4.13,2.48-4.73,5.16.57.23.37,1.42-.22,1.51h-3.44c.05-4.61,3.87-7.61,8.39-6.67Z"/>
  <path class="cls-4" d="M32.91,8.53v6.88c-1.14,0-2.3,0-3.44,0v-6.88c1.14,0,2.3.01,3.44,0Z"/>
  <path class="cls-9" d="M8.83,15.41c.02,1.14,0,2.3,0,3.44H1.95c0-1.14-.02-2.3,0-3.44h6.88Z"/>
  <rect class="cls-11" x="19.15" y="39.49" width="48.16" height="3.44"/>
  <rect class="cls-11" x="36.35" y="32.61" width="30.96" height="3.44"/>
  <polygon class="cls-5" points="27.75 22.29 27.75 27.45 32.91 27.45 32.91 30.89 27.75 30.89 27.75 36.05 24.31 36.05 24.31 30.89 19.15 30.89 19.15 27.45 24.31 27.45 24.31 22.29 27.75 22.29"/>
  <path class="cls-8" d="M79.14,80.77l-6.67-6.99,3.36-3.32,3.6,3.19,6.88-6.63c.47.51,3.41,3.12,3.35,3.5l-10.52,10.24Z"/>
  <path class="cls-10" d="M39.79,8.53c0-.46.11-1.05.22-1.51,1.99-3.43,7.13-1.99,6.65,2.02-.47,3.98-6.79,3.93-6.86-.52Z"/>
</svg>