<?xml version="1.0" encoding="UTF-8"?>
<svg id="Layer_4" data-name="Layer 4" xmlns="http://www.w3.org/2000/svg" viewBox="0 0 656 504">
  <defs>
    <style>
      .cls-1 {
        fill: #2b478b;
      }

      .cls-2 {
        fill: #d6e7f0;
      }

      .cls-3 {
        fill: #3a384d;
      }

      .cls-4 {
        fill: #f2e5de;
      }

      .cls-5 {
        fill: #2e5b9a;
      }

      .cls-6 {
        fill: #9bd6e8;
      }

      .cls-7 {
        fill: #fff;
      }

      .cls-8, .cls-9, .cls-10, .cls-11, .cls-12 {
        opacity: .5;
      }

      .cls-8, .cls-13 {
        fill: #efcbab;
      }

      .cls-9 {
        fill: #c0d8fb;
      }

      .cls-14, .cls-12 {
        fill: #bdccd4;
      }

      .cls-15 {
        fill: #fca96a;
      }

      .cls-16 {
        opacity: .8;
      }

      .cls-17 {
        fill: #f2f2f2;
      }

      .cls-18 {
        fill: #e9f3fe;
        opacity: .4;
      }

      .cls-19 {
        fill: #f5ce5c;
      }

      .cls-10, .cls-20 {
        fill: #afcdfb;
      }

      .cls-21 {
        fill: #7ec1d6;
      }

      .cls-22 {
        fill: #63acc2;
      }

      .cls-23 {
        fill: #ebf3fa;
      }

      .cls-24 {
        fill: #9cd499;
      }

      .cls-25 {
        fill: #ef7e29;
      }

      .cls-26 {
        fill: #d54a41;
      }

      .cls-27 {
        fill: #699ff0;
      }

      .cls-28, .cls-29 {
        fill: #9ec8ff;
      }

      .cls-29 {
        opacity: .7;
      }

      .cls-30 {
        fill: #f37168;
      }

      .cls-31 {
        fill: #f09959;
      }

      .cls-32 {
        fill: #58556e;
      }

      .cls-11 {
        fill: #ffe2cc;
      }

      .cls-33 {
        fill: #e38540;
      }

      .cls-34 {
        fill: #3e6bab;
      }

      .cls-35 {
        fill: #303c60;
      }

      .cls-36 {
        fill: #d8661a;
      }

      .cls-37 {
        fill: #edc055;
      }

      .cls-38 {
        fill: #f7e0cb;
      }

      .cls-39 {
        fill: #74b570;
      }

      .cls-40 {
        fill: #f99746;
      }

      .cls-41 {
        fill: #fcecdb;
      }

      .cls-42 {
        fill: #7a4e34;
      }

      .cls-43 {
        fill: #93b1c2;
      }
    </style>
  </defs>
  <path class="cls-23" d="M64.71,457.67s-44.21-56.39-22.36-165.31c13.74-68.51,71.47-102.45,148.86-99.21,26.6,1.11,69.89-32.08,132.08-72.86,133.03-87.22,325.45-50.18,279.4,146.01-22.29,94.94,70.1,96.46,24.18,191.37H64.71Z"/>
  <g>
    <g>
      <path class="cls-24" d="M445.21,322.34c36.2-42.77,44.13-60.96,43.25-113.39-.88-52.42,38.66-126.29,17.61-110.06-21.04,16.23-50.62,70.37-37.99,112.17,12.63,41.8,9.65,55.55,5.21,67.05-4.44,11.5-28.69,40.75-28.69,40.75l.6,3.47Z"/>
      <path class="cls-39" d="M467.3,294.06c.12-.18.24-.35.35-.52,1.74-4.21,10.58-25.97,11.32-36.13.83-11.28-8.97-37.38-3.1-59.69,5.87-22.31,6.18-42.04,7.75-57.36,2.08-20.23,18.32-39.37,28.26-42.9-.09-.18-.2-.33-.32-.45l-2.66.06c-.79.37-1.72.97-2.83,1.83-21.04,16.23-50.62,70.37-37.99,112.17,12.63,41.8,9.65,55.55,5.21,67.05-1.2,3.1-3.84,7.5-7.05,12.26l1.05,3.68Z"/>
      <path class="cls-24" d="M438.48,382.38c25.2-60.15,29.04-82.39,29.57-136.19.53-53.8,123.85-141.06,115.29-122.27-8.55,18.8-32.26,64.85-66.02,88.28-33.76,23.43-42.88,47.77-45.72,75.48-2.83,27.71-26.32,87.33-26.32,87.33l-6.06,10.18-.74-2.81Z"/>
      <path class="cls-39" d="M449.44,357.75c-.09,0-.18-.01-.27-.04-.46-.15-.7-.64-.55-1.1.06-.19,6.33-19.16,10.53-35,4.2-15.85,7.74-44.06,7.83-54.08.08-9.16,5.32-38.43,28.28-63.56,11.42-12.5,19.83-20.05,31.48-30.51,11.5-10.33,25.82-23.18,49.32-46.32.34-.34.89-.33,1.23,0,.34.34.33.89,0,1.23-23.53,23.16-37.86,36.03-49.38,46.37-11.61,10.42-19.99,17.95-31.36,30.39-22.59,24.73-27.75,53.43-27.83,62.4-.09,10.1-3.66,38.54-7.89,54.51-4.21,15.9-10.49,34.91-10.56,35.11-.12.37-.46.6-.83.6Z"/>
      <path class="cls-24" d="M470.95,409.05c8.34-42.78,7.18-21.42-6.11-81.76-15.21-69.06,65.91-121.88,76.14-96.44,10.23,25.44,17.76,103.17,12.52,100.19-5.24-2.97-35.1-77.2-36.36-74.31-1.26,2.89-51.63,23.39-51.92,48.88-.29,25.49,14.47,67.35,14.47,67.35l-3.82,37.04-4.92-.94Z"/>
      <path class="cls-39" d="M475.97,409.73c-.05,0-.11,0-.16-.02l-4.92-.94c-.23-.04-.43-.18-.56-.37-.13-.19-.18-.43-.13-.65.96-4.94,1.82-9.1,2.5-12.44q3.71-18.09-.55-34.25c-1.93-7.33-4.58-17.37-8.15-33.58-2.68-12.16-2.54-24.49.4-36.66,2.59-10.73,7.29-21.12,13.95-30.87,11.43-16.72,28.3-30.46,42.98-34.99,10.3-3.18,17.76-1.15,20.46,5.57,4.35,10.82,8.75,32.54,11.79,58.12,1.27,10.73,2.13,20.9,2.41,28.62.47,12.83-.78,13.92-1.31,14.38-.46.4-1.06.46-1.6.15-2.92-1.66-11.24-19.98-22.68-45.68-5.57-12.51-11.3-25.41-13.16-28.23-.97.8-3,1.94-6.98,4.15-14.27,7.91-43.96,24.38-44.17,43.58-.28,25.04,14.27,66.63,14.42,67.05.04.12.06.25.05.38l-3.72,35.91c-.03.24-.15.46-.35.61-.15.11-.33.17-.52.17ZM472.07,407.23l3.13.6,3.61-34.77c-1.07-3.08-14.73-42.97-14.45-67.46.23-20.21,30.51-37.01,45.07-45.08,3.34-1.85,6.5-3.61,6.95-4.18.17-.35.5-.56.88-.56.01,0,.02,0,.04,0,.72,0,1.26.15,5.51,9.22,2.5,5.34,5.76,12.66,9.2,20.41,4.37,9.83,9.33,20.97,13.42,29.56,5.29,11.11,7.42,14.29,8.26,15.11.31-.76.93-3.5.56-13.06-.29-7.72-1.15-17.83-2.42-28.46-3.02-25.31-7.37-46.76-11.64-57.39-2.32-5.78-9.01-7.44-18.34-4.56-25.58,7.9-67.4,49.37-56.15,100.49,3.56,16.17,6.21,26.19,8.14,33.51q4.37,16.56.58,35.05c-.68,3.31-1.44,7.03-2.33,11.57Z"/>
      <g>
        <path class="cls-39" d="M446,325.37l.58-.56c.06-5.49.35-10.89.97-15.83-1.81,9.17-1.55,16.39-1.55,16.39Z"/>
        <path class="cls-39" d="M470.59,287.29c-1.79,3.53-3.03,7.26-3.86,10.98,8.62-21.23,47.42-37.59,50.12-40.7l.5-.8c-13.56-5.14-37.55,12.4-46.77,30.51Z"/>
      </g>
      <path class="cls-39" d="M553.72,329.95c-.42,0-.79-.31-.86-.74l-3.58-23.43c-.23-1.49-.46-3.01-.69-4.54-3.33-21.9-7.47-49.16-13.72-61.67-1.01-2.01-5.96-5.06-13.4-5.2-10.12-.19-30.15,5.03-50.51,42.17-.23.42-.76.58-1.18.34-.42-.23-.58-.76-.34-1.18,20.79-37.94,41.56-43.27,52.07-43.07,8.25.16,13.69,3.7,14.92,6.16,6.38,12.75,10.37,39.01,13.88,62.18.23,1.53.46,3.05.69,4.54l3.58,23.43c.07.47-.25.92-.73.99-.04,0-.09,0-.13,0Z"/>
      <path class="cls-39" d="M537.19,292.47c-.06,0-.12,0-.18-.02-.47-.1-.77-.56-.67-1.03.05-.22,4.58-22.45.79-46.6-.07-.47.25-.92.72-.99.48-.07.92.25.99.72,3.83,24.47-.76,47-.81,47.22-.09.41-.45.69-.85.69Z"/>
      <path class="cls-39" d="M531.49,277.94c-.06,0-.12,0-.18-.02-.47-.1-.77-.56-.67-1.03.04-.2,4.28-20.56,4.14-37.71,0-.48.38-.87.86-.88.48,0,.87.38.88.86.14,17.33-4.13,37.87-4.18,38.08-.09.41-.45.69-.85.69Z"/>
      <path class="cls-39" d="M527.05,175.15c-.42,0-.79-.3-.86-.73-.08-.47.24-.92.71-1,.2-.03,19.73-3.45,34.94-18.96.34-.34.89-.35,1.23-.01.34.34.35.89.01,1.23-15.62,15.93-35.69,19.43-35.9,19.46-.05,0-.1.01-.14.01Z"/>
      <path class="cls-39" d="M510.14,193.28c-1.28,0-2.01-.05-2.14-.06-.48-.04-.84-.46-.8-.94.04-.48.46-.84.94-.8.15.01,15.04,1.06,35.59-7.58.44-.19.95.02,1.14.46.19.44-.02.95-.46,1.14-16.63,6.99-29.38,7.78-34.26,7.78Z"/>
      <path class="cls-39" d="M498.1,211.97c-4.68,0-7.1-.86-7.29-.93-.45-.17-.68-.67-.51-1.12.17-.45.67-.68,1.12-.51.09.03,9.58,3.33,28.38-3.78.45-.17.95.06,1.12.51.17.45-.06.95-.51,1.12-9.98,3.78-17.39,4.72-22.31,4.72Z"/>
    </g>
    <g>
      <path class="cls-24" d="M231.57,439.65c-.63-1.92-44.75-58.15-42.67-104.39,1.46-32.38-8.19-67.48-8.19-67.48,0,0,31.34,23.49,32.3,74.85.59,31.61-.4,40.75,1.61,49.44,2.01,8.69,20.13,49.51,20.13,49.51l-3.19-1.93Z"/>
      <path class="cls-39" d="M234.76,442.45c-.15,0-.31-.04-.45-.13l-3.19-1.93c-.17-.1-.29-.26-.36-.44-.14-.28-1.01-1.53-2.01-2.97-4.51-6.46-15.06-21.61-24.35-40.33-11.64-23.46-17.14-44.13-16.36-61.44,1.44-31.86-8.06-66.86-8.16-67.21-.1-.36.04-.74.35-.95.31-.21.71-.2,1.01.02.33.24,8.05,6.11,16,18.39,7.32,11.31,16.15,30.4,16.65,57.14.2,10.69.22,18.75.23,25.22.03,12.62.04,18.39,1.35,24.04,1.97,8.51,19.9,48.95,20.08,49.35.15.35.07.75-.22,1.01-.16.14-.37.22-.58.22ZM230.75,439.92s0,.02,0,.02c0,0,0-.02,0-.02ZM232.24,439.04l.61.37c-4.01-9.11-17.33-39.63-19.07-47.14-1.35-5.85-1.37-11.67-1.4-24.43-.02-6.47-.03-14.51-.23-25.19-.49-26.28-9.15-45.04-16.33-56.16-5.38-8.33-10.76-13.73-13.59-16.28,2.18,8.82,8.75,38.05,7.54,65.09-1.2,26.64,12.39,60.52,40.4,100.7,1.29,1.85,1.83,2.63,2.06,3.04Z"/>
      <path class="cls-24" d="M217.34,430.93c1.66,3.02,3.12,8.24,4.35,14.15h2.92c-10.12-49.67-31.29-78.82-63.76-100.92-40.21-27.37-42.91-35.57-42.91-35.57,0,0,13.72,61.76,37.36,80.69,23.64,18.93,56.17,31,62.03,41.64Z"/>
      <path class="cls-24" d="M200.1,439.28c3.96.16,7.67,2.5,10.98,5.8h6.81c-7.48-12.82-17.25-23.4-29.04-23.49-29.76-.21-35.69,7.49-56.14,6.88-14.59-.43-26.12-3.53-26.12-3.53,0,0,10.09,18.32,37.19,22.87,19.16,3.22,41.99-9.12,56.33-8.54Z"/>
      <path class="cls-39" d="M225.51,451.21c-.4,0-.76-.27-.85-.68-4.71-20.79-12.51-39-22.57-52.64-12.8-17.36-25.58-26.77-37.93-35.86-11.72-8.62-22.79-16.77-32.25-30.82-.27-.4-.16-.94.24-1.21.4-.27.94-.16,1.21.24,9.3,13.8,20.25,21.86,31.84,30.4,12.46,9.17,25.35,18.66,38.3,36.23,10.34,14.03,18.04,31.96,22.86,53.29.11.47-.19.93-.66,1.04-.06.01-.13.02-.19.02Z"/>
      <path class="cls-39" d="M222.74,454.72c-.31,0-.61-.16-.76-.45-9.32-17.06-18.45-26.36-28.74-29.25-9.08-2.55-17.88.21-27.2,3.13-2.64.83-5.38,1.69-8.12,2.41-24.01,6.37-36.42,2.04-36.94,1.85-.45-.16-.68-.66-.52-1.11.16-.45.66-.68,1.11-.52.12.04,12.48,4.32,35.9-1.9,2.7-.72,5.42-1.57,8.04-2.39,9.57-3,18.61-5.84,28.19-3.14,10.77,3.03,20.24,12.59,29.79,30.09.23.42.08.95-.35,1.18-.13.07-.28.11-.42.11Z"/>
      <path class="cls-39" d="M178.96,373.04c-.15,0-.3-.04-.44-.12-.15-.09-15.5-8.91-35.36-10.11-.48-.03-.84-.44-.82-.92.03-.48.44-.85.92-.82,20.3,1.23,35.98,10.25,36.13,10.34.41.24.55.77.31,1.19-.16.28-.45.43-.75.43Z"/>
      <path class="cls-39" d="M205.78,402.35c-.26,0-.51-.11-.68-.33-12.35-15.77-24.94-18.56-52.24-23.38-.47-.08-.79-.53-.71-1.01s.53-.79,1.01-.71c27.76,4.9,40.56,7.75,53.31,24.02.3.38.23.92-.15,1.22-.16.12-.35.18-.54.18Z"/>
    </g>
    <g>
      <path class="cls-24" d="M434.24,454.41c33.75-66.77,69.36-93.47,116.93-103.61,47.57-10.14,53.17-16.72,53.17-16.72,0,0-36.04,52-65.08,60.59-29.04,8.59-63.71,7.48-73.17,15.12-9.45,7.64-26.8,41.45-26.8,41.45l-5.85,4.57.8-1.41Z"/>
      <path class="cls-24" d="M449.96,477.93c-.29-1.24,14.18-68.86,43.92-70.12,29.74-1.26,35.93,6.22,56.34,4.89,14.56-.95,25.98-4.46,25.98-4.46,0,0-9.44,18.67-36.35,24.17-19.03,3.89-42.29-7.63-56.59-6.54-14.3,1.09-24.38,30.57-24.38,30.57l-3.89,15.46-5.03,6.02Z"/>
      <path class="cls-39" d="M436.09,451.21c-.12,0-.24-.02-.36-.08-.44-.2-.63-.71-.43-1.15.05-.11,5.11-11.23,14.55-24.9,8.72-12.63,23.07-30.1,41.94-41.61,18.64-11.38,34.15-15.29,49.15-19.07,13.96-3.52,27.14-6.84,40.97-16.11.4-.27.94-.16,1.21.24.27.4.16.94-.24,1.21-14.07,9.43-27.4,12.79-41.51,16.35-14.88,3.75-30.26,7.63-48.67,18.87-18.59,11.35-32.77,28.61-41.39,41.09-9.36,13.55-14.37,24.55-14.42,24.66-.15.32-.46.51-.79.51Z"/>
      <path class="cls-39" d="M453.89,458.48c-.11,0-.21-.02-.32-.06-.45-.18-.67-.68-.49-1.13,10.2-25.84,20.52-40.51,32.45-46.17,10.68-5.07,20.94-2.24,31.81.75,2.65.73,5.4,1.49,8.12,2.11,23.69,5.4,35.82.68,35.94.63.45-.18.95.04,1.13.48.18.45-.04.95-.48,1.13-.51.21-12.76,4.97-36.98-.55-2.76-.63-5.53-1.39-8.2-2.13-10.54-2.9-20.5-5.64-30.6-.85-11.51,5.46-21.54,19.83-31.57,45.24-.14.34-.46.55-.81.55Z"/>
      <path class="cls-39" d="M560.81,374.79c-.09,0-.19-.01-.28-.05-18.85-6.39-36.39-4.03-36.56-4-.48.06-.92-.26-.98-.74-.07-.48.26-.92.74-.98.18-.03,18.11-2.45,37.36,4.08.45.15.7.65.54,1.1-.12.36-.46.59-.82.59Z"/>
      <path class="cls-39" d="M487.94,387.75c-.3,0-.6-.16-.76-.44-.24-.42-.09-.95.32-1.19,17.95-10.25,30.88-8.05,58.43-2.09.47.1.77.56.67,1.03-.1.47-.56.77-1.03.67-27.1-5.86-39.81-8.03-57.2,1.9-.14.08-.28.11-.43.11Z"/>
    </g>
    <g>
      <path class="cls-43" d="M257.15,119.54h158.47c0-10.79-8.75-19.54-19.54-19.54h-119.39c-10.79,0-19.54,8.75-19.54,19.54h0Z"/>
      <rect class="cls-14" x="205.7" y="110.12" width="258.33" height="347.5"/>
      <rect class="cls-7" x="216.71" y="124.94" width="236.29" height="317.86"/>
      <g>
        <rect class="cls-29" x="235.76" y="190.23" width="201.91" height="5.77" rx="2.79" ry="2.79"/>
        <rect class="cls-29" x="235.76" y="201.44" width="201.91" height="5.77" rx="2.79" ry="2.79"/>
        <path class="cls-29" d="M393.24,233.36h-154.67c-1.55,0-2.81-1.27-2.81-2.81s1.27-2.81,2.81-2.81h154.67c1.55,0,2.81,1.27,2.81,2.81s-1.27,2.81-2.81,2.81Z"/>
        <path class="cls-29" d="M393.24,243.43h-154.67c-1.55,0-2.81-1.27-2.81-2.81s1.27-2.81,2.81-2.81h154.67c1.55,0,2.81,1.27,2.81,2.81s-1.27,2.81-2.81,2.81Z"/>
        <path class="cls-29" d="M393.24,272.57h-154.67c-1.55,0-2.81-1.27-2.81-2.81s1.27-2.81,2.81-2.81h154.67c1.55,0,2.81,1.27,2.81,2.81s-1.27,2.81-2.81,2.81Z"/>
        <path class="cls-29" d="M393.24,282.65h-154.67c-1.55,0-2.81-1.27-2.81-2.81s1.27-2.81,2.81-2.81h154.67c1.55,0,2.81,1.27,2.81,2.81s-1.27,2.81-2.81,2.81Z"/>
        <path class="cls-29" d="M393.24,318.73h-154.67c-1.55,0-2.81-1.27-2.81-2.81s1.27-2.81,2.81-2.81h154.67c1.55,0,2.81,1.27,2.81,2.81s-1.27,2.81-2.81,2.81Z"/>
        <path class="cls-29" d="M393.24,328.81h-154.67c-1.55,0-2.81-1.27-2.81-2.81s1.27-2.81,2.81-2.81h154.67c1.55,0,2.81,1.27,2.81,2.81s-1.27,2.81-2.81,2.81Z"/>
        <path class="cls-29" d="M393.24,354.78h-154.67c-1.55,0-2.81-1.27-2.81-2.81s1.27-2.81,2.81-2.81h154.67c1.55,0,2.81,1.27,2.81,2.81s-1.27,2.81-2.81,2.81Z"/>
        <path class="cls-29" d="M393.24,364.86h-154.67c-1.55,0-2.81-1.27-2.81-2.81s1.27-2.81,2.81-2.81h154.67c1.55,0,2.81,1.27,2.81,2.81s-1.27,2.81-2.81,2.81Z"/>
        <path class="cls-29" d="M441.17,415.4h-154.67c-1.55,0-2.81-1.27-2.81-2.81s1.27-2.81,2.81-2.81h154.67c1.55,0,2.81,1.27,2.81,2.81s-1.27,2.81-2.81,2.81Z"/>
        <path class="cls-29" d="M441.17,429.44h-154.67c-1.55,0-2.81-1.27-2.81-2.81s1.27-2.81,2.81-2.81h154.67c1.55,0,2.81,1.27,2.81,2.81s-1.27,2.81-2.81,2.81Z"/>
      </g>
      <g>
        <g class="cls-16">
          <path class="cls-28" d="M419.69,247.16h-8.99c-3.91,0-7.08-3.18-7.08-7.08v-8.99c0-3.91,3.18-7.08,7.08-7.08h8.99c3.91,0,7.08,3.18,7.08,7.08v8.99c0,3.91-3.18,7.08-7.08,7.08ZM410.7,228.06c-1.67,0-3.03,1.36-3.03,3.03v8.99c0,1.67,1.36,3.03,3.03,3.03h8.99c1.67,0,3.03-1.36,3.03-3.03v-8.99c0-1.67-1.36-3.03-3.03-3.03h-8.99Z"/>
        </g>
        <g class="cls-16">
          <path class="cls-28" d="M419.69,285.35h-8.99c-3.91,0-7.08-3.18-7.08-7.08v-8.99c0-3.91,3.18-7.08,7.08-7.08h8.99c3.91,0,7.08,3.18,7.08,7.08v8.99c0,3.91-3.18,7.08-7.08,7.08ZM410.7,266.26c-1.67,0-3.03,1.36-3.03,3.03v8.99c0,1.67,1.36,3.03,3.03,3.03h8.99c1.67,0,3.03-1.36,3.03-3.03v-8.99c0-1.67-1.36-3.03-3.03-3.03h-8.99Z"/>
        </g>
        <path class="cls-30" d="M415.75,241.82s-.06,0-.08,0c-.51-.02-.99-.27-1.3-.68l-6.46-8.42c-.58-.76-.44-1.85.32-2.44.76-.58,1.85-.44,2.44.32l5.21,6.79,14.32-15.35c.66-.7,1.76-.74,2.46-.08.7.66.74,1.76.08,2.46l-15.73,16.85c-.33.35-.79.55-1.27.55Z"/>
        <path class="cls-30" d="M415.75,280.01s-.06,0-.08,0c-.51-.02-.99-.27-1.3-.68l-6.46-8.42c-.58-.76-.44-1.85.32-2.44.76-.58,1.85-.44,2.44.32l5.21,6.79,14.32-15.35c.66-.7,1.76-.74,2.46-.08.7.66.74,1.76.08,2.46l-15.73,16.85c-.33.35-.79.55-1.27.55Z"/>
        <path class="cls-28" d="M419.69,330.34h-8.99c-3.75,0-6.79-3.05-6.79-6.79v-8.99c0-3.75,3.05-6.79,6.79-6.79h8.99c3.75,0,6.79,3.05,6.79,6.79v8.99c0,3.75-3.05,6.79-6.79,6.79ZM410.7,311.25c-1.83,0-3.32,1.49-3.32,3.32v8.99c0,1.83,1.49,3.32,3.32,3.32h8.99c1.83,0,3.32-1.49,3.32-3.32v-8.99c0-1.83-1.49-3.32-3.32-3.32h-8.99Z"/>
        <g class="cls-16">
          <path class="cls-28" d="M419.69,368.82h-8.99c-3.91,0-7.08-3.18-7.08-7.08v-8.99c0-3.91,3.18-7.08,7.08-7.08h8.99c3.91,0,7.08,3.18,7.08,7.08v8.99c0,3.91-3.18,7.08-7.08,7.08ZM410.7,349.73c-1.67,0-3.03,1.36-3.03,3.03v8.99c0,1.67,1.36,3.03,3.03,3.03h8.99c1.67,0,3.03-1.36,3.03-3.03v-8.99c0-1.67-1.36-3.03-3.03-3.03h-8.99Z"/>
        </g>
        <path class="cls-30" d="M415.75,325.29s-.06,0-.08,0c-.51-.02-.99-.27-1.3-.68l-6.46-8.42c-.58-.76-.44-1.85.32-2.44.76-.58,1.85-.44,2.44.32l5.21,6.79,14.32-15.35c.66-.7,1.76-.74,2.46-.08.7.66.74,1.76.08,2.46l-15.73,16.85c-.33.35-.79.55-1.27.55Z"/>
        <path class="cls-30" d="M415.75,363.48s-.06,0-.08,0c-.51-.02-.99-.27-1.3-.68l-6.46-8.42c-.58-.76-.44-1.85.32-2.44.76-.58,1.85-.44,2.44.32l5.21,6.79,14.32-15.35c.66-.7,1.76-.74,2.46-.08.7.66.74,1.76.08,2.46l-15.73,16.85c-.33.35-.79.55-1.27.55Z"/>
      </g>
      <path class="cls-43" d="M368.44,133.5h-67.16c-15.25,0-27.61-12.36-27.61-27.61,0-3.25,2.64-5.89,5.89-5.89h110.61c3.25,0,5.89,2.64,5.89,5.89,0,15.25-12.36,27.61-27.61,27.61Z"/>
      <path class="cls-2" d="M283.72,102.09h105.67c2.2,0,3.98,1.79,3.98,3.98v.18c0,10.31-8.37,18.68-18.68,18.68h-76.27c-10.31,0-18.68-8.37-18.68-18.68v-.18c0-2.2,1.79-3.98,3.98-3.98Z"/>
      <rect class="cls-29" x="227.76" y="139.07" width="214.2" height="38.38"/>
      <g>
        <path class="cls-7" d="M267.44,149.28v18.79h-4.27v-18.79h4.27Z"/>
        <path class="cls-7" d="M271.12,168.08v-18.79h4.96l3.9,6.89c1.12,1.98,2.23,4.32,3.07,6.44h.08c-.28-2.48-.36-5.02-.36-7.84v-5.49h3.9v18.79h-4.46l-4.02-7.25c-1.12-2.01-2.34-4.43-3.26-6.64l-.08.03c.11,2.48.17,5.13.17,8.2v5.66h-3.9Z"/>
        <path class="cls-7" d="M290.5,163.7c1.14.59,2.9,1.17,4.71,1.17,1.95,0,2.98-.81,2.98-2.04s-.89-1.84-3.15-2.65c-3.12-1.09-5.16-2.82-5.16-5.55,0-3.21,2.68-5.66,7.11-5.66,2.12,0,3.68.45,4.8.95l-.95,3.43c-.75-.36-2.09-.89-3.93-.89s-2.73.84-2.73,1.81c0,1.2,1.06,1.73,3.49,2.65,3.32,1.23,4.88,2.96,4.88,5.6,0,3.15-2.43,5.83-7.58,5.83-2.15,0-4.27-.56-5.33-1.14l.86-3.51Z"/>
        <path class="cls-7" d="M309.66,149.28v10.82c0,3.23,1.23,4.88,3.4,4.88s3.46-1.56,3.46-4.88v-10.82h4.24v10.54c0,5.8-2.93,8.56-7.84,8.56s-7.53-2.62-7.53-8.62v-10.48h4.27Z"/>
        <path class="cls-7" d="M324.43,149.53c1.37-.22,3.4-.39,5.66-.39,2.79,0,4.74.42,6.08,1.48,1.12.89,1.73,2.2,1.73,3.93,0,2.4-1.7,4.04-3.32,4.63v.08c1.31.53,2.04,1.78,2.51,3.51.59,2.12,1.17,4.57,1.53,5.3h-4.35c-.31-.53-.75-2.06-1.31-4.38-.5-2.34-1.31-2.98-3.04-3.01h-1.28v7.39h-4.21v-18.54ZM328.64,157.62h1.67c2.12,0,3.37-1.06,3.37-2.7,0-1.73-1.17-2.59-3.12-2.62-1.03,0-1.62.08-1.92.14v5.19Z"/>
        <path class="cls-7" d="M345.6,163.25l-1.34,4.82h-4.41l5.74-18.79h5.58l5.83,18.79h-4.57l-1.45-4.82h-5.38ZM350.36,160.07l-1.17-3.99c-.33-1.12-.67-2.51-.95-3.63h-.06c-.28,1.12-.56,2.54-.86,3.63l-1.12,3.99h4.15Z"/>
        <path class="cls-7" d="M359.51,168.08v-18.79h4.96l3.9,6.89c1.12,1.98,2.23,4.32,3.07,6.44h.08c-.28-2.48-.36-5.02-.36-7.84v-5.49h3.9v18.79h-4.46l-4.02-7.25c-1.12-2.01-2.34-4.43-3.26-6.64l-.08.03c.11,2.48.17,5.13.17,8.2v5.66h-3.9Z"/>
        <path class="cls-7" d="M392.55,167.55c-.78.39-2.54.81-4.82.81-6.5,0-9.84-4.04-9.84-9.4,0-6.41,4.57-9.98,10.26-9.98,2.2,0,3.88.45,4.63.84l-.86,3.37c-.86-.36-2.06-.7-3.57-.7-3.37,0-6,2.04-6,6.22,0,3.76,2.23,6.13,6.02,6.13,1.28,0,2.7-.28,3.54-.61l.64,3.32Z"/>
        <path class="cls-7" d="M406.52,160.13h-6.92v4.46h7.72v3.49h-11.99v-18.79h11.6v3.49h-7.33v3.9h6.92v3.46Z"/>
      </g>
      <path class="cls-17" d="M334.54,105.23h51.93c1.54,0,2.79,1.25,2.79,2.79v.7c0,1.54-1.25,2.79-2.79,2.79h-51.93c-1.54,0-2.79-1.25-2.79-2.79v-.7c0-1.54,1.25-2.79,2.79-2.79Z"/>
    </g>
    <path class="cls-12" d="M550.27,478.08c-79.3-16.32-145.16-8.94-167.96-10.33-22.8-1.39-154.93-2.8-182.85,6.74-27.92,9.55,19.59,22.57,74.7,16.52,55.11-6.05,89-4.82,176.74,1.54,87.73,6.37,110.21-12.25,99.37-14.48Z"/>
    <g>
      <g>
        <path class="cls-26" d="M278.03,241.09c11.9,8.6,37.48,12.35,45.63,12.79s-4.53,22.93-4.53,22.93c0,0-21.93,2.65-32.29,0-10.36-2.65-8.82-35.71-8.82-35.71Z"/>
        <path class="cls-35" d="M257.6,464.04c.15,5.88,3.5,9.38,8.96,13.45,5.73,4.27,6.03,4.74-1.91,5.78-7.94,1.05-10.14-2.55-15.43-4.09-5.29-1.54-1.91-5.29-2.2-8.82-.29-3.53-.8-9.26-.8-9.26l11.38,2.94Z"/>
        <path class="cls-35" d="M303.9,461.1s3.53,4.08,8.23,8.14c4.7,4.06,16.61,5.44,10.88,6.95-5.73,1.51-12.15.7-18.05,1.55-5.9.85-11.05.03-11.49-1.55s0-12.74,0-12.74l10.43-2.35Z"/>
        <path class="cls-32" d="M320.14,203.9c7.38-7,20.94,1.93,22.22,7.86,3.29,15.27,4.74,31.06.74,37.27-4,6.2-39.65,10.11-39.21,7.91.43-2.2.53-15.91,6.44-22.61,5.9-6.7,3.22-13.18,4.3-19.37,1.3-7.45,4.33-9.93,5.51-11.05Z"/>
        <path class="cls-21" d="M304.9,248.54c-2.51,17.8-4.94,51.3-12.21,59.46-7.27,8.16-11.32,27.61-11.32,27.61,0,0,23.51-12.84,33.13-44.41,3.02-9.9-4.35-33.03-6.13-35.23-1.79-2.2-3.46-7.43-3.46-7.43Z"/>
        <g>
          <path class="cls-31" d="M355.85,297.42c-1.45,1.76-5.35,10.31-7.32,10.31-6.72,0-7.22,2.64-10.87,4.57-4.68,2.48-3.69,6.28-3.36,6.5.33.22,10.3-1.53,13.65-3.71,2.78-1.81,4.75-2.8,6.11-4.78,1.36-1.98,9.02-7.72,9.02-7.72l-7.23-5.18Z"/>
          <path class="cls-6" d="M349.05,244.63c6.8,4.11,8.05,7.93,14.74,19.54,6.69,11.61,7.86,15.8,10.51,19.99,2.65,4.19,3.53,9.04-2.06,14.33-5.33,5.05-7.82,7.12-10.75,6.33-1.97-.53-3.53-6.28-6.27-5.24-2.74,1.04,2.11-7.04,4.61-9.32,1.36-1.24,1.91-1.15,1.47-1.71-.44-.57-8.82-6.81-15.8-15.85-6.98-9.04,3.56-28.06,3.56-28.06Z"/>
          <g>
            <path class="cls-21" d="M370.4,288.05c-3.31-1.49-7.45-1.27-10.48-.7.78.66,1.27,1.07,1.37,1.19.44.57-.11.47-1.47,1.71-.48.44-1.05,1.1-1.64,1.86,2.31-1.23,4.85-2.33,6.93-2.63,5.29-.77,5.62.66,8.38,2.42,2.76,1.76,2.31-1.43-3.09-3.86Z"/>
            <path class="cls-21" d="M355.89,250.78c-1.82-2.49-3.76-4.29-6.84-6.15,0,0-10.54,19.03-3.56,28.06,2.22,2.87,4.57,5.46,6.77,7.67.14-6.09.78-19.7,3.63-29.58Z"/>
          </g>
          <path class="cls-6" d="M323.16,238.34c-9.11,2.06-16.47,4.75-18.35,10.03-.91,2.57,4.37,44.9,9.66,49.6,10.21,9.08,27.04.59,27.04.59,0,0,7.64-19.03,10.67-50.98.79-2.88-17.43-8.54-20.37-9.13s-8.66-.11-8.66-.11Z"/>
          <path class="cls-31" d="M326.23,462.9s-12.49,17.28-4.99,16.67c7.5-.61,12.39-8.33,12.39-8.33,0,0,2.6,8.75,10.1,8.34,7.5-.41,3.27-4.99,0-10.34-3.09-5.05-3.25-10.36-3.25-10.36l-14.24,4.01Z"/>
          <path class="cls-31" d="M327.3,246.6c-3.09,0-5.62-2.53-5.62-5.62v-20.94c0-3.09,2.53-5.62,5.62-5.62s5.62,2.53,5.62,5.62v20.94c0,3.09-2.53,5.62-5.62,5.62Z"/>
          <path class="cls-33" d="M327.3,214.42c-3.09,0-5.62,2.53-5.62,5.62v9.48c3.64,5.22,7.9,8.45,11.24,10.37v-19.85c0-3.09-2.53-5.62-5.62-5.62Z"/>
          <path class="cls-31" d="M341.62,217.23c1.76,7.49-1.23,14.6-6.68,15.88-5.45,1.28-11.29-3.76-13.05-11.25-1.76-7.49,1.23-14.6,6.68-15.88,5.45-1.28,11.29,3.76,13.05,11.25Z"/>
          <path class="cls-31" d="M315.74,295.45s-17.52,13.23-11.9,56.54c5.62,43.32,11.57,41.99,11.9,62.83.33,20.83,9.26,49.6,14.55,55.22,5.29,5.62,18.28-24.51,18.28-51.26,0-15.63,0-23.14,3.64-47.61,3.64-24.47,2.87-60.18-11.68-75.72-14.55-15.54-24.8,0-24.8,0Z"/>
          <path class="cls-33" d="M329.94,392.32c-.01-10.25-3.41-32.04-2.64-62.15l-22.35,29.79c5.27,35.27,10.49,35.39,10.79,54.86.25,15.78,5.44,36.12,10.24,47.5,3.12,1.12,5.22,2.43,5.77,4.09.74,2.21,1.23,3.43,1.53,3.79.11-.07.21-.14.32-.22.26-1.85-1.08-11.26-2.55-24.96-2.48-23.15-1.1-42.44-1.11-52.69Z"/>
          <path class="cls-6" d="M307.87,279.98c2.91,17.13,1.16,19.44-2.92,33.66-4.09,14.22-4.14,51.91-4.14,51.91,0,0,11.08,4.63,32.51,2.65,21.44-1.98,24.41-4.3,24.41-4.3,0,0-2.44-36.7-5.52-47.62-3.08-10.91-7.9-18.37-8.13-25.39-.24-7.02-36.22-10.91-36.22-10.91Z"/>
          <path class="cls-34" d="M321.24,479.57c7.5-.61,12.39-8.33,12.39-8.33,0,0,2.6,8.75,10.1,8.34,6.44-.35,4.23-3.78,1.41-8.13-.26.98-1.05,1.89-3.17,1.81-4.43-.17-8.59-5.55-8.59-5.55,0,0-7.73,5.95-10.59,5.53-2.86-.42,1.39-7.32,1.4-7.32-3.19,4.93-8.44,14.1-2.94,13.65Z"/>
        </g>
        <g>
          <path class="cls-31" d="M365.04,378.65c-.88,9.92.04,17.42-1.74,25.57-1.78,8.16-5.53,10.8-5.53,10.8l-3.3-38.14,10.58,1.76Z"/>
          <path class="cls-42" d="M340.35,336.76c-7.13-15.1-7.83-20.06-3.75-23.59,4.08-3.53,4.74-8.38,11.46-6.61,6.72,1.76,8.93,5.62,12.23,7.05,3.31,1.43,2.65,10.36-1.54,12.79-4.19,2.42-18.41,10.36-18.41,10.36Z"/>
          <path class="cls-22" d="M334.94,468.42s-.29,4.58.97,6.64c1.27,2.06,2.2,3-2.58,3.09-4.78.09-6.09-1.13-6.47-4.03-.38-2.91-.33-3.78.35-5.55.68-1.77,7.72-.16,7.72-.16Z"/>
          <path class="cls-22" d="M359.75,469.15s5.4,4.85,8.6,5.95c3.2,1.1-1.29,3.53-6.93,2.31-5.64-1.21-5.19.44-8.06-.88-2.87-1.32-.24-8.36-.24-8.36l6.63.98Z"/>
          <path class="cls-34" d="M360.42,393.2s0,36.82.44,51.14c.44,14.33.74,24.03.45,25.62-.12.67-6.19-.22-8.84,0-2.65.22-8.25-32.9-10.57-50.75-2.32-17.86-3.31-30.86-3.31-30.86l21.82,4.85Z"/>
          <path class="cls-5" d="M341.9,419.21c1.09,8.41,2.91,20.19,4.81,30.29,2.61-11.51,7.75-31.97,13.73-43.79-.02-7.28-.02-12.52-.02-12.52l-13.7-3.05c-2.67.5-5.32.99-7.85,1.46.43,4.94,1.4,15.08,3.03,27.6Z"/>
          <path class="cls-34" d="M329.11,385.26c-1.1,18.08-2.81,59.76-2.23,69,.63,10.03-.63,13.89-.63,13.89,0,0,2.42.88,6.39,1.32l2.52.28s10.05-26.51,12.03-44.81c1.98-18.3,7.27-32.63,7.27-32.63l-25.35-7.05Z"/>
          <path class="cls-37" d="M357.83,346.91c8.53,11.46,9.41,33.94,9.41,33.94,0,0-3.48,2.65-6.81,1.32-3.33-1.32-2.6-35.27-2.6-35.27Z"/>
          <path class="cls-19" d="M348.73,340.84c10.14,2.32,14.33,14,14.55,23.26.22,9.26-1.54,34.17-1.54,35.05s-19.84,2.65-27.12,1.1l-7.28-1.54s-1.98-36.82,0-45.85c1.98-9.04,14.99-13.23,14.99-13.23l6.39,1.21Z"/>
          <g>
            <path class="cls-37" d="M345.21,365.87c-.55-3.36,3.95-3.91,5.94-3.64,1.99.28,2.47,2.48,3.31,2.76.84.28,1.99-1.01,3.04-.26,1.05.75-.17,2.9-1.49,3.01-1.32.11-2.09-1.19-3.03-.6-.94.6-.55.98-.72.98s-3.47.39-3.47.39c0,0-1.43-.94-2.43-.83-.99.11-.62,1.16-.62,1.16,0,0-1.64-.11-1.26-1.27.39-1.16.72-1.71.72-1.71Z"/>
            <path class="cls-37" d="M352.71,368.13c1.01-1.12,2.04-.06,2.48.33.44.39-.78,1.15-1.76,1.16-.98.01-.72-1.49-.72-1.49Z"/>
            <path class="cls-37" d="M346.21,368.84c-.11-.83,1.54-.66,2.04,0,.5.66-1.1,1.32-1.6,1.16-.5-.17-.44-1.16-.44-1.16Z"/>
            <path class="cls-37" d="M343.45,369.62c-.11-.33-4.35-2.09-3.86-3.69.5-1.6,3.31,1.85,3.31,1.85,0,0-1.93-4.22-.94-4.55.99-.33,1.38,2.65,1.49,3.53.11.88,0,2.87,0,2.87Z"/>
            <path class="cls-37" d="M355.28,362.51s.29-3.58,1.51-2.87c1.21.72-.75,2.87-.75,2.87,0,0,2.52-1.98,3.12-.88.61,1.1-3.88,1.57-3.88,1.57v-.69Z"/>
          </g>
          <path class="cls-37" d="M335.96,385.26c.89-11.24,3.3-26.9-3.54-38.14l-1.83-.22c-1.53,1.68-2.74,3.66-3.24,5.95-1.98,9.04,0,45.85,0,45.85l7.28,1.54c.33.07.69.13,1.07.19-.17-3.26-.26-8.57.27-15.18Z"/>
          <path class="cls-31" d="M345.76,347.13c-2.97,0-5.4-2.43-5.4-5.4v-9.92c0-2.97,2.43-5.4,5.4-5.4s5.4,2.43,5.4,5.4v9.92c.78,5.19-1.92,5.85-5.4,5.4Z"/>
          <path class="cls-33" d="M351.16,342.16v-13.11c0-1.45-1.19-2.65-2.65-2.65h-5.51c-1.46,0-2.65,1.19-2.65,2.65v8.41c4.28,3.87,8.19,4.71,10.8,4.7Z"/>
          <path class="cls-15" d="M359.77,325.04c.98,7.1-2.62,13.46-8.05,14.21-5.43.75-10.62-4.39-11.61-11.49-.98-7.1,2.62-13.46,8.05-14.21,5.43-.75,10.62,4.39,11.61,11.49Z"/>
          <path class="cls-15" d="M330.4,347.13c-9.88,4.41-10.76,36.37-11.21,41.22-.44,4.85,1.98,21.38,3.31,25.79,1.32,4.41,5.06,7.9,5.26,2.42s-1.29-8.37-1.29-8.37c0,0,1.98,4.19,2.65,1.98.66-2.2-2.87-5.51-2.87-7.5s2.87-13.67,2.87-17.42,5.51-15.87,5.51-25.79-4.23-12.35-4.23-12.35Z"/>
          <path class="cls-19" d="M333.73,344.11c-9.03,3.68-11.78,14.26-14.6,24.4l-2.81,10.14s14.77,5.23,15.65,4.6c.88-.63,4.19-18.93,3.97-26.42-.22-7.5-2.21-12.72-2.21-12.72Z"/>
          <path class="cls-15" d="M342.13,327.95c.67,1.75.24,3.54-.94,3.99-1.18.45-2.68-.61-3.35-2.36-.66-1.75-.24-3.54.94-3.99,1.18-.45,2.68.61,3.35,2.36Z"/>
          <path class="cls-42" d="M339.14,324.09s2.75,8.51,3.3,5.41c.56-3.1-.33-4.53,1.77-5.41,2.09-.88-.66-6.83,2.31-6.28,2.98.55,5.4,4.15,9.92,3.28,4.52-.86,6.39-1.85,4.52-4.39-1.87-2.54-17.31-4.96-17.31-4.96l-6.56,7.51,2.04,4.83Z"/>
          <path class="cls-5" d="M353.36,477.41c2.87,1.32,2.41-.33,8.06.88,5.65,1.21,10.82-1.76,7.62-2.87-.08-.03-.15-.06-.23-.08-1.05.53-2.07,1.28-2.51,1.63-.74.59-2.65.15-5.27-.29-2.63-.44-2.17.32-2.81-.37-.64-.68-3.22-2.49-6.17-2.49-.11,1.57.15,3.06,1.32,3.6Z"/>
          <path class="cls-5" d="M326.63,470.22c2.35,4.79,1.23,5.65,3.21,5.98s2.66-1.22,4.78-.48c2.12.74,1.83.73,2.31,1.32s.26,1.31-.62,1.53c-.88.23-5.44.29-7.2,0-1.76-.29-2.94-3.58-2.87-4.76.07-1.18.39-3.6.39-3.6Z"/>
        </g>
        <path class="cls-32" d="M269.12,227c-3.48-4.89-6.98-18.2-3.87-19.56,3.11-1.36,2.33-3.5,5.44-7.48,3.11-3.98,15.64-5.54,19.33,1.17,3.69,6.7,5.27,7.38,5.41,10.98.13,3.59-8.71,12.53-8.71,12.53l-17.6,2.37Z"/>
        <path class="cls-31" d="M351.23,305.08c-1.01,1.52-1.99,2.65-2.7,2.65-6.72,0-7.22,2.64-10.87,4.57-4.68,2.48-3.69,6.28-3.36,6.5.33.22,10.3-1.53,13.65-3.71,2.78-1.81,4.75-2.8,6.11-4.78.26-.38.75-.9,1.37-1.48-1.51-1.12-2.91-2.38-4.19-3.75Z"/>
        <path class="cls-31" d="M271.42,209.79s-2.2,27.14-7.05,30.1c-4.85,2.96-14.11,13.99-12.79,37.8,1.32,23.81,3.09,34.08,4.85,43.27,1.76,9.19,34.83,3.59,38.36,0s7.5-36.44,0-53.08c-7.5-16.64-15.87-26.05-16.75-30.17-.88-4.11,4.85-20.65,4.85-20.65l-11.46-7.28Z"/>
        <path class="cls-33" d="M277.94,236.82c-.11-5.19,4.94-19.76,4.94-19.76l-11.46-7.28s-.48,5.92-1.49,12.53c1.49,9.19,4.46,12.72,8.01,14.51Z"/>
        <path class="cls-31" d="M292.35,217.41c1.1,7.97-1.64,14.21-7.38,15.01-5.74.8-12.3-4.16-13.41-12.13-1.1-7.97,2.65-15.08,8.39-15.88,5.74-.8,11.29,5.02,12.39,13Z"/>
        <path class="cls-31" d="M355.28,247.93c3.38,2.1,5.95,7.35,4.47,11.61-1.48,4.26-3.52-1.21-5.77-4.34-2.25-3.13-1.22-8.84,1.3-7.27Z"/>
        <path class="cls-34" d="M295.24,304.97c-2.31,27.84,5.51,90.67,5.57,104.88.05,14.22,5.73,53.1,5.73,53.1,0,0-9.26,2.66-12.9,2.97-3.64.31-14.14-35.24-15.7-54.08-1.55-18.85-11.39-52.3-11.39-52.3l3.37-57.38,25.31,2.81Z"/>
        <path class="cls-5" d="M295.24,304.97l-25.31-2.81-3.37,57.38s9.83,33.45,11.39,52.3c.02.25.04.5.07.75.19-29.05,8.63-41.66,17.56-72.42-.77-13.51-1.08-26.19-.33-35.2Z"/>
        <path class="cls-34" d="M294.25,314.3c-11.9,40.34-22.82,78.37-30.09,103.5-7.27,25.13-5.09,50.96-5.09,50.96l-12.23.98s-13.76-41.42-4.5-63.84c9.26-22.42,4.85-35.93,6.61-56.87,1.98-23.63,5.32-40.9,5.32-40.9l39.98,6.18Z"/>
        <path class="cls-30" d="M294.79,267.88c-4.03-8.94-8.3-15.79-11.54-20.85-1.43-.2-3.24-.38-5.29-.42-3.41-.07-9.35-4.44-12.89-7.32-.23.26-.46.46-.7.61-4.85,2.96-14.11,13.99-12.79,37.8,1.32,23.81-3.67,31.94-1.91,41.13,1.76,9.19,41.59,5.73,45.12,2.14s7.5-36.44,0-53.08Z"/>
        <path class="cls-30" d="M263.78,234.19l-3.58,9.44,22.69,9.22,2.62-2.25s-3.5-5.1-2.62-8.19c.88-3.09,1.91-3.97,0-4.7-1.91-.73-8.71-1.91-12.95-3.53-4.25-1.62-5.42-1.95-6.16,0Z"/>
        <path class="cls-26" d="M298.84,287.15c-.45-7.09-1.67-14-4.05-19.27-.88-1.95-1.76-3.79-2.65-5.54l-2.86-1.24s-15.87-12.67-26.23-10.31c-10.36,2.36-10.8,40.96-4.85,45.19,5.95,4.23,23.81-6.51,29.32-7.44,3.58-.61,8.39-1.11,11.33-1.39Z"/>
        <path class="cls-30" d="M339.07,271.29c-6.48-.01-13.1-.55-18.6-2.24-16.53-5.07-47.48-17.74-53.57-16.91-4.77.65-10.36,5.89-9.7,22.21.66,16.31,9.04,13.01,19.5,10.33,10.46-2.68,24.58-1.04,43.77,0,6.5.35,13.62-.7,20.2-2.24-.36-3.74-.9-7.44-1.6-11.15Z"/>
        <path class="cls-31" d="M362.88,272.49c-1.12-.61-10.66-.11-19.78-.34.57,3.18,2.04,8.46,2.38,11.67,9.78-2.85,17.58-3.13,17.58-3.13,0,0,1.85-7.1-.19-8.2Z"/>
        <path class="cls-30" d="M334.11,270.57c5.85.09,15.54-.64,16.87.25,1.33.89,3.69,11.27-.98,12.6-17.08,4.85-36.26,1.36-59.19-.2-22.93-1.56,25.97-15.34,25.97-15.34,0,0,12.46,2.62,17.33,2.69Z"/>
        <path class="cls-32" d="M269.12,227c3.89-1.92,1.96-5.66,2.3-8.14.34-2.48-.74-4.47.19-4.3.93.17.72,9.52,1.89,9.46,1.17-.06.74-7.06,1.98-7.25,1.24-.19,1.72-1.94.75-5-.97-3.06-.19-5.78,2.43-3.36,2.62,2.43,8.45,8.06,11.85,7.29,3.4-.78,3.21-4.27,2.91-4.66-.29-.39-9.04-10.2-9.04-10.2l-17.29,9.91-.49,9.04,2.51,7.22Z"/>
        <path class="cls-31" d="M272.22,216.39c.23,2.35.31,5.91.52,6.42-1.54.63-3.51-.63-4.4-2.82-.89-2.19-.81-5.05.75-5.63.97-.36,2.87-.7,3.14,2.03Z"/>
        <path class="cls-32" d="M340.67,211.11c-2.45,7.94-16.12,8.05-16.78,10.25-.66,2.2-.2,9.1-2.2,14.55-3.2,8.71-5.25,13.26-9.7,14.59-4.45,1.32-6.32-6.05-6.32-6.05,0,0,7.98-10.52,8.42-10.74.44-.22,4.64-27.12,4.64-27.12,0,0,10.68-1.96,11.23-2.25.55-.29,8.27,3.13,8.27,3.13l2.45,3.64Z"/>
      </g>
      <path class="cls-31" d="M352.74,272.91c1.7,0,10.41-4.88,12.06-5.03,1.65-.15,8.16,1.62,8.16,1.62,0,0-12.55,9.73-12.78,9.6-.23-.13-7.44-6.19-7.44-6.19Z"/>
      <path class="cls-33" d="M389.27,281.28l-9.48-.92s-5.07,4.49-9.7,5.54c-4.63,1.04-8.38-3.91-8.38-3.91l7.18-8.42,12.66-1.43,9.59.98-1.88,8.16Z"/>
      <path class="cls-31" d="M357.74,279.98s5.85,4.71,10.81,5.38c4.96.67,7.72-1.74,9.48-3.37,1.76-1.63-3.75-3.3-5.73-5.25-1.98-1.94-.55-5.16-.55-5.16h-8.66l-5.34,8.39Z"/>
      <path class="cls-33" d="M389.27,272.15l-9.59-1.05s-3.97-3.5-5.95-3.22c-1.98.29-7.06,4.27-7.06,4.27,0,0-4.35,4.07-2.83,4.51,1.52.44,5.92-.84,6.48-1.85.55-1.01-1.1.35,3.86,0,4.96-.35,5.51-1.23,5.51-1.23l9.59.77v-2.19Z"/>
      <path class="cls-33" d="M360.57,282.44c1.25-1.93,3-3.07,6.1-1.37,3.09,1.71,4,4.12,3.42,4.83-.57.71-6.4-1.18-8.58-1.84-1.7-.51-.94-1.62-.94-1.62Z"/>
      <g>
        <path class="cls-32" d="M479.24,224.22c1.66-6.27,6.22-21.4-1.03-24.72s-10.88-8.19-18.14-5.7c-7.25,2.49-5.8,8.19-8.39,11.3-2.59,3.11,1.76,13.26,5.91,16.89,4.15,3.63,21.65,2.23,21.65,2.23Z"/>
        <polygon class="cls-4" points="389.18 271.36 383.07 271.09 380.45 282.94 390.71 284.87 389.18 271.36"/>
        <path class="cls-32" d="M486.21,248.31c9.59,13.47,3.75,23.78-8.21,32.51-11.96,8.74-40.11,11.46-52.02,11.99-11.9.53-41.67-8.61-41.67-8.61l1.84-13.11s28.18,2.69,39.09.82c10.91-1.87,49.6-23.6,49.6-23.6h11.36Z"/>
        <path class="cls-3" d="M463.85,254.32c-3.42,1.83-7.36,3.9-11.43,5.97-3.95,10.28-5.06,20.83-24.23,27.82-4.45,1.62-8.67,2.75-12.57,3.53,4.01.81,7.65,1.3,10.36,1.18,8.63-.38,28.02.72,41.37-3.42-.4-10.26-3.17-26.49-3.5-35.08Z"/>
        <polygon class="cls-31" points="475.07 211.39 482.35 235.02 467.36 253.47 471.77 237.63 467.36 221.42 475.07 211.39"/>
        <path class="cls-33" d="M475.07,211.39l-7.72,10.03,4.38,16.11c2.72-4.71,4.99-10.37,6.26-16.63l-2.93-9.51Z"/>
        <path class="cls-31" d="M475.32,220.94c-2.51,7.8-9.24,12.61-15.05,10.75-5.81-1.87-8.48-9.7-5.97-17.5,2.51-7.8,9.24-12.61,15.05-10.75,5.81,1.87,8.48,9.7,5.97,17.5Z"/>
        <path class="cls-30" d="M468.17,244.61s-4.43,2.65-4.42,4.7c.01,2.06,0,3.23,0,3.23,0,0-3.81,5.83-6.75,13.35-2.94,7.52-2.79,11.34-2.79,11.34l18.64-28.36-4.68-4.27Z"/>
        <path class="cls-3" d="M494.4,468.21c-.15,5.88-6.63,10.03-9.71,11.59-9.65,4.9-11.32,7.96-.74,7.8,8-.12,13.52-3.25,22.19-3.83,5.5-.37,1.54-6.48,1.83-10.01.29-3.53-2.2-8.49-2.2-8.49l-11.38,2.94Z"/>
        <path class="cls-3" d="M448.1,465.27s-1.95,2.68-6.65,6.74c-4.7,4.06-21.28,4.19-12.46,8.36,5.36,2.53,15.23.7,21.13,1.55,5.9.85,11.05.03,11.49-1.55.44-1.57-1.21-12.32-1.21-12.32l-12.31-2.77Z"/>
        <path class="cls-32" d="M456.76,309.14c2.31,27.84-5.51,90.66-5.57,104.88-.05,14.22-8.09,55.57-8.09,55.57,0,0,15.51,6.3,19.15,6.6,3.64.31,11.34-36.07,12.9-54.92,1.55-18.85,10.29-57.57,10.29-57.57l-3.37-57.38-25.31,2.81Z"/>
        <path class="cls-3" d="M473.06,437.4c.96-5.89,1.71-11.52,2.08-16.11,1.55-18.85,10.29-57.57,10.29-57.57l-1.12-19.14-27.88-.4c-.58,10.24-1.42,20.97-2.27,30.95,10.71,23.35,16.3,47.94,18.9,62.28Z"/>
        <path class="cls-32" d="M457.75,318.46c10.78,58.42,18.72,81.66,26,106.79,7.27,25.13,5.62,50.95,5.62,50.95l20.17,2.57s7.89-45.74.13-68.72c-4.76-14.1-1.61-33.2-3.37-54.15-1.98-23.63-3.7-47.79-3.7-47.79l-44.84,10.34Z"/>
        <path class="cls-3" d="M499.68,338.86l-34.86,15.06c.16.72-.16,4.27,0,4.98,17.07,1.42,27.88-.19,41.86,3.19-.32-4.1-.97-13.76-1.24-17.91l-5.76-5.31Z"/>
        <path class="cls-32" d="M484.89,237.18c14.55,13.76,19.84,28.31,19.35,36.31-.99,16.18,2.09,78.41,2.09,78.41,0,0-8.55,1.95-22.87,4.56-14.32,2.62-28.14-1.21-28.14-1.21,0,0-2.42-44.46-2.31-72.38.07-17.02,31.88-45.69,31.88-45.69Z"/>
        <path class="cls-3" d="M499.14,353.42c.38-7.36,3.01-59.16,2.6-59.98-.44-.88-17.2-39.98-17.2-39.98-8.96,12.2-9.53,37.63-9.39,51.29.12,12.31,3.83,45.74,4.56,52.24,1.24-.14,2.49-.32,3.75-.55,6.31-1.15,11.66-2.21,15.68-3.04Z"/>
        <polygon class="cls-4" points="483.74 233.44 480.95 228 467.36 239.02 466.55 254.12 483.74 233.44"/>
        <path class="cls-3" d="M481.39,245.64s5.55-2.54,10.65-.77c-2.1-2.57-4.02-5.12-7.16-8.08,0,0-31.81,28.67-31.88,45.69-.02,4.16.09,8.38.27,12.54.11-8.53-1.13-14.69,7.24-25.82,7.42-9.87,23.22-17.97,23.22-17.97l-2.35-5.58Z"/>
        <path class="cls-32" d="M483.89,232.08l4,7.64-9.89,7.08,2.66,4.41s-11.92,7.58-16.91,11.46c-8.37,6.5-11.3,21.9-11.3,21.9,0,0,1.18-15.39,11.3-28.16,9.26-11.67,20.15-24.34,20.15-24.34Z"/>
        <polygon class="cls-14" points="470.21 352.69 512.61 357.83 509.74 385.9 469.41 381.77 470.21 352.69"/>
        <path class="cls-31" d="M494.47,334.53l-4.26,15.63-6.47,4.37,5.24.84s-.95,9.29-2.73,13.52c-1.78,4.22.13,5.63,7.34.7,7.2-4.93,9.2-7.32,8.71-13.1-.48-5.77-1.81-6.48-1.07-11.26.73-4.79-6.91-11.69-6.91-11.69l.15.99Z"/>
        <polygon class="cls-4" points="489.93 342.41 488.46 350.43 502.39 352.69 504.7 342.41 489.93 342.41"/>
        <path class="cls-32" d="M493.76,248.31c5.25,2.16,11.94,21.31,21.72,55.44,2.36,8.25-10.78,45.56-10.78,45.56,0,0-16.79-1.07-17-3.76-.12-1.54,7.38-31.16,6.39-34.01-.99-2.85-6.78-11.55-11.75-30.97s1.84-36.19,11.42-32.25Z"/>
        <path class="cls-32" d="M454.71,202.4c-5.21,13.06,6.1,11.71,10.86,7.67,4.76-4.04,5.37-.55,5.28,4.25-.09,4.5,1.71,1.21,1.29,6.29-.41,5.08-.74,5.32.93,3.56,1.67-1.76,2.19-8.19,2.19-8.19,0,0-.39,8.32,1.99,8.89,2.38.57,2-.65,2-.65l.54-13.94-10.48-11.71s-13.44.1-13.46.52c-.01.41-1.13,3.32-1.13,3.32Z"/>
        <path class="cls-31" d="M475.25,215.98c1.61-3.52,5.17-1.86,4.22,2.28-.95,4.14-4.85,4.52-4.85,4.52l.63-6.8Z"/>
      </g>
    </g>
  </g>
  <g>
    <path class="cls-9" d="M633.51,457.37h-30.22s-15.99-.01-15.99-.01c-6.2,0-11.28-5.08-11.28-11.29l.04-111.67c0-6.2,5.08-11.28,11.28-11.28h14.18s32.03.01,32.03.01c6.2,0,11.28,5.08,11.28,11.29l-.03,111.67c0,6.2-5.08,11.28-11.28,11.28Z"/>
    <path class="cls-20" d="M639.92,425.71l-.8-5.88h0l-.8-5.88c-.2-1.5-1.01-2.78-2.13-3.63-1.12-.85-2.57-1.28-4.07-1.08-.17.02-.33.06-.49.09.55-.79.86-1.69.95-2.6,1.02,2.45,3.7,3.88,6.36,3.24,2.95-.71,4.78-3.69,4.07-6.64l-1.38-5.77h0l-1.38-5.77c-.35-1.47-1.28-2.67-2.48-3.41-1.2-.74-2.69-1.02-4.16-.67-2.95.71-4.78,3.69-4.07,6.64l2.08,8.69c-.31-.45-.7-.87-1.16-1.22-.95-.73-2.06-1.09-3.18-1.12.55-.71.91-1.53,1.06-2.39.21-1.12.06-2.31-.45-3.38.62-2.06,0-4.4-1.76-5.85l-9.15-7.56c-2.34-1.93-5.82-1.6-7.75.74-1.79,2.16-1.63,5.3.25,7.29-.49,0-.98.05-1.47.19l-5.72,1.57h0l-5.72,1.57c-1.99.54-3.43,2.13-3.89,4.01l-.6-1.44h0l-2.29-5.47c-1.17-2.8-4.41-4.13-7.2-2.96-2.8,1.17-4.13,4.41-2.96,7.2l2.29,5.47h0l1.47,3.51c-1.94.77-3.37,2.62-3.48,4.84l-.3,5.92h0l-.3,5.93c-.08,1.51.47,2.92,1.42,3.97.95,1.05,2.29,1.74,3.8,1.81.65.03,1.27-.05,1.86-.23-.57,1.14-.73,2.47-.44,3.72-1.02.59-1.86,1.49-2.33,2.65l-2.27,5.48h0l-2.27,5.48c-.58,1.4-.53,2.91.01,4.21.54,1.3,1.58,2.4,2.98,2.98,2.18.9,4.63.28,6.15-1.37.36.85.93,1.62,1.71,2.22,2.41,1.84,5.88,1.38,7.72-1.03l3.61-4.71h0l3.61-4.71c.49-.64.81-1.36.98-2.1,1.25.13,2.56-.17,3.67-.94l.94-.65-1.31,1.71h0l-3.61,4.71c-1.84,2.41-1.38,5.88,1.03,7.72,2.41,1.84,5.88,1.38,7.72-1.03l3.61-4.71h0l3.61-4.71c.05-.06.08-.12.13-.19.29.47.65.89,1.06,1.24l-1.28,1.68c-1.84,2.41-1.38,5.88,1.03,7.72,2.41,1.84,5.88,1.38,7.72-1.03l7.21-9.42c.92-1.2,1.26-2.67,1.08-4.07-.19-1.4-.9-2.73-2.1-3.65-.41-.31-.86-.56-1.32-.74.07,0,.13,0,.2-.02,3-.41,5.12-3.2,4.71-6.2ZM590.29,420.46l.1-2.02c.35.59.81,1.12,1.38,1.56.21.16.44.3.67.43l-2.52,1.74c.21-.53.34-1.11.37-1.71ZM627.4,415.44l1.08,7.9c-.47-.95-1.19-1.73-2.06-2.27-1.07-.65-2.35-.95-3.65-.76.56-.34,1.08-.79,1.5-1.34l3.1-4.04c0,.17.02.34.04.51ZM614.87,394.09l1.39,1.15-1.43.98c.15-.69.17-1.41.04-2.13ZM616.07,411.55c-.14-.86-.48-1.65-.98-2.34.41-.15.81-.35,1.18-.61l4.34-2.99-4.55,5.94ZM619.67,421.86c-1.16-.97-2.67-1.41-4.15-1.25l.12-1.48c.26.32.56.62.9.88,1.22.93,2.71,1.27,4.13,1.07-.36.22-.7.49-1,.79ZM608.58,401.02c-1.21,1.82-1.27,4.28.04,6.18.02.03.05.07.08.1-.4.15-.78.35-1.13.59.25-.78.32-1.61.22-2.41-.19-1.4-.9-2.73-2.1-3.65,0,0-.01,0-.02-.01l2.92-.8ZM603.1,414.26l2.12-2.77c-.03.17-.05.34-.07.52l-.4,5.09c-.8-.72-1.77-1.18-2.8-1.35l1.14-1.49h0ZM593.15,437.53l.62-1.51c.45-1.1.52-2.27.26-3.35.13-.07.25-.15.37-.23l9.77-6.74c.06-.04.12-.09.18-.14.13.54.34,1.04.62,1.51l-1.74,1.2c-1.17.81-1.92,2-2.22,3.29-1.84-.18-3.72.56-4.92,2.12l-2.95,3.85ZM619.07,430.75l.3,1.27c-.49-.22-1-.36-1.53-.43l1.22-.84ZM630.7,432.03l-.42-1.77h0l-.08-.34c.6.73,1.37,1.3,2.25,1.65-.6.06-1.19.21-1.74.46ZM597.34,403.66l-2.99,3.9h0l-3.61,4.71s-.03.04-.05.07l.19-3.73c0-.1,0-.19,0-.28.17-.05.34-.11.51-.18,2.24-.94,3.54-3.21,3.36-5.51.75.55,1.64.91,2.58,1.03Z"/>
    <path class="cls-10" d="M603.29,457.36h-15.99c-6.2,0-11.28-5.09-11.28-11.29l.04-111.67c0-6.2,5.08-11.28,11.28-11.28h14.18c1.17,2.01,1.85,4.41,1.85,6.98l-.04,126.13c0,.38-.01.76-.05,1.13Z"/>
    <path class="cls-40" d="M644.08,328.4h-42.92s-24.36-.02-24.36-.02c-1.21,0-2.19-.99-2.19-2.19v-10.52c0-1.21.99-2.19,2.2-2.19h24.33s0,0,0,0h42.95c1.21.01,2.19,1,2.19,2.21v10.52c0,1.21-.99,2.2-2.2,2.19Z"/>
    <path class="cls-25" d="M601.16,328.39h-24.36c-1.21,0-2.19-1-2.19-2.2v-10.52c0-1.21.99-2.19,2.2-2.19h24.33s0,0,0,0c1.2,0,2.19.99,2.19,2.19v10.52c0,1.2-.97,2.18-2.16,2.19Z"/>
  </g>
  <g>
    <g>
      <g>
        <path class="cls-41" d="M160.51,220.03v123.19c0,7.56-6.18,13.75-13.75,13.75h-73.22c-1.96,0-3.82-.41-5.52-1.16-4.83-2.14-8.23-6.98-8.23-12.58v-123.19c0-7.56,6.19-13.75,13.75-13.75h73.22c7.56,0,13.75,6.18,13.75,13.75Z"/>
        <path class="cls-38" d="M128.08,252.6c-7.74-2.91-11.65-11.53-8.75-19.27,2.9-7.74,11.53-11.65,19.27-8.75,7.74,2.9,11.65,11.53,8.75,19.27-2.9,7.74-11.53,11.65-19.27,8.75Z"/>
        <path class="cls-13" d="M147.34,243.86l-28.02-10.52c2.9-7.74,11.53-11.65,19.27-8.75,7.74,2.9,11.65,11.53,8.75,19.27Z"/>
        <path class="cls-38" d="M77.51,250.19c-6.4-5.23-7.35-14.65-2.13-21.05,5.23-6.4,14.65-7.36,21.05-2.13,6.4,5.23,7.35,14.65,2.13,21.05-5.23,6.4-14.65,7.35-21.05,2.13Z"/>
        <path class="cls-13" d="M98.56,248.06l-23.18-18.92c5.23-6.4,14.65-7.36,21.05-2.13,6.4,5.23,7.35,14.65,2.13,21.05Z"/>
        <path class="cls-38" d="M128.08,343.88c-7.74-2.91-11.65-11.53-8.75-19.27,2.9-7.74,11.53-11.65,19.27-8.75,7.74,2.9,11.65,11.53,8.75,19.27-2.9,7.74-11.53,11.65-19.27,8.75Z"/>
        <path class="cls-13" d="M147.34,336.15l-28.02-10.52c2.9-7.74,11.53-11.65,19.27-8.75,7.74,2.9,11.65,11.53,8.75,19.27Z"/>
        <circle class="cls-38" cx="86.97" cy="329.87" r="14.96" transform="translate(-122.82 60.86) rotate(-23.18)"/>
        <path class="cls-13" d="M98.56,340.35l-23.18-18.92c5.23-6.4,14.65-7.36,21.05-2.13,6.4,5.23,7.35,14.65,2.13,21.05Z"/>
        <g>
          <path class="cls-38" d="M139.74,299.46c-7.47,3.54-16.39.35-19.93-7.11-3.54-7.47-.36-16.39,7.11-19.93,7.47-3.54,16.39-.35,19.93,7.11,3.54,7.47.35,16.39-7.11,19.93Z"/>
          <path class="cls-13" d="M146.86,279.53l-27.04,12.82c-3.54-7.47-.36-16.39,7.11-19.93,7.47-3.54,16.39-.35,19.93,7.11Z"/>
        </g>
        <path class="cls-38" d="M73.08,280.37c3.07-7.67,11.78-11.4,19.45-8.33,7.67,3.07,11.4,11.78,8.33,19.45-3.07,7.67-11.78,11.4-19.45,8.33-7.67-3.07-11.4-11.78-8.33-19.45Z"/>
        <path class="cls-13" d="M81.41,299.83l11.12-27.78c7.67,3.07,11.4,11.78,8.33,19.45-3.07,7.67-11.78,11.4-19.45,8.33Z"/>
      </g>
      <path class="cls-8" d="M160.51,236.88v107.2c0,7.08-5.66,12.88-12.58,12.88h-67c-1.79,0-3.5-.39-5.05-1.09v-104.15c0-4.26,1.78-8.11,4.61-10.83,1.05-1,2.24-1.85,3.54-2.51,1.92-.96,4.07-1.51,6.34-1.51h70.13Z"/>
    </g>
    <g>
      <rect class="cls-41" x="53.29" y="262.56" width="150.68" height="100.72" rx="13.75" ry="13.75" transform="translate(441.55 184.29) rotate(90)"/>
      <path class="cls-38" d="M146.55,283.9c-7.74-2.91-11.65-11.53-8.75-19.27,2.9-7.74,11.53-11.65,19.27-8.75,7.74,2.9,11.65,11.53,8.75,19.27-2.9,7.74-11.53,11.65-19.27,8.75Z"/>
      <path class="cls-13" d="M165.82,275.16l-28.02-10.52c2.9-7.74,11.53-11.65,19.27-8.75,7.74,2.9,11.65,11.53,8.75,19.27Z"/>
      <path class="cls-38" d="M95.99,281.49c-6.4-5.23-7.35-14.65-2.13-21.05,5.23-6.4,14.65-7.36,21.05-2.13,6.4,5.23,7.35,14.65,2.13,21.05-5.23,6.4-14.65,7.35-21.05,2.13Z"/>
      <path class="cls-13" d="M117.04,279.36l-23.18-18.92c5.23-6.4,14.65-7.36,21.05-2.13,6.4,5.23,7.35,14.65,2.13,21.05Z"/>
      <path class="cls-38" d="M146.55,375.18c-7.74-2.91-11.65-11.53-8.75-19.27,2.9-7.74,11.53-11.65,19.27-8.75,7.74,2.9,11.65,11.53,8.75,19.27-2.9,7.74-11.53,11.65-19.27,8.75Z"/>
      <path class="cls-13" d="M165.82,367.45l-28.02-10.52c2.9-7.74,11.53-11.65,19.27-8.75,7.74,2.9,11.65,11.53,8.75,19.27Z"/>
      <path class="cls-38" d="M95.99,372.76c-6.4-5.23-7.35-14.65-2.13-21.05,5.23-6.4,14.65-7.36,21.05-2.13,6.4,5.23,7.35,14.65,2.13,21.05-5.23,6.4-14.65,7.35-21.05,2.13Z"/>
      <path class="cls-13" d="M117.04,371.65l-23.18-18.92c5.23-6.4,14.65-7.36,21.05-2.13,6.4,5.23,7.35,14.65,2.13,21.05Z"/>
      <g>
        <path class="cls-38" d="M158.22,330.75c-7.47,3.54-16.39.35-19.93-7.11-3.54-7.47-.36-16.39,7.11-19.93,7.47-3.54,16.39-.35,19.93,7.11,3.54,7.47.35,16.39-7.11,19.93Z"/>
        <path class="cls-13" d="M165.34,310.83l-27.04,12.82c-3.54-7.47-.36-16.39,7.11-19.93,7.47-3.54,16.39-.35,19.93,7.11Z"/>
      </g>
      <path class="cls-38" d="M91.56,311.67c3.07-7.67,11.78-11.4,19.45-8.33,7.67,3.07,11.4,11.78,8.33,19.45-3.07,7.67-11.78,11.4-19.45,8.33-7.67-3.07-11.4-11.78-8.33-19.45Z"/>
      <path class="cls-13" d="M99.89,331.12l11.12-27.78c7.67,3.07,11.4,11.78,8.33,19.45-3.07,7.67-11.78,11.4-19.45,8.33Z"/>
    </g>
    <g>
      <rect class="cls-25" x="52.65" y="286.72" width="115" height="171.63"/>
      <rect class="cls-40" x="68.67" y="286.72" width="115" height="171.63"/>
      <polygon class="cls-36" points="68.67 296.68 63.16 305.25 52.65 305.25 52.65 286.72 68.67 286.72 68.67 296.68"/>
      <polygon class="cls-40" points="58.85 300.24 42.83 300.24 52.65 286.72 68.67 286.72 58.85 300.24"/>
      <polygon class="cls-8" points="127.99 458.89 68.67 458.89 68.67 294.54 127.99 300.24 127.99 458.89"/>
      <polygon class="cls-25" points="183.68 300.24 174.35 305.25 74.22 305.25 68.67 296.68 68.67 286.72 183.68 300.24"/>
      <polygon class="cls-40" points="191.8 300.24 76.8 300.24 68.67 286.72 183.68 286.72 191.8 300.24"/>
    </g>
  </g>
  <g>
    <rect class="cls-41" x="8.67" y="355.36" width="151.56" height="102.75" rx="13.92" ry="13.92"/>
    <path class="cls-38" d="M55.26,388.45c-2.92,7.9-11.6,11.89-19.38,8.92-7.78-2.96-11.72-11.76-8.8-19.66,2.92-7.89,11.6-11.89,19.38-8.92,7.78,2.96,11.72,11.77,8.8,19.66Z"/>
    <path class="cls-13" d="M46.46,368.8l-10.58,28.58c-7.78-2.96-11.72-11.76-8.8-19.66,2.92-7.89,11.6-11.89,19.38-8.92Z"/>
    <path class="cls-38" d="M52.83,440.04c-5.26,6.53-14.74,7.5-21.18,2.17-6.44-5.33-7.4-14.95-2.14-21.48,5.26-6.53,14.74-7.5,21.18-2.17s7.4,14.95,2.14,21.48Z"/>
    <path class="cls-13" d="M50.69,418.56l-19.03,23.65c-6.44-5.33-7.4-14.95-2.14-21.48,5.26-6.53,14.74-7.5,21.18-2.17Z"/>
    <path class="cls-38" d="M147.07,388.45c-2.92,7.9-11.6,11.89-19.38,8.92-7.78-2.96-11.72-11.76-8.8-19.66,2.92-7.89,11.6-11.89,19.38-8.92,7.78,2.96,11.72,11.77,8.8,19.66Z"/>
    <path class="cls-13" d="M138.27,368.8l-10.58,28.58c-7.78-2.96-11.72-11.76-8.8-19.66,2.92-7.89,11.6-11.89,19.38-8.92Z"/>
    <path class="cls-38" d="M144.63,440.04c-5.08,6.31-14.09,7.43-20.5,2.69-.23-.16-.45-.34-.67-.52-6.44-5.33-7.4-14.94-2.14-21.48,5.25-6.53,14.74-7.5,21.17-2.17.22.18.43.37.64.56,5.86,5.42,6.58,14.61,1.5,20.92Z"/>
    <path class="cls-13" d="M143.13,419.12l-19,23.61c-.23-.16-.45-.34-.67-.52-6.44-5.33-7.4-14.94-2.14-21.48,5.25-6.53,14.74-7.5,21.17-2.17.22.18.43.37.64.56Z"/>
    <g>
      <path class="cls-38" d="M102.38,376.55c3.56,7.62.36,16.72-7.15,20.33-7.51,3.61-16.48.36-20.05-7.26-3.56-7.62-.36-16.72,7.15-20.33,7.51-3.61,16.49-.36,20.05,7.26Z"/>
      <path class="cls-13" d="M82.34,369.29l12.89,27.59c-7.51,3.61-16.48.36-20.05-7.26-3.56-7.62-.36-16.72,7.15-20.33Z"/>
    </g>
    <path class="cls-38" d="M83.19,444.56c-7.72-3.13-11.47-12.02-8.38-19.84,3.09-7.83,11.85-11.63,19.56-8.5,7.72,3.13,11.47,12.02,8.38,19.84-3.09,7.83-11.85,11.63-19.56,8.5Z"/>
    <path class="cls-13" d="M102.76,436.06l-27.94-11.34c3.09-7.83,11.85-11.63,19.56-8.5,7.72,3.13,11.47,12.02,8.38,19.84Z"/>
  </g>
  <g>
    <g>
      <path class="cls-1" d="M636.39,457.93c0,2.49-1.02,4.75-2.66,6.39-1.64,1.64-3.9,2.66-6.39,2.66h-42.7c-4.97,0-9.04-4.07-9.04-9.04,0-2.49,1.02-4.75,2.65-6.39,1.64-1.64,3.9-2.65,6.39-2.65h42.7c4.97,0,9.04,4.07,9.04,9.04Z"/>
      <path class="cls-27" d="M614.36,457.93c0,2.49-1.02,4.75-2.65,6.39-1.64,1.64-3.9,2.66-6.39,2.66h-20.68c-4.97,0-9.04-4.07-9.04-9.04,0-2.49,1.02-4.75,2.65-6.39,1.64-1.64,3.9-2.65,6.39-2.65h20.68c4.97,0,9.04,4.07,9.04,9.04Z"/>
      <rect class="cls-18" x="586.05" y="450.9" width="43.3" height="2.85" rx="1.28" ry="1.28"/>
    </g>
    <g>
      <path class="cls-25" d="M599.95,432.32c1.18,2.36,1.29,4.98.51,7.31-.78,2.33-2.43,4.37-4.79,5.55l-40.47,20.28c-4.71,2.36-10.5.44-12.86-4.28-1.18-2.36-1.29-4.98-.52-7.31.78-2.33,2.43-4.37,4.79-5.55l40.47-20.28c4.71-2.36,10.5-.44,12.87,4.27Z"/>
      <path class="cls-40" d="M579.07,442.79c1.18,2.36,1.29,4.98.52,7.31-.78,2.33-2.43,4.37-4.79,5.55l-19.6,9.82c-4.71,2.36-10.5.44-12.86-4.28-1.18-2.36-1.29-4.98-.52-7.31.78-2.33,2.43-4.37,4.79-5.55l19.6-9.82c4.71-2.36,10.5-.44,12.86,4.27Z"/>
      <rect class="cls-11" x="547.14" y="439.12" width="45.9" height="3.02" rx="1.36" ry="1.36" transform="translate(-137 302.11) rotate(-26.62)"/>
    </g>
  </g>
</svg>