<?xml version="1.0" encoding="UTF-8"?>
<svg id="Layer_4" data-name="Layer 4" xmlns="http://www.w3.org/2000/svg" viewBox="0 0 100 100">
  <defs>
    <style>
      .cls-1 {
        fill: #89c8fd;
      }

      .cls-2 {
        fill: #4d95ce;
      }

      .cls-3 {
        fill: #60b6fe;
      }

      .cls-4 {
        fill: #9facb9;
      }

      .cls-5 {
        fill: #4d95cf;
      }

      .cls-6 {
        fill: #eaedef;
      }

      .cls-7 {
        fill: #4d94ce;
      }

      .cls-8 {
        fill: #9eabb9;
      }

      .cls-9 {
        fill: #fd646f;
      }

      .cls-10 {
        fill: #9facba;
      }
    </style>
  </defs>
  <path class="cls-6" d="M78.65,4.94l-.49.36c-5.03-.26-7.02,4.36-6.84,8.81-.05,9,0,17.98.16,26.97l-.26.82s-.21.31-.21.66c0,2.65.03,5.3.01,7.94l-.37.26c-3.83.02-7.68.03-11.55.02-1.54.04-4.18.1-4.29,2.08l-.42.18-.27,1.26c-12.4.14-24.81.17-37.21.1-1.31.08-1.52,1.59-.14,1.78h33.27s.24.38.24.38c.52.17.52.4,0,.59-.3,1.68-.21,3.74.17,5.48-.05.6-.17,1.19-.37,1.76l-.14.39H16.86c-1.29.12-1.4,1.59-.08,1.77h33.27s.24.38.24.38c.64,2.49.6,5.32,0,7.82l-.14.39H16.87c-1.29.12-1.41,1.59-.08,1.77h33.27s.24.38.24.38l.39.28-.1,3.19c-.04,2.04.81,3.29,2.96,3.38,5.49.25,10.96.15,16.46,0,.37.05.71.18,1.02.39-.16,2.72.59,5.64-1.09,8.01-.66.93-2.95,2.75-4.09,2.75H1.79l1.75-.7c2.35-1.28,3.5-3.41,3.73-6.05V10.71c.25-2.92,2.84-5.52,5.77-5.77,20.58-.3,41.26.51,61.8-.2,1.19-.04,2.7-.11,3.82.2Z"/>
  <path class="cls-3" d="M91.95,64.98c.1.25.2.5.27.76s.13.51.14.77c.14,4.13.18,8.27.21,12.41-.06.53-.19,1.03-.42,1.51,0,.03-.19.22-.2.47-.11,2.18-.25,3.09-2.68,3.58-6.08.09-12.16.05-18.24.05-5.55,0-12.09.43-17.51,0-4.3-.33-3.19-3.97-3.22-7.24-.54-.83-.53-1.71,0-2.54-.02-2.6.04-5.22,0-7.82-.54-.56-.53-1.19,0-1.76l.14-.39c27.52-.13,41.28-.19,41.28-.19l.24.39Z"/>
  <path class="cls-8" d="M78.65,4.94c3.57.31,5.81,3.33,6.07,6.74.34,4.56-.03,9.92,0,14.58.2.2.33.43.39.7l-.09,7.39c-.21,3.45,1.91,6.04,5.1,7.06l.27.5c-6.32.28-12.83-.21-19.17,0,0-9.54-.76-19.93-.2-29.44.26-4.49,2.76-7.94,7.64-7.52Z"/>
  <path class="cls-7" d="M71.02,50.51c6.81-.02,14.96-.53,21.62,0,1.95.15,3.22.73,3.42,2.84.73,7.78-.55,16.73-.02,24.63-.27,1.95-2.11,2.69-3.89,2.46.12-5.03-.17-10.36-.2-15.45-.54-1.03-.53-2.1,0-3.13l-.39-.24.09-3.28c.06-1.26-.59-3.24-2.09-3.26-11.01-.15-22.06-.17-33.08-.14-.77,0-1.52-.15-2.27-.32-.44-.14-.52-.5-.04-.56l.24-1c.07-.26-.02-.55.15-.92.46-1.04,1.67-1.49,2.71-1.6,4.1-.43,9.51-.01,13.76-.02Z"/>
  <path class="cls-6" d="M84.71,26.26h13.49v9.88c0,.36-.71,1.97-.94,2.38-1.53,2.68-4.02,3.26-6.88,3.39-2.93-.87-5.4-2.92-5.68-6.15-.25-2.91.02-6.49,0-9.49Z"/>
  <path class="cls-3" d="M54.2,54.62c11.63-.45,23.58.3,35.25.05,3.41.45,2.47,4.62,2.5,7.19l-.14.39c-13.84.04-27.68.02-41.5-.08-.18-1.6-.22-3.38-.02-5.01.01-.19-.04-.43,0-.59-.71-.56.36-1.45.95-1.78.67-.38,2.51-.76,2.97-.18Z"/>
  <path class="cls-1" d="M50.29,57.16c-.11,1.52.08,3.16,0,4.69h41.66c.01,1.04,0,2.09,0,3.13l-41.66.2c-.61.1-.74-.51-.2-.78-.04-2.05-.02-4.11,0-6.16,0-.33-.12-.87.2-1.07Z"/>
  <polygon class="cls-9" points="26.63 11.79 26.63 16.68 31.52 16.68 31.52 21.76 26.63 21.76 26.63 26.65 21.54 26.65 21.54 21.76 16.65 21.76 16.65 16.68 21.54 16.68 21.54 11.79 26.63 11.79"/>
  <path class="cls-10" d="M16.6,43.71l44.55-.05c2.25-.07,2.25,2.62,0,2.56H17.14c-1.83.2-2.4-2.16-.53-2.5Z"/>
  <path class="cls-4" d="M62.56,35.4c-.23.25-1.04.45-1.4.45H24.57c-1.85.06-2.4-2.32-.39-2.56h37.17c1.15-.22,1.94,1.32,1.21,2.11Z"/>
  <path class="cls-10" d="M54.2,54.62c-1.4.05-3.51.18-3.91,1.96H16.75c-1.97-.23-1.57-2.68.38-2.55l36.96.02c.05,0,.25-.79.31-.99l-.2,1.56Z"/>
  <path class="cls-4" d="M50.29,74.76c0,.85,0,1.7,0,2.54H16.75c-1.88-.22-1.62-2.53.19-2.55h33.35Z"/>
  <path class="cls-4" d="M50.1,64.4c0,.4.19.74.2.78,0,.58,0,1.18,0,1.76H16.75c-1.88-.22-1.63-2.52.19-2.55h33.15Z"/>
  <path class="cls-1" d="M54.15,74.02l13.25-.03c1.56.25,1.59,2.33-.18,2.54-3.98.46-8.83-.34-12.9-.02-1.43-.16-1.55-2.18-.17-2.49Z"/>
  <path class="cls-1" d="M54.15,77.93l13.25-.03c1.56.25,1.59,2.33-.18,2.54-2.46.28-10.31.32-12.7-.02-1.7-.24-1.75-2.18-.37-2.48Z"/>
  <path class="cls-1" d="M79.83,73.59c.37.01,2.26-.08,2.35,0,.14.14-.26,1.5.19,1.96.49.49,4.33.04,5.28.19.02.78-.03,1.57,0,2.35-.02.15-.07.38-.18.39-1.33.1-3.49.1-4.82,0l-.28-.39c-.46.33-.04,2-.19,2.15-.08.08-1.98.02-2.35,0-.15-.04-.38-.11-.39-.23-.1-1.18-.2-5.13,0-6.14l.39-.29Z"/>
  <path class="cls-1" d="M54.15,70.11c.72-.16,5.06-.16,5.78,0,1.4.31,1.35,2.25-.17,2.49-.86.13-4.82.14-5.62-.03-1.3-.29-1.3-2.17,0-2.46Z"/>
  <path class="cls-2" d="M87.65,78.09s.2.23.21.48c.02.34-.09,1.67-.5,1.67h-4.99v-2.15h5.28Z"/>
  <path class="cls-5" d="M82.37,75.55v-2.15h4.79c.78,0,.73,1.62.69,2.15h-5.48Z"/>
  <path class="cls-5" d="M79.83,73.59v6.65c-.49-.03-1.2.15-1.47-.39-.19-.39-.17-5.3-.01-5.89.26-.93,1.13-.38,1.48-.37Z"/>
</svg>