<?xml version="1.0" encoding="UTF-8"?>
<svg id="Layer_4" data-name="Layer 4" xmlns="http://www.w3.org/2000/svg" viewBox="0 0 100 100">
  <defs>
    <style>
      .cls-1 {
        fill: #fec81d;
      }

      .cls-2 {
        fill: #e5e6e7;
      }

      .cls-3 {
        fill: #fbc3ad;
      }

      .cls-4 {
        fill: #f69119;
      }

      .cls-5 {
        fill: #f1ac97;
      }

      .cls-6 {
        fill: #fed1bf;
      }

      .cls-7 {
        fill: #f1ac96;
      }

      .cls-8 {
        fill: #e49076;
      }

      .cls-9 {
        fill: #f0f1f1;
      }

      .cls-10 {
        fill: #2266d2;
      }

      .cls-11 {
        fill: #377de1;
      }

      .cls-12 {
        fill: #414042;
      }

      .cls-13 {
        fill: #fea81a;
      }

      .cls-14 {
        fill: #fec71d;
      }

      .cls-15 {
        fill: #ee7816;
      }
    </style>
  </defs>
  <path class="cls-3" d="M50.49,53.61c-1.73,1.7-4.15,3.22-6.5,3.86-1.33,1.48-3.13,2.59-5.08,3.05l-.08.48c-2.4.45-1.31,1.59-.08,2.76,2.23,2.1,4.91,2.51,7.7,1.11,1.66-1.02,3.39-1.9,5.17-2.65l19.64,11.24c.85.56,1.63,1.19,2.37,1.89.76-.21,2.37.39,2.44,1.22,1.5,1.01,2.38,2.25,2.03,4.06-.65,1.41-2.49,1.28-3.75.82-4.39-2.54-8.76-5.12-13.11-7.74-.99-.92-1.67-.63-2.04.87l13.61,7.77c.41.31.75.68,1.03,1.12,1.84,1.17,3.24,1.86,2.84,4.47-.7,1.21-2.49,1.22-3.67.74-5.5-3.15-11-6.3-16.5-9.44-.14.03-.88,1.35-.82,1.39l13.56,7.79c.33.27.56.52.33.93.5.85.75,1.85.61,2.84-.66,1.3-2.63,1.19-3.85.75l-13.25-7.64c-.18.01-.99,1.34-.92,1.39l7.79,4.37c.36.32.34.57-.12.73.92,1.13,1.01,2.1.61,3.45-.57-.17-.11-.19-.16-.06-.26.65-1.75.69-2.39.63-.73-.07-5.79-2.71-5.9-3.09l.13-.73c-.3-.36-.43-.88-.39-1.56-.32-.64-.52-1.28-.62-1.89l-.51.08c-.94-.82-2.15-.9-3.29-.44l-.46-.25-.16-.49c.85-1.3.76-2.65-.04-3.94v-.44s-.5.09-.5.09c-.95-.82-2.19-.84-3.33-.43l-.43-.27-.18-.47c.8-1.31.74-2.66-.02-3.96v-.44c-.55,0-1.16-.2-1.82-.57l-2.14.14-.31-.39c-.11-.42,0-.89.32-1.43.1-1.07-.14-2.15-.73-3.24l-.48.12c-1.27-1.18-2.81-.83-4.14.05-1.94,1.42-3.98,2.5-6.1,3.26l-8.96-5.19v-.47s.36-1.13.36-1.13c3.27-6.15,6.73-12.19,10.38-18.12l.83-.85,10.46,6.09c1.09-1.41,1.54-3.41,3.3-4.21,3.04-1.37,4.7,1.21,7.36,1.98Z"/>
  <path class="cls-7" d="M82.77,70.05c.06.15.14.38.04.44-2.27,1.45-5.07,3.07-7.46,4.31-.57.47-1.14.64-1.72.52-7.27-4.4-14.74-8.48-22.08-12.76-3.7,1.57-6.28,4.69-10.75,3.05-1.26-.46-3.53-2.38-3.84-3.69-.22-.9,1.48-1.14,1.95-1.42l.49.1c1.3,2.82,7.67.15,4.44-2.64l.14-.5c2.17-1.27,4.3-2.64,6.5-3.86,1.47-.81,3.85-2.56,5.52-2.39,2.77.27,3.39,2.66,4.73,4.62l10.46-6.09c.17.1.33.22.47.35s.27.26.35.41c3.62,6.41,7.31,12.87,11.03,19.16l-.28.39Z"/>
  <path class="cls-13" d="M63.49,7.31c1.62,1.58,1.21,4.93.84,7.06l-.43.25-.77.05c-1.31-.5-4.06-1.63-5.15-2.31-.35-.22-.55-.42-.77-.78l-.43.25-3.75-1.89c-1.11-.55-2.24-.99-3.49-.77l-13.19,6.17c-1.32.86-1.22,2.7-1.06,4.11.73,6.55,2.4,12.98,7.2,17.85l.3.87.74.14c1.75,1.52,3.66,3.05,5.94,3.67l.22.45c.03.16.08.4-.02.47-.89.56-2.55,1.35-3.54,1.77-1.14.49-3.02,1.23-4.15,1.01-8.97-6.89-13.69-20.27-13.81-31.38-.02-1.44.87-3.04,2.1-3.79L49.39,1.64l2.12.09c4.02,1.8,8,3.7,11.98,5.59Z"/>
  <path class="cls-11" d="M28.16,44.88c-.15.6-.3,1.22-.61,1.77-3.36,6.01-6.87,12.1-10.34,17.94-.78,1.29-1.91,1.92-3.41,1.49l-8.37-4.68v-.47c4.18-7.28,8.25-14.63,12.57-21.84,3.3,1.87,7.05,3.64,10.16,5.8Z"/>
  <path class="cls-11" d="M95.16,60.91c.06.15.13.39.03.45-2.83,1.74-6.06,3.49-9.06,4.83-1.22.15-2.17-.61-2.77-1.61-3.46-5.85-6.98-11.93-10.34-17.94-.31-.55-.46-1.16-.61-1.77,3.14-2.14,6.84-3.91,10.16-5.8,4.32,7.21,8.39,14.57,12.58,21.84Z"/>
  <path class="cls-15" d="M44.4,47.31c.07-.62.63-.72,1.67-.31,11.75-2.22,17.62-13.65,20.44-24.53.95-3.66,2.06-9.49.58-12.92l.25-.41c2.82,1.38,5.17,1.61,5.09,5.59-.26,12.2-6.03,27.76-17.6,33.36-4.45,2.15-6.28,1.6-10.43-.78Z"/>
  <path class="cls-10" d="M72.42,44.88c3.72,5.93,6.85,12.25,10.52,18.21.92,1.49,1.54,3.17,3.7,2.61l8.52-4.78c.46.79,4.07,6.36,3.85,6.68l-11.14,6.22c-1.65.42-2.97-.41-3.87-1.74-.7.09-1.6-1.45-1.22-2.03-.12-.19-.17-.62-.37-.95-3.57-6.01-8.25-13.17-11.2-19.35-.85-1.78-1-3.33.71-4.68.19-.15.42-.14.51-.19Z"/>
  <path class="cls-10" d="M29.38,49.75c-4,6.6-7.57,13.5-11.57,20.1.39.5-.55,2.43-1.22,2.23-.82,1.25-2.34,2.18-3.87,1.74l-11.15-6.21c-.23-.31,3.41-5.92,3.86-6.7l8.52,4.78c2.16.56,2.77-1.12,3.7-2.61,3.68-5.95,6.8-12.28,10.52-18.21.08.06.32.05.51.19,1.5,1.19,1.76,3.1.71,4.68Z"/>
  <path class="cls-4" d="M67.34,9.14l.62,1.31c.71,1.88-.11,6.91-.47,9.09-1.5,9.05-5.37,18.45-12.87,24.08-1.83,1.37-6.06,3.82-8.32,3.81-.63,0-1.37-.5-1.89-.13-.86-.49-1.65-1.02-2.44-1.62l3.99-1.39,3.72-1.86.25-.38c10.54-2.11,14.99-14.2,15.51-23.96.07-1.3-.29-2.28-1.48-2.95l-.08-.51.41-4.56-.82-2.75c1.29.61,2.58,1.2,3.86,1.83Z"/>
  <path class="cls-7" d="M37.5,72.08c.39.54.61,1.35-.2,1.42l-.28.02c-2.52-2.13-4.85-.36-2.33,2.44l-.23.39.04.44-8.65,4.86c-1.22.38-2.81.27-3.37-1.05-.4-1.94.49-2.89,2.03-3.96l-7.91-4.57c.35-.54.8-1.54,1.22-2.23l9.05,5.28c1.08.11,5.9-3.67,7.55-4.02,1.31-.27,2.19.13,3.1.97Z"/>
  <path class="cls-7" d="M42.17,77.56c.17.52.42,1.39-.2,1.62-.53-.16-1.07-.53-1.61-1.12-2.69-.1-3.1,1-1.24,3.31l-.19.46.04.45-11.31,6.46c-1.15.37-2.71.65-3.55-.41-.36-1.23-.3-2.54.61-3.56.24-.26,1.44-1.06,1.83-1.32l.04-.51c3.8-1.83,7.42-3.93,10.86-6.28l.47.09,2.49-.15c.67.16,1.29.48,1.77.97Z"/>
  <path class="cls-7" d="M46.63,83.05c.18.51.41,1.4-.2,1.62h-.47c-.81-1.6-2.65-1.53-3.51-.05l1.3,2.23-.17.46-.41.63c-2.98,1.78-6.01,3.46-9.1,5.03-1.06.55-2.7.59-3.48-.38-.34-1.15-.29-2.2.41-3.25-.2-.2-.26-.42-.04-.6,3.41-2.19,6.92-4.26,10.54-6.2l.87-.11c1.54-.62,3.03-.61,4.26.61Z"/>
  <path class="cls-7" d="M76.68,87.92c-.14.91-1.04,2.11-1.89,2.48-2.04.9-2.95-.08-4.61-.97-.21-.11-.53-.04-.61-.09-.27-.15-.38-.5-.56-.6-4.6-2.61-9.15-5.32-13.77-7.92-.15-.23.94-2.03,1.05-2.05.94-.15,14.45,8.57,16.59,9.39,1.35.72,2.5.34,3.79-.24Z"/>
  <path class="cls-7" d="M78.1,80.61c-.43,2.22-2.09,3.07-4.26,2.84-4.93-3.12-10.3-5.68-15.22-8.83.38-.23.94-1.85,1.02-1.92.17-.12.54.06.74.14,4.6,1.98,9.48,6.04,14.12,8.21,1.26.48,2.48.33,3.6-.45Z"/>
  <path class="cls-7" d="M70.19,92.18c-.34,2.49-3.01,3.33-5.15,2.41-.7-.3-4.73-2.47-5.2-2.82-.02-.01.09-.3-.13-.42-2.62-1.5-5.31-2.91-7.91-4.45-.28-.43.89-1.71,1.03-2.23l13.5,7.81c1.32.59,2.62.35,3.86-.3Z"/>
  <path class="cls-8" d="M42.37,82.44c-3.16,2.27-7.2,3.8-10.34,6.01-.45.32-.7.4-1.03.9-1.05.16-1.86,1.03-2.88,1.28-1.8.44-3.5-.51-4.02-2.3l1.95.39,1.44-.35,11.43-6.53c1.3.35,2.46-.03,2.82-1.55-.19-.53-.12-.89.22-1.09-.02-.49-.14-1.3.2-1.62,1.4,1.4,1.23,3.31.2,4.87Z"/>
  <path class="cls-8" d="M46.84,87.92l-.18.53c-.59.47-5.47,3.54-5.8,3.46-.11-.03-.21-.07-.32-.13-1.25.71-5.29,3.17-6.4,3.25-1.69.12-3.08-.85-3.55-2.44l2.13.42c3.86-1.15,7.15-4.07,10.86-5.7l.44-.11c1.01.92,2.62-1.03,2.03-2.14l.37-.39c-.02-.49-.14-1.3.2-1.62,1.43,1.41,1.31,3.31.2,4.87Z"/>
  <path class="cls-7" d="M51.1,88.53c.18.47.39,1.23-.2,1.42l-.44-.03c-.91-1.56-4.59-1.01-2.96,1.19.52.65.71,1.21.56,1.68l-.14.49c-1.72,1.2-5.85,3.77-7.46,1.89l-.32.05c-.42-1.43-.18-2.12.41-3.45,1.87-1.07,4.41-3.04,6.29-3.86,1.61-.7,3-.6,4.26.61Z"/>
  <path class="cls-8" d="M37.9,76.75c-1.72,2.03-8.77,5.01-11.37,6.7-2.12.21-3.62-.73-4.06-2.84.92.72,2.07,1.05,3.21.67l8.77-4.94c1.71.53,3.14-.63,2.48-2.45l.36-.39c0-.27.39-.97.2-1.42,1.4,1.28,1.69,3.16.41,4.67Z"/>
  <path class="cls-8" d="M52.12,91.98c.42.82-.88,2.36-1.83,2.23-.97.68-4.35,2.61-5.4,3.02-1.94.75-4.13.08-4.75-2.01-.16-.77.93.13,1.33.19,2.6.38,4.31-1.78,6.59-2.63l.43-.12c1.05.94,2.74-1.15,2.05-2.31l.36-.42c-.03-.42-.12-1.17.2-1.42.94.9,1.28,2.15,1.02,3.45Z"/>
  <path class="cls-8" d="M82.77,70.05c.37.61.81,1.43,1.22,2.03l-7.92,4.47c-.53-.36-1.76-.81-2.44-1.22l9.14-5.28Z"/>
  <path class="cls-5" d="M52.12,91.98c-.03.5.31.52.61.71,1.09.75,4.4,2.72,5.59,2.75.7.02,1.05-.19,1.66-.38.34-.11.52-.55.47.16-.42,1.42-1.83,2.39-3.32,2.36-2.08-.04-4.81-2.71-6.83-3.38.53-.37,1.7-1.62,1.83-2.23Z"/>
  <path class="cls-6" d="M38.92,60.51c1.66-1,3.37-2.04,5.08-3.05.61.88,1.91,2.43.8,3.34-1.79,1.49-4.73,2.44-5.88-.3Z"/>
  <path class="cls-9" d="M57.19,11.58l.64.64c.48,1.07.02,4.83-.22,6.11l-.43.36c-.06.41-.36.8-.9,1.18l-6.65,8.82c-.24.32-.62.37-.94.13l-3.13-3.04c-1.26-1.94-4.51-1.02-3.28,1.35.53,1.02,5.27,5.24,6.38,5.91.6.08.94.31,1.01.68,1.56-.11-.16,1.3-.79,1.79-1.65,1.29-3.48,2.51-5.56,2.91l-.55-.24c-4.71-4.54-6.92-10.53-7.69-16.98-.23-1.94-.91-5.03,1.05-6.2l13.28-6.21c.63-.09,1.26-.11,1.89.05,1.45.36,4.32,2.04,5.88,2.75Z"/>
  <path class="cls-2" d="M63.89,14.62c2.34,1.29,2.04,2.81,1.83,5.18-.63,7.05-3.29,14.75-8.84,19.39-1.49,1.25-5.26,3.54-7.2,3.25-2.24-.33-5.31-2.73-6.9-4.26,2.32-.43,4.64-1.91,6.4-3.45.08-.07,1.43-1.19.5-1.02-.03-.39.31-.75,1.03-1.08l8.52-11.25c.57-1.31-.36-2.48-1.76-2.33l-.28-.37c.08-2.35.95-4.83,0-7.11,2.13.96,4.69,1.94,6.7,3.05Z"/>
  <path class="cls-1" d="M31.77,18.73c.28.3,1.4,6.73,1.73,7.91,1.34,4.82,3.17,8.51,6.24,12.44.43.56,3.22,2.84,1.47,3.33-.67.19-1.25-.62-1.69-1.08-4.66-4.86-8.79-14.84-9.13-21.54-.05-1.02.75-1.73,1.38-1.06Z"/>
  <path class="cls-14" d="M30.73,15.08c1.04-.09,1.18,1.55.55,1.76-1.41.47-1.83-1.65-.55-1.76Z"/>
  <path class="cls-6" d="M37.3,73.5c0,.44.27.9.21,1.52-.11,1.3-2.09,2.69-3.06,1.32-.19-.27-1.28-2.22-1.34-2.44-.46-1.8,3.49-2.54,4.18-.41Z"/>
  <path class="cls-6" d="M41.97,79.19c.02.44.24.81.17,1.27-.2,1.25-2.24,2.8-3.21,1.37-.27-.4-1.33-2.3-1.48-2.71-.25-.7,1.92-1.62,2.57-1.55,1.01.1,1.39.94,1.95,1.62Z"/>
  <path class="cls-6" d="M46.43,84.67c.05,1.06.52,1.42-.5,2.45-.82.83-1.59,1.15-2.34.19-.31-.39-1.46-2.25-1.53-2.62-.12-.63,1.05-1.36,1.56-1.5,1.4-.4,2.14.37,2.81,1.49Z"/>
  <path class="cls-6" d="M50.9,89.95c.09,1.18.61,1.58-.5,2.65-.85.82-1.57,1.17-2.34.19-.41-.52-1.51-2.36-1.43-2.93.21-1.49,3.69-1.79,4.27.09Z"/>
  <path class="cls-12" d="M49.68,33.71c-.2.02-.98-.22-1.2-.32-.64-.31-5.47-4.72-6.12-5.46-1.7-1.94-.23-4.19,2.09-3.51.88.26,4.4,4.22,4.71,4.22l6.81-9.03c.28-.33.78-.84,1.21-.92,1.84-.35,3.17,1.18,2.39,2.9l-8.57,11.32c-.2.22-1.14.78-1.33.8Z"/>
</svg>