<?xml version="1.0" encoding="UTF-8"?>
<svg id="Layer_7" data-name="Layer 7" xmlns="http://www.w3.org/2000/svg" viewBox="0 0 800 600">
  <defs>
    <style>
      .cls-1 {
        fill: #574943;
      }

      .cls-2 {
        fill: #d6948f;
      }

      .cls-3 {
        fill: #e09d38;
      }

      .cls-4 {
        fill: #ffc654;
      }

      .cls-5 {
        fill: #c84030;
      }

      .cls-6 {
        fill: #baf3ff;
      }

      .cls-7 {
        opacity: .3;
      }

      .cls-8 {
        fill: #362c29;
      }

      .cls-9 {
        fill: #0a0808;
      }

      .cls-10 {
        fill: #428aa8;
      }

      .cls-11 {
        fill: #fff;
      }

      .cls-12 {
        fill: #c7a495;
      }

      .cls-13 {
        fill: #6a7147;
      }

      .cls-14 {
        fill: #a16739;
      }

      .cls-15 {
        fill: #e6e1dd;
      }

      .cls-16 {
        fill: #f4efe9;
      }

      .cls-17 {
        fill: #d7b37f;
      }

      .cls-18 {
        fill: #8a1c14;
      }

      .cls-19 {
        fill: #e0e0e0;
      }

      .cls-20 {
        fill: #fa5c52;
      }

      .cls-21 {
        fill: #c4c4c4;
      }

      .cls-22 {
        fill: #b5afa7;
      }

      .cls-23 {
        fill: #ff9f3d;
      }

      .cls-24 {
        fill: #fdb053;
      }

      .cls-25 {
        opacity: .2;
      }

      .cls-26 {
        fill: #ff6452;
      }

      .cls-26, .cls-27 {
        opacity: .6;
      }

      .cls-28 {
        fill: #ebebeb;
      }

      .cls-29 {
        fill: #ffec7a;
      }

      .cls-30 {
        fill: #f5f5f5;
      }

      .cls-27, .cls-31 {
        fill: #9fb366;
      }

      .cls-32 {
        fill: #c79e64;
      }

      .cls-33 {
        fill: #f0c6b4;
      }

      .cls-34 {
        fill: #ab281f;
      }

      .cls-35 {
        fill: #ffec00;
      }

      .cls-36 {
        fill: #ff523d;
      }

      .cls-36, .cls-37 {
        opacity: .5;
      }

      .cls-38 {
        fill: #f0b3af;
      }
    </style>
  </defs>
  <g>
    <g>
      <polygon class="cls-11" points="335.15 56.82 465.11 56.82 577.68 121.8 642.65 234.32 642.65 364.32 577.68 476.86 465.14 541.85 335.15 541.85 222.6 476.86 157.61 364.32 157.61 234.32 222.6 121.8 335.15 56.82"/>
      <path class="cls-20" d="M585.14,114.33l-117.3-67.71h-135.42l-117.29,67.71-67.72,117.27v135.45l67.72,117.28,117.29,67.72h135.45l117.27-67.72,67.7-117.28v-135.45l-67.7-117.27ZM632.45,361.58l-62.24,107.81-107.81,62.26h-124.52l-107.82-62.26-62.25-107.81v-124.52l62.25-107.8,107.82-62.25h124.49l107.83,62.25,62.24,107.8v124.52Z"/>
    </g>
    <g>
      <polygon class="cls-7" points="420.1 440.86 380.34 440.86 352.2 457.13 352.2 480.07 380.34 496.32 420.1 496.32 448.24 480.07 448.24 457.13 420.1 440.86"/>
      <polygon class="cls-33" points="351.26 209.02 386.47 205.34 394.47 194.22 391.47 182.85 376.34 183.35 358.5 191.17 345.65 202.59 351.26 209.02"/>
      <polygon class="cls-12" points="361.44 189.89 358.17 198.82 352.92 202.34 356.57 193.91 359.35 190.8 361.44 189.89"/>
      <polygon class="cls-9" points="383.45 456.15 356.25 464.35 356.25 465.72 357.12 469.96 371.49 469.96 385.6 463.72 399.59 462.85 405.21 458.67 405.21 457.28 383.45 456.15"/>
      <polygon class="cls-11" points="383.32 443.74 375.07 452.06 358.13 459.72 356.25 464.35 357.12 468.59 371.49 468.59 385.6 462.35 399.59 461.47 405.21 457.28 404.48 451.01 401.99 443.71 383.32 443.74"/>
      <polygon class="cls-8" points="386.46 432.5 383.32 443.74 393.06 448.11 401.99 443.71 403.63 432.43 386.46 432.5"/>
      <polygon class="cls-33" points="403.63 432.43 408.64 397.15 402.46 376.74 406.96 354.87 403.21 337.97 387.67 337.97 378.98 344.86 381.29 366.81 381.29 375.05 385.6 389.1 386.91 406.9 386.46 432.5 394.47 436.24 403.63 432.43"/>
      <polygon class="cls-9" points="425.5 475.15 413.45 484.83 413.45 486.2 418.26 488.83 427.31 487.45 434.31 477.83 435.68 469.85 436.81 466.34 436.81 464.97 425.5 475.15"/>
      <polygon class="cls-11" points="423.07 456.91 421.07 464.09 413.45 479.33 413.45 484.83 418.26 487.45 427.31 486.08 434.31 476.46 435.68 468.47 436.81 464.97 435.99 455.61 423.07 456.91"/>
      <polygon class="cls-8" points="423.07 443.99 423.07 456.91 429.25 459.72 435.99 455.61 435.99 443.06 423.07 443.99"/>
      <polygon class="cls-33" points="435.99 443.06 435.99 432.94 439.74 398.84 434.49 379.36 436.79 353.85 421 350.14 406.96 353.51 416.88 386.29 418.01 405.4 423.07 435.18 423.07 443.99 429.53 446.85 435.99 443.06"/>
      <polygon class="cls-32" points="378.98 264.65 374.49 283.76 375.49 343.46 392.16 350.14 411.65 345.58 404.89 272.21 378.98 264.65"/>
      <polygon class="cls-17" points="378.98 264.65 379.86 284.26 387.59 304.37 400.22 318.95 402.78 353.82 422.07 358.69 441.05 352.45 441.67 298.62 426.56 273.27 378.98 264.65"/>
      <polygon class="cls-33" points="380.92 254.41 378.98 264.65 391.34 276.14 415.71 277.64 426.56 273.27 425.99 263.32 380.92 254.41"/>
      <polygon class="cls-12" points="418.38 166.36 419.51 173.4 425.88 188.28 426.44 192.5 423.26 200.56 400.22 201.4 396.38 180.7 400.22 164.45 416.8 157.94 418.38 166.36"/>
      <polygon class="cls-24" points="425.88 188.28 422.32 197.28 401.3 199.34 399.55 185.15 390.66 182.29 387.67 188.47 386.47 198.59 373.05 219.38 371.36 229.5 378.41 239.06 380.92 254.41 393.09 263.78 415.2 267.15 426.81 263.03 434.25 249.65 441.05 205.34 425.88 188.28"/>
      <polygon class="cls-23" points="378.41 239.06 407.91 250.16 416.16 247.08 419.62 239.9 417.31 248.39 408.14 252.94 378.41 239.06"/>
      <polygon class="cls-33" points="375.95 159.62 377.36 163.65 379.7 164.87 380.16 171.62 390.19 187.26 403.95 184.17 410.89 171.33 410.24 164.68 415.39 161.31 416.8 153.82 412.7 145.95 401.3 141.64 388.51 142.56 377.55 149.23 375.95 159.62"/>
      <polygon class="cls-12" points="377.19 163.18 386.85 154 398.01 150.99 395.65 146.64 386.77 148.39 377.23 157.19 376.34 160.72 377.19 163.18"/>
      <polygon class="cls-1" points="422.75 122.7 417.05 127.12 416.14 134.27 420.56 139.97 427.7 140.87 433.41 136.46 434.31 129.31 429.9 123.61 422.75 122.7"/>
      <polygon class="cls-22" points="416.64 130.57 412.68 133.65 412.05 138.62 415.13 142.58 420.09 143.21 424.06 140.14 424.69 135.17 421.62 131.21 416.64 130.57"/>
      <polygon class="cls-1" points="391.6 148.57 400.75 152.03 406.21 161.31 406.21 155.38 409.02 150.63 412.95 150.63 415.39 154.38 415.39 161.31 418.38 166.36 424.19 154.38 421.76 142.18 412.39 131.15 400.22 128.16 387.85 131.53 378.41 141.27 379.04 148.1 391.6 148.57"/>
      <polygon class="cls-33" points="337.27 208.46 336.4 203.34 340.77 190.1 364.75 155.38 376.61 141.52 383.48 138.52 394.47 139.64 394.47 148.76 385.35 152.63 375.61 161.37 369.99 162.87 356.5 198.28 351.26 209.02 342.51 210.57 337.27 208.46"/>
      <polygon class="cls-33" points="403.21 288.51 388.22 297.87 384.39 304.71 384.39 316.33 388.69 318.95 394.59 317.17 397.12 311.08 407.33 300.78 408.64 295.81 407.61 291.22 403.21 288.51"/>
      <polygon class="cls-33" points="434.68 206.27 429.99 211.89 428.12 224.44 438.06 265.28 431.88 267.71 403.21 288.51 408.64 295.81 442.55 284.57 454.92 272.02 447.61 210.57 441.05 205.34 434.68 206.27"/>
      <g>
        <path class="cls-35" d="M430.92,117.87l-18.21-9.12-21.89-7.55-20.19-3.27-13.16,2.12-2.11,6.87,9.48,9.15,17.97,9.57,21.99,7.49,20.24,3.17,13.36-2.01,2.25-7.2-9.74-9.21ZM437.27,132.92l-12.22,1.78-19.91-2.95-21.99-6.88-18.02-9.2-8.92-8.97,2.01-5.79,12.42-1.68,19.98,2.84,22.05,6.81,17.78,9.64,8.67,8.92-1.85,5.48Z"/>
        <path class="cls-35" d="M421.82,94.37l-19.33,6.43-20.82,10.14-16.59,11.96-7.81,10.8,3.36,6.35,13.18-.24,19.48-5.94,20.84-10.25,16.55-12.08,8.03-10.86-3.5-6.69-13.39.37ZM436.95,100.54l-7.38,9.9-16.17,12-20.41,10.67-19.24,6.24-12.65-.04-2.68-5.52,7.6-9.97,16.14-12.12,20.4-10.77,19.4-5.76,12.44.17,2.56,5.19Z"/>
        <g>
          <polygon class="cls-5" points="415.63 92.74 413.48 94.88 413.48 97.93 415.63 100.09 418.67 100.09 420.82 97.93 420.82 94.88 418.67 92.74 415.63 92.74"/>
          <polygon class="cls-5" points="367.06 137.97 365.98 139.05 365.98 140.57 367.06 141.64 368.58 141.64 369.66 140.57 369.66 139.05 368.58 137.97 367.06 137.97"/>
          <polygon class="cls-10" points="379.35 120.71 377.19 122.86 377.19 125.91 379.35 128.06 382.39 128.06 384.53 125.91 384.53 122.86 382.39 120.71 379.35 120.71"/>
          <polygon class="cls-10" points="417.77 109.76 416.6 110.93 416.6 112.59 417.77 113.76 419.43 113.76 420.6 112.59 420.6 110.93 419.43 109.76 417.77 109.76"/>
        </g>
      </g>
    </g>
  </g>
  <g>
    <polygon class="cls-6" points="277.87 10.47 230.73 10.47 189.91 34.04 166.35 74.85 166.35 121.99 189.91 162.8 230.72 186.37 277.87 186.37 318.68 162.8 342.25 121.99 342.25 74.85 318.68 34.04 277.87 10.47"/>
    <path class="cls-24" d="M162.65,73.86v49.12l24.55,42.53,42.53,24.56h49.12l42.54-24.56,24.56-42.53v-49.12l-24.56-42.53-42.54-24.56h-49.12l-42.54,24.56-24.55,42.53ZM170.05,75.84l22.57-39.1,39.1-22.57h45.15l39.1,22.57,22.58,39.1v45.16l-22.58,39.1-39.1,22.58h-45.16l-39.1-22.58-22.57-39.1v-45.16Z"/>
  </g>
  <g>
    <polygon class="cls-7" points="274.42 109.37 234.17 109.37 205.69 125.84 205.69 149.06 234.17 165.52 274.42 165.52 302.9 149.06 302.9 125.84 274.42 109.37"/>
    <polygon class="cls-21" points="291.76 43.72 302.54 57.35 309.01 73.59 314.42 84.44 311.12 71.39 306.31 55.18 294.34 42.34 285.05 33.56 291.76 43.72"/>
    <polygon class="cls-19" points="279.24 43.13 303.21 84.65 312.04 97.92 314.42 84.44 305.78 55.48 285.05 33.56 272.07 28.73 279.24 43.13"/>
    <polygon class="cls-28" points="235.16 44.01 264.57 50.93 289.14 93.49 280.41 122.37 284.37 137.44 300.38 123.89 312.04 97.92 300.35 58.61 272.07 28.73 243.85 25.99 224.1 33.04 235.16 44.01"/>
    <polygon class="cls-30" points="208.08 46.63 217.51 55.32 245.77 68.6 264.45 100.92 261.8 132.04 264.61 144.53 284.37 137.44 296.8 109.76 284.35 67.85 254.19 36.03 224.1 33.04 208.08 46.63"/>
    <polygon class="cls-11" points="196.42 72.46 194.18 86.01 199.19 81.68 211.05 75.55 231.75 81.3 246.41 106.7 241.04 127.48 229.82 134.72 223.56 136.91 236.39 141.68 264.61 144.53 276.29 118.55 264.61 79.25 236.31 49.38 208.08 46.63 196.42 72.46"/>
    <polygon class="cls-15" points="194.18 86.01 200.57 95.4 207 92.84 217.52 99.85 223.22 109.74 224.03 122.36 218.64 126.69 223.56 136.91 244.33 138.95 252.96 119.94 244.32 90.96 223.58 69.04 202.79 67 194.18 86.01"/>
    <polygon class="cls-31" points="194.18 86.01 197.36 99.02 202.2 115.29 213.88 127.65 223.56 136.91 245.1 139.64 253.77 120.35 245.01 91 224 68.78 202.93 66.59 194.18 86.01"/>
    <g class="cls-37">
      <polygon class="cls-13" points="207.29 73.41 221.56 104.1 210.4 73.41 207.29 73.41"/>
      <polygon class="cls-13" points="216.08 73.97 221.56 104.1 219.88 74.89 216.08 73.97"/>
      <polygon class="cls-13" points="224.45 77.33 221.56 104.1 227.46 79.91 224.45 77.33"/>
      <polygon class="cls-13" points="231.3 82.51 221.56 104.1 234.14 85.45 231.3 82.51"/>
      <polygon class="cls-13" points="236.47 89.42 221.56 104.1 239.03 92.64 236.47 89.42"/>
      <polygon class="cls-13" points="241.93 95.6 221.56 104.1 242.97 99.49 241.93 95.6"/>
      <polygon class="cls-13" points="244.21 103.6 221.56 104.1 245.45 108.18 244.21 103.6"/>
      <polygon class="cls-13" points="245.77 112.08 221.56 104.1 246.2 117.19 245.77 112.08"/>
      <polygon class="cls-13" points="243.43 125.2 245.25 121.17 221.56 104.1 243.43 125.2"/>
      <polygon class="cls-13" points="241.74 128.14 221.56 104.1 239.64 132.58 241.74 128.14"/>
      <polygon class="cls-13" points="226.43 132.58 221.56 104.1 222.55 132.24 226.43 132.58"/>
      <polygon class="cls-13" points="236.02 134.26 221.02 104.21 231.58 135.19 236.02 134.26"/>
      <polygon class="cls-13" points="218.76 128.69 221.56 104.1 215.41 125.28 218.76 128.69"/>
      <polygon class="cls-13" points="212.75 122.15 221.56 104.1 209.41 118.72 212.75 122.15"/>
      <polygon class="cls-13" points="206.42 115.23 221.56 104.1 204.65 111.72 206.42 115.23"/>
      <polygon class="cls-13" points="203.33 107.3 221.56 104.1 201.92 103.79 203.33 107.3"/>
      <polygon class="cls-13" points="201.01 99.1 221.56 104.1 199.88 94.91 201.01 99.1"/>
      <polygon class="cls-13" points="199.61 89.42 221.56 104.1 199.78 84.88 199.61 89.42"/>
      <polygon class="cls-13" points="201.92 81.46 221.56 104.1 203.82 77.33 201.92 81.46"/>
    </g>
    <polygon class="cls-9" points="216.83 101.39 218.22 106.03 221.56 109.56 224.91 109.89 226.28 106.83 224.89 102.18 221.57 98.66 218.22 98.3 216.83 101.39"/>
  </g>
  <g>
    <g>
      <polygon class="cls-6" points="522.14 10.47 569.27 10.47 610.09 34.04 633.65 74.85 633.65 121.99 610.09 162.8 569.28 186.37 522.14 186.37 481.32 162.8 457.75 121.99 457.75 74.85 481.32 34.04 522.14 10.47"/>
      <path class="cls-24" d="M612.8,31.33l-42.54-24.56h-49.11l-42.54,24.56-24.56,42.53v49.12l24.56,42.53,42.54,24.56h49.12l42.53-24.56,24.55-42.53v-49.12l-24.55-42.53ZM629.96,121l-22.57,39.1-39.1,22.58h-45.16l-39.1-22.58-22.57-39.1v-45.16l22.57-39.1,39.1-22.57h45.15l39.1,22.57,22.57,39.1v45.16Z"/>
    </g>
    <g>
      <g>
        <g>
          <polygon class="cls-34" points="526.94 64.96 520.61 62.59 513.56 64.94 509.93 70.64 516.85 98.02 538.82 90.54 526.94 64.96"/>
          <polygon class="cls-36" points="520.08 89.32 513.56 64.94 509.93 70.64 516.85 98.02 520.08 89.32"/>
          <polygon class="cls-25" points="526.94 64.96 520.61 62.59 529.79 90.1 516.85 98.02 538.82 90.54 526.94 64.96"/>
        </g>
        <polygon class="cls-7" points="554.37 140.57 531.24 140.57 514.87 150.04 514.87 163.37 531.24 172.83 554.37 172.83 570.72 163.37 570.72 150.04 554.37 140.57"/>
        <g>
          <polygon class="cls-5" points="574.55 89.86 560.83 74.74 542.8 69.81 524.78 74.74 511.05 89.86 506.76 118.06 520.95 142.32 542.8 157.68 564.66 142.32 573.8 126.7 575.7 124.74 576.61 121.89 578.86 118.06 574.55 89.86"/>
          <g>
            <g>
              <polygon class="cls-18" points="564.2 82.09 567.64 88.96 567.95 89.58 567.65 90.15 562.48 100.13 562.36 100.37 562.18 100.51 550.96 109.15 550.89 109.2 550.85 109.23 536.18 117.31 536.33 117.17 528.8 126.49 528.84 126.39 525.03 140.01 528.29 126.24 528.3 126.2 528.34 126.14 535.49 116.52 535.55 116.45 535.64 116.39 549.94 107.67 549.84 107.74 560.76 98.73 560.45 99.11 565.33 88.99 565.34 90.18 561.58 83.48 564.2 82.09"/>
              <polygon class="cls-18" points="550.94 109.09 536.53 121.04 536.67 120.88 532.28 128.25 532.3 128.17 530.33 137.33 531.75 128.07 531.75 128.03 531.78 127.98 535.64 120.31 535.69 120.23 535.78 120.15 549.84 107.8 550.94 109.09"/>
              <polygon class="cls-18" points="557.56 104 543.67 107.91 543.79 107.87 532.2 113.41 532.32 113.33 525.97 120.37 525.99 120.35 522.92 125.26 525.74 120.2 525.75 120.2 525.75 120.18 531.74 112.83 531.78 112.78 531.85 112.73 543.15 106.62 543.19 106.6 543.26 106.58 556.93 101.97 557.56 104"/>
              <polygon class="cls-18" points="539.47 118.54 538.75 124.72 538.74 124.82 538.73 124.87 534.68 134.58 537.76 124.52 537.73 124.66 537.78 118.44 539.47 118.54"/>
              <polygon class="cls-18" points="576.2 125.12 573.81 126.71 561.4 130.21 561.51 130.17 549.92 135.7 550.04 135.61 543.7 142.67 543.71 142.65 540.64 147.55 543.46 142.5 543.47 142.49 543.48 142.48 549.46 135.12 549.5 135.07 549.57 135.04 560.87 128.92 560.91 128.9 560.98 128.88 575.28 124.17 576.61 121.89 576.2 125.12"/>
              <polygon class="cls-18" points="559.65 130.82 557.02 138.54 552.25 142.84 556.07 138.2 558 131.35 559.65 130.82"/>
            </g>
            <polygon class="cls-26" points="526.23 96.1 536.62 85.21 542.8 69.81 524.78 74.74 511.05 89.86 506.76 118.06 520.95 142.32 542.8 157.68 527.94 140.22 521.68 119.51 526.23 96.1"/>
            <g>
              <polygon class="cls-18" points="534.48 72.09 528.5 79.62 528.58 79.4 527.81 89.08 527.8 89.03 529.55 96.84 527.42 89.12 527.42 89.1 527.42 89.07 527.71 79.35 527.71 79.24 527.78 79.14 532.69 72.16 533.86 71.51 534.48 72.09"/>
              <polygon class="cls-18" points="532.49 72.63 525.06 80.31 525.18 80.09 523.7 89.16 523.7 89.09 525.03 93.02 523.42 89.2 523.4 89.16 523.4 89.13 524.38 79.98 524.4 79.87 524.49 79.76 530.27 73.24 531.6 72.26 532.49 72.63"/>
            </g>
            <polygon class="cls-7" points="574.55 89.86 560.83 74.74 542.8 69.81 548.8 83.57 562.53 92.7 562.77 94.29 563.91 95.36 563.41 98.34 566.22 116.21 558.65 139.29 542.8 157.68 564.66 142.32 573.8 126.71 576.2 125.12 576.61 121.89 578.86 118.06 574.55 89.86"/>
          </g>
        </g>
        <g>
          <polygon class="cls-34" points="569.84 63.72 554.16 70.04 546.88 87.59 550.24 93.02 556.22 95.04 562.53 92.7 564.83 80.44 570.01 78.19 574.09 80.2 580.95 68.46 569.84 63.72"/>
          <polygon class="cls-36" points="569.84 63.72 554.16 70.04 546.88 87.59 550.24 93.02 557.37 72.65 569.92 67.78 576.16 70.28 580.95 68.46 569.84 63.72"/>
          <polygon class="cls-25" points="569.74 73.96 560.83 78.27 556.22 95.04 562.53 92.7 564.83 80.44 570.01 78.19 574.09 80.2 573.32 75.14 569.74 73.96"/>
          <polygon class="cls-18" points="580.95 68.46 576.16 70.28 573.32 75.14 574.09 80.2 578.03 82.5 582.82 80.69 585.66 75.83 584.89 70.77 580.95 68.46"/>
          <polygon class="cls-7" points="580.68 69.79 576.79 71.26 574.49 75.21 575.12 79.31 578.31 81.18 582.19 79.71 584.5 75.77 583.88 71.66 580.68 69.79"/>
        </g>
        <g>
          <g>
            <polygon class="cls-34" points="564.46 43.06 540.28 55.49 532.69 80.16 536.62 85.21 542.78 86.57 548.8 83.57 552.01 64.68 566.19 57.43 582.32 65.35 587.88 52.95 564.46 43.06"/>
            <polygon class="cls-36" points="564.46 43.06 540.28 55.49 532.69 80.16 536.62 85.21 543.61 58.35 552.82 52.95 559.57 49.48 564.48 46.95 583.31 55.26 587.88 52.95 564.46 43.06"/>
            <polygon class="cls-25" points="565.74 53.61 547.95 63.01 542.78 86.57 548.8 83.57 552.01 64.68 566.19 57.43 582.32 65.35 580.95 60.08 565.74 53.61"/>
            <polygon class="cls-18" points="587.88 52.95 583.31 55.26 581.01 60.4 582.32 65.35 586.48 67.22 591.05 64.9 593.35 59.76 592.04 54.81 587.88 52.95"/>
            <polygon class="cls-7" points="587.72 54.53 584.16 56.33 582.37 60.33 583.39 64.19 586.63 65.63 590.19 63.84 591.99 59.84 590.96 55.98 587.72 54.53"/>
          </g>
          <g>
            <polygon class="cls-34" points="561.47 35.1 560.34 45.79 560.29 47.55 563.23 50.01 567.44 50.08 570.45 47.7 570.5 45.95 569.98 35.23 561.47 35.1"/>
            <polygon class="cls-36" points="561.47 35.1 560.34 45.79 560.29 47.55 563.23 50.01 563.89 40.01 561.47 35.1"/>
            <polygon class="cls-25" points="567.41 40.07 567.45 48.71 563.23 50.01 567.44 50.08 570.45 47.7 570.5 45.95 569.98 35.23 567.41 40.07"/>
            <polygon class="cls-20" points="561.43 37.96 563.89 40.01 567.41 40.07 569.94 38.09 569.98 35.23 567.52 33.17 563.99 33.12 561.47 35.1 561.43 37.96"/>
            <polygon class="cls-37" points="562.17 37.81 564.22 39.53 567.17 39.57 569.28 37.92 569.31 35.53 567.26 33.81 564.31 33.77 562.2 35.43 562.17 37.81"/>
          </g>
          <g>
            <polygon class="cls-34" points="575.14 37.97 571.77 46.78 570.91 49.33 573.12 52.47 577.17 53.61 580.69 52.11 581.08 50.78 583.34 40.29 575.14 37.97"/>
            <polygon class="cls-36" points="575.14 37.97 571.77 46.78 570.91 49.33 573.12 52.47 576.22 43.34 575.14 37.97"/>
            <polygon class="cls-25" points="579.61 44.3 577.65 52.28 573.12 52.47 577.17 53.61 580.69 52.11 581.08 50.78 583.34 40.29 579.61 44.3"/>
            <polygon class="cls-20" points="574.37 40.72 576.22 43.34 579.61 44.3 582.56 43.04 583.34 40.29 581.49 37.67 578.09 36.7 575.14 37.97 574.37 40.72"/>
            <polygon class="cls-37" points="575.11 40.68 576.65 42.88 579.49 43.68 581.94 42.62 582.6 40.33 581.06 38.13 578.22 37.33 575.76 38.39 575.11 40.68"/>
          </g>
          <g>
            <polygon class="cls-34" points="548.52 38.75 549.52 51.02 552.82 52.95 556.99 52.3 559.55 49.45 558.91 46.33 556.93 37.44 548.52 38.75"/>
            <polygon class="cls-36" points="548.52 38.75 549.52 51.02 552.82 52.95 551.74 43.18 551.55 39.57 548.52 38.75"/>
            <polygon class="cls-25" points="555.22 42.64 556.65 51.04 552.82 52.95 556.99 52.3 559.55 49.45 558.91 46.33 556.93 37.44 555.22 42.64"/>
            <polygon class="cls-20" points="548.96 41.57 551.74 43.18 555.22 42.64 557.37 40.26 556.93 37.44 554.16 35.83 550.67 36.38 548.52 38.75 548.96 41.57"/>
            <polygon class="cls-37" points="549.62 41.29 551.94 42.64 554.85 42.19 556.65 40.2 556.28 37.85 553.96 36.5 551.05 36.95 549.25 38.94 549.62 41.29"/>
          </g>
        </g>
      </g>
      <g>
        <polygon class="cls-3" points="536.47 145.59 532.5 147.88 531.63 139.26 524.58 100.22 519.53 123.89 515.56 126.19 511.29 106.88 485.45 91.76 484.06 90.03 488.03 87.74 515.76 103.75 517.83 111.56 522.34 89.45 522.5 84.39 526.47 82.09 535.8 133.28 541.69 112.88 541.85 108.11 545.81 105.82 550.01 123.74 577.84 139.8 577.84 141.78 573.86 144.07 545.44 126.59 543.79 120.12 536.47 145.59"/>
        <polygon class="cls-29" points="532.5 147.88 522.55 93.35 515.56 126.19 510.58 107.32 484.06 92.01 484.06 90.03 511.79 106.04 515.16 118.82 522.5 84.39 532.66 140.1 541.85 108.11 546.04 126.03 573.86 142.09 573.86 144.07 544.78 127.28 541.92 115.08 532.5 147.88"/>
      </g>
    </g>
  </g>
  <g>
    <g>
      <polygon class="cls-6" points="277.87 413.63 230.73 413.63 189.91 437.19 166.35 478 166.35 525.15 189.91 565.96 230.72 589.53 277.87 589.53 318.68 565.96 342.25 525.15 342.25 478 318.68 437.19 277.87 413.63"/>
      <path class="cls-24" d="M162.65,477.01v49.12l24.55,42.53,42.53,24.56h49.12l42.54-24.56,24.56-42.53v-49.12l-24.56-42.53-42.54-24.56h-49.12l-42.54,24.56-24.55,42.53ZM170.05,478.99l22.57-39.09,39.1-22.57h45.15l39.1,22.57,22.58,39.09v45.16l-22.58,39.1-39.1,22.58h-45.16l-39.1-22.58-22.57-39.1v-45.16Z"/>
    </g>
    <g>
      <path class="cls-7" d="M324.24,517.49h-25.04l-3.6-10.77,8.42-3.04,3.48-3.48-1.67-5.23-34.58-.67-11.76-2.79-20.26,4.46-3.79,1.73v1.51s4.85.98,4.85.98l3.28-2.49,16.45-.96,6.21,3.82-3.66,7.91-24.27,7.19-13.82,5.01-9.65,1.15-23.93,3.29-2.28,3.96.72,2.48,24.97-3.76,11.75,1.96,16.41,10.13h6.06l21.67-17.11,5.28-6.91,15.44-4.45,6.48,10.42,19.33-1.63,7.11.84,2.78-1.94-2.38-1.61ZM244.96,534.07l-15.02-8.28h-10.33l12.45-2.06,25.16-3.7-2.36,5.09-9.91,8.95Z"/>
      <polygon class="cls-33" points="242.87 496.28 241.59 498.2 237.66 501.12 237 500.91 237.1 500.26 238.59 498.74 238.19 497.67 236.37 498.06 234.53 500.34 233.3 500.48 233.19 499.22 234.85 496.12 238.49 494.56 241.59 494.3 243.41 494.67 242.87 496.28"/>
      <polygon class="cls-33" points="272.91 490.53 259.56 489.42 256.38 489.42 241.59 494.3 242.87 496.28 245.09 495.62 255.8 495.03 258.77 494.23 270 495.62 273.24 493.66 272.91 490.53"/>
      <polygon class="cls-14" points="240.29 504.3 239.24 512.59 243.77 518.52 246.5 514.3 244.7 505.18 240.29 504.3"/>
      <polygon class="cls-8" points="190.9 525.61 189.11 516.83 186.61 511.61 185.95 511.61 185.33 514.34 186.17 519.27 187.27 522.66 187.75 527.79 189.07 529.76 189.73 529.76 190.9 525.61"/>
      <polygon class="cls-11" points="194.76 521.12 192.16 518.56 189.78 514.73 188.32 511.88 186.61 511.61 185.99 514.34 186.83 519.27 187.93 522.66 188.41 527.79 189.73 529.76 192.99 529.4 195.37 527.79 195.81 524.73 194.76 521.12"/>
      <polygon class="cls-33" points="198.87 526.86 215.89 524.09 223.65 519.01 246.5 515.79 247.95 513.72 246.9 505.8 243.64 504.49 235.32 506.59 224.97 510.82 221.53 511.96 216.07 515.4 207.35 518.48 198.28 521.12 198.87 526.86"/>
      <polygon class="cls-8" points="198.28 521.12 194.76 521.12 193.52 524.09 195.37 527.79 198.87 526.86 199.12 523.9 198.28 521.12"/>
      <polygon class="cls-14" points="248.53 519.01 250.05 527.79 257.38 527.79 257.38 520.33 253.15 517.75 248.53 519.01"/>
      <polygon class="cls-33" points="265.57 496.63 261.31 498.06 264.07 503.46 272.91 512.59 274.38 509.41 275.88 508.79 277.64 504.43 272.66 497.12 268.34 495.97 265.57 496.63"/>
      <polygon class="cls-32" points="261.31 498.06 253.51 501.56 240.29 504.3 245.67 511.41 243.77 518.52 256.72 516.24 263.46 506.68 261.31 498.06"/>
      <polygon class="cls-33" points="291.73 491.06 289.35 491.99 285.56 493.07 288.33 497.41 293.79 499.22 295.74 499.06 298.67 496.51 298.27 488.84 295.96 488.09 293.55 488.84 291.73 491.06"/>
      <polygon class="cls-24" points="295.38 499.45 292.17 498.06 288.6 493.28 282.66 491.88 279.01 489.37 275.53 488.84 272.49 490.18 270.5 492.8 265.57 496.63 271.65 498.06 276.58 504.39 275.88 508.79 286.8 507.29 290.64 505.77 295.38 499.45"/>
      <polygon class="cls-1" points="290.66 483.77 288.65 485.33 288.33 487.85 289.89 489.86 292.41 490.18 294.42 488.62 294.73 486.1 293.18 484.09 290.66 483.77"/>
      <polygon class="cls-22" points="292.54 485.72 291.14 486.8 290.92 488.56 292.01 489.95 293.76 490.18 295.16 489.1 295.38 487.34 294.3 485.94 292.54 485.72"/>
      <polygon class="cls-33" points="306.86 494.69 305.21 497.47 304.06 497.87 303.27 498.71 299.62 500.2 295.74 499.06 294.99 493.82 296.84 490.34 296.18 489.14 295.87 486.9 297.9 485.93 301.68 486.37 305.56 488.4 307.1 490.91 307.5 493.46 306.86 494.69"/>
      <polygon class="cls-1" points="298.34 490.87 299.79 488.56 298.93 487.1 297.41 487.1 296.09 489.28 293.45 490.4 291.73 491.06 291.73 489.08 293.65 486.51 296.99 484.96 301.49 484.96 305.1 486.7 307.32 489.72 308.1 493.29 306.73 498.06 306.9 493.73 305.8 495.75 305.95 491.42 303.89 489.61 300.72 489.21 298.34 490.87"/>
      <polygon class="cls-33" points="290.64 505.77 289.06 503.78 291.73 498.92 295.38 499.45 297.81 503.51 298.34 507.29 301.25 515.3 305.39 515.3 316.31 516.37 316.72 519.09 300.89 521.03 297.02 519.18 290.64 505.77"/>
      <polygon class="cls-33" points="316.31 516.37 318.06 513.88 320.83 513.52 322.22 514.3 324.04 514.07 325.16 512.63 326.61 513.95 325.72 516.86 322.38 518.91 316.72 519.09 315.32 517.91 316.31 516.37"/>
      <polygon class="cls-12" points="297.12 490.53 295.6 493.84 299.19 496.75 296.31 493.66 297.12 490.53"/>
      <polygon class="cls-8" points="227.29 522.77 224.61 521.47 220.46 522.53 215.62 522.77 210.34 525.35 210.03 527.28 210.39 527.64 218.84 525.79 227.65 523.12 227.29 522.77"/>
      <polygon class="cls-11" points="227.65 523.12 224.97 521.83 220.83 522.88 215.98 523.12 210.7 525.7 210.39 527.64 212.55 529.76 216.47 529.76 223.69 527.13 227.65 523.12"/>
      <polygon class="cls-8" points="229.94 523.19 226.93 523.1 223.76 523.17 222.17 525.87 223.69 527.13 227.43 527.13 229.94 523.19"/>
      <polygon class="cls-33" points="227.43 527.13 228.45 527.13 243.57 530.7 247.21 530.04 256.49 525.41 257.64 522.44 253.15 517.49 249.15 519.24 244.9 523.76 241.86 521.98 231.29 523.23 229.94 523.19 227.29 524.56 227.43 527.13"/>
      <polygon class="cls-17" points="261.31 498.06 266.23 500.58 272.31 507.44 272.91 512.59 267.6 519.45 257.38 527.79 254.34 520.59 248.53 519.01 256.99 508.79 257.73 503.37 261.31 498.06"/>
      <g>
        <polygon class="cls-16" points="295.27 448.67 296.09 460.12 292.68 471.4 295.27 480.91 295.09 472.1 297.5 461.35 295.27 448.67"/>
        <polygon class="cls-16" points="309.81 463.03 307.58 450.35 308.39 461.8 304.99 473.07 307.58 482.58 307.4 473.78 309.81 463.03"/>
        <polygon class="cls-16" points="301.81 445.31 302.63 456.76 299.22 468.03 301.81 477.54 301.63 468.74 304.04 457.99 301.81 445.31"/>
      </g>
    </g>
  </g>
  <g>
    <g>
      <polygon class="cls-6" points="196.81 211.38 149.67 211.38 108.85 234.95 85.29 275.75 85.29 322.9 108.85 363.71 149.66 387.28 196.81 387.28 237.62 363.71 261.19 322.9 261.19 275.75 237.62 234.95 196.81 211.38"/>
      <path class="cls-24" d="M81.59,274.77v49.12l24.55,42.53,42.53,24.56h49.12l42.54-24.56,24.56-42.53v-49.12l-24.56-42.53-42.54-24.56h-49.12l-42.54,24.56-24.55,42.53ZM88.99,276.75l22.57-39.1,39.1-22.57h45.15l39.1,22.57,22.58,39.1v45.16l-22.58,39.1-39.1,22.58h-45.16l-39.1-22.58-22.57-39.1v-45.16Z"/>
    </g>
    <g>
      <polygon class="cls-7" points="179.61 354.74 164.64 354.74 154.04 360.87 154.04 369.51 164.64 375.62 179.61 375.62 190.19 369.51 190.19 360.87 179.61 354.74"/>
      <polygon class="cls-9" points="169.72 359.08 159.8 362.48 159.8 363.04 164.9 363.47 170.6 361.37 176.16 361.02 177.9 359.66 177.9 359.1 169.72 359.08"/>
      <polygon class="cls-9" points="182.38 365.15 177.26 369.98 174.94 370.52 174.94 371.09 176.96 372.54 180.96 371.84 183.03 369.16 184.06 364.64 184.06 364.08 182.38 365.15"/>
      <polygon class="cls-11" points="169.87 353.83 167.13 356.79 162.39 358.29 159.8 360.11 159.8 362.48 164.9 362.91 170.6 360.81 176.16 360.46 177.9 359.1 176.77 353.55 169.87 353.83"/>
      <polygon class="cls-8" points="170.75 348.75 169.87 353.83 173.14 355.13 176.77 353.55 177.26 348.86 170.75 348.75"/>
      <polygon class="cls-2" points="177.26 348.86 177.57 345.75 177.9 334.74 173.65 318.29 169.06 317.72 164.9 319.58 166.99 327.22 167.23 330.58 169.06 333.99 170.75 344.05 170.75 348.75 173.67 350.28 177.26 348.86"/>
      <polygon class="cls-38" points="166.9 255.59 163.52 255.59 159.85 256.93 144.8 257.94 145.93 260.97 148.56 263.6 164.6 263.21 168.17 261.87 169.39 256.22 166.9 255.59"/>
      <polygon class="cls-32" points="162.39 293.18 161.54 298.07 163.16 318.19 166.15 320.58 173.65 320.15 172.16 294.21 162.39 293.18"/>
      <polygon class="cls-11" points="178.98 361.09 177.9 363.8 175.36 368.64 174.94 370.52 176.96 371.98 180.96 371.27 183.03 368.59 184.06 364.08 183.76 360.11 178.98 361.09"/>
      <polygon class="cls-8" points="179.17 357.07 178.98 361.09 181.29 362.01 183.76 360.11 183.76 356.79 179.17 357.07"/>
      <polygon class="cls-38" points="183.76 356.79 183.76 350.38 184.81 338.39 182.98 332.88 184.3 322.24 173.14 322.52 176.7 336.41 176.7 341.84 178.61 350.38 179.17 357.07 181.37 357.95 183.76 356.79"/>
      <polygon class="cls-17" points="162.39 293.18 165.68 302.58 170.99 308.98 172.09 322.24 179.4 324.21 185.24 321.86 185.99 299.38 181.79 293.84 162.39 293.18"/>
      <polygon class="cls-2" points="180.22 254.04 180.72 257.35 181.79 259.52 181.79 261.4 179.4 263.84 173.34 263.84 170.14 257.63 171.88 252.56 179.31 250.96 180.22 254.04"/>
      <polygon class="cls-38" points="163.23 288.7 162.39 293.18 167.46 298.07 176.77 298.07 181.79 293.84 181 290.17 163.23 288.7"/>
      <polygon class="cls-24" points="188.67 265.86 181.79 259.52 179.88 261.87 173.57 262.69 172.16 258.96 167.65 256.22 165.21 259.14 164.46 264.22 160.88 271.18 160.88 274.47 163.23 277.85 162.95 288.3 165.86 292.43 177.24 293.18 181 290.17 184.72 282 188.67 265.86"/>
      <polygon class="cls-1" points="186.54 241.94 184.39 243.6 184.05 246.29 185.72 248.43 188.41 248.77 190.55 247.11 190.89 244.42 189.23 242.27 186.54 241.94"/>
      <polygon class="cls-22" points="183.52 243.34 182.03 244.5 181.79 246.37 182.95 247.86 184.82 248.1 186.31 246.95 186.55 245.07 185.39 243.58 183.52 243.34"/>
      <polygon class="cls-38" points="165.39 245.18 164.93 249.83 165.86 251.1 164.93 255 166.24 255.57 167.52 259.61 169.33 260.21 175.6 257.45 175.98 254.77 178.61 253.47 179.4 250.25 167.46 242.22 165.39 245.18"/>
      <polygon class="cls-1" points="172.54 237.66 166.99 241.04 165.21 244.85 166.83 247.83 166.52 245.46 168.85 247.48 171.13 248.4 172.4 250.87 173.88 251.78 173.88 253.83 173.39 255.17 174.59 253.55 175.36 251.15 177.62 250.09 178.61 251.36 178.61 253.47 179.59 254.32 183.26 252.63 184.39 248.84 183.21 242.78 179.17 238.12 172.54 237.66"/>
      <polygon class="cls-38" points="181.79 310.01 178.18 314.58 177.9 319.34 179.24 320.58 181.85 320.58 184.92 316.65 185.24 311.04 183.93 309.44 181.79 310.01"/>
      <polygon class="cls-38" points="185.07 265.55 182.6 268.26 182.87 274.04 186.93 291.58 184.77 297.6 181.79 310.01 185.24 311.04 191.82 298.07 192.76 291.02 190.18 269.54 188.67 265.86 185.07 265.55"/>
      <polygon class="cls-23" points="163.23 277.85 174.34 281.72 177.44 280.56 178.75 277.85 177.88 281.05 174.42 282.77 163.23 277.85"/>
      <polygon class="cls-2" points="148.56 263.6 148.14 259.82 145.49 258.52 146.66 260.88 148.56 263.6"/>
      <polygon class="cls-38" points="148.95 264.86 151.81 268.36 151.31 270.4 151.81 273.43 150.61 277.85 147.58 277.85 144.97 273.15 144.97 266.66 141.02 261.8 142.07 259.19 144.8 257.94 147.51 260.21 148.95 264.86"/>
      <g>
        <polygon class="cls-4" points="163.61 241.79 164.93 239.53 154.26 231.86 163.61 241.79"/>
        <polygon class="cls-4" points="167.27 235.77 169.53 234.46 163.08 218.44 167.27 235.77"/>
        <polygon class="cls-4" points="175.97 221.72 174.2 234.98 176.77 235.35 175.97 221.72"/>
      </g>
    </g>
  </g>
  <g>
    <g>
      <polygon class="cls-6" points="603.19 211.38 650.33 211.38 691.15 234.95 714.71 275.75 714.71 322.9 691.15 363.71 650.34 387.28 603.19 387.28 562.38 363.71 538.81 322.9 538.81 275.75 562.38 234.95 603.19 211.38"/>
      <path class="cls-24" d="M693.86,232.24l-42.54-24.56h-49.11l-42.54,24.56-24.56,42.53v49.12l24.56,42.53,42.54,24.56h49.12l42.53-24.56,24.55-42.53v-49.12l-24.55-42.53ZM711.01,321.91l-22.57,39.1-39.1,22.58h-45.16l-39.1-22.58-22.57-39.1v-45.16l22.57-39.1,39.1-22.57h45.15l39.1,22.57,22.57,39.1v45.16Z"/>
    </g>
    <g>
      <polygon class="cls-7" points="641.24 343.8 626.26 343.8 615.67 349.93 615.67 358.56 626.26 364.68 641.24 364.68 651.82 358.56 651.82 349.93 641.24 343.8"/>
      <polygon class="cls-12" points="616.97 256.16 612.58 261.17 609.25 270.63 609.51 273.21 623.15 259.2 622.5 257.41 619.78 255.82 616.97 256.16"/>
      <polygon class="cls-9" points="644.01 355.53 638.94 361.48 636.49 361.27 636.49 361.77 638.75 363.05 642.69 362.19 644.84 358.92 645.36 354.74 645.36 354.24 644.01 355.53"/>
      <polygon class="cls-11" points="640.23 350.62 639.2 354.37 636.68 358.87 636.49 361.27 638.75 362.56 642.69 361.7 644.84 358.43 645.36 354.24 644.81 350.27 640.23 350.62"/>
      <polygon class="cls-9" points="640 346 640.23 350.62 642.62 351.47 644.81 350.27 644.81 345.83 640 346"/>
      <polygon class="cls-9" points="634.77 345.85 620.93 350.13 619.21 349.52 619.21 350.01 619.49 352.53 624.62 352.15 630.83 349.34 635.71 348.74 636.84 346.61 636.84 346.12 634.77 345.85"/>
      <polygon class="cls-11" points="628.43 343.21 626.61 345.21 622.15 347.24 619.21 349.52 619.49 352.03 624.62 351.66 630.83 348.85 635.71 348.25 636.84 346.12 635.27 342.3 628.43 343.21"/>
      <polygon class="cls-9" points="629.15 338.77 628.43 343.21 632.19 343.99 635.27 342.3 635.54 338.67 629.15 338.77"/>
      <polygon class="cls-33" points="635.54 338.67 635.71 336.44 636.49 325.44 633.88 318.25 635.71 309.08 632.26 306.33 628.38 306.33 625.53 307.55 625.91 315.71 625.91 318.82 627.61 323.54 629.15 332.71 629.15 338.77 632.26 340.01 635.54 338.67"/>
      <polygon class="cls-32" points="626.26 280.87 624.75 289.06 624.18 306.69 628.8 309.65 636.11 309.16 636.49 287.74 632.31 282.19 626.26 280.87"/>
      <polygon class="cls-33" points="644.81 345.83 644.81 341.1 645.87 329.25 643.82 321.43 646.34 311.43 640.51 309.08 635.27 310.78 637.34 325.02 637.34 330.87 639.82 341.99 640 346 642.41 347.17 644.81 345.83"/>
      <polygon class="cls-17" points="626.26 280.87 628.57 288.26 633.75 295.21 633.75 310.28 640.79 312.61 648.44 310.99 649.82 288.92 647.75 282.52 645.07 279.54 626.26 280.87"/>
      <polygon class="cls-33" points="626.69 276.78 626.26 280.87 630.39 283.77 641.08 284.21 645.07 279.54 643.52 276.55 626.69 276.78"/>
      <polygon class="cls-12" points="631.8 249.57 632.16 249.92 636.1 253.02 634.83 258.41 627.27 261.17 624.68 251.61 629.59 248.61 631.8 249.57"/>
      <polygon class="cls-24" points="632.16 249.92 634.87 253.18 633.72 257.32 627.61 259.86 621.7 256.93 621.7 261.76 621.35 267.69 623.2 270.65 626.26 272.46 626.69 276.78 630.85 279.68 639.98 280 643.73 276.34 646.15 267.76 645.07 259.2 640.13 253.96 632.16 249.92"/>
      <polygon class="cls-23" points="626.26 272.46 634.57 276.08 637.45 275.44 639.07 271.91 637.98 275.9 634.73 277.06 626.26 272.46"/>
      <polygon class="cls-33" points="615.75 255.25 618.61 257.39 619.49 257.6 619.96 260.14 622.39 259.75 625.42 260.99 629.67 255.61 629.37 253.41 629.91 251.94 630.35 249.53 627.36 247.98 615.33 252.81 615.75 255.25"/>
      <polygon class="cls-12" points="628.42 254.64 629.02 256.43 628.66 256.89 627.27 253.97 628.03 253.18 628.42 254.64"/>
      <polygon class="cls-12" points="623.47 253.82 624.08 254.99 624.08 260.44 624.68 260.69 625.11 254.76 624.29 253.18 623.47 253.82"/>
      <polygon class="cls-1" points="631.22 235.7 629.08 237.36 628.74 240.05 630.4 242.19 633.09 242.53 635.23 240.87 635.58 238.18 633.92 236.04 631.22 235.7"/>
      <polygon class="cls-22" points="628.94 239.02 627.45 240.18 627.21 242.05 628.36 243.54 630.24 243.78 631.73 242.62 631.97 240.75 630.81 239.26 628.94 239.02"/>
      <polygon class="cls-1" points="624.2 238.8 618.94 239.75 615.22 244.63 614.14 250.08 615.12 253.83 618.37 255.25 617.61 253.56 622.63 254.4 625.56 253.27 627.29 253.3 628.42 254.64 628.24 252.38 628.77 250.27 629.84 250.45 629.91 251.94 632.16 249.12 631.97 244.44 628.54 240.1 624.2 238.8"/>
      <polygon class="cls-5" points="608.26 230.36 612.82 239.95 614.46 237.62 619.12 247.71 615.38 233.25 613.33 236.21 611.15 227.54 608.26 230.36"/>
      <polygon class="cls-5" points="603.62 242.89 610.38 245.81 610.17 243.85 617.21 246.98 608.66 241.15 608.94 243.63 603.83 240.1 603.62 242.89"/>
      <polygon class="cls-5" points="619.72 228.88 619.49 236.24 621.25 235.33 620.92 243.02 623.2 232.92 621 234.1 622.4 228.05 619.72 228.88"/>
      <polygon class="cls-33" points="630.54 267.24 640.09 258.17 643.33 257.6 645.07 259.2 645.07 263.15 632.09 274.72 629.56 272.08 630.54 267.24"/>
      <polygon class="cls-12" points="632.01 265.85 632.57 272.46 631.02 269.59 631.12 266.69 632.01 265.85"/>
      <polygon class="cls-33" points="623.87 239.74 625.93 240.4 628.19 245.14 627.91 253.89 632.57 272.46 632.09 274.72 628.22 276.17 625.23 273.12 624.41 254.69 622.03 248.58 621.7 243.02 623.87 239.74"/>
      <polygon class="cls-33" points="614.79 247.71 612.77 247.71 611.03 251.12 612.19 255.7 605.71 265.86 604.15 269.31 605.53 273.12 609.51 273.21 611.56 268.82 615.26 257.27 616.39 256.33 615.97 253.47 616.39 250.88 614.79 247.71"/>
    </g>
  </g>
  <g>
    <g>
      <polygon class="cls-6" points="522.14 413.62 569.27 413.62 610.09 437.19 633.65 478 633.65 525.14 610.09 565.96 569.28 589.53 522.14 589.53 481.32 565.96 457.75 525.14 457.75 478 481.32 437.19 522.14 413.62"/>
      <path class="cls-24" d="M612.8,434.48l-42.54-24.56h-49.11l-42.54,24.56-24.56,42.53v49.12l24.56,42.53,42.54,24.56h49.12l42.53-24.56,24.55-42.53v-49.12l-24.55-42.53ZM629.96,524.15l-22.57,39.1-39.1,22.58h-45.16l-39.1-22.58-22.57-39.1v-45.16l22.57-39.1,39.1-22.57h45.15l39.1,22.57,22.57,39.1v45.16Z"/>
    </g>
    <g>
      <polygon class="cls-7" points="551.66 546.86 536.69 546.86 526.1 552.99 526.1 561.62 536.69 567.74 551.66 567.74 562.26 561.62 562.26 552.99 551.66 546.86"/>
      <polygon class="cls-9" points="530.09 553.68 530.09 554.24 530.59 555.98 535.81 555.7 541.31 553.09 546.18 552.59 548.3 551.02 548.3 550.46 540.25 550.37 530.09 553.68"/>
      <polygon class="cls-11" points="539.68 546.6 536.62 548.95 530.76 551.99 530.09 553.68 530.59 555.42 535.81 555.14 541.31 552.53 546.18 552.03 548.3 550.46 548.02 548.1 546.72 545.59 539.68 546.6"/>
      <polygon class="cls-8" points="540.53 541.88 539.68 546.6 543.61 547.47 546.72 545.59 546.58 541.24 540.53 541.88"/>
      <polygon class="cls-33" points="546.58 541.24 547.66 527.49 545.05 521.64 547.66 509.09 546.58 507.39 540.39 506.76 536.62 508.74 537.01 520.79 538.77 526.79 540.18 534.75 540.53 541.88 543.54 542.89 546.58 541.24"/>
      <polygon class="cls-9" points="555.11 557.89 550.65 563.38 547.91 564.66 547.91 565.22 550.22 566.38 553.72 565.6 555.91 561.83 556.28 559.06 556.7 557.74 556.7 557.18 555.11 557.89"/>
      <polygon class="cls-11" points="551.32 554.64 550.78 556.85 547.91 562.59 547.91 564.66 550.22 565.81 553.72 565.04 555.91 561.27 556.28 558.5 556.7 557.18 556.05 552.88 551.32 554.64"/>
      <polygon class="cls-8" points="551.32 549.78 551.32 554.64 554.39 554.93 556.05 552.88 556.05 548.83 551.32 549.78"/>
      <polygon class="cls-33" points="556.05 548.83 556.05 542.73 557.11 532.78 554.92 525.3 558.03 513.27 551.68 510.57 546.58 512.78 547.66 525.37 548.77 529.4 548.77 534.68 550.83 543.78 551.32 549.78 553.98 550.37 556.05 548.83"/>
      <polygon class="cls-32" points="537.57 483.77 535.92 488.82 535.1 510.28 542.4 513.41 548.99 512.1 547.78 485.62 537.57 483.77"/>
      <polygon class="cls-17" points="537.57 483.77 538.63 490.11 541.74 495.02 544.95 497.94 545.23 514.68 552.88 517.15 559.59 515.15 560.89 491.78 559.12 486.87 557.08 484.04 537.57 483.77"/>
      <polygon class="cls-33" points="538.07 479.09 537.57 483.77 541.73 486.87 553.58 486.87 557.08 484.04 554.87 479.94 538.07 479.09"/>
      <polygon class="cls-12" points="521.26 477.39 535.74 461.41 535.74 459.05 532.68 457.02 528.5 458.49 519.52 472.6 521.26 477.39"/>
      <polygon class="cls-12" points="543.65 451.6 544.27 453.33 547.66 456.61 546 461.16 539.48 462.79 536.5 457.85 542.33 451.26 543.65 451.6"/>
      <polygon class="cls-24" points="544.27 453.33 546.79 456.81 545.12 460.14 539.74 461.69 537.82 458.98 534.75 458.22 534.37 461.69 532.47 469.97 534 473.63 537.57 475.56 538.07 479.09 542.18 483.03 552.05 482.66 554.87 479.94 555.88 477.39 553.99 459.15 549.42 455.77 544.27 453.33"/>
      <polygon class="cls-33" points="529.61 444.26 528.72 449.21 529.61 450.51 529.61 453.47 532.18 459.01 533.98 460.14 537.82 458.98 541.17 455.07 541.87 453.12 543.45 451.72 544.27 448.57 540.28 443.82 531.62 442.38 529.61 444.26"/>
      <polygon class="cls-27" points="529.61 444.26 528.72 449.21 529.61 450.51 529.61 453.47 532.18 459.01 533.98 460.14 537.82 458.98 541.17 455.07 541.87 453.12 543.45 451.72 544.27 448.57 540.28 443.82 531.62 442.38 529.61 444.26"/>
      <polygon class="cls-1" points="547.43 435.42 545.15 436.9 544.6 439.56 546.09 441.83 548.74 442.38 551.01 440.9 551.57 438.24 550.08 435.97 547.43 435.42"/>
      <polygon class="cls-22" points="544.66 438.43 543.08 439.46 542.7 441.3 543.73 442.89 545.58 443.27 547.16 442.24 547.55 440.39 546.51 438.81 544.66 438.43"/>
      <polygon class="cls-1" points="539.26 437.11 534.52 437.48 530.85 440.62 529.36 443.71 530.8 446.83 533.76 448.63 532.87 447.21 534.66 447.64 536.78 447.45 538.18 450.17 539.71 451.21 539.95 454.31 540.62 451.59 542.28 449.42 543.45 449.33 543.45 451.72 545.66 450.27 546.79 448.48 546.79 444.11 544.95 440.3 542.68 438.03 539.26 437.11"/>
      <polygon class="cls-33" points="535.21 456.93 533.2 455.38 530.36 455.38 529.18 454.45 527.25 455.72 526.66 458.58 518.25 469.24 516.17 472.84 516.77 476.65 521.26 477.39 523.68 474.06 529 461.69 532.07 461.83 535.21 460.07 535.21 456.93"/>
      <polygon class="cls-12" points="529 461.69 527.21 459.67 528.1 461.55 529 461.69"/>
      <polygon class="cls-33" points="542.87 489.27 540.51 487.74 536.28 487.39 536.28 488.04 538.11 489.27 536.47 490.02 532.57 489.81 532.47 492.18 536.18 494.51 540.25 494.65 543.33 492.59 543.85 490.75 542.87 489.27"/>
      <polygon class="cls-12" points="549.45 486.87 555.15 484.17 556.92 484.17 554.4 486.87 549.45 486.87"/>
      <polygon class="cls-33" points="551.11 459.47 549.76 462.95 551.18 467.94 559.1 483.86 555.72 484.59 542.87 489.27 542.87 490.98 543.33 492.59 558.51 490.08 563.8 488.17 565.11 484.4 557.81 462.19 554.89 459.05 551.11 459.47"/>
      <polygon class="cls-23" points="537.57 475.56 545.47 478.81 548.7 478.25 550.38 474.81 549.23 478.72 545.63 479.8 537.57 475.56"/>
    </g>
  </g>
</svg>