<?xml version="1.0" encoding="UTF-8"?>
<svg id="Layer_7" data-name="Layer 7" xmlns="http://www.w3.org/2000/svg" viewBox="0 0 200 200">
  <defs>
    <style>
      .cls-1 {
        fill: #fe999f;
      }

      .cls-2 {
        fill: #b7dcfe;
      }

      .cls-3 {
        fill: #ece8fa;
      }

      .cls-4 {
        fill: #736572;
      }

      .cls-5 {
        fill: #f9f7f8;
      }

      .cls-6 {
        fill: #dfdaed;
      }

      .cls-7 {
        fill: #fedf7d;
      }

      .cls-8 {
        fill: #fecf64;
      }

      .cls-9 {
        fill: #b8dcfe;
      }
    </style>
  </defs>
  <path class="cls-4" d="M68.02,1.86c4.28,1.31,8.08,3.34,10.48,7.29.82,1.35,1.12,2.78,1.75,4.17l.4,1.57c-.14.44-5.75.89-6.13-.42l-.93-.44c-2.56-7.21-13.34-7.73-16.09-.38l-.94.44c-.1,1.41-6.45,1.37-6.56.78l.44-1.16c.68-1.27.96-2.98,1.84-4.47,2.3-3.91,5.94-5.78,10.01-7.38h5.73Z"/>
  <path class="cls-5" d="M80.26,13.33c.13.3.44,1.11.63,1.16,3.6.07,7.24-.15,10.84-.02.19,1.31.37,2.63.49,3.95.12,1.32.24,2.63.24,3.95.1,25.04.12,50.06-.25,75.1-.03,1.92-4.5,5.97-6.73,5.67H29.89s-.47-.76-.47-.76c-1.07-26.9.72-54.53.09-81.5,2.68-9.55,12.82-5.48,19.98-6.37.55-.07.71-.35.95-.79-.21,1.16.58.74,1.32.76,1.72.06,3.53-.39,4.8-.38.36-.19.73-.37,1.11-.5,1.63-.54,14-.2,15.73.38.39.13.76.31,1.13.5,1.56-.02,3.27.12,4.8,0,1.17-.09.98.19.94-1.15Z"/>
  <path class="cls-3" d="M91.72,14.48c1.17.04,2.38-.13,3.54.09,2.4.45,5.61,3.84,5.99,6.24v84.79c-2.6,8.22-8.76,5.71-15.07,6.33-6.35.63-1.62,6.24-5.35,9.55-.27.24-2.53,1.52-2.68,1.52h-9.75v12.61c-.09.33-.22.32-.38,0-.3-.04-.74-.13-.76-.34-.27-2.45-.32-9.33,0-11.71l.76-.56c-.3,1.26-4.82,1.16-5.35,0,.3.03.74.13.76.34.21,2.3.37,9.64,0,11.71l-.76.56c-.07.34-.2.33-.38,0v-12.61h-9.37c-1.04,0-3.4-1.97-3.96-2.92-1.92-3.29,1.07-7.58-4.07-8.16-5.1-.57-10.3,1.74-13.95-3.25-1.66-2.26-1.43-3.7-1.53-6.3h56c2.85-.24,4.93-2.59,6.05-5.03.6-27.57.09-55.26.26-82.86Z"/>
  <path class="cls-6" d="M152.12,87.85v90.76c-.21,10.13-7.13,18.17-17.38,18.93-17.75,1.33-37.14-1.04-55.07,0-5.71-.47-11.18-3.43-14.25-8.3-4.35-6.89-2.29-14.92-2.74-22.67.03-.18.08-.35.17-.49.16-.25,5.46-.5,5.57.49.59,5.25-1.16,12.9.85,17.68,1.95,4.64,6.26,7.22,11.17,7.55,17.47,1.21,36.31-.95,53.93,0,7.85-.85,11.53-5.97,12.04-13.56l-.02-90.39c.91-1.1,4.68-.97,5.73,0Z"/>
  <path class="cls-1" d="M68.02,135.62c.13.01.26-.02.38,0,1.11.21,2.46,1.3,2.65,2.5.44,2.67,0,7.18.02,10.11.97,1.93.97,3.8,0,5.73-.02,2.79.45,8.01-.08,10.43-.27,1.2-1.44,2-2.59,2.18-1.13.18-4.58.16-5.73,0-1.99-.27-2.9-1.74-3.08-3.61-.71-7.74.55-16.59.04-24.45.09-1.18,1.61-2.64,2.65-2.89.11-.03.25.02.38,0,.65-1.33,4.69-1.32,5.35,0Z"/>
  <path class="cls-1" d="M146.39,72.56c.63-1.36,4.99-1.32,5.73,0,1.22.16,2.32.94,2.59,2.18.29,1.32.27,10.05-.09,11.21-.34,1.08-1.42,1.74-2.5,1.89-1.34.18-4.35.14-5.73,0s-2.63-.65-2.98-2.18c-.29-1.31-.27-10.05.09-11.21.42-1.36,1.61-1.76,2.89-1.89Z"/>
  <path class="cls-2" d="M71.08,148.23h7.65c-1.58-5.19,4.96-7.3,5.7-2.07.24,1.68.28,9.49-.14,10.88-.52,1.74-2.8,2.72-4.39,1.68-1.92-1.26-.89-4.48-1.17-4.76s-6.56.2-7.65,0c.02-1.9.02-3.83,0-5.73Z"/>
  <path class="cls-9" d="M152.12,72.56c-1.33-.18-4.36-.14-5.73,0v-19.67c1.85-3.44,5.24-2.21,5.69,1.56.68,5.64-.41,12.35.04,18.11Z"/>
  <path class="cls-7" d="M78.73,51.54c.84,11.06,1.08,22.14.72,33.22,0,1.7-3.5,6.38-5.12,4.61l-.35.76h-30.72l-.46-.76c.34.1.62.29.81.59.17.27-.03,5.64-.12,6.38l-.69.67c-.63-.4-.38-1.45-.39-2.1-.18-14.57-.05-29.19,0-43.76.73-2.22,4.49-1.59,6.48-1.23,3.4,1.39,6.76,1.81,10.08,1.27,3.12-1.12,6.21-2.13,9.54-1.3,3.1,1.33,6.22,1.68,9.34,1.04l.87.59Z"/>
  <path class="cls-3" d="M78.73,27.47l.76.35v23.27l-.76.46c-7.19,1.65-7.29-.97-12.79-1.17-3.43-.12-5.76,1.71-8.79,1.95-5.19.4-9.43-3.65-14.73-1.16.02-6.15-.7-14.64,0-20.45.17-1.42.87-2.16,1.93-3.04,11.45-.25,22.95-.35,34.39-.2Z"/>
  <path class="cls-8" d="M88.28,51.16c.06,15.28.1,30.62-.17,45.88-.52,1.28-1.67,1.97-3.06,1.91-12.7-.89-26.88,1.13-39.41,0-1.36-.12-2.6-.36-2.85-1.93-.36-2.25.26-5.29,0-7.64h31.54c1.53,0,4.41-3.06,4.36-4.81.06-11.01.03-22.02.03-33.02.66-1.03,1.93-1.61,3.79-1.74,1.8-.3,5.24-.69,5.76,1.36Z"/>
  <path class="cls-6" d="M88.28,51.16c-3.62-1.69-6.16-.4-9.56.38v-24.08c2.54.03,8.5-.93,9.39,1.89.33,7.26.14,14.54.17,21.8Z"/>
  <path class="cls-6" d="M62.67,135.62v-12.61h5.35v12.61c-1.25-.15-4.11-.16-5.35,0Z"/>
</svg>