<?xml version="1.0" encoding="UTF-8"?>
<svg id="Layer_7" data-name="Layer 7" xmlns="http://www.w3.org/2000/svg" viewBox="0 0 200 200">
  <defs>
    <style>
      .cls-1 {
        fill: #424a60;
      }

      .cls-2 {
        fill: #434c62;
      }

      .cls-3 {
        fill: #444a60;
      }

      .cls-4 {
        fill: #434a60;
      }

      .cls-5 {
        fill: #da5a54;
      }

      .cls-6 {
        fill: #a1c8d6;
      }

      .cls-7 {
        fill: #d95751;
      }

      .cls-8 {
        fill: #c5d6dc;
      }

      .cls-9 {
        fill: #dd7568;
      }

      .cls-10 {
        fill: #fefefe;
      }

      .cls-11 {
        fill: #c5d7de;
      }
    </style>
  </defs>
  <path class="cls-11" d="M49.5,136.25v-8.14h-12.63c-.22,0-2.75-.9-3.17-1.11-2.79-1.4-4.48-4.17-4.75-7.24l-.02-105.79c.71-5.16,3.6-7.97,8.78-8.35,20.17-1.5,42.18,1.16,62.54.02,3.77.43,7.29,3.61,7.51,7.48v107.94c-.19,3.07-4.58,7.06-7.51,7.06h-13.06v8.14c-12.48,1.17-25.2,1.34-37.68,0Z"/>
  <path class="cls-7" d="M70.48,174.79c1.63,26.44,42.27,26.38,44.55.23,1.16-28.61-1.6-58.51-.04-86.97,1.96-35.69,49.85-35.18,52.26-1.26.74,10.48-.55,21.77,0,32.33,2.31-.14,3.58.4,3.86,2.78.34,2.86.4,12.23-.04,14.97-.24,1.53-1.06,2.17-2.54,2.38-.01,1.37-2.87,1.28-3,0-.43-.64-.16-1.53.78-2.67.64-2.01.58-13.94-.45-15.59-.84-.73-1.53-1.49-2.05-2.3-.53-10.28.72-21.27,0-31.47-2.11-29.79-43.67-30.93-45.41,1.69-1.52,28.49,1.18,58.32.01,86.95-3.04,19.43-24.6,29.09-41.07,17.53-13.54-9.51-10.48-25.57-10.74-40,1-1.39,4.73-1.2,3.65.39l.2,21.02Z"/>
  <path class="cls-9" d="M49.5,136.25c12.55-.13,25.13,0,37.68,0,3.35,0,6.72-.04,10.07,0,.72,0,1.9-.27,2.35.44l-1.13.74c-1.21-.02-13.16-.14-12.9.46,2.25,5.16,2.19,7.84-3.53,10.37l-.77.75c-13.77-.2-27.79-.59-42.05-1.18-.54-.09-1.18.1-1.81-.1-4.95-1.56-5.74-8.28-1.06-10.69,2.71-1.4,9.75-.74,13.15-.77Z"/>
  <path class="cls-11" d="M82.04,148.24c3.34-2.16,9.14-1.63,13.4-.99.96.14,1.92.35,2.87.56-4.17.82-8.56.29-12.85.43v5.14s-14.99,0-14.99,0c.32,7.03-.43,14.43,0,21.41l-.43-21.41c-1.14-.02-2.29.03-3.43,0-4.98-.12-10,.08-14.99,0v-5.14c-3.56-.23-7.45.3-10.97.03-.8-.06-1.19-.42-1.45-.46,13.49.02,26.99-.02,40.49-.02.87,0,1.7.45,2.33.45Z"/>
  <path class="cls-7" d="M99.6,136.68c5.2.71,5.63,8.94.43,10.94-.65.25-1.19.09-1.71.2-4.79.02-9.58-.02-14.38-.02-.8,0-1.61.45-1.9.45l3.37-3.27c.97-1.93,1.06-3.96,0-5.88-.65-1.18-1.82-1.48-2.51-2.41,5.19.5,11.67-.69,16.7,0Z"/>
  <path class="cls-9" d="M165.55,139.25c-.27,1.29-2.81,1.35-3,0-1.81-.22-2.57-1.08-2.9-2.88-.46-2.56-.41-10.9-.1-13.6.27-2.4,1.69-4.2,4.28-4.07,1.74.09,3.23,1.92,3.44,3.63.32,2.67.38,11.58-.03,14.12-.21,1.28-1.05,1.83-1.69,2.81Z"/>
  <path class="cls-5" d="M167.26,144.39c-.33,2.13.71,8.96-.63,10.29-.98.97-2.56.67-2.79-.87-.33-2.87-.38-5.76-.13-8.67-1.4-2.84,2.92-2.79,3.56-.75Z"/>
  <path class="cls-8" d="M165.55,139.25c.94,0,2.13.12,3,0-.24,1.5.87,5.11-1.28,5.14-.63,0-2.37-.87-3.43-.43.33,3.04-.45,6.94,0,9.85-1.1-2.75-.02-6.39-.39-9.24-.1-.79-.8-.56-.88-.91-.29-1.23.17-3.08,0-4.42.89.11,2.05,0,3,0Z"/>
  <path class="cls-9" d="M83.76,66.02c.33,0,.85.09.86.29.3,17.65.07,36.41-.26,53.66h15.17s.5.86.5.86c-.44.71-1.62.43-2.35.44-19.98.25-39.97-.19-59.95-.02-.91-.17-1.76-1.01-1.93-1.93-.54-2.93.02-8.85-.01-12.19l.45-.9,8.81.08c3.8-.44.14-2.4-2.03-1.83l-6.68.14-.55-.91c-.02-3.99.01-8,0-11.99l.46-.89,7.5.06c1.64.1,4.82-1.06,1.88-1.73l-9.39.04-.45-.9c0-4.13,0-8.29,0-12.42l.29-.86h20.37c1.61-1.03-1.37-2.04-2.53-1.84-5.74-.31-11.54-.08-17.25.22l-.88-.52c0-2.28,0-4.57,0-6.85l.3-.86h47.14l.52.86Z"/>
  <path class="cls-6" d="M101.31,66.02c0,.33-.08.84-.29.86-2.93.18-14.63.55-16.77,0l-.5-.86h-47.96c0-1.85,0-3.72,0-5.57l1.03-.9c2.97.67,15.86-.21,6.59-1.83l-6.99.22-.63-.92c.01-3.99-.02-8,0-11.99l.46-.89,7.5.06c1.64.1,4.82-1.06,1.88-1.73l-9.39.04-.45-.9c.03-3.34-.53-9.27.01-12.19.17-.92,1.02-1.76,1.93-1.93l61.89.18c1.5.45,1.59,2.5,1.7,3.86.9,10.54-.04,23.64-.02,34.49Z"/>
  <path class="cls-7" d="M101.31,66.02c.04,17.97.15,36.04-.22,53.96l-1.06.85h-17.13s.88-2.76.88-2.76l-.02-52.05h17.56Z"/>
  <path class="cls-3" d="M35.79,75.87c0-1,0-2,0-3,.71-.49,1.52-.42,2.33-.45,4.89-.15,12.52-.52,17.16,0,2.89.33,3.21,3.06,1.28,3.43h-20.77Z"/>
  <path class="cls-10" d="M67.36,12.57c5.41-1.19,7.05,6.51,2.71,7.86-6.07,1.88-7.55-6.79-2.71-7.86Z"/>
  <path class="cls-2" d="M35.79,45.04c0-1.14-.01-2.29,0-3.43,1.78.27,10.72-.53,11.38.4,3.14,4.46-9.5,2.75-11.38,3.03Z"/>
  <path class="cls-4" d="M35.79,91.71c0-1.14,0-2.29,0-3.43,1.78.27,10.72-.53,11.38.4,3.14,4.46-9.5,2.75-11.38,3.03Z"/>
  <path class="cls-3" d="M35.79,107.13c-.01-1.14,0-2.29,0-3.43,2.08.34,10.13-.71,11.17.6.47.59.63,1.83.2,2.43-.65.93-9.59.13-11.38.4Z"/>
  <path class="cls-1" d="M35.79,57.03c3.01.38,7.21-.52,10.05.01,1.82.34,2.75,3.13-.41,3.41-3.08.28-6.52-.2-9.64,0,0-1.14,0-2.29,0-3.43Z"/>
</svg>