<?xml version="1.0" encoding="UTF-8"?>
<svg id="Layer_7" data-name="Layer 7" xmlns="http://www.w3.org/2000/svg" viewBox="0 0 200 200">
  <defs>
    <style>
      .cls-1 {
        fill: #08a8f0;
      }

      .cls-2 {
        fill: #d7f4fe;
      }

      .cls-3 {
        fill: #8aeffe;
      }

      .cls-4 {
        fill: #e8f4fe;
      }

      .cls-5 {
        fill: #fec739;
      }

      .cls-6 {
        fill: #feb232;
      }

      .cls-7 {
        fill: #ccd7e2;
      }

      .cls-8 {
        fill: #fee194;
      }

      .cls-9 {
        fill: #69daf9;
      }

      .cls-10 {
        fill: #0097dd;
      }
    </style>
  </defs>
  <g>
    <path class="cls-8" d="M97.44,197.31v.38h-53.46v-.38c0-.3.08-.76.27-.76,16.34-.25,33.8-.48,50.16,0,1.53-.27,2.55-.01,3.04.76Z"/>
    <path class="cls-1" d="M95.91,66.71c.22.23.42.47.58.74.49.82,1.75,14.82,1.81,17.06.02.6-.22,1.16-.48,1.68-1.06.27-1.82-.62-2.29-2.67l-1.11-.05c-3.4-3.75-7.32-3.82-11.97-2.79-3.72,1.33-7.51,2.4-11.36,3.19-4.13-.4-8.2-1.45-12.2-3.16-12.84-4.02-19.86,11.18-14.08,21.3,5.38,7.3,6.03,14.65,4.21,23.44l-.85.84.68,1.21c-.48,9.26,3.34,14.11,10.61,19.03,1.63,1.11,2.75,1.74,2.46-.48-.88-6.65-1.23-11.38.94-18.08,3.03-9.36,10.73-11.86,14.95-1.78,2.9,6.91,2.83,14.29,1.45,21.33,8.79-3.02,14.73-11.9,13.28-21.34-1.64-8.99-1.57-16.83,4.32-24.31.46-1.48,1.17-2.5,2.11-3.07l.79.18c2.26,20.37,4.53,40.75,6.79,61.14l-.71.55c-1.63.2-3.26.38-4.9.51s-3.26.24-4.9.24c-21.22.05-42.45,0-63.67-.09-3.27-.01-6.54-.33-9.79-.66v-93.94c3.48-.34,6.97-.67,10.47-.69,17.45-.08,34.92-.11,52.38-.06,1.75,0,3.49.12,5.24.24s3.49.3,5.24.5Z"/>
    <path class="cls-3" d="M176.11,121.7c.66-.49.86-.29.38.38-.59.9-.6,1.01-.03.35l-7.18,64.57-.81.38c-.11.33-.24.33-.38,0l-.26.76h-47.77l-.46-.76c-.05-.94-.34-1.69-.38-2.29-.44-1.01-.89-2.04-1.03-3.14-.74-5.85-1.43-11.76-2.03-17.62-.05-.53,0-1.08.06-1.63s.19-1.11.32-1.66c-.34-.09-.33-.22,0-.38-2.63-12.66-4.27-25.64-4.58-38.57l1.13-.6c8.19,1.02,15.22-3.42,21.28-8.34,6.84-5.22,15.24-2.94,22.44.32,5.96,3.09,12.14,5.54,18.53,7.34l.78.9Z"/>
    <path class="cls-5" d="M22.59,160.65c27.72-.36,55.52,0,83.25,0,0-.2.02-.38.12-.51.3-.41,8.81-.35,10.02-.25l.56.76c.01.13-.01.26,0,.38l-.35.76c-3.2-.08-6.36-.02-9.47.16l3.24,27.69-.68.8-11.84,6.87h-53.46l-26.54-15.28-.14-20.76c.34-1.04,4.13-.61,5.29-.63Z"/>
    <path class="cls-5" d="M82.54,30.05c.07-.34.2-.33.38,0l2.72.7,28.77,16.73c.22.13.45.28.59.5.5.77.45,16.03.37,18.27l-.76.46c-6.2,1.07-12.51,1.05-18.71,0-24.43.03-48.9.24-73.32,0-1.78-.02-3.57.01-5.35,0v-21.39l26.73-15.28c12.79-1.15,25.79-1.25,38.57,0Z"/>
    <path class="cls-10" d="M114.62,66.71c1.43-.95,2.77-.94,4.2,0v33.22l-7.63.19c-1.3-.13-1.94.11-1.53.96,1.94,6.77,2.66,13.97,2.29,21,1.5,12.85,3.14,25.71,4.58,38.57h-10.69l-6.87-61.87h0c-.08-.83-.08-1.68,0-2.51.2-1.99.1-3.23-.41-4.99-.48-1.66-.74-3.38-.75-5.11h0c-1.16-6.16-1.31-13.22-1.91-19.48,6.23,0,12.48.02,18.71,0Z"/>
    <path class="cls-1" d="M93.24,2.55l-1.09.68-9.92.16c.59.8,1.04,1.72,1.09,2.74v23.46s-.77.46-.77.46c-12.85-.07-25.72.05-38.57,0l.03-23.07c.29-1.97,1.32-3.29,3.04-4.22,10.62-.54,21.26,0,31.89-.19,4.04-.07,8.1-.45,12.21-.4.65,0,1.7-.24,2.09.39Z"/>
    <path class="cls-1" d="M168.78,64.13c16.05-.77,17.42,23.31,2.16,24.73-17.43,1.62-18.5-23.94-2.16-24.73Z"/>
    <path class="cls-4" d="M168.09,187.38c.3.08.74.21.76.44.19,2.25.19,6.31,0,8.57l-.76.55c-16.16.1-32.34-.08-48.5,0-.12-3.17.17-6.39,0-9.55h48.5Z"/>
    <path class="cls-1" d="M145.1,39.68c15.83-.61,16.93,23.61,1.03,24.37-16.03.76-16.98-23.75-1.03-24.37Z"/>
    <path class="cls-9" d="M182.6,121.7c-2.49,21.27-6.28,44.56-7.64,65.68-.02.34-.18.56-.43.76s-6.02.32-6.06-.76l7.26-65.3h.76c-.37-1.14,5.26-1.22,5.54-1.11s.44.44.57.73Z"/>
    <path class="cls-6" d="M97.44,30.05l26.73,15.47v21.19c-1.78.01-3.57-.02-5.35,0-1.4.01-2.8,0-4.2,0l-.19-18.34-31.51-18.33c4.77-1.09,9.75-1.12,14.51,0Z"/>
    <path class="cls-10" d="M93.24,2.55c2.46.26,3.72,2.08,4.17,4.43l.03,23.07c-4.83-.02-9.68.03-14.51,0-.13,0-.25,0-.38,0V6.17c-.06-1.47-1.11-2.52-1.91-3.62,4.03.3,8.65-.42,12.6,0Z"/>
    <path class="cls-6" d="M116.53,161.03c.9,8,2.06,16.02,2.67,24.06l-9.93,5.35-3.44-29.4h10.69Z"/>
    <path class="cls-1" d="M137.82,74.44c3.79-.64,7.35.43,9.28,3.91,4.34,7.83-4.96,16.02-12.21,10.68-5.32-3.92-3.52-13.49,2.93-14.59Z"/>
    <path class="cls-7" d="M178.4,99.93c2.29.01,4.59-.01,6.88,0-.82,6.93-1.47,13.9-2.28,20.84-.06.5-.38.86-.39.93l-6.11.38c-.04-.19-.2-.36-.38-.38l-.72-.43c.73-6.86,1.47-13.71,2.2-20.58l.81-.38c-.33-.11-.33-.24,0-.38Z"/>
    <path class="cls-7" d="M174.96,187.38c-.2,3.15.15,6.39,0,9.55-2.29,0-4.59-.02-6.88,0v-9.55h6.87Z"/>
    <path class="cls-2" d="M118.82,99.93c19.84-.11,39.73-.13,59.57,0v.38l-2.31.56c-22.69.12-44.84.19-66.43.2-.01-.13-.63-.57-.38-1.14,3.18-.02,6.37.02,9.55,0Z"/>
    <path class="cls-1" d="M95.53,83.51c3.54,7.72,0,13.69-7.35,16.77-2.19,2.13-3.17,5.16-2.94,9.09-.46,5.54-3.9,9.4-9.74,8.42-8.4-2.8-13.82.83-19.54,6.78-1.89,1.5-6.09,3.99-7.79,1.71.42-4.56,1.62-9.77.66-14.22-1.29-6-6.27-9.6-6.78-16.51-.45-6.12,2.28-12.98,8.28-15.43,7.31-2.99,13.85,2.96,20.19,3,3.27.02,8.83-2.61,12.34-3.32,5.6-1.13,8.78-.48,12.68,3.71Z"/>
    <path class="cls-1" d="M97.82,86.18c.88,4.67,2.48,7.29,1.15,12.6-.86,3.43-3.9,6.9-5.29,10.17-3.32,7.81.8,15.7-.48,23.58-1.01,6.24-5.33,11.44-10.78,14.43-.99.54-3.61,2.34-3.98.46-.14-.67,1-5.41,1.07-6.81.26-5.16-1.65-19.85-8.62-20.08-7.84-.26-9.28,15.8-8.96,21.21.15,2.54,2.6,8.17-1.79,5.99-8.71-4.33-12.85-11.83-11.96-21.45,6.38,1.24,9.95-6.05,15.15-8.72,7.07-3.63,10.8.68,16.09-.71,5.91-1.56,4.86-9.68,5.89-13.97s7.86-4.73,9.8-8.91c1.33-2.86.93-7.42.42-10.46.85.92,1.38,1.88,2.29,2.67Z"/>
    <path class="cls-4" d="M178.4,100.31l-2.29,21.39c-11.58-1.66-24.86-13.22-35.91-10.51-4.82,1.18-7.77,4.82-11.86,7.24-5.05,2.99-10.49,4.69-16.39,3.66-.82-6.99-1.5-14.01-2.29-21-.21-1.15.58-.74,1.32-.76,22.33-.75,45.06.56,67.42,0Z"/>
    <path class="cls-1" d="M138.58,129.81c10.61-2.2,9.65,14.83-.36,11.64-5.97-1.91-5.06-10.51.36-11.64Z"/>
    <path class="cls-1" d="M167.19,165.37c5.73,6.1-3.7,14.48-9.04,8.46-5.37-6.05,3.88-13.96,9.04-8.46Z"/>
    <path class="cls-1" d="M130.94,161.12c9.71-1.79,10.08,12.16,1.5,11.99-7.38-.15-7.88-10.81-1.5-11.99Z"/>
  </g>
  <polygon class="cls-10" points="97.25 82.49 99.08 99.84 101.67 98.83 99.69 82.68 97.25 82.49"/>
</svg>