<?xml version="1.0" encoding="UTF-8"?>
<svg id="Layer_7" data-name="Layer 7" xmlns="http://www.w3.org/2000/svg" viewBox="0 0 200 200">
  <defs>
    <style>
      .cls-1 {
        fill: #5790c9;
      }

      .cls-2 {
        fill: #d0d8e2;
      }

      .cls-3 {
        fill: #b69b70;
      }

      .cls-4 {
        fill: #3d709b;
      }

      .cls-5 {
        fill: #86788b;
      }

      .cls-6 {
        fill: #acb4bc;
      }

      .cls-7 {
        fill: #ff5c6c;
      }

      .cls-8 {
        fill: #b7aa83;
      }

      .cls-9 {
        fill: #fefefe;
      }

      .cls-10 {
        fill: #9cabc1;
      }
    </style>
  </defs>
  <path class="cls-5" d="M104.11,3.82c1.6,1.09,2.42,2.48,1.59,4.4-.91,2.11-3.71,1.3-5.59,2.26-3.41,1.74-3.11,5.08-3.11,8.3l.75.48c-.4,4.69,1.05,7.78,6.22,7.98,4.41,1.57,3.65,6.67-1.29,7.27-6.87.83-13.9-8.21-12.42-15l.75-.73c.03-7.86,1.76-12.41,9.73-14.96h3.37Z"/>
  <path class="cls-2" d="M91.01,18.79c-.02,5.23.32,9.55,5.04,12.73,2.4,1.62,9.34,4.25,9.91-.23.52-4.09-3.34-3.08-5.61-4.08-3.63-1.61-3.36-5.12-3.36-8.42l41.23.1c8.43,1.24,14.86,8.03,15.64,16.53v86.45c-.44,4.02-2.11,8.08-4.88,11.02-2.13.93-5.57.5-7.95.18-1.34.15-2.18-.16-2.52-.93l.3-.84c3.86-1.24,7.65-4.45,8.29-8.61l.77-.46-.75-.26v-38.2l.75-1.01c-.8,2.36-4.81,2.71-7.12,2.66-4.43-.82-8.84-1.81-13.22-2.97l-.61-.81-.73-.96c.44-7.53.46-15.04.06-22.55-.1-2.92-2.41-5.39-5.29-5.68-12.63.04-25.26-.03-37.91-.2-4.21.07-7.86.24-9.18,4.69l-.13,20.57c-.08,1.4-.32,2.78-.7,4.13l-.61.81c-4.38,1.15-8.79,2.14-13.22,2.97-2.32.05-6.33-.3-7.12-2.66l-.5-4.07c-.2-18.43-.27-36.56-.23-54.38l.36-.65c2.8-2.64,6.54-4.21,10.33-4.82l28.95-.05Z"/>
  <path class="cls-6" d="M52.1,82.76l.5.94c-.05,11-.07,22.03-.06,33.08-1.25,14.03,8.76,15.61,19.87,14.98l.64.75c.99,1.97.99,4.02,0,5.99-7.63-.09-14.07,1.1-20.4-4.11-3.5-2.88-5.73-7.06-6.43-11.52l-.1-87.8c.58-4.27,2.47-8.46,5.61-11.42.62.39.37,1.42.38,2.05.2,19.01-.05,38.05,0,57.06Z"/>
  <path class="cls-8" d="M126.93,138.5c-.09,5.3,1.21,11.39-5.99,11.97-.84.83-2.01,1.12-3.51.88-2.6.13-6.31.28-8.46-.88-5.98.05-11.98.05-17.96,0l-1.16.75c-1.97.2-8.08.48-9.71.07-.46-.12-.81-.46-1.1-.82-7.19-.58-5.9-6.67-5.99-11.97,17.91-.98,35.96-.98,53.87,0Z"/>
  <path class="cls-3" d="M120.94,150.47l-.02,18.5c-.33,1.7-1.34,2.29-2.97,2.45l-.35.78c-.94.27-5.53.44-5.63-.78-1.63-.17-2.64-.75-2.97-2.45l-.02-18.5c3.84-.03,8.23.3,11.97,0Z"/>
  <path class="cls-3" d="M91.01,150.47c-.53,3.05.88,11.3-.42,13.61-1.05,1.87-6.33,1.56-8.39,1.37-1.45-.13-2.73-.57-3.08-2.16-.78-3.5.41-9.09-.08-12.83,3.74.3,8.13-.03,11.97,0Z"/>
  <path class="cls-10" d="M117.95,171.42l-.02,21.49c-.52,3.31-5.43,3.31-5.94,0l-.02-21.49c1.54.16,4.45.16,5.99,0Z"/>
  <path class="cls-6" d="M138.52,132.14l10.47.75c-6.37,6.75-13.67,5.51-22.07,5.61-.99-1.97-.99-4.02,0-5.99l.94-.75c3.22.18,6.44.11,9.64-.2l1.02.57Z"/>
  <path class="cls-1" d="M73.05,81.64l.75.51c-1,6.36.84,9.93,5.51,10.7,14.09.37,28.29.22,42.39-.07,4.53-.09,4.87-7.43,4.46-10.62l.75-.53c7.35.61,13.54,5.77,20.95,1.12v39.47c0,4.46-5.18,9.03-9.35,9.91-3.55.75-7.9.33-11.6.37l-.75-.5c1.11-6.37-.6-9.94-5.14-10.71-14.37-.2-28.75-.17-43.14.07-4.51.1-4.4,7.58-4.08,10.65l-.75.5c-8.76-.1-19.92,1.02-20.96-11.02-1.02-11.81.04-26.57.01-38.73,7.41,4.65,13.6-.51,20.95-1.12Z"/>
  <path class="cls-7" d="M126.93,81.64c-.09,5.07,1.01,10.11-5.14,11.88-13.72-.6-28.61,1.11-42.2.11-7.42-.55-6.43-6.49-6.53-11.99-.15-8.25.03-16.54.09-24.79.9-3.24,3.13-4.91,6.44-5.16,13.28-.99,27.77.78,41.18,0,2.89.03,5.74,2.66,6.12,5.47.87,6.42.15,17.6.03,24.47Z"/>
  <path class="cls-1" d="M126.93,132.51c.03,1.98.03,4,0,5.99-17.92.21-35.95.21-53.87,0-.03-1.98-.03-4,0-5.99,17.91-.98,35.97-.98,53.87,0Z"/>
  <path class="cls-4" d="M126.93,132.51c-17.92.22-35.95.21-53.87,0,.08-4.77-1.19-10.36,4.77-11.88,13.96.62,29.12-1.13,42.95-.11,7.38.55,6.06,6.54,6.16,11.99Z"/>
  <path class="cls-9" d="M87.16,63.76l25.34-.06c3.31.52,3.3,5.43,0,5.94-7.31,1.14-17.41-.79-25.02,0-3.16-.49-3.36-4.99-.32-5.88Z"/>
  <path class="cls-9" d="M87.16,75.73l25.34-.06c3.31.52,3.3,5.43,0,5.94-7.31,1.14-17.41-.79-25.02,0-3.16-.49-3.36-4.99-.32-5.88Z"/>
</svg>