<?xml version="1.0" encoding="UTF-8"?>
<svg xmlns="http://www.w3.org/2000/svg" viewBox="0 0 800 600">
  <defs>
    <style>
      .cls-1 {
        fill: #c6ccfa;
      }

      .cls-2 {
        stroke-width: 3.46px;
      }

      .cls-2, .cls-3, .cls-4, .cls-5, .cls-6, .cls-7, .cls-8, .cls-9, .cls-10, .cls-11, .cls-12 {
        fill: none;
        stroke-miterlimit: 10;
      }

      .cls-2, .cls-3, .cls-5, .cls-6, .cls-7, .cls-8, .cls-12 {
        stroke: #180148;
      }

      .cls-3, .cls-8 {
        stroke-width: .29px;
      }

      .cls-4, .cls-5, .cls-8 {
        stroke-linecap: round;
      }

      .cls-4, .cls-5, .cls-9, .cls-10, .cls-11, .cls-12 {
        stroke-width: 1.15px;
      }

      .cls-4, .cls-10 {
        stroke: #1b2c70;
      }

      .cls-13 {
        fill: #e9edff;
      }

      .cls-14 {
        fill: #fff;
      }

      .cls-15, .cls-16 {
        fill: #f9708e;
      }

      .cls-17 {
        mix-blend-mode: multiply;
      }

      .cls-17, .cls-18 {
        fill: #ce452f;
      }

      .cls-19 {
        fill: #5aff91;
      }

      .cls-6 {
        stroke-width: 2.31px;
      }

      .cls-20 {
        fill: #022491;
      }

      .cls-7 {
        stroke-width: .58px;
      }

      .cls-21 {
        fill: #c6e5fa;
      }

      .cls-22 {
        fill: #e9f8ff;
      }

      .cls-23 {
        fill: #f7af9a;
      }

      .cls-24 {
        fill: #d7f1ff;
      }

      .cls-25 {
        fill: #f18671;
      }

      .cls-26 {
        isolation: isolate;
      }

      .cls-9 {
        stroke: #3656ce;
      }

      .cls-27 {
        fill: #082ca8;
      }

      .cls-16 {
        fill-rule: evenodd;
      }

      .cls-28 {
        fill: #d7ddff;
      }

      .cls-29 {
        fill: #180148;
      }

      .cls-30 {
        fill: #d35440;
      }

      .cls-31 {
        fill: #ffc6b6;
      }

      .cls-11 {
        stroke: #fff;
      }

      .cls-32 {
        fill: #94a7f8;
      }

      .cls-33 {
        fill: #3656ce;
      }
    </style>
  </defs>
  <g class="cls-26">
    <g id="Layer_11" data-name="Layer 11">
      <g>
        <g>
          <path class="cls-22" d="M60.49,464.13c-16.56.12-31.02,9.32-33.07,19.64-2.05,10.31,7.05,20.8,20.81,26.58,12.66,5.32,28.28,6.95,42.22,10.81,13.94,3.86,27.45,11.57,26.68,21.12-.74,9.21-14.58,16.91-13.01,26.08,1.22,7.12,11.42,12.27,21.67,15.4,41.76,12.77,91.73,5.13,135.07-5.37,43.35-10.5,87.27-23.89,133.63-21.97,20.88.86,41.06,4.83,61.39,7.94,133.09,20.33,45.35-24.11,159.34-6.7,68.1,10.4,140.55-65.62,139.32-80.45-3.2-38.42-141.4-17.74-292.61-20.71-135.53-2.66-271.58,6.68-401.44,7.63"/>
          <rect class="cls-21" x="19.05" y="455.84" width="726.94" height="12.61"/>
          <g>
            <rect class="cls-24" x="377.88" y="89.28" width="121.11" height="44.41"/>
            <rect class="cls-21" x="363.89" y="84.67" width="74.54" height="52.48"/>
            <rect class="cls-14" x="370.95" y="106.24" width="125.15" height="8.07"/>
            <rect class="cls-24" x="409.44" y="100.69" width="15.14" height="11.1"/>
            <path class="cls-21" d="M459.22,251.61c-5.9,0-11.7-4-14.8-10.24-2.35-4.73-3.28-10.5-2.91-18.16.63-13.09,4.3-25.84,7.86-38.18,1.63-5.67,3.32-11.52,4.69-17.32l2.41.57c-1.38,5.86-3.08,11.75-4.72,17.44-3.52,12.2-7.15,24.82-7.77,37.61-.35,7.22.5,12.6,2.66,16.94,2.21,4.43,6.94,8.87,12.59,8.87.05,0,.1,0,.15,0,6.33-.09,11.26-5.69,13.17-10.85,2.2-5.96,1.85-12.68,1.16-19.06-1.38-12.61-4.08-25.12-8-37.17-.52-1.59-1.06-3.19-1.6-4.8-3.58-10.59-7.29-21.53-5.2-32.6l2.43.46c-1.97,10.43,1.63,21.06,5.11,31.35.55,1.61,1.09,3.22,1.61,4.82,3.98,12.21,6.7,24.88,8.11,37.67.73,6.68,1.08,13.74-1.29,20.18-2.26,6.13-7.92,12.36-15.45,12.47-.06,0-.12,0-.18,0Z"/>
            <path class="cls-21" d="M455.38,146.29c-.14,7.05-.58,14.09-1.34,21.1-.11,1.05.07,2.51,1.12,2.61,1.04.1,1.51-1.27,1.61-2.31.66-6.96,1.32-13.92,1.97-20.88-1.08-.28-2.21-.36-3.36-.51"/>
            <path class="cls-22" d="M454.85,92.6c.81,15.88.51,31.81-.89,47.64-.17,1.94-.33,4.01.62,5.7.95,1.69,3.5,2.61,4.88,1.25.84-.83.95-2.13,1-3.31.73-16.37,1.08-32.76,1.06-49.14,0-.44-.02-.92-.32-1.23-.28-.28-.7-.33-1.09-.36-1.61-.13-3.24-.16-5.25-.54"/>
            <rect class="cls-21" x="453.29" y="102.37" width="9.59" height="7.57"/>
            <path class="cls-21" d="M452.8,76.52s-.28-.87-1.3,6.3c-1.02,7.18-.88,8.99,1.39,11,2.28,2.01,7.46,1.91,9.5.39,1.72-1.28,3.42-4.09,2.31-9.02-1.26-5.62-2.51-8.58-2.51-8.58l-9.38-.09Z"/>
            <path class="cls-21" d="M453.92,119.84c-1.2,6.5-1.73,13.12-1.59,19.72.04,2.06.17,4.18,1.08,6.03.91,1.85,2.8,3.36,4.85,3.21,1.81-.13,3.35-1.51,4.14-3.14.8-1.63.98-3.49,1.09-5.3.41-6.84-.05-13.73-1.37-20.46-2.67.02-5.33.03-8.2-.06"/>
          </g>
          <g>
            <g>
              <rect class="cls-24" x="537.81" y="325.7" width="238.01" height="142.81"/>
              <rect class="cls-22" x="554.53" y="327.78" width="204.57" height="126.43"/>
              <g>
                <g>
                  <rect class="cls-24" x="563.47" y="340.94" width="89.69" height="47.59"/>
                  <rect class="cls-21" x="588.15" y="361.54" width="40.33" height="6.41"/>
                </g>
                <g>
                  <rect class="cls-24" x="660.47" y="340.94" width="89.69" height="47.59"/>
                  <rect class="cls-21" x="685.15" y="361.54" width="40.33" height="6.41"/>
                </g>
                <g>
                  <rect class="cls-24" x="563.47" y="396.41" width="89.69" height="47.59"/>
                  <rect class="cls-21" x="588.15" y="417" width="40.33" height="6.41"/>
                </g>
                <g>
                  <rect class="cls-24" x="660.47" y="396.41" width="89.69" height="47.59"/>
                  <rect class="cls-21" x="685.15" y="417" width="40.33" height="6.41"/>
                </g>
              </g>
              <polygon class="cls-24" points="529.88 320.72 536.82 316.1 774.85 315.44 783.76 320.72 529.88 320.72"/>
              <rect class="cls-21" x="529.88" y="320.57" width="253.88" height="10.27"/>
            </g>
            <g>
              <rect class="cls-22" x="645.16" y="309.81" width="111.89" height="10.45"/>
              <path class="cls-22" d="M745.19,244.56h-88.38v64.97h2.54v-43.35h5.76v35.69c0,2.57,2.09,4.66,4.66,4.66s4.66-2.09,4.66-4.66v-35.69h6.34v35.69c0,2.57,2.09,4.66,4.66,4.66s4.66-2.09,4.66-4.66v-35.69h6.35v35.69c0,2.57,2.08,4.66,4.66,4.66s4.66-2.09,4.66-4.66v-35.69h6.34v35.69c0,2.57,2.09,4.66,4.66,4.66s4.66-2.09,4.66-4.66v-35.69h6.34v35.69c0,2.57,2.09,4.66,4.66,4.66s4.66-2.09,4.66-4.66v-35.69h5.76v43.35h2.54v-64.97h-.21ZM742.86,246.5v2.08h-83.5v-2.08h83.5ZM737.1,264.25v-4.47h1.6v-4.46h-12.52v4.46h1.6v4.47h-6.34v-4.47h1.6v-4.46h-12.51v4.46h1.59v4.47h-6.34v-4.47h1.6v-4.46h-12.52v4.46h1.6v4.47h-6.35v-4.47h1.6v-4.46h-12.52v4.46h1.6v4.47h-6.34v-4.47h1.6v-4.46h-12.51v4.46h1.6v4.47h-5.76v-14.15h83.5v14.15h-5.76Z"/>
            </g>
          </g>
          <g>
            <g>
              <rect class="cls-24" x="19.69" y="345.39" width="238.01" height="142.81"/>
              <rect class="cls-22" x="36.41" y="347.46" width="204.57" height="126.43"/>
              <g>
                <g>
                  <rect class="cls-24" x="45.36" y="360.63" width="89.69" height="47.59"/>
                  <rect class="cls-21" x="70.04" y="381.22" width="40.33" height="6.41"/>
                </g>
                <g>
                  <rect class="cls-24" x="142.35" y="360.63" width="89.69" height="47.59"/>
                  <rect class="cls-21" x="167.03" y="381.22" width="40.33" height="6.41"/>
                </g>
                <g>
                  <rect class="cls-24" x="45.36" y="416.09" width="89.69" height="47.59"/>
                  <rect class="cls-21" x="70.04" y="436.69" width="40.33" height="6.41"/>
                </g>
                <g>
                  <rect class="cls-24" x="142.35" y="416.09" width="89.69" height="47.59"/>
                  <rect class="cls-21" x="167.03" y="436.69" width="40.33" height="6.41"/>
                </g>
              </g>
              <polygon class="cls-24" points="11.76 340.41 18.7 335.78 256.74 335.12 265.64 340.41 11.76 340.41"/>
              <rect class="cls-21" x="11.76" y="340.25" width="253.88" height="10.27"/>
            </g>
            <g>
              <rect class="cls-22" x="11.76" y="329.49" width="111.89" height="10.45"/>
              <path class="cls-22" d="M111.79,264.25H23.41v64.97h2.54v-43.35h5.76v35.69c0,2.57,2.09,4.66,4.66,4.66s4.66-2.09,4.66-4.66v-35.69h6.34v35.69c0,2.57,2.09,4.66,4.66,4.66s4.66-2.09,4.66-4.66v-35.69h6.35v35.69c0,2.57,2.08,4.66,4.66,4.66s4.66-2.09,4.66-4.66v-35.69h6.34v35.69c0,2.57,2.09,4.66,4.66,4.66s4.66-2.09,4.66-4.66v-35.69h6.34v35.69c0,2.57,2.09,4.66,4.66,4.66s4.66-2.09,4.66-4.66v-35.69h5.76v43.35h2.54v-64.97h-.21ZM109.45,266.18v2.08H25.95v-2.08h83.5ZM103.69,283.94v-4.47h1.6v-4.46h-12.52v4.46h1.6v4.47h-6.34v-4.47h1.6v-4.46h-12.51v4.46h1.59v4.47h-6.34v-4.47h1.6v-4.46h-12.52v4.46h1.6v4.47h-6.35v-4.47h1.6v-4.46h-12.52v4.46h1.6v4.47h-6.34v-4.47h1.6v-4.46h-12.51v4.46h1.6v4.47h-5.76v-14.15h83.5v14.15h-5.76Z"/>
            </g>
          </g>
          <g>
            <g>
              <rect class="cls-22" x="21.41" y="75.69" width="113.63" height="168.42"/>
              <rect class="cls-24" x="32.96" y="87.93" width="90.54" height="144.67"/>
              <rect class="cls-22" x="21.41" y="138" width="113.63" height="10.65"/>
              <rect class="cls-22" x="21.41" y="184.51" width="113.63" height="10.65"/>
              <g>
                <rect class="cls-21" x="38.1" y="93.93" width="11.54" height="43.35"/>
                <rect class="cls-21" x="53.48" y="93.93" width="11.54" height="43.35"/>
              </g>
              <g>
                <rect class="cls-21" x="83.42" y="148.65" width="11.54" height="36.69"/>
                <rect class="cls-21" x="98.8" y="148.65" width="11.54" height="36.69"/>
              </g>
              <g>
                <rect class="cls-21" x="40.02" y="196.08" width="11.54" height="36.69"/>
                <rect class="cls-21" x="55.39" y="196.08" width="11.54" height="36.69"/>
              </g>
              <g>
                <line class="cls-11" x1="47.24" y1="159.9" x2="87.26" y2="211.72"/>
                <line class="cls-11" x1="53.48" y1="125.63" x2="112.66" y2="201.71"/>
                <line class="cls-11" x1="67.29" y1="95.91" x2="126.47" y2="172"/>
              </g>
            </g>
            <g>
              <rect class="cls-22" x="150.84" y="75.69" width="113.63" height="168.42"/>
              <rect class="cls-24" x="162.39" y="87.93" width="90.54" height="144.67"/>
              <rect class="cls-22" x="150.84" y="138" width="113.63" height="10.65"/>
              <rect class="cls-22" x="150.84" y="184.51" width="113.63" height="10.65"/>
              <g>
                <rect class="cls-21" x="165.16" y="194.52" width="11.54" height="36.69"/>
                <rect class="cls-21" x="180.54" y="194.52" width="11.54" height="36.69"/>
              </g>
              <g>
                <rect class="cls-21" x="199.04" y="194.52" width="11.54" height="36.69"/>
                <rect class="cls-21" x="214.41" y="194.52" width="11.54" height="36.69"/>
              </g>
              <g>
                <rect class="cls-21" x="167.08" y="101.47" width="11.54" height="36.69"/>
                <rect class="cls-21" x="182.45" y="101.47" width="11.54" height="36.69"/>
              </g>
              <g>
                <line class="cls-11" x1="176.67" y1="159.9" x2="216.69" y2="211.72"/>
                <line class="cls-11" x1="182.9" y1="125.63" x2="242.09" y2="201.71"/>
                <line class="cls-11" x1="196.72" y1="95.91" x2="255.9" y2="172"/>
              </g>
            </g>
          </g>
        </g>
        <g>
          <g>
            <g>
              <path class="cls-23" d="M537.07,198.82c6.99,17.26,14.12,34.75,25.33,49.62,6.21,8.24,14.47,16,24.73,17.14,10.81,1.2,21.32-5.52,27.42-14.52,6.1-9,8.55-19.94,10.25-30.67l-14.68-7.03c-2.06,6.62-4.12,13.24-6.18,19.85-.76,2.44-1.55,4.95-3.16,6.93-3.71,4.59-10.9,5.02-16.21,2.45-5.31-2.57-9.11-7.42-12.43-12.31-7.23-10.66-13.09-22.26-17.39-34.41-5.75,1.07-11.5,2.14-17.69,2.94"/>
              <g>
                <g>
                  <path class="cls-32" d="M615.89,539.27c-2.63,5.12-7.13,9.25-12.46,11.43-2.06.85-4.25,1.42-6.12,2.62-.51.33-1.01.72-1.3,1.26-.57,1.05-.17,2.42.66,3.27.82.86,1.99,1.3,3.14,1.6,2.63.7,5.4.85,8.08.44,5.3-.81,10.1-3.74,15.39-4.6,1.2-.2,2.46-.3,3.48-.96.99-.64,1.61-1.71,2.05-2.8,1.5-3.8,1.1-8.04.68-12.1-4.49-1.16-9.3-1.02-13.59-.17"/>
                  <path class="cls-33" d="M602.79,562.36c.55.04,1.1-.31,1.64-.19.33.08.62.27.92.43,1.42.75,3.22.72,4.62-.08,1.07-.62,2.11-1.69,3.3-1.39.32.08.61.25.92.36,1.07.36,2.24-.15,3.12-.85.88-.7,1.6-1.6,2.54-2.22.94-.62,2.23-.92,3.17-.3.35.23.63.57.97.83,1.37,1.01,3.45.22,4.38-1.21.15-.23.31-.49.57-.54.23-.05.46.08.68.17,1.21.48,2.73-.61,2.67-1.91.59.36,1.4-.08,1.68-.71.28-.63.17-1.36.06-2.04-.47-2.84-1.17-6.01-3.59-7.57-.18-.12-.39-.23-.61-.24-.62-.02-.58,2.73-5.51,7.02-1.11.97-2.66,1.26-4.03,1.8-2.5.96-5.13,4.99-13.17,5.6-2.9.22-8.6.33-11.3-3.44-.07-.1-2.42,5.84,6.97,6.5"/>
                  <path class="cls-30" d="M605.37,550.09c1.08,1.46,2.16,2.93,3.46,4.2.37.37.78.72,1.29.83.51.11,1.12-.11,1.28-.61.16-.51-.21-1.02-.55-1.43-.93-1.1-1.86-2.19-2.78-3.29-.37-.43-.75-.87-1.27-1.11-.52-.23-1.21-.18-1.55.26-.35.45-.08,1.27.14,1.15"/>
                  <path class="cls-30" d="M609.13,546.49c-.52.26-1.12.68-.99,1.25.05.19.17.35.3.5.54.66,1.14,1.27,1.74,1.88l2.57,2.63c.33.33.71.69,1.18.68.65-.02,1.05-.81.93-1.44-.12-.64-.59-1.14-1.04-1.61-1.08-1.12-2.15-2.24-3.23-3.35-.28-.29-.59-.6-.99-.65-.4-.05-.87.31-.45.12"/>
                  <path class="cls-30" d="M612.2,544.36c-.6.45-.82,1.34-.5,2.02.14.3.37.55.6.79,1.06,1.1,2.19,2.13,3.4,3.06.43.34.98.68,1.5.5.52-.18.76-.84.64-1.38-.12-.54-.48-1-.84-1.42-1.08-1.3-2.2-2.63-3.73-3.36-.27-.13-.57-.24-.88-.21-.3.03-.6.26-.2-.02"/>
                </g>
                <g>
                  <path class="cls-27" d="M618.11,317.51c-21.75,70.59-2.29,148.16-7.45,221.94,10.95,3.84,12.71,3.41,24.25,2.14,7.29-74.76,14.59-149.52,20.92-224.37-12.53.73-25.07,1.45-37.71.29"/>
                  <path class="cls-20" d="M634.32,533.12c6.82-32.13-7.76-64.48-12.24-97.01-3.44-25.04-.78-50.9,7.7-74.71,1.17-3.28,3.7-7.21,7.05-6.28,1.74.48,2.83,2.16,3.67,3.75,7.92,15.04,7.12,32.99,6.13,49.97-2.42,41.34-4.84,82.78-12.31,124.28"/>
                </g>
                <g>
                  <path class="cls-32" d="M699.26,537.2c-.34,5.74-2.78,11.35-6.76,15.5-1.54,1.61-3.31,3.02-4.53,4.87-.34.51-.64,1.07-.69,1.68-.09,1.19.82,2.28,1.93,2.73,1.1.45,2.35.38,3.52.19,2.68-.42,5.28-1.41,7.56-2.87,4.52-2.89,7.72-7.51,12.21-10.45,1.01-.67,2.12-1.28,2.79-2.28.65-.98.78-2.21.73-3.39-.16-4.08-2.26-7.8-4.29-11.34-4.57.76-8.91,2.84-12.48,5.36"/>
                  <path class="cls-33" d="M696.64,563.62c.52-.19.88-.73,1.43-.84.33-.06.68,0,1.01.02,1.6.11,3.24-.65,4.19-1.95.73-1,1.24-2.39,2.45-2.61.32-.06.65-.01.98-.05,1.12-.1,1.99-1.04,2.51-2.04.52-.99.82-2.11,1.42-3.06.61-.95,1.67-1.74,2.78-1.56.42.07.8.27,1.22.37,1.66.37,3.24-1.2,3.52-2.88.04-.27.08-.57.3-.73.19-.14.45-.11.69-.12,1.3-.05,2.25-1.67,1.67-2.83.68.1,1.25-.64,1.25-1.33,0-.69-.4-1.31-.77-1.89-1.58-2.41-3.51-5.02-6.35-5.47-.22-.03-.45-.06-.66.03-.57.23.58,2.72-2.19,8.65-.62,1.34-1.91,2.23-2.95,3.27-1.89,1.9-2.66,6.64-9.77,10.46-2.56,1.38-7.73,3.79-11.72,1.44-.1-.06.15,6.32,9,3.12"/>
                  <path class="cls-30" d="M694.03,551.36c1.57.9,3.16,1.8,4.86,2.44.48.18,1.01.34,1.52.23.51-.1.98-.55.92-1.07-.06-.53-.61-.85-1.09-1.09-1.29-.62-2.58-1.25-3.87-1.87-.51-.25-1.04-.5-1.61-.5-.57,0-1.18.32-1.32.86-.14.55.44,1.19.59,1"/>
                  <path class="cls-30" d="M696,546.54c-.37.44-.74,1.08-.4,1.54.12.16.3.25.48.34.76.38,1.56.7,2.35,1.01,1.14.46,2.28.91,3.41,1.36.43.17.93.35,1.36.14.58-.28.64-1.16.26-1.69-.37-.53-1.01-.8-1.61-1.05-1.44-.59-2.88-1.17-4.32-1.76-.37-.15-.78-.3-1.17-.19-.39.11-.67.64-.36.3"/>
                  <path class="cls-30" d="M697.94,543.35c-.37.66-.21,1.56.36,2.06.25.21.56.35.87.47,1.41.58,2.87,1.06,4.35,1.43.53.13,1.17.23,1.57-.15.41-.38.35-1.07.03-1.52-.32-.45-.84-.72-1.34-.96-1.52-.75-3.09-1.52-4.77-1.56-.3,0-.62.02-.88.17-.26.15-.44.48-.19.07"/>
                </g>
                <g>
                  <path class="cls-27" d="M635.31,308.93c-6.24,37.58,6.51,90.61,19.26,128.45,8.78,26.08,23.35,53.84,39.79,102.64,10.31-3.39,14.91-3.05,25.22-6.44-2.13-17.52-5.77-27.73-9.23-40.51-12.25-45.32-21.84-91.26-28.7-137.55-2.36-15.92-4.46-32.11-11.14-46.92-11.27,2.4-23.02,2.9-35.2.32"/>
                  <path class="cls-10" d="M653.11,341.96c1.38,5.24,3.19,10.45,6.2,14.96,3.01,4.51,7.32,8.31,12.52,9.88"/>
                  <path class="cls-10" d="M706.77,536.17c-4.03-55.64-41.83-104.51-46.13-160.12"/>
                </g>
              </g>
              <g>
                <path class="cls-33" d="M611.9,203.69c-9.06,17.07-.72,32.25,2.51,57.91,4.85,38.51-10.78,55.85-9.88,57.43.38.67-.54,8.15,57.33,19.28,1.81-7.47,4.69-21.49,4.66-29.17,3.2,8.49,2.17,16.86,2.98,25.89,15.38-4.16,23.07-5.65,22.14-8.48-5.19-15.84-16.28-38.57-19.12-54.99-4.82-27.8,5.95-39.28.4-58.37-1.04-3.56-2.43-7.09-4.81-9.93-2.7-3.24-6.49-5.38-10.37-7.05-8.7-3.74-35.89-11.3-45.84,7.48"/>
                <path class="cls-20" d="M639.9,312.99c-2.94-3.33-5.68-7.03-7.63-11.04-3.82-7.84-4.26-16.35-3.46-24.92,1.4-15.04,3.12-30.09,1.69-45.21-.7-7.39,15.08-22.56-3.72-30.04-10.88-4.33,3.76-7.78,3.49-9.97-.42-3.58-13.53.51-18.78,11.86-8.11,17.54-.72,32.25,2.51,57.91,4.85,38.51-10.78,55.85-9.88,57.43.38.67-.13,8.16,57.73,19.29.06-.24.36-1.52-.16-3.01-4.29-12.38-17.36-17.27-21.8-22.32Z"/>
              </g>
              <g>
                <path class="cls-30" d="M616.65,228.85c-1.74-6.52-3.48-13.04-5.22-19.57-.15-.56-.3-1.16-.14-1.71.16-.56.75-1.04,1.31-.86.5.17.71.75.86,1.27,1.97,7.12,3.73,14.3,5.27,21.52-.79.65-2.21-.24-2.08-.65"/>
                <path class="cls-27" d="M611.77,220.16c-.44,4.09-.32,8.23.37,12.29.25,1.49.58,2.98,1.22,4.35.81,1.76,2.11,3.29,3.71,4.38,1.54,1.05,3.5,1.68,5.28,1.14,2.66-.8,3.95-3.77,4.75-6.43,1.46-4.84,2.48-9.85,2.51-14.91-5.79.92-11.74.87-17.84-.81"/>
              </g>
              <path class="cls-2" d="M559.62,213.52c.91,6.93,1.29,14.02,3.64,20.61,2.35,6.58,7.11,12.78,13.83,14.72,6.71,1.94,15.03,2.14,20.94-1.58,17.49-10.99,21.39-39.41,22.06-40.56"/>
              <path class="cls-6" d="M624.46,167.17c-13.34,8.82-13.07,30.92-7.96,36.79,1.04,1.2,2.13,2.62,3.71,2.77"/>
              <g>
                <g>
                  <path class="cls-31" d="M626.72,197.77c6.79,3.2,15.33,2.14,21.26-2.64-2.32-8-.1-19.92,1.86-28.06-6.51-.21-14.38,3.24-20.89,3.55.97,6.43,1.68,12.08.32,19.85-.44,2.5-1.32,4.1-2.55,7.3"/>
                  <path class="cls-29" d="M629.67,188.23c3.16-.03,8.01-2.5,10.74-6.03,1.09-1.4,1.87-2.97,2.45-4.61-.94.87-2.21,1.36-3.46,1.79-2.13.73-4.32,1.34-6.54,1.83-.9.2-1.83.38-2.76.31.27.46-.21,5.46-.43,6.71"/>
                </g>
                <path class="cls-31" d="M637.39,149.74c-8.47,1.13-11.55,5.88-14.13,14.92-1.04,3.64-2.28,7.93-.47,12.56,3.94,10.1,16.54,3.89,18.6,2.44,4.56-3.21,8.41-6.78,10.02-11.81,1.62-5.03.73-10.86-3.07-14.74-3.8-3.88-6.84-3.93-10.95-3.38"/>
                <g>
                  <g>
                    <path class="cls-29" d="M628.96,161.33c.19-.58.8-.9,1.36-.72.56.18.86.8.68,1.38-.19.58-.8.9-1.36.72-.56-.18-.87-.8-.68-1.38"/>
                    <path class="cls-29" d="M637.92,166.36c.19-.58.8-.9,1.36-.72.56.18.87.8.68,1.38-.19.58-.8.9-1.36.72-.56-.19-.87-.81-.68-1.38"/>
                  </g>
                  <g>
                    <path class="cls-8" d="M634.23,162.72c-1.11,2.16-2.96,3.61-4.73,4.87-.16.11-.33.25-.41.45-.07.17-.06.34-.03.5.14.83.68,1.42,1.37,1.51"/>
                    <path class="cls-7" d="M629.01,159.75c.19.6.6,1.13,1.13,1.44.53.32,1.18.42,1.79.29"/>
                    <path class="cls-7" d="M637.98,164.77c.19.6.6,1.13,1.13,1.44.54.32,1.18.42,1.8.29"/>
                    <path class="cls-5" d="M626.45,172.75c.66.7,1.4,1.35,2.29,1.69.9.34,1.97.32,2.75-.27"/>
                    <path class="cls-5" d="M639.31,162.24c1.65-.05,3.25,1.11,3.73,2.71"/>
                    <path class="cls-5" d="M630.12,157.43c1.45-.13,2.92.73,3.54,2.07"/>
                  </g>
                </g>
                <g>
                  <path class="cls-18" d="M649.97,174.25c1.31,5.64,7.95,8.14,11.25,12.9,2.96,4.27,3.32,10.46,7.65,13.32,3.61,2.38,8.79,1.5,12.13,4.26,3.79,3.13,3.31,9.35,6.63,12.97,1.54,1.68,3.76,2.62,6,3.02,9.23,1.64,18.85-6.77,18.46-16.13-.14-3.43-1.4-6.72-1.81-10.13-.41-3.41.28-7.33,3.08-9.31,1.17-.83,2.57-1.22,3.84-1.88,5.94-3.07,7.47-11.79,3.82-17.4-3.65-5.61-11.13-7.94-17.7-6.69-3.77.72-8.41,2.18-10.87-.77-.93-1.12-1.24-2.61-1.9-3.91-1.56-3.07-5.15-4.8-8.6-4.7-3.44.1-6.7,1.82-9.22,4.17-1.71,1.59-1.74,6.61-3.45,8.2-4.04,3.77-8.97-1.28-11.9-.62-1.8.41-8.36,8.63-7.42,12.7"/>
                  <path class="cls-18" d="M655.5,166.68c4.19,4,11.11,2.46,16.48,4.64,4.81,1.95,8.5,6.94,13.69,6.96,4.33.02,8.18-3.56,12.48-3.07,4.89.55,7.89,6.01,12.65,7.23,2.21.57,4.58.14,6.68-.76,8.62-3.68,12.07-15.98,6.62-23.61-2-2.8-4.85-4.86-7.06-7.49-2.21-2.63-3.78-6.28-2.53-9.48.53-1.33,1.48-2.43,2.18-3.67,3.29-5.83-.21-13.96-6.33-16.66-6.12-2.7-13.66-.55-18.47,4.1-2.76,2.67-5.85,6.42-9.52,5.31-1.39-.43-2.46-1.51-3.72-2.23-2.99-1.72-6.94-1.2-9.77.77-2.83,1.97-4.61,5.19-5.44,8.54-.56,2.26,2.16,6.48,1.6,8.75-1.32,5.36-8.21,3.84-10.3,6-1.28,1.33-2.27,11.8.75,14.68"/>
                  <path class="cls-18" d="M623.64,145.48c-1.71.28-2.81,2.07-3.25,3.8-.54,2.08-.43,4.4.66,6.23,1.09,1.82,3.26,3,5.31,2.54,2.04-.46,3.47-2.29,5.01-3.75,1.55-1.45,3.85-2.65,5.64-1.57-1.18.73-1.88,2.21-1.71,3.6.18,1.4,1.22,2.62,2.54,2.99,1.48.41,3.03-.2,4.51-.67,1.47-.47,3.2-.76,4.44.16,1.26.94,1.5,2.83,1.07,4.38-.43,1.55-1.39,2.88-2.16,4.29-.21.38-.41.82-.26,1.23.22.61,1.08.65,1.65.37.58-.28,1.07-.76,1.69-.9,1.2-.26,2.27.84,3.49.93,1.16.09,2.2-.75,2.97-1.66,3.86-4.53,3.92-11.81.54-16.66-3.38-4.84-9.69-7.11-15.45-6.07-1.36.25-2.85.64-4.04-.05-.96-.55-1.46-1.66-2.17-2.52-1.57-1.91-4.39-2.61-6.66-1.64-2.27.97-3.49,6.06-3.81,4.96"/>
                </g>
                <path class="cls-31" d="M647.88,168.74c.95-.94,2.37-1.38,3.64-1.07,1.28.31,2.36,1.39,2.62,2.71.19.96-.03,1.97-.4,2.87-1.31,3.23-4.57,5.53-7.95,5.62-.4.01-.8,0-1.18-.15-.7-.28-1.19-.99-1.34-1.76-.16-.76-.03-1.56.21-2.3.8-2.51,2.81-4.37,4.4-5.92"/>
                <path class="cls-33" d="M647.26,174.55c.12.8.93,1.57,1.76,1.42.5-.09,1.05-.47,1.29-.9.39-.66-.21-1.86-.87-2.3-.93-.61-2.31.97-2.18,1.77"/>
                <path class="cls-6" d="M649.37,175.26c3.49,5.6,1.79,16.79-3.25,21.06-7.02,5.95-25.96,10.92-25.94,10.87"/>
              </g>
            </g>
            <g>
              <g>
                <g>
                  <path class="cls-25" d="M510.81,190.36c4.11.18,8.26-1.3,11.28-4.01,4.17,2.25,9.08,3.14,13.78,2.51,2.4-.32,6.29-1.21,7.64-3.16,5.23,5.62,8.87,7.73,13.21,11.16,4.38,3.46,10.67,6.16,12.56,8.16,1.14,1.2,2.27,2.46,2.92,3.97.1.23.19.5.08.73-.09.19-.28.31-.46.41-4.79,2.71-9.6,5.43-14.75,7.41-5.15,1.98-10.7,3.22-16.25,2.84-2.5-.17-4.98-.67-7.4-1.35-5.79-1.63-11.28-4.31-16.1-7.86-2.81-2.07-5.45-4.51-6.98-7.6-2.09-4.21-1.82-9.43.49-13.21"/>
                  <path class="cls-25" d="M546.69,190.05c-5.31-8.01-3.09-26.46-3.09-26.46l-25.69-6.31,2.32,35.49s-.67,6.67,13.48,3.87c14.14-2.8,15.37-3,12.98-6.6"/>
                </g>
                <path class="cls-29" d="M543.87,183.02c-5.52-.24-10.31-1.39-14.41-4.28-4.09-2.89-7.97-6.53-8.8-10.77,5.83,4.2,14.6,4.34,22.5,3.72-.26.81.12,7.52.71,11.33"/>
                <path class="cls-25" d="M534.35,136.68c4.8.87,9.48,2.05,9.88,14.87.32,10.37,4.81,12.37,2.43,19.95-2.04,6.5-12.2,9.12-19.6,4.25-4.51-2.97-7.29-5.29-11.02-18.56-5.09-18.09,13.06-21.46,18.32-20.5"/>
                <path class="cls-29" d="M552.35,134.95c-.4,4.07-2.66,8-7.49,11.12-1.72,1.11-2.92.4-3.69-.33-4.05-3.82-10.79-4.35-15.37-1.22-4.58,3.13-6.52,9.61-4.43,14.77-5.4-.18-10.42-4.33-11.62-9.6-.45-1.95-1.41-3.88-.73-7.18.59-2.89,1.23-4.73,3.85-7.03,3.98-3.51,6.98-3.32,18.09-3.16,0,0,3.28.14,4.77-.48,2.97-1.25,4.18-5.24,9.09-5.22,4.81.02,7.95,4.28,7.55,8.35"/>
                <path class="cls-25" d="M514.37,152.87c-1.67.27-2.35,2.11-2.2,3.63.25,2.44,1.02,4.31,2.9,6.55,1.27,1.52,2.21,1.89,3.81,2.01,1.38.1,2.73-.92,3.08-2.36.84-3.47-3.13-10.54-7.59-9.83"/>
                <path class="cls-18" d="M518.32,158.85c-.63-1.1-1.68-1.68-2.35-1.29-.67.38-.69,1.58-.06,2.68.63,1.1,1.68,1.68,2.35,1.3.67-.38.69-1.59.06-2.68"/>
                <g>
                  <g>
                    <path class="cls-29" d="M531.83,156.32c-.07-.57-.59-.98-1.16-.92-.57.07-.98.58-.91,1.16.07.57.59.98,1.16.92.57-.07.98-.59.91-1.16"/>
                    <path class="cls-29" d="M541.21,154.17c-.07-.57-.59-.99-1.16-.92-.57.07-.98.59-.91,1.16.07.57.59.98,1.16.92.57-.07.98-.59.92-1.16"/>
                  </g>
                  <g>
                    <path class="cls-3" d="M535.72,155.11c2.61,5.07,2.21,4.15,4.05,7.43.58,1.02-3.2,1.02-4.18.1"/>
                    <path class="cls-12" d="M541.35,151.01c-1.25-.47-2.86-.08-3.71.88"/>
                    <path class="cls-12" d="M531.96,153.17c-1.46-.44-3.37-.03-4.38.96"/>
                    <path class="cls-12" d="M539.75,168.15c-.97.18-1.96.31-2.93.12-.96-.18-1.9-.72-2.37-1.59"/>
                  </g>
                </g>
              </g>
              <g>
                <g>
                  <g>
                    <path class="cls-25" d="M553.91,534.14c6.25-38.29,1.91-45.16-5.63-71.57-13.14-46-.92-95.57-5.87-143.15-11.3-.38-27.4-.9-39.13.27-7.16,43.95,4.19,89.62,14.64,132.9,6.89,28.52,20.73,53.1,19.18,83.34-1.84,10.47-13.02,14.96-18.22,18.88-1.23.93-4.88,7.26.41,9.13,7.47,2.64,14.31.21,20.28-5.84,2.32-2.35,4.62-4.83,7.35-6.37,1.84-1.04,6.91-3.86,8.07-9.02.78-3.46-1.1-3.77-1.07-8.46,0-.03,0-.06,0-.09Z"/>
                    <path class="cls-4" d="M522.16,455.66c2.55,1.7,6.59.09,7.28-2.9"/>
                  </g>
                  <g>
                    <path class="cls-33" d="M516.19,559.78c-.76,3.49,1.64,8.58,8.66,8.49,2.76-.03,6.13-.29,8.46-1.78,2.77-1.77,5.3-3.92,7.52-6.36,1.44-1.59,3.64-4.69,5.42-5.88,2.84-1.91,5.81-2.62,8.37-4.88,3.09-2.71,3.36-6.29.67-9.41-2.74,7.08-10.53,10.49-16.66,14.97-3.41,2.49-6.52,5.53-10.43,7.1-3.91,1.57-9.79,1.31-12.01-2.26"/>
                    <path class="cls-32" d="M516.29,561.16c-.45-2.42.51-4.94,2.01-6.87,1.51-1.93,3.52-3.37,5.5-4.79,3.06-2.19,6.12-4.37,9.18-6.56,4.29,3.11,9.28,5.2,14.47,6.05-4.51,5.69-10.24,10.37-16.65,13.63-2.45,1.24-5.09,2.29-7.82,2.2-2.73-.08-6.25-1.29-6.69-3.66"/>
                  </g>
                </g>
                <g>
                  <g>
                    <path class="cls-25" d="M506.36,340.97c0-1.05-.93-1.84-1.97-1.71-10.84,1.38-21.83,1.54-32.71.47-1.01-.1-1.97.68-1.91,1.7,0,.16.04.29.1.37.31.43.36.95.28,1.48-3.53,23.65-3.85,45.95-4.42,67.6-.37,14.13-2.07,28.19-3.77,42.22-2.61,21.54-4.65,41.09-6.61,62-.04-.01-.09-.02-.12-.04,0,4.35-1.36,11.92-4.9,14.46-3.54,2.54-7.76,3.9-11.91,5.22-7.97,2.54-17.53,2.87-16.79,6.08.93,3.99,8.2,3.62,10.88,3.82,11.98.88,13.84.85,25.82-.17,3.2-.27,6.95-.99,8.28-3.92.49-1.1.55-2.34.59-3.55.17-4.71,1.43-9.2,3.83-17.85,6.36-16.21,11.73-31.46,14.43-49.36,1.65-10.97,2.07-22.1,3.52-33.1,4.1-31.21,17.29-64.3,17.37-95.72Z"/>
                    <path class="cls-4" d="M466.73,443.59c3.03,1.21,6.9-.76,7.7-3.92"/>
                    <path class="cls-18" d="M488.01,443.1c4.1-31.21,17.29-64.3,17.37-95.72,0-1.05-.93-1.84-1.97-1.71-7.42.95-13.14,2.18-20.62,1.98-3.78,22.26-2.67,44.4-.44,84.64.96,17.37,1.7,46.84,2.14,43.92,1.65-10.97,2.07-22.1,3.52-33.1Z"/>
                  </g>
                  <g>
                    <path class="cls-33" d="M466.95,539.86c-.2,2.56-.61,5.86-2.67,7.28-1.75,1.2-4.02.83-6.08.52-2.76-.41-5.54-.63-8.33-.68-2.73-.06-5.47.03-8.19.33-3.03.33-6.04.93-9.08,1.05-3.04.12-6.17-.27-8.83-1.78-1.08-.62-2.1-1.45-2.66-2.6-.56-1.15-.58-2.66.2-3.68,1.75,1.97,4.25,3.08,6.8,3.54,2.54.46,5.15.15,7.74.15,26.94-.04,31.1-4.25,31.11-4.12"/>
                    <path class="cls-32" d="M421.29,540.73c.77-3.51,3.54-6.31,6.71-7.99,3.17-1.68,6.75-2.41,10.27-3.12l8.29-1.67c.71-.15,1.48-.29,2.16-.04.64.23,1.13.77,1.57,1.29,2.88,3.32,4.13,9.45,4.18,13.84,0,.38-9.65,1.95-19.41,2.31-4.09.15-8.41-.06-11.89-2.21-1.09-.67-2-1.88-1.89-2.41"/>
                  </g>
                </g>
              </g>
              <g>
                <g>
                  <path class="cls-32" d="M582.98,220.77c-2.11-7.39-19.38-19.12-19.56-19.03-27.43,15.16-40.47,2.43-51.18-12.14-.48-.65-15.78,1.75-22.26,12.94-7.02,12.12-7.04,30.63-7.2,49.52-.12,14.07-.75,25.04-2.91,38.97.02.01.05.02.07.03-7.18,30.29-20.32,59.06-30.47,88.6-.49,1.45-.98,3.07-.34,4.46.52,1.14,1.68,1.83,2.78,2.43,21.17,11.52,64.63,23.87,75.63,8.66,1.89-2.62,2.83-5.9,5.08-8.28.91-.97,2.18-1.86,3.58-1.61,1.69.3,2.85,1.97,3.24,3.52.54,2.22.08,4.62-.04,6.86-.07,1.22-.09,2.48.12,3.69.35,1.98,6.18-.93,6.21-.97,8.39-9.8,7.15-102.95,9.45-109.29-2.92-.28-6.36-.79-10.1-1.43,2.67-6.11,7.13-12.05,13.59-20.26,11.19-14.22,28.63-31.48,24.3-46.67Z"/>
                  <path class="cls-33" d="M501.69,239.99c.48-17.95,3.07-34.92,7.31-50.11-4.95,1.06-14.31,4.54-19.01,12.67-7.02,12.12-7.05,30.63-7.2,49.52-.12,14.07-.75,25.04-2.91,38.97.02.01.05.02.07.03-7.19,30.29-20.32,59.06-30.47,88.6-.49,1.45-.98,3.07-.34,4.46.52,1.14,1.68,1.83,2.78,2.43,21.17,11.52,64.63,23.87,75.63,8.66,1.89-2.62,2.83-5.9,5.08-8.28.91-.97,2.18-1.86,3.58-1.61,1.69.3,2.86,1.97,3.24,3.52.54,2.22.08,4.62-.04,6.86-.07,1.22-.09,2.48.12,3.69.35,1.98,6.18-.93,6.21-.97,3.25-3.8,5.05-20.08,6.18-38.98-30.08-11-51.8-60.57-50.24-119.45Z"/>
                </g>
                <path class="cls-25" d="M468.92,263.03c-3.58,14.83-3.86,30.44-.83,45.39,1.07,5.25,2.57,10.47,5.16,15.17,4.61,8.37,13.11,15.53,17.54,25.57,0,0,5.97,10.83,8.74,11.37,2.6.5.23-1.15-.22-4.23,1.87,4.32,5.12,5.42,5.82,4.5,1.27-1.7-1.64-5.1-3.15-7.29,1.88,3.21,6.73,7.86,8.53,6.78,1.33-.8-3.32-6.17-4.99-9.26,1.92,3.32,6.92,8.89,8.29,7.72,1.95-1.67-4.94-7.21-5.73-11.56,2.91,1.15,8.89.62,8.1-1.92-.68-2.2-12.62-2.31-16.62-8.31-4.75-7.12-7.86-13.21-12-19.41-2.52-3.77-5.07-7.62-6.38-11.97-1.65-5.49-1.2-11.36-.69-17.08.63-6.96,1.32-13.91,2.08-20.86-4.8-1.11-9.49-2.67-13.68-4.61"/>
                <path class="cls-33" d="M504.16,192.01c-10.07,1.36-18.49,8.85-23.55,17.67-5.06,8.82-18.11,55.03-15.91,58.14,1.43,2.03,20.6,6.38,24.22,5.31,1.47-.43,2.92-1.14,3.89-2.34,1.49-1.85,1.55-4.43,1.55-6.81.02-20.3,1.46-40.6,4.3-60.7.55-3.91,1.33-8.13,5.51-11.28"/>
                <g>
                  <path class="cls-4" d="M488.15,235.57c.49,19.37-1.21,38.97,2.23,58.03,3.44,19.06,12.71,38.05,31.44,50.12"/>
                  <path class="cls-4" d="M506.69,253.67c.21,7.58,2.26,15.11,5.93,21.75"/>
                  <path class="cls-4" d="M512.51,232.94c-1.91,8.89.1,18.55,5.4,25.93"/>
                  <path class="cls-4" d="M478.28,348.88c-1.65,12.46,6.64,23.67,22.24,30.11"/>
                </g>
                <g>
                  <path class="cls-20" d="M567.75,290.63c-.36,2.28-11.48-.14-15.03-1.11-18.96-5.15-25.18-20.49-17.93-24.61,10.52-3.63,35.27,8.26,32.95,25.72"/>
                  <path class="cls-23" d="M558.89,286.27c-4.96-3.51-11-4.5-15.97-8.01-3.91,8.75-7.95,17.72-14.54,24.57-8.79,9.15-21.04,13.46-32.94,16.57-1.72.45-3.5.87-5.23.63-9.09-1.26-12.76-8.82-14.14-6.76-.88,1.3.97,4.12,2.69,6.28-1.98-.72-3.91-2.34-7.77-3.97-.59-.25-.76.94-.47,1.5.29.57.78,1,1.25,1.42.87.77,1.74,1.53,2.6,2.3-5.22-2.92-5.88-1.67-5.47-.98.25.41.48.76,1.32,1.39,1.13.85,2.3,1.64,3.5,2.38-6.7-1.84-5.98-.32-3.89,1.18,1.09.78,2.56.96,3.54,1.87-2.45.67-3.32-1.03-3.51.96-.06.63,6.4,3.81,13.65,4.6,0,0,0,.02,0,.02,8.18,1.13,34.49-.68,50.23-10.41,11.34-7.01,16.01-14.1,23-28.88.44-.93,2.75-6.08,2.17-6.66"/>
                  <path class="cls-32" d="M562.26,202.3c13.68-6.11,25.91,18.79,24.14,37.26-2.71,28.2-16.58,51.31-18.96,51.26-2.38-.05-4.16-7.55-19.47-7.32-14.28.21-20.55-8.05-17.47-18.97,4.65-16.48,4.35-16.87,13.32-35.63,3.16-6.6,14.07-24.64,18.44-26.6"/>
                  <path class="cls-4" d="M547.38,240.25c-4.26,15.59-8.92,24.67-12.56,30.58-2.03,3.29-3.48,7.74,2.12,10.22,11.28,5,22.42.69,30.5,9.77"/>
                </g>
              </g>
            </g>
            <g>
              <path class="cls-31" d="M653.97,217.19c-7.65,3.28-13.72,11.57-18.72,20.28-5,8.71-12.28,26.67-17.92,27.81-2.95.59-26.77-15.79-28.39-21.11-.84-2.76-.27-6.02-.67-8.99-.91-6.83-10-13.79-11.1-12.37-1.71,2.23,2.47,5.19,3.7,7.79-1.75-2.72-6.26-4.09-7.2-2.28-1.48,2.85,3.95,4.01,6.25,6.77-2.52-1.46-8.42-3.16-6.27-.58,1.81,2.17,3.25,3.46,5.9,6.37-2.37-1.78-7.5-1-4.88.58,11.19,6.77,26.43,47.8,39.64,50.04,14.95,2.53,32.1-20.3,41.63-36.59,4.79-8.17,9.03-20.39,7.93-30.45-.56-5.1-7.39-8.33-9.91-7.26"/>
              <path class="cls-33" d="M649.19,199.11c-5.39,1.22-9.52,5.48-13.02,9.76-6.6,8.07-12.18,16.97-16.58,26.42-.25.53-.5,1.12-.38,1.7.08.39.32.73.55,1.05,8.05,10.96,20.23,18.79,33.54,21.57,8.52-12.28,17.34-25.39,18.29-40.31.23-3.63-.07-7.44-1.91-10.56-1.34-2.28-3.42-4.04-5.58-5.56-4.74-3.32-10.65-5.03-14.91-4.06"/>
              <path class="cls-4" d="M619.21,236.99c8.8,13.05,25.97,21.24,35.73,22.83.57.09,1.17.17,1.69-.09.61-.3.92-.99,1.18-1.63,1.91-4.71,3.81-9.43,5.72-14.14,2.29-5.66,4.62-11.64,3.83-17.69"/>
            </g>
          </g>
          <g>
            <g>
              <rect class="cls-20" x="176.89" y="138.54" width="257.9" height="359.87"/>
              <rect class="cls-14" x="190.69" y="150.9" width="230.3" height="330.39"/>
              <g>
                <rect class="cls-32" x="251.36" y="129.02" width="112.68" height="34.37"/>
                <g>
                  <rect class="cls-20" x="271.9" y="136.53" width="72.26" height="19.62"/>
                  <g>
                    <path class="cls-20" d="M268.03,146.34c0,3.34-2.71,6.05-6.05,6.05s-6.05-2.71-6.05-6.05,2.71-6.05,6.05-6.05,6.05,2.71,6.05,6.05Z"/>
                    <path class="cls-20" d="M360.12,146.34c0,3.34-2.71,6.05-6.05,6.05s-6.05-2.71-6.05-6.05,2.71-6.05,6.05-6.05,6.05,2.71,6.05,6.05Z"/>
                  </g>
                </g>
              </g>
            </g>
            <g>
              <rect class="cls-13" x="212.58" y="183.8" width="117.66" height="10.88"/>
              <rect class="cls-13" x="212.58" y="205.57" width="117.66" height="10.88"/>
              <rect class="cls-13" x="212.58" y="227.33" width="117.66" height="10.88"/>
            </g>
            <g>
              <path class="cls-13" d="M402.22,214.98c0,16.03-13,29.03-29.03,29.03s-29.03-13-29.03-29.03,13-29.03,29.03-29.03,29.03,13,29.03,29.03Z"/>
              <polygon class="cls-19" points="349.74 197.85 364.71 232.7 379.68 232.7 396.65 185.93 385.38 185.93 373.19 223.47 360.71 197.21 349.74 197.85"/>
            </g>
            <g>
              <g>
                <g>
                  <rect class="cls-13" x="222.94" y="293.01" width="82.43" height="6.23"/>
                  <rect class="cls-13" x="222.94" y="305.45" width="82.43" height="6.22"/>
                  <rect class="cls-13" x="222.94" y="317.9" width="82.43" height="6.23"/>
                </g>
                <g>
                  <line class="cls-9" x1="305.37" y1="278.5" x2="216.86" y2="278.5"/>
                  <path class="cls-32" d="M210.15,278.5c0,3.19,2.58,5.77,5.77,5.77s5.77-2.58,5.77-5.77-2.58-5.77-5.77-5.77-5.77,2.58-5.77,5.77Z"/>
                </g>
              </g>
              <rect class="cls-13" x="339.35" y="269.24" width="66.55" height="58.38"/>
            </g>
            <g>
              <g>
                <g>
                  <rect class="cls-13" x="222.94" y="360.23" width="82.43" height="6.22"/>
                  <rect class="cls-13" x="222.94" y="372.67" width="82.43" height="6.22"/>
                  <rect class="cls-13" x="222.94" y="385.12" width="82.43" height="6.22"/>
                </g>
                <g>
                  <line class="cls-9" x1="305.37" y1="345.72" x2="216.86" y2="345.72"/>
                  <path class="cls-32" d="M210.15,345.72c0,3.18,2.58,5.77,5.77,5.77s5.77-2.58,5.77-5.77-2.58-5.77-5.77-5.77-5.77,2.58-5.77,5.77Z"/>
                </g>
              </g>
              <rect class="cls-13" x="339.35" y="336.46" width="66.55" height="58.38"/>
            </g>
            <g>
              <g>
                <g>
                  <rect class="cls-13" x="222.94" y="427.45" width="82.43" height="6.22"/>
                  <rect class="cls-13" x="222.94" y="439.9" width="82.43" height="6.22"/>
                  <rect class="cls-13" x="222.94" y="452.34" width="82.43" height="6.22"/>
                </g>
                <g>
                  <line class="cls-9" x1="305.37" y1="412.94" x2="216.86" y2="412.94"/>
                  <path class="cls-32" d="M210.15,412.94c0,3.19,2.58,5.77,5.77,5.77s5.77-2.58,5.77-5.77-2.58-5.77-5.77-5.77-5.77,2.58-5.77,5.77Z"/>
                </g>
              </g>
              <rect class="cls-13" x="339.35" y="403.68" width="66.55" height="58.38"/>
            </g>
            <g>
              <path class="cls-16" d="M388.12,303.05c-.17,2.94.04,5.68-.81,8.49-2.71.75-6.78-2-8.33,1.33-.58,1.25-.45,3.2-.38,4.65.02.5.16,1.08.29,1.67h-18.15c-.16-.87.22-1.99.36-3.02.42-3.19.36-6.65-.15-9.82-.44-2.72-2.65-5.2-4.12-7.57-3.47-5.55-4.75-12-.33-17.51,5.56-6.92,14.36-10.33,22.87-6.84,4.25,1.75,7.06,4.46,8.69,8.7.98,2.55,2.27,7.85.23,10.21l.19.37c1.24,1.83,2.46,4.3,3.21,6.51,1.19,3.52-1.21,1.75-3.54,2.82Z"/>
              <path class="cls-16" d="M388.04,305.06s-13.9-2.98-17.25-.75c-2.32,1.55-1.86,3.35-2.04,6.51-.19,3.16,0,8.36,0,8.36h2.42s.13-11.53,1.65-12.27c1.51-.74,15.23,1.12,15.23,1.12v-2.97Z"/>
            </g>
            <g>
              <path class="cls-16" d="M363.26,355.36c-5.81,1.24-9.78,5.42-11.91,10.88-1.6,4.08-4.24,12.24-2.6,16.74,1.75,4.78,8.72,2.72,12,1.39,4.13-1.68,7.21-4.48,8.64-8.93,1.24-3.86.61-8.85-.5-12.55-.58-1.94-1.28-3.91-2.56-5.58-1.61-2.1-2.66-1.91-5.03-1.39"/>
              <path class="cls-16" d="M382.37,355.36c5.81,1.24,9.78,5.42,11.91,10.88,1.6,4.08,4.24,12.24,2.6,16.74-1.75,4.78-8.72,2.72-12,1.39-4.13-1.68-7.21-4.48-8.64-8.93-1.24-3.86-.61-8.85.5-12.55.58-1.94,1.28-3.91,2.56-5.58,1.61-2.1,2.66-1.91,5.02-1.39"/>
              <path class="cls-16" d="M363.54,362.33l7.93-5.02v-9.76s1.6-1.39,2.41,0c.81,1.39,0,9.76,0,9.76l8.62,5.02-2.23,2.51-7.25-3.9-7.81,3.9-1.67-2.51Z"/>
            </g>
            <g>
              <g>
                <path class="cls-15" d="M383.19,418.66c0,.86-1.07,1.55-2.39,1.55h-10.44c-1.32,0-2.39-.7-2.39-1.55v-7.24c0-.86,1.07-1.56,2.39-1.56h10.44c1.32,0,2.39.7,2.39,1.56v7.24Z"/>
                <path class="cls-15" d="M371.22,415.04c0,1.39-1.13,2.52-2.52,2.52h-3.73c-1.39,0-2.52-1.13-2.52-2.52h0c0-1.39,1.13-2.52,2.52-2.52h3.73c1.39,0,2.52,1.13,2.52,2.52h0Z"/>
              </g>
              <g>
                <path class="cls-15" d="M383.19,434.18c0,.86-1.07,1.56-2.39,1.56h-10.44c-1.32,0-2.39-.7-2.39-1.56v-7.24c0-.86,1.07-1.55,2.39-1.55h10.44c1.32,0,2.39.7,2.39,1.55v7.24Z"/>
                <path class="cls-15" d="M371.22,430.56c0,1.39-1.13,2.52-2.52,2.52h-3.73c-1.39,0-2.52-1.13-2.52-2.52h0c0-1.39,1.13-2.52,2.52-2.52h3.73c1.39,0,2.52,1.13,2.52,2.52h0Z"/>
              </g>
              <g>
                <path class="cls-15" d="M383.19,449.71c0,.86-1.07,1.56-2.39,1.56h-10.44c-1.32,0-2.39-.7-2.39-1.56v-7.24c0-.86,1.07-1.56,2.39-1.56h10.44c1.32,0,2.39.69,2.39,1.56v7.24Z"/>
                <path class="cls-15" d="M371.22,446.09c0,1.39-1.13,2.52-2.52,2.52h-3.73c-1.39,0-2.52-1.13-2.52-2.52h0c0-1.39,1.13-2.52,2.52-2.52h3.73c1.39,0,2.52,1.13,2.52,2.52h0Z"/>
              </g>
            </g>
          </g>
          <g>
            <g>
              <g>
                <path class="cls-20" d="M211.84,544.4c2.63,5.12,7.14,9.25,12.46,11.43,2.05.85,4.25,1.42,6.12,2.62.51.33,1.01.72,1.3,1.26.57,1.05.17,2.42-.65,3.28-.83.86-1.99,1.3-3.14,1.6-2.63.7-5.4.85-8.08.44-5.3-.81-10.1-3.74-15.39-4.6-1.2-.2-2.46-.3-3.48-.95-.99-.64-1.61-1.71-2.05-2.8-1.5-3.8-1.1-8.04-.68-12.1,4.49-1.16,9.3-1.02,13.59-.17"/>
                <path class="cls-30" d="M224.94,567.49c-.56.04-1.1-.31-1.64-.19-.33.08-.62.27-.92.43-1.42.75-3.22.72-4.62-.08-1.07-.62-2.1-1.69-3.3-1.39-.32.08-.61.25-.92.36-1.07.36-2.24-.15-3.12-.85-.88-.7-1.6-1.6-2.54-2.22-.94-.62-2.23-.92-3.17-.3-.35.23-.63.57-.97.83-1.37,1.01-3.45.22-4.38-1.21-.15-.22-.31-.49-.57-.54-.23-.05-.46.08-.68.17-1.21.48-2.73-.61-2.67-1.92-.59.37-1.4-.07-1.68-.71-.28-.63-.17-1.36-.06-2.04.47-2.85,1.17-6.01,3.59-7.57.19-.12.39-.23.61-.24.62-.03.58,2.73,5.51,7.02,1.11.97,2.66,1.26,4.03,1.79,2.5.97,5.13,4.99,13.17,5.6,2.9.22,8.6.33,11.3-3.44.07-.1,2.42,5.84-6.97,6.5"/>
                <path class="cls-32" d="M222.36,555.22c-1.08,1.46-2.16,2.93-3.46,4.19-.37.36-.78.72-1.29.83-.51.11-1.12-.11-1.28-.61-.16-.51.21-1.02.55-1.43.93-1.1,1.86-2.19,2.78-3.29.37-.43.75-.87,1.27-1.11.52-.23,1.21-.18,1.56.26.35.45.07,1.27-.13,1.15"/>
                <path class="cls-32" d="M218.6,551.61c.52.26,1.12.68.99,1.25-.05.19-.17.35-.3.5-.54.65-1.14,1.27-1.74,1.88l-2.57,2.63c-.33.34-.71.7-1.18.68-.65-.02-1.05-.81-.93-1.44.12-.64.59-1.14,1.04-1.61,1.08-1.12,2.16-2.23,3.23-3.35.28-.29.59-.6.99-.65.4-.05.87.31.45.12"/>
                <path class="cls-32" d="M215.53,549.49c.6.45.82,1.34.49,2.02-.14.3-.37.55-.6.79-1.05,1.1-2.19,2.12-3.4,3.06-.44.34-.98.68-1.5.5-.52-.18-.76-.84-.64-1.38.12-.54.48-1,.84-1.42,1.08-1.3,2.2-2.64,3.73-3.36.27-.13.57-.24.88-.2.3.03.6.26.2-.02"/>
              </g>
              <g>
                <path class="cls-33" d="M209.62,322.64c21.75,70.59,2.29,148.17,7.45,221.95-10.95,3.84-12.71,3.41-24.24,2.14-7.29-74.76-14.59-149.53-20.92-224.38,12.53.73,25.07,1.45,37.71.29"/>
                <path class="cls-27" d="M193.41,538.25c-6.82-32.13,7.76-64.48,12.24-97.01,3.44-25.04.78-50.9-7.7-74.71-1.17-3.28-3.7-7.21-7.05-6.28-1.74.48-2.83,2.16-3.67,3.75-7.92,15.04-7.12,32.99-6.13,49.97,2.42,41.34,4.84,82.78,12.31,124.28"/>
              </g>
            </g>
            <g>
              <g>
                <path class="cls-20" d="M92.49,533.09c-.8,5.7.49,11.67,3.58,16.53,1.19,1.88,2.65,3.61,3.49,5.67.23.57.41,1.17.35,1.78-.14,1.18-1.26,2.07-2.43,2.3-1.17.22-2.37-.09-3.49-.51-2.55-.94-4.9-2.42-6.86-4.3-3.87-3.72-6.09-8.88-9.92-12.64-.87-.85-1.83-1.67-2.29-2.79-.44-1.08-.33-2.32-.06-3.47.96-3.97,3.75-7.2,6.43-10.28,4.33,1.64,8.18,4.53,11.19,7.7"/>
                <path class="cls-30" d="M89.88,559.51c-.48-.29-.72-.89-1.23-1.1-.31-.12-.66-.14-1-.18-1.59-.21-3.05-1.28-3.72-2.73-.52-1.12-.75-2.59-1.9-3.04-.31-.12-.64-.14-.95-.24-1.08-.32-1.75-1.41-2.06-2.49-.32-1.08-.39-2.23-.79-3.28-.41-1.05-1.29-2.03-2.42-2.07-.42-.01-.84.11-1.27.12-1.7.03-2.94-1.81-2.88-3.52,0-.27.03-.58-.15-.78-.16-.17-.42-.2-.65-.25-1.26-.31-1.88-2.07-1.08-3.1-.69-.04-1.1-.87-.96-1.55.14-.68.65-1.21,1.13-1.7,2.02-2.05,4.42-4.23,7.3-4.12.22.01.46.03.64.16.52.34-1.1,2.56.45,8.91.35,1.43,1.44,2.56,2.25,3.79,1.49,2.23,1.31,7.03,7.53,12.17,2.24,1.85,6.84,5.23,11.21,3.71.11-.04-1.39,6.17-9.44,1.29"/>
                <path class="cls-32" d="M94.84,547.99c-1.72.57-3.45,1.15-5.24,1.44-.51.08-1.05.14-1.53-.07-.48-.2-.85-.73-.69-1.23.16-.51.76-.72,1.28-.85,1.39-.36,2.78-.72,4.17-1.08.55-.14,1.12-.29,1.68-.18.56.11,1.1.54,1.12,1.11.03.57-.67,1.09-.78.86"/>
                <path class="cls-32" d="M93.86,542.89c.27.51.51,1.2.09,1.59-.15.13-.34.19-.53.24-.82.22-1.67.38-2.5.53-1.2.22-2.41.45-3.62.67-.46.08-.98.16-1.36-.13-.52-.39-.39-1.26.07-1.71.47-.45,1.15-.59,1.78-.71,1.53-.29,3.05-.58,4.58-.88.4-.07.83-.14,1.19.04.36.19.53.75.3.36"/>
                <path class="cls-32" d="M92.58,539.37c.23.72-.1,1.58-.76,1.95-.29.16-.62.23-.95.29-1.5.29-3.02.48-4.55.55-.55.02-1.19,0-1.51-.46-.33-.45-.14-1.12.27-1.5.41-.38.97-.54,1.5-.68,1.63-.44,3.33-.89,4.99-.6.3.05.61.14.83.34.22.2.34.56.18.1"/>
              </g>
              <g>
                <path class="cls-33" d="M200.01,321.81c-1.26,38.07-24.17,87.58-44.1,122.17-13.73,23.85-33.47,48.21-59.16,92.83-9.45-5.35-14.02-5.91-23.47-11.26,5.53-16.76,11.1-26.06,17-37.91,20.91-42.03,39.33-85.2,55.14-129.24,5.44-15.14,10.68-30.61,20.13-43.82,10.58,4.57,22,7.36,34.45,7.22"/>
                <path class="cls-10" d="M85.33,530.6c14.87-53.76,61.53-94.26,76.67-147.95"/>
              </g>
            </g>
            <path class="cls-32" d="M235.57,395.39c-.41,6.86-20.29,9.88-20.65,8.45-2.04-8.27-1.09-64-5.39-64-3.97,0-13.87,68.24-19.93,67.81-16.23-1.16-59.94-8.98-69.98-14.63-.8-.45,33.96-121.97,38.12-156.19.91-7.5-5.57-46.15,17.25-47.22,6.67-.31,13.98-2.78,20.47-1.05,9.14,2.44,32.64-2.85,32.64,39.81,0,9.76,4.86,64.26,4.72,69.96l2.74,97.06Z"/>
            <g>
              <path class="cls-31" d="M253.2,277.34c3.86,1.47,8.12,1.68,11.82.57,1.82-.54,3.66-1.4,5.62-.98.26.06.53.14.72.33.23.24.27.58.23.87-.36,2.29-4.78,2.16-4.82,4.5,4.79-.93,11.9-1.87,14.89.47,1.86,1.45-5.54,2.42-11.65,3.39,3.77,1.04,7.94-1,11.32,1.05.26.16.53.36.64.63.86,1.98-7.35,1.79-11.88,2.02,1.88.36,3.27.95,5.15,1.09,1.89.14,5,.66,4.95,2.57-.04,1.7-8.15,1.23-12.45.54,2.78.98,3.72,1.54,6.68,2.74,1.71.69.55,2.62-.88,2.55-3.06-.17-17.27-4.03-29.25-11.79,1.66-3.41,5.95-8.68,8.91-10.55"/>
              <path class="cls-32" d="M221.87,211.83c1.02,7.99.69,18.86.92,26.97.52,18.56,19.85,29.44,37.74,34.13-14.82,21.85-16.44,25-17.22,25.39-.57.28-21.26-11.83-32.6-22.1-10.74-9.72-11.09-17.58-12.35-24.98-4.05-23.9,2.26-37.96,5.8-51.16.51-1.89,1.18-3.93,2.72-5,1.54-1.06,13.98,8.75,14.99,16.74Z"/>
            </g>
            <path class="cls-27" d="M209.87,227.15c-.68,1.17-8.32,7.13-8.33,7.53,0,.34-21.83-43.5-21.27-43.77,1.94-.94,9.93-3.69,14.35-3.05,14.08,2.03,17.58,13.01,17.31,21.84-.3,10.11-5.61,18.17-6.55,19.8"/>
            <path class="cls-28" d="M207.34,194.07c-.38-.62-3.24-3.02-2.09-3.16.89-.11,4.23,2.96,5.74,4.02,2.01,1.41,6.38,6.84,6.37,9.38,0,2.34-4.25,1.89-5.65,1.46,1.31,6.46,7.55,7.15,6.92,8.14-.31.48-2.02,5.11-8.75,13.23-2.34,2.82-4.48,4.42-8.34,7.93,1.27-1.22,6.64-10.19,8.64-17.4,2.42-8.74.25-18.53-2.84-23.61Z"/>
            <path class="cls-10" d="M207.34,242.75c6.11,31.35,7.23,63.62,3.3,95.27"/>
            <path class="cls-1" d="M191.88,313.01c-.94,7.86-1.97,15.98-6.06,22.78-4.08,6.8-12.11,11.96-19.95,10.27-8.04-1.73-13.21-10.09-13.85-18.19-.64-8.09,2.22-16,5.03-23.62,11.12,4.57,22.86,7.66,34.83,8.76"/>
            <g>
              <g>
                <rect class="cls-18" x="273.97" y="217.65" width="19.15" height="343.41" transform="translate(-70.96 63.28) rotate(-11.33)"/>
                <rect class="cls-17" x="274.07" y="218.59" width="9.58" height="343.41" transform="translate(-71.18 62.32) rotate(-11.32)"/>
              </g>
              <rect class="cls-29" x="239.85" y="172.64" width="2.31" height="8.64" transform="translate(-30.06 50.78) rotate(-11.33)"/>
              <path class="cls-30" d="M239.4,217.68l-1.98-9.86s-.2-28.31,3.93-29.14c3.76-.75,14.85,25.38,14.85,25.38l2.03,10.16-18.84,3.47Z"/>
              <rect class="cls-32" x="239" y="214.33" width="21.44" height="12.27" transform="translate(-38.43 53.33) rotate(-11.33)"/>
            </g>
            <path class="cls-28" d="M201.53,235.08s-14.59-37.2-14.13-39.18c.46-1.98.88-7.95.88-7.95,0,0-7.26.66-8.61,2.95-1.36,2.29,3.06,10.14,3.06,10.14,0,0,1.58,4.36,0,6.04-1.58,1.68,18.8,28,18.8,28Z"/>
            <path class="cls-33" d="M232.55,292.19l-2.45-35.83,19.42,11.87s-3.12,9.6-8.51,15.4c-5.39,5.8-8.46,8.56-8.46,8.56Z"/>
            <g>
              <path class="cls-31" d="M227.48,260.33c4.35-2.69,8.5-7.07,10.56-11.72,1.32-2.97,5.89-12.23,9.73-11.68,2.84.41-2.34,6.96-1.18,6.38,1.47-.73,3.03-1.25,4.67-1.48,4.57-.63,11.45.46,12.15,4.96.36,2.26-5.46-1.32-7.55.34,3.54,1.5,7.94,1.22,8.2,4.97.24,3.55-5.07-1.76-7.9-.64,4.2,2.91,9.54,4.63,7.95,6.91-1.03,1.49-3.17-.33-4.69-1.31-1.52-.98-3.85-1.91-5.61-1.44,2.9,1.25,6.32,2.59,8.08,5.19.21.31.41.66.35,1.03-.1.56-.8.85-1.36.73-.56-.12-1.01-.51-1.47-.85-6.11-4.61-10.29-1.84-12.82.96-4.33,4.8-8.11,7.5-13.4,6.95-.72-.07-1.46-.22-2.03-.64-.74-.55-1.08-1.46-1.38-2.33-.82-2.34-1.64-4.68-2.46-7.03.25.29.49.58.18.68"/>
              <g>
                <path class="cls-1" d="M149.7,207.03c7.53-15,24.14-20.31,31.3-12.62,11.19,12.03,7.88,45.53,18.59,51.95,8.21,4.91,19.41,6.69,31.65,3.98,4.45,11.72,9.06,22.43,7.9,23.66-9.54,10.11-28.64,15.62-46.36,12.56-35.53-6.14-57.31-51.16-43.08-79.52"/>
                <path class="cls-10" d="M195.21,245.86c.36,4.88-1.96,9.52-4.22,13.88"/>
                <path class="cls-10" d="M193.29,244.54c-4.82.95-9.06,4.42-10.9,8.92"/>
                <path class="cls-10" d="M191.17,242.14c-1.78-1.08-4.02-1.18-6.06-.73-2.04.45-3.92,1.41-5.77,2.36"/>
              </g>
            </g>
            <path class="cls-10" d="M156.15,306.16c-2.27,7.4-5.46,18.44-4.45,25.92,1.36,10.13,12.01,22.01,27.59,10.74,9.48-6.85,12.69-24.62,12.59-26.63"/>
            <g>
              <g>
                <path class="cls-31" d="M206.93,198.83c-6.98,3.3-20.57-.11-19.64-4.65,2.19-10.64-.36-18.54-2.38-26.92,6.7-.21,14.79,3.33,21.5,3.66-1,6.62-1.73,12.42-.33,20.43.45,2.57.85,7.48.85,7.48Z"/>
                <path class="cls-29" d="M205.66,189.05c-3.25-.03-8.24-2.58-11.05-6.2-1.12-1.44-1.92-3.06-2.52-4.75.96.89,2.27,1.4,3.56,1.84,2.19.75,4.45,1.38,6.73,1.89.93.2,1.88.39,2.84.32-.28.47.22,5.62.44,6.9"/>
              </g>
              <path class="cls-31" d="M197.72,149.44c8.72,1.17,11.88,6.05,14.54,15.35,1.07,3.74,2.34,8.16.48,12.93-4.06,10.4-17.02,4-19.13,2.51-4.69-3.3-8.65-6.98-10.31-12.15-1.67-5.18-.75-11.17,3.16-15.16,3.91-3.99,7.03-4.04,11.27-3.48"/>
              <g>
                <g>
                  <path class="cls-29" d="M206.4,161.37c-.19-.6-.82-.93-1.4-.74-.58.19-.89.83-.69,1.42.19.6.82.93,1.4.74.58-.19.89-.83.69-1.42"/>
                  <path class="cls-29" d="M197.17,166.54c-.2-.6-.82-.93-1.4-.74-.58.19-.89.83-.7,1.42.2.6.82.93,1.4.74.58-.19.89-.83.7-1.43"/>
                </g>
                <g>
                  <path class="cls-8" d="M200.97,162.81c1.15,2.22,3.05,3.71,4.87,5.01.16.12.34.25.43.46.07.17.06.35.03.52-.14.85-.7,1.47-1.4,1.55"/>
                  <path class="cls-7" d="M206.34,159.75c-.19.62-.61,1.16-1.16,1.48-.55.33-1.22.44-1.84.3"/>
                  <path class="cls-7" d="M197.11,164.91c-.19.62-.61,1.16-1.16,1.49-.55.33-1.22.43-1.85.3"/>
                  <path class="cls-5" d="M208.98,173.12c-.68.72-1.44,1.39-2.36,1.74-.92.35-2.03.32-2.83-.27"/>
                  <path class="cls-5" d="M195.75,162.31c-1.7-.06-3.34,1.14-3.84,2.79"/>
                  <path class="cls-5" d="M205.2,157.37c-1.49-.14-3.01.75-3.65,2.12"/>
                </g>
              </g>
              <path class="cls-29" d="M171.16,162c1.03,1.91,2.37,2.92,3.98,4.03,2.57,1.77,1.51,2.53,2.89,5.02,1.09,1.97,9.46,6.95,10.09,2.62.32-2.17-3.03-4.02-3.82-6.01-.74-1.87-1-4.67.17-6.47,1.02-1.57,2.13-1.05,3.38-2.02,1.15-.89,1.23-2.16,1.96-3.31,1.88-2.96,4.12-2.59,7.41-2.99,2.44-.3,4.84-1.18,7.23.29,2.08,1.28,2.55,1.64,4.57,4.2,2.19-2.58,4.89-6.97,1.98-14.52-1.61-4.17-6.38-9.98-11.3-7.6-2.17,1.05-1.91,4.35-4.96,3.68-2.26-.5-2.56-3.23-5.62-2.37-2.86.8-2.31,3.19-3.46,5.37-1.59,3.01-2.7,1.56-5.33,1.76-2.69.2-5.11,2.8-5.57,5.36,0,0-7.62,5.48-3.59,12.96Z"/>
              <path class="cls-31" d="M186.92,169c-.98-.96-2.44-1.42-3.75-1.1-1.32.32-2.43,1.43-2.69,2.79-.2.99.03,2.02.41,2.96,1.35,3.32,4.7,5.68,8.18,5.78.41.01.83,0,1.21-.16.73-.29,1.22-1.02,1.38-1.81.16-.78.03-1.6-.21-2.37-.82-2.58-2.89-4.49-4.53-6.09"/>
              <path class="cls-29" d="M185.71,156.99c-2.68,4.07,2.32,6.67,3.98,9.69,1.78,3.24,1.21,6.27-2.58,3.62-2.08-1.46-5.98-4.01-6.7-6.62-.94-3.41,1.66-6.25,4.7-6.66.07.35.07.71.05,1.08"/>
            </g>
          </g>
        </g>
      </g>
    </g>
  </g>
</svg>