<?xml version="1.0" encoding="UTF-8"?>
<svg id="Layer_11" data-name="Layer 11" xmlns="http://www.w3.org/2000/svg" viewBox="0 0 200 200">
  <defs>
    <style>
      .cls-1 {
        fill: #fe7373;
      }

      .cls-2 {
        fill: #93999a;
      }

      .cls-3 {
        fill: #e8f0f1;
      }

      .cls-4 {
        fill: #cfd7d9;
      }

      .cls-5 {
        fill: #00b3d7;
      }

      .cls-6 {
        fill: #929899;
      }

      .cls-7 {
        fill: #48c9e3;
      }

      .cls-8 {
        fill: #ee5350;
      }

      .cls-9 {
        fill: #e7f0f1;
      }

      .cls-10 {
        fill: #ced7d9;
      }

      .cls-11 {
        fill: #ace7f3;
      }

      .cls-12 {
        fill: #ace6f2;
      }

      .cls-13 {
        fill: #b7bdbf;
      }

      .cls-14 {
        fill: #0095c6;
      }

      .cls-15 {
        fill: #b7bdbe;
      }
    </style>
  </defs>
  <path class="cls-7" d="M83.58,127.78l.97.62c.87,4.91,3.15,7.63,8.11,8.59h104.11s.52.82.52.82c0,3.34,0,6.7,0,10.04-6.68,0-13.39-.02-20.07,0-18.92,1.3-37.94,1.25-56.86,0-4.87,0-9.76,0-14.63,0-4.6,1.04-9.19,1.03-13.8,0-.47.22-.94.41-1.44.56s-.97.27-1.44.27c-8.77.06-18.05-.18-26.39-.41l1.67,1.28c1.14,1.77,2.67,3.01,4.6,3.73,1.31-.26,1.99,1.89.84,2.51.1.98.18,1.8-.9,1.97.45.6.89,1.2,1.32,1.8,1.2.65,1.18,1.84,0,2.51,1.19,1.25,1.2,2.93,0,4.18,1.25,3.8,1.22,7.9,0,11.71,1.28.17,1.22,3.07,0,3.34-4.25,1.25-9.15,1.32-13.38,0l-.85-.31c-.87-2.25-3.25-3.08-7.14-2.48-4.26.47-8.29.29-12.08-.55-.59-.16-.88-.7-.87-1.6-2.43-.58-5.35-1.89-6.6-4.14-2.52-.02-4.47-2.87-2.15-4.29,9-.88,18.06-1.19,27.18-.91,2.57-1.16,2.19-4.57-.65-4.96-10.51.12-21.01.01-31.49-.33l-1.31-.49c-.73-.45-1.42-1.01-2.09-1.67-1.12-.1-1.07-.51,0-.84.76-2.13.14-4.46-.45-6.6-1.88-.32-1.95-1.48-.21-3.5l.67-.78c9.35-1.5,19.47-1.32,28.85,0,2.95-1.21,6.24-1.19,9.2,0,.4-.88,1.64-1.16,3.74-.82-2.02-5.87-3.28-11.9-3.76-18.11l.44-1.14.38-.84h25.46l.5.84Z"/>
  <path class="cls-7" d="M144.2,54.2l1.78.62c7.15,7.28,14.3,14.56,21.45,21.84l-.24.95c0,.39-.17.68-.52.84-8.68-.69-6.03,6.22.96,5.24,2.31-.37,4.4-.16,6.25.61.08-.37.22-.36.42,0,1.56.37,5.82,4.36,6.47,5.68l-.2,1.01c-.7.81-1.96,1.09-3.79.84-6.18,4.26,1.96,5.91,5.81,5.04,1.48-.43,2.76-.45,3.83-.04.12-.16.25-.3.41-.38.59-.31,9.23,8.21,9.73,8.97l.73,1.86c-.05.58-.61.39-1.02.44-7.16.89-18.11-.04-25.73-.02-6.68,1.05-13.38,1.05-20.07,0-8.91-.01-17.84,0-26.76,0v-53.51c6.82-.01,13.66.02,20.49,0Z"/>
  <path class="cls-3" d="M109.92,127.78c-.04.33-.14.81-.37.84-2.32.22-10.36.38-12.4,0l-.61-.84c-1.2-.53-1.3-2.9,0-3.34l-.67-2.24c.56-12.83-.59-27.43-6.36-38.92-3.33-6.62-8.68-14.48-16.97-10.11l-1.08-.15-.3,1.24c-10.49,9.61-12.36,25.74-13.46,39.24l-.87.91c1.17,4.11,1.32,9.2.42,13.38.67,6.79,2.28,13.46,4.61,19.85,0,.38-4.33.21-5.02.22-.32-.26-.63-.53-.9-.84-2.35-2.75-4.78-16.08-5.44-20.41-2.71-17.8-1.13-37.2,6.43-53.69,1.75-3.82,3.49-7.42,6.61-10.35.09-1.73,3.14-3.27,4.75-3.89s3.56-.98,5.29-.71c18.13-3.09,29.16,18.03,33.24,32.61,3.36,12.03,4.16,24.78,3.14,37.21Z"/>
  <path class="cls-6" d="M23.38,88.48c.52.61.28.84-.42.42l-.17,1.2c-3.07,2.83-2.45,7.59,1.29,9.48l.55,1.02c.45.41.9.87,1.09,1.47.84,2.57,2.14,7.87,2.57,10.53.1.61-.1,1.23-.32,1.8l-.48.82-7.69-.19c-9.92-.18-5.67,7.22,2.08,5.49l7.67-.22.51.8c.1-.37.24-.36.42,0l1.28.91c2.89,6.7,7.05,13,13,17.36l1.19,1.8c1.61,1.08,2.82,5.06,1.67,6.69-9.6.03-19.25-.18-28.85,0-.66,1.14-1.43,1.13-2.09,0l-.6.85c-2.53-.2-4.95.09-7.26.87l-.92-.46c-5.14-17.25-6.16-35.53-2.38-53.17,2.65-12.36,9.09-28.34,20.36-35.04l.32,1.29c-1.25,7.91-1.93,15.86-2.05,23.87l-.78,2.43Z"/>
  <path class="cls-15" d="M73.55,57.96c-4.09.7-6.72,2.16-10.03,4.6-19.75,19.78-21.67,50.97-17.03,77.13l-.53,1.47c-7.26-4.51-12.32-12.24-15.47-20.07l.19-.9c3.71-1.6,1.78-5.74-1.95-4.95l-.75-.84c-1.5-4.72-2.56-8.88-3.34-13.8l.77-.66c10.71,1.4,8.71-14.31-1.17-10.94l-.86-.52c-.35-9.29.71-18.51,2.51-27.59,3.05-1.81,5.81-3.04,9.41-3.34,10.87-.91,24.79-.13,35.95-.01.71,0,1.86-.27,2.29.43Z"/>
  <path class="cls-5" d="M16.69,147.84c1.22.99.92,1.66.23,2.7-.1.15-.11.33-.01.44,1.17,1.4,2.55,5.91,1.87,7.73.07.22-.06.59,0,.84,1.17.13,1.66,1.21.42,1.67v.57c-3.55,2.95-1.19,6.08,3.03,5.3l1.15.81c1.7.39,2.8,1.79,3.49,3.32,2.53,1.77,5.07,3.55,7.62,5.34l.59,1.37c-.89.45-1.82.73-2.81.83l-16.7.16c-2.14,1.25-1.86,4.3.61,4.84l37.47.03c1.27-.07,2.18-.88,2.31-2.16l.85-.35c4.45.05,8.93-.04,13.38,0,.33.04.82.14.84.37.11,1.49.25,11.66,0,12.4l-.84.61c-22.29.03-44.6-.02-66.89,0v-39.09c0-1.35,3.38-5.76,4.6-6.48,2.55-1.51,5.96-1.17,8.78-1.25Z"/>
  <path class="cls-11" d="M144.2,54.2c17.69-.04,35.4.03,53.1,0v53.1s-10.87-10.45-10.87-10.45c-.37-.12-.36-.26,0-.42l-.49-.82c1.61-2.39-.56-4.12-3.15-3.78l-1.79-.83c-.08.37-.22.36-.42,0l-6.27-6.69.42-.83,9.21.2c7.87,1.01,7.99-6.25.04-5.48-4.95-.09-9.9-.02-14.84.22l-1.51-.79c-.08.37-.22.36-.42,0l-22.99-23.41Z"/>
  <path class="cls-11" d="M96.54,127.78h13.38c13.51,0,27.04-.01,40.55,0,2.22-.82,4.47-.82,6.69,0,4.46-1.03,8.92-1.04,13.38,0,8.91.01,17.85,0,26.76,0,0,3.34,0,6.7,0,10.04h-104.73c-6.07-1.18-7.94-4.4-8.99-10.03.04-.33.14-.82.37-.84,1.5-.1,11.86-.15,12.31.28.14.13.22.34.28.56Z"/>
  <path class="cls-15" d="M177.23,147.84c-1.11,2.23-2.23,4.46-3.34,6.69-.45.63-.96.97-1.52,1.01l-11.76-.42c-4.11.11-8.53.63-9.22,5.51l-.91.58c-.69,1.37-5.88,1.31-6.69,0-.04.33-.14.81-.37.84-2.51.28-9.98.35-12.4,0l-.61-.84-10.03-13.38c18.94-.01,37.91.04,56.86,0Z"/>
  <path class="cls-15" d="M143.78,181.29c.69-1.37,5.88-1.31,6.69,0l.89.43c.85,5.23,4.36,5.63,9.08,5.68,4.57-.23,9.13-.35,13.7-.38l1.42.96c1.68,2.21,3.53,4.33,5.02,6.69h-56.86l6.69-13.38c.04-.33.14-.81.37-.84,2.47-.25,10.09-.37,12.4,0l.61.84Z"/>
  <path class="cls-3" d="M105.74,147.84c-.68,2.47-1.54,4.91-2.57,7.26-1.46,3.32-4.06,8.28-6.21,11.14-.18,1.21-.6,1.63-1.25,1.25-4.3,4.38-11.19,5.35-16.99,3.95-2.97-.72-7.46-2.29-8.51-5.2-.02-1.39.03-2.79,0-4.18l1.18-.21c9.73,6.18,17-5.6,19.56-13.63l.99-.37c4.59,0,9.2,0,13.8,0Z"/>
  <path class="cls-14" d="M96.96,169.58c-2.44,5.76-9.14,9.87-14.97,11.88-5.12.33-2.18,2.58.36,4.38,4.38,1.44,9.04,1.87,13.97,1.28l.64.85c-.02,2.22.01,4.47,0,6.69-8.91,0-17.85-.01-26.76,0v-16.72l1.42-.71c9.84,1.31,17.08-3.46,24.08-9.74.38-.45,1-.92,1.25-1.25v3.34Z"/>
  <path class="cls-3" d="M170.54,161.22v20.07c-4.37,1.2-9.02,1.23-13.38,0l-.84-.39v-19.18l.84-.5c.04-.33.14-.81.37-.84,2.52-.3,9.91-.33,12.4,0l.61.84Z"/>
  <path class="cls-4" d="M143.78,161.22c.33.04.82.15.84.39.26,5.05.16,10.98,0,16.07.31,1.81.03,3.02-.84,3.61h-13.38v-20.07h13.38Z"/>
  <path class="cls-15" d="M170.54,107.71v6.69l-.91.73c-7.15-.82-12.55,4.58-11.73,11.73l-.73.91c-2.22,0-4.46,0-6.69,0v-20.07c6.68,0,13.39.02,20.07,0Z"/>
  <path class="cls-5" d="M96.96,187.98c-7.11-.19-16.16,1.89-19.24-6.47,8.26-1.01,14.04-5.84,19.24-11.92,0,6.12.05,12.27,0,18.39Z"/>
  <path class="cls-4" d="M170.54,114.4v13.38c-4.45,0-8.93,0-13.38,0-1.25-8.61,4.79-14.62,13.38-13.38Z"/>
  <path class="cls-4" d="M157.16,181.29c4.45.03,8.92-.02,13.38,0,1.68,2.22,3.33,4.47,5.02,6.69-6-.7-14.38,1.02-20.09-.19-3.1-.65-4.74-3.56-4.99-6.5,2.26-1.04,4.44-1.05,6.69,0Z"/>
  <path class="cls-4" d="M173.89,154.53c-1.11,2.22-2.23,4.46-3.34,6.69h-13.38c-.69,1.37-5.88,1.31-6.69,0,.88-10.84,16.12-5.37,23.41-6.69Z"/>
  <path class="cls-4" d="M56.83,147.84c-3.06.03-6.14,0-9.2,0-.32-2.29-1.15-4.45-1.67-6.69-5.3-22.7-2.93-63.49,17.56-78.6-16.31,24.88-16.81,57.9-6.69,85.29Z"/>
  <path class="cls-2" d="M91.94,147.84c-2.79,9.18-10.9,21.93-21.74,14.21-.02-.83.04-1.68,0-2.51-1.15-.8-1.29-2.05-.42-3.76-.15-.64-.56-1.97-.84-2.51-1.11-.44-2.08-1.25-2.89-2.44l-3.38-2.58c-.02-.06-1.12-.36.2-.42,9.46-.44,19.53.01,29.06,0Z"/>
  <path class="cls-4" d="M20.87,161.22c10.76-.58,22.01.44,32.83,0,3.86.35,4.31,5.43.74,6.61-9.09.08-18.21.21-27.29.09-1.04,1.34-2.53,1.01-3.76,0-2.1-.56-4.81-4.74-3.76-6.69.41-1.04.84-1.03,1.25,0Z"/>
  <path class="cls-5" d="M63.52,114.4l.91.6c.57,4.2,3.51,5.11,7.24,5.36l8.52-.18,1.31.91c2.02-.13,3.55,5.56,2.09,6.69h-26.34c-.44-4.44-.57-8.91-.42-13.38,2.22-.82,4.47-.82,6.69,0Z"/>
  <path class="cls-4" d="M95.71,167.49c-7.04,8.47-14.27,11.63-25.5,10.45,0-3.89.05-7.81,0-11.71,7.64,6.23,17.22,6.47,25.5,1.25Z"/>
  <path class="cls-4" d="M36.76,177.94c4.95.03,12.8-.68,17.33.02,1.71.27,2.74,1.6,2.74,3.32l-1.09.83c-3.65.33-16.89-.4-19.2-2.89-.34-.36-.55-.78-.61-1.28.24-.8.6-.8.84,0Z"/>
  <path class="cls-7" d="M27.14,167.91c-.41,5.02.37,2.49,2.52,3.55.56.28.74,1.27,1.27,1.65.16.11,3.06,1.8,3.23,1.89,1.51.71,3.05-.16,2.59,2.94-.28,0-.56,0-.84,0-.24.8-.6.8-.84,0-4.58-2.9-8.45-5.64-11.71-10.03,1.25.04,2.51-.02,3.76,0Z"/>
  <path class="cls-7" d="M18.78,147.84c.82,2.43-1.55,2.41-1.68,2.72-.43,1.05,1.39.31,1.91,1.02.23.31,2.19,7.55-.23,7.13-1.14-3.54-2.45-7-2.09-10.87.7-.02,1.39.01,2.09,0Z"/>
  <path class="cls-7" d="M68.95,153.28c-1.02.05-1.8.15-2.74-.39-.85-.49-3.27-3.61-3.53-4.62,2.77.38,5.04,2.64,6.27,5.02Z"/>
  <path class="cls-7" d="M70.21,159.55c-.96-.18-1.83-.32-2.1-1.48-.43-1.85,1.85-.59,1.68-2.29.37,1.58.35,2.15.42,3.76Z"/>
  <path class="cls-7" d="M18.78,159.55c1.66-.25,1.86.1,2.09,1.67-.41.02-.86-.05-1.25,0-.08.37-.22.36-.42,0,.12-.65-.28-1.16-.42-1.67Z"/>
  <rect class="cls-8" x="137.1" y="67.57" width="13.38" height="13.38"/>
  <path class="cls-3" d="M174.3,84.3c-.14,0-.28,0-.42,0-1.25.06-6.19-4.88-6.47-5.68-.11-.32.05-.69.2-1.01,5.68-.15,14.48-.64,19.87,0,3.97.46,4.09,5.56,1.06,6.51-2.37.74-11.13.21-14.24.19Z"/>
  <path class="cls-4" d="M136.14,91.08c1.66-.37,13.63-.37,15.29,0,3.29.74,3.26,6.01-.35,6.58-2.09.33-13.04.36-14.94-.06-3.2-.71-3.21-5.79,0-6.51Z"/>
  <path class="cls-4" d="M167.2,77.61c.14,0,.28,0,.42,0l6.27,6.69c-3.78-.04-15.26,1.86-13.19-4.62.87-2.73,4.32-2,6.5-2.07Z"/>
  <path class="cls-4" d="M180.57,90.99c.14,0,.28,0,.42,0,1.3-.09,5.63,3.96,5.64,4.85,0,.19-.09.39-.2.59-.05.12.03.29,0,.42-2.09,1.21-9.95,1.4-11.51,0-2.07-1.85-1.03-5.41,1.7-5.84,1.18-.18,2.7-.01,3.95-.02Z"/>
  <path class="cls-10" d="M162.9,91.07c4.9-1.07,5.75,5.69,1.9,6.52-4.9,1.07-5.75-5.69-1.9-6.52Z"/>
  <path class="cls-6" d="M96.54,124.43c-.1,1.1.07,2.24,0,3.34h-12.96c-.66-3.55-.17-3.38-2.09-6.69l-1.41-.67c-3.66-4.55-8.9-6.28-15.73-5.18l-.84-.83c-2.22,0-4.46,0-6.69,0,.4-12.06,3.94-34.23,14.63-41.39,2.08-.89,4.34,2.38,5.42,4.03,7.96,12.13,10.82,26.07,10.88,40.18.64,4.91,2.68,6.79,7.88,6.45l.9.76Z"/>
  <path class="cls-15" d="M96.54,124.43c-11.92,1.24-9.22-8.55-10.04-16.51-1.07-10.32-4.96-24.49-11.91-32.41-.79-.91-1.91-2.24-3.14-2.5,11.64-7.8,19.43,9.37,22.04,18.3,3.09,10.57,4.01,22.25,3.05,33.12Z"/>
  <path class="cls-7" d="M15.74,127.87c1.66-.37,13.63-.37,15.29,0,3.29.74,3.26,6.01-.35,6.58-2.09.33-13.04.36-14.94-.06-3.2-.71-3.21-5.79,0-6.51Z"/>
  <path class="cls-1" d="M24.64,100.6l-1-1.06c-.42-1.86-1.22-7.53-1.2-9.32,0-.49.26-.93.53-1.33.15-.11.27-.34.42-.42,6.09-3.18,12.37,3.08,9.28,9.07-1.57,3.05-4.87,3.98-8.03,3.05Z"/>
  <path class="cls-7" d="M27.98,114.4c1.79,1.32,2.9,4.63,2.09,6.69-3.04.28-11.12.42-13.98-.02-3.62-.56-3.64-5.84-.35-6.58,2.44-.55,9.38-.2,12.24-.09Z"/>
  <path class="cls-8" d="M24.64,100.6c-5.33-1.58-6.3-8.45-1.67-11.71,1.06,3.78,1.05,7.81,1.67,11.71Z"/>
  <path class="cls-12" d="M30.49,121.09c-.13.02-.28-.01-.42,0-.57-2.26-1.39-4.47-2.09-6.69,1.66.06,3.35-.38,4.61,1.04,1.87,2.11.69,5.18-2.1,5.65Z"/>
  <path class="cls-11" d="M29.12,71.01c1.48-.33,10.46-.33,11.95,0,3.29.74,3.26,6.01-.35,6.58-1.77.28-9.96.3-11.59-.06-3.2-.71-3.21-5.79,0-6.51Z"/>
  <path class="cls-15" d="M35.09,177.94c.28,0,.56,0,.84,0,6.55,3.75,13.67,3.26,20.9,3.34,0,1.89-1.22,3.24-3.13,3.35l-37.61-.03c-3.36-.52-3.78-5.18-.67-6.48,6.54-.35,13.12-.17,19.67-.19Z"/>
  <path class="cls-13" d="M19.62,161.22c.71,2.37,2.29,4.71,3.76,6.69-2.05-.07-5.02.61-6.22-1.51-1.14-2.01-.24-4.6,2.04-5.18.12-.03.28.02.42,0Z"/>
  <path class="cls-3" d="M169.58,64.32c1.66-.37,13.63-.37,15.29,0,3.29.74,3.26,6.01-.35,6.58-2.09.33-13.04.36-14.94-.06-3.2-.71-3.21-5.79,0-6.51Z"/>
  <path class="cls-9" d="M186.43,96.42l-5.43-5.43c2.54.06,6.13-.55,6.3,3.14.07,1.57-.6,1.61-.86,2.29Z"/>
  <path class="cls-7" d="M150.47,161.22l.77.91c-.36,6.06-.37,12.19,0,18.25l-.77.91h-6.69v-20.07h6.69Z"/>
  <path class="cls-11" d="M157.16,161.22v20.07c-2.22-.01-4.46,0-6.69,0-.46-5.3-.43-14.75,0-20.07h6.69Z"/>
  <path class="cls-7" d="M81.49,121.09c-6.57-.64-17.15,2.9-17.98-6.69,7.83,0,13.6-.87,17.98,6.69Z"/>
</svg>