<?xml version="1.0" encoding="UTF-8"?>
<svg id="Layer_11" data-name="Layer 11" xmlns="http://www.w3.org/2000/svg" viewBox="0 0 200 200">
  <defs>
    <style>
      .cls-1 {
        fill: #c79993;
      }

      .cls-2 {
        fill: #e0b2ab;
      }

      .cls-3 {
        fill: #3177a5;
      }

      .cls-4 {
        fill: #43976d;
      }

      .cls-5 {
        fill: #f8d555;
      }

      .cls-6 {
        fill: #8a5034;
      }

      .cls-7 {
        fill: #77787c;
      }

      .cls-8 {
        fill: #999a9e;
      }

      .cls-9 {
        fill: #6ec4e6;
      }

      .cls-10 {
        fill: #fde97f;
      }

      .cls-11 {
        fill: #e0b1aa;
      }

      .cls-12 {
        fill: #a87e6a;
      }

      .cls-13 {
        fill: #5a5b5d;
      }

      .cls-14 {
        fill: #fde1d5;
      }

      .cls-15 {
        fill: #50b9e2;
      }

      .cls-16 {
        fill: #43986d;
      }

      .cls-17 {
        fill: #fefefe;
      }

      .cls-18 {
        fill: #be9d36;
      }
    </style>
  </defs>
  <path class="cls-10" d="M133.07,100.09c13.62,0,27.25.02,40.88-.03l1.36.43.76,1.77c-.21,4.43-.26,8.79-.16,13.09l12.92-.33,1.77.76.43,1.36c-.49,25.41.56,50.88-.03,76.28,0,.32-.08.8-.28.8-21.23.27-43.27.08-64.42-.27-.23-.23-.38-.5-.47-.81v-92.56s.81-.5.81-.5c.66-1.32,5.66-1.26,6.44,0Z"/>
  <path class="cls-9" d="M133.07,96.87c-3.2,1.09-6.46,1.12-9.66,0-.31-.09-.76-.21-.8-.47-.18-1.14-.19-7.51,0-8.6l.8-.59c-.66,1.32-5.66,1.26-6.44,0,.31.09.77.21.8.47.17,1.14.2,7.54,0,8.6l-.8.59c.91-1.13,2.32-1.16,3.22,0,1.23.16,1.18,2.95,0,3.22.79,8.57.79,17.17,0,25.75-10.59.79-21.19.79-31.78,0-.31,0-.79-.05-.81-.25-.21-1.82-.66-12.53-.36-13.65l.77-1.39c.97-1.29,1.95-2.59,3.18-3.64l16.81-14.03-2.98-3.69-15.54,12.78c-.63.49-1.06.51-1.47-.26l-.72-1.59c-.42-6.97-1.01-17.84.69-24.34.45-1.73,1.76-5.18,3.25-5.85l.91.44c3.54,10.31,18.73,7.48,17.59-3.8l.81-.67c-.78-.37-.78-.84,0-1.21,8.79,2.19,17.98,3.7,21.52,13.28,1.81,4.89,1.01,13.44,1.01,18.9Z"/>
  <path class="cls-14" d="M120.2,35.72l.83.7c.37,5.02.15,9.99-.67,14.91l-.97.48c-1.16,3.78-5.36,8.61-8.85,10.46-1.52,2.65-6.65,3.18-9.66,3.18s-8.14-.53-9.65-3.18c-3.49-1.85-7.69-6.68-8.85-10.46-1.14-.72-1.64-2.07-1.51-4.05-.22-2.23-.58-5.98.7-7.62l1.63.02,6.04,3.56,2.42-3.92c-2.07-1.09-3.56-2.45-4.46-4.09l1.22-.71c8.77.73,16.64-2.55,22.06-9.53l1.09.17c.98.31,8.06,8.44,8.61,10.07Z"/>
  <path class="cls-7" d="M97.67,3.94c7.74-1.5,15.71-.03,16.09,9.26,3.02-.07,5.18-.29,7.92,1.13,7.69,4,4.19,14.35,4.96,21.4-.04,1.06-5.84,1.05-6.11.87l-.33-.87c-.61-.91-.93-1.99-.97-3.24l-8.33-8.34c-6.33,8.06-15.31,9.92-25.07,9.17l-1.03-.81-.83-.78c-.73-10.55-.47-27.56,13.71-27.78Z"/>
  <path class="cls-5" d="M126.63,100.09v93.34s64.37,0,64.37,0c-.02,1.07.02,2.15,0,3.22-23.6-.02-47.21.02-70.81,0-1.23-.16-1.18-2.95,0-3.22-.31-.09-.76-.21-.8-.47-.18-1.14-.19-7.51,0-8.6l.8-.59c-.79-19.31-.79-38.62,0-57.93v-25.75c.66-1.32,5.66-1.26,6.44,0Z"/>
  <path class="cls-4" d="M88.01,101.69c.12-.1.65-.1,1.01-.39,5.41-4.37,10.69-8.92,16.11-13.28l4.21,5.21c-.37.01-.72.16-1,.4-6.69,5.68-13.57,11.4-20.32,16.91-1.06,2.46-3.81,4.71-6.44,5.23-3.34,4.31-7.95,8.12-12.87,10.46-3.9,3.13-8.01,6.06-11.87,9.25H10.77v-6.44h44.05c4.74-3.7,9.25-7.94,13.88-11.67,3.25-4.26,8.03-8.17,12.87-10.46,1.02-2.42,3.86-4.76,6.44-5.23Z"/>
  <path class="cls-4" d="M75.14,28.48c2.3-.1,5.41,1.94,6.44,4.02,2.73.25,4.61,1.33,5.63,3.22,1.87,1.15,3.71,2.63,5.58,3.81l-3.36,5.43c-2.49-1.8-5.21-3.26-7.85-4.82-2.88-.32-5.6-2.04-7.24-4.43-5.32-3.17-10.72-6.23-15.89-9.66H10.77v-6.44h49.28c4.81,3.3,10.12,5.92,15.09,8.85Z"/>
  <path class="cls-4" d="M88.01,162.44c1.84-5.44,5.54,4.54,5.04,5.29-.73,1.08-3.69,2.47-5.04,1.95-1.5,2.07-3.88,3.23-6.44,3.22-9.31,4.71-18.72,9.23-27.96,14.08H10.77v-6.44h41.24c9.81-5.05,19.68-10,29.57-14.89,1.32-2.03,4.04-3.44,6.44-3.22Z"/>
  <path class="cls-15" d="M91.23,64.68c.78.37.78.84,0,1.21,1.13.51,1.14,3.62,0,4.02-1.16,3.32-2.87,5.78-3.21,9.46-.65,7.11.47,15.12,0,22.32-2.12,1.72-4.37,3.56-6.44,5.23-.31-.08-.77-.21-.8-.46-.17-1.26-.22-7.91,0-9.02l.8-.57c.55-.72,1.36-1,2.42-.83v-8.26s.8-.57.8-.57c-.66,1.32-5.66,1.26-6.44,0,.31.09.77.21.8.47.16,1.13.2,7.59,0,8.6l-.8.59c-3.19,1.12-6.46,1.09-9.66,0,.09-10.31-2.07-21.59,8.44-27.56,4.23-2.4,9.51-3.05,14.09-4.62Z"/>
  <path class="cls-13" d="M97.67,3.94c-14.3,2.76-13.29,17.12-12.87,28.56-.36.85-1.43.85-3.22,0-2.14-1.3-4.36-2.8-6.44-4.02.19-3.57-.31-7.41.11-10.95,1.3-10.88,12.48-15.98,22.42-13.59Z"/>
  <rect class="cls-4" x="10.77" y="6.75" width="38.62" height="6.44"/>
  <path class="cls-7" d="M88.01,125.83l.8.28c.03,11.86.01,23.72-.05,35.57l-.75.76c-2.17,1-4.29,2.16-6.44,3.22v-26.95c-.31-.04-.78-.14-.8-.36-.18-2.09-.37-10.21,0-11.93l.8-.58c.66-1.32,5.66-1.26,6.44,0Z"/>
  <rect class="cls-4" x="10.77" y="167.67" width="35.4" height="6.44"/>
  <rect class="cls-4" x="10.77" y="116.18" width="35.4" height="6.44"/>
  <path class="cls-6" d="M104.1,183.76c.83,2.89.97,5.87.72,8.85h14.9s.47.8.47.8v3.22c-15.01-.01-30.05,0-45.06,0,.05-1.06-.07-2.16,0-3.22l.37-.8h21.42c-.21-2.98-.1-5.96.74-8.85,2.17-1.01,4.27-1,6.44,0Z"/>
  <path class="cls-14" d="M78.36,96.87c1.03-1.1,2.18-1.08,3.22,0v10.06c-4.24,3.43-8.64,7.06-12.87,10.46.04-6.83-.06-13.69,0-20.52,3.21-.02,6.44.02,9.66,0Z"/>
  <path class="cls-12" d="M88.01,183.76c2.94-1.27,6.7-1.21,9.66,0-.01,3.21,0,6.44,0,9.66h-22.53c.22-3.27,2.93-8.99,6.44-9.66l.31-.86c.48-.24,6.17-.35,6.12.86Z"/>
  <path class="cls-14" d="M81.58,125.83v12.87c-6.87.33-12.93-5.66-12.87-12.47,4.25-3.41,8.59-7,12.87-10.46.31.08.78.21.8.46.11,1.01.18,8.43,0,9.02l-.8.57Z"/>
  <path class="cls-1" d="M126.63,35.72c6.18.97,8.57,9.52,4.04,13.89-3.09,2.98-7.36,2.09-11.28,2.2,1.26-4.11.95-11.64.8-16.09,1.68.39,4.58-.29,6.44,0Z"/>
  <path class="cls-1" d="M81.58,40.14c.08,3.71-.29,8.09.8,11.67-4.75.12-10.69.67-12.95-4.55-2.15-4.98.42-9.29,4.9-11.54,2.42,1.44,4.82,2.99,7.24,4.43Z"/>
  <polygon class="cls-18" points="190.6 115.78 174.91 116.18 175.31 100.49 190.6 115.78"/>
  <path class="cls-7" d="M88.01,183.76c-1.83.03-4.85-.31-6.44,0v-10.86c2.14-1.08,4.31-2.12,6.44-3.22.32.08.79.22.8.47.17,2.23.41,11.33,0,13.02l-.8.59Z"/>
  <path class="cls-2" d="M110.54,62.27c0,.8,0,1.61,0,2.41,0,.4,0,.8,0,1.21-1.85,2.41-6.62,2.78-9.65,2.78-3.04,0-7.81-.37-9.66-2.78,0-.4,0-.8,0-1.21v-2.41c5.98,3.16,13.33,3.16,19.31,0Z"/>
  <path class="cls-14" d="M123.41,96.87c3.21.02,6.44-.02,9.66,0v3.22h-12.87v-3.22c1.04-1.08,2.19-1.1,3.22,0Z"/>
  <polygon class="cls-17" points="158.82 109.74 158.82 116.18 165.25 116.18 165.25 122.61 158.82 122.61 158.82 129.05 152.38 129.05 152.38 122.61 145.94 122.61 145.94 116.18 152.38 116.18 152.38 109.74 158.82 109.74"/>
  <rect class="cls-17" x="152.38" y="154.8" width="28.97" height="6.44"/>
  <rect class="cls-17" x="152.38" y="167.67" width="28.97" height="6.44"/>
  <rect class="cls-17" x="152.38" y="180.55" width="28.97" height="6.44"/>
  <path class="cls-16" d="M143.14,143.13c.8.66,5.29,3.43,5.18,4.16l-9.81,13.15c-1.08.96-2.41,1.04-3.73.49-.5-.21-6.14-5.68-6.56-6.31-.27-.41-.48-.59-.34-1.14.13-.49,3.66-3.92,4.18-3.92,1.26,0,3.04,3.72,4.23,3.06s5.62-7.87,6.84-9.48Z"/>
  <path class="cls-16" d="M143.14,168.88c.8.66,5.29,3.43,5.18,4.16l-9.81,13.15c-1.08.96-2.41,1.04-3.73.49-.5-.21-6.14-5.68-6.56-6.31-.27-.41-.48-.59-.34-1.14.13-.49,3.66-3.92,4.18-3.92,1.26,0,3.04,3.72,4.23,3.06s5.62-7.87,6.84-9.48Z"/>
  <rect class="cls-17" x="152.38" y="141.92" width="19.31" height="6.44"/>
  <path class="cls-8" d="M120.2,125.83v57.93c0,.31-.07.79-.27.8-3.61.28-11.96.49-15.35,0l-.47-.8c-1.28-13.89-1.21-27.95,0-41.84l-.46.8c-1.33.23-5.41.36-5.98-.8,1.21,13.89,1.28,27.95,0,41.84-3.21.02-6.45-.06-9.66,0v-14.08c1.47-.76,3.01-1.45,4.46-2.25l-2.45-5.79c-.3-.22-1.61.62-2.01.8v-36.61c.11-.35.25-.35.4,0h31.78Z"/>
  <path class="cls-14" d="M110.54,65.89c-.01,4.46-.37,7.63-4.46,10.22-5.54,3.51-13.83.25-14.85-6.2-.17-1.1,0-2.81,0-4.02,6.46,2.63,12.85,2.63,19.31,0Z"/>
  <path class="cls-15" d="M88.41,125.83h-6.84v-10.06c2.09-1.69,4.32-3.5,6.44-5.23l.4,15.29Z"/>
  <path class="cls-3" d="M120.2,96.87c-1.07-.03-2.15.02-3.22,0v-9.66h6.44v9.66c-1.07,0-2.15.03-3.22,0Z"/>
  <path class="cls-11" d="M120.2,35.72c-.9-.21-8.73-9.64-9.45-9.65-5.56,7.84-14.16,10.53-23.53,9.65-1.8-1.11-3.79-2.1-5.63-3.22h3.22c5.72,0,10.78.49,16.2-1.7,4.05-1.64,7.07-4.59,9.75-7.94l9.25,9.25c.44.99.17,2.5.21,3.61Z"/>
  <path class="cls-12" d="M120.2,183.76v9.66h-16.09c0-3.21.01-6.44,0-9.66h16.09Z"/>
  <path class="cls-3" d="M78.36,96.87v-9.66h6.44v9.66c-1.07.02-2.15-.03-3.22,0s-2.15,0-3.22,0Z"/>
  <path class="cls-13" d="M97.67,183.76c.05-13.94-.04-27.9,0-41.84h6.44c.04,13.94-.05,27.9,0,41.84-2.14,0-4.3-.01-6.44,0Z"/>
</svg>