<?xml version="1.0" encoding="UTF-8"?>
<svg id="Layer_11" data-name="Layer 11" xmlns="http://www.w3.org/2000/svg" viewBox="0 0 200 200">
  <defs>
    <style>
      .cls-1 {
        fill: #a9a9e1;
      }

      .cls-2 {
        fill: #baddf9;
      }

      .cls-3 {
        fill: #4f5d99;
      }

      .cls-4 {
        fill: #94d0f8;
      }

      .cls-5 {
        fill: #cecefe;
      }

      .cls-6 {
        fill: #e8e8fe;
      }

      .cls-7 {
        fill: #4f5d98;
      }

      .cls-8 {
        fill: #ec524e;
      }
    </style>
  </defs>
  <path class="cls-6" d="M85.03,166.46v-28.93H9.52c-.88,0-3.04-2.58-2.6-3.75V18c.31-2.32,3.16-3.49,5.35-3.37h177.21c2.19-.12,5.04,1.04,5.35,3.37v115.78c.44,1.17-1.72,3.75-2.6,3.75h-75.51v28.93c-.07.35-.21.34-.4,0-1.1-5.65-1.08-11.39,0-17.04-.99-3.97-.98-7.92,0-11.89l-.37.79h-30.07l-.48-.79c.98,3.97.99,7.92,0,11.89,1.08,5.65,1.1,11.39,0,17.04-.07.35-.21.34-.4,0Z"/>
  <path class="cls-6" d="M116.34,166.46c.13,0,.26,0,.4,0,15.55.03,31.5.25,47.17.4l.86.72c.84,8.11-1.71,17.23-10.92,18.65l-126.19.05-.49-.79c.1-5.06-.65-12.14-.02-16.86.11-.81.22-1.39,1.09-1.69,18.48-.21,36.97,0,55.46-.05.74,0,1.27-.43,1.34-.43.13,0,.26,0,.4,0,10.3-1,20.62-1,30.92,0Z"/>
  <path class="cls-5" d="M27.16,185.49l126.59-.04c9.32-1.68,10.95-10.4,10.15-18.58,1.91.02,9.11-.36,10.14.37.35.24.59.81.78,1.2l.19,24.8c-.06,1.09-.61,2.34-1.8,2.56l-144.29.03c-3.12-.42-2.22-6.39-2.16-8.96.01-.58.39-1.16.4-1.37Z"/>
  <path class="cls-2" d="M20.03,122.86l.23-94.38,1.93-.37h157.39c.53.04,2.05.13,2.18.68.3,1.31-.03,4.82-.02,6.47l-.64,2.71c-6.58,10.73-14.71,21.8-24.22,30.13-.71.62-1.61.94-2.49,1.25-.76,1.25-4.12,1.02-5.26.36l-12.48-18.84c-.26-.23-1.17-.28-1.36-.02-5.97,8.3-11.7,16.8-17.33,25.34-.56,1.41-1.35,1.86-2.48,1.3l-17.93-22.74c-.97.27-1.94,1.23-2.92,2.88l-10.04,14.65c-1.2,3.58-6.04,1.31-8.51-.01l-.17-.92-.1-1.03c11.8-13.39,3.06-42.78-16.54-25.52-1.24.92-2.28,1.48-3.58.32-10.54-10.71-22.18-5.31-22.3,9.53-.08,9.74,3.98,14.55,10.68,21.02,3.66,3.53,8.12,7.66,11.96,10.95.77.66,1.5.82,2.32.14l13.09-12.13c.36-.17.79-.21,1.29-.11l.83-.51c3.34,1.8,6.76,2.88,10.24,3.24l12.78-17.86c.49-.64,1.18-.56,1.77-.1l17.12,23.02c.49.47,1.7-.72,1.98-1.17l17.57-25.3c.48-.66,1.21-.55,1.79-.08l10.83,16.22c1.03.4,1.43.98,1.19,1.75-.48.88-.99,1.78-1.76,2.44-5.36,4.54-11.93,8.62-17.98,12.22-8.56,5.09-17.92,10.32-27.42,13.09l-.57.79-7.96-.19c-2.89-.1-5.25.1-3.36,3.37.21.29.44.65.34.94-.42,1.16-16.81,6.04-18.16,6.4-15.77,4.28-31.38,8.29-47.64,10.32-.7.09-1.41.06-2.13.03s-1.44-.14-2.16-.25Z"/>
  <path class="cls-4" d="M20.03,122.86c20.21-2.58,40.42-7.02,59.76-13.37,2.69-.88,5.95-1.9,8.53-2.97.6-.25,1.22-.4,1.48-1.1l.27-.79,44.46-.05c.84-.4.52-2.28-.37-2.3-10.85.3-21.68.03-32.47-.82,16.65-7.5,33.01-16.11,47.17-27.75l.91-.9c4.1-.12,8.2-.15,12.31-.08,4.9.36,4.69-3.38.06-2.78l-7.12.18-.6-.79c10.76-9.93,20.26-21.22,27.35-34.09.28,29.36-.14,58.76-.08,88.11l-.71.87-158.77.22c-1.17.1-2.08-.38-2.16-1.61Z"/>
  <path class="cls-5" d="M116.34,149.42c.01,5.67-.01,11.37,0,17.04-10.3-.02-20.62-.02-30.92,0,.01-5.67-.01-11.37,0-17.04l.37-.79h30.07l.48.79Z"/>
  <path class="cls-1" d="M85.43,149.42c.01-3.96,0-7.93,0-11.89h30.92c0,3.96-.01,7.93,0,11.89h-30.92Z"/>
  <path class="cls-8" d="M75.91,71.34l-.34.44c-2.28-.76-4.61-1.55-6.99-2.37-2.03,1.5-.71,2.89,3.95,4.17l.2.93-13.89,12.86c-1.1.9-2.33.76-3.35-.18-8.03-8.74-21.43-15.77-22.74-28.78-.98-9.71,2.41-21.18,14.38-19.54,3.65.5,6.95,4.43,10.02,6.24,3.55-1.72,6.26-5.58,10.34-6.17,17.33-2.52,17.61,23.46,8.42,32.4Z"/>
  <path class="cls-7" d="M75.91,71.34c1,.38,6.22,2.58,6.68,2.32,2.09-2.48,12.57-19.18,14.22-19.69.35-.11.71-.14,1.08-.08l18.45,23.4c5.78-9.22,12.22-18.04,18.41-26.98.71-.56,1.73-.56,2.44,0l12.54,18.97c1.55.19,3.12.06,4.68.08,2.51.04,8.92-.48,10.82.08,1.57.46,1.78,3.57-.69,3.9-4.6.61-10.86-.26-15.67.38l-1.76-1.21-11.12-16.62-17.87,25.73c-.73.94-2.02,2.16-3.15,1.25l-17.43-23.4-13.28,18.42c-.81.37-1.64.27-2.48.11-1.8-.34-6.97-2.64-9.01-3.47-1.19-.49-4.98-1.73-5.58-2.55-1-1.38.11-3.51,1.71-3.34,1.34.14,5.42,2.11,7.04,2.71Z"/>
  <path class="cls-3" d="M101.68,101.46c10.75-.07,21.52.02,32.28.04,2.07-.12,2.52,3.32.74,3.85l-44.91.08c-2.14-.15-1.81-3.38-.12-3.89,1.93-.58,9.38-.06,12.01-.08Z"/>
  <path class="cls-3" d="M75.03,101.95c.93.93.74,3.15-.91,3.46-1.13.21-8.13.14-8.75-.35-1.16-.92-.83-3.14.92-3.52,1.24-.27,8.03-.3,8.73.4Z"/>
  <path class="cls-8" d="M154.79,92.54c.25-1.42,1.86-1.33,2.96-1.4,1.33-.09,6.95-.47,6.95,1.4v6.14h6.54s.59.55.59.59v8.32s-.55.59-.59.59h-6.54v6.14c0,.11-.61,1.08-.79,1.19-.82.5-9.12.56-9.12-.79v-6.54h-6.54s-.59-.55-.59-.59v-8.32s.55-.59.59-.59h6.54c.23-1.87-.32-4.38,0-6.14Z"/>
</svg>