<?xml version="1.0" encoding="UTF-8"?>
<svg id="Layer_4" data-name="Layer 4" xmlns="http://www.w3.org/2000/svg" viewBox="0 0 100 100">
  <defs>
    <style>
      .cls-1 {
        fill: #fff9e1;
      }

      .cls-2 {
        fill: #83d9ff;
      }

      .cls-3 {
        fill: #fff;
      }

      .cls-4 {
        fill: #090060;
      }

      .cls-5 {
        fill: #f6c486;
      }

      .cls-6 {
        fill: #87d3f6;
      }

      .cls-7 {
        fill: #ffe7df;
      }

      .cls-8 {
        fill: #4a1434;
      }
    </style>
  </defs>
  <g>
    <g>
      <path class="cls-3" d="M15.58,29.42c-1.01-.28-1.46-.52-1.69-.9-.19-.3-.44-.72-.12-5.17.14-1.88.32-3.7.36-4.05,0-.28.12-.54.35-.74.24-.21.75-.66,4.6-.37,2.11.16,4.23.47,5.41.8.68.19,1.05.38,1.28.65.21.25.71.85.31,5.24-.04.42-.39,4.1-.88,4.94-.29.49-.83.9-4.34.52-1.87-.2-4-.57-5.29-.94t0,0Z"/>
      <g>
        <path class="cls-7" d="M23.16,29.79c-1.21,0-3.19-.21-5.07-.55-1.23-.22-3.32-.65-3.59-1.09-.48-.79.25-7.93.35-8.82,0-.09.02-.22.25-.32,1.31-.59,9.46.29,10.14,1.09.74.88-.13,8.51-.63,9.37-.08.14-.31.31-1.34.32-.03,0-.06,0-.1,0ZM16.92,19.09c-.47,0-.89.02-1.22.06-.53.07-.59.17-.59.17v.02s0,.01,0,.01c-.34,3.18-.72,8.12-.39,8.66.3.5,5.57,1.51,8.41,1.51.04,0,.08,0,.11,0,.98,0,1.09-.16,1.1-.18.45-.77,1.3-8.29.66-9.05-.45-.53-5.29-1.19-8.09-1.19Z"/>
        <path class="cls-7" d="M24.47,29.4c-.47.81-9.39-.55-9.86-1.32-.33-.54-.02-4.56.19-6.96.7-.11,1.63-.14,2.33.22,1.28.67,1.7,1.72,1.9,2.59.2.87.27,1.36.84,1.52.57.16,2.12-1.89,5.37-.66-.19,2.1-.53,4.21-.77,4.61Z"/>
        <circle class="cls-7" cx="22.77" cy="21.82" r="1.64"/>
      </g>
    </g>
    <path class="cls-7" d="M69.2,6.18c-.81-.94-14.42,1.57-13.88,2.52,0,0,1.1,10.49,2.52,11.31,1.42.82,13.29-1.61,13.83-2.26.54-.65-1.67-10.64-2.48-11.58ZM67.06,13.19l-2.27,1.84-2.26,1.84c-.42.34-1.06.1-1.15-.44l-.46-2.88-.46-2.88c-.09-.54.44-.97.95-.78l2.73,1.04,2.73,1.04c.51.19.62.87.2,1.21Z"/>
    <g>
      <path class="cls-7" d="M43.23,79.96c-.34,0-.62.02-.79.09-.1.02-.13.06-.13.07v.02s0,.02,0,.02c-.13.63-.27,1.33-.41,2.05.82-.04,1.85.04,2.58.53,1.43.93,1.81,2.22,1.94,3.26.14,1.04.17,1.64.82,1.89.64.25,2.66-1.93,6.25-.23.45-2.4.74-4.78.41-5.27-.56-.84-7.95-2.43-10.67-2.43ZM52.86,84.65c-.39,1-1.51,1.5-2.51,1.11-1-.39-1.5-1.51-1.11-2.51.39-1,1.51-1.5,2.51-1.11,1,.39,1.5,1.51,1.11,2.51Z"/>
      <path class="cls-7" d="M54.84,81.73c-.24-.35-.65-.61-1.43-.92-1.35-.52-3.81-1.14-6.28-1.56-4.5-.78-5.15-.32-5.46-.09-.28.2-.46.5-.49.83-.08.41-.51,2.53-.89,4.72-.89,5.2-.64,5.72-.46,6.1.23.47.74.8,1.89,1.25,1.48.57,3.94,1.26,6.12,1.71,4.08.84,4.77.42,5.16-.12.68-.93,1.51-5.23,1.6-5.72.98-5.12.46-5.88.23-6.2ZM52.3,93.15c-.08.11-.27.24-.92.24-.19,0-.41-.01-.66-.03-2.78-.24-9.67-2.04-10.1-2.92-.48-.98,1.22-9.3,1.43-10.32,0-.11.06-.24.31-.33,1.61-.54,11.08,1.42,11.77,2.45.76,1.12-1.13,9.97-1.83,10.92Z"/>
    </g>
    <g>
      <path class="cls-3" d="M79.24,84.82c-1.23-.06-1.83-.22-2.19-.6-.29-.3-.69-.71-1.48-5.93-.33-2.2-.59-4.35-.64-4.76-.07-.32,0-.66.21-.94.22-.31.69-.95,5.21-1.62,2.47-.37,5.01-.56,6.45-.48.84.04,1.31.16,1.65.42.31.24,1.04.79,1.72,5.97.06.49.62,4.83.27,5.93-.2.64-.73,1.25-4.87,1.73-2.21.26-4.76.37-6.35.29t0,0Z"/>
      <g>
        <path class="cls-7" d="M80.37,83.98c-1.39,0-2.45-.1-2.69-.36-.76-.78-1.76-9.21-1.88-10.25-.03-.1-.02-.25.19-.41,1.36-1.02,10.96-2.12,11.95-1.37,1.08.82,2.05,9.83,1.69,10.95-.05.16-.26.42-1.44.69-1.74.41-5.31.75-7.81.75ZM86.15,71.6c-3,0-9,.84-9.99,1.59-.08.06-.1.1-.09.11v.03c.45,3.77,1.29,9.56,1.81,10.1.53.55,7.23.24,10.25-.47,1.11-.26,1.23-.47,1.24-.51.32-1-.65-9.93-1.59-10.64-.2-.15-.8-.21-1.63-.21Z"/>
        <path class="cls-7" d="M89.5,82.49c-.34,1.06-10.97,1.81-11.72,1.03-.52-.53-1.21-5.25-1.58-8.08.78-.31,1.84-.59,2.74-.35,1.65.44,2.41,1.54,2.87,2.49.46.95.66,1.5,1.36,1.54.7.04,1.96-2.73,6.02-2.16.33,2.48.48,4.99.31,5.52Z"/>
        <path class="cls-7" d="M87.5,74.29c-.06,1.07-.97,1.9-2.04,1.84s-1.9-.97-1.84-2.04.97-1.9,2.04-1.84c1.07.06,1.9.97,1.84,2.04Z"/>
      </g>
    </g>
    <g>
      <path class="cls-3" d="M91.66,50.4c-.32.48-.57,5.34-.08,5.45.83.18,5.39.71,5.95.06.56-.65.32-4.74-.03-5.32-.34-.58-5.53-.67-5.85-.19Z"/>
      <g>
        <path class="cls-7" d="M91.89,55.31c0,.22,4.57.52,4.89.23.21-.2-.4-1.72-2-1.76-.85-.02-2.57.26-2.89,1.54Z"/>
        <path class="cls-7" d="M96.17,52.06c-.15,1.19-1.02,1.42-1.92,1.38-.9-.04-1.31-.71-1.28-1.53s.73-1.45,1.63-1.41c.9.04,1.67.74,1.57,1.56Z"/>
      </g>
    </g>
    <path class="cls-7" d="M8.97,13.86c.04-.67-4.19-3.67-4.73-3.45S.77,14.51,1.11,14.87c.58.61,4.06,3.63,4.88,3.4.83-.22,2.93-3.74,2.97-4.41ZM6.61,12.15c.72.54.96,1.56.42,2.17-.8.9-1.64.6-2.37.06-.72-.54-.69-1.33-.19-1.98.49-.66,1.42-.79,2.14-.25ZM5.58,17.53c-.43.07-4.04-2.76-3.91-2.94.99-.87,2.56-.14,3.25.36,1.3.94.95,2.54.66,2.58Z"/>
    <path class="cls-7" d="M29.74,10.06c-.32-.71-.22-1.69.79-2.14.47-.21.99-.23,1.44-.08.98.31,1.53,1.15,2.04,1.94-.09-.67-.18-1.35-.08-2.04.12-.86.58-1.76,1.48-2.19.42-.2.89-.25,1.3-.11.9.31,1.03,1.29,1.05,2.15.03,1.95-.42,4.14-.95,6.14-.13.47-.69.75-1.13.55-1.65-.73-3.67-1.83-4.94-3.01-.39-.36-.77-.74-.99-1.21Z"/>
    <path class="cls-7" d="M20.71,86.16c.21-.69.88-1.32,1.87-1.01.45.14.83.45,1.06.83.49.82.36,1.74.23,2.61.35-.53.71-1.06,1.2-1.48.62-.53,1.49-.87,2.38-.61.41.12.78.37.98.72.44.77-.07,1.54-.59,2.15-1.18,1.38-2.84,2.63-4.45,3.7-.38.25-.94.1-1.13-.31-.7-1.53-1.44-3.54-1.6-5.14-.05-.49-.09-.99.06-1.46Z"/>
    <path class="cls-7" d="M69.14,90.27c-.09-.19-.06-.46.22-.58.13-.06.27-.06.39-.02.27.09.41.32.55.53-.02-.18-.05-.37-.02-.56.04-.23.16-.48.41-.59.11-.05.24-.07.35-.03.24.09.28.35.28.59,0,.53-.12,1.13-.27,1.67-.04.13-.19.2-.31.15-.45-.2-1-.51-1.34-.83-.1-.1-.21-.2-.27-.33Z"/>
  </g>
  <path class="cls-2" d="M24.06,83.18c-2.07-1.7-3.2-5.17-2.67-7.8.53-2.63,2.59-4.89,5.15-5.66-4.24-.54-7.89-4.16-8.48-8.39-.98,2.65-3.28,4.77-6,5.53-2.72.76-5.79.15-8.01-1.6,2.81,4.29,1.5,9.29-2.28,13.07,5.97,0,9.3,4.29,9.19,8.71,1.79-1.62,3.63-3.27,5.89-4.13,2.26-.85,5.46-1.41,7.2.26"/>
  <path class="cls-2" d="M95.96,31.59c-2.07-1.7-3.2-5.17-2.67-7.8.53-2.63,2.59-4.89,5.15-5.66-4.24-.54-7.89-4.16-8.48-8.39-.98,2.65-3.28,4.77-6,5.53-2.72.76-5.79.15-8.01-1.6,2.81,4.29,1.5,9.29-2.28,13.07,5.97,0,9.3,4.29,9.19,8.71,1.79-1.62,3.63-3.27,5.89-4.13,2.26-.85,5.46-1.41,7.2.26"/>
  <g>
    <path class="cls-3" d="M82.86,22.73s0,.09.01.25c.19,3.59,2.6,41.89,2.98,44.8.4,3.05-2.35,4.08-3.69,4.33-1.34.25-63.22,5.72-68.2,5.97-4.98.24-4.65-3.88-4.65-3.88,0,0-3.45-38.57-4.04-45.4,0,0-.15-.17-.13-.47.1-1.31-.38-5.09,4.44-6.19,0,0,58.69-4.76,65.84-5.28,7.52-.55,7.43,5.87,7.43,5.87Z"/>
    <path class="cls-2" d="M82.86,22.73s0,.09.01.25L5.16,28.33c.1-1.31-.38-5.09,4.44-6.19,0,0,58.69-4.76,65.84-5.28,7.52-.55,7.43,5.87,7.43,5.87Z"/>
    <path class="cls-4" d="M75.23,20.15c.11.59-.28,1.16-.87,1.27-.59.11-1.16-.28-1.27-.87-.11-.59.28-1.16.87-1.27.59-.11,1.16.28,1.27.87Z"/>
    <path class="cls-4" d="M78.11,19.84c.11.59-.28,1.16-.87,1.27-.59.11-1.16-.28-1.27-.87-.11-.59.28-1.16.87-1.27.59-.11,1.16.28,1.27.87Z"/>
    <path class="cls-8" d="M82.69,22.73c.13,1.78.21,3.57.32,5.35.2,3.29.41,6.59.62,9.88.25,3.9.5,7.81.76,11.71.23,3.54.47,7.08.71,10.61.16,2.24.3,4.48.5,6.71.02.24.04.48.07.72.12,1-.03,1.98-.72,2.76-.59.68-1.43,1.1-2.28,1.35-.19.05-.39.1-.58.14-.05,0,0,0-.09.01-1.19.15-2.39.24-3.59.36-2.42.23-4.84.45-7.25.67-3.26.3-6.51.59-9.77.88-3.72.33-7.43.66-11.15.99-3.78.33-7.56.66-11.34.99-3.49.3-6.98.6-10.47.9-2.8.24-5.59.47-8.39.7-1.74.14-3.49.29-5.23.41-1.06.07-2.15.14-3.17-.25-1.28-.48-2.04-1.66-2.13-2.99-.07-.98-.14-1.97-.23-2.95-.25-2.77-.49-5.53-.74-8.3-.34-3.78-.67-7.55-1.01-11.33-.35-3.87-.69-7.74-1.03-11.61-.27-3-.53-6-.8-9.01-.08-.87-.15-1.75-.23-2.62-.02-.22-.34-.23-.35,0v.13c0,.22.34.22.34,0,.03-1.46-.05-2.96.64-4.3.69-1.33,2.1-2.16,3.57-2.33,1.07-.12,2.14-.17,3.21-.26,2.39-.19,4.78-.39,7.18-.58,3.28-.27,6.56-.53,9.83-.8,3.76-.3,7.51-.61,11.27-.91,3.82-.31,7.63-.61,11.45-.92,3.46-.28,6.93-.56,10.39-.83,2.7-.22,5.4-.43,8.1-.64.92-.07,1.85-.14,2.77-.22.89-.07,1.78-.17,2.67-.15,1.85.04,3.72.62,4.9,2.12.69.87,1.09,1.97,1.22,3.07.02.18.04.36.04.54,0,.22.34.22.35,0,.02-2.06-1.13-4.17-2.91-5.19-2.21-1.26-4.84-.84-7.26-.66-2.44.19-4.87.38-7.31.58-3.36.27-6.71.54-10.07.8-3.84.31-7.67.62-11.51.92-3.88.31-7.75.62-11.63.94-3.47.28-6.93.56-10.4.84-2.65.21-5.29.43-7.94.64-1.37.11-2.74.22-4.12.33-.87.07-1.74.34-2.48.8-1.53.94-2.14,2.6-2.26,4.31-.04.63-.02,1.26-.04,1.88h.35v-.13h-.34c.2,2.28.4,4.56.6,6.85.32,3.61.64,7.22.96,10.83.35,3.97.71,7.95,1.06,11.92.3,3.37.6,6.74.9,10.11.16,1.8.32,3.61.48,5.41.03.35.02.69.07,1.03.19,1.36,1.02,2.48,2.31,2.98,1.63.63,3.67.25,5.38.12,2.33-.18,4.67-.37,7-.57,3.22-.27,6.44-.54,9.66-.82,3.72-.32,7.44-.64,11.16-.97,3.83-.33,7.66-.67,11.48-1.01,3.55-.31,7.09-.63,10.64-.95,2.88-.26,5.75-.52,8.62-.78,1.81-.17,3.63-.33,5.44-.52,1.63-.16,3.3-.47,4.41-1.84.65-.81.84-1.81.72-2.83-.03-.22-.05-.45-.07-.67-.08-.87-.15-1.75-.21-2.63-.23-3.01-.43-6.02-.63-9.04-.26-3.89-.52-7.77-.77-11.66-.24-3.74-.48-7.49-.71-11.23-.16-2.63-.33-5.25-.49-7.88-.04-.64-.07-1.28-.11-1.92-.02-.22-.36-.22-.35,0Z"/>
    <g>
      <path class="cls-3" d="M41.14,21.76c0-.07.02-.12.06-.16.05-.03.1-.05.15-.06.04,0,.07,0,.11,0,.04,0,.07.02.1.04.02-.02.05-.03.08-.04.03-.01.07-.02.11-.03.04,0,.09-.01.14-.02.25-.02.48,0,.68.05.2.06.36.16.49.29.12.13.19.29.21.47.01.15-.02.29-.09.4-.08.12-.18.22-.32.31.13.04.23.1.32.18.09.08.16.16.21.24.05.09.08.18.09.27.02.16-.03.32-.13.47-.1.15-.25.29-.46.4-.21.11-.47.18-.79.21-.06,0-.13,0-.21.01-.08,0-.17,0-.26,0-.09,0-.18,0-.25,0-.08,0-.14,0-.18,0-.06,0-.11-.02-.14-.05-.03-.03-.05-.08-.06-.15,0-.06,0-.11.03-.15.03-.04.07-.07.12-.07.02,0,.05,0,.07,0,.03,0,.05,0,.07,0l-.15-2.63ZM41.77,24.37c.06,0,.12,0,.18,0,.06,0,.12,0,.18-.01.17-.02.32-.06.44-.12.13-.06.23-.14.3-.23.07-.09.1-.18.09-.28-.01-.12-.07-.22-.17-.31-.1-.09-.24-.15-.41-.17-.04.02-.07.03-.11.04-.03,0-.07.02-.11.02-.12.01-.22,0-.28-.03-.07-.03-.1-.09-.11-.17,0-.05,0-.1.04-.14.03-.04.08-.07.13-.09.05-.02.1-.04.15-.04.03,0,.06,0,.09,0,.03,0,.07,0,.1,0,.04,0,.07.01.11.02.14-.05.24-.12.3-.22.06-.1.09-.19.08-.28-.01-.12-.05-.21-.13-.29-.08-.07-.18-.12-.31-.15-.13-.03-.28-.03-.45-.02-.04,0-.07,0-.1.01-.03,0-.06.01-.1.02,0,0-.02,0-.03,0-.01,0-.02,0-.03,0l.14,2.43Z"/>
      <path class="cls-3" d="M45.81,24.44c-.15,0-.31-.01-.48,0-.17,0-.34.02-.51.03-.16.01-.3.03-.42.05-.12.02-.2.01-.25-.03-.05-.04-.08-.1-.08-.17-.01-.13-.02-.26-.02-.37,0-.12-.01-.24-.02-.37,0-.11-.02-.25-.03-.41-.01-.16-.02-.33-.04-.51-.01-.18-.03-.35-.04-.52-.01-.16-.02-.31-.03-.42,0-.12,0-.2,0-.23,0-.07.02-.12.07-.15.04-.04.09-.06.15-.06.08,0,.14,0,.19.04.05.03.08.09.08.17.03.41.06.83.08,1.27.03.44.06.88.08,1.32.22-.04.43-.06.65-.07.21,0,.42,0,.62.01.06,0,.1.02.13.07.03.04.04.09.05.14,0,.06,0,.12-.03.17-.03.05-.07.07-.14.07Z"/>
      <path class="cls-3" d="M48.03,20.94s.08.03.1.06c.03.03.04.06.04.1,0,.02,0,.05-.02.08-.01.03-.03.06-.06.09-.03.03-.05.06-.09.07-.03.02-.07.03-.11.03-.04,0-.09-.01-.14-.02-.06-.01-.13-.01-.22,0-.17.02-.31.07-.44.16-.13.09-.23.21-.31.35-.08.14-.13.29-.17.46-.03.16-.04.33-.02.5.02.16.05.3.1.44.05.13.13.25.21.34.09.1.19.17.31.21.12.05.25.06.4.05.18-.02.34-.08.48-.19.14-.11.24-.27.31-.46.07-.2.09-.43.06-.7-.01-.15-.04-.29-.08-.42-.04-.12-.09-.23-.14-.32-.05-.09-.1-.16-.15-.21-.03-.03-.05-.06-.07-.08-.02-.02-.03-.05-.04-.09,0-.02,0-.06.02-.09.01-.04.03-.07.06-.1.02-.03.05-.06.08-.08.03-.02.05-.03.08-.04.05,0,.08,0,.12.03.03.02.07.05.1.08.03.03.05.07.08.09.13.15.23.33.31.54.07.2.12.41.14.63.02.23,0,.45-.04.66-.05.21-.13.41-.24.58-.11.17-.26.31-.43.42-.17.11-.38.17-.61.2-.2.02-.37,0-.54-.04-.16-.05-.3-.12-.42-.22-.12-.1-.23-.21-.31-.34-.08-.13-.15-.26-.2-.4-.05-.14-.08-.28-.09-.42-.02-.22,0-.45.05-.67.05-.22.14-.43.27-.62.12-.19.28-.35.46-.47.18-.12.4-.2.64-.22.08,0,.16,0,.25,0,.09,0,.18.02.26.05Z"/>
      <path class="cls-3" d="M52.1,20.78s.04.03.05.06c.01.02.02.05.02.07,0,.04,0,.08-.02.12-.02.04-.04.08-.07.1-.03.03-.06.05-.1.05-.02,0-.04,0-.06,0-.02,0-.05-.02-.07-.04-.13-.08-.26-.14-.38-.17-.12-.03-.26-.04-.4-.03-.18.02-.34.07-.48.16-.14.09-.26.21-.35.36-.1.15-.16.31-.2.49-.04.18-.05.37-.03.57.01.14.05.27.1.39.05.12.12.23.21.32.09.09.19.16.31.2.12.04.26.06.41.04.15-.01.28-.05.38-.12.11-.06.19-.14.26-.24.07-.1.12-.21.16-.34.04-.13.06-.26.07-.41-.06,0-.13.02-.2.03-.07,0-.13.02-.19.03-.06.01-.13.03-.2.04-.06.01-.11,0-.15-.04-.04-.04-.07-.09-.08-.14,0-.06,0-.12.03-.16.03-.04.07-.07.12-.08.12-.03.25-.05.41-.08.16-.03.3-.05.44-.06.08-.01.15-.02.21-.03.06,0,.12-.01.16-.01.05,0,.1.01.14.04.04.03.07.08.07.15,0,.06,0,.12-.05.16-.04.04-.08.07-.12.07l-.16.02c0,.09,0,.2-.02.34-.02.13-.06.27-.12.41-.06.14-.14.27-.24.4-.1.13-.22.23-.36.32-.14.09-.31.14-.5.17-.24.03-.45.01-.64-.05-.19-.06-.35-.16-.49-.29-.14-.13-.24-.28-.32-.46-.08-.18-.13-.37-.15-.57-.02-.24,0-.48.05-.72.05-.23.15-.45.28-.64.13-.19.29-.35.49-.48.2-.12.42-.2.68-.22.12-.01.25-.01.38,0,.13.01.25.04.37.08.12.04.23.1.34.18Z"/>
    </g>
  </g>
  <g>
    <g>
      <path class="cls-3" d="M53.3,50.26s1.62,17.52,2.69,18.02c1.08.5,36.88-1.72,36.88-1.72l-1.34-18.05s-38.45.28-38.23,1.75Z"/>
      <path class="cls-8" d="M57.38,68.48c-.81,0-1.32-.02-1.44-.08-1.09-.51-2.5-15.18-2.77-18.13,0-.05,0-.12.06-.19.19-.23.79-.93,19.65-1.41,9.29-.24,18.56-.31,18.65-.31h.13s0,.13,0,.13l1.35,18.19h-.14c-3.26.21-29.03,1.8-35.5,1.8ZM53.44,50.26c.78,8.45,1.96,17.59,2.61,17.89.89.39,26.63-1.1,36.67-1.73l-1.32-17.78c-27.06.2-37.5,1.07-37.96,1.61Z"/>
    </g>
    <g>
      <path class="cls-6" d="M70.4,64.16c-.43,1.1-11.84,1.18-12.59.3-.52-.61-.93-5.69-1.14-8.73-.09-1.33-.14-2.27-.14-2.27-.35-1.13,11.8-1.85,12.85-.94.52.45.88,3.07,1.06,5.72.18,2.67.17,5.37-.05,5.92Z"/>
      <path class="cls-1" d="M56.54,53.45s.52,10.13,1.27,11,12.16.8,12.59-.3c.43-1.1.03-10.73-1.01-11.64s-13.2-.2-12.85.94Z"/>
      <path class="cls-5" d="M65.95,58.63c-.13,1.14-1.16,1.96-2.3,1.83s-1.96-1.16-1.83-2.3c.13-1.14,1.16-1.96,2.3-1.83,1.14.13,1.96,1.16,1.83,2.3Z"/>
    </g>
    <path class="cls-8" d="M72.08,55.16c4.68-.06,9.37-.12,14.05-.18l4.04-.05c.22,0,.22-.35,0-.35-4.68.06-9.37.12-14.05.18-1.35.02-2.7.03-4.04.05-.22,0-.22.35,0,.35h0Z"/>
    <path class="cls-8" d="M72.11,57.24c4.68-.06,9.37-.12,14.05-.18,1.35-.02,2.7-.03,4.04-.05.22,0,.22-.35,0-.35-4.68.06-9.37.12-14.05.18-1.35.02-2.7.03-4.04.05-.22,0-.22.35,0,.35h0Z"/>
    <path class="cls-8" d="M72.14,59.32c4.68-.06,9.37-.12,14.05-.18,1.35-.02,2.7-.03,4.04-.05.22,0,.22-.35,0-.35-4.68.06-9.37.12-14.05.18l-4.04.05c-.22,0-.22.35,0,.35h0Z"/>
    <g>
      <path class="cls-5" d="M85.73,60.71c-.22.4.06,4.3.46,4.36.67.09,4.18.13,4.58-.43.4-.56.24-3.77-.07-4.21-.31-.44-4.75-.12-4.97.28Z"/>
      <g>
        <path class="cls-1" d="M86.22,64.61c0,.18,3.65.12,3.89-.13.16-.17-.42-1.35-1.69-1.28-.68.04-2.02.37-2.19,1.41Z"/>
        <path class="cls-1" d="M89.41,61.75c-.04.96-.72,1.2-1.44,1.22s-1.09-.48-1.11-1.14.48-1.2,1.2-1.23,1.37.49,1.34,1.14Z"/>
      </g>
    </g>
    <path class="cls-8" d="M72.19,62.19c4.01-.17,8.03-.34,12.04-.5.22,0,.22-.35,0-.35-4.01.17-8.03.34-12.04.5-.22,0-.22.35,0,.35h0Z"/>
    <path class="cls-8" d="M72.15,53.09c2.97.13,5.95.07,8.91-.16.22-.02.22-.36,0-.35-2.96.24-5.94.29-8.91.16-.22,0-.22.34,0,.35h0Z"/>
    <g>
      <path class="cls-8" d="M63.29,65.19c-2.67,0-5.2-.2-5.59-.64-.52-.6-.92-5.13-1.17-8.81-.08-1.24-.13-2.13-.13-2.26-.03-.11,0-.27.23-.42,1.52-.99,11.85-1.51,12.84-.64.69.6,1,4.27,1.11,5.82.16,2.45.19,5.36-.06,5.98-.07.17-.3.42-1.59.64-1.3.22-3.52.34-5.65.34ZM65.87,52.23c-3.39,0-8.14.44-9.08,1.06-.08.05-.12.1-.11.12v.03s.06.94.14,2.27c.34,5.08.74,8.23,1.1,8.65.53.62,7.71.76,10.98.21,1.21-.2,1.36-.42,1.37-.47h0c.2-.51.22-3.14.04-5.86-.21-3.11-.6-5.27-1.01-5.63-.31-.27-1.69-.39-3.43-.39Z"/>
      <path class="cls-8" d="M63.29,65.19c-2.67,0-5.2-.2-5.58-.64-.75-.88-1.25-9.96-1.3-11.07-.03-.11,0-.26.23-.42,1.52-.99,11.84-1.51,12.84-.64,1.1.95,1.51,10.62,1.05,11.8-.07.17-.3.42-1.58.64-1.3.22-3.53.34-5.66.34ZM65.87,52.23c-3.39,0-8.15.44-9.08,1.06-.07.05-.12.1-.11.12v.03c.22,4.05.72,10.31,1.24,10.92.53.62,7.72.76,10.98.21,1.21-.2,1.36-.42,1.37-.47.2-.51.22-3.13.04-5.83-.21-3.12-.6-5.29-1.01-5.65-.31-.27-1.69-.39-3.43-.39Z"/>
    </g>
  </g>
  <g>
    <g>
      <path class="cls-3" d="M49.28,29.89s1.68,16.73,2.71,17.2,43.24-4.25,43.24-4.25l-1.45-16.54s-44.73,2.19-44.5,3.6Z"/>
      <path class="cls-8" d="M52.39,47.25c-.25,0-.41-.01-.46-.04-1.05-.48-2.51-14.49-2.79-17.3,0-.04,0-.11.05-.17.19-.23.75-.93,22.77-2.35,10.85-.7,21.71-1.23,21.81-1.24h.13s1.48,16.8,1.48,16.8l-.13.02c-4.1.46-38.37,4.28-42.85,4.28ZM49.42,29.9c.81,8.05,2,16.76,2.63,17.06.98.35,31.27-2.93,43.04-4.25l-1.43-16.28c-17.36.85-43.29,2.46-44.24,3.46Z"/>
    </g>
    <g>
      <path class="cls-6" d="M65.75,41.87c-.33,1.01-10.53,1.62-11.24.87-.49-.52-1.11-5.05-1.44-7.76-.14-1.19-.23-2.02-.23-2.02-.37-1,10.46-2.22,11.44-1.45.49.38.94,2.7,1.22,5.07.29,2.38.41,4.79.24,5.29Z"/>
      <path class="cls-5" d="M52.84,32.97s.95,9.03,1.67,9.78c.71.75,10.91.13,11.24-.87.33-1.01-.48-9.6-1.47-10.36-.98-.76-11.81.46-11.44,1.45Z"/>
      <path class="cls-1" d="M65.75,41.87c-.33,1.01-10.53,1.62-11.24.87-.49-.52-1.11-5.05-1.44-7.76.75-.29,1.77-.55,2.63-.31,1.58.43,2.3,1.5,2.72,2.42.43.91.62,1.45,1.29,1.49.67.04,1.91-2.59,5.79-2.01.29,2.38.41,4.79.24,5.29Z"/>
      <path class="cls-1" d="M62.02,34.42c-.06,1.03-.95,1.81-1.97,1.74-1.03-.06-1.81-.95-1.74-1.97.06-1.03.95-1.81,1.97-1.74,1.03.06,1.81.95,1.74,1.97Z"/>
    </g>
    <path class="cls-8" d="M57.29,43.21c-1.48,0-2.63-.11-2.88-.37-.72-.75-1.6-8.85-1.7-9.84-.03-.1-.02-.25.19-.4,1.31-.96,10.53-1.92,11.47-1.19,1.03.8,1.87,9.44,1.51,10.51-.06.17-.27.4-1.39.65-1.61.36-4.82.64-7.2.64ZM62.47,31.4c-2.92,0-8.48.73-9.41,1.42-.08.06-.09.09-.09.1v.03c.39,3.61,1.14,9.17,1.64,9.7.46.49,6.71.35,9.82-.35,1.07-.24,1.18-.44,1.19-.47.32-.96-.52-9.51-1.42-10.21-.2-.16-.84-.22-1.73-.22Z"/>
    <path class="cls-8" d="M66.86,31.71c1.63-.16,3.27-.29,4.9-.41.69-.05,1.38-.11,2.08-.16.29-.02.64,0,.92-.08.07-.02.13-.09.13-.17,0,0,0,0,0,0-.01-.1-.07-.16-.17-.17,0,0,0,0,0,0-.22-.03-.22.32,0,.35,0,0,0,0,0,0-.06-.06-.12-.12-.17-.17,0,0,0,0,0,0,.04-.06.08-.11.13-.17.05-.01-.02,0-.05,0-.06,0-.13.01-.19.02-.21.02-.43.03-.64.05-.7.05-1.4.11-2.11.16-1.61.13-3.22.25-4.82.41-.22.02-.22.37,0,.35h0Z"/>
    <path class="cls-8" d="M67.3,33.47c4.34-.32,8.69-.59,13.04-.86,1.84-.12,3.68-.23,5.52-.35.78-.05,1.69-.05,2.45-.17.18-.03.36-.12.33-.22,0,0,0,0,0,0-.03-.13-.19-.19-.46-.2,0,0,0,0,0,0-.59-.02-.57.41.01.43,0,0,0,0,0,0-.16-.07-.31-.14-.46-.2,0,0,0,0,0,0,.11-.07.22-.14.33-.22.13-.02-.05.01-.14,0-.16,0-.35.02-.51.03-.57.04-1.14.07-1.7.11-1.87.12-3.73.23-5.6.35-4.27.27-8.55.54-12.81.85-.58.04-.58.47.01.43h0Z"/>
    <path class="cls-8" d="M67.69,35.45c4.34-.35,8.68-.65,13.03-.96,1.84-.13,3.68-.26,5.52-.39.78-.05,1.69-.06,2.45-.18.18-.03.35-.13.33-.22,0,0,0,0,0,0-.03-.13-.2-.19-.47-.2,0,0,0,0,0,0-.59-.01-.57.42.01.43,0,0,0,0,0,0-.16-.07-.31-.13-.47-.2,0,0,0,0,0,0,.11-.07.22-.15.33-.22.13-.02-.05.01-.14.01-.16,0-.35.03-.51.04-.57.04-1.13.08-1.7.12-1.86.13-3.73.26-5.59.39-4.27.3-8.54.6-12.8.94-.58.05-.57.48.01.43h0Z"/>
    <path class="cls-8" d="M67.93,37.43c1.63-.16,3.27-.29,4.9-.41.69-.05,1.38-.11,2.08-.16.29-.02.64,0,.92-.08.07-.02.13-.09.13-.17,0,0,0,0,0,0-.01-.1-.07-.16-.17-.17,0,0,0,0,0,0-.22-.03-.22.32,0,.35,0,0,0,0,0,0-.06-.06-.12-.12-.17-.17,0,0,0,0,0,0,.04-.06.08-.11.13-.17.05-.01-.02,0-.05,0-.06,0-.13.01-.19.02-.21.02-.43.03-.64.05-.7.05-1.4.11-2.11.16-1.61.13-3.22.25-4.82.41-.22.02-.22.37,0,.35h0Z"/>
    <path class="cls-8" d="M68.38,39.19c4.34-.32,8.69-.59,13.04-.86,1.84-.12,3.68-.23,5.52-.35.78-.05,1.69-.05,2.45-.17.18-.03.36-.12.33-.22,0,0,0,0,0,0-.03-.13-.19-.19-.46-.2,0,0,0,0,0,0-.59-.02-.57.41.01.43,0,0,0,0,0,0-.16-.07-.31-.14-.46-.2,0,0,0,0,0,0,.11-.07.22-.14.33-.22.13-.02-.05.01-.14,0-.16,0-.35.02-.51.03-.57.04-1.14.07-1.7.11-1.87.12-3.73.23-5.6.35-4.27.27-8.55.54-12.81.85-.58.04-.58.47.01.43h0Z"/>
    <path class="cls-8" d="M68.76,41.17c4.34-.35,8.68-.65,13.03-.96,1.84-.13,3.68-.26,5.52-.39.78-.05,1.69-.06,2.45-.18.18-.03.35-.13.33-.22,0,0,0,0,0,0-.03-.13-.2-.19-.47-.2,0,0,0,0,0,0-.59-.01-.57.42.01.43,0,0,0,0,0,0-.16-.07-.31-.13-.47-.2,0,0,0,0,0,0,.11-.07.22-.15.33-.22.13-.02-.05.01-.14.01-.16,0-.35.03-.51.04-.57.04-1.13.08-1.7.12-1.86.13-3.73.26-5.59.39-4.27.3-8.54.6-12.8.94-.58.05-.57.48.01.43h0Z"/>
    <g>
      <path class="cls-4" d="M96.9,27.49c-.13,2.04-1.88,3.59-3.92,3.46-2.04-.13-3.59-1.88-3.46-3.92.13-2.04,1.88-3.59,3.92-3.46,2.04.13,3.59,1.88,3.46,3.92Z"/>
      <path class="cls-2" d="M92.78,25.28c.24,1.31.48,2.61.73,3.92.04.22.37.13.33-.09-.24-1.31-.48-2.61-.73-3.92-.04-.22-.37-.13-.33.09h0Z"/>
      <path class="cls-2" d="M91.07,27.62c1.43-.17,2.86-.35,4.29-.52.22-.03.22-.37,0-.35-1.43.17-2.86.35-4.29.52-.22.03-.22.37,0,.35h0Z"/>
    </g>
  </g>
  <g>
    <g>
      <path class="cls-3" d="M9.5,32.13s2.23,40.24,4.5,41.85c1.22.86,34.5-1.13,34.96-2.99.46-1.86-2.54-41.77-3.57-42.27-1.04-.5-35.83,2.4-35.89,3.41Z"/>
      <path class="cls-8" d="M17.16,74.33c-1.81,0-3-.07-3.23-.24-2.3-1.62-4.47-40.31-4.56-41.95h0s0-.02,0-.02c0-.11.11-.18.15-.2.97-.57,10.08-1.54,18.27-2.26,6.5-.57,17.04-1.37,17.67-1.06.69.33,1.82,13.14,2.43,20.74.79,9.89,1.46,20.71,1.22,21.69-.05.19-.27.35-.71.51-3.73,1.39-23.36,2.79-31.23,2.79ZM9.64,32.17c.77,13.91,2.69,40.46,4.44,41.7,1.08.76,29.73-.92,34.21-2.58.49-.18.54-.31.54-.32.21-.83-.34-10.41-1.21-21.36-.95-11.98-1.88-20.32-2.31-20.76-.47-.2-8.67.31-17.9,1.13-10.12.9-17.23,1.78-17.78,2.2Z"/>
    </g>
    <path class="cls-8" d="M14.45,53.42c2.76-.09,5.53-.23,8.29-.36,3.51-.17,7.01-.34,10.52-.5,1.31-.06,2.63-.12,3.94-.16.22,0,.22-.35,0-.35-2.76.09-5.53.23-8.29.36-3.51.17-7.01.34-10.52.5-1.31.06-2.63.12-3.94.16-.22,0-.22.35,0,.35h0Z"/>
    <path class="cls-8" d="M14.5,55.97c2.81-.09,5.61-.24,8.42-.37,3.56-.17,7.12-.35,10.68-.51,1.33-.06,2.65-.12,3.98-.16.22,0,.22-.35,0-.35-2.81.09-5.61.24-8.42.37-3.56.17-7.12.35-10.68.51-1.33.06-2.65.12-3.98.16-.22,0-.22.35,0,.35h0Z"/>
    <path class="cls-8" d="M15.03,58.65c2.79-.09,5.58-.32,8.37-.52,3.55-.25,7.09-.51,10.64-.74,1.32-.09,2.64-.18,3.96-.22.22,0,.22-.35,0-.35-2.79.09-5.58.32-8.37.52-3.55.25-7.09.51-10.64.74-1.32.09-2.64.18-3.96.22-.22,0-.22.35,0,.35h0Z"/>
    <g>
      <path class="cls-5" d="M27.18,46.74c-.39,1.21-11.98,1.85-12.78.94-.56-.63-1.21-6.07-1.56-9.33-.15-1.43-.24-2.43-.24-2.43-.41-1.2,11.91-2.57,13.02-1.64.55.46,1.04,3.26,1.34,6.1.31,2.86.42,5.76.23,6.36Z"/>
      <path class="cls-5" d="M12.59,35.92s1,10.86,1.8,11.76c.8.9,12.4.27,12.78-.94.39-1.21-.46-11.53-1.57-12.46s-13.43.44-13.02,1.64Z"/>
      <path class="cls-1" d="M27.18,46.74c-.39,1.21-11.98,1.85-12.78.94-.56-.63-1.21-6.07-1.56-9.33.86-.35,2.02-.64,3-.35,1.79.54,2.59,1.83,3.07,2.93.48,1.1.69,1.74,1.45,1.8.76.06,2.19-3.1,6.6-2.35.31,2.86.42,5.76.23,6.36Z"/>
      <path class="cls-1" d="M25.17,37.26c-.08,1.23-1.09,2.16-2.26,2.08s-2.04-1.15-1.96-2.39c.08-1.23,1.09-2.16,2.26-2.08,1.17.09,2.04,1.15,1.96,2.39Z"/>
    </g>
    <path class="cls-8" d="M30.87,40.67c3.87-.27,7.74-.54,11.61-.81.22-.02.22-.36,0-.35-3.87.27-7.74.54-11.61.81-.22.02-.22.36,0,.35h0Z"/>
    <path class="cls-8" d="M31.03,42.83c3.87-.27,7.74-.54,11.61-.81.22-.02.22-.36,0-.35-3.87.27-7.74.54-11.61.81-.22.02-.22.36,0,.35h0Z"/>
    <path class="cls-8" d="M31.18,44.99c3.87-.27,7.74-.54,11.61-.81.22-.02.22-.36,0-.35-3.87.27-7.74.54-11.61.81-.22.02-.22.36,0,.35h0Z"/>
    <path class="cls-8" d="M14.17,51.09c7.81-.59,15.63-.95,23.45-1.43,2.19-.14,4.38-.28,6.56-.45.22-.02.22-.36,0-.35-7.81.59-15.63.95-23.45,1.43-2.19.14-4.38.28-6.56.45-.22.02-.22.36,0,.35h0Z"/>
    <path class="cls-8" d="M31.16,47.34c2.31-.13,4.63-.25,6.94-.38.22-.01.22-.36,0-.35-2.31.13-4.63.25-6.94.38-.22.01-.22.36,0,.35h0Z"/>
    <path class="cls-8" d="M39.82,46.77c1.1-.05,2.2-.11,3.3-.16.22-.01.22-.36,0-.35-1.1.05-2.2.11-3.3.16-.22.01-.22.36,0,.35h0Z"/>
    <g>
      <path class="cls-5" d="M24.76,66.01s.03,5.26.8,5.43c.86.19,4.87.03,5.58-.22.29-.1.26-5.17-.18-5.83-.5-.76-6.23-.07-6.2.62Z"/>
      <path class="cls-5" d="M32.53,65.27s.03,5.26.8,5.43c.86.19,4.87.03,5.58-.22.29-.1.26-5.17-.18-5.83-.5-.76-6.23-.07-6.2.62Z"/>
      <path class="cls-1" d="M26.15,67.5c-.01-.37.2-.77.69-.78.23,0,.44.08.61.23.35.31.43.77.5,1.21.08-.31.16-.62.32-.9.2-.35.54-.66.98-.68.2-.01.41.05.55.19.32.3.2.74.06,1.12-.32.85-.88,1.72-1.44,2.49-.13.18-.41.2-.56.04-.55-.62-1.19-1.46-1.51-2.2-.1-.23-.19-.46-.2-.7Z"/>
      <g>
        <path class="cls-5" d="M40.18,64.57s.03,5.26.8,5.43c.86.19,4.87.03,5.58-.22.29-.1.26-5.17-.18-5.83-.5-.76-6.23-.07-6.2.62Z"/>
        <path class="cls-1" d="M41.25,65.51s0,3.08.36,3.21c.35.12,4.15-.04,4.38-.3.23-.25-.03-3.26-.23-3.4-.2-.14-4.51.18-4.51.49Z"/>
        <path class="cls-5" d="M41.16,65.66c.65.48,1.33.99,2.06,1.34.13.06.28.14.42.13.14,0,.27-.11.38-.19.39-.29.74-.65,1.08-.99.26-.27.52-.53.77-.81.15-.16-.09-.41-.24-.24-.51.56-1.04,1.12-1.62,1.62-.12.1-.24.21-.38.27-.02,0,0,0-.04,0-.07-.02-.13-.05-.2-.08-.43-.21-.82-.48-1.21-.75-.29-.19-.57-.39-.85-.6-.18-.13-.35.17-.17.3h0Z"/>
        <path class="cls-5" d="M41.7,68.77c.5-.61.97-1.25,1.48-1.85.06-.07.07-.17,0-.24-.06-.06-.18-.07-.24,0-.5.61-.97,1.25-1.48,1.85-.06.07-.07.17,0,.24.06.06.18.07.24,0h0Z"/>
        <path class="cls-5" d="M44.24,66.66c.59.52,1.15,1.08,1.67,1.68.06.07.18.06.24,0,.07-.07.06-.17,0-.24-.52-.6-1.07-1.16-1.67-1.68-.07-.06-.18-.07-.24,0-.06.06-.07.18,0,.24h0Z"/>
      </g>
      <path class="cls-1" d="M35.19,66.73s.16-1.89.48-1.45c.33.44.68,1.44.68,1.44l1,.02c.22,0,.31.29.15.44l-.67.61s.66,2.08.27,1.78c-.39-.3-1.32-1.03-1.32-1.03,0,0-.62,1.75-.77,1.15-.15-.6-.03-1.97-.03-1.97,0,0-1.84-.95-1.18-.93s1.39-.07,1.39-.07Z"/>
    </g>
    <g>
      <path class="cls-5" d="M38.61,52.34c-.28.53.08,5.63.57,5.7.83.12,5.21.17,5.71-.56.5-.73.3-4.93-.09-5.51-.39-.58-5.91-.16-6.19.37Z"/>
      <g>
        <path class="cls-1" d="M39.23,57.44c0,.23,4.55.16,4.84-.17.2-.23-.53-1.76-2.11-1.67-.84.05-2.51.49-2.73,1.85Z"/>
        <path class="cls-1" d="M43.19,53.69c-.06,1.25-.89,1.57-1.79,1.6-.9.03-1.35-.63-1.38-1.49s.6-1.57,1.5-1.6c.9-.03,1.71.64,1.67,1.49Z"/>
      </g>
    </g>
    <path class="cls-8" d="M15.07,61.47c1.2-.05,2.4-.13,3.6-.2,2.25-.13,4.49-.27,6.74-.4,2.64-.16,5.28-.32,7.91-.47,2.34-.14,4.68-.28,7.02-.42,1.36-.08,2.73-.17,4.1-.23.07,0,.13,0,.2,0,.22,0,.22-.35,0-.35-1.2.05-2.4.13-3.6.2-2.25.13-4.49.27-6.74.4-2.64.16-5.28.32-7.91.47-2.34.14-4.68.28-7.02.42-1.36.08-2.73.17-4.1.23-.07,0-.13,0-.2,0-.22,0-.22.35,0,.35h0Z"/>
    <path class="cls-8" d="M15.36,63.63c1.2-.05,2.4-.13,3.6-.2,2.25-.13,4.49-.27,6.74-.4,2.64-.16,5.28-.32,7.91-.47,2.34-.14,4.68-.28,7.02-.42,1.36-.08,2.73-.17,4.1-.23.07,0,.13,0,.2,0,.22,0,.22-.35,0-.35-1.2.05-2.4.13-3.6.2-2.25.13-4.49.27-6.74.4-2.64.16-5.28.32-7.91.47-2.34.14-4.68.28-7.02.42-1.36.08-2.73.17-4.1.23-.07,0-.13,0-.2,0-.22,0-.22.35,0,.35h0Z"/>
    <path class="cls-8" d="M30.87,37.17c.86-.85,2.67-1.1,2.69-2.6,0-.46-.22-.97-.69-1.12-.49-.15-1.01.15-1.26.56-.68,1.14.44,2.49,1.46,2.92,1.15.48,2.49.1,3.26-.87.37-.48.63-1.14.44-1.75-.15-.45-.6-.83-1.09-.81-.52.03-.83.52-.84,1-.01.58.37,1.05.83,1.35.98.64,2.3.62,3.32.06.52-.29,1.01-.74,1.25-1.29.2-.46.15-1.13-.35-1.38-.54-.27-1.06.25-1.11.77-.06.67.43,1.3.93,1.69.99.77,2.44.85,3.48.14.18-.12,0-.42-.17-.3-.68.46-1.52.57-2.29.31-.71-.23-1.79-1.02-1.59-1.89.07-.3.4-.61.69-.34.21.19.22.51.14.77-.14.44-.53.82-.9,1.08-.7.48-1.6.65-2.42.44-.38-.1-.75-.27-1.04-.54-.35-.32-.62-.94-.24-1.35.36-.39.93-.02,1.07.39.17.47-.05,1.01-.34,1.39-.59.79-1.64,1.19-2.59.92-.88-.24-1.78-1.08-1.73-2.05.03-.49.54-1.15,1.09-.85.42.22.43.85.26,1.22-.44.97-1.77,1.17-2.48,1.89-.16.16.09.4.24.24h0Z"/>
    <path class="cls-8" d="M15.48,66.48c2.41-.07,4.81-.15,7.22-.22.22,0,.22-.35,0-.35-2.41.07-4.81.15-7.22.22-.22,0-.22.35,0,.35h0Z"/>
    <path class="cls-8" d="M15.7,68.92c2.2-.03,4.39-.07,6.59-.1.22,0,.22-.35,0-.35-2.2.03-4.39.07-6.59.1-.22,0-.22.35,0,.35h0Z"/>
    <path class="cls-8" d="M17.84,48.24c-1.81,0-3.26-.14-3.55-.47-.8-.91-1.73-10.64-1.84-11.83-.03-.12-.01-.29.26-.48,1.64-1.13,11.95-2.15,12.99-1.29,1.16.97,2.03,11.33,1.62,12.61-.06.2-.32.49-1.8.81-1.81.38-5.11.66-7.67.66ZM23.41,34.11c-3.32,0-9.39.79-10.54,1.59-.08.06-.16.13-.15.18v.03c.28,3.01,1.14,10.97,1.78,11.68.55.62,7.52.45,10.96-.27,1.38-.29,1.57-.55,1.59-.62.18-.56.08-3.38-.23-6.28-.36-3.35-.85-5.66-1.3-6.03-.23-.2-1.03-.28-2.11-.28Z"/>
  </g>
</svg>