<?xml version="1.0" encoding="UTF-8"?>
<svg id="Layer_4" data-name="Layer 4" xmlns="http://www.w3.org/2000/svg" viewBox="0 0 100 100">
  <defs>
    <style>
      .cls-1 {
        fill: #3e3f40;
      }

      .cls-2 {
        fill: #4ba166;
      }

      .cls-3 {
        fill: #d47d43;
      }

      .cls-4 {
        fill: #f1eae1;
      }

      .cls-5 {
        fill: #3b8250;
      }

      .cls-6 {
        fill: #4c504f;
      }

      .cls-7 {
        fill: #ded8d0;
      }

      .cls-8 {
        fill: #f49351;
      }
    </style>
  </defs>
  <g>
    <path class="cls-6" d="M21.74,20.1c-2.19-.03-3.99,1.73-4.02,3.92l-.63,50.78c-.03,2.19,1.73,3.99,3.92,4.02l34.77.43-.03,2.34-37.95-.47c-2.39-.03-4.31-1.99-4.28-4.38l.69-55.43c.03-2.39,1.99-4.31,4.39-4.28l37.95.47-.04,3.02-34.77-.43Z"/>
    <path class="cls-6" d="M91.2,20.83c2.19.02,3.95,1.81,3.93,4.01l-.47,50.78c-.02,2.19-1.81,3.95-4.01,3.93l-34.77-.32-.02,2.34,37.95.35c2.39.02,4.35-1.9,4.37-4.29l.51-55.43c.02-2.39-1.9-4.35-4.29-4.37l-37.95-.35-.03,3.02,34.77.32Z"/>
  </g>
  <g>
    <path class="cls-4" d="M81.53,26.29H5.63c-2.39,0-4.33,1.94-4.33,4.33v55.43c0,2.39,1.94,4.33,4.33,4.33h75.9c2.39,0,4.33-1.94,4.33-4.33V30.63c0-2.39-1.94-4.33-4.33-4.33Z"/>
    <path class="cls-7" d="M78.47,87.83c2.19,0,3.97-1.78,3.97-3.97v-50.79c0-2.19-1.78-3.97-3.97-3.97h-34.77v58.72h34.77Z"/>
    <path class="cls-2" d="M41.98,74.77l-8.66-10.25c-1.12-1.32-3.91-1.32-5.03,0L2.65,85.02c-1.12,1.32.28,2.98,2.52,2.98h38.64v-11.07l-1.82-2.16Z"/>
    <path class="cls-5" d="M84.85,83.86l-15.75-28.5c-1.55-1.84-5.44-1.84-7,0l-12.04,14.25-6.22,7.37h0s-.04-.05-.04-.05v11.07h38.01c3.11,0,4.59-2.3,3.04-4.14Z"/>
    <g>
      <path class="cls-8" d="M18.01,50.59c0,3.32,2.69,6,6,6v-12.01c-3.32,0-6,2.69-6,6Z"/>
      <path class="cls-3" d="M24.02,44.58v12.01c3.32,0,6-2.69,6-6s-2.69-6-6-6Z"/>
    </g>
    <path class="cls-6" d="M8.92,87.83c-2.19,0-3.97-1.78-3.97-3.97v-50.79c0-2.19,1.78-3.97,3.97-3.97h34.77v-2.34H5.75c-2.39,0-4.33,1.94-4.33,4.33v55.43c0,2.39,1.94,4.33,4.33,4.33h37.95v-3.02H8.92Z"/>
    <path class="cls-1" d="M81.65,26.76h-37.95v2.34h34.77c2.19,0,3.97,1.78,3.97,3.97v50.79c0,2.19-1.78,3.97-3.97,3.97h-34.77v3.02h37.95c2.39,0,4.33-1.94,4.33-4.33V31.09c0-2.39-1.94-4.33-4.33-4.33Z"/>
  </g>
</svg>