<?xml version="1.0" encoding="UTF-8"?>
<svg xmlns="http://www.w3.org/2000/svg" viewBox="0 0 100 100">
  <defs>
    <style>
      .cls-1, .cls-2, .cls-3, .cls-4 {
        fill: #b6c1c1;
      }

      .cls-5 {
        fill: #f2f2ee;
      }

      .cls-6, .cls-7 {
        fill: #701111;
      }

      .cls-2, .cls-8, .cls-9, .cls-7, .cls-10, .cls-3, .cls-4 {
        mix-blend-mode: multiply;
      }

      .cls-2, .cls-7 {
        opacity: .5;
      }

      .cls-8 {
        fill: #dde3ea;
      }

      .cls-11 {
        fill: #fff;
      }

      .cls-12 {
        fill: #dc2b26;
      }

      .cls-9 {
        opacity: .7;
      }

      .cls-13 {
        fill: #adb0ba;
      }

      .cls-14, .cls-10 {
        fill: #ae1f24;
      }

      .cls-15 {
        isolation: isolate;
      }

      .cls-10 {
        opacity: .4;
      }

      .cls-16 {
        fill: #e92b26;
      }

      .cls-4 {
        opacity: .6;
      }
    </style>
  </defs>
  <g class="cls-15">
    <g id="Layer_4" data-name="Layer 4">
      <g>
        <g>
          <g>
            <path class="cls-14" d="M11.43,46.69l3.12-.85,5.1-1.39s-3.51,5.14-1.24,12.77c2.27,7.63,7.23,11.41,7,11.2l-4.18,1.54-1.34.49c-5.75,1.65-12-2.32-14.03-8.93-1.89-6.19.58-12.52,5.56-14.83Z"/>
            <path class="cls-6" d="M11.43,46.69l4.11-1.11,4.12-1.09-.04-.06c-.31.47-.55.97-.78,1.48-.22.51-.43,1.03-.59,1.56-.08.27-.17.53-.23.8-.06.27-.14.54-.19.81-.05.27-.11.55-.15.82l-.1.83c-.03.28-.03.56-.05.84l-.02.42v.42s.02.84.02.84l.07.84.04.42.07.41.14.83c.12.55.25,1.09.39,1.63.62,2.15,1.51,4.22,2.67,6.14.58.96,1.23,1.88,1.94,2.75.36.44.72.86,1.12,1.27.2.2.4.4.6.6l.32.29.16.14.09.07.05.04.03.02h.01s.03.03.05.04c-.06.13.76-1,.4-.54l-.03-.03-.14-.15-.21.07c-1.84.67-3.68,1.34-5.52,2.03h.02s-1.05.23-1.05.23l-1.07.12c-.36,0-.72,0-1.07,0-.36-.04-.72-.07-1.07-.12-.35-.08-.71-.14-1.05-.24-.34-.12-.69-.21-1.02-.35-.33-.15-.67-.28-.99-.45-.31-.18-.64-.34-.94-.54-.3-.21-.61-.4-.89-.62-.28-.23-.57-.46-.84-.7l-.78-.77-.71-.84c-.22-.29-.42-.6-.64-.89-.21-.3-.38-.63-.56-.94-.1-.16-.18-.32-.25-.49l-.23-.5c-.17-.33-.29-.67-.41-1.02l-.19-.52-.15-.53c-.1-.36-.2-.71-.26-1.08-.07-.36-.15-.72-.17-1.09-.03-.37-.09-.73-.09-1.1-.03-.74,0-1.48.09-2.21.06-.36.08-.74.18-1.09.09-.36.15-.72.28-1.07.11-.35.22-.71.37-1.04l.22-.51c.07-.17.17-.33.25-.49l.26-.49.3-.47c.1-.15.2-.31.31-.46l.35-.43c.46-.58,1-1.09,1.58-1.56.28-.24.61-.43.91-.64.32-.19.65-.35.98-.53ZM11.43,46.69c-.33.18-.66.34-.98.53-.3.21-.63.4-.91.64-.58.46-1.13.97-1.59,1.55l-.35.43c-.11.15-.21.31-.32.46l-.31.46-.27.49c-.09.16-.19.32-.26.49l-.23.51c-.16.34-.27.69-.39,1.05-.13.35-.21.71-.3,1.08-.1.36-.14.73-.21,1.1-.11.74-.16,1.49-.15,2.23-.01.37.04.75.06,1.12.02.38.09.74.15,1.12.05.38.14.74.23,1.1l.14.55.18.53c.12.36.23.72.4,1.06l.23.52c.07.17.15.34.25.51.18.33.35.67.55.98.21.31.41.63.63.94l.71.88.78.82c.27.26.57.5.85.75.29.24.61.45.92.68.31.21.65.39.97.59.33.18.69.33,1.03.49.35.15.72.25,1.08.38.37.11.74.18,1.11.27.38.06.76.1,1.14.15.38.02.77.01,1.15.02l1.15-.12,1.13-.25h0s.02,0,.02,0c1.84-.67,3.68-1.35,5.52-2.03l-.35-.07-.02-.02c-.36.46.47-.66.4-.53.01,0,.03.01.04.02,0,0,0,0,0,0h0s-.03-.03-.03-.03l-.08-.06-.15-.13-.3-.27c-.2-.18-.39-.38-.58-.57-.38-.39-.75-.79-1.1-1.21-.7-.84-1.35-1.73-1.93-2.65-1.18-1.85-2.11-3.85-2.78-5.95-.15-.53-.3-1.06-.43-1.59l-.15-.81-.08-.4-.05-.41-.1-.82-.04-.82-.02-.41v-.41c.02-.27.02-.55.04-.82l.08-.82c.03-.27.08-.54.12-.82.04-.27.11-.54.16-.81.05-.27.13-.54.2-.8.15-.53.33-1.05.54-1.57.22-.51.46-1.01.75-1.47l.06-.09-.1.03-4.1,1.14-4.11,1.13Z"/>
          </g>
          <path class="cls-10" d="M11.53,68.61c1.54.69,3.29,1.49,5.01,1.4,2.35-.13,4.6-.65,6.79-1.51.13-.05.11-.23.02-.3-.28-.22-.51-.45-.75-.72-.06-.06-.14-.07-.21-.04-1.26.46-2.55.72-3.84,1.07-.53.14-1.07.3-1.62.36-.19.02-1.82-.06-1.2-.55.58-.47,1.36-.73,2.06-.96,1.17-.39,3.75-1.15,3.7-1.24-.32-.52-.62-1.1-1.07-1.52.04-.14-.11-.24-.28-.18-2.38.81-5.36,2.28-6.53,2.02-3.38-.75,5.47-3.92,5.4-4.04-.42-.73-.81-1.48-1.26-2.2h0c.16-.16-5.86,2.87-6.67,3.03-1.14.22-1.92-.47-.92-1.52.57-.6,2.41-1.46,3.12-1.91,1.17-.73,3.97-1.73,3.93-1.84-.33-.84-.63-1.69-.78-2.58-.02-.12-3.03,1.24-4.39,1.84-.71.31-2.09,1.12-2.89.8-.8-.32-.29-1.32,1.23-1.99.67-.3,6.06-2.62,6.06-2.72-.07-1.21.18-2.37.32-3.56.02-.14-5,1.95-5.98,2.1-.28.04-.63.11-.9.07-.28-.31-.26-.57.07-.79.33-.34.7-.62,1.12-.86.68-.39,4.84-1.84,6.03-2.55.5-.3.77-.79.95-1.32.29-.83.84-1.3,1.4-1.88l.24-.06s-3.51,5.14-1.24,12.77c2.17,7.28,6.78,11.06,7,11.2l-4.18,1.54-1.34.49c-3.6,1.03-7.4-.14-10.23-2.78.63.36,1.27.67,1.86.94Z"/>
          <g>
            <path class="cls-5" d="M18.41,57.23c-2.27-7.63,1.24-12.77,1.24-12.77.95-4.52,14.04-5.73,30.71-17.7,8.5-6.1,13.08-12.31,15.13-15.63-2.44,6.31-1.79,18.37,2.19,31.37,3.89,12.71,9.9,22.89,15.35,26.96-3.13-1.44-10.85-4.34-22.33-4.39-19.13-.09-30.29,5.62-34.48,3.87,0,0-.01-.01-.02-.02-1.35-1.01-5.52-4.06-7.79-11.69Z"/>
            <path class="cls-13" d="M18.45,57.22l-.21-.8c-.06-.27-.15-.53-.19-.8l-.14-.81c-.06-.27-.08-.54-.11-.81l-.08-.82-.02-.82c-.02-.27,0-.55,0-.82.02-.27.01-.55.05-.82l.09-.82c.04-.27.09-.54.14-.81.04-.27.12-.54.18-.8.06-.27.14-.53.22-.79.07-.27.17-.52.26-.78.09-.26.2-.51.3-.76.11-.25.22-.5.35-.74.12-.25.26-.48.41-.71h0s0-.01,0-.01c.12-.58.46-1.1.88-1.52.42-.42.91-.77,1.41-1.1,1.02-.63,2.1-1.15,3.19-1.65,2.19-.99,4.42-1.9,6.62-2.87,2.2-.97,4.38-1.99,6.53-3.08,1.07-.54,2.13-1.12,3.19-1.7,1.05-.59,2.09-1.19,3.12-1.82,2.06-1.25,4.07-2.57,6.03-3.98l2.88-2.18c.92-.78,1.85-1.55,2.75-2.35l1.31-1.24c.44-.42.88-.82,1.29-1.27.83-.87,1.68-1.73,2.45-2.66.81-.9,1.54-1.86,2.28-2.81l1.05-1.48c.34-.5.66-1.01,1-1.52l-.38-.19c-.46,1.26-.8,2.55-1.01,3.87-.12.66-.18,1.32-.27,1.98-.04.66-.11,1.32-.14,1.99-.12,2.65,0,5.31.27,7.94.08.66.14,1.32.23,1.97l.28,1.97.34,1.96c.11.65.26,1.3.39,1.95.12.65.28,1.29.43,1.94.15.64.3,1.29.47,1.93.17.64.33,1.28.51,1.92l.55,1.91c.4,1.27.78,2.52,1.23,3.77.22.63.43,1.25.67,1.87.24.62.46,1.24.71,1.86l.75,1.84.8,1.82c.56,1.2,1.13,2.4,1.74,3.57.61,1.18,1.25,2.34,1.94,3.47.68,1.14,1.41,2.25,2.19,3.33.38.54.8,1.06,1.2,1.59.43.51.85,1.03,1.3,1.52.9.99,1.88,1.9,2.95,2.73l.35-.6c-.56-.24-1.11-.49-1.68-.71-.57-.21-1.13-.44-1.7-.64l-1.73-.56c-.58-.19-1.17-.33-1.75-.49-1.16-.34-2.36-.57-3.54-.83-.3-.06-.59-.14-.89-.18l-.9-.14-1.79-.28c-.6-.11-1.2-.14-1.8-.21l-1.81-.17c-.3-.02-.6-.07-.9-.08l-.91-.03-1.81-.06c-1.21-.05-2.42-.03-3.62,0-1.21.03-2.42.08-3.62.16-4.82.29-9.61,1-14.33,1.98-2.36.48-4.71,1.03-7.06,1.53-1.18.24-2.35.49-3.54.63-.59.08-1.19.11-1.78.1-.59,0-1.19-.08-1.73-.3h.02c-.48-.35-.95-.7-1.4-1.1-.45-.39-.88-.8-1.28-1.24-.21-.22-.41-.44-.6-.66-.2-.22-.39-.45-.57-.69-.19-.23-.36-.47-.53-.72-.17-.24-.35-.48-.5-.74-.16-.25-.33-.5-.47-.76l-.44-.78c-.14-.26-.27-.53-.41-.8-.14-.26-.26-.54-.38-.81-.12-.27-.25-.54-.36-.82l-.32-.83c-.22-.56-.38-1.13-.58-1.69ZM18.38,57.24c.19.57.35,1.15.56,1.7l.31.84c.11.28.24.55.35.83.12.28.24.55.38.82.13.27.26.54.4.8l.44.78c.15.26.31.51.47.77.15.26.33.5.5.75.17.25.35.49.53.72.18.24.37.47.56.7.19.23.39.45.6.67.4.44.84.86,1.28,1.26.23.2.46.39.69.58l.71.55h0s.01.01.01.01c.57.24,1.19.33,1.8.35.61.02,1.22,0,1.82-.08,1.21-.12,2.39-.35,3.58-.57,2.37-.46,4.72-.98,7.08-1.42,2.36-.45,4.74-.83,7.12-1.12,1.19-.15,2.38-.28,3.58-.39,1.2-.11,2.39-.2,3.59-.26,1.2-.07,2.4-.11,3.59-.12,1.2-.02,2.41-.02,3.6.04l1.8.07.9.03c.3,0,.6.05.89.08l1.79.17c.59.06,1.19.1,1.78.2l1.77.28.89.14c.3.04.59.12.88.18,1.17.25,2.35.47,3.49.81.57.16,1.16.29,1.73.48l1.7.55c.56.2,1.12.42,1.68.63.56.21,1.1.47,1.65.7l2.44,1.02-2.08-1.62c-1.02-.79-1.98-1.68-2.85-2.64-.45-.48-.85-.99-1.28-1.48-.4-.52-.81-1.03-1.19-1.56-.76-1.06-1.49-2.15-2.17-3.27-.69-1.12-1.33-2.26-1.94-3.43-.62-1.16-1.19-2.35-1.74-3.54l-.8-1.8-.76-1.82c-.25-.61-.47-1.23-.71-1.84-.24-.61-.46-1.23-.67-1.85-.45-1.23-.84-2.5-1.24-3.75l-.56-1.89c-.18-.63-.34-1.27-.51-1.91-.18-.63-.33-1.28-.47-1.91-.15-.64-.31-1.28-.43-1.93-.13-.64-.28-1.29-.39-1.93l-.34-1.94-.29-1.95c-.09-.65-.16-1.3-.24-1.96-.28-2.61-.41-5.25-.31-7.87.02-.66.09-1.31.13-1.96.08-.65.14-1.3.25-1.95.21-1.29.53-2.56.97-3.78l.62-1.74-1.01,1.54c-.33.5-.64,1.01-.98,1.5l-1.04,1.46c-.74.95-1.45,1.9-2.25,2.8-.76.93-1.6,1.78-2.42,2.65-.4.45-.85.85-1.28,1.26l-1.3,1.24c-.9.79-1.82,1.56-2.72,2.34l-2.86,2.2c-.96.71-1.95,1.39-2.94,2.06-1,.67-2.01,1.32-3.03,1.95-1.02.63-2.06,1.24-3.1,1.84-1.05.59-2.1,1.16-3.17,1.72-2.13,1.11-4.3,2.15-6.49,3.13-2.19.99-4.41,1.91-6.6,2.92-1.09.51-2.18,1.04-3.2,1.68-.5.33-.99.69-1.42,1.12-.42.43-.77.96-.89,1.56h0c-.15.22-.29.46-.41.71-.13.24-.24.5-.35.75-.1.26-.22.51-.3.77-.09.26-.19.52-.26.79-.08.26-.16.53-.22.8-.06.27-.14.53-.18.81-.04.27-.1.54-.14.82l-.09.82c-.03.27-.03.55-.04.83-.01.27-.03.55,0,.83l.02.83.08.82c.03.27.05.55.11.82l.14.81c.04.27.13.54.19.8l.21.8Z"/>
          </g>
          <path class="cls-12" d="M12.67,46.22c.62-.19,1.26-.31,1.89-.37l-3.12.85c.4-.18.81-.35,1.24-.48Z"/>
          <g>
            <path class="cls-5" d="M63.21,44.59c-4.34-14.2-4.71-28.05-2.05-34.94,1.03-1.67,1.48-2.67,1.48-2.67,0,0-.44,1-1.48,2.67.98-2.54,3.96-4.8,5.84-5.38,7-2.14,17.49,11.87,23.43,31.3,5.94,19.43,5.09,36.91-1.91,39.05-2,.61-6.17.28-8.55-1.49,1.14.52,1.72.87,1.72.87,0,0-.59-.35-1.72-.87-5.95-4.44-12.52-14.67-16.76-28.55Z"/>
            <path class="cls-13" d="M63.24,44.58c-.85-2.83-1.57-5.7-2.13-8.61-.15-.72-.27-1.45-.39-2.18-.12-.73-.22-1.46-.33-2.19-.2-1.46-.36-2.93-.47-4.4-.23-2.94-.29-5.9-.09-8.84.04-.73.11-1.47.19-2.2.08-.73.18-1.46.31-2.18.25-1.44.61-2.87,1.13-4.22l-.03.05.4-.66c.13-.22.26-.44.38-.67l.37-.68c.11-.24.23-.46.35-.7l-.56-.25c-.1.22-.22.45-.33.67l-.36.67c-.12.22-.25.44-.38.66l-.38.65.54.27c.18-.46.42-.9.7-1.32.29-.41.6-.81.95-1.18.7-.74,1.49-1.39,2.35-1.94.43-.27.88-.51,1.34-.69.12-.04.24-.09.34-.12.12-.03.26-.08.37-.1.23-.05.48-.09.73-.1.99-.06,2,.18,2.93.59,1.87.82,3.5,2.17,4.95,3.63,1.46,1.47,2.75,3.11,3.94,4.82,1.19,1.71,2.28,3.49,3.28,5.31.99,1.83,1.91,3.7,2.75,5.6,1.7,3.8,3.09,7.74,4.27,11.73,1.17,3.99,2.11,8.06,2.76,12.16.32,2.05.57,4.12.74,6.19.16,2.07.23,4.14.17,6.21-.06,2.07-.25,4.14-.68,6.15-.21,1.01-.49,1.99-.85,2.95-.37.95-.82,1.86-1.42,2.66-.6.79-1.36,1.45-2.26,1.82-.89.37-1.91.43-2.93.41-1.01-.03-2.03-.18-3-.44-.97-.27-1.91-.67-2.71-1.25l-.36.61c.29.14.58.27.86.41l.42.21c.14.07.28.15.41.22l.36-.61c-.15-.09-.29-.16-.44-.24l-.44-.22c-.29-.14-.59-.28-.88-.42l.06.04c-1.11-.82-2.14-1.74-3.1-2.74-.48-.49-.95-1.01-1.4-1.54-.45-.53-.89-1.07-1.31-1.62-.43-.55-.85-1.1-1.25-1.67-.41-.57-.8-1.14-1.18-1.73-.38-.58-.75-1.17-1.12-1.77-.36-.6-.72-1.2-1.06-1.81-.68-1.22-1.33-2.46-1.94-3.71-.3-.63-.6-1.26-.89-1.9-.29-.64-.57-1.27-.84-1.92-1.08-2.58-2.02-5.22-2.85-7.89ZM63.17,44.6c.81,2.68,1.73,5.33,2.78,7.92l.8,1.94c.28.65.56,1.29.85,1.92.58,1.27,1.2,2.53,1.86,3.77.33.62.67,1.24,1.01,1.84.35.61.71,1.21,1.08,1.81.37.6.75,1.19,1.14,1.77.39.58.8,1.16,1.22,1.72.42.56.86,1.12,1.31,1.66.45.54.91,1.07,1.4,1.58.96,1.03,2.01,2,3.14,2.86l.02.02.04.02c.29.14.57.27.86.42l.42.22c.14.07.28.15.41.22l.36-.61c-.15-.09-.29-.16-.44-.24l-.44-.22c-.29-.15-.59-.28-.88-.42l-.36.61c.89.66,1.91,1.08,2.94,1.37,1.04.29,2.1.44,3.17.48.54.02,1.07,0,1.62-.06.54-.06,1.09-.18,1.61-.4,1.04-.43,1.91-1.18,2.56-2.05.66-.87,1.14-1.84,1.53-2.84.39-1,.66-2.03.87-3.06.43-2.07.6-4.18.65-6.28.05-2.1-.04-4.2-.22-6.29-.17-2.09-.45-4.17-.81-6.23-.71-4.12-1.71-8.19-2.95-12.18-1.23-4-2.72-7.91-4.43-11.71-.86-1.9-1.79-3.78-2.79-5.61-1-1.83-2.07-3.63-3.26-5.35-1.18-1.72-2.47-3.38-3.91-4.9-1.45-1.51-3.07-2.91-5.01-3.81-.97-.44-2.04-.73-3.14-.68-1.12.03-2.14.48-3.05,1.03-.92.55-1.75,1.23-2.48,2.01-.37.39-.7.81-1.01,1.25-.3.45-.56.93-.77,1.44l.54.27.39-.66c.13-.22.27-.44.39-.67l.37-.68c.12-.23.24-.45.35-.7l-.56-.25c-.1.22-.22.44-.33.67l-.36.66c-.12.22-.25.44-.38.65l-.39.65-.02.03v.02c-.27.71-.49,1.43-.68,2.15-.17.73-.33,1.46-.45,2.2-.12.74-.22,1.48-.29,2.22-.07.74-.13,1.48-.16,2.23-.04.74-.05,1.49-.05,2.23,0,.74.01,1.49.04,2.23.03.74.07,1.48.12,2.22.05.74.11,1.48.19,2.22.15,1.48.34,2.94.57,4.41.12.73.24,1.46.38,2.19.14.73.28,1.45.43,2.18.59,2.9,1.33,5.77,2.2,8.6Z"/>
          </g>
          <g>
            <path class="cls-5" d="M67.68,42.5c-3.98-13.01-4.63-25.06-2.19-31.37.95-1.53,1.35-2.45,1.35-2.45,0,0-.41.92-1.35,2.45.9-2.32,2.22-3.87,3.94-4.4,6.41-1.96,16.02,10.88,21.46,28.67,5.44,17.8,4.66,33.81-1.75,35.77-1.83.56-3.92-.09-6.11-1.72,1.04.48,1.58.8,1.58.8,0,0-.54-.32-1.58-.8-5.45-4.07-11.47-14.25-15.35-26.96Z"/>
            <path class="cls-13" d="M67.71,42.49l-.55-1.92c-.19-.64-.34-1.28-.51-1.93l-.25-.97-.22-.97c-.14-.65-.31-1.29-.43-1.94-.13-.65-.26-1.3-.38-1.96l-.32-1.97-.27-1.97c-.09-.66-.14-1.32-.21-1.98-.08-.66-.1-1.32-.15-1.98-.06-.66-.06-1.32-.09-1.98-.03-.66-.02-1.32-.02-1.98-.01-.66.05-1.32.06-1.98.02-.66.1-1.32.14-1.97.08-.65.15-1.31.27-1.96.12-.64.23-1.29.42-1.92.14-.64.38-1.25.59-1.86l-.02.05.7-1.23c.12-.21.23-.41.35-.62l.32-.65-.56-.25-.3.61c-.11.2-.23.4-.34.6l-.69,1.2.54.27c.33-.84.74-1.65,1.26-2.37.53-.71,1.18-1.33,1.98-1.69,1.63-.77,3.51-.3,5.08.58.8.43,1.53.98,2.23,1.57.71.58,1.36,1.23,1.99,1.9,1.25,1.35,2.37,2.82,3.41,4.34,2.07,3.05,3.79,6.34,5.27,9.72,1.5,3.37,2.72,6.87,3.77,10.4.53,1.77.99,3.55,1.41,5.35.42,1.8.78,3.6,1.07,5.42.3,1.82.52,3.65.69,5.48.16,1.83.25,3.67.23,5.51-.02,1.83-.14,3.67-.45,5.47-.31,1.79-.78,3.57-1.63,5.14-.43.78-.96,1.49-1.64,2.03-.18.12-.34.27-.53.36-.19.11-.37.21-.57.28l-.3.12-.31.07-.34.07c-.11.02-.21.01-.31.02-.82.06-1.71-.14-2.52-.46-.82-.35-1.58-.82-2.31-1.35l-.36.61.78.38c.27.13.52.26.76.4l.36-.61c-.27-.15-.54-.29-.8-.42l-.81-.39.06.04c-.5-.4-1.02-.78-1.48-1.24-.23-.22-.48-.43-.7-.67l-.67-.7c-.45-.47-.85-.97-1.28-1.46-.4-.51-.81-1.02-1.19-1.54-.38-.53-.78-1.04-1.13-1.59-.36-.55-.74-1.08-1.07-1.64-.34-.56-.7-1.1-1.01-1.67-.32-.57-.66-1.13-.96-1.71-.3-.58-.62-1.15-.91-1.74l-.86-1.76-.82-1.78c-.27-.6-.52-1.2-.77-1.81-.26-.6-.48-1.22-.72-1.83l-.35-.92-.33-.93c-.21-.62-.45-1.23-.65-1.85l-.61-1.87ZM67.65,42.51l.59,1.87c.19.63.42,1.24.63,1.86l.32.93.34.92c.23.61.45,1.23.7,1.84l.74,1.82.77,1.81.82,1.79c.28.59.58,1.18.87,1.77.29.59.61,1.16.92,1.74.3.58.65,1.14.97,1.71.32.57.69,1.12,1.03,1.68.34.56.73,1.09,1.1,1.64.38.54.79,1.06,1.18,1.59.43.5.83,1.03,1.28,1.51l.68.73c.22.25.48.46.71.7.47.47,1,.88,1.51,1.31l.02.02.05.02.78.39c.26.13.52.26.76.4l.36-.61-.4-.22-.4-.2-.8-.4-.36.61c.77.55,1.58,1.06,2.46,1.44.9.36,1.85.59,2.88.52.13,0,.26-.01.38-.03l.34-.07.37-.08.35-.13c.24-.08.45-.2.67-.32.23-.11.41-.27.62-.42.78-.61,1.37-1.41,1.84-2.24.93-1.68,1.4-3.54,1.7-5.38.31-1.85.41-3.72.42-5.58,0-3.72-.39-7.43-1.04-11.08-.32-1.83-.72-3.64-1.16-5.44-.45-1.8-.94-3.59-1.49-5.35-.56-1.77-1.16-3.52-1.81-5.25-.66-1.73-1.37-3.44-2.12-5.13-.76-1.69-1.57-3.35-2.45-4.98-.88-1.63-1.81-3.23-2.84-4.77-1.03-1.54-2.15-3.02-3.38-4.42-.63-.69-1.27-1.36-1.98-1.97-.7-.61-1.45-1.19-2.27-1.66-.81-.47-1.7-.85-2.65-1.01-.12-.02-.24-.05-.36-.06l-.36-.02c-.24-.03-.49,0-.74.02-.26,0-.47.08-.7.13l-.08.02h-.06s-.04.03-.04.03l-.17.07-.34.13c-.9.39-1.65,1.06-2.22,1.83-.58.77-1,1.62-1.36,2.5l.54.26.71-1.22c.12-.21.24-.41.35-.61l.32-.64-.56-.25-.3.61c-.11.2-.23.4-.35.6l-.69,1.2-.02.04v.02c-.21.64-.45,1.28-.59,1.94-.18.65-.28,1.32-.4,1.98-.11.66-.17,1.33-.25,2-.04.67-.11,1.33-.12,2.01,0,.67-.04,1.34-.01,2,.02.67.02,1.34.07,2,.04.67.07,1.33.14,2,.07.66.11,1.33.21,1.99.09.66.16,1.32.26,1.98l.32,1.97.37,1.96.41,1.95c.13.65.3,1.3.45,1.94l.23.97.26.96c.18.64.33,1.29.53,1.92l.57,1.91Z"/>
          </g>
          <path class="cls-16" d="M6,52.21c.59-1.41,1.54-2.68,2.65-3.72,2.69-2.5,6.84-3.17,10.28-3.94.05-.01.08.06.03.08-3.16,1.43-6.73,1.77-9.56,3.92-1.18.9-2.14,2.04-2.85,3.34-.95,1.74-1.09,3.66-1.18,5.61,0,.06-.09.06-.1,0-.03-1.86-.01-3.54.72-5.28Z"/>
          <path class="cls-16" d="M10.39,50.43c1.97-1.57,4.55-2.23,6.96-2.76.07-.01.11.09.04.12-2.34.88-4.69,1.64-6.97,2.69-.03.02-.06-.03-.03-.05Z"/>
          <path class="cls-16" d="M10.2,55.42c1.86-1.06,4.03-1.33,6-2.11.07-.03.12.07.05.1-1.27.75-2.68,1.08-4.05,1.6-.76.29-4.31,1.65-3.14,2.92.08.09-.03.21-.13.15-1.41-.82.51-2.23,1.27-2.66Z"/>
          <path class="cls-16" d="M16.99,57.81c.06-.05.13.03.08.09-.93.99-2.42,1.44-3.6,2.05-.89.46-4.48,1.79-3.99,3.21.03.07-.08.11-.13.06-1.78-1.98,6.65-4.69,7.64-5.41Z"/>
          <path class="cls-16" d="M14.02,64.28c.7-.35,1.45-.58,2.17-.89.84-.37,1.65-.87,2.57-1.03.06,0,.08.07.03.1-.97.6-2.05,1.18-3.1,1.62-.51.21-3.75,1.27-2.58,2.34.1.09-.04.22-.14.16-1.35-.75.3-1.94,1.04-2.3Z"/>
          <path class="cls-16" d="M16.36,67.57c1.59-.53,3.25-.82,4.82-1.43.06-.02.1.05.04.09-1.08.64-2.21,1.03-3.41,1.38-.4.12-2.5.44-1.84,1.08.09.08-.04.22-.14.16-.8-.54-.14-1.05.52-1.28Z"/>
          <g>
            <path class="cls-5" d="M65.2,31.86l7.5-1.37,6.06,19.51-6.98,2.81s-4.79-8.71-6.57-20.95Z"/>
            <path class="cls-13" d="M65.2,31.86l7.51-1.29-.1-.06,2.97,9.77,3.01,9.76.1-.21-6.98,2.82.2.07c-.22-.4-.41-.81-.62-1.22-.21-.41-.38-.83-.58-1.25-.18-.42-.39-.83-.56-1.26l-.52-1.27c-.17-.42-.36-.84-.51-1.28l-.47-1.29-.47-1.29-.41-1.31-.41-1.31c-.13-.44-.29-.87-.39-1.32l-.68-2.67c-.1-.45-.25-.89-.32-1.34l-.26-1.35-.52-2.71ZM65.2,31.86l.46,2.72.23,1.36c.06.46.19.9.29,1.35l.63,2.69c.09.45.25.89.37,1.33l.39,1.32.39,1.32.46,1.3.46,1.3c.14.44.32.86.49,1.29l.52,1.28c.17.43.37.84.55,1.27.19.42.37.84.58,1.26.2.41.4.83.62,1.24l.07.12.13-.05,6.99-2.8.15-.06-.05-.15-3.05-9.75-3.09-9.74-.02-.08-.08.02-7.48,1.46Z"/>
          </g>
          <g>
            <path class="cls-5" d="M73.49,40.94c1.67,5.39,4.03,9.44,5.27,9.06,1.23-.38.88-5.06-.79-10.45-1.67-5.39-4.03-9.44-5.27-9.06-1.23.38-.88,5.06.79,10.45Z"/>
            <path class="cls-13" d="M73.49,40.94s.05.16.15.46c.1.3.24.75.44,1.31.4,1.12.99,2.71,1.94,4.52.24.45.5.91.81,1.37.31.45.65.92,1.14,1.28.12.09.26.16.42.2.15.05.35.04.49-.04.32-.18.44-.5.54-.8.17-.61.19-1.25.19-1.89-.03-1.28-.21-2.6-.48-3.91-.26-1.32-.61-2.64-1-3.94-.41-1.3-.88-2.58-1.41-3.81-.53-1.23-1.12-2.42-1.82-3.5-.36-.53-.74-1.05-1.23-1.45-.24-.19-.54-.39-.89-.35-.05.01-.08.01-.13.03l-.1.05c-.08.05-.15.1-.2.17-.1.12-.18.26-.23.41-.2.57-.22,1.15-.22,1.7,0,.55.05,1.08.1,1.59.24,2.03.65,3.68.96,4.82.15.57.29,1.02.38,1.32.09.3.14.47.14.47ZM73.49,40.94s-.05-.16-.14-.47c-.09-.31-.22-.75-.37-1.33-.15-.58-.32-1.28-.48-2.09-.16-.81-.33-1.73-.41-2.74-.04-.51-.08-1.03-.07-1.58.01-.54.05-1.12.25-1.64.05-.13.12-.25.21-.35.05-.05.09-.09.14-.12l.1-.04.09-.02c.26-.02.52.14.74.33.45.39.81.9,1.15,1.43.67,1.07,1.22,2.26,1.74,3.48.51,1.23.96,2.5,1.36,3.8.41,1.29.76,2.6,1.03,3.9.27,1.3.48,2.6.54,3.86.02.63.02,1.26-.13,1.83-.07.28-.21.57-.42.69-.24.14-.52.02-.75-.13-.46-.32-.82-.78-1.14-1.21-.32-.44-.59-.9-.84-1.34-.5-.88-.88-1.74-1.21-2.49-.32-.76-.58-1.43-.78-1.99-.2-.56-.35-1-.45-1.3-.1-.3-.15-.46-.15-.46Z"/>
          </g>
          <g>
            <g>
              <path class="cls-5" d="M25.41,68.43h0s0,0,0,0Z"/>
              <path class="cls-13" d="M25.41,68.43l.04.09-.1-.02s-.03,0-.06,0c-.02-.01-.05-.09,0-.16.04-.06.09-.06.11-.07.02,0,.03,0,.04,0,.03.01.05.07-.02.16ZM25.41,68.43c-.06.1-.03.16,0,.18,0,0,.02,0,.04,0,.02,0,.06-.01.1-.07.04-.07.02-.15,0-.17-.02-.02-.04-.02-.06-.01l-.1-.02.03.09Z"/>
            </g>
            <path class="cls-8" d="M6.32,52.06c-.19,1.08-.25,2.21-.16,3.36.25,3.25,1.93,8,5.75,8.4,1.58.17,3.76-.23,4.65-1.73.88-1.46.75-3.09.41-4.71-.49-2.36-.98-4.77-.67-7.19.3-2.24,1.69-3.64,2.62-5.53l.72-.19c.22-1.05,1.11-1.93,2.54-2.8-1.13,1.04-2.07,2.26-2.72,3.76-1.39,3.25-.8,7.31,1.08,10.25,2.3,3.58,6.4,3.15,10,2.12,5.1-1.46,10.39-2.29,15.4-4.07,3.76-1.33,7.83-3,10.28-6.33,2.76-3.77,2.3-8.66,2.06-13.07-.28-5.34.3-10.69,1.37-15.91.05-.26.01-.49-.08-.68.22-3.21.75-5.97,1.56-8.07.27-.69.68-1.36,1.18-1.98-1.15,1.91-1.76,4.23-2.11,6.55-1.97,12.97,3.47,32.94,8.19,42.04,1.99,3.84,2.34-.67.67-4.69-3.57-8.6-7.91-19.24-7.19-33.31.21-4.04.77-11.05,5.57-12.44,2.06-.6,4.17-.35,6.18.33,1.89,1.41,3.84,3.48,5.76,6.11.71.86,1.42,1.81,2.13,2.84-1.92-2.51-4.39-5.24-7.57-5.87-1.13-.22-2.4-.29-3.39.41-.93.66-1.46,1.74-1.75,2.82-.77,2.83-.56,5.89-.35,8.78.09,1.2.16,2.4.21,3.6.04.85.07,1.71.2,2.55.07.43.13.97.41,1.33-.21.04-.14.37.08.34.58-.07,1.09-.4,1.71-.39.89.02,1.55.4,2.12,1.07.36.43.68.88.97,1.36-.52-.42-1.06-.51-1.45.26-.48.93-.26,2.16-.01,3.13.34,1.35.42,3.52.85,4.84.96,2.92,2.03,5.25,3.65,7.91.36.59.93,1.41,1.73,1.25.25-.05.42-.22.54-.44.03,1.12-.19,2.17-1.33,2.86-1.07.66-2.26,1.09-3.42,1.58-.07.03-.11.12-.09.19.4,1.74.9,3.42,1.63,5.04,1.38,3.09,3.21,6.2,5.68,8.55,2.02,1.92,4.82,3.54,7.66,2.47,2.62-.99,3.96-3.45,4.62-6.02-.49,6.46-2.43,10.91-5.74,11.93-2,.61-6.17.28-8.55-1.49-2.09-1.56-4.25-3.83-6.36-6.71-3.53-.76-7.85-1.33-12.91-1.36-19.13-.09-30.29,5.62-34.48,3.87,0,0-.01-.01-.02-.02-.58-.44-.88-.55-.79-.49l-4.18,1.54-1.34.49c-5.75,1.65-12-2.32-14.03-8.93-1.02-3.33-.77-6.7.45-9.47Z"/>
            <path class="cls-3" d="M60.16,14.76c-.08-.02-.16-.03-.24-.03.28-1.94.7-3.66,1.24-5.07.27-.69.68-1.36,1.18-1.98-1.15,1.91-1.76,4.23-2.11,6.55-.03.18-.05.36-.07.54Z"/>
            <path class="cls-3" d="M59.29,21.58c-.06-.02-.13-.03-.19-.04.06-.37.12-.74.18-1.1.03.22.05.45.08.67-.05.12-.08.25-.08.41,0,.02,0,.04,0,.06Z"/>
            <path class="cls-2" d="M5.74,61.05c.89,2.08,2.17,3.98,3.9,5.46,1.6,1.36,4.06,3.13,6.3,2.72,1.51-.27,4.68-1.16,5.22-2.89.55-1.74-1.14-3.82-1.75-5.36-1.53-3.84-2.4-8.26-1.42-12.26-.71,5.81,1.23,12.62,5.47,16.59,1.18,1.1,2.56,2.17,4.21,2.4,2.05.29,3.98-.34,5.86-1.11,2.6-1.07,2.21-4.8,6.52-6.5,2.42-.95,6.12-.98,8.07.45,2.01,1.47-.74,2.71,9.4,1.01,1.76-.29,3.82-.2,5.49-.81,3.41-1.25,1.75-6.62.95-9.04-1.48-4.5-2.84-8.93-3.45-13.66-.3-2.31-.34-4.63-.34-6.96.49,2.79,1.19,5.55,2.08,8.24.23,1.04.47,2.08.73,3.11,2.02,7.97,5.06,15.51,10.06,22.13,2.4,3.18,4.96,6.44,8.42,8.38,1.82,1.03,3.88,1.7,5.86,1.9-2.18.23-5.39-.24-7.37-1.72-2.09-1.56-4.25-3.83-6.36-6.71-3.53-.76-7.85-1.33-12.91-1.36-19.13-.09-30.29,5.62-34.48,3.87,0,0-.01-.01-.02-.02-.58-.44-.88-.55-.79-.49l-4.18,1.54-1.34.49c-5.75,1.65-12-2.32-14.03-8.93-.05-.16-.09-.33-.14-.49,0,0,0,0,0,.01Z"/>
            <path class="cls-3" d="M38.24,63.15c1.75-1.45,4.2-2.67,6.46-2.52,1.47.09,3,.93,4.22,1.8.59.43,1.18.97,1.83,1.3,1.69.87,3.56.41,5.38.37,2.41-.04,4.82.05,7.23.27,3,.27,6.2.37,8.78,1.76-3.24-.61-7.06-1.04-11.44-1.07-10.34-.05-18.35,1.6-24.19,2.84-.06-1.86.4-3.66,1.73-4.76Z"/>
          </g>
          <g class="cls-9">
            <path class="cls-1" d="M25.41,68.43h0s0,0,0,0Z"/>
            <path class="cls-4" d="M70.22,31.22c-.55.19-1.1.32-1.66.52-1.06.39-1.63.86-1.46,2.04.58,4.03,2.17,8.08,3.89,11.75.57,1.21.83,2.64,1.94,3.5.7.54,1.87-.06,2.16-.78.58-1.44-.26-2.82-.6-4.21-.13-.55-.27-1.1-.4-1.65.54,1.49,1.09,3.01,1.78,4.43.54,1.12,1.16,2.09,2.31,2.65.45.22.8.27,1.08.22-.05.01-.11.03-.16.07-2.23,1.41-4.83,2.15-7.38,2.77-.29-.92-.86-1.79-1.3-2.6-.9-1.68-1.57-3.37-2.15-5.19-1.24-3.9-2.96-8.42-2.7-12.55.01-.19-.06-.32-.18-.4,1.6-.3,3.21-.45,4.84-.56Z"/>
            <path class="cls-3" d="M60.16,14.76c-.08-.02-.16-.03-.24-.03.28-1.94.7-3.66,1.24-5.07.27-.69.68-1.36,1.18-1.98-1.15,1.91-1.76,4.23-2.11,6.55-.03.18-.05.36-.07.54Z"/>
            <path class="cls-3" d="M59.29,21.58c-.06-.02-.13-.03-.19-.04.06-.37.12-.74.18-1.1.03.22.05.45.08.67-.05.12-.08.25-.08.41,0,.02,0,.04,0,.06Z"/>
          </g>
          <path class="cls-11" d="M22.58,44.56c1.49-.17,2.83-.86,4.2-1.43,1.42-.59,2.89-1.06,4.33-1.58,3.05-1.11,6.08-2.29,9.02-3.66,2.96-1.38,5.8-2.96,8.6-4.64,2.64-1.58,4.98-4.16,6.8-6.63.42-.57,1.27-.14,1.1.54-1.72,6.52-7.69,11.46-13.47,14.46-3.03,1.57-6.21,2.86-9.39,4.1-1.58.61-3.17,1.18-4.75,1.79-1.76.67-3.51,1.61-5.4,1.81-3.07.33-4.14-4.38-1.03-4.74Z"/>
          <path class="cls-11" d="M60.18,12.22c.68-3.18,2.7-6.07,5.7-7.43,2.76-1.26,6.01-.01,8.4,1.53.08.05.02.19-.08.15-2.89-1.21-5.73-1.85-8.62-.19-3.08,1.78-4.37,5.39-4.78,8.72-.88,7.15.39,14.09,1.77,21.08.02.12-.15.15-.18.04-1-4.44-1.54-8.86-2.2-13.35-.52-3.53-.78-7.03-.03-10.55Z"/>
          <path class="cls-11" d="M74.03,32.86c.07-.02.15,0,.2.07.08.1.15.2.22.3.25.27.47.6.67.97,1.02,1.55,1.86,3.32,2.01,5.28.11.51.15,1,0,1.33-.02.21-.05.43-.09.65-.09.5-.63.64-.93.41-2.11-1.63-2.76-5.24-2.98-8.12-.05-.62.42-1.15.89-.88Z"/>
          <path class="cls-11" d="M77.57,42.46c.21-.08.49.01.54.27.05.24.11.52.22.75.26.55-.35,1.11-.87.78-.43-.28-.63-.89-.58-1.38.03-.32.4-.59.69-.43Z"/>
          <path class="cls-11" d="M75.53,12.03c2.77,1.45,4.68,4.36,6.26,6.95,1.85,3.05,3.35,6.34,4.75,9.61,2.95,6.89,5.12,14.1,6.22,21.53.53,3.58.39,7.29-.35,10.82-.5,2.41-2.87,7.4-6.05,5.21-.39-.27-.26-.84.18-.96,2.87-.8,2.56-4.58,2.54-6.97-.02-3.25-.31-6.36-1.01-9.54-1.36-6.11-3.42-12.12-5.84-17.88-2.22-5.27-4.7-11.3-9.18-15.03-2.22-1.85-.11-5.11,2.48-3.75Z"/>
        </g>
        <g>
          <path class="cls-14" d="M37.59,81.46c.14-1.79-.02-3.63,0-5.43.06-3.89.32-7.77.43-11.66.01-.53,3.69-2.39,5.45-2.67,1.86-.3,4.47-.04,5.79,1.58h0c.07.09.16.65,0,.62-.07,1.7-.21,3.4-.24,5.11-.04,2.04-.07,4.08-.28,6.11-.42,3.97-.97,7.72-.58,11.73.27,2.74.22,5.29-1.61,7.42-1.39,1.63-3.56,2.6-5.63,2.44-5.39-.42-4.32-7.79-3.79-11.57.17-1.22.35-2.44.45-3.67Z"/>
          <path class="cls-7" d="M37.59,81.46c.14-1.79-.02-3.63,0-5.43.06-3.89.32-7.77.43-11.66.01-.53,3.69-2.39,5.45-2.67,1.86-.3,4.47-.04,5.79,1.58h0c.07.08.15.57.03.61-.15-.06-.3-.12-.46-.17-3.85-1.08-6.93.87-6.93,5.02,0,5.26,1.28,10.26.92,15.6-.26,3.8-.62,8.3,2.43,11.1-1.27.89-2.82,1.38-4.32,1.26-5.39-.42-4.32-7.79-3.79-11.57.17-1.22.35-2.44.45-3.67Z"/>
          <path class="cls-6" d="M37.64,81.47c.02-.62.08-1.23.06-1.84v-1.85c0-.62.01-1.23.04-1.84l.12-1.84.25-3.69c.09-1.23.17-2.46.24-3.69l.09-1.84.02-.46h0s0-.02,0-.02c0-.07-.01.08,0,.07v-.03s.01-.03.01-.01c0,.01,0,.03,0,.04-.04.07,0,.02,0,.02.03-.03.07-.07.12-.11.2-.17.45-.33.7-.48,1.03-.6,2.13-1.13,3.25-1.54.28-.1.56-.19.84-.26l.2-.04.23-.04c.16-.03.29-.04.44-.06.59-.06,1.19-.06,1.78,0,.59.07,1.17.2,1.71.44.27.12.53.25.76.43.13.08.23.18.34.27.06.04.1.1.16.15l.18.19-.03-.03s0,0,0,.02c0,.02.01.04.02.06.01.05.02.1.03.14,0,.05,0,.1,0,.13,0,.02,0,.03,0,.03,0-.01,0-.01.04-.04.03-.02.06-.03.09-.02l-.21.17c-.03,1.14-.08,2.28-.13,3.41l-.09,1.71-.06,1.71c-.03.57-.02,1.14-.07,1.7l-.15,1.69c-.08,1.13-.27,2.25-.41,3.38-.15,1.13-.3,2.26-.4,3.41-.09,1.14-.17,2.29-.17,3.44,0,.58,0,1.15.05,1.73l.11,1.71c.06,1.1.04,2.21-.2,3.26-.23,1.04-.68,2.01-1.37,2.83l-.03.04h0s-.03.04.01,0l-.02.02-.07.08-.15.15-.3.31-.59.49c-.23.14-.44.29-.67.43-.24.11-.47.26-.71.35-.98.41-2.03.57-3.09.45-.49-.07-.99-.22-1.42-.48-.43-.26-.8-.61-1.09-1.04-.58-.86-.88-1.95-1.03-3.04-.15-1.1-.16-2.24-.1-3.37.05-1.13.17-2.26.31-3.4.11-1.13.25-2.26.38-3.39h0s0,0,0,0ZM37.55,81.46c-.15,1.13-.29,2.26-.45,3.39-.16,1.12-.37,2.25-.5,3.39-.13,1.14-.21,2.29-.13,3.46.08,1.16.29,2.36.93,3.43.32.53.77,1.01,1.31,1.35.54.34,1.15.56,1.78.66,1.2.17,2.47,0,3.59-.46.29-.11.55-.26.83-.39.27-.15.51-.33.77-.49.24-.19.49-.4.72-.6l.3-.31.15-.15.07-.08.02-.02s.02-.02.03-.03h0s.03-.06.03-.06c.79-.93,1.31-2.09,1.55-3.27.24-1.18.24-2.37.16-3.54l-.14-1.7c-.06-.56-.07-1.12-.08-1.68-.04-1.12,0-2.25.06-3.38.08-1.13.15-2.26.25-3.4.09-1.14.22-2.26.26-3.41.05-1.15.12-2.29.12-3.42l.03-1.71.07-1.71c.06-1.14.12-2.27.2-3.41l-.21.17c.06,0,.12,0,.18-.04.06-.04.07-.07.09-.11.02-.06.03-.1.03-.14,0-.08,0-.14,0-.2,0-.06-.01-.13-.03-.19,0-.03-.02-.06-.03-.1-.01-.04-.02-.07-.07-.14l-.03-.03s.06.06.03.03h0s0-.02,0-.02l-.02-.02-.04-.05-.08-.09c-.05-.06-.1-.13-.16-.18-.12-.11-.23-.23-.36-.32-.25-.2-.53-.37-.82-.51-.58-.29-1.2-.47-1.83-.57-.63-.1-1.27-.14-1.91-.11-.16.01-.33.02-.48.04l-.23.03-.25.04c-.32.06-.63.14-.93.24-.61.18-1.19.42-1.76.67-.58.25-1.14.53-1.69.86-.28.17-.55.33-.82.56-.07.06-.14.12-.21.21-.04.06-.07.06-.14.21-.01.03-.03.06-.04.09-.01.03,0,.02-.01.04v.03s-.01.08-.01.08h0s0,.02,0,.02l-.02.46-.05,1.85c-.03,1.23-.05,2.46-.05,3.69v3.69s0,1.85,0,1.85l.06,1.85c.03.61.06,1.23.06,1.84.02.61-.03,1.23-.04,1.84Z"/>
        </g>
      </g>
    </g>
  </g>
</svg>