<?xml version="1.0" encoding="UTF-8"?>
<svg id="Layer_2" data-name="Layer 2" xmlns="http://www.w3.org/2000/svg" viewBox="0 0 100 100">
  <defs>
    <style>
      .cls-1 {
        fill: #8ea024;
      }

      .cls-2 {
        fill: #b6ce32;
      }
    </style>
  </defs>
  <g>
    <g>
      <g>
        <g>
          <path class="cls-1" d="M74.38,25.42c1.63-2.08,1.34-4.94-.79-5.88-1.31-.58-3.03-.14-4.25,1.06-.71.7-1.17,1.53-1.37,2.36-.28,1.12-.57,2.24-1.01,3.34-1.19,2.95-2.25,5.84-2.25,5.84,0,0,2.52-1.71,5.08-3.57.87-.63,1.77-1.24,2.72-1.66.69-.3,1.34-.8,1.87-1.47Z"/>
          <path class="cls-1" d="M25.62,76.51c-1.63,2.08-1.34,4.94.79,5.88,1.31.58,3.03.14,4.25-1.06.71-.7,1.17-1.53,1.37-2.36.28-1.12.57-2.24,1.01-3.34,1.19-2.95,2.25-5.84,2.25-5.84,0,0-2.52,1.71-5.08,3.57-.87.63-1.77,1.24-2.72,1.66-.69.3-1.34.8-1.87,1.47Z"/>
        </g>
        <g>
          <path class="cls-1" d="M75.54,75.35c2.08,1.63,4.94,1.34,5.88-.79.58-1.31.14-3.03-1.06-4.25-.7-.71-1.53-1.17-2.36-1.37-1.12-.28-2.24-.57-3.34-1.01-2.95-1.19-5.84-2.25-5.84-2.25,0,0,1.71,2.52,3.57,5.08.63.87,1.24,1.77,1.66,2.72.3.69.8,1.34,1.47,1.87Z"/>
          <path class="cls-1" d="M24.46,26.59c-2.08-1.63-4.94-1.34-5.88.79-.58,1.31-.14,3.03,1.06,4.25.7.71,1.53,1.17,2.36,1.37,1.12.28,2.24.57,3.34,1.01,2.95,1.19,5.84,2.25,5.84,2.25,0,0-1.71-2.52-3.57-5.08-.63-.87-1.24-1.77-1.66-2.72-.3-.69-.8-1.34-1.47-1.87Z"/>
        </g>
      </g>
      <g>
        <g>
          <path class="cls-1" d="M42.27,16.51c-.32-2.62,1.4-4.93,3.71-4.64,1.42.18,2.67,1.44,3.1,3.1.25.96.21,1.91-.04,2.73-.34,1.11-.67,2.21-.85,3.38-.5,3.14-1.08,6.16-1.08,6.16,0,0-1.28-2.77-2.52-5.68-.42-.99-.87-1.98-1.47-2.83-.44-.62-.74-1.38-.84-2.23Z"/>
          <path class="cls-1" d="M57.73,85.42c.32,2.62-1.4,4.93-3.71,4.64-1.42-.18-2.67-1.44-3.1-3.1-.25-.96-.21-1.91.04-2.73.34-1.11.67-2.21.85-3.38.5-3.14,1.08-6.16,1.08-6.16,0,0,1.28,2.77,2.52,5.68.42.99.87,1.98,1.47,2.83.44.62.74,1.38.84,2.23Z"/>
        </g>
        <g>
          <path class="cls-1" d="M15.55,58.7c-2.62.32-4.93-1.4-4.64-3.71.18-1.42,1.44-2.67,3.1-3.1.96-.25,1.91-.21,2.73.04,1.11.34,2.21.67,3.38.85,3.14.5,6.16,1.08,6.16,1.08,0,0-2.77,1.28-5.68,2.52-.99.42-1.98.87-2.83,1.47-.62.44-1.38.74-2.23.84Z"/>
          <path class="cls-1" d="M84.45,43.24c2.62-.32,4.93,1.4,4.64,3.71-.18,1.42-1.44,2.67-3.1,3.1-.96.25-1.91.21-2.73-.04-1.11-.34-2.21-.67-3.38-.85-3.14-.5-6.16-1.08-6.16-1.08,0,0,2.77-1.28,5.68-2.52.99-.42,1.98-.87,2.83-1.47.62-.44,1.38-.74,2.22-.84Z"/>
        </g>
      </g>
    </g>
    <circle class="cls-2" cx="50" cy="50.97" r="28.16" transform="translate(-18.81 31.9) rotate(-30.06)"/>
    <g>
      <g>
        <g>
          <g>
            <path class="cls-2" d="M64.75,13.43l-4.02-1.12-4.02-1.12c1.61,4.13-.96,12.28-1.61,14.23l1.85.51,1.85.51c.44-2.01,2.44-10.31,5.95-13.02Z"/>
            <path class="cls-2" d="M69.07,11.88c-.63,2.25-4.55,3.13-8.77,1.96-4.22-1.17-7.13-3.95-6.51-6.2.63-2.25,4.55-3.13,8.77-1.96,4.22,1.17,7.13,3.95,6.51,6.2Z"/>
          </g>
          <g>
            <path class="cls-2" d="M35.25,88.5l4.02,1.12,4.02,1.12c-1.61-4.13.96-12.28,1.61-14.23l-1.85-.51-1.85-.51c-.44,2.01-2.44,10.31-5.95,13.02Z"/>
            <ellipse class="cls-2" cx="38.56" cy="92.18" rx="4.23" ry="7.93" transform="translate(-60.57 104.69) rotate(-74.49)"/>
          </g>
        </g>
        <g>
          <g>
            <path class="cls-2" d="M87.54,65.72l1.12-4.02,1.12-4.02c-4.13,1.61-12.28-.96-14.23-1.61l-.51,1.85-.51,1.85c2.01.44,10.31,2.44,13.02,5.95Z"/>
            <path class="cls-2" d="M89.09,70.04c-2.25-.63-3.13-4.55-1.96-8.77,1.17-4.22,3.95-7.13,6.2-6.51,2.25.63,3.13,4.55,1.96,8.77s-3.95,7.13-6.2,6.51Z"/>
          </g>
          <g>
            <path class="cls-2" d="M12.46,36.22l-1.12,4.02-1.12,4.02c4.13-1.61,12.28.96,14.23,1.61l.51-1.85.51-1.85c-2.01-.44-10.31-2.44-13.02-5.95Z"/>
            <path class="cls-2" d="M10.91,31.89c2.25.63,3.13,4.55,1.96,8.77-1.17,4.22-3.95,7.13-6.2,6.51-2.25-.63-3.13-4.55-1.96-8.77,1.17-4.22,3.95-7.13,6.2-6.51Z"/>
          </g>
        </g>
      </g>
      <g>
        <g>
          <g>
            <path class="cls-2" d="M86.97,34.85l-2.05-3.63-2.05-3.63c-1.79,4.06-9.36,8.01-11.2,8.92l.95,1.67.95,1.67c1.73-1.11,9.02-5.57,13.42-5Z"/>
            <path class="cls-2" d="M91.13,36.81c-2.04,1.15-5.43-1-7.59-4.82-2.15-3.81-2.25-7.83-.22-8.98,2.04-1.15,5.43,1,7.59,4.82s2.25,7.83.22,8.98Z"/>
          </g>
          <g>
            <path class="cls-2" d="M13.03,67.08l2.05,3.63,2.05,3.63c1.79-4.06,9.36-8.01,11.2-8.92l-.95-1.67-.95-1.67c-1.73,1.11-9.02,5.57-13.42,5Z"/>
            <path class="cls-2" d="M8.87,65.12c2.04-1.15,5.43,1,7.59,4.82,2.15,3.81,2.25,7.83.22,8.98-2.03,1.15-5.43-1-7.59-4.82s-2.25-7.83-.22-8.98Z"/>
          </g>
        </g>
        <g>
          <g>
            <path class="cls-2" d="M66.11,87.94l3.63-2.05,3.63-2.05c-4.06-1.79-8.01-9.36-8.92-11.2l-1.67.95-1.67.95c1.11,1.73,5.57,9.02,5,13.42Z"/>
            <path class="cls-2" d="M64.16,92.1c-1.15-2.04,1-5.43,4.82-7.59s7.83-2.25,8.98-.22c1.15,2.04-1,5.43-4.82,7.59s-7.83,2.25-8.98.22Z"/>
          </g>
          <g>
            <path class="cls-2" d="M33.89,14l-3.63,2.05-3.63,2.05c4.06,1.79,8.01,9.36,8.92,11.2l1.67-.95,1.67-.95c-1.11-1.73-5.57-9.02-5-13.42Z"/>
            <path class="cls-2" d="M35.84,9.84c1.15,2.04-1,5.43-4.82,7.59-3.81,2.15-7.83,2.25-8.98.22-1.15-2.04,1-5.43,4.82-7.59,3.81-2.15,7.83-2.25,8.98-.22Z"/>
          </g>
        </g>
      </g>
    </g>
  </g>
  <g>
    <path class="cls-1" d="M43.75,29.85c-6.3-1.75-9.03,8.04-2.72,9.8,6.3,1.75,9.03-8.04,2.72-9.8Z"/>
    <path class="cls-1" d="M66.73,47.93c-6.3-1.75-9.03,8.04-2.72,9.8,6.3,1.75,9.03-8.04,2.72-9.8Z"/>
    <path class="cls-1" d="M46.03,53.26c-6.3-1.75-9.03,8.04-2.72,9.8,6.3,1.75,9.03-8.04,2.72-9.8Z"/>
    <path class="cls-1" d="M35.73,61c-2.63-.73-3.76,3.35-1.13,4.08,2.63.73,3.76-3.35,1.13-4.08Z"/>
    <path class="cls-1" d="M58.88,43.91c-2.63-.73-3.76,3.35-1.13,4.08,2.63.73,3.76-3.35,1.13-4.08Z"/>
    <path class="cls-1" d="M33.8,39.67c-2.63-.73-3.76,3.35-1.13,4.08,2.63.73,3.76-3.35,1.13-4.08Z"/>
    <path class="cls-1" d="M55.97,32.14c-2.63-.73-3.76,3.35-1.13,4.08,2.63.73,3.76-3.35,1.13-4.08Z"/>
    <path class="cls-1" d="M56.31,56.99c-2.63-.73-3.76,3.35-1.13,4.08,2.63.73,3.76-3.35,1.13-4.08Z"/>
    <path class="cls-1" d="M62.44,63.95c-3.68-1.02-5.27,4.69-1.59,5.71,3.68,1.02,5.27-4.69,1.59-5.71Z"/>
    <path class="cls-1" d="M65.62,36.14c-3.68-1.02-5.27,4.69-1.59,5.71,3.68,1.02,5.27-4.69,1.59-5.71Z"/>
    <path class="cls-1" d="M33.94,46.83c-3.68-1.02-5.27,4.69-1.59,5.71,3.68,1.02,5.27-4.69,1.59-5.71Z"/>
    <path class="cls-1" d="M49.58,40.46c-3.68-1.02-5.27,4.69-1.59,5.71,3.68,1.02,5.27-4.69,1.59-5.71Z"/>
    <path class="cls-1" d="M47.74,66.28c-3.68-1.02-5.27,4.69-1.59,5.71,3.68,1.02,5.27-4.69,1.59-5.71Z"/>
  </g>
</svg>