<?xml version="1.0" encoding="UTF-8"?>
<svg id="Layer_2" data-name="Layer 2" xmlns="http://www.w3.org/2000/svg" viewBox="0 0 100 100">
  <defs>
    <style>
      .cls-1 {
        fill: #417dc4;
      }

      .cls-2 {
        fill: #276191;
      }

      .cls-3 {
        fill: #163f5b;
      }

      .cls-4 {
        fill: #cecece;
      }

      .cls-5 {
        fill: #a0a0a0;
      }

      .cls-6 {
        fill: #2b6baa;
      }
    </style>
  </defs>
  <path class="cls-4" d="M41.63,31.56c0-.19,4.12-18.16,5.62-24.67.34-1.47,1.53-2.6,3.02-2.85,5.36-.92,18.27-1.98,27.5,6.58.95.88,1.39,2.19,1.15,3.46l-5.08,26.73-32.21-9.24Z"/>
  <path class="cls-5" d="M77.78,10.6c-5.65-5.23-12.67-6.87-18.5-7.14-.49,1.71-.62,3.46-.24,5.2,1.09,4.95,5.66,6.47,8.61,10.34,2.75,3.59,4.42,9.64,1.62,20.48l4.57,1.31,5.08-26.73c.24-1.27-.19-2.58-1.15-3.46Z"/>
  <path class="cls-6" d="M76.93,33.21s0-4.03-8.76-9l-12.79,27.24-4.26,27.71v16.82l11.01-2.2c1.21-.24,2.14-1.22,2.33-2.44l1.82-11.7,10.66-46.43Z"/>
  <polygon class="cls-2" points="56.32 77.27 49.45 80.11 26.83 72.03 30.74 69.93 48.74 65.43 56.32 77.27"/>
  <path class="cls-1" d="M30.74,69.93l10.9-47.61c.43-1.86,2.07-3.19,3.98-3.21,5.22-.05,15.55.49,22.55,5.11l-11.84,53.06s-12.79-8.76-25.58-7.34Z"/>
  <path class="cls-1" d="M26,73.85v15.92c0,.8.39,1.54,1.05,1.99,3.48,2.35,14.93,9.19,24.06,4.23v-16.82s-10.55-12.74-23.6-7.55c-.91.36-1.51,1.25-1.51,2.23Z"/>
  <path class="cls-2" d="M15.1,76.56l11.84-3.08s11.21-2.24,21.19,7.45c.53.52.85,1.21.89,1.95l.42,9.07s-1.18,2.37-4.5,3.08c-3.32.71-13.46,1.56-13.46,1.56l-16.38-20.03Z"/>
  <path class="cls-1" d="M15.06,90.82c-.46-5.05-.37-9.41-.03-13.45.04-.49.4-.9.88-1.01,2.78-.64,12.06-2.07,17.69,5.59.14.19.22.43.22.67v12.55c0,.51-.33.96-.82,1.1-2.49.73-10.23,2.19-17.58-4.71-.2-.19-.33-.45-.35-.73Z"/>
  <path class="cls-3" d="M28.28,95.72c-2.99,0-7.43-.84-11.78-4.79-.17-.15-.27-.37-.29-.59-.35-4.08-.37-7.97-.05-12.17.03-.41.34-.74.74-.82.92-.17,2.27-.36,3.83-.36,3.48,0,8.31.94,11.72,5.39.12.16.18.35.18.55v11.5c0,.42-.29.78-.69.88-.87.2-2.14.41-3.66.41Z"/>
</svg>