<?xml version="1.0" encoding="UTF-8"?>
<svg xmlns="http://www.w3.org/2000/svg" viewBox="0 0 100 100">
  <defs>
    <style>
      .cls-1 {
        fill: #f9c6bf;
      }

      .cls-1, .cls-2, .cls-3, .cls-4 {
        mix-blend-mode: screen;
      }

      .cls-5, .cls-6 {
        fill: #ffea91;
      }

      .cls-2, .cls-7, .cls-8, .cls-9, .cls-10, .cls-4, .cls-11 {
        opacity: .5;
      }

      .cls-12 {
        fill: #d15a46;
      }

      .cls-13, .cls-4 {
        fill: #fff;
      }

      .cls-14 {
        fill: #b54131;
      }

      .cls-15 {
        fill: #821b25;
      }

      .cls-16, .cls-9 {
        fill: #aa313d;
      }

      .cls-17 {
        fill: #e2d5d5;
      }

      .cls-18, .cls-10 {
        fill: #c04148;
      }

      .cls-19 {
        fill: #edb52c;
      }

      .cls-20 {
        fill: #f4a196;
      }

      .cls-21 {
        isolation: isolate;
      }

      .cls-22 {
        fill: #721522;
      }

      .cls-23 {
        fill: #e40039;
      }

      .cls-7, .cls-24, .cls-8, .cls-9, .cls-10, .cls-6, .cls-11 {
        mix-blend-mode: multiply;
      }

      .cls-7, .cls-25 {
        fill: #8e1126;
      }

      .cls-26 {
        fill: #e5817a;
      }

      .cls-27 {
        fill: #d0d0d0;
      }

      .cls-8, .cls-28 {
        fill: #a0383b;
      }

      .cls-29 {
        fill: #5b090e;
      }
    </style>
  </defs>
  <g class="cls-21">
    <g id="Layer_2" data-name="Layer 2">
      <g>
        <g>
          <path class="cls-18" d="M90.31,80.8c.52-2.48-.15-5.71-1.81-9.85-1.81-4.51-5.32-9.03-11.13-14.49-1.44.59-3.29.24-4.22-2.41-.27-.06-1.19.67-1.4-.27-.65-.05-3.32-.28-3.91-3.28-.37.39-2.38,1.58-3.64-.54-1.27.42-3.44.63-5.01-2.59-.06.05-.12.1-.2.15.2.51.3,1.41-1.04,2.13-1.97,1.07-3.09-.7-3.09-.7,0,0-.3.53-1.12.59,1.75.68,1.87,1.41,1.23,2.04.38.61.26,1.21-.09,1.62,1.26,1.58,1.83,3.95.79,5.45,1.99.97,2.77,2.55,1.66,3.68,6.63,5.04,10.32,8.89,14.27,14.68.91-.39,3.08-.94,3.7,2.19,2.21.08,2.56,2.96,2.56,2.96,3.23-1.8,5.38.59,4.86,2.73.32-.03.66-.07,1.02-.13,3.33-.5,5.5-1.86,6.59-3.95Z"/>
          <path class="cls-15" d="M57.2,62.39s-.02-.04-.02-.07c0-.04.01-.08.04-.11.56-.57.62-1.27.17-1.98-.35-.55-.97-1.06-1.78-1.46-.04-.02-.07-.05-.08-.09-.01-.04,0-.09.02-.12.93-1.35.47-3.36-.41-4.74-.12-.19-.25-.37-.38-.54-.04-.06-.04-.13,0-.19.36-.41.39-.95.08-1.44-.04-.06-.03-.13.02-.18.67-.67.22-1.26-1.18-1.8-.06-.02-.1-.09-.09-.16.01-.07.07-.12.14-.13.73-.05.99-.5,1.01-.52.03-.04.07-.07.12-.07.05,0,.1.02.13.07.04.07,1.07,1.64,2.9.65,1.19-.64,1.18-1.42.97-1.95-.03-.06,0-.14.05-.17.07-.05.13-.09.18-.14.03-.03.08-.04.13-.03.04,0,.08.04.1.08,1.14,2.34,2.78,3.19,4.83,2.52.07-.02.13,0,.17.06l.05.08c.41.64.92,1,1.53,1.06.85.09,1.64-.43,1.83-.63.04-.04.09-.06.15-.04.05.01.09.06.1.11.37,1.91,1.68,3,3.78,3.17.06,0,.12.05.13.11.02.09.05.17.09.23.14.22.41.15.77.02.18-.06.32-.11.43-.09.05,0,.09.04.11.09.15.42.33.8.53,1.13.82,1.31,2.13,1.76,3.49,1.2.05-.02.11,0,.16.03,4.14,3.89,7.01,7.19,9.01,10.37.89,1.41,1.6,2.78,2.16,4.18,1.75,4.36,2.33,7.52,1.82,9.94,0,.01,0,.02-.01.04-1.13,2.18-3.38,3.53-6.69,4.03-.35.05-.69.1-1.02.13-.05,0-.09-.01-.13-.05-.03-.03-.04-.08-.03-.13.17-.68.05-1.41-.32-2-.64-1.01-2.15-1.77-4.32-.56-.04.02-.09.02-.14,0-.04-.02-.07-.06-.08-.11,0,0-.12-.94-.62-1.73-.45-.71-1.05-1.08-1.8-1.11-.07,0-.12-.05-.14-.12-.12-.58-.29-1.06-.53-1.43-.83-1.31-2.22-.97-2.97-.65-.06.03-.14,0-.18-.05-4.02-5.88-7.74-9.72-14.24-14.65-.02,0-.03-.02-.04-.04ZM57.64,60.07c.49.78.45,1.58-.1,2.22,6.41,4.88,10.12,8.7,14.11,14.52.73-.29,2.29-.66,3.22.81.24.38.42.85.54,1.42.8.06,1.45.48,1.93,1.24.39.62.56,1.3.63,1.64,1.56-.79,3.51-.86,4.53.76.38.6.52,1.33.4,2.03.26-.03.54-.06.81-.11,3.21-.48,5.38-1.78,6.47-3.86.49-2.35-.09-5.45-1.81-9.75-.55-1.38-1.25-2.73-2.13-4.13-1.98-3.14-4.81-6.4-8.9-10.25-1.47.56-2.88.06-3.76-1.35-.2-.32-.37-.68-.52-1.08-.06.01-.14.04-.2.07-.33.12-.84.3-1.11-.14-.04-.06-.07-.13-.09-.21-1.54-.15-2.67-.77-3.35-1.85-.24-.38-.42-.82-.54-1.3-.37.28-1.1.63-1.87.55-.7-.07-1.29-.47-1.74-1.19-2.07.63-3.72-.16-4.92-2.39.12.56.03,1.37-1.19,2.04-1.69.92-2.81-.16-3.16-.59-.12.13-.32.3-.63.4.55.25.91.53,1.1.82.17.27.27.7-.17,1.19.29.53.26,1.13-.09,1.59.12.15.22.31.33.47.9,1.42,1.37,3.47.49,4.92.79.41,1.4.93,1.76,1.49Z"/>
        </g>
        <g>
          <path class="cls-18" d="M40.05,41.82c1.39-1.72,3.32.25,3.32.25,0,0,.26-.72.94-1.34,0,0-.58-.61.14-1.07,0,0-1.02-1.87-.2-3.1.46-.69,1.26-.75,1.87-.67-.57-.61-1.09-1.46-1.16-2.57-2.13-1.27-1.72-2.64-1.33-3.31-9.8-7.54-14.77-12.37-18.27-15.98l-1.77-1.64s1.84-2.53-.58-5.41c-2.42-2.88-9.58-1.72-15.02,4.82-.87,1.22-1.45,2.42-1.74,3.54.77-.71,1.9-1.35,2.79-.16,1.65-1.89,4.62-.07,4.92,2.13,1.97.06,2.32,2.06,2.32,2.06,2.08.23,2.55,2.88,1.89,3.98,1.35.52.94,1.85.94,1.85,3.18-.01,5.31,2.56,5.42,4.99,2.03.88,2.13,2.75,2.13,2.75,2.99-.41,4.17,2.2,4.35,4.02,2.1.44,2.05,3.43,2.05,3.43,2.39-.71,3.56,1.96,3.56,1.96.78-.37,1.54-.33,2.22-.06.27-.78.97-.67,1.19-.46Z"/>
          <path class="cls-15" d="M6.14,15.41s-.03-.07-.02-.11c.31-1.16.9-2.37,1.77-3.59,3.89-4.68,8.38-6.35,11.29-6.36,1.71,0,3.12.54,3.96,1.54.19.23.37.47.52.71,1.45,2.3.43,4.3.14,4.78l1.68,1.55c3.61,3.73,8.61,8.54,18.26,15.97.06.05.07.13.04.19-.27.47-.49,1.19,0,1.96.26.41.69.8,1.28,1.15.04.02.07.07.07.12.06.9.44,1.75,1.13,2.48.04.04.05.11.02.17-.03.05-.09.09-.15.08-.56-.07-1.32-.02-1.73.61-.76,1.15.19,2.93.2,2.95.04.07.01.15-.05.19-.19.12-.28.25-.29.4-.01.23.17.43.18.44.03.03.04.07.04.11,0,.04-.02.08-.05.1-.65.59-.9,1.28-.91,1.29-.02.05-.06.08-.11.09-.05.01-.1,0-.14-.04,0-.01-.95-.96-1.94-.91-.44.02-.83.24-1.16.65-.03.03-.06.05-.1.05-.04,0-.08-.01-.11-.04-.07-.07-.27-.14-.48-.09-.21.05-.37.22-.47.5-.01.04-.04.07-.08.09-.04.02-.08.02-.12,0-.71-.29-1.42-.27-2.1.05-.04.02-.08.02-.11,0-.04-.01-.07-.04-.08-.08,0,0-.08-.18-.24-.43-.47-.75-1.51-1.94-3.15-1.45-.05.01-.09,0-.13-.02-.04-.03-.06-.07-.06-.12,0-.01.01-1.35-.6-2.32-.33-.52-.78-.84-1.33-.96-.06-.01-.11-.07-.11-.13-.05-.49-.21-1.44-.77-2.33-.54-.85-1.56-1.81-3.41-1.56-.04,0-.08,0-.11-.03-.03-.03-.05-.06-.05-.1,0,0-.04-.63-.47-1.31-.36-.58-.89-1.02-1.58-1.31-.05-.02-.09-.07-.09-.13-.04-.81-.3-1.64-.77-2.38-.98-1.55-2.66-2.48-4.5-2.47-.05,0-.09-.02-.12-.06-.03-.04-.04-.09-.02-.13,0,0,.18-.62-.14-1.13-.15-.24-.39-.42-.71-.54-.04-.02-.07-.05-.09-.09-.01-.04,0-.09.01-.12.36-.6.39-1.82-.2-2.76-.26-.41-.74-.91-1.58-1.01-.06,0-.11-.06-.13-.12,0,0-.08-.45-.37-.91-.42-.66-1.02-1.01-1.81-1.03-.07,0-.13-.05-.14-.13-.06-.4-.21-.8-.45-1.18-.57-.9-1.54-1.53-2.46-1.6-.69-.05-1.29.2-1.76.73-.03.03-.07.05-.12.05-.04,0-.09-.02-.11-.06-.27-.37-.59-.57-.94-.6-.58-.05-1.19.38-1.61.76-.01.02-.03.04-.05.05-.07.04-.16.02-.2-.05,0,0,0,0,0,0ZM23.4,7.75c-.14-.23-.31-.45-.5-.67-.78-.93-2.11-1.44-3.73-1.43-2.84,0-7.24,1.65-11.06,6.25-.72,1.02-1.25,2.03-1.58,3.02.53-.4,1.03-.58,1.48-.54.39.04.73.23,1.03.58.51-.52,1.16-.76,1.88-.7,1.02.08,2.07.76,2.69,1.74.24.38.4.77.47,1.18,1.03.08,1.61.67,1.93,1.16.23.37.34.73.39.91.71.11,1.29.5,1.69,1.13.55.88.67,2.12.28,2.91.31.14.54.35.7.6.28.44.25.92.21,1.18,1.87.05,3.57,1.02,4.57,2.6.48.76.76,1.6.82,2.44.7.32,1.24.79,1.62,1.39.34.54.46,1.05.49,1.3,1.91-.2,2.98.81,3.55,1.71.55.88.74,1.81.81,2.35.59.15,1.06.51,1.41,1.06.52.83.62,1.87.64,2.29,1.79-.42,2.9.98,3.3,1.62.09.14.15.25.19.33.66-.28,1.37-.3,2.07-.05.17-.36.42-.5.62-.55.24-.06.47,0,.62.08.37-.41.8-.63,1.29-.65.88-.04,1.68.57,2.01.85.12-.25.37-.69.8-1.11-.08-.12-.18-.31-.17-.54.01-.21.12-.4.32-.56-.21-.44-.88-2.01-.13-3.14.34-.52.91-.78,1.65-.76-.57-.7-.89-1.48-.96-2.31-.6-.37-1.04-.77-1.32-1.2-.55-.87-.31-1.69-.06-2.15-9.6-7.4-14.58-12.2-18.18-15.91l-1.76-1.63c-.05-.05-.06-.13-.02-.19.06-.08,1.48-2.09-.08-4.56Z"/>
        </g>
        <path class="cls-10" d="M43.37,42.07s.26-.72.94-1.34c0,0-.58-.61.14-1.07,0,0-1.02-1.87-.2-3.1.46-.69,1.26-.75,1.87-.67-.57-.61-1.09-1.46-1.16-2.57-2.13-1.27-1.72-2.64-1.33-3.31-9.8-7.54-14.77-12.37-18.27-15.98l-1.77-1.64s1.84-2.53-.58-5.41c-1.28-1.53-3.9-1.92-6.88-.97,3.64,4.09,6.91,8.54,11.05,12.16,2.36,2.06,4.37,4.44,6.81,6.42,2.09,1.69,4.19,3.48,5.84,5.61,1.07,1.37,3.02,2.75,2.33,4.57-.66,1.73-2.62,2.85-4.43,2.64-2.27-.26-4.23-1.87-5.86-3.35-1.72-1.57-3.23-3.37-4.96-4.92-1.44-1.29-2.55-2.76-3.64-4.36-.7-1.03-1.4-2.08-2.23-3.01-.79-.88-1.59-1.71-2.29-2.67-.75-1.05-1.49-2.17-2.54-2.95-.83-.62-1.74-1.1-2.58-1.7-1.41-1.01-2.7-2.18-3.66-3.65-.14-.22-.28-.45-.41-.68-.53.52-1.06,1.09-1.57,1.7-.87,1.22-1.45,2.42-1.74,3.54.77-.71,1.9-1.35,2.79-.16,1.65-1.89,4.62-.07,4.92,2.13,1.97.06,2.32,2.06,2.32,2.06,2.08.23,2.55,2.88,1.89,3.98,1.35.52.94,1.85.94,1.85,3.18-.01,5.31,2.56,5.42,4.99,2.03.88,2.13,2.75,2.13,2.75,2.99-.41,4.17,2.2,4.35,4.02,2.1.44,2.05,3.43,2.05,3.43,2.39-.71,3.56,1.96,3.56,1.96.78-.37,1.54-.33,2.22-.06.27-.78.97-.67,1.19-.46,1.39-1.72,3.32.25,3.32.25Z"/>
        <g>
          <path class="cls-20" d="M93.74,92.12c3.71-5.3,2.98-6.79,1.55-14.57-4.75-16.12-15.41-25.25-37.42-41.02C33.96,18.78,31.36,14.46,26.94,7.44c1.03,2.05.94,4.53-1.57,6.59,4.88,5.03,12.61,12.42,32.3,26.25,18.47,14.09,27.51,22.39,30.82,30.66,3.32,8.27,2.69,12.9-3.49,15.16-5.74,1.72-9.94.39-16.72-10.62-6.28-9-10.79-11.22-18.91-17.16-8.12-5.94-27.06-16.8-37.04-34.81-1.63.88-6.67.11-8.49-3.55.03.14.05.29.08.44,4.95,13.7,17.49,22.26,25.34,28.13,7.85,5.88,29.46,19.54,35.6,30.08,6.14,10.55,5.33,14.12,8.85,16.3,5.19,3.37,16.3,2.5,20.01-2.8Z"/>
          <path class="cls-12" d="M7.47,27.91c-1.52-2.41-2.75-4.91-3.67-7.45-.04-.17-.06-.32-.09-.46-.01-.07.03-.14.1-.16.07-.02.14,0,.18.07.09.17.19.35.29.51h0c1.95,3.09,6.48,3.8,8,2.97.07-.04.16-.02.2.06.52.94,1.08,1.89,1.67,2.82,0,0,0,0,0,0,8.58,13.59,21.93,22.72,30.78,28.77,1.75,1.2,3.27,2.24,4.55,3.17,1.41,1.03,2.7,1.94,3.94,2.82,5.9,4.17,9.8,6.92,15,14.37.17.28.33.54.49.79,6.5,10.31,10.66,11.39,16.06,9.77,2.45-.89,4.01-2.17,4.78-3.9,1.09-2.45.65-5.97-1.39-11.06-.56-1.38-1.25-2.73-2.14-4.14-4.67-7.41-14.42-15.62-28.64-26.47-18.94-13.31-26.97-20.75-32.32-26.27-.03-.03-.04-.07-.04-.11,0-.04.02-.08.05-.11,2.93-2.4,2.22-5.05,1.54-6.41-.04-.07,0-.15.06-.19.07-.04.15-.02.2.05h0l.33.52c4.16,6.6,6.92,10.97,30.55,28.53,16.65,11.93,26.18,19.71,32.11,29.11,2.31,3.66,4.06,7.58,5.36,11.99.13.69.25,1.32.36,1.91,1.18,6.22,1.5,7.9-1.93,12.79-1.74,2.49-5.22,4.2-9.55,4.72-4.05.48-8.14-.24-10.66-1.87-.87-.54-1.51-1.18-2.07-2.06h0c-.59-.94-1.07-2.14-1.68-3.65-.98-2.45-2.33-5.81-5.14-10.64-4.93-8.46-19.84-18.93-29.62-25.8-2.37-1.66-4.41-3.09-5.94-4.24-.54-.4-1.1-.82-1.67-1.24-6.14-4.55-14.55-10.79-20.05-19.51ZM4.3,20.98c.88,2.29,2.03,4.57,3.41,6.77,5.47,8.67,13.85,14.89,19.98,19.43.58.43,1.14.84,1.67,1.24,1.53,1.14,3.57,2.57,5.93,4.23,9.81,6.88,24.75,17.38,29.71,25.89,2.82,4.85,4.18,8.22,5.16,10.68.6,1.5,1.08,2.68,1.66,3.6h0c.53.85,1.15,1.46,1.98,1.97,2.47,1.6,6.48,2.3,10.47,1.83,4.25-.5,7.66-2.18,9.35-4.59,3.35-4.79,3.04-6.44,1.88-12.57-.11-.59-.23-1.22-.36-1.89-1.29-4.36-3.03-8.26-5.32-11.9-5.9-9.36-15.42-17.12-32.04-29.03C34.88,19.64,31.54,14.98,27.56,8.69c.47,1.96-.22,3.85-1.98,5.34,5.34,5.5,13.38,12.92,32.17,26.12,14.25,10.87,24.02,19.1,28.72,26.54.89,1.42,1.6,2.79,2.16,4.19,2.07,5.17,2.52,8.76,1.39,11.29-.81,1.8-2.43,3.13-4.96,4.06-5.68,1.7-10,.52-16.89-10.68-5.17-7.4-9.05-10.14-14.93-14.29-1.24-.88-2.53-1.79-3.94-2.82-1.27-.93-2.79-1.97-4.54-3.16-8.86-6.06-22.25-15.21-30.86-28.85,0,0,0,0,0,0-.56-.9-1.11-1.81-1.61-2.72-.88.39-2.41.38-3.9-.05-1.02-.29-2.84-1.02-4.08-2.68Z"/>
        </g>
        <g>
          <g>
            <path class="cls-16" d="M8.01,11.8c5.44-6.54,12.6-7.7,15.02-4.82,2.42,2.88.58,5.41.58,5.41l1.77,1.64c2.52-2.06,2.6-4.54,1.57-6.59-.03-.04-.05-.09-.08-.13-6.47-9.93-18.35.73-18.35.73-4.32,3.92-5.63,6.6-4.66,11.93,1.82,3.66,6.87,4.43,8.49,3.55l.25-2.34c-6.91.55-8.22-4.26-4.59-9.38Z"/>
            <path class="cls-22" d="M4.03,20.57c-.11-.17-.21-.35-.3-.54,0-.01,0-.03-.01-.04-.94-5.13.16-7.94,4.7-12.06.06-.06,6.44-5.71,12.37-4.93,2.5.33,4.59,1.75,6.2,4.22l.08.13c1.24,2.47.65,4.94-1.6,6.78-.06.05-.14.04-.19,0l-1.77-1.64c-.05-.05-.06-.13-.02-.19.06-.08,1.48-2.09-.08-4.56-.14-.23-.31-.45-.5-.67-.78-.93-2.11-1.44-3.73-1.43-2.84,0-7.24,1.65-11.06,6.25-1.95,2.75-2.47,5.44-1.37,7.18.94,1.49,3.01,2.18,5.83,1.95.04,0,.09.01.11.04.03.03.05.07.04.12l-.25,2.35s-.03.09-.07.11c-1.65.89-6.32.21-8.39-3.07ZM3.99,19.92c.09.17.18.34.28.49,1.92,3.05,6.35,3.77,7.94,3l.22-2.09c-3.64.25-5.23-1-5.92-2.1-1.16-1.85-.65-4.66,1.38-7.52,3.89-4.68,8.38-6.35,11.29-6.36,1.71,0,3.12.54,3.96,1.54.19.23.37.47.52.71,1.45,2.3.43,4.3.14,4.78l1.59,1.47c2.82-2.38,2.12-4.98,1.44-6.33l-.08-.12c-1.56-2.39-3.58-3.77-5.99-4.09-5.8-.77-12.07,4.8-12.13,4.85-4.5,4.08-5.53,6.72-4.62,11.77Z"/>
          </g>
          <path class="cls-9" d="M12.59,21.17c-6.91.55-8.22-4.26-4.59-9.38,5.44-6.54,12.6-7.7,15.02-4.82,2.42,2.88.58,5.41.58,5.41l1.77,1.64c1.85-1.51,2.38-3.25,2.13-4.88-.02.29-.09.56-.25.78-.31.42-.87.74-1.38.44-.79-.47-.87-1.8-1.28-2.56-.51-.95-1.37-1.78-2.28-2.4-2.43-1.66-6.16-.82-8.57.37-3.12,1.54-6.25,4.13-7.87,7.25-.73,1.41-1.18,3.68-.75,5.27.28,1.04.83,2.05,1.79,2.61.59.34,1.34.41,1.88.81,1.09.81-.03,1.26-.8,1.25-1.28-.02-2.75-1.5-3.33-2.54-.77-1.38-1.03-2.94-1.04-4.53-.12,1.2-.03,2.52.25,4.07,1.82,3.66,6.87,4.43,8.49,3.55l.25-2.34Z"/>
          <g>
            <path class="cls-26" d="M90.31,80.8c-1.08,2.09-3.26,3.45-6.59,3.95-5.76.87-7.41-1.2-10.78-5.73-6.63-10.24-11.57-14.38-28.96-26.05-20.1-13.24-26.72-24.38-31.4-31.8l-.25,2.34c9.98,18.01,28.92,28.87,37.04,34.81,8.12,5.94,12.63,8.16,18.91,17.16,6.77,11.02,10.98,12.34,16.72,10.62,3.08-1.13,4.78-2.84,5.3-5.3Z"/>
            <path class="cls-14" d="M13.9,26.42c-.59-.94-1.16-1.89-1.68-2.84-.02-.03-.02-.06-.02-.09l.25-2.34c0-.06.05-.11.11-.13.06-.01.13.01.16.06l.93,1.47c4.13,6.55,11.04,17.51,30.43,30.28,18.89,12.69,22.93,16.73,29,26.1,3.24,4.34,4.87,6.53,10.64,5.66,3.22-.48,5.4-1.79,6.48-3.88.03-.06.11-.09.18-.07.07.03.11.1.09.17-.53,2.51-2.29,4.28-5.39,5.41-5.55,1.66-9.8.58-16.4-9.89t0,0c-.16-.26-.33-.52-.49-.79-5.17-7.4-9.05-10.14-14.93-14.29-1.24-.88-2.53-1.79-3.94-2.82-1.27-.93-2.79-1.96-4.54-3.16-8.86-6.06-22.25-15.21-30.86-28.85ZM12.5,23.48c.52.93,1.07,1.87,1.65,2.78,8.57,13.59,21.93,22.72,30.77,28.76,1.76,1.2,3.27,2.24,4.55,3.17,1.41,1.03,2.7,1.94,3.94,2.82,5.9,4.17,9.8,6.92,15,14.37.17.28.33.54.49.79,6.5,10.31,10.66,11.39,16.06,9.77,2.6-.95,4.19-2.3,4.91-4.2-1.24,1.66-3.3,2.71-6.13,3.14-5.94.89-7.61-1.34-10.92-5.78-6.04-9.33-10.08-13.37-28.92-26.02-19.44-12.81-26.37-23.8-30.51-30.37l-.7-1.12-.2,1.88Z"/>
          </g>
        </g>
        <g>
          <path class="cls-5" d="M55.67,58.64c1.66-2.41-.81-7.05-3.62-7.1-.08-.86-1.57-3.39-3.44-2.83-1.34-2.22-4.33-4.89-7.63-4.34-.68-1.44-2.47-2.93-4.35-2.03,0,0-1.17-2.67-3.56-1.96,0,0,.05-2.99-2.05-3.43-.18-1.82-1.37-4.42-4.35-4.02,0,0-.1-1.87-2.13-2.75-.11-2.43-2.25-5.01-5.42-4.99,0,0,.41-1.34-.94-1.85.67-1.1.19-3.76-1.89-3.98,0,0-.35-2-2.32-2.06-.3-2.19-3.27-4.02-4.92-2.13-.89-1.19-2.02-.55-2.79.16-.94,3.57,1.07,6.26,6.33,5.84,4.68,7.42,11.3,18.56,31.4,31.8,5.57,3.74,9.86,6.7,13.34,9.35,1.11-1.13.34-2.7-1.66-3.68Z"/>
          <path class="cls-19" d="M6.51,19.23c-.66-1.04-.79-2.4-.39-3.93,0-.03.02-.05.04-.07.67-.62,1.3-.91,1.86-.86.39.04.73.23,1.03.58.51-.52,1.16-.76,1.88-.7,1.02.08,2.07.76,2.69,1.74.24.38.4.77.47,1.18,1.03.08,1.61.67,1.93,1.16.23.37.34.73.39.91.71.11,1.29.5,1.69,1.13.55.88.67,2.12.28,2.91.31.14.54.35.7.6.28.44.25.92.21,1.18,1.87.05,3.57,1.02,4.57,2.6.48.76.76,1.6.82,2.44.7.32,1.24.79,1.62,1.39.34.54.46,1.05.49,1.3,1.91-.2,2.98.81,3.55,1.71.55.88.74,1.81.81,2.35.59.15,1.06.51,1.41,1.06.52.83.62,1.87.64,2.29,1.79-.42,2.9.98,3.3,1.62.09.14.15.25.19.33,1.82-.77,3.61.58,4.36,2.06,2.25-.32,5.43.88,7.58,4.28,0,.02.02.03.03.05,1.54-.37,2.66,1.18,2.97,1.67.27.42.46.86.52,1.19,1.17.07,2.37.91,3.22,2.26.89,1.42,1.38,3.47.49,4.92.79.41,1.4.93,1.76,1.49.52.83.45,1.68-.21,2.34-.05.05-.13.06-.19.01-3.15-2.39-7.01-5.1-13.33-9.34-19.4-12.79-26.35-23.76-30.49-30.34,0-.01-.01-.02-.02-.03l-.88-1.4c-3.7.27-5.31-.98-6.01-2.09ZM6.39,15.41c-.37,1.43-.24,2.7.36,3.66.95,1.51,2.96,2.18,5.83,1.95.05,0,.11.02.14.07l.93,1.47s.01.02.02.03c4.13,6.55,11.05,17.5,30.41,30.25,6.25,4.2,10.1,6.89,13.24,9.27.48-.55.51-1.22.08-1.89-.35-.55-.97-1.06-1.78-1.46-.04-.02-.07-.05-.08-.09-.01-.04,0-.09.02-.12.93-1.35.47-3.36-.41-4.74-.83-1.31-1.99-2.11-3.1-2.12-.07,0-.14-.06-.14-.13-.03-.29-.22-.75-.5-1.19-.29-.46-1.35-1.94-2.75-1.52-.06.02-.13,0-.17-.07-.03-.05-.06-.09-.08-.14-2.42-3.83-5.78-4.4-7.39-4.14-.07,0-.13-.02-.16-.08-.07-.14-.15-.29-.24-.43-.82-1.3-2.35-2.28-3.92-1.53-.04.02-.08.02-.11,0-.04-.01-.07-.04-.08-.08,0,0-.08-.18-.24-.43-.47-.75-1.51-1.94-3.15-1.45-.05.01-.09,0-.13-.02-.04-.03-.06-.07-.06-.12,0-.01.01-1.35-.6-2.32-.33-.52-.78-.84-1.33-.96-.06-.01-.11-.07-.11-.13-.05-.49-.21-1.44-.77-2.33-.54-.85-1.56-1.81-3.41-1.56-.04,0-.08,0-.11-.03-.03-.03-.05-.06-.05-.1,0,0-.04-.63-.47-1.31-.36-.58-.89-1.02-1.58-1.31-.05-.02-.09-.07-.09-.13-.04-.81-.3-1.64-.77-2.38-.98-1.55-2.66-2.48-4.5-2.47-.05,0-.09-.02-.12-.06-.03-.04-.04-.09-.02-.13,0,0,.18-.62-.14-1.13-.15-.24-.39-.42-.71-.54-.04-.02-.07-.05-.09-.09-.01-.04,0-.09.01-.12.36-.6.39-1.82-.2-2.76-.26-.41-.74-.91-1.58-1.01-.06,0-.11-.06-.13-.12,0,0-.08-.45-.37-.91-.42-.66-1.02-1.01-1.81-1.03-.07,0-.13-.05-.14-.13-.06-.4-.21-.8-.45-1.18-.57-.9-1.54-1.53-2.46-1.6-.69-.05-1.29.2-1.76.73-.03.03-.07.05-.12.05-.04,0-.09-.02-.11-.06-.27-.37-.59-.57-.94-.6-.58-.05-1.19.37-1.61.75Z"/>
        </g>
        <g>
          <path class="cls-5" d="M77.85,82.15s-.35-2.89-2.56-2.96c-.62-3.13-2.78-2.58-3.7-2.19.44.65.89,1.33,1.35,2.03,3.17,4.25,4.81,6.33,9.77,5.85.52-2.14-1.62-4.53-4.86-2.73Z"/>
          <path class="cls-19" d="M71.47,77.07s-.03-.08-.02-.12c.01-.04.04-.08.08-.09.68-.29,2.35-.79,3.33.77.24.38.42.85.54,1.42.8.06,1.45.48,1.93,1.24.39.62.56,1.3.63,1.64,1.56-.79,3.51-.86,4.53.76.41.66.55,1.47.36,2.23-.01.06-.07.1-.13.11-5.12.49-6.82-1.78-9.9-5.91-.46-.71-.91-1.39-1.35-2.03,0,0,0,0,0,0ZM74.62,77.78c-.77-1.22-2.03-1.01-2.81-.72.41.6.83,1.23,1.25,1.88,3.21,4.31,4.85,6.22,9.52,5.8.13-.65,0-1.34-.35-1.9-.64-1.01-2.15-1.77-4.32-.56-.04.02-.09.02-.14,0-.04-.02-.07-.06-.08-.11,0,0-.12-.94-.62-1.73-.45-.71-1.05-1.08-1.8-1.11-.07,0-.12-.05-.14-.12-.12-.58-.29-1.06-.53-1.43Z"/>
        </g>
        <path class="cls-19" d="M12.69,19.86c.43-2.02-2.17-4.22-4.04-3.03-.1.06.18.12.25.08,1.05-.61,2.27.1,2.85.96.4.59.44,1.29.5,1.97.01.14.4.16.43.02Z"/>
        <path class="cls-19" d="M20.64,27.03c-.24-1.34-2.03-2.54-3.36-1.92-.16.08.14.14.22.11.62-.21,1.37.14,1.86.5.43.32.65.83.84,1.31.04.11.46.12.44,0Z"/>
        <path class="cls-19" d="M31.44,39.18c.35-1.34-1.29-4.16-2.96-3.49-.14.06.1.12.16.1.75-.15,1.41.61,1.78,1.15.46.68.55,1.43.66,2.22.02.12.34.14.37.02Z"/>
        <path class="cls-19" d="M44.25,50.28c-.13-1.03-1.24-2.08-2.17-2.45-.31-.12-.63-.21-.94-.25-.74-1.63-3.09-2.29-4.65-1.59-.11.05.08.1.13.08.88-.23,1.7-.29,2.55.1.67.3,1.07.85,1.53,1.37-.51,0-1.01.13-1.49.45-.09.06.16.1.22.07,1.12-.58,2.22-.35,3.16.43.6.5.89,1.16,1.31,1.79.04.06.36.12.35,0Z"/>
        <path class="cls-19" d="M49.01,54.12c-.29-.95-1.64-2.52-2.72-1.63-.11.09.19.12.26.08.96-.54,1.7.88,2.06,1.57.05.1.44.12.4-.03Z"/>
        <path class="cls-19" d="M55.66,59.88c.1-.57,0-1.11-.2-1.65-.23-.62-.74-.98-1.2-1.42-.06-.06-.4-.05-.33.04.33.42.73.73.97,1.21.28.54.3,1.18.3,1.78,0,.15.44.17.46.03Z"/>
        <path class="cls-19" d="M49.02,50.04c.21-.54-.07-1.08-.44-1.48-.03-.04-.23-.05-.2.03.07.24.17.47.23.72.05.23.07.47.1.7.01.1.29.13.32.04Z"/>
        <path class="cls-19" d="M79.88,83.26c-.35-.63-.92-1.07-1.61-1.25-.5-.12-1.4-.09-1.76.33-.06.07.19.1.24.06.45-.35,1.27-.31,1.75-.06.41.21.7.63,1,.96.06.07.45.07.38-.05Z"/>
        <g>
          <g>
            <path class="cls-28" d="M54.97,51.57c.64-.63.52-1.36-1.23-2.04.83-.06,1.12-.59,1.12-.59,0,0,1.12,1.77,3.09.7,1.33-.72,1.24-1.63,1.04-2.13-.81.55-2.45,1.06-3.22-1.06-.92.12-5.05-.96-4.91-3.65-1.7-.39-4.16-3.43-3.13-5.69,0,0-.84-.39-1.6-1.21-.62-.08-1.42-.02-1.87.67-.82,1.23.2,3.1.2,3.1-.72.46-.14,1.07-.14,1.07-.68.63-.94,1.34-.94,1.34,0,0-1.93-1.98-3.32-.25-.21-.21-.92-.32-1.19.46.95.39,1.73,1.24,2.13,2.09,3.3-.54,6.28,2.12,7.63,4.34,1.87-.55,3.35,1.98,3.44,2.83,1.06.02,2.07.69,2.83,1.65.35-.41.47-1.01.09-1.62Z"/>
            <path class="cls-29" d="M38.68,42.36l.05-.13c.16-.47.46-.63.67-.69.24-.06.47,0,.62.08.37-.41.8-.63,1.29-.65.88-.04,1.68.57,2.01.85.12-.25.37-.69.8-1.11,0-.01-.01-.02-.02-.03-.25-.39-.18-.78.17-1.06-.21-.44-.88-2.01-.13-3.14.4-.6,1.09-.85,2.02-.74h.05s.04.05.04.05c.73.78,1.55,1.17,1.56,1.17l.13.06-.06.13c-.43.95-.25,2.18.51,3.38.68,1.08,1.69,1.93,2.52,2.11l.12.03v.12c-.03.49.09.95.36,1.37,1,1.58,3.71,2.22,4.38,2.13h.12s.04.1.04.1c.3.81.76,1.3,1.35,1.42.74.15,1.45-.29,1.65-.43l.15-.1.07.17c.21.53.34,1.53-1.1,2.32-1.69.92-2.81-.16-3.16-.59-.12.13-.32.3-.63.4.55.25.91.53,1.1.82.17.27.27.7-.17,1.19.31.57.25,1.21-.16,1.69l-.12.13-.11-.14c-.79-1-1.78-1.57-2.72-1.59h-.13s-.01-.13-.01-.13c-.03-.29-.22-.75-.5-1.19-.29-.46-1.35-1.94-2.75-1.52l-.11.03-.06-.1s-.06-.09-.08-.14c-2.42-3.83-5.78-4.4-7.39-4.14l-.11.02-.05-.1c-.07-.14-.15-.28-.23-.42-.46-.73-1.12-1.3-1.82-1.59l-.13-.05ZM44.52,40.74l-.11.1c-.65.59-.9,1.28-.91,1.29l-.08.22-.16-.17s-.95-.96-1.94-.91c-.44.02-.83.24-1.16.65l-.1.12-.12-.11c-.07-.07-.27-.14-.48-.09-.18.04-.32.17-.42.37.7.32,1.36.92,1.82,1.65.07.12.14.24.2.36,2.25-.32,5.43.88,7.58,4.28,0,.02.02.03.03.05,1.54-.37,2.66,1.18,2.97,1.67.27.42.46.86.52,1.19.94.06,1.91.62,2.7,1.55.25-.39.25-.87-.03-1.3l-.06-.1.08-.08c.67-.67.22-1.26-1.18-1.8l-.61-.24.65-.05c.74-.05,1-.51,1-.52l.12-.21.13.21c.04.07,1.07,1.64,2.9.65,1.07-.58,1.17-1.26,1.03-1.78-.33.2-1,.51-1.71.37-.67-.14-1.19-.64-1.52-1.5-.89.03-3.52-.64-4.55-2.27-.28-.44-.42-.92-.41-1.42-.87-.25-1.9-1.12-2.58-2.21-.78-1.23-.99-2.51-.59-3.53-.26-.14-.89-.51-1.48-1.14-.55-.06-1.27,0-1.68.61-.76,1.15.19,2.93.2,2.95l.07.12-.12.07c-.31.2-.38.45-.19.74.04.06.07.1.08.1l.1.11Z"/>
          </g>
          <path class="cls-8" d="M54.97,51.57c.64-.63.52-1.36-1.23-2.04.83-.06,1.12-.59,1.12-.59,0,0,1.12,1.77,3.09.7,1.33-.72,1.24-1.63,1.04-2.13-.81.55-2.45,1.06-3.22-1.06-.92.12-5.05-.96-4.91-3.65-1.7-.39-4.16-3.43-3.13-5.69,0,0-.84-.39-1.6-1.21-.62-.08-1.42-.02-1.87.67-.15.23-.24.47-.28.73.64-.31,1.33-.42,1.84.11,1.16,1.2-.38,2.04-.5,3.21.32-.45.7-.95,1.27-.87,1.32.18,1.48,1.44,2.24,2.29.28.31,1.51,1,1.07,1.57-.64.84-1.79.87-2.34,1.68.11-.09.22-.17.34-.24,1.19-.67,2.46-.09,3.63.36,1.42.56,2,1.74,1.09,3.08-.29.43-.01.33.32.57.2.14.25.35.24.57-.01.38-.41.71-.76.77-.41.07-.74-.43-.93-.71-.49-.73-1.03-1.33-1.84-1.7-.69-.32-1.45-.54-2.08-.98-.74-.52-1.11-1.19-1.61-1.92-.84-1.2-1.93-1.29-3.27-1.28-.54,0-1.1-.01-1.6-.25-1.03-.49-.32-1.32.55-1.48,1.25-.24,2,.82,3.09,1.08-.2-.62-.62-1.12-1.12-1.58-.18.29-.26.51-.26.51,0,0-1.93-1.98-3.32-.25-.21-.21-.92-.32-1.19.46.95.39,1.73,1.24,2.13,2.09,3.3-.54,6.28,2.12,7.63,4.34,1.87-.55,3.35,1.98,3.44,2.83,1.06.02,2.07.69,2.83,1.65.35-.41.47-1.01.09-1.62Z"/>
        </g>
        <g>
          <g>
            <g>
              <path class="cls-23" d="M35.13,34.68c0,.73-.81,1.05-1.82.72-1.01-.33-1.83-1.19-1.84-1.92,0-.73.81-1.05,1.82-.72,1.01.33,1.83,1.19,1.84,1.92Z"/>
              <path class="cls-25" d="M31.61,34.29c-.17-.27-.26-.54-.26-.8,0-.31.13-.57.36-.74.37-.27.98-.31,1.62-.1.68.22,1.32.7,1.66,1.24.17.27.26.54.26.79,0,.31-.12.57-.37.74-.37.27-.98.31-1.62.1-.68-.22-1.32-.7-1.66-1.24ZM34.78,34.02c-.31-.5-.9-.93-1.53-1.14-.57-.19-1.08-.16-1.39.06-.17.13-.26.31-.26.54,0,.21.08.44.22.66.31.49.9.93,1.53,1.14.56.18,1.08.16,1.39-.06.17-.13.27-.31.26-.54,0-.2-.08-.43-.22-.66Z"/>
            </g>
            <path class="cls-25" d="M34.19,33.63c-.04-.07-.14.12-.1.19.05.1.1.2.15.31.11.29-.21.38-.31.41-.14.04-.3.02-.46,0-.34-.06-.69-.36-.98-.69-.02-.02-.04.03-.03.06.44.69.92.96,1.49.84.47-.1.61-.57.23-1.11Z"/>
            <path class="cls-7" d="M34.34,34.23c0,.35-.43.5-.96.32-.53-.17-.97-.6-.97-.95,0-.35.43-.49.96-.32.53.17.97.6.97.95Z"/>
            <path class="cls-4" d="M34.08,35.14c-.82-.26-1.75-.47-2.35-1.74-.02-.03-.05.03-.04.06.33,1.42,1.59,1.67,2.36,1.76.06,0,.11-.05.03-.08Z"/>
            <path class="cls-4" d="M34.43,34.97h-.03s-.09.03-.11.07c-.02.04-.02.11.03.11.03,0,.05,0,.07-.02.03-.01.13-.18.04-.16Z"/>
          </g>
          <g>
            <g>
              <path class="cls-23" d="M36.01,26.93c.46.72-.14,1.54-1.35,1.85-1.2.3-2.55-.03-3.01-.75-.46-.72.14-1.55,1.34-1.85,1.2-.3,2.55.03,3.01.75Z"/>
              <path class="cls-25" d="M31.52,28.1c-.19-.3-.22-.63-.1-.96.2-.5.77-.91,1.53-1.1,1.26-.32,2.68.05,3.17.81.2.31.23.64.1.97-.2.5-.77.91-1.53,1.1-1.28.32-2.67-.04-3.17-.81h0ZM35.89,27.02c-.43-.68-1.71-.98-2.86-.69-.67.17-1.17.52-1.33.93-.09.23-.07.47.07.69l-.12.08.13-.07c.43.67,1.71.98,2.85.69.67-.17,1.17-.52,1.33-.93.09-.23.07-.47-.07-.69Z"/>
            </g>
            <path class="cls-25" d="M34.43,26.47c-.09-.04-.06.2.02.25.12.06.23.14.34.22.29.22.03.51-.05.6-.12.13-.28.21-.45.28-.38.15-.9.07-1.4-.08-.03,0-.02.06,0,.07.87.41,1.51.38,2-.1.4-.4.25-.94-.47-1.24Z"/>
            <path class="cls-7" d="M34.94,26.98c.22.34-.11.76-.75.92-.63.16-1.33.01-1.55-.33-.22-.35.11-.76.75-.92.63-.16,1.33-.01,1.55.33Z"/>
            <path class="cls-4" d="M35.25,28.03c-.97.26-2.02.63-3.41-.25-.04-.02-.03.06,0,.08,1.22,1.2,2.62.66,3.43.27.07-.03.08-.12-.02-.09Z"/>
            <path class="cls-4" d="M35.5,27.65l-.03.02c-.05.02-.07.08-.07.14,0,.05.05.13.1.09.02-.02.04-.04.06-.06.03-.03.02-.26-.06-.19Z"/>
          </g>
          <g>
            <g>
              <path class="cls-23" d="M29.62,27.62c.16.96-.85,1.56-2.25,1.33-1.4-.23-2.66-1.19-2.82-2.15-.16-.96.85-1.56,2.25-1.33,1.4.23,2.66,1.19,2.82,2.15Z"/>
              <path class="cls-25" d="M24.66,27.5c-.14-.22-.23-.45-.26-.67-.07-.41.04-.77.33-1.06.43-.44,1.22-.61,2.11-.47,1.11.18,2.2.83,2.69,1.62.14.22.23.45.27.67.07.41-.05.77-.33,1.05-.43.44-1.22.61-2.11.47-1.11-.18-2.2-.83-2.69-1.62ZM29.24,27.1c-.45-.71-1.44-1.3-2.46-1.47-.78-.13-1.46.01-1.82.37-.2.2-.28.47-.23.77.03.18.1.36.22.55.45.71,1.44,1.3,2.46,1.47.78.13,1.47-.01,1.82-.37.2-.2.28-.47.23-.77-.03-.18-.1-.36-.22-.55Z"/>
            </g>
            <path class="cls-25" d="M28.18,26.43c-.07-.08-.16.18-.09.27.1.12.18.25.26.38.2.36-.2.54-.32.6-.18.09-.39.1-.6.09-.46-.02-.98-.33-1.43-.71-.03-.02-.05.06-.03.08.73.82,1.42,1.08,2.14.8.6-.24.68-.87.07-1.51Z"/>
            <path class="cls-7" d="M28.49,27.19c.08.46-.46.74-1.2.62-.74-.12-1.4-.59-1.48-1.05-.08-.46.46-.74,1.2-.62.74.12,1.4.59,1.47,1.05Z"/>
            <path class="cls-4" d="M28.33,28.43c-1.14-.17-2.41-.25-3.46-1.81-.03-.04-.05.05-.04.08.74,1.81,2.45,1.87,3.48,1.83.09,0,.14-.09.02-.11Z"/>
            <path class="cls-4" d="M28.77,28.14h-.04c-.06.01-.11.06-.13.13-.02.06,0,.16.06.13.04-.01.07-.02.1-.04.04-.02.14-.26.02-.22Z"/>
          </g>
          <g>
            <g>
              <path class="cls-23" d="M19.65,11.18c.57.79-.07,1.77-1.42,2.19-1.35.42-2.91.12-3.48-.67-.57-.79.07-1.77,1.42-2.19,1.35-.42,2.91-.12,3.48.67Z"/>
              <path class="cls-25" d="M14.56,12.72c-.21-.33-.25-.69-.11-1.06.21-.57.82-1.05,1.67-1.31,1.41-.44,3.06-.11,3.67.74.25.35.3.74.16,1.13-.21.57-.82,1.05-1.67,1.32-1.41.44-3.06.11-3.66-.74-.02-.02-.03-.05-.05-.07ZM19.56,11.33s-.02-.04-.04-.05c-.53-.74-2.01-1.01-3.3-.61-.74.23-1.28.64-1.46,1.11-.1.28-.06.57.12.82.53.74,2.01,1.01,3.3.61.74-.23,1.28-.65,1.46-1.11.1-.26.07-.52-.08-.76Z"/>
            </g>
            <path class="cls-25" d="M17.82,10.75c-.1-.04-.06.23.04.29.14.06.27.14.41.23.34.23.06.58-.02.68-.12.16-.31.26-.5.35-.42.19-1.02.14-1.6,0-.03,0-.02.07.01.08,1.02.41,1.75.34,2.27-.24.43-.48.23-1.08-.61-1.39Z"/>
            <path class="cls-7" d="M18.44,11.3c.28.38-.08.87-.8,1.09-.71.22-1.51.09-1.79-.29-.27-.38.08-.87.8-1.09.72-.22,1.51-.09,1.79.29Z"/>
            <path class="cls-4" d="M18.86,12.48c-1.09.35-2.27.84-3.9-.08-.04-.02-.03.07,0,.09,1.46,1.29,3.03.59,3.93.1.08-.04.08-.14-.02-.11Z"/>
            <path class="cls-4" d="M19.12,12.03l-.04.03c-.06.03-.07.1-.07.17,0,.06.06.14.12.09.03-.02.05-.05.07-.08.03-.04.01-.3-.08-.21Z"/>
          </g>
          <g>
            <g>
              <path class="cls-23" d="M22.47,7.93c.32.83-.48,1.55-1.77,1.6-1.3.05-2.6-.58-2.92-1.42-.32-.83.47-1.55,1.77-1.6,1.3-.05,2.6.58,2.92,1.42Z"/>
              <path class="cls-25" d="M17.77,8.43c-.05-.09-.1-.17-.13-.26-.13-.35-.1-.7.1-1.01.31-.47.99-.77,1.81-.8,1.21-.05,2.45.48,2.94,1.25.05.08.1.17.13.26.14.35.1.7-.1,1.01-.31.47-.99.77-1.81.8-1.21.05-2.45-.48-2.94-1.25ZM22.23,7.77c-.43-.68-1.57-1.15-2.67-1.11-.73.03-1.31.28-1.57.67-.15.22-.17.47-.07.73.03.07.06.14.11.21.43.68,1.57,1.15,2.67,1.11.72-.03,1.31-.28,1.57-.67.14-.22.17-.47.07-.73-.03-.07-.06-.14-.1-.21Z"/>
            </g>
            <path class="cls-25" d="M20.96,7.12c-.08-.06-.11.19-.03.26.11.09.21.19.3.3.25.28-.08.52-.18.6-.15.11-.33.16-.52.19-.42.07-.94-.12-1.42-.38-.03-.01-.03.06,0,.08.8.6,1.47.71,2.07.32.5-.32.45-.9-.21-1.37Z"/>
            <path class="cls-7" d="M21.38,7.74c.15.4-.28.75-.96.78-.68.03-1.36-.27-1.51-.67-.15-.4.28-.75.96-.78.68-.03,1.36.27,1.51.67Z"/>
            <path class="cls-4" d="M21.46,8.89c-1.05.06-2.2.21-3.43-.99-.03-.03-.04.05-.02.08.99,1.49,2.54,1.23,3.45,1.01.08-.02.11-.1,0-.1Z"/>
            <path class="cls-4" d="M21.8,8.55l-.04.02c-.06.01-.09.07-.1.13,0,.05.02.14.08.11.03-.01.05-.03.08-.05.03-.03.08-.26-.02-.21Z"/>
          </g>
          <g>
            <g>
              <path class="cls-23" d="M12.84,10.68c.54.48.24,1.29-.67,1.82-.91.53-2.09.56-2.63.08-.54-.48-.24-1.29.67-1.82.91-.53,2.09-.56,2.63-.09Z"/>
              <path class="cls-25" d="M9.28,12.46c-.13-.2-.16-.44-.1-.7.1-.41.45-.81.97-1.11.95-.55,2.19-.58,2.77-.07.27.23.37.56.28.9-.1.41-.46.82-.97,1.11-.95.55-2.2.58-2.77.07-.07-.06-.13-.13-.18-.21ZM12.89,10.93c-.03-.06-.08-.11-.13-.16-.5-.45-1.62-.4-2.48.1-.46.26-.77.61-.85.96-.06.26,0,.48.2.66.51.45,1.62.4,2.49-.1.46-.26.77-.61.85-.96.05-.19.02-.36-.07-.5Z"/>
            </g>
            <path class="cls-25" d="M11.45,10.67c-.08,0,0,.18.08.2.11.02.22.06.33.1.28.11.14.4.1.5-.06.13-.18.24-.31.33-.27.21-.72.27-1.16.26-.02,0,0,.05.02.06.8.13,1.32-.04,1.61-.55.24-.42-.01-.82-.67-.9Z"/>
            <path class="cls-7" d="M11.99,10.96c.26.23.08.64-.4.92-.48.28-1.08.32-1.34.09-.26-.23-.08-.64.4-.92.48-.28,1.08-.32,1.34-.09Z"/>
            <path class="cls-4" d="M12.48,11.75c-.73.44-1.5.98-2.84.58-.03-.01,0,.05.01.06,1.27.7,2.29-.07,2.86-.58.05-.04.04-.11-.04-.07Z"/>
            <path class="cls-4" d="M12.6,11.38l-.02.03s-.04.08-.02.13c.01.04.07.09.1.05.01-.02.03-.04.04-.07.01-.03-.04-.21-.09-.14Z"/>
          </g>
          <g>
            <g>
              <path class="cls-23" d="M29.38,22.89c-.13.9-1.19,1.11-2.36.46-1.17-.65-2.02-1.91-1.89-2.82.13-.91,1.19-1.11,2.36-.46,1.17.65,2.02,1.91,1.89,2.82Z"/>
              <path class="cls-25" d="M25.39,22.03c-.34-.53-.49-1.08-.42-1.52.05-.38.26-.67.58-.84.51-.25,1.26-.16,2.01.26.62.34,1.18.87,1.55,1.46.34.53.49,1.08.42,1.52-.05.38-.26.67-.58.83-.51.25-1.26.16-2.01-.26-.62-.34-1.18-.87-1.55-1.45ZM28.84,21.56c-.34-.54-.86-1.03-1.44-1.35-.66-.37-1.3-.46-1.71-.25-.24.12-.37.32-.42.6-.05.37.08.84.38,1.31.34.54.86,1.03,1.44,1.35.66.37,1.3.46,1.72.25.23-.12.37-.32.41-.6.05-.37-.08-.84-.38-1.31Z"/>
            </g>
            <path class="cls-25" d="M28.43,21.36c-.04-.09-.19.11-.16.22.05.14.09.28.12.43.08.38-.32.42-.45.43-.19.02-.37-.04-.56-.12-.4-.16-.77-.61-1.07-1.1-.02-.03-.06.03-.05.06.42.96.95,1.42,1.67,1.4.6-.01.85-.55.48-1.32Z"/>
            <path class="cls-7" d="M28.49,22.14c-.06.44-.61.51-1.23.17-.62-.34-1.07-.98-1.01-1.41.06-.44.61-.51,1.23-.17.62.34,1.07.97,1.01,1.41Z"/>
            <path class="cls-4" d="M28.01,23.2c-.96-.51-2.06-1-2.56-2.72-.01-.04-.06.03-.06.06.14,1.85,1.64,2.46,2.56,2.75.08.02.14-.04.05-.09Z"/>
            <path class="cls-4" d="M28.48,23.08h-.04c-.06-.02-.11,0-.15.06-.04.04-.05.14.02.14.03,0,.06,0,.09,0,.05,0,.2-.19.08-.19Z"/>
          </g>
          <g>
            <g>
              <path class="cls-23" d="M22.62,19.01c.91.3,1.02,1.46.24,2.57-.78,1.12-2.15,1.77-3.07,1.46-.91-.31-1.02-1.46-.24-2.57.78-1.12,2.15-1.77,3.07-1.46Z"/>
              <path class="cls-25" d="M19.07,22.69c-.37-.59-.24-1.47.34-2.31.82-1.17,2.28-1.85,3.25-1.53.29.09.52.27.67.51.37.59.24,1.48-.34,2.31-.82,1.17-2.28,1.85-3.25,1.52-.29-.1-.52-.27-.67-.51ZM23.06,19.54c-.11-.18-.28-.3-.49-.38-.85-.28-2.14.34-2.88,1.4-.5.71-.63,1.48-.33,1.95.11.18.28.3.5.38.85.28,2.14-.34,2.88-1.4.5-.71.63-1.48.33-1.95Z"/>
            </g>
            <path class="cls-25" d="M20.96,19.72c-.1.03.1.22.2.21.15-.03.3-.05.45-.05.4-.01.4.42.4.56,0,.2-.08.38-.17.57-.21.39-.7.7-1.22.92-.03.01.03.07.06.06,1.03-.25,1.54-.73,1.59-1.5.04-.63-.49-1-1.31-.76Z"/>
            <path class="cls-7" d="M21.77,19.8c.44.15.46.74.05,1.33-.41.59-1.1.94-1.54.8-.44-.15-.46-.74-.05-1.33.41-.59,1.1-.95,1.54-.8Z"/>
            <path class="cls-4" d="M22.8,20.51c-.62.91-1.22,1.98-3.03,2.18-.05,0,.02.07.05.07,1.9.19,2.67-1.27,3.06-2.18.03-.08-.02-.16-.08-.07Z"/>
            <path class="cls-4" d="M22.73,20v.04c-.04.05,0,.12.04.17.04.05.14.08.14,0,0-.03,0-.06,0-.1,0-.05-.17-.24-.19-.12Z"/>
          </g>
          <g>
            <g>
              <path class="cls-23" d="M39.75,38.6c.31.93-.6,1.68-2.02,1.67-1.42,0-2.83-.76-3.14-1.69-.31-.93.6-1.68,2.02-1.67,1.42,0,2.83.76,3.14,1.69Z"/>
              <path class="cls-25" d="M34.6,38.99c-.07-.12-.13-.24-.17-.36-.13-.39-.08-.77.16-1.1.36-.5,1.12-.8,2.02-.79,1.28,0,2.6.61,3.12,1.44.07.12.13.24.17.36.13.4.08.77-.16,1.1-.36.5-1.12.8-2.02.8-1.28,0-2.6-.61-3.12-1.44ZM39.45,38.36c-.47-.74-1.66-1.28-2.84-1.29-.8,0-1.45.24-1.75.65-.17.23-.21.51-.11.8.03.1.08.19.14.29.47.74,1.66,1.28,2.84,1.29.8,0,1.45-.24,1.75-.65.17-.24.21-.51.11-.8-.03-.1-.08-.19-.14-.29Z"/>
            </g>
            <path class="cls-25" d="M38.12,37.64c-.09-.07-.13.2-.05.29.11.1.22.22.32.34.26.32-.11.57-.22.65-.17.12-.37.16-.58.18-.46.06-1.02-.18-1.53-.48-.03-.02-.04.06-.01.08.85.7,1.57.85,2.25.45.56-.33.54-.97-.17-1.51Z"/>
            <path class="cls-7" d="M38.55,38.35c.15.45-.34.81-1.09.81-.75,0-1.48-.37-1.63-.81-.15-.45.34-.81,1.09-.81.75,0,1.48.36,1.63.81Z"/>
            <path class="cls-4" d="M38.59,39.6c-1.15.01-2.43.13-3.72-1.25-.03-.04-.05.06-.03.09,1.02,1.68,2.72,1.47,3.74,1.27.08-.02.12-.11,0-.11Z"/>
            <path class="cls-4" d="M38.98,39.25l-.05.02c-.06.01-.1.07-.11.14-.01.06.02.15.08.12.03-.01.06-.03.09-.05.04-.03.1-.28-.01-.23Z"/>
          </g>
          <g>
            <g>
              <path class="cls-23" d="M41.26,34.39c-.44.87-1.62.59-2.63-.61-1.02-1.21-1.49-2.9-1.05-3.77.44-.87,1.62-.6,2.63.61,1.02,1.21,1.49,2.9,1.05,3.77Z"/>
              <path class="cls-25" d="M38.05,33.28c-.76-1.2-1.01-2.57-.62-3.34.17-.35.46-.56.82-.6.63-.07,1.42.37,2.1,1.18.16.19.31.4.44.62.75,1.2,1.01,2.57.62,3.34-.17.35-.46.55-.82.59-.63.08-1.42-.36-2.1-1.17-.16-.19-.31-.4-.45-.61ZM40.5,31.31c-.13-.2-.27-.4-.42-.57-.6-.71-1.28-1.12-1.79-1.06-.25.03-.43.17-.55.41-.33.66-.08,1.92.6,3,.13.2.27.4.42.57.6.71,1.28,1.11,1.79,1.05.25-.03.43-.17.55-.41.33-.66.08-1.92-.6-3Z"/>
            </g>
            <path class="cls-25" d="M40.78,32.38c-.01-.12-.24.03-.24.15,0,.17,0,.33,0,.49-.04.43-.48.28-.62.24-.2-.06-.38-.21-.55-.37-.37-.35-.61-.98-.76-1.62,0-.03-.07,0-.07.04.11,1.18.52,1.89,1.29,2.21.63.26,1.08-.18.95-1.14Z"/>
            <path class="cls-7" d="M40.58,33.21c-.21.42-.82.24-1.35-.39-.54-.64-.8-1.49-.59-1.91.21-.42.82-.24,1.35.4.53.64.8,1.49.59,1.91Z"/>
            <path class="cls-4" d="M39.72,34.08c-.83-.97-1.83-1.97-1.77-3.97,0-.05-.07,0-.08.04-.46,1.96.9,3.28,1.77,4,.07.06.16.03.08-.06Z"/>
            <path class="cls-4" d="M40.25,34.17l-.04-.03c-.05-.05-.12-.04-.18,0-.05.03-.1.12-.03.15.03.02.06.03.1.04.05.01.27-.1.15-.16Z"/>
          </g>
        </g>
        <g>
          <g>
            <g>
              <path class="cls-13" d="M18.63,18.52c-.53.33-1.22.17-1.55-.35-.33-.53-.17-1.22.35-1.55.53-.33,1.22-.17,1.55.35.33.53.17,1.22-.35,1.55Z"/>
              <path class="cls-27" d="M16.95,18.25c-.38-.6-.2-1.39.4-1.77.6-.38,1.39-.2,1.77.4.38.6.2,1.39-.4,1.77-.6.38-1.39.2-1.77-.4ZM18.85,17.05c-.29-.45-.89-.59-1.34-.3-.45.29-.59.89-.3,1.34.29.45.89.59,1.34.31.45-.29.59-.89.3-1.34Z"/>
            </g>
            <g class="cls-24">
              <path class="cls-17" d="M18.98,16.97c-.33-.53-1.03-.68-1.55-.35-.53.33-.68,1.03-.35,1.55.33.53,1.03.68,1.55.35.53-.33.68-1.03.35-1.55ZM17.48,17.69c-.22-.35-.12-.82.24-1.04.35-.22.82-.12,1.04.24.22.35.12.82-.24,1.04-.35.22-.82.12-1.04-.24Z"/>
            </g>
          </g>
          <g>
            <g>
              <path class="cls-13" d="M30.61,32.21c-.53.33-1.22.17-1.55-.35-.33-.53-.17-1.22.35-1.55.53-.33,1.22-.17,1.55.35.33.53.18,1.22-.35,1.55Z"/>
              <path class="cls-27" d="M28.92,31.94c-.38-.6-.2-1.39.4-1.77.6-.38,1.39-.2,1.77.4.38.6.2,1.39-.4,1.77-.6.38-1.39.2-1.77-.4ZM30.83,30.74c-.29-.45-.89-.59-1.34-.3-.45.29-.59.89-.31,1.34.29.45.89.59,1.34.3.45-.29.59-.89.3-1.34Z"/>
            </g>
            <g class="cls-24">
              <path class="cls-17" d="M30.96,30.66c-.33-.53-1.03-.68-1.55-.35-.53.33-.68,1.03-.35,1.55.33.53,1.03.68,1.55.35.53-.33.68-1.03.35-1.55ZM29.46,31.38c-.22-.35-.12-.82.24-1.04.35-.22.82-.12,1.04.24.22.35.12.82-.24,1.04-.35.22-.82.12-1.04-.24Z"/>
            </g>
          </g>
        </g>
        <g>
          <path class="cls-29" d="M45.38,41.44c.1-.36.2-.75.38-1.08.29-.56.89-.46,1.41-.35.05.01.17-.03.07-.07-.49-.17-.95-.32-1.45-.08-.55.27-.72,1.01-.73,1.56,0,.1.29.11.32.02Z"/>
          <path class="cls-29" d="M44.98,43.58c-.63-1.23-2.1-1.84-3.42-1.48-.09.03.06.08.1.08.65-.09,1.27-.05,1.86.25.5.26.86.71,1.2,1.14.04.05.3.09.26.01Z"/>
          <path class="cls-29" d="M50.5,44.89c-.94-.93-2.64-.47-3.16.69-.06.13.31.16.38.07.64-.86,1.62-1.47,2.62-.73.04.03.22.03.16-.03Z"/>
          <path class="cls-29" d="M53.74,51.35c.5-.74.22-1.98-.41-2.55.32-.62.31-1.54-.26-1.93-.03-.02-.19-.02-.14.03.55.5.19,1.69-.2,2.19-.07.09.26.14.32.08.08-.07.15-.16.21-.26.18.33.22.7.24,1.07.02.45-.14.89-.11,1.34,0,.11.29.12.34.04Z"/>
        </g>
        <g class="cls-2">
          <path class="cls-13" d="M50.78,45.98c-.05.44-.61.74-1.24.67-.63-.08-1.1-.5-1.05-.94.05-.44.61-.74,1.24-.67.63.08,1.1.5,1.05.94Z"/>
          <path class="cls-13" d="M47.01,41.36c-.03.22-.23.39-.44.36-.22-.02-.37-.23-.34-.46.03-.23.22-.39.44-.36.22.03.37.23.35.46Z"/>
          <path class="cls-13" d="M46.31,42.2c-.01.12-.12.2-.23.19-.11-.01-.19-.12-.18-.23.01-.12.11-.2.23-.19.11.01.19.12.18.23Z"/>
          <path class="cls-13" d="M54.1,47.48c-.01.12-.12.2-.23.18-.11-.01-.19-.12-.18-.23.01-.12.11-.2.23-.18.11.01.19.12.18.23Z"/>
          <path class="cls-13" d="M56.28,48.74c-.01.11-.12.2-.23.19-.11-.01-.19-.12-.18-.23.01-.12.12-.2.23-.19.11.01.19.12.18.23Z"/>
          <path class="cls-13" d="M47.97,45.99c-.01.09-.09.16-.18.15-.09-.01-.15-.09-.14-.19.01-.09.09-.16.18-.15.09.01.15.09.14.19Z"/>
          <path class="cls-13" d="M42.42,43.19c-.01.11-.12.2-.23.19-.11-.01-.19-.12-.18-.23.01-.12.11-.2.23-.19.11.01.19.12.18.24Z"/>
          <path class="cls-13" d="M44.07,43.4c-.03.24-.38.39-.77.35-.4-.05-.7-.28-.67-.52.03-.24.38-.39.78-.35.4.05.7.28.67.52Z"/>
          <path class="cls-13" d="M46.42,37.74c-.04.34-.4.58-.79.53-.4-.05-.69-.36-.65-.7.04-.34.4-.58.8-.53.4.05.69.36.65.7Z"/>
        </g>
        <g class="cls-3">
          <path class="cls-16" d="M24.78,5.37c-3.39-3.04-8.2-1.77-11.84.49-.16.1.27.16.37.11,3.74-1.92,7.63-3.22,11.23-.55.06.04.33.03.25-.05Z"/>
          <path class="cls-16" d="M12.12,6.39c.04-.05-.14-.06-.18-.03-.49.46-1.17.65-1.73,1-.14.09.25.16.34.1.55-.32,1.17-.56,1.57-1.08Z"/>
        </g>
        <g class="cls-11">
          <path class="cls-20" d="M93.74,92.12c3.71-5.3,2.98-6.79,1.55-14.57-.47-1.59-1-3.12-1.59-4.59,4.81,13.48-.39,20.68-8.53,22.29-8.76,1.72-11.68-3.18-17.08-13.93-5.4-10.76-14.86-16.72-34.93-31.01-20.07-14.29-20.65-23.43-11.65-12.18,10.6,12.15,30.66,21.78,40.73,32.54,10.07,10.76,7.53,14.95,15.1,18.47,7.57,3.52,15.12-3.14,15.46-6.99,1.42-12.82-13.07-26.48-25.92-36.17-12.85-9.69-29.33-21.58-33.27-26.18-3.81-4.45,1.38-1.31,6.18,2.5-7.83-6.81-9.95-10.25-12.84-14.85,1.03,2.05.94,4.53-1.57,6.59,4.88,5.03,12.61,12.42,32.3,26.25,18.47,14.09,27.51,22.39,30.82,30.66,3.32,8.27,2.69,12.9-3.49,15.16-5.74,1.72-9.94.39-16.72-10.62-6.28-9-10.79-11.22-18.91-17.16-8.12-5.94-27.06-16.8-37.04-34.81-1.63.88-6.67.11-8.49-3.55.03.14.05.29.08.44,4.95,13.7,17.49,22.26,25.34,28.13,7.85,5.88,29.46,19.54,35.6,30.08,6.14,10.55,5.33,14.12,8.85,16.3,5.19,3.37,16.3,2.5,20.01-2.8Z"/>
        </g>
        <path class="cls-1" d="M95.67,81.51c0-.06-.2-.07-.2-.01-.09,8.18-6.81,12.97-14.21,14.38-.29.06.03.23.18.21,7.49-.64,14.88-6.57,14.23-14.58Z"/>
        <path class="cls-1" d="M80.2,95.75c-.54.02-1.03-.12-1.54-.3-.11-.04-.24-.04-.35,0-.11.04-.11.13-.01.18.62.32,1.36.39,2.04.29.24-.03-.03-.17-.14-.17Z"/>
        <path class="cls-10" d="M90.31,80.8c.52-2.48-.15-5.71-1.81-9.85-1.81-4.51-5.32-9.03-11.13-14.49-1.44.59-3.29.24-4.22-2.41-.27-.06-1.19.67-1.4-.27-.65-.05-3.32-.28-3.91-3.28-.37.39-2.38,1.58-3.64-.54-1.27.42-3.44.63-5.01-2.59-.06.05-.12.1-.2.15.2.51.3,1.41-1.04,2.13-1.97,1.07-3.09-.7-3.09-.7,0,0-.3.53-1.12.59,1.75.68,1.87,1.41,1.23,2.04.38.61.26,1.21-.09,1.62,1.26,1.58,1.83,3.95.79,5.45,1.99.97,2.77,2.55,1.66,3.68,6.63,5.04,10.32,8.89,14.27,14.68.91-.39,3.08-.94,3.7,2.19,2.21.08,2.56,2.96,2.56,2.96,3.23-1.8,5.38.59,4.86,2.73.32-.03.66-.07,1.02-.13,3.33-.5,5.5-1.86,6.59-3.95ZM81.13,79.23c-1.15-1.37-1.52-3.37-2.85-4.58-1.2-1.1-2.69-1.05-4.2-1.28-1.48-.22-2.96-.83-3.89-2.06-.89-1.19-1-2.54-1.04-3.99-.04-1.44-.2-3.24-1.53-4.11-1.24-.8-2.79-.73-4.15-1.19-2.46-.83-4.69-4.32-3.51-6.9,1.35-2.95,5.19-1.28,7.05.16.87.67,1.68,1.44,2.59,2.06,1.57,1.07,3.35,1.92,5.19,2.42-.27-.13-.54-.26-.82-.38,1.99.85,4.17,1.28,5.94,2.58,3.6,2.64,6.22,7.68,7.19,11.94.39,1.71.97,4.48-.38,5.94-1.39,1.5-4.4.79-5.58-.61Z"/>
        <path class="cls-6" d="M55.69,58.37c1.72-2.58-1.67-6.66-3.64-6.69-.17-.81-1.33-2.84-3.47-2.76-.54-2.31-4.5-5.68-7.59-4.55-.37-1.5-2.92-3.34-4.46-2.14-.06-.65-1.41-2.79-3.49-2.06.05-.84.04-2.67-2.21-3.33-.02-1.49-1.32-4.46-4.23-3.78,0,0,.2-2.43-2.39-2.87.51-2.85-2.69-5.91-5.09-4.97-.09-.52.2-1.51-.9-1.97.46-1.1-.36-4.03-2.01-3.92-.29-1.55-2.27-2.14-2.27-2.14-.81-2.02-2.85-3.96-4.97-2.05-1.18-.89-2.21-.35-2.86.25-.73,3.43,1.48,6.21,6.24,5.85,0,0,8.38,16.49,31.52,31.95,5.61,3.6,10.01,6.54,13.62,9.26.86-1.16.66-3.19-1.81-4.1ZM14.04,21.1c-.88.19-1.54-.45-1.91-1.24-.78.34-1.77.21-2.53-.07-.58-.22-1.72-.8-1.35-1.61.83-1.85,4.03-1.01,4.01.9.81-1.13,3.18-.45,2.68,1.07,1.32-.09,3.12,1.47,2.08,2.72-1.23,1.47-3.15-.28-2.97-1.78ZM20.56,31.6c-.03-.09-.09-.44-.18-.44-.16,0-.35,0-.5-.08-.35-.18-.6-.47-.72-.85-.09-.26-.13-.51-.13-.79,0-.23.15-.36-.11-.43-.36-.1-.66-.33-.92-.6-.81-.83-1.23-3.13.58-2.56.08.02.07.07.02.1.85.09,1.6.84,1.53,1.73.72-.57,1.69-.65,2.36.17.67.82.69,1.93-.08,2.6.49.05.77.53.6,1.05.6-.14,1.24.02,1.67.49.38.41.7,1.17.15,1.6-1.48,1.15-3.73-.61-4.28-2.01ZM29.2,40.1c-1.07.39-2.04-.89-1.44-1.87-.63.06-1.3-.36-1.11-1.11.2-.78.96-.83,1.66-.67.02-.06.13-.13.21-.12,1.73.19,2.83,1.5,2.08,3.13.78-.11,1.38.51.81,1.12.66-.06,1.34.14,1.79.66.48.55.5,1.21-.19,1.57-1.57.83-3.83-1.08-3.81-2.72ZM38.78,48.03c-1.25.42-2.25-.84-1.88-1.95-1.02.25-2.56-.43-1.85-1.66.4-.68,1.37-.53,2.18-.49,1.52-.52,3.28.72,2.04,2.06.37,0,.74.14.7.61-.06.7-.54,1.21-1.19,1.43ZM47.56,52.12c-.5.69-1.28,1.01-2.14.55-.68-.35-1.1-1.16-.81-1.84-.43.15-.8,0-1.07-.56-.6-1.23-1.41-2.37-2.44-3.27,0,.01,0,.02,0,.03.04.12-.27.17-.3.05-.48-1.71,2.32-1.65,3.29-1.44,1.63.36,3.04,1.51,2.01,3.12.69-.13,1.22.25,1.04,1.01,1.67-.59,4.42.97,3.86,2.9-.62,2.15-3.1,1.19-3.44-.54ZM54.38,59.13c-.58.19-1.24-.22-1.7-.53-.66-.44-1.58-.98-2.04-1.62-.8-1.12.31-1.75,1.43-1.91-.01-.05.03-.1.12-.12.27-.05.59,0,.89.11.14.02.27.05.38.09.08.03.07.07.02.11.57.36.9.99.3,1.62-.11.12-.23.23-.38.31.06.02.11.03.17.06.32.15.64.34.88.61.35.38.58,1.05-.07,1.27Z"/>
        <path class="cls-6" d="M78.05,81.99c-.2-1.02-.56-2.53-2.74-2.63-.98-3.36-3.13-2.78-3.94-2.43,4.52,6.51,6.63,8.58,11.18,8.1,1.11-2.38-1.97-4.9-4.49-3.05ZM80.15,84.44c-1.3-.21-2.32-.86-3.34-1.62-.09.02-.18,0-.16-.09,0,0,0-.02,0-.03-.08-.06-.17-.13-.25-.19-.67-.51-1.41-1-1.94-1.65-.19-.23-.85-1-.59-1.37.12-.17.33-.22.52-.1.4.24.59.58.72.97.22-.34.67-.4,1.18-.18.89.39.93,1.29.78,2.1.59-.37,1.54-.24,1.97.32.56-1.41,3.1-.09,2.75,1.03.05,0,.08.03.08.07.05.87-1.11.83-1.71.74Z"/>
        <g>
          <g>
            <g>
              <path class="cls-5" d="M58.83,50.08s0,.04,0,.06c.08-.2.16-.4.26-.59-.02-.04-.03-.07-.05-.11-.42-.89-.92-1.75-1.34-2.64-1.56-.96-3.25-1.95-5.11-2.99-2.23-1.01-4.2-1.98-5.98-2.91-.29.25-.59.51-.86.77.1.93-.26,2.11-.67,3.05.3.16.56.18.56.18-1.05,2.87.39,5,1.6,4.64-.45,2.93,2.48,2.21,3.17,1.67.33,2.07,1.82.38,2.41-.57.76,2.72,2.39,1.51,3.38.5.66,1.68,2.3-.49,2.63-1.06Z"/>
              <path class="cls-19" d="M46.47,41.04c1.87.98,3.88,1.96,6.04,2.94,2.01,1.12,3.77,2.16,5.35,3.14-.1-.2-.21-.4-.3-.6,0,0,0,0,0-.01-1.46-.9-3.07-1.84-4.89-2.85-2.11-.96-4.08-1.92-5.91-2.87-.1.08-.19.17-.29.26Z"/>
              <path class="cls-19" d="M57.27,51.84c.56-.26,1.14-.96,1.45-1.43,0,.02,0,.03,0,.04.05-.17.11-.34.18-.5-.01-.02-.01-.04-.03-.04-.04,0-.08.05-.11.11-.17.3-.81,1.2-1.43,1.49-.44.21-.78.06-1-.44l-.03-.06s-.07-.04-.12,0c-1.61,1.64-2.71,1.47-3.26-.5,0-.03-.03-.05-.06-.04-.03.01-.07.04-.1.09-.27.43-.86,1.2-1.38,1.41-.45.18-.75-.12-.87-.88,0-.06-.05-.07-.1-.03-.51.4-2.44.95-2.98-.29-.14-.33-.18-.76-.1-1.29.01-.08-.02-.12-.07-.11-.59.17-1.23-.27-1.6-1.11-.41-.93-.39-2.16.05-3.36.02-.06.02-.11,0-.14,0-.02-.02-.03-.04-.03,0,0-.25-.02-.55-.18-.05.11-.1.22-.15.33.2.1.38.16.48.18-.42,1.26-.43,2.52-.01,3.48.37.85,1.02,1.31,1.63,1.19-.07.54-.02.98.13,1.32.56,1.27,2.42.79,3.08.37.15.79.49,1.09,1,.88.5-.2,1.06-.84,1.44-1.4.59,1.95,1.73,2.09,3.38.45.25.56.63.72,1.14.48Z"/>
            </g>
            <path class="cls-6" d="M58.61,50.35c0,.14.02.28.04.4.1-.43.25-.83.44-1.2-.02-.04-.03-.07-.05-.11-.05-.11-.11-.21-.16-.31-.02.04-.05.07-.08.1-.1.2-.28.39-.51.54-.56.36-1.28.57-1.58.18-.41-.53.13-1.61.82-2.03.28-.17.5-.17.68-.1-.14-.26-.27-.53-.4-.8-2.26-1.31-4.86-2.71-7.96-4.31-1.22-.49-2.35-1.06-3.42-1.64-.23.2-.46.4-.68.61.11,1.05-.35,2.41-.83,3.39.23.11.45.16.58.13-1.17,2.52.09,4.65,1.61,4.42-.21,1.37,1.3,3.15,2.94,1.91.61,1.77,2.08.31,2.85-.9.64,2.58,2.67,1.66,3.27.45.72,1.47,2.05.05,2.44-.72ZM46.37,46.06c-.31-.33-.79-1.92-.01-2.92.67-.86,1.03-.57,1.3-.13.41.27.72.78.49,1.65-.41,1.58-1.3,1.9-1.78,1.4ZM47.85,50.63c-.22-.49-.29-1.45.44-1.68.48-.33.91-.27,1.2,0,.24.23.65.82.15,1.63-.7,1.12-1.55.58-1.79.06ZM54.39,48.19c-.39.13-.69-.24-.91-.49-.22-.25-.44-.53-.61-.86-.94,2.25-3.04,1.81-2.32-.14-.95,1-2.03.64-2.16-.43-.08-.62.03-1.6.66-2.19.46-.42.85-.31,1.13-.09,1.04-.73,1.79.31,2,1.3.03.15.06.33.05.52,0,.06.04-.01.16-.08.23-.13.44-.21.65-.25.62-.12,1.24-.07,1.65.31.3.27.57.71.34,1.54-.13.46-.35.77-.64.86ZM52.14,51.22c-.59.65-1.27.91-1.51.34-.14-.32-.02-.67.19-.97-.02-.02,0-.06.05-.13.54-.68,1.21-1,1.58-.74.34.24.23.91-.31,1.5Z"/>
          </g>
          <g>
            <g>
              <path class="cls-5" d="M39.03,29.11c.17,3.49,3.66,5.17,3.66,5.17-1.44,3.03,1.82,7.21,4.11,7.77-.25,3.64,5.31,5.19,6.56,5.05,1.09,3.14,3.64,2.1,4.6,1.31,2.06,4.4,4.99,4.16,6.72,3.62,1.66,2.89,4.4,1.33,4.91.81.73,4.07,4.34,4.44,5.22,4.53.26,1.28,1.52.31,1.88.39,1.2,3.61,3.69,4.12,5.65,3.36-6.46-6.27-15.06-13.45-26.28-22.31-7.44-5.41-13.6-10.11-18.76-14.21-.54.89-1.12,2.75,1.73,4.51Z"/>
              <path class="cls-19" d="M43.15,39.15c-1.02-1.68-1.28-3.41-.72-4.78-.48-.27-1.87-1.12-2.78-2.62-.48-.79-.75-1.64-.81-2.52-.8-.51-1.4-1.06-1.76-1.66h0c-.79-1.3-.31-2.48.05-3.06.03-.05.08-.08.13-.09.06-.01.12,0,.16.04,5.48,4.36,11.78,9.14,18.75,14.21,12.2,9.62,20.31,16.51,26.3,22.33.05.05.07.12.06.18-.01.07-.06.12-.12.14-2.05.8-3.99.11-5.18-1.86-.26-.43-.49-.92-.68-1.47-.08.02-.19.06-.27.09-.45.16-1.14.39-1.5-.21-.05-.08-.09-.18-.12-.29-2.08-.23-3.59-1.1-4.49-2.58-.32-.52-.55-1.11-.7-1.77-.51.37-1.5.82-2.54.7-.95-.11-1.73-.66-2.33-1.64-2.87.83-5.13-.36-6.7-3.55-.62.44-1.58.83-2.51.67-.96-.16-1.69-.87-2.15-2.09-1.2.02-4.75-.94-6.11-3.18-.37-.6-.54-1.25-.53-1.93-1.18-.36-2.54-1.56-3.45-3.05ZM42.86,34.18c.03.05.04.12.01.19-.61,1.27-.38,2.94.62,4.58.89,1.47,2.24,2.64,3.36,2.91.1.02.16.11.15.21-.05.66.11,1.28.46,1.86,1.32,2.17,4.96,3.08,5.88,2.98.09,0,.18.04.21.13.4,1.15,1.05,1.82,1.89,1.97.97.17,1.96-.39,2.39-.74.05-.04.11-.05.17-.04.06.01.11.05.13.11,1.49,3.19,3.69,4.38,6.48,3.51.09-.03.18.01.23.09l.07.11c.54.88,1.23,1.37,2.05,1.47,1.15.14,2.22-.55,2.48-.81.05-.05.13-.07.2-.05.07.02.12.08.14.15.46,2.59,2.21,4.09,5.04,4.37.09,0,.16.07.17.16.03.13.06.23.11.31.19.31.55.21,1.04.05.24-.08.43-.15.59-.11.07.01.12.06.14.13.19.58.43,1.09.7,1.53,1.03,1.69,2.66,2.35,4.4,1.8-5.96-5.76-14.01-12.59-26.04-22.07-6.89-5.01-13.14-9.74-18.58-14.07-.32.62-.51,1.5.07,2.46.34.56.91,1.09,1.71,1.58.05.03.09.09.09.16.04.86.3,1.68.76,2.44,1.04,1.7,2.77,2.55,2.79,2.56.03.02.06.04.08.08Z"/>
            </g>
            <path class="cls-19" d="M46.05,38.17c-2.14-.98-3.49-3.42-3.08-5.73.01-.06-.17-.07-.19-.03-.91,2.23.8,5.2,3.05,5.86.06.02.38-.03.22-.11Z"/>
            <path class="cls-19" d="M51.7,41.33c-1.61.1-2.84-.31-3.61-1.78-.44-.83-.33-1.79-.07-2.65.02-.06-.22-.09-.25-.03-1.31,2.82,1.2,5.46,4.14,4.65.23-.07-.13-.2-.22-.19Z"/>
            <path class="cls-19" d="M55.4,45.2c-.92.33-1.86-.11-2.35-.88-.28-.44-.35-1-.47-1.5-.03-.14-.53-.17-.54,0-.06,1.85,1.87,3.29,3.62,2.53.19-.09-.16-.17-.26-.14Z"/>
            <path class="cls-19" d="M61.95,46.57c-.68.05-1.26.16-1.9-.17-.81-.42-1.19-1.15-1.58-1.93-.03-.05-.23-.08-.23,0-.07,1.91,2.3,2.95,3.89,2.27.19-.08-.11-.17-.19-.17Z"/>
            <path class="cls-6" d="M50.47,34.92c-4.98-3.46-9.4-7.12-13.29-10.17-.23,1.17-.55,3.33,1.95,4.47-1.09,2.4,2.37,5.04,3.37,5.35-1.75,2.45,1.16,6.47,4.08,7.47-.13,1.7,3.2,5.46,6.15,5.17,1.58,2.97,4.13,2.23,5.38,1.24,1.81,4.11,5.57,4.6,6.5,3.45,1.73,2.65,4.01,1.84,4.62,1.13.68,3.4,4.42,4.02,5.31,4.17.32,1.66,1.67.84,2.06.72,1.36,2.93,3.5,3.87,5.64,2.97-7.18-6.88-16.86-14.59-31.76-25.98ZM44.38,36.51c-.68-.72-1.95-3.33-.65-4.03,1.12-.61,1.88.1,2.51.95.86.73,1.58,1.69,1.32,2.7-.47,1.82-2.15,1.48-3.18.39ZM48.23,44.08c-.54-.87-.86-2.24.51-1.93.86-.05,1.73.42,2.34,1.03.52.53,1.45,1.7.64,2.37-1.13.93-2.92-.55-3.49-1.47ZM56.76,48.61c-1.02.38-2.29.16-2.88-.85-.34-.56-.19-.94.16-1.16-.04-.04-.03-.09.07-.14.92-.46,2.15-.33,2.94.36.72.63.64,1.45-.29,1.79ZM60.5,46.39c-.74-.17-1.39-.92-1.87-1.46-.49-.54-.97-1.11-1.38-1.72-1.37,2.28-5.56-.15-4.57-2.21-1.64.56-3.84-.89-4.32-2.47-.28-.91-.28-2.18.84-2.43.8-.18,1.61.31,2.19.86,1.87-.11,3.56,1.98,4.19,3.52.09.24.18.5.2.76,0,.08.07.02.29.02.42.02.82.09,1.22.21,1.18.37,2.4.98,3.3,1.86.63.62,1.27,1.47.99,2.41-.16.52-.53.75-1.06.63ZM68.47,51.95c-1.01,0-2.37-.32-3.06-1.12-.92-1.09-.09-2.1,1.17-2.08,1.16.01,1.96.87,2.5,1.82,0,0,.01,0,.02.01.26.29.38.55.37.77.02.04.03.08.05.11.04.1-.07.17-.18.19-.16.18-.46.3-.88.3Z"/>
          </g>
        </g>
      </g>
    </g>
  </g>
</svg>