<?xml version="1.0" encoding="UTF-8"?>
<svg xmlns="http://www.w3.org/2000/svg" xmlns:xlink="http://www.w3.org/1999/xlink" viewBox="0 0 100 100">
  <defs>
    <style>
      .cls-1 {
        fill: #e7a3ae;
      }

      .cls-2 {
        fill: #edf5f8;
      }

      .cls-3 {
        fill: #03304c;
      }

      .cls-4 {
        opacity: .3;
      }

      .cls-5, .cls-6 {
        fill: #fff;
      }

      .cls-6, .cls-7 {
        opacity: .1;
      }

      .cls-6, .cls-8 {
        mix-blend-mode: overlay;
      }

      .cls-9 {
        fill: #ffb7c0;
      }

      .cls-10 {
        opacity: .4;
      }

      .cls-11 {
        fill: none;
      }

      .cls-12, .cls-13 {
        fill: #d2d3d7;
      }

      .cls-12, .cls-14 {
        opacity: .5;
      }

      .cls-15 {
        fill: #4b9ebc;
      }

      .cls-16 {
        fill: #b77e88;
      }

      .cls-17 {
        fill: #f9cfd4;
      }

      .cls-18 {
        fill: #7789a1;
      }

      .cls-19 {
        fill: #a65252;
      }

      .cls-20 {
        isolation: isolate;
      }

      .cls-21 {
        fill: #147484;
      }

      .cls-22 {
        fill: #ffa1b3;
      }

      .cls-7, .cls-23 {
        fill: #1f1e21;
      }

      .cls-24 {
        fill: #d6929f;
      }

      .cls-25, .cls-23 {
        opacity: .2;
      }

      .cls-26 {
        fill: #ffb8be;
      }

      .cls-27 {
        fill: #093e66;
      }

      .cls-8 {
        opacity: .6;
      }

      .cls-28 {
        fill: #e1a5ad;
      }

      .cls-29 {
        clip-path: url(#clippath);
      }
    </style>
    <clipPath id="clippath">
      <rect class="cls-11" x="2.06" y="1.43" width="96.31" height="96.31"/>
    </clipPath>
  </defs>
  <g class="cls-20">
    <g id="Layer_2" data-name="Layer 2">
      <g class="cls-29">
        <g>
          <g>
            <path class="cls-18" d="M101.42,132.3c0,1.41-.13,2.81-.44,4.18-.63,2.84-2.07,5.53-4.27,7.35-4.86,4.04-12,3.52-17.84,3.65-8.64.18-17.23.37-25.85-.13-7.48-.41-14.95.23-22.36,1.15-6.56.82-13.61.63-19.25-3.48-.11-.08-.22-.17-.33-.25-.07-.06-.15-.12-.23-.18-.15-.12-.3-.25-.45-.38-.2-.18-.39-.36-.58-.55-.1-.1-.2-.2-.29-.3-.08-.08-.16-.17-.23-.25-.03-.04-.07-.07-.1-.11-.08-.09-.16-.17-.23-.27-.06-.07-.12-.14-.17-.21-.48-.58-.91-1.2-1.29-1.84-.6-.99-1.1-2.05-1.5-3.17-1.06-2.91-1.45-6.14-1.25-9.29.05-.78.14-1.56.27-2.33.06-.35.12-.7.2-1.05.02-.12.05-.23.07-.34.22-1.02.49-2.02.81-3.01.54-1.67,1.2-3.3,1.94-4.89.07-.13.13-.27.2-.4.11-.23.22-.46.33-.68.11-.23.23-.45.34-.68.23-.45.47-.89.72-1.33.12-.23.25-.45.37-.67.37-.65.75-1.31,1.14-1.95,1.24-2.05,2.81-3.89,3.83-6.04,1.22-2.58,2.61-5.07,4.17-7.44,0-.02-.02-.04-.03-.06-2.11-4.16-3.45-8.78-3.68-13.66-.03-.61-.04-1.23-.03-1.85.05-4.1.82-8.19,2.86-11.78.37-.65.84-1.24,1.3-1.83.38-.48.66-1.04,1.11-1.43.85-.74,1.77-1.46,2.53-2.29,3.95-4.34,6.88-9.56,11.08-13.7.66-.65,1.25-1.15,2.09-1.53.91-.41,1.86-.71,2.81-1,3.41-1.05,6.98-1.54,10.54-1.67.74-.03,1.48-.04,2.22-.03,1.73,0,3.36.17,4.9.47,2.9.57,5.47,1.62,7.85,3.04,1.36.81,2.64,1.73,3.89,2.75,10.35,8.48,19.89,15.35,19.89,29.01,0,.93-.03,2.01-.11,3.17-.37,5.82-1.64,13.91-3.63,17.82.05.08.11.16.16.24,1.09,1.65,2.14,3.34,3.09,5.08.63,1.15.95,2.6,1.74,3.61,1.17,1.49,3.01,2.36,4.38,3.67,1.25,1.21,2.38,2.57,3.35,4.04.22.33.43.67.63,1.01.29.48.56.97.81,1.49.66,1.31,1.2,2.7,1.62,4.13.58,2,.9,4.1.91,6.17Z"/>
            <path class="cls-6" d="M26.38,77.34c-.05,2.31.17,4.91,1.92,6.43,1.76,1.53,4.38,1.38,6.68,1.02,12.37-1.94,24.15-7.43,33.58-15.66-8.24,4.26-16.9,7.68-25.83,10.2-1.98.56-4.06,1.07-6.06.62-4.49-1.03-6.24-6.35-6.81-10.44-.5-3.61-.17-7.28.23-10.91-.15,1.32-1.03,2.63-1.41,3.9-.47,1.61-.88,3.23-1.21,4.87-.66,3.28-1.03,6.62-1.1,9.97Z"/>
            <path class="cls-6" d="M42.28,97.64c9.86-1.81,18.78-9.11,24.67-17.05,1.33-1.8,2.54-3.69,3.6-5.65-3.58,4.56-8.26,8.19-13.37,10.94-5.11,2.74-10.65,4.62-16.28,5.97-2.65.64-5.4,1.19-7.72,2.62-1.51.93-2.99,2.41-3.54,4.14-.62,1.92-.37,4.14-.38,6.13,0-.49,1.93-1.78,2.32-2.09.87-.69,1.78-1.32,2.72-1.89,1.95-1.18,4.05-2.1,6.24-2.73.57-.16,1.15-.29,1.73-.39Z"/>
            <path class="cls-6" d="M73.6,94.66c2.1-5.56.79-11.74.63-17.69,4.6,8.37,5.24,18.81,1.68,27.68-3.55,8.87-11.22,15.98-20.33,18.86-3.9,1.23-8,1.72-11.92,2.88-3.92,1.16-7.81,3.15-10.05,6.58-1.51-4.75.34-10.1,3.65-13.83,3.31-3.73,7.88-6.1,12.49-7.99,4.61-1.89,9.41-3.41,13.76-5.85s8.33-5.97,10.09-10.63Z"/>
            <path class="cls-7" d="M64.69,50.11l-.15,1.98c-.3,5.06-2.96,9.39-6.8,11.89-2.07,1.35-4.49,2.17-7.06,2.28-.51.02-1.02.02-1.53-.02h-.19s-5.51-.37-5.51-.37c-3.37-.22-6.4-1.61-8.74-3.78-1.88-1.74-3.31-3.97-4.12-6.48.63-.91,1.26-1.85,1.84-2.66,1.71-2.41,4.17-4,7.36-4.99,3.28-1.02,7.33-1.39,12.17-1.37,1.73,0,3.36.17,4.9.47,2.9.57,5.48,1.63,7.85,3.04Z"/>
            <path class="cls-7" d="M72.72,67.26c-3.85,9.54-13.54,15.56-22.4,19.18-5.34,2.18-10.88,3.73-16.39,5.32-5.15,1.49-10.11,2.85-14.82,5.61h0c-2.11-4.16-3.46-8.78-3.68-13.66.15.12.29.25.45.34,3.66,1.93,12.04,4.81,22.5,2.49,12.82-2.84,24.71-5.67,34.33-19.28Z"/>
            <path class="cls-21" d="M19.11,97.37s.21-.13.61-.37c.4-.24.99-.59,1.76-.98,1.54-.8,3.82-1.82,6.65-2.76,1.41-.47,2.95-.95,4.58-1.44,1.63-.49,3.35-1,5.13-1.54,3.56-1.06,7.34-2.23,11.01-3.68l1.37-.54c.46-.19.91-.38,1.37-.57.9-.4,1.79-.78,2.66-1.22.88-.41,1.72-.87,2.57-1.31.82-.47,1.65-.92,2.43-1.42,1.57-.96,3.04-1.99,4.37-3.03.33-.26.65-.53.97-.78.32-.26.61-.54.91-.8.61-.52,1.14-1.07,1.66-1.59.53-.52.97-1.07,1.43-1.57.43-.51.82-1.03,1.19-1.49.35-.48.66-.96.96-1.39.15-.21.28-.43.4-.63.12-.21.23-.4.34-.59.45-.74.72-1.36.93-1.78.2-.42.31-.64.31-.64,0,0-.1.23-.27.66-.19.42-.41,1.07-.84,1.83-.1.19-.21.4-.32.61-.11.21-.23.44-.37.66-.28.44-.57.93-.9,1.44-.36.49-.72,1.02-1.14,1.56-.22.26-.44.53-.67.8-.23.27-.46.56-.72.82-.52.54-1.04,1.12-1.64,1.66-.3.27-.59.56-.9.84-.32.27-.64.54-.97.82-.32.28-.67.55-1.02.81-.35.27-.7.55-1.06.81-.73.52-1.49,1.05-2.29,1.53-.78.51-1.61.97-2.45,1.46-.85.45-1.7.92-2.58,1.35-.87.44-1.78.85-2.69,1.26-.45.19-.91.39-1.36.58-.47.19-.92.38-1.39.56-3.72,1.43-7.53,2.57-11.1,3.6-3.57,1.03-6.94,1.88-9.77,2.75-1.42.44-2.7.87-3.83,1.29-1.13.42-2.09.83-2.88,1.19-.79.36-1.4.66-1.81.88-.41.22-.63.33-.63.33Z"/>
            <path class="cls-7" d="M29.2,57.46c-.24.61-.57,1.2-.82,1.74-.59,1.31-1.09,2.66-1.49,4.05-.4,1.38-.71,2.79-.92,4.22-.18,1.24-.56,2.93-.33,4.17-.59-3.19-.73-6.5-.5-9.77,1.31-1.33,2.65-2.73,3.98-4.31.03-.03.05-.06.08-.1Z"/>
            <path class="cls-21" d="M29.26,57.4s-.09.21-.25.58c-.17.36-.39.89-.64,1.52-.13.31-.26.66-.4,1.03-.14.37-.26.76-.41,1.16-.13.41-.27.82-.4,1.25-.14.43-.25.87-.37,1.31-.23.88-.43,1.77-.6,2.6-.07.42-.16.82-.22,1.21-.07.39-.13.75-.17,1.09-.09.68-.17,1.24-.21,1.64-.05.4-.07.63-.07.63,0,0,0-.23,0-.63,0-.2,0-.44.02-.72,0-.28.02-.59.05-.94.02-.34.06-.71.11-1.11.04-.39.1-.8.17-1.23.08-.42.14-.86.25-1.31.09-.44.2-.89.31-1.34.13-.44.24-.89.39-1.32.13-.43.29-.85.43-1.26.3-.81.63-1.54.92-2.16.14-.31.29-.59.42-.84.13-.25.25-.46.35-.63.2-.34.32-.54.32-.54Z"/>
            <g>
              <path class="cls-7" d="M21.91,125.72c-.02-.5-.01-1,0-1.49.22-5.32,2.34-10.49,5.71-14.48,3.74-4.42,9.03-6.98,14.28-8.9,3.2-1.17,6.37-2.44,9.49-3.81,5.22-2.3,10.31-5.51,13.39-10.46-2.24,4.59-6.13,8.09-10.34,10.79-3.22,2.07-6.6,3.86-10.04,5.51-3.26,1.56-6.88,2.7-9.71,5.06-1.76,1.47-3.36,3.16-4.75,5.01-2.15,2.87-3.85,6.22-4.5,9.83-.78,4.35.41,9.33,3.86,11.92-1.7-1.27-3.88-1.86-5.39-3.41-1.46-1.5-1.93-3.53-2.01-5.57Z"/>
              <path class="cls-21" d="M64.58,87.33s-.19.35-.53.95c-.09.15-.18.32-.28.5-.11.17-.24.36-.37.57-.13.2-.27.42-.42.65-.15.23-.33.45-.51.69-.18.24-.36.49-.56.74-.21.24-.42.5-.64.76-.11.13-.22.26-.34.4-.12.13-.24.26-.36.39-.25.26-.5.52-.76.79-.55.5-1.09,1.05-1.7,1.54-.59.52-1.22.99-1.85,1.48-.65.45-1.29.92-1.95,1.33-.65.43-1.31.82-1.95,1.2-.65.37-1.27.71-1.88,1.02-.61.31-1.18.6-1.72.85-.53.26-1.03.48-1.47.67-.44.19-.83.36-1.15.49-.64.26-1.01.4-1.01.4,0,0,.36-.17.98-.47.62-.3,1.51-.74,2.56-1.28.53-.26,1.09-.57,1.68-.9.59-.32,1.2-.69,1.84-1.06.63-.39,1.28-.78,1.92-1.21.65-.42,1.28-.89,1.92-1.34.62-.48,1.26-.94,1.84-1.45.61-.48,1.15-1.01,1.7-1.51.26-.26.52-.52.77-.77.13-.12.25-.25.37-.37.12-.13.23-.25.34-.38.23-.25.45-.49.66-.73.21-.24.39-.48.58-.71.18-.23.37-.45.53-.66.16-.22.31-.42.45-.62.14-.19.27-.38.4-.54.11-.17.22-.34.31-.48.38-.58.59-.91.59-.91Z"/>
            </g>
            <g>
              <path class="cls-28" d="M65.22,41.94c.13,1.11.35,2.51,1.35,3.14.69.44,1.79.43,2.37-.19.39-.42.58-1.01.67-1.59s.11-1.17.23-1.74c.28-1.38,1.11-2.55,1.8-3.76.69-1.21,1.27-2.62.98-3.99-.27-1.25-1.31-2.29-2.53-2.48-1.08-.17-2.2.31-2.99,1.1-.79.79-1.28,1.86-1.56,2.96-.61,2.41-.76,5.2-.15,7.63"/>
              <path class="cls-16" d="M68.15,33.51c.09-.11.19-.2.3-.28,0-.01-.01-.02-.01-.02,0,0,0,0,.02.02.28-.2.61-.32.93-.29.45.03.82.26,1.1.51.29.25.49.54.63.81.15.27.23.53.29.74.05.22.07.39.07.51,0,.12,0,.18,0,.18,0,0,0-.06-.02-.18,0-.12-.05-.28-.11-.49-.07-.2-.17-.45-.33-.7-.16-.25-.37-.51-.64-.73-.27-.22-.62-.41-1-.41-.25,0-.5.08-.72.24.08.08.17.17.27.3.14.16.27.38.4.62.06.12.12.25.17.38.05.13.09.27.14.41.03.14.07.28.09.42.03.14.04.28.05.42.02.27.01.53-.02.74-.02.21-.07.39-.1.51-.04.12-.06.19-.06.19,0,0,0-.07,0-.2,0-.13,0-.3-.02-.51,0-.1-.02-.22-.03-.33,0-.12-.03-.24-.05-.37-.04-.25-.1-.52-.17-.78-.07-.26-.16-.52-.26-.76-.05-.12-.1-.23-.15-.34-.05-.11-.1-.21-.15-.3-.07-.14-.14-.26-.2-.35-.09.07-.17.15-.24.24-.28.32-.44.77-.5,1.23-.05.47,0,.95.12,1.43.1.48.26.95.39,1.43.13.48.26.96.25,1.46,0,.25-.05.5-.15.72-.1.23-.25.41-.39.57-.14.16-.28.31-.39.46-.11.15-.18.32-.22.49-.03.17-.01.33.06.46.08.13.2.21.33.25.27.08.52-.03.68-.16.16-.13.26-.28.31-.38.06-.1.08-.16.08-.16,0,0-.02.06-.07.17-.05.1-.13.26-.29.42-.16.15-.42.29-.74.23-.15-.03-.33-.12-.43-.28-.11-.16-.14-.38-.11-.58.03-.2.11-.4.23-.58.12-.18.26-.33.39-.49.13-.16.25-.33.32-.52.07-.19.11-.4.11-.62,0-.44-.13-.91-.26-1.37-.14-.47-.3-.94-.41-1.44-.11-.5-.17-1.02-.1-1.54.06-.51.25-1.01.58-1.38Z"/>
            </g>
          </g>
          <path class="cls-23" d="M101.42,132.3c0,1.41-.14,2.81-.44,4.18-.64,2.84-2.08,5.53-4.27,7.35-4.86,4.04-12,3.53-17.85,3.65-8.64.18-17.23.37-25.85-.13-7.48-.41-14.95.23-22.36,1.16-6.56.81-13.61.63-19.25-3.48-.11-.08-.22-.17-.33-.25-.08-.06-.15-.12-.23-.18-.15-.12-.3-.25-.45-.38-.2-.18-.39-.36-.58-.55-.1-.1-.2-.2-.29-.3-.08-.08-.16-.17-.23-.25-.04-.04-.07-.07-.1-.11-.08-.09-.16-.17-.23-.27-.06-.07-.12-.14-.17-.21-.48-.58-.91-1.2-1.29-1.84-.6-.99-1.1-2.05-1.5-3.17-1.06-2.91-1.45-6.14-1.25-9.29.43-2.25.94-4.49,1.35-6.73.02-.11.04-.22.06-.33.28-1.53,1.17-3.13,1.88-4.56.07-.14.13-.27.2-.4.11-.23.22-.46.33-.68.11-.22.23-.45.34-.68.23-.45.47-.89.71-1.33.12-.22.25-.44.37-.66.37-.66.75-1.31,1.14-1.95,1.24-2.05,2.81-3.89,3.83-6.05,1.22-2.58,2.61-5.07,4.18-7.44,0-.02-.02-.04-.03-.06-2.11-4.16-3.46-8.78-3.68-13.66-.02-.61-.04-1.23-.03-1.85.13-10.59,4.63-14.81,9.74-20.01,1.12-1.13,2.26-2.32,3.4-3.63-.49,1.17-.91,2.38-1.27,3.6-.71,2.42-.72,4.88-1.35,7.28-.32,1.23-.57,2.47-.73,3.73-.33,2.53-.29,5.07.01,7.59.22,1.84.19,3.45.14,5.28-.12,4.05,5.64,4.75,8.06,2.41.6-.58,1.05-1.31,1.48-2.03,2.61-4.4,4.68-9.11,6.14-14.01-.31,2.25-.65,4.51-1.11,6.73-.46,2.22-1.33,4.43-2,6.6-.17.54-.33,1.08-.52,1.61-.96,2.74-2.47,5.25-4.04,7.69-.96,1.5-1.93,3.06-2.75,4.63-.49.94-.78,2.1-.31,3.05.33.67.99,1.13,1.69,1.38s1.46.31,2.2.37c-.38-.03-1.39.93-1.7,1.16-.58.43-1.15.88-1.7,1.35-1.1.94-2.14,1.96-3.18,2.97-2.24,2.18-5.38,4.91-6.54,7.88-1.17,2.98-3.03,5.71-3.71,8.9-.32,1.53-.39,3.1-.41,4.66-.02,1.94.04,3.91.59,5.77.81,2.78,2.69,5.19,5.08,6.83s5.25,2.52,8.14,2.7c-4.27-2.59-7.64-6.62-9.43-11.28,1.6,2.58,4.31,4.24,6.99,5.67,3.23,1.73,6.7,3.01,10.3,3.69,3.63.69,7.14.45,10.79.43,3.31-.02,6.66.84,9.97,1.25,7.36.91,14.79,1.24,22.2.98,3.59-.12,7.28-.43,10.76-1.35.66-1.41,1.07-2.91,1.26-4.46.12-1.02.15-2.07.09-3.13-.14-2.44-1.77-5.09-3.17-6.99-2.33-3.15-5.36-5.74-7.31-9.16-2.08-3.63-2.34-7.75-3.97-11.5-.22-.51-1.11-2.7-1.67-2.77-.31-.04-.58.18-.81.39-1.61,1.47-3.11,3.08-4.47,4.79,1.48-1.73,2.42-4.24,3.01-6.4.19-.67.34-1.39.18-2.07-.2-.85-.87-1.52-1.6-2.02-.82-.56-1.89-1.25-2.82-1.58-.89-.31-1.08.11-1.2-.8-.13-1.04.25-2.07-.02-3.18-.66-2.78-2.69-5-4.18-7.39-1.12-1.79-2.18-3.62-3.18-5.49-.97-1.8-1.46-3.56-2.13-5.48-.76-2.18-1.51-4.36-2.27-6.53.26.75,1.16,1.57,1.65,2.2.6.77,1.2,1.54,1.85,2.27,1.25,1.43,2.61,2.77,4.17,3.86,2.53,1.77,10.68,5.04,9.96-.89-.77-6.3-3.24-11.79-5.84-17.49-.99-2.17-2.01-4.32-3.07-6.45-.8-1.61-1.72-4.26-3.45-5.1,5.38,2.64,10.18,6.55,13.94,11.35,5.29,6.76,8.38,15.01,11.08,23.32.43,1.34.86,2.69,1.29,4.03.32,1.02.65,2.03.96,3.05,1.69,5.36,3.36,10.72,4.9,16.13.77,2.71,1.5,5.42,2.18,8.15.45,1.78.73,3.73,1.2,5.59.37,1.47.85,2.89,1.62,4.13.58,2,.9,4.1.91,6.17Z"/>
          <g>
            <g>
              <path class="cls-28" d="M64.18,37.8c.45,1.27,1.07,2.86,2.42,3.33.93.33,2.22,0,2.75-.9.35-.61.42-1.36.38-2.07-.04-.71-.17-1.41-.19-2.13-.03-1.71.65-3.33,1.15-4.96.5-1.63.82-3.46.11-5-.64-1.4-2.15-2.33-3.64-2.21-1.32.11-2.52.99-3.24,2.15-.73,1.16-1.02,2.56-1.06,3.95-.09,3.03.47,6.37,1.82,9.06"/>
              <path class="cls-16" d="M65.43,27c.07-.15.17-.29.28-.42-.01-.01-.02-.02-.02-.02,0,0,.01,0,.03.01.28-.32.64-.55,1.03-.61.54-.09,1.04.07,1.44.29.41.21.72.5.96.78.25.27.42.56.54.79.12.24.19.44.21.58.03.14.05.21.05.21,0,0-.02-.07-.07-.21-.04-.14-.13-.32-.26-.55-.14-.22-.31-.48-.57-.73-.25-.25-.57-.5-.95-.68-.38-.18-.84-.3-1.29-.2-.3.06-.57.24-.79.49.12.07.25.16.4.28.2.16.42.37.63.61.1.13.21.25.3.4.1.14.18.29.27.44.08.16.16.31.22.47.07.16.12.32.17.48.09.32.15.62.17.88.03.26.03.48.02.63-.01.15-.02.24-.02.24,0,0-.02-.08-.05-.23-.03-.15-.08-.35-.15-.59-.03-.12-.08-.25-.12-.39-.04-.14-.1-.28-.15-.42-.12-.29-.25-.59-.41-.88-.15-.29-.33-.57-.5-.82-.09-.12-.17-.25-.27-.36-.09-.11-.17-.22-.25-.31-.12-.15-.23-.26-.32-.36-.08.11-.16.22-.22.35-.25.46-.32,1.04-.26,1.6.06.57.26,1.13.51,1.65.25.54.55,1.05.83,1.58.27.53.56,1.06.68,1.66.06.29.08.6.02.9-.05.29-.18.56-.31.79-.13.23-.25.44-.34.66-.09.21-.13.43-.13.64,0,.21.07.4.19.53.12.14.29.19.45.2.34.01.61-.18.76-.38.16-.2.23-.4.27-.53.04-.14.06-.21.06-.21,0,0,0,.08-.04.22-.03.14-.08.35-.23.57-.14.22-.42.47-.81.48-.19.01-.42-.05-.58-.21-.17-.16-.26-.4-.28-.65-.02-.25.02-.5.11-.75.09-.24.21-.47.33-.69.11-.23.21-.46.25-.71.03-.25.02-.51-.03-.77-.11-.52-.39-1.04-.66-1.55-.28-.51-.6-1.03-.87-1.59-.26-.56-.47-1.16-.52-1.79-.06-.62.03-1.27.33-1.8Z"/>
            </g>
            <g>
              <path class="cls-28" d="M64.18,37.8c.45,1.27,1.07,2.86,2.42,3.33.93.33,2.22,0,2.75-.9.35-.61.42-1.36.38-2.07-.04-.71-.17-1.41-.19-2.13-.03-1.71.65-3.33,1.15-4.96.5-1.63.82-3.46.11-5-.64-1.4-2.15-2.33-3.64-2.21-1.32.11-2.52.99-3.24,2.15-.73,1.16-1.02,2.56-1.06,3.95-.09,3.03.47,6.37,1.82,9.06"/>
              <path class="cls-16" d="M65.43,27c.07-.15.17-.29.28-.42-.01-.01-.02-.02-.02-.02,0,0,.01,0,.03.01.28-.32.64-.55,1.03-.61.54-.09,1.04.07,1.44.29.41.21.72.5.96.78.25.27.42.56.54.79.12.24.19.44.21.58.03.14.05.21.05.21,0,0-.02-.07-.07-.21-.04-.14-.13-.32-.26-.55-.14-.22-.31-.48-.57-.73-.25-.25-.57-.5-.95-.68-.38-.18-.84-.3-1.29-.2-.3.06-.57.24-.79.49.12.07.25.16.4.28.2.16.42.37.63.61.1.13.21.25.3.4.1.14.18.29.27.44.08.16.16.31.22.47.07.16.12.32.17.48.09.32.15.62.17.88.03.26.03.48.02.63-.01.15-.02.24-.02.24,0,0-.02-.08-.05-.23-.03-.15-.08-.35-.15-.59-.03-.12-.08-.25-.12-.39-.04-.14-.1-.28-.15-.42-.12-.29-.25-.59-.41-.88-.15-.29-.33-.57-.5-.82-.09-.12-.17-.25-.27-.36-.09-.11-.17-.22-.25-.31-.12-.15-.23-.26-.32-.36-.08.11-.16.22-.22.35-.25.46-.32,1.04-.26,1.6.06.57.26,1.13.51,1.65.25.54.55,1.05.83,1.58.27.53.56,1.06.68,1.66.06.29.08.6.02.9-.05.29-.18.56-.31.79-.13.23-.25.44-.34.66-.09.21-.13.43-.13.64,0,.21.07.4.19.53.12.14.29.19.45.2.34.01.61-.18.76-.38.16-.2.23-.4.27-.53.04-.14.06-.21.06-.21,0,0,0,.08-.04.22-.03.14-.08.35-.23.57-.14.22-.42.47-.81.48-.19.01-.42-.05-.58-.21-.17-.16-.26-.4-.28-.65-.02-.25.02-.5.11-.75.09-.24.21-.47.33-.69.11-.23.21-.46.25-.71.03-.25.02-.51-.03-.77-.11-.52-.39-1.04-.66-1.55-.28-.51-.6-1.03-.87-1.59-.26-.56-.47-1.16-.52-1.79-.06-.62.03-1.27.33-1.8Z"/>
            </g>
            <g>
              <path class="cls-28" d="M32.96,42.38c-.13,1.11-.35,2.51-1.35,3.14-.69.44-1.79.43-2.37-.19-.39-.42-.58-1.01-.67-1.59s-.11-1.17-.23-1.74c-.28-1.38-1.11-2.55-1.8-3.76s-1.27-2.62-.98-3.99c.27-1.25,1.31-2.29,2.53-2.48,1.08-.17,2.2.31,2.99,1.1.79.79,1.28,1.86,1.56,2.96.61,2.41.76,5.2.15,7.63"/>
              <path class="cls-16" d="M30.03,33.95c-.09-.11-.19-.2-.3-.28,0-.01.01-.02.01-.02,0,0,0,0-.02.02-.28-.2-.61-.32-.93-.29-.45.03-.82.26-1.1.51-.29.25-.49.54-.63.81-.15.27-.23.53-.29.74-.05.22-.07.39-.07.51,0,.12,0,.18,0,.18,0,0,0-.06.02-.18,0-.12.05-.28.11-.49.07-.2.17-.45.33-.7.16-.25.37-.51.64-.73.27-.22.62-.41,1-.41.25,0,.5.08.72.24-.08.08-.17.17-.27.3-.14.16-.27.38-.4.62-.06.12-.12.25-.17.38-.05.13-.09.27-.14.41-.03.14-.07.28-.09.42-.03.14-.04.28-.05.42-.02.27-.01.53.02.74.02.21.07.39.1.51.04.12.06.19.06.19,0,0,0-.07,0-.2,0-.13,0-.3.02-.51,0-.1.02-.22.03-.33,0-.12.03-.24.05-.37.04-.25.1-.52.17-.78.07-.26.16-.52.26-.76.05-.12.1-.23.15-.34.05-.11.1-.21.15-.3.07-.14.14-.26.2-.35.09.07.17.15.24.24.28.32.44.77.5,1.23.05.47,0,.95-.12,1.43-.1.48-.26.95-.39,1.43-.13.48-.26.96-.25,1.46,0,.25.05.5.15.72.1.23.25.41.39.57.14.16.28.31.39.46.11.15.18.32.22.49.03.17.01.33-.06.46-.08.13-.2.21-.33.25-.27.08-.52-.03-.68-.16-.16-.13-.26-.28-.31-.38-.06-.1-.08-.16-.08-.16,0,0,.02.06.07.17.05.1.13.26.29.42.16.15.42.29.74.23.15-.03.33-.12.43-.28.11-.16.14-.38.11-.58-.03-.2-.11-.4-.23-.58-.12-.18-.26-.33-.39-.49-.13-.16-.25-.33-.32-.52-.07-.19-.11-.4-.11-.62,0-.44.13-.91.26-1.37.14-.47.3-.94.41-1.44.11-.5.17-1.02.1-1.54-.06-.51-.25-1.01-.58-1.38Z"/>
            </g>
            <path class="cls-9" d="M29.95,21.88l1.89,25.44.18,2.34c.3,5.06,2.96,9.39,6.8,11.89,2.07,1.35,4.49,2.17,7.06,2.28.51.02,1.02.02,1.53-.02h.19s5.51-.37,5.51-.37c3.37-.22,6.4-1.61,8.74-3.78,3.22-2.98,5.14-7.42,4.86-12.25l-.2-2.68-1.87-25.1c-.22-3.61-3.2-6.36-6.67-6.13l-22.14,1.43c-3.47.22-6.11,3.34-5.89,6.95Z"/>
            <path class="cls-22" d="M45.96,48.92c.17,1.23-2.4,2.61-5.74,3.08-3.34.47-6.2-.14-6.37-1.37-.17-1.23,2.4-2.61,5.74-3.08,3.34-.47,6.2.14,6.37,1.37Z"/>
            <ellipse class="cls-22" cx="58.44" cy="48.02" rx="6.12" ry="2.17" transform="translate(-4.91 6.69) rotate(-6.29)"/>
            <path class="cls-27" d="M53.75,20.81c.15-.04.29-.1.42-.17-.14.06-.28.12-.42.17Z"/>
            <path class="cls-27" d="M32.02,32.84c-.04-.1-.08-.21-.12-.31.03.11.06.21.12.31Z"/>
            <path class="cls-27" d="M68.46,24.1c-.21.03-.47.1-.79.32-.32.23-.55.6-.74,1.02t0,0c-.21.5-.36,1.05-.5,1.49-.05.16-.1.32-.13.47-.17.78-.16,1.57-.13,2.37.05,1.1.15,2.21.14,3.31,0,.25,0,.51-.02.76-.03.59-.06,1.18-.07,1.78,0,.03,0,.05,0,.08-.02.92-.02,1.87.06,2.81,0,.08.02.16.02.23.13,1.33.45,2.62,1.15,3.76,0,.01.02.03.03.04.14.23.32.44.44.68.01.02.02.03.02.05,0,.01.02.03.02.04-.2-.05-.4-.17-.6-.3-.15-.1-.29-.2-.42-.29-.55-.39-1.05-.86-1.48-1.39,0,0,0,0,0,0-.28-.35-.53-.72-.74-1.12-.36-.68-.63-1.42-.83-2.16-.01-.05-.03-.1-.03-.14-.04-.15-.08-.3-.12-.46-.26-1.02-.47-2.05-.63-3.09-.08-.52-.15-1.03-.2-1.55-.02-.11-.02-.21-.03-.32-.05-.53-.03-1.05-.25-1.54-.24-.53-.51-1.04-.79-1.55-.58-1.07-1.22-2.12-1.77-3.21-.01-.02-.02-.04-.03-.06-.22-.45-.43-.91-.62-1.38-.13-.34-.29-.71-.42-1.1,0,0,0,0,0,0-.15-.47-.26-.95-.21-1.42,0,0,0-.01,0-.02,0-.08.02-.17.05-.25-.02.06-.03.12-.05.18-.02.06-.03.12-.05.17,0,.01,0,.02-.01.04-.37,1.3-.9,2.57-1.69,3.67-.07.1-.15.2-.22.3-.05.07-.1.13-.16.2-.18.22-.38.43-.59.63-1.34,1.27-3.12,2-4.93,2.36-1.81.36-3.67.38-5.52.39-1.95.02-3.9.03-5.85.05-1.47.01-3.11.1-4.1,1.18.45-.92,1.24-1.67,2.19-2.05-.57.23-1.17.33-1.73.61-.58.29-1.08.69-1.62,1.04-.98.65-1.46,1.9-1.65,3.04-.13.74-.22,1.5-.21,2.26,0,.72.14,1.32.28,2.02.31,1.5.43,3.04.37,4.57-.07,1.8-.21,3.96-1.43,5.4-.15-.8-.07-1.68-.17-2.5-.09-.83-.33-1.66-.41-2.49-.15-1.6-.55-3.19-.91-4.76-.32-1.34-.57-2.78-1.06-4.06-.24-.63-.99-2.18-1.78-2.22-.27-.02-.72.44-.89.62-.07.07-.13.15-.18.23-.01-.1-.01-.2-.01-.29,0-.05,0-.09,0-.14-.03-.26-.13-.52-.22-.75-.02-.07-.05-.13-.07-.19-.07-.19-.15-.38-.2-.58-.15-.61-.3-1.22-.43-1.84-.47-2.14-.87-4.3-.81-6.49.07-2.19.53-4.39,1.32-6.48.27-.72.58-1.42.94-2.11,1.29-2.48,3.1-4.71,5.38-6.28,7.17-4.95,17.76-6.8,25.78-2.83,3.46,1.71,6.32,4.52,8.23,7.86,0,.02.02.03.02.05.02.02.02.04.03.06.08.15.17.3.25.46.1.18.2.37.29.56.83,1.68,1.43,3.47,1.77,5.3,0,.02.01.05.01.07.04.24.08.48.12.72.14,1.03.21,2.09.24,3.12v.05c.03,1-.17.92-.62,1Z"/>
            <path class="cls-3" d="M69.08,23.11c-.03.26-.1.5-.27.7-.1.12-.22.21-.35.29-.17.11-.36.2-.53.31-.42.25-.74.62-1,1.03-.33.53-.53,1.16-.62,1.79,0,.06-.02.12-.02.17-.12,1.05,0,2.11.04,3.17.03.83,0,1.67-.03,2.51-.06,1.34-.15,2.68-.12,4.02.01.47.04.93.09,1.4,0,.08.02.16.02.23.16,1.34.51,2.65,1.17,3.79.13.23.28.46.44.68.01.02.03.04.04.06,0,0-.01,0-.02,0-.2-.08-.39-.17-.58-.27-.75-.4-1.38-.99-1.9-1.69-.75-.99-1.27-2.2-1.6-3.42-.04-.15-.08-.3-.12-.46-.37-1.53-.53-3.1-.84-4.64-.18-.91-.41-1.81-.75-2.67-.1-.25-.21-.49-.32-.73-.52-1.1-1.19-2.13-1.77-3.21-.01-.02-.02-.04-.03-.06-.41-.77-.8-1.61-1.03-2.48-.12-.47-.2-.94-.21-1.42,0,0,0-.01,0-.02,0-.02,0-.04,0-.07v-.02c-.02.07-.03.13-.05.2,0,.01,0,.02-.01.04-.33,1.29-.89,2.58-1.69,3.67-.07.1-.15.2-.22.3-.05.07-.1.13-.16.2-.18.22-.38.43-.59.63-1.34,1.27-3.12,2-4.93,2.36-1.81.36-3.67.38-5.52.39-1.95.02-3.9.03-5.85.05-1.47.01-3.11.1-4.1,1.18.45-.92,1.24-1.67,2.19-2.05-.57.23-1.17.33-1.73.61-.58.29-1.08.69-1.62,1.04-.98.65-1.46,1.9-1.65,3.04-.13.74-.22,1.5-.21,2.26,0,.72.14,1.32.28,2.02.31,1.5.43,3.04.37,4.57-.07,1.8-.21,3.96-1.43,5.4-.15-.8-.07-1.68-.17-2.5-.09-.83-.33-1.66-.41-2.49-.15-1.6-.55-3.19-.91-4.76-.32-1.34-.57-2.78-1.06-4.06-.24-.63-.99-2.18-1.78-2.22-.27-.02-.72.44-.89.62-.07.07-.13.15-.18.23-.01-.1-.01-.2-.01-.29,0-.05,0-.09,0-.14-.02-.35-.13-.66-.29-.95-.07-.19-.15-.38-.2-.58-.15-.61-.3-1.22-.43-1.84-.47-2.14-.87-4.3-.81-6.49.07-2.19.53-4.39,1.32-6.48.27-.72.58-1.42.94-2.11-1.21,2.33-.06,5.81,1.19,7.91,1.39,2.34,4.17,3.97,6.77,2.46,1.35-.79,2.87-1.6,4.4-1.27-2.07.35-3.87,1.96-4.45,3.98.46-.92,1.33-1.59,2.28-1.99.95-.4,1.98-.55,3-.67,1.48-.17,2.97-.27,4.46-.3,1.39-.03,2.65.24,3.99-.21,2.09-.7,4.33-1.52,5.55-3.35.5-.74.78-1.6,1.06-2.45.22-.65.43-1.32.39-2,.09,1.32.18,2.64.03,3.96-.13,1.15-.41,2.46-1.14,3.39,1.3-1.65,2.56-3.11,3.27-5.12.75-2.11,1.1-4.68.57-6.89-.25-1.05-.82-2.03-1.73-2.63.7.14,1.35.79,1.76,1.35,1.47,2.01,1.68,4.7,2.18,7.07.26,1.24.33,2.83.89,3.97.63,1.28,2.41,2.14,3.79,1.5,1.44-.66,1.82-3,1.8-4.37-.02-1.03-.2-2.04-.35-3.05-.1-.67,0-1.87-.32-2.49.02.02.02.04.03.06.08.15.17.3.25.46.97,1.84,1.66,3.82,2.06,5.86,0,.02.01.05.01.07.21,1.08.34,2.17.38,3.27,0,.21,0,.42-.02.63Z"/>
            <path class="cls-27" d="M52.23,32.58c-.17-.13-.33-.29-.46-.46,0,.28.07.56.19.81-.13-.14-.23-.3-.31-.48,0,.1,0,.2,0,.29-.05-.2-.1-.41-.15-.61.02.1-.04.25-.06.35-.02.14-.02.29-.02.43.01.29.08.58.19.85.2.48.57,1.01,1.07,1.17-.06-.23-.14-.46-.25-.67.12.12.24.23.36.35-.05-.12-.11-.24-.16-.35.36.3.87.28,1.33.23,1.7-.18,3.43-.52,5-1.25,1.4-.65,2.69-1.59,3.73-2.76-.13.14-.42.24-.58.33-.2.11-.41.22-.62.32-.42.2-.85.38-1.28.54-.87.32-1.77.56-2.68.72-.91.15-1.84.23-2.76.21-.2,0-.39-.01-.59-.02-.18-.01-.39-.05-.57-.03-.33.04-.69-.08-.98-.24.03.23.15.45.33.61-.22-.12-.41-.28-.56-.48.02.13.08.25.15.35-.11-.06-.21-.13-.31-.2Z"/>
            <path class="cls-27" d="M44.59,33.3c.14-.17.26-.35.36-.55.05.27.04.56-.03.83.1-.16.17-.35.21-.53.02.1.04.19.06.29,0-.21.02-.42.03-.63,0,.11.09.23.13.33.05.14.08.28.1.42.05.29.04.59-.02.88-.1.51-.35,1.11-.81,1.37.01-.24.05-.48.11-.71l-.28.42c.03-.13.06-.25.09-.38-.29.37-.79.46-1.25.51-1.7.19-3.46.24-5.14-.13-1.5-.33-2.95-.97-4.2-1.89.15.11.46.15.64.2.22.06.45.12.67.17.45.11.91.19,1.36.25.92.13,1.84.16,2.76.12.92-.05,1.84-.18,2.74-.4.19-.05.38-.1.57-.15.18-.05.37-.14.55-.16.33-.03.66-.23.91-.45.01.24-.06.48-.2.66.19-.16.34-.36.45-.59,0,.13-.02.26-.08.38.09-.08.18-.17.26-.27Z"/>
            <g>
              <path class="cls-1" d="M58.26,42.78c-1.52.73-3.3.78-4.87.17-.38-.15-.78-.3-1.13-.53-.25-.17-.5-.27-.64-.55-.15-.3-.17-.57-.12-.91.25-1.98.69-4.09,2.65-4.94,1.59-.69,3.39-.44,4.76.66.52.41.99.9,1.38,1.44.2.27.38.56.53.86.06.11.45.81.4.91-.15.29-.3.58-.5.84-.21.27-.45.53-.69.77-.52.53-1.12.97-1.77,1.29Z"/>
              <path class="cls-24" d="M53.05,42.72c-.07-.03-.15-.06-.22-.09-.37-.16-1-.38-1.2-.77-.15-.3-.17-.57-.12-.91.25-1.98.69-4.09,2.65-4.94.69-.3,1.44-.43,2.18-.37.35.03.68.14,1.03.18.29.03.53.2.79.33-.57-.28-1.3-.33-1.92-.33-.69,0-1.39.14-1.99.5-.66.39-1.19,1.03-1.52,1.75-.14.31-.21.67-.32.99-.15.43-.19.9-.12,1.35.12.65.49,1.26,1.01,1.64.55.4,1.22.55,1.89.59,1.88.13,3.8-.51,5.22-1.79-.21.19-.38.44-.58.63-.22.21-.45.4-.69.57-.46.33-.95.6-1.49.78-1.07.36-2.23.44-3.33.24-.43-.08-.84-.2-1.25-.36Z"/>
              <path class="cls-27" d="M61.2,39.88s-.11.15-.32.39c-.2.25-.51.58-.89.93-.39.35-.88.71-1.44,1.01-.13.07-.3.15-.42.2-.16.06-.32.12-.48.19-.3.1-.62.2-.95.25-.33.07-.66.1-.99.11-.16,0-.33,0-.49,0-.16-.01-.32-.02-.48-.04-.31-.04-.62-.09-.9-.16-.28-.07-.55-.16-.79-.24-.24-.1-.46-.19-.66-.28-.2-.09-.36-.19-.5-.26-.27-.16-.43-.26-.43-.26,0,0,.11.15.33.39.12.11.25.26.43.4.09.07.18.15.29.22.11.07.22.14.34.22.24.14.51.29.81.4.3.12.63.22.97.29.35.06.71.12,1.08.12.37,0,.75-.02,1.12-.09.37-.07.73-.18,1.1-.32.18-.07.32-.14.48-.22.19-.1.33-.18.48-.28.6-.39,1.08-.87,1.43-1.32.35-.45.57-.87.7-1.17.07-.15.11-.27.14-.36.03-.08.04-.13.04-.13Z"/>
              <path class="cls-27" d="M55.65,43.79c.34.02.69.05,1.03.03.22-.01.45-.03.67-.06.2-.02.47-.13.66-.11-.14-.02-.27-.05-.41-.07.72-.11,1.41-.42,1.97-.89-.18.09-.39.13-.6.11.65-.16,1.26-.52,1.71-1.02-.24.1-.48.2-.73.3.5-.23.91-.64,1.16-1.13-.09.13-.23.22-.38.26.28-.44.56-.88.84-1.32,0,.06-.24.23-.29.28-.05.05-.09.12-.15.17.11-.28.26-.53.31-.83-.05.12-.11.23-.18.34-.89,1.4-2.24,2.36-3.7,3.09-.19.09-.38.18-.58.27-.52.23-1.06.41-1.61.56.09,0,.17,0,.26.01Z"/>
              <path class="cls-27" d="M42.99,44.79c-.3.17-.6.34-.92.48-.21.09-.42.17-.63.24-.19.06-.48.09-.64.19l.34-.24c-.7.21-1.45.23-2.16.06.21,0,.41-.06.59-.16-.66.14-1.36.08-1.99-.18.26-.01.52-.03.79-.04-.55,0-1.1-.18-1.53-.51.14.08.3.1.45.07-.44-.27-.89-.55-1.33-.82.03.05.32.1.38.13.07.03.14.07.21.09-.22-.2-.46-.37-.64-.62.09.09.2.16.31.23,1.4.87,3.04,1.15,4.67,1.17.21,0,.42,0,.64,0,.57-.02,1.13-.09,1.69-.2-.08.04-.15.08-.23.12Z"/>
              <g class="cls-25">
                <path class="cls-27" d="M55.44,45.06c-.3-.03-.6-.09-.89-.17-1.26-.35-2.39-1.26-2.93-2.49.12.19.32.36.47.52.18.18.38.34.59.48.4.26.83.47,1.28.62.88.3,1.84.4,2.76.25,1.78-.29,3.41-1.48,4.27-3.13-.25,1.25-1.02,2.37-2.04,3.08-1.01.69-2.3.98-3.52.85Z"/>
              </g>
            </g>
            <g>
              <path class="cls-1" d="M42.72,44.5c-1.52.73-3.3.78-4.87.17-.38-.15-.78-.3-1.13-.53-.25-.17-.5-.27-.64-.55-.15-.3-.17-.57-.12-.91.25-1.98.69-4.09,2.65-4.94,1.59-.69,3.39-.44,4.76.66.52.41.99.9,1.38,1.44.2.27.38.56.53.86.06.11.45.81.4.91-.15.29-.3.58-.5.84-.21.27-.45.53-.69.77-.52.53-1.12.97-1.77,1.29Z"/>
              <path class="cls-24" d="M37.5,44.44c-.07-.03-.15-.06-.22-.09-.37-.16-1-.38-1.2-.77-.15-.3-.17-.57-.12-.91.25-1.98.69-4.09,2.65-4.94.69-.3,1.44-.43,2.18-.37.35.03.68.14,1.03.18.29.03.53.2.79.33-.57-.28-1.3-.33-1.92-.33-.69,0-1.39.14-1.99.5-.66.39-1.19,1.03-1.52,1.75-.14.31-.21.67-.32.99-.15.43-.19.9-.12,1.35.12.65.49,1.26,1.01,1.64.55.4,1.22.55,1.89.59,1.88.13,3.8-.51,5.22-1.79-.21.19-.38.44-.58.63-.22.21-.45.4-.69.57-.46.33-.95.6-1.49.78-1.07.36-2.23.44-3.33.24-.43-.08-.84-.2-1.25-.36Z"/>
              <path class="cls-27" d="M45.65,41.6s-.11.15-.32.39c-.2.25-.51.58-.89.93-.39.35-.88.71-1.44,1.01-.13.07-.3.15-.42.2-.16.06-.32.12-.48.19-.3.1-.62.2-.95.25-.33.07-.66.1-.99.11-.16,0-.33,0-.49,0-.16-.01-.32-.02-.48-.04-.31-.04-.62-.09-.9-.16-.28-.07-.55-.16-.79-.24-.24-.1-.46-.19-.66-.28-.2-.09-.36-.19-.5-.26-.27-.16-.43-.26-.43-.26,0,0,.11.15.33.39.12.11.25.26.43.4.09.07.18.15.29.22.11.07.22.14.34.22.24.14.51.29.81.4.3.12.63.22.97.29.35.06.71.12,1.08.12.37,0,.75-.02,1.12-.09.37-.07.73-.18,1.1-.32.18-.07.32-.14.48-.22.19-.1.33-.18.48-.28.6-.39,1.08-.87,1.43-1.32.35-.45.57-.87.7-1.17.07-.15.11-.27.14-.36.03-.08.04-.13.04-.13Z"/>
              <g class="cls-25">
                <path class="cls-27" d="M39.89,46.78c-.3-.03-.6-.09-.89-.17-1.26-.35-2.39-1.26-2.93-2.49.14.36.37.78.47.52.1-.24.38.34.59.48.4.26.83.47,1.28.62.88.3,1.84.4,2.76.25,1.78-.29,3.41-1.48,4.27-3.13-.25,1.25-1.02,2.37-2.04,3.08-1.01.69-2.3.98-3.52.85Z"/>
              </g>
            </g>
          </g>
          <path class="cls-19" d="M26.26,52.36c-.13.07-.26.14-.39.22.09-.07.18-.14.27-.21h.12Z"/>
          <g class="cls-10">
            <path class="cls-19" d="M131.13,146.08c-2.13-.31-4.81.39-6.96.54-2.6.18-5.17.41-7.78.5-5.69.21-11.37.42-17.06.63-1.43-2.8-.8-6.21-.01-9.27.99-3.83,1.41-7,.53-10.89-.85-3.74-2.67-7.17-4.85-10.24-2.34-3.3-5.15-6.08-7.84-9.07-.12-.13-.24-.27-.35-.4,0,0,0,0-.01-.02-.11-.14-.22-.27-.32-.41,0,0,0-.01-.01-.02-2.2-2.97-2.85-6.89-1.83-10.56-.33,3.28,1,6.54,2.92,9.16,1.92,2.62,4.42,4.71,6.8,6.88,2.39,2.16,4.74,4.47,6.27,7.36,1.33,2.52,1.62,5.39,2.17,8.17.78,3.93,2.59,7.64,5.3,10.51,3.94,4.16,9.55,6.24,15.09,6.42,2.66.09,5.31.32,7.94.71Z"/>
          </g>
          <path class="cls-3" d="M44.71,20.47c-.15-.04-.29-.1-.42-.17.14.06.28.12.42.17Z"/>
          <path class="cls-3" d="M66.43,32.5c.04-.1.08-.21.12-.31-.03.11-.06.21-.12.31Z"/>
        </g>
        <g>
          <path class="cls-15" d="M69.58,62.42c-.78,2.44-2.46,5.54-4.74,6.9-6.09,3.62-13.94,2.64-20.68,1.97-3.14-.31-6.35-.78-9.13-2.27-6.69-3.58-8.82-12.09-6.23-18.92.46-1.21,1.08-2.35,1.86-3.39.2-.26.64-.99,1.03-1.23l.14,1.85.18,2.34c.3,5.06,2.96,9.39,6.8,11.9,2.07,1.35,4.49,2.17,7.06,2.28.51.02,1.02.02,1.54-.02l.19-.02,4.79-.3c.06,0,.12,0,.18,0,.32-.02.64-.04.96-.08,0,0,.02,0,.02,0,3.2-.3,6.07-1.67,8.31-3.74,3.22-2.99,5.14-7.43,4.86-12.25l-.02-.3c.59.67,1.1,1.4,1.54,2.17,2.14,3.78,2.67,9,1.34,13.13Z"/>
          <path class="cls-7" d="M69.58,62.42c-.78,2.44-2.46,5.54-4.74,6.9-6.09,3.62-13.94,2.64-20.68,1.97-3.14-.31-6.35-.78-9.13-2.27-6.69-3.58-8.82-12.09-6.23-18.92.46-1.21,1.08-2.35,1.86-3.39.2-.26.64-.99,1.03-1.23l.14,1.85.18,2.34c.3,5.06,2.96,9.39,6.8,11.9,0,.33,2.11,1.15,2.42,1.23.76.2,1.32.28,2.01.73-2.16.17-4.33-1.22-6.06-2.35-1.52-.99-3.03-2.05-4.26-3.39-1.22-1.35-2.15-3.03-2.31-4.84-.66.83-.73,1.98-.75,3.04-.05,2.08-.01,4.27,1.02,6.08.86,1.5,2.3,2.55,3.71,3.56.95.68,1.91,1.37,2.97,1.88.78.37,1.61.64,2.44.87,5.17,1.41,10.62,1.19,15.97.97,1.45-.06,2.92-.13,4.32-.5,2.44-.66,4.61-2.29,5.91-4.46s1.73-4.85,1.16-7.32c-.07-.3-.2-.65-.5-.73-.37-.1-.69.27-.91.59-1.58,2.36-3.65,4.43-6.18,5.72-2.53,1.29-5.53,1.75-8.26.97,3.66.22,7.66-1.46,10.32-3.92,3.22-2.99,5.14-7.43,4.86-12.25l-.02-.3c.59.67,1.1,1.4,1.54,2.17,2.14,3.78,2.67,9,1.34,13.13Z"/>
          <path class="cls-5" d="M66.73,67.11c-.31-.31-1.96.08-2.33.19-.79.22-1.53.6-2.12,1.1-.18.15-.36.32-.55.51-.13.14-.26.28-.38.43-.08.1-.16.2-.24.31-.33.44-.59.93-.74,1.41-.01.04-.03.09-.03.13-.07.25-.1.5-.08.75.03.46.08.91.15,1.36.16.96.44,1.89.86,2.84.61,1.39,1.33,2.77,1.48,4.26.09.93-.1,1.78-.83,2.4-.38.33-.87.49-1.41.55-.1,0-.2.02-.31.02-.29,0-.59-.01-.89-.05-.02,0-.04,0-.07,0-.15-.02-.29-.05-.43-.08-.1-.02-.2-.05-.3-.07-.19-.05-.38-.1-.58-.16-.13-.03-.25-.07-.38-.11-.83-.24-1.67-.46-2.54-.38-.16.02-.32.04-.48.08-.05.01-.11.03-.15.04-.05.01-.1.03-.15.04-.05.02-.1.03-.15.05-.5.17-.96.43-1.42.7-.38.23-.76.47-1.14.7-1.11.65-2.58,1.15-3.75.58-.21-.1-.38-.22-.54-.37-.42-.38-.66-.88-.87-1.42-.03-.08-.06-.17-.09-.25-.08-.21-.15-.42-.24-.63-.03-.08-.07-.17-.1-.25-.03-.08-.07-.16-.11-.24-.04-.08-.08-.16-.12-.24-.04-.08-.09-.15-.13-.23-.09-.15-.2-.29-.32-.42-.23-.25-.5-.45-.8-.62-.09-.05-.17-.1-.26-.14-.17-.08-.34-.15-.53-.21-.48-.16-1-.27-1.52-.34-.07,0-.15-.02-.22-.03-.07,0-.15-.02-.22-.02-.59-.06-1.19-.1-1.78-.17-.2-.02-.39-.05-.59-.08-.53-.08-1.04-.21-1.53-.41-1.69-.71-2.68-2.24-3.5-3.71-.18-.33-.37-.67-.56-1,0,0,0-.01,0-.02-.39-.67-.81-1.33-1.34-1.9-.03-.03-.06-.06-.09-.1,0,0,0,0-.01-.01-.05-.06-.11-.11-.17-.17-.06-.06-.12-.12-.18-.17-.24-.22-.51-.43-.81-.61-.35-.21-.75-.38-1.17-.48-.91-.24-1.91-.21-2.71.13-.42.18-.78.44-1.04.8-.02.02-.04.05-.05.08.13-.2.26-.41.4-.61.13-.21.27-.41.41-.61,2.52-3.77,5.44-7.4,8.26-11.05.85-1.09,1.69-2.19,2.5-3.29.38-.5.75-1.01,1.12-1.51,1.56-2.11,3.1-4.23,4.7-6.31.9-1.18,1.79-2.43,3.05-3.36,1.04-.77,2.41-1.01,3.74-.84,1.27.16,2,.9,2.68,1.82.65.89,1.1,1.87,1.62,2.81.97,1.73,1.92,3.46,2.85,5.2,1.19,2.22,2.18,4.52,3.4,6.72.08.14.16.28.24.41.05.1.11.19.17.28,1.3,2.13,3.28,3.87,5.12,5.68.1.1.2.2.3.29Z"/>
          <path class="cls-5" d="M66.73,67.33c-.31-.31-1.96.08-2.33.19-.79.22-1.53.6-2.12,1.1-.18.15-.36.32-.55.51-.13.14-.26.28-.38.43-.08.1-.16.2-.24.31-.33.44-.59.93-.74,1.41-.01.04-.03.09-.03.13-.07.25-.1.5-.08.75.03.46.08.91.15,1.36.16.96.44,1.89.86,2.84.61,1.39,1.33,2.77,1.48,4.26.09.93-.1,1.78-.83,2.4-.38.33-.87.49-1.41.55-.1,0-.2.02-.31.02-.29,0-.59-.01-.89-.05-.02,0-.04,0-.07,0-.15-.02-.29-.05-.43-.08-.1-.02-.2-.05-.3-.07-.19-.05-.38-.1-.58-.16-.13-.03-.25-.07-.38-.11-.83-.24-1.67-.46-2.54-.38-.16.02-.32.04-.48.08-.05.01-.11.03-.15.04-.05.01-.1.03-.15.04-.05.02-.1.03-.15.05-.5.17-.96.43-1.42.7-.38.23-.76.47-1.14.7-1.11.65-2.58,1.15-3.75.58-.21-.1-.38-.22-.54-.37-.42-.38-.66-.88-.87-1.42-.03-.08-.06-.17-.09-.25-.08-.21-.15-.42-.24-.63-.03-.08-.07-.17-.1-.25-.03-.08-.07-.16-.11-.24-.04-.08-.08-.16-.12-.24-.04-.08-.09-.15-.13-.23-.09-.15-.2-.29-.32-.42-.23-.25-.5-.45-.8-.62-.09-.05-.17-.1-.26-.14-.17-.08-.34-.15-.53-.21-.48-.16-1-.27-1.52-.34-.07,0-.15-.02-.22-.03-.07,0-.15-.02-.22-.02-.59-.06-1.19-.1-1.78-.17-.2-.02-.39-.05-.59-.08-.53-.08-1.04-.21-1.53-.41-1.69-.71-2.68-2.24-3.5-3.71-.18-.33-.37-.67-.56-1,0,0,0-.01,0-.02-.39-.67-.81-1.33-1.34-1.9-.03-.03-.06-.06-.09-.1,0,0,0,0-.01-.01-.05-.06-.11-.11-.17-.17-.06-.06-.12-.12-.18-.17-.24-.22-.51-.43-.81-.61-.35-.21-.75-.38-1.17-.48-.91-.24-1.91-.21-2.71.13-.42.18-.78.44-1.04.8-.02.02-.04.05-.05.08.13-.2.26-.41.4-.61.13-.21.27-.41.41-.61,2.52-3.77,5.44-7.4,8.26-11.05.85-1.09,1.69-2.19,2.5-3.29.38-.5.75-1.01,1.12-1.51,1.56-2.11,3.1-4.23,4.7-6.31.9-1.18,1.79-2.43,3.05-3.36,1.04-.77,2.41-1.01,3.74-.84,1.27.16,2,.9,2.68,1.82.65.89,1.1,1.87,1.62,2.81.97,1.73,1.92,3.46,2.85,5.2,1.19,2.22,2.18,4.52,3.4,6.72.08.14.16.28.24.41.05.1.11.19.17.28,1.3,2.13,3.28,3.87,5.12,5.68.1.1.2.2.3.29Z"/>
          <g class="cls-14">
            <path class="cls-13" d="M66.73,67.11c-.31-.31-1.96.08-2.33.19-.79.22-1.53.6-2.12,1.1-.18.15-.36.32-.55.51-.1.04-.2.09-.3.14-.07.04-.14.08-.21.12,0,0-.02,0-.03.01-.24.14-.39.29-.5.46-.17.26-.22.55-.28.92-.02.14-.05.28-.08.41,0,.05-.02.11-.03.16-.04.2-.07.4-.07.61,0,.35-.06,1.16.13,1.5-.82-1.13-1.45-2.36-2.01-3.61-.01-.02-.02-.04-.03-.05-.25-.55-.49-1.11-.72-1.67-.64-1.52-1.27-3.04-1.86-4.57-.56-1.43-1.1-2.88-1.59-4.33-.8-2.38-1.36-4.78-1.88-7.2-.14-.63-.27-1.25-.4-1.89.07.34.18.68.32,1.02.36.91.9,1.82,1.29,2.66.59,1.28,1.2,2.55,1.84,3.81.63,1.26,1.3,2.52,1.98,3.76.26.47.35.98.63,1.44,0,.01.02.03.03.05.19.31.43.6.7.87.18.18.36.36.56.52.01.01.03.02.05.04.88.74,1.95,1.3,3.11,1.63,1.26.36,2.6.33,3.76.92.1.05.2.11.29.17.1.1.2.2.3.29Z"/>
          </g>
          <g>
            <g>
              <path class="cls-28" d="M39.47,57.19c.07.46.14.94.05,1.4-.16.77-.75,1.36-1.31,1.91-.32.31-.64.62-.96.93.71-1.62.39-3.52.94-5.2.03-.09.06-.18.14-.25.1-.09.24-.1.36-.07.26.06.46.27.57.51.12.24.16.5.2.77Z"/>
              <path class="cls-26" d="M46.81,59.95c-.07.72-.24,1.37-.48,2.05-.02.08-.05.15-.08.23-.17.46-.33.92-.47,1.39-.13.4-.25.8-.37,1.2-.02.06-.03.12-.05.18-.15.51-.29,1.03-.44,1.54-.14.48-.27.96-.42,1.44-.59,1.95-1.39,3.56-2.4,5.32-3.76,6.54-6.53,13.54-9.67,20.37-2.7,5.86-5.52,11.66-8.45,17.41-.18.34-.37.71-.7.89-.2.11-.44.15-.66.16-1.65.12-3.17-.47-4.36-1.61-1.46-1.4-1-2.46-1.31-4.29-.17-1.02-.81-1.89-1.16-2.86-.48-1.32-.42-2.79-.07-4.15.22-.86.49-1.68.8-2.47.19-.48.39-.94.62-1.4.69-1.41,1.54-2.73,2.54-4,1.95-2.46,4.13-4.73,6.23-7.06,2.94-3.27,5.87-6.58,8.22-10.3,1.09-1.72,1.61-3.44,1.98-5.43.03-1.1.42-2.3.62-3.38.17-.93.32-1.87.34-2.81,0-.07,0-.13,0-.2.02-.17.05-.35.09-.51.1-.38.27-.74.51-1.05.13-.18.25-.34.37-.52h0c.28-.4.53-.8.77-1.26.45-.88.85-1.79,1.3-2.68.51-1,1.02-2.01,1.55-2.99.51-.95.84-1.13,1.52-.92.1.03.19.09.25.15.14.13.22.3.26.42.02.06.03.1.04.13,0-.03.03-.09.07-.15.02-.03.04-.06.05-.08.02-.02.03-.04.04-.05.12-.23.25-.45.39-.67.15-.23.3-.47.47-.68.07-.09.15-.18.24-.24.13-.1.26-.06.41-.02.13.03.25.09.35.18.13.1.24.24.3.4.15.35.12.75.06,1.13-.03.21-.09.41-.16.6-.07.17-.06.15.1.24,0,0,.02.01.03.02.11.07.22.14.32.22.18.14.32.32.38.55.04.15.03.31.01.46-.18,1.61-.84,3.08-1.37,4.59,0,0,0,.01,0,.02.09-.1.21-.19.33-.26.14-.06.29-.1.44-.1.09,0,.18.03.26.07,0,0,.02,0,.03.02.17.09.3.24.34.42.02.1.01.22,0,.32Z"/>
              <path class="cls-28" d="M43.86,53.04c-.06.12-.19.2-.27.33-.09.14-.18.28-.28.42-.25.38-.5.77-.75,1.16-.55.87-1.1,1.75-1.58,2.66-.1.19-.19.38-.28.57-.48,1.08-.89,2.2-1.28,3.32-.06.19-.15.36-.23.55,0,.01-.01.03-.03.04,0,0-.02,0-.04,0-.19-.1-.36-.19-.53-.32.28-.05.54-.22.68-.46.05-.08.09-.17.12-.26.22-.54.44-1.08.67-1.62.07-.17.14-.34.21-.51.37-.88.74-1.73,1.22-2.57.31-.54.63-1.06.98-1.57.34-.49.66-.94.89-1.5.07-.16.08-.35.09-.53,0-.06,0-.21-.01-.34.14.13.22.3.26.42.02.06.03.1.04.13,0-.03.03-.09.07-.15.02-.03.04-.06.05-.08.01.02.02.05.03.07.03.11.02.19-.02.26Z"/>
              <path class="cls-28" d="M45.95,53.37c-.07.17-.06.15.1.24-.14.09-.28-.02-.45.03-.2.05-.37.18-.5.34-.18.22-.29.5-.4.76-.32.76-.66,1.52-1.02,2.27-.35.71-.8,1.4-1.1,2.14-.28.56-.53,1.13-.78,1.71-.12.28-.24.56-.35.85-.1.25-.24.51-.32.77-.02.05-.04.11-.08.14,0,0-.01,0-.02.02-.1.06-.23.01-.32-.05-.07-.06-.15-.13-.22-.17.19.07.43-.01.58-.16.17-.18.25-.41.34-.64.65-1.86,1.53-3.62,2.42-5.37.02-.04.03-.07.05-.11.33-.68.66-1.37.99-2.05.12-.26.29-.47.53-.63.03-.02.06-.03.09-.05.15-.08.27-.22.35-.38.07-.16.11-.33.15-.5.03-.11.05-.23.05-.34,0-.19-.05-.38-.11-.56-.04-.13-.09-.27-.17-.38.13.1.24.24.3.4.15.35.12.75.06,1.13-.03.21-.09.41-.16.6Z"/>
              <path class="cls-28" d="M46.79,54.86c-.18,1.62-.85,3.1-1.38,4.62.09-.1.21-.19.33-.26-.06.12-.12.24-.18.35-.1.17-.24.29-.33.45-.08.14-.16.28-.25.43-.38.67-.76,1.33-1.15,2-.11.19-.22.37-.33.55-.15.25-.31.49-.46.73-.08-.04-.15-.1-.23-.16-.05-.03-.1-.07-.16-.07.25,0,.36-.12.51-.31.64-.81,1.09-1.79,1.52-2.72.45-.98.85-1.99,1.19-3.02.21-.63.41-1.28.57-1.93.08-.29.15-.59.15-.9,0-.27-.05-.56-.19-.79.18.14.32.32.38.55.04.15.03.31.01.46Z"/>
              <path class="cls-17" d="M46.38,59.74c-.12.32-.31.63-.51.9-.11.15-.2.35-.42.32-.22-.03-.4-.11-.6-.21-.2-.11.05-.49.12-.61.14-.23.25-.49.43-.69,0,0,0,.01,0,.02.09-.1.21-.19.33-.26.14-.06.29-.1.44-.1.09,0,.18.03.26.07,0,.01.01.04.02.06.03.17-.01.35-.07.5Z"/>
              <path class="cls-17" d="M45.23,55.83c-.28-.03-.58-.15-.77-.37-.2-.23.05-.57.16-.79.09-.17.18-.36.27-.54.09-.16.16-.33.3-.45.17-.15.38-.16.6-.15.19,0,.48.04.56.24.05.12-.06.39-.1.52-.09.36-.22.7-.36,1.05-.07.17-.15.35-.31.43-.11.06-.23.06-.35.04Z"/>
              <path class="cls-17" d="M45.6,51.64s.01.06.02.09c.06.33-.08.67-.25.95-.15.25-.35.47-.56.68-.12.12-.25.25-.41.3-.28.08-.59-.07-.74-.32-.02-.03-.04-.07-.04-.11-.01-.07.02-.14.06-.2.28-.55.61-1.07.97-1.57.1-.14.26-.4.46-.35.26.06.43.3.5.55Z"/>
              <path class="cls-17" d="M43.07,52.22c.4.13.13.5,0,.73-.2.34-.42.67-.64,1-.16.24-.35.45-.66.39-.29-.06-.61-.24-.43-.56.24-.43.46-.9.78-1.28.21-.25.54-.34.86-.3.03,0,.07.01.1.02Z"/>
            </g>
            <path class="cls-28" d="M46.81,59.95c-.07.72-.24,1.37-.48,2.05-.02.08-.05.15-.08.23-.17.46-.33.92-.47,1.39-.16.37-.26.8-.37,1.2-.02.06-.03.12-.05.18-.15.51-.29,1.03-.44,1.54-.14.48-.28.96-.42,1.44-.59,1.95-1.39,3.56-2.4,5.32-3.76,6.54-6.53,13.54-9.67,20.37-2.7,5.86-5.52,11.66-8.45,17.41-.18.34-.37.71-.7.89-.2.11-.44.15-.66.16-1.65.12-3.17-.47-4.36-1.61-1.46-1.4-1-2.46-1.31-4.29-.17-1.02-.81-1.89-1.16-2.86-.48-1.32-.42-2.79-.07-4.15.22-.86.49-1.68.8-2.47-.12,1.15-.13,2.3-.04,3.46.07.93.36,2.05,1.25,2.32.37.11.8.06,1.09.31.33.28.3.8.39,1.23.19.86,1.07,1.5,1.95,1.42.73-.07,1.33-.57,1.87-1.06,1.49-1.37,2.83-2.9,3.97-4.57,1.57-2.28,2.77-4.79,4-7.28,1.42-2.87,2.89-5.71,4.4-8.53.99-1.85,2.02-3.67,2.94-5.56,1.17-2.41,2.18-5.01,3.71-7.21.32-.46.69-.89.96-1.37.31-.55.6-1.11.88-1.67.21-.43,1.82-3.44.85-3.7.08.02.16.02.23-.02.11-.06.18-.18.23-.29.32-.6.61-1.22.85-1.87.27-.73.47-1.48.57-2.23.02-.13.03-.26.02-.39-.02-.19-.09-.37-.18-.54.17.09.3.24.34.42.02.1.01.22,0,.32Z"/>
            <g class="cls-4">
              <path class="cls-5" d="M38.03,60.09c-.04.09-.08.19-.13.28-.14.23-.3.44-.41.69-.1.25-.15.51-.14.78,0,.28-.04.55-.05.83-.04,2.07-.24,4.14-.69,6.15-.47,2.1-1.26,3.95-2.25,5.84-.67,1.27-1.4,2.5-2.21,3.68-.31.45-.62.89-.95,1.33-1.61,2.16-3.5,3.97-5.44,5.84-2.49,2.41-4.78,5.02-7.06,7.62-.63.72-1.27,1.45-1.6,2.35,0-.04,0-.09.01-.13.69-1.41,1.54-2.73,2.54-4,1.95-2.46,4.13-4.73,6.23-7.06,2.94-3.27,5.87-6.58,8.22-10.3,1.09-1.72,1.61-3.44,1.98-5.43.03-1.1.42-2.3.62-3.38.17-.93.32-1.87.34-2.81,0-.07,0-.13,0-.2.02-.17.05-.35.09-.51.1-.38.27-.74.51-1.05.13-.18.25-.34.37-.52Z"/>
            </g>
          </g>
          <g>
            <g>
              <path class="cls-28" d="M56.36,56.44c0,.47,0,.95.15,1.39.27.74.93,1.24,1.57,1.7.36.26.72.52,1.08.78-.94-1.5-.9-3.42-1.68-5.01-.04-.09-.09-.17-.17-.23-.11-.07-.25-.06-.37-.01-.25.1-.42.33-.5.59-.08.25-.08.52-.09.79Z"/>
              <path class="cls-26" d="M49.51,60.24c.17.7.44,1.32.77,1.96.04.07.07.14.12.22.23.43.46.87.67,1.31.18.37.36.75.53,1.13.02.06.05.11.08.17.22.49.44.98.66,1.46.21.46.41.91.63,1.36.87,1.85,1.89,3.32,3.14,4.92,4.66,5.92,8.42,12.45,12.52,18.76,3.52,5.41,7.15,10.74,10.88,16.01.22.31.46.64.82.78.21.08.45.08.68.06,1.65-.12,3.07-.93,4.08-2.23,1.25-1.59.63-2.58.68-4.44.03-1.04.53-1.99.74-3,.28-1.38.01-2.82-.53-4.12-.34-.82-.72-1.59-1.15-2.33-.26-.44-.53-.87-.81-1.29-.89-1.29-1.92-2.48-3.1-3.59-2.29-2.15-4.77-4.08-7.19-6.09-3.38-2.81-6.76-5.66-9.62-9.01-1.33-1.55-2.09-3.17-2.74-5.08-.19-1.08-.75-2.21-1.1-3.25-.3-.9-.59-1.8-.74-2.74-.01-.07-.03-.13-.04-.2-.04-.17-.1-.34-.16-.5-.15-.36-.38-.69-.65-.97-.15-.16-.3-.3-.44-.46h0c-.34-.36-.64-.71-.94-1.13-.57-.81-1.1-1.65-1.67-2.46-.65-.92-1.3-1.84-1.97-2.74-.64-.87-.99-1-1.64-.69-.1.05-.17.11-.23.19-.12.15-.17.33-.2.45-.01.06-.01.11-.02.13,0-.03-.04-.08-.09-.14-.02-.03-.05-.05-.06-.07-.02-.02-.03-.04-.04-.05-.16-.21-.32-.41-.48-.61-.18-.21-.36-.42-.56-.6-.09-.08-.17-.16-.27-.2-.15-.08-.27-.02-.41.04-.12.05-.23.13-.32.23-.12.12-.2.28-.24.44-.09.37-.01.76.1,1.13.06.21.15.39.25.57.09.16.08.14-.06.25,0,0-.02.02-.03.02-.1.08-.2.17-.29.26-.15.17-.27.37-.29.6-.01.15.02.31.06.46.41,1.57,1.28,2.93,2.02,4.35,0,0,0,.01.01.02-.11-.09-.23-.16-.36-.21-.14-.04-.3-.06-.45-.03-.09.02-.18.05-.25.1,0,0-.02.01-.03.02-.16.11-.27.28-.27.47,0,.11.02.22.05.32Z"/>
              <path class="cls-28" d="M51.42,52.98c.08.11.22.17.32.29.11.12.22.25.33.37.31.34.61.69.91,1.04.67.78,1.34,1.57,1.95,2.4.13.17.25.34.36.52.63,1,1.2,2.05,1.75,3.1.09.18.2.34.3.51.01.01.02.03.04.03,0,0,.02,0,.03-.02.17-.13.33-.24.48-.39-.28,0-.56-.14-.74-.36-.06-.08-.11-.16-.16-.24-.3-.5-.59-1.01-.9-1.5-.09-.16-.19-.31-.28-.47-.49-.82-.99-1.61-1.57-2.36-.38-.49-.78-.96-1.2-1.42-.41-.44-.79-.84-1.09-1.36-.09-.15-.13-.33-.16-.51-.01-.06-.04-.21-.04-.34-.12.15-.17.33-.2.45-.01.06-.01.11-.02.13,0-.03-.04-.08-.09-.14-.02-.03-.05-.05-.06-.07,0,.02-.01.05-.02.07-.01.11.01.19.05.25Z"/>
              <path class="cls-28" d="M49.4,53.61c.09.16.08.14-.06.25.15.06.28-.06.45-.03.2.02.4.13.55.26.21.2.36.45.51.7.42.71.88,1.41,1.34,2.09.45.66,1,1.27,1.4,1.96.35.52.69,1.04,1.02,1.57.16.26.31.52.47.79.14.24.31.47.43.72.03.05.06.1.1.13,0,0,.01,0,.02.01.1.04.23-.02.31-.1.07-.07.13-.14.19-.2-.18.1-.42.05-.59-.07-.19-.15-.31-.37-.43-.59-.91-1.74-2.04-3.36-3.17-4.96-.02-.03-.04-.07-.07-.1-.42-.63-.85-1.26-1.27-1.89-.16-.24-.35-.42-.61-.55-.03-.02-.06-.03-.1-.03-.16-.05-.3-.18-.4-.32-.09-.15-.16-.31-.22-.47-.04-.11-.08-.22-.1-.33-.03-.19,0-.38.02-.57.02-.14.05-.28.11-.4-.12.12-.2.28-.24.44-.09.37-.01.76.1,1.13.06.21.15.39.25.57Z"/>
              <path class="cls-28" d="M48.79,55.2c.41,1.58,1.29,2.94,2.04,4.37-.11-.09-.23-.16-.36-.21.07.11.15.22.23.32.12.15.28.25.39.4.1.13.2.26.3.39.47.61.94,1.21,1.42,1.81.13.17.27.34.41.5.18.22.38.44.56.66.07-.05.14-.12.2-.19.04-.04.09-.08.14-.09-.25.03-.37-.07-.55-.23-.75-.71-1.33-1.61-1.9-2.48-.59-.91-1.13-1.84-1.62-2.81-.3-.59-.59-1.2-.85-1.82-.12-.28-.23-.56-.28-.86-.05-.27-.03-.56.07-.81-.15.17-.27.37-.29.6-.01.15.02.31.06.46Z"/>
              <path class="cls-17" d="M49.9,59.98c.16.3.4.58.63.82.13.14.25.31.46.25.21-.06.38-.17.56-.29.19-.14-.12-.48-.21-.58-.17-.21-.31-.45-.52-.63,0,0,0,.01.01.02-.11-.09-.23-.16-.36-.21-.14-.04-.3-.06-.45-.03-.09.02-.18.05-.25.1,0,.01,0,.04,0,.06,0,.17.06.34.14.48Z"/>
              <path class="cls-17" d="M50.47,55.94c.28-.07.55-.23.71-.48.17-.26-.13-.56-.27-.76-.11-.16-.23-.33-.35-.49-.11-.14-.21-.3-.36-.4-.19-.12-.4-.1-.61-.06-.18.03-.47.11-.52.32-.03.13.12.38.17.5.14.34.32.66.51.98.09.16.2.32.37.38.11.04.24.02.35,0Z"/>
              <path class="cls-17" d="M49.49,51.84s0,.06,0,.09c-.01.33.18.65.39.9.19.23.42.42.65.59.14.1.28.21.45.23.29.04.57-.16.68-.42.02-.04.03-.07.03-.11,0-.07-.04-.14-.08-.19-.36-.5-.75-.97-1.19-1.41-.12-.12-.31-.36-.5-.28-.24.1-.38.36-.42.61Z"/>
              <path class="cls-17" d="M52.08,52.05c-.37.18-.05.51.11.72.25.31.51.6.78.9.19.21.41.4.71.29.28-.1.56-.32.34-.62-.3-.39-.59-.82-.96-1.15-.24-.22-.58-.26-.89-.17-.03,0-.07.02-.1.04Z"/>
            </g>
            <path class="cls-28" d="M49.51,60.24c.17.7.44,1.32.77,1.96.04.07.07.14.12.22.23.43.46.87.67,1.31.21.34.37.75.53,1.13.02.06.05.11.08.17.22.49.44.98.66,1.46.21.46.41.91.63,1.36.87,1.85,1.89,3.32,3.14,4.92,4.66,5.92,8.42,12.45,12.52,18.76,3.52,5.41,7.15,10.74,10.88,16.01.22.31.46.64.82.78.21.08.45.08.68.06,1.65-.12,3.07-.93,4.08-2.23,1.25-1.59.63-2.58.68-4.44.03-1.04.53-1.99.74-3,.28-1.38.01-2.82-.53-4.12-.34-.82-.72-1.59-1.15-2.33.29,1.12.47,2.26.54,3.41.07.93-.06,2.08-.91,2.48-.35.16-.79.17-1.04.46-.29.33-.18.83-.21,1.28-.06.88-.85,1.64-1.72,1.69-.73.03-1.4-.37-2.01-.78-1.67-1.14-3.22-2.47-4.59-3.95-1.88-2.03-3.44-4.34-5.02-6.62-1.82-2.63-3.68-5.23-5.59-7.8-1.81-2.43-3.85-4.75-5.53-7.26-.43-.64-.88-1.37-.97-2.15-.06-.51.16-.93.2-1.42-.31-.02-.61.06-.92.05-.3,0-.49-.13-.73-.27-.3-.18-.59-.29-.84-.54-.27-.27-.47-.59-.68-.91-.74-1.16-1.49-2.33-2.23-3.49-.2-.32-.41-.64-.49-1-.08-.33-.05-.69.14-.97-.07.05-.17.06-.25.02-.12-.05-.2-.15-.27-.25-.4-.55-.78-1.12-1.11-1.72-.37-.68-.68-1.39-.89-2.13-.04-.13-.07-.25-.08-.38-.01-.19.04-.38.1-.56-.16.11-.27.28-.27.47,0,.11.02.22.05.32Z"/>
            <g class="cls-4">
              <path class="cls-5" d="M58.21,59.11c.05.09.1.17.17.25.17.21.37.39.5.63.13.23.22.49.25.75.03.27.12.54.17.81.34,2.04.84,4.06,1.58,5.99.77,2.01,1.82,3.73,3.07,5.45.84,1.16,1.75,2.27,2.72,3.32.37.4.74.79,1.13,1.18,1.91,1.9,4.04,3.43,6.23,4.99,2.82,2.02,5.46,4.27,8.09,6.52.73.62,1.47,1.25,1.92,2.09,0-.04-.02-.08-.03-.12-.89-1.29-1.92-2.48-3.1-3.59-2.29-2.15-4.77-4.08-7.19-6.09-3.38-2.81-6.76-5.66-9.62-9.01-1.33-1.55-2.09-3.17-2.74-5.08-.19-1.08-.75-2.21-1.1-3.25-.3-.9-.59-1.8-.74-2.74-.01-.07-.03-.13-.04-.2-.04-.17-.1-.34-.16-.5-.15-.36-.38-.69-.65-.97-.15-.16-.3-.3-.44-.46Z"/>
            </g>
          </g>
          <path class="cls-12" d="M60.52,83.34c-.65.07-1.37-.03-2-.19-1.15-.3-2.3-.77-3.49-.65-.87.09-1.63.48-2.36.92.54-3.19.16-6.47-.22-9.7-.45-3.8-.9-7.61-1.35-11.41,1.12,5.49,2.26,11.04,4.76,16.19.64,1.32,1.38,2.63,2.55,3.64.6.52,1.33.94,2.11,1.21Z"/>
          <path class="cls-12" d="M39.91,79.11c.48-.64.93-1.29,1.36-1.96.87-1.38,1.61-2.82,2.25-4.29.6-1.39,1.38-2.97,1.57-4.44.19-1.52.74-3.04,1.12-4.54.41-1.64.79-3.28,1.14-4.93.23-1.12.36-2.19.46-3.32.29-3.35.34-6.73.13-10.09.87,1.55.93,3.34.93,5.06,0,1.46.1,3-.01,4.44-.13,1.7-.37,3.39-.56,5.08-.37,3.39-.74,6.78-1.12,10.17-.18,1.65-.07,3.31-.12,4.98-.06,1.83-.14,3.65-.19,5.48-.03,1.03-.06,2.08.22,3.08.05.16.1.32.16.48-1.02-.93-1.02-2.62-1.99-3.69-.83-.9-2.23-1.22-3.55-1.36-.59-.06-1.19-.1-1.78-.17Z"/>
          <path class="cls-12" d="M41.98,52.62c-1.92,7.31-4.69,14.45-8.25,21.28-.65-1.13-1.41-2.23-2.59-2.95-1.54-.94-4.05-.9-4.97.52.26-.41.53-.82.81-1.23,1.97-.65,3.9-1.4,5.49-2.59,1.5-1.12,2.61-2.58,3.63-4.05,2.39-3.47,4.37-7.16,5.88-10.98Z"/>
        </g>
        <g class="cls-8">
          <path class="cls-2" d="M35.11,41.52s-.02.05-.03.07c-.11.24-.33.44-.61.35-.21-.07-.33-.32-.33-.54,0-.2.09-.39.17-.57.31-.7.56-1.37.62-2.14.03-.38.02-.76-.03-1.14-.05-.38-.18-.72-.26-1.08.19.87.19,1.78,0,2.66-.09.43-.22.85-.4,1.26-.23.52-.75,1.59.07,1.89.66.24,1.15-.57,1.09-1.14-.04-.36-.2-.7-.36-1.03.2.42.22.98.05,1.42Z"/>
          <path class="cls-2" d="M61.51,50.92s-.02.05-.03.07c-.11.24-.33.44-.61.35-.21-.07-.33-.32-.33-.54,0-.2.09-.39.17-.57.31-.7.56-1.37.62-2.14.03-.38.02-.76-.03-1.14-.05-.38-.18-.72-.26-1.08.19.87.19,1.78,0,2.66-.09.43-.22.85-.4,1.26-.23.52-.75,1.59.07,1.89.66.24,1.15-.57,1.09-1.14-.04-.36-.2-.7-.36-1.03.2.42.22.98.05,1.42Z"/>
          <path class="cls-2" d="M59.78,38.17c-.7.87-.74,1.99-.11,2.81.15.2.34.38.47.59.13.21.2.46.1.69-.1.23-.41.43-.72.4-.27-.03-.45-.22-.47-.43-.02-.21.09-.42.26-.59-.05.12-.11.25-.1.38,0,.13.1.25.25.29.19.05.42-.06.51-.21s.05-.32-.03-.46c-.08-.14-.21-.26-.33-.38-.64-.71-.74-1.71-.26-2.56l.43-.52Z"/>
          <path class="cls-2" d="M34.71,48.19c-.12.31-.28.6-.37.92s-.07.69.14.94c.28.34.89.32,1.15-.03s.1-.94-.31-1.11c.12.17.23.35.25.56.02.21-.07.43-.25.52-.21.1-.49-.03-.61-.23-.12-.21-.11-.46-.04-.69s.18-.44.27-.66c.36-.88.29-1.93-.19-2.75.16.28.19.87.18,1.19-.02.46-.05.91-.22,1.34Z"/>
          <path class="cls-2" d="M37.11,53.5c.09.32.22.63.27.95.05.33,0,.69-.24.92-.32.31-.92.23-1.14-.16-.22-.38,0-.94.43-1.07-.14.15-.27.32-.31.53-.04.2.02.44.2.55.2.12.49.03.63-.17.14-.19.16-.45.12-.68-.04-.23-.13-.45-.2-.68-.27-.91-.09-1.95.48-2.71-.19.26-.28.85-.3,1.16-.03.46-.04.91.08,1.36Z"/>
          <path class="cls-2" d="M49.19,38.17c.12.31.28.6.37.92.08.32.07.69-.14.94-.28.34-.89.32-1.15-.03-.26-.36-.1-.94.31-1.11-.12.17-.23.35-.25.56-.02.21.07.43.25.52.21.1.49-.03.61-.23.12-.21.11-.46.04-.69s-.18-.44-.27-.66c-.36-.88-.29-1.93.19-2.75-.16.28-.19.87-.18,1.19.02.46.05.91.22,1.34Z"/>
          <path class="cls-2" d="M45.42,42.7c-.12.31-.28.6-.37.92-.08.32-.07.69.14.94.28.34.89.32,1.15-.03.26-.36.1-.94-.31-1.11.12.17.23.35.25.56.02.21-.07.43-.25.52-.21.1-.49-.03-.61-.23-.12-.21-.11-.46-.04-.69.07-.23.18-.44.27-.66.36-.88.29-1.93-.19-2.75.16.28.19.87.18,1.19-.02.46-.05.91-.22,1.34Z"/>
          <path class="cls-2" d="M56.56,53.95c-.12.31-.28.6-.37.92-.08.32-.07.69.14.94.28.34.89.32,1.15-.03s.1-.94-.31-1.11c.12.17.23.35.25.56.02.21-.07.43-.25.52-.21.1-.49-.03-.61-.23-.12-.21-.11-.46-.04-.69.07-.23.18-.44.27-.66.36-.88.29-1.93-.19-2.75.16.28.19.87.18,1.19-.02.46-.05.91-.22,1.34Z"/>
          <path class="cls-2" d="M44.81,35.66c-.12.31-.28.6-.37.92-.08.32-.07.69.14.94.28.34.89.32,1.15-.03.26-.36.1-.94-.31-1.11.12.17.23.35.25.56.02.21-.07.43-.25.52-.21.1-.49-.03-.61-.23-.12-.21-.11-.46-.04-.69.07-.23.18-.44.27-.66.36-.88.29-1.93-.19-2.75.16.28.19.87.18,1.19-.02.46-.05.91-.22,1.34Z"/>
          <path class="cls-2" d="M55.73,31.29c-.12.31-.28.6-.37.92-.08.32-.07.69.14.94.28.34.89.32,1.15-.03.26-.36.1-.94-.31-1.11.12.17.23.35.25.56.02.21-.07.43-.25.52-.21.1-.49-.03-.61-.23-.12-.21-.11-.46-.04-.69s.18-.44.27-.66c.36-.88.29-1.93-.19-2.75.16.28.19.87.18,1.19-.02.46-.05.91-.22,1.34Z"/>
        </g>
      </g>
    </g>
  </g>
</svg>