<?xml version="1.0" encoding="UTF-8"?>
<svg xmlns="http://www.w3.org/2000/svg" viewBox="0 0 100 100">
  <defs>
    <style>
      .cls-1, .cls-2 {
        fill: #d5effb;
      }

      .cls-2, .cls-3, .cls-4 {
        mix-blend-mode: multiply;
      }

      .cls-5 {
        fill: #9fb8c6;
      }

      .cls-6 {
        fill: #8ca4b1;
      }

      .cls-7 {
        fill: #fff;
      }

      .cls-8, .cls-9, .cls-4 {
        fill: #edecec;
      }

      .cls-10 {
        fill: #12234a;
      }

      .cls-11, .cls-3 {
        fill: #bad7e6;
      }

      .cls-12 {
        fill: #ed2250;
      }

      .cls-13 {
        fill: #9f1d24;
      }

      .cls-14 {
        isolation: isolate;
      }

      .cls-9, .cls-15 {
        mix-blend-mode: screen;
      }

      .cls-15 {
        opacity: .6;
      }

      .cls-16 {
        fill: #114a84;
      }
    </style>
  </defs>
  <g class="cls-14">
    <g id="Layer_2" data-name="Layer 2">
      <g>
        <g>
          <rect class="cls-1" x="45.35" y="69.64" width="9.93" height="22.35"/>
          <path class="cls-6" d="M55.28,92.3h-9.93c-.18,0-.31-.14-.31-.31v-22.35c0-.17.14-.31.31-.31h9.93c.17,0,.31.14.31.31v22.35c0,.18-.14.31-.31.31ZM45.66,91.67h9.3s0-21.72,0-21.72h-9.3s0,21.72,0,21.72Z"/>
        </g>
        <path class="cls-2" d="M50.94,74.62c1.32-.1,2.71-.37,3.99-.88v-4.64s-9.66,0-9.66,0v4.47c1.67.98,3.79,1.19,5.67,1.04Z"/>
        <g>
          <path class="cls-8" d="M78.67,12.52c-2.71-6.79-16.81-8.48-25.36-8.88-1.24-.05-2.36-.08-3.32-.1-.95.02-2.08.04-3.32.1-8.55.4-22.64,2.09-25.36,8.88-2.94,7.36-3.8,52.48,24.03,59.12,1.47.35,3.01.59,4.64.71,1.63-.13,3.17-.37,4.64-.71,27.83-6.64,26.97-51.76,24.03-59.12Z"/>
          <path class="cls-5" d="M50,72.67s-.02,0-.02,0c-1.63-.13-3.2-.37-4.69-.72-8.15-1.94-14.54-7.3-19.01-15.9-8.41-16.22-7.19-38.78-5.24-43.64,2.8-6.99,17.26-8.69,25.64-9.08,1.25-.05,2.37-.08,3.33-.1.97.02,2.09.04,3.34.1,8.37.39,22.84,2.08,25.64,9.08,1.95,4.86,3.16,27.42-5.24,43.64-4.46,8.61-10.86,13.96-19.01,15.9-1.48.36-3.06.6-4.69.72,0,0-.02,0-.03,0ZM49.99,3.85c-.94.01-2.06.04-3.3.1-8.23.38-22.41,2.01-25.08,8.69-1.92,4.79-3.1,27.06,5.21,43.11,4.37,8.44,10.64,13.68,18.6,15.59,1.45.34,2.99.58,4.57.7,1.58-.12,3.12-.36,4.57-.7,7.97-1.9,14.22-7.15,18.6-15.59,8.32-16.05,7.13-38.32,5.22-43.11-2.67-6.67-16.86-8.3-25.08-8.69-1.24-.05-2.35-.08-3.31-.1Z"/>
        </g>
        <path class="cls-3" d="M77.25,11.28c-2.58-4.96-15.97-6.76-24.1-7.05-1.18-.04-5.13.17-6.31.21-8.12.29-21.51,1.88-24.1,6.83-2.8,5.37-3.61,38.28,22.84,43.13,1.4.25,2.87.42,4.41.52,1.55-.09,3.02-.27,4.41-.52,26.45-4.85,25.64-37.76,22.84-43.13Z"/>
        <g>
          <path class="cls-10" d="M72.28,11.57c-2.11-4.8-13.06-6-19.7-6.27-.97-.04-1.83-.06-2.58-.07-.75.01-1.61.03-2.58.07-6.64.27-17.59,1.47-19.7,6.27-2.29,5.2-2.95,37.08,18.67,41.77,1.14.25,2.34.42,3.61.5,1.27-.09,2.47-.26,3.61-.51,21.63-4.69,20.96-36.57,18.67-41.77Z"/>
          <path class="cls-16" d="M71.85,11.67c-2.07-4.6-12.81-5.75-19.32-6.02-.94-.04-1.8-.06-2.53-.07-.73.01-1.58.03-2.53.07-6.52.27-17.25,1.42-19.32,6.02-2.24,4.99-2.9,35.57,18.31,40.06,1.12.24,2.29.4,3.54.48,1.24-.08,2.42-.24,3.54-.48,21.21-4.49,20.55-35.07,18.31-40.06Z"/>
        </g>
        <g>
          <path class="cls-11" d="M69.36,25.25c0,6.29-5.2,11.28-11.52,11.28h-15.13c-6.32,0-11.43-4.99-11.43-11.28v-.42c0-6.29,5.11-11.47,11.43-11.47h15.13c6.32,0,11.52,5.18,11.52,11.47v.42Z"/>
          <path class="cls-7" d="M57.84,36.84h-15.13c-6.47,0-11.75-5.2-11.75-11.59v-.42c0-6.5,5.27-11.79,11.75-11.79h15.13c6.52,0,11.83,5.28,11.83,11.79v.42c0,6.39-5.31,11.59-11.83,11.59ZM42.71,13.67c-6.13,0-11.12,5.01-11.12,11.16v.42c0,6.05,4.99,10.97,11.12,10.97h15.13c6.18,0,11.2-4.92,11.2-10.97v-.42c0-6.15-5.03-11.16-11.2-11.16h-15.13Z"/>
        </g>
        <g>
          <path class="cls-7" d="M69.36,25.04c0,5.89-5.24,10.66-11.28,10.66h-14.7c-6.03,0-10.45-4.77-10.45-10.66v-.08c0-5.89,4.41-9.95,10.45-9.95h14.7c6.04,0,11.28,4.06,11.28,9.95v.08Z"/>
          <path class="cls-11" d="M58.08,36.02h-14.7c-6.03,0-10.76-4.82-10.76-10.98,0-6.03,4.53-10.34,10.76-10.34h14.7c6.5,0,11.59,4.51,11.59,10.26,0,6.03-5.31,11.06-11.59,11.06ZM43.38,15.32c-5.97,0-10.14,3.96-10.14,9.64,0,5.98,4.36,10.43,10.14,10.43h14.7c5.94,0,10.96-4.74,10.96-10.35,0-5.48-4.82-9.71-10.96-9.71h-14.7Z"/>
        </g>
        <g>
          <path d="M42.59,22.06v-2.8s1.05-1.05,1.05-1.05v4.11s-.39.39-.39.39l-.66-.66ZM43.64,23.51v4.1s-1.05-1.05-1.05-1.05v-2.79s.66-.66.66-.66l.39.4Z"/>
          <path d="M51.61,18.04l-1.04,1.05h-3.39s-1.04-1.05-1.04-1.05h5.46ZM51.61,27.79h-5.46s1.04-1.05,1.04-1.05h3.39s1.04,1.05,1.04,1.05ZM50.7,22.39l.53.53-.53.52h-3.65s-.51-.52-.51-.52l.51-.53h3.65ZM50.75,22.06v-2.79s1.05-1.05,1.05-1.05v4.1s-.38.39-.38.39l-.67-.66ZM51.8,23.51v4.09s-1.05-1.05-1.05-1.05v-2.79s.67-.65.67-.65l.38.4Z"/>
          <path d="M54.53,22.06l-.66.66-.39-.39v-4.1s1.05,1.05,1.05,1.05v2.79ZM54.53,26.55l-1.05,1.05v-4.09s.39-.4.39-.4l.66.65v2.79ZM59.13,18.04l-1.03,1.05h-3.39s-1.04-1.05-1.04-1.05h5.46ZM59.13,27.79h-5.46s1.04-1.05,1.04-1.05h3.39s1.03,1.05,1.03,1.05ZM59.33,22.32l-.38.39-.67-.66v-2.79s1.05-1.05,1.05-1.05v4.1ZM59.33,27.6l-1.05-1.05v-2.79s.67-.65.67-.65l.38.4v4.09Z"/>
        </g>
        <g>
          <path d="M52.85,31.48h.39s0,.21,0,.21h0c.13-.16.3-.24.52-.24.14,0,.25.03.33.07.08.05.16.11.22.19.16-.18.36-.27.62-.26.16,0,.31.06.44.17.14.12.21.29.21.52v1.31s-.38,0-.38,0v-1.18c0-.14-.04-.24-.11-.32-.07-.07-.17-.11-.29-.11-.11,0-.21.04-.28.11-.08.08-.11.18-.11.32v1.18s-.39,0-.39,0v-1.18c0-.14-.04-.24-.11-.32-.07-.07-.17-.11-.29-.11-.11,0-.21.04-.28.11-.08.08-.12.18-.12.32v1.18s-.39,0-.39,0v-1.97Z"/>
          <path d="M57.25,33.25c-.13.15-.29.22-.49.22-.12,0-.22-.03-.31-.08-.08-.05-.15-.1-.19-.16-.05-.06-.09-.14-.11-.23-.03-.09-.04-.27-.04-.53,0-.26.01-.44.04-.54.02-.09.06-.17.11-.24.04-.07.11-.12.19-.17.08-.04.19-.07.31-.07.19,0,.35.08.49.24v-.21s.38,0,.38,0v1.93c0,.3-.09.51-.25.65-.16.15-.35.21-.58.21-.26,0-.48-.11-.66-.33l.3-.24c.05.05.1.09.17.12.06.04.13.05.2.06.13,0,.24-.04.32-.11.08-.08.12-.18.12-.32v-.2ZM56.5,32.47c0,.15,0,.25.01.31.01.06.03.11.06.15.03.04.07.07.12.1.05.03.11.05.19.05.07,0,.14-.02.19-.05.05-.03.09-.07.11-.1.04-.04.06-.09.07-.15,0-.06.01-.16.01-.31,0-.16,0-.26-.01-.32-.01-.06-.03-.11-.07-.14-.02-.04-.06-.07-.11-.11-.05-.03-.11-.05-.19-.05-.08,0-.14.02-.19.05-.05.03-.09.07-.12.11-.03.04-.05.08-.06.14,0,.07-.01.17-.01.32Z"/>
          <path d="M58.88,30.66h.3s-.9,2.81-.9,2.81h-.3s.9-2.81.9-2.81Z"/>
          <path d="M60.64,33.25c-.13.15-.3.22-.49.22-.12,0-.21-.03-.3-.07-.08-.04-.16-.1-.22-.18-.05-.06-.09-.15-.1-.25-.02-.1-.04-.27-.04-.5,0-.24.02-.4.04-.5.01-.1.05-.18.1-.25.11-.16.28-.25.52-.26.1,0,.19.02.27.06.08.04.15.1.22.17v-1s.38,0,.38,0v2.77s-.38,0-.38,0v-.2ZM60.26,31.85c-.09,0-.16.02-.21.05-.05.03-.09.08-.11.14-.02.06-.04.13-.05.19-.01.07-.01.15-.01.23,0,.08,0,.15.01.22.01.07.03.14.05.2.03.06.06.1.11.14.05.03.12.05.21.05.09,0,.16-.02.21-.06.05-.04.09-.09.11-.14.02-.07.04-.13.05-.2,0-.08,0-.15,0-.22,0-.08,0-.15,0-.22-.01-.07-.03-.13-.05-.19-.02-.07-.06-.11-.11-.15-.05-.04-.12-.05-.21-.05Z"/>
          <path d="M61.55,30.68h.41s0,2.38,0,2.38h1.31s0,.4,0,.4h-1.71s0-2.77,0-2.77Z"/>
        </g>
        <g>
          <g>
            <g>
              <path class="cls-10" d="M56.06,55.5c.29-.18.55-.32,1.16-.35,1.92-.07,7.51,4.66,7.83,5.19.29.35.35.72.33,1.09.02.33-.08.67-.32.99-.32.61-6.07,5.42-7.99,5.35-.7-.02-.83-.2-1.13-.43-.52-.39-.24-.9-.24-.9v-9.94s-.29-.59.36-.99Z"/>
              <path class="cls-16" d="M56.38,55.91c.24-.17.65-.3,1.15-.32,1.59-.07,6.29,4.21,6.55,4.68.24.32.34.66.32.98.01.3-.05.6-.24.89-.27.55-4.98,4.9-6.57,4.83-.57-.02-1.07-.18-1.31-.38-.43-.35-.58-.82-.58-.82v-8.98s.15-.53.68-.89Z"/>
            </g>
            <g>
              <path class="cls-10" d="M44.45,55.5c-.3-.18-.62-.32-1.23-.35-1.92-.07-7.55,4.66-7.87,5.19-.29.35-.36.72-.34,1.09-.02.33.07.67.31.99.32.61,6.06,5.42,7.99,5.35.7-.02.95-.2,1.25-.43.53-.39.37-.9.37-.9v-9.94s.16-.59-.48-.99Z"/>
              <path class="cls-16" d="M43.71,55.91c-.24-.17-.51-.3-1.01-.32-1.59-.07-6.22,4.21-6.48,4.68-.24.32-.3.66-.29.98-.01.3.07.6.26.89.27.55,4.99,4.9,6.59,4.83.57-.02.78-.18,1.02-.38.44-.35.3-.82.3-.82v-8.98s.14-.53-.39-.89Z"/>
            </g>
            <g>
              <path class="cls-10" d="M54.04,64.85c0,1.96-1.59,3.55-3.54,3.55h-.36c-1.96,0-3.55-1.59-3.55-3.55v-6.16c0-1.95,1.59-3.54,3.55-3.54h.36c1.95,0,3.54,1.59,3.54,3.54v6.16Z"/>
              <path class="cls-16" d="M53.21,64.11c0,1.81-1.09,3.28-2.9,3.28h0c-1.81,0-2.9-1.47-2.9-3.28v-4.88c0-1.81,1.09-3.29,2.9-3.29h0c1.81,0,2.9,1.47,2.9,3.29v4.88Z"/>
            </g>
          </g>
          <g>
            <path class="cls-7" d="M51.56,63.01c0,.23-.23.42-.52.42h-.63c-.28,0-.52-.19-.52-.42v-1.64c0-.24.23-.42.52-.42h.63c.29,0,.52.19.52.42v1.64Z"/>
            <path class="cls-7" d="M50.4,64.35c-1.43,0-2.6-1.17-2.6-2.6,0-1.43,1.17-2.6,2.6-2.6,1.44,0,2.6,1.17,2.6,2.6,0,1.43-1.16,2.6-2.6,2.6ZM50.4,59.78c-1.09,0-1.97.89-1.97,1.97,0,1.09.88,1.97,1.97,1.97,1.09,0,1.97-.88,1.97-1.97,0-1.09-.89-1.97-1.97-1.97Z"/>
          </g>
        </g>
        <path class="cls-9" d="M22.58,41.91s3.99,26.57,26.37,29.72c0,0-18.59-4.2-26.37-29.72Z"/>
        <path class="cls-4" d="M77.51,41.91s-3.99,26.57-26.37,29.72c0,0,18.59-4.2,26.37-29.72Z"/>
      </g>
      <g>
        <path class="cls-13" d="M50.48,80.85c-.1-.17-.2-.31-.27-.43-.07.12-.17.26-.27.43-2.06,3.27-9.06,15.46-.28,17.24.18.04.91.04,1.08,0,8.79-1.77,1.79-13.96-.27-17.24Z"/>
        <path class="cls-12" d="M49.78,84.27c-.08-.12-.15-.23-.2-.31-.06.08-.12.19-.2.31-1.53,2.44-6.76,11.55-.2,12.87.13.03.68.03.81,0,6.56-1.33,1.33-10.43-.2-12.87Z"/>
        <g class="cls-15">
          <path class="cls-7" d="M50.45,94.33c0,1.03-.83,1.86-1.86,1.86-1.02,0-1.86-.83-1.86-1.86,0-1.03.83-1.86,1.86-1.86,1.03,0,1.86.83,1.86,1.86Z"/>
          <path class="cls-7" d="M47.79,90.71c0,.17-.14.32-.32.32-.17,0-.31-.14-.31-.32,0-.17.14-.32.31-.32.18,0,.32.14.32.32Z"/>
        </g>
      </g>
    </g>
  </g>
</svg>