<?xml version="1.0" encoding="UTF-8"?>
<svg id="Layer_2" data-name="Layer 2" xmlns="http://www.w3.org/2000/svg" viewBox="0 0 100 100">
  <defs>
    <style>
      .cls-1 {
        fill: #e4f3f2;
      }

      .cls-2 {
        fill: #d3eae8;
      }

      .cls-3 {
        fill: #eb3747;
      }

      .cls-4 {
        fill: #ff6363;
      }

      .cls-5 {
        fill: #c2dddc;
      }

      .cls-6 {
        fill: #f4fffd;
      }

      .cls-7 {
        fill: #ca2d43;
      }
    </style>
  </defs>
  <path class="cls-5" d="M66.81,79.97c0,9.28-7.52,16.81-16.81,16.81s-16.81-7.52-16.81-16.81c0-6.6,3.81-12.32,9.35-15.06V10.68c0-4.12,3.34-7.46,7.46-7.46,2.06,0,3.93.83,5.28,2.19,1.35,1.35,2.19,3.21,2.19,5.28v54.22c5.54,2.75,9.35,8.46,9.35,15.06Z"/>
  <path class="cls-3" d="M63.58,79.97c0,7.5-6.08,13.58-13.58,13.58s-13.58-6.08-13.58-13.58c0-5.62,3.42-10.44,8.28-12.51V21.34h10.58v46.12c4.87,2.06,8.28,6.89,8.28,12.51Z"/>
  <path class="cls-1" d="M44.71,21.34v-10.5c0-2.92,2.37-5.29,5.29-5.29,1.46,0,2.78.59,3.74,1.55.96.96,1.55,2.28,1.55,3.74v10.5h-10.58Z"/>
  <path class="cls-7" d="M55.29,21.34v46.12c-.75-.35-3.21-.6-3.21-.6V21.34h3.21Z"/>
  <path class="cls-2" d="M55.29,10.84v10.5h-3.21v-10.75c0-1.76-.94-4.53-4.36-4.53.69-.33,1.46-.52,2.28-.52,1.46,0,2.78.59,3.74,1.55.96.96,1.55,2.28,1.55,3.74Z"/>
  <rect x="51.45" y="11.82" width="2.76" height=".53"/>
  <rect x="51.45" y="16.45" width="2.76" height=".53"/>
  <rect x="52.86" y="12.96" width="1.36" height=".27"/>
  <rect x="52.86" y="13.83" width="1.36" height=".27"/>
  <rect x="52.86" y="14.7" width="1.36" height=".27"/>
  <rect x="52.86" y="15.58" width="1.36" height=".27"/>
  <rect x="51.45" y="21.07" width="2.76" height=".53"/>
  <rect x="52.86" y="17.59" width="1.36" height=".27"/>
  <rect x="52.86" y="18.46" width="1.36" height=".27"/>
  <rect x="52.86" y="19.33" width="1.36" height=".27"/>
  <rect x="52.86" y="20.2" width="1.36" height=".27"/>
  <rect x="51.45" y="25.7" width="2.76" height=".53"/>
  <rect x="52.86" y="22.21" width="1.36" height=".27"/>
  <rect x="52.86" y="23.08" width="1.36" height=".27"/>
  <rect x="52.86" y="23.96" width="1.36" height=".27"/>
  <rect x="52.86" y="24.83" width="1.36" height=".27"/>
  <rect x="51.45" y="30.33" width="2.76" height=".53"/>
  <rect x="52.86" y="26.84" width="1.36" height=".27"/>
  <rect x="52.86" y="27.71" width="1.36" height=".27"/>
  <rect x="52.86" y="28.58" width="1.36" height=".27"/>
  <rect x="52.86" y="29.45" width="1.36" height=".27"/>
  <rect x="51.45" y="34.95" width="2.76" height=".53"/>
  <rect x="52.86" y="31.46" width="1.36" height=".27"/>
  <rect x="52.86" y="32.34" width="1.36" height=".27"/>
  <rect x="52.86" y="33.21" width="1.36" height=".27"/>
  <rect x="52.86" y="34.08" width="1.36" height=".27"/>
  <rect x="51.45" y="39.58" width="2.76" height=".53"/>
  <rect x="52.86" y="36.09" width="1.36" height=".27"/>
  <rect x="52.86" y="36.96" width="1.36" height=".27"/>
  <rect x="52.86" y="37.83" width="1.36" height=".27"/>
  <rect x="52.86" y="38.71" width="1.36" height=".27"/>
  <rect x="51.45" y="44.2" width="2.76" height=".53"/>
  <rect x="52.86" y="40.72" width="1.36" height=".27"/>
  <rect x="52.86" y="41.59" width="1.36" height=".27"/>
  <rect x="52.86" y="42.46" width="1.36" height=".27"/>
  <rect x="52.86" y="43.33" width="1.36" height=".27"/>
  <rect x="51.45" y="48.83" width="2.76" height=".53"/>
  <rect x="52.86" y="45.34" width="1.36" height=".27"/>
  <rect x="52.86" y="46.21" width="1.36" height=".27"/>
  <rect x="52.86" y="47.09" width="1.36" height=".27"/>
  <rect x="52.86" y="47.96" width="1.36" height=".27"/>
  <rect x="51.45" y="53.46" width="2.76" height=".53"/>
  <rect x="52.86" y="49.97" width="1.36" height=".27"/>
  <rect x="52.86" y="50.84" width="1.36" height=".27"/>
  <rect x="52.86" y="51.71" width="1.36" height=".27"/>
  <rect x="52.86" y="52.58" width="1.36" height=".27"/>
  <rect x="51.45" y="58.08" width="2.76" height=".53"/>
  <rect x="52.86" y="54.59" width="1.36" height=".27"/>
  <rect x="52.86" y="55.46" width="1.36" height=".27"/>
  <rect x="52.86" y="56.34" width="1.36" height=".27"/>
  <rect x="52.86" y="57.21" width="1.36" height=".27"/>
  <rect x="51.45" y="62.71" width="2.76" height=".53"/>
  <rect x="52.86" y="59.22" width="1.36" height=".27"/>
  <rect x="52.86" y="60.09" width="1.36" height=".27"/>
  <rect x="52.86" y="60.96" width="1.36" height=".27"/>
  <rect x="52.86" y="61.83" width="1.36" height=".27"/>
  <path class="cls-7" d="M63.58,79.97c0,7.5-6.08,13.58-13.58,13.58-3.92,0-7.44-1.66-9.92-4.31,2.59,1.2,6.16,1.72,10.84-.08,4.47-1.72,7.66-6.47,8.04-10.97.34-4.06-.73-7.64-2.92-10.37,4.46,2.22,7.53,6.83,7.53,12.16Z"/>
  <path class="cls-4" d="M44.58,74.81c-2.02,2.02-2.88,4.44-3.99,3.33-1.11-1.11-.37-3.64,1.66-5.66,2.02-2.02,4.56-2.76,5.66-1.66,1.11,1.11-1.31,1.97-3.33,3.99Z"/>
  <circle class="cls-4" cx="39.96" cy="81.7" r="1.35"/>
  <path class="cls-6" d="M48.86,12.61v8.74h-2.83v-8.74c0-.78.63-1.42,1.42-1.42.39,0,.75.16,1,.41.26.26.42.61.42,1Z"/>
  <path class="cls-4" d="M48.86,21.34v36.56c0,.78-.63,1.42-1.42,1.42s-1.42-.63-1.42-1.42V21.34h2.83Z"/>
</svg>