<?xml version="1.0" encoding="UTF-8"?>
<svg xmlns="http://www.w3.org/2000/svg" viewBox="0 0 800 600">
  <defs>
    <style>
      .cls-1, .cls-2 {
        opacity: .6;
      }

      .cls-3 {
        fill: #99dfff;
      }

      .cls-4 {
        fill: #f8cd9e;
      }

      .cls-5 {
        fill: #5a4e6d;
      }

      .cls-6 {
        fill: #574a66;
      }

      .cls-7 {
        fill: #fff;
      }

      .cls-8 {
        fill: #473d56;
      }

      .cls-9 {
        fill: #55ce5a;
      }

      .cls-10 {
        fill: #58abdd;
      }

      .cls-11 {
        fill: #5eb9f7;
      }

      .cls-12 {
        fill: #acb1af;
      }

      .cls-13 {
        fill: #463b56;
      }

      .cls-14 {
        fill: #aedeff;
      }

      .cls-15 {
        opacity: .8;
      }

      .cls-16 {
        isolation: isolate;
      }

      .cls-17 {
        fill: #d66;
      }

      .cls-18 {
        fill: #cdd1cf;
      }

      .cls-19 {
        fill: #f77c7c;
      }

      .cls-20 {
        fill: #a791c9;
      }

      .cls-21 {
        fill: #70617f;
      }

      .cls-22 {
        fill: #fb9d7e;
      }

      .cls-23 {
        fill: #80d2ff;
      }

      .cls-24 {
        fill: #9dc89e;
      }

      .cls-25 {
        fill: #c9cdcb;
      }

      .cls-26 {
        fill: #bbdefb;
      }

      .cls-27 {
        opacity: .3;
      }

      .cls-27, .cls-2, .cls-28 {
        mix-blend-mode: multiply;
      }

      .cls-29 {
        fill: #599e85;
      }

      .cls-30, .cls-28 {
        opacity: .5;
      }

      .cls-31 {
        fill: #e96362;
      }

      .cls-32 {
        opacity: .7;
      }

      .cls-33 {
        fill: #2f4182;
      }
    </style>
  </defs>
  <g class="cls-16">
    <g id="Layer_1" data-name="Layer 1">
      <g>
        <g>
          <g class="cls-28">
            <circle class="cls-14" cx="294.02" cy="252.73" r="238.91" transform="translate(-92.59 281.93) rotate(-45)"/>
            <circle class="cls-14" cx="596.7" cy="341.16" r="148.19"/>
            <circle class="cls-14" cx="581.94" cy="116.9" r="55.22" transform="translate(419.07 687.68) rotate(-85.43)"/>
          </g>
          <g>
            <path class="cls-24" d="M119.55,544.29s-3.21-33.16-33.68-48.37c-28.34-14.15-44.08-13.37-77.6-11.07-20.86,1.43,12.42,1.07,21.86,27.73,8.36,23.59,19.67,57.45,60.28,58.69,40.61,1.24,29.13-26.98,29.13-26.98Z"/>
            <path class="cls-29" d="M98.78,546.91c-3.4-23.7-26.01-38.64-44.38-47-20.04-9.12-39.53-12.61-39.73-12.65l.31-1.78c.2.03,19.88,3.56,40.13,12.77,11.92,5.42,21.71,11.73,29.1,18.74,9.29,8.83,14.8,18.8,16.35,29.66l-1.79.26Z"/>
            <path class="cls-29" d="M33.24,504.82l-.73-1.65c.43-.19,10.79-4.63,30.43-1.02l-.33,1.78c-19.03-3.49-29.27.86-29.37.9Z"/>
            <path class="cls-29" d="M43.37,532.3l-.59-1.71c.29-.1,29.26-9.94,51.69-.61l-.69,1.67c-21.81-9.06-50.13.55-50.41.65Z"/>
            <path class="cls-29" d="M71.83,509.49c-7.35-5.43-7.65-19.72-7.66-20.33l1.81-.03c0,.14.3,14.01,6.93,18.9l-1.07,1.45Z"/>
            <path class="cls-29" d="M94.85,534.1c-3.45-10.08-2.68-29-1.8-30.86l1.63.77h0c-.64,1.62-1.47,19.73,1.87,29.5l-1.71.58Z"/>
          </g>
          <g>
            <path class="cls-24" d="M145.11,550.64s4.08-11.82-3.95-21.76c-7.47-9.25-12.96-11.44-24.75-15.88-7.34-2.76,4.07,2.3,3.14,12.87-.83,9.35-2.25,22.67,11.42,29.43,13.67,6.76,14.15-4.67,14.15-4.67Z"/>
            <path class="cls-29" d="M137.61,548.3c2.54-8.62-2.85-17.24-7.82-22.96-5.42-6.24-11.52-10.47-11.59-10.51l.38-.56c.06.04,6.23,4.32,11.7,10.62,3.22,3.71,5.58,7.39,7.01,10.94,1.8,4.46,2.12,8.72.96,12.67l-.65-.19Z"/>
            <path class="cls-29" d="M121.81,523.71v-.68c.19,0,4.41.1,10.55,4.4l-.39.56c-5.95-4.16-10.12-4.27-10.16-4.27Z"/>
            <path class="cls-29" d="M120.98,534.67l.06-.67c.11.01,11.53,1.17,17.74,7.85l-.5.46c-6.03-6.49-17.19-7.63-17.3-7.64Z"/>
            <path class="cls-29" d="M134.25,531.32c-1.66-3,.46-7.92.56-8.13l.62.27s-2.08,4.83-.58,7.53l-.59.33Z"/>
            <path class="cls-29" d="M138.27,543.31c.39-3.98,3.61-10.31,4.2-10.81l.44.52h0c-.47.46-3.58,6.5-3.96,10.36l-.67-.07Z"/>
          </g>
          <g>
            <path class="cls-24" d="M680.45,544.29s3.21-33.16,33.68-48.37c28.34-14.15,44.08-13.37,77.6-11.07,20.86,1.43-12.42,1.07-21.86,27.73-8.36,23.59-19.67,57.45-60.28,58.69-40.61,1.24-29.13-26.98-29.13-26.98Z"/>
            <path class="cls-29" d="M701.22,546.91c3.4-23.7,26.01-38.64,44.38-47,20.04-9.12,39.53-12.61,39.73-12.65l-.31-1.78c-.2.03-19.88,3.56-40.13,12.77-11.92,5.42-21.71,11.73-29.1,18.74-9.29,8.83-14.8,18.8-16.35,29.66l1.79.26Z"/>
            <path class="cls-29" d="M766.76,504.82l.73-1.65c-.43-.19-10.79-4.63-30.43-1.02l.33,1.78c19.03-3.49,29.27.86,29.37.9Z"/>
            <path class="cls-29" d="M756.63,532.3l.59-1.71c-.29-.1-29.26-9.94-51.69-.61l.69,1.67c21.81-9.06,50.13.55,50.41.65Z"/>
            <path class="cls-29" d="M728.17,509.49c7.35-5.43,7.65-19.72,7.66-20.33l-1.81-.03c0,.14-.3,14.01-6.93,18.9l1.07,1.45Z"/>
            <path class="cls-29" d="M705.15,534.1c3.45-10.08,2.68-29,1.8-30.86l-1.63.77h0c.64,1.62,1.47,19.73-1.87,29.5l1.71.58Z"/>
          </g>
          <g>
            <path class="cls-24" d="M652.92,561.89s-12.38-14.85-6.23-33.62c5.72-17.47,12.45-23.64,27.07-36.54,9.09-8.02-4.62,5.56,2.53,20.33,6.33,13.07,15.69,31.54-.36,48.81-16.05,17.26-23.01,1.02-23.01,1.02Z"/>
            <path class="cls-29" d="M662.47,554.39c-8.39-11.07-5.34-26.49-1.3-37.48,4.41-11.99,10.91-21.46,10.98-21.55l-.86-.6c-.07.09-6.64,9.66-11.09,21.77-2.62,7.13-4.01,13.74-4.13,19.65-.15,7.43,1.73,13.77,5.57,18.84l.83-.63Z"/>
            <path class="cls-29" d="M671.82,510.18l-.38-.97c-.25.1-6.31,2.57-12.83,12.14l.87.59c6.32-9.28,12.29-11.73,12.35-11.75Z"/>
            <path class="cls-29" d="M679.03,525.56l-.46-.94c-.16.08-16.03,8.02-21.33,21.09l.97.39c5.15-12.7,20.67-20.46,20.82-20.54Z"/>
            <path class="cls-29" d="M658.01,528.01c.76-5.25-5.02-11.2-5.27-11.45l-.75.73c.06.06,5.66,5.83,4.98,10.57l1.04.15Z"/>
            <path class="cls-29" d="M658.79,547.55c-2.75-5.53-10.87-12.93-12-13.33l-.35.99h0c.94.4,8.75,7.44,11.42,12.8l.94-.47Z"/>
          </g>
          <rect class="cls-29" x="1.53" y="575" width="796.95" height="7.88"/>
          <path class="cls-29" d="M621.86,575.88s13.14-38.53,54.74-24.52c0,0,10.51-32.84,39.41-31.75,28.9,1.09,38.1,28.12,38.1,28.12,0,0,38.83-4.69,44.37,28.15h-176.61Z"/>
          <g>
            <path class="cls-24" d="M709.84,575.69l-1.73-.28c3.73-23.16-10.63-39.82-10.78-39.99l1.32-1.16c.15.17,15.06,17.43,11.19,41.42Z"/>
            <path class="cls-24" d="M710.29,561.51l-1.34-1.13c.13-.16,13.29-15.89,15.53-25.74l1.71.39c-2.33,10.26-15.34,25.82-15.89,26.48Z"/>
            <path class="cls-24" d="M709.55,569.85c-10.36-.56-19.52-11.23-19.91-11.68l1.34-1.13c.09.11,9.07,10.54,18.67,11.07l-.1,1.75Z"/>
          </g>
          <path class="cls-24" d="M742.13,576.54l-1.14-1.33c.75-.64,18.38-15.79,27.58-16.05l.05,1.75c-8.58.24-26.31,15.47-26.49,15.62Z"/>
          <path class="cls-24" d="M776.43,573.61c-.14,0-14.17-.86-25.54-3.79l.44-1.7c11.2,2.89,25.06,3.73,25.2,3.74l-.1,1.75Z"/>
          <path class="cls-24" d="M671.85,575.67c-9.24-7.68-28.75-13.83-28.94-13.89l.52-1.67c.81.25,20.04,6.31,29.54,14.21l-1.12,1.35Z"/>
          <path class="cls-24" d="M664.91,569.61l-1.75-.05c.23-7.79-3.15-13.87-3.19-13.93l1.53-.86c.15.27,3.66,6.57,3.41,14.84Z"/>
          <path class="cls-29" d="M1.53,575.88s3.5-31.97,39.85-30.21c0,0,3.5-25.4,24.08-31.75,20.58-6.35,44.66,5.25,50.36,30.98,0,0,17.52-14.96,41.16-5.57,23.65,9.4,19.27,36.55,19.27,36.55H1.53Z"/>
          <path class="cls-24" d="M88.17,575.07c-2.52-31.43-20.01-47.35-20.19-47.51l1.16-1.31c.18.16,18.19,16.51,20.77,48.68l-1.75.14Z"/>
          <path class="cls-24" d="M86.69,564.44c-.26-13.39,9.88-29.99,10.32-30.69l1.49.92c-.1.17-10.31,16.87-10.06,29.74l-1.75.03Z"/>
          <path class="cls-24" d="M121.14,575.57l-1.32-1.15c.74-.85,18.29-20.79,36.52-22.63l.18,1.74c-17.54,1.76-35.2,21.83-35.38,22.03Z"/>
          <path class="cls-24" d="M153.54,568.71c-4.59,0-13.88-.33-22.92-2.66l.44-1.7c12.36,3.18,25.21,2.57,25.33,2.56l.09,1.75s-1.12.05-2.94.05Z"/>
          <path class="cls-24" d="M46.97,575.7c-7.98-6.02-26.01-10.38-26.19-10.43l.41-1.7c.75.18,18.56,4.49,26.84,10.73l-1.06,1.4Z"/>
          <path class="cls-24" d="M42.55,572.78c-4.88-10.66-2.64-17.46-2.54-17.74l1.66.57c-.02.06-2.08,6.48,2.48,16.45l-1.59.73Z"/>
          <g>
            <g class="cls-1">
              <path class="cls-7" d="M267.22,157.94c0,1.1-.42,2.1-1.11,2.85h-61.31l-.56-.38c-.57-.38-1.07-.86-1.42-1.44-.23-.39-.39-.78-.49-1.18-.64-2.58,1.15-5.21,3.78-5.35,1.16-.06,2.21.36,3,1.08,0-.12-.02-.24-.02-.36,0-3.56,2.85-6.44,6.38-6.44,3.09,0,5.67,2.22,6.25,5.17.08.41.12.84.12,1.27,0,.2-.01.41-.03.61h.03c1.19,0,2.27.51,3.02,1.32h0c.03-.7.24-1.36.57-1.94.72-1.23,2.04-2.05,3.55-2.05,1.76,0,3.26,1.11,3.86,2.68.76-.83,1.84-1.35,3.04-1.35,1,0,1.91.36,2.63.95.35-2.94,2.81-5.21,5.81-5.21.98,0,1.9.25,2.71.67,1.46-3.31,4.87-5.54,8.76-5.2,4.96.44,8.58,5.12,7.85,10.09,0,.02,0,.04,0,.06,1.58.21,2.87,1.32,3.36,2.81.14.42.22.86.22,1.33Z"/>
            </g>
            <path class="cls-7" d="M552.33,316.73c0,1.59.26,3.11.76,4.54h1.41v.06h13.58s.29,0,.29,0h10.53s.03.02.05.03c.09.09.19.17.28.25.04-.08.07-.16.09-.25,0-.01,0-.03.01-.04l26.86-.03h16.2s6.61-.02,6.61-.02h14.56s20.81-.02,20.81-.02h.06s.04,0,.07,0c.54.01,3.47.01,3.66,0h.09l34.45-.03h7.52s0,0,0,0c.02,0,.03,0,.05,0,.15.02.86.02,1.79.01,2.19-.02,5.61-.12,5.97-.14,0,0,4.85-3.48,4.66-10.24-.16-5.86-5.3-10.09-10.93-10.09-1.15,0-2.24.2-3.27.55.13-.77.21-1.57.21-2.38,0-7.86-6.31-14.24-14.09-14.24-3.41,0-6.54,1.22-8.97,3.26-3.81-6.82-11.04-11.43-19.35-11.43-10.6,0-19.45,7.5-21.66,17.52-.23,1.05-.4,2.14-.47,3.24h0c-.16-.11-.31-.21-.47-.31-2.15-1.35-4.69-2.13-7.41-2.13-6.4,0-11.8,4.3-13.52,10.2-1.75-1.45-3.99-2.31-6.44-2.31-.09,0-.17,0-.25,0-1.23.02-2.4.28-3.48.7-.6-4.4-2.58-8.36-5.49-11.4-3.68-3.85-8.85-6.25-14.57-6.25-10.5,0-19.13,8.08-20.14,18.41-1.86-.93-3.95-1.46-6.17-1.46-7.67,0-13.88,6.27-13.88,14.02Z"/>
            <path class="cls-7" d="M90.7,326.69c0,1.59.26,3.11.76,4.54h1.41v.06h13.58s.29,0,.29,0h10.53s.03.02.05.03c.09.09.19.17.28.25.04-.08.07-.16.09-.25,0-.01,0-.03.01-.04l26.86-.03h16.2s6.61-.02,6.61-.02h14.56s20.81-.02,20.81-.02h.06s.04,0,.07,0c.54.01,3.47.01,3.66,0h.09l34.45-.03h7.52s0,0,0,0c.02,0,.03,0,.05,0,.15.02.86.02,1.79.01,2.19-.02,5.61-.12,5.97-.14,0,0,4.85-3.48,4.66-10.24-.16-5.86-5.3-10.09-10.93-10.09-1.15,0-2.24.2-3.27.55.13-.77.21-1.57.21-2.38,0-7.86-6.31-14.24-14.09-14.24-3.41,0-6.54,1.22-8.97,3.26-3.81-6.82-11.04-11.43-19.35-11.43-10.6,0-19.45,7.5-21.66,17.52-.23,1.05-.4,2.14-.47,3.24h0c-.16-.11-.31-.21-.47-.31-2.15-1.35-4.69-2.13-7.41-2.13-6.4,0-11.8,4.3-13.52,10.2-1.75-1.45-3.99-2.31-6.44-2.31-.09,0-.17,0-.25,0-1.23.02-2.4.28-3.48.7-.6-4.4-2.58-8.36-5.49-11.4-3.68-3.85-8.85-6.25-14.57-6.25-10.5,0-19.13,8.08-20.14,18.41-1.86-.93-3.95-1.46-6.17-1.46-7.67,0-13.88,6.27-13.88,14.02Z"/>
            <path class="cls-7" d="M181.38,86.58c0,1.87.31,3.66.89,5.34h1.66v.07h15.98s.34,0,.34,0h12.39s.03.02.05.04c.11.11.22.2.33.29.04-.1.08-.19.11-.29,0-.01,0-.03.01-.05l31.61-.03h19.07s7.78-.02,7.78-.02h17.13s24.5-.03,24.5-.03h.07s.04,0,.09,0c.64.01,4.08.01,4.3,0h.11l40.55-.03h8.85s0,0,0,0c.02,0,.04,0,.06,0,.17.02,1.01.03,2.11.01,2.57-.03,6.6-.14,7.02-.17,0,0,5.71-4.1,5.49-12.05-.19-6.89-6.23-11.88-12.86-11.88-1.35,0-2.64.23-3.85.65.15-.91.25-1.84.25-2.8,0-9.25-7.43-16.76-16.59-16.76-4.01,0-7.69,1.44-10.56,3.83-4.48-8.03-13-13.46-22.77-13.46-12.47,0-22.9,8.82-25.49,20.63-.28,1.24-.47,2.52-.56,3.82h0c-.18-.13-.37-.25-.56-.37-2.54-1.59-5.52-2.5-8.72-2.5-7.53,0-13.89,5.06-15.91,12-2.06-1.7-4.7-2.72-7.58-2.72-.1,0-.2,0-.3,0-1.44.03-2.82.32-4.09.82-.7-5.18-3.03-9.84-6.46-13.42-4.33-4.54-10.41-7.36-17.15-7.36-12.36,0-22.51,9.51-23.7,21.66-2.19-1.1-4.65-1.72-7.27-1.72-9.03,0-16.34,7.38-16.34,16.5Z"/>
            <g class="cls-1">
              <path class="cls-7" d="M508.51,239.14c0,1.85.71,3.54,1.87,4.8h103.25l.95-.63c.95-.64,1.8-1.44,2.39-2.43.39-.65.66-1.31.83-1.99,1.07-4.34-1.94-8.77-6.36-9.01-1.95-.1-3.73.61-5.05,1.82.01-.2.03-.4.03-.61,0-5.99-4.81-10.84-10.74-10.84-5.2,0-9.54,3.74-10.53,8.7-.14.69-.21,1.41-.21,2.14,0,.34.02.68.05,1.02h-.05c-2.01,0-3.82.86-5.09,2.23h0c-.05-1.18-.4-2.3-.96-3.26-1.21-2.07-3.44-3.45-5.99-3.45-2.96,0-5.49,1.87-6.49,4.51-1.27-1.39-3.09-2.27-5.12-2.27-1.68,0-3.23.6-4.43,1.61-.58-4.94-4.74-8.78-9.79-8.78-1.65,0-3.2.41-4.56,1.13-2.46-5.57-8.21-9.33-14.76-8.75-8.35.74-14.45,8.62-13.22,16.99,0,.04,0,.07.02.11-2.65.36-4.84,2.23-5.67,4.73-.24.7-.37,1.45-.37,2.24Z"/>
            </g>
            <g class="cls-1">
              <path class="cls-7" d="M89.18,249.02c0,3.11,1.19,5.92,3.13,8.04h173.02l1.59-1.06c1.6-1.07,3.01-2.42,4.01-4.07.66-1.09,1.11-2.2,1.39-3.34,1.8-7.27-3.25-14.7-10.66-15.09-3.27-.17-6.25,1.02-8.46,3.05.02-.34.05-.67.05-1.02,0-10.04-8.06-18.17-18-18.17-8.72,0-15.99,6.27-17.64,14.59-.23,1.16-.35,2.36-.35,3.59,0,.58.03,1.15.09,1.71h-.09c-3.37,0-6.39,1.43-8.53,3.73h0c-.09-1.99-.67-3.85-1.62-5.46-2.03-3.46-5.76-5.78-10.03-5.78-4.97,0-9.2,3.14-10.88,7.56-2.14-2.33-5.18-3.8-8.57-3.8-2.82,0-5.4,1.01-7.42,2.69-.98-8.29-7.94-14.71-16.41-14.71-2.76,0-5.36.69-7.65,1.9-4.12-9.33-13.76-15.64-24.73-14.67-14,1.24-24.22,14.44-22.15,28.47,0,.06.02.12.03.18-4.45.6-8.1,3.73-9.49,7.93-.4,1.18-.61,2.43-.61,3.75Z"/>
            </g>
            <g class="cls-15">
              <path class="cls-7" d="M621.57,354.93c0,1.18.46,2.26,1.2,3.07h66.02l.61-.41c.61-.41,1.15-.92,1.53-1.55.25-.42.42-.84.53-1.27.69-2.77-1.24-5.61-4.07-5.76-1.25-.07-2.38.39-3.23,1.16,0-.13.02-.26.02-.39,0-3.83-3.07-6.93-6.87-6.93-3.33,0-6.1,2.39-6.73,5.57-.09.44-.13.9-.13,1.37,0,.22.01.44.03.65h-.03c-1.28,0-2.44.55-3.26,1.42h0c-.03-.76-.25-1.47-.62-2.08-.77-1.32-2.2-2.21-3.83-2.21-1.89,0-3.51,1.2-4.15,2.88-.82-.89-1.98-1.45-3.27-1.45-1.08,0-2.06.39-2.83,1.03-.37-3.16-3.03-5.61-6.26-5.61-1.05,0-2.04.26-2.92.72-1.57-3.56-5.25-5.97-9.44-5.6-5.34.47-9.24,5.51-8.45,10.86,0,.02,0,.05.01.07-1.7.23-3.09,1.42-3.62,3.03-.15.45-.23.93-.23,1.43Z"/>
            </g>
          </g>
        </g>
        <path class="cls-7" d="M531.84,110.74v429.02c0,2.21-1.72,4-3.85,4h-254.02c-3.22,0-5.82-2.71-5.82-6.05V110.74c0-3.22,2.6-5.82,5.83-5.82h252.03c3.23,0,5.83,2.61,5.83,5.82Z"/>
        <g>
          <polygon class="cls-12" points="698.82 549.05 698.82 536.52 640.28 536.52 614.02 536.52 577.59 536.52 556.52 536.52 490.63 536.52 483.39 536.52 467.64 536.52 402.38 536.52 380.36 536.52 370.69 536.52 308.02 536.52 299.34 536.52 299.34 549.05 299.34 549.26 308.02 549.26 370.69 549.26 380.36 549.26 402.38 549.26 467.64 549.26 483.39 549.26 490.63 549.26 577.59 549.26 614.02 549.26 698.82 549.26 698.82 549.05"/>
          <g>
            <rect class="cls-12" x="139.12" y="214.89" width="46.13" height="29.74"/>
            <rect class="cls-12" x="119.96" y="240.38" width="83.76" height="313.1"/>
            <g>
              <g>
                <g>
                  <rect class="cls-25" x="165.89" y="259.05" width="19.32" height="19.32" transform="translate(351.1 537.42) rotate(180)"/>
                  <rect class="cls-25" x="138.48" y="259.05" width="19.32" height="19.32" transform="translate(296.27 537.42) rotate(180)"/>
                </g>
                <g>
                  <rect class="cls-25" x="165.89" y="285.84" width="19.32" height="19.32" transform="translate(351.1 591.01) rotate(180)"/>
                  <rect class="cls-25" x="138.48" y="285.84" width="19.32" height="19.32" transform="translate(296.27 591.01) rotate(180)"/>
                </g>
              </g>
              <g>
                <g>
                  <rect class="cls-25" x="165.89" y="324.6" width="19.32" height="19.32" transform="translate(351.1 668.52) rotate(180)"/>
                  <rect class="cls-25" x="138.48" y="324.6" width="19.32" height="19.32" transform="translate(296.27 668.52) rotate(180)"/>
                </g>
                <g>
                  <rect class="cls-25" x="165.89" y="351.39" width="19.32" height="19.32" transform="translate(351.1 722.1) rotate(180)"/>
                  <rect class="cls-25" x="138.48" y="351.39" width="19.32" height="19.32" transform="translate(296.27 722.1) rotate(180)"/>
                </g>
              </g>
              <g>
                <g>
                  <rect class="cls-25" x="165.89" y="390.15" width="19.32" height="19.32" transform="translate(351.1 799.61) rotate(180)"/>
                  <rect class="cls-25" x="138.48" y="390.15" width="19.32" height="19.32" transform="translate(296.27 799.61) rotate(180)"/>
                </g>
                <g>
                  <rect class="cls-25" x="165.89" y="416.94" width="19.32" height="19.32" transform="translate(351.1 853.2) rotate(180)"/>
                  <rect class="cls-25" x="138.48" y="416.94" width="19.32" height="19.32" transform="translate(296.27 853.2) rotate(180)"/>
                </g>
              </g>
            </g>
          </g>
          <g>
            <rect class="cls-12" x="428.64" y="121.84" width="47.34" height="43.7"/>
            <rect class="cls-12" x="394.96" y="144.6" width="81.02" height="399.36"/>
            <g>
              <g>
                <g>
                  <rect class="cls-25" x="438.46" y="164.29" width="14.27" height="14.27" transform="translate(891.18 342.85) rotate(180)"/>
                  <rect class="cls-25" x="418.2" y="164.29" width="14.27" height="14.27" transform="translate(850.68 342.85) rotate(180)"/>
                </g>
                <g>
                  <rect class="cls-25" x="438.46" y="184.08" width="14.27" height="14.27" transform="translate(891.18 382.43) rotate(180)"/>
                  <rect class="cls-25" x="418.2" y="184.08" width="14.27" height="14.27" transform="translate(850.68 382.43) rotate(180)"/>
                </g>
              </g>
              <g>
                <g>
                  <rect class="cls-25" x="438.46" y="212.09" width="14.27" height="14.27" transform="translate(891.18 438.44) rotate(180)"/>
                  <rect class="cls-25" x="418.2" y="212.09" width="14.27" height="14.27" transform="translate(850.68 438.44) rotate(180)"/>
                </g>
                <g>
                  <rect class="cls-25" x="438.46" y="231.88" width="14.27" height="14.27" transform="translate(891.18 478.02) rotate(180)"/>
                  <rect class="cls-25" x="418.2" y="231.88" width="14.27" height="14.27" transform="translate(850.68 478.02) rotate(180)"/>
                </g>
              </g>
              <g>
                <g>
                  <rect class="cls-25" x="438.46" y="259.88" width="14.27" height="14.27" transform="translate(891.18 534.03) rotate(180)"/>
                  <rect class="cls-25" x="418.2" y="259.88" width="14.27" height="14.27" transform="translate(850.68 534.03) rotate(180)"/>
                </g>
                <g>
                  <rect class="cls-25" x="438.46" y="279.67" width="14.27" height="14.27" transform="translate(891.18 573.61) rotate(180)"/>
                  <rect class="cls-25" x="418.2" y="279.67" width="14.27" height="14.27" transform="translate(850.68 573.61) rotate(180)"/>
                </g>
              </g>
              <g>
                <g>
                  <rect class="cls-25" x="438.46" y="307.68" width="14.27" height="14.27" transform="translate(891.18 629.62) rotate(180)"/>
                  <rect class="cls-25" x="418.2" y="307.68" width="14.27" height="14.27" transform="translate(850.68 629.62) rotate(180)"/>
                </g>
                <g>
                  <rect class="cls-25" x="438.46" y="327.47" width="14.27" height="14.27" transform="translate(891.18 669.21) rotate(180)"/>
                  <rect class="cls-25" x="418.2" y="327.47" width="14.27" height="14.27" transform="translate(850.68 669.21) rotate(180)"/>
                </g>
              </g>
              <g>
                <g>
                  <rect class="cls-25" x="438.46" y="355.47" width="14.27" height="14.27" transform="translate(891.18 725.22) rotate(180)"/>
                  <rect class="cls-25" x="418.2" y="355.47" width="14.27" height="14.27" transform="translate(850.68 725.22) rotate(180)"/>
                </g>
                <g>
                  <rect class="cls-25" x="438.46" y="375.27" width="14.27" height="14.27" transform="translate(891.18 764.8) rotate(180)"/>
                  <rect class="cls-25" x="418.2" y="375.27" width="14.27" height="14.27" transform="translate(850.68 764.8) rotate(180)"/>
                </g>
              </g>
            </g>
          </g>
          <polygon class="cls-25" points="698.83 562.3 698.81 562.3 600.6 562.3 449.31 562.3 431.06 562.3 355.47 562.3 318.77 562.3 246.19 562.3 133.89 562.3 132.67 562.3 132.67 562.25 132.67 549.05 133.89 549.05 222.46 549.05 236.13 549.05 246.19 549.05 318.77 549.05 329.97 549.05 355.47 549.05 431.06 549.05 449.31 549.05 457.69 549.05 558.41 549.05 600.6 549.05 698.81 549.05 698.81 549.26 698.81 562.25 698.83 562.25 698.83 562.3"/>
          <polygon class="cls-18" points="698.83 562.3 698.83 574.99 58.99 574.99 58.99 562.3 58.99 562.25 60.37 562.25 187.28 562.25 269.31 562.25 310.79 562.25 396.22 562.25 416.84 562.25 587.81 562.25 698.81 562.25 698.83 562.25 698.83 562.3"/>
          <rect class="cls-12" x="575.68" y="264.31" width="46.13" height="29.74"/>
          <rect class="cls-12" x="556.52" y="289.8" width="83.76" height="250.06"/>
          <g>
            <g>
              <g>
                <rect class="cls-25" x="602.45" y="308.47" width="19.32" height="19.32" transform="translate(1224.22 636.26) rotate(180)"/>
                <rect class="cls-25" x="575.03" y="308.47" width="19.32" height="19.32" transform="translate(1169.38 636.26) rotate(180)"/>
              </g>
              <g>
                <rect class="cls-25" x="602.45" y="335.27" width="19.32" height="19.32" transform="translate(1224.22 689.85) rotate(180)"/>
                <rect class="cls-25" x="575.03" y="335.27" width="19.32" height="19.32" transform="translate(1169.38 689.85) rotate(180)"/>
              </g>
            </g>
            <g>
              <g>
                <rect class="cls-25" x="602.45" y="374.02" width="19.32" height="19.32" transform="translate(1224.22 767.36) rotate(180)"/>
                <rect class="cls-25" x="575.03" y="374.02" width="19.32" height="19.32" transform="translate(1169.38 767.36) rotate(180)"/>
              </g>
              <g>
                <rect class="cls-25" x="602.45" y="400.81" width="19.32" height="19.32" transform="translate(1224.22 820.95) rotate(180)"/>
                <rect class="cls-25" x="575.03" y="400.81" width="19.32" height="19.32" transform="translate(1169.38 820.95) rotate(180)"/>
              </g>
            </g>
            <g>
              <g>
                <rect class="cls-25" x="602.45" y="439.57" width="19.32" height="19.32" transform="translate(1224.22 898.46) rotate(180)"/>
                <rect class="cls-25" x="575.03" y="439.57" width="19.32" height="19.32" transform="translate(1169.38 898.46) rotate(180)"/>
              </g>
              <g>
                <rect class="cls-25" x="602.45" y="466.36" width="19.32" height="19.32" transform="translate(1224.22 952.04) rotate(180)"/>
                <rect class="cls-25" x="575.03" y="466.36" width="19.32" height="19.32" transform="translate(1169.38 952.04) rotate(180)"/>
              </g>
            </g>
          </g>
          <rect class="cls-12" x="298.53" y="88.55" width="81.03" height="455.11"/>
          <g>
            <g>
              <g>
                <rect class="cls-25" x="321.79" y="108.24" width="14.27" height="14.27"/>
                <rect class="cls-25" x="342.04" y="108.24" width="14.27" height="14.27"/>
              </g>
              <g>
                <rect class="cls-25" x="321.79" y="128.03" width="14.27" height="14.27"/>
                <rect class="cls-25" x="342.04" y="128.03" width="14.27" height="14.27"/>
              </g>
            </g>
            <g>
              <g>
                <rect class="cls-25" x="321.79" y="156.03" width="14.27" height="14.27"/>
                <rect class="cls-25" x="342.04" y="156.03" width="14.27" height="14.27"/>
              </g>
              <g>
                <rect class="cls-25" x="321.79" y="175.82" width="14.27" height="14.27"/>
                <rect class="cls-25" x="342.04" y="175.82" width="14.27" height="14.27"/>
              </g>
            </g>
            <g>
              <g>
                <rect class="cls-25" x="321.79" y="203.83" width="14.27" height="14.27"/>
                <rect class="cls-25" x="342.04" y="203.83" width="14.27" height="14.27"/>
              </g>
              <g>
                <rect class="cls-25" x="321.79" y="223.62" width="14.27" height="14.27"/>
                <rect class="cls-25" x="342.04" y="223.62" width="14.27" height="14.27"/>
              </g>
            </g>
            <g>
              <g>
                <rect class="cls-25" x="321.79" y="251.62" width="14.27" height="14.27"/>
                <rect class="cls-25" x="342.04" y="251.62" width="14.27" height="14.27"/>
              </g>
              <g>
                <rect class="cls-25" x="321.79" y="271.41" width="14.27" height="14.27"/>
                <rect class="cls-25" x="342.04" y="271.41" width="14.27" height="14.27"/>
              </g>
            </g>
            <g>
              <g>
                <rect class="cls-25" x="321.79" y="299.42" width="14.27" height="14.27"/>
                <rect class="cls-25" x="342.04" y="299.42" width="14.27" height="14.27"/>
              </g>
              <g>
                <rect class="cls-25" x="321.79" y="319.21" width="14.27" height="14.27"/>
                <rect class="cls-25" x="342.04" y="319.21" width="14.27" height="14.27"/>
              </g>
            </g>
          </g>
          <polygon class="cls-25" points="202.14 209.12 202.14 561.79 278.61 561.79 278.61 129.91 202.14 209.12"/>
          <g>
            <path class="cls-12" d="M216.48,226.89h47.8c1.76,0,3.19-1.43,3.19-3.19h0c0-1.76-1.43-3.19-3.19-3.19h-47.8c-1.76,0-3.19,1.43-3.19,3.19h0c0,1.76,1.43,3.19,3.19,3.19Z"/>
            <path class="cls-12" d="M216.48,243.73h47.8c1.76,0,3.19-1.43,3.19-3.19h0c0-1.76-1.43-3.19-3.19-3.19h-47.8c-1.76,0-3.19,1.43-3.19,3.19h0c0,1.76,1.43,3.19,3.19,3.19Z"/>
            <rect class="cls-12" x="213.29" y="254.2" width="54.17" height="6.37" rx="3.19" ry="3.19" transform="translate(480.75 514.78) rotate(180)"/>
            <path class="cls-12" d="M216.48,277.42h47.8c1.76,0,3.19-1.43,3.19-3.19h0c0-1.76-1.43-3.19-3.19-3.19h-47.8c-1.76,0-3.19,1.43-3.19,3.19h0c0,1.76,1.43,3.19,3.19,3.19Z"/>
            <path class="cls-12" d="M216.48,294.26h47.8c1.76,0,3.19-1.43,3.19-3.19h0c0-1.76-1.43-3.19-3.19-3.19h-47.8c-1.76,0-3.19,1.43-3.19,3.19h0c0,1.76,1.43,3.19,3.19,3.19Z"/>
            <rect class="cls-12" x="213.29" y="304.73" width="54.17" height="6.37" rx="3.19" ry="3.19" transform="translate(480.75 615.83) rotate(-180)"/>
            <path class="cls-12" d="M216.48,327.94h47.8c1.76,0,3.19-1.43,3.19-3.19h0c0-1.76-1.43-3.19-3.19-3.19h-47.8c-1.76,0-3.19,1.43-3.19,3.19h0c0,1.76,1.43,3.19,3.19,3.19Z"/>
            <path class="cls-12" d="M216.48,344.79h47.8c1.76,0,3.19-1.43,3.19-3.19h0c0-1.76-1.43-3.19-3.19-3.19h-47.8c-1.76,0-3.19,1.43-3.19,3.19h0c0,1.76,1.43,3.19,3.19,3.19Z"/>
          </g>
          <polygon class="cls-25" points="490.63 220.58 490.63 561.79 577.59 561.79 577.59 323.62 490.63 220.58"/>
          <g>
            <path class="cls-18" d="M561.28,337.49h-54.35c-2,0-3.62-1.62-3.62-3.62h0c0-2,1.62-3.62,3.62-3.62h54.35c2,0,3.62,1.62,3.62,3.62h0c0,2-1.62,3.62-3.62,3.62Z"/>
            <path class="cls-18" d="M561.28,356.64h-54.35c-2,0-3.62-1.62-3.62-3.62h0c0-2,1.62-3.62,3.62-3.62h54.35c2,0,3.62,1.62,3.62,3.62h0c0,2-1.62,3.62-3.62,3.62Z"/>
            <path class="cls-18" d="M561.28,375.8h-54.35c-2,0-3.62-1.62-3.62-3.62h0c0-2,1.62-3.62,3.62-3.62h54.35c2,0,3.62,1.62,3.62,3.62h0c0,2-1.62,3.62-3.62,3.62Z"/>
            <path class="cls-18" d="M561.28,394.95h-54.35c-2,0-3.62-1.62-3.62-3.62h0c0-2,1.62-3.62,3.62-3.62h54.35c2,0,3.62,1.62,3.62,3.62h0c0,2-1.62,3.62-3.62,3.62Z"/>
            <path class="cls-18" d="M561.28,414.1h-54.35c-2,0-3.62-1.62-3.62-3.62h0c0-2,1.62-3.62,3.62-3.62h54.35c2,0,3.62,1.62,3.62,3.62h0c0,2-1.62,3.62-3.62,3.62Z"/>
            <rect class="cls-18" x="503.31" y="426.01" width="61.6" height="7.25" rx="3.62" ry="3.62"/>
            <path class="cls-18" d="M561.28,452.41h-54.35c-2,0-3.62-1.62-3.62-3.62h0c0-2,1.62-3.62,3.62-3.62h54.35c2,0,3.62,1.62,3.62,3.62h0c0,2-1.62,3.62-3.62,3.62Z"/>
            <path class="cls-18" d="M561.28,471.56h-54.35c-2,0-3.62-1.62-3.62-3.62h0c0-2,1.62-3.62,3.62-3.62h54.35c2,0,3.62,1.62,3.62,3.62h0c0,2-1.62,3.62-3.62,3.62Z"/>
          </g>
          <polygon class="cls-18" points="211.06 447.59 211.06 563.83 308.02 563.83 308.02 447.59 306.73 446.39 212.36 446.39 211.06 447.59"/>
          <polygon class="cls-18" points="211.06 447.59 212.36 446.39 259.53 402.38 306.73 446.39 308.02 447.59 308.02 448.1 211.06 448.1 211.06 447.59"/>
          <polygon class="cls-18" points="401.95 398.35 401.95 565.5 498.9 565.5 498.9 398.35 497.61 396.62 403.24 396.62 401.95 398.35"/>
          <polygon class="cls-18" points="401.95 397.82 403.24 396.62 450.41 352.61 497.61 396.62 498.9 397.82 498.9 398.33 401.95 398.33 401.95 397.82"/>
          <g>
            <g>
              <rect class="cls-7" x="263.46" y="482.81" width="18.69" height="18.69" transform="translate(545.61 984.3) rotate(180)"/>
              <rect class="cls-7" x="236.94" y="482.81" width="18.69" height="18.69" transform="translate(492.56 984.3) rotate(180)"/>
            </g>
            <g>
              <rect class="cls-7" x="263.46" y="508.73" width="18.69" height="18.69" transform="translate(545.61 1036.14) rotate(180)"/>
              <rect class="cls-7" x="236.94" y="508.73" width="18.69" height="18.69" transform="translate(492.56 1036.14) rotate(180)"/>
            </g>
          </g>
          <g>
            <polygon class="cls-18" points="698.82 463.39 698.82 565.06 614.02 565.06 614.02 463.39 615.15 462.34 697.69 462.34 698.82 463.39"/>
            <polygon class="cls-18" points="614.02 463.39 615.15 462.34 656.41 423.85 697.69 462.34 698.82 463.39 698.82 463.84 614.02 463.84 614.02 463.39"/>
            <g>
              <g>
                <rect class="cls-7" x="659.85" y="494.19" width="16.34" height="16.34" transform="translate(1336.04 1004.72) rotate(180)"/>
                <rect class="cls-7" x="636.65" y="494.19" width="16.34" height="16.34" transform="translate(1289.64 1004.72) rotate(180)"/>
              </g>
              <g>
                <rect class="cls-7" x="659.85" y="516.86" width="16.34" height="16.34" transform="translate(1336.04 1050.06) rotate(180)"/>
                <rect class="cls-7" x="636.65" y="516.86" width="16.34" height="16.34" transform="translate(1289.64 1050.06) rotate(180)"/>
              </g>
            </g>
          </g>
          <g>
            <polygon class="cls-18" points="144.32 463.39 144.32 565.06 59.52 565.06 59.52 463.39 60.65 462.34 143.19 462.34 144.32 463.39"/>
            <polygon class="cls-18" points="59.52 463.39 60.65 462.34 101.91 423.85 143.19 462.34 144.32 463.39 144.32 463.84 59.52 463.84 59.52 463.39"/>
            <g>
              <g>
                <rect class="cls-7" x="105.35" y="494.19" width="16.34" height="16.34" transform="translate(227.04 1004.72) rotate(180)"/>
                <rect class="cls-7" x="82.15" y="494.19" width="16.34" height="16.34" transform="translate(180.64 1004.72) rotate(180)"/>
              </g>
              <g>
                <rect class="cls-7" x="105.35" y="516.86" width="16.34" height="16.34" transform="translate(227.04 1050.06) rotate(180)"/>
                <rect class="cls-7" x="82.15" y="516.86" width="16.34" height="16.34" transform="translate(180.64 1050.06) rotate(180)"/>
              </g>
            </g>
          </g>
          <g>
            <g>
              <g>
                <rect class="cls-7" x="454.34" y="431.9" width="18.69" height="18.69" transform="translate(927.37 882.49) rotate(180)"/>
                <rect class="cls-7" x="427.82" y="431.9" width="18.69" height="18.69" transform="translate(874.32 882.49) rotate(180)"/>
              </g>
              <g>
                <rect class="cls-7" x="454.34" y="457.82" width="18.69" height="18.69" transform="translate(927.37 934.33) rotate(180)"/>
                <rect class="cls-7" x="427.82" y="457.82" width="18.69" height="18.69" transform="translate(874.32 934.33) rotate(180)"/>
              </g>
            </g>
            <g>
              <g>
                <rect class="cls-7" x="454.34" y="485.61" width="18.69" height="18.69" transform="translate(927.37 989.91) rotate(180)"/>
                <rect class="cls-7" x="427.82" y="485.61" width="18.69" height="18.69" transform="translate(874.32 989.91) rotate(180)"/>
              </g>
              <g>
                <rect class="cls-7" x="454.34" y="511.53" width="18.69" height="18.69" transform="translate(927.37 1041.76) rotate(180)"/>
                <rect class="cls-7" x="427.82" y="511.53" width="18.69" height="18.69" transform="translate(874.32 1041.76) rotate(180)"/>
              </g>
            </g>
          </g>
        </g>
        <g>
          <ellipse class="cls-9" cx="621.57" cy="119.99" rx="50.58" ry="51.86" transform="translate(77.11 442.97) rotate(-41.6)"/>
          <path class="cls-7" d="M595.26,112.15c4.25,13.17,19.41,30.55,33.05,37.22,8.2,4,15.34,5.31,21.22.05,5.87-5.26,4.63-8.14,1.72-12.1-2.91-3.96-5.82-5.24-7.66-5.57-3.49-.63-10.29,5.25-12.44,5.59-2.16.34-3.38-.41-7.54-3.31-.7-.49-1.45-1.14-2.21-1.91-1.58-1.61-8.41-9.29-9.82-11.05-.67-.85-1.24-1.67-1.64-2.42-2.38-4.47-2.99-5.78-2.39-7.88.59-2.1,7.24-8.15,7.02-11.7-.11-1.87-1.04-4.91-4.63-8.26-3.59-3.36-6.3-4.93-12.22.28-5.92,5.21-5.26,12.39-2.46,21.07Z"/>
          <path class="cls-9" d="M623.1,188.06c-19.02,0-38.13-7.95-51.91-23.47-5.52-6.21-9.84-13.24-12.85-20.87l2.45-.97c2.9,7.35,7.06,14.11,12.37,20.09,24.23,27.29,65.59,30.27,92.2,6.65,9.12-8.1,15.67-18.61,18.95-30.39l2.54.71c-3.41,12.27-10.23,23.22-19.74,31.65-12.55,11.14-28.25,16.6-44.01,16.6Z"/>
          <path class="cls-9" d="M556.31,113.72l-2.63-.19c1.24-17.5,9.06-33.49,22.03-45,13.42-11.92,30.79-17.76,48.91-16.46,18.11,1.3,34.8,9.59,47.01,23.33l-1.97,1.75c-11.74-13.22-27.8-21.2-45.22-22.45-17.41-1.25-34.09,4.36-46.97,15.8-12.45,11.06-19.97,26.41-21.16,43.22Z"/>
          <g>
            <path class="cls-9" d="M621.35,215.87c-1.82,0-3.64-.05-5.46-.16-51.51-3.06-90.87-48.49-87.73-101.27.69-11.55,3.34-22.73,7.9-33.23l3.37,1.46c-4.39,10.1-6.94,20.86-7.6,31.98-3.01,50.76,34.8,94.44,84.28,97.38,16.96,1.01,33.77-2.89,48.6-11.27l1.81,3.2c-13.85,7.83-29.37,11.9-45.17,11.9Z"/>
            <path class="cls-9" d="M714.99,125.53l-3.67-.22c1.46-24.6-6.51-48.27-22.44-66.67-15.92-18.38-37.88-29.29-61.85-30.71-23.17-1.37-45.69,6.34-63.42,21.74l-2.41-2.77c18.46-16.03,41.92-24.06,66.05-22.63,24.96,1.48,47.83,12.84,64.41,31.97,16.56,19.12,24.85,43.73,23.33,69.29Z"/>
          </g>
        </g>
        <rect class="cls-13" x="149.35" y="162.64" width="501.3" height="323.4" rx="17.08" ry="17.08" transform="translate(724.34 -75.66) rotate(90)"/>
        <path class="cls-26" d="M548.9,93.06v464.79c0,2.4-1.94,4.34-4.35,4.34h-286.88c-3.63,0-6.57-2.94-6.57-6.56V93.06c0-3.63,2.94-6.58,6.58-6.58h284.64c3.64,0,6.58,2.95,6.58,6.58Z"/>
        <path class="cls-7" d="M530.66,107.22c-1.07-1.4-2.74-2.3-4.65-2.3h-252.03c-1.89,0-3.56.89-4.63,2.27-.77.98-1.21,2.21-1.21,3.55v426.96c0,1.41.46,2.71,1.25,3.75,1.06,1.41,2.71,2.31,4.58,2.31h254.01c1.53,0,2.86-.93,3.47-2.28.24-.52.38-1.11.38-1.73V110.73c0-1.32-.44-2.54-1.18-3.51Z"/>
        <g>
          <path class="cls-24" d="M591.1,574.99h-100.76s7.49-20.02,31.22-12.74c0,0,6-17.06,22.48-16.49,16.49.57,21.74,14.61,21.74,14.61,0,0,22.15-2.44,25.32,14.63Z"/>
          <path class="cls-29" d="M409.72,574.99h-67.05s4.99-13.32,20.78-8.48c0,0,3.99-11.35,14.96-10.98,10.97.38,14.47,9.72,14.47,9.72,0,0,14.74-1.62,16.85,9.74Z"/>
          <path class="cls-24" d="M294.99,574.99h-117.34s8.73-23.68,36.36-15.07c0,0,6.99-20.18,26.18-19.5,19.2.67,25.31,17.27,25.31,17.27,0,0,25.8-2.88,29.48,17.3Z"/>
        </g>
        <g>
          <g>
            <path class="cls-33" d="M531.75,110.73v21.76h-263.5v-21.76c0-1.34.45-2.57,1.2-3.54,1.07-1.38,2.74-2.27,4.63-2.27h251.85c1.89,0,3.58.91,4.64,2.31.74.97,1.18,2.19,1.18,3.51Z"/>
            <g>
              <g>
                <rect class="cls-7" x="511.01" y="117.46" width="1.77" height="7.22"/>
                <rect class="cls-7" x="506.28" y="119.52" width="1.77" height="5.15"/>
                <rect class="cls-7" x="515.69" y="115.31" width="1.77" height="9.37"/>
                <rect class="cls-7" x="520.29" y="112.74" width="1.77" height="11.93"/>
              </g>
              <rect class="cls-7" x="281.61" y="116.9" width="13.88" height="3.62" rx="1.55" ry="1.55"/>
              <rect class="cls-7" x="277.94" y="114.99" width="15.35" height="7.43" rx="1.55" ry="1.55"/>
              <rect class="cls-9" x="286.56" y="115.89" width="5.33" height="5.63"/>
            </g>
          </g>
          <g>
            <path class="cls-10" d="M471.5,226.37c0,29.4-15.13,55.26-38.02,70.23-13.17,8.62-28.91,13.63-45.83,13.63s-32.66-5.01-45.83-13.63c-22.9-14.97-38.03-40.83-38.03-70.23,0-46.31,37.55-83.86,83.86-83.86s83.85,37.55,83.85,83.86Z"/>
            <path class="cls-26" d="M483.85,226.37c0,21.6-8.16,41.28-21.57,56.15-2.5,2.77-5.18,5.37-8.02,7.78-1.54,1.31-3.14,2.57-4.78,3.77-1.02.74-2.05,1.46-3.09,2.16-.19.12-.38.25-.56.37-.51.34-1.04.67-1.56,1-.17.1-.34.21-.51.32-.65.4-1.3.78-1.96,1.17-10.52,6.06-22.47,9.91-35.23,10.89-.33.03-.67.05-1,.08-.75.05-1.5.09-2.25.12-.76.03-1.53.05-2.3.05-.34,0-.69,0-1.04,0-1.6,0-3.19-.04-4.76-.14-.49-.02-.97-.05-1.46-.09-.26-.02-.52-.04-.78-.06-.73-.05-1.45-.13-2.17-.21-6.23-.67-12.27-2.03-18.01-4.01-1.09-.37-2.17-.76-3.24-1.18-1.24-.48-2.45-.99-3.65-1.53-1.12-.49-2.22-1.02-3.31-1.57h0c-.1-.04-.21-.1-.31-.15h0c-2.38-1.19-4.67-2.5-6.91-3.91-.4-.25-.81-.51-1.22-.78-.36-.23-.71-.47-1.06-.71-.25-.17-.5-.34-.75-.51-1-.69-1.97-1.39-2.93-2.13-3.04-2.3-5.92-4.8-8.61-7.48-1.59-1.59-3.13-3.25-4.59-4.96-2.99-3.49-5.7-7.24-8.09-11.2-5.46-9.06-9.26-19.23-10.97-30.11-.4-2.55-.69-5.13-.86-7.75h0c-.05-.95-.1-1.88-.13-2.83h0s-.02-1.13-.02-1.13c0-.47-.01-.95-.01-1.42,0-.71,0-1.43.03-2.13.1-3.83.45-7.6,1.04-11.29.1-.63.21-1.26.32-1.88.08-.44.16-.87.25-1.3,1.28-6.4,3.29-12.53,5.94-18.31.03-.05.05-.1.08-.16.9-1.95,1.87-3.86,2.91-5.73.84-1.5,1.72-2.98,2.66-4.43.05-.09.1-.17.16-.25,11.6-17.94,29.87-31.18,51.31-36.18.67-.16,1.35-.3,2.02-.45,1.25-.26,2.51-.49,3.78-.69.03,0,.05,0,.08-.01.57-.09,1.14-.17,1.72-.25.71-.1,1.43-.19,2.14-.26.14-.02.27-.03.4-.05.26-.03.53-.05.79-.08.56-.05,1.12-.1,1.68-.15h0c.57-.04,1.15-.08,1.72-.11.47-.03.95-.05,1.43-.07.98-.04,1.96-.06,2.95-.07h.43c.25,0,.5,0,.75,0,.98,0,1.96.03,2.93.08,1.34.05,2.67.14,3.99.26.4.04.8.08,1.2.12.47.05.95.1,1.42.16.84.1,1.68.22,2.52.35.02,0,.03,0,.05,0,.93.14,1.85.3,2.76.47.03,0,.05.01.08.02.14.02.28.05.42.08.69.13,1.39.27,2.07.43.25.05.51.11.77.17.54.12,1.06.25,1.6.38,1.91.48,3.79,1.03,5.64,1.64h0c3.93,1.29,7.73,2.86,11.37,4.7.05.02.11.05.16.08h0c2.43,1.22,4.79,2.56,7.07,4.02,23.46,14.86,39.03,41.06,39.03,70.88Z"/>
            <g>
              <g>
                <ellipse class="cls-26" cx="400" cy="358.21" rx="27.15" ry="27.83"/>
                <g>
                  <path class="cls-7" d="M406.66,344.44v11.89c0,3.68-2.98,6.66-6.66,6.66s-6.66-2.98-6.66-6.66v-.83h6.14c.14,0,.28-.06.37-.15.09-.09.15-.22.15-.37,0-.29-.23-.52-.52-.52h-6.14v-2.02h6.14c.14,0,.28-.06.37-.15.09-.09.15-.23.15-.37,0-.29-.23-.52-.52-.52h-6.14v-2.02h6.14c.14,0,.28-.06.37-.15.09-.09.15-.23.15-.37,0-.29-.23-.52-.52-.52h-6.14v-2.02h6.14c.14,0,.28-.06.37-.15.09-.09.15-.23.15-.37,0-.29-.23-.52-.52-.52h-6.14v-.83c0-3.68,2.98-6.66,6.66-6.66,1.84,0,3.51.75,4.71,1.95,1.21,1.21,1.95,2.87,1.95,4.71Z"/>
                  <path class="cls-7" d="M400.02,368.31c-6.04,0-10.95-4.91-10.95-10.95l-.04-2.84c0-.55.43-1,.98-1.01h.01c.55,0,.99.44,1,.98l.04,2.85c0,4.95,4.02,8.97,8.95,8.97s8.95-4.02,8.95-8.95l-.04-2.61c0-.55.43-1,.98-1.01h.01c.55,0,.99.44,1,.98l.04,2.63c0,6.05-4.91,10.96-10.95,10.96Z"/>
                  <rect class="cls-7" x="398.87" y="367.32" width="2.26" height="9.28"/>
                  <path class="cls-7" d="M406.91,378.63h-13.81c0-1.55,1.26-2.81,2.81-2.81h8.2c1.55,0,2.81,1.26,2.81,2.81h0Z"/>
                </g>
              </g>
              <g>
                <ellipse class="cls-31" cx="318.12" cy="358.21" rx="27.15" ry="27.83"/>
                <path class="cls-7" d="M331.48,352.57c-6.8-2.99-19.18-3.1-26.71,0-4.53,1.86-7.6,4.27-7.58,8.5.02,4.23,1.62,4.76,4.24,5,2.63.24,4.18-.47,4.97-1.09,1.5-1.18,1.56-6,2.19-6.99.63-.99,1.37-1.21,4.01-1.85.45-.11.98-.17,1.56-.2,1.21-.06,6.72-.06,7.93,0,.58.03,1.11.1,1.56.2,2.64.64,3.38.86,4.01,1.85.63.99.69,5.81,2.19,6.99.79.62,2.34,1.33,4.97,1.09,2.63-.24,4.22-.77,4.24-5,.02-4.23-3.1-6.53-7.58-8.5Z"/>
              </g>
              <g>
                <ellipse class="cls-31" cx="481.88" cy="358.21" rx="27.15" ry="27.83"/>
                <path class="cls-7" d="M493.17,356.22h-9.36v-9.59c0-.55-.22-1.04-.57-1.4-.34-.36-.83-.58-1.37-.58-1.06,0-1.93.88-1.93,1.97v9.59h-9.36c-.3,0-.59.07-.84.2-.2.1-.37.23-.52.38-.35.36-.57.86-.57,1.4,0,.82.48,1.52,1.18,1.83.23.1.49.16.76.16h9.36v9.59c0,.55.22,1.05.56,1.4.35.36.83.58,1.37.58,1.07,0,1.93-.89,1.93-1.98v-9.59h9.36c.53,0,1.01-.22,1.37-.58.34-.36.56-.86.56-1.4,0-1.09-.87-1.98-1.93-1.98Z"/>
              </g>
            </g>
            <g>
              <rect class="cls-26" x="290.98" y="403.03" width="142.6" height="49.24"/>
              <polygon class="cls-26" points="290.98 427.24 329.45 449.45 290.98 471.66 290.98 427.24"/>
              <g>
                <rect class="cls-7" x="308.59" y="413.97" width="107.38" height="3.76"/>
                <rect class="cls-7" x="308.59" y="437.57" width="107.38" height="3.76"/>
                <g>
                  <rect class="cls-7" x="308.24" y="425.77" width="48.22" height="3.76"/>
                  <rect class="cls-7" x="368.09" y="425.77" width="48.22" height="3.76"/>
                </g>
              </g>
            </g>
            <g>
              <rect class="cls-26" x="366.42" y="464.43" width="142.6" height="49.24" transform="translate(875.45 978.09) rotate(180)"/>
              <polygon class="cls-26" points="509.03 488.64 470.55 510.85 509.03 533.06 509.03 488.64"/>
              <g>
                <rect class="cls-7" x="384.04" y="475.37" width="107.38" height="3.76" transform="translate(875.45 954.5) rotate(180)"/>
                <rect class="cls-7" x="384.04" y="498.96" width="107.38" height="3.76" transform="translate(875.45 1001.69) rotate(180)"/>
                <g>
                  <rect class="cls-7" x="443.54" y="487.17" width="48.22" height="3.76" transform="translate(935.29 978.09) rotate(180)"/>
                  <rect class="cls-7" x="383.69" y="487.17" width="48.22" height="3.76" transform="translate(815.61 978.09) rotate(180)"/>
                </g>
              </g>
            </g>
            <g>
              <circle class="cls-7" cx="399.55" cy="186.38" r="29.17"/>
              <path class="cls-7" d="M458.66,272.97c-15.51,14.03-36.11,22.56-58.68,22.56s-43.14-8.54-58.65-22.56c3.87-28.93,28.66-51.23,58.65-51.23s54.8,22.3,58.68,51.23Z"/>
            </g>
          </g>
        </g>
        <g>
          <g>
            <g>
              <path class="cls-33" d="M77.66,89.71h88.48c14.33,0,25.96,11.63,25.96,25.96h0c0,14.33-11.63,25.96-25.96,25.96h-62.52c-14.33,0-25.96-11.63-25.96-25.96v-25.96h0Z" transform="translate(269.76 231.34) rotate(180)"/>
              <polygon class="cls-33" points="209.96 141.63 170.79 141.63 191.95 125.81 209.96 141.63"/>
            </g>
            <g>
              <circle class="cls-7" cx="158.75" cy="115.67" r="5.1"/>
              <circle class="cls-7" cx="134.88" cy="115.67" r="5.1"/>
              <circle class="cls-7" cx="111.01" cy="115.67" r="5.1"/>
            </g>
          </g>
          <g>
            <g>
              <path class="cls-14" d="M127.17,160.92h55.26c8.95,0,16.21,7.26,16.21,16.21h0c0,8.95-7.26,16.21-16.21,16.21h-39.05c-8.95,0-16.21-7.26-16.21-16.21v-16.21h0Z" transform="translate(325.82 354.28) rotate(180)"/>
              <polygon class="cls-14" points="209.8 193.35 185.34 193.35 198.56 183.48 209.8 193.35"/>
            </g>
            <g>
              <circle class="cls-33" cx="177.82" cy="177.14" r="3.19" transform="translate(-73.17 177.62) rotate(-45)"/>
              <circle class="cls-33" cx="162.91" cy="177.14" r="3.19" transform="translate(-26.2 28.29) rotate(-9.19)"/>
              <circle class="cls-33" cx="148" cy="177.14" r="3.19" transform="translate(-26.39 25.91) rotate(-9.19)"/>
            </g>
          </g>
        </g>
        <g>
          <g>
            <path class="cls-4" d="M362.94,488.51h.84c2.65,0,4.8,2.15,4.8,4.8h0c0,2.65-2.15,4.8-4.8,4.8h-.84v-9.59h0Z"/>
            <path class="cls-7" d="M363.82,481.35l-.04,7.16-.05,9.5v.1l-.11,19.58-.03,4.32-.05,9.23-.05,7.8v2.72c-.06,7.91-6.49,14.31-14.41,14.31H30.02c-.51,0-1.01-.03-1.51-.08-.07,0-.13-.02-.2-.03-7.14-.84-12.69-6.92-12.69-14.29v-147.74c0-.66.05-1.31.14-1.95.95-7.03,6.97-12.44,14.26-12.44h252.1c5.43,0,10.39,3.05,12.85,7.89l29.05,57.41,6.7,13.26,2.64,1.08,21.52,8.78c5.44,2.23,8.98,7.53,8.94,13.41Z"/>
            <g class="cls-27">
              <path class="cls-26" d="M103.16,555.97c.5.06,1,.08,1.51.08H30.02c-.51,0-1.01-.03-1.51-.08-.07,0-.13-.02-.2-.03-7.14-.84-12.69-6.92-12.69-14.29v-147.74c0-.66.05-1.31.14-1.95.95-7.03,6.97-12.44,14.26-12.44h74.65c-7.29,0-13.31,5.42-14.26,12.44-.09.64-.14,1.29-.14,1.95v147.74c0,7.37,5.54,13.45,12.69,14.29.07.01.13.02.2.03Z"/>
            </g>
            <polygon class="cls-19" points="278.23 498.01 264.99 517.68 15.63 517.68 15.63 498.01 278.23 498.01"/>
            <polygon class="cls-19" points="363.73 498.01 363.62 517.68 256.43 517.68 269.67 498.01 363.73 498.01"/>
            <path class="cls-19" d="M182.04,517.68h-92.27l-12.05-19.67-62.09-48.61v-55.49c0-.66.05-1.31.14-1.95.95-7.03,6.97-12.44,14.26-12.44h22.99l58.89,59.65,23.49,23.79,34.6,35.04.88,1.44,11.17,18.23Z"/>
            <g>
              <circle class="cls-7" cx="73.83" cy="449.08" r="20.94"/>
              <g>
                <g>
                  <rect class="cls-11" x="72.33" y="437.51" width="3" height="23.15"/>
                  <rect class="cls-11" x="72.33" y="437.51" width="3" height="23.15" transform="translate(-375.25 522.91) rotate(-90)"/>
                </g>
                <g>
                  <rect class="cls-11" x="72.33" y="437.51" width="3" height="23.15" transform="translate(-295.93 183.74) rotate(-45)"/>
                  <rect class="cls-11" x="72.33" y="437.51" width="3" height="23.15" transform="translate(-191.52 818.83) rotate(-135)"/>
                </g>
              </g>
            </g>
            <g>
              <rect class="cls-17" x="25.46" y="391.84" width="33.98" height="4.32"/>
              <rect class="cls-17" x="25.46" y="403.19" width="33.98" height="4.32"/>
            </g>
            <g>
              <path class="cls-8" d="M329.43,553.62c0,.73-.03,1.46-.08,2.18-19.89.08-40.26.15-59.92.22-.06-.79-.1-1.59-.1-2.39,0-16.59,13.45-30.04,30.05-30.04s30.04,13.45,30.04,30.04Z"/>
              <g>
                <circle class="cls-6" cx="297.39" cy="553.62" r="25.1" transform="translate(-49.34 29.49) rotate(-5.24)"/>
                <circle class="cls-21" cx="301.87" cy="553.64" r="25.1" transform="translate(-314.82 685.29) rotate(-73.45)"/>
                <circle class="cls-20" cx="301.87" cy="553.64" r="18.75" transform="translate(-141.11 104.85) rotate(-16.03)"/>
                <circle class="cls-21" cx="301.87" cy="553.64" r="15.25" transform="translate(-328.26 529.62) rotate(-59.22)"/>
                <g>
                  <rect class="cls-20" x="300.03" y="537.4" width="3.69" height="32.48" transform="translate(2.72 -1.47) rotate(.28)"/>
                  <rect class="cls-20" x="300.03" y="537.4" width="3.69" height="32.48" transform="translate(-253.24 852.79) rotate(-89.72)"/>
                  <rect class="cls-20" x="300.03" y="537.4" width="3.69" height="32.48" transform="translate(120.88 1157.7) rotate(-134.72)"/>
                  <rect class="cls-20" x="300.03" y="537.4" width="3.69" height="32.48" transform="translate(-302.19 372.65) rotate(-44.72)"/>
                </g>
                <g>
                  <path class="cls-21" d="M304.66,553.65c0,1.54-1.26,2.78-2.8,2.77-1.54,0-2.78-1.26-2.77-2.8,0-1.54,1.26-2.78,2.8-2.77,1.54,0,2.78,1.26,2.77,2.8Z"/>
                  <g>
                    <path class="cls-21" d="M302.63,549.13c0,.41-.33.74-.74.73-.41,0-.74-.33-.73-.74s.33-.74.74-.73.74.33.73.74Z"/>
                    <path class="cls-21" d="M302.59,558.15c0,.41-.33.74-.74.73-.41,0-.74-.33-.73-.74s.33-.74.74-.73.74.33.73.74Z"/>
                  </g>
                  <g>
                    <path class="cls-21" d="M306.38,554.4c-.41,0-.74-.33-.73-.74,0-.41.33-.74.74-.73.41,0,.74.33.73.74s-.33.74-.74.73Z"/>
                    <path class="cls-21" d="M297.36,554.35c-.41,0-.74-.33-.73-.74,0-.41.33-.74.74-.73.41,0,.74.33.73.74s-.33.74-.74.73Z"/>
                  </g>
                  <g>
                    <path class="cls-21" d="M305.6,550.99c-.29.29-.76.28-1.04,0-.29-.29-.28-.76,0-1.04.29-.29.76-.28,1.04,0,.29.29.28.76,0,1.04Z"/>
                    <path class="cls-21" d="M299.19,557.34c-.29.29-.76.28-1.04,0-.29-.29-.28-.76,0-1.04s.76-.28,1.04,0,.28.76,0,1.04Z"/>
                  </g>
                  <g>
                    <path class="cls-21" d="M298.17,550.95c.29.29.75.29,1.04,0,.29-.29.29-.75,0-1.04-.29-.29-.75-.29-1.04,0s-.29.75,0,1.04Z"/>
                    <path class="cls-21" d="M304.52,557.36c.29.29.75.29,1.04,0,.29-.29.29-.75,0-1.04-.29-.29-.75-.29-1.04,0s-.29.75,0,1.04Z"/>
                  </g>
                </g>
              </g>
              <path class="cls-7" d="M322.83,535.19c-5.42-4.93-12.49-7.91-20.22-7.91-15.95,0-29.03,12.47-30.69,28.74h-5.28c-.08-.96-.03-1.74-.03-2.73,0-17.92,13.52-32.43,30.59-32.43,10.67,0,20.08,5.68,25.63,14.32Z"/>
              <path class="cls-26" d="M267.37,553.29h-1.51c0-18.3,14.06-33.18,31.34-33.18,10.73,0,19.56,4.45,24.86,12.54l-1.27.83c-5.01-7.65-13.39-11.86-23.6-11.86-16.45,0-29.83,14.21-29.83,31.67Z"/>
            </g>
            <path class="cls-4" d="M363.59,521.99l-.05,9.23-.04,7.79h-9.03c-8.51,0-15.41-6.9-15.41-15.41h0c0-.9.72-1.62,1.62-1.62h22.92Z"/>
            <path class="cls-22" d="M363.54,531.23l-.04,7.79h-9.03c-8.51,0-15.41-6.9-15.41-15.41h0c0-.9.72-1.62,1.62-1.62h2.5c3.52,4.1,10.04,9.33,20.36,9.23Z"/>
            <path class="cls-5" d="M205.35,544.82h-62.54c-4.51,0-8.18-3.67-8.18-8.18v-137.69c0-4.51,3.67-8.18,8.18-8.18h62.54c4.51,0,8.18,3.67,8.18,8.18v137.69c0,4.51-3.67,8.18-8.18,8.18ZM142.81,392.28c-3.68,0-6.67,2.99-6.67,6.67v137.69c0,3.68,2.99,6.67,6.67,6.67h62.54c3.68,0,6.67-2.99,6.67-6.67v-137.69c0-3.68-2.99-6.67-6.67-6.67h-62.54Z"/>
            <rect class="cls-5" x="145.3" y="466.83" width="21.35" height="5.28" rx="2.64" ry="2.64"/>
            <rect class="cls-5" x="244.12" y="466.83" width="21.35" height="5.28" rx="2.64" ry="2.64"/>
            <rect class="cls-5" x="227.58" y="387.2" width="1.58" height="161.18"/>
            <rect class="cls-5" x="145.3" y="401.59" width="57.56" height="57.56"/>
            <polygon class="cls-5" points="314.03 458.82 288.06 458.95 288.06 458.95 285.87 458.96 259.75 459.08 259.74 459.08 255.87 459.1 244.12 459.16 244.12 401.59 285.07 401.59 288.61 408.6 296.8 424.78 297.95 427.05 305.7 442.35 306.34 443.62 314.03 458.82"/>
            <g class="cls-30">
              <polygon class="cls-7" points="169.41 401.59 145.3 421.79 145.3 413.18 159.12 401.59 169.41 401.59"/>
              <polygon class="cls-7" points="202.87 438.78 202.87 453.37 195.96 459.16 178.56 459.16 202.87 438.78"/>
              <polygon class="cls-7" points="202.87 401.59 202.87 404.33 145.3 452.58 145.3 449.35 202.28 401.59 202.87 401.59"/>
            </g>
            <g class="cls-30">
              <polygon class="cls-7" points="263.39 401.59 244.12 417.75 244.12 409.13 253.11 401.59 263.39 401.59"/>
              <polygon class="cls-7" points="288.61 408.6 244.12 445.57 244.12 431.09 279.55 401.59 285.07 401.59 288.61 408.6"/>
              <polygon class="cls-7" points="297.95 427.05 259.75 459.08 259.74 459.08 255.87 459.1 296.8 424.78 297.95 427.05"/>
              <polygon class="cls-7" points="306.34 443.62 288.06 458.95 288.06 458.95 285.87 458.96 305.7 442.35 306.34 443.62"/>
            </g>
            <g class="cls-27">
              <path class="cls-26" d="M226.3,556.11l-68.15-.06-47.87-.04h-6.38s-3.53,0-3.53,0h-10.14s-3.1-.01-3.1-.01h-.35s-3.33,0-3.33,0h-3.14s-10.07-.01-10.07-.01h-3.54s-3.55,0-3.55,0h-2.82s-4.48-.01-4.48-.01h-5.77l-21.76-.02c-7.14-.84-12.69-6.92-12.69-14.29v-147.74c0-.66.05-1.31.14-1.95.95-7.03,6.97-12.44,14.26-12.44h23.53l58.36,59.65,23.49,24.01,34.07,34.82,1.41,1.44,17.83,18.23,22.72,23.23,14.66,14.99.11.11.06.06.05.06Z"/>
            </g>
            <g>
              <path class="cls-8" d="M112.86,553.62c0,.73-.03,1.46-.08,2.18-19.89.08-40.26.15-59.92.22-.06-.79-.1-1.59-.1-2.39,0-16.59,13.45-30.04,30.05-30.04s30.04,13.45,30.04,30.04Z"/>
              <g>
                <circle class="cls-6" cx="80.82" cy="553.62" r="25.1" transform="translate(-42.15 7.81) rotate(-4.39)"/>
                <circle class="cls-21" cx="85.3" cy="553.64" r="25.1"/>
                <circle class="cls-20" cx="85.3" cy="553.64" r="18.75" transform="translate(-471.28 490.3) rotate(-74.75)"/>
                <circle class="cls-21" cx="85.3" cy="553.64" r="15.25" transform="translate(-188.92 65.18) rotate(-20.55)"/>
                <g>
                  <rect class="cls-20" x="83.46" y="537.4" width="3.69" height="32.48" transform="translate(2.72 -.41) rotate(.28)"/>
                  <rect class="cls-20" x="83.46" y="537.4" width="3.69" height="32.48" transform="translate(-468.75 636.23) rotate(-89.72)"/>
                  <rect class="cls-20" x="83.46" y="537.4" width="3.69" height="32.48" transform="translate(-248.07 1003.81) rotate(-134.72)"/>
                  <rect class="cls-20" x="83.46" y="537.4" width="3.69" height="32.48" transform="translate(-364.87 220.26) rotate(-44.72)"/>
                </g>
                <g>
                  <path class="cls-21" d="M88.09,553.65c0,1.54-1.26,2.78-2.8,2.77-1.54,0-2.78-1.26-2.77-2.8,0-1.54,1.26-2.78,2.8-2.77,1.54,0,2.78,1.26,2.77,2.8Z"/>
                  <g>
                    <path class="cls-21" d="M86.06,549.13c0,.41-.33.74-.74.73-.41,0-.74-.33-.73-.74s.33-.74.74-.73c.41,0,.74.33.73.74Z"/>
                    <path class="cls-21" d="M86.02,558.15c0,.41-.33.74-.74.73-.41,0-.74-.33-.73-.74s.33-.74.74-.73.74.33.73.74Z"/>
                  </g>
                  <g>
                    <path class="cls-21" d="M89.81,554.4c-.41,0-.74-.33-.73-.74,0-.41.33-.74.74-.73.41,0,.74.33.73.74s-.33.74-.74.73Z"/>
                    <path class="cls-21" d="M80.79,554.35c-.41,0-.74-.33-.73-.74,0-.41.33-.74.74-.73.41,0,.74.33.73.74s-.33.74-.74.73Z"/>
                  </g>
                  <g>
                    <path class="cls-21" d="M89.03,550.99c-.29.29-.76.28-1.04,0-.29-.29-.28-.76,0-1.04.29-.29.76-.28,1.04,0,.29.29.28.76,0,1.04Z"/>
                    <path class="cls-21" d="M82.62,557.34c-.29.29-.76.28-1.04,0-.29-.29-.28-.76,0-1.04.29-.29.76-.28,1.04,0s.28.76,0,1.04Z"/>
                  </g>
                  <g>
                    <path class="cls-21" d="M81.6,550.95c.29.29.75.29,1.04,0,.29-.29.29-.75,0-1.04-.29-.29-.75-.29-1.04,0-.29.29-.29.75,0,1.04Z"/>
                    <path class="cls-21" d="M87.95,557.36c.29.29.75.29,1.04,0,.29-.29.29-.75,0-1.04-.29-.29-.75-.29-1.04,0-.29.29-.29.75,0,1.04Z"/>
                  </g>
                </g>
              </g>
              <g>
                <path class="cls-7" d="M106.42,535.02c-5.42-4.93-12.65-7.75-20.38-7.75-15.95,0-29.03,12.47-30.69,28.74h-5.28c-.08-.96-.03-1.74-.03-2.73,0-17.92,13.52-32.43,30.59-32.43,10.67,0,20.24,5.51,25.79,14.16Z"/>
                <path class="cls-26" d="M50.8,553.29h-1.51c0-18.3,14.06-33.18,31.34-33.18,10.62,0,20.1,4.78,25.35,12.79l-1.27.83c-4.97-7.58-13.98-12.11-24.09-12.11-16.45,0-29.83,14.21-29.83,31.67Z"/>
              </g>
              <g class="cls-27">
                <path class="cls-26" d="M106.42,535.02c-5.42-4.93-12.65-7.75-20.38-7.75-15.95,0-29.03,12.47-30.69,28.74h-5.28c-.08-.96-.03-1.74-.03-2.73,0-17.92,13.52-32.43,30.59-32.43,10.67,0,20.24,5.51,25.79,14.16Z"/>
              </g>
            </g>
            <g>
              <path class="cls-19" d="M324.44,448c.21,7.55-5.74,13.84-13.29,14.04l-.76-27.33c7.55-.21,13.84,5.74,14.04,13.29Z"/>
              <path class="cls-19" d="M331.24,462.01l-12.3-6.4,2.56-4.92,12.3,6.4c1.36.71,1.89,2.38,1.18,3.74h0c-.71,1.36-2.38,1.89-3.74,1.18Z"/>
            </g>
          </g>
          <g class="cls-2">
            <g class="cls-30">
              <path class="cls-26" d="M270.43,517.86c2.74.05,3.74,3.73,1.35,5.05-.31.17-.63.27-.96.27-1.94,0-51.57-1.44-84.53-1.78-32.95-.33-68.55-2.46-70.82.95-2.27,3.41,6.31,6.56,3.88,8.71-2.43,2.14-11.41-1.24-14.24-4.83-2.83-3.59,3.88,2.5,4.53-1.41.65-3.91-1.62-8.51,4.85-9.05,5.89-.48,133.17,1.68,155.92,2.08Z"/>
            </g>
          </g>
        </g>
        <g>
          <g class="cls-32">
            <path class="cls-3" d="M732.44,199.44h0c0-2.45-1-4.67-2.6-6.28-1.61-1.61-3.83-2.6-6.29-2.6-4.91,0-8.88,3.98-8.88,8.88,0-4.91-3.98-8.88-8.88-8.88s-8.88,3.98-8.88,8.88c0,0-.55,5.35,5.07,12.33,5.18,6.43,12.01,10.03,12.67,10.37v.03s0,0,.03-.01c.01,0,.02.01.02.01v-.03c.67-.34,7.5-3.94,12.68-10.37,5.62-6.98,5.07-12.33,5.07-12.33ZM729.03,208.43h-6.6l-1.04,5.16c-.09.43-.46.73-.89.73h-.03c-.45-.01-.81-.34-.87-.79l-1.8-13.21-2.72,8.72c-.12.38-.47.63-.87.64h0c-.39,0-.74-.25-.86-.63l-1.01-3.11-2.25,6.48c-.14.41-.54.65-.97.6-.43-.05-.75-.39-.79-.82l-.49-5.33-.15.88c-.07.44-.45.76-.9.76h-5.01v-1.42h4.57l.73-4.32c.08-.45.46-.76.93-.76.46.02.83.36.87.82l.64,6.89,1.98-5.69c.12-.36.47-.61.86-.61h0c.39,0,.73.25.85.63l.99,3.03,2.93-9.38c.12-.41.52-.67.94-.63.43.03.77.35.82.78l1.7,12.49.53-2.6c.09-.42.46-.73.89-.73h7.02v1.42Z"/>
          </g>
          <g class="cls-32">
            <path class="cls-3" d="M42.1,313.67c-1.49-.63-3.17-.83-3.92-.89l-1.32-1.86.1-.07c.39-.28.48-.81.2-1.2l-1.43-2c-.28-.39-.81-.48-1.2-.2l-13.5,9.62c-.39.28-.48.81-.2,1.2l1.43,2c.28.39.81.48,1.2.2l.2-.14,1.24,1.83c-.18.6-.61,2.2-.51,3.63.11,1.58.33,2.7.75,3.75.25.63.6,1.26,1.04,1.87l17.26,24.2c.98,1.37,2.88,1.69,4.25.71l15.28-10.9c1.37-.98,1.69-2.88.71-4.25l-17.62-24.71c-.56-.78-2.03-1.99-3.95-2.8ZM33.88,308.94c-.11-.15-.07-.36.08-.47s.36-.07.47.08l1.41,1.98-.09.07.19.26c-.02.08-.06.15-.13.2-.15.11-.36.07-.47-.08l-1.45-2.04ZM32.41,309.99c-.11-.15-.07-.36.08-.47s.36-.07.47.08l1.45,2.04c.11.15.07.36-.08.47s-.36.07-.47-.08l-1.45-2.04ZM30.93,311.04c-.11-.15-.07-.36.08-.47s.36-.07.47.08l1.45,2.04c.11.15.07.36-.08.47s-.36.07-.47-.08l-1.45-2.04ZM29.46,312.09c-.11-.15-.07-.36.08-.47s.36-.07.47.08l1.45,2.04c.11.15.07.36-.08.47s-.36.07-.47-.08l-1.45-2.04ZM27.99,313.14c-.11-.15-.07-.36.08-.47s.36-.07.47.08l1.45,2.04c.11.15.07.36-.08.47s-.36.07-.47-.08l-1.45-2.04ZM26.52,314.19c-.11-.15-.07-.36.08-.47s.36-.07.47.08l1.45,2.04c.11.15.07.36-.08.47s-.36.07-.47-.08l-1.45-2.04ZM25.05,315.24c-.11-.15-.07-.36.08-.47s.36-.07.47.08l1.45,2.04c.11.15.07.36-.08.47s-.36.07-.47-.08l-1.45-2.04ZM23.57,316.29c-.11-.15-.07-.36.08-.47s.36-.07.47.08l1.45,2.04c.11.15.07.36-.08.47s-.36.07-.47-.08l-1.45-2.04ZM22.1,317.34c-.11-.15-.07-.36.08-.47s.36-.07.47.08l1.45,2.04c.11.15.07.36-.08.47s-.36.07-.47-.08l-1.45-2.04ZM62.86,341.76c.66.92.44,2.21-.48,2.87l-15.28,10.9c-.92.66-2.21.44-2.87-.48l-17.26-24.2c-.39-.55-.7-1.11-.93-1.66-.38-.94-.58-1.97-.68-3.44-.1-1.56.53-3.47.54-3.49l.08-.23-1.53-2.26,11.58-8.26,1.6,2.24h.24c.36.04,2.26.18,3.83.84,1.86.79,3.13,1.91,3.53,2.47l17.62,24.71Z"/>
            <path class="cls-3" d="M55.19,335.9l-1.2,2.81-1.2,2.81c-.31.73.03,1.58.76,1.89.73.31,1.58-.03,1.89-.76l1.2-2.81,1.2-2.81c.31-.73-.03-1.58-.76-1.89-.73-.31-1.58.03-1.89.76Z"/>
            <path class="cls-3" d="M60.68,340.75c-.61-.51-1.52-.42-2.03.19l-1.95,2.36-1.95,2.36c-.51.61-.42,1.52.19,2.03.61.51,1.52.42,2.03-.19l1.95-2.36,1.95-2.36c.51-.61.42-1.52-.19-2.03h0Z"/>
            <path class="cls-3" d="M43.1,347.49l3.03.42c.79.11,1.52-.44,1.62-1.23.11-.79-.44-1.52-1.23-1.62l-3.03-.42-3.03-.42c-.79-.11-1.52.44-1.62,1.23-.11.79.44,1.52,1.23,1.62l3.03.42Z"/>
            <path class="cls-3" d="M47.22,339.31l2.87-1.07,2.87-1.07c.75-.28,1.13-1.11.85-1.85-.28-.75-1.11-1.13-1.85-.85l-2.87,1.07-2.87,1.07c-.75.28-1.12,1.11-.85,1.85h0c.28.75,1.11,1.13,1.85.85Z"/>
            <path class="cls-3" d="M45.37,339.27l-3.06.16-3.06.16c-.79.04-1.41.72-1.37,1.51.04.79.72,1.41,1.51,1.37l3.06-.16,3.06-.16c.79-.04,1.41-.72,1.37-1.51-.04-.79-.72-1.41-1.51-1.37Z"/>
            <path class="cls-3" d="M35.14,335.89l2.73,1.39c.71.36,1.58.08,1.94-.63.36-.71.08-1.58-.63-1.94l-2.73-1.39-2.73-1.39c-.71-.36-1.58-.08-1.94.63-.36.71-.08,1.58.63,1.94l2.73,1.39Z"/>
            <path class="cls-3" d="M42.82,336.35c.77-.22,1.21-1.01,1-1.78l-.83-2.94-.83-2.94c-.22-.77-1.01-1.21-1.78-1-.77.22-1.21,1.01-1,1.78l.83,2.94.83,2.94c.22.77,1.01,1.21,1.78,1Z"/>
            <path class="cls-3" d="M49.63,348.89l-3.06.16-3.06.16c-.79.04-1.41.72-1.37,1.51.04.79.72,1.41,1.51,1.37l3.06-.16,3.06-.16c.79-.04,1.41-.72,1.37-1.51-.04-.79-.72-1.41-1.51-1.37Z"/>
            <path class="cls-3" d="M50.4,340.07c-.79.11-1.34.83-1.24,1.62l.41,3.03.41,3.03c.11.79.83,1.34,1.62,1.24.79-.11,1.34-.83,1.24-1.62l-.41-3.03-.41-3.03c-.11-.79-.83-1.34-1.62-1.24Z"/>
            <path class="cls-3" d="M47.57,329c-.77-.21-1.56.24-1.77,1.01h0c-.21.77.24,1.56,1.01,1.77l2.95.81,2.95.81c.77.21,1.56-.24,1.77-1.01.21-.77-.24-1.56-1.01-1.77l-2.95-.81-2.95-.81Z"/>
            <path class="cls-3" d="M38.32,315.33s0,0-.01,0c-.15.04-.31.08-.49.12-.31.08-.64.17-.96.27-.17.05-.33.1-.48.15-.47.16-.83.32-.88.45-.02.05,0,.1.1.14.12.05.35.09.72.11.35.02.69.1,1.03.22,2.54.92,4.84,4.3,4.84,4.3l4.84,6.49c.23.3.65.37.96.15l1.68-1.2c.32-.23.39-.67.15-.98l-4.8-6.44c-1.72-2.41-3.48-3.36-4.64-3.73-.67-.22-1.39-.24-2.08-.07Z"/>
          </g>
          <g class="cls-32">
            <g>
              <path class="cls-3" d="M506.17,54.06c.06-.11.1-.23.12-.35.02-.13.03-.25.01-.38-.01-.16-.06-.31-.13-.48,0,0,0,0,0,0-1-2.4-7.53-5.37-16.36-7.53l-1.52.96-4.16,2.66-.09-.02-1.96,1.26.09.02h0s-5.71,3.66-5.71,3.66c1.69.4,3.46.77,5.28,1.09,10,1.79,18.8,1.89,22.59.47l-.8,4.41c-.36,1.95-9.21,3.19-22.83.77-1.52-.27-3.04-.58-4.5-.91-11.29-2.58-16.92-6.11-16.63-7.67l.81-4.49h0s0,0,0,0c2.24,1.94,7.3,4.06,13.78,5.76l5.59-3.52,1.99-1.25,5.88-3.7c-1.28-.28-2.59-.55-3.94-.78-11.94-2.14-22.17-1.86-24.2.53-.1.12-.18.23-.23.36-.06.11-.09.22-.11.34-.02.12-.03.24-.01.36l-1.1,6.11c-.7,3.84,9.16,7.51,17.82,9.49,1.49.34,3.03.65,4.58.93,11.69,2.08,23.91,2.04,24.65-2.05l1.09-6.03Z"/>
              <polygon class="cls-3" points="487.64 44.81 487.63 44.81 487.65 44.82 487.64 44.81"/>
            </g>
          </g>
          <g class="cls-32">
            <path class="cls-3" d="M751.81,442.98h-.85c-.16-.51-.63-.88-1.19-.88h-2.8c-.56,0-1.03.37-1.19.88h-2.61v-2.44c0-1.61-1.31-2.92-2.92-2.92h-12.26c-1.61,0-2.92,1.31-2.92,2.92v2.44h-2.61c-.16-.51-.63-.88-1.19-.88h-2.8c-.56,0-1.03.37-1.19.88h-.85c-1.02,0-1.84.82-1.84,1.84v22.87c0,1.02.82,1.84,1.84,1.84h35.37c1.02,0,1.84-.82,1.84-1.84v-22.87c0-1.02-.82-1.84-1.84-1.84ZM726.86,440.54c0-.62.51-1.13,1.13-1.13h12.26c.63,0,1.13.51,1.13,1.13v2.44h-14.52v-2.44ZM751.75,466.66c0,.92-.75,1.67-1.67,1.67h-31.92c-.92,0-1.67-.75-1.67-1.67v-20.82c0-.59.31-1.12.78-1.41.06-.04.12-.07.19-.1.06-.03.13-.06.2-.08.08-.02.16-.04.25-.06.08-.01.17-.02.26-.02h31.92c.09,0,.17,0,.26.02.08.01.17.03.25.06.14.04.27.1.39.18.47.29.78.82.78,1.41v20.82Z"/>
            <path class="cls-3" d="M734.12,450.03c-3.44,0-6.23,2.79-6.23,6.23s2.79,6.23,6.23,6.23,6.23-2.79,6.23-6.23-2.79-6.23-6.23-6.23ZM737.85,456.95h-3.03v3.03h-1.4v-3.03h-3.03v-1.4h3.03v-3.03h1.4v3.03h3.03v1.4Z"/>
          </g>
          <g class="cls-32">
            <path class="cls-3" d="M61.95,147.39c-.74-.33-1.59-.1-2.07.52h0s-1.19-.53-1.19-.53l-.63-.28c-.13-.06-.26-.16-.38-.29.23-.62.41-1.27.53-1.94.14-.82.19-1.64.14-2.44.13-.11.3-.19.46-.2h.09s1.1,0,1.1,0c.11.45.52.78,1.01.78.57,0,1.03-.47,1.03-1.04s-.47-1.03-1.04-1.03c-.49,0-.89.34-1,.79h-1.11s-.08,0-.08,0c-.18,0-.4-.1-.55-.24-.28-1.91-1.08-3.68-2.27-5.14l.43-.23,1.37-.74h0c.6.66,1.59.86,2.41.42.97-.52,1.33-1.72.81-2.69-.52-.97-1.72-1.33-2.69-.81-.82.44-1.2,1.38-.98,2.24h0s-1.3.7-1.3.7l-.71.38c-1.02-1.04-2.25-1.87-3.65-2.43l.04-.07.41-.64h0c.38.13.81,0,1.04-.36.27-.41.15-.97-.26-1.24s-.97-.15-1.24.26c-.23.35-.18.8.1,1.09h0s-.44.68-.44.68l-.06.1c-.55-.19-1.12-.34-1.71-.44-1.01-.17-2.01-.2-2.98-.09l-.15-2.12c.85-.27,1.44-1.1,1.37-2.03-.07-1.09-1.02-1.92-2.12-1.85-1.09.07-1.92,1.02-1.85,2.12.06.93.76,1.67,1.64,1.82l.15,2.21c-.96.2-1.88.52-2.73.96-.07-.07-.13-.15-.16-.23l-.09-.25-.25-.72h0c.33-.22.49-.65.35-1.04-.16-.46-.68-.71-1.14-.54-.46.16-.71.67-.54,1.14.14.39.53.63.93.59h0s.27.77.27.77l.07.2c.04.12.03.28-.02.41-.87.52-1.67,1.17-2.36,1.92h0s-.09-.06-.13-.09l-1.55-1.28-.21-.17h0c.38-.81.19-1.8-.53-2.39-.85-.7-2.1-.58-2.8.27-.7.85-.58,2.1.27,2.8.72.59,1.73.59,2.45.06h0s.18.15.18.15l1.58,1.3s.07.06.1.1c0,0,0,0,0,0-1.01,1.32-1.73,2.89-2.03,4.65-.02.14-.04.27-.06.41h-.07s-1.43-.22-1.43-.22c-.06-.6-.52-1.1-1.14-1.19-.73-.1-1.41.4-1.51,1.13-.1.73.4,1.41,1.13,1.51.62.09,1.2-.26,1.43-.82h0s1.44.21,1.44.21h.08s0,.01,0,.01c-.13,1.84.21,3.62.95,5.2h0s-.37.16-.37.16h0c-.47-.62-1.31-.87-2.06-.56-.88.37-1.29,1.39-.92,2.27.37.88,1.39,1.29,2.27.92.75-.32,1.16-1.1,1.03-1.87h0s.42-.18.42-.18h0c.9,1.61,2.22,2.98,3.83,3.94-.01.1-.04.19-.09.25l-.15.22-.41.64h0c-.38-.13-.81,0-1.04.36-.27.41-.15.97.26,1.24s.97.15,1.24-.26c.23-.35.18-.8-.1-1.09h0s.44-.68.44-.68l.11-.18c.05-.08.14-.15.24-.2.95.5,1.99.86,3.11,1.05,1.44.25,2.86.19,4.2-.12l.13.84c-.82.34-1.34,1.21-1.2,2.14.17,1.08,1.18,1.83,2.27,1.66,1.08-.17,1.83-1.18,1.66-2.27-.14-.92-.9-1.6-1.79-1.67h0s-.15-.96-.15-.96c1.46-.48,2.79-1.27,3.9-2.31.09.04.18.1.24.17l.06.07.7.85c-.28.37-.28.9.03,1.28.36.44,1.02.51,1.46.14.44-.36.51-1.02.14-1.46-.31-.38-.83-.48-1.25-.28h0s-.7-.86-.7-.86l-.05-.06c-.07-.08-.12-.2-.14-.33.72-.76,1.33-1.63,1.81-2.59.16,0,.32.02.46.08l.72.32,1.09.49h0c-.14.77.26,1.56,1,1.89.87.39,1.9,0,2.29-.88.39-.87,0-1.9-.88-2.29Z"/>
          </g>
        </g>
        <g>
          <g>
            <polygon class="cls-7" points="385.51 60.11 383.56 43.83 402.15 54.94 401.44 56.14 385.28 46.48 386.89 59.94 385.51 60.11"/>
            <g>
              <circle class="cls-4" cx="401.41" cy="55.27" r="3.13" transform="translate(226.23 420.65) rotate(-72.22)"/>
              <circle class="cls-19" cx="384.7" cy="45.74" r="3.13" transform="translate(-2.2 25.86) rotate(-3.84)"/>
              <circle class="cls-23" cx="386.2" cy="60.02" r="3.13"/>
            </g>
          </g>
          <g>
            <polygon class="cls-7" points="74.91 301.1 83.54 272.92 85.41 273.49 78.1 297.36 94.94 289.09 95.8 290.84 74.91 301.1"/>
            <g>
              <circle class="cls-4" cx="84.47" cy="273.21" r="4.39" transform="translate(-200.81 293.02) rotate(-76.79)"/>
              <circle class="cls-19" cx="77.15" cy="298.58" r="4.39"/>
              <circle class="cls-23" cx="95.37" cy="289.96" r="4.39"/>
            </g>
          </g>
          <g>
            <polygon class="cls-7" points="693.56 405.41 664.61 399.9 664.97 397.98 689.49 402.65 679.43 386.81 681.08 385.76 693.56 405.41"/>
            <g>
              <path class="cls-4" d="M664.31,394.57c2.41-.26,4.58,1.48,4.84,3.89.26,2.41-1.48,4.58-3.89,4.84-2.41.26-4.58-1.48-4.84-3.89-.26-2.41,1.48-4.58,3.89-4.84Z"/>
              <circle class="cls-19" cx="690.81" cy="403.45" r="4.39" transform="translate(163.96 1005.46) rotate(-79.1)"/>
              <path class="cls-23" d="M679.78,381.92c2.41-.26,4.58,1.48,4.84,3.89.26,2.41-1.48,4.58-3.89,4.84-2.41.26-4.58-1.48-4.84-3.89-.26-2.41,1.48-4.58,3.89-4.84Z"/>
            </g>
          </g>
        </g>
      </g>
    </g>
  </g>
</svg>