<?xml version="1.0" encoding="UTF-8"?>
<svg xmlns="http://www.w3.org/2000/svg" xmlns:xlink="http://www.w3.org/1999/xlink" viewBox="0 0 100 100">
  <defs>
    <style>
      .cls-1 {
        fill: #222529;
      }

      .cls-2 {
        fill: url(#linear-gradient-2);
      }

      .cls-3 {
        fill: #c6d2e8;
      }

      .cls-4 {
        fill: url(#linear-gradient-10);
      }

      .cls-5 {
        fill: url(#linear-gradient-12);
      }

      .cls-6 {
        fill: #757b8c;
      }

      .cls-7 {
        fill: #fff;
      }

      .cls-8 {
        fill: #313740;
      }

      .cls-9 {
        fill: #828891;
      }

      .cls-10 {
        fill: #ff1231;
      }

      .cls-11 {
        fill: #9b9b9b;
      }

      .cls-12 {
        fill: url(#linear-gradient-4);
      }

      .cls-13 {
        fill: #40444d;
      }

      .cls-14 {
        fill: #626e80;
      }

      .cls-15 {
        fill: #afb8c4;
      }

      .cls-16 {
        fill: #8e96a6;
      }

      .cls-17 {
        fill: url(#radial-gradient);
      }

      .cls-18 {
        fill: #5b6f7a;
      }

      .cls-19 {
        fill: #93a3b8;
      }

      .cls-20 {
        fill: #2b2e33;
      }

      .cls-21 {
        fill: url(#linear-gradient-3);
      }

      .cls-22 {
        fill: url(#linear-gradient-5);
      }

      .cls-23 {
        isolation: isolate;
      }

      .cls-24 {
        fill: #abb5c2;
        mix-blend-mode: multiply;
      }

      .cls-25 {
        fill: url(#linear-gradient-8);
      }

      .cls-26 {
        fill: #676c78;
      }

      .cls-27 {
        fill: #6e7480;
      }

      .cls-28 {
        fill: url(#linear-gradient-7);
      }

      .cls-29 {
        fill: #a5afc2;
      }

      .cls-30, .cls-31 {
        fill: #373b42;
      }

      .cls-32 {
        fill: url(#linear-gradient-9);
      }

      .cls-33 {
        fill: url(#linear-gradient-11);
      }

      .cls-34 {
        fill: #555a66;
      }

      .cls-35 {
        fill: url(#linear-gradient-6);
      }

      .cls-36 {
        fill: #b3faff;
      }

      .cls-37 {
        fill: #454c59;
      }

      .cls-38 {
        fill: #5c5f66;
      }

      .cls-31 {
        font-family: Barlow-Regular, 'Barlow Regular';
        font-size: 1.33px;
      }

      .cls-39 {
        fill: url(#linear-gradient);
      }

      .cls-40 {
        fill: #535b6b;
      }

      .cls-41 {
        fill: #43474d;
      }
    </style>
    <linearGradient id="linear-gradient" x1="20.53" y1="14.14" x2="29.51" y2="76.41" gradientUnits="userSpaceOnUse">
      <stop offset="0" stop-color="#c2c8cf"/>
      <stop offset="1" stop-color="#abb5c2"/>
    </linearGradient>
    <linearGradient id="linear-gradient-2" x1="27.44" y1="15.65" x2="22.43" y2="71.78" gradientUnits="userSpaceOnUse">
      <stop offset="0" stop-color="#b3faff"/>
      <stop offset="1" stop-color="#66d1ff"/>
    </linearGradient>
    <linearGradient id="linear-gradient-3" x1="22.88" y1="15.24" x2="17.87" y2="71.38" xlink:href="#linear-gradient-2"/>
    <linearGradient id="linear-gradient-4" x1="13.86" y1="25.01" x2="58.52" y2="73.57" gradientUnits="userSpaceOnUse">
      <stop offset="0" stop-color="#d6dce3"/>
      <stop offset="1" stop-color="#abb5c2"/>
    </linearGradient>
    <linearGradient id="linear-gradient-5" x1="31.61" y1="77.33" x2="32.44" y2="89.68" xlink:href="#linear-gradient-4"/>
    <linearGradient id="linear-gradient-6" x1="58.44" y1="94.42" x2="46.7" y2="84.77" gradientUnits="userSpaceOnUse">
      <stop offset="0" stop-color="#373b42"/>
      <stop offset="1" stop-color="#4c535c"/>
    </linearGradient>
    <linearGradient id="linear-gradient-7" x1="44.84" y1="90.11" x2="43.42" y2="94.28" gradientUnits="userSpaceOnUse">
      <stop offset="0" stop-color="#4a5159"/>
      <stop offset=".3" stop-color="#3c4148"/>
      <stop offset=".53" stop-color="#373b42"/>
      <stop offset=".74" stop-color="#3b3f47"/>
      <stop offset="1" stop-color="#474d56"/>
    </linearGradient>
    <linearGradient id="linear-gradient-8" x1="58.53" y1="94.31" x2="46.79" y2="84.66" xlink:href="#linear-gradient-6"/>
    <radialGradient id="radial-gradient" cx="617.69" cy="-363.2" fx="617.69" fy="-363.2" r="11.86" gradientTransform="translate(604.93 -332.6) rotate(162.86) scale(1 .67)" gradientUnits="userSpaceOnUse">
      <stop offset="0" stop-color="#8797b0"/>
      <stop offset="1" stop-color="#4a5361"/>
    </radialGradient>
    <linearGradient id="linear-gradient-9" x1="55.38" y1="81.33" x2="50.28" y2="82.74" gradientUnits="userSpaceOnUse">
      <stop offset="0" stop-color="#2b2e33"/>
      <stop offset="1" stop-color="#4c535c"/>
    </linearGradient>
    <linearGradient id="linear-gradient-10" x1="57.35" y1="75.82" x2="44.86" y2="64.46" xlink:href="#linear-gradient-6"/>
    <linearGradient id="linear-gradient-11" x1="32.35" y1="72.94" x2="38.87" y2="70.53" xlink:href="#linear-gradient-9"/>
    <linearGradient id="linear-gradient-12" x1="55.07" y1="79.07" x2="49.01" y2="80.01" gradientUnits="userSpaceOnUse">
      <stop offset="0" stop-color="#222529"/>
      <stop offset="1" stop-color="#222529" stop-opacity="0"/>
    </linearGradient>
  </defs>
  <g class="cls-23">
    <g id="Layer_2" data-name="Layer 2">
      <g>
        <g>
          <path class="cls-40" d="M56.9,54.6c.45-.15.82.35.81,1.1l-.06,3.94c-.01.76-.39,1.5-.85,1.65l-1.15.38-.11,7.41c-.02,1.03-.53,2.04-1.15,2.24l-39.68,12.98-3.35,1.1c-2.32.76-4.16-1.76-4.1-5.63.06-3.87,1.99-7.62,4.31-8.38,1.36-.45,2.56.24,3.3,1.66l1.39-.45,36.1-11.81.88-3.7c.18-.76.7-1.5,1.15-1.65l2.5-.82Z"/>
          <g>
            <path class="cls-41" d="M56.42,54.76l.46.09c-.13-.11-.29-.14-.46-.09Z"/>
            <path class="cls-37" d="M76.55,58.56l-19.66-3.72c.21.18.35.55.35,1.02l-.06,3.93c-.01.76-.39,1.5-.84,1.65l-1.15.37,20.12,3.81,1.15-.38c.45-.15.83-.89.85-1.65l.06-3.94c.01-.76-.35-1.25-.81-1.1Z"/>
          </g>
          <path class="cls-8" d="M55.18,61.82l-.11,7.41c-.02,1.03-.53,2.04-1.15,2.24l20.12,3.81c.62-.2,1.13-1.2,1.15-2.24l.11-7.41-20.12-3.81Z"/>
          <polygon class="cls-14" points="75.3 65.74 75.3 65.62 55.18 61.82 55.18 61.93 75.3 65.74"/>
          <g>
            <path class="cls-29" d="M57.13,54.58s-.05,0-.07,0c-.01,0-.02,0-.03,0,0,0-.01,0-.02,0,0,0-.01,0-.02,0-.03,0-.05,0-.08.02,0,0-.01,0-.02,0l-2.5.82c-.45.15-.97.89-1.15,1.65l-.88,3.7.77.15h0s.88-3.7.88-3.7c.18-.76.7-1.5,1.15-1.65l1.88-.62,18.11,3.42-1.88.62c-.45.15-.97.89-1.15,1.65l-.88,3.7h0s1.25.24,1.25.24l.88-3.7c.18-.76.7-1.5,1.15-1.65l2.5-.82s.08-.02.11-.02c0,0,.01,0,.02,0,.04,0,.07,0,.1,0-6.15-1.16-13.98-2.65-20.13-3.81Z"/>
            <g>
              <polygon class="cls-16" points="15.63 73.17 53.12 60.9 52.35 60.76 14.86 73.03 15.63 73.17 15.63 73.17"/>
              <polygon class="cls-16" points="71.23 64.33 33.74 76.6 33.74 76.6 34.99 76.83 72.48 64.57 71.23 64.33"/>
              <polygon class="cls-3" points="34.85 76.81 34.99 76.83 72.48 64.57 72.34 64.54 34.85 76.81"/>
            </g>
            <path class="cls-40" d="M30.25,89.29c-6.15-1.16-13.98-2.65-20.13-3.81-1.7-.32-2.91-2.58-2.87-5.73.06-3.87,1.99-7.62,4.31-8.38.43-.14.85-.17,1.24-.1h0c3.07.58,7.06,1.33,10.14,1.91,3.07.58,6.92,1.31,9.99,1.89-.39-.07-.8-.05-1.24.1-2.32.76-4.25,4.51-4.31,8.38-.05,3.15,1.16,5.41,2.87,5.73Z"/>
          </g>
          <g>
            <path class="cls-11" d="M24.99,80.08L42.03,9.27c.36-1.52-.59-2.99-2.12-3.28l-12.88-2.42c-1.53-.29-3.08.72-3.45,2.23h0L6.54,76.61c-1.19,4.95.05,9.75,2.77,10.72.15.05.3.09.45.12,6.15,1.16,12.3,2.31,18.45,3.47-.15-.03-.3-.07-.45-.12-2.72-.97-3.96-5.77-2.77-10.72Z"/>
            <path class="cls-7" d="M23.59,5.8s-1.03,4.43-2.58,11.08c-.79,3.32-1.7,7.2-2.68,11.35-.99,4.15-2.05,8.58-3.11,13.01-1.07,4.42-2.14,8.85-3.15,13-1.02,4.14-1.96,8.01-2.78,11.33-1.65,6.63-2.75,11.04-2.75,11.04,0,0,1.03-4.43,2.58-11.08.79-3.32,1.7-7.2,2.68-11.35.99-4.15,2.05-8.58,3.11-13.01,1.07-4.42,2.14-8.85,3.15-13,1.02-4.14,1.96-8.01,2.78-11.33,1.65-6.63,2.75-11.04,2.75-11.04Z"/>
            <path class="cls-39" d="M38.59,10.29l-12.33-2.32c-.53-.1-1.09.33-1.24.96l-15.29,63.51c1.4,2.72,3.7,4.37,6.28,4.86,2.58.49,5.44-.2,7.97-2.18l15.29-63.51c.15-.63-.16-1.23-.69-1.33"/>
            <path class="cls-24" d="M9.87,72.66L25.16,9.15c.15-.63.71-1.06,1.24-.96l12.33,2.32c.19.04.35.14.47.28-.12-.26-.34-.45-.61-.5l-12.33-2.32c-.53-.1-1.09.33-1.24.96l-15.29,63.51c.18.35.38.69.59,1.01-.16-.25-.31-.51-.46-.79Z"/>
            <path class="cls-2" d="M36.22,12.2l-8.66-1.63c-.32-.06-.65.2-.74.58l-12.58,52.24c-.09.38.09.74.41.8l8.66,1.63c.32.06.65-.2.74-.58l12.58-52.24c.09-.38-.09-.74-.41-.8"/>
            <path class="cls-21" d="M22.96,67.25l-8.66-1.63c-.32-.06-.65.2-.74.58l-.69,2.86c-.09.38.09.74.41.8l8.66,1.63c.32.06.65-.2.74-.58l.69-2.86c.09-.38-.09-.74-.41-.79"/>
            <polyline class="cls-18" points="31.91 12.82 31.2 12.69 19.19 62.56 19.9 62.7 31.91 12.82"/>
            <polygon class="cls-10" points="25.74 38.43 25.04 38.3 25.04 38.3 19.19 62.56 19.9 62.7 25.74 38.43 25.74 38.43"/>
            <path class="cls-12" d="M31.49,89.19c-.43.14-.85.17-1.24.09,0,0,0,0,0,0,0,0,0,0,0,0,0,0,0,0,0,0l-1.67-.33s-.09-.02-.13-.03c-.03,0-.07-.02-.1-.03-.04-.01-.09-.03-.13-.04-1.51-.55-2.55-2.71-2.5-5.63.06-3.87,1.99-7.62,4.31-8.38.46-.15.91-.17,1.32-.07l1.59.31s0,0,0,0c.67.12,1.27.55,1.74,1.22h0c-.45-1.79-1.41-2.97-2.6-3.4-.43-.15-.87-.2-1.32-.16l15.04-62.49c.39-1.61-.59-2.84-2.08-3.37l-3.8-.89c1.53.29,2.49,1.76,2.12,3.28l-17.05,70.81c-1.19,4.95.05,9.75,2.77,10.72.66.24,1.35.23,2.03,0,.89-.29,1.77-.95,2.55-1.89l-.84.28Z"/>
            <path class="cls-7" d="M27.96,90.8c-2.72-.97-3.96-5.77-2.77-10.72L42.24,9.27c.31-1.3-.35-2.58-1.52-3.09l-.81-.19c1.53.29,2.49,1.76,2.12,3.28l-17.05,70.81c-1.19,4.94.05,9.74,2.76,10.72.22.04.44.08.66.13-.15-.03-.3-.07-.45-.12Z"/>
            <g>
              <path d="M28.12,14.19h.02s.01-.07.01-.07v-.02s-.37-.07-.37-.07h0s.03-.04.03-.04c.14-.13.24-.23.29-.28.1-.1.16-.18.18-.26.01-.05.01-.09,0-.13-.01-.04-.03-.07-.06-.1-.03-.03-.07-.05-.12-.05-.07-.01-.12,0-.18.04-.05.03-.09.09-.11.16v.06s0,.02,0,.02h.06s.02,0,.02,0v-.04s.04-.08.08-.11c.03-.02.07-.03.12-.02.05,0,.08.03.1.07.02.03.03.08.01.13-.01.06-.07.14-.17.23l-.12.11c-.12.12-.2.19-.24.23v.02s-.02.06-.02.06h0s.46.1.46.1Z"/>
              <path d="M28.38,14.21s.07.05.11.05c.04,0,.09,0,.12,0,.04-.01.07-.04.1-.07.03-.04.06-.09.07-.15.01-.05.02-.1.01-.14,0-.05-.02-.09-.06-.12h0s.06-.04.08-.06c.03-.04.06-.08.07-.13.01-.05.01-.1,0-.14,0-.04-.03-.07-.06-.1-.03-.02-.06-.04-.1-.05-.04,0-.08,0-.12,0-.04.01-.07.04-.1.07-.03.04-.06.08-.07.13-.01.05-.01.1,0,.14,0,.03.03.06.05.08h0s-.08.05-.11.09c-.03.04-.05.08-.06.13-.01.06-.01.11,0,.16,0,.04.03.08.06.11ZM28.53,13.51s.02-.05.04-.08c.02-.02.04-.04.06-.06.03,0,.05-.01.08,0,.03,0,.05.02.07.04.02.02.03.04.03.07,0,.03,0,.06,0,.09-.01.04-.03.07-.05.1-.02.02-.04.03-.06.04-.02,0-.05.01-.07,0-.02,0-.05-.01-.06-.03-.02-.01-.03-.04-.03-.06-.01-.03,0-.07,0-.11ZM28.41,13.95s.03-.09.05-.11c.04-.05.09-.07.15-.06.06.01.1.05.11.12,0,.03,0,.07,0,.11-.01.05-.03.1-.06.13-.04.04-.08.06-.14.05-.06-.01-.09-.04-.1-.1,0-.03,0-.08,0-.13Z"/>
              <path d="M29.12,14.39c.07.01.14,0,.2-.04.06-.04.1-.1.12-.19l.1-.43c.02-.08.01-.15-.02-.21-.03-.06-.09-.1-.16-.11s-.14,0-.19.04c-.06.04-.09.11-.11.19l-.1.43c-.02.08-.02.16.02.21.03.06.08.1.16.11ZM29.02,14.09l.11-.45c.01-.06.04-.1.08-.13.04-.03.08-.04.13-.03.05,0,.09.04.11.07.02.04.03.09.01.14l-.11.45c-.01.06-.04.1-.08.13-.04.03-.08.04-.13.03-.05,0-.08-.04-.1-.07-.02-.04-.03-.09-.01-.14Z"/>
              <path d="M27.29,17.65h.01s.01-.07.01-.07v-.02s-.37-.07-.37-.07h0s.03-.04.03-.04c.14-.13.24-.23.29-.28.1-.1.16-.18.18-.26.01-.05.01-.09,0-.13-.01-.04-.03-.07-.06-.1-.03-.03-.07-.05-.11-.06-.07-.01-.12,0-.18.04-.05.04-.09.09-.11.16v.06s0,.02,0,.02h.06s.02,0,.02,0v-.04s.04-.08.08-.11c.03-.02.07-.03.12-.02.05,0,.08.03.1.06.02.03.02.08.01.13-.01.06-.07.14-.17.23l-.12.11c-.12.12-.2.19-.24.23v.02s-.02.06-.02.06v.02s.47.09.47.09Z"/>
              <path d="M27.67,17.73c.05.01.1,0,.14-.02.04-.02.08-.06.11-.11.02-.03.04-.08.05-.13.02-.06.02-.12.01-.16,0-.05-.02-.09-.05-.12-.03-.03-.06-.05-.11-.06-.07-.01-.13,0-.17.05h0s0,0,0,0l.05-.2s.03-.09.07-.11c.04-.03.07-.03.11-.03.04,0,.07.03.09.06.02.03.02.07.01.12h0s0,.03,0,.03h.06s.01,0,.01,0v-.02c.02-.07.02-.13-.01-.18-.03-.05-.08-.08-.14-.1-.07-.01-.13,0-.18.04-.05.04-.09.09-.11.17l-.1.43s-.02.09-.02.13c0,.06.02.11.05.15.03.04.07.06.13.07ZM27.6,17.4s.02-.08.04-.11c.02-.03.04-.06.07-.07.03-.01.06-.02.09-.01.03,0,.06.02.08.04.02.02.03.05.03.09,0,.03,0,.07,0,.11,0,.04-.02.08-.04.1-.02.04-.04.06-.07.07-.03.02-.06.02-.09.02-.04,0-.06-.02-.08-.05-.02-.03-.03-.06-.03-.09,0-.03,0-.06.01-.1Z"/>
              <path d="M28.52,16.86c-.07-.01-.14,0-.19.04-.06.04-.09.11-.11.19l-.1.43c-.02.08-.02.16.02.21.03.06.08.1.16.11.07.01.14,0,.2-.04.06-.04.1-.1.12-.19l.1-.43c.02-.08.01-.15-.02-.21-.03-.06-.09-.09-.16-.11ZM28.62,17.16l-.11.44c-.01.06-.04.1-.08.13-.04.03-.08.04-.13.03-.05,0-.08-.04-.1-.07-.02-.04-.02-.09-.01-.14l.11-.44c.01-.06.04-.1.08-.13.04-.03.08-.04.13-.03.05,0,.09.03.11.07.02.04.02.09.01.14Z"/>
              <path d="M26.42,21.1h.01s.01-.07.01-.07v-.02s-.37-.07-.37-.07h0s.03-.04.03-.04c.14-.14.24-.23.29-.28.1-.1.16-.18.18-.26.01-.05.01-.09,0-.13-.01-.04-.03-.07-.06-.1-.03-.03-.07-.05-.11-.05-.07-.01-.12,0-.18.03-.05.04-.09.09-.11.16v.05s0,.02,0,.02h.06s.02,0,.02,0v-.04s.04-.09.08-.11c.04-.03.07-.03.12-.02.04,0,.08.03.1.06.02.03.03.08.01.13-.01.06-.07.14-.17.23l-.12.11c-.12.12-.2.19-.24.22v.02s-.02.06-.02.06v.02s.47.09.47.09Z"/>
              <polygon points="26.97 20.92 26.97 20.93 26.92 21.18 26.92 21.19 26.98 21.2 27 21.19 27.06 20.95 27.06 20.94 27.11 20.95 27.13 20.94 27.14 20.88 27.13 20.86 27.08 20.85 27.08 20.85 27.13 20.63 27.13 20.61 27.07 20.6 27.05 20.61 27 20.83 26.99 20.84 26.73 20.79 26.73 20.78 26.73 20.78 27.1 20.24 27.1 20.22 27.1 20.22 27.04 20.21 27.02 20.22 26.64 20.78 26.63 20.79 26.62 20.84 26.63 20.86 26.97 20.92"/>
              <path d="M27.28,20.98c-.02.08-.02.16.02.22.03.06.08.09.16.11.07.01.14,0,.2-.04.06-.04.1-.11.12-.19l.1-.43c.02-.08.01-.15-.02-.21-.03-.06-.09-.1-.16-.11-.07-.01-.14,0-.19.04-.06.04-.09.11-.11.19l-.1.43ZM27.54,20.43s.08-.04.13-.03c.05,0,.09.03.11.07.02.04.02.09.01.14l-.11.44c-.01.06-.04.1-.08.13-.04.03-.08.04-.13.03-.05,0-.08-.03-.11-.07-.02-.04-.02-.09-.01-.14l.11-.44c.01-.06.04-.1.08-.13Z"/>
              <path d="M25.6,24.56h.01s.01-.07.01-.07v-.02s-.37-.07-.37-.07h0s.03-.04.03-.04c.14-.13.24-.23.29-.28.1-.1.16-.18.18-.26.01-.05.01-.09,0-.13s-.03-.07-.06-.1c-.03-.03-.07-.05-.11-.05-.07-.01-.12,0-.18.03-.05.04-.09.09-.11.16v.05s0,.02,0,.02h.06s.02,0,.02,0v-.04c.02-.05.04-.09.08-.11.04-.03.07-.03.12-.02.05,0,.08.03.1.06.02.04.02.08.01.13-.01.06-.07.14-.17.23l-.12.11c-.12.12-.2.19-.24.22v.02s-.02.06-.02.06v.02s.47.09.47.09Z"/>
              <path d="M26.13,24.16l-.12.11c-.12.12-.2.19-.24.22v.02s-.03.06-.03.06v.02s.47.09.47.09h.02s.01-.07.01-.07v-.02s-.37-.07-.37-.07h0s.03-.04.03-.04c.14-.13.24-.23.29-.28.1-.1.16-.18.18-.26.01-.05.01-.09,0-.13-.01-.04-.03-.07-.06-.1-.03-.03-.07-.05-.12-.05-.07-.01-.12,0-.18.03-.05.04-.09.09-.11.16v.05s0,.02,0,.02h.06s.02,0,.02,0v-.04s.04-.09.08-.11c.03-.03.07-.03.12-.03.05,0,.08.03.1.06.02.04.02.08.01.13-.01.06-.07.14-.17.23Z"/>
              <path d="M26.86,23.78c-.07-.01-.14,0-.19.04-.06.04-.09.11-.11.19l-.1.44c-.02.08-.02.15.02.21.03.06.08.09.16.11.07.01.14,0,.2-.04.06-.04.1-.1.12-.19l.11-.43c.02-.08.01-.15-.02-.21-.03-.06-.09-.1-.16-.11ZM26.95,24.08l-.11.44c-.01.06-.04.1-.08.13-.04.03-.08.04-.13.03-.05,0-.08-.03-.1-.07-.02-.04-.02-.09-.01-.14l.11-.44c.01-.06.04-.1.08-.13.04-.03.08-.04.13-.03.05,0,.09.03.11.07.02.04.02.09.01.14Z"/>
              <path d="M24.73,28.01h.02s.01-.07.01-.07h0s-.36-.08-.36-.08h0s.03-.04.03-.04c.15-.13.24-.23.29-.28.1-.1.16-.18.18-.26.01-.05.01-.09,0-.13-.01-.04-.03-.07-.06-.1-.03-.03-.07-.05-.12-.05-.06-.01-.12,0-.18.03-.05.04-.09.09-.11.16v.06s0,.01,0,.01h.06s.01,0,.01,0v-.04s.05-.09.08-.11c.03-.02.07-.03.12-.03.05,0,.08.03.1.07.02.03.03.08.01.12-.01.06-.07.14-.17.24l-.11.11c-.12.12-.2.19-.24.22v.02s-.02.06-.02.06v.02s.47.09.47.09Z"/>
              <path d="M25.13,28.1c.07.01.14,0,.2-.04.06-.04.1-.1.12-.19l.1-.44c.02-.08.01-.15-.02-.21-.03-.06-.09-.1-.16-.11-.07-.01-.14,0-.2.04-.06.04-.09.1-.11.19l-.1.44c-.02.08-.01.15.02.21.03.06.08.1.16.11ZM25.04,27.8l.11-.45c.01-.06.04-.1.08-.13.04-.03.08-.04.13-.03.05,0,.09.04.11.07.02.04.03.09.01.14l-.11.45c-.01.06-.04.1-.08.13-.04.03-.08.04-.13.03-.05,0-.08-.03-.1-.07-.02-.04-.03-.09-.01-.14Z"/>
              <path d="M26.02,27.23c-.07-.01-.14,0-.19.04-.06.04-.09.1-.11.19l-.1.44c-.02.08-.02.15.02.21.03.06.08.1.16.11.07.01.14,0,.2-.04.06-.04.1-.1.12-.19l.1-.44c.02-.08.01-.15-.02-.21-.03-.06-.09-.1-.16-.11ZM26.12,27.54l-.11.45c-.01.06-.04.1-.08.13-.04.03-.08.04-.13.03-.05,0-.08-.03-.11-.07-.02-.04-.02-.09-.01-.14l.11-.45c.01-.06.04-.1.08-.13.04-.03.08-.04.13-.03.05,0,.09.04.11.07.02.04.02.09.01.14Z"/>
              <polygon points="23.85 31.46 23.91 31.47 23.93 31.46 24.15 30.52 24.14 30.51 24.08 30.5 24.07 30.5 23.91 30.56 23.9 30.57 23.9 30.57 23.9 30.63 23.9 30.64 23.91 30.64 24.04 30.6 24.05 30.6 24.05 30.61 23.85 31.44 23.85 31.46"/>
              <path d="M24.22,31.51s.07.05.11.05c.04,0,.09,0,.13,0,.04-.01.07-.04.1-.07.03-.04.06-.09.07-.15.01-.05.01-.1,0-.14,0-.05-.02-.09-.06-.12h0s.06-.04.08-.06c.03-.04.06-.08.07-.13.01-.05.01-.1,0-.15,0-.04-.03-.07-.05-.1-.03-.02-.06-.04-.1-.05-.04,0-.08,0-.12,0-.04.01-.07.04-.1.07-.03.04-.06.08-.07.13-.01.05-.01.1,0,.14,0,.03.02.06.05.08h0s-.08.05-.11.09c-.03.04-.05.08-.06.13-.01.06-.01.11,0,.16,0,.04.03.08.06.11ZM24.37,30.8s.02-.05.04-.08c.02-.02.04-.04.06-.05.02-.01.05-.01.08,0,.03,0,.05.02.07.04.02.02.03.04.03.07,0,.03,0,.06,0,.09,0,.04-.02.07-.04.1-.02.02-.04.04-.06.04-.02,0-.05.01-.07,0-.02,0-.05-.01-.06-.03-.02-.01-.03-.04-.03-.06-.01-.03,0-.07,0-.11ZM24.25,31.25s.03-.09.05-.12c.04-.05.09-.07.15-.06.06.01.1.05.11.12,0,.03,0,.07,0,.11-.01.05-.03.1-.06.12-.04.04-.08.06-.14.05-.06-.01-.09-.04-.1-.1,0-.03,0-.08,0-.13Z"/>
              <path d="M25.19,30.69c-.07-.01-.14,0-.19.04-.06.04-.09.1-.11.19l-.1.43c-.02.08-.02.16.02.21.03.06.08.1.16.11.07.01.14,0,.2-.04.06-.04.1-.11.12-.19l.1-.44c.02-.08.01-.15-.02-.21-.03-.06-.09-.1-.16-.11ZM25.29,31l-.11.45c-.01.06-.04.1-.08.13-.04.03-.08.04-.13.03-.05,0-.08-.03-.11-.07-.02-.04-.02-.09-.01-.14l.11-.45c.01-.06.04-.1.08-.13.04-.03.08-.04.13-.03.05,0,.09.04.11.07.02.04.02.09.01.14Z"/>
              <polygon points="23.03 34.92 23.09 34.93 23.1 34.92 23.33 33.98 23.32 33.97 23.26 33.96 23.24 33.96 23.09 34.02 23.08 34.03 23.08 34.03 23.07 34.09 23.08 34.1 23.08 34.1 23.22 34.06 23.22 34.06 23.22 34.07 23.02 34.91 23.03 34.92"/>
              <path d="M23.51,35.02c.05,0,.1,0,.14-.02.04-.02.08-.06.11-.11.02-.03.04-.08.05-.13.02-.06.02-.12.01-.16,0-.05-.02-.09-.05-.12-.03-.03-.06-.05-.11-.06-.07-.01-.13,0-.17.05h0s0,0,0,0l.05-.2c.01-.05.03-.09.07-.11.04-.03.07-.03.11-.03.04,0,.07.03.09.06.02.03.02.07.01.12h0s0,.03,0,.03h.06s.01,0,.01,0v-.02c.02-.07.02-.13-.01-.18-.03-.05-.08-.08-.14-.1-.07-.01-.13,0-.18.04-.05.04-.09.09-.11.17l-.1.43s-.02.09-.02.13c0,.06.02.11.05.15.03.04.07.06.13.07ZM23.43,34.69s.02-.08.04-.11c.02-.03.04-.06.07-.07.03-.01.06-.02.09-.01.03,0,.06.02.08.04.02.02.03.05.03.09,0,.03,0,.07,0,.11-.01.04-.02.07-.04.1-.02.04-.04.06-.07.08-.03.02-.06.02-.09.02-.04,0-.06-.02-.08-.05-.02-.03-.03-.05-.03-.09,0-.03,0-.06.01-.1Z"/>
              <path d="M24.36,34.15c-.07-.01-.14,0-.19.04-.06.04-.09.1-.11.19l-.1.43c-.02.08-.02.16.02.21.03.06.08.1.16.11.07.01.14,0,.2-.04.06-.04.1-.11.12-.19l.1-.43c.02-.08.01-.15-.02-.21-.03-.06-.09-.09-.16-.11ZM24.46,34.46l-.11.44c-.01.06-.04.1-.08.13-.04.03-.08.04-.13.03-.05,0-.08-.04-.11-.07-.02-.04-.02-.09-.01-.14l.11-.44c.01-.06.04-.1.08-.13.04-.03.08-.04.13-.03.05,0,.09.03.11.07.02.04.02.09.01.14Z"/>
              <polygon points="22.15 38.37 22.21 38.38 22.23 38.37 22.45 37.44 22.45 37.42 22.38 37.41 22.37 37.41 22.21 37.47 22.2 37.48 22.2 37.48 22.2 37.54 22.2 37.55 22.21 37.55 22.34 37.51 22.35 37.51 22.35 37.52 22.15 38.36 22.15 38.37"/>
              <polygon points="22.81 38.22 22.81 38.22 22.75 38.47 22.76 38.48 22.82 38.5 22.83 38.49 22.89 38.24 22.9 38.23 22.95 38.24 22.96 38.23 22.98 38.17 22.97 38.16 22.92 38.15 22.92 38.14 22.97 37.92 22.96 37.9 22.9 37.89 22.89 37.9 22.83 38.12 22.83 38.13 22.57 38.08 22.57 38.08 22.57 38.07 22.94 37.53 22.94 37.52 22.93 37.51 22.87 37.5 22.86 37.51 22.47 38.07 22.47 38.08 22.46 38.14 22.46 38.15 22.81 38.22"/>
              <path d="M23.11,38.27c-.02.08-.02.16.02.22.03.06.08.09.16.11.07.01.14,0,.2-.04.06-.04.1-.11.12-.19l.1-.43c.02-.08.01-.15-.02-.21-.03-.06-.09-.1-.16-.11-.07-.01-.14,0-.19.04-.06.04-.09.11-.11.19l-.1.43ZM23.38,37.73s.08-.04.13-.03c.05,0,.09.03.11.07.02.04.03.09.01.14l-.11.44c-.01.06-.04.1-.08.13-.04.03-.08.04-.13.03-.05,0-.08-.03-.1-.07-.02-.04-.03-.09-.01-.15l.11-.44c.01-.06.04-.1.08-.13Z"/>
              <polygon points="21.34 41.83 21.4 41.84 21.41 41.83 21.64 40.9 21.63 40.88 21.57 40.87 21.55 40.87 21.4 40.93 21.39 40.94 21.39 40.95 21.38 41 21.39 41.01 21.39 41.01 21.53 40.97 21.53 40.98 21.53 40.98 21.33 41.82 21.34 41.83"/>
              <path d="M21.81,41.22h.02s0-.05,0-.05c.01-.05.03-.09.07-.11.03-.03.07-.03.12-.03.05,0,.08.03.1.06.02.04.03.08.01.13-.01.06-.07.14-.17.23l-.12.11c-.12.12-.2.19-.24.22v.02s-.02.06-.02.06v.02s.47.09.47.09h.02s.01-.07.01-.07v-.02s-.37-.07-.37-.07h0s.03-.04.03-.04c.14-.13.24-.23.3-.28.1-.1.16-.18.18-.26.01-.05.01-.09,0-.13-.01-.04-.03-.07-.06-.1-.03-.03-.07-.05-.12-.05-.07-.01-.12,0-.18.03-.05.04-.09.09-.11.16v.05s0,.02,0,.02h.06Z"/>
              <path d="M22.69,41.07c-.07-.01-.14,0-.19.04-.06.04-.09.11-.11.19l-.1.44c-.02.08-.02.15.02.21.03.06.08.09.16.11s.14,0,.2-.04c.06-.04.1-.1.12-.19l.1-.43c.02-.08.01-.15-.02-.21-.03-.06-.09-.1-.16-.11ZM22.79,41.37l-.11.44c-.01.06-.04.1-.08.13-.04.03-.08.04-.13.03-.05,0-.08-.03-.1-.07-.02-.04-.02-.09-.01-.14l.11-.44c.01-.06.04-.1.08-.13.04-.03.08-.04.13-.03.05,0,.09.03.11.07.02.04.02.09.01.14Z"/>
              <polygon points="20.46 45.27 20.47 45.29 20.53 45.3 20.55 45.28 20.77 44.35 20.76 44.33 20.7 44.32 20.68 44.32 20.53 44.38 20.52 44.4 20.52 44.4 20.51 44.45 20.52 44.46 20.52 44.46 20.66 44.43 20.67 44.43 20.67 44.43 20.46 45.27"/>
              <path d="M20.97,45.39c.07.01.14,0,.2-.04.06-.04.1-.1.12-.19l.11-.43c.02-.08.01-.15-.02-.21-.03-.06-.09-.1-.16-.11-.07-.01-.14,0-.19.04-.06.04-.09.1-.11.19l-.1.44c-.02.08-.01.15.02.21.03.06.08.1.16.11ZM20.88,45.09l.11-.45c.01-.06.04-.1.08-.13.04-.03.08-.04.13-.03.05,0,.09.03.11.07.02.04.03.09.01.14l-.11.45c-.01.06-.04.1-.08.13-.04.03-.08.04-.13.03-.05,0-.08-.03-.1-.07-.02-.04-.03-.09-.01-.14Z"/>
              <path d="M21.86,44.53c-.07-.01-.14,0-.19.04-.06.04-.09.1-.11.19l-.1.44c-.02.08-.02.15.02.21.03.06.08.1.16.11.07.01.14,0,.2-.04.06-.04.1-.11.12-.19l.1-.44c.02-.08.01-.15-.02-.21-.03-.06-.08-.1-.16-.11ZM21.96,44.83l-.11.45c-.01.06-.04.1-.08.13-.04.03-.08.04-.13.03-.05,0-.08-.03-.1-.07-.02-.04-.03-.09-.01-.14l.11-.45c.01-.06.04-.1.08-.13.04-.03.08-.04.13-.03.05,0,.09.03.11.07.02.04.03.09.01.14Z"/>
              <path d="M20.05,48.8s.07.05.11.05c.05,0,.09,0,.13,0,.04-.01.07-.04.1-.07.03-.04.06-.09.07-.15.01-.05.02-.1,0-.14,0-.05-.02-.09-.06-.12h0s.06-.04.08-.06c.03-.04.06-.08.07-.13.01-.05.01-.1,0-.15-.01-.04-.03-.07-.06-.1-.03-.03-.06-.04-.1-.05-.04,0-.08,0-.12,0-.04.01-.07.04-.1.07-.03.04-.06.08-.07.13-.01.05-.01.1,0,.14,0,.03.03.06.05.08h0s-.08.05-.11.09c-.03.04-.05.08-.06.13-.01.06-.01.11,0,.16,0,.04.03.08.06.11ZM20.2,48.09s.02-.05.04-.08c.02-.02.04-.04.06-.05.03-.01.05-.01.08,0,.03,0,.05.02.07.04.02.02.03.04.03.07,0,.03,0,.05,0,.09,0,.04-.03.07-.05.09-.02.02-.04.04-.06.04-.02,0-.05.01-.07,0-.02,0-.05-.02-.06-.03-.02-.01-.03-.04-.03-.06-.01-.03,0-.07,0-.11ZM20.09,48.54s.03-.09.05-.12c.04-.05.09-.07.15-.06.06.01.1.05.11.12,0,.03,0,.07,0,.11-.01.05-.03.09-.06.12-.04.04-.08.06-.14.05-.06-.01-.09-.04-.1-.1,0-.03,0-.08,0-.13Z"/>
              <path d="M21.03,47.99c-.07-.01-.14,0-.19.04-.06.04-.09.1-.11.19l-.1.44c-.02.08-.02.15.02.21.03.06.08.1.16.11.07.01.14,0,.2-.04.06-.04.1-.1.12-.19l.1-.43c.02-.08.01-.15-.02-.21-.03-.06-.09-.1-.16-.11ZM21.13,48.29l-.11.45c-.01.06-.04.1-.08.13-.04.03-.08.04-.13.03-.05,0-.08-.03-.1-.07-.02-.04-.03-.09-.01-.14l.11-.45c.01-.06.04-.1.08-.13.04-.03.08-.04.13-.03.05,0,.09.04.11.07.02.04.03.09.01.14Z"/>
              <path d="M19.35,52.31c.05.01.1,0,.14-.02.04-.02.08-.06.11-.11.02-.03.04-.08.05-.13.02-.06.02-.12.01-.16,0-.05-.02-.09-.05-.12-.03-.03-.06-.05-.11-.06-.07-.01-.13,0-.17.06h0s0,0,0,0l.05-.2c.01-.05.04-.09.07-.11.04-.03.07-.04.11-.03.04,0,.07.03.09.06.02.03.02.08.01.12h0s0,.03,0,.03h.06s.01,0,.01,0v-.02c.02-.07.01-.13-.01-.18-.03-.05-.08-.08-.14-.1-.07-.01-.13,0-.18.04-.05.04-.09.09-.11.17l-.1.43s-.02.09-.02.13c0,.06.02.11.05.15.03.04.07.06.13.07ZM19.27,51.99s.02-.08.04-.11c.02-.03.04-.06.07-.07.03-.01.06-.02.09-.01.03,0,.06.02.08.05.02.02.03.05.03.09,0,.03,0,.06-.01.11,0,.04-.02.07-.04.1-.02.04-.04.06-.07.08-.03.02-.06.02-.09.01-.04,0-.06-.02-.08-.05-.02-.03-.03-.06-.03-.09,0-.03,0-.06.01-.1Z"/>
              <path d="M19.96,52.43c.07.01.14,0,.2-.04.06-.04.1-.1.12-.19l.1-.43c.02-.08.01-.15-.02-.22-.03-.06-.09-.09-.16-.11-.07-.01-.14,0-.19.04-.06.04-.09.1-.11.19l-.1.43c-.02.08-.02.16.02.21.03.06.08.1.16.11ZM19.86,52.13l.11-.45c.01-.06.04-.1.08-.13.04-.03.08-.04.13-.03.05,0,.09.04.11.07.02.04.03.09.01.14l-.11.45c-.01.06-.04.1-.08.13-.04.03-.08.04-.13.03-.05,0-.08-.04-.1-.07-.02-.04-.03-.09-.01-.14Z"/>
              <polygon points="18.65 55.51 18.65 55.52 18.59 55.76 18.6 55.78 18.66 55.79 18.67 55.78 18.73 55.53 18.74 55.53 18.79 55.54 18.8 55.52 18.82 55.46 18.81 55.45 18.76 55.44 18.75 55.43 18.81 55.21 18.8 55.19 18.74 55.18 18.72 55.2 18.67 55.42 18.67 55.42 18.41 55.37 18.4 55.37 18.4 55.37 18.77 54.82 18.78 54.81 18.77 54.81 18.71 54.79 18.69 54.8 18.31 55.36 18.3 55.38 18.29 55.43 18.3 55.45 18.65 55.51"/>
              <path d="M19.12,55.89c.07.01.14,0,.2-.04.06-.04.1-.1.12-.19l.1-.43c.02-.08.01-.15-.02-.21-.03-.06-.09-.09-.16-.11-.07-.01-.14,0-.19.04-.06.04-.09.11-.11.19l-.1.43c-.02.08-.02.16.02.21.03.06.08.1.16.11ZM19.03,55.59l.11-.44c.01-.06.04-.1.08-.13.04-.03.08-.04.13-.03.05,0,.09.03.11.07.02.04.02.09.01.14l-.11.44c-.01.06-.04.1-.08.13-.04.03-.08.04-.13.03-.05,0-.08-.04-.1-.07-.02-.04-.02-.09-.01-.14Z"/>
              <path d="M17.89,59.26h.02s.01-.07.01-.07v-.02s-.37-.07-.37-.07h0s.03-.04.03-.04c.14-.14.24-.23.29-.28.1-.1.16-.18.18-.26.01-.05.01-.09,0-.13-.01-.04-.03-.07-.06-.1-.03-.03-.07-.05-.12-.05-.07-.01-.12,0-.18.03-.05.04-.09.09-.11.16v.05s0,.02,0,.02h.06s.01,0,.01,0v-.04s.04-.09.08-.11c.03-.03.07-.03.12-.03.05,0,.08.03.1.06.02.03.03.08.01.13-.01.06-.07.14-.17.23l-.12.11c-.12.12-.2.19-.24.22v.02s-.02.06-.02.06v.02s.47.09.47.09Z"/>
              <path d="M18.29,59.35c.07.01.14,0,.2-.04.06-.04.1-.11.12-.19l.1-.43c.02-.08.01-.16-.02-.21-.03-.06-.09-.1-.16-.11-.07-.01-.14,0-.19.04-.06.04-.09.11-.11.19l-.1.43c-.02.08-.02.15.02.21.03.06.08.09.16.11ZM18.2,59.05l.11-.44c.01-.06.04-.1.08-.13.04-.03.08-.04.13-.03.05,0,.09.03.11.07.02.04.03.09.01.14l-.11.44c-.01.06-.04.1-.08.13-.04.03-.08.04-.13.03-.05,0-.08-.03-.1-.07-.02-.04-.03-.09-.01-.14Z"/>
              <path d="M17.46,62.81c.07.01.14,0,.2-.04.06-.04.1-.1.12-.19l.1-.44c.02-.08.01-.15-.02-.21-.03-.06-.09-.1-.16-.11-.07-.01-.14,0-.19.04-.06.04-.09.1-.11.19l-.1.44c-.02.08-.02.15.02.21.03.06.08.09.16.11ZM17.36,62.51l.11-.44c.01-.06.04-.1.08-.13.04-.03.08-.04.13-.03.05,0,.09.03.11.07.02.04.03.09.01.14l-.11.44c-.01.06-.04.1-.08.13-.04.03-.08.04-.13.03-.05,0-.08-.03-.1-.07-.02-.04-.03-.09-.01-.14Z"/>
              <path d="M32.92,16.77h.01s.01-.07.01-.07h0s-.36-.08-.36-.08h0s.03-.04.03-.04c.14-.13.24-.23.29-.28.1-.1.16-.18.17-.26.01-.05.01-.09,0-.13,0-.04-.03-.07-.06-.1-.03-.03-.07-.05-.11-.05-.07-.01-.12,0-.18.03-.05.04-.09.09-.11.16v.06s0,.01,0,.01h.06s.01,0,.01,0v-.04s.04-.09.08-.11c.03-.02.07-.03.12-.03.05,0,.08.03.1.07.02.03.03.08.01.12-.02.06-.07.14-.17.24l-.12.11c-.12.12-.2.19-.24.22v.02s-.02.06-.02.06v.02s.47.09.47.09Z"/>
              <polygon points="33.23 16.83 33.25 16.82 33.72 16.01 33.73 15.99 33.74 15.93 33.73 15.91 33.28 15.83 33.27 15.84 33.23 15.98 33.24 16 33.29 16.01 33.3 15.99 33.32 15.93 33.32 15.93 33.63 15.98 33.64 15.99 33.63 15.99 33.16 16.79 33.16 16.81 33.17 16.81 33.23 16.83"/>
              <path d="M34.26,16.08c-.03-.06-.09-.1-.16-.11-.07-.01-.14,0-.19.04-.06.04-.09.1-.11.19l-.1.44c-.02.08-.02.15.02.21.03.06.08.1.16.11.07.01.14,0,.2-.04.06-.04.1-.1.12-.19l.11-.44c.02-.08.01-.15-.02-.21ZM34.2,16.27l-.11.45c-.01.06-.04.1-.08.13-.04.03-.08.04-.13.03-.05,0-.08-.03-.11-.07-.02-.04-.02-.09-.01-.14l.11-.45c.01-.06.04-.1.08-.13.04-.03.08-.04.13-.03.05,0,.09.04.11.07.02.04.02.09.01.14Z"/>
              <path d="M31.78,20.03c.14-.13.24-.23.29-.28.1-.1.16-.18.17-.26.01-.05.01-.09,0-.13,0-.04-.03-.07-.06-.1-.03-.03-.07-.05-.11-.05-.07-.01-.12,0-.18.03-.05.04-.09.09-.11.16v.06s0,.01,0,.01h.06s.02,0,.02,0v-.04s.04-.08.08-.11c.03-.02.07-.03.12-.03.05,0,.08.03.1.07.02.03.02.08.01.12-.02.06-.07.14-.17.24l-.12.11c-.12.12-.2.19-.24.22v.02s-.02.06-.02.06h0s.46.1.46.1h.01s.01-.07.01-.07v-.02s-.37-.07-.37-.07h0s.03-.04.03-.04Z"/>
              <path d="M32.88,19.37l-.4-.08h-.02s-.13.54-.13.54v.02s.07.01.07.01h.02s.04-.06.07-.07c.03-.01.06-.02.1,0,.04,0,.07.02.09.05.02.03.03.06.02.11,0,.03,0,.06-.02.09,0,.04-.02.06-.03.08-.02.04-.04.07-.07.09-.03.02-.06.03-.1.02-.03,0-.06-.02-.08-.05-.02-.03-.03-.06-.03-.1v-.03s0-.01,0-.01h-.06s-.01,0-.01,0h0s0,.07,0,.07c0,.06.02.11.05.15.03.04.07.07.13.08.06.01.11,0,.15-.02.05-.03.08-.07.11-.13.01-.03.03-.07.04-.11,0-.04.02-.08.02-.13,0-.06-.01-.11-.04-.15-.03-.04-.07-.06-.13-.07-.03,0-.06,0-.09,0-.03,0-.06.02-.08.04h0s0,0,0,0l.08-.33h0s.33.06.33.06h.02s.01-.07.01-.07v-.02Z"/>
              <path d="M33.31,19.44c-.07-.01-.14,0-.19.04-.06.04-.09.1-.11.19l-.1.44c-.02.08-.01.16.02.21.03.06.08.1.16.11.07.01.14,0,.2-.04.06-.04.1-.11.12-.19l.1-.44c.02-.08.01-.15-.02-.21-.03-.06-.09-.1-.16-.11ZM33.41,19.74l-.11.45c-.01.06-.04.1-.08.13-.04.03-.08.04-.13.03-.05,0-.08-.03-.1-.07-.02-.04-.03-.09-.01-.14l.11-.45c.01-.06.04-.1.08-.13.04-.03.08-.04.13-.03.05,0,.09.04.11.07.02.04.03.09.01.14Z"/>
              <path d="M31.24,23.21c.1-.1.16-.18.18-.26.01-.05.01-.09,0-.13-.01-.04-.03-.07-.06-.1-.03-.03-.07-.05-.11-.06-.07-.01-.12,0-.18.04-.05.04-.09.09-.11.16v.06s0,.02,0,.02h.06s.02,0,.02,0v-.04s.04-.08.08-.11c.03-.02.07-.03.12-.02.05,0,.08.03.1.06.02.03.03.08.01.13-.01.06-.07.14-.17.23l-.12.11c-.12.12-.2.19-.24.23v.02s-.02.06-.02.06h0s.46.1.46.1h.01s.01-.07.01-.07v-.02s-.37-.07-.37-.07h0s.03-.04.03-.04c.14-.13.24-.23.29-.28Z"/>
              <path d="M32.06,22.83l-.43-.08h-.01s-.01.07-.01.07v.02s.33.06.33.06h0s-.27.25-.27.25v.02s.01.05.01.05h0s0,0,0,0h.05c.06,0,.1.05.11.12,0,.04,0,.08-.01.14-.01.05-.03.08-.04.11-.04.07-.09.1-.16.08-.04,0-.06-.02-.08-.05-.02-.03-.03-.06-.03-.1,0-.02,0-.05.01-.08v-.02s-.07-.01-.07-.01h-.02c0,.06-.01.09-.01.12,0,.06.02.11.05.15.03.04.07.07.13.08.05.01.1,0,.15-.02.04-.02.08-.06.11-.11.02-.03.04-.08.05-.13.02-.06.02-.12.02-.17,0-.09-.05-.15-.14-.17h0s0,0,0,0l.25-.23v-.02s.03-.07.03-.07h0Z"/>
              <path d="M32.47,22.9c-.07-.01-.14,0-.19.04-.06.04-.09.11-.11.19l-.1.43c-.02.08-.02.16.02.21.03.06.08.1.16.11.07.01.14,0,.2-.04.06-.04.1-.1.12-.19l.1-.43c.02-.08.01-.15-.02-.21-.03-.06-.09-.09-.16-.11ZM32.57,23.2l-.11.44c-.01.06-.04.1-.08.13-.04.03-.08.04-.13.03-.05,0-.08-.04-.11-.07-.02-.04-.02-.09-.01-.14l.11-.44c.01-.06.04-.1.08-.13.04-.03.08-.04.13-.03.05,0,.09.03.11.07.02.04.02.09.01.14Z"/>
              <path d="M30.4,26.67c.1-.1.16-.18.18-.26.01-.05.01-.09,0-.13,0-.04-.03-.07-.06-.1-.03-.03-.07-.05-.11-.05-.07-.01-.12,0-.18.03-.05.04-.09.09-.11.16v.05s0,.02,0,.02h.06s.02,0,.02,0v-.04s.04-.09.08-.11c.03-.03.07-.03.12-.03.05,0,.08.03.1.06.02.03.02.08.01.13-.01.06-.07.14-.17.23l-.12.11c-.12.12-.2.19-.24.22v.02s-.02.06-.02.06v.02s.47.09.47.09h.01s.01-.07.01-.07v-.02s-.37-.07-.37-.07h0s.03-.04.03-.04c.14-.14.24-.23.29-.28Z"/>
              <polygon points="30.93 26.23 30.92 26.23 30.77 26.29 30.75 26.3 30.75 26.31 30.75 26.36 30.75 26.37 30.76 26.37 30.89 26.34 30.9 26.34 30.9 26.34 30.7 27.18 30.71 27.2 30.76 27.21 30.78 27.2 31 26.26 31 26.25 30.93 26.23"/>
              <path d="M31.44,26.32c-.07-.01-.14,0-.19.04-.06.04-.09.11-.11.19l-.1.43c-.02.08-.01.16.02.22.03.06.09.09.16.11.08.01.14,0,.2-.04.06-.04.09-.11.11-.19l.1-.43c.02-.08.02-.15-.02-.21-.03-.06-.09-.1-.16-.11ZM31.54,26.62l-.11.44c-.01.06-.04.1-.08.13-.04.03-.08.04-.13.03-.05,0-.08-.03-.1-.07-.02-.04-.02-.09-.01-.14l.11-.44c.01-.06.04-.1.08-.13.04-.03.08-.04.13-.03.05,0,.09.03.11.07.02.04.03.09.01.14Z"/>
              <polygon points="29.56 29.59 29.5 29.58 29.48 29.58 29.33 29.64 29.32 29.65 29.32 29.65 29.31 29.71 29.32 29.72 29.32 29.72 29.46 29.68 29.46 29.68 29.46 29.69 29.26 30.53 29.27 30.54 29.33 30.55 29.34 30.54 29.57 29.61 29.56 29.59"/>
              <path d="M29.98,29.66c-.05,0-.1,0-.14.02-.04.02-.08.06-.11.11-.02.03-.04.08-.05.13-.02.07-.02.12-.01.16,0,.05.02.09.05.12.03.03.06.05.11.06.07.01.13,0,.17-.05h0s0,0,0,0l-.05.2c-.01.05-.04.09-.07.11-.03.03-.07.04-.11.03-.04,0-.07-.03-.09-.06-.02-.03-.02-.07-.01-.12h0s0-.03,0-.03h-.06s-.02,0-.02,0v.02c-.02.07-.01.13.02.18.03.05.08.08.14.1.07.01.13,0,.18-.04.05-.04.09-.09.11-.17l.1-.43s.02-.09.02-.13c0-.06-.02-.11-.05-.15-.03-.04-.07-.06-.13-.07ZM30.05,29.99s-.03.09-.04.11c-.02.03-.04.06-.07.07-.03.02-.06.02-.09.01-.03,0-.06-.02-.08-.04-.02-.02-.03-.05-.03-.09,0-.03,0-.07.01-.11.01-.04.02-.08.04-.1.02-.04.04-.06.07-.08.03-.02.06-.02.09-.01.03,0,.06.02.08.05.02.03.03.06.03.09,0,.03,0,.06-.01.1Z"/>
              <path d="M30.61,29.77c-.07-.01-.14,0-.19.04-.06.04-.09.11-.11.19l-.1.43c-.02.08-.02.15.02.21.03.06.08.09.16.11.07.01.14,0,.2-.04.06-.04.1-.1.12-.19l.1-.44c.02-.08.01-.15-.02-.21-.03-.06-.09-.1-.16-.11ZM30.71,30.08l-.11.44c-.01.06-.04.1-.08.13-.04.03-.08.04-.13.03-.05,0-.08-.03-.11-.07-.02-.04-.02-.09-.01-.14l.11-.44c.01-.06.04-.1.08-.13.04-.03.08-.04.13-.03.05,0,.09.03.11.07.02.04.02.09.01.14Z"/>
              <polygon points="28.44 34 28.5 34.01 28.51 34 28.74 33.06 28.73 33.05 28.67 33.04 28.65 33.04 28.5 33.1 28.49 33.11 28.49 33.11 28.48 33.16 28.49 33.18 28.49 33.18 28.63 33.14 28.63 33.14 28.63 33.15 28.43 33.98 28.44 34"/>
              <polygon points="28.85 34.08 28.87 34.07 29.34 33.26 29.35 33.25 29.36 33.18 29.36 33.17 28.9 33.08 28.89 33.09 28.85 33.23 28.86 33.25 28.91 33.26 28.92 33.25 28.94 33.18 28.94 33.18 29.25 33.24 29.26 33.24 29.26 33.24 28.78 34.05 28.78 34.06 28.79 34.07 28.85 34.08"/>
              <path d="M29.72,33.22c-.07-.01-.14,0-.19.04-.06.04-.09.1-.11.19l-.1.43c-.02.08-.02.15.02.21.03.06.08.1.16.11.07.01.14,0,.2-.04.06-.04.1-.1.12-.19l.1-.43c.02-.08.01-.15-.02-.21-.03-.06-.08-.1-.16-.11ZM29.82,33.52l-.11.45c-.01.06-.04.1-.08.13-.04.03-.08.04-.13.03-.05,0-.08-.03-.11-.07-.02-.04-.02-.09-.01-.14l.11-.45c.01-.06.04-.1.08-.13.04-.03.08-.04.13-.03.05,0,.09.03.11.07.02.04.02.09.01.14Z"/>
              <polygon points="27.61 37.46 27.67 37.47 27.68 37.46 27.9 36.52 27.9 36.51 27.83 36.49 27.82 36.5 27.67 36.56 27.65 36.57 27.65 36.57 27.65 36.62 27.65 36.64 27.66 36.64 27.79 36.6 27.8 36.6 27.8 36.6 27.6 37.44 27.61 37.46"/>
              <path d="M28.51,36.62l-.4-.08h-.02s-.13.54-.13.54v.02s.07.01.07.01h.01s.04-.06.07-.07c.03-.01.06-.02.1,0,.04,0,.07.02.09.05.02.03.03.06.02.11,0,.03,0,.06-.02.09,0,.03-.02.06-.03.08-.02.04-.04.07-.07.09-.03.02-.06.03-.1.02-.04,0-.06-.02-.08-.05-.02-.03-.03-.06-.03-.1v-.03s0-.02,0-.02h-.06s-.01,0-.01,0h0s0,.07,0,.07c0,.06.02.11.05.15.03.04.07.07.13.08.06.01.11,0,.15-.03.05-.03.09-.07.11-.13.01-.03.03-.07.04-.11,0-.04.02-.08.02-.13,0-.06,0-.11-.04-.15-.03-.04-.07-.06-.13-.07-.03,0-.06,0-.09,0-.03,0-.06.02-.08.04h0s0,0,0,0l.08-.33h0s.33.06.33.06h.02s.01-.07.01-.07v-.02Z"/>
              <path d="M28.93,36.69c-.07-.01-.14,0-.2.04-.05.04-.09.1-.11.19l-.1.43c-.02.08-.01.16.02.21.03.06.08.1.16.11.07.01.14,0,.2-.04.06-.04.1-.1.12-.19l.1-.43c.02-.08.01-.15-.02-.21-.03-.06-.09-.1-.16-.11ZM29.03,36.99l-.11.45c-.01.06-.04.1-.08.13-.04.03-.08.04-.13.03-.05,0-.08-.03-.1-.07-.02-.04-.03-.09-.01-.14l.11-.45c.01-.06.04-.1.08-.13.04-.03.08-.04.13-.03.05,0,.09.04.11.07.02.04.03.09.01.14Z"/>
              <polygon points="26.77 40.92 26.83 40.93 26.85 40.92 27.07 39.98 27.06 39.97 27 39.95 26.99 39.96 26.83 40.01 26.82 40.03 26.82 40.03 26.81 40.08 26.82 40.1 26.83 40.09 26.96 40.06 26.97 40.06 26.97 40.07 26.77 40.9 26.77 40.92"/>
              <path d="M27.69,40.08l-.43-.08h-.02s-.01.07-.01.07v.02s.33.06.33.06h0s-.27.25-.27.25v.02s.01.05.01.05h0s0,0,0,0h.05c.06,0,.1.05.11.12,0,.04,0,.08-.01.14-.01.05-.03.08-.04.11-.04.07-.09.1-.16.08-.04,0-.06-.02-.08-.05-.02-.03-.03-.06-.03-.1,0-.02,0-.05.01-.08v-.02s-.07-.01-.07-.01h-.02c0,.06-.01.09-.01.12,0,.06.02.11.05.15.03.04.07.07.13.08.05.01.1,0,.15-.02.04-.02.08-.06.11-.11.02-.04.04-.08.05-.13.02-.06.02-.12.02-.17-.01-.09-.05-.15-.14-.17h0s0,0,0,0l.25-.23v-.02s.03-.07.03-.07h0Z"/>
              <path d="M28.1,40.15c-.07-.01-.14,0-.19.04-.06.04-.09.1-.11.19l-.1.43c-.02.08-.02.16.02.21.03.06.08.1.16.11.07.01.14,0,.2-.04.06-.04.1-.1.12-.19l.1-.43c.02-.08.01-.16-.02-.22-.03-.06-.09-.09-.16-.11ZM28.2,40.45l-.11.44c-.01.06-.04.1-.08.13-.04.03-.08.04-.13.03-.05,0-.08-.04-.11-.07-.02-.04-.02-.09-.01-.14l.11-.44c.01-.06.04-.1.08-.13.04-.03.08-.04.13-.03.05,0,.09.03.11.07.02.04.02.09.01.14Z"/>
              <polygon points="26.17 43.41 26.15 43.41 26 43.47 25.99 43.48 25.99 43.49 25.98 43.54 25.99 43.55 25.99 43.55 26.13 43.52 26.13 43.52 26.13 43.52 25.93 44.36 25.94 44.37 26 44.39 26.01 44.38 26.24 43.44 26.23 43.42 26.17 43.41"/>
              <polygon points="26.58 43.49 26.56 43.49 26.41 43.55 26.4 43.56 26.4 43.56 26.39 43.62 26.39 43.63 26.4 43.63 26.54 43.59 26.54 43.6 26.54 43.6 26.34 44.44 26.35 44.45 26.41 44.46 26.42 44.45 26.65 43.52 26.64 43.5 26.58 43.49"/>
              <path d="M27.08,43.57c-.07-.01-.14,0-.19.04-.06.04-.09.1-.11.19l-.1.43c-.02.08-.02.16.02.22.03.06.08.09.16.11.07.01.14,0,.2-.04.06-.04.1-.11.12-.19l.1-.43c.02-.08.01-.16-.02-.21-.03-.06-.09-.09-.16-.11ZM27.18,43.88l-.11.44c-.01.06-.04.1-.08.13-.04.03-.08.04-.13.03-.05,0-.08-.03-.1-.07-.02-.04-.02-.09-.01-.14l.11-.44c.01-.06.04-.1.08-.13.04-.03.08-.04.13-.03.05,0,.09.03.11.07.02.04.02.09.01.14Z"/>
              <path d="M25.41,46.87c-.05,0-.1,0-.14.02-.04.02-.08.06-.11.11-.02.03-.04.08-.05.13-.02.07-.02.12-.01.16,0,.05.02.09.05.12.03.03.06.05.11.06.07.01.13,0,.17-.05h0s0,0,0,0l-.05.2c-.01.05-.03.09-.07.11-.03.03-.07.04-.11.03-.04,0-.07-.03-.09-.06-.02-.03-.02-.07-.01-.12h0s0-.03,0-.03h-.06s-.01,0-.01,0v.02c-.02.07-.02.13.02.18.03.05.08.08.14.1.07.01.13,0,.18-.04.05-.04.09-.09.11-.17l.1-.43s.02-.09.02-.13c0-.06-.02-.11-.05-.15-.03-.04-.07-.06-.13-.07ZM25.49,47.2s-.02.08-.04.11c-.02.03-.04.06-.07.07-.03.02-.06.02-.09.01-.03,0-.06-.02-.08-.04-.02-.03-.03-.05-.03-.09,0-.03,0-.07.01-.11.01-.04.02-.08.04-.1.02-.04.04-.06.07-.08.03-.02.06-.02.09-.01.03,0,.06.02.08.05.02.02.03.06.03.09,0,.03,0,.06-.01.1Z"/>
              <path d="M26.04,46.99c-.07-.01-.14,0-.19.04-.06.04-.09.1-.11.19l-.1.44c-.02.08-.01.15.02.21.03.06.09.09.16.11.08.01.14,0,.2-.04.06-.04.09-.1.11-.19l.1-.44c.02-.08.02-.15-.02-.21-.03-.06-.09-.1-.16-.11ZM26.14,47.29l-.11.44c-.01.06-.04.1-.08.13-.04.03-.08.04-.13.03-.05,0-.08-.03-.1-.07-.02-.04-.02-.09-.01-.14l.11-.44c.01-.06.04-.1.08-.13.04-.03.08-.04.13-.03.05,0,.09.03.11.07.02.04.03.09.01.14Z"/>
              <polygon points="24.29 51.3 24.31 51.29 24.78 50.48 24.78 50.46 24.8 50.4 24.79 50.38 24.33 50.3 24.32 50.31 24.29 50.45 24.29 50.46 24.34 50.47 24.35 50.46 24.37 50.4 24.38 50.39 24.69 50.45 24.69 50.46 24.69 50.46 24.22 51.27 24.22 51.28 24.22 51.28 24.29 51.3"/>
              <path d="M25.15,50.44c-.07-.01-.14,0-.19.04-.06.04-.09.1-.11.19l-.1.44c-.02.08-.01.16.02.21.03.06.09.09.16.11.08.01.14,0,.2-.04.06-.04.09-.11.11-.19l.11-.44c.02-.08.02-.15-.02-.21-.03-.06-.09-.1-.16-.11ZM25.25,50.74l-.11.44c-.01.06-.04.1-.08.13-.04.03-.08.04-.13.03-.05,0-.08-.03-.1-.07-.02-.04-.02-.09-.01-.14l.11-.44c.01-.06.04-.1.08-.13.04-.03.08-.04.13-.03.05,0,.09.03.11.07.02.04.03.09.01.14Z"/>
              <path d="M23.94,53.84l-.41-.08h-.01s-.13.54-.13.54v.02s.07.01.07.01h.02s.04-.06.07-.07c.03-.01.06-.02.1,0,.04,0,.07.02.09.05.02.03.03.06.02.11,0,.03,0,.06-.02.09,0,.03-.02.06-.03.08-.02.04-.04.07-.07.09-.03.02-.07.03-.1.02-.04,0-.06-.02-.08-.05-.02-.03-.03-.06-.03-.1v-.03s0-.01,0-.01h-.06s-.01,0-.01,0h0s0,.07,0,.07c0,.06.02.11.05.15.03.04.07.07.13.08.06.01.11,0,.15-.02.05-.03.09-.07.11-.13.01-.03.03-.07.04-.11.01-.04.02-.09.02-.13,0-.06,0-.11-.04-.15-.03-.04-.07-.06-.13-.07-.03,0-.06,0-.09,0-.03,0-.06.02-.08.04h0s0,0,0,0l.08-.33h0s.33.06.33.06h.01s.01-.07.01-.07v-.02Z"/>
              <path d="M24.37,53.91c-.07-.01-.14,0-.2.04-.06.04-.09.1-.11.19l-.1.44c-.02.08-.02.15.02.21.03.06.08.1.16.11.07.01.14,0,.2-.04.06-.04.1-.1.12-.19l.1-.44c.02-.08.01-.15-.02-.21-.03-.06-.09-.1-.16-.11ZM24.47,54.21l-.11.44c-.01.06-.04.1-.08.13-.04.03-.08.04-.13.03-.05,0-.08-.03-.11-.07-.02-.04-.02-.09-.01-.14l.11-.45c.01-.06.04-.1.08-.13.04-.03.08-.04.13-.03.05,0,.09.04.11.07.02.04.02.09.01.14Z"/>
              <path d="M23.12,57.3l-.43-.08h-.02s-.01.07-.01.07v.02s.33.06.33.06h0s-.27.25-.27.25v.02s.01.05.01.05h0s0,0,0,0h.05c.06,0,.1.05.11.12,0,.04,0,.08-.01.14-.01.05-.03.08-.04.11-.04.07-.09.1-.16.08-.04,0-.06-.02-.08-.05-.02-.03-.03-.06-.03-.1,0-.02,0-.05,0-.08v-.02s-.07-.01-.07-.01h-.02c0,.06-.01.09-.01.12,0,.06.02.11.05.15.03.04.07.07.13.08.06.01.1,0,.15-.02.04-.02.08-.06.11-.11.02-.04.04-.08.05-.13.01-.06.02-.12.01-.17,0-.09-.05-.15-.13-.17h0s0,0,0,0l.25-.23v-.02s.03-.07.03-.07v-.02Z"/>
              <path d="M23.54,57.36c-.07-.01-.14,0-.19.04-.06.04-.09.11-.11.19l-.1.44c-.02.08-.01.16.02.22.03.06.09.1.16.11.08.01.14,0,.2-.04.06-.04.09-.11.11-.19l.1-.44c.02-.08.02-.15-.02-.21-.03-.06-.09-.1-.16-.11ZM23.63,57.67l-.11.45c-.01.06-.04.1-.08.13-.04.03-.08.04-.13.03-.05,0-.08-.03-.1-.07-.02-.04-.02-.09-.01-.14l.11-.45c.01-.06.04-.1.08-.13.04-.03.08-.04.13-.03.05,0,.09.04.11.07.02.04.03.09.01.14Z"/>
              <polygon points="21.78 61.67 21.84 61.68 21.85 61.67 22.08 60.73 22.07 60.72 22 60.71 21.99 60.71 21.84 60.76 21.82 60.78 21.82 60.78 21.82 60.84 21.82 60.85 21.83 60.85 21.96 60.81 21.97 60.81 21.97 60.82 21.77 61.65 21.78 61.67"/>
              <path d="M22.51,60.79c-.07-.01-.14,0-.19.04-.05.04-.09.11-.11.19l-.1.43c-.02.08-.01.16.02.21.03.06.09.1.16.11.08.01.14,0,.2-.04.06-.04.09-.1.11-.19l.1-.43c.02-.08.01-.15-.02-.21-.03-.06-.09-.09-.16-.11ZM22.61,61.09l-.11.44c-.01.06-.04.1-.08.13-.04.03-.08.04-.13.03-.05,0-.08-.03-.1-.07-.02-.04-.02-.09-.01-.14l.11-.44c.01-.06.04-.1.08-.13.04-.03.08-.04.13-.03.05,0,.09.03.11.07.02.04.03.09.01.14Z"/>
              <polygon points="18.31 62.46 20.76 62.92 20.78 62.8 19.91 62.64 19.9 62.7 19.19 62.56 19.21 62.51 18.33 62.34 18.31 62.46"/>
              <polygon points="19.62 60.78 18.75 60.61 18.72 60.73 19.6 60.89 19.62 60.78"/>
              <polygon points="20.33 60.91 20.3 61.03 21.17 61.19 21.2 61.07 20.33 60.91"/>
              <polygon points="19.14 59 20.01 59.16 20.04 59.05 19.17 58.88 19.14 59"/>
              <polygon points="20.72 59.3 21.59 59.46 21.62 59.34 20.74 59.18 20.72 59.3"/>
              <polygon points="22.03 57.62 21.16 57.45 21.13 57.57 22.01 57.73 22.03 57.62"/>
              <polygon points="20.46 57.32 19.58 57.16 19.56 57.27 20.43 57.43 20.46 57.32"/>
              <polygon points="22.45 55.89 21.58 55.72 21.55 55.84 22.42 56 22.45 55.89"/>
              <polygon points="20.87 55.59 20 55.43 19.97 55.54 20.85 55.71 20.87 55.59"/>
              <polygon points="21.29 53.86 20.42 53.7 20.39 53.81 21.26 53.97 21.29 53.86"/>
              <polygon points="22.87 54.16 21.99 53.99 21.97 54.11 22.84 54.27 22.87 54.16"/>
              <polygon points="23.28 52.43 22.41 52.26 22.38 52.38 23.26 52.54 23.28 52.43"/>
              <polygon points="20.81 52.08 21.68 52.24 21.71 52.13 20.83 51.97 20.81 52.08"/>
              <polygon points="21.22 50.35 22.09 50.52 22.12 50.4 21.25 50.24 21.22 50.35"/>
              <polygon points="23.7 50.7 22.83 50.53 22.8 50.65 23.67 50.81 23.7 50.7"/>
              <polygon points="24.12 48.97 23.24 48.81 23.22 48.92 24.09 49.08 24.12 48.97"/>
              <polygon points="21.64 48.62 22.51 48.79 22.54 48.67 21.67 48.51 21.64 48.62"/>
              <polygon points="22.05 46.89 22.93 47.06 22.96 46.94 22.08 46.78 22.05 46.89"/>
              <polygon points="24.53 47.24 23.66 47.08 23.63 47.19 24.5 47.36 24.53 47.24"/>
              <polygon points="22.47 45.16 23.34 45.33 23.37 45.21 22.5 45.05 22.47 45.16"/>
              <polygon points="24.95 45.51 24.08 45.34 24.05 45.46 24.92 45.62 24.95 45.51"/>
              <polygon points="22.89 43.43 23.76 43.6 23.79 43.48 22.91 43.32 22.89 43.43"/>
              <polygon points="25.37 43.78 24.49 43.62 24.46 43.73 25.34 43.89 25.37 43.78"/>
              <polygon points="23.3 41.71 24.18 41.87 24.2 41.75 23.33 41.59 23.3 41.71"/>
              <polygon points="25.78 42.05 24.91 41.89 24.88 42 25.75 42.17 25.78 42.05"/>
              <polygon points="26.2 40.32 25.32 40.16 25.3 40.27 26.17 40.44 26.2 40.32"/>
              <polygon points="23.72 39.98 24.59 40.14 24.62 40.02 23.75 39.86 23.72 39.98"/>
              <polygon points="24.14 38.25 25.01 38.41 25.04 38.3 24.16 38.13 24.14 38.25"/>
              <polygon points="26.61 38.59 25.74 38.43 25.71 38.54 26.59 38.71 26.61 38.59"/>
              <polygon points="24.55 36.52 25.43 36.68 25.45 36.57 24.58 36.4 24.55 36.52"/>
              <polygon points="27.03 36.86 26.16 36.7 26.13 36.81 27 36.98 27.03 36.86"/>
              <polygon points="24.97 34.79 25.84 34.95 25.87 34.84 25 34.67 24.97 34.79"/>
              <polygon points="27.45 35.13 26.57 34.97 26.55 35.08 27.42 35.25 27.45 35.13"/>
              <polygon points="25.39 33.06 26.26 33.22 26.29 33.11 25.41 32.94 25.39 33.06"/>
              <polygon points="27.86 33.4 26.99 33.24 26.96 33.36 27.84 33.52 27.86 33.4"/>
              <polygon points="28.28 31.67 27.41 31.51 27.38 31.63 28.25 31.79 28.28 31.67"/>
              <polygon points="25.8 31.33 26.67 31.49 26.7 31.38 25.83 31.21 25.8 31.33"/>
              <polygon points="28.7 29.95 27.82 29.78 27.79 29.9 28.67 30.06 28.7 29.95"/>
              <polygon points="26.22 29.6 27.09 29.76 27.12 29.65 26.25 29.49 26.22 29.6"/>
              <polygon points="26.63 27.87 27.51 28.04 27.54 27.92 26.66 27.76 26.63 27.87"/>
              <polygon points="29.11 28.22 28.24 28.05 28.21 28.17 29.08 28.33 29.11 28.22"/>
              <polygon points="27.05 26.14 27.92 26.3 27.95 26.19 27.08 26.02 27.05 26.14"/>
              <polygon points="28.63 26.44 29.5 26.6 29.53 26.49 28.66 26.32 28.63 26.44"/>
              <polygon points="27.47 24.41 28.34 24.57 28.37 24.46 27.49 24.3 27.47 24.41"/>
              <polygon points="29.95 24.76 29.07 24.59 29.04 24.71 29.92 24.87 29.95 24.76"/>
              <polygon points="27.88 22.68 28.76 22.85 28.78 22.73 27.91 22.57 27.88 22.68"/>
              <polygon points="30.36 23.03 29.49 22.86 29.46 22.98 30.33 23.14 30.36 23.03"/>
              <polygon points="30.78 21.3 29.9 21.14 29.88 21.25 30.75 21.41 30.78 21.3"/>
              <polygon points="28.3 20.95 29.17 21.12 29.2 21 28.33 20.84 28.3 20.95"/>
              <polygon points="31.19 19.57 30.32 19.41 30.29 19.52 31.17 19.68 31.19 19.57"/>
              <polygon points="28.72 19.22 29.59 19.39 29.62 19.27 28.74 19.11 28.72 19.22"/>
              <polygon points="30.03 17.54 29.16 17.38 29.13 17.49 30.01 17.66 30.03 17.54"/>
              <polygon points="31.61 17.84 30.74 17.68 30.71 17.79 31.58 17.95 31.61 17.84"/>
              <polygon points="30.45 15.81 29.58 15.65 29.55 15.76 30.42 15.93 30.45 15.81"/>
              <polygon points="32.03 16.11 31.15 15.95 31.13 16.06 32 16.22 32.03 16.11"/>
              <polygon points="30.87 14.08 29.99 13.92 29.96 14.04 30.84 14.2 30.87 14.08"/>
              <polygon points="32.44 14.38 31.57 14.22 31.54 14.33 32.42 14.5 32.44 14.38"/>
              <path d="M17.04,67.09l-.15-.03h-.04s-.37.15-.37.15l-.03.03h0s-.02.14-.02.14l.02.03h.01l.33-.09h.01s0,.01,0,.01l-.49,2.05s0,.04.02.04l.15.03s.03,0,.04-.03l.55-2.29s0-.04-.02-.04Z"/>
              <path d="M18.33,68.89l-.12-.02v-.02s.12-.54.12-.54c0-.02,0-.04-.02-.04l-.15-.03s-.03,0-.04.03l-.13.54h-.01s-.64-.11-.64-.11h0s0-.02,0-.02l.91-1.33v-.03s-.01-.02-.01-.02l-.15-.03-.04.02-.94,1.38-.02.04-.03.13s0,.03.02.04l.85.16v.02s-.14.6-.14.6c0,.02,0,.03.02.04l.15.03s.03,0,.04-.03l.14-.6h.02s.12.01.12.01c.02,0,.03,0,.04-.03l.04-.15s0-.04-.02-.04Z"/>
              <path d="M19.69,67.56c-.18-.03-.34,0-.48.1-.14.1-.23.26-.28.46l-.26,1.06c-.05.21-.04.38.04.53.08.14.21.23.39.27.18.03.34,0,.48-.1.14-.1.23-.26.28-.46l.26-1.06c.05-.2.04-.38-.04-.52-.08-.14-.21-.23-.39-.27ZM19.93,68.3l-.26,1.09c-.03.14-.1.24-.19.31-.09.07-.2.09-.32.07-.12-.02-.2-.08-.26-.18-.05-.1-.06-.21-.03-.35l.26-1.09c.03-.14.09-.24.19-.31.09-.07.2-.09.32-.07.12.02.21.08.26.18.05.1.06.21.03.35Z"/>
              <path d="M21.1,68.05s-.04,0-.05,0l-.04.03h0s-.02-.04-.02-.04c-.01-.01-.03-.02-.04-.02h-.04s-.04.02-.04.02h0s0,0,0,0v-.02s0,0,0,0h-.03s0,0,0,0l-.07.3h0s.03.01.03.01h0s.05-.21.05-.21c0-.02.01-.04.03-.05.01-.01.03-.02.05-.01.02,0,.03.01.04.03,0,.02,0,.04,0,.06l-.05.2h0s.03.01.03.01h0s.05-.21.05-.21c0-.02.01-.04.03-.05.01-.01.03-.02.05-.01.02,0,.03.01.04.03,0,.02,0,.04,0,.06l-.05.2h0s.03.01.03.01h0s.05-.22.05-.22c0-.03,0-.06,0-.08-.01-.02-.03-.03-.06-.04Z"/>
              <path d="M21.53,68.14s-.04,0-.05,0l-.04.03h0l-.02-.04s-.03-.02-.04-.02h-.04s-.04.02-.04.02h0s0,0,0,0v-.02s0,0,0,0h-.03s0,0,0,0l-.07.3h0s.03.01.03.01h0s.05-.21.05-.21c0-.02.02-.04.03-.05.01-.01.03-.02.05-.01.02,0,.03.01.04.03,0,.02,0,.04,0,.06l-.05.2h0s.03.01.03.01h0s.05-.21.05-.21c0-.02.02-.04.03-.05.01-.01.03-.02.05-.01.02,0,.03.01.04.03,0,.02,0,.04,0,.06l-.05.2h0s.03.01.03.01h0s.05-.22.05-.22c0-.03,0-.06,0-.08-.01-.02-.03-.03-.06-.04Z"/>
              <path d="M21.81,68.19s-.06,0-.08.02h0s0,0,0,0l.04-.15h0s-.03-.01-.03-.01h0s-.1.43-.1.43h0s.03.01.03.01h0s.05-.2.05-.2c0-.02.02-.04.03-.05.02-.01.03-.02.05-.01.02,0,.03.01.04.03,0,.02,0,.04,0,.06l-.05.2h0s.03.01.03.01h0s.05-.21.05-.21c0-.03,0-.06,0-.08-.01-.02-.03-.04-.06-.04Z"/>
              <path d="M22.14,68.26h0s0,.03,0,.03h0s0,0,0,0c0-.03-.03-.04-.06-.05-.02,0-.04,0-.06.01-.02.01-.04.03-.05.06v.03s-.03.05-.03.05c0,.04-.01.06-.01.08,0,.03,0,.05.02.07.01.02.03.03.06.03.03,0,.06,0,.08-.02h0s0,0,0,0v.02s-.03.06-.05.07c-.02.01-.04.02-.08,0h-.01s0,0,0,0h0s0,.03,0,.03h0s.02.01.02.01c.04,0,.07,0,.1-.01.03-.02.05-.05.06-.1l.07-.3h0s-.03-.01-.03-.01ZM22.11,68.37s0,.02-.01.04v.04s-.02.02-.02.02l-.03.04h-.05s-.04-.02-.04-.02v-.05s0-.03,0-.06c0-.03.01-.05.02-.06l.03-.04h.05s.04.02.04.02v.05s0,.02,0,.02Z"/>
            </g>
          </g>
          <path class="cls-27" d="M77.02,58.41c.45-.15.82.35.81,1.1l-.06,3.94c-.01.76-.39,1.5-.85,1.65l-1.15.38-.11,7.41c-.01,1.03-.53,2.04-1.15,2.24l-39.68,12.98-3.35,1.1c-2.32.76-4.16-1.76-4.1-5.63.06-3.87,1.99-7.62,4.31-8.38,1.36-.45,2.56.24,3.3,1.66l1.39-.45,36.1-11.81.88-3.7c.18-.76.7-1.5,1.15-1.65l2.5-.82Z"/>
          <path class="cls-26" d="M75.67,72.87l.1-6.95-22.67,7.05c-.41.13-.78.45-1.07.95-1.21,2.11-1.11,5.83-.32,8.64l22.81-7.47c.62-.2,1.14-1.2,1.15-2.24Z"/>
          <path class="cls-3" d="M31.69,75.18c.27-.09.54-.13.79-.13-.3-.01-.61.03-.92.13-2.32.76-4.25,4.51-4.31,8.38-.04,2.96,1.02,5.12,2.56,5.64.15.03.3.06.44.08-1.7-.32-2.91-2.58-2.87-5.73.06-3.87,1.99-7.62,4.31-8.38Z"/>
          <path class="cls-40" d="M32.12,78.01c1.61-.53,2.89,1.22,2.85,3.9-.04,2.69-1.38,5.29-2.99,5.82-1.61.53-2.88-1.22-2.85-3.91.04-2.68,1.38-5.29,2.99-5.81Z"/>
          <path class="cls-19" d="M31.66,77.32c1.61-.53,2.88,1.22,2.85,3.9-.04,2.69-1.38,5.29-2.99,5.82-1.61.53-2.88-1.22-2.85-3.91.04-2.68,1.38-5.29,2.99-5.81Z"/>
          <path class="cls-7" d="M31.9,77.32c1.61-.53,2.88,1.22,2.85,3.9-.04,2.69-1.38,5.29-2.99,5.82-1.61.53-2.88-1.22-2.85-3.91.04-2.68,1.38-5.29,2.99-5.81Z"/>
          <path class="cls-22" d="M32,77.32c1.61-.53,2.89,1.22,2.85,3.9-.04,2.69-1.38,5.29-2.99,5.82-1.61.53-2.88-1.22-2.85-3.91.04-2.68,1.38-5.29,2.99-5.81Z"/>
        </g>
        <g>
          <g>
            <path class="cls-30" d="M55.55,72.46l26.44-8.23c-.41.13-.78.45-1.07.95-1.36,2.36-1.07,6.74-.01,9.61.35.96,1.09,2.54,2.26,3.15.15.08.31.14.47.18.08.02.16.02.23,0-8.81,2.74-17.63,5.49-26.44,8.23-.07.02-.15.02-.23,0-.16-.04-.32-.11-.47-.18-1.17-.61-1.9-2.19-2.26-3.15-1.06-2.87-1.35-7.26.01-9.61.29-.51.66-.82,1.07-.95Z"/>
            <path class="cls-1" d="M56.17,75.67l26.44-8.23s-.07.03-.1.05c-.3.17-.48.49-.55.97-.29,2.02,1.4,5.88,1.42,5.92l-26.44,8.23s-1.71-3.9-1.42-5.92c.07-.48.25-.8.55-.97.03-.02.07-.04.1-.05Z"/>
            <path class="cls-20" d="M55.86,74.67l26.44-8.23c.22-.07.45-.04.68.07.21.11.41.29.6.55,1.48,1.97,2.2,8,1.57,10.61-.23.96-.6,1.34-.96,1.46-8.81,2.74-17.63,5.49-26.44,8.23.36-.11.73-.5.96-1.46.63-2.6-.09-8.64-1.57-10.61-.19-.26-.4-.44-.6-.55-.22-.12-.45-.14-.68-.07Z"/>
            <path class="cls-13" d="M87.06,75.93c.84-5.6-.8-10.03-2.79-11.86-.29-.27-.59-.48-.88-.63-.59-.31-1.18-.38-1.7-.22l-26.44,8.23c.53-.16,1.11-.09,1.7.22.29.15.59.36.88.63,1.92,1.77,3.53,5.99,2.86,11.35h0c-.08.6-.02,1.29.63,1.09l24.86-7.73c.39-.15.8-.59.89-1.08Z"/>
            <path class="cls-36" d="M60.68,83.66h0c-.08.6-.02,1.29.63,1.09l24.86-7.73c.39-.15.8-.59.89-1.08.2-1.29.26-2.52.21-3.67l-26.44,8.23c.04,1,0,2.06-.14,3.17Z"/>
            <path class="cls-6" d="M61.09,84.78c-.4-.28-.41-.68-.36-1.12.67-5.36-.94-9.59-2.86-11.35-.29-.27-.59-.48-.88-.63-.31-.16-.61-.26-.9-.29.28.04.56.13.85.28.29.15.59.36.88.63,1.92,1.77,3.53,5.99,2.86,11.35h0c-.06.4-.05.84.16,1.03l.24.1s0,0,0,0Z"/>
            <path class="cls-34" d="M60.68,83.66c.67-5.36-.94-9.59-2.86-11.35-.29-.27-.59-.48-.88-.63-1.19-.62-2.34-.28-3.07.99-1.38,2.39-1.4,6.97-.04,10.65.71,1.91,1.68,3.24,2.79,3.81.2.11.41.19.62.24.48.12,1.13-.03,1.47-1.46.63-2.6-.09-8.64-1.57-10.61-.19-.26-.4-.44-.6-.55-.29-.15-.59-.15-.87.01-.46.27-.75.78-.86,1.52-.25,1.77.65,4.46,1.19,5.84.15.38.51.44.96.5-.02-.04-1.71-3.9-1.42-5.92.07-.48.25-.8.55-.97.13-.08.24-.08.36-.02.09.05.17.13.27.25,1.12,1.48,1.89,7.04,1.31,9.43-.18.74-.45,1.06-.81.97-.16-.04-.32-.11-.47-.18-1.17-.61-1.9-2.19-2.26-3.15-1.06-2.87-1.35-7.26.01-9.61.57-.99,1.44-1.26,2.36-.78.23.12.46.29.69.5,1.69,1.55,3.08,5.38,2.4,10.33-.05.36.15.95.46,1.07l.66.26c-.41-.28-.42-.68-.36-1.12Z"/>
            <text class="cls-31" transform="translate(67.91 80.93) rotate(-17.28) scale(1 .91) skewX(-22.85)"><tspan x="0" y="0">S</tspan></text>
            <text class="cls-31" transform="translate(68.52 80.74) rotate(-17.28) scale(1 .91) skewX(-22.85)"><tspan x="0" y="0">P</tspan></text>
            <text class="cls-31" transform="translate(69.21 80.52) rotate(-17.28) scale(1 .91) skewX(-22.85)"><tspan x="0" y="0">H</tspan></text>
            <text class="cls-31" transform="translate(70.02 80.27) rotate(-17.28) scale(1 .91) skewX(-22.85)"><tspan x="0" y="0">Y</tspan></text>
            <text class="cls-31" transform="translate(70.66 80.07) rotate(-17.28) scale(1 .91) skewX(-22.85)"><tspan x="0" y="0">G</tspan></text>
            <text class="cls-31" transform="translate(71.47 79.82) rotate(-17.28) scale(1 .91) skewX(-22.85)"><tspan x="0" y="0">M</tspan></text>
            <text class="cls-31" transform="translate(72.51 79.5) rotate(-17.28) scale(1 .91) skewX(-22.85)"><tspan x="0" y="0">O</tspan></text>
            <text class="cls-31" transform="translate(73.38 79.22) rotate(-17.28) scale(1 .91) skewX(-22.85)"><tspan x="0" y="0">M</tspan></text>
            <text class="cls-31" transform="translate(74.38 78.92) rotate(-17.28) scale(1 .91) skewX(-22.85)"><tspan x="0" y="0">A</tspan></text>
            <text class="cls-31" transform="translate(75.16 78.67) rotate(-17.28) scale(1 .91) skewX(-22.85)"><tspan x="0" y="0">N</tspan></text>
            <text class="cls-31" transform="translate(75.98 78.42) rotate(-17.28) scale(1 .91) skewX(-22.85)"><tspan x="0" y="0">O</tspan></text>
            <text class="cls-31" transform="translate(76.86 78.14) rotate(-17.28) scale(1 .91) skewX(-22.85)"><tspan x="0" y="0">M</tspan></text>
            <text class="cls-31" transform="translate(77.88 77.82) rotate(-17.28) scale(1 .91) skewX(-22.85)"><tspan x="0" y="0">E</tspan></text>
            <text class="cls-31" transform="translate(78.54 77.62) rotate(-17.28) scale(1 .91) skewX(-22.85)"><tspan x="0" y="0">T</tspan></text>
            <text class="cls-31" transform="translate(79.16 77.43) rotate(-17.28) scale(1 .91) skewX(-22.85)"><tspan x="0" y="0">E</tspan></text>
            <text class="cls-31" transform="translate(79.79 77.23) rotate(-17.28) scale(1 .91) skewX(-22.85)"><tspan x="0" y="0">R</tspan></text>
          </g>
          <path class="cls-35" d="M67.69,87.89c-4.14.4-7.94,2.71-11.3,4.74-4.31,2.61-8.03,4.86-11.25,2.64-.58-.4-.89-.85-.94-1.37-.09-.87.49-2.02,1.63-3.23l-1.32-1.24c-1.53,1.63-2.27,3.24-2.12,4.66.08.73.44,1.79,1.71,2.67,1.28.88,2.58,1.25,3.9,1.25,2.99,0,6.09-1.88,9.31-3.83,3.34-2.03,6.8-4.12,10.54-4.49l-.18-1.8Z"/>
          <path class="cls-28" d="M44.2,93.9c-.09-.87.49-2.02,1.63-3.23l-1.32-1.24c-1.53,1.63-2.27,3.24-2.12,4.66.02.22.07.46.16.72l2.11.07c-.28-.3-.44-.62-.48-.98Z"/>
          <path class="cls-25" d="M59.71,86.72c-.34-1.34-1.25-2.24-2.63-2.6-3.48-.9-9.5,2.06-12.56,5.3l1.32,1.24c2.9-3.08,8.25-5.45,10.79-4.79.73.19,1.15.6,1.33,1.3.19.73-.25,1.48-1.3,2.24-3.31,2.39-10.6,3.24-13.23,1.55-.79-.51-1.07-1.18-.88-2.12.62-3.08,8.64-5.54,13.4-6.82-.18-.46-.39-1.06-.58-1.71-7.36,1.99-13.84,4.42-14.59,8.18-.33,1.67.26,3.09,1.68,4,1.29.83,3.17,1.19,5.22,1.19,3.6,0,7.72-1.12,10.04-2.8,2.24-1.62,2.21-3.29,1.99-4.15Z"/>
          <g>
            <path class="cls-17" d="M93.63,88.69c.17-.01.3-.16.28-.32l-.15-2.37c-.01-.17-.16-.3-.32-.29l-1.11.07s-1.38-4.86-7.86-4.75c-9.82.17-12.49,6.25-12.49,6.25l-1.1.07.08,1.31h0s.08,1.31.08,1.31l1.1-.07s3.43,5.68,13.19,4.59c6.43-.72,7.18-5.72,7.18-5.72l1.12-.07Z"/>
            <rect class="cls-9" x="66.53" y="87.76" width="4.63" height="2.07" transform="translate(-5.59 4.63) rotate(-3.7)"/>
            <rect class="cls-15" x="69.96" y="87.16" width="2.1" height="2.99" transform="translate(-5.58 4.78) rotate(-3.71)"/>
            <rect class="cls-9" x="70.65" y="86.96" width=".71" height="3.38" transform="translate(-5.56 4.75) rotate(-3.69)"/>
            <rect class="cls-9" x="67.8" y="87.34" width=".69" height=".66" transform="translate(-5.48 4.55) rotate(-3.67)"/>
            <polygon class="cls-38" points="68.5 87.7 67.8 87.6 67.78 87.37 68.47 87.32 68.5 87.7"/>
            <path class="cls-15" d="M69.01,86.93v-.18s.05,0,.05,0l-.02-.27c0-.09-.09-.16-.18-.16l-1.61.1c-.09,0-.16.09-.16.18l.02.27h.06s.01.18.01.18h-.06s.03.48.03.48l1.94-.13-.03-.48h-.06Z"/>
            <rect class="cls-9" x="67.19" y="86.8" width="1.82" height=".18" transform="translate(-5.47 4.58) rotate(-3.7)"/>
          </g>
          <path class="cls-32" d="M49.02,82.26l.78,1.64c2.13-.78,4.37-1.42,6.15-1.9-.18-.46-.39-1.06-.58-1.71-2.24.61-4.4,1.26-6.34,1.97Z"/>
          <path class="cls-4" d="M63.13,60.03c-4.23-3.05-8.82-.16-17.24,5.63-3.72,2.56-11.13,5.77-15.1,6.89l-.05.19c.45-.05.89,0,1.32.16.43.15.83.41,1.19.76,4.42-1.51,10.44-4.29,13.66-6.51,8.36-5.76,12.08-7.88,15.16-5.66,1.06.77,1.52,1.53,1.35,2.27-.33,1.48-3.35,3.71-10.77,5.13-6.72,1.28-11.19,4.01-11.95,7.31-.35,1.51.19,2.97,1.45,3.91,1.14.85,2.78,1.16,4.57,1.16,2.93,0,6.25-.84,8.49-1.52-.16-.58-.29-1.19-.37-1.78-4.44,1.38-9.56,2.21-11.6.68-.69-.52-.96-1.23-.77-2.06.44-1.9,3.46-4.6,10.53-5.94,7.24-1.38,11.58-3.69,12.2-6.51.23-1.04.06-2.6-2.06-4.13Z"/>
          <path class="cls-33" d="M38.71,69.52c-2.9,1.32-5.87,2.45-7.92,3.03l-.05.19c.45-.05.89,0,1.32.16.43.15.83.41,1.19.76,1.72-.59,3.69-1.37,5.63-2.24l-.18-1.9Z"/>
          <path class="cls-5" d="M55.21,79.75c-.16-.58-.29-1.19-.37-1.78-2.13.66-4.42,1.19-6.45,1.4l-.07,1.82c2.48-.22,5.05-.88,6.88-1.44Z"/>
        </g>
      </g>
    </g>
  </g>
</svg>