<?xml version="1.0" encoding="UTF-8"?>
<svg xmlns="http://www.w3.org/2000/svg" viewBox="0 0 100 100">
  <defs>
    <style>
      .cls-1, .cls-2, .cls-3 {
        fill: #fbd0b4;
      }

      .cls-1, .cls-4 {
        mix-blend-mode: multiply;
      }

      .cls-5 {
        fill: #9e5116;
      }

      .cls-2, .cls-6 {
        mix-blend-mode: screen;
      }

      .cls-7, .cls-6 {
        fill: #c72e1e;
      }

      .cls-4, .cls-8 {
        fill: #ee3525;
      }

      .cls-9 {
        isolation: isolate;
      }
    </style>
  </defs>
  <g class="cls-9">
    <g id="Layer_2" data-name="Layer 2">
      <g>
        <g>
          <path class="cls-5" d="M79.86,94.61c.57-.26,1.17-.36,1.77-.54,1.63-.5,3.19-1.22,4.64-2.11.73-.44,1.43-.93,2.1-1.46.72-.57,1.39-1.21,2.02-1.87,1.26-1.32,2.37-2.78,3.4-4.29.43-.63.79-1.33,1.28-1.92.29-.35.64-.62,1.04-.79.05-.11.1-.22.15-.33.03-.07.05-.14.08-.2-.27-.25-.54-.5-.8-.75-1.2-1.16-2.45-2.26-3.66-3.41-1.2-1.13-2.32-2.34-3.48-3.51-1.18-1.19-2.38-2.36-3.62-3.49-1.18-1.08-2.37-2.14-3.54-3.24-1.13-1.06-2.27-2.1-3.47-3.08-.52-.43-1.06-.83-1.62-1.2.76-4.31-3.03-8.35-6.01-11.03-5.06-4.57-10.8-8.44-17.07-11.14-1.69-.73-3.42-1.32-5.14-1.96-1.34-.51-2.78-1.09-3.92-2.01.79-.69,1.51-1.61,1.27-2.64-.19-.81-.9-1.31-1.68-1.47-.31.03-.62.07-.92.12,0,0,0,0,0,.01-.22.05-.43.11-.64.16-.77.19-1.56.21-2.35.2-.29,0-.57-.01-.86-.02,1.68-.77,3.41-1.5,4.93-2.56,1.16-.81,2.42-1.9,2.93-3.26.44-1.16.07-2.75-1.38-2.82-.66-.03-1.31.18-1.93.4-.84.3-1.67.61-2.53.88-2.09.64-4.21,1.1-6.34,1.6-.25.06-.52.12-.8.19.75-.82,1.48-1.63,2.37-2.32,1.17-.91,2.4-1.74,3.66-2.51,1.02-.63,2-1.34,2.89-2.13.92-.82,2.09-1.96,2.13-3.29.02-.6-.27-1.13-.74-1.49-.55-.43-1.29-.35-1.92-.16-1.58.48-2.84,1.6-4.35,2.22-1.23.5-2.54.76-3.77,1.26-.56.23-1.09.52-1.54.94-.49.45-.9.98-1.33,1.47-1,1.13-2.1,2.16-3.13,3.25-1.02,1.07-1.99,2.19-2.93,3.32-.67.81-1.35,1.61-2.02,2.43-.96-1.04-1.69-2.26-2.38-3.49-.7-1.23-1.39-2.47-2.07-3.71-.69-1.28-1.36-2.57-1.99-3.88-.59-1.24-1.14-2.5-1.73-3.74-.58-1.2-1.19-2.39-1.91-3.51-.73-1.13-1.57-2.15-2.51-3.11-.86-.88-1.79-1.77-2.95-2.23-.82-.33-1.89-.46-2.65.08-.8.57-.78,1.63-.49,2.47.35,1.02,1.04,1.88,1.69,2.72.75.97,1.4,1.95,1.98,3.03.68,1.25,1.29,2.53,1.9,3.82,1.23,2.61,2.46,5.22,3.57,7.88,1.12,2.67,2.16,5.37,3.22,8.06.98,2.51,1.92,5.03,2.92,7.53.98,2.45,2.06,4.89,3.61,7.04.2.28.42.56.64.83.07.14.14.28.22.41.18.31.39.6.6.89-.05.07-.07.18-.01.24.96,1.14,1.9,2.3,2.94,3.36,1.04,1.06,2.19,1.9,3.43,2.7,2.55,1.64,5.11,3.25,7.78,4.69,2.76,1.49,5.66,2.69,8.49,4.03,2.86,1.35,5.7,2.74,8.58,4.03,2.61,1.18,5.27,2.26,7.89,3.43.4.67.81,1.34,1.22,2.01.86,1.38,1.73,2.75,2.6,4.13,1.72,2.75,3.42,5.52,5.21,8.23,1.71,2.59,3.54,5.12,5.63,7.42.19-.01.38-.03.57-.05.19-.33.52-.58.88-.75ZM39.71,42.15c-.84-.41-1.62-.95-2.46-1.35.13-.37.31-.72.51-1.06.02.02.05.03.07.05,0,.02.02.05.03.07.15.18.36.29.55.42.21.15.42.3.62.46.39.3.76.61,1.13.92.6.5,1.21.98,1.84,1.45-.79-.25-1.55-.59-2.3-.96Z"/>
          <path class="cls-3" d="M17.93,36.44c-2.02-5.19-3.98-10.41-6.35-15.45-1.17-2.49-2.34-5-3.73-7.37-.55-.94-1.21-1.76-1.87-2.62-.64-.82-1.33-1.75-1.49-2.8-.08-.52.03-1.06.5-1.36.39-.25.91-.29,1.36-.24,1.19.13,2.21.91,3.06,1.7.93.86,1.8,1.8,2.55,2.81.79,1.08,1.46,2.24,2.06,3.43,1.22,2.41,2.25,4.9,3.51,7.29.65,1.23,1.32,2.45,2,3.66.65,1.15,1.27,2.32,2.01,3.41.36.53.75,1.04,1.18,1.52-.18.23-.36.45-.54.68-.61.78-.88,1.65-.89,2.63-.02,1.37.11,2.75.22,4.11.12,1.47.28,2.93.47,4.39.19,1.4.43,2.8.77,4.17.2.83.41,1.7.72,2.52-2.51-3.8-3.89-8.27-5.53-12.49Z"/>
          <path class="cls-2" d="M20.02,39.94c-.49-1.87-6.7-17.99-8.52-21.34-.46-.85-.92-1.7-1.4-2.53-.5-.86-1.06-1.68-1.63-2.5-.57-.83-1.15-1.65-1.69-2.51-.26-.41-.51-.82-.71-1.27-.37-.84-.72-1.77-.76-2.69,0-.13,0-.27.02-.41-.12.04-.24.09-.35.16-.47.3-.58.83-.5,1.36.16,1.05.86,1.98,1.49,2.8.66.85,1.32,1.68,1.87,2.62,1.39,2.37,2.56,4.88,3.73,7.37,2.37,5.04,4.33,10.26,6.35,15.45,1.39,3.56,2.58,7.3,4.43,10.67-.98-2.31-1.7-4.73-2.34-7.17Z"/>
          <path class="cls-3" d="M40.6,16.4c-.69.37-1.35.79-2.03,1.17-.89.49-1.88.76-2.85,1.05-1.21.37-2.41.74-3.32,1.66-.43.44-.81.94-1.23,1.39-.49.53-1,1.05-1.51,1.56-1,1.03-2.01,2.06-2.95,3.14-.94,1.08-1.85,2.19-2.76,3.3-.46.56-.92,1.11-1.37,1.67-.3.37-.57.77-.71,1.22-.32,1.02-.13,2.22-.07,3.26.16,2.79.42,5.59.92,8.34.24,1.3.54,2.58.92,3.85.2.65.4,1.29.72,1.9.28.53.57,1.02.78,1.57.99,1.12,1.93,2.28,3,3.32.61.59,1.25,1.13,1.97,1.58.72.45,1.45.87,2.17,1.31,2.59,1.56,5.14,3.2,7.84,4.57,1.39.71,2.82,1.32,4.24,1.98,1.42.66,2.84,1.33,4.26,2.01,2.83,1.35,5.66,2.72,8.53,3.99,2.11.94,4.22,1.85,6.3,2.85,0-.01-.01-.02-.02-.03.07.04.15.09.22.13.28.23.54.48.8.74-.06-.03-.13-.06-.19-.09,1.6,2.43,3.19,4.88,4.75,7.33,1.66,2.6,3.26,5.24,5.01,7.78,1.53,2.23,3.17,4.42,5.03,6.4,1.47-.16,2.92-.51,4.31-1.03,1.93-.73,3.74-1.78,5.37-3.06,1.65-1.3,3.12-2.83,4.38-4.51,1.19-1.58,2.19-3.3,2.99-5.12-.01,0-.02-.02-.03-.03-2.18-2.04-4.42-4.02-6.5-6.17-2.24-2.32-4.58-4.53-6.96-6.72-2.18-2-4.24-4.1-6.55-5.94-.06.25-.13.5-.22.75.05-.39.05-.79.02-1.18,0-.02,0-.03,0-.05,0-.13-.02-.26-.04-.39.02-.7-.05-1.4-.23-2.08-.33-1.3-.99-2.51-1.75-3.6-1.39-1.98-3.18-3.66-5-5.24-2.63-2.28-5.43-4.37-8.39-6.21-2.94-1.83-6.03-3.4-9.26-4.67-1.45-.57-2.94-1.04-4.38-1.64-1.14-.47-2.29-1.04-3.23-1.86-.15.12-.3.22-.44.32-.74.52-1.52.86-2.41,1.05-.46.1-.93.19-1.39.22-.16.01-.51.01-.76.1-.15.34-.35.66-.54.98.03.02.05.03.08.05.08.05.15.11.22.18.02.01.03.03.05.04.32.17.63.46.88.65.42.32.82.66,1.23,1,.8.67,1.62,1.3,2.45,1.92.87.65,1.76,1.29,2.51,2.08.54.56.99,1.2,1.5,1.79.08.21.17.43.24.65-.68-.64-1.28-1.36-1.95-2.02-.79-.78-1.73-1.42-2.62-2.07-.04-.03-.07-.06-.11-.08-.02.1-.09.19-.19.16-.95-.23-1.89-.55-2.77-.98-.83-.41-1.7-.87-2.4-1.49-.01.06-.03.13-.04.19-.14.87.55,1.38,1.1,1.93.7.7,1.41,1.39,2.13,2.07,2.5,2.33,4.95,4.75,7.93,6.46,2.73,1.57,5.89,1.57,8.89,2.25,4.42,1,9.4,3.27,11.77,7.29.32.67.56,1.38.64,2.12-.49-1.2-1.16-2.32-2.01-3.3-1.12-1.3-2.52-2.34-4.01-3.19-2.66-1.5-5.64-2.36-8.64-2.82-1.52-.23-3.05-.41-4.52-.86-1.56-.48-2.95-1.33-4.27-2.28-1.38-.99-2.67-2.09-3.91-3.24-1.3-1.19-2.6-2.39-3.84-3.64-.5-.51-1.16-1-1.49-1.65-.27-.53-.21-1.14-.03-1.68.34-1.06,1.07-1.93,1.5-2.95.75.08,1.53-.08,2.25-.28,1-.28,1.97-.68,2.8-1.32.6-.46,1.4-1.19,1.48-2.01,0-.01,0-.03,0-.04,0-.01,0-.02,0-.03,0-.01,0-.02,0-.03,0-.05,0-.1,0-.15-.02-.26-.11-.47-.25-.64,0,.02,0,.04,0,.06-.26-.38-.7-.67-1.11-.74-.4-.06-.83.11-1.22.27-1.47.37-2.99.31-4.49.2-.68-.05-1.65-.33-2.25.13-.5.39-.7,1.18-.96,1.74-.4.86-.82,1.7-1.22,2.56-.39.84-.73,1.69-1.11,2.54-.37.82-.77,1.63-1.09,2.47-.26.69-.41,1.34-.1,2.04.3.68.79,1.3,1.24,1.88.58.77,1.21,1.5,1.84,2.23.92,1.07,1.82,2.15,2.69,3.26.64.32,1.08.95,1.45,1.54.45.73.84,1.49,1.23,2.24.41.78.82,1.62,1.44,2.26.28.29.61.46.94.67.21.13.48.29.57.54.02.07,0,.17-.09.17-1.63-.09-2.54-1.56-3.2-2.87-.4-.8-.73-1.62-1.14-2.4-.51-.65-1.05-1.28-1.57-1.91-.67-.82-1.34-1.65-2.04-2.45-.77-.89-1.56-1.77-2.29-2.7-.87-1.11-1.94-2.37-1.58-3.88.2-.87.61-1.7.98-2.51.41-.91.78-1.83,1.19-2.74.43-.94.89-1.86,1.33-2.79.32-.67.55-1.47,1.03-2.05.44-.54,1.06-.65,1.72-.59.33.03.66.05.99.08,0,0,.01-.01.02-.02,2.03-1.08,4.25-1.83,6.1-3.22.63-.47,1.22-1.01,1.71-1.62.42-.53.83-1.18.81-1.88-.02-.64-.42-1.18-1.07-1.28-.6-.09-1.24.11-1.81.31-1.68.58-3.34,1.15-5.06,1.61-.96.25-1.92.49-2.89.69-1,.21-2.03.4-2.98.82-.84.37-1.26,1.12-1.61,1.93-.37.85-.75,1.7-1.13,2.55-.85,1.9-1.56,3.87-2.46,5.75-.75,1.56-1.7,3.05-2.17,4.73-.23.81-.26,1.54-.02,2.36.24.83.64,1.61.94,2.41.31.83.63,1.65.95,2.47.42.86.84,1.73,1.27,2.58.15.29.3.57.53.81.23.24.49.44.74.67.52.48,1,.98,1.56,1.41.09.07.02.31-.1.24-.62-.36-1.17-.81-1.75-1.24-.5-.37-1-.68-1.32-1.25-.75-1.34-1.19-2.82-1.76-4.23-.01-.03-.01-.06,0-.09-.37-.89-.74-1.79-1.11-2.68-.31-.75-.6-1.56-.54-2.39.06-.88.37-1.75.72-2.55.37-.87.82-1.71,1.26-2.55.47-.91.89-1.83,1.28-2.77.44-1.04.85-2.09,1.29-3.13.4-.94.86-1.86,1.25-2.81.33-.8.68-1.67,1.33-2.26.31-.28.71-.48,1.12-.64.4-.46.78-.95,1.18-1.42,2.41-2.81,6.07-4.09,8.7-6.66.65-.64,1.88-1.86,1.37-2.88-.72-1.44-2.61-.48-3.61.05Z"/>
          <path class="cls-2" d="M57.15,70.25c2.11.94,4.22,1.85,6.3,2.85,0-.01-.01-.02-.02-.03.07.04.15.09.22.13.28.23.54.48.8.74-.06-.03-.13-.06-.19-.09,1.6,2.43,3.19,4.88,4.75,7.33,1.66,2.6,3.26,5.24,5.01,7.78,1.53,2.23,3.17,4.42,5.03,6.4.37-.04.74-.09,1.1-.16-.52-.61-1.03-1.23-1.54-1.84-1.65-1.99-3.16-4.06-4.63-6.17-1.5-2.15-2.95-4.32-4.4-6.5-1.28-1.92-2.26-4.01-3.48-5.96-.6-.97-1.26-1.92-2.05-2.75-.91-.95-2.16-1.46-3.36-1.92-1.17-.46-2.31-1-3.48-1.47-1.18-.48-2.38-.94-3.58-1.38-2.44-.91-4.88-1.81-7.29-2.79-2.36-.96-4.7-1.98-7.03-3.01-1.1-.48-2.2-.95-3.31-1.42,1.35.81,2.71,1.59,4.11,2.31,1.39.71,2.82,1.32,4.24,1.98,1.42.66,2.84,1.33,4.26,2.01,2.83,1.35,5.66,2.72,8.53,3.99Z"/>
          <path class="cls-2" d="M31.47,43.14c.01-.51.14-1.01.3-1.49.35-1.02.89-1.96,1.41-2.9.2-.35.4-.7.55-1.07.16-.4.3-.8.44-1.21.34-.97.69-1.95,1.2-2.84.07-.12.14-.23.22-.35,0,0-.02.01-.03.02-.5.39-.7,1.18-.96,1.74-.4.86-.82,1.7-1.22,2.56-.39.84-.73,1.69-1.11,2.54-.37.82-.77,1.63-1.09,2.47-.26.69-.41,1.34-.1,2.04.3.68.79,1.3,1.24,1.88.58.77,1.21,1.5,1.84,2.23.92,1.07,1.82,2.15,2.69,3.26.64.32,1.08.95,1.45,1.54.45.73.84,1.49,1.23,2.24.41.78.82,1.62,1.44,2.26.24.25.52.41.81.59-.07-.08-.15-.16-.22-.24-.36-.43-.5-1.07-.6-1.61-.12-.63-.19-1.28-.44-1.87-.28-.66-.7-1.27-1.15-1.83-.94-1.17-2.06-2.16-3.07-3.26-.39-.43-.76-.88-1.16-1.3-.4-.42-.81-.83-1.21-1.25-.8-.83-1.64-1.73-2.14-2.78-.2-.43-.32-.88-.31-1.36Z"/>
          <path class="cls-2" d="M27.81,49.27c-.22-.6-.45-1.2-.7-1.79-.22-.52-.44-1.03-.64-1.55-.2-.52-.37-1.06-.45-1.61-.08-.51-.06-1.01.04-1.52.4-2.08,1.84-3.77,2.77-5.62.61-1.22,1.15-2.47,1.67-3.74.27-.65.53-1.3.81-1.94.27-.63.53-1.28.86-1.88.48-.89,1.17-1.59,2-2.13-.52.13-1.03.28-1.51.5-.84.37-1.26,1.12-1.61,1.93-.37.85-.75,1.7-1.13,2.55-.85,1.9-1.56,3.87-2.46,5.75-.75,1.56-1.7,3.05-2.17,4.73-.23.81-.26,1.54-.02,2.36.24.83.64,1.61.94,2.41.31.83.63,1.65.95,2.47.42.86.84,1.73,1.27,2.58.15.29.3.57.53.81.23.24.49.44.74.67.37.34.72.69,1.1,1.03-.42-.87-1.02-1.64-1.51-2.47-.64-1.11-1.06-2.34-1.5-3.54Z"/>
          <path class="cls-2" d="M23.68,46.18c-.82-2.88-1.33-5.9-1.47-8.9-.06-1.23.05-2.47.38-3.66.3-1.08.78-2.11,1.37-3.06.63-1.03,1.38-1.99,2.14-2.93.42-.53.86-1.04,1.28-1.57.44-.57.86-1.15,1.28-1.74.02-.03.04-.06.07-.09-.68.71-1.36,1.43-2.01,2.17-.94,1.08-1.85,2.19-2.76,3.3-.46.56-.92,1.11-1.37,1.67-.3.37-.57.77-.71,1.22-.32,1.02-.13,2.22-.07,3.26.16,2.79.42,5.59.92,8.34.24,1.3.54,2.58.92,3.85.2.65.4,1.29.72,1.9.28.53.57,1.02.78,1.57.51.58,1.01,1.18,1.53,1.76-1.32-2.2-2.29-4.6-2.99-7.06Z"/>
          <path class="cls-1" d="M22.67,44.55c-.32-1.78-.46-3.6-.56-5.4-.05-.91-.08-1.82-.11-2.74-.02-.83-.15-1.64-.18-2.47-.06-1.42.47-2.75,1.11-3.99-.92-1.02-1.62-2.2-2.29-3.39-.7-1.23-1.39-2.47-2.07-3.71-.69-1.28-1.36-2.57-1.99-3.88-.59-1.24-1.14-2.5-1.73-3.74-.58-1.2-1.19-2.39-1.91-3.51-.73-1.13-1.57-2.15-2.51-3.11-.86-.88-1.79-1.77-2.95-2.23-.12-.05-.25-.09-.38-.13-.57.16-1.01.63-.97,1.32.05.77.64,1.43,1.14,1.97.54.56,1.12,1.07,1.62,1.67.67.82,1.31,1.67,1.91,2.54,2.49,3.58,4.39,7.48,6.19,11.44,1.63,3.59,2.98,7.3,3.86,11.15.45,1.98.74,3.97,1,5.98.24,1.86.64,3.71,1.26,5.48.21.61.45,1.2.72,1.77-.4-1.67-.84-3.34-1.15-5.03Z"/>
          <path class="cls-1" d="M44.01,15.32c-.36-.28-.79-.34-1.22-.3.13.18.22.4.25.63.09.65-.19,1.26-.6,1.75-.47.57-1.09,1.01-1.71,1.41-.66.42-1.35.79-2.04,1.16-.68.37-1.35.76-2.02,1.13-.86.47-1.72.94-2.55,1.46-.84.52-1.65,1.07-2.4,1.71-.72.62-1.31,1.38-1.84,2.16-.52.77-.99,1.58-1.48,2.38-.52.84-1.04,1.68-1.54,2.53-1,1.68-1.94,3.41-2.66,5.23-.61,1.56-.87,3.2-.78,4.87.09,1.63.49,3.25,1.1,4.76.73,1.83,1.37,3.72,2.27,5.47.22.42.45.83.76,1.2.3.35.63.67.99.96.57.47,1.19.88,1.81,1.29-.31-.49-.66-.94-1.02-1.4-.48-.61-.98-1.21-1.43-1.84-.46-.66-.83-1.35-1.14-2.09-.31-.75-.6-1.5-.88-2.26-.24-.67-.5-1.35-.63-2.06-.19-1.04-.04-2.05.28-3.05.18-.55.38-1.09.57-1.63.24-.68.48-1.36.77-2.02.62-1.41,1.37-2.75,2.12-4.09.37-.66.74-1.32,1.09-1.99.3-.56.52-1.14.75-1.72.24-.59.49-1.19.82-1.74.29-.48.65-.95,1.15-1.22.56-.3,1.21-.37,1.83-.38.67-.01,1.34.03,2.01,0,.8-.03,1.59-.1,2.39-.16.63-.05,1.26-.07,1.89-.16.48-.06,1.05-.15,1.51.03.4.16.56.57.46.98-.11.43-.44.81-.76,1.1-.34.31-.73.57-1.15.76-1.11.5-2.35.62-3.54.81-1.13.19-2.38.44-3.23,1.28-.46.45-.78,1.04-1.05,1.62-.29.63-.52,1.28-.76,1.93-.48,1.32-1.11,2.57-1.72,3.83-.65,1.36-1.32,2.74-1.69,4.21-.32,1.28.66,2.2,1.46,3.04,1.11,1.16,2.15,2.38,3.26,3.54,1.15,1.2,2.39,2.32,3.59,3.48.58.57,1.13,1.14,1.62,1.8.24.32.46.65.7.97-.04-.21-.1-.41-.17-.61-.37-1.08-1-2.08-1.69-2.99-.71-.95-1.52-1.81-2.31-2.69-1.03-1.15-2.05-2.31-2.99-3.54-.66-.87-1.36-1.79-1.46-2.91-.08-.88.26-1.73.61-2.52.59-1.34,1.29-2.62,1.94-3.93.34-.69.67-1.37.98-2.07.23-.52.4-1.08.74-1.54.31-.41.73-.64,1.23-.68.67-.06,1.37.11,2.01.3.57.17,1.14.38,1.73.45.48.05,1,.07,1.44.29.31.16.5.51.51.85.01.3-.13.57-.33.78-.52.54-1.33.79-2.03.97-.64.17-1.31.31-1.98.33-.22,0-.43-.02-.65-.04-.13,0-.32-.04-.43.04-.13.1-.18.33-.23.48-.12.34-.24.69-.35,1.03-.23.7-.44,1.41-.66,2.11-.22.7-.43,1.42-.72,2.11-.18.42-.44.82-.57,1.26-.13.42.04.78.31,1.1.94,1.13,2.13,2.04,3.23,3.01,1.13,1,2.18,2.1,3.23,3.17.11.11.22.23.33.35,1.01.76,2.05,1.47,3.11,2.16.52.34,1.03.68,1.57.97.53.29,1.08.54,1.65.76,1.12.44,2.28.76,3.45,1.06,1.16.3,2.33.59,3.48.95,1.21.38,2.38.86,3.52,1.41,2.39,1.15,4.62,2.64,6.63,4.37.51.44,1,.88,1.45,1.39.07.07.13.15.19.23,1.47,1.46,2.71,3.15,3.97,4.79,1.77,2.29,3.7,4.47,5.58,6.67,1.93,2.26,3.83,4.53,5.77,6.78,1.93,2.24,3.93,4.43,5.88,6.65.37.42.73.85,1.09,1.29,1.65-1.3,3.12-2.83,4.38-4.51,1.26-1.68,2.32-3.52,3.14-5.46.03-.07.05-.14.08-.2-.27-.25-.54-.5-.8-.75-1.2-1.16-2.45-2.26-3.66-3.41-1.2-1.13-2.32-2.34-3.48-3.51-1.18-1.19-2.38-2.36-3.62-3.49-1.18-1.08-2.37-2.14-3.54-3.24-1.13-1.06-2.27-2.1-3.47-3.08-.52-.43-1.06-.83-1.62-1.2.76-4.31-3.03-8.35-6.01-11.03-5.06-4.57-10.8-8.44-17.07-11.14-1.69-.73-3.42-1.32-5.14-1.96-1.34-.51-2.78-1.09-3.92-2.01.79-.69,1.51-1.61,1.27-2.64-.19-.81-.9-1.31-1.68-1.47-.31.03-.62.07-.92.12,0,0,0,0,0,.01-.22.05-.43.11-.64.16-.77.19-1.56.21-2.35.2-.29,0-.57-.01-.86-.02,1.68-.77,3.41-1.5,4.93-2.56,1.16-.81,2.42-1.9,2.93-3.26.44-1.16.07-2.75-1.38-2.82-.66-.03-1.31.18-1.93.4-.84.3-1.67.61-2.53.88-2.09.64-4.21,1.1-6.34,1.6-.25.06-.52.12-.8.19.75-.82,1.48-1.63,2.37-2.32,1.17-.91,2.4-1.74,3.66-2.51,1.02-.63,2-1.34,2.89-2.13.92-.82,2.09-1.96,2.13-3.29.02-.6-.27-1.13-.74-1.49ZM39.71,42.15c-.84-.41-1.62-.95-2.46-1.35.13-.37.31-.72.51-1.06.02.02.05.03.07.05,0,.02.02.05.03.07.15.18.36.29.55.42.21.15.42.3.62.46.39.3.76.61,1.13.92.6.5,1.21.98,1.84,1.45-.79-.25-1.55-.59-2.3-.96Z"/>
          <path class="cls-1" d="M48.33,52.79c1.18.59,2.43,1.05,3.72,1.34.71.16,1.44.26,2.16.4.74.14,1.48.3,2.21.47,2.85.68,5.68,1.65,8.18,3.21,2.35,1.47,4.29,3.47,5.69,5.84-.27-1.09-.84-2.09-1.46-3.01-.68-1-1.46-1.93-2.31-2.79-.87-.88-1.82-1.65-2.89-2.28-1.35-.79-2.82-1.36-4.31-1.81-2.95-.9-6-1.39-8.98-2.19-1.44-.39-2.87-.86-4.2-1.54-1.26-.65-2.48-1.39-3.64-2.21-.91-.64-1.79-1.31-2.64-2.04.57.6,1.14,1.18,1.74,1.74,2.02,1.9,4.24,3.62,6.73,4.86Z"/>
          <path class="cls-1" d="M55.92,45.66c2.31,1.12,4.58,2.33,6.71,3.77,2.13,1.44,4.2,3.08,6.07,4.84,1.85,1.74,3.58,3.76,4.55,6.14.45,1.1.58,2.2.68,3.37.03.36.04.69.26.98.35.46.8.86,1.2,1.27,4.08,4.26,8.18,8.51,12.17,12.85,2.1,2.28,4.16,4.6,6.18,6.95.98-1.43,1.81-2.95,2.49-4.54.03-.07.05-.14.08-.2-.27-.25-.54-.5-.8-.75-1.2-1.16-2.45-2.26-3.66-3.41-1.2-1.13-2.32-2.34-3.48-3.51-1.18-1.19-2.38-2.36-3.62-3.49-1.18-1.08-2.37-2.14-3.54-3.24-1.13-1.06-2.27-2.1-3.47-3.08-.52-.43-1.06-.83-1.62-1.2.76-4.31-3.03-8.35-6.01-11.03-5.06-4.57-10.8-8.44-17.07-11.14-1.69-.73-3.42-1.32-5.14-1.96-1.34-.51-2.78-1.09-3.92-2.01.04-.03.07-.06.1-.09-.1-.06-.2-.12-.29-.17-.88.63-1.87,1.14-2.84,1.59.45.34.9.68,1.36,1,4.22,2.91,9,4.84,13.59,7.07Z"/>
          <path class="cls-2" d="M45.02,44.83c.07.06.14.11.21.17-.41-.66-.87-1.3-1.41-1.87-.59-.62-1.25-1.18-1.91-1.72-.74-.61-1.5-1.18-2.29-1.72-.45-.25-.88-.51-1.29-.82-.07.13-.14.26-.2.4.59.41,1.13.91,1.67,1.37.85.74,1.76,1.42,2.64,2.12.86.68,1.71,1.38,2.57,2.07Z"/>
        </g>
        <g>
          <path class="cls-8" d="M62.14,73.84c-.08-.08-.24-.03-.32.02-.1.07-.16.16-.15.29,0,.16.06.36.18.5.06.2.13.39.23.57.16.29.4.57.73.67.19.06.42-.12.4-.32-.03-.34-.2-.66-.38-.94-.19-.29-.43-.56-.68-.79Z"/>
          <path class="cls-7" d="M71.97,66.34c-.17-.32-.47-.5-.8-.6-.31-.1-.64-.14-.91-.33-.02-.01-.03-.02-.05-.03,0-.01,0-.02-.01-.03-.17-.42-.53-.7-.91-.94-.42-.27-.85-.5-1.24-.82-.49-.4-.93-.86-1.39-1.29-.95-.89-2.09-1.55-3.21-2.21-1.19-.7-2.41-1.35-3.67-1.94-1.38-.64-2.79-1.17-4.27-1.54-1.51-.38-3.05-.64-4.57-.97-.04,0-.08,0-.12,0-.02-.1-.04-.2-.07-.29-.04-.12-.23-.04-.24.07,0,0,0,0,0,0-.19.86-.05,1.8-.03,2.67.02.88.01,1.77-.15,2.64-.15.78-.45,1.56-.49,2.36-.02.45,0,.92.08,1.36.08.43.23.99.73,1.08.12.02.28-.09.31-.2.22-.71-.08-1.39-.17-2.09-.1-.75-.05-1.55.15-2.29.1-.37.24-.73.38-1.09,0,0,0,0,0,0,.25.07.54-.07.72-.25.24-.24.31-.58.4-.89.08-.29.29-.74.68-.57.3.13.41.58.55.84.14.28.36.58.71.61.47.03.77-.49,1.24-.35.46.13.77.64.97,1.04.17.82.28,1.65.4,2.48.14.92.24,1.85.31,2.78.03.44.09.87.23,1.29.16.43.37.85.55,1.28.36.83.78,1.62,1.14,2.44.35.78.65,1.59,1.32,2.16.11.1.32.02.41-.08.77-.82-.15-2.02-.63-2.74-.32-.49-.57-.94-.73-1.5-.03-.24-.07-.49-.09-.73-.07-.58-.13-1.19-.05-1.77.08-.56.33-1.09.67-1.54.14-.18.31-.37.51-.5,0,.08,0,.16,0,.23-.02.53-.09,1.06-.12,1.59-.04.64-.06,1.29.02,1.93.08.63.27,1.3.81,1.69.13.1.37,0,.45-.13.36-.66.21-1.49.12-2.2-.06-.45-.11-.91-.11-1.37,0-.45,0-1,.19-1.42.21.31.28.72.28,1.1,0,.32-.04.64-.07.96-.02.18-.03.36-.03.54.04.26.07.53.11.78.17,1.09.56,2.11.95,3.14.4,1.08.65,2.2,1.03,3.28.24.69.57,1.36.94,1.99.21.35.43.7.71,1,.21.23.46.47.78.53.16.03.31-.08.37-.23.24-.63-.04-1.31-.25-1.9-.27-.76-.46-1.6-.48-2.41-.02-.8.22-1.57.35-2.35.1-.6.07-1.18.05-1.78-.01-.31-.02-.63.03-.95.01-.11.03-.23.07-.34.44.94.23,2.07.39,3.07.06.38.16.87.41,1.18.27.34.77.3,1.06-.02.28-.3.25-.78.22-1.16-.04-.45-.08-.89-.11-1.34-.03-.51-.02-1.01.27-1.46.15-.24.36-.44.56-.65,0,0,0,0,.01,0,0,.08,0,.15,0,.22-.02.36-.02.71,0,1.07,0,.04,0,.08-.01.12-.03.45,0,.9.02,1.35.04.88,0,1.73-.08,2.61-.07.78-.11,1.57-.06,2.36.05.88.21,1.74.62,2.53.08.16.34-.01.35-.14.15-1.66.01-3.31-.07-4.97-.04-.86-.02-1.73-.04-2.59-.02-.67-.06-1.34-.05-2.01,0-.22.01-.43.03-.65.11-.07.19-.17.29-.25.12-.1.25-.11.4-.09.23.03.43.07.66.05.19-.02.39-.24.3-.43Z"/>
          <path class="cls-6" d="M59.92,71.38c-.17-.45-.32-.91-.44-1.38-.13-.51-.35-.99-.6-1.45-.47-.88-1.04-1.73-1.31-2.7-.13-.46-.15-.93-.19-1.4-.04-.47-.06-.93-.12-1.4-.07-.6-.21-1.18-.46-1.71.07.47.14.94.21,1.41.14.92.24,1.85.31,2.78.03.44.09.87.23,1.29.16.43.37.85.55,1.28.36.83.78,1.62,1.14,2.44.33.74.62,1.5,1.22,2.06-.21-.4-.4-.8-.56-1.23Z"/>
          <path class="cls-6" d="M61.38,69.29c.07.05.18.05.27.01-.18-.18-.33-.39-.44-.62-.41-.82-.51-1.79-.53-2.7-.02-.62,0-1.25.06-1.87-.03.06-.05.12-.08.18-.03.46-.08.92-.11,1.38-.04.64-.06,1.29.02,1.93.08.63.27,1.3.81,1.69Z"/>
          <path class="cls-6" d="M66.01,76.92c-.34-.51-.64-1.04-.95-1.57-.39-.68-.57-1.44-.75-2.2-.25-1.04-.75-2.01-1.04-3.04-.08-.17-.15-.34-.22-.51-.3-.77-.58-1.61-.55-2.45,0-.27.05-.54.07-.8.02-.27,0-.52-.06-.78-.06-.25-.16-.5-.26-.74.02.14.03.29.03.43,0,.32-.04.64-.07.96-.02.18-.03.36-.03.54.04.26.07.53.11.78.17,1.09.56,2.11.95,3.14.4,1.08.65,2.2,1.03,3.28.24.69.57,1.36.94,1.99.21.35.43.7.71,1,.1.11.22.23.35.33-.09-.12-.18-.25-.27-.38Z"/>
          <path class="cls-6" d="M67.58,71.71c-.06-.74.02-1.48.03-2.22,0-.8-.09-1.62-.58-2.27-.05.2-.08.41-.08.62.28.87.13,1.87.28,2.77.06.35.15.79.36,1.1Z"/>
          <path class="cls-4" d="M53.24,56.96c.77.29,1.58.44,2.37.7,1.05.34,2.08.77,3.08,1.24.98.46,1.95.94,2.86,1.52.45.29.9.6,1.35.91.43.29.88.54,1.3.83.75.52,1.39,1.18,2.09,1.76.36.31.75.59,1.16.83.38.22.79.4,1.2.56,1.08.42,2.25.76,3.26,1.34.08-.09.13-.21.07-.32-.17-.32-.47-.5-.8-.6-.31-.1-.64-.14-.91-.33-.02-.01-.03-.02-.05-.03,0-.01,0-.02-.01-.03-.17-.42-.53-.7-.91-.94-.42-.27-.85-.5-1.24-.82-.49-.4-.93-.86-1.39-1.29-.95-.89-2.09-1.55-3.21-2.21-1.19-.7-2.41-1.35-3.67-1.94-1.38-.64-2.79-1.17-4.27-1.54-1.51-.38-3.05-.64-4.57-.97-.04,0-.08,0-.12,0-.02-.1-.04-.2-.07-.29-.04-.12-.23-.04-.24.07,0,0,0,0,0,0-.08.38-.1.78-.1,1.19.74-.58,2.03.05,2.8.34Z"/>
          <path class="cls-8" d="M69.61,79.17c-.13-.22-.5-.02-.55.16-.29.88-.05,1.86.05,2.76,0,.06.04.09.09.1,0,.54.02,1.08.25,1.58.1.23.47,0,.52-.15.3-.78.13-1.62.01-2.42-.1-.67,0-1.43-.37-2.03Z"/>
        </g>
      </g>
    </g>
  </g>
</svg>