<?xml version="1.0" encoding="UTF-8"?>
<svg xmlns="http://www.w3.org/2000/svg" xmlns:xlink="http://www.w3.org/1999/xlink" viewBox="0 0 100 100">
  <defs>
    <style>
      .cls-1, .cls-2, .cls-3, .cls-4, .cls-5, .cls-6 {
        mix-blend-mode: multiply;
      }

      .cls-1, .cls-7, .cls-4, .cls-8 {
        fill: #f69a93;
      }

      .cls-2 {
        fill: url(#radial-gradient);
      }

      .cls-7, .cls-9, .cls-10, .cls-11, .cls-12, .cls-13 {
        mix-blend-mode: screen;
      }

      .cls-9 {
        fill: url(#radial-gradient-5);
      }

      .cls-3 {
        opacity: .54;
      }

      .cls-3, .cls-14 {
        fill: #d46968;
      }

      .cls-15 {
        fill: red;
      }

      .cls-16 {
        isolation: isolate;
      }

      .cls-17, .cls-6 {
        fill: #eb7c60;
      }

      .cls-4 {
        opacity: .52;
      }

      .cls-11 {
        fill: url(#radial-gradient-3);
        opacity: .4;
      }

      .cls-12 {
        fill: url(#radial-gradient-2);
      }

      .cls-13 {
        fill: url(#radial-gradient-4);
        opacity: .6;
      }
    </style>
    <radialGradient id="radial-gradient" cx="36.91" cy="31.56" fx="36.91" fy="31.56" r="17.77" gradientTransform="translate(51.94 -14.62) rotate(67.5)" gradientUnits="userSpaceOnUse">
      <stop offset="0" stop-color="#d10007"/>
      <stop offset=".09" stop-color="#d30c13"/>
      <stop offset=".25" stop-color="#d92d33"/>
      <stop offset=".46" stop-color="#e26367"/>
      <stop offset=".72" stop-color="#f0adaf"/>
      <stop offset=".98" stop-color="#fff"/>
    </radialGradient>
    <radialGradient id="radial-gradient-2" cx="35" cy="32.13" fx="35" fy="32.13" r="9.54" gradientUnits="userSpaceOnUse">
      <stop offset=".86" stop-color="#000"/>
      <stop offset=".87" stop-color="#0d171c"/>
      <stop offset=".91" stop-color="#315564"/>
      <stop offset=".95" stop-color="#61a8c5"/>
      <stop offset=".97" stop-color="#87c6e1"/>
      <stop offset="1" stop-color="#afe7ff"/>
    </radialGradient>
    <radialGradient id="radial-gradient-3" cx="35" cy="32.13" fx="35" fy="32.13" r="20.43" gradientTransform="translate(64.37 -5.22) rotate(85.63)" gradientUnits="userSpaceOnUse">
      <stop offset=".75" stop-color="#000"/>
      <stop offset=".79" stop-color="#0d171c"/>
      <stop offset=".86" stop-color="#315564"/>
      <stop offset=".95" stop-color="#61a8c5"/>
      <stop offset=".97" stop-color="#87c6e1"/>
      <stop offset="1" stop-color="#afe7ff"/>
    </radialGradient>
    <radialGradient id="radial-gradient-4" cy="32.13" fy="32.13" r="14.38" gradientTransform="matrix(1,0,0,1,0,0)" xlink:href="#radial-gradient-3"/>
    <radialGradient id="radial-gradient-5" cx="35" cy="32.13" fx="35" fy="32.13" r="14.13" gradientUnits="userSpaceOnUse">
      <stop offset="0" stop-color="#df0000"/>
      <stop offset=".05" stop-color="#d70000"/>
      <stop offset=".12" stop-color="#c20000"/>
      <stop offset=".2" stop-color="#a00000"/>
      <stop offset=".3" stop-color="#710000"/>
      <stop offset=".41" stop-color="#350000"/>
      <stop offset=".5" stop-color="#000"/>
    </radialGradient>
  </defs>
  <g class="cls-16">
    <g id="Layer_2" data-name="Layer 2">
      <g>
        <g>
          <path class="cls-17" d="M46.73,60.61s6.45,6.83,4.96,24.1c-.15,1.72-.38,6.53.04,13.67,0,0,4.75-1.19,6.88-3.74,0,0-2.67-7.52,1.16-14.89,3.83-7.37,14.74-5.39,14.74-5.39,0,0-12.19-21.55-27.79-13.75Z"/>
          <path class="cls-6" d="M55.18,97.11c.68-.38,2.41-1.14,3.44-2.47,0,0-2.47-8.51,1.16-14.89,4.1-7.22,14.74-5.39,14.74-5.39,0,0-12.19-21.55-27.79-13.75,0,0,2.79,2.97,4.27,9.95.96-.68,2.23-1.07,3.34-.5,1.76.91.91,11.2.72,12.92"/>
          <path class="cls-14" d="M92.52,58.34s5.58,12.44-13.47,17.72c-14.32,3.97-27.22-14.89-27.22-14.89,0,0,22.26-10.21,40.69-2.84Z"/>
          <path class="cls-3" d="M92.52,58.34c-18.43-7.37-40.69,2.84-40.69,2.84,0,0,12.9,18.85,27.22,14.89,19.05-5.28,13.47-17.72,13.47-17.72ZM90.87,65.86c-.22.54-.49,1.07-.81,1.56-.67,1.04-1.57,1.91-2.57,2.63-1.03.73-2.17,1.28-3.36,1.7-1.2.43-2.45.71-3.71.88-1.25.17-2.52.2-3.78.12-1.52-.1-3.03-.34-4.49-.77-1.43-.42-2.83-1.03-4.04-1.92-.5-.37-.95-.82-1.39-1.26-.49-.48-.95-.99-1.36-1.54-.69-.95-1.24-2.13-.84-3.32.23-.69.73-1.22,1.4-1.51.75-.32,1.59-.37,2.4-.33.99.05,1.98.23,2.95.46,1.01.24,2.01.54,3,.85.86.28,1.72.57,2.58.84.32.1.65.2.97.29.41.11.84.17,1.25.25,1.27.22,2.55.38,3.84.44,1,.05,2.02.04,3.02-.08.46-.22.92-.44,1.37-.66.57-.28,1.09-.64,1.65-.94.26-.14.53-.27.82-.32.25-.05.52,0,.76.09.42.18.62.59.64,1.03.02.51-.13,1.03-.32,1.5Z"/>
        </g>
        <g>
          <g class="cls-5">
            <g>
              <path class="cls-8" d="M74.8,75.55c-2.3,0-4.51-.44-6.44-1.34-9.29-4.36-14.28-11.83-14.33-11.91l.24-.16c.05.07,5,7.48,14.21,11.81,4.89,2.3,11.7,1.54,16.94-1.87,4.54-2.96,7.08-7.41,6.96-12.19h.28c.12,4.88-2.47,9.41-7.09,12.43-3.26,2.13-7.13,3.24-10.77,3.24Z"/>
              <path class="cls-8" d="M74.46,73.9c-2.19,0-4.29-.38-6.13-1.16-9.13-3.86-14.18-10.44-14.23-10.5l.23-.17c.05.07,5.06,6.58,14.12,10.41,4.91,2.08,11.72,1.26,16.96-2.04,4.27-2.69,6.72-6.47,6.91-10.65h.28c-.19,4.29-2.7,8.15-7.04,10.89-3.35,2.11-7.35,3.22-11.09,3.22Z"/>
              <path class="cls-8" d="M74.1,72.25c-2.07,0-4.04-.32-5.79-.97-8.97-3.37-14.08-9.04-14.13-9.09l.21-.19c.05.06,5.12,5.68,14.02,9.02,4.9,1.84,11.71.97,16.95-2.16,3.96-2.37,6.4-5.62,6.88-9.16l.28.04c-.49,3.63-2.98,6.95-7.02,9.36-3.45,2.06-7.58,3.15-11.41,3.15Z"/>
              <path class="cls-8" d="M73.75,70.63c-1.94,0-3.8-.26-5.47-.81-8.82-2.87-13.98-7.64-14.03-7.68l.19-.21c.05.05,5.17,4.78,13.93,7.62,4.92,1.6,11.55.74,16.87-2.2,3.71-2.04,6.17-4.8,6.93-7.75l.27.07c-.77,3.03-3.28,5.85-7.07,7.93-3.59,1.98-7.77,3.02-11.63,3.02Z"/>
              <path class="cls-8" d="M73.27,68.97c-1.79,0-3.49-.2-5.01-.62-8.67-2.36-13.88-6.24-13.93-6.27l.17-.23c.05.04,5.22,3.88,13.83,6.23,3.98,1.08,9.22.7,14.03-1.02,4.83-1.73,8.47-4.56,9.75-7.57l.26.11c-1.32,3.13-4.94,5.94-9.91,7.72-3.03,1.08-6.23,1.64-9.19,1.64Z"/>
              <path class="cls-8" d="M72.76,67.34c-1.61,0-3.13-.15-4.52-.45-4.45-.97-7.97-2.24-10.14-3.13-2.35-.97-3.67-1.72-3.69-1.73l.14-.25s1.32.75,3.66,1.72c2.16.89,5.66,2.15,10.08,3.12,3.88.84,8.85.48,13.65-1.01,4.67-1.45,8.45-3.77,10.1-6.22l.24.16c-1.71,2.54-5.45,4.84-10.25,6.33-3.13.97-6.34,1.47-9.28,1.47Z"/>
              <path class="cls-8" d="M72.05,65.71c-1.37,0-2.66-.09-3.84-.28-8.36-1.34-13.66-3.43-13.72-3.45l.11-.26c.05.02,5.32,2.1,13.66,3.44,3.7.59,8.54.23,13.27-1,4.49-1.16,8.4-2.98,10.47-4.87l.19.21c-2.1,1.91-6.06,3.76-10.59,4.93-3.27.85-6.59,1.29-9.55,1.29Z"/>
              <path class="cls-8" d="M71.11,64.1c-1.03,0-2.01-.05-2.92-.14-8.21-.83-13.55-2.03-13.61-2.05l.06-.28c.05.01,5.38,1.22,13.57,2.04,7.41.75,18.46-1.78,23.74-4.5l.13.25c-2.59,1.34-6.67,2.67-10.92,3.54-3.58.74-7.05,1.13-10.06,1.13Z"/>
              <path class="cls-8" d="M69.61,62.53c-.5,0-.98,0-1.44-.03-8.06-.3-13.44-.64-13.49-.64l.02-.28c.05,0,5.43.34,13.49.64,5.56.21,13.55-.84,23.74-3.13l.06.28c-9.37,2.1-16.89,3.17-22.37,3.17Z"/>
              <path class="cls-8" d="M54.76,61.8l-.03-.28c.05,0,5.48-.54,13.4-.76,3.46-.1,7.51-.5,11.43-.88,4.54-.45,8.83-.87,12.31-.87h0v.28h0c-3.47,0-7.75.42-12.28.87-3.93.39-7.98.79-11.45.88-7.91.22-13.33.75-13.38.76Z"/>
              <path class="cls-8" d="M54.85,61.73l-.07-.27c.05-.01,5.54-1.41,13.32-2.17l.8-.08c7.07-.69,15.86-1.55,22.94-.29l-.05.28c-7.05-1.25-15.82-.4-22.87.29l-.8.08c-7.76.76-13.22,2.14-13.27,2.16Z"/>
              <path class="cls-8" d="M54.94,61.66l-.11-.26s5.02-2.04,12.02-3.36c6.47-1.22,16.04-2.06,24.93.8l-.09.27c-8.83-2.85-18.35-2-24.79-.79-6.98,1.31-11.93,3.32-11.98,3.34Z"/>
            </g>
          </g>
          <g>
            <path class="cls-8" d="M96.12,47.43c-1.45-17.24-15.12-33.08-31.67-37.63-10.06-2.76-23.3-2.95-33.31-.37-9.27,2.39-19.64,7.15-23.77,16.91-2.35,5.56-1.6,12.18,1.63,17.24,2.82,4.42,7.35,7.56,12.53,8.44,2.67.46,5.3.3,7.98.07,1.61-.14,3.24-.22,4.86-.03.73.09,1.47.22,2.17.49.65.25,1.27.58,1.9.88.46.22.94.46,1.44.65-.23.7-.39,1.44-.41,2.18-.01.71.11,1.42.4,2.08.32.73.79,1.36,1.35,1.93,1.31,1.33,2.97,2.34,4.75,2.89,1.68.51,3.45.61,5.19.46,1.83-.16,3.62-.56,5.4-1.02,1.83-.47,3.65-.97,5.48-1.42,1.49-.37,3-.74,4.52-1.04.34.04.67.09,1,.16,2.23.42,4.29,1.36,6.43,2.07,3.52,1.16,7.38,1.55,11.05.98,1.83-.29,3.62-.84,5.23-1.77,1.58-.9,2.92-2.19,3.89-3.73,1.94-3.08,2.27-6.89,1.97-10.44Z"/>
            <path class="cls-1" d="M74.77,36.42c-.44-.18-.89-.32-1.35-.42.01-.01.02-.03.03-.04.01-.01.02-.02.03-.03,0,0,0,0,0,0,0,0,0,0,0,0,0,0,.01-.01.02-.02.03-.02.06-.04.09-.06.04-.02.11-.06.17-.07.06-.02.13-.04.2-.05.03,0,.06-.02.07-.05,0-.03,0-.05-.04-.05-.16-.01-.32.02-.45.1-.08.04-.14.09-.21.15-.02.02-.05.05-.08.09-1.97-.4-4.09-.14-5.98.44-1.26.38-2.41.95-3.52,1.66-1.19.75-2.29,1.63-3.38,2.52-1.07.87-2.13,1.78-3.29,2.53-.59.38-1.22.69-1.88.93-.71.25-1.45.42-2.18.59-2.67.63-5.26,1.64-7.57,3.14-1.1.72-2.14,1.55-3.08,2.46-.9.87-1.7,1.86-2.23,3-.13.29-.23.57-.29.88,0,.04.04.03.06,0,.27-.59.56-1.17.93-1.71.36-.52.76-1.01,1.2-1.46.88-.92,1.88-1.75,2.92-2.48,2.2-1.55,4.72-2.63,7.29-3.37,1.38-.39,2.8-.66,4.08-1.32,1.19-.61,2.24-1.48,3.28-2.31,2.1-1.65,4.21-3.37,6.69-4.44,2.15-.93,4.59-1.34,6.9-.9.01.03.05.03.09.02.18.04.36.08.53.12.29.08.58.16.87.27.06.02.15-.09.07-.12Z"/>
            <path class="cls-1" d="M22.72,45.74c-.94-.6-1.81-1.28-2.58-2.09-.78-.82-1.47-1.72-2.09-2.67-.64-.98-1.16-2.03-1.65-3.09-.54-1.16-1.02-2.35-1.38-3.58-.36-1.22-.56-2.47-.68-3.73-.12-1.26-.19-2.52-.36-3.78-.14-1.01-.34-2.02-.72-2.97-.28-.69-.68-1.46-1.35-1.85-.72-.43-1.59-.2-2.21.31-.71.59-1.2,1.45-1.5,2.32-.07.19-.13.39-.17.59-.01.06.07.04.09,0,.31-.85.75-1.72,1.37-2.38.53-.57,1.35-1.02,2.11-.59.66.37,1.05,1.12,1.32,1.8.37.93.56,1.92.7,2.9.17,1.22.24,2.45.38,3.67.14,1.21.35,2.41.71,3.57.35,1.16.82,2.29,1.33,3.38.5,1.04,1.04,2.08,1.64,3.07,1.12,1.83,2.48,3.62,4.27,4.85.21.15.43.28.66.4.06.03.18-.07.11-.11Z"/>
            <path class="cls-1" d="M25.56,50.04c-1.07.52-2.3.49-3.44.22-1.17-.27-2.3-.77-3.31-1.42-1.14-.73-2.17-1.67-3.08-2.67-.49-.53-.95-1.09-1.36-1.69-.4-.59-.73-1.22-1.02-1.87-.34-.75-.63-1.52-.96-2.27-.34-.76-.68-1.54-.86-2.36-.01-.07-.13,0-.12.05.12.77.38,1.51.66,2.23.28.71.55,1.43.83,2.14.27.67.57,1.33.95,1.95.38.63.84,1.21,1.32,1.76.93,1.07,2,2.08,3.18,2.88,1.01.69,2.18,1.2,3.37,1.48,1.28.31,2.74.39,3.91-.3.1-.06.05-.2-.07-.15Z"/>
            <path class="cls-1" d="M34.28,46.13c-.03-.12-.23-.01-.21.09.11.74.36,1.47.35,2.23-.02.75-.31,1.5-.8,2.07-.42.47-.98.76-1.59.9-.76.17-1.57.2-2.34.06-.86-.16-1.66-.53-2.43-.95-.05-.03-.15.05-.09.1,1.27,1.11,3,1.45,4.63,1.15.69-.13,1.36-.4,1.86-.91.53-.53.87-1.28.98-2.02.13-.91-.15-1.83-.36-2.71Z"/>
            <path class="cls-1" d="M10.26,33.91c-.35-.67-.72-1.32-1-2.02-.27-.67-.5-1.35-.69-2.05-.34-1.23-.57-2.54-.54-3.82.01-.65.09-1.35.45-1.92.01-.02-.02-.03-.03-.01-.83.91-.79,2.33-.68,3.48.06.64.17,1.28.32,1.9-1.33.54-1.24,2.51-.95,3.65.09.34.2.69.36,1,.04.07.19-.02.16-.09-.23-.57-.36-1.19-.41-1.81-.05-.65-.04-1.36.25-1.96.14-.28.35-.51.62-.67.19.74.44,1.46.77,2.15.18.37.37.74.58,1.1.22.38.44.77.7,1.12.04.05.12-.02.1-.07Z"/>
            <path class="cls-1" d="M13.57,43.62c-.82,0-1.52-.5-2.05-1.08-.28-.31-.53-.65-.75-1.01-.2-.32-.4-.67-.51-1.03-.02-.06-.12,0-.11.05.11.4.23.78.42,1.15.2.4.45.78.75,1.11.56.63,1.33,1.14,2.2,1.02.1-.01.19-.21.04-.21Z"/>
            <path class="cls-1" d="M19.31,15.9c-.27-.49-.84-.58-1.35-.54-.66.06-1.3.3-1.89.59-.51.26-1.02.57-1.45.96-.32.3-.61.65-.89.99-.33.42-.65.85-.92,1.31-.28.46-.46.94-.57,1.46-.1.49-.15.99-.29,1.48-.02.08.09.06.12.02.46-.74.41-1.67.79-2.44.43-.88,1.08-1.68,1.74-2.39.37-.39.79-.69,1.26-.96.53-.3,1.09-.57,1.69-.72.56-.14,1.22-.16,1.62.33.05.06.17-.02.13-.09Z"/>
            <path class="cls-1" d="M21.48,29.53c-.14-.65-.3-1.29-.49-1.93-.17-.61-.34-1.23-.62-1.81-.15-.31-.33-.61-.5-.91-.18-.3-.32-.64-.51-.93-.03-.04-.08-.05-.12-.03.15-.61.32-1.22.49-1.83.21-.75.33-1.53.39-2.3.03-.44.05-.88.05-1.32,0-.45-.04-.89-.06-1.33,0-.07-.1-.03-.11.02-.02.4-.06.81-.09,1.21-.03.41-.06.83-.1,1.24-.08.8-.19,1.59-.39,2.37-.22.81-.45,1.62-.61,2.45-.15.79-.23,1.59-.27,2.4-.04.94-.02,1.9.13,2.83.01.07.13,0,.13-.06-.09-.86-.14-1.73-.08-2.59.05-.83.19-1.65.37-2.45.02-.1.04-.19.07-.29.08.23.21.44.32.65.14.27.3.53.44.8.29.56.48,1.15.66,1.76.38,1.26.72,2.54.92,3.84.11.73.18,1.48.15,2.22,0,.11.17.05.17-.04.08-1.33-.08-2.66-.36-3.96Z"/>
            <path class="cls-1" d="M29.13,41.53c-.56-.25-1.13-.47-1.72-.61,0,0,0-.01,0-.02-.03-.08-.06-.17-.1-.25-.08-.16-.17-.32-.27-.47-.21-.3-.48-.56-.76-.78-.06-.05-.18.06-.11.12.28.22.5.5.68.8.09.15.16.3.23.45.01.03.02.05.03.08-.03,0-.07-.01-.1-.02-.81-.14-1.63-.07-2.45-.12-1.37-.07-2.69-.6-3.75-1.47-.57-.47-1.08-1.05-1.42-1.7-.03-.06-.14.02-.11.08.28.61.64,1.17,1.12,1.64.46.46,1.01.84,1.59,1.12.59.29,1.23.48,1.88.57.85.12,1.71.03,2.56.11.27.02.53.06.79.11.01.03.03.05.05.07.04.03.1,0,.14-.03.56.12,1.1.29,1.65.45.07.02.17-.09.08-.13Z"/>
            <path class="cls-1" d="M31.88,46.87c-.19-.09-.39-.13-.6-.15-.34-.04-.69,0-1.03.04-.16-.14-.32-.27-.49-.39-.82-.59-1.77-1-2.7-1.38-.52-.22-1.05-.41-1.57-.63-.06-.03-.17.09-.1.13,1.67.95,3.64,1.46,5,2.88.19.2.36.41.51.64.07.11.14.23.2.34.07.13.12.28.22.4.05.07.2,0,.19-.08-.02-.24-.15-.48-.27-.69-.12-.21-.26-.42-.41-.61-.11-.14-.24-.27-.36-.4.22,0,.44,0,.66.02.18.02.36.06.53.13.08.03.16.08.24.13.09.06.17.13.28.15.07.01.15-.05.15-.12-.02-.19-.28-.32-.44-.39Z"/>
            <path class="cls-1" d="M44,45.76c-.64-2.52-2.62-4.33-4.83-5.54-2.65-1.46-5.61-2.24-8.37-3.44-1.09-.48-2.13-1.08-3.05-1.84-.91-.75-1.64-1.65-2.33-2.61-.18-.25-.35-.5-.52-.76-.06-.09-.22.03-.17.12.94,1.71,2.21,3.18,3.82,4.26-.24.11-.47.17-.75.17-.36,0-.72-.08-1.06-.2-.64-.22-1.31-.56-1.81-1.02-.05-.04-.16.05-.11.1.52.55,1.17.96,1.89,1.2.63.21,1.49.32,2.05-.11.22.14.44.28.67.4,1.21.66,2.51,1.13,3.8,1.62,1.44.55,2.9,1.08,4.31,1.71,2.24,1,4.45,2.45,5.59,4.7.55,1.08.86,2.4.67,3.61-.15.93-.72,1.76-1.65,2.04-.86.26-1.8.1-2.65-.15-.87-.26-1.72-.64-2.5-1.12-.16-.1-.32-.21-.48-.32-.05-.03-.14.05-.09.09.67.57,1.43,1.03,2.24,1.38.86.37,1.83.62,2.77.54.91-.07,1.73-.49,2.23-1.26.67-1.04.61-2.39.32-3.55Z"/>
            <path class="cls-1" d="M32.52,12.59c-.27-.64-.67-1.22-1.21-1.66-.57-.46-1.25-.71-1.98-.77-.45-.04-.91-.01-1.35.08-.47.1-.89.28-1.32.49-.43.21-.87.41-1.22.74-.15.13-.26.3-.37.46-.1.15-.19.34-.34.45-.11-.06-.22-.11-.34-.15-.69-.25-1.45-.22-2.15-.02-.84.24-1.62.7-2.3,1.25-.63.52-1.2,1.12-1.59,1.84-.05.1.08.1.13.04.88-1.15,2.04-2.2,3.41-2.72.68-.25,1.42-.35,2.13-.14.65.19,1.2.61,1.55,1.2.34.58.49,1.25.57,1.91.09.69.1,1.38.1,2.07,0,.78.04,1.57.06,2.35.02,1.05.04,2.1.14,3.15.19,2.06.72,4.08,1.73,5.9.05.09.24-.02.2-.11-.36-.89-.72-1.78-.99-2.7-.27-.92-.45-1.87-.56-2.82-.12-1.09-.14-2.19-.17-3.29-.02-.84-.05-1.68-.06-2.52,0-1.36.01-2.87-.67-4.1-.25-.46-.62-.82-1.07-1.08.22-.12.37-.39.52-.58.25-.32.6-.52.96-.69.38-.18.78-.38,1.19-.51.42-.13.87-.19,1.31-.19.73,0,1.43.18,2.03.61.53.38.94.92,1.22,1.52.33.71.41,1.44.49,2.21.02.16.27.01.28-.09.1-.71-.08-1.48-.35-2.13Z"/>
            <path class="cls-1" d="M36.38,32.3c-.64-.49-1.28-.97-1.85-1.54-.54-.55-1.03-1.16-1.43-1.82-.93-1.57-1.31-3.41-1.71-5.16-.25-1.1-.52-2.19-.77-3.28-.02-.09-.18-.01-.16.07.23,1,.37,2.01.56,3.02.19.99.4,1.99.68,2.96.24.83.52,1.65.94,2.41.38.69.86,1.32,1.42,1.87.64.64,1.38,1.22,2.18,1.64.08.04.23-.08.14-.15Z"/>
            <path class="cls-1" d="M45.06,40.13c-.22-1.75-1.31-3.31-2.65-4.4-.78-.63-1.65-1.11-2.56-1.53-.05-.02-.15.08-.09.11.72.36,1.38.81,2.01,1.31.63.5,1.21,1.07,1.71,1.71.49.64.86,1.34,1.1,2.1.25.8.39,1.7.11,2.51-.14.41-.4.72-.76.97-.3.21-.73.42-1.08.22-.1-.06-.29.11-.18.19.59.42,1.46-.24,1.84-.67.58-.67.65-1.67.54-2.51Z"/>
            <path class="cls-1" d="M40.5,28.8c-.03-.32-.08-.64-.15-.96-.15-.64-.37-1.27-.64-1.87-.23-.52-.51-1.01-.79-1.51-.28-.52-.58-1.04-.93-1.52-.37-.51-.79-.97-1.33-1.3-.08-.86-.18-1.73-.34-2.58-.31-1.67-.81-3.36-1.83-4.75-.54-.74-1.26-1.42-2.11-1.8-.06-.03-.18.08-.11.14.67.49,1.28,1,1.78,1.67.5.66.88,1.41,1.17,2.18.61,1.6.87,3.31,1.04,5.01.05.47.09.93.13,1.4.04.44.06.88.15,1.3.03.13.23.02.24-.08.03-.73-.04-1.46-.11-2.19.77.69,1.33,1.62,1.82,2.52.57,1.04,1.12,2.08,1.43,3.23.09.34.16.69.21,1.04.04.34.01.7.08,1.03.03.13.22.03.24-.05.09-.29.06-.61.03-.91Z"/>
            <path class="cls-1" d="M43.86,18.2c-.06-.86-.16-1.73-.36-2.57-.39-1.59-1.21-3.13-2.26-4.39-1.01-1.22-2.35-2.24-3.89-2.67-1.28-.35-2.6-.14-3.86.19-.98.26-2.46.8-2.42,2.05,0,.08.12.03.13-.03.13-1.08,1.25-1.49,2.17-1.73,1.18-.3,2.42-.53,3.63-.24,1.5.37,2.82,1.34,3.81,2.5,1,1.17,1.81,2.6,2.24,4.08.26.91.37,1.84.45,2.78.08.94.11,1.9.31,2.82.03.12.22.02.22-.07-.04-.91-.11-1.82-.18-2.73Z"/>
            <path class="cls-1" d="M44.32,28.22c-.51-.58-.94-1.22-1.24-1.93-.31-.73-.52-1.51-.68-2.28-.16-.75-.27-1.52-.41-2.27-.17-.94-.4-1.88-.68-2.8-.33-1.07-.76-2.1-1.28-3.09-.03-.05-.14.01-.12.07.78,1.87,1.35,3.84,1.71,5.83.27,1.53.46,3.1,1.05,4.56.32.79.75,1.57,1.44,2.1.09.07.29-.09.21-.18Z"/>
            <path class="cls-1" d="M50.75,42.2c-.03-.6-.09-1.23-.24-1.82-.09-.35-.22-.69-.35-1.03-.04-.1-.18-.56-.35-.64.05-.78-.08-1.58-.35-2.32-.47-1.29-1.15-2.51-1.98-3.61-.45-.6-.96-1.14-1.53-1.63-.05-.04-.17.05-.12.1.89.94,1.66,2.02,2.3,3.15.33.59.62,1.19.86,1.82.24.62.44,1.26.47,1.94.04.79-.13,1.53-.42,2.26-.07.18.22.16.28.04.23-.43.38-.9.45-1.38.05.14.1.28.14.42.1.32.21.63.3.96.13.52.18,1.07.21,1.6.04.56.04,1.12-.02,1.68-.03.29-.09.59-.18.87-.09.26-.24.48-.33.74-.01.03.03.03.04.02.43-.28.62-.91.72-1.38.12-.59.13-1.19.11-1.79Z"/>
            <path class="cls-1" d="M48.42,43.21c0-.1-.14-.04-.15.03-.05.34-.14.68-.3.99-.11.2-.23.37-.37.54-.11-.68-.36-1.32-.62-1.96-.03-.08-.17,0-.15.07.22.64.4,1.32.48,1.99.01.08.02.17.02.25,0,.02,0,.03,0,.05.02.25,0,.5-.04.74-.03.16-.07.32-.14.47-.07.15-.18.26-.27.39-.05.07.03.13.1.09.29-.16.49-.52.58-.82.09-.31.1-.64.07-.96.46-.51.82-1.17.79-1.88Z"/>
            <path class="cls-1" d="M58.67,38.14c-.12-1.63-.57-3.29-1.42-4.7-.46-.75-1.07-1.41-1.82-1.88-.06-.04-.18.07-.11.12,1.28.88,2.04,2.41,2.5,3.85.47,1.47.64,3.01.49,4.55-.09.98-.23,2.07-.88,2.85-.1.12.06.2.15.1.6-.68.86-1.58.99-2.46.12-.8.16-1.61.1-2.42Z"/>
            <path class="cls-1" d="M55.09,38.74c-.43-1.07-1.06-2.05-1.55-3.08-.25-.51-.46-1.04-.66-1.57.1-.48.07-.99.02-1.46-.08-.75-.26-1.49-.44-2.22-.4-1.6-.97-3.19-1.95-4.53-.55-.76-1.22-1.41-2-1.93-.04-.03-.12.04-.08.08,1.27,1.02,2.23,2.36,2.85,3.87.31.74.55,1.51.75,2.29.19.72.37,1.45.48,2.18.07.43.12.89.1,1.34,0,.01,0,.02,0,.03,0,0,0,0,0,.01-.02.35-.09.7-.24,1.02-.07.15.17.11.22.03.08-.12.14-.24.19-.37.26.91.66,1.78,1.08,2.61.27.54.57,1.08.81,1.64-.06.04-.1.1-.14.15-.09.11-.18.22-.26.34-.17.25-.3.52-.41.81-.2.52-.31,1.12-.13,1.65.02.07.14,0,.12-.05-.13-.52.04-1.11.24-1.6.11-.26.24-.51.4-.74.07-.1.14-.2.23-.29.01-.01.02-.02.04-.04.14.35.25.71.32,1.08.11.61.03,1.17-.22,1.73-.06.15.16.11.22.03.62-.89.37-2.08,0-3.01Z"/>
            <path class="cls-1" d="M48.9,9.06c-1.88-1.46-4.48-1.7-6.76-1.31-1.19.21-2.13.89-2.94,1.75-.07.07.02.15.09.09.78-.62,1.53-1.25,2.53-1.47.57-.13,1.18-.17,1.76-.19.63-.02,1.26,0,1.88.1,1.05.16,2.07.53,2.94,1.15.76.54,1.38,1.25,1.87,2.04.57.92.96,1.93,1.32,2.94.05.15.3.02.27-.12-.45-1.89-1.41-3.79-2.97-5.01Z"/>
            <path class="cls-1" d="M54.94,9.06c.06-.1-.09-.12-.14-.04-.32.53-.65,1.05-.91,1.62-.26.57-.46,1.16-.59,1.77-.27,1.31-.08,2.64.29,3.91.1.36.23.72.35,1.07.13.34.25.7.43,1.02.07.12.27-.03.25-.14-.13-.62-.39-1.22-.57-1.83-.18-.62-.34-1.24-.43-1.87-.17-1.26.01-2.48.46-3.66.24-.63.53-1.25.85-1.84Z"/>
            <path class="cls-1" d="M58.04,27.28c-.26-.4-.58-.75-.87-1.14-.31-.41-.59-.84-.86-1.28-.55-.91-1.02-1.88-1.29-2.91-.14-.52-.26-1.1-.23-1.64,0-.07-.11-.03-.12.02-.04.51-.04.99.04,1.49.09.52.25,1.03.45,1.51.41,1,.96,1.94,1.59,2.82.32.45.66.92,1.09,1.28.08.07.25-.07.19-.16Z"/>
            <path class="cls-1" d="M59.13,34.66c-.08-.3-.16-.61-.22-.92-.13-.62-.17-1.24-.19-1.87-.02-.52-.05-1.04-.04-1.57.01-.51.04-1.03.22-1.51.04-.11-.13-.08-.16,0-.45.97-.35,2.13-.33,3.17.01.64.06,1.26.18,1.88.06.33.14.66.23.98.09.32.17.65.33.94.06.12.24-.03.23-.13-.04-.34-.16-.66-.24-.99Z"/>
            <path class="cls-1" d="M60.41,45.46c-.14.14-.29.26-.44.4-.16.14-.32.28-.49.41-.16.12-.33.22-.51.29-.07.03-.15.05-.22.05-.1,0-.2-.02-.3,0-.02,0-.04.02-.07.03.04-.17.08-.35.13-.52.2-.65.54-1.18,1.06-1.62.14-.12.04-.29-.13-.19-1.01.64-1.32,1.86-1.5,2.97-.18,1.16-.31,2.36-1.11,3.29-.78.91-1.94,1.35-3.09,1.57-.59.11-1.2.18-1.8.2-.71.03-1.42-.09-2.12-.21-1.46-.26-3.07-.65-4.48,0-.27-.49-.7-.89-1.27-1-.42-.08-.85-.03-1.25.1-.07.02-.12.15,0,.13.63-.11,1.28-.05,1.77.39.45.4.65,1,.77,1.57.04.18.06.35.09.53.02.19.03.39.08.57.03.11.21.03.23-.05.08-.35.03-.74-.02-1.09-.05-.33-.15-.66-.29-.97,1.3-.4,2.69-.11,4.01.11.7.12,1.4.23,2.11.23.62,0,1.24-.08,1.85-.18,1.16-.19,2.33-.57,3.23-1.35.45-.39.81-.88,1.06-1.43.24-.53.35-1.1.45-1.66.07-.4.12-.8.19-1.2.15.12.41.06.58,0,.23-.07.44-.2.63-.35.19-.15.37-.32.53-.5.15-.16.27-.34.41-.5.05-.06-.03-.1-.08-.05Z"/>
            <path class="cls-1" d="M50.05,61.35c-.95.67-2.2.6-3.27.3-1.12-.32-2.3-.97-2.89-2.01-.32-.56-.41-1.25-.2-1.86.03-.08-.09-.06-.11,0-.2.58-.25,1.18-.03,1.76.21.58.61,1.06,1.08,1.44,1.02.82,2.41,1.26,3.71,1.17.66-.05,1.33-.23,1.82-.68.09-.09-.02-.18-.12-.11Z"/>
            <path class="cls-1" d="M61.95,55.77c-1.02-.9-2.57-1.11-3.88-1.07-1.2.04-2.34.38-3.43.88-.41.19-.96.43-1.23.83-1.17-.79-2.6-1.32-4.02-1.22-.75.05-1.47.28-2.08.72-.09.06-.02.16.07.1,2.38-1.42,5.52.05,7.19,1.92.48.53.86,1.14,1.16,1.79.04.08.18-.02.17-.09-.25-1.31-1.32-2.4-2.39-3.14.12-.12.28-.21.42-.29.24-.13.49-.25.74-.35.46-.19.93-.36,1.4-.51,1.19-.37,2.52-.41,3.73-.15.69.15,1.35.41,1.92.84.13.1.38-.13.24-.25Z"/>
            <path class="cls-1" d="M70.09,53.09c-.12-.27-.29-.52-.5-.73-.23-1.6-1.63-2.89-2.95-3.67-.73-.43-1.54-.79-2.37-.97-1.16-.25-2.36-.08-3.49.19-1.14.27-2.42.55-3.26,1.42-.06.06.02.12.08.08.83-.64,1.85-.89,2.84-1.13,1.09-.27,2.24-.48,3.36-.31.82.13,1.63.46,2.36.86.75.41,1.46.92,2.05,1.54.48.51.86,1.09,1.08,1.75-.23-.15-.5-.26-.8-.28-.04,0-.11.07-.06.09.28.13.53.27.76.48.09.09.18.19.26.29,0,.01,0,.03,0,.04,0,.03.02.04.05.04.07.1.13.21.18.32.27.55.35,1.19.34,1.79-.02,1.38-.5,2.7-1.42,3.74-.61.68-1.43,1.18-2.36,1.22,0,0,0,0,0,0,.53-.35.94-.87,1.25-1.41.05-.1-.07-.12-.13-.06-.36.4-.71.82-1.14,1.14-.41.3-.88.48-1.36.62-1.33.37-2.7.5-4.08.46-.52-.02-1.27-.03-1.65-.46-.04-.05-.14.02-.11.08.28.44.85.56,1.33.61.6.07,1.23.08,1.83.05.83-.04,1.65-.16,2.45-.37.54-.14,1.07-.31,1.54-.61-.03.04-.04.1.03.1,1.74.06,3.15-1.49,3.76-2.98.25-.61.39-1.28.42-1.93.04-.66-.01-1.36-.28-1.97Z"/>
            <path class="cls-1" d="M79.2,55.16c-.25-.76-.65-1.52-1.1-2.18-.34-.5-.74-.95-1.19-1.34-.08-.11-.16-.21-.26-.29-.03-.02-.06-.02-.09-.01-.01-.01-.03-.02-.04-.03-.78-.61-1.62-1.12-2.4-1.72-.79-.6-1.55-1.25-2.22-1.99-1.82-2.01-2.8-4.7-4.89-6.48-.53-.45-1.12-.82-1.79-1.03-.72-.22-1.46-.24-2.19-.08-.06.01-.08.11,0,.1.65-.08,1.33-.04,1.96.17.58.19,1.12.52,1.59.91,1.02.84,1.79,1.96,2.51,3.05.7,1.08,1.35,2.21,2.17,3.21,1.22,1.5,2.85,2.6,4.45,3.67.36.24.7.49,1.01.77.03.05.07.1.09.15.11.18.2.37.27.56.14.35.24.72.29,1.1.11.79.04,1.59-.12,2.37-.02.08.13.05.14-.01.19-.8.3-1.63.21-2.46-.04-.36-.12-.72-.25-1.07.12.13.23.26.34.41.26.34.48.7.69,1.08.23.41.41.85.65,1.26.05.08.2-.02.18-.1Z"/>
            <path class="cls-1" d="M83.29,53.06c-.53-.74-1.09-1.46-1.58-2.23-.57-.89-.99-1.85-1.38-2.83-.42-1.05-.81-2.11-1.3-3.13-.51-1.06-1.17-2-1.89-2.93-.72-.93-1.5-1.78-2.32-2.61-.55-.55-1.14-1.22-1.89-1.49-.14-.05-.29-.07-.44-.05-.05,0-.09.09-.02.1.35.02.68.27.94.48.33.27.63.57.92.88.7.74,1.39,1.48,2.03,2.27.7.87,1.4,1.76,1.95,2.74.53.95.94,1.96,1.33,2.97.39,1,.78,2,1.28,2.94.39.75.89,1.43,1.39,2.11,1.03,1.38,2.21,2.85,2.54,4.58.16.87.04,1.75-.36,2.54-.37.72-1.01,1.55-1.92,1.39-.25-.04-.48-.15-.7-.29,0,0-.02,0-.02-.01.19-.54.3-1.11.34-1.67.06-.89,0-1.78-.19-2.64-.26-1.2-.78-2.28-1.46-3.3-.37-.55-.76-1.09-1.18-1.6-.35-.43-.75-.83-1.15-1.22-.83-.81-1.72-1.62-2.31-2.63-.15-.25-.27-.51-.38-.77-.04-.09-.19,0-.17.07.3,1.06,1.06,1.92,1.81,2.68.79.8,1.6,1.55,2.27,2.45.79,1.06,1.56,2.17,1.99,3.43.28.83.43,1.71.47,2.58.06,1.5-.24,3.32-1.5,4.3-.67.52-1.51.7-2.34.67-1.36-.04-2.69-.6-3.86-1.27-1.07-.61-1.97-1.44-2.86-2.27-.28-.27-.56-.53-.83-.81-.27-.27-.56-.57-.75-.9-.06-.1-.13-.24-.09-.36.03-.08-.1-.06-.12,0-.11.26.11.59.24.8.23.37.53.7.83,1.02.74.78,1.51,1.54,2.37,2.18,1.11.83,2.43,1.49,3.78,1.79,1.01.22,2.12.24,3.08-.2.92-.41,1.53-1.17,1.9-2.05.37.22.79.34,1.22.28.41-.06.78-.3,1.07-.59.65-.64,1.06-1.58,1.16-2.48.2-1.83-.89-3.5-1.91-4.92Z"/>
            <path class="cls-1" d="M89.92,57.28c-.2-.67-.51-1.27-.89-1.85-.41-.63-.88-1.25-1.17-1.95-.03-.07-.15,0-.13.06.38,1.22,1.24,2.18,1.69,3.36.46,1.22.57,2.59.14,3.84-.1.29-.23.57-.4.83-.17.27-.4.45-.63.66-.09.08,0,.19.1.14.49-.22.86-.76,1.08-1.23.25-.52.38-1.09.44-1.66.07-.74-.02-1.49-.23-2.21Z"/>
            <path class="cls-1" d="M86.98,62.47c-.07-.04-.15-.06-.23-.07,0,0,0,0-.01,0,0,0,0,0,0,0,0,0-.02,0-.02,0-.02,0-.04,0-.06-.01-.04,0-.08-.02-.11-.02-.12-.03-.24-.08-.34-.15.07-.08.13-.16.19-.25.18-.26.32-.56.41-.87.09-.32.17-.71.09-1.04-.03-.13-.21,0-.22.07-.06.3-.06.6-.15.89-.07.25-.18.49-.33.72-.28.43-.66.79-1.1,1.05-.91.54-2.04.67-3.06.4-.28-.07-.57-.18-.83-.33-.26-.15-.47-.37-.73-.52-.03-.02-.09.02-.07.05.1.26.34.46.56.62.23.17.46.3.72.4.53.2,1.12.26,1.69.21,1-.09,2-.52,2.69-1.26.03.04.07.08.11.11.06.05.14.08.22.11.16.06.34.09.51.06.04,0,.07-.03.09-.07.01-.02.02-.07-.01-.08Z"/>
            <path class="cls-1" d="M89.52,52.89c-.13-.88-.44-1.73-.81-2.54-.78-1.7-1.82-3.26-3.21-4.52-.34-.31-.7-.6-1.1-.83-.29-.16-.63-.32-.98-.31-.17-.47-.35-.93-.57-1.37-.64-1.32-1.56-2.41-2.61-3.42-.59-.57-1.19-1.15-1.8-1.7-.05-.04-.17.05-.12.11.44.57.97,1.07,1.47,1.59.49.51.98,1.02,1.43,1.58.92,1.14,1.52,2.43,2.01,3.81.27.76.47,1.54.71,2.31.03.11.21,0,.19-.08-.14-.87-.35-1.75-.63-2.59.62.17,1.16.64,1.62,1.05.64.57,1.23,1.21,1.74,1.9.54.72,1,1.5,1.41,2.31.38.75.72,1.53.91,2.35.11.45.17.92.14,1.39-.03.48-.16.9-.38,1.33-.08.15.12.16.19.06.47-.69.49-1.6.38-2.4Z"/>
            <path class="cls-1" d="M95.38,43.02c-.4-.95-.94-1.84-1.56-2.66-.68-.9-1.47-1.75-2.39-2.42-.49-.35-1.01-.64-1.54-.92-.54-.28-1.09-.54-1.66-.76-.68-.26-1.36-.44-2.08-.53-.75-.1-1.52-.1-2.27-.26-.06-.01-.14.09-.07.11,1.23.27,2.51.34,3.71.76.58.21,1.15.46,1.7.74.53.27,1.06.54,1.55.87,1.78,1.16,3.2,2.93,4.15,4.82.5.99.94,2.13.9,3.26,0,.09.13.03.14-.03.15-1-.18-2.04-.57-2.95Z"/>
            <path class="cls-1" d="M96.39,48.23c-.13-1.17-.55-2.29-1.29-3.21-.64-.81-1.46-1.46-2.32-2.03-.98-.65-2.01-1.22-2.95-1.94-.05-.04-.14.05-.09.09.76.63,1.57,1.2,2.37,1.77.8.58,1.61,1.17,2.28,1.9.73.79,1.25,1.73,1.52,2.78.3,1.14.3,2.35.11,3.51-.08.5-.21.99-.41,1.46-.19.45-.44.88-.86,1.14-.08.05-.04.17.06.12.37-.18.63-.54.82-.9.22-.42.37-.87.49-1.32.28-1.09.37-2.26.25-3.37Z"/>
            <path class="cls-1" d="M90.28,47.35c-.1-.36-.25-.71-.42-1.04-.36-.68-.86-1.25-1.38-1.81-.05-.05-.17.03-.13.09.44.56.84,1.18,1.16,1.82.02.04.04.08.06.12-.2-.15-.4-.31-.59-.49-.33-.31-.63-.64-.93-.98-.59-.68-1.12-1.4-1.64-2.12-.9-1.24-1.55-2.66-2.6-3.77-.6-.64-1.31-1.08-2.14-1.37-.06-.02-.14.08-.06.1,1.49.56,2.42,1.91,3.2,3.21.39.66.76,1.33,1.21,1.96.51.72,1.03,1.43,1.61,2.09.59.67,1.3,1.34,2.11,1.76.07.18.14.36.19.54.05.17.09.33.11.5.03.18.02.37.09.54.04.1.17.03.2-.04.13-.33.03-.75-.06-1.08Z"/>
            <path class="cls-1" d="M94.75,53.38c-.33-.92-.89-1.73-1.5-2.48-.05-.06-.17.02-.13.09.47.78.97,1.57,1.29,2.43.16.42.27.87.28,1.33,0,.37-.09.69-.21,1.02-.17-.5-.48-.96-.84-1.36-.33-.38-.67-.75-.99-1.14-.34-.42-.65-.85-.96-1.29-.04-.05-.15.02-.11.08.46.7.89,1.42,1.43,2.06.52.62,1.07,1.23,1.21,2.06.13.76-.16,1.44-.7,1.97-.43.42-.99.72-1.58.81-.71.11-1.36-.14-1.88-.6-.05-.04-.15.04-.11.1.84,1.18,2.48.93,3.5.13.58-.45,1.06-1.09,1.15-1.83.03-.26.01-.5-.04-.74.64-.7.51-1.81.21-2.63Z"/>
            <path class="cls-1" d="M93.71,48.17c-.03-.43-.15-.83-.34-1.22-.39-.81-1.04-1.47-1.75-2.01-.2-.15-.41-.3-.63-.43-.21-.13-.43-.22-.64-.34-.06-.04-.18.07-.11.12.33.2.65.46.95.7.34.27.66.56.96.88.57.61,1.05,1.34,1.2,2.17.04.22.06.45.05.68-.01.25-.09.49-.13.74-.02.11.15.06.19,0,.21-.37.27-.88.25-1.29Z"/>
            <path class="cls-1" d="M90.02,41.14c-.09-.38-.3-.73-.54-1.04-.5-.63-1.15-1.07-1.82-1.51-.06-.04-.19.07-.11.12.59.42,1.15.94,1.59,1.51.22.29.41.61.52.96.05.17.08.35.08.54,0,.18-.06.36-.07.54,0,.15.2.08.25,0,.21-.32.2-.76.11-1.12Z"/>
            <path class="cls-1" d="M75.52,18.11c-.08-.38-.16-.77-.23-1.15-.06-.34-.1-.68-.16-1.01-.11-.61-.28-1.3-.76-1.73-.05-.05-.18.05-.13.11.78.9.76,2.24.94,3.35.26,1.57.36,3.14.21,4.73-.14,1.45-.44,2.89-.95,4.26-.49,1.34-1.22,2.55-2.16,3.62-1.02,1.15-2.21,2.14-3.28,3.24-.07.07.03.12.09.06,1.05-.96,2.17-1.85,3.15-2.88,1.01-1.05,1.81-2.24,2.37-3.59.57-1.35.9-2.8,1.09-4.26.2-1.6.14-3.19-.17-4.77Z"/>
            <path class="cls-1" d="M66.59,32.23c0-.11-.17-.05-.18.04-.03.47-.15.94-.28,1.39-.17.58-.39,1.15-.7,1.67-.23.38-.55.83-1.03.89-.08.01-.16,0-.23,0,.36-.4.52-1.03.62-1.53.14-.68.17-1.38.18-2.08.01-.76.02-1.53-.02-2.3-.05-.88-.14-1.8-.45-2.63-.27-.74-.72-1.41-1.05-2.13.02-.35.04-.7.05-1.04.04-.82.06-1.65-.01-2.47-.07-.83-.24-1.64-.47-2.43-.19-.63-.4-1.27-.71-1.85-.14-.26-.29-.51-.45-.76-.03-.06-.07-.11-.11-.16,0-.01,0-.02,0-.04.29-1.17.4-2.36.28-3.56-.07-.71-.22-1.4-.44-2.08-.23-.69-.54-1.39-1.01-1.96-.47-.57-1.13-.95-1.89-.81-.05,0-.09.1-.02.1,1.45-.08,2.18,1.65,2.55,2.78.58,1.78.61,3.67.19,5.49-.24,1.07-.66,2.34-.17,3.39.04.08.17-.02.16-.09-.23-.97.01-1.95.25-2.9.08.17.16.33.25.5.29.57.5,1.15.69,1.76.24.78.42,1.58.53,2.38.1.84.11,1.68.1,2.52,0,.26-.01.53-.02.79-.04.02-.07.05-.06.09.02.08.04.15.06.23,0,.1,0,.19,0,.29,0,.45-.02.92.04,1.37.01.08.14,0,.14-.05.03-.32.04-.64.05-.96.2.45.44.87.63,1.32.34.8.47,1.69.54,2.56.06.77.05,1.55.05,2.33,0,.66-.02,1.32-.1,1.98-.05.36-.12.72-.23,1.07-.09.29-.24.54-.37.8-.35-.15-.62-.51-.81-.82-.35-.57-.57-1.24-.66-1.9-.01-.11-.21-.02-.21.07-.01.63.21,1.3.49,1.86.27.55.73,1.15,1.4,1.17.56.02,1.03-.37,1.35-.8.39-.51.63-1.13.81-1.74.17-.56.31-1.17.29-1.76Z"/>
            <path class="cls-1" d="M69.21,25.32c-.3-1-.91-1.86-1.38-2.78.13-.53.26-1.06.39-1.59.38-1.6.73-3.24.54-4.89-.11-.95-.38-1.86-.9-2.67-.03-.05-.13.01-.11.06.32.8.57,1.65.66,2.51.08.81.04,1.63-.07,2.44-.22,1.65-.72,3.24-1.03,4.87-.17.88-.34,1.81-.26,2.71,0,.11.18,0,.19-.06.1-.84.2-1.68.38-2.51.03-.15.07-.31.1-.46.36.84.88,1.6,1.14,2.48.17.58.29,1.18.37,1.78.08.62.08,1.23.08,1.85,0,.12.17.04.19-.04.24-1.22.05-2.52-.3-3.71Z"/>
            <path class="cls-1" d="M71.21,12.71c-.22-.22-.5-.39-.77-.54-.3-.18-.62-.34-.95-.45-.3-.1-.62-.14-.93-.05-.33.1-.56.32-.71.62-.05.1.08.1.13.04.17-.23.41-.41.7-.42.28-.01.56.07.82.18.28.12.55.27.81.43.24.14.48.3.75.36.07.02.23-.08.15-.16Z"/>
            <path class="cls-1" d="M82.75,26.1c-.59,1.16-.87,2.45-1.66,3.51-.8,1.07-1.98,1.79-3.06,2.55-.3.21-.6.43-.9.66-.28.22-.54.47-.8.71-.07.06.03.11.09.06.5-.44,1.09-.81,1.65-1.17.56-.36,1.12-.72,1.66-1.12.54-.4,1.06-.85,1.49-1.37.43-.52.75-1.1,1.01-1.72.29-.68.53-1.38.77-2.08.06-.17-.19-.15-.25-.04Z"/>
            <path class="cls-1" d="M92.08,33.89c-.16-.47-.34-.94-.53-1.39-.37-.87-.85-1.72-1.59-2.33-.4-.33-.87-.54-1.38-.61-.02-.28-.06-.55-.1-.82-.12-.86-.34-1.71-.69-2.5-.22-.51-.49-.97-.82-1.41-.33-.43-.74-.89-1.25-1.13-.41-.19-.86-.18-1.19.09-.1-.99-.4-1.96-1.06-2.73-.35-.41-.79-.79-1.34-.87-.45-.07-.89.08-1.27.33-.45.3-.8.73-1.11,1.17-.35.49-.64,1.03-.91,1.57-.26.53-.48,1.07-.7,1.61-.17.41-.31.84-.5,1.24-.03.07-.07.14-.11.21-.04.07.07.09.1.03.45-.81.8-1.67,1.22-2.5.5-.99,1.02-2.03,1.83-2.81.28-.27.63-.53,1.03-.56.46-.04.89.22,1.21.52,1.11,1.06,1.38,2.71,1.34,4.17-.04,1.71-.47,3.36-.76,5.04-.02.13.2.07.22-.02.35-1.53.71-3.07.82-4.64.04-.51.05-1.03,0-1.56.13-.1.28-.16.45-.16.21,0,.41.09.59.2.44.27.8.69,1.11,1.1.78,1.06,1.21,2.35,1.43,3.64.15.89.17,1.79.28,2.68.01.12.22.02.22-.07.03-.54.01-1.1-.03-1.65.82.33,1.45.9,1.93,1.64.52.8.86,1.7,1.18,2.59.17.46.3.96.55,1.38.07.12.26-.03.24-.14-.09-.45-.27-.88-.42-1.31Z"/>
            <path class="cls-1" d="M88.64,34.08c-.34.41-1.11.15-1.53.02-.67-.22-1.31-.52-1.96-.81-1.45-.64-3.14-.76-4.66-.26-.93.31-1.82.91-2.38,1.73-.05.07.06.09.1.05.63-.68,1.36-1.21,2.26-1.51.85-.28,1.76-.34,2.64-.23.7.08,1.34.29,1.98.58.65.29,1.3.59,1.99.77.54.14,1.35.29,1.71-.28.07-.11-.09-.15-.15-.07Z"/>
            <g class="cls-5">
              <path class="cls-8" d="M87.32,32.64s-.09.03-.11.07c-.05.11-.11.2-.19.29-.08.1-.16.17-.25.24-.02.02-.05.03-.07.05-.01,0-.02.02-.04.02,0,0-.01,0-.02,0,0,0,0,0,0,0-.05.02-.09.05-.14.07,0,0-.01,0-.02,0,0,0-.02,0-.02,0-.02,0-.04,0-.07.01-.02,0-.04.01-.06.02,0,0,0,0-.01,0,0,0,0,0,0,0-.03,0-.06.02-.09.03-.06.02-.14.13-.06.18.11.07.26.03.37-.02.12-.05.24-.13.34-.22.22-.19.4-.42.48-.7.01-.04-.01-.07-.05-.08Z"/>
              <path class="cls-8" d="M86.32,33.45s0,0,0,0h0Z"/>
            </g>
          </g>
          <path class="cls-4" d="M96.12,47.43c-1.45-17.24-15.12-33.08-31.67-37.63-10.06-2.76-23.3-2.95-33.31-.37-9.27,2.39-19.64,7.15-23.77,16.91-2.35,5.56-1.6,12.18,1.63,17.24,2.82,4.42,7.35,7.56,12.53,8.44,2.67.46,5.3.3,7.98.07,1.61-.14,3.24-.22,4.86-.03.73.09,1.47.22,2.17.49.65.25,1.27.58,1.9.88.46.22.94.46,1.44.65-.23.7-.39,1.44-.41,2.18-.01.71.11,1.42.4,2.08.32.73.79,1.36,1.35,1.93,1.31,1.33,2.97,2.34,4.75,2.89,1.68.51,3.45.61,5.19.46,1.83-.16,3.62-.56,5.4-1.02,1.83-.47,3.65-.97,5.48-1.42,1.49-.37,3-.74,4.52-1.04.34.04.67.09,1,.16,2.23.42,4.29,1.36,6.43,2.07,3.52,1.16,7.38,1.55,11.05.98,1.83-.29,3.62-.84,5.23-1.77,1.58-.9,2.92-2.19,3.89-3.73,1.94-3.08,2.27-6.89,1.97-10.44ZM84.36,28.23c.11-.8.39-1.77,1.02-2.33.05-.18.15-.39.36-.42.2-.03.39.11.53.23.5.44.76,1.09.91,1.73.16.69.2,1.41.17,2.12-.03.62-.12,1.22-.43,1.76-.22.37-.56.75-1.02.8-.49.06-.87-.3-1.1-.69-.28-.47-.41-1-.47-1.53-.06-.56-.04-1.12.03-1.67ZM82.31,40.52c-.01-.17.02-.33.13-.46.21-.23.57-.17.84-.1.26.07.48.25.67.43.24.24.45.51.64.79.36.53.68,1.12.88,1.74.07.22.1.44.11.66,0,.16,0,.34-.07.49-.26.66-1.06.05-1.37-.23-.64-.57-1.19-1.29-1.57-2.05-.15-.3-.42-.91-.26-1.27ZM75.43,28.19c.11-.42.23-.84.4-1.24.22-.51.52-1,1-1.29.03-.02.08-.01.1.01.15.17.21.39.22.62.01.24-.03.47-.09.71.45-.68.98-1.31,1.58-1.84.42-.37.9-.7,1.44-.88.34-.11.74-.21,1.1-.08.62.23.64,1.02.58,1.58-.09.8-.36,1.58-.69,2.3-.4.88-1.01,1.65-1.69,2.34-.87.9-1.89,1.66-3.01,2.24-.79.41-1.61.8-2.48,1.03-.39.1-.82.18-1.23.1-.34-.07-.63-.33-.67-.69-.04-.46.32-.89.61-1.2.33-.36.72-.68,1.07-1.02.24-.23.43-.51.62-.79.23-.33.44-.68.64-1.03.16-.28.32-.57.47-.86ZM81.92,37.86c0,.44-.22.89-.57,1.16-.83.64-1.81-.29-2.29-.94-.27-.36-.52-.79-.62-1.23-.04-.18-.05-.42.05-.57,0-.02.02-.04.03-.06.17-.25.49-.33.78-.33.39,0,.78.11,1.13.26.38.16.74.39,1.02.69.26.28.45.63.46,1.02ZM76.68,45.09s0,0,0,0c.29-.1.61.06.85.25.41.32.73.76,1,1.19.12.2.24.4.33.62.07.15.13.3.15.46.04.3.09.7-.1.96-.35.49-1.07-.12-1.36-.38-.55-.5-1.04-1.15-1.33-1.84-.1-.25-.19-.55-.12-.82.07-.27.3-.4.56-.43ZM69.64,16.85c.02-.19.05-.39.1-.58,0-.01,0-.03,0-.04.09-.45.24-.92.58-1.25.35-.34.83-.38,1.28-.26.57.15,1.1.46,1.5.89.86.9,1.23,2.18,1.42,3.38.1.63.15,1.27.15,1.91,0,.55-.03,1.09-.06,1.63-.06,1.09-.23,2.21-.61,3.24-.19.52-.44,1.05-.83,1.45-.34.35-.83.6-1.33.53-.51-.07-.87-.47-1.12-.89-.29-.5-.47-1.06-.6-1.62-.37-1.6-.33-3.24-.38-4.87-.02-.51-.04-1.03-.1-1.54-.02-.2-.06-.41-.07-.61-.03-.46-.01-.93.04-1.38ZM68.83,28.38c.19.98.05,2.3-.93,2.84-.36.2-.82.26-1.19.08-.34-.16-.55-.49-.68-.83-.16-.41-.22-.85-.22-1.29,0-.44.06-.89.21-1.31.12-.34.31-.68.61-.89.25-.16.53-.17.79-.09.3-.11.6,0,.83.23.32.33.49.81.57,1.26ZM62.94,13.22c.13-.4.34-.83.66-1.14.09-.15.2-.28.33-.39.86-.69,1.92.25,2.45.91.16.2.3.41.42.63.14.25.24.51.33.77.27.76.43,1.57.5,2.37.07.8.05,1.61-.08,2.4-.04.26-.11.52-.15.78-.05.25-.09.51-.13.76-.1.59-.21,1.17-.37,1.75-.13.48-.29,1-.59,1.4-.19.26-.49.47-.82.51-.25.03-.48-.07-.66-.24-.22-.21-.35-.5-.46-.78-.14-.37-.23-.75-.3-1.13-.16-.85-.24-1.72-.29-2.59-.02-.36-.04-.71-.06-1.07-.01-.23-.02-.47-.05-.7-.11-.75-.43-1.44-.65-2.16-.2-.68-.29-1.4-.08-2.09ZM61.74,28.35c.57.39.79,1.04.88,1.69.1.74.06,1.53-.14,2.25-.14.53-.39,1.11-.91,1.38-.34.17-.71.12-1.02-.1-.36-.27-.59-.67-.76-1.07-.2-.48-.31-.99-.34-1.5-.04-.81.17-1.79.97-2.12.03-.04.05-.09.08-.13.13-.21.31-.41.54-.5.24-.09.49-.03.7.11ZM60.3,36.16c.04-.06.08-.11.13-.16.15-.14.35-.18.52-.05.2.15.3.4.37.63.19.59.25,1.32.03,1.91-.1.26-.26.48-.52.59-.23.1-.49.12-.7-.04-.21-.15-.31-.41-.37-.65-.07-.31-.08-.63-.04-.94.05-.42.21-.95.57-1.23,0-.02,0-.04.01-.06ZM42.47,9.55c.17-.21.45-.32.71-.37.65-.12,1.36,0,1.99.2,1.54.5,2.82,1.63,3.79,2.9,1.06,1.4,1.7,3.03,2.02,4.75.09.47.15.94.21,1.41.06.49.08.99.19,1.46.2.86.65,1.62,1.11,2.37.31.5.6,1.01.84,1.54.26.56.49,1.13.66,1.72.15.51.28,1.1.15,1.63-.09.4-.43.78-.88.68-.43-.09-.71-.57-.89-.93-.25-.48-.43-1-.61-1.51-.41-1.17-1.02-2.3-1.78-3.29-.9-1.17-2.13-2.2-3.65-2.32-.04,0-.09-.04-.09-.09.03-.72-.01-1.44-.1-2.16-.18-1.34-.55-2.66-1.11-3.88-.11-.25-.24-.49-.37-.73-.3-.38-.61-.75-.94-1.1-.23-.25-.49-.46-.74-.69-.24-.22-.51-.48-.64-.79-.11-.26-.05-.6.13-.81ZM50.36,37.31c.02-.27.09-.55.23-.78.06-.27.16-.54.33-.75.27-.33.71-.41,1.09-.23.47.22.73.77.9,1.23.2.52.33,1.09.37,1.65.05.57,0,1.18-.38,1.63-.34.42-.89.52-1.36.23-.3-.18-.49-.46-.68-.74-.12-.19-.21-.39-.29-.6-.18-.52-.28-1.09-.23-1.64ZM50.12,32.61c-.39.23-.86.15-1.26-.02-.46-.2-.86-.51-1.24-.83-.31-.27-.61-.55-.88-.86-.64-.73-1.19-1.55-1.67-2.4-.51-.91-.94-1.86-1.24-2.86-.24-.84-.41-1.75-.23-2.62.01-.06.07-.07.11-.05.05-.24.17-.47.39-.59.31-.18.7-.11,1.02,0,.52.19,1.01.52,1.45.86.92.72,1.65,1.66,2.24,2.66.53.9.96,1.85,1.34,2.82.18.46.35.93.48,1.41.12.46.2.94.14,1.41-.06.44-.25.86-.65,1.08ZM38.78,11.66c.02-.06.05-.12.09-.18.38-.53,1.08.13,1.36.44.26.29.49.62.68.96.17.32.33.67.39,1.03.05.28.05.58-.14.81-.17.22-.44.28-.7.2-.31-.09-.58-.31-.8-.54-.27-.28-.5-.61-.69-.95-.24-.45-.57-1.25-.2-1.71,0-.01,0-.03,0-.05ZM33.46,10.62c.07-.18.2-.28.36-.34,0-.02.02-.05.03-.07.33-.66,1.32-.04,1.72.21.31.21.62.44.9.69.29.26.54.56.78.87.77.98,1.35,2.09,1.81,3.25.47,1.18.8,2.42.92,3.68.06.59.07,1.18.02,1.76-.02.29-.07.58-.15.86-.06.2-.15.41-.31.56-.37.34-.81,0-1.08-.29-.46-.51-.77-1.11-1-1.74-.24-.65-.42-1.33-.61-2-.2-.67-.35-1.36-.59-2.02-.24-.68-.55-1.34-.97-1.92-.17-.24-.36-.46-.54-.69-.46-.6-.92-1.24-1.19-1.95-.1-.26-.2-.59-.09-.86ZM27.78,13.25c.08-.26.21-.54.43-.71.22-.17.48-.16.73-.05.03.01.04.04.04.06.2.03.4.11.57.22.37.25.66.63.84,1.04.18.42.24.9.06,1.33-.19.45-.61.74-1.05.9-.31.11-.66.13-.95-.03-.27-.15-.45-.42-.57-.7-.26-.63-.29-1.41-.09-2.06ZM27.42,19.17c.06-.68.22-1.41.62-1.98.15-.21.35-.41.6-.48.22-.06.44,0,.62.13.23.17.39.43.5.69.16.37.24.77.29,1.17.12.89.05,1.8-.01,2.69-.07.9-.15,1.81-.05,2.71.08.74.35,1.45.62,2.13.29.72.6,1.43.83,2.17.21.68.34,1.39.23,2.1,0,.04-.05.06-.08.06-.65.08-1.21-.4-1.6-.86-.44-.51-.78-1.11-1.08-1.72-.29-.61-.54-1.24-.74-1.88-.44-1.38-.65-2.85-.58-4.31-.02-.13-.05-.25-.06-.38-.11-.75-.18-1.51-.11-2.27ZM21.09,16.59c.08-.47.2-.94.42-1.37.19-.38.47-.73.85-.93.41-.22.88-.23,1.33-.1.57.16,1.02.58,1.34,1.07.38.59.6,1.28.75,1.96.18.79.28,1.6.35,2.4.07.8.1,1.6.13,2.4.02.64.04,1.29.1,1.93.04.43.11.86.19,1.29.11.62.23,1.23.39,1.83.16.6.36,1.2.61,1.77.12.28.26.56.42.82.16.27.33.53.51.79.7,1.06,1.58,2.05,2.59,2.82.45.34.93.67,1.28,1.12.17.22.44.62.31.91-.1.23-.39.26-.61.25-.34-.01-.68-.1-1.01-.2-.95-.29-1.85-.72-2.67-1.27-.99-.67-1.87-1.5-2.67-2.39-.84-.94-1.57-2-2.2-3.09-.63-1.11-1.15-2.28-1.5-3.51-.37-1.26-.51-2.56-.52-3.87-.27-.93-.45-1.89-.5-2.85-.03-.6,0-1.2.1-1.79ZM19,29.8c.06-.3.17-.62.37-.86.04-.13.1-.25.16-.37.02-.03.06-.05.1-.04.47.17.75.7.95,1.13.27.59.44,1.23.57,1.87.15.71.24,1.43.29,2.15.04.63.05,1.28-.04,1.91-.05.39-.13.88-.42,1.18-.03.03-.07.03-.1.01-.43-.26-.7-.79-.91-1.23-.28-.59-.49-1.22-.66-1.86-.18-.68-.31-1.38-.37-2.08-.05-.6-.07-1.22.06-1.81ZM14.48,22.25c.11-.62.28-1.25.55-1.84.05-.17.1-.35.16-.52.22-.62.54-1.26,1.09-1.66.28-.2.65-.37,1.01-.33.32.04.57.25.75.51.2.3.32.65.41,1,.09.35.14.7.17,1.06.05.57,0,1.14-.07,1.7-.09.65-.23,1.29-.4,1.92-.34,1.29-.81,2.57-1.05,3.89-.24,1.35-.15,2.76.12,4.11.11.52.27,1.03.35,1.55.07.47.1.99-.15,1.41-.02.04-.06.05-.1.04-.1-.02-.19-.04-.28-.08-.41-.16-.72-.5-.96-.86-.3-.45-.51-.95-.69-1.46-.37-1.07-.59-2.2-.76-3.32-.15-1.01-.28-2.02-.35-3.03-.08-1.37-.07-2.75.18-4.1ZM11.18,39.67c-.1.25-.34.4-.61.31-.32-.1-.58-.4-.79-.66-.31-.38-.56-.81-.78-1.24-.24-.46-.44-.95-.59-1.45-.12-.41-.22-.85-.19-1.28.03-.31.14-.61.44-.74.01,0,.02,0,.03,0,.01-.04.02-.08.03-.12.01-.03.04-.07.08-.06.08,0,.15.03.21.06.36.17.63.55.85.87.31.47.56.99.78,1.51.21.52.39,1.06.5,1.61.07.37.15.82.01,1.19ZM24.56,48.76c-.05.19-.2.34-.36.44-.26.16-.57.26-.87.33-.57.13-1.16.08-1.73-.05-1.25-.3-2.37-1.03-3.37-1.81-.47-.37-.93-.78-1.36-1.2-.48-.47-.91-1-1.31-1.53-.93-1.23-1.73-2.57-2.29-4-.27-.69-.49-1.41-.61-2.15-.06-.35-.1-.7-.22-1.04-.1-.29-.25-.57-.42-.83-.35-.55-.77-1.06-1.1-1.64-.25-.45-.49-.91-.71-1.38-.49-1.05-.91-2.14-1.17-3.26-.26-1.09-.4-2.26-.16-3.37.11-.51.31-1,.61-1.43.27-.38.62-.74,1.04-.95.28-.14.6-.19.9-.08.05.02.1.05.15.07.27.06.5.25.67.47.25.32.43.69.58,1.06.29.73.47,1.5.58,2.29.23,1.75.22,3.52.46,5.27.19,1.35.55,2.68,1.05,3.94.5,1.29,1.15,2.52,1.92,3.66.77,1.14,1.66,2.2,2.67,3.14.98.9,2.06,1.66,3.24,2.27.44.23.88.48,1.26.8.27.23.64.59.54.99ZM29.81,49.33c-.05.22-.19.42-.39.53-.25.14-.55.14-.83.1-.58-.09-1.11-.36-1.6-.67-.5-.33-.98-.69-1.42-1.1-.61-.57-1.73-1.78-.75-2.52.05-.14.13-.26.25-.35.14-.11.33-.15.51-.14.48.02.94.27,1.34.51.48.29.93.63,1.35.99.29.24.6.49.83.79.39.49.84,1.2.7,1.86ZM30.56,45.87c-.52-.06-1.01-.29-1.47-.52-.5-.25-.98-.54-1.48-.79-.38-.2-.76-.39-1.14-.59-.06-.02-.12-.04-.18-.06-.63-.2-1.26-.41-1.87-.68-.29-.13-.59-.28-.84-.48-.17-.13-.35-.32-.35-.55,0-.26.24-.45.44-.56.36-.21.76-.27,1.17-.27,1,0,2,.27,2.94.59.28.1.58.2.84.33.23.12.45.26.67.4.58.38,1.14.81,1.64,1.29.22.21.44.44.61.69.13.18.25.39.26.62.02.58-.84.63-1.24.58ZM34.37,42.09c-.19.35-.52.56-.92.6-.43.05-.87-.1-1.26-.28-.47-.21-.89-.5-1.29-.83-.39-.32-.74-.69-1.03-1.09-.35-.49-.79-1.4,0-1.73.26-.26.75-.28,1.1-.24.26.03.52.08.76.17.27.1.52.25.76.4.62.37,1.23.83,1.67,1.4.19.25.35.53.39.85.03.26-.05.52-.17.75ZM34.85,25.8c-.2.33-.51.61-.9.68-.4.07-.82-.05-1.14-.31-.31-.25-.52-.6-.68-.96-.17-.39-.29-.8-.4-1.21-.37-1.44-.64-2.92-.55-4.41.05-.75.18-1.52.53-2.2.27-.54.68-.97,1.21-1.25.02-.04.05-.08.07-.12.18-.25.45-.36.74-.24.3.13.53.43.69.7.22.37.35.79.48,1.2.18.56.32,1.13.43,1.71.22,1.15.31,2.34.22,3.51-.04.56-.12,1.12-.26,1.67-.1.42-.21.84-.44,1.22ZM35.47,27.98c-.02-.28-.02-.56,0-.83.03-.22.07-.45.19-.64.07-.11.16-.19.27-.24.07-.11.14-.22.24-.31.26-.25.61-.32.95-.24.84.18,1.44.87,1.83,1.59.4.74.65,1.57.77,2.4.09.63.15,1.44-.29,1.96-.33.39-.88.39-1.33.25-.58-.18-1.1-.56-1.52-1-.36-.37-.68-.81-.84-1.31-.16-.52-.25-1.07-.29-1.62ZM36.03,35.18c.17-.26.4-.38.65-.43,0,0,0,0,.01,0,.17-.07.34-.11.52-.13.43-.04.88.05,1.29.17.43.13.85.3,1.25.5.52.27,1.01.6,1.44,1,.52.48,1,1.02,1.43,1.58.42.56.82,1.18,1.04,1.86.16.51.22,1.16-.18,1.59-.64.68-1.53-.12-2.03-.57-.41-.36-.89-.64-1.37-.9-.5-.27-1.02-.52-1.52-.79-.78-.42-1.55-.94-2.13-1.61-.27-.31-.5-.66-.59-1.07-.09-.41-.03-.86.21-1.21ZM40.45,48.61c-.59.07-1.2-.09-1.73-.35-.57-.28-1.08-.68-1.5-1.14-.36-.39-.7-.87-.85-1.39-.11-.36-.12-.75-.1-1.11,0-.14.02-.29.04-.43-.05,0-.11-.04-.1-.11.04-.22.09-.44.16-.65.2-.61.55-1.22,1.16-1.51.52-.24,1.12-.2,1.65-.01.63.22,1.19.61,1.67,1.05.51.48.95,1.05,1.27,1.67.29.57.48,1.21.44,1.85-.05.62-.34,1.18-.83,1.57-.37.29-.8.49-1.27.54ZM44.7,54.65c-.1.4-.42.69-.76.88-.34.18-.72.31-1.1.17-.67-.24-.96-1.05-.99-1.7-.02-.5.15-1.09.59-1.3.3-.54,1.08-.12,1.42.15.52.41,1.02,1.11.84,1.8ZM45.64,37.29c-.59-.15-1.13-.51-1.58-.92-.49-.44-.93-.96-1.3-1.5-.65-.95-1.29-2.34-.68-3.41,0-.18.03-.36.15-.5.13-.16.33-.23.52-.26.48-.07,1.01.09,1.44.3.26.13.48.31.69.51.33.31.62.66.87,1.04.51.75.88,1.59,1.12,2.45.11.39.2.78.2,1.19,0,.27-.04.56-.19.79-.28.41-.79.43-1.23.32ZM51.39,60.14c-.49.29-1.08.36-1.63.29-.38-.04-.74-.14-1.1-.28-.42-.16-.83-.35-1.18-.63-.44-.34-.77-.86-.64-1.43.12-.53.57-.94,1.02-1.2.56-.31,1.23-.45,1.87-.4.29.02.58.09.84.19.38-.03.76.02,1.09.22.35.21.59.57.69.97.22.87-.2,1.82-.97,2.27ZM56.29,47.68c-.06,1.17-.98,2.04-1.92,2.61-1.04.63-2.27,1.02-3.48,1.1-1.05.07-2.2-.1-3.02-.82-.41-.35-.63-.86-.47-1.39.17-.58.64-1.04,1.1-1.4.62-.49,1.32-.88,2.04-1.2.74-.33,1.52-.59,2.32-.75.64-.13,1.33-.21,1.97-.06.27.06.52.18.71.37.1.06.19.13.27.21.35.35.51.85.48,1.33ZM57.48,37.92c-.04.26-.1.54-.27.74-.27.33-.67.19-.96-.03-.43-.32-.76-.78-1.05-1.23-.27-.42-.52-.86-.67-1.33-.11-.34-.21-.72-.26-1.09-.02-.12-.04-.24-.05-.36,0-.01-.01-.03-.01-.05,0,0,0-.02,0-.03-.04-.35-.05-.71.03-1.05.04-.16.11-.33.26-.42.05-.03.1-.04.15-.05.15-.18.35-.29.64-.22.35.09.66.38.9.64.27.29.48.63.66.98.36.74.57,1.55.65,2.37.04.38.05.76,0,1.13ZM56.94,23.77c-.15-.31-.3-.62-.41-.95-.17-.51-.24-1.05-.29-1.59-.05-.54-.06-1.07-.12-1.61-.06-.51-.16-1.03-.3-1.53-.26-.96-.7-1.86-.86-2.84-.1-.6-.07-1.19.05-1.79.11-.58.28-1.16.55-1.7.11-.22.24-.45.41-.66.19-.31.44-.58.78-.74.43-.21.93-.21,1.37-.05,1.11.38,1.87,1.47,2.15,2.56.52,2.04-.51,4.06-.39,6.11.03.55.19,1.08.34,1.61.19.64.4,1.28.57,1.92.17.64.32,1.29.36,1.96.03.51,0,1.09-.27,1.54-.28.46-.81.69-1.33.6-.64-.11-1.15-.63-1.54-1.11-.42-.53-.76-1.12-1.06-1.72ZM62.71,58.64c-.06.46-.38.79-.82.92-.48.14-1.01.09-1.49,0-.49-.1-.97-.27-1.4-.53-.18-.11-.33-.24-.48-.4-.2-.21-.38-.46-.47-.74-.13-.4.02-.79.38-1.02.31-.19.68-.26,1.05-.25.39-.03.79,0,1.16.08.53.1,1.07.3,1.5.65.38.32.64.79.57,1.3ZM67.88,54.46c-.03.41-.12.83-.38,1.15-.27.33-.69.45-1.1.4-.64-.07-1.13-.53-1.65-.88-.59-.39-1.31-.59-1.99-.76-.98-.25-1.99-.44-2.91-.88-.7-.33-1.46-.87-1.47-1.73-.02-1.01.82-1.8,1.68-2.18.3-.13.61-.23.94-.29.53-.27,1.12-.43,1.73-.45.91-.02,1.81.27,2.57.76.8.51,1.47,1.24,1.92,2.08.24.44.41.9.53,1.39.1.45.18.92.15,1.38ZM68.73,47.65c-.01.14-.03.32-.13.42-.2.2-.54-.02-.72-.15-.42-.3-.78-.68-1.16-1.03-.14-.13-.29-.28-.46-.37-.3-.17-.69-.22-1.03-.26-.71-.07-1.45-.03-2.12-.31-.48-.2-.91-.54-1.14-1.02-.41-.84-.19-1.87.3-2.64.37-.58.94-1.07,1.61-1.24.42-.27.91-.4,1.41-.26.59.17,1.06.64,1.43,1.11.47.6.82,1.29,1.11,1.99.29.69.53,1.41.7,2.15.12.52.24,1.07.2,1.6ZM68.65,41.46c-.41-.56-.84-1.21-.96-1.92-.05-.27-.04-.56.07-.82.07-.16.18-.3.32-.41.14-.27.37-.48.66-.59.43-.17.92-.15,1.37-.07,1.15.21,2.17.9,3.03,1.66.45.4.87.84,1.26,1.31.35.42.69.87.95,1.35.37.66.72,1.57.3,2.3-.33.58-1.04.77-1.66.78-.84.01-1.68-.26-2.39-.69-.51-.31-.95-.71-1.38-1.13-.57-.55-1.1-1.14-1.57-1.78ZM71.81,54.36c-.21-.27-.42-.55-.57-.86-.25-.49-.42-1.04-.48-1.59-.01-.14-.03-.29-.02-.44-.02-.09-.04-.18-.04-.28-.02-.29.06-.59.28-.8.22-.2.51-.28.8-.3.79-.06,1.58.28,2.2.76.69.54,1.21,1.27,1.58,2.06.29.63.52,1.33.43,2.04-.04.3-.13.59-.33.82-.21.25-.53.39-.85.44-.8.12-1.56-.4-2.12-.91-.32-.29-.6-.61-.86-.95ZM79.65,61.03c-.19.36-.49.66-.86.85-.42.22-.91.27-1.38.23-.98-.1-1.9-.6-2.69-1.17-.5-.37-.96-.8-1.36-1.28-.22-.27-.43-.56-.59-.87-.13-.27-.24-.57-.22-.87.02-.3.17-.6.44-.75.12-.07.26-.11.4-.13.55-.29,1.36-.4,1.81-.41.77-.03,1.56.24,2.24.57.75.36,1.47.87,1.96,1.55.47.67.63,1.53.25,2.28ZM85.35,53.68s-.06.05-.1.04c-.12-.05-.24-.1-.35-.17-1.04-.59-1.68-1.73-2.16-2.77-.55-1.18-.94-2.42-1.39-3.64-.55-1.48-1.34-2.85-2.26-4.13-.25-.34-.51-.67-.77-1-.21-.22-.42-.45-.62-.68-.4-.48-.82-1.01-.99-1.62-.06-.23-.09-.49,0-.71.1-.28.33-.59.64-.63.17-.02.34.03.5.1.17.07.34.15.49.25.32.22.58.51.81.81.5.66.87,1.4,1.29,2.11.25.42.53.83.78,1.26.24.4.46.81.67,1.23.42.86.76,1.75,1.03,2.68.3,1.05.72,2.08,1.18,3.06.16.35.33.69.5,1.03.17.32.35.64.5.98.15.32.29.66.36,1.01.05.27.06.57-.1.82ZM85.83,50.99s-.03-.07-.05-.11c-.03-.04-.06-.08-.09-.13-.19-.3-.44-.81-.39-1.21-.01-.12,0-.25.02-.36.06-.26.27-.39.53-.37.32.03.62.23.86.43.31.26.57.59.76.95.2.38.31.82.26,1.26-.03.27-.15.58-.46.6-.3.02-.59-.2-.8-.38-.22-.19-.42-.4-.59-.64-.02,0-.04-.02-.05-.04ZM88.59,58.34c-.08.43-.37.79-.75.99-.26.14-.56.16-.83.02-.28-.15-.48-.42-.62-.7-.18-.34-.31-.71-.39-1.09-.09-.39-.14-.79-.13-1.19,0-.33.04-.68.17-.99.1-.23.27-.44.53-.48.33-.05.65.16.9.35.01.01.02.02.02.03.42.27.68.78.85,1.22.22.56.35,1.21.24,1.81ZM88.35,42.75c-.18.06-.38.03-.56-.03-.29-.08-.56-.23-.81-.39-.5-.31-.95-.73-1.36-1.16-.48-.51-.93-1.08-1.25-1.71-.09-.19-.18-.4-.24-.61-.03,0-.05,0-.07-.04-.08-.16-.15-.33-.19-.5-.07-.28-.09-.6.04-.87.13-.26.4-.4.68-.44.37-.05.74.07,1.07.23.36.18.69.43,1,.7.48.42.93.92,1.27,1.46.25.4.45.84.6,1.29.14.41.26.86.25,1.3,0,.31-.11.66-.44.76ZM89.61,35.29c.03-.21.2-.33.4-.36.08-.01.12.07.1.12.33-.18.79.06,1.08.28.23.18.44.4.6.65.13.2.26.44.26.68,0,.22-.13.4-.33.48-.22.09-.47.03-.69-.06-.51-.22-.97-.67-1.25-1.15-.11-.19-.21-.42-.17-.64ZM90.27,39.51s.05-.07.08-.06c0,0,0,0,0,0,.22-.58,1.08-.08,1.4.13.29.19.57.42.82.66.22.21.43.44.58.71.11.2.15.41.03.63-.11.2-.32.27-.54.27-.28,0-.56-.12-.81-.25-.3-.16-.57-.36-.82-.58-.38-.35-.89-.93-.74-1.5ZM93.31,57.03c-.03.22-.12.45-.23.64-.08.15-.18.3-.32.41-.58.45-1.2-.24-1.5-.68-.24-.34-.43-.72-.58-1.11-.15-.37-.26-.75-.31-1.14-.03-.26-.06-.59.1-.82.11-.17.29-.21.48-.19.26-.29.67-.09.93.11.44.34.78.81,1.04,1.29.24.44.47.98.4,1.5Z"/>
          <path class="cls-4" d="M40.42,58.47c-.11-.73-.1-1.47.04-2.19.17-.9.52-1.75.95-2.56.81-1.54,1.88-2.96,3.12-4.18,1.11-1.09,2.42-2.04,3.91-2.54-.58-.1-1.18-.03-1.74.11-.67.17-1.32.45-1.9.83-.06.04-.12-.01-.13-.07-.07-.55-.18-1.1-.36-1.62-.28-.83-.72-1.59-1.28-2.27-.3-.37-.64-.71-.98-1.03.16.22.31.44.45.67.36.58.67,1.19.9,1.83.41,1.11.68,2.52,0,3.58-.32.5-.84.89-1.39,1.09-.52.19-1.09.19-1.63.06-1.2-.31-2.21-1.2-3.03-2.1-.68-.74-1.3-1.57-1.79-2.46.14,1.13.36,2.27.2,3.41-.01.08-.12.07-.16.02-.23-.34-.39-.72-.55-1.1-.29-.69-.57-1.39-1.05-1.97-.04-.05-.09-.1-.13-.15.11.29.19.59.25.89.15.87.02,1.78-.51,2.51-.56.78-1.44,1.27-2.36,1.5-.96.24-1.98.23-2.96.07-.81-.13-1.6-.37-2.34-.72.57.62,1.37.99,2.04,1.49.07.05.05.16-.04.16-.87.04-1.74.11-2.61.17-1.26.09-2.52.17-3.78.14,2.66.45,5.28.29,7.95.07,1.61-.14,3.24-.22,4.86-.03.73.09,1.47.22,2.17.49.65.25,1.27.58,1.9.88.46.22.94.46,1.44.65-.23.7-.39,1.44-.41,2.18-.01.71.11,1.42.4,2.08.23.52.54,1,.9,1.43-.16-.42-.27-.86-.34-1.31Z"/>
          <path class="cls-4" d="M47.86,62.02c-1.27-.22-2.57-.72-3.49-1.64-.44-.44-.77-.97-.95-1.57-.08-.27-.13-.56-.15-.84-.08.37-.11.75-.07,1.13.15,1.49,1.2,2.82,2.52,3.48.66.33,1.4.49,2.14.42.74-.07,1.42-.39,1.98-.86-.66.03-1.33-.01-1.98-.12Z"/>
          <path class="cls-4" d="M61.09,41.93c.59-.47,1.13-.99,1.65-1.55.54-.58,1.11-1.13,1.73-1.63,1.21-.97,2.57-1.75,4.05-2.23,1.35-.43,2.76-.59,4.17-.45-.04-.02-.08-.04-.12-.06-.71-.3-1.5-.33-2.25-.23-.81.1-1.6.34-2.36.63-.73.27-1.45.57-2.16.88-.83.36-1.65.75-2.44,1.18-.78.43-1.54.9-2.25,1.43-.54.4-1.06.84-1.57,1.27-1.12.93-2.25,1.87-3.51,2.61-.61.35-1.29.68-1.99.85,1.14-.07,2.26-.27,3.34-.64,1.35-.46,2.61-1.17,3.72-2.07Z"/>
          <path class="cls-4" d="M92.51,38.41c-.61-.48-1.26-.91-1.92-1.3-.62-.37-1.27-.71-1.96-.96-.52-.2-1.12-.38-1.7-.34.1.04.2.07.3.11,1.66.65,3.25,1.54,4.62,2.69,1.03.86,1.98,1.87,2.69,3.01.29.46.63,1.04.6,1.61-.01.31-.22.5-.53.49-.37-.01-.74-.21-1.06-.39-.46-.25-.89-.55-1.32-.85-.42-.3-.84-.62-1.25-.94-.11-.09-.23-.18-.34-.27.29.35.62.68.95,1,.97.94,2.01,1.85,2.79,2.96.35.51.66,1.06.8,1.67.14.61.1,1.23-.11,1.82-.02.06-.1.09-.14.04-.3-.32-.58-.66-.84-1-.47-.61-.92-1.24-1.48-1.77-.47-.45-1.02-.8-1.63-1.02.21.16.42.32.61.5.67.58,1.32,1.25,1.75,2.04.39.72.56,1.55.16,2.31-.02.03-.06.05-.1.04-.54-.14-.95-.57-1.32-.96-.33-.35-.67-.74-1.1-.98.58.8,1.34,1.47,1.96,2.25.57.7,1.04,1.51,1.14,2.42.02.19.03.44-.13.57-.14.11-.32.07-.47,0-.23-.1-.44-.25-.64-.4-.25-.19-.49-.4-.72-.61-.22-.2-.44-.4-.65-.6-.06-.06-.12-.12-.19-.17.31.62.8,1.14,1.26,1.65.5.54,1,1.1,1.32,1.76.1.2.17.41.22.62.06.18.11.36.14.54.11.57.13,1.15.06,1.72,1.82-3.04,2.13-6.75,1.84-10.22-.18-2.14-.55-4.26-1.09-6.33-.26-.37-.54-.73-.84-1.07-.51-.59-1.08-1.13-1.69-1.62Z"/>
          <path class="cls-4" d="M78.82,24.28c.14-.21.27-.44.4-.66.21-.36.42-.72.66-1.07.35-.52.83-1.11,1.49-1.2.76-.11,1.46.5,1.87,1.08.53.75.76,1.68.89,2.57.11.77.16,1.54.2,2.31.15-.49.25-.99.28-1.5.1-1.57-.34-3.1-1-4.52-3.29-3.34-7.08-6.18-11.18-8.33.28.54.55,1.08.8,1.63.43.91.82,1.84,1.13,2.81.32,1.01.55,2.04.68,3.09.25,2.02.17,4.05-.13,6.05.48-1.33.81-2.74.77-4.16-.03-1.16-.17-2.34.02-3.48.07-.44.21-.91.57-1.2.36-.28.81-.43,1.23-.22.4.19.66.61.85.99.22.44.37.9.49,1.38.16.65.23,1.32.22,1.99-.01.82-.14,1.63-.25,2.44Z"/>
          <path class="cls-4" d="M53.81,53.62c.54.02,1.09-.04,1.6-.23.54-.2,1-.54,1.38-.98.43-.5.69-1.1.93-1.71.23-.58.49-1.18.95-1.63.54-.52,1.3-.76,2.02-.9.68-.13,1.37-.18,2.06-.29-.26-.12-.53-.21-.81-.26-1.27-.22-2.56.34-3.49,1.17-.05.04-.13.03-.14-.04-.23-.97.13-1.96-.02-2.93-.43.7-.75,1.47-1.1,2.21-.34.73-.71,1.45-1.22,2.08-.5.62-1.15,1.11-1.91,1.36-1.07.36-2.26.28-3.37.25-1.08-.03-2.18-.02-3.19.37.96.14,1.9.45,2.82.74,1.14.35,2.31.73,3.51.77Z"/>
          <path class="cls-4" d="M61.16,54.45c-1.05-.39-2.22-.41-3.33-.3-1.04.11-2.1.34-3.05.78-.52.24-1.02.59-1.62.45-.3-.07-.58-.21-.88-.3-.35-.11-.7-.18-1.07-.21-1.05-.09-2.38.08-3.11.89.45-.09.9-.16,1.36-.19.77-.06,1.55-.01,2.28.22.78.25,1.47.7,2.08,1.25,1.1,1,1.87,2.31,2.45,3.67.03-.26.04-.52.03-.78-.05-1.26-.59-2.49-1.5-3.36-.04-.04-.03-.11.02-.13.57-.28,1.18-.51,1.79-.67,1.17-.32,2.42-.46,3.62-.3,1.05.14,2.09.52,2.86,1.26,0-.06-.02-.12-.03-.18-.1-.5-.32-.96-.67-1.32-.34-.35-.77-.6-1.23-.77Z"/>
          <g>
            <path class="cls-7" d="M11.67,32.98c-.28-.56-.54-1.12-.77-1.7-.45-1.15-.79-2.38-.93-3.61-.02-.17-.28-.02-.29.1-.07.66-.08,1.34.03,2,.1.63.28,1.24.5,1.84.22.6.5,1.19.79,1.77.28.56.64,1.12,1.12,1.54.09.08.23-.06.22-.15-.1-.63-.38-1.23-.66-1.79Z"/>
            <path class="cls-7" d="M15.75,43.08c-.27-.54-.63-1.03-.92-1.56-.14-.26-.28-.53-.4-.8-.06-.13-.12-.27-.18-.4-.06-.11-.13-.27-.26-.3-.07-.01-.15.01-.2.07-.19.24-.09.63,0,.89.1.33.24.63.39.94.29.57.64,1.14,1.17,1.51.19.14.5-.14.4-.34Z"/>
            <g class="cls-10">
              <path class="cls-8" d="M17.06,20.57c0-.21,0-.46-.08-.66-.06-.15-.22-.23-.38-.18-.64.2-.95.8-1.09,1.42-.02.07-.03.14-.04.21-.1.37-.14.75-.11,1.12.01.11.04.21.08.3,0,0,0,0,0,0,.01.06.05.1.09.14.04.04.08.08.13.11.24.16.54.11.76-.06.44-.33.53-1,.59-1.51.03-.3.05-.6.04-.89Z"/>
              <path class="cls-8" d="M16.6,20.43s0,0,0,0c0,0,0,0,.01,0,0,0,0,0,0,0,0,0,0,0,0,0Z"/>
              <polygon class="cls-8" points="16.61 20.43 16.61 20.43 16.62 20.43 16.62 20.42 16.61 20.43"/>
            </g>
            <path class="cls-7" d="M15.67,24.91s-.03-.07-.05-.09c-.02-.03-.05-.05-.09-.06-.03,0-.05,0-.08-.01-.03,0-.05,0-.08,0-.03,0-.06.02-.09.03-.03.02-.06.03-.08.05-.05.03-.1.09-.13.14-.02.03-.04.07-.04.11,0,.01,0,.03,0,.04,0,.04,0,.08.01.12,0,0,0,.02,0,.03,0,0,0,0,0,0-.02.04-.02.08,0,.13.01.04.03.07.07.1.08.06.18.04.27,0,.1-.04.17-.11.22-.19.02-.03.04-.07.05-.11.01-.05.02-.1.03-.15.01-.05.02-.09,0-.15Z"/>
            <path class="cls-7" d="M23.57,25.37c-.09-.36-.18-.71-.26-1.07-.16-.71-.29-1.43-.44-2.15-.24-1.2-.54-2.38-.69-3.6-.04-.31-.06-.63-.06-.94,0-.29,0-.57.07-.85.04-.19-.19-.14-.26-.04-.74,1.03-.53,2.45-.32,3.62.11.6.25,1.19.37,1.79.15.73.32,1.45.54,2.16.13.4.26.81.43,1.2.16.36.32.78.59,1.09.11.12.32-.03.3-.17-.05-.35-.19-.7-.27-1.05Z"/>
            <path class="cls-7" d="M25.82,29.96s0-.02,0-.03c-.01-.04-.03-.08-.04-.12-.01-.04-.03-.08-.07-.1-.04-.02-.08-.04-.13-.04-.05,0-.1,0-.15.02,0,0,0-.02-.01-.03,0-.02-.01-.03-.03-.05-.01-.01-.03-.02-.05-.03-.04-.01-.09,0-.13.01-.04.02-.09.05-.11.09-.02.03-.04.08-.02.12.02.04.04.09.06.13,0,0,0,0,0,0,0,0,0-.02-.01-.03,0,.01,0,.02.01.03,0,.01-.01.02-.01.03-.01.04-.02.07-.02.11,0,.03,0,.06,0,.08,0,0,0,0,0,0,0,.01.01.03.02.04,0,0,0,0,0,.01,0,0,0,0,0,0,.02.03.05.06.09.07.02,0,.05,0,.07,0,0,.01.01.02.02.04.06.08.16.08.24.05.05-.02.09-.04.13-.07.04-.03.08-.08.1-.14.01-.05.03-.09.03-.14,0-.03,0-.06,0-.08Z"/>
            <path class="cls-7" d="M33.42,19.54c-.02-.45-.09-1.18-.6-1.36-.2-.07-.46.08-.56.27-.21.24-.3.62-.35.92-.09.44-.14.96,0,1.4.06.19.18.38.39.44.27.08.57-.06.76-.25.34-.35.4-.95.37-1.41Z"/>
            <path class="cls-7" d="M32.94,23.98s0-.09-.03-.13c-.03-.04-.07-.06-.11-.08-.01,0-.02,0-.04,0-.03,0-.05,0-.08,0-.03,0-.05,0-.07.01,0,0-.02,0-.02,0-.02,0-.04,0-.06,0-.03,0-.07,0-.1.02-.02.01-.04.02-.06.04-.02.02-.04.03-.06.05-.02.02-.04.05-.06.08,0,.01-.01.02-.01.03h0s0,0,0,0c0,.01,0,.03,0,.05,0,0,0,.02,0,.03,0,0,0,.02,0,.03,0,.01,0,.03,0,.04,0,0,0,.01,0,.02,0,0,0,0,0,.01,0,.06,0,.07.03.12,0,0,0,0,0,0,0,0,.01.01.02.02.02.02.03.04.05.05,0,0,0,0,0,0,0,0,0,0,0,0,0,0,.06.03.06.03.02,0,.05.01.08.01,0,0,0,0,0,0,0,0,.08,0,.08,0,0,0,0,0,0,0,.05,0,.13-.04.17-.08,0,0,.05-.04.07-.07,0,0,0,0,0,0,0,0,.01-.02.02-.02.02-.02.04-.04.05-.07,0,0,0-.02.01-.03.02-.03.04-.06.05-.09,0-.02.01-.05.02-.07Z"/>
            <path class="cls-7" d="M36.88,27.47c-.07-.05-.15-.06-.23-.04,0-.04-.04-.08-.09-.09-.08-.01-.17.04-.22.11-.13.21-.17.46-.12.7.05.23.17.43.35.59.06.06.18.04.25.02.1-.03.19-.1.24-.19.22-.35.18-.85-.18-1.1Z"/>
            <path class="cls-7" d="M38.73,43.8c-.16-.38-.43-.85-.86-.96-.23-.06-.48.1-.56.32-.12.01-.22.12-.28.22-.14.24-.15.48-.08.75.08.26.2.52.35.74.12.18.27.39.47.5.21.12.45.16.69.07.21-.08.38-.28.44-.49.1-.38-.01-.79-.16-1.14Z"/>
            <path class="cls-7" d="M45.87,25.86c-.02-.2-.09-.38-.18-.56-.09-.18-.2-.36-.33-.52-.1-.13-.22-.28-.36-.36-.28-.17-.65.1-.69.39-.03.18,0,.4.13.55,0,0,.01.01.01.02,0,0,0,0,0,0,.04.33.11.66.27.95.07.13.17.24.31.29.19.07.41,0,.56-.12.21-.16.31-.38.29-.64Z"/>
            <path class="cls-7" d="M81.89,44.87c-.16-.48-.38-.94-.63-1.38-.23-.4-.48-.79-.75-1.17-.31-.42-.68-.8-1.03-1.18-.39-.42-.78-.83-1.16-1.25-.15-.16-.47.03-.42.24.23.98,1.1,1.69,1.71,2.45.28.35.53.73.79,1.1.28.4.55.81.8,1.23.14.23.27.46.39.7.11.23.19.47.28.7.06.13.26.03.27-.09.03-.44-.11-.93-.25-1.34Z"/>
            <path class="cls-7" d="M76.52,60.07c-.11-.45-.42-.88-.7-1.23-.13-.16-.26-.31-.42-.44-.22-.18-.49-.39-.78-.44-.33-.06-.69.11-.81.44-.07.21-.03.44.04.64,0,.01.01.03.02.04.05.16.13.33.22.47.12.21.27.41.42.6.26.32.56.69.98.79.31.08.63.05.88-.18.19-.18.22-.44.16-.69Z"/>
            <path class="cls-7" d="M85.69,38.88c-.05-.05-.14-.06-.22-.05,0,0-.02,0-.02,0-.05,0-.1.02-.14.06-.08.04-.15.09-.21.16-.07.08-.16.22-.11.34.05.14.12.27.22.39.02.02.04.05.06.07.05.15.12.29.24.39.12.1.29.12.44.09.16-.03.35-.19.35-.36.01-.44-.29-.81-.6-1.08Z"/>
            <path class="cls-7" d="M87.27,56.81s-.02-.05-.03-.07c-.01-.06-.04-.11-.09-.14,0,0-.02,0-.03-.01-.06-.05-.12-.09-.2-.12-.04-.02-.09-.02-.14-.01,0-.08-.11-.11-.18-.1-.11.03-.18.1-.2.21,0,.04,0,.07-.01.11,0,.03,0,.06-.01.1-.01.03-.02.06-.02.09,0,.08.01.14.05.22,0,.01.02.02.02.03.05.13.12.24.2.34.07.08.17.1.27.08.11-.02.24-.1.29-.2.02-.05.05-.1.07-.15.01-.05.02-.1.03-.15,0-.07,0-.15-.02-.22Z"/>
            <path class="cls-7" d="M80.77,26.52c-.04-.27-.24-.44-.48-.53-.17-.06-.4.05-.51.17-.06.07-.13.14-.19.22-.22.09-.4.28-.53.48-.21.34-.34.77-.34,1.18,0,.22.03.43.13.62.06.1.21.12.31.09.22-.05.41-.17.57-.31.21-.18.4-.38.57-.6.27-.37.53-.85.47-1.32Z"/>
            <path class="cls-7" d="M77.66,30.1s-.05-.05-.08-.06c-.03-.02-.07-.03-.11-.03-.06,0-.11.01-.17.04-.06.02-.11.06-.17.1-.04.03-.08.06-.11.1-.03.04-.06.07-.09.11-.02.03-.04.05-.05.08,0,0,0,.01-.01.02,0,.01-.01.03-.02.04,0,.01-.02.03-.02.04,0,0,0,0,0,.01,0,0,0,.01,0,.02,0,0,0,0,0,.01,0,.02,0,.05-.01.07,0,.02,0,.05,0,.07,0,.03.02.06.05.08.02.03.05.04.08.05.02,0,.05,0,.07.01.04,0,.08,0,.12-.02.01,0,.03-.01.04-.02,0,0,0,0,0,0,.01,0,.02-.01.03-.02,0,0,0,0,0,0,.02-.01.04-.02.06-.04.04-.03.07-.05.11-.09.02-.02.04-.04.06-.05-.03.02-.05.04-.08.07.06-.05.12-.1.17-.15.04-.03.06-.08.09-.12,0,0,.01-.02.02-.02.04-.05.05-.11.06-.17,0-.05,0-.09-.04-.14Z"/>
            <g class="cls-10">
              <path class="cls-8" d="M64.72,43.08s0,0,0,0c0,0,0,0,0,0,0,0,0,0,.01.01.02.01.02.01-.02-.02Z"/>
              <path class="cls-8" d="M65.41,42.37c-.2-.27-.52-.4-.84-.34-.14-.11-.32-.11-.48-.05-.39.14-.6.56-.65.94-.04.32.02.67.14.96.13.31.33.59.66.71.37.14.84-.05,1.09-.34.23-.26.34-.61.34-.96,0-.32-.07-.66-.26-.92ZM64.75,43.11s0,0,0,0c0,0,0,0-.01-.01,0,0-.01-.01-.02-.02,0,0,0,0,0,0-.05-.05-.09-.1-.13-.16-.02-.02-.03-.05-.04-.07,0,0,0-.01-.01-.02,0,0,0-.02-.01-.02,0,0,0,0,0,.01,0-.02,0-.03-.01-.05.01,0,.02,0,.04.01.02.01.03.02.05.03,0,0,.01.01.02.02,0,0,0,0,0-.01,0,0,0,.01.01.02,0,0,0,0,0,0,.02.01.03.03.02.03.02.02.04.04.05.07.01.02.03.04.04.07,0,0,0,.02.01.03.02.05.03.09.05.14-.02-.02-.04-.04-.06-.05Z"/>
              <path class="cls-8" d="M64.53,42.81s0,0,0,0c0,0,0,0,0,0,0,0,0,0,0,.01,0,0,0,0,0,.01,0,0,0,0-.02-.03Z"/>
              <path class="cls-8" d="M64.65,42.86s-.02-.02-.02-.03c0,0,0,0,0,0,.02.02.02.03.03.03Z"/>
            </g>
            <path class="cls-7" d="M66.69,44.41s-.01-.05-.02-.08c-.02-.06-.06-.11-.09-.17,0-.02-.02-.04-.04-.06-.02-.02-.04-.04-.07-.04-.03,0-.06-.01-.1,0-.04,0-.07,0-.1.03-.07.03-.13.08-.17.15,0,.02-.02.04-.03.06-.01.04-.02.08,0,.12,0,.03,0,.06.02.09.01.04.02.09.05.12,0,.02,0,.04,0,.06,0,.04.04.08.08.1.02.01.05.02.07.03.03,0,.06.01.09.02.04,0,.09,0,.13-.03.03-.01.06-.03.09-.06.03-.02.05-.05.07-.08.02-.03.04-.07.04-.11,0-.04,0-.09,0-.13Z"/>
          </g>
        </g>
      </g>
      <circle class="cls-2" cx="36.91" cy="31.56" r="17.77" transform="translate(-6.37 53.58) rotate(-67.5)"/>
      <g>
        <path class="cls-12" d="M44.54,32.13c0,5.27-4.27,9.54-9.54,9.54s-9.54-4.27-9.54-9.54,4.27-9.54,9.54-9.54,9.54,4.27,9.54,9.54Z"/>
        <circle class="cls-11" cx="35" cy="32.13" r="20.43" transform="translate(.3 64.58) rotate(-85.63)"/>
        <path class="cls-13" d="M49.39,32.13c0,7.94-6.44,14.38-14.38,14.38s-14.38-6.44-14.38-14.38,6.44-14.38,14.38-14.38,14.38,6.44,14.38,14.38Z"/>
        <g>
          <polygon class="cls-15" points="34.85 38.63 36.18 42.66 33.51 42.66 34.85 38.63"/>
          <polygon class="cls-15" points="34.85 43.09 36.59 48.35 33.1 48.35 34.85 43.09"/>
          <polygon class="cls-15" points="34.85 48.56 37.14 55.47 32.56 55.47 34.85 48.56"/>
          <polygon class="cls-15" points="28.4 32.16 24.37 33.5 24.37 30.83 28.4 32.16"/>
          <polygon class="cls-15" points="23.94 32.16 18.68 33.91 18.68 30.42 23.94 32.16"/>
          <polygon class="cls-15" points="18.47 32.16 11.57 34.45 11.57 29.87 18.47 32.16"/>
          <polygon class="cls-15" points="34.65 25.63 33.31 21.6 35.98 21.6 34.65 25.63"/>
          <polygon class="cls-15" points="34.65 21.17 32.9 15.91 36.39 15.91 34.65 21.17"/>
          <polygon class="cls-15" points="34.65 15.7 32.36 8.79 36.94 8.79 34.65 15.7"/>
          <polygon class="cls-15" points="41.6 32.16 45.63 30.83 45.63 33.5 41.6 32.16"/>
          <polygon class="cls-15" points="46.06 32.16 51.32 30.42 51.32 33.91 46.06 32.16"/>
          <polygon class="cls-15" points="51.53 32.16 58.44 29.87 58.44 34.45 51.53 32.16"/>
        </g>
        <path class="cls-9" d="M49.13,32.13c0,7.81-6.33,14.13-14.13,14.13s-14.13-6.33-14.13-14.13,6.33-14.13,14.13-14.13,14.13,6.33,14.13,14.13Z"/>
      </g>
    </g>
  </g>
</svg>