<?xml version="1.0" encoding="UTF-8"?>
<svg xmlns="http://www.w3.org/2000/svg" viewBox="0 0 100 100">
  <defs>
    <style>
      .cls-1 {
        fill: #e1efef;
      }

      .cls-2 {
        opacity: .3;
      }

      .cls-2, .cls-3 {
        fill: #01a9d6;
      }

      .cls-2, .cls-4, .cls-5, .cls-6 {
        mix-blend-mode: multiply;
      }

      .cls-7, .cls-4 {
        opacity: .2;
      }

      .cls-7, .cls-4, .cls-8 {
        fill: #934a38;
      }

      .cls-9 {
        fill: #ffc0bb;
      }

      .cls-10 {
        fill: #f7fbfa;
      }

      .cls-11 {
        isolation: isolate;
      }

      .cls-12 {
        fill: #894031;
      }

      .cls-13, .cls-14 {
        fill: #ceecf4;
      }

      .cls-15 {
        fill: #f99893;
      }

      .cls-16 {
        opacity: .6;
      }

      .cls-16, .cls-5, .cls-17 {
        fill: #d6e4e4;
      }

      .cls-18 {
        fill: #333;
      }

      .cls-14, .cls-5, .cls-6 {
        opacity: .5;
      }

      .cls-19 {
        fill: #b9704e;
      }

      .cls-20 {
        fill: #752911;
      }
    </style>
  </defs>
  <g class="cls-11">
    <g id="Layer_2" data-name="Layer 2">
      <g>
        <polygon class="cls-12" points="68.19 79.48 69.52 78.61 71.75 69.36 68.19 68.94 68.19 79.48"/>
        <polygon class="cls-8" points="64.56 68.7 65.57 79.48 68.19 79.48 69.91 68.7 64.56 68.7"/>
        <polygon class="cls-12" points="89.46 79.48 88.13 78.61 85.89 69.36 89.46 68.94 89.46 79.48"/>
        <polygon class="cls-8" points="93.08 68.7 92.08 79.48 89.46 79.48 87.74 68.7 93.08 68.7"/>
        <polygon class="cls-12" points="34.96 79.48 33.63 78.61 31.39 69.36 34.96 68.94 34.96 79.48"/>
        <polygon class="cls-8" points="38.58 68.7 37.58 79.48 34.96 79.48 33.24 68.7 38.58 68.7"/>
        <polygon class="cls-12" points="10.62 79.48 11.95 78.61 14.19 69.36 10.62 68.94 10.62 79.48"/>
        <polygon class="cls-8" points="7 68.7 8 79.48 10.62 79.48 12.35 68.7 7 68.7"/>
        <path class="cls-1" d="M6.5,55.28c.18-.28,12.56-5.13,12.56-5.13l10.79,5.03-2.04,5.66s-17.09-2.63-17.31-2.85c-.23-.23-3.99-2.71-3.99-2.71Z"/>
        <path class="cls-8" d="M39.39,32.13l-.66,17.62-19.4,1.09-11.91,4.45s-4.5-20.32-4.22-20.59c.27-.27,4.53-5.35,4.8-5.53.27-.18,8.2-3.17,8.48-3.17s7.03-.95,7.03-.95l5.67.77,4.71,1.59s2.67,1.6,3.04,1.5c.16-.04.65.25,1.16.6.86.59,1.36,1.59,1.32,2.63Z"/>
        <polygon class="cls-17" points="7.41 55.28 8.93 67.6 41.15 67.78 40.66 55.28 7.41 55.28"/>
        <path class="cls-5" d="M8,60.05l.93,7.55,32.22.18-.29-7.25c-17.25,2.27-27.17,1.4-32.86-.48Z"/>
        <path class="cls-10" d="M26.18,39.04s-13.44,6.17-14.45,9.26c-1.01,3.08,1.47,3.71,2.65,4.67,1.19.96,2.82,1.11,4.21,1.18,1.39.07,4.56.81,6.05,1.57,1.49.76,4.95,1.96,7.3,1.48,2.35-.48,6.83-4.75,6.83-4.75l1.91-5.72-5.75-6.77-8.75-.91Z"/>
        <path class="cls-14" d="M38.93,49.32s-4.54,4.32-6.92,4.81c-2.38.49-5.88-.73-7.39-1.5-1.51-.77-4.71-1.52-6.12-1.59-1.41-.07-3.06-.22-4.26-1.19-.67-.54-1.76-.98-2.4-1.81-.05.09-.08.17-.11.26-1.01,3.08,1.47,3.71,2.65,4.67,1.19.96,2.82,1.11,4.21,1.18,1.39.07,4.56.81,6.05,1.57,1.49.76,4.95,1.96,7.3,1.48,2.35-.48,6.83-4.75,6.83-4.75l1.91-5.72-.63-.75-1.12,3.35Z"/>
        <g>
          <path class="cls-15" d="M36.07,39.85c.56.74,1.49.97,2.08.52.59-.45.61-1.41.05-2.15-.56-.74-1.49-.97-2.08-.52-.59.45-.61,1.41-.05,2.15Z"/>
          <path class="cls-9" d="M39.53,41.54c-.74-.91-1.64-1.69-2.47-2.29-.18-.13-.35-.27-.52-.41-.68-.58-1.48-1.04-2.4-1.35-2.98-.99-6.32.13-8.12,2.71-2.42,3.48-1.32,8.18,2.23,10.27-.44.26-.75.66-.8,1.15-.11.93.75,1.78,1.9,1.91,1.16.13,2.18-.52,2.28-1.44.01-.13,0-.26-.01-.38,3.2,1.47,6.99.36,8.7-2.64,1.3-2.29,1.11-5.28-.79-7.53Z"/>
          <path class="cls-20" d="M32.58,44.33c-.26.2-.49.41-.7.63-.2.22-.37.46-.5.72-.13.26-.23.53-.27.83-.04.17-.01.02-.06.45-.02.16-.01.31-.04.48-.07-.15-.14-.3-.18-.46-.03-.16-.08-.33-.07-.5-.02-.34.07-.69.23-1.01.16-.31.4-.58.67-.78.28-.19.6-.33.93-.36Z"/>
          <path class="cls-18" d="M32.67,47.03c.17-.11.33-.22.47-.34.14-.12.26-.26.35-.4.09-.15.18-.31.22-.49.03-.09.05-.18.07-.27.02-.09.03-.19.05-.29.04.09.06.19.08.29,0,.1.03.21,0,.31-.01.21-.09.42-.2.6-.12.18-.28.33-.46.43-.18.1-.39.16-.59.16Z"/>
          <path class="cls-18" d="M35.4,43.12c.17-.11.33-.22.47-.34.14-.12.26-.26.35-.4.09-.15.18-.31.22-.49.03-.09.05-.18.07-.27.02-.09.03-.19.05-.29.04.09.06.19.08.29,0,.1.03.21,0,.31-.01.21-.09.42-.2.6-.12.18-.28.33-.46.43-.18.1-.39.16-.59.16Z"/>
          <path class="cls-15" d="M36.33,47.21c.17-.11.33-.22.47-.34.14-.12.26-.26.35-.4.09-.15.18-.31.22-.49.03-.09.05-.18.07-.27.02-.09.03-.19.05-.29.04.09.06.19.08.29,0,.1.03.21,0,.31-.01.21-.09.42-.2.6-.12.18-.28.33-.46.43-.18.1-.39.16-.59.16Z"/>
          <path class="cls-20" d="M33.85,42.52c-.11-.31-.12-.66-.07-1,.06-.34.2-.67.42-.94.22-.27.5-.5.82-.63.15-.08.32-.11.48-.15.17-.03.33-.03.5-.03-.14.09-.29.16-.42.24-.36.22-.27.16-.38.25-.25.17-.45.38-.63.6-.18.23-.32.48-.44.76-.11.28-.2.58-.28.9Z"/>
          <path class="cls-15" d="M33.43,43.8c.24.26.51.47.81.65.15.09.31.17.48.23.17.06.36.11.57.09h.08s.07-.03.07-.03c.03,0,.06-.02.1-.02.06,0,.12,0,.18.02.12.03.2.14.26.27.12.27.08.61-.02.94.22-.27.37-.64.27-1.03-.05-.19-.18-.39-.39-.48-.05-.02-.1-.04-.16-.05-.06-.01-.11-.01-.16,0-.06,0-.1.02-.16.03-.03,0-.04,0-.06,0h-.05c-.13.02-.28-.01-.44-.05-.15-.04-.31-.11-.46-.17-.31-.13-.61-.28-.93-.42Z"/>
          <path class="cls-20" d="M33.5,35.78s.56-1.01.37-1.58c0,0-.37,1.46-2.06,1.09-1.69-.37-3.91.04-5.53,1.65-1.61,1.61-4.45,6.66-4.04,8.68.41,2.02,1.29,3.23,2.99,4.19,1.7.95,2.06,1.89,1.75,2.39,0,0,.63-.45.7-1.3,0,0,.68.51.48,1.29,0,0,.86-1.63.15-2.56,0,0,1.77,1.17,1.91,1.82,0,0,.3-1.55-2.42-3.77,0,0,1.38-6.24-.36-8.59,0,0,1.85,2.2,1.69,3.23,0,0,1.48-2.04.18-4.5,0,0,2.18-.78,3.24-.66,1.02.11,3.15,1.06,3.29,1.15l-1.76-2.1s.77-.26.96-1.23c0,0-.99.89-1.54.8Z"/>
        </g>
        <path class="cls-8" d="M84.76,48.39s-10.9-2.84-21.87,5.29c-1.22.91-1.8,2.45-1.46,3.93l2.75,12.11s11.58-1.88,11.7-2.13c.12-.24,5.4-3.14,5.66-4.71s3.21-14.5,3.21-14.5Z"/>
        <path class="cls-19" d="M2.19,37.39l3.57,32.57c.09.8.76,1.41,1.57,1.41h86.15l4.56-15.83c.31-1.07-.13-2.22-1.07-2.82-4.28-2.7-16.74-8.84-30.25.55-1.62,1.13-2.45,3.1-2.15,5.05l1.5,9.59-57.14-.31-3.71-30.11c-.22-1.78.38-3.56,1.62-4.84,4.15-4.27,14.42-12.27,32.04-2.32,0,0-5.73-7.39-21.11-5.34-7.65,1.02-11.63,4.01-13.71,6.37-1.45,1.65-2.12,3.84-1.88,6.02Z"/>
        <polygon class="cls-7" points="8.93 67.6 8.48 68.21 35.4 68.21 33.17 67.74 8.93 67.6"/>
        <path class="cls-3" d="M63.22,65.44l-1.78-7.82h0c-.34-1.48.23-3.03,1.46-3.93,8.49-6.29,16.93-6.01,20.32-5.57l.65.1s-3.5-1.22-5.55-2.19c-2.05-.97-4.9-1.81-8.04-2.12-3.14-.3-7.86-1.09-10.7-3.2-2.84-2.12-5.98-1.99-5.98-1.99h-2.3s-5.68,2.9-5.8,3.08c-.12.18-4.47,5.32-4.9,5.92-.42.6-3.69,12.45-3.69,12.45,0,0,.3,7.86,2.05,8.58,1.75.73,8.22.36,11.18-.24,2.96-.6,6.53.79,8.04,1.09,1,.2,4.04.17,6,.13l-.97-4.29Z"/>
        <path class="cls-2" d="M61.6,58.32c-3.41.91-6.81,1.97-8.82,1.57-3.72-.73-4.9-3.35-8.61-4.61-2.36-.8-3.77-3.2-4.48-4.84-1.11,3.67-2.77,9.73-2.77,9.73,0,0,.3,7.86,2.05,8.58,1.75.73,8.22.36,11.18-.24,2.96-.6,6.53.79,8.04,1.09,1,.2,4.05.17,6.01.13l-2.6-11.4Z"/>
        <path class="cls-13" d="M53.59,38.72s-7.49,3.57-10.58,10.94c-3.08,7.37-4.05,19.1-4.05,19.1,0,0-3.81,1.21-5.8,0,0,0-.36-21.76,12.21-28.89,0,0,3.14-2.48,8.22-1.15Z"/>
        <path class="cls-16" d="M49.67,50.82h-1.24c-.07,0-.14.04-.18.1l-.7,1.03c-.1.15-.34.12-.39-.06l-.39-1.18c-.02-.07-.08-.12-.15-.14l-1.19-.35c-.18-.05-.22-.28-.07-.39l1-.74c.06-.04.09-.11.09-.18l-.04-1.24c0-.18.2-.29.35-.19l1.01.73c.06.04.14.05.2.03l1.17-.42c.17-.06.34.1.29.28l-.38,1.19c-.02.07,0,.15.04.2l.76.98c.11.14,0,.36-.17.36Z"/>
        <path class="cls-16" d="M63.99,49.78l-1.03-.7c-.06-.04-.14-.05-.2-.02l-1.16.46c-.17.07-.34-.09-.29-.27l.34-1.2c.02-.07,0-.15-.04-.2l-.79-.96c-.12-.14-.02-.35.16-.36l1.24-.04c.07,0,.14-.04.18-.1l.67-1.05c.1-.15.33-.13.39.04l.43,1.17c.02.07.08.12.15.14l1.2.31c.18.05.23.28.08.39l-.98.77c-.06.04-.09.12-.08.19l.08,1.24c.01.18-.19.3-.34.2Z"/>
        <path class="cls-16" d="M57.13,57.21l-1.03-.7c-.06-.04-.14-.05-.2-.02l-1.16.45c-.17.07-.34-.09-.29-.27l.35-1.2c.02-.07,0-.15-.04-.2l-.79-.96c-.12-.14-.02-.35.16-.36l1.24-.04c.07,0,.14-.04.18-.1l.67-1.05c.1-.15.33-.13.39.04l.42,1.17c.02.07.08.12.15.14l1.2.32c.18.05.22.28.08.39l-.98.76c-.06.04-.09.11-.08.19l.07,1.24c.01.18-.19.3-.34.2Z"/>
        <path class="cls-16" d="M60.93,66.63l-1.18-.4c-.07-.02-.14-.01-.2.03l-1,.74c-.15.11-.36,0-.35-.18l.02-1.24c0-.07-.03-.14-.09-.18l-1.01-.72c-.15-.11-.11-.34.06-.39l1.19-.37c.07-.02.12-.08.15-.14l.37-1.19c.05-.17.29-.21.39-.06l.72,1.02c.04.06.11.09.18.09h1.24c.18-.01.29.19.18.34l-.75,1c-.04.06-.06.13-.03.2l.4,1.18c.06.17-.11.34-.28.28Z"/>
        <path class="cls-16" d="M46.32,66.32l-1.11-.56c-.06-.03-.14-.03-.21,0l-1.09.6c-.16.09-.35-.05-.32-.23l.19-1.23c.01-.07-.01-.14-.07-.19l-.91-.85c-.13-.13-.06-.35.12-.38l1.23-.2c.07-.01.13-.06.16-.12l.53-1.13c.08-.17.31-.17.4,0l.57,1.11c.03.06.1.11.17.12l1.23.16c.18.02.26.24.13.37l-.88.88c-.05.05-.07.13-.06.2l.23,1.22c.03.18-.15.32-.32.24Z"/>
        <path class="cls-16" d="M58.39,42.52l1.18.4c.17.06.34-.11.28-.28l-.4-1.18c-.02-.07-.01-.14.03-.2l.3-.4c-.07-.05-.14-.1-.21-.15-.75-.56-1.52-.96-2.24-1.25l-.19.59c-.02.07-.08.12-.15.14l-1.19.37c-.18.05-.21.29-.06.39l1.01.72c.06.04.09.11.09.18l-.02,1.24c0,.18.21.29.35.18l1-.74c.06-.04.13-.06.2-.03Z"/>
        <path class="cls-16" d="M70.43,44.82l1.01.72c.06.04.09.11.09.18l-.02,1.24c0,.18.21.29.35.18l1-.74c.06-.04.13-.06.2-.03l1.18.4c.17.06.34-.11.28-.28l-.4-1.18c-.02-.07-.01-.14.03-.2l.34-.45c-.91-.24-1.87-.44-2.88-.59l-1.13.35c-.17.05-.21.29-.06.39Z"/>
        <g>
          <path class="cls-8" d="M82.83,54.47c0-1.15.69-2.15,1.68-2.59-.35-.16-.75-.25-1.16-.25-1.57,0-2.84,1.27-2.84,2.84s1.27,2.84,2.84,2.84c.41,0,.81-.09,1.16-.25-.99-.44-1.68-1.44-1.68-2.59Z"/>
          <path class="cls-4" d="M81.11,54.47c0-1.47,1.11-2.67,2.54-2.82-.1-.01-.2-.02-.3-.02-1.57,0-2.84,1.27-2.84,2.84s1.27,2.84,2.84,2.84c.1,0,.2,0,.3-.02-1.43-.15-2.54-1.36-2.54-2.82Z"/>
          <path class="cls-8" d="M79.94,56.62c-.06-.25-.28-.43-.54-.43-.05,0-.1,0-.14.02-.13-.28-.41-.47-.74-.47-.08,0-.17.01-.24.04-.18-.29-.5-.49-.86-.49-.44,0-.81.28-.95.66-.1-.06-.21-.09-.34-.09-.38,0-.69.31-.69.69,0,.02,0,.05,0,.07h4.51Z"/>
          <path class="cls-8" d="M90.05,54.24c-.05-.23-.26-.4-.5-.4-.04,0-.09,0-.13.02-.12-.26-.38-.44-.68-.44-.08,0-.15.01-.22.03-.16-.27-.46-.45-.8-.45-.4,0-.74.26-.87.61-.09-.05-.2-.08-.31-.08-.35,0-.64.29-.64.64,0,.02,0,.04,0,.06h4.16Z"/>
        </g>
        <path class="cls-7" d="M96.97,52.72c-1.65-1.04-4.53-2.6-8.22-3.58-1.12,8.43-6.11,20.89-25.67,22.22h30.4l4.56-15.83c.31-1.07-.13-2.22-1.07-2.82Z"/>
        <g class="cls-6">
          <path class="cls-8" d="M22.62,31.36c0-1.15.69-2.15,1.68-2.59-.36-.16-.75-.25-1.16-.25-1.57,0-2.84,1.27-2.84,2.84s1.27,2.84,2.84,2.84c.41,0,.81-.09,1.16-.25-.99-.44-1.68-1.44-1.68-2.59Z"/>
          <path class="cls-4" d="M20.9,31.36c0-1.47,1.11-2.67,2.54-2.82-.1-.01-.2-.02-.3-.02-1.57,0-2.84,1.27-2.84,2.84s1.27,2.84,2.84,2.84c.1,0,.2,0,.3-.02-1.43-.15-2.54-1.36-2.54-2.82Z"/>
          <path class="cls-8" d="M19.73,33.51c-.06-.25-.28-.43-.54-.43-.05,0-.1,0-.14.02-.13-.28-.41-.47-.74-.47-.08,0-.17.01-.24.04-.18-.29-.5-.49-.86-.49-.44,0-.81.28-.95.66-.1-.06-.21-.09-.34-.09-.38,0-.69.31-.69.69,0,.02,0,.05,0,.07h4.51Z"/>
          <path class="cls-8" d="M29.84,31.13c-.05-.23-.26-.4-.5-.4-.04,0-.09,0-.13.02-.12-.26-.38-.44-.68-.44-.08,0-.15.01-.22.03-.16-.27-.46-.45-.8-.45-.4,0-.74.26-.87.61-.09-.05-.2-.08-.31-.08-.35,0-.64.29-.64.64,0,.02,0,.04,0,.06h4.16Z"/>
        </g>
        <path class="cls-8" d="M63.78,67.91l.87,3.46h2.02l-.61-3.45s-1.17-2.01-1.36-1.89c-.18.12-.93,1.87-.93,1.87Z"/>
      </g>
    </g>
  </g>
</svg>