<?xml version="1.0" encoding="UTF-8"?>
<svg id="Layer_2" data-name="Layer 2" xmlns="http://www.w3.org/2000/svg" viewBox="0 0 100 100">
  <defs>
    <style>
      .cls-1 {
        fill: #dd323f;
      }

      .cls-2 {
        stroke: #ff7b86;
        stroke-width: 2.29px;
      }

      .cls-2, .cls-3, .cls-4, .cls-5 {
        stroke-linecap: round;
      }

      .cls-2, .cls-3, .cls-4, .cls-5, .cls-6 {
        fill: none;
        stroke-miterlimit: 10;
      }

      .cls-7 {
        fill: #ffa072;
      }

      .cls-3 {
        stroke: #dd323f;
        stroke-width: 1.37px;
      }

      .cls-8 {
        fill: #ff4557;
      }

      .cls-9 {
        fill: #ffcace;
      }

      .cls-4 {
        stroke: #ffd9c7;
      }

      .cls-4, .cls-5 {
        stroke-width: 2.48px;
      }

      .cls-10 {
        fill: #ffb38f;
      }

      .cls-5 {
        stroke: #ffdfe2;
      }

      .cls-11 {
        fill: #ff650a;
      }

      .cls-6 {
        stroke: #ffb591;
        stroke-width: 1.24px;
      }

      .cls-12 {
        fill: #ff7b86;
      }

      .cls-13 {
        fill: #ffc6ab;
      }
    </style>
  </defs>
  <path class="cls-8" d="M83.39,23.5s4.34-3.33,8.58,1.07c4.24,4.4,1.96,11.98-2.53,13.77-4.48,1.79-6.05-14.84-6.05-14.84Z"/>
  <rect class="cls-7" x="35.85" y="35.3" width="28.41" height="62.23"/>
  <g>
    <line class="cls-6" x1="38.04" y1="36.73" x2="38.04" y2="97.52"/>
    <line class="cls-6" x1="41.47" y1="36.73" x2="41.47" y2="97.52"/>
    <line class="cls-6" x1="44.91" y1="36.73" x2="44.91" y2="97.52"/>
    <line class="cls-6" x1="48.34" y1="36.73" x2="48.34" y2="97.52"/>
    <line class="cls-6" x1="51.78" y1="36.73" x2="51.78" y2="97.52"/>
    <line class="cls-6" x1="55.21" y1="36.73" x2="55.21" y2="97.52"/>
    <line class="cls-6" x1="58.65" y1="36.73" x2="58.65" y2="97.52"/>
    <line class="cls-6" x1="62.08" y1="36.73" x2="62.08" y2="97.52"/>
  </g>
  <path class="cls-11" d="M35.85,43c.51-.1.99-.27,1.44-.53l3.39-1.96c1.09-.63,2.37-.84,3.6-.6l5.77,1.12,5.77-1.12c1.23-.24,2.51-.03,3.6.6l3.32,1.91c.44.25.91.46,1.41.56.04,0,.08.01.11.02v-10.16h-28.41v10.15Z"/>
  <path class="cls-9" d="M64.12,60.04h-28.12c-1.38,0-2.5,1.12-2.5,2.5h0c0,1.38,1.12,2.5,2.5,2.5h28.12c1.38,0,2.5-1.12,2.5-2.5h0c0-1.38-1.12-2.5-2.5-2.5Z"/>
  <path class="cls-13" d="M64.12,71.08h-28.12c-1.38,0-2.5,1.12-2.5,2.5h0c0,1.38,1.12,2.5,2.5,2.5h28.12c1.38,0,2.5-1.12,2.5-2.5h0c0-1.38-1.12-2.5-2.5-2.5Z"/>
  <path class="cls-13" d="M64.12,82.12h-28.12c-1.38,0-2.5,1.12-2.5,2.5h0c0,1.38,1.12,2.5,2.5,2.5h28.12c1.38,0,2.5-1.12,2.5-2.5h0c0-1.38-1.12-2.5-2.5-2.5Z"/>
  <path class="cls-13" d="M64.12,93.16h-28.12c-1.38,0-2.5,1.12-2.5,2.5h0c0,1.38,1.12,2.5,2.5,2.5h28.12c1.38,0,2.5-1.12,2.5-2.5h0c0-1.38-1.12-2.5-2.5-2.5Z"/>
  <path class="cls-13" d="M68.54,38.8l-7.7-2.07-.89,5.01c-.4,2.24-2.08,4.03-4.29,4.55h0c-3.68.88-7.52.88-11.2,0h0c-2.21-.53-3.9-2.32-4.29-4.55l-.89-5.01-7.7,2.07s2.31,7.44,1.54,10.18c-.36,1.27.45,2.32,1.41,3.08,1.13.89,2.55,1.32,3.99,1.29,1.31-.02,3.28.05,5.12.5,3.16.77,6.42,3.08,6.42,3.08,0,0,3.25-2.31,6.42-3.08,1.85-.45,3.81-.52,5.12-.5,1.44.02,2.86-.41,3.99-1.29.96-.76,1.77-1.81,1.41-3.08-.77-2.74,1.54-10.18,1.54-10.18Z"/>
  <path class="cls-4" d="M50.72,54.97s5.89-2.36,11.92-2.87"/>
  <g>
    <path class="cls-7" d="M60.84,36.73l-.89,5.01c-.04.2-.08.39-.14.59l2.94,1.69c.44.25.91.46,1.41.56,1.09.23,2.15.06,3.06-.39.5-2.73,1.33-5.39,1.33-5.39l-7.7-2.07Z"/>
    <path class="cls-7" d="M40.17,41.74l-.89-5.01-7.7,2.07s.83,2.67,1.33,5.39c0,0,0,0,0,0,1.45.71,3.08.62,4.39-.13l3.01-1.74c-.06-.19-.1-.39-.14-.59Z"/>
  </g>
  <line class="cls-5" x1="56.02" y1="61.45" x2="37.18" y2="61.45"/>
  <line class="cls-4" x1="37.18" y1="72.49" x2="56.02" y2="72.49"/>
  <line class="cls-4" x1="37.18" y1="83.53" x2="56.02" y2="83.53"/>
  <line class="cls-4" x1="37.18" y1="94.58" x2="56.02" y2="94.58"/>
  <path class="cls-8" d="M90.81,41h0c-.61-2.61-.79-5.31-.54-7.98h0c.18-1.94-.33-3.87-1.44-5.47l-.11-.16c-1.05-1.51-2.36-2.82-3.86-3.87h0c-1.4-.97-2.54-2.26-3.35-3.76h0c-.65-1.21-1.91-1.96-3.28-1.96h-4.26l-5.57,23.1v2.09c0,1.26-.25,2.52-.73,3.68h0c-.42,1.01-.66,2.09-.72,3.19l-.05,1c-.06,1.23-1.04,2.23-2.28,2.3h0c-1.63.1-3.19.69-4.48,1.7h0c-.62.48-1.38.74-2.16.74h0c-1.47,0-2.93.22-4.32.66l-1.9.6c-1.1.35-2.28.35-3.39,0l-1.9-.6c-1.4-.44-2.86-.66-4.32-.66h0c-.78,0-1.54-.26-2.16-.74h0c-1.29-1-2.85-1.59-4.48-1.7h0c-1.23-.08-2.21-1.07-2.28-2.3l-.05-1c-.06-1.1-.3-2.17-.72-3.19h0c-.48-1.17-.73-2.42-.73-3.68v-2.09l-5.6-23.1h-4.23c-1.37,0-2.63.75-3.28,1.96h0c-.81,1.5-1.95,2.78-3.35,3.76h0c-1.51,1.05-2.81,2.36-3.86,3.87l-.11.16c-1.11,1.6-1.62,3.53-1.44,5.47h0c.25,2.67.06,5.37-.54,7.98h0c-.26,1.1-.29,2.25-.09,3.37l.6,3.34c.11.59.14,1.19.1,1.79l-.19,2.74c-.1,1.39.09,2.78.55,4.09l.46,1.29c.62,1.75,1.69,3.31,3.11,4.52h0c1.12.96,2.02,2.15,2.64,3.49h0c.58,1.26,1.43,2.37,2.5,3.25h0c2.48,2.04,5.28,3.65,8.28,4.78l.9.34c2.19.82,4.65.32,6.34-1.29h2.79c1.29,0,2.54-.39,3.6-1.12h0c1.53-1.05,3.43-1.38,5.22-.91l.24.06c.75.2,1.55.06,2.19-.37h0c.91-.62,2.11-.62,3.02,0h0c.64.44,1.44.57,2.19.37l.23-.06c1.79-.47,3.7-.14,5.22.91h0c1.06.73,2.32,1.12,3.6,1.12h2.79c1.7,1.61,4.16,2.11,6.34,1.29l.9-.34c3.01-1.12,5.8-2.74,8.28-4.78h0c1.07-.88,1.92-1.99,2.5-3.25h0c.61-1.34,1.51-2.53,2.64-3.49h0c1.42-1.21,2.49-2.77,3.11-4.52l.46-1.29c.46-1.31.65-2.7.55-4.09l-.19-2.74c-.04-.6-.01-1.2.1-1.79l.6-3.34c.2-1.12.17-2.26-.09-3.37Z"/>
  <path class="cls-1" d="M73.06,40.49c1.11.72,2.36-1.51,2.36-1.51,0,0-.67-1.06-1.47-3.69s.41-8.04.41-8.04c0,0-.43.03-1.18.08l-4.79,13.57v2.09c0,1.26-.25,2.52-.73,3.68h0c-.42,1.01-.66,2.09-.72,3.19l-.05,1c-.06,1.23-1.04,2.23-2.28,2.3-1.63.1-3.19.69-4.48,1.7-.62.48-1.38.74-2.16.74h0c-1.47,0-2.93.22-4.32.66l-1.9.6c-1.1.35-2.28.35-3.39,0l-1.9-.6c-1.4-.44-2.86-.66-4.32-.66h0c-.78,0-1.54-.26-2.16-.74h0c-1.29-1-2.85-1.59-4.48-1.7h0c-1.23-.08-2.21-1.07-2.28-2.3l-.05-1c-.06-1.1-.3-2.17-.72-3.19-.48-1.17-.73-2.42-.73-3.68v-2.09l-3.13-8.87c-2.47.09-5.45-1.03-5.45-1.03,0,0,1.85,2.55,3.61,5.16,1.77,2.61,2.91,3.91,3.34,5.65.43,1.74-1.37,4.27-1.37,4.27h2.66s-.91,5.17.34,7.07c1.25,1.9,4.35,1.9,4.35,1.9l-1.36,1.68s1.36-.33,3.69-.26,6.76,1.19,6.76,1.19c0,0,5.3,1.45,7.47,1.51,2.17.06,3.96-1.89,6.92-3.25,2.97-1.36,8.61-3.18,8.61-3.18,0,0,.33-3.98.98-5.83.65-1.84.81-4.95,1.56-5.75.75-.8,1.23-1.39,2.34-.67Z"/>
  <path class="cls-3" d="M10.47,34.14s2.95,6.06,11.09,5.24"/>
  <path class="cls-3" d="M17,39.08s-1.56,2.77.64,5.45"/>
  <path class="cls-3" d="M17.05,65.13s-2.02-4.16.59-7.41c2.61-3.26,6.44-3.01,8.55-6.44"/>
  <path class="cls-3" d="M18.87,56.47s-.34-5.52-6.2-5.19"/>
  <path class="cls-3" d="M31.18,44.53s-6.37,2.32-4.41,9.34"/>
  <path class="cls-3" d="M30.11,31.48s-5.41.89-8.85-1.4"/>
  <path class="cls-3" d="M15.77,30.18s6.02,2.28,8.71-3.42"/>
  <path class="cls-3" d="M45.18,69.37s-4.64,1.46-8.39-3.35"/>
  <path class="cls-3" d="M31.73,65.13s4.24,2.12,10.51-1.3"/>
  <path class="cls-3" d="M66.69,37.95s7.63,1,9.37,6.58"/>
  <path class="cls-3" d="M73.95,41.24s1.29-3.82,6.88-5.51"/>
  <path class="cls-3" d="M86.27,59.56s-3.15,3.94-11.51,1.97"/>
  <path class="cls-3" d="M76.52,58.2s-1.96,5.16-9.03,5.21"/>
  <path class="cls-3" d="M52.65,62.82s2.44-6.88,9.56-8.26"/>
  <path class="cls-3" d="M55.19,58.69s-3.19,1.14-6.5,0"/>
  <path class="cls-3" d="M81.16,26.76s-1.41,8.93,2.06,13.37"/>
  <path class="cls-3" d="M32.6,63.09s-.48,2.36-3.58,3.98"/>
  <path class="cls-3" d="M26.19,66.62s6.46,1.03,9.02,5.81"/>
  <path class="cls-3" d="M78.57,62.07s.94,7.83-4.62,11.14"/>
  <path class="cls-3" d="M72,51.85s4.57,1.71,8.83-1.71"/>
  <path class="cls-3" d="M78.21,51.65s2.34,4.47,12.19.58"/>
  <g>
    <path class="cls-13" d="M75.78,16.49l-.99-8.74c-.16-1.4,0-2.81.21-4.21.11-.71-.3-1.4-1.01-1.64-.57-.19-1.21.02-1.61.47l-.57.63c-.79.87-1.34,1.94-1.58,3.09-.19.9-.19,1.82-.01,2.72l.96,4.68-10.11-10.35c-.49-.5-1.11-.87-1.81-.99-1.76-.31-3.38.83-3.74,2.51l-1.35,6.34c-.41,1.94-2.13,3.32-4.11,3.32h0c-1.98,0-3.69-1.39-4.11-3.32l-1.35-6.34c-.32-1.49-1.64-2.56-3.16-2.56h0c-.87,0-1.71.35-2.32.98l-10.17,10.42.96-4.68c.18-.9.18-1.82-.01-2.72-.24-1.15-.79-2.22-1.58-3.09l-.57-.63c-.41-.45-1.04-.66-1.61-.47-.77.25-1.18,1.05-.97,1.81.25.92.41,1.87.31,2.82-.31,2.78-.88,7.75-1.13,9.96-.08.74-.01,1.48.2,2.2l5.98,19.56c.38,1.25,1.22,2.33,2.39,2.9,1.45.71,3.08.62,4.39-.13l3.39-1.96c1.09-.63,2.37-.84,3.6-.6l4.56.89c.8.15,1.62.15,2.41,0l4.56-.89c1.23-.24,2.51-.03,3.6.6l3.32,1.91c.44.25.91.46,1.41.56,2.42.51,4.72-.92,5.41-3.17l6.02-19.68c.22-.71.29-1.46.2-2.2Z"/>
    <path class="cls-7" d="M29.9,6.09c-.24-1.15-.79-2.22-1.58-3.09l-.57-.63c-.22-.25-.52-.42-.83-.49.56,1.4.99,3.17.63,4.96-.77,3.84-1.41,9.81-1.41,9.81l2.81-3.16.96-4.68c.18-.9.18-1.82-.01-2.72Z"/>
    <path class="cls-7" d="M70.2,6.09c.24-1.15.79-2.22,1.58-3.09l.57-.63c.22-.25.52-.42.83-.49-.56,1.4-.99,3.17-.63,4.96.77,3.84,1.41,9.81,1.41,9.81l-2.81-3.16-.96-4.68c-.18-.9-.18-1.82.01-2.72Z"/>
    <path class="cls-10" d="M60.73,6.73c-2.06-1.5-3.23,0-3.23,0,0,0-1.18,5.79-2.36,7.75-1.18,1.96-2.06,2.55-2.16,4.81-.1,2.26-1.96,18.26-.59,18.35,1.37.1,4.81-.59,5.1-3.53.26-2.6,3.19-14.65,3.95-19.96h0s1-1.93,2.32-1.39c1.32.54,5.2,2.31,5.2,2.31,0,0-6.18-6.85-8.24-8.34Z"/>
    <path class="cls-10" d="M47.14,19.3c-.1-2.26-.98-2.85-2.16-4.81-1.18-1.96-2.36-7.75-2.36-7.75,0,0-1.17-1.5-3.23,0-2.06,1.5-8.24,8.34-8.24,8.34,0,0,3.88-1.77,5.2-2.31,1.32-.54,2.32,1.39,2.32,1.39h0c.76,5.3,3.69,17.36,3.95,19.95.29,2.94,3.73,3.63,5.1,3.53,1.37-.1-.49-16.1-.59-18.35Z"/>
    <line class="cls-4" x1="48.02" y1="17.92" x2="49.59" y2="36.33"/>
    <line class="cls-4" x1="65.08" y1="9.63" x2="72.36" y2="17.36"/>
  </g>
  <path class="cls-3" d="M53.32,70.66s6.08-.32,8.58-4.64"/>
  <path class="cls-3" d="M61.31,61.71s-.61,5.46,4.38,7.33"/>
  <path class="cls-3" d="M33.45,53.87s-2.17,6.05-7.77,6.29"/>
  <path class="cls-2" d="M36.79,62.08s3.31-.71,5.05-3.14"/>
  <path class="cls-2" d="M67.49,59.56s3.68.17,5.47-2.55"/>
  <path class="cls-4" d="M29.01,26.12s2.72,10.35,3.31,11.8c.59,1.45,3.63,1.74,3.63,1.74"/>
  <path class="cls-4" d="M39.83,45.01s2.31,3.39,10.23,2.94"/>
  <path class="cls-8" d="M10.47,38.34s-.22,2.46-2.5,3.47c-2.28,1.01-3.1,5.95-.98,7.39,2.12,1.44,6.91,1.5,8.78-1.59,1.87-3.08-5.3-9.28-5.3-9.28Z"/>
  <path class="cls-12" d="M9.05,42.31c-1.66.96-3.5,3.91-.93,5.02s4.39-.73,4.29-2.51-2.14-3.21-3.36-2.51Z"/>
  <path class="cls-3" d="M10.31,39.08s-.3,1.55-2.34,2.72c-2.04,1.18-3.33,6.04-.98,7.39,2.35,1.36,5.59,1.99,8.78-1.59"/>
  <path class="cls-8" d="M76.52,46.55s8.6,1.56,7.79,8.65c-.81,7.09-9.5,8.14-12.94,3.75-3.44-4.4-.47-13.02,5.15-12.4Z"/>
  <path class="cls-12" d="M75.29,56.04c1.74,1.01,3.55.38,4.76-.51,1.2-.89,1.35-3.63-.23-4.88-1.59-1.25-3.96-2.27-5.52-1.38-1.57.9-1.77,5.17,1,6.77Z"/>
  <path class="cls-3" d="M83.39,50.79s3.01,6.47-2.38,9.72-9.49-.87-11.11-4.86"/>
  <path class="cls-3" d="M84.23,37.95s5.16,2.52,8.61-2.66c3.45-5.18-.4-10.18-.4-10.18"/>
  <path class="cls-12" d="M86.27,26.08c-1.19.37-1.52,3.79-.43,5.74,1.09,1.96,4.82,2.44,5.64,0,.82-2.44-.49-4.42-1.62-5.74-1.14-1.32-3.59,0-3.59,0Z"/>
  <path class="cls-8" d="M12.41,58.95s-3.89,5.42-1.04,11.04c2.85,5.62,11.99,4.97,14.31,2.04,2.31-2.93.95-9.47-2.53-11.86-3.47-2.39-10.74-1.21-10.74-1.21Z"/>
  <path class="cls-12" d="M13.38,61.35s-2.31,1.71-1.66,4.56,4.37,4.14,6.63,2.67c2.25-1.47,2.39-4.43.76-6.22s-4.08-1.96-5.73-1Z"/>
  <path class="cls-3" d="M26.77,64.98s2.46,9.47-7.89,9.23c-10.35-.24-9.87-11.36-7.01-14.35"/>
</svg>