<?xml version="1.0" encoding="UTF-8"?>
<svg xmlns="http://www.w3.org/2000/svg" viewBox="0 0 200 200">
  <defs>
    <style>
      .cls-1 {
        stroke-width: .35px;
      }

      .cls-1, .cls-2, .cls-3, .cls-4, .cls-5, .cls-6 {
        fill: none;
        stroke-linecap: round;
      }

      .cls-1, .cls-2, .cls-4, .cls-6 {
        stroke-miterlimit: 10;
      }

      .cls-1, .cls-6 {
        stroke: #fff;
      }

      .cls-7 {
        fill: #fafafa;
      }

      .cls-2 {
        stroke: #36a871;
        stroke-width: .67px;
      }

      .cls-8, .cls-9 {
        fill: #fe5456;
      }

      .cls-8, .cls-10, .cls-11 {
        mix-blend-mode: multiply;
        opacity: .36;
      }

      .cls-12 {
        fill: #65a4da;
      }

      .cls-13 {
        opacity: .3;
      }

      .cls-14 {
        fill: #fff;
      }

      .cls-15, .cls-10 {
        fill: #7dbbf1;
      }

      .cls-16 {
        fill: #e08d68;
      }

      .cls-17 {
        opacity: .4;
      }

      .cls-18 {
        fill: #ff4f5b;
      }

      .cls-19 {
        fill: #375a64;
      }

      .cls-3 {
        stroke: #e08d68;
        stroke-width: .36px;
      }

      .cls-3, .cls-5 {
        stroke-linejoin: round;
      }

      .cls-20 {
        fill: #ffbf9d;
      }

      .cls-21 {
        fill: #1a2e35;
      }

      .cls-22 {
        fill: #24292d;
      }

      .cls-23 {
        isolation: isolate;
      }

      .cls-24, .cls-11 {
        fill: #021946;
      }

      .cls-25 {
        fill: #0a1930;
      }

      .cls-4 {
        stroke: #48be97;
        stroke-width: .98px;
      }

      .cls-5 {
        stroke: #7dbbf1;
        stroke-width: .54px;
      }

      .cls-26 {
        fill: #e5744c;
      }

      .cls-27 {
        fill: #36a871;
      }

      .cls-28 {
        fill: #f4a484;
      }

      .cls-29 {
        fill: #ff9a6c;
      }

      .cls-30 {
        fill: #48be97;
      }

      .cls-6 {
        stroke-width: .39px;
      }
    </style>
  </defs>
  <g class="cls-23">
    <g id="Layer_1" data-name="Layer 1">
      <ellipse class="cls-10" cx="103.1" cy="194.66" rx="95.7" ry="6.38"/>
      <g>
        <path class="cls-30" d="M73.79,133.11s-.27-5.52-8.07-8.45c0,0,1.21,7.45,8.07,8.45Z"/>
        <path class="cls-30" d="M73.17,142.86s-.81-7.12-11.16-10.27c0,0,2.19,9.54,11.16,10.27Z"/>
        <path class="cls-30" d="M75.76,156.97s-1.18-8.25-13.32-11.58c0,0,2.86,11.03,13.32,11.58Z"/>
        <path class="cls-30" d="M84.24,171.76s-4.6-8.92-19.72-7.89c0,0,7.61,11.41,19.72,7.89Z"/>
        <path class="cls-30" d="M73.78,133.21s1.07-5.42,9.22-7.19c0,0-2.28,7.19-9.22,7.19Z"/>
        <path class="cls-30" d="M72.97,142.95s1.84-6.93,12.54-8.53c0,0-3.55,9.12-12.54,8.53Z"/>
        <path class="cls-30" d="M75.56,156.91s-1.04-8.27,9.8-14.67c0,0,.14,11.39-9.8,14.67Z"/>
        <path class="cls-30" d="M83.57,171.86s-4.05-9.18,6.25-20.3c0,0,4.09,13.09-6.25,20.3Z"/>
        <path class="cls-4" d="M73.91,132.94s-7.64,31.81,27.32,54.53"/>
      </g>
      <g>
        <path class="cls-30" d="M131.5,143.31s1.03-5.43,9.17-7.26c0,0-2.23,7.21-9.17,7.26Z"/>
        <path class="cls-30" d="M130.57,153.15s1.79-6.94,12.48-8.62c0,0-3.49,9.15-12.48,8.62Z"/>
        <path class="cls-30" d="M126.34,166.44s4.3-7.15,16.78-5.48c0,0-6.93,9.05-16.78,5.48Z"/>
        <path class="cls-30" d="M116.25,180.15s7.29-6.9,21.22-.94c0,0-10.95,8.25-21.22.94Z"/>
        <path class="cls-30" d="M131.5,143.42s-.31-5.51-8.13-8.4c0,0,1.26,7.44,8.13,8.4Z"/>
        <path class="cls-30" d="M130.57,153.12s-.86-7.11-11.24-10.19c0,0,2.26,9.53,11.24,10.19Z"/>
        <path class="cls-30" d="M126.45,166.64s2.17-8.05-7.68-15.89c0,0-1.72,11.26,7.68,15.89Z"/>
        <path class="cls-30" d="M116.45,180.33s5.28-8.53-3.38-20.97c0,0-5.86,12.4,3.38,20.97Z"/>
        <path class="cls-4" d="M131.41,143.13s1.12,26.72-19.81,40.8"/>
      </g>
      <g>
        <path class="cls-27" d="M31.34,194.66c2.36-5.12,6.56-20.14.09-23.28-4.06-1.97-5.25,1.4-5.25,1.4,0,0,2.93-16.43-4.02-16.46-4.06-.02-4.74,4.64-4.74,4.64,0,0-2.2-5.14-4.9-6.63-5.86-3.24-12.84.11-7.43,9.29,1.47,2.49,3.5,4.28,3.5,4.28,0,0-6.11-2.3-6.71,2.07-.6,4.37,10.99,11.32,10.99,11.32,0,0-3.47.13-3.6,4.14-.18,5.41,10.99,9.24,10.99,9.24h11.1Z"/>
        <path class="cls-6" d="M9.22,158.33c7.6,11.14,13.85,14.46,18.93,35.21"/>
      </g>
      <g>
        <path class="cls-30" d="M34.07,195.06c-.25-7.61,10.98-23.42,4.18-27.25-4.27-2.4-5.47,1.94-5.47,1.94,0,0,9.61-16.28.42-17.38-3.2-.38-5.06,4.3-5.06,4.3,0,0-.08-8.38-2.64-11.52-4.19-5.12-12.95-2.26-10.88,8.79,1.13,6.06,5.3,8.46,5.3,8.46,0,0-4.21-3.21-6.22,1.01-2.69,5.65,6.33,12.95,6.33,12.95,0,0-4.04-2.99-6.7,1.9-3.6,6.61,10.1,16.81,10.1,16.81h10.66Z"/>
        <path class="cls-6" d="M21.91,151.23c5.14,13.06,7.83,27.4,8.94,42.54"/>
      </g>
      <g>
        <path class="cls-27" d="M171.62,194.66c1.67-6.18-6.39-18.35-.13-21.46,3.92-1.95,6.03.04,6.03.04,0,0-4.62-12.27,3.05-13.16,2.67-.31,3.48,2.07,3.48,2.07,0,0,1.06-3.63,3.93-5.91,5.43-4.32,12.51-2.72,8.7,6.25-2.09,4.92-3.74,5.64-3.74,5.64,0,0,3.78-.73,4.59,2.69,1.09,4.59-7.95,12.27-7.95,12.27,0,0,3.25.31,3.68,2.74.95,5.38-10.45,8.82-10.45,8.82h-11.19Z"/>
        <path class="cls-1" d="M194.21,157.14c-10.41,8.45-10.79,25.64-16.06,35.57"/>
      </g>
      <g>
        <path class="cls-30" d="M160.05,194.66c-3.77-6.2-11.96-24.38-5.96-28.18,3.77-2.38,5.87,1.7,5.87,1.7,0,0-7.22-19.89.08-19.93,4.25-.02,6.14,5.61,6.14,5.61,0,0,1.44-5.83,3.47-9.34,4.66-8.07,15.57-4.85,11.72,7.96-.98,3.25-3.91,7.36-3.91,7.36,0,0,6.78-.41,6.6,5.46-.17,5.57-9.57,10.8-9.57,10.8,0,0,6.25-1.39,7.4,3.46,1.56,6.55-12.24,15.1-12.24,15.1h-9.6Z"/>
        <path class="cls-1" d="M176.17,147.74c-5.25,17.79-12.94,20.44-13.05,45.57"/>
      </g>
      <g>
        <path class="cls-12" d="M100.68,197.14h-7.49c-5.2,0-13.31-14.58-13.31-20.24s8.07-20.52,13.31-20.52h7.49c6.63,0,11.87,2.06,15.57,6.13,3.56,3.92,5.36,8.76,5.36,14.39s-1.82,10.49-5.42,14.32c-3.7,3.93-8.92,5.92-15.51,5.92ZM80.88,138.78l.12-5.85c.2-10.11,1.57-17.99,4.19-24.12,2.65-6.18,7.71-12.67,15.47-19.84l.12-.11,17.99-15.69c6.55-6.3,9.73-12.71,9.73-19.59s-1.87-11.45-5.73-14.98c-3.95-3.61-10.08-5.44-18.22-5.44s-14.56,1.75-19.23,5.2c-4.25,3.14-6.23,7.06-6.23,12.36v5.74h-37.11l.08-5.82c.21-14.46,6.36-26.29,18.26-35.14,11.41-8.48,26.29-12.78,44.23-12.78s33.57,4.43,44.29,13.15c11.07,9.02,16.68,21.47,16.68,37s-8.18,30.29-24.3,44.62l-.12.11-14.92,12.51c-5.49,5.22-8.16,12.73-8.16,22.94v5.74h-37.14Z"/>
        <path class="cls-15" d="M93.19,197.14c-6.61,0-11.82-2-15.47-5.96-3.53-3.82-5.32-8.63-5.32-14.28s1.77-10.44,5.26-14.35c3.66-4.09,8.88-6.17,15.54-6.17s11.87,2.06,15.57,6.13c3.56,3.92,5.36,8.76,5.36,14.39s-1.82,10.49-5.42,14.32c-3.7,3.93-8.92,5.92-15.51,5.92ZM73.39,138.78l.12-5.85c.2-10.11,1.57-17.99,4.19-24.12,2.65-6.18,7.71-12.67,15.47-19.84l.12-.11,17.99-15.69c6.55-6.3,9.73-12.71,9.73-19.59s-1.87-11.45-5.73-14.98c-3.95-3.61-10.08-5.44-18.22-5.44s-14.56,1.75-19.23,5.2c-4.25,3.14-6.23,7.06-6.23,12.36v5.74h-37.11l.08-5.82c.21-14.46,6.36-26.29,18.26-35.14,11.41-8.48,26.29-12.78,44.23-12.78s33.57,4.43,44.29,13.15c11.07,9.02,16.68,21.47,16.68,37s-8.18,30.29-24.3,44.62l-.12.11-14.92,12.51c-5.49,5.22-8.16,12.73-8.16,22.94v5.74h-37.14Z"/>
      </g>
      <g>
        <g>
          <path class="cls-25" d="M47.31,186.9c.23,3.01-.76,9.73.03,9.89h22.24s.22-3.39-2.41-4.12c-3.52-.98-7.8-1.71-9.4-3.11-.79-.69-1.17-2.66-1.17-2.66h-9.28Z"/>
          <path class="cls-5" d="M63.48,191.73s-2.83-.26-3.84,1.35"/>
          <path class="cls-5" d="M60.93,190.98s-2.83-.26-3.84,1.35"/>
        </g>
        <g>
          <path class="cls-25" d="M34.35,186.9c-.28,4.32.47,9.53-.75,9.89h-14.78s-.21-2.42,1.76-4.44c.81-.83,2.72-1.77,3.58-2.64.79-.79.91-2.82.91-2.82h9.28Z"/>
          <path class="cls-5" d="M25.45,192.27s-1.89-2.23-4.27-.43"/>
          <path class="cls-5" d="M27.78,191.14s-2.83-2.33-5-.51"/>
        </g>
        <g>
          <path class="cls-28" d="M63.45,66.61c.64,3.99.43,8.25.63,8.04.53-.57,6.86-3.68,7.37-3.94,2.31-1.19,4.16-1.12,5.44-1.06.42.02,1.7-.08,1.7-.08,0,0,1-.24,1.7.08.71.32.91.87.25,1.09-.59.2-1.68.36-1.68.36,0,0,2.27-.05,4.05-.19.67-.05.75.86.75.86,0,0,.28-.04.43-.07.91-.2,1.26,1.16.9,1.27-.61.18-1.03.23-1.03.23.23.09.63.72.06.89-.62.18-2.3.52-2.3.52.4,0,.73.77.5.85-.92.34-4.06,1.12-4.51,1.16-.4.04-2.45.02-3.36-.13-.72-.11-2.26-.46-2.26-.46,0,0-10.25,8.37-11.77,7.99-1.13-.29-3.3-1.63-3.65-3.64-.36-2.02-2.79-14.02-2.79-14.02.95-6.05,8.6-5.79,9.57.24Z"/>
          <path class="cls-3" d="M71.34,73s-.05,1.95.59,2.84"/>
          <path class="cls-3" d="M77.35,71.32s-1.01,1.69-4.16,1.46c2.39.44,3.9,2.87,3.9,2.87"/>
          <line class="cls-3" x1="81.51" y1="74.61" x2="78.08" y2="75.1"/>
          <line class="cls-3" x1="83.46" y1="73.15" x2="78.29" y2="73.75"/>
          <line class="cls-3" x1="83.25" y1="71.78" x2="78.56" y2="72.22"/>
        </g>
        <path class="cls-22" d="M53.92,24.03s.95.99,1.18,3.19c.23,2.2-1.49,5.12-1.49,5.12l.3-8.32Z"/>
        <path class="cls-9" d="M60.36,96.28c.72,6.82-3.17,91.54-3.17,91.54h-9.91s-3.11-60.26-2.69-69.06c.42-8.79-1.48-17.13-.92-22.48.56-5.35,15.48-11.51,16.69,0Z"/>
        <path class="cls-9" d="M47.1,96.53c0,30.63-12.41,91.28-12.41,91.28h-10.21s5.15-69,5.34-77.83c.14-6.34.85-10.74,1.48-16.11,1.06-9.06,15.81-8.88,15.81,2.66Z"/>
        <path class="cls-8" d="M60.43,102.67c-.45-.25-.97-.54-1.49-.87-1.47-.89-1.91-.69-11.93-.07-.13,0-.26.01-.39.02-.99.06-1.96.06-2.9.03-6.32-.26-11.48-2.47-12.98-3.18.19-1.55.39-3.1.57-4.74.92-7.81,12.02-8.76,15.04-1.46,4.49-3.46,13.11-4.78,14.02,3.86.09.9.11,3.15.06,6.4Z"/>
        <path class="cls-24" d="M57.25,47.54c7.27,6.82,6.86,24.97,6.86,24.97,0,0-6.69,4.45-10.67,2.71,0,0-3.01-18.61-1.42-24.35.97-3.51,3.88-4.6,5.23-3.33Z"/>
        <path class="cls-11" d="M62.3,64.79c-.1,3.48-.07,6.75-.27,8.92-2.3,1.17-6.01,2.64-8.58,1.52,0,0-3.01-18.61-1.42-24.34.43-1.53,1.22-2.6,2.1-3.21l3.14-.12h.01c.35.39,5.38,4.5,5.03,17.25Z"/>
        <path class="cls-24" d="M38.61,44.79s-10.66,1.75-10.98,3.7c-.33,1.94,3.73,29.98,3.73,36.56s-.77,12.81-.77,12.81c0,0,8.54,2.39,16.69,2.24,8.15-.15,13.36-1.37,13.36-1.37,0,0-.47-8.09-.64-13.48-.16-5.38,1.11-21.09,1.12-26.84.01-5-2.34-9.09-3.87-10.87-1.27-1.47-7.93-3.02-7.93-3.02l-10.72.27Z"/>
        <path class="cls-11" d="M33.53,82.87c-.92,1.65-1.64,3.03-2.2,4.18.02-.66.03-1.33.03-2,0-4.37-1.8-18.22-2.9-27.58l8.24-4.78c1.02,3.2,1.02,22.63-3.17,30.19Z"/>
        <path class="cls-16" d="M39.58,40.86l-.97,3.95s4.18,6.97,9.13,6.28c4.94-.7,1.59-6.57,1.59-6.57l.2-2.62-9.11-5.4-.83,4.36Z"/>
        <path class="cls-28" d="M54.41,25.92c.26,1.31.15,5.59-.11,8.9-.25,3.2-1.11,7.83-2.92,8.23-1.82.41-9.61-1.1-9.98-5.58-1.33-1.05-6.38-7.23-4.6-10.29,3.16-5.44,16.78-5.47,17.61-1.26Z"/>
        <ellipse class="cls-22" cx="48.04" cy="32.65" rx=".54" ry=".81"/>
        <path class="cls-22" d="M53.43,32.42c0,.45-.24.81-.54.81s-.54-.36-.54-.81.24-.81.54-.81.54.36.54.81Z"/>
        <path class="cls-22" d="M48.95,30.67c-1.05-.32-1.9-.26-2.76.45.37-1.15,2.04-1.35,2.76-.45h0Z"/>
        <path class="cls-22" d="M51.35,30.45c.73-.89,2.39-.7,2.76.45-.87-.72-1.71-.78-2.76-.45h0Z"/>
        <path class="cls-26" d="M50.96,33.61c.15.81.89,1.82,1.27,2.56.18.35.41.66.45,1.09-.12.75-1.23.79-1.77.81,0,0,0-.05,0-.05.45-.24,1.05-.43,1.3-.75-.1-.6-.66-1.67-.9-2.25-.11-.33-.51-1.16-.34-1.41h0Z"/>
        <path class="cls-14" d="M52.66,38.76s-1.47-.14-2.93.59c0,0,2.5.36,2.73.11.23-.25.2-.7.2-.7Z"/>
        <path class="cls-22" d="M54.65,27.06c-.4.85-3.11,2.09-8.08,1.82,0,0,2.49-.68,3.04-2.63,0,0-2,3.07-5.91,2.99,0,0,.34,2.74-1.34,5.56,0,0-1.12,1.48-.96,2.67.16,1.12-1.03,3.12-1.82,3.58-.47-3.55-4.19-10.48-3.46-14.38.73-3.95,4.29-4.02,4.29-4.02,1.62-2.58,7.61-3.64,11.52-1.51,2.89,1.58,3.44,4.37,2.72,5.92Z"/>
        <path class="cls-28" d="M42.76,33.58c-.83-2.05-3.64-1.88-3.65-.15-.02,2.83,1.68,3.67,2.29,4.04.61.37,1.86-2.65,1.36-3.89Z"/>
        <g>
          <path class="cls-28" d="M25.68,66.72c-.64,3.99-1.18,7.91-1.38,7.7-.53-.57-9.73-3.07-10.3-3.42-2.69-1.61-4.57-1.35-5.76-1.35l-1.7-.08s-1-.24-1.7.08c-.71.32-.91.87-.25,1.09.59.2,1.68.36,1.68.36,0,0-2.27-.05-4.05-.19-.67-.05-.75.86-.75.86,0,0-.28-.04-.43-.07-.91-.2-1.26,1.16-.9,1.27.61.18,1.03.23,1.03.23-.23.09-.63.72-.06.89.62.18,2.3.52,2.3.52-.4,0-.73.77-.5.85.92.34,4.06,1.12,4.51,1.16.4.04,2.45.02,3.36-.13.72-.11,2.25-.17,2.25-.17,0,0,13.02,6.31,14.57,6.5,1.41.18,3.76-.32,4.51-2.45.69-1.93,3.54-13.71,3.54-13.71-.95-6.05-9.01-5.98-9.98.05Z"/>
          <path class="cls-3" d="M13.2,76.18s.61-.84.77-2.01"/>
          <path class="cls-3" d="M7.79,71.32s1.01,1.69,4.16,1.46c-2.39.44-3.9,2.87-3.9,2.87"/>
          <line class="cls-3" x1="3.63" y1="74.61" x2="7.06" y2="75.1"/>
          <line class="cls-3" x1="1.68" y1="73.15" x2="6.85" y2="73.75"/>
          <line class="cls-3" x1="1.89" y1="71.78" x2="6.58" y2="72.22"/>
        </g>
        <path class="cls-24" d="M27.61,48.47c-3.53,7.05-3.66,22.97-3.66,22.97,0,0,6.97,3.63,11.11,1.95,0,0,2.69-15.15,1.64-20.71-.64-3.39-7.37-7.64-9.09-4.21Z"/>
      </g>
      <g>
        <g>
          <path class="cls-18" d="M142.41,75.18c-.46.91,1.24,1.65,2.21,1.94.98.3,2.02.26,3.04.21,1.35-.07,2.75-.2,3.93-.87,1.04-.6,1.82-1.58,2.37-2.65.54-1.07.87-2.24,1.2-3.39,0,0-10.71.7-12.75,4.77Z"/>
          <g class="cls-17">
            <path d="M142.41,75.18c-.46.91,1.24,1.65,2.21,1.94.98.3,2.02.26,3.04.21,1.35-.07,2.75-.2,3.93-.87,1.04-.6,1.82-1.58,2.37-2.65.54-1.07.87-2.24,1.2-3.39,0,0-10.71.7-12.75,4.77Z"/>
          </g>
          <g>
            <path class="cls-18" d="M172.66,72.28c1.75,1.25,3.9,1.92,6.05,1.9,1.03-.01,2.12-.21,2.88-.91.35-.32.61-.73.97-1.04.24-.21.53-.37.76-.59s.4-.55.33-.86c-.07-.32-.34-.84-.63-1-1.23-.7-2.7-.67-4.11-.64-1.41.03-2.81.36-4.15.81-1.1.37-2.25.89-2.8,1.9"/>
            <g class="cls-17">
              <path d="M183.65,70.78c-.07-.32-.52-.75-.8-.91-1.23-.7-2.52-.76-3.93-.73-1.41.03-2.81.36-4.15.81-1.1.37-2.25.89-2.8,1.9l.7.42c1.75,1.25,3.9,1.92,6.05,1.9,1.03-.01,2.12-.21,2.88-.91.35-.32.61-.73.97-1.04.24-.21.53-.37.76-.59s.4-.55.33-.86Z"/>
            </g>
          </g>
          <path class="cls-18" d="M151.75,88.55l22.6.3c.2,0,.34-.19.28-.38l-2.65-8.27s.39-4.13.93-9.1c.82-7.55,1.91-17.03,1.92-17.01-1.54-4.33-10.66-5.07-10.66-5.07l-10.4.62-.37-.61-2.99,1.39c-.65.3-1.28.66-1.88,1.06-1.97,1.32-6.74,4.35-7.61,7.73-2.01,7.82,1.39,16.54,1.39,16.54l2.18-1.71c.57-.43,1.11-.81,1.73-1.16l4.38,11.74s-.91.56-.95,1.51c-.04.95.47,2.1,2.08,2.42"/>
          <g class="cls-13">
            <path d="M161.44,74.72c.72-3.85.34-7.81-.04-11.71-1.25,3.19-1.21,6.79-2.54,9.95-.14.34-.3.68-.35,1.05-.05.37.03.77.3,1.02.36.33.9.15,1.38.09.51-.06.78-.24,1.25-.4"/>
          </g>
          <g class="cls-17">
            <path d="M153.12,83.63c1.82.63,3.74-.54,5.66-.75,1.27-.14,2.54.15,3.8.36,2.54.41,5.15.48,7.71.19.39-.04.79-.1,1.13-.29s.62-.73.59-1.13c-4.27-.44-8.54-.7-12.8-1.14-1.07-.11-2.17-.22-3.2.1-1.29.4-2.28,1.41-3.19,2.41"/>
          </g>
          <path class="cls-18" d="M183,69.29c-1.85-4.15-8.35-15.65-8.35-15.65l-5.04,6.32,1.18,12.4s2.66-2.97,10.1-3.03c1.73-.01,2.77,1.46,2.77,1.46l-.65-1.49Z"/>
          <path class="cls-21" d="M152.75,67.1c-.06.02-.44-1.2-.85-2.71-.41-1.51-.68-2.76-.62-2.77.06-.02.44,1.2.85,2.71.41,1.51.68,2.76.62,2.77Z"/>
          <path class="cls-21" d="M169.23,59.11s.18.13.47.4c.28.27.68.68,1.12,1.23.88,1.09,1.96,2.79,2.41,4.92.23,1.06.26,2.11.14,3.04-.12.93-.29,1.74-.41,2.43-.12.69-.19,1.25-.23,1.64-.04.39-.04.61-.06.61-.01,0-.04-.22-.03-.61,0-.39.05-.96.15-1.66.09-.7.25-1.52.36-2.43.1-.91.06-1.93-.16-2.96-.44-2.08-1.47-3.77-2.31-4.87-.84-1.12-1.49-1.7-1.46-1.73Z"/>
          <path class="cls-21" d="M164.61,87.56s-.17.07-.49.14c-.16.04-.36.08-.59.11-.23.03-.5.08-.79.1-.59.06-1.3.06-2.08-.01-.78-.08-1.63-.24-2.49-.5-.86-.27-1.65-.63-2.34-1-.68-.39-1.26-.79-1.72-1.17-.24-.18-.42-.37-.6-.53-.17-.16-.31-.3-.42-.43-.22-.25-.34-.39-.32-.4.03-.03.52.51,1.45,1.22.46.36,1.04.74,1.72,1.11.68.36,1.46.7,2.3.97.85.26,1.68.42,2.45.51.77.08,1.46.1,2.04.06,1.17-.06,1.87-.23,1.88-.19Z"/>
          <path class="cls-21" d="M171.59,84.98s.12.24.17.66c.05.42.07,1.02-.12,1.65-.18.64-.56,1.13-.89,1.4-.33.28-.59.36-.6.34-.02-.03.2-.17.48-.46.28-.29.61-.76.78-1.35.34-1.2.08-2.24.17-2.25Z"/>
          <path class="cls-21" d="M170.37,86.58c.06-.01.18.65-.11,1.39-.29.75-.82,1.16-.86,1.11-.05-.05.37-.5.64-1.19.27-.69.26-1.31.33-1.31Z"/>
          <path class="cls-21" d="M166.32,71.66s-.37.52-.81,1.16c-.44.64-.73,1.2-.79,1.17-.06-.02.14-.64.6-1.3.45-.66.96-1.07,1-1.03Z"/>
          <path class="cls-21" d="M150.81,60.68s-.38-.26-1-.66c-.62-.4-1.51-.9-2.56-1.3-1.06-.39-2.06-.6-2.79-.7-.73-.1-1.19-.12-1.19-.16,0-.03.46-.07,1.21-.01.75.06,1.78.24,2.85.64,1.08.4,1.98.94,2.58,1.38.6.45.93.78.91.8Z"/>
          <path class="cls-21" d="M174.65,53.49c.04.06-1.18.81-2.29,2.14-1.13,1.32-1.65,2.66-1.72,2.62-.03-.01.07-.36.32-.88.24-.52.66-1.22,1.23-1.9.57-.68,1.18-1.2,1.66-1.53.47-.33.8-.49.81-.46Z"/>
          <path class="cls-21" d="M165.32,49.75s.04.07.1.21c.07.14.14.35.21.64.14.56.22,1.43,0,2.46-.24,1.01-.8,2.19-1.85,3.12-1.04.94-2.57,1.49-4.17,1.49-1.61-.01-3.11-.56-4.21-1.41-1.11-.84-1.85-1.88-2.32-2.81-.46-.94-.68-1.76-.77-2.33-.05-.29-.07-.51-.08-.66-.01-.15-.01-.23,0-.23.02,0,.05.32.18.88.12.56.36,1.36.83,2.27.48.9,1.21,1.91,2.3,2.71,1.07.81,2.53,1.33,4.08,1.35,1.55,0,3.02-.52,4.03-1.41,1.02-.88,1.58-2.02,1.83-3,.24-.99.19-1.84.08-2.4-.11-.56-.25-.85-.22-.86Z"/>
          <g class="cls-13">
            <path d="M166.9,72.46c0-.23-.04-.49-.23-.61-.12-.07-.28-.06-.41,0-.13.06-.23.17-.33.27-.55.59-.93,1.18-1.21,1.94l2.22-.19c-.01-.47-.02-.95-.04-1.42Z"/>
          </g>
          <g class="cls-13">
            <path d="M174.28,67.79c-.17-1.27-.82-2.43-1.61-3.44.96,3.14.64,4.91.1,7.06l.12-.3c.62-1.26,1.57-2.04,1.4-3.31Z"/>
          </g>
        </g>
        <g>
          <polygon class="cls-20" points="169.84 173.17 168.49 193.51 159.64 193.4 158.25 172.26 169.84 173.17"/>
          <g>
            <path class="cls-18" d="M168.74,190.83v.59s9.97,4.01,10.07,5.9l-19.79-.12.31-6.58c2.93,1.38,6.01,1.55,9.41.21Z"/>
            <path class="cls-14" d="M161.32,192.74c-.38.1-.65.53-.56.92.09.39.52.66.91.57.39-.1.72-.6.59-.98-.13-.38-.66-.67-1.01-.49"/>
            <path class="cls-21" d="M159.02,197.21l.07-1.58,18.94.69s.88.39.78,1.01l-19.79-.12Z"/>
            <path class="cls-21" d="M168.81,191.48c0,.1-.49.14-.96.45-.49.3-.73.71-.82.67-.09-.02.06-.6.64-.96.58-.37,1.16-.25,1.14-.16Z"/>
            <path class="cls-21" d="M170.88,192.35c.02.09-.4.26-.73.66-.34.4-.43.84-.52.83-.09.01-.15-.55.27-1.05.42-.5.99-.54.99-.45Z"/>
            <path class="cls-21" d="M172.04,194.84c-.09.02-.22-.46.03-.99.25-.53.7-.74.74-.66.05.08-.24.36-.44.8-.21.43-.24.84-.34.85Z"/>
          </g>
        </g>
        <g>
          <path class="cls-21" d="M168.23,24.47c.51-1.27-.11-2.81-1.21-3.62-1.1-.81-2.57-.99-3.93-.77-1.35.21-2.62.78-3.87,1.34-1.13-1.14-2.93-1.57-4.46-1.07-1.53.5-2.72,1.91-2.96,3.5-.97-.25-2.07.09-2.75.83-.67.75-.89,1.87-.55,2.82l6.13,2.15,6.69,11.77c1.96,1.67,5.16,1.62,7.07-.1,1.91-1.72,2.28-4.9.81-7.02.38-.33.69-.73.94-1.16,1.06-.66,1.89-1.68,2.17-2.9.58-2.59-1.45-5.45-4.08-5.76Z"/>
          <g>
            <g>
              <g>
                <g>
                  <path class="cls-20" d="M164.17,49.02c-.38-1.92-.65-3.23-.64-3.22,0,0,3.61-1.41,3.36-6.45-.12-2.51-1.08-6.47-1.97-9.68-.8-2.89-3.49-6.08-6.35-5.16l-8.63,4.22c-.87.28-1.02,1.09-.81,1.98v.43s3.37,13.9,3.37,13.9l1.42,6.21c.63,2.64,3.17,4.37,5.86,3.98h0c2.98-.43,4.98-3.27,4.39-6.22Z"/>
                  <g>
                    <path class="cls-21" d="M164.87,33.03c.08.33-.13.67-.47.76-.34.09-.68-.1-.76-.43-.08-.33.13-.67.47-.76.34-.09.68.1.77.43Z"/>
                    <path class="cls-21" d="M164.5,32.06c-.06.1-.61-.15-1.28-.01-.68.13-1.1.58-1.19.52-.04-.03,0-.19.19-.4.18-.2.51-.43.93-.51.42-.09.81,0,1.04.11.24.12.34.25.31.29Z"/>
                  </g>
                  <g>
                    <path class="cls-21" d="M158.31,34.53c.08.33-.13.67-.47.76-.34.09-.68-.1-.76-.43-.08-.33.13-.67.47-.76.34-.09.68.1.76.43Z"/>
                    <path class="cls-21" d="M157.98,33.66c-.06.1-.61-.15-1.28-.01-.67.13-1.1.58-1.19.52-.04-.03,0-.19.19-.4.18-.2.51-.43.93-.51.42-.09.81,0,1.04.11.24.12.34.25.31.29Z"/>
                  </g>
                  <path class="cls-21" d="M161.39,37.92s.39-.2,1.05-.43c.17-.05.32-.12.33-.25.01-.13-.1-.3-.22-.49-.25-.38-.51-.78-.78-1.2-1.1-1.72-1.93-3.14-1.86-3.19.07-.04,1.02,1.31,2.11,3.03.27.42.52.83.76,1.22.11.18.26.38.23.66-.02.14-.13.26-.23.31-.1.06-.2.08-.28.1-.68.18-1.1.27-1.11.23Z"/>
                  <path class="cls-29" d="M163.53,45.8s-3.24.9-6.91-.37c0,0,2.37,3.1,7.17,1.62l-.26-1.25Z"/>
                </g>
                <path class="cls-21" d="M158.11,32.7c-.04.19-.74.19-1.53.38-.79.18-1.41.49-1.54.34-.06-.07.03-.26.27-.47.24-.21.63-.43,1.11-.54.48-.11.93-.09,1.23,0,.31.08.47.21.46.3Z"/>
                <path class="cls-21" d="M164.24,29.92c-.11.18-.69.14-1.35.27-.67.11-1.2.36-1.36.23-.07-.07-.02-.24.2-.43.21-.19.59-.4,1.05-.48.46-.08.88-.03,1.14.08.27.11.38.25.33.34Z"/>
              </g>
              <path class="cls-21" d="M152.07,25.48c.2.98.85,1.86,1.73,2.33s1.97.53,2.9.15c.72-.29,1.46-.84,2.19-.57.77.28,1.01,1.3,1.72,1.69,1.02.57,2.24-.42,3.4-.32.9.08,1.59.77,2.29,1.34.7.56,1.68,1.03,2.47.61-.21-.75-.43-1.5-.8-2.18-.38-.68-.94-1.29-1.66-1.57-.4-.16-.83-.21-1.21-.4-.82-.42-1.19-1.37-1.78-2.07-.77-.9-2-1.39-3.18-1.27-.98.1-1.91.6-2.9.55-.73-.03-1.43-.36-2.16-.34-1.42.02-2.49,1.27-3.28,2.45"/>
            </g>
            <path class="cls-21" d="M156.84,26.52c-.65-.05-1.98-.18-2.42-.65-.95-1.01-2.37-1.53-3.65-1.2-1.27.34-2.29,1.61-2.28,3.02-1.55.33-2.87,1.63-3.31,3.25-.44,1.63,0,3.52,1.13,4.76.29.33.74,1.08.74,1.08,0,0-.58.73-.81,1.22-1.04,2.29,1.78,3.17,1.78,3.17,0,1.54,1.43,1.53,2.34,1.53.88,0,1.42,2.43,2.13,2.33l-.72-7.51c.09.03.2.06.33.06,1.72.03,1.27-3.22.71-4.06.48-.65.97-1.31,1.29-2.07.31-.76.33-2.67.07-3.48.6-.09,2.95-1.44,2.66-1.46Z"/>
            <g>
              <path class="cls-20" d="M152.04,37.93c-.27-1.03-1.54-1.49-2.34-.78-.44.39-.69,1.04-.42,2.14.73,2.92,3.51,1.58,3.5,1.5,0-.05-.42-1.65-.74-2.85Z"/>
              <path class="cls-29" d="M151.61,39.9s-.04.05-.12.11c-.07.06-.21.12-.38.1-.34-.04-.72-.46-.87-.98-.07-.26-.08-.53-.04-.76.04-.24.14-.42.28-.49.15-.07.28,0,.33.06.06.07.06.13.07.14.01,0,.05-.06,0-.18-.03-.05-.08-.12-.16-.15-.08-.04-.19-.04-.3,0-.22.07-.37.33-.42.59-.06.26-.06.56.03.86.17.58.61,1.06,1.06,1.07.22,0,.37-.1.45-.19.07-.09.07-.16.06-.17Z"/>
            </g>
          </g>
          <path class="cls-19" d="M167.69,33.85s.26-.2.64-.66c.36-.45.81-1.22.91-2.27.05-.52.02-1.1-.16-1.68-.19-.58-.52-1.16-1.04-1.61-1.01-.91-2.67-1.34-4.17-.81-.14.04-.26.11-.39.17-.12.06-.24.14-.36.2l-.18.1v-.2c0-.35-.14-.69-.37-.95-.23-.26-.52-.46-.84-.6-.64-.28-1.32-.28-1.95-.14-1.25.28-2.31.86-3.32.97-.99.13-1.82-.12-2.26-.45-.23-.16-.36-.34-.44-.45-.07-.13-.11-.19-.1-.2.02-.02.15.28.59.58.44.3,1.23.51,2.19.37.47-.07.98-.24,1.52-.44.54-.2,1.12-.43,1.77-.58.32-.07.67-.12,1.02-.1.36.02.71.1,1.06.24.34.15.67.36.92.66.26.29.42.69.43,1.1l-.18-.1c.12-.07.25-.15.38-.22.14-.06.27-.13.42-.18,1.59-.56,3.33-.1,4.39.87.54.48.89,1.11,1.08,1.71.19.61.2,1.22.14,1.76-.13,1.08-.61,1.86-1.01,2.31-.2.22-.38.38-.51.47-.13.09-.2.14-.2.13Z"/>
          <path class="cls-19" d="M167.1,23.61s-.31-.23-.94-.32c-.31-.04-.7-.04-1.12.1-.41.13-.85.4-1.15.84l-.11.16-.07-.18c-.37-.98-1.44-1.91-2.77-2.05-1-.11-1.9.33-2.66.77-.76.44-1.45.88-2.11,1.09-.65.23-1.22.25-1.59.19-.19-.03-.33-.08-.42-.12-.09-.04-.14-.06-.14-.07,0-.02.2.06.57.1.37.03.91-.01,1.53-.25.63-.22,1.29-.66,2.05-1.12.39-.23.8-.46,1.27-.62.47-.17.99-.25,1.52-.19,1.43.16,2.56,1.16,2.93,2.22l-.18-.02c.34-.47.82-.76,1.27-.88.45-.13.86-.12,1.18-.06.33.06.56.18.71.27.15.1.21.16.21.17Z"/>
          <path class="cls-18" d="M161.13,39.26c-.21-.2-.51-.26-.8-.23-.27.03-.59.27-.76.56,0,0,0,.01-.01.02,0,.01-.02.02-.03.04h.01c-.06.1-.1.22-.09.33.03.27.23.49.47.61.38.19.89.14,1.19-.17.3-.31.32-.86.01-1.16Z"/>
          <path class="cls-21" d="M161.36,40.67s-.08-.13-.2-.32c-.12-.19-.33-.43-.63-.56-.3-.14-.62-.14-.84-.1-.22.03-.36.09-.38.06-.02-.02.09-.14.34-.22.24-.08.61-.11.98.05.36.17.59.47.68.7.1.24.08.4.05.4Z"/>
          <path class="cls-18" d="M152.1,41.23s.13.23-.04.57c-.08.16-.24.34-.48.44-.24.1-.55.06-.8-.1-.25-.16-.41-.42-.43-.68-.02-.26.07-.48.19-.62.24-.3.5-.31.5-.28.02.04-.2.1-.36.38-.08.13-.13.32-.11.51.02.19.15.38.34.5.19.12.42.15.6.09.18-.06.32-.19.41-.32.18-.26.15-.48.18-.49Z"/>
          <path class="cls-18" d="M150.57,41.06s-.01.15-.21.25c-.1.04-.23.07-.38.04-.15-.03-.29-.14-.37-.29-.08-.15-.1-.33-.04-.47.05-.14.15-.24.24-.3.19-.11.33-.07.33-.04,0,.04-.11.06-.22.17-.12.11-.2.32-.09.52.11.21.33.25.48.21.16-.03.24-.11.27-.09Z"/>
        </g>
        <g>
          <path class="cls-20" d="M155.56,81.32s11.22.65,17.86.71c5.14.05,7.43-1.32,8.46-4.62.86-2.77-.99-8.09-.99-8.09-3.47.02-5.62.5-7.86,1.54l.6,2.43-18.1,1.56.03,6.46Z"/>
          <path class="cls-29" d="M177.4,75.89c-.06.04-.59-.94-1.69-1.68-1.09-.76-2.2-.89-2.18-.96,0-.03.28-.03.72.06.44.1,1.03.32,1.6.71.57.39.99.86,1.24,1.23.25.37.35.63.32.65Z"/>
          <g>
            <path class="cls-20" d="M151.45,70.85h0s-3.47.83-6.02,2.54l2.71,7.37c.91,2.42,3.68,3.61,5.88,2.35,3.41-1.95,4.62-7.65,4.62-7.65l3.75-16.27-6.22-3.89-4.72,15.54"/>
            <g>
              <path class="cls-20" d="M156.17,55.31l.25-5.35-1.39-5.42c-.08-.3-.11-.67.13-.86.25-.19.63-.18.84.03.38.39,2.19,5.15,2.19,5.15,0,0,2.75-1.65,3.24-1.73.49-.08,1.1,1.4,1.14,1.52.04.12,0,.99,0,.99,0,0,1.7.05,1.85.28.15.23.2,1.44.2,1.44,0,0,.72.23.84.78.12.55.35,1.44,0,1.64-.34.2-1.06.59-1.06.59,0,0-.29,2.78-.36,3.03-.07.25-1.67,1.81-1.67,1.81l-6.22-3.89Z"/>
              <path class="cls-29" d="M150.39,83.23s.17.1.52.21c.35.12.9.22,1.6.13.7-.09,1.55-.4,2.32-1.07.76-.68,1.52-1.59,2.16-2.73.32-.57.6-1.2.84-1.87.24-.68.4-1.41.58-2.17.36-1.53.74-3.17,1.15-4.92.82-3.5,1.73-7.41,2.72-11.62v-.03s.03-.02.03-.02c.31-.31.63-.62.94-.95.15-.16.31-.33.46-.5.07-.08.15-.17.21-.26.05-.05.05-.16.08-.28.12-.91.22-1.85.32-2.79v-.06s.06-.03.06-.03c.28-.16.57-.32.86-.48.07-.04.16-.09.2-.12.04-.03.07-.08.08-.15.03-.14.02-.31,0-.47-.04-.32-.12-.69-.2-.99-.11-.28-.42-.47-.72-.58l-.08-.03v-.08c-.01-.26-.03-.53-.06-.8-.02-.13-.03-.27-.06-.4-.01-.06-.03-.13-.05-.17-.01-.03,0,0-.03-.03-.02-.01-.04-.02-.08-.03-.5-.14-1.1-.16-1.66-.19h-.12s0-.12,0-.12c0-.28.02-.59,0-.89,0-.08-.06-.2-.11-.3-.05-.11-.1-.22-.16-.32-.11-.21-.23-.42-.37-.6-.07-.09-.15-.17-.23-.23-.09-.06-.13-.07-.24-.03-.21.07-.43.19-.64.29-.85.44-1.67.92-2.47,1.4l-.12.07-.05-.13c-.43-1.07-.85-2.13-1.27-3.18-.21-.52-.42-1.04-.62-1.56-.07-.26-.26-.41-.5-.47-.24-.06-.48.01-.59.22-.06.1-.08.21-.07.32.01.1.06.25.09.38.07.26.14.52.21.78.14.52.27,1.03.4,1.54.27,1.02.53,2.02.79,2.99v.02s0,.02,0,.02c-.09,1.86-.18,3.65-.26,5.35h0s0,.02,0,.02c-1.71,5.57-3.13,10.2-4.13,13.44-.5,1.61-.89,2.87-1.17,3.74-.13.42-.24.75-.31.98-.07.22-.12.33-.12.33,0,0,.03-.12.09-.34.07-.23.16-.56.29-.99.26-.88.64-2.14,1.11-3.76.98-3.25,2.37-7.88,4.05-13.46v.02c.07-1.7.15-3.49.24-5.35v.03c-.26-.98-.52-1.97-.79-2.99-.13-.51-.27-1.02-.41-1.54-.07-.26-.14-.52-.21-.78-.03-.14-.07-.24-.1-.41-.02-.16.02-.32.1-.46.08-.14.21-.25.37-.31.16-.05.32-.05.47-.01.15.04.3.1.42.21.12.1.2.27.24.39.21.51.41,1.03.62,1.56.42,1.04.84,2.1,1.27,3.18l-.17-.06c.81-.48,1.63-.96,2.49-1.41.22-.11.43-.22.67-.31.07-.02.13-.04.23-.03.08.01.16.05.22.09.12.08.21.18.29.28.16.2.28.42.4.64.06.11.11.22.16.33.04.12.12.21.13.38.01.32,0,.62,0,.91l-.11-.12c.58.03,1.15.04,1.73.2.04,0,.08.03.12.05.04.02.11.08.12.12.04.09.06.16.07.23.03.14.05.28.06.42.03.28.05.55.06.82l-.08-.11c.35.13.7.34.87.72.11.37.17.69.22,1.05.02.18.03.36-.01.55-.02.09-.07.2-.16.28-.09.07-.15.09-.23.14-.29.16-.58.33-.87.49l.06-.09c-.1.95-.2,1.88-.32,2.8l-.03.18c0,.05-.05.15-.08.2-.07.11-.15.19-.22.28-.15.17-.31.34-.47.5-.31.33-.63.64-.94.95l.03-.05c-1,4.21-1.92,8.12-2.75,11.61-.42,1.75-.81,3.39-1.17,4.91-.18.76-.35,1.5-.6,2.19-.25.68-.54,1.32-.86,1.89-.65,1.15-1.43,2.06-2.21,2.74-.79.68-1.67.98-2.38,1.06-.72.09-1.28-.03-1.62-.16-.18-.07-.3-.12-.39-.17-.08-.05-.13-.07-.12-.07Z"/>
              <path class="cls-29" d="M162.58,49.63s-.15.05-.39.06c-.24.01-.57.02-.9.11-.33.09-.61.25-.77.41-.17.15-.24.29-.27.27-.03,0,0-.17.15-.38.15-.21.45-.43.83-.53.38-.1.73-.07.97-.05.24.03.39.07.39.11Z"/>
              <path class="cls-29" d="M161.25,49.68c-.06-.02-.07-.16,0-.31.06-.15.15-.25.21-.23.06.02.07.16,0,.31-.06.15-.15.25-.21.23Z"/>
              <path class="cls-29" d="M164.7,51.33c0,.07-.61.14-1.35.19-.37.03-.64.16-.75.36-.12.19-.08.34-.11.35-.02.02-.14-.15-.03-.42.05-.13.16-.27.32-.36.16-.09.35-.14.55-.16.76-.05,1.38-.01,1.37.05Z"/>
              <path class="cls-29" d="M164.4,52.96c.07,0,.1.34.08.75-.02.41-.09.74-.15.74-.07,0-.1-.34-.08-.75.02-.41.09-.74.15-.74Z"/>
            </g>
          </g>
        </g>
        <g>
          <path class="cls-14" d="M166.29,65.17l.4-1.39c.08-.28.43-.37.64-.16l.53.54.33-1.31c.09-.34.56-.39.71-.07l.74,1.55-3.35.84Z"/>
          <path class="cls-14" d="M169.64,64.92c.02.06-.7.3-1.6.52-.9.22-1.64.35-1.66.29-.02-.06.7-.3,1.6-.52.9-.22,1.64-.35,1.66-.29Z"/>
        </g>
        <path class="cls-14" d="M142.68,57.17s-.17.17-.4.54c-.23.36-.49.95-.61,1.71-.13.76-.14,1.69-.08,2.72.05,1.03.13,2.15.26,3.33.25,2.36.63,4.47.96,5.99.16.76.31,1.37.41,1.8.05.19.08.35.12.49.03.11.03.17.03.17,0,0-.02-.06-.05-.17-.04-.14-.08-.3-.13-.48-.11-.42-.27-1.03-.44-1.79-.34-1.52-.74-3.63-.99-6-.13-1.18-.21-2.31-.25-3.34-.05-1.03-.04-1.96.1-2.73.13-.77.41-1.36.65-1.72.25-.36.43-.52.43-.52Z"/>
        <path class="cls-14" d="M152.22,51.01s-.03.02-.1.06c-.09.04-.19.09-.3.14-.26.12-.63.31-1.08.55-.91.49-2.11,1.24-3.41,2.13-1.29.89-2.44,1.73-3.28,2.33-.39.27-.72.51-1,.7-.1.07-.19.13-.27.19-.06.04-.1.06-.1.06,0,0,.03-.03.09-.08.08-.06.17-.13.26-.2.27-.2.6-.45.98-.73.83-.61,1.97-1.46,3.27-2.35,1.3-.89,2.51-1.64,3.43-2.11.46-.24.84-.42,1.1-.53.11-.05.21-.09.31-.13.07-.03.11-.04.11-.04Z"/>
        <path class="cls-14" d="M173.84,53.95s-.03-.02-.08-.06c-.06-.06-.13-.11-.2-.18-.18-.15-.44-.36-.79-.59-.69-.47-1.73-1-2.91-1.47-1.19-.47-2.3-.81-3.11-1.03-.4-.11-.73-.19-.96-.25-.09-.02-.18-.05-.26-.07-.06-.02-.09-.03-.09-.03,0,0,.03,0,.09.01.08.02.17.03.27.05.23.05.56.12.97.22.81.21,1.93.53,3.13,1.01,1.19.48,2.23,1.02,2.92,1.51.7.48,1.04.88,1.04.88Z"/>
        <path class="cls-14" d="M152.35,88.56s-.07-.01-.18-.06c-.11-.05-.27-.12-.45-.24-.36-.23-.84-.67-.99-1.34-.15-.65,0-1.27.18-1.66.09-.2.19-.34.26-.44.07-.09.12-.14.13-.14.02.01-.16.21-.33.6-.16.38-.29.98-.14,1.61.14.63.59,1.06.93,1.3.35.24.6.34.59.36Z"/>
        <path class="cls-14" d="M150.9,83.65s.12.25.22.57c.09.32.15.59.12.6-.03,0-.12-.25-.22-.57-.09-.32-.15-.59-.12-.6Z"/>
        <g>
          <g>
            <path class="cls-21" d="M157.03,185.3l13.83-.07-.25-47.81-.13-48.63-18.73-.23-3.37,6.35c-1.36,2.56-2.28,5.34-2.59,8.23-.24,2.2,1.41,9.36,1.99,11.18l5.16,16.35,4.1,54.64Z"/>
            <path class="cls-21" d="M174.54,88.85l15.19,41.42c1.78,5.55,1.19,11.06-1.87,16.18l-17.64,34.43-9.92-12.41,14.76-30.85-13.01-21.08,2.19-27.66,6.13-.1,4.17.05Z"/>
          </g>
          <path class="cls-19" d="M169.22,102.73s.01.07.02.21c0,.15.02.36.04.62.03.56.07,1.37.13,2.4.1,2.1.25,5.11.43,8.83.17,3.73.38,8.17.6,13.1.11,2.47.23,5.05.35,7.74.09,1.34.05,2.71.06,4.1,0,1.39,0,2.79.01,4.22.02,11.39.04,21.71.05,29.18,0,3.73,0,6.74-.01,8.84,0,1.04-.01,1.84-.02,2.4,0,.27,0,.47,0,.63,0,.14-.01.21-.01.21,0,0,0-.07-.01-.21,0-.15,0-.36-.01-.63,0-.56-.02-1.37-.03-2.4-.01-2.1-.04-5.12-.06-8.84-.03-7.48-.07-17.79-.12-29.18,0-1.42,0-2.83-.01-4.22-.02-1.39.03-2.75-.06-4.1-.12-2.68-.23-5.27-.33-7.74-.21-4.93-.4-9.37-.55-13.1-.15-3.72-.27-6.74-.35-8.84-.04-1.03-.06-1.84-.08-2.4,0-.27-.01-.47-.02-.63,0-.14,0-.21,0-.21Z"/>
          <path class="cls-19" d="M168.87,89.67s.05.16.1.45c.05.29.1.72.16,1.24.12,1.05.25,2.5.32,4.11.07,1.61.08,3.07.05,4.13-.01.53-.03.95-.05,1.25-.02.29-.04.46-.05.46-.03,0-.04-.65-.06-1.71-.02-1.05-.05-2.51-.12-4.11-.07-1.6-.17-3.06-.25-4.11-.08-1.05-.13-1.7-.09-1.71Z"/>
          <path class="cls-19" d="M165.83,90.6s-.24.15-.31.52c-.03.18,0,.4.18.55.16.15.45.23.68.12.23-.11.36-.37.35-.6,0-.23-.15-.4-.3-.49-.33-.19-.58-.07-.59-.11,0-.01.04-.06.16-.09.12-.03.3-.04.51.05.2.08.43.31.44.63.02.3-.13.66-.47.82-.34.15-.71.03-.93-.18-.23-.22-.25-.54-.19-.75.06-.22.19-.35.29-.42.1-.07.17-.07.18-.06Z"/>
          <path class="cls-19" d="M158.57,89.78s.07.15.12.43c.06.29.09.71.04,1.23-.05.52-.21,1.14-.52,1.76-.31.62-.8,1.24-1.45,1.71-.66.47-1.4.73-2.09.83-.69.1-1.32.05-1.83-.07-.51-.12-.9-.29-1.15-.43-.25-.14-.38-.25-.37-.26.02-.05.56.34,1.56.52.98.2,2.48.11,3.75-.79,1.26-.91,1.82-2.31,1.95-3.3.14-1.01-.05-1.64,0-1.65Z"/>
          <path class="cls-19" d="M176.36,93.75s-.34.05-.87-.1c-.53-.15-1.22-.52-1.78-1.14-.57-.63-.87-1.35-.96-1.89-.1-.54-.04-.88-.02-.88.04,0,.04.33.18.84.13.5.44,1.17.98,1.77.54.59,1.17.96,1.66,1.14.49.18.82.22.82.26Z"/>
          <path class="cls-19" d="M181.76,138.41s-.26.3-.8.64c-.27.17-.61.35-1.03.45-.41.11-.91.12-1.39-.04-.97-.32-1.57-1.04-1.94-1.54-.37-.51-.56-.86-.53-.87.03-.02.27.29.66.77.4.47.99,1.13,1.88,1.42.89.3,1.74-.05,2.27-.33.55-.29.86-.52.88-.49Z"/>
          <path class="cls-19" d="M178.3,141.05c-.05.04-.69-.77-1.43-1.81-.74-1.04-1.29-1.91-1.24-1.95.05-.04.69.77,1.43,1.81.74,1.04,1.29,1.91,1.24,1.95Z"/>
          <path class="cls-7" d="M155.07,104.34c-.06.02-.22-.24-.36-.58-.14-.35-.2-.65-.14-.67.06-.02.22.24.36.58.14.35.2.65.14.67Z"/>
          <path class="cls-7" d="M163.84,105.59c-.07,0-.12-.22-.12-.5s.05-.5.12-.5.12.22.12.5-.05.5-.12.5Z"/>
          <path class="cls-7" d="M160.24,110.36c-.07,0-.14-.27-.16-.62-.02-.35.01-.63.08-.64.07,0,.14.27.16.62.02.35-.01.63-.08.63Z"/>
          <path class="cls-7" d="M153.64,113.87c-.05.04-.24-.13-.48-.3-.24-.18-.46-.3-.44-.37.02-.06.3-.02.57.18.28.2.4.46.34.49Z"/>
          <path class="cls-7" d="M165.27,118.3c-.05-.04.01-.23.15-.44.14-.21.29-.35.35-.31.05.04-.01.23-.15.44-.14.21-.29.35-.35.31Z"/>
          <path class="cls-7" d="M158.08,119.55c-.07,0-.12-.37-.12-.84s.05-.84.12-.84.12.37.12.84-.05.84-.12.84Z"/>
          <path class="cls-7" d="M155.75,124.64c-.04.05-.28-.05-.53-.24-.25-.18-.43-.38-.39-.43.04-.05.28.05.53.24.25.18.43.38.39.43Z"/>
          <path class="cls-7" d="M163.01,126.41c.03.06-.12.18-.33.28-.21.09-.4.12-.42.06-.03-.06.12-.18.33-.28.21-.09.4-.12.42-.06Z"/>
          <path class="cls-7" d="M158.08,134.68c-.06.03-.29-.32-.52-.78-.23-.46-.37-.86-.31-.89.06-.03.29.32.52.78.23.46.37.86.31.89Z"/>
          <path class="cls-7" d="M166.1,133.93c-.06-.03.05-.34.23-.68.18-.35.38-.6.44-.57.06.03-.05.34-.23.68-.18.35-.38.6-.44.57Z"/>
          <path class="cls-7" d="M162.59,140.95c-.07-.01-.06-.37-.13-.79-.06-.43-.18-.76-.12-.8.05-.03.28.29.35.76.08.47-.04.84-.1.83Z"/>
          <path class="cls-7" d="M158.83,144.97s-.27-.13-.51-.38c-.23-.25-.38-.5-.33-.54.05-.04.27.13.51.38.23.25.38.5.33.54Z"/>
          <path class="cls-7" d="M167.96,146.49s.12-.29.37-.55c.25-.26.49-.43.54-.38.05.05-.12.29-.37.55-.25.26-.49.43-.54.38Z"/>
          <path class="cls-7" d="M162.71,152.5c-.06,0-.07-.36,0-.77.06-.42.17-.75.23-.74.06,0,.07.36,0,.77-.06.42-.17.75-.23.74Z"/>
          <path class="cls-7" d="M159.17,155.41c-.06.03-.25-.2-.44-.52-.19-.32-.29-.61-.24-.64.06-.03.25.2.44.52.19.32.29.61.24.64Z"/>
          <path class="cls-7" d="M167.69,159.09c.04.05-.19.28-.52.51-.32.23-.62.38-.65.32-.04-.05.19-.28.52-.51.32-.23.62-.38.65-.32Z"/>
          <path class="cls-7" d="M160.6,163.86c-.06-.02.02-.39.06-.84.04-.45.03-.82.09-.84.06-.01.19.37.14.86-.04.49-.23.84-.29.82Z"/>
          <path class="cls-7" d="M163.43,170.72c-.05.04-.24-.11-.43-.34s-.29-.45-.24-.49c.05-.04.24.11.43.34.18.23.29.45.24.49Z"/>
          <path class="cls-7" d="M160.33,175.31c-.05.04-.3-.23-.56-.6-.25-.37-.42-.7-.36-.74s.3.23.56.6c.25.37.42.7.36.74Z"/>
          <path class="cls-7" d="M168.86,169.55c-.06-.02-.05-.19.01-.38.07-.18.17-.32.24-.29.06.02.05.19-.01.38-.07.18-.17.32-.24.29Z"/>
          <path class="cls-7" d="M165.1,180.5c-.06-.03.05-.35.14-.76.09-.4.13-.74.19-.75.06,0,.14.36.04.8-.1.44-.32.74-.37.71Z"/>
          <path class="cls-7" d="M167.54,110.43c-.06.03-.2-.15-.32-.41-.12-.25-.17-.48-.11-.51.06-.03.2.15.32.41.12.25.17.48.11.51Z"/>
          <path class="cls-7" d="M161.25,96.31c.04.06-.28.31-.62.68-.34.36-.57.69-.63.66-.06-.03.1-.44.46-.82.36-.39.76-.57.79-.51Z"/>
          <path class="cls-7" d="M166.85,96.14c-.07.01-.17-.26-.33-.57-.15-.31-.31-.56-.26-.6.05-.04.3.15.47.5.17.34.18.66.12.67Z"/>
          <path class="cls-7" d="M149.4,100.75c-.06-.02,0-.32.14-.67.14-.35.3-.61.36-.58.06.02,0,.32-.14.67-.14.35-.3.61-.36.58Z"/>
          <path class="cls-7" d="M149.97,107.6c-.04.05-.3-.1-.58-.33-.28-.23-.47-.46-.43-.51.04-.05.3.1.58.33.28.23.47.46.43.51Z"/>
          <path class="cls-7" d="M161.42,90.88c-.06.02-.18-.14-.28-.37-.09-.23-.12-.44-.06-.46s.18.14.28.37c.09.23.12.44.06.46Z"/>
          <path class="cls-7" d="M172.39,94.22c-.06-.01-.06-.29.01-.61.07-.32.18-.57.24-.56.06.01.06.29-.01.61-.07.32-.18.57-.24.56Z"/>
          <path class="cls-7" d="M174.96,99.4c-.06-.02.02-.36.18-.76.16-.39.34-.69.4-.67.06.02-.02.36-.18.76-.16.39-.34.69-.4.67Z"/>
          <path class="cls-7" d="M173.12,103.58c-.06.03-.27-.28-.48-.7-.21-.42-.33-.78-.27-.81.06-.03.27.28.48.7.21.42.33.78.27.81Z"/>
          <path class="cls-7" d="M177.05,107.76c-.06-.02-.02-.29.1-.59.12-.3.26-.52.32-.5.06.02.02.29-.1.59-.12.3-.26.52-.32.5Z"/>
          <path class="cls-7" d="M173.54,111.86c-.06.03-.19-.09-.31-.27-.12-.18-.16-.36-.11-.4.06-.03.19.09.31.27.12.18.16.36.11.4Z"/>
          <path class="cls-7" d="M174.29,120.31s-.33-.18-.63-.5c-.3-.32-.5-.62-.46-.67.05-.04.33.18.63.5.3.32.5.62.46.67Z"/>
          <path class="cls-7" d="M178.89,115.46c-.05.04-.3-.19-.55-.51-.25-.32-.42-.62-.37-.66.05-.04.3.19.55.51.25.32.42.62.37.66Z"/>
          <path class="cls-7" d="M181.42,122.15c-.06-.03.04-.37.23-.76.19-.39.38-.69.44-.66.06.03-.04.37-.23.76-.19.39-.38.69-.44.66Z"/>
          <path class="cls-7" d="M176.05,127.66c-.06.03-.27-.22-.56-.48-.29-.27-.56-.46-.53-.52.03-.06.37.05.69.35.32.29.45.63.4.66Z"/>
          <path class="cls-7" d="M176.38,133.35c0,.07-.22.12-.5.12s-.5-.05-.5-.12.22-.12.5-.12.5.05.5.12Z"/>
          <path class="cls-7" d="M181.9,131.76c-.06-.04.06-.32.15-.67.09-.36.12-.66.19-.66.06,0,.14.32.04.72-.1.4-.32.65-.38.62Z"/>
          <path class="cls-7" d="M187.38,133.66c-.06.02-.23-.3-.37-.71-.14-.41-.21-.77-.15-.79s.23.3.37.71c.14.41.21.77.15.79Z"/>
          <path class="cls-7" d="M186.51,141.46c-.06-.03.08-.41.31-.85.23-.44.46-.77.52-.74.06.03-.08.41-.31.85-.23.44-.46.77-.52.74Z"/>
          <path class="cls-7" d="M181.51,146.04c-.06.02-.25-.29-.42-.7-.17-.41-.26-.77-.2-.79.06-.02.25.29.42.7.17.41.26.77.2.79Z"/>
          <path class="cls-7" d="M175.97,147.81c0,.07-.19.12-.42.12s-.42-.05-.42-.12.19-.12.42-.12.42.05.42.12Z"/>
          <path class="cls-7" d="M179.14,155.08c-.06.02-.19-.25-.28-.6-.09-.35-.12-.64-.05-.66.06-.02.19.25.28.6.09.35.12.64.05.66Z"/>
          <path class="cls-7" d="M175.13,152.66c-.06-.03.01-.25.15-.48.14-.23.3-.39.35-.36.06.03-.01.25-.15.48-.14.23-.3.39-.35.36Z"/>
          <path class="cls-7" d="M175.05,160.68c-.06,0-.15-.3-.2-.7-.05-.39-.03-.72.03-.72.06,0,.15.3.2.7.05.39.03.72-.03.72Z"/>
        </g>
      </g>
      <g>
        <path class="cls-27" d="M103.16,148.49s.43-3.77,5.9-5.44c0,0-1.15,5.05-5.9,5.44Z"/>
        <path class="cls-27" d="M103.16,155.2s.87-4.84,8.1-6.55c0,0-1.92,6.44-8.1,6.55Z"/>
        <path class="cls-27" d="M100.77,164.75s1.17-5.6,9.63-7.35c0,0-2.44,7.43-9.63,7.35Z"/>
        <path class="cls-27" d="M94.31,174.52s3.54-5.91,13.86-4.55c0,0-5.71,7.48-13.86,4.55Z"/>
        <path class="cls-27" d="M103.16,148.56s-.49-3.76-6-5.33c0,0,1.25,5.03,6,5.33Z"/>
        <path class="cls-27" d="M103.29,155.27s-.96-4.83-8.22-6.39c0,0,2.04,6.41,8.22,6.39Z"/>
        <path class="cls-27" d="M100.9,164.72s1.07-5.62-6.08-10.48c0,0-.6,7.8,6.08,10.48Z"/>
        <path class="cls-27" d="M94.76,174.61s3.18-6.12-3.39-14.18c0,0-3.38,8.79,3.39,14.18Z"/>
        <path class="cls-2" d="M103.09,148.37s3.84,22.13-21.11,36.17"/>
      </g>
      <g>
        <path class="cls-30" d="M75.61,194.66s.27-6.82-6.16-11.91c0,0,8.99,1,9.72,11.9h-3.56Z"/>
        <path class="cls-27" d="M76.56,194.66s-.84-11.3,9.23-13.64c0,0-5.79,4.08-6.37,13.64h-2.86Z"/>
        <path class="cls-30" d="M76.56,194.66s2.29-10.08,11.83-9.72c0,0-7.22,4.05-7.64,9.72h-4.19Z"/>
      </g>
      <g>
        <path class="cls-30" d="M118.12,194.2s-1.28-4.26,4.41-6.57c0,0-6.44-1.24-6.96,6.57h2.55Z"/>
        <path class="cls-27" d="M117.44,194.2s-1.19-4.76,1.27-10.68c0,0-4.56,2.24-3.32,10.68h2.05Z"/>
        <path class="cls-30" d="M117.44,194.2s-.37-5.44-7.2-5.19c0,0,4.89,1.58,4.2,5.19h3Z"/>
      </g>
    </g>
  </g>
</svg>