<?xml version="1.0" encoding="UTF-8"?>
<svg id="Layer_6" data-name="Layer 6" xmlns="http://www.w3.org/2000/svg" viewBox="0 0 100.28 100.28">
  <defs>
    <style>
      .cls-1 {
        fill: #fecdbe;
      }

      .cls-2 {
        fill: #fedece;
      }

      .cls-3 {
        fill: #678c97;
      }

      .cls-4 {
        fill: #e9eff2;
      }

      .cls-5 {
        fill: #678d98;
      }

      .cls-6 {
        fill: #dbf4f7;
      }

      .cls-7 {
        fill: #fea68e;
      }

      .cls-8 {
        fill: #fbcfc1;
      }

      .cls-9 {
        fill: #7ca0b0;
      }

      .cls-10 {
        fill: #c6f0f1;
      }
    </style>
  </defs>
  <path class="cls-2" d="M42.8,61l.46-.05c1.96,1.38,4.05,2.56,6.26,3.55l.15.5c-.04.16-.08.31-.15.46s-.13.27-.23.35c-1.04.87-2.2,1.58-3.36,2.29-2.21,1.35-4.85,2.83-7.33,3.39l-.45.2c-4.14-.68-8.27-1.45-12.42-2.33-4.14-1.18-7.95,2.7-4.67,6.21l-.02.5c.1.15.11.27-.03.3l-1.69.27c-6.23-.61-12.13-2.39-13.84-9.16-1.24-4.92.04-9.19,3.91-12.41l.46-.16c1.35.94,6.82,3.41,8.08,2.63.65-.4.71-1.26.16-1.76l-5.74-1.81c-.22-.15-.38-.36-.48-.61-1.35-.59-3.21-1.68-4.52-2.45-2.23-1.32-4.92-2.87-6.17-5.19v-2.29c1.18-3.81,2.61-8.6,5.53-11.45.74.31.77,1.74.72,2.52l-.39,2.41c-.21,1.31-.22,2.89,1.5,2.94,5.22.41,9.9.95,14.49,3.63,7.17,4.19,10.67,11.14,6.12,18.77-.82,2.34,4.48,1.26,4.88-.55.58-1.21,1.21-2.35,1.9-3.43.87.51,1.72,1.15,2.54,1.91,1.33.93,2.9,2.02,4.32.82Z"/>
  <path class="cls-9" d="M68.18,55.08c.28-.13.72-.18.95,0,2.26.28,4.82,1.09,6.74,2.32,1.06.69,2.63,2.49,3.74,2.75,1.54.36,4.75.07,6.5.08.17.05.16.12,0,.19l-.17.38h-4.95s-.03,21.34-.03,21.34l-.38.23c-3.8-.78-7.72-1.31-11.55-2.1-7.82.71-16.11,2.88-23.88,3.41-1.15.08-2.16-.04-3.28-.3-6.59-1.54-13.43-5.08-20.08-6.74-.59-.1-.85-.29-.76-.57-3.36-2.93-1.06-7.65,3.51-7.23s9.48,2.06,14.05,2.65c1.96-.16,3.59-.4,5.29-1.61l4.23-2.61.41.2.72.02c2.6,1.7,5.66,2.25,8.66,2.78,2.67.47,5.67.97,8.34,1.33,1.26.17,1.65-1.89.48-2.16-.84-.19-1.69-.34-2.54-.48-4.45-.32-8.66-1.19-12.63-2.63l-.18-.4c-.54,0-1.7-.32-1.72-.95-1.39-.71-6.21-2.99-6.87-4.01-.58.26-1.12-1.48-.57-1.72-.64-.24-.36-1.09-.18-1.65.59-1.78,2.39-2.87,4.21-2.92,1.23-.04,4.45.88,5.73,1.31l.26.4.21-.38c.74-.1,2.67-.19,3.03.38.04-.59,1.71-.92,2-.38l.71-.46c1.37-.29,8.88-1.16,9.6-.76.13.07.25.17.37.27Z"/>
  <path class="cls-2" d="M66.08,23.4c.46.55.03.18.07.18,2.76-.06,6.92,3.01,8.54,5.19,7.8,10.44.73,26.04-12.4,26.33.26-4.14-3.75-5.98-7.23-6.99l-.24-.48-.04-.5c1.02-1.06,1.14-1.95.42-3.19-1.8-2.23-3.43-4.48-2.86-7.57-.3-.37-.3-.94-.02-1.7-.02-.86.17-1.44.59-1.74.6-1.48,1.09-2.83,2.1-4.1,2.26-2.82,7.5-5.16,11.07-5.44Z"/>
  <path class="cls-7" d="M86.12,83.53l-.38-.23v-22.63l.38-.23v-.19c3.14.02,6.76-.25,9.83,0,1.59.13,2.91.53,2.97,2.38-.51,6.86.66,14.65,0,21.4-.14,1.41-.96,2.21-2.39,2.2-3.51-.67-6.93-1.9-10.4-2.69Z"/>
  <path class="cls-1" d="M70.28,23.4l.27-.35c1.73.22,3.23.84,4.5,1.88,13.37,6.58,9.2,27.7-5.92,29.97-.28.06-.6.12-.95.19-3.52-.2-7.15.59-10.69.95l-.39-.44c-.2-4.76-4.98-6.8-8.97-7.89l-3.16-.78c-2.51-.94-.87-5.39-.17-7.16,1.23-2.32,2.22-4.38,2.01-7.13l.37-.65c.36-.32.85-1.11,1.46-1.5,1.78-1.11,4.34.67,4.26,2.45-.04.92-.3,2.54-.57,3.44,0,1.04-.34,2.03-1,2.98-.41.81-2.12,6.29-1.47,6.56l4.48,1.19.47.53c2.46.76,5.63,1.83,7.03,4.14.61,1.02.99,1.94.61,3.11,12.04-.76,19.05-14.29,12.75-24.68-2.14-3.53-5.04-5.18-8.86-6.41-.37-.12-.64.18-.26-.4,1.11-.09,3.11-.12,4.2,0Z"/>
  <path class="cls-2" d="M47.19,31.99c-.04,1.57.04,3.74-.66,5.17s-1.22,2.09-1.73,3.81-1.69,4.69.31,5.61c5.1,1.14,12.46,3,12.38,9.47-.52.05-1.59.38-2,.38h-3.24c-1.22,0-4.02-1.19-5.56-1.31-2.4-.19-4.68,1.65-4.46,4.18-.96.51-2.49-.66-3.29-1.33-.93-.78-1.7-1.74-2.31-2.79s-1.65-3.03-1.08-4.09c-1.3-7.78,6.41-14.48,11.64-19.09Z"/>
  <path class="cls-1" d="M35.54,51.07c.6,3.6,3.05,7.23,6.68,8.21.01.12.5,1.6.57,1.72-.01.43-.38.75-.75.87-1.72.54-4.9-2.08-6.02-3.35-1.42,3.02-2.21,5.97-6.29,5.33-2.27-.36-.32-2.84.12-3.87,4.04-9.57-5.2-16.82-13.55-18.78-2.83-.66-5.4-.6-8.14-1.02-2.9-.45-.9-4.66-1.08-6.56-.05-.54-.37-1.08-.36-1.64,1.38-1.35,2.82-2.14,4.57-.85,1.28.95,1.46,2.49,1.32,3.97-.14,1.49-1.38,3.27-.08,4.51.88.84,3.5.59,4.77.76,6.03.78,12.67,2.69,16.4,7.84.66.92,1.07,2.03,1.83,2.85Z"/>
  <path class="cls-3" d="M86.12,60.43v23.1c-1.8-.41-3.74-.78-5.53-1.15v-21.95s5.53,0,5.53,0Z"/>
  <path class="cls-1" d="M11.88,53.37c2.05.9,4.29,1.35,6.4,2.09,1.22.98.37,2.75-1.12,2.67s-4.73-1.44-6.17-2.06l-1.59-.99c.79-.66,1.58-1.21,2.48-1.72Z"/>
  <path class="cls-5" d="M70.28,23.4c-.92-1.6-.3-7.25,2.25-6.56,2.06.56.37,2.63.25,3.62-.11.94.14,1.76.7,2.51l1.57,1.96c-1.11-.55-3.58-1.4-4.77-1.53Z"/>
  <path class="cls-10" d="M39.5,17.14c.55-.17,1.1-.04,1.57.26.35.22,2.92,2.8,3.15,3.15.92,1.44-.51,2.87-2.07,2.07-.45-.23-3.44-3.33-3.52-3.74-.13-.61.25-1.55.87-1.73Z"/>
  <path class="cls-6" d="M34.53,26.3c.6-.17,3.58-.1,4.17.14,1.61.63,1.11,2.62-.41,2.87-.39.06-3.39-.16-3.72-.26-1.14-.37-1.15-2.42-.04-2.74Z"/>
  <path class="cls-6" d="M48.85,12.17c1.23-.27,1.79.46,1.94,1.6.08.59.12,2.9-.02,3.38-.38,1.29-2.58,1.21-2.81-.35-.1-.68-.29-2.99-.16-3.58.11-.48.56-.95,1.05-1.05Z"/>
  <path class="cls-8" d="M21.8,76.65c-.8-.05-1.69.08-2.48,0l1.72-.57c.22.19.58.3.76.57Z"/>
  <path class="cls-4" d="M69.13,54.89v.19c-.3-.04-.64.02-.95,0,.16-.33.66-.15.95-.19Z"/>
  <path class="cls-1" d="M51.38,65.96c.05.14.09.33,0,.4-.6.43-2.22,1.29-2.86,1.13-1.89,1.06-6,4.04-7.91,4.21-.81.07-1.32-.11-2.01-.2,3.79-1.95,7.82-3.7,11.07-6.49.53.27,1.38.34,1.72.95Z"/>
  <path class="cls-3" d="M51.38,65.96c.6-.04,2.39.88,3.21,1.09,3.89,1,8.31,1.15,12.26,2.06,1.53.6,1.24,2.87-.63,2.9-5.84-1.39-12.64-.99-17.69-4.52.48-.27,2.56-1.51,2.86-1.53Z"/>
  <path class="cls-5" d="M61.36,32.32c-.83-.81-.34-2.41.86-2.59,2.17-.33,5.48,4.51,2.96,5.27-1.9.58-1.78-1.16-2.53-1.97-.38-.41-1.02-.46-1.29-.72Z"/>
</svg>