<?xml version="1.0" encoding="UTF-8"?>
<svg id="Layer_6" data-name="Layer 6" xmlns="http://www.w3.org/2000/svg" viewBox="0 0 100 100">
  <defs>
    <style>
      .cls-1 {
        fill: #afa7ae;
      }

      .cls-2 {
        fill: #1bacdd;
      }

      .cls-3 {
        fill: #dad7da;
      }

      .cls-4 {
        fill: #7ad6ed;
      }

      .cls-5 {
        fill: #ebe9eb;
      }

      .cls-6 {
        fill: #736572;
      }

      .cls-7 {
        fill: #b7b1b7;
      }

      .cls-8 {
        fill: #615260;
      }

      .cls-9 {
        fill: #4bc2ee;
      }

      .cls-10 {
        fill: #625361;
      }

      .cls-11 {
        fill: #c8c4c8;
      }

      .cls-12 {
        fill: #fefefe;
      }

      .cls-13 {
        fill: #9d949d;
      }
    </style>
  </defs>
  <path class="cls-12" d="M65.85,79.04c.14.02.36.06.37.17.12,1.11.15,4.43,0,5.5l-.37.27-.2.38c-2.04-.22-3.32.4-3.85,1.87-.2,2.5-.2,5.05,0,7.55.3.77.86,1.38,1.67,1.83l-.04.42H28.75l.09-.43c.66-.28,1.36-.72,1.7-1.37.53-1.04.41-5.13.33-6.43-.19-3.03-.97-3.37-3.94-3.44l-.21-.38c-.07-2.05-.13-4.11-.18-6.17,12.23-.28,24.48-.15,36.71,0l2.61.23Z"/>
  <path class="cls-1" d="M68.82,84.98c1.61.05,3.54-.13,4.31,1.72.49,1.2.52,7.1.1,8.33-.37,1.08-1.22,1.54-2.18,2h-2.23l-.37-.17v-11.66l.37-.22Z"/>
  <path class="cls-7" d="M65.85,84.98c.36,4.01.36,8.04,0,12.05h-2.41c-.76-.51-1.8-1.21-2-2.17s-.19-6.75,0-7.7c.45-2.2,2.73-2.13,4.41-2.17Z"/>
  <path class="cls-7" d="M23.55,84.98c.57,3.98.55,8.06,0,12.05h-2.41c-.84-.63-1.79-1.22-2-2.36s-.2-6.22,0-7.33c.43-2.37,2.6-2.3,4.41-2.36Z"/>
  <path class="cls-1" d="M28.75,97.03h-2.04c-.55-3.99-.57-8.07,0-12.05,1.89.06,4.08.03,4.44,2.52.17,1.16.18,6.26-.06,7.32-.26,1.13-1.31,1.85-2.33,2.21Z"/>
  <path class="cls-6" d="M26.52,84.98c.03-.17.1-.16.19,0-.02,4.01.01,8.04,0,12.05h-3.15c-.01-4.01.02-8.04,0-12.05.03-.17.1-.16.19,0,.86-.56,1.92-.56,2.78,0Z"/>
  <path class="cls-6" d="M68.82,84.98v12.05h-2.97v-12.05c.92-.56,2.04-.56,2.97,0Z"/>
  <path class="cls-5" d="M22.07,56.42c.1.14.16.33.19.56l.44.17c.31,1,1.09,1.65,2.11,1.85,5.95.05,11.89.07,17.83.06,1.42-.05,2.82-.59,3.15-2.07l.41-.2c.1-.5.36-.75.76-.75h26.29c.32,0,.52.22.6.51v16.15s-.37.22-.37.22l-.18.37c-18.97,0-37.95,0-56.92,0l-.23-.37c-.09-5.49,0-11.01,0-16.5.02-.14.06-.36.17-.37.77-.06,5-.14,5.5,0l.27.37Z"/>
  <path class="cls-5" d="M35.8,8.96l.27.74h35.26c.89.12,1.58.46,2.32.93l.34.51c-.03,13.97-.08,27.94-.16,41.91l-.24.48c-9.13.2-18.28.28-27.4-.25-.99.15-1.98.11-2.97,0-.32-1.18-.45-2.38-.39-3.6-.1-4.77-.1-9.67.39-14.39-.17-.03-.16-.1,0-.19-.58-.63-.53-2.12,0-2.78l-.4-.37c-.12-1.7-.85-3.23-2.29-4.2l-.28-.63-.46.16c-.83-.45-1.73-.74-2.7-.85.14-1.72.21-3.51.01-5.24-.42-.06-1.09-.45-.93-.93l-.9-.22c-.14-3.71-.11-7.39.1-11.04l.42-.05Z"/>
  <path class="cls-5" d="M32.64,9.7l.34.76.11,8.08c.18,1.11-.1,1.68-.82,1.73-.64.83-.89,1.5-.74,2.66l-.37.3c.54.84.57,2.15,0,2.97l-.42.41c-2.95.2-4.79,2.26-5.09,5.13l-.42.39c-.14.81-.19,2.12,0,3.15.09.3.18.6.24.9s.12.6.12.9c.05,4.2.01,8.41-.05,12.61-.35,1.11-.52,2.3-.5,3.58-.93.12-1.88.15-2.84.09-.05.16-.09.28-.15.28-1.04.07-4.84.2-5.7,0l-.22-.37c-.02-12.76.02-25.53,0-38.3.3-2.6,2.24-4.7,4.79-5.23l11.73-.05Z"/>
  <path class="cls-3" d="M32.64,9.7c.25-4.02,2.73-7.02,6.79-7.58,10.38.54,21.61-.79,31.9-.03,5.31.39,10.16,4.07,11.86,9.1,1.43,4.23.31,10.03.65,14.55.17,2.24,1.32,4.64,3.81,4.91,1.62.18,5.73-.81,5.28,1.93-.27,1.61-3.44,1.32-4.72,1.22-10.02-.84-6.8-12.31-7.32-19.01-.43-5.51-4.91-9.37-10.3-9.74-9.92-.68-20.62.52-30.62,0-2.32.37-3.74,1.58-4.18,3.89-.02.13-.17.28-.2.63-.27,3.27.24,6.92,0,10.23-.04.33.32.27.57.45-.17.72-1.52.31-2.04,0-.13.56-1.68.5-1.86,0,.36-.18.35-.26.38-.63.26-3.17-.21-6.72-.01-9.94Z"/>
  <path class="cls-3" d="M76.43,72.93l-.21.37c-.61.11-2.49.17-2.76-.37v-16.5s-26.64-.01-26.64-.01l-.63.38c-.5-.71-.64-2.73,0-3.34-.16-.05-.16-.11,0-.19,9.09-.02,18.19.01,27.27,0l.18-42.65c1.73,1.1,2.63,2.86,2.79,4.91-.25,19.12.31,38.27,0,57.39Z"/>
  <path class="cls-7" d="M76.43,72.93c-.03,1.88.48,4.38-1.39,5.56-1.37.87-4.54.53-6.22.55-.93.54-2.04.53-2.97,0-13.05.09-26.1-.07-39.15,0,0,1.98.01,3.96,0,5.93-.06,0-.12,0-.19,0-.14-.02-.36-.06-.37-.17-.06-.77-.14-5,0-5.5l.37-.27c-.18.62-2.5.57-2.78,0,.14.02.35.06.37.17.16,1.02.11,4.4,0,5.5l-.37.27c-.06,0-.12,0-.19,0,0-1.97,0-3.96,0-5.93h-4.55c-.06,0-1.01-.27-1.15-.33-1.27-.52-1.63-1.56-1.72-2.82l.18-.37h54.44c1.31-.13,2.06-1.18,2.3-2.41l.41-.19h2.97Z"/>
  <path class="cls-11" d="M73.46,72.93c-.26,1.52-1.03,2.78-2.69,2.97H16.13c-.07-.95.02-2,0-2.97h57.33Z"/>
  <path class="cls-3" d="M25.04,53.27c.15.33.08.48-.26.54h-2.32s-.04,2.24-.04,2.24l-.35.37h-5.94c0-1.05,0-2.1,0-3.15h8.91Z"/>
  <path class="cls-8" d="M68.82,79.04v5.93c-.98-.03-1.99-.03-2.97,0v-5.93c.99,0,1.98.01,2.97,0Z"/>
  <path class="cls-10" d="M23.74,84.98v-5.93h2.78v5.93c-.92-.03-1.86-.03-2.78,0Z"/>
  <path class="cls-13" d="M46.19,53.46c-.08,1.07.11,2.29,0,3.34-.17,1.61-1.54,2.47-3.05,2.6-5.83.52-12.45-.39-18.36-.02-1.37-.28-2.18-1.1-2.52-2.39-.32-.79.12-1.12,1.3-.98,4.95.05,9.9.11,14.85.17,2.19-.04,4.12-.25,4.46-2.71,1.09-.18,2.27-.12,3.33,0Z"/>
  <path class="cls-7" d="M43.22,53.27c.99,0,1.98,0,2.97,0v.19c-.48.08-2.78-.13-2.95.02-.04.04-.16.82-.3,1.09-.61,1.25-1.44,1.69-2.81,1.83-5.49.58-11.86-.41-17.43.02-.57.04-.48-.09-.45.56-.04-.15-.15-.22-.19-.56-.09-.94.07-2.01,0-2.97.83-.04,1.69.06,2.52,0,.24-.02.42-.19.45-.19.03-.17.1-.16.19,0,.49-.22,1-.36,1.53-.42,4.97-.08,9.95-.05,14.92.05.26,0,.52.06.78.13s.52.15.77.25Z"/>
  <path class="cls-4" d="M67.9,18.78l-.18.37c-.13,7.12-.11,14.25.05,21.39.1,2.78-1.44,4.08-4.05,4.23-1.71.1-3.41.12-5.13.12-3.03,0-6.4-.01-9.25-.33-.05-.4-.1-.71.01-1.2.5-7.07-.69-15.13-.02-22.08.16-1.68,1.47-2.52,3.07-2.68,4.69-.47,10.1.36,14.86-.02.26-.1.51.17.63.2Z"/>
  <path class="cls-9" d="M67.9,18.78c1.43.32,2.17,1.01,2.41,2.5-.55,7.49.72,16.01,0,23.37-.15,1.6-1.36,2.44-2.88,2.68-4.87-.36-10.42.48-15.21,0-1.68-.17-2.69-1.09-2.88-2.78.19-.31.7-.19,1.02-.19,4.34-.05,9.52.38,13.73,0,1.74-.16,2.88-.92,3.25-2.68.42-7.29-.57-15.23,0-22.45.04-.57-.09-.48.56-.45Z"/>
  <path class="cls-11" d="M43.22,35.29c.09,5.99-.07,11.99,0,17.99-5.92.01-12.12-.25-18,0-.11-.95-.11-1.94,0-2.97l.17-.37h11.02l.22.37.03-.4c2.97-.99,3.3-3.3,3.33-6.17l-.17-7.58c-.04-.36.14-.65.43-.87.89-.16,2.06-.16,2.97,0Z"/>
  <path class="cls-3" d="M37.1,21.2c.51,1.32,0,3.52.19,5,1.15-.03,2.02.36,2.97.93l.37.54c.06.25.13,4.23-.01,4.4-.06.07-.14.12-.24.16-5.08.05-10.13.02-15.15-.09.4-3.63,2.13-5.69,5.94-5.93.17-.2.39-.33.64-.4h4.93s0-4.34,0-4.34l.37-.27Z"/>
  <path class="cls-6" d="M40.25,32.32l.37.16v2.25s2.33,0,2.33,0l.26.37c0,.06,0,.12,0,.19h-2.97c-5.01.36-10.02.36-15.03,0-.16-.99-.16-2.01-.02-3.01,5.02-.08,10.03-.1,15.05.04Z"/>
  <path class="cls-8" d="M36.17,20.27c.48.34.65.22.93.93v5.01c-1.95.09-4-.13-5.94,0,.02-.99-.03-1.98,0-2.97l.2-.4c1.23-.18,2.32-1.02,2.4-2.32l.38-.24s.12-.16.27-.16c.5,0,1.18.31,1.77.16Z"/>
  <path class="cls-11" d="M43.22,32.32l-.21.37c-.61.11-2.49.17-2.76-.37-5.01,0-10.02,0-15.03,0,0,.99,0,1.98,0,2.97-.29-.1-.22-2.11-.2-2.53.02-.34.19-.55.2-.63h15.03s0-5.01,0-5.01c2.04,1.24,2.82,2.8,2.97,5.19Z"/>
  <path class="cls-8" d="M43.22,32.32c.06.92-.02,1.86,0,2.78h-2.97s0-2.78,0-2.78h2.97Z"/>
  <path class="cls-3" d="M40.25,35.29c-.31,3.49.45,7.74-.08,11.13-.19,1.18-.9,2.44-1.9,3.11-.2.13-1.53.77-1.64.77h-11.41v2.97c-.06,0-.12,0-.19,0,.3-5.97.14-11.99.19-17.99h15.03Z"/>
  <path class="cls-6" d="M32.27,20.27c.52-.08,1.28.01,1.86,0,.04,1.73-1.35,2.81-2.97,2.97.03-1.01-.27-2.75,1.11-2.97Z"/>
  <path class="cls-2" d="M61.4,24.72c1.18.04,2.64-.3,2.92,1.25.2,1.13.19,5.07.05,6.27-.12,1.02-.77,1.46-1.77,1.57s-5.33.14-6.18-.12c-1.45-.45-1.11-1.85-1.14-3.03l.21-.38,2.54.05c3.15.13,3.14-2.89,2.99-5.3l.38-.31Z"/>
  <path class="cls-9" d="M61.4,24.72c-.06,1.44.23,2.99-.39,4.34-1.08,2.34-3.67,1.43-5.73,1.6-.04-1.13-.24-4.89.46-5.57.26-.26.58-.33.93-.37,1.3-.15,3.37-.04,4.74,0Z"/>
  <path class="cls-9" d="M56.34,36.81c.81-.17,1.68.18,1.87,1.02.35,1.56.06,4.19-2.14,3.25-1.21-.52-1.17-3.96.27-4.27Z"/>
  <path class="cls-9" d="M63.94,37.2c.96,1.05.7,4.68-1.66,3.98-1.07-.32-1.08-2.7-.83-3.54.26-.91,1.83-1.17,2.5-.44Z"/>
</svg>