<?xml version="1.0" encoding="UTF-8"?>
<svg id="Layer_6" data-name="Layer 6" xmlns="http://www.w3.org/2000/svg" viewBox="0 0 100.28 100.28">
  <defs>
    <style>
      .cls-1 {
        fill: #a8afba;
      }

      .cls-2 {
        fill: #dbe0e2;
      }

      .cls-3 {
        fill: #e3e7ea;
      }

      .cls-4 {
        fill: #a3d3fe;
      }

      .cls-5 {
        fill: #7f8c98;
      }

      .cls-6 {
        fill: #c8cdd1;
      }

      .cls-7 {
        fill: #678291;
      }

      .cls-8 {
        fill: #fccc56;
      }

      .cls-9 {
        fill: #eec6a3;
      }

      .cls-10 {
        fill: #38a7d1;
      }

      .cls-11 {
        fill: #636c77;
      }

      .cls-12 {
        fill: #5e8ea4;
      }

      .cls-13 {
        fill: #e2e7ea;
      }

      .cls-14 {
        fill: #718c9c;
      }

      .cls-15 {
        fill: #c9cfd6;
      }

      .cls-16 {
        fill: #4fbfe7;
      }

      .cls-17 {
        fill: #66d3f0;
      }

      .cls-18 {
        fill: #fdfefe;
      }

      .cls-19 {
        fill: #637784;
      }

      .cls-20 {
        fill: #748b99;
      }

      .cls-21 {
        fill: #f3f5f7;
      }
    </style>
  </defs>
  <path class="cls-15" d="M50.1,77.46c.04,6.71.05,13.46-.1,20.14-.1.18-.27.26-.44.35-.79.41-5.86.46-6.39-.23-.41-.54-.09-4.48-.18-5.54-.26-3.06-2.09-5.46-5.22-5.84-7.32.52-15.51-.66-22.72,0-3.1.28-4.98,2.89-5.22,5.84-.09,1.06.23,5-.18,5.54-.5.65-4.14.56-5.06.48-.69-.05-1.7-.07-1.86-.9-.02-6.61,0-13.23,0-19.84l.19-.39h46.96l.24.39Z"/>
  <path class="cls-3" d="M97.49,80.03l-.14.39c-8.63-.06-17.25-.13-25.88-.19l-.24-.4c-.03-3.88.02-7.77,0-11.65h-9.08c-.17-.06-.17-.12,0-.2,3.5-.6,7.16-.58,10.66,0l1.82-.36c7.11.86,11.7-2.35,10.81-9.9l.4-.41c3.25.25,6.98-.33,10.17,0,1.13.12,1.39.36,1.49,1.47.58,6.31.04,14.71,0,21.24Z"/>
  <path class="cls-11" d="M97.49,42.12c-8.66.09-17.39.14-26.17.16v-18.78s.1-.53.1-.53c.32-.78.65-.73,1.47-.8,7.34-.6,15.49.47,22.92,0,.7.04,1.68.2,1.68,1.08-.04,6.29.02,12.58,0,18.87Z"/>
  <path class="cls-15" d="M41.61,61.67c1.45-.21,2.89-.23,4.34-.07l.2.46c.78-.83,3.49,2.15,3.54,2.65.13.18-.02.35-.18.51.84.12,1.28,2.3.59,2.76.06.84-.02,1.72,0,2.57l-.19.39H2.96l-.24-.39c0-1.31,0-2.64,0-3.95.14-2.7,2.28-4.58,4.85-5.04.68-.12,2.11-.28,2.46.3,1.43-.66,3.49-.61,4.94,0,3.36-.63,6.9-.6,10.27,0,.93-.49,1.83-.49,2.76,0,3.14-.64,6.72-.57,9.87,0,.78-.62,2.85-.61,3.75-.2Z"/>
  <path class="cls-1" d="M50.1,70.55c.04,2.3-.01,4.61,0,6.91H2.71c0-2.3,0-4.61,0-6.91h47.39Z"/>
  <path class="cls-15" d="M62.15,65.22c-.92.39-1.85.39-2.76,0l-.39-.19V5.04l.39-.24-.18.39h-11.04l-.23-.39.41.25c-.08.86-.05,1.71.08,2.55l-.29.36c-.97.52-1.99.52-2.96,0,.18-1.26-.58-5.44.93-5.88l14.78-.05c.67,0,1.04.61,1.19,1.18l.08,62.01Z"/>
  <path class="cls-21" d="M19.1,38.17l.16.59c-1.17,2.67-.71,5.79,1.05,8.09l-.02.6.57.05c1.02,1.15,2.33,1.93,3.84,2.24l.33.47c.55,1.46.57,3.08,0,4.54l-.27.43-5.56-.08c-3.99.32-3.98,3.19-3.84,6.46l-.39.29c-1.64.01-3.3-.05-4.94,0l-.38-.1c-.55-5.58-.67-11.69-.11-17.35l.29-.33c.47-5.39,4.56-6.4,9.28-5.92Z"/>
  <path class="cls-21" d="M42.99,44.09l.29.34c.4,5.34.44,10.71.1,16.11l-.59.74c-.04.41-.43.54-1.18.39-1.33.25-2.42.17-3.75.2l-.4-.31c.23-4.35-.22-6.36-4.97-6.47l-4.29.11c-.24.02-.34-.19-.41-.44-.57-1.46-.55-3.08,0-4.54l.33-.47c1.51-.32,2.83-1.08,3.84-2.24l.57-.05v-.63c1.81-2.33,2.15-5.37.86-8.03l.13-.62c4.77-.45,9,.41,9.48,5.92Z"/>
  <path class="cls-1" d="M97.49,80.03c0,1.11.19,5.8-.18,6.38-.09.15-.23.2-.39.24l-24.81.1c-.23,0-.42-.03-.59-.2-.52-.51-.28-5.63-.29-6.72l26.26.2Z"/>
  <path class="cls-3" d="M97.49,42.32c-.01,2.53.02,5.06,0,7.6-.06.43-.37.68-.79.7-3.65.02-7.27-.05-10.86-.2l-.39-.21.05-4.24.34-.29c-.32-.19-.6-.46-.79-.79l-1.18.2c.06.46-.18.56-.59.39-.23.5-.36,1.03-.39,1.58.14,1.1.13,2.26,0,3.36-1.22.16-2.71.16-3.95,0v-3.16c-.18-.04-.17-.1,0-.2l-.2-1.18c-.48-.15-.88-.41-1.18-.79-.19-.21-.52-.21-.99,0-.5.55-.67,1.24-.59,1.97.53.67.63,2.75,0,3.36-1.29.08-2.61.14-3.95.2-.35-.06-.79-.43-.79-.79.13-2.55.17-5.13.11-7.74,8.71.12,17.42.2,26.15.24Z"/>
  <path class="cls-9" d="M33.52,38.17c1.7,3.16,1.3,6.57-.99,9.28l-.53-.29c-2.06-5.12-9.13-5.12-11.19,0l-.53.29c-2.17-2.54-2.75-6.24-1.18-9.28,2.88-5.59,11.47-5.47,14.41,0Z"/>
  <path class="cls-16" d="M77.55,45.08c.88.05.86-.04,1.18.79l.2,1.18c0,.07,0,.13,0,.2l-.02,3.03c.48.12.48.24,0,.35.03,3.69-.03,7.37-.17,11.04.71.32-.46,3.12-.78,3.38l-.6.18.06.54c-1.25,1.33-2.77,2.1-4.6,2.22-3.55.03-7.11,0-10.66,0-.98.39-1.98.39-2.96,0h-9.08c-.07-1.06-.15-1.77-.59-2.76.01-.56.46-.54.59,0,3.09-.39,6.19-.39,9.28,0,.92,0,1.85,0,2.76,0,2.98-.01,6.14.15,9.08,0l.22-.41c2.2.1,3.96-1.55,4.11-3.73l.02-3.45.4-.31c.03-2.23-.04-4.48,0-6.71-.18-.04-.17-.1,0-.2.02-1.07-.11-2.33,0-3.36-.09-.71.09-1.45.59-1.97.46-.22.79-.22.99,0Z"/>
  <path class="cls-3" d="M9.82,44.09c-.42,4.81-.18,11.76,0,16.69.01.38-.02.75.21,1.08-1.97.06-2.89-.15-4.65.98-1.5.97-2.02,2.17-2.66,3.76.01-5.31-.45-11.73,0-16.89.33-3.8,3.42-5.97,7.12-5.62Z"/>
  <path class="cls-4" d="M45.17,7.96c.98-.02,1.98-.02,2.96,0,.47-.76,2.35-.62,2.91.19.6.88.5,8.37.04,9.52s-1.56,2.09-2.58,2.71c.21,8.22.09,16.65-.37,25.29.21.32.35.63.4,1.01.19,1.5.29,10.44-.29,11.15-.09.11-.19.2-.31.28l-.39-.14V20.74c-.13-.1-1.64-.1-1.78,0l-.19,36.93-.4.24-.33-.83c.05-4.21.07-8.4.07-12.58l.26-.41c.02-7.98-.03-15.97,0-23.96-1.15-.55-2.46-1.74-2.73-3.04s-.2-6.58-.06-8.06c.16-1.58,1.46-1.05,2.78-1.07Z"/>
  <path class="cls-15" d="M62.15,67.98v17.38h3.46c.09,0,.82.54.9.68.59.97.03,1.99-1.09,2.1-3.08.3-6.7-.21-9.84-.05-1.62-.37-.84-2.72.16-2.72h3.65l-.2-17.38c.98,0,1.98,0,2.96,0Z"/>
  <path class="cls-10" d="M83.87,45.08c.36-.14.91-.24,1.18,0,.24.14.51.34.79.59.16.17,0,4.04,0,4.74.18.04.17.1,0,.2,0,2.23.04,4.48,0,6.71-.05,2.61.27,5.05-1.22,7.37-2.69,4.19-7.51,3.25-11.82,3.29,1.57-.51,3.51-1.43,4.54-2.76l.53-.36c2.15.11,4.24-1.02,4.56-3.29l.43-.31c.08-4.66.14-9.4.2-14.22-.21-.48-.11-1.13.2-1.58.23-.26.13-.32.59-.39Z"/>
  <path class="cls-13" d="M45.17,44.09c-.01,4.34.38,9.61,0,13.82.91.98-1.16,3.85-2.37,3.36.22-.33.19-.7.21-1.08.14-4.81.4-11.42,0-16.1h2.17Z"/>
  <path class="cls-3" d="M75.97,57.32c-.04,2.84.63,5.8-2.36,7.41-.91.49-1.41.43-2.38.48.25-1.41-.42-6.47.21-7.39.61-.89,3.51-.37,4.53-.51Z"/>
  <path class="cls-11" d="M72.09,92.93c2.72-2.73,7.07,1.26,4.48,4.18s-7.38-1.27-4.48-4.18Z"/>
  <path class="cls-11" d="M93.69,92.12c5.31-1.1,4.73,7.67-.48,5.72-2.55-.95-2.21-5.16.48-5.72Z"/>
  <path class="cls-6" d="M71.43,22.97v19.15s26.06,0,26.06,0c0,.07,0,.13,0,.2h-26.07c-.01,2.28.01,4.56.01,6.84,0,.36-.21.63-.21.67v-26.19c-.1-.31.12-.48.2-.67Z"/>
  <path class="cls-2" d="M96.7,50.61h-10.86c0-.07,0-.13,0-.2l10.86.2Z"/>
  <path class="cls-2" d="M75.97,50.41c0,.07,0,.13,0,.2-1.21-.14-2.79.19-3.95,0,1.2-.45,2.68-.08,3.95-.2Z"/>
  <path class="cls-8" d="M87.37,26.58c.6.49,1.78,3.81,2.33,4.09.73-2.18,5.41-1.73,4.34.79-.39.91-1.44.39-2.07.69s-1.33,2.47-2.46,2.49c-1.66.02-1.92-2.84-3.06-3.57-.14,1.41-1.72.76-2.14,1.02-.23.14-1.66,4.3-2.03,4.98-.49.91-1.14,1.58-2.23.89-.72-.46-2-4.73-2.58-5.71-.48-.59-2.79.53-2.85-1.5-.06-1.77,3.57-1.78,4.59-1.07.63.44,1.05,2.68,1.62,3.36.39-.19,1.05-2.84,1.53-3.31.44-.42,1.63-.32,1.89-.48s.66-2.19,1.2-2.65c.48-.4,1.46-.42,1.94-.02Z"/>
  <path class="cls-16" d="M45.17,57.91l.2-37.71c.91.13,1.66.13,2.57,0v37.91c.78.68-.55,3.53-1.23,3.97l-.54-.02c-1.4-.46-3.16.1-4.54-.39.59-.11.65-.13,1.18-.39,1.32-.66,2.23-1.85,2.37-3.36Z"/>
  <path class="cls-17" d="M25.03,54.76l.39.68c-.08,1.91-.04,3.82.11,5.73l-.3.7c-3.42.01-6.85-.03-10.27,0-.02-2.37-.41-5.22,1.99-6.6,1.96-1.12,5.8-.21,8.08-.51Z"/>
  <path class="cls-17" d="M27.79,54.76c2.6.34,6.96-.91,8.89,1.14,1.62,1.73,1.13,3.82,1.18,5.97-3.28.07-6.59-.01-9.87,0-.11-.09-.22-.18-.31-.29-.45-.57-.39-5.09-.29-6.15l.4-.67Z"/>
  <path class="cls-16" d="M27.79,50.21c.02,1.51,0,3.03,0,4.54,0,2.34-.16,4.83.2,7.11-.92,0-1.85,0-2.76,0-.36-2.28-.19-4.77-.2-7.11,0-1.51-.02-3.03,0-4.54-.58-.28-.52-1.88-.45-2.58.02-3.53,3.23-4.23,3.67-.03.07.69.13,2.34-.45,2.61Z"/>
  <path class="cls-3" d="M50.1,65.22h-.59c-.54-1.19-2.13-2.76-3.36-3.16,1.18-1.07,1.54-2.44,1.78-3.95.57-3.67.18-8.58.2-12.44,1.5-.03,2.14,2.51,2.37,3.82v15.49s-.39.24-.39.24Z"/>
  <path class="cls-17" d="M32.53,47.45c-1.34,1.58-2.67,2.36-4.74,2.76-.02-1.52.68-6.09-2.13-4.79-1.01.47-.62,3.7-.64,4.79-2.08-.4-3.39-1.19-4.74-2.76,2.03-6.05,10.22-6.04,12.24,0Z"/>
  <path class="cls-11" d="M90.72,44.92c2.28-.68,3.04,2.27,1.15,2.94s-2.84-2.43-1.15-2.94Z"/>
  <path class="cls-2" d="M82.88,61.27c-.54-.95-.63-3.04,0-3.95-.58-2.15-.62-4.57,0-6.71-.04.15-.11.38-.23.39-.76.08-2.68.08-3.44,0l-.28-.39c.59,2.11.64,4.61,0,6.71.63.98.64,3.5-.2,4.34l.2-14.41c.05,1.05-.03,2.11,0,3.16h3.95c.03-1.11-.05-2.24,0-3.36.06-.17.12-.17.2,0-.12,4.37.06,8.76,0,13.13,0,.33.13.88-.2,1.08Z"/>
  <path class="cls-20" d="M75.97,47.05c-.32-.82-.14-1.5.59-1.97-.12.07-.57,1.73-.59,1.97Z"/>
  <path class="cls-7" d="M83.08,47.05h-.2c.03-.84-.21-.93.39-1.58-.21.52-.18,1.04-.2,1.58Z"/>
  <path class="cls-14" d="M85.84,45.67s-.31-.05-.5-.19c-.15-.1-.26-.4-.29-.41-.17-.06-.17-.12,0-.2.29.07.64.53.79.79Z"/>
  <path class="cls-5" d="M77.55,45.08c-.19-.01-.93-.03-.99,0,.39-.26,1.2-.64.99,0Z"/>
  <path class="cls-12" d="M78.93,47.05c-.35-.22-.17-.81-.2-1.18.22.56.16.61.2,1.18Z"/>
  <path class="cls-19" d="M85.05,44.88v.2c-.1-.04-1.01-.03-1.18,0,.15-.28.91-.26,1.18-.2Z"/>
  <path class="cls-3" d="M82.88,57.32c-.02,1.28.1,2.7,0,3.95-.24,2.94-2.8,4.25-5.53,3.95.7-.9,1.18-2.43,1.38-3.55.27-1.51.17-2.79.2-4.34l.23-.39h3.44l.28.39Z"/>
  <path class="cls-18" d="M78.93,57.32c.04-2.23-.03-4.48,0-6.71h3.95c-.02,2.23.03,4.48,0,6.71h-3.95Z"/>
</svg>