<?xml version="1.0" encoding="UTF-8"?>
<svg id="Layer_6" data-name="Layer 6" xmlns="http://www.w3.org/2000/svg" viewBox="0 0 96.69 96.71">
  <defs>
    <style>
      .cls-1 {
        fill: #ecf5fe;
      }

      .cls-2 {
        fill: #4f6d8f;
      }

      .cls-3 {
        fill: #a2d7a3;
      }

      .cls-4 {
        fill: #eecf6f;
      }

      .cls-5 {
        fill: #db8894;
      }

      .cls-6 {
        fill: #4f6d8e;
      }

      .cls-7 {
        fill: #feddce;
      }

      .cls-8 {
        fill: #3c546d;
      }

      .cls-9 {
        fill: #feccbd;
      }

      .cls-10 {
        fill: #f5de7f;
      }

      .cls-11 {
        fill: #bde39c;
      }

      .cls-12 {
        fill: #d69a8b;
      }

      .cls-13 {
        fill: #dceafc;
      }

      .cls-14 {
        fill: #455e7e;
      }

      .cls-15 {
        fill: #dfada1;
      }

      .cls-16 {
        fill: #fefefe;
      }

      .cls-17 {
        fill: #cce1fe;
      }

      .cls-18 {
        fill: #d4717f;
      }
    </style>
  </defs>
  <path class="cls-18" d="M50.36,1.46c11.72,1.19,18.42,15.44,11.8,25.25l-3.01,3.68c-.37.14-.81.03-1.33-.33-.63-.05-1.04-.24-1.24-.59-.68-.09-1.35-.15-2.01-.18l.16-.74c8.01-9.23,3.48-23.47-8.41-26.38l-.55-.52c.19-.04.44.07.55-.18,1.3.09,2.76-.13,4.03,0Z"/>
  <path class="cls-1" d="M52.37,69.19c.08-.54.39-.52.55,0,1.27-.14,3.27.45,4.59.9.74.1,1.28.41,1.64.93.38.34.45.9.19,1.68-.13.89-.63,3.04-1.65,2.9.08.13.15.33.06.41-1.6,1.42-1.82,2.94-.09,4.45l.03.45.38-.2c2.91,1.17,5-2.57,2.69-4.61-.27-.61.43-2.57.73-3.27l.41-.16c1.43.21,2.42,2.42,2.9,3.75.25.69.4,1.4.52,2.12l.06,16.42-.37.22c-.79,0-1.59,0-2.38,0-.06-.33.08-.63.43-.91.34-.72.36-6.64-.04-7.19-.51-.69-1.18-.69-1.69,0-.42.56-.37,6.41-.04,7.19.35.28.49.59.43.91-8.91,0-17.83,0-26.74,0-.06-.33.08-.63.43-.91.34-.72.36-6.64-.04-7.19-.51-.69-1.18-.69-1.69,0-.42.56-.37,6.41-.04,7.19.35.28.49.59.43.91-2.26,0-4.52,0-6.78,0-.84-.17-1.39-.64-1.47-1.53.02-5.42-.01-10.85-.09-16.28,0-1.17.05-3.46,1.01-4.16-.14-.08-.3-.25-.24-.37.75-1.28,1.63-2.49,2.68-3.54l.48.06c.16-.66.74-1.11,1.73-1.35.83-.34,2.5-.88,3.22-.48l.29.46c-.24,1.58-.09,3.23.59,4.7l-.14.52.03.43c-2.71,2.1-1.78,5.94-.94,8.76.38,1.29.64,1.56,2.21,1.15,2.2-.58,1.98-2.4-.11-2.17-.45-.22-.96-3.46-.93-4.07.1-2.37,3.2-3.34,4.49-1.48.52.75,1.33,3.99.82,4.68-3.44,2.01,2.45,3.26,2.48.68.03-3.07-1.29-8.48-5.14-8.52l-.34-.37c-.89-.28-1.02-1.83-1.05-2.71-.03-.94.03-2.47.86-2.97.53-.72,1.91-1.04,2.75-.73l.59.2c2.72,3.82,7.09,4.39,11.31,3.09Z"/>
  <path class="cls-5" d="M45.78,1.65c4.53,1.09,8.42,3.52,10.88,7.52,4.03,6.55,3.03,14.52-2.09,20.12-1,0-1.94.1-2.81.33-3.34-.14-6.67-.09-10.01,0-1.24.03-2.53.3-3.65.79l-.38-.21c-10.6-9.46-5.87-25.79,8.06-28.56Z"/>
  <path class="cls-11" d="M15.93,69.92l.5.08c1.1,1.45,2.62,2.61,4.37,3.14l.25.44.21.59-.43,2.38c-.09,4.91-.03,9.82.16,14.74-.39,1.47-.13,2.62.8,3.45v.45c-3.54,0-7.09.02-10.63,0-.15-.28-.04-.54.33-.76.34-.68.42-5.43.12-6.15-.32-.78-1.3-1.08-1.79-.34-.34.52-.34,5.77-.04,6.38.44.26.59.55.46.87-1.88-.01-4.75.25-6.49-.01-.98-.15-1.57-.93-1.58-1.9.65-5.09-1.41-13.51,1.4-17.84s7.9-4.05,12.35-5.51Z"/>
  <path class="cls-7" d="M30.4,46.49c.53.39.52,3.14.25,3.66l-.44.18c-.16.01-.32,0-.46-.05-1.85-.68-1.89.16-1.78,1.95.12,1.92.37,2.15,2.24,1.4.89.44.47,2.29.26,3.18-.81,3.48-3.15,6.12-6.3,7.74-.85.44-2.72,1.37-3.39.61-.07.35-.36.47-.87.37l-1.79-.37c3.33.84,6.65,1.41,9.97-.11l.65.11c.59.39.51,1.93,0,2.38l-.32.42c-2.98.58-5.72,2.55-6.9,5.39l-.47.24c-2-.45-4-1.98-5.13-3.66,1.26-.41,1.86-.89,2.01-2.29.05-.41.08-2.04-.03-2.35-.07-.2-2.02-1.25-2.44-1.59-5.54-4.46-4.97-10.36-4.86-16.84l.39-.28c3.6.09,6.46-2.13,8.86-4.57l.38-.07c3.11,1.83,6.39,3.2,9.84,4.12l.31.43Z"/>
  <path class="cls-11" d="M89,95.18c-.85,0-1.71,0-2.56,0-.13-.32.02-.61.46-.87.31-.56.28-5.85-.04-6.38-.49-.79-1.5-.4-1.81.42-.29.75-.16,5.28.14,6.04.37.25.48.52.34.79-5.37.03-10.75,0-16.12,0l.03-.5c.35-.28.7-.6.71-1.07.05-6.02.04-12.04-.02-18.06l-.43-1.97.26-.36.54-.19c2.09.49,4.22.5,6.41.01.04-.17.1-.16.18,0,.6-.17.96-.15,1.55-.04,5.65,1.01,10.75,3.97,10.77,10.48,0,3.62-.03,7.24-.09,10.86l-.33.86Z"/>
  <path class="cls-6" d="M54.57,29.29c.63,0,1.53-.15,2.01.18-.94.36-1.99.49-3.17.39,3.72,2.1,3.29,7.82,2.97,11.53l-.35.35-.58.1c-1.43-.91-2.72-1.97-3.84-3.18-2.67,1.52-5.11,2.9-8.24,3.78-1.58.44-6.48,1.53-7.77,1.01-.15-.06-.29-.15-.43-.24-.05.16-.11.16-.18,0-.49-1.34-.44-3-.31-4.45.02-.22.17-.43.35-.63-.04-1.06,0-2.11.15-3.16.1-1.88.88-3.73,2.56-4.76.88-.54,2.53-.85,3.56-.92,4.16-.29,9.05-.01,13.28,0Z"/>
  <path class="cls-10" d="M30.58,46.49c-.06.16-.12.16-.18,0-1.54-.29-3.66-.96-5.12-1.56-.84-.35-4.75-2.64-5.04-2.64-.6,0-1.31,1.19-1.83,1.64-1.64,1.43-3.56,2.46-5.73,2.88-.55.11-1.52.25-2.06.05.06-3.3-.04-6.72,1.65-9.7-.2-.22-.16-.35-.08-.57.73-1.87,6.24-5.68,8.41-5.55.07,0,1.23.26,1.38.31,6.4,2.22,9.22,8.14,8.88,14.62l-.28.52Z"/>
  <path class="cls-6" d="M70.87,31.3c1.51-.08,2.87.71,4.1,1.52,4.22,2.8,6.1,7.24,5.79,12.15l-.36.42-.47.15c-1.28-.81-2.42-1.78-3.45-2.9-2.4,1.43-4.76,2.69-7.57,3.52-1.35.4-5.68,1.46-6.76,1.08-.15-.05-.29-.13-.43-.21-.51-1.23-.51-2.61,0-3.84-.54-2.29-.68-5.14-.55-7.53.02-.44.19-.86.37-1.26.19,1.3.12,2.27.18,3.57.01.21-.12.5.18.45,1.6-3.8,4.99-6.31,8.98-7.14Z"/>
  <path class="cls-4" d="M12.27,37.16c-4.55-1.94-4.65-8.55-.35-10.87,3.93-2.12,8.63.45,9.15,4.81,5.6-.87,11.56,2.03,13.72,7.34.3.05.17-.25.18-.45.05-.97-.19-2.13.18-3.02-.14,2.69-.17,5.54-.18,8.24.19,1.28.13,2.59.06,3.88-.07.4-3.75-.05-4.27-.18l-.18-.4c-.35-1.78-.07-3.53-.42-5.35-.77-4.05-3.94-7.8-7.78-9.25-1.72-.65-2.05-.65-3.76,0-2.07.79-5.27,3.34-6.36,5.27Z"/>
  <path class="cls-3" d="M89,95.18c-.24-4.07.33-8.51,0-12.54-.25-3.07-1.86-5.84-4.57-7.33-1.25-.68-5.92-2.1-7.33-2.29.43-.59,1.04-1.11,1.83-1.56.56-.71,1.18-1.23,1.83-1.56,5.36,1.75,13.07,1.53,13.74,9.24.41,4.7-.29,10.03-.05,14.79-.4,1.8-3.97,1.21-5.46,1.23Z"/>
  <path class="cls-12" d="M86.07,46.86c.11,7.17.77,12.9-5.69,17.46-.25.18-1.62.87-1.64.96,0,2.13-.37,3.86,2.02,4.64-.9,1.39-2.13,2.47-3.66,3.11-.05,0-.13,0-.18,0-2.03.64-3.94-.66-4.05-2.75v-3.39c-.68-.21-1.41-.35-2.18-.44-.56.1-3.69-1.07-2.34-1.64,6.24.39,11.92-4.11,11.6-10.52l.25-.48-.26-.3c.19-1.01.15-2.04-.02-3.05l.28-.31c-.45-1.38-.21-3.27.18-4.76l.56-.11c1.44.76,3.02,1.27,4.66,1.24l.46.34Z"/>
  <path class="cls-13" d="M67.02,69.37l.38-.16c1.1,1.04,2.05,2.26,2.77,3.59l-.22.41c.23.58.5,1.83.56,2.46.49,5.68-.38,12.02,0,17.77.06.85-.53,1.26-1.11,1.73-1.46,0-2.93,0-4.4,0l-.02-16.36c-.3-2.33-1.29-4.61-3.09-6.16-.34-.11-.34-.25,0-.37l-.3-.48c.17-1.32.24-2.65.03-3.97l.28-.49c.82-.39,2.47.24,3.36.62,1,.26,1.59.72,1.76,1.39Z"/>
  <path class="cls-14" d="M79.11,26.17c7.5-3.58,12.61,7.55,5.31,10.99,1.76,3.21,1.59,6.19,1.65,9.7-2.04.17-3.92-.49-5.68-1.46-.04-2.58.09-4.2-.94-6.66-1.58-3.77-4.75-6.24-8.58-7.44,1.7-.35,2.65-.47,4.4-.18.26.08.46-.02.62-.26,2.11.44,4.08,1.4,5.78,2.74.98-2.54-.2-5.41-2.43-6.91l-.12-.51Z"/>
  <path class="cls-3" d="M26.73,73.22c-.23.58-.5,2-.56,2.65-.46,5.71.36,12,0,17.77.03.74.69,1.06,1.11,1.55-1.83,0-3.67,0-5.49,0-.81-.55-1.26-1.27-1.29-2.28.69-5.55-1.12-14.18.56-19.32l.54-.27c1.52.25,3.09.14,4.56-.3l.57.2Z"/>
  <path class="cls-14" d="M56.58,29.47c1.13.08,1.64.26,2.56.92,1.56,1.11,2.11,2.2,2.38,4.03-.04,2.93.15,5.85.18,8.79-.88.76-5.05-.39-5.51-1.11-.07-.11-.12-.23-.16-.36-.21-3.93,1.22-9.08-2.69-11.5l-1.52-.76c1.56.08,3.21-.11,4.76,0Z"/>
  <path class="cls-6" d="M79.11,26.17c2.79,1.72,4.05,4.95,2.74,8.05-1.87-1.59-4.15-2.71-6.59-3.11.49.1.36-.24.45-.55.62-2.06,1.37-3.43,3.39-4.4Z"/>
  <path class="cls-17" d="M34.97,95.18c-.31,0-.61,0-.92,0-.44-.37-.81-.58-.9-1.2-.19-1.18-.16-5.17-.02-6.4.21-1.84,2.54-1.84,2.75,0,.14,1.23.17,5.22-.02,6.4-.1.62-.46.84-.9,1.2Z"/>
  <path class="cls-17" d="M62.63,95.18c-.31,0-.61,0-.92,0-.44-.37-.81-.58-.9-1.2-.19-1.18-.16-5.17-.02-6.4.21-1.84,2.54-1.84,2.75,0,.14,1.23.17,5.22-.02,6.4-.1.62-.46.84-.9,1.2Z"/>
  <path class="cls-3" d="M86.43,95.18c-.31,0-.61,0-.92,0-.18-.21-.48-.32-.63-.56-.4-.65-.4-4.98-.29-5.94.22-2,2.56-1.94,2.76-.37.12.91.14,5.04-.01,5.86-.1.52-.58.66-.91,1.01Z"/>
  <path class="cls-3" d="M10.25,95.18c-.33-.35-.81-.49-.91-1.01-.16-.83-.13-4.95-.01-5.86.2-1.57,2.54-1.63,2.76.37.11.97.11,5.29-.29,5.94-.15.24-.45.35-.63.56-.31,0-.61,0-.92,0Z"/>
  <path class="cls-7" d="M56.03,41.73l.4.43c.74,3.42,1.35,6.38.48,9.91-1.45,5.83-6.39,9.79-12.3,10.43-.43.12,3.5.88,3.92.81l.14.6c-.35,2.68.46,4.59,3.37,4.86l.32.42c-.2.06-.66.46-1.14.6-4.27,1.21-8.32-.23-10.76-3.89-.02-.17,0-.36.14-.43,1.53-.71,1.81-1.01,1.72-2.85-2.73-1.82-5.97-4.21-6.44-7.7-.11-.05-.22-.1-.32-.17-.94-.71-.86-6.42-.78-7.81,0-.09.13-.18.28-.26-.02-1.17,0-2.33.09-3.47,4.14,0,8.39-.88,12.15-2.59.77-.35,3.91-2.28,4.27-2.31.7-.06,1.23,1.09,1.7,1.52.87.79,1.71,1.38,2.75,1.92Z"/>
  <path class="cls-9" d="M61.71,43.2c.01,1.28.02,2.57,0,3.84l.36.52c.14,2.45-.11,4.84-.75,7.15l-.52.38c-.44,3.25-3.59,6.01-6.44,7.39-.07,1.25.14,2.75,1.63,2.95l.23.45c.13.57-.14,1.11-.82,1.64-.58.63-1.67,1.75-2.48,1.66-.1-.02-.47-.03-.55,0-3.77-.52-4.32-2.05-4.03-5.68-1.68.09-3.44-.35-4.99-.96-.19-.08-.55-.05-.5-.32,8.61-.08,14.82-6.59,14.1-15.28-.15-1.77-.81-3.33-.91-5.22,1.79.92,3.65,1.41,5.68,1.46Z"/>
  <path class="cls-16" d="M40.47,65.9c-.9.3-1.83.48-2.75.73-.8.79-2.02,1.16-3.11.92-1.75.5-3.38.61-4.94,1.83-.74.6-1.72-1.52-.92-1.83-.07-.76.05-1.6,0-2.38l.27-.54c3.5-1.85,5.92-5.35,6.45-9.27l.42-.44c.72,1.94,2.52,4.36,4.13,5.67.43.35,2.56,1.6,2.62,1.77.22.67.02,1.9-.37,2.5-.53.83-1.01.78-1.8,1.04Z"/>
  <path class="cls-6" d="M37.9,72.3c2.62-.06,4.41,1.86,5.04,4.21.26.99,1.07,4.73.73,5.49-.49,1.09-4.91,1.84-4.03-.92.24-.75,1.1-.71,1.18-1.01.06-.21-.68-3.5-.89-3.83-1.18-1.84-3.94-.95-3.97,1.06,0,.34.53,3.66.67,3.79.06.05.78-.44,1.47.27,1.93,1.97-2.65,3.49-3.68,2.21-.34-.43-1.3-5.65-1.28-6.4.04-1.38,1.05-3.19,2.2-3.95-.12-.69,2.14-1.53,2.56-.92Z"/>
  <path class="cls-9" d="M28.75,67.54c.06.74.21,1.43.92,1.83-.77.6-2.57,2.94-2.93,3.84-1.76.63-3.85.77-5.68.37,1.03-3.16,4.44-5.62,7.69-6.04Z"/>
  <path class="cls-14" d="M61.89,72.3c-.02.12.02.25,0,.37-.12.67-.93,2.6-.91,3.03.02.37.9.97,1.05,1.68.55,2.66-1.92,4.85-4.35,3.53v-.49c1.36-1.26,1.47-3.08.02-4.33l-.02-.49c1.07-1.03,1.39-3.1,1.47-4.58-.58-.28-.54-1.07.18-.92.24.1.4.36.49.78.81.36,1.51.83,2.08,1.41Z"/>
  <path class="cls-13" d="M58.96,66.63c.74.65.84,2.64.37,3.48-.3.16-.17.62-.18.92-1.82-.69-3.78-1.11-5.69-1.55-.24-.05-.46-.27-.53-.28,1.19-.99,2.5-1.93,3.3-3.29.76-.34,2.29.03,2.75.73Z"/>
  <path class="cls-14" d="M37.72,66.63c-.66,1.96-.74,3.77.18,5.67-.55.01-2.06.59-2.56.92-.93-1.66-1.12-3.83-.73-5.67,1.04-.3,2.07-.63,3.11-.92Z"/>
  <path class="cls-2" d="M57.68,80.91c-1.8-.98-2.09-3.42-.67-4.88.18-.18.5-.26.67-.43,1.98,1.58,1.85,3.7,0,5.31Z"/>
  <path class="cls-16" d="M49.81,16.47h5.04c.43,0,1.02.89,1.02,1.37s-.59,1.37-1.02,1.37h-5.04v4.85c0,1.51-2.93,1.64-2.93,0v-4.85h-5.04c-.43,0-1.02-.89-1.02-1.37s.59-1.37,1.02-1.37h5.04v-4.85c0-1.6,2.93-1.6,2.93,0v4.85Z"/>
  <path class="cls-9" d="M35.89,54.91c-.37,4.32-3.2,8.41-7.14,10.25-2.68,1.25-5.75,1.6-8.61.83l-2.01-.83h2.66c2.78,0,6.63-2.84,8-5.19,1.01-1.73,1.96-4.36,1.43-6.35-.22-.44-.27-.99-.14-1.65-.13-.66-.08-1.21.14-1.65.42-1.17.07-2.61.18-3.84.06.01.12-.01.18,0,.59.1,4.21.55,4.4.37,0-1.22,0-2.44,0-3.66h.18c.24,3.82-.61,8.08.73,11.72Z"/>
  <path class="cls-9" d="M21.56,58.42c.56-.05,1.14.53,1.79.52.75,0,2.2-1.23,2.88.22,1.4,2.96-6.3,3.55-5.9.43.08-.62.61-1.12,1.23-1.17Z"/>
  <path class="cls-2" d="M30.21,50.34c.3.65.3,2.64,0,3.29-.53,1.15-2.35,1-2.55-.29-.09-.6-.1-2.8.19-3.26.5-.79,1.94-.66,2.36.26Z"/>
  <path class="cls-2" d="M17.16,49.64c.74-.17,1.72.11,1.88.97.09.45.07,2.25-.03,2.7-.34,1.5-2.46,1.33-2.7.03-.18-.92-.27-3.45.86-3.71Z"/>
  <path class="cls-15" d="M80.39,45.39c.02,1.25.02,2.51,0,3.76,0,.31.12.81-.19,1-1.96-.49-2.32-.05-2.24,1.86.07,1.84.25,2.3,2.24,1.8.47,1.41-.12,3.4-.64,4.76-1.85,4.72-6.57,6.81-11.44,6.59l1.18.55c1.28.43,2.61.57,3.93.73.08,3.54-.97,6.31,3.67,6.58-.13.02-.62.34-.96.41-2.07.44-3.98.55-6-.23-.41-1.04-2.05-3.15-2.93-3.84.28-.83,1.01-3.03.56-3.88-2.6-1.69-4.56-3.27-5.96-6.27-.6-1.28-1.21-2.72-.83-4.13,1.05-2.75.87-5.19.92-8.05,3.95-.29,7.64-1.08,11.21-2.8.59-.28,3.3-1.94,3.54-1.94.59,0,1.32,1.19,1.83,1.64.69.62,1.31,1.02,2.11,1.46Z"/>
  <path class="cls-14" d="M80.21,53.81c-.67,1.01-2.34.68-2.55-.65-.08-.5-.09-2.41.09-2.82.37-.88,2.06-1.07,2.47-.19.27.57.33,3.16,0,3.66Z"/>
  <path class="cls-16" d="M67.02,69.37c-1.46-1.16-3.39-1.52-5.13-2.01-.93.32-2.3.01-2.93-.73-.89-.24-1.89-.44-2.75-.73-.75-.25-1.34-.27-1.8-1.03-.3-.49-.62-2.18-.36-2.6.06-.1,1.68-.89,2.05-1.16,1.96-1.44,3.83-3.72,4.7-6.01.38,2.94,1.85,5.94,4.03,7.96.49.45,3.02,2.04,3.09,2.22.27.8.18,3.66-.89,4.09Z"/>
  <path class="cls-8" d="M61.89,67.36c.36,1.56.23,3.37,0,4.94-.35.31-.42-.04-.64-.17-.33-.2-1.61-.87-1.74-1.01-.31-.34-.13-.66-.18-1.01-.15-1.15-.13-2.34-.37-3.48.97.26,1.96.46,2.93.73Z"/>
  <path class="cls-9" d="M46.09,55.13c.87-.26,1.37.32,2.16.35,1.02.03,2.45-1.13,3.07.4,1.28,3.15-7.23,3.15-5.95,0,.09-.23.48-.67.72-.74Z"/>
  <path class="cls-2" d="M53.78,45.8c.74-.17,1.71.11,1.88.97.26,1.36.02,5.25-2.19,3.65-.88-.63-.95-4.33.31-4.62Z"/>
  <path class="cls-2" d="M41.88,45.8c.52-.16,1.38-.05,1.68.44s.29,2.83.16,3.42c-.32,1.42-2.45,1.4-2.7-.15-.15-.95-.26-3.37.85-3.7Z"/>
  <path class="cls-12" d="M70.74,58.81c.9-.72,1.9.13,2.6.14.81,0,2.48-1.14,2.94.35.82,2.62-3.92,2.89-5.48,1.63-.63-.51-.68-1.62-.06-2.12Z"/>
  <path class="cls-14" d="M67.15,49.64c.72-.21,1.66.02,1.85.83.21.93.33,3.59-.82,3.86-2.71.62-2.23-4.32-1.02-4.68Z"/>
</svg>