<?xml version="1.0" encoding="UTF-8"?>
<svg id="Layer_6" data-name="Layer 6" xmlns="http://www.w3.org/2000/svg" viewBox="0 0 100.28 100.28">
  <defs>
    <style>
      .cls-1 {
        fill: #f5f4f5;
      }

      .cls-2 {
        fill: #dad7da;
      }

      .cls-3 {
        fill: #7ad6ed;
      }

      .cls-4 {
        fill: #53c1e9;
      }

      .cls-5 {
        fill: #ebe9eb;
      }

      .cls-6 {
        fill: #fabc7f;
      }

      .cls-7 {
        fill: #736572;
      }

      .cls-8 {
        fill: #615260;
      }

      .cls-9 {
        fill: #4bc2ee;
      }

      .cls-10 {
        fill: #e1996c;
      }

      .cls-11 {
        fill: #f3a973;
      }

      .cls-12 {
        fill: #b2e0f7;
      }

      .cls-13 {
        fill: #c8c4c8;
      }

      .cls-14 {
        fill: #b1dff5;
      }

      .cls-15 {
        fill: #fed08c;
      }

      .cls-16 {
        fill: #fe8a57;
      }

      .cls-17 {
        fill: #fea95a;
      }

      .cls-18 {
        fill: #fabc80;
      }

      .cls-19 {
        fill: #fe744d;
      }

      .cls-20 {
        fill: #7a4746;
      }

      .cls-21 {
        fill: #d38b64;
      }
    </style>
  </defs>
  <path class="cls-17" d="M51.89,2.86c6.3,1.11,10.85,6.44,10.51,12.91l-.85-.12c-6.86-4.36-15.78-4.33-22.65,0l-.85.12c-.37-6.44,4.15-11.64,10.33-12.91h3.5Z"/>
  <path class="cls-12" d="M97.45,74.42v10.14c-1.4,2.74-4.22,2-6.82,2.03l.12-.43c1.93-.78,2.4-3.63.65-4.85l-.03-.44-.37-.28v-9.46l.37-.22c.94.59,3.29.86,4.49,1.51.92.5,1.14,1.11,1.6,2Z"/>
  <path class="cls-16" d="M62.4,15.77c1.71,1.18,3.34,2.78,4.61,4.43.2.33.22.58.06.75-2.83,2.39-5.96,5-9.47,6.26.02.14.05.33-.04.39-6.15,3.54-13.64,5.37-20.64,6.01l.04,1.24c0,.47-.05.85-.57.67-.52-.36-.6-1.93,0-2.21,0,.14-.03.35-.12.37-1.04.17-4.52.11-5.65,0l-.22-.37c-.21.51-1.14.2-1.38-.18-.16-.33-.15-.76,0-1.11.28-6.41,3.74-12.61,9.04-16.23,7.29-4.98,17.06-5.02,24.34,0Z"/>
  <path class="cls-3" d="M62.4,74.05c.09.3.17.6.23.9s.11.6.11.9c.06,3.89.11,7.81-.09,11.69l-.26.9-.19.46c-3.64,1.54-3,6.71.54,7.94l.21.45c-6.45.02-12.91.01-19.37,0,.94-.76,1.83-1.58,2.69-2.46.77-1.25.77-7.32.07-8.64-1.23-2.3-3.42-2.34-5.7-2.13-1.17,0-2.22-.17-2.81-1.33-.45-.88-.27-5.86-.15-7.11l.37-.46c.14-.53.36-.79.92-.55.06-.16.12-.16.18,0h.67s9.04,6.1,9.04,6.1c.85.48,1.85.48,2.7,0l10.43-6.84.39.19Z"/>
  <path class="cls-3" d="M78.27,70.18l.35-.19c.15,0,2.36,1.61,2.04,2.04.16.05.16.11,0,.18.07.07.12.14.15.22.14.46-1.57,1.08-1.97,1.21-5.66,1.37-6.75,2.54-3.27,3.5,3.43,1.86,4.11,5.47,3.98,9.06l-.36.41c.04,2.26.28,5.89-.02,8.01-.21,1.5-1.35,2.52-2.84,2.69-3.33.38-8.03-.01-11.53,0l.23-.44c3.65-1.06,4.27-6.38.68-7.95l-.18-.46c-.1-.3-.19-.6-.26-.9s-.13-.6-.13-.91c-.04-4.23-.03-8.47,0-12.7,0-.42.09-.73.57-.61.78.05,3.65,1.75,4.14,1.65.23-.05.46-1.16.69-1.53,1.11-1.8,5.83-2.29,7.72-3.26Z"/>
  <path class="cls-6" d="M57.61,27.21c.81-.38,1.21-.35,2.03-.12.61.17,1.99.72,1.85,1.41-.13.18-.26.35-.41.51s-.29.3-.47.4c-5.27,2.89-11,5.19-16.8,6.31-2.79.84-3.72,1.72-3.96,4.72-.78,9.73,2.65,18.83,13.21,21.02l.49.44c-.08.11-.16.21-.26.3-1.19,1.03-9.53.07-10.44-1.23-.08-.11-.13-.23-.18-.36-.84-.41-2.58-1.67-3.32-2.3-3.68-3.13-5.89-7.98-5.9-12.82-2.75.45-6.23-.61-6.09-3.96.07-1.65,1.35-2.28,1.48-2.96.25-1.31-.01-4.03,0-5.53,0-.31-.12-.82.19-1.01-.02.37,0,.74,0,1.11.4,1.53.52,3.14.37,4.84,1.23-.46,2.56-.59,4-.39,1.15-.04,2.32-.77,2.61-1.92l.39-.14c.47-.4-.07-1.98.29-2.23.21-.15,4.16-.46,4.91-.59,3.87-.64,7.97-1.84,11.57-3.36.9-.38,3.83-2.04,4.43-2.11Z"/>
  <path class="cls-2" d="M37.88,71.84c.69.17.78,1.89.18,2.21.47.42.52.7,0,1.11.02,2.11-.24,4.92,0,6.92.28,2.34,3.6,1.38,5.26,1.56s3.45,1.75,3.74,3.46c.2,1.19.19,5.9-.08,7.02-.38,1.57-2,2.57-3.38,3.17-.18,0-.37,0-.55,0v-.4c.9-.49,1.05-1.89-.05-2.16l-.13-.39c.03-.37.28-.7.75-.99.33-.45.3-4.86.1-5.49-.23-.71-.63-.79-1.34-.91-2.89-.48-8.42-.35-11.39-.01-1.53.17-1.69.45-1.77,1.96-.13,1.28-.36,4.39.96,4.98l-.03.47-.1.39c-.91.26-.9,1.39-.32,1.99l-.13.38c-4.45.29-4.32-5.28-4.12-8.41.33-5.04,3.33-5.73,7.71-5.41,1.33-.25,1.39-.56,1.46-1.86l-.07-4.55.37-.42c-.47-.05-.63-2.73-.55-2.86l.37-.27c0-.25.65-1.56.97-1.71,1.05-.49,1.52.23,2.17.23Z"/>
  <path class="cls-12" d="M88.59,80.69l.11.22c-1.99,1.57-2.25,3.94.18,5.25l.07.44c-3.26.02-6.52-.02-9.77,0-.07-3.57.06-6.25-3.05-8.66-.96-.74-1.86-.88-2.81-1.43-.57-.33.14-1.29.55-1.57,1.28-.87,6.12-1.6,6.77-2.72l.42-.2c.9.83,1.85,1.39,2.85,1.69,1.43-.83,2.77-1.79,4.03-2.88l.44.1c.15.01.37.06.37.16.16,2.51.17,5.36.15,7.89.16.84.04,1.41-.34,1.72Z"/>
  <path class="cls-3" d="M42.86,94.34l-.23.36c-1.4.03-1.47,1.45-.47,2.17l-.04.42c-3.75,0-7.5.03-11.25,0v-.42c1.14-.69.94-2.22-.49-2.19l-.25-.35c-.25-.31-.65-.32-.9-.67-.56-.78-.58-5.52-.1-6.33.36-.6.99-.7,1.64-.76,2.86-.27,8.77-.27,11.63,0,.66.06,1.33.31,1.6.98.22.55.25,4.86.1,5.54s-.73.93-1.25,1.24Z"/>
  <path class="cls-11" d="M25.89,54.69c-.11,4.02-.83,7.3-4.61,9.41-.14.77-1.84,1.46-2.4.92-2.57-.04-4.97-2.42-6.09-4.63-1.31-2.59-1.09-6.3-.74-9.02-.25-.46-.09-.63.37-.37.07-1.16,1.75-1.01,2.5-.4,2.94,2.22,6.48,3.51,10.27,3.69l.7.4Z"/>
  <path class="cls-12" d="M30.68,74.98l-.23.5-3.19,1.31c-4.24,1.58-6.13,4.98-5.62,9.41l-.37.4h-5.53c-.32-.47.16-.71.55-.37,2.82-2.05,2.55-9.36-2.24-8.33l-.57-.18c-.19-1.81-.37-3.78.23-5.51l.36-.21c1.65,1.87,3.19,2.06,4.63.56l3.02-2.32.47-.05c1.86.95,6.47,1.45,7.64,3.15.4.58.33,1.25.84,1.65Z"/>
  <path class="cls-2" d="M25.89,54.69c-3.01-.09-5.97-.76-8.65-2.14-.85-.44-2.66-1.89-3.34-2.03-.63-.13-.99.17-1.48.48l-.43-.07c-.17-1.59-.2-3.19-.07-4.79-.29-.09-.49-.25-.6-.49.19-.31.7-.18,1.01-.19,2.79-.03,6.34-.24,9.05,0,5.15.45,4.62,5.35,4.51,9.23Z"/>
  <path class="cls-9" d="M34.74,73.32c-.01.83.19,2.1.18,3.14-.1.36-.3.64-.65.75l-5.61,2.27c-3.45,1.5-3.96,2.51-4.04,6.28.12,3.81.14,7.61.08,11.38l-.48.16c-1.44-.15-2.57-.92-2.87-2.39-.39-1.91-.12-6.17-.08-8.31.03-1.89-.17-3.47.52-5.29,1.44-3.81,5.47-4.86,8.89-6.33,1.34-.58,2.68-1.17,4.06-1.66Z"/>
  <path class="cls-5" d="M12.24,64.1l.41.46-.1,3.39c1.65.71,2,2.62,1.16,4.07.17.03.16.1,0,.18.04,1.78-.03,3.57,0,5.35,2.51-.26,4.3.34,4.59,3.07.19,1.75.28,5.27-2.01,5.6l-.13-.47c.34-.7.14-1.56-.68-1.73l-.12-.38c-.86-.16-.75-2.68-.18-3.14-.02.14-.06.35-.17.37-1,.18-4.54.1-5.65,0l-.27-.37c.57.46.68,2.96-.18,3.14-.17.3-.44.59-.8.89-.02.65-.12,1.21-.31,1.69-.32.37-.99-.09-1.26-.42-.83-1.01-.53-4.94-.4-6.22.09-2.15,2.23-2.56,4.02-2.43-.04-1.19.1-2.34.41-3.48l-.25-.36c-.08-1.13-.12-2.05-.12-2.78.57-.29.33-1,.73-1.57.29-.41,1.08-.61,1.12-.76.24-1.02-.2-2.98,0-4.12.05-.16.11-.16.18,0Z"/>
  <path class="cls-11" d="M53.55,61.88l.22-.42c1.22-.27,2.45-.59,3.6-1.08l.42.21c0,1.04,0,2.09,0,3.14l-.17.48c-3.07,1.42-6.62,1.76-9.9,1.32-.74-.02-1.47.21-1.65,1-.22,2.59-.68,4.68-2.83,6.4-.98.79-2.85,1.87-4.07,1.68-.05.02-.13-.02-.18,0-.6.29-.77.04-.92-.55-.02-.76.02-1.46-.18-2.21.4,0,2.36-.93,2.75-1.21,3.16-2.24,1.72-6.72,2.04-10.04,3.27,1.6,7.35,2.01,10.88,1.29Z"/>
  <path class="cls-3" d="M29.58,97.11c.12-.59.61-.37.37.18-1.79-.02-4,.18-5.72,0,.21-.31.18-.65.19-1.01.12-4.04-.45-9.05,0-12.92.17-1.51,1.17-2.74,2.46-3.44,2.42-1.34,5.59-2.1,8.06-3.47-.02,1.78.2,4.13,0,5.81-.25,2.12-3.7,1.2-5.26,1.38-1.71.19-3.47,1.95-3.74,3.64-.2,1.24-.19,5.65.13,6.79.45,1.63,1.86,2.84,3.51,3.03Z"/>
  <path class="cls-7" d="M65.54,88.44c4.33,1.47,3.72,7.91-.74,8.85-.61,0-1.23,0-1.84,0-4.31-1.18-4.95-7.4-.55-8.85.36-.9,2.78-.91,3.14,0Z"/>
  <path class="cls-10" d="M18.88,65.02c-.64.85-2.4.69-3.44.55s-2.77-.46-3.2-1.47c-.05-.03-.14.03-.18,0-3.44-2.09-4.32-5.89-4.43-9.59l.32-.62,3.4-2.46.71-.05c.31.19.18.7.19,1.01.03,2.43-.33,4.9.58,7.17,1.08,2.71,3.33,4.55,6.06,5.47Z"/>
  <path class="cls-3" d="M10.21,70.55c.56-.1.36.28.37.64.03.83,0,1.67,0,2.5l-.18.45c-1.36.27-2.61.73-3.76,1.39-.05.36-.21.55-.49.57-.22,2.71-.21,5.58-.04,8.34.37.9.33,1.62-.14,2.17-1.35-.12-2.65-.93-2.91-2.35-.24-1.31-.23-8.57.04-9.83.59-2.79,5.01-2.8,7.11-3.86Z"/>
  <path class="cls-21" d="M18.88,65.02c.93-.22,1.56-.46,2.4-.92.02,1.1-.03,2.22,0,3.32-.3.68-.97,1.03-2.02,1.05-2.36-.26-3.79.62-4.29,2.64-.35.85-.77,1.16-1.25.93-.02-.77.13-1.9-.08-2.59-.24-.78-1.36-1.07-1.4-1.22-.25-1.01.2-2.98,0-4.12,2.09,1.18,4.37,1.46,6.64.92Z"/>
  <path class="cls-10" d="M21.28,67.42c.03,1.08-.26,2.16.92,2.77-.13.27-.34.45-.57.63-.72.55-4,3.1-4.55,3.2-1.25.24-2.34-1.24-3.37-1.8,0-.06,0-.12,0-.18,1.53-.94.99-3.32,3.05-3.68,1.48-.26,3.1-.05,4.51-.93Z"/>
  <path class="cls-12" d="M8.92,83.65c.39-.96.1-2.11.18-3.14h6.09c.08,1.02-.2,2.18.18,3.14l-.2.37c-1.27.08-1.46,1.47-.5,2.17l-.04.41c-1.66,0-3.32.02-4.98,0l-.04-.41c.95-.68.79-2.13-.49-2.18l-.21-.36Z"/>
  <path class="cls-13" d="M11.32,45.65c.3-.02.62.01.92,0,.2.19-.29,4.69.18,5.35-.13.08-.24.28-.37.37-1.49,1.02-2.85,2.24-4.43,3.14-.09-3.06-.65-8.52,3.69-8.85Z"/>
  <path class="cls-7" d="M91.36,80.88c2.33,1.21,1.8,5-.74,5.72-.55,0-1.11,0-1.66,0-1.79-.72-2.82-2.7-1.82-4.49.14-.26,1.21-1.31,1.45-1.41.08-.89,2.69-.7,2.77.18Z"/>
  <path class="cls-8" d="M8.92,83.65c1.87-.15,2.25,2.08.74,2.95-.37,0-.74,0-1.11,0-.43-.05-.67-.17-.74-.37-.33-1.09-.28-2.47,1.11-2.58Z"/>
  <path class="cls-8" d="M30.13,94.34c2.12-.27,2.47,2.16.74,2.95-.31,0-.61,0-.92,0-.05-.18-.21-.17-.37-.18-1-.84-.86-2.59.55-2.77Z"/>
  <path class="cls-8" d="M15.37,83.65c1.32.07,1.7,1.63.92,2.58-.11.13-.42.21-.55.37h-1.11c-1.52-.87-1.13-3.06.74-2.95Z"/>
  <path class="cls-8" d="M42.86,94.34c1.7.13,1.64,2.4.18,2.95-.31,0-.61,0-.92,0-1.56-.91-1.32-3.11.74-2.95Z"/>
  <path class="cls-14" d="M6.15,79.59c0,1.35-.21,3.79.08,4.99.19.81.91,1.31,1.58,1.65.24.12.55.14.74.37-.84-.01-1.77.07-2.58,0,.22-3.19-.28-6.74-.01-9.89.03-.36.16-.46.2-.62.14.02.35.06.37.16.17,1.05-.05,2.35-.37,3.34Z"/>
  <path class="cls-15" d="M61.48,28.5c1.31-.05,2.35,1.87,2.54,3.11l.19,2.93c.03,1.78,1.01,2.85,2.77,2.92,1.37,0,2.71.17,4.01.53.1-1.76.14-3.53.11-5.31l.34-.86c.31.19.18.7.19,1.01.02,1.55-.26,4.37,0,5.72.14.73,1.41,1.37,1.48,2.96.13,3.37-3.32,4.43-6.09,3.96,0,4.84-2.22,9.69-5.9,12.82-.74.63-2.49,1.89-3.32,2.3-1.11.55-3,1.04-4.24,1.29-6.91-.76-12.67-6.83-13.78-13.61-.35-2.12-.51-7.02-.15-9.09.67-3.91,4.72-3.81,7.7-4.65,5.05-1.43,9.6-3.46,14.16-6.03Z"/>
  <path class="cls-18" d="M62.59,71.84c.41.45.36,1.88-.18,2.21l-10.64,6.98c-.98.55-2.09.55-3.07,0l-9.53-6.42c2.81-1.16,5.06-2.06,6.09-5.25.36-1.1.21-2.32.53-3.16.67-1.72,3.24-.79,4.53-.82,1.87-.04,4.36-.45,6.14-1.05.47-.16.9-.38,1.33-.61,0,2.7-.39,5.26,2.15,6.98.38.26,2.27,1.14,2.64,1.14Z"/>
  <path class="cls-11" d="M79,45.84c1.96-.57,7.26-.61,9.26-.13,5.2,1.25,4.92,6.96,4.58,11.29-.2,2.51-1.47,4.63-3.32,6.27-.24.21-1.04.63-1.07.68-.32.55.3,2.94-.22,3.47-.36-.73-.51-1.6-.47-2.62-.79.47-1.43.54-1.93.22-1.84.07-3.65-1.4-4.8-2.75-1.92-2.26-2.23-4.48-2.3-7.37s-.05-6.25.28-9.06Z"/>
  <path class="cls-17" d="M71.44,31.82c.11,2.26-.08,4.56,0,6.82-2.49-1.67-6.99.7-7.54-3.61-.39-2.99.45-4.35-2.41-6.53-1.05-.8-2.51-1.46-3.87-1.29,3.07-1.92,6.24-3.83,8.94-6.27.24-.22.46-.37.46-.74,2.6,3.37,4.22,7.32,4.43,11.62Z"/>
  <path class="cls-10" d="M79,45.84c.31.19.18.7.19,1.01.03,3.2-.25,6.85,0,9.97.31,3.96,2.95,6.98,6.65,8.2-.59.86-2.49.73-3.53.62s-2.78-.36-3.11-1.35c-2.5-1.43-4.39-4.61-4.62-7.46-.34-4.4-.59-9.53,4.43-10.98Z"/>
  <path class="cls-2" d="M65.72,73.32s-.21.28-.2.62c.12,4.83-.06,9.67.01,14.5-1.07-.36-2.07-.35-3.14,0,.08-4.79-.1-9.6,0-14.39.02-.76-.02-1.46.18-2.21.65,0,1.12-.72,2.17-.23.31.15.96,1.45.97,1.71Z"/>
  <path class="cls-21" d="M88.23,67.42l-.2.58c-1.36.43-2.77.67-4.24.71-.89.32-1.48,1.11-1.78,2.36-.38.9-.83,1.22-1.34.96l-2.4-1.84c1.66-.85.65-4.3.92-5.9,2,1.14,4.48,1.28,6.64.74.84-.21,1.67-.39,2.4-.92.04,1.1-.05,2.22,0,3.32Z"/>
  <path class="cls-10" d="M88.96,70c.36.36-.04,1.12-.55.92-.52.5-3.85,3.05-4.35,3.13-1.24.2-2.32-1.41-3.4-1.84v-.18c1.64-.86,1.02-3.33,3.05-3.68,1.06-.18,3.72-.14,4.51-.93.04.89-.1,2.01.74,2.58Z"/>
  <path class="cls-1" d="M91.36,70.92v9.96c-.7-.36-2.03-.49-2.77-.18l-.18-9.77c.15-.14.36-.79.55-.92,1.29-.84,1.81.56,2.4.92Z"/>
  <path class="cls-19" d="M29.02,33.11c.44-.19,1.13.18,1.38.18h5.99c-.05.72.07,1.51,0,2.21-.13,1.27-1.45,2.26-2.67,2.4-.99.11-2.13-.12-3.12.02-.6.08-1.02.45-1.58.54.03-1.78-.05-3.57,0-5.35Z"/>
  <path class="cls-4" d="M38.98,74.61c-.22.1-.58.5-.92.55,0-.37,0-.74,0-1.11l.92.55Z"/>
  <path class="cls-12" d="M10.58,73.69c0,1.29,0,2.59,0,3.87-1.99-.16-3.6,0-4.43,2.03v-3.5c.05-.22.01-.45.13-.69.4-.79,3.36-1.37,4.29-1.71Z"/>
  <path class="cls-11" d="M45.2,48.64c1.26-.29,1.61.59,2.64.97,1.51.56,3.13.57,4.65.05,1.06-.37,2.49-1.98,3.55-.5,1.54,2.15-2.88,3.71-4.42,3.87-1.98.2-5.77-.24-7.1-1.93-.67-.86-.42-2.2.69-2.45Z"/>
  <path class="cls-20" d="M43.73,43.57c-.23.23-.97.45-1.31.42-1.88-.18-2.02-4.53.19-4.6,1.82-.06,1.98,3.34,1.13,4.18Z"/>
  <path class="cls-20" d="M56.74,43.57c-.85-.85-.7-4.24,1.13-4.18,2.14.07,2.1,4.42.19,4.6-.35.03-1.08-.19-1.31-.42Z"/>
</svg>