<?xml version="1.0" encoding="UTF-8"?>
<svg id="Layer_6" data-name="Layer 6" xmlns="http://www.w3.org/2000/svg" viewBox="0 0 100.28 100.28">
  <defs>
    <style>
      .cls-1 {
        fill: #725984;
      }

      .cls-2 {
        fill: #fe6892;
      }

      .cls-3 {
        fill: #9d89ac;
      }

      .cls-4 {
        fill: #f7fefa;
      }

      .cls-5 {
        fill: #9978b2;
      }

      .cls-6 {
        fill: #9e89ad;
      }

      .cls-7 {
        fill: #fecfc7;
      }

      .cls-8 {
        fill: #baabc5;
      }

      .cls-9 {
        fill: #fea99b;
      }

      .cls-10 {
        fill: #b5a5c0;
      }
    </style>
  </defs>
  <path class="cls-7" d="M83.58,57.77c.43-3.79.64-8.35,1.3-12,1.05-5.75,8.28-5.13,8.71.39-.42,7.29.53,15.14,0,22.36-.69,9.3-10.01,12.33-15.01,18.61-.78.98-1.81,3.13-1.81,4.36v6.92h-21.49v-15.21c0-.72,1.05-3.34,1.45-4.08,2.17-3.96,6.05-5.16,9.93-6.88l13.01-11.67c.97-.54,2.68-.69,3.69-.25.45-.57.96.14,1.25.6,1.43,2.28-.07,4.4-1.85,5.89-3.23,2.95-6.37,5.97-9.41,9.08-1.4.87.13,2.34.94,1.57,2.95-2.81,5.91-5.73,8.78-8.62,3.38-3.41,5.87-6.34,1.68-10.14-.62-.19-1.01-.5-1.17-.93Z"/>
  <path class="cls-7" d="M16.76,57.77l-.21.49c-2.6.52-4.06,5.17-2.46,7.07.91,1.08,1.83,2.12,2.82,3.13,2.98,3.03,6.08,6.08,9.16,9.01.79.75,2.32-.7.93-1.58-3.05-3.11-6.18-6.13-9.41-9.08-1.79-1.49-3.29-3.6-1.86-5.88.29-.46.8-1.17,1.25-.6,1.05-.45,2.85-.29,3.82.33,4.14,3.21,7.79,7.47,11.83,10.73,3.05,2.46,6.88,2.58,9.67,5.86,1,1.17,2.77,4.46,2.77,5.95v15.21h-21.49v-6.92c0-5.78-12.7-12.14-15.47-17.94-3.19-6.68-.36-19.84-1.35-27.4.43-5.55,7.66-6.12,8.71-.39.67,3.65.87,8.21,1.3,12Z"/>
  <path class="cls-2" d="M49.96,5.85c.09.07.3,0,.43-.1.44-.34,1.16-1.48,1.81-2.02,4.94-4.1,11.29-.96,12.92,4.73,2.37,8.26-4.73,15.72-11.18,19.79-3.21,2.02-4.25,1.84-7.37-.17-4.82-3.1-10.48-8.51-11.63-14.33-1.88-9.52,7.44-16.21,14.81-8.41.17.18.19.51.21.53Z"/>
  <path class="cls-1" d="M35.06,42.03c4.11.56,7.51,3.9,7.87,8.09.31.44.21,1.04,0,1.49.14,1.82.2,3.71,0,5.53h-18.51c.19-3.49-.63-6.94.98-10.19,1.38-2.77,4.03-4.57,7.1-4.92.25-.75,2.31-.76,2.55,0Z"/>
  <path class="cls-1" d="M67.62,42.03c4.19.4,7.92,3.97,8.3,8.2.2,2.21-.14,4.67,0,6.91h-18.51c-.21-1.9-.13-3.85,0-5.75-.19-.3-.33-.8,0-1.06.31-4.04,3.8-7.82,7.87-8.3.07-.74,2.13-.68,2.34,0Z"/>
  <path class="cls-5" d="M49.32,45.64c.07-.68,1.63-.68,1.7,0,2.84.24,5.31,2.09,5.96,4.89.35-.01.35.54.21.85.23,1.86.14,3.87,0,5.75h-14.05c-.14-1.8-.22-3.74,0-5.53-.15-.29-.14-.99.21-1.06.65-2.81,3.12-4.65,5.96-4.89Z"/>
  <path class="cls-7" d="M35.06,42.03c-.98-.13-1.59-.11-2.55,0-2.02-.98-3.75-1.71-4.69-3.93-2.19-5.2,2.43-10.44,7.93-8.78,4.92,1.49,5.95,8.29,1.85,11.31-.81.6-1.84.73-2.54,1.4Z"/>
  <path class="cls-7" d="M67.62,42.03c-.62-.06-1.73-.07-2.34,0-2.47-1-4.77-2.82-5.08-5.66-.7-6.45,7.42-9.97,11.46-4.87,3.23,4.07.77,9.43-4.04,10.53Z"/>
  <path class="cls-7" d="M51.02,45.64c-.49-.04-1.21-.04-1.7,0-1.93-.59-3.65-1.86-3.99-3.99-.83-5.15,5.49-7.97,8.68-4,2.41,3,.59,7.13-2.98,7.99Z"/>
  <path class="cls-9" d="M83.36,60.33c.12-.84.12-1.72.21-2.55,3.3.7,4.68,5.02,3.02,7.81-3.58,4.44-8.23,7.96-12.05,12.21-.94.62-2.32.05-2.19-1.15.14-1.33,10.51-10.07,11.83-11.98.98-1.16.57-3.72-.82-4.33Z"/>
  <path class="cls-9" d="M16.76,57.77c.09.83.1,1.72.21,2.55-1.39.6-1.79,3.17-.82,4.33,1.32,1.89,11.69,10.66,11.83,11.98.13,1.21-1.25,1.77-2.19,1.15-3.83-4.25-8.46-7.78-12.05-12.21-1.68-2.77-.25-7.1,3.02-7.81Z"/>
  <path class="cls-6" d="M43.15,51.6c-.15,1.77.11,3.74,0,5.53,4.68,0,9.37,0,14.05,0,.04-.19.11-.18.21,0,6.17,0,12.35,0,18.51,0H24.42h18.51c-.05-1.84.06-3.69,0-5.53.06-.19.13-.18.21,0Z"/>
  <path class="cls-10" d="M43.36,50.54c-.08.37-.18.68-.21,1.06h-.21c-.02-.49.04-1,0-1.49l.43.43Z"/>
  <path class="cls-8" d="M57.4,51.39c-.06.19-.13.18-.21,0-.03-.26-.15-.58-.21-.85l.43-.21c-.03.35.01.71,0,1.06Z"/>
  <path class="cls-4" d="M56.08,11.22c.32.32.4,1.39.06,1.77l-7.13,6.92c-.56.21-.68.18-1.16-.13-.38-.24-3.72-3.61-3.8-3.87-.32-1.05.41-1.96,1.51-1.73.86.18,2.79,2.73,3.03,2.73l5.73-5.75c.38-.34,1.45-.26,1.77.06Z"/>
  <path class="cls-3" d="M57.4,57.13c-.07,0-.14,0-.21,0-.13-1.85.18-3.93,0-5.75h.21c-.07,1.91.05,3.84,0,5.75Z"/>
</svg>