<?xml version="1.0" encoding="UTF-8"?>
<svg id="Layer_6" data-name="Layer 6" xmlns="http://www.w3.org/2000/svg" viewBox="0 0 100.28 100.28">
  <defs>
    <style>
      .cls-1 {
        fill: #e3e7ea;
      }

      .cls-2 {
        fill: #d4a788;
      }

      .cls-3 {
        fill: #c5e993;
      }

      .cls-4 {
        fill: #aee169;
      }

      .cls-5 {
        fill: #f66c82;
      }

      .cls-6 {
        fill: #eec6a3;
      }
    </style>
  </defs>
  <path class="cls-6" d="M21.31,73.38c4.24-1.56,8.21-4.13,12.39-5.78,3.77-1.48,6.1-1.81,9.93-.2,1.55.65,3.04,1.95,4.42,2.48,3.05,1.18,10.89,2.07,12.83,4.21.47.52.97,1.42,1.02,2.13,5.14-1.38,10.27-3.26,15.42-4.57,2.56-.65,5.52-1.44,8.11-.6,4.75,1.54,3.44,7.47.07,9.8-9.12,3.18-18.7,8.2-27.92,10.84-2.13.61-4.29,1-6.53.74-4.63-.54-12.38-4.95-16.76-3.52-1.68.55-3.6,1.86-5.28,2.53-.18-.17-.35-.35-.51-.55s-.29-.39-.39-.6c-2.23-5.13-4.44-10.3-6.62-15.45-.09-.22-.13-.46-.16-.71s-.04-.5-.04-.75Z"/>
  <path class="cls-3" d="M47.49,61.2c-6.97-2.39-12.77-8.04-15.02-15.12-3.35-10.53.71-21.34,9.84-27.3.45-.3,2.77-1.48,2.85-1.62.36-.57-.77-3.03-.72-3.86l8.72,4.88-5.18,8.72c-.34-1.09-.5-2.3-.89-3.37-.07-.19.08-.39-.31-.27-1.2.35-4.31,3.12-5.18,4.16-7.46,8.87-4.32,22.16,5.88,27.19v6.6Z"/>
  <path class="cls-3" d="M62.92,16.56c6.42,2.01,11.82,7.48,14.16,13.75,4.44,11.94-1.07,24.77-12.44,30.08.24,1.22.81,2.39.72,3.66l-8.43-4.86,4.78-8.73c.3.03.32.3.39.52.38,1.05.48,2.3.92,3.34,12.43-6.51,12.6-24.79-.1-31.05v-6.7Z"/>
  <path class="cls-1" d="M21.31,73.38c2.56,5.78,5.43,12.27,7.71,18.06.06.14-.02.51.1.81.61,1.59,1.89,3.44-.11,4.76-.71.47-6.07,2.67-6.81,2.74-1.26.12-2.01-.64-2.55-1.68-3.67-7.13-6-15.8-9.6-23.07-.36-1.01.16-2.26,1.05-2.81.65-.41,6.03-2.62,6.67-2.68,2.32-.21,2.81,2.19,3.55,3.87Z"/>
  <path class="cls-5" d="M84.45,3.95c.07.08,1.81.63,1.91.62.74-.01,1.83-2.61,3.34-1.31,1.64,1.42-1.08,2.92-1.18,3.47-.02.09.54,1.65.61,1.76.55.93,2.82-.45,3.33,1.14.84,2.65-2.55,1.72-3.16,2.13-.18.12-.86,1.8-.71,2.13.32.69,2.71,1.85,1.14,3.17-1.67,1.4-2.49-1.55-3.67-1.25-.14.04-1.48.65-1.53.72-.42.62.46,3.35-1.61,3.27-2.25-.08-.83-2.86-1.52-3.37-.08-.06-1.8-.69-1.9-.67-.55.11-2.06,2.82-3.47,1.18s1.29-2.54,1.31-3.34c0-.1-.55-1.85-.62-1.91-.34-.3-3.67.66-3.43-1.73.19-1.87,2.83-.71,3.35-1.34.05-.07.66-1.47.68-1.57.22-1.11-1.55-1.51-1.61-2.59-.05-.97.94-1.78,1.91-1.48.83.25,1.11,1.86,2.38,1.49.17-.05,1.48-.64,1.53-.71.47-.69-.67-3.48,1.6-3.25,1.96.2,1.07,3.09,1.36,3.43Z"/>
  <path class="cls-3" d="M58.05,41.92v5.58c0,.92-4.07.8-4.77.71-.53-.06-1.52-.58-1.52-1.12v-5.18h-5.18c-.54,0-1.06-.99-1.12-1.52-.1-.86-.26-4.77.92-4.77h5.38v-5.18c0-.09.31-.71.41-.81.42-.41,4.26-.44,4.96-.3.27.05.92.57.92.71v5.28s.28.3.3.3h5.28c.13,0,.66.65.71.92.12.61.07,4.53-.18,4.88-.07.09-.68.49-.73.49h-5.38Z"/>
  <path class="cls-5" d="M18.09,7.6c.05.08,1.61.63,1.7.63.55-.01,2.4-2.97,3.5-.65.72,1.5-1.49,2.34-1.3,3.09.03.11.5,1.35.55,1.4.43.37,3.58-.85,3.02,1.95-.29,1.46-2.71.67-3.02.94-.07.06-.62,1.59-.6,1.67.09.47,2.74,2.19.9,3.39-1.63,1.05-2.3-1.33-3.21-1.2-.09.01-1.5.54-1.55.61-.34.53.59,2.64-.99,2.98-2.6.56-1.58-2.74-2-3.03-.07-.05-1.49-.57-1.58-.55-.58.11-.9,1.55-2.47,1.41-.86-.08-1.25-.94-1.12-1.73.11-.66,1.12-1.08,1.33-1.54.16-.36-.39-1.89-.55-1.99-.64-.4-3.31.71-3.01-1.74.23-1.83,2.7-.79,3.06-1.26.16-.2.62-1.5.56-1.76-.13-.55-1.32-.92-1.41-1.86-.12-1.31.86-1.81,2.06-1.43.63.2,1,1.03,1.41,1.24.18.09,1.74-.47,1.79-.55.38-.59-.73-3.32,1.73-3.01,1.82.23.8,2.45,1.16,3.01Z"/>
  <path class="cls-4" d="M35.25,14.59c1.2,1.48-1.04,2.68-1.87,3.59-4.42,4.85-7.13,10.62-8.01,17.16-.16,1.17.15,4.29-1.01,4.68-2.77.92-1.99-3.54-1.81-5.06.78-6.79,4.28-14.44,9.23-19.18.82-.79,2.43-2.47,3.47-1.18Z"/>
  <path class="cls-4" d="M87.21,37.72c.2.2.46.95.47,1.26.07,5.25-1.95,11.82-4.59,16.33-.83,1.42-4.52,6.61-5.82,7.17-.79.34-1.72.11-1.93-.8-.35-1.53.84-1.91,1.68-2.9,4.39-5.14,6.8-10.39,7.6-17.15.15-1.23-.46-4.34,1.52-4.35.2,0,.92.3,1.06.45Z"/>
  <path class="cls-2" d="M61.9,78.66c-.4,2.71-3.08,4.12-5.69,3.76-4.91-.68-10.68-3.22-15.63-4.26-1.2-.61-2.42-2.12-2.61-3.48-.07-.5-.23-2.26.4-2.24l23.53,6.21Z"/>
</svg>