<?xml version="1.0" encoding="UTF-8"?>
<svg id="Layer_6" data-name="Layer 6" xmlns="http://www.w3.org/2000/svg" viewBox="0 0 657.84 505.41">
  <defs>
    <style>
      .cls-1 {
        fill: #d9dcdd;
      }

      .cls-2 {
        fill: #801914;
      }

      .cls-3 {
        fill: #9ce2e4;
      }

      .cls-4 {
        fill: #899090;
      }

      .cls-5 {
        fill: #fadee5;
      }

      .cls-6 {
        fill: #e4e8eb;
      }

      .cls-7 {
        fill: #8b8f92;
      }

      .cls-8 {
        fill: #ed6b5d;
      }

      .cls-9 {
        fill: #a2b0ad;
      }

      .cls-10 {
        fill: #0b1413;
      }

      .cls-11 {
        fill: #932016;
      }

      .cls-12 {
        fill: #dbe2e4;
      }

      .cls-13 {
        fill: #839293;
      }

      .cls-14 {
        fill: #312d24;
      }

      .cls-15 {
        fill: #dd7e71;
      }

      .cls-16 {
        fill: #9fa1a0;
      }

      .cls-17 {
        fill: #ad241d;
      }

      .cls-18 {
        fill: #838c8b;
      }

      .cls-19 {
        fill: #dee4e4;
      }

      .cls-20 {
        fill: #899190;
      }

      .cls-21 {
        fill: #921e0d;
      }

      .cls-22 {
        fill: #7a8382;
      }

      .cls-23 {
        fill: #a4a7a4;
      }

      .cls-24 {
        fill: #8c9091;
      }

      .cls-25 {
        fill: #a4dceb;
      }

      .cls-26 {
        fill: #bbc4c3;
      }

      .cls-27 {
        fill: #484d46;
      }

      .cls-28 {
        fill: #a32e21;
      }

      .cls-29 {
        fill: #9ce0ed;
      }

      .cls-30 {
        fill: #2d3635;
      }

      .cls-31 {
        fill: #53a7ae;
      }

      .cls-32 {
        fill: #f88f81;
      }

      .cls-33 {
        fill: #bbc1c4;
      }

      .cls-34 {
        fill: #9be0e3;
      }

      .cls-35 {
        fill: #dadbdd;
      }

      .cls-36 {
        fill: #a5a7a4;
      }

      .cls-37 {
        fill: #98322e;
      }

      .cls-38 {
        fill: #8a1c17;
      }

      .cls-39 {
        fill: #f46d57;
      }

      .cls-40 {
        fill: #edf3f3;
      }

      .cls-41 {
        fill: #fcfefd;
      }

      .cls-42 {
        fill: #939594;
      }

      .cls-43 {
        fill: #626565;
      }

      .cls-44 {
        fill: #b0dee4;
      }

      .cls-45 {
        fill: #9e2518;
      }

      .cls-46 {
        fill: #888f8c;
      }

      .cls-47 {
        fill: #3c1001;
      }

      .cls-48 {
        fill: #dadedf;
      }

      .cls-49 {
        fill: #242f2e;
      }

      .cls-50 {
        fill: #9fdfeb;
      }

      .cls-51 {
        fill: #f3dee8;
      }

      .cls-52 {
        fill: #f2fbfa;
      }

      .cls-53 {
        fill: #828385;
      }

      .cls-54 {
        fill: #aedbe1;
      }

      .cls-55 {
        fill: #a5a7a6;
      }

      .cls-56 {
        fill: #808b89;
      }

      .cls-57 {
        fill: #cf7366;
      }

      .cls-58 {
        fill: #4f5252;
      }

      .cls-59 {
        fill: #eca291;
      }

      .cls-60 {
        fill: #f37863;
      }

      .cls-61 {
        fill: #300206;
      }

      .cls-62 {
        fill: #fafefe;
      }

      .cls-63 {
        fill: #bbc3c2;
      }

      .cls-64 {
        fill: #ed9f8c;
      }

      .cls-65 {
        fill: #869e9b;
      }

      .cls-66 {
        fill: #8d3a37;
      }

      .cls-67 {
        fill: #e2e8eb;
      }

      .cls-68 {
        fill: #a12b24;
      }

      .cls-69 {
        fill: #fb8f75;
      }

      .cls-70 {
        fill: #d7d9d8;
      }

      .cls-71 {
        fill: #889190;
      }

      .cls-72 {
        fill: #9fdfe7;
      }

      .cls-73 {
        fill: #e2e6e9;
      }

      .cls-74 {
        fill: #eff8f7;
      }

      .cls-75 {
        fill: #f4f8f8;
      }

      .cls-76 {
        fill: #e18172;
      }

      .cls-77 {
        fill: #858c8e;
      }

      .cls-78 {
        fill: #f19783;
      }

      .cls-79 {
        fill: #4eaab7;
      }

      .cls-80 {
        fill: #2f878f;
      }

      .cls-81 {
        fill: #762416;
      }

      .cls-82 {
        fill: #8c1808;
      }

      .cls-83 {
        fill: #ec8b7f;
      }

      .cls-84 {
        fill: #24302e;
      }

      .cls-85 {
        fill: #bac3c2;
      }

      .cls-86 {
        fill: #e18174;
      }

      .cls-87 {
        fill: #6bc0d0;
      }

      .cls-88 {
        fill: #802018;
      }

      .cls-89 {
        fill: #f2927f;
      }

      .cls-90 {
        fill: #687171;
      }

      .cls-91 {
        fill: #d19d97;
      }

      .cls-92 {
        fill: #4c4d4f;
      }

      .cls-93 {
        fill: #f9ece3;
      }

      .cls-94 {
        fill: #b9bfbf;
      }

      .cls-95 {
        fill: #f68d78;
      }

      .cls-96 {
        fill: #b9bfc0;
      }

      .cls-97 {
        fill: #c0c2c1;
      }

      .cls-98 {
        fill: #fd8f78;
      }

      .cls-99 {
        fill: #f8f4f2;
      }

      .cls-100 {
        fill: #cccecd;
      }

      .cls-101 {
        fill: #919a9c;
      }

      .cls-102 {
        fill: #ecedef;
      }

      .cls-103 {
        fill: #655a52;
      }

      .cls-104 {
        fill: #b0b1b3;
      }

      .cls-105 {
        fill: #e0e5e8;
      }

      .cls-106 {
        fill: #f6fafa;
      }

      .cls-107 {
        fill: #a9abaa;
      }

      .cls-108 {
        fill: #ec7869;
      }

      .cls-109 {
        fill: #64bfc2;
      }

      .cls-110 {
        fill: #f9fefe;
      }

      .cls-111 {
        fill: #e58271;
      }

      .cls-112 {
        fill: #a02b23;
      }

      .cls-113 {
        fill: #de7f72;
      }

      .cls-114 {
        fill: #db7a67;
      }

      .cls-115 {
        fill: #f7785f;
      }

      .cls-116 {
        fill: #cfd5d5;
      }

      .cls-117 {
        fill: #aec6cd;
      }

      .cls-118 {
        fill: #d77669;
      }

      .cls-119 {
        fill: #a4dde3;
      }

      .cls-120 {
        fill: #7e8484;
      }

      .cls-121 {
        fill: #add8d8;
      }

      .cls-122 {
        fill: #878c8f;
      }

      .cls-123 {
        fill: #8a8f92;
      }

      .cls-124 {
        fill: #ec745d;
      }

      .cls-125 {
        fill: #bfc1c0;
      }

      .cls-126 {
        fill: #96271b;
      }

      .cls-127 {
        fill: #7c8483;
      }

      .cls-128 {
        fill: #828b8a;
      }

      .cls-129 {
        fill: #ee6e57;
      }

      .cls-130 {
        fill: #fcfcfb;
      }

      .cls-131 {
        fill: #f0f5f6;
      }

      .cls-132 {
        fill: #f1725b;
      }

      .cls-133 {
        fill: #841b15;
      }

      .cls-134 {
        fill: #a2dee8;
      }

      .cls-135 {
        fill: #5a6060;
      }

      .cls-136 {
        fill: #fbdde6;
      }

      .cls-137 {
        fill: #fafdfc;
      }

      .cls-138 {
        fill: #a8aaa9;
      }

      .cls-139 {
        fill: #fc8d77;
      }

      .cls-140 {
        fill: #851b14;
      }

      .cls-141 {
        fill: #cfdddb;
      }

      .cls-142 {
        fill: #a62e27;
      }

      .cls-143 {
        fill: #7f8585;
      }

      .cls-144 {
        fill: #686e6e;
      }

      .cls-145 {
        fill: #861b13;
      }

      .cls-146 {
        fill: #f6dfe6;
      }

      .cls-147 {
        fill: #89261f;
      }

      .cls-148 {
        fill: #858c8c;
      }

      .cls-149 {
        fill: #f18169;
      }

      .cls-150 {
        fill: #fdf7f0;
      }

      .cls-151 {
        fill: #5b6a67;
      }

      .cls-152 {
        fill: #fe8f77;
      }

      .cls-153 {
        fill: #d4dada;
      }

      .cls-154 {
        fill: #f4f7f9;
      }

      .cls-155 {
        fill: #475250;
      }

      .cls-156 {
        fill: #772b23;
      }

      .cls-157 {
        fill: #e0e7e7;
      }

      .cls-158 {
        fill: #647471;
      }

      .cls-159 {
        fill: #8b908c;
      }

      .cls-160 {
        fill: #f07861;
      }

      .cls-161 {
        fill: #4e504f;
      }

      .cls-162 {
        fill: #8e2b26;
      }

      .cls-163 {
        fill: #666f71;
      }

      .cls-164 {
        fill: #a3dfe5;
      }

      .cls-165 {
        fill: #67c3d2;
      }

      .cls-166 {
        fill: #616567;
      }

      .cls-167 {
        fill: #3b3733;
      }

      .cls-168 {
        fill: #8e8d8e;
      }

      .cls-169 {
        fill: #f19281;
      }

      .cls-170 {
        fill: #4ea9b7;
      }

      .cls-171 {
        fill: #475150;
      }

      .cls-172 {
        fill: #f4f5f6;
      }

      .cls-173 {
        fill: #50a7b1;
      }

      .cls-174 {
        fill: #ae1f19;
      }

      .cls-175 {
        fill: #9ea5a7;
      }

      .cls-176 {
        fill: #b22421;
      }

      .cls-177 {
        fill: #98251c;
      }

      .cls-178 {
        fill: #d6d8d7;
      }

      .cls-179 {
        fill: #cdd4d4;
      }

      .cls-180 {
        fill: #7f8586;
      }

      .cls-181 {
        fill: #f7f4f2;
      }

      .cls-182 {
        fill: #f87d68;
      }

      .cls-183 {
        fill: #4c5957;
      }

      .cls-184 {
        fill: #dfe8e7;
      }

      .cls-185 {
        fill: #7e8583;
      }

      .cls-186 {
        fill: #eaefef;
      }

      .cls-187 {
        fill: #d7dfdf;
      }

      .cls-188 {
        fill: #b5b9ba;
      }

      .cls-189 {
        fill: #404b49;
      }

      .cls-190 {
        fill: #51585a;
      }

      .cls-191 {
        fill: #62615c;
      }

      .cls-192 {
        fill: #7c8786;
      }

      .cls-193 {
        fill: #f5f7f9;
      }

      .cls-194 {
        fill: #df6d56;
      }

      .cls-195 {
        fill: #fcfefe;
      }

      .cls-196 {
        fill: #656f70;
      }

      .cls-197 {
        fill: #edf3f4;
      }

      .cls-198 {
        fill: #7e8584;
      }

      .cls-199 {
        fill: #55595a;
      }

      .cls-200 {
        fill: #ef735a;
      }

      .cls-201 {
        fill: #fb8f78;
      }

      .cls-202 {
        fill: #6a7171;
      }

      .cls-203 {
        fill: #87908f;
      }

      .cls-204 {
        fill: #ecf5f4;
      }

      .cls-205 {
        fill: #818787;
      }

      .cls-206 {
        fill: #7b1b14;
      }

      .cls-207 {
        fill: #525a5c;
      }

      .cls-208 {
        fill: #9be2e2;
      }

      .cls-209 {
        fill: #350f20;
      }

      .cls-210 {
        fill: #5a6659;
      }

      .cls-211 {
        fill: #f06d56;
      }

      .cls-212 {
        fill: #a03125;
      }

      .cls-213 {
        fill: #aa2417;
      }

      .cls-214 {
        fill: #b7b9b8;
      }

      .cls-215 {
        fill: #a42420;
      }

      .cls-216 {
        fill: #851b15;
      }

      .cls-217 {
        fill: #fc8b7a;
      }

      .cls-218 {
        fill: #849395;
      }

      .cls-219 {
        fill: #f79482;
      }

      .cls-220 {
        fill: #7fdde6;
      }

      .cls-221 {
        fill: #828a89;
      }

      .cls-222 {
        fill: #ee7a63;
      }

      .cls-223 {
        fill: #9b9da0;
      }

      .cls-224 {
        fill: #8d8f92;
      }

      .cls-225 {
        fill: #8a8c8d;
      }

      .cls-226 {
        fill: #841a14;
      }

      .cls-227 {
        fill: #eb7860;
      }

      .cls-228 {
        fill: #392b22;
      }

      .cls-229 {
        fill: #e99984;
      }

      .cls-230 {
        fill: #ebedef;
      }

      .cls-231 {
        fill: #f2f6f7;
      }

      .cls-232 {
        fill: #7e8587;
      }

      .cls-233 {
        fill: #fd8f76;
      }

      .cls-234 {
        fill: #851b18;
      }

      .cls-235 {
        fill: #a2dee9;
      }

      .cls-236 {
        fill: #828b8c;
      }

      .cls-237 {
        fill: #cddddc;
      }

      .cls-238 {
        fill: #8e3027;
      }

      .cls-239 {
        fill: #9da6a5;
      }

      .cls-240 {
        fill: #fefefe;
      }

      .cls-241 {
        fill: #f9dee5;
      }

      .cls-242 {
        fill: #889090;
      }

      .cls-243 {
        fill: #fd8f77;
      }

      .cls-244 {
        fill: #e5ebed;
      }

      .cls-245 {
        fill: #424345;
      }

      .cls-246 {
        fill: #626868;
      }

      .cls-247 {
        fill: #434d4c;
      }

      .cls-248 {
        fill: #88908f;
      }

      .cls-249 {
        fill: #fe8e77;
      }

      .cls-250 {
        fill: #515757;
      }

      .cls-251 {
        fill: #d0d7d7;
      }

      .cls-252 {
        fill: #ebf4f3;
      }

      .cls-253 {
        fill: #babcbb;
      }

      .cls-254 {
        fill: #858b8b;
      }

      .cls-255 {
        fill: #dddee1;
      }

      .cls-256 {
        fill: #f49483;
      }

      .cls-257 {
        fill: #74120b;
      }

      .cls-258 {
        fill: #525a5a;
      }

      .cls-259 {
        fill: #f4927c;
      }

      .cls-260 {
        fill: #839392;
      }

      .cls-261 {
        fill: #818b8c;
      }

      .cls-262 {
        fill: #d2d4d3;
      }

      .cls-263 {
        fill: #52a6b6;
      }

      .cls-264 {
        fill: #484d4e;
      }

      .cls-265 {
        fill: #a1dfe8;
      }

      .cls-266 {
        fill: #ecaca0;
      }

      .cls-267 {
        fill: #bcc3c4;
      }

      .cls-268 {
        fill: #26312f;
      }

      .cls-269 {
        fill: #888f91;
      }

      .cls-270 {
        fill: #891b15;
      }

      .cls-271 {
        fill: #f6f7f9;
      }

      .cls-272 {
        fill: #faebe5;
      }

      .cls-273 {
        fill: #f7f9fa;
      }

      .cls-274 {
        fill: #ef7760;
      }

      .cls-275 {
        fill: #9d251b;
      }

      .cls-276 {
        fill: #6f1913;
      }

      .cls-277 {
        fill: #fdfefe;
      }

      .cls-278 {
        fill: #fcfdfd;
      }

      .cls-279 {
        fill: #ebebe6;
      }

      .cls-280 {
        fill: #f17b63;
      }

      .cls-281 {
        fill: #f2715b;
      }

      .cls-282 {
        fill: #a1dee8;
      }

      .cls-283 {
        fill: #851b13;
      }

      .cls-284 {
        fill: #4e5455;
      }

      .cls-285 {
        fill: #a6261d;
      }

      .cls-286 {
        fill: #9ae2e8;
      }

      .cls-287 {
        fill: #87908d;
      }

      .cls-288 {
        fill: #9b9d9c;
      }

      .cls-289 {
        fill: #8b9b95;
      }

      .cls-290 {
        fill: #1f2b29;
      }

      .cls-291 {
        fill: #841809;
      }
    </style>
  </defs>
  <path class="cls-237" d="M617.56,218.05c15.65,22.3,25.71,50.32,27.42,81.26,4.33,78.12-46.16,145.11-112.77,149.64-21.19,1.44-41.45-3.62-59.39-13.69-35.82,29.17-86.85,49.23-144.26,53.13-40.29,2.75-78.33-2.84-110.84-14.75-19.69,15.98-43.27,26.02-69,27.77-74.97,5.09-139.68-62.05-144.55-149.96C.05,276.8,40.38,211.17,98.54,189.96c-1.97-8.53-3.24-17.42-3.75-26.57-4.1-73.95,43.69-137.37,106.75-141.67,34.79-2.37,66.98,13.78,89.49,41.16,16.45-19.08,38.68-31.47,63.66-33.17,25.51-1.73,49.4,7.99,68.01,25.37,10.31-14.7,25.61-24.48,43.14-25.67,33.54-2.28,62.49,27.74,64.66,67.07.31,5.49.07,10.88-.65,16.09,8.56-3.69,18-6.04,28-6.73,42.06-2.86,77.81,25.08,79.88,62.4,1.05,18.91-6.74,36.59-20.16,49.81Z"/>
  <path class="cls-165" d="M112.02,157.44c6.37,2.11,13.72,5.85,17.98,10.78,9.65,12.13,20.35,23.27,31.46,34.13,3.31,7.94,12.62,18.47,17.08,27.84,3.94,9.09,4.75,16.25,4.49,26.05-.02.3.03.6,0,.9-.84,2.92-1.44,5.91-1.8,8.98.38.77.73,1.54.96,2.35.93,3.36-2.13,23.96-3.94,27.05-.43.73-.95,1.39-1.51,2.04,2.56,2.34-.02,11.63-2.7,13.47-1.52,2.33-8.26,3.94-10.54.67-6.14-10.43-11.87-21.07-17.18-31.92l.76-1.09c-.71-.26-.7-.56,0-.9l.87-2-20.64,10.09-.08.98c-8.39,3.59-16.57,7.58-24.54,11.99l-2.35-.39c-2.96,1.65-3.56,2.55-1.8,2.69,1.58-1.48,2.71-2.5,3.6,0l.96-.05,15.22,29.68c2.06,2.39,3.84,4.68,5.29,7.91,3.36,5.06,7.35,11.02,11.33,15.54,9.76,11.07,14.7,11.15,28.28,7.62.07-.72.18-1.3.42-1.36,2.91-.77,8.43-2.01,11.47-2.59.19-.04.45.29.74.73,7.41,18.52,12.39,39.36,13.48,59.28-.53.7-1.08,1.37-1.72,1.94-5.54,4.98-30.77,8.98-39.44,10.01-30.3,3.61-60-.42-89.66-6.54-.72-.15-1.38-.6-2.07-1.07s-1.33-1.05-1.94-1.66c7.03-36.01,18.3-74.28,15.28-110.92-1.9-23-7.01-46.12-8.08-69.17-1.66-35.9,14.46-62.25,38.64-86.66,3.97.04,7.87,1.24,11.69,3.59Z"/>
  <path class="cls-173" d="M189.32,417.91c7.46,21.8,10.37,45.97,13.09,68.99.21,1.78.15,3.6.06,5.44s-.31,3.68-.57,5.51c-19.76,0-39.57,0-59.33,0-.07-1.56-.97-1.56-2.7,0-29.35-.01-58.74.04-88.09,0-.76.15-1.37-.04-1.78-.66.37-10.12.66-20.32.93-30.46.04-1.51-.76,28.23-.92,30.12l-1.83,1.01c-.6,0-1.2,0-1.8,0v-5.39l.9-12.57c.05-22.48,2.98-37.7,7.19-59.28,44.52,10.05,91.49,14.32,134.83-2.69Z"/>
  <path class="cls-271" d="M351.12,244.56c11.43-2.17,23.01-2.98,34.75-2.42,65.04.49,130.06.72,195.1.56,2.37,0,4.83.42,3.86,2.76.78.25.77.55,0,.9.06,13.17.06,26.34,0,39.52v.9l-16.08,1.13c-82.36-.11-161.86-.01-238.5.29-.39-.75-.29-1.53.2-2.32,3.14-2.95,9.26-5.63,13.48-5.39,2.48-1.24,3.01,1.09,3.07,3.46l5.09.25c-.49-2.91-.22-5.64.83-8.19-.17-1.77,3.56-3.09,5.39-2.69l.68-2.22c3.52-1.18,6.87-2.69,10.05-4.55l-16.61-8.48-.41-1.82c-.73-1.37-.13-2.56,1.8-3.59-1.53-2.19-2.47-5.08-2.7-8.08Z"/>
  <path class="cls-249" d="M140.78,84.69c2.83-3.06,5.01-6.47,6.54-10.22l3.23-.61c3.45-8.95,12.29-8.24,20.42-7.32l2.47-.3c5.55-7.02,5.75-7.14,14.97-4.15l-.88,4.64c3.62.71,7.13-.98,10.52-5.05,5.11-2.21,4.99,6.55,1.61,8.21-.19.09-.52-1.94.45.44.4.47-1.55,8.4-1.8,9.88-2.98-.9-1.45-2.89-.34-.43-3.01-.27-5.73-.37-8.65.43l-1.41.46c-5.03-2.94-10.62-4.87-16.52-4.58l-.95,1.42c.09,1.52.16,3.31.19,5.38,7.5,3.27,8.39,5.17,5.1,12.89l1.01,3.29c1.43-.57,2.63-.57,3.6,0,.76-1.97,3.23-2.82,7.39-2.57,1.03-5.06,7.15-5.73,5.19-.12-.72,6.96,1.07,13.74,5.37,20.33,1.22,4.49-1.95,6.17-9.48,5.04l-.75.59c.81,4.09.04,6.21-2.32,6.37-1.18.93-5.22.59-6.59,0-.3-.13,6.13.23,5.69,1.8-.25.33-.81,1.42-.9,1.8,1.31,2.91.09,5.59-3.67,8.05.43,7.03-1.65,11.24-6.22,12.61-8.02.85-12.12-1.93-18.89-4.98-1.25-.57-2.18-1.56-3.58-.41-2.03.13-2.58-.85-1.8-2.69-1.78-1.15-3.58-2.35-5.39-3.59-1.36.75-2.07-.41-1.8-1.8-.79-.58-1.09-.28-.9.9,2.73,2.39,8.55,9.13,6.29,12.57.68.56.98,2.06.9,4.49-1.33,5.88-2.33,12.44-3.88,18.17-.41,1.52-.22,2.92-2.41,2.49-2.04,1.76-5.89-2.25-4.49-4.49-7.78-6.71-16.46-12.4-26.07-17.07-1.37.11-9.89-2.72-10.03-3.23-.11-.38-.01-.81.14-1.26,7.75-8.03,11.65-24.75,13.22-35.74.38-2.64,1.27-6.02.27-8.27-.9-2.1,1.52-4.41,3.6-3.59-2.3-1.11-1.6-2.86.9-2.69-.16-4.42,2.06-3.56,6.68,2.57l.51,1.02.94.82c-.14,9.18,9.08-.32,1.39.75l-1.43-1.57c-3.31-2.82-6.31-6.12-8.99-9.88-3.36-.65-3.17-11.07-2.21-13.92,2.66-7.9,12.3-9.47,16.59-3.15,2.2-2.12,4.52,1.29,3.6,3.59,1.65-.04,3.12,1.22,3.6,2.69Z"/>
  <path class="cls-45" d="M134.49,14.63h2.7c8.04.42,16.39.82,24.27,0,4.09-.1,8.28.5,12.58,1.8,6.63,1.13,18.84,5.11,24.27,8.98l1.75,1.14c1.99,1.15,3.1,1.72,3.64,2.45,2.1,1.23,3.55,2.13,4.61,3.81.54.85,1.09,1.7,1.81,2.4,1.55,1.49,2.7,3.92,3.47,7.27.32.89.56,1.79.9,2.69,1.63,3.73,4.13,10.33,0,12.57-2.14,6.85-8.52,9.66-14.38,12.57-.15-.18-1.62.4-1.8-.43,2.05-2.11,1.94-4.89,1.8-7.65-4.18,3.73-7.28,7.23-13.47,7.18.27-.92.82-1.67.9-2.69.17-2.58.77-3.78,1.8-3.59.72,1.97.8-4.17,0-5.39-1.59.08-2.77-1.22-3.55-3.9-3.82,5.04-10.53,10.03-16.73,11.52-12.6,3.02-6.48-3.95-1.4-9.02-5.93,4.99-11.9,10.3-16.53,16.54-7.85,5.12-4.82-12.23-.44-14.25-.09-1.11-.39-1.41-.9-.9-2.79,5.74-4.78,11.8-5.95,18.18l-2.14.68c-.89-3.13-.59,2.86,0,4.49,2.65.35,1.31,2.41-.9,1.8-1.37.5-1.97-.39-1.8-2.69l-1.92-.54c-2.32-2.75-5.82-12.5-3.47-15.18-2.82-1.35-2.79-11.39,0-13.02-2.37,3.8-2.79,8.69-1.26,14.65l2.75,10.69-1.49,1.6c-3.37-1.93-10.22-3.11-13,.03-3.89,4.38-1.8,12.2-1.38,17.04,3.31,2.13,2.78,3.62.9,6.29,0,.14-.76,2.41-.9,2.69-1.76,1.83-3.85,1.1-6.27-2.21-2.5-4.69-4.91-6.65-7.21-5.88-.92-1.2-1.12-1.69-1.8-2.69-1.73-2.01-.36-3.01,1.8-1.8l1.23-1.48c-3.47-4.07-5.66-9.08-6.98-14.26l-1.43,1.36c.71,2.48-.05,2.68-1.8.9-.74-2.09-1.23-2.82-1.8-5.39-.32-1.34-.32-2.54,0-3.59.76-5.65.61-11.41,0-17.07-.8-.53-.76-1.18,0-1.8-2.78-3.67,1.31-11.01,3.86-14.83,1.33-3.16,3.04-4.5,5.13-4.03,6.81-7.86,20.12-16.24,30.56-17.07Z"/>
  <path class="cls-193" d="M578.54,217.62l7.62.35c6.76,5.85,8.23,11.88,8.29,20.47l8.32-.29c3.32-.35,4.84.59,4.54,2.82l-1.65,1.66c-80.73-1.72-162.35-2.19-244.87-1.42l-6.97-1.14c-3.98-2.34-3.27-12.91-2.73-17.66-.16-2.88.75-4.48,2.73-4.79,74.8-.3,149.94-1.19,224.72,0Z"/>
  <path class="cls-249" d="M254.94,229.3c3.47.62,7.46,3.55,8.09,7.19-.83.91.07,1.81,2.7,2.69,1.73-2.17,4.7.46,3.6,2.69-1.13,2.45.49,2.64,4.85.59,10.72-.16-3.14,11.49-6.48,14.07-4.57,3.53-8.39,5.61-13.92,7.4l-.64,1.3-.6,1.3c-8.52,1.06-16.25,3.78-23.2,8.15l-2.27-.47c-4.84,4.3-10.65,7.4-17.43,9.29-.93,1.69-2.32,2.16-4.15,1.49.21.93-.39,1.23-1.8.9-6.67,6.24-17.86,10.56-26.97,11.68,1.51-10.3,3.47-21.15,4.49-31.44.21-2.76.81-5.15,1.8-7.19,10.51-1.83,21.22-3.33,31.63-5.67,8.93-2.01,11.33-2,18.4-8.11,5.19-4.5,10.06-10.88,15.55-15.45,1.11-.93,2.56-1.25,3.63-2.2.79-1.34,3.43.48,2.7,1.8Z"/>
  <path class="cls-45" d="M59.88,28.11c10.69-12.26,23.29-13.42,34.16-1.8l.94,2.08c-2.29,1.9-4.09,4.29-5.39,7.15-2.77-2.65-4.32-3.75-8.13-2.94-9.13,2.45-19.55,10.14-20.67,20.66,1.17,4.9-2.12,11.69-4.49,16.17.63,2.29,1.23,2.89,1.8,1.8.32-10.9,7.01-28.67,17.5-33.97.64-.33,1.57.26,2.28.74,3.73-1.62,6.13-1.62,7.19,0l.83.91c-2.46,5.99-4.42,12.15-5.88,18.48-1.55.98-3.16,2-4.84,3.06l.85,1.91c-3.35,17.43-4.15,34.27-1.03,51.85l-.72,1.93c.96,1.09,1.86,1.98,2.7,2.69,1.86-2.05,3.43-.78,3.6,1.8-.27.32-.56.65-.9.9h-.9c-4.14-.76-8.44-.78-12.58,0,.78.25.77.55,0,.9-5.56-1.02-17.17-6.04-19.95-11.05-.86-1.54-1.15-3.44-1.62-5.12-.21-.82.09-1.12.9-.9.11-4.71-.19-9.5-.9-14.37-.46.04-.76-.56-.9-1.8v-.9c-1.16-.6-.71-2.56,0-3.59-2.84-1.42-.32-10.21,2.7-10.78,2.79.7,2.65-.14,0-.9l-1.87-.87c-.71-3.14,3.29-15.89,6.36-17.09.59-2.41.89-4.81.9-7.19-2.39,2.96-3.78.55-2.7-2.69.28-.6.59-1.2.9-1.8,2.54-2.59,4.64-5.59,6.29-8.98,2.4-.95,3.59-3.05,3.6-6.29Z"/>
  <path class="cls-269" d="M609.1,379.29c2.22.28,4.32.58,6.29.9.6,12.95,1.01,27.93,0,41.32.39-13.85.69-27.92.9-42.21h.9c.03,4.78-.04,9.59,0,14.37.08,8.28,1.02,20.59.02,28.34-.09.72-.04,1.35-.92,1.3-103.77-.67-208.94-.97-315.51-.9l.62-1.8,195.58-.88c.07-3.29.88-5.69,2.45-7.2-34.22-.26-68.68-.56-103.37-.9-.8-.25-.78-.55,0-.9l.62-1.8,102.93.02,1.62-.92c.26-.59.56-.58.9,0,.74.36,1.54.51,2.4.51,7.62.06,15.84.06,23.93.04l84.8-.14c.21,0-3.97.15-4.15-.42l-1-.91c1.42-7.87.81-16.25.1-24.24-2.63,0-2.52-3,0-3.59.19-.61.5-.58.9,0Z"/>
  <path class="cls-277" d="M344.83,240.07c2.88-2.48,6.06-2.47,8.99,0,78.72-.59,161.2-2.51,239.52.94,4.47.2,9.68-.54,13.97-.04.43-.36.73-.06.9.9.02.9-.02,1.8,0,2.69-6.66,2.58-16.5,2.82-23.37.9-.59.08-2.11-2.34-1.81.89h-.88c.17-1.14-.03-1.97-1.3-1.87-76.48,1.81-153.29-2.15-229.73.08l-1.29,1.78c-2.49-.5-4.51.04-6.8.92-4.09.94-10.07-2.46-11.69-6.29-.4-.75-.63-1.83-.02-2.22s13.25-.89,13.51,1.33Z"/>
  <path class="cls-85" d="M328.65,187.08c1.44-1.76,3.05-1.75,4.49,0,12.5-.07,35.81-1.84,46.97.22,8.07,1.49,5.02,9.66.22,9.66h-27.42c1.48,6.34,1.07,13.99.9,20.66-2.66,1.77-5.42,1.76-8.09,0v-20.66h-50.79c-3.27,0-6.21-7.35-.31-9.29,5.93-1.96,26.35-.54,34.02-.59Z"/>
  <path class="cls-195" d="M584.83,286.78c7.78.03,15.6-.02,23.38,0,.07,1.19-.09,2.41,0,3.6-.86,2.98-12.09,2.75-13.48,0-79.91,2.52-160.08,3.32-240,0-9.47.91-18.48,1.41-28.25.84l-2.32-1.74c-1.05-2.04,2.58-3.01,4.49-2.69.02-1.36.7-1.71,1.8-.9,2.47,4.27,8.24.55,11.2.44,6.18-.22,12.05-.39,17.06-.39,75.2.02,151.16.55,226.12.84Z"/>
  <path class="cls-40" d="M608.2,290.37c.16,2.22.88,5.77.9,7.19-2.05,1.72-4.32,3.39-6.81,5-2.7,3.12-2.77,36.88-.43,40.37,2.42,1.45,3.63,3.09,3.65,4.93.84.6,2.57.83,2.74,1.47l-.04,29.06c-5.35.67-10.83.73-16.18,0-2.07-.3-2.4-2.31-.98-6.02-1.52-27.16-1.25-54.14.8-80.94l2.87-1.06h13.48Z"/>
  <path class="cls-94" d="M608.2,244.56c.26,13.45-.19,26.97,0,40.42-7.49.65-15.14.76-22.94.33-.42-13.07-.56-26.05-.43-38.95v-.9c7.76-1,15.44-1.12,23.37-.9Z"/>
  <path class="cls-271" d="M344.83,217.62c4.06,3.37,3.51,15.48,2.18,20.64l-2.18,1.82c-4.4.08-8.73.88-12.96.22l-.53.68-1.51,1.27-8.42-3.86c-2.4,1.15-4.18,1.12-5.35-.1-3.35.38-9.18-2.14-9.89-5.39-1.13.34-1.44.2-.9-.9-2.38.04-1.37-4.78-.65-6.42,1.22-2.79,4.76-7.41,7.84-7.95,10.75-.3,21.6.06,32.36,0Z"/>
  <path class="cls-203" d="M405.06,148.46c-19.46.21-38.64.51-57.53.9,18.86-.83,37.74-.83,56.63,0,.31,5.89.61,11.87.9,17.96-.07,1.49.06,3.01,0,4.5h-63.83s-.44-9.88-.44-9.88c-5.86,6.88-7.64,16.37-7.64,25.14-1.5,0-3,0-4.49,0,.69-8.36,1.84-17.45,6.27-24.73,3.37-5.54,8.25-6.49,6.31-14.8l63.83.9Z"/>
  <path class="cls-275" d="M86.85,37.09c1.25.51,1.37,2.29,0,2.69,1.6,3.8-2.22,9.15-4.49,11.68.23,4.64.83,5.54,1.8,2.69.02-5.49,1.51-9.08,4.49-10.78.77-.19,1.37.71,1.8,2.69,2.6-1.25,3.43,1.37.9,2.69,0,1.62-.53,1.74-.9,2.69-.99,1.88-1.29,3.67-.9,5.39-.34,1.57-2.05,12.56-2.7,12.57-.41.74-.71,2.24-.9,4.49.63,1.04.44,2.72-.9,2.69-.74,10.86-.74,21.63,0,32.33,1.41-.05,1.57,2.48.9,3.59.66,2.18.66,4.57,0,7.19-1.81,2.09-3.35,1.48-5.39.9-1.45-.41-2.54-1.4-3.6-1.8l-.65-1.06c1.36-1.39,1.28-3.13-.25-5.23-2.83-5.64-3.18-14.55-3.2-21.26-.03-9.83,1.67-19.25,3.43-28.86l-1.13-1.97c.46-2.35.97-4.76.91-7.18,1.71-.22.25,1.69,1.4,2.74,3.48,3.19,3.42-6.37,4.03-8.53.75-2.65,2.46-6.68,3.54-9.48-.85-1.65.57-1.9,1.8-.9Z"/>
  <path class="cls-63" d="M608.2,347.85c-1.59-16.36-3.17-33.41-1.1-49.2l2-1.1c3.02.15,8.08,3.71,8.8,6.93,1.18,5.25.8,28.69.23,34.88-.58,6.3-3.84,8.48-9.93,8.49Z"/>
  <path class="cls-69" d="M170.45,77.51c4.5-3.52,13.24.52,17.83,3.72l1.04-1.02c.41-3.36,5.31-2.52,7.52-2.17s1.67-1.81,1.47,2.17c-.64,3.78-.26,4.86-1.8,8.98-.44,3.1-1.64,5.5-3.6,7.19.76-2.22-1.81-2.34-2.63-1.75-.4.29-.5,3.07-1.09,3.42-.38.23-7.41.88-8.87,1.02-1.66-.37-1.49-1.06,0-1.8-.82-1.49-2.02-2.09-3.6-1.8.84,2.36.84,3.56,0,3.59-4.34-2.72-.27-8.8-.97-11.11-.58-1.94-5.93-1.56-6.94-4.78-1.43-4.55,1.61-5.34,1.61-5.66Z"/>
  <path class="cls-48" d="M609.1,297.56c0,.58-.94,2.32-.94,3.98.05,15.44.04,30.89.04,46.32-.9,0-1.8,0-2.7,0-2.8-2.01-5.62-2.8-6.24-6.79-.99-6.35-.9-29.32-.09-35.91.54-4.39,5.94-7.8,9.93-7.6Z"/>
  <path class="cls-40" d="M608.2,241.87c-.34-.17-.73-.88-.9-.9-2.1-2.24-13.35.01-14.34-.95-1.03-3.7-.45-8.14-1.36-11.66-.59-2.26-5.04-8.8-7.66-8.06l1.79-1.78-7.19-.91c7.16.11,16.17-1.6,22.02,2.7,9.06,6.66,7.37,11.53,7.65,21.55Z"/>
  <path class="cls-252" d="M312.47,217.62l-6.21,8.61-.98,5.76c-.61,1.14-2.56.66-3.6,0-.03,2.53-8.21,5.84-10.89,6.58l-1.69-1.19c-.95-5.95.97-12.37,5.85-16.16,5.7-4.44,10.92-3.41,17.53-3.6Z"/>
  <path class="cls-95" d="M284.61,240.07c1.72-.03,2.61,1.16,2.7,3.59,2.19,1.83,3.38,10.48-.9,9.88-2.29-.45-6.95-4.33-6.29-6.29l-1.76-1.08c-.6-3.76-5.11-9.24-9.03-10.59-1.81-.04-3.61-.93-5.39-2.69-1.84,1.79-7.23-2.5-6.29-4.49-2.04.47-2.36-.29-.9-1.8,14.05.22,20.52.93,27.87,13.47Z"/>
  <path class="cls-230" d="M353.82,217.62c-.02.91-.87,2.9-.94,4.89-.18,5.58-.5,12.27.94,17.56-2.99.02-6-.05-8.99,0,1.49-6.86,1.49-15.59,0-22.45.3,0,.6,0,.9,0,2.69-.01,5.4.01,8.09,0Z"/>
  <path class="cls-170" d="M138.09,173.61c1.04.84,3.26,3.29,4.49,4.49,5.4,5.29,8.05,10.82,12.22,16.12,2.96,3.77,4.8,3.67,6.66,8.13-12.05-9.41-24.89-20-31.46-34.13,2.48-.15,6.3,3.22,8.09,5.39Z"/>
  <path class="cls-87" d="M103.93,31.7c-4.02,4.63-8.37,12.81-8.99,18.86-.26.78-.56.77-.9,0,.38-2.1-.86-2.03-2.7-1.8,0-1.79-.88-2.51-.9-2.69-1.28-2.22-1.57-4.31-.9-6.29-1.18-3,.06-5.97,1.85-8.33.84-1.11,4.05-4.01,4.45-2.45,2.07-.36,6.36,1.32,8.09,2.69Z"/>
  <path class="cls-45" d="M50.89,55.05c-1.47,4.53-5.16,13.27-4.49,17.96.8.22.78.52,0,.9-.73,2.91-2.44,8.06-2.7,10.78-1.14,3.35-2.2,10.5-.99,16.02l-.81,1.04-.9,2.24c-1.4-4.96-.02-9.9-.09-14.27-.04-2.49-1.12-5.33-1.71-7.73-.48-1.18-.37-2.37.9-2.69-.43-1.5-.64-3.96.9-4.49.05-.59-.07-1.21,0-1.8.52-2.98,1.42-5.38,2.7-7.19-.45-3.05.15-4.84,1.8-5.39-.97-2.05,1.58-8.85,4.49-8.08,1.23-.78,1.53.12.9,2.69Z"/>
  <path class="cls-246" d="M306.18,232.89c2.91.73,7.13,3.86,9.89,5.39.81,3.22-3.92,4.34-4.49.9-2.1.83-4.51.57-7.22-.78l-13.98,6.55c-1.32.61-2.29.03-3.07-1.28-3.01-.07-1.84-2.13-2.7-3.59,1.4-.69,3.25-2.1,4.49-2.69,3.33-1.58,9.26-4.31,12.58-5.39l4.49.9Z"/>
  <path class="cls-188" d="M584.83,246.36c.98.82.9,1.9.96,3.04.67,11.6-.63,23.92-.07,35.59h22.48c.04.88-.58.83-1.3.92-6.74.86-15.13-.68-22.07-.02-1.49-12.63-1.5-26.85,0-39.52Z"/>
  <path class="cls-128" d="M405.06,148.46c-.21,6.26.28,12.61,0,18.86-2.06-5.44-.36-12.21-.9-17.96h-56.63c-.2-1.58,2.03-.85,3.14-.9,18.07-.75,36.32.56,54.39,0Z"/>
  <path class="cls-229" d="M196.51,89.18c.6,4.54-3.62,8.74-3.52,12.93.21,9.04,16.55,22.17-4.56,20.31.32,2.72,1.49,4.56-.94,6.7-.53.47-1.59.31-1.76.48-.78-.25-.77-.55,0-.9,3.23-.94.72-6.36,2.64-7.71,1.58-1.11,8.74,2.26,9.89-1.85.85-3.03-8.74-12.03-5.34-22.77.63-1.99,2.83-5.13,3.6-7.19Z"/>
  <path class="cls-285" d="M119.21,104.45c-.76,1.56-2.09,2.76-3.6,3.59-1.29-2.88-6.78-6.65-9.02-9.43-.64-.79-.63-1.93-.87-2.24.05-1.61.69-3.27,2.72-2.27,2.58,1.27,6.31,10,10.76,10.36Z"/>
  <path class="cls-39" d="M144.38,141.28c1.8,1.12,3.6,2.32,5.39,3.59.61.79,1.72.44,1.8,2.69.06,2-1.51,4.01-1.8,5.39-.64,2.34-1,2.34-1.8,0-.78-2.25-4.67-8.42-6.29-12.57-1.06-1.25-.6-1.74.9-.9.62.57,1.19,1.21,1.8,1.8Z"/>
  <path class="cls-162" d="M174.04,16.43c-3.58-.61-9.15-1.58-12.58-1.8-7.99.7-16.22.5-24.27,0-.89.04-1.81-.07-2.7,0,12.52-3.38,27.27-1.89,39.55,1.8Z"/>
  <path class="cls-68" d="M49.1,45.17c.44,2.95,1.65,2.12,2.7,2.69.88,1.69.19,4.31-1.8,4.49-1.34,2.42-3.43,5.57-4.49,8.08-1.21,2.2-2.26,1.4-1.8-.9,1.75-5.86,2.81-8.83,5.39-14.37Z"/>
  <path class="cls-147" d="M86.85,112.53c-.26.78-.56.77-.9,0-.1-1.71-.89-3.36-.9-3.59-.74-10.74-.74-21.52,0-32.33.02-.16.68-1.3.9-2.69.26-.78.56-.77.9,0,0,3.56-.9,7.81-.9,10.33v17.07c0,2.93,1.02,7.23.9,11.23Z"/>
  <path class="cls-126" d="M95.84,29.01c-3.04.53-6.18,8.09-6.29,10.78-.26.78-.56.77-.9,0-1.06-.75-1.36-2.24-.9-4.49-2.5-.04-4.6-.64-6.29-1.8-.78-.25-.77-.55,0-.9,1.02-.32,1.44-3.03,3.1-2.68.88.18,4.02,5.2,5.89,3.57.38-.33-.83-1.69-.77-2.25.07-.6,5.68-1.55,4.37-4.93.67.71,2.06.85,1.8,2.69Z"/>
  <path class="cls-112" d="M98.54,77.51c.65-.19,1.52-.35,1.81.1.37.58,5.86,11.71,6.1,12.36l-.71,1.91-1.8,1.8c-.75-1.12-1.68-1.86-2.7-3.59.05-1.17-.55-2.67-1.8-4.49-2.01-3.37-1.62-4.13-2.7-7.19l1.8-.9Z"/>
  <path class="cls-109" d="M183.03,256.24c-2.13-4.31-.22-10.12-.95-14.76-.59-3.76-5.5-7.7-3.54-11.28,5.56,11.7,5.57,12.98,4.49,26.05Z"/>
  <path class="cls-132" d="M185.73,128.7v.9c-.31.31-.62.54-.9.9-1.52.23-10.42-.51-10.79-.9-.18-.19.11-1.96,0-2.68,3.95-.22,7.98.42,11.69,1.79Z"/>
  <path class="cls-237" d="M592.02,378.39c5.38.05,10.8-.03,16.18,0,2.82.01,6.92-.74,8.99.9-.3-.02-.6.03-.9,0l-.68,1.15c-1.82-.6-3.99-.98-6.51-1.15-.3,0-.6,0-.9,0-7.27,2.65-16.14,2.8-23.37,0-.26.78-.56.77-.9,0-1.52-1.04-.99-1.87.9-1.8,1.63-1.44,6.43-1.45,7.19.9Z"/>
  <path class="cls-59" d="M183.93,132.29c3.9,4.83-2.24,6.44-3,8.29-2.19,5.34,2.02,11.42-6.88,12.37,7.34-3.22,4.03-7.73,5.56-12.86.59-1.98,3.19-2.16,3.88-3.32.94-1.58.15-3.24.45-4.48Z"/>
  <path class="cls-238" d="M94.94,52.36c.62,5.66.76,11.4,0,17.07v3.59c-1.77-8.06-2.35-14.18-.9-22.45h.9c-.06.59.03,1.2,0,1.8Z"/>
  <path class="cls-68" d="M56.29,34.39c-.15,2.79-2.35,5.87-3.98,8.19-.98,1.39.13,2.5-2.32.79,2.49-4.81,3.26-5.66,6.29-9.88.78.25.77.55,0,.9Z"/>
  <path class="cls-45" d="M43.7,84.69c-.11,1.18.08,2.41,0,3.59-.84,4.13-.93,8.44,0,12.57.6.13.55.45,0,.9.97.94,1.4,2.22,0,2.69.11,4.4-1.55-.41-1.8-2.69-.61-5.51.09-12.04.91-17.51l.89.45Z"/>
  <path class="cls-215" d="M59.88,28.11c2.97,3.42-.83,6.02-1.81,8.97l-1.79-2.69v-.9c1.21-1.68,2.09-3.66,3.6-5.39Z"/>
  <path class="cls-167" d="M256.74,226.6c.35.5.53,1.43.9,1.8.73,2.71-.72,1.95-2.7.9-.68-.66-2.18-1.17-2.7-1.8-1.06-1.28-2.07-2.67-1.79-4.49,2.67-.37,2.8,3.12,4.47,4.05.84.47,1.54-.47,1.81-.46Z"/>
  <path class="cls-66" d="M43.7,65.83c-.84,2.32-.94,5.26-2.7,7.19.48-4.26.53-5.96,1.8-10.78,1.16-.28,1.46.91.9,3.59Z"/>
  <path class="cls-206" d="M78.76,121.52h.9c-3.16,2.34-9.75,1.59-13.48.9v-.9c4.11-.79,8.45-.77,12.58,0Z"/>
  <path class="cls-9" d="M112.02,156.54c.61.26.6.56,0,.9-3.35-1.37-8.16-2.28-11.69-3.59.59-.6,1.22-1.2,1.8-1.8,2.82,2.27,6.62,3.12,9.89,4.49Z"/>
  <path class="cls-37" d="M45.5,60.44c-.52,1.23-1.2,3.74-1.8,5.39l-.9-3.59c.3-1.13.65-1.86.9-2.69l1.8.9Z"/>
  <path class="cls-30" d="M245.05,218.52c1.86,1.13,3.72,2.11,4.5,4.93-1.97,1.6-3.6-2.38-4.5-3.13-1.55-1.21-1.55-1.81,0-1.8Z"/>
  <path class="cls-263" d="M46.4,492.46c0-3.96-.76-9.19.9-12.57,0,3.96.76,9.19-.9,12.57Z"/>
  <path class="cls-10" d="M245.05,218.52v1.8c-.86-.71-4.12-1.19-4.49-3.58,2.94-.94,3.46,1.16,4.49,1.79Z"/>
  <path class="cls-109" d="M183.03,258.93c-.17,2.17-.56,5.37-1.8,7.19.3-2.99-1.03-6.88,1.8-8.98-.05.59.05,1.2,0,1.8Z"/>
  <path class="cls-111" d="M149.77,152.95c-.32,1.52-.55,2.96-.9,4.49l-.73-.63c-.53-1.11.11-3.05-.17-3.86h1.8Z"/>
  <path class="cls-276" d="M85.95,119.72c-.67-2.11.14-4.73,0-7.19h.9c-.07,2.4.74,5.29-.9,7.19Z"/>
  <path class="cls-2" d="M45.5,105.35c-.21.35-.61.61-.9.9-.2-.74-.87-1.59-.9-1.8-.13-.83.07-1.82,0-2.69.26-.78.56-.77.9,0,1.59-.48,1.74,2.28.9,3.59Z"/>
  <path class="cls-88" d="M89.55,56.85c-2.72-1.95.49-4.32.9-5.39.17,1.89-.51,3.61-.9,5.39Z"/>
  <path class="cls-156" d="M101.23,90.08c-.86-1.46-2.04-2.49-1.8-4.49.45.76,2.98,1.93,2.66,4l-.87.49Z"/>
  <path class="cls-283" d="M41.01,74.81c-.1,1.19-.62,3.15-.9,4.49-1.15,1.16-1.45.66-.9-.9.36-2.09-1.14-4.17,1.8-3.59Z"/>
  <path class="cls-283" d="M40.11,79.3c-.19.95-.36,1.87-.9,2.69-.04-.14-.87-.49-.95-1.4-.12-1.3.9-1.9.95-2.19l.9.9Z"/>
  <path class="cls-257" d="M86.85,69.42c0,1.5,0,2.99,0,4.49h-.9c.26-1.64-.19-3.67,0-5.39,1.02-.16.83.9.89.9Z"/>
  <path class="cls-85" d="M305.28,462.82l1.77,1.15c1.16,1.21,24.14,1.29,27.95-.21l2.65,1.76,2.24-.44c5.54,4.35,13.36,4.53,18.88.05l2.25.39,2.95-1.56,10.68.24c3.4-.93,6.65-.48,9.75,1.33-.22-1.07.68-1.07,2.7,0,.76,10.34.74,21.9,0,32.33-27.55,0-55.15,0-82.7,0-.67-.01-1.48-.1-1.78-.65-.83-1.5.53-30.12.86-34.27l1.82-1.01c.79.22.77.52,0,.9Z"/>
  <path class="cls-85" d="M592.02,497.85c-27.25,0-54.55,0-81.8,0-.5-.12-.88-.26-.9-.42-.82-8.96-.37-22.1,0-31.31,0-.21.4-.41.9-.6.81-1.07,2.62-1.82,2.7,0,6.42-1.62,13.24-2.27,20.47-1.93l2,1.93,1.99-1.16c6.06,5.44,13.56,5.17,20.03.57l2.25.59c.5-.76,1.26-1.28,2.28-1.57l28.16.21c.3-.79,1.13-1.09,1.93-1.33-.78-.25-.77-.55,0-.9v35.93Z"/>
  <path class="cls-85" d="M396.07,465.51l1.84.89c-.15,10.05,1.42,11.8,11.38,12.09,28.13.13,56.45-.05,84.55-.54,4.6-.08,5.69-7.05,5.59-10.7l1.82-1.74c.43-2.12,6.54-2.02,7.19,0,.5.14.89.27.9.42.29,10.18.29,21.12,0,31.31,0,.21-.4.41-.9.6-40.13,0-80.32,0-120.45,0-.76-10.34-.74-21.9,0-32.33.57-2.14,7.28-2.05,8.09,0Z"/>
  <path class="cls-141" d="M297.19,458.33c1.1-.81,2.44-.51,4.01.92,10.42.58,20.84.58,31.27,0l1.58.88c2.37-.39,2.63.11.9,1.8-.26.78-.56.77-.9,0-9.05.75-19.53.74-28.76,0l-.9,35.93c-2.99,0-6,0-8.99,0l-.04-31.92,1.84-7.6Z"/>
  <path class="cls-80" d="M142.58,497.85c-.9,0-1.8,0-2.7,0,1.54-4.27,8.08-43.99,10.34-43.99,1.51,0,1.2,2.71,1.13,3.78-.86,12.22-7.4,27.61-8.77,40.21Z"/>
  <path class="cls-263" d="M48.2,497.85l.91-30.97c.05-1.72,2.07-2.37,2.5-3.79.59-1.89-1.01-5.84,1.52-5.66l-1.34,40.42c-1.2,0-2.4,0-3.6,0Z"/>
  <path class="cls-101" d="M510.23,465.51v32.33h-1.8v-32.33c.26-.78.56-.77.9,0h.9Z"/>
  <path class="cls-71" d="M387.98,497.85h-.9v-32.33c.26-.78.56-.77.9,0v32.33Z"/>
  <path class="cls-170" d="M127.3,285.88c7.46-5.86,17.03-8.85,24.78-14.38-5.6-23.09-13-46.43-22.21-68.57-.04-2.39-9.52-15.22-8.86-15.84,3.29-3.12,11.26,14.36,12.1,16.19,10.1,21.97,15.62,46.95,22.88,69.92-3.02,1.49-5.85,3.17-8.92,4.6-5.12,3.61-10.52,6-16.18,7.19-1.46,1.12-2.66,1.42-3.6.9Z"/>
  <path class="cls-259" d="M147.08,278.69c3.18,5.29,14.47,32.95,19.43,33.93.79.15,5.82-1.29,7.53-1.6,19.17-3.39,38.37-7.31,57.53-10.78-.1-1.68,1.11-1.41,1.8,0,1.33-1.69,4.95-1.34,7.19-.9-.13-2.51,1.12-2.8,2.7-.9,6.42-.96,12.11-3.35,17.08-7.19-1.16-2.21,3-7.92,5.39-6.29.86-1.68,2.66-3.59,4.49-3.59l1.43,1.61c-.37,3.5-8.15,10.68-11.32,11.86,1.91-3.72,4.96.28,3.14,3.11-2.63,4.08-8.63.59-3.14-3.11-1.18,3.16-3.9,5.02-8.16,5.57l-13.18,2.43c-.26,2.09-1.15,3.28-2.69,3.59-22.09-2.53-44.97,3.34-65.93,9.53-3.01,1.02-5.99.49-8.36-1.72-6.3-9.85-11.68-19.92-16.1-30.66l-10.62,3.61-1.72-1.34c-.13-.52-.21-.95-.08-1.02,4.18-2.39,9.19-4.59,13.56-6.16Z"/>
  <path class="cls-79" d="M98.54,301.15c-1.03.34-2.82,3.49-4.92.87l-24.74-58.35c1.47-1.63,4.05,4.45,4.36,5.07,8.07,15.94,14.14,34.28,21.79,50.55l5.31-.84c1.63,1.26,1.03,2.16-1.8,2.69Z"/>
  <path class="cls-32" d="M115.61,324.5c3.41-3.9,5.76,3.02,5.93,6.54,3.53-1.09,3.84,1.24,3.23,4.16.37,2.35,15.45,21.82,18.12,23.79,3.28,2.42,13.1,4.59,13.62-.36-1.22,2.99-11.31,2.67-13.03,0-2.39-.29-2.28-1.11,0-1.8-.63-2.59,13.48-2.17,14.48-1.8l1.25,1.8c1-1.28,2.76-1.11,5.28.49,6.76-.65,13.42-2.67,19.98-6.07l2.16,1.09c.78.25.77.55,0,.9-3.05,1.2-8.2,4.48-10.79,5.39-5.87,2.07-20.64,6.4-26.29,6.07-12.64-.74-25.69-23.85-31.24-33.91l-2.7-6.29Z"/>
  <path class="cls-31" d="M130.9,284.98c-.23,1.48-1.73,2.68-4.49,3.59-2.15,1.57-4.6,3.01-7.19,3.59-4.94,2.97-10.08,5.7-15.43,8.2.14,1.6-.49,1.97-1.65.78-.53.31-2.74-.28-3.6,0,.65-.69,1.17-2.17,1.8-2.69,4.42-3.71,20.7-9.79,26.97-12.57,1.04-.46,2.57-.45,3.6-.9Z"/>
  <path class="cls-91" d="M121.01,292.17l-.62,2.39c-4.56,2.93-9.38,5.29-14.47,7.08,3.18,7.17,6.75,14.16,10.71,20.96l-1.01,1.9c.94,1.78,1.82,4.7,2.7,6.29l-16.18-29.64c4.42-2.58,11.24-7.47,17.08-8.98.71-.36,1.31-.36,1.8,0Z"/>
  <path class="cls-256" d="M138.09,173.61c-1.81-1.46-5.82-3.8-8.09-5.39-5.61-3.92-11.62-8.18-17.98-10.78v-.9c8.22,3.46,16.45,8.07,23.5,13.79,1.19.97,2.62,1.25,2.57,3.27Z"/>
  <path class="cls-65" d="M147.08,277.8v.9l-13.48,7.19c.28,2.72-4.69,4.91-6.29,2.69h-.9l4.49-3.59c5.37-2.36,11.02-4.78,16.18-7.19Z"/>
  <path class="cls-43" d="M352.02,256.24c1.57.35,18.43,8.49,18.86,9.45.31.69.28,1.68-.52,2.29-2.07,1.59-9.18,4.1-12.04,5.32-2.37-.29-4.75.99-6.29,2.69.77,2.43-1.34,3.02-2.7.9-1.57.24-3.07.54-4.49.9-5.38,3.76-11.37,6.46-17.98,8.08-1.61,1.59-3.7,3.09-6.29,4.49,1.26,1.41.78,1.9-.9.9-2.36,2.66-11.69.41-13.48-2.69.22-1.42.82-2.62,1.8-3.59.31-2.3,2.24-4.09,5.78-5.38l38.67-17.7c-2.6-.81-3.93-2.1-4-3.86-2.97-2.8,3.13-6.11,3.6-1.8Z"/>
  <path class="cls-242" d="M331.35,240.97c3.86,1.86,7.83,4.27,11.69,6.29,2.67-1.64,9.79,2.65,10.79,5.39-.07,1.52,2.12.64-1.8,3.59-2.18-.49-2.18-.85-3.6,1.8-1.52,2.03-5.08,3.57-7.76,3.08s-22.45-10.87-25.88-12.83c-5.73-2-13.54-8.66-3.22-9.12,3.32.76,2.43-.26,4.49-.9,1.73-.54,4.05-1.88,5.63-1.65.8.11,8.1,3.6,9.65,4.35Z"/>
  <path class="cls-102" d="M352.92,276c.28.02,1.65,1.3,2.69.91.39,1.48-1.56.41-1.81,1.47-.37,1.53.43,7.1.03,7.51-.35.35-7.49-.25-9-.01.68-1.68.51-4.01-.9-5.38-1.2-1.08.45-2.2,1.8-1.8.36-1.28,2.31-2.25,3.6-1.8.39-.15,2.55-.89,2.7-.9.16-.82.47-.78.9,0Z"/>
  <path class="cls-186" d="M351.12,244.56c4.13,1.49,1.71,1.33,2.15,2.96.26.97,1.11,1.58,1.21,2.72.07.76-.63,1.7-.66,2.4-3.97-.97-7.25-3.54-10.79-5.39.6-4.07,4.71-2.6,8.09-2.69Z"/>
  <path class="cls-58" d="M344.83,277.8c1.51-.58,1.73-.56.9.9-.55.24-1.25,1.56-1.8,1.8-4.48,1.92-8.88,3.27-13.48,5.39-.61.28-1.2.6-1.8.9-1.57.35-2.17.05-1.8-.9,6.23-3.41,11.46-5.4,17.98-8.08Z"/>
  <path class="cls-92" d="M358.31,273.31c-1.8.77-3.82,1.53-5.39,2.69-.29-.02-.61-.02-.9,0l-.9-1.79c2.52.46,5.54-3.23,7.19-.91Z"/>
  <path class="cls-248" d="M280.11,379.29c2.26-.55,9.53-1.17,10.94.36.88.96-.17,22.96-.39,26.05l-1.56,1.43c3.35.37,6.65.67,9.89.9h94.38c.18-.82,1.1-.44,1.8,0,.26-.78.56-.77.9,0,1.97.88,1.68,1.56,0,2.69.11.28-.14.76,0,.9,34.14.34,68.6.64,103.37.9v8.99s-198.65.89-198.65.89c-6.22.25-12.51.55-18.88.9h-1.8v-44.01Z"/>
  <path class="cls-277" d="M521.01,429.59h83.6v21.11c0,3.39-5.1,9.44-8.75,10.12-9.76,1.81-23.31-.9-33.5.21-2.24-1.23-1.47-3.2.9-3.59-.56-2.34-.5-4.84,0-7.19l-2.07-.76c-6.26-17.04-32.05-9.64-27.16,8.66l-1.34,1.98c-.29,1.11-12.22,1.98-12.36,1.35-.12-10.65-.26-21.18-.42-31.58l1.09-.3Z"/>
  <path class="cls-273" d="M292.7,424.2c103.78,0,207.6.01,311.39-.02.83.13.71,3.03.52,3.61-68.61.59-137.23.75-205.85,0-1.17.66-2.4.66-3.6,0-.93-1.49-3.41-.89-4.93-.91-32.08-.4-64.18.26-96.26.09-1.72.3-1.17-1.8-1.28-1.87-.78-.25-.77-.55,0-.9Z"/>
  <path class="cls-7" d="M563.26,450.24c-.43,2.36-.55,4.83,0,7.19-.22,1.52-.34,2.15-.9,3.59-.1.27.11.66,0,.9,1.02,1.67.12,2.87-2.7,3.59-5.1,3.89-10.64,5.79-17.11,4.07-2.41-.64-5.09-3.68-7.16-4.07-1.97-.62-2.86-1.76-1.8-3.59-1.6-.4-2.45-.74-.9-1.8-7.12-24.1,25.95-29.87,30.56-9.88Z"/>
  <path class="cls-143" d="M300.79,422.4c103.45-.1,207.13-1.3,310.58-.02,1.52.02,4-.58,4.93.91-111.45,0-222.94,0-334.39,0,5.73-1.66,12.82-.89,18.88-.9Z"/>
  <path class="cls-224" d="M604.61,427.79c-.44,1.33-1.2.82-2.2.94-24.84,3.04-55.9-2.36-81.4-.04-.51,1.72-1.29,1.72-1.8,0-5.97,1.77-12.01,1.76-17.98,0-.17.8-.47.77-.9,0-.51,1.72-1.29,1.72-1.8,0-33.25,2.26-66.53,2.24-99.78,0-.78-.25-.77-.55,0-.9,68.6-.02,137.25.02,205.85,0Z"/>
  <path class="cls-223" d="M501.24,428.69c.71.19,1.77.51,1.8,1.05.52,9.01.52,20.95,0,29.96l-1.8,1.32,1.03-1.8h15.66l1.29,1.8c-.71-.19-1.76-.5-1.8-1.05-.26-3.93-.69-27.93,0-29.96l1.8-1.32c.6,0,1.2,0,1.8,0v.9c-1.28,1.16,0,3.13.04,4.9.21,8.83-.23,17.71-.04,26.54l11.69-.9c.07.24.66,1.32.9,1.8-.26.78-.56.77-.9,0-3.82.77-7.86.79-11.69,0,0,2.42-2.15,2.34-2.7,0-1.2.71-2.1.71-2.7,0-4.74.69-9.64.72-14.38,0-1.26,1.19-1.73.69-.9-.9l-.88-31.73.88-.6c.3,0,.6,0,.9,0Z"/>
  <path class="cls-258" d="M592.02,461.92v.9c-3.77,1.38-27.94,2.47-29.8,1.3-.61-.39-.36-1.41.14-2.19h29.66Z"/>
  <path class="cls-204" d="M292.7,424.2v.9c-1.39-.92-8.88,1.35-11.69-.9h11.69Z"/>
  <path class="cls-217" d="M150.67,58.64c-.81,2.25-2.74,9.11-2.73,11.21,0,1.35-.58,2.64,1.37,2.26,3.87-3.34,6.63-7.78,10.34-11.23,2.23-2.07,11.91-10.41,13.96-11.21,1.15-.45,1.66.17,1.33,1.32l-12.58,13.92c9.54-1.11,18.72-6.06,23.38-14.36.96-.67,3.43,6.3,3.58,7.18.91,1.24.67,3.85,0,5.39l-1.8,3.59c.09-1.18,0-2.4,0-3.58-2.39.91-7.21-1.8-8.57-1.66-1.66.17-.16,5.49-5.77,6.67-3.15.66-4.5-.6-6.69-.45-2.34.17-8.79.65-10.48,1.21-3.47,1.16-1.98,3.9-3.94,5.96-1.77,1.87-3.84.79-3.99.94-.8.78-.5,4.23-1.91,5.72-.21.23-5.08,3.11-5.39,3.15-1.55-.66-1.66-1.43,0-1.8.87-.24.85-1.04.9-1.8-.48-1.46-.9-3.23,0-4.49,1.37-3.42,1.16-6.83,2.53-10.49,1.21-3.24,3.31-5.83,5.56-8.37,1.26-1.19,1.73-.69.9.9Z"/>
  <path class="cls-38" d="M133.59,78.4l-3.48-15.83c.29-3.85-2.24-11.86,3.48-11.11v13.02c0,3.9,3.49,12.04,5.39,15.72,1.63,2.95.78,3.76-1.8,1.8-1.31-1.29-1.79-2.56-3.6-3.59Z"/>
  <path class="cls-226" d="M189.32,80.2c-.02.2,2.29,4.75-.44,3.59-.65-.28-1.73-1.89-2.86-2.54-4.91-2.81-9.84-4.28-15.58-3.74,0-.14-1.41-1.56-.89-2.69,6.98-.51,14.14,1.18,19.77,5.38Z"/>
  <path class="cls-272" d="M128.2,105.35c1.66-.06,4.99-2.14,5.94,1.74,1.72,7.03-10.67,6.35-6.84-1.74.19-.64.49-.6.9,0Z"/>
  <path class="cls-129" d="M128.2,105.35c-.3.01-.6,0-.9,0-4.84-.03-5.07-6.27-6.28-5.38l-.91,1.79c.15-2.16-.71-4.17-.9-6.29,4.4-.13,6.78,6.68,8.99,9.88Z"/>
  <path class="cls-115" d="M149.77,144.87c-3.21.56-3.81-2.08-5.39-3.59,2.97-.37,3.89,1.64,5.39,3.59Z"/>
  <path class="cls-291" d="M140.78,82.89c.14.47-.09,1.23,0,1.8-2.27.26-2.57-1.68-3.6-2.69,1.42-.9,2.12,1.07,1.8-1.8.41.79,1.39,1.32,1.8,2.69Z"/>
  <path class="cls-61" d="M176.74,95.47c1.36-.38,2.55.21,3.6,1.8-.13.49.09,1.23,0,1.8-1.22.11-1.48,1.33-3.6,0,.17-1.09-.25-2.64,0-3.59Z"/>
  <path class="cls-280" d="M142.58,139.48l-.9.9c-.19-.49-2.22-2.35-1.8-2.69,1.93-.56,1.89,1.05,2.7,1.79Z"/>
  <path class="cls-216" d="M98.54,77.51c-.51-1.93-1.57-8.99-1.79-11.24-.32-3.36.2-6.94,0-10.33h2.69c.17,8.6,1.25,20.77,5.21,28.49,1.14,2.23,4.24,4.52,4.7,6.98.47,2.53-2.76,1.13-3.61.46-1.71-1.34-6.54-11.9-7.19-14.37Z"/>
  <path class="cls-270" d="M163.25,44.28c2.29,2.4-8.84,9.28-9,11.66l-2.67-1.81c-.53-.87,10.25-11.35,11.67-9.86Z"/>
  <path class="cls-176" d="M161.46,14.63c-.93,1.49-3.41.9-4.93.91-6.19.06-13.48.67-19.34-.91,7.42-.34,16.91-.47,24.27,0Z"/>
  <path class="cls-212" d="M94.94,69.42c0-5.58-.31-11.56,0-17.07,1.51,4.89,1.5,12.24,0,17.07Z"/>
  <path class="cls-21" d="M189.32,57.75l.9-.47v8.1c-1.34,1.51-.88-1.69-.9-2.24-.05-1.68.26-3.89,0-5.39Z"/>
  <path class="cls-82" d="M141.68,76.61c.07,1.45.09,3.05,0,4.49-1.82-1.65-.61-4.99-.89-7.18h.88c.05.89-.03,1.8,0,2.69Z"/>
  <path class="cls-108" d="M150.67,58.64l-.9-.9c.77-.88,1.29-2.45,2.69-2.69.66,1.75-1.47,2.7-1.79,3.59Z"/>
  <path class="cls-211" d="M280.11,247.26c.69,1.9.47,2.88-1.8,2.69,1.44,2.37-2.44,4.03-4.49,2.69-.85,3.16-1.87,4.93-5.39,5.39-3.11,2.91-9.84,7.1-14.21,7.97-.29.06-.67-.31-1.07-.79-1.52-1.8-.31-2.02,1.15-2.89,2.17-1.29,4.77-1.7,6.98-2.91,5.1-2.81,6.02-5.32,9.84-9.02,1.23-1.19,7.38-3.83,5.4-5.83-3.17-3.21-27.11,14.31-24.26-3.6h2.69c-1.05,10.92,9.75,2.54,14.38.9l.58-1.45c-1.7-1.07-2.19-2.38-1.48-3.94-1.24-1.11-.7-1.35.9-.9,2.01-1.32,2.79-1.09,4.56.38.54.45,5.06,6.67,5.76,7.75.8,1.24.21,2.98.47,3.54Z"/>
  <path class="cls-150" d="M272.92,258.04c1.27,1.91.04,2.86-3.69,2.85-9.65,6.88-19,9.84-30.74,11.06-2.21,1.2-4.28,2.7-6.19,4.49l-2.51-.43c-1.05,1.54-1.88,1.01-1.8-.9-.89.29-1.19,0-.9-.9,10.5-4.9,15.16-5.89,26.07-8.98,6.01-1.71,10.3-3.24,15.28-7.19,2.67-1.87,4.17-1.87,4.49,0Z"/>
  <path class="cls-191" d="M227.98,275.1l.26,2.37c-4.36,4.3-10.32,6.13-16.02,7.82,2.09.93,4.15,1.9,2.28,4.18-.53.57-1.43.57-2.7,0-1.87-.94-3.43-1.63-5.39-2.69-.73-.6-1.03-1.2-.9-1.8,7.26-3.39,14.31-7.39,21.57-10.78.28.3.55.68.9.9Z"/>
  <path class="cls-14" d="M263.93,232.89c1.42.7,2.32,1.6,2.7,2.69,1.07,3.12-.68,2.9-2.7.9-.29.79-.59.78-.9,0-2.79-2.25-5.51-4.69-8.09-7.19l2.7-.9c1.7,1.71,4.48,2.98,6.29,4.49Z"/>
  <path class="cls-228" d="M268.43,236.48c1.4,1.3,2.71,3.72,4.49,4.94-.53,1.07-2.7.13-3.59.44-.85-1.29-2.61-1.79-3.6-2.69-2.55-.05-3.56-.45-1.8-2.69.86-.21,2.25.4,2.7-.9.7-.7,1.8-.09,1.8.9Z"/>
  <path class="cls-8" d="M265.73,239.18c-2.86.35-10.48,2.89-9.44-1.8,2.59.84,4.96-.6,6.74-.89.3-.05.63.07.9,0,.65.74,1.14,2.09,1.8,2.69Z"/>
  <path class="cls-27" d="M205.5,284.98l1.78,1.35-.88.45c-.65-.35-1.96-.3-2.7-.9.59-.28,1.18-.61,1.8-.9Z"/>
  <path class="cls-140" d="M75.16,60.44c2.44,0,2.96-.8,2.61,2.14-.91,7.65-3.24,15.34-3.54,23.42-.34,9.29,1.58,17.6,1.83,26.53,2.88,2.77.25,7.97-1.8,3.59-4.58-19.95-3.01-35.93.9-55.69Z"/>
  <path class="cls-145" d="M81.46,33.5c2.8-.2,4.66-.64,6.29,1.8.51,1.2.24,1.52-.9.9-2.97.5-5.96,1.1-8.99,1.8-12.51,5.52-15.95,21.53-19.78,33.23-.61-2.65-1.21-3.25-1.8-1.8,1.14-5.19,2.43-11.31,4.49-16.17.8-8.64,6.17-12.67,12.74-17.37,1.33-2.58,3.97-3.38,7.94-2.39Z"/>
  <path class="cls-177" d="M60.78,53.26c.09-2.58.15-6.99,1.1-9.26,1.61-3.83,9.94-5.69,12-9.62.99-1.89-3-3.61-.52-4.93,1.65-.88,2.21,2.85,3.34,3.17.65.18,4.15.17,4.75-.02v.9c-9.15.64-17.36,11.98-20.67,19.76Z"/>
  <path class="cls-283" d="M58.09,71.22c-.07,4.55-1.34,11.63-2.05,16.38-.22,1.44-.17,4.03-2.43,3.37-.72-7.38,1.13-14.44,2.69-21.55l.91-1.79h.88c0,1.19.03,2.39,0,3.58Z"/>
  <path class="cls-213" d="M46.4,73.02l3.59-3.59c-.51,3.13,1.83,9.68-2.69,9.87.58-2.04-.63-3.81-.9-5.38-.05-.29.04-.6,0-.9Z"/>
  <path class="cls-11" d="M76.96,118.82c-.57-.21-2.2.36-2.62-.06s.09-1.93-.08-2.63l1.79.9c-.01-1.49.05-3,0-4.49,3.35,1.6,3.33,3.69.9,6.29Z"/>
  <path class="cls-28" d="M45.5,105.35c.71-1.41-.84-3.06-.9-3.59-.95-3.27-.8-7.49,0-10.78.82,1.82,1.81,9.73,1.86,12.22.03,1.56-.54,1.45-.96,2.15Z"/>
  <path class="cls-45" d="M44.6,90.98c.27,3.47-.38,7.39,0,10.78h-.9c-.02-.3.02-.6,0-.9-.78-3.8-1.04-7.89,0-11.68.75.42.65,1.24.9,1.8Z"/>
  <path class="cls-283" d="M43.7,89.18c-.22,3.55-.24,8.14,0,11.68-1.5-3.01-1.52-9.38,0-12.57-.02.3.02.6,0,.9Z"/>
  <path class="cls-142" d="M78.76,121.52h-12.58c3.01-1.5,9.39-1.52,12.58,0Z"/>
  <path class="cls-126" d="M86.85,36.19c.78.3.78.6,0,.9-.91-.1-1.44-.03-1.8.9-2.22-1.69-4.69.25-7.19,0,3.18-1.4,5.12-2.43,8.99-1.8Z"/>
  <path class="cls-45" d="M50.89,55.05l-.9-2.69c.79-1.42,1.59-2.84,1.8-4.49,2.74,1.5-.32,5.39-.9,7.19Z"/>
  <path class="cls-96" d="M289.1,378.39c5.44-2.25,10.74-2.24,16.18,0,.53-2.86,6.03-2.48,7.19,0l2.36.73c3.37,6.16,9.17,10.51,15.57,13.15l.94,2.29,11.43,1.37,216.4-.04c10.92-.98,20.49-6.87,25.66-16.6,7.77.08,15.6-.11,23.37,0v3.59c.73,7.69,1.24,15.89,0,23.35-31.36.69-62.82.99-94.38.9-3.55.87-8.79.72-12.58,0-1.42-.52-2.09-2.28-2.01-5.28-33.57-.13-67.22-.17-100.94-.12.03,3.26-.7,5.36-2.22,6.3h-.9c-1.26-.3-2.45-.6-3.6-.9h-93.48c-2.47.94-6.19.67-8.99,0-1.16-3.56.99-26.86,0-27.85h-8.99c2.07-1.64,6.17-.88,8.99-.89Z"/>
  <path class="cls-184" d="M501.24,407.13c.82.09.77.4,0,.9-.09.83.51,2.57-.53,2.71l-104.64-.02c-.94-2.29,0-1.75,0-2.69,0-1.47-.43-7.96.52-8.1h102.41c3.16.32,2.35,4.7,2.25,7.2Z"/>
  <path class="cls-175" d="M609.1,408.03c-35.66.76-71.32.76-106.97,0h-.9c.03-.29-.01-.6,0-.9h12.58c32.13.1,63.59-.2,94.38-.9.89-2.69,0-18.93,0-23.35,2.06,7.93.34,16.96.9,25.15Z"/>
  <path class="cls-236" d="M609.1,408.03c.53,0,6.17-.7,4.94.9-35.65-.35-71.33.45-106.98.01-1.52-.02-4,.58-4.93-.91,35.63.29,71.34-.39,106.97,0Z"/>
  <path class="cls-221" d="M396.07,411.62h106.52c1.55,1.43-2.66.89-3.14.9-33.7.63-67.49-.51-101.21.05-1.22.2-1.47-.27-2.16-.95Z"/>
  <path class="cls-56" d="M616.29,379.29c-.4,12.98.54,26.1,0,39.08-.05,1.11.68,3.34-.9,3.13v-41.32c0-.33-5.76.84-6.29-.9,2.33.05,4.94-.23,7.19,0Z"/>
  <path class="cls-271" d="M594.72,290.37c-1.06,1.23-1.68,2.31-1.84,3.99-2.3,23.47.02,53.96-.04,78.09,0,1.73-1.35,3.91-.81,5.93-2.25-.02-5.7.7-7.19-.9l-.66-1.36c5.49-13.88.16-24.7-10.12-34.57-3.57.21-5.37-1.89-5.39-6.29-.81.09-1.81-.02-2.07-.71-3.28-8.92-5.23-13.93-15.97-16.3l-.84-1.86-1.78-1.93c-.44-33.22-52.9-19.49-62.79.44l-1.95.59c.45,2.69-2.88,3.62-4.49,1.8-.09.76-.69,1.35-1.8,1.8l-1.49,1.57c-4.62-1.56-8.02-1.18-10.19,1.12-1.57.69-2.25-.53-2.05-3.67-.71-1.8-24.42-1.57-27.7,1.3-1.63,2.7-5.98,3.77-8.91,3.27-1.13,3.03-2.23,3.86-3.28,2.48-2.18,3.11-9.67,4.03-11.09,1.18,1.97-6.47,1.52-11.05-2.71-16.23-3.08.79-6.93-3.26-6.29-6.29l-3.38-.51c-11.69-7.68-28.9-11.97-42.12-6.01l-2.15-.66c-1.84,1.01-2.89,1.12-1.8-.9.47-1.56,1.19-4.07-.31-4.9l1.21-.49c79.98.31,160.02,0,240,0Z"/>
  <path class="cls-271" d="M324.16,289.47c8.94-.34,20.91.86,30.56.9-.13,1.69.69,4.38-.9,5.39-1.41.06-2.08-.87-2.01-2.81l-4.25.14c.68,7.8-.14,15.8-1.82,23.32l-1.08,2.2c-8.39,2.75-14.21,9.88-15,18.69l-1.9,1.56c-.57,1.9-2.41,3.96-4.49,2.69-3.63,3.27-6.93,6.86-9.89,10.78l.79,2.55c-3.12,6.71-3.59,14.06-.8,20.96l-.89,2.54h-7.19c-.71-.08-1.78-.34-1.8-.84-.57-17.62-.34-36.59,0-54.33-.6-4.89,0-9.26,1.8-13.09-.2-3.46,4.97-7.88,8.22-9.9,8.04-2.23,9.92-4.82,5.65-7.78l.52-1.19c.7-.17.62-.47.9-.9,1.76-1.86,2.96-2.16,3.6-.9Z"/>
  <path class="cls-161" d="M326.85,285.88l1.8.9c-1.55.76-3.36.91-4.49,2.69-1.13.04-2.44.71-3.6.9,2.79-4.38,2.91-2.64,6.29-4.49Z"/>
  <path class="cls-135" d="M305.28,231.99c.14.06.4.85.9.9-.25-.06-2.87,2.14-4.49-.9,1.51-.49,1.99-.66,3.6,0Z"/>
  <path class="cls-155" d="M346.63,152.95l53.93-.9v15.27c-6.9-.92-51.45,1.58-53.93-.9-.48-4.73-.18-8.92.9-12.57,16.44-.78,34.61-.76,51.24,0,.78,3.41.75,8.05,0,11.68-15.85.78-33.4.76-49.44,0,.78.25.77.55,0,.9,16.19-.54,32.61-.69,49.26-.45.4-1.14.76-.9,1.08.45l-1.8-.78c2.42-1.55,1.63-9.3.6-12.12l1.2-.58c-.33,2.03-.96,2.46-1.34.45h-50.63c-.4,1.14-.75.9-1.06-.45Z"/>
  <path class="cls-247" d="M346.63,152.95h53.03v13.47h-50.34v-.9h49.44v-11.68h-51.24c-.5,3.97,1.12,9.14-.9,12.57-1.55-1.55-1.37-13.03,0-13.47Z"/>
  <path class="cls-133" d="M84.15,54.15c-.62,7.59-3.08,15.32-3.63,22.87-.76,10.42,1.83,21.47,1.82,31.91-2.61,2.92-4.38-12.63-4.48-13.93-1.07-14.88.56-29.25,4.48-43.55,2.55-6.3,3.32-1.72,1.8,2.69Z"/>
  <path class="cls-234" d="M88.65,39.78c.82.72.91,2.83,0,3.59l-4.49,10.78c.12-1.47-.07-3.01,0-4.49h-.88s-.91,1.79-.91,1.79c1.31-4.78,3.1-7.78,4.49-11.68.29-2.39,1.11-2.28,1.8,0Z"/>
  <path class="cls-17" d="M85.05,108.94l-.9.46c.16-10.99-.62-22.06.9-32.8.31,10.74-.42,21.6,0,32.33Z"/>
  <path class="cls-81" d="M90.45,46.07c-.3-.76-1.71-2.15-1.8-2.69-.19-1.1.19-2.49,0-3.59h.9c-.04,1,.71,4.59.9,6.29Z"/>
  <path class="cls-209" d="M180.33,97.27l-2.69.9-.91-2.7c.62-2.42,5-3.52,3.6,1.8Z"/>
  <path class="cls-137" d="M311.57,239.18l-3.59,2.71c-1.12,1.52,31.03,15.71,33.25,17.58,3.07.63,3.63-2.55,7.2-1.42,1.2.38,8.42,3.31,6.28,4.92-12.84,6.19-26.02,11.68-38.96,17.66-2.66,1.23-5.43,3.29-7.77,4.36.11,2.52-2.11,2.59-3.6.9-2.13.65-5.46.52-7.19-.9-1.68,1.82-2.31,1.56-1.8-.9-2.38-.73-3.28-1.63-2.7-2.69l.51-1.99c8.55-1.97,16.49-10.71.66-4.06-8.07.35-15.2,2.52-21.37,6.5l-2.27-.45c-1.31,1.13-3.35,2.42-4.49,3.59-2.2-1.28-1.68-3.01,1.56-5.2-1.09-5.73,1.89-5.89,6.26-4.83-.97-3.2-2.11-7.53,2.36-7.91l12.79,2.93c3.75.46,12.42,1.37,7.67-4.26.71-1.62.69-3.28-.08-4.98-.79-1.19-1.98-1.79-3.6-1.8-.94,2.59-2.88,1.77-2.7-.9-.57-1.09-1.47-1.99-2.7-2.69-1.31,1.06-1.79.53-.9-.9-.78-.25-.77-.55,0-.9,2.49-2.87-.59-6.67.9-9.88,4.57.11,12.4-6.36,16.84-7.04,2.06-.32,4.91,1.97,7.43,2.55Z"/>
  <path class="cls-47" d="M286.4,253.55v.9c-1.16,2.51-3.86,2.01-3.6-.9-2.28,1.29-3.94-1.68-4.49-3.59.25-.22.23-2.54,1.8-2.69.7,1.53,6.63,3.65,6.29,6.29Z"/>
  <path class="cls-83" d="M269.32,235.58c-.31.21-.56.66-.9.9-.4-.37-1.36-.51-1.8-.9-1.06-.93-2.01-2.12-2.7-2.69l5.39,2.69Z"/>
  <path class="cls-174" d="M88.65,39.78h-1.8c.21-.6-.13-1.88,0-2.69.05-.29-.05-.61,0-.9.05-.25.67-.61.9-.9,1.44,2.15.6,2.7.9,4.49Z"/>
  <path class="cls-134" d="M327.75,338.87c2.46,1.37,3.11,6.27.9,8.08l-.09,1.97c-4.39,4.07-2.86,7.6,4.58,10.6.82-1.35,1.12-1.06.9.9l2.88,1.39c7.37,12.88,19.57,21.36,34.32,23.46l2.36,2.09c4.05.6,7.78,2.01,11.69,3.59,2.39.29,2.28,1.11,0,1.8l-10.11.95c10-.47,19.96-.49,29.88-.06,6.56.75,13.22.77,19.78,0,15.26-.76,30.58-.7,45.84,0h44.05c1.93-.55,4.02-.85,6.29-.9.27-2.52,3.54-2.97,5.39-1.8.45-1.25,1.62-1.54,1.8,0,4.81,1.84,32.35,3.65,37.4.83.04-.02-.21-.38-.55-.83-5.58-.79-12.46-1.24-20.63-1.35l-1.84-1.34c-.83-2.15,4.97-1.65,4.69-1.67-4.3.54-7.36-.1-9.18-1.92,1.13-4.28,8.17-8.41,12.58-8.08,2.75-2.9,5.45-5.29,8.09-7.19,1.02.13,1.92.43,2.7.9,1.06,1.22.77,2.85-.89,4.9.33,3.98-.32,7.85-1.95,11.6,3.11-1.6,6.32-2.63,9.62-3.09,6.86,2.04,8.88,2.3,9.54-5.33,3.82-1.04,6.67-12.29,5.54-14.37-.21-.4-4.26-.09-4.84.96-7.67-2.82.16-5.79,4.36-6.76l-1.58-3.93c-1.78-2.68-3.29-5.42-4.53-8.23-2.31,1.02-5.08-2.71-2.7-4.49,11.31,9.2,17.57,21.1,10.79,35.93-.26.57-.61,1.24-.9,1.8-2.98,9.72-15.68,16.75-25.62,16.17-70.54.77-145,.83-215.73,0-3.4.32-7.59-.06-11.24-.9-7.89-2.83-15.41-8.38-18.88-16.17-4.13-9.26-3.5-17.15.9-26.05,2.94-3.94,6.23-7.53,9.89-10.78,1.17-.82,2-2.94,4.49-2.69Z"/>
  <path class="cls-117" d="M584.83,379.29c-3.2,10.99-15.16,15.94-25.63,17.05l-220.25.05c-2.98.39-5.1-.94-7.6-1.84,2.83.16,5.74-.24,8.58-.03,1.16.09,2.35.93,2.66.93h215.73c9.8,0,21.16-7.7,25.62-16.17h.9Z"/>
  <path class="cls-249" d="M270.22,281.39c8.22-7.11,13.04-5.57,23.21-7.79,2.19-.48,11.53-4.84,11.81-1.65-1.13,5.89-7.22,8.12-12.55,9.44-.3,1.06.6,1.96,2.7,2.69.44.14.95.69,1.8.9.78.25.77.55,0,.9,3.91,2.27,9.95,4.54,14.55,5.88,15.38.92,10.39,5.55-.17,9.68l-2.55,2.33c-7.63,11.2-16.19,16.37-29.64,10.9-7.3-1.12-14.99-.49-20.84,4.43-15.13,7.33-29.14,15.72-44.94,22.45-8.61,4.42-17.66,8.22-26.97,10.78-4.32,1.62-15.89,6.7-19.59,7-4.09.33-7.41-2.51-7.83-2.51h-15.73v1.8h13.03l6.74,2.69c-5.63.52-9.83,2.59-15.77,1.87-.51-.06-7.93-5.19-8.55-5.84-4.54-4.77-7.11-8.55-10.87-14.29-2.64-4.02-6.76-5.41-4.36-11.36l-2.68,2.68c-2.54-3.31-.35-9.3-5.4-9.87-1.59-3.03-12.92-22.87-11.69-24.24,6.14-1.27,11.58-5.17,17.08-8.09,1.68-1.67,4.05-2.72,6.29-3.59,1.82-.97,4.63-1.81,6.29-2.69l11.23-3.6c.94-.09-.75-1.58-.45-1.78,3.07-2.12,7.97,14.21,9.07,16.34.59,1.15,3.19,3.98,4.25,5.83,2.35,4.06,3.65,11.78,9.62,12.05,2.25.1,8.91-2.82,11.88-3.48,11.96-2.66,28.28-5.93,40.29-7.35,5.93-.7,11.62.84,17.47.84.87-4-6.21-.03-7.18-2.68,4.43.75,8.12-1.01,12.22-1.71,6.44-1.1,12.55-1.27,18.33-5.48-.27.14-1.28,2.35-.89,2.69,2.79,2.48,4.11-4.42.89-2.69.12-.09.28-1.83,1.27-2.73,3.34-3.02,7.67-5.99,8.61-10.75Z"/>
  <path class="cls-240" d="M376.29,429.59c.5.13.89.27.9.42.11,3.94.73,30.36-.4,31.46-.46.44-11.54-.12-12.18-1.35l-1.34-1.77c2.09-7.65-1.84-15.46-9.53-17.72l-.81-2.06c-2.37.37-4.84.5-7.19,0l-.74,2.08c-7.45,2.5-11.32,10.22-9.55,17.76l-1.39,1.71c-.93,1.49-3.41.89-4.93.91-7.83.1-18.39.91-25.77.38-3.44-.25-4.09-1.05-6.16-3.09-1.64-1.62-4.49-5.38-4.49-7.63v-21.11h83.6Z"/>
  <path class="cls-197" d="M305.28,378.39c-5.38,0-10.8-.03-16.18,0l-.9-30.54c.09-.82.4-.77.9,0,.02-.8.28-1.63,1.04-1.97,1.73.11,5.64-2.56,6.03-3.91.37-1.26,1.09-12.96,1.1-15.18-1.87-5.72-1.3-9.18,1.71-10.37,1.48-.84,2.37-1.74,2.7-2.69-.89-1.6,2.1-4.58,3.6-3.59v68.26Z"/>
  <path class="cls-33" d="M289.1,317.32l1.35,3.24c-.95,8.01-.62,16.1.14,24.11l-1.49,3.19c-.29.04-.6,0-.9,0-.5.02-1.08,1.18-2.63.47-11.73-5.39-3.52-22.87-7.25-32.8l.88-.87c3.35.68,6.65,1.57,9.91,2.67Z"/>
  <path class="cls-219" d="M303.48,286.78c1.46-1.04,2.88-.12,2.7,1.8,4.26,1.77,8.44,3.94,13.48,2.69,7.15,7.2-2.64,7.43-7.15,10.37-3.29,2.14-5.06,5.73-7.23,8.49-.85,1.08-2.57,1.51-3.6,3.59.06,1.03-1.65,2.13-2.7,1.8-1.39,3.43-7.83,5.07-9.89,1.8-3.97-.05-6.99-1.23-10.79-1.8-9.22-1.37-11.53-.41-19.78,3.59,3.99-5.85,15.55-6.2,21.94-5.31,3.24.45,5.67,2.72,9.07,2.71,11.95-.05,14.87-11.95,23.59-16.94,1.79-1.02,9.44-2.24,7.38-5.55-.62-1-6.69-.8-8.28-1.17-2.97-.68-5.68-2.17-8.53-3.15-2.56-.89-6.19.69-6.51-3.82,1.89-.06,4.67.04,6.29.9Z"/>
  <path class="cls-225" d="M395.17,427.79c1.2,0,2.4,0,3.6,0v.9c-.82,1.74-1.87,1.74-2.7,0-5.97,1.76-12.01,1.77-17.98,0-.51,1.72-1.29,1.72-1.8,0-26.45-.01-54.17,1.08-80.46,0-1.1-.04-3.34.68-3.13-.89,34.14-.02,68.33,0,102.47,0Z"/>
  <path class="cls-104" d="M378.09,428.69l1.8,1.05v29.36s14.89.13,14.89.13l1.29,1.8c.8.17.77.47,0,.9-4.32.78-9.85.76-14.38,0-1.75,1.75-3.64,1.75-5.39,0-4.16.78-8.42.66-12.58,0-1.91-1.48-1.47-2.02.9-1.8l11.69.9v-31.44s0-.9,0-.9c.6,0,1.2,0,1.8,0Z"/>
  <path class="cls-64" d="M213.59,341.57c-8.19,5.56-17.91,8.11-26.97,11.68v-.9c8.96-3.36,18.29-7.08,26.97-10.78Z"/>
  <path class="cls-4" d="M345.73,438.57c2.37.45,4.81.32,7.19,0,9.98,2.17,14.99,11.98,11.69,21.56-.12.34-.66,1.35-.9,1.8,1.75,1.7.85,2.89-2.7,3.59-6.46,6.37-16.82,6.16-23.37,0-3.33-.58-4.23-1.78-2.7-3.59-.24-.5-.82-1.53-.9-1.8-2.93-9.33,2.09-19.18,11.69-21.56Z"/>
  <path class="cls-151" d="M337.64,465.51h-32.37c.05-.88-.1-1.82,0-2.69.26-.59.56-.58.9,0,8.95.88,18.93,1,27.87,0-.78-.25-.77-.55,0-.9h.9c.13.28,2.44,3.35,2.7,3.59Z"/>
  <path class="cls-144" d="M376.29,461.92c1.8-.01,3.6,0,5.39,0,.78.25.77.55,0,.9,1.45.66,2.35,1.56,2.7,2.69h-23.37c.39-.38,2.44-3.12,2.7-3.59,4.03.65,8.64.88,12.58,0Z"/>
  <path class="cls-183" d="M334.04,461.92v.9c-9.1,1.04-18.72.73-27.87,0h-.9c.04-.29-.03-.6,0-.9h28.76Z"/>
  <path class="cls-148" d="M383.48,462.82c2.93.37,4.13,1.27,3.6,2.69h-2.7c-.81-.93-4.87-1.77-2.7-2.69.23-.74,1.32-.65,1.8,0Z"/>
  <path class="cls-90" d="M592.02,462.82v2.7s-32.36,0-32.36,0c-.05-1.61,2.48-3.12,2.7-3.59.35,1.53,2.8.85,4.05.9,8.51.34,17.11-.25,25.62,0Z"/>
  <path class="cls-163" d="M521.01,461.92c3.86.78,7.83.76,11.69,0h.9c.59,1.2,1.2,2.39,1.8,3.59-5.22-.98-16.44,0-22.47,0,.16-1.75,1.96-2.95,5.39-3.59h2.7Z"/>
  <path class="cls-261" d="M518.32,461.92l-5.39,3.59h-3.6c-.99-1.36.2-2.26,3.6-2.69.72-.39,1.62-.69,2.7-.9.9,0,1.8,0,2.7,0Z"/>
  <path class="cls-4" d="M398.76,428.69c33.24,0,66.53.04,99.78,0,.46-.13.9.04.92.55l.88,31.78.9.9c.78.25.77.55,0,.9,1.79.97,1.64,1.5,0,2.69-.01,5.95-.42,13.54-7.73,14.28-28.61-1.8-60.76,2.69-88.95.13-9.05-.82-8.16-7.41-8.5-14.41-2.45-.82-2.44-1.88,0-2.69-.8-.17-.77-.47,0-.9,0-.3,0-.6,0-.9-3.05-9.91-2.7-22.32,0-32.33.9,0,1.8,0,2.7,0Z"/>
  <path class="cls-202" d="M396.07,462.82c.03.9-.04,1.8,0,2.69h-8.99l-3.6-2.69c4.19-.66,8.41-.66,12.58,0Z"/>
  <path class="cls-196" d="M512.92,462.82c-.99.46-2.62,1.95-3.6,2.69h-8.09c0-.57-1.04-1.64,0-2.69,3.42-.77,8.19-.76,11.69,0Z"/>
  <path class="cls-284" d="M233.37,298.45c2.39.29,2.28,1.11,0,1.8-.56.1-1.24-.1-1.8,0-5.29-3.03-10.75-6.23-16.18-8.98-1.19-1.17-.7-1.32.9-.9l1.5-1.34c4.92,2.48,9.86,4.93,14.82,7.34l.76,2.09Z"/>
  <path class="cls-264" d="M214.49,289.47c1.54-1.85,1.92-1.48,1.8.9l-.9.9c-1.19-.6-2.4-1.19-3.6-1.8.84.12,1.95-.18,2.7,0Z"/>
  <path class="cls-166" d="M229.77,276c1.49-.14,3.1-.29,4.52.29,4.9,1.99,21.6,9.8,23.93,12.89.48.64.86,1.35,1.21,2.09-4.28,4.03-9.68,6.42-16.18,7.19-.52.11-1.42.65-2.7.9-2.96.04-5.36-.26-7.19-.9-3.52-.67-12.37-6.39-17.08-8.08-.82-.29-1.7-.87-1.8-.9-1.24-3.03-4.88-1.91-5.39-5.38,6.54-1.53,14.41-3.65,18.88-8.99.57.34,1.21.59,1.8.9Z"/>
  <path class="cls-103" d="M260.34,291.27c-7.33,7-7.72,5.28-17.08,7.19l-.51-.94c6.12-1.01,12.06-1.76,16.69-6.24.26-.78.56-.77.9,0Z"/>
  <path class="cls-103" d="M240.56,299.35c-2.25.43-4.93.48-7.19.9v-1.8c2.16.41,5.66-.99,7.19.9Z"/>
  <path class="cls-289" d="M126.4,288.57h.9c-2.09,1.12-4.16,2.46-6.29,3.59-.57.09-1.3-.13-1.8,0l7.19-3.59Z"/>
  <path class="cls-210" d="M307.98,284.98c.92,3.04,2.06,4.05-1.8,3.59-3.46-1.44-2.35-1.6-2.7-1.8-.63-.38-.33-.68.9-.9,1.4-.84,2.84-.55,3.6-.9Z"/>
  <path class="cls-245" d="M349.32,276.9c-.66.25-2.37,1.26-3.6,1.8l-.9-.9c1.28-.53,3.92-2.81,4.49-.9Z"/>
  <path class="cls-239" d="M298.09,407.13c31.16-.32,62.32-.32,93.48,0,1.18.02,2.97-.45,3.6.9h-96.18c-2.15-.04-9.37.69-9.89-.9h8.99Z"/>
  <path class="cls-18" d="M393.37,408.03h-94.38c31.41.54,62.97,0,94.38,0Z"/>
  <path class="cls-232" d="M563.26,457.43c-1.5-1.38-1.51-5.77,0-7.19.68,2.93.42,4.33,0,7.19Z"/>
  <path class="cls-105" d="M553.37,443.96c1.19,1.26.69,1.72-.9.9-1.99.81-4.43,1.22-7.32,1.25-2.43,1.66-4.49,2.14-6.17,1.44-.26.78-.56.77-.9,0,3.4-5.36,9.84-6.56,15.28-3.59Z"/>
  <path class="cls-67" d="M558.77,449.35c2.09-.03,1.45,4.55.9,6.29-.3,2.39-3.22,6.71-5.39,8.08-1.27.47-1.56.36-.9-.9l-.26-2.01c2.88-2.43,3.66-6.41,2.54-9.92l1.32-1.55c-.87-1.31-.52-1.76.9-.9.22.36.8.65.9.9Z"/>
  <path class="cls-122" d="M540.79,461.92c-.32-.3-.61-.57-.9-.9-.94-.62-2.07-1.4-1.8-2.69-2-2.48-1.87-8.16.9-9.88,2.5-.38,3.09,1.89,1.77,6.83,1.35,2.99,1.36,5.21.03,6.64Z"/>
  <path class="cls-244" d="M553.37,462.82l.9.9c-3.1,1.96-9.82,3.05-12.6.43-.83-.79-.75-2.11-.88-2.23,3.52.68,7.06.64,10.63-.13l1.96,1.03Z"/>
  <path class="cls-73" d="M538.99,448.45c-1.87,3.29-2.04,6.3-.9,9.88-.26.71-.56.7-.9,0-1.57-3.87-1.43-7.1.9-10.78h.9c.78.25.77.55,0,.9Z"/>
  <path class="cls-77" d="M558.77,449.35l1.8-1.33c.97,2.57-.44,5.34-.02,8.07l-.88-.46c.15-1.17-.48-5.21-.9-6.29Z"/>
  <path class="cls-12" d="M557.87,448.45l-.9.9c-1.96,1.54-5.52-2.43-4.49-4.49l.9-.9c1.8.98,3.44,2.74,4.49,4.49Z"/>
  <path class="cls-6" d="M539.89,461.02c-.51-.57-1.27.82-2.7-2.69h.9c.27.83,1.39,1.81,1.8,2.69Z"/>
  <path class="cls-278" d="M519.21,428.69v32.33h-17.98v-32.33c5.98,0,12,0,17.98,0Z"/>
  <path class="cls-180" d="M500.34,428.69v32.33l-1.8-32.33c.6,0,1.2,0,1.8,0Z"/>
  <path class="cls-207" d="M515.62,461.92c-.56,1.23-2.12.63-2.7.9h-11.69v-.9c4.78.04,9.6-.05,14.38,0Z"/>
  <path class="cls-190" d="M532.7,461.92c-2.89,1.53-8.98,1.5-11.69,0h11.69Z"/>
  <path class="cls-89" d="M278.31,249.95c2.53-.3,3.43,2.85,4.49,3.59,2.2,1.01.63,4.76-1.14,5.51-3.89,1.64-7.14-3.09-7.85-6.41,1.64-1.42,3.88-2.17,4.49-2.69Z"/>
  <path class="cls-78" d="M272.92,258.04h-4.49c1.42-1.12,3.48-3.73,5.39-5.39,1.91,2.32,2.87,5.56-.9,5.39Z"/>
  <path class="cls-41" d="M282.81,253.55c1.33.93,2.87.55,3.6.9.5.24.61.57.9.9,1.52-.68,2.61,1.36,2.7,2.69,1.1.45,1.27.65,2.7.9,1.83-.09,3.03.51,3.6,1.8,1.27.64,2.65,1.08,3.59,2.26.72,1.69-1.81,1.26-1.84,1.79-.11,1.87,3.44,3.88.57,5.9-6.16,4.34-23.03-2.73-23.89-1.87-.99,1.79,1.12,6.88.9,7.16-.14.17-3.71,1.72-4.07,1.83-.56.18.01-2.56-1.76-1.8-2.11,1.13-.29,3.09-.89,4.46-.56,1.28-3.36,2.23-3.17,4.52-1.69,1.73-2.9,3.91-5.39,6.29h-.9c-9.57-5.66-19.81-10.14-29.66-15.27,3.23-1.5,4.58-4.65,8.16-5.77,4.4-1.37,10.7-1.39,15.23-2.75,5.68-1.71,11.49-6.57,15.49-8.29,1.46-.63,3.05.33,4.27-1.15,1.08-1.31.9-3.75.9-5.39,4.5,2.71,6.29,9.63,8.99.9Z"/>
  <path class="cls-267" d="M608.2,406.23c-.44,1.33-1.2.81-2.2.94-30.73-.07-61.47-.04-92.18-.04l94.38-.9Z"/>
  <path class="cls-26" d="M391.57,407.13c-31.09-.63-62.38,0-93.48,0h93.48Z"/>
  <path class="cls-233" d="M376.29,297.56c2.14-.61,5.47.41,7.19,1.8,4.88,2.19,9.98,3.99,15.28,5.39-.16-2.34,1.34-2.64,4.49-.9,2.14,1.87,4.02,4.21,6.29,6.29.11,1.45-.82,4.35-1.29,2.41-.22-.91.42-2.05,1.29-2.41.78.71,2.54.94,3.61,2.22,4.35,5.19.32,14.32.89,14.84,4.75.72,8.5-2.5,12.58-4.49q1.1,1.35,0,0c6.53-3.17,8.85-5.11,16.74-6.18,2.69-.36,18.6-.96,20.01,0,.75.51.47,4.4,1.91,5.28.76.3.76.6,0,.9,1.56,6.7,1.86,13.28.9,19.76.43.14.82.31,1.11.59.85.84-2.34,14.85-3.37,16.55-.4.65-1.42.75-2.24.83.81,4.06-2.44,5.46-9.74,4.22-3.31-.09-10.41-.56-11.83-3.32-1.87-.14-.63-2.8.9-2.69,3.69-8.55,14.69-1.64,3.6,2.69,2.85-2.52,12.33-3.09,14.38,0l-1.14-1.52c3.69-11.99,7.57-25.01,3.07-37.43-.57-2.1-.78-3.95,1.66-4.16-.19.7-.49,1.74-1.05,1.8-2.23.23-19.37.38-20.57,0l-1.31-1.8c.14,1.6,1.17,2.68,3.07,3.25,4.5,11.47-4.78,8.85-11.11,4.48.7,5.92-6.55,9.48-8.9,3.42-2.09,1.64-4.76,2.45-5.97-.36-.78.81-1.92,1.11-3.4.91-1.76,3.16-3.92,6.6-7.38,8.07l-2.4-.22c-12.52-13.57-32.55-20.24-50.74-20.55l-1.7-1.69c-2.11-1.5-.88-5.04,1.8-4.49.78-9.93,14.39-15.7,23.37-13.47Z"/>
  <path class="cls-130" d="M476.97,319.11c.38-1.38,1.93-1.15,2.7,0,3.23-3.13,13.47,3.93,16.2,6.91,2.74,2.22,3.33,4.11,1.77,5.66.75,2.63-.96,4.35-3.6,3.59l-2.8,1.49c-14.56-1.7-24.64,7.54-19.46,22.24l-1.12,2.31c-.69,3.88-12.34,4.5-8.99-.9,1.5-3.39,3.75-13.92,4.49-17.96.98-6.44.68-13.02-.9-19.76,0-.3-.04-.61,0-.9.18-1.37-.34-2.87,1.47-3.47s7.87.37,10.21.78Z"/>
  <path class="cls-35" d="M549.78,316.42c-.17.8-.47.76-.9,0-1.87.41-2.77.11-2.7-.9l-1.81-1.74c-1.21-27.33-44.94-14.11-54.84.74l-2.68,1c-.65,2.53-2.44,2.28-3.6,0,.72-4.32,4.55-8.2,7.89-10.74,17.93-13.64,59.72-22.16,58.63,11.64Z"/>
  <path class="cls-201" d="M486.85,315.52c2.16-1.91,5.08-2.11,8.74-.62l15.07,4.73,1.36,2.18c.27.64.59,1.57.17,1.93-2.16,1.85-9.94,7.2-12.45,8.57l-2.1-.62c-2.21-5.97-12.24-11.15-17.98-12.57-1.57-.41-2.42-.65-.9-1.8,1.65-.4,3.64-1.67,4.49-1.8,1.06-.15,2.45,0,3.6,0Z"/>
  <path class="cls-1" d="M403.26,303.84c-1.56,0-3,.57-4.49.9-5.38-1.05-10.64-3.59-15.28-6.29-2.33-.1-5.1-.93-7.19-1.8-9.84.6-22.23,2.26-23.37,14.37-.75,1.42-1.07,3.06-1.8,4.49.2,2.63-3.48,3.22-4.49.9-.39-3.74.2-10.13,1.56-14,.99-2.83,4.66-7.27,7.43-5.76,12.55-8.28,36.96-2.18,47.64,7.19Z"/>
  <path class="cls-24" d="M568.65,335.28c.4,1.05.4,1.95,0,2.69-1.77,2.51-2.99.65-3.6-1.8-.48-.18-.77-.78-.9-1.8l-2.11-.95c-1.41-5.73-5.69-9.12-11.31-10.42l-.96-2.1c-2.76,1.76-4.56,1.46-5.39-.9-1,2.55-7.96,2.51-8.99,0-.42-2.83,11.35-1.08,10.78-.91-.69.21-3.89-.59-2.69-1.79.74-1.16,2.54-1.46,5.39-.9.3,0,.6,0,.9,0,6.23.15,14.06,5.95,16.82,11.49,1.45,2.93,1.29,5.12,2.06,7.37Z"/>
  <path class="cls-102" d="M345.73,316.42c-.77-7.42.84-15.56.08-22.97-.22-2.17-2.05-.55-1.87-2.17,1.59.25,9.54-.37,9.89-.01.3.31-.26,3.46,0,4.5s.95.98,1.8.9c-2.17,1.43-4.63,4-5.75,6.38l-3.23,13.38c-.25.79-.55.78-.9,0Z"/>
  <path class="cls-121" d="M568.65,335.28c1.47,4.28,2.12,3.63,5.39,6.29-.36,1.45-1.56,2.35-3.6,2.69,1.09,1.08,1.09,1.68,0,1.8-.46,1.71-1.27,1.72-1.8,0-2.31-1.42-2.42-6.74,0-8.08-.08-.88.06-1.81,0-2.69Z"/>
  <path class="cls-266" d="M478.76,317.32l.9,1.8c-.75-.18-1.87.14-2.7,0l-.9-1.79c.85-.14,1.95.17,2.7,0Z"/>
  <path class="cls-46" d="M405.95,337.97c2.95-.33,5.17,5.51,2.7,7.19,1.96.6,2.26,1.2.9,1.8.43-.02.85,0,1.22.13.92.33,2.14,13.65-1.22,13.34l1.42,1.64c-.45,2.92-6.02,13.17-9.51,12.74,1.18,1.31.65,1.8-.9.9-2.22,1.79-4.59,2.69-4.49-.9.28-2.89,1.7-5.81,4.26-8.74.99-3.4,2.57-5.87,4.73-7.43l-1.53-1.4c2.17-1.81,2.68-4.93,1.53-9.38-2.48-4.34-5.18-8.53-8.09-12.57-2.18,1.48-2.6.56-1.8-1.8l-3.25-.17c-11.16-8.1-25.71-12.03-39.74-10.89l-2.85-1.51c-1.1,2.31-2.67,3.06-4.49.9l-.68,2.15c-5.31,1.73-9.21,5.26-9.91,11l-1.99,1.22c2.17,1.43,3.13,8.33.9,9.88,3.21,3.01,5.86,9.99,5.39,14.37,1.4,2.41-.1,2.41-4.49,0-.19-.34-.74-.6-.9-.9-3.62-.68-6.98-9.77-4.49-12.57-.56-2.68-1-5.31-.9-8.08.4-11.13,7.31-19.56,17.98-22.45.28-.07.61.06.9,0,.97-.22,3.8-.84,4.49-.9,16.36-1.43,45.2,8.56,54.83,22.45Z"/>
  <path class="cls-44" d="M323.26,341.57c-3.81,3.42-5.49,8.57-9.89,10.78,3.11-6.29,4.52-7.02,9.89-10.78Z"/>
  <path class="cls-100" d="M322.36,257.14h-.9c-4.06-2.39-8.52-4.38-12.61-6.75-.6-.35-3.28-.71-1.76-2.23.63-.63,14.03,7.51,15.27,8.98Z"/>
  <path class="cls-125" d="M328.65,265.22c1.19,1.26.69,1.72-.9.9-4.66-2.86-9-5.89-13.48-8.98,4.93,2.24,9.99,4.78,14.38,8.08Z"/>
  <path class="cls-70" d="M322.36,257.14c1.99-.16,14.23,7.2,12.58,8.98-4.25-3.31-8.84-6.25-13.47-8.98h.9Z"/>
  <path class="cls-100" d="M309.77,268.81h-.9c-.75-.49-2.43-1.12-3.6-1.8-1.27,1.14-2.47.54-3.6-1.8-.24-1.07-2.09-2.02.43-1.78,2.75,1.5,5.11,3.62,7.66,5.38Z"/>
  <path class="cls-288" d="M321.46,267.92c.52.27.5.57,0,.9-2.01-.93-4.14-1.56-6.29-2.69-1.19-1.26-.69-1.72.9-.9,2.09,1,3.23,1.45,5.39,2.69Z"/>
  <path class="cls-41" d="M305.28,267.02c-2.24,5.89-2.75,1.88-3.6-1.8,1.49.05,2.43,1.12,3.6,1.8Z"/>
  <path class="cls-253" d="M314.27,257.14c-2.05-.93-5.87-1.5-7.19-3.58,3.42-.53,5.14,2.17,7.19,3.58Z"/>
  <path class="cls-16" d="M316.07,265.22l-.9.9c-1.63-.86-4.54-1.96-5.39-3.58,2.79-.6,4.5,1.83,6.29,2.69Z"/>
  <path class="cls-168" d="M290,258.04c-3.12-1.27-1.35-1.16-2.7-2.69l2.69-.9.74,3.05-.73.55Z"/>
  <path class="cls-97" d="M314.27,271.51c.38.28.37.58,0,.9-2.31-1.36-3.46-2.33-5.39-3.59h.9c1.36.93,3.06,1.6,4.49,2.69Z"/>
  <path class="cls-107" d="M301.68,256.24c1.19,1.26.69,1.72-.9.9-1.34-.83-2.37-1.79-3.6-2.69-.36-.28-.35-.58,0-.9,1.31.87,2.8,1.51,4.49,2.69Z"/>
  <path class="cls-42" d="M321.46,267.92c1.8,1.03,4.47,1.53,5.39,3.58-2.23.37-3.87-1.98-5.39-2.69v-.9Z"/>
  <path class="cls-138" d="M309.77,260.75c-.37,2.87-4.94.45-4.49-1.81l4.49,1.81Z"/>
  <path class="cls-93" d="M304.38,285.88c-.3.18-.56.67-.9.9-.55-.32-4.96.09-6.29-.9v-.9c2.3.55,4.8.95,7.19.9Z"/>
  <path class="cls-93" d="M292.7,281.39l2.7,2.69c-1.8-.58-4.62-.13-5.39-2.69.85-.14,1.96.18,2.7,0Z"/>
  <path class="cls-36" d="M297.19,253.55v.9c-1.25-.92-2.38-1.66-3.6-2.69v-.9c.41.26,1.41.27,2.28.86.72.49,1.03,1.65,1.31,1.83Z"/>
  <path class="cls-41" d="M285.5,273.31c-.64,1.6-4.75,1.02-6.29,1.78.86-2.52,4.09-1.74,6.29-1.78Z"/>
  <path class="cls-16" d="M301.68,256.24c1.47,1.03,3.34.21,2.69,2.69-1.53.3-2.31-1-3.59-1.79l.9-.9Z"/>
  <path class="cls-55" d="M292.7,258.93c.27.05,3.88-1.93,3.6,1.8-1.1-.55-2.61-.68-3.6-1.8Z"/>
  <path class="cls-214" d="M303.48,249.97c.07.08.33,1.89-.44,1.77-1.16-1.51-4.2-1.15-4.05-2.68.47-.21,4.29.69,4.49.9Z"/>
  <path class="cls-178" d="M328.65,265.22c.97.73,2.41,1.34,2.7,2.69-1.79.49-2.46-1.09-3.6-1.79l.9-.9Z"/>
  <path class="cls-23" d="M293.59,250.85v.9c-.9-.77-2.44-1.3-2.7-2.69,1.9-.67,2.02,1.35,2.7,1.79Z"/>
  <path class="cls-262" d="M314.27,271.51c.97.74,2.41,1.33,2.7,2.69-1.89.69-2.06-1.42-2.7-1.79v-.9Z"/>
  <path class="cls-235" d="M494.05,373.9c1.73-2.15,3.44-.75,2.7,1.8l2.12-.36c10.51,11.84,23.18,12.11,37.49,7.79l1.74,1.55c1.67-.23,11.22.05,11.68.4,4.83,3.61-4.44,3.61-7.19,3.19l-1.48,1.46c-5.42-.89-10.32-.48-14.7,1.23-2.46,1.8-2.96,1.31-5.39,1.8-7.08.8-13.97.8-20.67,0-1.94-.98-.84-1.34.9-1.8,2.95-.84,5.98-1.25,9.09-1.22-29.12.75-58.47.87-88.07.36l-3.72-.93c-10.72,1.23-22.92,1.87-33.26-.9-3.56-.84.63-2.41,2.95-2.56l1.54-1.04c2.9.18,5.74-1.06,6.29-4.49-1.3-3.16,1.79-3.9,4.49-4.49.28-.31.64-.58.9-.9l2.34-1.33c29.38,2.32,58.84,1.83,88.35-1.47l1.89,1.91Z"/>
  <path class="cls-235" d="M576.74,346.06c3.48,3.77,7.43,7.43,8.07,13.06.23,1.99-.18,1.03-1.33,1.3-2.17.51-7.8.4-6.3,3.61,1.92-2.54,4.88-1.78,7.65-1.8.98.96-.74,12.28-2.07,14.11-.67.93-2.53.97-3.58,3.24-.67,1.47.19,3.14-.71,4.52-3.6,5.56-7.2.86-12.11,1.42-3.28.37-5.04,4.24-9.41,2.76-.99-2.92,1.61-5.51,1.81-7.71.56-6.11-1.6-4.06,2.69-10.25-1.43-2.56,2.54-4.71,4.91-5.64l1.38-1.55c4.41-4.55,6.62-6.83,6.62-6.83.56-2.92.75-5.73.57-8.44l1.8-1.8Z"/>
  <path class="cls-260" d="M338.54,360.43c1.79-.7,2.51,0,1.8,1.8l3.76,1.71c10.44,14.78,30.84,25.03,46.59,12.28l3.59-.52c-.46-2.45.08-2.7,1.8-.9.47,0,2.97,1.76,4.49.9-1.69,1.9-2.59,2.8-4.49,4.49.43,2.44-4,5.83-6.29,4.49-2.79,1.78-7.05,3.58-10.79,2.69-.81,1.02-2.61,1.02-5.39,0-18.28-2.16-30.6-10.75-39.55-26.94l.91-2.69c1.5.28,1.66,2.28,2.68,3.1.37.3.87-.44.9-.41Z"/>
  <path class="cls-13" d="M561.46,363.12c.54.27.53.57,0,.9l.32,1.09c-3.56,3.98-7.26,7.81-11.11,11.49-4.01,2.83-8.6,5.19-12.58,8.08-8.4,1.15-12.91,4-22.71,2.48-9.07-1.41-12.6-6.44-18.64-11.46-.06-2.42,1.77-3.69,3.6-1.8.22-.81.52-.79.9,0l2.31.55c13.9,13.5,33.79,6.57,46.24-5.69l4.49-2.04c2.07-1.5,3.96-3.27,5.68-5.29l1.51,1.7Z"/>
  <path class="cls-25" d="M418.54,390.96c24.22-1.29,48.57-.87,72.81,0,1.96.32,2.56.92,1.8,1.8-35.95.71-71.92.69-107.87,0v-1.8c10.76-1.93,22.39-1.38,33.26,0Z"/>
  <path class="cls-29" d="M385.28,392.76c35.94-.05,71.93,0,107.87,0,.96-1.48,6.04-1.38,7.19,0h20.67c-2.5.5-3.39.77-6.29.9h-44.05c-15.27.06-30.58-.05-45.84,0-6.57.76-13.2.74-19.78,0-17.07.09-37.02,2-53.52.93-1.56-.1-5.89-.34-6.7-1.82,13.47-.03,26.98,0,40.45,0Z"/>
  <path class="cls-235" d="M565.06,390.96c.98-.15,4.07-3.45,6.29-1.35-.85,1.16-1.84,1.69-3.1,2.29-6.85,3.25-29.43,2.97-37.21,1.12-1.58-.38-3.36.48-2.83-2.06.23-.6.5-1.09.87-1.19,4.31-1.19,28.8-.09,35.08.29.32.02.62.41.91.9Z"/>
  <path class="cls-72" d="M378.99,387.37c2.8-.18,4.9.12,6.29.9,11.01.7,22.03.75,33.26.9,2.39.29,2.28,1.11,0,1.8-11.07-.02-22.19.14-33.26,0-4.18-.05-8.4.04-12.58,0l5.38-1.8-4.49-1.79c1.7.2,3.65-.15,5.39,0Z"/>
  <path class="cls-3" d="M542.59,388.27c6.4.52,12.73.64,19.37.9,1.73.07,3.61-.92,3.11,1.8-9.48,1.45-26.45,0-36.85,0h-1.8c.19-.14-.77-1.72,2.43-2.47,5.35-1.24,8.68-.64,13.75-.23Z"/>
  <path class="cls-51" d="M333.14,359.53c-.93,1.09-5.5-.9-6.25-1.39-4.71-3.1-2.64-8.93,1.75-11.18.76,3.6,2.82,9.31,4.49,12.57Z"/>
  <path class="cls-54" d="M574.95,347.85c3.11,8.1-.82,11.34-7.19,15.27-.1,1.23-1.51,2.21-4.25,2.96-1.73,2.49-3.32,3.6-4.74,3.33-3.35,3.56-4.17,4.43-8.09,7.19,3.74-2.98,7.32-10.16,10.79-12.57l3.19-3.39c8.22-2.75,9.04-6.96,5.8-14.57-.1-.55.15-1.36,0-1.8,2.2-1.94,5.07,1.26,4.49,3.59Z"/>
  <path class="cls-50" d="M514.72,393.66h-44.05c14.49-.06,29.67.64,44.05,0Z"/>
  <path class="cls-208" d="M574.05,341.57c.22.16.93,2.58,2.7,4.49l1.8,3.58c-1.47.27-2.36-.94-3.6-1.79-1.62-1.12-2.84-2.56-4.49-3.59-.12-.33-1.29-.82-.9-1.79,1.08-.03,3.8-1.43,4.49-.91Z"/>
  <path class="cls-34" d="M567.75,363.12l.9,2.69c-5.28-.83-5.03,1.38-7.19,4.5-1.87,1.32-3.11,1.59-2.7-.9,4.89-5.19,3.74-3.05,8.99-6.29Z"/>
  <path class="cls-50" d="M424.83,393.66c-5.79,1.5-13.98,1.5-19.78,0,6.58-.03,13.2.02,19.78,0Z"/>
  <rect class="cls-219" x="256.74" y="313.73" width="3.59" height="1.79"/>
  <path class="cls-53" d="M352.92,438.57c-1.76,1.32-5.6,1.65-7.19,0,3.15-.78,4.16-.66,7.19,0Z"/>
  <path class="cls-187" d="M298.99,315.52c.78.25.77.55,0,.9-2.22,2.97.07,6.78.08,10.33.01,4.93-1.86,10.67-1.02,15.96-3.66,3.51-3.64,4.44-8.95,5.14-1.05-10.04-1.68-20.52,0-30.54,3.36.04,6.79-.45,9.89-1.8Z"/>
  <path class="cls-271" d="M298.99,316.42v-.9c.66-.29,1.58-1.68,2.7-1.8-.02.04,1.02-.07.88.44-.24.91-2.43,2.32-3.58,2.25Z"/>
  <path class="cls-277" d="M396.07,428.69c.18,10.76-.24,21.58,0,32.33h-17.98s0-32.33,0-32.33c5.98,0,12,0,17.98,0Z"/>
  <path class="cls-250" d="M396.07,461.92c0,.3,0,.6,0,.9h-14.38v-.9h14.38Z"/>
  <path class="cls-199" d="M376.29,461.92c-.38,1.2-2.06.92-3.09.95-1.15.03-10.88.14-9.5-.95,4.18-.02,8.4.03,12.58,0Z"/>
  <path class="cls-157" d="M355.62,443.96c.51.28,1.29,1.28,1.8,1.8,1.12,1.25.63,1.73-.9.9l-1.98.61c-10.33-8.09-20.09,11.62-7.61,15.35l.61,2c.6.48.3.78-.9.9-3.86-.58-7.43-4.76-8.99-8.08-.7-2.32-.7-4.41,0-6.29.45.04,3.77-6.13,5.39-7.19,1.81-3.32,11.43-3.43,12.58,0Z"/>
  <path class="cls-19" d="M352.02,465.51c-.78-.25-.77-.55,0-.9-.33-2.37,4.83-6.9,7.19-7.19-.67-1.71-.67-3.69,0-5.39-2.45-.32-3.91-3.24-2.7-5.39l.9-.9c6.55,6.66,3.59,18.41-5.39,19.76Z"/>
  <path class="cls-254" d="M343.03,443.96c-1.05-4.33,9.98-3.21,11.99-2.74.56.13,2.09,2.59.6,2.74-3.54-1.94-9.15-2.23-12.58,0Z"/>
  <path class="cls-127" d="M337.64,451.14v6.29c-1.25-2.67-1.05-4.29-.88-7.2.43.1.76.9.88.91Z"/>
  <path class="cls-52" d="M352.02,464.61v.9c-1.23.19-4.16.19-5.39,0l.9-.9c.11-2.59,3.67-2.26,4.49,0Z"/>
  <path class="cls-158" d="M334.04,462.82c-.09,1.11-1.34.88-2.19.94-6.34.49-14.23.05-20.75-.03-1.52-.02-4,.58-4.93-.91h27.87Z"/>
  <path class="cls-171" d="M405.95,432.28l90.21.45.58,13.03c-.07.83.49,2.57-.53,2.71h-96.55s0-16.19,0-16.19c2.09-.04,4.21.06,6.3,0Z"/>
  <path class="cls-106" d="M450.9,466.41c1.04-1.06,18.21-1.58,18.88-.9.34.34-.27,6.51,0,8.09-5.6.73-12.26.73-17.98,0-.01-.48-.77-1.26-.9-1.8-.68-1.89-.68-3.69,0-5.39Z"/>
  <path class="cls-220" d="M493.15,465.51c-.23,1.99.75,6.58-.84,7.69-.99.69-16.17.71-17.19,0-1.59-1.11-.61-5.73-.84-7.69h18.88Z"/>
  <path class="cls-62" d="M404.16,468.21c-.73-.81-.61-2.02-.38-3.05,14.23-.52,28.82-.41,42.99.04l-.37,2.12c-2.82,2.54-36.12-.07-42.25.9Z"/>
  <path class="cls-189" d="M405.95,432.28c30.2-.86,60.58.64,90.79,0-.27,4.4.36,9.12,0,13.48l-.89-12.58-89.89-.89Z"/>
  <path class="cls-116" d="M445.51,453.84c2.54.11,2.45.75,1.28,3.61-5.32-1.22-42.03,1.56-43.53-.02-.22-.23-.31-3.82.9-3.59h41.35Z"/>
  <path class="cls-179" d="M405.95,473.6c-2.36-.67-3.15,1.51-2.7-3.59l43.53-.02c.83.13.71,3.03.52,3.61-13.5,1.37-27.68.76-41.35,0Z"/>
  <path class="cls-251" d="M404.16,462.82c0-.19-2.13-3.38-.41-3.6,5.32,1.2,42.04-1.54,43.56.01.88.9-.9,3.4-.9,3.59l-.28.9h-41.35l-.62-.9Z"/>
  <path class="cls-205" d="M446.4,462.82c0,.47.89,1.37.9,1.8.04.76-.26,1.27-.83,1.07-2.91-1.05-40.4-1.74-42.15-.53-.43,1.05-.78.77-1.07-.53.02-.44.89-1.32.9-1.8h42.25Z"/>
  <path class="cls-131" d="M475.4,454.97c2.95-2.95,9.09,1.12,5.56,5.11-3.96,4.48-8.69-1.98-5.56-5.11Z"/>
  <path class="cls-231" d="M487.08,460.8c-4.87-5.05,5.1-10.4,6.09-3.77.6,4.04-3.85,6.08-6.09,3.77Z"/>
  <path class="cls-74" d="M457.86,454.97c3.24,3.22-1.66,8.65-5.1,5.58-4.49-4.02,1.98-8.69,5.1-5.58Z"/>
  <path class="cls-153" d="M447.3,464.61c.02,1.39.23,1.67-.9,2.69.5-2.72-1.37-1.73-3.11-1.8-11.09-.44-26.05-.86-36.94,0-2.76.22-2.31-.44-2.2,2.7-1.37-.2-.95-2.27-.9-3.59h44.05Z"/>
  <path class="cls-74" d="M463.71,454.96c2.12-2.12,5.61-1,6.08,2.06,1.19,7.87-11.13,3-6.08-2.06Z"/>
  <path class="cls-198" d="M445.51,453.84c-13.72-.57-27.61.43-41.35,0h41.35Z"/>
  <path class="cls-198" d="M447.3,473.6c-.44,1.33-1.2.82-2.2.94-6.78.83-33.33.71-39.15-.94h41.35Z"/>
  <path class="cls-120" d="M469.78,473.6c.01.08,1.13.17.9.89-1.76-.15-20.26.42-19.76-.45.14-.25.89-.29.88-.44h17.98Z"/>
  <path class="cls-185" d="M471.56,471.79c-2.04-.79-.38-5.4-.88-7.18,2.04.79.38,5.4.88,7.18Z"/>
  <path class="cls-22" d="M450.9,471.8c-.41-1.69-2.28-3.07,0-5.39v5.39Z"/>
  <path class="cls-123" d="M552.47,444.85c.92.42,4.07,3.57,4.49,4.49,2.1,4.6.76,10.79-3.6,13.47-3.21,1.98-10.52,2.52-12.58-.9-.16-.26-1.72-5.48-1.77-5.91-.38-3.01,1.53-5.59-.03-7.56v-.9c3.97-3.13,8.52-4.95,13.48-2.69Z"/>
  <path class="cls-249" d="M416.74,328.99c4.62.3,4.28-.55,7.18-3.59,1.33,3.39-.52,6.41,3.66,5,5.41-1.83-2.09-8.25,6.51-5.71,1.43.42,6.88,7.45,8.31.79.97-4.52-5.91-3.08-6.77-5.02.87-.36,3.81-2.24,4.04-2.24h22.92c-.92,3.6,1.46,6.24,1.83,9.4.58,5.05-.5,11.05.01,16.23-1.27,1.85-4.52,17.47-5.43,17.47h-14.38c-.82-2.89,5.72-2.61,2.23-5.39l-5.83,2.7c-1-.6-.94-2.97-.74-4.24.07-.41.24,7.93-2.85,6.93-.03.91-.93,1.81-2.7,2.69-1.32,3.98-12.79,3.59-14.38,0-1.71-.72-3.53-1.47-5.39-.9-2.13,2.43-6.13.48-5.39-2.69.43-2.3.34-10.99,0-13.47.56-.54.26-1.14-.9-1.8-.39-1.39-2.1-6.32-2.7-7.19,3.38-2.27,6.17-5.18,8.36-8.73l2.42-.25Z"/>
  <path class="cls-5" d="M414.94,363.12c1.82-.63,3.74.18,5.39.9,5.45.8,8.79,1.42,14.38,0,1.26-1.23,2.46-1.83,3.6-1.8-.04-1.52.85-2.35,1.8-.9,4.21.3,16.68,2.85,19.77,1.31.23-.12,1.66-1.88,1.8-2.2-.77,4.08,7.22.88,8.99.9.11-.44.26-.85.52-1.16.5-.6,13.96.3,15.28.84.76.32,1.48.75,2.18,1.21,3.08,1.25,7.21,8.65,5.39,11.68-2.87-.54-5.71.89-8.5.94-23.26.41-48.07,2.76-71.09,1.8-3.79-.16-9.27-.96-13-1.83,2.47-3.09,7.4-10.72,8.09-14.37,1.21,1.4,3.65,2.21,5.39,2.69Z"/>
  <path class="cls-181" d="M376.29,296.66c.78.25.77.55,0,.9-9.14-.45-19.15,5.5-23.37,13.47-1.85-1.21-.73-3.58-.19-5.14,3.42-9.88,14.73-10.21,23.56-9.23Z"/>
  <path class="cls-222" d="M441.01,358.63c-.07.65-.97,1.77-.9,2.69-.63.2-1.19.68-1.8.9-1.49.6-1.73.55-.9-.9,5.65-7.82-.59-14.98-8.05-18.45-4.15-1.93-8.73-1.26-11.73-3.99,11.75.34,24.8,5.95,23.37,19.75Z"/>
  <path class="cls-99" d="M398.76,304.74c-10.06,2.21-8.3-2.08-15.28-5.39-.65-.26-.64-.56,0-.9,5.64,1.41,10.73,1.88,15.28,6.29Z"/>
  <path class="cls-281" d="M416.74,328.99c-3.06,3.44-5.18,9.13-10.79,8.98l6.29-9.43c2.48-1.51,3.74.4,4.49.45Z"/>
  <path class="cls-200" d="M397.86,311.03c.97.93-3.32,4.98-4.48,5.38.69-3.62-1.95-4.65-3.6-7.18l8.09,1.79Z"/>
  <path class="cls-227" d="M386.17,305.64c-.61,2.09-1.72,3.79-2.62,5.95-.51,1.23.89,2.64-1.87,2.12.16-2.23,1.31-8.04,4.49-8.07Z"/>
  <path class="cls-271" d="M466.18,342.46c.95-6.5-1.1-13.57-.9-19.76,1.76,4.93,2.53,12.46,1.85,17.61-.18,1.34-.92,2-.95,2.15Z"/>
  <path class="cls-272" d="M383.48,298.45v.9c-1.59-.76-5.38-1.71-7.19-1.8v-.9c3.75.41,4.48,1.12,7.19,1.8Z"/>
  <path class="cls-149" d="M409.55,310.13c.12.14.06,2.7.9,3.58-7.49,1.03-1.7-4.52-.9-3.58Z"/>
  <path class="cls-249" d="M426.63,322.7c1.41-.72,2.25.28,1.79,1.79h-2.69c-.09-.06.81-1.75.9-1.79Z"/>
  <path class="cls-98" d="M494.05,335.28l.16,2.72c-4.76,6.31-6.27,14.08-4.35,21.74l-1.2,2.49c-4.35-.06-8.72.08-13.08.04-1.82-.02-3.53-.92-4.9-.94-6.8-18.64,4.73-28.7,23.37-26.05Z"/>
  <path class="cls-287" d="M532.7,316.42l9.84-.07.94.97,2.69,1.79-10.78.91c-3.09,3.64-9.67,3.67-14.38,3.59l-1.03,2.27c-14.68,4.99-30.06,15.56-25.59,33.13l-1.25,2.33c1.97.8,3.39,2.75,4.27,5.87,2.25,2.36,3.23,4.6,2.92,6.71-1.04.42-2.22,1.63-3.6,1.8-.5-.42-2.3-1.72-2.7-1.8-1.61-3.98-4.16-7.51-5.39-11.68-3-10.12-1.2-18.96,5.39-26.94.94-1.14,2.44-2.62,3.6-3.59,2.59-2.17,11.88-8.77,14.38-9.88l.25-2.05c6.17-2.27,12.66-3.76,19.12-4.95l1.31,1.61Z"/>
  <path class="cls-271" d="M486.85,315.52c5.35-10.44,21.64-17.61,32.92-18.75,15.01-1.52,26.68,1.38,26.41,18.75-4.26,1.16-8.76,1.46-13.48.9-5.22.78-16.03,3.34-20.67,5.39-8.52-1.88-16.25-6.32-25.17-6.29Z"/>
  <path class="cls-192" d="M546.18,315.52c.35.04,1.63,1.36,2.7.9-.7.01-3.25.84-5.39.9-3.32.09-8.17.68-10.79-.9,4.43-.67,8.98-1.43,13.48-.9Z"/>
  <path class="cls-154" d="M549.78,320.91c8.14,1.96,12.37,5.12,14.38,13.47.62,1.28.7,2.52.24,3.72-.62.75-16.46.09-19.11-1.93-2.3-1.09-1.76-5.26.9-5.39-4.41-1.63-.76-11.46,3.6-9.88Z"/>
  <path class="cls-119" d="M565.06,336.18c2.54,1.55,2.72,6.98,0,8.08.53,1.39.36,1.74-.9.9-5.99-1.02-12.45-2.06-19.36-3.14l-1.31-2.25c-2-1.61-.65-3.91,1.8-3.59,5.77-.06,11.53-.03,17.31.24,2.78.13,1.57,1.55,1.57-2.03.08.33.77.9.9,1.8Z"/>
  <path class="cls-172" d="M535.39,320.01c2.63-.24,6.32-.17,8.99,0,3.44,2.44-.35,9.62-3.6,5.39-2.48,3.53-15.1,2.18-18.86.45l-.91-2.24c4.68-1.61,9.41-3.14,14.38-3.59Z"/>
  <path class="cls-255" d="M549.78,320.91c-1.71-.95-3.88,5.66-4.12,7.18-.25,1.51.55,2.57.53,2.7-3.12,4.22-6.66-2.19-5.39-5.39,4.15-.31,2.72-1.19,3.6-5.39,2.59.16,3.06.34,5.39.9Z"/>
  <path class="cls-218" d="M568.65,337.97c.25,2.64.42,5.46,0,8.08,2.18,1.3,1.57,2.3-.9,1.8-3.06,1.13-3.38-1.25-2.7-3.59-.38-2.45.37-5.62,0-8.08l3.6,1.8Z"/>
  <path class="cls-146" d="M570.45,346.06c3.75,1.06,4.34,7.3,2.92,10.56-1.87,4.3-8.7,5.17-11.91,7.41v-.9c-.39-2.33.34-4.84,2.17-7.53.59-3.71,1.97-6.29,4.13-7.74.07-.31.76-.89.9-1.8.57.09,1.32-.14,1.8,0Z"/>
  <path class="cls-152" d="M395.17,333.48c.32.95.62,1.85.9,2.69,2.23-.07,6.25,4.69,3.6,6.29-3.67-.95-5.46.14-5.38,3.29-6.62-.22-9.02.78-7.21,3,1.16-.61,3.33-.83,4.49,0,1.79-.08,1.65,1.33,0,1.8-.19,2.65-2.28,3.24-3.6.9-1.71,1.07-2.61,1.07-2.7,0-3,3.89-14.15,3.99-19,2.58s-13.02-6.38-12.46-11.56c-2.42,1.53-5.14-4.04-4.49-6.29-1.81-.21-1.73-1.1,0-1.8-3.16-1.27-3.59-12.8,0-13.47,16.21-2.06,32.76,2.42,45.84,12.57Z"/>
  <path class="cls-136" d="M385.28,351.45c.91-.14,1.21,1.06.9,3.59,1.45,1.07,2.95,2.27,4.49,3.59,2.08.59,4.18.89,6.29.9,2.01-2.25,6.5-3.98,8.09-.9-1.43,6.28-4.63,11.58-8.99,16.17-.22,0-1.46.66-1.8.9-7.35,2.13-17.06.86-20.18-7.22-9.58-3.32-19.76-4.76-30.53-4.32l-3.22-1.93c-.56-.67-1.21-1.19-1.8-1.8-2.62-4.53-4.41-9.21-5.39-14.37l.36-2.28c6.47-2.43,13.79-2.77,20.31-1.32,10.17,12.5,16.74,11.41,31.46,8.98Z"/>
  <path class="cls-164" d="M349.32,336.18c1.63.39,3.2,4.69,4.49,6.29-2.29,2.76-4.32.65-6.74.82-4.03.28-10.89.58-13.93,2.77-.65-3.41-1.34-6.04-.9-9.88,1.21-1.86,10.94-2.55,13.14-2.12.25.05,3.61,1.89,3.94,2.12Z"/>
  <path class="cls-75" d="M344.83,321.81l2.02-.04c-.71,5.62.11,9.82,2.47,12.62.05.59-.03,1.2,0,1.8-4.56-1.09-12.21,1-17.08,0,1-8.7,5.13-11.8,12.58-14.37Z"/>
  <path class="cls-279" d="M349.32,320.91c-2.02,4.67-.34,8.97,0,13.47-6.73,3.09-1.64-9.78-4.49-12.57,2.54-.87,2.41-.63,4.49-.9Z"/>
  <path class="cls-169" d="M405.06,347.85c.63,3.21.59,6.36-.13,9.46l-.77-.47c-2.73-1.63-2.44-8.98-.9-11.68-2.13-.41-3.32-1.31-3.6-2.69.1-2.62-1.2-5.14-3.6-6.29-.26-.85.04-1.15.9-.9,4.4,4.06,6.69,6.57,8.09,12.57Z"/>
  <path class="cls-274" d="M396.07,336.18c-2.65,2.44-7.2,5.29-10.8,3.15-3.59-2.13-1.08-9.32,2.7-8.09-8.87,7.59,4.57,10.44,7.2,2.25.9.7,1.2,1.24,1.8,1.8-.32.28-.59.61-.9.9Z"/>
  <path class="cls-124" d="M408.65,345.16l18.87,1.81c0,1.56-3.93.99-4.98.93-4.33-.22-8.56-1.54-12.99-.94-.07-.51-.74-1.21-.9-1.8Z"/>
  <path class="cls-86" d="M405.06,358.63c-3.68-2.01-5.09.11-8.09.9-.78-.25-.77-.55,0-.9-1.24-3.83,6.69-6.54,7.19-1.8.4.01.77.02.89-.45v-8.53c1.17,4.97,1.16,5.72,0,10.78Z"/>
  <path class="cls-286" d="M418.54,389.17c28.51.39,59.41.94,87.68.04,3.16-.1,9.04-3.11,9.4,1.75-4.78.03-9.6-.03-14.38,0-3.12,1.39-6.76,1.38-9.89,0-24.25.11-48.56.05-72.81,0v-1.8Z"/>
  <path class="cls-72" d="M396.07,380.19l3.59,3.59c-4.2-1.68-5.96,2.97-7.65,3.59-2.16.79-.8-2.29-2.23-2.69,1.16-1.44,4.51-2.91,6.29-4.49Z"/>
  <path class="cls-50" d="M501.24,390.96l-.9,1.8h-7.19l-1.8-1.8c3.29-.01,6.6.02,9.89,0Z"/>
  <path class="cls-134" d="M389.77,384.68c-.15.18.3,1.42-.06,1.69-1.29.98-5.3-1.48-4.43,1.9-2.47-.16-4.63-.75-6.29-.9,2.99,1.29,8.82-3.24,10.79-2.69Z"/>
  <path class="cls-282" d="M394.27,375.7c-9.94,7.04-14.67,10.31-27.88,6.75-12.95-3.48-18.3-10.98-26.05-20.23,7.13.38,30.2.46,35.01,4.98,1.32,1.24,1.46,3.17,2.78,4.41,4.56,4.28,10.88,2.28,16.14,4.08Z"/>
  <path class="cls-241" d="M543.48,339.77c5.84,1.92,12.08,1.59,18,3.17,1.5.4,3.18-.13,2.67,2.22,2.74,2.4-1.01,10.72-2.7,13.78-1.45,2.61-4.26,6.73-7.19,6.87-.96,1.27-3.3,2.84-4.87,3.4-9.04,3.23-36.07,5.65-45.5,5.95l-2.67-1.26c-.3.07-.66-.09-.9,0-3.94-4.18-5.62-7.14-7.19-12.57l1.99-1.79c14.03.14,25.23-2.36,31.73-15.38l2.23.11c1.04-1.37,1.94-1.67,2.7-.9,3.07-1.8,7.97-3.51,11.69-3.59Z"/>
  <path class="cls-265" d="M554.27,365.82c.78.25.77.55,0,.9-11.58,11.78-26.02,21.31-43.13,14.81-3.4-1.29-8.61-4.06-9.9-7.62,8.06-1.96,17.19-1.65,25.51-2.81,5.01-.7,24.54-3.32,27.53-5.28Z"/>
  <path class="cls-159" d="M565.06,344.26c.07.43,1.27,1.55.95,2.66.23.24,2.37-2.22,1.75.93-1.25,5.46-2.77,10.77-6.29,15.27-3.76-.48-4.17,5-7.19,3.59v-.9c4.84-3.18,8.86-15.15,9.89-20.66.04-.19.73-.55.9-.9Z"/>
  <path class="cls-20" d="M356.52,446.65c1.26,1.24,2.41,3.59,2.7,5.39-.64,1.74-.62,3.64,0,5.39-.49,2.34-5.14,6.64-7.19,7.19-.63.17-3.79.15-4.49,0-17.69-3.77-3.53-30.36,8.99-17.96Z"/>
  <path class="cls-120" d="M359.21,457.43c-1.47-.9-1.44-4.54,0-5.39.17,1.07.21,4.4,0,5.39Z"/>
  <path class="cls-84" d="M446.4,434.97c1.91.62.46,8.72.9,10.78h-41.8c-4.03-.76-1.37-3.02-1.35-3.6.29-1.85.59-3.95.9-6.29,12.62-.76,27.41-.76,40.45,0,.77,1.89.71,5.2,0,7.19-12,.75-26.85.77-39.55,0,.78.25.77.55,0,.9,12.31-.76,26.49-.76,39.1,0,.87-1.07.85.31.77.33-.91.23-1.61-.67-1.23-.91,2.14-1.33,1.82-5.69.61-7.83l1.2-.57Z"/>
  <path class="cls-268" d="M470.67,434.97c-1.63,3.35-.69,7.18-.9,10.78h-17.53c-2.14,0-1.17-8.86-1.35-10.78h19.78Z"/>
  <path class="cls-49" d="M493.15,445.75h-17.98c-.69,0-1.21-9.51-.9-10.78h17.53c.19,0,1.02-1.34,1.34-.9v11.68Z"/>
  <path class="cls-290" d="M446.4,434.97v9.88c-.33.44-1.16-.9-1.35-.9h-39.1v-.9h39.55v-7.19h-40.45c-.36,0,.27,6.19,0,7.19l-.89-.9c.08-2.38-.06-4.8,0-7.19h42.25Z"/>
  <rect class="cls-62" x="404.16" y="454.73" width="42.25" height="1.8"/>
  <rect class="cls-62" x="404.16" y="470.9" width="42.25" height="1.8"/>
  <rect class="cls-110" x="404.16" y="460.12" width="42.25" height="1.8"/>
  <path class="cls-113" d="M420.34,364.02c-1.93-.28-3.4-.35-5.39-.9,1.07-1.8,4.23-.27,5.39.9Z"/>
  <path class="cls-118" d="M438.31,362.22c-.84.3-1.47,1.25-3.6,1.8.5-1.22,2.04-1.78,2.7-2.69l.9.9Z"/>
  <path class="cls-243" d="M540.79,325.4c3.28,1.85.06,5.3,5.39,5.39-.28,1.92-.29,3.4-.9,5.39-.26.84-1.28,2.89-1.8,3.59-2.8,3.85-7.21,3.37-11.69,3.59,1.56-1.99.66-1.69-2.7.9-4.23,4.94-6.24,10.72-12.25,13.36-7.03,3.09-16.13,3.78-23.7,3.71-6.05-20.85,10.3-31.69,27.87-37.72,5.68,2.34,13.65,2.25,19.78,1.8Z"/>
  <path class="cls-139" d="M403.26,345.16c1.33,2.58.72,8.65.9,11.68-.58-.02-1.49-.96-2.92-.74-1.9.3-3.64,2.37-4.28,2.53-1.69,1.41-4.28.64-6.29,0-1.74-1.21-3.46-2.58-4.49-4.49-.67-2-.2-2.46,1.8-2.69.91-.17,2.54-.63,3.6-.9.67-.77.67-1.67,0-2.69-1.15.7-3.25.73-4.49,0l-.38-1.15c6.51.14,9.14-1.41,7.88-4.63,2.96.4,5.85,1.43,8.68,3.09Z"/>
  <path class="cls-60" d="M399.66,342.46c.67.37,3.36,2.25,3.6,2.69-2.35.82-6.24-2.9-8.09-1.79-.16.09,1.37,2.15-.88,3.13-2.44,1.06-5.35-.49-7.21,1.35.78.25.77.55,0,.9-.88-.08-1.81.06-2.69,0,.46-5.09,6.37-3.37,9.88-3.6-3.64-5.79.91-5.16,5.39-2.69Z"/>
  <path class="cls-182" d="M391.57,347.85c.7.11,1.68,1.11,2.69.91-.72,2.78-2.51,1.74-2.69,1.79v-1.8c-.78-.25-.77-.55,0-.9Z"/>
  <path class="cls-15" d="M387.98,351.45c-1.41.84-1.81,1.03-1.8,2.69.55.28.54.58,0,.9l-.9-3.59c.84-.14,1.88.15,2.7,0Z"/>
  <path class="cls-194" d="M391.57,347.85v.9c-1.48-.09-3.02.13-4.49,0v-.9c1.44.14,3.11-.21,4.49,0Z"/>
  <path class="cls-57" d="M396.97,358.63v.9c-3.65.95-3.21.61-6.29-.9.46.17,5.64.17,6.29,0Z"/>
  <path class="cls-114" d="M390.67,358.63c-1.81-.89-3.64-1.13-4.49-3.59-.07-.2,0-.59,0-.9,1.55.2,4.2,4.38,4.49,4.49Z"/>
  <path class="cls-76" d="M529.1,344.26c.84-.98.35-3.33,4.49-2.69.72.32-1.16,1.47-1.79,1.79-.87.44-1.7.83-2.7.9Z"/>
  <path class="cls-160" d="M539.89,329c.02,1.53.51,1.95-1.27,1.73-3.7-.46-8.84-1.9-12.42.08-1,.55-1.05,2.17-2.15,2.54-3.98,1.33-21.89-.52-13.82,8.22-1.13.91-8.21-3.3-8.98-4.94,1.17-1.53,3.06,1.24,4.05,1.15.41-.04,4.18-3.92,6.72-4.76,3.32-1.09,7.75-.75,11.03-1.56,1.17-.29,2.15-1.68,3.37-2.02,5.11-1.42,8.23-1.64,13.48-.45Z"/>
</svg>