<?xml version="1.0" encoding="UTF-8"?>
<svg id="Layer_6" data-name="Layer 6" xmlns="http://www.w3.org/2000/svg" viewBox="0 0 632 560">
  <defs>
    <style>
      .cls-1 {
        fill: #cab6cc;
      }

      .cls-2 {
        fill: #513647;
      }

      .cls-3 {
        fill: #f3eeff;
      }

      .cls-4 {
        fill: #ff947b;
      }

      .cls-5 {
        fill: #efb9a8;
      }

      .cls-6 {
        fill: #6b979b;
      }

      .cls-7 {
        fill: #56404e;
      }

      .cls-8 {
        fill: #497272;
      }

      .cls-9 {
        fill: #6f567a;
      }

      .cls-10 {
        fill: #fff;
      }

      .cls-11 {
        fill: #5b8789;
      }

      .cls-12 {
        fill: #684a5b;
      }

      .cls-13 {
        fill: #fad4c8;
      }

      .cls-14 {
        fill: #79918c;
      }

      .cls-15 {
        fill: #8fa8a4;
      }

      .cls-16 {
        fill: #c5c5d8;
      }

      .cls-17 {
        fill: #e2a89f;
      }

      .cls-18 {
        fill: #a4c1bd;
      }

      .cls-19 {
        fill: #ba9db6;
      }

      .cls-20 {
        fill: #dda697;
      }

      .cls-21 {
        fill: #64496d;
      }

      .cls-22 {
        fill: #927c96;
      }

      .cls-23 {
        fill: #ede2ec;
      }

      .cls-24 {
        fill: #ebe4ef;
      }

      .cls-25 {
        fill: #ffce6c;
      }

      .cls-26 {
        fill: #4b3c4f;
      }

      .cls-27 {
        fill: #ffd99c;
      }

      .cls-28 {
        fill: #eae9f4;
      }

      .cls-29 {
        fill: #dadaea;
      }

      .cls-30 {
        fill: #d6c8d3;
      }

      .cls-31 {
        fill: #e9f2ff;
      }

      .cls-32 {
        fill: #efe4ef;
      }

      .cls-33 {
        fill: #f4f4f4;
      }

      .cls-34 {
        fill: #a893aa;
      }

      .cls-35 {
        fill: #e8e7f2;
      }

      .cls-36 {
        fill: #4b3d60;
      }

      .cls-37 {
        fill: #e5715a;
      }

      .cls-38 {
        fill: #d9d3ed;
      }

      .cls-39 {
        fill: #f4e9f2;
      }

      .cls-40 {
        fill: #604c66;
      }
    </style>
  </defs>
  <path class="cls-31" d="M41,555.18s-52.09-87.06,11.23-157.62c63.32-70.56,58.41-160.48,29.71-212.54-28.69-52.06,66.29-216.49,224.58-126.62,158.3,89.87-36.44,291.39,62.46,336.35,98.9,44.96-13.65-146.67,23.73-159.81,37.38-13.14,177.3-34.61,189.55,88.98,12.26,123.59-27.32,205.13,26.81,231.25H41Z"/>
  <rect class="cls-28" x="181.51" y="246.56" width="2.11" height="286.51"/>
  <path class="cls-30" d="M435.06,88.5c.71.89,1.14,2.02,1.14,3.25v11.37c0,2.89-2.34,5.23-5.23,5.23h-11.87c-2.77,0-5.03-2.15-5.21-4.88,9.16-1.68,17.44-6.27,21.16-14.97Z"/>
  <path class="cls-39" d="M413.88,91.75c0-2.89,2.34-5.23,5.23-5.23h11.87c1.66,0,3.13.77,4.09,1.98-3.73,8.7-12,13.29-21.16,14.97,0-.12-.02-.23-.02-.35v-11.37Z"/>
  <path class="cls-30" d="M431.91,97.43c0,3.79-3.07,6.86-6.86,6.86s-6.86-3.07-6.86-6.86,3.07-6.86,6.86-6.86,6.86,3.07,6.86,6.86Z"/>
  <path class="cls-26" d="M430.82,97.43c0,3.19-2.59,5.78-5.78,5.78s-5.78-2.59-5.78-5.78,2.59-5.78,5.78-5.78,5.78,2.59,5.78,5.78Z"/>
  <rect class="cls-40" x="422.45" y="96.14" width="5.18" height="10.87" rx="2.22" ry="2.22"/>
  <path class="cls-40" d="M383.81,205.4l-1.28-.5c1.72-4.43,6.59-6.3,10.88-7.94.45-.17.89-.34,1.33-.51,11.27-4.43,20.22-12.83,24.54-23.05,3.99-9.43,4.03-20.08,4.08-30.37v-1.37c.07-12.41.48-24.99,1.22-37.38l1.37.08c-.74,12.37-1.15,24.92-1.21,37.31v1.37c-.05,10.43-.1,21.22-4.19,30.9-4.46,10.56-13.68,19.23-25.3,23.79-.44.17-.89.34-1.34.52-4.22,1.62-8.59,3.29-10.09,7.16Z"/>
  <g>
    <path class="cls-24" d="M319.89,153.12h3.3v-7.52c-1.2-.59-2.31-1.34-3.3-2.26v9.79Z"/>
    <path class="cls-10" d="M321.54,131.24c-.91,0-1.65.74-1.65,1.65v10.45c.99.93,2.1,1.67,3.3,2.26v-12.71c0-.91-.74-1.65-1.65-1.65Z"/>
    <path class="cls-33" d="M393.3,259.13v-30.02c-11.29-.38-22.58-1.94-33.77-5.03-20.97-5.93-40.35-17.31-54.95-33.26-.34,4.27-.52,8.56-.52,12.85l-.2,55.46h89.44Z"/>
    <path class="cls-10" d="M385.47,156.18l-.63-1.96c-.68-2.09-2.63-3.5-4.83-3.49l-63.54.3c-2.23.01-4.19,1.48-4.82,3.62l-.99,3.37c-3.16,10.7-5.19,21.7-6.08,32.8,14.6,15.95,33.98,27.33,54.95,33.26,11.18,3.08,22.48,4.64,33.77,5.03v-23.32c0-16.84-2.64-33.58-7.82-49.6Z"/>
    <g>
      <rect class="cls-18" x="314.97" y="155.49" width="67.42" height="85.07" rx="4.64" ry="4.64"/>
      <g>
        <g>
          <path class="cls-15" d="M348.56,217.38h0c-1.82,0-3.3-1.48-3.3-3.3v-18.62c0-1.82,1.48-3.3,3.3-3.3h0c1.82,0,3.3,1.48,3.3,3.3v18.62c0,1.82-1.48,3.3-3.3,3.3Z"/>
          <g>
            <circle class="cls-14" cx="348.56" cy="195.76" r="2.72"/>
            <g>
              <path class="cls-10" d="M348.56,193.7c-.87,0-1.61.54-1.91,1.3.59,1.4,2.02,2.13,3.46,2.11.32-.36.51-.83.51-1.35,0-1.14-.92-2.06-2.06-2.06Z"/>
              <path class="cls-35" d="M346.65,195.01c-.09.23-.14.49-.14.75,0,1.14.92,2.06,2.06,2.06.62,0,1.17-.27,1.55-.7-1.44.03-2.86-.7-3.46-2.11Z"/>
            </g>
          </g>
          <g>
            <path class="cls-14" d="M351.28,213.63c0,1.5-1.22,2.72-2.72,2.72s-2.72-1.22-2.72-2.72,1.22-2.72,2.72-2.72,2.72,1.22,2.72,2.72Z"/>
            <g>
              <path class="cls-10" d="M348.56,211.57c-.87,0-1.61.54-1.91,1.3.59,1.4,2.02,2.13,3.46,2.11.32-.36.51-.83.51-1.35,0-1.14-.92-2.06-2.06-2.06Z"/>
              <path class="cls-35" d="M346.65,212.87c-.09.23-.14.49-.14.75,0,1.14.92,2.06,2.06,2.06.62,0,1.17-.27,1.55-.7-1.44.03-2.86-.7-3.46-2.11Z"/>
            </g>
          </g>
        </g>
        <g>
          <path class="cls-15" d="M361.17,204.77h0c0,1.82-1.48,3.3-3.3,3.3h-18.62c-1.82,0-3.3-1.48-3.3-3.3h0c0-1.82,1.48-3.3,3.3-3.3h18.62c1.82,0,3.3,1.48,3.3,3.3Z"/>
          <g>
            <path class="cls-14" d="M357.25,202.05c1.5,0,2.72,1.22,2.72,2.72s-1.22,2.72-2.72,2.72-2.72-1.22-2.72-2.72,1.22-2.72,2.72-2.72Z"/>
            <g>
              <path class="cls-10" d="M357.3,202.71c-.87-.02-1.62.5-1.94,1.26.56,1.42,1.97,2.18,3.41,2.19.33-.35.53-.82.54-1.34.03-1.14-.87-2.08-2.01-2.1Z"/>
              <path class="cls-35" d="M355.35,203.97c-.1.23-.16.48-.16.75-.03,1.14.87,2.08,2.01,2.1.62.01,1.18-.25,1.56-.67-1.44,0-2.85-.77-3.41-2.19Z"/>
            </g>
          </g>
          <g>
            <path class="cls-14" d="M340.08,202.05c1.5,0,2.72,1.22,2.72,2.72s-1.22,2.72-2.72,2.72-2.72-1.22-2.72-2.72,1.22-2.72,2.72-2.72Z"/>
            <g>
              <path class="cls-10" d="M340.17,202.71c-.87-.04-1.63.47-1.97,1.21.53,1.43,1.92,2.22,3.36,2.26.33-.35.55-.81.57-1.33.05-1.13-.82-2.1-1.96-2.15Z"/>
              <path class="cls-35" d="M338.2,203.93c-.1.23-.17.48-.18.75-.05,1.13.82,2.1,1.96,2.15.62.03,1.18-.22,1.58-.63-1.44-.04-2.83-.84-3.36-2.26Z"/>
            </g>
          </g>
        </g>
      </g>
      <g>
        <rect class="cls-15" x="322.44" y="219.82" width="52.71" height="16.31" rx="4.07" ry="4.07"/>
        <g>
          <g>
            <g>
              <circle class="cls-14" cx="327.77" cy="224.35" r="2.82"/>
              <g>
                <path class="cls-10" d="M327.77,222.29c-.87,0-1.61.54-1.91,1.3.59,1.4,2.02,2.13,3.46,2.11.32-.36.51-.83.51-1.35,0-1.14-.92-2.06-2.06-2.06Z"/>
                <path class="cls-35" d="M325.85,223.59c-.09.23-.14.49-.14.75,0,1.14.92,2.06,2.06,2.06.62,0,1.17-.27,1.55-.7-1.44.03-2.86-.7-3.46-2.11Z"/>
              </g>
            </g>
            <g>
              <path class="cls-14" d="M338.99,224.35c0,1.56-1.26,2.82-2.82,2.82s-2.82-1.26-2.82-2.82,1.26-2.82,2.82-2.82,2.82,1.26,2.82,2.82Z"/>
              <g>
                <path class="cls-10" d="M336.18,222.29c-.87,0-1.61.54-1.91,1.3.59,1.4,2.02,2.13,3.46,2.11.32-.36.51-.83.51-1.35,0-1.14-.92-2.06-2.06-2.06Z"/>
                <path class="cls-35" d="M334.26,223.59c-.09.23-.14.49-.14.75,0,1.14.92,2.06,2.06,2.06.62,0,1.17-.27,1.55-.7-1.44.03-2.86-.7-3.46-2.11Z"/>
              </g>
            </g>
            <g>
              <circle class="cls-14" cx="344.59" cy="224.35" r="2.82"/>
              <g>
                <path class="cls-10" d="M344.59,222.29c-.87,0-1.61.54-1.91,1.3.59,1.4,2.02,2.13,3.46,2.11.32-.36.51-.83.51-1.35,0-1.14-.92-2.06-2.06-2.06Z"/>
                <path class="cls-35" d="M342.68,223.59c-.09.23-.14.49-.14.75,0,1.14.92,2.06,2.06,2.06.62,0,1.17-.27,1.55-.7-1.44.03-2.86-.7-3.46-2.11Z"/>
              </g>
            </g>
            <g>
              <circle class="cls-14" cx="353" cy="224.35" r="2.82"/>
              <g>
                <path class="cls-10" d="M353,222.29c-.87,0-1.61.54-1.91,1.3.59,1.4,2.02,2.13,3.46,2.11.32-.36.51-.83.51-1.35,0-1.14-.92-2.06-2.06-2.06Z"/>
                <path class="cls-35" d="M351.09,223.59c-.09.23-.14.49-.14.75,0,1.14.92,2.06,2.06,2.06.62,0,1.17-.27,1.55-.7-1.44.03-2.86-.7-3.46-2.11Z"/>
              </g>
            </g>
            <g>
              <circle class="cls-14" cx="361.41" cy="224.35" r="2.82"/>
              <g>
                <path class="cls-10" d="M361.41,222.29c-.87,0-1.61.54-1.91,1.3.59,1.4,2.02,2.13,3.46,2.11.32-.36.51-.83.51-1.35,0-1.14-.92-2.06-2.06-2.06Z"/>
                <path class="cls-35" d="M359.5,223.59c-.09.23-.14.49-.14.75,0,1.14.92,2.06,2.06,2.06.62,0,1.17-.27,1.55-.7-1.44.03-2.86-.7-3.46-2.11Z"/>
              </g>
            </g>
            <g>
              <circle class="cls-14" cx="369.82" cy="224.35" r="2.82"/>
              <g>
                <path class="cls-10" d="M369.82,222.29c-.87,0-1.61.54-1.91,1.3.59,1.4,2.02,2.13,3.46,2.11.32-.36.51-.83.51-1.35,0-1.14-.92-2.06-2.06-2.06Z"/>
                <path class="cls-35" d="M367.91,223.59c-.09.23-.14.49-.14.75,0,1.14.92,2.06,2.06,2.06.62,0,1.17-.27,1.55-.7-1.44.03-2.86-.7-3.46-2.11Z"/>
              </g>
            </g>
          </g>
          <g>
            <g>
              <circle class="cls-14" cx="327.77" cy="231.49" r="2.82"/>
              <g>
                <path class="cls-10" d="M327.77,229.44c-.87,0-1.61.54-1.91,1.3.59,1.4,2.02,2.13,3.46,2.11.32-.36.51-.83.51-1.35,0-1.14-.92-2.06-2.06-2.06Z"/>
                <path class="cls-35" d="M325.85,230.74c-.09.23-.14.49-.14.75,0,1.14.92,2.06,2.06,2.06.62,0,1.17-.27,1.55-.7-1.44.03-2.86-.7-3.46-2.11Z"/>
              </g>
            </g>
            <g>
              <path class="cls-14" d="M338.99,231.49c0,1.56-1.26,2.82-2.82,2.82s-2.82-1.26-2.82-2.82,1.26-2.82,2.82-2.82,2.82,1.26,2.82,2.82Z"/>
              <g>
                <path class="cls-10" d="M336.18,229.44c-.87,0-1.61.54-1.91,1.3.59,1.4,2.02,2.13,3.46,2.11.32-.36.51-.83.51-1.35,0-1.14-.92-2.06-2.06-2.06Z"/>
                <path class="cls-35" d="M334.26,230.74c-.09.23-.14.49-.14.75,0,1.14.92,2.06,2.06,2.06.62,0,1.17-.27,1.55-.7-1.44.03-2.86-.7-3.46-2.11Z"/>
              </g>
            </g>
            <g>
              <circle class="cls-14" cx="344.59" cy="231.49" r="2.82"/>
              <g>
                <path class="cls-10" d="M344.59,229.44c-.87,0-1.61.54-1.91,1.3.59,1.4,2.02,2.13,3.46,2.11.32-.36.51-.83.51-1.35,0-1.14-.92-2.06-2.06-2.06Z"/>
                <path class="cls-35" d="M342.68,230.74c-.09.23-.14.49-.14.75,0,1.14.92,2.06,2.06,2.06.62,0,1.17-.27,1.55-.7-1.44.03-2.86-.7-3.46-2.11Z"/>
              </g>
            </g>
            <g>
              <circle class="cls-14" cx="353" cy="231.49" r="2.82"/>
              <g>
                <path class="cls-10" d="M353,229.44c-.87,0-1.61.54-1.91,1.3.59,1.4,2.02,2.13,3.46,2.11.32-.36.51-.83.51-1.35,0-1.14-.92-2.06-2.06-2.06Z"/>
                <path class="cls-35" d="M351.09,230.74c-.09.23-.14.49-.14.75,0,1.14.92,2.06,2.06,2.06.62,0,1.17-.27,1.55-.7-1.44.03-2.86-.7-3.46-2.11Z"/>
              </g>
            </g>
            <g>
              <circle class="cls-14" cx="361.41" cy="231.49" r="2.82"/>
              <g>
                <path class="cls-10" d="M361.41,229.44c-.87,0-1.61.54-1.91,1.3.59,1.4,2.02,2.13,3.46,2.11.32-.36.51-.83.51-1.35,0-1.14-.92-2.06-2.06-2.06Z"/>
                <path class="cls-35" d="M359.5,230.74c-.09.23-.14.49-.14.75,0,1.14.92,2.06,2.06,2.06.62,0,1.17-.27,1.55-.7-1.44.03-2.86-.7-3.46-2.11Z"/>
              </g>
            </g>
            <g>
              <circle class="cls-14" cx="369.82" cy="231.49" r="2.82"/>
              <g>
                <path class="cls-10" d="M369.82,229.44c-.87,0-1.61.54-1.91,1.3.59,1.4,2.02,2.13,3.46,2.11.32-.36.51-.83.51-1.35,0-1.14-.92-2.06-2.06-2.06Z"/>
                <path class="cls-35" d="M367.91,230.74c-.09.23-.14.49-.14.75,0,1.14.92,2.06,2.06,2.06.62,0,1.17-.27,1.55-.7-1.44.03-2.86-.7-3.46-2.11Z"/>
              </g>
            </g>
          </g>
        </g>
      </g>
      <rect class="cls-15" x="318.96" y="158.75" width="59.67" height="31.16" rx="3.6" ry="3.6"/>
      <path class="cls-9" d="M339.27,176.06c11.97,4.6,25.16,6.47,37.86,4.9v-18.14c0-1.54-1.24-2.78-2.78-2.78h-49.52c1.33,7.42,7.88,13.63,14.44,16.02Z"/>
      <path class="cls-21" d="M339.27,176.06c-6.56-2.39-13.11-8.6-14.44-16.02h-1.58c-1.54,0-2.78,1.24-2.78,2.78v22.66c0,1.54,1.24,2.78,2.78,2.78h51.1c1.54,0,2.78-1.24,2.78-2.78v-4.52c-12.7,1.57-25.88-.29-37.86-4.9Z"/>
    </g>
  </g>
  <g>
    <path class="cls-30" d="M75.92,464.72v-2.79c-2.41-1.21-4.06-3.7-4.06-6.57,0-4.07,3.3-7.36,7.36-7.36s7.36,3.3,7.36,7.36c0,2.88-1.65,5.36-4.06,6.57v2.79c0,1.38-.99,2.53-2.3,2.78.06.59.13,1.17.2,1.76h6.36c3.68,0,6.66-2.98,6.66-6.66v-14.48c0-1.57-.54-3-1.45-4.14-1.25,2.91-2.9,5.46-4.86,7.67-1.4-2.97-4.41-5.04-7.91-5.04-4.83,0-8.75,3.92-8.75,8.75,0,2.18.8,4.16,2.12,5.69-2.43.86-4.97,1.52-7.57,2,.23,3.47,3.11,6.21,6.64,6.21h6.99c-.07-.57-.13-1.14-.19-1.72-1.43-.14-2.54-1.35-2.54-2.81Z"/>
    <path class="cls-12" d="M135.01,248.96c-.33,7.7,1.15,15.63,2.57,23.3.67,3.62,1.37,7.37,1.85,10.98,4.31,32.5,5.94,64.71,4.84,95.73-.67,18.87-1.87,41.21-5.65,63.85l-.16.95c-2.23,13.34-4.53,27.13-10.64,39.26-4.69,9.31-12.61,16.36-20.17,17.97-5.36,1.14-10.49-.26-15.26-4.15-4.2-3.43-7.48-8.62-9.49-15.03-1.27-4.04-1.97-8.24-2.48-12.56-.07-.58-.13-1.17-.2-1.76-.17.03-.35.05-.53.05h-.95c-.1,0-.19,0-.29-.01.06.57.13,1.15.19,1.72.52,4.48,1.25,8.86,2.58,13.09,2.11,6.73,5.59,12.22,10.06,15.86,4.02,3.28,8.3,4.94,12.77,4.94,1.31,0,2.64-.14,3.98-.43,6.42-1.37,15.4-7.05,21.37-18.9,6.23-12.37,8.56-26.3,10.8-39.76l.16-.95c3.8-22.73,5-45.15,5.67-64.07,1.11-31.12-.52-63.43-4.85-96.02-.49-3.65-1.19-7.42-1.87-11.07-1.41-7.57-2.87-15.4-2.55-22.9.56-12.93,6.69-21.78,16.8-24.84.09-.61.19-1.25.3-1.93-11.34,3-18.24,12.55-18.85,26.69Z"/>
    <path class="cls-39" d="M70.47,455.35c0-4.83,3.92-8.75,8.75-8.75,3.5,0,6.51,2.06,7.91,5.04,1.96-2.22,3.61-4.76,4.86-7.67-1.22-1.53-3.1-2.52-5.21-2.52h-15.12c-3.68,0-6.66,2.98-6.66,6.66v14.48c0,.15.01.3.02.45,2.6-.48,5.14-1.14,7.57-2-1.32-1.53-2.12-3.52-2.12-5.69Z"/>
    <path class="cls-26" d="M75.92,456.53c0-1.56,1.27-2.83,2.83-2.83h.95c1.56,0,2.83,1.27,2.83,2.83v5.4c2.41-1.21,4.06-3.7,4.06-6.57,0-4.07-3.3-7.36-7.36-7.36s-7.36,3.3-7.36,7.36c0,2.88,1.65,5.36,4.06,6.57v-5.4Z"/>
    <path class="cls-40" d="M82.52,464.72v-8.19c0-1.56-1.27-2.83-2.83-2.83h-.95c-1.56,0-2.83,1.27-2.83,2.83v8.19c0,1.47,1.11,2.67,2.54,2.81.09,0,.19.01.29.01h.95c.18,0,.36-.02.53-.05,1.31-.25,2.3-1.4,2.3-2.78Z"/>
    <path class="cls-25" d="M160.49,155.25c-2.11-3.79-4.29-7.7-6.04-11.89-3.05-7.33-2.2-16.26-1.38-24.9.29-3.05.58-6.19.7-9.23-.2.12-.43.19-.67.19s-.45-.06-.65-.17c-.12,2.98-.41,6.08-.7,9.09-.83,8.8-1.69,17.9,1.48,25.53,1.77,4.26,3.97,8.21,6.1,12.03,4.14,7.42,8.06,14.46,8.79,23.29h1.32c-.73-9.16-4.73-16.35-8.96-23.93Z"/>
    <path class="cls-28" d="M190.46,252.92c-.14.04-.29.07-.44.07h-3.28c-.15,0-.3-.03-.44-.07v141.77c1.25-.61,2.65-1.09,4.16-1.41v-140.36Z"/>
    <path class="cls-28" d="M186.74,174.8h3.28c.15,0,.3.03.44.07V37.09h-4.16v137.78c.14-.04.29-.07.44-.07Z"/>
    <polygon class="cls-28" points="190.46 474.17 188.34 474.17 188.34 459.26 186.3 459.26 186.3 508.06 190.46 508.06 190.46 474.17"/>
    <polygon class="cls-28" points="186.3 527.18 190.46 527.23 190.46 523.09 186.3 523.09 186.3 527.18"/>
    <path class="cls-28" d="M190.46,14.57c-.21.24-.51.39-.85.39h-2.36c-.41,0-.76-.22-.96-.54v19.16h4.16V14.57Z"/>
    <path class="cls-26" d="M235.96,540.46c0,3.29-2.67,5.95-5.95,5.95s-5.95-2.67-5.95-5.95c0-1.33.44-2.56,1.18-3.55l-.79-1.61-.6-1.23c-1.67,1.61-2.72,3.88-2.72,6.39,0,4.9,3.97,8.88,8.88,8.88s8.88-3.97,8.88-8.88c0-2.62-1.14-4.96-2.94-6.58l-1.27,2.89c.8,1.02,1.29,2.3,1.29,3.69Z"/>
    <path class="cls-19" d="M230,546.42c3.29,0,5.95-2.67,5.95-5.95,0-1.39-.48-2.68-1.29-3.69l-1.56,3.53c-1.16,2.65-4.89,2.72-6.16.12l-1.72-3.52c-.74.99-1.18,2.22-1.18,3.55,0,3.29,2.67,5.95,5.95,5.95Z"/>
    <path class="cls-23" d="M224.45,535.3l.79,1.61,1.72,3.52c1.27,2.6,5,2.52,6.16-.12l1.56-3.53,1.27-2.89.82-1.86c.65-1.47.16-3.05-.94-3.97-1.95,4.62-6.57,7.28-11.38,7.26Z"/>
    <path class="cls-26" d="M194.34,540.46c0,3.29-2.67,5.95-5.95,5.95s-5.95-2.67-5.95-5.95c0-1.33.44-2.56,1.18-3.55l-.79-1.61-.6-1.23c-1.67,1.61-2.72,3.88-2.72,6.39,0,4.9,3.97,8.88,8.88,8.88s8.88-3.97,8.88-8.88c0-2.62-1.14-4.96-2.94-6.58l-1.27,2.89c.8,1.02,1.29,2.3,1.29,3.69Z"/>
    <path class="cls-19" d="M188.38,546.42c3.29,0,5.95-2.67,5.95-5.95,0-1.39-.48-2.68-1.29-3.69l-1.56,3.53c-1.16,2.65-4.89,2.72-6.16.12l-1.72-3.52c-.74.99-1.18,2.22-1.18,3.55,0,3.29,2.67,5.95,5.95,5.95Z"/>
    <path class="cls-10" d="M184.33,527.16c-2.53-.03-4.2,2.62-3.09,4.89l.99,2.02.6,1.23c4.81.02,9.44-2.63,11.38-7.26-.57-.48-1.3-.78-2.13-.79l-1.61-.02-4.16-.05-1.98-.02Z"/>
    <path class="cls-23" d="M182.83,535.3l.79,1.61,1.72,3.52c1.27,2.6,5,2.52,6.16-.12l1.56-3.53,1.27-2.89.82-1.86c.65-1.47.16-3.05-.94-3.97-1.95,4.62-6.57,7.28-11.38,7.26Z"/>
    <path class="cls-26" d="M152.72,540.46c0,3.29-2.67,5.95-5.95,5.95s-5.95-2.67-5.95-5.95c0-1.33.44-2.56,1.18-3.55l-.79-1.61-.6-1.23c-1.68,1.61-2.72,3.88-2.72,6.39,0,4.9,3.97,8.88,8.88,8.88s8.88-3.97,8.88-8.88c0-2.62-1.14-4.96-2.94-6.58l-1.27,2.89c.8,1.02,1.29,2.3,1.29,3.69Z"/>
    <path class="cls-19" d="M146.76,546.42c3.29,0,5.95-2.67,5.95-5.95,0-1.39-.48-2.68-1.29-3.69l-1.56,3.53c-1.16,2.65-4.89,2.72-6.16.12l-1.72-3.52c-.74.99-1.18,2.22-1.18,3.55,0,3.29,2.67,5.95,5.95,5.95Z"/>
    <path class="cls-23" d="M141.2,535.3l.79,1.61,1.72,3.52c1.27,2.6,5,2.52,6.16-.12l1.56-3.53,1.27-2.89.82-1.86c.65-1.47.16-3.05-.94-3.97-1.95,4.62-6.57,7.28-11.38,7.26Z"/>
    <path class="cls-32" d="M160.81,19.52v-4.76c-.18.12-.4.2-.64.2h-2.36c-.19,0-.36-.05-.52-.13v4.7c0,1.41-.68,2.67-1.72,3.47h4.42c.52-1.05.82-2.22.82-3.47Z"/>
    <path class="cls-32" d="M148.55,19.52v-4.69c-.15.08-.32.12-.5.12h-2.36c-.25,0-.47-.08-.65-.21v4.78c0,1.25.3,2.42.82,3.47h4.42c-1.05-.8-1.72-2.05-1.72-3.47Z"/>
    <path class="cls-10" d="M135.25,46.71v-5.24c0-2.17,1.77-3.94,3.94-3.94h27.51c2.17,0,3.94,1.77,3.94,3.94v20.22c.24-.22.48-.45.72-.67.42-.4.84-.81,1.24-1.22.04-.04.07-.07.1-.11.6-.62,1.19-1.25,1.76-1.9.08-.09.15-.17.23-.25h0v-20.45h-14.18c-4.36,0-8.04-2.93-9.19-6.92-.72-.51-1.19-1.35-1.19-2.29,0-.33.06-.64.16-.93.39-1.09,1.43-1.88,2.65-1.88s2.26.78,2.65,1.87c.11.3.17.61.17.95,0,.78-.32,1.49-.83,2,.92,2.17,3.08,3.7,5.58,3.7h14.18v-5.31c0-2.9-2.37-5.27-5.27-5.27h-32.95c-2.9,0-5.27,2.37-5.27,5.27v48.73c1.35.01,2.7-.03,4.05-.11v-30.17Z"/>
    <path class="cls-32" d="M166.7,37.54h-27.51c-2.17,0-3.94,1.77-3.94,3.94v5.24h35.38v-5.24c0-2.17-1.77-3.94-3.94-3.94Z"/>
    <path class="cls-27" d="M170.63,61.7h0v-14.98h-35.38v30.17h0c12.97-.83,25.75-6.29,35.38-15.18Z"/>
    <path class="cls-25" d="M135.25,76.88v10.84c0,2.17,1.77,3.94,3.94,3.94h27.51c2.17,0,3.94-1.77,3.94-3.94v-26.03c-9.64,8.9-22.41,14.35-35.38,15.19Z"/>
    <path class="cls-32" d="M160.41,98.18c1.22,0,2.2-.99,2.2-2.2v-.51h6.8c2.9,0,5.27-2.37,5.27-5.27v-32.67h0c-.08.09-.15.17-.23.25-.57.65-1.16,1.28-1.76,1.9-.04.04-.07.07-.1.11-.41.42-.82.82-1.24,1.22-.24.23-.48.45-.72.67h0v26.03c0,2.17-1.77,3.94-3.94,3.94h-27.51c-2.17,0-3.94-1.77-3.94-3.94v-10.84h0c-1.35.08-2.7.12-4.05.11v13.21c0,2.9,2.37,5.27,5.27,5.27h7.14v.51c0,1.22.99,2.2,2.2,2.2h14.6Z"/>
    <path class="cls-2" d="M153.78,109.23c.26-.15.46-.39.56-.69l1.37-3.96c.38-1.1.58-2.26.58-3.43,0-.57-.36-1.05-.87-1.23v-1.74h-4.61v1.74c-.5.18-.87.66-.87,1.23v.02c0,1.16.19,2.3.57,3.4l1.36,3.97c.11.31.32.56.59.71.19.11.41.17.65.17.24,0,.47-.07.67-.19Z"/>
    <path class="cls-32" d="M154.93,29.87c-.31-.73-.48-1.52-.48-2.36,0-.09-.01-.17-.03-.26.4-.08.79-.19,1.17-.33-.39-1.09-1.43-1.87-2.65-1.87s-2.27.79-2.65,1.88c.22.08.45.15.68.21-.02.12-.04.24-.04.36,0,.92.14,1.81.38,2.65,1.15,3.99,4.83,6.92,9.19,6.92h41.85v-3.51h-41.85c-2.51,0-4.66-1.53-5.58-3.7Z"/>
    <path class="cls-2" d="M221.97,100.43c-.5.18-.87.66-.87,1.23v.02c0,1.16.19,2.3.57,3.4l1.36,3.97c.11.31.32.56.6.71,0-.24.01-.46.02-.68l1.28.05c0,.2-.01.41-.02.63.27-.15.49-.4.6-.71l1.37-3.96c.38-1.1.58-2.27.58-3.43,0-.57-.36-1.05-.87-1.23v-1.74h-4.61v1.74Z"/>
    <path class="cls-10" d="M225.78,23.5h-3.58c.55.25,1.15.39,1.79.39s1.24-.14,1.79-.39Z"/>
    <path class="cls-10" d="M202.36,77.51c1.35.01,2.7-.03,4.05-.11v-35.41c0-2.17,1.77-3.94,3.94-3.94h27.51c2.17,0,3.94,1.77,3.94,3.94v20.22c.67-.62,1.32-1.25,1.96-1.9.72-.73,1.42-1.49,2.09-2.26h0v-29.27c0-2.9-2.37-5.27-5.27-5.27h-9.8c-.95,1.61-2.45,2.86-4.25,3.47.24.42.38.9.38,1.42,0,1.16-.71,2.16-1.72,2.59-.34.14-.71.22-1.1.22-.95,0-1.79-.47-2.3-1.2-.32-.46-.51-1.01-.51-1.62,0-.49.12-.95.34-1.34-1.88-.59-3.46-1.87-4.44-3.54h-9.56c-2.9,0-5.27,2.37-5.27,5.27v48.73Z"/>
    <path class="cls-32" d="M241.8,41.99c0-2.17-1.77-3.94-3.94-3.94h-27.51c-2.17,0-3.94,1.77-3.94,3.94v5.24h35.38v-5.24Z"/>
    <path class="cls-32" d="M243.76,60.31c-.64.65-1.29,1.28-1.96,1.9h0v26.03c0,2.17-1.77,3.94-3.94,3.94h-27.51c-2.17,0-3.94-1.77-3.94-3.94v-10.84h0c-1.35.08-2.7.12-4.05.11v13.21c0,2.9,2.37,5.27,5.27,5.27h7.14v.51c0,1.22.99,2.2,2.2,2.2h14.6c1.22,0,2.2-.99,2.2-2.2v-.51h6.8c2.9,0,5.27-2.37,5.27-5.27v-32.67h0c-.68.77-1.37,1.53-2.09,2.26Z"/>
    <path class="cls-4" d="M206.42,77.4c12.97-.83,25.75-6.29,35.38-15.19h0v-14.98h-35.38v30.17h0Z"/>
    <path class="cls-37" d="M206.42,77.4v10.84c0,2.17,1.77,3.94,3.94,3.94h27.51c2.17,0,3.94-1.77,3.94-3.94v-26.03c-9.64,8.9-22.41,14.35-35.38,15.19Z"/>
    <path class="cls-32" d="M221.64,27.05c.23.07.47.13.71.18v.28c0,.89-.2,1.73-.54,2.49.51.72,1.35,1.2,2.3,1.2.39,0,.76-.08,1.1-.22.42-1.08.66-2.24.66-3.47v-.34c.23-.06.45-.12.67-.2,1.8-.62,3.3-1.86,4.25-3.47.69-1.17,1.09-2.53,1.09-3.98v-4.88c-.2.19-.47.31-.77.31h-2.36c-.13,0-.26-.03-.38-.07v4.64c0,1.77-1.06,3.3-2.58,3.98-.55.25-1.15.39-1.79.39s-1.24-.14-1.79-.39c-1.52-.69-2.58-2.21-2.58-3.98v-4.76c-.18.12-.4.2-.64.2h-2.36c-.19,0-.36-.05-.52-.13v4.7c0,1.45.4,2.81,1.09,3.98.98,1.67,2.56,2.95,4.44,3.54Z"/>
    <path class="cls-7" d="M190.78,243.93c.28.06.55.14.81.23v-2.83c-2.14-.02-4.29-.08-6.42-.16v5.06c1.33-1.61,3.46-2.57,5.6-2.31Z"/>
    <path class="cls-12" d="M190.03,252.99c.15,0,.3-.03.44-.07.65-.19,1.13-.78,1.13-1.5v-7.27c-.27-.09-.54-.17-.81-.23-2.14-.27-4.27.7-5.6,2.31v5.19c0,.71.48,1.31,1.13,1.5.14.04.29.07.44.07h3.28Z"/>
    <path class="cls-7" d="M185.99,183.87c-.28-.06-.55-.14-.81-.23v3.17h6.42v-5.25c-1.33,1.61-3.47,2.57-5.6,2.31Z"/>
    <path class="cls-12" d="M186.74,174.8c-.15,0-.3.03-.44.07-.65.19-1.13.78-1.13,1.5v7.27c.27.09.54.17.81.23,2.14.27,4.27-.7,5.6-2.31v-5.19c0-.71-.48-1.31-1.13-1.5-.14-.04-.29-.07-.44-.07h-3.28Z"/>
    <path class="cls-7" d="M171.1,183.35c-.82.99-2.13,1.59-3.45,1.42-.17-.04-.34-.09-.5-.14v2.18h3.95v-3.46Z"/>
    <path class="cls-12" d="M171.1,183.35v-3.2c0-.53-.43-.97-.97-.97h-2.02c-.53,0-.97.43-.97.97v4.48c.16.06.33.11.5.14,1.32.16,2.63-.43,3.45-1.42Z"/>
    <path class="cls-32" d="M221.12,209.84l-1.49-17.4c-.27-3.18-2.94-5.63-6.13-5.63h-49.55c-3.19,0-5.86,2.44-6.13,5.63l-1.47,17.08c36.01,12.21,64.43.46,64.77.32ZM170.24,205.01v-10.19c0-1.36,1-2.47,2.22-2.47h31.82c1.22,0,2.22,1.11,2.22,2.47v10.19c0,1.36-1,2.47-2.22,2.47h-31.82c-1.22,0-2.22-1.11-2.22-2.47Z"/>
    <path class="cls-10" d="M191.59,241.33c10.36.11,20.42-.56,26.63-2.57,3.27-1.06,5.51-4.1,5.59-7.54.2-8.85-2.69-21.39-2.69-21.39,0,0,0,0,0,0-.34.14-28.76,11.89-64.77-.32,0,0-.02,0-.03,0-1.12,5.3-1.92,9.43-2.46,12.77-.11.67-.21,1.31-.3,1.93-.37,2.52-.56,4.55-.62,6.31-.13,3.98,2.69,7.44,6.6,8.16,5.99,1.1,15.61,2.11,25.63,2.5,2.13.08,4.28.14,6.42.16ZM195.49,232.01c-.9,0-1.68-.51-2.08-1.26-.18-.33-.29-.71-.29-1.12,0-1.31,1.06-2.37,2.37-2.37.44,0,.85.13,1.21.34.69.41,1.16,1.16,1.16,2.03,0,1.31-1.06,2.37-2.37,2.37ZM203.84,231.26c-.9,0-1.68-.51-2.08-1.26-.18-.33-.29-.71-.29-1.12,0-1.31,1.06-2.37,2.37-2.37.44,0,.85.13,1.21.34.69.41,1.16,1.16,1.16,2.03,0,1.31-1.06,2.37-2.37,2.37ZM212.19,229.7c-.9,0-1.68-.51-2.08-1.26-.18-.33-.29-.71-.29-1.12,0-1.31,1.06-2.37,2.37-2.37.44,0,.85.13,1.21.34.69.41,1.16,1.16,1.16,2.03,0,1.31-1.06,2.37-2.37,2.37ZM212.11,216.61c.44,0,.85.13,1.21.34.69.41,1.16,1.16,1.16,2.03,0,1.31-1.06,2.37-2.37,2.37-.9,0-1.68-.51-2.08-1.26-.18-.33-.29-.71-.29-1.12,0-1.31,1.06-2.37,2.37-2.37ZM203.77,218.17c.44,0,.85.13,1.21.34.69.41,1.16,1.16,1.16,2.03,0,1.31-1.06,2.37-2.37,2.37-.9,0-1.68-.51-2.08-1.26-.18-.33-.29-.71-.29-1.12,0-1.31,1.06-2.37,2.37-2.37ZM195.42,218.92c.44,0,.85.13,1.21.34.69.41,1.16,1.16,1.16,2.03,0,1.31-1.06,2.37-2.37,2.37-.9,0-1.68-.51-2.08-1.26-.18-.33-.29-.71-.29-1.12,0-1.31,1.06-2.37,2.37-2.37ZM187.07,219.05c.44,0,.85.13,1.21.34.69.41,1.16,1.16,1.16,2.03,0,1.31-1.06,2.37-2.37,2.37-.9,0-1.68-.51-2.08-1.26-.18-.33-.29-.71-.29-1.12,0-1.31,1.06-2.37,2.37-2.37ZM178.73,218.66c.44,0,.85.13,1.21.34.69.41,1.16,1.16,1.16,2.03,0,1.31-1.06,2.37-2.37,2.37-.9,0-1.68-.51-2.08-1.26-.18-.33-.29-.71-.29-1.12,0-1.31,1.06-2.37,2.37-2.37ZM170.38,217.69c.44,0,.85.13,1.21.34.69.41,1.16,1.16,1.16,2.03,0,1.31-1.06,2.37-2.37,2.37-.9,0-1.68-.51-2.08-1.26-.18-.33-.29-.71-.29-1.12,0-1.31,1.06-2.37,2.37-2.37ZM162.04,216.25c.44,0,.85.13,1.21.34.69.41,1.16,1.16,1.16,2.03,0,1.31-1.06,2.37-2.37,2.37-.9,0-1.68-.51-2.08-1.26-.18-.33-.29-.71-.29-1.12,0-1.31,1.06-2.37,2.37-2.37ZM162.11,229.34c-.9,0-1.68-.51-2.08-1.26-.18-.33-.29-.71-.29-1.12,0-1.31,1.06-2.37,2.37-2.37.44,0,.85.13,1.21.34.69.41,1.16,1.16,1.16,2.03,0,1.31-1.06,2.37-2.37,2.37ZM170.46,230.78c-.9,0-1.68-.51-2.08-1.26-.18-.33-.29-.71-.29-1.12,0-1.31,1.06-2.37,2.37-2.37.44,0,.85.13,1.21.34.69.41,1.16,1.16,1.16,2.03,0,1.31-1.06,2.37-2.37,2.37ZM178.8,231.75c-.9,0-1.68-.51-2.08-1.26-.18-.33-.29-.71-.29-1.12,0-1.31,1.06-2.37,2.37-2.37.44,0,.85.13,1.21.34.69.41,1.16,1.16,1.16,2.03,0,1.31-1.06,2.37-2.37,2.37ZM184.78,229.77c0-1.31,1.06-2.37,2.37-2.37.44,0,.85.13,1.21.34.69.41,1.16,1.16,1.16,2.03,0,1.31-1.06,2.37-2.37,2.37-.9,0-1.68-.51-2.08-1.26-.18-.33-.29-.71-.29-1.12Z"/>
    <path class="cls-1" d="M204.28,207.48c1.22,0,2.22-1.11,2.22-2.47v-10.19c0-1.36-1-2.47-2.22-2.47h-31.82c-1.22,0-2.22,1.11-2.22,2.47v10.19c0,1.36,1,2.47,2.22,2.47h31.82ZM171.97,203.98v-8.31c0-1.11.91-2.02,2.02-2.02h28.89c1.11,0,2.02.91,2.02,2.02v8.31c0,1.11-.91,2.02-2.02,2.02h-28.89c-1.11,0-2.02-.91-2.02-2.02Z"/>
    <path class="cls-12" d="M201.49,193.65h-27.5c-1.11,0-2.02.91-2.02,2.02v5.12c10.37,2.07,22.2.23,29.52-7.14Z"/>
    <path class="cls-7" d="M202.87,205.99c1.11,0,2.02-.91,2.02-2.02v-8.31c0-1.11-.91-2.02-2.02-2.02h-1.39c-7.31,7.36-19.14,9.2-29.52,7.14v3.19c0,1.11.91,2.02,2.02,2.02h28.89Z"/>
    <path class="cls-34" d="M210.81,219.98c-.21-.28-.34-.62-.34-1,0-.91.74-1.65,1.65-1.65.51,0,.96.23,1.26.6.05-.29.04-.62-.05-.98-.36-.21-.76-.34-1.21-.34-1.31,0-2.37,1.06-2.37,2.37,0,.41.11.78.29,1.12.26-.03.52-.07.77-.12Z"/>
    <path class="cls-22" d="M213.37,217.93s0,0,0,0c.24.29.39.65.39,1.06,0,.91-.74,1.65-1.65,1.65-.53,0-1.01-.26-1.31-.65,0,0,0,0,0,0-.25.05-.51.09-.77.12.4.74,1.18,1.26,2.08,1.26,1.31,0,2.37-1.06,2.37-2.37,0-.87-.47-1.62-1.16-2.03.09.36.1.68.05.98Z"/>
    <path class="cls-10" d="M213.37,217.93s0,0,0,0c-.3-.36-.75-.6-1.26-.6-.91,0-1.65.74-1.65,1.65,0,.38.13.72.34,1,0,0,0,0,0,0,1.3-.27,2.39-.93,2.57-2.06Z"/>
    <path class="cls-32" d="M210.81,219.98c.3.39.77.65,1.31.65.91,0,1.65-.74,1.65-1.65,0-.4-.15-.77-.39-1.06-.18,1.13-1.27,1.78-2.57,2.06Z"/>
    <path class="cls-34" d="M202.46,221.54c-.21-.28-.34-.62-.34-1,0-.91.74-1.65,1.65-1.65.51,0,.96.23,1.26.6.05-.29.04-.62-.05-.97-.36-.21-.76-.34-1.21-.34-1.31,0-2.37,1.06-2.37,2.37,0,.41.11.78.29,1.12.26-.03.52-.06.77-.12Z"/>
    <path class="cls-22" d="M205.03,219.48s0,0,0,0c.24.29.39.65.39,1.06,0,.91-.74,1.65-1.65,1.65-.53,0-1.01-.26-1.31-.65,0,0,0,0,0,0-.25.05-.51.09-.77.12.4.74,1.18,1.26,2.08,1.26,1.31,0,2.37-1.06,2.37-2.37,0-.87-.47-1.62-1.16-2.03.09.36.1.68.05.97Z"/>
    <path class="cls-10" d="M205.03,219.49s0,0,0,0c-.3-.36-.75-.6-1.26-.6-.91,0-1.65.74-1.65,1.65,0,.38.13.72.34,1,0,0,0,0,0,0,1.3-.27,2.39-.93,2.57-2.06Z"/>
    <path class="cls-32" d="M202.46,221.54c.3.39.77.65,1.31.65.91,0,1.65-.74,1.65-1.65,0-.4-.15-.77-.39-1.06-.18,1.13-1.27,1.78-2.57,2.06Z"/>
    <path class="cls-34" d="M194.11,222.29c-.21-.28-.34-.62-.34-1,0-.91.74-1.65,1.65-1.65.51,0,.96.23,1.26.6.05-.29.04-.62-.05-.98-.36-.21-.76-.34-1.21-.34-1.31,0-2.37,1.06-2.37,2.37,0,.41.11.78.29,1.12.26-.03.52-.07.77-.12Z"/>
    <path class="cls-22" d="M196.68,220.23s0,0,0,0c.24.29.39.65.39,1.06,0,.91-.74,1.65-1.65,1.65-.53,0-1.01-.26-1.31-.65,0,0,0,0,0,0-.25.05-.51.09-.77.12.4.74,1.18,1.26,2.08,1.26,1.31,0,2.37-1.06,2.37-2.37,0-.87-.47-1.62-1.16-2.03.09.36.1.68.05.98Z"/>
    <path class="cls-10" d="M196.68,220.24s0,0,0,0c-.3-.36-.75-.6-1.26-.6-.91,0-1.65.74-1.65,1.65,0,.38.13.72.34,1,0,0,0,0,0,0,1.3-.27,2.39-.93,2.57-2.06Z"/>
    <path class="cls-32" d="M194.11,222.29c.3.39.77.65,1.31.65.91,0,1.65-.74,1.65-1.65,0-.4-.15-.77-.39-1.06-.18,1.13-1.27,1.78-2.57,2.06Z"/>
    <path class="cls-34" d="M160.73,219.62c-.21-.28-.34-.62-.34-1,0-.91.74-1.65,1.65-1.65.51,0,.96.23,1.26.6.05-.29.04-.62-.05-.98-.36-.21-.76-.34-1.21-.34-1.31,0-2.37,1.06-2.37,2.37,0,.41.11.78.29,1.12.26-.03.52-.07.77-.12Z"/>
    <path class="cls-22" d="M163.3,217.56s0,0,0,0c.24.29.39.65.39,1.06,0,.91-.74,1.65-1.65,1.65-.53,0-1.01-.26-1.31-.65,0,0,0,0,0,0-.25.05-.51.09-.77.12.4.74,1.18,1.26,2.08,1.26,1.31,0,2.37-1.06,2.37-2.37,0-.87-.47-1.62-1.16-2.03.09.36.1.68.05.98Z"/>
    <path class="cls-10" d="M163.3,217.56s0,0,0,0c-.3-.36-.75-.6-1.26-.6-.91,0-1.65.74-1.65,1.65,0,.38.13.72.34,1,0,0,0,0,0,0,1.3-.27,2.39-.93,2.57-2.06Z"/>
    <path class="cls-32" d="M160.73,219.62c.3.39.77.65,1.31.65.91,0,1.65-.74,1.65-1.65,0-.4-.15-.77-.39-1.06-.18,1.13-1.27,1.78-2.57,2.06Z"/>
    <path class="cls-34" d="M169.07,221.06c-.21-.28-.34-.62-.34-1,0-.91.74-1.65,1.65-1.65.51,0,.96.23,1.26.6.05-.29.04-.62-.05-.98-.36-.21-.76-.34-1.21-.34-1.31,0-2.37,1.06-2.37,2.37,0,.41.11.78.29,1.12.26-.03.52-.07.77-.12Z"/>
    <path class="cls-22" d="M171.64,219.01s0,0,0,0c.24.29.39.65.39,1.06,0,.91-.74,1.65-1.65,1.65-.53,0-1.01-.26-1.31-.65,0,0,0,0,0,0-.25.05-.51.09-.77.12.4.74,1.18,1.26,2.08,1.26,1.31,0,2.37-1.06,2.37-2.37,0-.87-.47-1.62-1.16-2.03.09.36.1.68.05.98Z"/>
    <path class="cls-10" d="M171.64,219.01s0,0,0,0c-.3-.36-.75-.6-1.26-.6-.91,0-1.65.74-1.65,1.65,0,.38.13.72.34,1,0,0,0,0,0,0,1.3-.27,2.39-.93,2.57-2.06Z"/>
    <path class="cls-32" d="M169.07,221.06c.3.39.77.65,1.31.65.91,0,1.65-.74,1.65-1.65,0-.4-.15-.77-.39-1.06-.18,1.13-1.27,1.78-2.57,2.06Z"/>
    <path class="cls-34" d="M177.42,222.03c-.21-.28-.34-.62-.34-1,0-.91.74-1.65,1.65-1.65.51,0,.96.23,1.26.6.05-.29.04-.62-.05-.98-.36-.21-.76-.34-1.21-.34-1.31,0-2.37,1.06-2.37,2.37,0,.41.11.78.29,1.12.26-.03.52-.07.77-.12Z"/>
    <path class="cls-22" d="M179.99,219.98s0,0,0,0c.24.29.39.65.39,1.06,0,.91-.74,1.65-1.65,1.65-.53,0-1.01-.26-1.31-.65,0,0,0,0,0,0-.25.05-.51.09-.77.12.4.74,1.18,1.26,2.08,1.26,1.31,0,2.37-1.06,2.37-2.37,0-.87-.47-1.62-1.16-2.03.09.36.1.68.05.98Z"/>
    <path class="cls-10" d="M179.99,219.98s0,0,0,0c-.3-.36-.75-.6-1.26-.6-.91,0-1.65.74-1.65,1.65,0,.38.13.72.34,1,0,0,0,0,0,0,1.3-.27,2.39-.93,2.57-2.06Z"/>
    <path class="cls-32" d="M177.42,222.03c.3.39.77.65,1.31.65.91,0,1.65-.74,1.65-1.65,0-.4-.15-.77-.39-1.06-.18,1.13-1.27,1.78-2.57,2.06Z"/>
    <path class="cls-34" d="M185.77,222.42c-.21-.28-.34-.62-.34-1,0-.91.74-1.65,1.65-1.65.51,0,.96.23,1.26.6.05-.29.04-.62-.05-.97-.35-.21-.76-.34-1.21-.34-1.31,0-2.37,1.06-2.37,2.37,0,.41.11.78.29,1.12.26-.03.52-.07.77-.12Z"/>
    <path class="cls-22" d="M188.33,220.36h0c.24.29.39.65.39,1.06,0,.91-.74,1.65-1.65,1.65-.53,0-1.01-.26-1.31-.65,0,0,0,0,0,0-.25.05-.51.09-.77.12.4.74,1.18,1.26,2.08,1.26,1.31,0,2.37-1.06,2.37-2.37,0-.87-.47-1.62-1.16-2.03.09.36.1.68.05.97Z"/>
    <path class="cls-10" d="M188.34,220.36h0c-.3-.36-.75-.6-1.26-.6-.91,0-1.65.74-1.65,1.65,0,.38.13.72.34,1,0,0,0,0,0,0,1.3-.27,2.39-.93,2.57-2.06Z"/>
    <path class="cls-32" d="M185.77,222.42c.3.39.77.65,1.31.65.91,0,1.65-.74,1.65-1.65,0-.4-.15-.77-.39-1.06-.18,1.13-1.27,1.78-2.57,2.06Z"/>
    <path class="cls-34" d="M210.54,227.33c0-.91.74-1.65,1.65-1.65.51,0,.96.23,1.26.59.05-.29.04-.62-.05-.97-.36-.21-.76-.34-1.21-.34-1.31,0-2.37,1.06-2.37,2.37,0,.41.11.78.29,1.12.26-.03.52-.07.77-.12-.21-.28-.34-.62-.34-1Z"/>
    <path class="cls-22" d="M213.4,225.3c.09.36.1.68.05.97,0,0,0,0,0,0,.24.29.39.65.39,1.06,0,.91-.74,1.65-1.65,1.65-.53,0-1.01-.26-1.31-.65,0,0,0,0,0,0-.25.05-.51.09-.77.12.4.74,1.18,1.26,2.08,1.26,1.31,0,2.37-1.06,2.37-2.37,0-.87-.47-1.62-1.16-2.03Z"/>
    <path class="cls-10" d="M210.54,227.33c0,.38.13.72.34,1,0,0,0,0,0,0,1.3-.27,2.39-.93,2.57-2.06,0,0,0,0,0,0-.3-.36-.75-.59-1.26-.59-.91,0-1.65.74-1.65,1.65Z"/>
    <path class="cls-32" d="M210.88,228.33c.3.39.77.65,1.31.65.91,0,1.65-.74,1.65-1.65,0-.4-.15-.77-.39-1.06-.18,1.13-1.27,1.78-2.57,2.06Z"/>
    <path class="cls-34" d="M202.19,228.89c0-.91.74-1.65,1.65-1.65.51,0,.96.23,1.26.6.05-.29.04-.62-.05-.98-.36-.21-.76-.34-1.21-.34-1.31,0-2.37,1.06-2.37,2.37,0,.41.11.78.29,1.12.26-.03.52-.07.77-.12-.21-.28-.34-.62-.34-1Z"/>
    <path class="cls-22" d="M205.05,226.86c.09.36.1.68.05.98,0,0,0,0,0,0,.24.29.39.65.39,1.06,0,.91-.74,1.65-1.65,1.65-.53,0-1.01-.26-1.31-.65,0,0,0,0,0,0-.25.05-.51.09-.77.12.4.74,1.18,1.26,2.08,1.26,1.31,0,2.37-1.06,2.37-2.37,0-.87-.47-1.62-1.16-2.03Z"/>
    <path class="cls-10" d="M202.19,228.89c0,.38.13.72.34,1,0,0,0,0,0,0,1.3-.27,2.39-.93,2.57-2.06,0,0,0,0,0,0-.3-.36-.75-.6-1.26-.6-.91,0-1.65.74-1.65,1.65Z"/>
    <path class="cls-32" d="M202.53,229.89c.3.39.77.65,1.31.65.91,0,1.65-.74,1.65-1.65,0-.4-.15-.77-.39-1.06-.18,1.13-1.27,1.78-2.57,2.06Z"/>
    <path class="cls-34" d="M193.84,229.64c0-.91.74-1.65,1.65-1.65.51,0,.96.23,1.26.6.05-.29.04-.62-.05-.98-.35-.21-.76-.34-1.21-.34-1.31,0-2.37,1.06-2.37,2.37,0,.41.11.78.29,1.12.26-.03.52-.07.77-.12-.21-.28-.34-.62-.34-1Z"/>
    <path class="cls-22" d="M196.7,227.61c.09.36.1.68.05.98,0,0,0,0,0,0,.24.29.39.65.39,1.06,0,.91-.74,1.65-1.65,1.65-.53,0-1.01-.26-1.31-.65,0,0,0,0,0,0-.25.05-.51.09-.77.12.4.74,1.18,1.26,2.08,1.26,1.31,0,2.37-1.06,2.37-2.37,0-.87-.47-1.62-1.16-2.03Z"/>
    <path class="cls-10" d="M193.84,229.64c0,.38.13.72.34,1,0,0,0,0,0,0,1.3-.27,2.39-.93,2.57-2.06,0,0,0,0,0,0-.3-.36-.75-.6-1.26-.6-.91,0-1.65.74-1.65,1.65Z"/>
    <path class="cls-32" d="M194.19,230.64c.3.39.77.65,1.31.65.91,0,1.65-.74,1.65-1.65,0-.4-.15-.77-.39-1.06-.18,1.13-1.27,1.78-2.57,2.06Z"/>
    <path class="cls-34" d="M160.46,226.97c0-.91.74-1.65,1.65-1.65.51,0,.96.23,1.26.6.05-.29.04-.62-.05-.98-.36-.21-.76-.34-1.21-.34-1.31,0-2.37,1.06-2.37,2.37,0,.41.11.78.29,1.12.26-.03.52-.07.77-.12-.21-.28-.34-.62-.34-1Z"/>
    <path class="cls-22" d="M163.32,224.93c.09.36.1.68.05.98,0,0,0,0,0,0,.24.29.39.65.39,1.06,0,.91-.74,1.65-1.65,1.65-.53,0-1.01-.26-1.31-.65,0,0,0,0,0,0-.25.05-.51.09-.77.12.4.74,1.18,1.26,2.08,1.26,1.31,0,2.37-1.06,2.37-2.37,0-.87-.47-1.62-1.16-2.03Z"/>
    <path class="cls-10" d="M160.46,226.97c0,.38.13.72.34,1,0,0,0,0,0,0,1.3-.27,2.39-.93,2.57-2.06,0,0,0,0,0,0-.3-.36-.75-.6-1.26-.6-.91,0-1.65.74-1.65,1.65Z"/>
    <path class="cls-32" d="M160.8,227.97c.3.39.77.65,1.31.65.91,0,1.65-.74,1.65-1.65,0-.4-.15-.77-.39-1.06-.18,1.13-1.27,1.78-2.57,2.06Z"/>
    <path class="cls-34" d="M168.8,228.41c0-.91.74-1.65,1.65-1.65.51,0,.96.23,1.26.6.05-.29.04-.62-.05-.98-.35-.21-.76-.34-1.21-.34-1.31,0-2.37,1.06-2.37,2.37,0,.41.11.78.29,1.12.26-.03.52-.07.77-.12-.21-.28-.34-.62-.34-1Z"/>
    <path class="cls-22" d="M171.66,226.38c.09.36.1.68.05.98,0,0,0,0,0,0,.24.29.39.65.39,1.06,0,.91-.74,1.65-1.65,1.65-.53,0-1.01-.26-1.31-.65,0,0,0,0,0,0-.25.05-.51.09-.77.12.4.74,1.18,1.26,2.08,1.26,1.31,0,2.37-1.06,2.37-2.37,0-.87-.47-1.62-1.16-2.03Z"/>
    <path class="cls-10" d="M168.8,228.41c0,.38.13.72.34,1,0,0,0,0,0,0,1.3-.27,2.39-.93,2.57-2.06,0,0,0,0,0,0-.3-.36-.75-.6-1.26-.6-.91,0-1.65.74-1.65,1.65Z"/>
    <path class="cls-32" d="M169.15,229.41c.3.39.77.65,1.31.65.91,0,1.65-.74,1.65-1.65,0-.4-.15-.77-.39-1.06-.18,1.13-1.27,1.78-2.57,2.06Z"/>
    <path class="cls-34" d="M177.15,229.38c0-.91.74-1.65,1.65-1.65.51,0,.96.23,1.26.6.05-.29.04-.62-.05-.97-.36-.21-.76-.34-1.21-.34-1.31,0-2.37,1.06-2.37,2.37,0,.41.11.78.29,1.12.26-.03.52-.07.77-.12-.21-.28-.34-.62-.34-1Z"/>
    <path class="cls-22" d="M180.01,227.35c.09.36.1.68.05.97,0,0,0,0,0,0,.24.29.39.65.39,1.06,0,.91-.74,1.65-1.65,1.65-.53,0-1.01-.26-1.31-.65,0,0,0,0,0,0-.25.05-.51.09-.77.12.4.74,1.18,1.26,2.08,1.26,1.31,0,2.37-1.06,2.37-2.37,0-.87-.47-1.62-1.16-2.03Z"/>
    <path class="cls-10" d="M177.15,229.38c0,.38.13.72.34,1,0,0,0,0,0,0,1.3-.27,2.39-.93,2.57-2.06,0,0,0,0,0,0-.3-.36-.75-.6-1.26-.6-.91,0-1.65.74-1.65,1.65Z"/>
    <path class="cls-32" d="M177.49,230.38c.3.39.77.65,1.31.65.91,0,1.65-.74,1.65-1.65,0-.4-.15-.77-.39-1.06-.18,1.13-1.27,1.78-2.57,2.06Z"/>
    <path class="cls-34" d="M185.5,229.77c0-.91.74-1.65,1.65-1.65.51,0,.96.23,1.26.6.05-.29.04-.62-.05-.98-.36-.21-.76-.34-1.21-.34-1.31,0-2.37,1.06-2.37,2.37,0,.41.11.78.29,1.12.26-.03.52-.07.77-.12-.21-.28-.34-.62-.34-1Z"/>
    <path class="cls-22" d="M187.15,232.14c1.31,0,2.37-1.06,2.37-2.37,0-.87-.47-1.62-1.16-2.03.09.36.1.68.05.98h0c.24.29.39.65.39,1.06,0,.91-.74,1.65-1.65,1.65-.53,0-1.01-.26-1.31-.65,0,0,0,0,0,0-.25.05-.51.09-.77.12.4.74,1.18,1.26,2.08,1.26Z"/>
    <path class="cls-10" d="M185.5,229.77c0,.38.13.72.34,1,0,0,0,0,0,0,1.3-.27,2.39-.93,2.57-2.06h0c-.3-.36-.75-.6-1.26-.6-.91,0-1.65.74-1.65,1.65Z"/>
    <path class="cls-32" d="M185.84,230.77c.3.39.77.65,1.31.65.91,0,1.65-.74,1.65-1.65,0-.4-.15-.77-.39-1.06-.18,1.13-1.27,1.78-2.57,2.06Z"/>
    <path class="cls-7" d="M148.05,14.96c.18,0,.35-.05.5-.12.37-.18.63-.56.63-1v-4.12c-.96,1.16-2.49,1.85-4.02,1.66-.2-.04-.39-.1-.59-.17v2.63c0,.38.19.71.47.91.18.13.41.21.65.21h2.36Z"/>
    <path class="cls-12" d="M145.16,11.37c1.54.19,3.07-.5,4.02-1.66v-3.73c0-.62-.5-1.13-1.13-1.13h-2.36c-.62,0-1.13.5-1.13,1.13v5.22c.19.06.38.12.59.17Z"/>
    <path class="cls-7" d="M160.17,14.96c.24,0,.46-.07.64-.2.29-.2.49-.54.49-.93v-4.12c-.96,1.16-2.49,1.85-4.02,1.66-.2-.04-.4-.1-.59-.17v2.63c0,.43.25.81.61.99.16.08.33.13.52.13h2.36Z"/>
    <path class="cls-12" d="M161.3,9.71v-3.73c0-.62-.5-1.13-1.13-1.13h-2.36c-.62,0-1.13.5-1.13,1.13v5.22c.19.06.38.12.59.17,1.54.19,3.07-.5,4.02-1.66Z"/>
    <path class="cls-7" d="M218.98,14.96c.24,0,.46-.07.64-.2.29-.2.49-.54.49-.93v-4.12c-.96,1.16-2.49,1.85-4.02,1.66-.2-.04-.39-.1-.59-.17v2.63c0,.43.25.81.61.99.16.08.33.13.52.13h2.36Z"/>
    <path class="cls-12" d="M220.11,9.71v-3.73c0-.62-.5-1.13-1.13-1.13h-2.36c-.62,0-1.13.5-1.13,1.13v5.22c.19.06.38.12.59.17,1.54.19,3.07-.5,4.02-1.66Z"/>
    <path class="cls-7" d="M187.26,14.96h2.36c.34,0,.64-.15.85-.39.17-.2.28-.45.28-.74v-4.12c-.96,1.16-2.49,1.85-4.02,1.66-.2-.04-.39-.1-.59-.17v2.63c0,.21.06.41.17.58.2.32.55.54.96.54Z"/>
    <path class="cls-12" d="M186.72,11.37c1.54.19,3.07-.5,4.02-1.66v-3.73c0-.62-.5-1.13-1.13-1.13h-2.36c-.62,0-1.13.5-1.13,1.13v5.22c.19.06.38.12.59.17Z"/>
    <path class="cls-7" d="M231.1,14.96c.3,0,.57-.12.77-.31.22-.21.35-.49.35-.81v-4.12c-.96,1.16-2.49,1.85-4.02,1.66-.2-.04-.4-.1-.59-.17v2.63c0,.49.31.9.74,1.05.12.04.25.07.38.07h2.36Z"/>
    <path class="cls-12" d="M232.22,9.71v-3.73c0-.62-.5-1.13-1.13-1.13h-2.36c-.62,0-1.13.5-1.13,1.13v5.22c.19.06.38.12.59.17,1.54.19,3.07-.5,4.02-1.66Z"/>
    <path class="cls-6" d="M443.34,346.14c-8.87-1.85-20.46-1.92-30.33-1.46,6.53,7.97,14.42,18.98,23.03,30.35,1.67-5.28,4.7-15.64,7.29-28.9Z"/>
    <path class="cls-6" d="M299.53,280.2c-.04-4.39-.48-10.62-2.24-16.54-1.46,2.54-3,5.28-4.59,8.12-1.62,2.89-3.32,5.92-5.08,9,2.65,1.32,5.14,2.48,7.14,3.37,1.6-1.74,3.2-3.11,4.77-3.95Z"/>
    <path class="cls-6" d="M278.42,293.61c-5.22-8.02-9.72-17.53-9.43-26.19,1.79,4.06,10.04,9.01,17.48,12.79,1.78-3.1,3.48-6.14,5.11-9.05,1.84-3.28,3.56-6.36,5.18-9.14-1.57-4.55-3.99-8.8-7.7-11.71,4.2.82,8.4,2.29,12.32,4.2,2.04-3.03,3.83-5.18,5.38-6.11,1.46-.88,2.93-1.51,4.42-1.93-2.29-2.43-4.18-5.11-5.24-7.83-1.22-3.14-1.79-6.14-1.76-8.96-12.52.54-23.4,1.2-31.35,1.73-8.93.6-16.72,6.34-19.87,14.71-10.39,27.66-11.07,54.68-8.11,77.23,11.94-.14,23.51-13.99,33.57-29.74Z"/>
    <path class="cls-6" d="M319.64,269.93c.82,1.42,2.07,2.31,3.57,2.8l4.24-1.34c-.26-4.97-.7-10.05-1.06-13-.08-.62-.15-1.22-.22-1.81-1.03-.33-2.17-.81-3.38-1.42-4.62,3.25-12.58,3.55-14.61.46-1.69-2.58,2.27-5.06,5.64-6.61-.55-.48-1.08-.99-1.6-1.5-1.62.39-3.23,1.02-4.79,1.97-1.35.82-3,2.81-4.89,5.6,7.51,3.86,13.89,9.31,17.09,14.84Z"/>
    <path class="cls-6" d="M259.91,370.37c6.35-2.5,11.82-5.29,16.64-8.23-3.45-3.6-4.36-10.72-3.4-15.02.08-.9.2-1.77.36-2.65-8.87.15-17.68,1.03-23.79,3.4,2.58,9.67,5.5,17.67,7.88,23.46.76-.33,1.53-.65,2.31-.96Z"/>
    <path class="cls-6" d="M279.62,309.22c1.1-2.36,2.49-5.22,4.08-8.22-1.48-1.91-3.01-4.01-4.51-6.23-3.52,5.48-7.23,10.72-11.09,15.24,3.26-1.17,7.47-1.21,11.52-.8Z"/>
    <path class="cls-6" d="M255.21,335.41l20.77-.05c.42-1.37.88-2.89,1.4-4.62.32-1.35.66-2.7,1.03-4.06-4.85-4.68-10.4-9.38-15.06-11.58-5.87,5.69-12.02,9.39-18.33,9.52.56,4.06,1.24,7.96,2,11.69,2.65-.59,5.4-.9,8.19-.91Z"/>
    <path class="cls-6" d="M354.12,254.48c-1.28,1.64-3.13,3.06-6,3.89-.03,1.45.03,3.23.2,5.04.01.14.03.3.05.48,6.5-7.03,21.79-21.86,34.69-21.34-13,5.02-12.77,20.23-12.77,20.23,0,0,7.3-7.91,22.58-6.54-8.1,3.19-12.62,12.51-14.17,20.65,10.27,5.02,17.16,17.17,20.61,24.75,1.74,3.81,2.61,6.46,2.61,6.46l-5.04,2.48.71,3.03c10.78,6.03,26.53,4.23,26.53,4.23,0,0-6.07,10.1-23.46,8.79l1.69,7.18c.3.22.61.44.91.66.23.18.47.37.71.56l38.99-.1c.78,0,1.55.03,2.32.07,4.21-27.69,5.14-63.63-9.41-92.89-2.21-4.44-6.36-7.61-11.23-8.52-20.57-3.85-48.24-5.04-75.08-5,3.55,6.04,6.01,12.51,6.69,17.75.37,2.88-.33,5.84-2.12,8.13Z"/>
    <path class="cls-11" d="M268.99,267.42c-.3,8.66,4.21,18.17,9.43,26.19,2.81-4.41,5.51-8.96,8.05-13.4-7.44-3.78-15.69-8.72-17.48-12.79Z"/>
    <path class="cls-11" d="M367.77,287.45c-.35.96-.72,1.91-1.14,2.86.41-.95.79-1.9,1.14-2.86h0Z"/>
    <path class="cls-11" d="M296.76,262.02c1.66-2.86,3.2-5.4,4.63-7.51-3.92-1.9-8.12-3.37-12.32-4.2,3.71,2.91,6.13,7.16,7.7,11.71Z"/>
    <path class="cls-11" d="M400.65,326.62c17.4,1.31,23.46-8.79,23.46-8.79,0,0-15.75,1.81-26.53-4.23l.46,1.94,2.61,11.08Z"/>
    <path class="cls-11" d="M324.23,280.1c7.18,7.67,14.63,15.06,21.41,23.13h0c-6.78-8.07-14.23-15.46-21.41-23.13h0Z"/>
    <path class="cls-11" d="M309.39,322.04l-2.33,4-2.93,5.02s-.59-.37-1.62-1.02l-.84,1.96-1.4,3.28,7.47-.02c1.39-1.33,2.77-2.61,4.18-3.83-.98-3.25-1.82-6.46-2.52-9.4Z"/>
    <path class="cls-11" d="M281.14,317.55c-1.42-.77-2.84-1.53-4.24-2.25,0,0,1.02-2.46,2.71-6.08-4.05-.42-8.26-.37-11.52.8-1.56,1.82-3.14,3.53-4.75,5.09,4.65,2.2,10.21,6.9,15.06,11.58.82-3.06,1.75-6.13,2.74-9.13Z"/>
    <path class="cls-11" d="M358.27,273.13h0l13.68,1.66h0c2.39.33,4.63,1.06,6.74,2.09,1.55-8.13,6.07-17.46,14.17-20.65-15.28-1.37-22.58,6.54-22.58,6.54,0,0-.23-15.21,12.77-20.23-12.89-.52-28.18,14.3-34.69,21.34.19,1.9.67,6.07,1.04,8.17l8.87,1.08Z"/>
    <path class="cls-11" d="M286.84,295.34c2.46-4.18,5.18-8.21,7.92-11.19-2-.9-4.5-2.05-7.14-3.37-2.66,4.64-5.48,9.4-8.43,13.99,1.49,2.22,3.02,4.32,4.51,6.23.98-1.86,2.04-3.77,3.15-5.66Z"/>
    <path class="cls-11" d="M302.26,279.32l16.51-5.2c1.66,1.88,3.36,3.72,5.07,5.55h0c-1.71-1.83-3.41-3.67-5.07-5.55l4.44-1.4c-1.5-.49-2.74-1.38-3.57-2.8-3.21-5.54-9.58-10.98-17.09-14.84-1.6,2.36-3.36,5.3-5.25,8.58,1.76,5.92,2.2,12.15,2.24,16.54.93-.5,1.84-.8,2.73-.88Z"/>
    <path class="cls-13" d="M326.39,258.39c.36,2.95.8,8.03,1.06,13l-4.24,1.34-4.44,1.4c1.66,1.88,3.36,3.72,5.07,5.55.4-.04.8-.08,1.19-.11,1.29-.12,2.58-.21,3.87-.31l3.87-.24,3.88-.19.32-.02.23.27c.22.26.52.55.82.78.3.25.62.46.95.65.66.37,1.38.59,2.1.62h.27s.27-.02.27-.02c.18-.03.36-.02.53-.09l.53-.15.5-.25c.08-.04.17-.08.25-.12l.24-.17.48-.33c.3-.25.59-.53.89-.79l.22-.19h.21c1.13-.04,2.26-.1,3.39-.12,1.13-.02,2.26-.06,3.39-.06,1.27-.02,2.55-.02,3.82,0,.76-1.89,1.51-3.79,2.22-5.71h0l-8.87-1.08c-.37-2.09-.85-6.27-1.04-8.17-.02-.18-.03-.34-.05-.48-7.95,1.03-15.99-.18-21.93-5.02Z"/>
    <path class="cls-13" d="M348.9,280.03c-1.04.1-2.09.17-3.13.25-.26.26-.52.52-.8.77l-.56.41-.28.2c-.1.06-.21.11-.32.17l-.64.32-.69.22c-.23.09-.48.09-.72.13l-.36.05c-.12,0-.24,0-.37,0-.98-.01-1.93-.34-2.74-.8-.41-.24-.79-.5-1.14-.8-.28-.23-.53-.46-.78-.74l-3.56.04h-3.88c-1.29-.04-2.59-.05-3.88-.09-.27,0-.54-.02-.81-.03,7.18,7.67,14.63,15.06,21.41,23.13,3.31-8,6.95-15.84,10.22-23.91-1.19.14-2.39.28-3.58.39-1.12.12-2.25.21-3.38.32Z"/>
    <path class="cls-20" d="M324.23,280.1c.27,0,.54.02.81.03,1.3.05,2.59.06,3.88.08h3.88s3.56-.03,3.56-.03c.25.27.5.51.78.74.35.3.74.56,1.14.8.81.47,1.76.79,2.74.8.12,0,.25.01.37,0l.36-.05c.24-.04.49-.05.72-.13l.69-.22.64-.32c.11-.06.21-.11.32-.17l.28-.2.56-.41c.28-.25.54-.51.8-.77,1.04-.08,2.09-.15,3.13-.25,1.13-.1,2.25-.19,3.38-.32,1.19-.12,2.39-.25,3.58-.39.06-.16.13-.32.19-.48-1.27-.01-2.55-.01-3.82,0-1.13,0-2.26.04-3.39.06-1.13.02-2.26.07-3.39.11h-.21s-.22.2-.22.2c-.3.26-.58.54-.89.79l-.48.33-.24.17c-.08.05-.17.08-.25.12l-.5.25-.53.15c-.17.07-.36.06-.53.09l-.27.03h-.27c-.72-.04-1.44-.26-2.1-.63-.33-.19-.65-.4-.95-.65-.3-.24-.6-.53-.82-.78l-.23-.27-.32.02-3.88.19-3.87.24c-1.29.1-2.58.19-3.87.31-.4.03-.8.07-1.19.11h0c.13.14.26.28.4.43h0Z"/>
    <path class="cls-13" d="M386.36,325.6c6.06,2.22,11.51,4.97,15.98,8.21l-1.69-7.18-2.61-11.08c-4.55,2.53-8.49,5.99-11.68,10.05Z"/>
    <path class="cls-17" d="M376.88,320.4l.18,2.34c3.22.82,6.33,1.77,9.3,2.86,3.2-4.06,7.14-7.52,11.68-10.05l-.46-1.94-.71-3.03-19.99,9.83Z"/>
    <path class="cls-38" d="M375.55,302.66l1.24,16.41c-4.13-1.94-8.57-3.2-13.35-3.52-16.92-1.21-33.84,2.56-50.44.32l-3.6,6.17c.7,2.95,1.53,6.15,2.52,9.4,6.32-5.45,13.12-9.57,22.62-11.02,13.72-2.1,29.01-1.12,42.53,2.31l-.18-2.34,19.99-9.83,5.04-2.48s-.87-2.65-2.61-6.46c-2.31.81-4.7,1.48-7.12,2.05-5.59,1.34-11.41.92-16.63-1.03Z"/>
    <path class="cls-3" d="M371.95,274.79h0s-13.68-1.66-13.68-1.66h0c-.71,1.92-1.46,3.82-2.22,5.71-.06.16-.13.32-.19.48-3.27,8.07-6.91,15.91-10.22,23.91h0c-6.78-8.07-14.23-15.46-21.41-23.13-.13-.14-.26-.28-.4-.43-1.71-1.83-3.41-3.67-5.07-5.55l-16.51,5.2c-.89.08-1.8.38-2.73.88-1.56.84-3.17,2.21-4.77,3.95-2.74,2.98-5.46,7.01-7.92,11.19,2.86,9.65,6.59,19.1,13.63,26.14,1.95,1.95,4.18,3.43,6.58,4.56l2.33-4,3.6-6.17c16.6,2.24,33.52-1.53,50.44-.32,4.78.32,9.22,1.58,13.35,3.52l-1.24-16.41c5.23,1.96,11.04,2.37,16.63,1.03,2.42-.58,4.82-1.24,7.12-2.05-3.45-7.58-10.34-19.73-20.61-24.75-2.11-1.03-4.35-1.76-6.74-2.09h0ZM367.77,287.45h0c-.35.96-.72,1.91-1.14,2.86.41-.95.79-1.9,1.14-2.86Z"/>
    <path class="cls-17" d="M348.32,263.41c-.17-1.81-.24-3.6-.2-5.04-4.27,1.23-10.81,1.13-21.14-1.55-.26-.07-.53-.15-.81-.24.07.59.15,1.19.22,1.81,5.95,4.84,13.98,6.04,21.93,5.02Z"/>
    <path class="cls-13" d="M305.94,238.63c1.06,2.73,2.95,5.4,5.24,7.83,4.76-1.36,9.64-.68,14.44.16.26-.2.59-.31.95-.26,2.2.26,7.24.65,12.2-.45.68-.15,1.37.27,1.52.94.05.22.08.45.11.67,3.12-.67,5.11-1.78,5.77-3.24.46-1.02.18-1.97,0-2.41-.21.08-.43.16-.64.23.56-.59,1.17-1.11,1.6-1.71.44-.58.72-1.23.8-1.86.02-.14.02-.27.02-.41-.05-.02-.1-.03-.15-.05-.2-.07-.4-.13-.6-.21-.79-.3-1.53-.69-2.24-1.14-1.41-.91-2.63-2.08-3.59-3.42-.96-1.34-1.67-2.85-1.99-4.44,1,1.28,1.98,2.46,3.07,3.52,1.08,1.06,2.24,2.01,3.49,2.82.62.4,1.27.77,1.93,1.08.16.09.34.15.5.23l.26.11c.11.05.35.13.58.39.23.27.27.57.28.74,0,.19-.01.28-.02.4-.03.24-.08.47-.15.7-.29.91-.87,1.65-1.56,2.17-.14.1-.29.19-.43.28.18.41.43,1.16.38,2.05.46-.66,1.01-1.15,1.76-1.14.52-1.42,2.18-.73,2.18-.73,0,0,.03,0,.08.04.69.33.87,1.25.38,1.83-2.3,2.7-8.39,5.8-8.39,5.8,0,0,1.14-1.25,2.02-2.42-1.22.92-3,1.62-5.31,2.09-.02.22-.04.44-.07.62-.08.56-.51,1.01-1.07,1.1-2.41.4-9.18,1.33-13.32-.09-.5-.17-.83-.64-.85-1.17-.02-.59-.02-1.07,0-1.46-4.31-.75-8.68-1.32-12.89-.31.52.51,1.06,1.01,1.6,1.5-3.37,1.55-7.33,4.03-5.64,6.61,2.03,3.09,9.99,2.8,14.61-.46,1.2.61,2.34,1.08,3.38,1.42.28.09.55.17.81.24,10.33,2.68,16.87,2.77,21.14,1.55,2.88-.83,4.73-2.25,6-3.89,1.79-2.29,2.49-5.25,2.12-8.13-.68-5.24-3.14-11.71-6.69-17.75-.94-1.59-1.95-3.16-3.02-4.66l-1.53.23c-.48.07-.91.13-1.33.17-.42.05-.83.09-1.25.14-.42.07-.86.09-1.48.5-.17-.32-.16-.73-.05-1.09.11-.37.34-.68.6-.94.53-.52,1.22-.8,1.9-.88.68-.08,1.37.03,1.98.34.02,0,.04.02.05.03-6.18-8.07-14.15-13.97-21.76-12.51-11.98,2.3-19.4,9.81-19.49,19.74-.02,2.81.54,5.82,1.76,8.96ZM316.34,251.3c-.83.34-1.61.76-2.37,1.28-.77.52-1.49,1.15-2.29,1.87.1-1.07.58-2.09,1.28-2.94.7-.85,1.64-1.53,2.67-1.95,1.03-.42,2.16-.59,3.24-.5,1.08.09,2.13.41,3.03,1-1.07.17-2.03.28-2.95.47-.92.18-1.79.43-2.61.77ZM351.41,247.01c-.22.22-.43.41-.65.58-.22.18-.44.34-.7.52-.26.17-.54.35-.94.56-.15-.42-.1-.84.04-1.22.15-.37.39-.7.7-.95.31-.25.68-.43,1.07-.5.39-.06.81-.03,1.2.2-.28.34-.51.58-.73.8ZM326.78,239.42c-.58-.98-.57-2.24-.29-3.33.29-1.1.85-2.1,1.54-2.95.7-.85,1.53-1.57,2.46-2.13.93-.55,1.95-.96,3.07-1.07-.63.93-1.29,1.69-1.92,2.44-.63.75-1.25,1.47-1.84,2.2-.58.73-1.15,1.45-1.67,2.22-.51.78-.98,1.56-1.36,2.62ZM339.46,234.55c-.79.75-1.6,1.4-1.87,2.12-.31.72-.3,1.71-.77,2.87-.48,1.16-1.45,2.07-2.59,2.48-1.16.4-2.12.25-3.17.48.32-.46.82-.76,1.28-1.03.46-.26.91-.48,1.26-.73.7-.49,1.23-1.16,1.54-1.9.16-.37.28-.83.45-1.34.17-.5.39-1.08.78-1.58.4-.52.94-.86,1.47-1.05.54-.19,1.06-.29,1.61-.31ZM348.98,229.52c-.22.32-.51.57-.81.77-.62.39-1.28.58-1.89.69-.57.1-1.04.16-1.45.3-.41.12-.83.46-1.33.99-.13-.34-.15-.7-.08-1.08.07-.37.27-.75.55-1.05.59-.61,1.36-.84,1.98-.96.59-.11,1.15-.16,1.68-.23.53-.08,1.02-.1,1.62-.51.07.36-.05.75-.27,1.08Z"/>
    <path class="cls-13" d="M347.93,237.88s0,.01,0,.06c0-.03,0-.06,0-.06Z"/>
    <path class="cls-17" d="M352.09,243.36c.5-.58.31-1.5-.38-1.83-.05-.03-.08-.04-.08-.04,0,0-1.66-.7-2.18.73-.75-.02-1.3.47-1.76,1.14-.02.45-.13.95-.36,1.45-.33.72-.87,1.36-1.61,1.92-.88,1.17-2.02,2.42-2.02,2.42,0,0,6.09-3.09,8.39-5.8Z"/>
    <path class="cls-21" d="M331.65,232.38c.63-.76,1.28-1.52,1.92-2.44-1.12.11-2.13.52-3.07,1.07-.93.56-1.77,1.27-2.46,2.13-.69.85-1.25,1.85-1.54,2.95-.28,1.09-.3,2.35.29,3.33.38-1.06.85-1.84,1.36-2.62.51-.77,1.08-1.49,1.67-2.22.59-.73,1.21-1.45,1.84-2.2Z"/>
    <path class="cls-21" d="M343.4,222.08c-.68.08-1.36.36-1.9.88-.26.26-.49.57-.6.94-.12.36-.12.76.05,1.09.61-.41,1.05-.43,1.48-.5.42-.06.83-.09,1.25-.14.42-.05.85-.11,1.33-.17l1.53-.23.19-.03c-.22-.68-.72-1.15-1.3-1.46-.02,0-.04-.02-.05-.03-.6-.3-1.3-.42-1.98-.34Z"/>
    <path class="cls-5" d="M321.91,250.06c-.9-.59-1.94-.91-3.03-1-1.08-.08-2.21.08-3.24.5-1.03.42-1.97,1.1-2.67,1.95-.7.85-1.18,1.87-1.28,2.94.8-.72,1.52-1.35,2.29-1.87.76-.52,1.55-.95,2.37-1.28.83-.33,1.69-.58,2.61-.77.92-.19,1.89-.3,2.95-.47Z"/>
    <path class="cls-13" d="M281.92,330.37c-1.55.08-3.06.19-4.54.37-.51,1.73-.98,3.25-1.4,4.62l24.27-.06,1.4-3.28c-6.32-1.27-12.85-1.9-19.74-1.64Z"/>
    <path class="cls-17" d="M301.66,332.01l.84-1.96c-3.57-2.22-12.49-7.69-21.36-12.5-.98,3-1.91,6.06-2.74,9.13-.36,1.35-.71,2.71-1.03,4.06,1.48-.18,2.99-.29,4.54-.37,6.89-.25,13.42.38,19.74,1.64Z"/>
    <path class="cls-38" d="M304.12,331.06l2.93-5.02c-2.4-1.13-4.63-2.6-6.58-4.56-7.04-7.04-10.77-16.48-13.63-26.14-1.11,1.88-2.17,3.8-3.15,5.66-1.59,3-2.98,5.86-4.08,8.22-1.69,3.63-2.71,6.08-2.71,6.08,1.4.72,2.82,1.48,4.24,2.25,8.87,4.81,17.79,10.28,21.36,12.5,1.03.64,1.62,1.02,1.62,1.02Z"/>
    <path class="cls-8" d="M408.69,390.4l-22.88-34.02c-1.75-2.6-4.77-4.15-8.01-4.13-12.37.11-43.42.38-55.72.48-3.19.03-6.15,1.59-7.86,4.15l-22.12,33.15-1.12,1.68,117.7-1.33Z"/>
    <path class="cls-8" d="M436.05,375.03c-8.61-11.38-16.5-22.38-23.03-30.35-3.68.17-7.12.42-10.09.67-4.78.41-7.36,6.33-4.7,10.8,5.14,8.63,13.24,21.76,22.02,34.11l27.45-.31c-3.99-4.9-7.89-9.94-11.66-14.92Z"/>
    <path class="cls-8" d="M276.56,362.13c-4.82,2.95-10.29,5.73-16.64,8.23-.78.31-1.54.63-2.31.96-11.65,5.02-21.78,12.71-30.29,21.12l50.39-.57c1.49-2.07,2.97-4.17,4.41-6.28,6.42-9.33,12.29-18.71,16.67-25.96-6,1.84-10.91,3.26-14.72,4.35-3.25.94-5.72.02-7.52-1.85Z"/>
    <path class="cls-8" d="M377.06,322.74c-13.52-3.43-28.81-4.41-42.53-2.31-9.5,1.45-16.3,5.57-22.62,11.02-1.41,1.21-2.79,2.5-4.18,3.83l24.05-.06c2.83-2.69,5.96-5.5,7.52-6.27,1.97-.97,6.38-2.65,9.54-3.82h.01c1.5-.56,2.72-1,3.24-1.18h0c.18-.06.27-.1.27-.1,0,0,.56,1.48-2.26,3.5-.67.48-1.48,1-2.34,1.54.51-.1,1.02-.19,1.53-.27.21-.03.42-.06.62-.09,1.91-.46,4.02-.94,5.76-1.32h.02c1.57-.34,2.83-.61,3.37-.72h0c.18-.04.29-.06.29-.06,0,0,.35,1.55-2.72,3.16-.57.3-1.23.61-1.93.93.87-.15,1.74-.29,2.54-.42h0s3.39-.56,3.39-.56c0,0,0,.01,0,.03.66-.1,1.05-.16,1.05-.16,0,0,.26,1.56-2.89,3-1.97.89-4.88,1.86-7.2,2.75l52.38-.13c-.24-.2-.48-.39-.71-.56-.3-.22-.6-.44-.91-.66-4.47-3.23-9.92-5.99-15.98-8.21-2.97-1.09-6.08-2.04-9.3-2.86Z"/>
    <path class="cls-26" d="M336.39,235.91c-.4.51-.62,1.08-.78,1.58-.17.51-.29.97-.45,1.34-.31.73-.84,1.4-1.54,1.9-.35.25-.8.47-1.26.73-.46.27-.95.57-1.28,1.03,1.06-.23,2.01-.08,3.17-.48,1.14-.41,2.11-1.32,2.59-2.48.46-1.16.46-2.15.77-2.87.26-.73,1.07-1.38,1.87-2.12-.55.02-1.07.12-1.61.31-.53.2-1.07.54-1.47,1.05Z"/>
    <path class="cls-20" d="M350.95,246.01c-.39.07-.76.24-1.07.5-.31.25-.55.58-.7.95-.14.37-.2.79-.04,1.22.4-.21.67-.39.94-.56.26-.17.48-.34.7-.52.22-.18.43-.37.65-.58.22-.22.45-.46.73-.8-.39-.23-.81-.26-1.2-.2Z"/>
    <path class="cls-26" d="M347.63,228.96c-.53.07-1.08.12-1.68.23-.63.12-1.4.35-1.98.96-.28.3-.48.68-.55,1.05-.07.38-.04.74.08,1.08.5-.53.92-.87,1.33-.99.4-.14.87-.2,1.45-.3.61-.11,1.27-.3,1.89-.69.3-.2.6-.45.81-.77.21-.32.34-.71.27-1.08-.6.41-1.09.43-1.62.51Z"/>
    <path class="cls-10" d="M223.65,109.08c0,.21-.02.44-.02.68-.29,10.11,1.08,38.93,7.19,64.73,2.74,11.57,5.47,25.33,4.97,39.61-.52,14.81-4.46,28.11-12.05,40.67-5.07,8.4-7.93,18.27-8.27,28.56-.32,9.78,1.75,19.19,5.82,26.49,5.29,9.47,13.54,14.73,23.24,14.81.05,0,.09,0,.14,0,.12,0,.23,0,.35,0,6.31-.13,12.46-3.83,18.33-9.52,1.6-1.56,3.19-3.26,4.75-5.09,3.86-4.52,7.57-9.76,11.09-15.24,2.95-4.59,5.77-9.35,8.43-13.99,1.77-3.08,3.46-6.11,5.08-9,1.59-2.84,3.13-5.58,4.59-8.12,1.89-3.28,3.65-6.22,5.25-8.58,1.88-2.79,3.53-4.78,4.89-5.6,1.56-.95,3.16-1.58,4.79-1.97,4.21-1.02,8.59-.44,12.89.31-.02.4-.03.88,0,1.46.02.52.35,1,.85,1.17,4.14,1.42,10.91.49,13.32.09.56-.09.99-.54,1.07-1.1.03-.19.05-.4.07-.62,2.32-.47,4.09-1.17,5.31-2.09.74-.56,1.28-1.2,1.61-1.92.23-.5.33-1,.36-1.45.05-.89-.2-1.63-.38-2.05-.37.23-.75.41-1.15.56.18.44.47,1.39,0,2.41-.66,1.46-2.65,2.57-5.77,3.24-.02-.22-.06-.45-.11-.67-.15-.68-.84-1.09-1.52-.94-4.95,1.1-10,.71-12.2.45-.35-.04-.69.06-.95.26-4.8-.84-9.68-1.52-14.44-.16-1.49.43-2.96,1.05-4.42,1.93-1.54.94-3.34,3.09-5.38,6.11-1.42,2.11-2.96,4.65-4.63,7.51-1.61,2.78-3.34,5.86-5.18,9.14-1.63,2.9-3.33,5.95-5.11,9.05-2.55,4.44-5.24,9-8.05,13.4-10.06,15.75-21.64,29.6-33.57,29.74-.06,0-.12,0-.18,0-.04,0-.09,0-.13,0-9.22-.08-17.08-5.11-22.14-14.16-3.96-7.1-5.97-16.27-5.66-25.82.33-10.07,3.12-19.73,8.09-27.94,7.7-12.75,11.71-26.25,12.23-41.28.5-14.43-2.25-28.29-5.01-39.95-6.09-25.72-7.44-54.43-7.15-64.43,0-.22.01-.43.02-.63l-1.28-.05Z"/>
    <path class="cls-20" d="M349.3,238.87c.07-.23.12-.46.15-.7.01-.13.03-.22.02-.4,0-.17-.05-.47-.28-.74-.23-.26-.47-.34-.58-.39l-.26-.11c-.17-.08-.34-.14-.5-.23-.67-.31-1.31-.68-1.93-1.08-1.25-.8-2.41-1.75-3.49-2.82-1.09-1.06-2.07-2.25-3.07-3.52.32,1.59,1.03,3.1,1.99,4.44.96,1.34,2.18,2.51,3.59,3.42.71.45,1.45.84,2.24,1.14.19.08.4.14.6.21.05.02.1.03.15.05,0,.14,0,.27-.02.41-.08.63-.36,1.28-.8,1.86-.43.6-1.03,1.12-1.6,1.71.22-.07.43-.15.64-.23.39-.15.77-.34,1.15-.56.15-.09.29-.18.43-.28.69-.51,1.28-1.26,1.56-2.17ZM347.93,237.88s0,.03,0,.06c-.01-.05-.01-.08,0-.06Z"/>
    <path class="cls-13" d="M361.68,329.41s-.4.06-1.05.16c-.02.22-.2,1.78-2.26,1.99-.9.14-1.12-1.46-1.12-1.46-.81.13-1.67.27-2.54.42.7-.32,1.36-.63,1.93-.93,3.07-1.61,2.72-3.16,2.72-3.16,0,0-.1.02-.29.06,0,0-.15,1.73-2.36,1.95-.9.14-1.02-1.23-1.02-1.23-1.74.38-3.85.85-5.76,1.32.92-.14,1.85-.26,2.78-.35-1.11.3-2.21.58-3.32.85-1.11.27-2.22.53-3.31.82-.54.14-1.1.28-1.61.47-.13.05-.23.1-.36.15l-.37.19-.74.4-2.98,1.68c.81-.83,1.72-1.54,2.69-2.17.24-.16.49-.3.74-.45l.38-.21c.14-.06.29-.13.43-.18.56-.2,1.12-.33,1.68-.47.61-.14,1.23-.27,1.85-.38.86-.53,1.67-1.06,2.34-1.54,2.82-2.02,2.26-3.5,2.26-3.5,0,0-.1.04-.27.1,0,0,.08,1.51-2.08,2.04-.87.27-1.17-.85-1.17-.85-3.15,1.16-7.57,2.84-9.54,3.82-1.56.77-4.69,3.57-7.52,6.27l19.8-.05c2.33-.89,5.24-1.86,7.2-2.75,3.15-1.43,2.89-3,2.89-3ZM344.48,333.49l-2.98,1.68c.81-.83,1.71-1.54,2.69-2.17.24-.16.49-.3.74-.45l.38-.21c.14-.06.29-.13.43-.18.56-.2,1.12-.33,1.68-.47,1.12-.26,2.25-.47,3.37-.65,1.13-.18,2.26-.33,3.41-.44-1.11.3-2.21.58-3.32.85-1.11.27-2.22.53-3.31.82-.55.14-1.1.28-1.61.47-.13.05-.23.1-.36.15l-.37.19-.74.4Z"/>
    <path class="cls-13" d="M355.69,327.21l3.37-.72c-.54.11-1.8.38-3.37.72Z"/>
    <path class="cls-17" d="M356.7,328.44c2.21-.22,2.36-1.95,2.36-1.95h0s-3.37.72-3.37.72h-.02s.13,1.37,1.02,1.23Z"/>
    <path class="cls-13" d="M348.85,325.13l3.24-1.18c-.52.19-1.73.62-3.24,1.18Z"/>
    <path class="cls-17" d="M350.01,325.98c2.16-.53,2.08-2.04,2.08-2.04h0s-3.24,1.18-3.24,1.18h-.01s.3,1.12,1.17.86Z"/>
    <path class="cls-17" d="M358.36,331.56c2.06-.21,2.25-1.77,2.26-1.99,0-.02,0-.03,0-.03l-3.39.56h0s.23,1.6,1.12,1.46Z"/>
    <path class="cls-13" d="M276.56,362.13c1.79,1.87,4.26,2.79,7.52,1.85,3.81-1.09,8.71-2.51,14.72-4.35.74-1.22,1.44-2.39,2.09-3.48,2.66-4.47.09-10.39-4.7-10.8-2.37-.2-5.05-.4-7.91-.56-3.67.55-7.34,1.15-10.96,2.08,2.32-.95,4.72-1.66,7.15-2.26-3.53-.14-7.24-.21-10.95-.15-.16.88-.28,1.75-.36,2.65-.96,4.3-.05,11.42,3.4,15.02Z"/>
    <path class="cls-17" d="M277.32,346.87c3.62-.93,7.28-1.53,10.96-2.08-1.24-.07-2.51-.13-3.81-.18-2.43.6-4.83,1.31-7.15,2.26Z"/>
    <path class="cls-17" d="M345.95,332.74c.51-.19,1.07-.33,1.61-.47,1.1-.29,2.21-.55,3.31-.82,1.11-.27,2.22-.55,3.32-.85-1.14.11-2.28.26-3.41.44-1.13.18-2.25.4-3.37.65-.56.14-1.12.27-1.68.47-.14.05-.29.12-.43.18l-.38.21c-.25.14-.5.29-.74.45-.97.62-1.88,1.34-2.69,2.17l2.98-1.68.74-.4.37-.19c.12-.05.23-.1.36-.15Z"/>
    <path class="cls-17" d="M344.24,329.74c-.14.05-.29.12-.43.18l-.38.21c-.25.14-.5.29-.74.45-.97.62-1.88,1.34-2.69,2.17l2.98-1.68.74-.4.37-.19c.12-.05.23-.1.36-.15.51-.19,1.07-.33,1.61-.47,1.1-.29,2.21-.55,3.31-.82,1.11-.27,2.22-.55,3.32-.85-.93.09-1.86.21-2.78.35-.21.03-.42.06-.62.09-.51.08-1.02.17-1.53.27-.62.12-1.23.24-1.85.38-.56.14-1.12.27-1.68.47Z"/>
    <path class="cls-28" d="M208.54,485.78l-3.22,33.3h-8.16v-2.96c0-1.9-1.54-3.44-3.44-3.44h-.66v-2.76c0-1.03-.83-1.86-1.86-1.86h-5.94c-1.03,0-1.86.83-1.86,1.86v2.76h-.66c-1.9,0-3.44,1.54-3.44,3.44v2.96h-21.01c-6.3,0-11.65,3.41-13.46,8.11l-2.13-.03c-2.53-.03-4.2,2.62-3.09,4.89l.99,2.02.6,1.23c4.81.02,9.44-2.63,11.38-7.26-.57-.48-1.3-.78-2.13-.79h-1.16c1.67-2.47,5.08-4.16,9-4.16h46.63l-1.14,11.8h10.03l2.09-11.8h2.27c3.89,0,7.27,1.66,8.96,4.09h-1.19c-2.53-.04-4.2,2.6-3.09,4.87l.99,2.02.6,1.23c4.81.02,9.44-2.63,11.38-7.26-.57-.48-1.3-.78-2.13-.79l-2.04-.02c-1.79-4.72-7.15-8.15-13.47-8.15h-1.56l3.94-22.18c-3.02-4.83-7.01-8.79-12.02-11.12Z"/>
    <path class="cls-16" d="M208.54,485.78c5.02,2.33,9,6.29,12.02,11.12l4.04-22.72h-14.94l-1.12,11.61Z"/>
    <path class="cls-36" d="M203.06,534.88l-4.7,15.53c-.55,1.83.83,3.67,2.74,3.65l9.73-.11c1.52-.02,2.75-1.23,2.79-2.74l.5-16.33h-11.06Z"/>
    <path class="cls-10" d="M474.13,497.35l6.74,37.98h10.03l-4.75-49.1c-5.02,2.33-9,6.29-12.02,11.12Z"/>
    <path class="cls-16" d="M474.13,497.35c3.02-4.83,7.01-8.79,12.02-11.12l-1.17-12.06h-14.97l4.12,23.18Z"/>
    <path class="cls-36" d="M480.57,535.34l.5,16.46c.04,1.44,1.21,2.59,2.65,2.6l10.07.12c1.82.02,3.13-1.73,2.6-3.46l-4.76-15.72h-11.06Z"/>
    <polygon class="cls-29" points="188.34 459.26 188.34 474.17 190.46 474.17 209.66 474.17 224.59 474.17 470.01 474.17 484.99 474.17 503.51 474.17 503.51 459.26 188.34 459.26"/>
    <path class="cls-11" d="M192.65,433.88l9.81-26.89c-5.96-3.43-11.7-7.33-17.15-11.77-3.44,2.01-5.43,5.05-4.9,8.32l4.95,30.34h7.29Z"/>
    <path class="cls-11" d="M212.43,413c-1.55,4.1.64,8.69,4.55,9.53,6.14,1.31,15.58,2.5,26.17.91-10.51-2.89-20.73-6.48-30.47-11.1-.08.22-.17.44-.25.65Z"/>
    <path class="cls-6" d="M220.68,392.51c-3.25,7.6-6.04,14.69-8,19.83,9.74,4.62,19.96,8.2,30.47,11.1.97-.15,1.94-.31,2.93-.5,8.37-1.65,20.46-15.55,31.62-31.07l-50.39.57-6.64.07Z"/>
    <path class="cls-6" d="M506.91,433.88c.55,0,1.08.07,1.59.2l4.49-29.28c1.27-8.31-8.72-15.49-21.35-15.34l-2.93.03,14.67,44.39h3.54Z"/>
    <path class="cls-6" d="M202.45,407l5.23-14.34-13.11.15c-1.44.03-2.81.2-4.11.47-1.51.32-2.92.8-4.16,1.41-.35.17-.68.35-1,.53,5.45,4.44,11.19,8.34,17.15,11.77Z"/>
    <path class="cls-6" d="M453.02,422.94c11.77,2.31,22.4,1.02,29.1-.42,3.91-.84,6.1-5.43,4.55-9.53-2.2-5.81-5.57-14.37-9.5-23.37l-29.47.33-27.45.31c2.02,2.84,4.08,5.65,6.14,8.34,9.66,12.62,19.49,22.93,26.63,24.33Z"/>
    <path class="cls-6" d="M290.99,391.72l-10.7,16.03c-3.95,5.92.46,13.66,7.82,13.75l125.24,1.56c7.49.09,12.08-7.77,8.05-13.78l-6.09-9.06-6.62-9.84-117.7,1.33Z"/>
    <path class="cls-10" d="M403.96,335.03l-52.38.13-19.8.05-24.05.06-7.47.02-24.27.06-20.77.05c-2.8,0-5.54.32-8.19.91-5.84,1.3-11.24,3.94-15.8,7.65,2.81,3.9,5.97,7.58,9.4,11.09,1.92-2.43,3.8-4.31,5.57-5.44,1.04-.66,2.23-1.23,3.54-1.74,6.1-2.37,14.91-3.26,23.79-3.4,3.71-.06,7.42,0,10.95.15,1.3.05,2.57.11,3.81.18,2.86.16,5.53.36,7.91.56,4.78.41,7.36,6.33,4.7,10.8-.65,1.09-1.35,2.26-2.09,3.48-4.38,7.25-10.25,16.63-16.67,25.96,3.29,1.63,6.62,3.11,10,4.44l22.12-33.15c1.71-2.56,4.67-4.13,7.86-4.15,12.3-.1,43.35-.37,55.72-.48,3.24-.03,6.26,1.53,8.01,4.13l22.88,34.02,6.62,9.84c3.7-.48,7.39-1.02,11.09-1.62-2.07-2.7-4.12-5.5-6.14-8.34-8.78-12.35-16.89-25.48-22.02-34.11-2.66-4.47-.09-10.39,4.7-10.8,2.97-.25,6.41-.5,10.09-.67,9.87-.46,21.45-.4,30.33,1.46,3.81.8,7.13,1.92,9.58,3.47,7.12,4.52,15.88,21.21,23.04,37.26,3.58-1.21,7.1-2.52,10.58-3.92l-7.2-21.79c-4.94-14.95-18.5-25.25-34.07-26.16-.77-.04-1.54-.07-2.32-.07l-38.99.1Z"/>
    <path class="cls-3" d="M477.17,389.62c3.93,9,7.29,17.56,9.5,23.37,1.55,4.1-.64,8.69-4.55,9.53-6.7,1.43-17.33,2.73-29.1.42-7.14-1.4-16.97-11.71-26.63-24.33-3.7.6-7.39,1.14-11.09,1.62l6.09,9.06c4.04,6-.56,13.87-8.05,13.78l-125.24-1.56c-7.36-.09-11.77-7.83-7.82-13.75l10.7-16.03,1.12-1.68c-3.38-1.34-6.71-2.81-10-4.44-1.45,2.1-2.92,4.2-4.41,6.28-11.17,15.52-23.25,29.42-31.62,31.07-.99.19-1.96.35-2.93.5-10.59,1.59-20.03.4-26.17-.91-3.91-.84-6.1-5.43-4.55-9.53.08-.21.17-.44.25-.65,1.96-5.14,4.74-12.23,8-19.83,5.85-13.67,13.21-28.96,19.94-37.47-3.43-3.5-6.59-7.19-9.4-11.09-5.25,4.26-9.39,9.92-11.81,16.57l-11.72,32.13-5.23,14.34-9.81,26.89h310.72l-14.67-44.39-2.16-6.54c-3.48,1.39-7,2.7-10.58,3.92.41.92.82,1.84,1.22,2.76Z"/>
    <path class="cls-29" d="M512.32,453.18c.23,0,.46.03.67.08.31-.77.49-1.6.49-2.48v-10.32c0-3.08-2.12-5.66-4.98-6.37-.51-.13-1.04-.2-1.59-.2H184.86c-3.63,0-6.57,2.94-6.57,6.57v10.32c0,.85.17,1.66.46,2.4h333.57Z"/>
    <path class="cls-10" d="M512.99,453.26c-.22-.05-.44-.08-.67-.08H178.05c-1.67,0-3.04,1.37-3.04,3.04s1.37,3.04,3.04,3.04h334.27c1.67,0,3.04-1.37,3.04-3.04,0-1.44-1.02-2.65-2.37-2.96Z"/>
  </g>
</svg>