<?xml version="1.0" encoding="UTF-8"?>
<svg id="Layer_6" data-name="Layer 6" xmlns="http://www.w3.org/2000/svg" viewBox="0 0 100.28 100.28">
  <defs>
    <style>
      .cls-1 {
        fill: #abb9cb;
      }

      .cls-2 {
        fill: #d3e0f3;
      }

      .cls-3 {
        fill: #fbb9b0;
      }

      .cls-4 {
        fill: #ecb640;
      }

      .cls-5 {
        fill: #8a949e;
      }

      .cls-6 {
        fill: #38a1c5;
      }

      .cls-7 {
        fill: #eb96b4;
      }

      .cls-8 {
        fill: #c9e5ed;
      }

      .cls-9 {
        fill: #4e6cc9;
      }

      .cls-10 {
        fill: #8a949f;
      }

      .cls-11 {
        fill: #94a1ae;
      }

      .cls-12 {
        fill: #aebccd;
      }

      .cls-13 {
        fill: #aabfd4;
      }

      .cls-14 {
        fill: #d8eaf2;
      }

      .cls-15 {
        fill: #f2f7fb;
      }

      .cls-16 {
        fill: #cb9e9a;
      }

      .cls-17 {
        fill: #8a959f;
      }

      .cls-18 {
        fill: #49bcfe;
      }

      .cls-19 {
        fill: #b9c8da;
      }

      .cls-20 {
        fill: #fec8bf;
      }

      .cls-21 {
        fill: #aec0d4;
      }

      .cls-22 {
        fill: #fe5a80;
      }

      .cls-23 {
        fill: #3d5898;
      }

      .cls-24 {
        fill: #f2f6fb;
      }
    </style>
  </defs>
  <path class="cls-18" d="M38.82,58.81c.04-.18.11-.17.2,0,1.97-.6,4.09-.58,6.06,0,5.38-.58,10.79-.58,16.17,0,8.53.04,19.54-2.23,22.79,8.04l5.91,25.02c.05.41,0,.25-.29.29-1.44.19-3.62,0-5.16,0-3.48.22-6.96.42-10.44.45-17.41.15-34.84.21-52.23-.45-1.92-.07-3.85-.12-5.79-.18,1.1-6.15,2.27-12.3,3.51-18.44l.44-4.38.43-.24.4.19-.02,12.55c.78,1.26,1.36.51,1.61-.65.43-2.04.47-9.66-.01-11.65-.18-.75-.42-1.02-1.2-1.03l-.18-.21c-.6-.1-.38-1.21.2-1.21.98-.56,1.32-1.29,1.03-2.2l.19-.42c-.1-1.42,1.87-2.99,3.04-3.79,1.37-.93,2.96-1.68,4.64-1.46,2.67-.45,5.92-.18,8.69-.2Z"/>
  <path class="cls-20" d="M56.41,16.36c.66.13.47,1.03-.2.81-1.01-.02-1.1.92-.28,2.83l1.39,5.67c.18,1.32,1.15,2.86,2.1,1.13l-1.91-7.22.32-.39c1.52.36,2.88,2.15,3.84,3.43,4.11,5.45,3.94,11.38,2.86,17.56l-.44.24c.08.07.02.14-.2.2l-1.79.28c-8.97.25-17.98.49-26.96.35-1.21-.02-2.4-.22-3.59-.43l.42-.55c6.56-1.98,10.55-8.69,8.65-15.37l.23-.66c.53-.03.8-.65,1.09-1.03.98-1.31,4.93-6.44,5.13-7.61.53-3.14-3.68-7.39-3.14-10.62.58-3.45,5.2-4.6,7.32-1.75,1.02,1.37,4.23,8.79,4.77,10.59.24.81.43,1.69.39,2.54Z"/>
  <path class="cls-2" d="M80.27,40.42c2.69-.04,5.39.03,8.09,0-.22.79-.13,1.64-.29,2.44-.83,4.01-4.28,6.76-8.29,7.07-5.74.45-12.63-.02-18.51,0-5.37.6-10.8.58-16.17,0-1.86.43-3.76.48-5.66.36v8.29s-.4.24-.4.24c-.07,0-.13,0-.2,0v-8.9c-4.51-.04-9.03.06-13.55,0-2.92-.3-5.18-2.03-6.51-4.66-.55-1.09-1.45-3.33-.57-4.23.77-.02,1.44-.19,2.11-.21,1.75-.05,3.68.22,5.37-.19.18-.14.39-.29.63-.31.97-.08,3.65,0,4.64.11l.59.41c10.77.13,21.57-.14,32.35-.2,5.45-.24,10.92-.24,16.38-.2Z"/>
  <path class="cls-3" d="M40.84,24.24c2.35,7.42-1.96,14.58-9.3,16.58-1.96-.02-3.95.15-5.86-.2-7.65-1.39-11.73-10.09-8.99-17.18,4.29-11.14,20.5-10.73,24.16.8Z"/>
  <path class="cls-8" d="M56.41,16.36c.54-1.61,2.09-3.72,3.45-4.74,1.63-1.23,9.81-5.62,11.72-6.28,3.59-1.23,6.97,1.25,6.67,5.06-.27,3.5-3.5,4.02-6.02,5.51-.12.07-.4,0-.26.34.12.28,2.89,2.98,3.43,3.65,3.22,3.99,5.57,9.5,3.48,14.59-1.14,2.78-4.19,5.17-7.11,5.73-2.51.35-5.07.42-7.68.2l.81-6.57c-.25-6.39-2.33-10.6-7.08-14.66-.77.47-2.6-1.53-1.62-2.02.29-.22.14-.61.2-.81Z"/>
  <path class="cls-9" d="M84.51,92.17v6.47c-20.89-.04-41.78.05-62.67,0-.16-.02-.39-.07-.4-.18-.09-1.05-.19-5.13,0-5.99l.4-.29c20.88.06,41.79.11,62.67,0Z"/>
  <path class="cls-6" d="M30.13,59.02c-3.17.54-6.05,2.5-7.68,5.26l-.35.25c-1.44-.32-1.72.47-.86,2.38l-.2,1.21c.2.45-.19.73-.61.81l-.47,4.69-3.57,18.36c.19.18,4.38-.11,5.16,0,.16.02.3,0,.29.21-2.01.55-4.06.57-6.06,0-1.5,0-3.78.21-5.16,0-.28-.04-.34.12-.3-.31l4.72-24.4c2.15-7.27,7.03-8.73,13.99-8.65.34,0,.9-.13,1.11.21Z"/>
  <path class="cls-19" d="M61.26,49.92v8.9c-5.39-.02-10.79-.02-16.17,0l-.27-.02c-.16-2.83-.2-5.71-.13-8.64l.4-.24c5.39-.01,10.79.01,16.17,0Z"/>
  <path class="cls-1" d="M18.2,41.02c-.13,3.04,1.7,6.2,4.34,7.69.87.49,1.92.67,2.74,1.21-2.18-.03-4.57.22-6.67-.3-3.68-.92-6.74-4.75-6.47-8.59,2.02-.04,4.05.05,6.07,0Z"/>
  <path class="cls-23" d="M21.84,92.17v6.47c-2.02,0-4.05,0-6.07,0v-6.47c2.02.01,4.05,0,6.07,0Z"/>
  <path class="cls-14" d="M71.78,40.21l8.49.2c-5.4.09-10.92.17-16.38.2.02-.09.11-.19.2-.2,2.51-.24,5.14.29,7.68-.2Z"/>
  <path class="cls-2" d="M53.18,62.25c2.61.59,3.62,1.16,5.66,2.83l.06.48c-1.81,1.52-.29,3.32,1.09,1.17l.47-.02c2.16,2.58,2.96,4.47,3.23,7.88l-.36.36c-2.5-.21-2.5,1.91,0,1.7l.36.36c-.4,2.95-1.33,5.03-3.23,7.28h-.48c-1.44-2.01-3.1-.29-1.12,1.14l-.02.47c-1.86,1.53-3.5,2.3-5.86,2.83-1.05.15-1.65-.05-1.82-.61l-.41-.18c-.11-.99-.72-1.33-1.81-1.03-1.4.03-2.82-1.65-3.69-2.75-3.99-5.02-3.99-12.7.16-17.63.85-1.01,2.21-2.55,3.53-2.47.48.04.95.04,1.4,0,.27-.45.54-.85.82-1.2.21-.59.88-.79,2.02-.61Z"/>
  <path class="cls-12" d="M48.93,61.85c.37.39.24,1.71,0,2.22-8.4,4.99-8.28,17.76,0,22.84.35.43.37,1.77-.2,2.02-3.17-.38-5.05-1.15-7.48-3.23l.17-.42c1.91-1.07.3-3.15-1.07-1.01h-.52c-1.75-2.06-2.99-4.51-3.23-7.27l.35-.36c2.4.17,2.36-1.88,0-1.7l-.35-.37c.16-3.22,1.2-5.46,3.23-7.88l.47.03c1.2,2.15,3.13.22.98-.98l-.03-.47c2.29-2,4.55-3.19,7.68-3.44Z"/>
  <path class="cls-11" d="M45.09,49.92v8.9c-2.02,0-4.05-.01-6.06,0v-8.9c2.02,0,4.05,0,6.06,0Z"/>
  <path class="cls-15" d="M20.43,68.92c.01-.41.26-.64.61-.81,1.03-.5,1.66.35,1.8,1.33.33,2.35.26,8.85.03,11.31-.16,1.76-1.42,2.87-2.43,1v-12.83Z"/>
  <path class="cls-17" d="M63.69,74.58c.08,1.03.15,1.31,0,2.43-3.53.56-3.53-2.98,0-2.43Z"/>
  <path class="cls-5" d="M51.16,61.85c.56.26.57.76,0,1.01-.04.76-.01,1.33-.87,1.67-.44.18-1.11-.12-1.35-.46-.35-.49-.28-1.68,0-2.22.66-.05,1.56-.04,2.22,0Z"/>
  <path class="cls-10" d="M60.45,66.7c-1.55,3.06-4.44.56-1.62-1.62.95.77.87.72,1.62,1.62Z"/>
  <path class="cls-5" d="M39.83,66.7c.64-.77.7-.79,1.42-1.42,3.24,1.53.12,4.66-1.42,1.42Z"/>
  <path class="cls-5" d="M60.45,84.29c-.55.65-.96,1.07-1.62,1.62-2.94-1.83-.23-4.62,1.62-1.62Z"/>
  <path class="cls-17" d="M51.16,88.13c.82.53.55.87-.81,1.01-.7,0-1.05-.13-1.62-.2.05-.61-.16-1.51.2-2.02.77-1.07,2.22-.37,2.22,1.21Z"/>
  <path class="cls-24" d="M22.45,64.27c.75.77.2,2.93-1.21,2.63-.86-.18-1.04-1.75-.71-2.43.26-.53,1.58-.55,1.92-.2Z"/>
  <path class="cls-5" d="M41.25,85.7c-.58-.5-.92-.83-1.42-1.42.47-.62,1.17-1.57,2.02-1.33,1.46.4.82,2.77-.61,2.75Z"/>
  <path class="cls-5" d="M36.6,77.01c-.06-.72-.04-1.69,0-2.43,3.4-.52,3.39,2.95,0,2.43Z"/>
  <path class="cls-13" d="M52.97,88.73c-.93.21-1.65.39-2.63.4.1-.31.71-.13.8-.21.06-.05,0-.61,0-.8l1.82.61Z"/>
  <path class="cls-21" d="M53.18,62.25l-2.02.61c.02-.34-.01-.67,0-1.01.78.05,1.29.24,2.02.4Z"/>
  <path class="cls-16" d="M57.83,19.19l2,7.59c.01,1.07-1.52,1.49-2.15.85-.81-.82-1.94-7.69-2.66-9.18-.05-.4-.05-1.15.23-1.44.35-.36.93-.48.96.15.06,1.04.78,1.3,1.62,2.02Z"/>
  <path class="cls-4" d="M50.95,70.34c5.01.82,5.95,7.92,1.21,9.8-6.98,2.77-10.26-8.17-2.83-9.8l.34.39-.59,3.24c-.92,3.16,3.16,3.33,2.15,0l-.61-3.19.33-.44Z"/>
  <path class="cls-22" d="M50.95,70.34c.2,1.12.93,4.24.8,5.14-.28,2.02-3.11,1.47-3.22-.19-.05-.71.62-3.98.8-4.94s.4-2.04.61-3.03c.15-.33.28-.4.4-.2.16,1.1.41,2.15.61,3.23Z"/>
  <path class="cls-7" d="M50.35,67.1l-.4.2c.05-.22.26-1.07.4-.81.02.2-.03.41,0,.61Z"/>
</svg>