<?xml version="1.0" encoding="UTF-8"?>
<svg id="Layer_6" data-name="Layer 6" xmlns="http://www.w3.org/2000/svg" viewBox="0 0 100.28 100.28">
  <defs>
    <style>
      .cls-1 {
        fill: #d1dbfc;
      }

      .cls-2 {
        fill: #27a1cb;
      }

      .cls-3 {
        fill: #6764f6;
      }

      .cls-4 {
        fill: #6763f6;
      }

      .cls-5 {
        fill: #67cbd0;
      }

      .cls-6 {
        fill: #6864f6;
      }

      .cls-7 {
        fill: #052a75;
      }

      .cls-8 {
        fill: #92b1f3;
      }

      .cls-9 {
        fill: #bb99f3;
      }

      .cls-10 {
        fill: #fefefe;
      }
    </style>
  </defs>
  <path class="cls-7" d="M34.67,3.11c10.98.43,17.63,12.01,19.77,21.27,1.41.07,2.83.06,4.26-.05,2.75.08,4.56.41,4.33,3.8-.08,3.31-.12,6.62-.11,9.93-.04.8-1.46,2.36-2.1,1.55,0,.14-.03.36-.12.37-1.14.1-4.8.19-5.81,0l-.22-.37.35.63c.32,8.21.37,15.69-6.77,21.09-2.58,1.95-6.1,3.47-9.33,3.26-1.14,16.26,17.57,26.82,30.36,15.9,6.95-5.93,6.81-13.31,6.44-21.8-1.96-.13-2.09-2.06-2.07-3.65.13-2.28.16-4.54.1-6.78-4.49-2.96-6.66-7.3-7.16-12.56-.41-4.29-.32-9.09-.2-13.42.16-5.81.36-10.56,4.66-14.95,2.44-2.5,5.61-4.13,9.13-4.23h3.85c6.98.37,13.15,6.68,13.09,13.74.12,7.26.07,14.52-.14,21.76-.62,3.96-3.43,7.53-6.68,9.74l-.04,8.63c-.15,1.1-1.06,1.53-2.01,1.81l.02,7.33c.13,10.71-5.19,20.56-14.17,26.37-6.4,4.14-12.35,5.03-19.82,4.56-16.14-1.01-29.15-16.46-27.54-32.49-4.43.29-9.18-2.34-12.08-5.69-1.1-1.27-4.31-6.85-4-8.56.03-.16.19-.26.34-.34l-.37-.17v-9.98l.37-.22c0,.14-.03.36-.12.37-1.14.1-4.8.19-5.81,0l-.22-.37c-.59.8-1.69-.43-1.74-1.28v-12.29c.04-.88,1.24-2.01,1.93-1.28,0-.14.03-.36.12-.37,1.85-.11,4.32-.11,6.17,0l.22.37-.25-.67C13.33,14.46,20.26,3.65,30.81,3.11h3.85Z"/>
  <path class="cls-10" d="M34.48,6.96c10.31,1.22,16.04,13.49,16.52,22.83.28,5.44.35,12.95,0,18.36-.44,6.86-5.38,12.11-12.3,12.56,0-2.63,0-5.26,0-7.89l.27-.56c11.63-7.62,3.54-24.91-9.77-21.25l-.59-.2c-.17.01-.42.02-.47-.1-.51-1.13.4-6.77.65-8.35.73-4.5,1.89-8.51,3.68-12.7.22-.52,1.12-2.55,1.25-2.62.18-.1.54-.1.76-.08Z"/>
  <path class="cls-1" d="M34.48,6.96c-.44-.1-.38.23-.52.48-3.56,6.7-5.09,14.26-5.55,21.8-.03.45-.11,1.22.19,1.57.25.25.14.37-.18.18l-.37.55c-8.92,3.89-9.42,16.04-1.23,21.03.2,2.68.24,5.48-.05,8.14-.25.09-1.65-.19-2.02-.27-5.42-1.17-9.45-5.69-10.09-11.19.66-10.49-1.97-21.81,3.03-31.48,3.44-6.65,8.85-11.76,16.79-10.82Z"/>
  <path class="cls-8" d="M79.8,58.33h4.4c0,6.36.52,12.19-1.88,18.21-6.85,17.21-29.04,22.39-42.89,9.95s-7.66-28.77-8.81-44.41c.25-2.68,4.01-2.63,4.4.21.5,8.55-.61,17.75.02,26.22,1.47,19.86,27.39,27.69,39.81,12.11,5.43-6.82,5.2-13.93,4.96-22.29Z"/>
  <path class="cls-9" d="M77.23,19.99c5.38-.02,10.77.02,16.15,0v13.39c-4.34,0-8.69,0-13.03,0-.28-.19-.53-.42-.7-.71-1.34-2.35-2.81-9-2.75-11.74,0-.34.17-.65.33-.95Z"/>
  <path class="cls-5" d="M38.7,52.83c0-3.38.29-7.45,0-10.73-.43-4.76-5.67-7.42-9.54-4.5-.12.12-.27.2-.41.14-.51-.24-.65-5.01-.65-5.96l.32-.79c.06-.02.13-.16.18-.18,6.88-2.35,14.47,1.68,16.02,8.84,1.12,5.19-1.19,10.72-5.93,13.18Z"/>
  <path class="cls-9" d="M79.25,7.15c6.55-1.6,12.91,2.53,13.94,9.17-5.26,0-10.52.02-15.78,0-.09-.1-.18-.21-.24-.33-.53-.99,1.01-7.01,1.54-8.33l.54-.51Z"/>
  <path class="cls-6" d="M93.19,37.23l-.17.37h-9.84c1.51,2.31,3.23,4.61,5.5,6.29l.1.5c-6.92,5.1-16.61,1.03-17.98-7.34l22.38.18Z"/>
  <path class="cls-2" d="M28.43,31c.14,1.91.12,3.88.37,5.78.04.33.05.63.37.82-.94.71-2.03,2.42-2.19,3.59-.76,5.8.71,13.27,0,19.08-.03.2.08.36-.19.45l-.03-7.77c-.61-.51-1.3-.87-1.9-1.4-6.93-6.1-5.06-17.24,3.58-20.55Z"/>
  <path class="cls-6" d="M77.23,19.99c.13,4.64,1.29,9.16,3.12,13.39-3.24,0-6.49,0-9.72,0v-13.39c2.2,0,4.41,0,6.6,0Z"/>
  <path class="cls-9" d="M93.19,37.23c-.42,2.85-2.11,5.47-4.4,7.16-1.16-.69-2.33-1.91-3.21-2.93-.28-.32-3.23-4.07-3.02-4.22h10.64Z"/>
  <path class="cls-6" d="M79.25,7.15c-.9,2.98-1.85,6.02-1.83,9.17-2.2,0-4.42.08-6.61-.09.81-4.43,4.05-8.01,8.44-9.08Z"/>
  <path class="cls-6" d="M86.22,49.71v4.95h-8.44v-4.95c2.75.72,5.7.81,8.44,0Z"/>
  <path class="cls-3" d="M58.89,28.43v7.52h-4.22l-.17-7.08c-.04-.15.19-.44.27-.44h4.13Z"/>
  <path class="cls-4" d="M11,28.43v7.25s-.26.28-.28.28h-3.94v-7.52h4.22Z"/>
</svg>