<?xml version="1.0" encoding="UTF-8"?>
<svg id="Layer_3" data-name="Layer 3" xmlns="http://www.w3.org/2000/svg" viewBox="0 0 668 512">
  <defs>
    <style>
      .cls-1 {
        fill: #ffddda;
      }

      .cls-2 {
        fill: #c68783;
      }

      .cls-3 {
        fill: #80bfd1;
      }

      .cls-4 {
        fill: #a86867;
      }

      .cls-5 {
        fill: #aa7775;
      }

      .cls-6 {
        fill: #89e56c;
      }

      .cls-7 {
        fill: #fff;
      }

      .cls-8 {
        fill: #f4c6a3;
      }

      .cls-9 {
        fill: #8f5958;
      }

      .cls-10 {
        fill: #fff2e9;
      }

      .cls-11 {
        fill: #d39894;
      }

      .cls-12 {
        fill: #d2f0ff;
      }

      .cls-13 {
        fill: #a1d2f7;
      }

      .cls-14 {
        fill: #81c2fa;
      }

      .cls-15 {
        fill: #ffb996;
      }

      .cls-16 {
        fill: #f69fab;
      }

      .cls-17 {
        fill: #ffd1b7;
      }

      .cls-18 {
        fill: #f4dcd3;
      }

      .cls-19 {
        fill: #a6caff;
      }

      .cls-20 {
        fill: #ba797a;
      }

      .cls-21 {
        fill: #55a6b7;
      }

      .cls-22 {
        fill: #d3816a;
      }

      .cls-23 {
        fill: #995b5b;
      }

      .cls-24 {
        fill: #b70000;
      }

      .cls-25 {
        fill: #8e5153;
      }

      .cls-26 {
        fill: #ffef57;
      }

      .cls-27 {
        fill: #f761ff;
      }

      .cls-28 {
        fill: #ff8f6c;
      }

      .cls-29 {
        fill: #31caff;
      }

      .cls-30 {
        fill: #aee4e5;
      }

      .cls-31 {
        fill: #c17c80;
      }

      .cls-32 {
        opacity: .5;
      }

      .cls-33 {
        fill: #aa645f;
      }
    </style>
  </defs>
  <path class="cls-10" d="M201.54,502.23s-20.73-32.42-143.97-107.62c-76.1-46.43,45.77-58.23,81.59-75.04,35.82-16.8-81.58-77.51-119.67-106.9C4.24,200.89.11,100.13,50.79,58.15,112.86,6.74,183.32-22.31,254.98,77.8c71.67,100.11,67.87,23.99,88.1-3.82S379.67-1.32,495.62,16.3c115.96,17.62,95.28,59.86,138.94,107.68,43.66,47.81,31.4,145.87-64.38,233.84-30.62,28.12-120.96,41.71-93.23,129.7,6.73,21.37-47.36,13.81-47.36,13.81l-228.05.9Z"/>
  <g>
    <g id="ear">
      <g>
        <rect class="cls-7" x="104.58" y="24.66" width="172.53" height="117.89"/>
        <g>
          <path class="cls-8" d="M204.5,47.28c-.6-.18-1.21-.36-1.83-.56-4.35-1.39-9.23-1.92-13.51-.34-5.98,2.22-10.03,9.41-12.82,14.75-2.84,5.45-6.35,10.58-8.67,16.29-2.99,7.36.2,15.05,1.95,22.25.75,3.06.27,6.28.8,9.35,1.69,9.95,10.51,15.22,20.24,12.87,5.4-1.3,7.59-6.11,11.06-9.81,1.43-1.52,2.5-2.51,3.37-4.49.97-2.19,1.66-4.51,3.43-6.23,1.03-1.01,2.22-1.2,3.34-1.99,1.44-1.02,2.64-2.85,3.71-4.24,2.51-3.25,2.74-7.16,3.17-11.16.42-3.95.47-7.95.14-11.92-.64-7.58-2.72-15.73-8.07-21.42-1.82-1.93-3.96-2.66-6.31-3.37Z"/>
          <path class="cls-22" d="M189.63,77.54c-2.18-3.71-4.11-7.74-4.49-12.18-.18-2.23.25-4.46,1.18-6.52.93-2.05,2.51-3.84,4.49-4.98,3.99-2.32,9.09-2.03,13.07.09,2,1.06,3.78,2.61,5.06,4.48,1.29,1.85,2.27,3.84,3.1,5.89,1.62,4.1,2.59,8.42,3.05,12.78.21,2.19.29,4.4.08,6.61-.22,2.18-.78,4.46-1.81,6.44-2.03,4.07-5.58,6.93-9,9.53-3.45,2.6-6.98,5.13-9.62,8.57h0s0,.01,0,.01c-.29.29-.56.62-.79.97-.22.36-.43.73-.63,1.1.17-.39.36-.77.56-1.14.21-.37.45-.72.74-1.05h0c2.45-3.6,5.91-6.4,9.24-9.11,3.33-2.7,6.64-5.59,8.39-9.42,1.82-3.78,1.9-8.14,1.43-12.36-.47-4.23-1.51-8.42-3.06-12.36-1.55-3.92-3.65-7.79-7.39-9.7-3.6-1.97-8.2-2.23-11.84-.3-3.68,1.91-5.67,6.28-5.51,10.45.12,4.26,1.88,8.35,3.76,12.21Z"/>
          <path class="cls-22" d="M190.79,69.39c2.2,2.5,4.27,5.1,6.15,7.88,1.81,2.8,3.46,5.8,4.21,9.18.36,1.68.44,3.5-.05,5.23-.46,1.74-1.5,3.3-2.81,4.49-1.31,1.2-2.83,2.07-4.42,2.75-1.6.65-3.18,1.17-4.8,1.63-1.63.44-3.28.81-5,1-.86.09-1.73.14-2.65.04-.46-.05-.93-.14-1.41-.36-.47-.2-.99-.59-1.26-1.17-.17-.43-.15-.37-.22-.8-.04-.34,0-.59.05-.86.11-.53.34-.97.6-1.37.52-.78,1.15-1.39,1.75-1.98,1.13-1.18,2.49-2.26,2.79-3.6.16-.67.1-1.48-.06-2.2-.16-.69-.61-1.38-1.04-2.08-.43-.7-.92-1.4-1.25-2.26-.17-.39-.25-1.02-.14-1.43.06-.41.18-.91.41-1.31.42-.89,1.49-1.38,2.37-1.29.9.04,1.71.34,2.49.67,1.55.68,2.92,1.64,4.3,2.56-1.46-.79-2.91-1.62-4.45-2.18-.77-.27-1.57-.49-2.33-.47-.77,0-1.42.38-1.69,1.05-.15.34-.23.66-.27,1.07-.07.41,0,.63.14,1.01.3.68.79,1.35,1.26,2.04.46.69.99,1.39,1.27,2.32.23.89.35,1.78.18,2.74-.16.97-.72,1.8-1.27,2.46-.58.67-1.14,1.24-1.75,1.85-.58.58-1.13,1.15-1.53,1.77-.19.3-.33.62-.39.9-.03.13-.04.31-.02.38-.04-.01.11.46.11.4.15.36.81.63,1.55.69.74.08,1.53.02,2.32-.07,1.59-.2,3.18-.58,4.75-1.02,3.15-.88,6.35-1.83,8.69-3.94,1.16-1.03,2.05-2.33,2.47-3.81.43-1.47.43-3.07.18-4.64-.55-3.16-2.03-6.17-3.68-9-1.64-2.87-3.59-5.56-5.51-8.27Z"/>
          <path class="cls-22" d="M175.27,62.79c1.53-3.07,2.95-6.2,4.83-9.1,1.85-2.89,4.37-5.55,7.63-7,3.26-1.43,6.84-1.77,10.34-1.54,3.51.26,6.97,1.29,10.05,3.07,3.08,1.76,5.73,4.31,7.58,7.36,1.82,3.06,2.99,6.4,3.82,9.8,1.61,6.81,1.7,13.94.55,20.79-.5,3.37-1.41,7.11-3.82,9.93-2.32,2.77-5.12,4.81-7.42,7.22-4.45,4.76-6.6,11.93-12.25,16.51-2.77,2.3-6.33,3.53-9.83,3.77-3.59.31-7.2-.88-10.01-3.01-2.81-2.13-4.93-5.14-5.9-8.5-.97-3.41-.47-6.89-.4-10.3.13,3.41-.16,6.93.89,10.15,1.08,3.19,3.24,5.99,5.97,7.88,5.41,4.1,13.39,3.09,18.32-1.15,2.5-2.15,4.34-5,6.1-7.9l2.64-4.42c.85-1.47,1.97-3,3.18-4.25,2.42-2.56,5.19-4.65,7.26-7.17,2.09-2.49,2.86-5.71,3.35-9.07,1.18-6.65,1.14-13.52-.35-20.08-.76-3.26-1.87-6.48-3.53-9.33-1.7-2.82-4.08-5.22-6.91-6.95-5.63-3.44-13.01-4.28-19.25-1.93-3.11,1.22-5.64,3.64-7.58,6.42-1.96,2.78-3.54,5.85-5.26,8.82Z"/>
          <g class="cls-32">
            <path class="cls-22" d="M194.03,65.39c3.68.59,6.13-.49,3.44-3.88-1.5-1.9-3.96-6.32-6.7-6.52-3.09-.22-4.92,5.25-5.25,7.51-.23,1.58-.75,3.87,1.43,3.23,2.47-.73,4.61-.73,7.09-.34Z"/>
            <path class="cls-22" d="M207.76,57.54c-.48-.51-1-.96-1.59-1.31-1.57-.94-3.22-2.28-4.95-2.97-1.17-.47-4.34-1.13-5.32.02.63,1.05,2.29,1.16,3.16,1.95,3,2.71,5.09,5.83,6.24,9.76,1.67,5.68,1.79,11.73,1.74,17.61-.03,3.34-.2,6.73-1.42,9.88-1.26,3.26-3.54,5.3-6.15,7.48-1.9,1.59-3.83,3.36-5.11,5.51-.37.63-1.52,2.58-1.02,3.35.69,1.06,1.65-1.15,2.15-1.72,3.06-3.38,7.05-5.69,10.29-8.86,2.3-2.25,5.86-4.84,7.17-7.86,1.23-2.83,1.84-6.37,1.84-9.44.01-4.68-.91-9.34-2.54-13.73-1.1-2.96-2.16-7.14-4.5-9.67Z"/>
            <path class="cls-22" d="M188.86,84.6c1.32,2.16,1.93,5.01,2.32,7.1.45,2.4.37,4.88-1.84,6.4-2.12,1.46-5.02,3.5-7.77,2.77-1.68-.45-2.47-1.78-1.42-3.32,1.66-2.45,5.55-4.65,4.3-8.07-.83-2.28-3.62-3.66-2.88-6.42.43-1.59,2.06-1.75,3.46-1.45,1.7.36,2.93,1.51,3.83,2.99Z"/>
            <path class="cls-22" d="M186.78,70.87c3.06-2.41,8.05,3.64,9.46,5.82,1.66,2.57,4.18,8.17,3.7,11.23-2.59.58-7.1-7.19-8.66-8.91-2.05-2.26-3.96-5.33-4.51-7.75v-.39Z"/>
          </g>
        </g>
      </g>
      <path class="cls-22" d="M184.99,84.72c-.06,0-.12-.02-.17-.07l-20.26-18.2h-27.82c-.14,0-.26-.12-.26-.26s.12-.26.26-.26h27.92c.06,0,.12.02.17.07l20.34,18.27c.11.1.11.26.02.37-.05.06-.12.09-.19.09Z"/>
      <path class="cls-22" d="M191.02,61.54c-.08,0-.15-.03-.2-.1-.09-.11-.07-.28.04-.36l23.52-18.35s.1-.06.16-.06h36.32c.14,0,.26.12.26.26s-.12.26-.26.26h-36.23l-23.45,18.3s-.1.06-.16.06Z"/>
      <path class="cls-22" d="M165.43,114.8h-36.45c-.14,0-.26-.12-.26-.26s.12-.26.26-.26h36.35l19.83-17.26c.11-.09.27-.08.37.03.09.11.08.27-.03.36l-19.91,17.32s-.11.06-.17.06Z"/>
      <path class="cls-22" d="M174.73,89.72h-30.25c-.14,0-.26-.12-.26-.26s.12-.26.26-.26h30.25c.14,0,.26.12.26.26s-.12.26-.26.26Z"/>
      <path class="cls-22" d="M250.74,76.28h-46.53c-.14,0-.26-.12-.26-.26s.12-.26.26-.26h46.53c.14,0,.26.12.26.26s-.12.26-.26.26Z"/>
      <path class="cls-22" d="M183.01,50.68s-.08,0-.12-.03l-17.52-9.28h-30.18c-.14,0-.26-.12-.26-.26s.12-.26.26-.26h30.25s.08.01.12.03l17.58,9.31c.13.07.17.22.11.35-.05.09-.14.14-.23.14Z"/>
      <path class="cls-22" d="M232.13,119.97h-26.37s-.06,0-.09-.02l-19.39-6.98c-.13-.05-.2-.2-.16-.33.05-.13.19-.2.33-.16l19.35,6.96h26.32c.14,0,.26.12.26.26s-.12.26-.26.26Z"/>
      <rect class="cls-13" x="237.68" y="114.93" width="20.94" height="4.91"/>
      <rect class="cls-13" x="120.58" y="84.94" width="20.94" height="4.91"/>
      <rect class="cls-13" x="254.75" y="38.27" width="7.36" height="4.92"/>
      <rect class="cls-13" x="244.28" y="94.63" width="16.8" height="4.92"/>
      <rect class="cls-13" x="124.72" y="36.98" width="7.36" height="4.92"/>
      <rect class="cls-13" x="124.72" y="61.67" width="7.36" height="4.92"/>
      <rect class="cls-13" x="119.29" y="109.75" width="7.36" height="4.92"/>
      <rect class="cls-13" x="254.11" y="71.36" width="7.36" height="4.92"/>
      <path class="cls-22" d="M240.14,99.54h-21.2s-.06,0-.08-.01l-23.01-7.76c-.14-.05-.21-.19-.16-.33.05-.13.19-.21.33-.16l22.97,7.74h21.16c.14,0,.26.12.26.26s-.12.26-.26.26Z"/>
    </g>
    <g>
      <path class="cls-11" d="M195.25,165h-4.16l-.1-1.13c3.48-.54,5.92-3.58,5.6-7.25-.26-2.96-2.24-5.5-4.86-6.67l1.83-2.04c.27-.3.27-.75.05-1.11l.43-.48-1.6-1.44-.41.46c-.38-.23-.87-.18-1.15.14l-6.66,7.43c-.29.32-.28.81,0,1.17l-.53.59,1.59,1.45.55-.62c.37.19.81.13,1.08-.16l3.54-3.95c2.28.71,4.07,2.78,4.28,5.23.26,3.02-1.98,5.47-5,5.47-2.48,0-4.73-1.65-5.6-3.91h-1.92c.93,3.06,3.72,5.4,6.92,5.73l.1,1.08h-4.08c-.52,0-.91.32-.87.72.03.4.06.72.06.72h11.97l-.06-.72c-.04-.4-.48-.72-.99-.72Z"/>
      <g>
        <g>
          <g>
            <path class="cls-21" d="M215.14,159.49h0s-.01.09-.02.12c-.92,4.33-1.52-.6-1.52-.6,0,0-.86-3.61.48-6.87.02-.04.03-.09.05-.12,0,0,.02.05.07.13.14.28.47.96.74,1.94h0c.37,1.34.64,3.23.2,5.39Z"/>
            <path class="cls-21" d="M217.84,161.19c-1.27,4.24-1.47-.72-1.47-.72,0,0-.05-.33-.08-.87h0c-.06-1.06-.02-2.94.63-4.81h0c.13-.36.27-.71.45-1.06.03-.07.06-.13.09-.19,0,0,.02.03.04.08.23.52,1.5,3.71.34,7.57Z"/>
            <path class="cls-21" d="M216.93,154.79c0,1.21-.13,2.55-.44,3.97-.07.32-.13.6-.19.83-.66,2.53-1,1.23-1.16-.1-.09-.78-.12-1.57-.12-1.57,0,0-.21-1.63-.07-3.82.1-1.53.37-3.33,1-5.04.02-.06.05-.12.07-.18,0,0,.02.05.06.16.2.58.88,2.76.86,5.75Z"/>
          </g>
          <g>
            <path class="cls-7" d="M216.07,149.04v8.44h-.12v-8.42c.02-.06.05-.12.07-.18,0,0,.02.05.06.16Z"/>
            <path class="cls-7" d="M217.5,153.62l-.1,3.86h-.12l.1-3.76c.03-.07.06-.13.09-.19,0,0,.02.03.04.08Z"/>
            <path class="cls-7" d="M214.66,157.48h-.12l-.47-5.33s.03-.09.05-.12c0,0,.02.05.07.13l.47,5.32Z"/>
          </g>
        </g>
        <polygon class="cls-11" points="218.48 157.48 215.82 157.48 213.16 157.48 210.68 164.83 211.55 166.36 215.82 166.36 220.09 166.36 220.97 164.83 218.48 157.48"/>
      </g>
      <g>
        <path class="cls-30" d="M200.22,139.36v.46c1.2.23,1.01.97,1.01.97v24.14c0,.65.53,1.18,1.18,1.18h4.26c.65,0,1.18-.52,1.17-1.18v-25.56s-7.62,0-7.62,0Z"/>
        <path class="cls-3" d="M207.1,151.62v13.24c0,.27-.23.51-.5.51h-4.26c-.14,0-.22-.06-.27-.11-.04-.05-.11-.14-.11-.28v-13.36h5.14Z"/>
        <g>
          <path class="cls-7" d="M204.93,143.57h-1.59s-.1-.04-.1-.09c0-.05.03-.09.08-.09h1.59c.05,0,.1.04.1.09,0,.05-.03.09-.08.09Z"/>
          <path class="cls-7" d="M204.93,144.24h-1.59c-.05,0-.1-.04-.1-.09,0-.05.03-.09.08-.09h1.59c.05,0,.1.04.1.09,0,.05-.03.09-.09.09Z"/>
          <path class="cls-7" d="M204.93,144.92h-1.59s-.1-.04-.1-.09c0-.05.03-.09.08-.09h1.59c.05,0,.1.04.1.09,0,.05-.03.09-.08.09Z"/>
          <path class="cls-7" d="M204.93,145.59h-1.59s-.1-.04-.1-.09c0-.05.03-.09.08-.09h1.59c.05,0,.1.04.1.09,0,.05-.03.09-.08.09Z"/>
          <path class="cls-7" d="M204.93,146.26h-1.59c-.05,0-.1-.04-.1-.09,0-.05.03-.09.09-.09h1.59c.05,0,.1.04.1.09,0,.05-.03.09-.08.09Z"/>
          <path class="cls-7" d="M204.93,146.94h-1.59s-.1-.04-.1-.09c0-.05.03-.09.08-.09h1.59c.05,0,.1.04.1.09,0,.05-.03.09-.08.09Z"/>
          <path class="cls-7" d="M204.93,147.61h-1.59s-.1-.04-.1-.09c0-.05.03-.09.08-.09h1.59c.05,0,.1.04.1.09,0,.05-.03.09-.08.09Z"/>
          <path class="cls-7" d="M204.93,148.28h-1.59s-.1-.04-.1-.09c0-.05.03-.09.08-.09h1.59c.05,0,.1.04.1.09,0,.05-.03.09-.09.09Z"/>
          <path class="cls-7" d="M204.93,148.96h-1.59s-.1-.04-.1-.09c0-.05.03-.09.09-.09h1.6s.09.05.1.09c0,.05-.03.09-.08.09Z"/>
          <path class="cls-7" d="M204.93,149.63h-1.59c-.05,0-.1-.04-.1-.09,0-.05.03-.09.09-.09h1.6s.09.04.1.09c0,.05-.03.09-.08.09Z"/>
          <path class="cls-7" d="M204.93,150.3h-1.59s-.1-.04-.1-.09c0-.05.03-.09.08-.09h1.59c.05,0,.1.04.1.09,0,.05-.03.09-.09.09Z"/>
          <path class="cls-7" d="M204.93,150.98h-1.59c-.05,0-.1-.04-.1-.09,0-.05.03-.09.09-.09h1.6s.09.04.1.09c0,.05-.03.09-.08.09Z"/>
          <path class="cls-7" d="M204.93,151.65h-1.59c-.05,0-.1-.04-.1-.09,0-.05.03-.09.08-.09h1.59c.05,0,.1.04.1.09,0,.05-.03.09-.09.09Z"/>
          <path class="cls-7" d="M204.93,152.33h-1.59c-.05,0-.1-.04-.1-.09,0-.05.03-.09.08-.09h1.59c.05,0,.1.04.1.09,0,.05-.03.09-.09.09Z"/>
          <path class="cls-7" d="M204.93,153h-1.59c-.05,0-.1-.04-.1-.09,0-.05.03-.09.08-.09h1.59c.05,0,.1.04.1.09,0,.05-.03.09-.09.09Z"/>
          <path class="cls-7" d="M204.93,153.67h-1.59c-.05,0-.1-.04-.1-.09,0-.05.03-.09.08-.09h1.59c.05,0,.1.04.1.09,0,.05-.03.09-.09.09Z"/>
          <path class="cls-7" d="M204.93,154.35h-1.59s-.09-.04-.1-.09c0-.05.03-.09.08-.09h1.59c.05,0,.1.04.1.09,0,.05-.03.09-.09.09Z"/>
          <path class="cls-7" d="M204.93,155.02h-1.59c-.05,0-.1-.04-.1-.09,0-.05.03-.09.09-.09h1.59c.05,0,.1.04.1.09,0,.05-.03.09-.08.09Z"/>
          <path class="cls-7" d="M204.93,155.7h-1.59c-.05,0-.09-.04-.1-.09,0-.05.03-.09.08-.09h1.59c.05,0,.1.04.1.09,0,.05-.03.09-.09.09Z"/>
          <path class="cls-7" d="M204.93,156.37h-1.59s-.1-.04-.1-.09c0-.05.03-.09.09-.09h1.59c.05,0,.1.04.1.09,0,.05-.03.09-.09.09Z"/>
          <path class="cls-7" d="M204.93,157.04h-1.59s-.1-.04-.1-.09c0-.05.03-.09.08-.09h1.59c.05,0,.1.04.1.09,0,.05-.03.09-.09.09Z"/>
          <path class="cls-7" d="M204.93,157.71h-1.59s-.1-.04-.1-.09c0-.05.03-.09.08-.09h1.6s.09.04.1.09c0,.05-.03.09-.08.09Z"/>
          <path class="cls-7" d="M204.93,158.39h-1.59s-.1-.04-.1-.09c0-.05.03-.09.08-.09h1.59c.05,0,.1.04.1.09,0,.05-.03.09-.09.09Z"/>
          <path class="cls-7" d="M204.93,159.06h-1.59s-.1-.04-.1-.09c0-.05.03-.09.08-.09h1.59c.05,0,.1.04.1.09,0,.05-.03.09-.09.09Z"/>
          <path class="cls-7" d="M204.93,159.73h-1.59s-.1-.04-.1-.09c0-.05.03-.09.09-.09h1.59c.05,0,.1.04.1.09,0,.05-.03.09-.09.09Z"/>
          <path class="cls-7" d="M204.93,160.41h-1.59c-.05,0-.1-.05-.1-.09,0-.05.03-.09.08-.09h1.59s.1.04.1.09c0,.05-.03.09-.09.09Z"/>
          <path class="cls-7" d="M204.93,161.08h-1.59c-.05,0-.1-.04-.1-.09,0-.05.03-.09.08-.09h1.59c.05,0,.1.04.1.09,0,.05-.03.09-.09.09Z"/>
          <path class="cls-7" d="M204.93,161.76h-1.59c-.05,0-.1-.04-.1-.09,0-.05.03-.09.09-.09h1.59c.05,0,.1.04.1.09,0,.05-.03.09-.09.09Z"/>
          <path class="cls-7" d="M204.93,162.43h-1.59c-.05,0-.09-.04-.1-.09,0-.05.03-.09.09-.09h1.59c.05,0,.1.04.1.09,0,.05-.03.09-.09.09Z"/>
          <path class="cls-7" d="M204.93,163.1h-1.59c-.05,0-.1-.04-.1-.1,0-.05.03-.09.08-.09h1.59c.05,0,.1.04.1.09,0,.05-.03.1-.09.1Z"/>
          <path class="cls-7" d="M204.93,163.77h-1.59s-.1-.04-.1-.09c0-.05.03-.09.08-.09h1.59c.05,0,.1.04.1.09,0,.05-.03.09-.09.09Z"/>
        </g>
      </g>
      <g>
        <g>
          <rect class="cls-18" x="73.24" y="169.2" width="85.99" height="61.25"/>
          <rect class="cls-11" x="239.91" y="168.67" width="45.48" height="61.55"/>
          <rect class="cls-18" x="233.37" y="168.67" width="45.48" height="61.55"/>
          <rect class="cls-18" x="158.02" y="168.29" width="37.11" height="62.15"/>
          <rect class="cls-18" x="195.13" y="168.29" width="38.47" height="62.15"/>
          <path class="cls-11" d="M75.91,170.1v-2.26c0-.75.61-1.35,1.36-1.35h211.5c.75,0,1.36.61,1.36,1.35v2.26s-214.21,0-214.21,0Z"/>
          <rect class="cls-11" x="158.93" y="170.03" width="74.67" height="4.07"/>
          <path class="cls-18" d="M70.22,170.1v-2.26c0-.75.61-1.35,1.36-1.35h211.5c.75,0,1.36.61,1.36,1.35v2.26H70.22Z"/>
          <rect class="cls-11" x="77.46" y="173.42" width="76.64" height="10.56"/>
          <rect class="cls-11" x="77.46" y="186.09" width="37.34" height="12.22"/>
          <rect class="cls-11" x="116.61" y="186.09" width="37.34" height="12.22"/>
          <rect class="cls-11" x="77.46" y="199.44" width="37.34" height="12.22"/>
          <rect class="cls-11" x="116.61" y="199.44" width="37.34" height="12.22"/>
          <rect class="cls-11" x="77.46" y="212.79" width="37.34" height="12.22"/>
          <rect class="cls-11" x="116.61" y="212.79" width="37.34" height="12.22"/>
          <rect class="cls-11" x="197.4" y="176.89" width=".91" height="13.27"/>
          <rect class="cls-11" x="191.51" y="176.89" width=".9" height="13.27"/>
          <rect class="cls-11" x="236.01" y="175.38" width="37.71" height="10.86"/>
          <rect class="cls-11" x="236.01" y="188.06" width="37.71" height="10.86"/>
          <rect class="cls-11" x="236.01" y="200.73" width="37.71" height="10.86"/>
          <rect class="cls-11" x="236.01" y="213.4" width="37.71" height="10.86"/>
        </g>
        <polygon class="cls-11" points="194.68 174.1 194.68 230.43 195.13 230.46 195.13 174.1 194.68 174.1"/>
      </g>
    </g>
    <g>
      <g id="boy">
        <path class="cls-23" d="M166.75,211.14h-40.37c-2.2,0-3.98-1.78-3.98-3.98s1.78-3.98,3.98-3.98h40.37c2.2,0,3.98,1.78,3.98,3.98s-1.78,3.98-3.98,3.98Z"/>
        <path class="cls-23" d="M134.24,204.54c-.94-.02-1.58-.79-1.42-1.71l9.67-57.19c.16-.92,1.05-1.68,1.99-1.67l33.26.26c.94.01,1.58.77,1.42,1.7l-9.67,57.48c-.16.93-1.05,1.67-1.99,1.65l-33.26-.51Z"/>
        <path class="cls-4" d="M130.83,204.54c-.94-.02-1.58-.79-1.42-1.71l9.66-57.19c.16-.92,1.05-1.68,1.99-1.67l33.26.26c.94.01,1.58.77,1.42,1.7l-9.67,57.48c-.15.93-1.05,1.67-1.99,1.65l-33.26-.51Z"/>
        <path class="cls-23" d="M163.14,209.96l9.35,53.86c.08.47.52.78.99.7.45-.08.75-.49.7-.93l-5.86-54.36c-.15-1.44-1.44-2.47-2.88-2.32-1.44.15-2.47,1.45-2.32,2.88,0,.05.02.11.02.17Z"/>
        <path class="cls-23" d="M133.57,209.96l9.35,53.86c.08.47.52.78.99.7.44-.08.75-.49.7-.93l-5.86-54.36c-.16-1.44-1.45-2.47-2.88-2.32-1.44.15-2.48,1.45-2.32,2.88,0,.05.02.11.02.17Z"/>
        <path class="cls-4" d="M161.44,211.14h-40.37c-2.2,0-3.98-1.78-3.98-3.98s1.78-3.98,3.98-3.98h40.37c2.2,0,3.98,1.78,3.98,3.98s-1.78,3.98-3.98,3.98Z"/>
        <path class="cls-4" d="M125.18,210.02l-9.99,53.75c-.09.46-.53.77-.99.68-.44-.08-.74-.5-.69-.94l6.5-54.28c.17-1.43,1.47-2.46,2.91-2.29,1.43.17,2.46,1.48,2.29,2.91,0,.05-.02.11-.02.17Z"/>
        <path class="cls-4" d="M158.23,209.96l-9.35,53.86c-.08.47-.52.78-.99.7-.44-.08-.75-.49-.7-.93l5.86-54.36c.16-1.44,1.45-2.47,2.88-2.32,1.44.15,2.48,1.45,2.32,2.88,0,.05-.01.11-.02.17Z"/>
        <g>
          <g>
            <path class="cls-18" d="M125.36,157.69c-.08-1.73-.17-4.81-1.21-6.3-.9-1.27-2.86-1.64-4.31-1.3-1.95.48-2.32,1.72-2.37,3.45-.13,4.46-.46,9.32-1.51,13.58-.88,3.59-2.99,6.41-4.85,9.52-1.56,2.6-2.84,5.51-5.11,7.59.1-.1,5.16,2.94,5.71,3.23,2.03-2.31,3.4-4.6,5.17-7.09,1.88-2.65,3.99-5.16,5.63-7.98,2.77-4.75,3.08-9.23,2.85-14.69Z"/>
            <path class="cls-15" d="M111.57,186.54c-.16,1.33-1.52,1.53-2.49,2.04-1.27.66-1.85,1.65-2.94,2.47-.37-.73-.32-1.56.13-2.21-2.16-.4-4.62,2.56-6.35,3.52-.68-1.04.42-2.29,1.3-2.92-.19.66-.58,1.25-1.12,1.62.18-.49.29-.85.65-1.31-.39.68-.98,1.26-1.6,1.68.41-3.43,7.35-7.82,10.51-7.69.55,1.07,1.59,1.85,1.92,2.99v-.19Z"/>
            <g>
              <g>
                <path class="cls-15" d="M126.93,204.44c-2.5.12-5.03.14-7.55.39-2.78.27-5.59.59-8.38.9-.77.1-2.04,0-2.74.34-1.61.75-1.13,3.06-1.36,4.64-.2,1.57-.5,3.13-.82,4.68-.71,3.49-1.56,6.93-2.47,10.38-1.09,4.06-2.25,8.11-3.49,12.12.05.52.15,1.04.38,1.59.18.43.41.85.61,1.26.04.12.11.25.18.37.68,1.4,1.23,2.71.63,4.44-.77,2.26-3.83,2.08-5.53,3.34-1.88,1.33-2.65,3.75-4.64,5-1.22.75-6.08.9-5.37-1.27.27-.84,1.16-1.7,2.03-2.49.55-.52,1.09-1,1.45-1.43,1.22-1.46,2.02-2.92,2.61-4.74.77-2.43,1.29-4.98,1.63-7.54.09-1.41.17-2.84.26-4.27.41-6.82.81-13.61,1.22-20.41.18-2.92.18-5.91.57-8.81.59-4.52,3.65-6.42,7.39-8.41,3.27-1.73,6.76-2.97,10.31-3.85,3.67-.93,7.5-1.5,11.31-1.59,4.96-.1,9.57,2.33,10.74,7.43,1.52,6.53-3.63,7.66-8.97,7.93Z"/>
                <path class="cls-16" d="M137.02,192.77c-.26-3.18.3-6.57-.75-9.63-.53-1.52-1.25-2.09-2.92-2.08-3.16.02-4.15,3.2-6.51,4.65-2.65,1.62-4.58,1.69-7.62,2.63-3.01.91-7.18,1.89-11.14,3.87-.34.19-.65.41-.97.58,2.76.07,5.63,3.79,6.87,6.05,1.42,2.56,2.46,5.55,2.72,8.46,3.24-.64,6.83-.64,10.16-1.3,2.86-.56,7.29-1.41,9.07-3.97,1.83-2.63,1.43-5.92,1.13-8.89-.02-.11-.03-.24-.04-.36Z"/>
              </g>
              <g>
                <path class="cls-15" d="M142.41,204.44c-2.49.12-5.02.14-7.55.39-2.78.27-5.59.59-8.38.9-.77.1-2.04,0-2.74.34-1.61.75-1.14,3.06-1.37,4.64-.21,1.57-.5,3.13-.81,4.68-.71,3.49-1.56,6.93-2.47,10.38-1.09,4.06-2.24,8.11-3.49,12.12.04.52.16,1.04.38,1.59.25.57.52,1.11.8,1.64.68,1.4,1.22,2.71.63,4.44-.77,2.26-3.83,2.08-5.53,3.34-1.89,1.33-2.65,3.75-4.65,5-1.22.75-6.08.9-5.37-1.27.27-.84,1.16-1.7,2.04-2.49.53-.52,1.08-1,1.45-1.43,1.22-1.46,2.02-2.92,2.6-4.74.78-2.43,1.29-4.98,1.64-7.54.09-1.41.15-2.84.25-4.27.4-6.82.81-13.61,1.22-20.41.18-2.92.18-5.91.57-8.81.59-4.52,3.65-6.42,7.39-8.41,3.27-1.73,6.75-2.97,10.31-3.85,3.67-.93,7.51-1.5,11.31-1.59,4.96-.1,9.56,2.33,10.74,7.43,1.52,6.53-3.63,7.66-8.98,7.93Z"/>
                <path class="cls-16" d="M152.51,192.77c-.26-3.18.3-6.57-.76-9.63-.52-1.52-1.24-2.09-2.92-2.08-3.16.02-4.14,3.2-6.5,4.65-2.65,1.62-4.58,1.69-7.62,2.63-3.02.91-7.19,1.89-11.15,3.87-.34.19-.65.41-.97.58,2.77.07,5.63,3.79,6.88,6.05,1.42,2.56,2.46,5.55,2.72,8.46,3.24-.64,6.83-.64,10.16-1.3,2.85-.56,7.29-1.41,9.07-3.97,1.84-2.63,1.44-5.92,1.13-8.89-.02-.11-.03-.24-.04-.36Z"/>
              </g>
              <g>
                <path class="cls-18" d="M118.6,180.03c-.18.71-.33,1.45-.42,2.23-.65,5.49,4.22,7.41,8.86,7.57,5.03.16,10.33,1,15.44.25,3.62-.52,11.14-1.92,11.41-6.56.1-1.68-.49-3.59-.54-5.32-.06-2.51-.91-4.42-1.46-6.74-.66-2.78-.3-6.29-.03-9.12.36-3.84,1.93-9.34-.18-12.84-2.26-3.75-6.65-6.58-10.92-7.39-3.71-.71-7.95-.52-11.61.51-2.24.63-5.11,1.67-7.01,3.03-2.18,1.57-4.33,5.09-4.74,7.78-.46,2.96.46,6.51,1.33,9.31,1.09,3.54,1.26,7.26,1.18,10.94-.04,2.26-.78,4.22-1.3,6.34Z"/>
                <path class="cls-15" d="M153.91,195.13c-.39.38-.92.88-.68,1.37,1.09.04,2.19-.44,2.9-1.26.32,2.35.23,4.73-.23,7.05.76-.17,1.41-.77,1.64-1.54-.13.48-.11.99.07,1.44.4-.49.73-1.04.97-1.62-.03.58.02,1.17.16,1.74.45-.73.79-1.52.99-2.36.05.46.1.91.16,1.37-.08-.59.8-1.99.94-2.66.22-.98.31-1.98.29-2.99-.05-1.37-.39-2.97-.98-4.2-.22-.47-.64-.87-1.15-.92-.7-.07-1.06.44-1.62.72-.48.26-1.03.26-1.48.56-1.08.76-1.06,2.38-1.99,3.28Z"/>
                <path class="cls-15" d="M138.97,140.52c-.19-1.03-.24-2.08-.14-3.12.08-.81.15-1.81-.56-2.2-.4-.22-.92-.13-1.32.1-2.1,1.19-4.16,2.87-6.18,4.33-.55.1-1.11.2-1.67.3-.25.04-.55.14-.6.39-.01.09.01.18.03.27.23.89.67,1.25.77,2.02.01.19.02.4.02.6-.1,1.55-.76,3.21.03,4.71.69,1.3,2.38,1.65,3.86,1.63,1.91-.02,4.39-.36,5.8-1.79,1.75-1.79.34-5.12-.05-7.23Z"/>
                <path class="cls-15" d="M139.75,130.83c-.24,1.87-.59,3.73-1.09,5.56-.86,3.1-3.81,5.24-6.86,5.89-7.03,1.48-11.24-6.54-11.75-12.35-.16-1.81-.18-3.63-.26-5.44-.12-2.61-.21-5.96,2.53-7.26,3.32-1.58,6.1-1.17,9.55-.56,2.78.5,5.26,1.03,7.01,3.41,2.33,3.18,1.33,7.13.87,10.76Z"/>
                <path class="cls-4" d="M128.45,142.4c-.11-.03-.18-.15-.16-.25.02-.11.14-.19.26-.17.05.01,5.14,1.03,8.57-3.26.08-.09.21-.11.3-.03.09.07.11.21.03.3-3.6,4.5-8.94,3.43-9,3.41h0Z"/>
                <path class="cls-7" d="M119.52,164.85c-.09,0-.18-.08-.19-.17,0-.04-.32-3.59.33-9.64.02-.1.09-.18.22-.17.11,0,.18.11.16.21-.65,6.01-.33,9.52-.33,9.56,0,.1-.07.2-.17.21h-.02Z"/>
                <path class="cls-18" d="M153.31,150.99c2.5,3.2,3.2,7.4,4.69,11.17.82,2.06,1.89,4.02,2.63,6.1,2.7,7.49,1.03,15.75-.66,23.52-1.37.06-2.74.12-4.11.18-.86-5.71.34-11.8-1.83-17.16-1.66-4.09-5.09-7.22-7.19-11.11-2.14-3.96-2.77-8.68-1.86-13.09.37-1.78.67-4.66,2.81-4.19,1.88.42,4.39,3.11,5.53,4.57Z"/>
                <path class="cls-7" d="M150.28,168.93c-.05,0-.11-.02-.15-.08-.06-.07-6.08-7.57-5.74-14.97,0-.1.09-.19.21-.19.1.01.19.1.18.2-.34,7.26,5.58,14.64,5.64,14.71.07.09.05.2-.03.27-.04.03-.08.04-.12.04Z"/>
              </g>
              <path class="cls-4" d="M117.42,245.55c-.77,2.26-3.83,2.08-5.53,3.34-1.89,1.33-2.65,3.75-4.65,5-1.22.75-6.08.9-5.37-1.27.27-.84,1.16-1.7,2.04-2.49,0,.06.02.11.02.15,2.41.39,5.44-2.06,7.37-3.21,2.5-1.54,3.58-3.58,5.38-5.83.04-.05.06-.09.11-.13.68,1.4,1.22,2.71.63,4.44Z"/>
              <path class="cls-7" d="M111.35,206.41c-.15,0-.28-.12-.28-.27-.14-6.83,2.59-8.34,2.71-8.4.14-.08.31-.02.38.12.07.14.02.31-.12.39-.03,0-2.54,1.46-2.39,7.88,0,.16-.13.29-.28.29h0Z"/>
              <path class="cls-4" d="M101.94,245.55c-.77,2.26-3.83,2.08-5.53,3.34-1.88,1.33-2.65,3.75-4.64,5-1.22.75-6.08.9-5.37-1.27.27-.84,1.16-1.7,2.03-2.49.57.41,1.68.47,2.36.43,1.81-.14,3.22-1.14,4.58-2.22,1.82-1.47,2.95-3.1,4.08-5.08.47-.82,1.06-1.86,1.68-2.52.04.12.11.25.18.37.68,1.4,1.23,2.71.63,4.44Z"/>
            </g>
          </g>
          <path class="cls-4" d="M119.62,125.88c-.1-4.32.18-10.74,4.28-13.34,3.4-2.16,7.91-1.04,11.52-.09,7.05,1.86,9.3,9.11,7.89,15.73-.36,1.69-.86,3.41-1.45,5.02-.14.38-1.69,5.97-.66,5.9-.81.05-1.63.31-2.36.58-1.17-2.72.45-6.39.42-9.23-.02-1.91-.25-3.86-.84-5.69-1-3.1-4.79-3.76-7.54-4.11-2.37-.3-6.38-1.16-8.34.42-1.78,1.44-2.8,5.9-2.6,8.05-.7-1.76-.34-4.18-.38-6.09l.06,2.84Z"/>
          <path class="cls-15" d="M141.35,130.56c-.24,1.95-1.17,3.44-2.08,3.33-.91-.11-1.45-1.78-1.21-3.73.24-1.95,1.17-3.44,2.08-3.33.91.11,1.45,1.78,1.21,3.73Z"/>
          <path class="cls-4" d="M136.25,127.09c-.07,0-.13-.02-.19-.07-2.04-1.78-5.12-1.08-5.15-1.08-.15.04-.31-.06-.34-.21-.03-.15.06-.31.21-.34.14-.03,3.39-.77,5.66,1.2.12.1.13.28.03.4-.06.06-.14.1-.21.1Z"/>
          <path class="cls-4" d="M121.25,126.49c-.05,0-.1-.02-.15-.04-.13-.08-.17-.25-.09-.39.04-.07,1.1-1.72,5.28-.79.15.03.25.19.21.34-.04.15-.18.24-.34.21-3.73-.84-4.66.52-4.67.53-.05.08-.14.13-.24.13Z"/>
          <path class="cls-4" d="M128.85,134.5s-.09-.01-.13-.03c-.21-.11-.41-.18-.6-.25-.62-.23-1.2-.45-1.2-1.49,0-.4.12-.75.23-1.09.08-.25.17-.48.2-.73.15-1.17.05-2.8-.45-3.49-.09-.13-.06-.31.07-.4.12-.1.31-.06.4.07.71,1,.67,2.98.55,3.9-.04.3-.13.57-.22.84-.1.31-.2.6-.2.9,0,.65.24.74.83.96.2.08.42.16.65.28.14.07.2.24.12.38-.05.1-.15.15-.25.15Z"/>
          <path class="cls-4" d="M129.97,136.82c-1.45,0-2.59-.63-2.61-.64-.14-.08-.18-.25-.1-.39.08-.14.25-.19.39-.11.12.07,2.84,1.58,5.07-.53.12-.1.3-.1.4.01.11.11.1.29-.01.4-1.03.96-2.15,1.25-3.13,1.25Z"/>
          <path class="cls-4" d="M123.39,129.51c0,.54-.21.97-.47.97s-.48-.43-.48-.97.21-.98.48-.98.47.44.47.98Z"/>
          <path class="cls-4" d="M132.29,129.51c0,.54-.21.97-.47.97s-.47-.43-.47-.97.21-.98.47-.98.47.44.47.98Z"/>
        </g>
      </g>
      <g id="doc">
        <g>
          <path class="cls-2" d="M77.36,243.75s-2.1,6.4-4.48,8.64c0,0,.71,5.73,6.9,3.4l6.08-13.71-8.5,1.67Z"/>
          <path class="cls-9" d="M72.95,251.22c-.28-.22-1.64,1.45-1.74,1.59-.91,1.27-1.8,3.32-1.86,4.89-.06,1.67,1.64,1.68,2.93,2.01,3.72.94,7.43,1.89,11.15,2.83,2.15.55,4.3,1.09,6.45,1.64.74.19,1.46-.15,1.61-.75.15-.6-.18-1.5-.75-2.02l-8.91-8.14c-.86-.78-3.24-.38-4.4-.42-1.72-.06-3.15-.63-4.47-1.64Z"/>
          <polygon class="cls-4" points="85.46 201.74 69.35 250.16 89.06 255.47 100.44 205.43 85.46 201.74"/>
        </g>
        <rect class="cls-23" x="20.93" y="153.27" width="22.46" height="42.93" rx="5.69" ry="5.69"/>
        <path class="cls-23" d="M45.98,210.06h37.14c1.19,0,2.15-.98,2.15-2.19s-.96-2.19-2.15-2.19h-37.14c-5.42,0-10.07-2.81-10.86-5.32l-2.16-6.85c-.36-1.15-1.57-1.78-2.71-1.42-1.13.37-1.76,1.61-1.39,2.76l2.15,6.84c1.48,4.69,8.05,8.37,14.97,8.37Z"/>
        <rect class="cls-23" x="55.13" y="209.27" width="2.87" height="25.99"/>
        <rect class="cls-23" x="53.88" y="233.62" width="5.56" height="16.06"/>
        <path class="cls-23" d="M63.47,248.82s18.77,4.93,20.52,9.73h-2.22s-15.07-6.44-23.82-5.89l-2.96-5.62,8.48,1.78Z"/>
        <rect class="cls-23" x="81.77" y="258.26" width="1.41" height="3.7"/>
        <path class="cls-23" d="M84.82,262.83c0-1.31-1.04-2.37-2.33-2.37s-2.33,1.06-2.33,2.37,1.04,2.37,2.33,2.37,2.33-1.06,2.33-2.37Z"/>
        <path class="cls-23" d="M48.58,248.82s-18.77,4.93-20.52,9.73h2.22s15.07-6.44,23.82-5.89l2.96-5.62-8.47,1.78Z"/>
        <rect class="cls-23" x="28.87" y="258.26" width="1.41" height="3.7"/>
        <path class="cls-23" d="M27.23,262.83c0-1.31,1.04-2.37,2.33-2.37s2.33,1.06,2.33,2.37-1.05,2.37-2.33,2.37-2.33-1.06-2.33-2.37Z"/>
        <rect class="cls-23" x="55.67" y="258.26" width="1.41" height="3.7"/>
        <path class="cls-23" d="M58.72,262.83c0-1.31-1.04-2.37-2.33-2.37s-2.33,1.06-2.33,2.37,1.05,2.37,2.33,2.37,2.33-1.06,2.33-2.37Z"/>
        <polygon class="cls-23" points="59.43 252.05 57.73 259.72 54.95 259.72 53.34 252.15 55.31 244.2 59.43 252.05"/>
        <path class="cls-2" d="M101.61,249.37s-.28,6.73-1.96,9.53c0,0,2.24,5.32,7.57,1.4l2.12-14.85-7.73,3.92Z"/>
        <path class="cls-9" d="M99.65,258.9c-.32-.14-1.23,1.81-1.29,1.97-.57,1.45-.93,3.66-.6,5.2.35,1.63,2,1.23,3.33,1.23h18.15c.76,0,1.38-.5,1.38-1.12s-.55-1.41-1.22-1.77l-10.64-5.7c-1.02-.54-3.24.43-4.37.68-1.68.37-3.21.16-4.74-.49Z"/>
        <g>
          <polygon class="cls-30" points="115.79 133.09 114.92 151.16 111.24 150.87 112.34 132.89 115.79 133.09"/>
          <g>
            <path class="cls-30" d="M115.3,125.35c.69-.01,1.28,1.48,1.32,3.34.04,1.86-.5,3.37-1.19,3.38l-2.35.05-.13-6.72,2.35-.05Z"/>
            <path class="cls-3" d="M111.76,128.78c.04,1.86.63,3.35,1.32,3.34.69-.01,1.22-1.53,1.19-3.39-.03-1.86-.62-3.35-1.32-3.34-.69.01-1.22,1.53-1.19,3.39Z"/>
          </g>
          <polygon class="cls-30" points="113.54 134.91 114.69 134.95 114.81 131.9 113.66 131.85 113.54 134.91"/>
          <path class="cls-30" d="M116.14,130.44c.83-.58,2.39-.78,3.03-.84.02-.48-.02-.91-.06-1.24-1.45.11-3.12-.45-3.12-.45l.15,2.53Z"/>
        </g>
        <path class="cls-15" d="M108.43,152.71c-.08.07-.17.14-.25.22-.79.76-1.52,1.3-2.58.58-.62-.42-2.12-1.49-1.97-2.35.14-.77,1.29-1.75,1.71-2.41.61-.97,1.2-1.96,1.57-3.06.44-1.28.54-2.66,1.39-3.77,1.1-1.45,3.48-2.68,3.72-4.63.06-.46,1.25.6,1.29,1.02.07.86-1.07,1.32-1.26,2.11-.34,1.39.95,1.41,1.67.63.76-.83,1.02-2.74,1.45-3.8.55-1.37,1.98-2.29,2.63-.51.53,1.47.27,2.84.33,4.34.08,2.1.09,4.98-1.52,6.55-1.7,1.66-4.14,2.32-6.1,3.61-.73.48-1.42.9-2.06,1.46Z"/>
        <g>
          <g id="head">
            <g>
              <path class="cls-15" d="M93.51,110.96c-.31-1.22-.65-2.45-.58-3.56.09-1.33.83-2.5,1.05-3.78.22-1.19.24-2.48.19-3.69-.08-2.4-.69-4.81-2.49-6.53-3.95-3.77-10.46-5.09-15.2-2.3-4.91,2.88-7.82,10.01-6.43,15.56,1.18,4.7,3.76,9.69,8.34,11.74,2.22.99,8.04,4.62,10.13,1.93.47-.6.05-1.22.15-1.87.09-.53.36-.92.57-1.43.48-1.12.66-2.32,1.8-3.02,1.86-1.15,3.16-.28,2.46-3.06Z"/>
              <path class="cls-15" d="M72.5,106.98c-.32.63.03,1.67-.01,2.38-.06.97-.38,1.97-.65,2.89-.74,2.45-1.91,4.79-3.49,6.82-1.96,2.5-2.38,3.83.19,6.28,2.04,1.96,8.98,4.74,10.93,1.98,2.02-2.85,2.47-6.84,3.85-10.07.1-.24-2.77-1.24-3.1-1.44-1.11-.66-2.08-1.56-2.95-2.48-1.81-1.92-3.29-4.1-4.64-6.31l-.12-.06Z"/>
            </g>
          </g>
          <g>
            <path class="cls-4" d="M91.68,106.1c-.11,0-.22-.02-.33-.08-.93-.44-1.91-.22-1.92-.22-.42.1-.85-.16-.95-.58-.11-.42.16-.85.58-.95.06-.01,1.53-.36,2.96.33.4.19.56.66.37,1.05-.14.29-.42.45-.72.45Z"/>
            <path class="cls-4" d="M90.49,108.56c-.3.57-.77.93-1.04.78-.27-.14-.25-.73.06-1.3s.77-.92,1.05-.78c.27.14.24.73-.06,1.3Z"/>
          </g>
          <path class="cls-23" d="M85.86,89.13c-3.9-1.54-6.87-2.28-10.85-.77-4.62,1.75-5.92,6.22-6.19,10.75-.07,1.22-.2,2.52-.03,3.73.22,1.64.83,3.12.9,4.8.09,2-.26,3.92-.53,5.89.52-.22,1.06-.63,1.58-.95-.12.51-.53.97-.72,1.45.34-.85,1.92-1.35,2.62-1.93,1.51-1.24,3.25-2.62,4.4-4.22-.14.43-.12.93-.23,1.34,2.04-1.6,3.65-2.87,4.84-5.07.08.39.11.8.06,1.24,2.2-.97,3.51-4.53,2.82-6.9.02-.01.04-.04.06-.05.51-.29,4.95.78,5.61,1.02,2.1.77,3.86,2.37,5.49,3.85-.11-.62-.22-1.35-.16-2.02.03.45.3.99.38,1.31,3.22-6.36-5.38-11.63-10.05-13.47Z"/>
          <path class="cls-15" d="M81.67,102.45c-2.21-1.81-3.37,1.23-3.78,2.91-.3,1.23-1.24,3.67.29,4.52,2.92,1.63,5.8-5.52,3.48-7.43Z"/>
          <path class="cls-4" d="M81.41,119.65s-.07-.02-.1-.05c-.23-.2-5.6-4.89-4.67-8.49.03-.1.14-.14.24-.14.1.03.17.14.14.24-.87,3.36,4.49,8.04,4.54,8.09.09.07.09.19.02.28-.05.05-.11.08-.18.07Z"/>
          <path class="cls-4" d="M89.35,115.63s0,0,0,0c-.1-.02-2.38-.49-2.37-2.29,0-.11.09-.2.2-.2.12,0,.2.09.2.2,0,1.48,2.03,1.9,2.05,1.9.11.02.18.12.16.23-.02.11-.12.18-.22.16Z"/>
          <path class="cls-4" d="M80.74,106.57s-.02,0-.04,0c-.1-.04-.16-.15-.13-.25,0-.02.52-1.61-.44-2.59-.08-.08-.08-.2,0-.28.08-.08.21-.08.28,0,1.13,1.16.56,2.92.53,2.99-.03.09-.13.15-.22.14Z"/>
          <path class="cls-4" d="M79.76,107.89c-.07,0-.13-.05-.15-.12-.63-1.58.86-2.76.88-2.77.09-.06.21-.05.28.04.07.09.05.21-.04.28-.05.04-1.27,1-.75,2.3.04.1-.01.22-.11.26-.03.01-.07.02-.1.01Z"/>
        </g>
        <path class="cls-4" d="M52.07,202.46c2.07,1.34,4.59,1.91,7.46,2.04,4.37.2,9.2.54,13.75.51,4.95-.04,9.41-1.24,14.28-1.83,2.83-.34,7.53-2.07,9.59.81,2.14,2.98.75,9.32.84,12.73.12,4.65.04,9.46-.2,14.12-.1,1.92-.99,25.81-1.53,25.82h20.09s0-.03,0-.05c-.54-15.59-1.37-31.12-.9-46.69.18-6.06.27-12.23-1.51-18.09-3.93-12.94-22.83-9.32-32.89-8.8-6.63.34-13.17-.12-19.76,1.04-8.76,1.54-19.04,3.26-12.85,14.41.99,1.77,2.21,3.07,3.64,3.99Z"/>
        <path class="cls-30" d="M115.51,187.47c-4.3-6.99-14.53-8.91-22.01-9.8-4.04-.48-13.25,2.23-16.46-.72-2.52-2.33.16-7.88.68-10.59,1.37-7.06,3.4-14.2,3.48-21.34.05-4.21-.78-6.82-2.19-9.7.07-.37.14-.74.19-1.11.56-3.47,2.61-7.32.33-10.4-2.04-2.75-7.91-5.4-11.03-6.68-2.33-.96-3.12-1.09-3.51-.3-.31.65-.35,1.92-.74,3.87-.85,4.29-3.43,4.76-6.26,7.65-4.85,4.96-9.18,10.47-12.68,16.47-6.86,11.79-9.72,25.79-6.69,39.21,1.17,5.2,3.45,13.92,7.78,17.44,11.8,9.56,26.73,4.22,39.91,4.06,5.75-.07,7.89,1.05,9.18,4.56,6.12-5.09,15.05-13.38,20.2-22.31-.06-.11-.12-.23-.19-.34Z"/>
        <path class="cls-30" d="M111.81,154.03c-1.36,2.35-5.77,5.31-7.48,6.87-2.68,2.45-5.43,4.83-8.22,7.16-5.79,4.84-10.5,6.67-16.53,1.36-4.71-4.15-7.27-10.14-10.75-15.24l.15-1.13c-2.02-4.32-3.95-10.55-1.52-15.05,1.84-3.41,6.33-4.54,9.36-2.03,4.73,3.91,5.27,11.5,7.06,16.98,1.1,3.34,1.87,6.45,5.94,5.18,3.38-1.04,5.91-4.35,8.34-6.72,1.74-1.69,4.34-3.46,5.97-5.53,2.07,1.76,5.71,5.1,7.67,8.15Z"/>
        <path class="cls-7" d="M83.14,179.04c-1.36-.23-2.67-.28-4.05-.33-.35-.01-.71-.03-1.08-.04-3.76-.18-6.11-2.21-8.69-5.42l.44-.36c2.48,3.09,4.72,5.03,8.27,5.2.37.02.72.03,1.08.05,1.4.05,2.73.11,4.12.34l-.09.56Z"/>
        <path class="cls-7" d="M77.03,165.87c-.08,0-.16-.04-.22-.1-3.4-4.12-5.94-8.36-8.63-12.85l-.5-.83c-.08-.13-.04-.31.1-.39.13-.08.31-.04.39.1l.5.83c2.67,4.47,5.2,8.69,8.58,12.78.1.12.08.3-.04.4-.05.04-.12.07-.18.07Z"/>
      </g>
    </g>
  </g>
  <g>
    <g>
      <g>
        <rect class="cls-17" x="466.01" y="37.82" width="75.16" height="66.11"/>
        <rect class="cls-12" x="469.67" y="41.47" width="67.86" height="58.81"/>
        <rect class="cls-14" x="472.71" y="43.5" width="61.7" height="4.96"/>
        <rect class="cls-14" x="518.01" y="93.53" width="16.16" height="2.71"/>
        <rect class="cls-14" x="518.01" y="89.04" width="16.16" height="2.71"/>
        <rect class="cls-1" x="516" y="58.73" width="18.05" height="1.18"/>
        <rect class="cls-1" x="516" y="62.5" width="18.05" height="1.18"/>
        <rect class="cls-1" x="516" y="66.28" width="18.05" height="1.18"/>
        <rect class="cls-1" x="516" y="70.05" width="18.05" height="1.18"/>
        <rect class="cls-1" x="516" y="73.82" width="18.05" height="1.18"/>
        <rect class="cls-1" x="516" y="77.6" width="18.05" height="1.18"/>
      </g>
      <g>
        <rect class="cls-14" x="473.95" y="54.72" width="25.05" height="10.17"/>
        <rect class="cls-14" x="473.95" y="67.87" width="25.05" height="10.17"/>
        <rect class="cls-14" x="473.95" y="81.01" width="25.05" height="10.17"/>
      </g>
    </g>
    <g>
      <g>
        <rect class="cls-17" x="550.63" y="37.33" width="75.17" height="66.11"/>
        <rect class="cls-12" x="554.29" y="40.99" width="67.86" height="58.81"/>
        <rect class="cls-14" x="557.33" y="43.02" width="61.7" height="4.96"/>
        <rect class="cls-14" x="602.63" y="93.04" width="16.16" height="2.71"/>
        <rect class="cls-14" x="602.63" y="88.56" width="16.16" height="2.72"/>
        <rect class="cls-1" x="600.62" y="58.24" width="18.05" height="1.18"/>
        <rect class="cls-1" x="600.62" y="62.02" width="18.05" height="1.18"/>
        <rect class="cls-1" x="600.62" y="65.79" width="18.05" height="1.18"/>
        <rect class="cls-1" x="600.62" y="69.57" width="18.05" height="1.18"/>
        <rect class="cls-1" x="600.62" y="73.34" width="18.05" height="1.18"/>
        <rect class="cls-1" x="600.62" y="77.12" width="18.05" height="1.18"/>
      </g>
      <rect class="cls-7" x="561.25" y="56.63" width="33.95" height="11.81"/>
      <rect class="cls-7" x="561.25" y="70.28" width="33.95" height="24.35"/>
    </g>
    <g>
      <rect class="cls-12" x="359.07" y="40.07" width="98.8" height="120.66"/>
      <rect class="cls-17" x="356.02" y="37.86" width="104.89" height="3.6"/>
      <rect class="cls-7" x="390.89" y="45.89" width="21.86" height="2.49"/>
      <rect class="cls-7" x="390.89" y="51.42" width="21.86" height="2.49"/>
      <g>
        <rect class="cls-7" x="364.32" y="45.89" width="21.86" height="2.49"/>
        <rect class="cls-7" x="364.32" y="51.42" width="21.86" height="2.49"/>
        <rect class="cls-7" x="364.32" y="56.96" width="21.86" height="2.49"/>
        <rect class="cls-7" x="364.32" y="62.49" width="21.86" height="2.49"/>
      </g>
      <g>
        <rect class="cls-7" x="364.32" y="136.38" width="21.86" height="2.49"/>
        <rect class="cls-7" x="364.32" y="141.92" width="21.86" height="2.49"/>
        <rect class="cls-7" x="364.32" y="147.45" width="21.86" height="2.49"/>
        <rect class="cls-7" x="364.32" y="152.99" width="21.86" height="2.49"/>
      </g>
      <g>
        <rect class="cls-7" x="393.66" y="141.92" width="21.86" height="2.49"/>
        <rect class="cls-7" x="393.66" y="147.45" width="21.86" height="2.49"/>
        <rect class="cls-7" x="393.66" y="152.99" width="21.86" height="2.49"/>
      </g>
      <g>
        <rect class="cls-7" x="429.91" y="136.38" width="21.86" height="2.49"/>
        <rect class="cls-7" x="429.91" y="141.92" width="21.86" height="2.49"/>
        <rect class="cls-7" x="429.91" y="147.45" width="21.86" height="2.49"/>
        <rect class="cls-7" x="429.91" y="152.99" width="21.86" height="2.49"/>
      </g>
      <g>
        <rect class="cls-7" x="430.4" y="45.89" width="21.86" height="2.49"/>
        <rect class="cls-7" x="430.4" y="51.42" width="21.86" height="2.49"/>
        <rect class="cls-7" x="430.4" y="56.96" width="21.86" height="2.49"/>
        <rect class="cls-7" x="430.4" y="62.49" width="21.86" height="2.49"/>
      </g>
      <g>
        <g>
          <rect class="cls-7" x="430.4" y="72.46" width="21.86" height="2.49"/>
          <rect class="cls-7" x="430.4" y="77.99" width="21.86" height="2.49"/>
          <rect class="cls-7" x="430.4" y="83.53" width="21.86" height="2.49"/>
          <rect class="cls-7" x="430.4" y="89.06" width="21.86" height="2.49"/>
        </g>
        <g>
          <rect class="cls-7" x="430.4" y="97.36" width="21.86" height="2.49"/>
          <rect class="cls-7" x="430.4" y="102.9" width="21.86" height="2.49"/>
          <rect class="cls-7" x="430.4" y="108.43" width="21.86" height="2.49"/>
          <rect class="cls-7" x="430.4" y="113.97" width="21.86" height="2.49"/>
        </g>
      </g>
      <g>
        <g>
          <rect class="cls-7" x="364.53" y="72.46" width="21.86" height="2.49"/>
          <rect class="cls-7" x="364.53" y="77.99" width="21.86" height="2.49"/>
          <rect class="cls-7" x="364.53" y="83.53" width="21.86" height="2.49"/>
          <rect class="cls-7" x="364.53" y="89.06" width="21.86" height="2.49"/>
        </g>
        <g>
          <rect class="cls-7" x="364.53" y="97.36" width="21.86" height="2.49"/>
          <rect class="cls-7" x="364.53" y="102.9" width="21.86" height="2.49"/>
          <rect class="cls-7" x="364.53" y="108.43" width="21.86" height="2.49"/>
          <rect class="cls-7" x="364.53" y="113.97" width="21.86" height="2.49"/>
        </g>
      </g>
      <g>
        <g>
          <rect class="cls-7" x="392.21" y="72.46" width="21.86" height="2.49"/>
          <rect class="cls-7" x="392.21" y="77.99" width="21.86" height="2.49"/>
          <rect class="cls-7" x="392.21" y="83.53" width="21.86" height="2.49"/>
          <rect class="cls-7" x="392.21" y="89.06" width="21.86" height="2.49"/>
        </g>
        <g>
          <rect class="cls-7" x="392.21" y="97.36" width="21.86" height="2.49"/>
          <rect class="cls-7" x="392.21" y="102.9" width="21.86" height="2.49"/>
          <rect class="cls-7" x="392.21" y="108.43" width="21.86" height="2.49"/>
          <rect class="cls-7" x="392.21" y="113.97" width="21.86" height="2.49"/>
        </g>
      </g>
    </g>
    <g>
      <g id="patient">
        <rect class="cls-11" x="407.05" y="195" width="57.56" height="9.41"/>
        <g>
          <g>
            <g>
              <g>
                <path class="cls-2" d="M459.79,264.55h17.57c1.15,0,6.32.43,4.87-2.03-.43-.71-1.27-.93-2.01-1.21-1.62-.63-3.27-1.19-4.91-1.8-.84-.3-2.03-.58-3.22-.97-1.74-.57-3.48-1.34-4.12-2.72-.41-.89-.02-2.08,0-3.03.05-1.21,0-2.43,0-3.64h-7.57c-.37,1.21-1.84,4.67-2.67,8.01-.95,3.79-1.08,7.4,2.06,7.4Z"/>
                <path class="cls-25" d="M459.79,264.55h17.57c1.15,0,6.32.43,4.87-2.03-.43-.71-1.27-.93-2.01-1.21-1.62-.63-3.27-1.19-4.91-1.8-.84-.3-2.03-.58-3.22-.97-2.02,1.58-4.38,1.92-7.73,1.23-2.34-.5-4.5-1.45-6.62-2.62-.95,3.79-1.08,7.4,2.06,7.4Z"/>
              </g>
              <g>
                <path class="cls-2" d="M485.13,264.55h17.57c1.14,0,6.32.43,4.87-2.03-.43-.71-1.27-.93-2.01-1.21-1.62-.63-3.27-1.19-4.92-1.8-.84-.3-2.03-.58-3.22-.97-1.73-.57-3.48-1.34-4.12-2.72-.41-.89-.02-2.08,0-3.03.05-1.21,0-2.43,0-3.64h-7.57c-.36,1.21-1.84,4.67-2.66,8.01-.95,3.79-1.08,7.4,2.06,7.4Z"/>
                <path class="cls-25" d="M485.13,264.55h17.57c1.14,0,6.32.43,4.87-2.03-.43-.71-1.27-.93-2.01-1.21-1.62-.63-3.27-1.19-4.92-1.8-.84-.3-2.03-.58-3.22-.97-2.02,1.58-4.37,1.92-7.72,1.23-2.34-.5-4.5-1.45-6.62-2.62-.95,3.79-1.08,7.4,2.06,7.4Z"/>
              </g>
              <path class="cls-4" d="M417.3,193.74c1.05.82,2.42,1.09,3.8,1.6,7.34,2.68,14.68,5.35,22.02,8.03,3.73,1.36,7.45,2.72,11.17,4.07,2.69.99,7.25,1.81,7.08,5.47-.05,1.04-.15,2.08-.24,3.12-.96,12.57-1.91,25.14-2.86,37.7l10.82.66c2.42-12.48,4.83-24.95,7.25-37.43.98-5.08,3.12-10.5,1.99-15.73-.83-3.81-2.54-5.09-5.78-6.5-6.44-2.81-12.88-5.61-19.31-8.42-6.12-2.45-12.12-5.28-18.16-7.91-4.3-1.87-8.27-5.31-12.96-5.91-1.02-.13-2.06-.22-3.04.05-2.23.63-3.49,2.99-4.12,5.22-.92,3.29-1,6.79-.27,10.13.35,1.59.82,3.63,1.77,4.99.24.34.52.62.83.86Z"/>
              <path class="cls-4" d="M448.63,176.77l39.5,11.23c5.18,1.47,8.7,6.25,8.58,11.62l-1.15,52.62h-11.63l-2.91-41.11c-.15-2.05-1.52-3.79-3.48-4.41-8.02-2.52-16.03-5.05-24.04-7.58-4.4-1.38-8.8-2.77-13.2-4.16-3.57-1.12-7.99-1.85-10.24-5.15-.99-1.47-1.33-3.29-1.35-5.07-.04-2.74.66-5.58,2.43-7.68,4.24-5.03,12.13-1.5,17.48-.32Z"/>
            </g>
            <g>
              <g>
                <path class="cls-4" d="M431.85,199.53l.66-1.71c-.29.52-.5,1.1-.66,1.71Z"/>
                <path class="cls-16" d="M451.84,114.07c-6.61-3.75-14.16-4.6-21.64-2.35-21.02,6.32-9.39,15.45-9.82,25.9-.19,4.49-.59,8.97-1.34,13.4-.76,4.57-2.69,8.86-3.54,13.42-.62,3.33-2.12,7.9-1.39,11.27,1.3,6.06,16.31,5.01,21.12,5.39,2.95.24,13.67,1.22,15.13-2.22.49-1.16-.85-5.31-.87-6.8-.03-2.29.19-4.59.61-6.84,2.39-6.21,3.72-12.96,4.97-19.39,0-.02.01-.05.01-.07,1.49-7.74,5.64-26.69-3.23-31.72Z"/>
                <g>
                  <g id="head-2" data-name="head">
                    <g>
                      <path class="cls-15" d="M458.89,98.75c-.5-1.15-1.04-2.29-1.14-3.4-.12-1.31.41-2.59.42-3.87.02-1.2-.16-2.47-.4-3.65-.46-2.34-1.45-4.6-3.48-6-4.48-3.07-11.07-3.3-15.28.19-4.35,3.61-6.06,11.07-3.8,16.29,1.92,4.42,5.25,8.9,10.07,10.17,2.34.61,8.62,3.24,10.24.26.36-.67-.15-1.21-.15-1.86,0-.54.2-.96.34-1.5.29-1.17.28-2.38,1.27-3.24,1.63-1.43,3.06-.78,1.92-3.4Z"/>
                      <path class="cls-15" d="M437.65,98.23c-.21.67.31,1.63.38,2.34.1.96-.05,1.99-.17,2.94-.33,2.53-1.11,5.02-2.32,7.25-1.52,2.77-1.72,4.14,1.2,6.12,2.31,1.6,9.57,3.2,11.03.19,1.52-3.12,1.32-7.1,2.15-10.49.06-.25-2.92-.78-3.27-.92-1.2-.46-2.29-1.2-3.3-1.95-2.08-1.59-3.89-3.48-5.57-5.44l-.13-.03Z"/>
                    </g>
                  </g>
                  <g>
                    <path class="cls-33" d="M456.32,94.28c-.12.02-.22.02-.34-.02-.98-.28-1.91.09-1.92.1-.39.16-.86-.02-1.02-.42-.17-.4.02-.86.42-1.03.06-.02,1.44-.6,2.95-.15.42.12.66.55.53.97-.09.29-.34.5-.63.55Z"/>
                    <path class="cls-33" d="M455.55,96.88c-.21.61-.61,1.04-.9.93-.28-.1-.36-.68-.15-1.28.21-.61.61-1.04.9-.94.28.1.35.68.14,1.28Z"/>
                  </g>
                  <path class="cls-15" d="M445.92,92.31c-2.46-1.43-3.11,1.75-3.24,3.46-.09,1.25-.62,3.8,1.02,4.38,3.12,1.13,4.81-6.34,2.22-7.84Z"/>
                  <path class="cls-33" d="M448.42,109.22s-.07,0-.11-.03c-.25-.16-6.27-3.9-5.94-7.58,0-.1.12-.16.21-.17.11,0,.19.1.18.22-.31,3.43,5.69,7.16,5.76,7.2.09.06.12.18.06.27-.03.06-.1.1-.17.1Z"/>
                  <path class="cls-33" d="M455.57,104h0c-.1,0-2.41-.1-2.69-1.87-.02-.11.05-.21.16-.22.12-.02.21.05.22.16.23,1.45,2.29,1.54,2.31,1.54.11,0,.19.09.19.2,0,.1-.09.19-.2.19Z"/>
                  <path class="cls-33" d="M445.67,96.5s-.02,0-.04,0c-.1-.02-.18-.12-.16-.23,0-.02.24-1.66-.85-2.47-.09-.06-.11-.19-.04-.27.06-.09.19-.11.28-.04,1.3.95,1.02,2.77,1.01,2.85-.02.1-.1.17-.19.17Z"/>
                  <path class="cls-33" d="M444.92,97.94c-.06,0-.14-.03-.17-.09-.88-1.45.4-2.85.42-2.85.07-.08.19-.08.28-.01.08.08.08.2.01.28-.05.05-1.09,1.19-.37,2.38.06.09.03.22-.07.28-.03.01-.06.02-.09.02Z"/>
                </g>
              </g>
              <path class="cls-4" d="M458.65,86.82c.4-.56.69-1.32.82-2.4.56-4.92-4.23-6.74-8.28-7.54-4.74-.94-10.06-1.55-14.21,1.62-1.89,1.44-3.21,3.52-4.13,5.7-1.45,3.41-1.36,7.7-.57,11.26.72,3.28,2.2,6.48,1.95,9.82-.02.26-.04.54.1.76.09.15.25.24.41.31,1.49.63,3.07-.61,4.13-1.83,2.62-3.01,3.28-6.06,3.9-9.96.2-1.23.86-2.86,2.07-2.58.35.09.63.33.9.57.74.65,1.49,1.3,2.23,1.95-1.53-1.34,3.73-4.83,4.45-5.16,2.37-1.1,4.92-.73,6.23-2.52Z"/>
            </g>
          </g>
          <path class="cls-15" d="M419.01,182.74c-.35.64-1.15.92-1.88.87-.73-.06-1.4-.38-2.06-.7-.61,2.21.92,4.64.16,6.81-.05.14-.12.29-.24.38-.29.2-.69-.05-.91-.33-.22-.28-.43-.64-.78-.7.21.41.2.92-.02,1.31-.53-.68-1.07-1.36-1.61-2.04.03.41.06.82.1,1.23-.25.1-.51-.09-.69-.29-1.59-1.68-2.03-4.13-2.25-6.43-.15-1.59-.93-5.47.29-6.34.77-.55,3.72-.41,4.67-.13,1.2.34,1.78,1.05,2.35,2.12.11.21,2.58,4.77,2.88,4.22Z"/>
          <path class="cls-16" d="M418.34,119.08l-15.25,27.79c-.57,1.04-.77,2.25-.56,3.43l4.9,26.62h8.03l-2.16-23.57c-.14-1.58.44-3.14,1.6-4.23l13.82-13.08s-2.29-16.35-10.38-16.95Z"/>
          <path class="cls-7" d="M419.91,144.66c.09,0,.19-.05.25-.14l8.01-12.2c.09-.14.05-.33-.09-.42-.14-.09-.33-.05-.42.09l-8.01,12.2c-.09.14-.05.33.09.42.05.03.11.05.17.05Z"/>
        </g>
        <g>
          <path class="cls-11" d="M415.39,203.01l-7.79,61.02c-.08.61-.63,1.03-1.24.96-.59-.07-1.01-.6-.96-1.18l4.94-61.31c.11-1.4,1.34-2.44,2.73-2.33,1.4.11,2.44,1.34,2.32,2.73,0,.03,0,.08-.01.12Z"/>
          <path class="cls-11" d="M424.24,203.01l-7.79,61.02c-.08.61-.63,1.03-1.24.96-.59-.07-1.01-.6-.96-1.18l4.94-61.31c.11-1.4,1.34-2.44,2.73-2.33,1.4.11,2.44,1.34,2.33,2.73,0,.03,0,.08-.01.12Z"/>
        </g>
      </g>
      <g>
        <path class="cls-4" d="M482.71,109.09s-2.37,4.44-2.39,4.45c.11-.21-.27-.89-.36-1.05-.61-1.05-1.76-1.28-2.74-1.81-.33-.17-4.32-1.88-4.26-2.01l.85-1.91s3.35,1.31,3.59,1.41c1.77.7,3.39,1.67,5.31.92Z"/>
        <polygon class="cls-4" points="473.81 107.34 457.75 100.98 473.81 108.19 473.81 107.34"/>
      </g>
      <g id="doctor">
        <g>
          <path class="cls-15" d="M598.7,256.94c.01.94-.09,1.99-.74,2.65-.47.46-1.12.64-1.75.8-5.65,1.47-11.48,2.96-17.24,2.08-.91-.13-1.96-.47-2.23-1.38-.23-.78.3-1.63.98-2.05.68-.42,1.5-.54,2.26-.77.68-.37,1.33-.74,1.93-1.12,2.08-1.28,3.81-2.68,5.75-4.55.1-.09.19-.16.28-.26,1.65-1.6-.78-12.29-1.15-14.51-1.23-7.43-2.19-15.11-5.29-22.08-1.72-3.86-2.09-8.13-3.64-12.05-1.44-3.64-3.31-7.24-4.31-11.04-1.06-4.03-1.98-8.1-3.11-12.11-.66-2.35-1.31-4.7-1.93-7.06-1.92-7.29-2.48-15.67-2.58-23.2-.05-4.19.57-8.97,2.66-12.35,1.09-1.76,2.59-3.14,4.6-3.84,4.79-1.67,10.1,1.84,12.38,6.47,2.29,4.64,2.32,10.07,2.3,15.27-.03,6.77-.06,13.54-.09,20.31-.02,4.42-.22,8.32-.78,12.64-1.34,10.42,7.48,18.06,8.92,27.98,1.07,7.3-.31,15.08-.31,22.44,0,2.54,0,5.08.45,7.52.33,1.77.6,3.58,1.2,5.28.05.15.11.3.17.45.17.45.35.87.52,1.26.41.97.73,1.86.75,3.21Z"/>
          <path class="cls-15" d="M579.85,155.92c-1.65,4.61-3.31,9.23-4.96,13.85-1.36,3.77-2.53,7.4-4.44,10.79-.33.59-.68,1.17-1.06,1.75-2.6,3.94-5.38,7.79-6.17,12.7-.72,4.4.95,8.76,1.38,13.13,1.11,11.05-3.22,21.01-4.15,31.73-.23,2.67-.48,5.48-.16,8.15.34,2.79,1.06,5.69,1.74,8.4.19.76.45,1.68.57,2.6.14,1.18.02,2.36-.88,3.17-.49.44-1.15.59-1.78.72-5.71,1.19-11.6,2.38-17.31,1.23-.9-.18-1.94-.57-2.16-1.48-.19-.8.38-1.61,1.08-2,.7-.38,1.52-.48,2.29-.66,1.04-.49,2.24-1.04,3.38-1.7,1.93-1.12,3.73-2.56,4.46-4.56,1.49-4.14.39-10.3.18-14.66-.24-5.17-.81-10.3-1.12-15.47-.25-4.25-.4-8.54-.39-12.8,0-4.03.26-9.96-.84-13.84-.33-1.15-1.4-2.01-1.49-3.22-.17-2.15,1.09-5.12,1.32-7.35.59-5.6,1.86-11.1,2.85-16.64,1.22-6.88,1.74-14.9,4.65-21.34,1.83-4.05,4.6-7.47,9.07-9.58.92-.43,1.83-.72,2.71-.88,4.19-.72,7.82,1.62,10.1,5.85,1.9,3.52,1.15,8.18,1.15,12.11Z"/>
          <path class="cls-9" d="M561.73,262.18c-.49.44-1.15.59-1.78.72-5.71,1.19-11.6,2.38-17.31,1.23-.9-.18-1.94-.57-2.16-1.48-.19-.8.38-1.61,1.08-2,.7-.38,1.52-.48,2.29-.66,1.04-.49,2.24-1.04,3.38-1.7,4.35,1.53,8.64.47,13.73.61.64.02,1.19.05,1.67.12.14,1.18.02,2.36-.88,3.17Z"/>
          <path class="cls-9" d="M598.7,256.94c.01.94-.09,1.99-.74,2.65-.47.46-1.12.64-1.75.8-5.65,1.47-11.48,2.96-17.24,2.08-.91-.13-1.96-.47-2.23-1.38-.23-.78.3-1.63.98-2.05.68-.42,1.5-.54,2.26-.77.68-.37,1.33-.74,1.93-1.12,4.44,1.25,9.68.67,13.2-1.28,1.07-.59,1.98-1.38,2.83-2.16.41.97.73,1.86.75,3.21Z"/>
        </g>
        <g>
          <g>
            <g>
              <path class="cls-15" d="M509.4,81.01c-.37,1.39-.4,2.79.3,4.11,1.18,2.23,2.14,4.87,3.67,6.88,2.35,3.11,9.71-2.28,11.86-3.88,3.16-2.34,1.94-4.4-1.11-5.63-2.59-1.05-4.32-2.84-6.09-5.02-.96-1.18-2.46-4.61-4.36-4.14-2.08.52-3.87,6.12-4.28,7.68Z"/>
              <path class="cls-15" d="M498.85,85.2c1.74,1.52,3.98,3.14,6.41,3.41,3.17.35,5.19-.57,7.26-3.2,2.22-2.82,3.09-6.52,3.05-10.02-.04-3.34-.83-6.61-2.3-9.48-1.36-2.66-3.43-5.06-6.27-5.95-4.26-1.34-10.36,1.11-13.89,3.77-4.05,3.05-4.43,6.25-2.61,10.24,1.43,3.13,3.36,6.24,5.82,8.78.73.77,1.59,1.63,2.53,2.45Z"/>
              <path class="cls-4" d="M511.87,86.7c-.24.22-.48.41-.7.57-.11.09-.26.07-.34-.03-.08-.1-.05-.26.07-.34,1.6-1.19,4.29-4.03,4.49-9.6,0-.13.12-.24.26-.25.13,0,.23.1.23.23-.17,5.04-2.34,7.93-4,9.42Z"/>
              <path class="cls-4" d="M510.57,71.24s-.04.03-.08.03c-.13.04-.26-.03-.29-.15-.1-.36-.52-2.18.02-2.77.1-.11.25-.12.34-.04.1.09.11.24.02.34-.26.29-.1,1.56.09,2.32.02.1-.02.21-.1.27Z"/>
              <path class="cls-4" d="M510.69,70.14c-.09.06-.21.07-.29.02-.11-.07-.14-.22-.05-.33l.45-.62c.07-.11.24-.15.34-.08.11.06.14.22.06.33l-.45.62s-.03.05-.05.06Z"/>
              <path class="cls-4" d="M506.39,84.2c-1.07.77-2.09.94-2.1.95-.17.02-.32-.09-.34-.25-.02-.17.12-.32.28-.35.11-.02,2.82-.49,3.73-3.62.05-.15.22-.27.38-.23.17.04.26.19.21.36-.45,1.56-1.32,2.53-2.16,3.14Z"/>
              <path class="cls-30" d="M504.95,68.65c-3.64,1.73-8.3,4.53-12.74,8.53l-2.44-3.59c1.62-1.64,5.62-5.26,11.65-8,.43.35,3.19,2.65,3.53,3.07Z"/>
            </g>
            <path class="cls-4" d="M505.29,74.91c.34.48.41,1.02.16,1.2-.25.18-.73-.07-1.07-.56-.34-.48-.41-1.03-.16-1.2.25-.17.73.08,1.07.56Z"/>
            <path class="cls-4" d="M498.59,80.18c.34.49.41,1.03.16,1.2-.26.18-.74-.07-1.07-.56-.34-.48-.41-1.02-.16-1.2.25-.18.73.07,1.07.56Z"/>
          </g>
          <g>
            <path class="cls-15" d="M476.9,115.02c1.58,2.1,3.75,3.91,6.04,5.18,1.88,1.03,5.63,2.82,7.53,1.22,2.06-1.73-.52-4.19-1.79-5.63-1.5-1.69-2.69-3.86-3.82-5.83-1.75-3.04-4.16-2.36-6.54-4.49-.33.56-.51.96-.22,1.61-3.51-.63-2.41,6.33-1.19,7.95Z"/>
            <path class="cls-3" d="M590.85,176.59c.27,5.38,1.36,10.31,2.19,15.53-3.83.96-46.12,1.89-46.12,1.12.05-10.76-2.08-21.48-1.16-32.19.79-9.16,3.58-19.69-.69-28.41-2.77-5.67-8.75-8.51-14.21-10.8-4.48-1.89-9.47-3.23-12.51-7.33-2.78-3.76-3.6-8.68-3.99-13.23-.51-5.92-1.35-11.33,3.44-15.88,8.06-7.67,17.47-1.42,24.88,3.76,13.33,9.33,24.7,21.15,34.84,33.82,9.46,11.84,12.4,28.47,12.95,43.19.13,3.55.22,6.99.39,10.41Z"/>
            <path class="cls-15" d="M490.01,115.94c3.95,1.49,8.29,2.39,12.4,3.62,1.43.43,3.76,1.86,5.24,1.18,1.46-.66,2.27-3.22,2.81-4.56.96-2.36,1.89-4.72,2.82-7.09,1.92-4.9,2.18-15.68,9.32-16.31,3.1-.27,4.8,1.86,5.6,4.59.94,3.24-.85,8.63-2.01,11.69-1.67,4.4-4.24,8.39-5.99,12.7-1.5,3.69-4.25,8.03-7.93,9.84-3.27,1.61-10.54-1.17-13.61-2.53-2.26-.99-4.3-2.3-6.41-3.51-2.5-1.43-4.71-3.1-7.05-4.74-2.11-1.49-3.88-3.35-2.78-6.09.45-1.14,2.08-2.46,3.27-1.85,1.04.54,1.77,1.76,2.85,2.36.47.27.97.48,1.48.68Z"/>
          </g>
        </g>
        <path class="cls-4" d="M503.19,82.28c-.23,0-.43-.05-.61-.15-.44-.24-.71-.77-.82-1.62-.13-1.02-.59-2.26-1.49-2.39-.15-.02-.26-.16-.23-.31.02-.15.16-.26.31-.23,1.2.18,1.8,1.6,1.96,2.87.08.65.26,1.06.53,1.21.28.16.76.08,1.43-.24.14-.07.3,0,.37.13.07.14,0,.3-.13.37-.53.25-.96.38-1.33.38Z"/>
        <path class="cls-4" d="M501.22,73.83c-.07,0-.14-.02-.19-.07-.11-.1-.12-.28-.01-.39.09-.1,2.36-2.47,5.33-1.53.15.05.23.2.18.35-.04.15-.2.23-.35.18-2.64-.84-4.74,1.36-4.76,1.38-.05.06-.13.09-.2.09Z"/>
        <path class="cls-4" d="M494.58,79.57c-.15,0-.28-.12-.28-.28,0-1.37,1.7-2.66,1.77-2.71.12-.09.29-.07.39.05.09.12.07.3-.05.39-.02.01-1.55,1.18-1.55,2.27,0,.15-.12.28-.28.28Z"/>
        <path class="cls-4" d="M503.5,68.3c1.61.16,2.79.57,3.85,1.89.09-1.44-.03-2.71,1.54-3.28,1.39-.51,2.87.1,3.7,1.25.95,1.32.64,2.69.59,4.28-.08,2.15.95,3.48,2.63,4.66.55-1.74.21-4.36.14-6.19-.09-2.12-.29-4.16-.83-6.21-1.05-4.03-2.68-7.04-6.68-8.73-3.66-1.55-7.23-1.25-10.93.24-2.53,1.03-6.18,3.88-5.25,7.1.41,1.44,1.99,1.96,3.23,2.48,2.34.98,5.52,2.24,8.02,2.49Z"/>
        <g>
          <path class="cls-7" d="M497.83,64.55c-1.86-2.9-5.72-3.74-8.61-1.89-2.9,1.86-3.75,5.72-1.89,8.62,1.86,2.9,5.71,3.74,8.61,1.89,2.9-1.86,3.75-5.71,1.89-8.61Z"/>
          <path class="cls-4" d="M493.58,67.26c-.35-.55-1.09-.72-1.65-.36-.55.35-.72,1.09-.36,1.65.36.56,1.1.72,1.66.36.56-.36.72-1.1.36-1.66Z"/>
        </g>
        <path class="cls-4" d="M505.85,55.7c3.57-6.44,13.03-8.99,19.02-4.49,4.98,3.74,4.79,9.22,5.05,14.82.11,2.41.06,5.2.49,7.6.37,2.09,1.73,3.98,1.96,5.84-7.94,1.6-11.08-7.53-13.03-13.18-1.1-3.19-2.36-5.87-5.75-7.33-1.62-.7-3.07-.38-4.7-.75-1.58-.36-3.43-2.12-4.98-1.66l1.94-.83Z"/>
      </g>
    </g>
  </g>
  <g>
    <g>
      <g>
        <path class="cls-11" d="M326.72,456.95l-6.91,10.87c-.3.47-.93.61-1.4.31-.39-.25-.56-.72-.43-1.15l3.79-12.31c.45-1.45,1.99-2.27,3.44-1.82,1.45.44,2.26,1.98,1.81,3.43-.07.23-.18.47-.3.67Z"/>
        <path class="cls-11" d="M341.76,456.95l-6.91,10.87c-.3.47-.93.61-1.4.31-.39-.25-.55-.72-.42-1.15l3.79-12.31c.45-1.45,1.99-2.27,3.44-1.82,1.45.44,2.27,1.98,1.82,3.43-.08.23-.19.47-.31.67Z"/>
        <g>
          <path class="cls-11" d="M421.17,456.95l6.91,10.87c.3.47.93.61,1.4.31.39-.25.56-.72.43-1.15l-3.79-12.31c-.45-1.45-1.98-2.27-3.43-1.82-1.45.44-2.27,1.98-1.82,3.43.08.23.19.47.31.67Z"/>
          <path class="cls-11" d="M411.48,456.95l6.91,10.87c.3.47.93.61,1.4.31.39-.25.56-.72.43-1.15l-3.79-12.31c-.45-1.45-1.98-2.27-3.43-1.82-1.45.44-2.27,1.98-1.82,3.43.08.23.18.47.31.67Z"/>
        </g>
        <g>
          <g>
            <polygon class="cls-5" points="414.11 457.21 411.01 457.21 411.07 457.36 402.07 457.36 401.97 457.21 337.47 457.21 337.37 457.36 328.37 457.36 328.43 457.21 315.32 457.21 317.38 227.23 420.07 227.23 414.11 457.21"/>
            <polygon class="cls-18" points="434.79 457.21 338.84 457.21 340.51 227.23 438.28 227.23 434.79 457.21"/>
            <polygon class="cls-11" points="433.58 233.48 432.52 274.27 432.45 276.43 431.29 321.53 431.24 323.48 430.11 367.41 343.75 367.41 343.63 362.75 343.63 233.48 433.58 233.48"/>
            <g>
              <polygon class="cls-4" points="381.3 321.77 343.63 321.77 343.63 287.08 349.12 287.08 349.12 287.03 353.99 287.03 353.99 287.08 355.47 287.08 355.47 287.03 363.47 287.03 368.31 292.21 376.06 292.86 381.3 321.77"/>
              <polygon class="cls-4" points="424.29 286.28 415.59 321.79 394.7 321.79 390.94 319.01 404.78 287.11 424.29 286.28"/>
              <polygon class="cls-31" points="431.64 289.38 415.59 321.79 409.38 319.04 424.31 286.22 431.64 289.38"/>
              <polygon class="cls-31" points="370.18 295.41 381.3 321.77 385.87 319.75 376.06 292.87 370.18 295.41"/>
              <polygon class="cls-31" points="363.87 321.77 368.88 321.77 369.28 287.02 363.47 287.02 363.87 321.77"/>
              <polygon class="cls-31" points="356.83 321.77 361.85 321.77 362.25 287.02 356.43 287.02 356.83 321.77"/>
              <polygon class="cls-31" points="355.47 287.08 354.94 321.77 347.69 321.77 347.15 287.08 349.12 287.08 349.12 287.03 353.99 287.03 353.99 287.08 355.47 287.08"/>
              <polygon class="cls-6" points="429.36 291.54 421 308.71 416.48 306.75 424.34 289.36 429.36 291.54"/>
              <polygon class="cls-6" points="375.93 295.47 380.89 309.05 378.02 310.4 372.42 296.88 375.93 295.47"/>
              <polygon class="cls-28" points="368.31 288.76 368.03 308.59 364.61 308.59 364.61 288.86 368.31 288.76"/>
              <polygon class="cls-28" points="361.5 288.76 361.06 308.59 357.64 308.59 357.64 288.76 361.5 288.76"/>
              <polygon class="cls-6" points="353.95 288.64 353.51 308.59 348.93 308.59 349.11 288.64 353.95 288.64"/>
              <path class="cls-4" d="M380.78,314.94l.02-.04s0,0,0,.02c0,0,0,0-.01.02Z"/>
            </g>
            <g>
              <polygon class="cls-4" points="343.63 333.51 357.76 333.51 372.1 333.51 371.63 367.36 343.75 367.36 343.47 367.36 343.73 366.36 343.74 366.3 343.63 361.16 343.63 333.51"/>
              <polygon class="cls-4" points="407.64 367.36 360.97 367.36 358.9 333.55 383.42 333.51 390.28 333.51 395 338.57 402.54 339.2 407.64 367.36"/>
              <polygon class="cls-31" points="396.81 341.68 407.64 367.36 412.1 365.39 402.54 339.2 396.81 341.68"/>
              <polygon class="cls-31" points="390.67 367.36 395.56 367.36 395.94 333.51 390.28 333.51 390.67 367.36"/>
              <polygon class="cls-31" points="383.81 367.36 388.7 367.36 389.09 333.51 383.43 333.51 383.81 367.36"/>
              <polygon class="cls-19" points="402.42 341.74 407.25 354.96 404.46 356.29 399 343.11 402.42 341.74"/>
              <polygon class="cls-27" points="395 335.2 394.72 354.73 391.39 354.73 391.39 335.3 395 335.2"/>
              <polygon class="cls-19" points="388.36 335.2 387.93 354.73 384.6 354.73 384.6 335.2 388.36 335.2"/>
              <path class="cls-4" d="M407.15,360.71v-.04s.01.01.01.02c0,0,0,.01-.01.02Z"/>
              <polygon class="cls-31" points="365 367.36 369.89 367.36 370.27 333.51 364.61 333.51 365 367.36"/>
              <polygon class="cls-31" points="358.15 367.36 363.03 367.36 363.42 333.51 357.76 333.51 358.15 367.36"/>
              <polygon class="cls-27" points="369.05 354.73 369.34 335.2 365.72 335.3 365.72 354.73 369.05 354.73"/>
              <polygon class="cls-19" points="362.7 335.2 362.26 354.73 358.94 354.73 358.94 335.2 362.7 335.2"/>
              <polygon class="cls-31" points="347.98 367.36 352.87 367.36 353.26 333.51 347.6 333.51 347.98 367.36"/>
              <polygon class="cls-27" points="352.53 335.2 352.1 354.73 348.78 354.73 348.78 335.2 352.53 335.2"/>
            </g>
            <g>
              <polygon class="cls-4" points="387.85 274.68 343.97 275.45 343.86 240.61 361.83 240.61 362.7 240.83 370.48 240.83 375.21 245.89 382.75 246.52 387.85 274.68"/>
              <polygon class="cls-31" points="377.02 248.99 387.86 274.67 393.45 272.37 382.75 246.52 377.02 248.99"/>
              <polygon class="cls-31" points="370.87 274.67 375.77 274.67 376.15 240.83 370.49 240.83 370.87 274.67"/>
              <polygon class="cls-31" points="364.02 274.67 368.91 274.67 369.3 240.83 363.63 240.83 364.02 274.67"/>
              <polygon class="cls-31" points="362.71 240.61 362.7 240.83 362.18 274.68 355.12 274.68 354.59 240.61 362.71 240.61"/>
              <polygon class="cls-26" points="382.63 249.05 388.1 262.34 384.66 263.6 379.21 250.42 382.63 249.05"/>
              <polygon class="cls-29" points="375.21 242.51 374.94 260.78 371.6 260.78 371.6 242.61 375.21 242.51"/>
              <polygon class="cls-26" points="368.57 242.51 368.16 260.78 364.81 260.78 364.81 242.51 368.57 242.51"/>
              <polygon class="cls-29" points="361.21 242.56 360.81 260.78 356.34 260.78 356.5 242.56 361.21 242.56"/>
              <path class="cls-4" d="M387.35,268.02l.02-.04s0,.01,0,.02c0,0,0,.01-.01.02Z"/>
            </g>
            <path class="cls-18" d="M431.29,321.53l-.04,1.95h-88.62l-.05-1.95h88.71ZM341.36,274.27l.06,2.16h91.05l.06-2.16h-91.16Z"/>
            <polygon class="cls-5" points="429.28 373.28 428.89 454.48 343.85 454.48 343.69 372.78 429.28 373.28"/>
          </g>
          <rect class="cls-18" x="386.31" y="371.78" width="2.01" height="83.24"/>
          <path class="cls-18" d="M379.51,410.34c0-.99.8-1.78,1.79-1.78s1.78.79,1.78,1.78-.8,1.78-1.78,1.78-1.79-.8-1.79-1.78Z"/>
          <path class="cls-18" d="M391.55,410.34c0-.99.8-1.78,1.79-1.78s1.78.79,1.78,1.78-.8,1.78-1.78,1.78-1.79-.8-1.79-1.78Z"/>
        </g>
      </g>
      <g>
        <rect class="cls-7" x="395.62" y="255.73" width="26.74" height="18.72"/>
        <g>
          <rect class="cls-24" x="408.15" y="261.59" width="2.17" height="10.03"/>
          <rect class="cls-24" x="404.31" y="265.51" width="10.03" height="2.17"/>
        </g>
      </g>
    </g>
    <g>
      <g>
        <path class="cls-30" d="M277.73,327.41c4.91-2.15,9.81-4.3,14.72-6.46,1.6-.7,4-1,4.01-3.04,0-1.23-.47-2.79-1.05-3.88-1.39-2.59-3.15-5.04-4.98-7.33-.98-1.22-3.04-4.16-4.8-3.81-2.71.53-4.61,3.47-6.63,5.07-2.92,2.31-5.85,4.61-8.73,6.97-2.16,1.77-4.3,3.56-6.48,5.31-2.43,1.95-5.34.12-8.29-.52-2.9-.63-5.79-1.26-8.69-1.88-3.67-.8-16.41-1.98-20.08-2.77l2.17,10.03c4.85,1.15,13.03,2.9,17.87,4.05,3.58.84,7.15,1.69,10.73,2.53,1.94.46,3.81,1.4,5.83,1.56,1.76.13,3.01-.82,4.58-1.51,3.28-1.43,6.55-2.87,9.82-4.31Z"/>
        <g>
          <path class="cls-9" d="M333.71,485.8c-.28-.4-.66-.76-1.2-1.08-3.39-1.98-7.24-.61-9.2,2.69-2.11,3.56-4.84,5.63-9.13,6.29-2.07.32-4.69-.03-6.61.91-2,.97-2.25,3.44-.19,4.45,2.57,1.27,5.39.52,8.09.47,2.69-.05,5.4.02,8.1.04,3.46.02,7.75.52,10.59-2.03,2.21-1.99,1.05-9.52-.45-11.74Z"/>
          <path class="cls-4" d="M340.89,415.61c.74.79,1.18,1.93,1.17,3.6-.03,6.61-.46,13.7-1.51,20.23-.99,6.18-1.32,12.44-1.73,18.68-.14,2.16-1.78,29.48-3.15,29.52h-.03l-18.65-1.77c.39-3.53,1.47-7.36,2.01-10.78,1.1-6.96,1.13-13.94,1.62-21.04.53-7.59.76-15.19,1.05-22.8.15-3.78.31-7.58.54-11.36.07-1.26-.21-3.56.69-4.35,1.75-1.53,5.83-1.19,7.96-1.29,3.44-.16,7.94-.86,10.03,1.36Z"/>
        </g>
        <g>
          <path class="cls-9" d="M368.3,482.96c-.34-.35-.77-.64-1.36-.86-3.69-1.35-7.24.68-8.58,4.27-1.45,3.88-3.77,6.4-7.87,7.81-1.98.68-4.62.8-6.35,2.06-1.8,1.32-1.61,3.78.6,4.42,2.76.79,5.4-.44,8.05-.97,2.64-.52,5.32-.93,7.98-1.39,3.41-.59,7.72-.85,10.07-3.87,1.82-2.36-.65-9.57-2.52-11.48Z"/>
          <path class="cls-4" d="M362.96,412.61c.87.64,1.5,1.7,1.78,3.34,1.14,6.51,1.97,13.56,2.1,20.17.12,6.26.9,12.48,1.6,18.69.24,2.16,3.47,29.33,2.12,29.61h-.02s-18.68,1.57-18.68,1.57c-.24-3.54.15-7.51.08-10.97-.15-7.05-1.35-13.92-2.12-20.99-.83-7.56-1.95-15.09-3-22.62-.53-3.76-1.04-7.52-1.49-11.28-.15-1.26-.84-3.46-.09-4.41,1.45-1.82,5.53-2.21,7.6-2.68,3.37-.77,7.67-2.26,10.12-.43Z"/>
        </g>
        <g>
          <g>
            <path class="cls-15" d="M278.19,296.19c-.4,1.53-.44,3.06.33,4.52,1.3,2.44,5.34,6.93,8.54,6.22,1.73-.38,5.99-3.93,7.72-5.09,2.3-1.53,4.81-3.57,1.99-6.1-1.4-1.25-3.58-1.01-5.1-1.66-3.17-1.38-8.65-9.45-10.84-4.11-.8,1.94-2.08,4.08-2.65,6.22Z"/>
            <path class="cls-4" d="M261.49,287.86c-1.79-4.87-7.02-.35-4.98,3.52,1.68,3.2,5.25,4.92,7.81,7.32-1.32-3.5-1.53-7.36-2.83-10.84Z"/>
            <path class="cls-15" d="M266.61,300.8c1.9,1.66,4.38,3.44,7.04,3.74,3.49.38,5.7-.62,7.98-3.52,2.45-3.1,3.4-7.16,3.35-11.01-.04-3.67-.92-7.26-2.53-10.42-1.5-2.92-3.77-5.56-6.88-6.54-4.68-1.48-11.38,1.22-15.26,4.15-4.44,3.34-4.86,6.87-2.86,11.25,1.57,3.44,3.7,6.86,6.39,9.65.81.85,1.75,1.79,2.78,2.69Z"/>
            <path class="cls-4" d="M280.91,302.44c-.27.24-.53.46-.77.63-.12.1-.29.08-.37-.04-.09-.11-.05-.29.07-.38,1.76-1.3,4.72-4.42,4.93-10.54,0-.14.13-.27.28-.27.14,0,.26.11.26.26-.19,5.53-2.57,8.71-4.39,10.35Z"/>
            <g>
              <path class="cls-4" d="M270.72,288.86c.1-.06.2-.13.3-.23.73-.86,1.77-1.11,1.78-1.11.46-.1.77-.55.7-1.02-.07-.45-.49-.76-.94-.67-.07.01-1.63.38-2.77,1.72-.3.36-.29.89.06,1.21.25.2.59.23.88.09Z"/>
              <path class="cls-4" d="M265.7,293.09c-.07.1-.17.18-.27.25-.97.56-1.42,1.58-1.41,1.59-.19.45-.68.66-1.11.51-.41-.17-.6-.66-.42-1.1.03-.06.69-1.6,2.19-2.48.41-.24.9-.1,1.12.3.14.31.1.66-.1.92Z"/>
              <path class="cls-4" d="M271.12,298.54c-.29.2-.43.25-.47.27-.08.02-.15,0-.21-.03-1.51-.93-3.07-5.5-3.13-5.7-.05-.13.02-.29.18-.34.14-.06.29,0,.34.14.41,1.24,1.7,4.53,2.82,5.37.18-.11.62-.42,1.44-1.28.11-.11.28-.12.38-.03.11.1.11.26,0,.37-.62.66-1.06,1.02-1.34,1.23Z"/>
            </g>
            <path class="cls-4" d="M279.48,285.47s-.05.03-.09.04c-.15.04-.29-.03-.32-.17-.11-.4-.57-2.39.02-3.05.11-.12.27-.13.38-.04.11.1.12.26.01.37-.29.32-.11,1.71.1,2.55.02.11-.02.23-.11.29Z"/>
            <path class="cls-4" d="M279.61,284.25c-.1.07-.22.08-.32.02-.12-.08-.15-.24-.06-.37l.49-.68c.08-.12.26-.17.37-.09.12.07.15.24.07.36l-.49.69s-.04.05-.06.07Z"/>
            <path class="cls-4" d="M268.64,277.07c-.04,2.47,2.19,3.24,3.66,4.47,1.53,1.31,2.43,2.83,3.54,4.51-.25-.55-.18-.83-.28-1.4.15.34.35.58.47.97.04-2.21.97-7.65,3.88-4.75,1.92,1.91,1.2,5.93,3.55,7.14-.2-.55-.33-1.03-.58-1.53.51.7,1.01,1.4,1.51,2.11.05.11-.19-.58-.29-.77.92,1.28,1.65,2.83,3.26,3.1-.45-.61-.88-1.23-1.33-1.84.53.41.91.82,1.26,1.4-3.03-6.44-3.35-15.18-9.68-19.47-2.64-1.77-6.12-1.15-8.53.88-3.71,3.14-.92,5.52,1.07,8.04l-1.52-2.86Z"/>
            <path class="cls-4" d="M271.57,270.24c-2.7-2.36-8.26-3.2-9.67,1.36-3.59-2.38-10.45,5.99-7.17,6.92-2.89,2.47-3.88,6.94-1.22,9.65,1.7,1.73,3.86,1.02,4.45-1.32,1.33.97,3.77-2.87,3.8-4.13,2.13,1.46,6.09-2.72,7.35-5.06,1.06.03,2.36-.44,3.18-.82.49-.23,2.5-1.54,2.5-2.25.6,0,1.47-1.14,1.71-1.73.4-1.03-.36-2.62-.95-1.35,1.5-2.3-3.91-4.38-3.99-1.28Z"/>
            <path class="cls-4" d="M274.89,299.7c-1.18.85-2.29,1.04-2.31,1.04-.19.02-.35-.1-.37-.27-.02-.18.13-.35.31-.39.12-.02,3.09-.54,4.1-3.98.05-.17.24-.29.42-.25.19.04.29.21.23.39-.49,1.71-1.45,2.78-2.38,3.45Z"/>
            <g>
              <path class="cls-30" d="M273.3,282.62c-4,1.89-9.12,4.97-13.99,9.36l-2.68-3.95c1.78-1.8,6.17-5.78,12.79-8.79.47.38,3.51,2.92,3.88,3.38Z"/>
              <g>
                <path class="cls-18" d="M265.49,278.11c-2.04-3.19-6.28-4.12-9.46-2.08-3.19,2.04-4.12,6.28-2.08,9.46,2.04,3.19,6.27,4.11,9.46,2.07,3.19-2.04,4.12-6.27,2.08-9.46Z"/>
                <path class="cls-4" d="M260.82,281.09c-.39-.61-1.2-.79-1.82-.4-.61.4-.79,1.21-.4,1.82.39.61,1.21.79,1.82.4.61-.39.79-1.21.39-1.82Z"/>
              </g>
            </g>
          </g>
          <path class="cls-4" d="M273.68,289.49c.37.53.45,1.13.17,1.32-.28.19-.8-.09-1.18-.62-.37-.53-.45-1.13-.17-1.32.28-.19.8.08,1.18.61Z"/>
          <path class="cls-4" d="M266.32,295.28c.37.54.45,1.13.18,1.32-.28.19-.81-.09-1.18-.62-.38-.53-.45-1.12-.18-1.32.28-.19.81.08,1.18.61Z"/>
        </g>
        <path class="cls-30" d="M367.76,401.18c0,5.18.32,10.97-.61,16.15-18.02,1.47-37.15,1.71-50.28,1.65-.49-17.82,1.9-35.47-2.62-53.1-2.62-10.21-7-15.24-14.93-21.46-6.62-5.2-15.73-9.48-17.91-18.39-2.54-10.38-1.89-17.52,6-25.01,3.48-3.32,9.57-7.03,14.56-6.96,5.72.08,11.97,5.75,16.16,9.17,14.2,11.56,27.8,22.5,37.82,37.99,6.26,9.68,7.98,21.61,10.47,32.64,2.02,8.95,1.34,18.16,1.34,27.33Z"/>
        <g>
          <path class="cls-4" d="M245.15,328.95s.31,3.69.3,3.7c-.01-.18-.52-.44-.64-.5-.79-.4-1.6-.09-2.41-.02-.27.02-3.41.56-3.42.46l-.24-1.51s2.59-.53,2.77-.56c1.37-.28,2.75-.32,3.64-1.56Z"/>
          <path class="cls-15" d="M256.01,341.08c1.43-2.84,1.44-6.88-1.67-8.24-1.72-.75-3.09-2.09-4.46-3.32-2.88-2.56-5.15-1.02-8.38-2.41-.15.69-.2,1.17.32,1.76-3.88.57-.32,7.43,1.52,8.7,3.16,2.18,8.88,3.52,12.67,3.51Z"/>
        </g>
        <path class="cls-30" d="M302.45,323.97c-4.89,6.73-9.78,13.46-14.68,20.18-2.98,4.1-5.43,9.34-11.17,9.35-5.57.02-10.65-3.41-15.59-5.54-4.76-2.05-4.15-2.22-8.91-4.28l3.65-11.25c2.87,1.12,3.42,1.13,6.29,2.25,2.31.9,4.61,1.8,6.92,2.7,3.54,1.38,6.01,1.25,7.46-2.26,1.2-2.91,2.41-5.82,3.61-8.73,1.75-4.23,3.5-8.45,5.25-12.69l17.16,10.26Z"/>
        <path class="cls-7" d="M294.65,335.23c-.1,0-.2-.05-.27-.13-.11-.15-.08-.36.06-.47.97-.74,1.7-1.99,2.41-3.21.33-.57.67-1.16,1.03-1.67,2.05-2.94,3.96-5.56,5.86-7.99.11-.14.32-.17.47-.06.15.11.18.32.06.47-1.89,2.42-3.8,5.02-5.84,7.96-.34.49-.67,1.05-1,1.63-.75,1.27-1.52,2.58-2.58,3.4-.06.05-.13.07-.2.07Z"/>
        <path class="cls-7" d="M282.39,321.42c-.05,0-.1-.02-.15-.04-.17-.09-.23-.29-.14-.45.67-1.28,1.18-2.77,1.74-4.34,1.01-2.89,2.07-5.88,4.12-7.79.14-.12.35-.12.47.01.12.14.11.35-.02.47-1.93,1.8-2.95,4.7-3.94,7.52-.56,1.6-1.09,3.1-1.78,4.43-.06.11-.18.18-.3.18Z"/>
      </g>
      <g id="woman">
        <g>
          <path class="cls-23" d="M225.6,495.04c-3.32-.54-3.63-3.8-3.57-5.44l3.43-49.68h-6.22l-3.27,49.04c-.48,1.18-2.54,5.45-6.72,6.08,0,0-10.3.37-11.94,5.66h37.26c1.14-5.29-8.96-5.66-8.96-5.66Z"/>
          <path class="cls-23" d="M260.26,426.55l-34.52-.84c.06-.32.08-.66.02-1.01l-12.01-80.09c-.25-1.6-1.37-2.6-2.86-2.64l-33.08-1.12c-3.63.85-4.49,3.93-3.94,7.08l11.12,76.77s-1.96,25.45,68.87,19.8c77.94-6.22,6.39-17.96,6.39-17.96Z"/>
          <path class="cls-20" d="M186.35,340.78c-1.48-.03-2.51,1.25-2.28,2.85l11.75,81.07c.24,1.6,1.64,2.92,3.13,2.92h35.38c1.48,0,2.5-1.31,2.26-2.92l-12.02-80.09c-.25-1.6-1.65-2.94-3.14-2.97l-35.09-.86Z"/>
        </g>
        <g>
          <g>
            <g>
              <path class="cls-15" d="M310.03,500.04l-21.48-.55c-1.09-.03-1.96-.94-1.84-2.01.08-.74.19-1.49.27-2.11.13-.87.25-1.5.25-1.5,1.32-6.89-4.58-21.64-4.58-21.64-9.19-19.35-5.9-31.16-5.9-31.16,0,0,16.39-10.49,16.07,3.94-.28,12.24,2.98,36.04,3.97,42.99.16,1.07,1.1,2.29,2.09,2.72l7.4,3.2,3.42,1.48c1,.42,1.91,1.65,2.06,2.77.14,1.07-.64,1.92-1.72,1.9Z"/>
              <path class="cls-9" d="M310.03,500.04l-21.48-.55c-1.09-.03-1.96-.94-1.84-2.01.08-.74.19-1.49.27-2.11,4.07.77,14.25,2.21,19.29-1.46l3.42,1.48c1,.42,1.91,1.65,2.06,2.77.14,1.07-.64,1.92-1.72,1.9Z"/>
            </g>
            <g>
              <path class="cls-15" d="M291.01,500.04l-21.48-.55c-1.09-.03-1.96-.94-1.84-2.01.08-.74.19-1.49.28-2.11.12-.87.25-1.5.25-1.5,1.32-6.89-4.59-21.64-4.59-21.64-9.19-19.35-5.9-31.16-5.9-31.16,0,0,16.39-10.49,16.06,3.94-.27,12.24,2.98,36.04,3.98,42.99.16,1.07,1.1,2.29,2.1,2.72l7.4,3.2,3.41,1.48c1.01.42,1.92,1.65,2.06,2.77.14,1.07-.64,1.92-1.72,1.9Z"/>
              <path class="cls-9" d="M291.01,500.04l-21.48-.55c-1.09-.03-1.96-.94-1.84-2.01.08-.74.19-1.49.28-2.11,4.07.77,14.24,2.21,19.29-1.46l3.41,1.48c1.01.42,1.92,1.65,2.06,2.77.14,1.07-.64,1.92-1.72,1.9Z"/>
            </g>
            <path class="cls-18" d="M296.32,454.78c-18.51,1.16-36.11.26-43.88-.26-.51-2.55-.56-4.94-.53-7.62.02-2.99,1.15-6.58.5-9.53-1.04-4.77-8.3-6.11-12.25-6.88-3.73-.72-7.6-.91-11.39-1.24-4.03-.35-7.83-.65-11.88-.65-21.59,0-17.32-21.99-11.66-36,3.72-9.2-3.84-18.95-5.19-28.1-1.17-7.89,3.08-17.45,9.72-21.99,3.18-2.18,8.84-2.51,12.21-.74,3.63,1.9,5.35,6.09,7.51,9.33,3.6,5.4,7.83,10.5,9.43,16.96,1.15,4.62-1.11,5.79-3.55,9.24-1.77,2.49-1.42,5.11-1.41,8.12,0,3.04-.54,5.86-.5,8.92.02,1.56,0,2.76.74,4.17,1.66,3.22,5.48,3.81,8.66,4.3,4.95.75,9.9,1.9,14.83,2.85,3.99.76,7.95,1.7,11.86,2.79,3.89,1.07,8.93,1.94,12.42,4,4.31,2.54,7.12,8.26,8.88,12.7,3.7,9.32,5.04,19.68,5.48,29.64Z"/>
          </g>
          <g>
            <path class="cls-15" d="M221.52,335.46c.72,1.31,1.2,2.75,1.32,4.38.12,1.61,1.24,4.24.64,5.74-1.19,2.98-5.85,1.68-8.05.86-3.96-1.48-5.44-4.87-5.28-8.9.1-2.5-.02-7.02,1.8-8.98,2.61-2.82,8.18,4.38,9.57,6.9Z"/>
            <path class="cls-15" d="M230.34,311.91c-.83-1.33-2.18-2.29-4.32-2.63-5.22-.82-11.11.71-14.6,4.7-6.25,7.16-1.5,18.53,5.95,22.4,4.15,2.16,9.02,3.24,11.23-1.45,1.86-3.92,2.68-7.18,2.76-11.4.07-3.58.98-8.42-1.03-11.62Z"/>
            <path class="cls-4" d="M227.09,305.68c-2.08-1.42-4.57-2.31-7.12-2.46-3.87-.23-8.06.29-11.33,2.47-3.46,2.31-6.33,5.63-7.97,9.47-1.73,4.06-1.92,8.68-2.3,13.02-.36,4.08-.7,8.44-.35,12.55.41,4.76-.17,9.74,2.95,13.71,1.76,2.24,6.85,5.18,9.8,3.63-2.02-3.06-1.21-7.61-.72-10.92.78-5.26,2.5-10.3,3.65-15.48,1.05-4.77.1-9.04,3.84-12.72,1.59-1.56,3.22-1.5,5.44-1.56,3.3-.09,6.55.49,9.83.55.46,0-.59-5.42-.76-5.91-.9-2.6-2.69-4.8-4.96-6.35Z"/>
          </g>
          <path class="cls-4" d="M221.86,338.39s-.03,0-.05,0c-.08,0-7.55-1.26-9.32-7.56-.05-.17.06-.36.23-.41.18-.04.36.06.41.23,1.65,5.89,8.71,7.07,8.78,7.08.19.03.31.2.28.39-.03.16-.17.28-.33.28Z"/>
          <path class="cls-15" d="M208.57,377.3c1.69,4.45,2.9,9.11,4.54,13.58,1.33,3.64,3.08,10.31,6.86,11.82,1.89.74,5.52.45,7.64.74,6.31.88,13.8.12,20.01,2.01,2.68.81,4.16,3.44,6.97,4.28,2.95.87,5.67.93,8.47,2.08,1.68.68,4.26,1.06,5.79-.04-.94-2.06-3.07-3.46-4.83-4.78-1.96-1.47-4.28-1.98-6.56-2.88-2.37-.94-4.05-1.83-6.54-2.36-6.95-1.47-13.57-4.58-20.51-6.41-5.87-1.55-5.9-5.11-7.51-11.01-.19-.71-2.91-11.19-3.14-11.12,0,0-11.21,4.09-11.21,4.09Z"/>
          <path class="cls-7" d="M222.25,372.33c-.15,0-.29-.09-.36-.23-1.01-2.38-1.52-4.86-2.01-7.26-.84-4.06-1.63-7.89-4.65-11.12-.15-.15-.14-.4.02-.54.15-.15.39-.14.54.01,3.18,3.39,4.03,7.51,4.85,11.49.49,2.36.99,4.8,1.97,7.12.08.2,0,.42-.2.5-.05.02-.1.03-.15.03Z"/>
          <path class="cls-7" d="M206.65,379.65c-.16,0-.3-.09-.36-.25-.49-1.33-1.06-2.69-1.61-4.01-1.94-4.64-3.95-9.45-3.42-14.65.02-.21.21-.39.42-.34.21.02.37.21.35.42-.51,5,1.45,9.72,3.36,14.28.55,1.32,1.12,2.69,1.62,4.04.08.2-.03.42-.23.49-.04.01-.09.02-.13.02Z"/>
        </g>
        <g>
          <path class="cls-4" d="M218.76,321.52c-.1,0-.21-.05-.28-.15-.1-.15-.07-.36.09-.47.09-.06,2.29-1.52,5.75-.37.18.06.27.25.21.43-.06.17-.26.26-.42.21-3.14-1.05-5.08.24-5.16.29-.06.04-.12.06-.19.06Z"/>
          <path class="cls-4" d="M231.54,321.42s-.09-.01-.14-.03c-1.53-.69-2.99-.16-3.01-.16-.17.06-.37-.02-.43-.2-.06-.17.02-.37.2-.43.07-.03,1.74-.63,3.52.17.17.08.24.28.17.44-.05.12-.18.2-.3.2Z"/>
          <path class="cls-4" d="M226.83,330.05c-.18,0-.35,0-.51-.02-.19-.01-.36-.02-.52-.01-.18,0-.34-.13-.35-.32s.13-.34.32-.35c.17-.01.38,0,.59.01.52.03,1.05.07,1.29-.23.12-.15.25-.57.13-1.68-.05-.46-.17-.93-.29-1.38-.3-1.13-.61-2.31.1-3.49.09-.16.3-.21.46-.12.16.09.21.3.12.46-.56.95-.3,1.93-.03,2.98.13.48.26.98.31,1.48.08.75.12,1.68-.27,2.17-.34.42-.85.5-1.34.5Z"/>
          <path class="cls-4" d="M222.05,323.53c0,.71-.25,1.28-.56,1.28s-.56-.57-.56-1.28.25-1.28.56-1.28.56.57.56,1.28Z"/>
          <path class="cls-4" d="M230.57,323.53c0,.71-.25,1.28-.56,1.28s-.56-.57-.56-1.28.25-1.28.56-1.28.56.57.56,1.28Z"/>
        </g>
        <path class="cls-4" d="M228.07,332.1c.02.13,0,.28-.04.44-.09.2-.22.35-.39.48-.09.28-.02.52-.11.85-.46,1.81-2.53,1.29-2.94-.33-.11-.41-.13-.83-.04-1.18.02-.09.07-.17.11-.26.65-1.26,3.38-1.53,3.42,0Z"/>
        <path class="cls-7" d="M228.07,332.1c-1.07-.33-2.81-.11-3.42,0,.65-1.26,3.38-1.53,3.42,0Z"/>
      </g>
      <polygon class="cls-4" points="238.97 331.43 226.55 333.92 239.32 332.14 238.97 331.43"/>
    </g>
  </g>
</svg>