<?xml version="1.0" encoding="UTF-8"?>
<svg id="Layer_3" data-name="Layer 3" xmlns="http://www.w3.org/2000/svg" viewBox="0 0 468 312">
  <defs>
    <style>
      .cls-1, .cls-2, .cls-3, .cls-4, .cls-5, .cls-6 {
        fill: #fff;
      }

      .cls-1, .cls-7 {
        opacity: .2;
      }

      .cls-8 {
        fill: #fafafa;
      }

      .cls-9, .cls-10, .cls-11, .cls-12 {
        fill: #d28c65;
      }

      .cls-13 {
        fill: #1d1a35;
      }

      .cls-14 {
        fill: #d268cc;
      }

      .cls-15 {
        opacity: .65;
      }

      .cls-15, .cls-16 {
        fill: #8fffb7;
      }

      .cls-17 {
        fill: #2b454e;
      }

      .cls-18 {
        fill: #ff9090;
      }

      .cls-19 {
        fill: #f0f0f0;
      }

      .cls-16 {
        opacity: .28;
      }

      .cls-20 {
        fill: #f0f0f0;
      }

      .cls-21 {
        fill: #40c66d;
      }

      .cls-21, .cls-10, .cls-3 {
        opacity: .3;
      }

      .cls-22 {
        fill: #a7e7f9;
      }

      .cls-23 {
        fill: #c76668;
      }

      .cls-24 {
        fill: #e1e1e1;
      }

      .cls-25 {
        fill: #e2e2e2;
      }

      .cls-26 {
        fill: #f9ebe1;
      }

      .cls-27 {
        fill: #1a2e35;
      }

      .cls-28 {
        fill: #79b2c6;
      }

      .cls-29 {
        fill: #3c3764;
      }

      .cls-30 {
        fill: #42424a;
      }

      .cls-31, .cls-32 {
        fill: #291a35;
      }

      .cls-33 {
        fill: #4e3764;
      }

      .cls-34 {
        fill: none;
        stroke: #3740dd;
        stroke-width: 1.39px;
      }

      .cls-34, .cls-32 {
        stroke-miterlimit: 10;
      }

      .cls-35 {
        fill: #f7d5d5;
      }

      .cls-36 {
        opacity: .15;
      }

      .cls-37 {
        fill: #c87084;
      }

      .cls-4, .cls-11 {
        opacity: .4;
      }

      .cls-5, .cls-38 {
        opacity: .1;
      }

      .cls-39 {
        fill: #ececec;
      }

      .cls-40 {
        fill: #e2b3b3;
      }

      .cls-41 {
        fill: #d26a63;
      }

      .cls-42 {
        fill: #46495f;
      }

      .cls-43 {
        fill: #f5f5f5;
      }

      .cls-44 {
        fill: #f5f5f5;
      }

      .cls-45 {
        fill: #c66150;
      }

      .cls-6 {
        opacity: .6;
      }

      .cls-12 {
        opacity: .5;
      }

      .cls-46 {
        fill: #2f2b4e;
      }

      .cls-47 {
        fill: #c6c6c6;
      }

      .cls-48 {
        fill: #ececec;
      }

      .cls-49 {
        fill: #fafafa;
      }

      .cls-50 {
        fill: #ffaaa8;
      }

      .cls-51 {
        fill: #2f6572;
      }

      .cls-32 {
        stroke: #291a35;
        stroke-width: .35px;
      }

      .cls-52 {
        fill: #59b6c6;
      }

      .cls-53 {
        fill: #e8e8e8;
      }

      .cls-54 {
        fill: #e1e1e1;
      }
    </style>
  </defs>
  <path class="cls-26" d="M386.45,26.8c-31.09-16.71-57.92,10.99-60.75,20.11-7.67,24.77-43.53,23.79-72.29,2.67-8.62-6.33-6.75-35.45-35.85-31.34C182.41,23.2,83.15-1.45,66.79,26.8c-20.94,36.14,22.8,45.01,18.72,67.18-6.99,37.96-44.83,21.68-57.59,63.47-17.3,56.61,12.75,117.14,72.09,126.59,15.76,2.51,44.7-3.83,59.15-7.69,30.38-8.12,51.76-7.99,78.11,9.17,12.53,8.16,27,3.63,42.77,6.14,45.14,7.19,92.79.53,113.61-36.53,9.15-16.3,2.51-31.42,17.83-47.66,15.83-16.78,16.4-47.3,2.04-67.4-45.38-63.56,35.74-79.51-27.06-113.27ZM229.27,153.6c1.01,5.77,1.54,11.65,1.55,17.62-1.01-5.76-1.54-11.65-1.55-17.62Z"/>
  <g>
    <path class="cls-28" d="M258.47,23.04c0,1.71-1.38,3.09-3.09,3.09s-3.09-1.38-3.09-3.09,1.38-3.09,3.09-3.09,3.09,1.38,3.09,3.09Z"/>
    <circle class="cls-28" cx="167.68" cy="43.17" r="1.17"/>
    <circle class="cls-28" cx="206.75" cy="16.75" r="1.69"/>
    <path class="cls-28" d="M218.52,66.3c0,.93-.76,1.69-1.69,1.69s-1.69-.76-1.69-1.69.76-1.69,1.69-1.69,1.69.76,1.69,1.69Z"/>
    <circle class="cls-28" cx="86" cy="54.7" r="1.17"/>
    <path class="cls-28" d="M24.65,190.26c0,1.46-1.18,2.64-2.64,2.64s-2.64-1.18-2.64-2.64,1.18-2.64,2.64-2.64,2.64,1.18,2.64,2.64Z"/>
    <path class="cls-28" d="M133.27,50.73c0,1.42-1.15,2.57-2.57,2.57s-2.57-1.15-2.57-2.57,1.15-2.57,2.57-2.57,2.57,1.15,2.57,2.57Z"/>
    <circle class="cls-28" cx="349.97" cy="222.61" r="1.45"/>
    <path class="cls-28" d="M371.33,152.19c0,1-.81,1.82-1.82,1.82s-1.82-.81-1.82-1.82.81-1.82,1.82-1.82,1.82.81,1.82,1.82Z"/>
    <path class="cls-28" d="M22.96,224.96c0,1.24-1,2.24-2.24,2.24s-2.24-1-2.24-2.24,1-2.24,2.24-2.24,2.24,1,2.24,2.24Z"/>
    <path class="cls-28" d="M10.79,281.9c0,1.24-1,2.24-2.24,2.24s-2.24-1-2.24-2.24,1-2.24,2.24-2.24,2.24,1,2.24,2.24Z"/>
    <path class="cls-28" d="M396.83,181.62c0,1.24-1,2.24-2.24,2.24s-2.24-1-2.24-2.24,1-2.24,2.24-2.24,2.24,1,2.24,2.24Z"/>
    <path class="cls-28" d="M433.25,254.07c0,1.24-1,2.24-2.24,2.24s-2.24-1-2.24-2.24,1-2.24,2.24-2.24,2.24,1,2.24,2.24Z"/>
    <path class="cls-28" d="M171.21,231.9c0,.68-.55,1.23-1.23,1.23s-1.23-.55-1.23-1.23.55-1.23,1.23-1.23,1.23.55,1.23,1.23Z"/>
    <circle class="cls-28" cx="38.92" cy="92.66" r="2.29"/>
    <path class="cls-28" d="M370.79,37.21c0,1.71-1.38,3.09-3.09,3.09s-3.09-1.38-3.09-3.09,1.38-3.09,3.09-3.09,3.09,1.38,3.09,3.09Z"/>
    <circle class="cls-28" cx="462.84" cy="168.72" r="2.14"/>
    <circle class="cls-28" cx="417.21" cy="272.97" r="1.32"/>
    <path class="cls-28" d="M450.42,228.89c0,1.71-1.38,3.09-3.09,3.09s-3.09-1.38-3.09-3.09,1.38-3.09,3.09-3.09,3.09,1.38,3.09,3.09Z"/>
    <circle class="cls-28" cx="36.1" cy="256.29" r="1.96"/>
    <polygon class="cls-28" points="248.54 238.91 245.17 238.91 245.17 235.54 240.83 235.54 240.83 238.91 237.46 238.91 237.46 243.25 240.83 243.25 240.83 246.62 245.17 246.62 245.17 243.25 248.54 243.25 248.54 238.91"/>
    <polygon class="cls-28" points="413.33 162.99 409.96 162.99 409.96 159.62 405.62 159.62 405.62 162.99 402.25 162.99 402.25 167.34 405.62 167.34 405.62 170.71 409.96 170.71 409.96 167.34 413.33 167.34 413.33 162.99"/>
    <polygon class="cls-28" points="203.25 60.68 199.88 60.68 199.88 57.31 195.53 57.31 195.53 60.68 192.16 60.68 192.16 65.03 195.53 65.03 195.53 68.4 199.88 68.4 199.88 65.03 203.25 65.03 203.25 60.68"/>
    <polygon class="cls-28" points="298.21 29.5 294.84 29.5 294.84 26.12 290.49 26.12 290.49 29.5 287.12 29.5 287.12 33.84 290.49 33.84 290.49 37.21 294.84 37.21 294.84 33.84 298.21 33.84 298.21 29.5"/>
    <polygon class="cls-28" points="74.56 88.43 67.81 88.43 67.81 81.68 59.12 81.68 59.12 88.43 52.37 88.43 52.37 97.12 59.12 97.12 59.12 103.87 67.81 103.87 67.81 97.12 74.56 97.12 74.56 88.43"/>
    <polygon class="cls-28" points="121.43 237.4 115.35 237.4 115.35 231.32 107.53 231.32 107.53 237.4 101.45 237.4 101.45 245.23 107.53 245.23 107.53 251.31 115.35 251.31 115.35 245.23 121.43 245.23 121.43 237.4"/>
    <polygon class="cls-28" points="183.79 258.37 181.71 258.37 181.71 256.29 179.04 256.29 179.04 258.37 176.96 258.37 176.96 261.05 179.04 261.05 179.04 263.13 181.71 263.13 181.71 261.05 183.79 261.05 183.79 258.37"/>
  </g>
  <g>
    <path id="Floor" class="cls-53" d="M171.31,189.13c-46.71,26.97-46.71,70.7,0,97.67,46.71,26.97,122.45,26.97,169.17,0,46.71-26.97,46.71-70.7,0-97.67-46.71-26.97-122.45-26.97-169.17,0Z"/>
    <g id="Plants">
      <g>
        <path class="cls-14" d="M356.35,257.17l12.41,7.16c-.17-4.43-.55-11.02.06-15.45,3.75-27.12,14.31-36.06,19.34-49.26,5.29-13.9-1.16-18.37-9.54-15.87-7.47,2.23-18.29,13.29-21.69,33.53-2.26,13.46-1.86,28.09-.57,39.89Z"/>
        <path class="cls-15" d="M356.35,257.17l12.41,7.16c-.17-4.43-.55-11.02.06-15.45,3.75-27.12,14.31-36.06,19.34-49.26,5.29-13.9-1.16-18.37-9.54-15.87-7.47,2.23-18.29,13.29-21.69,33.53-2.26,13.46-1.86,28.09-.57,39.89Z"/>
        <path class="cls-2" d="M362.92,260.97l1.24.72c-4.44-31.62,6.37-59.04,17.04-70.36.21-.22.2-.56-.02-.77-.23-.21-.57-.2-.77.02-10.66,11.33-21.47,38.94-17.49,70.39Z"/>
      </g>
      <g>
        <path class="cls-15" d="M365.27,262.32l6.98,4.03h0c3.71-10.93,7.52-15.31,12.26-22.5,4.31-6.54,9.33-10.59,11.99-15.19,2.36-4.07,4.13-9.19.63-12.28-5.58-4.93-12.86.29-17.87,5.92-4.33,4.87-13.03,17.84-13.99,40.02Z"/>
        <path class="cls-21" d="M365.27,262.32l6.98,4.03h0c3.71-10.93,7.52-15.31,12.26-22.5,4.31-6.54,9.33-10.59,11.99-15.19,2.36-4.07,4.13-9.19.63-12.28-5.58-4.93-12.86.29-17.87,5.92-4.33,4.87-13.03,17.84-13.99,40.02Z"/>
        <path class="cls-2" d="M368.13,263.98l1.02.59c2.93-17.29,14.67-37.29,21.97-42.01.26-.17.33-.51.16-.77-.17-.26-.51-.34-.77-.17-7.55,4.9-19.27,24.81-22.38,42.36Z"/>
      </g>
    </g>
    <path id="Shadow" class="cls-47" d="M360.9,255.74c17.98,10.38,17.98,27.21,0,37.59-17.98,10.38-47.12,10.38-65.1,0-17.98-10.38-17.98-27.21,0-37.59,17.98-10.38,47.12-10.38,65.1,0Z"/>
    <path id="Shadow-2" data-name="Shadow" class="cls-47" d="M217.73,242.15c-10.17-5.81-10.17-15.24,0-21.06,10.17-5.81,26.66-5.81,36.83,0,10.17,5.81,10.17,15.24,0,21.06-10.17,5.81-26.66,5.81-36.83,0Z"/>
    <path id="Shadow-3" data-name="Shadow" class="cls-47" d="M201.61,242.33c10.07,5.82,10.07,15.25,0,21.06-10.07,5.82-26.41,5.82-36.48,0s-10.07-15.25,0-21.06c10.07-5.82,26.41-5.82,36.48,0Z"/>
    <g id="Nasal_Spray" data-name="Nasal Spray">
      <g>
        <path class="cls-41" d="M249.51,179.32c-.8-.46-1.65-.87-2.55-1.23-1.66-.66-2.78-2.22-2.78-4.01v-8.61h-15.97v8.61c0,1.78-1.12,3.35-2.78,4.01-.9.36-1.75.77-2.55,1.23-3.68,2.12-5.51,4.9-5.51,7.69v42.91c0,2.78,1.84,5.56,5.51,7.69,7.35,4.24,19.27,4.24,26.62,0,3.68-2.12,5.51-4.9,5.51-7.69v-42.91c0-2.78-1.84-5.56-5.51-7.69Z"/>
        <path class="cls-44" d="M255.02,188.82v26.97c-.23,2.61-2.06,5.17-5.51,7.16-3.97,2.29-9.28,3.34-14.48,3.16v-26.97c2.33.08,4.7-.09,6.94-.5,2.76-.5,5.36-1.39,7.54-2.65,3.45-1.98,5.28-4.55,5.51-7.16Z"/>
        <path class="cls-24" d="M249.51,216.35c-1.93,1.12-4.18,1.94-6.59,2.46v2.01c2.4-.53,4.66-1.35,6.59-2.46,3.45-1.98,5.28-4.55,5.51-7.16v-2.01c-.23,2.61-2.06,5.17-5.51,7.16Z"/>
        <path class="cls-24" d="M249.51,211.59c-1.93,1.12-4.18,1.94-6.59,2.46v2.01c2.4-.53,4.66-1.35,6.59-2.46,3.45-1.98,5.28-4.55,5.51-7.16v-2.01c-.23,2.61-2.06,5.17-5.51,7.16Z"/>
        <path class="cls-24" d="M249.51,206.83c-1.93,1.12-4.18,1.94-6.59,2.46v2.01c2.4-.53,4.66-1.35,6.59-2.46,3.45-1.98,5.28-4.55,5.51-7.16v-2.01c-.23,2.61-2.06,5.17-5.51,7.16Z"/>
        <path class="cls-24" d="M249.51,202.06c-1.93,1.12-4.18,1.94-6.59,2.46v2.01c2.4-.53,4.66-1.35,6.59-2.46,3.45-1.98,5.28-4.55,5.51-7.16v-2.01c-.23,2.61-2.06,5.17-5.51,7.16Z"/>
        <path class="cls-7" d="M223.44,230.03v-41.89c0-2.31.49-4.06,3.25-5.46,5.52-2.8,6.22-5.06,6.22-7.89v-9.31h-4.71v8.61c0,1.78-1.12,3.35-2.78,4.01-.9.36-1.75.77-2.55,1.23-3.68,2.12-5.51,4.9-5.51,7.69v42.91c0,2.78,1.84,5.56,5.51,7.69,5.29,3.05,12.94,3.9,19.55,2.56-15.3,1.05-19-5.44-19-10.13Z"/>
        <path class="cls-4" d="M249.51,179.32c-.8-.46-1.65-.87-2.55-1.23-1.66-.66-2.78-2.22-2.78-4.01v-8.61h-1.75v10.26c0,1.51,1.3,2.94,2.8,3.76,1.5.82,6.28,2.9,7.44,5.17,1.1,2.16.74,6.45.74,11.55v32.06c0,3.31-1.38,8.09-7.52,10.97,1.28-.45,2.5-.98,3.6-1.61,3.68-2.12,5.51-4.79,5.51-7.72v-42.91c0-2.78-1.84-5.56-5.51-7.69Z"/>
      </g>
      <g>
        <path class="cls-48" d="M249.51,174.63v3.29c.01,1.96-1.29,3.94-3.9,5.45-5.19,3-13.61,3-18.82,0-1.29-.75-2.27-1.61-2.92-2.54-.65-.92-.97-1.9-.97-2.88v-3.35c0-.3.03-.59.1-.89.32-1.67,1.59-3.28,3.78-4.55.06-.04.13-.08.19-.1,5.22-2.89,13.5-2.85,18.62.1,2.2,1.27,3.47,2.88,3.8,4.53.08.31.1.62.1.93Z"/>
        <path class="cls-24" d="M237.3,182.28v-4.9c0-1.94.49-4.88-2.91-4.88-2.94,0-5.57-1.23-7.4-3.44-.06.03-.13.06-.19.1-2.2,1.27-3.46,2.88-3.78,4.55-.08.3-.1.59-.1.89v3.35c0,.98.32,1.96.97,2.88.65.93,1.63,1.8,2.92,2.54,5.21,3,13.63,3,18.82,0-3.67,1.45-8.32.75-8.32-1.1Z"/>
        <path class="cls-29" d="M226.8,180.04c-5.2-3-5.2-7.86,0-10.86,5.2-3,13.62-3,18.81,0,5.2,3,5.2,7.86,0,10.86-5.2,3-13.62,3-18.81,0Z"/>
        <path class="cls-48" d="M249.51,168.61v4.17c0,.31-.03.62-.1.93-.32,1.65-1.6,3.27-3.8,4.53-2.32,1.34-5.3,2.08-8.32,2.21-3.76.18-7.62-.56-10.5-2.22-1.29-.75-2.26-1.6-2.92-2.53-.45-.63-.74-1.3-.87-1.98-.08-.3-.1-.61-.1-.9v-4.23c0-1.98,1.29-3.94,3.89-5.44.23-.13.46-.26.71-.37,5.23-2.62,13.15-2.49,18.11.37,2.61,1.51,3.91,3.49,3.9,5.46Z"/>
        <path class="cls-49" d="M226.8,174.01c-5.2-3-5.2-7.86,0-10.86,5.2-3,13.62-3,18.81,0,5.2,3,5.2,7.86,0,10.86-5.2,3-13.62,3-18.81,0Z"/>
        <path class="cls-24" d="M237.32,176.23c-.02.38-.03.78-.03,1.16v3.07c-3.75.17-7.61-.56-10.5-2.23-1.28-.75-2.26-1.6-2.91-2.53-.46-.63-.73-1.3-.87-1.97-.08-.31-.11-.61-.11-.92v-4.23c0,1.95,1.31,3.94,3.91,5.43,2.87,1.66,6.74,2.4,10.51,2.21Z"/>
      </g>
      <g>
        <path class="cls-48" d="M246.65,160.2v7.32c.01,1.54-1.01,3.09-3.06,4.28-4.08,2.35-10.69,2.35-14.77,0-1.01-.59-1.78-1.27-2.29-2-.51-.72-.76-1.49-.76-2.26v-7.41c0-.23.02-.47.08-.7.25-1.31,1.25-2.53,2.97-3.52.05-.03.1-.06.15-.08,4.1-2.27,10.6-2.24,14.62.08,1.72.99,2.73,2.26,2.98,3.56.06.24.08.49.08.73Z"/>
        <path class="cls-48" d="M246.65,160.2v3.27c0,.24-.02.49-.08.73-.25,1.3-1.26,2.57-2.98,3.56-1.83,1.05-4.16,1.63-6.53,1.73-2.95.14-5.98-.44-8.24-1.74-1.01-.59-1.77-1.26-2.29-1.99-.35-.5-.58-1.02-.68-1.55-.06-.23-.08-.48-.08-.71v-3.32c0-1.55,1.01-3.09,3.05-4.27.18-.1.37-.2.56-.29,4.11-2.06,10.32-1.96,14.22.29,2.05,1.19,3.07,2.74,3.06,4.29Z"/>
        <path class="cls-24" d="M237.06,170.94v-3.84c0-1.52-.66-2.02-2.28-3.83-1.54-1.72-4.37-5.7-5.81-7.43-.05.02-.1.05-.15.08-1.72.99-2.72,2.26-2.97,3.57-.06.23-.08.47-.08.7v7.36c0,.77.25,1.54.76,2.26.51.73,1.28,1.41,2.29,2,4.09,2.35,10.7,2.35,14.77,0-2.88,1.14-6.53.59-6.53-.86Z"/>
        <path class="cls-38" d="M243.59,155.91c-4.03-2.32-10.52-2.35-14.62-.08-.05.02-.1.05-.15.08-1.72.99-2.72,2.21-2.97,3.52-.06.23-.08.47-.08.7v7.1c.53.56,1.19,1.08,2,1.55,4.67,2.69,12.21,2.69,16.87,0,.82-.47,1.48-1,2.01-1.56v-7.02c0-.24-.02-.49-.08-.73-.25-1.3-1.26-2.57-2.98-3.56Z"/>
        <path class="cls-49" d="M228.82,164.44c-4.08-2.36-4.08-6.17,0-8.53,4.08-2.35,10.69-2.35,14.77,0,4.08,2.35,4.08,6.17,0,8.53-4.08,2.35-10.69,2.35-14.77,0Z"/>
      </g>
      <g>
        <path class="cls-48" d="M248.14,159.46v2.95c.01,1.76-1.16,3.53-3.5,4.89-4.65,2.69-12.2,2.69-16.87,0-1.16-.67-2.04-1.45-2.62-2.28-.58-.82-.87-1.7-.87-2.58v-3c0-.27.02-.53.09-.8.29-1.49,1.42-2.94,3.39-4.08.06-.03.12-.07.17-.09,4.68-2.59,12.1-2.56,16.7.09,1.97,1.13,3.11,2.58,3.4,4.06.07.28.09.56.09.83Z"/>
        <path class="cls-24" d="M237.18,166.31v-4.39c0-1.74.44-4.38-2.6-4.38-2.64,0-4.99-1.1-6.63-3.08-.06.02-.12.06-.17.09-1.97,1.13-3.1,2.58-3.39,4.08-.07.27-.09.53-.09.8v3c0,.88.29,1.76.87,2.58.58.83,1.46,1.61,2.62,2.28,4.67,2.69,12.22,2.69,16.87,0-3.29,1.3-7.46.67-7.46-.98Z"/>
        <path class="cls-29" d="M227.78,164.3c-4.66-2.69-4.66-7.05,0-9.74,4.66-2.69,12.21-2.69,16.87,0,4.66,2.69,4.66,7.05,0,9.74-4.66,2.69-12.21,2.69-16.87,0Z"/>
        <path class="cls-48" d="M248.14,154.05v3.74c0,.28-.02.56-.09.83-.29,1.48-1.44,2.93-3.4,4.06-2.08,1.2-4.75,1.86-7.46,1.98-3.37.16-6.83-.5-9.41-1.99-1.16-.67-2.03-1.44-2.62-2.27-.41-.57-.66-1.17-.78-1.77-.07-.27-.09-.54-.09-.81v-3.79c0-1.77,1.16-3.53,3.49-4.87.21-.12.42-.23.64-.34,4.69-2.35,11.79-2.23,16.23.34,2.34,1.36,3.51,3.13,3.5,4.9Z"/>
        <path class="cls-49" d="M227.78,158.89c-4.66-2.69-4.66-7.05,0-9.74,4.66-2.69,12.21-2.69,16.87,0,4.66,2.69,4.66,7.05,0,9.74-4.66,2.69-12.21,2.69-16.87,0Z"/>
        <path class="cls-24" d="M237.21,160.88c-.01.34-.03.7-.03,1.04v2.75c-3.36.15-6.83-.51-9.41-2-1.15-.67-2.02-1.44-2.61-2.27-.41-.56-.66-1.16-.78-1.76-.07-.27-.1-.55-.1-.82v-3.79c0,1.75,1.18,3.53,3.5,4.87,2.57,1.49,6.05,2.15,9.42,1.98Z"/>
      </g>
      <g>
        <g>
          <path class="cls-48" d="M257.6,156.43c0-.15-.07-.31-.22-.46l-7.66-7.65c-1.53-1.53-3.76-2.82-6.41-3.7l-13.24-4.42c-.59-.2-1.28-.17-1.71.08l-10.95,6.32c-.24.14-.36.32-.36.52,0,.15,0,1.67,0,1.87,0,.15.07.31.22.46l7.66,7.65c1.53,1.53,3.76,2.82,6.41,3.7l13.24,4.42c.59.2,1.28.17,1.71-.08l10.95-6.32c.24-.14.36-.32.36-.52v-1.87Z"/>
          <path class="cls-38" d="M257.6,156.43c0-.15-.07-.31-.22-.46l-7.66-7.65c-1.53-1.53-3.76-2.82-6.41-3.7l-13.24-4.42c-.59-.2-1.28-.17-1.71.08l-10.95,6.32c-.24.14-.36.32-.36.52,0,.15,0,1.67,0,1.87,0,.15.07.31.22.46l7.66,7.65c1.53,1.53,3.76,2.82,6.41,3.7l13.24,4.42c.59.2,1.28.17,1.71-.08l10.95-6.32c.24-.14.36-.32.36-.52v-1.87Z"/>
          <path class="cls-38" d="M245.33,145.42c-.64-.29-1.32-.56-2.03-.8l-13.24-4.42c-.59-.2-1.28-.17-1.71.08l-10.95,6.32c-.24.14-.36.32-.36.52,0,.15,0,1.67,0,1.87,0,.15.07.31.22.46l7.66,7.65c1.53,1.53,3.76,2.82,6.41,3.7l13.24,4.42c.24.08.5.11.76.12v-19.92Z"/>
          <path class="cls-44" d="M231.34,158.93l13.24,4.42c.59.2,1.28.17,1.71-.08l10.95-6.32c.24-.14.36-.32.36-.52,0-.15-.07-.31-.22-.46l-7.66-7.65c-1.53-1.53-3.76-2.82-6.41-3.7l-13.24-4.42c-.59-.2-1.28-.17-1.71.08l-10.95,6.32c-.24.14-.36.32-.36.52,0,.15.07.31.22.46l7.66,7.65c1.53,1.53,3.76,2.82,6.41,3.7Z"/>
        </g>
        <g>
          <path class="cls-48" d="M246.3,145.46v5.74c0,.24-.02.47-.08.71-.24,1.25-1.21,2.48-2.88,3.44-1.76,1.02-4.02,1.58-6.31,1.68-2.85.14-5.78-.42-7.97-1.69-.98-.57-1.71-1.22-2.21-1.92-.34-.48-.56-.99-.66-1.5-.06-.23-.08-.46-.08-.69v-5.79c0-1.5.98-2.99,2.95-4.13.18-.1.35-.2.54-.28,3.97-1.99,9.98-1.89,13.74.28,1.98,1.15,2.97,2.65,2.96,4.15Z"/>
          <path class="cls-49" d="M229.07,149.56c-3.94-2.28-3.94-5.97,0-8.24,3.94-2.28,10.33-2.28,14.27,0,3.94,2.28,3.94,5.97,0,8.24-3.94,2.28-10.33,2.28-14.27,0Z"/>
          <path class="cls-24" d="M237.05,151.24c-.01.29-.02.59-.02.88v4.91c-2.85.13-5.78-.43-7.96-1.69-.97-.57-1.71-1.22-2.21-1.92-.35-.47-.56-.98-.66-1.49-.06-.23-.08-.46-.08-.69v-5.79c0,1.48,1,2.99,2.96,4.12,2.18,1.26,5.12,1.82,7.98,1.68Z"/>
        </g>
        <g>
          <g>
            <path class="cls-49" d="M236.21,150.91c-2.63,0-5.11-.59-6.96-1.66-1.88-1.09-2.86-2.51-2.76-4.02l.02-.33c.37-1.12,1.18-4.14,3.38-12.33l3.38-12.62.03-.07c.45-1.22,1.62-2.04,2.91-2.04s2.46.82,2.91,2.05l.06.16,3.36,12.53c2.21,8.24,3.02,11.25,3.38,12.35v.3c.11,1.5-.87,2.93-2.75,4.02-1.85,1.07-4.33,1.66-6.96,1.66Z"/>
            <path class="cls-48" d="M236.21,118.2c1.15,0,2.18.73,2.58,1.81l.04.1,3.36,12.56,2.34,8.75.77,2.88c.11.41.19.72.27.95h0c.09,1.37-.83,2.68-2.58,3.69-1.8,1.04-4.21,1.61-6.78,1.61s-4.98-.57-6.78-1.61c-1.76-1.02-2.68-2.32-2.59-3.69h0c.07-.24.15-.55.26-.96l.77-2.88,2.35-8.75,3.37-12.57.04-.1c.4-1.08,1.44-1.81,2.58-1.81M236.21,117.49c-1.49,0-2.75.95-3.24,2.27h-.01s-6.82,25.45-6.83,25.45h0c-.1,1.57.87,3.15,2.94,4.35,1.97,1.14,4.55,1.71,7.14,1.71s5.17-.57,7.14-1.71c2.07-1.2,3.04-2.78,2.94-4.35h0s-6.82-25.44-6.82-25.44h-.02c-.49-1.33-1.75-2.28-3.25-2.28h0Z"/>
          </g>
          <path class="cls-48" d="M237.01,151.22c-.39-.22-5.25-3.18-3.96-13.09,1.34-10.32,3.15-16.69,3.15-19.39v-1.25c-1.49,0-2.75.95-3.23,2.27h-.01s-6.82,25.45-6.83,25.45h0c-.1,1.57.87,3.15,2.94,4.35,2.18,1.26,5.1,1.79,7.94,1.66Z"/>
        </g>
        <g>
          <g>
            <path class="cls-48" d="M238.36,110.24c0-1.19-.96-2.15-2.15-2.15s-2.15.96-2.15,2.15h0v9.36s0,.1.02.15c.02.11.07.22.14.32.11.15.26.29.47.41.47.27,1.09.39,1.7.36.49-.02.97-.14,1.34-.36.35-.2.56-.47.61-.73.01-.05.02-.1.02-.15v-9.35s0,0,0,0c0,0,0,0,0,0Z"/>
            <path class="cls-24" d="M236.39,111.47c0,.06,0,.13,0,.19v9.17c-.61.03-1.23-.09-1.7-.36-.21-.12-.36-.26-.47-.41-.07-.1-.12-.21-.14-.32-.01-.05-.02-.1-.02-.15v-9.36c0,.32.21.64.63.88.46.27,1.09.39,1.7.36Z"/>
          </g>
          <path class="cls-29" d="M236.72,108.67c.28.16.28.43,0,.59-.28.16-.74.16-1.02,0-.28-.16-.28-.43,0-.59.28-.16.74-.16,1.02,0Z"/>
          <path class="cls-13" d="M235.7,109.16s-.03.03-.05.05c.02.02.03.03.05.05.28.16.74.16,1.02,0,.02-.01.03-.03.05-.05-.02-.02-.03-.03-.05-.05-.28-.16-.74-.16-1.02,0Z"/>
        </g>
      </g>
    </g>
    <g id="Ear_Drops" data-name="Ear Drops">
      <g>
        <path class="cls-41" d="M196.83,204.98c-.8-.46-1.65-.87-2.54-1.22-1.65-.66-2.77-2.22-2.77-4v-8.58h-15.92v8.58c0,1.78-1.12,3.34-2.77,4-.89.36-1.74.76-2.54,1.22-3.66,2.12-5.5,4.89-5.5,7.66v37.76c0,2.77,1.83,5.55,5.5,7.66,7.33,4.23,19.21,4.23,26.54,0,3.66-2.12,5.5-4.89,5.5-7.66v-37.77c0-2.77-1.83-5.55-5.5-7.66Z"/>
        <path class="cls-44" d="M202.32,214.45v26.88c-.23,2.6-2.05,5.16-5.49,7.13-3.95,2.28-9.25,3.33-14.43,3.15v-26.88c2.33.08,4.68-.09,6.92-.5,2.75-.5,5.34-1.38,7.51-2.65,3.44-1.98,5.26-4.53,5.49-7.13Z"/>
        <path class="cls-24" d="M196.83,241.9c-1.92,1.12-4.17,1.94-6.57,2.46v2.01c2.4-.53,4.64-1.34,6.57-2.46,3.44-1.98,5.26-4.53,5.49-7.13v-2.01c-.23,2.6-2.05,5.16-5.49,7.13Z"/>
        <path class="cls-24" d="M196.83,237.15c-1.92,1.12-4.17,1.93-6.57,2.46v2.01c2.4-.53,4.64-1.34,6.57-2.46,3.44-1.98,5.26-4.53,5.49-7.13v-2.01c-.23,2.6-2.05,5.16-5.49,7.13Z"/>
        <path class="cls-24" d="M196.83,232.4c-1.92,1.12-4.17,1.93-6.57,2.46v2.01c2.4-.53,4.64-1.34,6.57-2.46,3.44-1.98,5.26-4.53,5.49-7.13v-2.01c-.23,2.6-2.05,5.16-5.49,7.13Z"/>
        <path class="cls-24" d="M196.83,227.65c-1.92,1.12-4.17,1.93-6.57,2.46v2.01c2.4-.53,4.64-1.34,6.57-2.46,3.44-1.98,5.26-4.53,5.49-7.13v-2.01c-.23,2.6-2.05,5.16-5.49,7.13Z"/>
        <path class="cls-7" d="M170.84,250.53v-36.75c0-2.3.49-4.05,3.24-5.45,5.5-2.79,6.2-5.04,6.2-7.86v-9.28h-4.69v8.58c0,1.78-1.12,3.34-2.77,4-.89.36-1.74.76-2.54,1.22-3.66,2.12-5.5,4.89-5.5,7.66v37.76c0,2.77,1.83,5.55,5.5,7.66,5.27,3.04,12.9,3.89,19.49,2.55-15.25,1.05-18.94-5.42-18.94-10.1Z"/>
        <path class="cls-4" d="M196.83,204.98c-.8-.46-1.65-.87-2.54-1.22-1.65-.66-2.77-2.22-2.77-4v-8.58h-1.74v10.23c0,1.5,1.3,2.93,2.79,3.75,1.5.82,6.26,2.89,7.42,5.15,1.1,2.15.74,6.43.74,11.52v26.95c0,3.3-1.37,8.07-7.49,10.93,1.27-.44,2.49-.97,3.59-1.61,3.66-2.12,5.49-4.78,5.49-7.69v-37.77c0-2.77-1.83-5.55-5.5-7.66Z"/>
      </g>
      <g>
        <path class="cls-48" d="M196.83,200.31v3.28c.01,1.96-1.29,3.93-3.89,5.43-5.18,2.99-13.57,2.99-18.76,0-1.29-.75-2.27-1.61-2.91-2.54-.64-.91-.97-1.89-.97-2.87v-3.33c0-.3.03-.59.1-.89.32-1.66,1.58-3.27,3.77-4.53.06-.04.13-.08.19-.1,5.2-2.88,13.45-2.85,18.57.1,2.19,1.26,3.46,2.87,3.79,4.52.08.31.1.62.1.93Z"/>
        <path class="cls-24" d="M184.65,207.93v-4.88c0-1.93.49-4.87-2.9-4.87-2.94,0-5.55-1.22-7.38-3.42-.06.03-.13.06-.19.1-2.19,1.26-3.45,2.87-3.77,4.53-.08.3-.1.59-.1.89v3.33c0,.98.32,1.96.97,2.87.64.93,1.62,1.79,2.91,2.54,5.19,2.99,13.58,2.99,18.76,0-3.66,1.44-8.29.75-8.29-1.09Z"/>
        <path class="cls-29" d="M174.19,205.7c-5.18-2.99-5.18-7.84,0-10.83,5.18-2.99,13.58-2.99,18.75,0,5.18,2.99,5.18,7.84,0,10.83-5.18,2.99-13.58,2.99-18.75,0Z"/>
        <path class="cls-48" d="M196.83,194.3v4.15c0,.31-.03.62-.1.93-.32,1.65-1.6,3.26-3.79,4.52-2.32,1.34-5.28,2.07-8.29,2.2-3.75.18-7.6-.55-10.47-2.21-1.29-.75-2.25-1.6-2.91-2.52-.45-.63-.73-1.3-.86-1.97-.08-.3-.1-.61-.1-.9v-4.22c0-1.97,1.29-3.93,3.88-5.42.23-.13.46-.26.71-.37,5.21-2.61,13.11-2.48,18.05.37,2.6,1.51,3.9,3.48,3.89,5.45Z"/>
        <g>
          <path class="cls-49" d="M183.57,201.61c-3.49,0-6.76-.78-9.22-2.2-2.4-1.39-3.72-3.21-3.72-5.14s1.32-3.75,3.72-5.13c2.46-1.42,5.73-2.2,9.22-2.2s6.76.78,9.22,2.2c2.4,1.39,3.72,3.21,3.72,5.14s-1.32,3.75-3.72,5.14c-2.46,1.42-5.73,2.2-9.22,2.2Z"/>
          <path class="cls-48" d="M183.57,187.26c3.43,0,6.65.77,9.06,2.16,2.3,1.33,3.56,3.05,3.56,4.86s-1.27,3.53-3.56,4.86c-2.41,1.39-5.62,2.16-9.06,2.16s-6.65-.77-9.06-2.16c-2.3-1.33-3.56-3.05-3.56-4.86,0-1.81,1.27-3.53,3.56-4.86,2.41-1.39,5.62-2.16,9.06-2.16M183.57,186.61c-3.39,0-6.79.75-9.38,2.24-5.18,2.99-5.18,7.84,0,10.83,2.59,1.49,5.98,2.24,9.38,2.24s6.79-.75,9.38-2.24c5.18-2.99,5.18-7.84,0-10.83-2.59-1.5-5.98-2.24-9.38-2.24h0Z"/>
        </g>
        <path class="cls-24" d="M184.68,201.9c-.02.38-.03.78-.03,1.16v3.06c-3.74.17-7.59-.56-10.46-2.22-1.28-.75-2.25-1.6-2.91-2.52-.46-.62-.73-1.29-.87-1.96-.08-.3-.11-.61-.11-.91v-4.21c0,1.95,1.31,3.92,3.89,5.41,2.86,1.66,6.72,2.39,10.48,2.21Z"/>
      </g>
      <g>
        <path class="cls-29" d="M183.57,167.02c-3.91,0-7.09,3.17-7.09,7.09v18.18h0c0,1.05.69,2.09,2.08,2.89,2.77,1.6,7.25,1.6,10.02,0,1.38-.8,2.08-1.85,2.08-2.89h0v-18.18c0-3.91-3.17-7.09-7.09-7.09Z"/>
        <path class="cls-46" d="M187.65,168.31h0c-1.15-.81-2.56-1.3-4.08-1.3-3.91,0-7.09,3.17-7.09,7.09v18.18h0c0,1.05.69,2.09,2.08,2.89,2.77,1.6,7.25,1.6,10.02,0,.81-.47,1.35-1.02,1.69-1.6-.87.59-3.15,1.79-5.95.72-2.88-1.1-3.71-3.86-3.71-7.68v-11.84c0-4.72,3.82-8.65,7.03-6.46Z"/>
        <path class="cls-3" d="M185.89,184.4h0c-1.02,0-1.84-.83-1.84-1.84v-10.09c0-1.02.83-1.84,1.84-1.84h0c1.02,0,1.84.83,1.84,1.84v10.09c0,1.02-.83,1.84-1.84,1.84Z"/>
        <path class="cls-3" d="M187.73,188.45c0,1.02-.83,1.84-1.84,1.84s-1.84-.83-1.84-1.84.83-1.84,1.84-1.84,1.84.83,1.84,1.84Z"/>
      </g>
    </g>
    <g id="Ear">
      <g id="Speech_Bubble" data-name="Speech Bubble">
        <path class="cls-2" d="M97.7,202.69c7.58.02,14.47,2.99,19.6,7.82l2.27,2.38c4.25,5.02,6.82,11.52,6.8,18.6-.03,15.85-12.95,28.7-28.8,28.67-7.08-.02-13.56-2.62-18.57-6.89l-2.38-2.27c-4.8-5.16-7.74-12.06-7.72-19.64.03-15.85,12.95-28.7,28.8-28.67Z"/>
      </g>
      <g>
        <path class="cls-9" d="M84.61,205.82c.9,3.1,1.48,5.72,3.53,7.35,2.05,1.64,4.85,2.51,4.85,2.51,0,0,4.33-3.95,8.92-2.98,4.59.97,9.77,4.66,9.92,11.88.15,7.22-4.46,12.1-5.89,15.25-1.43,3.15-3.58,10.54-9.55,10.78v9.79c-16.17,0-27.49-15.24-27.49-29.05s8.26-21.65,15.71-25.54Z"/>
        <path class="cls-6" d="M84.61,205.82c.9,3.1,1.48,5.72,3.53,7.35,2.05,1.64,4.85,2.51,4.85,2.51,0,0,4.33-3.95,8.92-2.98,4.59.97,9.77,4.66,9.92,11.88.15,7.22-4.46,12.1-5.89,15.25-1.43,3.15-3.58,10.54-9.55,10.78v9.79c-16.17,0-27.49-15.24-27.49-29.05s8.26-21.65,15.71-25.54Z"/>
        <path class="cls-10" d="M92.78,230.29c.25-.46.74-.73,1.24-.86.76-.19,1.58-.09,2.3.2s1.37.76,1.94,1.31c-1.11-2.14-3.22-3.72-5.58-4.2-.33-.07-.73-.09-.96.15-.18.19-.21.48-.22.74-.03.69-.04,1.38.1,2.06.1.5.28,1.07.61,1.47.48.56.39-.54.57-.86Z"/>
        <path class="cls-10" d="M93.88,221.09c.02.39.25.74.48,1.06.67.96,1.34,1.93,2.21,2.71.87.78,1.96,1.37,3.13,1.43-.56-.03-1.66-1.47-1.94-1.9-.55-.83-.67-1.71-.07-2.57.39-.55.96-.94,1.57-1.23,2.34-1.12,5.25-.82,7.43.59-1.31-2.01-3.61-3.35-6.01-3.5-1.37-.08-2.76.23-3.98.85-.61.31-1.18.7-1.69,1.16-.39.35-1.17.8-1.14,1.39Z"/>
        <path class="cls-33" d="M92.01,237.35c0,1.52,1.3,2.39,2.1,3.52.15-.46.04-.97-.08-1.44-.12-.47-.26-.97-.16-1.44.1-.48.53-.93,1.02-.86.16.02.31.1.47.09.68-.06-.43-1.01-.62-1.14-.59-.39-1.39-.48-1.99-.08-.45.3-.73.81-.73,1.36Z"/>
        <g>
          <path class="cls-31" d="M90,220.55c1.51-4.56,5.85-7.68,10.68-7.45,5.09.24,9.07,4.06,10.25,8.9.62,2.54.44,5.22-.31,7.71-.78,2.6-2.28,4.73-3.66,7.03-2.47,4.1-3.51,9.67-7.87,12.34-3.53,2.16-8.95.65-9.07-3.99-.02-.67-1.06-.67-1.05,0,.1,4.04,3.73,6.46,7.59,5.99,5.66-.69,7.86-6.84,9.95-11.25,1.33-2.83,3.35-5.27,4.53-8.17,1.11-2.72,1.58-5.71,1.15-8.63-.77-5.26-4.6-9.88-9.97-10.8-5.81-1-11.39,2.48-13.23,8.04-.21.64.8.91,1.01.28h0Z"/>
          <path class="cls-31" d="M108.34,225.07c.19-4.25-3.41-7.72-7.56-7.84-4.46-.14-8.16,3.09-9.41,7.23-.71,2.35-.78,5.14.65,7.25.38.55,1.28.03.9-.53-1.42-2.09-1.16-4.9-.3-7.16.86-2.26,2.58-4.22,4.85-5.15s4.77-.84,6.78.45,3.14,3.45,3.04,5.75c-.03.67,1.01.67,1.05,0h0Z"/>
          <path class="cls-31" d="M96.05,236.99c-.56-1.34-1.88-2.07-3.27-1.53-1.06.41-1.47,1.29-1.33,2.39.07.52.3.92.65,1.31.46.52,1.27.98,1.26,1.75-.03,1.42-1.16,2.62.15,3.84,1.08,1,2.79.93,4.05.33,1.55-.73,2.51-2.24,3.06-3.81,1.17-3.33.58-7.07-1.23-10.06-1.76-2.91-4.49-4.86-7.92-5.15-.67-.06-.67.99,0,1.05,4.89.42,8.38,5.05,8.69,9.76.16,2.51-.5,6.02-3,7.25-1.12.55-3.62.54-3.2-1.3.2-.88.66-1.77.33-2.67-.36-.95-1.6-1.4-1.79-2.39-.32-1.63,1.97-1.89,2.56-.49.26.61,1.27.34,1.01-.28h0Z"/>
          <path class="cls-31" d="M93.38,221.43c.66,1.92,1.87,3.45,3.55,4.58,1.63,1.1,3.83,1.32,5.74,1.02.66-.1.38-1.11-.28-1.01-1.63.25-3.54.02-4.93-.92s-2.5-2.31-3.07-3.96c-.22-.63-1.23-.36-1.01.28h0Z"/>
          <path class="cls-31" d="M85,209.06c1.01,3.21,3.66,6,6.83,7.13.63.23.91-.78.28-1.01-2.82-1-5.21-3.56-6.1-6.4-.2-.64-1.21-.37-1.01.28h0Z"/>
          <path class="cls-31" d="M95.86,250.98v5.97c0,.67,1.05.67,1.05,0v-5.97c0-.67-1.05-.67-1.05,0h0Z"/>
        </g>
      </g>
      <g id="Speech_Bubble-2" data-name="Speech Bubble">
        <path class="cls-34" d="M97.7,202.69c7.58.02,14.47,2.99,19.6,7.82l2.27,2.38c4.25,5.02,6.82,11.52,6.8,18.6-.03,15.85-12.95,28.7-28.8,28.67-7.08-.02-13.56-2.62-18.57-6.89l-2.38-2.27c-4.8-5.16-7.74-12.06-7.72-19.64.03-15.85,12.95-28.7,28.8-28.67Z"/>
      </g>
    </g>
    <g id="Mouth">
      <g id="Speech_Bubble-3" data-name="Speech Bubble">
        <path class="cls-2" d="M97.7,118.44c7.58.02,14.47,2.99,19.6,7.82l2.27,2.38c4.25,5.02,6.82,11.52,6.8,18.6-.03,15.85-12.95,28.7-28.8,28.67-7.08-.02-13.56-2.62-18.57-6.89l-2.38-2.27c-4.8-5.16-7.74-12.06-7.72-19.64.03-15.85,12.95-28.7,28.8-28.67Z"/>
      </g>
      <g id="Speech_Bubble-4" data-name="Speech Bubble">
        <path class="cls-34" d="M97.7,118.44c7.58.02,14.47,2.99,19.6,7.82l2.27,2.38c4.25,5.02,6.82,11.52,6.8,18.6-.03,15.85-12.95,28.7-28.8,28.67-7.08-.02-13.56-2.62-18.57-6.89l-2.38-2.27c-4.8-5.16-7.74-12.06-7.72-19.64.03-15.85,12.95-28.7,28.8-28.67Z"/>
      </g>
      <g id="Mouth-2" data-name="Mouth">
        <path class="cls-11" d="M72.49,147.35c1.86.58,3.68.86,5.43.89.71.02,1.4,0,2.06-.05,3.56-.27,6.6-1.43,8.5-2.72.22-.15.43-.3.62-.46,2.89-2.33,5.92-1.07,8.51-1.07s5.64-1.26,8.52,1.07c.19.16.4.31.62.46,1.9,1.29,4.94,2.45,8.49,2.72.67.05,1.36.07,2.07.05,1.75-.04,3.58-.31,5.43-.89-8.11-2.06-9.4-8.19-15.66-12.08-4.35-2.7-6.74.82-9.49.82s-5.12-3.52-9.48-.82c-6.27,3.89-7.55,10.02-15.66,12.08Z"/>
        <path class="cls-12" d="M77.9,148.19s.02.03.03.05c1.8,2.65,3.36,15.56,19.7,15.56s17.91-12.91,19.71-15.56c0-.02.02-.03.03-.05h-2.2c-1.51.6-3.57,2.55-6.77,4.19-2.67,1.38-6.15,2.55-10.77,2.55s-8.1-1.17-10.77-2.55c-3.2-1.64-5.26-3.59-6.76-4.19h-2.2Z"/>
        <path class="cls-11" d="M90.91,154c1.92.57,4.14.93,6.72.93,4.62,0,8.1-1.17,10.77-2.55.43-.21.84-.44,1.21-.66,0-.14-.02-.27-.07-.41-.11-.29-.32-.52-.55-.74-1.11-1.02-2.56-1.61-4.02-1.91-.94-.19-1.89-.27-2.84-.31-.63-.02-2.38-.33-2.91,0-.52.35-.03.92.27,1.3.47.57.9,1.06.79,1.87-.09.67-.57,1.23-1.13,1.62-1.1.8-2.52,1.03-3.87,1.04-1.36,0-2.71-.21-4.07-.22-.11,0-.21,0-.3.03Z"/>
        <path class="cls-33" d="M79.99,148.19h.11c1.51.6,3.57,2.55,6.76,4.19,3.19-1.79,6.86-2.81,10.77-2.81s7.59,1.02,10.77,2.81c3.21-1.64,5.27-3.59,6.77-4.19h.1c-3.56-.27-6.6-1.43-8.49-2.72-2.02.9-5.32,2-9.15,2s-7.11-1.1-9.14-2c-1.9,1.29-4.95,2.45-8.5,2.72Z"/>
        <path class="cls-32" d="M122.86,146.99c-4.75-1.21-7.1-3.84-9.59-6.63-1.68-1.88-3.41-3.82-5.96-5.41-3.04-1.88-5.17-.91-7.05-.05-.91.42-1.77.81-2.63.81s-1.71-.39-2.62-.81c-1.88-.86-4.02-1.84-7.05.05-2.56,1.59-4.29,3.53-5.97,5.41-2.49,2.78-4.83,5.42-9.58,6.62-.16.04-.27.18-.27.34,0,.16.1.31.26.36,1.72.54,3.52.84,5.33.9.28.47.55,1.16.89,2.02,1.86,4.73,5.33,13.55,19.02,13.55s17.17-8.81,19.03-13.55c.34-.88.62-1.57.89-2.02,1.81-.06,3.6-.36,5.33-.9.16-.05.26-.2.26-.36,0-.16-.12-.3-.27-.34ZM115.98,150.35c-1.8,4.57-5.15,13.09-18.36,13.09s-16.55-8.51-18.35-13.09c-.27-.69-.5-1.27-.73-1.74.47,0,.96-.02,1.44-.05h.03c.65.27,1.42.81,2.39,1.49,1.14.79,2.55,1.78,4.28,2.66,3.37,1.74,6.95,2.59,10.93,2.59s7.57-.85,10.94-2.59c1.74-.89,3.15-1.88,4.29-2.67.97-.67,1.74-1.21,2.39-1.48h.02c.49.04.98.05,1.46.05-.23.47-.46,1.05-.73,1.74ZM81.29,148.42c2.81-.39,5.46-1.33,7.4-2.64.23-.15.44-.31.64-.47,2.04-1.65,4.15-1.4,6.2-1.16,1.45.17,2.73.17,4.18,0,2.05-.24,4.16-.49,6.2,1.15.21.16.42.33.65.48,1.9,1.29,4.6,2.25,7.39,2.64-.46.28-.96.63-1.53,1.02-1.12.78-2.52,1.75-4.21,2.62-3.27,1.69-6.73,2.51-10.6,2.51s-7.34-.82-10.6-2.51c-1.69-.87-3.08-1.83-4.2-2.61-.57-.4-1.07-.74-1.54-1.03ZM117.52,147.87c-.58,0-2.23-.04-2.23-.04-3.11-.24-6.22-1.23-8.31-2.66-.22-.14-.41-.29-.6-.44-2.27-1.84-4.64-1.56-6.74-1.31-1.4.17-2.6.17-4.01,0-.74-.09-1.52-.18-2.32-.18-1.45,0-2.96.3-4.43,1.49-.19.15-.38.3-.59.43-2.11,1.43-5.22,2.42-8.32,2.66,0,0-1.42.04-2.22.04-1.32-.04-2.64-.22-3.92-.53,4.15-1.37,6.37-3.86,8.71-6.48,1.65-1.84,3.35-3.75,5.81-5.28,2.71-1.68,4.56-.83,6.36,0,.98.45,1.91.87,2.92.87s1.95-.42,2.93-.87c1.8-.82,3.66-1.67,6.36,0,2.46,1.53,4.16,3.43,5.8,5.27,2.34,2.62,4.56,5.11,8.72,6.49-1.28.31-2.6.49-3.92.53Z"/>
      </g>
    </g>
    <g id="Nose">
      <g id="Speech_Bubble-5" data-name="Speech Bubble">
        <path class="cls-2" d="M97.7,34.21c7.58.02,14.47,2.99,19.6,7.82l2.27,2.38c4.25,5.02,6.82,11.52,6.8,18.6-.03,15.85-12.95,28.7-28.8,28.67-7.08-.02-13.56-2.62-18.57-6.89l-2.38-2.27c-4.8-5.16-7.74-12.06-7.72-19.64.03-15.85,12.95-28.7,28.8-28.67Z"/>
      </g>
      <g id="Nose-2" data-name="Nose">
        <path class="cls-9" d="M68.9,62.88c.03-15.85,12.95-28.7,28.8-28.67,0,0,.02,0,.03,0-.53,1.7-1.47,3.48-1.57,4.42-.12,1.15-1.14,1.98,4.38,10.94,5.52,8.96,10.99,17.65,12.15,19.77,1.16,2.12,1.64,6.27-1.16,8.37-2.8,2.1-7.04,3.34-11.23,3.34-.87,3.76-1.25,7.07.92,10.4-1.2.15-2.42.24-3.65.23-7.08-.02-13.56-2.62-18.57-6.89l-2.38-2.27c-4.8-5.16-7.74-12.06-7.72-19.64Z"/>
        <path class="cls-6" d="M68.9,62.88c.03-15.85,12.95-28.7,28.8-28.67,0,0,.02,0,.03,0-.53,1.7-1.47,3.48-1.57,4.42-.12,1.15-1.14,1.98,4.38,10.94,5.52,8.96,10.99,17.65,12.15,19.77,1.16,2.12,1.64,6.27-1.16,8.37-2.8,2.1-7.04,3.34-11.23,3.34-.87,3.76-1.25,7.07.92,10.4-1.2.15-2.42.24-3.65.23-7.08-.02-13.56-2.62-18.57-6.89l-2.38-2.27c-4.8-5.16-7.74-12.06-7.72-19.64Z"/>
        <path class="cls-10" d="M92.31,68.43c.44-.1.91-.13,1.33.03.42.16.78.56.78,1.01,0,.42-.3.78-.59,1.09-1.09,1.17-2.3,2.26-3.16,3.61-.86,1.35-1.29,3.23-.48,4.94-.3.2-1-.24-1.29-.45s-.47-.54-.61-.88c-1.4-3.49-.05-8.47,4.02-9.35Z"/>
        <path class="cls-33" d="M104.71,75.02c1.6,0,2.08,1.27,1.1,2.31-.99,1.04-3.01,1.7-7.17,1.53.23.15,3.84-3.73,6.08-3.84Z"/>
        <g>
          <path class="cls-31" d="M100.3,90.13c.08,0,.16-.02.23-.06.24-.13.33-.43.21-.67-.94-1.78-.96-4.79-.06-7.9,6.22-.58,8.65-1.61,11.14-3.4,1.87-1.35,3.51-5.29,1.05-9.46-.99-1.68-3.21-5.26-5.56-9.04-3.15-5.07-6.72-10.82-8.41-13.75-2.93-5.08-2.76-6.07-1.57-9.44.09-.26-.04-.54-.3-.63-.25-.09-.54.04-.63.3-1.34,3.79-1.35,5.09,1.64,10.27,1.7,2.94,5.28,8.7,8.43,13.78,2.35,3.78,4.57,7.35,5.55,9.02,2.14,3.64.8,7.01-.78,8.15-2.39,1.72-4.74,2.69-10.98,3.25l-.33.03-.1.32c-1.08,3.52-1.07,6.87.04,8.97.09.17.26.26.44.26Z"/>
          <path class="cls-31" d="M88.17,78.45c-1.35-1.99-1.34-4.61.03-7.39.12-.25.42-.35.66-.22.25.12.35.42.22.66-1.55,3.12-.91,5.2-.1,6.39,1.03,1.51,2.95,2.42,4.76,2.27,1.88-.16,3.21-.67,4.9-1.88.49-.35.97-.79,1.47-1.25,1.27-1.15,2.7-2.46,4.58-2.51,1.64-.05,2.03.94,2.1,1.24.23,1-.53,2.17-1.76,2.72-1.7.77-3.47.85-5.52.94l-.72.03s-.07,0-.11,0c-1.61,1.06-2.98,1.53-4.85,1.69-.16.01-.32.02-.48.02-2.02,0-4.06-1.05-5.19-2.72ZM104.73,75.52c-1.51.04-2.74,1.16-3.94,2.25-.24.22-.48.44-.72.65,1.75-.08,3.19-.2,4.56-.83.85-.39,1.31-1.14,1.21-1.6-.1-.42-.71-.47-1.04-.47-.02,0-.05,0-.07,0Z"/>
        </g>
      </g>
      <g id="Speech_Bubble-6" data-name="Speech Bubble">
        <path class="cls-34" d="M97.7,34.21c7.58.02,14.47,2.99,19.6,7.82l2.27,2.38c4.25,5.02,6.82,11.52,6.8,18.6-.03,15.85-12.95,28.7-28.8,28.67-7.08-.02-13.56-2.62-18.57-6.89l-2.38-2.27c-4.8-5.16-7.74-12.06-7.72-19.64.03-15.85,12.95-28.7,28.8-28.67Z"/>
      </g>
    </g>
    <g id="Ear-2" data-name="Ear">
      <path class="cls-50" d="M176.91,11.26c26.21-15.21,55.78-2.94,55.87,38.16.06,28.51-12.61,45.72-20.65,65.46-6.41,15.72-7.68,26.39-23.73,35.71-9.4,5.45-19.48,2.14-23.92-9.55-2.03-5.35-4.08-8.15-6.96-14.71-2.64-6-4-10.44-4.03-21.91-.03-13.54-.01-5.69-.05-21.85-.02-11.93,2.84-20.37,2.83-26.67-.03-13.36.92-33.2,20.65-44.64Z"/>
      <path class="cls-18" d="M181.44,73.88c-5.55-4.75-9.56-11.92-5.58-22.8,1.27-3.48,4.97-5.07,8.48-5,2.61.05,5.2.69,7.8.57,1.16-.05,2.33-.27,3.34-.83,1.65-.93,2.18-2.47,2.22-4.27.04-2.07-.48-4.11-.73-6.16-.25-2.06-.2-4.26.85-6.04,3.35-5.66,10.56-.35,13.7,2.64,11.16,10.63,13.03,27.48,9.52,41.81,6.19-25.33,4.59-43.28-7.53-50.28-9.94-5.74-21.59-3.21-31.27,5.01-14.05,11.94-19.18,35.81-.8,45.35Z"/>
      <path class="cls-18" d="M182.99,82.21c4.6,3.44,6.34,6.9,4.62,9.75-1.73,2.85-5.69,3.48-3.95,6.69s-1.34,10.47-1.95,13.72c-.61,3.25,4.91,3.25,6.04-1.15.53,3.89.21,12.88-6.06,14.72-6.26,1.83-8.79-5.34-5.96-10.67,2.83-5.32,5.44-8.97,5.63-12.42.2-3.45-1.1-4.57-6.84-10.06-4.99-4.78-3.52-13.54,4.69-12.13,1.23.21,2.46.71,3.79,1.55Z"/>
      <path class="cls-23" d="M177.38,88.38c-.15.54-.19,1.13-.09,1.76.18,1.19.84,2.36.58,3.54-.13.61-.5,1.13-.87,1.64-.98-.79-1.86-1.72-2.7-2.64-.81-.89-1.43-1.94-1.88-3.05-.58-1.42-.92-2.97-.69-4.49.23-1.51,1.08-2.98,2.43-3.7,1.33-.71,2.9-1.08,4.4-.97,1.22.09,3.24.75,4.21,1.6,1.58,1.37-1.79,2.64-2.79,3.22-1.25.72-2.24,1.78-2.6,3.09Z"/>
      <path class="cls-18" d="M176.01,70.29c6.25,5.13,13.92,6.85,23.09,4.29-2.71-7.19-13.98-15.98-27.57-18.57-.43,4.96,1.88,12.23,4.48,14.28Z"/>
      <path class="cls-23" d="M183.59,74.7c-16.35-5.1-17.37-23.63-9.79-36.67,5.17-9.77,14.93-17.48,26.2-18.32,12.35-1.16,21.93,6.53,24.78,18.38,3.41,14.42-.98,29.29-6.08,42.74-2.73,6.73-6.17,13.08-9.06,19.7,2.44-6.81,5.68-13.3,8.07-20.07,4.57-13.27,8.54-27.97,5.22-41.88-2.66-10.77-11.54-17.96-22.79-16.95-14.33,1.03-25.73,13.44-29.12,26.93-2.82,10.69,1.53,22.47,12.55,26.15h0Z"/>
      <path class="cls-23" d="M169.46,55.54c16.99,2.92,37.19,14.28,31.16,34.49-1.37,4.37-5,7.43-8.28,10.32-5.74,5.84-1.47,15.05-5.24,21.96-5.76,9.42-15.79,3.97-12.51-6.18.95-3.38,3.36-6.22,4.84-9.32,1.66-2.97,1.79-6.34-.66-8.89-3.42-3.59-8.74-7.67-7.35-13.3,1.02-3.76,5.43-5.09,8.81-3.88,3.41,1.06,5.96,3.84,7.49,6.91-2.3-4.41-7.49-8.28-12.55-6.43-3.32,1.26-4.1,5.46-2.34,8.32,1.59,3.08,4.43,5.17,6.83,7.6,2.89,2.86,2.92,6.88,1.08,10.31-2.13,4.43-5.76,8.72-4.9,13.91,1.11,6.01,7.34,4.47,9.56.06,3.05-6.22-.09-14.07,3.77-20.26,1.88-2.99,5.27-4.69,7.34-7.47,3.22-3.91,3.81-9.14,3.14-14.07-2.17-13.96-17.93-20.78-30.19-24.05h0Z"/>
      <path class="cls-18" d="M162.27,66.52c-.5-.45-1.08-.62-1.81-.19-3,1.81.14,9.12,1.7,10.97.43.51.93.99,1.55,1.25.57.24,1.2.27,1.82.26,1.28-.02,5.05-.27,5.84-1.48,1.02-1.56-1.81-3.1-2.91-3.77-1.78-1.09-3.16-2.68-4.36-4.36-.52-.73-1.07-2.01-1.82-2.68Z"/>
      <path class="cls-5" d="M189.14,10.99c-3.05,1.09-4.89,2.74-2.86,5.19,1.78,2.14,5.77.5,8.05.12,10.56-1.75,21.27,2.66,28.93,10.16.82.8,2.19.11,2.06-1.03-.18-1.58-1.81-4.36-2.68-5.42-5.63-6.85-12.12-9.94-21.24-10.35-1.32-.06-7.76-.27-12.26,1.34Z"/>
      <path class="cls-5" d="M216.39,61.94c-.35,7.39-1.79,16.29-6.93,21.84-.69.75-1.62,1.48-2.62,1.3-1.12-.2-1.73-1.44-1.96-2.56-.51-2.4-.06-4.81-.79-7.17-.68-2.21-1.79-4.28-3.16-6.15-2.66-3.64-6.27-6.55-10.12-8.84-1.59-.94-3.27-1.85-4.37-3.33-1.1-1.48-1.4-3.76-.13-5.09.89-.94,2.29-1.18,3.58-1.12,3.28.13,6.92,1.7,9.59-.21,4.29-3.08.16-8,2.35-11.5,2.15-3.43,6.15-1.12,8.16.95,5.41,5.55,6.72,13.92,6.42,21.37,0,.17-.01.35-.02.52Z"/>
      <path class="cls-5" d="M179.25,130.41c-3.17,1.8-5.67,4.97-6.1,8.58-.44,3.62,1.49,7.54,4.84,8.95,2.21.93,4.74.73,7.04.07,4.81-1.38,8.94-4.71,11.73-8.86,2.89-4.29,6.56-12.32,3.75-17.4-3.82-6.9-8.84,2.47-12.03,4.55-2.84,1.86-6.3,2.44-9.24,4.1Z"/>
      <path class="cls-5" d="M169.43,94c-.94-.08-1.73.24-2.18,1.24-.37.85-.11,1.85.35,2.66.46.8,1.12,1.48,1.6,2.27,1.21,1.95,1.33,4.35,1.6,6.63.14,1.18.42,2.51,1.44,3.13.99.61,2.35.27,3.23-.49,3.74-3.2,3.58-8.06.48-11.47-.93-1.02-4.18-3.77-6.53-3.98Z"/>
    </g>
    <g id="Character">
      <g id="Bottom">
        <path class="cls-35" d="M357.87,259.97c-.71-9.8.47-20.58-.35-35.89h0c-.07-3.92-.21-8.13-.48-11.86-.89-12.56-2.82-16.86-3-19.28,0,0-.95-24.08-1.77-51.57-.39-12.93-4.13-16.85-7.13-23.71h-35.59c-3.98,16.94-5.17,57.47-5.06,74.92.06,8.9,2.93,55.54,3.01,56.63.25,3.89-.08,5.42-1.61,7.05-3.19,3.42-7.81,6.68-11.81,9.66.58,1.53,6.1,2.45,8.48,1.28,3.8-1.86,7.57-4.69,8.87-5.66,3.28-2.43,7.48-4.38,7.53-8.08,0-.46.13-.59.11-.66.06-2.16,5.1-34.01,5.52-41.4.36-6.35-.41-17.14-.41-17.14l4.16-30.51s3.15,20.44,5.7,31.3c2.08,8.84,5.51,23.93,7.86,34.81h0c2.25,12.54,5.48,24.72,6.05,31,.17,1.5,1.87,16.21,2.57,19.57.7,3.37,8.04,3.46,8.51-2.34.31-3.86-1.04-16.31-1.17-18.15Z"/>
        <g>
          <path class="cls-27" d="M288,270.81c-.2,0-.53,2.23.56,3.2,1.26,1.11,4.98,2.96,9.93,2.37,4.95-.59,7.64-2.09,9.64-3.72s4.79-3.94,7.03-4.41c2.08-.44,4.35-1.35,5.02-1.99.67-.63.61-3.49.61-3.49l-32.79,8.03Z"/>
          <path class="cls-17" d="M319.18,251.77s.37.02.49.68c.14.79.28,3.08.6,4.37.43,1.8.7,5.48.41,6.94-.29,1.46-3.68,2.44-5.86,3.24-2.22.82-4.79,2.52-7.06,4.35-2.34,1.89-7.25,3.76-10.47,3.77-4.92.02-8.09-1.35-9.05-3.13-1.19-2.2-.94-4.43,4.73-6.99,1.07-.48,4.86-2.67,6.14-3.46,1.36-.84,2.67-1.77,3.88-2.82.61-.53,1.19-1.09,1.74-1.69.48-.52,1.16-1.16,1.45-1.81.07-.15.11-.32.17-.48.17-.45.29-.86.38-1.32.16-.78.34-1.72,1.36-1.54,1.67.3,3.32.71,4.94,1.24.55.18,1.19.51,1.51,1.02.37.6.42,1.36.44,2.05.01.33,0,.66,0,.99,0,.14-.06.39.14.34.19-.05.4-.54.48-.71.16-.37.27-.76.44-1.12.2-.41.43-.84.72-1.19.27-.33.56-.64.9-.9.31-.23.7-.35.97-.62.35-.34.5-.94.54-1.22Z"/>
          <path class="cls-8" d="M292.07,265.42c7.11.57,10.03,5.96,10.3,8.68-1.77.61-3.59,1-5.07,1.01-4.92.02-8.29-1.35-9.25-3.13-1.13-2.07-1.05-4.7,4.02-6.57Z"/>
          <g>
            <path class="cls-19" d="M303.46,266.58c.08,0,.16-.02.22-.08.15-.12.17-.34.05-.49-.98-1.22-4.54-3.84-7.13-3.58-.19.02-.33.19-.31.38.02.19.18.33.38.31,2.42-.23,5.74,2.35,6.52,3.32.07.08.17.13.27.13Z"/>
            <path class="cls-19" d="M306.54,264.83c.08,0,.16-.02.22-.08.15-.12.17-.34.05-.49-.98-1.23-4.54-3.84-7.13-3.58-.19.02-.33.19-.31.38.02.19.18.33.38.31,2.42-.23,5.74,2.35,6.52,3.32.07.08.17.13.27.13Z"/>
            <path class="cls-19" d="M309.4,262.82c.08,0,.16-.02.22-.08.15-.12.17-.34.05-.49-.98-1.22-4.55-3.84-7.13-3.58-.19.02-.33.19-.31.38.02.19.18.33.38.31,2.41-.23,5.74,2.35,6.52,3.32.07.08.17.13.27.13Z"/>
            <path class="cls-19" d="M312.21,260.81c.08,0,.15-.02.22-.07.15-.12.18-.34.06-.49-1.34-1.74-5.13-3.88-7.72-3.62-.19.02-.33.19-.31.38.02.19.18.33.38.31,2.33-.23,5.91,1.82,7.1,3.36.07.09.17.13.27.13Z"/>
          </g>
        </g>
        <g>
          <path class="cls-27" d="M348.22,283.08c.2,3.36.72,5.58,1.91,7.55,1.19,1.97,3.44,2.59,5.71,2.01,2.28-.58,5.19-2.12,5.84-5.01.65-2.9,1.03-4.88.52-7.99l-13.98,3.45Z"/>
          <path class="cls-17" d="M357.79,258.77c.94.07,1.21,4.58,1.76,9.1.58,4.84,2.02,6.84,2.54,10.81.59,4.53-.16,6.56-1.75,9.3-1.59,2.74-7.21,5.43-9.98,1.5-2.26-3.2-2.35-6.75-2.15-11.27.21-4.68-.11-7.92-.3-11.47-.18-3.39-.93-6.82-.12-7.19.06.5.12,1.13.19,1.62.08.6.08,1.23.3,1.81.1.25.3.52.39.11.06-.28.03-.57,0-.84-.14-1.25.49-1.35.83-1.45.74-.21,3.65-.57,4.35-.62.72-.05,3.19-.16,3.51.25.22.28.25.74.32,1.31.08.68.24,1.18.26.97.04-.49-.05-1.76-.06-2.06-.01-.29-.06-.69-.06-.99,0-.29,0-.58-.03-.87Z"/>
          <path class="cls-8" d="M362.34,281.3c.16,2.81-.51,4.74-1.75,6.89-1.59,2.74-7.66,5.44-10.43,1.51-1.38-1.95-1.75-4.26-1.94-6.62,1.66-3.03,11.5-4.36,14.12-1.78Z"/>
          <g>
            <path class="cls-19" d="M350.26,278.15s.08-.01.12-.03c.04-.02,4.38-1.81,8.6-.83.19.04.37-.07.42-.26.04-.19-.07-.37-.26-.42-4.47-1.03-8.89.81-9.06.88-.17.08-.25.29-.16.46.06.14.21.21.35.2Z"/>
            <path class="cls-19" d="M358.77,273.91c.13-.01.25-.1.3-.23.06-.18-.04-.38-.22-.44-4.2-1.42-8.87.71-9.05.81-.17.09-.24.3-.15.47.09.17.3.23.47.15.04-.02,4.59-2.09,8.5-.76.05.02.1.02.15.02Z"/>
            <path class="cls-19" d="M358.62,270.73c.13-.01.25-.1.29-.23.06-.18-.03-.38-.21-.44-4.62-1.66-9.05.68-9.22.78-.16.1-.22.31-.12.48.1.16.32.22.48.12.04-.02,4.32-2.26,8.62-.72.05.02.1.02.15.02Z"/>
            <path class="cls-39" d="M358.39,267.59c.13-.01.24-.1.29-.22.07-.18-.02-.38-.2-.45-4.33-1.62-9.1.77-9.28.88-.17.09-.22.31-.13.47.09.17.31.23.47.13.04-.02,4.66-2.33,8.69-.83.05.02.11.03.16.02Z"/>
          </g>
        </g>
        <g>
          <path class="cls-52" d="M346.09,117.77c4.22,7.69,7.34,13.97,7.77,36.84.43,22.86.98,33.8,1.07,36.55.09,2.76,1.69,7.68,3.1,21.26,1.41,13.58.11,29.48.11,29.48,0,0-1.34,2.46-6.54,2.93-4.79.43-7.16-1.37-7.16-1.37,0,0-6.57-26.45-8.39-34.63-1.82-8.18-7.72-39.6-7.72-39.6l-3.2,25.4s1.46,7.49,0,19.4c-1.46,11.91-4.04,24.11-4.04,24.11,0,0-3.26,1.26-7.36,1.2-4.1-.06-6.99-2.2-6.99-2.2,0,0-3.54-34.93-3.54-48.42,0-13.5,1.21-50.83,5.45-70.82l37.41-.15Z"/>
          <path class="cls-51" d="M353.73,201.71c-.17-.78-.33-1.53-.48-2.24-1.32-6.32-1.93-19.11-1.9-29.56,0-3.16.01-6.43-.02-9.9-.12-13.62-1.17-28.87-8.06-38.7l-.56.39c4.63,6.61,6.58,15.76,7.39,25.2-6.84-.91-8.33-7.66-10.37-16.96-.28-1.27-.57-2.59-.88-3.93l-.66.15c.31,1.35.6,2.66.88,3.93,2.03,9.28,3.65,16.63,11.09,17.51.33,4.16.45,8.36.49,12.42.03,3.47.02,6.73.02,9.89-.02,10.5.58,23.32,1.92,29.7.15.71.31,1.46.48,2.24,1.77,8.17,4.42,20.42,3.1,41.76.28-.15.51-.31.71-.46,1.26-21.13-1.38-33.31-3.15-41.45ZM311.6,140.61c.95,4.49,6.88,6.89,10.13,7.67l.49,2.74c-.16,2.43-.33,4.98-.51,7.62-.99,14.52-2.08,33.13-1.34,36.51,1.96,8.92,1.38,14.57.33,24.84-.11,1.05-.22,2.15-.33,3.3-.59,5.96-1.25,11.81-1.68,15.56.25-.05.49-.11.7-.16.43-3.76,1.08-9.49,1.66-15.33.12-1.15.23-2.25.33-3.3,1.06-10.34,1.64-16.03-.34-25.05-.72-3.29.41-22.52,1.35-36.32.11-1.67.23-3.31.33-4.91l2.9,16.1-.48,24.78,3.2-25.4-3.89-23.58s-7.84.2-12.86-5.05Z"/>
        </g>
      </g>
      <g id="Top">
        <g id="Arm">
          <path class="cls-39" d="M317.92,78.8c-5.42,1.54-8.51,1.84-12.03,7.15-3.61,5.44-8.34,12.13-13.77,20.47l-14.25-6.66-5.71,9.93s15.32,9.85,20.99,11.76c4.24,1.43,5.23-.43,8.37-3.7,3.48-3.64,13.73-15.52,13.73-15.52l2.69-23.44Z"/>
          <path class="cls-54" d="M292.11,106.43c2.41.81,5.66,3.33,6.1,4.69-1.38-4.21-4.22-5.25-5.37-5.81l-.73,1.12Z"/>
        </g>
        <path class="cls-22" d="M353.11,133.61c-1.6-7.3-3.61-15.47-3.82-17.07-1.25-9.29.4-14,1.01-18.06,1.32-8.85-1.21-16.26-3.27-18,0,0-2.14-.49-4.7-1.1-1.54-.37-2.07-.46-4.41-.79-5.2-.73-9.87-.52-11.82-.32-.96.1-5.51.88-5.51.88-1.38.32-3.89.78-3.89.78,0,0-3.14,2.57-6.08,7.82-2.24,4.01-3.52,7.37-3.92,15.96-.51,10.94-.74,23.15-1.7,31.74,9.06,5.57,36.74,7.9,48.11-1.82Z"/>
        <g id="Head">
          <path class="cls-27" d="M337.96,43.62c2.12-.68,4.44-.53,6.59.07,1.62.46,3.54,1.44,4.61,2.74,1.29,1.55,1.74,4.15,1.74,8.05v31.49h-15.53l2.59-42.35Z"/>
          <path class="cls-27" d="M337.06,72.29c-.26.71-.94-.06-1.58.38-.51.34-1.21.16-1.76.04-.32-.07-.63-.16-.94-.26-1.66-.55-3.16-1.52-4.53-2.61-2.05-1.64-3.88-3.54-5.76-5.37-1.84-1.78-3.74-3.49-5.38-5.44-1.24-1.48-2.82-2.59-3.83-4.27-.72-1.19-1.9-3.66-1.46-5.1-.24.78-.48,1.57-.72,2.35-1.54-3.55-.42-7.89,2.17-10.77,2.59-2.88,6.4-4.42,10.23-4.94,3.41-.46,6.92-.18,10.21.83,1.87.57,3.69,1.39,5.23,2.59s2.8,2.82,3.38,4.68c.15.47.26.97.55,1.37.21.29.5.51.77.75,1.76,1.56,2.55,4.31,2.56,6.6.01,2.66-1,5.29-2.1,7.66-.9,1.95-6.36,9.66-7.04,11.51Z"/>
          <path class="cls-35" d="M337.46,75.88c-.02-1.45.18-11.15.18-11.15.06.54,2.7,2.02,5.06-.79,2.41-2.88,2.51-5.79,1.09-7.68-1.57-2.09-5.66-2.04-6.05,1.5-2.03-.08-3.01-.96-2.21-4.3-.09-.98-.84-1.44-1.73-1.67-2.13-.56-4.32-.94-6.4-1.65-2.09-.71-4.12-1.78-5.54-3.46.07,1.19.36,2.37.85,3.47-2.49-.93-4.37-3.33-4.68-5.97-.65,1.14-1.49,2.15-2.2,3.25-1.18,1.81-1.48,3.71-1.71,5.81-.25,2.25-.4,4.51-.48,6.78-.27,7.72,2.26,10.95,4.73,12.24,1.66.87,3.79,1.29,6.15,1.31l-.13,2.42c-.05,1.21.06,2.12-1.12,2.51-.79.27-2.67.63-2.67.63,0,0-2.75,4.75,4.83,5.17,12.07.68,16.9-4.94,16.9-4.94,0,0-.81-.25-2.67-.82-1.97-.61-2.18-1.22-2.19-2.67Z"/>
          <g>
            <g>
              <path class="cls-45" d="M326.6,63.66l-4.56,1.47c.38,1.31,1.71,2.04,2.97,1.63,1.26-.4,1.97-1.79,1.59-3.1Z"/>
              <path class="cls-50" d="M326.31,64.71c-1.28-.03-2.36.86-2.63,2.06.42.12.88.13,1.33-.02.9-.29,1.52-1.09,1.66-2-.12-.02-.23-.04-.35-.04Z"/>
            </g>
            <path class="cls-27" d="M315.93,53.28l2.86-1.59c-.41-.81-1.39-1.11-2.18-.68-.79.44-1.09,1.45-.68,2.27Z"/>
            <path class="cls-27" d="M329.67,53.5l-3.16-.99c.24-.89,1.15-1.39,2.02-1.12.87.27,1.39,1.22,1.14,2.11Z"/>
            <path class="cls-27" d="M319.18,56.1c.06.74-.5,1.41-1.25,1.49-.75.08-1.41-.46-1.46-1.2-.06-.74.5-1.41,1.25-1.49.75-.08,1.41.46,1.47,1.2Z"/>
            <path class="cls-27" d="M329.07,56.33c.06.74-.5,1.41-1.25,1.49-.75.08-1.41-.46-1.46-1.2-.06-.74.5-1.41,1.25-1.49.75-.08,1.41.46,1.47,1.2Z"/>
          </g>
          <polygon class="cls-40" points="318.09 60.44 322.45 62.05 323.27 54.18 318.09 60.44"/>
          <path class="cls-40" d="M324.51,73.57c5.18-.53,10.01-2.14,11.3-7.58,0,0,.11,4.44-1.76,6.01-3.46,2.9-9.64,3.4-9.64,3.4l.1-1.83Z"/>
        </g>
        <g>
          <g>
            <path class="cls-43" d="M324.37,76.52c-.56.21-6.45,2.29-6.45,2.29-6.31,5.33-9.86,10.83-11.39,14.38-1.84,4.25-2.09,8.93-2.2,15.61-.1,5.81-3.87,54.45-3.87,62.9.63,2.25,7.46,5.57,7.46,5.57.27-16.88,2.11-61.33,3.69-76.79,2.03-13.61,9.16-20.32,11.43-21.88.95-.29,1.31-.69,1.33-2.08Z"/>
            <path class="cls-36" d="M319.64,78.8c-.65.65-1.33,1.27-1.99,1.91-.66.64-1.35,1.24-2.02,1.87l.07-.24.52,1.7.05.16-.14.12c-1.69,1.52-3.39,3.03-5.11,4.51l.11-.2c-.3,1.97-.59,3.95-.92,5.92l-.94,5.92c.01-1,.1-2,.16-3,.08-1,.18-1.99.29-2.99.2-1.99.46-3.97.74-5.95l.02-.12.09-.08c1.71-1.5,3.44-2.97,5.18-4.43l-.09.29-.42-1.72-.04-.15.11-.09c.71-.58,1.42-1.17,2.14-1.73.72-.57,1.44-1.14,2.18-1.69Z"/>
          </g>
          <g>
            <path class="cls-43" d="M337.47,76.29c-.02.77-.03,1.49.05,1.88-6.72,12.03-6.37,20.02-6.43,29.27-.14,19.42,1.67,78.28,1.67,78.28,0,0,18.73,2.59,24.22-4.83,0,0-.36-44.6-5.42-59.97-2.11-6.42,1.63-22.4.48-32.06-.48-4.04-1.57-7.97-4.6-8.92-2.5-.78-9.97-3.65-9.97-3.65Z"/>
            <path class="cls-36" d="M334.52,107.92c.16-1.46.55-2.88.95-4.29.43-1.4.9-2.79,1.41-4.17.51-1.38,1.07-2.73,1.64-4.08.58-1.35,1.14-2.7,1.78-4.02v.26s-2.09-5.51-2.09-5.51l-.08-.2.16-.13,2.6-2.03-.07.23c-.3-.98-.61-1.96-.89-2.95-.29-.99-.58-1.97-.85-2.96.38.96.73,1.92,1.09,2.88.37.96.71,1.93,1.05,2.89l.05.13-.12.1-2.5,2.15.09-.33,2.16,5.48.05.13-.06.13c-.6,1.33-1.22,2.65-1.8,3.99-.59,1.33-1.15,2.68-1.71,4.03-.57,1.34-1.1,2.7-1.59,4.08-.5,1.37-.97,2.75-1.28,4.18Z"/>
          </g>
        </g>
        <g id="Tablet">
          <g id="Otoscope">
            <g>
              <path class="cls-37" d="M306.33,138.83c.43.75.54,1.67.22,2.48-.15.38-.33.76-.56,1.14-1.13,1.97-3.09,3.76-5.33,5.05-.32.18-.63.35-.95.51-1.99.99-4.13,1.58-6.09,1.58-.56,0-1.09-.05-1.58-.14-.81-.16-1.49-.69-1.9-1.4l-.11-.19-32.44-56.19,4.43-2.55,11.7-6.76,32.61,56.47h0Z"/>
              <path class="cls-36" d="M299.72,148.02c-1.99.99-4.13,1.58-6.09,1.58-.56,0-1.09-.05-1.58-.14-.81-.16-1.49-.69-1.9-1.4l-.11-.19-32.44-56.19,4.43-2.55c12.05,20.86,22.39,38.78,29.89,51.77,2.27,3.92,4.61,6.06,6.86,6.87.32.12.63.21.94.26Z"/>
              <path class="cls-7" d="M302.39,136.85c-2.17,3.76-7.47,6.82-11.81,6.82-1.54,0-2.77-.38-3.58-1.09l.68,1.18c.81.36,1.78.56,2.9.55,2.27,0,4.8-.8,7.04-2.09,2.24-1.29,4.2-3.08,5.33-5.05.51-.89.82-1.76.94-2.58l-.61-1.05c.09.99-.2,2.12-.89,3.31ZM300.22,133.09c-2.17,3.76-7.47,6.82-11.81,6.82-1.54,0-2.77-.38-3.58-1.09l.68,1.18c.81.36,1.78.56,2.9.55,2.27,0,4.8-.8,7.04-2.09,2.24-1.29,4.2-3.08,5.33-5.05.51-.89.82-1.76.94-2.58l-.61-1.05c.09.99-.2,2.12-.89,3.31Z"/>
            </g>
            <g>
              <path class="cls-20" d="M287.24,113.8h0c.92-.87,1.13-2.26.49-3.36l-10.68-18.5c-.88-1.53-2.96-1.83-4.24-.62h0c-.92.87-1.13,2.26-.49,3.36l10.68,18.5c.88,1.53,2.96,1.83,4.24.62Z"/>
              <path class="cls-37" d="M277.7,98.52h0c-.66.38-1.51.16-1.9-.51l-1.69-2.92c-.38-.66-.16-1.51.51-1.9h0c.66-.38,1.51-.16,1.9.51l1.69,2.92c.38.66.16,1.51-.51,1.9Z"/>
              <path class="cls-1" d="M277.7,98.52h0c-.66.38-1.51.16-1.9-.51l-1.69-2.92c-.38-.66-.16-1.51.51-1.9h0c.66-.38,1.51-.16,1.9.51l1.69,2.92c.38.66.16,1.51-.51,1.9Z"/>
            </g>
            <g>
              <path class="cls-30" d="M270.68,73.61l3.34,5.78c.13.22.24.46.31.71.45,1.32.21,3.01-.85,4.84-1.11,1.93-2.94,3.69-5.06,5.04-2.63,1.69-5.71,2.76-8.47,2.76-1.24,0-2.29-.21-3.15-.61-.59-.27-1.07-.63-1.44-1.06-.18-.18-.33-.39-.45-.61l-3.37-5.83c-.82-1.42-.71-3.37.54-5.52.11-.19.23-.38.36-.56,2.67-4.06,8.42-7.25,13.18-7.25,2.5,0,4.26.88,5.07,2.31Z"/>
              <path class="cls-42" d="M265.61,71.3c-4.98,0-11.04,3.5-13.53,7.81-2.49,4.31-.47,7.81,4.51,7.81,4.98,0,11.04-3.5,13.53-7.81,2.49-4.31.47-7.81-4.51-7.81Z"/>
            </g>
            <g>
              <path class="cls-20" d="M263.92,69.01l3.23,5.6c.51.95.41,2.24-.42,3.65-1.68,2.93-5.8,5.31-9.18,5.3-1.69,0-2.88-.59-3.43-1.55l-3.18-5.51c-2.07-3.58-.85-8.17,2.74-10.24,3.58-2.07,8.17-.84,10.24,2.75Z"/>
              <path class="cls-25" d="M250.94,76.5l3.18,5.51c.56.96,1.75,1.56,3.43,1.55,2.67,0,5.79-1.48,7.82-3.54-3.48,2.86-6.99.64-8.88-2.64-1.9-3.29.09-4.55,1.48-7.54,1.39-3-1.68-4.49-4.29-3.57-3.58,2.07-4.81,6.65-2.74,10.24Z"/>
            </g>
            <g>
              <path class="cls-37" d="M255.57,62.21l2.59,4.49c.04.07.08.15.1.24.15.44.07,1-.28,1.61-.37.64-.98,1.23-1.68,1.67-.87.56-1.9.92-2.81.92-.41,0-.76-.07-1.05-.2-.2-.09-.36-.21-.48-.35-.06-.06-.11-.13-.15-.2l-2.6-4.5c-.27-.47-.23-1.12.18-1.83.04-.06.08-.13.12-.19.89-1.35,2.79-2.41,4.37-2.41.83,0,1.41.29,1.68.77Z"/>
              <path class="cls-1" d="M255.57,62.21l2.59,4.49c.04.07.08.15.1.24.15.44.07,1-.28,1.61-.37.64-.98,1.23-1.68,1.67-.87.56-1.9.92-2.81.92-.41,0-.76-.07-1.05-.2-.2-.09-.36-.21-.48-.35-.06-.06-.11-.13-.15-.2l-2.6-4.5c-.27-.47-.23-1.12.18-1.83.04-.06.08-.13.12-.19.89-1.35,2.79-2.41,4.37-2.41.83,0,1.41.29,1.68.77Z"/>
              <path class="cls-37" d="M253.89,61.44c-1.65,0-3.66,1.16-4.49,2.59-.83,1.43-.16,2.59,1.5,2.59,1.65,0,3.66-1.16,4.49-2.59s.16-2.59-1.5-2.59Z"/>
            </g>
            <g>
              <path class="cls-37" d="M240.47,45.23c-6.76,3.23-19.72,4.86-25.5,4.86h0c-.37,0-.73.24-1.01.73-.56.97-.56,2.54,0,3.51.28.48.65.73,1.01.73,5.77,0,18.74,1.63,25.5,4.86v-14.69Z"/>
              <path class="cls-7" d="M240.47,45.23c-6.76,3.23-19.72,4.86-25.5,4.86-.37,0-.73.24-1.01.73-.56.97-.56,2.54,0,3.51.17.29.37.48.58.6-.38-.69-.46-1.83.46-2.52.69-.51,2-.65,3.8-.78,5.71-.41,10.7-.65,16.49-2.32-.66,2.33-.71,6.23.69,8.91,1.66.5,3.19,1.06,4.49,1.69v-14.69Z"/>
              <path class="cls-37" d="M244.9,60.9h-3.95c-.19,0-.39-.02-.58-.06-1.03-.2-2.04-1-2.84-2.38-.84-1.45-1.3-3.31-1.38-5.2-.11-2.35.35-4.77,1.39-6.57.47-.81,1-1.41,1.58-1.83.4-.28.82-.46,1.24-.54.19-.05.38-.06.57-.06h3.99c1.24,0,2.46.81,3.4,2.43.08.15.16.29.23.44,1.64,3.27,1.56,8.23-.23,11.33-.95,1.63-2.18,2.45-3.42,2.44Z"/>
              <path class="cls-37" d="M247.59,38.76c-3.2,2.16-9.33,5.9-9.33,13.82s6.13,11.66,9.33,13.82v-27.64Z"/>
              <path class="cls-7" d="M247.59,38.76c-3.2,2.16-9.33,5.9-9.33,13.82s6.13,11.66,9.33,13.82v-27.64Z"/>
              <path class="cls-30" d="M257.93,67.49h-7.07c-.35,0-.69-.03-1.04-.12-1.85-.36-3.66-1.79-5.08-4.26-1.51-2.61-2.33-5.93-2.47-9.32-.2-4.21.62-8.54,2.49-11.77.84-1.45,1.79-2.53,2.84-3.27.71-.51,1.46-.82,2.21-.97.33-.09.68-.12,1.01-.12h7.14c2.21,0,4.41,1.45,6.09,4.36.14.26.29.52.42.8,2.94,5.86,2.79,14.73-.42,20.29-1.69,2.92-3.91,4.39-6.12,4.37Z"/>
              <path class="cls-42" d="M264.06,63.12c3.36-5.82,3.36-15.26,0-21.08-3.36-5.82-8.81-5.82-12.17,0-3.36,5.82-3.36,15.26,0,21.08,3.36,5.82,8.81,5.82,12.17,0Z"/>
              <path class="cls-30" d="M262.37,60.21c2.43-4.21,2.43-11.05,0-15.26-2.43-4.21-6.38-4.21-8.81,0-2.43,4.21-2.43,11.05,0,15.26,2.43,4.21,6.38,4.21,8.81,0Z"/>
              <path class="cls-37" d="M261.14,60.21c2.43-4.21,2.43-11.05,0-15.26-1.06-1.83-2.4-2.87-3.79-3.11-1.38.24-2.73,1.27-3.79,3.11-2.43,4.21-2.43,11.05,0,15.26,1.06,1.83,2.4,2.87,3.79,3.11,1.38-.24,2.73-1.27,3.79-3.11Z"/>
              <path class="cls-4" d="M261.14,60.21c2.43-4.21,2.43-11.05,0-15.26-1.06-1.83-2.4-2.87-3.79-3.11-1.38.24-2.73,1.27-3.79,3.11-2.43,4.21-2.43,11.05,0,15.26,1.06,1.83,2.4,2.87,3.79,3.11,1.38-.24,2.73-1.27,3.79-3.11Z"/>
              <path class="cls-4" d="M260.94,49.33c-.18-.3-.41-.59-.74-.7-.43-.14-.92.09-1.21.44-.29.35-.42.81-.54,1.25-.48,1.77-.87,3.59-1.71,5.23-.4.78-.91,1.51-1.22,2.33-.31.82-.41,1.78.01,2.56.45.84,1.51,1.3,2.43,1.05.87-.23,1.5-.97,1.99-1.72,1.86-2.87,2.91-7.35.99-10.43Z"/>
              <path class="cls-7" d="M253.56,60.21c.27.46.55.87.85,1.23-.53-1.05-.94-2.15-1.21-3.29-.66-2.81-.53-5.78.2-8.57.47-1.77,1.21-3.54,2.58-4.76.52-.47,1.14-.85,1.82-1.03.93-.25,1.94-.08,2.8.36-.96-1.33-2.1-2.1-3.26-2.3-1.38.24-2.73,1.27-3.79,3.11-2.43,4.21-2.43,11.05,0,15.26Z"/>
            </g>
          </g>
          <g>
            <path class="cls-35" d="M261.67,99.75c-1.3-1.45-1.22-1.67-.7-2.54.52-.87,1.74-2.35,3.81-2.51,1.39-.11,2.79-.29,3.54,0,.76.29.31,1.86-1.45,2.46-2.77.95-2.67,1.72-2.67,1.72,0,0,2.56-.87,3.6-1.05,1.05-.17,3.02.12,4.24.17,1.22.06,1.63,1.58-.35,2.33,0,0,1.54.08,2.24.11,1.57.08,2.18.84,1.07,1.92-.26.26-.63.56-1.34.68,0,0,1.64-.18,1.73.36.27,1.55-.7,2.07-3.91,3.4-3.06,1.26-3.52,3.03-2.77,4.14,0,0-1.35-.6-2.57-1.26-.89-.48-1.67-1.05-1.43-2.39,0,0-1.8.23-2.03-.87-.23-1.1.17-2.44.17-2.44,0,0-1.12-.41-1.2-1.74-.08-1.34.44-2.03.44-2.03l-.44-.46Z"/>
            <path class="cls-40" d="M271.7,100.34c-.67-.03-1.31-.1-2.02,0-.72.14-1.29.51-1.87.82-1.14.67-2.26,1.38-3.28,2.24,1.26-.46,2.42-1.08,3.57-1.73.57-.33,1.12-.7,1.69-.89.59-.16,1.28-.25,1.91-.45Z"/>
            <path class="cls-40" d="M273.67,103.05c-.71-.13-1.47-.06-2.17.17-.7.22-1.35.54-1.99.87-1.25.7-2.45,1.48-3.54,2.42,1.33-.55,2.58-1.24,3.82-1.91,1.25-.67,2.44-1.37,3.87-1.56Z"/>
          </g>
        </g>
        <g id="Arm-2" data-name="Arm">
          <path class="cls-40" d="M323.44,100.59c-2.58-1.93-3.88-2.67-5.09-3.01-1.2-.34-5.43-2.1-7.05-2.5-1.03-.26-1.44,1.38-.14,2.5,1.01.87,3.63,2,4.77,2.63,1.15.63,3.4,3.37,3.4,3.37l4.09-2.99Z"/>
          <path class="cls-35" d="M359.95,89.64c-2.56-5.46-4.96-5.77-11.15-8.31-3.02,4.06-1.1,18.4-1.1,18.4l3.12,15.32s-15.44-4.15-17.19-5.27c-1.75-1.12-6.43-6.16-8.01-7.67-2.14-2.05-3.2-1.78-4.29-1.61-3.56.53-4.34.83-5.1,1.31-.75.48-.69,1.39-.69,1.39-.95.12-2.36.09-2.54,1.64-.12,1.03-.06,1.24-.06,1.24,0,0-.34.03-.61.35-.79.91.56,4.07,1.42,4.84.6.54,1.46.61,2.59.45.96-.13.51-1.1.51-1.1l1.34.08c2.9,2.06,3.04,6.13,6.87,7.03.81.19,2.47.17,4.68.91,8.24,2.77,21.76,11.16,29.11,11.8,7.17.62,6.96-3.2,7.08-7.6.1-3.92-3.42-27.77-5.97-33.21Z"/>
          <path class="cls-45" d="M350.51,113.55l.31,1.5c3.26.84,6.79,3.19,7.57,4.98-.61-2.83-2.13-4.94-7.88-6.48Z"/>
          <g>
            <path class="cls-40" d="M315.54,103.2l4.23-.85-4.14.27c-.07.2-.1.39-.09.59Z"/>
            <path class="cls-40" d="M312.94,106.09l4.87-.63-4.87.07c-.02.18-.02.37,0,.56Z"/>
            <path class="cls-40" d="M313.59,108.23c.15.25.39.44.66.57.26.14.54.22.83.28l-.06-.05c.13.25.27.5.41.75l.1-.13c-.28-.05-.56.03-.77.19-.21.16-.35.4-.42.64.12-.22.3-.4.5-.53.2-.11.45-.16.66-.12l.19.04-.09-.17c-.13-.25-.26-.51-.41-.75l-.02-.04h-.04c-.27-.05-.55-.13-.81-.23-.26-.11-.52-.23-.71-.45Z"/>
            <path class="cls-40" d="M314.88,108.86c.48.1,1.76.12,1.76.12,0,0,.04.35.61.94.3.31.94.79.94.79l-1.34-.08s-.33-.6-1.53-.83l-.44-.94Z"/>
          </g>
        </g>
        <path class="cls-39" d="M348.34,80.35c7.34,2.62,9.28,3.38,11.53,7.94,2.25,4.56,3.44,12.93,4.49,17.5,1.05,4.58,2.32,17.6,2.32,19.7s-1.2,5.39-5.17,5.54c-3.97.15-9.36-1.8-15.72-4.57-6.36-2.77-9.43-4.29-9.43-4.29,0,0,1.67-8.66-.55-11.91l14.25,3.93-3.14-15.37s-2.21-13.83,1.42-18.47Z"/>
        <path class="cls-54" d="M350.07,114.18c3.74,1.05,7.56,3.53,10.11,7.19-.45-3.82-3.83-7.38-10.49-9.05l.38,1.86Z"/>
      </g>
    </g>
  </g>
  <path class="cls-16" d="M238.84,167.72c-1.99-6.07-3.51-12.37-4.51-18.84,1.99,6.08,3.51,12.37,4.51,18.84Z"/>
  <path class="cls-16" d="M238.84,167.72c-1.99-6.07-3.51-12.37-4.51-18.84,1.99,6.08,3.51,12.37,4.51,18.84Z"/>
  <path class="cls-16" d="M238.84,167.72c-1.99-6.07-3.51-12.37-4.51-18.84,1.99,6.08,3.51,12.37,4.51,18.84Z"/>
  <path class="cls-16" d="M238.84,167.72c-1.99-6.07-3.51-12.37-4.51-18.84,1.99,6.08,3.51,12.37,4.51,18.84Z"/>
</svg>