<?xml version="1.0" encoding="UTF-8"?>
<svg xmlns="http://www.w3.org/2000/svg" xmlns:xlink="http://www.w3.org/1999/xlink" viewBox="0 0 500 500">
  <defs>
    <style>
      .cls-1 {
        fill: #bfc1c3;
      }

      .cls-2 {
        fill: #dcdcde;
      }

      .cls-3 {
        fill: #613396;
      }

      .cls-4 {
        fill: #d2d3d5;
      }

      .cls-5 {
        fill: #e7e8ea;
      }

      .cls-6 {
        fill: #dadce0;
      }

      .cls-7 {
        fill: #565197;
      }

      .cls-8 {
        fill: #d1d2d2;
      }

      .cls-9 {
        fill: #e6e8ea;
      }

      .cls-10 {
        fill: #4796da;
      }

      .cls-11 {
        fill: #584f4f;
      }

      .cls-12, .cls-13 {
        fill: #db796e;
      }

      .cls-14 {
        fill: url(#linear-gradient-2);
      }

      .cls-15 {
        fill: #444345;
      }

      .cls-16 {
        fill: #e8f5ff;
      }

      .cls-17 {
        fill: #a8abad;
      }

      .cls-18 {
        mix-blend-mode: color-dodge;
      }

      .cls-18, .cls-19 {
        opacity: .5;
      }

      .cls-20, .cls-21 {
        fill: #cde7fe;
      }

      .cls-22 {
        fill: #188aaf;
      }

      .cls-23 {
        stroke: #be3f3d;
        stroke-width: .2px;
      }

      .cls-23, .cls-24, .cls-25, .cls-26 {
        fill: none;
      }

      .cls-23, .cls-25, .cls-26 {
        stroke-miterlimit: 10;
      }

      .cls-27 {
        fill: #fcfae3;
      }

      .cls-28 {
        fill: #634ca0;
      }

      .cls-29, .cls-30 {
        fill: #fff;
      }

      .cls-31 {
        fill: #008287;
      }

      .cls-32 {
        fill: #00504e;
      }

      .cls-33 {
        fill: #c4504e;
      }

      .cls-34 {
        fill: #e5e7ea;
      }

      .cls-35 {
        fill: #e07f4f;
      }

      .cls-36 {
        fill: #b55952;
      }

      .cls-37 {
        fill: #4898d4;
      }

      .cls-38 {
        fill: #ff2420;
      }

      .cls-39 {
        fill: #5cc04a;
      }

      .cls-40 {
        fill: #4596d9;
      }

      .cls-41 {
        fill: #521a0d;
      }

      .cls-19, .cls-42 {
        fill: #e5ad83;
      }

      .cls-19, .cls-43 {
        mix-blend-mode: multiply;
      }

      .cls-21 {
        opacity: .61;
      }

      .cls-44 {
        fill: #e6e7e9;
      }

      .cls-45 {
        clip-path: url(#clippath-1);
      }

      .cls-46 {
        fill: #ff9800;
      }

      .cls-47 {
        fill: #f2f2f2;
      }

      .cls-48 {
        fill: #1b0c11;
      }

      .cls-49 {
        fill: #872a29;
      }

      .cls-50 {
        fill: #231f20;
      }

      .cls-30 {
        mix-blend-mode: overlay;
        opacity: .33;
      }

      .cls-51 {
        isolation: isolate;
      }

      .cls-52 {
        fill: #241917;
      }

      .cls-53 {
        fill: #ff3c2b;
      }

      .cls-54 {
        fill: #20181a;
      }

      .cls-55 {
        fill: #888889;
      }

      .cls-56 {
        fill: #009ca9;
      }

      .cls-57 {
        fill: #eae1df;
      }

      .cls-58 {
        fill: #ecf6ff;
      }

      .cls-59 {
        fill: #cc665a;
      }

      .cls-60 {
        fill: #cd0202;
        opacity: .24;
      }

      .cls-61 {
        fill: #4496dc;
      }

      .cls-62 {
        fill: #e08075;
      }

      .cls-63 {
        fill: #4696db;
      }

      .cls-64 {
        fill: #d1d4d5;
      }

      .cls-65 {
        fill: #bbbdbe;
      }

      .cls-66 {
        fill: #e4e7e8;
      }

      .cls-67 {
        fill: #eee;
      }

      .cls-68 {
        fill: #1f100d;
      }

      .cls-69 {
        fill: #e5e7e9;
      }

      .cls-25 {
        stroke: #c1c2c2;
        stroke-width: .67px;
      }

      .cls-70 {
        fill: #ffa471;
      }

      .cls-71 {
        fill: #c02e2e;
      }

      .cls-72 {
        fill: #3b211c;
      }

      .cls-73 {
        opacity: .39;
      }

      .cls-74 {
        fill: #3a3738;
      }

      .cls-75 {
        fill: #e6e8e9;
      }

      .cls-76 {
        fill: #6bafed;
      }

      .cls-77 {
        fill: #393333;
      }

      .cls-78 {
        fill: #006b6b;
      }

      .cls-79 {
        fill: #3a4950;
      }

      .cls-80 {
        fill: #ff9a72;
      }

      .cls-13 {
        opacity: .73;
      }

      .cls-81 {
        fill: #6b6b6b;
      }

      .cls-82 {
        fill: #006695;
      }

      .cls-83 {
        clip-path: url(#clippath-2);
      }

      .cls-84 {
        fill: #f49485;
      }

      .cls-85 {
        fill: #c6c6c6;
      }

      .cls-86 {
        fill: #004c6f;
      }

      .cls-87 {
        fill: #171e21;
      }

      .cls-88 {
        fill: #bdbfc0;
      }

      .cls-89 {
        fill: #005b89;
      }

      .cls-26 {
        stroke: #a8abad;
        stroke-width: .52px;
      }

      .cls-90 {
        fill: #ededed;
      }

      .cls-91 {
        fill: #dcdedf;
      }

      .cls-92 {
        fill: url(#linear-gradient);
      }

      .cls-93 {
        fill: #e5e9e8;
      }

      .cls-94 {
        fill: #2a0905;
      }

      .cls-95 {
        clip-path: url(#clippath);
      }

      .cls-96 {
        fill: #f7f7f7;
      }

      .cls-97 {
        fill: #cc665d;
      }

      .cls-98 {
        fill: #f4f6f5;
      }
    </style>
    <clipPath id="clippath">
      <rect class="cls-24" y="-572.47" width="500" height="500"/>
    </clipPath>
    <linearGradient id="linear-gradient" x1="121.81" y1="237.35" x2="127.12" y2="237.35" gradientUnits="userSpaceOnUse">
      <stop offset="0" stop-color="#b1b2b6"/>
      <stop offset=".12" stop-color="#b4b5b9"/>
      <stop offset=".23" stop-color="#c0c0c4"/>
      <stop offset=".34" stop-color="#d3d3d5"/>
      <stop offset=".45" stop-color="#ededee"/>
      <stop offset=".51" stop-color="#fff"/>
      <stop offset=".55" stop-color="#e9eaeb"/>
      <stop offset=".6" stop-color="#d1d2d4"/>
      <stop offset=".66" stop-color="#bfc0c2"/>
      <stop offset=".73" stop-color="#b1b3b6"/>
      <stop offset=".82" stop-color="#aaacaf"/>
      <stop offset="1" stop-color="#a8aaad"/>
    </linearGradient>
    <linearGradient id="linear-gradient-2" x1="82.33" y1="213.5" x2="87.64" y2="213.5" xlink:href="#linear-gradient"/>
    <clipPath id="clippath-1">
      <path class="cls-24" d="M304.34,203.52h-157.13l-6.11,60.1h168.74l-5.49-60.1ZM189.93,250.19c-14.81.05-19.77-6.57-21.42-11.8.93-.82,3.21-3.15,3.21-6.22s-2.25-4.76-3.18-5.34c1.74-5.78,7.11-13.68,23.71-11.63,24.35,3.02,24.09,17.1,24.09,17.1,0,3.44-3.19,17.8-26.4,17.89ZM260.56,250.19c-23.21-.09-26.4-14.45-26.4-17.89,0,0-.26-14.08,24.09-17.1,16.6-2.05,21.97,5.85,23.71,11.63-.94.58-3.18,2.29-3.18,5.34s2.28,5.4,3.21,6.22c-1.64,5.24-6.61,11.85-21.42,11.8Z"/>
    </clipPath>
    <clipPath id="clippath-2">
      <rect class="cls-24" x="37.14" y="127.89" width="35.61" height="25.64"/>
    </clipPath>
  </defs>
  <g class="cls-51">
    <g id="Layer_3" data-name="Layer 3">
      <g class="cls-95">
        <g>
          <g>
            <path class="cls-42" d="M-31.41,252H56.58c6.7-32.39,12.14-70.39,18.49-119.22,7.32-57.35,15.86-93.96,15.86-93.96,0,0,22.69,53.7,21.97,95.19-.6,34.77-3.05,32.94-7.32,61.63-3.02,20.33-5.13,33.62-7.84,56.36h306.13c-2.71-22.74-4.81-36.03-7.84-56.36-4.27-28.69-6.71-26.86-7.32-61.63-.73-41.49,21.96-95.19,21.96-95.19,0,0,8.55,36.61,15.87,93.96,6.35,48.83,11.79,86.83,18.49,119.22h87.98c-4.34-64.91-8.11-83.77-21.06-121.65-14.52-42.54-14.03-54.92-14.03-85.43,4.27-50.64-4.07-86.23-3.26-103.74.81-17.48,8.54-31.31-4.47-85.01-17.49-64.69-45.97-72.41-72.51-83.99-26.54-11.6-66.51-29.3-90.3-40.58-23.8-11.29-24.07-12.64-24.07-25.01s1.79-33.3,1.79-33.3l-109.08-.03s2.27,20.95,2.27,33.33-.27,13.71-24.06,25.01c-23.8,11.28-63.77,28.98-90.3,40.58-26.55,11.58-55.03,19.31-72.52,83.99C-1.61-90.13,6.12-76.3,6.93-58.81,7.74-41.31-.6-5.72,3.68,44.92c0,30.51.49,42.88-14.04,85.43-12.93,37.88-16.71,56.74-21.05,121.65Z"/>
            <path class="cls-19" d="M437.84,142.26c-5.75-100.58-30.65-196.37-54.6-240.42,0,0,23.95,93.39-17.73,172.4-16.6,38.31-5.94,92.54,13.77,177.76h24.57c-2.71-22.74-4.81-36.03-7.84-56.36-4.27-28.69-6.71-26.86-7.32-61.63-.73-41.49,21.96-95.19,21.96-95.19,0,0,8.55,36.61,15.87,93.96,6.35,48.83,11.79,86.83,18.49,119.22h10.42c-9.93-41.54-16.04-82.59-17.6-109.74Z"/>
            <path class="cls-19" d="M-31.41,252h13.17C-5.58,162.46,22.52,94.35,23.84,70.65,15.93,6,38.21-42.14,31.74-73.75c-19.39-129.31,65.06-137.41,104.28-154.39,39.24-16.98,74.97-31.62,74.97-48.6v-16.98s34.06,20.54,78.73,0v16.98c0,16.98,35.72,31.62,74.96,48.6,39.23,16.98,123.67,25.08,104.28,154.39-6.47,31.61,15.8,79.75,7.9,144.4,1.32,23.7,29.41,91.8,42.07,181.35h14.06c-4.34-64.91-8.11-83.77-21.06-121.65-14.52-42.54-14.03-54.92-14.03-85.43,4.27-50.64-4.07-86.23-3.26-103.74.81-17.48,8.54-31.31-4.47-85.01-17.49-64.69-45.97-72.41-72.51-83.99-26.54-11.6-66.51-29.3-90.3-40.58-23.8-11.29-24.07-12.64-24.07-25.01s1.79-33.3,1.79-33.3l-109.08-.03s2.27,20.95,2.27,33.33-.27,13.71-24.06,25.01c-23.8,11.28-63.77,28.98-90.3,40.58-26.55,11.58-55.03,19.31-72.52,83.99C-1.61-90.13,6.12-76.3,6.93-58.81,7.74-41.31-.6-5.72,3.68,44.92c0,30.51.49,42.88-14.04,85.43-12.93,37.88-16.71,56.74-21.05,121.65Z"/>
            <path class="cls-19" d="M105.57,195.64c-3.02,20.33-5.13,33.62-7.84,56.36h23.7c19.72-85.22,30.36-139.45,13.77-177.76C93.53-4.77,117.47-98.16,117.47-98.16c-23.94,44.05-48.86,139.84-54.6,240.42-1.54,27.15-7.66,68.2-17.59,109.74h11.3c6.7-32.39,12.14-70.39,18.49-119.22,7.32-57.35,15.86-93.96,15.86-93.96,0,0,22.69,53.7,21.97,95.19-.6,34.77-3.05,32.94-7.32,61.63Z"/>
            <path class="cls-24" d="M23.84,70.65c-1.32,23.7-29.41,91.8-42.07,181.35h63.51c9.93-41.54,16.05-82.59,17.59-109.74,5.74-100.58,30.66-196.37,54.6-240.42,0,0-23.94,93.39,17.73,172.4,16.59,38.31,5.94,92.54-13.77,177.76h257.86c-19.72-85.22-30.37-139.45-13.77-177.76,41.68-79.02,17.73-172.4,17.73-172.4,23.95,44.05,48.85,139.84,54.6,240.42,1.55,27.15,7.66,68.2,17.6,109.74h63.51c-12.66-89.54-40.75-157.65-42.07-181.35,7.9-64.65-14.37-112.79-7.9-144.4,19.39-129.31-65.05-137.41-104.28-154.39-39.24-16.98-74.96-31.62-74.96-48.6v-16.98c-44.68,20.54-78.73,0-78.73,0v16.98c0,16.98-35.72,31.62-74.97,48.6-39.23,16.98-123.67,25.08-104.28,154.39,6.47,31.61-15.81,79.75-7.9,144.4Z"/>
            <path class="cls-24" d="M23.84,70.65c-1.32,23.7-29.41,91.8-42.07,181.35h63.51c9.93-41.54,16.05-82.59,17.59-109.74,5.74-100.58,30.66-196.37,54.6-240.42,0,0-23.94,93.39,17.73,172.4,16.59,38.31,5.94,92.54-13.77,177.76h257.86c-19.72-85.22-30.37-139.45-13.77-177.76,41.68-79.02,17.73-172.4,17.73-172.4,23.95,44.05,48.85,139.84,54.6,240.42,1.55,27.15,7.66,68.2,17.6,109.74h63.51c-12.66-89.54-40.75-157.65-42.07-181.35,7.9-64.65-14.37-112.79-7.9-144.4,19.39-129.31-65.05-137.41-104.28-154.39-39.24-16.98-74.96-31.62-74.96-48.6v-16.98c-44.68,20.54-78.73,0-78.73,0v16.98c0,16.98-35.72,31.62-74.97,48.6-39.23,16.98-123.67,25.08-104.28,154.39,6.47,31.61-15.81,79.75-7.9,144.4Z"/>
          </g>
          <g class="cls-43">
            <g>
              <path class="cls-42" d="M90.92,38.82s.7-7.22,2.08-17.98c.74-5.38,1.48-11.68,2.5-18.37,1.01-6.71,2.1-13.86,3.18-21.02,1.21-7.13,2.42-14.27,3.56-20.95,1.12-6.68,2.39-12.93,3.38-18.26.51-2.67.94-5.12,1.51-7.26.64-2.13,1.2-3.99,1.66-5.52.5-1.52,1.15-2.62,1.47-3.4.38-.76.71-1.09.68-1.1,0,0-.26.37-.54,1.17-.24.82-.7,1.96-1.07,3.49-.31,1.54-.7,3.41-1.15,5.54-.36,2.17-.57,4.67-.96,7.35-.76,5.38-1.48,11.63-2.52,18.35-1.01,6.71-2.1,13.86-3.18,21.02-1.21,7.13-2.42,14.27-3.56,20.95-1.13,6.7-2.4,12.91-3.37,18.25-2.06,10.67-3.67,17.75-3.67,17.75Z"/>
              <path class="cls-42" d="M72.66,99.23s.53,2.8.97,7.01c.44,4.21.88,9.82,1,15.44.15,5.62-.02,11.24-.26,15.46-.24,4.23-.64,7.05-.64,7.05,0,0-.53-2.8-.98-7.01-.44-4.2-.88-9.82-.99-15.43-.15-5.63.02-11.25.27-15.47.24-4.22.64-7.05.64-7.05Z"/>
            </g>
            <g>
              <path class="cls-42" d="M409.8,38.82s-1.6-7.08-3.66-17.75c-.98-5.35-2.24-11.55-3.37-18.25-1.14-6.69-2.35-13.82-3.56-20.95-1.08-7.15-2.16-14.31-3.18-21.02-1.03-6.72-1.75-12.97-2.51-18.35-.4-2.68-.62-5.18-.97-7.35-.45-2.13-.83-4-1.15-5.54-.37-1.53-.83-2.68-1.07-3.49-.28-.8-.54-1.17-.54-1.17-.03.01.3.34.68,1.1.32.78.96,1.88,1.47,3.4.46,1.53,1.02,3.39,1.67,5.52.56,2.14.99,4.59,1.51,7.26.99,5.33,2.26,11.58,3.38,18.26,1.13,6.69,2.34,13.82,3.55,20.95,1.08,7.15,2.17,14.31,3.18,21.02,1.02,6.7,1.76,12.99,2.5,18.37,1.38,10.76,2.07,17.98,2.07,17.98Z"/>
              <path class="cls-42" d="M428.06,99.23s.39,2.82.64,7.05c.24,4.21.42,9.84.27,15.47-.11,5.62-.54,11.23-.99,15.43-.44,4.2-.97,7.01-.97,7.01,0,0-.4-2.82-.65-7.04-.24-4.22-.41-9.85-.26-15.47.12-5.62.55-11.23.99-15.44.44-4.2.97-7.01.97-7.01Z"/>
            </g>
          </g>
        </g>
      </g>
    </g>
    <g id="Layer_8" data-name="Layer 8">
      <g>
        <path class="cls-27" d="M414.5,277.39c28.63,33.8,60.88,59.18,48.58,104.3-4.61,16.9-12.45,33.84-15.2,51.02-1.36,8.48-5.69,18.99-4.32,29.84l-405.7,7.35c22.94-20.52,34.18-57.56,32.65-83.42-1.85-31.12-27.33-52.43-43.19-78.8-7.99-13.28-13.54-29.29-11.83-44.29,1.99-17.44,17.54-31.75,26.04-47.5,18.41-34.13,23.44-65.85,22.87-102.35-1.01-64.59,60.71-86.48,128.69-91.51,38.25-2.83,76.66-2.15,114.56-6.66,33.55-3.99,66.09-9.9,100.06-11.19,35.32-1.35,63.63,6.92,72.13,36.99,8.08,28.61-3.71,52.6-19.85,77.8-31.59,49.32-92.75,102.64-45.49,158.43Z"/>
        <path class="cls-90" d="M33.12,467.08c0,9.15,101.77,16.56,227.3,16.56s227.3-7.41,227.3-16.56-101.77-16.56-227.3-16.56-227.3,7.41-227.3,16.56Z"/>
        <g>
          <g>
            <g>
              <g>
                <path class="cls-80" d="M280.76,463.64c2.06-4.56,1.04-12.19,1.3-18.07.18-4.19.6-15.23,1.13-18.57l-9.27,10.18c-.35,2.83-.79,14.32-.11,25.36l6.96,1.1Z"/>
                <path class="cls-29" d="M280.42,453.79c2.32-3.35,4.42,3.2,4.95,4.72.62,1.8,3.96,2.42,5.14,3.58,2.09,2.04,5.83,2.5,4.09,7.24-7.63.75-17.24.57-22.09-.94-2.09-.65-.82-6.11.55-11.39.7-2.69,2.92,3.21,7.36-3.21Z"/>
                <path class="cls-78" d="M306.1,276.1c-1.29,2.26-3.58,3.91-3.84,7.14-1.83,22.9-6.93,75.47-10.85,115.17-2.67,27.13-4.79,48.26-4.93,49.79-1.03.92-7.59-.24-8.96-.29-1.02-.03-6.04.53-6.81-.22-.47-5.23-4.89-158.92-5.08-171.13,0-.15,0-.31,0-.48h40.47Z"/>
              </g>
              <g>
                <g>
                  <path class="cls-80" d="M326.33,463.88c1.94-4.61.72-12.21.82-18.1.07-4.19.2-15.24.64-18.59l-9,10.43c-.28,2.84-.41,14.34.56,25.35l6.98.92Z"/>
                  <path class="cls-29" d="M325.73,454.04c2.23-3.41,4.51,3.09,5.07,4.58.67,1.78,4.02,2.32,5.23,3.44,2.14,1.98,5.9,2.35,4.28,7.13-7.61.95-17.22,1.03-22.1-.35-2.1-.59-.98-6.09.25-11.4.63-2.71,3,3.13,7.27-3.4Z"/>
                  <path class="cls-78" d="M331.13,406.21c-1,22.06-1.75,38.74-1.75,41.59l-15.75.92c-3.64-20.04-9.83-108.25-12.49-147.16-.7-10.2-1.15-17.01-1.25-18.32-.1-1.34.56-6.74.48-8.09-.25-4.07-3.75-1.96-3.52-5.93.16-2.78,1.66-5.98,1.94-8.81.08-.75.07-1.47-.07-2.15l1.49.54,4.06,1.46,31.29,11.55c1.26,7.78-2.19,84.72-4.43,134.39Z"/>
                </g>
                <path class="cls-32" d="M331.13,406.21c-1,22.06-1.75,38.74-1.75,41.59l-15.75.92c-3.64-20.04-9.83-108.25-12.49-147.16,2.37-6.13.77-15.19,3.87-20.66,1.52,19.89,3.19,39.77,5.37,59.77,1.35,12.48,2.99,24.84,5.23,37.1,1.59,8.7,2.73,19.14,9.49,25.8,2.14,2.11,4.09,2.74,6.03,2.65Z"/>
              </g>
              <path class="cls-32" d="M291.42,398.41c-2.67,27.13-4.79,48.26-4.93,49.79-1.03.92-7.59-.24-8.96-.29-1.02-.03-6.04.53-6.81-.22-.47-5.23-4.89-158.92-5.08-171.13,0-.15,0-.31,0-.48h12.57c-3.36,18.6-5.61,37.53-5.61,56.88,0,10.62.1,21.29.63,31.71.5,9.7-1.91,23,4.28,31.11,3.15,4.12,9.17,4.77,13.9,2.62Z"/>
            </g>
            <g>
              <path class="cls-68" d="M314.45,111.66c-.45-3.56-2.56-6.6-3.05-10.07l-9.31-5.17c-.87,9.69-12.33,14.71-19.08,20.95-9.76,9.03-2.27,18.79,4.09,27.06-1.71-8.29,5.77-14.15,12.92-15.96,5.21-1.31,8.44-2.55,11.69-7.24,2.03-2.92,3.21-5.86,2.74-9.57Z"/>
              <path class="cls-70" d="M318.31,277.52c1.53-16.26,4.76-41.86,4.78-52.14.06-24.73-4.82-31.47-1.2-48.88.15-.72.44-.99.77-1.07l21.64,3.3c1.34,18.4-.35,29.31-.57,36-.47,14.45-9.87,45.74-16.54,62.78h-8.9Z"/>
              <path class="cls-56" d="M347.02,178.85c-.21,3.46-2.28,3.86-3.98,7.2-.06.11-.12.22-.17.33-.05.09-.1.18-.14.27-.95,1.72-2.54,4.18-2.88,5.74-.23,1.04-.42,2.43-.59,4.1-8.83,32.44-.36,70.73-.36,83.41-24.73,6.66-46.51,5.71-75.62,2.38,1.43-24.73,11.17-49.3,11.89-63.25.37-7.26-.31-15.82-1.4-24.57-3.05-24.5-9.29-50.48-4.31-53.43,5.94-3.52,25.03-9.85,30.17-11.76,0,0,36.29,9.91,38.79,13.66,1.67,2.51,3.76,7.87,3.33,10.46-.51,3.01,5.64,19.5,5.28,25.47Z"/>
              <path class="cls-70" d="M283.94,278.95c-1.53-16.26-4.76-41.86-4.78-52.14-.06-24.73,4.82-31.47,1.2-48.88-.15-.72-.44-.99-.77-1.07l-21.64,3.3c-1.34,18.41.35,29.31.57,36,.47,14.45,9.87,45.74,16.54,62.78h8.9Z"/>
              <path class="cls-56" d="M334.37,194.97c-3.13-7.96-6.19-15.88-8.42-24.16-1.01-3.73-1.73-7.87-2.16-11.68-.41-3.63.56-7.56-.81-10.91l.35-6.83c3.91-3.92,11.54-1.22,13.73.34,4.55,3.24,7.25,10.03,9.5,14.99,4.39,9.66,7.97,20.14,10.92,30.56l-23.12,7.68Z"/>
              <g>
                <path class="cls-70" d="M319.05,167.14c-11.9-23.16-21.7-29.94-24.9-37.43,2.96-2.33,4.78-4.64,6.64-7.74.67-1.11,1.31-2.24,1.93-3.39,2.3-4.23,4.21-8.63,5.77-13.18.03-.09.06-.19.09-.29l16.53,13.29c-2.84,4.3-5.88,11.04-4.57,15.89.18.66,4.47,2.81,4.46,2.92-.09,1.46-5.18,10.89-5.97,29.92Z"/>
                <path class="cls-35" d="M323.44,136.48c-.51.05-2.38.12-2.92.14-9.14.23-15.99-7.96-19.72-14.64.67-1.11,1.31-2.24,1.93-3.39,2.3-4.23,4.21-8.63,5.77-13.18.03-.09.06-.19.09-.29l16.53,13.29c-2.84,4.3-4.69,9.2-3.38,14.05.18.66,1.01,3.24,1.69,4.02Z"/>
              </g>
              <path class="cls-31" d="M343.03,186.05c-.06.11-.12.22-.17.33-.05.09-.1.18-.14.27-.7,1.35-1.22,2.75-1.69,4.09-.66,1.89-1.25,3.81-1.78,5.75-8.83,32.44-.36,70.73-.36,83.41-24.73,6.07-46.51,5.42-75.62,2.38,1.43-22.55,11.83-49.65,13.32-62.31.95-8.09-1.74-20.92-2.82-28.89.46-2.45.77-4.98.93-7.61.52-9.14-1.35-18.3-1.08-27.17-.01-.01-.02-.03-.03-.04.11.12.42.47.53.51,1.61.62,4.19,7.96,5.22,9.45,2.93,4.22,6.48,17.68,10.58,20.93,7.72,6.09,17.12,6.66,29.96,6.66,11.13,0,15.7-3.33,23.17-7.77Z"/>
              <path class="cls-56" d="M275.93,195.87c1.61-8.39,3.17-16.74,3.96-25.28.36-3.84.41-8.04.24-11.85-.16-3.63-1.55-7.29-.83-10.84l-1.78-8.31c-3.97-3.08-11.62,3.28-13.32,5.23-3.52,4.05-4.68,10.83-5.71,16.17-2.38,12.37-2.74,21.04-3.86,31.82l21.29,3.05Z"/>
              <g>
                <path class="cls-72" d="M335.08,77.05c-7.93-9.68-16.03-2.45-25.12-3.91l4.36,7.69c5.76-.59,12.37-1.02,16.41,3.84,3.73,4.47,3.97,10.78,3.86,16.42.11-.21.27-.62.34-.81.93-2.45,2.33-5.21,3.36-8.81,1.44-5.05.23-10.22-3.21-14.42Z"/>
                <path class="cls-70" d="M334.79,102.02c-.23-4.85,1.21-10.63-.51-15.26-.85-2.27-3.52-4.93-5.38-6.48-2.92-2.44-5.97-5.27-10.23-5.03-3.73.21-8.53,1.81-11.86,3.7-9.16,5.19-11.79,18.13-9.09,27.24,1.26,4.24,1.82,9.54,5.01,13.05,2.75,3.03,6.83,6.16,10.35,8.23,3.96,2.32,9.1,4.71,12.82,1.22,3.28-3.08,4.65-7.57,6.58-11.5,2.33-4.74,2.56-9.8,2.31-15.18Z"/>
                <g>
                  <path class="cls-52" d="M316.48,104.55c-.12,1.42-2.07,2.41-4.35,2.22-2.28-.2-4.03-1.51-3.9-2.93.12-1.42,2.07-2.41,4.35-2.22,2.28.2,4.03,1.51,3.9,2.93Z"/>
                  <path class="cls-35" d="M307.18,104.95l.22.02c3.24,1.14,7.03,1.75,10.24-.07-1.37-5.27-10.31-5.86-10.46.05Z"/>
                </g>
                <g>
                  <path class="cls-52" d="M334.24,104.01c-.07,1.42-1.46,2.51-3.1,2.43-1.64-.08-2.91-1.31-2.84-2.73.07-1.42,1.46-2.51,3.11-2.43,1.64.08,2.91,1.31,2.84,2.73Z"/>
                  <path class="cls-35" d="M327.39,104.86h.16c2.41.99,5.21,1.42,7.55-.55-1.07-5.19-7.67-5.36-7.71.55Z"/>
                </g>
                <path class="cls-35" d="M321.03,113.6l-.12.21c1.96,2.26,5.04,1.73,5.88-1.31-1.85,1.44-3.54,1.21-5.76,1.1Z"/>
                <g>
                  <path class="cls-52" d="M307.36,98.65s0,0,.01-.01c0,0-.01,0-.02,0-.04.04-.04.04,0,0Z"/>
                  <path class="cls-52" d="M318,97.6s-5.99-3.54-10.63,1.04c2.1-.37,3.55-.36,5.71.11,1.47.33,4.86,1.5,4.92-1.15Z"/>
                </g>
                <path class="cls-72" d="M327.38,82.39c-.49.67-1,1.28-1.53,1.83-7.25,7.66-17.53,5.49-19.6,10.77-2.63,6.73-5.64,12.29-12.34,14.87,2.1-4.49-1.14-9.44-1.78-13.76-.68-4.63-.1-10.5,2.49-14.49,0-.02.02-.03.03-.05,2.54-3.91,7.21-8.13,11.74-8.96,5.4-.99,10.31-.02,14.48,2.35,3.67,2.09,5.47,5.16,6.16,6.61.05.12.1.22.14.31.14.32.21.51.21.51Z"/>
                <g>
                  <path class="cls-52" d="M335.85,97.84s0,0-.01-.01c0,0,0,0,.02,0,.04.03.04.03,0,0Z"/>
                  <path class="cls-52" d="M326.63,98.45s4.47-4.41,9.21-.62c-1.85-.04-3.08.19-4.83.99-1.2.55-3.87,2.23-4.38-.38Z"/>
                </g>
                <g>
                  <path class="cls-53" d="M318.11,120.04c1.51.86,3.21,2.94,5.03,2.96,1.79.02,3.27-2.22,3.32-3.61l-8.35.65Z"/>
                  <path class="cls-38" d="M327.63,119.48c-1.06-.8-.67-1.72-2-1.35-1.4.39-1.84.32-3,.09-1.56-.31-4.47,1.05-6.02,1.64,2.04.32,4.78.39,5.6.39,1.69,0,4-.08,5.43-.77Z"/>
                </g>
                <path class="cls-52" d="M324.47,80.38s-.02-.01-.04-.02c0,.02,0,.03.01.04.13.1.14.09.02-.03Z"/>
                <path class="cls-72" d="M332.92,87.42c-1.25-1.64-2.45-4.81-3.34-6.77-2.38-5.29-5.1-7.34-10.77-7.79l-4.04,7.14c6.64-.68,9.2-1.22,11.75,4.66.93,2.14,3.82,6.31,6.5,6.28,2.88-.03,3.9-1.9,3.89-4.33-.32,1.93-2.5,2.78-3.99.83Z"/>
                <g>
                  <path class="cls-68" d="M327.53,81.11s0,.01,0,.02c0,0,.01,0,.02-.01.07-.09.06-.09,0,0Z"/>
                  <path class="cls-68" d="M327.52,81.13c-.11.26-.23.51-.35.76-.41.85-.85,1.63-1.32,2.34-7.25,7.66-17.53,5.49-19.6,10.77-2.63,6.73-5.64,12.29-12.34,14.87,2.1-4.49-1.14-9.44-1.78-13.76-.68-4.63-.1-10.5,2.49-14.49,0-.02.02-.03.03-.05-1.27,4.19-.76,8.16-.34,12.59.41-4.6,3.94-11.76,8.6-13.35-3.12,2.7-2.65,7.56-2.97,11.25,4.57-10.77,19.6-4.15,27.09-10.49.17-.14.33-.29.49-.44Z"/>
                </g>
                <g>
                  <path class="cls-70" d="M292.42,109.85c1.24,3.94,3.95,6.6,6.05,5.94,2.1-.66,2.8-4.39,1.56-8.33-1.24-3.94-3.95-6.6-6.05-5.94-2.1.66-2.8,4.39-1.56,8.33Z"/>
                  <path class="cls-35" d="M293.18,107.35c-1.45-4.25,4.11-5.43,5.4-.89-2.82-1.04-1.58,4.5.92,4.55l.45-.14c-1.43,5.25-8.44-3.7-3.78-5.48-1.44-.63-2.89.32-3,1.96Z"/>
                </g>
              </g>
            </g>
          </g>
          <g>
            <path class="cls-96" d="M373.99,121.98c-16.39,3.22-13.17,40.28-16.39,57.2-1.76,9.25,3.35,5.15,2.44,14.45-.53,5.41-2.84,17.98,4.06,20.14,15.16,4.75,19.29-35.7,19.34-44.09l-9.45-47.7Z"/>
            <g>
              <path class="cls-29" d="M356.05,169.29c2.86,5.58-3.84,41.45.1,48.19,3.72,6.37,10.93,3.61,14.99.07,5.81-5.07,7.25-13.97,10.8-20.85l-25.88-27.41Z"/>
              <path class="cls-29" d="M355.41,168.61l.64.68c-.18-.34-.39-.58-.64-.68Z"/>
            </g>
            <g>
              <path class="cls-70" d="M342.69,159.45c-7.89-1.36,1.85,10.43,3.32,8.91l4.94,1.29c1.54-2.75-4.81-9.61-8.26-10.2Z"/>
              <path class="cls-70" d="M354.77,160.77c-2.74-1.56-5.17,5.03-6.45,6.07l4.5,1.33c1.51-.3,4.38-6.01,1.95-7.4Z"/>
              <path class="cls-87" d="M355.39,174.5c.18.35.03.78-.32.96h0c-.35.18-.78.03-.96-.32l-16.26-32.5c-.18-.35-.03-.78.32-.96h0c.35-.18.78-.03.96.32l16.26,32.5Z"/>
            </g>
            <path class="cls-57" d="M368.47,142.25c-.08,7.08-1.66,14.24-1.3,21.72.38,7.93-.64,16.4.09,24.08l4.83,1.21c0-16.02-3.63-30.91-3.63-47.01Z"/>
            <g>
              <g>
                <path class="cls-80" d="M388.57,432.95c.2,3.35,1.89,9.11,2.74,13.16.58,2.79.56,12.64,2.24,14.43,6.22,6.6,6.37-21.28,6.27-24.31l-11.25-3.27Z"/>
                <path class="cls-29" d="M399.52,453.31l-5.6-.71c-2.65-3.57-3.87.59-5,2.31-1.34,2.05-3.96,3.56-5.91,4.75-3.44,2.09-11.94,3.66-10.79,9.63,6.87.74,21.13.91,28.26-.09,3.07-.43.64-3.14-.07-7.87-.49-3.26-.26-4.86-.88-8.03Z"/>
                <path class="cls-89" d="M382.68,378.61c.15,4.72,1.18,15.03,2.41,26.13,1.91,17.31,4.29,36.55,4.52,39.57l10.2.09c2.72-12.67,4.75-25.84,7.06-38.34,1.3-7.07,2.64-14.25,3.63-21.5,1.86-13.58,2.52-27.37-.47-41.02-2.24-10.2,1.36-39.24,1.55-50.01.18-10.64-4.68-6.32-.4-15.87l-28.64,15.58c.81,7.95.95,15.96,1.6,24.03,1.98,24.55-2.27,36.23-1.46,61.34Z"/>
                <path class="cls-86" d="M385.09,404.74c1.91,17.31,4.29,36.55,4.52,39.57l10.2.09c2.72-12.67,4.75-25.84,7.06-38.34,1.3-7.07,2.64-14.25,3.63-21.5-.74,2.24-1.6,4.43-2.57,6.56-4.08,8.97-11.61,15.95-21.16,14.03-.55-.11-1.11-.25-1.67-.41Z"/>
              </g>
              <g>
                <path class="cls-80" d="M427.33,432.94c.09,3.36,1.59,9.18,2.31,13.26.49,2.81.15,12.66,1.77,14.51,6,6.85,7.06-21,7.06-24.04l-11.14-3.73Z"/>
                <path class="cls-29" d="M433.91,450.56c-3.95-.44-4.68,3.23-5.38,4.97-.83,2.07-2.19,2.7-3.48,3.93-2.28,2.15-8.07,3.89-7,9.83,4.78.6,16.74,1.05,21.62-.08,2.1-.49.74-2.07-1.11-7.25-1.1-3.06-.93-10.98-4.64-11.39Z"/>
                <path class="cls-89" d="M416.47,319.72c3.26,24.38-.37,36.31,1.77,61.33.54,6.31,2.27,15.3,3.96,24.15,1.53,8.05,3.03,15.98,3.56,21.68.42,4.57.96,13.79,1.6,18.72h11.43c2.05-12.83,3.39-26.11,5.03-38.73,1.11-8.51,2.25-17.19,2.81-25.9.78-12.3.39-24.66-2.94-36.71-2.77-10.04-1.35-35.72-1.74-46.48-.38-10.63-4.36-9.55-.58-19.37l-27.77,17.43c1.23,7.89,1.79,15.87,2.86,23.88Z"/>
                <path class="cls-86" d="M422.19,405.2c1.53,8.05,3.03,15.98,3.56,21.68.42,4.57.96,13.79,1.6,18.72h11.43c2.05-12.83,3.39-26.11,5.03-38.73,1.11-8.51,2.25-17.19,2.81-25.9-5.56,13.57-14.5,26-24.43,24.24Z"/>
              </g>
              <path class="cls-96" d="M450.64,224.84c.64,43.59,2.24,90.28,1.07,91.68-1,1.2-30.22,6.65-51.97.6-1.54-7.74-4.64-23.89-5.41-31.21-.02.07-.03.14-.05.21-.41,1.86-.78,4.09-1.12,6.51-1.16,8.36-1.86,19.04-1.89,25.1-7.86,3.02-12.82.98-16.92.6-.79-9-1.67-28.91-2.46-52.66-.18-5.42-.36-11.04-.52-16.78-1.59-54.51-2.55-119.51-.98-122.88,1.8-3.86,7.05-5.6,10.48-7.74,3.58-2.24,7.08-4.89,10.56-7.15l26.2-7.23,1.07-.3c3.37,2.08,7.28,3.8,10.74,5.2,3.06,1.23,5.75,2.21,7.39,2.96,5.02,2.31,11.17,4.22,15.11,8.46,7.87,8.48,1.56,23.96-.06,34.84-1.42,9.54-1.64,31.35-1.42,55.97.04,4.54.1,9.17.17,13.84Z"/>
              <g>
                <path class="cls-70" d="M422.71,106.26c-3.94,5.69-7.83,11.58-11.77,17.46-5.19,7.73-10.47,15.45-16.08,22.67-2.63-6.38-4.46-13.64-5.69-20.97-.47-2.77-.85-5.55-1.16-8.29-.36-3.15-.62-6.26-.81-9.25l16.55-17.45,5.61-5.92c-.29.65-.42,1.49-.42,2.43,0,1.49.33,3.25.84,4.96.69,2.34,1.72,4.58,2.7,5.92,2.58,3.52,6.88,6.04,10.22,8.44Z"/>
                <path class="cls-35" d="M402.01,118.66c-5.97,5.55-10.73,3.2-14-1.53-.36-3.15-.62-6.26-.81-9.25l16.55-17.45,5.19-3.49h.02c.4.93.7,2.7.82,4.96.41,7.56-1.18,20.63-7.77,26.75Z"/>
              </g>
              <path class="cls-22" d="M410.95,123.72c-5.19,7.73-10.47,15.45-16.08,22.67-2.63-6.38-4.46-13.64-5.69-20.97,3.73.97,8.65,1.03,11.33.88,3.75-.21,7.1-1.37,10.43-2.59Z"/>
              <g>
                <g>
                  <path class="cls-82" d="M383.78,158.94c-1.19,3.44-4.95,5.26-8.39,4.07-3.44-1.19-5.26-4.95-4.07-8.39.08-.22.16-.43.26-.64,1.41-3.02,4.91-4.54,8.13-3.43,3.22,1.12,5.02,4.48,4.26,7.73-.05.22-.12.45-.19.67Z"/>
                  <path class="cls-29" d="M383.98,158.27c-1.41,3.02-4.91,4.55-8.13,3.43-3.22-1.12-5.02-4.48-4.26-7.73,1.41-3.02,4.91-4.54,8.13-3.43,3.22,1.12,5.02,4.48,4.26,7.73Z"/>
                  <g>
                    <path class="cls-11" d="M382.73,156.88c-.79,2.29-3.29,3.5-5.58,2.7-2.29-.79-3.5-3.29-2.7-5.58.79-2.29,3.29-3.5,5.58-2.7,2.29.79,3.5,3.29,2.7,5.58Z"/>
                    <path class="cls-77" d="M380.95,156.27c-.45,1.31-1.88,2-3.19,1.55-1.31-.45-2-1.88-1.55-3.19.45-1.31,1.88-2,3.19-1.55,1.31.45,2,1.88,1.55,3.19Z"/>
                  </g>
                </g>
                <path class="cls-77" d="M379.57,122.54c2.88-2.94,5.29-2.68,6.17-3.32.16.66-2.32,2.16-2.87,2.66-.01.01.02.03.03.04-.89.68-1.68,1.44-2.21,2.28-2.77,4.47-2.49,10.31-2.12,15.34.42,5.63,1.38,11.34.83,16.99-.12,1.2-1.98,1.07-1.86-.12.31-3.21.09-6.45-.19-9.65-.5-5.64-1.4-11.49-.47-17.13.41-2.5.88-5.25,2.68-7.09Z"/>
              </g>
              <path class="cls-57" d="M429.59,108.42c-.05.12-.09.24-.14.36-1.71,4.39-4.17,10.89-6.28,15.03-1.08,2.11-2.1,5.35-4.46,5.76-1.94.34-4.65-1.89-6.59-2.07-.24,4.65,4.08,6.24.26,10.22-3.2,3.33-14.69,9.34-16.3,13.67-5.24,14.1-5.16,88.01-1.79,134.73-.41,1.86-.78,4.09-1.12,6.51-7.05-51.43-2.75-135.73-.43-141.91,3.23-8.61,21.69-40.24,24.91-46.83.35-.72.52-1.14.47-1.2l11.48,5.74Z"/>
              <path class="cls-57" d="M393.1,140.12c-.89-3.09-1.76-6.31-2.33-9.49-.91-5.06-3.06-13.65-1.73-18.65l-3.32-3.03c-2.94,6.19-6.32,13.71-7.51,20.06,1.38-.21,2.81-.03,4.18.03-1.5,1.92-3.47,3.5-3.44,5.79.03,2.13,1.83,5.46,3.24,7.22,2.97,3.7,8.24,5.95,12.62,6.66,1.01-2.15-1.08-6.39-1.71-8.59Z"/>
              <g>
                <path class="cls-94" d="M376.63,61.1h-9.43c-12.24,1.92-.95,17.97,3.61,23.53-1.29-8.66,1.07-16.18,5.82-23.53Z"/>
                <path class="cls-70" d="M407.75,80.06c-.85-8.26-1.93-18.58-7.66-25.32-5.29-6.23-18.1-6.2-24.43-1.81-2.09,1.45-5.6,4.75-6.13,7.29l-2.33,4.67c.36,4.04-.13,9.53.31,14,.44,4.51,1.97,7.96,3.42,12.02,2.9,8.13,5.82,14.49,12.02,20.94,7.29,7.58,15.4.37,19.54-4.96,8.17-10.5,6.17-17.89,5.25-26.84Z"/>
                <g>
                  <path class="cls-67" d="M397.46,82.14c-.21,1.32-1.09,2.42-2.24,3.18-2.5,1.66-6.25,1.7-6.97-1.11,0,0,.89-2.52,3.11-3.05.33-.08.66-.15.99-.22,1.74-.34,3.37-.36,5.11,1.2Z"/>
                  <path class="cls-54" d="M392.35,80.95c-.33.07-.66.14-.99.22-1.21.29-2.02,1.16-2.51,1.9.42.8.54,1.79.36,2.68,1.46,1.17,4.1.85,6.01-.42-.22-.66-.54-1.35-.94-2.02-.56-.94-1.23-1.74-1.92-2.35Z"/>
                  <path class="cls-35" d="M390.98,79.9c-2.22.53-2.73,4.31-2.73,4.31,1.75,2.1,8.37-.59,9.21-2.07-2.07-1.85-4.36-2.74-6.48-2.24Z"/>
                </g>
                <g>
                  <path class="cls-67" d="M378.79,86.37c.02,1.24-.58,2.26-1.46,2.96-1.92,1.52-5.16,1.5-6.21-1.16,0,0,.39-2.36,2.23-2.82.28-.07.55-.13.83-.19,1.46-.3,2.87-.28,4.61,1.21Z"/>
                  <path class="cls-54" d="M374.18,85.16c-.27.06-.55.12-.83.19-1,.25-1.57,1.06-1.89,1.75.49.76.74,1.7.72,2.53,1.44,1.13,3.68.87,5.15-.29-.3-.63-.67-1.28-1.13-1.92-.63-.9-1.34-1.66-2.03-2.25Z"/>
                  <path class="cls-35" d="M372.83,84.15c-1.85.46-1.71,4.02-1.71,4.02,1.84,2.01,7.17-.41,7.67-1.8-2.08-1.78-4.2-2.66-5.96-2.22Z"/>
                </g>
                <path class="cls-48" d="M386.6,80.59c1.73-.75,3.49-1.41,5.33-1.81,1.8-.39,3.64-.65,5.49-.71-.01-.81-.03-1.61-.03-2.42-2.26-.41-7.86.02-9.54.68-2.2.86-1.98,2.1-1.38,4.32.05-.02.09-.05.14-.07Z"/>
                <path class="cls-48" d="M376.76,82.43c-1.39-.19-2.79-.28-4.17-.1-1.36.18-2.7.49-4,1-.19-.77-.39-1.54-.58-2.31,1.47-1.08,5.48-2.37,6.82-2.26,1.75.15,1.91,1.39,2.05,3.69-.04,0-.08-.02-.11-.02Z"/>
                <path class="cls-35" d="M383.93,98.8c.78-4.08-1.02-11.69-1.02-11.69-.02,2.41.01,4.8-.24,7.19-.21,2.07-.92,4.06-1.32,6.13,2.39.96,7.33-.35,8.43-2.61-1.17-.2-3.97,0-5.85.99Z"/>
                <path class="cls-35" d="M379.35,102.97s.06.05.16.13c.11.08.26.2.48.33.21.13.48.27.79.41.31.13.68.26,1.08.37.8.22,1.77.38,2.8.39.26,0,.52,0,.77-.03.26-.02.5-.06.79-.1.51-.09,1.06-.22,1.59-.39.53-.16,1.05-.35,1.56-.56.51-.21.99-.44,1.46-.69.92-.49,1.74-1.03,2.39-1.57.32-.27.61-.53.84-.78.23-.25.42-.48.57-.69.14-.21.25-.37.31-.49.06-.12.1-.19.1-.19,0,0-.01.07-.03.21-.03.13-.07.34-.17.58-.09.24-.22.54-.42.85-.19.31-.43.65-.73.99-.59.68-1.39,1.37-2.34,1.98-.47.3-.98.58-1.52.83-.53.25-1.1.46-1.67.64-.58.17-1.16.31-1.77.39-.27.04-.6.07-.89.07-.3,0-.59,0-.88-.03-.57-.05-1.11-.15-1.61-.29-.5-.14-.96-.31-1.37-.5-.41-.19-.77-.41-1.07-.62-.3-.21-.54-.43-.72-.62-.18-.19-.3-.36-.38-.47-.07-.12-.11-.18-.11-.18Z"/>
                <path class="cls-41" d="M406.77,82.85c-1.48-4.11-7.89-15.51-10-18.99-2.72-4.48-5.71-.14-8.77,1.61-19.93,11.38-24.79.89-26.05-2.92-.8-2.39,1.08-5.27,3.45-7.74,1.8-1.87,3.88-3.51,5.3-4.51,9.04-6.42,21.59-7.52,30.34-5.25,7.32,1.9,10.93,6.56,12.31,11.99,2.86,11.22-3.75,25.7-6.57,25.81Z"/>
                <path class="cls-94" d="M406.77,82.85c-1.48-4.11-7.89-15.51-10-18.99-2.72-4.48-5.71-.14-8.77,1.61-19.93,11.38-24.79.89-26.05-2.92-.8-2.39,1.08-5.27,3.45-7.74.32,1.03.95,2.13,2.03,3.36,3.57,4.08,9.05,3.22,13.78,1.25,4.08-1.71,7.35-4.63,11.96-4.39,4.42.23,7.46,1.99,10.51,5.08.21-2.16-.93-4.35-2.24-6.04,2.49.27,6.19,2.18,7.19,4.44.83-1.38.68-3.43.04-4.96,1.68,1.56,2.76,3.3,3.67,5.42.4-.62.73-1.26,1.01-1.93,2.86,11.22-3.75,25.7-6.57,25.81Z"/>
                <g>
                  <path class="cls-70" d="M405.77,80.21c-.27.92-.36,3.8-.36,3.8-1.17,2.86.65,8.49,4.51,7.06,2.31-.85,3.87-5.42,4.49-7.61,2.53-8.88-6.53-10.46-8.65-3.26Z"/>
                  <path class="cls-35" d="M407.02,83.05c1.33-1.12,2.74.18,2.5,1.77-.2,1.31-3.02,1.41-3.02,1.41,1.23,1.44,4.24,1.3,5.1-1.23.65-1.92-1.24-5.86-3.47-3.81.03-1.78,2.78-4.51,4.41-2.75-2.64-3.35-7.05,1.36-5.52,4.61Z"/>
                </g>
              </g>
              <path class="cls-57" d="M400.4,165.53c0,1.58-.9,2.86-2.02,2.86s-2.02-1.28-2.02-2.86.9-2.86,2.02-2.86,2.02,1.28,2.02,2.86Z"/>
              <path class="cls-57" d="M400.4,219.41c0,1.58-.9,2.86-2.02,2.86s-2.02-1.28-2.02-2.86.9-2.86,2.02-2.86,2.02,1.28,2.02,2.86Z"/>
              <path class="cls-57" d="M400.4,263.14c0,1.58-.9,2.86-2.02,2.86s-2.02-1.28-2.02-2.86.9-2.86,2.02-2.86,2.02,1.28,2.02,2.86Z"/>
              <g>
                <polygon class="cls-87" points="351.17 196.45 333.34 165.73 335.14 163.99 390.36 165.56 408.62 216.88 406.4 219.73 351.17 196.45"/>
                <polygon class="cls-79" points="361.2 218.87 333.34 165.73 389.21 167.84 406.4 219.73 361.2 218.87"/>
              </g>
              <path class="cls-57" d="M450.64,224.84c-15.08,5-43.04-5.58-52.15-11.81l51.98-2.02c.04,4.54.1,9.17.17,13.84Z"/>
              <path class="cls-70" d="M389.49,198.29c-.54,1.5-.16,6.11-1.56,7.36-.99.88-20.35-.83-23.76-1.85-2.79-.83-5.38-1.2-7.97-2.12-.85-.3-1.69-.66-2.54-1.12-2.92-1.57-4.6-4.31-7.14-6.48-1.76-1.5-3.14-8.19-3.31-9.39-.01-.11-.02-.17-.01-.18.05.06.1.12.14.18,1.54,1.9,3.23,3.86,4.3,5.11.25.3.61.54,1.03.75,1.55.77,4.02,1.03,5.52,1.15,3.77.31,6.24.6,9.73,1.27-.42-1.69-9.81-7.57-7.19-9.73.56-.46,2.15.29,2.96.63,1.82.79,4.58,3.49,5.72,3.96,2.79,1.15,5.8.54,8.27,2.27,1.98,1.4,4.27,3.23,5,4.82l10.8,3.35Z"/>
              <path class="cls-29" d="M452.07,205.96c-3.76-14.44-16.13-13.67-28.67-12.31-6.5.71-35.24,4.88-38.27,1.43l-4.33,16.14c1.64,0,32.21,6.43,45.17,7.79,7.02.74,13.43.72,20.55.68,4.42-.02,8.94-1.87,9.59-6.27.45-3.07-3.31-4.68-4.03-7.46Z"/>
              <path class="cls-96" d="M456.9,125.2c-2.83-5.64-9.59-11.65-14.5-6.04-6.49,7.42-4.31,20.24-8,27.32l-1.66,13.69c-.83,7,.46,15.27.42,22.38-.05,8.06,1.8,16.61,4.67,24.09,1.7,4.44,8.66,13.18,14.43,11.12,5.3-1.89,5.5-13.32,5.71-17.85.32-7.14.59-14.35.94-21.5.5-10.12,1.21-20.24,1.22-30.37.01-7.73.29-15.84-3.22-22.85Z"/>
              <g>
                <path class="cls-77" d="M432.59,120.03c.15-1.46-.07-2.95-.38-4.38-.36-1.68-.98-2.41-1.61-4.01-.36-.9-.9-1.57-1.37-2.42-.2.75-.19,2.2,0,3.3.18.4,1.17,1.93,1.5,3.44.29,1.3.48,2.65.35,3.99-.1.97,1.42,1.05,1.52.08Z"/>
                <g>
                  <g>
                    <path class="cls-81" d="M421.38,150.82c-1.99.52-3.1,0-3.7-.61-1.37-1.36-1.44-4.22-.2-8.27.75-2.45,2.4-6.03,3.61-8.64.59-1.28,1.2-2.6,1.25-2.84-.01.07,0,.21.13.31l.51-.68c.28.22.12.61-.21,1.37-.23.54-.58,1.28-.97,2.13-1.2,2.59-2.84,6.13-3.57,8.52-1.13,3.68-1.12,6.33.03,7.47.8.8,2.21.83,4.08.08l.2.77c-.41.16-.79.29-1.15.38Z"/>
                    <path class="cls-81" d="M424.62,149.55c.1.77-.65,1.61-1.68,1.88-1.03.27-1.95-.14-2.06-.91-.1-.77.65-1.61,1.68-1.88,1.03-.27,1.95.14,2.05.91Z"/>
                  </g>
                  <g>
                    <path class="cls-81" d="M428.96,151.1c1.71.91,2.98.63,3.79.18,1.84-1.03,3-3.75,3.37-7.89.22-2.5,0-6.28-.15-9.03-.08-1.35-.16-2.74-.11-2.98-.01.07-.09.2-.24.27l-.23-.76c-.36.15-.35.56-.32,1.35.02.56.06,1.34.11,2.25.16,2.73.37,6.47.15,8.91-.33,3.76-1.36,6.31-2.9,7.16-1.08.6-2.44.34-3.95-.76l-.49.69c.33.24.65.44.95.6Z"/>
                    <path class="cls-81" d="M426.34,149.21c-.4.72,0,1.68.89,2.15.89.47,1.92.27,2.32-.45.4-.72,0-1.68-.89-2.15-.89-.47-1.93-.27-2.32.45Z"/>
                  </g>
                  <path class="cls-77" d="M436.5,134.95c-.05,0-.11,0-.16.02-.95.56-1.24.36-1.87.66-.01-.89-.08-1.7-.2-2.45-1.12-7.11-6.69-7.71-10.75-1.85-.58.84-1.13,1.81-1.63,2.91-.87-.42-.71-.31-1.6-.7,1.67-4.36,8.09-14.48,11.27-14.63,3.93-.19,4.44,11.47,4.94,16.04Z"/>
                  <g class="cls-18">
                    <path class="cls-82" d="M434.28,133.17c-1.12-7.11-6.69-7.71-10.75-1.85,1.81-3.7,6.02-10.51,7.87-10.6,2.63-.13,3.05,11.22,2.88,12.46Z"/>
                    <path class="cls-46" d="M434.09,134.55s.01.08,0,.13c-.13.86-.1.58,0-.13Z"/>
                  </g>
                </g>
              </g>
              <path class="cls-57" d="M448.45,203.23c-.67-5.1-5.01-12.92-10.08-14.78l2.82-50.76c-1.21,7.25-3.22,16.52-3.63,27.39-.3,8.06-3.65,22.54-5.24,24.57-2.57,3.29-30.16,5.44-35.05,6.85,7.56.81,36.96-3.33,39.38-1.91,2.27,1.33,4.35,5.99,5.66,8.24-.4-3.47-2.07-6.74-3.89-9.89,3.63,2.26,8.79,5.86,10.02,10.29Z"/>
              <g>
                <path class="cls-57" d="M421.49,250.64c.17.04.34.07.51.1.03-.24.06-.48.1-.71l-.6.6Z"/>
                <path class="cls-57" d="M422,250.75c-.67,6.47,4.07,18.59,12.05,19.97,10.71,1.85,10.69-13.43,11.49-20.62-6.78,2.43-16.21,2.14-23.54.65Z"/>
              </g>
              <path class="cls-57" d="M376.04,247.68c-.55,4.9-.71,13.55-4.15,17.98-.18-5.42-.36-11.04-.52-16.78,1.65-.29,3.22-.68,4.67-1.2Z"/>
            </g>
          </g>
        </g>
      </g>
      <g>
        <path class="cls-55" d="M108.25,169.97c-.07,0-.16,0-.26.01h0s.26-.01.26-.01Z"/>
        <path class="cls-55" d="M141.39,169.97h-.27.27Z"/>
        <rect class="cls-6" x="82.33" y="303.36" width="5.31" height="4.09"/>
        <rect class="cls-6" x="121.82" y="305.96" width="5.3" height="4.09"/>
        <path class="cls-6" d="M83.98,119.23h2.01c.91,0,1.65.74,1.65,1.65v2.43h-5.31v-2.43c0-.91.74-1.65,1.65-1.65Z"/>
        <path class="cls-6" d="M123.2,165.17h2.54c.76,0,1.38.62,1.38,1.38v2.7h-5.3v-2.7c0-.76.62-1.38,1.38-1.38Z"/>
        <rect class="cls-92" x="121.81" y="168.09" width="5.31" height="138.53"/>
        <rect class="cls-14" x="82.33" y="123.34" width="5.31" height="180.33"/>
        <polygon class="cls-69" points="88.53 141.72 88.53 159.04 81.68 159.04 81.68 155.4 74.06 155.4 74.06 145.12 81.68 145.12 81.68 141.72 88.53 141.72"/>
        <polygon class="cls-44" points="167 291.92 129.14 291.92 90.08 285.11 90.08 293.64 128.54 301.48 197.83 300.82 167 291.92"/>
        <rect class="cls-44" x="79.34" y="276.97" width="11.29" height="23.25"/>
        <rect class="cls-69" x="120.19" y="286.2" width="8.57" height="17.47"/>
        <rect class="cls-64" x="201.96" y="308.08" width="46.86" height="8.9"/>
        <rect class="cls-1" x="201.96" y="307.74" width="46.86" height="2.19"/>
        <rect class="cls-91" x="194.64" y="299.38" width="61.65" height="8.9"/>
        <polygon class="cls-61" points="144.22 203.52 148.3 203.52 144.22 261.98 305.96 261.98 301.71 203.52 305.96 203.52 313.76 261.98 313.76 268 136.08 268 136.08 262.87 144.22 203.52"/>
        <g>
          <path class="cls-20" d="M189.93,250.19c-14.81.05-19.77-6.57-21.42-11.8.93-.82,3.21-3.15,3.21-6.22s-2.25-4.76-3.18-5.34c1.74-5.78,7.11-13.68,23.71-11.63,24.35,3.02,24.09,17.1,24.09,17.1,0,3.44-3.19,17.8-26.4,17.89Z"/>
          <path class="cls-20" d="M260.56,250.05c14.81.05,19.77-6.57,21.42-11.8-.93-.82-3.21-3.15-3.21-6.22s2.25-4.76,3.18-5.34c-1.74-5.78-7.11-13.68-23.71-11.63-24.35,3.02-24.09,17.1-24.09,17.1,0,3.44,3.19,17.8,26.4,17.89Z"/>
          <g>
            <path class="cls-3" d="M242.19,261.86s-9.46.32-6.52-5.52,8.48-12.08,8.48-12.08l19.38-.55s1.26-.26,2.84,1.6c1.58,1.86,5.54,9.46,5.54,9.46,0,0,1.32,3.43-2.17,4.84-6.1,2.45-17.78,2.45-27.55,2.24Z"/>
            <path class="cls-28" d="M241.03,259.48s-3.54-1.2-.6-7.04,3.89-8.17,3.89-8.17l19.38-.55s1.26-.26,2.84,1.6c1.58,1.86,5.36,9.46,5.36,9.46.21,2.12.48,2.93-3.05,4-6.29,1.9-25.93,1.44-27.83.7Z"/>
          </g>
          <g>
            <path class="cls-59" d="M242.4,252.38s-2.58-.29-5.26,1.08c-1.72-4.08-1.49-4.39-1.49-4.39,0,0,5.75,1.48,6.75,3.32Z"/>
            <path class="cls-84" d="M227.35,245.83s.33-8.56,1.48-11.88c.35-1.46.95-1.87.95-1.87,0,0,1.87-.17,2.42-1.28s.11-2.14-.92-2.38c1.24-1.65.59-2.59-.38-2.47-.45-1.85-1.88-1.09-1.87-.95-.62-.76-1.77-.28-2.06.31-.89-.27-2.19,2.04-1.78,3.91.25,1.26.35,1.94.14,2.71-.21.77-6.15,10.52-6.15,10.52,0,0,1.05,3.59,2.68,4.11s5.48-.74,5.48-.74Z"/>
            <path class="cls-23" d="M231.28,228.42s-1.58-.83-2.43.26c-.84,1.09.71,1.3.71,1.3,0,0-1.69-.3-1.77.76"/>
            <path class="cls-23" d="M230.91,225.95s.11,1.62-.97,2.17"/>
            <path class="cls-23" d="M229.04,225s.26,2.68-1.22,2.63c-.33-.08-.47-.3-.47-.3"/>
            <path class="cls-23" d="M226.98,225.31s1,1.89-.02,2.45c-.9.51-1.05-.64-1.05-.64"/>
            <path class="cls-23" d="M229.25,228.33s-.63.26-1.02-.77"/>
            <path class="cls-84" d="M240.31,232.26c.68-.36,1.31-.82,1.87-1.34.54-.51,1.55-1.25,3.29-2,3.04-1.3,13.63-.68,16.44,10.19,2.56,9.61-6.34,15.66-16.09,14.48-6.37-1.46-11.68-5.22-13.1-8.99-1.42-3.77-1.97-10.06,2.86-11.06,2.72-.41,3.75-.77,4.74-1.28Z"/>
            <ellipse class="cls-84" cx="245.73" cy="252.87" rx="3.1" ry="3.91" transform="translate(-25.7 477.92) rotate(-85.48)"/>
            <path class="cls-12" d="M244.42,250.93c-.75-.06-1.46.06-2.08.3-.29.39-.47.84-.51,1.33-.13,1.71,1.5,3.23,3.66,3.4.75.06,1.46-.06,2.08-.3.29-.39.47-.84.51-1.33.13-1.71-1.5-3.23-3.66-3.4Z"/>
            <path class="cls-49" d="M244.39,240.5c.56,2.17,1.58,4.05,2.59,6.05-1.9-1.26-3.17-3.77-2.59-6.05h0Z"/>
            <path class="cls-49" d="M242.07,235.07c-.97-.71-1.5-2.06-1.08-3.21.45,1.14.82,2.02,1.08,3.21h0Z"/>
            <path class="cls-12" d="M248.94,239.87s1.52,2.19.84,5.04c-.21,1.04,1.64.25,1.59-2.43-.05-2.68-2.08-2.98-2.43-2.61Z"/>
            <path class="cls-12" d="M244.61,230.75c.5.44,1.39,1.37,1.73,2.58.05.17.29.2.38.05.78-1.35.06-2.7-1.98-2.9-.15-.01-.24.17-.12.27Z"/>
            <path class="cls-71" d="M236.76,237.69s.46,2.96,2.12,4.95c1.38,1.52.22,2.9-1.79.77-2.01-2.13-1.9-4.26-1.5-5.22.4-.95,1.06-1.06,1.17-.5Z"/>
            <path class="cls-49" d="M239.53,237.33s-1.64-.25.63,3.01c-1.66-.97-2.83-3.53-.63-3.01Z"/>
            <path class="cls-97" d="M195.59,220.91s.73.44.21,1.37c-.53.93-1.7,1.04-1.7,1.04,0,0,.65-2.07,1.49-2.41Z"/>
            <path class="cls-62" d="M194.1,220.09s.83-.39,1.33.42c.49.81-.04,1.73-.68,2.22-.71-1.04-.65-2.64-.65-2.64Z"/>
            <path class="cls-84" d="M205.43,233.31s-5.05-3.29-8.08-4.91c-3.03-1.62-3.16-2.83-3.22-3.88-.06-1.05.91-1.75.89-2.91-.01-1.16-1.76-2.75-2.41-.62-2.06,2.24-4.2,5.89-4.24,6.68-.05.8.63,1.47,2.9,2.45,2.27.98,5.99,6.49,6.43,7.28.43.79,7.73-4.09,7.73-4.09Z"/>
            <path class="cls-12" d="M205.43,233.31s-1.03-.67-2.43-1.55c-1.83.32-5.04,1.05-7.5,2.48,1.12,1.45,2,2.8,2.2,3.16.43.79,7.73-4.09,7.73-4.09Z"/>
            <path class="cls-97" d="M187.4,241.77s-.38-2.71-1.67-1.96c.26,1.3.56,2.68.56,2.68l1.1-.72Z"/>
            <path class="cls-62" d="M183.99,240.04s.57-1.15,1.4-1.02c.83.13,1.22,2.74,1.22,2.84,0,.1-2.62-1.82-2.62-1.82Z"/>
            <path class="cls-84" d="M233.03,245.37s6.86,2.68,5.49,9.4c-1.5,7.35-16.08,8.51-26.13,6.91s-16.79-6.43-16.24-10.61c.55-4.18,2.93-8.61,2.93-8.61,0,0-4.88,1.8-5.9,2.82-1.02,1.02-3.42,3.61-4.95,2.31-1.53-1.29-3.27-3.76-4.23-5.1-.96-1.34-.14-3.06.75-2.56.89.49,1.3,1.68,1.3,1.68,0,0,2.62-.25,4.16.17,1.6-1.27,3.93-4.7,5.37-6.1,1.45-1.4,10-5.74,13.04-.91,2.42,3.83,1.69,8.04,1.69,8.04,0,0,1.87-.41,3.24.07.71-5.17.17-6.69-.55-8.24-.72-1.54-.89-3.41.26-4.2.32-1.6,1.73-1.71,1.73-1.71,0,0,1.23-1.89,2.57-.81,1.22-.33,2.74.48,1.9,1.72l-.21.87s2.06.48,1.81,1.95c-.25,1.47-2.18,3.17-2.18,3.17,0,0,1.01,5.7,2.14,9.01,4.37.66,9.33.24,11.99.73Z"/>
            <g>
              <path class="cls-12" d="M215.02,249.28c-1.97-2.56-1.45-6.41-1.45-6.41-.34-.12-.72-.19-1.09-.21,0,0-.8,5.77,2.42,8.89,2.45,2.38,9.87,2.75,13.3,2.8-5.93-.22-11.38-2.74-13.18-5.07Z"/>
              <path class="cls-12" d="M228.2,254.35c.59.02,1.18.02,1.78,0,0,0-.69.02-1.78,0Z"/>
            </g>
            <path class="cls-23" d="M229.97,254.34c-6.59.29-12.98-2.5-14.95-5.07-1.97-2.56-1.45-6.41-1.45-6.41"/>
            <path class="cls-23" d="M210.33,242.8s-.32,3.8-1.62,6.9"/>
            <path class="cls-36" d="M211.9,244.12c-.33.14-.68.05-.79-.2s.07-.57.4-.71c.33-.14.68-.05.79.2.11.25-.07.57-.4.71Z"/>
            <path class="cls-13" d="M208.64,234.76c-1.09-1.73-2.88-2.28-4.81-2.22-.17.79-.12,1.63.22,2.43.87,2.02,3.21,2.96,5.23,2.09.13-.06.26-.12.39-.19-.26-.7-.59-1.41-1.03-2.11Z"/>
            <line class="cls-23" x1="227.41" y1="254.31" x2="229.54" y2="256.28"/>
            <path class="cls-23" d="M217.58,227.91s-.88.33-.94,1.67"/>
            <path class="cls-23" d="M215.01,228.72s-.54.67-.34,1.71"/>
            <path class="cls-23" d="M213.28,230.44s-.16.81.11,1.44"/>
            <path class="cls-23" d="M219.27,230.5s-.01,1.22.03,1.89"/>
            <path class="cls-23" d="M249.54,253.7s.67-3.11-3.06-3.85"/>
            <path class="cls-23" d="M233.03,245.37s3.67,1.19,5.16,5.12"/>
            <path class="cls-60" d="M243.91,248c-.63.27-1.6-.57-2.16-1.87s-.5-2.58.14-2.85,1.6.56,2.16,1.87c.56,1.3.5,2.58-.14,2.85Z"/>
            <path class="cls-23" d="M190.47,242.63s-.55.93.52,1.89"/>
            <path class="cls-23" d="M192.91,226.34s-1.33-.38-1.48.63"/>
            <path class="cls-12" d="M236.1,256.28c1.93-2.54,2.41-4.18,2.39-4.6h0s-.77,6.87-11.21,9.33c-10.44,2.46-24.94,1.09-27.33-8.08-1.94-7.43,3.56-12.86,3.56-12.86,0,0-2.11,1.97-4.43,2.38,0,0-2.39,4.43-2.93,8.61-.55,4.18,3.39,7.35,13.12,9.93,9.4,2.49,22.88.48,26.83-4.71Z"/>
            <path class="cls-7" d="M213.24,242.87s-1.3,15.36,1.39,19.08c0,0-11.73-.11-17.73-5.98-6-5.87,4.44-14.86,6.28-15.53,0,0-4.76,5.45-3.22,12.49,1.54,7.04,9.57-.42,10.35-9.84,0,0,.09-.85,2.93-.21Z"/>
            <path class="cls-23" d="M199.08,242.46s3.31-1.13,4.43-2.38"/>
            <path class="cls-23" d="M220.04,241.05l1,3.58s4.78.69,6.34.42"/>
            <path class="cls-30" d="M254.01,231.02s6.37,3.79,6.53,8.66c.08,2.33-.86-.03-2.16-2.19s-4-4.59-5.52-5.63c-1.22-.84.39-1.37,1.15-.84Z"/>
            <circle class="cls-30" cx="251.55" cy="230.57" r=".63"/>
          </g>
          <path class="cls-21" d="M304.34,203.52h-157.13l-6.11,60.1h168.74l-5.49-60.1ZM189.93,250.19c-14.81.05-19.77-6.57-21.42-11.8.93-.82,3.21-3.15,3.21-6.22s-2.25-4.76-3.18-5.34c1.74-5.78,7.11-13.68,23.71-11.63,24.35,3.02,24.09,17.1,24.09,17.1,0,3.44-3.19,17.8-26.4,17.89ZM260.56,250.19c-23.21-.09-26.4-14.45-26.4-17.89,0,0-.26-14.08,24.09-17.1,16.6-2.05,21.97,5.85,23.71,11.63-.94.58-3.18,2.29-3.18,5.34s2.28,5.4,3.21,6.22c-1.64,5.24-6.61,11.85-21.42,11.8Z"/>
          <g class="cls-73">
            <g class="cls-45">
              <polygon class="cls-58" points="143.3 232.04 174.44 202.15 195.3 202.15 141.09 256.23 143.3 232.04"/>
              <polygon class="cls-58" points="149.2 264.33 211.31 202.22 224.53 202.22 162.65 264.1 149.2 264.33"/>
              <polygon class="cls-58" points="224 264.33 285.19 203.14 303.05 203.14 303.05 207.07 245.19 264.93 224 264.33"/>
              <polygon class="cls-58" points="259.61 264.99 303.78 220.35 303.78 234.83 273.62 264.99 259.61 264.99"/>
            </g>
          </g>
          <path class="cls-29" d="M192.78,212.09c-17.88-2.33-24.05,6.27-26.19,12.95h-3.05l-.04-8.37s-.09-.94-1.26-.94-1.23,1-1.23,1v9.59c0,1.14,1.5,1.28,1.5,1.28h3.41c-.45,2.27-.46,4.01-.46,4.51,0,.6-.23,2.82.21,5.61h-3.16s-1.5.14-1.5,1.28v9.59s.06,1,1.23,1,1.26-.94,1.26-.94l.04-8.37h2.71c1.83,6.08,7.4,13.19,23.96,12.78,25.82-.62,29.38-16.91,29.38-20.95,0,0,.29-16.49-26.81-20.01ZM189.93,250.19c-14.81.05-19.77-6.57-21.42-11.8.93-.82,3.21-3.15,3.21-6.22s-2.25-4.76-3.18-5.34c1.74-5.78,7.11-13.68,23.71-11.63,24.35,3.02,24.09,17.1,24.09,17.1,0,3.44-3.19,17.8-26.4,17.89Z"/>
          <path class="cls-29" d="M257.71,212.09c17.88-2.33,24.05,6.27,26.19,12.95h3.05l.04-8.37s.09-.94,1.26-.94,1.23,1,1.23,1v9.59c0,1.14-1.5,1.28-1.5,1.28h-3.41c.45,2.27.46,4.01.46,4.51,0,.6.23,2.82-.21,5.61h3.16s1.5.14,1.5,1.28v9.59s-.06,1-1.23,1-1.26-.94-1.26-.94l-.04-8.37h-2.71c-1.83,6.08-7.4,13.19-23.96,12.78-25.82-.62-29.38-16.91-29.38-20.95,0,0-.29-16.49,26.81-20.01ZM260.56,250.19c14.81.05,19.77-6.57,21.42-11.8-.93-.82-3.21-3.15-3.21-6.22s2.25-4.76,3.18-5.34c-1.74-5.78-7.11-13.68-23.71-11.63-24.35,3.02-24.09,17.1-24.09,17.1,0,3.44,3.19,17.8,26.4,17.89Z"/>
        </g>
        <path class="cls-75" d="M329.83,266.55v8.69h-21.87c-4.26,4.77-28.26,28.43-85.12,28.43s-75.9-22.61-80.36-28.43h-21.52v-8.69h208.87Z"/>
        <rect class="cls-61" x="120.97" y="270.93" width="208.96" height="1.68"/>
        <polygon class="cls-85" points="304.74 278.45 145.27 278.45 144.22 277.32 305.96 277.32 304.74 278.45"/>
        <path class="cls-34" d="M137.95,314.28h174.07c1.03,0,1.86.83,1.86,1.86v8.06h-177.79v-8.06c0-1.03.83-1.86,1.86-1.86Z"/>
        <rect class="cls-2" x="208.03" y="329.31" width="11.87" height="56.95"/>
        <rect class="cls-64" x="219.9" y="329.31" width="11.02" height="56.95"/>
        <rect class="cls-1" x="230.92" y="329.31" width="11.02" height="56.95"/>
        <rect class="cls-47" x="208.03" y="386.26" width="11.87" height="48.99"/>
        <rect class="cls-44" x="219.9" y="386.26" width="11.02" height="48.99"/>
        <rect class="cls-4" x="230.92" y="386.26" width="11.02" height="48.99"/>
        <rect class="cls-8" x="215.42" y="442.37" width="19.33" height="6.61"/>
        <g>
          <circle class="cls-15" cx="150.15" cy="461.35" r="13.97"/>
          <circle class="cls-29" cx="150.13" cy="461.4" r="10.53"/>
          <polygon class="cls-63" points="164.5 453.69 164.5 445.19 162.64 445.19 162.64 443.24 136.69 443.24 136.69 445.37 134.56 445.37 134.56 448.47 149.09 450.77 146.96 463.61 151.92 463.88 156.8 452.36 164.5 453.69"/>
        </g>
        <g>
          <circle class="cls-15" cx="300.59" cy="461.35" r="13.97"/>
          <circle class="cls-29" cx="300.61" cy="461.4" r="10.53"/>
          <polygon class="cls-63" points="286.24 453.69 286.24 445.19 288.1 445.19 288.1 443.24 314.05 443.24 314.05 445.37 316.18 445.37 316.18 448.47 301.65 450.77 303.78 463.61 298.81 463.88 293.94 452.36 286.24 453.69"/>
        </g>
        <path class="cls-44" d="M141.67,434.09h165.29c.61,0,1.1.49,1.1,1.1v8.16h-167.5v-8.16c0-.61.49-1.1,1.1-1.1Z"/>
        <g>
          <rect class="cls-66" x="136.09" y="330.56" width="79.85" height="52.2"/>
          <rect class="cls-65" x="138.35" y="333.17" width="74.85" height="46.75"/>
          <rect class="cls-5" x="139.41" y="334.05" width="72.81" height="45.17"/>
          <ellipse class="cls-88" cx="175.49" cy="346.59" rx="15.35" ry="3.14"/>
          <rect class="cls-9" x="160.14" y="346.01" width="30.69" height="1.17" rx=".59" ry=".59"/>
        </g>
        <g>
          <rect class="cls-66" x="234.02" y="330.56" width="79.85" height="52.2"/>
          <rect class="cls-65" x="236.29" y="333.17" width="74.85" height="46.75"/>
          <rect class="cls-5" x="237.35" y="334.05" width="72.81" height="45.17"/>
          <ellipse class="cls-88" cx="273.42" cy="346.59" rx="15.35" ry="3.14"/>
          <rect class="cls-9" x="258.08" y="346.01" width="30.69" height="1.17" rx=".59" ry=".59"/>
        </g>
        <rect class="cls-10" x="136.09" y="320.55" width="177.79" height="10.01"/>
        <g>
          <ellipse class="cls-98" cx="215.88" cy="448.24" rx="8.25" ry="4.87"/>
          <ellipse class="cls-25" cx="215.88" cy="448.24" rx="6.69" ry="3.95"/>
        </g>
        <g>
          <ellipse class="cls-98" cx="235.38" cy="448.4" rx="8.25" ry="4.87"/>
          <ellipse class="cls-25" cx="235.38" cy="448.4" rx="6.69" ry="3.95"/>
        </g>
        <path class="cls-55" d="M141.39,169.98c-.12-.01-.22-.01-.27-.01h-32.88c-.07,0-.16,0-.26.01-.78.04-2.31.35-2.26,2.04.06,2,1.83,2.3,2.7,2.33.86.03,3.41-1.2,4.48-3.68h23.69c1.06,2.49,3.62,3.72,4.49,3.68.86-.03,2.68-.33,2.68-2.33,0-1.68-1.65-1.99-2.36-2.04ZM108.52,173.33c-2.28.2-2.79-2.29-.09-2.65h2.95c-.16.54-.88,2.49-2.85,2.65ZM140.97,173.33c-1.96-.17-2.68-2.11-2.84-2.65h2.95c2.68.36,2.18,2.85-.1,2.65Z"/>
        <path class="cls-55" d="M84.46,306.91s-.2,2.99-1.66,4.65c-1.46,1.66-2.06,1.93-2.79,2.06s-8.84,0-8.84,0c0,0-8.64-1.73-10.96-5.45-2.33-3.72-4.05-7.24-4.25-10.3-.2-3.06,0-120.37,0-120.37h-1.99v120.24s.61,7.6,6.64,12.75c4.9,4.2,10.42,4.64,10.42,4.64l9.26-.04s3.61-1.05,4.7-3.94c.81-2.15.91-4.2.91-4.2l-1.43-.06Z"/>
        <rect class="cls-40" x="33.12" y="122.67" width="43.65" height="55.4" rx="1.06" ry="1.06"/>
        <rect class="cls-93" x="35.27" y="124.29" width="40.21" height="52.17"/>
        <g>
          <rect class="cls-50" x="37.14" y="127.89" width="35.61" height="25.64"/>
          <g class="cls-83">
            <polygon class="cls-74" points="36.34 144.17 52.95 127.09 59.13 127.09 35.94 150.28 36.34 144.17"/>
            <polygon class="cls-74" points="35.94 152.14 61.52 126.63 63.85 126.63 35.94 154.8 35.94 152.14"/>
            <polygon class="cls-74" points="55.81 153.8 73.68 135.66 73.28 143.04 61.92 154.13 55.81 153.8"/>
            <polygon class="cls-74" points="63.45 154.13 73.28 143.83 73.28 147.02 65.84 154.13 63.45 154.13"/>
          </g>
        </g>
        <g>
          <rect class="cls-37" x="39.02" y="155.74" width="3.68" height="3.68"/>
          <rect class="cls-37" x="46.06" y="155.74" width="3.68" height="3.68"/>
          <rect class="cls-37" x="53.11" y="155.74" width="3.68" height="3.68"/>
          <rect class="cls-37" x="60.15" y="155.74" width="3.68" height="3.68"/>
          <rect class="cls-37" x="67.19" y="155.74" width="3.68" height="3.68"/>
          <rect class="cls-37" x="39.02" y="160.55" width="3.68" height="3.68"/>
          <rect class="cls-37" x="46.06" y="160.55" width="3.68" height="3.68"/>
          <rect class="cls-37" x="53.11" y="160.55" width="3.68" height="3.68"/>
          <rect class="cls-37" x="60.15" y="160.55" width="3.68" height="3.68"/>
          <rect class="cls-37" x="67.19" y="160.55" width="3.68" height="3.68"/>
        </g>
        <circle class="cls-17" cx="48.01" cy="170.86" r="1.73"/>
        <g>
          <circle class="cls-29" cx="40.51" cy="170.86" r="4.43"/>
          <circle class="cls-26" cx="40.51" cy="170.86" r="3.45"/>
        </g>
        <g>
          <circle class="cls-29" cx="69.37" cy="170.86" r="4.43"/>
          <circle class="cls-26" cx="69.37" cy="170.86" r="3.45"/>
        </g>
        <circle class="cls-17" cx="52.71" cy="170.86" r="1.73"/>
        <circle class="cls-39" cx="57.4" cy="170.86" r="1.73"/>
        <circle class="cls-33" cx="62.1" cy="170.86" r="1.73"/>
        <polygon class="cls-16" points="150.07 181.46 299.13 181.46 303.09 203.52 145.51 203.52 150.07 181.46"/>
        <polygon class="cls-76" points="149.76 181.46 151.49 181.46 148.3 203.52 144.22 203.52 149.76 181.46"/>
        <polygon class="cls-76" points="300.26 181.46 298.54 181.46 301.73 203.52 305.96 203.52 300.26 181.46"/>
      </g>
    </g>
  </g>
</svg>