<?xml version="1.0" encoding="UTF-8"?>
<svg xmlns="http://www.w3.org/2000/svg" xmlns:xlink="http://www.w3.org/1999/xlink" viewBox="0 0 668 512">
  <defs>
    <style>
      .cls-1 {
        fill: #004d84;
      }

      .cls-2 {
        fill: #bfc1c3;
      }

      .cls-3 {
        fill: #dcdcde;
      }

      .cls-4 {
        fill: #613396;
      }

      .cls-5 {
        fill: #d2d3d5;
      }

      .cls-6 {
        fill: #e7e8ea;
      }

      .cls-7 {
        fill: #dadce0;
      }

      .cls-8 {
        fill: #565197;
      }

      .cls-9 {
        fill: #d1d2d2;
      }

      .cls-10 {
        fill: #e6e8ea;
      }

      .cls-11 {
        fill: #003056;
      }

      .cls-12 {
        fill: #4796da;
      }

      .cls-13, .cls-14 {
        fill: #db796e;
      }

      .cls-15 {
        clip-path: url(#clippath-4);
      }

      .cls-16 {
        fill: #f1927c;
      }

      .cls-17 {
        fill: #444345;
      }

      .cls-18 {
        fill: #e8f5ff;
      }

      .cls-19 {
        fill: #21263d;
      }

      .cls-20 {
        stroke: #be3f3d;
        stroke-width: .19px;
      }

      .cls-20, .cls-21, .cls-22 {
        fill: none;
      }

      .cls-20, .cls-22 {
        stroke-miterlimit: 10;
      }

      .cls-23, .cls-24 {
        fill: #cde7fe;
      }

      .cls-25 {
        fill: #dbd6ed;
      }

      .cls-26 {
        fill: #cbf8fb;
      }

      .cls-27 {
        fill: #634ca0;
      }

      .cls-28, .cls-29 {
        fill: #fff;
      }

      .cls-30 {
        fill: #8d3b43;
      }

      .cls-31 {
        fill: #c1bddb;
      }

      .cls-32 {
        fill: #e5e7ea;
      }

      .cls-33 {
        fill: #92b1c3;
      }

      .cls-34 {
        fill: #b55952;
      }

      .cls-35 {
        fill: #192e35;
      }

      .cls-36 {
        fill: #d0e2de;
      }

      .cls-37 {
        fill: #9be0ff;
      }

      .cls-38 {
        fill: #5b7984;
      }

      .cls-24 {
        opacity: .61;
      }

      .cls-39 {
        fill: #e6e7e9;
      }

      .cls-40 {
        fill: #241a2a;
      }

      .cls-41 {
        fill: #f3f0ff;
      }

      .cls-42 {
        clip-path: url(#clippath-1);
      }

      .cls-43 {
        opacity: .36;
      }

      .cls-44 {
        fill: #f6b5a0;
      }

      .cls-45 {
        fill: #f2f2f2;
      }

      .cls-46 {
        fill: #cddfea;
      }

      .cls-47 {
        opacity: .4;
      }

      .cls-47, .cls-48 {
        fill: #1e57b0;
      }

      .cls-47, .cls-49 {
        mix-blend-mode: multiply;
      }

      .cls-50 {
        fill: #872a29;
      }

      .cls-51 {
        fill: #a6cade;
      }

      .cls-29 {
        mix-blend-mode: overlay;
        opacity: .33;
      }

      .cls-52 {
        isolation: isolate;
      }

      .cls-53 {
        fill: #416e93;
      }

      .cls-54 {
        fill: #888889;
      }

      .cls-55 {
        fill: #7e7e99;
      }

      .cls-56 {
        fill: #d7d7fa;
        fill-rule: evenodd;
      }

      .cls-22 {
        stroke: #c1c2c2;
        stroke-width: .62px;
      }

      .cls-57 {
        clip-path: url(#clippath-3);
      }

      .cls-58 {
        fill: #ecf6ff;
      }

      .cls-59 {
        fill: #cc665a;
      }

      .cls-60 {
        fill: #cd0202;
        opacity: .24;
      }

      .cls-61 {
        fill: #4496dc;
      }

      .cls-62 {
        fill: #372c42;
      }

      .cls-63, .cls-49 {
        fill: #5789e3;
      }

      .cls-64 {
        fill: #e08075;
      }

      .cls-65 {
        fill: #4696db;
      }

      .cls-66 {
        fill: #d1d4d5;
      }

      .cls-67 {
        fill: #6aafba;
      }

      .cls-68 {
        fill: #bbbdbe;
      }

      .cls-69 {
        fill: #e4e7e8;
      }

      .cls-70 {
        fill: #c02e2e;
      }

      .cls-71 {
        opacity: .39;
      }

      .cls-72 {
        fill: #e6e8e9;
      }

      .cls-73 {
        fill: #e5f4fd;
      }

      .cls-74 {
        fill: #d6c8d3;
      }

      .cls-75 {
        fill: #6bafed;
      }

      .cls-14 {
        opacity: .73;
      }

      .cls-76 {
        fill: #579ebe;
      }

      .cls-77 {
        fill: #7b7b7c;
      }

      .cls-78 {
        clip-path: url(#clippath-2);
      }

      .cls-79 {
        fill: #f49485;
      }

      .cls-80 {
        fill: #c6c6c6;
      }

      .cls-81 {
        fill: #6e9eb6;
      }

      .cls-82 {
        fill: #bdbfc0;
      }

      .cls-83 {
        fill: #5a4760;
      }

      .cls-49 {
        opacity: .2;
      }

      .cls-84 {
        opacity: .28;
      }

      .cls-85 {
        fill: #dcdedf;
      }

      .cls-86 {
        fill: #2c6495;
      }

      .cls-87 {
        clip-path: url(#clippath);
      }

      .cls-88 {
        fill: #18294f;
      }

      .cls-89 {
        fill: #cc665d;
      }

      .cls-90 {
        fill: #abe2ef;
      }

      .cls-91 {
        fill: #604c66;
      }

      .cls-92 {
        fill: #f4f6f5;
      }
    </style>
    <clipPath id="clippath">
      <rect class="cls-21" x="215.74" y="40.61" width="408" height="149.98"/>
    </clipPath>
    <clipPath id="clippath-1">
      <path class="cls-21" d="M177.86,241.2H33.25l-5.63,55.31h155.29l-5.05-55.31ZM72.56,284.15c-13.63.05-18.2-6.04-19.71-10.86.85-.76,2.95-2.9,2.95-5.73s-2.07-4.38-2.93-4.91c1.6-5.32,6.54-12.59,21.82-10.7,22.41,2.78,22.17,15.74,22.17,15.74,0,3.17-2.94,16.38-24.3,16.46ZM137.57,284.15c-21.36-.09-24.3-13.29-24.3-16.46,0,0-.24-12.96,22.17-15.74,15.28-1.89,20.22,5.38,21.82,10.7-.86.54-2.93,2.11-2.93,4.91s2.1,4.97,2.95,5.73c-1.51,4.82-6.08,10.91-19.71,10.86Z"/>
    </clipPath>
    <clipPath id="clippath-2">
      <path class="cls-21" d="M499.05,241.2h-144.61l-5.63,55.31h155.29l-5.05-55.31ZM393.76,284.15c-13.63.05-18.2-6.04-19.71-10.86.85-.76,2.95-2.9,2.95-5.73s-2.07-4.38-2.93-4.91c1.6-5.32,6.54-12.59,21.82-10.7,22.41,2.78,22.17,15.74,22.17,15.74,0,3.17-2.94,16.38-24.3,16.46ZM458.76,284.15c-21.36-.09-24.3-13.29-24.3-16.46,0,0-.24-12.96,22.17-15.74,15.28-1.89,20.22,5.38,21.82,10.7-.86.54-2.93,2.11-2.93,4.91s2.1,4.97,2.95,5.73c-1.51,4.82-6.08,10.91-19.71,10.86Z"/>
    </clipPath>
    <clipPath id="clippath-3">
      <rect class="cls-21" x="859.4" width="668" height="512"/>
    </clipPath>
    <clipPath id="clippath-4">
      <rect class="cls-21" x="485.7" y="-5.58" width="1057.26" height="526.44"/>
    </clipPath>
  </defs>
  <g class="cls-52">
    <g id="Layer_8" data-name="Layer 8">
      <g>
        <path class="cls-56" d="M477.65,41.49c-59.11,8.12-80.71-35.6-142.72-35.23-89.41.53-106.11,36.8-140.44,47.37-63.47,19.55-117.63,5.37-155.6,21.66C5.78,89.49-6.35,147.11,20.06,188.4c35.31,55.2-16.41,69.87-13.63,173.41,1.82,67.9,30.87,203.21,275.01,124.82,96.26-30.91,336.7,87.12,345.27-75.48,4.28-81.21,75.34-163.31,3.07-230.13-66.4-61.39-10.01-159.07-152.14-139.54h0Z"/>
        <g>
          <g>
            <rect class="cls-76" x="207.76" y="32.36" width="423.97" height="166.47"/>
            <rect class="cls-37" x="214.59" y="38.53" width="410.3" height="154.13"/>
            <g class="cls-87">
              <polygon class="cls-26" points="606.56 29.43 423.31 201.76 517.71 201.76 630.56 94.8 630.56 29.43 606.56 29.43"/>
              <polygon class="cls-26" points="448.31 31.52 272.43 199.68 320.11 199.68 496.48 31.52 448.31 31.52"/>
              <polygon class="cls-26" points="423.17 26.91 229.03 204.29 169.28 204.29 349.54 26.91 423.17 26.91"/>
            </g>
          </g>
          <g>
            <path class="cls-88" d="M247.95,74.94s-15.46,3.66-16.06,25.41l-.76,88.01s24.4,12.22,48.32-1.31l-2.72-100.12s-1.8-17.21-28.78-11.99Z"/>
            <g>
              <path class="cls-44" d="M269.69,158.02l28.22,50.3s7.47,11.43,15.49,4.9c0,0,.68-3.06-7.01-20.62l-14.82-42.26s-11.13-22.92-24.84-8.48c0,0-3.02,6.66,2.96,16.16Z"/>
              <path class="cls-44" d="M362.46,258.48c-3.52-1.09-15.58-16.37-13.71-19.4,3.26-5.28,16.65-1.8,20.66.17-2.67,1.46-6.67-.1-9.77.15,3.59,4.65,8.65,8.12,11.7,12.66-1.67,1.55-6.67-3.28-8.65-4.54,1.7,3.21,5.8,3.85,7.42,6.75-1.45,1.19-7.74-2.19-8.8-4.92.56,2.3,5.83,6.92,5.83,6.92-1.18,2.52-6.63-3.17-7.56-4.5.2,1.52,5.2,6.49,2.88,6.71Z"/>
              <path class="cls-44" d="M297.7,206.27s3.23,13.19,20.25,21.07l31.32,15.4,3.07-5.53-41.97-34.93s-8.23-5.01-12.67,4Z"/>
            </g>
            <path class="cls-73" d="M275.84,135.55s11.88,2.39,16.29,15.32l18.86,48.88s4.75,9.79-7.36,17.04c0,0-22.72-23.26-32.93-52.57,0,0-9.6-19.19,4.39-28.66"/>
            <path class="cls-44" d="M279.02,205.9c9.65-34.8-.54-69.19-.54-69.19-9.9-2.97-14.95-3.41-14.95-3.41l-15.68,1.81s-15.55,5.63-27.43,13.86l23.99,60.93,34.61-4Z"/>
            <path class="cls-44" d="M246.98,473.36h-6.47l-3.61,10.74s.03,3.87,8.13,3.87h6.88l-4.93-14.6Z"/>
            <path class="cls-62" d="M254.55,487.32l-2.92-5.75-3.57-4.76.86,5.12s.31,1.9-1.52,2.17h-5.93c-4.46-.22-2.13-8.64-2.13-8.64l-2.62,6.11-2.25,6.76v3.01h20.08v-4.01Z"/>
            <g>
              <rect class="cls-44" x="245.95" y="109.82" width="17.77" height="26.35" transform="translate(-.19 .4) rotate(-.09)"/>
              <path class="cls-16" d="M250.79,124.19c-2.39-4.36-3.11-9.12-3.41-14.36l16.32-.02.04,22.9c-4.68-.85-10.52-4.12-12.94-8.52Z"/>
            </g>
            <path class="cls-44" d="M264.5,284h36.41s1.29,52.93,8.25,195.11l-8.38.37s-25.8-137.01-36.29-195.47Z"/>
            <g>
              <path class="cls-30" d="M224.97,296.08c-4.49-29.33,9.5-71.94,16.92-80.66,29.64,4.04,45.39-.5,45.39-.5,8.59,15.25,15.94,38.67,14.65,70.03l-76.96,11.13Z"/>
              <path class="cls-30" d="M264.7,308.72s3.1,47.73-12.79,165.02c0,0-8.51,3.11-15.01,0-6.99-70.6-5.72-109.22-5.72-109.22l-7.23-79.56s51.2-25.79,40.75,23.76Z"/>
              <path class="cls-30" d="M313.44,473.9c.22,8.34-16.44,1.35-16.44,1.35-16.42-50.37-17.88-104.61-17.88-104.61l-18.97-83.6c2.44-27.27,41.48-23.69,41.48-23.69,0,0,7.54,46.54,11.81,210.55Z"/>
              <path class="cls-19" d="M257.02,225.13c-5.45,0-11.19-.44-15.49-2.29-.31-.13-.45-.49-.32-.8.13-.31.49-.45.8-.32,6.17,2.66,15.67,2.27,22.6,1.99h.25c.61-.04,1.33-.05,2.14-.08,5.64-.16,16.13-.45,18.51-3.36.22-.26.6-.3.86-.09.26.21.3.6.09.86-2.73,3.34-13.18,3.63-19.42,3.81-.8.02-1.52.04-2.12.07h-.25c-2.33.1-4.95.21-7.65.21Z"/>
              <path class="cls-19" d="M270.87,253.66h-7.79c-.34,0-.61-.27-.61-.61s.27-.61.61-.61h7.25c.93-7.66.74-15.16.61-20.67-.04-1.78-.08-3.4-.08-4.79,0-.34.27-.61.61-.61h0c.34,0,.61.27.61.61,0,1.39.04,2.99.09,4.76.14,5.68.33,13.45-.68,21.39-.04.31-.3.53-.6.53Z"/>
              <path class="cls-19" d="M260.15,403.94s-.04,0-.06,0c-.34-.03-.58-.33-.55-.66.41-4.07,1.48-17.83,2.34-28.88.53-6.74.98-12.62,1.19-15.05.67-7.72.61-16.88.55-25.75-.05-7.49-.09-14.57.26-20.89.54-9.72,2.29-18.34,3.98-26.68,1.43-7.06,2.92-14.35,3.71-22.42.03-.34.34-.56.66-.55.33.03.58.33.55.67-.8,8.13-2.29,15.46-3.73,22.55-1.76,8.68-3.43,16.88-3.97,26.51-.35,6.29-.31,13.34-.26,20.82.06,8.89.11,18.09-.56,25.86-.21,2.43-.67,8.31-1.19,15.04-.86,11.06-1.93,24.82-2.34,28.9-.03.31-.29.55-.6.55Z"/>
              <path class="cls-19" d="M282.88,412.18c-.2,0-.39-.1-.51-.28-1.74-2.66-2.33-14.63-2.9-26.2-.43-8.72-.83-16.96-1.67-19.12-1.29-3.33-1.99-6.77-2.67-10.1-.31-1.5-.63-3.05-.99-4.58-.94-3.9-1.98-7.9-2.98-11.77-2.25-8.71-4.58-17.71-6.07-26.49-.06-.33.17-.65.5-.7.33-.06.65.17.7.5,1.47,8.72,3.79,17.7,6.04,26.38,1.01,3.88,2.04,7.88,2.99,11.79.37,1.54.69,3.11,1,4.62.7,3.43,1.36,6.67,2.62,9.91.9,2.34,1.29,10.29,1.74,19.5.51,10.34,1.14,23.21,2.7,25.6.18.28.1.66-.18.84-.1.07-.22.1-.33.1Z"/>
              <path class="cls-19" d="M238.62,251.17c-1.96,0-4-.52-6.05-1.58-.3-.15-.42-.52-.27-.82.15-.3.52-.42.82-.27,3.78,1.93,7.31,1.94,10.5.03,5.64-3.38,8.79-11.88,8.89-18.15,0-.33.28-.6.61-.6h.01c.34,0,.6.28.6.62-.11,6.6-3.47,15.57-9.48,19.18-1.77,1.06-3.66,1.59-5.63,1.59Z"/>
              <path class="cls-19" d="M295.32,245c-1.2,0-2.33-.33-3.36-.98-4.36-2.75-6-10.57-7.09-15.74l-.3-1.4c-.07-.33.13-.65.46-.72.34-.07.65.13.72.46.1.44.2.91.3,1.41.98,4.67,2.63,12.49,6.55,14.96,1.24.79,2.61.98,4.17.61.33-.07.66.12.74.45.08.32-.12.65-.45.73-.6.15-1.19.22-1.76.22Z"/>
            </g>
            <g>
              <path class="cls-44" d="M309.1,479.11l20.17,7.25s2.08,1.12,2.17,2.73l-31.83-1.36,1.18-8.62h8.31Z"/>
              <path class="cls-62" d="M319.68,490.9c-3.73-.09-7.69-1.69-11.43-1.64-.95.01-1.91.14-2.85.14,0,0-6.31.1-5.94-1.68l1.13-7.64,16.02,5.47c4.78,1.29,6.79-1.38,6.79-1.38l8.03,2.98s1.83,1.02,2.14,2.66c0,0-2.87,2.48-13.9,1.08Z"/>
            </g>
            <g>
              <path class="cls-44" d="M238.02,103.69c-.03,3.27,1.8,6.96,4.75,8.3,4,1.82,5.51-1.85,5.5-5.42-.02-2.89-1.31-7.84-4.58-8.85-3.09-.95-5.64,3.29-5.66,5.97Z"/>
              <path class="cls-44" d="M246.25,112.53c1.9,4.7,4.47,8.55,8.91,11.25,4.35,2.64,8.84,3.98,13.01.51,3.32-2.77,5.45-6.79,6.65-10.83,2.74-9.31.55-22.18-5.4-29.65-6.54-8.2-19.07-6.3-23.88,2.9-3.91,7.5-2.35,18.24.71,25.83Z"/>
              <g>
                <path class="cls-16" d="M242.85,109.16c-.06,0-.11,0-.16-.02-.32-.09-.51-.42-.43-.75.81-2.96.25-5.9-1.28-6.7-.3-.16-.42-.52-.26-.82.15-.3.53-.42.82-.26,2.09,1.09,2.89,4.5,1.9,8.1-.07.27-.32.45-.59.45Z"/>
                <path class="cls-16" d="M239.84,104.61c-.23,0-.46-.14-.56-.37-.13-.31,0-.67.32-.81,1.1-.48,2.63-.77,3.65-.14.29.18.37.55.2.84-.18.29-.56.37-.84.2-.57-.36-1.7-.13-2.52.22-.08.04-.16.05-.25.05Z"/>
              </g>
              <g>
                <path class="cls-19" d="M268.59,101.45c.06,1.03.62,1.84,1.24,1.8.62-.04,1.07-.91,1.01-1.94-.07-1.04-.62-1.84-1.24-1.8s-1.07.91-1.01,1.94Z"/>
                <path class="cls-19" d="M255.14,102.29c.06,1.03.62,1.84,1.24,1.8.62-.04,1.07-.91,1.01-1.94-.07-1.03-.62-1.84-1.24-1.8-.62.04-1.07.91-1.01,1.94Z"/>
                <path class="cls-16" d="M264.58,110.42c-.3,0-.56-.22-.6-.53-.05-.33.19-.64.52-.69,1.8-.25,2.43-1.06,2.59-1.3.11-.17.16-.34.15-.47-.23-.17-.95-.47-1.35-.64-.73-.3-1.12-.47-1.34-.69-.79-.81-1.09-1.75-1.7-5.31-.05-.33.17-.65.5-.7.33-.06.65.17.71.5.58,3.41.83,4.12,1.36,4.66.09.07.6.28.93.41,1.19.49,1.87.79,2.04,1.32.15.49.06,1.05-.27,1.57-.61.96-1.86,1.63-3.45,1.86-.03,0-.06,0-.09,0Z"/>
                <path class="cls-16" d="M253.24,106.84c.04.73,1.43,1.25,3.09,1.14,1.66-.1,2.98-.79,2.93-1.52-.04-.74-1.43-1.25-3.09-1.14-1.66.1-2.97.78-2.93,1.52Z"/>
                <path class="cls-16" d="M268.09,105.91c.05.73,1.43,1.25,3.09,1.14,1.66-.1,2.98-.79,2.93-1.52-.04-.74-1.43-1.25-3.09-1.14-1.66.1-2.98.79-2.93,1.52Z"/>
                <path class="cls-88" d="M253.34,99.9c-.18,0-.36-.06-.52-.17-.41-.29-.51-.86-.23-1.27,1.25-1.79,4.66-2.25,6.64-.89.41.29.52.85.23,1.27-.29.41-.85.52-1.27.23-1.22-.84-3.48-.45-4.1.43-.18.25-.46.39-.75.39Z"/>
                <path class="cls-88" d="M266.93,99.05c-.18,0-.36-.05-.52-.17-.41-.29-.51-.86-.23-1.27,1.25-1.79,4.67-2.25,6.64-.89.41.28.52.85.23,1.27-.28.42-.86.52-1.27.23-1.21-.83-3.48-.46-4.1.43-.18.25-.46.39-.75.39Z"/>
              </g>
              <path class="cls-88" d="M248.04,104.32c-2.51-1.42-2.96-2.81-3.39-2.55-.13.08,0,0,0,0-.18-1.67-1.3-3.1-3.28-3.16-1.42-.05-2.77,2.1-3.18,3.53-.1-1.5-.07-3.67-.1-5.27-.02-1.52.06-3.16.25-4.72.43-3.64.71-5.64,2.43-9.06,1.86-3.68,4.77-6.54,8.9-7.59,4.99-1.27,13.14-2.31,17.39.74,2.18,1.57.37,1.97.07,8.83,0,0-19.58-4.66-19.1,19.27Z"/>
            </g>
            <path class="cls-88" d="M275.08,96.48c2.63-6.15,3.56-16.56-7.81-20.65-2.79-1.01-9.61-1.64-11.86.85-5,5.51,6.25,7.68,9.26,7.98,4.8.48,8.06,1.79,10.41,11.83Z"/>
            <path class="cls-16" d="M261.52,114.4c-2.25,0-4.01-1.53-4.73-3.36-.12-.31.03-.67.34-.79.31-.12.67.03.79.34.68,1.72,2.55,3.1,4.85,2.39.32-.1.66.08.76.4.1.32-.08.66-.4.76-.56.17-1.09.25-1.61.25Z"/>
            <path class="cls-88" d="M247.96,95.07s3.5-2.06,11.41-2.56l1.99-4.62.42,4.56s4.5-.12,5-.13c.5-.01.88-2.27.88-2.27l.87,2.22s4.78.15,7.1.09c0,0-.06-14.22-16.6-12.19,0,0-11.47.87-11.07,14.91Z"/>
            <path class="cls-53" d="M275.22,135.62l3.26,1.09s10.24,15.65,17.12,31.87c3.91,11.49-1.02,27.91-6.55,43.04-3.53,9.65-39.68,11.55-46.79,7.13-2.4-1.49-18.49-28.08-19.45-30.41-2.03-4.95,10.51-10.42,12.14-20.69,1-6.3,3.77-17.42-5.31-24.51,0,0,4.16-2,4.17-2.01.8-.4,12.26,7.46,13.64,8.08,13.42,6.12,33.13,5.72,27.75-13.59Z"/>
            <path class="cls-28" d="M252.57,332.61l.77-112.72,5.37-51.79c-9.45-23.61-16.47-30.76-16.47-30.76-34.44,11.58-26.03,31.82-26.03,31.82l10.54,54.89-14.2,100.45s18.36,10.14,40.01,8.11Z"/>
            <path class="cls-28" d="M297.7,175.49l-3.61,39.43,22.31,106.11c-8.52,4.23-27.17,6.2-27.17,6.2l-13.25-108.27v-53.78l-9.05-31.45s6.27.75,11.54,2.97c0,0,18.73,22.56,19.23,38.78Z"/>
            <path class="cls-73" d="M302.46,215.24s5.33,9.93,25.71,19.74l18.56,10.72s7.6-3.42,7.6-10.72l-43.2-35.16s-6.7-3.18-8.67,15.42Z"/>
            <path class="cls-19" d="M249.85,286.59c-.56,0-1.56-.1-3.36-.28-.64-.07-1.21-.12-1.53-.15-1.08-.1-2.1-.14-3.11-.19-1.09-.05-2.22-.1-3.38-.22-.62-.06-1.24-.12-1.88-.17-4.01-.35-8.16-.72-11.7-2.31-.31-.14-.44-.5-.31-.8.14-.31.5-.44.8-.31,3.36,1.51,7.4,1.86,11.31,2.21.64.06,1.27.11,1.89.17,1.14.11,2.2.16,3.32.21,1.03.05,2.06.1,3.16.19.32.03.9.09,1.54.15.96.1,2.47.25,3.09.29.09-.04.2-.05.3-.02.32.06.67.4.62.72-.05.34-.07.5-.77.5Z"/>
            <path class="cls-19" d="M243.33,310.66c-2.15,0-4.79-.31-7.53-.67-.88-.12-1.65-.22-2.21-.27-3.56-.33-10.18-.95-11.46-5.74-.81-3.04-.41-6.49-.02-9.83.24-2.04.47-3.98.4-5.72-.01-.34.25-.62.59-.63.34-.03.62.25.63.59.06,1.84-.17,3.81-.41,5.91-.38,3.22-.77,6.56-.01,9.37.93,3.49,5.55,4.39,10.4,4.84.58.06,1.36.16,2.26.28,3.4.45,9.73,1.28,11.07-.1,1.45-1.5,1.44-10.76,1.04-14.12-.04-.33.2-.64.53-.68.33-.06.64.2.68.53.26,2.16.71,12.96-1.38,15.11-.81.84-2.45,1.14-4.57,1.14Z"/>
            <path class="cls-19" d="M288.08,282.14c-.32,0-.63,0-.92-.03-.34-.02-.59-.31-.57-.64.02-.34.32-.6.65-.57,4.42.27,13.04-1.69,16.98-5.51.24-.23.63-.23.86.01.23.24.23.63-.01.86-4.06,3.94-12.22,5.88-16.98,5.88Z"/>
            <path class="cls-19" d="M295.95,305.87c-.79,0-1.48-.08-2.04-.26-3.49-1.12-4.32-6.31-5.04-10.88-.38-2.39-.74-4.65-1.41-6.07-.14-.3-.01-.66.29-.81.3-.14.67-.01.81.29.75,1.58,1.12,3.92,1.51,6.39.67,4.23,1.43,9.02,4.21,9.92,3.48,1.12,13.86-2.41,16.49-4.37.27-.2.65-.15.85.12.2.27.15.65-.12.85-2.5,1.87-10.77,4.81-15.55,4.81Z"/>
            <path class="cls-19" d="M311.54,207.89h-.02c-.34,0-.6-.29-.59-.63.2-7.78-5.61-24.26-11.35-35.7-.15-.3-.03-.67.27-.82.3-.15.66-.03.82.27,5.8,11.57,11.68,28.3,11.48,36.27,0,.33-.28.6-.61.6Z"/>
            <path class="cls-46" d="M252.14,222.96c-.28,0-.53-.19-.59-.47-2.32-10.03-3.84-24.3-4.86-33.74-.52-4.89-.93-8.76-1.24-9.94-.67-2.62.83-4.45,2.29-6.21.62-.75,1.25-1.51,1.74-2.36-2.47.36-5.43.58-6.72-1.32-.63-.93-1.43-7.76-2.69-20.03-.29-2.84-.52-5.09-.61-5.63-.06-.33.17-.65.5-.7.34-.06.65.17.7.5.1.58.32,2.73.62,5.7.61,5.97,1.88,18.4,2.49,19.48,1.01,1.49,4.16,1.01,6.45.65l.23-.04c.21-.03.43.05.57.22.14.17.17.41.09.61-.59,1.44-1.53,2.58-2.44,3.68-1.38,1.67-2.57,3.12-2.05,5.14.32,1.27.72,4.98,1.27,10.12,1.01,9.41,2.52,23.64,4.83,33.6.08.33-.13.65-.46.73-.05.01-.09.01-.14.01Z"/>
            <path class="cls-46" d="M277.24,222.96c-.12,0-.25-.03-.35-.1-.38-.26-.33-.63-.13-1.87.04-.23.2-.41.4-.48,1.6-6.53,6.59-31.59,5.6-43.76-.17-2.08-1.76-3.06-3.61-4.19-1.22-.75-2.48-1.52-3.5-2.69-.15-.16-.19-.39-.12-.6.08-.21.25-.36.47-.4l.23-.04c2.28-.41,5.41-.97,5.88-2.73.03-1.05-4.06-9.33-6.76-14.8-2.87-5.81-4.5-9.14-4.64-10.01-.06-.33.17-.65.5-.7.34-.06.65.17.7.5.12.73,2.36,5.28,4.53,9.67,5.28,10.7,7.11,14.67,6.84,15.66-.6,2.21-3.46,2.97-5.92,3.43.75.64,1.59,1.16,2.42,1.66,1.95,1.2,3.97,2.44,4.19,5.13,1.06,13.05-5.2,45.52-6.43,46.24-.09.06-.2.08-.31.08Z"/>
            <g>
              <g>
                <path class="cls-19" d="M251.39,179.85c.12.51-.03,1.8-.55,1.91l-3.06-.13c-.51.12-1.02-.2-1.13-.72h0c-.12-.51.21-1.02.72-1.14l2.76-1.2c.52-.11,1.15.76,1.26,1.27h0Z"/>
                <path class="cls-19" d="M255.11,179.02c.12.51.8,1.61,1.31,1.49l2.71-1.43c.51-.11.83-.63.72-1.14h0c-.12-.51-.63-.84-1.14-.72l-3.01.1c-.51.12-.71,1.17-.6,1.69h0Z"/>
                <path class="cls-19" d="M246.59,181.25c-3.5,0-5.27-4.03-5.29-4.08-3.53-9.89,1.79-26.89,2.01-27.61.74-2.36,2.42-2.56,2.81-2.57.36-.15,1.97-.69,3.64,1.12.51.55,12.6,13.64,13.64,24.07,0,.07.16,5.37-4.05,6.32l-.13-.6c3.72-.84,3.58-5.63,3.58-5.68-1.02-10.2-13.36-23.56-13.48-23.7-1.53-1.66-2.93-.99-2.99-.96l-.07.04h-.08c-.07-.02-1.62,0-2.29,2.15-.06.18-5.48,17.53-2.03,27.21.07.16,1.95,4.43,5.66,3.58l.13.6c-.37.08-.73.12-1.07.12Z"/>
              </g>
              <path class="cls-19" d="M245.2,147.51c-.76-2.56-1.97-9.54-.45-11.58.3-.4.71-.62,1.17-.62v.61c-.28,0-.5.12-.69.37-1.26,1.7-.31,8.19.54,11.04l-.58.17Z"/>
            </g>
            <g>
              <path class="cls-19" d="M284.36,168.47c-.16,0-.29-.12-.3-.28-.63-8.92-2.68-14.36-3.56-16.68-2.4-6.37-5.56-12.25-9.14-17.02-.1-.13-.08-.32.06-.42.13-.1.33-.07.43.06,3.61,4.81,6.8,10.75,9.22,17.17.88,2.35,2.96,7.84,3.59,16.86.01.17-.11.31-.28.32,0,0-.01,0-.02,0Z"/>
              <g>
                <path class="cls-33" d="M282.54,174.76c-2.45.17-4.57-1.67-4.74-4.12-.17-2.45,1.67-4.57,4.12-4.75l2.27-.16.63,8.87-2.27.16Z"/>
                <path class="cls-51" d="M288.74,169.87c.17,2.45-1.67,4.57-4.12,4.74-2.45.17-4.57-1.67-4.75-4.12-.17-2.45,1.67-4.57,4.12-4.75,2.45-.17,4.57,1.67,4.75,4.12Z"/>
                <path class="cls-81" d="M286.53,170.03c.09,1.22-.84,2.28-2.06,2.37-1.22.09-2.28-.84-2.37-2.06-.09-1.22.84-2.28,2.06-2.37,1.22-.09,2.29.84,2.37,2.06Z"/>
              </g>
              <path class="cls-19" d="M283.9,174.86c-.95,0-1.68-.25-2.2-.54-1.21-.67-2.07-1.97-2.29-3.49-.17-1.13.22-2.38,1.06-3.43.92-1.14,2.19-1.85,3.5-1.94.16-.02.31.11.32.28.01.17-.11.31-.28.33-1.12.08-2.27.72-3.07,1.72-.74.92-1.08,2-.94,2.96.2,1.33.94,2.47,1.99,3.05,1.22.68,2.84.61,4.68-.2.16-.06.33,0,.4.16.07.15,0,.34-.16.4-1.19.52-2.19.71-3.02.71Z"/>
              <path class="cls-19" d="M282.29,175.1c-1.21,0-2.2-.32-2.96-.97-1.41-1.19-2.03-3.27-1.55-5.19.52-2.06,2.02-3.03,5.01-3.24.15-.02.31.11.32.28.01.17-.12.31-.28.32-2.72.19-4.01,1-4.46,2.78-.43,1.69.12,3.53,1.35,4.57.38.32,1.52,1.28,4.51.58.17-.04.33.06.37.23.04.16-.06.32-.23.36-.75.18-1.44.27-2.08.27Z"/>
              <path class="cls-19" d="M288.38,170.73s-.08,0-.11-.02c-.16-.06-.23-.24-.17-.39.24-.62.03-1.65-.52-2.55-.5-.83-1.17-1.36-1.78-1.43-.17-.02-.29-.16-.27-.33.02-.17.16-.31.34-.27.81.09,1.62.71,2.23,1.72.65,1.08.87,2.29.57,3.09-.05.12-.16.19-.28.19Z"/>
            </g>
            <g>
              <g>
                <g>
                  <rect class="cls-48" x="228.68" y="181.58" width="63.66" height="45.41" transform="translate(.59 409.32) rotate(-76.37)"/>
                  <polygon class="cls-47" points="247.06 169.25 289.86 179.63 290.08 178.7 245.95 168 230.95 229.87 232.29 230.19 247.06 169.25"/>
                  <polygon class="cls-47" points="245.95 168 230.95 229.87 275.08 240.57 245.95 168"/>
                </g>
                <g>
                  <rect class="cls-47" x="265.03" y="168.13" width="5" height="15.36" transform="translate(33.61 394.36) rotate(-76.36)"/>
                  <rect class="cls-63" x="264.45" y="165.96" width="7.96" height="15.36" transform="translate(36.43 393.6) rotate(-76.37)"/>
                  <rect class="cls-28" x="265.25" y="166.14" width="7.96" height="15.36" transform="translate(36.87 394.51) rotate(-76.37)"/>
                  <polyline class="cls-49" points="275.76 179.5 260.83 175.88 262.71 168.14"/>
                </g>
              </g>
              <g>
                <path class="cls-44" d="M288.22,199.82c-5.05,5.43-22.16,6.49-23.7,3.28-1.07-2.23,2.67-10.9,5.19-14.69,1.54,0,2.28,0,1.13,6.9,5.86-.37,10.48-5.7,15.95-5.68.34,2.26-5.32,5.73-7.47,6.66,1.94-.33,6.61-5.33,9.91-5.04.17,1.86-6.32,7.86-9.18,7.2,2.22.83,9.64-4.33,9.64-4.33,1.43,2.4-6.98,7.09-8.6,7.12,1.37.69,8.24-3.47,7.12-1.43Z"/>
                <path class="cls-44" d="M213.39,162.97l-7.6,57.66s-1.15,5.94,2.94,6.35c0,0,10.86.02,14.72-20.93l11.51-38.4s4.88-27.19-13.83-19.17c0,0-6.5,3.33-7.74,14.49Z"/>
                <path class="cls-44" d="M208.73,226.97s12.74,4.72,28.8-4.96l30.31-17.3-1.34-4.89-49.34,13.05s-12.81,3.93-8.42,14.1Z"/>
              </g>
              <path class="cls-73" d="M227.67,143.94s-12.37,2.67-15.1,15.56l-9.43,66.13s15.82,5.17,23.12-17.64l11.57-45.55s3.13-15.93-10.15-18.5Z"/>
              <path class="cls-73" d="M203.14,225.63s13.82,13.08,32.4,0l31.4-15.74-2.65-10.08-46.85,10.08s-12.17,2.65-14.3,15.74Z"/>
            </g>
            <path class="cls-19" d="M232.79,181.21c-.06,0-.12,0-.18-.03-.32-.1-.5-.44-.4-.76,4.01-12.97,6.88-24.35,1.3-32.33-.19-.28-.13-.65.15-.85.28-.19.66-.13.85.15,5.9,8.43,2.97,20.11-1.13,33.38-.08.26-.32.43-.58.43Z"/>
            <path class="cls-19" d="M221.9,217.22c-.09,0-.18-.02-.27-.06-.3-.15-.43-.51-.28-.82,3.37-6.94,5.36-15.21,6.44-20.94.06-.33.39-.55.71-.48.33.06.55.38.49.71-1.09,5.8-3.11,14.19-6.54,21.24-.11.22-.32.34-.55.34Z"/>
            <path class="cls-19" d="M227.78,215.39c-.26,0-.5-.17-.58-.43-.22-.73-.37-1.47-.53-2.2-.36-1.72-.69-3.34-1.8-4.69-.21-.26-.17-.65.09-.86.26-.21.64-.18.86.09,1.29,1.58,1.67,3.43,2.05,5.21.15.73.29,1.42.5,2.1.1.32-.09.66-.41.76-.06.02-.12.02-.18.02Z"/>
          </g>
          <g>
            <path class="cls-54" d="M27.9,210.32h-.25.25Z"/>
            <path class="cls-7" d="M11.15,205.9h2.34c.7,0,1.27.57,1.27,1.27v2.49h-4.88v-2.49c0-.7.57-1.27,1.27-1.27Z"/>
            <rect class="cls-66" x="83.64" y="337.42" width="43.12" height="8.19"/>
            <rect class="cls-2" x="83.64" y="337.11" width="43.12" height="2.02"/>
            <rect class="cls-85" x="76.9" y="329.41" width="56.74" height="8.19"/>
            <polygon class="cls-61" points="30.5 241.2 34.25 241.2 30.5 295 179.35 295 175.44 241.2 179.35 241.2 186.53 295 186.53 300.54 23 300.54 23 295.81 30.5 241.2"/>
            <g>
              <path class="cls-23" d="M72.56,284.15c-13.63.05-18.2-6.04-19.71-10.86.85-.76,2.95-2.9,2.95-5.73s-2.07-4.38-2.93-4.91c1.6-5.32,6.54-12.59,21.82-10.7,22.41,2.78,22.17,15.74,22.17,15.74,0,3.17-2.94,16.38-24.3,16.46Z"/>
              <path class="cls-23" d="M137.57,284.01c13.63.05,18.2-6.04,19.71-10.86-.85-.76-2.95-2.9-2.95-5.73s2.07-4.38,2.93-4.91c-1.6-5.32-6.54-12.59-21.82-10.7-22.41,2.78-22.17,15.74-22.17,15.74,0,3.17,2.94,16.38,24.3,16.46Z"/>
              <g>
                <path class="cls-4" d="M120.66,294.89s-8.71.3-6-5.08c2.71-5.37,7.81-11.12,7.81-11.12l17.84-.5s1.16-.24,2.61,1.47,5.1,8.71,5.1,8.71c0,0,1.21,3.16-2,4.45-5.61,2.26-16.37,2.26-25.35,2.06Z"/>
                <path class="cls-27" d="M119.6,292.69s-3.26-1.11-.55-6.48c2.71-5.37,3.58-7.51,3.58-7.51l17.84-.5s1.16-.24,2.61,1.47c1.45,1.71,4.94,8.71,4.94,8.71.19,1.96.44,2.7-2.81,3.68-5.79,1.75-23.87,1.32-25.61.65Z"/>
              </g>
              <g>
                <path class="cls-59" d="M120.85,286.16s-2.38-.27-4.84.99c-1.58-3.75-1.37-4.04-1.37-4.04,0,0,5.29,1.36,6.21,3.05Z"/>
                <path class="cls-79" d="M107,280.13s.3-7.88,1.37-10.93c.32-1.35.88-1.72.88-1.72,0,0,1.72-.15,2.23-1.18.51-1.02.1-1.97-.85-2.19,1.14-1.52.55-2.38-.35-2.27-.42-1.7-1.73-1.01-1.72-.88-.57-.7-1.63-.26-1.89.29-.82-.24-2.02,1.88-1.64,3.6.23,1.16.32,1.79.13,2.5-.19.71-5.66,9.68-5.66,9.68,0,0,.97,3.3,2.47,3.78,1.5.48,5.04-.68,5.04-.68Z"/>
                <path class="cls-20" d="M110.62,264.11s-1.46-.76-2.23.24c-.77,1,.65,1.2.65,1.2,0,0-1.55-.28-1.63.7"/>
                <path class="cls-20" d="M110.28,261.84s.1,1.49-.89,2"/>
                <path class="cls-20" d="M108.56,260.97s.24,2.46-1.13,2.42c-.3-.08-.43-.28-.43-.28"/>
                <path class="cls-20" d="M106.67,261.25s.92,1.74-.02,2.26c-.83.47-.97-.59-.97-.59"/>
                <path class="cls-20" d="M108.75,264.03s-.58.24-.94-.71"/>
                <path class="cls-79" d="M118.93,267.65c.63-.33,1.2-.75,1.72-1.24.5-.46,1.43-1.15,3.03-1.84,2.8-1.2,12.54-.62,15.13,9.38,2.36,8.85-5.83,14.41-14.81,13.33-5.86-1.34-10.75-4.8-12.06-8.28-1.31-3.47-1.81-9.26,2.63-10.18,2.5-.37,3.45-.71,4.36-1.18Z"/>
                <ellipse class="cls-79" cx="123.92" cy="286.61" rx="2.85" ry="3.6" transform="translate(-171.56 387.57) rotate(-85.48)"/>
                <path class="cls-13" d="M122.72,284.83c-.69-.05-1.35.05-1.91.28-.26.36-.43.77-.47,1.22-.12,1.57,1.38,2.97,3.37,3.13.69.05,1.35-.05,1.91-.28.26-.36.43-.77.47-1.22.12-1.57-1.38-2.97-3.37-3.13Z"/>
                <path class="cls-50" d="M122.69,275.23c.55,2.06,1.43,3.67,2.38,5.56-1.75-1.16-2.92-3.47-2.38-5.56h0Z"/>
                <path class="cls-50" d="M120.55,270.23c-.47-.32-.77-.8-.97-1.32-.27-.61-.19-2.51.27-.9.26.72.55,1.46.7,2.21h0Z"/>
                <path class="cls-13" d="M126.87,274.65s1.4,2.02.78,4.64c-.19.96,1.51.23,1.46-2.24-.05-2.47-1.91-2.74-2.24-2.4Z"/>
                <path class="cls-13" d="M122.89,266.26c.46.41,1.28,1.26,1.59,2.37.04.16.26.19.35.04.72-1.24.06-2.49-1.83-2.67-.14-.01-.22.16-.11.25Z"/>
                <path class="cls-70" d="M115.67,272.64s.43,2.72,1.95,4.56c1.27,1.4.2,2.67-1.65.71-1.85-1.96-1.75-3.92-1.38-4.8.36-.88.97-.98,1.08-.46Z"/>
                <path class="cls-50" d="M118.21,272.31s-1.51-.23.58,2.77c-1.52-.89-2.6-3.25-.58-2.77Z"/>
                <path class="cls-89" d="M77.78,257.2s.67.41.19,1.26c-.48.85-1.56.96-1.56.96,0,0,.6-1.9,1.37-2.22Z"/>
                <path class="cls-64" d="M76.41,256.45s.77-.36,1.22.39c.45.75-.04,1.59-.63,2.04-.65-.95-.59-2.43-.59-2.43Z"/>
                <path class="cls-79" d="M86.83,268.61s-4.65-3.03-7.44-4.52c-2.79-1.49-2.91-2.61-2.96-3.57-.05-.96.83-1.61.82-2.68-.01-1.07-1.62-2.53-2.22-.57-1.89,2.07-3.86,5.42-3.91,6.15-.04.74.58,1.36,2.67,2.26,2.09.9,5.51,5.97,5.91,6.7.4.72,7.11-3.76,7.11-3.76Z"/>
                <path class="cls-13" d="M86.83,268.61s-.94-.62-2.24-1.43c-1.68.3-4.64.97-6.91,2.29,1.03,1.33,1.85,2.57,2.03,2.9.4.72,7.11-3.76,7.11-3.76Z"/>
                <path class="cls-89" d="M70.24,276.39s-.35-2.49-1.54-1.81c.24,1.19.52,2.47.52,2.47l1.02-.66Z"/>
                <path class="cls-64" d="M67.1,274.8s.52-1.05,1.29-.93c.77.12,1.12,2.52,1.12,2.61,0,.09-2.41-1.68-2.41-1.68Z"/>
                <path class="cls-79" d="M112.23,279.71s6.32,2.47,5.06,8.65c-1.38,6.76-14.8,7.83-24.05,6.36-9.14-1.46-15.45-5.92-14.95-9.77.5-3.84,2.7-7.92,2.7-7.92,0,0-4.49,1.65-5.43,2.59-.94.94-3.15,3.32-4.55,2.13-1.41-1.19-3.01-3.46-3.89-4.69-.89-1.23-.13-2.81.69-2.36.82.45,1.2,1.55,1.2,1.55,0,0,2.41-.23,3.83.15,1.47-1.17,3.61-4.32,4.94-5.61,1.33-1.29,9.2-5.29,12-.84,2.23,3.53,1.56,7.4,1.56,7.4,0,0,1.72-.38,2.98.07.65-4.76.16-6.16-.5-7.58-.66-1.42-.82-3.14.24-3.86.29-1.47,1.59-1.58,1.59-1.58,0,0,1.14-1.74,2.37-.75,1.12-.3,2.52.44,1.75,1.58l-.19.8s1.89.44,1.66,1.8c-.23,1.35-2,2.92-2,2.92,0,0,.93,5.25,1.97,8.3,4.02.61,8.59.22,11.03.67Z"/>
                <g>
                  <path class="cls-13" d="M95.66,283.3c-1.82-2.36-1.33-5.89-1.33-5.89-.32-.11-.66-.17-1-.2,0,0-.74,5.31,2.22,8.19,2.25,2.19,9.08,2.53,12.24,2.57-5.46-.2-10.48-2.52-12.13-4.67Z"/>
                  <path class="cls-13" d="M107.79,287.97c.54.02,1.09.02,1.63,0,0,0-.63.02-1.63,0Z"/>
                </g>
                <path class="cls-20" d="M109.42,287.97c-6.07.27-11.95-2.31-13.76-4.66-1.82-2.36-1.33-5.89-1.33-5.89"/>
                <path class="cls-20" d="M91.34,277.34s-.3,3.49-1.49,6.35"/>
                <path class="cls-34" d="M92.78,278.56c-.3.13-.63.05-.73-.18s.07-.52.37-.65c.3-.13.63-.05.73.18.1.23-.07.52-.37.65Z"/>
                <path class="cls-14" d="M89.78,269.95c-1-1.59-2.65-2.1-4.42-2.04-.16.72-.11,1.5.21,2.23.8,1.86,2.95,2.72,4.81,1.93.12-.05.24-.11.36-.18-.24-.64-.54-1.3-.95-1.94Z"/>
                <line class="cls-20" x1="107.06" y1="287.93" x2="109.02" y2="289.75"/>
                <path class="cls-20" d="M98.02,263.64s-.81.31-.86,1.54"/>
                <path class="cls-20" d="M95.65,264.39s-.5.62-.31,1.57"/>
                <path class="cls-20" d="M94.06,265.97s-.15.75.1,1.33"/>
                <path class="cls-20" d="M99.57,266.02s-.01,1.12.03,1.74"/>
                <path class="cls-20" d="M127.42,287.37s.62-2.86-2.82-3.55"/>
                <path class="cls-20" d="M112.23,279.71s3.37,1.09,4.75,4.71"/>
                <path class="cls-60" d="M122.25,282.13c-.58.25-1.47-.52-1.98-1.72-.51-1.2-.46-2.37.12-2.62s1.47.52,1.98,1.72c.51,1.2.46,2.37-.12,2.62Z"/>
                <path class="cls-20" d="M73.06,277.19s-.51.86.47,1.74"/>
                <path class="cls-20" d="M75.31,262.19s-1.22-.35-1.36.58"/>
                <path class="cls-13" d="M115.06,289.75c1.78-2.34,2.22-3.85,2.2-4.23h0s-.71,6.32-10.31,8.58c-9.61,2.26-22.95,1-25.15-7.44-1.78-6.83,3.28-11.83,3.28-11.83,0,0-1.95,1.81-4.08,2.19,0,0-2.2,4.08-2.7,7.92-.5,3.84,3.12,6.77,12.07,9.14,8.65,2.29,21.06.45,24.69-4.33Z"/>
                <path class="cls-8" d="M94.01,277.41s-1.19,14.14,1.28,17.56c0,0-10.79-.1-16.31-5.5-5.52-5.4,4.08-13.68,5.78-14.29,0,0-4.38,5.02-2.97,11.5,1.41,6.48,8.8-.38,9.52-9.06,0,0,.08-.78,2.7-.2Z"/>
                <path class="cls-20" d="M80.99,277.03s3.05-1.04,4.08-2.19"/>
                <path class="cls-20" d="M100.28,275.74l.92,3.3s4.4.63,5.83.39"/>
                <path class="cls-29" d="M131.54,266.5s5.86,3.48,6.01,7.97c.07,2.15-.79-.03-1.99-2.02-1.2-1.99-3.68-4.22-5.08-5.18-1.12-.77.36-1.26,1.06-.77Z"/>
                <circle class="cls-29" cx="129.28" cy="266.09" r=".58"/>
              </g>
              <path class="cls-24" d="M177.86,241.2H33.25l-5.63,55.31h155.29l-5.05-55.31ZM72.56,284.15c-13.63.05-18.2-6.04-19.71-10.86.85-.76,2.95-2.9,2.95-5.73s-2.07-4.38-2.93-4.91c1.6-5.32,6.54-12.59,21.82-10.7,22.41,2.78,22.17,15.74,22.17,15.74,0,3.17-2.94,16.38-24.3,16.46ZM137.57,284.15c-21.36-.09-24.3-13.29-24.3-16.46,0,0-.24-12.96,22.17-15.74,15.28-1.89,20.22,5.38,21.82,10.7-.86.54-2.93,2.11-2.93,4.91s2.1,4.97,2.95,5.73c-1.51,4.82-6.08,10.91-19.71,10.86Z"/>
              <g class="cls-71">
                <g class="cls-42">
                  <polygon class="cls-58" points="29.65 267.45 58.31 239.93 77.51 239.93 27.62 289.7 29.65 267.45"/>
                  <polygon class="cls-58" points="35.08 297.16 92.24 240 104.41 240 47.46 296.94 35.08 297.16"/>
                  <polygon class="cls-58" points="103.92 297.16 160.24 240.84 176.67 240.84 176.67 244.46 123.42 297.71 103.92 297.16"/>
                  <polygon class="cls-58" points="136.69 297.77 177.35 256.69 177.35 270.01 149.59 297.77 136.69 297.77"/>
                </g>
              </g>
              <path class="cls-28" d="M75.19,249.08c-16.46-2.15-22.14,5.77-24.1,11.92h-2.81l-.04-7.7s-.09-.86-1.16-.86-1.13.92-1.13.92v8.82c0,1.05,1.38,1.18,1.38,1.18h3.14c-.41,2.09-.42,3.69-.42,4.15,0,.56-.21,2.6.19,5.16h-2.91s-1.38.12-1.38,1.18v8.82s.06.92,1.13.92,1.16-.86,1.16-.86l.04-7.7h2.49c1.69,5.59,6.81,12.14,22.05,11.76,23.76-.57,27.04-15.56,27.04-19.28,0,0,.27-15.17-24.67-18.42ZM72.56,284.15c-13.63.05-18.2-6.04-19.71-10.86.85-.76,2.95-2.9,2.95-5.73s-2.07-4.38-2.93-4.91c1.6-5.32,6.54-12.59,21.82-10.7,22.41,2.78,22.17,15.74,22.17,15.74,0,3.17-2.94,16.38-24.3,16.46Z"/>
              <path class="cls-28" d="M134.94,249.08c16.46-2.15,22.14,5.77,24.1,11.92h2.81l.04-7.7s.09-.86,1.16-.86,1.13.92,1.13.92v8.82c0,1.05-1.38,1.18-1.38,1.18h-3.14c.41,2.09.42,3.69.42,4.15,0,.56.21,2.6-.19,5.16h2.91s1.38.12,1.38,1.18v8.82s-.06.92-1.13.92-1.16-.86-1.16-.86l-.04-7.7h-2.49c-1.69,5.59-6.81,12.14-22.05,11.76-23.76-.57-27.04-15.56-27.04-19.28,0,0-.27-15.17,24.67-18.42ZM137.57,284.15c13.63.05,18.2-6.04,19.71-10.86-.85-.76-2.95-2.9-2.95-5.73s2.07-4.38,2.93-4.91c-1.6-5.32-6.54-12.59-21.82-10.7-22.41,2.78-22.17,15.74-22.17,15.74,0,3.17,2.94,16.38,24.3,16.46Z"/>
            </g>
            <path class="cls-72" d="M201.32,299.2v8h-20.12c-3.92,4.39-26,26.17-78.34,26.17s-69.85-20.8-73.95-26.17H9.1v-8h192.22Z"/>
            <rect class="cls-61" x="9.1" y="303.23" width="192.31" height="1.55"/>
            <polygon class="cls-80" points="178.23 310.16 31.46 310.16 30.5 309.11 179.35 309.11 178.23 310.16"/>
            <path class="cls-32" d="M24.73,343.13h160.2c.95,0,1.71.77,1.71,1.71v7.42H23.01v-7.42c0-.95.77-1.71,1.71-1.71Z"/>
            <rect class="cls-3" x="89.23" y="356.96" width="10.92" height="52.42"/>
            <rect class="cls-66" x="100.15" y="356.96" width="10.14" height="52.42"/>
            <rect class="cls-2" x="110.29" y="356.96" width="10.14" height="52.42"/>
            <rect class="cls-45" x="89.23" y="409.37" width="10.92" height="45.09"/>
            <rect class="cls-39" x="100.15" y="409.37" width="10.14" height="45.09"/>
            <rect class="cls-5" x="110.29" y="409.37" width="10.14" height="45.09"/>
            <rect class="cls-9" x="96.02" y="461.01" width="17.79" height="6.08"/>
            <g>
              <circle class="cls-17" cx="35.95" cy="478.48" r="12.85"/>
              <circle class="cls-28" cx="35.94" cy="478.52" r="9.69"/>
              <polygon class="cls-65" points="49.16 471.43 49.16 463.61 47.45 463.61 47.45 461.81 23.57 461.81 23.57 463.77 21.61 463.77 21.61 466.62 34.98 468.74 33.02 480.56 37.59 480.81 42.07 470.21 49.16 471.43"/>
            </g>
            <g>
              <circle class="cls-17" cx="174.41" cy="478.48" r="12.85"/>
              <circle class="cls-28" cx="174.42" cy="478.52" r="9.69"/>
              <polygon class="cls-65" points="161.2 471.43 161.2 463.61 162.91 463.61 162.91 461.81 186.8 461.81 186.8 463.77 188.75 463.77 188.75 466.62 175.38 468.74 177.34 480.56 172.77 480.81 168.29 470.21 161.2 471.43"/>
            </g>
            <path class="cls-39" d="M28.16,453.39h152.12c.56,0,1.02.46,1.02,1.02v7.51H27.14v-7.51c0-.56.46-1.02,1.02-1.02Z"/>
            <g>
              <rect class="cls-69" x="23.01" y="358.11" width="73.49" height="48.04"/>
              <rect class="cls-68" x="25.1" y="360.51" width="68.88" height="43.03"/>
              <rect class="cls-6" x="26.08" y="361.33" width="67.01" height="41.57"/>
              <ellipse class="cls-82" cx="59.27" cy="372.87" rx="14.12" ry="2.89"/>
              <rect class="cls-10" x="45.15" y="372.33" width="28.25" height="1.08" rx=".54" ry=".54"/>
            </g>
            <g>
              <rect class="cls-69" x="113.15" y="358.11" width="73.49" height="48.04"/>
              <rect class="cls-68" x="115.23" y="360.51" width="68.88" height="43.03"/>
              <rect class="cls-6" x="116.21" y="361.33" width="67.01" height="41.57"/>
              <ellipse class="cls-82" cx="149.41" cy="372.87" rx="14.12" ry="2.89"/>
              <rect class="cls-10" x="135.28" y="372.33" width="28.25" height="1.08" rx=".54" ry=".54"/>
            </g>
            <rect class="cls-12" x="23.01" y="348.9" width="163.62" height="9.21"/>
            <g>
              <ellipse class="cls-92" cx="96.45" cy="466.41" rx="7.59" ry="4.48"/>
              <ellipse class="cls-22" cx="96.45" cy="466.41" rx="6.15" ry="3.63"/>
            </g>
            <g>
              <ellipse class="cls-92" cx="114.4" cy="466.56" rx="7.59" ry="4.48"/>
              <ellipse class="cls-22" cx="114.4" cy="466.56" rx="6.15" ry="3.63"/>
            </g>
            <polygon class="cls-18" points="35.89 220.9 173.06 220.9 176.7 241.2 31.69 241.2 35.89 220.9"/>
            <polygon class="cls-75" points="35.6 220.9 37.19 220.9 34.25 241.2 30.5 241.2 35.6 220.9"/>
            <polygon class="cls-75" points="174.11 220.9 172.52 220.9 175.45 241.2 179.35 241.2 174.11 220.9"/>
          </g>
          <g>
            <path class="cls-54" d="M349.1,210.32h-.25.25Z"/>
            <path class="cls-7" d="M332.35,205.9h2.34c.7,0,1.27.57,1.27,1.27v2.49h-4.88v-2.49c0-.7.57-1.27,1.27-1.27Z"/>
            <rect class="cls-66" x="404.84" y="337.42" width="43.12" height="8.19"/>
            <rect class="cls-2" x="404.84" y="337.11" width="43.12" height="2.02"/>
            <rect class="cls-85" x="398.09" y="329.41" width="56.74" height="8.19"/>
            <polygon class="cls-61" points="351.69 241.2 355.45 241.2 351.69 295 500.54 295 496.64 241.2 500.54 241.2 507.72 295 507.72 300.54 344.2 300.54 344.2 295.81 351.69 241.2"/>
            <g>
              <path class="cls-23" d="M393.76,284.15c-13.63.05-18.2-6.04-19.71-10.86.85-.76,2.95-2.9,2.95-5.73s-2.07-4.38-2.93-4.91c1.6-5.32,6.54-12.59,21.82-10.7,22.41,2.78,22.17,15.74,22.17,15.74,0,3.17-2.94,16.38-24.3,16.46Z"/>
              <path class="cls-23" d="M458.76,284.01c13.63.05,18.2-6.04,19.71-10.86-.85-.76-2.95-2.9-2.95-5.73s2.07-4.38,2.93-4.91c-1.6-5.32-6.54-12.59-21.82-10.7-22.41,2.78-22.17,15.74-22.17,15.74,0,3.17,2.94,16.38,24.3,16.46Z"/>
              <g>
                <path class="cls-4" d="M441.86,294.89s-8.71.3-6-5.08c2.71-5.37,7.81-11.12,7.81-11.12l17.84-.5s1.16-.24,2.61,1.47c1.45,1.71,5.1,8.71,5.1,8.71,0,0,1.21,3.16-2,4.45-5.61,2.26-16.37,2.26-25.35,2.06Z"/>
                <path class="cls-27" d="M440.79,292.69s-3.26-1.11-.55-6.48c2.71-5.37,3.58-7.51,3.58-7.51l17.84-.5s1.16-.24,2.61,1.47c1.45,1.71,4.94,8.71,4.94,8.71.19,1.96.44,2.7-2.81,3.68-5.79,1.75-23.87,1.32-25.61.65Z"/>
              </g>
              <g>
                <path class="cls-59" d="M442.05,286.16s-2.38-.27-4.84.99c-1.58-3.75-1.37-4.04-1.37-4.04,0,0,5.29,1.36,6.21,3.05Z"/>
                <path class="cls-79" d="M428.2,280.13s.3-7.88,1.37-10.93c.32-1.35.88-1.72.88-1.72,0,0,1.72-.15,2.23-1.18s.1-1.97-.85-2.19c1.14-1.52.55-2.38-.35-2.27-.42-1.7-1.73-1.01-1.72-.88-.57-.7-1.63-.26-1.89.29-.82-.24-2.02,1.88-1.64,3.6.23,1.16.32,1.79.13,2.5-.19.71-5.66,9.68-5.66,9.68,0,0,.97,3.3,2.47,3.78,1.5.48,5.04-.68,5.04-.68Z"/>
                <path class="cls-20" d="M431.82,264.11s-1.46-.76-2.23.24c-.77,1,.65,1.2.65,1.2,0,0-1.55-.28-1.63.7"/>
                <path class="cls-20" d="M431.48,261.84s.1,1.49-.89,2"/>
                <path class="cls-20" d="M429.76,260.97s.24,2.46-1.13,2.42c-.3-.08-.43-.28-.43-.28"/>
                <path class="cls-20" d="M427.86,261.25s.92,1.74-.02,2.26c-.83.47-.97-.59-.97-.59"/>
                <path class="cls-20" d="M429.94,264.03s-.58.24-.94-.71"/>
                <path class="cls-79" d="M440.12,267.65c.63-.33,1.2-.75,1.72-1.24.5-.46,1.43-1.15,3.03-1.84,2.8-1.2,12.54-.62,15.13,9.38,2.36,8.85-5.83,14.41-14.81,13.33-5.86-1.34-10.75-4.8-12.06-8.28-1.31-3.47-1.81-9.26,2.63-10.18,2.5-.37,3.45-.71,4.36-1.18Z"/>
                <ellipse class="cls-79" cx="445.12" cy="286.61" rx="2.85" ry="3.6" transform="translate(124.34 707.77) rotate(-85.48)"/>
                <path class="cls-13" d="M443.91,284.83c-.69-.05-1.35.05-1.91.28-.26.36-.43.77-.47,1.22-.12,1.57,1.38,2.97,3.37,3.13.69.05,1.35-.05,1.91-.28.26-.36.43-.77.47-1.22.12-1.57-1.38-2.97-3.37-3.13Z"/>
                <path class="cls-50" d="M443.88,275.23c.55,2.06,1.43,3.67,2.38,5.56-1.75-1.16-2.92-3.47-2.38-5.56h0Z"/>
                <path class="cls-50" d="M441.74,270.23c-.47-.32-.77-.8-.97-1.32-.27-.61-.19-2.51.27-.9.26.72.55,1.46.7,2.21h0Z"/>
                <path class="cls-13" d="M448.07,274.65s1.4,2.02.78,4.64c-.19.96,1.51.23,1.46-2.24-.05-2.47-1.91-2.74-2.24-2.4Z"/>
                <path class="cls-13" d="M444.09,266.26c.46.41,1.28,1.26,1.59,2.37.04.16.26.19.35.04.72-1.24.06-2.49-1.83-2.67-.14-.01-.22.16-.11.25Z"/>
                <path class="cls-70" d="M436.86,272.64s.43,2.72,1.95,4.56c1.27,1.4.2,2.67-1.65.71-1.85-1.96-1.75-3.92-1.38-4.8.36-.88.97-.98,1.08-.46Z"/>
                <path class="cls-50" d="M439.41,272.31s-1.51-.23.58,2.77c-1.52-.89-2.6-3.25-.58-2.77Z"/>
                <path class="cls-89" d="M398.97,257.2s.67.41.19,1.26c-.48.85-1.56.96-1.56.96,0,0,.6-1.9,1.37-2.22Z"/>
                <path class="cls-64" d="M397.6,256.45s.77-.36,1.22.39c.45.75-.04,1.59-.63,2.04-.65-.95-.59-2.43-.59-2.43Z"/>
                <path class="cls-79" d="M408.03,268.61s-4.65-3.03-7.44-4.52c-2.79-1.49-2.91-2.61-2.96-3.57-.05-.96.83-1.61.82-2.68-.01-1.07-1.62-2.53-2.22-.57-1.89,2.07-3.86,5.42-3.91,6.15-.04.74.58,1.36,2.67,2.26,2.09.9,5.51,5.97,5.91,6.7.4.72,7.11-3.76,7.11-3.76Z"/>
                <path class="cls-13" d="M408.03,268.61s-.94-.62-2.24-1.43c-1.68.3-4.64.97-6.91,2.29,1.03,1.33,1.85,2.57,2.03,2.9.4.72,7.11-3.76,7.11-3.76Z"/>
                <path class="cls-89" d="M391.43,276.39s-.35-2.49-1.54-1.81c.24,1.19.52,2.47.52,2.47l1.02-.66Z"/>
                <path class="cls-64" d="M388.3,274.8s.52-1.05,1.29-.93c.77.12,1.12,2.52,1.12,2.61,0,.09-2.41-1.68-2.41-1.68Z"/>
                <path class="cls-79" d="M433.43,279.71s6.32,2.47,5.06,8.65c-1.38,6.76-14.8,7.83-24.05,6.36-9.14-1.46-15.45-5.92-14.95-9.77.5-3.84,2.7-7.92,2.7-7.92,0,0-4.49,1.65-5.43,2.59-.94.94-3.15,3.32-4.55,2.13-1.41-1.19-3.01-3.46-3.89-4.69-.89-1.23-.13-2.81.69-2.36.82.45,1.2,1.55,1.2,1.55,0,0,2.41-.23,3.83.15,1.47-1.17,3.61-4.32,4.94-5.61,1.33-1.29,9.2-5.29,12-.84,2.23,3.53,1.56,7.4,1.56,7.4,0,0,1.72-.38,2.98.07.65-4.76.16-6.16-.5-7.58-.66-1.42-.82-3.14.24-3.86.29-1.47,1.59-1.58,1.59-1.58,0,0,1.14-1.74,2.37-.75,1.12-.3,2.52.44,1.75,1.58l-.19.8s1.89.44,1.66,1.8c-.23,1.35-2,2.92-2,2.92,0,0,.93,5.25,1.97,8.3,4.02.61,8.59.22,11.03.67Z"/>
                <g>
                  <path class="cls-13" d="M416.85,283.3c-1.82-2.36-1.33-5.89-1.33-5.89-.32-.11-.66-.17-1-.2,0,0-.74,5.31,2.22,8.19,2.25,2.19,9.08,2.53,12.24,2.57-5.46-.2-10.48-2.52-12.13-4.67Z"/>
                  <path class="cls-13" d="M428.98,287.97c.54.02,1.09.02,1.63,0,0,0-.63.02-1.63,0Z"/>
                </g>
                <path class="cls-20" d="M430.61,287.97c-6.07.27-11.95-2.31-13.76-4.66-1.82-2.36-1.33-5.89-1.33-5.89"/>
                <path class="cls-20" d="M412.54,277.34s-.3,3.49-1.49,6.35"/>
                <path class="cls-34" d="M413.98,278.56c-.3.13-.63.05-.73-.18s.07-.52.37-.65c.3-.13.63-.05.73.18.1.23-.07.52-.37.65Z"/>
                <path class="cls-14" d="M410.98,269.95c-1-1.59-2.65-2.1-4.42-2.04-.16.72-.11,1.5.21,2.23.8,1.86,2.95,2.72,4.81,1.93.12-.05.24-.11.36-.18-.24-.64-.54-1.3-.95-1.94Z"/>
                <line class="cls-20" x1="428.26" y1="287.93" x2="430.21" y2="289.75"/>
                <path class="cls-20" d="M419.21,263.64s-.81.31-.86,1.54"/>
                <path class="cls-20" d="M416.84,264.39s-.5.62-.31,1.57"/>
                <path class="cls-20" d="M415.25,265.97s-.15.75.1,1.33"/>
                <path class="cls-20" d="M420.77,266.02s-.01,1.12.03,1.74"/>
                <path class="cls-20" d="M448.62,287.37s.62-2.86-2.82-3.55"/>
                <path class="cls-20" d="M433.43,279.71s3.37,1.09,4.75,4.71"/>
                <path class="cls-60" d="M443.44,282.13c-.58.25-1.47-.52-1.98-1.72-.51-1.2-.46-2.37.12-2.62s1.47.52,1.98,1.72c.51,1.2.46,2.37-.12,2.62Z"/>
                <path class="cls-20" d="M394.26,277.19s-.51.86.47,1.74"/>
                <path class="cls-20" d="M396.51,262.19s-1.22-.35-1.36.58"/>
                <path class="cls-13" d="M436.25,289.75c1.78-2.34,2.22-3.85,2.2-4.23h0s-.71,6.32-10.31,8.58c-9.61,2.26-22.95,1-25.15-7.44-1.78-6.83,3.28-11.83,3.28-11.83,0,0-1.95,1.81-4.08,2.19,0,0-2.2,4.08-2.7,7.92-.5,3.84,3.12,6.77,12.07,9.14,8.65,2.29,21.06.45,24.69-4.33Z"/>
                <path class="cls-8" d="M415.21,277.41s-1.19,14.14,1.28,17.56c0,0-10.79-.1-16.31-5.5-5.52-5.4,4.08-13.68,5.78-14.29,0,0-4.38,5.02-2.97,11.5,1.41,6.48,8.8-.38,9.52-9.06,0,0,.08-.78,2.7-.2Z"/>
                <path class="cls-20" d="M402.19,277.03s3.05-1.04,4.08-2.19"/>
                <path class="cls-20" d="M421.48,275.74l.92,3.3s4.4.63,5.83.39"/>
                <path class="cls-29" d="M452.73,266.5s5.86,3.48,6.01,7.97c.07,2.15-.79-.03-1.99-2.02-1.2-1.99-3.68-4.22-5.08-5.18-1.12-.77.36-1.26,1.06-.77Z"/>
                <circle class="cls-29" cx="450.47" cy="266.09" r=".58"/>
              </g>
              <path class="cls-24" d="M499.05,241.2h-144.61l-5.63,55.31h155.29l-5.05-55.31ZM393.76,284.15c-13.63.05-18.2-6.04-19.71-10.86.85-.76,2.95-2.9,2.95-5.73s-2.07-4.38-2.93-4.91c1.6-5.32,6.54-12.59,21.82-10.7,22.41,2.78,22.17,15.74,22.17,15.74,0,3.17-2.94,16.38-24.3,16.46ZM458.76,284.15c-21.36-.09-24.3-13.29-24.3-16.46,0,0-.24-12.96,22.17-15.74,15.28-1.89,20.22,5.38,21.82,10.7-.86.54-2.93,2.11-2.93,4.91s2.1,4.97,2.95,5.73c-1.51,4.82-6.08,10.91-19.71,10.86Z"/>
              <g class="cls-71">
                <g class="cls-78">
                  <polygon class="cls-58" points="350.85 267.45 379.51 239.93 398.7 239.93 348.82 289.7 350.85 267.45"/>
                  <polygon class="cls-58" points="356.27 297.16 413.44 240 425.6 240 368.65 296.94 356.27 297.16"/>
                  <polygon class="cls-58" points="425.12 297.16 481.43 240.84 497.87 240.84 497.87 244.46 444.62 297.71 425.12 297.16"/>
                  <polygon class="cls-58" points="457.89 297.77 498.54 256.69 498.54 270.01 470.79 297.77 457.89 297.77"/>
                </g>
              </g>
              <path class="cls-28" d="M396.38,249.08c-16.46-2.15-22.14,5.77-24.1,11.92h-2.81l-.04-7.7s-.09-.86-1.16-.86-1.13.92-1.13.92v8.82c0,1.05,1.38,1.18,1.38,1.18h3.14c-.41,2.09-.42,3.69-.42,4.15,0,.56-.21,2.6.19,5.16h-2.91s-1.38.12-1.38,1.18v8.82s.06.92,1.13.92,1.16-.86,1.16-.86l.04-7.7h2.49c1.69,5.59,6.81,12.14,22.05,11.76,23.76-.57,27.04-15.56,27.04-19.28,0,0,.27-15.17-24.67-18.42ZM393.76,284.15c-13.63.05-18.2-6.04-19.71-10.86.85-.76,2.95-2.9,2.95-5.73s-2.07-4.38-2.93-4.91c1.6-5.32,6.54-12.59,21.82-10.7,22.41,2.78,22.17,15.74,22.17,15.74,0,3.17-2.94,16.38-24.3,16.46Z"/>
              <path class="cls-28" d="M456.14,249.08c16.46-2.15,22.14,5.77,24.1,11.92h2.81l.04-7.7s.09-.86,1.16-.86,1.13.92,1.13.92v8.82c0,1.05-1.38,1.18-1.38,1.18h-3.14c.41,2.09.42,3.69.42,4.15,0,.56.21,2.6-.19,5.16h2.91s1.38.12,1.38,1.18v8.82s-.06.92-1.13.92-1.16-.86-1.16-.86l-.04-7.7h-2.49c-1.69,5.59-6.81,12.14-22.05,11.76-23.76-.57-27.04-15.56-27.04-19.28,0,0-.27-15.17,24.67-18.42ZM458.76,284.15c13.63.05,18.2-6.04,19.71-10.86-.85-.76-2.95-2.9-2.95-5.73s2.07-4.38,2.93-4.91c-1.6-5.32-6.54-12.59-21.82-10.7-22.41,2.78-22.17,15.74-22.17,15.74,0,3.17,2.94,16.38,24.3,16.46Z"/>
            </g>
            <path class="cls-72" d="M522.52,299.2v8h-20.12c-3.92,4.39-26,26.17-78.34,26.17s-69.85-20.8-73.95-26.17h-19.81v-8h192.22Z"/>
            <rect class="cls-61" x="330.29" y="303.23" width="192.31" height="1.55"/>
            <polygon class="cls-80" points="499.42 310.16 352.66 310.16 351.69 309.11 500.54 309.11 499.42 310.16"/>
            <path class="cls-32" d="M345.92,343.13h160.2c.95,0,1.71.77,1.71,1.71v7.42h-163.62v-7.42c0-.95.77-1.71,1.71-1.71Z"/>
            <rect class="cls-3" x="410.42" y="356.96" width="10.92" height="52.42"/>
            <rect class="cls-66" x="421.35" y="356.96" width="10.14" height="52.42"/>
            <rect class="cls-2" x="431.48" y="356.96" width="10.14" height="52.42"/>
            <rect class="cls-45" x="410.42" y="409.37" width="10.92" height="45.09"/>
            <rect class="cls-39" x="421.35" y="409.37" width="10.14" height="45.09"/>
            <rect class="cls-5" x="431.48" y="409.37" width="10.14" height="45.09"/>
            <rect class="cls-9" x="417.22" y="461.01" width="17.79" height="6.08"/>
            <g>
              <circle class="cls-17" cx="357.15" cy="478.48" r="12.85"/>
              <circle class="cls-28" cx="357.13" cy="478.52" r="9.69"/>
              <polygon class="cls-65" points="370.36 471.43 370.36 463.61 368.65 463.61 368.65 461.81 344.76 461.81 344.76 463.77 342.81 463.77 342.81 466.62 356.18 468.74 354.22 480.56 358.79 480.81 363.27 470.21 370.36 471.43"/>
            </g>
            <g>
              <circle class="cls-17" cx="495.61" cy="478.48" r="12.85"/>
              <circle class="cls-28" cx="495.62" cy="478.52" r="9.69"/>
              <polygon class="cls-65" points="482.39 471.43 482.39 463.61 484.11 463.61 484.11 461.81 507.99 461.81 507.99 463.77 509.95 463.77 509.95 466.62 496.58 468.74 498.54 480.56 493.97 480.81 489.49 470.21 482.39 471.43"/>
            </g>
            <path class="cls-39" d="M349.35,453.39h152.12c.56,0,1.02.46,1.02,1.02v7.51h-154.15v-7.51c0-.56.46-1.02,1.02-1.02Z"/>
            <g>
              <rect class="cls-69" x="344.21" y="358.11" width="73.49" height="48.04"/>
              <rect class="cls-68" x="346.29" y="360.51" width="68.88" height="43.03"/>
              <rect class="cls-6" x="347.27" y="361.33" width="67.01" height="41.57"/>
              <ellipse class="cls-82" cx="380.47" cy="372.87" rx="14.12" ry="2.89"/>
              <rect class="cls-10" x="366.35" y="372.33" width="28.25" height="1.08" rx=".54" ry=".54"/>
            </g>
            <g>
              <rect class="cls-69" x="434.34" y="358.11" width="73.49" height="48.04"/>
              <rect class="cls-68" x="436.43" y="360.51" width="68.88" height="43.03"/>
              <rect class="cls-6" x="437.41" y="361.33" width="67.01" height="41.57"/>
              <ellipse class="cls-82" cx="470.6" cy="372.87" rx="14.12" ry="2.89"/>
              <rect class="cls-10" x="456.48" y="372.33" width="28.25" height="1.08" rx=".54" ry=".54"/>
            </g>
            <rect class="cls-12" x="344.21" y="348.9" width="163.62" height="9.21"/>
            <g>
              <ellipse class="cls-92" cx="417.64" cy="466.41" rx="7.59" ry="4.48"/>
              <ellipse class="cls-22" cx="417.64" cy="466.41" rx="6.15" ry="3.63"/>
            </g>
            <g>
              <ellipse class="cls-92" cx="435.59" cy="466.56" rx="7.59" ry="4.48"/>
              <ellipse class="cls-22" cx="435.59" cy="466.56" rx="6.15" ry="3.63"/>
            </g>
            <polygon class="cls-18" points="357.08 220.9 494.26 220.9 497.9 241.2 352.88 241.2 357.08 220.9"/>
            <polygon class="cls-75" points="356.8 220.9 358.38 220.9 355.45 241.2 351.69 241.2 356.8 220.9"/>
            <polygon class="cls-75" points="495.3 220.9 493.71 220.9 496.65 241.2 500.54 241.2 495.3 220.9"/>
          </g>
          <g>
            <path class="cls-44" d="M526.24,215.75c-4.37-1.93.85-15.47,2.54-18.97,14.61-30.09,20.1-51.48,26.24-56.08.86-1.36,21.97-8.49,19.17,11.76-.6,6.88-28.72,56.84-34.52,66.24,0,0-4.41,1.82-13.43-2.94Z"/>
            <path class="cls-44" d="M530.07,217.69c-21.58-6.54-24.13-20.91-45.75-45.88l3.45-4.28c5.02,2.78,41.62,31.66,47.85,30.82,0,0,9.61,16.21-5.55,19.33Z"/>
            <path class="cls-28" d="M542.54,157.56l-13.35,33.72s-4.86,15-2.48,24.83c0,0,5.53,6.44,14.11,2.56l34.59-59.96s8-27.02-17.24-20.33c0,0-10.81,1.93-15.63,19.19Z"/>
            <g>
              <path class="cls-19" d="M616.78,292.71c-12.21,0-22.95-8.06-26.31-19.89-.09-.3.09-.62.39-.71.31-.09.62.09.71.39,3.31,11.63,14.08,19.47,26.13,19.04.31-.03.58.24.59.55.01.32-.24.58-.55.59-.32.01-.64.02-.96.02Z"/>
              <g>
                <polygon class="cls-44" points="546.63 457.71 548.58 482.38 558.96 482.37 561.24 457.67 546.63 457.71"/>
                <g>
                  <path class="cls-62" d="M562.67,487.36h-46.78c.53-4.71,4.2-5.76,4.2-5.76l17.99-3.55,10.53-6.3,3.98,1.91s.8-.15,0,1.8c0,0,5.02,1.04,7.38,0l2.7,12.34"/>
                  <rect class="cls-40" x="515.89" y="487.37" width="46.78" height="1.88"/>
                </g>
              </g>
              <g>
                <polygon class="cls-44" points="609.3 449.43 607.41 474.1 597.03 474.12 594.69 449.43 609.3 449.43"/>
                <polygon class="cls-62" points="596.78 471.5 598.2 469.3 606.07 469.3 607.56 472.14 614.76 484.89 614.76 490.62 592.77 490.62 592.77 485.18 596.78 471.5"/>
              </g>
              <path class="cls-11" d="M626.83,290.9c1.57-6.11.17-22.22-.16-23.87l-3.05-23.27-71.89.73-1.73,29.1.91,17.32h75.92Z"/>
              <path class="cls-11" d="M613.97,471.78l4.46-120.22,9.38-73.08c-4.58-30.9-50.67-15.64-50.67-15.64l.21,14.2,9.18,86.92,4.38,109.93s15.49,7.15,23.06-2.1Z"/>
              <path class="cls-19" d="M574.26,253.8c-4.13,0-9.5-.16-18.58-.69-.32-.02-.56-.29-.54-.6.02-.32.3-.56.6-.54,15.2.89,19.95.74,25.97.54,1.69-.06,3.49-.12,5.65-.16,1.14-.02,2.64,0,4.43.03,6.5.09,17.38.25,29.06-1.55.32-.05.6.17.65.48.05.31-.17.61-.48.65-11.78,1.81-22.71,1.65-29.25,1.56-1.78-.03-3.26-.05-4.39-.03-2.15.04-3.95.1-5.63.16-2.45.08-4.69.15-7.49.15Z"/>
              <path class="cls-19" d="M622.85,278.29c-11.03,0-18.48-4.8-24.16-15.57-.15-.28-.04-.62.24-.77.28-.15.62-.04.77.24,5.53,10.48,12.45,14.96,23.15,14.96.32,0,.57.26.57.57s-.26.57-.57.57Z"/>
              <path class="cls-11" d="M550,273.58l-8.46,200.3s8.5,8.49,22.23,2.19l16.49-120.47,13.21-80.94h-43.44"/>
              <path class="cls-1" d="M589.85,447.77c-.31,0-.56-.24-.57-.55l-3.17-79.4c-2.05-30.62-3.55-41.75-6.25-61.97-.71-5.33-1.51-11.28-2.42-18.36-.16-1.25-.03-2.62.1-3.95.21-2.21.43-4.49-.67-6.18-.99-1.52-2.5-2.28-4.6-3.33-2.16-1.08-4.85-2.43-7.97-5.16-.24-.21-.26-.57-.05-.81.21-.24.57-.26.81-.05,3.01,2.64,5.62,3.94,7.73,4.99,2.17,1.09,3.89,1.94,5.04,3.73,1.31,2.03,1.07,4.51.84,6.92-.13,1.33-.25,2.58-.11,3.7.91,7.08,1.71,13.02,2.42,18.36,2.71,20.23,4.2,31.38,6.26,62.06l3.17,79.42c.01.31-.23.58-.55.59h-.02Z"/>
            </g>
            <path class="cls-35" d="M600.48,108.21c.24-.81.44-1.52.61-2.06,2.82-8.9,4.66-30.53-5.77-33.33-12.51-3.35-10.25,16.46-10.43,22.03-.19,6.44-.06,13.34,3.11,19.08,1.19,2.16,3.95,5.37,6.55,4.9,2.87-.51,4.8-6.76,5.93-10.63Z"/>
            <path class="cls-44" d="M600.68,101.4c.05,3.18-1.72,6.78-4.57,8.09-3.87,1.79-5.37-1.76-5.37-5.24,0-2.8,1.23-7.63,4.4-8.63,3-.94,5.5,3.17,5.54,5.78Z"/>
            <rect class="cls-44" x="574.62" y="107.13" width="21.18" height="26.34"/>
            <path class="cls-16" d="M589.33,121.71c2.12-4.46,3.39-8.97,3.03-14.58h-17.76s.02,22.91.02,22.91c5.58-.86,12.45-3.57,14.71-8.32Z"/>
            <polygon class="cls-44" points="566.2 137.19 575.17 130.5 595.08 130.5 605.84 137.19 566.2 137.19"/>
            <path class="cls-86" d="M549.54,203.14c-.23,12.31-1.43,21.84-1.66,34.14-.14,7.25-1.47,31.61.78,40.76,2.33,9.48,5.53-7.25,13.35-9.18,1.81-.45,3.58-1.07,5.4-1.48,6.94-1.59,11.88,4.69,18.29,6.58,6.27,1.85,12.72,4.67,19.1,5.7,6.77,1.1,14.45-.76,20.98-2.75,6.58-1.99,7.29-3.89,6.07-9.88-.58-2.83-.61-5.88-.91-8.75-.88-8.45-1.76-16.91-2.64-25.36-1.16-11.18-.74-24.11-3.64-34.99l4.36-45.78c1.53-9.16-6.5-12.13-6.5-12.13l-26.7-10.87c-11.28,8.49-21.18.88-21.18.88l-19.49,9.89s-6.34,3.61-7.77,15.35l2.17,47.87"/>
            <g>
              <path class="cls-35" d="M570.02,85.29c-5.14,2.69-3.87,7.73-4.3,12.75-.17,2.07-.79,4.09-1.07,6.1-1.3-2.06-2.06-8.94-2.24-11.33-1.12-14.87,3.5-24.08.35-10.5-.74,3.16,8.11-6.67,11.2-7.62,4.41-1.35,3.18,2.62,2.14,7.34l-6.09,3.26Z"/>
              <path class="cls-44" d="M594.42,108.75c-1.21,4.77-3.2,8.82-7.13,12-3.85,3.11-8,4.98-12.47,2.18-3.55-2.24-6.13-5.83-7.81-9.58-3.85-8.62-3.41-21.3,1.35-29.26,5.23-8.75,17.56-8.55,23.38-.3,4.74,6.72,4.63,17.27,2.67,24.97Z"/>
              <g>
                <path class="cls-16" d="M597.18,105.05c-.22,0-.44-.13-.53-.35-1.42-3.34-1.09-6.72.77-8.03.26-.18.61-.12.8.14.18.26.12.62-.14.8-1.38.97-1.54,3.89-.37,6.65.12.29-.01.63-.3.75-.07.03-.15.05-.23.05Z"/>
                <path class="cls-16" d="M596.49,100.5c-.17,0-.33-.07-.44-.21-.2-.25-.17-.61.08-.81,1.11-.91,2.97-.48,3.51-.33.31.09.48.4.4.71-.09.3-.4.48-.71.4-.86-.25-1.96-.31-2.47.11-.11.09-.24.13-.36.13Z"/>
              </g>
              <path class="cls-16" d="M586.83,103.35c.05.72-1.22,1.39-2.83,1.5-1.62.12-2.97-.37-3.02-1.08-.05-.71,1.22-1.39,2.84-1.5,1.61-.11,2.97.37,3.02,1.08Z"/>
              <path class="cls-16" d="M572.51,105.21c.05.71-1.22,1.39-2.84,1.5-1.61.11-2.97-.37-3.02-1.08-.05-.71,1.22-1.39,2.84-1.5,1.61-.12,2.97.37,3.02,1.08Z"/>
              <path class="cls-16" d="M575.76,107.58c-.95,0-1.88-.22-2.38-.77-.27-.3-.64-.93-.11-1.91,3.43-6.32,2.19-7.19,1.28-7.82-.22-.15-.42-.3-.59-.47-.22-.23-.22-.59.01-.81.23-.22.59-.22.81.01.11.12.26.22.42.32,1.58,1.1,2.7,2.64-.92,9.31-.22.41-.1.54-.06.59.44.48,2.2.54,3.23.1.29-.12.63.01.75.3.12.29-.01.63-.3.75-.56.24-1.36.39-2.15.39Z"/>
              <path class="cls-35" d="M567.75,97.2c-.22,0-.45-.1-.59-.3-.25-.33-.18-.79.14-1.04,1.28-.97,3.76-1.66,6.55-.43.38.17.54.61.38.98-.17.37-.6.54-.98.38-2.89-1.28-4.83.09-5.05.25-.13.1-.29.15-.45.15Z"/>
              <path class="cls-35" d="M579.89,96.18c-.2,0-.39-.08-.54-.23-.28-.3-.27-.76.02-1.05,1.84-1.76,4.98-1.58,6.76-.3.33.24.41.7.17,1.04-.24.33-.7.41-1.04.17-1.26-.91-3.61-1.03-4.85.17-.15.14-.33.21-.52.21Z"/>
              <path class="cls-35" d="M595.31,72.83c1.16,0,.25,4.16,1.32,4.8,2.38,1.42.22,3.35.92,5.78.89,3.06,1.58,6.18,2.13,9.32.21,1.23.14,2.99.62,4.15-.57-1.34-2.73-3.61-4.61-1.44-.78.9-.89,4.94-1.2,6.05-.41,1.47-.77.97-2.06,1.14-.64-4.14-.9-16.08-5.36-15.96-5.48.16-25.61,5.55-25.96-4.21-.2-5.49,3.28-12.02,11.87-12.25,0,0,15.88-3.18,22.33,2.63Z"/>
              <path class="cls-16" d="M576.54,112.7h-.04c-.79-.01-1.95-.31-2.93-1.7-.18-.26-.12-.62.14-.8.26-.18.62-.12.8.14.56.8,1.23,1.21,2,1.21h.03c1.07,0,2.35-.79,3.27-2.03.19-.25.55-.31.8-.12.26.19.31.55.12.8-.9,1.21-2.46,2.5-4.19,2.5Z"/>
              <path class="cls-19" d="M571.52,100.07c.11.97-.27,1.81-.86,1.87-.58.07-1.14-.67-1.25-1.64-.11-.97.28-1.81.86-1.87.58-.06,1.14.67,1.24,1.64Z"/>
              <path class="cls-19" d="M584.11,98.68c.11.97-.28,1.81-.86,1.87-.58.06-1.14-.67-1.24-1.64-.11-.97.27-1.81.86-1.87.58-.07,1.14.67,1.25,1.64Z"/>
            </g>
            <path class="cls-44" d="M466.63,162.12c-.57.71.67,1.51,1.18,1.92,4.03,3.21,14.61,10.48,18.48,7.87,5.54-3.75,1.09-19.6-.65-21.72-2.1.27-.89,6.11-1.09,9.38-5.03-3.5-10.45-13.17-13.27-13.97-2.97.84,3.93,7.14,5.7,12.14-6.9-7.41-10.78-11.37-11.63-10.46-2.04,1.14,5.79,10.14,9.11,12.97-4.24-2.99-7.27-5.58-9.21-6.73-1.14-.67-1.83.21-1.83.21-.24,2.11,7.99,8.27,10.37,10.24-1.67-.12-3.29-1.39-4.85-1.9-.56-.18-1.66-.55-2.2-.06-.04.04-.08.08-.11.11Z"/>
            <path class="cls-28" d="M599,130.46l-10.67,27.52s-2.89,26.84-2.31,51.12l13.68,117.73s28.1-4.74,37.83-15.61l-8.26-102.11,1.11-58.83s1.15-6.58-8.87-11.02l-22.52-8.79Z"/>
            <g>
              <path class="cls-44" d="M652.13,218.32c-4.04,2.55-12.38-9.33-14.34-12.68-16.85-28.9-31.56-45.37-31.95-53.04-.66-1.47,5.19-22.97,20.45-9.37,5.38,4.33,31.2,55.52,35.77,65.57,0,0-.94,4.67-9.93,9.51Z"/>
              <g>
                <path class="cls-44" d="M662.06,208.8c-1,22.53-16.09,38.39-34.92,65.51l-5-2.29c1.46-5.55,22.17-58,19.82-63.82,0,0,13.33-13.32,20.11.59Z"/>
                <path class="cls-44" d="M624.55,285.48c4-4.5,4.75-10.03,4.72-13.66-.53-3.87-2.58-4.17-5.13-4.46-1.78-.2-2.63.3-3.94,1.12-1.01.84-2.81,1.63-2.81,1.63-4.37,2.32-7.08,3.73-7.08,3.73,0,0-2.81,1.14-2.48,2.37.53,1.96,3.66.55,3.66.55l2.33-.69c1.32-.44.57.81.57.81l-1.1,2.41c-1.33,4.21-8.59,7.87-8.76,7.77,4.3,2.91,10.77-3.52,10.77-3.52,0,0-3.1,3.87-8.48,5.81,0,0-3.02,2.37,1.39,2.32,0,0,7.04-1.83,10.37-6.84,0,0-1.63,4.03-7.38,6.86,0,0-1.39,2.27,1.44,2.14,0,0,7.37-4.53,8.79-8.18,0,0-1.34,3.38-3.9,5.89,0,0-.23,1.73,1.66,1.11,0,0,4.42-4.38,5.38-7.16Z"/>
              </g>
            </g>
            <path class="cls-28" d="M566.2,134.31l4.55,28.26-12.76,167.53s-8.58-1.14-17.17-10.01l4.01-47.41,1.72-119.97s.81-8.39,7.11-12.48l12.54-5.92Z"/>
            <path class="cls-28" d="M482.2,175.44s1.65-7.88,8.29-8.83l37.76,25.09s20.21,13.44,13.95,25.39c0,0-13.75,16.1-47.29-24.87l-12.71-16.78Z"/>
            <path class="cls-73" d="M613.05,136.17s-12.37,3.26-7.25,27.16l30.9,48.81-15.75,50.3s1.77,9.43,13.47,10.21c0,0,33.24-46.98,28.17-65.89l-33.31-61.84s-3.04-5.4-16.23-8.77Z"/>
            <path class="cls-28" d="M616.55,279.36c3.92-1.23,8.76-3.75,12.92-3.38,1.12,4.03,1.93,8.01,2.34,12.16.36,3.63.1,8.21,1.1,11.72-3.17,3.02-8.61,3.96-12.53,5.52-4.06,1.61-8.49,5.24-12.97,4.49-4.7-.79-4.41-7.19-5.04-11.44-.51-3.43-3.7-11.88-1.32-14.68,2.18-2.58,12.2-3.35,15.52-4.4Z"/>
            <path class="cls-46" d="M564.07,213.73c-.26,0-.5-.18-.56-.45-.61-2.86-6.54-36.52-6.45-40.18.06-2.54,1.89-3.81,3.66-5.04.75-.52,1.51-1.05,2.18-1.69-2.33-.31-5.06-.87-5.74-2.91-.33-1.01.69-7.4,2.69-18.83.46-2.64.83-4.72.88-5.23.03-.32.32-.55.63-.51.31.04.54.32.51.63-.06.55-.41,2.54-.89,5.31-.97,5.57-3,17.15-2.73,18.28.54,1.61,3.5,1.97,5.67,2.24l.22.03c.2.02.38.16.46.35.08.19.05.41-.08.57-.9,1.15-2.04,1.94-3.15,2.71-1.67,1.16-3.12,2.16-3.17,4.13-.08,3.29,5.61,36.09,6.43,39.91.06.31-.13.61-.44.68-.04,0-.08.01-.12.01Z"/>
            <path class="cls-46" d="M591.68,213.73c-.05,0-.1,0-.16-.02-.3-.09-.48-.4-.39-.71,1.07-3.76,8.92-36.11,9.05-39.4.08-1.96-1.29-3.06-2.89-4.32-1.05-.84-2.14-1.71-2.96-2.91-.12-.17-.13-.39-.04-.58.09-.18.27-.31.48-.32h.23c2.17-.13,5.15-.3,5.8-1.88.34-1.1-.91-12.8-1.52-18.42-.3-2.78-.52-4.79-.54-5.34-.01-.31.23-.58.55-.6.29,0,.58.23.6.55.02.51.25,2.61.53,5.27,1.24,11.55,1.84,17.99,1.44,18.98-.81,2-3.57,2.37-5.92,2.53.62.68,1.35,1.26,2.07,1.83,1.68,1.34,3.42,2.73,3.32,5.27-.15,3.65-8.29,36.85-9.1,39.66-.07.25-.3.41-.55.41Z"/>
            <path class="cls-19" d="M600.15,283.74c-.28,0-.53-.21-.57-.5-.04-.32.19-.6.5-.64,3.53-.43,7.03-1.36,10.41-2.25,2.06-.54,4.19-1.11,6.32-1.56,4.12-.87,8.76-2.08,11.99-4.48.25-.19.61-.14.8.12.19.25.14.61-.12.8-3.41,2.52-8.2,3.78-12.43,4.68-2.1.44-4.22,1-6.27,1.54-3.42.91-6.96,1.84-10.57,2.28-.02,0-.05,0-.07,0Z"/>
            <path class="cls-19" d="M606.91,310.04c-.46,0-.92-.01-1.38-.04-.23-.01-.42-.16-.5-.37-1.33-3.5-1.9-7.37-2.45-11.11-.39-2.64-.79-5.37-1.45-7.96-.08-.31.11-.62.41-.7.31-.08.62.11.7.41.68,2.64,1.08,5.4,1.48,8.07.54,3.72,1.06,7.24,2.26,10.53,6.7.25,13.61-2.49,19.5-5.24,5.73-2.68,5.31-6,4.69-11.03-.18-1.45-.39-3.09-.44-4.83-.01-.31.24-.58.55-.59.3-.02.58.24.59.56.05,1.69.24,3.23.43,4.72.64,5.13,1.15,9.18-5.34,12.21-5.74,2.68-12.43,5.37-19.05,5.37Z"/>
            <path class="cls-19" d="M558.57,283.36c-.06,0-.12-.01-.18-.03-1.12-.37-2.23-.7-3.33-1.02-2.98-.88-5.8-1.72-8.6-3.22-.28-.15-.38-.49-.23-.77.15-.28.5-.39.78-.23,2.69,1.45,5.46,2.26,8.38,3.13,1.1.33,2.22.66,3.35,1.03.3.1.46.42.37.72-.08.24-.3.4-.54.4Z"/>
            <path class="cls-19" d="M551.52,306.19c-3.24,0-7.7-2.14-8.92-3.04-.24-.17-.86-.62-.55-1.18.15-.28.5-.38.78-.23.14.08.24.21.28.35.67.62,5.04,2.83,8.16,2.96,1.05.05,1.81-.16,2.22-.6,2.52-2.66,2.36-9.76,2.26-14.46-.02-.83-.04-1.59-.04-2.24,0-.32.26-.57.57-.57s.57.26.57.57c0,.64.02,1.39.03,2.21.11,4.89.27,12.27-2.57,15.27-.65.69-1.64.95-2.79.95Z"/>
            <path class="cls-19" d="M545.17,250h0c-.32,0-.57-.26-.57-.57,0-8.48.4-24.48.79-39.96.39-15.65.79-31.82.79-40.36,0-.32.26-.57.57-.57s.57.25.57.57c0,8.55-.4,24.74-.79,40.39-.38,15.47-.78,31.47-.79,39.93,0,.32-.26.57-.57.57Z"/>
            <path class="cls-19" d="M612.54,174.56c-.18,0-.36-.09-.47-.25-9.12-13.21-10.57-20.02-6.74-31.71.1-.3.42-.46.72-.36.3.1.46.42.37.72-3.69,11.26-2.27,17.87,6.59,30.7.18.26.11.62-.15.8-.1.07-.21.1-.32.1Z"/>
            <path class="cls-19" d="M642.12,215.84s-.06,0-.09,0c-6.23-.96-11.98-12.02-14.16-16.73-.14-.28-.01-.63.28-.76.28-.14.63-.01.76.28,1.64,3.54,7.46,15.18,13.3,16.08.31.05.53.34.48.65-.04.28-.28.48-.56.48Z"/>
            <path class="cls-19" d="M639.06,220.41c-.25,0-.48-.17-.55-.42l-.12-.44c-.74-2.71-1.5-5.5-3.24-8.17-.17-.26-.1-.62.17-.79.26-.17.62-.1.79.17,1.84,2.82,2.63,5.71,3.39,8.5l.12.44c.08.31-.1.62-.4.7-.05.01-.1.02-.15.02Z"/>
            <path class="cls-19" d="M530.7,203.78c-.29,0-.53-.21-.57-.5-1.46-11.56-7-14.96-13.41-18.9-1.18-.73-2.41-1.48-3.61-2.29-1.36-.92-2.73-1.91-4.06-2.88-2.39-1.73-4.86-3.52-7.44-5.01-1.29-.74-2.71-1.71-4.21-2.73-2.4-1.63-4.87-3.32-7.15-4.34-.29-.13-.42-.47-.28-.76.13-.29.47-.42.75-.29,2.37,1.07,4.89,2.78,7.32,4.44,1.49,1.01,2.89,1.97,4.14,2.69,2.63,1.52,5.12,3.32,7.54,5.07,1.32.96,2.68,1.95,4.03,2.85,1.19.8,2.4,1.55,3.57,2.27,6.38,3.92,12.42,7.63,13.94,19.73.04.31-.18.6-.49.64-.03,0-.05,0-.07,0Z"/>
            <g>
              <g>
                <path class="cls-19" d="M560.43,187.64c-.03.49-.51,1.61-1,1.58l-2.73-.94c-.49-.03-.86-.46-.83-.95h0c.03-.49.46-.87.95-.83l2.81-.33c.49.03.83.99.8,1.48h0Z"/>
                <path class="cls-19" d="M564.01,187.88c-.04.49.28,1.67.78,1.7l2.83-.55c.5.03.92-.34.95-.83h0c.03-.49-.34-.92-.83-.95l-2.74-.72c-.5-.03-.96.87-.99,1.36h0Z"/>
                <path class="cls-19" d="M568.32,188.56c-.11,0-.22,0-.33-.01l.04-.57c3.58.23,4.71-3.98,4.75-4.16,1.82-9.47-5.71-24.83-5.78-24.98-.94-1.91-2.38-1.69-2.44-1.67h-.07s-.07-.01-.07-.01c-.06-.02-1.45-.45-2.64,1.32-.1.14-9.65,14.33-9.14,23.98.02.17.57,4.5,4.13,4.75l-.04.57c-4.05-.28-4.66-5.22-4.67-5.27-.53-9.86,8.84-23.76,9.24-24.34,1.3-1.93,2.87-1.65,3.23-1.56.36-.04,1.96-.09,2.98,1.99.31.63,7.69,15.68,5.83,25.36-.02.06-1.23,4.62-5.02,4.62Z"/>
              </g>
              <path class="cls-19" d="M564.12,156.82h-.57c0-.23.34-22.96,7.11-25.68l.21.53c-5.58,2.23-6.74,20.4-6.75,25.15Z"/>
            </g>
            <g>
              <path class="cls-19" d="M597.51,164.55s-.06,0-.09-.01c-.15-.05-.24-.21-.19-.36,2.94-9.38,4.4-16.12,4.78-19.3.07-.59.15-1.17.22-1.75.69-5.25,1.29-9.78-3.38-12.41-.14-.08-.18-.25-.11-.39.08-.14.25-.18.39-.11,5.01,2.82,4.36,7.76,3.67,12.99-.07.57-.15,1.16-.22,1.74-.39,3.2-1.85,9.98-4.8,19.41-.04.12-.15.2-.27.2Z"/>
              <g>
                <path class="cls-33" d="M593.12,168.98c-2.12-.92-3.09-3.38-2.17-5.5.92-2.12,3.38-3.09,5.5-2.17l1.96.86-3.33,7.67-1.96-.86Z"/>
                <path class="cls-51" d="M600.43,167.59c-.92,2.12-3.38,3.09-5.5,2.17-2.12-.92-3.09-3.38-2.17-5.5.92-2.12,3.38-3.09,5.5-2.17,2.12.92,3.09,3.38,2.17,5.5Z"/>
                <path class="cls-81" d="M598.51,166.76c-.46,1.06-1.69,1.54-2.75,1.08-1.06-.46-1.55-1.69-1.08-2.75.46-1.06,1.69-1.55,2.75-1.09,1.06.46,1.55,1.69,1.08,2.75Z"/>
              </g>
              <path class="cls-19" d="M597.07,170.36h-.02c-2.61-.18-3.85-1.25-4.42-2.12-.72-1.09-.87-2.55-.4-3.91.35-1.02,1.22-1.89,2.38-2.4,1.26-.55,2.64-.59,3.77-.1.15.06.21.23.15.38-.06.14-.24.21-.38.15-.97-.42-2.21-.39-3.31.1-1.01.45-1.77,1.2-2.07,2.07-.41,1.19-.29,2.47.33,3.41.73,1.09,2.11,1.74,3.99,1.87.16.01.28.15.26.3,0,.15-.13.27-.28.27Z"/>
              <path class="cls-19" d="M594.69,169.83s-.05,0-.07,0c-2.07-.52-3.35-1.43-3.9-2.78-.66-1.61-.27-3.62.96-5,1.33-1.5,3-1.65,5.58-.53.15.06.21.23.15.38-.06.15-.23.21-.38.15-2.35-1.02-3.78-.91-4.93.38-1.09,1.22-1.44,2.99-.86,4.4.17.43.71,1.73,3.51,2.44.15.04.25.19.21.34-.03.13-.15.22-.28.22Z"/>
              <path class="cls-19" d="M599.88,168.18c-.08,0-.16-.03-.22-.1-.1-.12-.09-.3.03-.4.47-.41.74-1.36.68-2.35-.06-.91-.38-1.65-.86-1.96-.13-.09-.17-.27-.08-.4.09-.13.27-.17.4-.08.64.42,1.04,1.3,1.11,2.4.08,1.18-.26,2.29-.87,2.82-.05.05-.12.07-.19.07Z"/>
            </g>
          </g>
        </g>
      </g>
    </g>
    <g id="Layer_9" data-name="Layer 9">
      <g class="cls-57">
        <g class="cls-15">
          <g>
            <rect class="cls-90" x="478.61" y="-9.49" width="1069.89" height="469"/>
            <rect class="cls-36" x="480.32" y="-7.2" width="1105.53" height="10.71"/>
            <g class="cls-43">
              <path class="cls-38" d="M483.93,123.45s237.16,19.14,573.23,19.14,493.29-19.03,493.29-19.03l-1066.52-.12Z"/>
            </g>
            <g class="cls-43">
              <path class="cls-38" d="M628.84,106.33S587.01-9.23,940.18-14.81l-473.26-28.71-12.76,138.26,174.68,11.59Z"/>
            </g>
            <rect class="cls-67" x="456.76" y="226.59" width="1093.31" height="229.74"/>
            <rect class="cls-28" x="666.5" y="223.58" width="1.64" height="222.6"/>
            <rect class="cls-28" x="600.57" y="223.58" width="1.64" height="222.6"/>
            <rect class="cls-28" x="534.64" y="223.58" width="1.64" height="222.6"/>
            <rect class="cls-28" x="462.24" y="223.58" width="1105.53" height="10.71"/>
            <rect class="cls-36" x="450.9" y="433.07" width="1105.53" height="10.71"/>
            <g class="cls-43">
              <path class="cls-38" d="M826.63,395.57s-60.26,8.51-63.1,48.92h-302.72l12.05-333.2,155.26-18.43s-51.75,146.75,92.99,156.32c62.98,49.98,105.51,146.4,105.51,146.4Z"/>
            </g>
            <path class="cls-25" d="M693.16,89.32h-225.18v36.26h219.85c-1.5-12.38-.27-25.65,5.33-36.26Z"/>
            <rect class="cls-74" x="465.68" y="122.62" width="1084.78" height=".95"/>
            <g>
              <path class="cls-41" d="M673.76,100.98c.56.71.9,1.6.9,2.57v8.98c0,2.28-1.85,4.13-4.13,4.13h-9.38c-2.19,0-3.97-1.7-4.12-3.85,7.24-1.33,13.78-4.96,16.72-11.83Z"/>
              <path class="cls-28" d="M657.03,103.55c0-2.28,1.85-4.13,4.13-4.13h9.38c1.31,0,2.47.61,3.23,1.56-2.95,6.87-9.48,10.5-16.72,11.83,0-.09-.01-.18-.01-.28v-8.98Z"/>
              <circle class="cls-25" cx="665.85" cy="108.04" r="5.42"/>
              <path class="cls-31" d="M670.41,108.04c0,2.52-2.04,4.57-4.57,4.57s-4.57-2.04-4.57-4.57,2.04-4.57,4.57-4.57,4.57,2.04,4.57,4.57Z"/>
              <circle class="cls-91" cx="663.91" cy="107.96" r=".7"/>
              <circle class="cls-91" cx="667.82" cy="108.04" r=".7"/>
            </g>
            <rect class="cls-74" x="466.21" y="91.6" width="1084.78" height=".95"/>
            <rect class="cls-77" x="455.22" y="443.92" width="1103.92" height="85.8"/>
            <path class="cls-55" d="M816.73,487.57c.76-.43.32-.81-.98-.84l-6.84-.17,6.78-3.83-14.39-.35,6.39-3.07,26.03-12.51h.57s10.85-3.93,10.85-3.93c1.2-.44.97-.91-.45-.94l-7.87-.16c-1.13-.02-2.56.25-3.25.62l-7.88,4.22h.24s-22.52,9.63-22.52,9.63l-13.74,5.87-190.62-4.64,7.2-5.91,7.03-5.77,1.21.03c4.91.12,10.64-.66,14.17-1.84l1.59.03c.65.01,1.36-.05,2.02-.16,1.27-.22,2.37-.61,2.53-1l.21-.49c2.14-.38,4.09-.96,5.28-1.63,2.23-1.26.95-2.35-2.86-2.45-3.81-.09-8.7.85-10.93,2.11-1.14.64-1.36,1.24-.79,1.69l-1.69.5c-1.9.56-1.8,1.27.18,1.31l.93.02c-2.42.59-5.8.95-8.82.88l-1.77-.04,3.74-3.07h.24s7.04-4.19,7.04-4.19c.65-.39.25-.72-.92-.76l-7.51-.21c-1.47-.04-3.39.4-3.79.88l-3.41,4.08h.56s-4.48,3.06-4.48,3.06l-11.23-.27,1.89-1.06,1.26.03c.65.01,1.36-.05,2.02-.16,1.27-.22,2.37-.61,2.53-1l.21-.49c2.14-.38,4.09-.96,5.28-1.63,2.23-1.26.95-2.35-2.86-2.45-3.81-.09-8.7.85-10.93,2.11-1.14.64-1.36,1.24-.79,1.69l-1.69.5c-1.9.56-1.8,1.27.18,1.31l1.54.03-1.86,1.05-21.75-.53c-3.05-.07-4.92-.57-5.1-1.24l.9.02c.65.01,1.36-.05,2.02-.16,1.27-.22,2.37-.61,2.53-1l.21-.49c2.14-.38,4.09-.96,5.28-1.63,2.23-1.26.95-2.35-2.86-2.45-3.81-.09-8.7.85-10.93,2.11-1.14.64-1.36,1.24-.79,1.69l-1.69.5c-1.9.56-1.8,1.27.18,1.31l1.67.03c-.73,1.24,1.87,2.22,6.76,2.34l16.32.4-1.35.76c-.86.49-.37.91,1.11.95h.51s-1.25.72-1.25.72c-.47.26-.2.49.6.51l.81.02-22.2,12.52-6.41-.16c-1.3-.03-2.99.29-3.75.72-.76.43-.32.81.98.84h.54c-.57.2-1.06.4-1.45.62l-4.7,2.65c-1.65.93-.7,1.74,2.11,1.81h.38s-17.65,7.7-17.65,7.7c-1.9.83-1.74,1.65.02,2.23.16.05.34.11.53.16l-64.5,36.38c-.59.04-1.23.18-1.56.36l-2.36,1.33-2.3,1.3c-7.96-.09-15.89-.01-21.04.16-3.37.11-7.13.95-8.84,1.97-.76.45-1.53.98-2.39,1.63-6.46-.97-7.2-3.36-1.75-6.69,3.16-1.93,7.86-3.91,12.4-5.83,2.19-.92,4.45-1.88,6.48-2.81,18.19-8.28,34.16-16.54,47.45-24.55,8.09-4.87,17.35-10.64,24.74-16.55l.31-.25c4.38-3.5,8.91-7.12,9.7-10.41.75-3.15-3.64-4.78-8-5.25-4.01-.43-9.08-.15-15.05.84-5.13.85-10.32,2.19-15.03,3.88-2.96,1.06-5.51,2.17-7.96,3.31l-5.43-.13c-2.74-.07-6.22.58-7.98,1.47-.08.04-.15.08-.22.11l-6.59,3.72c-1.67.94-.71,1.77,2.14,1.83l11.75.29c1.64.04,3.55-.18,5.19-.55,1.22-.27,2.3-.63,3.01-1.04l6.59-3.72c1.67-.94.71-1.77-2.14-1.84l-4.94-.12c2.36-1.1,4.82-2.16,7.64-3.18,4.48-1.61,9.39-2.88,14.21-3.68,5.48-.91,10.1-1.17,13.74-.78,5.14.56,8.08,2.52,7.49,4.99-.77,3.23-5.26,6.81-9.6,10.28l-.31.25c-7.36,5.88-16.6,11.64-24.66,16.49-13.26,7.98-29.17,16.22-47.31,24.47-2.01.92-4.26,1.87-6.43,2.78-4.6,1.94-9.35,3.95-12.6,5.93-5.96,3.64-4.94,6.22,2.5,7.2-1.1.87-2.35,1.94-3.9,3.32,0,0,.02,0,.02,0l-6.63,4.41c-1.24.82-.28,1.5,2.2,1.56l2.49.06-.99.56-2.04,1.15c-.24.14-.1.26.31.27h.01c-4.59,2.25-10.83,3.99-17.42,5.81-3.39.94-6.9,1.91-10.21,2.97-5.93,1.9-9.41,4.25-12.76,6.52-1.15.78-2.33,1.58-3.59,2.34-.28.03-.56.09-.78.17l-2.86.99c-.79.27-1.46.56-1.99.86h0c-.26.15-.19.28.12.34l-.79.45-3.88-.09c-.94-.02-2.16.21-2.71.52l-.23.13-5.55-.14c-2.25-.05-5.17.51-6.49,1.25l-6.01,3.39c1.06.02,2.09.06,3.1.11h0c-1.01-.05-2.04-.08-3.1-.11l-22.17,12.51c-1.32.74-.56,1.4,1.7,1.45l7.29.18c-.88.26-1.64.56-2.21.87l-2.17,1.23c-.31.05-.61.13-.78.23l-1.2.67-2.38,1.34c-.28.16-.12.3.36.31l1.83.04c.48.01,1.1-.11,1.39-.27l1.7-.96,1.87-1.06c.2-.11.17-.21-.03-.27l2.13-1.2c.64-.36,1.74-.67,2.92-.86l4.11.1c.45.22.4.56-.24.92l-2.14,1.21c-.36.04-.73.13-.92.24l-1.2.67-2.38,1.34c-.28.16-.12.3.36.31l1.83.04c.48.01,1.1-.11,1.39-.27l1.7-.96,1.87-1.06c.18-.1.18-.19.04-.25l2.17-1.22c.57-.32.87-.63.95-.91l7.32.18c2.25.05,5.17-.51,6.49-1.25l2.42-1.36,9.02.22-8.72,4.92c-.16.04-.3.09-.4.15l-1.2.67-2.38,1.34c-.28.16-.12.3.36.31l1.83.04c.48.01,1.1-.11,1.39-.27l1.7-.96,1.87-1.06c.13-.07.16-.14.12-.19l8.65-4.88,9.24.23-2.18,1.23c-1.32.74-.56,1.4,1.7,1.45l7.43.18c-1.07.29-2,.63-2.66,1l-2.14,1.21c-.36.04-.73.13-.92.24l-1.2.67-2.38,1.34c-.28.16-.12.3.36.31l1.83.04c.48.01,1.1-.11,1.39-.27l1.7-.96,1.87-1.06c.18-.1.18-.19.04-.25l2.17-1.22c.81-.45,2.32-.83,3.82-.97l2.78.07c.87.2,1,.62.19,1.07l-2.11,1.19c-.41.03-.84.13-1.06.26l-1.2.67-2.38,1.34c-.28.16-.12.3.36.31l1.83.04c.48.01,1.1-.11,1.39-.27l1.7-.96,1.87-1.06c.15-.08.17-.16.1-.22l2.22-1.25c.66-.37.97-.73.96-1.04l7.61.19c2.25.05,5.17-.51,6.49-1.25l13.32-7.51h0l14.86-8.38c1.32-.74.56-1.4-1.7-1.45l-5.29-.13.23-.13c.55-.31.24-.58-.71-.61l-3.88-.09.79-.45c.47-.04.97-.15,1.23-.3.53-.3.91-.6,1.11-.89l.74-1.04c.06-.08,0-.15-.14-.19,4.33-2.57,18.44-9.92,34.87-16.4,7.44-2.94,15.89-6.44,22.06-10.16,6.43-3.87,9.47-7.41,9.28-10.83-.12-2.2,2.11-4.73,6.43-7.32,4.11-2.46,9.84-4.77,16.15-6.52,8.05-2.23,16.44-3.37,23.64-3.21.03,0,.07,0,.1,0,.05,0,.09,0,.14,0-12.56,5.73-24.33,12.68-28.84,19.97-1.37,2.21,2.08,3.83,8.74,4.15,5.4.26,12.64.6,21.05.94-1.89,2.17.66,4.31,6.97,5.12,5.27.68,13.97-.69,22.87-2.69.17,0,.34-.01.52-.03.47-.04.99-.12,1.49-.28-.08-.04-.15-.08-.22-.11,1.16-.27,2.33-.55,3.49-.84.57.01,1.14.03,1.72.04.04.01.08.03.12.04.03-.01.05-.02.07-.04,20.89.52,43.03.74,60.82.14,4.2-.14,8.87-.88,12.6-1.97,24.61-7.23,40.25-16.47,49.57-23.66,12.5.06,27.72-2.32,38.36-6.07l15.51-5.46,4.66-1.64,2.26.06c9.75.28,20.77-1.38,23.56-3.53l9.84-7.6c2.55-.13,5.37-.75,6.77-1.54l4.7-2.65c.4-.23.64-.44.75-.65,1.19-.05,2.53-.35,3.19-.72ZM563.99,498.49c2.79,2.32,7.15,4.48,13.92,5.99-4.48,1.44-10.39,3.44-16.79,5.87-.79-.16-1.45-.33-1.96-.51-.86-.32-1.46-.84-1.85-1.5-1.36-2.31-.11-6.37,1.56-9.99l5.12.14ZM588.54,468.13c.8.02,1.82-.18,2.29-.44l1.25-.71h.51c1.47.05,3.37-.32,4.23-.8l1.35-.76,6.33.15-12.65,8.61-4.41,3-14.91-.36,15.42-8.7h.57ZM338.17,590.58c.43-.24,1.18-.45,1.96-.57-.57.21-1.09.44-1.51.67-.06.03-.1.06-.14.09-.21.01-.41.02-.62.04.05-.08.15-.16.3-.24ZM341.23,590.82s.1-.04.14-.07c.38-.21.88-.42,1.44-.6.17.14.09.33-.26.53-.15.09-.34.17-.56.24-.23-.04-.48-.08-.76-.11ZM369.74,582.48c.14.11.28.22.41.34-.13-.11-.26-.23-.41-.34ZM370.18,582.85c.19.17.35.34.5.52-.15-.18-.32-.35-.5-.52ZM361.44,588.68l9.3-5.25h0l14.86-8.38c1.32-.74.56-1.4-1.7-1.45l-5.29-.13.23-.13c.55-.31.24-.58-.71-.61l-3.88-.09.79-.45c.47-.04.97-.15,1.23-.3.53-.3.91-.6,1.11-.89l.74-1.04c.06-.08,0-.14-.12-.19,1.29-.78,2.49-1.59,3.65-2.38,3.3-2.23,6.7-4.54,12.4-6.36,3.26-1.04,6.74-2.01,10.1-2.94,6.73-1.87,13.12-3.64,17.85-5.97h.53c.41.02.95-.08,1.19-.22l1.46-.82,1.57-.89,10.93.27-1.44.81-3.31,1.86c-.32.18-.22.34.2.41l-62.68,35.36-9.02-.22ZM397.11,592.26c-.14-.02-.28-.04-.43-.06l.16-.09c.56-.31.9-.62,1.07-.9.59.13.68.4.15.7-.24.13-.56.25-.94.36ZM393.68,591.8c.27-.15.68-.29,1.13-.4-.08.2-.31.42-.71.65l-.13.07c-.21,0-.42.02-.64.03.01-.11.12-.23.35-.35ZM425.65,584.03c-.2-.18-.42-.35-.66-.52h0c.24.17.46.35.66.52ZM546.62,516.22s-.07,0-.11,0c-7.57-.16-16.37,1.03-24.79,3.36-6.48,1.8-12.37,4.17-16.57,6.69-4.42,2.65-6.69,5.24-6.57,7.49.18,3.37-2.81,6.85-9.14,10.66-6.11,3.67-14.49,7.15-21.88,10.07-16.49,6.51-30.66,13.88-35.03,16.48-.28.03-.56.09-.79.17l-2.86.99c-.79.27-1.46.56-1.99.86h0c-.26.15-.19.28.12.34l-.79.45-3.88-.09c-.94-.02-2.16.21-2.71.52l-.23.13-5.55-.14c-2.25-.05-5.17.51-6.49,1.25l-6.01,3.39c1.06.02,2.09.06,3.1.11h0c-1.01-.05-2.04-.08-3.1-.11l-18.39,10.37-9.24-.23,62.68-35.36c.59-.04,1.23-.18,1.56-.36l2.36-1.33,2.39-1.35,17.01.41c2.48.06,5.66-.52,7.32-1.33l9.08-4.44s0,0,0,0c0,0,7.95-3.16,11.82-5.44,1.5-.88,1.15-1.71-.91-2.04-3.91-.63-11.42-1-19.52-1.16l1.29-.73,3.31-1.86c.32-.18.22-.34-.2-.41l63.86-36.02c.88.1,1.87.17,2.97.2l10.12.29-5.52,8.47c-1.14,1.75-.5,3.28,1.64,4.48,1.86,1.04,4.85,1.82,8.8,2.26-2.29.94-4.59,1.93-6.87,2.96-.09,0-.18,0-.27,0ZM754.58,504.62c-12.86,3.98-27.26,8.1-34.85,9.13-2.61.35-5.7.58-9.02.71,4.02-3.45,6.38-6.17,7.49-7.55,5.19-1.21,10.52-2.43,15.84-3.61l22.74.64c-.73.23-1.46.46-2.2.68Z"/>
            <g class="cls-84">
              <path class="cls-83" d="M677.4,443.96s14.98,57.04,347.86,63.42c332.88,6.38,327.56-65.94,327.56-65.94l244.61,3.19-18.03,118.24-1115.68-14.02,10.64-104.22,203.04-.67Z"/>
            </g>
            <g class="cls-84">
              <path class="cls-83" d="M710.26,477.22c-4.29-1.1-9.7-1.91-15.74-2.31-2.82-.19-5.79-.29-8.85-.29-4.02,0-7.89.18-11.48.5-4.66.42-8.86,1.08-12.38,1.93-6.74,1.63-10.95,3.93-10.95,6.49,0,.91.53,1.79,1.52,2.61,1.13.94,2.85,1.82,5.05,2.6,6.32,2.24,16.61,3.7,28.24,3.7,4.21,0,8.24-.19,11.98-.54,6.02-.56,11.25-1.54,15.19-2.8,3.69-1.18,6.23-2.6,7.2-4.16.29-.46.44-.93.44-1.42,0-2.46-3.91-4.69-10.22-6.31Z"/>
            </g>
          </g>
        </g>
      </g>
    </g>
  </g>
</svg>