<?xml version="1.0" encoding="UTF-8"?>
<svg id="Layer_6" data-name="Layer 6" xmlns="http://www.w3.org/2000/svg" viewBox="0 0 100.28 100.28">
  <defs>
    <style>
      .cls-1 {
        fill: #3177a5;
      }

      .cls-2 {
        fill: #43976d;
      }

      .cls-3 {
        fill: #f8d555;
      }

      .cls-4 {
        fill: #dc4334;
      }

      .cls-5 {
        fill: #b4ddea;
      }

      .cls-6 {
        fill: #77787c;
      }

      .cls-7 {
        fill: #999a9e;
      }

      .cls-8 {
        fill: #6ec4e6;
      }

      .cls-9 {
        fill: #f1f1f1;
      }

      .cls-10 {
        fill: #5a5b5d;
      }

      .cls-11 {
        fill: #fefefe;
      }

      .cls-12 {
        fill: #b3b4b8;
      }
    </style>
  </defs>
  <path class="cls-7" d="M11.26,17.16c.16.02.39.07.4.18.13,1.21.17,4.82,0,5.99l-.4.29c-.97.53-1.96.51-2.97.16.27,4.8.18,9.6-.27,14.39.4,1.07.4,2.16,0,3.23.5,4.3.5,8.62,0,12.93l.19-.4h52.88l.25.4c-.5-4.3-.5-8.62,0-12.93-.4-1.07-.4-2.16,0-3.23l-.4-.19v-14.11l.4-.24c1.07-.4,2.16-.4,3.23,0l.3,1.83c.16,16.55.14,33.1-.06,49.65l-.23,1.84c.33.11.5.51.5,1.22h26.43c.07-.5.25-.9.54-1.22.02-.16.07-.4.18-.4.74-.05,5.92-.08,6.15.13.07.06.11.16.13.27-.12,4.24-1.25,7.7-6.15,8.09-6.1.48-13.45-.02-19.7,0-2.16.5-4.31.5-6.46,0-10.77.52-21.55.52-32.32,0-2.16.5-4.31.5-6.46,0-6.14-.01-14.19.61-20.07-.03-2.55-.28-4.8-2.11-5.52-4.58-.59-19.18-.12-38.47-.24-57.68,1.26-5.58,4.91-5.5,9.67-5.58Z"/>
  <path class="cls-12" d="M98.52,76.94h-6.46l-.23-1.78c-.12-16-.19-31.99-.22-48l.28-3.28c-9.1.27-18.21.19-27.3-.26-1.07,0-2.16,0-3.23,0-1.19.1-2.38.2-3.58.27s-2.39.13-3.58.13c-11.92.03-23.86.01-35.78-.03-2.39,0-4.77-.18-7.16-.36v-6.46c27.15-.44,54.35.34,81.51,0,2.99.35,5.27,2.61,5.75,5.56-.39,18.06.52,36.19,0,54.23Z"/>
  <path class="cls-7" d="M14.49,91.48l.41.24c.1,1.37,1.19,2.45,2.55,2.59h73.24s.56.4.56.4c.49.93.8,2.17.81,3.23H8.03c.12-3.83,2.71-6.22,6.46-6.46Z"/>
  <path class="cls-12" d="M27.42,91.48c2.14-.56,4.32-.55,6.46,0,10.77-.58,21.55-.58,32.32,0,2.14-.55,4.32-.56,6.46,0,4.14.01,10.13-.49,14.02.02,1.74.23,3.76,1.67,4.56,3.21H17.42c-1.66-.16-2.96-1.55-2.93-3.23,4.11-.27,8.75.02,12.93,0Z"/>
  <path class="cls-10" d="M33.88,85.02c.16.02.39.07.4.18.13,1.21.17,4.82,0,5.99l-.4.29c-2.15,0-4.31,0-6.46,0v-6.46c2.15,0,4.31,0,6.46,0Z"/>
  <path class="cls-10" d="M72.66,85.02v6.46c-2.15,0-4.31,0-6.46,0-.16-.02-.4-.07-.4-.18-.05-.69-.14-5.72,0-5.99.08-.16.24-.24.4-.29,2.15,0,4.31,0,6.46,0Z"/>
  <path class="cls-5" d="M64.58,23.62c9.15,0,18.32,0,27.47,0-.31,17.76.41,35.57,0,53.32-9.15.4-18.32.4-27.47,0-.4-17.75.3-35.57,0-53.32Z"/>
  <path class="cls-9" d="M11.26,23.62c16.69-.13,33.4,0,50.09,0v14.54c0,.09.01.19-.02.27-.14.41-8.26.28-8.62.03-.18-.13-.29-.31-.34-.52-.38-2.51-1.72-9.69-4.24-3.57-1.21,3.47-2.52,6.89-3.93,10.26-.34.49-.84.43-1.09-.11-.43-2.09-1.13-4.02-2.1-5.79-2.4-.21-4.84-.27-7.31-.19l-.33-.27-1.59-8.68c-.43-1.03-1.87-.97-2.28.03l-4.26,13.08c-.27.57-.9.57-1.1-.04l-1.23-7.86c.18-1.14-1.3-6.28-2.96-3.82-.93,2.58-1.99,5.08-3.16,7.49-2.83.09-5.67.13-8.52.1l-.24-.4c0-4.84,0-9.7,0-14.54,1.07,0,2.16,0,3.23,0Z"/>
  <path class="cls-9" d="M8.03,41.39l.18-.4,9.9-.03c.83-.81,1.42-1.91,1.75-3.28.36-.35.81-.19.99.26.76,3.99,1.49,7.99,2.19,12.01,1.03,1.65,2.39.41,2.77-1.06,1.32-3.96,2.59-7.93,3.82-11.91.26-.43.77-.43,1,.03l.38,2.8c.23,1.01.99,1.43,2.28,1.26,2.12-.24,4.16-.19,6.11.16l3.07,8.83c1.32,2.46,3.39-1.8,3.54-3l2.32-6.45c.97-2.33,1.55-3.13,2.28-.17.14.27.36.46.65.53l9.84.03.24.4c0,4.31,0,8.62,0,12.93H8.03c0-4.31,0-8.62,0-12.93Z"/>
  <path class="cls-1" d="M8.03,38.16l8.66-.03,2.88-7.32c.85-1.18,2.49-.97,2.95.43.97,2.92,1.26,7.58,1.94,10.79.05.23.03.8.34.77l4.34-13.33c.54-1.36,2.49-1.39,3.03,0l1.54,8.66c1.68.35,6.24-.47,7.52.25.93.53,1.94,5.04,2.35,6.24.29-.02.31-.31.41-.5,1.75-3.43,2.76-8.35,4.6-11.56.63-1.1,2.2-1.23,2.84-.14.49.84,1.23,5.52,1.46,5.71l8.46.02c0,1.07,0,2.16,0,3.23l-10.16-.04c-1.2-.27-1.17-1.66-1.46-2.58-.23.15-.29.38-.4.61-1.62,3.22-2.59,7.84-4.31,10.84-.68,1.19-2.24,1.21-2.91,0l-2.98-8.74c-.78-.52-6.22.36-7.63-.24-1.14-.49-1.13-3.19-1.26-4.29-.29-.05-.26.34-.35.55-1.48,3.74-2.48,9.21-4.19,12.58-.7,1.39-2.36,1.4-3.03,0-.99-3.7-1.12-7.98-2.11-11.63-.07-.26-.03-.52-.31-.7-.54.99-.81,3.31-2.06,3.59l-10.16.04c0-1.07,0-2.16,0-3.23Z"/>
  <path class="cls-5" d="M11.26,57.55c7-.05,14.01.04,21.01,0-.11,6.46.15,12.94,0,19.39-.04.16-.11.39-.24.4-.57.08-3.81.1-4.32,0l-.29-.4-.41-.47c.04-2.88-.86-5.71-3.8-6.75-1.54-.35-2.57-1.13-.66-1.72,2.27-1.58,1.2-5.26-1.63-5.22-2.51.03-3.8,3.15-1.93,4.86,1.69.88,1.88,1.55-.29,2.08-2.93,1.03-3.84,3.87-3.8,6.75l-.41.47c-.05.68-3.15.46-3.4.27l-.24-.4v-19.01s.41-.24.41-.24Z"/>
  <path class="cls-5" d="M35.5,76.94c-.15-6.45.11-12.94,0-19.39h25.85c-.11,6.46.14,12.94,0,19.39l-.14.4h-25.47l-.25-.4Z"/>
  <path class="cls-11" d="M66.2,85.02v6.46c-10.77-.02-21.55-.02-32.32,0v-6.46c10.77.02,21.55.02,32.32,0Z"/>
  <path class="cls-9" d="M14.49,76.94c0-4.35,1.11-7.03,5.65-8.08l-1.42-.9c-2.2-1.99-.63-5.64,2.33-5.57s4.31,4.17,1.71,5.97c-.37.25-.91.17-1,.51,4.54,1.05,5.66,3.73,5.65,8.08.4.53.4,1.09,0,1.62-4.3.02-8.62.02-12.93,0-.4-.53-.4-1.09,0-1.62Z"/>
  <path class="cls-8" d="M11.26,57.55v19.39s3.23,0,3.23,0c0,.54,0,1.08,0,1.62-2.15-.01-4.31,0-6.46,0v-21.01c1.07,0,2.16,0,3.23,0Z"/>
  <path class="cls-8" d="M92.05,76.94c-.01.54,0,1.08,0,1.62h-27.35c-.22-.03-.11-1.3-.12-1.62h27.47Z"/>
  <path class="cls-8" d="M61.35,76.94c0,.31.1,1.59-.12,1.62h-25.74c0-.54.01-1.08,0-1.62h25.85Z"/>
  <path class="cls-8" d="M32.26,76.94c-.01.54,0,1.08,0,1.62-1.61,0-3.24,0-4.85,0,0-.54,0-1.08,0-1.62h4.85Z"/>
  <path class="cls-9" d="M68.97,28.51c.91-.2,6.21-.19,7.22-.03s1.25.81,1.33,1.7c.37,4.11-.3,8.77,0,12.94-.01.55-.35,1.14-.86,1.36-.63.27-6.36.27-7.33.16-1.09-.13-1.43-.68-1.52-1.71-.37-4.11.3-8.77,0-12.94.01-.67.49-1.32,1.16-1.47Z"/>
  <path class="cls-3" d="M76.65,62.45c6.61-1.05,7.75,8.85,1.55,9.63s-7.52-8.68-1.55-9.63Z"/>
  <rect class="cls-6" x="67.81" y="54.32" width="19.39" height="3.23"/>
  <rect class="cls-6" x="67.81" y="47.86" width="16.16" height="3.23"/>
  <rect class="cls-2" x="80.74" y="34.93" width="6.46" height="3.23"/>
  <rect class="cls-4" x="80.74" y="28.47" width="4.85" height="3.23"/>
  <path class="cls-9" d="M38.27,60.83c1-.22,5.88-.18,7.03-.05,1.09.13,1.43.68,1.52,1.71.21,2.26.25,7.51,0,9.71-.11.93-.58,1.41-1.51,1.51-1.43.17-5.24.17-6.67,0-1.09-.13-1.43-.68-1.52-1.71-.21-2.26-.25-7.5,0-9.71.08-.7.43-1.31,1.16-1.47Z"/>
  <path class="cls-9" d="M51.19,60.83c1-.22,5.88-.18,7.03-.05,1.09.13,1.43.68,1.52,1.71.21,2.26.25,7.51,0,9.71-.11.93-.58,1.41-1.51,1.51-1.43.17-5.24.17-6.67,0-1.09-.13-1.43-.68-1.52-1.71-.21-2.26-.25-7.5,0-9.71.08-.7.43-1.31,1.16-1.47Z"/>
  <rect class="cls-5" x="71.05" y="31.7" width="3.23" height="9.7"/>
  <rect class="cls-5" x="40.34" y="64.02" width="3.23" height="6.46"/>
  <rect class="cls-5" x="53.27" y="64.02" width="3.23" height="6.46"/>
</svg>