<?xml version="1.0" encoding="UTF-8"?>
<svg id="Layer_1" data-name="Layer 1" xmlns="http://www.w3.org/2000/svg" viewBox="0 0 100.28 100.28">
  <defs>
    <style>
      .cls-1 {
        fill: #394b7d;
      }

      .cls-2 {
        fill: #d1f0fc;
      }

      .cls-3 {
        fill: #405282;
      }

      .cls-4 {
        fill: #a2bacf;
      }

      .cls-5 {
        fill: #f3f6f9;
      }

      .cls-6 {
        fill: #34dfa9;
      }

      .cls-7 {
        fill: #3f5281;
      }

      .cls-8 {
        fill: #3a4d7e;
      }

      .cls-9 {
        fill: #fa6768;
      }

      .cls-10 {
        fill: #fefd99;
      }

      .cls-11 {
        fill: #bbd9e5;
      }

      .cls-12 {
        fill: #384b7d;
      }

      .cls-13 {
        fill: #00bbde;
      }

      .cls-14 {
        fill: #55658f;
      }

      .cls-15 {
        fill: #475987;
      }

      .cls-16 {
        fill: #3a4b7c;
      }

      .cls-17 {
        fill: #fe4b3a;
      }

      .cls-18 {
        fill: #29d8f0;
      }

      .cls-19 {
        fill: #fa6564;
      }

      .cls-20 {
        fill: #1c16a3;
      }

      .cls-21 {
        fill: #a3bbd0;
      }

      .cls-22 {
        fill: #29cfe6;
      }

      .cls-23 {
        fill: #00fec0;
      }

      .cls-24 {
        fill: #fdfdfe;
      }

      .cls-25 {
        fill: #4c5d8a;
      }

      .cls-26 {
        fill: #fde73e;
      }

      .cls-27 {
        fill: #d3f3fe;
      }

      .cls-28 {
        fill: #f2fbfe;
      }

      .cls-29 {
        fill: #00fdc0;
      }

      .cls-30 {
        fill: #fefefe;
      }

      .cls-31 {
        fill: #00c4e9;
      }

      .cls-32 {
        fill: #384c7d;
      }

      .cls-33 {
        fill: #fd4b3a;
      }

      .cls-34 {
        fill: #3f5181;
      }
    </style>
  </defs>
  <path class="cls-25" d="M16.04,96.37c.1-.1,1.34-.05,1.21.5-.19.78-1.74.03-1.21-.5Z"/>
  <path class="cls-14" d="M98.56,96.37c.52.52-1.03,1.36-1.01.3,0-.27.89-.42,1.01-.3Z"/>
  <path class="cls-20" d="M98.16,52.98c-.16-2.34-2.29-4.05-4.55-4.15h-58.26c-1.14.07-2.3.56-3.14,1.31-.29.25-.27.69-.6.72v-30.74h1.62v3.14c0,1.09,2.39,1.04,3.13.9.71-.13.87-.68.93-1.3.1-1.06.12-6.87-.17-7.54-.5-1.2-3.89-.79-3.89.25v3.74h-1.62v-10.42c0-1.2-2.87-1.26-3.7-1.07-.28.06-1.15.7-1.15.87v10.62h-3.64c-.01-1.92-.84-3.94-2.95-4.23-4.69-.64-10.71.43-15.54,0-1.64.47-2.6,1.61-2.75,3.32-.82,9.2.63,19.6,0,28.93-.07,1.38,1.88,3.13,3.14,3.13h4.95c.11,0-.09,1.57.15,2.17.33.81,1.85,1.48,1.88,1.6.25,1.01-.1,3.31.02,4.59.64,6.8,6.7,5.68,7.77,10.84.22,1.07.13,2.33.43,3.41.75,2.72,3.7,4.81,6.54,4.48v14.36c-.45-.16-2.43.19-2.43.71v3.74h-6.47c-.09.56.12.83.7.82h77.89c1.03-.12,1.03-.95-.11-.92.92-.85,1.79-1.9,1.83-3.23v-40.06ZM26.76,76.95c-2.59-.08-5.1-1.63-5.81-4.21-.51-1.86-.08-3.26-1.11-5.16-1.71-3.16-5.15-3.03-6.53-6.61-.85-2.2-.4-4.45-.52-6.75,1.91-.5,2.7-1.81,2.44-3.77,2.46-.15,6.33.8,7.5-2.11.07-.17.39-1.35.39-1.43v-26.8h3.64v56.83Z"/>
  <path class="cls-31" d="M95.73,51.87c.1.14.2.29.27.44s.13.3.13.45c-.03,1.05-.12,2.08-.22,3.12-.14,1.33-.64,5.67-1.12,6.57-.24.46-.52.58-.7.17l-.19-9.33-.19.4c-16.37.03-32.74.07-49.11.1l-.25-.4.4.14v38.95l-.4.25.37-.33c6.21.32,12.45.4,18.73.26l.52.27c-.08.14-.17.27-.28.38-1.45,1.46-10.85,1.75-13.11,1.77-5.2-.12-10.41-.17-15.61-.15l-.82-.21-.1-1.79c-.06-.23-.4-.65-.4-.81-.1-.12-.2-.24-.27-.37-.39-.73-.02-4.78.47-5.7l.49.19c1.68,4.73,8.95,2.35,7.14-2.46-1.29-3.44-5.8-3.04-7.15.08l-.49.17c-.1-.13-.2-.26-.27-.4-.26-.52-.16-5.06-.09-6.08l.36-.8.24-.44c2.57.12,5.12.12,7.66,0,.28-.65.48-4-.08-4.18-2.46-.2-4.93-.19-7.4.02l-.42-.24c-.56-.29-.56-2.54,0-2.83l.14-.4,7.79.09c.24-.66.45-3.93-.11-4.11-2.46-.2-4.93-.19-7.4.02l-.42-.24c-.56-.29-.56-2.54,0-2.83l.14-.4,7.79.09c.24-.66.45-3.93-.11-4.11-2.46-.2-4.93-.19-7.4.02l-.42-.24c-.51-.15-.45-1.08-.41-1.57.16-2.09,1.91-3.63,3.93-3.9,17.76-.03,35.53,0,53.29.05,1.7,0,3.39.18,5.08.36Z"/>
  <path class="cls-13" d="M96.94,51.67c.35.69.58,1.34.61,2.12v38.24c-.19,2.45-1.38,4.12-3.94,4.35h-58.06s-1.5-.22-1.5-.22v-3.23c.13.54.32.95.19,1.62,6.83-.28,13.94.36,20.74,0,2.92-.15,6.22-.71,8.99-1.63,9.81-.41,19.6-.57,29.37-.46.11-12.96.16-25.94.16-38.93l.41-.25.4,9.5c.7-3.57,1.47-7.26,1.42-10.92.12-.55.85-.48,1.21-.2Z"/>
  <path class="cls-23" d="M20.89,29.83l.44.58c.43,9.77-7.8,18.48-17.65,18.24l-.59-.41c-.45-.84-.5-1.19-.4-2.22h4.55c.34,0,.48-.81-.2-.81H2.69v-2.43h3.24c.08-.23-.09-.81-.3-.81h-2.93v-2.43h4.55c.34,0,.48-.81-.2-.81H2.69v-2.43h3.24c.08-.23-.09-.81-.3-.81h-2.93v-2.43h4.55c.35,0,.35-.81,0-.81H2.69v-2.43c6.06.13,12.15-.17,18.2,0Z"/>
  <path class="cls-30" d="M22.31,29.02H2.69v-2.43h4.55c.35,0,.35-.81,0-.81H2.69v-2.43h2.93c.35,0,.35-.81,0-.81h-2.93v-2.43h4.55c.35,0,.35-.81,0-.81H2.69c-.26-1.49.51-3.25,2.12-3.44,4.72-.56,10.53.42,15.36.02.95.06,2.14,1.45,2.14,2.31v10.82Z"/>
  <path class="cls-18" d="M95.53,50.26c.58.47.98,1.2.2,1.62-19.44.24-38.91-.18-58.35,0-1.49.11-3.2,1.52-3.49,2.98-.14.69.04,1.42-.05,2.08l.36.36c-.24,1.31-.18,2.64.01,3.95l-.37.34c.07.75.07,2.09,0,2.83l.32.35c-.46,1.25-.44,2.59.05,4l-.37.3c.07.75.07,2.09,0,2.83l.37.37c-.17,1.38-.11,2.77.01,4.15l-.38.34c.15,2.33-.02,4.92,0,7.28.51.69.5,1.33,0,2.02,0,2.01-.2,4.14-.2,6.07l-2.03-.32v-38.82c.21-1.87,2.05-3.44,3.94-3.35h58.27c.73-.06,1.16.3,1.71.62Z"/>
  <path class="cls-11" d="M28.98,8.59c.4,0,1.82-.06,1.82.51v82.82c-.67-.02-1.35.02-2.02,0l-.4-.19c.07-27.62.13-55.25.2-82.88l.41-.25Z"/>
  <path class="cls-6" d="M20.89,29.83c.47.01.95-.01,1.42,0v16.9c-.06,1.63-1.11,2.75-2.73,2.93-4.55-.32-9.68.43-14.17,0-1.21-.11-1.77-.41-2.32-1.42,10.07.6,18.6-8.39,17.8-18.41Z"/>
  <path class="cls-21" d="M28.98,8.59l-.2,83.33c-.28,0-1.18.1-1.22-.12V9.29c-.04-.92.75-.68,1.42-.7Z"/>
  <path class="cls-11" d="M33.23,93.94c.03.51.18,2.23-.33,2.4-.94-.06-7.61.26-7.76-.17-.12-.64-.3-2.22.14-2.63.28-.26,6.78-.05,7.72,0l.24.4Z"/>
  <path class="cls-11" d="M35.05,15.47c.47-.04.95.02,1.42,0-.13.96.25,7.74-.2,7.89-.46.16-1.29.25-1.62-.14-.24-.29-.05-6.6,0-7.51l.4-.24Z"/>
  <path class="cls-4" d="M33.23,93.94h-8.09c.11.58-.16,1.76,0,2.22-.37-.46-.3-3.34.13-3.45,1.08.16,7.54-.26,7.87.2.17.24.07.72.09,1.02Z"/>
  <path class="cls-29" d="M14.42,50.46c.68,4.01-4.32,3.83-3.84,0h3.84Z"/>
  <path class="cls-21" d="M35.05,15.47v7.89c.34-.06.94.09,1.21,0-.29.42-2.15.22-2.23-.13.16-1.07-.27-7.32.2-7.67.21-.16.57-.07.82-.09Z"/>
  <path class="cls-22" d="M96.94,51.67c-.22.34-.83.2-1.21.2,0-.55.1-1.12-.2-1.62.84.48.94.49,1.42,1.42Z"/>
  <path class="cls-12" d="M93.91,53.29l-.09,39.45-.61.2c-9.74-.03-19.49,0-29.24,0-5.87,0-12.79.46-18.52,0-.39-.03-.73-.12-1.1-.21v-39.34l49.55-.1Z"/>
  <path class="cls-32" d="M33.84,86.06c0-.67,0-1.35,0-2.02,1.09-3.6,6.38-4.27,7.89-.71,2.37,5.6-6.01,8.56-7.89,2.73Z"/>
  <path class="cls-16" d="M33.84,61.58c-.24-2.39-.33-2.15,0-4.65.34-.23.72-.2,1.1-.21,1.62-.05,5.27-.25,6.68.01.69.13.67.53.73,1.09.07.72.17,3.57-.42,3.86l-8.09-.1Z"/>
  <path class="cls-32" d="M33.84,76.75c-.15-2.34-.24-2.4,0-4.85.34-.23.72-.2,1.1-.21,1.62-.05,5.27-.25,6.68.01.69.13.67.53.73,1.09.07.72.17,3.57-.42,3.86-1.2.58-6.44-.23-8.09.1Z"/>
  <path class="cls-1" d="M33.84,69.07c-.11-1.05-.56-1.87-.42-3.35.06-.62.39-1.05.42-1.3.34-.23.72-.2,1.1-.21,1.62-.05,5.27-.25,6.68.01.69.13.67.53.73,1.09.07.72.17,3.57-.42,3.86l-8.09-.1Z"/>
  <path class="cls-27" d="M69.44,53.9c.59.34,1.26,2.06.81,2.63.41.54.74,1.11.99,1.74l3.42,10.35.04.86c-1.87,4.03-3.51,8.18-5.56,12.13l-6.26-9.91c-1.14-.94-6.58-.08-8.26-.44-.52-.16-2.13-3.14-2.57-3.8-.56-1.85-1.27-3.66-2.13-5.41l.11-.45.36-.4c2.1.25,2.78-1.15,1.17-2.43l.07-.48c1.82-1.63-1.6-2.69-2.37-.99l-.44.05c-.61.09-.65-.44-.2-.81-.82-.56-1.15-1.7-.81-2.63,7.21-.08,14.43,0,21.64,0Z"/>
  <path class="cls-27" d="M78.33,80.8c.17.18.33.36.47.57,1.1,1.56,2.6,6.95,3.18,9.12.06.22.07.46.06.7s-.03.49-.07.74c-7.15.11-14.29.11-21.44,0-.55-.16-1.33-1.82-.81-2.22-.92-.85-1.39-2.41-1.28-3.63l-.55-.88c-1.17-4.17-2.52-8.27-4.05-12.3l.02-.99c2.76.49,5.66.02,8.45.25l6.31,10.17c.39.18.94.22,1.19-.23,1.55-3.26,2.99-6.58,4.5-9.86.22-.47.6-.96.78-1.34,1.58,3.12,2.67,6.46,3.24,9.91Z"/>
  <path class="cls-30" d="M53.86,71.9c2.26,5.2,4.03,12.27,5.87,17.8l-.18.41-11.49.21c-.65-.06-.95-.64-.26-.82.66-.26.66-.53,0-.81-.51-.76-.51-1.47,0-2.22.66-.26.66-.53,0-.81-.67-.37-.68-2.23.2-2.22l.26-.36c1.3.06,2.58.03,3.85-.11l.14-.34c-1.55-.19-3.12-.18-4.7.03-.19-4.72-.24-9.48-.15-14.27l.4-1.54c.32-.62.55-1.37.91-2.03.09-.16.05-.56.4-.4.4.19,4.42,6.7,4.76,7.48Z"/>
  <path class="cls-28" d="M93.1,73.11l.1,18.9c-.11.12-2.95-.02-3.18-.22l-5.12-15.69.31-.36,3.34-6.47c1.13,1.9,1.7,4.11,4.44,3.66l.11.19Z"/>
  <path class="cls-30" d="M80.76,56.73c3.22.48,6.5.55,9.85.23l.26.38c.09.15.17.3.23.46.5,1.43-1.69,8.81-2.54,10.43l-.72.64c-.85,1.92-2.05,3.8-3.03,5.66-.21-.25-.41-.51-.59-.78s-.35-.54-.46-.83c-1.92-4.97-3.5-10.11-4.98-15.21l-.04-.98c-.28-1.02,1.96-.81,2.02,0Z"/>
  <path class="cls-27" d="M85.21,75.74l5.24,16.06,2.65.12v-18.81s.2,19.01.2,19.01l-48.14-.2c5.12-.5,10.25-.5,15.37,0,7.14,0,14.3.06,21.44,0,0-.18.06-.31.2-.4h3.34s-3.77-10.77-3.77-10.77c-.22-.78-.34-1.57-.38-2.37-.19-.24-.37-.48-.53-.74s-.3-.51-.4-.78c-1.18-3.51-2.29-7.13-3.32-10.61.08-.18.71-2.05,1.01-1.82l5.3,10.99c.56.79.97,1.05,1.79.34Z"/>
  <path class="cls-28" d="M77.73,53.9c5.19,0,10.39,0,15.57,0v18.2c-1.33,0-1.85.28-2.72-.82-.79-1-1.11-3.31-2.74-2.41,1.58-3.55,2.69-7.66,3.03-11.53v-.44c-3.36.02-6.67.04-9.93.07l-.18-.24c-.37,0-1.56-.59-2.02,0-.85-.7-1.24-1.76-1.01-2.83Z"/>
  <path class="cls-28" d="M47.79,66.84v15.57c.2.2,3.87-.31,4.45.2l-.13.24c-1.3.1-2.69.21-4.03.19l-.09.37c-.38.54-.19,1.52-.2,2.22.57.14.57.67,0,.81,0,.74,0,1.49,0,2.22.45.24.4.54,0,.81.04.11-.12.38.12.41l11.81-.21c.23.69.72,1.44.81,2.22-5.12,0-10.25,0-15.37,0v-20.11c.79-1.7,1.78-3.31,2.63-4.97Z"/>
  <path class="cls-27" d="M77.73,53.9c.34.94.7,1.89,1.01,2.83,1.99,5.94,3.79,11.96,6.07,17.8-.17.33,0,.97-.6.81l-5.57-11.31c-.87-.79-1.27-.19-1.71.6-1.57-2.28-2.59-5.33-2.83-8.09-.82-.63-1.12-1.65-.81-2.63,1.48,0,2.97,0,4.45,0Z"/>
  <path class="cls-30" d="M77.12,66.23c.55-.12.39.28.5.6,1.35,3.81,2.46,7.7,3.75,11.54.18.73-2.43,3-2.63,2.93l-.41-.5c-1.1-3.29-2.18-6.6-3.24-9.91.69-1.5,1.31-3.12,2.02-4.65Z"/>
  <path class="cls-30" d="M74.09,56.53c.9,2.7,1.8,5.43,2.83,8.09-.75,1.34-1.54,3.38-2.22,4.85-.31-.2-.35-.54-.46-.86-1.43-3.99-2.66-8.07-3.99-12.09.02-.16.06-.39.18-.4.27-.05,3.19-.06,3.38,0l.28.4Z"/>
  <path class="cls-28" d="M47.79,53.9c.27.87.51,1.77.81,2.63.09.28-.04.5-.4.65l.17,6.46c-.24.28-.33.63-.38.98l-2.83,5.26v-15.98c.87,0,1.76,0,2.63,0Z"/>
  <path class="cls-24" d="M48.6,56.53c.1.29.13.62.2.81.56-.14,1.22,1.02,1.08,1.53-1.07.7-1.33,1.91.11,2.24l.02.47c.77.52,1.69,3.86,2.03,4.95.08.27.38.73,0,.91-.35-.54-2.22-3.62-2.43-3.74-.75-.46-1.41.22-1.62.91l-.2-7.79.81-.3Z"/>
  <path class="cls-28" d="M73.28,53.9c.26.87.52,1.76.81,2.63h-3.84c-.29-.87-.72-1.7-.81-2.63,1.28,0,2.56,0,3.84,0Z"/>
  <path class="cls-26" d="M40.51,83.02c1.86,2.18.51,5.03-2.22,5.46v-3.54c0-.3-.61-.3-.61,0v3.24c0,.65-1.47-.24-1.82-.51-1.62-2.56,2.07-6.32,4.65-4.65Z"/>
  <path class="cls-10" d="M40.51,83.02c-3-.5-5.09,1.67-4.65,4.65-3.72-2.78,1.28-8.62,4.65-4.65Z"/>
  <path class="cls-17" d="M41.73,58.35c.05.87-.04,1.76,0,2.63h-7.48c.04-.87-.05-1.76,0-2.63.18-.22.4-.43.68-.45,2.01-.13,4.11-.13,6.12,0,.28.02.5.24.68.45Z"/>
  <path class="cls-9" d="M34.24,58.35c.02-.27-.01-.54,0-.81h7.37c.23.03.1.58.12.81-2.37-.34-5.11-.34-7.48,0Z"/>
  <path class="cls-33" d="M41.73,73.31c.03.53.19,2.63-.33,2.8-.45.15-5.73.13-6.45.04-1.07-.13-.75-1.91-.7-2.84-.01-.1-.01-.19.02-.27.12-.35,6.59-.24,7.23-.13l.24.4Z"/>
  <path class="cls-19" d="M34.24,73.31c.02-.27-.01-.54,0-.81h7.37c.22.03.1.58.12.81h-7.48Z"/>
  <path class="cls-33" d="M41.73,65.83c.03.53.19,2.63-.33,2.8-.45.15-5.73.13-6.45.04-1.07-.13-.75-1.91-.7-2.84.18-.22.4-.43.68-.45,2.01-.13,4.11-.13,6.12,0,.28.02.5.24.68.45Z"/>
  <path class="cls-9" d="M34.24,65.83c.02-.27-.01-.54,0-.81h7.37c.22.03.1.58.12.81-2.37-.34-5.11-.34-7.48,0Z"/>
  <path class="cls-8" d="M50.02,61.58c-.46-.31-1.18-.18-1.38-1.16-.27-1.33.97-1.61.97-1.77,0-.08-.59-.72-.81-1.31.45-1.73,3.48-1.79,3.76,0,.12.77-.73,1.21-.73,1.32,0,.13,1.64.7.78,2.2-.54.94-1.7.73-2.61.73Z"/>
  <path class="cls-8" d="M56.49,58.55c.67.7,1.24.73,1.01,1.91-.37,1.92-4.6,1.01-3.84.31.75.15,3,.51,3.21-.53.23-1.19-1.97-.95-2.19-1.39-.26-.52,1.47-.47,1.77-.75.74-.7-.18-1.38-1.07-1.39-.21,0-2.02.42-1.62-.19.49-.75,3.2-.67,3.5.34.21.71.07,1.61-.77,1.68Z"/>
  <path class="cls-28" d="M81.37,78.37c1.5,4.49,3.16,8.95,4.65,13.45,0,.2-3.63.1-4.05.1-1.04-3.76-2.4-7.43-3.64-11.12.37.31.46.02.71-.2.81-.7,1.56-1.48,2.33-2.23Z"/>
  <path class="cls-7" d="M47.79,86.46c0-.25,0-.56,0-.81,3.11.26,6.78-.35,9.82,0,.97.11.94.73,0,.83-3.05.33-6.7-.27-9.82,0Z"/>
  <path class="cls-34" d="M47.79,89.49c-.22-.6,0-.55,0-.81,3.11.26,6.78-.35,9.82,0,.97.11.94.73,0,.83-3.05.33-6.7-.27-9.82,0Z"/>
  <path class="cls-15" d="M52.24,82.62c.43.15.19.67-.13.78-.35.11-3.66.12-4.11.03-.34-.06-.5-.49-.41-.81,1.11.23,3.76-.31,4.65,0Z"/>
  <path class="cls-34" d="M90.87,57.34c-1.81.25-7.54.22-9.41.01-.46-.05-.7-.07-.7-.62.14,0,.52-.21.9-.21,3.11-.02,6.21.03,9.32,0l.51.5c-.17.26-.33.27-.61.31Z"/>
  <path class="cls-3" d="M81.06,59.56h6.67c.06,0,.37.41.5.51-.1.07-.25.3-.3.3h-6.88c-.26,0-.45-.63,0-.81Z"/>
  <path class="cls-2" d="M50.02,60.77c-.43-.31-.55-.71-.4-1.21.94-1.6,3.45.25,2.11,1.2-.56.39-1.14.24-1.7.02Z"/>
  <path class="cls-2" d="M50.16,56.77c1.9-.57,2.35,1.59.57,1.59-1.26,0-1.51-1.3-.57-1.59Z"/>
  <path class="cls-5" d="M50.02,60.77c-.73-.3-.85-.45-.4-1.21l.4,1.21Z"/>
</svg>