<?xml version="1.0" encoding="UTF-8"?>
<svg xmlns="http://www.w3.org/2000/svg" viewBox="0 0 632 560">
  <defs>
    <style>
      .cls-1 {
        fill: #e88768;
      }

      .cls-2 {
        fill: #f0f4fa;
      }

      .cls-3 {
        fill: #69463a;
      }

      .cls-4 {
        fill: #9fdee3;
      }

      .cls-5 {
        fill: #3f4145;
      }

      .cls-6 {
        fill: #989ca6;
      }

      .cls-7 {
        fill: #f59776;
      }

      .cls-8 {
        fill: #fda88b;
      }

      .cls-9 {
        fill: #858991;
      }

      .cls-10 {
        fill: #dce2ee;
      }

      .cls-11 {
        fill: #b5f5db;
      }

      .cls-12 {
        fill: #fac843;
      }

      .cls-13, .cls-14 {
        fill: #d8f7ef;
      }

      .cls-15 {
        fill: #b2b8c2;
      }

      .cls-16 {
        stroke-width: 2.2px;
      }

      .cls-16, .cls-17, .cls-18 {
        fill: none;
        stroke-linecap: round;
        stroke-miterlimit: 10;
      }

      .cls-16, .cls-18 {
        stroke: #5e2400;
      }

      .cls-19 {
        fill: #f5f1f5;
      }

      .cls-20 {
        fill: #e5ebf9;
      }

      .cls-21 {
        fill: #ebf0fa;
      }

      .cls-22 {
        fill: #edf3ff;
      }

      .cls-23 {
        fill: #fff;
      }

      .cls-24 {
        fill: #f0f0f0;
      }

      .cls-25 {
        fill: #9fedcd;
      }

      .cls-26 {
        fill: #d4dae6;
      }

      .cls-27 {
        fill: #ffc0ab;
      }

      .cls-17 {
        stroke: #befff7;
        stroke-width: 2.62px;
      }

      .cls-28 {
        fill: #805647;
      }

      .cls-29 {
        fill: #7b331a;
      }

      .cls-30 {
        fill: #e1e7f2;
      }

      .cls-31 {
        fill: #eb7c4f;
      }

      .cls-32 {
        fill: #53d9a3;
      }

      .cls-33 {
        fill: #e2e6ec;
      }

      .cls-34 {
        fill: #5e3f34;
      }

      .cls-35 {
        isolation: isolate;
      }

      .cls-36 {
        fill: #f7a083;
      }

      .cls-37 {
        fill: #d1daf0;
      }

      .cls-38 {
        fill: #ebfdfa;
      }

      .cls-39 {
        fill: #cff7f1;
      }

      .cls-40 {
        opacity: .57;
      }

      .cls-40, .cls-14, .cls-41 {
        mix-blend-mode: multiply;
      }

      .cls-42 {
        fill: #e88866;
      }

      .cls-43 {
        fill: #58bd95;
      }

      .cls-44 {
        fill: #c0c6d1;
      }

      .cls-45 {
        fill: #f4fbff;
      }

      .cls-46 {
        fill: #0ba451;
      }

      .cls-47 {
        fill: #ee3403;
      }

      .cls-48 {
        fill: #e07651;
      }

      .cls-49 {
        fill: #5ef6b9;
      }

      .cls-41 {
        fill: #e3bb86;
        opacity: .49;
      }

      .cls-50 {
        fill: #45281e;
      }

      .cls-51 {
        fill: #fd9774;
      }

      .cls-52 {
        fill: #dae2ed;
      }

      .cls-53 {
        fill: #5e2400;
      }

      .cls-54 {
        fill: #ffb8a1;
      }

      .cls-55 {
        fill: #c6ccd6;
      }

      .cls-56 {
        fill: #ddfdf8;
      }

      .cls-57 {
        fill: #d3eaf3;
      }

      .cls-58 {
        fill: #024253;
      }

      .cls-59 {
        fill: #a4b0be;
      }

      .cls-60 {
        fill: #f0d5b4;
      }

      .cls-61 {
        fill: #ffe8ca;
      }

      .cls-62 {
        fill: #e5ecf6;
      }

      .cls-63 {
        fill: #4f352c;
      }

      .cls-64 {
        fill: #ee3604;
      }

      .cls-65 {
        fill: #d96f45;
      }

      .cls-66 {
        fill: #eafffa;
      }

      .cls-67 {
        fill: #4a849a;
      }

      .cls-68 {
        fill: #bbbfc9;
      }

      .cls-18 {
        stroke-width: 2.5px;
      }

      .cls-69 {
        fill: #58e6ad;
      }

      .cls-70 {
        fill: #fb9467;
      }

      .cls-71 {
        fill: #e6ebf5;
      }

      .cls-72 {
        fill: #fafbff;
      }
    </style>
  </defs>
  <g class="cls-35">
    <g id="Layer_10" data-name="Layer 10">
      <g>
        <circle class="cls-57" cx="322.48" cy="81.28" r="7.25"/>
        <path class="cls-57" d="M135.02,153.47c0,2.17-1.76,3.93-3.93,3.93s-3.93-1.76-3.93-3.93,1.76-3.93,3.93-3.93,3.93,1.76,3.93,3.93Z"/>
        <path class="cls-57" d="M134.18,386.2c0,1.4-1.14,2.54-2.54,2.54s-2.54-1.14-2.54-2.54,1.14-2.54,2.54-2.54,2.54,1.14,2.54,2.54Z"/>
        <path class="cls-57" d="M12.27,261.66c0,1.4-1.14,2.54-2.54,2.54s-2.54-1.14-2.54-2.54,1.14-2.54,2.54-2.54,2.54,1.14,2.54,2.54Z"/>
        <circle class="cls-57" cx="428.25" cy="142.02" r="5.76"/>
        <circle class="cls-19" cx="453.66" cy="234.75" r="4.77"/>
        <path class="cls-19" d="M310.39,91.87c0,1.85-1.5,3.35-3.35,3.35s-3.35-1.5-3.35-3.35,1.5-3.35,3.35-3.35,3.35,1.5,3.35,3.35Z"/>
        <path class="cls-19" d="M102.79,51.77c0,1.85-1.5,3.35-3.35,3.35s-3.35-1.5-3.35-3.35,1.5-3.35,3.35-3.35,3.35,1.5,3.35,3.35Z"/>
        <circle class="cls-57" cx="513.73" cy="105.74" r="7.25" transform="translate(240.56 553.49) rotate(-70.24)"/>
        <path class="cls-57" d="M518.31,306.57c2.04.73,3.1,2.98,2.37,5.02s-2.98,3.1-5.02,2.37-3.1-2.98-2.37-5.02,2.98-3.1,5.02-2.37Z"/>
        <path class="cls-57" d="M593.6,215.96c1.32.47,2.01,1.93,1.53,3.25s-1.93,2.01-3.25,1.53-2.01-1.93-1.53-3.25,1.93-2.01,3.25-1.53Z"/>
        <path class="cls-57" d="M578.63,458.66c1.32.47,2.01,1.93,1.53,3.25s-1.93,2.01-3.25,1.53-2.01-1.93-1.53-3.25,1.93-2.01,3.25-1.53Z"/>
        <circle class="cls-57" cx="606.65" cy="26.73" r="5.76"/>
        <circle class="cls-19" cx="578.74" cy="228.31" r="4.77"/>
        <path class="cls-19" d="M519.61,120.7c1.74.63,2.65,2.54,2.02,4.29s-2.54,2.65-4.29,2.02-2.65-2.54-2.02-4.29,2.54-2.65,4.29-2.02Z"/>
        <path class="cls-19" d="M411.7,302.52c1.74.63,2.65,2.54,2.02,4.29s-2.54,2.65-4.29,2.02-2.65-2.54-2.02-4.29,2.54-2.65,4.29-2.02Z"/>
      </g>
      <g>
        <g>
          <rect class="cls-55" x="73.07" y="189.33" width="205.81" height="207.45" rx="19.35" ry="19.35"/>
          <rect class="cls-10" x="80.69" y="189.33" width="205.81" height="207.45" rx="19.35" ry="19.35"/>
          <rect class="cls-59" x="99.63" y="231.08" width="170" height="110.14" rx="18.13" ry="18.13"/>
          <g class="cls-40">
            <path class="cls-10" d="M205.39,277.53c-48.51,0-88.2-39.69-88.2-88.2h0s-17.15,0-17.15,0c-10.64,0-19.35,8.71-19.35,19.35v168.76c0,10.64,8.71,19.35,19.35,19.35h167.11c10.64,0,19.35-8.71,19.35-19.35v-99.91h-81.11Z"/>
          </g>
          <g>
            <path class="cls-45" d="M188.24,212.46s-36.14,1.97-45.77,17.31c0,0-14.17-3.65-14.8.65-.64,4.3,6.06,6.71,6.06,6.71,0,0,1.19,36.65,13.59,56.53,0,0-8.74,7.5-1.58,10.99,7.16,3.49,9.77-2.8,9.77-2.8,0,0,63.06,5.52,91.64,1.79,28.58-3.72,33.02-5.81,33.02-5.81,0,0,12.98,4.66,12.71-1.5-.27-6.16-8.34-8.66-8.34-8.66,0,0,7.35-46.55-9.96-61.29,0,0,7.09-1.29,7.01-6.25-.08-4.97-13.43.59-13.43.59,0,0-27.86-24.38-79.91-8.25Z"/>
            <g class="cls-40">
              <path class="cls-21" d="M284.53,287.67s.65-4.12,1.1-10.27c-4.85.84-11.5,1.86-20.63,3.05-28.58,3.72-91.64-1.8-91.64-1.8,0,0-2.61,6.29-9.77,2.8-7.16-3.49,1.58-10.99,1.58-10.99-8.92-14.29-12.04-37.26-13.09-49.04-4.05,2.21-7.49,4.95-9.62,8.35,0,0-14.17-3.65-14.8.65-.64,4.3,6.06,6.71,6.06,6.71,0,0,1.19,36.65,13.59,56.53,0,0-8.74,7.5-1.58,10.99,7.16,3.49,9.77-2.8,9.77-2.8,0,0,63.06,5.52,91.64,1.79,28.58-3.72,33.02-5.81,33.02-5.81,0,0,12.98,4.66,12.71-1.5-.27-6.16-8.34-8.66-8.34-8.66Z"/>
            </g>
          </g>
        </g>
        <ellipse class="cls-41" cx="339.63" cy="491.44" rx="278.8" ry="27.8"/>
        <ellipse class="cls-41" cx="90.37" cy="533.2" rx="81.46" ry="13.96"/>
        <ellipse class="cls-41" cx="93.11" cy="488.85" rx="81.46" ry="13.96"/>
        <g>
          <path class="cls-8" d="M353.36,166.7s-25.13,30.04-27.27,33.16c0,0-45.27.7-53.64.56-4.99-.08-3.34,5.73-2.62,6.75.72,1.02,56.89,9.24,58.32,9.46s40.28-32.38,42-40.97-16.78-8.97-16.78-8.97Z"/>
          <path class="cls-52" d="M380.47,147.91s11.13,7.7,1.26,23.8c-9.87,16.1-19.13,19.25-19.13,19.25,0,0-13.07-17.23-15.71-20.83-2.43-3.32,19.3-32.98,33.58-22.21Z"/>
          <path class="cls-8" d="M272.44,200.42s-3.9-3.72-8.1-3.72-13.43-1.85-13.6-.84c-.17,1.01,4.7,4.25,8.06,4.56,3.36.31,4.85,7.79,12,7.07,7.15-.72,1.65-7.07,1.65-7.07Z"/>
        </g>
        <g>
          <g>
            <path class="cls-62" d="M435.37,452.88v18.36s2.68,2.53,3.81,1.16c1.13-1.38-1.13-13.84,0-15.72,1.13-1.88-1.96-5.99-3.81-3.8Z"/>
            <path class="cls-8" d="M388.4,248.44s9.98,90,15.52,102.23c0,0,2.01,8.32,6.55,11.74,0,0,5.04,25.44,11.59,37.66,6.55,12.23,14.61,50.02,14.61,50.02,0,0,10.58,5.01,10.07,0-.5-5.01-6.78-45.13-6.04-52.77.89-9.16-4.53-24.15-13.1-34.91-8.56-10.76,12.09-75.82-4.53-113.97-16.62-38.15-34.66,0-34.66,0Z"/>
            <path class="cls-45" d="M436.31,446.2s-2.79,7.77,1.17,13.27c3.97,5.5,6.51,7.59,6.51,11.77s5.66,8.77,16.14,10.05c10.48,1.28,0-12.19,0-12.19,0,0-13.37-19.54-14.13-25.05-.76-5.52-9.71,2.16-9.71,2.16Z"/>
            <path class="cls-8" d="M453.45,458.78s-1.36-1.97-3.08-5.17c-2.26-3.95-4.09-7.63-4.36-9.57-.05-.34-.13-.62-.23-.87,0-.01,0-.02-.01-.03-1.62-3.68-9.47,3.05-9.47,3.05,0,0,4,1.72,5.51,7.79,3.36,13.49,11.25,22.24,16.12,18.81,1.81-1.28,1.65-3.55.74-5.89-1.28-1.92-3.22-4.9-5.22-8.13h0Z"/>
          </g>
          <g>
            <path class="cls-8" d="M354.65,275.09s2.52,45.71,12.59,74.05c0,0,1.51,13.66,5.04,18.06,0,0,8.56,51.56,5.04,78.85,0,0,2.52,8.21,8.56,5.77,6.04-2.45,8.06-33.26,9.07-42.07,1.01-8.8,6.55-34.73-8.56-51.85,0,0-.5-6.87-.5-11.51s12.5-56.72,10.89-76.05c-1.62-19.33-40.61-31.62-42.12,4.74Z"/>
            <path class="cls-45" d="M377.32,446.06s-8.5,15.11-12.84,18.9c-4.34,3.79-13.64,5.06-14.83,9.53s22.23,2.15,24.47,1.53c2.24-.62,10.23-16.15,16.98-17.3,0,0,2.75,13.08,1.84,17.58l1.85.03.06-16.3s5.33-7.24-3.76-18.37c0,0-8.57,7.19-13.77,4.41Z"/>
            <path class="cls-8" d="M391.09,442.04s-4.43,2-6.69,6.15c-2.53,4.64-8.44,15.86-12.3,17.98-3.86,2.12-8.06,1.6-7.62-1.22,0,0,8.96-11.33,12.84-18.9,3.89-7.57,12.43-5.78,13.77-4.02Z"/>
          </g>
          <path class="cls-63" d="M421.07,81.15s13.69,6.14,10.5,23.09c-3.19,16.96-8.06,16.62-8.06,16.62,0,0,7.11,5.72,3.05,14.03,0,0,13.07-.65,14.75,11.41,1.68,12.07-13.42,12.07-17.12,8.48,0,0-2.86,7.01-9.07,3.91,0,0-12.76,2.93-13.43-10.27-.67-13.21,3.53-19.24,3.53-19.24,0,0-3.74-14.11,5.27-15.53,0,0-.75-35.54,10.59-32.51Z"/>
          <path class="cls-63" d="M357.89,75.58s-9.38,5.64-4.34,20.13c0,0-6.55,10.79,0,18.14,0,0-16.62,8.47-6.8,25.64,0,0-13.12,10.08-1.27,16.93,11.85,6.85,15.34-6.6,15.34-6.6,0,0,16.97,9.13,22.82-4.89,0,0,7.42,1.42,8.06-5.4.64-6.82,0-12.94,0-12.94,0,0-9.37-57.41-33.58-49.49"/>
          <path class="cls-45" d="M408.83,141.43s10.83,2.19,15.36,13.36c7.18,17.73-22.31,42.82-15.36,61.62,6.96,18.79,33.17,33.38,29.13,73.95-4.04,40.57-83.29,28.87-87.15,8.93-3.86-19.94,2.24-60.02,8.25-71.16,6.02-11.14,3.08-33.31,3.08-33.31,0,0-18.7-4.46-10.07-22.26,8.32-17.15,22.13-28.6,24.96-31.13,2.83-2.54,21.41-3.66,31.8,0Z"/>
          <path class="cls-2" d="M408.83,216.41c-6.96-18.79,22.54-43.89,15.36-61.61-4.53-11.17-15.36-13.36-15.36-13.36-1.78-.63-3.82-1.11-5.96-1.47.14.31.3.6.43.93,7.18,17.73-22.31,42.82-15.36,61.62,6.96,18.79,33.17,33.38,29.13,73.95-2.77,27.85-40.99,31.07-65.93,23.89,6.41,19.27,82.85,29.84,86.82-9.99,4.04-40.57-22.17-55.15-29.13-73.95Z"/>
          <path class="cls-2" d="M369.45,184.06s3.66,10.52,14.55,9.78c10.89-.73,14.57-4.89,14.57-4.89l1.37.09s-7.43,7.66-15.94,7.14c-10.01-.62-13.29-5.75-14.55-12.11Z"/>
          <path class="cls-3" d="M359.88,83.67s2.73,9.46-.96,16.14c-3.69,6.69-5.54,12.98-2.69,13.5,0,0-5.35,8.67-.74,13.24,4.61,4.57,2.06,13.6-1.87,15.44,0,0,9.83-1.58,10-9.08s-3.02-10.92-3.02-10.92c0,0,5.39-4.57,3.03-9.95,0,0,4.55-11.09,3.78-19.24-.77-8.15-7.53-9.13-7.53-9.13Z"/>
          <path class="cls-8" d="M412.36,87.89l-.57,5.99s8.54-4.5,10.61,1.99c2.07,6.49-.79,21.09-13.1,17.78l-5.27,15.53c-.69,4.68-.51,18.04-5.13,19.53-2.76.89-7.12,2.77-10.5.56-6.33-4.14-.65-16.17-.65-16.17,0,0-22.9,5.38-28.82-17.4-3.36-12.93-2.71-25.11-2.75-32.54-.04-8.44,2.46-12.92,8.4-19.07,5.08-5.26,12.74-8.28,24-7.09,23.17,2.45,24.57,20.23,23.77,30.89Z"/>
          <path class="cls-36" d="M422.4,95.88c-2.07-6.49-10.61-1.99-10.61-1.99l.57-5.99c.8-10.65-.6-28.44-23.77-30.89-11.26-1.19-18.92,1.83-24,7.09-5.94,6.15-8.44,10.64-8.4,19.07v.02c5.65,1.72,11.37,3.46,17.35,2.54,5.91-.91,11.01-4.2,15.87-7.49,2.52-1.7,6.24-.93,8.31,1.07,7,6.78,3.94,22.46.99,30.54-3.95,10.78-13.14,18.09-24.6,19.06-2.41.2-4.84.15-7.27-.1,8.87,7.12,20.91,4.31,20.91,4.31,0,0-5.68,12.03.65,16.17,3.38,2.21,7.74.33,10.5-.56,4.62-1.48,4.45-14.84,5.13-19.53l5.27-15.53c12.31,3.31,15.17-11.29,13.1-17.78Z"/>
          <path class="cls-23" d="M366.86,92.48s2.43,5.14-.21,8.46c0,0-7.24,1.51-9.51-1.62-2.27-3.13,1.27-8.19,4.42-8.22s4.37.48,5.31,1.38Z"/>
          <path class="cls-51" d="M364.41,105.12c-.02,1.28-1.71,2.29-3.78,2.27-2.07-.03-3.73-1.09-3.71-2.37s1.71-2.29,3.78-2.27,3.73,1.09,3.71,2.37Z"/>
          <path class="cls-50" d="M366.86,92.48s-1.77-1.6-5.2-1.14c-3.43.46-4.52,3.62-4.4,7.14s9.38,2.45,9.38,2.45c0,0-7.31,2.26-9.71-1.12-2.4-3.39.46-8.81,4.31-9.16,3.85-.36,5.61,1.83,5.61,1.83Z"/>
          <path class="cls-50" d="M356.91,97.32c.05,2.04,1.61,3.66,3.49,3.61s3.37-1.73,3.32-3.77c-.05-2.04-1.61-3.66-3.5-3.61-1.88.04-3.37,1.73-3.32,3.77Z"/>
          <path class="cls-70" d="M417.71,109.75c-3.78,3.15-5.13-2.45-5.13-2.45,0,0,4.11-.36,3.78-3.61s-4-.85-4-.85c0,0,.52-2.8,3.47-5.76,2.95-2.96,5.18.46,5.18.46,0,0,2.43,7.44-3.3,12.21Z"/>
          <path class="cls-31" d="M421.01,97.54c-1.06-1.19-2.65-1.83-3.97-.87-1.88,1.56-3.37,3.99-3.98,6.31,0,0-1.09-.73-1.09-.73,1.35-.88,3.71-1.72,4.73.09,1.44,3-1.2,5.41-4.07,5.49,0,0,.48-.59.48-.59.25,2.52,2.43,3.06,4.6,2.51-1.55.83-3.78.98-4.9-.65-.31-.48-1.29-2.02-.36-2.31.82-.13,1.71-.46,2.33-.94.92-.63,1.1-1.9.67-2.8-.54-.77-1.92-.03-2.7.39-.5.38-1.25-.12-1.09-.73.86-3.71,6.19-10.51,9.35-5.18h0Z"/>
          <path class="cls-53" d="M375.42,85.69c5.71-3.21,12.92-2.46,18.13,1.31-1.37-.74-2.75-1.46-4.26-1.87-4.31-1.35-9.32-.69-13.07,1.76-.82.62-1.7-.69-.81-1.21h0Z"/>
          <path class="cls-53" d="M365.94,85.96c-2.92-1.48-6.96-2.74-9.79-.43.6-.66,1.38-1.17,2.25-1.49,2.68-.87,5.56-.32,8.17.6.38.14.57.56.43.94-.15.42-.67.6-1.05.38h0Z"/>
          <path class="cls-23" d="M379.28,92.09s-2.43,5.14.21,8.46c0,0,7.24,1.51,9.51-1.62,2.27-3.13-1.27-8.19-4.42-8.22s-4.37.48-5.31,1.38Z"/>
          <path class="cls-50" d="M379.28,92.09s1.77-1.6,5.2-1.14c3.43.46,4.52,3.62,4.4,7.14-.12,3.52-9.38,2.45-9.38,2.45,0,0,7.31,2.26,9.71-1.12s-.46-8.81-4.31-9.16c-3.85-.36-5.61,1.83-5.61,1.83Z"/>
          <path class="cls-50" d="M381.47,90.66s2.98-1.41,4.61-.92l-1.19.52s2.12.62,4.14.02c0,0-.2,1-1.35,1.21,0,0,2.33.71,3.98.02,0,0-.74,1.76-2.37,2l2.33.69-1.86.42s-2.11-4.96-8.29-3.95Z"/>
          <path class="cls-50" d="M363.98,90.95s-2.94-1.48-4.58-1.04l1.17.55s-2.13.56-4.14-.08c0,0,.17,1,1.31,1.25,0,0-2.35.65-3.98-.08,0,0,.68,1.78,2.31,2.06l-2.35.63,2.99.75s1.11-5.2,7.26-4.02Z"/>
          <path class="cls-51" d="M399.18,104.57c-.03,1.9-3.22,3.39-7.13,3.34-3.91-.05-7.06-1.63-7.03-3.53.03-1.9,3.22-3.39,7.13-3.34,3.91.05,7.06,1.63,7.03,3.53Z"/>
          <g>
            <path class="cls-31" d="M370.69,94.85s-.41,3.75-2.93,6.67c-2.52,2.92-5.67,9.05.77,9.16,7.01.12,4.04-13.12,2.16-15.83Z"/>
            <path class="cls-65" d="M370.69,94.85s-.11.99-.56,2.34c.97,4.76.81,10.81-3.94,10.73-.56,0-1.03-.08-1.46-.18-.04,1.63.91,2.89,3.8,2.94,7.01.12,4.04-13.12,2.16-15.83Z"/>
          </g>
          <path class="cls-50" d="M377.9,97.27c.05,2.04,1.61,3.66,3.49,3.61,1.88-.04,3.37-1.73,3.32-3.77-.05-2.04-1.61-3.66-3.49-3.61-1.88.04-3.37,1.73-3.32,3.77Z"/>
          <path class="cls-3" d="M402.25,57.67s13.71-1.03,17.24,14.13c3.53,15.16-7.72,25.6-10.75,26.09-3.02.49.84-6.14-.34-10-1.18-3.86-6.38-3.14-9.74-10.1-3.36-6.96-11.81-2.07-8.34-8.92,3.47-6.85,7.62-10.81,11.92-11.2Z"/>
          <path class="cls-63" d="M397.15,67.32s-27.11,20.29-44.99,11.73c-17.88-8.55-2.52-22.74,3.02-18.34,0,0,8.9-21.28,29.89-14.92,20.99,6.36,20.25,16.31,12.08,21.52Z"/>
          <path class="cls-65" d="M369.45,114.76c5.34.01,11.37.28,15.24-4.05-2.2,5.86-10.24,6.26-15.24,4.05h0Z"/>
          <path class="cls-45" d="M359.27,54.11l-3.11-16.87,18.66-15.33s26.74,17.77,27.64,18.42c.9.65-3.13,14.4-4.47,16.41,0,0-2.88-5.49-11.43-3.53,0,0-5.7-6.85-15.6-1.47,0,0-7.94-3.51-11.69,2.36Z"/>
          <path class="cls-62" d="M402.21,40.16c-12.88,8.17-33.88,9.91-45.3,1.14l2.36,12.81c3.75-5.88,11.69-2.36,11.69-2.36,9.91-5.38,15.6,1.47,15.6,1.47,8.55-1.96,11.43,3.53,11.43,3.53,1.34-2.01,5.37-15.76,4.47-16.41-.04-.03-.13-.09-.25-.17Z"/>
          <g>
            <rect class="cls-47" x="370.4" y="31.26" width="5.41" height="16.14"/>
            <rect class="cls-47" x="370.48" y="31.02" width="5.26" height="16.62" transform="translate(412.44 -333.78) rotate(90)"/>
          </g>
          <path class="cls-3" d="M404.83,83.38s2.73,9.46-.96,16.14c-3.69,6.69-5.54,12.98-2.69,13.5,0,0-5.35,8.67-.74,13.24,4.61,4.57,2.06,13.6-1.87,15.44,0,0,9.83-1.58,10-9.08.17-7.5-3.02-10.92-3.02-10.92,0,0,5.39-4.57,3.03-9.95,0,0,4.55-11.09,3.78-19.24-.77-8.15-7.53-9.13-7.53-9.13Z"/>
          <path class="cls-52" d="M389.59,265.99s2.28,14.92,2.78,16.39c.5,1.47,15.47,7.83,21.71-1.22v-17.12l-24.49,1.96Z"/>
          <path class="cls-23" d="M388.4,262.2s19.43,2.08,25.68-2.56v4.4s-12.92,5.63-24.49,1.96l-1.19-3.8Z"/>
          <path class="cls-2" d="M413.83,113.79c0,2.14-1.78,3.87-3.99,3.87s-3.99-1.73-3.99-3.87,1.78-3.87,3.99-3.87,3.99,1.73,3.99,3.87Z"/>
        </g>
        <g>
          <path class="cls-48" d="M338.63,256.86s9.83,2.82,11.13,2.42c1.3-.4,7.58-1.24,8.79-2.69,1.21-1.45.56-6.28-1.03-6.38-1.59-.1-6.46-.61-6.42.53.07,2.15,4.61,2.76,4.61,2.76l-.1,1.48s-4.44.44-5.55.28c-1.11-.16-6.84-9.68-10.86-7.51-3.33,1.8-8.84,7.02-.59,9.11Z"/>
          <path class="cls-42" d="M338.48,259.16s9.83,2.82,11.13,2.42c1.3-.4,7.58-1.24,8.79-2.69s.56-6.28-1.03-6.38c-1.59-.1-6.46-.61-6.42.53.07,2.15,4.61,2.76,4.61,2.76l-.1,1.48s-4.44.44-5.55.28c-1.11-.16-6.31-7.85-10.86-7.51-4.55.34-8.84,7.02-.59,9.11Z"/>
          <path class="cls-7" d="M338.33,261.47s9.83,2.82,11.13,2.42c1.3-.4,7.58-1.24,8.79-2.69,1.21-1.45.56-6.28-1.03-6.38-1.59-.1-6.46-.61-6.42.53.07,2.15,4.61,2.76,4.61,2.76l-.1,1.48s-4.44.44-5.55.28-6.31-7.85-10.86-7.51c-4.55.34-8.84,7.02-.59,9.11Z"/>
          <path class="cls-8" d="M337.34,248.47s3-2.84,8.35-1.54c5.34,1.3,8.6,2.79,8.81,4.56.21,1.77.56,3.71-1.33,3.27-1.89-.44-2.57-2.24-2.57-2.24,0,0-3.9-.89-4.68-.14s-.04,4.17-3.88,6.71c-.04.03-.08.05-.12.07-5.19,3.28-10.87-3.3-7.24-8.25.7-.95,1.57-1.8,2.66-2.44Z"/>
          <path class="cls-7" d="M350.59,252.51s.68,1.8,2.57,2.24c.65.15,1.02,0,1.24-.3-.01-.12-.03-.23-.04-.35-.18-1.56-3.06-2.88-7.78-4.03-4.72-1.15-7.38,1.36-7.38,1.36-.97.56-1.74,1.31-2.35,2.15-1.45,1.98-1.21,4.25-.09,5.88,1.51.76,3.36.82,5.16-.31.04-.02.08-.05.12-.07,3.83-2.53,3.1-5.96,3.88-6.71.78-.75,4.68.14,4.68.14Z"/>
          <path class="cls-8" d="M267.11,211.98s23.54,24.5,24.49,24.56c.95.06,40.18,12.6,42.85,14.69,2.85,2.23,18.32,12.07,13.13,13.33s-65.33-11.7-68.75-13.2c-3.42-1.5-25.75-22.24-25.8-26-.06-3.76,7.29-14.33,14.08-13.39Z"/>
          <path class="cls-36" d="M296.79,250.15c-3.42-1.5-25.75-22.24-25.8-26-.02-1.32.89-3.5,2.36-5.71-3.57-3.68-6.24-6.46-6.24-6.46-6.79-.95-14.13,9.63-14.08,13.39.06,3.76,22.39,24.5,25.8,26,3.42,1.5,63.56,14.46,68.75,13.2,1.75-.43,1.15-1.83-.53-3.58-19.66-3.55-47.96-9.82-50.27-10.83Z"/>
          <path class="cls-7" d="M345.68,252.75s.5-.79.98-.73c.48.05,5.54,2.78,5.68,4.33.14,1.55-1.3,5.73-2.52,6.5s-10.36-1.91-8.62-4.9c2.24-3.88,2.08-3.34,4.48-5.19Z"/>
          <path class="cls-39" d="M233.63,197.19s-8.99,11.49,4.41,25.35c13.41,13.87,16.26,14.54,16.26,14.54,0,0,10.96-18.96,19.59-24.15,0,0-26.51-39.74-40.26-15.74Z"/>
          <path class="cls-8" d="M338.18,263.77s9.83,2.82,11.13,2.42c1.3-.4,7.58-1.24,8.79-2.69,1.21-1.45.56-6.28-1.03-6.38-1.59-.1-6.46-.61-6.42.53.07,2.15,4.61,2.76,4.61,2.76l-.1,1.48s-4.44.44-5.55.28c-1.11-.16-6.31-7.85-10.86-7.51-4.55.34-8.84,7.02-.59,9.11Z"/>
          <g>
            <path class="cls-54" d="M354.56,260.28l.06-.87s-2.62-.36-3.91-1.47c.33,1.41,2.65,2.08,3.85,2.34Z"/>
            <path class="cls-54" d="M357.61,257.35c.63,1.56.67,4.15-.16,5.15-1.21,1.45-7.49,2.3-8.79,2.69-1.3.39-11.13-2.42-11.13-2.42-1.83-.46-3.04-1.16-3.77-1.95.51,1.21,1.86,2.3,4.43,2.95,0,0,9.83,2.82,11.13,2.42,1.3-.4,7.58-1.24,8.79-2.69,1.06-1.28.69-5.16-.49-6.15Z"/>
          </g>
        </g>
        <g>
          <circle class="cls-5" cx="269.62" cy="477.63" r="13.58"/>
          <path class="cls-12" d="M277.55,477.63c0,4.38-3.55,7.92-7.92,7.92s-7.92-3.55-7.92-7.92,3.55-7.92,7.92-7.92,7.92,3.55,7.92,7.92Z"/>
          <g>
            <path class="cls-55" d="M274.89,446.87h-10.53c-2.54,0-4.61,2.08-4.61,4.61s2.08,4.61,4.61,4.61h.6v21.95c0,2.57,2.1,4.66,4.66,4.66s4.66-2.1,4.66-4.66v-21.95h.6c2.54,0,4.61-2.08,4.61-4.61s-2.08-4.61-4.61-4.61Z"/>
            <circle class="cls-26" cx="269.62" cy="477.63" r="2.88"/>
          </g>
          <circle class="cls-5" cx="575.86" cy="477.63" r="13.58"/>
          <path class="cls-12" d="M583.79,477.63c0,4.38-3.55,7.92-7.92,7.92s-7.92-3.55-7.92-7.92,3.55-7.92,7.92-7.92,7.92,3.55,7.92,7.92Z"/>
          <g>
            <path class="cls-55" d="M581.13,446.87h-10.53c-2.54,0-4.61,2.08-4.61,4.61s2.08,4.61,4.61,4.61h.6v21.95c0,2.57,2.1,4.66,4.66,4.66s4.66-2.1,4.66-4.66v-21.95h.6c2.54,0,4.61-2.08,4.61-4.61s-2.08-4.61-4.61-4.61Z"/>
            <circle class="cls-26" cx="575.86" cy="477.63" r="2.88"/>
          </g>
          <path class="cls-9" d="M575.75,456.48l-312.88-54.89c-4.08-.72-6.83-4.64-6.12-8.72l.14-.81c.72-4.08,4.64-6.83,8.72-6.12l312.88,54.89c4.08.72,6.83,4.64,6.12,8.72l-.14.81c-.72,4.08-4.64,6.83-8.72,6.12Z"/>
          <path class="cls-9" d="M578.34,400.4l-312.46,57.24c-4.07.75-8.02-1.98-8.77-6.05l-.15-.81c-.75-4.07,1.98-8.02,6.05-8.77l312.46-57.24c4.07-.75,8.02,1.98,8.77,6.05l.15.81c.75,4.07-1.98,8.02-6.05,8.77Z"/>
          <path class="cls-6" d="M575.86,463.64h0c-9.28,0-16.88-7.59-16.88-16.88v-79.85c0-9.28,7.59-16.88,16.88-16.88h0c9.28,0,16.88,7.59,16.88,16.88v79.85c0,9.28-7.59,16.88-16.88,16.88Z"/>
          <path class="cls-44" d="M572.14,418.77h-160.08c-4.54,0-8.25-3.71-8.25-8.25h0c0-4.54,3.71-8.25,8.25-8.25h160.08c4.54,0,8.25,3.71,8.25,8.25h0c0,4.54-3.71,8.25-8.25,8.25Z"/>
          <path class="cls-44" d="M572.14,453.69h-160.08c-4.54,0-8.25-3.71-8.25-8.25h0c0-4.54,3.71-8.25,8.25-8.25h160.08c4.54,0,8.25,3.71,8.25,8.25h0c0,4.54-3.71,8.25-8.25,8.25Z"/>
          <path class="cls-9" d="M269.62,463.64h0c-9.28,0-16.88-7.59-16.88-16.88v-79.85c0-9.28,7.59-16.88,16.88-16.88h0c9.28,0,16.88,7.59,16.88,16.88v79.85c0,9.28-7.59,16.88-16.88,16.88Z"/>
          <path class="cls-6" d="M267.96,418.77H107.88c-4.54,0-8.25-3.71-8.25-8.25h0c0-4.54,3.71-8.25,8.25-8.25h160.08c4.54,0,8.25,3.71,8.25,8.25h0c0,4.54-3.71,8.25-8.25,8.25Z"/>
          <path class="cls-6" d="M267.96,453.69H107.88c-4.54,0-8.25-3.71-8.25-8.25h0c0-4.54,3.71-8.25,8.25-8.25h160.08c4.54,0,8.25,3.71,8.25,8.25h0c0,4.54-3.71,8.25-8.25,8.25Z"/>
          <path class="cls-44" d="M407.81,468.38l-312.88-54.89c-4.08-.72-6.83-4.64-6.12-8.72l.14-.81c.72-4.08,4.64-6.83,8.72-6.12l312.88,54.89c4.08.72,6.83,4.64,6.12,8.72l-.14.81c-.72,4.08-4.64,6.83-8.72,6.12Z"/>
          <path class="cls-44" d="M410.41,412.3l-312.46,57.24c-4.07.75-8.02-1.98-8.77-6.05l-.15-.81c-.75-4.07,1.98-8.02,6.05-8.77l312.46-57.24c4.07-.75,8.02,1.98,8.77,6.05l.15.81c.75,4.07-1.98,8.02-6.05,8.77Z"/>
          <path class="cls-15" d="M403.81,481.37h0c-9.28,0-16.88-7.59-16.88-16.88v-79.85c0-9.28,7.59-16.88,16.88-16.88h0c9.28,0,16.88,7.59,16.88,16.88v79.85c0,9.28-7.59,16.88-16.88,16.88Z"/>
          <circle class="cls-5" cx="403.81" cy="495.37" r="13.58" transform="translate(-150.01 814.33) rotate(-80.75)"/>
          <path class="cls-6" d="M99.63,481.37h0c-9.28,0-16.88-7.59-16.88-16.88v-79.85c0-9.28,7.59-16.88,16.88-16.88h0c9.28,0,16.88,7.59,16.88,16.88v79.85c0,9.28-7.59,16.88-16.88,16.88Z"/>
          <circle class="cls-5" cx="99.63" cy="495.37" r="13.58" transform="translate(-321.1 215.54) rotate(-45)"/>
          <path class="cls-12" d="M107.55,495.37c0,4.38-3.55,7.92-7.92,7.92s-7.92-3.55-7.92-7.92,3.55-7.92,7.92-7.92,7.92,3.55,7.92,7.92Z"/>
          <circle class="cls-12" cx="403.81" cy="495.37" r="7.92"/>
          <g>
            <path class="cls-55" d="M104.89,464.6h-10.53c-2.54,0-4.61,2.08-4.61,4.61s2.08,4.61,4.61,4.61h.6v21.95c0,2.57,2.1,4.66,4.66,4.66s4.66-2.1,4.66-4.66v-21.95h.6c2.54,0,4.61-2.08,4.61-4.61s-2.08-4.61-4.61-4.61Z"/>
            <path class="cls-26" d="M102.51,495.37c0,1.59-1.29,2.88-2.88,2.88s-2.88-1.29-2.88-2.88,1.29-2.88,2.88-2.88,2.88,1.29,2.88,2.88Z"/>
          </g>
          <g>
            <path class="cls-55" d="M409.07,464.6h-10.53c-2.54,0-4.61,2.08-4.61,4.61s2.08,4.61,4.61,4.61h.6v21.95c0,2.57,2.1,4.66,4.66,4.66s4.66-2.1,4.66-4.66v-21.95h.6c2.54,0,4.61-2.08,4.61-4.61s-2.08-4.61-4.61-4.61Z"/>
            <circle class="cls-26" cx="403.81" cy="495.37" r="2.88"/>
          </g>
        </g>
        <g>
          <rect class="cls-20" x="96.33" y="302.39" width="453.32" height="46.65" rx="17.41" ry="17.41"/>
          <path class="cls-37" d="M545.42,324.95H126.91c-9.57,0-17.41-7.83-17.41-17.41v-4.61c-7.54,1.91-13.17,8.75-13.17,16.86v11.84c0,9.57,7.83,17.41,17.41,17.41h418.51c9.57,0,17.41-7.83,17.41-17.41v-7.23c-1.36.34-2.77.55-4.23.55Z"/>
          <rect class="cls-44" x="80.69" y="340.81" width="465.95" height="55.98" rx="19.35" ry="19.35"/>
          <path class="cls-15" d="M540.92,377.03H113.66c-10.64,0-19.35-8.71-19.35-19.35v-16.01c-7.87,2.45-13.62,9.83-13.62,18.48v17.29c0,10.64,8.71,19.35,19.35,19.35h427.25c10.64,0,19.35-8.71,19.35-19.35v-1.28c-1.81.56-3.73.87-5.72.87Z"/>
        </g>
        <g>
          <path class="cls-11" d="M207.91,190.01s-23.98,14.3-24.85,22.22c-.87,7.92,39.67,75.52,47.02,77.46,7.35,1.94,35.5-1.38,38.4-8.03,2.9-6.65-14.08-88.72-20.21-91.21-6.13-2.48-16.08-8.28-40.36-.44Z"/>
          <path class="cls-25" d="M220.18,212.23c-1.05-7.9,24.85-22.22,24.85-22.22.44-.14.84-.25,1.27-.38-6.3-2.68-16.53-6.68-38.4.38,0,0-23.98,14.3-24.85,22.22-.87,7.92,39.67,75.52,47.02,77.46,5.61,1.48,23.31-.1,32.68-3.89,19.36-64.51-33.62-6.32-42.58-73.57Z"/>
          <path class="cls-8" d="M211.18,224.48s12.67,41.91,12.32,42.2,41.71-12.67,47.2-9.36c5.49,3.31,8.05,7.35,4.75,8.68-3.3,1.34-58.25,19.35-62.69,17.09-4.44-2.27-21.47-49.63-20.88-53.1.59-3.47,13.22-13.66,19.29-5.51Z"/>
          <path class="cls-36" d="M270.71,257.32c-.06-.04-.15-.06-.21-.09-16.43,5.37-50.66,15.95-54.12,14.18-3.6-1.84-15.45-33.26-19.51-46.98-2.73,1.9-4.74,4.22-4.97,5.56-.59,3.47,16.44,50.83,20.88,53.1,4.44,2.27,59.39-15.75,62.69-17.09,3.3-1.34.74-5.37-4.75-8.68Z"/>
          <path class="cls-8" d="M212.32,134.51l-.37,10.08s-7.76-5.71-10.19-.38c-2.43,5.33-1.04,19.41,9.54,17.89l2.43,23.5c.06,4.07,2.27,7.92,5.95,9.68,2.19,1.05,4.9,1.41,7.95-.12,5.71-2.87.54-14.67.54-14.67,0,0,28.42,7.43,33.88-10.86,5.46-18.29,1.36-36.59,1.36-36.59,0,0-2.97-23.06-24.63-23.55-21.66-.49-27.79,18.26-26.44,25Z"/>
          <path class="cls-38" d="M211.78,188.85c.38,5.82,5.2,10.42,11.11,10.42s11.15-4.99,11.15-11.15c0-.63-.07-1.25-.17-1.85-5.47-.54-12.57-.09-22.09,2.58Z"/>
          <path class="cls-36" d="M238.7,178.14c-23.13-3.85-15.9-25.27-16.05-39.02-.09-8.04,2.99-19.72,8.27-28.85-15.31,3.54-19.77,18.39-18.6,24.24l-.37,10.08s-3.97-2.91-7.12-2.61c2.93,6.58,3.79,13.54,2.51,19.87,1.15.35,2.45.48,3.96.26l2.43,23.5c.06,4.07,2.27,7.92,5.95,9.68,2.19,1.05,4.9,1.41,7.95-.12,5.71-2.87.54-14.67.54-14.67,0,0,27,7.05,33.42-9.54-7.32,7.03-17.31,8.11-22.87,7.18Z"/>
          <path class="cls-1" d="M220.05,192.92c.41,1.05.91,2.05,1.46,3.03,1.8.44,3.86.35,6.1-.78,5.28-2.65,1.27-12.93.63-14.46-3.5-.99-6.89-2.46-10.11-4.45-.15,5.68-.08,11.49,1.92,16.66Z"/>
          <path class="cls-23" d="M263.05,144.13s1.97,4.72-.29,7.72c0,0-6.08,1.29-7.94-1.59s1.17-7.46,3.8-7.45c2.63,0,3.65.49,4.42,1.33Z"/>
          <path class="cls-29" d="M263.05,144.13s-1.46-1.48-4.34-1.1c-2.87.38-3.83,3.25-3.77,6.47.06,3.22,7.82,2.35,7.82,2.35,0,0-6.14,1.98-8.11-1.14-1.96-3.12.5-8.03,3.72-8.31s4.67,1.74,4.67,1.74Z"/>
          <path class="cls-50" d="M263.63,146.91c-.07,1.98-1.1,3.55-2.3,3.5-1.2-.04-2.11-1.68-2.03-3.66.07-1.98,1.1-3.55,2.3-3.5,1.2.04,2.11,1.68,2.03,3.66Z"/>
          <path class="cls-31" d="M252.59,142.78s7.66,11.23,7.09,15.25c-.57,4.02-6.62,3.76-7.68.66-1.05-3.11.59-15.9.59-15.9Z"/>
          <path class="cls-65" d="M254.61,155.76c-.57-1.67-.35-6.12-.04-9.9-1.12-1.82-1.98-3.09-1.98-3.09,0,0-1.64,12.8-.59,15.9,1.05,3.11,7.1,3.36,7.68-.66,0-.02,0-.06,0-.08-1.98.52-4.44-.3-5.07-2.18Z"/>
          <path class="cls-70" d="M205.3,157.52c2.79,3.09,4.52-1.55,4.52-1.55,0,0-3.37-.75-2.74-3.49.63-2.74,3.41-.3,3.41-.3,0,0-.12-2.45-2.25-5.29-2.13-2.84-4.35-.16-4.35-.16,0,0-2.83,6.1,1.41,10.79Z"/>
          <path class="cls-31" d="M203.9,146.74c2.52-3.32,5.23-.03,6.39,2.6.23.65,1.51,3.28.28,3.47-.18.02-.35-.05-.47-.16-.97-.75-2.28-1.49-2.46.21-.28,1.41,1.14,2.34,2.35,2.7.76.34-.22,1.52-.52,1.9-1.08,1.27-2.96.94-4.16.06,0,0,.67.22.67.22,1.57.53,3.09-.22,3.41-1.87,0,0,.34.54.34.54-1.73-.3-3.61-1.74-3.28-3.71.17-1.9,1.76-2.68,3.37-1.71.39.22.73.45,1.08.74l-1,.48c-.16-1.64-.9-3.38-1.81-4.8-.46-.74-1.01-1.39-1.81-1.56-.81-.16-1.68.29-2.37.88h0Z"/>
          <path class="cls-16" d="M247.11,137.93s-6.78-4.82-14.84.41"/>
          <path class="cls-18" d="M255.79,137.56s5.65-2.66,8.45.31"/>
          <path class="cls-23" d="M245.7,143.45s1.97,4.72-.29,7.72c0,0-6.08,1.29-7.94-1.59s1.17-7.46,3.8-7.45c2.63,0,3.65.49,4.42,1.33Z"/>
          <path class="cls-29" d="M245.7,143.45s-1.46-1.48-4.34-1.1c-2.87.38-3.83,3.25-3.77,6.47.06,3.22,7.82,2.35,7.82,2.35,0,0-6.14,1.98-8.11-1.14-1.96-3.12.5-8.03,3.72-8.31,3.23-.28,4.67,1.74,4.67,1.74Z"/>
          <path class="cls-50" d="M246.28,146.22c-.07,1.98-1.1,3.55-2.3,3.5-1.2-.04-2.11-1.68-2.03-3.66.07-1.98,1.1-3.55,2.3-3.5,1.2.04,2.11,1.68,2.03,3.66Z"/>
          <path class="cls-31" d="M257.21,165.75c-5.52,2.91-13.11,2.67-17.84-1.67,5.42,3.13,11.9,3.28,17.84,1.67h0Z"/>
          <path class="cls-70" d="M243.52,170.41s3.62,1.65,7.18.27c0,0-.79,3.4-3.93,3.6s-3.25-3.87-3.25-3.87Z"/>
          <path class="cls-34" d="M209.88,143.33s2.77-.15,2.98,5.59c.21,5.75-.39,7.74.65,8.21,1.05.46,5.79,1.58,5.86-3.29.07-4.88-.69-15.54.63-16.87,1.32-1.33,10.85-5.97,11.63-9.98.79-4.01,17.49-1.79,18.84-.89,1.35.9,6.02-2.38,10.43-.65,0,0,11.73-.87,12.99-6.03,0,0-3.99,1.55-7.92,1.51,0,0,9.69-3.36,7.93-15.96,0,0-1.66,4.51-3.84,6.23,0,0-.68-8.42-6.93-14.18,0,0-6.48,2.52-9.71,9.63,0,0,.95-5.49,2.41-8.94,0,0-7.14,2.72-13.17,7.27,0,0,1.11-1.77.75-3.27,0,0-4.46,2.92-8.1,3.74-3.64.82-12.34.29-17.2,5.21,0,0,.37-1.37,2.16-3.75,0,0-2.57.44-3.88,4.21l-1.29-2.5.3,3.31s-2.76-.1-4.46,2.81c0,0,3.99-1.45,4.08-1.12,0,0-5.3,2.46-5.24,6.5,0,0,1.95-.88,3.11-.84,0,0-4.89,5.34-3.51,11.24,1.38,5.9.49,12.81.49,12.81Z"/>
          <g>
            <path class="cls-50" d="M269.81,118.46c.29-.27.58-.57.87-.89-.03-.31-.04-.61-.08-.94,0,0-.29.79-.78,1.82Z"/>
            <path class="cls-50" d="M266.75,122.87s-.06-.75-.31-1.95c-.16,0-.31,0-.47,0,0,0,.16-.06.43-.18-.62-2.87-2.28-8.1-6.58-12.06,0,0-6.48,2.52-9.71,9.63,0,0,.95-5.49,2.41-8.94,0,0-7.14,2.72-13.17,7.27,0,0,1.11-1.77.75-3.27,0,0-4.46,2.92-8.1,3.74-3.64.82-12.34.29-17.2,5.21,0,0,.37-1.37,2.16-3.75,0,0-2.57.44-3.88,4.21l-1.17-2.26s-.06.08-.09.13l.27,2.94s-.98-.02-2.12.56c-.2.51-.37,1.06-.5,1.62,1.06-.34,2.19-.67,2.24-.5,0,0-1.2.56-2.45,1.58-.17,1.16-.17,2.39.13,3.64.03.14.06.29.09.44.04,0,.08,0,.11,0,0,0-.04.04-.09.1,1.21,5.77.37,12.28.37,12.28,0,0,2.77-.15,2.98,5.59.21,5.75-.39,7.74.65,8.21.41.18,1.39.46,2.43.44-.07-4.15-.02-8.15.76-8.93.36-.36,1.33-.97,2.56-1.74-.1-4.49-.1-9.08.74-9.93,1.32-1.33,10.85-5.97,11.63-9.98.79-4.01,17.49-1.79,18.84-.89,1.35.9,6.02-2.38,10.43-.65,0,0,5.68-.42,9.55-2.42.17-.82.27-1.72.31-2.68-.68.16-1.43.3-2.22.41-.53.83-1.14,1.6-1.8,2.12Z"/>
          </g>
          <path class="cls-28" d="M219.87,114.75s2.6-4.27,11.05-5.54l-1.01,1.56s9.41-2.09,10.72-4.17c0,0,1.29,4.19-12.1,6.99l-.59-1.4s-4.04.06-8.07,2.57Z"/>
          <path class="cls-28" d="M263.77,100.13s5.26,6.61,4.42,15.36c0,0-1.04-6.41-4.6-10.69-3.56-4.28-.68-2.15-.68-2.15l-1.48-3.24s.46-.3,2.33.72Z"/>
          <path class="cls-56" d="M191.06,200.51s-13.71,4.99-9.66,23.85c4.05,18.86,6.12,20.94,6.12,20.94,0,0,19.32-10.3,29.39-10.14,0,0-1.49-47.75-25.85-34.65Z"/>
          <path class="cls-39" d="M205.06,227.88c-6.65,2.75-14.19-1.08-15.9-8.07-.52-2.14-1.09-4.63-1.71-7.5-.75-3.5-.89-6.53-.62-9.13-3.64,3.15-7.93,9.51-5.42,21.18,4.05,18.86,6.12,20.94,6.12,20.94,0,0,19.32-10.3,29.39-10.14,0,0-.15-4.82-1.14-10.97-3.52.91-7.29,2.28-10.72,3.7Z"/>
        </g>
        <g>
          <path class="cls-49" d="M210.08,301.69s33.64-45.31,81.45-45.33c23.9,0,38.32,3.62,46.76,7.25,13.76,5.92,28.4,9.5,43.28,11.18,29.26,3.31,68.61,7.09,74.42,4.23,9.41-4.63,7.37-24.81,17.4-25.06,10.03-.26,8.39,7.23,19.44,8.99,11.05,1.76,25.38-14.47,31.52-8.99,6.14,5.47,9.41,36.01,8.19,40.77s-156.83,38.66-154.96,49.66c1.88,11.01,5.08,46.66,0,48.86-5.08,2.2-164.3-3.52-170.03-3.96-5.73-.44-8.01-63.83,2.54-87.6Z"/>
          <path class="cls-69" d="M524.34,253.95c-6.14-5.47-20.47,10.75-31.52,8.99-11.05-1.76-9.41-9.24-19.44-8.99-.76.02-1.44.16-2.06.39.95.99,1.67,2.08,2.1,3.32,8.58,24.4-20.37,24.42-38.08,32.57-17.71,8.14-60.31,4.66-80.56-1.06s-67.35,2.2-82.11-2.64c-14.75-4.84,9.47-6.6,23.79-18.26,7.05-5.74,19.78-7.59,30.96-8.23-8.52-2.12-20.14-3.7-35.9-3.69-47.81.02-81.45,45.33-81.45,45.33-10.55,23.77-8.27,87.16-2.54,87.6,5.73.44,164.95,6.16,170.03,3.96,5.08-2.2,1.88-37.86,0-48.86-1.88-11.01,153.73-44.9,154.96-49.66,1.23-4.76-2.05-35.3-8.19-40.77Z"/>
          <path class="cls-32" d="M215.43,339.36c7.23-.44,17.42,56.79,37.65,48.31,20.23-8.48,15.87-68.12,28.19-56.76,12.33,11.36-7.92,47.19,12.77,56.76,20.69,9.57,11.01-59.75,22.67-50.07,9.86,8.19,5.1,35.87,3.39,55.4,14.19.35,27.23.62,37.3.71.35-31.52,7.38-53.57,17.2-37.37,2.43,4.01,4.11,9.88,5.6,16.37-.37-10.72-1.67-22.72-2.63-28.33-.64-3.73,16.81-10.08,40.19-17.04,1.61-8.14,1.85-12.13-12.35-16.78-18.05-5.91-43.14.62-70.12-.49-26.98-1.11-28.49-2.41-51.82-5.24-23.33-2.83-33.02,11.19-43.87,3.27-10.86-7.92-29.51-6.42-29.51-6.42-10.55,23.77-8.27,87.16-2.54,87.6,13.43-4.22.65-49.48,7.89-49.92Z"/>
          <path class="cls-61" d="M304.8,256.77s-39.43-7.94-89.37,42.39c0,0-11.44,33.27-.97,90.44,0,0-7.14,4.83-14.62,4.15-7.48-.68-14.5-7.29-15.18-14.77s9.38-79.68,10.96-84.08c1.58-4.4,36.9-33.62,70.3-41.68,33.4-8.06,38.88,3.55,38.88,3.55Z"/>
          <path class="cls-60" d="M193.02,381.28c-.67-7.48,9.38-79.68,10.96-84.08,1.58-4.4,36.9-33.62,70.3-41.68,11.86-2.86,20.19-3.24,26.01-2.54-4.94-2.47-14.91-4.46-34.38.24-33.4,8.06-68.73,37.28-70.3,41.68-1.58,4.4-11.63,76.6-10.96,84.08.67,7.48,7.69,14.09,15.18,14.77.55.05,1.09.06,1.63.06-4.53-2.68-7.98-7.4-8.44-12.53Z"/>
        </g>
        <g>
          <g>
            <path class="cls-55" d="M511.58,258.49h-57.21c-40.86,0-74.3,33.43-74.3,74.3v44.66c0,10.64,8.71,19.35,19.35,19.35h167.11c10.64,0,19.35-8.71,19.35-19.35v-44.66c0-40.86-33.43-74.3-74.3-74.3ZM452.33,295.78l-26.38,15.23c-5.69,3.28-13.02,1.32-16.31-4.37-3.28-5.69-1.32-13.02,4.37-16.31l26.38-15.23c5.69-3.28,13.02-1.32,16.31,4.37,3.28,5.69,1.32,13.02-4.37,16.31ZM563.3,306.64c-3.28,5.69-10.62,7.65-16.31,4.37l-26.38-15.23c-5.69-3.28-7.65-10.62-4.37-16.31,3.28-5.69,10.62-7.65,16.31-4.37l26.38,15.23c5.69,3.28,7.65,10.62,4.37,16.31Z"/>
            <path class="cls-10" d="M518.44,258.49h-57.21c-40.86,0-74.3,33.43-74.3,74.3v44.66c0,10.64,8.71,19.35,19.35,19.35h167.11c10.64,0,19.35-8.71,19.35-19.35v-44.66c0-40.86-33.43-74.3-74.3-74.3ZM459.19,295.78l-26.38,15.23c-5.69,3.28-13.02,1.32-16.31-4.37-3.28-5.69-1.32-13.02,4.37-16.31l26.38-15.23c5.69-3.28,13.02-1.32,16.31,4.37,3.28,5.69,1.32,13.02-4.37,16.31ZM570.16,306.64c-3.28,5.69-10.62,7.65-16.31,4.37l-26.38-15.23c-5.69-3.28-7.65-10.62-4.37-16.31,3.28-5.69,10.62-7.65,16.31-4.37l26.38,15.23c5.69,3.28,7.65,10.62,4.37,16.31Z"/>
            <path class="cls-26" d="M425.62,381.75c-10.64,0-19.35-8.71-19.35-19.35v-44.66c0-19.39,7.54-37.1,19.82-50.37-23.27,12.59-39.16,37.23-39.16,65.4v44.66c0,10.64,8.71,19.35,19.35,19.35h167.11c9.16,0,16.86-6.45,18.84-15.03h-166.61Z"/>
            <path class="cls-71" d="M524.37,265.9h-37.58c-1.27,0-2.3-1.04-2.3-2.3h0c0-1.27,1.04-2.3,2.3-2.3h37.58c1.27,0,2.3,1.04,2.3,2.3h0c0,1.27-1.04,2.3-2.3,2.3Z"/>
          </g>
          <g>
            <path class="cls-43" d="M477.9,308.7h39.1c3.86,0,7,3.14,7,7v48.57c0,3.86-3.14,7-7,7h-39.1c-3.86,0-7-3.14-7-7v-48.57c0-3.86,3.14-7,7-7Z"/>
            <rect class="cls-23" x="477.28" y="316.22" width="40.34" height="47.53"/>
            <path class="cls-59" d="M505.37,320.23h-14.6c-2.1,0-3.81-1.72-3.81-3.81h0c0-2.1,1.72-3.81,3.81-3.81h14.6c2.1,0,3.81,1.72,3.81,3.81h0c0,2.1-1.72,3.81-3.81,3.81Z"/>
          </g>
          <g>
            <rect class="cls-68" x="427.72" y="342.35" width="132.54" height="42.81" rx="19.35" ry="19.35"/>
            <rect class="cls-22" x="429.74" y="338.34" width="132.54" height="42.81" rx="19.35" ry="19.35"/>
            <path class="cls-30" d="M548.97,374.01h-93.85c-10.64,0-19.35-8.71-19.35-19.35v-4.12c0-3.06.74-5.95,2.02-8.52-4.86,3.52-8.05,9.23-8.05,15.66v4.12c0,10.64,8.71,19.35,19.35,19.35h93.85c7.58,0,14.16-4.43,17.33-10.82-3.19,2.31-7.08,3.69-11.29,3.69Z"/>
            <path class="cls-72" d="M546.83,350.28h-47.71c-2.27,0-4.13-1.86-4.13-4.13h0c0-2.27,1.86-4.12,4.13-4.12h47.71c2.27,0,4.13,1.86,4.13,4.12h0c0,2.27-1.86,4.13-4.13,4.13Z"/>
          </g>
        </g>
        <g>
          <g>
            <g>
              <polygon class="cls-23" points="19.27 469.5 144.81 469.5 144.81 300.83 112.07 261.82 19.27 261.82 19.27 469.5"/>
              <polygon class="cls-24" points="48.05 300.83 48.05 469.5 19.27 469.5 19.27 261.82 48.05 300.83"/>
              <path class="cls-58" d="M48.05,456.58v13.3h50.33v13.89h-.1c.05.32.1.64.1.98,0,3.57-2.9,6.47-6.47,6.47s-6.47-2.9-6.47-6.47,2.9-6.47,6.47-6.47c.77,0,1.5.16,2.19.41v-4.52H23.33v4.52c.69-.25,1.42-.41,2.19-.41,3.57,0,6.47,2.9,6.47,6.47s-2.9,6.47-6.47,6.47-6.47-2.9-6.47-6.47c0-.33.05-.66.1-.98h-.1v-13.89h24.73v-13.3h4.28Z"/>
              <path class="cls-58" d="M158.72,478.27c.77,0,1.5.16,2.19.41v-4.52h-60.94v-4.28h65.22v13.89h-.1c.05.32.1.64.1.98,0,3.57-2.9,6.47-6.47,6.47s-6.47-2.9-6.47-6.47,2.9-6.47,6.47-6.47Z"/>
            </g>
            <polygon class="cls-33" points="19.27 261.82 48.05 300.83 144.81 300.83 112.07 261.82 19.27 261.82"/>
          </g>
          <rect class="cls-33" x="55.4" y="310.42" width="81.77" height="43.94" transform="translate(192.58 664.78) rotate(180)"/>
          <polygon class="cls-46" points="64.34 337.25 70.41 317.85 76.18 333.39 98.11 333.39 107.44 323.35 109.98 335.62 116.53 314.96 122.19 339.64 127.87 329.73 137.18 329.73 137.18 330.98 128.59 330.98 121.68 343.03 116.33 319.71 109.72 340.55 106.71 325.97 98.66 334.64 75.31 334.64 70.51 321.71 64.37 341.36 60.65 329.96 55.41 329.96 55.41 328.71 61.55 328.71 64.34 337.25"/>
          <rect class="cls-24" x="55.41" y="347.85" width="81.77" height="2.85"/>
          <rect class="cls-24" x="19.27" y="175.35" width="92.8" height="86.47"/>
          <rect class="cls-46" x="96.29" y="184.09" width="8.75" height="8.75" transform="translate(201.33 376.93) rotate(180)"/>
          <rect class="cls-46" x="96.29" y="199.04" width="8.75" height="8.75" transform="translate(201.33 406.82) rotate(180)"/>
          <rect class="cls-46" x="96.29" y="213.98" width="8.75" height="8.75" transform="translate(201.33 436.71) rotate(180)"/>
          <rect class="cls-46" x="82.04" y="184.09" width="8.75" height="8.75" transform="translate(172.83 376.93) rotate(180)"/>
          <rect class="cls-46" x="82.04" y="199.04" width="8.75" height="8.75" transform="translate(172.83 406.82) rotate(180)"/>
          <rect class="cls-46" x="82.04" y="213.98" width="8.75" height="8.75" transform="translate(172.83 436.71) rotate(180)"/>
          <rect class="cls-46" x="67.79" y="184.09" width="8.75" height="8.75" transform="translate(144.33 376.93) rotate(180)"/>
          <rect class="cls-46" x="67.79" y="199.04" width="8.75" height="8.75" transform="translate(144.33 406.82) rotate(180)"/>
          <rect class="cls-46" x="67.79" y="213.98" width="8.75" height="8.75" transform="translate(144.33 436.71) rotate(180)"/>
          <path class="cls-46" d="M29.37,239.22c0,7.19,5.83,13.02,13.02,13.02s13.02-5.83,13.02-13.02-5.83-13.02-13.02-13.02-13.02,5.83-13.02,13.02Z"/>
        </g>
        <g>
          <g>
            <g>
              <path class="cls-5" d="M51.64,519.23c0,5.07,4.11,9.18,9.18,9.18s9.18-4.11,9.18-9.18-4.11-9.18-9.18-9.18-9.18,4.11-9.18,9.18Z"/>
              <path class="cls-12" d="M55.47,519.23c0,2.96,2.4,5.36,5.36,5.36s5.36-2.4,5.36-5.36-2.4-5.36-5.36-5.36-5.36,2.4-5.36,5.36Z"/>
              <g>
                <path class="cls-55" d="M57.27,498.43h7.12c1.72,0,3.12,1.4,3.12,3.12s-1.4,3.12-3.12,3.12h-.41v14.84c0,1.73-1.42,3.15-3.15,3.15s-3.15-1.42-3.15-3.15v-14.84h-.41c-1.72,0-3.12-1.4-3.12-3.12s1.4-3.12,3.12-3.12Z"/>
                <circle class="cls-26" cx="60.83" cy="519.23" r="1.95"/>
              </g>
            </g>
            <g>
              <path class="cls-5" d="M70.01,534.23c0,5.07-4.11,9.18-9.18,9.18s-9.18-4.11-9.18-9.18,4.11-9.18,9.18-9.18,9.18,4.11,9.18,9.18Z"/>
              <path class="cls-12" d="M66.19,534.23c0,2.96-2.4,5.36-5.36,5.36s-5.36-2.4-5.36-5.36,2.4-5.36,5.36-5.36,5.36,2.4,5.36,5.36Z"/>
              <g>
                <path class="cls-55" d="M64.39,513.42h-7.12c-1.72,0-3.12,1.4-3.12,3.12s1.4,3.12,3.12,3.12h.41v14.84c0,1.73,1.42,3.15,3.15,3.15s3.15-1.42,3.15-3.15v-14.84h.41c1.72,0,3.12-1.4,3.12-3.12s-1.4-3.12-3.12-3.12Z"/>
                <circle class="cls-26" cx="60.83" cy="534.23" r="1.95"/>
              </g>
            </g>
            <g>
              <path class="cls-5" d="M134.58,519.23c0,5.07-4.11,9.18-9.18,9.18s-9.18-4.11-9.18-9.18,4.11-9.18,9.18-9.18,9.18,4.11,9.18,9.18Z"/>
              <path class="cls-12" d="M130.75,519.23c0,2.96-2.4,5.36-5.36,5.36s-5.36-2.4-5.36-5.36,2.4-5.36,5.36-5.36,5.36,2.4,5.36,5.36Z"/>
              <g>
                <path class="cls-55" d="M128.96,498.43h-7.12c-1.72,0-3.12,1.4-3.12,3.12s1.4,3.12,3.12,3.12h.41v14.84c0,1.73,1.42,3.15,3.15,3.15s3.15-1.42,3.15-3.15v-14.84h.41c1.72,0,3.12-1.4,3.12-3.12s-1.4-3.12-3.12-3.12Z"/>
                <circle class="cls-26" cx="125.4" cy="519.23" r="1.95"/>
              </g>
            </g>
            <g>
              <path class="cls-5" d="M116.21,534.23c0,5.07,4.11,9.18,9.18,9.18s9.18-4.11,9.18-9.18-4.11-9.18-9.18-9.18-9.18,4.11-9.18,9.18Z"/>
              <path class="cls-12" d="M120.04,534.23c0,2.96,2.4,5.36,5.36,5.36s5.36-2.4,5.36-5.36-2.4-5.36-5.36-5.36-5.36,2.4-5.36,5.36Z"/>
              <g>
                <path class="cls-55" d="M121.84,513.42h7.12c1.72,0,3.12,1.4,3.12,3.12s-1.4,3.12-3.12,3.12h-.41v14.84c0,1.73-1.42,3.15-3.15,3.15s-3.15-1.42-3.15-3.15v-14.84h-.41c-1.72,0-3.12-1.4-3.12-3.12s1.4-3.12,3.12-3.12Z"/>
                <circle class="cls-26" cx="125.4" cy="534.23" r="1.95"/>
              </g>
            </g>
            <g>
              <path class="cls-44" d="M130.24,507.13c1.54-1.58,2.52-3.69,2.52-5.87,0-3.98-3.25-6.7-7.23-6.05l-32.41,5.28,34.24,5.57c1.03.17,2,.55,2.89,1.08Z"/>
              <path class="cls-44" d="M93.11,500.48l-32.41-5.28c-3.98-.65-7.23,2.08-7.23,6.05,0,2.18.98,4.29,2.52,5.87.89-.53,1.86-.91,2.89-1.08l34.24-5.57Z"/>
              <path class="cls-22" d="M130.24,507.13c-.89-.53-1.86-.91-2.89-1.08l-34.24-5.57-34.24,5.57c-1.03.17-2,.55-2.89,1.08-2.55,1.54-4.34,4.38-4.34,7.33h0c0,3.98,3.25,6.7,7.23,6.05l34.24-5.57,34.24,5.57c3.98.65,7.23-2.08,7.23-6.05h0c0-2.95-1.79-5.79-4.34-7.33Z"/>
              <path class="cls-10" d="M127.35,515.14l-34.24-5.57-34.24,5.57c-3.02.49-5.62-.96-6.7-3.43-.33.88-.53,1.81-.53,2.75h0c0,3.98,3.25,6.7,7.23,6.05l34.24-5.57,34.24,5.57c3.98.65,7.23-2.08,7.23-6.05h0c0-.94-.2-1.87-.53-2.75-1.08,2.47-3.68,3.93-6.7,3.43Z"/>
            </g>
          </g>
          <path class="cls-22" d="M93.11,505.06c-3.61,0-6.54-2.93-6.54-6.54V12.22c0-3.61,2.93-6.54,6.54-6.54h80.82c3.61,0,6.54,2.93,6.54,6.54s-2.93,6.54-6.54,6.54h-74.28v479.75c0,3.61-2.93,6.54-6.54,6.54Z"/>
          <path class="cls-10" d="M98.66,12.01c-3.61,0-6.54,2.93-6.54,6.54v486.3s.01.07.01.11c.32.05.65.1.98.1,3.61,0,6.54-2.93,6.54-6.54V18.76h74.28c3.61,0,6.54-2.93,6.54-6.54,0-.04-.01-.07-.01-.11-.32-.05-.65-.1-.98-.1h-80.82Z"/>
        </g>
        <path class="cls-17" d="M185.75,115.15s13.6,274.15-13.92,303.62c-27.52,29.48-69.62-6.33-50.24-72.62,19.38-66.3,175.26,19.52,211.93,0,36.66-19.52,38.51-83.21-40.63-105.39"/>
        <path class="cls-67" d="M292.46,241.73l-4.46-1.35c-.63-.19-.98-.86-.79-1.48h0c.19-.63.86-.98,1.48-.79l4.46,1.35c.63.19.98.86.79,1.48h0c-.19.63-.86.98-1.48.79Z"/>
        <g>
          <path class="cls-27" d="M399.37,182.15s-14.86,36.24-15.96,39.86c0,0-42.94,14.36-50.96,16.76-4.78,1.43-1.45,6.47-.46,7.22,1,.75,57.02-8.4,58.45-8.62,1.42-.23,28.6-43.05,27.65-51.75-.96-8.7-18.71-3.47-18.71-3.47Z"/>
          <g>
            <path class="cls-52" d="M414.98,148.09s13.46,1.39,12.57,20.25c-.89,18.86-7.49,26.08-7.49,26.08,0,0-19.76-8.81-23.8-10.69-3.73-1.74,1.03-38.2,18.73-35.64Z"/>
            <path class="cls-45" d="M423.55,171.55c-.68,5.25-4.79,9.03-9.18,8.46-4.39-.57-7.39-5.29-6.7-10.53.68-5.25,4.79-9.03,9.18-8.46,4.39.57,7.39,5.29,6.7,10.53Z"/>
            <g>
              <rect class="cls-47" x="414.4" y="164.43" width="3.54" height="12.31" transform="translate(25.51 -52.31) rotate(7.42)"/>
              <rect class="cls-47" x="414.16" y="165.16" width="4.01" height="10.85" transform="translate(639.05 -220.07) rotate(97.42)"/>
            </g>
          </g>
          <path class="cls-27" d="M344.03,236.02s-20.28-1-22.86-.58-16.06-3.8-19.04-1.47c-2.99,2.32-7.37,6.13-6.83,6.56.54.43,8.9-3.64,10.65-3.93,1.75-.29,5.14.41,5.14.41l-9.68,6.29s-4.88,8.64-4.99,10.06,1.71.13,1.71.13c0,0,0,2.58,1.34,2.49,1.35-.09,7.37-6.13,8.73-6.41,1.36-.28,6.86-2.05,6.86-2.05,0,0-3.97,6.68-5.61,8.09-1.64,1.41-4.09,3.32-3.97,4.29.12.97,4.12-1.21,5.73-2.24,1.61-1.02,11.17-8.14,13.1-8.37,1.93-.23,7.04-.56,12.47-2.68,5.43-2.11,10.79-5.37,7.25-10.59Z"/>
        </g>
        <g>
          <g>
            <g>
              <rect class="cls-13" x="160.24" y="34.53" width="53.01" height="71.81" rx="15.7" ry="15.7"/>
              <path class="cls-4" d="M208.8,53.63c0-7.19-5.88-13.06-13.06-13.06h-17.98c-7.19,0-13.06,5.88-13.06,13.06v16.1h44.1v-16.1Z"/>
              <path class="cls-64" d="M164.7,69.72v17.52c0,7.19,5.88,13.06,13.06,13.06h17.98c7.19,0,13.06-5.88,13.06-13.06v-17.52h-44.1Z"/>
              <path class="cls-14" d="M210.01,86.66h-21.61c-8.64,0-15.7-7.07-15.7-15.7v-36.09c-7.09,1.51-12.46,7.84-12.46,15.36v40.4c0,8.64,7.07,15.7,15.7,15.7h21.61c8.64,0,15.7-7.07,15.7-15.7v-4.31c-1.05.22-2.14.34-3.25.34Z"/>
              <path class="cls-67" d="M185.75,119.84h0c-1.65,0-3.01-1.35-3.01-3.01v-11c0-1.65,1.35-3.01,3.01-3.01h0c1.65,0,3.01,1.35,3.01,3.01v11c0,1.65-1.35,3.01-3.01,3.01Z"/>
            </g>
            <path class="cls-66" d="M200.37,59.33h0c-1.43,0-2.6-1.17-2.6-2.6v-9.51c0-1.43,1.17-2.6,2.6-2.6h0c1.43,0,2.6,1.17,2.6,2.6v9.51c0,1.43-1.17,2.6-2.6,2.6Z"/>
            <path class="cls-66" d="M200.05,65.46h0c-1.26,0-2.28-1.03-2.28-2.28h0c0-1.26,1.03-2.28,2.28-2.28h0c1.26,0,2.28,1.03,2.28,2.28h0c0,1.26-1.03,2.28-2.28,2.28Z"/>
          </g>
          <path class="cls-13" d="M187.4,39.33h0c-2.02,0-3.68-1.65-3.68-3.68v-11.4c0-2.02,1.65-3.68,3.68-3.68h0c2.02,0,3.68,1.65,3.68,3.68v11.4c0,2.02-1.65,3.68-3.68,3.68Z"/>
        </g>
      </g>
    </g>
  </g>
</svg>