<?xml version="1.0" encoding="UTF-8"?>
<svg id="Layer_6" data-name="Layer 6" xmlns="http://www.w3.org/2000/svg" viewBox="0 0 100.28 100.28">
  <defs>
    <style>
      .cls-1 {
        fill: #fbab8e;
      }

      .cls-2 {
        fill: #9d5015;
      }

      .cls-3 {
        fill: #eff6fb;
      }

      .cls-4 {
        fill: #de646e;
      }

      .cls-5 {
        fill: #e1eff9;
      }

      .cls-6 {
        fill: #0fbdbd;
      }

      .cls-7 {
        fill: #4a4d71;
      }

      .cls-8 {
        fill: #cfe3f1;
      }

      .cls-9 {
        fill: #fefefe;
      }

      .cls-10 {
        fill: #f6c4b7;
      }
    </style>
  </defs>
  <path class="cls-3" d="M99.58,98.95h-.19l-.28-.49c-.12-3.66-.14-7.34-.06-11.05l.33-1h.19v12.53Z"/>
  <path class="cls-6" d="M19.4,71.39l.4-.14,10.29,10.35,10.07-10.31.44.1c.07-.13.2-.29.31-.25.66.21,2.51,1.01,3.11,1.35l.05.44.38.35c.07,2.8.02,5.57-.15,8.33-2.4.74-3.77,2.05-4.24,4.54-.15.82-.25,4.93.43,5.26,1.08.52,1.68-.42,1.56-1.42-.26-2.73-.36-6.24,3.3-6.45,2.32-.13,3.78,1.69,3.59,3.89-.23.82-.22,5.32,1.59,3.95.9-.68.57-4.5.31-5.58-.55-2.29-1.9-3.49-4.1-4.28-.27-.22-.2-6.18-.15-7.03l.39-.23c.95-.13,4.42,1.28,4.83,1.92.08.12.13.25.18.39,1.43-.02,3.13,1.51,4.14,2.56,2.73,2.81,3.2,6.07,3.26,9.88.04,2.89.02,6.05-.11,8.93-.02.35-.19.68-.35.99-19.34,0-38.68,0-58.02,0,.16-3.77-.22-7.72,0-11.47.5-8.43,5.4-10.22,12.14-13.4.15,0,.38.04.39.13.04,1.02.1,8.02-.1,8.39-3.05,1.46-4.67,5.23-1.74,7.71,5.07,4.31,10.65-4.92,3.9-7.45l-.14-.41v-9.18s.4-.35.4-.35c1.2-.54,2.42-1.09,3.66-1.54Z"/>
  <path class="cls-10" d="M49.85,44.21c.69-.29,1.23.68,1.54,1.26.91,1.71.71,3.6-.21,5.25-.26.47-1.19,1.69-1.71,1.39-.15.37-.59.64-1.32.8-.95,5.63-4.08,10.06-8.56,13.71l-.71.14c-3.39,2.05-7.99,3.03-11.99,2.36-1.9-.32-4.64-1.01-5.74-2.55-4.13-2.49-7.26-6.93-8.62-11.52-.16-.52-.38-2.43-.46-2.53-.05-.06-1.09-.29-1.51-.51-2.13-1.17-2.88-3.92-1.89-6.11.08-.17,1.03-1.62,1.11-1.69.67-1.52,3.33-1.43,4.74-.81-.18-4.35,2.56-8.26,7.21-8.14,4.9.15,9.51-.2,14.25-1.23,6.49-1.59,7.92,2.84,8.74,8.19l.39,1.31c1.39-.75,4.11-.97,4.77.68Z"/>
  <path class="cls-2" d="M57.75,29.95l.47.31c.29,1.62.66,3.22,1.1,4.79,7.75-2.84,16.82-3.21,24.41.22.18-1.94.71-3.72,1.59-5.32,5.3,3.9,7.94,10.59,8.3,17.05.22,4.06.24,9.65,0,13.7-.32,5.27-2.51,10.21-6.18,13.97-.33.05-.68.08-1-.02-1.52-.5-3.49-1.22-4.59-2.29-.64.2-1.12-1.23-.58-1.54-.81-.58-1.46-2.12-1.16-3.08l.25-.65c7.26-4.61,7.1-12.67,6.57-20.27-6.51.94-12.61-3.03-15.4-8.81-2.32,4.54-6.85,8.47-12.08,8.88-1.17.09-3.11.2-3.82-.74l.38.18c.01,3.3.02,6.6.01,9.9l-.39.23.4.45c.37,4.3,3.47,7.78,6.79,10.26l.14.57c.19,1.08-.32,2.37-1.16,3.08.33.69.12,1.24-.58,1.54-1.41,1.27-3.7,2.13-5.59,2.31-.15,0-.3-.03-.44-.07-.76-.22-2.22-2.35-2.74-3.15-3.57-5.48-3.64-12.35-3.4-18.67l.41-.66c.09-.05,1.26-1.39,1.39-1.6,1.25-2.02.9-4.82-1-6.3-.52-.5-.52-.89,0-1.16.79-5.02,3.9-10.08,7.9-13.11Z"/>
  <path class="cls-7" d="M9.76,44.21c-.04-3.03-.12-5.92.68-8.87,1.92-7.1,9.11-11.7,15.9-13.4,5.4-1.35,18.22-2.55,16.96,6.27,3.09-.43,6.19.97,6.56,4.33s-.27,7.16,0,10.51c-.06.35.04.79,0,1.16-1.04-.81-2.44-1.05-3.71-.72-.4.1-1.03.66-1.31.44-1.22-2.84-.91-8.12-4.23-9.46-2.42-.97-8.58.85-11.47,1.06-2.71.19-5.77-.07-8.48.2-4.16.41-6.14,4.46-5.69,8.29-1.41-.62-2.45-.91-3.96-.4-.16.05-1.19.54-1.24.59Z"/>
  <path class="cls-5" d="M87.44,74.67c5.37,2.46,11.5,4.98,11.95,11.76.27,4.07-.2,8.43,0,12.53h-22.17c.11-4.38.82-8.73,2.12-12.91.22-4.64,1.08-9.26,2.51-13.69,1.84.8,3.77,1.48,5.59,2.31Z"/>
  <path class="cls-4" d="M57.75,29.95c-.72-3.08-1.36-6.18-2.12-9.25h31.8c-.84,3.05-1.4,6.18-2.12,9.25-.44,1.86-.87,3.77-1.46,5.6-7.79-3.13-16.85-3.09-24.64-.02-.24-.09-.23-.29-.29-.48-.48-1.42-.8-3.55-1.17-5.1Z"/>
  <path class="cls-4" d="M63.54,85.65l.61-.17c5.07.47,10.23.67,15.17-.17l.02.73c-.75,4.29-1.45,8.61-2.12,12.91h-11.37l-.41-.11-2.24-12.9.34-.29Z"/>
  <path class="cls-10" d="M39.83,69.66c.58-.13,1.15,1.33.77,1.73l-10.53,10.78-10.67-10.78c.05-.77.51-1.43.77-2.12,5.77,3.35,12.92,3.15,18.93.32l.73.06Z"/>
  <path class="cls-5" d="M61.22,72.35c.32.63.61,1.28.77,1.97.82,3.64,1.46,7.63,1.55,11.33l2.31,13.3h-4.05c-.22-.27-.36-.58-.42-.92l.12-10.5c.02-4.73-2.17-9.31-6.18-11.88l-.26-.6c-.12-.55.11-.71.58-.39,1.83-.83,3.75-1.52,5.59-2.31Z"/>
  <path class="cls-8" d="M55.06,75.05c3.91,2.22,6.43,6.6,6.75,11.08.3,4.15-.24,8.64,0,12.83h-2.89c-.19-3.89.25-8,0-11.86-.32-5.2-2.52-8.05-6.95-10.5.08-.94,2.26-1.87,3.08-1.54Z"/>
  <path class="cls-7" d="M15.74,72.93v9.71c3.42,1.01,4.42,5.74,1.61,7.99-4.04,3.23-9.5-1.21-7.04-5.88.64-1.22,1.68-1.52,2.71-2.31l.03-8.35c.88-.42,1.81-.76,2.7-1.16Z"/>
  <path class="cls-1" d="M38.86,66.76c.78.35,1.29,2.12.96,2.89-5.59,2.92-13.5,3.54-19.09.3-.31-.18-.59-.23-.57-.68.33-.84.46-1.89.96-2.7,5.64,3.39,11.5,2.89,17.22.15.26-.13.5.06.51.04Z"/>
  <path class="cls-9" d="M49.47,52.12c-.35,8.25-.24,16.52,6.17,22.55-.19.09-.38.29-.58.39-1.04.48-2.16.82-3.08,1.54-1.59-.88-3.37-1.53-5.01-2.31-1.17.03-2.16-.44-2.89-1.35-.58-.27-3.25-1.32-3.47-1.54-.17-.17-.63-1.38-.77-1.73-.36-.88-.62-1.98-.96-2.89,3.26-3.04,6.1-5.42,7.8-9.83.37-.96.89-3.79,1.16-4.24s1.34-.42,1.64-.58Z"/>
  <path class="cls-7" d="M46.96,74.28v7.01c4.25,1.2,4.77,5,4.44,8.9-.21,2.46-2.64,2.31-2.9,0-.21-1.83.69-4.46-1.09-5.65-1.18-.79-2.46-.79-3.67-.07-2.37,1.4-.89,4.72-1.45,6.65-.26.89-1.75,1.13-2.37.33-.46-.6-.37-4.51-.24-5.44.31-2.26,2.12-4.21,4.36-4.6l.02-8.46c.98.44,1.93.89,2.89,1.35Z"/>
  <path class="cls-7" d="M25.12,57.17c1.47-.44,1.91,1.1,3.04,1.7s2.17.66,3.36.07,1.91-2.52,3.41-1.63c1.93,1.15-1.09,3.6-2.22,4.16-2.74,1.35-6.39.43-8.1-2.13-.49-.73-.34-1.92.52-2.18Z"/>
  <path class="cls-7" d="M21.27,45.61c1.84-.28,3.73.6,4.52,2.33.52,1.14.64,3.25-1.06,3.16-1.92-.11-.75-2.85-2.73-2.81-1.67.03-1.06,2.99-2.84,2.83-1.99-.18-1.28-2.75-.5-3.88.55-.8,1.66-1.48,2.62-1.62Z"/>
  <path class="cls-7" d="M38.81,48.7c-.49-.49-1.39-.5-1.93-.06-.75.61-.14,2.18-1.67,2.43-2.57.43-1.77-4.41,1.25-5.31,1.95-.58,4.16.18,5.05,2.07.54,1.15.84,3.33-1.01,3.3-1.44-.03-1.12-1.87-1.69-2.43Z"/>
  <path class="cls-10" d="M62.96,67.73c-3.5-2.41-7.32-6.74-7.32-11.28v-10.31c6.73,1.84,13.3-3.13,15.9-9.06,2.62,6.19,9.03,10.55,15.9,9.25-.19,4.52.57,9.3-.91,13.64-1.12,3.28-3.61,5.82-6.41,7.75l-.4.73c-3.53,2.4-7.33,3.81-11.52,2.45-1.78-.58-4.24-1.64-5.24-3.18Z"/>
  <path class="cls-10" d="M81.27,70.81c.17.53.27,1.07.58,1.54-.86,4.55-1.71,9.12-2.51,13.69.08-.63-.22-.33-.58-.29-1.34.14-2.8.43-4.13.49-3.7.19-7.45-.05-11.09-.59-.77-4.43-1.44-8.89-2.31-13.3.22-.51.41-1.02.58-1.54l.66-.07c6.04,4.1,12.12,4.09,18.15-.02l.65.09Z"/>
  <path class="cls-1" d="M80.11,67.73c.35,1.04.82,2.04,1.16,3.08-2.89,1.54-5.76,3.33-9.15,3.48-3.88.17-7.09-1.65-10.32-3.48.34-1.04.75-2.07,1.16-3.08,6.46,4.44,10.68,4.47,17.15,0Z"/>
  <path class="cls-5" d="M72.79,25.9c4.14-.66,4.24,3.03,0,2.31.58,4.32-3.12,4.4-2.5,0-.88-.09-2.72.39-3.05-.72-.56-1.87,1.87-1.65,3.05-1.6.05-.91-.33-2.85.87-3.08,1.93-.38,1.64,1.78,1.63,3.08Z"/>
  <path class="cls-5" d="M16.06,88.87c-2.52,2.41-6.12-1.94-3.01-3.88,2.54-1.58,5,1.98,3.01,3.88Z"/>
  <path class="cls-7" d="M66.76,59.48c1.65-.38,1.96,1.25,3.27,1.86,1.07.49,2.08.43,3.13-.09,1.13-.56,2.2-2.79,3.67-1.52s-1.43,3.52-2.49,4.05c-2.64,1.3-5.75.59-7.72-1.55-.76-.83-1.34-2.41.14-2.75Z"/>
  <path class="cls-7" d="M64.45,50.42c1.72-.35,3.54.4,4.19,2.08.44,1.11.37,2.77-1.15,2.71-1.68-.06-1.11-2.14-2.13-2.14s-.48,2.46-2.5,2.13c-2.13-.35-.72-4.31,1.58-4.78Z"/>
  <path class="cls-7" d="M77.07,53.32c-.44.46,0,1.71-1.32,1.88-2.86.36-1.64-4.39,1.19-4.8,1.76-.26,3.31.48,3.97,2.16.96,2.44-1.28,3.55-2.25,2.06-.29-.46-.59-2.35-1.6-1.3Z"/>
</svg>