<?xml version="1.0" encoding="UTF-8"?>
<svg id="Layer_6" data-name="Layer 6" xmlns="http://www.w3.org/2000/svg" viewBox="0 0 100 100">
  <defs>
    <style>
      .cls-1 {
        fill: #126d7b;
      }

      .cls-2 {
        fill: #328eda;
      }

      .cls-3 {
        fill: #b20705;
      }

      .cls-4 {
        fill: #f91f23;
      }

      .cls-5 {
        fill: #f9cc2a;
      }

      .cls-6 {
        fill: #318bd3;
      }

      .cls-7 {
        fill: #cecece;
      }

      .cls-8 {
        fill: #116d7b;
      }

      .cls-9 {
        fill: #d19f9f;
      }

      .cls-10 {
        fill: #116c7b;
      }

      .cls-11 {
        fill: #ebeef0;
      }

      .cls-12 {
        fill: #f41e22;
      }

      .cls-13 {
        fill: #252f5c;
      }

      .cls-14 {
        fill: #247e8b;
      }

      .cls-15 {
        fill: #257e8c;
      }

      .cls-16 {
        fill: #1b2653;
      }

      .cls-17 {
        fill: #202b58;
      }

      .cls-18 {
        fill: #f4b829;
      }

      .cls-19 {
        fill: #fefefe;
      }

      .cls-20 {
        fill: #27315d;
      }

      .cls-21 {
        fill: #0d6a79;
      }

      .cls-22 {
        fill: #36a4fe;
      }

      .cls-23 {
        fill: #283366;
      }
    </style>
  </defs>
  <path class="cls-22" d="M71.64,45.84c.24.07.32.25.43.44.99,1.72,1.84,4.65,2.69,6.59.49.33.71.7.92,1.23l7.68,2.76.77.69c.4,1.36.25,2.7-1.1,3.48-1.19.69-2.09.39-3.3.04-2.34-.68-6.5-2.19-8.68-3.23-.32-.15-.51-.21-.78-.49-.16-.64-.29-.9-.39-.78-.92-1.7-1.51-3.58-2.44-5.27l-5.54,11.86.15.55c1.45,1.45,6.82,5.05,7.19,6.87.12.6.04,1.28.03,1.89l-6.9,23.55c-1.21,2.06-3.57,2.5-5.18.58l-.21-.87,4.87-22.59c-.41-.37-.66-.75-.75-1.13-.35-.28-2.17-1.81-2.43-1.75-2.14,2.58-3.93,5.87-6.9,7.56l-19.88,4.33c-1.37.12-1.56-.08-2.42-.96-.84-1.51.5-3.14,1.92-3.66,5.99-1.54,12.04-3.02,18.16-4.44l3.08-9.99,7.77-16.85c-.67-.23-1.02-.56-1.06-.98-.59-.32-2.92-1.59-3.4-1.56-3.64,1.2-7.19,2.77-10.85,3.9-.02.65-1.17,1.1-1.56.59-.08.63-.93.56-1.17,0-.17.63-1.32.46-1.37-.2-2.03-1.08-1.06-3,.56-3.96,4.03-1.55,8.35-3.2,12.47-4.47,3.46-1.06,4-1.01,7.48.7,3.15,1.74,6.34,3.39,9.58,4.94l.56.64Z"/>
  <path class="cls-11" d="M33.77,38.23c.06.22.33.56.39.78.38.1.37.28,0,.39.71.63.92,1.45.59,2.34,1.25,2.55,1.92,5.56,1.95,8.39.38.11.37.28,0,.39.72.52.99,1.56.59,2.34.22.98.57,1.94.78,2.93l-.27.38c-5.75,1.17-11.53,2.44-17.32,3.81l-.76-.09c-.52.19-.88-.23-1.03-.69l-3.79-16.36.33-.32c4.99-1.88,10.36-3.01,15.6-4.07.97-.2,1.96-.21,2.94-.22Z"/>
  <path class="cls-4" d="M40.61,25.34c4.6-.67,9.44-.59,14.05,0,.93.63,1.46.8,1.57,2.04.08.86.12,3.51-.05,4.26-.14.64-.94,1.27-1.52,1.51-4.71-.08-9.52-.14-14.44-.2-2.79.8-2.29-6.18-1.41-6.9.28-.23.49-.38.87-.44.03,0-.46.28-.43-.08-.2-.76,1.2-.89,1.37-.2Z"/>
  <path class="cls-5" d="M54.66,25.34c-4.68.04-9.37-.05-14.05,0l-.36-.23,1.18-8.54c.13-.6.58-.84,1.14-.98,2.54-.12,7.29-.32,9.67,0,.81.11,1.01.6,1.21,1.33.68,2.53.66,5.82,1.22,8.44Z"/>
  <path class="cls-4" d="M38.07,55.79c.41,1.94,1.36,4.49-.87,5.67l-16.11,3.89c-.79-.59-1.2-1.47-1.54-2.38-.27-.74-.72-2.33-.22-2.89-.15-.5,0-.51.39-.2,5.61-1.29,11.58-2.96,17.17-4.01.39-.07.78-.13,1.18-.09Z"/>
  <path class="cls-6" d="M29.48,81.17c-1.67-1.72-1.19-3.96.84-5.11l18.46-4.28,3.25-10.51,7.32-16.01c.38.2,1.55.59,1.49.99l-7.83,16.97-3.13,10.15c-5.2,1.59-10.64,2.43-15.91,3.8-2.42.63-4.46.91-4.49,4Z"/>
  <path class="cls-4" d="M31.24,33.54c2.19.52,2.04,2.84,2.54,4.68-6.2,1.28-12.4,2.76-18.54,4.29-.05.17-.12.17-.2,0-.68-.21-.89-2.23-.83-2.95.07-.9.35-1.62,1.07-2.22,5.26-1.64,10.58-2.91,15.97-3.82Z"/>
  <path class="cls-22" d="M73.4,32.57c1.81,2.27-.3,6.38-2.67,7.58-2.18,1.1-6.62.64-7.48-1.92-3.06-5.64,6.96-11.33,10.15-5.66Z"/>
  <path class="cls-6" d="M71.64,45.84c-4.25-1.57-8.59-4.76-12.75-6.28-.74-.27-1.15-.43-1.99-.36-1.56.13-5.49,1.76-7.23,2.34-2.06.69-6.39,1.88-8.04,2.89-.88.53-1.74,1.66-1.28,2.72.19.43.98.61.63.83-.46.56-1.28-.1-1.7-.52-1.18-1.17-.9-3.08.06-4.29.37-.46,1.1-1.34,1.64-.85-.12-.59.88-.88,1.17-.39-.05-.61,1.05-.89,1.37-.39,3.46-1.27,7.58-2.91,11.08-3.85,1.3-.35,1.75-.52,3.04-.03,1.7.65,12.66,6.01,13.4,6.9.29.35.5.83.58,1.27Z"/>
  <path class="cls-7" d="M15.23,42.52l3.87,16.72.62.65c-.07.02-.21.15-.39.2-.41.69-1.51.86-2.15.39-.14.03-.27-.16-.39-.59-1.46-5.53-2.94-11.19-4.1-16.79.3-.57,1.86-1.07,2.34-.59.06-.02.13.02.2,0Z"/>
  <path class="cls-6" d="M57.2,96.59c-.77-.91-.85-1.41-.76-2.61l4.66-21.98c.43.34,1.24.55,1.13,1.21l-5.04,23.38Z"/>
  <path class="cls-6" d="M73.4,32.57c-3.75-4.71-12.08-.09-10.15,5.66-1.77-1.96-1.47-5.2.11-7.2,2.75-3.48,8.57-2.6,10.04,1.54Z"/>
  <path class="cls-15" d="M29.48,22.81c-1.36-.28-1.36-2.26,0-2.54,1.56-.28,4.94-.4,6.52-.18,1.37.19,2.09,1.72,1,2.53-.9.67-6.24.42-7.52.19Z"/>
  <path class="cls-15" d="M57.98,22.81c-1.35-.28-1.37-2.28,0-2.54,1.72-.26,4.8-.42,6.52-.18,2.04.28,2.06,2.59-.19,2.89-1.58.21-4.76.1-6.33-.18Z"/>
  <path class="cls-3" d="M31.24,33.54l-15.49,3.93c-1.85,1.36-1,3.2-.71,5.05-.77.19-1.53.53-2.34.59-.42-2.05-1.41-4.56.96-5.77,5.15-.97,11.05-3.29,16.16-3.94.77-.1.8,0,1.42.14Z"/>
  <path class="cls-23" d="M43.53,41.54c-.42.15-.95.23-1.37.39-.39-.03-.65-.5-.77-1.4-.32.27-.58.28-.8.04l-.53.52-4.62.87-.7-.21c-.19-.77-.39-1.57-.59-2.34l.09-.21,7.53-1.54c1.23-.1,1.56,3.04,1.76,3.9Z"/>
  <path class="cls-23" d="M37.29,52.87c-.18-.78-.41-1.57-.59-2.34,1.05-.55,2.5-.84,3.71-.98.96-.27,1.96-.58,2.98-.9l.15-.46c.34-.05,1.15-.46,1.56-.59.12,1.33.92,2.57-.51,3.49l-7.29,1.78Z"/>
  <path class="cls-14" d="M56.61,15.19c-.96-.15-1.41-.89-1.08-1.81.17-.48,5.07-5.38,5.48-5.47.16-.03.07.3-.11-.13,1.1-.37,2.09.6,1.61,1.71-1.69,1.5-3.56,4.15-5.31,5.43-.23.17-.28.24-.59.28Z"/>
  <path class="cls-14" d="M37.87,15.19c-1.57-1.16-3.3-2.67-4.63-4.14-.56-.61-2.45-2.87-.59-3.14.04,0-.27.69-.25-.13.1-.04.15-.22.46-.2.34.02.55.21.81.4,1.75,1.25,3.51,3.88,5.27,5.27.3.93,0,1.9-1.07,1.95Z"/>
  <path class="cls-14" d="M46.85,13.63c-.38-.14-.75-.28-.93-.67-.22-.45-.22-7.33,0-7.91.19-.51.39-.8.94-.99.65.03,1.06.45,1.16,1.09.22,1.39.17,5.74.02,7.22-.08.84-.32,1.21-1.18,1.26Z"/>
  <path class="cls-18" d="M42.56,15.58l-.74.92-1.22,8.84c-.43,0-1.1-.14-1.37.2-.05.17-.11.16-.2,0l1.46-9.18c.34-.96,1.26-.74,2.05-.78Z"/>
  <path class="cls-3" d="M19.33,60.09c.38,1.79.4,3.12,1.57,4.59.19.24.51.31.19.68-3.64.42-3.38-2.05-4.1-4.68,0-.2,0-.28.2-.2.71-.14,1.44-.23,2.15-.39Z"/>
  <path class="cls-6" d="M84.13,57.55l-8.65-3.11c-.28-.19-.55-1.19-.72-1.57,2.51,1.15,8.49,1.72,9.37,4.68Z"/>
  <path class="cls-8" d="M46.85,4.07c-.32.42-.52.71-.59,1.26-.12.99-.16,6.85.05,7.58.07.26.43.46.54.72-1.21.07-1.47-.54-1.57-1.65-.11-1.25-.19-5.73.05-6.8.15-.68.83-1.15,1.52-1.12Z"/>
  <path class="cls-3" d="M39.04,25.54c.06-.01.13,0,.2,0,.2-.01.64-.12.58.19-1.58.44-1.34,4.19-1.15,5.55.12.87.63,1.55,1.54,1.68.17.06.17.12,0,.2-1.3-.08-2.48-.3-2.72-1.87-.12-.77-.12-3.5.03-4.24.16-.81.72-1.35,1.52-1.51Z"/>
  <path class="cls-10" d="M32.41,7.78l.48.19c-.75.41-.74,1.18-.29,1.86,1.17,1.75,4.02,3.51,5.27,5.37-.22,0-.41.02-.63-.05-.65-.2-5.62-5.14-5.77-5.76-.21-.84.19-1.34.94-1.61Z"/>
  <path class="cls-21" d="M60.91,7.78c.65-.04.36.1.1.39-.94,1.04-4.65,4.26-5.03,5.12s-.06,1.42.63,1.9c-1.3.18-1.87-.76-1.46-1.95,1.76-1.44,3.41-3.86,5.16-5.19.25-.19.33-.19.59-.28Z"/>
  <path class="cls-12" d="M54.66,33.15c-4.74-.22-9.73.29-14.44,0v-.2c4.45.04,8.92-.05,13.37,0,.33,0,.87-.12,1.07.2Z"/>
  <path class="cls-13" d="M41.78,37.64l-7.61,1.76c-.03-.11.03-.28,0-.39l7.61-1.37Z"/>
  <path class="cls-1" d="M57.98,20.27c-.83.82-.83,1.71,0,2.54-.69-.12-1.75-.15-1.74-1.27,0-1.27.92-1.14,1.74-1.27Z"/>
  <path class="cls-21" d="M29.48,20.27c-.83.82-.83,1.71,0,2.54-.75-.13-1.67-.06-1.67-1.27s.92-1.13,1.67-1.27Z"/>
  <path class="cls-2" d="M70.28,57.35c-.36-.37-.25-.51-.39-.78l.19-.19.2.98Z"/>
  <path class="cls-9" d="M17.18,60.48s-.12.16-.2.2c-.07-.27-.13-.52-.2-.78l.39.59Z"/>
  <path class="cls-19" d="M40.61,40.57c.58-.2.93,1.52.39,1.76-2.48,1.26-3.08,4.83,0,5.66.58.16.71.19,1.37.2.47.06.64.2.4.65-.16.29-2.11.64-2.55.53-1.1.46-2.32.89-3.51.78-.65-2.79-1.27-5.62-1.95-8.39,1.9-.56,3.94-.72,5.86-1.17Z"/>
  <path class="cls-17" d="M43.53,48.18c.27.12.32.65.06.78-.65.31-2.39.39-3.19.59-.19.01-.26,0-.2-.2.62-.15,2.76-.25,2.15-1.17.36,0,.84.05,1.17,0Z"/>
  <path class="cls-4" d="M24.94,44.13c.56.52.54,2.66,1.01,3.38.67.49,4.2-1.72,4.5.59.25,1.92-2.66,1.7-3.9,2.23.19,1.13,1.61,4.18-.3,4.49-2.05.33-1.84-2.59-2.24-3.91-1.25.2-4.5,1.75-4.62-.52-.09-1.69,2.66-1.64,3.83-2.03.16-1.17-.86-2.65-.53-3.75.25-.85,1.64-1.04,2.25-.48Z"/>
  <path class="cls-20" d="M40.22,49.35l.2.2c-1.23.3-2.45.78-3.71.98-.03-.12.03-.27,0-.39,1.17-.24,2.35-.5,3.51-.78Z"/>
  <path class="cls-16" d="M40.61,40.57c.15-.04.66-.64,1.17-.39l.39,1.76c-.32.13-1.02.31-1.17.39l-.39-1.76Z"/>
</svg>