<?xml version="1.0" encoding="UTF-8"?>
<svg id="Layer_6" data-name="Layer 6" xmlns="http://www.w3.org/2000/svg" viewBox="0 0 96.69 96.71">
  <defs>
    <style>
      .cls-1 {
        fill: #f4c9b7;
      }

      .cls-2 {
        fill: #efb6a3;
      }

      .cls-3 {
        fill: #695c5e;
      }

      .cls-4 {
        fill: #64595a;
      }

      .cls-5 {
        fill: #50494a;
      }

      .cls-6 {
        fill: #e5e6e7;
      }

      .cls-7 {
        fill: #f3c6b4;
      }

      .cls-8 {
        fill: #766667;
      }

      .cls-9 {
        fill: #5b5253;
      }

      .cls-10 {
        fill: #4a4446;
      }

      .cls-11 {
        fill: #544c4e;
      }

      .cls-12 {
        fill: #f0b9a7;
      }

      .cls-13 {
        fill: #a9adb0;
      }

      .cls-14 {
        fill: #6d6061;
      }

      .cls-15 {
        fill: #625758;
      }

      .cls-16 {
        fill: #5d5355;
      }

      .cls-17 {
        fill: #665a5c;
      }

      .cls-18 {
        fill: #f0bdaa;
      }

      .cls-19 {
        fill: #726365;
      }

      .cls-20 {
        fill: #f0bcaa;
      }

      .cls-21 {
        fill: #786869;
      }

      .cls-22 {
        fill: #4c4648;
      }

      .cls-23 {
        fill: #6b5e5f;
      }

      .cls-24 {
        fill: #5e5455;
      }

      .cls-25 {
        fill: #e3e4e5;
      }

      .cls-26 {
        fill: #f2c3b1;
      }

      .cls-27 {
        fill: #6f6163;
      }

      .cls-28 {
        fill: #ecad99;
      }

      .cls-29 {
        fill: #4d4748;
      }

      .cls-30 {
        fill: #edb09c;
      }

      .cls-31 {
        fill: #424143;
      }

      .cls-32 {
        fill: #534b4d;
      }

      .cls-33 {
        fill: #574f50;
      }

      .cls-34 {
        fill: #414042;
      }

      .cls-35 {
        fill: #ecac99;
      }

      .cls-36 {
        fill: #56585b;
      }

      .cls-37 {
        fill: #7a6a6b;
      }

      .cls-38 {
        fill: #fece96;
      }

      .cls-39 {
        fill: #feab6a;
      }

      .cls-40 {
        fill: #605557;
      }

      .cls-41 {
        fill: #fefefe;
      }

      .cls-42 {
        fill: #f5cebd;
      }

      .cls-43 {
        fill: #eeb6a3;
      }

      .cls-44 {
        fill: #eeb3a0;
      }

      .cls-45 {
        fill: #eeefef;
      }

      .cls-46 {
        fill: #f1c0ad;
      }

      .cls-47 {
        fill: #514a4b;
      }

      .cls-48 {
        fill: #efb8a5;
      }

      .cls-49 {
        fill: #fab67f;
      }

      .cls-50 {
        fill: #efb9a6;
      }

      .cls-51 {
        fill: #7d6c6d;
      }
    </style>
  </defs>
  <path class="cls-42" d="M32.71,23.65c1.78-.15,3.4.16,4.87.94.7-.08,1.4-.11,2.1-.01,8.88,1.5,17.99,2.82,26.96,1.33l1.08.18c.95.07,1.09,1.69.75,2.25.65.45.82,1.41.37,2.06.64.46.82,1.41.37,2.06l.42.28c.18,1.11.23,2.2.14,3.28l.36.38c.24,1.29.37,3.24.02,4.49.69.71.39,2.28-.19,3l.31.55c-.22,1.14-.39,2.26-.5,3.38-.49-.06-.56.04-.76.45-.35.72-.57,1.79-.95,2.61-1.68,3.63-3.98,6.22-7.11,8.63-.26.2-.54-.04-.17.48-.49.69-1.73,1.11-2.62,1.31-.02.56-.3.75-.75.37-.07.14-.15.27-.25.38-1.54,1.78-9.44,1.96-11.88,1.63-1.91-.25-4.53-.67-5.84-2.02-.37.46-1.18,0-1.12-.56-.76.03-1.71-.49-2.06-1.12l-3.75-3.46c-2.1-2.32-4.23-6.07-5.05-9.09l-.42-.11c-.3-1.23-.53-2.49-.68-3.75l.35-.25c-.63-.38-.56-2,0-2.43-.59-1.08-.57-2.47,0-3.56l.19-1.69c-.36-.11-.36-.27,0-.37-.47-.34-.48-.6,0-.94l.19-.94c-.17-.02-.16-.08,0-.19-.53-.34-.43-1.86.19-2.06-.3-.78-.29-2.55.56-3-.56-.24-.03-2.12.56-2.06-.19-.5-.28-1.65.56-1.69-.47-.08.37-1.48.46-1.5.62-.13,2.92.14,3.29.75Z"/>
  <path class="cls-45" d="M29.71,68.21c.52.46.52,3.39.22,3.75-4.01.79-7,3.35-7.3,7.58l-.41.47.35.44c-.08,1.87-.14,3.74-.07,5.61.11,3.16.6,4.15,3.94,4.07l.27.37.18-.37c2.24.33,2.36-1.05.05-.75l-.23-.38c-.69.87-3.13.32-3.27-.86s-.36-7.06,0-7.75c.07-.14.17-.26.27-.38-.63-.6-.05-2,.27-2.76.92-2.18,2.84-3.84,5.2-4.24.83-.14,2.35-.34,2.77.45l.23.36-1.9,3.64,4.45.64c.38.04.55.3.54.66l-1.35,5.44c.81,1.03,1.83,2.03,3.05,2.99.09.28.11.57.03.86.59.58-.31,1.01-.9,1.26-.46.19-2.45.26-2.66-.32l-.06.25c-2.07-.09-2.81,1.04-.17.87l.23.37.28-.37c1.62.31,2.94,0,3.95-.95h.46c.08-.12.19-.22.33-.27.51-.17,5.55,5.01,6.42,5.91.1.11.17.26.23.42s.1.33.14.5c-8.17,0-16.36,0-24.53,0-.8-.68-1.12-1.59-.94-2.62l-.45-.56c-2.01-6.06-4.11-12.04-6.33-17.96l.04-.4c1.44-1.31,4.24-2.32,6.08-3,3.42-1.26,7.02-2.24,10.58-2.99Z"/>
  <path class="cls-45" d="M68.66,68.21c.16-.04.36-.05.44.08,1.05,1.57.81,8.24.65,10.4l-.34.56-.26.43c-4.57,1.21-3.86,8.25,1.09,8.2s5.43-7.08.92-8.2l-.26-.43-.41-.51c.12-3.02.1-6.02-.06-9.02l.28-.58c2.57.54,5.27,1.35,7.72,2.29,1.66.64,4.09,1.58,5.38,2.76-1.52,4.84-3.44,10.52-5.25,15.69-.39,1.12-.94,2.17-1.49,3.22.34.79-.22,2.18-.94,2.62-8.17,0-16.36,0-24.53,0-.07-.22.13-.58.29-.79l11-10.56-1.29-5.52c-.11-.37.07-.61.41-.74l4.55-.65-5.45-10.38.23-.37c.17-.06.34-.12.51-.15s.34-.05.49-.02c2.1.47,4.31,1.01,6.3,1.67Z"/>
  <path class="cls-38" d="M55.93,72.33c.02,1.6-.15,3.19-.51,4.75-1.05,6.24-2.34,12.56-3.98,18.65-1.99,0-4,0-5.99,0-1.64-6.1-2.93-12.41-3.98-18.65-.36-1.56-.53-3.15-.51-4.75l.78-.06c4.26,1.82,9.16,1.84,13.42,0l.78.06Z"/>
  <path class="cls-25" d="M61.36,66.71l5.8,11.05-5.24.75,1.41,5.99-11.71,11.24c-.06,0-.12,0-.19,0,1.41-7.82,3.06-15.6,4.49-23.41-.39-1.1-.18-2.66.56-3.56-.1-.29-.01-.53.19-.75-.16-.06-.16-.12,0-.19-.47-.34-.37-.79.19-.94-.51-.24-.35-.87.19-.94-.5-.22-.34-.91.19-.94-.53-.2-.32-.61.19-.75.49-.63,1.62-.04,2.23.32.66.38,1.95,1.34,1.7,2.12Z"/>
  <path class="cls-25" d="M83.83,74.2c4.09,3.72,7.94,12.21,9.74,17.41l-.13.39-14.78,1.66c-.81.09-1.33-.1-1.56-.55,2.08-6.12,4.12-12.26,6.28-18.36.11-.3-.04-.66.46-.56Z"/>
  <path class="cls-25" d="M19.79,93.12l-.32.37c-2.1-.02-15.82-1-16.07-1.78l.1-.65c1.77-5.02,5.61-13.26,9.55-16.85.33.12.4.41.52.7,2.32,5.72,4.2,12.31,6.22,18.22Z"/>
  <path class="cls-25" d="M39.45,64.28c.53.1.66.45.19.75.56.05.63.58.19.94.56.28.63.68.19,1.12.55.2.63.54.19.94.75,1.34,1,2.79.75,4.31,1.43,7.81,3.09,15.59,4.49,23.41-.06,0-.12,0-.19,0-1.78-1.84-3.7-3.83-5.61-5.53-.4-.35-.99-.86-1.5-1.03-.18-.29-.13-.71.17-1.27.19-2.5.21-5.01.04-7.52l.36-.39-.41-.43c-.28-3.2-2.19-6.02-5.26-7.12l-.32-.5c-.12-.08-.29-.23-.25-.32.32-.71,2.03-4.1,2.4-4.48l.66-.44c-.28-.74,1.06-1.74,1.7-2.12.61-.36,1.8-1.01,2.24-.32Z"/>
  <path class="cls-19" d="M66.04,9.98c.8.75,1.18,1.23,1.87,2.06l-.13.38c-13.24.06-26.47.12-39.71.19l-.23-.37c.45-1.12.65-1.32,1.31-2.25l.51-.35c11.82-.03,23.64-.04,35.48-.03l.9.37Z"/>
  <path class="cls-3" d="M70.91,16.53c.28.58.51,1.08.75,1.69l-.18.37c-15.84-.06-31.68-.12-47.53-.19l-.23-.38c.2-.47.49-1.06.75-1.5l.44-.34c15.16-.04,30.32-.05,45.49-.04l.52.37Z"/>
  <path class="cls-15" d="M72.59,21.21c.15.69.29,1.35.37,2.06-.05.16-.12.16-.19,0l-.58-.18c-13.23-.02-26.69-.02-40.39,0-.92-.15-1.77-.15-2.53,0h-6.45s-.23-.37-.23-.37c.07-.51.07-.93.19-1.5l.18-.37h49.4l.23.37Z"/>
  <path class="cls-4" d="M72.22,19.71c.15.48.27,1,.37,1.5H22.78c.11-.55.22-.96.37-1.5l.23-.37c16.21-.02,32.41,0,48.6.04l.23.33Z"/>
  <path class="cls-17" d="M71.66,18.21c.19.49.41,1,.56,1.5H23.16c.17-.58.33-1.13.56-1.69l47.94.19Z"/>
  <path class="cls-8" d="M63.42,7.92c1.01.72,1.69,1.18,2.62,2.06H29.15c.75-1.04.91-1.21,1.87-2.06l.89-.37h30.4l1.11.37Z"/>
  <path class="cls-16" d="M72.97,24.21c0,.05.18.3.2.63.07,1.11.08,2.62-.2,3.67-.36-.17-.36-.39,0-.56-.44-.62-.51-1.37-.23-2.06l-.23.21-3.31-.03c-.64.23-1.14.23-1.47.02-9.64,1.94-20.56.17-30.15-1.5-.24-.52.89-.69,1.34-.76h33.82s.23.38.23.38Z"/>
  <path class="cls-14" d="M27.28,13.53l.24-.33c13.1.14,26.32.23,39.66.25l2.05.27c.39.56.6.91.94,1.5l-.18.37c-14.72-.06-29.43-.12-44.16-.19l-.23-.38c.36-.42,1.14-1.5,1.69-1.5Z"/>
  <path class="cls-27" d="M67.91,12.04c.52.63.83.99,1.31,1.69-13.7-.13-27.42.18-41.12,0-.35,0-.7-.19-.83-.2.24-.41.38-.87.56-1.31l40.07-.19Z"/>
  <path class="cls-23" d="M70.16,15.22c.26.44.52.84.75,1.31H24.47c.42-.72.61-.91,1.12-1.5l44.57.19Z"/>
  <path class="cls-6" d="M19.79,93.12c.3.87.62,1.75.94,2.62-6.24,0-12.49,0-18.72,0,.36-1.61.95-3.13,1.5-4.68,0,.55.24.49.65.57,4.12.75,9.79,1.15,14.05,1.49.53.04,1.06-.02,1.59,0Z"/>
  <path class="cls-34" d="M36.27,59.97c.69,0,1.48.84,2.06,1.12l-.22.45c-3.04.27-5.6,1.9-6.26,5.03l-.45.33c-.18.4-.13.7.15.91l.05,3.67c.65-.05,1.02.11,1.12.48,3.69,1.14,5.79,4.29,5.99,8.05-.08.57-1.37.55-1.5,0l-.41-.36c-.28-2.64-1.9-5-4.53-5.73l-.31-.46c-4.42-.96-7.95,2.21-8.24,6.55-.08.57-1.37.55-1.5,0,.24-4.54,2.96-7.54,7.47-8.26.08-1.17-.04-2.37.02-3.54.16-3.13,1.34-5.78,4.18-7.33.51-.28,1.85-.91,2.37-.91Z"/>
  <path class="cls-6" d="M93.57,91.62c.47,1.36,1,2.7,1.31,4.12-6.24,0-12.49,0-18.72,0,.26-.89.64-1.75.94-2.62l1.4.19,15.08-1.69Z"/>
  <path class="cls-21" d="M60.8,6.23c1.08.59,1.64.98,2.62,1.69H31.02c.9-.8,1.19-1.05,2.25-1.69l1.35-.37h24.82l1.35.37Z"/>
  <path class="cls-40" d="M22.6,22.71h49.73s.46.56.46.56l-1.38.3c-13.04.38-25.93.41-38.69.08-1.04-.21-2.14-.31-3.18-.56.12.57-.43.98-.56,1.31-1.93-.03-4.03-.03-6.03.03l-.52-.4c.05-.48.12-.88.19-1.31Z"/>
  <path class="cls-37" d="M36.64,4.73l1.08-.25c6.57-.11,13.55-.13,19.89.25.99.06,2.32,1.02,3.18,1.5h-27.53c.9-.54,2.3-1.49,3.37-1.5Z"/>
  <path class="cls-34" d="M60.8,59.97c4.25-.06,9.12,5.21,9.92,9.18.62,3.07-.08,6.95.19,10.11-.08.54-1.35.5-1.5,0-.22-3.18.42-6.84-.28-9.93-.1-.45-.35-.77-.47-1.12l-.53-.35c-1.53-3.9-5.27-6.26-9.43-6.22l-.53-.36c.89-.42,1.59-1.3,2.62-1.31Z"/>
  <path class="cls-51" d="M57.61,4.73c-.49-.03-.92.19-1.4.2-6.51.04-13.11-.25-19.58-.2.85-.52,2.06-.78,3.03-1,5.79-1.27,12.46-1.44,17.94,1Z"/>
  <path class="cls-40" d="M72.78,23.27h.19c.04.3-.02.63,0,.94h-34.18s-1.21.37-1.21.37c-1.65-.29-3.23-.61-4.87-.94.19-.31.71-.19,1.03-.19,13-.16,26.08.28,39.05-.18Z"/>
  <path class="cls-2" d="M26.72,43.31c.09,1.03.48,3.12.75,4.12-3.13,1.27-5.25-1.25-6.18-3.93.28-.48.82-.68,1.62-.58l3.38.04.42.36Z"/>
  <path class="cls-50" d="M25.78,39.94c.46-.16.78.15.94.94.02.79-.07,1.66,0,2.43-1.77.12-3.71-.24-5.43.19-.57-1.65-.68-1.78-.37-3.56l.22-.37c1.42,0,2.84,0,4.26.02l.39.35Z"/>
  <path class="cls-12" d="M70.91,39.37h3.64c.26.05.48.18.66.37.34,1.75.16,2.17-.37,3.75l-.45.4-4.42-.02c.12-1.06.2-1.91.19-3,.04-.87.29-1.37.75-1.5Z"/>
  <path class="cls-43" d="M74.84,43.49c-.7,2.06-2.46,4.67-5.06,4.31-.09-.01-.33-.28-.56-.19.43-1.21.61-2.47.75-3.74.18-.36.26-.36.64-.39,1.35-.11,2.86.11,4.23.01Z"/>
  <path class="cls-33" d="M27.84,28.14c-.19.85-.44,2.15-.56,3-1.33-.28-2.76-.34-4.3-.16l-.38-.4c-.07-.56-.22-.95-.19-1.69-.2-.58-.15-1.01.14-1.28.29-.13,4.67-.08,4.95.07.17.1.27.28.33.45Z"/>
  <path class="cls-9" d="M22.22,26.64l.09-1.08c.51-.29,5.92-.45,6.1-.2v.72c-.18.57-.45,1.5-.57,2.06-1.72-.43-3.66-.07-5.43-.19-.01.31.02.63,0,.94-.29-.5-.26-1.63-.19-2.25Z"/>
  <path class="cls-32" d="M27.28,31.14c-.09.6-.11,1.4-.19,2.06l-.28.39c-1.1-.08-2.19-.06-3.28.07l-.37-.28c-.28-1.1-.43-1.64-.56-2.81,1.28.11,2.78-.15,4.04,0,.42.05.65.06.65.57Z"/>
  <path class="cls-20" d="M23.91,36.19c.5-.18.96.54.56.94.73.28,1.53,2.09,1.31,2.81h-4.87c.33-1.9,1.1-3.08,3-3.75Z"/>
  <path class="cls-24" d="M28.96,24.39c-.18.45-.41,1.2-.56,1.69.1-.57-.29-.36-.65-.37-1.78-.06-3.57.04-5.34,0,.15.36-.17.77-.19.94-.13-.92.1-1.77.19-2.62,1.84.13,3.9-.17,5.72,0,.33.03.64.06.84.38Z"/>
  <path class="cls-18" d="M72.03,35.44c-.07,1.04.49.72,1.37,1.34,1.15.81,1.55,1.61,1.81,2.96-1.22-.03-2.44.05-3.66,0-.36-.01-.75.19-.65-.37-.24-1.09.2-3.27,1.12-3.93Z"/>
  <path class="cls-33" d="M72.97,27.95c0,.19,0,.37,0,.56-.01.8-.12,1.36-.19,2.06l-.37.28c-1.08-.13-2.18-.15-3.28-.07l-.28-.39c-.12-.67-.24-1.39-.37-2.06l-.07-.68c.08-.22,4.03-.19,4.56.31Z"/>
  <path class="cls-47" d="M72.59,32.45c-.13.92-.44,1.9-.56,2.81-.39.25-.94.3-1.65.14-.15.37-.35.57-.6.61-.42-1.1-.37-2.43-.56-3.56.02-.15.06-.36.17-.37.6-.07,2.33-.07,2.94,0l.27.37Z"/>
  <path class="cls-11" d="M72.78,30.57c-.07.65-.09,1.19-.19,1.87h-3.37c-.11-.67-.25-1.38-.37-2.06,1.26.11,2.73-.24,3.93.19Z"/>
  <path class="cls-22" d="M72.03,35.26c0,.06,0,.13,0,.19-.5,1.26-.67,2.65-1.12,3.93-.16.44-.45,1.13-.75,1.5-.02-1.59-.48-3.39-.37-4.87s1.03-.94,2.25-.75Z"/>
  <path class="cls-5" d="M27.09,33.2c0,.06,0,.13,0,.19l-.19.94c0,.31,0,.62,0,.94-.1.54-2.49.49-2.92.37l-.26-.37c-.26-.74-.37-1.11-.56-1.87,1.2-.43,2.67-.07,3.93-.19Z"/>
  <path class="cls-29" d="M26.9,35.26c0,.12,0,.25,0,.37-.06.51-.12,1.01-.19,1.5-.19.62-1.92.54-2.25,0-.11-.25-.44-.63-.56-.94s-.1-.68-.19-.94h3.18Z"/>
  <path class="cls-41" d="M58.18,61.28c4.87-.19,8.87,2.38,10.49,6.93-.18.35-.63.12-.9.06-2.14-.47-4.25-1.13-6.4-1.56-1.04-1.35-2.17-2.29-3.93-2.43-.53-.54-.6-2.13,0-2.62.2-.09.49-.25.75-.37Z"/>
  <path class="cls-41" d="M39.45,61.66c.6.49.53,2.08,0,2.62-1.68.05-2.96,1.17-3.93,2.43-.4.62-3.91,1.58-4.2,1.16-.13-.18,0-.74.08-.97.42-2.48,1.96-4.44,4.39-5.25.88-.29,1.69-.29,2.54-.55.36.17.81.42,1.12.56Z"/>
  <path class="cls-28" d="M57.43,61.66c-.05.86.07,1.76,0,2.62l-1.02.3c-5.5.06-10.99.05-16.47-.03l-.49-.28c-.07-.86.05-1.76,0-2.62,5.55,2.47,12.43,2.48,17.98,0Z"/>
  <path class="cls-34" d="M37.53,32.87c1.5-.19,3.21.15,4.59.74.57.25,2.83,1.43,1.44,2.12-.56.28-2.18-.86-3.04-1.09-1.53-.42-2.48-.45-3.99.05-.74.24-2.95,1.97-3.09.47-.1-1.06,3.2-2.17,4.08-2.28Z"/>
  <path class="cls-34" d="M57.38,32.87c1.29-.15,2.51.01,3.73.47.65.25,3.43,1.63,1.93,2.38-.65.32-1.92-.78-2.71-1.04-1.93-.65-3.4-.35-5.23.4-.55.23-1.02.88-1.67.7-.59-.16-.66-.85-.24-1.29.62-.65,3.25-1.52,4.18-1.62Z"/>
  <path class="cls-35" d="M43.7,55.32c.5-.14,1.8.83,2.44,1.06,1.54.54,2.76.58,4.32.09.73-.23,3.4-2.14,3.23-.34-.09,1-3.52,2.05-4.43,2.14-1.54.15-4.71-.47-5.79-1.66-.41-.46-.37-1.12.23-1.29Z"/>
  <path class="cls-34" d="M57.75,39.6c3.12-.51,3.58,4.17.68,4.44s-3.37-4.01-.68-4.44Z"/>
  <path class="cls-34" d="M38.28,39.6c3.12-.51,3.58,4.17.68,4.44s-3.37-4.01-.68-4.44Z"/>
  <path class="cls-9" d="M67.73,26.08c.34-.07.68-.32,1.22-.37,1.29-.12,2.72.08,4.02,0,0,.75-.01,1.5,0,2.25-1.28.03-2.57-.04-3.85,0-.36.01-.75-.19-.65.37-.13-.67-.38-1.74-.75-2.25Z"/>
  <path class="cls-28" d="M46.7,49.33c.74-.21.99.77,1.82.72.69-.04,1.32-1.33,2-.48.73.92-1.02,1.9-1.82,1.97-1.69.16-3.46-1.8-2-2.21Z"/>
  <path class="cls-10" d="M26.72,37.13v.19c0,1.18-.03,2.38,0,3.56-.27-.19-.78-.69-.94-.94-.49-.76-.93-1.97-1.31-2.81h2.25Z"/>
  <path class="cls-5" d="M26.72,37.31c0-.06,0-.12,0-.19,0-.47-.15-1.19.19-1.5,0,.53.15,1.32-.19,1.69Z"/>
  <path class="cls-32" d="M26.9,34.32c0-.3-.11-.78.19-.94-.03.3.13.77-.19.94Z"/>
  <path class="cls-25" d="M37.2,80.01l.4.35c.09,1,.25,7.41-.15,7.65l-.43.05c0-.37-.23-.53-.47-.75-1.04-.95-2.17-1.8-3.05-2.93l1.46-5.87-5.24-.75,2.25-4.3c3.19.69,5.04,3.42,5.24,6.55Z"/>
  <path class="cls-13" d="M38.7,80.01c.11,2.12.23,5.73,0,7.77-.07.61-.24.92-.56,1.4-1.1,1.66-2.89,1.36-4.68,1.31-.57-.08-.55-1.37,0-1.5,1.3-.04,3.05.46,3.56-.94.09-.24.17-.26.2-.63.18-1.99.12-5.39-.01-7.42h1.5Z"/>
  <path class="cls-13" d="M23.72,80.01c-.17,2.6.06,5.44.08,8.06.53,1.26,1.81.88,2.91.93.57.08.55,1.37,0,1.5-2.27.05-4.26-.16-4.5-2.89-.19-2.12-.11-5.43,0-7.59h1.5Z"/>
  <path class="cls-31" d="M26.72,90.5v-1.5c.71.03,2.36-.31,2.26.83-.08.94-1.58.65-2.26.67Z"/>
  <path class="cls-31" d="M33.46,89v1.5c-.72-.02-2.36.3-2.26-.83.08-.94,1.58-.65,2.26-.67Z"/>
  <path class="cls-13" d="M70.91,79.26c5.26.81,4.79,9.11-.85,9s-5.82-8.2-.65-9c.32-.05,1.18-.05,1.5,0Z"/>
  <path class="cls-39" d="M40.57,68.21c.59-.19,1.06.19.94.75.41-.3,1.15-.03,1.12.56.5-.27,1.53.17,1.5.75l.63-.1c2.54.68,4.91.5,7.45-.04l.34.14c.09-.61,1.21-.92,1.69-.56-.13-.54.67-1.07,1.12-.75-.12-.54.51-.91.94-.56.15-.14.22-.01.19.37-.21,1.17-.35,2.38-.56,3.56-4.71,2.26-10.27,2.24-14.98,0-.26-1.43-.5-2.87-.75-4.31.34-.39.4-.32.37.19Z"/>
  <path class="cls-44" d="M57.24,65.03c-.05.38-.14.65-.19.94l-.23.37h-16.77l-.23-.37c-.04-.28-.14-.56-.19-.94l.13-.37c5.75.01,11.5,0,17.24,0l.23.37Z"/>
  <path class="cls-48" d="M57.05,65.97c-.05.35-.14.64-.19.94l-.22.38c-5.47.06-10.93.12-16.4.18l-.23-.37c-.06-.38-.13-.74-.19-1.12h17.23Z"/>
  <path class="cls-20" d="M56.86,66.9c-.05.33-.14.63-.19.94l-.7.27c-5.37.04-10.51.07-15.41.11-.09-.08-.26-.11-.37-.19-.05-.31-.13-.62-.19-.94l16.85-.19Z"/>
  <path class="cls-30" d="M57.43,64.28c-.03.33-.16.56-.19.75h-17.6c-.02-.19-.16-.42-.19-.75,5.83.36,12.22-.48,17.98,0Z"/>
  <path class="cls-46" d="M56.68,67.84c-.01.06.01.13,0,.19-.1.24-.22.36-.37.37-.28.24-.63.37-.94.56-4.5-.29-9.36-.32-13.86,0-.41-.26-.6-.46-.94-.75-.1-.57.29-.36.65-.37,5.14-.2,10.32.15,15.46,0Z"/>
  <path class="cls-49" d="M56.49,68.77l-.19-.37c.1-.09.16-.33.37-.37-.05.31-.15.57-.19.75Z"/>
  <path class="cls-45" d="M35.52,66.71l-2.81,5.24c-.24-.08-1.43,0-1.51-.3.12-1.39-.13-2.94,0-4.3.02-.25.18-.39.19-.45.07.27-.24.79.27.74,1.18-.12,2.64-.74,3.85-.93Z"/>
  <path class="cls-36" d="M69.55,80.8c4.21-.68,4.83,5.32,1.22,5.9-4.21.68-4.83-5.32-1.22-5.9Z"/>
  <path class="cls-7" d="M42.63,69.52c-.07-.15-.14-.35-.06-.48.33-.53,10.04-.27,11.52-.14.5.22.64.47.16.81-.53.26-1.13.39-1.69.56-2.75-.16-5.65-.13-8.43,0-.63-.21-.98-.49-1.5-.75Z"/>
  <path class="cls-26" d="M41.51,68.96c-.1-.57.29-.36.65-.37,4-.16,8.56-.13,12.56,0,.36.01.75-.19.65.37-.37.24-.73.56-1.12.75.11-.57-.67-.54-1.02-.57-2.64-.2-7.12-.21-9.75,0-.33.03-.64.07-.84.38-.4-.2-.68-.28-1.12-.56Z"/>
  <path class="cls-1" d="M52.56,70.27c-3.04.96-5.36,1.04-8.43,0,.19-.31.51-.35.84-.38,1.87-.15,4.87-.13,6.76,0,.35.02.7-.04.83.39Z"/>
</svg>