<?xml version="1.0" encoding="UTF-8"?>
<svg id="Layer_6" data-name="Layer 6" xmlns="http://www.w3.org/2000/svg" viewBox="0 0 100.28 100.28">
  <defs>
    <style>
      .cls-1 {
        fill: #c9a3b2;
      }

      .cls-2 {
        fill: #3a364f;
      }

      .cls-3 {
        fill: #5592fe;
      }

      .cls-4 {
        fill: #e1b099;
      }

      .cls-5 {
        fill: #fbf1e2;
      }

      .cls-6 {
        fill: #f88f72;
      }

      .cls-7 {
        fill: #38367e;
      }

      .cls-8 {
        fill: #e1af99;
      }

      .cls-9 {
        fill: #fc9997;
      }

      .cls-10 {
        fill: #78d6a5;
      }

      .cls-11 {
        fill: #f8c3bf;
      }

      .cls-12 {
        fill: #5491fd;
      }

      .cls-13 {
        fill: #f7c2bf;
      }

      .cls-14 {
        fill: #3d3b57;
      }

      .cls-15 {
        fill: #7777b9;
      }

      .cls-16 {
        fill: #363383;
      }

      .cls-17 {
        fill: #fbb996;
      }

      .cls-18 {
        fill: #312e76;
      }

      .cls-19 {
        fill: #333077;
      }

      .cls-20 {
        fill: #e1af9a;
      }

      .cls-21 {
        fill: #5150ab;
      }

      .cls-22 {
        fill: #5591fe;
      }

      .cls-23 {
        fill: #403e59;
      }

      .cls-24 {
        fill: #f9ccc8;
      }

      .cls-25 {
        fill: #2f3446;
      }

      .cls-26 {
        fill: #79d6a6;
      }

      .cls-27 {
        fill: #e8d7be;
      }

      .cls-28 {
        fill: #f6ede1;
      }

      .cls-29 {
        fill: #fc9a98;
      }

      .cls-30 {
        fill: #67a0fe;
      }

      .cls-31 {
        fill: #e1b199;
      }

      .cls-32 {
        fill: #eecdc6;
      }

      .cls-33 {
        fill: #f99a7b;
      }

      .cls-34 {
        fill: #faac8b;
      }

      .cls-35 {
        fill: #f9cbc6;
      }

      .cls-36 {
        fill: #363382;
      }

      .cls-37 {
        fill: #f89273;
      }

      .cls-38 {
        fill: #82b0f1;
      }

      .cls-39 {
        fill: #fc9896;
      }

      .cls-40 {
        fill: #faa584;
      }

      .cls-41 {
        fill: #fefefe;
      }

      .cls-42 {
        fill: #b6cdb3;
      }

      .cls-43 {
        fill: #62b79d;
      }

      .cls-44 {
        fill: #79aefd;
      }

      .cls-45 {
        fill: #3d3851;
      }

      .cls-46 {
        fill: #e8d7bd;
      }

      .cls-47 {
        fill: #2e3345;
      }
    </style>
  </defs>
  <path class="cls-44" d="M79.03,33.67c.54.14.55.64,0,.8.46,1.92.56,3.77.6,5.78.33.11.14.78-.2.8l.13.63c.61.49.66,2.11.07,2.75-.03.33.03.33.2,0,.27-1.16,1.45-3.05,2.59-3.39,1.71-2.58,3.92-5.09,6.37-7.17-.26-.28-.14-.4.2-.2.95-.24,4.12.03,5.14.34,6.69,2.03,4.72,9.74,4.61,14.89-.09,4.12.05,8.24.01,12.36,0,.34.13.89-.2,1.09-.4-1.23-.53-2.53-.37-3.9l.37-4.67c-.07-.14-.13-.14-.2,0,.77,4.76-1.56,8.62-6.64,8.76l-12.55.76c-.46,4.58-.64,9.18-.53,13.79.49.42.49.77,0,1.2-.11.95-.6,2.69-1.59,2.79-.05,1.04-1.6,1.65-2.53,1.94-1.04.32-3.3.59-4.04-.15-.2,0-.4,0-.6,0v-15.74s.17-.4.17-.4l2.18-.04c-.14-.89-.33-1.78-.56-2.68l.41-.27c0-.29.2-.54.61-.74.05-.46-1.26-6.11-1.52-6.44-.45-.28-.81-.61-1.08-.99-.59-.05-.69-.47-.2-.8-.35-3.11-.35-6.23,0-9.36h-.2c.07,2.36.03,4.78-.13,7.25l-.27.12c-.34.03-.5-.16-.49-.59l-9.88-.05-1.19-.36c-.31-.42-.41-2.24.2-2.39l5.58-.5,8-12.12c1.82-2.29,4.62-3.39,7.54-3.12Z"/>
  <path class="cls-17" d="M4.92,37.46c1.74-.26,3.63-.16,5.38,0l1.34.37c2.16,1.4,4.32,2.73,6.51,3.98l-.08-4.06.39-.29c.98-.13,2.01-.22,2.99,0,1.32.08,1.96.18,2.99,1.09.68.6,1.59,2.09,1.59,2.99v15.44c.83.08,1.78.1,2.59.2.27-.57,1.48-.15,1.59.4.39.34.36.72-.2.8,0,.48-.07.94-.2,1.39.38.06.35.22,0,.4l-.2,1.2c.39.18.39.42,0,.6l-.2,1.2c.38.11.38.29,0,.4l-.2,1.39c.39.39.39.81,0,1.2-.33.39-.86.32-1.59-.2-.46-.03-.93.02-1.4,0v10.76c-.59.03-.79-.56-.58-1.77-7.17-.93-12.96-4.96-17.72-9.92-3.04-.15-6.42-.74-6.79-4.44,0-6.4-.01-12.8.02-19.2.34-2.06,1.58-3.68,3.76-3.91Z"/>
  <path class="cls-10" d="M33.61,52c.77-.15,2.12-.33,2.59.2l1.45.34,5.3,2.92-.14-2.16.36-.3c-.17-.6-.24-1.73.4-1,1.42-.09,3.09.5,4.18,1.39.89-.2,1.62,1.12,2,1.87.41.81,1.08,2.44.39,3.11.58,9.52-.13,19.94,0,29.59.04,3.23.25,6.49.21,9.76,0,.34.13.89-.2,1.09l-.4-.18-.04-8.97-5.71-.06c-.48-.18-1.02-.29-1.62-.35-.06.58-.66.53-.8,0-.46-.95-.98-1.47-1.96-2.08l-.42-.63c-1.24-3.46-4.15-16.75-2.33-19.09.09-.12.21-.22.33-.32l.06-.48c1.37-.84,1.81-2.96.91-4.26l.23-.44c-.01-.63-.08-.76-.2-.4-.8-.06-1.63-.35-2.49-.87-3.56-.89-4.22-1.7-1.95-2.42.81-.75-.04-1.44-1-1.04l-2.18.69-.34-.34c-.41.03-1.23-.35-1.59-.4.4-3.15,1.66-5.03,4.98-5.18Z"/>
  <path class="cls-21" d="M18.87,78.1c.17.06.17.12,0,.2l.39.16-1.35,19.85c.68.01,1.33.18,1.96.5,1.89-.59,4.1-.62,5.98,0l-23.32.11-.19-20.63c.32-.1.64-.19.96-.26s.64-.13.96-.13c4.54-.12,9.11-.23,13.64-.07l.97.27Z"/>
  <path class="cls-19" d="M9.5,33.47c-2.45,0-4.28.19-5.97-1.9-1.78-2.19-.47-3.47.06-5.91s.66-3.93.72-6.43c.12-4.88,1.02-8.95,6.88-8.67.46.02,1.08.35,1.4.31.47-.05,1.99-1.15,3.21-1.29,6.99-.76,9.9,7.32,11.23,12.72l-1.79-.4c-.18.21.85,3.5,1.04,4.04.75,2.08,2,2.26-.26,4.01-.97.76-1.99.97-2.97,1.51-.01-.67.21-1.37.66-2.1.53-2.38.75-4.83.64-7.33-2.16-.62-4.03-2.43-4.56-4.68-1.53,1.41-7.48,5.72-9.23,5.63-.15,0-.31-.04-.46-.08-.09.36-.14.51-.4.2.04.17.03.37-.11.43-2.26.97-2.17,3.18.12,3.93l.2.42c.1,1.6.21,3.55,0,5.15-.04.3-.06.4-.4.43Z"/>
  <path class="cls-6" d="M1.14,60.57c.84,1.89,1.79,3.25,3.94,3.73.78.18,2.49.11,3.03.35.39.18,3.15,3.06,3.89,3.68,4.07,3.35,8.74,5.55,14.02,6.2.09.56-.04,1.13.01,1.69.02.26.21.46.21.48.02.78-.21,1.42-.21,2.08-.02,6.52.02,13.03.02,19.55l-.21.48-.4-.14v-20.2c-2.22.16-4.41.04-6.57-.38-5.49-.02-11.1.24-16.53.2-.14,0-.8-.4-1.2-.2,0-5.84,0-11.69,0-17.53Z"/>
  <path class="cls-22" d="M98.55,62.36c0,6,.73,15.01.02,20.63-.05.38-.42.21-.43.57-.34,4.78.5,10.28.03,14.97-.02.19,0,.39-.21.48l-.4-.14v-15.23c-2.15.17-4.27.04-6.37-.37-.41-.06-.6-.15-.59-.56l-.05-7.51c-.25-3.07-.6-6.57-3.52-7.95-2.22-1.05-4.55-2.1-6.93-2.94l-.64-.58c.15,4.44-.07,8.92-.32,13.33l-.49.04c-.8-.4-.21-1.42-.19-2.08.11-3.46.18-6.91.18-10.37,0-.68.46-1.06-.19-1.68l13.24-.8c2.16-.24,3.8-.58,5.19-2.38s1.39-3.82,1.49-5.98c.06-.17.12-.17.2,0,.07,2.84,0,5.72,0,8.57Z"/>
  <path class="cls-11" d="M29.22,66.14l.37-.34c2.43.89,4.83,1.25,7.19,1.07l.4.27c-.64,3.32-.44,6.27.09,9.57.25,1.51,1.82,9.36,2.48,10.07.73.78,2.16,1.03,1.8,2.48-.07,1.13-2.2,1.13-2.19,0-.37-.19-.57-.19-.6,0,.6.11.9,1.46,1,2.06.81,4.89-5.17,6.06-6.28,1.24-.22-.94-.29-2.39-.3-3.3-.15-.14-.29-.28-.41-.44s-.23-.31-.29-.48c-1.28-3.42-2.54-6.98-3.48-10.44-.11-1.29-1-3.13-1-4.08v-5.58c0-.69.8-2.03-.4-2.29.53.03,1.07.12,1.59.2Z"/>
  <path class="cls-19" d="M74.05,20.33c-4.49-2.86-2.27-9.96,2.43-11.41,2.88-.89,9.8-.62,12.29,1.16,1.61,1.15,1.15,1.88,1.81,3.12.33.62,1.49,1.3,2.02,2.61,1.5,3.68-.82,9.61-5.01,10.29l-.23-.13c.18-1.21.32-2.46.03-3.66-.31.42-1.29-.21-1.67-.49-1.18-.88-2.26-2.23-2.8-3.57-2.69.13-5.35-.15-7.99-.82-.21.94-.34,1.9-.41,2.87l-.48.02Z"/>
  <path class="cls-11" d="M10.1,22.92c3.57-1.63,7.21-3.55,9.96-6.37.36,2.81,2.14,4.26,4.59,5.31-.06,3.44.51,6.67-1.6,9.63-.91.5-1.47,1.25-2.38,1.7-.7.34-1.74.43-2.2.69-.15,1.08-.23,2.41.08,3.44-2.81.08-5.63.07-8.45-.05,0-.93.01-1.86,0-2.79l.59-.3c1.38.19,2.78.09,4.14-.19-2.4-1.01-4.63-2.92-4.73-5.68-.12-1.79-.16-3.59,0-5.38Z"/>
  <path class="cls-19" d="M48.75,39.25l-.41-.15-.34-2.54c-2.39,1.1-4.96,1.4-7.72.9-2.18.07-2.79.76-3.35,2.81-.27.5-.75.96-1.13.38-.35-.73-.63-.97-.83-.7-.52.61-.97.77-1.36.5-.9-3.23-2.09-4.34-1.37-8.24.59-3.21,2.22-3.14,4.7-4.27.5-.23.93-.7,1.46-.93,2.89-1.27,8.41-.17,11.09,1.46,2.11,1.29,2.23,2.85,1.17,5.02-.27.56-.85,1.07-1.05,1.54-.52,1.23-.1,3.04-.85,4.23Z"/>
  <path class="cls-11" d="M35.8,40.65c.12-.1.43,0,.69-.4.36-.55.36-1.38.91-2.08,1.5-1.92,4.81-.7,7.05-.92.73-.07,1.71-.35,2.42-.57.45-.14.87-.5,1.2-.6.4-.12.24.1.29.28.17.54.38,2.38.39,2.9,0,.09-.2.41-.2.69,0,3.46.12,6.32-3.33,8.24-.87.48-1.37.39-2.05.64l-.11,3.16c-2.43.05-4.85-.01-7.26-.17-.03-.79.05-1.6,0-2.39q.41-.27,0,0s-.2-.32-.21-.67c-.05-1.19.27-4.11.03-4.98-.04-.14-1.8-.44-2-1.83-.08-.54.16-.9,0-1.48.8-.31,1.08-1.27,2.19-1,.01.4-.01.8,0,1.2q-.09.3,0,0Z"/>
  <path class="cls-11" d="M74.05,20.33s.19-.23.21-.48c.05-.98-.08-2.05.52-2.92,2.71.71,5.49,1.12,8.31,1,.74,1.25,1.57,2.58,2.74,3.48.44.34,1.35.66,1.58.91.66,3.51-.55,7.1-4.21,8.24l.12.52c.04-.15.11-.38.23-.4.36-.04,3.43-.1,3.57,0s.24.22.28.4c-.54-.99-.5-2.53-.42-3.68.03-.49.16-1.36.62-1.3.07,1.65-.09,3.33,0,4.98-.13.45-.1.91.09,1.39-.08.33-4.1,1.41-4.72,1.54-.13.03-.26-.19-.34-.34-.05.18-.12.18-.2,0-.26.62-2.6-.62-2.64-.76.2-.77.25-1.65.05-2.42-.25-.14-.84-.15-1.19-.3-4.45-1.93-4.44-4.8-4.39-9.17,0-.28-.2-.6-.2-.69Z"/>
  <path class="cls-16" d="M80.62,99.01h-10.16v-16.14c2.73.08,4.4.18,6.57-1.79l.42.06,3.51,17.56-.34.31Z"/>
  <path class="cls-19" d="M57.71,51.8c3.73-.16,7.49.12,11.22,0,.3.07.27.77.33,1,.22-.03.31.03.34.2.09.59.18,1.19.26,1.79.06.27.14.54.2.8,1,.73,1.04,2.7-.52,2.74-2.62.19-9.15,1.32-6.62,5.34,1.07,1.7,2.86,1.35,4.54.94l4.19-1.14.4.29c-.14.72.87,2.71.51,3.2-.24.33-2.15.18-2.71.19-3.25.04-6.52.05-9.76-.1-.4-.24-2.12-7.93-2.39-9.07l-.47-.23c-.27-.74-1.43-4.95-1.31-5.47.2-.93,1.39-1.27,1.78-.47Z"/>
  <path class="cls-21" d="M33.21,89.25c.02.06.28.22.35.54.44,1.77-.1,3.92,1.77,5.01,1.72,1,3.65.08,4.12-1.8.3-1.23-.4-2.51-.66-3.75-.03-.25.17-.25.6,0,1.78.93,1.01.31,2.19,0,.19-.05.55.01.8,0,.38.11.38.29,0,.4l.25.33c-.2,2.72-.54,5.46-1.02,8.22l-.43.62c-.91,0-1.93,0-2.88,0-2.96,0-5.92.02-8.87,0-.15-3.27-.16-6.54-.05-9.83.13-.17,3.1-.17,3.55-.13l.28.4Z"/>
  <path class="cls-11" d="M57.91,49.41c-.06.79.17,1.66-.2,2.39-.47.02-1.37-.19-1.39.48-.02.83,1.11,4.53,1.39,5.69l-7.57.4c-.12-1.96-.83-3.71-2.39-4.98.51-.86,1.82-2.19,2.89-2.19h3.09c-.57-.72-1.96-1.31-1.21-2.46s4.2.65,5.39.66Z"/>
  <path class="cls-36" d="M42.37,89.25c2.54-.15,5.22.11,7.77,0v9.56c-2.45.01-4.92-.01-7.37,0l-.38-.18c.4-2.9.75-5.81,1.06-8.71-.55.18-.91.09-1.08-.27,0-.13,0-.27,0-.4Z"/>
  <path class="cls-18" d="M78.83,79.69l.79,1.87c1.18,5.72,2.36,11.44,3.53,17.14l-.34.32h-2.19l-3.59-17.93,1.59-2.79c.56.12.75,1.15.2,1.39Z"/>
  <path class="cls-26" d="M33.21,89.25h-3.79s0,9.56,0,9.56c-.33-.21-.2-.76-.2-1.09-.08-6.28.31-13.69-.2-19.82.31.19.34.54.45.84,1.23,3.43,2.7,7.06,3.73,10.51Z"/>
  <path class="cls-46" d="M88.99,33.67s-.11.17-.2.2c-1.29,1.13-2.67,2.12-4.14,2.98-.65.35-1.23.17-1.24-.59-.33-.44-1.2-1.98-.99-2.41.04-.07.11-.13.19-.18.25-.01,4.6-1.22,4.76-1.41.15-.18-.19-.98.22-1.18.09,1.6.42,1.42,1.39,2.59Z"/>
  <path class="cls-18" d="M42.37,89.65l1.59-.2-1.2,9.36c-.53,0-1.06,0-1.59,0,.08-2.98,1.12-6.23,1.2-9.16Z"/>
  <path class="cls-9" d="M10.1,28.3c.98,3.04,3.18,5.12,6.38,5.68-2.05.62-4.25.92-6.38.5,0-.1-.2-.52-.2-1,.02-1.74.08-3.46.2-5.18Z"/>
  <path class="cls-27" d="M79.82,30.49c.5.28-.02,1.79.23,2.16.07.11,2.24,1,2.36,1.02.19.8-1.39,2.4-2.19,2.19-.73,2.08-1.21-.29-1.2-1.39,0-.23-.05-.62,0-.8.09-.32.64-.61.76-1.14.14-.64-.01-1.39.04-2.05Z"/>
  <path class="cls-35" d="M18.47,33.87v3.39c.18.18,2.57-.29,2.99.2-.98-.06-2,.01-2.99,0-2.67.56-5.49.57-8.17,0-1.69.02-3.76-.17-5.38,0,.21-.33.76-.2,1.09-.2,1.36-.01,2.73,0,4.09,0,2.72,0,5.45,0,8.17,0,.12-.65-.25-3.14.2-3.39Z"/>
  <path class="cls-15" d="M97.95,99.01h-15.14c5.04-.39,10.1-.39,15.14,0Z"/>
  <path class="cls-32" d="M43.17,48.81c.19.93-.45,2.59.4,3.19-.7.04-.33.29-.4,1-.34.05-.57-.14-.69-.58-2.16.23-4.25.16-6.28-.21-.75-.31-1.76-.24-2.59-.2.53-.37,1.5-.2,2.19-.2,2.39-.01,4.78,0,7.17,0,.11-.56-.23-2.83.2-2.99Z"/>
  <path class="cls-1" d="M10.1,22.92c0,1.79,0,3.59,0,5.38s-.19,3.56-.2,5.18h-.4c.38-.19.38-.28.41-.68.11-1.53-.01-3.33-.01-4.9l-.4-.43c.08-1.3.05-2.59-.11-3.87l.3-.48c.12-.05.26-.14.4-.2Z"/>
  <path class="cls-44" d="M91.18,83.28l-.36.4c-3.77.45-10.98.74-11.99-3.99-.06-.48-.19-.9-.2-1.39,0-.4,0-.8,0-1.2,0-.03.2-.22.21-.48.09-4.36.23-8.71.39-13.06,2.15.82,4.36,1.63,6.44,2.62,2.95,1.4,3.62,1.48,4.56,4.8,1.15,4.05.62,7.22.74,11.22.01.38-.02.75.21,1.09Z"/>
  <path class="cls-11" d="M72.05,63.75c-1.4.47-5.8,1.72-7.07,1.59-3.4-.33-4.24-5.34-.18-6.56,1.12-.34,4.87-.74,5.47-1.11.24-.15-.12-1.71-.21-2.09.71.17,1.31.38,1.59,1.1.23.58,1.44,5.95,1.41,6.37s-.61.56-1,.69Z"/>
  <path class="cls-16" d="M83.41,36.26l.12.49c-.41.32-.65.71-.73,1.17.16,1.25.03,2.29-.39,3.12-.87,1.03-1.63,2.36-2.59,3.39-.06.17-.12.17-.2,0,.07-1.18-.14-2.23-.2-3.39.24-.07.34.14.3.62.21-1.72.44-3.46.7-5.2-.6.14-.68-.21-.2-.6.72-.59,1.58-1.47,2.19-2.19.06.01.14,0,.2,0,.05.74,1.21,1.92.8,2.59Z"/>
  <path class="cls-3" d="M79.82,44.43l-.2,9.56,5.95-.83c.29-3.72.47-7.5,1.06-11.19.1-.6.35-2.62.56-2.99.15-.27.36-.1.6-.13-1.23,4.82-1.25,9.84-1.88,14.75l-14.35,2.18-.1-.6,7.55-1.02c.22-3.14.24-6.28.43-9.42,0-.16.18-.28.18-.32h.2Z"/>
  <path class="cls-5" d="M88.79,33.87c-2,2.33-3.99,4.68-5.97,7.03-.15.18-.39.13-.4.14.12-1.05-.18-2.44.04-3.44.14-.62.71-.95.95-1.34.47-.15.29.48.67.38,1.22-.32,3.32-2.38,4.71-2.77Z"/>
  <path class="cls-12" d="M69.86,45.43c.02,3.12-.02,6.24,0,9.36-.14-.58-.43-1.35-.6-1.99l.4-7.37c.06-.17.12-.17.2,0Z"/>
  <path class="cls-28" d="M79.03,34.47l.4,1.79c.14.14.63-.26.8-.4,0,.23.13.4.2.6-.01,1.39-.28,2.65-.8,3.78-.23-.42-.36-1.22-.4-1.7-.08-1.23-.21-2.88-.2-4.08Z"/>
  <path class="cls-7" d="M80.42,36.46c.53,1.58-.56,3.71-.6,5.38-.18.07-.4-.75-.4-.8,0-.23.17-.55.2-.8.15-1.25.38-2.6.8-3.78Z"/>
  <path class="cls-38" d="M69.86,45.43h-.2l.1-2.39c.18,0,.1,2.06.1,2.39Z"/>
  <path class="cls-30" d="M98.55,53.79h-.2c.01-.3-.1-.79.1-1,.18,0,.09.77.1,1Z"/>
  <path class="cls-39" d="M30.22,57.58c.78-.06,3.96-1.8,4.19-.09.16,1.2-.58,1.09-1.32,1.46-.21.11-.37-.1-.28.41,1.82.49,3.87,1.07,5.38,2.19.18-.14.25-.01.2.4.13.36.46.62.55,1.14.28,1.59-.22,3.32-1.75,4.04-2.12.99-5.65-.63-7.97-1,0-.4,0-.8,0-1.2l.2-1.39c0-.13,0-.27,0-.4l.2-1.2c0-.2,0-.4,0-.6l.2-1.2c0-.13,0-.27,0-.4.13-.45.19-.91.2-1.39.06-.26.01-.56.2-.8Z"/>
  <path class="cls-11" d="M18.47,37.46l.1,5.18-8.27-5.18c2.71-.03,5.45-.04,8.17,0Z"/>
  <path class="cls-37" d="M9.7,50.41l.91,4.01c3.54.55,7.1,1,10.64,1.57.1.36-.5.3-.8.2-3.32-.41-6.66-.72-9.96-1.29-.55-.27-.86-3.5-.99-4.29,0-.18,0-.26.2-.2Z"/>
  <path class="cls-33" d="M23.85,56.38c.17.06.17.12,0,.2-.99-.1-2.1-.09-3.09-.2-.33-.04-.28-.19-.3-.19l.8-.2c.86.14,1.74.25,2.59.4Z"/>
  <path class="cls-40" d="M9.7,50.41l-.2.2c-.12-.67-.51-1.44-.4-2.19l.6,1.99Z"/>
  <path class="cls-34" d="M23.85,56.38c.46.08.94.2,1.4.3-.42.39-1.12-.07-1.4-.1v-.2Z"/>
  <path class="cls-8" d="M29.22,64.95c0-.44-.14-1.12.2-1.39,0,.44.15,1.12-.2,1.39Z"/>
  <path class="cls-4" d="M29.82,59.77c.04-.64.07-.81.2-1.39-.05.44.18,1.11-.2,1.39Z"/>
  <path class="cls-20" d="M29.62,61.36c0-.38-.14-.98.2-1.2,0,.38.13.98-.2,1.2Z"/>
  <path class="cls-31" d="M29.42,63.16c0-.38-.14-.98.2-1.2,0,.38.14.98-.2,1.2Z"/>
  <path class="cls-11" d="M36.2,52.2l6.77-.2c-.15.4.16.77.2,1,.09.51.26,2.24.2,2.69-.04.28.11.35-.29.29l-6.88-3.78Z"/>
  <path class="cls-43" d="M38.39,61.96c-.05-.13-.18-.29-.2-.4-.14-.88-.04-2.71,0-3.69,0-.24-.15-.74.2-.69-.18,1.57.6,3.25,0,4.78Z"/>
  <path class="cls-16" d="M18.87,78.1c2.32,0,4.65,0,6.97,0v20.72c-1.99-.02-3.99.02-5.98,0l-.4-.14v-19.89c-.37,0-.57-.17-.6-.49v-.2Z"/>
  <path class="cls-18" d="M18.87,78.3l1,.12v20.4c-.8,0-1.6,0-2.39,0l1.39-20.52Z"/>
  <path class="cls-13" d="M9.7,23.12c.37,1.48.2,3.23.2,4.78-2.54-.18-3.19-3.44-.94-4.63.27-.14.58-.08.74-.15Z"/>
  <path class="cls-21" d="M91.18,83.28c2.25,0,4.52,0,6.77,0v15.74h-15.14l-3.98-19.32c2.26,4.8,7.91,3.57,12.35,3.59Z"/>
  <path class="cls-42" d="M39.38,89.25h-.6c-.03-.14-.35-.38-.1-.4.33-.07.5.3.7.4Z"/>
  <path class="cls-9" d="M87.59,26.1s-.2.23-.21.48c-.05,1.49.05,3,0,4.5h-4.08l-1.69-.6c4.17-.44,6.36-4.17,5.78-8.17.35.39.22,3.04.2,3.78Z"/>
  <path class="cls-41" d="M21.85,28.3c-.27,3.36-3.94,3.39-4.18,0h4.18Z"/>
  <path class="cls-45" d="M17.45,24.89c-1.89.37-1.13-2.47-.06-1.59.49.4.26,1.08.06,1.59Z"/>
  <path class="cls-2" d="M21.47,23.14c.98-.66,1.39,1.51.66,1.76-1.23.41-.93-1.57-.66-1.76Z"/>
  <path class="cls-29" d="M35.8,49.41v-5.38s.63,1.46.63,1.46c1.02,1.77,2.78,3.3,4.94,3.32.05.29-.35.28-.56.33-1.57.44-3.42.57-5.02.26Z"/>
  <path class="cls-41" d="M46.36,43.83c-.11,2.81-3.67,2.81-3.78,0h3.78Z"/>
  <path class="cls-23" d="M47.1,39.1c.52.55.24,1.94-.61,1.73-1.17-.29-.26-2.66.61-1.73Z"/>
  <path class="cls-14" d="M42.55,40.82c-1.12.74-1.43-1.85-.48-1.93.89-.08.81,1.71.48,1.93Z"/>
  <path class="cls-24" d="M35.8,40.65c.02.56.02,1.14,0,1.7-.01.24.15.74-.2.69.1-.62-.24-2.02.2-2.39Z"/>
  <path class="cls-41" d="M81.42,25.31c-.29,3.49-4.83,3.49-5.18,0h5.18Z"/>
  <path class="cls-47" d="M81.59,22.3c-.99.61-1.35-1.37-.67-1.57.89-.27,1.09,1.31.67,1.57Z"/>
  <path class="cls-25" d="M77.21,22.3c-.8.55-1.45-1-.68-1.57.81-.25,1.08,1.3.68,1.57Z"/>
</svg>