<?xml version="1.0" encoding="UTF-8"?>
<svg id="Layer_1" data-name="Layer 1" xmlns="http://www.w3.org/2000/svg" viewBox="0 0 100.28 100.28">
  <defs>
    <style>
      .cls-1 {
        fill: #cae1ee;
      }

      .cls-2 {
        fill: #efa4a4;
      }

      .cls-3 {
        fill: #4a4a4a;
      }

      .cls-4 {
        fill: #00659c;
      }

      .cls-5 {
        fill: #729ebf;
      }

      .cls-6 {
        fill: #00649b;
      }

      .cls-7 {
        fill: #009766;
      }

      .cls-8 {
        fill: #6e6e6e;
      }

      .cls-9 {
        fill: #c66f6f;
      }

      .cls-10 {
        fill: #5ca3cb;
      }

      .cls-11 {
        fill: #4cae8d;
      }

      .cls-12 {
        fill: #31c191;
      }

      .cls-13 {
        fill: #e98282;
      }

      .cls-14 {
        fill: #bdbdbd;
      }

      .cls-15 {
        fill: #59cda6;
      }

      .cls-16 {
        fill: #729fc0;
      }

      .cls-17 {
        fill: #575757;
      }

      .cls-18 {
        fill: #00679f;
      }

      .cls-19 {
        fill: #d17676;
      }

      .cls-20 {
        fill: #005685;
      }

      .cls-21 {
        fill: #005686;
      }

      .cls-22 {
        fill: #f8b6b6;
      }

      .cls-23 {
        fill: #006095;
      }

      .cls-24 {
        fill: #00b278;
      }

      .cls-25 {
        fill: #0071ae;
      }

      .cls-26 {
        fill: #f8dada;
      }

      .cls-27 {
        fill: #006094;
      }

      .cls-28 {
        fill: #fefefe;
      }

      .cls-29 {
        fill: #a1a1a1;
      }
    </style>
  </defs>
  <path class="cls-4" d="M80.35,7.27c-.18,3.3-1.34,6.53-2.83,9.46l-.67.44-.25.41-3.07-.08c-3.32.18-4.35,1.05-4.19,4.65l.09,4-.41.5-.3.75c-.97.82-5.08,3.64-6.07,3.5-.15-.02-.29-.07-.43-.13-.57-.22-.39-1.2.21-1.24-.19-.51-.19-.85,0-1.03l-.39-.53.06-4.49c.72-10.18-10.72-16.48-18.59-9.74-4.11,3.52-4.06,9.22-3.78,14.2l-.38.56c.19.18.19.52,0,1.03.6.28,1.26,1.92.82,2.47.65.04,1.05,1.19.62,1.65l-.89.37c-3.17,0-6.35.06-9.52.17-2.57,0-6.32-.02-7.52-2.6-.17-.28-.35-.59-.37-.93-.06-1.36-.21-7.36.1-8.09.07-.16.17-.32.27-.46l-.41-.29c.32-2.18.15-4.23-.48-6.17-.46-.46-.72-.92-.76-1.37l-.03-.54c1.54-1.6,1.38-4.04,1.2-6.06-.42.06-.74-.02-.97-.41.72-2.8,3.17-4.79,6.07-4.96h47.2c2.72.4,5.01,2.26,5.67,4.96Z"/>
  <path class="cls-26" d="M78.7,55.08c.15-.63,1.85-.44,1.85.21,23.99,3.58,23.87,38.98,0,42.46-.1.12-.21.23-.34.32-1.05.76-6.15.1-7.63-.22s-6.07-1.69-6.69-2.76c-.08-.13-.13-.28-.18-.43-.22.1-.44.11-.67.06-1.31-.3-4.93-4.66-5.88-5.93-.36-.48-1.1-1.67-.88-2.17-.27.22-.4.11-.21-.21-.15-.08-.29-.16-.42-.27-.92-.78-1.88-5.38-2.07-6.81-1.28-9.73,4.02-18.89,12.91-22.86,2.19-.98,4.8-1.91,7.09-1.39.44-.71,2.65-.7,3.09,0Z"/>
  <path class="cls-17" d="M76.85,17.16c1.17-.61,2.53-.59,3.71,0,5.11-.03,10.23,0,15.34.02,1.43.19,2.62,1.43,2.8,2.87-.2,2.32-.64,4.33-1.56,6.47-.73,1.69-1.77,4.08-3.39,4.86-.34-.12-.44-.34-.44-.66-1.31.17-2.56.11-3.76-.18-.79-1.27-1.46-2.6-2.03-4l-2.63,2.69c-.29.29-.66.21-.94-.07l-3.31-6.61c-1.15,1.94-2.16,3.98-3.03,6.12-.54,1.84-2.13,2.85-3.63,1.67l.41.24c.12.68.19,2.77-.41,3.06l.23-.41h3.7l.29.41-.16-.44c.19-.48,1.86-3.98,2.06-4.09.39-.21.63-.34.98.04l2.42,5,2.63-2.7c.79-.3,1.43.29,1.91,1.77,1.11.09,2.22.09,3.34.01l.31.4-.24.8c-3.73,3.49-8.43,5.71-13.57,5.79l-.24.41c-5.72.4-10.06.41-9.04-6.74l.41-.27c-.65-2.27-.64-4.74,0-7.01.02-2.01-.22-4.58,0-6.49.44-3.9,5.01-2.96,7.83-2.99Z"/>
  <path class="cls-17" d="M14.4,14.07c-.4-.4-1.44-2.09-1.44-2.58V3.97h-4.95v95.63h-3.3V3.97H1.41V.67h21.43v3.3h-6.6v7.11c0,1.44,3.3,1.44,3.3,0v-3.81c.62.01,1.24-.02,1.85,0,.48.01.96-.01,1.44,0-.03,2.54.46,5.13-1.65,7.01-.04,1.27-2.34,1.68-3.45,1.65s-3.38-.59-3.35-1.85Z"/>
  <path class="cls-10" d="M22.85,22.11c.03,3.05.18,6.47,0,9.48.94,1.02-.38,3.69-1.65,3.3-.18.48-.6.88-1.27,1.21l.02,42.15c.05.67.41,1.06,1.08,1.13l.17.44c.52-.43,4-.63,4.45-.44.21.09.38.23.5.44.57,1.08.56,2.21,0,3.3-1.27.59-3.76.76-4.95,0-2.61-.19-4.36-1.68-4.93-4.24l-.06-43.12c-1.2-.67-2.9-1.6-3.21-3.08-.47-2.27-.07-7.93-.05-10.57l.19-.41h9.46l.25.41Z"/>
  <path class="cls-7" d="M65.72,94.66l.41.51v4.13l-.41.3c-4.39,0-8.8,0-13.19,0-.16-.02-.4-.07-.41-.18-.05-.76-.08-6.04.14-6.27.07-.07.17-.11.27-.14-.34.68-2.9.65-3.3,0,.16.02.4.07.41.18.06.74.13,5.75,0,6.11l-.41.3c-4.39,0-8.8,0-13.19,0-.64-.1-.61-1.69,0-1.85l1.13-.73c7.5-1.85,13.56-5.73,19.86-9.95.38-.25.83-.36,1.27-.45.41.35,1.04,1.74,1.48,2.33,1.53,2.04,3.77,4.35,5.94,5.71Z"/>
  <path class="cls-25" d="M26.15,83.11l.41.33-.06,3.79c-.18,5.84,6.82,7.5,9.04,2.03l.5-.18c.41,2.88.41,5.77,0,8.66-1.21.97-3.21,1.24-4.79,1.45-1.79.24-3.71.28-5.51.2-.6.06-1.22.13-1.85.21-.89-.01-1.79,0-2.68,0v-16.49c1.6.12,3.33-.08,4.95,0Z"/>
  <path class="cls-3" d="M85.5,40.24c-1.09.41-2.2.41-3.3,0-.54.4-1.11.41-1.65,0-.88.56-1.81.57-2.68,0,2.42-.47,4.6-.89,6.88-1.88,2.68-1.17,4.86-2.66,6.93-4.71.6-.39,1.21-.6,1.85-.25-.34-.56-.27-1.23.21-2.02,2.73-3.39,4.01-7.12,4.95-11.34-.4,5.52.53,11.79.01,17.22-.13,1.31-1.28,2.76-2.6,2.96-2.76.43-7.58,0-10.6.01Z"/>
  <path class="cls-8" d="M85.5,40.24v4.95h6.6v3.3c-3.84-.01-7.7.01-11.54,0-.19.4-.43.4-.62,0-1.45.51-2.88.51-4.33,0-.68-.34-.65-2.9,0-3.3,1.43-.64,3.29-.61,4.74,0,.04-.18.11-.18.21,0,.28-.37.7-.51,1.24-.42v-4.23s.41-.29.41-.29c1.1,0,2.2,0,3.3,0Z"/>
  <path class="cls-1" d="M21.2,14.28c2.42,1.49,1.62,5.27,1.65,7.83h-9.89c.02-1.68-.32-5.37.44-6.67.3-.5.94-.73,1-1.37,1.84,1.84,4.86,1.94,6.8.21Z"/>
  <path class="cls-27" d="M80.56,97.75v1.86c-4.94,0-9.9,0-14.84,0v-4.95c4.3,2.69,9.8,3.82,14.84,3.09Z"/>
  <path class="cls-11" d="M49.23,99.6v-6.6h3.3v6.6c-1.1,0-2.2,0-3.3,0Z"/>
  <path class="cls-21" d="M80.56,17.16c-1.23,0-2.48-.01-3.71,0,.55-1.13,1.15-2.27,1.6-3.45.8-2.11,1.18-4.32,1.9-6.44.7,2.87-.1,6.87.21,9.89Z"/>
  <path class="cls-23" d="M36.04,97.75v1.85c-3.43,0-6.87.01-10.31,0-.18-.06-.18-.13,0-.21,3.44-.15,6.98-.8,10.31-1.65Z"/>
  <path class="cls-23" d="M80.56,48.49v6.8c-.52-.08-1.33-.17-1.85-.21-.16-.03-.39-.11-.38-.21.09-1.32.76-4.97,1.17-6.22l.45-.16c.21,0,.41,0,.62,0Z"/>
  <path class="cls-18" d="M25.73,99.4v.21c-.62,0-1.24,0-1.85,0,.42-.39,1.27-.18,1.85-.21Z"/>
  <path class="cls-25" d="M40.78,33.65l.52.05c1.13,1.59,2.52,2.98,4.17,4.15,1.28,1.42,1.24,5.31.37,6.87-.51.91-2.49,2.29-3.4,1.71l-.27.54-7.35,2.29c-5.12,1.88-7.98,3.8-8.36,9.64-.08,5.2-.09,10.39-.04,15.57l-.27.41c.57,1.64.56,3.31,0,4.95-1.59-.12-3.39.16-4.95,0l-.41-.26c0-14.76,0-29.52.01-44.28l.4-.4c1.41-1.03,1.55-1.61,1.65-3.3,1.37,1.13,2.61,1.89,4.43,2.06,4.3.39,9.14-.29,13.5,0Z"/>
  <path class="cls-22" d="M62.42,28.5c.03.29-.18.29-.62,0l-.27.23c-2-.42-4.03-.84-6.09-1.26l-.44-.42-.5-.18c-.78-3.69-6.43-3.72-7.24-.02l-.5.21-.44.42c-2.06.42-4.09.84-6.09,1.26l-.27-.23c-.44.29-.65.29-.62,0-.35-6.27-.44-12.61,5.5-16.24,6.02-3.68,14.14-1.08,16.71,5.47,1.18,3.01,1.03,7.52.87,10.77Z"/>
  <path class="cls-22" d="M46.14,30.35l.45.26c.77,3.65,7.88,3.75,8.58-.07l.44-.19c.04-.15.13-.29.29-.35.27-.09,4.89,1.3,5.51,1.52l.18.48c.54.38.05,1.62-.62,1.65l.13.58c-1.04,1.33-2.25,2.5-3.63,3.52-2.22,2.21-1.94,7.87,1.94,8.21l.12.48.03.56c-.95,1.36-4.94,6.23-6.53,6.12-.2-.01-.37-.15-.51-.29-.48.87-2.83.88-3.3,0-.14.14-.31.27-.52.28-1.68.07-5.48-4.66-6.36-6.11l.08-.56c1.81-.69,3.26-1.18,3.5-3.4.09-.8.09-2.49-.02-3.28-.27-1.96-2.09-2.51-3.29-3.72-.47-.48-1.52-1.81-1.85-2.38-.22-.37-.44-1.2-.62-1.65-.02-.16-.04-.4.07-.45,1.01-.42,4.44-1.38,5.51-1.52l.4.32Z"/>
  <path class="cls-20" d="M69.01,33.65c0,.16-.03.39-.14.41-1.18.26-6.2.1-7.66,0l-.24-.41c.22-.39.44-1.19.62-1.65-.55-.32.03-1.37.62-1.24,2.49-.95,4.7-2.53,6.8-4.12-.02,2.33-.04,4.68,0,7.01Z"/>
  <path class="cls-10" d="M46.76,27.05c.31.4.29,1.03-.07,1.87.02.74-.17,1.21-.55,1.43l-5.98,1.65c-.31-.79-.72-1.61-.82-2.47,0-.67.21-1.02.62-1.03,2.23-.33,4.51-1.48,6.8-1.44Z"/>
  <path class="cls-10" d="M61.8,28.5c.41.03.61.38.62,1.03-.03.23-.16,1.05-.21,1.24-.04.13-.5.94-.62,1.24l-5.98-1.65c-.38-.21-.56-.69-.55-1.43-.36-.84-.39-1.46-.07-1.87,2.29-.04,4.57,1.11,6.8,1.44Z"/>
  <path class="cls-5" d="M62.42,28.5c-.02.34.04.7,0,1.03-.31-.34-.09-.85-.62-1.03.19.03.42-.02.62,0Z"/>
  <path class="cls-16" d="M39.95,28.5c-.53.18-.31.69-.62,1.03-.04-.32.02-.69,0-1.03.2-.02.42.03.62,0Z"/>
  <path class="cls-15" d="M42.43,46.43c1.86,2.3,3.74,5.65,6.8,6.39l.41.19v11.73l-.41.24c.34-.68,2.9-.65,3.3,0-.16-.02-.41-.08-.41-.19-.13-3.76-.13-7.97,0-11.73l.41-.24c3.24-.73,4.78-4.24,7.01-6.39l.57-.24c4.76,1.1,11.52,3.11,14.42,7.19.16.76.52,1.33,1.09,1.71-8.95.66-16.92,7.36-19.11,16.03-1.35,5.36-.6,10.31,1.59,15.3-.07.26-.32.4-.74.41h-21.06l-.25-.41-.41-.19v-11.1l.41-.25c.28-.35.69-.5,1.24-.46v-14.13s.41-.25.41-.25l-.24.41c-.68.12-2.77.19-3.06-.41l.41.19v14.4l-.41.25c-2.69.63-5.55.61-8.24,0-.02-5.27-.5-12.13,0-17.21.83-8.29,10.13-8.89,16.28-11.23Z"/>
  <path class="cls-13" d="M78.91,65.18c1.05.14,1.67.22,2.68.62.66-.52,2.99.82,2.89,1.65.61.48,1.37,1.24,1.85,1.85.97-.13,2.3,2.45,1.24,3.09.13.17.28.37.28.59-.09,2.62-4.64,7.74-6.65,9.5h-.63c-.66-.19-.63-2.42,0-2.68l-.24.41c-.68.12-2.77.19-3.06-.41.68.34.65,2.9,0,3.3.2-.66,2.43-.63,2.68,0l-.06.56c-1.92,1.4-3.97,2.72-6.26,3.45l-.48-.3c-.55,1.13-2.99-.16-3.09-1.03-.36-.33-1.47-1.58-1.85-2.06-.82.12-2.18-2.24-1.65-2.89-.4-1.01-.47-1.63-.62-2.68-.83-.35-.83-2.94,0-3.3.14-1.05.22-1.67.62-2.68-.53-.65.83-3.01,1.65-2.89.38-.48,1.5-1.73,1.85-2.06-.05-.08-.09-.17-.11-.26-.03-.18,2.67-1.86,2.99-1.18,1.01-.4,1.63-.47,2.68-.62.35-.83,2.94-.83,3.3,0Z"/>
  <path class="cls-25" d="M69.01,33.65c.03,2.07-.54,4.78,1.45,6.07,1.37.89,5.58.51,7.41.53.89,0,1.79,0,2.68,0,.68.16.63,2.6,0,2.89-.08.71-.15,1.39-.21,2.06-1.58.03-3.16-.02-4.74,0v3.3c1.44,0,2.89,0,4.33,0l-1.24,6.6c-.92-.06-2.18-.07-3.09,0-1.27.23-1.04-.84-1.44-1.5-2.62-4.34-10.01-5.52-14.63-7.15-1.32-.47-2.72-.73-3.33-2.13s-.66-4.75.24-6.01c1.1-1.54,3.28-2.42,4.54-4.64h8.04Z"/>
  <path class="cls-24" d="M58.09,86.41c.1.04.14.15.21.21-6.56,5.15-14.14,9.05-22.26,11.13v-8.66c-.66-.2-.63-2.43,0-2.68h22.05Z"/>
  <path class="cls-9" d="M88.59,74.87c.78.38.78,2.92,0,3.3-.13,1.05-.2,1.67-.62,2.68.41.75-.79,2.85-1.65,2.89-.47.65-1.21,1.38-1.85,1.85.03.83-2.13,2.05-2.89,1.65-.88.37-1.53.49-2.47.62-.57.81-3.14.81-3.71,0-.86-.11-1.69-.22-2.47-.62-.16-.15-.09-.28.21-.41,2.17-.51,5.03-2.35,6.8-3.71-.16-.57.06-.9.62-.62,2.81-2.38,6.16-6.34,7.01-10.1.12-.43.26-.5.41-.21.45.85.51,1.76.62,2.68Z"/>
  <path class="cls-19" d="M79.11,87.85c-.46,1.62-.09,3.47-.21,5.15h-3.3c-.12-1.68.25-3.53-.21-5.15,1.42.18,2.29.19,3.71,0Z"/>
  <path class="cls-19" d="M88.59,74.87h5.15v3.3h-5.15c.17-1.37.17-1.93,0-3.3Z"/>
  <path class="cls-19" d="M86.33,83.73c.46-.63,1.35-2.17,1.65-2.89.79.57,3.67,1.76,4.14,2.36.26.34-.22.91-.4,1.28s-.78,1.5-1.16,1.51c-.74.02-3.28-2.05-4.23-2.27Z"/>
  <path class="cls-19" d="M81.59,87.24c.72-.3,2.25-1.18,2.89-1.65.22.96,2.28,3.5,2.27,4.23,0,.37-1.13.97-1.51,1.16s-.94.66-1.28.4c-.64-.49-1.73-3.35-2.36-4.14Z"/>
  <path class="cls-19" d="M87.98,72.19c-.14.07-.27.14-.41.21.26-1.14-.54-2.2-1.24-3.09.96-.22,3.5-2.28,4.23-2.27.37,0,.97,1.13,1.16,1.51s.66.94.4,1.28c-.23.3-3.54,2.07-4.14,2.36Z"/>
  <path class="cls-19" d="M73.14,86.82c-.07.14-.14.27-.21.41-.56,1.14-1.4,2.74-2.09,3.78-.13.2-.28.54-.59.46-.82-.19-1.73-1.27-2.67-1.36l2.47-4.32c.09.09,2.14,1.12,2.27,1.14.34.07.53-.04.83-.11Z"/>
  <path class="cls-19" d="M75.61,65.18v-5.15h3.3v5.15c-1.47-.2-1.82-.2-3.3,0Z"/>
  <path class="cls-19" d="M72.93,65.8c-.34.13-2.76,1.33-2.89,1.44l-2.47-4.32c.94-.09,1.85-1.17,2.67-1.36.31-.07.46.27.59.46.76,1.14,1.36,2.6,2.09,3.78Z"/>
  <path class="cls-19" d="M84.47,67.45c-.77-.6-1.98-1.3-2.89-1.65.64-.8,1.73-3.65,2.36-4.14.34-.26.91.22,1.28.4s1.5.78,1.51,1.16c.02.74-2.05,3.28-2.27,4.23Z"/>
  <path class="cls-19" d="M68.19,69.31c-.59.74-1.3,2-1.65,2.89-.8-.64-3.65-1.73-4.14-2.36-.26-.34.22-.91.4-1.28s.78-1.5,1.16-1.51c.74-.02,3.28,2.05,4.23,2.27Z"/>
  <path class="cls-19" d="M65.92,74.87c-.2,1.48-.2,1.83,0,3.3h-5.15v-3.3h5.15Z"/>
  <path class="cls-19" d="M68.19,83.73c-.96.22-3.5,2.28-4.23,2.27-.37,0-.97-1.13-1.16-1.51s-.66-.94-.4-1.28c.49-.64,3.35-1.73,4.14-2.36.35.89,1.06,2.14,1.65,2.89Z"/>
  <path class="cls-14" d="M91.69,33.65c-.79.01-3.24.15-3.78-.03s-.76-1.67-1.27-2.02c-.2,0-2.38,2.54-2.88,2.88-.17.12-.2.29-.52.2-.73-1.65-1.48-3.39-2.38-4.95-.12-.21.01-.52-.41-.41-.24.06-1.73,3.91-2.27,4.33h-4.23v-3.3c.67-.1,1.88.23,2.37-.2,1.47-2.41,2.47-5.66,3.97-7.98.13-.2-.02-.37.46-.26l3.61,7.21c.2,0,2.38-2.54,2.88-2.88.17-.12.2-.29.52-.2.3.66,1.69,4,2.06,4.23.57.35,3.75-.08,3.92.1.01.34-.02.69,0,1.03-.19,1.09-.95,2.05-2.06,2.27Z"/>
  <path class="cls-22" d="M34.39,74.87c.53-.56,1.12-.55,1.65,0v14.22c-1.03,3.12-4.23,5.02-7.32,3.3-3.41-1.9-2.53-5.99-2.57-9.28-.01-1.1,0-2.2,0-3.3-.01-1.65,0-3.3,0-4.95,2.74-.01,5.5.02,8.24,0Z"/>
  <path class="cls-28" d="M21.2,34.89v44.93c-1.01-.1-1.53-.49-1.65-1.54v-42.26c.05-.53,1.27-.85,1.65-1.13Z"/>
  <path class="cls-28" d="M82.21,40.24v4.95c-.55,0-1.1-.02-1.65,0-.18-.6-.17-1.41,0-2.06v-2.89c.55,0,1.1,0,1.65,0Z"/>
  <path class="cls-29" d="M93.75,31.38c.03.75-.02,1.52,0,2.27-.69,0-1.38-.01-2.06,0,.66-.65,1.48-1.54,2.06-2.27Z"/>
  <path class="cls-6" d="M80.56,45.19c-.07,0-.14,0-.21,0,.09-.65-.23-1.57.21-2.06v2.06Z"/>
  <path class="cls-25" d="M55,27.05c.28.87.71,2.43.62,3.3-.17,1.62-1.6,3.06-3.21,3.28-2.56.35-5.94-.15-6.27-3.28-.09-.87.34-2.43.62-3.3.76-2.37,1.77-3.43,4.44-3.31,2.37.11,3.14,1.24,3.8,3.31Z"/>
  <path class="cls-12" d="M52.53,52.82v12.16h-3.3v-12.16c1.07.26,2.23.24,3.3,0Z"/>
  <path class="cls-12" d="M34.39,74.87v-14.84h3.3v14.84c-.55,0-1.1-.01-1.65,0s-1.1,0-1.65,0Z"/>
  <rect class="cls-2" x="72.31" y="69.92" width="3.3" height="3.3"/>
  <rect class="cls-2" x="78.91" y="73.22" width="3.3" height="3.3"/>
  <rect class="cls-2" x="70.66" y="76.52" width="3.3" height="3.3"/>
  <path class="cls-2" d="M79.94,83.11h-2.68v-3.3h3.3v2.68c-.18.16-.31.38-.62.62Z"/>
</svg>