<?xml version="1.0" encoding="UTF-8"?>
<svg xmlns="http://www.w3.org/2000/svg" viewBox="0 0 657.84 505.41">
  <defs>
    <style>
      .cls-1 {
        stroke-width: .38px;
      }

      .cls-1, .cls-2, .cls-3, .cls-4 {
        stroke-linejoin: round;
      }

      .cls-1, .cls-2, .cls-3, .cls-4, .cls-5, .cls-6 {
        fill: none;
      }

      .cls-1, .cls-2, .cls-3, .cls-4, .cls-6 {
        stroke: #2a040c;
        stroke-linecap: round;
      }

      .cls-7 {
        fill: #a57bbf;
      }

      .cls-8, .cls-9, .cls-10 {
        fill: #8f5aa8;
      }

      .cls-11 {
        fill: #4b6a96;
      }

      .cls-12, .cls-9, .cls-13, .cls-14, .cls-15, .cls-16, .cls-17, .cls-18, .cls-19, .cls-10, .cls-20, .cls-21, .cls-22, .cls-23, .cls-24 {
        mix-blend-mode: multiply;
      }

      .cls-12, .cls-9, .cls-14, .cls-25, .cls-21 {
        opacity: .25;
      }

      .cls-12, .cls-26, .cls-22 {
        fill: #82393f;
      }

      .cls-27 {
        fill: #f5f1f5;
      }

      .cls-28 {
        fill: #eaf8fc;
      }

      .cls-29 {
        fill: #2a040c;
      }

      .cls-13, .cls-14, .cls-30, .cls-20, .cls-23 {
        fill: #c8c8c8;
      }

      .cls-13, .cls-15, .cls-31, .cls-16, .cls-17, .cls-18, .cls-19, .cls-10, .cls-22, .cls-24 {
        opacity: .5;
      }

      .cls-32, .cls-25, .cls-31, .cls-33 {
        fill: #f9f9f9;
      }

      .cls-32, .cls-23 {
        opacity: .75;
      }

      .cls-15, .cls-34 {
        fill: #ffc3b4;
      }

      .cls-25, .cls-31 {
        mix-blend-mode: overlay;
      }

      .cls-16, .cls-35 {
        fill: #23344a;
      }

      .cls-17, .cls-36, .cls-21 {
        fill: #fa5f74;
      }

      .cls-37 {
        fill: #34d1d1;
      }

      .cls-38 {
        fill: #f9c0c7;
      }

      .cls-18 {
        fill: #a1e5e5;
      }

      .cls-19, .cls-39 {
        fill: #ffe25f;
      }

      .cls-40 {
        isolation: isolate;
      }

      .cls-2 {
        stroke-width: 1.15px;
      }

      .cls-3, .cls-6 {
        stroke-width: .76px;
      }

      .cls-20 {
        opacity: .99;
      }

      .cls-4 {
        stroke-width: 1.53px;
      }

      .cls-41 {
        fill: #c5effb;
      }

      .cls-5 {
        stroke: #c8c8c8;
        stroke-width: 1.22px;
      }

      .cls-5, .cls-6 {
        stroke-miterlimit: 10;
      }

      .cls-42 {
        fill: #00b4ba;
      }

      .cls-43 {
        fill: #ffd739;
      }

      .cls-44 {
        fill: #d3eaf3;
      }

      .cls-45 {
        fill: #9ee6f9;
      }

      .cls-46 {
        fill: #405164;
      }
    </style>
  </defs>
  <g class="cls-40">
    <g id="Layer_10" data-name="Layer 10">
      <g>
        <g>
          <circle class="cls-41" cx="610.5" cy="233.39" r="11.87" transform="translate(242.56 773.58) rotate(-76.66)"/>
          <path class="cls-45" d="M613.17,214.57c0-.86-.7-1.57-1.57-1.57h-2.88c-.86,0-1.57.7-1.57,1.57s.7,1.57,1.57,1.57c1.21,2.55,1.44,17.31,1.44,17.31,0,0,.23-14.77,1.44-17.31.86,0,1.57-.7,1.57-1.57ZM604.91,215.07c-.36-.78-1.3-1.12-2.08-.76l-2.61,1.22c-.78.36-1.12,1.3-.76,2.08.36.78,1.3,1.12,2.08.76,2.17,1.8,8.62,15.08,8.62,15.08,0,0-6.03-13.48-6.01-16.3.78-.36,1.12-1.3.76-2.08ZM597.83,221.22c.55-.66.47-1.65-.19-2.21-.66-.55-1.65-.47-2.21.19l-1.85,2.21c-.55.66-.47,1.65.19,2.21.66.55,1.65.47,2.21-.19,2.73.71,14.19,10.03,14.19,10.03,0,0-11.16-9.67-12.34-12.23ZM592.71,225.66c-.83-.22-1.69.28-1.92,1.11l-.75,2.78c-.22.83.28,1.69,1.11,1.92.83.22,1.69-.28,1.92-1.11,2.77-.51,17.1,3.09,17.1,3.09,0,0-14.2-4.05-16.35-5.87.22-.83-.28-1.69-1.11-1.92ZM592.87,235.04c-.15-.85-.97-1.42-1.81-1.27s-1.42.97-1.27,1.81l.5,2.84c.15.85.97,1.42,1.81,1.27.85-.15,1.42-.97,1.27-1.81,2.3-1.63,16.8-4.42,16.8-4.42,0,0-14.58,2.33-17.3,1.59ZM592.98,241.82c-.71.49-.88,1.48-.38,2.18l1.65,2.36c.49.71,1.48.88,2.18.38.71-.49.88-1.48.38-2.18,1.39-2.45,13.36-11.11,13.36-11.11,0,0-12.23,8.28-15.01,8.75-.49-.71-1.48-.88-2.18-.38ZM600.26,247.72c-.75-.43-1.71-.17-2.14.57-.43.75-.17,1.71.57,2.14l2.49,1.44c.75.43,1.71.17,2.14-.57s.17-1.71-.57-2.14c.23-2.81,7.41-15.71,7.41-15.71,0,0-7.58,12.67-9.9,14.27ZM605.53,251.99c-.08.86.57,1.62,1.42,1.7l2.87.25c.86.08,1.62-.57,1.7-1.42.08-.86-.57-1.62-1.42-1.7-.98-2.64.07-17.37.07-17.37,0,0-1.52,14.69-2.94,17.12-.86-.08-1.62.57-1.7,1.42ZM614.74,250.21c-.81.29-1.23,1.2-.94,2.01.29.81,1.2,1.23,2.01.94l2.71-.99c.81-.29,1.23-1.2.94-2.01-.29-.81-1.2-1.23-2.01-.94-2.01-1.98-7.27-15.78-7.27-15.78,0,0,4.83,13.95,4.57,16.76ZM621.39,248.92c.61.61,1.61.61,2.21,0l2.04-2.04c.61-.61.61-1.61,0-2.21-.61-.61-1.61-.61-2.21,0-2.66-.95-13.26-11.22-13.26-11.22,0,0,10.28,10.61,11.22,13.26-.61.61-.61,1.61,0,2.21ZM626.88,242.73c.81.29,1.71-.13,2.01-.94l.99-2.71c.29-.81-.13-1.71-.94-2.01-.81-.29-1.71.13-2.01.94-2.81.26-16.76-4.57-16.76-4.57,0,0,13.8,5.27,15.78,7.27-.29.81.13,1.71.94,2.01ZM627.54,233.37c.08.86.84,1.5,1.7,1.42.86-.08,1.5-.84,1.42-1.7l-.25-2.87c-.08-.86-.84-1.5-1.7-1.42-.86.08-1.5.84-1.42,1.7-2.43,1.42-17.12,2.94-17.12,2.94,0,0,14.73-1.06,17.37-.07ZM628.02,226.61c.75-.43,1-1.39.57-2.14l-1.44-2.49c-.43-.75-1.39-1-2.14-.57-.75.43-1,1.39-.57,2.14-1.6,2.32-14.27,9.9-14.27,9.9,0,0,12.9-7.18,15.71-7.41.43.75,1.39,1,2.14.57ZM621.28,220.09c.71.49,1.69.32,2.18-.38s.32-1.69-.38-2.18l-2.36-1.65c-.71-.49-1.69-.32-2.18.38-.49.71-.32,1.69.38,2.18-.47,2.78-8.75,15.01-8.75,15.01,0,0,8.66-11.96,11.11-13.36Z"/>
          <path class="cls-45" d="M604.41,229.61c-.68.34-1.4.61-2.01,1.06-.61.45-1.11,1.13-1.11,1.89,0,.93.72,1.68,1.35,2.36,1.22,1.34,2.27,2.86,3.7,3.98,1.43,1.12,3.38,1.8,5.08,1.14,1.54-.6,2.51-2.16,3.97-2.95,1.16-.63,2.63-.79,3.49-1.79.73-.85.79-2.07.82-3.19.01-.54.02-1.09-.16-1.59-.22-.62-.7-1.1-1.19-1.54-1.16-1.05-2.45-1.96-3.82-2.72-1.13-.63-2.9-1.73-4.23-1.75-1.27-.01-1.73,1.58-2.48,2.45-.95,1.09-2.11,2-3.41,2.64Z"/>
          <path class="cls-28" d="M613.98,233.39c0,1.93-1.56,3.49-3.49,3.49s-3.49-1.56-3.49-3.49,1.56-3.49,3.49-3.49,3.49,1.56,3.49,3.49Z"/>
        </g>
        <g>
          <path class="cls-41" d="M139.5,53.98c0,4.67-3.79,8.46-8.46,8.46s-8.46-3.79-8.46-8.46,3.79-8.46,8.46-8.46,8.46,3.79,8.46,8.46Z"/>
          <path class="cls-45" d="M132.95,40.56c0-.61-.5-1.12-1.12-1.12h-2.05c-.61,0-1.12.5-1.12,1.12s.5,1.12,1.12,1.12c.86,1.82,1.03,12.34,1.03,12.34,0,0,.17-10.53,1.03-12.34.61,0,1.12-.5,1.12-1.12ZM127.06,40.91c-.26-.56-.93-.8-1.48-.54l-1.86.87c-.56.26-.8.93-.54,1.48s.93.8,1.48.54c1.55,1.28,6.15,10.75,6.15,10.75,0,0-4.3-9.61-4.29-11.62.56-.26.8-.93.54-1.48ZM122.01,45.3c.39-.47.33-1.18-.14-1.57-.47-.39-1.18-.33-1.57.14l-1.32,1.57c-.39.47-.33,1.18.14,1.57.47.39,1.18.33,1.57-.14,1.94.51,10.11,7.15,10.11,7.15,0,0-7.96-6.89-8.79-8.72ZM118.36,48.46c-.59-.16-1.21.2-1.37.79l-.53,1.98c-.16.59.2,1.21.79,1.37.59.16,1.21-.2,1.37-.79,1.98-.36,12.19,2.2,12.19,2.2,0,0-10.12-2.88-11.66-4.19.16-.59-.2-1.21-.79-1.37ZM118.48,55.15c-.11-.6-.69-1.01-1.29-.91-.6.11-1.01.69-.91,1.29l.36,2.02c.11.6.69,1.01,1.29.91s1.01-.69.91-1.29c1.64-1.16,11.98-3.15,11.98-3.15,0,0-10.39,1.66-12.33,1.13ZM118.56,59.98c-.5.35-.63,1.05-.27,1.55l1.18,1.68c.35.5,1.05.63,1.55.27.5-.35.63-1.05.27-1.55.99-1.75,9.52-7.92,9.52-7.92,0,0-8.72,5.9-10.7,6.24-.35-.5-1.05-.63-1.55-.27ZM123.75,64.19c-.53-.31-1.22-.12-1.52.41-.31.53-.12,1.22.41,1.52l1.78,1.03c.53.31,1.22.12,1.52-.41.31-.53.12-1.22-.41-1.52.16-2,5.28-11.2,5.28-11.2,0,0-5.41,9.03-7.06,10.17ZM127.5,67.24c-.05.61.4,1.16,1.01,1.21l2.05.18c.61.05,1.16-.4,1.21-1.01.05-.61-.4-1.16-1.01-1.21-.7-1.88.05-12.38.05-12.38,0,0-1.08,10.47-2.1,12.21-.61-.05-1.16.4-1.21,1.01ZM134.07,65.96c-.58.21-.88.85-.67,1.43.21.58.85.88,1.43.67l1.93-.7c.58-.21.88-.85.67-1.43-.21-.58-.85-.88-1.43-.67-1.43-1.41-5.19-11.25-5.19-11.25,0,0,3.44,9.95,3.26,11.95ZM138.81,65.05c.43.43,1.14.43,1.58,0l1.45-1.45c.43-.43.43-1.14,0-1.58-.43-.43-1.14-.43-1.58,0-1.89-.68-9.45-8-9.45-8,0,0,7.33,7.56,8,9.45-.43.43-.43,1.14,0,1.58ZM142.72,60.63c.58.21,1.22-.09,1.43-.67l.7-1.93c.21-.58-.09-1.22-.67-1.43-.58-.21-1.22.09-1.43.67-2,.19-11.95-3.26-11.95-3.26,0,0,9.83,3.76,11.25,5.19-.21.58.09,1.22.67,1.43ZM143.19,53.96c.05.61.6,1.07,1.21,1.01.61-.05,1.07-.6,1.01-1.21l-.18-2.05c-.05-.61-.6-1.07-1.21-1.01-.61.05-1.07.6-1.01,1.21-1.73,1.02-12.21,2.1-12.21,2.1,0,0,10.5-.75,12.38-.05ZM143.53,49.14c.53-.31.72-.99.41-1.52l-1.03-1.78c-.31-.53-.99-.72-1.52-.41-.53.31-.72.99-.41,1.52-1.14,1.65-10.17,7.06-10.17,7.06,0,0,9.2-5.12,11.2-5.28.31.53.99.72,1.52.41ZM138.73,44.5c.5.35,1.2.23,1.55-.27.35-.5.23-1.2-.27-1.55l-1.68-1.18c-.5-.35-1.2-.23-1.55.27-.35.5-.23,1.2.27,1.55-.34,1.98-6.24,10.7-6.24,10.7,0,0,6.17-8.53,7.92-9.52Z"/>
          <path class="cls-45" d="M126.71,51.28c-.48.24-1,.44-1.43.76-.43.32-.79.81-.79,1.35,0,.66.51,1.2.96,1.69.87.96,1.62,2.04,2.64,2.84,1.02.8,2.41,1.28,3.62.81,1.1-.43,1.79-1.54,2.83-2.1.83-.45,1.88-.56,2.49-1.28.52-.61.56-1.48.58-2.27,0-.38.02-.77-.11-1.13-.16-.44-.5-.79-.85-1.1-.83-.75-1.75-1.4-2.72-1.94-.8-.45-2.07-1.23-3.01-1.25-.9-.01-1.23,1.13-1.77,1.74-.68.78-1.51,1.42-2.43,1.88Z"/>
          <path class="cls-28" d="M133.53,53.98c0,1.37-1.11,2.49-2.49,2.49s-2.49-1.11-2.49-2.49,1.11-2.49,2.49-2.49,2.49,1.11,2.49,2.49Z"/>
        </g>
        <g>
          <path class="cls-41" d="M397.83,396.68c0,4.67-3.79,8.46-8.46,8.46s-8.46-3.79-8.46-8.46,3.79-8.46,8.46-8.46,8.46,3.79,8.46,8.46Z"/>
          <path class="cls-45" d="M391.28,383.26c0-.61-.5-1.12-1.12-1.12h-2.05c-.61,0-1.12.5-1.12,1.12s.5,1.12,1.12,1.12c.86,1.82,1.03,12.34,1.03,12.34,0,0,.17-10.53,1.03-12.34.61,0,1.12-.5,1.12-1.12ZM385.39,383.62c-.26-.56-.93-.8-1.48-.54l-1.86.87c-.56.26-.8.93-.54,1.48.26.56.93.8,1.48.54,1.55,1.28,6.15,10.75,6.15,10.75,0,0-4.3-9.61-4.29-11.62.56-.26.8-.93.54-1.48ZM380.34,388c.39-.47.33-1.18-.14-1.57-.47-.39-1.18-.33-1.57.14l-1.32,1.57c-.39.47-.33,1.18.14,1.57.47.39,1.18.33,1.57-.14,1.94.51,10.11,7.15,10.11,7.15,0,0-7.96-6.89-8.79-8.72ZM376.69,391.17c-.59-.16-1.21.2-1.37.79l-.53,1.98c-.16.59.2,1.21.79,1.37.59.16,1.21-.2,1.37-.79,1.98-.36,12.19,2.2,12.19,2.2,0,0-10.12-2.88-11.66-4.19.16-.59-.2-1.21-.79-1.37ZM376.8,397.85c-.11-.6-.69-1.01-1.29-.91-.6.11-1.01.69-.91,1.29l.36,2.02c.11.6.69,1.01,1.29.91.6-.11,1.01-.69.91-1.29,1.64-1.16,11.98-3.15,11.98-3.15,0,0-10.39,1.66-12.33,1.13ZM376.88,402.68c-.5.35-.63,1.05-.27,1.55l1.18,1.68c.35.5,1.05.63,1.55.27.5-.35.63-1.05.27-1.55.99-1.75,9.52-7.92,9.52-7.92,0,0-8.72,5.9-10.7,6.24-.35-.5-1.05-.63-1.55-.27ZM382.07,406.9c-.53-.31-1.22-.12-1.52.41-.31.53-.12,1.22.41,1.52l1.78,1.03c.53.31,1.22.12,1.52-.41.31-.53.12-1.22-.41-1.52.16-2,5.28-11.2,5.28-11.2,0,0-5.41,9.03-7.06,10.17ZM385.83,409.94c-.05.61.4,1.16,1.01,1.21l2.05.18c.61.05,1.16-.4,1.21-1.01.05-.61-.4-1.16-1.01-1.21-.7-1.88.05-12.38.05-12.38,0,0-1.08,10.47-2.1,12.21-.61-.05-1.16.4-1.21,1.01ZM392.39,408.67c-.58.21-.88.85-.67,1.43s.85.88,1.43.67l1.93-.7c.58-.21.88-.85.67-1.43s-.85-.88-1.43-.67c-1.43-1.41-5.19-11.25-5.19-11.25,0,0,3.44,9.95,3.26,11.95ZM397.14,407.75c.43.43,1.14.43,1.58,0l1.45-1.45c.43-.43.43-1.14,0-1.58s-1.14-.43-1.58,0c-1.89-.68-9.45-8-9.45-8,0,0,7.33,7.56,8,9.45-.43.43-.43,1.14,0,1.58ZM401.05,403.34c.58.21,1.22-.09,1.43-.67l.7-1.93c.21-.58-.09-1.22-.67-1.43-.58-.21-1.22.09-1.43.67-2,.19-11.95-3.26-11.95-3.26,0,0,9.83,3.76,11.25,5.19-.21.58.09,1.22.67,1.43ZM401.52,396.67c.05.61.6,1.07,1.21,1.01.61-.05,1.07-.6,1.01-1.21l-.18-2.05c-.05-.61-.6-1.07-1.21-1.01-.61.05-1.07.6-1.01,1.21-1.73,1.02-12.21,2.1-12.21,2.1,0,0,10.5-.75,12.38-.05ZM401.86,391.85c.53-.31.72-.99.41-1.52l-1.03-1.78c-.31-.53-.99-.72-1.52-.41-.53.31-.72.99-.41,1.52-1.14,1.65-10.18,7.06-10.18,7.06,0,0,9.2-5.12,11.2-5.28.31.53.99.72,1.52.41ZM397.05,387.2c.5.35,1.2.23,1.55-.27.35-.5.23-1.2-.27-1.55l-1.68-1.18c-.5-.35-1.2-.23-1.55.27-.35.5-.23,1.2.27,1.55-.34,1.98-6.24,10.7-6.24,10.7,0,0,6.17-8.53,7.92-9.52Z"/>
          <path class="cls-45" d="M385.03,393.98c-.48.24-1,.44-1.43.76-.43.32-.79.81-.79,1.35,0,.66.51,1.2.96,1.69.87.96,1.62,2.04,2.64,2.84s2.41,1.28,3.62.81c1.1-.43,1.79-1.54,2.83-2.1.83-.45,1.88-.56,2.49-1.28.52-.61.56-1.48.58-2.27,0-.38.02-.77-.11-1.13-.16-.44-.5-.79-.85-1.1-.83-.75-1.75-1.4-2.72-1.94-.8-.45-2.07-1.23-3.01-1.25-.9-.01-1.23,1.13-1.77,1.74-.68.78-1.51,1.42-2.43,1.88Z"/>
          <path class="cls-28" d="M391.85,396.68c0,1.37-1.11,2.49-2.49,2.49s-2.49-1.11-2.49-2.49,1.11-2.49,2.49-2.49,2.49,1.11,2.49,2.49Z"/>
        </g>
        <g>
          <path class="cls-41" d="M587,34.38c0,4.67-3.79,8.46-8.46,8.46s-8.46-3.79-8.46-8.46,3.79-8.46,8.46-8.46,8.46,3.79,8.46,8.46Z"/>
          <path class="cls-45" d="M580.44,20.96c0-.61-.5-1.12-1.12-1.12h-2.05c-.61,0-1.12.5-1.12,1.12s.5,1.12,1.12,1.12c.86,1.82,1.03,12.34,1.03,12.34,0,0,.17-10.53,1.03-12.34.61,0,1.12-.5,1.12-1.12ZM574.56,21.32c-.26-.56-.93-.8-1.48-.54l-1.86.87c-.56.26-.8.93-.54,1.48s.93.8,1.48.54c1.55,1.28,6.15,10.75,6.15,10.75,0,0-4.3-9.61-4.29-11.62.56-.26.8-.93.54-1.48ZM569.51,25.7c.39-.47.33-1.18-.14-1.57-.47-.39-1.18-.33-1.57.14l-1.32,1.57c-.39.47-.33,1.18.14,1.57s1.18.33,1.57-.14c1.94.51,10.11,7.15,10.11,7.15,0,0-7.96-6.89-8.79-8.72ZM565.86,28.87c-.59-.16-1.21.2-1.37.79l-.53,1.98c-.16.59.2,1.21.79,1.37.59.16,1.21-.2,1.37-.79,1.98-.36,12.19,2.2,12.19,2.2,0,0-10.12-2.88-11.66-4.19.16-.59-.2-1.21-.79-1.37ZM565.97,35.55c-.11-.6-.69-1.01-1.29-.91s-1.01.69-.91,1.29l.36,2.02c.11.6.69,1.01,1.29.91.6-.11,1.01-.69.91-1.29,1.64-1.16,11.98-3.15,11.98-3.15,0,0-10.39,1.66-12.33,1.13ZM566.05,40.38c-.5.35-.63,1.05-.27,1.55l1.18,1.68c.35.5,1.05.63,1.55.27.5-.35.63-1.05.27-1.55.99-1.75,9.52-7.92,9.52-7.92,0,0-8.72,5.9-10.7,6.24-.35-.5-1.05-.63-1.55-.27ZM571.24,44.59c-.53-.31-1.22-.12-1.52.41-.31.53-.12,1.22.41,1.52l1.78,1.03c.53.31,1.22.12,1.52-.41.31-.53.12-1.22-.41-1.52.16-2,5.28-11.2,5.28-11.2,0,0-5.41,9.03-7.06,10.17ZM574.99,47.64c-.05.61.4,1.16,1.01,1.21l2.05.18c.61.05,1.16-.4,1.21-1.01.05-.61-.4-1.16-1.01-1.21-.7-1.88.05-12.38.05-12.38,0,0-1.08,10.47-2.1,12.21-.61-.05-1.16.4-1.21,1.01ZM581.56,46.37c-.58.21-.88.85-.67,1.43s.85.88,1.43.67l1.93-.7c.58-.21.88-.85.67-1.43s-.85-.88-1.43-.67c-1.43-1.41-5.19-11.25-5.19-11.25,0,0,3.44,9.95,3.26,11.95ZM586.3,45.45c.43.43,1.14.43,1.58,0l1.45-1.45c.43-.43.43-1.14,0-1.58s-1.14-.43-1.58,0c-1.89-.68-9.45-8-9.45-8,0,0,7.33,7.56,8,9.45-.43.43-.43,1.14,0,1.58ZM590.21,41.03c.58.21,1.22-.09,1.43-.67l.7-1.93c.21-.58-.09-1.22-.67-1.43-.58-.21-1.22.09-1.43.67-2,.19-11.95-3.26-11.95-3.26,0,0,9.83,3.76,11.25,5.19-.21.58.09,1.22.67,1.43ZM590.69,34.36c.05.61.6,1.07,1.21,1.01.61-.05,1.07-.6,1.01-1.21l-.18-2.05c-.05-.61-.6-1.07-1.21-1.01-.61.05-1.07.6-1.01,1.21-1.73,1.02-12.21,2.1-12.21,2.1,0,0,10.5-.75,12.38-.05ZM591.03,29.54c.53-.31.72-.99.41-1.52l-1.03-1.78c-.31-.53-.99-.72-1.52-.41-.53.31-.72.99-.41,1.52-1.14,1.65-10.18,7.06-10.18,7.06,0,0,9.2-5.12,11.2-5.28.31.53.99.72,1.52.41ZM586.22,24.9c.5.35,1.2.23,1.55-.27.35-.5.23-1.2-.27-1.55l-1.68-1.18c-.5-.35-1.2-.23-1.55.27-.35.5-.23,1.2.27,1.55-.34,1.98-6.24,10.7-6.24,10.7,0,0,6.17-8.53,7.92-9.52Z"/>
          <path class="cls-45" d="M574.2,31.68c-.48.24-1,.44-1.43.76-.43.32-.79.81-.79,1.35,0,.66.51,1.2.96,1.69.87.96,1.62,2.04,2.64,2.84,1.02.8,2.41,1.28,3.62.81,1.1-.43,1.79-1.54,2.83-2.1.83-.45,1.88-.56,2.49-1.28.52-.61.56-1.48.58-2.27,0-.38.02-.77-.11-1.13-.16-.44-.5-.79-.85-1.1-.83-.75-1.75-1.4-2.72-1.94-.8-.45-2.07-1.23-3.01-1.25-.9-.01-1.23,1.13-1.77,1.74-.68.78-1.51,1.42-2.43,1.88Z"/>
          <path class="cls-28" d="M581.02,34.38c0,1.37-1.11,2.49-2.49,2.49s-2.49-1.11-2.49-2.49,1.11-2.49,2.49-2.49,2.49,1.11,2.49,2.49Z"/>
        </g>
        <g>
          <circle class="cls-41" cx="341.37" cy="302.85" r="9.5"/>
          <path class="cls-11" d="M343.52,287.79c0-.69-.56-1.25-1.25-1.25h-2.3c-.69,0-1.25.56-1.25,1.25s.56,1.25,1.25,1.25c.97,2.04,1.15,13.86,1.15,13.86,0,0,.19-11.82,1.15-13.86.69,0,1.25-.56,1.25-1.25ZM336.91,288.19c-.29-.62-1.04-.9-1.66-.61l-2.09.97c-.62.29-.9,1.04-.61,1.66.29.62,1.04.9,1.66.61,1.74,1.44,6.9,12.07,6.9,12.07,0,0-4.82-10.79-4.81-13.04.62-.29.9-1.04.61-1.66ZM331.24,293.11c.44-.53.37-1.32-.15-1.76s-1.32-.37-1.77.15l-1.48,1.77c-.44.53-.37,1.32.15,1.76s1.32.37,1.76-.15c2.18.57,11.35,8.02,11.35,8.02,0,0-8.93-7.74-9.87-9.79ZM327.14,296.66c-.67-.18-1.36.22-1.53.89l-.6,2.23c-.18.67.22,1.36.89,1.53.67.18,1.36-.22,1.53-.89,2.22-.41,13.68,2.47,13.68,2.47,0,0-11.37-3.24-13.09-4.7.18-.67-.22-1.36-.89-1.53ZM327.27,304.17c-.12-.68-.77-1.14-1.45-1.02-.68.12-1.14.77-1.02,1.45l.4,2.27c.12.68.77,1.14,1.45,1.02.68-.12,1.14-.77,1.02-1.45,1.84-1.31,13.44-3.54,13.44-3.54,0,0-11.67,1.87-13.85,1.27ZM327.35,309.59c-.56.4-.7,1.18-.31,1.74l1.32,1.89c.4.56,1.18.7,1.74.31.56-.4.7-1.18.31-1.74,1.12-1.96,10.69-8.89,10.69-8.89,0,0-9.79,6.62-12.01,7-.4-.56-1.18-.7-1.74-.31ZM333.18,314.32c-.6-.34-1.37-.14-1.71.46-.34.6-.14,1.37.46,1.71l2,1.15c.6.34,1.37.14,1.71-.46s.14-1.37-.46-1.71c.18-2.25,5.93-12.58,5.93-12.58,0,0-6.07,10.14-7.93,11.42ZM337.4,317.74c-.06.69.45,1.3,1.14,1.36l2.3.2c.69.06,1.3-.45,1.36-1.14.06-.69-.45-1.3-1.14-1.36-.78-2.12.06-13.9.06-13.9,0,0-1.22,11.76-2.36,13.7-.69-.06-1.3.45-1.36,1.14ZM344.77,316.31c-.65.24-.98.96-.75,1.61s.96.98,1.61.75l2.17-.79c.65-.24.98-.96.75-1.61-.24-.65-.96-.98-1.61-.75-1.61-1.59-5.82-12.63-5.82-12.63,0,0,3.87,11.17,3.66,13.41ZM350.09,315.28c.49.49,1.28.49,1.77,0l1.63-1.63c.49-.49.49-1.28,0-1.77-.49-.49-1.28-.49-1.77,0-2.13-.76-10.61-8.98-10.61-8.98,0,0,8.22,8.49,8.98,10.61-.49.49-.49,1.28,0,1.77ZM354.48,310.32c.65.24,1.37-.1,1.61-.75l.79-2.17c.24-.65-.1-1.37-.75-1.61-.65-.24-1.37.1-1.61.75-2.25.21-13.41-3.66-13.41-3.66,0,0,11.04,4.22,12.63,5.82-.24.65.1,1.37.75,1.61ZM355.01,302.84c.06.69.67,1.2,1.36,1.14.69-.06,1.2-.67,1.14-1.36l-.2-2.3c-.06-.69-.67-1.2-1.36-1.14-.69.06-1.2.67-1.14,1.36-1.95,1.14-13.7,2.36-13.7,2.36,0,0,11.79-.84,13.9-.06ZM355.4,297.42c.6-.34.8-1.11.46-1.71l-1.15-2c-.34-.6-1.11-.8-1.71-.46s-.8,1.11-.46,1.71c-1.28,1.86-11.42,7.93-11.42,7.93,0,0,10.33-5.75,12.58-5.93.34.6,1.11.8,1.71.46ZM350,292.21c.56.4,1.35.26,1.74-.31.4-.56.26-1.35-.31-1.74l-1.89-1.32c-.56-.4-1.35-.26-1.74.31-.4.56-.26,1.35.31,1.74-.38,2.22-7,12.01-7,12.01,0,0,6.93-9.57,8.89-10.69Z"/>
          <path class="cls-45" d="M336.5,299.82c-.54.27-1.12.49-1.61.85-.49.36-.89.91-.89,1.52,0,.74.58,1.34,1.08,1.89.98,1.07,1.82,2.29,2.96,3.19,1.14.9,2.71,1.44,4.06.91,1.23-.48,2.01-1.72,3.18-2.36.93-.51,2.11-.63,2.79-1.44.58-.68.63-1.66.66-2.55.01-.43.02-.87-.12-1.27-.18-.49-.56-.88-.95-1.23-.93-.84-1.96-1.57-3.06-2.18-.9-.5-2.32-1.39-3.38-1.4-1.01-.01-1.38,1.27-1.99,1.96-.76.87-1.69,1.6-2.73,2.11Z"/>
          <path class="cls-28" d="M344.16,302.85c0,1.54-1.25,2.79-2.79,2.79s-2.79-1.25-2.79-2.79,1.25-2.79,2.79-2.79,2.79,1.25,2.79,2.79Z"/>
        </g>
        <g>
          <circle class="cls-41" cx="44.41" cy="215.68" r="9.5" transform="translate(-175.7 209.34) rotate(-76.72)"/>
          <path class="cls-11" d="M46.55,200.61c0-.69-.56-1.25-1.25-1.25h-2.3c-.69,0-1.25.56-1.25,1.25s.56,1.25,1.25,1.25c.97,2.04,1.15,13.86,1.15,13.86,0,0,.19-11.82,1.15-13.86.69,0,1.25-.56,1.25-1.25ZM39.94,201.01c-.29-.62-1.04-.9-1.66-.61l-2.09.97c-.62.29-.9,1.04-.61,1.66.29.62,1.04.9,1.66.61,1.74,1.44,6.9,12.07,6.9,12.07,0,0-4.82-10.79-4.81-13.04.62-.29.9-1.04.61-1.66ZM34.27,205.93c.44-.53.37-1.32-.15-1.77s-1.32-.37-1.77.15l-1.48,1.77c-.44.53-.37,1.32.15,1.77s1.32.37,1.76-.15c2.18.57,11.35,8.02,11.35,8.02,0,0-8.93-7.74-9.87-9.79ZM30.17,209.49c-.67-.18-1.36.22-1.53.89l-.6,2.23c-.18.67.22,1.36.89,1.53s1.36-.22,1.53-.89c2.22-.41,13.68,2.47,13.68,2.47,0,0-11.37-3.24-13.09-4.7.18-.67-.22-1.36-.89-1.53ZM30.3,216.99c-.12-.68-.77-1.14-1.45-1.02-.68.12-1.14.77-1.02,1.45l.4,2.27c.12.68.77,1.14,1.45,1.02.68-.12,1.14-.77,1.02-1.45,1.84-1.31,13.44-3.54,13.44-3.54,0,0-11.67,1.87-13.85,1.27ZM30.39,222.42c-.56.4-.7,1.18-.31,1.74l1.32,1.89c.4.56,1.18.7,1.74.31.56-.4.7-1.18.31-1.74,1.12-1.96,10.69-8.89,10.69-8.89,0,0-9.79,6.62-12.01,7-.4-.56-1.18-.7-1.74-.31ZM36.22,227.14c-.6-.34-1.37-.14-1.71.46-.34.6-.14,1.37.46,1.71l2,1.15c.6.34,1.37.14,1.71-.46.34-.6.14-1.37-.46-1.71.18-2.25,5.93-12.58,5.93-12.58,0,0-6.07,10.14-7.93,11.42ZM40.43,230.56c-.06.69.45,1.3,1.14,1.36l2.3.2c.69.06,1.3-.45,1.36-1.14.06-.69-.45-1.3-1.14-1.36-.78-2.12.06-13.9.06-13.9,0,0-1.22,11.76-2.36,13.7-.69-.06-1.3.45-1.36,1.14ZM47.8,229.13c-.65.24-.98.96-.75,1.61.24.65.96.98,1.61.75l2.17-.79c.65-.24.98-.96.75-1.61-.24-.65-.96-.98-1.61-.75-1.61-1.59-5.82-12.63-5.82-12.63,0,0,3.87,11.17,3.66,13.41ZM53.13,228.1c.49.49,1.28.49,1.77,0l1.63-1.63c.49-.49.49-1.28,0-1.77-.49-.49-1.28-.49-1.77,0-2.13-.76-10.61-8.98-10.61-8.98,0,0,8.22,8.49,8.98,10.61-.49.49-.49,1.28,0,1.77ZM57.52,223.15c.65.24,1.37-.1,1.61-.75l.79-2.17c.24-.65-.1-1.37-.75-1.61-.65-.24-1.37.1-1.61.75-2.25.21-13.41-3.66-13.41-3.66,0,0,11.04,4.22,12.63,5.82-.24.65.1,1.37.75,1.61ZM58.05,215.66c.06.69.67,1.2,1.36,1.14.69-.06,1.2-.67,1.14-1.36l-.2-2.3c-.06-.69-.67-1.2-1.36-1.14-.69.06-1.2.67-1.14,1.36-1.95,1.14-13.7,2.36-13.7,2.36,0,0,11.79-.84,13.9-.06ZM58.43,210.25c.6-.34.8-1.11.46-1.71l-1.15-2c-.34-.6-1.11-.8-1.71-.46-.6.34-.8,1.11-.46,1.71-1.28,1.86-11.42,7.93-11.42,7.93,0,0,10.33-5.75,12.58-5.93.34.6,1.11.8,1.71.46ZM53.04,205.03c.56.4,1.35.26,1.74-.31.4-.56.26-1.35-.31-1.74l-1.89-1.32c-.56-.4-1.35-.26-1.74.31-.4.56-.26,1.35.31,1.74-.38,2.22-7,12.01-7,12.01,0,0,6.93-9.57,8.89-10.69Z"/>
          <path class="cls-45" d="M39.54,212.65c-.54.27-1.12.49-1.61.85-.49.36-.89.91-.89,1.52,0,.74.58,1.34,1.08,1.89.98,1.07,1.82,2.29,2.96,3.19,1.14.9,2.71,1.44,4.06.91,1.23-.48,2.01-1.72,3.18-2.36.93-.51,2.11-.63,2.79-1.44.58-.68.63-1.66.66-2.55.01-.43.02-.87-.12-1.27-.18-.49-.56-.88-.95-1.23-.93-.84-1.96-1.57-3.06-2.18-.9-.5-2.32-1.39-3.38-1.4-1.01-.01-1.38,1.27-1.99,1.96-.76.87-1.69,1.6-2.73,2.11Z"/>
          <path class="cls-28" d="M47.2,215.68c0,1.54-1.25,2.79-2.79,2.79s-2.79-1.25-2.79-2.79,1.25-2.79,2.79-2.79,2.79,1.25,2.79,2.79Z"/>
        </g>
        <g>
          <path class="cls-41" d="M199.16,225.24c0,2.66-2.16,4.81-4.81,4.81s-4.81-2.16-4.81-4.81,2.16-4.81,4.81-4.81,4.81,2.16,4.81,4.81Z"/>
          <path class="cls-11" d="M195.43,217.6c0-.35-.29-.64-.64-.64h-1.17c-.35,0-.64.29-.64.64s.29.64.64.64c.49,1.03.58,7.02.58,7.02,0,0,.09-5.99.58-7.02.35,0,.64-.29.64-.64ZM192.08,217.8c-.15-.32-.53-.45-.84-.31l-1.06.49c-.32.15-.45.53-.31.84s.53.45.84.31c.88.73,3.5,6.12,3.5,6.12,0,0-2.45-5.47-2.44-6.61.32-.15.45-.53.31-.84ZM189.2,220.3c.22-.27.19-.67-.08-.89-.27-.22-.67-.19-.89.08l-.75.89c-.22.27-.19.67.08.89s.67.19.89-.08c1.11.29,5.76,4.07,5.76,4.07,0,0-4.53-3.92-5-4.96ZM187.13,222.1c-.34-.09-.69.11-.78.45l-.3,1.13c-.09.34.11.69.45.78.34.09.69-.11.78-.45,1.13-.21,6.94,1.25,6.94,1.25,0,0-5.76-1.64-6.63-2.38.09-.34-.11-.69-.45-.78ZM187.19,225.9c-.06-.34-.39-.58-.74-.52s-.58.39-.52.74l.2,1.15c.06.34.39.58.74.52s.58-.39.52-.74c.93-.66,6.82-1.79,6.82-1.79,0,0-5.92.95-7.02.64ZM187.24,228.65c-.29.2-.36.6-.16.88l.67.96c.2.29.6.36.88.16.29-.2.36-.6.16-.88.57-.99,5.42-4.51,5.42-4.51,0,0-4.96,3.36-6.09,3.55-.2-.29-.6-.36-.88-.16ZM190.19,231.05c-.3-.17-.69-.07-.87.23-.17.3-.07.69.23.87l1.01.58c.3.17.69.07.87-.23.17-.3.07-.69-.23-.87.09-1.14,3.01-6.37,3.01-6.37,0,0-3.08,5.14-4.02,5.79ZM192.33,232.78c-.03.35.23.66.58.69l1.16.1c.35.03.66-.23.69-.58.03-.35-.23-.66-.58-.69-.4-1.07.03-7.05.03-7.05,0,0-.62,5.96-1.19,6.95-.35-.03-.66.23-.69.58ZM196.06,232.06c-.33.12-.5.49-.38.81s.49.5.81.38l1.1-.4c.33-.12.5-.49.38-.81-.12-.33-.49-.5-.81-.38-.81-.8-2.95-6.4-2.95-6.4,0,0,1.96,5.66,1.85,6.8ZM198.76,231.54c.25.25.65.25.9,0l.83-.83c.25-.25.25-.65,0-.9-.25-.25-.65-.25-.9,0-1.08-.38-5.38-4.55-5.38-4.55,0,0,4.17,4.3,4.55,5.38-.25.25-.25.65,0,.9ZM200.99,229.03c.33.12.69-.05.81-.38l.4-1.1c.12-.33-.05-.69-.38-.81s-.69.05-.81.38c-1.14.11-6.8-1.85-6.8-1.85,0,0,5.6,2.14,6.4,2.95-.12.33.05.69.38.81ZM201.26,225.23c.03.35.34.61.69.58.35-.03.61-.34.58-.69l-.1-1.16c-.03-.35-.34-.61-.69-.58-.35.03-.61.34-.58.69-.99.58-6.95,1.19-6.95,1.19,0,0,5.98-.43,7.05-.03ZM201.45,222.49c.3-.17.41-.57.23-.87l-.58-1.01c-.17-.3-.57-.41-.87-.23-.3.17-.41.57-.23.87-.65.94-5.79,4.02-5.79,4.02,0,0,5.23-2.91,6.37-3.01.17.3.57.41.87.23ZM198.72,219.84c.29.2.68.13.88-.16.2-.29.13-.68-.16-.88l-.96-.67c-.29-.2-.68-.13-.88.16-.2.29-.13.68.16.88-.19,1.13-3.55,6.09-3.55,6.09,0,0,3.51-4.85,4.51-5.42Z"/>
          <path class="cls-45" d="M191.87,223.7c-.28.14-.57.25-.81.43s-.45.46-.45.77c0,.38.29.68.55.96.5.54.92,1.16,1.5,1.62.58.46,1.37.73,2.06.46.63-.24,1.02-.87,1.61-1.2.47-.26,1.07-.32,1.41-.73.29-.35.32-.84.33-1.29,0-.22.01-.44-.06-.65-.09-.25-.28-.45-.48-.62-.47-.42-.99-.8-1.55-1.1-.46-.25-1.18-.7-1.71-.71-.51,0-.7.64-1.01.99-.39.44-.86.81-1.38,1.07Z"/>
          <path class="cls-28" d="M195.76,225.24c0,.78-.63,1.41-1.41,1.41s-1.41-.63-1.41-1.41.63-1.41,1.41-1.41,1.41.63,1.41,1.41Z"/>
        </g>
        <g>
          <path class="cls-41" d="M545.96,237.05c0,2.84-2.3,5.14-5.14,5.14s-5.14-2.3-5.14-5.14,2.3-5.14,5.14-5.14,5.14,2.3,5.14,5.14Z"/>
          <path class="cls-11" d="M541.97,228.89c0-.37-.31-.68-.68-.68h-1.25c-.37,0-.68.31-.68.68s.31.68.68.68c.52,1.1.62,7.5.62,7.5,0,0,.1-6.4.62-7.5.37,0,.68-.31.68-.68ZM538.39,229.11c-.16-.34-.56-.49-.9-.33l-1.13.53c-.34.16-.49.56-.33.9.16.34.56.49.9.33.94.78,3.74,6.54,3.74,6.54,0,0-2.61-5.84-2.61-7.06.34-.16.49-.56.33-.9ZM535.32,231.77c.24-.29.2-.72-.08-.96s-.72-.2-.96.08l-.8.96c-.24.29-.2.72.08.96.29.24.72.2.96-.08,1.18.31,6.15,4.35,6.15,4.35,0,0-4.84-4.19-5.35-5.3ZM533.11,233.7c-.36-.1-.73.12-.83.48l-.32,1.21c-.1.36.12.73.48.83.36.1.73-.12.83-.48,1.2-.22,7.41,1.34,7.41,1.34,0,0-6.15-1.75-7.09-2.54.1-.36-.12-.73-.48-.83ZM533.17,237.76c-.06-.37-.42-.62-.79-.55s-.62.42-.55.79l.22,1.23c.06.37.42.62.79.55.37-.06.62-.42.55-.79,1-.71,7.28-1.92,7.28-1.92,0,0-6.32,1.01-7.5.69ZM533.22,240.7c-.31.21-.38.64-.17.94l.72,1.02c.21.31.64.38.94.17.31-.21.38-.64.17-.94.6-1.06,5.79-4.81,5.79-4.81,0,0-5.3,3.59-6.5,3.79-.21-.31-.64-.38-.94-.17ZM536.38,243.26c-.32-.19-.74-.07-.93.25-.19.32-.07.74.25.93l1.08.62c.32.19.74.07.93-.25.19-.32.07-.74-.25-.93.1-1.22,3.21-6.81,3.21-6.81,0,0-3.29,5.49-4.29,6.19ZM538.66,245.11c-.03.37.25.7.62.74l1.24.11c.37.03.7-.25.74-.62.03-.37-.25-.7-.62-.74-.42-1.15.03-7.53.03-7.53,0,0-.66,6.37-1.28,7.42-.37-.03-.7.25-.74.62ZM542.65,244.34c-.35.13-.53.52-.41.87s.52.53.87.41l1.17-.43c.35-.13.53-.52.41-.87s-.52-.53-.87-.41c-.87-.86-3.15-6.84-3.15-6.84,0,0,2.09,6.05,1.98,7.26ZM545.54,243.78c.26.26.7.26.96,0l.88-.88c.26-.26.26-.7,0-.96-.26-.26-.7-.26-.96,0-1.15-.41-5.75-4.86-5.75-4.86,0,0,4.45,4.6,4.86,5.75-.26.26-.26.7,0,.96ZM547.91,241.09c.35.13.74-.05.87-.41l.43-1.17c.13-.35-.05-.74-.41-.87-.35-.13-.74.05-.87.41-1.22.11-7.26-1.98-7.26-1.98,0,0,5.98,2.28,6.84,3.15-.13.35.05.74.41.87ZM548.2,237.04c.03.37.36.65.73.62.37-.03.65-.36.62-.74l-.11-1.24c-.03-.37-.36-.65-.74-.62-.37.03-.65.36-.62.74-1.05.62-7.42,1.28-7.42,1.28,0,0,6.38-.46,7.53-.03ZM548.41,234.11c.32-.19.43-.6.25-.93l-.62-1.08c-.19-.32-.6-.43-.93-.25-.32.19-.43.6-.25.93-.69,1.01-6.19,4.29-6.19,4.29,0,0,5.59-3.11,6.81-3.21.19.32.6.43.93.25ZM545.49,231.28c.31.21.73.14.94-.17s.14-.73-.17-.94l-1.02-.72c-.31-.21-.73-.14-.94.17-.21.31-.14.73.17.94-.2,1.2-3.79,6.5-3.79,6.5,0,0,3.75-5.18,4.81-5.79Z"/>
          <path class="cls-45" d="M538.18,235.41c-.29.15-.61.27-.87.46s-.48.49-.48.82c0,.4.31.73.58,1.02.53.58.99,1.24,1.6,1.73.62.49,1.47.78,2.2.49.67-.26,1.09-.93,1.72-1.28.5-.27,1.14-.34,1.51-.78.32-.37.34-.9.35-1.38,0-.23.01-.47-.07-.69-.1-.27-.3-.48-.52-.67-.5-.45-1.06-.85-1.66-1.18-.49-.27-1.26-.75-1.83-.76-.55,0-.75.69-1.08,1.06-.41.47-.92.87-1.48,1.15Z"/>
          <path class="cls-28" d="M542.32,237.05c0,.83-.68,1.51-1.51,1.51s-1.51-.68-1.51-1.51.68-1.51,1.51-1.51,1.51.68,1.51,1.51Z"/>
        </g>
        <circle class="cls-44" cx="431.64" cy="105.04" r="9.06"/>
        <path class="cls-44" d="M197.16,195.34c0,2.71-2.2,4.91-4.91,4.91s-4.91-2.2-4.91-4.91,2.2-4.91,4.91-4.91,4.91,2.2,4.91,4.91Z"/>
        <path class="cls-44" d="M389.13,479.42c0,3.51-2.85,6.36-6.36,6.36s-6.36-2.85-6.36-6.36,2.85-6.36,6.36-6.36,6.36,2.85,6.36,6.36Z"/>
        <path class="cls-44" d="M246.13,121.1c0,3.51-2.85,6.36-6.36,6.36s-6.36-2.85-6.36-6.36,2.85-6.36,6.36-6.36,6.36,2.85,6.36,6.36Z"/>
        <path class="cls-44" d="M196.11,486.46c0,1.76-1.42,3.18-3.18,3.18s-3.18-1.42-3.18-3.18,1.42-3.18,3.18-3.18,3.18,1.42,3.18,3.18Z"/>
        <path class="cls-44" d="M43.61,330.67c0,1.76-1.42,3.18-3.18,3.18s-3.18-1.42-3.18-3.18,1.42-3.18,3.18-3.18,3.18,1.42,3.18,3.18Z"/>
        <circle class="cls-44" cx="563.95" cy="181.02" r="7.2"/>
        <circle class="cls-27" cx="595.72" cy="297.02" r="5.97"/>
        <path class="cls-27" d="M416.52,118.29c0,2.31-1.88,4.19-4.19,4.19s-4.19-1.88-4.19-4.19,1.88-4.19,4.19-4.19,4.19,1.88,4.19,4.19Z"/>
        <path class="cls-27" d="M156.84,68.13c0,2.31-1.88,4.19-4.19,4.19s-4.19-1.88-4.19-4.19,1.88-4.19,4.19-4.19,4.19,1.88,4.19,4.19Z"/>
        <path class="cls-27" d="M312.67,219.93c0,2.31-1.88,4.19-4.19,4.19s-4.19-1.88-4.19-4.19,1.88-4.19,4.19-4.19,4.19,1.88,4.19,4.19Z"/>
        <path class="cls-27" d="M393.33,330.67c0,2.31-1.88,4.19-4.19,4.19s-4.19-1.88-4.19-4.19,1.88-4.19,4.19-4.19,4.19,1.88,4.19,4.19Z"/>
      </g>
      <g>
        <g>
          <path class="cls-18" d="M428.02,480.95c0,4.76-27.03,8.62-60.37,8.62s-60.37-3.86-60.37-8.62,27.03-8.62,60.37-8.62,60.37,3.86,60.37,8.62Z"/>
          <g>
            <g>
              <path class="cls-33" d="M344.66,468s-15.14,4.56-18.18,12.95h47.44s-1.31-14.72-4.2-34.82h-31.87c4.37,14.23,6.81,21.86,6.81,21.86Z"/>
              <path class="cls-14" d="M340.7,469.46c5.46,1.43,16.63,3.46,32.22,1.81-.69-6.2-1.74-14.98-3.2-25.13h-31.87c4.37,14.23,6.81,21.86,6.81,21.86,0,0-1.65.5-3.96,1.46Z"/>
            </g>
            <g>
              <path class="cls-35" d="M373.63,468c-2.46-21.35-8.38-64.72-18.67-96.26l22.52-74.89c-14.65-17.3-41.87-17.3-41.87-17.3l-2.94,17.28c-6.22,25.02-13.3,52.56-16.82,66.23-1.47,5.7-1.38,11.69.26,17.35,16.14,55.53,26.4,87.59,26.4,87.59,0,0,4.17,1.39,11.61,1.39,11.74,0,19.51-1.39,19.51-1.39Z"/>
              <path class="cls-16" d="M365.98,294.33c3.17.15,6.3.22,9.35.22-15.01-14.98-39.73-14.99-39.73-14.99l-1.92,11.28c6.28.97,19.96,2.91,32.3,3.5Z"/>
              <g>
                <path class="cls-3" d="M360.88,392.9c-1.79-7.37-3.76-14.53-5.92-21.16l2.61-8.69"/>
                <path class="cls-3" d="M348.56,363.05s5.22,4.98,6.39,8.69"/>
              </g>
            </g>
            <g>
              <path class="cls-35" d="M338.99,249.06s-2.42,18.61-3.39,30.5l33.42,17.3h8.62l38.81-17.3s2.46-9.97-1.39-30.5h-76.08Z"/>
              <path class="cls-16" d="M415.07,249.06h-76.08s-2.42,18.61-3.39,30.5l28.33,14.67c.68.04,1.36.08,2.04.11,5.94.28,11.71.27,17.16.08l28.02-12.49c.35-2.13.63-4.36.75-6.56,0,0,.17,2.59.21,6.13l4.34-1.93s2.46-9.97-1.39-30.5Z"/>
              <line class="cls-3" x1="369.02" y1="296.85" x2="361.78" y2="293.1"/>
            </g>
            <g>
              <path class="cls-34" d="M334.83,165.2c-10.65,5.38-15.93,11.35-20.55,35.02-4.42,22.64-8.06,37.72-8.06,37.72l-27.53,45.46c-9.58,4.66-14.39,11.68-14.39,11.68-3.37,7.07-8.47,15.15-8.47,15.15l1.37.45c2.29.74,4.8.14,6.52-1.56,1.63-1.61,3.71-3.77,5.63-6.02-1.68,2.51-4.33,6.44-5.92,8.49-1.68,1.89-3.98,4.29-5.53,5.88-1.05,1.08-1.47,2.64-1.1,4.11l.57,2.27s5.84-4.58,9.05-7.31c-1.43,1.74-5.29,5.43-7.58,7.59-1.11,1.05-1.59,2.6-1.27,4.1l.51,2.36s2.16-1.62,4.72-3.63c-.43.9-.57,1.92-.32,2.92l.54,2.14s2.49-1.83,5.23-3.95c-.33.89-.38,1.87-.09,2.81l.55,1.81s7.81-5.95,10.37-7.99c2.14-1.7,5.28-4.92,7.36-7.13,1.45-1.53,2.65-3.27,3.6-5.16,2.03-4.05,5.74-11.66,7.88-17.34,0,0,19.87-21.01,32.84-40.86,2.12-3.25,3.59-6.89,4.42-10.69l7.6-34.86-7.98-43.47Z"/>
              <path class="cls-15" d="M314.28,200.22c-2.04,10.42-3.9,19.24-5.33,25.72,4.77,2.81,14.83,7.93,27.88,10.12l5.97-27.4-7.98-43.47c-10.65,5.38-15.93,11.35-20.55,35.02Z"/>
              <g>
                <path class="cls-3" d="M255.84,310.23l1.37.45c2.29.74,4.8.14,6.52-1.56,2.04-2.01,4.8-4.88,7.05-7.74,9-2.8,14.1-11.15,14.1-11.15"/>
                <path class="cls-3" d="M282.93,310.87s-5.95,7.37-7.84,9.78c-1.05,1.33-3.8,3.96-5.72,5.75-1.22,1.14-1.68,2.88-1.19,4.48l.55,1.81s7.81-5.95,10.37-7.99"/>
                <path class="cls-3" d="M263.45,311.59c-1.68,1.89-3.98,4.29-5.53,5.88-1.05,1.08-1.47,2.64-1.1,4.11l.57,2.27"/>
                <path class="cls-3" d="M279.03,307.9s-6.28,8.19-8.45,10.88c-1.27,1.58-4.68,4.83-6.84,6.86-1.15,1.08-1.63,2.71-1.24,4.25l.54,2.14"/>
                <path class="cls-3" d="M275.46,305.18s-6.66,8.48-9.02,11.36c-1.43,1.74-5.29,5.43-7.58,7.59-1.11,1.05-1.59,2.6-1.27,4.1l.51,2.36"/>
              </g>
            </g>
            <path class="cls-35" d="M334.49,164.52c-10.96,5.54-17.38,11.7-22.03,35.56,0,0-4.05,14.8-5.28,20.53,6.6,3.52,19,7.83,31.73,9.46l4.65-21.24-8.15-44.78-.9.46Z"/>
            <g>
              <path class="cls-26" d="M403.82,144.09c2.16-.84,2.8-7.83,1.9-14.69,3.26,3.46,7.18,5.21,8.51,3.81,1.41-1.49-2.26-10.05-5.4-21.34h-27.31c-7.42,14.98-9.36,34.87-6.75,36.12,1.85.89,5.61-5.66,8.27-11.53.57,6.02,1.94,9.37,3.34,9.56,1.66.22,4.05-4.21,5.4-13.41,4.21,8.48,9.64,12.41,12.03,11.48Z"/>
              <path class="cls-12" d="M403.82,144.09c2.16-.84,2.8-7.83,1.9-14.69,3.26,3.46,7.18,5.21,8.51,3.81,1.41-1.49-2.26-10.05-5.4-21.34h-27.31c-7.42,14.98-9.36,34.87-6.75,36.12,1.85.89,5.61-5.66,8.27-11.53.57,6.02,1.94,9.37,3.34,9.56,1.66.22,4.05-4.21,5.4-13.41,4.21,8.48,9.64,12.41,12.03,11.48Z"/>
              <g>
                <path class="cls-3" d="M381.52,111.88c-4.21,8.5-6.65,18.58-7.51,25.94"/>
                <path class="cls-3" d="M390.81,137.81c.36-1.51.69-3.24.98-5.17"/>
                <path class="cls-3" d="M382.77,130.17c0,6.64.79,11.37,1.86,13.85"/>
                <path class="cls-3" d="M406.12,135.23c0-3.17-.38-6.74-1.14-9.98"/>
                <path class="cls-3" d="M390.65,130.17c1.93,4.55,4.24,8.02,6.45,10.38"/>
                <path class="cls-3" d="M405.62,129.3c3.28,3.53,7.27,5.34,8.61,3.92,1.31-1.38-1.76-8.87-4.73-18.97"/>
                <g>
                  <path class="cls-1" d="M393.88,111.88c0,14.32,2.65,22.88,7.14,28.17"/>
                  <path class="cls-1" d="M395.26,111.88c1.6,7.25,4.49,14.69,5.76,19.27"/>
                  <path class="cls-1" d="M386.05,111.88s-2.44,14.35,0,27.66"/>
                  <path class="cls-1" d="M379.84,121.56c-2.45,6.78-3.72,15.6-3.97,20.18"/>
                  <path class="cls-1" d="M380.45,128.44c-2.31,6.26-4.45,11.6-4.45,11.6"/>
                  <path class="cls-1" d="M403.88,111.88c1.64,5.37,3.88,10.92,7.07,16.57"/>
                </g>
              </g>
            </g>
            <g>
              <path class="cls-26" d="M340.54,144.09c2.16-.84,2.8-7.83,1.91-14.69,3.26,3.46,7.18,5.21,8.51,3.81,1.41-1.49-2.26-10.05-5.4-21.34h-27.31c-7.42,14.98-9.36,34.87-6.75,36.12,1.85.89,5.61-5.66,8.27-11.53.57,6.02,1.94,9.37,3.34,9.56,1.66.22,4.05-4.21,5.4-13.41,4.21,8.48,9.64,12.41,12.03,11.48Z"/>
              <path class="cls-12" d="M340.54,144.09c2.16-.84,2.8-7.83,1.91-14.69,3.26,3.46,7.18,5.21,8.51,3.81,1.41-1.49-2.26-10.05-5.4-21.34h-27.31c-7.42,14.98-9.36,34.87-6.75,36.12,1.85.89,5.61-5.66,8.27-11.53.57,6.02,1.94,9.37,3.34,9.56,1.66.22,4.05-4.21,5.4-13.41,4.21,8.48,9.64,12.41,12.03,11.48Z"/>
              <g>
                <path class="cls-3" d="M318.24,111.88c-4.21,8.5-6.65,18.58-7.51,25.94"/>
                <path class="cls-3" d="M327.53,137.81c.36-1.51.69-3.24.98-5.17"/>
                <path class="cls-3" d="M319.49,130.17c0,6.64.79,11.37,1.86,13.85"/>
                <path class="cls-3" d="M342.84,135.23c0-3.17-.38-6.74-1.14-9.98"/>
                <path class="cls-3" d="M327.37,130.17c1.93,4.55,4.24,8.02,6.45,10.38"/>
                <path class="cls-3" d="M342.34,129.3c3.28,3.53,7.27,5.34,8.61,3.92,1.31-1.38-1.76-8.87-4.73-18.97"/>
                <g>
                  <path class="cls-1" d="M330.6,111.88c0,14.32,2.65,22.88,7.14,28.17"/>
                  <path class="cls-1" d="M331.98,111.88c1.6,7.25,4.49,14.69,5.76,19.27"/>
                  <path class="cls-1" d="M322.77,111.88s-2.44,14.35,0,27.66"/>
                  <path class="cls-1" d="M316.56,121.56c-2.45,6.78-3.72,15.6-3.97,20.18"/>
                  <path class="cls-1" d="M317.17,128.44c-2.31,6.26-4.45,11.6-4.45,11.6"/>
                  <path class="cls-1" d="M340.6,111.88c1.64,5.37,3.88,10.92,7.07,16.57"/>
                </g>
              </g>
            </g>
            <g>
              <path class="cls-33" d="M379.57,468s-15.14,4.56-18.18,12.95h47.44s-1.31-14.72-4.2-34.82h-31.87c4.37,14.24,6.81,21.86,6.81,21.86Z"/>
              <path class="cls-14" d="M375.58,469.47c5.49,1.43,16.67,3.45,32.25,1.79-.69-6.2-1.74-14.97-3.2-25.12h-31.87c4.37,14.24,6.81,21.86,6.81,21.86,0,0-1.66.5-3.99,1.47Z"/>
              <g>
                <path class="cls-3" d="M368.79,472.96c-3.23,2.06-6.22,4.74-7.4,7.99"/>
                <path class="cls-3" d="M372.76,446.13c4.37,14.24,6.81,21.86,6.81,21.86,0,0-4.24,1.28-8.68,3.72"/>
              </g>
            </g>
            <g>
              <path class="cls-35" d="M408.54,468c-2.47-21.35-8.38-64.72-18.67-96.26,0,0,21.73-65.63,26.59-92.19,0,0-32.94,0-47.44,17.3-7.37,30.2-13.7,53.93-17,66.05-1.59,5.82-1.54,11.96.13,17.76,16,55.38,25.26,87.34,25.26,87.34,0,0,5.25,1.39,12.13,1.39,10.19,0,18.99-1.39,18.99-1.39Z"/>
              <g class="cls-24">
                <path class="cls-35" d="M412.09,279.75c.08,3.26.08,7.82-.32,11.92.74-.12,1.44-.23,2.1-.34,1.08-4.41,1.97-8.41,2.59-11.78,0,0-1.65,0-4.37.19Z"/>
                <path class="cls-35" d="M411.48,279.79c-9.15.71-28.74,3.53-40.24,14.71,14.88.3,28.4-1.08,37.62-2.4.77-2.7,1.96-7.34,2.62-12.31Z"/>
              </g>
              <path class="cls-3" d="M410.45,304.42c2.63-9.6,4.82-18.39,6.01-24.87"/>
              <path class="cls-3" d="M395.79,392.9c-1.79-7.37-3.76-14.53-5.92-21.16,0,0,2.01-6.09,4.95-15.3"/>
              <path class="cls-3" d="M355.28,350.77c-1.28,4.81-2.38,8.88-3.26,12.12-1.59,5.82-1.54,11.96.13,17.76,10.53,36.45,18.14,62.76,22.12,76.48"/>
              <path class="cls-3" d="M369.02,296.85c-4.76,19.53-9.1,36.36-12.46,49.09"/>
              <path class="cls-3" d="M384.27,368.97s4.93.72,5.59,2.78"/>
            </g>
            <path class="cls-34" d="M335.69,182.74c-2.88,6.65-4.05,12.49-3.99,17.98h76.42c-3.63-23.91-7.06-45.3-7.06-45.3l-21.15-.9-.65-16.2h-26.07l.65,17.29-19,9.6.85,17.54Z"/>
            <g>
              <path class="cls-35" d="M419.06,248.94c-3.89-30.24-17.35-94.26-17.35-94.26l-18.11-.77c-14.23,13.77-25.66,29.6-25.66,29.6-3.8-8.67-5.94-20.83-6.8-26.55l1.53-.77-1.38-.02c-.17,0-.35.04-.5.12l-16.75,8.46.87,17.86c-5.3,12.32-6.43,22.53-1.25,35.15,0,0,.59,18.47,2.39,31.32,0,0-4.84,27.69-5.89,37.95,0,0,19.13,3.27,35.8,4.06,16.92.8,32.58-.75,42.88-2.22,1-3.5,2.71-10.25,3.06-16.75,0,0,.59,8.92-.14,16.32,5.93-.92,9.45-1.71,9.45-1.71.1-5.09-.29-27.77-2.16-37.76Z"/>
              <g>
                <path class="cls-3" d="M334.55,175.05l.37,7.55c-5.3,12.32-6.43,22.53-1.25,35.15,0,0,.28,8.78,1.04,18.44"/>
                <path class="cls-3" d="M380.08,157.4c-12.55,12.81-22.14,26.1-22.14,26.1-2.5-5.69-4.27-12.88-5.44-18.77"/>
                <g>
                  <path class="cls-1" d="M339.83,249.06c4.99,3.6,22.26,13.02,58.21,0"/>
                  <path class="cls-1" d="M385.07,157.81c-13.29,13.1-23.94,27.8-24.05,27.95l-3.88,5.38-2.67-6.09c-3.15-7.18-5.19-16.43-6.36-23.13"/>
                  <path class="cls-1" d="M360.93,252.39c16.55,0,41.14-14.88,41.14-14.88"/>
                </g>
                <path class="cls-3" d="M388.18,290.91c8.02-.46,15.12-1.28,20.67-2.07,1-3.5,2.71-10.25,3.06-16.75,0,0,.59,8.92-.14,16.32,5.93-.92,9.45-1.71,9.45-1.71.1-5.09-.29-27.77-2.16-37.76"/>
                <path class="cls-3" d="M332.62,269.75c-1.05,6.62-2.03,13.26-2.45,17.26,0,0,19.13,3.27,35.8,4.06,5.94.28,11.72.27,17.16.08"/>
              </g>
            </g>
            <g>
              <path class="cls-34" d="M436.74,182.19c4.64,5.19,20.29,23.28,20.29,23.28v23.54c0,3.6-2.9,6.52-6.47,6.52h-2.71c-3.76,0-7.33-1.65-9.79-4.51l-31.29-36.48h-2.16c-10.57-17.06-3.57-39.12-3.57-39.12,17.86,1.29,23.53,13.17,35.69,26.77Z"/>
              <path class="cls-15" d="M444.53,191.07c-3.18-3.65-6.16-7.06-7.79-8.88-12.16-13.61-17.83-25.48-35.69-26.77,0,0-7.01,22.06,3.57,39.12h2.16l17.14,19.98c11.32-9.08,17.92-18.9,20.61-23.45Z"/>
            </g>
            <g>
              <path class="cls-35" d="M443.16,187.25c-2.42-2.77-12.34-13.24-12.34-13.24-8.38-10.21-15.01-18.28-29.71-19.35l-.6-.04s-7.53,23.74,3.69,40.7h1.15l13.96,16.28c6.01-4.17,18.46-14.94,23.84-24.34Z"/>
              <g>
                <path class="cls-1" d="M399.68,157.81c-1.49,6.6-3.88,22.2,3.01,34.99"/>
                <path class="cls-3" d="M404.2,195.31h1.15l13.96,16.28c1.62-1.12,3.71-2.73,6-4.66"/>
              </g>
            </g>
            <g>
              <path class="cls-34" d="M491.39,187.56c8.45,1.69,20.99-4.16,20.99-4.16l-6.11-23s-3.52-.73-7.04-3.5c0,0-8.37,2.9-13.77,8.32l-43.54,38.11v25.68c0,3.6,2.9,6.52,6.47,6.52h3.11c3.46,0,6.71-1.67,8.74-4.5l31.16-43.47Z"/>
              <path class="cls-3" d="M467,181.37l-17.54,15.35s-6.3,7.6-7.54,21.41"/>
            </g>
            <g>
              <path class="cls-34" d="M359.65,148c-8.62,0-23.41-4.39-32.24-10.87-10.93-8.02-10.93-20.65-10.93-53.46s19.67-47.61,47.59-48.69c28.57-1.1,54.84,13.82,54.84,48.69,0,32.82-11.88,46.97-22.5,53.46-12.82,7.85-23.56,10.87-36.76,10.87Z"/>
              <path class="cls-15" d="M364.07,34.98c-27.92,1.08-47.59,17.11-47.59,48.69,0,1.85,0,3.63,0,5.36,3.45-.73,8.31-2.35,13.39-4.77-1.15,1.69-1.64,2.88-1.17,3.55,1.28,1.82,13-1.7,20.11-6.11,9.72-6.02,20.65-16.96,26.03-29,0,0,10.18,25.31,25.83,32.83,0,0,2.44,8.26,9.14,10.57l8.34,1.07c.49-4.11.76-8.6.76-13.51,0-34.87-26.28-49.79-54.84-48.69Z"/>
              <g>
                <path class="cls-6" d="M384.37,143.33c-8.05,3.29-15.82,4.66-24.71,4.66-5.24,0-12.75-1.62-19.82-4.35"/>
                <path class="cls-6" d="M414.03,114.85c-4.44,11.75-11.26,18.39-17.62,22.28"/>
                <path class="cls-6" d="M316.54,99.1c-.06-4.58-.06-9.7-.06-15.43,0-6.69.88-12.69,2.54-17.99"/>
              </g>
            </g>
            <g>
              <path class="cls-21" d="M332.8,107.79c0,4.8-3.26,8.69-7.27,8.69s-7.27-3.89-7.27-8.69,3.26-8.69,7.27-8.69,7.27,3.89,7.27,8.69Z"/>
              <path class="cls-3" d="M366.22,120.83s-4.88,2.61-12.97,2.61-12.9-2.61-12.9-2.61"/>
              <path class="cls-3" d="M351.13,104.53s-2.13,3.26,0,6.52"/>
              <path class="cls-2" d="M334.16,91.92c-2.39-1.14-3.27-3.04-3.27-3.04"/>
              <path class="cls-4" d="M328.71,82.36c1.88-2.3,8.59-3.44,12.73,0"/>
              <path class="cls-29" d="M331.8,94.75c0,3.24.95,5.87,3.27,5.87s3.27-2.63,3.27-5.87-.95-5.87-3.27-5.87-3.27,2.63-3.27,5.87Z"/>
              <path class="cls-21" d="M379.7,107.79c0,4.8,3.86,8.69,8.62,8.69s8.62-3.89,8.62-8.69-3.86-8.69-8.62-8.69-8.62,3.89-8.62,8.69Z"/>
              <path class="cls-2" d="M378.09,91.92c2.84-1.14,3.88-3.04,3.88-3.04"/>
              <path class="cls-4" d="M384.55,82.36c-2.24-2.3-10.19-3.44-15.09,0"/>
              <path class="cls-29" d="M380.89,94.75c0,3.24-1.13,5.87-3.88,5.87s-3.88-2.63-3.88-5.87,1.13-5.87,3.88-5.87,3.88,2.63,3.88,5.87Z"/>
            </g>
            <g>
              <path class="cls-26" d="M431.34,95.61c-2.28-18.66-3.03-38.16-15.52-50.5-15.12-14.93-31.27-11.19-31.27-11.19,0,0-7.6-12.22-35.24-4.08-27.64,8.14-34.58,28.32-34.58,28.32-7.93,3.1-13.08,5.85-12.07,7.72.83,1.53,4.95,2,9.1,1.86-5.59,4.51-10.44,8.68-9.4,10.63.72,1.34,7.68,1.67,15.09-1.3-3.89,4.43-6.8,7.71-5.94,8.74,1.03,1.25,9.32-.51,18.35-4.82-1.15,1.69-1.64,2.88-1.17,3.55,1.28,1.82,13-1.7,20.11-6.11,9.72-6.02,20.65-13.7,26.03-25.74,0,0,10.18,22.05,25.83,29.57,0,0,2.52,10.92,9.14,13.83v15.77h-2.39c-7.42,14.98-9.36,34.87-6.75,36.12,1.85.89,5.61-5.66,8.27-11.53.57,6.02,1.94,9.37,3.34,9.56,1.66.22,4.05-4.21,5.4-13.41,4.21,8.48,9.64,12.41,12.03,11.48,2.16-.84,2.8-7.83,1.9-14.69,3.26,3.46,7.18,5.21,8.51,3.81,2.04-2.15-6.52-19.04-8.79-37.61Z"/>
              <path class="cls-25" d="M334.4,36.35c-7.48,4.53-12.35,9.83-15.36,14.07,17.39,9.03,42.71,10.11,44.79,7.41,3.12-4.05-21.27-6.67-29.43-21.48Z"/>
              <g>
                <path class="cls-3" d="M318.25,85.35c-3.63.95-6.19,1.12-6.73.47-1.45-1.77,8.01-10.05,14.7-19.46"/>
                <path class="cls-3" d="M314.74,65.36c-6.68,5.38-13.6,10.72-12.37,13.02"/>
                <path class="cls-3" d="M397,80.19c1.19.78,2.42,1.48,3.68,2.09,0,0,2.52,10.92,9.14,13.83"/>
                <path class="cls-3" d="M369.46,61.48c2.11-2.65,3.94-5.56,5.38-8.78,0,0,3.56,7.71,9.71,15.57"/>
                <path class="cls-3" d="M337.12,71.71c-5.49,6.99-9.5,11.29-8.41,12.83,1.28,1.82,13-1.7,20.11-6.11"/>
                <path class="cls-3" d="M344.52,61.52c-1.99,3.01-3.98,5.75-5.85,8.19"/>
                <path class="cls-3" d="M416.71,137.81c.36-1.51.69-3.24.98-5.17"/>
                <path class="cls-3" d="M408.67,130.17c0,6.64.79,11.37,1.86,13.85"/>
                <path class="cls-3" d="M432.02,135.23c0-3.17-.38-6.74-1.14-9.98"/>
                <path class="cls-3" d="M416.56,130.17c1.93,4.55,4.24,8.02,6.45,10.38"/>
                <path class="cls-3" d="M321.47,47.29c-5.04,5.96-6.73,10.88-6.73,10.88-7.93,3.1-13.08,5.85-12.07,7.72"/>
                <path class="cls-3" d="M415.82,45.11c-15.12-14.93-31.27-11.19-31.27-11.19,0,0-7.6-12.22-35.24-4.08"/>
                <path class="cls-3" d="M431.52,129.3c3.28,3.53,7.27,5.34,8.61,3.92,1.31-1.38-1.76-8.87-4.73-18.97"/>
                <path class="cls-3" d="M383.45,35.43s-5.36,5.23-7.99,15.3"/>
                <g>
                  <path class="cls-1" d="M365.25,55.69c-10.88,16.77-27.93,25.58-27.93,25.58"/>
                  <path class="cls-1" d="M353.8,61.97c-1.45,4.39-7.87,13.47-12.2,16.75"/>
                  <path class="cls-1" d="M332.8,61.52c-4.55,10.62-14.27,19.34-14.27,19.34"/>
                  <path class="cls-1" d="M330.89,71.19s-6.6,8.01-14.4,12.91"/>
                  <path class="cls-1" d="M314.17,69.09s-5.87,4.21-8.9,7.19"/>
                  <path class="cls-1" d="M305.66,64.57s5.17-2.9,8.52-4.09"/>
                  <path class="cls-1" d="M319.92,68.48s-8.89,3.28-11.21,4.79"/>
                  <path class="cls-1" d="M373.67,44.05s-6.94-2.97-13.88,2.54"/>
                  <path class="cls-1" d="M378.09,37.1s-4.41-3.22-11.56-1.02"/>
                  <path class="cls-1" d="M380.03,34.92s-9.72-6.9-22.76-1.81"/>
                  <path class="cls-1" d="M384.55,61.97c6.45,7.95,36.99,18.89,35.56,40.62-1.32,20.06,1.43,31.11,6.81,37.46"/>
                  <path class="cls-1" d="M420.04,103.67c.24,9.24,5.11,21.11,6.88,27.47"/>
                  <path class="cls-1" d="M411.95,111.88s-2.44,14.35,0,27.66"/>
                  <path class="cls-1" d="M405.74,121.56c-2.45,6.78-3.72,15.6-3.97,20.18"/>
                  <path class="cls-1" d="M406.35,128.44c-2.31,6.26-4.45,11.6-4.45,11.6"/>
                  <path class="cls-1" d="M400.68,82.28c4.29,2.31,11.27,4.82,14.43,9.65"/>
                  <path class="cls-1" d="M379.46,47.29c4.56-.69,13.23,2.02,18.7,11.18"/>
                  <path class="cls-1" d="M382.57,43.25c6.78-1.66,13.57,3.34,13.57,3.34"/>
                  <path class="cls-1" d="M383.85,40.66c3.7-1.53,8.41,0,8.41,0"/>
                  <path class="cls-1" d="M417.69,64.57c10.22,13.07,4.21,37.41,19.16,63.87"/>
                  <path class="cls-1" d="M417.69,55.69c6.46,6.28,8.37,19.55,8.37,39.49"/>
                </g>
                <path class="cls-3" d="M401.33,129.59c-1.56,6.96-2.06,13.11-1.59,16.25"/>
                <path class="cls-3" d="M407.43,111.88c-1.54,3.1-2.84,6.41-3.91,9.72"/>
              </g>
            </g>
            <g>
              <path class="cls-34" d="M409.81,96.11s3.18-5.01,8.43-4.6c5.83.45,10.64,8.36,4.77,17.57-4.87,7.64-13.82,7.47-15.59,2.79l2.39-15.77Z"/>
              <g>
                <path class="cls-6" d="M423.01,109.08c-4.87,7.64-13.82,7.47-15.59,2.79"/>
                <path class="cls-6" d="M409.81,96.11s3.18-5.01,8.43-4.6"/>
                <path class="cls-6" d="M421.9,101.99c-.85-5.59-8.97-9.52-13.23,3.61"/>
              </g>
            </g>
          </g>
        </g>
        <g>
          <path class="cls-18" d="M563.94,480.95c0,4.76-27.03,8.62-60.37,8.62s-60.37-3.86-60.37-8.62,27.03-8.62,60.37-8.62,60.37,3.86,60.37,8.62Z"/>
          <g>
            <g>
              <rect class="cls-33" x="499.81" y="7.13" width="7.55" height="445.55"/>
              <path class="cls-33" d="M556.85,20.74c0-7.5-6.06-13.61-13.5-13.61h-79.54c-7.44,0-13.5,6.1-13.5,13.61,0,5.25,3.61,9.65,8.45,10.86-.02-.14-.04-.27-.04-.42,0-1.07.62-1.99,1.52-2.43-3.89-.58-6.89-3.93-6.89-8.01,0-5.81,4.69-10.54,10.46-10.54h79.54c5.77,0,10.46,4.73,10.46,10.54,0,4.08-3,7.43-6.89,8.01.9.44,1.52,1.36,1.52,2.43,0,.14-.02.28-.04.42,4.84-1.2,8.45-5.61,8.45-10.86Z"/>
              <rect class="cls-46" x="498.19" y="435.3" width="10.78" height="34.77"/>
              <path class="cls-46" d="M502.05,459.21h3.06c1.28,0,2.32,1.04,2.32,2.32v8.55h-7.7v-8.55c0-1.28,1.04-2.32,2.32-2.32Z"/>
              <path class="cls-46" d="M475.09,470.08h-7.7v-7.1c0-1.24.97-2.26,2.19-2.33l28.61-1.44v5.05l-23.1.78v5.05Z"/>
              <path class="cls-46" d="M532.07,470.08h7.7v-7.1c0-1.24-.97-2.26-2.19-2.33l-28.61-1.44v5.05l23.1.78v5.05Z"/>
              <ellipse class="cls-30" cx="503.58" cy="471.63" rx="9.24" ry="9.31"/>
              <ellipse class="cls-13" cx="503.58" cy="471.63" rx="9.24" ry="9.31"/>
              <ellipse class="cls-30" cx="535.92" cy="471.63" rx="9.24" ry="9.31"/>
              <ellipse class="cls-13" cx="535.92" cy="471.63" rx="9.24" ry="9.31"/>
              <ellipse class="cls-30" cx="471.24" cy="471.63" rx="9.24" ry="9.31"/>
              <ellipse class="cls-13" cx="471.24" cy="471.63" rx="9.24" ry="9.31"/>
              <path class="cls-23" d="M509.74,471.63c0,3.43-2.76,6.21-6.16,6.21s-6.16-2.78-6.16-6.21,2.76-6.21,6.16-6.21,6.16,2.78,6.16,6.21Z"/>
              <path class="cls-23" d="M542.08,471.63c0,3.43-2.76,6.21-6.16,6.21s-6.16-2.78-6.16-6.21,2.76-6.21,6.16-6.21,6.16,2.78,6.16,6.21Z"/>
              <path class="cls-23" d="M477.4,471.63c0,3.43-2.76,6.21-6.16,6.21s-6.16-2.78-6.16-6.21,2.76-6.21,6.16-6.21,6.16,2.78,6.16,6.21Z"/>
              <g>
                <line class="cls-3" x1="499.81" y1="435.3" x2="499.81" y2="407.05"/>
                <line class="cls-3" x1="507.35" y1="420.09" x2="507.35" y2="435.3"/>
                <polyline class="cls-3" points="498.19 459.21 498.19 435.3 508.97 435.3 508.97 459.21"/>
                <path class="cls-1" d="M499.73,461.54c0-1.29,1.03-2.33,2.31-2.33h3.08c1.28,0,2.31,1.04,2.31,2.33v1.63"/>
                <line class="cls-3" x1="494.34" y1="459.4" x2="498.19" y2="459.21"/>
                <path class="cls-3" d="M467.38,462.98c0-1.24.97-2.26,2.19-2.33l10.89-.55"/>
                <line class="cls-3" x1="511.68" y1="459.35" x2="508.97" y2="459.21"/>
                <path class="cls-3" d="M539.77,462.98c0-1.24-.97-2.26-2.19-2.33"/>
                <path class="cls-3" d="M503.58,480.95c-5.1,0-9.24-4.17-9.24-9.31"/>
                <path class="cls-3" d="M503.58,462.32c5.1,0,9.24,4.17,9.24,9.31"/>
                <path class="cls-3" d="M526.68,471.63c0-5.14,4.14-9.31,9.24-9.31,1.88,0,3.62.56,5.08,1.53"/>
                <path class="cls-3" d="M545.16,471.63c0,5.14-4.14,9.31-9.24,9.31"/>
                <path class="cls-3" d="M461.99,471.63c0-5.14,4.14-9.31,9.24-9.31"/>
                <path class="cls-3" d="M480.48,471.63c0,5.14-4.14,9.31-9.24,9.31"/>
                <g>
                  <path class="cls-1" d="M503.58,477.84c-3.4,0-6.16-2.78-6.16-6.21"/>
                  <path class="cls-1" d="M503.58,465.42c3.4,0,6.16,2.78,6.16,6.21"/>
                  <path class="cls-1" d="M529.76,471.63c0-3.43,2.76-6.21,6.16-6.21"/>
                  <path class="cls-1" d="M542.08,471.63c0,3.43-2.76,6.21-6.16,6.21"/>
                  <path class="cls-1" d="M465.07,471.63c0-3.43,2.76-6.21,6.16-6.21"/>
                  <path class="cls-1" d="M477.4,471.63c0,3.43-2.76,6.21-6.16,6.21"/>
                </g>
                <line class="cls-3" x1="463.81" y1="10.2" x2="543.35" y2="10.2"/>
              </g>
            </g>
            <g>
              <rect class="cls-33" x="477.7" y="202.74" width="77.62" height="78.24" rx="3.25" ry="3.25"/>
              <path class="cls-14" d="M533.77,202.74h17.25v35.66c0,1.91-1.55,3.46-3.46,3.46h-10.32c-1.91,0-3.46-1.55-3.46-3.46v-35.66h0Z"/>
              <path class="cls-43" d="M538.3,233.17h1.29c.6,0,1.08.49,1.08,1.08v7.61h-3.45v-7.61c0-.6.49-1.08,1.08-1.08Z"/>
              <path class="cls-42" d="M545.2,233.17h1.29c.6,0,1.08.48,1.08,1.08v7.61h-3.45v-7.61c0-.6.49-1.08,1.08-1.08Z"/>
              <rect class="cls-46" x="490.64" y="207.09" width="25.87" height="30.43" rx="1.08" ry="1.08"/>
              <rect class="cls-46" x="533.77" y="246.59" width="17.25" height="29.67" rx="1.08" ry="1.08"/>
              <g class="cls-24">
                <path class="cls-46" d="M549.93,247.36c.18,0,.32.14.32.32v27.5c0,.18-.14.32-.32.32h-15.08c-.18,0-.32-.14-.32-.32v-27.5c0-.18.14-.32.32-.32h15.08M549.93,246.59h-15.08c-.6,0-1.08.48-1.08,1.08v27.5c0,.6.48,1.08,1.08,1.08h15.08c.6,0,1.08-.48,1.08-1.08v-27.5c0-.6-.48-1.08-1.08-1.08h0Z"/>
              </g>
              <g class="cls-24">
                <path class="cls-46" d="M515.43,207.85c.18,0,.32.14.32.32v28.26c0,.18-.14.32-.32.32h-23.71c-.18,0-.32-.14-.32-.32v-28.26c0-.18.14-.32.32-.32h23.71M515.43,207.09h-23.71c-.6,0-1.08.48-1.08,1.08v28.26c0,.6.48,1.08,1.08,1.08h23.71c.6,0,1.08-.48,1.08-1.08v-28.26c0-.6-.48-1.08-1.08-1.08h0Z"/>
              </g>
              <rect class="cls-14" x="490.21" y="245.78" width="26.74" height="31.3" rx="1.19" ry="1.19"/>
              <g>
                <path class="cls-30" d="M486.33,209.81c0,1.2-.97,2.17-2.16,2.17s-2.16-.97-2.16-2.17.97-2.17,2.16-2.17,2.16.97,2.16,2.17Z"/>
                <path class="cls-30" d="M525.14,209.81c0,1.2-.97,2.17-2.16,2.17s-2.16-.97-2.16-2.17.97-2.17,2.16-2.17,2.16.97,2.16,2.17Z"/>
                <path class="cls-30" d="M486.33,218.14c0,1.2-.97,2.17-2.16,2.17s-2.16-.97-2.16-2.17.97-2.17,2.16-2.17,2.16.97,2.16,2.17Z"/>
                <path class="cls-30" d="M525.14,218.14c0,1.2-.97,2.17-2.16,2.17s-2.16-.97-2.16-2.17.97-2.17,2.16-2.17,2.16.97,2.16,2.17Z"/>
                <path class="cls-30" d="M486.33,226.47c0,1.2-.97,2.17-2.16,2.17s-2.16-.97-2.16-2.17.97-2.17,2.16-2.17,2.16.97,2.16,2.17Z"/>
                <path class="cls-30" d="M525.14,226.47c0,1.2-.97,2.17-2.16,2.17s-2.16-.97-2.16-2.17.97-2.17,2.16-2.17,2.16.97,2.16,2.17Z"/>
                <path class="cls-30" d="M486.33,234.8c0,1.2-.97,2.17-2.16,2.17s-2.16-.97-2.16-2.17.97-2.17,2.16-2.17,2.16.97,2.16,2.17Z"/>
                <path class="cls-30" d="M525.14,234.8c0,1.2-.97,2.17-2.16,2.17s-2.16-.97-2.16-2.17.97-2.17,2.16-2.17,2.16.97,2.16,2.17Z"/>
              </g>
              <g>
                <rect class="cls-13" x="508.32" y="246.59" width="7.76" height="6.85" rx="1.08" ry="1.08"/>
                <rect class="cls-13" x="508.32" y="254.2" width="7.76" height="6.85" rx="1.08" ry="1.08"/>
                <rect class="cls-13" x="508.32" y="261.81" width="7.76" height="6.85" rx="1.08" ry="1.08"/>
                <rect class="cls-13" x="508.32" y="269.41" width="7.76" height="6.85" rx="1.08" ry="1.08"/>
                <rect class="cls-13" x="499.7" y="246.59" width="7.76" height="6.85" rx="1.08" ry="1.08"/>
                <rect class="cls-13" x="499.7" y="254.2" width="7.76" height="6.85" rx="1.08" ry="1.08"/>
                <rect class="cls-13" x="499.7" y="261.81" width="7.76" height="6.85" rx="1.08" ry="1.08"/>
                <rect class="cls-13" x="499.7" y="269.41" width="7.76" height="6.85" rx="1.08" ry="1.08"/>
                <rect class="cls-13" x="491.07" y="246.59" width="7.76" height="6.85" rx="1.08" ry="1.08"/>
                <rect class="cls-13" x="491.07" y="254.2" width="7.76" height="6.85" rx="1.08" ry="1.08"/>
                <rect class="cls-13" x="491.07" y="261.81" width="7.76" height="6.85" rx="1.08" ry="1.08"/>
                <rect class="cls-13" x="491.07" y="269.41" width="7.76" height="6.85" rx="1.08" ry="1.08"/>
              </g>
              <g>
                <path class="cls-3" d="M518.13,280.99h-37.19c-1.79,0-3.23-1.46-3.23-3.26v-21.73"/>
                <path class="cls-3" d="M555.33,264.69v13.04c0,1.8-1.45,3.26-3.23,3.26h-9.45"/>
                <path class="cls-3" d="M477.7,214.7v-8.69c0-1.8,1.45-3.26,3.23-3.26h71.15c1.79,0,3.23,1.46,3.23,3.26v13.04"/>
                <g>
                  <line class="cls-1" x1="529.45" y1="202.74" x2="529.45" y2="280.99"/>
                  <path class="cls-1" d="M551.01,228.82v9.56c0,1.92-1.54,3.48-3.45,3.48h-10.35c-1.91,0-3.45-1.56-3.45-3.48v-35.64"/>
                  <line class="cls-1" x1="551.01" y1="202.74" x2="551.01" y2="226.65"/>
                  <path class="cls-1" d="M490.64,220.31v-12.14c0-.6.48-1.09,1.08-1.09h11.86"/>
                  <path class="cls-1" d="M496.03,237.52h-4.31c-.6,0-1.08-.49-1.08-1.09v-12.14"/>
                  <path class="cls-1" d="M516.52,228.64v7.79c0,.6-.48,1.09-1.08,1.09h-9.7"/>
                  <path class="cls-1" d="M514.36,207.09h1.08c.6,0,1.08.49,1.08,1.09v7.79"/>
                  <path class="cls-1" d="M533.77,253.44v-5.76c0-.6.48-1.09,1.08-1.09h2.37"/>
                  <path class="cls-1" d="M540.23,276.26h-5.39c-.6,0-1.08-.49-1.08-1.09v-14.13"/>
                  <path class="cls-1" d="M551.01,272.84v2.34c0,.6-.48,1.09-1.08,1.09h-4.31"/>
                  <path class="cls-1" d="M547.56,246.59h2.37c.6,0,1.08.49,1.08,1.09v19.56"/>
                  <path class="cls-1" d="M507.46,277.07h-16.06c-.66,0-1.19-.54-1.19-1.2v-3.04"/>
                  <path class="cls-1" d="M516.95,269.41v6.47c0,.66-.53,1.2-1.19,1.2h-6.36"/>
                  <path class="cls-1" d="M499.7,245.78h16.06c.65,0,1.19.54,1.19,1.2v3.04"/>
                  <path class="cls-1" d="M490.21,253.44v-6.47c0-.66.53-1.2,1.19-1.2h6.36"/>
                  <g>
                    <path class="cls-1" d="M486.33,209.81c0,1.2-.97,2.17-2.16,2.17s-2.16-.97-2.16-2.17"/>
                    <path class="cls-1" d="M525.14,209.81c0,1.2-.97,2.17-2.16,2.17s-2.16-.97-2.16-2.17"/>
                    <path class="cls-1" d="M486.33,218.14c0,1.2-.97,2.17-2.16,2.17s-2.16-.97-2.16-2.17"/>
                    <path class="cls-1" d="M525.14,218.14c0,1.2-.97,2.17-2.16,2.17s-2.16-.97-2.16-2.17"/>
                    <path class="cls-1" d="M486.33,226.47c0,1.2-.97,2.17-2.16,2.17s-2.16-.97-2.16-2.17"/>
                    <path class="cls-1" d="M525.14,226.47c0,1.2-.97,2.17-2.16,2.17s-2.16-.97-2.16-2.17"/>
                    <path class="cls-1" d="M486.33,234.8c0,1.2-.97,2.17-2.16,2.17s-2.16-.97-2.16-2.17"/>
                    <path class="cls-1" d="M525.14,234.8c0,1.2-.97,2.17-2.16,2.17s-2.16-.97-2.16-2.17"/>
                  </g>
                  <g>
                    <path class="cls-1" d="M540.67,237.52v-3.26c0-.6-.48-1.09-1.08-1.09h-1.29c-.6,0-1.08.49-1.08,1.09v3.26"/>
                    <path class="cls-1" d="M547.56,237.52v-3.26c0-.6-.48-1.09-1.08-1.09h-1.29c-.6,0-1.08.49-1.08,1.09v3.26"/>
                  </g>
                </g>
              </g>
            </g>
            <g>
              <path class="cls-5" d="M461.41,110.77c0,20.18-2.59,85.45,42.17,85.45,25.87,0,35.36,13.51,35.36,36.77"/>
              <path class="cls-5" d="M545.74,110.77c0,33.25,23.15,43.14,13.92,63.37-8.89,19.5-13.83,5.74-13.83,58.84"/>
            </g>
            <g>
              <path class="cls-32" d="M482.97,26.01h-43.12c-2.38,0-4.31,1.95-4.31,4.35v53.8c0,4.11,2.86,7.66,6.85,8.51l13.64,2.89v8.69c0,1.2.97,2.17,2.16,2.17h6.47c1.19,0,2.16-.97,2.16-2.17v-8.69l13.64-2.89c3.99-.85,6.85-4.4,6.85-8.51V30.35c0-2.4-1.93-4.35-4.31-4.35ZM461.41,33.9c-1.49,0-2.7-1.22-2.7-2.72s1.21-2.72,2.7-2.72,2.7,1.22,2.7,2.72-1.21,2.72-2.7,2.72Z"/>
              <path class="cls-39" d="M459.83,102.59h3.17v-9.26c0-.51.36-.96.86-1.06l14.49-3.08c2.99-.64,5.14-3.3,5.14-6.38v-44.27c0-1.2-.97-2.17-2.16-2.17h-39.83c-1.19,0-2.16.97-2.16,2.17v44.27c0,3.08,2.14,5.75,5.14,6.38l14.49,3.08c.5.11.86.55.86,1.06v9.26Z"/>
              <path class="cls-43" d="M458.83,106.42h5.17v7.61c0,.6-.49,1.08-1.08,1.08h-3.01c-.6,0-1.08-.49-1.08-1.08v-7.61h0Z"/>
              <g>
                <path class="cls-3" d="M448.34,93.92l7.69,1.63v8.69c0,1.2.97,2.17,2.16,2.17h6.47c1.19,0,2.16-.97,2.16-2.17v-8.69l13.64-2.89c3.99-.85,6.85-4.4,6.85-8.51v-10.33"/>
                <path class="cls-3" d="M435.54,52.09v32.07c0,4.11,2.86,7.66,6.85,8.51"/>
                <path class="cls-1" d="M478.35,89.19c2.99-.64,5.14-3.3,5.14-6.38v-22.54"/>
                <path class="cls-1" d="M439.34,77.66v5.15c0,3.08,2.14,5.75,5.14,6.38l14.49,3.08c.5.11.86.55.86,1.06v9.26h3.17v-9.26c0-.51.36-.96.86-1.06l11.48-2.44"/>
                <path class="cls-3" d="M464,106.42v7.61c0,.6-.48,1.09-1.08,1.09h-3.02c-.6,0-1.08-.49-1.08-1.09v-7.61"/>
              </g>
              <path class="cls-31" d="M441.48,40.21c-.55,3.01,0,21.97,0,26.63,0,8.59,10.99-23.83,10.01-26.63-.76-2.17-9.59-2.3-10.01,0Z"/>
            </g>
            <g>
              <path class="cls-32" d="M567.31,26.01h-43.12c-2.38,0-4.31,1.95-4.31,4.35v53.8c0,4.11,2.86,7.66,6.85,8.51l13.64,2.89v8.69c0,1.2.97,2.17,2.16,2.17h6.47c1.19,0,2.16-.97,2.16-2.17v-8.69l13.64-2.89c3.99-.85,6.85-4.4,6.85-8.51V30.35c0-2.4-1.93-4.35-4.31-4.35ZM545.74,33.9c-1.49,0-2.7-1.22-2.7-2.72s1.21-2.72,2.7-2.72,2.7,1.22,2.7,2.72-1.21,2.72-2.7,2.72Z"/>
              <path class="cls-37" d="M544.16,102.59h3.17v-9.26c0-.51.36-.96.86-1.06l14.49-3.08c2.99-.64,5.14-3.3,5.14-6.38v-44.27c0-1.2-.97-2.17-2.16-2.17h-39.83c-1.19,0-2.16.97-2.16,2.17v44.27c0,3.08,2.14,5.75,5.14,6.38l14.49,3.08c.5.11.86.55.86,1.06v9.26Z"/>
              <path class="cls-42" d="M543.16,106.42h5.17v7.61c0,.6-.49,1.08-1.08,1.08h-3.01c-.6,0-1.08-.49-1.08-1.08v-7.61h0Z"/>
              <g>
                <path class="cls-3" d="M532.67,93.92l7.69,1.63v8.69c0,1.2.97,2.17,2.16,2.17h6.47c1.19,0,2.16-.97,2.16-2.17v-8.69l13.64-2.89c3.99-.85,6.85-4.4,6.85-8.51v-10.33"/>
                <path class="cls-3" d="M519.87,52.09v32.07c0,4.11,2.86,7.66,6.85,8.51"/>
                <path class="cls-1" d="M562.68,89.19c2.99-.64,5.14-3.3,5.14-6.38v-22.54"/>
                <path class="cls-1" d="M523.67,77.66v5.15c0,3.08,2.14,5.75,5.14,6.38l14.49,3.08c.5.11.86.55.86,1.06v9.26h3.17v-9.26c0-.51.36-.96.86-1.06l11.48-2.44"/>
                <path class="cls-3" d="M548.33,106.42v7.61c0,.6-.48,1.09-1.08,1.09h-3.02c-.6,0-1.08-.49-1.08-1.09v-7.61"/>
              </g>
              <path class="cls-31" d="M525.81,40.21c-.55,3.01,0,21.97,0,26.63,0,8.59,10.99-23.83,10.01-26.63-.76-2.17-9.59-2.3-10.01,0Z"/>
            </g>
            <path class="cls-33" d="M458.72,31.18c0,.14.02.28.04.42.85.21,1.74.34,2.65.34,5.07,0,9.19-4.15,9.19-9.26,0-4.25-3.43-7.72-7.65-7.72-.84,0-1.52.69-1.52,1.53s.68,1.53,1.52,1.53c2.54,0,4.61,2.09,4.61,4.65,0,3.42-2.76,6.19-6.14,6.19-.4,0-.79-.06-1.17-.12-.9.44-1.52,1.36-1.52,2.43Z"/>
            <path class="cls-33" d="M546.92,28.75c-.39.06-.77.12-1.17.12-3.39,0-6.15-2.78-6.15-6.19,0-2.56,2.07-4.65,4.61-4.65.84,0,1.52-.69,1.52-1.53s-.68-1.53-1.52-1.53c-4.22,0-7.66,3.46-7.66,7.72,0,5.11,4.12,9.26,9.19,9.26.92,0,1.8-.12,2.65-.34.02-.14.04-.27.04-.42,0-1.07-.62-1.99-1.52-2.43Z"/>
            <g>
              <path class="cls-3" d="M461.41,33.9c-1.49,0-2.7-1.22-2.7-2.72s1.21-2.72,2.7-2.72"/>
              <path class="cls-3" d="M545.74,28.47c1.49,0,2.7,1.22,2.7,2.72s-1.21,2.72-2.7,2.72"/>
            </g>
          </g>
        </g>
        <g>
          <path class="cls-34" d="M506.02,163.97l-3.2.19s-3.91,9.48-14.38,12.31l-2.99-11.25s2.76-4.28,13.22-8.66c.65-.27,1.36-.38,2.06-.3,1.57.16,4.68.57,8.22,1.52,1.13.3,2.09,1.06,2.66,2.09.78,1.41,1.94,3.48,2.78,4.93.46.79.14,1.8-.69,2.17l-.81.36c-1.67.74-3.63.33-4.88-1.01-1.2-1.29-1.99-2.34-1.99-2.34Z"/>
          <path class="cls-34" d="M516.57,180.26l-.23-.85-.23-.85c-.27-1.02-1.23-1.69-2.27-1.59.15-.06.3-.12.44-.18,1-.42,1.53-1.51,1.25-2.57l-.22-.83-.22-.83c-.27-1-1.19-1.65-2.2-1.59.31-.12.61-.24.87-.35,1-.42,1.53-1.51,1.25-2.57l-.22-.83-.22-.83c-.27-1-1.19-1.65-2.2-1.59.31-.12.61-.24.87-.35,1-.42,1.53-1.51,1.25-2.57l-.22-.83-.22-.83c-.28-1.05-1.28-1.74-2.36-1.6-.96.13-2.19.33-3.47.68-1.32.36-2.47.79-3.35,1.15-1,.42-1.52,1.51-1.24,2.57l.22.84.22.83c.26.99,1.17,1.63,2.17,1.59-.3.12-.59.23-.85.34-1,.42-1.52,1.51-1.24,2.57l.22.84.22.83c.26.99,1.17,1.63,2.17,1.59-.3.12-.59.23-.85.34-1,.42-1.52,1.51-1.24,2.57l.22.84.22.83c.28,1.05,1.28,1.74,2.35,1.6.13-.02.28-.04.42-.06-.93.44-1.42,1.5-1.15,2.51l.23.86.23.86c.28,1.04,1.26,1.73,2.32,1.6.82-.1,1.86-.28,2.97-.58,1.08-.29,2.07-.67,2.85-1,.98-.42,1.5-1.51,1.22-2.56Z"/>
          <g>
            <path class="cls-3" d="M508.95,157.77c1.13.3,2.09,1.06,2.66,2.09.78,1.41,1.94,3.48,2.78,4.93.46.79.14,1.8-.69,2.17l-.81.36c-1.67.74-3.63.33-4.88-1.01-1.2-1.29-1.99-2.34-1.99-2.34l-3.2.19s-3.91,9.48-14.38,12.31"/>
            <path class="cls-3" d="M503.92,164.09l.16.62c.26.99,1.17,1.63,2.17,1.59-.3.12-.59.23-.85.34-1,.42-1.52,1.51-1.24,2.57l.22.84.22.83c.26.99,1.17,1.63,2.17,1.59-.3.12-.59.23-.85.34-1,.42-1.52,1.51-1.24,2.57l.22.84.22.83c.28,1.05,1.28,1.74,2.35,1.6.13-.02.28-.04.42-.06-.93.44-1.42,1.5-1.15,2.51l.23.86.23.86c.28,1.04,1.26,1.73,2.32,1.6.82-.1,1.86-.28,2.97-.58"/>
          </g>
        </g>
        <g>
          <ellipse class="cls-18" cx="188.51" cy="489.64" rx="120.75" ry="10.35"/>
          <g>
            <g>
              <path class="cls-33" d="M209.21,427.34h0c-2.81-.86-4.4-3.86-3.54-6.7l19.45-64.42c2.63-8.73,10.48-14.59,19.53-14.59h44.88v5.3c0,3-2.41,5.43-5.39,5.43h-39.49c-4.33,0-8.08,2.8-9.34,6.98l-19.45,64.42c-.86,2.84-3.83,4.44-6.64,3.57Z"/>
              <ellipse class="cls-8" cx="209.21" cy="427.34" rx="8.62" ry="8.69"/>
              <rect class="cls-8" x="199.41" y="330.91" width="120.75" height="10.87" rx="4.33" ry="4.33"/>
              <rect class="cls-10" x="199.41" y="330.91" width="120.75" height="10.87" rx="4.33" ry="4.33"/>
              <rect class="cls-25" x="285.66" y="330.91" width="34.5" height="10.87" rx="4.33" ry="4.33"/>
              <g>
                <line class="cls-3" x1="211.39" y1="401.7" x2="225.11" y2="356.22"/>
                <line class="cls-3" x1="206.09" y1="419.23" x2="210.39" y2="404.99"/>
                <line class="cls-3" x1="225.11" y1="393.1" x2="216.28" y2="422.36"/>
                <path class="cls-3" d="M289.52,341.78v5.15c0,3-2.41,5.43-5.39,5.43h-21.56"/>
                <line class="cls-3" x1="228.47" y1="341.78" x2="206.91" y2="341.78"/>
                <line class="cls-3" x1="289.97" y1="341.78" x2="232.78" y2="341.78"/>
                <path class="cls-3" d="M320.15,337.43c0,2.4-1.93,4.35-4.31,4.35h-25.87c-2.38,0-4.31-1.95-4.31-4.35v-2.17c0-2.4,1.93-4.35,4.31-4.35h12.94"/>
                <path class="cls-3" d="M209.21,436.03c-4.76,0-8.62-3.89-8.62-8.69"/>
                <path class="cls-3" d="M203.92,420.47c1.46-1.15,3.3-1.83,5.29-1.83,4.76,0,8.62,3.89,8.62,8.69"/>
              </g>
            </g>
            <g>
              <path class="cls-33" d="M286.52,459.21h-10.35c-.71,0-1.29.58-1.29,1.3v15.75c0,.72-.58,1.3-1.29,1.3h-4.44c-.45,0-.88-.24-1.11-.63l-12.56-21.1h32.34v2.07c0,.72-.58,1.3-1.29,1.3Z"/>
              <ellipse class="cls-30" cx="271.64" cy="474.43" rx="15.09" ry="15.21"/>
              <ellipse class="cls-20" cx="271.64" cy="474.43" rx="15.09" ry="15.21"/>
              <ellipse class="cls-8" cx="271.64" cy="474.43" rx="9.7" ry="9.78"/>
              <path class="cls-33" d="M274.87,474.43c0-1.8-1.45-3.26-3.23-3.26s-3.23,1.46-3.23,3.26,1.45,3.26,3.23,3.26,3.23-1.46,3.23-3.26Z"/>
              <g>
                <path class="cls-3" d="M267.73,489.12c8.05,2.17,16.33-2.64,18.49-10.76"/>
                <path class="cls-3" d="M275.55,459.73c-8.05-2.17-16.33,2.64-18.49,10.76"/>
                <path class="cls-3" d="M261.94,474.43c0,5.4,4.34,9.78,9.7,9.78"/>
                <path class="cls-3" d="M281.34,474.43c0-5.4-4.34-9.78-9.7-9.78"/>
                <path class="cls-3" d="M268.4,474.43c0,1.8,1.45,3.26,3.23,3.26s3.23-1.46,3.23-3.26"/>
              </g>
            </g>
            <g>
              <path class="cls-33" d="M224.13,459.21h-10.35c-.71,0-1.29.58-1.29,1.3v15.75c0,.72-.58,1.3-1.29,1.3h-4.44c-.45,0-.88-.24-1.11-.63l-12.56-21.1h32.34v2.07c0,.72-.58,1.3-1.29,1.3Z"/>
              <ellipse class="cls-30" cx="209.25" cy="474.43" rx="15.09" ry="15.21"/>
              <ellipse class="cls-20" cx="209.25" cy="474.43" rx="15.09" ry="15.21"/>
              <ellipse class="cls-8" cx="209.25" cy="474.43" rx="9.7" ry="9.78"/>
              <path class="cls-33" d="M212.48,474.43c0-1.8-1.45-3.26-3.23-3.26s-3.23,1.46-3.23,3.26,1.45,3.26,3.23,3.26,3.23-1.46,3.23-3.26Z"/>
              <g>
                <path class="cls-3" d="M205.34,489.12c8.05,2.17,16.33-2.64,18.49-10.76"/>
                <path class="cls-3" d="M213.15,459.73c-8.05-2.17-16.33,2.64-18.49,10.76"/>
                <path class="cls-3" d="M199.55,474.43c0,5.4,4.34,9.78,9.7,9.78"/>
                <path class="cls-3" d="M218.95,474.43c0-5.4-4.34-9.78-9.7-9.78"/>
                <path class="cls-3" d="M206.01,474.43c0,1.8,1.45,3.26,3.23,3.26s3.23-1.46,3.23-3.26"/>
              </g>
            </g>
            <g>
              <ellipse class="cls-30" cx="176.53" cy="474.43" rx="15.09" ry="15.21"/>
              <ellipse class="cls-14" cx="176.53" cy="474.43" rx="15.09" ry="15.21"/>
              <ellipse class="cls-8" cx="176.53" cy="474.43" rx="9.7" ry="9.78"/>
              <path class="cls-33" d="M191.41,459.21h-10.35c-.71,0-1.29.58-1.29,1.3v15.75c0,.72-.58,1.3-1.29,1.3h-4.44c-.45,0-.88-.24-1.11-.63l-12.56-21.1h32.34v2.07c0,.72-.58,1.3-1.29,1.3Z"/>
              <g>
                <path class="cls-3" d="M189.6,482.03c4.17-7.28,1.69-16.58-5.52-20.78"/>
                <path class="cls-3" d="M163.46,466.82c-4.17,7.28-1.69,16.58,5.52,20.78"/>
                <path class="cls-3" d="M185.32,478.56c2.26-4.9.16-10.71-4.69-13"/>
                <path class="cls-3" d="M167.74,470.29c-2.26,4.9-.16,10.71,4.69,13"/>
                <path class="cls-3" d="M192.7,457.91c0,.72-.58,1.3-1.29,1.3h-10.35c-.71,0-1.29.58-1.29,1.3v15.75c0,.72-.58,1.3-1.29,1.3h-4.44c-.45,0-.88-.24-1.11-.63l-12.56-21.1"/>
                <path class="cls-3" d="M174.37,474.43c0,1.2.97,2.17,2.16,2.17s2.16-.97,2.16-2.17-.97-2.17-2.16-2.17"/>
              </g>
            </g>
            <g>
              <ellipse class="cls-30" cx="114.14" cy="474.43" rx="15.09" ry="15.21"/>
              <ellipse class="cls-14" cx="114.14" cy="474.43" rx="15.09" ry="15.21"/>
              <ellipse class="cls-8" cx="114.14" cy="474.43" rx="9.7" ry="9.78"/>
              <path class="cls-33" d="M129.02,459.21h-10.35c-.71,0-1.29.58-1.29,1.3v15.75c0,.72-.58,1.3-1.29,1.3h-4.44c-.45,0-.88-.24-1.11-.63l-12.56-21.1h32.34v2.07c0,.72-.58,1.3-1.29,1.3Z"/>
              <g>
                <path class="cls-3" d="M127.21,482.03c4.17-7.28,1.69-16.58-5.52-20.78"/>
                <path class="cls-3" d="M101.07,466.82c-4.17,7.28-1.69,16.58,5.52,20.78"/>
                <path class="cls-3" d="M122.93,478.56c2.26-4.9.16-10.71-4.69-13"/>
                <path class="cls-3" d="M105.35,470.29c-2.26,4.9-.16,10.71,4.69,13"/>
                <path class="cls-3" d="M130.31,457.91c0,.72-.58,1.3-1.29,1.3h-10.35c-.71,0-1.29.58-1.29,1.3v15.75c0,.72-.58,1.3-1.29,1.3h-4.44c-.45,0-.88-.24-1.11-.63l-12.56-21.1"/>
                <path class="cls-3" d="M111.98,474.43c0,1.2.97,2.17,2.16,2.17s2.16-.97,2.16-2.17-.97-2.17-2.16-2.17"/>
              </g>
            </g>
            <g>
              <path class="cls-7" d="M205.57,441.45l-19.27-186.92c-.68-6.64-6.24-11.69-12.87-11.69h-94.73c-7.67,0-13.66,6.69-12.87,14.39l19.27,186.92c.68,6.64,6.24,11.69,12.87,11.69h94.73c7.67,0,13.66-6.69,12.87-14.39Z"/>
              <path class="cls-25" d="M205.57,441.45l-19.27-186.92c-.68-6.64-6.24-11.69-12.87-11.69h-94.73c-7.67,0-13.66,6.69-12.87,14.39l19.27,186.92c.68,6.64,6.24,11.69,12.87,11.69h94.73c7.67,0,13.66-6.69,12.87-14.39Z"/>
              <path class="cls-7" d="M227.13,441.45l-19.27-186.92c-.68-6.64-6.24-11.69-12.87-11.69h-94.73c-7.67,0-13.66,6.69-12.87,14.39l19.27,186.92c.68,6.64,6.24,11.69,12.87,11.69h94.73c7.67,0,13.66-6.69,12.87-14.39Z"/>
              <line class="cls-3" x1="98.62" y1="366.08" x2="100.68" y2="386.07"/>
              <path class="cls-3" d="M104.58,242.84h-4.31c-7.67,0-13.66,6.69-12.87,14.39l9.52,92.32"/>
              <path class="cls-3" d="M208.56,261.27l-.69-6.74c-.68-6.64-6.24-11.69-12.87-11.69h-4.31"/>
              <line class="cls-3" x1="221.44" y1="386.29" x2="219.42" y2="366.62"/>
            </g>
            <g>
              <path class="cls-7" d="M294.19,448.24l-5.33-32.25c-.35-2.1-2.15-3.63-4.25-3.63H108.17c-2.56,0-4.55,2.23-4.29,4.8l2.78,26.98c.68,6.64,6.24,11.69,12.87,11.69h168.28c4,0,7.04-3.62,6.38-7.59Z"/>
              <path class="cls-25" d="M294.19,448.24l-5.33-32.25c-.35-2.1-2.15-3.63-4.25-3.63h-60.25c-2.66,0-4.69,2.41-4.25,5.06l5.45,32.96c.52,3.14,3.22,5.45,6.38,5.45h55.88c4,0,7.04-3.62,6.38-7.59Z"/>
              <g>
                <path class="cls-3" d="M289.34,418.92l-.48-2.92c-.35-2.1-2.15-3.63-4.25-3.63h-4.82"/>
                <path class="cls-3" d="M220.04,455.84h67.77c4,0,7.04-3.62,6.38-7.59l-4.13-24.98"/>
                <path class="cls-3" d="M106.66,444.14c.68,6.64,6.24,11.69,12.87,11.69h15.09"/>
                <path class="cls-3" d="M108.17,412.37c-2.56,0-4.55,2.23-4.29,4.8l2.35,22.79"/>
                <path class="cls-3" d="M223.94,440.65l1.61,9.74c.52,3.14,3.22,5.45,6.38,5.45"/>
                <path class="cls-3" d="M224.35,412.37c-2.66,0-4.69,2.41-4.25,5.06l3.12,18.87"/>
              </g>
            </g>
            <g>
              <path class="cls-7" d="M56.87,170.29l6.27,60.86c.68,6.64,6.24,11.69,12.87,11.69h94.73c7.67,0,13.66-6.69,12.87-14.39l-6.27-60.86c-.68-6.64-6.24-11.69-12.87-11.69h-94.73c-7.67,0-13.66,6.69-12.87,14.39Z"/>
              <path class="cls-25" d="M56.87,170.29l6.27,60.86c.68,6.64,6.24,11.69,12.87,11.69h94.73c7.67,0,13.66-6.69,12.87-14.39l-6.27-60.86c-.68-6.64-6.24-11.69-12.87-11.69h-94.73c-7.67,0-13.66,6.69-12.87,14.39Z"/>
              <path class="cls-7" d="M78.44,170.29l6.27,60.86c.68,6.64,6.24,11.69,12.87,11.69h94.73c7.67,0,13.66-6.69,12.87-14.39l-6.27-60.86c-.68-6.64-6.24-11.69-12.87-11.69h-94.73c-7.67,0-13.66,6.69-12.87,14.39Z"/>
              <g>
                <path class="cls-3" d="M170.75,242.84h21.56c7.67,0,13.66-6.69,12.87-14.39"/>
                <path class="cls-3" d="M81.52,200.21l3.19,30.93c.68,6.64,6.24,11.69,12.87,11.69h66.7"/>
                <path class="cls-3" d="M91.3,155.9c-7.67,0-13.66,6.69-12.87,14.39l2.21,21.4"/>
                <line class="cls-3" x1="84.71" y1="242.84" x2="116.2" y2="242.84"/>
                <path class="cls-3" d="M60.83,208.69l2.31,22.45c.68,6.64,6.24,11.69,12.87,11.69h4.38"/>
              </g>
            </g>
            <g>
              <path class="cls-7" d="M271.16,386.29H117.44c-8.95,0-15.94,7.81-15.01,16.79l.56,5.4c.23,2.21,2.08,3.9,4.29,3.9h175.89c2.66,0,4.69-2.41,4.25-5.06l-1.37-8.31c-1.21-7.34-7.51-12.71-14.89-12.71Z"/>
              <path class="cls-25" d="M271.16,386.29h-40.94c-7.99,0-14.08,7.24-12.76,15.18l1.2,7.26c.35,2.1,2.15,3.63,4.25,3.63h60.25c2.66,0,4.69-2.41,4.25-5.06l-1.37-8.31c-1.21-7.34-7.51-12.71-14.89-12.71Z"/>
              <g>
                <path class="cls-3" d="M136.38,412.37h146.79c2.66,0,4.69-2.41,4.25-5.06l-1.37-8.31"/>
                <line class="cls-3" x1="133.15" y1="412.37" x2="134.23" y2="412.37"/>
                <path class="cls-3" d="M237.09,386.29h-119.65c-8.95,0-15.94,7.81-15.01,16.79l.56,5.4c.23,2.21,2.08,3.9,4.29,3.9h21.56"/>
                <path class="cls-3" d="M217.46,401.47l1.2,7.26c.35,2.1,2.15,3.63,4.25,3.63"/>
              </g>
            </g>
          </g>
          <g>
            <g>
              <path class="cls-38" d="M291.24,317.56l.43-.31s-5.57-5.4-7.67-6.8c-1.92-1.28-8.18-3.96-8.18-3.96,0,0-6.81-2.03-13.86-2.86-1.57-.18-3.16-.06-4.69.34l-32.98,8.65c-8.05-8.54-15.6-16.51-20.3-21.36-5.56-5.74-9.4-7.69-14.91-10.47v32.6h2.16l19.09,20.21c2.04,2.15,4.86,3.37,7.81,3.37h1.69c1.53,0,3.04-.33,4.43-.96l32.78-14.89c3.4,4.71,9.31,6.38,9.31,6.38,3.82.68,9.78,3.37,9.78,3.37l.06-1.11c.11-2.06-.95-3.99-2.72-5.02-.41-.24-.86-.51-1.31-.79,1.47.52,2.85,1.05,3.65,1.45,1.19.61,3.61,2.27,5.43,3.57,1.44,1.02,3.35,1.06,4.83.09l.67-.44s-4.93-4.58-7.73-6.77c1.36.72,4.09,2.6,6.06,4,1.4.99,3.24,1.06,4.71.17l.83-.5s-1.48-1.34-3.31-2.95c1.18.34,2.47.17,3.53-.53l.67-.44s-1.7-1.58-3.67-3.33c1.17.25,2.43.02,3.44-.73Z"/>
              <path class="cls-22" d="M220.26,308.35c-6.49-6.87-12.37-13.06-16.28-17.1-5.56-5.74-9.4-7.69-14.91-10.47v32.6h2.16l13.77,14.57c8.97-8.22,13.62-16.36,15.26-19.61Z"/>
              <g>
                <path class="cls-3" d="M286.05,329.07l.67-.44s-6.39-5.94-8.75-7.52c-2.17-1.45-9.18-4.61-9.18-4.61"/>
                <path class="cls-3" d="M237.68,309.11l-13.4,3.51c-1.12-1.18-2.22-2.36-3.31-3.51"/>
                <path class="cls-3" d="M266.32,327.5c3.82.68,9.78,3.37,9.78,3.37l.06-1.11c.11-2.06-.95-3.99-2.72-5.02-2.03-1.18-4.65-2.86-6.24-4.55"/>
                <path class="cls-3" d="M290.8,322.06l.67-.44s-6.39-5.94-8.75-7.52c-2.17-1.45-9.18-4.61-9.18-4.61"/>
                <path class="cls-3" d="M289.75,326.03l.83-.5s-6.93-6.29-9.48-8c-2.33-1.56-9.84-5.05-9.84-5.05"/>
                <path class="cls-3" d="M224.28,312.62s-4.34,4.53-4.34,12.59"/>
              </g>
            </g>
            <path class="cls-37" d="M219.94,306.1c-6.92-7.32-15.55-15.24-15.55-15.24-5.65-5.83-9.6-7.83-15.06-10.58l-.83-.42v34.11h1.4l11.82,12.51c8.41-7.24,15.37-16.19,18.22-20.37Z"/>
            <g>
              <path class="cls-39" d="M129.79,348.2c-.34,4.25-.7,8.77-1.01,12.33-2.2,25.74,23.45,25.74,23.45,25.74h14.29l28.07-14.07c0-6.58-.29-14.98-.74-24h-64.05Z"/>
              <path class="cls-19" d="M186.89,356.33c3.04,0,5.44-.25,7.3-.56-.1-2.46-.21-4.99-.34-7.58h-64.05c-.34,4.25-.7,8.77-1.01,12.33-1.04,12.22,4.19,18.63,9.97,22,4.72-.88,9.98-2.78,15-6.57,11.35-8.57,17.95-19.63,33.13-19.63Z"/>
            </g>
            <g>
              <path class="cls-39" d="M240.49,376.35c0,3.62-2.23,6.89-5.6,8.14-4.75,1.77-7.62,1.77-7.62,1.77h-60.79c8.8-24.2,27.65-31.83,27.65-31.83,16.02,0,27.34,1.64,31.44,2.35,1.11.19,2.18.47,3.25.83,1.45.5,3.76,1.31,6.16,2.24,3.32,1.3,5.51,4.52,5.51,8.11v8.38Z"/>
              <path class="cls-19" d="M198.89,354.49c-1.54-.03-3.11-.05-4.75-.05,0,0-1.31.53-3.38,1.74,5.02-.39,7.59-1.44,8.13-1.69Z"/>
              <g>
                <path class="cls-3" d="M194.14,354.44c3.61,0,6.98.08,10.08.22"/>
                <path class="cls-3" d="M234.89,384.49c-4.75,1.77-7.62,1.77-7.62,1.77h-60.79"/>
              </g>
            </g>
            <g>
              <path class="cls-39" d="M226.23,376.35c0,3.62-2.23,6.89-5.6,8.14-4.75,1.77-7.62,1.77-7.62,1.77h-60.79c0-21.36,10.4-31.83,10.4-31.83,16.72,0,39.97,1.79,47.74,2.43,1.82.15,3.6.53,5.32,1.13,1.39.49,3.18,1.13,5.03,1.85,3.32,1.3,5.51,4.52,5.51,8.11v8.38Z"/>
              <path class="cls-19" d="M153.75,375.96c11.35-8.57,17.95-19.63,33.13-19.63,3.24,0,5.77-.28,7.67-.62-9.9-.64-22.05-1.27-31.92-1.27,0,0-7.2,7.29-9.61,22.05.24-.17.49-.34.73-.53Z"/>
              <g>
                <path class="cls-3" d="M226.23,373.4v2.95c0,3.62-2.23,6.89-5.6,8.14-4.75,1.77-7.62,1.77-7.62,1.77"/>
                <path class="cls-3" d="M162.63,354.44c16.72,0,39.97,1.79,47.74,2.43,1.82.15,3.6.53,5.32,1.13,1.39.49,3.18,1.13,5.03,1.85,3.32,1.3,5.51,4.52,5.51,8.11v2.17"/>
                <path class="cls-3" d="M206.08,359.85s-4.45-.01-6.04,1.76"/>
              </g>
            </g>
            <path class="cls-38" d="M190.75,301.35c-.94-12.11-1.68-20.56-1.68-20.56l-15.46-7.81v-14.06h-21.21v14.06l-17.21,7.81-1.66,20.56h57.21Z"/>
            <g>
              <path class="cls-37" d="M199.01,354.44c0-4.71-2.45-10.59-2.45-10.59-1.51-30.22-6.95-63.43-6.95-63.43l-6.74-3.41c-.2-.1-.41-.17-.63-.2l-1.53-.25,1.65.83c-1.02,2.37-3.67,6.81-9.31,6.81h-13.32c-7.9,0-10.98-2.98-16.87-7.52l-8.2,3.72s-6.01,50.52-8.6,74.04c0,0-4.06,10.73-2.8,24.59,0,0,16.24,4.44,30.5-6.33,11.35-8.57,17.97-18.12,33.13-17.46,9.59.42,12.12-.81,12.12-.81Z"/>
              <g>
                <path class="cls-3" d="M195.34,326.57c-1.33-15-3.2-29.04-4.43-37.6"/>
                <path class="cls-3" d="M164.98,363.44c6.12-4.93,12.3-8.61,21.91-8.19,9.59.42,12.12-.81,12.12-.81,0-4.71-2.45-10.59-2.45-10.59-.11-2.27-.25-4.56-.4-6.85"/>
                <path class="cls-3" d="M153.75,372.7c3.18-2.4,5.99-4.88,8.72-7.19"/>
                <path class="cls-3" d="M181.77,278.6c-1.31,2.41-3.95,5.6-8.73,5.6h-13.32c-7.9,0-10.98-2.98-16.87-7.52"/>
                <path class="cls-1" d="M147.04,339.28s31.64,14.43,46.96,4.57"/>
              </g>
            </g>
            <g>
              <path class="cls-33" d="M145.06,346.57c-4.24,0-9.69-7.37-8.24-16.51,1.3-8.24,8.27-7.06,10.23,0v16.51h-1.99Z"/>
              <path class="cls-33" d="M177.9,293.04s.8-8.86,4.39-16.18c4.94-10.07,12.05-13.16,14.82-11.47,1.87,1.14,2.21,8.4-2.61,15.39-5.35,7.77-13.36,12.25-13.36,12.25h-3.24Z"/>
              <path class="cls-33" d="M167.1,293.04s-.85-8.86-4.67-16.18c-5.26-10.07-12.83-13.16-15.77-11.47-1.99,1.14-2.36,8.4,2.78,15.39,5.7,7.77,14.22,12.25,14.22,12.25h3.45Z"/>
              <path class="cls-33" d="M160.23,357.5c-9.86-2.06-21.68-8.22-15.51-35.71,6.17-27.48,16.39-32.82,26.86-32.82,7.49,0,18,4.75,17.48,20.69-.8,24.41,3.79,31.28-.91,40.07-3.74,7-14.13,10.64-27.93,7.77Z"/>
              <g>
                <path class="cls-21" d="M182.77,314.11c0,1.84,1.25,3.33,2.79,3.33s2.79-1.49,2.79-3.33-1.25-3.33-2.79-3.33-2.79,1.49-2.79,3.33Z"/>
                <path class="cls-29" d="M183.47,309.11c0,1.24-.46,2.25-1.57,2.25s-1.57-1.01-1.57-2.25.46-2.25,1.57-2.25,1.57,1.01,1.57,2.25Z"/>
                <path class="cls-21" d="M169.09,314.11c0,1.84-1.48,3.33-3.31,3.33s-3.31-1.49-3.31-3.33,1.48-3.33,3.31-3.33,3.31,1.49,3.31,3.33Z"/>
                <path class="cls-29" d="M168.26,309.11c0,1.24.54,2.25,1.86,2.25s1.86-1.01,1.86-2.25-.54-2.25-1.86-2.25-1.86,1.01-1.86,2.25Z"/>
                <path class="cls-36" d="M177.9,314.91c.49,0,1.15-.62,1.15-1.25s-.29-.8-1.15-.8h0c-.95,0-1.36.18-1.36.8,0,.69.87,1.25,1.36,1.25Z"/>
                <g>
                  <g>
                    <path class="cls-1" d="M177.9,314.91c0,1.84-2.82,3.58-5.39,1.98"/>
                    <path class="cls-1" d="M177.9,314.91c.42,1.69,2.27,3.58,3.88,1.98"/>
                  </g>
                  <path class="cls-1" d="M176.53,313.66c0,.69.87,1.25,1.36,1.25s1.15-.62,1.15-1.25"/>
                </g>
              </g>
              <path class="cls-33" d="M154.3,354.44c2.19,5.55,4.63,8.61,7.31,8.31,2.8-.31,3.08-3.94,2.18-8.31h-9.5Z"/>
              <path class="cls-33" d="M173.71,354.44c2.19,5.55,4.63,8.61,7.31,8.31,2.8-.31,3.08-3.94,2.18-8.31h-9.5Z"/>
              <path class="cls-33" d="M178.5,325.62c3.86,8.46,10.59,13.16,13.15,11.31,2.51-1.82-.99-6.53-3.4-11.31h-9.75Z"/>
              <g>
                <path class="cls-3" d="M141.28,324.31c.92-.04,1.87.28,2.75.92"/>
                <path class="cls-3" d="M145.06,346.57c-2.77,0-6.05-3.14-7.59-7.87"/>
                <path class="cls-3" d="M187.54,288.41c-3.49,3-6.4,4.63-6.4,4.63"/>
                <path class="cls-3" d="M177.9,293.04s.8-8.86,4.39-16.18"/>
                <path class="cls-3" d="M156.44,288.08c3.89,3.21,7.22,4.96,7.22,4.96"/>
                <path class="cls-3" d="M167.1,293.04s-.57-5.91-2.85-12.06"/>
                <path class="cls-3" d="M175.98,289.5c.77.19,1.54.43,2.3.73"/>
                <path class="cls-3" d="M166.56,289.46c.55-.12,1.11-.21,1.67-.28"/>
                <path class="cls-3" d="M156.38,295.25c1.52-1.6,3.1-2.82,4.73-3.74"/>
                <path class="cls-3" d="M154.92,355.92c-8.17-3.34-15.27-11.52-10.19-34.13"/>
                <path class="cls-3" d="M175.31,357.95c-3.26.61-6.98.71-11.06.21"/>
                <path class="cls-3" d="M184.43,354.1c-.36.28-.74.55-1.13.81"/>
                <path class="cls-3" d="M190.2,337.4c.19,3.18.16,5.79-.47,8.31"/>
                <path class="cls-3" d="M189.1,321.89c.09,2.17.21,4.14.34,5.96"/>
                <path class="cls-3" d="M182.19,292.39c2.19,1.64,4.1,3.96,5.35,7.12"/>
                <path class="cls-3" d="M161.61,362.75c2.8-.31,3.08-3.94,2.18-8.31"/>
                <path class="cls-3" d="M154.3,354.44c.88,2.23,1.79,4.05,2.75,5.42"/>
                <path class="cls-3" d="M183.65,358.9c.07-1.29-.11-2.83-.44-4.47"/>
                <path class="cls-3" d="M173.71,354.44c2.19,5.55,4.63,8.61,7.31,8.31"/>
                <path class="cls-3" d="M178.5,325.66c3.27,7.17,8.59,11.63,11.7,11.71.56.01,1.05-.12,1.45-.4,2.51-1.82-.99-6.53-3.4-11.31"/>
              </g>
            </g>
            <g>
              <path class="cls-38" d="M168.35,266.79c7.02,0,19.04-1.4,26.23-6.67,8.89-6.53,8.89-18.97,8.89-45.67s-16-38.73-38.72-39.61c-23.24-.9-44.62,11.25-44.62,39.61,0,26.7,9.67,40.38,18.31,45.67,10.43,6.38,19.17,6.67,29.91,6.67Z"/>
              <path class="cls-22" d="M183.38,197.29c4.55,4.43,11.12,9.72,20.01,14.34-1.14-23.82-16.78-35.95-38.64-36.79-23.24-.9-44.62,11.25-44.62,39.61,0,12.79,2.23,22.57,5.5,29.9.2-.1,4.57-2.21,3.85-6.95h-1.94v-12.83s6.33-5.81,15.58-12.07c8.52-5.77,17.32-10.41,23.79-15.41,2.68-.21,5.49-.35,8.37-.35s5.65.22,8.1.54Z"/>
              <g>
                <path class="cls-3" d="M170.21,266.76c5.88-.19,14.13-1.29,20.54-4.37"/>
                <path class="cls-3" d="M142.7,262.44c8.64,4.13,16.4,4.35,25.65,4.35"/>
                <path class="cls-3" d="M120.14,214.45c0,17.62,4.21,29.57,9.56,37.18"/>
                <path class="cls-3" d="M203.41,228.24c.06-4.12.06-8.69.06-13.79,0-5.9-.85-11.14-2.42-15.71"/>
              </g>
            </g>
            <g>
              <path class="cls-38" d="M127.54,224.58s-2.59-4.07-6.86-3.74c-4.75.37-8.65,6.8-3.88,14.3,3.96,6.21,11.25,6.08,12.68,2.27l-1.94-12.83Z"/>
              <g>
                <path class="cls-3" d="M127.54,224.58s-2.59-4.07-6.86-3.74c-4.75.37-8.65,6.8-3.88,14.3,3.96,6.21,11.25,6.08,12.68,2.27"/>
                <path class="cls-3" d="M117.71,229.36c.69-4.55,7.3-7.75,10.77,2.94"/>
              </g>
            </g>
            <g>
              <path class="cls-39" d="M145.02,197.62s14.05-4.12,30.26-4.12c12.31,0,20.98,3.76,20.98,3.76v-13.65h-51.25v14.01Z"/>
              <path class="cls-39" d="M205.91,201.58c0-9.92-5.05-23.28-24.99-30.78-15.94-6-39.05-5.93-54.85,8.52-16.4,15.01-11.78,34.85-11.78,34.85,0,0,5.05-6.7,17.67-11.19,12.62-4.49,33.64-10.26,43.32-18.32,0,0,20.11,15.69,30.63,16.92Z"/>
              <path class="cls-39" d="M203.44,225.62c.03-3.42.03-7.13.03-11.17,0-1.86-.08-3.64-.25-5.37,0,0-18.34-10.26-27.94-21.29-6.6,8.82-28.79,17.01-45.8,30.89-11.34,9.26-11.78,17.68-11.78,17.68,1.83,2.21,4.12,3.35,6.22,3.62.53,1.54,1.1,3,1.71,4.36,0,0-5.07-.02-9.93-4-2.43-1.99-3.96-4.89-4.4-8.02-.52-3.64-1.01-9.4-.34-15.84.32-3.05,1.62-5.91,3.8-8.06,3.44-3.41,10.15-8.3,22.39-11.96,17.7-5.3,28.66-10.21,33.72-12.73,2.09-1.04,4.55-.87,6.48.45,3.12,2.12,8.33,5.45,14.41,8.51,9.96,5,14.83,6.02,14.83,6.02,0,0,3.17,4.13,3.62,10.41.67,9.54-4.68,15.02-6.77,16.47Z"/>
              <g>
                <path class="cls-3" d="M114.32,200.54c-.64,3.56-.7,6.73-.57,9.11"/>
                <path class="cls-3" d="M126.08,179.32c-6.75,6.18-9.94,13.17-11.36,19.27"/>
                <path class="cls-3" d="M205.75,198.52c-.31-2.92-1.08-6.03-2.52-9.13"/>
                <path class="cls-3" d="M129.48,218.69c-11.34,9.26-11.78,17.68-11.78,17.68,1.83,2.21,4.12,3.35,6.22,3.62.53,1.54,1.1,3,1.71,4.36,0,0-5.07-.02-9.93-4"/>
                <path class="cls-3" d="M183.17,195.34c-2.88-2.39-5.63-4.95-7.89-7.54-1.54,2.06-3.93,4.09-6.91,6.16"/>
                <path class="cls-3" d="M201.54,197.1c3.38,1.29,5.04,1.64,5.04,1.64,0,0,3.17,4.13,3.62,10.41.67,9.54-4.68,15.02-6.77,16.47.03-3.42.03-7.13.03-11.17,0-1.86-.08-3.64-.25-5.37,0,0-2.88-1.61-6.95-4.24"/>
                <path class="cls-3" d="M137.14,196.49c17.7-5.3,28.66-10.21,33.72-12.73,2.09-1.04,4.55-.87,6.48.45,3.12,2.12,8.33,5.45,14.41,8.51"/>
                <path class="cls-3" d="M110.95,216.52c.32-3.06,1.63-5.92,3.8-8.07,3.14-3.11,8.99-7.45,19.28-10.96"/>
                <path class="cls-3" d="M175.28,187.8c-2.68-3.23-5.93-3.3-5.93-3.3"/>
                <g>
                  <path class="cls-1" d="M197.84,187.8s-11.86-.39-20.5-3.59"/>
                  <path class="cls-1" d="M120.8,194.36c15.27,0,31.19-2.43,38.27-5.41"/>
                  <path class="cls-1" d="M170.75,188.51c-20.55,16.35-39.13,14.55-50.61,26.46"/>
                  <path class="cls-1" d="M163.98,189.79c-5.55,5.42-16.12,11.53-20.18,12.99"/>
                  <path class="cls-1" d="M180.81,191.06c10.87,9.16,22.66,9.16,26.67,15.52"/>
                </g>
                <path class="cls-3" d="M203.22,209.09c4.59,2.54,4.59,5.09,4.59,5.09"/>
                <path class="cls-3" d="M117.71,236.37c-.25,2.25,0,3.53,0,3.53"/>
              </g>
            </g>
            <g>
              <ellipse class="cls-17" cx="196.11" cy="234.08" rx="5.92" ry="7.07"/>
              <path class="cls-3" d="M164.9,244.36s4.07-2.12,8.79-2.12,6.3,2.12,6.3,2.12"/>
              <path class="cls-3" d="M175.28,231.43s1.73,2.17,0,4.35"/>
              <path class="cls-2" d="M189.09,221.17c1.95-.93,2.66-2.48,2.66-2.48"/>
              <path class="cls-4" d="M193.53,211.62c-1.53,1.87-6.99,2.8-10.35,0"/>
              <path class="cls-29" d="M191.68,223.47c0,2.64-.97,4.77-3.33,4.77s-3.33-2.14-3.33-4.77.97-4.77,3.33-4.77,3.33,2.14,3.33,4.77Z"/>
              <ellipse class="cls-17" cx="145.02" cy="234.08" rx="7.02" ry="7.07"/>
              <path class="cls-2" d="M153.35,221.17c-2.31-.93-3.16-2.48-3.16-2.48"/>
              <path class="cls-4" d="M148.09,211.62c1.82,1.87,8.29,2.8,12.28,0"/>
              <path class="cls-29" d="M150.28,223.47c0,2.64,1.15,4.77,3.95,4.77s3.95-2.14,3.95-4.77-1.15-4.77-3.95-4.77-3.95,2.14-3.95,4.77Z"/>
            </g>
            <g>
              <path class="cls-39" d="M206.08,361.24c-17.01,0-43.32,10.47-59.47,12.84l-8.81-.09-17.64,28.62c7.1,1.26,20.78-7.6,20.78-7.6l72.07-8.73c0-14.36-6.93-25.03-6.93-25.03Z"/>
              <path class="cls-19" d="M170.13,368.4c-8.65,2.4-16.93,4.72-23.52,5.68l-8.81-.09-17.64,28.62c7.1,1.26,20.78-7.6,20.78-7.6l30.66-3.72c-2.57-9.03-1.93-18.76-1.47-22.89Z"/>
              <g>
                <line class="cls-3" x1="200.04" y1="387.84" x2="213.02" y2="386.27"/>
                <line class="cls-3" x1="140.94" y1="395" x2="174.66" y2="390.92"/>
                <path class="cls-3" d="M187.44,363.87c-14.23,3.27-29.87,8.6-40.83,10.21"/>
                <path class="cls-3" d="M206.08,361.24c-5.04,0-10.9.92-17.07,2.28"/>
              </g>
            </g>
            <g>
              <path class="cls-33" d="M168.67,393.19c.4-.05.75-.28.96-.63l.66-1.11-1.3.16c-1.88-9.77-.66-19.16-.01-22.89l1.84-.51-.66-.51c-.54-.41-1.24-.55-1.89-.37-8.06,2.24-15.65,4.31-21.75,5.22l-8.7-.09c-.5-.01-1.03.27-1.31.72l-17.63,28.62c-.27.43-.3.97-.1,1.43.21.47.63.8,1.13.89.54.09,1.11.14,1.7.14,7.2,0,17.89-6.53,19.87-7.77l27.2-3.3Z"/>
              <g>
                <path class="cls-3" d="M160.19,369.52c-5.01,1.32-9.67,2.42-13.69,3.02l-5.04-.05"/>
                <path class="cls-3" d="M168.44,372.49c.18-1.56.37-2.84.53-3.77l1.84-.51-.66-.51c-.54-.41-1.24-.55-1.89-.37"/>
                <path class="cls-3" d="M163.61,393.8l5.05-.61c.4-.05.75-.28.96-.63l.66-1.11-1.3.16c-1.22-6.35-1.13-12.54-.74-17.12"/>
              </g>
            </g>
            <g>
              <path class="cls-38" d="M185.86,342.57c0-.59-.47-1.08-1.06-1.09l-8.7-.16,7.35-.69c.55-.05.98-.52.98-1.08v-1.34c0-.58-.45-1.06-1.02-1.09l-14.46-.73s-3.3-1.14-6.03-4.03c0,0-7.4.72-11.55,4.19-9.66-3.81-20.25-10.45-20.25-10.45l6.24-12.71h2.16c2.81-20.6-4.31-32.6-4.31-32.6-8.74,3.81-13.79,16.8-26.49,42.6-.88,1.8-1.34,3.78-1.34,5.79v2.28c0,4.89,2.71,9.36,7.03,11.6,8.16,4.25,22.39,10.78,36.98,13.4,8.35,1.84,17.59.7,17.59.7l11.97-2.76c.49-.11.84-.55.84-1.06v-1.16c0-.62-.52-1.12-1.14-1.09l-5.7.32,8.63-1.65c.51-.1.88-.55.88-1.07v-1.33c0-.62-.51-1.11-1.13-1.09l-6.36.29,7.99-1.18c.53-.08.92-.54.92-1.08v-1.73Z"/>
              <path class="cls-22" d="M131.11,326.1l6.24-12.71h2.16c2.81-20.6-4.31-32.6-4.31-32.6-7.78,3.4-12.66,14.1-22.61,34.64,3.02,2.38,9.71,7.2,18.53,10.67Z"/>
              <path class="cls-26" d="M151.36,336.49s2.82-3.59,11.24-4.92c.5-.08,1.01-.11,1.51-.1,2.34.05,9.49.19,12.12.19l-.27,1.55c-.36,2.11-1.92,3.81-3.97,4.33-3.15.81-6.95,1.36-6.95,1.36,0,0-5.57,7.66-13.68,7.66v-10.07Z"/>
              <g>
                <path class="cls-3" d="M137.35,313.39l-6.24,12.71s3.06,1.92,7.4,4.29"/>
                <path class="cls-3" d="M184.43,339.55c0,.56-.42,1.03-.98,1.08l-14.5,1.37"/>
                <path class="cls-3" d="M164.25,333.61c2.37,1.98,4.7,2.78,4.7,2.78l7.29.37"/>
                <path class="cls-3" d="M168.95,352.53l14.6-2.79c.51-.1.88-.55.88-1.07"/>
                <path class="cls-3" d="M168.95,347.73l15.99-2.35c.53-.08.92-.54.92-1.08"/>
                <path class="cls-3" d="M151.36,336.49s2.82-3.59,11.24-4.92c.5-.08,1.01-.11,1.51-.1,2.34.05,9.49.19,12.12.19l-.27,1.55"/>
                <path class="cls-3" d="M131.11,326.1s-8.26-2.75-15.5.89"/>
              </g>
            </g>
            <g>
              <path class="cls-37" d="M140,313.96c3.32-21.62-4.58-33.9-4.58-33.9l-.46.2c-5.99,2.61-11.22,9.12-17.23,21.09,0,0-4.47,6.88-6.44,10.95,0,0,10.07,8.34,22.18,12.44l5.3-10.79h1.22Z"/>
              <g>
                <path class="cls-3" d="M126.69,321.95c2.15,1.03,4.43,1.99,6.8,2.79l5.3-10.79h1.22"/>
                <path class="cls-3" d="M113.62,308.04c-.87,1.5-1.72,3.02-2.32,4.27,0,0,1.94,1.61,5.15,3.76"/>
                <path class="cls-1" d="M140.36,311.36c1.81-15.5-2.15-25.78-4.02-29.61"/>
              </g>
            </g>
            <g>
              <path class="cls-33" d="M154.3,325.66c1.9,7.06,7.23,13.68,10.54,12.99,3.43-.72.3-9.08-.69-12.99h-9.84Z"/>
              <g>
                <path class="cls-3" d="M154.3,325.66c1.9,7.06,7.23,13.68,10.54,12.99,3.43-.72.3-9.08-.69-12.99"/>
                <path class="cls-3" d="M153.17,326.57s.93,1.47,1.82,1.25"/>
              </g>
            </g>
          </g>
          <g>
            <path class="cls-33" d="M94.09,427.97h0c-2.81-.86-4.4-3.86-3.54-6.7l19.45-64.42c2.63-8.73,10.48-14.59,19.53-14.59h62.13v5.3c0,3-2.41,5.43-5.39,5.43h-56.74c-4.33,0-8.08,2.8-9.34,6.98l-19.45,64.42c-.86,2.84-3.83,4.44-6.64,3.57Z"/>
            <ellipse class="cls-8" cx="94.09" cy="427.97" rx="8.62" ry="8.69"/>
            <ellipse class="cls-9" cx="94.09" cy="427.97" rx="8.62" ry="8.69"/>
            <rect class="cls-8" x="84.28" y="331.55" width="146.62" height="10.87" rx="4.33" ry="4.33"/>
            <rect class="cls-9" x="84.28" y="331.55" width="146.62" height="10.87" rx="4.33" ry="4.33"/>
            <rect class="cls-25" x="196.41" y="331.55" width="34.5" height="10.87" rx="4.33" ry="4.33"/>
            <g>
              <line class="cls-3" x1="96.26" y1="402.34" x2="109.99" y2="356.85"/>
              <line class="cls-3" x1="90.97" y1="419.87" x2="95.27" y2="405.62"/>
              <line class="cls-3" x1="109.99" y1="393.73" x2="101.16" y2="422.99"/>
              <path class="cls-3" d="M191.65,342.41v5.15c0,3-2.41,5.43-5.39,5.43h-21.56"/>
              <line class="cls-3" x1="113.34" y1="342.41" x2="91.78" y2="342.41"/>
              <line class="cls-3" x1="200.72" y1="342.41" x2="117.66" y2="342.41"/>
              <path class="cls-3" d="M230.9,338.07c0,2.4-1.93,4.35-4.31,4.35h-25.87c-2.38,0-4.31-1.95-4.31-4.35v-2.17c0-2.4,1.93-4.35,4.31-4.35h12.94"/>
              <path class="cls-3" d="M94.09,436.67c-4.76,0-8.62-3.89-8.62-8.69"/>
              <path class="cls-3" d="M88.79,421.11c1.46-1.15,3.3-1.83,5.29-1.83,4.76,0,8.62,3.89,8.62,8.69"/>
            </g>
          </g>
        </g>
      </g>
    </g>
  </g>
</svg>