<?xml version="1.0" encoding="UTF-8"?>
<svg id="Layer_6" data-name="Layer 6" xmlns="http://www.w3.org/2000/svg" viewBox="0 0 100.28 100.28">
  <defs>
    <style>
      .cls-1 {
        fill: #2970cb;
      }

      .cls-2 {
        fill: #596c80;
      }

      .cls-3 {
        fill: #fe7375;
      }

      .cls-4 {
        fill: #f1f1f1;
      }

      .cls-5 {
        fill: #f1b66d;
      }

      .cls-6 {
        fill: #596c7f;
      }
    </style>
  </defs>
  <path class="cls-1" d="M48.19,23.97c1.09-.48,2.15-.48,3.24,0,2.8.03,6.34-.35,8.96.49,5.06,1.61,6.12,6.78,7.83,11.16l.21.35c-2.7,2.88-1.1,7.34,2.91,7.48l.31.37c.58,2.91,4.13,6.99,1.46,9.66-2.04,2.04-5.28.9-6.07-1.71l-6.45-15.4v24.43s-.18.47-.18.47c-3.58,1.53-3.1,7.17.69,8.07l.25.43,1.92,19.74c.48,4.72-5.48,6.59-7.54,2.2l-4.31-29.57-2.93-.02-.13.13-4.05,28.36c-.34,3.29-4.35,4.82-6.72,2.44-1.82-1.82-.73-4.24-.86-6.49l.27-.43c3.91-.77,4.53-6.5.86-8.07l-.18-.47,1.53-16.69v-24.53s-6.65,15.78-6.65,15.78c-1.79,4.23-7.85,2.32-6.81-2.23l6.78-16.79.32-.36c3.28.12,5.63-3.57,3.91-6.44l.15-.46c2.94-2.63,7.56-1.87,11.26-1.91Z"/>
  <path class="cls-5" d="M51.43,23.97c-1.08-.01-2.17-.01-3.24,0-5.17-1.5-8.57-6.15-7.11-11.6,2.07-7.75,12.77-9.16,16.76-2.14,3.26,5.74-.2,12.3-6.4,13.74Z"/>
  <path class="cls-2" d="M86.11,2.64c1.1-.19,1.69.15,2.31,1.04l8.66,17.29c.53,1.61-.39,2.85-2.04,3.01-5.42.52-11.68-.42-17.19,0-1.49-.16-2.4-1.61-1.85-3.01,3.15-5.24,5.32-11.94,8.53-17.04.41-.65.76-1.14,1.58-1.29Z"/>
  <path class="cls-2" d="M6.01,13.28l2.82-9.87c.78-1.13,2.37-1.02,2.85.29l1.97,13.21c.28.04.25-.33.32-.53.49-1.43,2.16-8.14,2.78-8.77.53-.53,1.51-.5,2.09-.06.88.67,1.96,6.84,2.63,8.21l1.23-1.72c.17-.18.79-.76.96-.76h4.87v3.05h-3.82c-.6,1-2.34,4.31-3.38,4.54-2.8.62-2.27-5.05-3.68-6.45l-2.96,10.12c-.56,1.36-2.49,1.28-2.91-.14l-1.96-13.02-1.29,4.14c-.07.25-.73.82-.9.82H2.57v-3.05h3.44Z"/>
  <rect class="cls-6" x="5.63" y="77.4" width="6.11" height="13.74"/>
  <polygon class="cls-2" points="92.65 78.93 92.65 88.85 97.23 88.85 91.22 96.87 85.02 88.85 89.6 88.85 89.6 78.93 92.65 78.93"/>
  <polygon class="cls-2" points="85.02 87.33 80.44 87.33 80.44 97.25 77.39 97.25 77.39 87.33 72.81 87.33 78.82 79.31 85.02 87.33"/>
  <rect class="cls-6" x="2.57" y="94.2" width="22.9" height="3.05"/>
  <path class="cls-3" d="M71.66,43.81c-3.5.26-6.11-3.47-4.47-6.66.09-.17.96-1.48,1.03-1.55.15-.14,1.95-.86,2.24-.91,6.35-1.01,7.33,8.65,1.19,9.11Z"/>
  <path class="cls-3" d="M36.93,25.87c2.27,3.21-.56,7.67-4.39,7.25-2.23-.25-4.06-2.48-4.02-4.68.08-4.35,5.89-6.13,8.41-2.57Z"/>
  <path class="cls-3" d="M61.35,69.77c-4.54-.65-5.17-7.53-.76-8.97,2.05-.67,4.37.24,5.47,2.07,2,3.34-.95,7.44-4.7,6.9Z"/>
  <path class="cls-3" d="M37.69,77.59c4.48,1.46,3.76,8.45-.95,8.97-3.82.42-6.58-3.84-4.36-7.13,1.15-1.69,3.35-2.49,5.31-1.84Z"/>
  <rect class="cls-6" x="16.32" y="85.04" width="6.11" height="6.11"/>
  <rect class="cls-4" x="85.02" y="8.7" width="3.05" height="7.63"/>
  <rect class="cls-4" x="85.02" y="17.86" width="3.05" height="3.05"/>
</svg>