<?xml version="1.0" encoding="UTF-8"?>
<svg id="Layer_6" data-name="Layer 6" xmlns="http://www.w3.org/2000/svg" viewBox="0 0 100.28 100.28">
  <defs>
    <style>
      .cls-1 {
        fill: #fac3ab;
      }

      .cls-2 {
        fill: #e5e6e7;
      }

      .cls-3 {
        fill: #3e3a62;
      }

      .cls-4 {
        fill: #498292;
      }

      .cls-5 {
        fill: #322e3e;
      }

      .cls-6 {
        fill: #322f3e;
      }

      .cls-7 {
        fill: #52527b;
      }

      .cls-8 {
        fill: #302d3d;
      }

      .cls-9 {
        fill: #6cf4ce;
      }

      .cls-10 {
        fill: #332f3e;
      }

      .cls-11 {
        fill: #fac3aa;
      }

      .cls-12 {
        fill: #c9e8fe;
      }

      .cls-13 {
        fill: #67b7fd;
      }

      .cls-14 {
        fill: #fa9b88;
      }

      .cls-15 {
        fill: #fa9c88;
      }

      .cls-16 {
        fill: #d0b2b7;
      }

      .cls-17 {
        fill: #34303f;
      }

      .cls-18 {
        fill: #4977db;
      }

      .cls-19 {
        fill: #3e3962;
      }

      .cls-20 {
        fill: #85c1fe;
      }

      .cls-21 {
        fill: #67b7fe;
      }

      .cls-22 {
        fill: #fcfcfd;
      }

      .cls-23 {
        fill: #fabaa2;
      }

      .cls-24 {
        fill: #ddb7b2;
      }

      .cls-25 {
        fill: #fa9b87;
      }

      .cls-26 {
        fill: #b52a53;
      }

      .cls-27 {
        fill: #49d192;
      }

      .cls-28 {
        fill: #fefefe;
      }

      .cls-29 {
        fill: #49d193;
      }

      .cls-30 {
        fill: #332e3e;
      }

      .cls-31 {
        fill: #84c1fe;
      }

      .cls-32 {
        fill: #f64867;
      }
    </style>
  </defs>
  <path class="cls-21" d="M20.53,69.92c.39.24.46.57.41,1,.09,1.08.06,2.91-.41,3.79l-.06.42-6.13,1.81c-6.09,2.08-8.2,7.24-8.28,13.24-.02,1.47.17,3.37,1.83,3.85l.17.44c.54,1.16.34,3.25-.19,4.41H.97c.03-.89-.05-1.8,0-2.68.51-9.34.85-19.27,10.93-23.29.91-.36,3.69-.89,4.12-1.24.81-.65.37-2.34.47-3.27l.35-.24c1.09.58,2.26,1.06,3.47,1.35l.2.42Z"/>
  <path class="cls-11" d="M48.52,34.64l.37-.46c5.05-.83,10.67,2.66,11.68,7.75h.22c.44-.17,1.11-.14,1.53,0,.93.1,1.58.66,1.92,1.53.14.44.15.9,0,1.34-.58,1.5-1.78,1.68-3.26,1.53,0,4.21-2.57,8.56-6.52,10.16-.13.68-2.23,1.4-2.59.77-.02.15-.06.37-.17.38-.41.05-2.97.05-3.15-.13-.06-.06-.1-.15-.13-.26l-.08.25c-.69-.1-1.34-.22-1.97-.36l.04,2.94c-.04.41-.24.48-.58.24-.1-1.2.1-2.5-.03-3.71-1.86-1.22-3.44-2.25-4.65-4.17s-1.69-3.91-1.84-6.12c.12-.94.18-1.89.17-2.88l.21-.19c-.24-2.17.95-4.32,2.45-5.84.65-.66,1.84-1.83,2.73-1.45.73.1,1.39.54,2,1.33.67-.62,1.01-1.53,1.21-2.4l.44-.27Z"/>
  <path class="cls-11" d="M12.09,55.93l.06-.43c1.42-.27,2.22-1.23,2.95-2.41,1.71-1.75,5.51-1.84,7.85-1.76,1.05.04,4.72.3,5.14,1.03.08.14-.06.3-.23.32l-2.92.18c-.45,1.44.07,1.64,1.62,1.63.79,0,2.37-.23,1.34-1.2l.11-.43c-.16-.96.94-.4,1.35.17.71,1.22,1.66,2.02,2.85,2.42l.21.48c.19,0,.32.07.38.19.07.83.14,1.66.19,2.49.75-.13,1.26,0,1.53.38-.23.42-1.43.08-1.53.19-.1.11-.28,2.32-.44,2.92-.66,2.46-2.38,4.94-4.55,6.29-.33.93-2.71,1.76-3.67,1.86l-.35-.33-.25.41c-.58.16-2.99.22-3.2-.41-.99-.12-3.15-.99-4.03-1.53-2.14-1.32-3.9-3.87-4.55-6.29-.16-.6-.34-2.81-.44-2.92-.11-.11-1.3.23-1.53-.19.17-.55,1.33-.52,1.53,0,.07-.95.13-1.91.19-2.88-.26-.14-.13-.2.38-.19Z"/>
  <path class="cls-11" d="M67.5,50.56l.38.17v2.7s3.56,0,3.56,0l.27.38c1.26.93,2.81.84,4.22.19.39-.78,2.44-.7,3.35-.64.72-.1,1.07.17,1.06.83.15-.05.3-.08.45-.03,1.35.36,2.15.54,3.57-.16.16-.47.62-.67,1.36-.59.85-.07,2.49-.14,3.05.4,0,.15-.03.55,0,.58.15.14,1.5-.24,1.73.19-.27.33-.72.48-1.34.47v3.54c.58-.08.96.06,1.15.4-.23.42-1.43.08-1.53.19-.07.08-.15,1.73-.25,2.15-.61,2.76-2.06,4.93-4.37,6.56-.37.26-1.47.65-1.62.88-.29.48,0,3.36-.09,4.22-.31.31-.52.2-.58-.23l.02-3.29c-2.51.71-5.23.85-7.73.02l-.34-.54c-3.28-1.33-5.86-5.07-6.32-8.54-.04-.28.05-1.2,0-1.24-.13-.13-1.46.24-1.73-.19.16-.31.6-.47,1.35-.5v-3.37c-.58-.05-1.03-.23-1.35-.53l1.72-.19c-.32-1.3-.19-2.69-.19-4.03.27-.25.37-.15.19.19Z"/>
  <path class="cls-2" d="M57.72,60.91c6.58,1.72,9.61,5.89,11.22,12.28.08.32-.02.68.47.57l.64,3.65-.26.76c1.56,5.34,2.66,10.94,3.07,16.49l.41.14c.18,1.28.36,2.51.52,3.69h2.82s.46.39.46.39c.69-.52,1.43-.52,2.11,0,3.43-.54,6.93-.55,10.35,0,.7-.38,1.41-.38,2.11,0,2.48-.53,5-.52,7.48,0-.2.32-.73.19-1.05.2-11.59.14-23.21.04-34.8,0-.17-.05-.16-.12,0-.19.23-.41.76-.54,1.61-.38l-.37-3.18.29-.65.16-.42c1.46-.38,2.5-1.76,2.53-3.26-1.04-6.19-2.17-12.36-3.37-18.5-.25-1.23-.6-1.64-1.05-1.21l-.38-.2c.45-2.75-.31-4.15-2.27-4.22l-.37-.29c-.3-1.87-.76-3.85-2.3-5.13l-.04-.51Z"/>
  <path class="cls-2" d="M42.38,60.91v.55c-1.27,1.52-2.02,3.32-2.24,5.38-1.66.64-2.37,1.78-2.18,3.55l-.37.29c-.31.14-.47,0-.5-.43-1.1,2.43-1.81,5.02-2.14,7.77-.58,4.3-1.32,8.56-2.21,12.78-.09,1.6,1.02,3.57,2.82,3.33l.3.32.35.25-.56,3.69c.76-.04,1.27.12,1.55.47.17.05.16.12,0,.19-3.56,0-7.15-.19-10.74-.19-.27-1.06.01-3.03.77-3.83-.26-1.49,0-2.92.77-4.22l-.32-.37c.25-1.88.53-3.75.85-5.61l.43-.16c-.05-.21-.09-.42-.1-.64-.07-.96,1.01-6.23,1.46-7.06.11-.19.23-.37.37-.55-.37-1.21-.07-3.09.77-4.03,1.36-5.78,5.16-9.95,10.93-11.5Z"/>
  <path class="cls-7" d="M54.84,30.62c.02.3-.23.43-.77.38l-.53.22c-1.66-.47-3.51-.6-5.17-.25.43,1.04,1.1,2.91.14,3.67-.19,1.22-.71,2.4-1.63,3.26-.61-.7-1.36-1.27-2.01-1.91l-.46.07-1.83-1.91c-2.13,1.93-2.55,4.64-2.83,7.34l-.25.24c-.27.44-.58.33-.58-.19-.54-.22-1.73-1.29-1.73-1.82v-14.09h12.56c.16,0,1.44.48,1.7.6,1.6.75,3.18,2.58,3.38,4.39Z"/>
  <path class="cls-27" d="M99.13,98.88c-2.49,0-4.99,0-7.48,0l-.42-.57-.6-3.55.26-.67c2.25-1.16,2.27-2.68,2-4.92-.82-6.69-3.74-11.34-11.14-11.6l-.44-.35c-.44-1.16.35-2.6.96-3.64-.44-.33-.34-.52.19-.58.24.08.84-.03,1.22.02,6.2.93,11.32,5.12,12.91,11.25,1.21,4.67,1.53,9.87,2.55,14.61Z"/>
  <path class="cls-27" d="M88.78,47.3l-.13.38h-21.11l-.23-.38c.29-4.68,2.85-8.1,7.76-8.45,6.95-.49,13.3.06,13.72,8.45Z"/>
  <path class="cls-2" d="M63.28,98.88v.19c-8.67-.03-17.43.02-26.07,0v-.19c-.47-1.18,0-3.21.77-4.22l.99-.28c8.11-.08,15.96-.11,23.55-.11.62.6,1.22,3.21,1.11,4.05-.03.22-.19.4-.35.55Z"/>
  <path class="cls-21" d="M32.99,47.68c-.06.17-.13.17-.19,0l-.45-.63c-.89-3.43-4.02-5.57-7.54-5.15l-.25-.35-.34-.25c.14-.57-.27-.91-1.21-1.03-.19-1.59-1.17-1.6-1.46-.05-.73.18-1.26.56-1.59,1.14.2.21.22.41-.05.5-3.6-.23-6.91,1.51-7.74,5.22l-.45.61c-.06.17-.13.17-.19,0-.39-4.27.33-9.04,5.03-10.41,1.88-.55,8.12-.55,10.19-.31,5.29.62,6.78,6.16,6.25,10.72Z"/>
  <path class="cls-7" d="M62.32,41.74c-.44.18-1.09.14-1.53,0-.19-.12-.31-.29-.34-.51-.66-4.31-1.69-7.72-6.02-9.67l-.35-.56c.09-.47.55-.29.77-.38.37-.15.14-1.3.21-1.8.7-4.64,7.74-4.14,8.22.17.29,2.56.25,8.52,0,11.13-.05.58-.36,1.47-.97,1.62Z"/>
  <path class="cls-25" d="M28.77,49.41c.08-.15.24-.32.37-.26,1.71.7,2.83,2.01,3.86,3.5l-.21.41c.03.1-.01.26,0,.38.12.25.15.52.11.83.53.6.56,2.26-.49,1.66-.71-.28-1.06-.25-1.79-.8-.78-.6-1.63-2.35-2.37-2.42-.15-.01-.24.15-.25.15-.53.59-2.49.46-3.07,0l3.07-.38c-3.33-.87-7.14-1.09-10.51-.26-2.53.63-1.92,1.4-3.39,2.75-.71.65-1.26.66-2.01.96-1.02.68-1.08-1.23-.49-1.67-.06-.46-.02-.87.11-1.21-.54-.91,1.39-2.46,2.19-3.01.53-.53,1.01-.67,1.45-.44l.61-.62c3.99-.97,8.38-1.06,12.36-.07l.45.5Z"/>
  <path class="cls-4" d="M88.78,47.3c.05,1.08,0,2.18,0,3.26l-.13.38h-20.92l-.23-.38-.19-.19c0-1-.06-2.08,0-3.07h21.47Z"/>
  <path class="cls-25" d="M88.78,50.56c0,1.08-.03,2.18,0,3.26-1.44.1-3.03-.23-4.41.19-.86-1.12-2.41-1.53-3.57-.48-.06.36-.22.58-.46.68-.17-.16-.1-.35-.48-.4-1.1-.13-2.84-.02-3.93.2-1.1-1.51-2.89-1.27-4.22-.19h-4.22s0-3.26,0-3.26h21.28Z"/>
  <path class="cls-21" d="M21.29,76.06l.38.36v22.22l-.38.23c-3.83,0-7.67,0-11.5,0l-.3-.43c-.05-.36.06-3.85.22-3.97.12-.09.3-.06.46-.02l.18-.38c3.5.12,6.95.14,10.36.06v-18.05s.38-.23.38-.23c.26-.27.36-.15.19.19Z"/>
  <path class="cls-14" d="M73.82,68.96c2.61,1.06,5.81.85,8.43,0,.13.14-.08,3.15,0,3.75.02.19,0,.22.2.28-.02.23-.16.42-.19.58-1.28,3.08-7.02,3.17-8.24,0-.54.15-.66-.26-.19-.58-.12-1.28.09-2.72,0-4.03Z"/>
  <path class="cls-19" d="M45.83,60.34c.18.02.17.09,0,.19l-.11.48c-1.45.82-2.41,2.28-2.98,3.82l-.55.5c.31.18.37.53.18,1.06,4.42,1.72,2.12,8.36-2.43,7.16-1.14-.3-2.97-1.65-2.35-2.85-.09-1.32,0-2.53,1.06-3.45.35-.31,1.17-.56,1.21-.61.06-.08.21-1.51.32-1.88.46-1.53,1.06-2.72,2.21-3.83.74-.2,1.47-.44,2.23-.55.38-.06.98.05,1.22-.02Z"/>
  <path class="cls-14" d="M54.46,56.5c-.08,1.25.11,2.61,0,3.83.17.05.16.11,0,.19.49.28.34.58-.19.58-1.56,2.74-6.4,2.88-8.05.19-.53.27-.89-.41-.38-.77,0-.06,0-.13,0-.19.2-.06.17-.08.2-.28.07-.59-.12-3.39,0-3.56.53.13,1.98.77,2.39.77h3.45c.28,0,2.2-.61,2.59-.77Z"/>
  <path class="cls-19" d="M23.21,76.06c.12,6.1.15,12.28.1,18.56.16.07.29.13.29.2.03.84.03,1.71,0,2.55.13.76,0,1.27-.38,1.51-.64,0-1.28,0-1.92,0v-22.82c.21-.24.52-.25.91-.03.45-.2.79-.19,1,.03Z"/>
  <path class="cls-19" d="M57.72,60.91c1.32.89,1.97,2.35,2.4,3.83.1.34.23,1.66.29,1.72.05.04.88-.02,1.29.15,1.78.74,1.37,3.11,1.39,4.65.76.52-.2,1.22-.96,1.26-.71.04-1.91-.57-1.15-1.17-.62-.25-.59-2.48,0-2.78-.76.33-2.31.32-3.07,0,.62.25.59,2.48,0,2.78.77.7-.82,1.33-1.55,1.03-1.96-.79-1.07-6.37,1.57-6.36-.14-.31-.14-.51.18-.72l-.55-.54c-.53-1.54-1.53-2.95-2.97-3.76l-.13-.49c0-.06,0-.13,0-.19,1.16-.18,2.19.3,3.26.58Z"/>
  <path class="cls-21" d="M28,68.39c-.38,3.32.41,3.62,3.45,4.03-.31,1.3-.5,2.7-.77,4.03-.49.38-1.14.41-1.95.08l-4.39-1.34-.37-.47c-.48-.57-.56-4.16-.27-4.54.07-.1.17-.18.27-.25.99-.12,3.15-.99,4.03-1.53Z"/>
  <path class="cls-26" d="M32.8,47.68s.15-.03.19,0c1.87,1.58,3.98,5.5-.19,5.37-.08-.26-1.59-2.13-1.92-2.4-.47-.4-1.56-1.06-2.11-1.24-1.72-.86-.41-3.65,1.34-3.26.83-.46,2.37.64,2.68,1.53Z"/>
  <path class="cls-26" d="M13.82,46.53c1.94-.78,3.27,2.13,1.53,3.07-1.06.42-3.4,2.39-3.64,3.45-.05.17-.12.16-.19,0-3.92-.01-1.78-3.9,0-5.37.04-.03.15.03.19,0,.19-.77,1.45-1.64,2.11-1.15Z"/>
  <path class="cls-29" d="M73.82,72.99c.02.23.17.42.19.58.59,1.01,1.19,2.31.77,3.45,0,.21-.08.38-.23.51-1.49-.02-2.91.27-4.28.86l-.48-.22c-.24-1.4-.42-2.82-.75-4.2.17,0,.27-.17.36-.21,1.17-.51,3.12-.68,4.41-.77Z"/>
  <path class="cls-19" d="M8.07,94.47l-.37-.26c-.07-.87,0-4.68.39-5.29.81-1.25,2.56-.98,2.65.46.05.8-.03,4.26-.28,4.72-.07.14-.17.26-.27.38,0,.03-.19.22-.2.46-.06,1.32.16,2.65-.18,3.95h-1.92c-.08-1.48.11-2.94.19-4.41Z"/>
  <path class="cls-13" d="M23.4,75.87l.38.13v18.29s3.23-.04,3.23-.04c.26,0,.33.27.22.79-.24,1.28-.37,2.59-.77,3.83-1.08,0-2.18,0-3.26,0v-22.82c-.24-.28-.13-.38.19-.19Z"/>
  <path class="cls-15" d="M11.71,53.05c-.06.24-.09,2.76,0,2.88.02.03.28-.02.38,0-.05.02-.37.18-.38.19-.07.96-.13,1.92-.19,2.88-.19.06-1.25.03-1.53,0-1.76-.19-2.53-2.13-1.53-3.55.91-1.3,2.95-.93,3.07-1.05.06-.06-.05-1.08,0-1.34h.19Z"/>
  <path class="cls-15" d="M32.8,53.43c.35.12.12.88.19.96.08.08,1.59.02,2.25.34,1.96.95,1.56,4-.71,4.26-.45.05-.96-.03-1.41,0-.23-.05-.08-.29-.12-.39-.05-.84-.12-1.67-.19-2.49-.02-.02-.33-.17-.38-.19.11-.02.36.03.38,0,.07-.1.03-2.15,0-2.49Z"/>
  <path class="cls-15" d="M65.77,54.58c.55-.06,1.17.04,1.73,0v4.3c-.02.18-1.46.14-1.73.11-2.55-.27-2.55-4.14,0-4.41Z"/>
  <path class="cls-15" d="M90.5,54.58c2.46.26,2.66,4.11-.19,4.41-.5.05-1.03-.04-1.53,0v-4.41c.56.04,1.18-.06,1.73,0Z"/>
  <path class="cls-1" d="M39.51,41.74c.17.04.16.1,0,.19-.04,1.45-.11,2.92-.19,4.41-.31.1-1.73.02-2.1-.1-1.52-.51-1.75-2.95-.49-3.93.7-.54,1.5-.36,2.21-.76.17.07.41.07.58.19Z"/>
  <path class="cls-11" d="M62.32,41.74v.19c-.49-.05-1.04.04-1.53,0-.17-.04-.16-.1,0-.19.45-.07,1.14.1,1.53,0Z"/>
  <path class="cls-11" d="M64.24,44.8v-1.34c.09.23.22.26.22.67s-.13.44-.22.67Z"/>
  <path class="cls-12" d="M20.53,74.72c.38.04.66.81.58,1.15v18.79s-10.93-.19-10.93-.19c.09-1.68.04-3.39.17-5.07-.12-1.23-1.78-1.19-2.05.03-.25,1.15-.16,3.71-.23,5.04-2.75-.54-2.44-3.85-2.31-6.05.34-5.81,3.38-10.35,9.06-12.03l5.71-1.67Z"/>
  <path class="cls-15" d="M23.98,69.92c-.09,1.56.13,3.25,0,4.79.82.24.15,1.7-.58,1.15-.07.06-.13.16-.19.19-.82.46-1.1.47-1.92,0-.06-.03-.12-.13-.19-.19-.18-.16-.46-.29-.54-.52s-.02-.43-.04-.63c-.14-1.53.1-3.24,0-4.79.8.09,2.65.09,3.45,0Z"/>
  <path class="cls-25" d="M54.08,31c4.5,1.71,6.75,6.12,6.71,10.74,0,.06,0,.13,0,.19,0,.33.17,1.23-.19,1.34-.68-5.59-6.54-9.83-12.08-8.63.22-1.44,0-2.76-.77-4.02,1.96-.33,4.45-.33,6.33.38Z"/>
  <path class="cls-14" d="M44.88,35.98c-2.84,1.24-4.74,4.27-5.18,7.29-.43.22-.36-.95-.19-1.34,0-.06,0-.13,0-.19-.03-3.09.65-5.9,3-8.04.37-.06,1.98,1.9,2.37,2.29Z"/>
  <path class="cls-8" d="M46.93,50.02c1.19-.37,2.05,1.46,4.33.69.74-.25,1.7-1.28,2.45-.45,1.22,1.36-1.74,2.63-2.81,2.78-1.31.17-3.47-.3-4.3-1.42-.42-.57-.45-1.35.32-1.59Z"/>
  <path class="cls-6" d="M53.26,40.05c.74-.16,2.8-.19,3.18.58.99,2-3.77,1.79-4.05.97-.25-.72.13-1.39.87-1.56Z"/>
  <path class="cls-5" d="M44.16,40.25c.6-.52,4.45-.65,3.76,1.36-.23.67-2.88.65-3.48.47-.68-.2-.66-1.5-.28-1.83Z"/>
  <path class="cls-17" d="M53.55,42.93c.15-.18.77-.28,1.01-.26,1.28.09,1.18,2.49-.19,2.5-1.05,0-1.34-1.64-.82-2.24Z"/>
  <path class="cls-17" d="M45.11,42.93c.15-.18.77-.28,1.01-.26,1.28.09,1.18,2.49-.19,2.5-1.05,0-1.34-1.64-.82-2.24Z"/>
  <path class="cls-23" d="M39.7,43.27c-.14,1-.07,1.91-.19,2.79-.03.19,0,.21-.2.28-.07-1.06-.01-2.28,0-3.36,0-.32-.12-.85.2-1.05,0,.42-.14,1.08.19,1.34Z"/>
  <path class="cls-8" d="M25.85,62.87c1.32,1.32-1.71,2.68-2.75,2.81-1.4.18-5.78-.74-4.5-2.73.63-.99,2.49.63,3.56.65,1.28.03,2.89-1.55,3.69-.74Z"/>
  <path class="cls-10" d="M16.16,54.54c-.25-.26-.31-.97-.15-1.3.46-.92,4.9-.98,4.03.95-.37.83-3.47.76-3.89.34Z"/>
  <path class="cls-6" d="M28,52.86c2.51,2.28-3.26,2.54-3.61,1.2-.1-.38.13-1.1.55-1.2.61-.14,2.31,0,3.07,0Z"/>
  <path class="cls-10" d="M27.38,55.59c.7.7.11,2.79-1.29,2.16-1.54-.7-.05-3.5,1.29-2.16Z"/>
  <path class="cls-5" d="M17.6,55.39c1.86-.56,1.76,2.14.68,2.43-1.53.41-1.57-2.16-.68-2.43Z"/>
  <path class="cls-16" d="M11.52,58.99c.12-.72-.25-2.43.19-2.88-.1.54.22,2.74-.19,2.88Z"/>
  <path class="cls-24" d="M32.99,58.61c-.34-.84-.16-1.59-.19-2.49.43.44.08,1.82.19,2.49Z"/>
  <path class="cls-8" d="M74.92,62.67c.86-.25,1.87.97,3.22.94,1.05-.03,4.17-2.26,3.74.26-.37,2.18-5.97,2.38-7.38.49-.45-.61-.35-1.47.42-1.69Z"/>
  <path class="cls-30" d="M75.93,54.01c-.12,1.06-2.3.9-3.17.78-.5-.07-1.01-.46-1.04-.97-.12-1.54,4.45-1.85,4.22.19Z"/>
  <path class="cls-5" d="M84.37,54.01c-.12,1.06-2.51.92-3.35.76-.52-.1-.45-.36-.68-.57-.49-2.14,4.25-2.19,4.03-.19Z"/>
  <path class="cls-17" d="M81.54,55.59c1.14-1.14,2.8,1.11,1.37,2.04s-2.11-1.31-1.37-2.04Z"/>
  <path class="cls-17" d="M73.38,55.38c1.74-.6,2.13,2.16.69,2.43s-1.52-2.15-.69-2.43Z"/>
  <path class="cls-28" d="M46.98,64.55c1.32,3.21,2.37,6.52,3.16,9.94l2.92-10.02.43-.11c.66-.56,3.53-.08,4.21.4l.39.56c.08.36.31.71.19,1.15-2.47,0-2.77,2.76-2.48,4.69.23,1.48,2.1.93,2.1.2v-2.78c.99-.29,2.08-.29,3.07,0v2.78c0,.94,2.04,1.19,2.11-.1l.38-1.53c.36.97.82,1.82,1.1,2.84,1.56,5.8,1.88,12.47,3.32,18.36.05,1.71-1.37,3.48-3.07,3.73-.26-.36-.46-.76-.57-1.19-.62-4.5-1.38-9-2.18-13.46-.21-1.18-.86-1.69-1.45-.4.74,4.2,1.4,8.42,1.98,12.65.04.33.04.66.02,1s-.05.68-.1,1.02c.11.58-.29.37-.66.38-7.94.27-15.93-.2-23.88,0-.06-.29-.11-.57-.13-.86s-.04-.57,0-.85c.55-4.43,1.19-8.86,1.96-13.26,0-.83-.67-1-1.24-.48-.62,5.15-1.52,10.23-2.69,15.26-2.25.62-3.88-2.11-3.45-4.12,1.5-5.8,1.76-12.7,3.5-18.36.32-1.03.84-1.87,1.29-2.83l.38,1.53c1.3,4.35,7.63,2.82,6.67-1.78-.08-.37-.72-1.42-1.01-1.68-1-.89-1.56.04-1.06-1.92.41-.97,3.62-1.5,4.42-1.2.18.07.28.26.37.43Z"/>
  <path class="cls-9" d="M77.08,85.45c.62,2.68.6,5.75.39,8.5l-.39.71c-.02.15-.06.37-.17.38-.91.09-2.86.09-3.78,0l-.27-.38c-1.02-5.49-2.11-10.99-3.07-16.49.89-.36,1.88-.77,2.83-.91.72-.11,1.55.14,2.16-.24l.49.36c.88,2.48,1.59,5.01,2.14,7.57l-.33.51Z"/>
  <path class="cls-27" d="M89.55,98.88c-3.45,0-6.91.02-10.35,0-.15-.02-.33-.05-.38-.17-.08-.17-.04-3.4,0-3.78l.38-.27.59-.27c3.23-.11,6.23-.15,8.99-.12.67.52.9,2.07,1,2.99.24.71.16,1.25-.24,1.62Z"/>
  <path class="cls-19" d="M62.51,94.27c-.79-4.89-1.4-9.81-2.27-14.68.73-1.83,1.87-1.29,2.22.45.93,4.64,1.6,9.89,2.35,14.62.22,1.39.28,2.83.57,4.22h-2.11c-.07-1.56-.52-3.07-.77-4.6Z"/>
  <path class="cls-3" d="M79.19,94.66v4.22c-.7,0-1.41.01-2.11,0-.15-.02-.35-.05-.38-.17-.07-.28-.05-3.38,0-3.78l.38-.27c0-2.92.23-6.36,0-9.2.59.15.92.74,1.01,1.78.1-1.08.47-1.74,1.1-1.97l.34.73c0,2.78-.03,5.55-.08,8.3l-.25.36Z"/>
  <path class="cls-19" d="M90.89,94.08c.3,1.58.69,3.17.77,4.79-.7,0-1.41,0-2.11,0,0-1.57-.52-3.08-.77-4.6-.74-.35-1.09-3.31-.8-3.95.65-1.43,1.94-.96,2.64.24.33.57.79,3.07.27,3.52Z"/>
  <path class="cls-29" d="M77.08,94.66v4.22c-1.15-.02-2.32.09-3.46-.08-.28-.2-.64-3.51-.75-4.14h4.22Z"/>
  <path class="cls-12" d="M30.69,76.44c-.56,2.8-1.03,5.55-1.73,8.25l-.35.35c-3.64-.31-4.36,4.54-.83,5.36l.23.43c-.26,1.4-.5,2.82-.77,4.22.11-.58-.29-.37-.66-.38-1.06-.04-2.12.03-3.17,0v-18.79c.15-.12.37-.17.48-.39.14-.29.08-.49.1-.76,2.29.42,4.3,1.59,6.71,1.73Z"/>
  <path class="cls-19" d="M37.97,94.66c-.21,1.4-.59,2.81-.77,4.22h-1.92c-.19-.19.49-3.79.58-4.41.73-5.14,1.54-10.27,2.34-15.39.71-.96,2.02-.61,1.96.65-.92,4.94-1.45,9.98-2.2,14.93Z"/>
  <path class="cls-32" d="M28.96,84.69c-.36,1.39-.64,4.4-.96,6.14-4.43-.71-3.57-6.81.96-6.14Z"/>
  <path class="cls-9" d="M90.89,94.08c-.18-.92-.34-3.75-1.15-4.12-.74-.34-1.47.17-1.5.95-.02.64.42,2.55.55,3.37.11.58-.29.37-.66.38-2.97.1-5.96-.07-8.92,0,0-2.98-.23-6.49,0-9.4l-.34-.47c.49-2.46,1.14-4.87,1.96-7.25l.49-.33c4.45-.44,9.37,2.65,10.88,6.85.54,1.52,1.39,5.92,1.2,7.44-.12.93-1.34,3.08-2.5,2.58Z"/>
  <path class="cls-31" d="M82.26,73.57c-.22,1.23-.64,2.44-.96,3.64-.63,2.4-1.92,5.69-2.11,8.05-.57.96-.73,2.18-.96,3.26-.26.06-.22-.2-.28-.38-.31-.87-.38-1.89-.87-2.68-.21-2.57-1.64-5.88-2.3-8.44-.29-1.12-.58-2.3-.77-3.45,2.18,2.65,6.01,2.55,8.24,0Z"/>
  <path class="cls-19" d="M79.23,42.08c.28.23,1.54-.07,1.08,1.43-.2.66-.9.4-1.08.55s-.1,1.43-1.27,1.31c-.91-.09-.8-1.23-.89-1.32-.11-.11-1,.12-1.24-.79-.3-1.11,1.15-1.09,1.24-1.18.13-.13-.1-.95.45-1.19,1.6-.71,1.45.95,1.72,1.18Z"/>
  <path class="cls-18" d="M19.95,41.35c.13-.09.29-.16.46-.1.08.03,1.22.89,1.28.98-.11,1.02,1.29.95,1.14-.1.32-.44,1.31-1.1,1.72-.58.38-.09,1.75-.05,2.2,0,3.06.32,5.77,3.06,6.04,6.13-.75-.58-1.8-1.2-2.68-1.53l-.86.11c-4.65-1.27-9.73-1.18-14.33.25-.37-.07-.74-.06-1.11.02-.81.36-1.37.58-2.11,1.15.13-2.57,2.21-5.02,4.64-5.81,1.17-.38,2.09-.34,3.3-.34.18,0,.28-.18.3-.18Z"/>
  <path class="cls-19" d="M19.95,41.35c-.34-1.28,1.17-1.22,1.32-1.37.13-.13-.11-1.23,1.04-1.26s.73,1.07.92,1.26c.25.25,1.7-.18,1.32,1.56-.07.02-1.26.56-1.31.61-.24.28.19,1.21-1.09,1.13-1.09-.06-.69-.89-.9-1.13-.07-.08-.56-.09-.81-.25-.2-.12-.35-.55-.5-.56Z"/>
  <path class="cls-32" d="M30.11,46.15c-1.53.57-2.28,1.74-1.34,3.26-3.22-1.1-10.26-1.07-13.42.19.93-1.35.17-3.13-1.53-3.07,4.27-1.9,11.91-2.04,16.3-.38Z"/>
  <path class="cls-2" d="M45.83,60.53c.04.38.35.59.38.77.76.91,1.03,2.1.77,3.26-1.6-.25-3.32.15-4.79.77.47-1.84,1.85-4,3.64-4.79Z"/>
  <path class="cls-22" d="M40.22,68.62c2.16-.66,2.67,2.06,1.02,2.57-1.76.54-2.32-2.17-1.02-2.57Z"/>
  <path class="cls-20" d="M54.27,61.1c.49.73-.16,2.67-.77,3.26l-3.36,11.51c-1.04-3.77-2.17-7.53-3.16-11.31-.29-1.1-.55-2.19-.77-3.26,1.45.97,2.46,1.65,4.32,1.54,1.65-.09,2.44-.91,3.73-1.73Z"/>
  <path class="cls-2" d="M58.1,65.32c-1.42-.75-3.05-.75-4.6-.96.09-1.12.57-2.16.77-3.26.04-.21.18-.45.19-.58,1.83.83,3.2,2.86,3.64,4.79Z"/>
</svg>