<?xml version="1.0" encoding="UTF-8"?>
<svg id="Layer_2" data-name="Layer 2" xmlns="http://www.w3.org/2000/svg" viewBox="0 0 200 200">
  <defs>
    <style>
      .cls-1 {
        fill: #48538a;
      }

      .cls-2 {
        fill: #674297;
      }

      .cls-3 {
        fill: #e59226;
      }

      .cls-4 {
        fill: #cb264b;
      }

      .cls-5 {
        fill: #d8294f;
      }

      .cls-6 {
        fill: #4c82b2;
      }

      .cls-7 {
        fill: #7ca3d3;
      }

      .cls-8 {
        fill: #5b9dd5;
      }

      .cls-9 {
        fill: #7790c6;
      }

      .cls-10 {
        fill: #674296;
      }

      .cls-11 {
        fill: #ee2d57;
      }

      .cls-12 {
        fill: #ef83ac;
      }

      .cls-13 {
        fill: #fbd955;
      }

      .cls-14 {
        fill: #d37498;
      }

      .cls-15 {
        fill: #d8bb4a;
      }

      .cls-16 {
        fill: #fefefe;
      }

      .cls-17 {
        fill: #7890c6;
      }

      .cls-18 {
        fill: #5a67ac;
      }
    </style>
  </defs>
  <path class="cls-8" d="M4.58,167.39v-96.73c2.11-4.89,5.02-8.9,10.79-9.3,25.54-.15,51.09-.27,76.64-.37.12,0,.25,0,.37,0,7.47.77,10.66,7.28,10.88,14.33.08,13.37.12,26.8-.08,40.17-.03,2.37-.9,4.4-2.29,6.27-10.44,12.35-14.68,29.65-8.49,44.91,1.54,5.57-1.23,10.62-7,11.51H14.72c-5.31-1.02-10.01-5.16-10.15-10.8Z"/>
  <path class="cls-6" d="M111.35,122l.17.84c-14.73,13.02-17.56,36.14-4.97,51.93l.33,1.55.4.32c-.35,2.22.26,4.92,2.94,3.61l.74.53c-1.16,5.37-6.08,8.75-11.35,9.29l-82.6.02c-6.51-.45-10.49-3.96-12.45-10.06v-12.65c1.31,5.01,5,9.11,10.23,10.05h70.33c2.79,0,5.92-2.62,6.61-5.28,1.15-4.38-1.17-7.76-2.1-11.9-2.66-11.89.63-24.28,7.18-34.36,2.21-3.4,5.6-5.96,5.6-10.39-.73-13.5.93-27.94,0-41.32-.32-4.62-2.14-9.14-6.36-11.49-1.26-.7-2.66-.76-3.7-1.7,9.18-.15,17.01.18,18.99,10.96v50.05Z"/>
  <path class="cls-12" d="M160.45,65.45c14.86,1.77,24.64,16.1,24.36,30.64-.17,8.12-.26,16.24-.26,24.34l-.65,1.2c-.39.19-.79.37-1.2.5-2.85.9-12.27.72-15.88.61-2.06-.07-3.96-.27-5.99-.74l-.29.43c-6.94-4.34-14.53-8.5-23.46-8.58l-1.18-.77c.62-11.11-2.12-22.25,3.53-32.37,4.06-7.29,12.78-13.71,21.03-15.25Z"/>
  <path class="cls-13" d="M135.9,113.07c6.4.03,13.57,1.98,19.22,5.14.93.52,5.36,3.78,5.7,3.78.32.11.32.23,0,.37.95.06.77.71.21,1.32l-53.3,52.83-.85-.2c-11.52-13.13-12.02-33.63-1.64-47.59,1.38-1.85,4.39-5.29,6.11-6.73,6.18-5.18,16.49-8.97,24.55-8.93Z"/>
  <path class="cls-15" d="M166.03,175.94c.72,1.27-.99,2.42-2.23,2.6-11.95,12.5-32.15,14.88-46.99,6.25-1.12-.65-5.08-3.9-5.47-4.02l-.34-.71c17.81-17.93,35.62-35.87,53.44-53.8l.85.2.81-.04c8.99,10.73,11.62,25.66,6.63,39.06-1.41,3.78-3.32,8.16-6.7,10.45Z"/>
  <path class="cls-4" d="M195.05,121.63c0,9.58.76,20.97,0,30.31-1.25,15.32-15.98,27.72-31.24,26.61.34-.35,1.87-2.15,2.23-2.6,8.5-5.2,15.49-12.39,16.98-22.65.28-10.45.38-20.9.29-31.33l.96-.33c3.59-.73,7.2-.73,10.79,0Z"/>
  <path class="cls-14" d="M195.05,121.63h-10.79c-.11.2-.24.19-.37,0-1.19-13.5,3.13-29.89-3.94-42.01-2.65-4.54-7.38-8.99-12.11-11.33-2.4-1.19-4.95-1.81-7.4-2.84,13.9-2.59,27.82,5.73,32.75,18.78,3.36,8.9,1.85,27.23,1.85,37.4Z"/>
  <path class="cls-8" d="M33.97,16.34c.93,1.91,1.24,4.09.93,6.53-.37,8.24-.48,16.48-.33,24.71l-.6,1.86c-1.49.33-3.64.3-5.21,0-5.08,0-11.7,1.71-12.29-5.01-.47-5.31-.64-18.7.05-23.79.97-7.11,12.55-3.39,17.45-4.31Z"/>
  <path class="cls-6" d="M82.33,16.34c5.16.95,16.42-2.95,17.13,4.64.74,7.88-.56,16.91-.03,24.92-.76,2.63-2.05,3.08-4.45,3.55-2.71.08-5.32.21-7.81.37-.94,1.2-3.8,1.1-4.84,0l-.74-.26V16.79l.74-.45Z"/>
  <path class="cls-8" d="M55.17,16.34c.93,1.91,1.24,4.09.93,6.53-.37,8.24-.48,16.48-.33,24.71l-.6,1.86c-4.79.31-10.34.31-15.25,0l-.59-1.66c.18-8.54.06-17.09-.37-25.65-.29-2.23.03-4.16.96-5.81h15.25Z"/>
  <path class="cls-8" d="M76.38,16.34l.6,1.71c-.17,8.47-.05,16.94.35,25.42.29,2.28-.02,4.27-.95,5.98-.25,1.17-3.74,1.12-4.09,0-3.72.27-7.44.27-11.16,0l-.74-.26V16.79l.74-.45h15.25Z"/>
  <path class="cls-3" d="M165.29,126.46l-53.94,54.32c-.09-.03-.26,0-.37,0-.43.04-1.05.58-1.67.58-2.79,0-3.33-2.87-2.42-5.04l53.82-53.34.13-.6c2.77-.92,6.65,1.4,4.46,4.09Z"/>
  <path class="cls-18" d="M33.97,49.83l.81.23c.69,2.31,3.59,2.07,4.35-.09l.79-.13c4.79-.31,10.34-.31,15.25,0l.81.24c1.18,2.57,2.79,1.81,4.29,0,.21-.25.53-.3.85-.24,3.5-.31,7.59-.3,11.16,0,.29.03.73.13.74.33.13,1.46.27,9.28,0,10.3l-.74.53c-14.51.25-29.02.38-43.53,0v-11.16c1.49-.33,3.64-.3,5.21,0Z"/>
  <path class="cls-10" d="M33.97,16.34c.25-4.01,5.44-4.04,5.95,0-.86,10.5,1.15,22.84,0,33.11.33.09.32.22,0,.37-.58,3.18-5.33,3.72-5.95,0-.33-.09-.33-.21,0-.37-.96-10.52.72-22.44,0-33.11Z"/>
  <path class="cls-2" d="M61.12,16.34v33.11c.33.07.31.2,0,.37-.69,3.06-5.32,3.79-5.95,0-.33-.09-.33-.21,0-.37-.96-10.52.72-22.44,0-33.11.16-4.11,5.44-3.75,5.95,0Z"/>
  <path class="cls-10" d="M82.33,16.34v33.48c1.27,1.53-1.76,3.43-3.41,3.35-1.84-.09-4.13-2.43-2.55-3.72.79-10.58-1.06-22.72,0-33.11.44-4.33,5.39-3.58,5.95,0Z"/>
  <path class="cls-7" d="M94.98,49.45c-2.44.48-4.88.42-7.44.37v11.16h4.46c-25.42.35-51.11.51-76.64.37.39-.62,1.41-.37,2.04-.38,3.78-.05,7.58,0,11.35,0,14.5,0,29.03.05,43.53,0,4.67-.74,9.38-1,14.14-.78v-9.85s.74-.53.74-.53c.06,0,.42-.37.9-.39,2.29-.1,4.62.1,6.91.02Z"/>
  <path class="cls-9" d="M33.97,49.45c.01.12-.02.25,0,.37h-5.21v-.37h5.21Z"/>
  <path class="cls-11" d="M76.38,99.31c8.95,9.88,7.73,25.75.54,36.34-9.88,14.55-30.48,19.68-44.82,8.68-20.92-29.89,14.62-65.53,44.27-45.02Z"/>
  <path class="cls-5" d="M32.11,144.32c2.33,1.06,4.53,2.43,6.97,3.26,29.43,10,54.34-22.62,37.3-48.27,13.95,9.65,18.06,28.14,9.23,42.9-11.73,19.6-40.33,20.93-53.5,2.12Z"/>
  <path class="cls-11" d="M183.89,121.63h.37c-.42.62-.37,1.32-.39,2.03-.28,9.18.74,19.32.03,28.31-.79,10.01-8.4,20.53-17.87,23.98,10.06-12.84,11.27-30.35,2.9-44.38-.73-1.23-3.39-4.3-3.65-5.09-.37-1.14.35-1.84-1.1-3.18-1.27-1.17-1.89-.68-3.36-.92v-.37c7.44.13,15.46-.37,23.07-.37Z"/>
  <path class="cls-13" d="M116.56,180.78l48.73-48.73c5.04,15.45-.19,32.73-13.05,42.56-10.31,7.88-23.26,9.82-35.68,6.17Z"/>
  <path class="cls-1" d="M76.38,49.45c.42,4.07,4.67,3.77,5.95.37,1.6-.07,3.24.09,4.84,0v11.16c-4.95,0-9.93-.02-14.88,0v-11.16c-.32-.11-.32-.23,0-.37h4.09Z"/>
  <path class="cls-17" d="M55.17,49.45c.01.12-.02.25,0,.37h-15.25c.02-.12-.01-.25,0-.37h15.25Z"/>
  <path class="cls-9" d="M72.28,49.45v.37h-11.16c.03-.12-.02-.25,0-.37h11.16Z"/>
  <path class="cls-16" d="M55.17,109.54c.03-.1,1.31-1.4,1.49-1.48,1.91-.82,4.46.6,4.46,2.59v11.72h11.35c2.25,0,3.89,2.31,2.97,4.46-.08.18-1.37,1.49-1.48,1.49h-12.83v12.09c0,1.04-1.71,2.67-2.82,2.79-.91.09-3.13-1-3.13-1.67v-12.65s-.52-.56-.56-.56h-12.65c-.14,0-1.25-1.26-1.39-1.58-.89-2.04.87-4.37,2.88-4.37h11.72v-12.83Z"/>
</svg>