<?xml version="1.0" encoding="UTF-8"?>
<svg id="Layer_2" data-name="Layer 2" xmlns="http://www.w3.org/2000/svg" viewBox="0 0 200 200">
  <defs>
    <style>
      .cls-1 {
        fill: #ed8600;
      }

      .cls-2 {
        fill: #d70027;
      }

      .cls-3 {
        fill: #f59279;
      }

      .cls-4 {
        fill: #bbbdbf;
      }

      .cls-5 {
        fill: #fe9711;
      }

      .cls-6 {
        fill: #f0f1f1;
      }

      .cls-7 {
        fill: #a6a8ab;
      }

      .cls-8 {
        fill: #ec1c24;
      }

      .cls-9 {
        fill: #fe9378;
      }

      .cls-10 {
        fill: #929497;
      }

      .cls-11 {
        fill: #feb7a4;
      }

      .cls-12 {
        fill: #2487fe;
      }

      .cls-13 {
        fill: #7ed53e;
      }
    </style>
  </defs>
  <path class="cls-11" d="M141.58,139.09c.96.3,1.96.89,2.99,1.76,1.29.19,2.14.65,2.53,1.39.31.04.76.13.79.35.26,2.37.33,9.41,0,11.69l-.79.57-.41.79c-4-1.58-7.8,3.55-3.04,4.63,1.85.42,13.62.62,14.62-.58,2.53-3.07-1.58-4.83-4.34-4.05l-.53-.79c-.31-.04-.75-.13-.79-.35-.34-2.23-.25-9.34,0-11.69l.79-.57c.4-.74,1.24-1.2,2.53-1.39,1.03-.88,2.02-1.46,2.99-1.76h32.32c-.24,13.65.32,27.35,0,40.99l-.28.79h-80.67c-2.33.21-4.46,1.28-6.24,2.74-5.5,5.75-11.38,7.82-19.74,7.17-17.12-.44-34.24-.59-51.35-.45-2.89-.23-5.35-2.18-5.7-5.12.35-2.29,2.62-3.89,4.34-5.12,8.76-.96,17.56-1.16,26.41-.62-.26-1.32,0-2.16.79-2.53l-.27.79H20.07l-.48-.79c-1.88,1.55-4.87-2.24-4.93-4.34.35-2.29,2.62-3.89,4.34-5.12.7-.19,1.39-.36,2.1-.48s1.4-.22,2.1-.23c11.6-.13,23.27-.21,34.83.09-.26-1.32,0-2.16.79-2.53l-.27.79H13.76l-.48-.79c-1.92,1.56-4.79-2.24-4.93-4.34.43-2.41,3.02-4.63,5.42-5.03,1.74-.29,3.69.35,5.23-.49.41-.58,1.14-.71,2.17-.38h36.59c.06-1.15.41-1.94,1.05-2.38l-.27.79H20.07l-.48-.79c-1.92,1.56-4.8-2.24-4.93-4.34.45-2.53,3.21-4.79,5.75-5.09,12.34-.17,24.68.1,37.02-.03.67,0,1.75.25,2.16-.4l.53-.7c3.19-.14,10.96-.45,11.87,3.1-.29,3.43.39,6.27,2.06,8.51,1.31.55,2.08,1.25,2.3,2.09.04-.3.12-.76.34-.79.61-.08,6.48-.14,6.79,0,.29.13.43.48.55.79-1.21-.16-1.15-2.89,0-3.15-.04.31-.13.76-.35.79-1.33.16-5.04.15-6.38,0l-.56-.79c-1.3,1.32-2.91-1.45-2.93-2.92,0-5.69-.02-8.36-6.44-8.93-4.14.11-8.17,0-12.11-.37-2.7-2.78-3.02-6.11-2.76-9.85h40.8c5.63,0,10.23,9.21,16.26,9.36l32.02.1Z"/>
  <path class="cls-13" d="M109.22,27.98c.61,17,.39,32.55-6.59,48.31-8.33,18.8-23.33,30.76-40.79,40.67-15.47-9.38-28.88-18.94-37.78-35.15-9.4-17.11-10.21-34.62-9.35-53.83L61.83,9.92l47.39,18.06Z"/>
  <path class="cls-6" d="M172.33,53.95c-.03,12.61.03,25.23,0,37.84l-.36.79h-21.24l-.47-.79-.8-.3c-.1-1.09-.79-1.87-1.88-2.05h-18.93s-.46-.8-.46-.8c0-2.1,0-4.21,0-6.31l.26-.79,19.14-.02c2.6-.58,2.53-4.16-.01-4.7h-18.93s-.46-.8-.46-.8v-6.31l.26-.79,19.14-.02c2.6-.58,2.53-4.16-.01-4.7h-18.93s-.46-.8-.46-.8v-9.46c2.51-1,5.26-1.34,8.25-1.01,11.59.36,23.16.55,34.71.57l1.18.44Z"/>
  <path class="cls-13" d="M172.33,91.79c-.03,9.95.87,22.1.02,31.75-.65,7.32-7.28,6.01-12.63,6.09-6.17,1.31-12.75,1.31-18.92,0-3.96-.06-9.13,1.03-11.61-2.78-1.39-2.13-.93-4.3-1-6.68l.26-.79,19.14-.02c2.6-.58,2.53-4.16-.01-4.7h-18.93s-.46-.8-.46-.8c-.02-2.1.01-4.21,0-6.31l.26-.79,19.14-.02c2.6-.58,2.53-4.16-.01-4.7h-18.93s-.46-.8-.46-.8c0-2.1,0-4.21,0-6.31l.26-.79,19.15-.02c1.08-.19,1.76-.97,1.86-2.05l.8-.3h22.07Z"/>
  <path class="cls-12" d="M140.8,41.34c6.28-1.13,12.64-1.13,18.92,0,3.6.03,12.59-.64,15.33.63,5.93,2.74,4.4,11.4-2.72,11.98-14.16,1.15-29.83-.86-44.15,0-6.39.09-8.73-8.59-3.29-11.77,2.61-1.52,12.3-.82,15.9-.85Z"/>
  <path class="cls-12" d="M159.72,22.42c-6.17,1.31-12.76,1.31-18.92,0-2.43-.04-5.61.31-7.91-.18-6.46-1.36-6.7-11.83,1.78-12.45,10.19-.75,21.28.61,31.57,0,4.9.31,7.85,5.6,5.09,9.85-2.47,3.81-7.65,2.71-11.61,2.78Z"/>
  <path class="cls-3" d="M191.25,180.09c-.02,1.05.02,2.11,0,3.15h-81.4c-6.37,0-10.43,9.71-17.33,9.47l-59.89-.05c-3.54-.57-5.9-3.9-5.36-7.45,1.67,2.29,2.61,3.99,5.71,4.34,19.11-1.23,40.28,1.64,59.14.01,8.57-.74,10.13-8.68,18.12-9.47h81Z"/>
  <path class="cls-4" d="M159.72,25.57v15.77c-6.3-.04-12.62-.05-18.92,0v-15.77l.36-.79h18.08l.47.79Z"/>
  <path class="cls-12" d="M159.72,129.63c-.26,3,.69,6.75-.79,9.46-1.17,2.16-3.17,2.96-5.52,3.15-.72,1.37-5.59,1.37-6.31,0-2.35-.19-4.34-1-5.52-3.15-1.47-2.71-.52-6.46-.79-9.46,6.28.1,12.64.1,18.92,0Z"/>
  <path class="cls-3" d="M8.36,159.99c1,1.36,3.05,4.34,4.93,4.34h45.53v3.16c-13.25-.24-26.56.32-39.81,0-1.69-.04-3.66.19-5.29-.03-3.47-.47-5.96-4.02-5.36-7.45Z"/>
  <path class="cls-3" d="M14.66,172.6c1,1.36,3.05,4.34,4.93,4.34h39.22v3.16c-9.06-.07-18.14.09-27.2,0-5.73-.06-18.41,2.06-16.95-7.49Z"/>
  <path class="cls-3" d="M14.66,147.37c1,1.36,3.05,4.34,4.93,4.34h39.22v3.16s-37.66.01-37.66.01c-.75,0-1.45-.21-2.15-.41-2.99-.85-4.88-4-4.34-7.1Z"/>
  <path class="cls-7" d="M128.18,69.72v-6.31l19.49.02c3.48.54,3.49,5.71,0,6.26l-19.49.02Z"/>
  <path class="cls-7" d="M128.18,82.33v-6.31l19.49.02c3.48.54,3.49,5.71,0,6.26l-19.49.02Z"/>
  <path class="cls-7" d="M150.26,91.79c0,1.62-.97,2.88-2.59,3.13l-19.49.02c0-2.1,0-4.21,0-6.31l19.49.02c1.62.25,2.59,1.51,2.59,3.13Z"/>
  <path class="cls-7" d="M128.18,107.56c-.01-2.1,0-4.21,0-6.31l19.49.02c3.48.54,3.49,5.71,0,6.26l-19.49.02Z"/>
  <path class="cls-7" d="M128.18,120.17c-.06-2.09.02-4.21,0-6.31l19.49.02c3.48.54,3.49,5.71,0,6.26l-19.49.02Z"/>
  <path class="cls-3" d="M55.26,139.49c.41-.65,1.5-.39,2.16-.4,3.25-.04,11.7-.57,14.14.85,4.94,2.89,1.68,8.34,3.8,10.79.19.22,1.24.98,1.39.98h7.29v3.15h-7.69c-.16,0-1.84-.8-2.15-1-4.79-3.11-1.24-9.05-3.97-11.01-1.6-1.15-7.82-.38-10.63-.99-1.91-.42-2.96-.95-4.34-2.37Z"/>
  <path class="cls-7" d="M159.72,22.42v3.15h-18.92v-3.15c6.28.1,12.64.1,18.92,0Z"/>
  <path class="cls-9" d="M147.1,154.86c1.85-1.24,4.46-1.24,6.31,0,1.2.04,2.58-.15,3.72.02,3.49.54,3.64,5.82-.36,6.29-1.89.22-13.07.22-14.3-.31-2.06-.88-2.29-4.11-.48-5.41,1.37-.98,3.46-.55,5.12-.6Z"/>
  <path class="cls-10" d="M153.41,142.25v12.61c-2.07-.07-4.23-.07-6.31,0v-12.61c1.79.14,4.52.14,6.31,0Z"/>
  <path class="cls-5" d="M90.34,34.25c.21.28.4.56.55.87s.27.58.28.88c1.1,20.27-3.58,38.73-17.97,53.59-2.35,2.43-10.56,9.91-13.4,10.14-.33.03-.66,0-.99-.04-2.39-1.53-4.78-2.82-7.05-4.57-18.14-13.97-26.3-35.73-24.43-58.45l34.46-13.07c9.56,3.26,19.13,6.94,28.56,10.66Z"/>
  <path class="cls-1" d="M90.34,34.25c2.01.79,4,1.69,6.07,2.32,3.22,27.1-10.54,52.56-34.33,65.41-.78.12-2.63-1.89-3.28-2.3,13.84-7.67,24.39-21.17,28.88-36.36,2.87-9.69,2.89-19.04,2.65-29.08Z"/>
  <path class="cls-8" d="M65.16,44.54c-.17.19-.14,3.12.14,3.52.13.19,2.48,1.16,2.79,1.16.5,0,2.2-1.59,2.37-1.97.42-.99-1.46-2.53.17-4.53,2.59-3.19,7.27,1.57,8.89,3.75,1.06,1.42,1.57,3.18.38,4.74-1.75,2.3-3.67.19-4.64.45-2.1.54-2.64,3.41-1.27,5.08.45.54,3.46.56,3.7.35.67-.59.23-3.87,4.09-3.03,3,.65,2.7,7.94,2.17,10.28-.53,2.36-3.87,3.08-5.45,1.28-1.31-1.5.1-2.93-3.74-2.19-1.08.21-2.02,2.71-1.4,3.76,1.89,3.23,3.57.03,5.92,1.59,3.74,2.49-1.63,7.83-3.94,9.41-1.55,1.06-2.76,1.39-4.33.05-2.4-2.05-.08-3.82-.55-4.94-1.09-2.55-5.05-2.23-5.36.16-.45,3.47.4,2.05,1.99,3.18,2.17,1.55,1.36,5.26-1.4,5.69-1.36.21-6.5.22-7.78-.06-2.36-.53-3.08-3.87-1.28-5.45,1.5-1.31,2.93.1,2.19-3.74-.21-1.08-2.71-2.02-3.76-1.4-3.19,1.87-.08,3.47-1.6,5.91-1.18,1.89-3.18,1.73-4.88.6-2.25-1.49-7.08-6.29-4.37-9.06,1.91-1.95,3.75.06,4.74-.36,2.55-1.08,2.23-5.05-.16-5.36-3.47-.45-2.05.4-3.18,1.99-1.55,2.17-5.26,1.36-5.69-1.4-.21-1.36-.22-6.5.06-7.78.53-2.36,3.87-3.08,5.45-1.28,1.31,1.5-.1,2.93,3.74,2.19,1.08-.21,2.02-2.71,1.4-3.76-1.83-3.12-3.3-.36-5.44-1.27-2.5-1.06-2.28-3.5-.89-5.42,1.59-2.21,6.11-6.88,8.88-4.16,1.95,1.91-.06,3.75.36,4.74,1.08,2.55,5.05,2.23,5.36-.16.45-3.47-.4-2.05-1.99-3.18-2.17-1.55-1.36-5.26,1.4-5.69,1.43-.22,6.02-.22,7.44,0,2.62.41,3.54,3.82,1.61,5.51-.71.62-2.06.73-2.14.82Z"/>
  <path class="cls-2" d="M60.68,54.05c8.86-1.43,10.13,11.07,2.57,12.43-8.7,1.56-10.29-11.18-2.57-12.43Z"/>
</svg>