<?xml version="1.0" encoding="UTF-8"?>
<svg id="Layer_2" data-name="Layer 2" xmlns="http://www.w3.org/2000/svg" viewBox="0 0 200 200">
  <defs>
    <style>
      .cls-1 {
        fill: #c8effd;
      }

      .cls-2 {
        fill: #62dcfb;
      }

      .cls-3 {
        fill: #00c1fa;
      }

      .cls-4 {
        fill: #6b7ed8;
      }

      .cls-5 {
        fill: #ec5469;
      }

      .cls-6 {
        fill: #00d1fb;
      }
    </style>
  </defs>
  <path class="cls-6" d="M145.29,171.44c1.51,2.08,2.73,4.96,2.96,7.53.25,2.89.4,10.94-.04,13.61-.23,1.39-1.22,1.69-2.19,2.41h-72.11c-3.58-1.42-5.56-3.82-5.89-7.73-.2-.2-.39-.4-.54-.63-.92-1.43-.42-16.07-.21-18.98l.75-1.36.91.08c1.19,1.97,2.81,3.73,5.21,3.97,23.06-.15,46.09-.14,69.1.03l2.04,1.07Z"/>
  <path class="cls-6" d="M150.07,45.24c.67.02,1.37.06,1.98.37,2.09,1.06,8.6,4.64,9.63,6.06.21.29.37.6.52.93,3.73,2.48,6.75,3.75,6.21,8.98l-26.08,105.81c.07,1.23-.32,1.59-1.15,1.1-6.44-5.48-13.03-10.79-19.76-15.92l-3.91-2.18-.56-1.03c-.28-.1-.68-.32-.63-.52,7.88-32.86,16.43-66.71,24.81-99.38,1.6-3.03,5.54-5.77,8.93-4.22Z"/>
  <path class="cls-3" d="M129.47,32l.94-.39c6.71,3.8,13.19,8,19.42,12.61l.24,1.03c-4.15-.05-7.91,2.17-8.93,6.33l-24.18,97.78-1.08.39c-7.13-1.66-14.44-2.28-21.91-1.86l-.92-.74,27.48-111.77c1.67-3.74,5.2-4.92,8.94-3.38Z"/>
  <path class="cls-2" d="M116.96,149.36c7.85,3.08,17.31,13.17,24.47,18.39.84.61.33.24.92-.37-.01,1.55,1.97,2.71,2.94,4.05-.93-.14-1.79-.34-2.74-.39-22.56-.97-45.81.76-68.45.02-2.98-.32-4.65-2.4-6.07-4.78l-.74-1.13c-.2-1.76-.43-7.38-.07-8.83.11-.45.45-.79.8-1.08.34-4.21,2.8-7.35,7.16-7.74,5.04-.45,12.69-.36,17.86-.35,6.93.01,17.59-.27,23.91,2.21Z"/>
  <path class="cls-4" d="M68.03,155.25c-.28,3.46.03,7.49,0,11.04-.06,6.54-.54,14.61,0,20.97h-31.1c-2.61-.41-4.31-2.37-4.59-4.97-.57-5.29-.42-15.94-.01-21.36.22-2.96,1.29-4.83,4.27-5.66l31.43-.02Z"/>
  <path class="cls-1" d="M167.73,30.16c-1.79,7.49-3.68,14.97-5.52,22.44-3.92-2.61-8.18-4.83-12.14-7.36-5.49-3.51-15.12-10.99-20.6-13.24,1.11-3.5,2.06-7.11,2.94-10.67l.43-.65c11.54,2.89,23.09,5.77,34.64,8.66l.26.82Z"/>
  <path class="cls-5" d="M167.73,30.16l-35.32-8.83c.75-3.01,1.77-9.89,3.03-12.24,1.04-1.93,3.07-2.64,5.15-2.39,8.34,1.01,18.07,5.24,26.57,6.55,1.73.36,3.42,2.45,3.54,4.22.16,2.35-2.29,9.85-2.97,12.69Z"/>
</svg>