<?xml version="1.0" encoding="UTF-8"?>
<svg id="Layer_2" data-name="Layer 2" xmlns="http://www.w3.org/2000/svg" viewBox="0 0 200 200">
  <defs>
    <style>
      .cls-1 {
        fill: #b0bdc4;
      }

      .cls-2 {
        fill: #788f9b;
      }

      .cls-3 {
        fill: #98aab3;
      }

      .cls-4 {
        fill: #fa8b00;
      }

      .cls-5 {
        fill: #ebeef0;
      }

      .cls-6 {
        fill: #8fa3ad;
      }

      .cls-7 {
        fill: #fea626;
      }

      .cls-8 {
        fill: #f47c00;
      }

      .cls-9 {
        fill: #feaa90;
      }

      .cls-10 {
        fill: #42a4f4;
      }

      .cls-11 {
        fill: #1976d1;
      }

      .cls-12 {
        fill: #fe7043;
      }

      .cls-13 {
        fill: #ced7db;
      }

      .cls-14 {
        fill: #7d8e95;
      }

      .cls-15 {
        fill: #afbdc4;
      }
    </style>
  </defs>
  <path class="cls-2" d="M70.61,194.76H27.35c-3.2-1.44-5.49-3.08-6.29-6.65-.12-.68-.22-1.53.63-1.52l37.17.02c1.7-.3,3.17-1.43,3.24-3.24l.74-.43c4.92-.1,9.85-.22,14.79-.37.1-.32.23-.32.37,0-.19,6.22-.71,10.12-7.39,12.2Z"/>
  <path class="cls-9" d="M134.57,8.05c.71.14,1.01.41,1.42.9,1.71,2.02,2.53,7.47,2.87,10.16-.27,14.5,3.56,26.35,14.29,36.46,14.11,16.7,3.98,40.28-17.68,41.97-14.48.03-28.97,0-43.45-.07l-.7-.68c-3.07-6.8-.33-17.07,2.89-23.54,4.8-9.64,13.75-14.43,17.99-24.9,3.67-9.07,2.28-16.37,3.93-25.27,1.63-8.79,9.56-15.02,18.44-15.02Z"/>
  <path class="cls-12" d="M91.31,96.78l44.2.02c21.73-2.23,31-24.82,16.31-41.66-6.86-7.86-11.14-12.58-12.77-23.65-1.17-7.98.24-16.39-4.48-23.43,8.88,0,16.58,6.73,18.07,15.39,1.28,7.42.4,14.4,2.81,21.96,4.27,13.38,15.62,18.58,20.53,31.23,3.41,8.78,5.59,22.98-5.72,26.83-5.49,1.87-12.59-.35-17.69.8-.93.21-5.23,4.29-6.95,5.25-7.54,4.23-17.24,3.8-24.34-1.11-1.33-.92-4.01-3.89-5.1-4.14-3.52-.8-9.99.25-13.98-.06-5.07-.4-8.83-2.84-10.89-7.41Z"/>
  <path class="cls-7" d="M63.21,148.17c.6,11.21.89,22.43.66,33.65h13.32s.43.74.43.74c-4.72.62-9.92.45-14.79.37l-.5.58c-12.9-.18-25.93-.32-39.09-.43l-2.55-.52c-.36-14.18-.05-28.68,0-42.89l.66-.47,27.83,15.9.68-.1c4.23-2.94,8.68-5.21,13.35-6.82Z"/>
  <path class="cls-10" d="M62.84,113.42h.37c.73,11.58.73,23.17,0,34.75-4.37,2.45-8.77,4.87-13.05,7.49l-1.09.22-28.37-16.21c.03-8.5-.53-17.88,0-26.25,14-1.11,28.15-1.18,42.15,0Z"/>
  <path class="cls-15" d="M50.27,92.34c2.07,1.18,4.24,2.13,6.52,2.85,4.78,1.92,6.47,6.06,7.05,10.87.24,1.96.65,5.69-.63,6.98.07.17-.06.29-.37.37-14.04-.05-28.11.03-42.15,0,.26-4.07,1.78-7.43,5.44-9.54,1.71-.99,3.42-1.19,5-2.02,3.5-1.85,4.1-6.28,5.83-9.51,4.29-1.06,9.03-1.11,13.31,0Z"/>
  <path class="cls-4" d="M78,140.04c.05,14.03.44,28.54,0,42.52h-14.79c0-11.45,0-22.93,0-34.38,3.18-2.98,7.63-5.57,11.63-7.48.87-.42,1.83-.57,2.79-.66.1-.32.23-.32.37,0Z"/>
  <path class="cls-6" d="M60.62,77.55c1.09.01,5.03-.21,5.57.16.79.55.16,12.12.29,14.02-.33,1-3.67.59-4.75.61-3.61,1.18-7.84,1.13-11.46,0-4.43.01-8.89.08-13.31,0-.89-.02-4.55.21-4.81-.37v-5.18l.34-.74h18.25l.44.74.09-.8c3.04-1.31,4.18-3.97,3.42-7.98l.75-.46c1.7-1.01,3.49-1.03,5.18,0Z"/>
  <path class="cls-6" d="M53.97,56.85c3.74-.82,7.56-.99,11.36-.46.03,3.26-.06,6.5-.27,9.7-.12.43-.54.28-.74.37-3.65.31-7.52.31-11.09,0-.03.29-.13.73-.34.74-4.27.22-10.77.39-14.92,0-.1,0-.19-.25-.26-.56-1.24.07-2.48.01-3.7-.18-1.23-.78-.73-3.71-.74-5.18.34-.39.76-.66,1.25-.79l10.45.17c2.91-.04,7.36-.11,8.21-3.48l.79-.34Z"/>
  <path class="cls-15" d="M59.52,51.3c2.97.04,9.94-1.25,9.65,3.15-.19,2.86-3.55,2.23-3.74,2.4-.37.35.56,8.09-.37,9.25.59-2.13-.44-6.8,0-9.24-3.69,0-7.4.01-11.09,0l-1.01.49c-5.81.36-11.84.67-17.69.33-.34-.02-.67-.14-1.01-.29s-.67-.34-.99-.54c-1.88-.1-4.08-.18-4.03-2.78.08-3.74,6.15-2.72,8.66-2.77.53-.01,1.08-.37,1.28-.37.69-.35,1.41-.71,2.2-.75,3.52-.17,14.37-.32,17.03.61.38.13.75.31,1.11.51Z"/>
  <path class="cls-13" d="M37.7,77.55c5.73-1.24,12.01-1.19,17.75,0-.08,2.98.71,6.08-2.03,8.14-.35.26-1.97,1.11-2.22,1.11h-19.04v5.18l-.3-13.42c.46-1.57,4.5-.98,5.84-1Z"/>
  <path class="cls-2" d="M61.73,92.34c1.35,2.87,2.47,7.95,5.41,9.56,1.09.6,2.53.61,3.72,1.09,4.51,1.82,6.78,5.86,7.15,10.59.65,8.21-.04,18.04-.01,26.45h-.37l-.74-.35v-25.83l.74-.45c-4.79-.25-9.6-.37-14.42-.37.13-5.93.46-12.86-5.2-16.43-2.56-1.61-6.07-1.43-7.74-4.28,3.81-.01,7.65.06,11.46,0Z"/>
  <path class="cls-8" d="M51.01,26.53c2.51.3,4.29,2.32,5.2,4.6l3.3,20.17c-6.67-.08-13.81-.45-20.33-.37-.32-.75.29-1.43.37-1.85l.49-.7c6.75.11,11.34.07,10.38-8.01-.52-4.39-1.48-8.93-2.65-13.17.51-.92,1.59-1.15,3.23-.67Z"/>
  <path class="cls-1" d="M62.84,182.92c.13,2.45-1.64,4.02-3.91,4.4-12.18.36-24.42-.37-36.59.03-.71.02-1.48-.38-1.28.74-.46-2.08-.32-3.44-.37-5.55,13.62.18,27.27-.22,40.9-.03.67,0,1.18.4,1.25.4Z"/>
  <path class="cls-7" d="M51.01,26.53c-.41-.05-2.6-.11-2.59.19.11.69.52,1.25.65,1.94.68,3.75,2.28,10.89,2.33,14.34.09,6.29-7.27,6.45-11.84,6.08.91-5.07,1.25-13.8,3-18.26,1.23-3.14,5.14-5.59,8.46-4.3Z"/>
  <path class="cls-2" d="M60.62,66.83v10.72c-1.72-.02-3.46.01-5.18,0-5.9-.04-11.85-.1-17.75,0v-3.33l.28-.82c3.15-.29,6.32-.38,9.51-.25,3.71-.31,5.34-1.59,5.07-5.59l.68-.73c2.44-.32,4.97-.27,7.39,0Z"/>
  <path class="cls-15" d="M53.23,66.46c.32.1.32.23,0,.37,1.15,10.42-9.37,5.81-15.53,7.39,0-1.06.26-7.13,0-7.4-.19-.19-2.54.37-3.7-.37h19.23Z"/>
  <path class="cls-1" d="M51.28,21.62c-1.41,1.41-4.32.79-4.69-1.2-.28-1.5-.28-11.42,0-12.92.47-2.52,4.95-3.16,5.5.76.32,2.32.31,8.69.04,11.07-.07.61-.44,1.88-.85,2.29Z"/>
  <path class="cls-15" d="M68.29,13.66c2.45-.51,4.19,1.89,3.01,4.14-.33.62-8.08,8.41-8.84,8.9-2.75,1.76-5.53-1.26-3.68-4.05.75-1.13,6.92-7.24,8.13-8.14.45-.33.79-.73,1.39-.85Z"/>
  <path class="cls-15" d="M27.45,14.42c.3-.32,1.79-.86,2.28-.83,1.89.1,8.4,8.15,10.37,9.62,1,3.24-1.81,5.16-4.63,3.15-1.07-.76-7.21-6.93-7.92-7.98-.76-1.14-1.11-2.88-.11-3.96Z"/>
  <path class="cls-13" d="M53.97,56.85c-.27,3.28-3.7,4.23-6.46,4.45-4.58.36-9.62-.29-14.25-.01,0-1.48,0-2.96,0-4.44,6.68.36,13.95-.02,20.7,0Z"/>
  <path class="cls-3" d="M64.32,66.46c-1.33.62-2.28.33-3.7.37-2.46.07-4.94-.05-7.39,0v-.37h11.09Z"/>
  <path class="cls-11" d="M77.63,113.42v26.62c-4.89,2.56-9.61,5.44-14.42,8.13,0-11.58,0-23.18,0-34.75,4.79-.51,9.62-.3,14.42,0Z"/>
  <path class="cls-15" d="M42.14,138.56l.58-.74c5.94-.32,8.89-7.1,6.11-12.06l.33-.87c4.39-.08,8.41,3.05,8.87,7.58.95,9.3-10.87,13.96-15.9,6.1Z"/>
  <path class="cls-5" d="M49.16,124.88c3.72,5.69-.02,13.86-7.02,13.68-3.84-6-.15-13.56,7.02-13.68Z"/>
  <path class="cls-14" d="M77.63,113.42c-4.8-.01-9.62.02-14.42,0-.12,0-.25,0-.37,0,.04-.18.2-.34.37-.37,3.21-.47,8.89-.04,12.39,0,.63,0,1.64-.24,2.03.38Z"/>
</svg>