<?xml version="1.0" encoding="UTF-8"?>
<svg id="Layer_18" data-name="Layer 18" xmlns="http://www.w3.org/2000/svg" viewBox="0 0 200 200">
  <defs>
    <style>
      .cls-1 {
        fill: #9e5969;
      }

      .cls-2 {
        fill: #fe908a;
      }

      .cls-3 {
        fill: #fe6c73;
      }

      .cls-4 {
        fill: #9d5969;
      }

      .cls-5 {
        fill: #fe8e88;
      }

      .cls-6 {
        fill: #fec1b5;
      }

      .cls-7 {
        fill: #fea29b;
      }

      .cls-8 {
        fill: #fe8f89;
      }

      .cls-9 {
        fill: #feb2a8;
      }

      .cls-10 {
        fill: #fee0e0;
      }

      .cls-11 {
        fill: #fefefe;
      }
    </style>
  </defs>
  <path class="cls-4" d="M151.73,84.95l-.84.34c-2.45-1.65-5.53-2.46-8.47-2.03-.4-1.22-.61-2.51-.62-3.87l-.84-.98c-.46-7.88-.96-16.22-3.98-23.61-3.65-8.92-8.97-12.08-17.43-15.45-5.88-6.28-12.01-11.43-21.02-12.46-15.92-1.8-20.89,10.56-25.83,22.92-3.44,6.59-7.28,9.8-13.16,14.02-4.76,4.51-5.19,11.55-5.39,17.76l-.82.97-.6.67c-2.81-.37-5.76.5-8.09,2.06l-.83-.34c-2.77-17.05-6.12-35.61,3.41-51.14C58.94,14.72,80.65-.05,103.88,2.88c18.96,2.39,37.26,17.07,46.07,33.66,7.58,14.28,4.23,33.12,1.78,48.41Z"/>
  <path class="cls-6" d="M138.24,111.93c.75,1.27,1.24,2.62,1.78,3.99.22.55.01,1.3.99,1.17.81,1.73,1.47,3.67,1.97,5.82l3.91,9.97c1.76,5.3,2.98,12.3-.33,17.14-2.02,6.91-6.59,13.25-6.74,21.03l.79.61c.07,3.04,1.1,6.06,2.24,8.93l6.75,15.78,18.71.06.47.79c-.41.66-1.5.4-2.18.4-35.61.44-71.3,0-106.92,0-1.05-.04-1.06-.89-.41-1.63.6-.68,6.97-.86,6.36,1.23l.28-.73c20.95-.08,41.92-.1,62.91-.07-1.31-9.48-4.08-18.72-7.42-27.58-.41-1.33-.97-4.8-.23-5.74-.85-1.9.1-4.93.78-6.98,1.02-3.06,2.84-5.97,4.59-8.67,2.97-3.24,5.42-6.74,7.36-10.5.1-3.83-.38-7.71-1.47-11.66l.65-1.06c-.36,0-.8-.11-.86-.43-.57-2.98-1.87-10.13.71-12.23,1.41-1.15,4.44-1.29,5.3.36Z"/>
  <path class="cls-6" d="M62.48,124.22l.65,1.06c-1.06,3.89-1.55,7.72-1.48,11.48,2.35,4.47,5.21,8.69,8.57,12.68,2.47,3.67,3.98,7.97,4.75,12.33l-.59,1.33.61.56-.84,5.18c-3.48,8.76-5.64,18.01-7.75,27.28l-.75,1.1c-1.44-.97-3.29-.93-4.98-.79-1.21.1-1.02-.21-.97,1.19-10.24,0-20.51.11-30.75,0-.67,0-1.76.25-2.18-.4.03-.31.14-.78.36-.79,6.15-.27,13.25-.1,18.95.22,3.05-7.19,5.87-14.46,8.47-21.81.04-1.66.44-2.93,1.18-3.79-.15-7.78-4.73-14.11-6.74-21.03-3.67-5.82-1.46-14.05.55-20.23l4.42-11.51c-.01-.54-.02-.87.59-1.18.02-.04.61.13.78-.29.59-1.41.71-3.3,2-4.47.15-2.5,4.49-1.94,5.82-.25,1.65,2.09.95,9.02.22,11.52l-.89.63Z"/>
  <path class="cls-7" d="M55.73,171.03c.04,2.16-.2,3.33-.78,5.37-1.97,6.9-5.99,13.94-8.41,20.75l-19.77.07c-3.93-1.51-2.06-4.46-.56-7.11,6.54-11.55,17.34-15.62,29.52-19.07Z"/>
  <path class="cls-7" d="M168.79,197.22l-19.77-.07c-2.44-6.81-6.43-13.82-8.41-20.75-.58-2.03-.82-3.21-.78-5.37,12.22,3.5,22.96,7.49,29.52,19.07,1.5,2.65,3.37,5.59-.56,7.11Z"/>
  <path class="cls-10" d="M59.3,102.01l.54-.05c.88,1.15,2.29,1.43,4.22.84.87-.99,3.42.37,2.38,1.59l.83.35c.03,1.27,1.08,2.08,3.14,2.43,1.08-.53,2.83,1.72,1.59,2.38.35.42.44.99.27,1.71.34,1.01.91,1.89,1.72,2.65,1.42-.9,2.25,2.48.79,2.78-.46,1.79-.53,2.93,0,4.76,1.4.13.72,3.55-.79,2.78l.08.54c-.97.48-2.26,1.34-1.74,2.74l-.72.69c1.61,1.09-1.51,3.72-2.78,2.78l-.9.24c-2.19-1.82-4.28-4.53-5.45-6.99.35-2.75,1.93-10.03-.19-11.91-1.29-1.15-3.69-1.16-4.97,0,.35-1.03-1.48-.85-2.78-1.19.11-.71.68-.99,1.71-.83-1.03-2.45-1.33-4.82-.92-7.11-.82-2.11,3.47-2.86,3.97-1.19Z"/>
  <path class="cls-10" d="M140.63,102.41c.33,2.49.07,5.14-.79,7.93.65-.1,1,.08,1.19.79-.61.16-2.31.77-2.78.79-1.58.07-3.12-1.26-4.97.39-2.12,1.89-.54,9.16-.19,11.91-1.22,2.58-3.41,5.33-5.7,7.26l-1.04-.12c-1.03-.02-2.78-1.75-2.38-2.78-.34-.65-.56-1.45-.64-2.4-.67-.66-1.25-1.31-1.74-1.97-1.31.69-1.94-2.19-.79-2.78.98-1.97,1.1-2.71,0-4.76-1.1-.47-.5-3.1.79-2.78l.28-.78c1.23-.59,1.8-1.78,1.71-3.59-.71-1.1.39-2.44,1.59-2.38.29-.46.79-.61,1.5-.46,1.08-.42,1.9-1.33,2.47-2.72-.2-1.17,2.2-2.34,2.78-1.19.41-.19.95-.05,1.61.41,1.04-.42,1.96-.56,2.75-.41-.24-2.4,3.58-1.89,4.36-.4Z"/>
  <path class="cls-7" d="M53.35,82.57c1.16,2.53,1.41,6.93.4,9.52l-.89.39c-2.03-1.28-7.26-1.02-4.89,2.03.69.01,7.23,1.82,5.77,2.62-.46.25-1.1-.81.42-.28,1.55,1.59,1.87,4.37,1.19,6.35.54,2.68,1.19,5.32,1.98,7.93h-2.78c-9.02-2.39-15.1-10.44-13.85-20,.23-1.78,1.8-4.99,3.14-6.18,2.03-1.8,6.9-3.19,9.52-2.38Z"/>
  <path class="cls-7" d="M141.82,79.4l.4,3.17c2.59-.79,7.46.55,9.52,2.38,1.34,1.19,2.91,4.41,3.14,6.18,1.24,9.48-4.83,17.69-13.85,20h-2.38c.73-2.91,1.45-5.77,1.98-8.73-1.01-1.08-.5-3.68.79-4.36l.73-1.78c7.03-2.05,8.16-3.53,3.39-4.46-1.43.46-2.54.42-3.33-.11-.32-.43-.67-.91-.73-1.46-.27-2.61-.46-6.74-.38-9.35l.71-1.49Z"/>
  <path class="cls-7" d="M54.54,117.08c-.04.06.43.7.14,1.49-3.92,10.59-9.1,19.79-5.69,31.44-7.46-4.79-5.46-15.65-3.28-22.92,1.07-3.56,3.78-12.84,8.83-10.01Z"/>
  <path class="cls-7" d="M146.58,150.01c4.03-13.81-2.89-19.68-5.69-31.44-.11-.46-.21-1.14.14-1.49.18-.18,1.52-.66,1.84-.68,3.55-.17,6.16,7.93,6.99,10.69,2.18,7.28,4.12,18.11-3.28,22.92Z"/>
  <path class="cls-9" d="M141.82,79.4c.2,4.07.65,8.22.4,12.3,1.49,1.49.24,4.66-.79,6.35-.19,1.4-.54,2.95-.79,4.36-1.14.08-2.22-.53-3.37-.44-.79.06-.67.59-1,.83-1.18-2.53-2.81-1.75-4.36,0-.33-.1-2.37,1.18-2.78,1.19l-.66.67c-1.44-.78-2.66.56-2.41,2.05l-.89.45c-.31.78-1.21,1.57-1.59,2.38-2.05.82-2.45,2.21-1.98,4.36-.47.53-.53,2.51-.79,2.78l-.84,2.56.84,2.2c.13.18.3,2.48.79,2.78-.66,2.52.45,3.39,2.38,4.36.18.04,2.61,2.18,2.38,2.78l-.16,1.26c-3.59,3.42-7.4,6.69-11.67,9.25l-1.26-.2c-2.22,2.87-7.36,4.3-10.98,4.96-2.77.5-5.6.54-8.38.1-3.81-.6-9.22-2.09-11.58-5.06l-1.3.18c-4.41-2.64-8.33-6.02-12.01-9.59l-.18-1.3c.93-.7,2.75-1.39,2.78-2.78,2.65-.53,2.98-1.43,2.38-3.97.87-.46.69-2.67.79-2.78-.06-.31-.06-.69.18-.81,2.07-.97.92-2.52-.18-3.95,0-.75-.11-2.42-.79-2.78.7-2.18.1-3.39-1.98-4.36-.07-.84-1.52-1.86-1.59-2.38l-.49-.33c.19-2.19-1.59-2.64-3.47-2.44-.38-1.06-2.03-1.12-2.38-1.59l-.9-.21c-.25-1.93-2.69-1.45-3.86-.58-.27-.18-4.51-.1-3.97,1.19-.42-2.08-.91-4.24-1.19-6.35-1.33-1.07-1.49-3.44-.4-4.76-.28-3.29-.47-6.17-.4-9.52.11-5.22.41-11.25,2.97-15.87s7.27-6.35,10.73-9.89c8.37-8.58,7.62-22.47,19.09-28.51,9.29-4.89,20.68-1.56,28.3,4.89,1.85,1.57,3.68,4.2,5.57,5.53,2.09,1.47,5.22,2.07,7.63,3.48,12.38,7.22,13.54,24.4,14.16,37.21Z"/>
  <path class="cls-7" d="M81.91,148.82c8.84,7.42,22.72,7.74,31.74,0l.95.94c.81,4.48,2.62,9.14,6.33,11.95l.26,1.39c.5.8.61,4.04,1,5.55.77,3,2.4,6.2,3.34,9.36,1.86,6.25,3.18,12.83,4.4,19.21h-64.27c1.22-6.39,2.54-12.95,4.4-19.21.94-3.16,2.56-6.36,3.34-9.36.39-1.51.5-4.75,1-5.55l.18-1.2c3.68-3.01,5.64-7.57,6.42-12.2l.94-.88Z"/>
  <path class="cls-11" d="M133.09,124.22c.41,3.26,1.85,8.56,1.84,11.38-.02,3.99-5.51,9.08-7.72,12.3-1.73,2.52-3.83,6.26-4.72,9.17-.61,1.99-.75,4.05-1.3,6.04-.39-.63-2.06-1.71-2.77-2.59-2.77-3.43-4.18-7.36-4.77-11.69-1.5-1.33-1.6-5.59-.4-7.14,4.41-2.38,9.51-6.79,13.09-10.31.83-.81,1.79-1.49,2.58-2.38,1.34-1.48,2.31-3.97,4.16-4.77Z"/>
  <path class="cls-11" d="M68.82,130.97c3.71,3.73,8.87,8.22,13.49,10.71,1.2,1.55,1.11,5.82-.4,7.14-.6,4.23-1.96,8.21-4.77,11.69-.7.87-2.39,1.97-2.77,2.59-.63-4.22-1.73-7.77-3.76-11.51-2.28-4.21-9.96-11.9-9.98-15.99-.01-2.82,1.43-8.11,1.84-11.38,1.85.8,2.83,3.28,4.16,4.76.69.77,1.53,1.32,2.19,1.98Z"/>
  <path class="cls-8" d="M64.06,102.8c-.67,1.52-3.12,1.26-4.2.42-.49-.38-.5-1.18-.56-1.21.04-2.05,2.8-1.74,3.95-.98.74.49.58,1.46.81,1.77Z"/>
  <path class="cls-8" d="M74.77,116.69c2.14-.3,2.59,3.2,1.38,4.37-.5.49-1.34.33-1.38.39-1.79-.48-1.63-4.53,0-4.76Z"/>
  <path class="cls-8" d="M70.41,107.17c-1.15.94-3.23-.1-3.76-1.21-.31-.64-.09-1.26-.2-1.57.93-1.85,3.79-.32,4.2,1.18.19.69-.27,1.27-.23,1.6Z"/>
  <path class="cls-8" d="M73.98,113.91c-.17-.09-.76.05-1.17-.2-1.17-.71-1.92-3.13-.81-4.16,1.67-1.56,4.8,3.29,1.98,4.36Z"/>
  <path class="cls-5" d="M73.98,124.22c2.62,1.34.09,5.79-2.38,3.97.02-1.08-.74-1.26.46-2.91.97-1.33,1.26-.7,1.92-1.05Z"/>
  <path class="cls-8" d="M131.9,102.8c-.58-2.97,5.52-3.42,4.36,0-.85.64-1.67,1.32-2.97,1.19-1.03-.1-1.3-1.16-1.39-1.19Z"/>
  <path class="cls-8" d="M123.57,109.55c1.72,1.21-.14,4.63-1.98,4.36-2.25-.33-.35-6.01,1.98-4.36Z"/>
  <path class="cls-2" d="M120.79,116.69c2.19.36,2.24,4.4,0,4.76-.38-.52-1.74.21-1.62-2.59.1-2.38,1.08-1.62,1.62-2.17Z"/>
  <path class="cls-5" d="M123.96,128.59c-.27-.06-.81.38-1.47.11-1.51-.61-2.95-3.56-.91-4.47.17.1.82-.03,1.4.37,1.18.82,1.86,2.66.98,3.99Z"/>
  <path class="cls-5" d="M129.12,103.99c.75,2.21-1.96,4.39-3.97,3.17.34-.86-.4-2.19,1.37-3.19,1.52-.86,1.88.04,2.6.02Z"/>
  <path class="cls-3" d="M53.75,92.09c.13,1.58.19,3.18.4,4.76l-.59.79c-1.38-2.64-6.57-1.04-6.95-3.79-.54-3.83,5.02-3.26,7.15-1.76Z"/>
  <path class="cls-3" d="M141.42,98.04c.26-1.95.68-4.47.79-6.35,2.25-.82,7.29-1.65,6.75,2.16-.36,2.59-6.07,1.42-7.55,4.19Z"/>
  <path class="cls-3" d="M113.25,141.68c.08,2.25.1,4.93.4,7.14.45,1.99-1.86,2.57-3.3,3.24-4.05,1.87-10.2,3.95-14.65,3.4-2.45-.3-11.57-3.39-13.31-4.92-.72-.63-.54-.83-.48-1.73.31-2.2.31-4.9.4-7.14,11.3,6.1,19.64,6.1,30.94,0Z"/>
  <path class="cls-3" d="M85.33,114.8c3.1,1.12,7.02-.42,9.88-.11.99.11,1.7.76,2.4.81.88.06,1.69-.7,2.74-.81,1.49-.16,2.64.41,3.96.43,1.72.02,7.29-.94,7.34,1.36.08,3.3-8.1,2.71-10.08,3.01-1.33.2-2.31,1.24-3.98,1.18-1.39-.04-2.42-1-3.61-1.18-2.48-.38-13.81.17-8.66-4.69Z"/>
  <path class="cls-1" d="M118.33,65.63c4.29-.31,15.46,1.29,18.87,3.9.48.37.86.64.64,1.33-.41,1.33-5.97-.47-7.34-.58-3.95-.33-9.46-.18-13.5-.03-2.28.09-8.13,2.24-7.33-1.76.23-1.18,3.89-2.15,5.15-2.4.99-.2,2.5-.38,3.51-.45Z"/>
  <path class="cls-1" d="M58.11,71.46c-.74-2.35,1.97-2.79,3.87-3.47,4.1-1.47,10.24-2.66,14.57-2.48,1.77.08,12.63,1.52,8.95,4.97-1.2,1.13-4.42-.15-6.15-.23-7.09-.32-14.3-.14-21.24,1.21Z"/>
  <path class="cls-1" d="M127.84,82.67c1.43-.17,3.45.15,4.17,1.6.98,2-1.19,1.42-1.79,1.59-3.89,1.09-6.56,3.82-11.22,4.25-2.03.19-8.08-.37-8.47-3.06s3.83-1.16,5.3-1.12c4.93.1,8.07-2.78,12.01-3.25Z"/>
  <path class="cls-1" d="M65.95,82.65c3.1-.58,9.25,3.38,14.04,3.25,1.4-.04,5.45-1.62,5.05,1.13s-6.97,3.25-9.17,2.97c-4.1-.52-6.45-2.87-9.91-4.01-.77-.25-1.66.11-2.1-.22-1.52-1.14.78-2.88,2.1-3.13Z"/>
  <path class="cls-3" d="M92.92,100.09c1.9-.36,2.9,2.19,6.17,1.44,1.38-.32,3.16-2.85,4.83-.68,2.33,3.03-4.15,5.64-6.61,5.45-1.73-.13-5.91-1.86-6.2-3.78-.17-1.1.74-2.22,1.82-2.43Z"/>
  <path class="cls-3" d="M95.21,123.21c.7,0,1.5.62,2.39.64,1.46.04,4.18-1.38,4.87,1.06,1.44,5.07-10.44,4.7-9.78.4.17-1.08,1.43-2.11,2.52-2.1Z"/>
</svg>