<?xml version="1.0" encoding="UTF-8"?>
<svg id="Layer_18" data-name="Layer 18" xmlns="http://www.w3.org/2000/svg" viewBox="0 0 200 200">
  <defs>
    <style>
      .cls-1 {
        fill: #f5e3f8;
      }

      .cls-2 {
        fill: #fed0c1;
      }

      .cls-3 {
        fill: #f8e6fb;
      }

      .cls-4 {
        fill: #e9b65c;
      }

      .cls-5 {
        fill: #fc8d69;
      }

      .cls-6 {
        fill: #fed16d;
      }

      .cls-7 {
        fill: #e3d0e7;
      }

      .cls-8 {
        fill: #e8d8e7;
      }

      .cls-9 {
        fill: #ed765f;
      }

      .cls-10 {
        fill: #dbc6be;
      }

      .cls-11 {
        fill: #dbc4ba;
      }

      .cls-12 {
        fill: #dab0a1;
      }

      .cls-13 {
        fill: #a39892;
      }
    </style>
  </defs>
  <path class="cls-1" d="M187.99,159.97v34.39H12.51c-.03-5.22.03-10.46,0-15.68l.48-1.01h143.32c2.52-.19,2.82-2.25,1.47-4.03l.11-1.02-.48,1.01H13.14l-.63-1.01c1.61.41,1.54,5.52,0,6.07,0-.09-.52-.79-.54-1.71-.11-5.52,1.1-11.36.54-17,9.74-.46,19.49-.85,29.24-.87,38.99-.08,78-.07,117,0,9.75.02,19.5.41,29.24.86Z"/>
  <path class="cls-13" d="M71.68,6.24l.69.29c-.79.64-.53,2.26-.18,3.25l1.08.63c.55,3.98,3.75,6.8,7.65,7.4,12.71.34,25.71.47,38.44.03,2.75-.09,6.94-3.7,7.34-6.55l1.11-.49c.42-1.3.6-3.13-.2-4.21l.7-.35c14.17.03,32.14-1.34,45.79-.03,3.44.33,4.24,1.29,5.14,4.47,1.39,4.93,3.74,15.71,4.13,20.65.66,8.17-5.03,6.16-11.06,6.26-2.06.3-4.13.58-6.2.78s-4.15.4-6.22.43c-41.82.55-83.7.8-125.5-.44l-6.2-.77c-5.45-.09-12.16,1.98-11.57-5.75.33-4.32,3.02-17.81,4.4-21.9.93-2.75,2.57-3.46,5.38-3.72,13.59-1.27,31.21.05,45.28.02Z"/>
  <path class="cls-13" d="M69.66,141.26c.83-.39,1.69-.38,2.53,0,7.91-1,15.85-.99,23.77,0,2.68-1,5.41-1,8.09,0,20.89-1.39,41.82-1.42,62.71,0,10.1-.62,20.22-.62,30.34,0v18.71c-3.02,0-6.08-.02-9.1,0-58.46.36-117.02.33-175.48,0-3.2-.02-6.41.01-9.61,0v-18.71c22.25-.34,44.51-.57,66.75,0Z"/>
  <path class="cls-5" d="M170.8,140.25c-.97.6-2.31.94-4.05,1.01-20.89-.03-41.81.01-62.71,0l-.73-.97c1.19-5.61-1.37-9.78-7.1-10.58-3.26-.45-22.47-.92-24.31.58-2.92,2.38,2.45,4.14,4.54,3.57,6.63-.24,13.25-.25,19.87-.03,4.31,1.51,4.44,6.85-.37,7.44-7.91,0-15.85,0-23.77,0-.88-.17-1.72-.33-2.53-.51-.71.36-2.3.31-2.53-.51-14.73-5-11-26.33,4.81-26.33l97.38,7.84c9.19,2.46,10.19,14.68,1.49,18.49Z"/>
  <path class="cls-6" d="M172.31,37.59c-1.77,15.88-16.53,12.54-28.32,12.64-.61,1.51-5.24,2.04-6.07.51-.34,0-1.3-.53-2.24-.53-24.12.11-48.24,0-72.36-.01l-1.26,1.05h-5.45s-.62-1.01-.62-1.01c-11.01-.14-27.34,3.04-27.81-12.64,47.56.76,96.57.82,144.12,0Z"/>
  <path class="cls-2" d="M39.32,140.75c-2.35.37-4.72.37-7.08,0-16.96-6.08-7.08-30.9,9.1-23.51,10.58,4.83,8.58,19.99-2.02,23.51Z"/>
  <path class="cls-4" d="M144,50.23l15.59,52.48c.58,3.84-4.61,5.32-6,1.91l-15.65-53.88c1.48,0,4.02-.49,6.07-.51Z"/>
  <path class="cls-4" d="M56,50.23c1.03.01,5.83-.18,6.07,0,.08.06-.05.72,0,1.01l-15.28,52.74c-1.08,3.85-6.74,3.2-6.13-1.06l15.34-52.69Z"/>
  <path class="cls-4" d="M136.8,102.71c-2.12,2.12-4.53.2-5.47-2.13-2.52-6.27-8-25.92-8.96-32.51-.89-6.15,4.05-7.31,5.97-2.43,2.38,6.05,8.22,26.83,8.95,33.02.13,1.13.35,3.2-.5,4.05Z"/>
  <path class="cls-4" d="M74.08,62.97c2.44-.5,4.46,1.04,4.09,3.57l-9.49,34.55c-1.66,4.07-7.06,2.42-5.98-1.92l9.45-34.56c.24-.92,1.03-1.46,1.93-1.64Z"/>
  <path class="cls-4" d="M102.41,105.74c-1.55,1.55-5.58.51-5.47-2.13.98-10.88-1.22-23.79.02-34.42.5-4.33,5.61-4.4,6.1-.52-.76,11.15.92,23.42,0,34.44-.07.78-.09,2.08-.65,2.64Z"/>
  <path class="cls-10" d="M69.66,140.75c.44.14.44.31,0,.51-22.24.01-44.51-.01-66.75,0,.53-.84,1.92-.5,2.77-.51,8.84-.11,17.72.01,26.56,0,2.35,0,4.73,0,7.08,0,9.24,0,18.76-.51,27.81-.51.3,0,1.69.43,2.53.51Z"/>
  <path class="cls-8" d="M128.32,6.24c-.19,1.43.54,3.52-.51,4.55-.79-.5-1.2-1.51-1.24-3.04h-53.04c-.23.94-.68,1.61-1.34,2.03-.96-.72-.39-2.43-.51-3.54,18.87-.04,37.77-.04,56.64,0Z"/>
  <path class="cls-11" d="M170.8,140.25c7.57.03,15.73.42,23.52.5.86,0,2.25-.32,2.77.51-10.11-.01-20.24.02-30.34,0,.83-.48,3.17-1.01,4.05-1.01Z"/>
  <path class="cls-7" d="M12.51,178.68v-6.07h145.39c1.22,0,3.73,5.46-1.51,6.08H12.51Z"/>
  <path class="cls-3" d="M72.19,9.78c-.06-1,.04-2.03,0-3.04h55.34c.47.06.37,3.39.29,4.05-.51,4.18-4.42,7.26-8.39,8.05-12.21-.74-25.87,1.14-37.9.06-4.99-.45-9.03-4.03-9.33-9.12Z"/>
  <path class="cls-9" d="M104.05,141.26c-2.69,0-5.4,0-8.09,0,3.03-1.72,3.76-5.03.14-6.47-7.16-.7-15.1.56-22.17-.09-5.13-.47-5.13-5.64,0-6.12,3.86-.35,21.99-.49,24.83.5,4.77,1.67,7.13,7.48,5.29,12.16Z"/>
  <path class="cls-12" d="M72.19,141.26c-.84,0-1.69,0-2.53,0v-.51c.8.08,2.09-.35,2.53.51Z"/>
</svg>