<?xml version="1.0" encoding="UTF-8"?>
<svg id="Layer_18" data-name="Layer 18" xmlns="http://www.w3.org/2000/svg" viewBox="0 0 200 200">
  <defs>
    <style>
      .cls-1 {
        fill: #f3eaa0;
      }

      .cls-2 {
        fill: #ede8da;
      }

      .cls-3 {
        fill: #f39a38;
      }

      .cls-4 {
        fill: #ede8db;
      }

      .cls-5 {
        fill: #ede9dc;
      }

      .cls-6 {
        fill: #f0ebdd;
      }

      .cls-7 {
        fill: #f0ecdf;
      }

      .cls-8 {
        fill: #f0ece0;
      }

      .cls-9 {
        fill: #f0eadc;
      }

      .cls-10 {
        fill: #eee8da;
      }

      .cls-11 {
        fill: #efeadd;
      }

      .cls-12 {
        fill: #ece8da;
      }

      .cls-13 {
        fill: #af6873;
      }

      .cls-14 {
        fill: #8a3c4c;
      }

      .cls-15 {
        fill: #f0eadd;
      }

      .cls-16 {
        fill: #f4bf62;
      }

      .cls-17 {
        fill: #eee9dc;
      }

      .cls-18 {
        fill: #eee9db;
      }

      .cls-19 {
        fill: #f5c06a;
      }

      .cls-20 {
        fill: #ede8d9;
      }

      .cls-21 {
        fill: #f3504c;
      }

      .cls-22 {
        fill: #eee8db;
      }

      .cls-23 {
        fill: #b06873;
      }

      .cls-24 {
        fill: #ede9db;
      }

      .cls-25 {
        fill: #f0ebdc;
      }

      .cls-26 {
        fill: #f3d069;
      }

      .cls-27 {
        fill: #fefefe;
      }

      .cls-28 {
        fill: #f0ebde;
      }

      .cls-29 {
        fill: #e5ebf1;
      }

      .cls-30 {
        fill: #eee9da;
      }

      .cls-31 {
        fill: #f3c76f;
      }

      .cls-32 {
        fill: #f36e47;
      }

      .cls-33 {
        fill: #eee8d9;
      }

      .cls-34 {
        fill: #f0ebdf;
      }
    </style>
  </defs>
  <path class="cls-29" d="M148.22,20.51c.11-.34.24-.33.39,0-.04.71-.33,1.33-.39,1.93-.26.61-.39,1.25-.39,1.93-.03.25.03.52,0,.77l-.39,2.31c0,.13,0,.26,0,.39l-.39,1.93c-.03.25.03.52,0,.77-.27.6-.4,1.24-.39,1.93-.03.25.03.52,0,.77-.27.6-.4,1.24-.39,1.93-.03.25.03.52,0,.77-.27.6-.4,1.24-.39,1.93-.03.25.03.52,0,.77-.27.6-.4,1.24-.39,1.93-.03.25.03.52,0,.77-.27.6-.4,1.24-.39,1.93-.03.25.03.52,0,.77-.27.6-.4,1.24-.39,1.93-.03.25.04.52,0,.77-.27.6-.4,1.24-.39,1.93-.04.25.04.52,0,.77-.27.6-.4,1.24-.39,1.93-.04.25.04.52,0,.77-.27.6-.4,1.24-.39,1.93-.04.25.04.52,0,.77-.27.6-.4,1.24-.39,1.93-.03.25.04.52,0,.77-.27.6-.4,1.24-.39,1.93-.04.25.04.52,0,.77-.27.6-.4,1.24-.39,1.93-.04.25.04.52,0,.77-.27.6-.4,1.24-.39,1.93-.04.25.04.52,0,.77-.27.6-.4,1.24-.39,1.93-.04.25.04.52,0,.77-.27.6-.4,1.24-.39,1.93-.04.25.04.52,0,.77-.27.6-.4,1.24-.39,1.93-.04.25.04.52,0,.77-.27.6-.4,1.24-.39,1.93-.04.25.04.52,0,.77-.27.6-.4,1.24-.39,1.93-.04.25.04.52,0,.77-.27.6-.4,1.24-.39,1.93-.04.25.04.52,0,.77-.27.6-.4,1.24-.39,1.93-.04.25.04.52,0,.77-.27.6-.4,1.24-.39,1.93-.04.25.04.53,0,.77-.27.6-.4,1.24-.39,1.93-.04.25.04.53,0,.77-.27.6-.4,1.24-.39,1.93-.04.25.04.53,0,.77-.27.6-.4,1.24-.39,1.93-.04.25.04.53,0,.77-.27.6-.4,1.24-.39,1.93-.04.25.04.53,0,.77-.27.6-.4,1.24-.39,1.93-.04.25.04.53,0,.77-.27.6-.4,1.24-.39,1.93-.04.25.04.53,0,.77-.27.6-.4,1.24-.39,1.93-.04.25.04.53,0,.77-.27.6-.4,1.24-.39,1.93-.04.25.04.53,0,.77-.27.6-.4,1.24-.39,1.93-.04.25.04.53,0,.77-.27.6-.4,1.24-.39,1.93-.04.25.04.53,0,.77-.27.6-.4,1.24-.39,1.93-.02.13.02.26,0,.39l-1,2.05-15.1,14.76-.87-.23c.3-4.84.75-9.67,1.36-14.49l11.35-79.03c-.91-4.04-3.97-4.15-7.72-4.25l-9.33.2-.67-.77-.3-.79c4.14-4.25,8.28-8.51,12.42-12.77l1.76-.71.36-.77h20.78l.46.77Z"/>
  <path class="cls-31" d="M126.63,20.51l-13.88,14.27c-.07.34-.2.33-.39,0l-1.71.75c-10.81-.43-21.62-.53-32.42-.3-4.03.05-8.72.12-8.68,5.09l4.42,31.75-.55,1.66-.64,1.75-8.95,9.26c-1.55,1.9-2.59,2.22-3.13.95-1.52-21.5-7.62-43.88-9.26-65.17.11-.34.24-.33.39,0,24.94-.76,49.88-.76,74.81,0Z"/>
  <path class="cls-29" d="M99.63,151.25l.31.79-12.54,12.88c-.56.48-1.24.81-2.04.99-.74.54-1.62.89-2.64,1.05l-.13,5.92-.7.74c-.85.45-1.02-.05-1.11-.89l-.06-6.06h-7.92s-.55-.77-.55-.77c-.02-.38.03-.77,0-1.16,0-.68-.12-1.32-.39-1.93-.03-.25.03-.52,0-.77.01-.68-.12-1.32-.39-1.93-.03-.25.03-.52,0-.77.01-.68-.11-1.32-.39-1.93-.03-.25.03-.52,0-.77.01-.68-.11-1.32-.39-1.93-.03-.25.03-.52,0-.77.01-.68-.11-1.32-.39-1.93-.03-.25.03-.52,0-.77.02-.68-.11-1.32-.39-1.93-.03-.25.03-.52,0-.77.02-.68-.11-1.32-.39-1.93-.03-.25.03-.52,0-.77.02-.68-.11-1.32-.39-1.93-.03-.25.03-.52,0-.77.02-.68-.11-1.32-.39-1.93-.03-.25.03-.52,0-.77.02-.68-.11-1.32-.39-1.93-.03-.25.03-.52,0-.77.02-.68-.11-1.32-.39-1.93-.03-.25.03-.52,0-.77.02-.68-.11-1.32-.39-1.93-.03-.25.03-.52,0-.77.02-.68-.11-1.32-.39-1.93-.03-.25.03-.52,0-.77.02-.68-.11-1.32-.39-1.93-.03-.25.03-.52,0-.77.02-.68-.11-1.32-.39-1.93-.03-.25.03-.52,0-.77.02-.68-.11-1.32-.39-1.93-.04-.25.04-.52,0-.77.02-.68-.11-1.32-.39-1.93-.04-.25.04-.52,0-.77.02-.68-.11-1.32-.39-1.93-.04-.25.04-.52,0-.77.02-.68-.11-1.32-.39-1.93-.04-.25.04-.52,0-.77.02-.68-.11-1.32-.39-1.93-.04-.25.04-.52,0-.77.02-.68-.11-1.32-.39-1.93-.04-.25.04-.52,0-.77.02-.68-.11-1.32-.39-1.93-.04-.25.04-.52,0-.77.02-.68-.11-1.32-.39-1.93-.04-.25.04-.52,0-.77.02-.68-.11-1.32-.39-1.93-.04-.25.04-.52,0-.77.02-.68-.11-1.32-.39-1.93-.04-.25.04-.52,0-.77.02-.68-.11-1.32-.39-1.93-.04-.25.04-.52,0-.77.02-.68-.11-1.32-.39-1.93-.04-.25.03-.52,0-.77.02-.68-.11-1.32-.39-1.93-.2-1.42-.44-2.85-.77-4.24.71.6.88.04,1.35-.37,4.03-3.54,7.58-7.8,11.38-11.58.11-.34.24-.33.39,0l.8.16,10.52,74.07c1.37,2.51,3.43,2.85,6.07,2.72l7.93-.2.51.77Z"/>
  <path class="cls-31" d="M127.78,165.9c-.08.3-.2.74-.45.77-1.09.16-7.27.19-8.24,0l-.56-.77c-.85.2-1.69.38-2.55.51s-1.7.24-2.55.25c-7.64.06-15.32.03-22.96-.06-1.72-.02-3.42-.36-5.1-.7l14.27-14.65c.07-.34.2-.33.39,0,2.43-.8,5.11-1.02,8.05-.65,6.46.71,7.15-2.47,7.77-8.11.09-3.25.73-6.24,1.92-8.98-.34-.09-.33-.22,0-.39l16.97-16.58c-2.25,15.52-6.07,34.03-6.94,49.36Z"/>
  <path class="cls-14" d="M89.22,185.57c4.24-.09,8.48-.17,12.73-.19,8.52-.04,17.04-.02,25.56,0,.42,0,.04,7.49-.1,8.29-.3,2.85-2.56,3.97-5.21,4.24-14.05,1.41-30.4-1.01-44.69-.04-6.75-.8-5.18-7.29-5.25-12.3,5.29-.32,11.5-.33,16.97,0Z"/>
  <path class="cls-3" d="M86.52,4.32c.34.11.33.24,0,.39.38-.02.66.13.83.47l-.15,4.84c-.02,2.43,1.54,2.16,3.18,1.24.37-2.13.41-4.8-.15-6.71l.54-.23c6.16,0,12.35,0,18.51,0l.54.23c-.56,1.91-.52,4.58-.15,6.71,2.88,1.74,3.88-.22,3.02-5.87l.84-.68c-.34-.11-.33-.24,0-.39,6.29,0,12.6-.02,18.9,0,.34.11.33.24,0,.39l.53.09c.27,2.51.35,5.06.24,7.63.83.88-.07,1.43-1.04,1.76-16.08-.14-32.23.1-48.43.72-4.98.02-10.45.03-15.3-.63-1.11-.15-2.33-.67-1.56-1.86-.26-.71-.25-1.58.05-2.63l-.09-4.55.81-.53c-.34-.11-.33-.24,0-.39,6.29-.02,12.6,0,18.9,0Z"/>
  <path class="cls-21" d="M127.78,165.9c-.35,6.19,0,13.01,0,19.28l-.03.51c-5.25-.27-10.9-.45-16.94-.51l-.88-.48c-.49-2.4-1.27-4.85-3.03-6.63l.05-.99.94-.69c7.7,1.07,11.14-1.54,9.95-9.52l.68-.97h9.26Z"/>
  <path class="cls-21" d="M72.25,165.9h9.26c.38.38-.58,6.68.38,7.71.61.14,1.12.63,1.5,1.47,2.63,1.32,5.63,1.73,8.98,1.21l.7.79.05.99c-1.76,1.77-2.54,4.22-3.03,6.63l-.88.48c-5.29.32-11.5.33-16.97,0-.08-6.33.33-13.01,0-19.28Z"/>
  <path class="cls-23" d="M110.82,185.18h16.97c0,2.73.33,5.89-.39,8.48.27-2.55-.2-5.5,0-8.1-12.72,0-25.46,0-38.18,0-.34-.11-.33-.24,0-.39l.36-.77h20.78l.46.77Z"/>
  <path class="cls-19" d="M67.62,4.32v.39c-.36.8-1.31,1.06-2.86.77-.26,1.5-.36,3.04-.28,4.62l-.72.78c-1.83.04-1.55-5.44-.39-6.17-.03.3-.13.75-.34.77-1.52.13-9.62.28-10.67,0l-.55-.77c.3,0,.74.06.77.26.47,3.44.28,11.46,0,15.1l-.77.45h-.39c-.4-5.22.3-10.92,0-16.2,5.39,0,10.81.02,16.2,0Z"/>
  <path class="cls-19" d="M132.41,4.32c5.39.02,10.81-.01,16.2,0-.21,5.36.28,10.85,0,16.2h-.39c-.29,0-.67-.03-.77-.26-.31-.69-.1-13.27,0-15.1l.77-.45c-.03.3-.13.75-.34.77-1.52.13-9.62.28-10.67,0l-.55-.77c1.17.73,1.44,6.21-.39,6.17l-.72-.78-.15-4.62c-1.51.28-2.51.03-2.99-.77v-.39Z"/>
  <path class="cls-13" d="M89.22,185.18v.39h-16.97c0-.13,0-.26,0-.39h16.97Z"/>
  <path class="cls-16" d="M90.76,4.32c-.23,2.21.49,4.87-.39,6.94l-.7-.66-.17-5.12c-1.51.28-2.51.03-2.99-.77v-.39c1.41,0,2.83,0,4.24,0Z"/>
  <path class="cls-16" d="M113.52,4.32v.39c-.44.72-1.45,1.04-3.03.93l-.12,4.96-.7.66c-.88-2.07-.16-4.73-.39-6.94,1.41,0,2.83,0,4.24,0Z"/>
  <path class="cls-9" d="M147.45,27.46c.02-.73-.27-1.89.39-2.31-.09.71.32,1.88-.39,2.31Z"/>
  <path class="cls-30" d="M143.98,51.37c.02-.62-.24-1.6.39-1.93-.1.74-.33,1.51-.39,1.93Z"/>
  <path class="cls-10" d="M143.6,54.07c.02-.62-.24-1.6.39-1.93-.1.74-.33,1.51-.39,1.93Z"/>
  <path class="cls-10" d="M143.21,56.77c.02-.62-.24-1.6.39-1.93-.1.74-.33,1.51-.39,1.93Z"/>
  <path class="cls-10" d="M142.82,59.46c.02-.62-.24-1.6.39-1.93-.1.74-.33,1.51-.39,1.93Z"/>
  <path class="cls-10" d="M142.44,62.16c.02-.62-.24-1.6.39-1.93-.1.74-.33,1.51-.39,1.93Z"/>
  <path class="cls-28" d="M142.05,64.86c.02-.62-.24-1.6.39-1.93-.1.74-.33,1.51-.39,1.93Z"/>
  <path class="cls-28" d="M141.67,67.56c.02-.62-.24-1.6.39-1.93-.1.74-.33,1.51-.39,1.93Z"/>
  <path class="cls-18" d="M141.28,70.26c.02-.62-.24-1.6.39-1.93-.1.74-.33,1.51-.39,1.93Z"/>
  <path class="cls-28" d="M140.9,72.96c.02-.62-.24-1.6.39-1.93-.11.74-.33,1.51-.39,1.93Z"/>
  <path class="cls-28" d="M140.51,75.66c.02-.62-.24-1.6.39-1.93-.11.74-.33,1.51-.39,1.93Z"/>
  <path class="cls-28" d="M140.13,78.36c.02-.62-.24-1.6.39-1.93-.11.74-.33,1.51-.39,1.93Z"/>
  <path class="cls-28" d="M139.74,81.06c.02-.62-.24-1.6.39-1.93-.11.74-.33,1.51-.39,1.93Z"/>
  <path class="cls-34" d="M139.35,83.76c.02-.62-.24-1.6.39-1.93-.11.74-.32,1.5-.39,1.93Z"/>
  <path class="cls-18" d="M138.97,86.46c.02-.62-.24-1.6.39-1.93-.11.74-.32,1.5-.39,1.93Z"/>
  <path class="cls-18" d="M138.58,89.16c.02-.62-.24-1.6.39-1.93-.11.74-.32,1.5-.39,1.93Z"/>
  <path class="cls-4" d="M61.84,91.86c-.06-.41-.28-1.19-.39-1.93.63.33.36,1.31.39,1.93Z"/>
  <path class="cls-34" d="M138.2,91.86c.02-.62-.24-1.6.39-1.93-.11.74-.32,1.5-.39,1.93Z"/>
  <path class="cls-4" d="M62.23,94.56c-.06-.41-.28-1.19-.39-1.93.63.33.36,1.31.39,1.93Z"/>
  <path class="cls-7" d="M137.81,94.56c.02-.62-.24-1.6.39-1.93-.11.74-.32,1.5-.39,1.93Z"/>
  <path class="cls-24" d="M62.61,97.26c-.06-.41-.28-1.19-.39-1.93.63.33.36,1.31.39,1.93Z"/>
  <path class="cls-18" d="M137.43,97.26c.02-.62-.24-1.6.39-1.93-.11.74-.32,1.5-.39,1.93Z"/>
  <path class="cls-24" d="M63,99.96c-.06-.41-.28-1.19-.39-1.93.63.33.36,1.31.39,1.93Z"/>
  <path class="cls-18" d="M137.04,99.96c.02-.62-.24-1.6.39-1.93-.11.74-.32,1.5-.39,1.93Z"/>
  <path class="cls-5" d="M63.38,102.66c-.06-.42-.28-1.19-.39-1.93.63.33.36,1.31.39,1.93Z"/>
  <path class="cls-18" d="M136.65,102.66c.02-.62-.24-1.6.39-1.93-.11.73-.32,1.5-.39,1.93Z"/>
  <path class="cls-22" d="M63.77,105.36c-.06-.42-.28-1.19-.39-1.93.63.33.36,1.31.39,1.93Z"/>
  <path class="cls-12" d="M136.27,105.36c.02-.62-.24-1.6.39-1.93-.11.73-.32,1.5-.39,1.93Z"/>
  <path class="cls-22" d="M64.15,108.06c-.06-.42-.28-1.19-.39-1.93.63.33.36,1.31.39,1.93Z"/>
  <path class="cls-7" d="M135.88,108.06c.02-.62-.24-1.6.39-1.93-.11.73-.32,1.5-.39,1.93Z"/>
  <path class="cls-4" d="M64.54,110.75c-.06-.42-.28-1.19-.39-1.93.63.33.36,1.31.39,1.93Z"/>
  <path class="cls-8" d="M135.5,110.75c.02-.62-.24-1.6.39-1.93-.11.73-.32,1.5-.39,1.93Z"/>
  <path class="cls-4" d="M64.93,113.45c-.06-.42-.28-1.19-.39-1.93.63.33.36,1.31.39,1.93Z"/>
  <path class="cls-8" d="M135.11,113.45c.02-.62-.24-1.6.39-1.93-.11.73-.32,1.5-.39,1.93Z"/>
  <path class="cls-4" d="M65.31,116.15c-.06-.42-.28-1.19-.39-1.93.63.33.36,1.31.39,1.93Z"/>
  <path class="cls-17" d="M134.73,116.15c.02-.62-.24-1.6.39-1.93-.11.73-.32,1.5-.39,1.93Z"/>
  <path class="cls-9" d="M147.84,24.37c.02-.62-.24-1.6.39-1.93-.08.86-.33,1.52-.39,1.93Z"/>
  <path class="cls-2" d="M65.7,118.85c-.06-.42-.28-1.19-.39-1.93.63.33.36,1.31.39,1.93Z"/>
  <path class="cls-22" d="M66.08,121.55c-.06-.41-.28-1.19-.39-1.93.63.33.36,1.31.39,1.93Z"/>
  <path class="cls-18" d="M66.47,124.25c-.06-.41-.28-1.19-.39-1.93.63.33.36,1.31.39,1.93Z"/>
  <path class="cls-33" d="M147.07,29.77c.02-.62-.24-1.6.39-1.93-.07.86-.35,1.6-.39,1.93Z"/>
  <path class="cls-10" d="M67.24,129.65c-.06-.41-.28-1.19-.39-1.93.63.33.36,1.31.39,1.93Z"/>
  <path class="cls-15" d="M67.62,132.35c-.06-.41-.28-1.19-.39-1.93.63.33.36,1.31.39,1.93Z"/>
  <path class="cls-11" d="M68.01,135.05c-.06-.41-.28-1.19-.39-1.93.63.33.36,1.31.39,1.93Z"/>
  <path class="cls-6" d="M146.68,32.47c.02-.62-.24-1.6.39-1.93-.09.78-.34,1.55-.39,1.93Z"/>
  <path class="cls-15" d="M68.4,137.75c-.06-.41-.28-1.19-.39-1.93.63.33.36,1.31.39,1.93Z"/>
  <path class="cls-15" d="M68.78,140.45c-.06-.41-.28-1.19-.39-1.93.63.33.36,1.31.39,1.93Z"/>
  <path class="cls-15" d="M69.17,143.15c-.06-.4-.28-1.19-.39-1.93.63.33.36,1.31.39,1.93Z"/>
  <path class="cls-6" d="M69.55,145.85c-.06-.4-.28-1.19-.39-1.93.63.33.36,1.31.39,1.93Z"/>
  <path class="cls-10" d="M69.94,148.55c-.05-.4-.28-1.19-.39-1.93.63.33.36,1.31.39,1.93Z"/>
  <path class="cls-15" d="M70.32,151.25c-.05-.39-.28-1.18-.39-1.93.63.33.36,1.31.39,1.93Z"/>
  <path class="cls-30" d="M66.85,126.95c-.06-.41-.28-1.19-.39-1.93.63.33.36,1.31.39,1.93Z"/>
  <path class="cls-33" d="M71.1,156.65c-.05-.37-.29-1.18-.39-1.93.63.33.36,1.31.39,1.93Z"/>
  <path class="cls-9" d="M71.48,159.35c-.04-.35-.29-1.18-.39-1.93.63.33.36,1.31.39,1.93Z"/>
  <path class="cls-25" d="M71.87,162.04c-.03-.3-.3-1.19-.39-1.93.63.33.36,1.31.39,1.93Z"/>
  <path class="cls-6" d="M72.25,164.74c-.01-.16-.31-1.21-.39-1.93.63.33.36,1.31.39,1.93Z"/>
  <path class="cls-6" d="M146.3,35.17c.02-.62-.24-1.6.39-1.93-.1.75-.33,1.53-.39,1.93Z"/>
  <path class="cls-15" d="M145.91,37.87c.02-.62-.24-1.6.39-1.93-.1.75-.33,1.52-.39,1.93Z"/>
  <path class="cls-20" d="M145.52,40.57c.02-.62-.24-1.6.39-1.93-.1.74-.33,1.52-.39,1.93Z"/>
  <path class="cls-10" d="M145.14,43.27c.02-.62-.24-1.6.39-1.93-.1.74-.33,1.52-.39,1.93Z"/>
  <path class="cls-6" d="M144.75,45.97c.02-.62-.24-1.6.39-1.93-.1.74-.33,1.51-.39,1.93Z"/>
  <path class="cls-10" d="M144.37,48.67c.02-.62-.24-1.6.39-1.93-.1.74-.33,1.51-.39,1.93Z"/>
  <path class="cls-20" d="M70.71,153.95c-.05-.39-.29-1.19-.39-1.93.63.33.36,1.31.39,1.93Z"/>
  <path class="cls-27" d="M117.76,133.12c-.02.13.02.26,0,.39l-1,2.09c-4.99,4.99-9.97,9.97-14.95,14.95l-1.79.69c-.13,0-.26,0-.39,0-3.13-.01-9.4.52-12.07-.08-.98-.22-2.85-2.04-3.18-2.99l-10.59-74.44c-.24-1.67.71-3.32,2.84-4.96l10.8-9.95c7.99-8.35,16.29-16.37,24.92-24.04.13,0,.26,0,.39,0,3.97.03,10.72-.58,14.29.17,2.27.48,3.85,2.41,4.19,4.68-4.57,31.15-8.82,62.36-13.47,93.49Z"/>
  <path class="cls-32" d="M51.81,20.51V4.7h11.57c.22,1.96-.49,4.43.39,6.17.88.74,1.91,1.25,3.09,1.54.5,1.06,1.48,1.09,2.49,1.18,19.53,1.72,41.56-1.34,61.35,0,.99.02,2.01-.22,2.49-1.18,1.08-.35,2.11-.87,3.09-1.54.87-1.74.16-4.21.39-6.17h11.57v15.81H51.81Z"/>
  <path class="cls-1" d="M112.36,34.78c-7.93,8.19-15.98,16.29-24.09,24.31-3.91,3.86-10.84,9.26-13.92,13.48-.27.37-.59.64-.55,1.17h-.39l-4.64-33.38c-.02-3.35,1.95-5.28,5.2-5.59,11.36-1.07,26.63-.07,38.39.01Z"/>
  <path class="cls-27" d="M85.36,165.9c11.03-.21,22.13,0,33.17,0,1.06,10.19-1.67,12.1-11.57,11.18l-1.03.18c-3.52-2.36-8.3-2.36-11.83,0l-1.03-.18c-3.27-.19-10.54,1.23-11.18-3.47-.32-2.34.24-5.29,0-7.71,1.15-.01,2.32.02,3.47,0Z"/>
  <path class="cls-1" d="M100.02,151.25l17.74-17.74c-.59,3.91-.89,8.2-1.66,12.03-.41,2.05-.73,4.19-2.83,5.27-1.77.91-10.57.43-13.26.43Z"/>
  <path class="cls-26" d="M67.62,4.7c-.26,1.71.67,6.75-.77,7.71s-2.91.2-3.09-1.54c-.2-1.95.15-4.18,0-6.17h3.86Z"/>
  <path class="cls-26" d="M86.52,4.7h3.86c-.22,2.04.29,4.59,0,6.56s-2.99,1.8-3.66.39.11-5.18-.19-6.94Z"/>
  <path class="cls-26" d="M113.52,4.7c-.3,1.76.5,5.5-.19,6.94s-3.37,1.61-3.66-.39.21-4.51,0-6.56h3.86Z"/>
  <path class="cls-26" d="M132.41,4.7h3.86c-.15,1.99.21,4.22,0,6.17-.18,1.68-1.81,2.39-3.09,1.54-1.44-.96-.51-6.01-.77-7.71Z"/>
  <path class="cls-3" d="M106.96,177.08c2.38,1.98,3.31,5.16,3.86,8.1h-21.6c.54-2.94,1.47-6.12,3.86-8.1,3.77-3.14,10.12-3.13,13.88,0Z"/>
  <path class="cls-31" d="M96.84,82.32c25.56-3.46,26.45,33.9,3.05,33.69-21.15-.19-22.06-31.12-3.05-33.69Z"/>
</svg>