<?xml version="1.0" encoding="UTF-8"?>
<svg xmlns="http://www.w3.org/2000/svg" viewBox="0 0 100 100">
  <defs>
    <style>
      .cls-1 {
        fill: #fff;
      }

      .cls-2 {
        isolation: isolate;
      }

      .cls-3 {
        opacity: .2;
      }

      .cls-3, .cls-4, .cls-5 {
        mix-blend-mode: multiply;
      }

      .cls-6 {
        stroke: #cb6b7d;
        stroke-miterlimit: 10;
        stroke-width: .31px;
      }

      .cls-6, .cls-7, .cls-4, .cls-5 {
        fill: #f8c5be;
      }

      .cls-7 {
        mix-blend-mode: screen;
      }

      .cls-5 {
        opacity: .8;
      }
    </style>
  </defs>
  <g class="cls-2">
    <g id="Layer_1" data-name="Layer 1">
      <g>
        <circle class="cls-1" cx="50" cy="50" r="50"/>
        <g>
          <g>
            <path class="cls-6" d="M74.62,21.1c-1.33,0-2.66.16-4.03.47-1.42.31-2.79.81-4.07,1.51-1.61.87-2.87,2.04-4.15,3.32-.26.26-.62.72-.98.83-.16.05-.32.07-.47.07-.11,0-.21-.02-.31-.04v-.02s-1.36-.23-1.82-2.86V4.78l-5.9-.06v20.04s-.21,5.81,3.18,9.22c.27.37.59.69.95.93.92.57,1.38,1.89,1.38,3.55,0,6.41-4.81,11.87-10.98,13.11-12.11,2.45-30.89,4.5-33.42,19.81-.7,4.26-.06,9.13,2.75,12.53,3.5,4.24,10.23,5.8,15.52,5.88.17,0,.33,0,.49,0,3.68,0,7.29-.86,10.87-1.6,2.56-.53,6.13-1.6,8.42.2,1.61,1.26,1.36,3.7.98,5.55-.03.14-.06.27-.09.41,3.45-.07,6.89-.28,10.34-.42,1.92-.53.35-5.54-.02-6.61-.92-2.66-1.68-4.23-4.03-5.83-3.71-2.54-8.42-2.78-12.74-2.11-4.47.68-8.62,2.98-13.2,3.06-2.49.04-4.98-.82-6.86-2.48-.53-.46-1.06-1.08-1.09-2.47,0-1.23-.46-1.97-.92-2.37-.2-.18-.4-.3-.54-.39l.08-.04c1.42-.77,1.31-3.61,1.52-4.64,1.02,1.16,2.99,1.31,3.9,1.38,3.69.26,3.48-3.02,3.89-1.52,1.05,3.86,7.26,5.48,10.59,6.14,10.15,2.03,21.21-.61,29.86-6.11,4.82-3.06,9.15-7.27,11.77-12.39,3.9-7.61,6.67-18.28,2.82-26.46-1.99-4.22-5.5-8.32-10.17-9.54-1.19-.31-2.36-.45-3.52-.46Z"/>
            <path class="cls-5" d="M88.32,31.1c-1.99-4.22-5.5-8.32-10.17-9.54-1.19-.31-2.36-.45-3.52-.46-1.33,0-2.66.16-4.03.47-1.42.31-2.79.81-4.07,1.51-1.61.87-2.87,2.04-4.15,3.32-.26.26-.62.72-.98.83-.16.05-.32.07-.47.07-.11,0-.21-.02-.31-.04v-.02s-1.36-.23-1.82-2.86V4.78l-2.22-.02v19.44s0,2.87,1.84,4c0,0,1.13,1.03.82,2.15-.31,1.13-4.08,3.19-6.34-5.58,0,0-.21,5.81,3.18,9.22.27.37.59.69.95.93.92.57,1.38,1.89,1.38,3.55,0,3.05-1.09,5.88-2.89,8.14.85-.67,2.95-2.6,3.86-5.88,1.16-4.17.55-12.3,9.7-13.8,9.16-1.5,15.03,10.52,8.88,24.6,0,0-3.89,9.43-16.4,14.62-12.5,5.19-27.13.89-27.2-5.53-.07-6.42,7.17-7.86,8.06-7.99.12-.02.25-.07.38-.15-8.3,1.58-18.11,3.65-23.95,9.45,2.73-2.18,6.39-4.67,9.02-4.78,4.71-.21,4.99,8.06,1.78,9.57-3.21,1.5-7.17-2.53-7.24-2.94,0,0,2.09,11.11-6.3,12.14.83-.09,4.2-.25,5.21,2.62,1.16,3.28,7.24,8.88,15.78,6.42,0,0-3.83,1.16-4.85,2.87,0,0-2.8-2.66-6.97-1.57,0,0-1.48-3.83-9.1-3.09.18.26.38.52.58.77,3.5,4.24,10.23,5.8,15.52,5.88.17,0,.33,0,.49,0,3.68,0,7.29-.86,10.87-1.6,2.56-.53,6.13-1.6,8.42.2,1.61,1.26,1.36,3.7.98,5.55-.03.14-.06.27-.09.41,3.45-.07,6.89-.28,10.34-.42,1.92-.53.35-5.54-.02-6.61-.92-2.66-1.68-4.23-4.03-5.83-3.71-2.54-8.42-2.78-12.74-2.11-4.47.68-8.62,2.98-13.2,3.06-2.49.04-4.98-.82-6.86-2.48-.53-.46-1.06-1.08-1.09-2.47,0-1.23-.46-1.97-.92-2.37-.2-.18-.4-.3-.54-.39l.08-.04c1.42-.77,1.31-3.61,1.52-4.64,1.02,1.16,2.99,1.31,3.9,1.38,3.69.26,3.48-3.02,3.89-1.52,1.05,3.86,7.26,5.48,10.59,6.14,10.15,2.03,21.21-.61,29.86-6.11,4.82-3.06,9.15-7.27,11.77-12.39,3.9-7.61,6.67-18.28,2.82-26.46Z"/>
            <path class="cls-7" d="M53.43,5.2v18.45s.14,3.76,2.6,6.35c0,0-2.12-3.35-2.12-7.17l.07-17.63h-.55Z"/>
            <path class="cls-7" d="M65.8,28.98s-3.42.82-5.06,8.13c-1.64,7.31-4.24,15.03-18.38,15.92,0,0,6.22.96,11.27-2.6,0,0,3.46-2.28,5.12-5.6,3.01-6.01,2.32-11.96,7.04-15.85Z"/>
            <path class="cls-7" d="M23.44,59.18s-13.67,8.61-7.17,23.03c0,0-6.01-12.03,7.17-23.03Z"/>
          </g>
          <g class="cls-3">
            <path class="cls-4" d="M47.15,84.77s-7.48-2.25-10.76,3.69c-.21.38-.41.77-.61,1.17,2.65-.29,5.26-.89,7.86-1.43,2.56-.53,6.13-1.6,8.42.2,1.61,1.26,1.36,3.7.98,5.55-.03.14-.06.27-.09.41,3.45-.07,6.89-.28,10.34-.42,1.92-.53.35-5.54-.02-6.61-.92-2.66-1.68-4.23-4.03-5.83-1.97-1.35-4.21-2.05-6.53-2.31-.58.68-1.25,1.69-1.46,2.92,0,0-3.38.41-4.1,2.66Z"/>
          </g>
        </g>
      </g>
    </g>
  </g>
</svg>