<?xml version="1.0" encoding="UTF-8"?>
<svg xmlns="http://www.w3.org/2000/svg" viewBox="0 0 100 100">
  <defs>
    <style>
      .cls-1 {
        fill: #f3cbcb;
        opacity: .7;
      }

      .cls-1, .cls-2, .cls-3, .cls-4, .cls-5 {
        mix-blend-mode: multiply;
      }

      .cls-6 {
        fill: #eeb6b6;
      }

      .cls-7 {
        fill: #e89f9f;
      }

      .cls-8 {
        fill: #fff;
      }

      .cls-9 {
        fill: #821b25;
      }

      .cls-10 {
        fill: #820000;
      }

      .cls-11 {
        fill: none;
      }

      .cls-12, .cls-4 {
        fill: #c04148;
      }

      .cls-13 {
        fill: #f8e3e3;
      }

      .cls-14 {
        isolation: isolate;
      }

      .cls-15 {
        fill: #cb6b7d;
      }

      .cls-16, .cls-17, .cls-18 {
        mix-blend-mode: screen;
      }

      .cls-3, .cls-17, .cls-4, .cls-5 {
        opacity: .5;
      }

      .cls-3, .cls-18, .cls-19 {
        fill: #f8c5be;
      }

      .cls-17, .cls-20 {
        fill: #f7a1a1;
      }

      .cls-21 {
        fill: #f9e6e6;
      }

      .cls-22 {
        fill: #db7057;
      }
    </style>
  </defs>
  <g class="cls-14">
    <g id="Layer_1" data-name="Layer 1">
      <g>
        <circle class="cls-8" cx="50" cy="50" r="50"/>
        <g>
          <g>
            <g>
              <g>
                <path class="cls-13" d="M27.04,45.52s7.25.88,10.21-3.17c-.15,1.5-.62,4.84-.62,4.84,0,0,.67-1.32-1.44-1.09-2.11.23-6.31.85-9.33,3.14-.23-1.09.35-2.76,1.17-3.73Z"/>
                <path class="cls-6" d="M25.8,49.42l-.03-.16c-.23-1.06.31-2.77,1.2-3.81l.04-.04h.05s.67.09,1.66.09c2.28,0,6.41-.42,8.45-3.21l.22-.3-.04.37c-.11,1.08-.38,3.1-.53,4.23.07.32-.09.64-.1.65l-.28.54.08-.6s.03-.22.08-.58c-.1-.35-.59-.48-1.4-.39-4.07.45-7.1,1.47-9.28,3.12l-.13.1ZM27.09,45.63c-.79.95-1.28,2.44-1.14,3.44,2.19-1.61,5.22-2.61,9.25-3.06.17-.02.33-.03.48-.03.54,0,.84.14,1,.3.14-1.03.34-2.56.46-3.58-2.16,2.61-6.16,3.01-8.4,3.01-.84,0-1.45-.06-1.63-.08Z"/>
              </g>
              <path class="cls-1" d="M36.64,43.06c-.04.29-.11.57-.2.85-.49,1.4-2.03,1.34-3.27,1.64-.91.22-1.77.5-2.64.84-.58.23-1.25.52-1.88.49-1.02-.04-.94-.64-.81-1.3-.5-.02-.8-.06-.8-.06-.82.97-1.41,2.64-1.17,3.73,3.02-2.29,7.22-2.9,9.33-3.14,1.1-.12,1.44.18,1.52.49.14-1.03.43-3.14.53-4.24-.19.25-.39.49-.61.71Z"/>
              <path class="cls-21" d="M35.82,44.14c-2.05,1.03-4.48,1.85-6.8,1.56-.04,0-.12.11-.07.12,1.07.3,2.43.1,3.49-.16,1.12-.27,2.39-.69,3.34-1.35.05-.03.16-.24.04-.18Z"/>
            </g>
            <g>
              <g>
                <path class="cls-13" d="M71.67,45.52s-7.25.88-10.21-3.17c.15,1.5.62,4.84.62,4.84,0,0-.67-1.32,1.44-1.09,2.11.23,6.31.85,9.33,3.14.24-1.09-.35-2.76-1.17-3.73Z"/>
                <path class="cls-6" d="M72.91,49.42l-.13-.1c-2.17-1.65-5.21-2.67-9.28-3.12-.82-.09-1.3.04-1.41.39.05.35.08.58.08.58l.08.6-.28-.54s-.17-.33-.1-.65c-.15-1.12-.43-3.15-.53-4.23l-.04-.37.22.3c2.04,2.79,6.17,3.21,8.45,3.21.99,0,1.66-.08,1.66-.08h.05s.04.04.04.04c.89,1.05,1.42,2.76,1.2,3.81l-.03.16ZM63.06,45.98c.14,0,.3,0,.47.03,4.02.45,7.05,1.45,9.25,3.06.13-.99-.36-2.48-1.14-3.44-.18.02-.79.08-1.63.08-2.24,0-6.24-.4-8.39-3.01.11,1.02.31,2.56.45,3.58.16-.17.46-.3,1-.3Z"/>
              </g>
              <path class="cls-1" d="M62.07,43.06c.04.29.11.57.2.85.49,1.4,2.03,1.34,3.27,1.64.91.22,1.77.5,2.64.84.58.23,1.24.52,1.88.49,1.02-.04.94-.64.81-1.3.5-.02.8-.06.8-.06.82.97,1.41,2.64,1.17,3.73-3.02-2.29-7.22-2.9-9.33-3.14-1.1-.12-1.44.18-1.52.49-.14-1.03-.43-3.14-.53-4.24.19.25.39.49.61.71Z"/>
              <path class="cls-21" d="M62.9,44.14c2.05,1.03,4.48,1.85,6.8,1.56.04,0,.12.11.07.12-1.07.3-2.43.1-3.49-.16-1.12-.27-2.39-.69-3.34-1.35-.05-.03-.16-.24-.04-.18Z"/>
            </g>
            <g>
              <g>
                <path class="cls-12" d="M88.07,39.46c.95-1.33,2.18-2.05,2.66-4.81.48-2.76-.51-5.46-1.7-6.62-1.19-1.16-2.97-1.7-3.96-2.42-.99-.72-2.08-2.73-4.19-3.14-2.14-.41-4.19.31-5.9,1.98-1.71,1.67-2.9,1.77-5.22,1.98-2.32.2-3.48.07-4.57,4.16-1.09,4.09-1.43,5.32-4.36,7.23-4.64,2.86-11.05,4.43-19.03,1.77-7.98-2.66-7.37-7.3-8.03-9.6-.66-2.3-1.79-3.63-4.81-3.73-3.02-.1-3.17-.31-5.93-2.56-3.27-2.4-6.29-1.28-7.72.46-1.43,1.74-1.33,1.33-3.12,2.35-1.79,1.02-2.92,1.53-3.58,3.79-.82,3.22-.26,5.78,2.46,9.39,1.62,2.15,1.55,4.42,1.2,5.94,0,.32.03,1.57.78,2.51.86,1.09.76.38.42-.28-.34-.66-.31-1.81-.31-1.81,0,0,.38,1.72,1.18,2.33.59.43.51-.08.26-.64-.26-.56-.43-2.1-.43-2.1,0,0,.35,2.26,1.92,1.64.51-.2-.77-3.58,2.92-5.63,2.86-1.48,3.58-1.59,3.94-1.94.36-.36.26-.46-1.59-.46.08-.01.15-.03.22-.05-1.03.15-2.47.19-4.41-.07-4.43-.86-5.84-4.8-4.59-8.41.98-2.78,5.01-4.56,7.61-4.62,1.53-.03,1.9.49,2.54,1.22.64.73,1.28,1.31,3.42.76,2.14-.55,4.87-.2,5.63,2.2.77,2.4,0,5.78,4.6,8.08,4.14,2.1,6.34,3.32,7.11,7.67.77,4.35.2,4.91,3.22,8.13,2.05,1.99,2.54,3.7,1.95,4.57-.68.82-.79.88-.07,2.04.72,1.16.37,1.36.03,1.94-.34.58-.37.82.03,1.64.41.82.2,1.16-.03,1.7-.24.55-.17.61.14,1.13.31.51.27.51.07.82-.2.31-.17.48.03.89.2.41.17.65,0,.99-.17.34.07.37.1,1.5.03,1.13-.34,2.32-1.84,2.11-1.5-.2-2.25-1.64-2.73-3.48-.48-1.84-1.13-1.74-1.26-.1-.14,1.64-.24,2.9,1.02,4.06,1.26,1.16.44,1.6.2,2.25-.24.65.17.75.72,1.4.55.65.31,1.23.17,1.67-.14.44.1.55.75,1.13.65.58.75,1.06.55,1.81-.2.75-.17.92.27,1.53.44.61.65.82.03,1.33-.61.51-.41.61,0,.96.41.34.78.99.24,1.43-.55.44-.65.55-.34.85.31.31.31.51-.03.72-.34.2-.34.27-.14.51.15.18.19.41-.11.75.91-.55,3.82-1.21,5.98-.13.01.01.02.02.04.03-.04-.16-.05-.33,0-.51.17-.65-.85-.55-.34-1.26.51-.72.03-.72-.34-1.09-.37-.38-.2-.89.38-1.3.58-.41.41-.68-.1-1.13-.51-.44-.1-.85.27-1.36.38-.51.27-1.16.1-1.74-.17-.58-.03-.78.61-1.47.65-.68.82-.89.65-1.6-.17-.72-.05-.89.61-1.47.78-.68.65-.89.2-1.7-.44-.82-.24-.99.51-1.64.75-.65,1.09-2.08.85-3.96-.24-1.88-.78-1.5-1.13-.31-.34,1.19-.41,3.72-3.17,3.85-1.84-.1-1.64-2.15-1.4-3,.24-.85-.38-.89-.03-1.7.34-.82.07-.68-.07-1.06-.14-.37.21-.48.37-.99.17-.51-.61-1.19,0-2.56.44-1.12-.14-1.53-.34-2.28-.2-.75.58-1.26.75-1.7.17-.44.2-.65-.48-1.47-.68-.82-.34-1.91.89-3.55,1.23-1.64,3.41-2.54,3.97-7.09.56-4.55.82-6.34,6.75-9.41,3.58-2.05,3.96-2.45,4.91-6.85.56-2.61,1.59-4.14,4.09-4.04,2.45.26,4.09,1.28,5.63-.87,1.33-1.38,5.47-1.13,8.49,1.94,2.66,2.71,1.89,5.68.36,7.98-1.32,1.98-4.69,2.63-8.38,2.22.16.04.32.07.48.1-1.13.11-1.58-.05-1.68.18-.2.46,1.79.8,2.82.97,2.15.36,4.55,2.3,5.12,5.57.1,1.23.67.87,1.07-.05,0,1.33-.97,2.56-.56,2.71.41.15,1.13-1.02,1.53-2.35.1,1.23-.97,2.35-.51,2.45.46.1,1.27-1.71,1.42-3.12-1-2.89.33-4.83,1.27-6.14Z"/>
                <path class="cls-9" d="M46.46,90.43s-.06-.01-.08-.04c-.03-.04-.03-.1,0-.13.29-.32.21-.5.11-.61-.1-.12-.18-.22-.16-.34.02-.12.13-.21.32-.32.13-.08.2-.15.21-.22,0-.08-.06-.19-.2-.33-.11-.11-.21-.23-.2-.37,0-.19.19-.34.55-.63.15-.13.23-.28.23-.45,0-.32-.25-.64-.47-.83l-.07-.06c-.2-.17-.35-.29-.35-.47,0-.16.12-.33.42-.58.51-.42.41-.55.02-1.09l-.07-.1c-.47-.65-.5-.84-.29-1.62.2-.75.07-1.18-.51-1.7-.1-.09-.19-.17-.27-.24-.44-.38-.64-.55-.51-.99l.03-.09c.14-.43.29-.92-.18-1.48-.14-.16-.26-.29-.38-.4-.33-.33-.56-.55-.36-1.1.06-.15.14-.29.22-.42.28-.47.53-.87-.4-1.72-1.3-1.2-1.19-2.5-1.06-4.14.07-.87.29-1.35.6-1.35.4,0,.69.78.86,1.43.57,2.18,1.38,3.23,2.64,3.4.54.07.97-.04,1.26-.34.42-.43.49-1.15.47-1.67-.02-.53-.08-.82-.12-1.01-.05-.21-.07-.33.03-.54.16-.31.19-.51,0-.9-.2-.41-.27-.63-.03-.99l.03-.04q.16-.24-.1-.66l-.04-.07c-.29-.48-.34-.6-.1-1.15l.05-.1c.21-.48.35-.79,0-1.51-.43-.85-.39-1.12-.03-1.73.04-.07.09-.14.13-.21.28-.43.43-.67-.16-1.63-.71-1.14-.65-1.29.02-2.09l.06-.07c.63-.93-.13-2.67-1.94-4.43-2.44-2.61-2.57-3.53-2.91-5.99-.09-.63-.19-1.33-.34-2.2-.75-4.23-2.82-5.45-7.05-7.6-3.58-1.79-3.95-4.21-4.28-6.34-.1-.64-.19-1.25-.37-1.8-.48-1.5-1.86-2.36-3.78-2.36-.56,0-1.16.08-1.73.22-.58.15-1.06.22-1.49.22-1.06,0-1.55-.46-2.04-1.02l-.1-.11c-.58-.67-.96-1.1-2.36-1.08-2.44.05-6.52,1.7-7.52,4.55-.68,1.95-.55,3.95.34,5.5.84,1.45,2.28,2.41,4.17,2.78,1.65.22,3.15.25,4.38.07.04,0,.08.01.1.05,1.21,0,1.46.08,1.53.25.06.14-.06.27-.18.39-.19.19-.45.3-1.01.55-.59.26-1.48.65-2.95,1.41-2.63,1.46-2.68,3.61-2.7,4.76-.01.49-.02.79-.22.87-.19.08-.38.12-.56.12-.54,0-.9-.36-1.13-.76.07.37.16.75.26.97.19.43.25.72.16.86-.04.06-.1.09-.17.09-.1,0-.23-.06-.4-.18-.44-.34-.76-1.01-.96-1.55.04.31.11.64.24.9.06.12.35.71.23.92-.03.05-.08.08-.14.08-.1,0-.26-.07-.68-.6-.76-.96-.8-2.22-.8-2.58,0,0,0-.01,0-.02.34-1.5.41-3.74-1.18-5.86-2.66-3.54-3.33-6.1-2.48-9.47.64-2.15,1.69-2.75,3.3-3.66.11-.06.22-.12.33-.19.47-.27.8-.44,1.08-.57.76-.38.97-.49,2.02-1.76.97-1.17,2.46-1.88,4-1.88,1.3,0,2.6.47,3.87,1.4l.27.22c2.52,2.06,2.73,2.22,5.61,2.32,3.19.11,4.26,1.6,4.9,3.81.11.37.18.8.26,1.26.42,2.41,1.05,6.05,7.7,8.27,2.71.9,5.38,1.36,7.95,1.36,3.94,0,7.63-1.05,10.99-3.12,2.91-1.9,3.24-3.12,4.32-7.17,1.05-3.94,2.2-4.03,4.29-4.2.12-.01.24-.02.37-.03h.01c2.31-.2,3.47-.31,5.14-1.95,1.42-1.39,3.07-2.12,4.79-2.12.4,0,.8.04,1.2.12,1.51.29,2.5,1.37,3.3,2.24.35.38.65.7.94.92.37.27.87.52,1.4.79.85.43,1.82.92,2.57,1.64.63.61,1.18,1.61,1.51,2.75.26.9.51,2.32.23,3.95-.37,2.12-1.18,3.06-1.96,3.96-.24.28-.49.57-.72.89-.9,1.25-2.26,3.15-1.26,6.05,0,.01,0,.03,0,.04-.14,1.34-.92,3.21-1.48,3.21h0s-.04,0-.06,0c-.1-.02-.15-.08-.17-.12-.08-.16.02-.39.18-.74.11-.24.24-.54.33-.86-.37.89-.86,1.63-1.27,1.63-.04,0-.08,0-.11-.02-.07-.02-.11-.07-.14-.13-.08-.18.03-.46.2-.88.14-.36.32-.82.4-1.31-.15.23-.35.45-.56.45-.26,0-.42-.3-.47-.88-.4-2.3-2.14-5-5.03-5.48-1.59-.26-2.69-.52-2.89-.88-.04-.08-.05-.16-.01-.23.09-.2.31-.2.72-.2.13,0,.29,0,.47,0,0-.02,0-.03,0-.05,0-.05.06-.09.11-.08.69.08,1.38.12,2.03.12,3.04,0,5.26-.82,6.25-2.3,1.36-2.04,2.4-5.05-.35-7.85-1.67-1.7-3.9-2.71-5.97-2.71-1.04,0-1.9.28-2.37.76-.68.95-1.44,1.37-2.46,1.37-.53,0-1.11-.11-1.71-.22-.49-.09-.99-.19-1.54-.24-.07,0-.15,0-.22,0-2.06,0-3.15,1.15-3.76,3.96-.97,4.51-1.4,4.88-4.96,6.92-5.93,3.07-6.15,4.9-6.7,9.33-.43,3.48-1.78,4.83-2.98,6.03-.37.37-.72.72-1.02,1.11-1.24,1.66-1.51,2.68-.89,3.42.69.83.68,1.07.49,1.57-.06.16-.19.32-.32.48-.26.33-.55.7-.43,1.16.06.2.14.39.23.56.22.46.45.94.11,1.79-.38.84-.21,1.4-.07,1.85.08.26.15.49.08.7-.07.22-.18.37-.26.49-.11.17-.18.26-.11.43.03.09.07.15.12.2.14.18.21.32-.05.93-.16.39-.09.57-.01.79.08.22.17.46.05.9-.19.69-.26,1.71.17,2.32.24.34.62.53,1.13.55,2.26-.11,2.64-1.88,2.92-3.16.05-.22.09-.43.15-.61.14-.49.38-1.07.71-1.07.3,0,.5.46.62,1.39.24,1.88-.08,3.35-.89,4.05h-.01c-.75.65-.88.77-.48,1.51l.03.05c.43.79.57,1.06-.26,1.78-.65.56-.74.7-.58,1.37.18.76,0,.99-.67,1.7-.64.68-.74.84-.59,1.37.16.55.3,1.26-.12,1.83-.04.05-.08.11-.12.16-.36.48-.54.75-.17,1.07.32.28.51.5.5.74,0,.18-.14.36-.41.55-.32.23-.51.48-.53.72-.01.15.04.29.17.42.08.08.17.15.26.21.14.1.28.2.32.36.04.17-.03.37-.23.65-.22.31-.12.4.07.56.16.13.38.31.28.67-.04.14-.04.28,0,.44,0,.01.01.03.01.05,0,.06-.05.1-.1.1,0,0,0,0,0,0-.02,0-.04,0-.06-.02l-.03-.02c-.75-.37-1.65-.56-2.66-.56-1.35,0-2.64.35-3.21.7-.02,0-.03.01-.05.01ZM43.64,68.79c-.15,0-.33.36-.4,1.16-.14,1.65-.24,2.85.99,3.97,1.05.96.72,1.5.43,1.97-.08.13-.15.26-.2.39-.15.42-.02.56.31.88.12.12.25.25.39.42.54.65.36,1.24.22,1.67l-.03.09c-.09.3-.01.38.44.78.08.07.17.15.28.24.65.58.8,1.08.58,1.91-.2.72-.17.85.26,1.45l.07.09c.39.53.6.83-.05,1.37-.24.2-.35.34-.35.42,0,.09.12.18.28.31l.07.06c.27.22.55.6.55.98,0,.24-.11.44-.31.61-.25.2-.47.38-.47.48,0,.05.04.12.14.22.19.19.27.35.25.5-.02.14-.11.26-.31.37-.14.09-.22.15-.23.18,0,.04.09.14.11.18.14.17.18.35.1.55.68-.3,1.81-.55,2.97-.55.99,0,1.87.18,2.62.52,0-.12,0-.23.03-.34.06-.22-.04-.32-.22-.46-.19-.15-.44-.37-.11-.83.16-.22.22-.38.2-.48-.02-.09-.12-.16-.24-.25-.09-.06-.19-.14-.28-.23-.17-.17-.24-.37-.23-.58.03-.3.24-.61.62-.87.21-.15.32-.28.32-.39,0-.16-.17-.34-.43-.57-.53-.46-.19-.91.14-1.34.04-.05.08-.1.12-.16.36-.49.24-1.14.09-1.65-.19-.65,0-.9.64-1.57.65-.68.78-.85.62-1.51-.18-.76-.04-.97.65-1.57.71-.61.63-.75.21-1.53l-.03-.05c-.48-.89-.23-1.11.52-1.75h.01c.74-.65,1.05-2.09.82-3.87-.15-1.18-.39-1.22-.42-1.22-.12,0-.33.29-.51.92-.05.17-.09.38-.14.6-.28,1.28-.69,3.21-3.12,3.33-.58-.03-1.01-.25-1.3-.64-.48-.67-.41-1.76-.21-2.49.11-.38.03-.57-.04-.78-.09-.24-.18-.48.01-.94.22-.53.17-.61.08-.73-.05-.06-.1-.13-.15-.25-.1-.27.02-.44.14-.62.08-.12.17-.25.24-.44.05-.15,0-.34-.08-.58-.14-.46-.33-1.08.08-1.99.3-.76.11-1.16-.11-1.62-.09-.18-.18-.37-.24-.6-.15-.56.19-.99.47-1.34.12-.15.24-.3.29-.43.15-.39.21-.55-.46-1.36-.69-.83-.43-1.93.88-3.67.3-.4.66-.76,1.03-1.14,1.17-1.17,2.5-2.5,2.92-5.91.56-4.51.79-6.38,6.81-9.49,3.49-1.99,3.9-2.36,4.86-6.78.79-3.64,2.44-4.13,3.96-4.13.08,0,.16,0,.24,0,.57.06,1.07.15,1.56.25.6.11,1.16.22,1.67.22.96,0,1.65-.39,2.3-1.29,0,0,0,0,0-.01.52-.54,1.41-.83,2.52-.83,2.12,0,4.4,1.04,6.11,2.78,2.84,2.9,1.77,6.01.37,8.11-1.03,1.54-3.31,2.39-6.42,2.39-.48,0-.97-.02-1.48-.06-.02.02-.04.04-.07.04-.46.04-.8.04-1.06.04-.34,0-.5,0-.54.08,0,.02,0,.03,0,.06.19.35,2.04.66,2.74.78,2.1.35,4.62,2.27,5.2,5.66.04.52.17.7.26.7.13,0,.38-.24.62-.78.02-.04.07-.07.11-.06.05,0,.08.05.08.1,0,.7-.26,1.38-.46,1.87-.12.31-.24.62-.2.72,0,0,0,.02.03.02.01,0,.03,0,.04,0,.31,0,.94-.94,1.36-2.29.01-.05.06-.08.11-.07.05,0,.09.04.09.09.06.68-.23,1.32-.43,1.78-.1.23-.22.5-.19.57,0,0,.02.01.03.01,0,0,0,0,.02,0,.33,0,1.12-1.54,1.28-3.01-1.02-2.98.43-5,1.3-6.21.23-.33.49-.62.73-.9.76-.88,1.55-1.8,1.91-3.86.47-2.72-.51-5.39-1.68-6.52-.72-.7-1.68-1.18-2.52-1.61-.53-.27-1.04-.52-1.42-.8-.31-.22-.62-.56-.97-.94-.78-.85-1.74-1.9-3.18-2.18-.39-.07-.78-.11-1.16-.11-1.66,0-3.27.71-4.65,2.06-1.73,1.69-2.98,1.8-5.27,2.01h-.01c-.13.01-.25.02-.37.03-2.06.17-3.1.26-4.11,4.05-1.09,4.11-1.43,5.35-4.41,7.29-3.39,2.09-7.12,3.16-11.1,3.16-2.59,0-5.29-.46-8.02-1.37-6.77-2.26-7.41-5.97-7.84-8.43-.08-.45-.15-.88-.26-1.24-.63-2.18-1.64-3.56-4.71-3.66-2.95-.1-3.22-.31-5.73-2.37l-.26-.21c-1.22-.9-2.48-1.35-3.74-1.35-1.47,0-2.91.67-3.84,1.8-1.07,1.3-1.31,1.42-2.08,1.81-.27.13-.6.3-1.07.57-.11.06-.22.13-.33.19-1.62.92-2.59,1.47-3.2,3.54-.84,3.3-.18,5.82,2.44,9.3,1.64,2.17,1.57,4.47,1.22,6.02,0,.36.04,1.54.75,2.44.29.36.43.48.49.51,0-.1-.06-.34-.24-.68-.34-.67-.32-1.81-.32-1.86,0-.05.04-.09.09-.1.05,0,.1.03.11.08,0,.02.39,1.69,1.14,2.27.18.13.25.14.27.14.03-.03.02-.24-.17-.66-.26-.57-.44-2.06-.44-2.13,0-.06.03-.11.09-.11.06,0,.11.03.12.09,0,.02.27,1.66,1.3,1.66.15,0,.31-.03.48-.1.08-.03.08-.38.09-.69.03-1.19.08-3.42,2.81-4.93,1.48-.77,2.37-1.16,2.97-1.42.54-.24.79-.35.95-.51.12-.12.13-.16.13-.17-.09-.11-1.22-.11-1.65-.11-.02,0-.03,0-.05-.01-1.19.14-2.6.1-4.16-.11-1.96-.38-3.45-1.37-4.32-2.88-.92-1.6-1.05-3.66-.35-5.67,1.03-2.94,5.21-4.64,7.71-4.69,1.5-.03,1.92.46,2.52,1.15l.1.11c.47.54.91.95,1.89.95.41,0,.88-.07,1.44-.21.58-.15,1.2-.23,1.78-.23,2.02,0,3.47.91,3.98,2.5.18.57.28,1.18.38,1.83.32,2.09.69,4.45,4.17,6.19,4.3,2.18,6.4,3.41,7.16,7.75.15.87.25,1.58.34,2.21.35,2.48.46,3.32,2.86,5.87,2.28,2.23,2.51,3.89,1.96,4.7l-.07.08c-.61.73-.66.79,0,1.85.63,1.02.48,1.35.16,1.85-.04.06-.08.13-.12.2-.32.55-.36.75.04,1.54.4.81.23,1.2.01,1.69l-.05.1c-.21.47-.18.52.09.96l.04.07c.3.5.31.57.09.88l-.03.04c-.17.25-.16.38.04.78.23.45.17.73,0,1.08-.07.14-.06.21-.01.41.04.19.11.49.13,1.04.02.56-.06,1.34-.53,1.82-.34.35-.82.48-1.43.4-.84-.11-2.05-.61-2.81-3.55-.26-1.01-.54-1.28-.66-1.28Z"/>
              </g>
              <g>
                <path class="cls-20" d="M87.81,47.01c.23-.09-1.87-2.78-.09-5.87,1.55-2.73,3.96-4.64,3.59-8.96-.36-4.32-3.24-5.58-4.55-6.1-2.41-.96-2-2.23-4.1-3.46-2.09-1.23-4.55-1.23-7.55,1.18-2.18,1.64-1.87,1.73-5.78,2-3.09.27-3.82,1.5-4.6,4.37-.64,2.59-2.09,6.14-9.83,4.37-4.32-1.14-6.92-.82-11.65.23-3.82.68-7.51.18-8.78-3.78-.77-3.73-1.27-4.82-5.32-5.19-3.32.05-3.64-1.05-5.6-2.41-1.96-1.37-3.88-2.43-6.46-1.18-2.46,1.18-2.05,2.14-3.78,3.23-1.73,1.09-3.73,1.27-5.14,4.96-1.41,3.69.41,6.55,1.68,8.42,1.27,1.87,2.96,4.28,1.64,7.23-.68,1.32.18,1.32.77-.5,0,0,0,.03,0,.08.34-1.52.42-3.79-1.2-5.94-2.72-3.61-3.28-6.16-2.46-9.39.66-2.25,1.79-2.76,3.58-3.79,1.79-1.02,1.69-.61,3.12-2.35,1.43-1.74,4.45-2.86,7.72-.46,2.76,2.25,2.92,2.46,5.93,2.56,3.02.1,4.14,1.43,4.81,3.73.66,2.3.05,6.94,8.03,9.6,7.98,2.66,14.39,1.09,19.03-1.77,2.93-1.91,3.27-3.14,4.36-7.23,1.09-4.09,2.25-3.96,4.57-4.16,2.32-.2,3.51-.31,5.22-1.98,1.7-1.67,3.76-2.39,5.9-1.98,2.11.41,3.21,2.42,4.19,3.14.99.72,2.76,1.26,3.96,2.42,1.19,1.16,2.18,3.85,1.7,6.62-.48,2.76-1.71,3.48-2.66,4.81-.94,1.31-2.28,3.25-1.27,6.14,0-.02,0-.03,0-.05.59,1.5.77,1.55,1,1.46Z"/>
                <path class="cls-22" d="M87.69,47.14c-.22,0-.41-.19-.82-1.17v.1s-.16-.43-.16-.43c-1.04-2.99.42-5.02,1.29-6.23.23-.33.49-.62.73-.9.76-.88,1.55-1.8,1.91-3.86.47-2.72-.51-5.39-1.68-6.52-.72-.7-1.68-1.18-2.52-1.61-.53-.27-1.04-.52-1.42-.8-.31-.22-.62-.56-.97-.94-.78-.85-1.74-1.9-3.18-2.18-.39-.07-.78-.11-1.16-.11-1.66,0-3.27.71-4.65,2.06-1.73,1.69-2.98,1.8-5.27,2.01h-.01c-.13.01-.25.02-.37.03-2.06.17-3.1.26-4.11,4.05-1.09,4.11-1.43,5.35-4.41,7.29-3.39,2.09-7.12,3.16-11.1,3.16-2.59,0-5.29-.46-8.02-1.37-6.77-2.26-7.41-5.97-7.84-8.43-.08-.45-.15-.88-.26-1.24-.63-2.18-1.64-3.56-4.71-3.66-2.95-.1-3.22-.31-5.73-2.37l-.26-.21c-1.22-.9-2.48-1.35-3.74-1.35-1.47,0-2.91.67-3.84,1.8-1.07,1.3-1.31,1.42-2.08,1.81-.27.13-.6.3-1.07.57-.11.06-.22.13-.33.19-1.62.92-2.59,1.47-3.2,3.54-.84,3.3-.18,5.82,2.44,9.3,1.64,2.18,1.57,4.48,1.22,6.03l-.21.93v-.46c-.25.59-.56.96-.8.96-.07,0-.13-.03-.17-.1-.14-.23.08-.71.22-.99,1.28-2.87-.31-5.2-1.59-7.07l-.04-.06c-1.11-1.62-3.17-4.65-1.69-8.51,1.12-2.93,2.61-3.67,4.04-4.39.4-.2.77-.39,1.14-.62.73-.46,1.06-.89,1.42-1.34.47-.6.95-1.21,2.37-1.9.78-.38,1.53-.56,2.29-.56,1.63,0,3,.87,4.27,1.75.45.32.82.62,1.15.89,1.13.93,1.87,1.53,4.38,1.5,4.2.38,4.68,1.65,5.43,5.27.84,2.62,2.88,3.95,6.04,3.95.8,0,1.68-.09,2.63-.25,2.71-.6,4.67-.95,6.65-.95,1.59,0,3.15.22,5.04.72,1.37.31,2.62.47,3.7.47,4.26,0,5.43-2.41,6.01-4.77.76-2.81,1.47-4.16,4.69-4.45,3.46-.24,3.58-.34,5.09-1.5.19-.14.4-.31.64-.48,1.66-1.34,3.28-2.01,4.8-2.01.97,0,1.94.28,2.87.82.97.57,1.4,1.14,1.83,1.69.49.64.96,1.25,2.25,1.76,1.16.46,4.23,1.68,4.61,6.18.28,3.31-1.07,5.25-2.38,7.14-.42.6-.85,1.23-1.23,1.89-1.35,2.35-.43,4.45-.03,5.34.13.29.18.41.15.5-.01.03-.04.06-.07.07-.04.02-.1.04-.16.04ZM86.79,45.23l.11.28c.39.98.63,1.42.79,1.42,0,0,.02,0,.03,0-.02-.07-.08-.19-.13-.32-.41-.92-1.35-3.09.04-5.53.38-.67.82-1.3,1.24-1.9,1.35-1.94,2.62-3.77,2.35-7-.37-4.38-3.36-5.56-4.49-6.01-1.35-.53-1.83-1.16-2.34-1.83-.41-.54-.84-1.09-1.77-1.64-.9-.53-1.83-.8-2.77-.8-1.47,0-3.04.66-4.67,1.97-.24.18-.45.34-.64.49-1.56,1.2-1.68,1.29-5.2,1.54-3.1.27-3.76,1.52-4.5,4.29-.6,2.43-1.8,4.92-6.2,4.92-1.09,0-2.35-.16-3.75-.48-1.88-.5-3.42-.72-4.99-.72-1.96,0-3.91.35-6.61.94-.96.17-1.86.26-2.67.26-3.26,0-5.36-1.38-6.23-4.1-.75-3.6-1.18-4.75-5.24-5.12-.06,0-.12,0-.19,0-2.44,0-3.23-.65-4.32-1.55-.32-.27-.69-.57-1.14-.88-1.24-.87-2.59-1.72-4.16-1.72-.72,0-1.44.18-2.2.54-1.38.66-1.85,1.26-2.3,1.84-.35.45-.71.91-1.47,1.39-.38.24-.77.44-1.16.63-1.4.7-2.85,1.43-3.94,4.28-1.44,3.76.58,6.73,1.67,8.32l.04.06c1.24,1.81,2.93,4.3,1.61,7.27-.28.55-.25.77-.23.79.09,0,.48-.34.81-1.37l.04-.13c.3-1.5.29-3.62-1.23-5.64-2.66-3.54-3.33-6.1-2.48-9.47.64-2.15,1.69-2.75,3.3-3.66.11-.06.22-.12.33-.19.47-.27.8-.44,1.08-.57.76-.38.97-.49,2.02-1.76.97-1.17,2.46-1.88,4-1.88,1.3,0,2.6.47,3.87,1.4l.27.22c2.52,2.06,2.73,2.22,5.61,2.32,3.19.11,4.26,1.6,4.9,3.81.11.37.18.8.26,1.26.42,2.41,1.05,6.05,7.7,8.27,2.71.9,5.38,1.36,7.95,1.36,3.94,0,7.63-1.05,10.99-3.12,2.91-1.9,3.24-3.12,4.32-7.17,1.05-3.94,2.2-4.03,4.29-4.2.12-.01.24-.02.37-.03h.01c2.31-.2,3.47-.31,5.14-1.95,1.42-1.39,3.07-2.12,4.79-2.12.4,0,.8.04,1.2.12,1.51.29,2.5,1.37,3.3,2.24.35.38.65.7.94.92.37.27.87.52,1.4.79.85.43,1.82.92,2.57,1.64.63.61,1.18,1.61,1.51,2.75.26.9.51,2.32.23,3.95-.37,2.12-1.18,3.06-1.96,3.96-.24.28-.49.57-.72.89-.87,1.21-2.16,3.01-1.37,5.72Z"/>
              </g>
              <path class="cls-4" d="M89.03,28.03c-1.19-1.16-2.97-1.7-3.96-2.42-.99-.72-2.08-2.73-4.19-3.14-2.14-.41-4.19.31-5.9,1.98-1.71,1.67-2.9,1.77-5.22,1.98-2.32.2-3.48.07-4.57,4.16-1.09,4.09-1.43,5.32-4.36,7.23-4.64,2.86-11.05,4.43-19.03,1.77-7.98-2.66-7.37-7.3-8.03-9.6-.66-2.3-1.79-3.63-4.81-3.73-3.02-.1-3.17-.31-5.93-2.56-3.27-2.4-6.29-1.28-7.72.46-1.43,1.74-1.33,1.33-3.12,2.35-1.79,1.02-2.92,1.53-3.58,3.79-.82,3.22-.26,5.78,2.46,9.39,1.62,2.15,1.55,4.42,1.2,5.94,0,.32.03,1.57.78,2.51.25.32.42.48.53.54-1.09-2.05-.53-4.13-.44-5.96.12-2.31-1.73-3.63-3.58-7.04-1.85-3.4-.58-6.46,2.08-7.96,2.65-1.5,2.42-1.27,4.38-3.23,1.96-1.96,3.81-1.85,6.11-.63,2.31,1.21,1.9,2.65,5.31,2.77,3.4.12,4.61.06,5.77,3.46,1.15,3.4.23,5.19-.69,1.33-.98-4.44-4.15-4.56-6.11-4.09-1.96.46-2.83-.29-3.75-1.33-1.53-1.72-4.27-1.04-8.25,1.38-4.15,2.42-5.48,9.28-.58,11.76,2.44,1.23,5.07,1.54,7.15,1.53,1.26-.58,1.7-.71,1.95-.97.36-.36.26-.46-1.59-.46.08-.01.15-.03.22-.05-1.03.15-2.47.19-4.41-.07-4.43-.86-5.84-4.8-4.59-8.41.98-2.78,5.01-4.56,7.61-4.62,1.53-.03,1.9.49,2.54,1.22.64.73,1.28,1.31,3.42.76,2.14-.55,4.87-.2,5.63,2.2.77,2.4,0,5.78,4.6,8.08,4.14,2.1,6.34,3.32,7.11,7.67.77,4.35.2,4.91,3.22,8.13,2.05,1.99,2.54,3.7,1.95,4.57-.68.82-.79.88-.07,2.04.72,1.16.37,1.36.03,1.94-.34.58-.37.82.03,1.64.41.82.2,1.16-.03,1.7-.24.55-.17.61.14,1.13.31.51.27.51.07.82-.2.31-.17.48.03.89.2.41.17.65,0,.99-.17.34.07.37.1,1.5.03,1.13-.34,2.32-1.84,2.11-1.5-.2-2.25-1.64-2.73-3.48-.48-1.84-1.13-1.74-1.26-.1-.14,1.64-.24,2.9,1.02,4.06,1.26,1.16.44,1.6.2,2.25-.24.65.17.75.72,1.4.23.27.32.53.34.77.4-.28.63-.36.33-.71-.63-.73-1.65-.87-.58-1.74,1.07-.87.39-1.31-.82-2.62-1.21-1.31-.44-3.63-.1-1.41,0,0,.58,2.23,2.81,2.23s2.23-1.6,3.2-.34c.97,1.26,3.2.15,4.17-1.41.97-1.55.19,1.7-1.02,2.62-1.21.92-1.48,2.24-4.05,2.68-2.57.44,1.43.67,2.69.28,1.26-.39,1.03,1.48-1.47,1.9-4.08.69-.31,1.03.61.78.92-.24.91,2.16-.74,2.69-1.65.53-.09.33.76.12.84-.21.94,1.68-.9,2.21-1.84.53.63,0,.82.73.19.73-.05,1.84-1.65,1.99-1.6.15-.87.24.19.44.87.16.8.12-.04.76.94-.01,1.94.14,2.82.58.01.01.02.02.04.03-.04-.16-.05-.33,0-.51.17-.65-.85-.55-.34-1.26.51-.72.03-.72-.34-1.09-.37-.38-.2-.89.38-1.3.58-.41.41-.68-.1-1.13-.51-.44-.1-.85.27-1.36.38-.51.27-1.16.1-1.74-.17-.58-.03-.78.61-1.47.65-.68.82-.89.65-1.6-.17-.72-.05-.89.61-1.47.78-.68.65-.89.2-1.7-.44-.82-.24-.99.51-1.64.75-.65,1.09-2.08.85-3.96-.24-1.88-.78-1.5-1.13-.31-.34,1.19-.41,3.72-3.17,3.85-1.84-.1-1.64-2.15-1.4-3,.24-.85-.38-.89-.03-1.7.34-.82.07-.68-.07-1.06-.14-.37.21-.48.37-.99.17-.51-.61-1.19,0-2.56.44-1.12-.14-1.53-.34-2.28-.2-.75.58-1.26.75-1.7.17-.44.2-.65-.48-1.47-.68-.82-.34-1.91.89-3.55,1.23-1.64,3.41-2.54,3.97-7.09.56-4.55.82-6.34,6.75-9.41,3.58-2.05,3.96-2.45,4.91-6.85.56-2.61,1.59-4.14,4.09-4.04,2.45.26,4.09,1.28,5.63-.87,1.33-1.38,5.47-1.13,8.49,1.94,2.66,2.71,1.89,5.68.36,7.98-1.32,1.98-4.69,2.63-8.38,2.22.16.04.32.07.48.1-1.13.11-1.58-.05-1.68.18-.2.46,1.79.8,2.82.97.3.05.6.13.9.24,1.74-.14,3.69-.54,5.53-1.47,4.9-2.48,3.58-9.34-.58-11.76-3.98-2.42-6.72-3.1-8.25-1.38-.92,1.04-1.79,1.79-3.75,1.33-1.96-.46-5.13-.35-6.11,4.09-.92,3.86-1.84,2.08-.69-1.33,1.15-3.4,2.36-3.34,5.77-3.46,3.4-.12,3-1.56,5.31-2.77,2.31-1.21,4.15-1.33,6.11.63,1.96,1.96,1.73,1.73,4.38,3.23,2.65,1.5,3.92,4.56,2.08,7.96-1.85,3.4-3.69,4.73-3.58,7.04.09,1.84.66,3.93-.46,5.99.46.04,1.25-1.73,1.4-3.12-1-2.89.33-4.83,1.27-6.14.95-1.33,2.18-2.05,2.66-4.81.48-2.76-.51-5.46-1.7-6.62ZM54.23,48.37c-.24,2.53-2.89,5.51-4.77,5.43-1.88-.09-4.69-2.7-4.78-5.6-.09-2.9-.73-6.22-2.79-7.65,0,0,8.8,2.96,15.25-.13-1.56,1.74-2.56,4.29-2.92,7.96Z"/>
            </g>
            <g>
              <path class="cls-19" d="M34.85,33s2.2,3.86,8.99,2.28c5.4-1.39,6.44-1.39,12.27.12,3.24.66,5.83.15,8.06-2.31-1.27,3.36-5.79,7.52-15.2,7.56-6.83-.5-13-3.28-14.12-7.64Z"/>
              <path class="cls-15" d="M48.96,40.74h0c-3.46-.25-6.74-1.1-9.24-2.38-2.71-1.39-4.43-3.24-4.97-5.33l-.19-.73.38.66s.38.66,1.29,1.3c.83.59,2.3,1.3,4.53,1.3.95,0,1.98-.13,3.06-.38,2.71-.7,4.29-1.03,5.9-1.03s3.41.37,6.42,1.15c.86.17,1.64.26,2.37.26,2.24,0,4.02-.81,5.59-2.54l.36-.4-.19.51c-.43,1.13-1.6,3.29-4.59,5.08-2.82,1.68-6.42,2.53-10.7,2.55h0ZM35.12,33.54c.67,1.8,2.28,3.4,4.69,4.64,2.47,1.27,5.73,2.11,9.16,2.36,4.25-.02,7.81-.87,10.6-2.52,2.54-1.51,3.73-3.29,4.29-4.46-1.52,1.5-3.23,2.2-5.35,2.2-.75,0-1.54-.09-2.42-.26-3-.77-4.71-1.14-6.37-1.14s-3.15.33-5.85,1.02c-1.09.26-2.14.38-3.1.38-2.3,0-3.8-.73-4.66-1.35-.44-.31-.76-.63-.97-.87Z"/>
            </g>
            <path class="cls-3" d="M56.1,35.39c-2.68-.69-4.34-1.06-5.88-1.13.48.24.94.53,1.41.8,1.18.71,2.6.79,3.86,1.32.89.38,1.72,1.05.98,2.02-.55.71-1.55,1.05-2.38,1.26-1.94.49-4.01.56-6,.42-1.89-.13-3.93-.41-5.63-1.29-1.11-.57-2.08-1.52-1.63-2.86.03-.1.07-.2.12-.29-4.54.08-6.1-2.65-6.1-2.65,1.12,4.36,7.29,7.14,14.12,7.64,9.41-.04,13.93-4.2,15.2-7.56-2.24,2.47-4.82,2.97-8.06,2.31Z"/>
            <g>
              <g>
                <path class="cls-19" d="M46.48,89.58c-.31-.28-.26-.41.03-.64.28-.23.31-.31-.08-.56-.38-.26-.23-.51.28-1.15.33-.41.36-.61-.2-1.02-.56-.41-.56-.84-.03-1.36.42-.4.28-.64-.2-1.05-.49-.41-.43-.74-.23-1.51.2-.77.08-1.25-.64-1.87-.72-.61-.66-.9-.51-1.59.15-.69-.15-1.05-.74-1.38-.59-.33-.49-1.05-.03-2.05.46-1-1.13-1.1-1.3-2.23-.15-1.61-.15-4.37.33-4.81.49-.43,1.2,0,1.48,1.23.61,2.33,1.23,3.35,2.56,3.5,1.33.15,1.3-1,1.36-2.02.05-1.02-.26-1.15-.18-1.48.08-.33.2-.51.08-.79s-.38-.36-.18-.69c.2-.33.13-.69-.2-1.12-.33-.44-.5-.51-.12-1.23.38-.72.26-1.21,0-1.83-.26-.62-.47-.96,0-1.62.46-.66.41-1.02.05-1.53-.36-.51-.56-.46-.46-1.43.05-.92-.87-1.69-2.92-2.81-3.17-2.3-2.71-6.5-2.56-9.21.15-2.71-.82-6.44-4.76-7.88.87,1.02.92,3.32.15,7.16-.82,4.14-.87,7.16,1.89,10.84,2.97,3.53,3.89,6.09,3.38,9.82-.61,5.06-.61,6.14,1.47,11.29,2.08,4.63,1.98,10.2,1.88,12.03.09-.06.18-.12.28-.2.03-.02.07-.05.11-.07.11-.12.17-.23.2-.33.04-.17-.02-.27-.18-.42Z"/>
                <path class="cls-15" d="M45.96,90.79v-.2c.1-1.63.22-7.33-1.86-11.98-2.06-5.09-2.1-6.17-1.47-11.34.5-3.65-.38-6.2-3.35-9.74-2.71-3.61-2.76-6.63-1.91-10.93.75-3.77.71-6.08-.13-7.07l-.25-.29.36.13c3.81,1.39,4.99,5.03,4.82,7.98,0,.16-.02.32-.03.49-.17,2.74-.4,6.49,2.54,8.63,1.92,1.06,3.02,1.87,2.96,2.91-.08.73.01.83.23,1.09.06.08.13.16.21.27.36.52.46.92-.05,1.65-.39.56-.27.85-.04,1.37.02.05.04.1.06.15.25.6.41,1.12,0,1.91-.31.59-.24.68.01,1,.03.04.06.08.1.12.37.48.44.88.21,1.24-.11.17-.06.23.04.36.05.06.1.14.15.23.11.24.06.43,0,.64-.02.07-.04.14-.06.22-.02.11,0,.19.05.33.07.21.17.52.14,1.14v.17c-.05.92-.1,1.96-1.23,1.96-.08,0-.16,0-.24-.01-1.47-.17-2.07-1.39-2.64-3.58-.21-.91-.64-1.32-.98-1.32-.12,0-.23.05-.33.14-.43.38-.46,3.01-.3,4.72.08.47.43.75.76,1.02.4.32.81.65.53,1.26-.49,1.06-.49,1.65-.02,1.91.52.29.97.68.79,1.49-.15.66-.2.9.48,1.49.72.62.9,1.13.67,1.97-.2.75-.25,1.03.2,1.4.3.25.48.45.49.68,0,.17-.08.33-.28.52-.26.25-.38.46-.37.66.01.18.14.36.38.53.31.23.45.4.48.58.03.19-.08.37-.25.59-.28.35-.5.64-.47.8,0,.04.03.11.17.2.21.14.33.24.33.37,0,.13-.1.23-.25.35-.14.11-.2.18-.2.24,0,.06.06.14.18.25.18.16.26.29.22.52-.04.13-.11.25-.23.37l-.02.02s-.07.04-.1.07c-.11.08-.2.15-.29.2l-.17.11ZM46.21,89.42c0,.39-.02.72-.03.98.03-.02.07-.05.11-.08.03-.02.07-.05.1-.07.09-.1.14-.19.17-.28.02-.11,0-.17-.16-.31-.1-.09-.16-.17-.2-.24ZM46.21,88.32c0,.28,0,.54,0,.78.05-.08.12-.16.23-.24.04-.04.18-.14.17-.18,0-.02-.03-.07-.24-.21-.07-.05-.13-.09-.17-.15ZM46.07,85.89c.06.68.1,1.31.12,1.9.09-.17.24-.37.44-.62.17-.21.22-.33.21-.43-.02-.12-.14-.26-.4-.44-.18-.13-.3-.26-.38-.4ZM44.86,79.98c.62,1.8.97,3.68,1.16,5.36.06-.18.19-.37.4-.57.15-.14.22-.26.22-.36,0-.15-.17-.32-.42-.53-.54-.46-.47-.85-.26-1.61.2-.76.05-1.2-.61-1.76-.23-.2-.38-.36-.48-.52ZM43.77,77.23c.15.4.33.83.51,1.3.15.34.29.68.42,1.03-.02-.21.02-.44.09-.74.14-.65-.16-.97-.69-1.27-.15-.09-.26-.19-.33-.32ZM37.59,39.68c.69,1.16.68,3.39-.03,6.96-.86,4.34-.8,7.19,1.87,10.76,3.02,3.59,3.9,6.18,3.4,9.9-.55,4.55-.58,5.9.85,9.67-.1-.47.12-1.07.37-1.6.2-.44-.03-.66-.47-1.01-.35-.28-.75-.6-.84-1.15-.13-1.32-.21-4.39.37-4.9.14-.12.3-.19.47-.19.51,0,.98.58,1.18,1.47.64,2.42,1.26,3.29,2.47,3.43.08,0,.15.01.22.01.94,0,.98-.86,1.02-1.77v-.17c.04-.58-.05-.86-.12-1.06-.05-.15-.09-.27-.05-.44.02-.09.04-.17.07-.24.06-.2.1-.32.02-.49-.03-.07-.08-.13-.12-.19-.11-.14-.23-.3-.05-.59.18-.29.12-.6-.2-1.01-.03-.04-.06-.08-.09-.12-.3-.38-.39-.55-.03-1.22.37-.71.23-1.17,0-1.74-.02-.05-.04-.1-.06-.15-.23-.53-.39-.91.06-1.57.44-.64.37-.96.05-1.42-.07-.11-.14-.19-.2-.26-.25-.3-.36-.47-.28-1.24.05-.81-.7-1.53-2.86-2.71h-.01c-3.03-2.21-2.8-6.03-2.63-8.82.01-.17.02-.33.03-.48.29-5.09-2.94-7.04-4.37-7.65Z"/>
              </g>
              <g>
                <path class="cls-19" d="M53.82,81.55c1.28-4.04,3.38-7.31,2.71-12.33-.66-5.01-.56-7.36,2.45-11,3.02-3.63,3.63-5.73,2.46-12.07-.66-3.58-.56-5.42.1-6.75-3.53,1.48-4.86,5.27-4.5,9.36.36,4.09-1.02,7.26-3.48,8.34-1.79.87-2.25,1.58-2.1,2.25.15.66-.1,1.07-.51,1.53-.41.46-.26.82.05,1.33.31.51.51.72.15,1.59-.36.87-.56.87-.15,1.69.41.82.31,1.23-.15,1.64-.46.41-.36.51-.15.92.2.41-.51.56-.2,1.13.31.56.2.66.05,1.23-.15.56-.2,1.89.34,2.39.54.5,1.97.4,2.63-.71.66-1.1.69-3.31,1.71-3.75,1.01-.44,1.08,1.27,1.07,2.7,0,2.21-.11,2.69-1,3.3-.65.48-.65.78-.2,1.67.44.89.2,1.13-.51,1.64-.72.51-.48.61-.41,1.3.07.68.14.89-.61,1.47-.75.58-.85,1.09-.68,1.74.17.65.27,1.19-.2,1.71q-.48.51-.14.99c.34.48.41.82-.07,1.3-.48.48-.51.72-.14,1.09.38.38.55.72.27,1.06-.27.34-.44.38-.1.68.32.29.07.49,0,1.28.18.14.33.24.46.32-.08-1.24-.24-5.59.84-9.02Z"/>
                <path class="cls-15" d="M53.09,90.75l-.17-.1c-.14-.08-.29-.19-.47-.32l-.04-.03v-.06c.03-.29.07-.5.11-.67.06-.29.09-.39-.08-.53-.34-.3-.24-.44-.04-.66.04-.04.09-.1.13-.16.21-.26.13-.53-.26-.92-.46-.47-.32-.78.14-1.24.44-.44.37-.73.06-1.16-.38-.53-.35-.59.15-1.12.44-.47.35-.96.18-1.61-.2-.76,0-1.3.72-1.85.66-.51.65-.69.59-1.27v-.11c-.02-.14-.05-.26-.07-.36-.08-.42-.09-.61.51-1.03.71-.5.89-.69.48-1.51-.45-.89-.47-1.28.24-1.8.83-.58.95-.97.96-3.22,0-.7,0-2.14-.4-2.56-.13-.14-.3-.15-.53-.05-.57.25-.82,1.17-1.07,2.06-.16.59-.33,1.2-.59,1.64-.46.77-1.25,1.04-1.84,1.04-.39,0-.73-.11-.95-.31-.59-.54-.53-1.91-.37-2.49.02-.08.04-.14.06-.2.11-.38.15-.5-.1-.95-.2-.36-.02-.6.1-.77.11-.15.16-.23.1-.36l-.04-.08c-.19-.38-.25-.55.22-.96.4-.35.54-.7.13-1.51-.35-.69-.27-.86-.04-1.34.06-.12.12-.26.19-.43.31-.75.18-.96-.07-1.37-.02-.04-.05-.08-.07-.12-.3-.51-.5-.93-.04-1.45.42-.48.63-.85.49-1.44-.19-.81.5-1.56,2.15-2.37,2.46-1.08,3.77-4.23,3.42-8.24-.4-4.56,1.31-8.09,4.56-9.46l.25-.11-.12.25c-.69,1.38-.72,3.32-.09,6.69,1.21,6.52.52,8.55-2.48,12.16-3.04,3.66-3.08,6.02-2.43,10.92.51,3.81-.56,6.58-1.68,9.51-.35.92-.72,1.88-1.03,2.86-1.08,3.41-.91,7.74-.84,8.98v.19ZM52.62,90.2c.09.06.17.12.24.17-.03-.5-.06-1.3-.04-2.28-.02.08-.07.17-.13.25-.05.06-.1.12-.14.17-.17.19-.17.19.03.38.25.23.21.43.14.73-.03.15-.07.33-.1.58ZM55.53,68.16c.16,0,.3.06.41.18.44.44.47,1.62.46,2.7,0,2.2-.1,2.73-1.04,3.38-.58.43-.61.67-.17,1.54.49.97.17,1.26-.54,1.77-.51.36-.49.47-.42.83.02.11.04.23.06.38v.11c.07.61.1.87-.65,1.45-.74.58-.8,1.05-.65,1.63.18.69.28,1.26-.23,1.8-.22.23-.34.36-.35.45-.01.08.07.2.22.41.35.49.45.89-.08,1.43-.47.47-.45.64-.14.95.17.17.36.39.42.64.04-1.85.25-4.23.89-6.28.31-.99.68-1.95,1.04-2.87,1.12-2.91,2.17-5.65,1.67-9.41-.66-4.96-.62-7.35,2.48-11.08,3.31-3.98,3.5-6.25,2.43-11.99-.6-3.22-.6-5.16,0-6.57-3.01,1.41-4.57,4.8-4.19,9.15.36,4.09-1,7.33-3.54,8.44-2.04.99-2.14,1.69-2.04,2.13.16.68-.08,1.11-.53,1.63-.36.4-.25.69.06,1.21.02.04.05.08.07.12.27.44.44.71.09,1.56-.07.18-.14.33-.2.44-.22.46-.26.55.04,1.16.4.81.36,1.28-.18,1.76-.37.33-.34.39-.17.72l.04.08c.12.24-.01.42-.12.57-.12.17-.22.3-.09.55.29.53.24.69.12,1.1-.02.06-.04.13-.06.2-.15.56-.18,1.83.31,2.29.18.16.48.26.81.26.53,0,1.24-.25,1.66-.94.25-.42.41-1.01.57-1.59.25-.94.52-1.91,1.18-2.2.12-.05.24-.08.34-.08Z"/>
              </g>
              <g>
                <path class="cls-20" d="M48.59,60.8c-.72-1.16-.61-1.22.07-2.04.59-.88.1-2.58-1.95-4.57-3.02-3.22-2.46-3.78-3.22-8.13-.77-4.35-2.97-5.58-7.11-7.67-4.6-2.3-3.84-5.68-4.6-8.08-.77-2.4-3.49-2.75-5.63-2.2-2.14.55-2.78-.03-3.42-.76-.64-.73-1.01-1.25-2.54-1.22-2.6.05-6.64,1.83-7.61,4.62-1.25,3.61.15,7.55,4.59,8.41,1.94.26,3.38.22,4.41.07,1.74-.39,2.6-1.37,2.05-1.25,0,0-3.42,1.71-7.46.13-3.2-1.45-4.52-5.09-2.33-8.43,2.19-2.68,6.41-4.39,8.43-2.06,1.62,1.54,2.77,1.23,4.26.75,1.49-.48,4.43.13,4.87,2.76.44,2.63.22,5.35,3.25,6.76,2.63,1.49,2.92,2.77,2.62,4.86-.31,2.1-1.48,8.8-.26,11.82,1.23,3.02,4.5,5.17,5.22,8.75.36,2.76-1.15,7.45-.31,10.48.97,3.48,2.66,6.29,3.17,9,.51,2.71.56,5.17.36,6.75-.18,1.38.07,1.44.64,1.07.1-1.83.19-7.4-1.88-12.03-2.08-5.15-2.08-6.22-1.47-11.29.51-3.73-.41-6.29-3.38-9.82-2.76-3.68-2.71-6.7-1.89-10.84.77-3.84.72-6.14-.15-7.16,3.94,1.43,4.91,5.17,4.76,7.88-.15,2.71-.61,6.9,2.56,9.21,2.05,1.13,2.97,1.89,2.92,2.81-.1.97.1.92.46,1.43.36.51.41.87-.05,1.53-.46.67-.25,1,0,1.62.26.62.38,1.1,0,1.83-.38.72-.21.8.12,1.23.33.43.41.79.2,1.12-.2.33.05.41.18.69s0,.46-.08.79c-.08.33.23.46.18,1.48-.05,1.02-.03,2.17-1.36,2.02-1.33-.15-1.94-1.18-2.56-3.5-.28-1.23-1-1.66-1.48-1.23-.49.44-.49,3.2-.33,4.81.18,1.13,1.76,1.23,1.3,2.23-.46,1-.56,1.71.03,2.05.59.33.9.69.74,1.38-.15.69-.2.97.51,1.59.72.61.84,1.1.64,1.87-.2.77-.26,1.1.23,1.51.49.41.62.65.2,1.05-.54.51-.54.95.03,1.36.56.41.53.61.2,1.02-.51.64-.66.9-.28,1.15.38.26.36.33.08.56-.28.23-.33.36-.03.64.17.15.22.25.18.42.06-.17,0-.31-.09-.42-.2-.24-.2-.31.14-.51.34-.2.34-.41.03-.72-.31-.31-.2-.41.34-.85.55-.44.17-1.09-.24-1.43-.41-.34-.61-.44,0-.96.61-.51.41-.72-.03-1.33-.44-.61-.48-.78-.27-1.53.2-.75.1-1.23-.55-1.81-.65-.58-.89-.68-.75-1.13.14-.44.37-1.02-.17-1.67-.55-.65-.95-.75-.72-1.4.24-.65,1.06-1.09-.2-2.25-1.26-1.16-1.16-2.42-1.02-4.06.14-1.64.78-1.74,1.26.1.48,1.84,1.23,3.27,2.73,3.48,1.5.2,1.88-.99,1.84-2.11-.03-1.13-.27-1.16-.1-1.5.17-.34.2-.58,0-.99-.2-.41-.24-.58-.03-.89.2-.31.24-.31-.07-.82-.31-.51-.38-.58-.14-1.13.24-.55.44-.89.03-1.7-.41-.82-.38-1.06-.03-1.64.34-.58.68-.78-.03-1.94Z"/>
                <path class="cls-22" d="M45.63,90.9c-.09,0-.16-.03-.22-.1-.14-.16-.17-.55-.07-1.28.23-1.79.1-4.31-.36-6.72-.27-1.44-.88-2.92-1.53-4.5-.58-1.41-1.18-2.87-1.64-4.5-.49-1.75-.21-4,.06-6.17.2-1.62.39-3.15.24-4.33-.41-2.03-1.66-3.61-2.87-5.14-.93-1.17-1.81-2.29-2.34-3.58-1.14-2.79-.23-8.73.16-11.26.03-.23.07-.44.09-.61.3-2.07,0-3.31-2.57-4.76-2.58-1.19-2.84-3.3-3.12-5.54-.05-.42-.11-.86-.18-1.29-.33-1.96-2.1-2.83-3.72-2.83-.37,0-.73.05-1.02.15-.7.23-1.28.4-1.88.4-.86,0-1.63-.36-2.48-1.17-.62-.71-1.45-1.07-2.49-1.07-1.9,0-4.28,1.28-5.79,3.12-1,1.52-1.31,3.22-.86,4.77.44,1.52,1.59,2.79,3.15,3.5,1.12.44,2.3.66,3.51.66,2.25,0,3.85-.78,3.86-.79h.02c.2-.05.28.04.29.12.03.31-.94,1.01-2.3,1.32-1.26.18-2.76.16-4.45-.07-1.96-.38-3.45-1.37-4.32-2.88-.92-1.6-1.05-3.66-.35-5.67.45-1.28,1.6-2.49,3.24-3.39,1.43-.78,3.1-1.27,4.46-1.3,1.5-.03,1.92.46,2.52,1.15l.1.11c.47.54.91.95,1.89.95.41,0,.88-.07,1.44-.21.58-.15,1.2-.23,1.78-.23,2.02,0,3.47.91,3.98,2.5.18.57.28,1.18.38,1.83.32,2.09.69,4.45,4.17,6.19,4.3,2.18,6.4,3.41,7.16,7.75.15.87.25,1.58.34,2.21.35,2.48.46,3.32,2.86,5.87,2.28,2.23,2.51,3.89,1.96,4.7l-.07.08c-.61.73-.66.79,0,1.85.63,1.02.48,1.35.16,1.85-.04.06-.08.13-.12.2-.32.55-.36.75.04,1.54.4.81.23,1.2.01,1.69l-.05.1c-.21.47-.18.52.09.96l.04.07c.3.5.31.57.09.88l-.03.04c-.17.25-.16.38.04.78.23.45.17.73,0,1.08-.07.14-.06.21-.01.41.04.19.11.49.13,1.04.02.56-.06,1.34-.53,1.82-.27.28-.64.42-1.09.42h0c-.11,0-.22,0-.34-.02-.84-.11-2.05-.61-2.81-3.55-.26-1.01-.54-1.28-.66-1.28-.15,0-.33.36-.4,1.16-.14,1.65-.24,2.85.99,3.97,1.05.96.72,1.5.43,1.97-.08.13-.15.26-.2.39-.15.42-.02.56.31.88.12.12.25.25.39.42.54.65.36,1.24.22,1.67l-.03.09c-.09.3-.01.38.44.78.08.07.17.15.28.24.65.58.8,1.08.58,1.91-.2.72-.17.85.26,1.45l.07.09c.39.53.6.83-.05,1.37-.24.2-.35.34-.35.42,0,.09.12.18.28.31l.07.06c.27.22.55.6.55.98,0,.24-.11.44-.31.61-.25.2-.47.38-.47.48,0,.05.04.12.14.22.19.19.27.35.25.5-.02.14-.11.26-.31.37-.14.09-.22.15-.23.18,0,.04.09.14.11.18.13.16.17.33.11.52l-.2-.05c.02-.12,0-.18-.15-.32-.1-.09-.16-.17-.2-.24,0,.5-.02.9-.04,1.18v.05s-.05.03-.05.03c-.23.15-.38.21-.5.21ZM27.57,28.09c1.7,0,3.57.93,3.92,3,.07.43.13.87.18,1.3.27,2.18.53,4.23,3.01,5.38,2.67,1.51,2.99,2.81,2.68,4.97-.03.17-.06.38-.09.61-.38,2.52-1.29,8.41-.17,11.15.52,1.27,1.39,2.37,2.31,3.53,1.23,1.55,2.5,3.15,2.91,5.23.16,1.21-.04,2.75-.24,4.39-.27,2.15-.55,4.38-.07,6.09.45,1.61,1.05,3.07,1.63,4.47.65,1.58,1.27,3.08,1.54,4.54.46,2.43.59,4.97.36,6.78-.08.63-.07,1.01.02,1.12.02.02.04.03.07.03.1,0,.26-.09.35-.15.09-1.7.19-7.32-1.88-11.93-2.06-5.09-2.1-6.17-1.47-11.34.5-3.65-.38-6.2-3.35-9.74-2.71-3.61-2.76-6.63-1.91-10.93.75-3.77.71-6.08-.13-7.07l-.25-.29.36.13c3.81,1.39,4.99,5.03,4.82,7.98,0,.16-.02.32-.03.49-.17,2.74-.4,6.49,2.54,8.63,1.92,1.06,3.02,1.87,2.96,2.91-.08.73.01.83.23,1.09.06.08.13.16.21.27.36.52.46.92-.05,1.65-.39.56-.27.85-.04,1.37.02.05.04.1.06.15.25.6.41,1.12,0,1.91-.31.59-.24.68.01,1,.03.04.06.08.1.12.37.48.44.88.21,1.24-.11.17-.06.23.04.36.05.06.1.14.15.23.11.24.06.43,0,.64-.02.07-.04.14-.06.22-.02.11,0,.19.05.33.07.21.17.52.14,1.14v.17c-.05.92-.1,1.96-1.23,1.96-.08,0-.16,0-.24-.01-1.47-.17-2.07-1.39-2.64-3.58-.21-.91-.64-1.32-.98-1.32-.12,0-.23.05-.33.14-.43.38-.46,3.01-.3,4.72.08.47.43.75.76,1.02.4.32.81.65.53,1.26-.49,1.06-.49,1.65-.02,1.91.52.29.97.68.79,1.49-.15.66-.2.9.48,1.49.72.62.9,1.13.67,1.97-.2.75-.25,1.03.2,1.4.3.25.48.45.49.68,0,.17-.08.33-.28.52-.26.25-.38.46-.37.66.01.18.14.36.38.53.31.23.45.4.48.58.03.19-.08.37-.25.59-.28.35-.5.64-.47.8,0,.04.03.11.17.2.1.07.18.13.24.18-.01-.02-.03-.03-.05-.05-.11-.11-.21-.23-.2-.37,0-.19.19-.34.55-.63.15-.13.23-.28.23-.45,0-.32-.25-.64-.47-.83l-.07-.06c-.2-.17-.35-.29-.35-.47,0-.16.12-.33.42-.58.51-.42.41-.55.02-1.09l-.07-.1c-.47-.65-.5-.84-.29-1.62.2-.75.07-1.18-.51-1.7-.1-.09-.19-.17-.27-.24-.44-.38-.64-.55-.51-.99l.03-.09c.14-.43.29-.92-.18-1.48-.14-.16-.26-.29-.38-.4-.33-.33-.56-.55-.36-1.1.06-.15.14-.29.22-.42.28-.47.53-.87-.4-1.72-1.3-1.2-1.19-2.5-1.06-4.14.07-.87.29-1.35.6-1.35.4,0,.69.78.86,1.43.57,2.18,1.38,3.23,2.64,3.4.11.01.21.02.31.02h0c.4,0,.71-.12.95-.36.42-.43.49-1.15.47-1.67-.02-.53-.08-.82-.12-1.01-.05-.21-.07-.33.03-.54.16-.31.19-.51,0-.9-.2-.41-.27-.63-.03-.99l.03-.04q.16-.24-.1-.66l-.04-.07c-.29-.48-.34-.6-.1-1.15l.05-.1c.21-.48.35-.79,0-1.51-.43-.85-.39-1.12-.03-1.73.04-.07.09-.14.13-.21.28-.43.43-.67-.16-1.63-.71-1.14-.65-1.29.02-2.09l.06-.07c.63-.93-.13-2.67-1.94-4.43-2.44-2.61-2.57-3.53-2.91-5.99-.09-.63-.19-1.33-.34-2.2-.75-4.23-2.82-5.45-7.05-7.6-3.58-1.79-3.95-4.21-4.28-6.34-.1-.64-.19-1.25-.37-1.8-.28-.88-1.15-2.36-3.78-2.36-.56,0-1.16.08-1.73.22-.58.15-1.06.22-1.49.22-1.06,0-1.55-.46-2.04-1.02l-.1-.11c-.58-.67-.96-1.1-2.36-1.08-1.34.03-2.97.5-4.37,1.27-1.6.88-2.72,2.04-3.15,3.28-.68,1.95-.55,3.95.34,5.5.84,1.45,2.28,2.41,4.17,2.78,1.65.22,3.15.25,4.38.07,1.25-.28,1.97-.85,2.1-1.05,0,0,0,0,0,0-.16.08-1.75.81-3.94.81-1.23,0-2.44-.23-3.59-.68-1.62-.73-2.81-2.05-3.26-3.63-.47-1.61-.15-3.37.89-4.95,1.55-1.89,3.99-3.2,5.95-3.2,1.08,0,1.99.39,2.63,1.13.81.76,1.53,1.1,2.33,1.1.57,0,1.14-.17,1.82-.39.31-.1.69-.16,1.08-.16ZM46.21,88.32c0,.28,0,.54,0,.78.05-.08.12-.16.23-.24.04-.04.18-.14.17-.18,0-.02-.03-.08-.24-.21-.07-.05-.13-.09-.17-.15ZM46.76,88.52s.05.09.06.15c0,.13-.1.23-.25.35-.04.03-.07.06-.09.08.05-.04.11-.08.18-.12.13-.08.2-.15.21-.22,0-.06-.03-.14-.11-.23ZM46.07,85.89c.06.68.1,1.31.12,1.9.09-.17.24-.37.44-.62.17-.21.22-.33.21-.43-.02-.12-.14-.26-.4-.44-.18-.13-.3-.26-.38-.4ZM44.86,79.98c.62,1.8.97,3.68,1.16,5.36.06-.18.19-.37.4-.57.15-.14.22-.26.22-.36,0-.15-.17-.32-.42-.53-.54-.46-.47-.85-.26-1.61.2-.76.05-1.2-.61-1.76-.23-.2-.38-.36-.48-.52ZM43.77,77.23c.15.4.33.83.51,1.3.15.34.29.68.42,1.03-.02-.21.02-.44.09-.74.14-.65-.16-.97-.69-1.27-.15-.09-.26-.19-.33-.32ZM37.59,39.68c.69,1.16.68,3.39-.03,6.96-.86,4.34-.8,7.19,1.87,10.76,3.02,3.59,3.9,6.18,3.4,9.9-.55,4.55-.58,5.9.85,9.67-.1-.47.12-1.07.37-1.6.2-.44-.03-.66-.47-1.01-.35-.28-.75-.6-.84-1.15-.13-1.32-.21-4.39.37-4.9.14-.12.3-.19.47-.19.51,0,.98.58,1.18,1.47.64,2.42,1.26,3.29,2.47,3.43.08,0,.15.01.22.01.94,0,.98-.86,1.02-1.77v-.17c.04-.58-.05-.86-.12-1.06-.05-.15-.09-.27-.05-.44.02-.09.04-.17.07-.24.06-.2.1-.32.02-.49-.03-.07-.08-.13-.12-.19-.11-.14-.23-.3-.05-.59.18-.29.12-.6-.2-1.01-.03-.04-.06-.08-.09-.12-.3-.38-.39-.55-.03-1.22.37-.71.23-1.17,0-1.74-.02-.05-.04-.1-.06-.15-.23-.53-.39-.91.06-1.57.44-.64.37-.96.05-1.42-.07-.11-.14-.19-.2-.26-.25-.3-.36-.47-.28-1.24.05-.81-.7-1.53-2.86-2.71h-.01c-3.03-2.21-2.8-6.03-2.63-8.82.01-.17.02-.33.03-.48.29-5.09-2.94-7.04-4.37-7.65Z"/>
              </g>
              <g>
                <path class="cls-20" d="M85.12,28.92c-3.02-3.07-7.16-3.32-8.49-1.94-1.53,2.15-3.17,1.13-5.63.87-2.51-.1-3.53,1.43-4.09,4.04-.95,4.4-1.33,4.81-4.91,6.85-5.93,3.07-6.19,4.86-6.75,9.41-.56,4.55-2.75,5.46-3.97,7.09-1.23,1.64-1.57,2.73-.89,3.55.68.82.65,1.02.48,1.47-.17.44-.96.95-.75,1.7.2.75.78,1.16.34,2.28-.61,1.36.17,2.05,0,2.56-.17.51-.51.61-.37.99.14.37.41.24.07,1.06-.34.82.27.85.03,1.7-.24.85-.44,2.9,1.4,3,2.76-.14,2.83-2.66,3.17-3.85.34-1.19.89-1.57,1.13.31.24,1.88-.1,3.31-.85,3.96-.75.65-.95.82-.51,1.64.44.82.58,1.02-.2,1.7-.66.58-.78.75-.61,1.47.17.72,0,.92-.65,1.6-.65.68-.78.89-.61,1.47.17.58.27,1.23-.1,1.74-.37.51-.78.92-.27,1.36.51.44.68.72.1,1.13-.58.41-.75.92-.38,1.3.38.37.85.38.34,1.09-.51.72.51.61.34,1.26-.05.18-.04.35,0,.51.01.01.03.02.04.03.06-.8.31-.99,0-1.28-.34-.31-.17-.34.1-.68.27-.34.1-.68-.27-1.06-.37-.38-.34-.61.14-1.09.48-.48.41-.82.07-1.3q-.34-.48.14-.99c.48-.51.37-1.06.2-1.71-.17-.65-.07-1.16.68-1.74.75-.58.68-.78.61-1.47-.07-.68-.31-.79.41-1.3.72-.51.96-.75.51-1.64-.44-.89-.44-1.19.2-1.67.89-.61.99-1.09,1-3.3,0-1.43-.06-3.14-1.07-2.7-1.01.44-1.04,2.65-1.71,3.75-.66,1.1-2.09,1.2-2.63.71-.54-.5-.5-1.83-.34-2.39.15-.56.26-.66-.05-1.23-.31-.56.41-.72.2-1.13-.2-.41-.31-.51.15-.92.46-.41.56-.82.15-1.64-.41-.82-.2-.82.15-1.69.36-.87.15-1.07-.15-1.59-.31-.51-.46-.87-.05-1.33.41-.46.67-.87.51-1.53-.15-.67.31-1.38,2.1-2.25,2.46-1.07,3.84-4.25,3.48-8.34-.36-4.09.97-7.88,4.5-9.36-.67,1.33-.77,3.17-.1,6.75,1.18,6.34.56,8.44-2.46,12.07-3.02,3.63-3.12,5.98-2.45,11,.66,5.01-1.43,8.29-2.71,12.33-1.09,3.43-.92,7.78-.84,9.02.82.49.78-.09.69-.78-.1-.82-.61-6.24,1.69-11.15,1.79-4.45,2.47-6.17,1.59-11.15-.75-5.05,1.23-7.09,3-9.48,1.77-2.39,2.93-4.09,2.39-9.27-.68-5.25-1.5-8.73,1.57-10.43,2.8-1.5,3.16-2.38,3.55-5.11.48-3.34,1.77-5.32,5.05-4.77,2.73.48,3,.55,4.84-1.36,1.71-1.23,4.5-.07,6.34,1.43,1.84,1.5,3.14,3.41,2.59,5.59-.55,2.18-3.55,6.21-10.84,3.89-.55.12.38.85,1.68,1.17,3.69.41,7.06-.24,8.38-2.22,1.53-2.3,2.3-5.27-.36-7.98Z"/>
                <path class="cls-22" d="M53.46,90.85c-.14,0-.31-.06-.53-.19l-.05-.03v-.05c-.03-.47-.07-1.36-.06-2.48-.02.08-.07.17-.13.25-.05.06-.1.12-.14.17-.17.19-.17.19.03.38.25.23.21.43.14.73-.04.16-.08.36-.1.64v.19s-.23-.16-.23-.16v-.04c-.06-.19-.06-.38-.01-.56.06-.22-.04-.32-.22-.46-.19-.15-.44-.37-.11-.83.16-.22.22-.38.2-.48-.02-.09-.12-.16-.24-.25-.09-.06-.19-.14-.28-.23-.17-.17-.24-.37-.23-.58.03-.3.24-.61.62-.87.21-.15.32-.28.32-.39,0-.16-.17-.34-.43-.57-.53-.46-.19-.91.14-1.34.04-.05.08-.1.12-.16.36-.49.24-1.14.09-1.65-.19-.65,0-.9.64-1.57.65-.68.78-.85.62-1.51-.18-.76-.04-.97.65-1.57.71-.61.63-.75.21-1.53l-.03-.05c-.48-.89-.23-1.11.52-1.75h.01c.74-.65,1.05-2.09.82-3.87-.15-1.18-.39-1.22-.42-1.22-.12,0-.33.29-.51.92-.05.17-.09.38-.14.6-.28,1.28-.69,3.21-3.12,3.33-.58-.03-1.01-.25-1.3-.64-.48-.67-.41-1.76-.21-2.49.11-.38.03-.57-.04-.78-.09-.24-.18-.48.01-.94.22-.53.17-.61.08-.73-.05-.06-.1-.13-.15-.25-.1-.27.02-.44.14-.62.08-.12.17-.25.24-.44.05-.15,0-.34-.08-.58-.14-.46-.33-1.08.08-1.99.3-.76.11-1.16-.11-1.62-.09-.18-.18-.37-.24-.6-.15-.56.19-.99.47-1.34.12-.15.24-.3.29-.43.15-.39.21-.55-.46-1.36-.69-.83-.43-1.93.88-3.67.3-.4.66-.76,1.03-1.14,1.17-1.17,2.5-2.5,2.92-5.91.56-4.51.79-6.38,6.81-9.49,3.49-1.99,3.9-2.36,4.86-6.78.79-3.64,2.44-4.13,3.96-4.13.08,0,.16,0,.24,0,.57.06,1.07.15,1.56.25.6.11,1.16.22,1.67.22.96,0,1.65-.39,2.3-1.29h0c.52-.55,1.41-.84,2.52-.84,2.12,0,4.4,1.04,6.11,2.78,2.84,2.9,1.77,6.01.37,8.11-1.03,1.54-3.31,2.39-6.42,2.39,0,0,0,0,0,0-.66,0-1.35-.04-2.05-.12h-.01c-1.03-.26-1.93-.78-1.92-1.13,0-.07.03-.19.24-.24h.03s.03,0,.03,0c1.45.46,2.81.69,4.04.69,4.38,0,6.25-2.83,6.67-4.51.47-1.88-.39-3.72-2.56-5.49-1.14-.93-2.93-1.92-4.54-1.92-.65,0-1.21.17-1.67.49-1.23,1.27-1.77,1.67-2.78,1.67-.52,0-1.17-.11-2.08-.27h-.07c-.35-.07-.69-.1-1-.1-2.24,0-3.46,1.47-3.93,4.78-.4,2.82-.81,3.69-3.6,5.19-2.72,1.51-2.32,4.45-1.71,8.89.06.46.13.94.19,1.44.54,5.09-.57,6.87-2.41,9.35-.15.2-.3.4-.45.6-1.65,2.17-3.21,4.22-2.53,8.8.89,5.02.17,6.83-1.59,11.2-2.35,5.02-1.76,10.49-1.68,11.1.06.44.09.8-.07.97-.06.07-.14.1-.25.1ZM53.08,90.51c.2.11.32.14.38.14.05,0,.08-.02.09-.03.11-.12.05-.54.02-.81-.08-.61-.68-6.13,1.7-11.21,1.79-4.45,2.46-6.12,1.58-11.09-.69-4.66.96-6.85,2.57-8.96.15-.2.3-.4.45-.6,1.7-2.28,2.92-3.93,2.37-9.2-.06-.49-.13-.97-.19-1.43-.62-4.53-1.03-7.52,1.81-9.1,2.73-1.46,3.1-2.26,3.49-5.04.48-3.38,1.8-4.95,4.13-4.95.32,0,.67.03,1.03.09h.07c.89.17,1.54.28,2.04.28.93,0,1.45-.38,2.64-1.62h.01c.49-.37,1.1-.55,1.8-.55,1.66,0,3.5,1.02,4.67,1.97,2.2,1.79,3.11,3.76,2.63,5.7-.43,1.73-2.37,4.66-6.87,4.66-1.25,0-2.62-.23-4.08-.69-.04.01-.06.02-.06.03,0,.15.66.66,1.76.93.69.08,1.37.12,2.02.12,3.04,0,5.26-.81,6.25-2.3,1.36-2.04,2.4-5.05-.35-7.85-1.67-1.7-3.9-2.71-5.97-2.71-1.04,0-1.9.28-2.37.76-.68.95-1.44,1.37-2.46,1.37-.53,0-1.11-.11-1.71-.22-.49-.09-.99-.19-1.54-.24-.07,0-.15,0-.22,0-2.06,0-3.15,1.15-3.76,3.96-.97,4.51-1.4,4.88-4.96,6.92-5.93,3.07-6.15,4.9-6.7,9.33-.43,3.48-1.78,4.83-2.98,6.03-.37.37-.72.72-1.02,1.11-1.24,1.66-1.51,2.68-.89,3.42.69.83.68,1.07.49,1.57-.06.16-.19.32-.32.48-.26.33-.55.7-.43,1.16.06.2.14.39.23.56.22.46.45.94.11,1.79-.38.84-.21,1.4-.07,1.85.08.26.15.49.08.7-.07.22-.18.37-.26.49-.11.17-.18.26-.11.43.03.09.07.15.12.2.14.18.21.32-.05.93-.16.39-.09.57-.01.79.08.22.17.46.05.9-.19.69-.26,1.71.17,2.32.24.34.62.53,1.13.55,2.26-.11,2.64-1.88,2.92-3.16.05-.22.09-.43.15-.61.14-.49.38-1.07.71-1.07.3,0,.5.46.62,1.39.24,1.88-.08,3.35-.89,4.05h-.01c-.75.65-.88.77-.48,1.51l.03.05c.43.79.57,1.06-.26,1.78-.65.56-.74.7-.58,1.37.18.76,0,.99-.67,1.7-.64.68-.74.84-.59,1.37.16.55.3,1.26-.12,1.83-.04.05-.08.11-.12.16-.36.48-.54.75-.17,1.07.32.28.51.5.5.74,0,.18-.14.36-.41.55-.32.23-.51.48-.53.72-.01.15.04.29.17.42.08.08.17.15.26.21.14.1.28.2.32.36.04.17-.03.37-.23.65-.22.31-.12.4.07.56.09.08.21.17.27.31.02-.15,0-.23-.12-.34-.34-.3-.24-.44-.04-.66.04-.04.09-.1.13-.16.21-.26.13-.53-.26-.92-.46-.47-.32-.78.14-1.24.44-.44.37-.73.06-1.16-.38-.53-.35-.59.15-1.12.44-.47.35-.96.18-1.61-.2-.76,0-1.3.72-1.85.66-.51.65-.69.59-1.27v-.11c-.02-.14-.05-.26-.07-.36-.08-.42-.09-.61.51-1.03.71-.5.89-.69.48-1.51-.45-.89-.47-1.28.24-1.8.83-.58.95-.97.96-3.22,0-.7,0-2.14-.4-2.56-.13-.14-.3-.15-.53-.05-.57.25-.82,1.17-1.07,2.06-.16.59-.33,1.2-.59,1.64-.46.77-1.25,1.04-1.84,1.04-.39,0-.73-.11-.95-.31-.59-.54-.53-1.91-.37-2.49.02-.08.04-.14.06-.2.11-.38.15-.5-.1-.95-.2-.36-.02-.6.1-.77.11-.15.16-.23.1-.36l-.04-.08c-.19-.38-.25-.55.22-.96.4-.35.54-.7.13-1.51-.35-.69-.27-.86-.04-1.34.06-.12.12-.26.19-.43.31-.75.18-.96-.07-1.37-.02-.04-.05-.08-.07-.12-.3-.51-.5-.93-.04-1.45.42-.48.63-.85.49-1.44-.19-.81.5-1.56,2.15-2.37,2.46-1.08,3.77-4.23,3.42-8.24-.4-4.56,1.31-8.09,4.56-9.46l.25-.11-.12.25c-.69,1.38-.72,3.32-.09,6.69.62,3.32.72,5.38.34,7.09-.41,1.87-1.42,3.38-2.82,5.06-3.04,3.66-3.08,6.02-2.43,10.92.51,3.81-.56,6.58-1.68,9.51-.35.92-.72,1.88-1.03,2.86-1.06,3.36-.92,7.61-.84,8.93ZM55.53,68.16c.16,0,.3.06.41.18.44.44.47,1.62.46,2.7,0,2.2-.1,2.73-1.04,3.38-.58.43-.61.67-.17,1.54.49.97.17,1.26-.54,1.77-.51.36-.49.47-.42.83.02.11.04.23.06.38v.11c.07.61.1.87-.65,1.45-.74.58-.8,1.05-.65,1.63.18.69.28,1.26-.23,1.8-.22.23-.34.36-.35.45-.01.08.07.2.22.41.35.49.45.89-.08,1.43-.47.47-.45.64-.14.95.17.17.36.39.42.64.04-1.85.25-4.23.89-6.28.31-.99.68-1.95,1.04-2.87,1.12-2.91,2.17-5.65,1.67-9.41-.66-4.96-.62-7.35,2.48-11.08,3.31-3.98,3.5-6.25,2.43-11.99-.6-3.22-.6-5.16,0-6.57-3.01,1.41-4.57,4.8-4.19,9.15.36,4.09-1,7.33-3.54,8.44-2.04.99-2.14,1.69-2.04,2.13.16.68-.08,1.11-.53,1.63-.36.4-.25.69.06,1.21.02.04.05.08.07.12.27.44.44.71.09,1.56-.07.18-.14.33-.2.44-.22.46-.26.55.04,1.16.4.81.36,1.28-.18,1.76-.37.33-.34.39-.17.72l.04.08c.12.24-.01.42-.12.57-.12.17-.22.3-.09.55.29.53.24.69.12,1.1-.02.06-.04.13-.06.2-.15.56-.18,1.83.31,2.29.18.16.48.26.81.26.53,0,1.24-.25,1.66-.94.25-.42.41-1.01.57-1.59.25-.94.52-1.91,1.18-2.2.12-.05.24-.08.34-.08Z"/>
              </g>
            </g>
            <g class="cls-2">
              <path class="cls-12" d="M50.59,55.29c-.5.48-1.72.6-2.22.09-.04-.04-.14.1-.1.14.54.65,1.85.45,2.37-.13.06-.07.06-.2-.04-.1Z"/>
              <path class="cls-12" d="M49.89,58.02c-.18-.03-.36.07-.53-.02-.03-.02-.1.07-.07.09.16.1.38.06.55.03.03,0,.09-.09.05-.1Z"/>
              <path class="cls-12" d="M50.5,59.73c-.65.15-1.22.13-1.83-.17-.04-.02-.1.07-.07.1.52.4,1.26.39,1.85.19.04-.01.11-.14.05-.12Z"/>
              <path class="cls-12" d="M49.97,60.95c-.37.2-.75.15-1.1-.08-.03-.02-.09.07-.06.09.36.25.77.32,1.15.07.02-.02.07-.11.02-.08Z"/>
              <path class="cls-12" d="M50.06,63.2c-.42.04-.87.06-1.25-.15-.03-.02-.08.06-.06.08.35.26.86.32,1.26.16.02,0,.07-.09.04-.09Z"/>
              <path class="cls-12" d="M49.88,64.82c-.29.06-.57.16-.84-.03-.02-.02-.07.05-.05.07.25.24.55.16.85.07.03-.01.1-.12.04-.11Z"/>
              <path class="cls-12" d="M50.23,66.62c-.5.27-1.14.39-1.54-.09-.02-.02-.08.05-.06.07.4.54,1.07.44,1.58.12.03-.02.09-.14.02-.1Z"/>
              <path class="cls-12" d="M49.7,68.22c-.13,0-.27.01-.4-.03-.03-.01-.09.07-.05.08.13.04.28.03.41.02.02,0,.06-.06.04-.07Z"/>
              <path class="cls-12" d="M49.63,69.76c-.11-.02-.23.03-.3-.09-.02-.03-.08.05-.07.08.05.13.2.14.32.11.03,0,.09-.09.05-.1Z"/>
              <path class="cls-12" d="M49.52,70.58c-.15.05-.26.01-.37-.09-.02-.02-.09.06-.07.09.11.15.24.21.41.11.02-.01.09-.13.03-.11Z"/>
              <path class="cls-12" d="M49.93,71.79c-.23.04-.58.12-.73-.11-.02-.02-.06.04-.05.06.14.27.51.22.75.14.03,0,.08-.1.03-.09Z"/>
              <path class="cls-12" d="M52.91,74.24c-1.24.59-2.55.7-3.9.67-1.12-.02-2.4-.03-3.45-.45-.02,0-.05.04-.04.05,1.01.64,2.6.52,3.75.54,1.25.02,2.49-.19,3.62-.73.03-.01.07-.11.02-.09Z"/>
              <path class="cls-12" d="M53.13,77.1c-2.25.84-5.18,1.2-7.42.08-.02-.01-.06.04-.04.06,1.05.76,2.41.75,3.65.78,1.29.03,2.62-.21,3.77-.81.02-.01.08-.12.03-.1Z"/>
              <path class="cls-12" d="M51.9,80.02c-1.86.64-3.96.45-5.83-.09-.02,0-.06.06-.04.06,1.74.68,4.09.89,5.83.12.03-.01.08-.11.04-.1Z"/>
              <path class="cls-12" d="M51.23,83.4c-1.42.23-3.14.56-4.45-.24-.02-.01-.06.05-.04.06,1.24.88,3.06.62,4.45.27.03,0,.09-.1.04-.1Z"/>
              <path class="cls-12" d="M52.11,85.55c-1.64.22-3.54.73-5.12-.04-.02-.01-.07.05-.05.07,1.53.83,3.51.39,5.12.06.03,0,.07-.09.04-.09Z"/>
              <path class="cls-12" d="M51.13,88.15c-1.32.21-2.52.49-3.78-.13-.02-.01-.06.05-.04.06,1.2.67,2.5.48,3.79.17.03,0,.09-.11.04-.1Z"/>
              <path class="cls-12" d="M50.71,89.24c-.85-.32-1.91-.26-2.78,0-.02,0-.06.07-.03.07.95-.08,1.79-.1,2.73.07.04,0,.12-.11.08-.13Z"/>
            </g>
            <g class="cls-5">
              <path class="cls-19" d="M48.38,69.61c.08-.33.2-.51.08-.79s-.38-.36-.18-.69c.2-.33.13-.69-.2-1.12-.33-.44-.5-.51-.12-1.23.38-.72.26-1.21,0-1.83-.26-.62-.47-.96,0-1.62.46-.66.41-1.02.05-1.53-.36-.51-.56-.46-.46-1.43.05-.92-.87-1.69-2.92-2.81-3.17-2.3-2.71-6.5-2.56-9.21.15-2.71-.82-6.44-4.76-7.88.87,1.02.92,3.32.15,7.16-.63,3.17-.8,5.68.39,8.34h0s-.77-2.66.33-6.43c1.11-3.76.77-4.92.94-6.14.17-1.22,2.71,2.93,1.77,7.47-.94,4.54.39,5.48,2.93,7.36,2.55,1.88,2.99,2.82,2.49,3.87-.5,1.05-.55,1.49,0,2.32.55.83-1.05,2.21,0,3.82,1.05,1.6.28,3.65-.94,1.49-1.22-2.16-1.27-3.93-2.21-7.25-.94-3.32-2.88-2.93-4.15-4.54-.04-.05-.09-.1-.13-.13.14.21.3.43.46.65,2.97,3.53,3.89,6.09,3.38,9.82-.61,5.06-.61,6.14,1.47,11.29,2.08,4.63,1.98,10.2,1.88,12.03.09-.06.18-.12.28-.2.03-.02.07-.05.11-.07.11-.12.17-.23.2-.33.04-.17-.02-.27-.18-.42-.31-.28-.26-.41.03-.64.28-.23.31-.31-.08-.56-.38-.26-.23-.51.28-1.15.33-.41.36-.61-.2-1.02-.56-.41-.56-.84-.03-1.36.42-.4.28-.64-.2-1.05-.49-.41-.43-.74-.23-1.51.2-.77.08-1.25-.64-1.87-.72-.61-.66-.9-.51-1.59.15-.69-.15-1.05-.74-1.38-.59-.33-.49-1.05-.03-2.05.46-1-1.13-1.1-1.3-2.23-.15-1.61-.15-4.37.33-4.81.49-.43,1.2,0,1.48,1.23.61,2.33,1.23,3.35,2.56,3.5,1.33.15,1.3-1,1.36-2.02.05-1.02-.26-1.15-.18-1.48Z"/>
            </g>
            <g class="cls-5">
              <path class="cls-19" d="M55.82,61.64c-.94,3.32-1,5.09-2.21,7.25-1.22,2.16-1.99.11-.94-1.49,1.05-1.6-.55-2.99,0-3.82.55-.83.5-1.27,0-2.32-.5-1.05-.06-1.99,2.49-3.87,2.55-1.88,3.87-2.82,2.93-7.36-.94-4.54,1.6-8.69,1.77-7.47.17,1.22-.17,2.38.94,6.14,1.03,3.52.43,6.06.34,6.38,1.07-2.22,1.11-4.57.3-8.92-.66-3.58-.56-5.42.1-6.75-3.53,1.48-4.86,5.27-4.5,9.36.36,4.09-1.02,7.26-3.48,8.34-1.79.87-2.25,1.58-2.1,2.25.15.66-.1,1.07-.51,1.53-.41.46-.26.82.05,1.33.31.51.51.72.15,1.59-.36.87-.56.87-.15,1.69.41.82.31,1.23-.15,1.64-.46.41-.36.51-.15.92.2.41-.51.56-.2,1.13.31.56.2.66.05,1.23-.15.56-.2,1.89.34,2.39.54.5,1.97.4,2.63-.71.66-1.1.69-3.31,1.71-3.75,1.01-.44,1.08,1.27,1.07,2.7,0,2.21-.11,2.69-1,3.3-.65.48-.65.78-.2,1.67.44.89.2,1.13-.51,1.64-.72.51-.48.61-.41,1.3.07.68.14.89-.61,1.47-.75.58-.85,1.09-.68,1.74.17.65.27,1.19-.2,1.71q-.48.51-.14.99c.34.48.41.82-.07,1.3-.48.48-.51.72-.14,1.09.38.38.55.72.27,1.06-.27.34-.44.38-.1.68.32.29.07.49,0,1.28.18.14.33.24.46.32-.08-1.24-.24-5.59.84-9.02,1.28-4.04,3.38-7.31,2.71-12.33-.66-5.01-.56-7.36,2.45-11,.18-.22.36-.43.52-.64-1.24,1.08-2.86,1.12-3.69,4.06Z"/>
            </g>
            <path class="cls-11" d="M41.89,40.54c2.05,1.43,2.7,4.75,2.79,7.65.09,2.9,2.91,5.51,4.78,5.6,1.88.09,4.52-2.89,4.77-5.43.35-3.67,1.35-6.22,2.92-7.96-6.45,3.09-15.25.13-15.25.13Z"/>
            <path class="cls-11" d="M41.89,40.54c2.05,1.43,2.7,4.75,2.79,7.65.09,2.9,2.91,5.51,4.78,5.6,1.88.09,4.52-2.89,4.77-5.43.35-3.67,1.35-6.22,2.92-7.96-6.45,3.09-15.25.13-15.25.13Z"/>
            <g>
              <g>
                <path class="cls-13" d="M81.34,40.56s-1.1-1.56-4.51-1.1c-1.13-.9-5.06-1.03-6.2,1.2-2.26.55-2.21,2.78-2.21,2.78-1.72.59-1.37,2.35-.88,3.09-.64.94.49,2.07,1.08,2.38,0,0,.05,2.31,3.54,2.07,1.47.98,3.83.51,4.76-.51,1.13.78,3.88.35,4.76-.74,1.57.23,4.71-2.31,2.16-5.2.74-1.41-.29-3.61-2.5-3.98Z"/>
                <path class="cls-6" d="M74.11,51.64c-.76,0-1.45-.18-2-.53-.15,0-.29.01-.43.01-2.43,0-3.15-1.37-3.2-2.14-.62-.36-1.69-1.48-1.1-2.45-.34-.55-.54-1.44-.22-2.17.2-.45.58-.79,1.12-.99.02-.41.22-2.26,2.24-2.79.61-1.15,2.06-1.83,3.89-1.83,1.02,0,1.95.23,2.46.6.4-.05.79-.08,1.15-.08,2.28,0,3.21.97,3.4,1.2.96.17,1.77.69,2.29,1.47.55.84.66,1.82.29,2.6,1.45,1.69.92,3.09.47,3.78-.59.91-1.68,1.56-2.59,1.56h0s-.1,0-.14,0c-.59.67-1.89,1.13-3.2,1.13-.65,0-1.21-.12-1.61-.35-.63.61-1.72,1-2.83,1ZM72.2,50.86l.05.03c.5.33,1.15.51,1.86.51,1.06,0,2.14-.4,2.69-1l.09-.1.12.08c.34.24.89.37,1.54.37,1.23,0,2.5-.46,3.01-1.09l.05-.07h.1c.06.02.12.03.18.03h0c.67,0,1.71-.5,2.32-1.44.42-.65.92-1.98-.5-3.59l-.05-.05.03-.06c.37-.72.28-1.66-.25-2.46-.48-.73-1.25-1.21-2.15-1.36h-.07s-.03-.06-.03-.06c-.03-.05-.83-1.12-3.18-1.12-.37,0-.77.03-1.18.08h-.08s-.05-.03-.05-.03c-.44-.35-1.34-.57-2.31-.57-.65,0-2.83.13-3.64,1.74l-.03.05-.07.02c-2.13.52-2.11,2.64-2.11,2.66v.08s-.09.03-.09.03c-.51.17-.86.47-1.05.89-.33.74-.04,1.62.24,2.04l.04.06-.04.06c-.59.87.5,1.95,1.03,2.23l.06.03v.06c0,.08.08,1.97,2.91,1.97.15,0,.31,0,.47-.02h.06Z"/>
              </g>
              <path class="cls-1" d="M67.39,44.22c-.1.65-.06,1.29.3,1.83.62.94,2.34,1.49,3.5.92-.37.88-.43,1.89.68,2.44,1.22.6,2.94.1,2.76-.95.97.78,2.42.93,3.53.07.8-.62.99-1.47.37-2.08,1.39.26,3.12.15,3.54-1.09.43-1.28-.9-2.06-2.3-2.12,1.04-.82.61-2.25-.78-2.82-.94-.39-2.05-.28-2.76.38-.48.45-.26,1.14-.12,1.75-.46-.77-1.28-1.39-2.41-1.52-.99-.11-2.8-.01-3.23.86-.38-.3-.89-.36-1.37-.27.33-.4.82-.76,1.55-.93,1.13-2.23,5.07-2.1,6.2-1.2,3.41-.46,4.51,1.1,4.51,1.1,2.21.36,3.24,2.57,2.5,3.98,2.55,2.89-.59,5.43-2.16,5.2-.88,1.09-3.63,1.52-4.76.74-.93,1.02-3.29,1.49-4.76.51-3.49.23-3.54-2.07-3.54-2.07-.59-.31-1.72-1.45-1.08-2.38-.34-.52-.61-1.54-.15-2.31Z"/>
              <g>
                <path class="cls-7" d="M72.65,40.74c.55-.25,1.31-.21,1.95-.08.06-.3.46-.58.72-.75.44-.3,1.02-.52,1.6-.53.06,0,.18.14.1.15-.51.09-.95.35-1.34.61-.21.14-.39.29-.56.47-.04.04-.07.1-.11.16.8.24,1.07.73,1.52,1.26.06.07,0,.11-.07.04-.48-.48-.74-.88-1.55-1.06-.04,0-.08-.01-.12-.02,0,0,0,0-.01,0-.04.01-.07,0-.11-.03-.61-.08-1.18.05-1.8.08-.11,0-.37-.25-.24-.3Z"/>
                <path class="cls-7" d="M81.27,40.37c.34.46.8.95.81,1.51,0,.11-.19-.07-.21-.12-.13-.52-.46-.93-.72-1.4-.05-.09.08-.03.11.01Z"/>
                <path class="cls-7" d="M82.03,46.4c.51-.29.79-.53.96-1.03.25-.76-.14-1.34-.65-1.96-.06-.07-.02-.17.07-.07.53.51.93.96,1,1.58.06-.05.1-.1.15-.16.09-.15.14-.31.21-.46.03-.06.16.08.15.13-.08.24-.12.78-.5.86-.05.54-.33,1.45-1.17,1.39-.09,0-.33-.2-.21-.27Z"/>
                <path class="cls-7" d="M74.25,50.37c1.17.15,2.79.12,3.51-.75-.18.04-.37.06-.58.05-.1,0-.32-.24-.18-.26.5-.08.97-.18,1.36-.45.4-.28.64-.69.84-1.08.04-.07.23.1.2.17-.26.61-.64,1.2-1.31,1.47-.47,1.18-2.45,1.56-3.77,1.04-.06-.02-.21-.21-.07-.19Z"/>
                <path class="cls-7" d="M81.51,49.6c.32-.3.44-.59.51-.97.03-.12.26.09.25.16-.04.36-.06.89-.53,1.06-.12.04-.31-.18-.23-.25Z"/>
                <path class="cls-7" d="M71.7,50.35c.13.25.38.37.65.52.06.03.11.08.14.14.02.04.03.12-.05.1-.42-.11-.77-.46-.89-.79-.05-.13.13-.02.16.04Z"/>
                <path class="cls-7" d="M68.64,48.88c.36.16.72.2,1.12.26.08.01.28.22.14.25-.48.08-.9-.17-1.25-.4-.03-.02-.11-.16-.01-.11Z"/>
                <path class="cls-7" d="M68.34,43.24c0-.08.16.06.16.11.02.26.03.51.13.76.06.15-.16.03-.19-.05-.11-.27-.13-.53-.1-.82Z"/>
              </g>
            </g>
            <g>
              <g>
                <path class="cls-13" d="M17.15,41.24s.77-1.36,3.13-.96c.78-.78,3.52-.89,4.3,1.05,1.57.48,1.53,2.42,1.53,2.42,1.19.51.95,2.05.61,2.69.44.82-.34,1.81-.75,2.08,0,0-.03,2.01-2.46,1.81-1.02.85-2.66.44-3.31-.44-.78.68-2.69.31-3.31-.65-1.09.2-3.27-2.01-1.5-4.54-.51-1.23.2-3.15,1.74-3.47Z"/>
                <path class="cls-6" d="M22.17,50.9c-.77,0-1.53-.34-1.97-.87-.28.2-.67.31-1.12.31-.91,0-1.81-.4-2.22-.99-.03,0-.06,0-.1,0-.63,0-1.39-.57-1.8-1.36-.31-.6-.68-1.83.33-3.3-.26-.67-.18-1.53.2-2.26.36-.68.92-1.13,1.59-1.28.13-.2.78-1.04,2.36-1.04.25,0,.52.02.8.07.35-.32,1-.52,1.71-.52,1.27,0,2.27.6,2.7,1.6,1.41.46,1.55,2.08,1.56,2.44.38.18.64.47.78.87.23.64.08,1.42-.15,1.89.41.84-.33,1.82-.76,2.13-.04.68-.53,1.87-2.22,1.87h0c-.1,0-.2,0-.3-.01-.38.3-.86.47-1.39.47ZM20.24,49.74l.07.09c.38.52,1.13.87,1.87.87.5,0,.94-.15,1.29-.44l.03-.03h.04c.11.01.22.01.33.02,1.97,0,2.02-1.65,2.02-1.72v-.05s.05-.03.05-.03c.37-.25,1.13-1.19.72-1.95l-.03-.05.03-.05c.19-.36.39-1.14.16-1.78-.13-.36-.37-.62-.73-.77l-.06-.03v-.07s.01-1.87-1.46-2.32h-.05s-.02-.06-.02-.06c-.57-1.41-2.08-1.51-2.53-1.51-.67,0-1.3.2-1.61.5l-.04.04h-.05c-.28-.06-.56-.08-.82-.08-1.63,0-2.19.94-2.21.98l-.02.04h-.05c-.63.14-1.16.56-1.49,1.2-.37.7-.43,1.52-.17,2.14l.02.05-.03.05c-.99,1.4-.64,2.57-.34,3.13.42.81,1.15,1.25,1.61,1.25.04,0,.09,0,.13-.01h.07s.04.05.04.05c.35.55,1.23.95,2.09.95.45,0,.83-.11,1.07-.32l.08-.07Z"/>
              </g>
              <path class="cls-1" d="M26.84,44.44c.07.56.04,1.12-.21,1.6-.43.82-1.63,1.3-2.43.8.26.77.3,1.65-.47,2.12-.85.53-2.04.09-1.92-.83-.67.68-1.68.81-2.45.06-.55-.54-.69-1.28-.26-1.81-.96.23-2.16.13-2.46-.96-.3-1.12.62-1.79,1.6-1.85-.72-.72-.42-1.96.54-2.46.65-.34,1.43-.25,1.92.33.33.39.18.99.09,1.53.32-.67.89-1.21,1.67-1.33.68-.1,1.94-.01,2.25.75.26-.26.62-.31.95-.24-.23-.35-.57-.66-1.08-.82-.78-1.94-3.52-1.83-4.3-1.05-2.37-.4-3.13.96-3.13.96-1.54.32-2.25,2.24-1.74,3.47-1.77,2.52.41,4.74,1.5,4.54.61.95,2.52,1.33,3.31.65.65.89,2.29,1.3,3.31.44,2.42.2,2.46-1.81,2.46-1.81.41-.27,1.19-1.26.75-2.08.24-.45.43-1.34.11-2.01Z"/>
              <g>
                <path class="cls-7" d="M23.18,41.4c-.38-.22-.91-.18-1.35-.07-.04-.26-.32-.5-.5-.66-.3-.26-.71-.45-1.11-.46-.04,0-.13.12-.07.13.35.08.66.31.93.54.14.12.27.26.39.41.03.04.05.09.07.14-.55.21-.74.64-1.06,1.1-.04.06,0,.09.05.03.34-.42.51-.77,1.07-.92.03,0,.05-.01.08-.02,0,0,0,0,0,0,.03,0,.05,0,.07-.02.43-.07.82.04,1.25.07.08,0,.25-.21.17-.26Z"/>
                <path class="cls-7" d="M17.2,41.08c-.24.4-.56.83-.56,1.31,0,.09.14-.06.14-.1.09-.45.32-.81.5-1.22.04-.08-.06-.02-.08.01Z"/>
                <path class="cls-7" d="M16.67,46.34c-.36-.25-.55-.46-.67-.9-.18-.66.1-1.17.45-1.71.04-.06.02-.14-.05-.06-.37.44-.65.84-.7,1.38-.04-.04-.07-.08-.1-.14-.06-.13-.09-.27-.15-.4-.02-.05-.11.07-.1.11.05.21.08.68.35.75.03.47.23,1.27.81,1.21.06,0,.23-.18.15-.24Z"/>
                <path class="cls-7" d="M22.07,49.8c-.81.13-1.94.1-2.43-.65.12.03.26.05.4.04.07,0,.22-.21.12-.23-.35-.07-.67-.16-.95-.4-.28-.24-.44-.6-.58-.94-.03-.06-.16.09-.14.15.18.53.45,1.04.91,1.28.33,1.03,1.7,1.36,2.62.91.04-.02.14-.18.05-.17Z"/>
                <path class="cls-7" d="M17.03,49.13c-.22-.26-.3-.51-.36-.85-.02-.11-.18.08-.17.14.03.31.04.77.37.93.08.04.21-.16.16-.22Z"/>
                <path class="cls-7" d="M23.84,49.78c-.09.22-.26.32-.45.45-.04.03-.08.07-.1.12-.01.03-.02.1.04.08.29-.1.53-.4.62-.69.04-.12-.09-.02-.11.03Z"/>
                <path class="cls-7" d="M25.97,48.5c-.25.14-.5.18-.78.23-.05.01-.19.2-.1.22.33.07.62-.15.87-.35.02-.02.08-.14,0-.1Z"/>
                <path class="cls-7" d="M26.17,43.58c0-.07-.11.05-.11.09-.01.22-.02.45-.09.66-.04.13.11.03.13-.04.07-.24.09-.47.07-.71Z"/>
              </g>
            </g>
            <path class="cls-18" d="M38.53,55.09c-1.91-3.1.43-6.39.34-9.62,0-.04-.06.03-.06.05-.03,3.17-2,6.01-.77,9.18.56,1.45,1.85,2.48,2.91,3.55,1.19,1.2,2.06,2.48,2.5,4.12.02.08.2-.12.19-.2-.66-3.15-3.52-4.51-5.1-7.08Z"/>
            <path class="cls-17" d="M43.25,48.71s-.29,2.97,1.81,4.99c2.1,2.02,2.96,2.54,2.72,3.26-.24.73-4.53-.49-5.1-4.86-.57-4.37.24-6.64.57-3.4Z"/>
            <path class="cls-17" d="M55.85,48.71s.29,2.97-1.81,4.99c-2.1,2.02-2.96,2.54-2.72,3.26.24.73,4.53-.49,5.1-4.86.57-4.37-.24-6.64-.57-3.4Z"/>
          </g>
          <g class="cls-16">
            <path class="cls-10" d="M16.88,48.57s.5.34.8-.28c.3-.62.78-.83.89,0,.11.83.37,1.74,1.1,1.58.73-.16,1.19-.34,1.49.11.3.46,1.22.53,1.97.02.76-.5,1.06-.48.76-.09-.3.39.32.25.64.23.32-.02.05.21-.92.32-.96.11-1.15.76-2.06.25-.92-.5-.69-.83-1.86-.57-1.17.25-1.17.23-2-.27-.83-.5-.69-.44-1.19-.55-.5-.11-.21-.21.11-.25.32-.05-.39-.69.25-.5Z"/>
          </g>
        </g>
      </g>
    </g>
  </g>
</svg>