<?xml version="1.0" encoding="UTF-8"?>
<svg id="Layer_1" data-name="Layer 1" xmlns="http://www.w3.org/2000/svg" viewBox="0 0 100 100">
  <defs>
    <style>
      .cls-1 {
        fill: #ff4b6d;
      }

      .cls-2 {
        fill: #ff735d;
      }

      .cls-3 {
        opacity: .3;
      }

      .cls-4 {
        fill: #fff;
      }

      .cls-5 {
        fill: #1a2e35;
      }

      .cls-6 {
        opacity: .2;
      }

      .cls-7 {
        opacity: .5;
      }
    </style>
  </defs>
  <circle class="cls-4" cx="50" cy="50" r="50"/>
  <g>
    <g>
      <path class="cls-2" d="M42.56,57.65c-.16.62.49,12.59,10.43,15.29,0,0-.75,3.59,3.15,7.02,0,0,3.01,4.15,2.88,7.23l5.37-1.33,1.12-14.01-2.81-14.2s-10.14-4.37-10.77-4.37-9.36,4.37-9.36,4.37Z"/>
      <path class="cls-3" d="M42.56,57.65c-.16.62.49,12.59,10.43,15.29,0,0-.75,3.59,3.15,7.02,0,0,3.01,4.15,2.88,7.23l5.37-1.33,1.12-14.01-2.81-14.2s-10.14-4.37-10.77-4.37-9.36,4.37-9.36,4.37Z"/>
      <path class="cls-2" d="M79.21,68.43c-.36-1.16-1.02-2.2-1.71-3.21-.67-.99-1.38-1.97-2.2-2.84-2.35-2.5-5.59-4.06-8.95-4.75-1.57-.32-3.19-.46-4.76-.21-1.58.26-3.11.93-4.23,2.08l-1.47,1.82c-.52,2.17.62,4.63,2.6,5.65-1.22,2.79-1.31,6.17.23,8.79,1.55,2.62,4.88,4.22,7.79,3.33.6-.18,1.17-.46,1.79-.53.61-.07,1.22.06,1.83.12,3.48.36,7.08-1.66,8.58-4.82.8-1.68,1.03-3.66.48-5.43Z"/>
      <g class="cls-7">
        <path d="M79.21,68.43c-.36-1.16-1.02-2.2-1.71-3.21-.67-.99-1.38-1.97-2.2-2.84-2.35-2.5-5.59-4.06-8.95-4.75-1.57-.32-3.19-.46-4.76-.21-1.58.26-3.11.93-4.23,2.08l-1.47,1.82c-.52,2.17.62,4.63,2.6,5.65-1.22,2.79-1.31,6.17.23,8.79,1.55,2.62,4.88,4.22,7.79,3.33.6-.18,1.17-.46,1.79-.53.61-.07,1.22.06,1.83.12,3.48.36,7.08-1.66,8.58-4.82.8-1.68,1.03-3.66.48-5.43Z"/>
      </g>
      <path class="cls-3" d="M44.45,65.56s5.08-.05,7.97-1.92c0,0,6.72,1.26,14.8,0,0,0,5.28,6.67,12.02,7.91.47-.79.33-2.95.27-4.94l-14.42-9.2-13.95,1.71-7.61,4.14.92,2.29Z"/>
      <path class="cls-1" d="M10.06,38.95s-4.58-5.62,2.49-11.09c0,0,.4-3.54,3.7-3.7,0,0,.08-4.9,8.04-7.15,0,0-.16-2.25,5.79-2.81,5.95-.56,8.36-.4,8.36-.4,0,0,4.5-2.49,9.56.4,0,0,7.63-1.85,13.34,1.61,0,0,2.47-.88,4.81.88,2.34,1.77,5.4,4.18,5.4,4.18,0,0,6.51.77,7.39,5.01,0,0,8.76,3.91,8.76,13.07v.72s5.46,9,3.13,16.31c0,0-.72,3.62-2.49,4.74,0,0-2.49,10.12-6.59,9.48,0,0-1.04.32-2.09-1.21l-1.45-.96s-2.73.08-3.21-1.45c0,0-5.46-1.77-7.23-5.79,0,0-1.21,1.69-7.31,1.12-6.11-.56-8.52-1.29-8.52-1.29,0,0-5.95,3.54-10.12,4.5-4.18.96-7.96.48-9.56-2.09-1.61-2.57-2.73-2.81-3.29-5.22-.56-2.41-.96-3.86-.96-3.86,0,0-8.38-1.31-12.94-4.42-4.82-3.29-6.67-6.99-4.98-10.61Z"/>
      <path class="cls-5" d="M32.32,18.62s-.04.05-.14.12c-.1.07-.25.17-.46.29-.21.12-.47.24-.78.4-.3.16-.67.32-1.01.61h-.01s-.02,0-.02,0c-.49-.15-1.04-.34-1.67-.42-.62-.09-1.35-.05-1.99.34-.32.19-.59.47-.76.83-.17.35-.25.76-.24,1.18,0,.42.09.84.27,1.25.17.4.41.79.63,1.2l.02.05-.05.03c-.15.08-.29.24-.42.4-.12.16-.24.34-.29.54l-.02.06-.06-.02c-1.22-.46-2.62-.67-4.04-.55-1.21.1-2.36.43-3.38.94-1.02.51-1.89,1.19-2.6,1.96-.71.76-1.24,1.6-1.64,2.43-.38.83-.62,1.65-.75,2.41v.03s-.03,0-.03,0c-.35.07-.65.26-.88.49-.23.23-.39.5-.51.76-.24.53-.3,1.03-.36,1.43-.05.4-.09.72-.12.93-.02.11-.03.19-.04.24-.01.05-.02.08-.02.08s0-.03,0-.08c0-.06.02-.14.03-.24.02-.22.06-.53.1-.93.05-.4.11-.91.34-1.45.12-.27.29-.54.52-.78.23-.24.54-.45.92-.52l-.03.03c.12-.76.36-1.6.74-2.44.39-.84.93-1.69,1.65-2.46.71-.78,1.6-1.47,2.62-1.99,1.03-.51,2.2-.85,3.42-.95,1.44-.12,2.86.09,4.09.56l-.08.04c.06-.23.18-.41.31-.58.14-.17.27-.33.46-.43l-.03.08c-.21-.41-.45-.8-.63-1.21-.18-.42-.26-.86-.27-1.29,0-.43.08-.85.25-1.22.18-.37.47-.67.8-.87.67-.39,1.42-.43,2.05-.33.64.09,1.19.28,1.68.44h-.03c.35-.28.72-.44,1.03-.6.31-.15.58-.27.79-.38.21-.11.36-.2.46-.27.1-.07.15-.11.15-.11Z"/>
      <path class="cls-5" d="M39.54,16.51s-.03.02-.08.06c-.06.04-.14.09-.25.16-.11.07-.23.18-.38.29-.07.06-.14.14-.23.21-.04.04-.08.08-.12.12-.04.04-.08.09-.12.14-.33.37-.67.88-.93,1.54-.13.33-.24.69-.32,1.08-.04.19-.07.4-.1.61-.03.21-.06.42-.03.64.06.43.31.84.64,1.19.32.36.73.66,1.11,1.03.19.18.37.39.51.62.15.23.25.5.3.78.11.56.04,1.15-.08,1.73-.14.58-.3,1.16-.54,1.73-.24.57-.58,1.14-1.11,1.54-.52.4-1.18.59-1.84.67-.66.09-1.34.08-2.01.11-1.35.06-2.68.2-3.92.49-1.24.29-2.4.76-3.38,1.4-.98.64-1.73,1.49-2.55,2.15-.81.68-1.74,1.09-2.62,1.25-.88.17-1.71.14-2.4,0-.7-.14-1.27-.37-1.71-.61-.44-.24-.75-.48-.95-.65-.09-.09-.17-.15-.22-.2-.05-.05-.07-.07-.07-.07,0,0,.03.02.08.06.06.05.13.11.23.19.2.16.52.39.95.63.44.23,1.01.45,1.7.58.69.14,1.51.16,2.37-.01.87-.17,1.78-.57,2.57-1.24.81-.65,1.56-1.51,2.55-2.16.99-.65,2.16-1.13,3.41-1.42,1.25-.3,2.58-.44,3.94-.5.68-.03,1.35-.03,2-.11.65-.08,1.28-.27,1.79-.65.5-.38.84-.93,1.07-1.49.23-.56.4-1.15.54-1.71.13-.57.2-1.14.09-1.68-.05-.27-.15-.52-.29-.75-.14-.23-.31-.42-.5-.61-.37-.37-.78-.67-1.11-1.03-.33-.36-.59-.78-.65-1.24-.03-.23,0-.45.03-.66.03-.21.06-.42.11-.61.09-.39.2-.76.33-1.09.27-.66.62-1.17.96-1.54.04-.05.08-.09.12-.14.04-.04.09-.08.13-.12.08-.07.15-.15.23-.21.16-.11.28-.22.39-.29.11-.06.19-.12.26-.15.06-.03.09-.05.09-.05Z"/>
      <path class="cls-5" d="M48.01,16.51s-.03-.02-.07-.05c-.05-.03-.12-.09-.21-.16-.19-.14-.47-.33-.87-.52-.79-.39-2.04-.76-3.62-.77-1.58-.03-3.44.27-5.52.5-2.07.25-4.36.5-6.75.8-2.39.31-4.66.72-6.63,1.39-1.98.66-3.64,1.6-4.87,2.57-.62.49-1.14.98-1.56,1.45-.42.47-.74.9-.99,1.27-.24.37-.42.66-.52.87-.05.1-.09.18-.13.23-.03.05-.04.08-.05.08s.01-.03.04-.08c.03-.06.07-.14.12-.24.1-.21.27-.51.5-.89.24-.37.56-.81.97-1.29.42-.47.93-.97,1.55-1.47,1.24-.99,2.9-1.94,4.89-2.61,1.98-.69,4.26-1.1,6.65-1.41,2.39-.3,4.68-.55,6.75-.79,2.08-.22,3.94-.51,5.53-.48,1.59.02,2.85.4,3.64.81.4.2.68.4.86.54.18.14.27.23.27.23Z"/>
      <path class="cls-5" d="M39.54,25.6s.02-.04.06-.13c.04-.08.1-.2.19-.35.17-.3.43-.74.81-1.23.38-.5.9-1.06,1.59-1.55.35-.24.73-.48,1.15-.67.42-.19.88-.36,1.35-.49l-.04.08c-.13-.35-.18-.75-.15-1.15.03-.29.09-.56.18-.82.1-.26.21-.51.35-.74.28-.46.64-.84,1.02-1.15.79-.6,1.64-.89,2.35-1.08.72-.18,1.31-.25,1.72-.31.2-.02.36-.04.47-.05.11,0,.16-.01.17,0s-.06.01-.16.03c-.12.02-.27.04-.47.07-.41.07-.99.15-1.7.34-.7.19-1.54.49-2.3,1.08-.37.3-.72.68-.99,1.12-.14.22-.25.46-.34.72-.09.25-.15.52-.17.8-.03.38.02.77.14,1.1l.02.06-.06.02c-.47.13-.92.29-1.34.48-.42.19-.79.42-1.14.65-.68.48-1.2,1.03-1.58,1.52-.39.49-.65.91-.83,1.21-.08.14-.15.25-.2.34-.05.08-.07.12-.08.12Z"/>
      <path class="cls-5" d="M49.38,20.05s-.28.04-.72.1c-.44.06-1.05.16-1.71.32-.66.17-1.24.36-1.66.52-.42.16-.67.27-.68.25,0,0,.06-.04.17-.1.11-.06.28-.14.48-.23.41-.18,1-.39,1.66-.56.67-.17,1.28-.25,1.73-.29.22-.02.41-.03.53-.03.13,0,.2,0,.2.01Z"/>
      <path class="cls-5" d="M39.11,35.23s.04-.32.08-.83c.04-.51.05-1.23-.06-2.01-.11-.78-.32-1.47-.51-1.95-.18-.48-.33-.77-.31-.78,0,0,.05.06.12.19.07.13.17.32.27.56.21.48.43,1.17.54,1.96.11.79.09,1.52.03,2.04-.03.26-.07.47-.1.61-.03.14-.05.22-.06.22Z"/>
      <path class="cls-5" d="M61.03,15.94s-.06,0-.16,0c-.11,0-.27-.02-.48-.02-.21,0-.47-.01-.77,0-.3.01-.66.05-1.04.15-.38.1-.79.26-1.22.48-.21.11-.43.23-.66.37-.11.07-.23.13-.34.21-.11.08-.23.15-.33.25-.42.37-.75.89-.94,1.49-.19.6-.28,1.28-.24,1.98v.03s-.03.01-.03.01c-.64.25-1.26.67-1.73,1.27-.47.6-.81,1.36-.91,2.17v.02s-.02.01-.02.01c-.75.6-1.68.96-2.58,1.42-.45.23-.89.49-1.29.83-.4.33-.76.73-1.07,1.16-.62.87-1.07,1.9-1.4,2.98-.34,1.08-.55,2.21-.8,3.36-.19.9-.41,1.79-.7,2.64-.3.85-.68,1.66-1.19,2.38-.51.7-1.2,1.31-2.02,1.54-.82.24-1.67.16-2.45.07-.79-.09-1.57-.19-2.31-.1-.37.05-.72.16-1.06.3-.34.13-.7.27-1.07.23-.18-.02-.36-.09-.51-.2-.15-.11-.26-.25-.34-.41-.17-.31-.22-.66-.23-.99,0-.17,0-.33.03-.49.03-.16.06-.32.1-.47.03-.16.09-.3.13-.45.04-.15.1-.29.15-.43.21-.57.48-1.08.75-1.56.26-.48.53-.92.77-1.33.48-.83.86-1.56,1.09-2.2.05-.16.11-.31.15-.45.04-.14.07-.28.1-.41.05-.25.07-.47.1-.65,0-.17,0-.31.01-.4,0-.09,0-.14,0-.14,0,0,0,.05,0,.14,0,.1,0,.23,0,.41-.02.18-.04.4-.08.65-.03.13-.06.26-.1.41-.04.15-.09.3-.14.46-.22.64-.59,1.38-1.07,2.21-.24.42-.5.86-.76,1.33-.26.48-.52.99-.73,1.55-.05.14-.11.28-.15.43-.04.15-.1.29-.12.45-.03.15-.06.31-.09.47-.02.16-.03.32-.03.48,0,.32.07.66.22.95.15.29.44.52.78.56.34.04.69-.09,1.02-.22.34-.14.7-.26,1.08-.31.76-.1,1.55,0,2.34.09.79.09,1.62.16,2.41-.07.8-.22,1.46-.81,1.96-1.5.5-.7.88-1.51,1.17-2.35.29-.84.5-1.73.7-2.63.25-1.15.46-2.29.8-3.37.34-1.08.78-2.12,1.42-3.01.32-.44.68-.84,1.09-1.18.41-.34.86-.61,1.31-.84.91-.46,1.83-.82,2.56-1.4l-.02.04c.05-.42.17-.82.33-1.2.16-.37.36-.72.61-1.02.49-.61,1.13-1.04,1.78-1.29l-.03.04c-.03-.72.06-1.4.26-2.01.2-.61.54-1.14.97-1.52.11-.1.23-.17.34-.25.12-.07.23-.14.34-.21.23-.13.45-.25.66-.36.43-.22.85-.38,1.24-.48.39-.1.74-.13,1.05-.14.31-.01.57,0,.78.01.42.02.64.05.64.05Z"/>
      <path class="cls-5" d="M28.87,39.28s.3-.36.64-1.03c.34-.66.68-1.67.65-2.81-.03-1.14-.41-2.13-.79-2.78-.38-.65-.71-.98-.69-1,0,0,.09.07.23.23.14.16.33.4.53.72.4.64.8,1.65.83,2.82.03,1.17-.33,2.19-.69,2.85-.18.33-.36.58-.49.75-.13.16-.22.25-.22.24Z"/>
      <path class="cls-5" d="M33.85,40.89s-.04.05-.12.14c-.04.05-.09.1-.15.16-.07.06-.14.13-.22.2-.34.29-.88.69-1.63,1.01-.74.33-1.69.58-2.77.63-1.07.05-2.26-.13-3.43-.55-1.17-.42-2.19-1.03-3.06-1.66-.86-.63-1.6-1.3-1.96-2.04-.37-.74-.3-1.46-.12-1.88.09-.21.19-.36.27-.45.04-.05.07-.08.1-.1.02-.02.03-.03.04-.03.02.01-.2.17-.36.59-.16.41-.22,1.11.15,1.83.36.72,1.1,1.37,1.95,1.99.86.63,1.88,1.22,3.03,1.64,1.15.42,2.32.6,3.38.56,1.06-.04,2-.28,2.74-.6.74-.31,1.28-.69,1.63-.97.09-.07.16-.13.23-.19.06-.06.11-.11.16-.15.09-.08.13-.12.14-.12Z"/>
      <path class="cls-5" d="M32.32,14.53s.08-.02.23-.04c.17-.02.38-.05.63-.08.53-.06,1.26-.16,2.06-.3.8-.14,1.52-.28,2.04-.39.24-.05.45-.1.62-.13.15-.03.23-.04.23-.04,0,0-.08.04-.22.08-.14.04-.35.1-.61.17-.52.13-1.24.29-2.04.43-.8.14-1.54.22-2.07.26-.27.02-.48.04-.63.04-.15,0-.23,0-.23,0Z"/>
      <path class="cls-5" d="M50.64,14.94s-.1,0-.28-.04c-.2-.04-.45-.08-.75-.14-.64-.12-1.52-.27-2.5-.39-.98-.13-1.87-.21-2.52-.26-.3-.02-.56-.04-.76-.06-.18-.01-.28-.03-.28-.03,0,0,.1-.01.28-.01.18,0,.44,0,.77.02.65.03,1.54.1,2.53.22.98.13,1.86.29,2.5.43.32.07.57.13.75.18.18.05.27.08.27.08Z"/>
      <path class="cls-5" d="M64.08,29.53s-.01.04-.05.11c-.04.07-.08.18-.15.31-.13.27-.33.67-.58,1.18-.51,1.02-1.23,2.51-2.16,4.33-.24.45-.51.92-.86,1.36-.35.44-.79.84-1.34,1.12-1.09.54-2.52.57-3.74-.06-1.22-.64-2.14-1.9-2.44-3.36-.3-1.46.05-3.07.89-4.39.6-.94,1.39-1.7,2.21-2.36.82-.66,1.66-1.26,2.5-1.81.84-.55,1.68-1.04,2.5-1.49.82-.44,1.69-.8,2.57-.79l-.05.05c-.04-.8.03-1.6.35-2.27.15-.34.38-.63.65-.86.27-.23.58-.39.89-.49.63-.21,1.25-.22,1.81-.18.56.05,1.07.17,1.52.27.91.22,1.62.35,2.12.37.25.01.44,0,.57,0,.13,0,.19-.01.19-.01,0,0-.26.06-.76.04-.5,0-1.23-.14-2.13-.34-.45-.1-.96-.21-1.52-.26-.55-.04-1.17-.02-1.78.18-.3.1-.6.26-.86.48-.26.22-.47.51-.62.83-.3.66-.37,1.44-.33,2.23v.05s-.05,0-.05,0c-.85,0-1.7.34-2.52.78-.82.44-1.66.94-2.49,1.49-.83.55-1.67,1.15-2.49,1.81-.81.66-1.6,1.42-2.18,2.34-.83,1.3-1.17,2.88-.88,4.31.29,1.42,1.19,2.66,2.37,3.28,1.19.62,2.59.6,3.65.07.53-.27.97-.66,1.31-1.09.35-.43.62-.89.86-1.34.92-1.82,1.67-3.29,2.19-4.31.26-.5.46-.9.6-1.17.07-.13.12-.23.16-.3.04-.07.06-.1.06-.1Z"/>
      <path class="cls-5" d="M70.59,34.22s-.02.03-.06.09c-.04.06-.11.15-.18.27-.08.11-.18.27-.28.44-.05.09-.11.19-.17.29-.06.11-.12.22-.18.34-.53.94-1.14,2.39-1.93,4.17-.2.44-.41.91-.67,1.37-.26.46-.53.95-.94,1.37-.11.09-.22.19-.34.28-.12.08-.24.16-.37.24-.25.16-.51.31-.78.45-.54.29-1.1.56-1.7.81-1.19.5-2.47.91-3.8,1.33-1.33.41-2.73.79-4.17,1.14-2.88.69-5.67,1.15-8.23,1.43-1.28.15-2.49.23-3.63.3-1.14.07-2.2.08-3.17.11-.97.03-1.84.16-2.54.48-.7.32-1.19.79-1.47,1.25-.14.23-.23.45-.28.66-.05.2-.06.38-.08.52-.02.14-.04.25-.07.32-.03.07-.05.1-.05.1,0,0,.01-.03.04-.1.02-.07.05-.18.06-.32.01-.14.02-.32.07-.53.05-.21.13-.44.27-.67.27-.47.78-.96,1.48-1.29.71-.33,1.6-.47,2.57-.5.97-.03,2.03-.05,3.17-.12,1.14-.07,2.35-.16,3.63-.31,2.55-.28,5.33-.75,8.21-1.43,1.44-.34,2.83-.72,4.17-1.13,1.33-.41,2.61-.83,3.79-1.32.59-.25,1.16-.51,1.69-.8.27-.14.53-.29.77-.45.13-.08.25-.16.37-.24.12-.08.22-.18.33-.27.4-.4.67-.88.93-1.34.26-.46.47-.92.67-1.36.79-1.77,1.42-3.21,1.97-4.15.53-.95.93-1.41.93-1.41Z"/>
      <path class="cls-5" d="M27.97,49.44s-.02-.06-.05-.19c-.02-.12-.06-.3-.08-.53-.05-.45-.1-1.1-.02-1.85h0c.02-.39.11-.83.3-1.25.45-.99,1.22-1.64,1.81-2.02.29-.19.55-.31.73-.39.18-.07.28-.11.28-.1.01.02-.4.17-.97.57-.56.38-1.31,1.04-1.74,1.99-.18.4-.27.82-.29,1.21h0s0,0,0,0c-.09.73-.06,1.38-.02,1.83.04.45.08.72.06.72Z"/>
      <path class="cls-5" d="M55.32,38.08s-.05.02-.15.04c-.11.02-.25.05-.43.09-.37.09-.9.2-1.54.42-.64.21-1.39.52-2.2.89-.81.37-1.71.81-2.72,1.07-.5.13-1.01.2-1.5.24-.49.04-.96.06-1.41.07-.9.02-1.71,0-2.38-.04-.68-.03-1.22-.07-1.6-.1-.18-.02-.32-.03-.43-.04-.1-.01-.15-.02-.15-.02s.05,0,.15,0c.11,0,.26.01.44.02.38.02.93.05,1.6.07.68.02,1.48.04,2.38.02.45-.01.92-.03,1.4-.08.48-.04.98-.11,1.48-.24,1-.26,1.88-.69,2.7-1.05.82-.37,1.57-.67,2.22-.88.65-.21,1.19-.31,1.56-.39.18-.03.32-.05.43-.06.1-.01.15-.02.15-.01Z"/>
      <path class="cls-5" d="M87.46,39.25s0-.02-.02-.06c-.01-.05-.03-.1-.05-.18-.05-.16-.11-.39-.19-.68-.18-.59-.43-1.44-.86-2.45-.44-1-1.05-2.19-2.11-3.18-.53-.49-1.15-.95-1.9-1.19-.37-.12-.77-.19-1.17-.15-.4.03-.78.19-1.1.45-.21.17-.38.38-.5.61-.11.23-.17.49-.15.73h-.11c-.06-.34-.21-.68-.42-.97-.21-.29-.47-.53-.74-.73-.56-.4-1.21-.61-1.83-.69-.62-.09-1.22-.08-1.78-.06-.56.03-1.08.06-1.55.09-.95.05-1.72-.02-2.23-.15-.51-.12-.77-.26-.77-.26,0,0,.02,0,.05.01.04.01.09.03.15.05.13.04.32.11.58.16.51.11,1.27.17,2.21.11.47-.03.99-.07,1.55-.11.56-.03,1.17-.04,1.8.04.63.09,1.3.3,1.88.7.29.2.56.45.77.75.22.3.37.65.44,1.03h-.11c-.02-.25.04-.53.16-.78.12-.25.31-.47.53-.65.33-.27.75-.44,1.16-.48.42-.04.83.03,1.21.15.77.25,1.4.73,1.93,1.22,1.07,1.01,1.69,2.22,2.11,3.23.42,1.02.66,1.88.83,2.47.08.3.14.53.17.69.02.07.03.13.04.18,0,.04.01.06.01.06Z"/>
      <path class="cls-5" d="M82.44,33.76s.03,0,.09.02c.06.02.14.04.25.08.21.09.52.24.86.52.68.54,1.44,1.66,1.71,3.21.14.77.16,1.63.16,2.55,0,.92-.03,1.9.1,2.92.12,1.02.36,2.07.61,3.17.24,1.09.49,2.24.53,3.43,0,.3.01.6,0,.89-.01.29-.04.59-.11.88-.06.29-.16.57-.31.82-.15.25-.36.47-.61.62-.5.31-1.09.36-1.63.29-.55-.06-1.05-.27-1.51-.5-.46-.24-.89-.5-1.32-.73-.43-.23-.86-.41-1.3-.53-.44-.13-.88-.24-1.25-.47-.38-.22-.64-.59-.75-.97-.12-.38-.13-.76-.1-1.11.03-.35.1-.68.19-.98.19-.6.46-1.07.72-1.42.26-.35.51-.59.68-.74.17-.15.28-.21.28-.21,0,0-.02.02-.07.06-.04.04-.11.09-.2.17-.17.15-.41.39-.66.75-.25.35-.51.82-.69,1.41-.09.29-.15.62-.18.97-.02.35,0,.72.11,1.08.11.37.36.71.72.92.36.22.79.33,1.23.45.44.12.89.31,1.32.54.43.23.86.49,1.32.72.45.23.95.43,1.48.49.52.06,1.09.01,1.56-.28.47-.28.75-.81.87-1.37.06-.28.09-.57.1-.86.02-.29.02-.59,0-.88-.04-1.18-.29-2.32-.53-3.41-.24-1.09-.48-2.15-.6-3.18-.12-1.03-.09-2.01-.09-2.93,0-.91-.02-1.77-.15-2.53-.26-1.54-.99-2.64-1.66-3.19-.67-.56-1.18-.63-1.17-.66Z"/>
      <path class="cls-5" d="M84.59,49.52s-.54-.65-1.45-1.08c-.91-.45-1.76-.43-1.75-.47,0-.01.21-.04.54,0,.33.03.79.14,1.26.36.46.22.83.52,1.07.76.24.24.35.42.34.42Z"/>
      <path class="cls-5" d="M74.55,35.64s-.15.27-.24.81c-.04.27-.05.61.03.99.07.38.24.8.54,1.18.3.38.75.7,1.29.87.54.17,1.18.2,1.78-.02.6-.21,1.12-.68,1.73-1.04.31-.18.65-.32,1.03-.38.37-.05.78.01,1.1.25.32.23.52.57.66.91.14.34.22.7.3,1.04.15.69.28,1.36.39,2,.22,1.28.36,2.44.45,3.42.09.98.13,1.77.15,2.32,0,.27.01.49.01.63,0,.07,0,.12,0,.16,0,.04,0,.06,0,.06,0,0,0-.02,0-.06,0-.04,0-.1-.01-.16,0-.15-.02-.36-.04-.63-.03-.55-.08-1.34-.18-2.32-.1-.98-.25-2.13-.47-3.41-.11-.64-.24-1.31-.4-1.99-.07-.34-.16-.69-.29-1.02-.13-.33-.33-.65-.62-.86-.29-.21-.66-.28-1.01-.23-.35.05-.68.19-.98.36-.6.35-1.12.82-1.75,1.05-.63.23-1.29.2-1.84.01-.56-.18-1.02-.52-1.32-.91-.3-.4-.46-.83-.53-1.22-.07-.39-.05-.73,0-1,.05-.27.13-.47.18-.61.03-.07.06-.11.07-.15.02-.03.03-.05.03-.05Z"/>
      <path class="cls-5" d="M88.89,60.32s-.02.01-.06.02c-.05.02-.1.04-.17.06-.15.06-.38.11-.68.17-.6.1-1.52.11-2.56-.26-.52-.19-1.06-.47-1.56-.89-.5-.41-.95-.96-1.28-1.61-.17-.32-.33-.65-.59-.92-.26-.26-.61-.42-.99-.48-.38-.07-.78-.06-1.18-.04-.4.03-.82.05-1.23.08-.83.05-1.65.06-2.44-.05-.78-.11-1.53-.35-2.15-.74-.63-.38-1.11-.92-1.39-1.5-.29-.59-.39-1.2-.36-1.75.03-.55.19-1.04.39-1.42.2-.39.45-.68.67-.89.22-.21.42-.35.56-.43.07-.04.12-.07.16-.09.04-.02.06-.03.06-.03,0,0-.07.05-.2.14-.13.09-.32.23-.54.45-.21.22-.45.51-.64.89-.19.38-.35.86-.37,1.4-.02.54.08,1.14.36,1.71.28.57.75,1.09,1.36,1.46.61.37,1.34.61,2.11.72.77.11,1.59.09,2.42.04.42-.03.83-.05,1.23-.08.41-.02.81-.03,1.21.04.39.07.78.23,1.05.52.27.28.44.63.6.94.32.64.75,1.18,1.24,1.59.49.41,1.02.69,1.53.88,1.02.38,1.93.37,2.53.29.3-.05.53-.1.68-.15.07-.02.13-.04.18-.05.04-.01.06-.02.06-.01Z"/>
      <path class="cls-5" d="M87.98,57.05s-.12-.26-.33-.67c-.21-.41-.55-.94-1.02-1.47-.47-.52-.96-.92-1.34-1.17-.38-.26-.63-.39-.63-.41,0,0,.07.02.19.07.12.05.28.14.48.26.4.24.91.63,1.39,1.16.47.53.81,1.09,1,1.51.1.21.17.38.21.51.04.12.06.19.05.19Z"/>
      <path class="cls-5" d="M72.27,52.17s-.04-.02-.12-.07c-.09-.06-.2-.13-.34-.22-.07-.05-.16-.1-.24-.16-.09-.06-.19-.11-.3-.17-.22-.12-.46-.27-.74-.4-.14-.07-.29-.14-.44-.22-.15-.07-.32-.14-.49-.21-.33-.15-.71-.27-1.09-.41-.79-.25-1.67-.47-2.61-.6-.94-.12-1.85-.14-2.68-.11-.41.03-.8.05-1.16.11-.18.03-.36.04-.53.08-.17.03-.33.06-.48.09-.31.05-.58.14-.82.19-.12.03-.23.06-.33.09-.1.03-.19.06-.28.09-.16.05-.28.09-.38.12-.09.03-.14.04-.14.03s.04-.02.13-.06c.1-.04.22-.08.38-.14.08-.03.18-.06.27-.1.1-.03.21-.06.33-.1.24-.07.51-.16.82-.21.15-.03.31-.07.48-.1.17-.03.35-.05.53-.08.36-.06.76-.09,1.17-.12.83-.04,1.75-.02,2.7.1.95.13,1.84.35,2.63.61.39.14.76.27,1.1.43.17.08.33.14.49.22.15.08.3.15.44.23.28.14.52.29.73.42.11.07.21.12.3.18.09.06.17.12.24.17.13.1.24.17.33.24.07.05.11.09.11.09Z"/>
      <path class="cls-5" d="M65.13,49.55s-.48-.36-.88-.97c-.4-.61-.57-1.19-.54-1.2.03-.01.24.54.64,1.14.39.6.81,1.01.79,1.04Z"/>
      <path class="cls-5" d="M35.76,58.81s.03-.03.08-.07c.06-.05.14-.11.25-.2.22-.17.55-.43.96-.75.42-.32.93-.72,1.53-1.18.3-.23.62-.48.95-.74.34-.26.73-.49,1.17-.69.87-.4,1.89-.65,3-.76,1.11-.12,2.31-.1,3.56-.09.63,0,1.27,0,1.92-.04.65-.04,1.31-.12,1.99-.23,1.34-.2,2.73-.49,4.19-.52,1.45-.03,2.86.17,4.21.36,1.35.19,2.65.39,3.87.67,1.22.29,2.37.65,3.36,1.17.12.07.25.13.37.2.12.07.23.14.35.22.22.15.44.31.64.47.42.3.82.6,1.2.87.38.28.74.55,1.08.81.34.26.65.52.93.77.55.52.99.99,1.44,1.28.43.3.81.47,1.07.58.13.05.23.09.3.11.07.03.1.04.1.04,0,0-.04,0-.1-.03-.07-.02-.17-.05-.3-.1-.26-.1-.64-.26-1.08-.56-.45-.29-.91-.76-1.45-1.27-.27-.26-.59-.51-.93-.76-.34-.26-.7-.53-1.09-.8-.38-.28-.79-.57-1.21-.87-.21-.16-.42-.31-.64-.46-.11-.07-.23-.14-.34-.21-.12-.07-.24-.13-.36-.19-.98-.51-2.12-.87-3.34-1.15-1.22-.28-2.52-.47-3.87-.66-1.35-.19-2.75-.39-4.19-.36-1.44.03-2.83.31-4.17.52-.67.1-1.34.19-2,.22-.66.04-1.3.04-1.93.04-1.25,0-2.44-.04-3.55.08-1.1.11-2.12.35-2.98.74-.43.19-.82.42-1.16.68-.33.26-.66.5-.96.73-.6.45-1.12.84-1.54,1.16-.42.31-.75.56-.98.73-.11.08-.19.14-.26.19-.06.04-.09.06-.09.06Z"/>
      <path class="cls-3" d="M17.01,44.82c-7-2.07-7.23-4.2-7.25-5.22-1.19,3.41.72,6.86,5.25,9.95,4.55,3.11,12.94,4.42,12.94,4.42,0,0,0,.03.03.09,0-1.09,0-3.4.08-3.62.1-.3-2.37-3.06-11.04-5.62Z"/>
      <path class="cls-5" d="M37.73,54.22s0,.04-.02.11c-.02.07-.06.17-.13.3-.14.25-.42.56-.85.83-.21.14-.46.26-.73.38-.13.07-.28.12-.43.17-.15.05-.3.11-.46.15-.64.18-1.38.27-2.15.24-.77-.03-1.5-.18-2.13-.39-.63-.22-1.16-.5-1.59-.77-.42-.28-.73-.54-.93-.74-.09-.09-.16-.17-.23-.23-.05-.05-.08-.08-.07-.09,0,0,.03.02.09.07.06.06.14.13.24.22.21.18.53.44.94.7.43.26.95.53,1.58.74.62.2,1.34.35,2.1.38.76.03,1.48-.06,2.12-.23.16-.03.31-.09.46-.14.15-.05.29-.1.42-.16.27-.11.52-.22.73-.36.43-.25.71-.55.86-.78.15-.23.18-.39.19-.38Z"/>
      <g class="cls-3">
        <path d="M39.23,16.69c-2.28,1.25-3.25,3.06-3.33,3.71-.08.7.39,1.35.91,1.84.52.48,1.12.91,1.45,1.54.45.88.24,1.95-.03,2.9-.28.99-.65,2.02-1.47,2.64-.91.7-2.14.72-3.29.76-2.92.09-6,.48-8.32,2.25-.96.73-1.75,1.67-2.77,2.32-2.22,1.41-6.18-.99-6.65-.43,0,0,3.21,2.81,6.29,1.77,2.91-.98,3.71-4.08,8.33-4.84,4.36-.72,6.63-.2,7.9-1.82,1.28-1.61,1.68-3.92.91-5.15-.76-1.23-2.41-1.58-2.24-3.18.35-3.29,2.3-4.3,2.3-4.3Z"/>
      </g>
      <g class="cls-3">
        <path d="M20.86,39.08c1.97,2.65,5.35,4.18,8.63,3.91.89-.07,1.8-.28,2.53-.79.74-.51,1.28-1.36,1.23-2.26-1.52,1.83-4.09,2.6-6.72,2.02-1.54-.34-3.58-1.4-5.68-2.89"/>
      </g>
      <g class="cls-3">
        <path d="M38.32,29.66c.76,1.48,1.37,4.1.7,5.46l.24.06c.72-1.27.81-4.24-.94-5.52Z"/>
      </g>
      <g class="cls-3">
        <path d="M61,33.92c-.42.97-.8,1.99-1.54,2.71-.82.8-2.01,1.13-3.11.95-1.11-.18-2.12-.85-2.81-1.76-.48-.41-.71-1.16-.82-2.06.02,1.46.75,2.87,1.89,3.72,1.13.85,2.5.94,3.86.59.77-.2,1.36-.6,1.8-1.28.37-.58.78-1.12,1.06-1.75.27-.59.55-1.26.88-1.89.73-1.4,1.44-2.76,2.07-4.2-1.08,1.58-2.51,3.19-3.27,4.96Z"/>
      </g>
      <g class="cls-3">
        <path d="M83.09,52.37c-.96-.45-1.83-1.09-2.83-1.43-.46-.15-.95-.25-1.33-.54-.51-.38-.74-1.05-.74-1.69,0-.64.19-1.26.38-1.87l-.05.02c-.47.69-.59,1.43-.63,2.26-.02.44.03.91.28,1.28.46.68,1.39.8,2.17,1.06.67.22,1.27.59,1.89.92.62.33,1.27.64,1.97.72.7.09,1.46-.08,1.95-.58-.92.52-2.09.29-3.05-.16Z"/>
      </g>
      <g class="cls-3">
        <path d="M72.75,50.85c-.74,1.04-.55,2.92.28,3.89.83.97,2.12,1.53,3.39,1.66,1.27.13,2.8.03,4.07-.08.43-.04.98.13,1.34.38.41.28.79.87,1,1.32.59,1.26,1.67,2.02,3.39,2.5-1.15-.52-2.67-2.56-3.24-3.69-.19-.38-.36-.79-.69-1.06-.35-.27-.81-.33-1.26-.35-1.23-.04-2.47.18-3.7.16-1.24-.02-2.54-.32-3.4-1.21-.84-.88-1.31-1.74-1.12-3.25"/>
      </g>
      <g class="cls-3">
        <path d="M58,21.99c-.09-.06-.21-.06-.31-.08-.64-.07-1.26-.37-1.72-.83-.46-.46-.75-1.08-.82-1.72-.01-.1-.05-.23-.15-.22-.07,0-.12.09-.13.17-.1.66-.09.88-.03,1.53h-.06c.64,1.02,1.87,1.64,3.07,1.54.1,0,.21-.03.25-.11.05-.09,0-.22-.1-.28Z"/>
      </g>
      <path class="cls-3" d="M40.61,39.99c2.46-.83,3.02-2.54,3.43-5.17.41-2.63,3.07-7.05,2.95-6.86-.12.19-1.05,1.52-2.7,8.63-.49,2.1-1.75,4.14-4.08,4.15-2.34,0-3.24-.2-3.24-.2l3.64-.55Z"/>
      <path class="cls-5" d="M25.6,28.7s-.14-.15-.28-.45c-.14-.3-.28-.74-.31-1.25-.02-.51.07-.96.19-1.27.11-.31.23-.48.24-.47.02,0-.07.19-.16.5-.09.31-.17.75-.15,1.24.02.49.15.92.27,1.22.12.3.23.47.21.48Z"/>
      <path class="cls-5" d="M29.35,23.63s-.21-.02-.54-.04c-.33-.02-.79,0-1.27.14-.48.13-.89.34-1.16.52-.28.18-.43.32-.44.3,0,0,.13-.17.4-.37.27-.2.68-.43,1.18-.57.5-.13.97-.15,1.31-.11.34.04.53.11.53.12Z"/>
      <g class="cls-6">
        <path class="cls-4" d="M21.29,26.15c.11-.28-.13-.59-.43-.55-1.99.26-3.81,1.22-5.1,2.78-.53.63-.97,1.4-1.05,2.2-.03.31.29.52.57.4,1.88-.8,3.47-2.21,5-3.58.4-.36.82-.77,1.01-1.25Z"/>
      </g>
      <g class="cls-6">
        <path class="cls-4" d="M28.29,24.02c-1.29.15-2.42,1.22-2.64,2.5-.04.2-.05.42.04.61.09.19.3.32.5.26.26-.08.32-.4.37-.67.16-.71.64-1.35,1.28-1.7.2-.11.43-.2.56-.38.14-.18.12-.5-.09-.58"/>
      </g>
      <g class="cls-6">
        <path class="cls-4" d="M27.97,20.42c-.04-.24-.28-.4-.52-.43-.17-.03-.35,0-.52.05h0c-.37.04-.68.36-.85.68-.18.32-.24.7-.26,1.06-.01.19-.02.38.05.56.07.18.22.33.41.34.17,0,.32-.1.43-.23.1-.13.16-.29.24-.45.13-.27.31-.52.53-.74.12-.12.26-.23.36-.36.1-.14.17-.31.14-.48Z"/>
      </g>
      <g class="cls-6">
        <path class="cls-4" d="M22.29,37.56c2.01.55,4.31-.15,5.67-1.72.23-.26.44-.64.26-.94-.17-.29-.6-.3-.92-.18-.71.27-1.2.94-1.9,1.25-.97.43-2.24.11-3.04.8-.1.09-.19.19-.21.32-.02.13.07.28.2.29"/>
      </g>
      <g class="cls-6">
        <path class="cls-4" d="M36.1,37.11c-.04-.25-.12-.53-.34-.66-.18-.11-.43-.08-.61.02-.19.11-.33.28-.44.46-.46.71-.61,1.61-.42,2.44l.05.15c.55.28,1.27-.06,1.58-.59s.3-1.21.19-1.82Z"/>
      </g>
      <g class="cls-6">
        <path class="cls-4" d="M47.84,21.99c-.61-.25-1.56-.07-1.71-.04h0c-2.5.53-4.6,2.62-5.15,5.12-.05.22-.08.47.06.65.18.24.58.19.8,0,.23-.19.34-.49.46-.76.84-1.91,2.63-3.37,4.67-3.81.31-.07.65-.12.88-.34.23-.22.28-.69,0-.81Z"/>
      </g>
      <g class="cls-6">
        <path class="cls-4" d="M49.04,17.31c-.1-.17-.36-.25-.51-.12v-.11c-.84.1-1.64.53-2.18,1.17-.12.14-.23.29-.26.47-.04.18.01.38.16.48.17.12.39.07.59.01.64-.19,1.25-.5,1.79-.91.16-.12.32-.25.41-.43.1-.17.12-.4.02-.57Z"/>
      </g>
      <g class="cls-6">
        <path class="cls-4" d="M61.97,17.37c-.03-.17-.06-.39-.25-.44-.57-.16-1.18-.26-2.17.01h.01c-.98.18-1.91.66-2.61,1.36-.32.32-.62.77-.47,1.2.11.34.47.54.82.57.35.03.7-.08,1.03-.21,1.16-.45,2.22-1.13,3.25-1.83.23-.16.44-.39.39-.67Z"/>
      </g>
      <g class="cls-6">
        <path class="cls-4" d="M50.68,27.15c-.01-.11-.13-.19-.23-.19h0s0,0,0,0c-.02,0-.04,0-.06.01-1.4.33-2.61,1.51-2.8,2.93-.01.11-.02.23.05.3.07.08.2.08.3.04.1-.04.17-.12.24-.2.76-.83,1.52-1.65,2.28-2.48.11-.12.23-.26.21-.42Z"/>
      </g>
      <g class="cls-6">
        <path class="cls-4" d="M56.88,30.19c-.13-.52-.69-.98-1.2-.79-.73.4-1.12,1.24-1.58,1.93-.46.69-.69,1.56-.52,2.37.17.81.78,1.54,1.59,1.75.44.11.98.04,1.22-.34.33-.51-.05-1.17-.11-1.78-.05-.54.17-1.06.36-1.56.19-.5.37-1.05.24-1.58Z"/>
      </g>
      <g class="cls-6">
        <path class="cls-4" d="M69.79,21.65c-1.1-.37-2.29-.45-3.43-.22-.48.1-.98.26-1.31.62,0,0,0,0,0,0-.42.47-.1,1.23.53,1.28,1.3.1,2.61.08,3.9-.09.33-.04.67-.1.93-.33.11-.1.19-.23.21-.38.07-.47-.41-.75-.83-.89Z"/>
      </g>
      <g class="cls-6">
        <path class="cls-4" d="M34.13,44.26c-.13-.15-.34-.19-.54-.2-.58-.04-1.17.02-1.73.18-.93.18-1.64.94-1.96,1.73-.32.78-.35,1.65-.38,2.49,0,.29-.02.59.09.86.1.27.35.5.64.5.3,0,.54-.25.65-.53.11-.28.12-.58.16-.88.18-1.3,1.06-2.48,2.25-3.02.25-.11.52-.21.72-.4s.28-.53.11-.74Z"/>
      </g>
      <g>
        <g class="cls-3">
          <path d="M44.22,14.6c-1.11-.14-2.24-.03-3.35.08-2.63.27-5.26.53-7.89.8-2.51.26-5.11.54-7.31,1.77,4.05-.94,7.98-1.44,11.92-1.79,1.62-.15,3.24-.43,4.86-.42,1.63.01,3.28.26,4.76.94-.77-.82-1.88-1.24-2.99-1.39Z"/>
        </g>
        <g class="cls-3">
          <path d="M25.59,17.3s.05-.03.08-.04c-.03,0-.05,0-.08.01v.03Z"/>
        </g>
      </g>
      <g class="cls-3">
        <path d="M26.06,24.39c-3.31-1.09-7.18-.32-9.69,2.09l-.52.72s2.65-2.6,6.67-2.36c0,0,1.92.08,2.82.58l.72-1.03Z"/>
      </g>
      <g class="cls-3">
        <path d="M27.69,23.64c1.08-.17,2.58-.09,3.71.13.23.04.46.09.69.07.23-.03.46-.15.56-.35-1.57-.66-3.43-.6-4.96.16Z"/>
      </g>
      <g class="cls-3">
        <path d="M44.45,21.19c1.78-1.23,4.03-1.76,6.16-1.45.12.02.28.07.28.2,0,.14-.19.19-.34.19-2.13-.03-4.26.35-6.24,1.12"/>
      </g>
      <g>
        <g class="cls-3">
          <path d="M53.95,38.31c-1.2.47-2.52.55-3.79.79.12-.42.08-.89.04-1.33-.05-.53-.11-1.06-.16-1.58-.03-.31-.1-.68-.39-.79-.26-.1-.57.08-.69.33-.12.25-.1.55-.05.83.1.63.31,1.24.3,1.87,0,.34-.1.7-.27.99-.16.05-.32.11-.48.18-.74.32-1.41.79-2.17,1.04-.85.28-1.76.27-2.66.22h2.84c2.68-.29,5.09-1.33,7.5-2.54Z"/>
        </g>
        <g class="cls-3">
          <path d="M43.62,40.85l-.52-.04c.17.01.35.03.52.04Z"/>
        </g>
      </g>
      <g class="cls-3">
        <path d="M73.9,42.58c-.06-.26-.33-.42-.6-.44s-.52.06-.78.11c-.76.15-1.6.06-2.24-.39-.4-.27-.83-.99-1.06-1.67.16-1.05.08-2.21,0-3.69,0,0-2.05,4.93-3.13,6.05-1.48,1.52-7.81,3.32-7.81,3.32-2.29,1.02-7.85,1.75-10.37,2.17-2.5.41-5.74.28-8.97.64s-3.51,2.98-3.51,2.98c.94-.93,2.22-1.45,3.52-1.69,1.3-.24,2.63-.24,3.95-.27,5.96-.13,11.92-.99,17.65-2.65,2.48-.72,5-1.63,6.82-3.46.06-.06.12-.12.18-.18.61-.27,1.3-.39,1.97-.4,1.08-.01,2.14.21,3.21.3.27.02.56.03.8-.08.25-.11.45-.38.39-.65Z"/>
      </g>
      <g class="cls-3">
        <path d="M83.39,39.97c-.16-.54-.32-1.1-.63-1.57s-.78-.88-1.34-.95c-.39-.05-.82.09-1.09.36-.72.41-1.45.81-2.24,1.03-.93.26-2,.23-2.8-.31-.8-.54-1.19-1.97-.73-2.82l-.31.6c-.21.83.24,2.07.84,2.68.6.61,1.82.83,2.65.65.83-.19.95-.67,1.71-1.08.38-.2.77-.35,1.19-.46.49-.04,1.03.1,1.38.48.49.52.6,1.01.72,1.72.42,2.63.84,5.7,1.01,8.36,1.06-2.79.49-5.82-.34-8.68Z"/>
      </g>
      <g class="cls-3">
        <path d="M45.26,54.14c-1.61-.09-3.29-.27-4.76.38-1.17.52-2.05,1.52-3.01,2.37-.96.86-2.14,1.63-3.42,1.53-.26-.02-.61,0-.66.24-.04.23.24.38.47.42.65.11,1.41,0,1.95-.36,1.44-1.07,4.14-3.1,4.88-3.5,2.99-1.62,7.92-.07,11.84-1.44-2.41.37-4.86.49-7.29.35Z"/>
      </g>
      <g class="cls-3">
        <path d="M37.7,53.65c-.45.64-.93,1.31-1.62,1.7-.98.55-2.19.43-3.32.29-.96-.12-1.94-.24-2.83-.62-.89-.38-1.53-.63-1.96-.95l.02.11c1.09,1.03,2.27,1.79,3.75,2.03,1.48.24,2.98.18,4.33-.46.43-.2.84-.45,1.16-.8.31-.35.51-.83.46-1.3Z"/>
      </g>
      <g class="cls-3">
        <path d="M81.77,30.87c-.86-.11-1.76.14-2.43.69-.7-.95-1.96-1.32-3.14-1.34s-2.35.22-3.53.2c-1.18-.02-2.45-.37-3.16-1.31-.17-.23-.47-.52-.69-.34-.17.14-.08.41.04.6.4.59,1.02,1.02,1.71,1.19,1.71.65,3.95-.12,5.35.11,1.4.23,2.78,1.02,3.35,2.32.14-.91,1.11-1.5,2.03-1.54.92-.04,1.8.35,2.64.72-.51-.7-1.31-1.19-2.17-1.3Z"/>
      </g>
      <g class="cls-3">
        <path d="M68.04,24.47c.46.51,1.26.45,1.94.38,3.01-.3,6.09.07,8.94,1.08l.05-.06c-3.51-1.17-7.24-1.65-10.93-1.4Z"/>
      </g>
      <g class="cls-6">
        <path class="cls-4" d="M42.33,42.76c-.21,0-.46,0-.59.17s.03.46.42.46c1.41.03,2.82-.02,4.22-.14.58-.05,1.16-.12,1.69-.34.38-.15.73-.4.98-.71.12-.15-.02-.36-.2-.31-2.12.6-4.33.89-6.53.87Z"/>
      </g>
      <g class="cls-6">
        <path class="cls-4" d="M77.74,32.31c-.22-.48-.73-.75-1.24-.9-.46-.14-.88-.16-1.44-.09-.03,0-.06,0-.09.01-.02,0-.04,0-.06,0h.02c-.36.06-.7.22-.97.46-.07.06-.14.15-.13.24.02.16.23.18.39.18.73-.02,1.47.21,2.07.63.21.14.4.31.64.41.23.1.53.11.72-.06.25-.21.23-.6.1-.89Z"/>
      </g>
      <g class="cls-6">
        <path class="cls-4" d="M73.76,44.9c-.47-.42-1.13-.52-1.76-.55-.98-.05-1.98.01-2.9.34-.92.33-1.64.57-1.64,1.58-.01.46.48.79.94.8.46.01.89-.19,1.32-.33.75-.24,1.56-.28,2.33-.12.63.13,1.37.36,1.85-.06.47-.41.32-1.24-.15-1.66Z"/>
      </g>
      <g class="cls-6">
        <path class="cls-4" d="M48.18,56.73c-.06-.31-.35-.41-.62-.48-1.1-.29-2.25-.39-3.38-.31-.89.06-1.75.34-2.52.78-1.98,1.13-3.97,2.27-5.95,3.4-.48.28-1.03.65-.97,1.24.02.23.14.43.31.59.35.32.82.39,1.27.39,1.2-.01,2.35-.55,3.36-1.2s1.93-1.45,2.96-2.07c1.33-.81,2.84-1.32,4.39-1.5.35-.04.73-.07,1-.33.13-.13.21-.31.18-.49Z"/>
      </g>
      <g class="cls-6">
        <path class="cls-4" d="M53.28,55.49c-.3-.18-.67-.2-1.03-.21-.46-.03-.83.33-.83.33-.12.09-.24.2-.27.35-.06.3.24.54.53.66.36.14.76.2,1.15.18.32-.02.68-.13.82-.42.15-.32-.06-.71-.37-.89Z"/>
      </g>
      <g class="cls-3">
        <path d="M67.97,56.56c1.57.79,3.03,1.64,4.44,2.7.89.67,1.74,1.46,2.81,1.78.6.18,1.24.19,1.86.28.62.09,1.26.27,1.71.71.2.2.36.47.34.75-.03.28-.31.55-.58.47-.33-.09-.4-.5-.56-.8-.18-.34-.53-.56-.9-.68-.37-.12-.76-.16-1.14-.22-.98-.15-1.93-.47-2.79-.96-1.19-.68-1.55-1.26-2.57-2.12,0,0-1.14-.9-1.53-1.08-.39-.18-1.09-.84-1.09-.84Z"/>
      </g>
      <path class="cls-5" d="M78.75,63.27s-.05.02-.14.02c-.05,0-.1,0-.17-.02-.07-.02-.14-.07-.19-.14-.1-.14-.16-.33-.25-.52-.08-.2-.2-.37-.4-.51-.39-.27-.83-.38-1.14-.45-.31-.07-.51-.09-.51-.1,0-.01.2-.02.52.02.32.05.77.14,1.2.43.21.14.36.37.43.56.09.2.14.39.22.51.08.13.21.15.3.16.09.01.14.01.14.02Z"/>
      <path class="cls-5" d="M27.52,49.55s-.05-.04-.15-.12c-.1-.08-.23-.21-.42-.35-.37-.3-.94-.71-1.68-1.14-.74-.43-1.67-.86-2.73-1.26-1.06-.4-2.26-.77-3.51-1.14-1.26-.38-2.46-.74-3.53-1.13-1.07-.39-2.01-.8-2.77-1.22-.76-.41-1.34-.81-1.71-1.1-.19-.14-.33-.27-.43-.35-.1-.08-.15-.13-.14-.13,0,0,.06.04.16.11.1.07.24.2.44.33.39.29.97.67,1.73,1.07.76.4,1.7.81,2.77,1.19,1.07.38,2.27.74,3.52,1.12,1.26.38,2.45.75,3.52,1.15,1.06.41,2,.85,2.74,1.29.74.44,1.3.86,1.67,1.17.19.15.32.29.41.37.09.09.14.13.14.14Z"/>
      <g>
        <path class="cls-5" d="M71.9,77.53s-.06,0-.16-.02c-.1-.02-.26-.03-.46-.08-.4-.07-.96-.22-1.64-.48-.68-.25-1.45-.63-2.26-1.14-.81-.51-1.64-1.15-2.45-1.9-1.61-1.51-2.8-3.12-3.65-4.28-.42-.58-.76-1.06-.98-1.39-.11-.16-.19-.29-.26-.38-.06-.09-.09-.14-.08-.14,0,0,.04.04.1.12.07.09.16.22.28.37.25.33.59.8,1.01,1.37.86,1.15,2.07,2.74,3.66,4.24.8.75,1.63,1.39,2.43,1.9.8.51,1.57.89,2.23,1.15.67.26,1.23.42,1.62.51.19.05.35.07.45.1.1.02.16.04.16.04Z"/>
        <path class="cls-5" d="M76.53,75.87s-.06,0-.17-.03c-.12-.03-.28-.07-.48-.12-.21-.05-.46-.12-.75-.21-.29-.09-.63-.18-.99-.32-.36-.13-.76-.27-1.18-.44-.42-.16-.86-.36-1.33-.57-.92-.43-1.91-.95-2.91-1.57-1-.62-1.9-1.28-2.7-1.91-.39-.32-.77-.63-1.1-.93-.34-.3-.64-.59-.92-.86-.28-.26-.51-.52-.72-.74-.21-.22-.39-.42-.53-.58-.13-.16-.24-.28-.32-.38-.07-.09-.11-.13-.11-.14,0,0,.05.04.12.12.08.09.2.21.34.36.14.16.32.35.54.57.22.22.45.47.73.73.28.26.58.55.92.85.33.3.71.6,1.1.92.8.62,1.7,1.27,2.7,1.89,1,.61,1.98,1.13,2.9,1.57.46.21.9.41,1.32.58.41.18.81.32,1.17.45.36.14.69.24.98.33.29.1.54.17.75.23.2.06.35.11.47.14.11.03.16.05.16.06Z"/>
        <path class="cls-5" d="M76.86,71.93s-.04,0-.12-.03c-.09-.03-.2-.07-.34-.11-.29-.1-.71-.26-1.23-.45-1.04-.39-2.46-.97-4-1.67-1.54-.7-2.92-1.38-3.9-1.89-.49-.26-.89-.47-1.16-.62-.13-.07-.23-.13-.31-.18-.07-.04-.11-.07-.1-.07,0,0,.04.01.12.05.08.04.19.09.32.16.29.15.69.35,1.17.59.99.5,2.37,1.17,3.91,1.86,1.54.69,2.95,1.28,3.98,1.69.5.2.92.37,1.22.49.13.05.24.1.33.14.08.03.11.05.11.05Z"/>
        <path class="cls-5" d="M78.11,69.17s-2.28-1.04-5.06-2.39c-2.78-1.35-5.02-2.47-5.01-2.5s2.28,1.04,5.06,2.39c2.78,1.35,5.02,2.47,5.01,2.5Z"/>
        <path class="cls-5" d="M66.53,78.51s-.09,0-.24,0c-.15,0-.37-.04-.64-.08-.54-.09-1.28-.28-2.05-.61-.77-.33-1.42-.73-1.85-1.06-.22-.16-.39-.3-.5-.41-.11-.1-.17-.16-.17-.17.01-.02.27.2.72.51.45.31,1.09.7,1.85,1.02.76.32,1.49.52,2.02.63.53.11.87.15.86.17Z"/>
      </g>
      <g class="cls-3">
        <path d="M59.43,64.57c-.59.63-.95,1.47-1,2.33.06,0,.11,0,.17,0l.18-.26c.59-1.34,1.64-2.48,2.92-3.19-.86.09-1.68.5-2.27,1.12Z"/>
      </g>
      <g class="cls-3">
        <path d="M60.49,72.87c.99,3.01,4.79,5.14,7.92,5.64-2.9-1.48-5.58-3.38-7.92-5.64Z"/>
      </g>
    </g>
    <g class="cls-6">
      <path class="cls-4" d="M68.19,51.63c-.14-.11-.32-.16-.49-.2-1.72-.43-3.45-.85-5.22-.89-.32,0-.65,0-.95.11-.3.1-.58.32-.7.62.08.05.16.11.25.16l.06-.02c2.16.31,4.31.61,6.47.92.29.04.66.03.76-.24.06-.17-.03-.36-.17-.47Z"/>
    </g>
    <path class="cls-4" d="M29.2,47.6s0-.21.07-.53c.08-.32.24-.76.52-1.19.28-.43.6-.76.87-.97.26-.21.45-.3.45-.29.03.03-.69.47-1.22,1.32-.55.84-.65,1.68-.69,1.66Z"/>
    <path class="cls-4" d="M45.77,41.77s-.76.06-1.69.06-1.69-.03-1.69-.06.76-.06,1.69-.06,1.69.03,1.69.06Z"/>
    <path class="cls-4" d="M52.91,39.8s-.6.22-1.35.43c-.75.21-1.37.35-1.38.32,0-.03.59-.22,1.35-.43.75-.21,1.37-.35,1.38-.32Z"/>
    <path class="cls-4" d="M53.38,34.25s-.01-.08-.02-.22c0-.14,0-.35.03-.6.05-.5.21-1.19.53-1.9.33-.7.75-1.27,1.1-1.64.17-.18.32-.32.43-.41.11-.09.17-.14.18-.13.01.02-.22.22-.55.6-.33.38-.73.94-1.05,1.63-.32.69-.48,1.37-.56,1.86-.07.49-.08.81-.1.8Z"/>
    <path class="cls-4" d="M57.71,27.57s-.22.2-.53.38c-.31.18-.58.31-.59.28-.02-.03.22-.2.53-.38.31-.18.58-.31.59-.28Z"/>
    <path class="cls-4" d="M67.02,20.84s-.19,0-.47.06c-.14.03-.3.09-.47.17-.17.09-.34.21-.5.36-.16.16-.28.33-.37.49-.09.17-.15.33-.18.47-.07.28-.05.47-.07.47,0,0-.02-.04-.03-.13,0-.04,0-.09,0-.15,0-.06,0-.13.02-.2.02-.15.08-.32.17-.51.09-.18.22-.36.39-.53.17-.16.35-.29.53-.38.18-.08.36-.14.51-.16.07-.02.14-.01.2-.02.06,0,.11,0,.15,0,.08.01.13.02.13.03Z"/>
    <path class="cls-4" d="M71.25,25.39s-.5.12-1.12.2c-.62.08-1.13.12-1.14.09,0-.03.5-.12,1.12-.2.62-.08,1.13-.12,1.14-.09Z"/>
    <path class="cls-4" d="M72.57,31.8s-.39,0-.86-.08-.84-.17-.84-.2c0-.03.39,0,.86.08.47.08.84.17.84.2Z"/>
    <path class="cls-4" d="M71.16,43.57s-.28.03-.73.09c-.45.06-1.07.19-1.71.43-.65.25-1.19.57-1.57.82-.37.26-.59.44-.6.43,0,0,.04-.06.14-.15.09-.09.23-.21.42-.35.37-.28.91-.61,1.57-.86.66-.25,1.29-.37,1.75-.41.23-.02.42-.03.54-.02.13,0,.2,0,.2.02Z"/>
    <path class="cls-4" d="M73.69,52.02s-.03-.52.28-1.07c.31-.55.76-.83.77-.8.02.03-.38.33-.67.86-.3.52-.34,1.02-.38,1.02Z"/>
    <path class="cls-4" d="M61.76,50.07s-.09.04-.25.09c-.16.05-.4.12-.69.21-.59.17-1.41.37-2.32.56-.91.19-1.74.33-2.35.41-.3.04-.55.07-.72.09-.17.02-.26.02-.27.01,0,0,.09-.03.26-.06.19-.03.43-.08.71-.12.6-.1,1.43-.25,2.34-.44.91-.19,1.73-.38,2.32-.53.28-.07.51-.12.7-.17.17-.04.26-.06.26-.05Z"/>
    <path class="cls-4" d="M44.64,55.3s-.33-.02-.87-.01c-.53,0-1.27.08-2.05.31-.78.23-1.44.57-1.89.86-.45.29-.71.5-.72.48,0,0,.05-.06.17-.16.11-.1.28-.24.51-.39.44-.31,1.11-.66,1.9-.9.79-.23,1.55-.3,2.09-.28.27,0,.49.03.64.05.15.02.23.04.23.05Z"/>
    <path class="cls-4" d="M52.44,54.75s-.4.08-.89.11c-.49.03-.89.02-.9-.01,0-.03.4-.08.89-.11.49-.03.89-.02.9.01Z"/>
    <path class="cls-4" d="M12.29,40.55s-.04-.05-.1-.15c-.06-.1-.13-.25-.2-.44-.15-.38-.3-.93-.33-1.55-.03-.62.06-1.19.18-1.58.06-.2.11-.35.16-.45.05-.1.07-.16.08-.16.02,0-.07.24-.16.63-.09.39-.17.94-.14,1.55.03.61.16,1.15.29,1.53.13.38.24.6.22.61Z"/>
    <path class="cls-4" d="M23.01,38.85s-.13-.03-.32-.15c-.18-.12-.41-.32-.59-.6-.18-.28-.28-.57-.32-.78-.04-.21-.03-.35-.01-.35.04,0,.07.53.43,1.07.35.54.83.78.81.81Z"/>
    <path class="cls-4" d="M17.47,27.31s-.29.16-.72.48c-.21.15-.45.36-.7.61-.24.25-.49.54-.72.88-.22.34-.4.68-.54,1-.13.32-.23.62-.29.88-.13.51-.15.85-.17.84,0,0,0-.08,0-.23,0-.08,0-.17.03-.27.02-.11.03-.23.06-.36.05-.26.15-.57.28-.9.14-.33.32-.68.54-1.02.23-.34.49-.64.74-.89.26-.25.51-.45.73-.6.11-.08.22-.14.31-.19.09-.06.17-.1.24-.13.14-.06.21-.1.22-.09Z"/>
    <path class="cls-4" d="M27.26,24.35s-.25.06-.56.31c-.31.24-.63.71-.75,1.3-.11.59-.04,1.15,0,1.54.05.4.09.64.07.64-.01,0-.08-.24-.16-.63-.07-.39-.16-.96-.04-1.57.12-.62.48-1.1.81-1.34.17-.12.32-.19.43-.21.11-.03.17-.03.17-.03Z"/>
    <path class="cls-4" d="M26.4,22.39s-.13-.04-.27-.2c-.14-.16-.27-.43-.29-.76-.02-.32.09-.61.22-.78.12-.17.24-.23.25-.23.01.02-.08.1-.18.27-.1.17-.18.43-.17.73.02.3.12.55.24.71.11.16.22.23.2.25Z"/>
    <path class="cls-4" d="M42.83,23.5s-.22.2-.52.55c-.15.17-.32.4-.48.66-.16.26-.31.56-.44.89-.12.33-.21.66-.26.96-.05.3-.07.58-.07.81,0,.47.05.75.03.76,0,0-.03-.07-.05-.2-.03-.13-.05-.32-.06-.56-.01-.24,0-.52.05-.83.05-.31.13-.65.26-.99.13-.34.29-.65.46-.91.17-.26.35-.48.51-.66.16-.17.31-.3.41-.38.1-.08.16-.12.17-.12Z"/>
    <path class="cls-4" d="M47.46,17.81s-.16.07-.4.2c-.24.13-.56.34-.84.64-.28.3-.48.63-.59.88-.11.25-.16.41-.18.41-.01,0,0-.18.1-.44.1-.26.28-.61.58-.93.3-.31.63-.53.89-.64.26-.11.43-.14.43-.13Z"/>
    <path class="cls-4" d="M58.94,17.36s-.22.04-.55.18c-.16.06-.35.16-.54.3-.19.14-.38.31-.55.51-.17.21-.3.43-.4.64-.09.21-.16.41-.19.59-.07.35-.05.57-.07.57,0,0-.02-.05-.03-.16,0-.05-.01-.11,0-.18,0-.07,0-.16.02-.24.02-.18.08-.39.17-.62.1-.22.23-.45.41-.67.18-.21.38-.39.58-.53.2-.13.4-.23.57-.28.08-.03.17-.05.24-.07.07-.02.13-.03.18-.03.1,0,.16-.01.16,0Z"/>
    <path class="cls-4" d="M53.68,23.07s-.33.26-.55.71c-.22.45-.19.87-.22.87-.01,0-.04-.1-.04-.27,0-.17.04-.41.16-.65.12-.24.28-.42.41-.53.13-.11.23-.15.24-.14Z"/>
    <path class="cls-4" d="M48.59,27.29s-.13.21-.34.54c-.21.33-.5.79-.77,1.32-.27.53-.48,1.03-.62,1.4-.14.37-.22.6-.24.59-.01,0,.04-.24.16-.62.12-.38.32-.89.6-1.42.28-.54.57-1,.81-1.32.23-.32.4-.5.41-.49Z"/>
    <path class="cls-4" d="M34.82,38.78s-.13-.14-.22-.44c-.09-.29-.12-.74.06-1.19.18-.45.52-.75.78-.9.27-.15.46-.18.47-.17,0,.02-.18.07-.42.24-.24.16-.55.46-.72.87-.17.42-.15.84-.09,1.13.06.29.16.45.14.46Z"/>
    <path class="cls-4" d="M43.89,16.37s-.2,0-.53,0c-.32-.01-.77-.03-1.26-.01-.49.02-.94.05-1.26.09-.32.03-.52.06-.52.04,0-.01.19-.07.51-.12.32-.06.77-.11,1.27-.12.5-.01.95.01,1.27.05.32.04.52.08.52.09Z"/>
  </g>
</svg>