<?xml version="1.0" encoding="UTF-8"?>
<svg id="Layer_1" data-name="Layer 1" xmlns="http://www.w3.org/2000/svg" viewBox="0 0 100 100">
  <defs>
    <style>
      .cls-1 {
        fill: #e4d6d6;
      }

      .cls-1, .cls-2, .cls-3, .cls-4, .cls-5, .cls-6, .cls-7, .cls-8, .cls-9, .cls-10, .cls-11 {
        fill-rule: evenodd;
      }

      .cls-2 {
        fill: #efb699;
      }

      .cls-12, .cls-4 {
        fill: #fff;
      }

      .cls-3 {
        fill: #f3c4ac;
      }

      .cls-5 {
        fill: #95bcd2;
      }

      .cls-6 {
        fill: #d0eeff;
      }

      .cls-7 {
        fill: #da9d80;
      }

      .cls-8 {
        fill: #471d0f;
      }

      .cls-9 {
        fill: #e1e8ec;
      }

      .cls-10 {
        fill: #e8c1c6;
      }

      .cls-11 {
        fill: #b7c6cf;
      }
    </style>
  </defs>
  <circle class="cls-12" cx="50" cy="50" r="50"/>
  <g>
    <path class="cls-10" d="M21.66,53.39c.89.37,1.81.46,2.73.4-.25-.38-.51-.78-.77-1.19-.62-.9-1.04-1.96-1.67-2.85-.02,0-.04,0-.06,0-1.51-.14-3.03-.49-4.46-1.04.39,2.16,2.18,3.97,4.23,4.69h0ZM72.66,69c-.47.19-.94.36-1.41.54-1.02.37-2.04.76-3.07,1.1,1.54-.4,3.05-.95,4.48-1.64h0ZM90.41,41.25c.89.46.63,2.79.51,3.59-.15,1.05-.51,2.06-.94,3.02-.88,1.87-2.09,3.59-3.44,5.15-.28.23-.65.72-1.05,1.15.23,2.28-.07,4.62-.74,6.79-1.25,3.63-3.75,6.77-6.61,9.28-3.94,3.25-9.07,4.88-14.15,4.72-4.07-.18-8.26-.86-12-2.54-.02.06-.04.12-.05.18-1.81,6.72,5.54,7.77,9.09,11.67,1.03,1.01,1.79,2.28,2.17,3.67.34.97-1.2,1.5-1.52.51-1.57-5.63-9.2-6.14-11.21-11.45-.56-1.66-.56-3.62.08-5.3-.55-.3-1.08-.62-1.6-.97-.87-.45-1.72-.94-2.56-1.48-2.46-1.36-4.71-3.09-7.27-4.27-6.49-2.39-10.08-4.74-13.7-9.72-.62.11-1.24.16-1.87.14-2.95-.18-5.88-1.95-7.09-4.69-.43-.86-.73-1.82-.71-2.79-2.61-1.39-4.77-3.52-5.81-6.38-.35-1.19-.68-2.49-.46-3.73.46-1.07,1.85-.44,1.52.64.04,3.35,2.27,6.23,5.11,7.86.21-.4.53-.68,1.03-.54.68.28.58.74.42,1.24.1.04.2.08.31.12,1.08.4,2.21.71,3.35.89.13-.21.36-.36.62-.39-.02-.05-.04-.1-.06-.16-.11-.92,1.31-1.2,1.55-.32.14.37.31.7.5,1.03.03,0,.06,0,.09,0,.74.09,1.99-.41,2.54.03.53.43.23,1.36-.45,1.4-.4.06-.8.1-1.21.13.88,1.18,1.95,2.22,3.07,3.16.4-.15.79-.31,1.17-.47.61-.36,1.4.26,1.16.94-.18.46-.85.71-1.49.92-.13.34-.49.56-1,.4,1.86,2.68,4.8,4.49,7.78,5.74,2.69,1.08,5.14,2.63,7.46,4.34.24-.2.6-.26,1.03,0,.59.25,1.2.47,1.81.69.25.01.51.11.73.27.03.01.07.03.1.04.6-.46,2.45.89,3.2,1.1,1.74.78,3.29,1.44,5.05,2.03.84.28,1.7.54,2.58.7.85.17,2.28-.22,2.76.67,2.74.05,5.47-.45,8.05-1.36,2.55-.88,5.06-1.87,7.48-3.06.72-.26,1.6-1.02,2.34-.44.03.04.06.07.08.11.38-.59.71-1.21,1.01-1.84.12-.24.34-.4.59-.44-.29-.6.58-1.29,1.06-1.74.49-.4.9-1.1,1.59-1.09.62-1.84.99-3.77,1.06-5.72-.01,0-.03,0-.04,0-.74-.14-.85-1.16-.2-1.51.08-.06.16-.12.24-.19,0-.12-.02-.24-.03-.36-.42.43-1.33.3-1.39-.49-.31-3.43-.5-7.19-2.64-10.04-.23-.28-.46-.56-.74-.8-.26-.06-.49-.26-.58-.52-.29-1.11,1.11-1.36,1.72-.61,1.49,1.4,2.38,3.3,2.88,5.26.47,1.74.69,3.53.84,5.33.46-.42,1.35-.11,1.43.74.01.05.03.1.04.14.47-.46.9-.94,1.3-1.47,2.13-2.79,4.05-7.09,1.68-10.28-1.67-2.29-4.86-2.26-7.36-1.67-.55.17-1.09.36-1.61.62-.5.48-1.4.01-1.32-.66.18-.95,1.44-1.05,2.19-1.4,2.09-.6,4.39-.71,6.47,0,2.31.96,3.57,2.58,4.05,4.45Z"/>
    <g>
      <path class="cls-2" d="M81.11,40.93c.32.87.15,1.78-.54,2.42-1.23,1.01-3.74.25-5.13-.18-.61-.21-1.21-.46-1.8-.72-1.03-.44-1.95-1.08-2.99-1.49-.25-.09-.49-.19-.75-.26-.04.1-.08.19-.1.29-.2,1.3-.57,2.62-1.58,3.53-.22.2-.45.41-.7.6.11,0,.22.02.34.02,2.38.03,4.84.44,6.89,1.73,1.49.87,2.91,2.01,3.59,3.64.74,1.91.83,4.15,0,6.04-1.61,3.34-4.96,5.5-8.68,5.41-3.13-.2-6.05-1.62-8.57-3.43-.08.98-.27,1.96-.71,2.84-.85,1.88-2.44,3.25-4.1,4.4-1.7,1.18-3.72,2.7-5.85,2.82-.48-.01-.91-.24-1.35-.43-.57-.26-1.14-.52-1.71-.78-2.98-1.37-5.6-3.42-8.51-4.92-1.93-.99-3.92-1.87-5.76-3.01-.05-.01-.1-.03-.15-.06-1.42-.93-2.81-1.98-4.02-3.18,0,0,0,0,0,0,0,0,0,0,0,0-.06-.02-.13-.07-.18-.13-.06-.07-.11-.15-.17-.22-.67-.68-1.29-1.41-1.79-2.22-.17-.28-.38-.54-.52-.84,0-.01,0-.03-.01-.04-.02-.04-.05-.08-.07-.13-.02-.06-.02-.13-.01-.19,0,0-.01-.02-.02-.03-.52-.9-.81-1.91-1.2-2.87-.04,0-.07,0-.11,0-1.18-.03-2.38-.21-3.4-.84-.03-.02-.06-.05-.09-.08-.1.04-.22.06-.34.04-1.4-.28-2.66-.9-3.98-1.42-1.92-.78-3.72-2.04-4.92-3.74-.06-.01-.11-.04-.16-.08-.88-1.03-1.33-2.35-1.61-3.66-.17-.79-.38-1.57-.41-2.38-.09-2.27.39-4.63,1.55-6.61-.24-.5.69-1.47.93-1.86,1.15-1.61,2.67-2.93,4.41-3.87,1.37-.75,2.83-1.47,4.39-1.64.09-.03.19-.06.29-.09.51-.26,1.52-.22,1.9-.29,3.77-.24,7.69.75,10.71,3.08.85.67,1.72,1.34,2.45,2.13.15.01.3.03.44.04,1.78.18,2.71,1.97,4.07,2.92.49.36,1.01.69,1.58.93.99.33,1.98.64,2.97.99.07.03.13.06.18.1,0,0,0,0,0,0,.88.24,1.73.61,2.58.95.25-.04.48.1.69.23.2.14.43.24.62.39,0-.73.05-1.46.26-2.16.23-.9.87-1.58,1.35-2.35.15-.36.53-.68.9-.38.26.25.16.7.23,1.02.4-.77,1.34-1.26,2.17-.86.33.17.56.48.72.81.14-.17.31-.34.49-.46.03-.05.06-.1.11-.14.13-.1.26-.2.4-.27-.86-.66.08-1.33.77-1.55-.35-.09-.52-.55-.26-.82.31-.27.73-.36,1.12-.44-.24-.26-.11-.71.19-.87.83-.44,2.23-.14,3.16-.05,1.41.06,2.81.25,4.16.66,1.09.35,4.06,1.24,4.7,2.07.02.05.04.09.04.14.19.11.37.23.55.35.16.11.31.24.45.37.42.16.75.92.95,1.24.04.07.06.14.06.2.79.34,2.48,1.66,2.66,2.26,1.07.59,2.02,1.35,2.9,2.2.49.47.93.99,1.33,1.54.09.03.17.09.23.17.33.46.66.91.94,1.4.13.29.46.62.34.93.21.38.38.77.52,1.17Z"/>
      <path class="cls-7" d="M55.22,31.25c.11.26-.11.47-.34.47-.11,0-.22-.05-.29-.18-.14-.78-.58-1.03-.69-1.28h0c-.14-.1-.2-.25-.18-.39.04,0,.08.01.13.01h.04s.09,0,.14,0c0,0,0,0,0,0,0,0,0,0,0,0h0s0,0,0,0h0s0,0,0,0h0s0,0,0,0h0s0,0,0,0h0s0,0,0,0h0s0,0,0,0h0s0,0,0,0h0s0,0,0,0h0s0,0,0,0h0s0,0,0,0h0s0,0,0,0h0s0,0,0,0h0s0,0,0,0h0s0,0,0,0h0s0,0,0,0h0s0,0,0,0h0s0,0,0,0h0s0,0,0,0h0s0,0,0,0h0s0,0,0,0h0s0,0,0,0h0s0,0,0,0h0s0,0,0,0h0s0,0,0,0h0s0,0,0,0h0s0,0,0,0h0s0,0,0,0h0s0,0,0,0h0s0,0,0,0h0s0,0,0,0h0s0,0,0,0h0s0,0,0,0h0s0,0,0,0h0s0,0,0,0h0s0,0,0,0c.02,0,.05,0,.07,0h0s0,0,0,0h0s0,0,0,0h0s0,0,0,0h0s0,0,0,0h0s0,0,0,0h0s0,0,0,0h0s0,0,0,0h0s0,0,0,0h0s0,0,0,0h0s0,0,0,0h0s0,0,0,0h0s0,0,0,0h0s0,0,0,0h0s0,0,0,0h0s0,0,0,0h0s0,0,0,0h0s0,0,0,0h0s0,0,0,0h0s0,0,0,0h0s0,0,0,0h0s0,0,0,0h0s0,0,0,0h0s0,0,0,0h0s0,0,0,0h0s0,0,0,0h0s0,0,0,0h0s0,0,0,0c0,0,.01,0,.02,0h0s0,0,0,0h0s0,0,0,0h0s0,0,0,0h0s0,0,0,0h0s0,0,0,0h0s0,0,0,0h0s0,0,0,0h0s0,0,0,0h0s0,0,0,0h0s0,0,0,0h0s0,0,0,0h0s0,0,0,0h0s0,0,0,0h0s0,0,0,0h0s0,0,0,0h0s0,0,0,0h0s0,0,0,0h0s0,0,0,0h0s0,0,0,0h0s0,0,0,0h0s0,0,0,0h0s0,0,0,0h0s0,0,0,0h0s0,0,0,0h0s0,0,0,0h0s0,0,0,0h0s0,0,0,0h0s0,0,0,0h0s0,0,0,0h0s0,0,0,0h0s0,0,0,0h0s0,0,0,0h0s0,0,0,0h0s0,0,0,0h0s0,0,0,0h0s0,0,0,0h0s0,0,0,0h0s0,0,0,0h0s0,0,0,0h0s0,0,0,0h0s0,0,0,0h0s0,0,0,0h0s0,0,0,0h0s0,0,0,0h0s0,0,0,0h0s0,0,0,0h0s0,0,0,0h0s0,0,0,0h0s0,0,0,0h0s0,0,0,0h0s0,0,0,0h0s0,0,0,0h0s0,0,0,0h0s0,0,0,0h0s0,0,0,0h0s0,0,0,0h0s0,0,0,0h0s0,0,0,0h0s0,0,0,0h0s0,0,0,0h0s0,0,0,0h0s0,0,0,0h0s0,0,0,0h0s0,0,0,0h0s0,0,0,0h0s0,0,0,0h0s0,0,0,0h0s0,0,0,0h0s0,0,0,0h0s0,0,0,0h0s0,0,0,0h0s0,0,0,0h0s0,0,0,0h0s0,0,0,0h0s0,0,0,0h0s0,0,0,0h0s0,0,0,0h0s0,0,0,0h0s0,0,0,0h0s0,0,0,0h0s0,0,0,0h0s0,0,0,0h0s0,0,0,0h0s0,0,0,0h0s0,0,0,0h0s0,0,0,0c.04,0,.07,0,.11.01,0,0,0,0,0,0,0,0,0,0,0,0,0,0,0,0,0,0,0,0,0,0,0,.01.36.28.65,1.01.71,1.32h0ZM45.67,56.98c-1.28.14-2.62.03-3.82-.17-2.7-.45-5.5-1.3-7.63-3.11-.87-.82-1.7-1.87-1.9-3.08-.07-1.22.94-2.14,2.1-2.28.88-.17,1.86-.12,2.74.12.06,0,.12-.01.17-.06.1.03.2.05.3.08,0,.06.04.12.12.14.12.04.24.07.36.12,1.69.56,3.38,1.58,4.26,3.19.04.1.08.19.12.29.06.09.19.1.27.04.09-.09.08-.2.05-.31.01-.05,0-.1-.02-.15,0-.02-.02-.03-.04-.04-.03-.06-.06-.11-.08-.17l-.03-.05s0,0,0,0c.14-.04.16-.19.16-.32.11-.08.14-.22.21-.34.1-.04.15-.15.17-.26.46-.08.69-.67.99-1.01.1-.11.23-.28.3-.44.58-.24.25-.88-.23-.63-.12.01-.24.02-.36.01-.19,0-.39-.03-.58-.06-1.3-.28-1.62-1.48-.44-2.73.67-.64,1.49-1.11,2.21-1.7.67-.53,1.32-1.11,2.1-1.48.57-.24,1.17-.44,1.78-.55.3-.06.84.01.82-.44,0-.07-.03-.13-.07-.18.13-.04.22-.13.24-.31,0-.03,0-.06-.01-.09.01-.05.01-.1,0-.15.5-.33-.02-.78-.45-.85,0,0,0,0,0,0,.45.04.99.08,1.14-.4,0-.04,0-.07.01-.11.04.01.07.02.11.02.23,0,.43-.28.5-.51-.02-.04-.03-.09-.03-.14,0-.09,0-.18-.01-.26-.01-.2-.03-.4-.05-.59-.02-.16-.04-.32-.08-.48-.06-.25-.15-.49-.24-.73,0,0,0,0,0,0-.11-.29-.24-.57-.38-.85s-.28-.56-.37-.86c-.04-.13-.07-.25-.09-.38-.72-.05.16,2.08.33,2.44-.06.03-.11.08-.14.13-.07-.11-.14-.2-.23-.29-1.53-1.17-3.51-1.46-5.25-2.21-1.27-.57-2.43-1.44-3.3-2.53-.25-.34-.44-.72-.55-1.13-.05-.15,0-.32-.11-.44-.1-.14-.3-.15-.44-.07-.02-.03-.04-.05-.06-.08.1-.61-3.21-3.24-3.18-1.82.11.32.43.54.61.83.24.29.37.68.6.98-.03-.02-.05-.03-.08-.03-.05-.2-.39-.18-.39.06,0,.39-.22.75-.53.97-.02.01-.04.03-.05.04h0c-.07,0-.15.02-.19.1-.05.14.01.26.11.37.1.23.4.49.56.63.54.42,1.2.54,1.83.74.61.29.86,1.05.77,1.69-.06.19-.09.36-.02.48-.07.17-.14.33-.25.48-.06.01-.11.05-.14.11-.05.2-.05.42-.1.63-.2.02-.18.31-.23.47-.55,1.7-2.08,2.93-3.65,3.67-.21.09-.41.17-.62.25-.23.05-.46.1-.69.14-.32.05-.67.09-1.03.12-.11,0-.19.11-.18.21.02.18.21.19.35.16.03,0,.06,0,.09,0,0,.04,0,.08.04.13-.04.08-.06.18-.12.24-.46.24-1.04.19-1.54.31-.56.04-1.21.27-1.74.02-.04-.02-.07-.05-.09-.09,0-.02.01-.04.01-.06,0-.08-.05-.16-.12-.19,0,0,0-.01-.01-.02-.07-.08-.2-.08-.28,0,0,0,0,.01-.01.02-.01,0-.02,0-.04,0-.05-.03-.1-.04-.15-.03-.57-.07-1.5.16-1.86.19-.36-.09-.75.08-1.11.13-.12-.35-.79.08-1.05.13-.24.1-.49.18-.73.29-2.32-1.03-4.43-2.31-6.07-3.67-6.08-5.16-3.58-13.67,3.78-15.85.09-.04.16-.11.19-.2-.15.02-.3.04-.45.07-.09.02-.18.04-.26.06-.03,0-.07.01-.1.01-.09,0-.18-.03-.26-.09-.64.13-1.27.28-1.89.46-.03.01-.07.01-.1.01-.03,0-.06,0-.09-.01-.51.23-.98.46-1.18.5-3.04,1.23-5.83,3.36-7.26,6.37-.84,1.75-1.41,3.7-1.43,5.65-.03.03-.06.06-.08.1-.14.6.08,1.25.1,1.87.06.63.11,1.26.28,1.87.39,1.22,1.05,2.36,1.78,3.41.59.78,1.33,1.44,2.12,2.02,1.82,1.44,4.11,2.17,6.28,2.94.04.02.09.02.13.02.19,0,.33-.18.33-.36.04-.11,0-.25-.13-.37-.15-.3-.19-.64-.15-.96.08-.06.14-.15.14-.26.06-.14.15-.26.25-.37.6-.5,1.62-.88,2.28-.31-.03.07-.09.14-.16.21-.23.07-.45.17-.65.31-.61.44-.44,1.32.05,1.78.45.38,1.05.59,1.62.66.48.05.9-.22,1.21-.57.31-.3.7-.56.96-.92,0,0,0,0,0,0,.04.08.11.15.2.18.39.27.39.48.31.68-.06.07-.12.15-.16.22-.07.06-.15.11-.23.16-.68.38-1.46.46-2.23.48-.61,0-1.21-.08-1.81-.18-.23-.04-.37.12-.4.29.07.01.13.03.19.04.1.02.21.04.31.06.21.04.43.09.64.14.4.09.8.2,1.2.26.17.02.34.04.51.05.08,0,.16-.02.24-.03-.02.24.11.54.14.75.44,1.7,1.36,3.25,2.43,4.63,1.26,1.48,2.81,2.69,4.34,3.89,2.09,1.56,4.57,2.48,6.87,3.67,1.55.66,2.9,1.66,4.27,2.61.74.42,2.11,1.53,2.93,1.46,1.23.62,2.4,1.49,3.75,1.79.35.05.66-.13.98-.23.57-.2,1.13-.42,1.69-.63,2.12-.74,4.15-1.84,5.68-3.52,1.29-1.53,2.61-3.32,2.53-5.42.02-.27-.04-.53-.17-.76,2.57,1.41,4.84,3.59,7.89,3.78,1.92.12,3.95-.04,5.62-1.1,2.87-1.76,4.88-5.1,4.41-8.53.07-.21-.07-.37-.24-.42-.04-.05-.09-.08-.15-.1-.09-.45-.23-.88-.4-1.31-.16-.37-.91-2.2-1.43-1.62-1.03-1.23-2.3-2.38-3.79-2.99-.45-.22-.93-.38-1.42-.49-.37-.07-1.19-.35-1.14.29.01.04.03.08.05.11.05,0,.11,0,.16,0,.04,0,.07.02.11.02.02,0,.03,0,.05.01,0,0,0,0,.01,0,.02,0,.03,0,.05.01.02,0,.03,0,.05.01,0,0,0,0,0,0,.02,0,.03,0,.05.02.02,0,.03.01.05.02.02,0,.03.01.05.02.02,0,.03.01.05.02.02,0,.03.01.05.02.05.02.1.04.15.06.02,0,.03.01.05.02.03.01.07.03.1.04.03.01.06.02.09.04.08.04.16.07.23.11.32.07.64.17.96.31,0,0,0,0,.01,0,1.42.81,2.79,1.81,3.65,3.23.74,1.16,1.16,2.56.5,3.85-.12.21-.26.41-.41.6t0,0c-.55.48-1.16.88-1.8,1.19-3.49,1.73-7.59.79-10.85-1.01-4.33-2.19-9.84-7.03-6.89-12.3.49-.95,1.09-1.84,1.82-2.61.15-.12.18-.33.07-.48-.01-.02-.03-.03-.04-.05.82-.7,1.56-1.48,2.39-2.16.44-.37.89-.74,1.36-1.09.32-.3.97-.57,1.1-1,0-.03,0-.07,0-.1.03-.02.05-.05.08-.07.1-.04.2-.09.29-.13.07,0,.14-.05.17-.12.03-.07.02-.13,0-.17.62-.53,1.32-.98,2-1.43.04-.02.09-.04.13-.07,0,0,0,0,0,0,.15-.05.27-.14.37-.24.11-.07.19-.17.19-.3.07-.13.09-.28.02-.41-.45-.87-1.72-.96-2.59-1.11-1.9-.11-3.84-.03-5.69-.59-.42-.14-.99-.3-1.24-.69-.01-.05-.02-.1-.02-.15,0,0,0,0,0,.01,0,0,0,0,0,.01,0,0,0-.01,0-.01,0,0,0,0,0,0,.05-.23.42-.21.38-.46-.1-.32-.49-.07-.62.11-.06.06-.09.13-.12.2-.12.03-.21.14-.28.24,0,0-.01.02-.02.03h0c-.1.06-.15.22-.02.34,0,0,.01.01.02.02-.1.04-.17.16-.11.28.1.12.2.23.31.35-.13.16-.52.35-.51.57-.36.06-.32.61.01.77h0c.05.23.29.47.32.71.14.3-.07.8.35.9.39.07.47-.37.38-.85.05.05.09.1.14.15-.04.18.07.43.22.59.02.04.04.07.07.09.08.25.15.52.15.78-.03.16-.13.32,0,.48.1.15.33.2.48.09.05-.05.08-.1.11-.15.01.05.03.09.06.14.58,2.04-.83,4.16-2.15,5.99,0,0,0,0,0,0-.36.44-.7.89-1.03,1.35-1.04,1.39-1.66,2.96-2.14,4.58-1.45,3.59-2.06,8.48-5.81,10.32-.42.19-.84.38-1.28.54h0ZM40.26,31.68s.02-.01.04-.02c.01.03.02.06.04.09-.02-.02-.05-.04-.07-.07h0ZM43.2,42.23c-.34.97-1.36,1.61-2.26,2.18-.09-.1-.23-.15-.38-.07-.42.19-.85.35-1.27.53.02,0,.04,0,.06,0,0,0,0,0,0,0-.02,0-.04,0-.06,0-.02,0-.03.01-.05.02-3.77.98-8.51.2-12.77-1.44.31-.14.63-.26.95-.37.66-.22,1.35-.31,2.04-.37.16-.05.36.07.49-.06.02,0,.04,0,.06-.01.01,0,.02,0,.03,0,.09.11.2.2.3.25.86.29,2.03-.1,2.93-.19.35-.04.75-.13.89-.49.04-.07.06-.17.05-.25.22-.06.47-.19.61-.21.19-.06.39-.13.58-.2.03,0,.06-.01.09-.02,2.41-.53,4.42-2.57,4.72-5.05,0,0,0,0,0,0,.28-.03.53-.29.73-.57.61.33,1.05.82,1.36,1.42-.28.32-.61.76-.67,1.08-.29.42-.47.9-.82,1.27-.11.18-.42.26-.39.5.28.62,1.19-.95,1.32-1.21.21-.4.53-.73.78-1.12.04.12.08.25.12.38.09.25.01.58.2.78.06.03.1.04.14.04.08.74.68,1.97.22,3.19h0ZM43.85,38.88s-.02-.04-.03-.06c.03.01.06.03.08.04-.02,0-.03.01-.05.02h0ZM53.11,52.62c-.05.18-.11.35-.18.53,0,.02-.01.03-.02.05.07-.19.14-.38.2-.57h0ZM57.51,33.66s-.05.05-.07.08c.01-.03.04-.05.06-.07,0,0,.01,0,.02-.01h0ZM38.6,36.66c-.06-.06-.09-.15-.15-.22-.14-.18.12-.42.29-.26.19.02.36.32.21.47-.1.08-.25.11-.35,0h0ZM32.47,38.53c-.02-.2.18-.29.34-.34.33-.12.64-.3.92-.51.79-.55,1.72-1.67,1-2.61-.16-.19.14-.45.3-.25,1.15,1.57-.79,3.28-2.2,3.78-.08.15-.34.1-.36-.07h0ZM32.85,38.56s.01-.06.01-.09c0,.03,0,.06,0,.08,0,0,0,0,0,0h0ZM35.18,29.21c-.04-.19.15-.34.25-.48.17-.16.39-.62.65-.38.17.25-.26.44-.36.65-.11.1-.15.28-.3.35-.1.03-.21-.03-.24-.13h0ZM30.82,35.78c-.25-.11-.05-.39.03-.56.26-.48.51-1.02.93-1.37.27-.14.47.28.16.36-.25.29-.45.61-.63.95-.14.18-.2.71-.5.61h0ZM67.55,32.39c-.06-.22.16-1.02.49-.84.23.17-.07.4-.09.6-.04.12.02.3-.14.35-.1.03-.22-.01-.26-.12h0ZM66.49,34.61s-.07-.06-.11-.1c-.07.09-.15.09-.23.06-.05.07-.14.1-.23.06-.06-.02-.12-.03-.18-.03-.07.1-.25.11-.36.17-.98.62.31,2.22.81,2.81.44.48.94.91,1.52,1.22.06.03.11.06.17.09.36.14.72.26,1.1.35.28.08.57.1.86.1h0c.51-.12.99-.35,1.45-.6.94-.58,1.82-1.27,2.51-2.14.61-.78,1.03-1.64,1.47-2.51.46-.39.61.42.48.74-.43,1.34-1.38,2.45-2.33,3.46-.82.76-1.78,2.32-2.97,2.31-.26-.02-.52-.06-.78-.12.17.19.22.48.13,1-.19,1.19-.92,2.23-1.81,3.02-.32.29-1.11.97-1.54.74-.05-.04-.09-.09-.12-.14,0,0-.02.02-.03.03-.05.05-.1.1-.16.14-.01.01-.03.02-.04.03-.05.04-.1.06-.16.08-.03,0-.05.01-.08.01-.15,0-.3-.12-.33-.27-.02-.09,0-.19.05-.26.03-.04.06-.07.1-.1,0,0,0,0,0,0h0s-.02.02-.03.03c.1-.09.2-.18.3-.28.15-.15.28-.31.42-.48.1-.14.21-.28.3-.43.09-.14.17-.28.25-.42.2-.35.37-.71.52-1.08.09-.23.17-.47.25-.7.04-.13.09-.25.12-.38-1.66-.69-3.02-2.05-3.72-3.72-.04-.11-.12-.31-.18-.54,0-.07-.01-.13-.02-.2,0-.13-.01-.26-.01-.4,0-.14.03-.28.05-.42.03-.13.06-.25.1-.38.02,0,.05-.01.07-.01.13,0,.22.05.28.13h0c0-.1,0-.2.01-.3.08-.46.43-.99.95-.97.03,0,.05.02.07.03.13-.03.27-.03.41-.01-.22-.47.07-1.06.39-1.44.08-.09.15-.22.28-.23.06,0,.11.01.14.04.1-.24.28-.45.5-.29.19.26-.26.32-.2.81,0,.57.27,1.14.61,1.59.15.19.31.38.49.56.08.06.12.16.08.26-.05.1-.17.14-.26.09-.33-.29-.62-.63-.85-1.01-.05.13-.25.22-.49.01h0ZM66.53,33.19c.02.41.14.8.32,1.16-.02,0-.03-.01-.05-.02-.38-.23-.39-.73-.27-1.15h0ZM58.19,27.01c-.11-.05-.19-.11-.23-.17-.07-.08-.12-.18-.11-.29.03-.11.15-.16.26-.13.07.02.11.07.13.13,0,0,.01.01.02.02.03.02.05.05.08.07.03.01.05.03.07.05.07.04.15.08.23.1.24.07.13.45-.11.38-.1-.04-.22-.08-.34-.15h0ZM57.14,28.23s0,0,0-.01c-.31-.1-.62-.26-.5-.49.19-.24.48.1.7.14.16.08.49.05.46.31-.02.1-.12.18-.22.16-.04.05-.09.09-.16.08,0,0,0,0,0,0,0,0,.02,0,.02,0-.14.03-.31-.03-.31-.2h0ZM71.81,32.52c-.16-.15-.53-1.03-.14-1.06.3,0,.21.47.34.66.06.12.19.24.07.38-.07.08-.2.09-.28.02h0ZM70.52,32.96c-.17-.29-1.23-1.8-.65-1.93.3,0,.2.4.33.59.19.45.46.81.69,1.22.07.23-.28.35-.37.13h0ZM69.08,33.99c-.42-.37-.89-1.36-.86-1.93-.14-.19.02-.67.21-.79.14-.11.37,0,.36.18-.08.28-.24.54-.17.85.1.49.36.92.63,1.33.22.12.06.46-.17.36h0ZM64.67,36.68s-.04,0-.05,0c-.01-.02-.03-.04-.04-.06,0-.03-.02-.06-.02-.08-.02-.08-.04-.16-.05-.24h0c.05.13.11.25.17.37h0ZM67.94,39.64c.1.08.21.15.32.22,0,0,0,0-.01,0-.13-.09-.27-.18-.4-.27h0s.06.03.08.04h0ZM79.81,37.96c.08.04.14.14.08.26,0,0,0,0,0,0,0,0,0-.02.01-.02-.27,1.33-2.69,2.99-2.05,4.28.2.21.43.38.69.51.46.28.99.56,1.54.41.19-.07.36.17.22.32-.33.19-.76.12-1.13.14-.57-.06-3.97-.36-3.94-.96.05-.28.37-.41.57-.58.37-.26.74-.54,1.04-.89-.03-.11-.06-.22-.07-.33,0-.11.08-.2.18-.21.17-.01.21.15.23.29.04,0,.07.03.1.05.32-.87,1.04-1.63,1.64-2.33.18-.23.34-.49.46-.75.05-.11.1-.26.25-.27.1.01.16.05.19.09h0ZM65.87,38.47c-.15-.15-.29-.31-.43-.47.15.15.3.29.46.43-.01.01-.03.03-.04.04h0ZM52.19,29.65c.13.15.14.39.12.62h0c.17.41.08,1.31.04,1.59-.09.32-.11,1-.45,1.14h0c-.18.19-.58.15-.6-.19,0-.82.38-1.6.31-2.43.03-.23-.06-.5.09-.69.12-.14.34-.16.48-.04Z"/>
      <path class="cls-3" d="M31.19,26.11c-1.59-.92-3.39-1.59-5.25-1.45-.91.07-1.8.24-2.68.49-.66.21-1.27-.59-.9-1.17.28-.46.89-.45,1.36-.59,1.73-.42,3.58-.49,5.29.02,1.03.34,2.05.76,2.99,1.32.9.52.08,1.91-.81,1.38h0ZM73.6,48.93c-.37-.39-1.3-.57-1.07-1.27.42-.83,1.27,0,1.75.35.6.44-.09,1.36-.68.92h0ZM71.24,47.24c-1.55-.81-3.31-1.08-5.03-.83-.81.29-1.18-.94-.33-1.1,1.46-.21,3.02-.19,4.42.31.55.28,1.49.37,1.76.97.14.47-.4.9-.82.65h0ZM48.76,45.09c-.45-.12-.5-.64-.3-.99.11-.42.4-.91.9-.7.56.25.28.86.1,1.27-.06.32-.41.51-.71.42h0ZM43.64,50.48c.16-1.17,3.18-4.45,4.27-4.85.49-.02.77.64.4.97-.75.67-1.5,1.34-2.17,2.09-.5.6-1.04,1.2-1.37,1.91-.12.65-1.14.55-1.13-.12h0ZM68.24,29.16c-.79-.1-.94-1.11-.09-1.21,1.12.01,1.2,1.42.09,1.21h0ZM65.78,28.36c-1.26-.37-2.54-.77-3.86-.87-.32-.02-.64-.06-.96-.01-.73.11-.89-1.04-.16-1.13,1.28-.1,2.57.16,3.8.48.6.28,2.03.19,1.88,1.13-.08.3-.41.49-.7.4h0ZM40.43,38.65c-.17-.4.23-.68.45-.95.31-.33.91-.08.89.37-.07.56-.96,1.34-1.34.58h0ZM36.97,31.59c-.67-.22-.25-.86-.09-1.3.39-.84,1.56-.26.69,1.04,0-.02.02-.04.03-.05,0,0,0-.02,0-.03-.08.25-.37.41-.63.33h0ZM33.04,37.51c-.4-.56.41-.9.57-1.38.27-1.21,1.28-.92,1.17-.15-.2.62-.93,2.28-1.74,1.53h0ZM38.81,34.36s0-.06,0-.04c-.22-1.15,1.53-1.34,1.59-.18.13,1.03-1.43,1.25-1.58.22Z"/>
      <path class="cls-4" d="M85.66,51.03c.44,1.81.42,3.7.08,5.53-.28,1.19-.72,2.33-1.19,3.45-.72,1.74-1.66,3.4-2.84,4.87-.69.89-1.45,1.72-2.29,2.47-.17.16-.35.32-.52.48-.02.04-.06.07-.09.1-.03.02-.06.04-.09.07-.06.06-.13.12-.19.18-.08.09-.19.17-.3.2-.1.08-.21.16-.31.2-.21.15-.41.29-.62.44-1.92,1.34-4.13,2.27-6.42,2.75-2.34.41-4.68.47-7.04.4-3.59-.13-7.12-.85-10.62-1.59-.08,0-.15-.03-.19-.07-.34-.09-.68-.19-1.02-.3-.46-.2-.97-.33-1.41-.58-.23-.07-.47-.12-.63-.3,0,0,0-.01-.01-.02h0s-.04-.03-.05-.05c-.12-.03-.24-.08-.33-.17-.23-.17-.15-.55.14-.58.52.06,1.02-.12,1.52-.28.38-.14.79-.22,1.14-.42,1.03-.57,2.09-1.09,3.11-1.68.1-.08.24-.13.36-.11.1-.08.2-.16.3-.24.02-.06.05-.11.1-.14.41-.31.81-.63,1.2-.96.28-.25.56-.51.83-.77.32-.38.63-.79.9-1.2.87-1.16,1.35-2.47,1.42-3.91.06-.3-.18-.8.25-.89.11-.01.19.02.25.09.05,0,.1.03.15.06.89.59,1.77,1.2,2.71,1.71,1.06.56,2.16,1.06,3.29,1.48.19.08.43.1.6.23.2.05.4.1.6.13.07,0,.13.03.18.07,1.2.11,2.43.16,3.59-.22.54-.18,1.05-.45,1.53-.75.89-.54,1.75-1.14,2.45-1.92.37-.53.8-1.02,1.14-1.57.37-.58.67-1.19.99-1.8.01-.02.02-.03.04-.04.09-.42.15-.84.23-1.25.15-1.43-.35-2.84-1.03-4.07-.21-.27-.43-.6-.55-.74-.22-.32-.47-.63-.71-.95,0,0,0,0,0,0-.67-.62-1.34-1.26-2.15-1.7-.81-.45-1.69-.73-2.59-.95-.79-.18-1.59-.37-2.41-.4-.22-.01-.44-.03-.66,0-.15.03-.33.03-.44-.09-.08,0-.15,0-.23,0-.06,0-.13,0-.2,0-.02-.08,0-.18.04-.26.06-.09.16-.14.27-.14.33-.29.56-.69.79-1.06.51-.83,1.01-1.69,1.19-2.66.06-.52.53-.48.66-.21.02.01.03.03.05.05.47.54,1.14.77,1.74,1.12.6.31,1.2.65,1.85.85.27.09.55.1.83.1.44.09.86.29,1.29.4,1.09.38,2.28.63,3.43.36.44-.11.95-.29,1.17-.72.34-.42.61.06.82.33.31.38.59.77.88,1.16.73,1.02,1.38,2.1,1.94,3.22.11.29.67,1.38.76,2.07.13.4.26.81.36,1.22Z"/>
      <path class="cls-1" d="M64.14,72.16c-1.04-.01-2.06-.21-3.1-.32-1.6-.16-3.2-.28-4.78-.62-.88-.23-6.18-1.16-6.49-2.19-.36-.15-.38-.68.12-.65.69-.03,1.39-.16,2.05-.4,1.2-.37,2.31-.94,3.36-1.61-.13.3-.08.66.15.91.15.16.36.26.59.26,0,0,.02,0,.02,0,.21,0,.4-.09.57-.22.16-.13.29-.28.44-.42.02-.01.03-.03.05-.04.19-.17.28-.43.25-.68-.03-.25-.17-.47-.38-.6-.11-.07-.22-.11-.35-.12.58-.42,1.14-.86,1.7-1.3-.06-.18.12-.29.22-.41.33-.37.6-.79.87-1.22.29-.43.54-.88.75-1.35,0,.04-.02.08-.03.13-.05.18-.1.37-.16.54-.04.11-.09.21-.14.31-.21.37-.45.72-.7,1.06-.17.24-.35.47-.54.7-.04.04-.07.07-.12.11-.17.14-.26.37-.27.59,0,.22.08.44.23.6.15.16.36.26.59.27,0,0,.02,0,.03,0,.22,0,.41-.09.58-.23.27-.22.48-.51.7-.79.45-.58.89-1.18,1.18-1.85.28-.65.39-1.36.47-2.05.03-.22-.01-.44-.15-.63-.13-.18-.32-.3-.54-.33-.22-.04-.43.02-.6.13,0-.02.01-.05.02-.07-.08-.1-.04-.26-.04-.39,0-.39.08-.79,0-1.18-.01-.23.27-.33.42-.17.36.29.72.57,1.1.82,1.74,1.23,3.69,2.15,5.71,2.82.52.14,1.07.2,1.6.25.02-.01.04-.02.06-.02.4-.06.81-.11,1.21-.18.3-.05.6-.1.9-.15-.03.02-.05.04-.07.07-.15.16-.23.37-.22.59.02.43.39.77.81.77.01,0,.02,0,.04,0,.23-.01.46-.04.68-.09.21-.04.41-.1.61-.17.18-.06.36-.12.54-.2.16-.08.32-.16.48-.24.18-.09.35-.18.52-.28.15-.09.29-.19.43-.29.32-.23.63-.48.91-.74.1-.09.19-.19.28-.29.07-.08.12-.17.18-.26.11-.17.22-.35.31-.53.21-.39.06-.89-.33-1.1-.13-.07-.26-.1-.39-.09.04-.06.09-.11.13-.17.25-.32.5-.65.75-.97.05-.14.16-.29.21-.4.26-.5.49-1.02.71-1.54.05-.12.1-.25.14-.37.01-.03.02-.07.03-.1-.01-.1.03-.21.07-.31.48-2.05-.47-4.16-1.71-5.76-.04-.06-.05-.12-.03-.18-.33-.23-.75-.51-.66-.74.07.04.14.07.2.1.09.05.18.09.26.14.34.25.67.52.98.8-.01-.01-.03-.03-.04-.04.05.05.1.09.15.14.38.36.75.73,1.09,1.13.3.36.57.74.82,1.13,0,0,0,0,0-.01,0,0,0,0,0-.01,0,0,0,0,0,.01.15.24.3.47.44.71.21.37.4.76.56,1.15.09.24.17.48.24.72.05.17.09.33.13.5.04.15.06.32.16.45.09.13.24.21.4.21.03,0,.07,0,.1-.01.19-.05.33-.2.41-.38.32-.5.25-2.14.31-2.43.07-.09.13-.15.19-.17.07.17.13.34.22.5.07.14.17.28.28.4.1.11.23.22.37.28.39.16.85.09,1.18-.17.22-.18.4-.43.54-.68.08-.16.16-.31.21-.48.05-.18.09-.36.13-.54.03-.17.06-.35.07-.52.52.2.31,2.8.36,3.18-.04,2.07-.64,4.11-1.41,6.02-.74,1.52-1.63,2.96-2.62,4.33-.55.82-1.28,1.49-1.97,2.2-.82.84-1.66,1.67-2.63,2.32-1.41.9-2.95,1.62-4.51,2.23-2.21.8-4.58.89-6.92.89-.57,0-1.13,0-1.69,0h0ZM84.46,47.4s0-.03,0-.04c-.1-.45-.49-.81-.77-1.17.12-.23-.16-.42-.27-.59.11-.32-.26-.58-.43-.81-.2-.18-.37-.52-.64-.58-.03-.26-.34-.51-.47-.73-.15-.29-.42-.73-.79-.45-1.33,1.25-3.34.8-4.92.32-.59-.24-1.21-.31-1.84-.36-.7-.17-1.31-.56-1.95-.88-.44-.24-.88-.5-1.29-.8-.33-.18-.7-.86-1.09-.46-.44.64-.55,1.44-.92,2.12-.92,2.02-2.59,2.46.79,2.39.05.06.11.08.18.08s.14-.03.18-.09c.58-.35,1.25-.52,1.92-.6.38-.03.75-.02,1.13,0,.07-.03.14-.04.21-.05,0,0,.02,0,.03,0,.24-.02.48-.05.73-.06.29-.01.58,0,.87.04.07,0,.13.01.2.02.01,0,.03,0,.04-.01.17.03.34.06.5.09.9.09,1.8.21,2.68.4.38.06.76.14,1.14.23.25.06.5.12.75.18.27.07.53.15.79.25.52.2,1.03.45,1.53.71-.02-.01-.04-.02-.07-.03.08.04.15.08.23.12.02.01.04.02.07.03-.01,0-.02-.01-.04-.02,0,0,0,0,0,0l-.03-.02s.02.01.03.02h0s0,0,0,0c.36.19.72.4,1.05.65l.38.32h0c.07.06.13.12.19.19h0c.16.17.31.35.42.55-.03-.13-.11-.29-.22-.45.02-.07.01-.14-.05-.21-.03-.03-.06-.07-.1-.12-.01-.03-.03-.07-.07-.1,0,0-.02-.02-.03-.03-.02-.02-.04-.05-.06-.07h0ZM82.92,46.67s0,0,0,0c0,0,0,0,0,0,0,0,0,0,0,0,0,0,0,0,0,0,0,0,0,0,0,0h0ZM84.35,47.64l-.33-.28c.11.09.23.18.33.28h0ZM77.67,49.19l.02.02h0s0,0,0,0h0s0,0,0,0h0s0,0,0,0h0s0,0,0,0h0s0,0,0,0h0s0,0,0,0h0s0,0,0,0h0s0,0,0,0c0,0,.01.01.02.02,0,0,0,0,0,0,0,0-.02-.01-.02-.02h0s0,0,0,0h0s-.01-.01-.02-.02h0ZM77.7,49.21l-.02-.02s.02.01.02.02h0ZM77.7,49.21h0s0,0,0,0h0ZM74.62,60.27c-.18.12-.36.24-.55.36,0,0,.02,0,.02-.01.18-.11.35-.22.53-.35Z"/>
      <path class="cls-6" d="M34.05,41.39c-.13-.01-.19-.19-.09-.28,0,0,0,0,0,0-.27-.07-.21-.39-.02-.52.12-.05.26-.07.39-.11.3-.08.61-.16.89-.29.14-.04.26-.16.41-.15-.01-.07.02-.13.08-.17.15-.08.3-.16.45-.25.44-.24.86-.53,1.31-.76.03-.08.1-.13.16-.18.12-.11.25-.22.36-.33.31-.3.61-.63.87-.97.12-.27.22-.55.3-.84.05-.15.07-.34.22-.42.03-.1.16-.14.24-.08.33.07.18.74.12.97-.13.46-.34.89-.69,1.23-.07.09-.14.19-.21.28-.03.03-.06.05-.1.06-.03.03-.06.06-.09.1.16.21-.25.42-.38.54-.43.32-.87.62-1.33.89-.25.15-.49.29-.73.42-.07.05-.17.06-.23,0-.33.2-.68.37-1.03.54-.1.14-.3.16-.45.22-.15.04-.3.12-.45.12h0ZM59.58,85.03s.08.03.11.05c.21.15.43.31.63.47.69.52,1.25,1.18,1.72,1.9.23.27.44.54.66.82.11.1.1.24.03.34.08.13.18.24.24.38.08.24.29.48.24.74-.06.19-.21.41-.43.41-.1,0-.2-.05-.25-.15-.02-.04-.03-.09-.04-.14-.21-.26-.26-.61-.46-.87-.43-.74-.93-1.44-1.5-2.07-.6-.46-1.21-.9-1.82-1.35-.21-.2-.74-.42-.7-.74-.25-.18-.51-.34-.79-.48-.37.03-1-.41-1.37-.56-.64-.34-1.31-.64-1.96-.97,0,0,0,0,0,0-.35.09-.66-.24-.97-.38-.39-.23-.75-.5-1.15-.71-.57-.49-1.13-.99-1.6-1.57-.16-.19-.28-.41-.4-.63-.29-.33-.65-.63-.85-1.03-.04-.12,0-.22.07-.29-.38-.8-.62-1.68-.71-2.56-.03-.19.03-.39-.02-.58-.05-.12-.06-.27,0-.38,0-.07.02-.14.03-.2.06-.41.15-.8.27-1.2-.22-.32.35-1.01.51-1.32.27-.36.46-.82.82-1.1.2-.3.64-.91,1.01-.96.64-.09.67.54.23.54.05.31-.44.72-.58.97-.3.44-.64.9-.86,1.38-.13.51-.25,1.02-.33,1.53-.03.2.03.49-.05.69.01.03.02.05.02.08.03.21.05.42.07.63.05.29.1.59.15.88,0,.02,0,.05,0,.08.06.08.09.18.13.26.22.45.39.92.6,1.37.59,1.04,1.5,1.83,2.44,2.54,1.01.72,2.14,1.26,3.25,1.79.69.19,1.31.55,1.9.95.26.17.57.32.67.64.34.24.67.51.98.79h0ZM85.92,51.9c-.06-.09-.06-.21.05-.33.05-.05.12-.07.18-.07.12-.09.27-.16.37-.26.68-.58,1.28-1.22,1.83-1.9.32-.4.62-.81.95-1.2.21-.38.41-.77.57-1.18.1-.18.12-.47.35-.54.35-.6.41-1.3.54-1.97.06-.25.06-.54.22-.74.01-.84.07-1.71-.19-2.52-.25-.63-.49-1.23-.77-1.84-.18-.16-.3-.38-.45-.56-.3-.45-.68-.83-1.09-1.18-.2-.18-.4-.36-.61-.52-.02,0-.03-.02-.05-.03-.27-.13-.54-.24-.81-.35-.16-.06-.32-.12-.48-.19-.08-.04-.19-.06-.23-.15-1.3-.31-2.62-.61-3.96-.48-.54.08-1.08.12-1.62.22-.28.12-.57.22-.85.34-.12.05-.24.1-.36.14-.08.03-.17.05-.25,0-.1-.07-.13-.18-.19-.28-.05-.09-.13-.2-.07-.3.05-.09.17-.12.25-.05.08-.04.17-.08.25-.12.04-.11.17-.12.27-.16.2-.07.41-.13.61-.2.2-.06.41-.12.61-.18.11-.02.23-.1.33-.03.56-.1,1.13-.17,1.7-.22.18,0,.38-.06.55.02.47,0,.94.06,1.41.13.23.04.46.06.69.1.05,0,.1.01.15.05.07.02.14.03.21.05.25.05.5.1.74.15.17.05.51.04.52.28.3.12.6.26.89.4.15.09.39.16.43.35.05.02.1.04.14.06.43.04.73.43,1.03.71.48.51.87,1.1,1.15,1.74.31.49.49,1.05.65,1.61.19.12.14.38.16.58,0,.31.04.61.07.91.26.17.09.57.1.83-.06.65-.14,1.29-.21,1.94.13.59-.63,2.27-.96,2.81-.2.28-.3.67-.6.87-.58.91-1.38,1.64-2.11,2.42-.27.23-.65.85-1,.86-.27.22-.51.59-.88.63-.31-.04-.31-.36-.26-.63h0ZM23.86,54.59c-.12-.02-.39-.04-.58-.1-.03.06-.1.11-.19.1-.64-.17-1.29-.44-1.89-.71-.21-.1-.44-.15-.66-.25-.17.06-.44-.2-.59-.28-.22-.16-.46-.3-.68-.47-.36-.29-.72-.6-1.03-.94-.16-.21-.27-.45-.43-.65-.11-.2-.2-.41-.28-.62-.15-.35-.28-.7-.38-1.06-.03-.12-.1-.31-.06-.43-.02-.13-.03-.25-.03-.38-.01-.24-.02-.48-.03-.71,0-.09-.01-.19.04-.26.03-.2,0-.84.24-.86.17-.55.37-1.09.63-1.6.1-.17.16-.37.3-.5,0-.04.01-.07.03-.1.11-.14.25-.24.38-.36.19-.16.38-.32.57-.47.08-.17.3-.25.44-.35.21-.12.41-.25.62-.35.02-.13.18-.17.28-.22.16-.07.32-.13.48-.2.27-.1,1.5-.63,1.75-.49.03-.07.11-.13.25-.16,1.22-.24,2.45-.45,3.69-.58.09-.12.27-.09.4-.13.25-.04.5-.06.74-.09.6-.07,1.2-.16,1.81-.24.17-.02.34-.04.52-.05.1,0,.21-.02.26.08.09.2-.11.26-.27.28,0,.03,0,.06,0,.09.04.07,0,.16-.06.21,0,.09-.06.16-.14.17-.21.03-.43.03-.64.05-.35.02-.69.06-1.03.11-.02.02-.05.04-.09.04-.68.12-1.36.19-2.03.31-.01,0-.03,0-.04.01-.03,0-.05,0-.08,0-.04,0-.08.01-.11.02-.59.15-1.19.27-1.8.35-.2.03-.4.06-.61.09-.08,0-.17.04-.25.03-.36.09-.71.18-1.06.29-.63.22-1.21.53-1.82.78.1.19-.25.36-.36.49-.25.22-.5.43-.75.65-.2.18-.34.4-.51.61-.16.29-.28.6-.42.91-.07.42-.15.83-.22,1.25-.01.08-.03.17-.04.25.06.24.04.51.07.75.02.24.04.47.07.7.02.16.11.33.06.49,0,.03.01.07.02.1.26.38.39.85.67,1.22.25.33.56.62.86.91.25.2.51.39.77.59.17-.02.34.08.5.13.42.16.84.33,1.27.49.41.04.83.09,1.24.14.2.01.4.02.6.03.04,0,.08.02.11.05.34.02.68.03,1.02.01.17,0,.36-.05.52,0,.18,0,.36-.01.53-.02.12-.01.27.04.27.18.16,0,.35.17.24.33-.13.14-.35.14-.52.17-.43.04-.85.12-1.28.17-.43.02-.86.02-1.29-.03Z"/>
      <path class="cls-5" d="M26.7,53.81c.24.04.38.34.18.52-.37.24-.92.15-1.35.2-.23.24-.97.1-1.3.12-.03.02-.07.03-.11.03-.69-.09-1.39-.2-2.06-.41-.18-.07-.42-.09-.55-.25-.04-.02-.08-.03-.12-.05-.31.05-1.07-.44-1.41-.57-.25-.16-1.46-.65-1.33-1.03-.08-.07-.15-.15-.23-.23-.46.12-.41-.62-.6-.87-.46.07-.59-1.12-.66-1.46-.29-.02-.24-.38-.24-.58.02-.36.05-.72.08-1.09.14-1.42.19-1.69,1-2.88-.15-.36.84-1.16,1.14-1.32-.02-.31,1.12-.76,1.4-.95.36-.17,1.97-1.08,2.21-.69.09-.02.19-.04.29-.04-.07-.16.04-.36.22-.35.06,0,.11.02.14.05.03-.01.07-.02.11-.03.06.01.12.04.17.08.02.03.04.07.05.11,0-.04-.02-.08-.05-.11.16.13.26.35.48.38.28.09.14.52-.14.43-.04,0-.08-.02-.13-.05-.09.09-.26.11-.39.14-.55.12-1.05.26-1.56.44-.08.21-.34.27-.51.39-.54.32-1.11.59-1.65.89-.48.24-.68.72-.95,1.15-.21.27-.3.57-.35.91-.16.7-.3,1.41-.38,2.12.22.13.28,1.21.37,1.53,0,.1.06.28.11.46.06.01.13.06.18.15.21.31.49.58.75.84.14.17.45.31.38.56.16.18.34.3.57.37.35.15.7.3,1.06.45.34.14.67.26,1.01.39.3.02.6.05.9.07.66.04,1.31-.02,1.97-.04.3.03,1.29-.17,1.33.23h0ZM55.19,83.61s-.08-.05-.11-.08c-.07-.05-.12-.12-.11-.21-.03-.04-.07-.09-.1-.13,0,0-.01-.01-.02-.02-.32.24-1.03-.37-1.39-.49-.5-.12-.94-.5-1.39-.75-.7-.47-1.37-.95-1.88-1.64-.44-.64-1.11-1.32-1.14-2.12-.52-.96-1-2.1-.89-3.22.04-.39-.11-1.12.37-1.25.01-.08.03-.16.04-.24.04-.23.11-.46.19-.68-.04-.36.26-.67.4-.98.1-.22.42-.67.64-.59v-.02c.4-.69.92-1.5,1.35-1.28.61.41-.22.93-.48,1.28-.74,1.04-1.36,2.25-1.37,3.56.03,2.51,1.46,4.85,3.62,6.1.4.26.8.51,1.2.76.29.2.63.35.92.56.09.18.19.36.29.54.2.35.41.7.63,1.04-.04.04-.1.06-.15.06-.05,0-.1-.02-.15-.05-.08-.06-.14-.12-.2-.19-.07.07-.17.1-.29.03h0ZM51.23,80.15s.03.07.05.11c0,0,0,0,0,0,.02,0,.03-.02.05-.02-.03-.03-.07-.06-.1-.09h0ZM86.14,52.46c-.23-.16-.34-.66-.13-.87.13-.35.52-.5.76-.76.73-.67,1.49-1.33,2.15-2.08.54-.74.95-1.56,1.37-2.37.21-.58.31-1.22.57-1.77.03-.14.07-.29.1-.43-.15-.27,0-.63-.03-.93.01-.41.03-.82,0-1.23.1-.2.19-.4.27-.6.06-.17.13-.34.18-.51.04-.13.08-.26.11-.39.02.02.03.04.04.06.08.21.03.44.03.66.23.19.19.55.23.83.29.18.06.73.11,1.03.31.31-.13,1.81-.22,2.25-.2.72-.5,1.4-.91,2.02-.57,1.16-1.34,2.21-2.24,3.14-.51.55-1.53,1.96-2.34,1.96-.02,0-.04,0-.06,0h0ZM79.28,36.64c-.07-.06-.1-.15-.11-.23-.29-.41.02-.67.42-.77.72-.24,1.47-.51,2.24-.47,0-.08.03-.14.07-.18.11.2.22.39.34.59.05.08.1.16.16.24-.15.04-.36,0-.51-.14-.06.23-.95.36-1.22.54-.26.11-.82.48-1.18.48-.08,0-.15-.02-.21-.06h0ZM39.46,35.93c.2-.14.46.13.31.32.1.26.07.86-.34.69-.07-.04-.13-.08-.21-.11-.14-.07-.17-.28-.04-.38-.02-.2.05-.48.28-.53h0ZM30.15,41.06c.17.12.07.56.08.76,0,.12-.13.22-.25.21-.31-.04-.17-.42-.2-.64-.04-.22.13-.48.37-.33h0ZM36.06,40.45c.06,0,.11-.01.17-.02-.02.18-.28.27-.59.32.02.12-.07.23-.18.25-.37.06-.75.14-1.13.09,0,0,0,0,0,0-.04.24-.5.27-.52-.03,0-.04,0-.08.02-.11-.04-.18-.12-.4.05-.53.04-.03.09-.04.14-.04.01-.06.05-.11.1-.15.17-.09.38.02.56.05.06.05.12.09.19.11.07.02.14.03.21.04.1,0,.19.01.29.02.1,0,.19,0,.29,0,.13,0,.27,0,.4-.01Z"/>
      <path class="cls-9" d="M78.73,35.97c.74.8,1.15,1.44.48,2.47-.39.68-.9,1.29-1.4,1.9-.73.96-1.62,1.77-2.67,2.37-.31.2-.66.47-1.05.32-.79-.26-1.42-.82-2.15-1.21-.27-.19-.86-.39-.94-.72-.18-.03-.27-.27-.15-.42.28-.27.65-.43.94-.7,1.04-.97,1.89-2.12,2.79-3.21.39-.57.78-1.22,1.1-1.82.22-.42.25-.95.88-.73.47.14.83.49,1.18.81.34.3.68.6.98.94Z"/>
      <path class="cls-9" d="M33.79,41.78c.02.4-.33.54-.65.62-.33.07-.67.18-1,.15-.4.07-.79.15-1.19.19-.4-.05-.56-.44-.61-.8-.1-.22-.35-.76-.22-.97-.23-.53.43-.51.77-.58.82-.12,1.66-.38,2.48-.25.51.21.42,1.19.42,1.65Z"/>
      <path class="cls-11" d="M30.86,42.67c-.19.03-.44-.06-.38-.29-.02-.03-.04-.07-.04-.11,0-.01,0-.02,0-.04-.27-.11-.15-.47.12-.46.55-.05,1.08-.11,1.61-.21.43-.09.87-.18,1.3-.3.28-.13.54.16.3.39.45,1.14-2.27.98-2.91,1.02h0ZM77.76,38.97c-.55-.1-1.4-.83-1.48-1.4,0-.31.5-.31.47.01.07.16.24.37.43.55-.02-.08,0-.16.09-.23.09-.08.18-.16.26-.24.41-.48.84-1.1.67-1.76-.03-.12.05-.25.17-.28.22-.03.3.15.32.34.15.01.28.18.2.36.32.47-.46,1.43-.77,1.8-.12.17-.37.36-.53.11,0,0,0,0,0,0-.06.06-.12.08-.18.08.15.11.3.18.43.2.64-.36,1.1-1.07,1.21-1.78.04-.29.5-.22.45.07-.11.81-.86,2.06-1.73,2.17h0ZM77.26,37.9s.05-.03.08-.04c-.03,0-.06.02-.08.04h0ZM70.67,40.93c.03.17.16.22.28.19.09.15.3.23.45.32.37.22.74.44,1.13.64.61.27,1.19.67,1.86.77.69.1,1.24-.42,1.76-.79.31-.23.62-.47.92-.71.2-.18.69-.46.4-.75-1.06-.15-1.7-.69-2.49-1.4-.44-.38-.83-.87-1.15-1.37-.25-.14-.45.17-.29.38-.26.02-.35.36-.53.52-.27.33-.54.62-.85.93-.32.36-.81.6-1.09.99-.16-.08-.4.08-.38.27Z"/>
    </g>
    <g>
      <path class="cls-8" d="M30.77,42.91c-.75-.11-.66-.5-.79-1.1-.07-.32-.15-.63-.23-.95-.04-.11-.05-.27.09-.31-.02-.28.77-.32.97-.37.8-.12,1.61-.23,2.42-.23.22-.01.48.05.55.29.09.3.14.61.19.92.04.33.08.67.04,1.01-.01.22-.22.33-.41.38-.46.14-.93.23-1.4.31-.47.07-.95.14-1.42.07h0ZM31.44,42.6c.56-.04,1.1-.14,1.64-.27.2-.05.41-.09.59-.18.04-.19.02-.39.01-.58-.02-.31-.08-.62-.14-.93-.02-.11-.04-.22-.09-.33-.02-.04-.08-.03-.13-.04-.85-.01-1.69.12-2.53.24-.25.04-.52.07-.75.18.15.57.27,1.13.38,1.71.11.25.77.22,1.01.21Z"/>
      <path class="cls-8" d="M33.81,40.53c-.02-.09.03-.18.11-.2.23-.06.47-.13.7-.21.3-.11.6-.23.88-.37,1.16-.6,2.86-1.6,3.32-2.87.06-.18.1-.36.09-.55-.03-.11.03-.24.16-.24.24.02.16.34.15.51-.26,1.65-2.51,2.93-3.9,3.6-.42.19-.87.33-1.31.45-.08.02-.18-.03-.2-.11Z"/>
      <path class="cls-8" d="M23.99,54.89c-1.12-.08-2.22-.43-3.26-.84-1.26-.6-2.54-1.38-3.22-2.64-.68-1.24-.86-2.7-.64-4.08.2-1.1.75-2.13,1.48-2.98,1.52-1.69,3.81-2.37,5.99-2.74,1.35-.21,2.71-.41,4.08-.53.53-.04,1.07-.09,1.59-.22.09,0,.16.07.16.16,0,.1-.09.16-.18.17-.6.15-1.22.18-1.84.24-1.36.13-2.72.32-4.07.55-2.24.4-4.63,1.21-5.95,3.17-.41.63-.75,1.32-.91,2.05-.28,1.47-.07,3.06.75,4.34.47.7,1.14,1.22,1.86,1.65.47.28.96.54,1.47.72,0,0,0,0,0,0,0,0,0,0-.01,0,.86.29,1.74.57,2.65.64.96.04,1.95-.02,2.87-.28.21-.05.29.25.09.31-.94.26-1.93.34-2.9.3Z"/>
      <path class="cls-8" d="M33.97,41.51c-.13-.06-.11-.27.03-.3.32-.07.63-.17.93-.28.49-.18.97-.38,1.44-.62,1.16-.63,2.49-1.52,3.03-2.77.21-.47.38-1,.25-1.51-.12,0-.25.07-.32.16.05.17-.17.29-.28.15-.18-.28.19-.56.44-.62.3-.09.5.1.52.4.03.25.02.5-.02.74-.11.49-.32.96-.58,1.39-.89,1.32-2.61,2.32-4.07,2.88-.29.11-.59.22-.88.3-.11.03-.23.06-.34.09-.04,0-.08,0-.12-.01Z"/>
      <path class="cls-8" d="M24.12,53.8c-.66-.03-1.32-.09-1.96-.23-1.31-.32-2.58-1.05-3.3-2.21-1.35-2.02-1.01-4.93.68-6.65.73-.68,1.63-1.14,2.56-1.49.94-.34,1.94-.49,2.92-.67,1.52-.31,3.03-.55,4.58-.64.18,0,.36,0,.54,0,.07,0,.14.03.17.1.05.11-.05.24-.17.22-.57-.03-1.15.04-1.72.1-.78.09-1.55.18-2.32.34-1.26.27-2.55.41-3.77.81-.67.24-1.28.54-1.87.92-1.82,1.17-2.51,3.64-1.87,5.66.58,1.68,1.8,2.68,3.48,3.15,1.13.27,2.3.31,3.46.28.32-.02.64-.04.95-.1.09-.02.17.06.18.14.01.09-.05.17-.14.18-.14.03-.29.05-.43.06-.65.06-1.31.06-1.96.02Z"/>
      <path class="cls-8" d="M38.65,37.02c-.21-.14-.34-.37-.38-.62-.02-.17-.09-.56.18-.54.2.05.12.21.12.36,0,.22.09.44.28.55.13.14-.05.36-.21.25Z"/>
      <path class="cls-8" d="M39.92,36.01c-.09-.09-.02-.2.01-.3.08-.2.18-.38.25-.58.22-.55.13-1.3-.46-1.57-.19-.09-.07-.38.13-.3.85.39.92,1.43.55,2.19-.06.13-.12.26-.17.38-.02.06-.03.13-.08.18-.06.06-.17.06-.23,0Z"/>
      <path class="cls-8" d="M38.77,33.22c-.62-.1-1.22-.36-1.71-.76-.16-.14.03-.38.2-.25.17.14.36.26.55.36.31.16.62.25.96.32.05-.01.11,0,.16.05.11.12,0,.3-.16.28Z"/>
      <path class="cls-8" d="M32.68,47.83c-.21-.02-.21-.32.01-.33.33,0,.65-.03.98-.06.85-.09,1.69-.24,2.52-.46,1.51-.42,2.76-1.38,4.02-2.26,1.33-.87,3.39-1.77,3.15-3.68-.11-.59-.38-1.14-.52-1.73-.11-.46-.05-.94.01-1.4.07-.51.11-1.03.1-1.52.02-.74-.4-1.38-.85-1.94-1.14-1.35-2.83-2.14-3.85-3.6-.41-.62-.79-1.31-1.25-1.87-.46-.59-1-1.11-1.55-1.6-1.52-1.43-3.37-2.52-5.32-3.26-.92-.35-1.87-.56-2.83-.74-.68-.14-1.38-.21-2.08-.23-.5-.02-1.01,0-1.51.04-.09-.01-.15-.1-.14-.19.01-.08.09-.14.17-.14,0,0,0,0,0,0,0,0-.01,0-.02,0,1.48-.14,2.97.03,4.41.35,1.5.29,2.93.88,4.27,1.59,1.34.7,2.54,1.65,3.64,2.69.71.66,1.35,1.4,1.87,2.22.26.41.49.84.8,1.23.19.23.39.44.6.64,1.06,1.01,2.4,1.76,3.26,2.97.39.53.71,1.16.7,1.83.01.45-.01.91-.07,1.35-.06.47-.15.91-.08,1.37.12.72.51,1.38.58,2.12.04.68-.23,1.36-.67,1.87-.72.83-1.72,1.31-2.62,1.9-1.21.83-2.41,1.76-3.82,2.22-.46.16-.94.26-1.42.35-.82.16-1.66.28-2.49.29Z"/>
      <path class="cls-8" d="M16.84,47.37c-1.73-.73-3.38-1.77-4.57-3.24-.96-1.21-1.71-2.61-2.16-4.09-.42-1.45-.57-2.98-.46-4.48.23-3.04,1.76-5.86,3.79-8.09.7-.72,1.46-1.4,2.29-1.98,1.65-1.1,3.51-1.9,5.46-2.31.8-.17,1.61-.27,2.43-.33.09,0,.17-.01.26-.02.05-.02.11-.02.15,0,.13.09.08.29-.08.31-.26.04-.52.04-.77.07-3.57.29-7.06,1.86-9.51,4.49-1.65,1.83-2.95,4.02-3.48,6.44-.4,1.94-.3,3.95.25,5.85.57,1.78,1.52,3.47,2.87,4.77.76.73,1.65,1.31,2.58,1.8.36.19.72.35,1.09.51.19.08.08.38-.13.3Z"/>
      <path class="cls-8" d="M20.99,48.74c-.66-.11-1.31-.26-1.94-.5-.25-.1-.51-.19-.75-.3-.09-.05-.21-.12-.19-.24.03-.15.21-.18.3-.07.64.29,1.3.52,1.99.67.21.05.42.09.63.12.09.01.15.1.14.19-.01.09-.1.15-.19.14Z"/>
      <path class="cls-8" d="M23.18,49.53c-.98-.19-2.09-.52-2.62-1.44-.4-.68-.47-1.23-.22-1.98.13-.48.5-.82.93-1.05.39-.23.87-.31,1.32-.33.48-.02.97.03,1.44.15.13.02.3.1.23.26-.03.08-.13.12-.21.08-.09-.03-.2-.05-.27-.07-.37-.08-.78-.12-1.14-.1-.38.02-.76.06-1.11.24-.3.16-.62.35-.78.68-.18.42-.31.91-.17,1.37.25.81.79,1.3,1.58,1.58,1,.37,2.07.45,3.12.39.94-.04,2.55-.4,2.82-1.44.01-.06.02-.12.01-.19,0-.14.19-.21.28-.11.03.03.04.07.05.12.02.52-.35.97-.77,1.25-1.27.84-3.03.81-4.49.59Z"/>
      <path class="cls-8" d="M24.36,48.69c-.77-.02-1.57-.24-2.15-.78-.32-.3-.52-.76-.43-1.19.06-.29.28-.51.51-.68.42-.28.96-.31,1.45-.29.15.03.41-.06.45.16.01.24-.29.18-.45.17-.13,0-.25,0-.38,0-.5.02-1.1.19-1.26.72-.11.72.61,1.18,1.2,1.4.48.15,1,.22,1.5.15.13-.03.27-.05.34-.17.11-.18.21-.37.36-.52.08-.08.17-.15.26-.21.12-.09.3-.13.36-.28-.42-.12-.92-.1-1.25-.44-.15-.15.08-.38.23-.23.24.22.58.24.88.3.34.04.62.23.39.59-.11.17-.3.24-.46.35-.28.16-.39.47-.58.71-.25.26-.65.26-.98.27Z"/>
      <path class="cls-8" d="M42.77,50.74c-.64-.39-1.26-.74-1.95-1.01-1.13-.47-2.28-.86-3.47-1.15-1.92-.49-3.93-.82-5.91-.56-.4.05-.78.13-1.16.23-.18.05-.36.1-.53.14-.09.02-.18-.03-.2-.11-.02-.08.03-.18.11-.2.3-.08.6-.17.9-.23,1.7-.38,3.47-.28,5.16.04,1.71.32,3.39.8,5.01,1.46.77.3,1.5.68,2.2,1.11.18.11.03.39-.16.28Z"/>
      <path class="cls-8" d="M50.01,68.71c-2.48-.76-4.78-2.02-6.97-3.4-.82-.52-1.61-1.08-2.45-1.57-1.3-.76-2.63-1.4-3.96-2.1-1.89-.96-3.8-1.89-5.49-3.19-2.62-1.84-4.69-4.26-5.85-7.27-.19-.51-.35-1.02-.48-1.55-.03-.07,0-.15.06-.2.1-.07.24,0,.26.12.04.17.09.34.13.51.14.48.31.95.5,1.41,1.49,3.55,3.99,5.77,7.16,7.81,1.37.83,2.81,1.53,4.23,2.26,1.41.74,2.86,1.43,4.21,2.29.88.57,1.75,1.16,2.65,1.7,1.41.85,2.85,1.63,4.38,2.26.57.23,1.13.43,1.71.61.08.03.13.12.11.2-.03.09-.12.13-.2.11Z"/>
      <path class="cls-8" d="M40.15,40.29c0-.08.05-.13.11-.18.16-.17.32-.34.46-.53.22-.34.33-.73.51-1.09.14-.29.32-.55.54-.78.18-.18.36-.38.46-.62.09-.19.38-.07.3.13-.03.08-.07.16-.11.23-.26.41-.69.69-.88,1.15-.22.42-.34.9-.64,1.28-.13.17-.28.34-.44.49-.07.15-.31.09-.31-.08Z"/>
      <path class="cls-8" d="M32.39,38.75c-.18-.12-.03-.29.1-.38.27-.22.59-.38.88-.57.5-.32.85-.82,1.12-1.34.23-.46.39-1.02.05-1.46-.08-.09-.16-.22-.04-.32.07-.05.18-.04.23.03.44.51.39,1.19.11,1.76-.33.74-.86,1.39-1.58,1.78-.24.14-.44.26-.64.44-.05.07-.15.11-.23.06Z"/>
      <path class="cls-8" d="M36.85,31.77c-.17-.07-.11-.33.07-.32.29-.18.49-.49.62-.8.06-.18.08-.37.08-.56,0-.09.08-.16.17-.16.26.02.13.45.12.62-.03.35-.67,1.34-1.06,1.21Z"/>
      <path class="cls-8" d="M30.45,35.99c-.09-.02-.13-.12-.11-.2.07-.35.22-.67.4-.97.22-.37.46-.73.74-1.05.09-.11.23-.27.36-.13.06.06.06.17,0,.23-.17.17-.31.36-.45.56-.23.34-.46.68-.62,1.07-.05.13-.08.26-.11.39-.02.09-.12.13-.2.11Z"/>
      <path class="cls-8" d="M35.1,29.27c-.11-.1-.04-.22.02-.31.18-.34.42-.66.72-.9.16-.14.38.09.22.24-.09.08-.17.16-.25.24-.17.19-.28.36-.4.57-.05.14-.15.27-.31.17Z"/>
      <path class="cls-8" d="M42.65,52.48c-.28-.18.08-1.08.2-1.33.65-1.42,1.69-2.6,2.69-3.78,1.31-1.54,2.55-3.16,3.47-4.96.48-.92.79-1.92,1.38-2.77.19-.27.41-.51.65-.74.15-.11.36-.43.54-.23.05.07.04.17-.03.23-1.17.86-1.57,2.31-2.2,3.55-.93,1.87-2.21,3.53-3.55,5.12-1.05,1.25-2.19,2.51-2.79,4.05-.06.21-.13.42-.14.64.09.13-.08.32-.22.23h0ZM42.87,52.25s-.01-.02-.02-.03c0,0,0,0,0,0,0,0-.01,0-.02-.01,0,0,0,0,0,0,0,0,0,0-.01,0,.02.01.04.03.05.05Z"/>
      <path class="cls-8" d="M42.99,50.8c-.29-.12-.06-.47.17-.28.18.11.01.38-.17.28Z"/>
      <path class="cls-8" d="M50.32,39.83c-.12-1.65-.52-3.27-.64-4.93-.11-1.02-.04-2.1.46-3.01.16-.3.36-.57.55-.86.18-.27.36-.55.54-.82.14-.2.28-.43.49-.57.37-.2.68.23.77.55.19.65.08,1.36-.12,1.99-.05.15-.1.31-.15.46-.04.13-.1.26-.25.2-.15-.07-.09-.21-.05-.32.15-.44.29-.88.33-1.35.02-.39.02-.81-.19-1.14-.04-.05-.08-.12-.15-.12-.18.1-.28.31-.41.48-.37.58-.78,1.12-1.11,1.72-.25.5-.37,1.05-.42,1.61-.04,1.29.19,2.53.38,3.8.13.75.24,1.51.29,2.27.02.21-.29.26-.32.04Z"/>
      <path class="cls-8" d="M55.17,31.4c-.09,0-.17-.08-.16-.16.01-.19,0-.39-.07-.58-.11-.34-.41-.65-.79-.67-.41-.02-.86.09-1.14.41-.16.19-.28.41-.4.63-.08.13-.11.42-.33.34-.16-.08-.09-.23-.03-.35.11-.23.23-.46.38-.67.37-.58,1.16-.8,1.8-.64.33.11.6.37.75.69.13.26.16.55.14.84,0,.09-.07.16-.16.16Z"/>
      <path class="cls-8" d="M56.89,32.35c-.24-.05-.09-.34-.13-.51-.07-.63-.76-1.07-1.36-1.03-.11.17-.37.02-.29-.16.19-.31.69-.14.96-.05.3.11.58.31.77.58.1.15.18.31.22.48.04.18.03.37,0,.55,0,.09-.1.15-.18.14Z"/>
      <path class="cls-8" d="M58.12,33.67c-.12-.02-.16-.14-.13-.25.02-.21,0-.42-.1-.61-.17-.29-.46-.53-.79-.6-.36.1-.36-.68.53-.12.36.24.66.61.68,1.06,0,.17.07.54-.19.53Z"/>
      <path class="cls-8" d="M68.9,61.81c-1.96-.26-3.74-1.15-5.41-2.17-1.23-.74-2.46-1.49-3.64-2.31-.97-.68-1.85-1.47-2.72-2.27-.41-.39-.82-.78-1.18-1.21-.53-.66-1.12-1.3-1.42-2.09-.68-1.6-.74-3.37-.5-5.07.15-1.44.55-2.84,1.2-4.14.57-1.26,1.29-2.44,2.08-3.58.57-.81,1.07-1.67,1.39-2.6.15-.45.29-.92.18-1.39-.09-.44-.3-.87-.63-1.18-.07-.06-.15-.12-.24-.17-.07-.02-.13-.08-.13-.16.09-.42.59.09.73.23.27.34.48.73.57,1.15.22.95-.29,1.95-.68,2.79-.27.53-.6,1.02-.93,1.51-.6.88-1.19,1.79-1.67,2.74-.37.74-.73,1.49-1.01,2.26-.27.77-.41,1.57-.52,2.37-.23,1.55-.25,3.15.28,4.64.14.39.29.78.51,1.13.18.25.37.5.55.74.46.61.99,1.17,1.55,1.69,1.02.96,2.05,1.86,3.21,2.63,1.26.85,2.56,1.65,3.88,2.41,1.34.75,2.76,1.43,4.29,1.66.43.09.89.11,1.33.08.2-.01.41-.03.61-.05.09,0,.17.05.18.14.01.09-.05.17-.14.18-.58.05-1.16.11-1.74.02Z"/>
      <path class="cls-8" d="M44.19,60.53c-2.18-.16-4.31-.7-6.39-1.37-1.31-.39-2.56-.91-3.8-1.49-1.25-.55-2.46-1.18-3.6-1.94-1.32-.89-2.5-2.2-2.73-3.83-.03-.19-.06-.39-.09-.58-.01-.09.06-.17.15-.18.2,0,.18.22.2.36.05.32.1.64.19.95.24.82.75,1.5,1.34,2.11.61.6,1.31,1.06,2.04,1.49.92.54,1.88,1.01,2.86,1.44,1.46.69,2.97,1.23,4.52,1.67,1.45.45,2.95.8,4.46.97,1.3.15,2.65.25,3.93-.08,1.18-.31,2.17-1.11,2.91-2.07.87-1.15,1.54-2.42,2.1-3.74.59-1.43,1.07-2.92,1.36-4.44.09-.5.2-.99.26-1.5-.02-.24.36-.24.33.02-.38,2.63-1.14,5.21-2.36,7.57-.63,1.18-1.33,2.37-2.34,3.27-1.47,1.38-3.41,1.56-5.34,1.39Z"/>
      <path class="cls-8" d="M27.8,50.66c-.14-.03-.15-.18-.11-.29.03-.13.09-.34.27-.28.19.08.09.23.05.37-.01.11-.08.23-.21.2Z"/>
      <path class="cls-8" d="M70.78,61.77c-.12,0-.27.03-.32-.1-.03-.08.01-.18.09-.21.14-.03.29,0,.43-.01,1.12-.11,2.18-.56,3.11-1.16,1.6-.99,2.79-2.31,3.59-4.01.49-.93.75-2,.67-3.06-.12-2.41-1.98-4.82-3.89-6.19-.82-.55-1.7-.95-2.65-1.2-1.24-.31-2.52-.4-3.79-.4-.73,0-1.46-.03-2.18-.07-.2,0-.22-.32,0-.33.68.04,1.37.07,2.05.07,1.19,0,2.39.06,3.56.31.88.18,1.72.51,2.51.93,2.24,1.25,4.48,4.04,4.7,6.65.14,1.31-.21,2.62-.86,3.76-.33.62-.7,1.23-1.16,1.77-1.36,1.6-3.72,3.2-5.87,3.25Z"/>
      <path class="cls-8" d="M67.23,45.27c-.09-.19.11-.23.23-.31.18-.13.34-.29.49-.45.56-.61,1-1.31,1.31-2.07.24-.55.44-1.13.49-1.73.03-.21.35-.17.32.05-.06.65-.27,1.26-.53,1.85-.26.64-.61,1.23-1.04,1.76-.16.2-1.04,1.27-1.27.9Z"/>
      <path class="cls-8" d="M70.36,40.97c-.14-.22.2-.36.34-.48.46-.34.9-.73,1.31-1.13.86-.83,1.65-1.73,2.36-2.69.61-.77,1.08-1.63,1.43-2.55.08-.19.38-.07.3.13-.35.92-.82,1.8-1.43,2.57-.63.84-1.3,1.66-2.05,2.4-.59.63-1.24,1.2-1.94,1.71-.08.11-.2.16-.3.04Z"/>
      <path class="cls-8" d="M74.37,43.19c-.43-.05-.8-.32-1.18-.5-.24-.13-.48-.25-.71-.37-.62-.33-1.29-.59-1.82-1.06-.13-.12-.31-.38-.13-.53.13-.1.31.04.27.19.07.12.2.2.31.28.49.33,1,.56,1.52.82.39.2.8.42,1.17.62.22.1.44.24.68.23.93-.06,2.33-1.61,2.98-2.29.61-.71,2.55-2.69,1.84-3.63-.54-.73-1.24-1.32-1.93-1.9-.28-.2-.97-.94-1.29-.83-.08.03-.18,0-.21-.09-.07-.19.18-.26.32-.25.24.02.45.16.64.31.25.2.5.41.74.61.51.42,1,.86,1.46,1.34.33.35.74.75.74,1.27-.05,1.1-1.07,2.21-1.76,3.01-.76.82-2.52,2.86-3.67,2.76Z"/>
      <path class="cls-8" d="M70.49,40.96c-1.89-.57-3.66-1.58-5.07-2.96-.54-.52-1.07-1.12-1.3-1.86-.18-.7-.03-1.64.71-1.95.58-.23,1.22.02,1.75.28.44.23.76.61,1.15.91.11.11.39.19.29.39-.13.19-.32-.01-.44-.1-.32-.24-.58-.54-.91-.77-.51-.33-1.5-.75-1.99-.22-.4.46-.37,1.17-.12,1.7.35.7.92,1.24,1.49,1.76.29.27.6.51.92.73,1.03.74,2.13,1.28,3.32,1.69.08.02.16.06.24.08.21.03.17.35-.04.32Z"/>
      <path class="cls-8" d="M67.56,35.66c-.51-.55-1.03-1.17-1.21-1.92-.19-.78.16-1.84,1.13-1.57.58.18.91.73,1.3,1.16.16.18.31.35.48.51.06.06.06.17,0,.23-.06.06-.17.06-.23,0-.22-.22-.42-.45-.62-.68-.29-.33-.54-.73-.97-.89-.93-.28-.92,1.07-.61,1.61.18.37.44.7.7,1.02.08.09.15.19.24.27.07.06.08.16.03.23-.05.07-.16.08-.23.03Z"/>
      <path class="cls-8" d="M69.05,34.09c-.22-.23-.41-.48-.6-.74-.27-.4-.61-.83-.6-1.34,0-.39.17-.85.58-.94.57-.07,1.03.47,1.4.84.21.23.42.47.62.71.09.13.34.29.19.45-.06.06-.17.06-.23,0-.44-.46-1.25-1.66-1.9-1.68-.25.06-.32.34-.33.56-.03.29.11.56.26.8.2.31.42.62.65.9.06.07.13.14.19.21.14.16-.08.38-.24.23Z"/>
      <path class="cls-8" d="M70.54,33.13c-.4-.37-.75-.82-.95-1.33-.29-.72-.02-1.45.86-1.13.48.17.76.63,1.03,1.03.1.15.19.29.29.44.08.12.26.27.1.4-.07.05-.17.03-.23-.04-.15-.19-.28-.39-.41-.59-.17-.26-.34-.52-.56-.74-.16-.14-.36-.24-.57-.26-.59-.03-.16.95.02,1.2.19.27.38.54.63.75.16.14-.03.39-.2.26Z"/>
      <path class="cls-8" d="M75.87,34.3c-.65-.4-1.22-.91-1.79-1.42-.3-.26-2.38-2.32-2.51-1.34-.03.33.16.63.35.87.07.05.11.13.08.21-.16.27-.39-.07-.48-.22-.56-.8-.24-1.85.85-1.3.87.46,1.55,1.21,2.29,1.85.43.38.89.75,1.38,1.06.18.11.02.39-.17.28Z"/>
      <path class="cls-8" d="M78.54,44.01c-1.03-.09-2.07-.33-3.02-.7-.12-.04-.25-.08-.37-.12-.14-.04-.37-.08-.3-.28.04-.08.14-.12.22-.08.54.16,1.04.38,1.58.52.8.2,1.63.37,2.47.35.56-.03,1.16-.17,1.55-.61.43-.51.49-1.25.35-1.88-.12-.66-.35-1.32-.62-1.92-.23-.49-.5-.97-.84-1.4-.12-.17.13-.36.26-.19.8,1.03,1.3,2.28,1.53,3.55.14.7.03,1.5-.44,2.05-.58.66-1.54.78-2.37.71Z"/>
      <path class="cls-8" d="M56.2,40.98c-.13-.14.04-.27.12-.39.15-.2.3-.39.45-.58.91-1.2,2.07-2.18,3.22-3.14,1.05-.9,2.12-1.77,3.15-2.68.8-.67,1.55-1.4,2.39-2.01.13-.09.26-.18.39-.25.08-.04.18-.02.22.05.05.07.02.18-.05.22-.13.07-.25.15-.37.24-.53.38-1.01.82-1.5,1.25-.52.45-1.04.9-1.56,1.35-1.33,1.13-2.68,2.24-3.99,3.39,0,0,0,0,0,0,0,0,0,0,.01,0-.69.61-1.29,1.3-1.85,2.02-.09.11-.17.22-.26.33-.09.12-.22.34-.38.2Z"/>
      <path class="cls-8" d="M63.86,33.81c-.08-.03-.13-.13-.09-.21.05-.11.09-.23.13-.34.18-.47.39-.94.75-1.31.06-.07.17-.07.23,0,.12.12,0,.25-.1.34-.27.32-.43.71-.58,1.09-.08.15-.1.51-.34.43Z"/>
      <path class="cls-8" d="M58.87,34.25c0-.09.06-.16.15-.18.28-.04.55-.11.82-.18.64-.15,1.3-.22,1.95-.18.51.05,1.02.19,1.49.35.07.06.08.16.02.22-.07.1-.2.06-.3.03-.39-.12-.74-.22-1.13-.27-.45-.05-.93-.02-1.37.04-.37.05-.73.16-1.09.24-.17.02-.49.17-.54-.09Z"/>
      <path class="cls-8" d="M55.45,30.74c-.32-.27.55-.82.78-.9.08-.03.18.02.21.1.06.18-.16.22-.28.3-.16.09-.3.21-.42.34-.03.03-.04.07-.06.11-.05.07-.15.1-.23.05Z"/>
      <path class="cls-8" d="M56.28,30.11c-.48-.18-.65-.62-.49-1.1.13-.3.41-.52.71-.65.13-.05.27-.09.41-.11.09-.02.17.04.19.13.03.21-.22.2-.36.25-.23.06-.44.21-.59.39-.12.15-.12.37-.06.55.06.13.2.2.33.25.28.07.12.44-.14.29Z"/>
      <path class="cls-8" d="M57.05,28.55c-.24-.05-.44-.21-.54-.44-.18-.44.26-.85.64-1.01.23-.1.47-.11.72-.12.09,0,.17.06.18.15,0,.26-.33.15-.5.2-.23.03-.44.14-.61.3-.07.09-.14.2-.13.32.05.14.16.25.3.28.03,0,.06.01.08.02.08-.01.17.04.18.13.03.19-.18.23-.32.18Z"/>
      <path class="cls-8" d="M71.88,31.04c-.2-.82-.91-1.34-1.54-1.84-.56-.43-1.19-.77-1.84-1.06-.96-.44-1.95-.81-2.96-1.1-1.46-.4-2.94-.61-4.44-.81-.52-.07-1.02-.13-1.54-.14-.48.03-1.66.03-1.65.69,0,.07.03.14.08.2.07.03.11.12.09.2-.31.54-1.17-1,.52-1.31,1.37-.25,2.75.1,4.11.27,2.06.29,4.08.84,5.96,1.73.96.42,1.85.99,2.61,1.7.43.37.78.85.91,1.41.04.21-.26.28-.32.07Z"/>
      <path class="cls-8" d="M58.3,27.35c-.13-.03-.26-.06-.39-.08-.09,0-.15-.09-.14-.18.02-.18.21-.15.34-.12.15.04.44.03.39.26-.02.09-.11.14-.2.12Z"/>
      <path class="cls-8" d="M50.1,40.3c-1.31-.54-2.77-.48-4.14-.75-.67-.14-1.33-.35-1.97-.6-.32-.13-.64-.27-.93-.47-.51-.33-.03-.68.09-.35.42.35.96.51,1.46.7.43.15.87.28,1.31.38.98.2,1.99.24,2.97.42.31.06.62.13.92.22.16.07.59.12.5.37-.03.08-.13.12-.21.09Z"/>
      <path class="cls-8" d="M49.76,34.98c-.54-.34-1.05-.73-1.65-.96-1.27-.5-2.58-.87-3.9-1.21-.33-.09-.66-.18-.98-.3-.62-.24-1.22-.55-1.76-.96-.83-.61-1.52-1.37-2.29-2.05-.49-.43-1.02-.85-1.67-.99-.16-.04-.33-.07-.49-.09-.16-.04-.44.04-.45-.2,0-.09.08-.16.17-.15.62.03,1.24.18,1.76.5.84.55,1.53,1.3,2.27,1.98.96.91,2.13,1.62,3.43,1.92,1.48.4,2.97.78,4.38,1.4.46.22.88.52,1.3.8.18.09.07.37-.13.3h0Z"/>
      <path class="cls-8" d="M50.47,68.48c-.03-.08.02-.18.1-.21.37-.12.74-.25,1.09-.39.63-.26,1.24-.55,1.84-.86,1.03-.53,2.07-1.06,3-1.77,1.71-1.26,3.09-2.95,3.72-5,0,0,0,0,0,0,0,0,0,0,0,0,.17-.57.27-1.16.29-1.76,0-.18,0-.35-.02-.53,0-.17-.11-.47.13-.5.09,0,.17.07.17.15.01.26.05.53.05.79,0,1.73-.74,3.36-1.73,4.74-.83,1.12-1.92,2.05-3.07,2.83-.87.57-1.81,1.03-2.74,1.51-.84.42-1.71.81-2.61,1.08-.08.03-.18-.02-.21-.1Z"/>
      <path class="cls-8" d="M50.07,68.53c-.05-.21.21-.22.35-.26.06-.02.12-.03.18-.05.03-.03.07-.04.11-.04.18,0,.22.24.07.32-.16.08-.34.1-.51.14-.08.02-.18-.03-.2-.11Z"/>
      <path class="cls-8" d="M64.02,72.37c-2.31-.12-4.6-.43-6.89-.81-1.73-.27-7.18-1.13-7.89-2.7-.09-.18-.08-.4.01-.58.04-.11.21-.14.28-.04.1.12-.05.25-.03.38.15.51.7.75,1.13.98,1.83.8,3.81,1.2,5.77,1.52,1.83.29,3.66.6,5.5.77,1.86.19,3.7.24,5.56.17,1.13-.04,2.24-.14,3.33-.38,1.19-.25,2.36-.61,3.47-1.12,1.1-.5,2.17-1.07,3.16-1.76,1.49-1.06,2.82-2.33,3.99-3.74.56-.65,1.05-1.36,1.51-2.08.67-1.06,1.28-2.16,1.71-3.33.26-.69.5-1.35.69-2.06.31-1.27.5-2.58.5-3.88-.03-1.24-.28-2.47-.59-3.66-.4-1.53-1.06-2.98-1.83-4.33-.65-1.06-1.45-2.03-2.31-2.92-.06-.06-.07-.17,0-.23.06-.06.17-.07.23,0,.92.95,1.76,1.98,2.44,3.12.54.94.98,1.94,1.38,2.96.39,1.05.64,2.15.84,3.24.18,1.1.24,2.22.1,3.33-.15,1.52-.52,3-1.08,4.42-.26.72-.57,1.42-.94,2.08-1.63,3.03-3.98,5.68-6.83,7.62-2.25,1.46-4.8,2.49-7.47,2.88-1.91.25-3.84.26-5.76.18Z"/>
      <path class="cls-8" d="M85.89,51.62c-.06-.07-.05-.17.02-.23.47-.39.93-.79,1.35-1.21.54-.53,1.04-1.11,1.5-1.71,1.74-2.2,2.53-5.26,1.58-7.96-.38-1.08-1.11-2.03-2-2.75-.53-.41-1.13-.7-1.74-.97-1.12-.47-2.33-.8-3.55-.78-.89-.02-1.78.11-2.61.45-.34.14-.67.32-.98.51-.16.14-.37-.1-.21-.25.52-.35,1.11-.62,1.71-.79.67-.2,1.37-.26,2.07-.25,1.13-.02,2.26.25,3.31.65.82.33,1.64.69,2.32,1.26,1.18.98,2.02,2.37,2.28,3.89.4,1.9-.04,3.91-.9,5.62-.54,1.01-1.26,1.91-2.03,2.76-.45.49-.93.95-1.43,1.38-.15.13-.3.25-.45.38-.07.06-.17.05-.23-.02Z"/>
      <path class="cls-8" d="M85.85,52.85c-.04-.08-.01-.18.07-.22.18-.09.36-.18.54-.29.61-.4,1.2-.86,1.72-1.38,1.27-1.4,2.4-2.97,3.13-4.72.4-1.06.52-2.19.52-3.31-.03-.7-.14-1.38-.28-2.07-.25-1.32-.9-2.57-1.87-3.5-1.02-.91-2.25-1.6-3.57-1.95-1.08-.23-2.19-.33-3.29-.29-.82.04-1.65.12-2.43.37-.42.13-.83.3-1.22.49-.1.04-.19.12-.31.13-.17,0-.23-.26-.04-.32.66-.34,1.35-.61,2.07-.77.74-.16,1.5-.22,2.25-.23,1.12-.02,2.25.1,3.34.38.95.29,1.84.75,2.65,1.33,1.55,1.05,2.53,2.78,2.81,4.61.21,1.03.3,2.09.16,3.13-.07.73-.21,1.45-.48,2.13-.43,1.05-1.01,2.03-1.68,2.95-.53.72-1.08,1.44-1.72,2.07-.38.36-.79.68-1.21.98-.29.21-.6.39-.92.55-.08.04-.18.01-.22-.07Z"/>
      <path class="cls-8" d="M77.47,38.56c-.32-.19-.6-.45-.86-.72-.17-.18-.35-.42-.29-.68.12-.36.41-.64.58-.98.17-.3.29-.61.38-.94.02-.08.04-.2.13-.23.13-.06.28.09.21.22-.08.29-.17.57-.3.84-.13.28-.29.54-.46.79-.21.32-.34.41-.04.74.21.23.46.45.71.63.07.06.15.08.23.03.56-.36,1.03-1.09,1.18-1.73.03-.14.23-.16.3-.04.06.13-.03.28-.06.4-.16.52-1.07,1.99-1.71,1.68Z"/>
      <path class="cls-8" d="M63.06,89.32c-.35-.79-.87-1.48-1.39-2.16-1.36-1.67-3.03-3.04-4.91-4.09-1.78-.97-3.74-1.69-5.25-3.08-1.33-1.25-2.18-3.03-2.25-4.86-.08-1,.18-1.99.63-2.88.37-.69.81-1.37,1.41-1.87.12-.1.26-.19.39-.28.07-.06.17-.06.23,0,.06.06.06.17-.01.23-.03.02-.06.05-.09.07-.24.16-.44.32-.63.53-.56.61-.98,1.32-1.28,2.08-.37.89-.4,1.84-.27,2.78.07.6.28,1.17.5,1.73.23.55.57,1.04.92,1.52.96,1.21,2.34,1.99,3.69,2.67.72.35,1.45.69,2.16,1.09,1.39.77,2.7,1.75,3.83,2.88.57.55,1.09,1.16,1.56,1.8.4.54.78,1.1,1.05,1.72.04.08,0,.18-.07.22-.08.04-.18,0-.22-.07Z"/>
      <path class="cls-8" d="M62.52,90.54c-.3-.89-.8-1.73-1.38-2.46-1.03-1.33-2.29-2.5-3.76-3.31-1.09-.58-2.22-1.09-3.33-1.62-1.14-.56-2.33-1.1-3.27-1.97-.47-.45-.91-.93-1.27-1.47-.36-.55-.64-1.14-.9-1.73-.77-1.74-.8-3.97.06-5.68.39-.73.89-1.4,1.44-2.01.13-.14.27-.29.42-.42.11-.11.29-.22.4-.04.05.1-.02.22-.12.23-.12.09-.22.2-.32.3-.56.59-1.05,1.25-1.46,1.96-.87,1.6-.86,3.76-.16,5.42.28.64.58,1.29.97,1.87.47.66,1.03,1.26,1.67,1.75,1.01.73,2.15,1.24,3.27,1.77,1.11.54,2.27,1.02,3.31,1.68,1.75,1.13,3.25,2.7,4.27,4.53.18.35.34.71.47,1.09.03.08-.02.18-.1.21-.08.03-.18-.02-.21-.1Z"/>
      <path class="cls-8" d="M74.66,70.58c-.06-.07-.04-.17.03-.23.03-.03.06-.05.08-.07.35-.31.68-.65.97-.99,2.94-3.54,4.97-7.93,5.37-12.54.04-.43.04-.86,0-1.29-.02-.21-.05-.43-.07-.64-.01-.09.05-.17.14-.18.22-.01.18.21.21.36.08.6.1,1.22.03,1.82-.33,3.78-1.75,7.42-3.86,10.56-.5.75-1.02,1.49-1.62,2.16-.33.38-.69.74-1.07,1.06-.07.06-.18.04-.23-.03Z"/>
      <path class="cls-8" d="M80.52,53.19c-.08-.2-.17-.4-.27-.6-.06-.12-.18-.29-.03-.38.07-.04.18-.02.22.06.14.26.26.52.37.79.08.2-.21.32-.3.13Z"/>
      <path class="cls-8" d="M80.08,66.76c-.07-.06-.08-.16-.03-.23.26-.35.52-.7.77-1.07.7-1.03,1.2-2.2,1.62-3.37.46-1.43.86-2.9,1-4.39.03-.21.34-.18.32.04-.09,1.09-.35,2.15-.63,3.2-.53,1.97-1.35,3.88-2.61,5.49-.12.13-.23.46-.44.32Z"/>
      <path class="cls-8" d="M69.07,63.23c-.72-.09-1.46-.18-2.16-.39-.2-.09-.07-.39.13-.3.88.23,1.78.38,2.69.4.81-.01,1.61-.2,2.39-.42.2-.05.29.25.09.31-1.01.29-2.08.53-3.14.4Z"/>
      <path class="cls-8" d="M73.35,62.27c-.03-.08,0-.18.09-.21.2-.09.4-.18.6-.27.14-.06.34-.25.46-.07.04.08.02.18-.06.22-.15.09-.32.17-.48.24-.17.05-.5.33-.61.09Z"/>
      <path class="cls-8" d="M51.87,70.25c-.13-.13-.03-.28.13-.3.28-.07.55-.15.82-.25.67-.25,1.29-.53,1.93-.85.83-.44,1.63-.95,2.37-1.54,2.07-1.59,3.9-3.61,4.84-6.08.26-.63.42-1.3.5-1.97.03-.15-.02-.39.19-.39.09,0,.16.08.15.17-.06.64-.18,1.27-.39,1.87-.89,2.64-2.78,4.83-4.95,6.52-1.14.92-2.4,1.68-3.75,2.24-.54.24-1.11.44-1.69.58h0s0,0,0,0c.02,0,.04-.02.05-.04-.02.02-.04.03-.06.04,0,0,0,0,0,0-.06.02-.12.02-.17-.03Z"/>
      <path class="cls-8" d="M62.75,70.73c-.97-.06-1.97-.13-2.93-.28-1.68-.29-3.33-.7-4.98-1.11-.08-.02-.15-.03-.23-.05-.19-.07-.1-.37.11-.31,1.71.41,3.41.84,5.14,1.15.97.15,1.94.22,2.92.28.21.02.19.34-.03.32Z"/>
      <path class="cls-8" d="M60.27,68.48c-.69-.1-1.36-.24-2.03-.43-.38-.11-.79-.18-1.15-.36-.18-.17.04-.4.23-.25.55.19,1.15.34,1.71.47.43.1.86.18,1.29.24.21.04.16.35-.05.32Z"/>
      <path class="cls-8" d="M70.07,45.48c-.2-.05-.17-.29.01-.34.39-.16.8-.28,1.21-.4.86-.24,1.76-.27,2.65-.25.71,0,1.43.07,2.12.25.2.06.12.37-.09.31-.38-.1-.79-.18-1.18-.21-.96-.06-1.94-.07-2.9.09-.58.12-1.15.29-1.7.51-.04.03-.08.04-.13.04Z"/>
      <path class="cls-8" d="M73.42,69.65c-.11-.14.04-.25.13-.34.42-.4.83-.82,1.2-1.26.55-.71.99-1.51,1.34-2.34.1-.19.38-.04.29.15-.49,1.18-1.17,2.28-2.09,3.17-.18.18-.35.35-.53.53-.1.1-.21.22-.34.09Z"/>
      <path class="cls-8" d="M8.76,34.78c-.08-.01-.16-.1-.14-.18.26-1.39.6-2.77,1.27-4.03.34-.65.68-1.3,1.16-1.86.14-.16.39.03.26.2-.05.06-.1.12-.15.19-.85,1.21-1.51,2.56-1.87,4-.1.4-.19.81-.27,1.21-.06.16,0,.49-.25.48Z"/>
      <path class="cls-8" d="M8.42,37.27c-.04-.37-.05-.75-.05-1.12,0-.21.32-.21.33,0,0,.36,0,.73.04,1.08.02.21-.29.26-.32.04Z"/>
      <path class="cls-8" d="M70.29,28.16c-.78-.74-1.74-1.24-2.77-1.53-.17-.05-.33-.11-.49-.18-.04-.02-.07-.05-.09-.09-.06-.13.09-.28.21-.21.23.11.48.18.72.25.49.15.97.36,1.42.61.45.25.85.57,1.22.91.07.06.06.17,0,.23-.06.06-.16.06-.23,0Z"/>
      <path class="cls-8" d="M91.17,49.58c-.08-.05-.1-.15-.06-.22.11-.2.21-.4.31-.59.22-.43.42-.87.6-1.32.59-1.5.92-3.09.85-4.7,0-.21.32-.22.33,0,.07,1.74-.31,3.48-.98,5.08-.14.32-.29.63-.44.94-.13.26-.26.51-.4.76-.04.08-.15.1-.22.06Z"/>
      <path class="cls-8" d="M89.3,52.01c-.06-.06-.06-.17,0-.23.14-.14.27-.28.38-.4.14-.16.28-.33.4-.5.05-.1.15-.19.26-.12.08.04.1.15.06.22-.11.18-.24.34-.37.5-.16.19-.33.36-.5.54-.06.06-.17.06-.23,0Z"/>
      <path class="cls-8" d="M44.58,68.1c-.63-.34-1.22-.73-1.8-1.15-.8-.58-1.53-1.25-2.36-1.77-.46-.28-.96-.51-1.47-.69-.19-.1-.05-.38.15-.29.65.23,1.27.54,1.83.92.57.39,1.1.84,1.65,1.27.68.53,1.4,1.01,2.16,1.42.19.1.04.39-.15.29Z"/>
      <path class="cls-8" d="M51.39,58.41c-.06-.1,0-.2.09-.25.11-.11.2-.23.28-.36.4-.69.68-1.42.9-2.17.07-.2.38-.09.31.11-.2.67-.45,1.32-.77,1.94-.1.19-.56,1.06-.8.73Z"/>
      <path class="cls-8" d="M67.52,45.04c-.42-.24-.88-.39-1.36-.46-.21.04-.31-.22-.11-.32.11-.03.24.01.35.03.45.09.89.25,1.29.48.18.12,0,.39-.18.27Z"/>
      <path class="cls-8" d="M76.42,56.39c-.11-.07-.08-.2-.02-.28.12-.22.22-.44.32-.67.06-.15.11-.29.15-.45.01-.04.02-.09.03-.13.01-.09.1-.15.19-.13.09.02.14.1.13.19-.04.23-.12.45-.21.67-.11.26-.23.51-.37.75-.04.08-.15.1-.23.05Z"/>
      <path class="cls-8" d="M53.8,84.56c-.96-.43-1.93-.87-2.78-1.49-.62-.48-1.18-1.04-1.72-1.6-.1-.1,0-.28.14-.27.1,0,.15.11.22.17.65.67,1.31,1.34,2.11,1.82.6.34,1.22.66,1.85.94.11.05.22.1.33.14.19.1.05.39-.15.29Z"/>
      <path class="cls-8" d="M56.38,85.7c-.33-.22-.69-.39-1.01-.62-.15-.15.06-.38.22-.24.32.21.66.38.98.59.08.05.09.16.04.23-.05.08-.15.09-.23.04Z"/>
    </g>
  </g>
</svg>