<?xml version="1.0" encoding="UTF-8"?>
<svg xmlns="http://www.w3.org/2000/svg" xmlns:xlink="http://www.w3.org/1999/xlink" viewBox="0 0 100 100">
  <defs>
    <style>
      .cls-1, .cls-2, .cls-3, .cls-4, .cls-5, .cls-6, .cls-7, .cls-8, .cls-9 {
        mix-blend-mode: multiply;
      }

      .cls-1, .cls-10, .cls-11 {
        fill: #f6d2ae;
      }

      .cls-12, .cls-5 {
        fill: #f9d0c1;
      }

      .cls-13 {
        fill: #f8eeea;
      }

      .cls-14 {
        fill: #ce8873;
      }

      .cls-2 {
        fill: url(#radial-gradient);
      }

      .cls-2, .cls-9 {
        opacity: .52;
      }

      .cls-15 {
        fill: #fff;
      }

      .cls-3 {
        fill: #95e4f0;
      }

      .cls-16 {
        fill: #b37652;
      }

      .cls-17 {
        fill: #b6e2e9;
      }

      .cls-18 {
        isolation: isolate;
      }

      .cls-19 {
        fill: #799cb0;
      }

      .cls-20 {
        fill: #fd8f7a;
      }

      .cls-21, .cls-6 {
        fill: #a3d1eb;
      }

      .cls-4 {
        fill: #a19d9e;
        opacity: .47;
      }

      .cls-11, .cls-22 {
        mix-blend-mode: screen;
      }

      .cls-22, .cls-8, .cls-23 {
        fill: #e6e7e8;
      }

      .cls-24 {
        fill: #c2bcbc;
      }

      .cls-25 {
        fill: #b5dbf1;
      }

      .cls-5 {
        opacity: .65;
      }

      .cls-7 {
        fill: #c0c7cc;
        opacity: .46;
      }

      .cls-9 {
        fill: url(#radial-gradient-2);
      }
    </style>
    <radialGradient id="radial-gradient" cx="35.01" cy="43.35" fx="35.01" fy="43.35" r="10.84" gradientUnits="userSpaceOnUse">
      <stop offset="0" stop-color="#ed1c24"/>
      <stop offset=".24" stop-color="#ed1e26"/>
      <stop offset=".38" stop-color="#ed262e"/>
      <stop offset=".5" stop-color="#ee343c"/>
      <stop offset=".6" stop-color="#f0494f"/>
      <stop offset=".69" stop-color="#f26368"/>
      <stop offset=".78" stop-color="#f58387"/>
      <stop offset=".86" stop-color="#f8a9ac"/>
      <stop offset=".94" stop-color="#fbd4d5"/>
      <stop offset="1" stop-color="#fff"/>
    </radialGradient>
    <radialGradient id="radial-gradient-2" cx="32.46" cy="44.67" fx="32.46" fy="44.67" r="5.57" gradientUnits="userSpaceOnUse">
      <stop offset="0" stop-color="#ed1c24"/>
      <stop offset=".38" stop-color="#ed1d25"/>
      <stop offset=".52" stop-color="#ed242c"/>
      <stop offset=".62" stop-color="#ee3037"/>
      <stop offset=".7" stop-color="#ef4148"/>
      <stop offset=".76" stop-color="#f1575d"/>
      <stop offset=".82" stop-color="#f37277"/>
      <stop offset=".88" stop-color="#f69396"/>
      <stop offset=".93" stop-color="#f9b8bb"/>
      <stop offset=".97" stop-color="#fce1e2"/>
      <stop offset="1" stop-color="#fff"/>
    </radialGradient>
  </defs>
  <g class="cls-18">
    <g id="Layer_1" data-name="Layer 1">
      <g>
        <circle class="cls-15" cx="50" cy="50" r="50"/>
        <g>
          <g>
            <path class="cls-14" d="M37.1,10.23c-.74,1.07-1.47,2.15-2.17,3.25-.94,1.48-1.84,2.98-2.71,4.49-1.75,3.03-3.4,6.12-4.99,9.23-.8,1.56-1.53,3.16-2.28,4.75-.71,1.53-1.52,3.03-2.14,4.61-.59,1.49-1.02,3.05-1.22,4.64-.11.83-.13,1.66-.06,2.49.07.87.23,1.74.4,2.6.26,1.34.64,2.67,1.12,3.95.36.97.77,1.95,1.3,2.86.16.36.32.72.49,1.08.3.65.58,1.32.77,2.01.21.8.41,1.6.65,2.39.47,1.6.98,3.17,1.46,4.77.48,1.6.88,3.22,1.3,4.84.85,3.26,1.69,6.52,2.57,9.78.87,3.25,1.8,6.48,2.8,9.7.68,2.2,1.36,4.4,1.99,6.62l24.09.02c-.15-1.71-.15-3.44-.16-5.15,0-1.72-.07-3.43-.16-5.15-.1-2-.16-4-.24-6-.08-2-.18-3.99-.35-5.98-.17-2.01-.41-4.01-.66-6-.25-2-.52-4-.81-5.99-.28-1.94-.58-3.86-1.05-5.77-.57-2.36-1.31-4.68-2.11-6.98-.17-1.28-.51-2.54-.65-3.83-.08-.76-.08-1.53.04-2.29.12-.74.35-1.47.61-2.17.53-1.4,1.26-2.71,1.98-4.01.76-1.38,1.55-2.74,2.38-4.08,1.58-2.57,3.3-5.04,5.05-7.5,1.69-2.38,3.39-4.76,4.98-7.22,1.22-1.9,2.39-3.86,3.37-5.9l-35.58-.03Z"/>
            <path class="cls-15" d="M72.51,10.14s0-.02.01-.03c-.28.01-.56.02-.84.03h.82Z"/>
            <path class="cls-15" d="M69.62,10.14c-.3,0-.59,0-.89,0-1.36,0-2.71,0-4.07,0-4.81,0-9.63,0-14.44-.01-2.42,0-4.84,0-7.26,0-1.21,0-2.42,0-3.63-.01-.67,0-1.34,0-2.01,0,0,0-.01.02-.02.03l32.31.02Z"/>
            <path class="cls-12" d="M37.24,10.23s0,0,0,0c-1.86,2.89-3.64,5.83-5.33,8.83-1.69,3-3.32,6.04-4.84,9.12-.78,1.59-1.51,3.2-2.26,4.81-.7,1.48-1.46,2.92-1.99,4.47-.52,1.51-.89,3.09-.98,4.69-.05.9.04,1.79.18,2.67.11.73.24,1.45.4,2.17.3,1.33.7,2.64,1.21,3.91-.02-.1-.03-.2-.04-.3.06.17.12.35.18.52.1.28.2.55.31.82.11.27.24.52.37.78.27.54.54,1.09.79,1.64.23.51.45,1.04.65,1.56.13.45.24.91.37,1.37.22.79.46,1.58.7,2.36.49,1.59,1.01,3.16,1.46,4.77.45,1.61.84,3.24,1.25,4.87.82,3.26,1.65,6.51,2.53,9.75.88,3.23,1.84,6.44,2.83,9.64.5,1.62,1,3.24,1.47,4.86.07.23.14.47.2.7l23.35.02c-.17-2.03-.12-4.1-.13-6.1-.01-1.81-.14-3.6-.22-5.41-.09-2-.15-4-.24-6-.19-4.06-.61-8.09-1.13-12.12-.5-3.88-.97-7.79-1.99-11.58-.38-1.42-.82-2.82-1.27-4.22-.03-.16-.04-.32-.08-.47-.4-1.3-.41-1.85-.7-2.93-.1-.37-.13-1.11-.28-1.46-.07-.5-.12-1.01-.12-1.53,0-1.49.47-2.95,1.06-4.31.6-1.37,1.34-2.69,2.07-3.99.77-1.37,1.58-2.73,2.41-4.06,1.61-2.56,3.35-5.02,5.1-7.48,1.71-2.4,3.42-4.8,5-7.3,1.05-1.65,2.03-3.34,2.93-5.07l-35.21-.03Z"/>
            <path class="cls-12" d="M37.24,10.23s0,0,0,0c-1.86,2.89-3.64,5.83-5.33,8.83-1.69,3-3.32,6.04-4.84,9.12-.78,1.59-1.51,3.2-2.26,4.81-.7,1.48-1.46,2.92-1.99,4.47-.52,1.51-.89,3.09-.98,4.69-.05.9.04,1.79.18,2.67.11.73.24,1.45.4,2.17.3,1.33.7,2.64,1.21,3.91-.02-.1-.03-.2-.04-.3.06.17.12.35.18.52.1.28.2.55.31.82.11.27.24.52.37.78.27.54.54,1.09.79,1.64.23.51.45,1.04.65,1.56.13.45.24.91.37,1.37.22.79.46,1.58.7,2.36.49,1.59,1.01,3.16,1.46,4.77.45,1.61.84,3.24,1.25,4.87.82,3.26,1.65,6.51,2.53,9.75.88,3.23,1.84,6.44,2.83,9.64.5,1.62,1,3.24,1.47,4.86.07.23.14.47.2.7l23.35.02c-.17-2.03-.12-4.1-.13-6.1-.01-1.81-.14-3.6-.22-5.41-.09-2-.15-4-.24-6-.19-4.06-.61-8.09-1.13-12.12-.5-3.88-.97-7.79-1.99-11.58-.38-1.42-.82-2.82-1.27-4.22-.03-.16-.04-.32-.08-.47-.4-1.3-.41-1.85-.7-2.93-.1-.37-.13-1.11-.28-1.46-.07-.5-.12-1.01-.12-1.53,0-1.49.47-2.95,1.06-4.31.6-1.37,1.34-2.69,2.07-3.99.77-1.37,1.58-2.73,2.41-4.06,1.61-2.56,3.35-5.02,5.1-7.48,1.71-2.4,3.42-4.8,5-7.3,1.05-1.65,2.03-3.34,2.93-5.07l-35.21-.03Z"/>
            <path class="cls-5" d="M59.9,88.19c-.01-1.81-.14-3.6-.22-5.41-.09-2-.15-4-.24-6-.19-4.06-.61-8.09-1.13-12.12-.31-2.37-.6-4.76-1.02-7.11-.07.26-.15.52-.23.78,0,.03-.02.06-.03.09.01.24.03.47.04.71.17,2.66.36,5.36-.01,8.01-.31,2.2-1.08,4.29-2.22,6.19-1.15,1.91-2.64,3.62-4.42,4.97-1.71,1.3-3.71,2.25-5.85,2.57-1.77.27-3.58.02-5.26-.61-1.77-.67-3.38-1.73-4.81-2.96-1.47-1.27-2.77-2.74-3.91-4.31.52,2.03,1.05,4.05,1.6,6.07.88,3.23,1.84,6.44,2.83,9.64.5,1.62,1,3.24,1.47,4.86.07.23.14.47.2.7l23.35.02c-.17-2.03-.12-4.1-.13-6.1Z"/>
            <path class="cls-5" d="M38.63,86.67c-.98-2.93-1.99-5.84-3.01-8.75-2.01-5.78-4.1-11.52-6.11-17.3-.01-.04.02-.08.06-.08.98,0,1.95.18,2.93.15.47-.02,1.11-.06,1.51-.35.3-.22.02-.37-.18-.57-.18-.19-.37-.37-.56-.55-1.49-1.39-3.17-2.55-4.65-3.95-1.4-1.32-2.49-2.83-3.22-4.62-.76-1.86-1.11-3.84-1.05-5.85.06-2.07.53-4.14,1.01-6.14.5-2.13,1.14-4.23,1.87-6.29,2.76-7.79,6.85-15.02,10.99-22.15h-.98s0,0,0,0c-1.86,2.89-3.64,5.83-5.33,8.83-1.69,3-3.32,6.04-4.84,9.12-.78,1.59-1.51,3.2-2.26,4.81-.7,1.48-1.46,2.92-1.99,4.47-.52,1.51-.89,3.09-.98,4.69-.05.9.04,1.79.18,2.67.11.73.24,1.45.4,2.17.3,1.33.7,2.64,1.21,3.91-.02-.1-.03-.2-.04-.3.06.17.12.35.18.52.1.28.2.55.31.82.11.27.24.52.37.78.27.54.54,1.09.79,1.64.23.51.45,1.04.65,1.56.13.45.24.91.37,1.37.22.79.46,1.58.7,2.36.49,1.59,1.01,3.16,1.46,4.77.45,1.61.84,3.24,1.25,4.87.82,3.26,1.65,6.51,2.53,9.75.88,3.23,1.84,6.44,2.83,9.64.5,1.62,1,3.24,1.47,4.86.07.23.14.47.2.7h4.28c-.62-2.58-1.49-5.08-2.33-7.6Z"/>
            <path class="cls-5" d="M66.68,10.25c-.04.06-.09.11-.13.16-4,5.18-7.02,11.04-10.23,16.72-1.63,2.88-3.38,5.73-4.58,8.83-.62,1.59-1.12,3.27-1.25,4.98-.13,1.75,0,3.51.28,5.23.56,3.41,1.68,6.7,2.56,10.04.91,3.48,1.57,7.02,2.09,10.58,1.06,7.17,1.76,14.41,2.27,21.64.14,1.95.18,3.9.26,5.85h2.07c-.17-2.03-.12-4.09-.13-6.1-.01-1.81-.14-3.6-.22-5.41-.09-2-.15-4-.24-6-.19-4.06-.61-8.09-1.13-12.12-.5-3.88-.97-7.79-1.99-11.58-.38-1.42-.82-2.82-1.27-4.22-.03-.16-.04-.32-.08-.47-.4-1.3-.41-1.85-.7-2.93-.1-.37-.13-1.11-.28-1.46-.07-.5-.12-1.01-.12-1.53,0-1.49.47-2.95,1.06-4.31.6-1.37,1.34-2.69,2.07-3.99.77-1.37,1.58-2.73,2.41-4.06,1.61-2.56,3.35-5.02,5.1-7.48,1.71-2.4,3.42-4.8,5-7.3,1.05-1.65,2.03-3.34,2.93-5.07h-5.76Z"/>
          </g>
          <g>
            <path class="cls-17" d="M49.5,40.61c-.52-.49-1.08-.93-1.61-1.41-.53-.48-1.02-1-1.47-1.56-.43-.52-.82-1.07-1.19-1.64-.41-.63-.77-1.29-1.18-1.93-.9-1.4-1.96-2.68-2.96-4.01-.37-.49-.74-1-1.02-1.55-.09-.18-.18-.38-.24-.58-.03.06-.14.03-.11-.04.02-.06.04-.12.06-.18-.04-.24-.03-.49.08-.72.04-.07.14,0,.1.06-.06.11-.08.22-.09.34.01-.05.03-.09.04-.14.11-.42.74-2.84-.36-2.37-.36.15-.67.44-.96.71-.34.32-.66.67-.96,1.03-.65.79-1.21,1.66-1.73,2.55-.99,1.69-1.81,3.48-2.76,5.19-1.14,2.06-2.07,4.24-2.75,6.49-.67,2.22-1.13,4.56-1.05,6.89.09,2.33.73,4.62,1.7,6.73.48,1.05,1.04,2.05,1.65,3.03.53.84,1,1.71,1.62,2.48.54.68,1.27,1.39,2.15,1.56.53.1,1.04-.11,1.44-.44.5-.41.87-.96,1.2-1.5.38-.63.71-1.29,1.03-1.95.31-.64.61-1.29.96-1.92.08-.14.16-.29.25-.43.01-.09.03-.18.05-.27.24-.94.99-1.67,1.75-2.22.89-.64,1.89-1.12,2.91-1.52.46-.18.92-.34,1.38-.49.46-.14.92-.28,1.37-.46.55-.22,1.02-.63.96-1.28-.05-.6-.51-1.1-.46-1.73.04-.57.32-1.12.59-1.61.28-.49.59-.96.78-1.48.22-.62.22-1.29,0-1.91-.23-.67-.68-1.23-1.18-1.71Z"/>
            <path class="cls-3" d="M50.68,42.32c-.23-.67-.68-1.23-1.18-1.71-.52-.49-1.08-.93-1.61-1.41-.53-.48-1.02-1-1.47-1.56-.43-.52-.82-1.07-1.19-1.64-.41-.63-.77-1.29-1.18-1.93-.9-1.4-1.96-2.68-2.96-4.01-.37-.49-.74-1-1.02-1.55-.09-.18-.18-.38-.24-.58-.03.06-.14.03-.11-.04.02-.06.04-.12.06-.18-.04-.24-.03-.49.08-.72.04-.07.14,0,.1.06-.06.11-.08.22-.09.34.01-.05.03-.09.04-.14.11-.42.74-2.84-.36-2.37-.36.15-.67.44-.96.71-.34.32-.66.67-.96,1.03-.65.79-1.21,1.66-1.73,2.55-.99,1.69-1.81,3.48-2.76,5.19-.71,1.27-1.33,2.59-1.86,3.94,0,.35,0,.71.05,1.06.07.58.22,1.18.48,1.7.26.51.61.98,1.01,1.39.39.42.82.79,1.27,1.14.23.18.46.35.72.49.25.14.5.26.76.38.52.23,1.05.43,1.56.68.4.2.91.45,1.1.89.32.73-.56,1.38-1.06,1.75-.36.27-.74.5-1.09.78-.44.36-.83.76-1.2,1.19-.72.86-1.31,1.82-2,2.71-.26.34-.55.65-.94.85-.3.16-.63.24-.97.2-.15-.02-.28-.06-.4-.13.14.36.29.72.46,1.07.48,1.05,1.04,2.05,1.65,3.03.53.84,1,1.71,1.62,2.48.54.68,1.27,1.39,2.15,1.56.53.1,1.04-.11,1.44-.44.5-.41.87-.96,1.2-1.5.38-.63.71-1.29,1.03-1.95.31-.64.61-1.29.96-1.92.08-.14.16-.29.25-.43.01-.09.03-.18.05-.27.24-.94.99-1.67,1.75-2.22.89-.64,1.89-1.12,2.91-1.52.46-.18.92-.34,1.38-.49.46-.14.92-.28,1.37-.46.55-.22,1.02-.63.96-1.28-.05-.6-.51-1.1-.46-1.73.04-.57.32-1.12.59-1.61.28-.49.59-.96.78-1.48.22-.62.22-1.29,0-1.91Z"/>
            <g>
              <g>
                <path class="cls-24" d="M47.52,10.24c-.25.54-.5,1.08-.73,1.62-.35.81-.66,1.63-1.02,2.43-.37.82-.8,1.6-1.23,2.38-.43.76-.87,1.51-1.28,2.28-.42.77-.78,1.57-1.16,2.37-.76,1.63-1.63,3.2-2.44,4.8-.82,1.61-1.6,3.25-2.48,4.83-.83,1.5-1.86,2.87-2.84,4.27-.84,1.2-1.66,2.49-1.66,4.02,0,1.33.69,2.64,1.75,3.43,1.01.76,2.23,1.01,3.44,1.28,1.29.29,2.49.84,3.71,1.33,1.15.47,2.35.9,3.61.96,1.34.07,2.67-.31,3.8-1.03.66-.42,1.26-.96,1.73-1.58.03-.05.07-.11.1-.16.15-.25.25-.51.34-.79.08-.27.14-.54.19-.82-.01.04-.02.08-.04.12,0-.07.02-.13.02-.2.06-.56,0-1.12-.12-1.66-.3-1.23-.97-2.32-1.56-3.42-.3-.56-.58-1.12-.79-1.72-.22-.64-.33-1.3-.34-1.98,0-.64.08-1.28.19-1.91.04-.37.08-.75.15-1.12.2-1.21.53-2.39.93-3.55.26-.74.54-1.47.85-2.19.12-.38.24-.77.38-1.15.6-1.69,1.33-3.34,2.06-4.98.72-1.61,1.43-3.23,2.27-4.78.56-1.03,1.17-2.04,1.77-3.05h-9.62Z"/>
                <path class="cls-13" d="M47.75,10.24c-.59,1.33-1.12,2.68-1.71,4.01-.7,1.58-1.63,3.05-2.45,4.57-.83,1.53-1.48,3.14-2.3,4.67-.84,1.57-1.64,3.17-2.44,4.76-.78,1.53-1.54,3.07-2.5,4.5-.46.7-.95,1.38-1.44,2.06-.46.65-.95,1.29-1.32,2-.33.63-.56,1.31-.62,2.02-.06.75.12,1.48.46,2.14.57,1.12,1.59,1.84,2.76,2.24.61.21,1.24.32,1.87.47.62.15,1.23.35,1.82.58,1.17.45,2.31,1,3.52,1.36,1.24.37,2.54.49,3.8.12,1.32-.39,2.53-1.21,3.35-2.33.03-.05.07-.09.1-.14-.03-.02-.04-.05,0-.1.18-.24.28-.52.33-.81.06-.31.09-.62.08-.94,0-.65-.14-1.29-.36-1.89-.44-1.19-1.15-2.24-1.7-3.38-.27-.56-.5-1.14-.64-1.75-.15-.68-.17-1.37-.12-2.06.06-.72.19-1.43.34-2.13.14-.69.28-1.38.45-2.07.17-.69.37-1.37.61-2.05.16-.47.34-.93.57-1.37.44-1.5,1.01-2.95,1.61-4.39.69-1.63,1.42-3.25,2.16-4.85.84-1.82,1.86-3.54,2.88-5.26h-9.11Z"/>
                <path class="cls-7" d="M55.59,10.24c-.93,1.35-1.77,2.76-2.56,4.2-1.62,2.97-2.97,6.07-4.25,9.2-.64,1.57-1.35,3.12-1.83,4.75-.24.82-.43,1.68-.44,2.54,0,.88.15,1.75.27,2.61,0,.07-.08.07-.11.03-.59-.79-1.51-1.15-2.47-1.19.12.12.23.24.35.37.52.58.97,1.23,1.28,1.94.31.71.47,1.47.53,2.24.06.79.04,1.62-.25,2.37-.29.76-.87,1.33-1.65,1.58-.92.29-1.86.1-2.74-.23-.94-.35-2-.94-3.04-.65-.21.06-.41.15-.62.22-.23.08-.46.14-.7.18-.3.05-.58.05-.86-.01,0,.03-.03.06-.07.04-.16-.06-.31-.13-.45-.22-.49-.23-.85-.63-1.02-1.15,0-.02-.01-.05-.02-.08-.14-.3-.23-.61-.28-.93-.06-.4-.05-.81.06-1.2.13-.45.36-.88.61-1.27.57-.88,1.31-1.64,1.96-2.45.32-.4.63-.81.87-1.26.31-.57.61-1.16.9-1.74,1.15-2.35,2.15-4.77,3.32-7.11.59-1.19,1.21-2.37,1.84-3.55.59-1.1,1.22-2.19,1.74-3.33.9-1.95,1.59-4.01,2.6-5.9h-.8c-.59,1.33-1.12,2.68-1.71,4.01-.7,1.58-1.63,3.05-2.45,4.57-.83,1.53-1.48,3.14-2.3,4.67-.84,1.57-1.64,3.17-2.44,4.76-.78,1.53-1.54,3.07-2.5,4.5-.46.7-.95,1.38-1.44,2.06-.46.65-.95,1.29-1.32,2-.33.63-.56,1.31-.62,2.02-.06.75.12,1.48.46,2.14.57,1.12,1.59,1.84,2.76,2.24.61.21,1.24.32,1.87.47.62.15,1.23.35,1.82.58,1.17.45,2.31,1,3.52,1.36,1.24.37,2.54.49,3.8.12,1.32-.39,2.53-1.21,3.35-2.33.03-.05.07-.09.1-.14-.03-.02-.04-.05,0-.1.18-.24.28-.52.33-.81.06-.31.09-.62.08-.94,0-.65-.14-1.29-.36-1.89-.44-1.19-1.15-2.24-1.7-3.38-.27-.56-.5-1.14-.64-1.75-.15-.68-.17-1.37-.12-2.06.06-.72.19-1.43.34-2.13.14-.69.28-1.38.45-2.07.17-.69.37-1.37.61-2.05.16-.47.34-.93.57-1.37.44-1.5,1.01-2.95,1.61-4.39.69-1.63,1.42-3.25,2.16-4.85.84-1.82,1.86-3.54,2.88-5.26h-1.26Z"/>
                <path class="cls-7" d="M49.28,36.72c.06.23.12.46.19.68.13.47.28.94.35,1.43.08.49.1.99.03,1.47-.07.48-.24.95-.5,1.37-.26.44-.6.84-1.02,1.13-.35.24-.76.38-1.19.42-.43.04-.87-.02-1.29-.13-.92-.23-1.77-.67-2.66-1.02-.54-.21-1.08-.41-1.64-.54-.29-.07-.58-.11-.87-.13-.29-.02-.59,0-.88.02-.58.05-1.15.15-1.73.17-.57.01-1.11-.08-1.65-.24-.74-.22-1.48-.59-1.92-1.24-.21-.32-.34-.68-.39-1.06-.07-.5,0-1,.07-1.49.08-.63.17-1.28.14-1.93-.27.38-.52.77-.73,1.18-.33.63-.56,1.31-.62,2.02-.06.75.12,1.48.46,2.14.57,1.12,1.59,1.84,2.76,2.24.61.21,1.24.32,1.87.47.62.15,1.23.35,1.82.58,1.17.45,2.31,1,3.52,1.36,1.24.37,2.54.49,3.8.12,1.32-.39,2.53-1.21,3.35-2.33.03-.05.07-.09.1-.14-.03-.02-.04-.05,0-.1.18-.24.28-.52.33-.81.06-.31.09-.62.08-.94,0-.65-.14-1.29-.36-1.89-.36-.99-.92-1.89-1.41-2.82Z"/>
                <path class="cls-19" d="M51.67,41c-.03-.11-.07-.22-.13-.32-.03-.04-.06-.09-.09-.12-.01-.01-.03-.03-.04-.04-.02-.03-.03-.06-.05-.1-.04-.08-.14-.06-.2,0,0,0,0,0,0,0-.07.03-.12.1-.11.16-.13.25-.11.59-.18.85-.1.42-.28.84-.53,1.2-.44.62-1.14,1.03-1.84,1.29-.77.29-1.61.42-2.43.33-.95-.09-1.86-.42-2.76-.73-.92-.31-1.86-.6-2.82-.77-.85-.15-1.72-.19-2.58-.32-.83-.13-1.65-.33-2.38-.76-.71-.42-1.29-1.04-1.57-1.82-.14-.38-.2-.78-.23-1.19-.01-.22-.01-.44,0-.67,0-.24,0-.48.05-.72.02-.1.07-.26.09-.41,0,0,0,0,0-.01-.02-.12-.07-.23-.21-.23-.18,0-.36.12-.49.24-.19.17-.34.37-.48.58-.02.06-.05.12-.07.18-.1.27-.19.55-.26.84-.03.14-.04.29-.04.44-.01.33,0,.67.03,1,.12,1.05.55,2.03,1.31,2.77.81.78,1.85,1.23,2.92,1.53.57.16,1.16.29,1.73.46.51.15,1.02.34,1.52.53,1.02.4,2.02.84,3.05,1.19,1.01.34,2.06.61,3.13.62,1.07.01,2.08-.26,3.01-.76.89-.48,1.73-1.15,2.25-2.03.51-.86.66-1.86.43-2.82.02-.02.03-.05.03-.09,0-.11-.02-.22-.05-.32Z"/>
                <path class="cls-21" d="M51.47,42.11c.03.5-.02.99-.19,1.45-.33.9-1.02,1.6-1.81,2.12-.84.56-1.77.94-2.78,1.03-1,.09-2-.08-2.96-.35-1.98-.55-3.81-1.52-5.8-2.04-1.09-.28-2.22-.5-3.21-1.07-.85-.49-1.55-1.23-1.91-2.15-.2-.52-.3-1.07-.32-1.63-.02-.38-.02-.77.08-1.14.05-.2.12-.41.19-.61.06-.09.13-.18.2-.27.08-.1.14-.18.23-.26.04-.04.09-.08.13-.12.03-.02.04-.03.05-.04.02-.02.05-.04.07-.05.07-.04.13-.07.19-.09,0,.04,0,.08-.01.11-.02.09-.05.17-.08.26-.03.11-.04.22-.05.33-.06.83-.05,1.7.25,2.48.29.76.86,1.37,1.54,1.79.7.44,1.51.66,2.32.79.83.14,1.67.18,2.5.31.98.14,1.93.42,2.87.74.89.3,1.77.63,2.7.77.83.12,1.67.05,2.47-.19.73-.21,1.44-.56,1.99-1.08.59-.56.96-1.36,1.06-2.16,0-.03,0-.06,0-.09.16.37.23.77.26,1.17Z"/>
                <path class="cls-21" d="M51.47,42.11c.03.5-.02.99-.19,1.45-.33.9-1.02,1.6-1.81,2.12-.84.56-1.77.94-2.78,1.03-1,.09-2-.08-2.96-.35-1.98-.55-3.81-1.52-5.8-2.04-1.09-.28-2.22-.5-3.21-1.07-.85-.49-1.55-1.23-1.91-2.15-.2-.52-.3-1.07-.32-1.63-.02-.38-.02-.77.08-1.14.05-.2.12-.41.19-.61.06-.09.13-.18.2-.27.08-.1.14-.18.23-.26.04-.04.09-.08.13-.12.03-.02.04-.03.05-.04.02-.02.05-.04.07-.05.07-.04.13-.07.19-.09,0,.04,0,.08-.01.11-.02.09-.05.17-.08.26-.03.11-.04.22-.05.33-.06.83-.05,1.7.25,2.48.29.76.86,1.37,1.54,1.79.7.44,1.51.66,2.32.79.83.14,1.67.18,2.5.31.98.14,1.93.42,2.87.74.89.3,1.77.63,2.7.77.83.12,1.67.05,2.47-.19.73-.21,1.44-.56,1.99-1.08.59-.56.96-1.36,1.06-2.16,0-.03,0-.06,0-.09.16.37.23.77.26,1.17Z"/>
                <path class="cls-6" d="M49.45,45.19c-.47.2-.96.36-1.46.47-.48.11-.97.21-1.47.22-1,.03-1.95-.29-2.87-.67-.97-.41-1.91-.85-2.94-1.06-1.09-.23-2.2-.29-3.3-.46-.49-.08-.97-.17-1.43-.35-.39-.15-.76-.34-1.09-.59-.69-.5-1.23-1.19-1.55-1.98-.2-.5-.29-1.04-.35-1.58-.04-.36-.05-.71-.18-1.04-.03-.09-.07-.18-.11-.27-.05.15-.1.3-.14.45-.1.37-.09.76-.08,1.14.02.56.12,1.11.32,1.63.36.93,1.06,1.66,1.91,2.15.99.57,2.12.79,3.21,1.07,1.99.52,3.83,1.48,5.8,2.04.96.27,1.96.44,2.96.35,1.01-.09,1.94-.48,2.78-1.03.51-.34.98-.76,1.34-1.26-.42.31-.88.56-1.36.77Z"/>
              </g>
              <circle class="cls-2" cx="35.6" cy="43.64" r="12.32"/>
              <g>
                <g>
                  <path class="cls-19" d="M36.83,63.59c-.12-.44-.25-.88-.4-1.31-.14-.41-.28-.83-.47-1.19-.28-.51-.65-.93-.9-1.46-.6-.94-1.21-1.87-1.8-2.83-.75-1.23-1.5-2.47-2.04-3.9-.5-1.33-.87-2.75-1.14-4.2-.17-.92-.31-1.85-.41-2.78-.11,0-.21,0-.32.01-.58.03-1.17.08-1.75.16.05.83.15,1.65.28,2.46.31,2.07.75,4.12,1.27,6.11.6,2.3,1.32,4.53,2.17,6.68.85,2.15,1.83,4.21,2.95,6.11.49.84,1.01,1.65,1.57,2.39.57.74,1.2,1.43,1.91,1.87.17.11.34.2.52.28.04.02.08,0,.11-.02-.12-.94-.2-1.9-.35-2.84-.3-1.88-.69-3.73-1.19-5.54Z"/>
                  <path class="cls-23" d="M37.46,67.13c-.15-.83-.32-1.65-.53-2.46-.2-.78-.42-1.57-.66-2.33,0,0,0,0,0,0,0,0,0-.02-.01-.02-.06-.14-.12-.28-.18-.43-.12-.28-.23-.57-.36-.84-.13-.26-.29-.47-.46-.68-.12-.15-.23-.29-.32-.47-.76-1.1-1.49-2.26-2.2-3.43-.38-.64-.77-1.28-1.11-1.96-.31-.62-.58-1.28-.83-1.95-.49-1.36-.83-2.8-1.07-4.26-.13-.78-.24-1.58-.32-2.37-.02,0-.04,0-.06,0-.5.03-1,.07-1.49.13.09,1.07.23,2.14.41,3.2.35,2.05.81,4.07,1.35,6.04.62,2.26,1.37,4.47,2.24,6.58.85,2.06,1.83,4.03,2.94,5.85.5.83,1.04,1.63,1.63,2.34.53.62,1.11,1.18,1.76,1.51,0-.72-.19-1.43-.34-2.11-.17-.76-.27-1.55-.4-2.32Z"/>
                  <path class="cls-25" d="M33.76,64.57c-.32-.76-.65-1.51-.8-2.32,0-.05.04-.1.09-.07.28.19.47.48.74.68.09-.54-.06-1.08-.19-1.6-.11-.49-.22-1-.11-1.5.05-.24.15-.47.29-.68.09-.13.19-.25.27-.39.01-.02.03-.05.04-.08-.46-.7-.9-1.42-1.34-2.15-.38-.64-.77-1.28-1.11-1.96-.31-.62-.58-1.28-.83-1.95-.49-1.36-.83-2.8-1.07-4.26-.13-.78-.24-1.58-.32-2.37-.02,0-.04,0-.06,0-.5.03-1,.07-1.49.13.09,1.07.23,2.14.41,3.2.35,2.05.81,4.07,1.35,6.04.62,2.26,1.37,4.47,2.24,6.58.04.1.08.2.13.3.6.8,1.14,1.64,1.77,2.41Z"/>
                  <path class="cls-8" d="M29.66,53.95c0-.07.1-.08.12-.02.14.54.29,1.07.45,1.6.53,1.78,1.2,3.53,2.08,5.16-.08-.32-.17-.63-.25-.95-.45-1.65-.94-3.29-1.44-4.93-.02-.07.08-.1.11-.05.65,1.15,1.08,2.41,1.66,3.6-.25-1.14-.68-2.24-1-3.37-.02-.06.08-.11.11-.05.08.15.15.3.23.45.61,1.23,1.14,2.51,1.64,3.79.51,1.3.99,2.6,1.51,3.9.26.66.54,1.31.78,1.98.25.69.48,1.39.7,2.09.22.7.43,1.4.64,2.1.19.63.39,1.25.57,1.88.21.16.42.3.65.42,0-.72-.19-1.43-.34-2.11-.17-.76-.27-1.55-.4-2.32-.15-.83-.32-1.65-.53-2.46-.2-.78-.42-1.57-.66-2.33,0,0,0,0,0,0,0,0,0-.02-.01-.02-.06-.14-.12-.28-.18-.43-.12-.28-.23-.57-.36-.84-.13-.26-.29-.47-.46-.68-.12-.15-.23-.29-.32-.47-.76-1.1-1.49-2.26-2.2-3.43-.38-.64-.77-1.28-1.11-1.96-.31-.62-.58-1.28-.83-1.95-.49-1.36-.83-2.8-1.07-4.26-.13-.78-.24-1.58-.32-2.37-.02,0-.04,0-.06,0-.5.03-1,.07-1.49.13.09,1.07.23,2.14.41,3.2.35,2.05.81,4.07,1.35,6.04.1.36.2.71.31,1.07-.11-.8-.2-1.6-.27-2.4Z"/>
                  <path class="cls-4" d="M28.31,49.46c.34.73.71,1.44,1.1,2.15.47.85.95,1.69,1.4,2.55.47.9.86,1.83,1.24,2.78.85,2.15,1.64,4.32,2.44,6.48.79,2.15,1.59,4.3,2.46,6.42.17.42.35.83.52,1.25.23.19.48.35.73.48,0-.72-.19-1.43-.34-2.11-.17-.76-.27-1.55-.4-2.32-.15-.83-.32-1.65-.53-2.46-.2-.78-.42-1.57-.66-2.33,0,0,0,0,0,0,0,0,0-.02-.01-.02-.06-.14-.12-.28-.18-.43-.12-.28-.23-.57-.36-.84-.13-.26-.29-.47-.46-.68-.12-.15-.23-.29-.32-.47-.76-1.1-1.49-2.26-2.2-3.43-.38-.64-.77-1.28-1.11-1.96-.31-.62-.58-1.28-.83-1.95-.49-1.36-.83-2.8-1.07-4.26-.13-.78-.24-1.58-.32-2.37-.02,0-.04,0-.06,0-.5.03-1,.07-1.49.13.09,1.07.23,2.14.41,3.2.01.07.02.14.04.21Z"/>
                </g>
                <g>
                  <path class="cls-19" d="M39.46,10.23c-.48,1.62-.89,3.27-1.3,4.91-.69,2.75-1.36,5.51-2.31,8.16-.91,2.57-2.01,5.05-3.1,7.53-1.04,2.38-2.1,4.77-2.93,7.26-.38,1.15-.7,2.33-.9,3.54-.17,1.09-.26,2.23-.09,3.33-.05.45-.07.9-.07,1.36,0,.19,0,.39.01.58.28-.03.57-.05.85-.07.49-.03.97-.05,1.46-.06-.05-.46-.09-.92-.12-1.39-.04-.67-.08-1.34-.1-2.01.04-.03.06-.08.05-.13-.02-.08-.04-.16-.06-.25-.02-.53-.03-1.05-.06-1.58,0-.06,0-.12-.01-.18.05-.49.16-.98.29-1.46.33-1.18.84-2.29,1.41-3.35.59-1.1,1.26-2.14,1.92-3.19.72-1.15,1.44-2.3,2.17-3.45,1.44-2.28,2.88-4.56,4.22-6.91,1.34-2.34,2.6-4.76,3.67-7.27.74-1.73,1.4-3.53,1.92-5.37h-6.94Z"/>
                  <path class="cls-25" d="M39.69,10.23c-.53,1.94-1.02,3.9-1.5,5.86-.68,2.73-1.39,5.43-2.37,8.05-.94,2.51-2.02,4.94-3.09,7.39-1.02,2.35-2.06,4.72-2.83,7.2-.5,1.62-.94,3.43-.89,5.19.02-.09.04-.17.06-.26.01-.05.09-.07.08,0-.04.21-.07.41-.09.62,0,.08-.01.17-.02.25.04.44.12.88.24,1.31.03.12-.17.24-.21.11-.02-.06-.04-.12-.06-.18,0,.37.02.74.04,1.11.19-.02.38-.03.57-.05.39-.03.78-.04,1.17-.05-.06-.6-.1-1.2-.13-1.81-.03-.61-.05-1.23-.05-1.84-.06-.18-.1-.36-.12-.55-.15-1.18.13-2.38.5-3.47.39-1.12.9-2.19,1.48-3.2.65-1.13,1.35-2.24,2.04-3.34.72-1.15,1.45-2.3,2.17-3.45,1.44-2.29,2.87-4.58,4.21-6.95,1.33-2.36,2.57-4.8,3.61-7.35.52-1.28,1-2.59,1.41-3.92.07-.22.13-.43.2-.65h-6.45Z"/>
                  <path class="cls-20" d="M39.69,10.23c-.53,1.94-1.02,3.9-1.5,5.86-.06.24-.12.47-.18.71.17-.23.35-.44.58-.61.05-.04.11,0,.1.06-.04.27-.07.55-.11.82.44-.44.72-1.12,1.35-1.3.03,0,.06.01.07.04.05.12.07.25.08.38,0,.11,0,.22.03.32.06.22.31.29.5.23.19-.06.35-.18.51-.28.16-.11.33-.23.52-.3.16-.06.34-.07.49.02.2.13.18.36.18.57,0,.11-.02.24.03.34.04.08.14.19.23.21.07.02.14,0,.22.01.1.01.2.07.31.07.07,0,.13-.03.2-.02.04,0,.07.02.11.04.4-.84.78-1.7,1.13-2.57.52-1.28,1-2.59,1.41-3.92.07-.22.13-.43.2-.65h-6.45Z"/>
                  <path class="cls-8" d="M38.88,19.59c-.43,1.55-.93,3.08-1.49,4.58-.07.19-.14.38-.22.57.25-.62.49-1.24.72-1.87.3-.82.58-1.64.88-2.46.31-.83.62-1.66.91-2.5.58-1.67,1.06-3.36,1.46-5.08.2-.86.4-1.73.6-2.6h-.71c-.33,1.53-.65,3.07-.99,4.6-.35,1.59-.73,3.18-1.17,4.76Z"/>
                  <path class="cls-8" d="M41.34,14.59c-.24.87-.52,1.72-.8,2.57-.28.87-.57,1.74-.92,2.58-.16.38-.33.77-.49,1.15-.13.3-.24.61-.31.94.01-.02.02-.04.04-.06.5-.82.96-1.68,1.37-2.55.41-.88.78-1.78,1.11-2.7.33-.91.63-1.83.91-2.76.28-.93.53-1.87.78-2.81.06-.24.12-.48.18-.72h-.68c-.18.58-.34,1.17-.5,1.76-.23.86-.45,1.73-.69,2.59Z"/>
                  <path class="cls-8" d="M43.08,13.33c-.2.7-.39,1.4-.63,2.08-.43,1.24-.96,2.46-1.24,3.75.38-.7.76-1.41,1.12-2.12.75-1.48,1.44-3,1.87-4.61.2-.74.4-1.47.62-2.2h-.83c-.1.32-.2.65-.3.97-.21.71-.41,1.41-.61,2.12Z"/>
                  <path class="cls-22" d="M32.26,33.42c1.43-2.39,2.64-4.92,3.71-7.49,1.12-2.68,2.06-5.43,2.77-8.24.62-2.45,1.05-4.94,1.28-7.45h-.33c-.53,1.94-1.02,3.9-1.5,5.86-.68,2.73-1.39,5.43-2.37,8.05-.94,2.51-2.02,4.94-3.09,7.39-.53,1.21-1.06,2.43-1.56,3.67.37-.59.74-1.18,1.09-1.78Z"/>
                  <path class="cls-8" d="M45.21,10.24c-.43,1.06-.77,2.15-1.11,3.24-.35,1.15-.7,2.3-1.13,3.42-.43,1.12-.96,2.2-1.51,3.26-1.14,2.2-2.42,4.33-3.75,6.42-.04.06-.14,0-.1-.06.52-.9.97-1.83,1.39-2.78.39-.87.74-1.76,1.09-2.65.31-.79.59-1.59.92-2.37.33-.79.69-1.58.96-2.4.23-.71.39-1.46.34-2.2-.45,1.19-.91,2.37-1.38,3.55-.9,2.26-1.85,4.51-2.91,6.7-1.05,2.17-2.22,4.28-3.56,6.28-.04.06-.14,0-.1-.06.55-1.01,1.01-2.05,1.44-3.12.38-.95.74-1.91,1.09-2.88.35-.96.71-1.92,1.05-2.88.64-1.86,1.14-3.78,1.49-5.72-.59,1.29-1.04,2.64-1.49,3.98-.43,1.3-.86,2.61-1.34,3.89-.49,1.3-1.08,2.57-1.75,3.8-.49.9-1.01,1.78-1.57,2.63-.18.41-.36.83-.54,1.24-1.02,2.35-2.06,4.72-2.83,7.2-.5,1.62-.94,3.43-.89,5.19.02-.09.04-.17.06-.26.01-.05.09-.07.08,0-.04.21-.07.41-.09.62,0,.08-.01.17-.02.25.04.44.12.88.24,1.31.03.12-.17.24-.21.11-.02-.06-.04-.12-.06-.18,0,.37.02.74.04,1.11.19-.02.38-.03.57-.05.39-.03.78-.04,1.17-.05-.06-.6-.1-1.2-.13-1.81-.03-.61-.05-1.23-.05-1.84-.06-.18-.1-.36-.12-.55-.15-1.18.13-2.38.5-3.47.39-1.12.9-2.19,1.48-3.2.65-1.13,1.35-2.24,2.04-3.34.72-1.15,1.45-2.3,2.17-3.45,1.44-2.29,2.87-4.58,4.21-6.95,1.33-2.36,2.57-4.8,3.61-7.35.52-1.28,1-2.59,1.41-3.92.07-.22.13-.43.2-.65h-.93Z"/>
                </g>
                <g>
                  <path class="cls-16" d="M32.64,49.98c-.11-.69-.26-1.37-.35-2.06-.1-.74-.1-1.49-.09-2.24,0-.74.04-1.49.08-2.23.04-.72.08-1.44.16-2.16.07-.66.21-1.31.19-1.97,0-.17-.02-.34-.05-.51,0-.27,0-.53-.05-.79-.08-.46-.29-1.12-.84-1.2-.46-.06-.9.3-1.22.59-.39.35-.74.75-1.05,1.17-.68.92-1.2,1.96-1.55,3.05-.35,1.09-.55,2.24-.47,3.39.04.6.17,1.18.33,1.76.18.65.42,1.29.69,1.92.28.63.6,1.24.96,1.82.29.47.63.92,1.04,1.29.4.36.91.64,1.47.59.46-.04.76-.37.85-.81.1-.51-.02-1.08-.1-1.59Z"/>
                  <path class="cls-10" d="M32.37,51.78c-.17.42-.69.36-1.04.22-.51-.2-.91-.62-1.24-1.04-.36-.45-.65-.95-.92-1.45-.62-1.14-1.1-2.36-1.37-3.63-.45-2.11.15-4.41,1.21-6.25.26-.46.56-.9.9-1.3.3-.36.64-.72,1.01-.99.16-.11.34-.24.54-.25.21-.02.37.11.49.28.33.49.36,1.13.36,1.7,0,.18,0,.36-.01.54,0,.06-.02.13-.03.19-.05.34-.11.68-.14,1.02-.03.33-.05.65-.07.98,0,.17-.02.35,0,.52-.13,1.37-.18,2.76-.18,4.14,0,.68.05,1.34.15,2.01.1.65.24,1.29.33,1.94.06.42.17.94,0,1.35Z"/>
                  <path class="cls-9" d="M32.37,51.78c-.17.42-.69.36-1.04.22-.51-.2-.91-.62-1.24-1.04-.36-.45-.65-.95-.92-1.45-.62-1.14-1.1-2.36-1.37-3.63-.45-2.11.15-4.41,1.21-6.25.26-.46.56-.9.9-1.3.3-.36.64-.72,1.01-.99.16-.11.34-.24.54-.25.21-.02.37.11.49.28.33.49.36,1.13.36,1.7,0,.18,0,.36-.01.54,0,.06-.02.13-.03.19-.05.34-.11.68-.14,1.02-.03.33-.05.65-.07.98,0,.17-.02.35,0,.52-.13,1.37-.18,2.76-.18,4.14,0,.68.05,1.34.15,2.01.1.65.24,1.29.33,1.94.06.42.17.94,0,1.35Z"/>
                  <path class="cls-11" d="M28.11,44.83c.06-1.11.27-2.2.62-3.26.33-.97.74-1.93,1.28-2.8.37-.6.81-1.17,1.33-1.65-.15.04-.3.14-.42.23-.38.28-.71.63-1.01.99-.34.4-.64.84-.9,1.3-1.05,1.84-1.66,4.14-1.21,6.25.11.52.26,1.03.44,1.54-.13-.86-.17-1.73-.12-2.6Z"/>
                  <path class="cls-1" d="M32.37,50.43c-.1-.65-.23-1.29-.33-1.94-.11-.67-.15-1.33-.15-2.01,0-1.38.05-2.77.18-4.14-.01-.17,0-.35,0-.52.02-.33.04-.65.07-.98.03-.34.09-.68.14-1.02,0-.06.02-.13.03-.19,0-.18,0-.36.01-.54,0-.57-.03-1.22-.36-1.7-.11-.16-.28-.29-.49-.28-.2.01-.39.14-.54.25-.04.03-.07.05-.11.08.06.02.12.05.17.09.46.33.41,1.01.29,1.49-.23.85-.52,1.68-.73,2.54-.22.89-.33,1.79-.33,2.7,0,.45.02.89.04,1.34.02.4.06.8.07,1.2,0,.45.03.94-.14,1.36-.08.19-.21.35-.42.39-.25.04-.46-.15-.62-.32-.18-.2-.32-.42-.45-.66-.16-.29-.33-.57-.46-.87-.26-.56-.45-1.16-.57-1.77.02.33.07.65.13.97.27,1.27.75,2.49,1.37,3.63.27.5.57,1,.92,1.45.33.42.74.84,1.24,1.04.35.14.87.19,1.04-.22.17-.41.06-.93,0-1.35Z"/>
                </g>
              </g>
              <g>
                <g>
                  <path class="cls-24" d="M44.93,59.23s0,.01.01.02c.06.09.14.16.25.19.01,0,.02,0,.03,0,.64.45,1.04,1.18,1.31,1.9.34.91.52,1.88.68,2.84.2,1.18.42,2.35.63,3.53.27,1.53.51,3.06.75,4.59.47,3.03.93,6.06,1.5,9.07.56,2.99,1.21,5.96,1.96,8.9.19.74.39,1.48.59,2.22.12.45.24.91.4,1.35.06.15.12.31.19.46h2c-.64-2.48-1.11-4.99-1.54-7.52-.54-3.21-1.06-6.43-1.47-9.67-.41-3.28-.75-6.56-1.06-9.85-.15-1.61-.3-3.23-.48-4.84-.18-1.58-.36-3.18-.23-4.78.07-.87.25-1.73.18-2.61-.06-.67-.34-1.41-1.14-1.36-.11,0-.22.03-.33.06-.11.02-.23.06-.33.09-.23.08-.44.2-.64.33-.5.31-.96.71-1.38,1.13-.45.45-.87.95-1.23,1.48-.3.45-.58.95-.72,1.48-.06.23-.09.48-.05.72.02.09.05.19.1.27Z"/>
                  <path class="cls-13" d="M45.19,59.18c.14.06.27.14.39.23.72.52,1.13,1.41,1.41,2.23.3.9.47,1.83.63,2.76.22,1.26.47,2.51.69,3.78.26,1.52.5,3.04.73,4.56.46,2.98.91,5.96,1.47,8.93.56,2.96,1.2,5.91,1.94,8.84.18.72.37,1.44.56,2.15.11.41.22.82.38,1.22.05.14.12.28.19.41h1.33c-.72-2.74-1.2-5.53-1.67-8.32-.53-3.18-1.03-6.36-1.41-9.56-.38-3.23-.69-6.46-.99-9.7-.15-1.58-.31-3.15-.48-4.73-.17-1.51-.31-3.04-.17-4.55.08-.82.26-1.65.16-2.47-.04-.32-.12-.68-.38-.9-.15-.13-.34-.17-.53-.17-.03.03-.06.05-.08.05-.19.04-.37.06-.56.14-.23.1-.45.23-.65.37-.95.65-1.79,1.55-2.41,2.52-.27.42-.52.88-.62,1.37-.04.18-.05.37-.01.55.02.1.06.19.1.28Z"/>
                  <path class="cls-7" d="M53.39,91.04c-.84-3.12-1.54-6.28-2.14-9.46-.6-3.16-1.1-6.34-1.6-9.52-.25-1.59-.49-3.18-.75-4.76-.26-1.58-.56-3.15-.78-4.74-.1-.74-.16-1.48-.08-2.22.08-.73.32-1.4.62-2.06.49-1.1,1.12-2.14,1.69-3.2,0-.04,0-.07-.01-.11-.04-.32-.12-.68-.38-.9-.15-.13-.34-.17-.53-.17-.03.03-.06.05-.08.05-.19.04-.37.06-.56.14-.23.1-.45.23-.65.37-.95.65-1.79,1.55-2.41,2.52-.27.42-.52.88-.62,1.37-.04.18-.05.37-.01.55.02.1.06.19.1.28.14.06.27.14.39.23.72.52,1.13,1.41,1.41,2.23.3.9.47,1.83.63,2.76.22,1.26.47,2.51.69,3.78.26,1.52.5,3.04.73,4.56.46,2.98.91,5.96,1.47,8.93.56,2.96,1.2,5.91,1.94,8.84.18.72.37,1.44.56,2.15.11.41.22.82.38,1.22.05.14.12.28.19.41h.7c-.3-1.08-.6-2.16-.89-3.24Z"/>
                </g>
                <g>
                  <path class="cls-24" d="M36.78,68.13c.13.35.26.71.39,1.06.44,1.22.84,2.45,1.23,3.68.76,2.46,1.44,4.94,2.12,7.42.34,1.25.68,2.49,1.02,3.74.34,1.22.69,2.43.99,3.66.54,2.2,1.01,4.42,1.68,6.58h7.36c-.13-.69-.27-1.38-.41-2.07-.27-1.33-.55-2.66-.83-3.98-.56-2.66-1.09-5.32-1.64-7.98-.55-2.66-1.07-5.34-1.54-8.02-.24-1.34-.45-2.68-.64-4.02-.19-1.35-.44-2.69-.55-4.04-.01-.14-.02-.27-.02-.41,0-.03,0-.06,0-.09-.04-.4-.07-.8-.09-1.2,0-.23,0-.45,0-.68,0-.44.02-.88.07-1.31.02-.19.06-.39.09-.58.02-.06.03-.12.05-.17,0,0,0,0,0,0,.1-.43.25-.84.47-1.22.48-.83,1.17-1.54,1.76-2.3.59-.75,1.16-1.55,1.47-2.46.29-.83.34-1.78.27-2.65-.04-.48-.12-.96-.31-1.41-.09-.21-.2-.43-.35-.61-.05-.06-.1-.11-.15-.16,0-.01,0-.03-.01-.04-.52-.57-1.37-.76-2.1-.9-.93-.17-1.89-.24-2.84-.22-1.75.03-3.53.34-5.15,1-1.43.58-2.84,1.52-3.61,2.9-.22.4-.39.82-.62,1.21-.24.41-.54.78-.83,1.15-.53.68-1.01,1.41-1.14,2.29-.06.44,0,.88.08,1.31.04.21.09.41.15.62.01.08.02.16.04.24.07.31.19.61.31.91.09.23.17.46.27.68.31.58.59,1.18.84,1.79.67,1.59,1.19,3.24,1.7,4.89.15.47.3.93.45,1.4Z"/>
                  <path class="cls-13" d="M35.58,63.59c.27.84.5,1.7.8,2.53.44,1.23.89,2.45,1.33,3.68.43,1.23.83,2.47,1.21,3.72.76,2.48,1.44,4.99,2.11,7.49.67,2.47,1.4,4.93,1.99,7.42.29,1.22.57,2.44.88,3.66.19.73.4,1.46.61,2.19h6.76c-.44-2.35-.94-4.69-1.42-7.03-.55-2.69-1.09-5.38-1.65-8.06-.56-2.69-1.11-5.37-1.56-8.08-.23-1.36-.42-2.72-.62-4.09-.18-1.22-.37-2.45-.39-3.69,0-.04-.01-.07-.01-.11-.06-.46-.12-.92-.12-1.39,0-.47.03-.93.12-1.39.04-.22.09-.45.16-.66.02-.08.05-.15.08-.23.07-.25.15-.49.25-.73.11-.28.25-.54.4-.8.2-.29.42-.57.65-.84.3-.37.61-.74.91-1.12.59-.74,1.16-1.52,1.46-2.42.15-.43.21-.88.24-1.34.03-.44.04-.88,0-1.31-.08-.76-.32-1.54-.83-2.12-.11-.06-.21-.12-.32-.17-.71-.35-1.5-.48-2.27-.57-.96-.11-1.93-.14-2.89-.07-1.63.11-3.28.46-4.76,1.17-.67.32-1.31.72-1.86,1.22-.27.25-.52.52-.74.82-.26.35-.44.74-.63,1.13-.2.4-.41.77-.68,1.13-.27.36-.57.71-.83,1.08-.47.68-.8,1.49-.71,2.33.05.44.15.87.26,1.3.08.31.17.63.27.94.04.08.07.16.11.24.27.61.58,1.19.84,1.8.18.43.34.86.49,1.3.15.35.27.72.39,1.07Z"/>
                  <path class="cls-7" d="M41.11,76.26c-1.01-3.35-2.15-6.67-3.33-9.96-.28-.78-.58-1.55-.93-2.3-.35-.72-.71-1.43-1.05-2.16-.61-1.32-1.11-2.76-1.11-4.23,0-.62.13-1.24.4-1.81.3-.61.78-1.1,1.12-1.68.6-1,1.06-2.2,2.01-2.94.1-.12.22-.23.34-.32.43-.32.97-.4,1.49-.41.8-.02,1.61-.06,2.41-.12.4-.03.8-.06,1.19-.11.39-.04.78-.08,1.17-.15.54-.1,1.15-.29,1.69-.1.5.17.82.68.96,1.17.13.44.1.91-.04,1.35-.31.97-1.05,1.77-1.84,2.38-.38.29-.79.55-1.22.75-.46.21-.93.3-1.42.36-.57.07-1.16.11-1.71.31-.51.19-.96.59-.93,1.17.01.26.12.52.29.72.18.21.42.38.64.56.4.32.81.63,1.07,1.07.14.25.24.52.29.8,0,.03.01.07.02.1.11.17.22.34.3.52.24.53.35,1.11.44,1.68.09.58.13,1.16.2,1.74.09.76.21,1.52.31,2.28.23,1.67.46,3.34.72,5.01.5,3.29,1.07,6.56,1.81,9.81.37,1.64.78,3.27,1.24,4.89.46,1.63,1.02,3.23,1.6,4.82.34.94.7,1.88,1.05,2.82h.99c-.44-2.35-.94-4.69-1.42-7.03-.55-2.69-1.09-5.38-1.65-8.06-.56-2.69-1.11-5.37-1.56-8.08-.23-1.36-.42-2.72-.62-4.09-.18-1.22-.37-2.45-.39-3.69,0-.04-.01-.07-.01-.11-.06-.46-.12-.92-.12-1.39,0-.47.03-.93.12-1.39.04-.22.09-.45.16-.66.02-.08.05-.15.08-.23.07-.25.15-.49.25-.73.11-.28.25-.54.4-.8.2-.29.43-.57.65-.84.3-.37.61-.74.91-1.12.59-.74,1.16-1.52,1.46-2.42.15-.43.21-.88.24-1.34.03-.44.04-.88,0-1.31-.08-.76-.32-1.54-.83-2.12-.11-.06-.21-.12-.32-.17-.71-.35-1.5-.48-2.27-.57-.96-.11-1.93-.14-2.89-.07-1.63.11-3.28.46-4.76,1.17-.67.32-1.31.72-1.86,1.22-.27.25-.52.52-.74.82-.26.35-.44.74-.63,1.13-.2.4-.41.77-.68,1.13-.27.36-.57.71-.83,1.08-.47.68-.8,1.49-.71,2.33.05.44.15.87.26,1.3.08.31.17.63.27.94.04.08.07.16.11.24.27.61.58,1.19.84,1.8.18.43.34.86.49,1.3.15.35.27.72.39,1.07.27.84.5,1.7.8,2.53.44,1.23.89,2.45,1.33,3.68.43,1.23.83,2.47,1.21,3.72.76,2.48,1.44,4.99,2.11,7.49.67,2.47,1.4,4.93,1.99,7.42.29,1.22.57,2.44.88,3.66.19.73.4,1.46.61,2.19h1.5c-1.04-2.75-1.76-5.61-2.44-8.46-.76-3.2-1.51-6.4-2.47-9.56Z"/>
                  <path class="cls-7" d="M48.48,52.16c-.03.96-.37,1.88-.87,2.69-.52.85-1.19,1.59-1.79,2.38-.59.78-1.08,1.61-1.27,2.57-.2.98-.16,2-.06,2.99.1.96.27,1.92.48,2.87.25,1.13.61,2.25.97,3.35.23.72.48,1.43.71,2.14,0-.01,0-.02,0-.04-.23-1.36-.42-2.72-.62-4.09-.18-1.22-.37-2.45-.39-3.69,0-.04-.01-.07-.01-.11-.06-.46-.12-.92-.12-1.39,0-.47.03-.93.12-1.39.04-.22.09-.45.16-.66.02-.08.05-.15.08-.23.07-.25.15-.49.25-.73.11-.28.25-.54.4-.8.2-.29.43-.57.65-.84.3-.37.61-.74.91-1.12.59-.74,1.16-1.52,1.46-2.42.15-.43.21-.88.24-1.34.03-.44.04-.88,0-1.31-.08-.76-.32-1.54-.83-2.12-.11-.06-.21-.12-.32-.17-.57-.28-1.19-.42-1.82-.51,1.05,1.05,1.75,2.44,1.69,3.96Z"/>
                  <path class="cls-7" d="M42.95,57.51c.23-.05.46-.11.69-.2.24-.09.45-.21.65-.38.73-.59,1.16-1.43,1.55-2.27-.09.07-.17.14-.26.21-.38.29-.79.55-1.22.75-.46.21-.93.3-1.42.36-.57.07-1.16.11-1.71.31-.41.15-.79.45-.9.86.26.25.64.38,1,.43.54.08,1.09.03,1.62-.08Z"/>
                  <path class="cls-19" d="M49.92,48.95c-.42-.65-1.12-1.06-1.83-1.32-.88-.33-1.83-.42-2.77-.47-1.02-.05-2.05-.02-3.07.08-.97.1-1.95.27-2.89.53-.77.22-1.51.52-2.18.94-.67.43-1.26.98-1.71,1.64-.27.39-.49.81-.72,1.22-.25.44-.5.89-.76,1.32-.26.43-.54.86-.84,1.26-.24.32-.53.62-.7.99-.17.36-.17.72-.08,1.1.08.35.2.72.42,1.01.04.06.09.11.14.16-.01.04,0,.08.03.11.19.15.41.13.58-.04.15-.15.23-.37.3-.57.1-.29.21-.56.37-.83.19-.32.41-.61.61-.92.75-1.14,1.14-2.5,2.04-3.55.92-1.07,2.25-1.72,3.6-2.07,1.52-.4,3.14-.48,4.7-.44.81.02,1.63.06,2.43.19.38.06.75.16,1.1.32.32.15.54.37.74.66.09.13.18.27.28.4.05.06.15.04.2,0,.61-.44.36-1.21.02-1.74Z"/>
                  <path class="cls-21" d="M49.97,50.18c-.02.07-.05.14-.09.19-.16-.22-.3-.46-.49-.65-.25-.25-.58-.39-.91-.5-.75-.25-1.57-.3-2.35-.35-1.61-.1-3.25-.06-4.84.23-1.39.25-2.76.75-3.86,1.64-.55.44-1.01.96-1.38,1.57-.36.59-.64,1.22-.95,1.83-.15.3-.31.6-.5.88-.2.31-.42.61-.62.93-.17.28-.31.57-.41.87-.03.1-.06.2-.1.29-.03.08-.07.19-.14.24-.03.02-.07.01-.1-.01-.23-.2-.37-.5-.46-.78-.11-.33-.22-.7-.17-1.04.05-.36.29-.66.5-.94.28-.36.55-.73.8-1.11.52-.8.96-1.63,1.44-2.46.39-.68.86-1.28,1.48-1.76,1.28-.99,2.9-1.39,4.47-1.63.96-.15,1.94-.22,2.92-.22.92,0,1.87.03,2.78.22.8.16,1.63.47,2.26,1.02.22.19.4.45.54.7.13.25.26.56.2.84Z"/>
                  <path class="cls-6" d="M49.23,48.64c-.19-.17-.4-.31-.63-.44-.99.32-2.07.38-3.11.36-.82-.02-1.63-.05-2.45-.06-.81-.01-1.63,0-2.44.09-.78.1-1.57.3-2.27.66-.37.19-.71.42-1.02.68-.36.31-.65.66-.94,1.03-.61.8-1.16,1.66-1.65,2.54-.28.5-.54,1.02-.84,1.51-.14.23-.28.45-.45.65-.13.16-.28.32-.47.41-.13.06-.24.05-.33,0,.03.16.08.33.14.48.09.28.23.58.46.78.04.02.07.03.1.01.07-.05.11-.16.14-.24.04-.09.07-.19.1-.29.1-.31.24-.6.41-.87.19-.32.42-.62.62-.93.18-.29.34-.58.5-.88.31-.61.59-1.25.95-1.83.37-.6.83-1.12,1.38-1.57,1.11-.89,2.48-1.39,3.86-1.64,1.59-.29,3.23-.33,4.84-.23.78.05,1.6.1,2.35.35.33.11.66.25.91.5.19.19.34.43.49.65.04-.06.07-.12.09-.19.06-.28-.06-.59-.2-.84-.14-.26-.32-.51-.54-.7Z"/>
                </g>
              </g>
            </g>
          </g>
        </g>
      </g>
    </g>
  </g>
</svg>