<?xml version="1.0" encoding="UTF-8"?>
<svg xmlns="http://www.w3.org/2000/svg" xmlns:xlink="http://www.w3.org/1999/xlink" viewBox="0 0 100 100">
  <defs>
    <style>
      .cls-1, .cls-2 {
        fill: #4b5b6a;
      }

      .cls-3, .cls-4, .cls-5, .cls-6, .cls-7, .cls-8, .cls-9 {
        mix-blend-mode: screen;
      }

      .cls-3, .cls-4, .cls-10 {
        fill: #88cfc4;
      }

      .cls-11, .cls-12, .cls-13, .cls-14, .cls-15, .cls-16, .cls-17, .cls-18, .cls-2, .cls-19, .cls-20, .cls-21, .cls-22, .cls-23, .cls-24, .cls-25, .cls-26, .cls-27, .cls-28, .cls-29, .cls-30, .cls-31, .cls-32, .cls-33, .cls-34, .cls-35, .cls-36, .cls-37, .cls-38 {
        mix-blend-mode: multiply;
      }

      .cls-11, .cls-39 {
        fill: #7e7f80;
      }

      .cls-12, .cls-40, .cls-41, .cls-25, .cls-6 {
        fill: #9ca9b2;
      }

      .cls-12, .cls-18, .cls-2, .cls-42, .cls-43, .cls-30, .cls-33, .cls-34, .cls-38 {
        opacity: .4;
      }

      .cls-44 {
        fill: #c8d3db;
      }

      .cls-45 {
        fill: #c6e3ef;
      }

      .cls-40, .cls-17, .cls-6, .cls-31, .cls-46 {
        opacity: .6;
      }

      .cls-47 {
        fill: #a4a3a3;
      }

      .cls-47, .cls-48 {
        mix-blend-mode: color-burn;
      }

      .cls-49 {
        fill: #5d666c;
      }

      .cls-13, .cls-50 {
        fill: #359846;
      }

      .cls-14, .cls-4, .cls-36, .cls-37 {
        opacity: .5;
      }

      .cls-14, .cls-51 {
        fill: #e3bfa9;
      }

      .cls-52 {
        fill: #9a9a9a;
      }

      .cls-48, .cls-53, .cls-24, .cls-5, .cls-54 {
        fill: #c6c5c5;
      }

      .cls-55 {
        fill: #c8df8e;
      }

      .cls-15, .cls-56 {
        fill: #801417;
      }

      .cls-16 {
        fill: url(#radial-gradient);
      }

      .cls-57 {
        fill: #f3d9bf;
      }

      .cls-17, .cls-28, .cls-32, .cls-33, .cls-58 {
        fill: #32394b;
      }

      .cls-59 {
        fill: #964922;
      }

      .cls-60, .cls-7 {
        fill: #fff;
      }

      .cls-18, .cls-21 {
        fill: #1d1c1a;
      }

      .cls-61 {
        fill: #f8f8f1;
      }

      .cls-62 {
        fill: #c8d1e3;
      }

      .cls-63 {
        fill: #42423f;
      }

      .cls-19, .cls-64 {
        fill: #515257;
      }

      .cls-20 {
        fill: #929292;
      }

      .cls-65 {
        fill: #949492;
      }

      .cls-66, .cls-27, .cls-37 {
        fill: #efcfb0;
      }

      .cls-67 {
        fill: #50130d;
      }

      .cls-21, .cls-53, .cls-32 {
        opacity: .3;
      }

      .cls-68 {
        fill: #7f98b9;
      }

      .cls-69 {
        fill: #d6ebde;
      }

      .cls-70 {
        fill: #4c7b90;
      }

      .cls-22, .cls-71, .cls-9 {
        fill: #b4b4b5;
      }

      .cls-72 {
        fill: #bb9e8b;
      }

      .cls-73 {
        fill: #575858;
      }

      .cls-74, .cls-43 {
        fill: #505868;
      }

      .cls-23, .cls-26, .cls-28 {
        opacity: .7;
      }

      .cls-23, .cls-38 {
        fill: #75aea3;
      }

      .cls-75 {
        fill: #b3b2b3;
      }

      .cls-26 {
        fill: #c6c7c7;
      }

      .cls-76 {
        fill: #231f20;
      }

      .cls-77 {
        isolation: isolate;
      }

      .cls-8 {
        fill: url(#linear-gradient);
        opacity: .9;
      }

      .cls-78 {
        fill: #fff2e7;
      }

      .cls-79 {
        fill: #6eaccb;
      }

      .cls-80, .cls-30 {
        fill: #7f7f7e;
      }

      .cls-81 {
        fill: #6c6d6c;
      }

      .cls-82 {
        fill: #259747;
      }

      .cls-83 {
        fill: #1c1c1d;
      }

      .cls-84 {
        fill: #d4d3d3;
      }

      .cls-85 {
        fill: #9b9a7d;
      }

      .cls-31 {
        fill: #3f8668;
      }

      .cls-86 {
        fill: #e7e4b7;
      }

      .cls-34, .cls-87 {
        fill: #b38055;
      }

      .cls-88 {
        fill: #e4e0d0;
      }

      .cls-35 {
        fill: url(#radial-gradient-2);
      }

      .cls-36 {
        fill: #20407e;
      }

      .cls-46 {
        fill: #c29369;
      }

      .cls-89 {
        fill: #ececec;
      }

      .cls-90 {
        fill: #aeadaa;
      }

      .cls-91 {
        fill: #bbb9ac;
      }

      .cls-92 {
        fill: #2d282a;
      }
    </style>
    <linearGradient id="linear-gradient" x1="53.81" y1="13.86" x2="53.81" y2="17.18" gradientUnits="userSpaceOnUse">
      <stop offset="0" stop-color="#fff"/>
      <stop offset="1" stop-color="#000"/>
    </linearGradient>
    <radialGradient id="radial-gradient" cx="41.54" cy="44.96" fx="41.54" fy="44.96" r="2.39" gradientUnits="userSpaceOnUse">
      <stop offset=".34" stop-color="#f7cac0"/>
      <stop offset=".94" stop-color="#fff"/>
    </radialGradient>
    <radialGradient id="radial-gradient-2" cx="43.36" cy="45.3" fx="43.36" fy="45.3" r="1.99" xlink:href="#radial-gradient"/>
  </defs>
  <g class="cls-77">
    <g id="Layer_1" data-name="Layer 1">
      <g>
        <circle class="cls-60" cx="50" cy="50" r="50"/>
        <g>
          <g>
            <g>
              <g>
                <path class="cls-83" d="M65.93,61.87c-.57-.05-1.52.2-1.71.72-.19.52.48,1.22.48,1.22.24.28.31.36.79.15.48-.21.98-.45,1.07-.87.09-.41-.06-1.17-.63-1.22Z"/>
                <path class="cls-63" d="M65.68,62.69c.23.56.06,1.16-.39,1.35-.45.19-1-.12-1.23-.68-.23-.56-.06-1.16.39-1.35.45-.19,1,.12,1.23.68Z"/>
                <path class="cls-83" d="M65.06,62.98c.07.16.02.34-.11.39-.13.05-.29-.03-.36-.2-.07-.16-.02-.34.11-.39.13-.05.29.03.36.2Z"/>
                <path class="cls-68" d="M63.96,62.22s1.74.89,1.88.92c.13.03.4-.08.89-.4,0,0,.12-1.24-.97-1.46-1.09-.22-1.64.45-1.79.94Z"/>
                <path class="cls-41" d="M65.86,63.14c.03-.47-.08-.99-.49-1.25-.45-.29-1.03-.21-1.34.19-.02.05-.04.1-.06.14,0,0,1.74.89,1.88.92,0,0,.01,0,.01,0Z"/>
                <path class="cls-18" d="M65.76,61.28c-.78-.16-1.28.14-1.56.5.32-.21.74-.24,1.1-.05.52.28.69.85.66,1.4.15-.03.4-.15.77-.4,0,0,.12-1.24-.97-1.46Z"/>
                <path class="cls-68" d="M64.99,60.64l.02.91s.3.32.82-.07l-.05-.97-.79.13Z"/>
                <path class="cls-21" d="M65.77,60.51l-.79.13v.48c.04-.11.04-.14.13-.12.3.07.39-.03.39.12,0,.07,0,.37,0,.44-.01.1-.1.08-.19.11.13,0,.3-.04.51-.19l-.05-.97Z"/>
                <path class="cls-33" d="M65.81,61.09l-.03-.58-.79.13v.43c.26.15.55.12.82.02Z"/>
                <path class="cls-1" d="M64.6,58.81l.13,1.91s.62.55,1.27-.1l-.03-1.86-1.37.05Z"/>
                <path class="cls-40" d="M65.32,58.79l-.52.02c.05.68.09,1.36.12,2.04.12.06.29.11.48.09,0-.72-.02-1.44-.08-2.15Z"/>
                <path class="cls-33" d="M65.99,59.74l-.02-.98-1.37.05.06.88c.39.21.86.19,1.33.05Z"/>
              </g>
              <g>
                <path class="cls-83" d="M55.9,62.77c-.57-.05-1.52.2-1.71.72-.19.52.48,1.22.48,1.22.24.28.31.36.79.15.48-.21.98-.45,1.07-.87.09-.42-.06-1.17-.63-1.22Z"/>
                <path class="cls-63" d="M55.64,63.6c.23.56.06,1.16-.39,1.35-.45.19-1-.12-1.23-.68-.23-.56-.06-1.16.39-1.35.45-.19,1,.12,1.23.68Z"/>
                <path class="cls-83" d="M55.03,63.88c.07.16.02.34-.11.39-.13.05-.29-.03-.36-.2-.07-.16-.02-.34.11-.39.13-.05.29.03.36.2Z"/>
                <path class="cls-68" d="M53.93,63.12s1.74.89,1.88.92c.13.03.4-.08.89-.4,0,0,.12-1.24-.97-1.46-1.09-.22-1.64.45-1.79.94Z"/>
                <path class="cls-41" d="M55.82,64.04c.03-.47-.08-.99-.49-1.25-.45-.29-1.03-.21-1.34.19-.02.05-.04.1-.06.14,0,0,1.74.89,1.88.92,0,0,.01,0,.01,0Z"/>
                <path class="cls-18" d="M55.72,62.18c-.78-.16-1.28.14-1.56.5.32-.21.74-.24,1.1-.05.52.28.69.85.66,1.4.15-.03.4-.15.77-.4,0,0,.12-1.24-.97-1.46Z"/>
                <path class="cls-68" d="M54.95,61.54l.02.91s.3.32.82-.07l-.05-.97-.79.13Z"/>
                <path class="cls-21" d="M55.74,61.41l-.79.13v.48c.04-.11.04-.14.13-.12.3.07.39-.03.39.12,0,.07,0,.37,0,.44-.01.1-.1.08-.19.11.13,0,.3-.04.51-.19l-.05-.97Z"/>
                <path class="cls-33" d="M55.77,61.99l-.03-.58-.79.13v.43c.26.15.55.12.82.02Z"/>
                <path class="cls-1" d="M54.56,59.72l.13,1.91s.62.55,1.27-.1l-.03-1.86-1.37.05Z"/>
                <path class="cls-40" d="M55.29,59.69l-.52.02c.05.68.09,1.36.12,2.04.12.06.29.11.48.09,0-.72-.02-1.44-.08-2.15Z"/>
                <path class="cls-33" d="M55.96,60.65l-.02-.98-1.37.05.06.88c.39.21.86.19,1.33.05Z"/>
              </g>
              <g>
                <path class="cls-83" d="M59.1,64.37c-.57-.05-1.52.2-1.71.72s.48,1.22.48,1.22c.24.28.31.36.79.15.48-.21.98-.45,1.07-.87.09-.41-.06-1.17-.63-1.22Z"/>
                <path class="cls-63" d="M58.85,65.19c.23.56.06,1.16-.39,1.35-.45.19-1-.12-1.23-.68-.23-.56-.06-1.16.39-1.35.45-.19,1,.12,1.23.68Z"/>
                <path class="cls-83" d="M58.23,65.47c.07.16.02.34-.11.39-.13.05-.29-.03-.36-.2-.07-.16-.02-.34.11-.39.13-.05.29.03.36.2Z"/>
                <path class="cls-68" d="M57.14,64.71s1.74.89,1.88.92c.13.03.4-.08.89-.4,0,0,.12-1.24-.97-1.46-1.09-.22-1.64.45-1.79.94Z"/>
                <path class="cls-41" d="M59.03,65.64c.03-.47-.08-.99-.49-1.25-.45-.29-1.03-.21-1.34.19-.02.05-.04.1-.06.14,0,0,1.74.89,1.88.92,0,0,.01,0,.01,0Z"/>
                <path class="cls-18" d="M58.93,63.77c-.78-.16-1.28.14-1.56.5.32-.21.74-.24,1.1-.05.52.28.69.85.66,1.4.15-.03.4-.15.77-.4,0,0,.12-1.24-.97-1.46Z"/>
                <path class="cls-68" d="M58.16,63.14l.02.91s.3.32.82-.07l-.05-.97-.79.13Z"/>
                <path class="cls-21" d="M58.95,63l-.79.13v.48c.04-.11.04-.14.13-.12.3.07.39-.03.39.12,0,.07,0,.37,0,.44-.01.1-.1.08-.19.11.13,0,.3-.04.51-.19l-.05-.97Z"/>
                <path class="cls-33" d="M58.98,63.59l-.03-.58-.79.13v.43c.26.15.55.12.82.02Z"/>
                <path class="cls-1" d="M57.77,61.31l.13,1.91s.62.55,1.27-.1l-.03-1.86-1.37.05Z"/>
                <path class="cls-40" d="M58.5,61.28l-.52.02c.05.68.09,1.36.12,2.04.12.06.29.11.48.09,0-.72-.02-1.44-.08-2.15Z"/>
                <path class="cls-33" d="M59.16,62.24l-.02-.98-1.37.05.06.88c.39.21.86.19,1.33.05Z"/>
              </g>
              <g>
                <path class="cls-83" d="M62.73,60.27c-.57-.05-1.52.2-1.71.72-.19.52.48,1.22.48,1.22.24.28.31.36.79.15.48-.21.98-.45,1.07-.87.09-.41-.06-1.17-.63-1.22Z"/>
                <path class="cls-63" d="M62.47,61.1c.23.56.06,1.16-.39,1.35-.45.19-1-.12-1.23-.68-.23-.56-.06-1.16.39-1.35.45-.19,1,.12,1.23.68Z"/>
                <path class="cls-83" d="M61.86,61.38c.07.16.02.34-.11.39-.13.05-.29-.03-.36-.2-.07-.16-.02-.34.11-.39.13-.05.29.03.36.2Z"/>
                <path class="cls-68" d="M60.76,60.62s1.74.89,1.88.92c.13.03.4-.08.89-.4,0,0,.12-1.24-.97-1.46-1.09-.22-1.64.45-1.79.94Z"/>
                <path class="cls-41" d="M62.65,61.54c.03-.47-.08-.99-.49-1.25-.45-.29-1.03-.21-1.34.19-.02.05-.04.1-.06.14,0,0,1.74.89,1.88.92,0,0,.01,0,.01,0Z"/>
                <path class="cls-18" d="M62.55,59.68c-.78-.16-1.28.14-1.56.5.32-.21.74-.24,1.1-.05.52.28.69.85.66,1.4.15-.03.4-.15.77-.4,0,0,.12-1.24-.97-1.46Z"/>
                <path class="cls-68" d="M61.78,59.05l.02.91s.3.32.82-.07l-.05-.97-.79.13Z"/>
                <path class="cls-21" d="M62.57,58.91l-.79.13v.48c.04-.11.04-.14.13-.12.3.07.39-.03.39.12,0,.07,0,.37,0,.44-.01.1-.1.08-.19.11.13,0,.3-.04.51-.19l-.05-.97Z"/>
                <path class="cls-33" d="M62.6,59.49l-.03-.58-.79.13v.43c.26.15.55.12.82.02Z"/>
                <path class="cls-1" d="M61.39,57.22l.13,1.91s.62.55,1.27-.1l-.03-1.86-1.37.05Z"/>
                <path class="cls-40" d="M62.12,57.19l-.52.02c.05.68.09,1.36.12,2.04.12.06.29.11.48.09,0-.72-.02-1.44-.08-2.15Z"/>
                <path class="cls-33" d="M62.79,58.15l-.02-.98-1.37.05.06.88c.39.21.86.19,1.33.05Z"/>
              </g>
              <path class="cls-41" d="M66.08,59.48v-1.94h-3.21c-.39-.19-.65-.31-.65-.31,0,0-.86-.44-1.46-.1l-1.21.41h-4.96l.03,1.97c-.05.18.03.39.39.63l3.14,1.7s.58.44,1.31.24l5.83-1.89s1.01-.21.8-.71Z"/>
              <path class="cls-25" d="M59.79,57.46l-.24.08h-1.45v4.28l.04.02s.58.44,1.31.24l.34-.11v-4.52Z"/>
              <path class="cls-44" d="M60.73,55.02l-5.5,1.85s-1.3.45-.26,1.17l3.14,1.7s.58.44,1.31.24l5.83-1.89s1.17-.24.73-.83-3.79-2.14-3.79-2.14c0,0-.86-.44-1.46-.1Z"/>
              <path class="cls-12" d="M65.98,57.26c-.44-.58-3.79-2.14-3.79-2.14,0,0-.86-.44-1.46-.1l-5.5,1.85s-.06.02-.15.06c.74-.12,1.47-.39,2.19-.58.61-.17,1.41-.45,2.03-.17.03.02.04.07.01.09-.24.24-.66.58-.65.96.02.45.52.63.91.67.71.07,1.41-.08,2.1-.23,1.3-.27,2.69-.38,3.81.34.31-.11.8-.35.49-.76Z"/>
            </g>
            <g>
              <path class="cls-41" d="M59.33,43.73v13.29c.3.46,1.14.44,1.61.09v-13.37h-1.61Z"/>
              <path class="cls-33" d="M59.33,43.73v13.29c.11.16.28.26.48.31v-13.6h-.48Z"/>
              <path class="cls-33" d="M60.43,43.73v13.6c.19-.04.37-.12.52-.23v-13.37h-.52Z"/>
            </g>
            <g>
              <rect class="cls-39" x="55.62" y="37.18" width="8.77" height="7.1" rx="1.16" ry="1.16"/>
              <path class="cls-11" d="M64.39,39.9v-1.56c0-.64-.52-1.16-1.16-1.16h-6.45c-.64,0-1.16.52-1.16,1.16v1.56h8.77Z"/>
              <g>
                <g>
                  <g>
                    <rect class="cls-54" x="55.9" y="12.88" width="6.06" height=".54" transform="translate(11.44 50.43) rotate(-50.72)"/>
                    <path class="cls-24" d="M60.19,11.25c.06.18.14.34.25.47l.61-.74-.42-.34-.46.56s0,.04.01.06Z"/>
                    <path class="cls-24" d="M58.56,13.17l-1.76,2.15.42.34,2.04-2.49c-.23,0-.46,0-.69,0Z"/>
                    <rect class="cls-54" x="61.43" y="10.95" width=".79" height="21.64" transform="translate(-.72 2.17) rotate(-2)"/>
                    <polygon class="cls-20" points="62.6 32.57 62.16 32.57 61.49 10.73 61.85 10.94 62.6 32.57"/>
                    <path class="cls-48" d="M61.88,11.79l-.03-.84-.79.03.03.88c.26.05.53.02.79-.06Z"/>
                    <g>
                      <path class="cls-89" d="M62.22,10.73c-.01-.36-.07-.62-.33-.88-.11-.1-.25-.14-.4-.14-.42,0-.87.04-1.12.43-.27.43-.09,1.42.53,1.42.32,0,.63.03.93-.1.28-.13.4-.44.39-.73Z"/>
                      <path class="cls-53" d="M62.22,10.73c-.01-.36-.07-.62-.33-.88-.08-.08-.18-.12-.29-.13-.42-.03-.66.15-.8.48-.1.23-.09.46-.18.69-.03.07-.12.11-.18.05-.2-.2-.18-.56-.06-.8,0,0,0,0,0,0-.27.43-.09,1.42.53,1.42.32,0,.63.03.93-.1.28-.13.4-.44.39-.73Z"/>
                      <path class="cls-54" d="M62.22,10.73c0-.32-.09-.8-.44-.92-.12-.04-.3-.05-.42-.02-.36.11-.58.51-.59.87,0,.23.06.44.18.63.21.31.57.32.89.18.28-.13.4-.44.39-.73Z"/>
                      <path class="cls-75" d="M61.84,10.97c-.07.16-.27.21-.38.07-.09-.12-.08-.34-.04-.48.02-.07.07-.17.14-.2.14-.07.24.05.28.17.05.14.06.3,0,.44Z"/>
                      <path class="cls-52" d="M61.84,10.52c-.04-.12-.14-.23-.28-.17-.02,0-.03.02-.04.03.05,0,.1.01.13.04.12.12.13.34.07.49-.05.12-.2.18-.28.07,0,.01.02.03.02.04.11.14.31.09.38-.07.06-.14.05-.3,0-.44Z"/>
                    </g>
                    <g>
                      <path class="cls-65" d="M60.33,13.44s.58-.05.59.53c.01.58-.27,9.4-.27,9.4,0,0,.1.92-.44.93l-11.73-.23s-1,.07-1.08-.75c-.05-.54-.04-9.67-.04-9.67,0,0,.03-.42.72-.52l12.25.29Z"/>
                      <path class="cls-73" d="M60.77,19.42c-.06,2.08-.12,3.95-.12,3.95,0,0,.1.92-.44.93l-11.73-.23s-1,.07-1.08-.75c-.02-.23-.03-1.97-.04-3.91h13.41Z"/>
                      <g>
                        <path class="cls-90" d="M59.6,14.23l1.17-.64c.08.08.14.2.15.38.01.58-.27,9.4-.27,9.4,0,0,.06.61-.2.85l-1.19-.82.35-9.17Z"/>
                        <path class="cls-81" d="M47.36,13.66s.02-.23.3-.39l.2.59.14,9.5s-.22.22-.41.41c-.1-.11-.18-.25-.19-.45-.05-.54-.04-9.67-.04-9.67Z"/>
                      </g>
                      <g>
                        <path class="cls-80" d="M59.48,14.32s.52-.05.53.47c.01.52-.24,8.43-.24,8.43,0,0,.09.83-.4.84l-10.51-.2s-.9.06-.97-.67c-.05-.49-.04-8.67-.04-8.67,0,0,.03-.38.65-.46l10.98.26Z"/>
                        <path class="cls-30" d="M47.93,20.29c.45.36.97.65,1.5.89,1.19.55,2.48.84,3.79.88.98.03,1.98-.03,2.95-.17,1.24-.18,2.59-.52,3.68-1.22-.04,1.42-.08,2.54-.08,2.54,0,0,.09.83-.4.84l-10.51-.2s-.9.06-.97-.67c-.02-.18-.03-1.45-.03-2.95.03.02.05.04.08.06Z"/>
                      </g>
                      <path class="cls-7" d="M60.38,13.6c.28.06.37.28.41.44.02.08.03.19.03.35,0,.57-.26,9.02-.26,9.02,0,0,0,.59-.19.59,0,0,.09-.19.09-.78s.19-8.69.19-8.69c0,0-.01-.3-.08-.47-.02-.04-.04-.08-.07-.11,0,0,0,0-.01,0-.04-.01-.04-.03-.03-.04-.19-.16-.46-.15-.46-.15l-12-.47s11.93.22,12.37.31Z"/>
                    </g>
                    <path class="cls-76" d="M48,22.51v-7.44c0-.8.55-.7.55-.7l10.36.25s.91-.2.77.78l-.14,7.37s-.03,1.03-.66.99l-10.3-.18s-.58-.08-.58-1.06Z"/>
                    <path d="M48,22.51v-7.44c0-.8.55-.7.55-.7l10.36.25s.91-.2.77.78l-.14,7.37s-.03,1.03-.66.99l-10.3-.18s-.58-.08-.58-1.06Z"/>
                    <path class="cls-92" d="M48.32,22.06v-7.03c0-.76.52-.66.52-.66l9.79.23s.86-.19.73.74l-.13,6.96s-.03.97-.62.93l-9.74-.17s-.55-.08-.55-1Z"/>
                    <path class="cls-8" d="M59.25,17.23c-.12-.26-.25-.52-.41-.77-.13-.2-.28-.34-.5-.46-.42-.23-.91-.35-1.38-.43-.52-.08-1.04-.12-1.56-.14-.52-.02-1.03-.02-1.55-.04-.69-.03-1.39-.07-2.08-.06-.65,0-1.33.03-1.96.2-.41.11-.77.34-1.02.68-.28.37-.44.81-.55,1.27,0-1.38,0-2.48,0-2.48,0,0,.02-.34.59-.41l10.08.23s.47-.04.48.42c0,.15-.02,1.06-.06,2.19-.03-.06-.06-.13-.09-.19Z"/>
                  </g>
                  <rect class="cls-54" x="54.26" y="31.08" width="10.4" height="8.42" rx="1.37" ry="1.37"/>
                  <path class="cls-24" d="M54.92,31.29c-.39.24-.65.67-.65,1.17v5.67c0,.49.26.92.65,1.17v-8.01Z"/>
                  <rect class="cls-5" x="56.8" y="31.08" width="1.58" height="8.42"/>
                  <path class="cls-24" d="M63.29,31.08h-.7v8.42h.7c.76,0,1.37-.62,1.37-1.37v-5.67c0-.76-.61-1.37-1.37-1.37Z"/>
                  <path class="cls-39" d="M65.11,31.86c0,.44-.61.79-1.37.79h-8.7c-.76,0-1.37-.35-1.37-.79v-.27c0-.44.62-.79,1.37-.79h8.7c.76,0,1.37.35,1.37.79v.27Z"/>
                  <path class="cls-54" d="M65.11,31.43c0,.44-.61.79-1.37.79h-8.7c-.76,0-1.37-.35-1.37-.79v-.27c0-.44.62-.79,1.37-.79h8.7c.76,0,1.37.35,1.37.79v.27Z"/>
                  <path class="cls-70" d="M64.66,31.45c0,.35-.58.64-1.29.64h-8.15c-.71,0-1.29-.29-1.29-.64v-.22c0-.35.58-.64,1.29-.64h8.15c.71,0,1.29.29,1.29.64v.22Z"/>
                  <path class="cls-79" d="M64.66,31.4c0,.33-.58.6-1.29.6h-8.15c-.71,0-1.29-.27-1.29-.6v-.21c0-.33.58-.6,1.29-.6h8.15c.71,0,1.29.27,1.29.6v.21Z"/>
                  <g>
                    <path class="cls-88" d="M55.81,30.96c-.07-.02-.15-.04-.24-.04s-.17.01-.24.04h-.14v.12c0,.09.17.16.38.16s.38-.07.38-.16v-.12h-.14Z"/>
                    <path class="cls-78" d="M55.95,30.96c0,.09-.17.16-.38.16s-.38-.07-.38-.16.17-.16.38-.16.38.07.38.16Z"/>
                  </g>
                  <g>
                    <path class="cls-88" d="M55.81,31.5c-.07-.02-.15-.04-.24-.04s-.17.01-.24.04h-.14v.12c0,.09.17.16.38.16s.38-.07.38-.16v-.12h-.14Z"/>
                    <path class="cls-78" d="M55.95,31.5c0,.09-.17.16-.38.16s-.38-.07-.38-.16.17-.16.38-.16.38.07.38.16Z"/>
                  </g>
                  <g>
                    <path class="cls-88" d="M56.7,30.96c-.06-.02-.15-.04-.24-.04s-.17.01-.24.04h-.14v.12c0,.09.17.16.38.16s.38-.07.38-.16v-.12h-.14Z"/>
                    <path class="cls-78" d="M56.84,30.96c0,.09-.17.16-.38.16s-.38-.07-.38-.16.17-.16.38-.16.38.07.38.16Z"/>
                  </g>
                  <g>
                    <path class="cls-88" d="M56.7,31.5c-.06-.02-.15-.04-.24-.04s-.17.01-.24.04h-.14v.12c0,.09.17.16.38.16s.38-.07.38-.16v-.12h-.14Z"/>
                    <path class="cls-78" d="M56.84,31.5c0,.09-.17.16-.38.16s-.38-.07-.38-.16.17-.16.38-.16.38.07.38.16Z"/>
                  </g>
                  <g>
                    <path class="cls-88" d="M57.62,30.96c-.06-.02-.15-.04-.24-.04s-.17.01-.24.04h-.14v.12c0,.09.17.16.38.16s.38-.07.38-.16v-.12h-.14Z"/>
                    <path class="cls-78" d="M57.76,30.96c0,.09-.17.16-.38.16s-.38-.07-.38-.16.17-.16.38-.16.38.07.38.16Z"/>
                  </g>
                  <g>
                    <path class="cls-88" d="M57.62,31.5c-.06-.02-.15-.04-.24-.04s-.17.01-.24.04h-.14v.12c0,.09.17.16.38.16s.38-.07.38-.16v-.12h-.14Z"/>
                    <path class="cls-78" d="M57.76,31.5c0,.09-.17.16-.38.16s-.38-.07-.38-.16.17-.16.38-.16.38.07.38.16Z"/>
                  </g>
                  <g>
                    <g>
                      <path class="cls-91" d="M58.06,31.49v.14c0,.08.12.14.26.14h5.2c.15,0,.26-.06.26-.14v-.14h-5.73Z"/>
                      <path class="cls-78" d="M63.78,31.49c0,.08-.12.14-.26.14h-5.2c-.15,0-.26-.06-.26-.14h0c0-.08.12-.14.26-.14h5.2c.15,0,.26.06.26.14h0Z"/>
                    </g>
                    <g>
                      <path class="cls-91" d="M58.06,30.94v.14c0,.08.12.14.26.14h5.2c.15,0,.26-.06.26-.14v-.14h-5.73Z"/>
                      <path class="cls-78" d="M63.78,30.94c0,.08-.12.14-.26.14h-5.2c-.15,0-.26-.06-.26-.14h0c0-.08.12-.14.26-.14h5.2c.15,0,.26.06.26.14h0Z"/>
                    </g>
                  </g>
                  <path class="cls-55" d="M55.61,21.02s0,0,0,0c-.05,0-.09-.04-.1-.09l-.18-2.46-.49,1.02s-.06.06-.09.06l-2.42-.08-.2,1.06s-.06.08-.1.08c-.05,0-.09-.04-.1-.09l-.23-1.44-.33,1.76s-.06.09-.11.08c-.05,0-.09-.04-.09-.09l-.15-2.2-.51,2.31s-.06.08-.1.08c-.05,0-.09-.04-.1-.09l-.27-1.67-.25.71s-.05.07-.1.07c-.04,0-.08-.03-.09-.08l-.39-1.67-.43,1.6c-.01.05-.07.09-.12.07-.05-.01-.09-.07-.07-.12l.53-1.99s.06-.07.1-.07c.05,0,.09.03.1.08l.4,1.73.26-.76s.06-.07.1-.07c.05,0,.08.04.09.08l.24,1.54.54-2.48s.06-.08.11-.08c.05,0,.09.04.09.09l.15,2.12.29-1.56s.04-.08.1-.08c.05,0,.09.04.1.09l.23,1.45.11-.58s.06-.09.1-.08l2.44.08.63-1.3s.06-.06.11-.06c.04,0,.08.05.08.09l.14,1.92.13-.91c0-.05.05-.09.11-.09.05,0,.09.05.09.1v.38s.07-.25.07-.25c.01-.04.05-.08.1-.08.05,0,.09.03.1.07l.09.29.04-.17s.05-.08.1-.08h0l2.35.02c.06,0,.1.05.1.1,0,.06-.05.1-.1.1h0l-2.27-.02-.1.47s-.05.08-.09.08c-.04,0-.09-.03-.1-.07l-.1-.32-.16.64s-.06.08-.11.08c-.03,0-.06-.02-.08-.05l-.1.66s-.05.09-.1.09Z"/>
                  <path class="cls-45" d="M58.83,22.36h0l-2.93-.13c-.06,0-.1-.05-.1-.11,0-.06.05-.1.11-.1l2.93.13c.06,0,.1.05.1.11,0,.05-.05.1-.1.1Z"/>
                  <path class="cls-45" d="M58.83,22.36h0l-2.93-.13c-.06,0-.1-.05-.1-.11,0-.06.05-.1.11-.1l2.93.13c.06,0,.1.05.1.11,0,.05-.05.1-.1.1Z"/>
                  <path class="cls-45" d="M58.83,22.87s0,0,0,0l-2.93-.13c-.06,0-.1-.05-.1-.11,0-.06.05-.1.11-.1l2.93.13c.06,0,.1.05.1.11,0,.05-.05.1-.1.1Z"/>
                </g>
                <polygon class="cls-47" points="62.52 30.43 62.51 30.03 61.72 30.03 61.73 30.43 62.52 30.43"/>
                <g>
                  <path class="cls-88" d="M54.88,30.96c-.07-.02-.15-.04-.24-.04s-.17.01-.24.04h-.14v.12c0,.09.17.16.38.16s.38-.07.38-.16v-.12h-.14Z"/>
                  <path class="cls-78" d="M55.02,30.96c0,.09-.17.16-.38.16s-.38-.07-.38-.16.17-.16.38-.16.38.07.38.16Z"/>
                </g>
                <g>
                  <path class="cls-88" d="M54.88,31.5c-.07-.02-.15-.04-.24-.04s-.17.01-.24.04h-.14v.12c0,.09.17.16.38.16s.38-.07.38-.16v-.12h-.14Z"/>
                  <path class="cls-78" d="M55.02,31.5c0,.09-.17.16-.38.16s-.38-.07-.38-.16.17-.16.38-.16.38.07.38.16Z"/>
                </g>
              </g>
            </g>
          </g>
          <g>
            <g>
              <path class="cls-74" d="M39.55,37.57c-1.96.56-22.2,4.68-23.74,5.25-1.54.57-1.9,1.23-1.94,2.29-.04,1.05-.46,10.09-.53,11.86-.07,1.77.26,1.95.72,2.26,1.22.85,1.88.41,2.9.15,1.02-.26,20.94-6.41,22.77-6.97,1.83-.56,2.41-1.43,2.45-2.48.04-1.05,0-9.4.05-10.79.04-.97-.72-2.13-2.68-1.58Z"/>
              <path class="cls-41" d="M15.6,45.34c.04-1.05.4-1.71,1.94-2.29,1.54-.57,20.46-4.18,22.42-4.74,1.09-.31,1.8-.09,2.22.34-.2-.82-1-1.55-2.63-1.08-1.96.56-22.2,4.68-23.74,5.25-1.54.57-1.9,1.23-1.94,2.29-.04,1.05-.46,10.09-.53,11.86-.07,1.77.26,1.95.72,2.26.43.3.79.43,1.12.48-.11-.31-.17-.79-.14-1.61.07-1.77.53-11.71.56-12.76Z"/>
              <path class="cls-2" d="M15.6,45.34c.01-.3.05-.57.13-.81-.18-.07-.37-.14-.55-.21-.33-.12-.68-.22-1.05-.31-.18.32-.25.68-.26,1.1-.04,1.05-.46,10.09-.53,11.86-.07,1.77.26,1.95.72,2.26.43.3.79.43,1.12.48-.11-.31-.17-.79-.14-1.61.07-1.77.53-11.71.56-12.76Z"/>
              <path class="cls-33" d="M18.31,53.54l-.26,5.52c5.1-1.5,17.46-5.37,21.19-6.51.07-1,.32-4.62.32-4.62l-21.25,5.61Z"/>
              <path class="cls-19" d="M16.23,58.05c0,.17-.1.3-.21.3-.11,0-.19-.15-.18-.32,0-.17.1-.31.21-.3.11,0,.19.15.18.32Z"/>
              <path class="cls-19" d="M41.43,50.28c0,.17-.1.31-.21.3-.11,0-.19-.15-.18-.32,0-.17.1-.31.21-.3.11,0,.19.15.18.32Z"/>
            </g>
            <g>
              <g>
                <path class="cls-83" d="M59.81,85.95c-1.01-.09-2.72.36-3.06,1.28-.34.92.85,2.18.85,2.18.43.49.56.65,1.42.27.85-.38,1.75-.81,1.91-1.55.16-.74-.11-2.09-1.12-2.18Z"/>
                <path class="cls-63" d="M59.35,87.43c.42,1,.1,2.08-.7,2.42-.8.33-1.79-.21-2.21-1.21-.42-1-.1-2.08.7-2.42.8-.33,1.79.21,2.21,1.21Z"/>
                <path class="cls-83" d="M58.25,87.94c.12.29.03.6-.2.7-.23.1-.52-.06-.64-.35-.12-.29-.03-.6.2-.7.23-.1.52.06.64.35Z"/>
                <path class="cls-68" d="M56.29,86.58s3.12,1.59,3.36,1.65c.24.06.72-.15,1.59-.72,0,0,.21-2.22-1.74-2.61-1.95-.39-2.94.81-3.21,1.68Z"/>
                <path class="cls-41" d="M59.67,88.23c.06-.85-.14-1.76-.88-2.24-.81-.52-1.85-.38-2.4.33-.04.09-.07.17-.1.26,0,0,3.12,1.59,3.36,1.65,0,0,.02,0,.03,0Z"/>
                <path class="cls-18" d="M59.49,84.9c-1.39-.28-2.29.25-2.79.89.57-.37,1.31-.44,1.97-.08.93.51,1.24,1.52,1.18,2.51.28-.05.71-.28,1.38-.72,0,0,.21-2.22-1.74-2.61Z"/>
                <path class="cls-68" d="M58.11,83.76l.03,1.62s.54.57,1.47-.12l-.09-1.74-1.41.24Z"/>
                <path class="cls-21" d="M59.52,83.52l-1.41.24.02.85c.06-.19.06-.25.22-.21.54.12.69-.06.69.21,0,.12.01.65,0,.78-.03.17-.18.15-.34.2.24,0,.54-.07.91-.34l-.09-1.74Z"/>
                <path class="cls-33" d="M59.58,84.56l-.05-1.04-1.41.24v.77c.46.27.98.22,1.46.03Z"/>
                <path class="cls-1" d="M57.43,80.49l.24,3.42s1.11.99,2.28-.18l-.06-3.33-2.46.09Z"/>
                <path class="cls-40" d="M58.72,80.44l-.93.03c.09,1.21.16,2.43.21,3.64.21.1.51.2.85.17-.01-1.28-.04-2.57-.14-3.85Z"/>
                <path class="cls-33" d="M59.91,82.15l-.03-1.75-2.46.09.11,1.57c.7.38,1.54.34,2.38.09Z"/>
              </g>
              <polygon class="cls-41" points="56.15 77.73 56.34 82.03 59.04 83.42 61.04 82.53 60.97 78.42 56.15 77.73"/>
              <polygon class="cls-58" points="58.98 78.13 59.04 83.42 61.04 82.53 60.97 78.42 58.98 78.13"/>
              <path class="cls-74" d="M59.56,78.46s0,2.7.04,3.16c.04.46.17.85.54.77.37-.08.39-.44.39-.98s-.08-2.91-.08-2.91l-.89-.04Z"/>
            </g>
            <g>
              <path class="cls-83" d="M27,73.72c-.7-.06-1.89.25-2.12.89-.23.64.59,1.51.59,1.51.3.34.39.45.98.19.59-.26,1.21-.56,1.32-1.07.11-.51-.08-1.45-.78-1.51Z"/>
              <path class="cls-63" d="M26.68,74.74c.29.69.07,1.44-.48,1.68-.56.23-1.24-.14-1.53-.84-.29-.69-.07-1.44.48-1.67.56-.23,1.24.14,1.53.84Z"/>
              <path class="cls-83" d="M25.92,75.09c.08.2.02.42-.14.49-.16.07-.36-.04-.44-.24-.08-.2-.02-.42.14-.49.16-.07.36.04.44.24Z"/>
              <path class="cls-68" d="M24.56,74.15s2.16,1.1,2.33,1.14c.17.04.5-.1,1.1-.5,0,0,.15-1.54-1.2-1.81-1.35-.27-2.04.56-2.22,1.16Z"/>
              <path class="cls-41" d="M26.91,75.29c.04-.59-.1-1.22-.61-1.55-.56-.36-1.28-.26-1.66.23-.03.06-.05.12-.07.18,0,0,2.16,1.1,2.33,1.14,0,0,.01,0,.02,0Z"/>
              <path class="cls-18" d="M26.78,72.99c-.96-.19-1.59.17-1.93.62.39-.26.91-.3,1.36-.06.65.35.86,1.05.81,1.74.19-.04.49-.19.96-.5,0,0,.15-1.54-1.2-1.81Z"/>
              <path class="cls-68" d="M25.83,72.2l.02,1.12s.37.39,1.02-.08l-.06-1.2-.98.17Z"/>
              <path class="cls-21" d="M26.8,72.03l-.98.17v.59c.05-.13.05-.17.17-.14.37.08.48-.04.48.15,0,.09,0,.45,0,.54-.02.12-.12.11-.24.14.16,0,.38-.05.63-.23l-.06-1.2Z"/>
              <path class="cls-33" d="M26.84,72.75l-.04-.72-.98.17v.53c.32.19.68.15,1.01.02Z"/>
              <path class="cls-1" d="M25.35,69.93l.17,2.37s.77.69,1.58-.12l-.04-2.31-1.7.06Z"/>
              <path class="cls-40" d="M26.25,69.9l-.64.02c.06.84.11,1.68.15,2.53.15.07.35.14.59.12,0-.89-.03-1.78-.09-2.67Z"/>
              <path class="cls-33" d="M27.08,71.09l-.02-1.22-1.7.06.08,1.09c.49.26,1.07.23,1.65.06Z"/>
              <polygon class="cls-41" points="23.5 65.18 23.69 69.48 26.39 70.87 28.38 69.97 28.32 65.86 23.5 65.18"/>
              <polygon class="cls-58" points="26.33 65.57 26.39 70.87 28.38 69.97 28.32 65.86 26.33 65.57"/>
              <path class="cls-74" d="M26.91,65.9s0,2.7.04,3.16c.04.46.17.85.54.77.37-.08.39-.44.39-.98s-.08-2.91-.08-2.91l-.89-.04Z"/>
            </g>
            <polygon class="cls-41" points="21.55 61.83 21.61 65.57 61.18 80.59 88.97 71.05 89.16 67.81 61.37 76.97 21.55 61.83"/>
            <polygon class="cls-2" points="21.55 61.83 21.61 65.57 61.18 80.59 88.97 71.05 89.16 67.81 61.37 76.97 21.55 61.83"/>
            <polygon class="cls-41" points="61.18 80.59 88.97 71.05 89.16 67.81 61.37 76.97 61.18 80.59"/>
            <polygon class="cls-28" points="61.18 80.59 88.97 71.05 89.16 67.81 61.37 76.97 61.18 80.59"/>
            <polygon class="cls-2" points="21.55 61.83 21.61 63.83 61.18 78.84 88.97 71.05 89.16 67.81 61.37 76.97 21.55 61.83"/>
            <polygon class="cls-41" points="15.63 58.8 63.57 77.12 63.61 79.03 15.67 60.67 15.63 58.8"/>
            <polygon class="cls-41" points="15.63 58.8 63.57 77.12 89.97 68.31 42.03 49.95 15.63 58.8"/>
            <polygon class="cls-6" points="15.63 58.8 63.57 77.12 89.97 68.31 42.03 49.95 15.63 58.8"/>
            <g>
              <path class="cls-41" d="M46.93,36.44c.62-.4.86-.45,1.39-.59.52-.14.8.55,1.19,1.13.39.58,5.69,10.23,5.94,10.81.25.58-.02.86-1.2,1.56l-.93.15.64-1.71-6.25-11.06-.78-.29Z"/>
              <path class="cls-2" d="M46.93,36.44c.62-.4.86-.45,1.39-.59.52-.14.8.55,1.19,1.13.39.58,5.69,10.23,5.94,10.81.25.58-.02.86-1.2,1.56l-.93.15.64-1.71-6.25-11.06-.78-.29Z"/>
              <path class="cls-41" d="M54.27,47.27c-.44-.74-5.56-9.47-6.12-10.36-.55-.88-1-.66-1.77-.15-.77.52-2.1,1.4-2.62,1.92-.88.88-.52,1.11.15,2.25.66,1.14,4.57,8.14,5.23,9.55.66,1.4,1.55,1.07,2.06.74.52-.33,1.7-1.07,2.84-1.73,1.14-.66.66-1.47.22-2.21ZM52.78,48.68c-.84.49-1.17.54-1.55.78-.38.24-1.03.49-1.52-.54-.49-1.03-4.02-7.22-4.5-8.06-.49-.84-.76-1.01-.11-1.66.38-.38.82-.54,1.39-.92.57-.38.9-.54,1.3.11.41.65,4.83,8.12,5.16,8.66.33.54.68,1.14-.16,1.63Z"/>
              <path class="cls-58" d="M50.41,48.74c-.49-1.03-4.01-7.22-4.5-8.06-.49-.84-.76-1.01-.11-1.66.38-.38.82-.54,1.39-.92.06-.04.13-.08.18-.12-.25-.09-.52.06-.88.3-.57.38-1.01.54-1.39.92-.65.65-.38.82.11,1.66.49.84,4.02,7.03,4.5,8.06.48,1,1.1.8,1.49.56-.27-.04-.55-.24-.79-.75Z"/>
            </g>
            <g>
              <path class="cls-10" d="M19.64,44.51s8.54,16.39,9.16,17.01c.62.62.87.81,1.74,1.18.87.37,34.4,12.34,35.08,12.59.69.25,1,.87,2.49.44,1.5-.44,21.31-7.79,21.31-7.79l.19-4.55s-37.14-12.77-37.33-12.96c-.19-.19-7.29-12.46-7.29-12.46l-23.18,4.42-2.18,2.12Z"/>
              <path class="cls-31" d="M81.96,61.96c-2.62-1.12-6.04-1.74-8.91-2.49-6.98-1.99-14.08-2.24-20.56-5.48-3.54-1.77-3.15-5.7-3.46-9.09-1.94-3.33-4.02-6.93-4.02-6.93l-19.39,3.7c-.54,5.7,2.67,11.34,6.93,15.06-.1.34-.27.69-.12.99.22.55.81.39,1.2-.08,1.24.04,2.56-.6,3.79-1.04-.95.95-1.91,2.02-3.19,2.55,1.66,1.47,3.8,2.3,5.93,2.94,8.6,2.62,16.45,6.11,24.8,9.1,1,.36,1.96.66,2.99,1,16.54-4.56,20.48-8.02,20.81-8.23-2.12-.83-4.65-1.1-6.79-1.99Z"/>
              <path class="cls-23" d="M19.64,44.51s8.54,16.39,9.16,17.01c.62.62.87.81,1.74,1.18.87.37,34.4,12.34,35.08,12.59.69.25,1,.87,2.49.44,1.5-.44,21.31-7.79,21.31-7.79l.19-4.55s-22.12,8.72-22.31,8.54c-.19-.19-36.45-12.9-36.45-12.9l-9.04-16.64-2.18,2.12Z"/>
              <path class="cls-23" d="M52.31,50.44c-2.45.66-20.23,7.48-21.19,7.87-.04.07-.1.14-.19.21-1.03.8-1.41,2.13-1.66,3.45.35.3.65.47,1.27.74.87.37,34.4,12.34,35.08,12.59.69.25,1,.87,2.49.44,1.5-.44,21.31-7.79,21.31-7.79l.19-4.55s-36.5-12.55-37.31-12.95Z"/>
              <path class="cls-10" d="M26.23,40.89s2.37-2.37,9.55-3.16c0,0,3.82-1,8.23-1.5,0,0,.54-.62.79-.54.25.08-.08.87-.08.87,0,0,5.11,5.11,6.07,13.17,0,0,1.58,1.33.29,1,0,0-4.94,2.08-8.1,2.45,0,0-3.99,2.95-8.68,3.66,0,0-.42.87-.87.87s-.04-1.29-.04-1.29c0,0-3.96-3.53-5.73-8.1-.5-1.29-1.83-5.32-1.83-6.44,0,0-1.04-1-.66-1.29.37-.29,1.08.29,1.08.29Z"/>
              <path class="cls-3" d="M36.05,38.16c1.52-.09,3.04-.29,4.53-.57.7-.13,1.4-.27,2.07-.48.35-.1.66-.25.98-.4.22-.1.45-.19.69-.22.03,0,.04.02.05.05.04.4.03.81.06,1.21.1-.21.21-.41.35-.59.01-.02.04-.03.06-.02.07.05.13.09.19.15.81.69,1.32,1.7,1.76,2.65.54,1.15,1.07,2.31,1.59,3.47.58,1.29,1.09,2.61,1.54,3.95.18.54.35,1.08.57,1.6.06.15.14.33.25.49-1.05-7.88-6.03-12.87-6.03-12.87,0,0,.33-.79.08-.87-.25-.08-.79.54-.79.54-4.4.5-8.23,1.5-8.23,1.5-2.72.3-4.76.83-6.23,1.36.74-.24,1.49-.43,2.24-.57,1.41-.25,2.83-.29,4.25-.38Z"/>
              <path class="cls-38" d="M30.11,42.75c.12.78-.1,1.55-.11,2.33,0,.83.21,2.03.63,2.75.42.71,1.02,1.56,1.66,2.08.59.48,1.57.75,2.04,1.37.81,1.08.9,1.97.93,3.31.38-.94.53-1.97.43-2.98,0-.05.05-.09.09-.09,1.49-.07,3.02.11,4.5-.13.4-.06.8-.16,1.18-.28.28-.12.55-.25.8-.42.34-.22.68-.46,1.03-.67.25-.25.48-.53.71-.82.71-.89,1.46-1.56,2.67-1.49.89.06,1.85.34,2.53.94-.19-2.44-3.64-2.1-4.99-3.62-2.15-2.41.49-5.32.3-8-.27.5-.6,1-1.13,1.23-.59.25-1.28,0-1.83-.21-.79-.31-1.76-.78-2.73-.99-1.83.36-3.04.68-3.04.68-.23.03-.46.05-.69.08-.75.36-1.38.92-1.96,1.52-.52.52-1.02,1.2-1.71,1.5-.63.28-1.41.22-2.08.17-.59-.05-1.18-.13-1.77-.12,1.08.25,2.36.72,2.53,1.87Z"/>
              <path class="cls-38" d="M50.47,50.13c-.46.06-.82.26-1.25.38-.73.21-1.29-.15-1.91-.51-.83-.49-1.78-.65-2.73-.39-.43.12-.81.32-1.17.56-.46.44-.98.77-1.59,1-.1.04-.21.08-.31.11-.5.22-1.03.39-1.55.57-.73.25-1.48.49-2.01,1.09-.5.58-.73,1.28-.83,2.03,0,.04-.02.08-.07.09-.51.12-1.02.21-1.52.36-.5.15-1.1.31-1.43.74-.04.05-.15.02-.16-.04-.13-.78-.6-1.44-.99-2.11-.4-.69-.66-1.43-.96-2.17-.66-1.6-1.41-3.16-2.12-4.74-.62-1.38-1.27-2.8-2.23-3.98-.23-.28-.46-.55-.73-.79-.15-.14-.59-.36-.64-.54-.11-.41-.22-.77-.63-.99-.18-.09-.35-.15-.54-.17-.28.32.7,1.26.7,1.26,0,1.12,1.33,5.15,1.83,6.44,1.77,4.57,5.73,8.1,5.73,8.1,0,0-.42,1.29.04,1.29s.87-.87.87-.87c4.69-.71,8.68-3.66,8.68-3.66,3.16-.37,8.1-2.45,8.1-2.45.81.21.49-.24.14-.6-.24-.03-.49-.04-.74-.01Z"/>
              <path class="cls-86" d="M40.27,50.37s2.91-1.62,5.61.62c0,0,2.41.21,3.41,1.04,0,0-.58,3.78-3.53,5.44-2.95,1.66-5.77,1.08-6.77-1.08-1-2.16-1.5-4.4,1.29-6.02Z"/>
              <path class="cls-14" d="M45.88,50.99c-.18-.15-.37-.29-.55-.4-.34.12-.67.25-1.04.24-.18,0-.5-.2-.63-.24-.02,0-.04,0-.06-.02.13.11.25.24.35.41.05.09,0,.18-.09.22-.79.33-1.47.63-2.12,1.18-.26.23-.6.59-.94.68-.27.07-.47-.27-.62-.42-.44-.42-.9-.77-1.46-.9-.94,1.4-.48,3.05.26,4.65,1,2.16,3.82,2.74,6.77,1.08,2.95-1.66,3.53-5.44,3.53-5.44-1-.83-3.41-1.04-3.41-1.04Z"/>
              <path class="cls-87" d="M39.02,50.51s.85,1.18,1.66.75c.81-.44.1-1.27.1-1.27l-1.77.52Z"/>
              <path class="cls-34" d="M41.55,50.81c.44-.29.84-.64,1.21-1.01-1.43-.03-2.49.56-2.49.56-.75.44-1.26.92-1.59,1.44,1.01-.09,2.04-.44,2.87-.99Z"/>
              <path class="cls-56" d="M42.99,38.13c.1-.14.17-.3.21-.46.05-.2.07-.54-.14-.65-.03-.02-.06,0-.06.04,0,0-.02.01-.03.02-.22.3-.59.51-.98.61-2.03-.95-4.61-.94-6.66-.07-1.66.71-3.34,2.4-3.21,4.31-.18-.28-.18-.73-.36-1.01-.03-.04-.1-.05-.13,0-.2.27-.15.66-.09.96.03.14.08.33.18.48-.4-.12-.97-.11-1.15.22,0,0,0,.02,0,.03-.02.02,0,.05.02.05.21,0,.38.05.56.15.02,0,.04.02.05.03-.38.39-.55.97-.65,1.48-.07.34-.09.69-.13,1.03-.02.25-.07.55.09.77.03.04.11.05.14,0,.1-.14.18-.29.25-.45-.06.33-.08.66,0,1,.03.12.13.73.38.56.11-.07.15-.27.18-.46,0,.12.02.25.04.37.04.25.08.49.1.74.02.26-.04.48-.09.73,0,0,0,.01,0,.02-.02.02,0,.06.02.05.3-.05.45-.36.56-.61,0,0,0-.02.01-.03.02.26.1.52.19.78.1.27.26.68.57.75.03,0,.08-.01.09-.05.07-.23.13-.49.15-.75.24.75.81,1.4,1.45,1.84.11.08.57.36.63.07.04-.17-.01-.34-.05-.51-.04-.19-.08-.43-.19-.6-.01-.02-.04-.02-.06,0-.13-.35-.5-.6-.72-.91-.39-.56-.53-1.22-.52-1.89.03-1.33.6-2.64,1.36-3.71.76-1.08,1.82-1.78,3.05-2.23.62-.23,1.27-.39,1.92-.46.77-.08,1.42.16,2.14.33.16.23.37.43.58.61.26.23.51.53.88.53.04,0,.07-.03.07-.07.04-.22.07-.47.05-.7.1.13.22.24.37.33.04.02.08-.01.09-.05.14-.48.04-1.01-.17-1.45-.08-.15-.19-.35-.33-.51.27.07.55.09.83.06.03,0,.07-.04.06-.08-.15-.73-.88-1.17-1.6-1.27Z"/>
              <path class="cls-15" d="M34.96,49.59s-.04-.02-.06,0c-.13-.35-.5-.6-.72-.91-.39-.56-.53-1.22-.52-1.89.02-.7.18-1.39.45-2.05,0-.18,0-.36,0-.55-.1.38-.2.75-.33,1.12-.17.45-.42,1.18-.97,1.28-.62.12-.81-.72-.81-1.16,0-.52.07-1.1.25-1.62-.39.36-.91.76-.84.19.06-.49.57-1.78,1.2-1.81-.12-.73-.16-1.48-.01-2.2-.34.6-.53,1.26-.49,1.95-.18-.28-.18-.73-.36-1.01-.03-.04-.1-.05-.13,0-.2.27-.15.66-.09.96.03.14.08.33.18.48-.4-.12-.97-.11-1.15.22,0,0,0,.02,0,.03-.02.02,0,.05.02.05.21,0,.38.05.56.15.02,0,.04.02.05.03-.38.39-.55.97-.65,1.48-.07.34-.09.69-.13,1.03-.02.25-.07.55.09.77.03.04.11.05.14,0,.1-.14.18-.29.25-.45-.06.33-.08.66,0,1,.03.12.13.73.38.56.11-.07.15-.27.18-.46,0,.12.02.25.04.37.04.25.08.49.1.74.02.26-.04.48-.09.73,0,0,0,.01,0,.02-.02.02,0,.06.02.05.3-.05.45-.36.56-.61,0,0,0-.02.01-.03.02.26.1.52.19.78.1.27.26.68.57.75.03,0,.08-.01.09-.05.07-.23.13-.49.15-.75.24.75.81,1.4,1.45,1.84.11.08.57.36.63.07.04-.17-.01-.34-.05-.51-.04-.19-.08-.43-.19-.6Z"/>
              <path class="cls-15" d="M44.4,39.22c-.48,0-.96-.29-1.4-.53.35.52.79,1.29.52,1.77-.2.36-.6,0-.93-.4.18.42.31.88.03,1.02-.04.02-.07.03-.11.04.07.07.15.14.23.21.26.23.51.53.88.53.04,0,.07-.03.07-.07.04-.22.07-.47.05-.7.1.13.22.24.37.33.04.02.08-.01.09-.05.14-.48.04-1.01-.17-1.45-.08-.15-.19-.35-.33-.51.27.07.55.09.83.06.03,0,.07-.04.06-.08-.01-.07-.03-.13-.06-.19-.04.01-.08.02-.14.02Z"/>
              <path class="cls-66" d="M42.01,40.02s.79.08,1.21,1.45c.42,1.37.42,1.16.96,1.7.54.54,1.5,1.87.21,4.53-1.29,2.66-5.77,4.45-8.89,2.2-3.12-2.24-2.2-4.49-1.08-6.4,1.12-1.91,7.6-3.49,7.6-3.49Z"/>
              <path class="cls-27" d="M42.22,48.8c.13-.18.31-.32.51-.41.14-.06.29-.13.43-.11-.28-.32-.78.15-.95.52Z"/>
              <path class="cls-27" d="M43.19,47.44c-.15,0-.3.02-.44.07-.25.09-.48.21-.67.41-.27.28-.48.63-.54,1.01.23-.33.46-.67.8-.89.21-.14.46-.26.71-.32.22-.05.4-.02.61-.03-.05-.17-.33-.25-.48-.25Z"/>
              <path class="cls-27" d="M34.62,47.22c-.28-.07-.31.27-.31.47,0,.03-.03.05-.06.04-.05.49.1,1.04.54,1.24-.14-.23-.3-.48-.27-.75.01-.11.03-.22.1-.31.08-.09.23-.18.26-.3.05-.17-.1-.36-.27-.4Z"/>
              <path class="cls-37" d="M44.17,43.18c-.54-.54-.54-.33-.96-1.7-.42-1.37-1.21-1.45-1.21-1.45,0,0-6.48,1.58-7.6,3.49-1.12,1.91-2.04,4.15,1.08,6.4,3.12,2.24,7.6.46,8.89-2.2,1.29-2.66.33-3.99-.21-4.53ZM34.63,48.43c.06.22.2.41.31.61.02.03-.01.08-.05.07-.75-.22-.88-1.24-.61-1.86,0-.02.03-.03.04-.02.03-.04.08-.07.14-.09.17-.04.33.05.43.18.1.12.13.31.02.43-.19.21-.38.37-.29.69ZM44.15,47.51c-.53,1.02-1.4,1.93-2.46,2.38-.99.42-2.37.51-3.28-.15-.14-.1-.26-.21-.38-.32-.68-.55-1.07-1.39-1.28-2.24-.14-.58-.24-1.19-.15-1.79.05-.32.13-.63.3-.91.16-.26.34-.5.52-.75.02-.03.07-.03.08.01.03.09.03.18.04.27.6-.35.93-1.03,1.35-1.56.02-.03.07-.01.08.02.02.1.02.9.17.84.21-.09.42-.39.56-.59.14-.33.29-.65.42-.98,0-.03.04-.05.07-.03.39.28.65.65,1.11.81.15.05.35.09.39-.12.02-.1.02-.19.02-.29-.01-.17-.04-.33-.07-.5,0-.03.01-.06.04-.06.47.03,1.22.12,1.44.61.16.35.23.73.46,1.05.13.17.26.33.36.51.15.2.31.4.43.62.55.98.28,2.2-.21,3.15Z"/>
              <path class="cls-56" d="M43.14,39.38c-.07-.15-.14-.32-.23-.47-.44-.97-1.59-1-5.24-.38-3.97.66-5.23,3.99-5.09,7.33.15,3.34,2.12,3.74,2.12,3.74.87,1.45,2.26,1.06,2.26,1.06-.85-.75-1.14-1.54-1.14-1.54-.79.58-1.87-.42-1.75-1.43.08-.63.47-.72.77-.69.07.09.13.17.19.25.37.45,1.08,1.06,1.67,1.17.06.01.09-.02.1-.07.04-.02.07-.07.03-.12-.54-.61-.73-1.53-.93-2.3-.12-.46-.18-.91-.2-1.35.45-.23.8-.71,1.08-1.1.01-.02.03-.04.04-.06-.03.15-.08.31-.12.46-.01.03-.02.06-.03.09,0,.01,0,.03,0,.04,0,0,0,0,0,.01-.03.07.05.14.11.09.43-.3.69-.66.87-1.07,0,.02,0,.04,0,.05,0,.02,0,.04,0,.05,0,.03.03.05.06.06.02.01.05.01.07,0,.46-.19.75-.64,1.04-1.03.14-.2.28-.41.4-.63-.02.23-.04.46.03.67,0,0,0,0,0,.01,0,.05.06.09.12.07.34-.13.51-.58.61-.9.02-.06.04-.12.06-.19.31.44.82.79,1.27.98.03.01.06,0,.08,0,.04.02.1,0,.11-.06.05-.36-.06-.73-.16-1.07.03.02.07.04.1.05.41.23.9.4,1.37.39.03.06.1.05.13,0,.04.04.14.03.14-.04.01-.13,0-.26-.03-.39.14.04.32.08.43-.01.06.01.13-.02.13-.1-.02-.57-.25-1.07-.47-1.59Z"/>
              <path class="cls-15" d="M43.52,40.46c-.2.36-.6,0-.93-.4.18.42.31.88.03,1.02-.65.31-1.19-.36-1.53-.91.05.46.15.92.12,1.38,0,.06-.06.12-.12.09-.64-.25-.66-.96-.77-1.56-.19.58-.34,1.18-.71,1.68-.05.07-.18.05-.18-.05,0-.51.2-1,.25-1.5-.45.84-.85,1.73-1.58,2.38-.06.05-.17.02-.16-.07.01-.31.09-.62.15-.92-.29.67-.49,1.4-1.1,1.84-.06.04-.14-.01-.14-.08,0-.52.15-1.01.24-1.51-.14.28-.26.58-.39.85-.18.35-.38.84-.72,1.07-.34.22-.49.06-.57-.22-.08.67-.15,1.34-.18,2-.01.28.04.77-.29.89-.39.14-.6-.61-.67-.84-.14-.48-.16-.94-.14-1.41-.1.38-.2.75-.33,1.12-.17.45-.42,1.18-.97,1.28-.06.01-.11.01-.16,0,.38,2.67,2.05,3,2.05,3,.87,1.45,2.26,1.06,2.26,1.06-.85-.75-1.14-1.54-1.14-1.54-.79.58-1.87-.42-1.75-1.43.08-.63.47-.72.77-.69.07.09.13.17.19.25.37.45,1.08,1.06,1.67,1.17.06.01.09-.02.1-.07.04-.02.07-.07.03-.12-.54-.61-.73-1.53-.93-2.3-.12-.46-.18-.91-.2-1.35.45-.23.8-.71,1.08-1.1.01-.02.03-.04.04-.06-.03.15-.08.31-.12.46-.01.03-.02.06-.03.09,0,.01,0,.03,0,.04,0,0,0,0,0,.01-.03.07.05.14.11.09.43-.3.69-.66.87-1.07,0,.02,0,.04,0,.05,0,.02,0,.04,0,.05,0,.03.03.05.06.06.02.01.05.01.07,0,.46-.19.75-.64,1.04-1.03.14-.2.28-.41.4-.63-.02.23-.04.46.03.67,0,0,0,0,0,.01,0,.05.06.09.12.07.34-.13.51-.58.61-.9.02-.06.04-.12.06-.19.31.44.82.79,1.27.98.03.01.06,0,.08,0,.04.02.1,0,.11-.06.05-.36-.06-.73-.16-1.07.03.02.07.04.1.05.41.23.9.4,1.37.39.03.06.1.05.13,0,.04.04.14.03.14-.04.01-.13,0-.26-.03-.39.14.04.32.08.43-.01.06.01.13-.02.13-.1,0-.19-.04-.36-.08-.54,0,.01,0,.02-.01.03Z"/>
              <path class="cls-87" d="M36.09,48.69c-.38.59-1.08.63-1.58.18-.01,0-.03,0-.02.02.21.27.52.42.87.42.34,0,.72-.26.75-.61,0,0,0-.01-.01,0Z"/>
              <path class="cls-87" d="M35.62,48.01c-.15-.24-.44-.41-.72-.27-.12.06-.19.18-.24.3-.06.18-.01.33.07.49,0,0,.02,0,.01,0-.05-.24,0-.51.18-.67.12-.1.25-.11.38-.06,0,.05,0,.11-.01.16,0,.09-.03.18-.07.27,0,.02.02.03.03.02.07-.1.15-.26.14-.4.08.05.15.11.21.17,0,0,.02,0,.02-.01Z"/>
              <path class="cls-87" d="M43.17,44.67c-.13-.18-.44-.23-.63-.13,0,0,0,0-.01,0-.03-.05-.08-.09-.12-.13-.06-.06-.13-.11-.2-.15-.01,0-.02,0-.02.02.04.06.09.12.14.18.04.05.07.1.11.15-.19.16-.29.41-.36.64,0,.01.02.02.02,0,.08-.2.18-.39.35-.53.22-.18.62-.16.68.17.08.43-.3.81-.6,1.05-.02.02,0,.07.03.05.45-.2,1-.84.62-1.34Z"/>
              <path class="cls-67" d="M39.59,42.77c-.22-.27-.68-.14-.92.03-.23.17-.44.56-.27.83.02.04.07.02.09,0,.12-.2.15-.42.36-.58.09-.07.2-.1.32-.12.12-.01.22.05.33.03.09-.01.16-.12.09-.2Z"/>
              <path class="cls-67" d="M43,41.65c-.18-.14-.46-.15-.65-.02-.18.13-.25.38-.23.59,0,.06.09.1.13.04.09-.12.16-.34.3-.4.14-.06.44.16.49-.08,0-.05,0-.11-.05-.14Z"/>
              <path class="cls-59" d="M40,43.94s-.04-.02-.04,0c-.03.27-.12.48-.42.49-.26.01-.54-.1-.73-.27-.02-.01-.04,0-.03.03.2.25.52.43.85.4.34-.03.47-.35.37-.65Z"/>
              <path class="cls-59" d="M43.56,42.7s-.05-.03-.05,0c-.03.24-.2.52-.47.5-.22-.02-.38-.18-.52-.32,0-.01-.03,0-.03.01.04.26.32.49.58.49.38,0,.5-.34.49-.67Z"/>
              <path class="cls-10" d="M34.87,58.96s2.2-1.41,2.99-2.04c0,0,.13-.25.42-.66.29-.42,5.9-8.35,14.33-5.44,0,0,5.03,1.54,7.77,4.11,0,0,7.77.5,15.45,4.61,0,0,3.03.04,7.19,1.91,4.15,1.87,5.03,2.49,5.03,2.49,0,0-5.73,3.12-9.64,4.4-3.9,1.29-7.48,2.66-8.89,3.03-1.41.37-2.53.37-4.24-.71-1.7-1.08-7.39-2.58-9.26-3.49-1.87-.91-5.82-2.41-7.81-3.07-1.99-.66-4.4-1.7-5.36-1.87-.96-.17-5.69-1.7-7.98-3.28Z"/>
              <path class="cls-69" d="M42.08,56.54c.43-.61.9-1.16,1.49-1.62,1.34-1.04,2.99-1.86,4.6-2.4,1.74-.58,3.63-.86,5.46-.73.76.06,1.5.16,2.24.3-1.79-.82-3.26-1.27-3.26-1.27-8.43-2.91-14.04,5.03-14.33,5.44-.29.42-.42.66-.42.66-.79.62-2.99,2.04-2.99,2.04.6.42,1.37.83,2.2,1.21,1.16-.93,2.51-1.59,3.93-1.99.39-.52.69-1.1,1.07-1.65Z"/>
              <path class="cls-4" d="M57.76,54.4c1.72,1.08,3.23,2.55,4.66,3.99.97.97,2.08,2.13,2.55,3.48-.47-2.71-2.2-5.06-4.31-6.9-.19-.02-.29-.02-.29-.02-2.74-2.58-7.77-4.11-7.77-4.11-2-.69-3.84-.77-5.49-.48,1.44.12,2.85.5,4.21,1.01,2.21.82,4.44,1.79,6.43,3.05Z"/>
              <path class="cls-4" d="M80.16,62c-1.11-.55-2.29-.95-3.5-1.2.2.46.33.93.35,1.45,0,.1-.12.12-.18.05-.66-.88-1.55-1.6-2.44-2.24-1.07-.77-2.22-1.46-3.43-2-1.86-.84-4.63-1.78-6.48-.47,3.32.07,6.63,1.37,9.35,3.21,1.61,1.09,3.42,2.56,4.43,4.36-.24-1.08-.41-2.18-.79-3.23-.03-.07.05-.13.12-.12,1.91.39,3.77,1.11,5.26,2.38-.64-.98-1.66-1.69-2.7-2.2Z"/>
              <path class="cls-38" d="M83.02,61.46c-4.15-1.87-7.19-1.91-7.19-1.91-7.69-4.11-15.45-4.61-15.45-4.61-.62-.58-1.36-1.11-2.13-1.59.99.88,1.97,1.78,2.99,2.63,1.55,1.3,3.08,2.87,3.73,4.84-.16-1.39-1.29-2.64-1.84-3.87-.03-.06,0-.12.06-.14,2.33-.73,4.94.39,7.11,1.17,1.21.44,2.61.78,3.68,1.53.97.68,1.55,1.76,2.5,2.46.03-.3-.07-.56-.04-.85.02-.16.1-.24.25-.31.64-.27,1.47.01,2.06.26.81.34,1.56.78,2.34,1.18.6.3,1.26.44,1.88.69.41.17.66.39.33.81-.43.55-1.15.89-1.77,1.19-1.78.87-3.65,1.63-5.53,2.27-1.39.48-2.81.89-4.26,1.19-1.3.27-2.63.55-3.97.38-2.64-.33-4.99-1.65-7.45-2.57-.09-.03-.09-.15,0-.18,1.08-.36,2.25-.62,3.23-1.24.76-.47,1.2-1.11,1.33-1.86-.16.24-.38.45-.69.62-1.06.58-2.37.67-3.55.69-3.47.05-7.07-.57-10.29-1.86-2.45-.98-4.86-2.28-6.91-3.95-1.47-1.19-2.78-2.8-2.88-4.7-1.37,1.24-2.17,2.37-2.27,2.52-.29.42-.42.66-.42.66-.79.62-2.99,2.04-2.99,2.04,2.28,1.58,7.02,3.12,7.98,3.28.96.17,3.37,1.2,5.36,1.87,1.99.66,5.94,2.16,7.81,3.07,1.87.91,7.56,2.41,9.26,3.49,1.7,1.08,2.82,1.08,4.24.71,1.41-.37,4.99-1.74,8.89-3.03,3.91-1.29,9.64-4.4,9.64-4.4,0,0-.87-.62-5.03-2.49Z"/>
            </g>
            <path class="cls-58" d="M18.4,58.92c0,.07-.13.13-.28.13s-.28-.06-.28-.13.13-.14.28-.14.28.06.28.14Z"/>
            <path class="cls-41" d="M13.76,48s1.26.33,1.68.5c.16.06.93-.19,1.31-.19s.34.37.31.78c-.03.41-.12,4.33-.19,4.86-.06.53-.28.5-.87.62-.59.12-.78.31-1.56.03-.78-.28-1.4-.16-1.34-.78.06-.62.06-4.42.12-5.11.06-.69.53-.72.53-.72Z"/>
            <path class="cls-43" d="M16.75,48.31c-.37,0-1.15.25-1.31.19-.05-.02-.11-.04-.17-.06-.02,1.98-.1,4.47-.24,6.31.35.03.56-.09.97-.17.59-.12.81-.09.87-.62.06-.53.16-4.46.19-4.86.03-.41.06-.78-.31-.78Z"/>
            <path class="cls-12" d="M14.84,54.38c-.6-.04-1.17-.27-1.74-.47,0,.52.6.42,1.34.69.78.28.97.09,1.56-.03.56-.12.79-.1.86-.54-.67.18-1.32.41-2.02.36Z"/>
            <path class="cls-6" d="M15.01,48.75c.58.21.66.17,1.68-.13.13-.04.25-.09.36-.09-.04-.13-.12-.22-.3-.22-.37,0-1.15.25-1.31.19-.42-.17-1.68-.5-1.68-.5,0,0-.31.02-.46.4.21-.19,1.14.14,1.71.35Z"/>
            <g>
              <g>
                <path class="cls-41" d="M19.98,42.81c.69-.45.97-.51,1.57-.67.59-.16.9.62,1.34,1.28.44.65,6.42,11.53,6.7,12.18.28.65-.03.97-1.35,1.76l-1.05.17.72-1.93-7.04-12.46-.88-.33Z"/>
                <path class="cls-2" d="M19.98,42.81c.69-.45.97-.51,1.57-.67.59-.16.9.62,1.34,1.28.44.65,6.42,11.53,6.7,12.18.28.65-.03.97-1.35,1.76l-1.05.17.72-1.93-7.04-12.46-.88-.33Z"/>
                <path class="cls-41" d="M28.26,55.02c-.5-.83-6.27-10.68-6.9-11.67-.62-1-1.12-.75-1.99-.17-.87.58-2.37,1.58-2.95,2.16-1,1-.58,1.25.17,2.53.75,1.29,5.15,9.18,5.9,10.76.75,1.58,1.74,1.2,2.33.83.58-.37,1.91-1.2,3.2-1.95,1.29-.75.75-1.66.25-2.49ZM26.58,56.61c-.95.55-1.32.61-1.75.88-.43.28-1.16.55-1.72-.61-.55-1.16-4.53-8.14-5.08-9.09-.55-.95-.86-1.13-.12-1.87.43-.43.92-.61,1.56-1.04.64-.43,1.01-.61,1.47.12.46.73,5.44,9.15,5.81,9.76.37.61.77,1.29-.18,1.84Z"/>
                <path class="cls-58" d="M23.91,56.67c-.55-1.16-4.53-8.14-5.08-9.09-.55-.95-.86-1.13-.12-1.87.43-.43.92-.61,1.56-1.04.07-.05.14-.09.21-.13-.28-.11-.58.07-1,.34-.64.43-1.13.61-1.56,1.04-.74.74-.43.92.12,1.87.55.95,4.53,7.92,5.08,9.09.54,1.13,1.24.9,1.68.64-.3-.05-.62-.27-.89-.84Z"/>
              </g>
              <g>
                <path class="cls-58" d="M24.28,57.29c0-1.07-.34-1.69-1.07-1.69s-1.18.38-1.18.91c0,1.32-.04,5.4-.04,6.09s.46,1.51,1.3,1.57c.84.06,1.07-.53,1.07-1.85s-.08-3.95-.08-5.02Z"/>
                <path class="cls-62" d="M23.85,57.28c0-1.06-.28-1.68-.87-1.68s-.97.37-.97.9c0,1.31-.03,5.36-.03,6.04s.37,1.5,1.06,1.56c.69.06.87-.53.87-1.84s-.06-3.93-.06-4.99Z"/>
                <path class="cls-58" d="M23.14,62.66c0,.25-.12.45-.26.45s-.26-.2-.26-.45.12-.45.26-.45.26.2.26.45Z"/>
                <path class="cls-58" d="M23.15,56.91c0,.25-.12.45-.27.45s-.26-.2-.26-.45.12-.45.26-.45.27.2.27.45Z"/>
              </g>
            </g>
            <g>
              <path class="cls-74" d="M58.67,68.85c-1.79-.66-12.38-4.9-13.25-5.23-.29-.11-.55-.13-.77-.08-.44.1-1.87.77-1.91,1.28h0c.21-.5.74-.76,1.44-.49.87.33,11.47,4.57,13.25,5.23,1.79.66,1.99,1.08,1.99,2.12v6.4c0,1.57-.91,1.68-1.62,1.45.71.37,2.86-.29,2.86-2.15v-6.4c0-1.04-.21-1.45-1.99-2.12Z"/>
              <g class="cls-42">
                <path class="cls-41" d="M59.08,70.47c.44-.21.88-.41,1.33-.6-.26-.36-.76-.65-1.74-1.01-1.79-.66-12.38-4.9-13.25-5.23-.29-.11-.55-.13-.77-.08-.44.1-1.87.77-1.91,1.28h0c.21-.5.74-.76,1.44-.49.87.33,11.47,4.57,13.25,5.23.89.33,1.38.6,1.66.91Z"/>
              </g>
              <path class="cls-41" d="M57.42,69.56c-1.79-.66-12.38-4.9-13.25-5.23-.87-.33-1.48.16-1.54.91-.12,1.62,0,5.77,0,6.56s-.08,1.62.91,2.12c1,.5,13.17,5.07,13.88,5.44.71.37,1.99.58,1.99-1.29v-6.4c0-1.04-.21-1.45-1.99-2.12ZM58.21,77.04c0,.17-.01.31-.04.43-.18.82-.91.68-1.33.46-.49-.26-11.91-4.51-12.59-4.85-.69-.34-.63-.92-.63-1.46s-.04-4.2.04-5.31c.03-.45.36-.77.84-.69.07.01.14.03.22.06.6.23,10.93,4.25,12.17,4.71,1.23.46,1.37.74,1.37,1.46s-.04,3.91-.04,5.2Z"/>
              <path class="cls-58" d="M45.07,72.45c-.69-.34-.63-.92-.63-1.46s-.04-4.2.04-5.31c0-.02,0-.04,0-.07-.48-.08-.8.24-.84.69-.09,1.12-.04,4.77-.04,5.31s-.06,1.12.63,1.46c.69.34,12.11,4.59,12.59,4.85.42.22,1.15.36,1.33-.46-.18-.02-.36-.09-.5-.16-.49-.26-11.91-4.51-12.59-4.85Z"/>
              <path class="cls-62" d="M47.4,66.71v7.6l7.46,2.83.97-.57v-6.6l-8.43-3.26ZM53.02,74.98c-.27-.09-3.49-1.35-4.01-1.56-.21-.08-.54-.22-.62-.54-.13-.48.1-1.15.73-.91,1.44.55,3.55,1.35,4.22,1.64.25.11.54.31.65.6.18.48-.04,1.06-.96.77ZM53.35,71.85c-.27-.09-3.49-1.35-4.01-1.56-.21-.08-.53-.22-.62-.54-.13-.48.1-1.15.73-.91,1.44.55,3.55,1.35,4.22,1.64.25.11.54.31.65.6.18.48-.04,1.06-.96.77Z"/>
              <polygon class="cls-58" points="54.77 69.57 54.86 77.14 55.83 76.57 55.83 69.98 54.77 69.57"/>
              <path class="cls-58" d="M54.31,71.08s0-.02-.01-.03c-.12.22-.42.34-.94.17-.27-.09-3-1.11-3.52-1.32-.21-.08-.53-.22-.62-.54-.05-.19-.05-.4.01-.58-.45-.02-.61.55-.5.96.09.32.42.46.62.54.52.21,3.74,1.47,4.01,1.56.92.29,1.13-.29.96-.77Z"/>
              <path class="cls-58" d="M53.97,74.21s0-.02-.01-.03c-.12.22-.42.34-.94.17-.27-.09-3-1.11-3.52-1.32-.21-.08-.54-.22-.62-.54-.05-.18-.05-.4.01-.58-.45-.02-.61.55-.5.96.09.32.42.46.62.54.52.21,3.74,1.48,4.01,1.56.92.29,1.13-.29.96-.77Z"/>
              <path class="cls-32" d="M54.79,69.87c.08-.04.8.31,1.04.21v-.11l-8.43-3.26v.38c1.17.32,7.3,2.66,7.39,2.77Z"/>
            </g>
            <g>
              <g>
                <path class="cls-83" d="M85.56,76.81c-1.01-.09-2.72.36-3.06,1.28-.34.92.85,2.18.85,2.18.43.49.56.65,1.42.27.85-.38,1.75-.81,1.91-1.55.16-.74-.11-2.09-1.12-2.18Z"/>
                <path class="cls-63" d="M85.11,78.29c.42,1,.1,2.08-.7,2.42-.8.33-1.79-.21-2.21-1.21-.42-1-.1-2.08.7-2.42.8-.33,1.79.21,2.21,1.21Z"/>
                <path class="cls-83" d="M84.01,78.8c.12.29.03.6-.2.7-.23.1-.52-.06-.64-.35-.12-.29-.03-.6.2-.7.23-.1.52.06.64.35Z"/>
                <path class="cls-68" d="M82.04,77.44s3.12,1.59,3.36,1.65c.24.06.72-.15,1.59-.72,0,0,.21-2.22-1.74-2.61-1.95-.39-2.94.81-3.21,1.68Z"/>
                <path class="cls-41" d="M85.43,79.09c.06-.85-.14-1.76-.88-2.24-.81-.52-1.85-.38-2.4.33-.04.09-.07.17-.1.26,0,0,3.12,1.59,3.36,1.65,0,0,.02,0,.03,0Z"/>
                <path class="cls-18" d="M85.25,75.76c-1.39-.28-2.29.25-2.79.89.57-.37,1.31-.44,1.97-.08.94.51,1.24,1.52,1.18,2.51.28-.05.71-.28,1.38-.72,0,0,.21-2.22-1.74-2.61Z"/>
                <path class="cls-68" d="M83.87,74.62l.03,1.62s.54.57,1.47-.12l-.09-1.74-1.41.24Z"/>
                <path class="cls-21" d="M85.28,74.38l-1.41.24.02.85c.06-.19.06-.25.22-.21.54.12.69-.06.69.21,0,.12.01.65,0,.78-.03.17-.18.15-.34.2.24,0,.54-.06.91-.34l-.09-1.74Z"/>
                <path class="cls-33" d="M85.33,75.42l-.05-1.04-1.41.24v.77c.46.27.98.22,1.46.03Z"/>
                <path class="cls-1" d="M83.18,71.35l.24,3.42s1.11.99,2.28-.18l-.06-3.33-2.46.09Z"/>
                <path class="cls-40" d="M84.47,71.3l-.93.03c.09,1.21.16,2.43.21,3.65.21.1.51.2.85.17-.01-1.28-.04-2.57-.14-3.85Z"/>
                <path class="cls-33" d="M85.67,73.02l-.03-1.75-2.46.09.11,1.57c.7.38,1.54.34,2.38.09Z"/>
              </g>
              <polygon class="cls-41" points="81.91 68.59 82.1 72.89 84.8 74.28 86.79 73.39 86.73 69.28 81.91 68.59"/>
              <polygon class="cls-58" points="84.74 68.99 84.8 74.28 86.79 73.39 86.73 69.28 84.74 68.99"/>
              <path class="cls-74" d="M85.32,69.32s0,2.7.04,3.16c.04.46.17.85.54.77.37-.08.39-.44.39-.98s-.08-2.91-.08-2.91l-.89-.04Z"/>
            </g>
            <path class="cls-74" d="M88.72,58.87c-1.43.47-23.18,8.13-24.3,8.6-1.12.47-1.37.97-1.37,1.75s-.06,7.48-.06,8.79.25,1.43.59,1.65c.93.59,1.4.25,2.15.03.75-.22,21.56-7.35,22.9-7.82,1.34-.47,1.74-1.12,1.74-1.9s.37-8.97.37-10c0-.72-.59-1.56-2.03-1.09ZM68.07,71.13c-.76.68-1.79.76-2.31.18-.52-.58-.32-1.6.44-2.27.76-.68,1.79-.76,2.31-.18.52.58.32,1.6-.44,2.27ZM85.01,66.03c-1.16.37-12.09,3.95-13,4.24-.91.29-1.33-.12-.83-1.2.5-1.08.71-1.37.91-1.83.21-.46.33-.91,1.21-1.29.87-.37,8.06-2.91,9.22-3.32,1.16-.42,1.25-.46,1.99.42s1,1.16,1.33,1.54c.33.37.33,1.08-.83,1.45ZM88.98,63.37c-.7.63-1.66.7-2.14.17-.48-.53-.29-1.48.41-2.1.7-.63,1.66-.7,2.14-.17.48.53.29,1.48-.41,2.1Z"/>
            <path class="cls-41" d="M64.34,69.34c0-.78.25-1.28,1.37-1.74,1.12-.47,21.9-7.72,23.34-8.18.8-.26,1.33-.12,1.65.19-.17-.6-.78-1.12-1.97-.73-1.43.47-23.18,8.13-24.3,8.6-1.12.47-1.37.97-1.37,1.75s-.06,7.48-.06,8.79.25,1.43.59,1.65c.33.21.6.3.84.32-.09-.22-.15-.58-.15-1.18,0-1.31.06-8.67.06-9.45Z"/>
            <path class="cls-2" d="M64.34,69.34c0-.22.02-.42.08-.6-.14-.05-.28-.1-.42-.14-.25-.08-.51-.15-.78-.2-.12.24-.16.51-.16.82,0,.78-.06,7.48-.06,8.79s.25,1.43.59,1.65c.33.21.6.3.84.32-.09-.22-.15-.58-.15-1.18,0-1.31.06-8.67.06-9.45Z"/>
            <path class="cls-33" d="M73.65,72.51c-.74.25-1.51.45-2.23.73-.57.22-1.13.48-1.72.64-.47.86-.97,1.71-1.46,2.56-.57.99-1.1,2.01-1.7,2.99,3.73-1.25,19.01-6.49,21.74-7.43-.25-.43-.53-.85-.81-1.26-.51-.76-1.01-1.53-1.54-2.27-2.46.86-4.96,1.62-7.42,2.45-1.62.55-3.24,1.07-4.86,1.61Z"/>
            <path class="cls-58" d="M67.78,68.49s.06.06.09.09c.46.51.25,1.45-.46,2.09-.56.5-1.28.67-1.78.47.04.06.08.13.13.18.52.58,1.55.5,2.31-.18.76-.68.96-1.7.44-2.27-.19-.21-.45-.33-.74-.37Z"/>
            <path class="cls-58" d="M89.39,61.27c-.17-.2-.41-.31-.68-.34.03.03.06.05.09.08.42.48.23,1.34-.43,1.93-.52.47-1.18.62-1.64.43.03.06.07.12.12.17.48.53,1.43.46,2.14-.17.7-.63.89-1.57.41-2.1Z"/>
            <path class="cls-58" d="M84.51,63.04c-.63-.74-.79-.82-1.52-.58.16.08.32.25.56.53.64.74.85.99,1.13,1.31.28.32.28.92-.71,1.24-.99.32-11.22,3.42-12,3.67-.4.13-.69.09-.82-.1-.47,1.05-.05,1.45.85,1.16.91-.29,11.84-3.86,13-4.24,1.16-.37,1.16-1.08.83-1.45-.33-.37-.58-.66-1.33-1.54Z"/>
            <polygon class="cls-17" points="75.34 64.52 82.31 62.17 82.18 72.09 74.98 74.73 75.34 64.52"/>
            <polygon class="cls-61" points="75.54 64.64 82.31 62.36 82.18 71.96 75.2 74.51 75.54 64.64"/>
            <path class="cls-64" d="M78.94,64.01c0,.13-.07.23-.15.23s-.15-.1-.15-.23.06-.23.15-.23.15.1.15.23Z"/>
            <path class="cls-19" d="M70.11,74.51c0,.13-.06.23-.15.23s-.15-.1-.15-.23.07-.23.15-.23.15.1.15.23Z"/>
            <path class="cls-19" d="M65.16,78.72c0,.13-.06.23-.14.23s-.15-.1-.15-.23.07-.23.15-.23.14.1.14.23Z"/>
            <path class="cls-19" d="M89.83,70.24c0,.13-.07.23-.15.23s-.15-.1-.15-.23.07-.23.15-.23.15.1.15.23Z"/>
            <path class="cls-19" d="M85.78,69.06c0,.13-.07.23-.15.23s-.15-.1-.15-.23.07-.23.15-.23.15.1.15.23Z"/>
            <path class="cls-36" d="M81.47,65.65v-1.83s-.01-.09-.01-.09l-.08.03-2.46.85-1.23.43-1.23.44h0c-.02.33-.04.66-.05.99,0,0,0,0,0,0h0s0,.01,0,.01c-.01.26-.03.53-.04.79-.01.33-.03.66-.04,1-.01,0-.02,0-.02,0h0s0,.01.01,0c-.01.26-.02.52-.03.78-.02.6-.05,1.2-.07,1.8-.02.6-.04,1.2-.05,1.8v.06s.05-.02.05-.02l1.3-.4,1.31-.39,1.31-.38,1.31-.37h.02v-1.86s0-1.83,0-1.83v-1.83ZM80.66,70.68c0-.14,0-.29,0-.46.06-.02.11-.04.16-.06.09-.04.17-.07.24-.1.13-.06.21-.09.21-.09h0s-.08,0-.22.04c-.07.02-.15.04-.25.07-.04.01-.08.02-.13.04,0-.14,0-.3,0-.46,0-.07,0-.14,0-.21.07-.03.14-.05.19-.07.09-.04.17-.07.24-.1.13-.06.21-.09.21-.09h0s-.08,0-.22.04c-.07.02-.15.04-.25.07-.05.01-.11.03-.17.05,0-.1,0-.2-.01-.31,0-.15-.01-.3-.01-.45,0,0,0,0,0,0,.11-.04.22-.08.31-.12.09-.04.17-.07.24-.1.08-.03.14-.06.17-.08v1.01s.04,1.8.04,1.8l-.77.23s0-.14.02-.3c0-.1,0-.22.01-.36ZM81.23,66.62s-.08.02-.22.05c-.07.02-.15.04-.25.07-.04,0-.07.02-.11.03,0-.14,0-.28,0-.42,0-.12,0-.24,0-.35.08-.03.16-.06.23-.09.09-.04.17-.07.24-.1.13-.06.21-.09.21-.09h0s-.08,0-.22.04c-.07.02-.15.04-.25.07-.06.02-.13.04-.2.06,0-.26,0-.5-.02-.71,0-.03,0-.05,0-.08.09-.03.17-.06.25-.09.09-.04.17-.07.24-.1.13-.06.21-.09.21-.09h0s-.08,0-.22.04c-.07.02-.15.04-.25.07-.07.02-.14.04-.22.07,0-.26-.02-.48-.03-.65,0-.09-.01-.15-.01-.21l.73-.24v1.74s.02,1.73.02,1.73c-.04,0-.1.02-.18.04-.07.02-.15.04-.25.07-.09.02-.18.05-.28.08,0-.19.01-.37.01-.56,0-.05,0-.09,0-.14.05-.02.09-.04.14-.05.09-.04.17-.07.24-.1.13-.06.21-.09.21-.09h0ZM81.35,67.48v.8s-.09.02-.18.05c-.07.02-.15.04-.25.07-.09.02-.19.05-.3.09,0-.03,0-.07,0-.1,0-.22,0-.45.01-.68h0c.11-.05.22-.09.31-.13.09-.04.17-.07.24-.1.07-.03.13-.06.16-.07v.08ZM76.45,65.49l1.24-.39,1.24-.4,1.64-.53c0,.05,0,.12-.01.2,0,.17-.02.4-.02.68-.12.04-.24.08-.37.12-.13.05-.27.11-.41.16-.14.06-.29.11-.44.16-.15.05-.31.1-.47.14-.16.04-.31.09-.47.14-.15.05-.3.1-.45.14-.29.09-.56.19-.79.28-.23.08-.42.16-.55.22-.07.03-.12.05-.15.07,0-.32,0-.64.02-.96ZM76.61,66.44c.14-.04.34-.09.57-.16.24-.07.51-.15.79-.26.14-.05.29-.1.44-.16.15-.06.3-.11.45-.17.15-.06.3-.12.46-.17.15-.05.3-.1.45-.14.15-.04.29-.08.42-.12.12-.04.23-.08.33-.11,0,.01,0,.03,0,.04,0,.23,0,.48,0,.75-.11.04-.23.07-.36.12-.13.05-.27.1-.41.16-.14.06-.29.11-.44.16-.15.05-.31.1-.47.14-.16.04-.31.09-.47.14-.15.05-.3.1-.45.14-.29.09-.56.19-.79.28-.23.08-.42.16-.55.22-.08.03-.14.06-.17.07,0-.03,0-.05,0-.08,0-.27.01-.54.02-.81.04,0,.09-.02.17-.04ZM76.42,67.39s.1-.02.19-.05c.14-.04.34-.09.57-.16.24-.07.51-.15.79-.26.14-.05.29-.11.44-.16.15-.06.3-.11.45-.17.15-.06.3-.12.46-.17.15-.05.3-.1.45-.14.15-.04.29-.08.42-.12.12-.04.22-.07.33-.11,0,.1,0,.2,0,.31,0,.15,0,.3,0,.45-.03,0-.06.02-.09.03-.12.04-.24.08-.37.12-.13.05-.27.1-.41.16-.14.06-.29.11-.44.16-.15.05-.31.1-.47.14-.16.04-.31.09-.47.14-.15.05-.3.1-.45.14-.29.09-.56.19-.79.28-.23.08-.42.16-.55.22-.04.02-.07.03-.1.04,0-.28.01-.57.02-.85ZM80.12,71.5l-1.31.39-1.31.38-1.26.35c.03-.58.05-1.16.07-1.74.02-.6.04-1.2.06-1.8,0-.27.02-.54.02-.81.03,0,.07-.02.12-.03.14-.04.34-.09.57-.16.24-.07.51-.15.8-.26.14-.05.29-.1.44-.16.15-.06.3-.11.45-.17.15-.06.3-.12.46-.17.15-.05.3-.1.45-.14.15-.04.29-.08.42-.12.13-.04.26-.09.37-.13.02,0,.04-.01.06-.02,0,.03,0,.07,0,.1,0,.19.01.39.02.58-.11.03-.22.07-.34.11-.13.05-.27.1-.41.16-.14.06-.29.11-.44.16-.15.05-.31.1-.47.14-.16.04-.31.09-.47.14-.15.05-.3.1-.45.14-.29.09-.56.19-.79.28-.23.08-.42.16-.55.22-.13.06-.21.09-.21.09h0s.08,0,.22-.04c.14-.04.34-.09.57-.16.24-.07.51-.15.79-.26.14-.05.29-.1.44-.16.15-.06.3-.11.45-.17.15-.06.3-.12.46-.17.15-.05.3-.1.45-.14.15-.04.29-.08.42-.12.11-.03.21-.07.31-.1,0,.22.02.45.02.67,0,.04,0,.08,0,.11-.11.04-.23.07-.36.12-.13.05-.27.1-.41.16-.14.06-.29.11-.44.16-.15.05-.31.1-.47.14-.16.04-.31.09-.47.14-.15.05-.3.1-.45.14-.29.09-.56.19-.79.28-.23.08-.42.16-.55.22-.13.06-.21.09-.21.09h0s.08,0,.22-.04c.14-.04.34-.09.57-.16.24-.07.51-.15.79-.26.14-.05.29-.1.44-.16.15-.06.3-.11.45-.17.15-.06.3-.12.46-.17.15-.05.3-.1.45-.14.15-.04.29-.08.42-.12.11-.04.22-.07.32-.11,0,.15,0,.29,0,.43,0,.11,0,.23-.01.33-.02,0-.04.01-.06.02-.12.04-.24.08-.37.12-.13.05-.27.1-.41.16-.14.06-.29.11-.44.16-.15.05-.31.1-.47.14-.16.04-.31.09-.47.14-.15.05-.3.1-.45.14-.29.09-.56.19-.79.28-.23.08-.42.16-.55.22-.13.06-.21.09-.21.09h0s.08,0,.22-.04c.14-.04.34-.09.57-.16.24-.07.51-.15.8-.26.14-.05.29-.11.44-.16.15-.06.3-.11.45-.17.15-.06.3-.12.46-.17.15-.05.3-.1.45-.14.15-.04.29-.08.42-.12.13-.04.26-.09.37-.13,0,0,.01,0,.02,0,0,.06,0,.12,0,.17,0,.17,0,.33,0,.49-.03,0-.06.02-.09.03-.12.04-.24.08-.38.12-.13.05-.27.1-.41.16-.14.06-.29.11-.44.16-.15.05-.31.1-.47.14-.16.04-.31.09-.47.14-.15.05-.3.1-.45.14-.29.09-.56.19-.79.28-.23.08-.42.16-.55.22-.13.06-.21.09-.21.09h0s.08,0,.22-.04c.14-.04.34-.09.57-.16.23-.07.51-.15.79-.26.14-.05.29-.1.44-.16.15-.06.3-.11.45-.18.15-.06.31-.12.46-.17.15-.05.3-.1.45-.14.15-.04.29-.08.42-.12.13-.04.26-.09.37-.13.02,0,.04-.01.05-.02,0,.16,0,.3.01.43,0,.14,0,.26.02.36.01.17.02.28.02.31l-.5.15Z"/>
            <path class="cls-26" d="M81.18,68.8c-.39.75-.93,1.49-1.77,1.76-1.92.61-3.39-1.38-3.82-2.98-.05-.17-.09-.35-.13-.53l-.26,7.47,6.98-2.56.07-5.54c-.3.81-.67,1.61-1.07,2.38Z"/>
          </g>
          <path class="cls-85" d="M41.66,54.66h.32s-.67,1.75-1.59,1.96c0,0-.41-1.01,1.27-1.96Z"/>
          <g>
            <path class="cls-57" d="M50.51,53.1c.15-.24-.07-.6-.34-.76-.24-.61-1.35-1.09-1.93-.93.12-.37-.25-.37-.45-.28-.02.01-.05.03-.07.04-1.14.64-1.71,1.74-1.67,2.37-3.2,2.07-4.79,1.36-5.27.73-.66.07-1.85.84-1.85.84,0,0,1.22,1.97,3.56,1.59,2.34-.37,4.31-1.95,4.31-1.95l.22.15s.96.38,1.66-.58c.27-.37.33-.39.33-.39,0,0,.25-.17,1-.1.25,0,.36-.13.32-.28.19.02.3-.26.19-.46Z"/>
            <g class="cls-29">
              <path class="cls-57" d="M50.17,52.35c-.24-.61-1.35-1.09-1.93-.93.12-.37-.25-.37-.45-.28-.02.01-.05.03-.07.04-.02.01-.04.02-.06.04.05.01.11.03.15.05.02,0,.03.03.02.05-.05.17-.22.24-.36.33-.15.09-.31.21-.44.34.31-.19.63-.38.99-.44.26-.04.6-.11.84.02.15.08.27.31.04.38-.19.05-.36.07-.54.17-.06.03-.11.07-.16.11.18-.07.37-.12.57-.16.24-.05.66-.15.79.13.09.2-.27.24-.38.25-.4.04-.82.22-1.03.59.26-.17.55-.32.84-.41.29-.09.69-.17.91.11.21.27,0,.44-.27.44-.21,0-.41-.02-.62.05-.21.07-.4.18-.56.33.43-.27,1.06-.44,1.37-.06.02.02.02.07-.02.08-.28.05-.59.04-.86.14-.5.19-.72.81-1.25.94-.25.06-.52.03-.74-.1-.06-.03-.33-.26-.39-.22-.08.06-.14.15-.21.23-.18.22-.44.37-.68.52-.29.18-.58.35-.88.5-.56.28-1.14.53-1.75.68-.32.08-2.23.49-2.01-.34.08-.3.33-.56.56-.75.11-.1.23-.19.35-.28-.59-.09-.97-.36-1.17-.61-.66.07-1.85.84-1.85.84,0,0,1.22,1.97,3.56,1.59,2.34-.37,4.31-1.95,4.31-1.95l.22.15s.96.38,1.66-.58c.27-.37.33-.39.33-.39,0,0,.25-.17,1-.1.25,0,.36-.13.32-.28.19.02.3-.26.19-.46.15-.24-.07-.6-.34-.76Z"/>
            </g>
            <g>
              <path class="cls-46" d="M47.76,52.39s.03-.02.1-.05c.06-.03.15-.08.26-.12.05-.02.11-.05.18-.07.06-.03.13-.05.2-.08.07-.02.14-.05.22-.07.08-.02.16-.04.23-.06h.03s0,0,0,0h0s0,0,0,0h0s.01,0,.01,0h.06s.09,0,.13,0c.08,0,.16.03.23.05.15.04.28.1.38.16.11.05.19.11.25.14.06.04.09.06.09.06,0,0-.04-.02-.1-.05-.06-.03-.16-.07-.27-.11-.11-.04-.24-.09-.38-.13-.07-.02-.15-.03-.22-.04-.04,0-.07,0-.11,0h-.06s-.01,0-.01,0h0s0,0,0,0h0s0,0,0,0h-.03c-.08.02-.15.04-.23.06-.08.02-.15.04-.22.06-.14.04-.27.08-.39.12-.23.07-.38.12-.38.12Z"/>
              <path class="cls-46" d="M48.08,53s.03-.03.09-.07c.06-.04.15-.1.26-.17.06-.03.12-.06.18-.1.07-.03.14-.07.21-.09.08-.03.16-.05.24-.07.08-.02.17-.03.26-.03.04,0,.09,0,.13,0,.04,0,.09.01.13.02.04.02.08.03.12.05.04.02.07.04.11.06.07.04.14.08.2.11.06.03.12.07.17.11.05.04.1.07.14.1.04.03.07.06.1.09.03.02.05.04.06.06.01.01.02.02.02.02,0,0,0,0-.02-.02-.01-.01-.04-.03-.07-.05-.03-.02-.07-.05-.11-.07-.04-.03-.09-.05-.15-.09-.05-.03-.11-.07-.18-.1-.07-.03-.13-.06-.21-.1-.04-.02-.07-.04-.11-.05-.04-.01-.07-.02-.11-.04-.04,0-.08-.01-.12-.02-.04,0-.08,0-.12,0-.08,0-.16.01-.24.03-.08.02-.16.04-.23.06-.07.02-.14.05-.21.08-.07.03-.13.05-.19.08-.11.05-.21.1-.27.14-.06.04-.1.06-.1.06Z"/>
              <path class="cls-46" d="M48.24,53.76s.02-.03.06-.08c.02-.03.04-.05.07-.09.03-.03.06-.07.11-.1.04-.04.09-.07.14-.11.02-.02.06-.03.08-.05.03-.02.06-.03.09-.05.03-.01.07-.03.1-.04.03-.01.07-.02.11-.03.07-.02.15-.03.22-.04.08,0,.15,0,.22,0,.07.01.14.02.21.04.07.02.13.04.19.07.06.03.11.06.16.08.02.01.05.02.07.04.02.01.04.03.06.04.04.03.07.05.09.07.05.04.08.06.08.06,0,0-.03-.02-.09-.04-.03-.01-.06-.03-.1-.05-.02,0-.04-.02-.06-.03-.02,0-.05-.02-.07-.03-.05-.02-.1-.04-.16-.06-.06-.02-.12-.03-.19-.05-.06-.01-.13-.02-.2-.03-.07,0-.14,0-.21,0-.07,0-.14.01-.21.03-.03,0-.07.01-.1.03-.03.01-.06.02-.09.03-.03,0-.06.03-.09.04-.03.01-.06.02-.08.04-.05.03-.1.06-.14.09-.09.06-.16.12-.2.16-.05.04-.07.07-.07.07Z"/>
              <path class="cls-46" d="M48.16,51.43s-.12.02-.2.04c-.08.03-.18.06-.28.1-.07.03-.15.07-.22.1-.07.06-.14.13-.2.2.05-.03.11-.06.16-.09.1-.05.2-.1.29-.15.1-.04.18-.08.26-.12.08-.03.14-.06.19-.08.05-.02.07-.03.07-.03,0,0-.03,0-.08.01Z"/>
            </g>
          </g>
          <path class="cls-86" d="M40.71,53.57c-.57-.66-1.15-1.3-1.81-1.87-.06-.03-.09-.04-.09-.04,0,0-1.84,1.03.09,3.68,0,0,.59.85,1.5,1.28,0,0,.22-1.26,1.59-1.96-.5-.25-.9-.65-1.28-1.09Z"/>
          <path class="cls-14" d="M40.71,53.57c-.57-.66-1.15-1.3-1.81-1.87-.06-.03-.09-.04-.09-.04,0,0-.18.1-.38.33.45-.26,1.01.53,1.2.8.42.59,1.06,1.07,1.38,1.72.09.18.05.42-.06.58-.35.53-.71.87-.59,1.52.01,0,.02.01.04.02,0,0,.22-1.26,1.59-1.96-.5-.25-.9-.65-1.28-1.09Z"/>
          <path class="cls-89" d="M25.38,64.15c-1.47,0-2.71-.33-3.71-.99-2.67-1.77-2.94-5.46-3.07-7.24-.01-.2-.03-.38-.04-.53-.17-1.72-.82-2.06-2.57-2.98-.57-.3-1.28-.67-2.11-1.17-1.42-.85-2.28-2.62-2.47-5.14-.15-1.88.13-3.54.13-3.55l.27.05c-.01.06-1.05,6.47,2.21,8.41.83.49,1.53.86,2.1,1.16,1.8.94,2.54,1.33,2.72,3.2.01.15.03.33.04.53.13,1.73.39,5.33,2.95,7.03,1.93,1.27,4.83,1.26,8.62-.05,6.99-2.4,9.1-4.2,11.13-5.94,1.35-1.16,2.63-2.25,5.26-3.43l.11.25c-2.6,1.16-3.86,2.24-5.2,3.38-2.05,1.75-4.18,3.57-11.22,5.99-1.94.67-3.66,1-5.15,1Z"/>
          <g>
            <g>
              <g>
                <g>
                  <path class="cls-83" d="M23.11,75.63c-.44-.04-1.19.16-1.34.56-.15.4.37.95.37.95.19.22.25.28.62.12.37-.17.77-.35.83-.68.07-.32-.05-.91-.49-.95Z"/>
                  <path class="cls-63" d="M22.91,76.27c.18.44.05.91-.3,1.06-.35.15-.78-.09-.96-.53-.18-.44-.05-.91.3-1.06.35-.15.78.09.96.53Z"/>
                  <path class="cls-83" d="M22.43,76.49c.05.13.01.26-.09.31-.1.04-.23-.03-.28-.15-.05-.13-.01-.26.09-.31.1-.04.23.03.28.15Z"/>
                  <path class="cls-68" d="M21.57,75.9s1.36.69,1.47.72c.1.03.31-.07.69-.31,0,0,.09-.97-.76-1.14-.85-.17-1.28.35-1.4.73Z"/>
                  <path class="cls-41" d="M23.05,76.62c.03-.37-.06-.77-.38-.98-.35-.23-.81-.17-1.05.14-.02.04-.03.08-.04.11,0,0,1.36.69,1.47.72,0,0,0,0,.01,0Z"/>
                  <path class="cls-18" d="M22.97,75.17c-.61-.12-1,.11-1.22.39.25-.16.57-.19.86-.04.41.22.54.66.51,1.1.12-.02.31-.12.6-.31,0,0,.09-.97-.76-1.14Z"/>
                  <path class="cls-68" d="M22.37,74.67v.71s.25.25.65-.05l-.04-.76-.62.1Z"/>
                  <path class="cls-21" d="M22.98,74.57l-.62.1v.37c.03-.08.03-.11.1-.09.24.05.3-.03.3.09,0,.05,0,.29,0,.34-.01.08-.08.07-.15.09.1,0,.24-.03.4-.15l-.04-.76Z"/>
                  <path class="cls-33" d="M23.01,75.02l-.02-.45-.62.1v.34c.2.12.43.1.64.01Z"/>
                  <path class="cls-1" d="M22.07,73.24l.1,1.49s.48.43.99-.08l-.03-1.45-1.07.04Z"/>
                  <path class="cls-40" d="M22.63,73.22h-.4c.04.54.07,1.08.09,1.61.09.05.22.09.37.07,0-.56-.02-1.12-.06-1.68Z"/>
                  <path class="cls-33" d="M23.15,73.97v-.77s-1.09.04-1.09.04l.05.69c.31.17.67.15,1.04.04Z"/>
                </g>
                <g>
                  <path class="cls-83" d="M15.27,76.33c-.44-.04-1.19.16-1.33.56-.15.4.37.95.37.95.19.22.25.28.62.12.37-.17.77-.35.83-.68.07-.32-.05-.91-.49-.95Z"/>
                  <path class="cls-63" d="M15.07,76.98c.18.44.05.91-.3,1.06-.35.15-.78-.09-.96-.53-.18-.44-.05-.91.3-1.06.35-.15.78.09.96.53Z"/>
                  <path class="cls-83" d="M14.59,77.2c.05.13.01.26-.09.31-.1.04-.23-.03-.28-.15-.05-.13-.01-.26.09-.31.1-.04.23.03.28.15Z"/>
                  <path class="cls-68" d="M13.73,76.61s1.36.69,1.47.72c.1.03.31-.07.69-.31,0,0,.09-.97-.76-1.14-.85-.17-1.28.35-1.4.73Z"/>
                  <path class="cls-41" d="M15.21,77.33c.03-.37-.06-.77-.39-.98-.35-.23-.81-.17-1.05.14-.02.04-.03.08-.04.11,0,0,1.36.69,1.47.72,0,0,0,0,.01,0Z"/>
                  <path class="cls-18" d="M15.13,75.87c-.61-.12-1,.11-1.22.39.25-.16.57-.19.86-.04.41.22.54.66.51,1.1.12-.02.31-.12.6-.31,0,0,.09-.97-.76-1.14Z"/>
                  <path class="cls-68" d="M14.53,75.38v.71s.25.25.65-.05l-.04-.76-.62.1Z"/>
                  <path class="cls-21" d="M15.15,75.27l-.62.1v.37c.03-.08.03-.11.1-.09.24.05.3-.03.3.09,0,.05,0,.29,0,.34-.01.08-.08.07-.15.09.1,0,.24-.03.4-.15l-.04-.76Z"/>
                  <path class="cls-33" d="M15.17,75.73l-.02-.45-.62.1v.34c.2.12.43.1.64.01Z"/>
                  <path class="cls-1" d="M14.23,73.95l.1,1.49s.48.43.99-.08l-.03-1.45-1.07.04Z"/>
                  <path class="cls-40" d="M14.8,73.93h-.4c.04.54.07,1.08.09,1.61.09.05.22.09.37.07,0-.56-.02-1.12-.06-1.68Z"/>
                  <path class="cls-33" d="M15.32,74.67v-.77s-1.09.04-1.09.04l.05.69c.31.17.67.15,1.04.04Z"/>
                </g>
                <g>
                  <path class="cls-83" d="M17.78,77.58c-.44-.04-1.19.16-1.34.56-.15.4.37.95.37.95.19.22.25.28.62.12.37-.17.77-.35.83-.68.07-.32-.05-.91-.49-.95Z"/>
                  <path class="cls-63" d="M17.58,78.22c.18.44.05.91-.3,1.06-.35.15-.78-.09-.96-.53-.18-.44-.05-.91.3-1.06.35-.15.78.09.96.53Z"/>
                  <path class="cls-83" d="M17.1,78.44c.05.13.01.26-.09.31-.1.04-.23-.03-.28-.15-.05-.13-.01-.26.09-.31.1-.04.23.03.28.15Z"/>
                  <path class="cls-68" d="M16.24,77.85s1.36.69,1.47.72c.1.03.31-.07.69-.31,0,0,.09-.97-.76-1.14-.85-.17-1.28.35-1.4.73Z"/>
                  <path class="cls-41" d="M17.72,78.57c.03-.37-.06-.77-.38-.98-.35-.23-.81-.17-1.05.14-.02.04-.03.08-.04.11,0,0,1.36.69,1.47.72,0,0,0,0,.01,0Z"/>
                  <path class="cls-18" d="M17.64,77.12c-.61-.12-1,.11-1.22.39.25-.16.57-.19.86-.04.41.22.54.66.51,1.1.12-.02.31-.12.6-.31,0,0,.09-.97-.76-1.14Z"/>
                  <path class="cls-68" d="M17.04,76.62v.71s.25.25.65-.05l-.04-.76-.61.1Z"/>
                  <path class="cls-21" d="M17.65,76.52l-.61.1v.37c.03-.08.03-.11.1-.09.24.05.3-.03.3.09,0,.05,0,.29,0,.34-.01.08-.08.07-.15.09.1,0,.24-.03.4-.15l-.04-.76Z"/>
                  <path class="cls-33" d="M17.68,76.97l-.02-.45-.61.1v.34c.2.12.43.1.64.01Z"/>
                  <path class="cls-1" d="M16.74,75.19l.1,1.49s.48.43.99-.08l-.03-1.45-1.07.04Z"/>
                  <path class="cls-40" d="M17.3,75.17h-.4c.04.55.07,1.08.09,1.61.09.05.22.09.37.07,0-.56-.02-1.12-.06-1.68Z"/>
                  <path class="cls-33" d="M17.82,75.92v-.77s-1.09.04-1.09.04l.05.69c.31.17.67.15,1.04.04Z"/>
                </g>
                <g>
                  <path class="cls-83" d="M20.6,74.38c-.44-.04-1.19.16-1.34.56-.15.4.37.95.37.95.19.22.25.28.62.12.37-.17.77-.35.83-.68.07-.32-.05-.91-.49-.95Z"/>
                  <path class="cls-63" d="M20.4,75.03c.18.44.05.91-.3,1.06-.35.15-.78-.09-.96-.53-.18-.44-.05-.91.3-1.06.35-.15.78.09.96.53Z"/>
                  <path class="cls-83" d="M19.92,75.25c.05.13.01.26-.09.31-.1.04-.23-.03-.28-.15-.05-.13-.01-.26.09-.31.1-.04.23.03.28.15Z"/>
                  <path class="cls-68" d="M19.07,74.66s1.36.69,1.47.72c.11.03.31-.07.69-.31,0,0,.09-.97-.76-1.14-.85-.17-1.28.35-1.4.73Z"/>
                  <path class="cls-41" d="M20.54,75.38c.03-.37-.06-.77-.39-.98-.35-.23-.81-.17-1.05.14-.02.04-.03.08-.04.11,0,0,1.36.69,1.47.72,0,0,0,0,.01,0Z"/>
                  <path class="cls-18" d="M20.47,73.92c-.61-.12-1,.11-1.22.39.25-.16.57-.19.86-.04.41.22.54.66.51,1.1.12-.02.31-.12.6-.31,0,0,.09-.97-.76-1.14Z"/>
                  <path class="cls-68" d="M19.86,73.43v.71s.25.25.65-.05l-.04-.76-.62.1Z"/>
                  <path class="cls-21" d="M20.48,73.32l-.62.1v.37c.03-.08.03-.11.1-.09.24.05.3-.03.3.09,0,.05,0,.29,0,.34-.01.08-.08.07-.15.09.1,0,.24-.03.4-.15l-.04-.76Z"/>
                  <path class="cls-33" d="M20.5,73.78l-.02-.45-.62.1v.34c.2.12.43.1.64.01Z"/>
                  <path class="cls-1" d="M19.56,72l.1,1.49s.48.43.99-.08l-.03-1.45-1.07.04Z"/>
                  <path class="cls-40" d="M20.13,71.98h-.4c.04.54.07,1.08.09,1.61.09.05.22.09.37.07,0-.56-.02-1.12-.06-1.68Z"/>
                  <path class="cls-33" d="M20.65,72.72v-.77s-1.09.04-1.09.04l.05.69c.31.17.67.15,1.04.04Z"/>
                </g>
                <path class="cls-41" d="M23.22,73.77v-1.52h-2.5c-.3-.15-.51-.24-.51-.24,0,0-.67-.34-1.14-.08l-.95.32h-3.88l.02,1.54c-.04.14.03.3.3.49l2.45,1.33s.45.34,1.02.19l4.55-1.48s.79-.16.62-.55Z"/>
                <path class="cls-25" d="M18.31,72.18l-.19.06h-1.13v3.34l.03.02s.45.34,1.02.19l.27-.09v-3.53Z"/>
                <path class="cls-44" d="M19.05,70.29l-4.3,1.44s-1.01.35-.2.91l2.45,1.33s.45.34,1.02.19l4.55-1.48s.91-.19.57-.64c-.34-.46-2.96-1.67-2.96-1.67,0,0-.67-.34-1.14-.08Z"/>
                <path class="cls-12" d="M23.14,72.03c-.34-.46-2.96-1.67-2.96-1.67,0,0-.67-.34-1.14-.08l-4.3,1.44s-.05.02-.11.05c.58-.09,1.15-.3,1.71-.46.48-.13,1.1-.35,1.58-.13.03.01.03.05,0,.07-.19.19-.51.46-.5.75.01.35.41.49.71.52.55.05,1.1-.07,1.64-.18,1.02-.21,2.1-.3,2.98.27.25-.08.63-.27.39-.59Z"/>
              </g>
              <g>
                <path class="cls-41" d="M19.21,71.91V29.25h-1.26v42.6c.23.36.89.35,1.26.07Z"/>
                <path class="cls-33" d="M18.33,72.09V29.25h-.37v42.6c.08.13.22.21.37.25Z"/>
                <path class="cls-33" d="M19.21,71.91V29.25h-.4v42.84c.15-.03.29-.09.4-.18Z"/>
              </g>
              <path class="cls-49" d="M11.23,31.34c-.3,0-.59-.12-.85-.37-.46-.43-.08-1.35,0-1.53.06-.14.23-.2.36-.13.14.06.2.23.13.36-.15.34-.24.79-.13.9.33.31.67.29,1.04-.05.19-.18.2-.27.2-.39,0-.23.05-.47.49-.66.63-.28,9.11-.82,10.83-.93.09-.01.43-.04.66.15.12.1.19.23.2.4,0,.04.08.16.24.25.11.06.42.18.77-.01.1-.06.23-.15.24-.27,0-.08-.03-.15-.06-.18-.09-.04-.16-.14-.16-.25,0-.15.12-.27.27-.27.25,0,.42.3.47.49.05.18.09.63-.49.96-.41.23-.89.24-1.3.02-.31-.17-.51-.43-.53-.7,0,0,0-.01,0-.01-.02-.02-.15-.04-.25-.02,0,0-.01,0-.02,0-3.86.24-10.17.69-10.65.88-.13.06-.15.09-.15.1,0,.01,0,.05,0,.08,0,.22-.04.47-.38.78-.3.27-.62.41-.94.41Z"/>
            </g>
            <g>
              <polygon class="cls-71" points="17.86 54.64 19.32 54.64 19.32 57.2 17.84 57.2 17.86 54.64"/>
              <rect class="cls-9" x="18.05" y="54.64" width=".19" height="2.56"/>
              <rect class="cls-22" x="18.85" y="54.64" width=".48" height="2.56"/>
            </g>
            <g>
              <path class="cls-50" d="M11.03,42.39l.03.62s.02.24.5.23c.49-.02.65-.19.69-.34.05-.15.01-.72.01-.72l-1.24.21Z"/>
              <path class="cls-13" d="M11.68,42.79c.22-.02.41-.08.6-.18,0-.21,0-.44,0-.44l-1.24.21.02.36c.2.06.44.06.63.04Z"/>
              <path class="cls-41" d="M14.44,32.69s-3.62-.88-5.9.66v5.69s.16,1.67,1.05,2.22c0,0,.43.3,1.05.57,0,0,.15.32.23.68.22.16.54.13.79.08.28-.05.52-.15.75-.29.06-.3.22-.68.61-.91.73-.43,1.33-.69,1.39-2.95.07-2.26.03-5.75.03-5.75Z"/>
              <path class="cls-41" d="M11.31,32.89c-.08,0-.14-.06-.14-.14v-2.01c0-.08.06-.14.14-.14s.14.06.14.14v2.01c0,.08-.06.14-.14.14Z"/>
              <path class="cls-60" d="M13.93,33.04s-3.53-.38-4.84.58c0,0-.23.12-.24.59-.02.47.03,5.06.03,5.06,0,0,.06,1.49,1.43,1.93,1.37.44,3.73-.52,3.9-2.35.17-1.83.02-5.33.02-5.33,0,0,0-.41-.29-.49Z"/>
              <path class="cls-82" d="M9.3,36.15s3.5,0,4.68-.85l-.06,2.62s-2.57,1.13-4.51.74l-.11-2.51Z"/>
              <g>
                <polygon class="cls-60" points="13.28 37.75 12.82 37.88 12.85 36.35 13.3 36.18 13.28 37.75"/>
                <polygon class="cls-60" points="12.39 37.03 13.68 36.58 13.68 37.03 12.4 37.45 12.39 37.03"/>
              </g>
              <path class="cls-84" d="M10.38,39.19c-.61,0-.94-.1-.95-.1l.03-.09s1.63.46,4.31-.68l.04.08c-1.42.6-2.53.76-3.21.78-.07,0-.14,0-.21,0Z"/>
              <path class="cls-84" d="M10.38,39.79c-.61,0-.94-.1-.95-.1l.03-.09s1.63.46,4.31-.68l.04.08c-1.42.6-2.53.76-3.21.78-.07,0-.14,0-.21,0Z"/>
              <path class="cls-25" d="M14.44,32.69s-3.62-.88-5.9.66v5.69s.16,1.67,1.05,2.22c0,0,.43.3,1.05.57,0,0,.15.32.23.68.22.16.54.13.79.08.28-.05.52-.15.75-.29.06-.3.22-.68.61-.91.73-.43,1.33-.69,1.39-2.95.07-2.26.03-5.75.03-5.75ZM13.94,35.71c-.04.66-.02,1.33-.07,1.99-.07.98-.14,2.17-.97,2.84-.69.55-1.79.59-2.57.24-.41-.18-.77-.48-.96-.89-.24-.52-.31-1.15-.36-1.72-.06-.67-.05-1.35-.04-2.02.01-.73.02-1.46.09-2.19,0-.03.03-.06.06-.04.1.04.19.09.28.14-.27-.33-.45-.7-.06-.92.77-.45,1.72-.5,2.59-.52.44-.01.9-.01,1.33.12.19.06.47.16.46.41-.01.47-.49.79-.73,1.18.33-.1.58-.44.95-.43.02,0,.04.01.04.03.08.6,0,1.2-.03,1.8Z"/>
            </g>
          </g>
          <g>
            <polygon class="cls-72" points="46.99 52.48 46.27 53.15 47.33 54.5 48.07 53.84 46.99 52.48"/>
            <polygon class="cls-51" points="46.99 52.74 46.45 53.24 47.24 54.25 47.79 53.75 46.99 52.74"/>
          </g>
          <path class="cls-16" d="M39.62,45.09c-.31.19-.61.4-.86.68-.15.17-.29.52-.05.7.16.12.35.18.52.03.44-.4.8-.89,1.24-1.3.43-.39.89-.73,1.42-.96.3-.13.78-.29,1.1-.33.44-.05.76.07,1.18-.06.2-.06.47-.29.2-.43-.83-.44-4.2,1.33-4.77,1.68Z"/>
          <path class="cls-35" d="M43.21,44.62c-.04-.06-.12.03-.13.08,0,.01,0,.03,0,.04-.01,0-.02.02,0,.03,0,0,0,0,0,0,0,.05,0,.1-.01.15-.21.25-1.14.54-1.24.62-.19.17.08.46.24.53.36.15.78-.11,1-.39.24-.32.37-.71.14-1.07Z"/>
          <path class="cls-87" d="M42.21,47.82c-.34.31-.75.78-.77,1.27.26-.49.55-.97,1.02-1.29.27-.19.63-.33.96-.26.06.01.09.03.13.03-.4-.37-.97-.08-1.33.26Z"/>
        </g>
      </g>
    </g>
  </g>
</svg>