<?xml version="1.0" encoding="UTF-8"?>
<svg id="Layer_1" data-name="Layer 1" xmlns="http://www.w3.org/2000/svg" xmlns:xlink="http://www.w3.org/1999/xlink" viewBox="0 0 100 100">
  <defs>
    <style>
      .cls-1 {
        fill: url(#radial-gradient-10);
      }

      .cls-2 {
        fill: url(#linear-gradient-15);
      }

      .cls-3 {
        fill: url(#linear-gradient-13);
      }

      .cls-4 {
        fill: url(#linear-gradient-2);
      }

      .cls-5 {
        fill: url(#radial-gradient-9);
      }

      .cls-6 {
        fill: url(#linear-gradient-10);
      }

      .cls-7 {
        fill: url(#linear-gradient-12);
      }

      .cls-8 {
        fill: #fff;
      }

      .cls-9 {
        fill: none;
      }

      .cls-10 {
        fill: url(#linear-gradient-4);
      }

      .cls-11 {
        fill: url(#radial-gradient-5);
      }

      .cls-12 {
        fill: url(#radial-gradient);
      }

      .cls-13 {
        fill: url(#radial-gradient-3);
      }

      .cls-14 {
        fill: url(#linear-gradient-3);
      }

      .cls-15 {
        fill: url(#linear-gradient-5);
      }

      .cls-16 {
        fill: url(#linear-gradient-22);
      }

      .cls-17 {
        fill: url(#linear-gradient-8);
      }

      .cls-18 {
        fill: #ecb7c1;
      }

      .cls-19 {
        fill: url(#radial-gradient-8);
      }

      .cls-20 {
        fill: url(#radial-gradient-2);
      }

      .cls-21 {
        fill: url(#linear-gradient-14);
      }

      .cls-22 {
        fill: url(#linear-gradient-20);
      }

      .cls-23 {
        fill: url(#radial-gradient-4);
      }

      .cls-24 {
        fill: url(#linear-gradient-17);
      }

      .cls-25 {
        fill: url(#linear-gradient-7);
      }

      .cls-26 {
        fill: url(#linear-gradient-9);
      }

      .cls-27 {
        fill: url(#linear-gradient-11);
      }

      .cls-28 {
        fill: url(#linear-gradient-19);
      }

      .cls-29 {
        fill: url(#linear-gradient-6);
      }

      .cls-30 {
        fill: url(#linear-gradient-21);
      }

      .cls-31 {
        fill: url(#radial-gradient-6);
      }

      .cls-32 {
        fill: url(#radial-gradient-7);
      }

      .cls-33 {
        fill: url(#linear-gradient-16);
      }

      .cls-34 {
        fill: url(#linear-gradient);
      }

      .cls-35 {
        fill: url(#linear-gradient-23);
      }

      .cls-36 {
        clip-path: url(#clippath);
      }

      .cls-37 {
        fill: url(#linear-gradient-18);
      }
    </style>
    <linearGradient id="linear-gradient" x1="44.94" y1="25.6" x2="55.87" y2="25.6" gradientUnits="userSpaceOnUse">
      <stop offset="0" stop-color="#f38b94"/>
      <stop offset=".89" stop-color="#df7b81"/>
    </linearGradient>
    <linearGradient id="linear-gradient-2" x1="44.89" y1="40.84" x2="50.43" y2="34.33" gradientUnits="userSpaceOnUse">
      <stop offset="0" stop-color="#d03c57"/>
      <stop offset=".89" stop-color="#df7b81"/>
    </linearGradient>
    <linearGradient id="linear-gradient-3" x1="56.49" y1="38.23" x2="50.79" y2="35.66" xlink:href="#linear-gradient-2"/>
    <clipPath id="clippath">
      <path class="cls-9" d="M55.87,35.74l-.8,4.02s-3.15-1.59-3.69-1.71c-.12-.03-.25-.04-.38-.04-.26,0-.52.06-.74.14-.15.06-.28.12-.39.2-.36.24-2.89,2.65-2.89,2.65,0,0-2.07-1.73-2.03-3.81,0,0,1.93-1.2,2.97-2.49.04-.05.08-.1.11-.15.86-1.24-.05-2.7-.51-9.57-.48-7.15.96-14.22.96-14.22,0,0,.2-.52,1.29-.56,1.08-.04,1.69.8,1.69.8,0,0-.24,9.96,0,15.26.24,5.2.4,7.23,1.54,8.14.02.02.04.04.07.05,1.21.88,2.81,1.28,2.81,1.28Z"/>
    </clipPath>
    <radialGradient id="radial-gradient" cx="-665.6" cy="-220.62" fx="-665.6" fy="-220.62" r="4.15" gradientTransform="translate(450.39 776.3) rotate(3.66) scale(.55 3.29) skewX(34.06)" gradientUnits="userSpaceOnUse">
      <stop offset="0" stop-color="#f6b4c8"/>
      <stop offset=".69" stop-color="#f17a9e" stop-opacity="0"/>
    </radialGradient>
    <linearGradient id="linear-gradient-4" x1="42.71" y1="80.23" x2="37.29" y2="72.22" gradientUnits="userSpaceOnUse">
      <stop offset="0" stop-color="#f0697b"/>
      <stop offset="1" stop-color="#ee4572"/>
    </linearGradient>
    <linearGradient id="linear-gradient-5" x1="42.78" y1="78.94" x2="39.22" y2="74.6" gradientUnits="userSpaceOnUse">
      <stop offset="0" stop-color="#f0697b"/>
      <stop offset="1" stop-color="#e92456"/>
    </linearGradient>
    <linearGradient id="linear-gradient-6" x1="54.48" y1="80.61" x2="63.81" y2="67.97" xlink:href="#linear-gradient-4"/>
    <linearGradient id="linear-gradient-7" x1="55.85" y1="77.26" x2="63.85" y2="67.86" xlink:href="#linear-gradient-5"/>
    <linearGradient id="linear-gradient-8" x1="31.46" y1="13.34" x2="32.18" y2="85.14" xlink:href="#linear-gradient-4"/>
    <linearGradient id="linear-gradient-9" x1="40.7" y1="12.23" x2="44.4" y2="30.06" gradientUnits="userSpaceOnUse">
      <stop offset="0" stop-color="#e84068"/>
      <stop offset="1" stop-color="#b72044"/>
    </linearGradient>
    <linearGradient id="linear-gradient-10" x1="33.19" y1="47.82" x2="32.22" y2="56.73" xlink:href="#linear-gradient-5"/>
    <linearGradient id="linear-gradient-11" x1="28.2" y1="62.35" x2="23.87" y2="69.52" xlink:href="#linear-gradient-5"/>
    <radialGradient id="radial-gradient-2" cx="28.49" cy="36.05" fx="28.49" fy="36.05" r="8" gradientTransform="translate(0 -60.58) scale(1 2.68)" gradientUnits="userSpaceOnUse">
      <stop offset="0" stop-color="#f6b4c8"/>
      <stop offset="1" stop-color="#f17a9e" stop-opacity="0"/>
    </radialGradient>
    <radialGradient id="radial-gradient-3" cx="28.27" cy="61.29" fx="28.27" fy="61.29" r="14.15" gradientTransform="translate(15.29 21.47) rotate(24.4) scale(1 .5)" xlink:href="#radial-gradient-2"/>
    <linearGradient id="linear-gradient-12" x1="22.69" y1="67.1" x2="20.28" y2="82.68" xlink:href="#linear-gradient-5"/>
    <linearGradient id="linear-gradient-13" x1="46.03" y1="31.8" x2="41.3" y2="33.73" gradientUnits="userSpaceOnUse">
      <stop offset="0" stop-color="#f6b4c8"/>
      <stop offset="1" stop-color="#f17a9e" stop-opacity="0"/>
    </linearGradient>
    <linearGradient id="linear-gradient-14" x1="36.73" y1="64.59" x2="33.96" y2="50.86" xlink:href="#linear-gradient-13"/>
    <linearGradient id="linear-gradient-15" x1="38.72" y1="70.59" x2="41.73" y2="76.8" xlink:href="#linear-gradient-5"/>
    <radialGradient id="radial-gradient-4" cx="369.11" cy="718.58" fx="369.11" fy="718.58" r="4.28" gradientTransform="translate(-188.6 -729.83) rotate(35.38) scale(1.52 .72) skewX(3.84)" xlink:href="#radial-gradient-2"/>
    <radialGradient id="radial-gradient-5" cx="368.44" cy="717.96" fx="368.44" fy="717.96" r="3.52" gradientTransform="translate(-188.95 -729.89) rotate(35.38) scale(1.52 .72) skewX(3.84)" xlink:href="#radial-gradient-2"/>
    <radialGradient id="radial-gradient-6" cx="26.98" cy="46.96" fx="26.98" fy="46.96" r="3.88" gradientTransform="translate(24.87 5.2) rotate(37.29) scale(1 .68)" xlink:href="#radial-gradient-2"/>
    <linearGradient id="linear-gradient-16" x1="69.03" y1="12.96" x2="69.76" y2="84.76" xlink:href="#linear-gradient-4"/>
    <linearGradient id="linear-gradient-17" x1="56.6" y1="12.86" x2="56.12" y2="36.15" xlink:href="#linear-gradient-9"/>
    <radialGradient id="radial-gradient-7" cx="448.21" cy="41.62" fx="448.21" fy="41.62" r="5.04" gradientTransform="translate(-577.76 -99.01) scale(1.43 3.38)" gradientUnits="userSpaceOnUse">
      <stop offset="0" stop-color="#f282a0"/>
      <stop offset="1" stop-color="#ef5f84"/>
    </radialGradient>
    <radialGradient id="radial-gradient-8" cx="845.29" cy="360.64" fx="845.29" fy="360.64" r="2.89" gradientTransform="translate(-1702.12 -1615.05) rotate(-1.95) scale(2.24 4.75) skewX(-13.19)" xlink:href="#radial-gradient-2"/>
    <radialGradient id="radial-gradient-9" cx="63" cy="36.69" fx="63" fy="36.69" r="4.15" gradientTransform="translate(13.48 -99.77) rotate(5.78) scale(1 3.56)" xlink:href="#radial-gradient-2"/>
    <linearGradient id="linear-gradient-18" x1="51.75" y1="41.7" x2="55.6" y2="41.94" gradientUnits="userSpaceOnUse">
      <stop offset="0" stop-color="#f17998"/>
      <stop offset="1" stop-color="#ef5168"/>
    </linearGradient>
    <linearGradient id="linear-gradient-19" x1="55.62" y1="11.88" x2="55.62" y2="32.45" gradientUnits="userSpaceOnUse">
      <stop offset="0" stop-color="#b01e43"/>
      <stop offset="1" stop-color="#b11e3b"/>
    </linearGradient>
    <linearGradient id="linear-gradient-20" x1="43.92" y1="11.88" x2="43.92" y2="32.45" xlink:href="#linear-gradient-19"/>
    <linearGradient id="linear-gradient-21" x1="75.33" y1="55.73" x2="88.5" y2="66.49" gradientUnits="userSpaceOnUse">
      <stop offset="0" stop-color="#f0697b" stop-opacity=".3"/>
      <stop offset="1" stop-color="#e92456"/>
    </linearGradient>
    <radialGradient id="radial-gradient-10" cx="80.04" cy="73.44" fx="80.04" fy="73.44" r="9.98" gradientTransform="translate(17.13 124.64) rotate(-48.42) scale(1 .18)" xlink:href="#radial-gradient-2"/>
    <linearGradient id="linear-gradient-22" x1="75.9" y1="32.32" x2="82.85" y2="32.32" xlink:href="#linear-gradient-5"/>
    <linearGradient id="linear-gradient-23" x1="79.97" y1="74.39" x2="83.83" y2="81.86" gradientUnits="userSpaceOnUse">
      <stop offset="0" stop-color="#f0697b" stop-opacity="0"/>
      <stop offset="1" stop-color="#e92456"/>
    </linearGradient>
  </defs>
  <circle class="cls-8" cx="50" cy="50" r="50"/>
  <g>
    <g>
      <path class="cls-34" d="M55.87,35.74l-.8,4.02s-3.15-1.59-3.69-1.71c-.12-.03-.25-.04-.38-.04-.26,0-.52.06-.74.14-.15.06-.28.12-.39.2-.36.24-2.89,2.65-2.89,2.65,0,0-2.07-1.73-2.03-3.81,0,0,1.93-1.2,2.97-2.49.04-.05.08-.1.11-.15.86-1.24-.05-2.7-.51-9.57-.48-7.15.96-14.22.96-14.22,0,0,.2-.52,1.29-.56,1.08-.04,1.69.8,1.69.8,0,0-.24,9.96,0,15.26.24,5.2.4,7.23,1.54,8.14.02.02.04.04.07.05,1.21.88,2.81,1.28,2.81,1.28Z"/>
      <path class="cls-4" d="M50.25,38.15c-.15.06-.28.12-.39.2-.36.24-2.89,2.65-2.89,2.65,0,0-2.07-1.73-2.03-3.81,0,0,1.93-1.2,2.97-2.49.04-.05.08-.1.11-.15.44.31,1.2,1.03,1.82,2.48.17.4.3.78.41,1.13Z"/>
      <path class="cls-14" d="M55.87,35.74l-.8,4.02s-3.15-1.59-3.69-1.71c-.12-.03-.25-.04-.38-.04.11-.38.27-.81.46-1.27.46-1.14,1.07-1.88,1.54-2.34.02.02.04.04.07.05,1.21.88,2.81,1.28,2.81,1.28Z"/>
      <g class="cls-36">
        <g>
          <path class="cls-18" d="M53.01,13.42s-1.53-.6-3.17-.56c-1.63.04-2.46.45-2.46.46l-.3-.59s.96-.48,2.75-.53c1.78-.05,3.37.58,3.44.61l-.25.62Z"/>
          <path class="cls-18" d="M52.65,15.1s-1.53-.6-3.17-.56c-1.64.04-2.46.45-2.46.46l-.3-.59s.96-.48,2.75-.53c1.79-.04,3.37.58,3.44.61l-.25.62Z"/>
          <path class="cls-18" d="M52.41,16.69s-1.53-.6-3.17-.56c-1.63.04-2.46.45-2.46.46l-.3-.59s.96-.48,2.75-.53c1.78-.04,3.37.58,3.44.61l-.25.62Z"/>
          <path class="cls-18" d="M52.45,18.36s-1.53-.6-3.17-.56c-1.63.04-2.46.45-2.47.46l-.3-.59s.96-.48,2.75-.53c1.78-.05,3.37.58,3.44.61l-.25.62Z"/>
          <path class="cls-18" d="M52.29,19.98s-1.53-.6-3.17-.56c-1.62.04-2.46.45-2.46.46l-.3-.59s.96-.48,2.75-.53c1.79-.04,3.37.58,3.44.61l-.25.62Z"/>
          <path class="cls-18" d="M52.29,21.74s-1.53-.6-3.17-.56c-1.62.04-2.46.45-2.47.46l-.3-.59s.96-.48,2.75-.53c1.78-.04,3.37.58,3.44.61l-.25.62Z"/>
          <path class="cls-18" d="M52.35,23.51s-1.53-.6-3.17-.56c-1.62.04-2.46.45-2.46.46l-.3-.59s.96-.48,2.75-.53c1.78-.04,3.37.58,3.44.61l-.25.62Z"/>
          <path class="cls-18" d="M52.59,25.31s-1.53-.6-3.17-.56c-1.62.04-2.46.45-2.46.46l-.3-.59s.96-.48,2.75-.53c1.78-.04,3.37.58,3.44.61l-.25.62Z"/>
          <path class="cls-18" d="M52.62,26.97s-1.53-.6-3.17-.56c-1.62.04-2.46.45-2.46.46l-.3-.59s.96-.48,2.75-.53c1.78-.05,3.37.58,3.44.61l-.25.62Z"/>
          <path class="cls-18" d="M52.56,28.66s-1.53-.6-3.17-.56c-1.62.04-2.46.45-2.46.46l-.3-.59s.96-.48,2.75-.53c1.78-.05,3.37.58,3.44.61l-.25.62Z"/>
          <path class="cls-18" d="M52.59,30.15s-1.53-.6-3.17-.56c-1.62.04-2.46.45-2.46.46l-.3-.59s.96-.48,2.75-.53c1.79-.05,3.37.58,3.44.61l-.25.62Z"/>
          <path class="cls-18" d="M52.79,31.74s-1.53-.6-3.17-.56c-1.64.04-2.46.45-2.46.46l-.3-.59s.96-.48,2.75-.53c1.79-.05,3.37.58,3.44.61l-.25.62Z"/>
          <path class="cls-18" d="M47.05,33.26l-.22-.53s.96-.39,2.74-.49c1.78-.1,3.33.3,3.4.31l-.14.55s-1.54-.39-3.22-.3c-1.67.1-2.55.44-2.56.45Z"/>
          <path class="cls-18" d="M50.68,34.58c-.19,0-.39,0-.59-.02-1.78-.1-2.7-.47-2.74-.49l.22-.53-.11.26.11-.27s.88.35,2.56.45c1.69.1,3.21-.29,3.22-.3l.14.55c-.06.02-1.29.33-2.81.33Z"/>
        </g>
      </g>
      <path class="cls-12" d="M48.92,11.95c.9-.55,1.81,3.59,2.1,8.76.29,5.17.59,13.38-.84,12.97-1.43-.41-2.12-8.59-2.16-13.89-.05-5.31.05-7.32.9-7.84Z"/>
    </g>
    <path class="cls-10" d="M46.95,64.41s-.07,1.6-.25,3.63c-.23,2.49-.64,5.62-1.35,7.21-.98,2.2-4.67,3.15-7.82,3.79-.98.2-1.91.37-2.7.55-3.29.72-7.07.64-7.07.64l19.2-15.82Z"/>
    <path class="cls-15" d="M46.95,64.41s-.07,1.6-.25,3.63c-1.16,2.17-3.57,6.14-7.14,9.54-.55.53-1.25,1.02-2.04,1.46-.98.2-1.91.37-2.7.55-3.29.72-7.07.64-7.07.64l19.2-15.82Z"/>
    <path class="cls-29" d="M74.5,79.91s-3.08-.75-6.31-1.29c-1.3-.22-2.63-.4-3.79-.49-4.01-.3-7.33-1.04-7.6-4.75-.09-1.27-.46-3.83-.91-6.64-.86-5.41-1.99-11.77-1.99-11.77l20.6,24.94Z"/>
    <path class="cls-25" d="M74.5,79.91s-3.08-.75-6.31-1.29c-.63-.49-1.29-1-1.99-1.53-4.18-3.15-8.07-7.58-10.31-10.35-.86-5.41-1.99-11.77-1.99-11.77l20.6,24.94Z"/>
    <path class="cls-17" d="M48.8,61.84c-1.56,4.89-6.34,10.24-11.26,14.09-.03.03-.06.05-.1.08-.74.57-1.48,1.12-2.22,1.62-5.66,3.86-12.41,5.42-14.46,4.94-1.27-.3-2.45-1.02-3.65-3.65-.73-1.61-1.48-3.93-2.25-7.31-1.15-5.02-1.12-10.32-.57-15.1,0-.06.02-.13.02-.19.43-3.63,1.15-6.96,1.88-9.65.05-.18.1-.36.15-.55.01-.04.02-.08.04-.12,1.67-5.97,3.92-11.01,7.41-17.28,3.61-6.51,9.34-14.13,13.94-14.25.6-.02,1.16.04,1.67.16,5.88,1.36,6.9,10.84,6.77,15.05-.05,1.61.06,2.82.29,4.04h0c.43,2.24,1.29,4.44,2.38,8.98.64,2.65.95,5.54,1.02,8.3,0,.04,0,.08,0,.12.11,4.48-.38,8.59-1.07,10.74Z"/>
    <path class="cls-26" d="M46.46,33.71c-.18-.12-.36-.24-.54-.38h0c-1.28-.94-2.63-2.29-3.46-4.14-1.54-3.47-3.76-11.5-3.05-14.57,5.88,1.36,6.9,10.84,6.77,15.05,0,.08,0,.16,0,.24-.03,1.49.08,2.65.29,3.8Z"/>
    <path class="cls-6" d="M49.87,51.1c-2.44,1.08-7.73,3.02-14.12,3.02-1.47,0-2.99-.1-4.55-.34-7.83-1.2-12.77-5.46-14.86-7.67.01-.04.02-.08.04-.12,2.05,2.18,6.98,6.48,14.84,7.68,8.36,1.28,15.68-1.38,18.64-2.69,0,.04,0,.08,0,.12Z"/>
    <path class="cls-27" d="M37.54,75.93s-.06.05-.1.08c-3.31-1.64-7.62-3.95-11.81-6.73-5.61-3.72-9.4-9.35-11.34-12.78,0-.06.02-.13.02-.19,1.91,3.4,5.72,9.11,11.38,12.87,4.2,2.79,8.53,5.11,11.84,6.75Z"/>
    <path class="cls-20" d="M31.25,19.07c-6.02,5.78-9.4,22.17-9.64,25.66-.24,3.49-.48,5.42,5.18,7.23,5.66,1.81,7.59,1.2,8.43.72.84-.48-.62-8.17-2.05-17.11-1.93-12.05-.69-17.69-1.93-16.5Z"/>
    <path class="cls-13" d="M18,52.8c-1.31,2.1,1.33,9.88,6.87,13.97,5.54,4.1,10.84,1.93,10.84-.12s3.49-3.61,4.34-6.14c1.03-3.08-5.18-2.65-9.88-4.34-4.7-1.69-10.36-6.26-12.17-3.37Z"/>
    <path class="cls-7" d="M17.15,65.21c-2.05,2.05.48,10.84,3.13,13.37,2.65,2.53,7.47,1.81,6.99-1.57-.48-3.37-8.67-13.25-10.12-11.81Z"/>
    <path class="cls-3" d="M38.14,15.17c-.56.55-.29,10.45,2.52,15.62,2.81,5.18,5.44,8.67,6.42,12.75.97,4.08.79,7.14,1.17,7.21.38.07.44-5.87-1.08-10.75-1.52-4.88-3.37-6.94-5.24-10.36-1.87-3.42-2.69-8.17-3.05-10.64-.47-3.25-.33-4.25-.74-3.84Z"/>
    <path class="cls-21" d="M48.72,51.78c-.77.13-4.94,2.23-11.14,2.47-6.2.24-11.14-1.02-13.37-2.17-2.23-1.14-5.6-3.86-5.84-3.73-.24.12,2.47,2.83,6.99,5.06,4.52,2.23,13.13,2.17,16.26,1.51,3.13-.66,4.22,0,4.82.66.6.66.66,4.1,2.17,4.4.46.09.96-3.37,1.02-5.42.06-2.05-.54-2.83-.9-2.77Z"/>
    <path class="cls-2" d="M48.8,61.84c-1.81,5.66-7.91,11.93-13.57,15.78-5.66,3.86-12.41,5.42-14.46,4.94-1.27-.3-2.45-1.02-3.65-3.65,1.32.98,3.91,2.47,6.94,2.13,4.26-.48,10.2-3.05,15.98-8.43,5.78-5.38,7.79-9.72,8.76-12.53.96-2.81,1-8.74,1-8.92s-.22-.18-.38-.66c-.16-.48.19-2.37-1.1-7.61-1.84-7.42-1.86-9.09-1.86-9.17.43,2.24,1.29,4.44,2.38,8.97,1.69,6.99,1.07,15.67-.04,19.16Z"/>
    <path class="cls-23" d="M19.88,54.35c-1.56,2.69,3.4,7.85,7.66,9.89,4.27,2.04,7.92,1.12,5.92-2.75-2-3.88-12.1-9.69-13.58-7.14Z"/>
    <path class="cls-11" d="M20.14,54.22c-1.28,2.21,2.79,6.46,6.3,8.13,3.51,1.68,6.51.92,4.87-2.26-1.65-3.19-9.95-7.96-11.16-5.87Z"/>
    <path class="cls-31" d="M23.72,44.19c-1.31,2.01.9,5.3,4.1,6.63,3.19,1.33,3.13-3.07,2.35-5.18-.78-2.11-4.64-4.22-6.45-1.45Z"/>
    <path class="cls-33" d="M86.97,56.79c.01,3.94-.21,8.07-.56,11.8-.61,6.45-1.62,11.65-2.52,12.37-1.54,1.23-6.52,1.21-10.4-.83-.18-.09-.36-.19-.53-.29-.43-.25-.85-.54-1.26-.85-.07-.05-.14-.1-.2-.16-.02-.01-.04-.03-.05-.04-1.17-.92-2.29-2.06-3.4-3.29-1.97-2.17-3.93-4.65-6.25-6.82-4.18-3.94-7.63-7.95-9.4-15.82-1.77-7.87,1.53-16.47,1.77-17.91.24-1.45-.4-2.49-.32-9.16.05-4.38,1.16-7.48,2.52-9.27.71-.93,1.48-1.51,2.22-1.73,6.42-1.93,13.51,5.06,18.91,11.46,2.26,2.67,4.36,5.88,6.01,9.98,1.73,4.29,2.96,9.54,3.32,16.17.08,1.42.12,2.9.12,4.41Z"/>
    <path class="cls-24" d="M58.41,25.16c-.9,2.89-4.24,9.78-4.24,9.78.01-.09.03-.17.03-.26.13-1.34-.43-2.63-.35-8.9.01-.97.08-1.88.18-2.73.37-2.97,1.28-5.15,2.34-6.55,2.71,1.22,2.92,5.83,2.03,8.65Z"/>
    <path class="cls-32" d="M64.59,21.24c-4.43,1.59-10.18,11.08-8.8,23.13,1.38,12.05,3.97,16.38,7.77,18.55,3.8,2.17,11.24,3.25,9.86-7.23-1.38-10.48-2.61-11.81-1.58-20.96,1.04-9.16-1.21-15.66-7.25-13.49Z"/>
    <path class="cls-19" d="M63.21,23.93c3.86-1.01,6.31,4.79,5.92,12.22-.39,7.43-1.73,19.29-7.48,19.03-5.75-.26-6.03-11.97-4.57-19.67,1.46-7.69,2.49-10.64,6.13-11.59Z"/>
    <path class="cls-5" d="M63.84,25.04c1.75-.48,2.59,4.04,2.11,9.58-.48,5.54-1.57,14.34-4.1,13.73-2.53-.6-2.17-9.4-1.2-15.06.96-5.66,1.54-7.8,3.19-8.25Z"/>
    <path class="cls-37" d="M59.16,24.05c-.35,2.51-4.06,13.21-4.42,21.77-.36,8.55,4.02,18.19,3.37,18.59-.64.4-5.62-7.23-6.18-14.14-.56-6.91,1.2-12.93,3.21-17.59,2.01-4.66,3.25-6.47,3.57-9,.32-2.53-.04-3.9-.04-3.9,0,0,.84,1.65.48,4.26Z"/>
    <path class="cls-28" d="M54.21,34.68c.13-1.34-.43-2.63-.35-8.9.01-.97.08-1.88.18-2.73.79-1.07,2.06-2.19,3.03-.24,1.25,2.5-1.38,8.99-2.86,11.87Z"/>
    <path class="cls-22" d="M46.46,33.71c-.18-.12-.36-.24-.54-.38h0c-.35-.32-.71-.72-1.05-1.21-2.41-3.45-4.55-11.11-2.89-11.73,1.93-.72,3.13,5.3,4.02,8.91.05.21.11.41.17.6-.03,1.49.08,2.65.29,3.8Z"/>
    <path class="cls-30" d="M86.97,56.79c-.8,4.58-2.51,10.16-6.2,14.33-4.76,5.37-7.42,7.13-9.31,7.66-1.17-.92-2.29-2.06-3.4-3.29,3.01-1.31,7.78-4.02,10.3-9.92,3.2-7.51,3.91-23.86,5.17-29.36,1.73,4.29,2.96,9.54,3.32,16.17.08,1.42.12,2.9.12,4.41Z"/>
    <path class="cls-1" d="M86.42,59.57c-.07.51-1.31,8.72-7.18,14.71-3.39,3.45-6.07,4.43-7.53,4.69-.07-.05-.14-.1-.2-.16.83-.23,3.07-1.24,7.3-5.69,6.23-6.54,7.53-13.12,7.62-13.56Z"/>
    <path class="cls-16" d="M75.94,25.78c.52,2.54,1.85,8.11,3.29,11.32,1.45,3.21,3.69,3.45,3.61-.32-.08-3.77-7.63-14.54-6.91-11Z"/>
    <path class="cls-35" d="M86.41,68.59c-.61,6.45-1.62,11.65-2.52,12.37-1.54,1.23-6.52,1.21-10.4-.83,1.97.13,4.24-.77,6.78-3.1,2.97-2.73,5.26-4.66,6.13-8.43Z"/>
  </g>
</svg>