<?xml version="1.0" encoding="UTF-8"?>
<svg id="Layer_6" data-name="Layer 6" xmlns="http://www.w3.org/2000/svg" viewBox="0 0 200 200">
  <defs>
    <style>
      .cls-1 {
        fill: #6ab790;
      }

      .cls-2 {
        fill: #9399ae;
      }

      .cls-3 {
        fill: #4da57f;
      }

      .cls-4 {
        fill: #8187a0;
      }

      .cls-5 {
        fill: #d2ab91;
      }

      .cls-6 {
        fill: #8bdc79;
      }

      .cls-7 {
        fill: #d3d7e0;
      }

      .cls-8 {
        fill: #e6f3cd;
      }

      .cls-9 {
        fill: #c6ccd7;
      }

      .cls-10 {
        fill: #575f7c;
      }

      .cls-11 {
        fill: #eceff3;
      }

      .cls-12 {
        fill: #ca9f7a;
      }

      .cls-13 {
        fill: #d5d9e1;
      }

      .cls-14 {
        fill: #9cd4de;
      }

      .cls-15 {
        fill: #7ecd67;
      }

      .cls-16 {
        fill: #9a756d;
      }

      .cls-17 {
        fill: #82d06c;
      }
    </style>
  </defs>
  <path class="cls-6" d="M128.6,116.62c2.65-.19,19.67,1.7,20.98,3l.8.16c.28.81,1.01.75,2.2-.16l.98-.76c6.08.27,11.85.2,17.16-2.88l.59.64c2.6-.36,6.57.67,8.98,1.7,10.19,4.36,13.65,17,14.25,27.15-.13.89-.38,1.64-.75,2.25.32,2.31-.53,5.05-1.3,7.42-5.21,16.07-19.5,38.38-39.2,31.29l-2.1-.15c-11.39,2.36-17.63,2.75-26.41-5.97-8.85-8.79-15.98-22.37-17.15-34.83l-.7-.97c.53-6.67,2.18-13.71,5.87-19.38,1.45-2.23,4.12-6.01,6.82-5.87.81-2.08,6.2-3.22,8.44-3.32l.55.7Z"/>
  <path class="cls-5" d="M44.69,11.73c1.05,1.67,1.05,3.96,0,5.62.99,1.53.99,2.66,0,3.37l-.35.75h-27.42c-.11-.3-.2-.52-.2-.5.39,39.24.31,78.5.19,117.75-.02,5.63-.35,11.24-.69,16.86.76,2.18.87,4.46.71,6.75h92.6c.27,0,.51.24.72.75l.92.37,2.46,5.82-.39.93c.52.99-.02,1.1-.96,1.17-33.98.24-68.52.07-102.76-.43-1.82-.03-3.93-3.08-3.8-4.86-1-49.81.67-99.75.09-149.57.5-2.41,2.52-4.37,5-4.74l33.87-.03Z"/>
  <path class="cls-5" d="M128.6,116.62c-2.45.18-6.92,1.36-8.99,2.62-.29,0-.75-.08-.75-.26-.24-27.56-.26-56.05.03-83.62-.33-.74-.22-1.25.35-1.54l-1.58-.52-9.74-9.74c-.84-.66-1.19-1.45-1.42-2.48l-.67.37c-5.05-.14-10.12-.11-15.21.08l-.97-.82c-.99-.71-.99-1.83,0-3.37-1.06-1.66-1.05-3.95,0-5.62h33.53c3,.29,5.36,2.75,5.45,5.79l-.02,99.1Z"/>
  <path class="cls-12" d="M113.24,170.19l.89.12,2.87,5.45-.39.8H10.77c-5.86-1.44-4.95-5.77-5.05-10.49.83,1.92,1.94,3.29,3.92,4.14,33.74.33,67.74.78,101.55.36.63,0,1.67.24,2.06-.38Z"/>
  <path class="cls-15" d="M193.79,147.72c.27-.76.52-.88.75-.37,0,.37,0,.75,0,1.12l-.37,3.37c-.59,13.27-13.99,38.55-27.64,42.22-6.46,1.74-9.87-.95-15.25-1.04-4.34-.07-8.12,2.06-13.49,1.52-7.8-.79-17.24-11.64-21.17-17.98-1.01-1.63-2.52-4.59-3.37-6.37-.98-2.05-2.28-4.99-3-7.12-1.69-1.11-2.81-5.71-1.87-7.49-1.45-1.31-2.07-8.02-1.27-9.43.14-.25.33-.47.52-.69,1.03,2.72,1.38,5.65,2.24,8.44,3.5,11.3,15.55,32.07,28.65,33.16,5.05.42,9.67-1.97,14.21-1.47,2.24.24,4.7,1.29,7.16,1.45,17.87,1.22,30.79-24.52,33.9-39.33Z"/>
  <path class="cls-2" d="M89.64,11.73c.06,1.85.05,3.77,0,5.62-.48,2.32-2.51,3.28-6.08,2.85-12.48-.06-24.93-.22-37.34-.47-.91-.38-1.42-1.17-1.54-2.39-.05-1.85-.06-3.77,0-5.62.08-2.44-.68-5.31,2.46-5.97,12.65.83,26.86-1.18,39.33-.04,3.92.36,3.07,3.02,3.17,6.01Z"/>
  <path class="cls-1" d="M180.68,98.64c-1.58,13.54-14.81,18.6-27.12,17.22l-.98-.74c-1-1.21-1-2.53,0-3.75,3.4-6.98,9.89-12.08,17.8-12.73,1.36-.11,9.56-.26,10.3,0Z"/>
  <path class="cls-3" d="M171.31,116.62c-1.38.19-2.88,1.41-4.29,1.89-4.74,1.61-9.51,1.03-14.44,1.11-1.01-.51-1.15-4.1,0-4.5,4.56-.1,9.14.44,13.57-.86,7.36-2.15,12.66-8.32,14.53-15.63.97.33-.04,4.32-.25,5.18-1.31,5.38-4.75,9.61-9.11,12.8Z"/>
  <path class="cls-16" d="M152.58,111.38c.03,1.24.02,2.5,0,3.75-.02,1.37.2,3.26,0,4.5-.21,1.33-1.31,2.03-2.47,1.15-.49-.37-.46-1.08-.52-1.15-.44-7.39,2.42-18.44-6.54-21.75-1.82-.67-6.07-.28-5.4-2.71.84-3.03,7.85.49,9.44,1.67,5.5,4.1,5.35,8.29,5.5,14.55Z"/>
  <path class="cls-17" d="M194.16,151.84c.05-1.07-.33-2.62.37-3.37,0,1.06.3,2.63-.37,3.37Z"/>
  <path class="cls-17" d="M194.54,147.34l-.75.37c.16-.78.04-1.65.75-2.25.04.62-.02,1.25,0,1.87Z"/>
  <path class="cls-7" d="M44.69,20.72l.8.31c.13.97.53,1.63,1.55,1.82,1.2.23,2.55.32,3.82.34,8.96.17,17.89-.13,26.85-.44,3.7.31,7.18.23,10.44-.24.38-.96.88-1.56,1.5-1.79,4.99.48,11.12-.63,15.96-.02.36.05.68.05.9.4l.7,1.64-.31,10.7,10.89-.3,1.46.71.4,1.27-.03,84.14c-8.14,4.95-11.6,17.23-11.99,26.22-.15,3.52.13,6.67.75,10.11l-.26.75H16.68l-.46-.75c-.23-44.95.18-89.92,0-134.87h28.47Z"/>
  <path class="cls-8" d="M171.57,124.19c3.2-.97,8,2.03,10.04,4.41,3.41,3.98,6.13,14.18,5.44,19.32-.26,1.97-2.03,2.34-2.94.65-.02-6.6-1.59-18.66-8.99-20.98-1.13-.36-3.46-.37-4.05-.82-.92-.7-.64-2.24.48-2.58Z"/>
  <path class="cls-9" d="M108.37,155.58c.42,2.32,1.12,5.27,1.87,7.49H16.21c0-2.49.01-5,0-7.49h92.16Z"/>
  <path class="cls-4" d="M89.64,17.35c-.03,1.09.11,2.32,0,3.37-.19,1.83-.88,2.78-2.8,3.01-12.55-.88-26.62,1.14-38.99,0-2.12-.19-2.94-.87-3.17-3.01-.11-1.05.03-2.28,0-3.37.77.96,1.43,1.89,2.8,1.88,12.54-.88,26.63,1.15,38.99,0,1.69-.16,2.19-.53,3.17-1.89Z"/>
  <polygon class="cls-11" points="119.24 33.83 106.12 34.21 106.5 21.09 119.24 33.83"/>
  <path class="cls-13" d="M54.32,11.8c4.39-.96,5.15,5.09,1.7,5.85-4.39.96-5.15-5.09-1.7-5.85Z"/>
  <path class="cls-13" d="M78.3,11.8c4.39-.96,5.15,5.09,1.7,5.85-4.39.96-5.15-5.09-1.7-5.85Z"/>
  <path class="cls-10" d="M48.62,40.2h53.57c1.14,0,1.14,3,0,3h-53.57c-.94,0-1.38-2.54,0-3Z"/>
  <path class="cls-10" d="M48.62,64.17h53.57c1.14,0,1.14,3,0,3h-53.57c-.94,0-1.38-2.54,0-3Z"/>
  <path class="cls-10" d="M48.62,88.15h53.57c1.14,0,1.14,3,0,3h-53.57c-.94,0-1.38-2.54,0-3Z"/>
  <path class="cls-10" d="M48.62,112.13h53.57c1.14,0,1.14,3,0,3h-53.57c-.94,0-1.38-2.54,0-3Z"/>
  <path class="cls-10" d="M48.62,136.1h53.57c1.14,0,1.14,3,0,3h-53.57c-.94,0-1.38-2.54,0-3Z"/>
  <rect class="cls-14" x="28.2" y="112.13" width="11.99" height="11.99"/>
  <rect class="cls-14" x="28.2" y="40.2" width="11.99" height="11.99"/>
  <rect class="cls-14" x="28.2" y="88.15" width="11.99" height="11.99"/>
  <rect class="cls-14" x="28.2" y="64.17" width="11.99" height="11.99"/>
  <rect class="cls-14" x="28.2" y="136.1" width="11.99" height="11.99"/>
  <path class="cls-10" d="M48.62,49.19h40.09c1.14,0,1.14,3,0,3h-40.09c-.94,0-1.38-2.54,0-3Z"/>
  <path class="cls-10" d="M48.62,145.09h40.09c1.14,0,1.14,3,0,3h-40.09c-.94,0-1.38-2.54,0-3Z"/>
  <path class="cls-10" d="M48.62,73.16h40.09c1.14,0,1.14,3,0,3h-40.09c-.94,0-1.38-2.54,0-3Z"/>
  <path class="cls-10" d="M48.62,121.12h40.09c1.14,0,1.14,3,0,3h-40.09c-.94,0-1.38-2.54,0-3Z"/>
  <path class="cls-10" d="M48.62,97.14h40.09c1.14,0,1.14,3,0,3h-40.09c-.94,0-1.38-2.54,0-3Z"/>
</svg>