<?xml version="1.0" encoding="UTF-8"?>
<svg id="Layer_6" data-name="Layer 6" xmlns="http://www.w3.org/2000/svg" viewBox="0 0 200 200">
  <defs>
    <style>
      .cls-1 {
        fill: #fd9962;
      }

      .cls-2 {
        fill: #68b5fe;
      }

      .cls-3 {
        fill: #5faefe;
      }

      .cls-4 {
        fill: #fea766;
      }

      .cls-5 {
        fill: #d5e6f5;
      }

      .cls-6 {
        fill: #b3cce0;
      }

      .cls-7 {
        fill: #eea680;
      }

      .cls-8 {
        fill: #fd9862;
      }

      .cls-9 {
        fill: #fd9d63;
      }

      .cls-10 {
        fill: #eb9c7d;
      }

      .cls-11 {
        fill: #d9e9f6;
      }

      .cls-12 {
        fill: #72befd;
      }

      .cls-13 {
        fill: #feb068;
      }

      .cls-14 {
        fill: #feab67;
      }

      .cls-15 {
        fill: #fea465;
      }

      .cls-16 {
        fill: #e89a7d;
      }

      .cls-17 {
        fill: #eff6fb;
      }

      .cls-18 {
        fill: #70bcfd;
      }

      .cls-19 {
        fill: #edf5fa;
      }

      .cls-20 {
        fill: #fda064;
      }

      .cls-21 {
        fill: #eaf3fa;
      }

      .cls-22 {
        fill: #fea665;
      }

      .cls-23 {
        fill: #feac67;
      }

      .cls-24 {
        fill: #feaf68;
      }

      .cls-25 {
        fill: #e3eff8;
      }

      .cls-26 {
        fill: #e1eef7;
      }

      .cls-27 {
        fill: #deecf7;
      }

      .cls-28 {
        fill: #87d0fd;
      }

      .cls-29 {
        fill: #7ec9fd;
      }

      .cls-30 {
        fill: #54a4fe;
      }

      .cls-31 {
        fill: #6bb8fe;
      }

      .cls-32 {
        fill: #74c0fd;
      }

      .cls-33 {
        fill: #ea7f58;
      }

      .cls-34 {
        fill: #e8f2f9;
      }

      .cls-35 {
        fill: #84cdfd;
      }

      .cls-36 {
        fill: #55a6fe;
      }

      .cls-37 {
        fill: #feaa66;
      }

      .cls-38 {
        fill: #fd9c63;
      }

      .cls-39 {
        fill: #5cabfe;
      }

      .cls-40 {
        fill: #7cc7fd;
      }

      .cls-41 {
        fill: #ea9b7d;
      }

      .cls-42 {
        fill: #63b2fe;
      }

      .cls-43 {
        fill: #feb269;
      }

      .cls-44 {
        fill: #78c3fd;
      }

      .cls-45 {
        fill: #ed9d7d;
      }

      .cls-46 {
        fill: #6dbafe;
      }

      .cls-47 {
        fill: #fea866;
      }

      .cls-48 {
        fill: #f1a881;
      }

      .cls-49 {
        fill: #fda365;
      }

      .cls-50 {
        fill: #fea565;
      }

      .cls-51 {
        fill: #d2e5f4;
      }

      .cls-52 {
        fill: #fda164;
      }

      .cls-53 {
        fill: #58a8fe;
      }

      .cls-54 {
        fill: #efa780;
      }

      .cls-55 {
        fill: #d7e8f5;
      }

      .cls-56 {
        fill: #81cbfd;
      }

      .cls-57 {
        fill: #f3a981;
      }

      .cls-58 {
        fill: #d6e8f6;
      }

      .cls-59 {
        fill: #89d2fd;
      }
    </style>
  </defs>
  <path class="cls-17" d="M125.44,70.71c.22,11.04-.16,22.12,0,33.16l38.62.39c-2.36.96-4.66.97-7.02,0-4.53,1.06-9.13,1.08-13.65,0-3.5.76-7.03.76-10.53,0-4.52,1.08-9.13,1.06-13.65,0-4.07,1.14-8.41,1.11-12.48,0-2.95,1.18-6.4,1.12-9.36,0l-.67.78c-2.39-.24-4.73-.07-7.02.5l-.89-.5-.32.94c-2.28,1.22-3.58,3.32-3.89,5.87l-.86.6-.27.78-45.85.02c-3.67.59-3.91,5.79-.26,6.55l.35.84,46.56.11c.45,5.56.5,11.17-.52,16.67l-.27.78H26.05c-2.11-.75-1.39-4.98-.48-7.02-1.09-2.96-1.07-6,0-8.97-.97-2.49-.97-4.92,0-7.41-.77-1.81-.77-3.65,0-5.46-.77-1.68-.77-3.39,0-5.07-.77-1.55-.77-3.13,0-4.68-.77-1.42-.77-2.88,0-4.29-.77-2.07-.77-4.17,0-6.24-.97-2.49-.97-4.92,0-7.41-1.13-2.09-1.15-4.55,0-6.63-1.01-1.34-.97-3.04-.52-4.59,33.51-.13,66.98-.03,100.39.3Z"/>
  <path class="cls-58" d="M117.25,25.07c-.1,7.07,1.88,13.82-8.19,12.48v12.49c-.13.33-.26.33-.39,0l-.78-.35v-11.57c-26.42.42-52.84.43-79.25.02l-3.07-.58c-2.27-.05-5.89.56-7.42-1.46-1.27-1.67-.78-8.56-.77-11.02l.37-.78h99.01l.49.78Z"/>
  <path class="cls-58" d="M117.25,16.87l-.37.78H18.13c.14,2.5.05,5.01-.75,7.41-.54-.04-.36-.57-.41-.95-.37-2.97.3-6.06.42-8.98.15-3.5-1.5-10.19,3.29-10.75l93.23.03c4.55.72,3.29,9.09,3.34,12.46Z"/>
  <path class="cls-30" d="M25.57,37.55c27.66.64,55.43-.48,83.1,0v12.49s-.28.78-.28.78H26.05l-.48-.78v-12.48Z"/>
  <path class="cls-34" d="M164.06,104.26c1.95,0,3.91-.01,5.85,0l.82.71c-.17,2.74-.12,5.46.16,8.17l-.58.87c.56,1.04,0,1.82-1.17,1.56l.18.97c-1.57,3.53-2.02,7.39-1.36,11.57l-.78.72c.35.07.33.2,0,.39l.78.63c-.96,5.18-.18,9.58,2.37,13.19l-.02,1c-.18,3.48-.1,7.02.24,10.62l-.63,1.08c.86.71.25,1.46-.78,1.17l.2.94c-1.57,3.69-2.03,7.7-1.37,12.04l-.78.68c.35.07.33.2,0,.39l.78.65c-.92,5.13-.13,9.51,2.38,13.16l-.04,1.02c.32.9.29,2.01-.09,3.33l.14,5.97-.83.46c-4.28.03-8.59-.01-12.87,0-.3-.04-.75-.13-.78-.35-.12-1.02-.19-8.48,0-9.09l.78-1.48-.25-.94c1.61-3.67,2.09-7.71,1.43-12.1l.78-.62c-.35-.07-.33-.2,0-.39l-.78-.55c.57-4.63.12-9.01-1.35-13.14l.18-.36c-.68-.53-.81-1.39-.39-2.59.15-3.15.08-6.3-.21-9.45l.6-1.23-.42-.3c1.73-3.96,2.26-8.36,1.6-13.19l.78-.55c-.35-.07-.33-.2,0-.39l-.78-.64c.64-4.36.16-8.38-1.43-12.06l.26-.95c-.28-.34-.57-.73-.61-1.18-.15-1.73,0-6.87.21-8.65l.79-1.09c2.34,0,4.69-.01,7.02,0Z"/>
  <path class="cls-11" d="M119.2,104.26l.54.73c.21,3.57.29,6.71.24,9.42.6,1.01.4,1.3-.78,1.17l.18.97c-1.57,3.53-2.02,7.39-1.36,11.58l-.78.72c.35.07.33.2,0,.39l.78.56c-.74,4.79-.15,9.11,1.76,12.95l-.2.92c.84,3.56.81,8.87,0,12.48.8.67.65.91-.39.78l.2.93c-1.58,3.69-2.03,7.71-1.37,12.06l-.78.66c.35.07.33.2,0,.39l.78.63c-.76,4.63-.18,8.78,1.73,12.44l-.17.97.58.92c-.27,2.93-.32,5.88-.15,8.84l-.82.77c-4.16-.01-8.33.03-12.48,0l-.8-.95c.13-2.85.07-5.69-.19-8.52l.6-1.06-.18-.96c1.9-3.68,2.48-7.84,1.74-12.46l.78-.62c-.35-.07-.33-.2,0-.39l-.78-.55c.73-4.72.21-8.94-1.57-12.66l.39-.83-.68-1.24-.3-9.21c-.14-1.18.18-1.95.98-2.81-.79-.46-.6-1.26.55-2.41.8-3.58,1.01-7.27.62-11.08l.78-.55c-.35-.07-.33-.2,0-.39l-.78-.63c.74-4.61.16-8.76-1.74-12.45l.18-.97-.6-1.06c.26-2.83.32-5.67.19-8.52l.8-.95c4.15-.03,8.33.01,12.48,0Z"/>
  <path class="cls-26" d="M143.39,104.26l.54.79c.2,3.82.28,7.2.24,10.13l.25.99c-1.61,3.65-2.08,7.64-1.42,11.97l-.78.7c.35.07.33.2,0,.39l.78.6c-.65,4.52-.16,8.7,1.44,12.52l-.27.92c-.22,4.19-.16,8.44.17,12.74l-.56.91c.35.11.34.24,0,.39l.27.92c-1.26,3.67-1.61,7.56-1.06,11.67l-.78.68c.35.07.33.2,0,.39l.78.6c-.44,3.97-.16,7.78.83,11.44l-.44.84c-.06,3.4-.06,7.05.04,10.56l-.82,1.14c-3.38,0-6.77,0-10.14,0l-.82-.84c.14-3.04.11-6.07-.1-9.1l.53-1.38-.34-.87c1.31-3.68,1.68-7.62,1.13-11.81l.78-.58c-.35-.07-.33-.2,0-.39l-.78-.64c.57-4.15.2-8.05-1.12-11.7l.33-.92-.55-1.23c.35-4.27.29-8.61.16-12.81l-.42-.3c1.73-3.96,2.26-8.36,1.6-13.19l.78-.55c-.35-.07-.33-.2,0-.39l-.78-.49c.33-3.73.15-7.37-.53-10.92l.53-.68c-.99-1.11-1.09-11.33-.78-11.92.16-.3.47-.47.78-.57,3.51,0,7.03,0,10.53,0Z"/>
  <path class="cls-6" d="M117.25,16.87c.04,2.72.04,5.47,0,8.19H17.38c.01-2.73,0-5.47,0-8.19h99.87Z"/>
  <path class="cls-35" d="M122.32,58.23c2.33,2.85,2.84,3.94,3.12,7.8-.64.58-.94.18-1.32-.42l-114.18.03c.12,1.52.15,2.99-.75,4.29,1.06,1.66,1.07,3.42,0,5.07.96,2.23.97,4.4,0,6.63.96,2.49.97,4.92,0,7.41.76,2.07.77,4.17,0,6.24.77,1.42.77,2.88,0,4.29.77,1.55.77,3.13,0,4.68.76,1.68.76,3.39,0,5.07.77,1.81.76,3.65,0,5.46.97,2.49.96,4.92,0,7.41,1.08,2.97,1.06,6,0,8.97,1.14,2.49,1.1,5.31,0,7.8,1.2,1.63,1.14,4.55,0,6.24,1.14.31,1.08,2,0,2.34-.65-.41-.39-1.48-.4-2.14-.33-26.4.27-52.81,0-79.21.33-3.34,1.02-5.45,3.13-7.98l1.66-.78h107.3l1.45.78Z"/>
  <path class="cls-56" d="M9.19,69.93c.02-1.69-.01-3.39,0-5.07l115.31-.03.95,1.2c.1,1.4-.03,2.88,0,4.29-32.84.19-65.94.2-99.31.03l-.6.42c-5.34-.02-10.63-.04-15.87-.05l-.48-.78Z"/>
  <path class="cls-28" d="M20.5,52.77l2.88-.78h87.75l2.61.78c3.88,1.87,5.77,2.03,8.58,5.46H11.92c2.77-3.32,4.95-3.71,8.58-5.46Z"/>
  <path class="cls-19" d="M187.47,105.04l.78,1.07v87.58l-.78,1.07c-2.76,1.27-5.97.73-8.97.78-.3-.04-.72-.11-.78-.34-.15-.57-.11-6.88,0-7.68l.78-.56c.1-.75.63-1.34,1.6-1.77,2.69-3.72,3.59-8.28,2.69-13.7l.78-.52c-.35-.07-.33-.2,0-.39l-.78-.63c.42-5.17.46-9.67-2.35-14.2-.76.81-2.09-.12-1.95-1.17l-.78-.45v-8.34l.78-.57.28-.95c3.13-1.34,3.99-4.72,4.11-7.85l-.1-6.67.78-.53c-.35-.07-.33-.2,0-.39l-.78-.69c.33-4.26.23-8.5-1.17-12.58-1.17.31-2.15-.85-2.34-1.95-.83.75-1.26.21-.78-.78l-.78-.34c-.1-.98-.11-7.6.26-7.98.13-.13.31-.2.52-.26,3,.05,6.21-.49,8.97.78Z"/>
  <path class="cls-51" d="M88.77,105.04l.78.27v88.97l-.78.48c-1.43-.58-2.1-.81-3.12-2.15-.53-.7-1.95-3.58-1.95-4.29v-29.84l-63.59-.39.27-.78h62.58c-.12-1.99-.21-4.03.74-5.85-1.06-2.05-1.08-4.19,0-6.24-.76-2.07-.76-4.17,0-6.24-.76-.49-.76-1.07,0-1.56-.02-5.46.01-10.93,0-16.39l-46.04-.39.27-.78h45.04s-.11-6.51-.11-6.51l.84-.9c.33-3.51,1.82-6.09,5.07-7.41Z"/>
  <path class="cls-5" d="M97.35,104.26l.78.44c-.17,2.66-.04,5.24.39,7.75.34.11.34.24,0,.39-.11,1.04-.45,1.14-1.17.39-.34,1.13-1.66,2.07-2.73,1.95l.15,1.02c-1.95,3.47-2.52,7.45-1.72,11.94l-.78.7c.35.07.33.2,0,.39l.78.55-.11,6.72c-.29,3.7,1.7,6.53,4.86,8.19l.33.92c.3.11.72.27.74.52.06.98-.44,7.14-.69,7.96l-.83.5-.3.94c-3.15,1.29-3.97,4.7-4.09,7.81l.1,6.71-.78.53c.35.07.33.2,0,.39l.78.65-.07,6.82c.08,3.53,1.69,6.6,5.12,7.91l.41,1c-.43,2.48-.56,5.03-.39,7.64l-.78.55c-3.19-.05-5.56.44-8.58-.78v-89.73c3.02-1.22,5.39-.73,8.58-.78Z"/>
  <path class="cls-36" d="M83.7,151.47c-.02,2.21.01,4.43,0,6.63H20.11c-4.39-.38-7.27-2.5-9.36-6.24l.27-.78c24.06-.13,48.13-.26,72.2-.39l.48.78Z"/>
  <path class="cls-53" d="M83.7,145.22c0,2.08.01,4.17,0,6.24l-72.95.39c-1-1.8-1.35-2.05-1.56-4.29-.07-.75.03-1.57,0-2.34l.27-.78h73.76l.48.78Z"/>
  <path class="cls-17" d="M187.47,194.77v-89.73c2.87,1.31,4.27,4.2,4.68,7.22-.31,25.82.66,51.79-.49,77.52-.77,2.2-2.03,4-4.18,4.99Z"/>
  <path class="cls-59" d="M108.67,50.03c.12.02.27-.03.39,0,.88.24,3.6,2.21,4.68,2.73H20.5c1.62-.78,3.31-2.09,5.07-2.73h83.1Z"/>
  <path class="cls-25" d="M156.65,184.63v10.92c-4.68.01-9.37,0-14.04,0,.18-3.26-.24-6.74-.02-9.97.05-.73-.09-1.46.8-1.73l.97.05c2.71,3.44,8.18,3.48,11.34.61l.96.12Z"/>
  <path class="cls-29" d="M125.44,70.32c0,.13,0,.26,0,.39H25.57c-.01,1.42.02,2.87,0,4.29,0,.3-.07.77-.26.78-1.91.1-14.95.33-15.66,0l-.46-.78c0-1.69-.02-3.39,0-5.07l116.26.39Z"/>
  <path class="cls-27" d="M132.46,195.55c-4.42,0-8.85.01-13.26,0,.24-3.43-.5-7.22.39-10.53l.99-.15c3.05,2.53,7.79,2.23,10.5-.66l1,.03c.87,3.6.16,7.61.39,11.31Z"/>
  <path class="cls-55" d="M106.72,195.55c-3.11-.02-6.25.05-9.36,0v-8.19c.39-.01.78.01,1.17,0l.54-.79c2.25,0,4.57-.1,6.31-1.72l.95.18c.73,3.45.26,7.03.39,10.53Z"/>
  <path class="cls-21" d="M178.5,186.97v8.58c-2.98.05-5.99-.02-8.97,0,.4-3.05-.89-7.14.78-9.75l.86-.33c1.96,1.21,4.42,1.43,6.63.9l.7.6Z"/>
  <path class="cls-21" d="M178.5,104.26v8.58c-.63.86-1.54.73-2.73-.39-.16.97-1.02,1.16-1.38.27l-.96.12c.16,1.07-.56,1.26-1.17.39-.03,1.15-1.09,1.37-1.95.78-.89-3.04-.15-6.59-.39-9.75,2.85.02,5.73-.05,8.58,0Z"/>
  <path class="cls-43" d="M43.81,79.39c15.48-2.41,20.7,18.35,7.39,23.77-9.93,4.04-20-5.37-16.67-15.5,1.28-3.9,5.17-7.63,9.28-8.27Z"/>
  <path class="cls-6" d="M83.7,112.45c-.24,2.61.18,5.54,0,8.19h-46.04c-4.88-.52-5.05-7.28-.17-8.17l46.2-.03Z"/>
  <path class="cls-6" d="M68.22,88.78c.48-.54,2-1.25,2.79-1.3h42.15c4.93.6,5.32,6.78.75,8.18l-43.29.03c-3.31-.18-4.37-4.68-2.41-6.91Z"/>
  <path class="cls-3" d="M25.57,131.18c.02,2.08-.01,4.17,0,6.24h58.13c0,.52,0,1.04,0,1.56l-.27.78H9.67l-.48-.78c-.03-2.59.02-5.21,0-7.8,0-.3.07-.77.26-.78,3.08-.19,13.17-.55,15.66,0l.46.78Z"/>
  <path class="cls-42" d="M25.57,122.21c.01,2.98-.02,5.99,0,8.97H9.19c-.02-2.99.01-5.99,0-8.97,0-.3.07-.76.26-.78,3.93-.39,11.71-.36,15.66,0l.46.78Z"/>
  <path class="cls-27" d="M132.85,104.26v12.48c-.59.45-.98.06-1.17-1.17-1.09.23-2.16-1.01-2.34-1.95-1.12.41-2.29.02-3.51-1.17-.17.96-1.02,1.14-1.38.26l-.97.13c-.05,1.07-.51,1.25-1.17.39-.13,1.16-1.32,1.68-2.34,1.17-1.18.22-.75-.6-.78-1.35-.12-2.92.08-5.87,0-8.8,4.55-.01,9.11,0,13.65,0Z"/>
  <path class="cls-25" d="M157.04,104.26c-.07,3.65.26,7.33-.39,10.92-.61.56-1,.3-1.17-.78-.96.54-2.46-.6-2.73-1.56-.5,1.07-1.91.49-2.63-.24l-1.66.24c-.13,1.03-.46,1.16-1.17.39-.1,1-1.85,1.63-2.73,1.56.5.57.27.78-.39.39-1.18.22-.75-.6-.78-1.35-.13-3.18.09-6.4,0-9.58,4.55,0,9.11-.01,13.65,0Z"/>
  <path class="cls-44" d="M25.57,81.63c0,2.47,0,4.95,0,7.41,0,.3-.07.77-.26.78-1.91.1-14.95.33-15.66,0l-.46-.78c0-2.47,0-4.95,0-7.41,0-.3.07-.77.26-.78,3.89-.3,11.92-.46,15.66,0l.46.78Z"/>
  <path class="cls-2" d="M25.57,114.79c0,2.47,0,4.95,0,7.41H9.19c0-2.47,0-4.95,0-7.41,0-.3.07-.77.26-.78,4.07-.23,9.77-.29,13.79,0,1.28-.25,2.06,0,2.33.78Z"/>
  <path class="cls-40" d="M25.57,75c-.03,2.2,0,4.43,0,6.63H9.19c0-2.21,0-4.43,0-6.63h16.38Z"/>
  <path class="cls-32" d="M25.57,89.05c0,2.08,0,4.17,0,6.24,0,.3-.07.77-.26.78-1.91.1-14.95.33-15.66,0l-.46-.78c0-2.08,0-4.17,0-6.24h16.38Z"/>
  <path class="cls-31" d="M25.57,109.33c0,1.82,0,3.65,0,5.46H9.19c0-1.82,0-3.65,0-5.46,0-.3.07-.76.26-.78,3.95-.36,11.74-.39,15.66,0l.46.78Z"/>
  <path class="cls-46" d="M25.57,104.26c0,1.69,0,3.39,0,5.07H9.19c0-1.69,0-3.39,0-5.07,0-.3.07-.76.26-.78,3.95-.36,11.74-.39,15.66,0l.46.78Z"/>
  <path class="cls-55" d="M106.72,104.26c-.13,3.51.34,7.09-.39,10.53-.41.7-.63.35-.78-.39-.79.73-2.52-.64-2.73-1.56l-.66.64c-1.19-.43-2.4-.78-3.63-1.03-.39-.01-.78.02-1.17,0v-8.19c3.11-.05,6.25.02,9.36,0Z"/>
  <path class="cls-18" d="M25.57,99.58c0,1.56,0,3.13,0,4.68H9.19c0-1.56,0-3.12,0-4.68,0-.3.07-.77.26-.78,4.07-.23,9.77-.29,13.79,0,1.28-.25,2.06,0,2.33.78Z"/>
  <path class="cls-12" d="M25.57,95.29c0,1.43,0,2.86,0,4.29H9.19c0-1.43,0-2.86,0-4.29h16.38Z"/>
  <path class="cls-33" d="M158.6,129.23c0,3.29.56,9.2-.7,11.98-.08.19-1.17,1.98-1.25,2.07-.83,3.11-5.87,3.56-8.67,2.93-1.4-.32-4.45-1.25-3.81-2.93-2.86-3.3-1.94-9.8-1.95-14.04,5.15-.33,11.1-.33,16.38,0Z"/>
  <path class="cls-33" d="M183.57,129.23c0,5.39,1.48,13.7-5.07,15.99-.93,2.33-8.04,1.4-8.19-1.17-4.44-3.48-3.1-9.67-3.12-14.82,5.15-.33,11.1-.33,16.38,0Z"/>
  <path class="cls-33" d="M158.6,170.97c-.02,4.29.96,10.32-1.95,13.65-3.35,3.84-10.65,3.64-13.26-.78-1.85-3.13-1.15-9.14-1.17-12.87,5.15-.33,11.1-.33,16.38,0Z"/>
  <path class="cls-33" d="M183.57,170.97c-.03,5.22,1.28,13.72-5.07,15.99-2.41.86-6.22.49-8.19-1.17-4.38-3.67-3.1-9.61-3.12-14.82,5.29-.33,11.09-.33,16.38,0Z"/>
  <path class="cls-25" d="M156.65,143.27c.61,3.38.43,6.91.41,10.36,0,1.02-.47,2.14-.41,2.91-.11.34-.24.34-.39,0-1.04.52-2.18-.48-2.34-1.56-.79.77-2.37.19-2.73-.78-.78.98-1.82,1.11-3.12.39-.13,1.07-.78,1.33-1.95.78.2,1.12-1.41,2.13-2.34,1.56-.62-1.14-.58-10.1-.41-11.92.07-.73.34-1.2.8-1.74,2.02,2.33,6.01,2.83,8.9,2.07.66-.17,3.19-1.65,3.58-2.07Z"/>
  <path class="cls-21" d="M178.5,145.22v9.36c-.73.86-1.33.71-1.56-.39-.56,1.04-1.39,1.05-1.95,0-.46.96-2.32,1.58-3.12.78-.05,1.15-1.12,1.57-1.95.78-.48-3.03-.64-6.87-.4-9.96.05-.69.14-1.34.79-1.75,2.23,1.75,5.58,2.09,8.19,1.17Z"/>
  <path class="cls-24" d="M156.65,115.18c2.88,3.46,1.92,9.3,1.95,13.65-.81.33-2.23.31-3.12,0-.18.02-.36.02-.52-.03-.67-.22-.49-13.28-.26-13.95l.78-.46c.32.26.96.53,1.17.78Z"/>
  <path class="cls-9" d="M172.26,170.58c-.41.34-1.74.29-2.34,0-.41-.38-.69-.84-.82-1.38l.04-12.27c.25-.31.57-1.01.78-1.17.37-.27,1.41-.57,1.95-.78.3,0,.76.05.79.24.41,3.62.7,11.34.37,14.88l-.77.48Z"/>
  <path class="cls-38" d="M172.26,113.23c.3,0,.77.07.78.26.15,2.4.45,13.26,0,14.88l-.78.46c-.41.34-1.74.29-2.34,0l-.54-.99c-.21-4.22-.29-8.31-.24-12.28.32-.41.85-1.3,1.17-1.56.78-.63,1.21-.49,1.95-.78Z"/>
  <path class="cls-24" d="M158.6,170.58c-.74.34-2.02.3-2.73,0-.3-.09-.76-.24-.77-.48-.07-1.71.04-12.14.36-13.01l.8-.55h.39c.07.93.92,1.34,1.25,2.07,1.26,2.78.69,8.69.7,11.98Z"/>
  <path class="cls-8" d="M169.92,170.58c-.67.33-1.97.31-2.73,0,.01-4.61-1.03-10.02,1.95-13.65.89.27.76,1.01.8,1.73.22,3.91-.21,7.99-.02,11.92Z"/>
  <path class="cls-1" d="M169.14,115.57c1.18-.22.76.6.78,1.35.13,3.96-.1,7.96,0,11.92-.69.33-2,.31-2.73,0,.02-4.88-1.07-9.37,1.95-13.26Z"/>
  <path class="cls-10" d="M144.56,170.58c-.14-1.17,2.13-1.11,2.34,0-.14-1.17,2.13-1.11,2.34,0,.03-1.17,1.74-1.08,1.95,0-.14-1.17,2.13-1.11,2.34,0-.14-1.17,2.13-1.11,2.34,0h2.73c0,.13,0,.26,0,.39h-16.38c0-.13,0-.26,0-.39-.14-1.17,2.13-1.11,2.34,0Z"/>
  <path class="cls-45" d="M169.92,170.58h2.34c.14-1.18,2.5-1.13,2.73,0-.14-1.17,2.13-1.11,2.34,0,.16-1.19,2.86-1.14,3.12,0,.16-1.19,2.86-1.14,3.12,0,0,.13,0,.26,0,.39h-16.38c0-.13,0-.26,0-.39h2.73Z"/>
  <path class="cls-48" d="M145.34,128.84c-.15-1.16,2.12-1.12,2.34,0,.14-1.18,2.5-1.13,2.73,0,.03-1.17,1.74-1.08,1.95,0,.16-1.19,2.86-1.14,3.12,0h3.12c0,.13,0,.26,0,.39h-16.38c0-.13,0-.26,0-.39.16-1.19,2.86-1.14,3.12,0Z"/>
  <path class="cls-57" d="M169.92,128.84h2.34c-.15-1.16,2.12-1.12,2.34,0,.03-1.17,1.74-1.08,1.95,0-.15-1.16,2.12-1.12,2.34,0-.15-1.16,2.12-1.12,2.34,0-.14-1.16,2.12-1.12,2.34,0,0,.13,0,.26,0,.39h-16.38c0-.13,0-.26,0-.39h2.73Z"/>
  <path class="cls-15" d="M106.72,156.54c.08.09,1.17,1.89,1.25,2.07,1.26,2.77.69,8.69.7,11.98-5.15.33-11.1.33-16.38,0,.02-5.41-1.49-13.83,5.07-15.99.4-1.71,3.75-1.31,5.28-.99,1.7.36,3.99.98,4.08,2.95Z"/>
  <path class="cls-33" d="M108.67,129.23c0,3.28.56,9.21-.7,11.98-.34.76-1.08,1.05-1.25,2.07-.85,2.71-6.82,4.51-8.58,2.34-1.87-.35-4.9-3.39-5.48-5.24-.84-2.65-.36-8.1-.37-11.14,5.15-.33,11.1-.33,16.38,0Z"/>
  <path class="cls-33" d="M133.63,129.23c0,3.29.56,9.2-.7,11.98-.08.19-1.17,1.98-1.25,2.07.27,2.35-4.2,3.09-6.18,3.16-1.84.07-6-.72-5.92-2.77-3.33-3.15-2.33-10.11-2.34-14.43,5.15-.33,11.1-.33,16.38,0Z"/>
  <path class="cls-33" d="M133.63,170.97c-.02,3.89.82,10.19-1.56,13.26-2.96,3.82-9.04,4.23-12.48.78-3.42-3.43-2.32-9.45-2.34-14.04,5.29-.33,11.09-.33,16.38,0Z"/>
  <path class="cls-33" d="M108.67,170.97c-.03,4.49,1.03,10.68-2.34,14.04-2.41,2.41-4.67,2.26-7.8,2.34-7.83-2.85-6.21-9.6-6.24-16.38,5.15-.33,11.1-.33,16.38,0Z"/>
  <path class="cls-27" d="M132.07,157.32c-.78.38-1.3-.14-1.56-1.56-.94.58-3.23-.53-3.51-1.56-.28,1.1-1.43,1-1.95,0-.46.96-2.31,1.56-3.12.78-.09,1.14-1.42,1.96-2.34,1.17-.65-.41-.39-1.48-.4-2.14-.03-2.73-.03-5.47,0-8.2,0-.66-.25-1.74.4-2.14.37.35,2.89,1.65,3.49,1.78,2.83.6,6.57-.01,8.6-2.17.9.27.75,1.01.8,1.73.26,3.84.08,8.53-.41,12.31Z"/>
  <path class="cls-55" d="M106.72,156.54c-2.15-2.33-6.44-2.91-9.36-1.95l.78-8.97c3.23.61,6.09-.39,8.58-2.34-.63,3.86.5,9.25,0,13.26Z"/>
  <path class="cls-24" d="M106.33,114.79c3.38,3.48,2.31,9.46,2.34,14.04-.81.33-2.23.31-3.12,0-.18.02-.36.02-.52-.03-.67-.22-.53-13.3-.26-13.95l.78-.46c.21.16.63.24.78.39Z"/>
  <path class="cls-9" d="M122.32,170.58c-.41.34-1.74.29-2.34,0-.41-.38-.69-.84-.82-1.38l.04-12.27c.17-.19.24-.66.39-.78.36-.31,1.8-.95,2.34-1.17.3,0,.77.05.79.24.34,3.44.78,11.68.37,14.88l-.77.48Z"/>
  <path class="cls-38" d="M122.32,113.23c.3,0,.77.07.78.26.27,3.5.47,11.6,0,14.88l-.78.46c-.41.34-1.74.29-2.34,0l-.54-.99c-.21-4.22-.29-8.31-.24-12.28.26-.33.53-.96.78-1.17.83-.7,1.42-.8,2.34-1.17Z"/>
  <path class="cls-8" d="M119.98,170.58c-.67.33-1.97.31-2.73,0,.01-4.51-1.02-10.15,1.95-13.65.89.27.76,1.01.8,1.73.22,3.91-.21,7.99-.02,11.92Z"/>
  <path class="cls-1" d="M119.2,115.57c1.18-.22.76.6.78,1.35.13,3.96-.1,7.96,0,11.92-.69.33-2,.31-2.73,0,.02-4.82-1.07-9.44,1.95-13.26Z"/>
  <path class="cls-16" d="M108.67,170.58c0,.13,0,.26,0,.39h-16.38c0-.13,0-.26,0-.39h16.38Z"/>
  <path class="cls-41" d="M119.98,170.58h2.34c.14-1.18,2.5-1.13,2.73,0-.14-1.17,2.13-1.11,2.34,0,.16-1.19,2.86-1.14,3.12,0,.16-1.19,2.86-1.14,3.12,0,0,.13,0,.26,0,.39h-16.38c0-.13,0-.26,0-.39h2.73Z"/>
  <path class="cls-7" d="M95.4,128.84c-.15-1.16,2.12-1.12,2.34,0,.14-1.18,2.5-1.13,2.73,0,.03-1.17,1.74-1.08,1.95,0,.16-1.19,2.86-1.14,3.12,0h3.12c0,.13,0,.26,0,.39h-16.38c0-.13,0-.26,0-.39.16-1.19,2.86-1.14,3.12,0Z"/>
  <path class="cls-54" d="M119.98,128.84h2.34c-.15-1.16,2.12-1.12,2.34,0,.03-1.17,1.74-1.08,1.95,0-.15-1.16,2.12-1.12,2.34,0-.15-1.16,2.12-1.12,2.34,0-.14-1.16,2.12-1.12,2.34,0,0,.13,0,.26,0,.39h-16.38c0-.13,0-.26,0-.39h2.73Z"/>
  <path class="cls-24" d="M132.07,157.32c2.43,3.36,1.55,9.14,1.56,13.26h-3.12c-.3,0-.77-.07-.78-.26-.1-1.71-.44-13.55,0-14.1l.78-.46c.66.48,1.09.91,1.56,1.56Z"/>
  <path class="cls-1" d="M144.56,114.79c.51-.45.75-.49,1.2-.06.82.79.45,10.76.31,12.77l-.73,1.34h-3.12c.02-4.66-.99-9.85,1.95-13.65.11-.14.26-.26.39-.39Z"/>
  <path class="cls-38" d="M146.12,155.37c.92-.35,1.09-.42,1.59.33.52.77.04,12.91-.81,14.89h-2.34c-.31-.06-.81-.17-.82-.37-.08-1.5-.16-12.08.29-12.51.07-.07.55,1-.25-.38-.06-.05.06-.28,0-.39.8-.75,1.39-1.07,2.34-1.56Z"/>
  <path class="cls-8" d="M143.78,157.32c.11.09.71-.09.78,0,.4.53-.3,11.54,0,13.27h-2.34c.01-4.26-.91-9.73,1.56-13.26Z"/>
  <path class="cls-13" d="M132.85,116.75c1.32,2.57.76,8.95.78,12.09h-2.34c-.3-.09-.75-.24-.77-.48-.17-2.58-.09-9.85.36-12.24l.8-.55c.3.35.94.71,1.17,1.17Z"/>
  <path class="cls-37" d="M178.5,154.59c.59.2,1.45.77,1.95,1.17l.78,1.69v12.67l-.78.46h-3.12c-.3,0-.77-.06-.79-.24-.33-4.11-.5-9.7-.33-13.79-.28-1.28-.04-2.06.72-2.35.46.05,1.11.24,1.56.39Z"/>
  <path class="cls-24" d="M183.57,170.58h-3.12v-14.82c4.45,3.56,3.11,9.73,3.12,14.82Z"/>
  <path class="cls-47" d="M178.5,112.84c.2.07.52.62.78.78l.75,1.01c-.12,4.59-.24,9.18-.35,13.76l-.79.44h-2.34l-.55-.69c-.19-5.23-.27-10.46-.23-15.7.71.01,2.11.16,2.73.39Z"/>
  <path class="cls-23" d="M181.62,115.57c.75,4.1.89,8.34.41,12.72l-.8.55h-2.34l.39-15.21c1.31.79,1.29.66,2.34,1.95Z"/>
  <path class="cls-13" d="M183.57,128.84h-2.34l.39-13.26c2.98,3.67,1.92,8.65,1.95,13.26Z"/>
  <path class="cls-39" d="M83.7,138.98c0,2.08,0,4.17,0,6.24H9.19c-.07-2.07.03-4.17,0-6.24h74.51Z"/>
  <path class="cls-52" d="M98.52,112.84c.69-.32,2.18-.38,2.73.26.5.58.09,13.41,0,15.28l-.78.46h-2.73c-.3,0-.77-.05-.79-.24-.18-1.98-.69-13.57-.37-14.64l.76-.72c.39-.13.44-.32,1.17-.39Z"/>
  <path class="cls-1" d="M94.62,115.18c.98-.74,1.14-.77,1.59.33.4.99.06,9.47-.06,11.43l-.76,1.89h-3.12c.02-5.07-1.22-9.83,2.34-13.65Z"/>
  <path class="cls-9" d="M97.35,113.23l.39,15.6h-2.34c-.1-4.09.14-8.21,0-12.31-.03-.75.4-1.57-.78-1.35,1.16-1.24.93-1.37,2.73-1.95Z"/>
  <path class="cls-50" d="M102.82,112.84l.76.72c-.12,4.94-.24,9.89-.36,14.83l-.79.44h-1.95v-16c-.64.04-1.31-.06-1.95,0v-.39c1.7.05,2.59-.06,4.29.39Z"/>
  <path class="cls-20" d="M173.43,112.84c1.88-.62,2.57.87,2.07,4.48l-.18,10.08-.72,1.43h-2.34v-15.6c.47-.18.6-.26,1.17-.39Z"/>
  <path class="cls-50" d="M175.77,112.45c.74.37.75.54.81,1.33.34,4.86-.31,10.15-.03,15.06h-1.95c-.28-4.89.38-10.19,0-15.04-.09-1.2.19-1-1.17-.96.94-.21,1.12-.41,2.34-.39Z"/>
  <path class="cls-47" d="M129.34,113.62c.44.21.66.53.75,1.01.34,1.77-.06,11.63-.35,13.76l-.79.44h-2.34l-.55-.69c-.19-5.23-.27-10.46-.23-15.7,1.81.07,2.09.36,3.51,1.17Z"/>
  <path class="cls-20" d="M123.49,112.84c1.88-.63,2.57.86,2.07,4.48l-.18,10.08-.72,1.43h-2.34v-15.6c.48-.19.61-.26,1.17-.39Z"/>
  <path class="cls-23" d="M131.68,115.57l-.39,13.26h-2.34l.39-15.21c.23.13.61.1.98.37.59.44.91,1.05,1.36,1.58Z"/>
  <path class="cls-50" d="M125.83,112.45c.74.37.75.54.81,1.33.34,4.86-.31,10.15-.03,15.06h-1.95c-.28-4.89.38-10.19,0-15.04-.09-1.2.19-1-1.17-.96.94-.22,1.12-.44,2.34-.39Z"/>
  <path class="cls-37" d="M152.75,112.84c1.62.4,1.64.68,2.73,1.56v14.43h-3.12c-.3,0-.77-.09-.77-.28-.05-1.87-.03-14.62.37-15.27l.79-.44Z"/>
  <path class="cls-52" d="M148.46,112.84c.54-.18,2.02-.42,2.42-.14.64.46.41,13.7.31,15.67l-.78.46h-2.73c-.29,0-.7-.02-.79-.24-.33-.83-.43-13.01-.37-14.88l.77-.48c.33-.09.44-.32,1.17-.39Z"/>
  <path class="cls-9" d="M147.29,113.23l.39,15.6h-2.34c-.24-4.15.31-8.61.03-12.72-.05-.79-.07-.96-.81-1.33.26-.26.3-.65.79-.95.6-.36,1.28-.43,1.94-.61Z"/>
  <path class="cls-22" d="M152.75,112.84l-.39,15.99h-1.95v-16c-.64.04-1.31-.06-1.95,0,1.21-.91,3-.32,4.29,0Z"/>
  <path class="cls-37" d="M105.55,114.4v14.43h-3.12l.39-15.99c1.58.42,1.62.69,2.73,1.56Z"/>
  <path class="cls-4" d="M153.92,154.98l.7.72c-.04,4.81-.14,9.62-.29,14.44l-.79.44h-2.34c-.3,0-.77-.07-.78-.26-.23-4.11-.27-9.7,0-13.79-.25-1.28,0-2.06.78-2.33,1.46.09,1.53.23,2.73.78Z"/>
  <path class="cls-20" d="M148.07,154.59c1.55-.4,2.24.39,2.06,2.36l-.18,12.52-.71,1.12h-2.34c-.11-4.61.15-9.25,0-13.87-.03-.75.4-1.57-.78-1.35.92-.48.77-.5,1.95-.78Z"/>
  <path class="cls-14" d="M156.26,156.54l-.39,14.04h-2.34l.39-15.6c.95.44,1.62.75,2.34,1.56Z"/>
  <path class="cls-49" d="M151.19,154.2v16.38h-1.95c-.39-4.65.52-10.11.02-14.65-.1-.88-.13-1.35-1.19-1.35,1.22-.29,1.69-.48,3.12-.39Z"/>
  <path class="cls-52" d="M174.99,154.2c.3,0,.77.07.78.26.1,1.91.33,14.95,0,15.66l-.78.46h-2.73l-.39-15.6c1.39-.54,1.41-.71,3.12-.78Z"/>
  <path class="cls-50" d="M176.94,154.2l.39,16.38h-2.34v-16.38c.6-.03,1.38-.07,1.95,0Z"/>
  <path class="cls-37" d="M130.51,155.76v14.82h-3.12c-.3,0-.77-.05-.79-.24-.4-3.88-.74-11.91-.37-15.66l.77-.48c1.34.19,2.44.78,3.51,1.56Z"/>
  <path class="cls-52" d="M125.05,154.2c.3,0,.77.07.78.26.21,3.35.55,12.78,0,15.66l-.78.46h-2.73l-.39-15.6c1.4-.57,1.43-.71,3.12-.78Z"/>
  <path class="cls-50" d="M127,154.2l.39,16.38h-2.34v-16.38c.59-.02,1.4-.08,1.95,0Z"/>
</svg>