<?xml version="1.0" encoding="UTF-8"?>
<svg id="Layer_2" data-name="Layer 2" xmlns="http://www.w3.org/2000/svg" viewBox="0 0 188.32 188.29">
  <defs>
    <style>
      .cls-1 {
        fill: #ec18bf;
      }

      .cls-2 {
        fill: #df19b5;
      }

      .cls-3 {
        fill: #fdd8c8;
      }

      .cls-4 {
        fill: #b1b1b1;
      }

      .cls-5 {
        fill: #f1d149;
      }

      .cls-6 {
        fill: #603247;
      }

      .cls-7 {
        fill: #e9e9e9;
      }

      .cls-8 {
        fill: #4c4c4c;
      }

      .cls-9 {
        fill: #693b4e;
      }

      .cls-10 {
        fill: #f1f1f1;
      }

      .cls-11 {
        fill: #616161;
      }

      .cls-12 {
        fill: #5a2c42;
      }

      .cls-13 {
        fill: #fec2ad;
      }

      .cls-14 {
        fill: #dfdfdf;
      }

      .cls-15 {
        fill: #d0d0d0;
      }

      .cls-16 {
        fill: #e22fb7;
      }

      .cls-17 {
        fill: #fec4b6;
      }

      .cls-18 {
        fill: #f6e4c3;
      }

      .cls-19 {
        fill: #565656;
      }

      .cls-20 {
        fill: #fefdfe;
      }

      .cls-21 {
        fill: #fefefe;
      }

      .cls-22 {
        fill: #6a3b52;
      }

      .cls-23 {
        fill: #feb9ae;
      }

      .cls-24 {
        fill: #fbd1c4;
      }

      .cls-25 {
        fill: #fef4e0;
      }
    </style>
  </defs>
  <g id="Layer_6" data-name="Layer 6">
    <g>
      <path class="cls-25" d="M136.44,164.02l.79.4c.39,2.47.37,4.97-.05,7.51-.19,2.96.12,5.35,3.55,5.72,6.82.73,15.47.63,22.32,0,1.82-.17,2.39-.71.71-1.9l-15.66-7.3c-.83-.95-1.21-3.92.1-4.42h40.09c-.07,6.73.09,13.49,0,20.23l-.35.74H.46l-.46-.74v-20.23c5.26-.72,10.55-.72,15.81,0,.37-1.19,4.29-1.12,4.78,0,1.18,1.42,1.79,3.29,1.83,5.61-.94,7.74,3.78,8.62,10.34,8.49,5.49-.11,2.65-2.31-.49-3.87-1.06-1.21-.93-7.89-.69-9.76l.77-.47c8.93-.72,17.64-.99,26.15-.8l.33.43.5-.57c25.31-.05,51.01.26,77.09.94Z"/>
      <path class="cls-4" d="M187.19,0c1.64.81,1.08,4.05-.18,4.05h-6.44v67.66h6.44c1.46,0,2.28,3.66-1.1,4.05h-73.01c-.92-1.45-.52-4,.74-5.16l.73.36c8.56.01,17.1.08,25.62.21l.87.54-.74-.26V4.5l.74-.45-.26.74h-30.56l-.45-.74.74.26v50.41l-.74.45c-1.37.16-4.36-2.24-4.05-3.68-.44-.17-.72-.81-.74-1.33V4.5l.74-.45c-.04.28-.12.71-.32.74-1.16.14-4.43.14-5.61,0l-.51-.74c-2,1.42-3.15-4.24-.18-4.05h88.26Z"/>
      <path class="cls-18" d="M188.29,184.24c-.02,1.34.01,2.7,0,4.05H0v-4.05h188.29Z"/>
      <path class="cls-1" d="M25.37,114.37l.78.37-.35,3.95c1.86,5.17,1.5,9.55.2,14.8.15,1.39-.06,2.5-.64,3.32-.07.33-.19.31-.37,0l-1.09-.76c-1.79-7.8-3.84-13.17-8.61-19.64-.69-.94-9.49-12.4-7.88-9.02,2.31,3.32,4.8,6.53,7.46,9.62,4.77,5.4,6.31,11.76,7.92,18.66l-.38,1.14c-.23.19-.47.36-.73.49-.94.47-7.89.3-9.59.18l-1.46-.67-.91-.45c-.45-2.78-1.44-5.24-2.96-7.37-4.36-3.56-6.45-8.66-6.8-14.24v-7.35c1.22-3.66,2.64-7.26,7.19-7.37,5.92-.14,17.11,8.56,18.19,14.35Z"/>
      <path class="cls-7" d="M0,61.05c.9-1.65,1.91-2.99,3.89-3.28,2.78-.39,14.49-.42,17.09.13,4.26.9,4.1,4.81,4.19,8.32.42.61,2.66.26,3.61.43,4.37.77,4.62,7.63-.44,8.58-2.87.54-13.68.51-16.59,0-4.39-.77-5.16-4.78-4.76-8.66-3.1.36-5.64-.35-6.99-3.31v-2.21Z"/>
      <path class="cls-17" d="M47.07,0c3.05,1.87,5.34,3.88,7.29,6.87.73,1.12.78,2.77,2.27,3.62l15.08,12.31c.1.95-.28,1.93-1.14,2.94-.28,1-.76,1.73-1.43,2.21-1.04-.13-1.95-.76-2.75-1.89-6.04-4.36-11.77-9.02-17.21-13.98-1.33-3.47-3.37-5.95-6.23-8.28l.08-.86c-.12-1.77,1.05-2.08,2.21-2.94h1.84Z"/>
      <path class="cls-1" d="M98.56,55.17l.44-.82c2.14-.27,3.79-1.46,5.26-2.99l.92.13h.37c1.15,1.28,2.92,2.43,4.05,3.68,2.4.42,3.95,4.36,4.54,6.66.43,1.65.88,6.54.33,7.98-.14.37-.5.6-.82.8-.19,1.67-.51,3.45-.74,5.15-.39,2.92-1.24,5.86-1.47,8.83.94.38,1.36,3.66.37,4.05.53,4.03,1.15,8.13,1.84,12.14l-.06.42c-11.89-.2-23.76-.34-35.61-.42.9-4.77,4.24-10.92,4.75-15.3.33-2.78-.5-8.78-.71-11.92-1.21-2.29-1.31-4.95-.37-7.35l.74-.72c7.64.07,9.51-7.75,5.03-13l.12-.99c-.26-1.03.66-1.45,1.47-.74l.98.03c2.14,2.74,5.17,4.15,8.58,4.39Z"/>
      <path class="cls-4" d="M48.91,114.74l.84.6c.07,3.36-.33,6.73-1.21,10.11.51,3.15.91,6.29,1.21,9.43l-.47.46c-.2.57-.21,1.15-.03,1.71-.36,1.22-9.45.34-12.48-.24l-.54-1c3.4-8.03,2.53-14.76-.37-22.78-.76-3.03-.71-6.17-.32-9.26l1.87-12.21c.15-8.27-1.98,6.32-2.21,8.5-.45,4.27-.86,8.6-.11,12.85,2.47,8.57,3.79,14.93-.03,23.38l-.88.52c-2.96.92-5.87.91-8.83,0-.79-4.01,1.27-7.85,1.12-11.6-.09-2.42-1.4-4.76-1.46-7.03-.03-1.23.59-2.48.34-3.8,2.5-3.59.35-7.33,0-10.85-.6-6.06,2.14-14.85,6.79-18.94,9.32-8.22,16.83,8.39,17.12,15.99.13,3.4-1.51,6.35-1.51,9.21,0,1.69.85,3.35,1.13,4.96Z"/>
      <path class="cls-19" d="M82.01,109.22l.69,1.08c-.47,8.8,5.69,14.91,13.94,16.72l.81.95v1.09c-5.39,6.23-11.13,12.8-17.46,18.14-5.02,4.24-12.47,6.56-18.9,8.01l-1.16-.4c-.39,1.28-3.01,1.96-4.05,1.1l-.86-.02c-2.43-4.28-4.86-8.56-7.29-12.84l.42-.74.34-.96c4.34-1.81,8.76-3.33,13.26-4.56l-.14-.8,2.99-3.41.83.17c4.04-4.48,7.85-9.19,11.86-13.7.25-2.38-.17-4.91-.11-7.46.02-.83.36-1.58.38-2.38.58-1.28,3.73-1.15,4.41,0Z"/>
      <path class="cls-24" d="M43.03,2.95c.73.46,3.96,3.64,4.57,4.44,1.1,1.46,1.55,3.55,2.41,4.57,4.5,5.35,14.61,10.2,19.13,15.99.24-.16.65-.34.75-.19,3.85,5.35,7.43,11.18,10.77,16.88,1.68,1.94,3.17,4.01,4.48,6.22.92.13,1.72.34,2.38.63,5.65,6.22,3.26,15.16-5.88,14.71-.63-.18-.97-.72-1-1.62-5.19-6.46-10.02-13.71-13.94-21.26l-.13-1.76c-1.17-.12-2.8-2.42-2.21-3.68-1.46-2.23-1.28-1.81-3.14-3.67-5.12-5.13-9.96-10.5-13.94-16.58-1.63-1.18-5.91,1.05-6.05-2-.08-1.64,1.41-1.46,2.53-1.83-1.2-2.38-6.69-5.81-6.6-8.42.09-3,3.59-3.85,5.87-2.43Z"/>
      <path class="cls-7" d="M65.46,132.76c-1.05,1.17-2.45,3.26-3.68,4.05-3.14.84-6.98,1.4-9.93,0-.17-.35-.37-.75-.31-1.15.32-2.16,1.81-6.9,2.56-9.15,1.17-3.51,3-6.16,5.16-9.08,3.07-3.34,5.73-6.9,7.98-10.67-8.27,7.84-14.56,17.71-16.58,29.23l-1.02.82c-.88,1.03-1,.54-.37-1.47-.13-3.42-1.43-6.66-1.48-9.4-.07-4.07,2.08-5.7,1.11-11.2,2.6-6.01,8.73-12.33,15.16-14.08,13.24-3.6,11.42,15.23,7.46,22.54-1.68,3.09-4.48,4.52-6.03,7.95-.21.47-.79,1.27-.05,1.61Z"/>
      <path class="cls-7" d="M45.97,30.9c2.72-.25,6.24-.05,6.9,3.21.62,3.02-1.11,5.27-4.14,5.62s-13.39.4-16.39-.16c-4.54-.86-4.64-4.84-4.39-8.67-1.94-.01-4.16.36-5.71-1.09-2.75-2.57-1.02-7.18,2.62-7.7,2.94-.42,13.89-.41,16.72.13,4.58.86,4.68,4.82,4.39,8.67Z"/>
      <path class="cls-2" d="M77.96,101.13c11.43-.36,23.78-.26,35.41-.06l.63.8c.4,2.32.82,4.65,1.1,6.99-.56.22-1.12.43-1.7.58s-1.14.29-1.72.32c-8.71.42-17.49.38-26.21.23-.58,0-1.16-.13-1.74-.26s-1.16-.31-1.73-.51c-1.45-.01-3.01-.18-4.41,0,.1-2.9-.08-5.19.37-8.09Z"/>
      <path class="cls-22" d="M66.56,41.56c-1.81,2.96-.16,7.84,1.92,11.05,3.89,4.98,7.09,10.28,9.61,15.89.61,1.84,1.34,5.28.61,6.89-1.9.77-3.01.93-5.15.74-.09-3.61-.76-7.22-2.14-10.55-3.55-8.58-18.56-18.79-7.05-27.7.87,1.32,1.42,2.24,2.21,3.68Z"/>
      <path class="cls-12" d="M66.56,41.56c3.78,6.87,6.98,12.63,11.78,18.93,1.81,2.38,3.12,2.44,3.3,5.71.13,2.45.21,4.91.37,7.35-1.22.73-1.94,1.28-3.31,1.84-.59-1.71-.56-3.67-.98-5.46-2.29-9.84-13.58-17.23-12.6-26.32.04-.34.52-3.14,1.44-2.05Z"/>
      <path class="cls-16" d="M113.64,100.77c.03.17.28.58.37,1.1l-1.25-.76-34.79.03c.02-.12-.02-.25,0-.37h35.67Z"/>
      <path class="cls-11" d="M148.2,149.31c0,.28-.04.67-.25.74-1.28.39-11.94.13-14.03,0l-.43-.74c-.22-.2-.43-.41-.6-.64-1.34-1.87-.95-10.9-.61-13.57-11.49-2.19-22.94-4.31-34.33-6.33l-.5-.78c-9.86-2.2-16.1-8.07-15.45-18.75,10.99.1,22.22.23,33.1-.37,8.27,4.89,20,8.01,27.84,13.17,1.59,1.05,3.73,3.35,4.45,5.11,1.68,4.14.79,16.96.81,22.17Z"/>
      <path class="cls-3" d="M148.2,154.46c.02,3.18-.1,6.39,0,9.56.03,1.03-.29,3.24.36,3.87l15.58,7.22c2.24,1.55,1.61,3.04-1.02,3.26-5.63.47-16.9.54-22.47,0-6.23-.6-3.73-7.41-3.83-11.62-.02-.86-.29-1.81-.38-2.74l-.83-.84c-.38-2.59-.89-5.15-1.54-7.69l.53-1.03c-.02-.17-.02-.34.03-.49.21-.63,12.53-.5,13.15-.25l.43.74Z"/>
      <path class="cls-15" d="M111.43,84.59h66.39c3.3-.21,3.2,3.89,0,4.05h-66.02c-.22-1.69-.51-2.17-.37-4.05Z"/>
      <path class="cls-8" d="M148.2,149.31c0,1.71,0,3.44,0,5.15h-13.61c-1.32-.66-2.08-4.02-1.1-5.15h14.71Z"/>
      <path class="cls-15" d="M49.65,136.8c.35-.96,1.94-1.08,2.21,0,3.3.1,6.63-.07,9.93,0-3.12,1.99-9.73,3.73-13.61,5.52-.44,1.31-3.82,3.52-5.15,2.94-.36.6-.74,1.22-1.32,1.63-5.79,4.09-12.27,8.16-18.6,11-2.56,1.04-3.18,2.76-1.97,5.29l-.54.83h-4.78c-.58-1.85-1.68-14.53-2.22-15.06-.22-.21-3.66.11-4.4-.02v-12.14c.49-.02.98.03,1.47,0,3.78-.23,7.94.02,11.77,0,.84-.72,1.73-.72,2.57,0,.12,0,.25,0,.37,0,2.94,0,5.89,0,8.83,0,.84-.72,1.73-.72,2.57,0,3.97-.02,7.95,0,11.93.02l.58-1.49c.02.42-.06.84.03,1.26.03.23.19.17.34.22Z"/>
      <path class="cls-3" d="M43.03,145.26c.14-.1.29-.19.44-.21.69-.13,6.35,10.6,6.98,11.98l-.43.74c-5.18,3.06-11.46,4.61-17.35,5.91.62-.04.52.07-.3.34-.14,1.22-.21,8.55.06,9.32.31.9,6.11,2.38,3.53,4.94-1.23,1.22-9.29.27-11.19-.58-3.92-1.76-2.67-4.71-3.06-7.97-.23-1.93-.71-3.81-1.1-5.7-.35-1.7-1.32-2.56-.46-4.69.7-1.72,5.36-3.16,7.19-4.21,5.32-3.06,10.27-6.76,15.7-9.86Z"/>
      <path class="cls-15" d="M59.94,154.82l-1.1,8.83c-.25,0-.95.38-1.63.38-8.28,0-16.57-.03-24.85-.01.02-.22-.1-.47.04-.69,5.92-1.69,11.75-3.69,17.61-5.57,1.63-1.57,3.65-2.18,5.88-1.84,1.3-.42,2.8-.7,4.05-1.1Z"/>
      <path class="cls-10" d="M109.59,55.17V4.05h31.26v67.66c-8.55-.5-17.84.67-26.31,0-1.13-.09-.95.18-.9-1.1.7-6.2.29-10.66-4.05-15.45Z"/>
      <path class="cls-10" d="M176.52,4.05v67.66h-31.07s-.55-.51-.55-.55V4.05h31.63Z"/>
      <path class="cls-12" d="M71.71,22.81c5.71-6.22,15.26-7.23,21.33-.91.15.39-.85,1.07-1.1,1.28l.06.89c-2.84,1.92-5.48,4.08-7.9,6.47-2.97,3.15-1.8,6.22-.16,9.64-4.15,1.71-3.24,5.37,1.26,4.66.39.1.62.17.98.39.61.39,3.57,4.39,2.82,5.15.32.12.32.25,0,.37-.49.18-.99.6-1.47.74-.99.29-2.18.78-2.96-.17l-15.43-23.36c-.06-1.55,1.56-4.04,2.57-5.15Z"/>
      <path class="cls-3" d="M98.93,44.87c-1.11,1.13-4.15,4.1-5.54,4.33-.39.06-.75-.09-1.08-.29h-.91c-1.62-1.63-4.21-5.11-5.38-7.12-4.8-8.21-.6-11.86,6.07-16.81l.96.02c2.62,3.74,8.26,9.31,8.01,14.05-.13,2.41-1.56,3.66-2.12,5.81Z"/>
      <path class="cls-13" d="M93.04,25.01c-1.67,2.06-4.54,3.36-6.24,5.34-5.76,6.68,1.61,13.25,5.51,18.56.32.12.32.25,0,.37-.09,1.45-2.5,2.44-3.31,1.1-.58-.72-3.14-4.56-3.39-4.7-.51-.29-1.88.02-2.66-.1-3.46-.53-3.07-5.51.53-5.5-6.09-8.19,3.21-12.63,8.46-16.91.59.45.8,1.41,1.1,1.84Z"/>
      <path class="cls-17" d="M98.93,44.87c2.15,1.8,4.01,4.82,6.25,6.62-2.33,2.27-3.33,3.19-6.62,3.68-1.64.25-2.65-.62-3.79-1.61-.98-.86-3.02-3.08-2.46-4.28-.06-.08.06-.29,0-.37,2.22-1.02,4.34-2.7,6.07-4.4.14.18.41.23.55.35Z"/>
      <path class="cls-20" d="M25.01,136.8c-.86,0-1.72,0-2.57,0-1.53-4.01-1.9-8.77-3.72-12.64-.92-1.96-2.79-4.4-4.07-6.23-2.09-3-6.55-7.56-7.99-10.44-.71-1.43.32-2.2,1.61-1.21,4.18,6.01,10.32,11.7,13.07,18.55,1.55,3.87,2.05,8.11,3.67,11.96Z"/>
      <path class="cls-23" d="M98.56,55.17c-.21.03-.47.4-1.24.39-3.62-.06-6.18-2.16-8.32-4.8-.06-.07.06-.29,0-.37,1.27.17,2.24-.59,3.31-1.1,1.97,2.67,2.95,4.42,6.25,5.88Z"/>
      <path class="cls-21" d="M36.78,136.8c-.86,0-1.72,0-2.57,0,.59-2.82,2.28-5.78,2.57-8.65.61-6.14-1.5-9.93-2.46-15.55-1.06-6.19.53-16.33,1.79-22.64.13-.67.04-1.74.86-1.72,1.02.01,1.32.26,1.31,1.29-.06,6.16-2.62,13.37-2.22,19.87.34,5.48,3.55,10.96,3.32,16.57-.16,3.74-1.9,7.21-2.59,10.83Z"/>
      <path class="cls-8" d="M48.18,142.32l7.72,13.61c-1.95.63-3.93,1.21-5.88,1.84l-6.99-12.5c1.85-1.05,2.88-1.89,5.15-2.94Z"/>
      <path class="cls-21" d="M51.85,136.8c-.59-.02-1.81.13-2.21,0,1.53-4.79,2.35-10.14,4.72-14.59,2.01-3.77,8.27-12.15,11.28-15.2,1.68-1.71,3.1-1.25,1.97.87-1.62,3.06-6.12,7.55-8.34,10.78-1.09,1.58-2.65,3.7-3.44,5.38-1.91,4.04-2.13,8.69-3.98,12.75Z"/>
      <path class="cls-14" d="M131.17,25.47c1.73-.08,2.59,2.17,1.61,3.42l-14.18,14.13c-1.9,1.75-4.08-.7-2.78-2.78l13.61-13.97c.45-.37,1.16-.79,1.74-.81Z"/>
      <path class="cls-14" d="M129.34,46.78c2.15-.66,3.84,1.42,2.48,3.22l-13.2,13.28c-2.57,1.49-4.15-1.11-2.58-3.31l13.3-13.18Z"/>
      <path class="cls-5" d="M159.15,15.55c16.97-2.3,18.55,23.64,2.09,24.19-14.79.49-16.89-22.18-2.09-24.19Z"/>
      <path class="cls-6" d="M88.63,33.1c-.38-.38,1.4-3.98,2.38-4.04,1.49.32-1.47,4.95-2.38,4.04Z"/>
      <path class="cls-9" d="M92.9,32.02c1.43-.4,3.08,2.06,1.61,2.76-1.39.66-3.1-2.34-1.61-2.76Z"/>
    </g>
  </g>
</svg>