<?xml version="1.0" encoding="UTF-8"?>
<svg id="Layer_6" data-name="Layer 6" xmlns="http://www.w3.org/2000/svg" viewBox="0 0 200 200">
  <defs>
    <style>
      .cls-1 {
        fill: #ed5253;
      }

      .cls-2 {
        fill: #fe6b6b;
      }

      .cls-3 {
        fill: #549ffe;
      }

      .cls-4 {
        fill: #f3b437;
      }

      .cls-5 {
        fill: #d73941;
      }

      .cls-6 {
        fill: #f1c95a;
      }

      .cls-7 {
        fill: #ee3a47;
      }

      .cls-8 {
        fill: #bbc1cb;
      }

      .cls-9 {
        fill: #dc3445;
      }

      .cls-10 {
        fill: #fdc957;
      }

      .cls-11 {
        fill: #e3e9f7;
      }

      .cls-12 {
        fill: #e45555;
      }

      .cls-13 {
        fill: #cd3043;
      }

      .cls-14 {
        fill: #d93444;
      }

      .cls-15 {
        fill: #ed3947;
      }

      .cls-16 {
        fill: #cbd1da;
      }

      .cls-17 {
        fill: #9a3e2c;
      }

      .cls-18 {
        fill: #e03645;
      }

      .cls-19 {
        fill: #d43a4b;
      }

      .cls-20 {
        fill: #d43b4c;
      }

      .cls-21 {
        fill: #e49c1f;
      }

      .cls-22 {
        fill: #54a0ff;
      }

      .cls-23 {
        fill: #f67474;
      }

      .cls-24 {
        fill: #7a232e;
      }

      .cls-25 {
        fill: #338cee;
      }
    </style>
  </defs>
  <g>
    <path class="cls-2" d="M127.17,2.82c2.02,1.12,2.71,2.05,2.99,4.4.57,4.85.1,11.92.05,17.01,0,.64.24,1.68-.39,2.08-.75-1.24-1.01-2.84-.8-4.79-.66.6-1.47,1.02-2.38,1.01h-20.62s-.45-.76-.45-.76l-.76-.35V3.27l.76-.45h21.6Z"/>
    <path class="cls-1" d="M105.58,2.82v18.94c.33.11.33.23,0,.38-.04.3-.15.75-.37.75-6.67.12-15.19.24-21.74-.34-1.19.22-1.9-.04-2.14-.79-.33-6.05-.32-12.81,0-18.94h24.25Z"/>
    <path class="cls-2" d="M80.95,2.82c.33,6.05.32,12.81,0,18.94l-.35.76h-23.44l-.46-.76-.51-.12c.32-6.29.49-12.57.51-18.83h24.25Z"/>
    <path class="cls-1" d="M56.32,2.82c.36,6.23.37,12.45,0,18.66l-.76.28-2.07.68-18.66.04c-1.91-.38-2.46-1.61-2.76-3.38-.04-3.26-.54-10.62.08-13.37.32-1.4,1.82-2.27,2.95-2.92h21.22Z"/>
    <path class="cls-1" d="M56.7,2.82v18.94h24.25V2.82h.38v18.94c.29.08.73.2.76.43.16,1.62.16,5.39,0,7l-.76.53c-8.29,1.11-16.71,1.13-25.01,0-.29-.08-.73-.2-.76-.43-.08-.77-.09-7.42.29-7.15s0,.39-.29-.38c.46-.52.7-.97.78-1.69.59-5.36-.47-11.78-.02-17.26h.38Z"/>
    <path class="cls-11" d="M40.03,43.74c1.35-.22,2.69-.42,4.05-.57s2.71-.29,4.06-.31c21.86-.31,43.75-.32,65.61,0,1.35.02,2.71.16,4.06.31s2.7.35,4.05.57c.07-.34.2-.32.38,0,10.24.2,18.48.13,21.56,11.97l.05,128.04c.08,1.3-.37,2.4-.78,3.58-36.7-.78-73.59-.78-110.68-.01-2.02-.08-4.03-.33-6.01-.75-.91-.34-1.3-1.27-1.15-2.79l.02-127.81c1.11-6.46,6.17-11.85,12.88-12.23.63-.01,1.26.01,1.89,0Z"/>
    <path class="cls-16" d="M38.14,43.74c-6.15,1.71-10.98,5.77-12.13,12.31l-.02,127.7c.06.92.16,1.94.4,2.83-.08.29-.2.73-.43.76-1.46.16-5.14.15-6.6,0l-.54-.76c-.33-1.18-.89-2.3-.77-3.58l.06-126.52c2.55-11.55,9.77-12.5,20.04-12.73Z"/>
    <path class="cls-16" d="M26.39,186.57c37.94,0,77.66-1.49,115.38,0,.73.03,1.52-.39,1.31.76-1.77,5.23-6.55,8.66-11.94,9.47-31.11-.4-62.28.55-93.39,0-3.94-.18-7.22-2.35-9.64-5.38-.97-1.2-2.83-3.56-1.72-4.85Z"/>
    <path class="cls-8" d="M40.03,36.16l.26-.76c27.15-.02,54.3-.01,81.45.04.64.67.28,7.06.12,8.29-26.99-.47-54.84-.44-81.83,0v-7.58Z"/>
    <path class="cls-16" d="M56.32,29.72c8.33.03,16.68,0,25.01,0,8.04-1.1,16.21-1.08,24.25,0,5.27-1.21,11.37-1.09,16.67,0v14.02c-.13,0-.25,0-.38,0v-7.58s-81.83,0-81.83,0v-6.44c5.16-1.1,11.15-1.21,16.29,0Z"/>
    <path class="cls-5" d="M55.57,21.76c.25.01.51-.02.76,0v7.96c-5.42-.02-10.87.12-16.29,0-2.82-.06-7.44.76-7.97-3.2-.28-2.08.05-5.16.02-7.4.82,1.12,1.34,2.28,2.86,2.63,6.85.28,13.79-.31,20.63.02Z"/>
    <path class="cls-1" d="M129.82,26.31c-.45,4.33-4.38,3.34-7.58,3.41-5.54.13-11.13-.02-16.67,0l-.76-.43v-6.6l.76-.54v-.38h21.04c1.46.07,2.14-1.22,3.21-1.89-.15,2.07.22,4.41,0,6.44Z"/>
    <path class="cls-8" d="M26.39,186.57c1.31,4.92,6.58,8.98,11.37,10.23-8.67-.15-16.17-.37-18.94-10.23h7.58Z"/>
    <path class="cls-5" d="M105.58,22.14v7.58c-8.08.03-16.17,0-24.25,0v-7.96l24.25.38Z"/>
    <path class="cls-3" d="M49.88,163.46c-.95-.12-1.66-.5-2.15-1.15-.55-28.78-.98-57.77-.51-86.47.03-1.61,1.19-2.37,2.66-2.55,23.04-.29,46.11.22,69.15,0,1.45.1,3.01,1.19,2.86,2.83v84.15c.05,1.27-.52,2.34-1.63,2.92-23.37.3-46.95.58-70.37.29Z"/>
    <path class="cls-25" d="M49.88,73.29c-1.12.84-2.03,1.64-1.91,3.2.32,28.51-.55,57.19.44,85.6l1.48,1.37c-3.27-.04-9.89,1.37-9.87-3.2l.04-84.48c.57-3.64,6.92-2.45,9.83-2.48Z"/>
    <path class="cls-10" d="M104.06,128.6l-.79.27-15.62-16.43c-1.32-4.08,5.54-9.7,9.59-9.61,11.6,2.57,15.35,17.52,6.82,25.76Z"/>
    <path class="cls-10" d="M80.57,109.66l.24,1.17c-2.36,4.75-1.92,10.3,1,14.7l-.1,1.18c-.97.24-1.67,1.66-2.65,2.65l-.78.3c-5.32-5.18-10.62-10.37-15.91-15.58l.02-1.01c-.33-.08-.32-.21,0-.38-.11-.21-.21-.42-.26-.64-.5-2.07,6.88-8.91,9.73-8.07,3.4.76,6.38,3.21,8.71,5.68Z"/>
    <path class="cls-4" d="M97.24,102.84c-4.04,1.78-8.2,4.32-9.42,8.82l16.24,16.94c-1.73,1.67-4.47,3.26-6.82,3.79-3.9-.14-7.85-4.07-9.7-7.36-2.65-4.71-2.02-8.56-.93-13.41l-3.94-3.75.17-.87c3.95-3.97,8.84-5.4,14.4-4.17Z"/>
    <path class="cls-21" d="M62.39,112.69c-.05.1.04.27,0,.38l.39,1.14c-2.81,7.69,1.37,15.03,8.57,18.25l.52,1.07c-15.02,3.36-25.11-14.63-14.02-25.38.16-.12.31-.22.48-.23.48-.04,4.79,3.76,4.07,4.78Z"/>
    <path class="cls-21" d="M97.24,132.39c-6.1,1.36-11.87-.75-15.53-5.68-3.73-5.03-4.27-11.54-1.14-17.05.44-.77,1.61-1.98,2.27-2.65.84.8,4.26,3.61,4.49,4.44.17.64-1.02,4.93-1,6.36.1,6.9,4.93,11.91,10.91,14.59Z"/>
    <path class="cls-4" d="M79.06,129.36c-2.05,2.06-4.3,3.52-7.2,4.17-8.58-3.69-13.04-11.4-9.47-20.46l16.67,16.29Z"/>
    <path class="cls-4" d="M71.86,103.98c-4.12,1.8-7.62,4.52-9.47,8.71l-4.55-4.55c3.97-3.85,8.37-5.44,14.02-4.17Z"/>
  </g>
  <rect class="cls-22" x="51.98" y="100" width="59.57" height="36.76"/>
  <g>
    <path class="cls-17" d="M137.38,63.12c2.08.72,4.07,1.87,4.98,3.98.25.58.73,2.37.73,2.91v5.07l1.95-5.97c2.08-6.12,10.99-6.15,12.99,0,1.22,3.77-1.54,8.06-2.15,11.79l4.1,4.06c.8.42.39.87-.33,1.13-3.73.8-7.46,1.69-11.03,3.37l-1.11-.08-.73.07c-22.08-12.35-33.07,14.06-34.25,32.16l-.62,1.3c-.91.84-3.05-.12-4.08-.71s-2.98-1.94-2.68-3.19c-1.23-.17-1.72-1.91-2.03-3.06-.38-1.39-.35-2.79-.24-4.21s.39-4.1,1.48-4.95c-.18-.28-.33-.6-.31-.94.12-2.23,2.35-7.58,3.32-9.85,1.23-2.89,2.64-5.71,4.4-8.31l.91-.39c.96-1.33,2.77-2.8,3.64-4.03.19-.27.41-.5.48-.84-.85-5.31-5.81-12.34-.19-16.55,2.53-1.89,5.72-1.9,8.27,0,2.61,1.95,2.93,5.67,3.92,8.56.1.29.15.94.52.9v-6.89c0-.37,1.1-2.32,1.42-2.73,1.08-1.39,2.31-1.79,3.77-2.59h2.86Z"/>
    <path class="cls-15" d="M126.46,107.55c2.22,1.03,3.27,3.87,4.02,6.11l1.43,5.56c1.37,3.8,3.34,4.33,6.76,3.92l.74.17c2.03,2.85,5.6,4.25,9.03,3.81l.62.43.35-.61c4.95-1.41,7.96-6.58,6.51-11.52-.16-.91.07-1.37.67-1.38l.68.07c1.26,1.41,4.94,6.11,4.91,7.82-1.16,2.91-2.99,5.46-5.49,7.65-2.18,2.02-1.12,4.49,1.75,2.53l4.78-5.65.81-.22c2.2,4.32,2.21,9.29,2.13,13.97,0,3.36,3.04,2.85,2.94-.14l-.02-4.15c.62-.86,1.8-.31,1.54.71.1.08.19.16.2.26,1,5.77,2.04,11.9,2.83,17.78,1.55,11.58,2.61,24.89-6.57,33.75-4.66,4.51-11.38,6.99-17.77,7.45-16.74-1.54-34.49-16.24-44.02-29.39-11.54-15.92-17.02-34.85-8.21-53.5l.55.4c.28,3.65,3.25,5.85,6.76,5.1l.74.48c1.83,2.52,3.73,3.49,6.76,3.9l.63-.45c5.09.48,8.88-3.35,9.72-8.17l1.47-6.63.66-.34c.49-.68,1.84-.57,2.08.26Z"/>
    <path class="cls-14" d="M171.94,103.13c5.02,5.39,7.66,12.12,8.06,19.49.26,1.37.21,2.78,0,4.16.09,3.36-.08,6.64.26,10,.83,8.07,2.92,16.07,3.63,24.3l.26,1.3c.08,1.25,0,2.63,0,3.9.23.67.24,1.41,0,2.08-.6,16.45-10.04,26.63-26.76,27.54l-2.6.26c-.69,0-1.39,0-2.08,0l-2.34-.26c-.34-.02-.7.03-1.04,0,5.93-1.41,11.64-2.83,16.37-6.88,14.23-12.18,6.74-35.19,4.75-51.01-.05-.42-.29-1.08.19-1.35.46-.22,1.03.02,1.71.72.22.12.46.2.72.14,3.37-.66-1.65-5.16-2.94-5.66v-.66c-.21-.77-.22-1.85,0-2.6-.26-.28-.18-1.1,0-1.56-.78-1.35-.75-3.31,0-4.68l-.26-1.3-.63-.96c-.61-5.43-2.76-10.39-6.03-14.65l.16-.77c.12-.16.25-.32.41-.45.58-.49,5.9-1.29,7.15-1.41l1.02.3Z"/>
    <path class="cls-23" d="M179.47,92.74l-.78.41c-9.97,1.08-19.32,3.31-28.42,7.32-5.59,2.46-5.36,5.31-4.03,10.94,1.23,4.11,2.32,8.26,3.27,12.43.58,1.75.44,2.98-.43,3.72-3.99.72-8.23-.94-10.39-4.42l-.66-.09c-1.08-2.67-1.9-5.43-2.45-8.3-.76-2.79-2.43-5.22-5.34-6.03l-.39-.65c-.09-.32-.18-.68-.07-1.01.64-1.79,2.51-4.63,3.62-6.3,1.25-1.89,6.1-8.46,8.1-8.59.19-.01.37,0,.56.04.83-1.57,3.7-3.01,5.46-2.86,2.23-.99,4.74-1.94,7.08-2.67,1.37-.43,4.18-.75,5.21-1.24.3-.14.16-.5.19-.51.04-.02.51.27.87.24,3.2-.31,6.54-1.57,9.88-1.24,4.42.43,8.36,4.38,8.74,8.8Z"/>
    <path class="cls-12" d="M179.47,92.74c.41,4.84-2.87,9.25-7.54,10.39-2.7.66-5.72.89-8.57,1.56l-.59.67c-2.17.51-4.32,1.1-6.34,2.07l-.87-.15c.06.46-.11.63-.53.56.43,1.93,1.14,3.83,1.88,5.68l-.32.52c-.51,1.39.33,2.99.24,4.51-.25,4.14-3.65,8.25-7.77,9l.2-1.35c-.39-5.98-4.08-13.93-4.36-19.58-.23-4.67,4.07-6.19,7.62-7.7,8.51-3.62,17.74-5.43,26.94-6.19Z"/>
    <path class="cls-23" d="M105.42,87.28l-.1,1.16c-3.13,5.28-5.31,11.18-5.81,17.32l-.58,1.01c-15.11-.64-13.83-18.57-1.44-19.5,2.48-.19,5.4,0,7.94.01Z"/>
    <path class="cls-12" d="M112.69,87.28c-3.71,5.12-6.9,13.32-8.31,19.49-1.2.51-2.43.51-3.64,0-.6,0-1.22.03-1.82,0,.3-6.8,2.9-13.76,6.5-19.49h7.28Z"/>
    <path class="cls-13" d="M104.38,106.77c-1,4.33-2.05,8.33.78,12.21-1.8.06-2.77.47-4.52-.29-2.33-1.01-3.4-3.24-3.54-5.69,1.04-2.21,2.13-4.3,3.64-6.24,1.21,0,2.43,0,3.64,0Z"/>
    <path class="cls-15" d="M179.99,126.78c-.04-1.38.07-2.78,0-4.16.43,1.05.44,3.05,0,4.16Z"/>
    <path class="cls-19" d="M157.38,195.9c-.6.48-1.78.25-2.6.26.61-.51,1.77-.21,2.6-.26Z"/>
    <path class="cls-20" d="M152.71,196.16c-.73,0-1.83.21-2.34-.26.74.04,1.81-.24,2.34.26Z"/>
    <path class="cls-15" d="M184.15,168.35c.03-.69,0-1.39,0-2.08.44.41.43,1.68,0,2.08Z"/>
    <path class="cls-15" d="M184.15,162.38c-.42-.22-.24-.88-.26-1.3.02.26.22.7.26,1.3Z"/>
    <path class="cls-24" d="M147.51,89.36c-1.81.81-3.8,1.78-5.46,2.86l-.78.15c-9.04-5.53-16.34,3.29-19.18,11.28-.84,2.36-.44,2.9,2.08,3.07l.22.56c-1.57,4.65-1.16,10.7-5.53,13.83-2.24,1.6-4.28,2.12-6.95,1.76.38-6.21,1.79-12.92,3.96-18.77,4.4-11.87,12.17-21.23,26.12-17.41,1.88.51,4.05,1.37,5.52,2.67Z"/>
    <path class="cls-6" d="M124.12,155.1c2.29,3.27,5.16,6.49,8.19,9.09,1.38,1.18,5.82,3.48,5.21,5.47-1.34,4.36-7.93-3.48-8.47-2.87-.3,1.75,1.44,5.83-1.19,6.22-2.57.39-2.65-2.64-2.72-4.52-.06-1.74.67-4.32.07-5.79-.26-.65-3.64-4.31-4.43-5.44-.71-1.01-1.43-2.07-2.08-3.12-.34-.55-1.42-3-1.61-3.2-.43-.43-.45.07-.51.39-.28,1.51-.46,5.19-1.3,6.24-1,1.25-2.93.76-3.33-.58-.26-.86.58-5.16.81-6.36.28-1.49,1.48-4.99,1.48-6.06,0-1.43-1.7-6.03-2.01-8.13-.25-1.71-1.09-5.29,1.61-5.28,2.41,0,1.95,3.28,2.28,5.02.58,2.97,1.3,5.96,2.4,8.78.33.84,2.47,5.64,2.85,5.98.91.81,6.69-.31,8.52.58,1.76.85.87,3.58-.2,3.58h-5.59Z"/>
    <path class="cls-6" d="M155.57,107.29c.21.01.42.04.61.09s.37.11.5.23c4.91,4.62,8.95,10.61,11.13,16.95.43,2.31,1.11,4.43,2.05,6.37.11-.16.2-.08.26.26,1.51,1.24,6.17,3.93,4.01,6.22-1.35,1.44-2.54.09-3.49-.77-.31-.28-.64-.62-1.04-.78-.25,1.63.73,6.08-1.05,6.88-3.98,1.81-2.72-5.25-2.84-7.28-.19-3.04-.97-6.06-1.83-8.95l-4.42,5.32c-1.29,1.73-4.65,2.48-4.43-.51.09-1.32,3.48-4.19,4.53-5.62.62-.85,2.17-3.02,2.13-4-.06-1.55-4.13-6.16-5.09-7.66-.41-.65-2.09-5.53-2.07-6.12.02-.81.77-.49,1.04-.63Z"/>
    <path class="cls-12" d="M142.05,92.22c-5.47,3.56-9.29,10.15-12.21,15.85-.69.84-2.56.13-3.38-.52-.63-.11-1.37-.14-2.08-.26-2.41-.39-3.79-.23-2.93-3.32,1.21-4.36,5.55-10.94,9.77-12.84,4.08-1.84,7.15-1.03,10.83,1.09Z"/>
    <path class="cls-13" d="M129.84,108.07c7.69,1.92,5.97,10.46,8.83,15.07.15.8-.4.46-.89.53-7.25.95-6.39-7.06-8.42-11.62-.73-1.65-1.74-3.14-2.9-4.5,1.01.17,2.49.3,3.38.52Z"/>
    <path class="cls-7" d="M163.36,104.69c.71,1.35,1.77,2.5,2.55,3.82,2.27,3.84,3.53,8.12,3.95,12.55l.26,1.3c.04,1.55,0,3.12,0,4.68-.1.54-.18,1.06-.26,1.56.2.75.21,1.59,0,2.34-.27-.24-.7-.14-.98-.71-.69-1.4-1.21-4.75-1.94-6.64-2.33-6.05-6.59-11.97-11.37-16.3,2.62-1.35,4.93-1.92,7.8-2.6Z"/>
    <path class="cls-9" d="M170.12,131.2c-.11-.09-.18-.19-.26-.26,0-.78-.01-1.56,0-2.34.07-.23.16-.22.26,0v2.6Z"/>
    <path class="cls-18" d="M170.12,128.6h-.26c0-.49-.18-1.28.26-1.56v1.56Z"/>
    <path class="cls-9" d="M170.12,122.36c-.44-.22-.22-.89-.26-1.3.38.38.25.84.26,1.3Z"/>
  </g>
</svg>