<?xml version="1.0" encoding="UTF-8"?>
<svg id="Layer_7" data-name="Layer 7" xmlns="http://www.w3.org/2000/svg" viewBox="0 0 500 500">
  <defs>
    <style>
      .cls-1 {
        opacity: .6;
      }

      .cls-2 {
        fill: #ff9c6a;
      }

      .cls-3 {
        fill: #6ca7bc;
      }

      .cls-4 {
        fill: #4a3a9a;
      }

      .cls-5 {
        fill: #ff735d;
      }

      .cls-6 {
        opacity: .3;
      }

      .cls-7 {
        fill: #c27460;
      }

      .cls-8 {
        fill: #fff;
      }

      .cls-9 {
        fill: #de5049;
      }

      .cls-10 {
        fill: #375a64;
      }

      .cls-11 {
        fill: #1a2e35;
      }

      .cls-12 {
        fill: #ffc19d;
      }

      .cls-13 {
        fill: #7c4235;
      }

      .cls-14 {
        fill: #7dcae1;
      }

      .cls-15 {
        fill: #40ff5f;
      }

      .cls-16 {
        opacity: .2;
      }

      .cls-17 {
        fill: #a1e2ff;
      }

      .cls-18 {
        fill: #152d2e;
      }

      .cls-19 {
        fill: #f5f5f5;
      }

      .cls-20 {
        fill: #c4e3ec;
      }

      .cls-21 {
        fill: #3a2e6b;
      }

      .cls-22 {
        fill: #e1e1e1;
      }
    </style>
  </defs>
  <g>
    <path class="cls-20" d="M476.75,139.81c0,2.59-2.1,4.7-4.7,4.7s-4.7-2.1-4.7-4.7,2.1-4.7,4.7-4.7,4.7,2.1,4.7,4.7Z"/>
    <path class="cls-20" d="M458.22,139.47c0,1.5-1.21,2.71-2.71,2.71s-2.71-1.21-2.71-2.71,1.21-2.71,2.71-2.71,2.71,1.21,2.71,2.71Z"/>
    <path class="cls-20" d="M463.47,123.02c0,1.5-1.21,2.71-2.71,2.71s-2.71-1.21-2.71-2.71,1.21-2.71,2.71-2.71,2.71,1.21,2.71,2.71Z"/>
    <circle class="cls-20" cx="476.75" cy="154.06" r="1.35"/>
  </g>
  <g>
    <path class="cls-20" d="M18.74,171.26c0,2.59-2.1,4.7-4.7,4.7s-4.7-2.1-4.7-4.7,2.1-4.7,4.7-4.7,4.7,2.1,4.7,4.7Z"/>
    <path class="cls-20" d="M20.09,142.52c0,1.5-1.21,2.71-2.71,2.71s-2.71-1.21-2.71-2.71,1.21-2.71,2.71-2.71,2.71,1.21,2.71,2.71Z"/>
    <path class="cls-20" d="M30.35,159.83c0,1.5-1.21,2.71-2.71,2.71s-2.71-1.21-2.71-2.71,1.21-2.71,2.71-2.71,2.71,1.21,2.71,2.71Z"/>
    <circle class="cls-20" cx="18.74" cy="185.5" r="1.35"/>
  </g>
  <g>
    <path class="cls-20" d="M152.91,385.57c0,2.59-2.1,4.7-4.7,4.7s-4.7-2.1-4.7-4.7,2.1-4.7,4.7-4.7,4.7,2.1,4.7,4.7Z"/>
    <path class="cls-20" d="M180.41,388.28c0,1.5-1.21,2.71-2.71,2.71s-2.71-1.21-2.71-2.71,1.21-2.71,2.71-2.71,2.71,1.21,2.71,2.71Z"/>
    <path class="cls-20" d="M161.61,369.44c0,1.5-1.21,2.71-2.71,2.71s-2.71-1.21-2.71-2.71,1.21-2.71,2.71-2.71,2.71,1.21,2.71,2.71Z"/>
    <circle class="cls-20" cx="123.86" cy="391.71" r="1.35"/>
    <path class="cls-20" d="M149.57,365.74c0,.75-.61,1.35-1.35,1.35s-1.35-.61-1.35-1.35.61-1.35,1.35-1.35,1.35.61,1.35,1.35Z"/>
  </g>
  <g>
    <path class="cls-20" d="M128.97,116.53c-4.08-.64-8.23.03-11.86,2.03-.16.09-.27.19-.37.3-2.31-1.53-4.99-2.38-7.72-2.59-.92-.39-1.66-.92-1.71-1.58-.11-.53-.24-1.06-.4-1.57.94-1.45,1.76-3.07,2.06-3.86.9-1.13,1.69-2.36,2.35-3.65.19.11.41.19.65.21,3.66.38,7.4-.04,10.89-1.2.64-.21,1.06-.86.88-1.54-.17-.63-.9-1.09-1.54-.88-3.2,1.06-6.53,1.44-9.88,1.14.7-1.87,1.14-3.84,1.3-5.85.14-1.79.02-3.58-.31-5.35-.13-.67-.93-1.04-1.54-.88-.7.19-1,.87-.88,1.54.92,4.91-.4,10.13-3.32,14.17-.95.74-2.01,1.22-3.07,1.25-2.42-3.38-6.04-5.84-10.25-6.74-1.46-.76-2.18-1.3-2.97-3.11.18-1.29.29-2.59.3-3.89.06-.06.13-.13.18-.2,2.21-2.91,5.57-4.85,9.17-5.48.67-.12,1.04-.93.88-1.54-.19-.7-.87-.99-1.54-.88-3.36.59-6.43,2.24-8.85,4.59-.27-2.53-.85-5.02-1.76-7.41-.24-.63-.84-1.07-1.54-.88-.61.17-1.12.91-.88,1.54,1.75,4.58,2.28,9.54,1.49,14.36-.9,1.19-1.88,2.32-2.86,3.23-.56.17-1.1.36-1.63.58-2.21.22-4.75-.71-6.86-1.69-.07-.05-.15-.09-.22-.14-.01-.03-.02-.06-.03-.08-1.6-3.54-1.29-7.79.67-11.11.82-1.39-1.35-2.66-2.16-1.27-1.94,3.29-2.46,7.19-1.61,10.84-3.02-1.27-6.31-1.91-9.56-1.8-1.95.07-3.89.39-5.74.99-1.53.49-.88,2.91.67,2.42,5.51-1.78,11.62-.86,16.5,2.17,1.4,1.85,1.25,3.94.59,6.16-1.71,2.64-2.7,5.79-2.7,9.17,0,.06,0,.11,0,.17-.14,1.03-.67,2.72-2.67,2.87-4.77-.47-9.39-2.82-12.33-6.64-.41-.54-1.08-.82-1.72-.45-.53.31-.87,1.18-.45,1.72,2.44,3.17,5.79,5.5,9.49,6.8-3.04,3.87-8.06,5.93-12.94,5.55-.68-.05-1.25.61-1.25,1.25,0,.72.58,1.2,1.25,1.25,5.89.47,11.68-2.28,15.23-6.95.09-.12.15-.27.17-.42.81.18,1.62.3,2.44.38,0,0,0,.02,0,.02,3.44.34,5.4,3.53,5.4,3.53h0c.93,1.45,2.07,2.76,3.39,3.87.44.73.81,1.47.37,2.23-.04.06-.06.12-.09.18-4.29,4.98-11.3,6.89-17.61,4.83-1.54-.5-2.2,1.92-.67,2.42,4.03,1.32,8.54,1.27,12.51-.26.15-.06.3-.13.44-.19.98,4.11.05,8.46-2.47,11.86-.4.55-.09,1.4.45,1.72.64.37,1.31.1,1.72-.45,2.98-4.03,3.92-9.4,2.62-14.22,0-.01-.01-.02-.01-.04,1.65-.95,3.14-2.14,4.44-3.53,0,0,0,.02.01.03.5-.38,1.37-1.42,2.53-1.96,2.05.88,4.3,1.37,6.67,1.37,2.51,0,4.89-.55,7.03-1.53h-.01c1.31-.32,2.73-.57,3.92-.02.59.68,1.24,1.3,1.95,1.86-1.09,5.55.75,11.52,4.89,15.41,1.17,1.11,2.95-.66,1.77-1.77-3.27-3.08-4.91-7.67-4.37-12.11.82.46,1.67.85,2.54,1.19,4.34,1.66,9.13,1.65,13.71,1.55,1.61-.03,1.62-2.54,0-2.51-4.25.09-8.63.12-12.69-1.33-2.4-.86-4.61-2.29-6.17-4.28,0-.02,0-.04,0-.06-.05-1.15.57-2.4.9-3.06,1.75-2.29,2.93-5.04,3.33-8.04.19-.54.53-1.29.98-1.59,2.61.14,5.18,1.02,7.33,2.52,2.73,1.9,4.66,4.83,5.48,8.03.4,1.56,2.82.9,2.42-.67-.8-3.12-2.53-5.94-4.89-8.1,2.9-1.47,6.26-2.06,9.49-1.55.67.11,1.35-.17,1.54-.88.16-.6-.2-1.44-.88-1.54Z"/>
    <path class="cls-14" d="M96.55,117.4c0,3.29-2.67,5.96-5.96,5.96s-5.96-2.67-5.96-5.96,2.67-5.96,5.96-5.96,5.96,2.67,5.96,5.96Z"/>
  </g>
  <g>
    <path class="cls-20" d="M377.56,96.65c1.48,3.86,4.14,7.11,7.69,9.26.15.09.3.14.45.17-.16,2.77.43,5.51,1.62,7.98.12.99.04,1.89-.52,2.27-.41.36-.79.74-1.16,1.13-1.73-.09-3.54.02-4.37.14-1.43-.22-2.89-.29-4.33-.21,0-.22-.05-.45-.14-.67-1.5-3.36-3.73-6.39-6.49-8.83-.51-.45-1.28-.49-1.77.01-.46.46-.5,1.32.01,1.77,2.52,2.24,4.51,4.94,5.93,7.99-1.97.33-3.89.93-5.72,1.8-1.62.77-3.11,1.78-4.48,2.94-.51.44-.44,1.33.01,1.77.52.51,1.26.43,1.77-.01,3.79-3.25,8.98-4.72,13.93-4.21,1.12.45,2.06,1.13,2.62,2.04-1.72,3.78-2.04,8.15-.71,12.24.07,1.64-.03,2.53-1.2,4.13-1.21.49-2.38,1.05-3.52,1.68-.09-.02-.18-.04-.27-.05-3.63-.46-6.98-2.4-9.33-5.2-.44-.52-1.33-.44-1.77.01-.51.52-.42,1.25.01,1.77,2.19,2.62,5.15,4.45,8.4,5.37-2.06,1.5-3.93,3.25-5.54,5.23-.43.53-.5,1.26.01,1.77.45.44,1.34.52,1.77-.01,3.09-3.81,7.12-6.74,11.69-8.47,1.48.19,2.95.46,4.23.86.42.4.86.77,1.31,1.12,1.3,1.8,1.76,4.47,1.96,6.78,0,.09,0,.18-.01.26-.02.02-.04.04-.06.07-2.26,3.15-6.1,5.01-9.95,4.98-1.62-.01-1.63,2.49-.01,2.51,3.82.03,7.45-1.47,10.19-4.03.41,3.25,1.5,6.42,3.23,9.18,1.03,1.65,2.29,3.17,3.73,4.48,1.19,1.08,2.96-.7,1.76-1.79-4.29-3.89-6.55-9.63-6.38-15.38.9-2.14,2.79-3.05,5.05-3.59,3.14.16,6.37-.56,9.3-2.25.05-.03.09-.06.14-.09.96-.4,2.69-.78,3.82.87,1.98,4.37,2.25,9.54.42,14-.26.62-.17,1.34.47,1.71.53.3,1.45.16,1.71-.47,1.52-3.69,1.87-7.76,1.15-11.62,4.87.7,9.17,4.02,11.27,8.43.29.61,1.16.78,1.71.46.63-.36.75-1.1.46-1.71-2.54-5.33-7.82-8.97-13.63-9.72-.16-.02-.3,0-.44.06-.25-.79-.55-1.55-.89-2.3,0,0,.02,0,.02,0-1.43-3.15.36-6.44.36-6.44h0c.8-1.52,1.36-3.17,1.67-4.87.41-.75.87-1.43,1.74-1.43.07,0,.14,0,.2-.01,6.45,1.23,11.62,6.34,12.99,12.83.33,1.58,2.76.94,2.43-.63-.88-4.15-3.17-8.03-6.48-10.71-.13-.1-.26-.19-.39-.29,3.07-2.9,7.31-4.27,11.51-3.8.67.08,1.26-.62,1.26-1.25,0-.74-.57-1.18-1.25-1.26-4.98-.56-10.1,1.3-13.62,4.84-.01.01-.02.02-.03.03-1.65-.95-3.42-1.65-5.28-2.07,0,0,.01-.02.02-.02-.58-.24-1.91-.47-2.96-1.21-.26-2.21-.97-4.41-2.15-6.46-1.25-2.17-2.92-3.96-4.84-5.32h.01c-.94-.96-1.87-2.07-1.99-3.38.3-.85.51-1.73.64-2.62,5.35-1.83,9.6-6.41,10.9-11.94.37-1.57-2.05-2.22-2.42-.65-1.03,4.38-4.19,8.09-8.3,9.84-.01-.94-.1-1.88-.24-2.8-.74-4.59-3.14-8.73-5.51-12.65-.83-1.38-3.01-.13-2.17,1.25,2.2,3.64,4.42,7.41,5.19,11.65.46,2.5.32,5.14-.62,7.49-.02.01-.04.02-.05.03-.97.62-2.36.71-3.1.75-2.86-.37-5.83-.02-8.63,1.14-.56.1-1.38.19-1.87-.05-1.18-2.34-1.71-4.99-1.49-7.61.28-3.31,1.85-6.45,4.21-8.76,1.15-1.13-.63-2.89-1.79-1.76-2.3,2.26-3.88,5.16-4.58,8.28-2.73-1.78-4.92-4.39-6.09-7.44-.24-.63-.82-1.08-1.53-.9-.6.16-1.14.89-.9,1.53Z"/>
    <path class="cls-14" d="M394.53,124.29c2.85-1.65,6.5-.67,8.14,2.18,1.65,2.85.67,6.5-2.18,8.14-2.85,1.65-6.5.67-8.14-2.18-1.65-2.85-.67-6.5,2.18-8.14Z"/>
  </g>
  <g>
    <path class="cls-20" d="M295.87,278.15c1.73,4.49,4.82,8.27,8.94,10.78.18.11.35.17.52.19-.19,3.22.5,6.41,1.88,9.29.14,1.15.04,2.2-.6,2.64-.47.42-.92.86-1.35,1.31-2.01-.1-4.12.02-5.09.17-1.67-.25-3.36-.33-5.04-.24,0-.26-.05-.53-.17-.78-1.75-3.91-4.35-7.44-7.55-10.28-.59-.52-1.49-.57-2.06.01-.53.54-.58,1.54.01,2.06,2.93,2.6,5.25,5.74,6.9,9.29-2.29.39-4.53,1.08-6.65,2.09-1.89.9-3.62,2.07-5.21,3.43-.6.51-.51,1.54.01,2.06.6.59,1.46.5,2.06-.01,4.41-3.78,10.44-5.49,16.22-4.9,1.3.53,2.39,1.31,3.05,2.37-2,4.4-2.37,9.49-.83,14.25.08,1.91-.04,2.95-1.4,4.81-1.41.57-2.77,1.22-4.09,1.96-.1-.03-.2-.05-.31-.06-4.22-.53-8.12-2.79-10.86-6.05-.51-.6-1.55-.51-2.06.01-.6.6-.49,1.46.01,2.06,2.55,3.05,5.99,5.18,9.77,6.25-2.39,1.74-4.57,3.78-6.44,6.09-.5.61-.58,1.47.01,2.06.52.51,1.56.6,2.06-.01,3.6-4.43,8.29-7.84,13.6-9.85,1.72.22,3.44.54,4.92,1,.49.46,1,.9,1.53,1.31,1.51,2.1,2.05,5.2,2.28,7.89,0,.1,0,.2-.01.31-.02.03-.05.05-.07.08-2.63,3.67-7.09,5.83-11.58,5.79-1.88-.02-1.89,2.9-.02,2.92,4.44.04,8.67-1.71,11.86-4.68.47,3.78,1.75,7.47,3.75,10.69,1.2,1.92,2.66,3.69,4.34,5.21,1.39,1.25,3.45-.81,2.05-2.08-5-4.52-7.62-11.21-7.42-17.89,1.05-2.49,3.24-3.55,5.87-4.18,3.66.18,7.41-.65,10.82-2.62.06-.03.11-.07.17-.1,1.12-.46,3.13-.91,4.45,1.01,2.3,5.08,2.62,11.1.49,16.29-.3.73-.2,1.56.54,1.99.62.35,1.69.19,1.99-.54,1.77-4.3,2.18-9.03,1.33-13.52,5.67.81,10.67,4.68,13.12,9.81.34.71,1.35.91,1.99.53.73-.42.87-1.28.53-1.99-2.96-6.21-9.1-10.44-15.87-11.31-.18-.02-.35,0-.52.07-.29-.91-.64-1.81-1.04-2.68,0,0,.02,0,.02-.01-1.66-3.66.41-7.49.41-7.49h-.01c.93-1.77,1.59-3.69,1.94-5.67.48-.87,1.01-1.67,2.03-1.67.08,0,.16,0,.24-.01,7.51,1.43,13.52,7.38,15.11,14.94.39,1.84,3.21,1.1,2.82-.74-1.02-4.83-3.69-9.35-7.54-12.46-.15-.12-.3-.22-.45-.34,3.57-3.38,8.5-4.97,13.39-4.42.78.09,1.46-.72,1.47-1.45,0-.86-.67-1.38-1.45-1.47-5.79-.65-11.75,1.51-15.85,5.64-.01.01-.02.02-.03.04-1.92-1.1-3.98-1.91-6.14-2.41,0,0,.01-.02.02-.03-.67-.28-2.22-.55-3.44-1.41-.31-2.57-1.13-5.13-2.51-7.52-1.46-2.53-3.4-4.61-5.63-6.2h.02c-1.1-1.12-2.18-2.41-2.31-3.93.34-.99.59-2.01.74-3.05,6.22-2.13,11.17-7.46,12.69-13.89.43-1.83-2.39-2.59-2.82-.76-1.2,5.09-4.88,9.41-9.66,11.45-.02-1.09-.11-2.18-.29-3.25-.86-5.34-3.65-10.16-6.41-14.72-.97-1.6-3.5-.15-2.53,1.46,2.56,4.23,5.15,8.63,6.04,13.56.53,2.92.37,5.98-.72,8.71-.02.01-.04.03-.06.04-1.13.72-2.75.82-3.61.87-3.33-.43-6.79-.02-10.04,1.32-.66.12-1.6.22-2.17-.06-1.37-2.72-1.99-5.81-1.73-8.86.33-3.85,2.16-7.51,4.9-10.2,1.34-1.31-.73-3.37-2.08-2.05-2.68,2.63-4.51,6-5.33,9.64-3.17-2.07-5.72-5.11-7.08-8.66-.28-.73-.96-1.26-1.78-1.04-.7.18-1.33,1.04-1.04,1.78Z"/>
    <path class="cls-14" d="M315.62,310.32c3.32-1.92,7.56-.78,9.48,2.54,1.92,3.32.78,7.56-2.54,9.48-3.32,1.92-7.56.78-9.48-2.54-1.92-3.32-.78-7.56,2.54-9.48Z"/>
  </g>
  <g>
    <path class="cls-20" d="M119.02,322.23c.73,1.88,2.02,3.47,3.75,4.52.07.04.15.07.22.08-.08,1.35.21,2.69.79,3.9.06.48.02.93-.25,1.11-.2.18-.39.36-.57.55-.84-.04-1.73,0-2.14.07-.7-.11-1.41-.14-2.12-.1,0-.11-.02-.22-.07-.33-.73-1.64-1.82-3.12-3.17-4.31-.25-.22-.62-.24-.87,0-.22.23-.24.65,0,.87,1.23,1.09,2.2,2.41,2.89,3.9-.96.16-1.9.45-2.79.88-.79.38-1.52.87-2.19,1.44-.25.22-.22.65,0,.87.25.25.61.21.87,0,1.85-1.59,4.38-2.3,6.8-2.06.55.22,1,.55,1.28.99-.84,1.85-1,3.98-.35,5.98.04.8-.02,1.24-.59,2.02-.59.24-1.16.51-1.72.82-.04-.01-.09-.02-.13-.03-1.77-.22-3.41-1.17-4.56-2.54-.21-.25-.65-.21-.87,0-.25.25-.21.61,0,.87,1.07,1.28,2.52,2.17,4.1,2.62-1,.73-1.92,1.59-2.7,2.56-.21.26-.25.62,0,.87.22.22.66.25.87,0,1.51-1.86,3.48-3.29,5.71-4.13.72.09,1.44.23,2.07.42.21.19.42.38.64.55.63.88.86,2.18.96,3.31,0,.04,0,.09,0,.13,0,.01-.02.02-.03.03-1.1,1.54-2.98,2.45-4.86,2.43-.79,0-.79,1.22,0,1.22,1.86.02,3.64-.72,4.98-1.97.2,1.59.73,3.13,1.57,4.48.5.81,1.12,1.55,1.82,2.19.58.53,1.45-.34.86-.87-2.1-1.9-3.2-4.7-3.11-7.51.44-1.04,1.36-1.49,2.46-1.75,1.54.08,3.11-.27,4.54-1.1.02-.01.05-.03.07-.04.47-.19,1.31-.38,1.87.43.97,2.13,1.1,4.66.2,6.83-.13.31-.08.66.23.84.26.15.71.08.84-.23.74-1.8.92-3.79.56-5.68,2.38.34,4.48,1.96,5.5,4.12.14.3.57.38.84.22.31-.18.37-.54.22-.84-1.24-2.6-3.82-4.38-6.66-4.75-.08,0-.15,0-.22.03-.12-.38-.27-.76-.44-1.13,0,0,0,0,0,0-.7-1.54.17-3.14.17-3.14h0c.39-.74.67-1.55.81-2.38.2-.37.42-.7.85-.7.04,0,.07,0,.1,0,3.15.6,5.67,3.1,6.34,6.27.16.77,1.35.46,1.19-.31-.43-2.03-1.55-3.92-3.16-5.23-.06-.05-.13-.09-.19-.14,1.5-1.42,3.57-2.09,5.62-1.85.33.04.61-.3.62-.61,0-.36-.28-.58-.61-.62-2.43-.27-4.93.63-6.65,2.37,0,0,0,.01-.01.02-.81-.46-1.67-.8-2.58-1.01,0,0,0,0,.01-.01-.28-.12-.93-.23-1.45-.59-.13-1.08-.47-2.15-1.05-3.16-.61-1.06-1.43-1.93-2.36-2.6h0c-.46-.47-.91-1.01-.97-1.65.14-.41.25-.84.31-1.28,2.61-.89,4.69-3.13,5.33-5.83.18-.77-1-1.09-1.18-.32-.5,2.14-2.05,3.95-4.05,4.81,0-.46-.05-.92-.12-1.37-.36-2.24-1.53-4.26-2.69-6.18-.41-.67-1.47-.06-1.06.61,1.08,1.78,2.16,3.62,2.54,5.69.22,1.22.16,2.51-.3,3.66,0,0-.02.01-.03.02-.47.3-1.15.35-1.52.37-1.4-.18-2.85,0-4.21.55-.28.05-.67.09-.91-.02-.58-1.14-.84-2.44-.73-3.72.14-1.62.9-3.15,2.06-4.28.56-.55-.31-1.41-.87-.86-1.13,1.1-1.89,2.52-2.23,4.05-1.33-.87-2.4-2.15-2.97-3.63-.12-.31-.4-.53-.75-.44-.29.08-.56.44-.44.75Z"/>
    <path class="cls-14" d="M127.31,335.73c1.39-.8,3.17-.33,3.98,1.07.8,1.39.33,3.17-1.07,3.98s-3.17.33-3.98-1.07c-.8-1.39-.33-3.17,1.07-3.98Z"/>
  </g>
  <g>
    <path class="cls-20" d="M278.54,77.86c.73,1.88,2.02,3.47,3.75,4.52.07.04.15.07.22.08-.08,1.35.21,2.69.79,3.9.06.48.02.93-.25,1.11-.2.18-.39.36-.57.55-.84-.04-1.73,0-2.14.07-.7-.11-1.41-.14-2.12-.1,0-.11-.02-.22-.07-.33-.73-1.64-1.82-3.12-3.17-4.31-.25-.22-.62-.24-.87,0-.22.23-.24.65,0,.87,1.23,1.09,2.2,2.41,2.89,3.9-.96.16-1.9.45-2.79.88-.79.38-1.52.87-2.19,1.44-.25.22-.22.65,0,.87.25.25.61.21.87,0,1.85-1.59,4.38-2.3,6.8-2.06.55.22,1,.55,1.28.99-.84,1.85-1,3.98-.35,5.98.04.8-.02,1.24-.59,2.02-.59.24-1.16.51-1.72.82-.04-.01-.09-.02-.13-.03-1.77-.22-3.41-1.17-4.56-2.54-.21-.25-.65-.21-.87,0-.25.25-.21.61,0,.87,1.07,1.28,2.52,2.17,4.1,2.62-1,.73-1.92,1.59-2.7,2.56-.21.26-.25.62,0,.87.22.22.66.25.87,0,1.51-1.86,3.48-3.29,5.71-4.13.72.09,1.44.23,2.07.42.21.19.42.38.64.55.63.88.86,2.18.96,3.31,0,.04,0,.09,0,.13,0,.01-.02.02-.03.03-1.1,1.54-2.98,2.45-4.86,2.43-.79,0-.79,1.22,0,1.22,1.86.02,3.64-.72,4.98-1.97.2,1.59.73,3.13,1.57,4.48.5.81,1.12,1.55,1.82,2.19.58.53,1.45-.34.86-.87-2.1-1.9-3.2-4.7-3.11-7.51.44-1.04,1.36-1.49,2.46-1.75,1.54.08,3.11-.27,4.54-1.1.02-.01.05-.03.07-.04.47-.19,1.31-.38,1.87.43.97,2.13,1.1,4.66.2,6.83-.13.31-.08.66.23.84.26.15.71.08.84-.23.74-1.8.92-3.79.56-5.68,2.38.34,4.48,1.96,5.5,4.12.14.3.57.38.84.22.31-.18.37-.54.22-.84-1.24-2.6-3.82-4.38-6.66-4.75-.08,0-.15,0-.22.03-.12-.38-.27-.76-.44-1.13,0,0,0,0,0,0-.7-1.54.17-3.14.17-3.14h0c.39-.74.67-1.55.81-2.38.2-.37.42-.7.85-.7.04,0,.07,0,.1,0,3.15.6,5.67,3.1,6.34,6.27.16.77,1.35.46,1.19-.31-.43-2.03-1.55-3.92-3.16-5.23-.06-.05-.13-.09-.19-.14,1.5-1.42,3.57-2.09,5.62-1.85.33.04.61-.3.62-.61,0-.36-.28-.58-.61-.62-2.43-.27-4.93.63-6.65,2.37,0,0,0,.01-.01.02-.81-.46-1.67-.8-2.58-1.01,0,0,0,0,.01-.01-.28-.12-.93-.23-1.45-.59-.13-1.08-.47-2.15-1.05-3.16-.61-1.06-1.43-1.93-2.36-2.6h0c-.46-.47-.91-1.01-.97-1.65.14-.41.25-.84.31-1.28,2.61-.89,4.69-3.13,5.33-5.83.18-.77-1-1.09-1.18-.32-.5,2.14-2.05,3.95-4.05,4.81,0-.46-.05-.92-.12-1.37-.36-2.24-1.53-4.26-2.69-6.18-.41-.67-1.47-.06-1.06.61,1.08,1.78,2.16,3.62,2.54,5.69.22,1.22.16,2.51-.3,3.66,0,0-.02.01-.03.02-.47.3-1.15.35-1.52.37-1.4-.18-2.85,0-4.21.55-.28.05-.67.09-.91-.02-.58-1.14-.84-2.44-.73-3.72.14-1.62.9-3.15,2.06-4.28.56-.55-.31-1.41-.87-.86-1.13,1.1-1.89,2.52-2.23,4.05-1.33-.87-2.4-2.15-2.97-3.63-.12-.31-.4-.53-.75-.44-.29.08-.56.44-.44.75Z"/>
    <path class="cls-14" d="M286.83,91.36c1.39-.8,3.17-.33,3.98,1.07.8,1.39.33,3.17-1.07,3.98-1.39.8-3.17.33-3.98-1.07-.8-1.39-.33-3.17,1.07-3.98Z"/>
  </g>
  <path class="cls-11" d="M497.68,414.37c0,.11-111.02.21-247.94.21s-247.97-.09-247.97-.21,111-.21,247.97-.21,247.94.09,247.94.21Z"/>
  <g>
    <g>
      <g>
        <path class="cls-19" d="M420.43,361.52c-1.25-3.81-7.4-7.98-7.4-7.98v-6.79h-25.88v6.79s-6.15,4.17-7.4,7.98c-1.25,3.81-1.38,44.96-1.38,44.96,0,0-.65,8.03,7.5,7.8,4.36-.12,10.41,0,13.35,0h1.74c2.93,0,8.99,0,13.35,0,7.46,0,6.25-10.24,6.25-10.24,0,0,1.12-38.71-.13-42.52Z"/>
        <path class="cls-11" d="M420.43,361.52s.06.25.17.75c.12.5.15,1.26.25,2.24.13,1.97.22,4.88.26,8.59.06,7.42-.05,18.06-.38,30.95v-.02c.17,1.95.07,3.99-.55,5.97-.32.98-.8,1.95-1.54,2.74-.73.79-1.73,1.35-2.8,1.58-.53.13-1.09.16-1.63.17-.54,0-1.08,0-1.62,0-1.09,0-2.18,0-3.29,0-2.21,0-4.47,0-6.76,0-4.58,0-9.31,0-14.16,0-1.22,0-2.42.02-3.69-.04-1.24-.12-2.51-.42-3.59-1.15-1.08-.72-1.87-1.82-2.33-3.02-.46-1.21-.66-2.49-.61-3.81v.02c0-1.49.02-3.1.03-4.71.07-9.38.19-18.46.45-27.07.07-2.15.14-4.28.26-6.37.11-2.09.21-4.15.53-6.18.12-1.05.68-1.97,1.24-2.79.58-.83,1.25-1.57,1.94-2.28,1.39-1.39,2.89-2.61,4.44-3.7l-.08.15c0-2.33,0-4.59,0-6.79v-.17s.17,0,.17,0c10.19.02,18.97.04,25.88.05h.12s0,.12,0,.12c0,2.53-.02,4.79-.02,6.79l-.04-.08c2.94,2.09,4.9,4.08,6.01,5.58.29.36.49.73.69,1.02.16.31.31.57.4.79.17.44.24.67.24.67,0,0-.11-.22-.29-.65-.1-.21-.25-.46-.42-.77-.2-.29-.41-.64-.7-1-1.12-1.47-3.11-3.43-6.04-5.48l-.04-.03v-.05c0-2-.02-4.26-.02-6.79l.12.12c-6.91.01-15.69.03-25.88.05l.17-.17c0,2.2,0,4.46,0,6.79v.09s-.08.06-.08.06c-1.52,1.07-3.01,2.29-4.38,3.66-.68.69-1.33,1.43-1.89,2.23-.55.8-1.07,1.67-1.18,2.66-.3,1.97-.4,4.04-.51,6.12-.11,2.09-.18,4.21-.25,6.36-.26,8.61-.36,17.68-.44,27.06,0,1.61-.02,3.22-.03,4.71h0s0,.02,0,.02c-.05,1.22.14,2.49.58,3.62.44,1.14,1.17,2.16,2.17,2.83,1,.68,2.2.97,3.39,1.09,1.19.06,2.43.03,3.64.04,4.86,0,9.59,0,14.17,0,2.29,0,4.54,0,6.76,0,1.11,0,2.2,0,3.29,0,1.09-.03,2.17.09,3.17-.15,1.01-.21,1.93-.73,2.62-1.47.69-.74,1.16-1.65,1.47-2.6.61-1.91.71-3.93.55-5.82v-.02s0,0,0,0c.37-12.88.53-23.52.53-30.93,0-3.71-.08-6.61-.17-8.58-.09-.98-.1-1.74-.2-2.24-.09-.5-.12-.76-.12-.76Z"/>
      </g>
      <path class="cls-10" d="M414.8,349.21h-29.43c-1.36,0-2.47-.96-2.47-2.15v-9.24c0-1.19,1.11-2.15,2.47-2.15h29.43c1.36,0,2.47.96,2.47,2.15v9.24c0,1.19-1.11,2.15-2.47,2.15Z"/>
    </g>
    <path class="cls-15" d="M382.16,379.23h34.42v26.25c0,2.62-2.12,4.74-4.74,4.74h-24.94c-2.62,0-4.74-2.12-4.74-4.74v-26.25h0Z"/>
    <path class="cls-11" d="M388.12,348.89c-.11,0-.21-2.94-.21-6.56s.09-6.56.21-6.56.21,2.93.21,6.56-.09,6.56-.21,6.56Z"/>
    <path class="cls-11" d="M393.18,348.89c-.11,0-.21-2.94-.21-6.56s.09-6.56.21-6.56.21,2.93.21,6.56-.09,6.56-.21,6.56Z"/>
    <path class="cls-11" d="M398.24,348.89c-.11,0-.21-2.94-.21-6.56s.09-6.56.21-6.56.21,2.93.21,6.56-.09,6.56-.21,6.56Z"/>
    <path class="cls-11" d="M403.3,348.89c-.11,0-.21-2.94-.21-6.56s.09-6.56.21-6.56.21,2.93.21,6.56-.09,6.56-.21,6.56Z"/>
    <path class="cls-11" d="M408.36,348.89c-.11,0-.21-2.94-.21-6.56s.09-6.56.21-6.56.21,2.93.21,6.56-.09,6.56-.21,6.56Z"/>
    <path class="cls-11" d="M413.42,348.89c-.11,0-.21-2.94-.21-6.56s.09-6.56.21-6.56.21,2.93.21,6.56-.09,6.56-.21,6.56Z"/>
    <path class="cls-22" d="M386.82,349.21s5.9,2.42,14.72,2.22c8.82-.19,11.5-2.22,11.5-2.22h-26.21Z"/>
    <g class="cls-16">
      <path class="cls-8" d="M382.16,396.58c2.8,1.27,6.28,1.84,8.84.15,4.11-2.7,3.51-9.36,7.39-12.38,2.44-1.9,5.9-1.75,8.98-1.29,3.08.46,6.34,1.1,9.21-.07v5.57c-2.88,1.18-6.14.53-9.21.07-3.08-.46-6.53-.61-8.98,1.29-3.88,3.02-3.28,9.68-7.39,12.38-2.56,1.69-6.04,1.12-8.84-.15v-5.57Z"/>
    </g>
  </g>
  <g>
    <path class="cls-21" d="M296.87,132.93s-.13-.05-.35-.17c-.26-.15-.57-.33-.95-.55-.87-.53-2.04-1.24-3.46-2.1-2.95-1.84-6.94-4.32-11.34-7.06-4.38-2.77-8.35-5.28-11.29-7.14-1.4-.9-2.55-1.63-3.41-2.18-.37-.24-.67-.44-.92-.6-.21-.13-.32-.21-.32-.23,0-.01.12.04.35.15.23.11.55.3.97.54.83.48,2.02,1.19,3.48,2.07,2.92,1.77,6.94,4.26,11.36,7.04,4.42,2.77,8.4,5.31,11.27,7.16,1.39.91,2.54,1.66,3.39,2.21.36.25.66.45.91.62.21.15.31.23.3.24Z"/>
    <g>
      <path class="cls-21" d="M396.02,132.22c0,.11-8.07.47-18.02.78-9.96.32-18.04.49-18.04.37,0-.11,8.07-.46,18.03-.78,9.96-.32,18.03-.49,18.04-.37Z"/>
      <path class="cls-21" d="M359.22,168.76s-.17.12-.53.33c-.37.22-.9.53-1.6.95-1.43.83-3.51,2.05-6.18,3.61-5.4,3.14-13.19,7.66-22.79,13.24l-.08.04-.08-.04c-8.86-5.1-19.49-11.22-31.19-17.96l-.1-.06v-.11c0-11.13,0-23.3-.01-35.99h0v-.12l.1-.06c10.95-6.32,21.47-12.39,31.18-17.99l.1-.06.1.06c11.69,6.77,22.25,12.88,31.15,18.03l.08.04v.09c-.03,11.1-.06,20.11-.07,26.35-.02,3.1-.03,5.51-.04,7.16,0,.81-.01,1.42-.02,1.86,0,.42-.02.62-.02.62,0,0-.01-.22-.02-.65,0-.44-.01-1.06-.02-1.88,0-1.66-.02-4.07-.04-7.18-.02-6.23-.04-15.21-.07-26.29l.08.13c-8.91-5.13-19.48-11.22-31.19-17.96h.19c-9.7,5.61-20.21,11.68-31.17,18.01l.1-.18h0c0,12.69,0,24.87-.01,35.99l-.1-.17c11.69,6.77,22.3,12.91,31.15,18.03h-.15c9.61-5.51,17.4-9.98,22.8-13.08,2.7-1.54,4.8-2.74,6.24-3.56.71-.4,1.25-.71,1.63-.92.37-.21.57-.31.57-.31Z"/>
      <circle class="cls-4" cx="265.92" cy="113.79" r="3.18"/>
      <path class="cls-4" d="M301.78,132.93c0,2.71-2.2,4.91-4.91,4.91s-4.91-2.2-4.91-4.91,2.2-4.91,4.91-4.91,4.91,2.2,4.91,4.91Z"/>
      <path class="cls-4" d="M363.69,132.93c0,2.71-2.2,4.91-4.91,4.91s-4.91-2.2-4.91-4.91,2.2-4.91,4.91-4.91,4.91,2.2,4.91,4.91Z"/>
      <path class="cls-4" d="M363.69,170c0,2.71-2.2,4.91-4.91,4.91s-4.91-2.2-4.91-4.91,2.2-4.91,4.91-4.91,4.91,2.2,4.91,4.91Z"/>
      <circle class="cls-4" cx="396.02" cy="131.84" r="3.67"/>
      <circle class="cls-4" cx="328" cy="187.03" r="4.91"/>
      <path class="cls-4" d="M302.45,168.25c0,2.71-2.2,4.91-4.91,4.91s-4.91-2.2-4.91-4.91,2.2-4.91,4.91-4.91,4.91,2.2,4.91,4.91Z"/>
      <path class="cls-21" d="M328.04,79.02c.11,0,.21,7.79.21,17.39s-.09,17.39-.21,17.39-.21-7.78-.21-17.39.09-17.39.21-17.39Z"/>
      <path class="cls-4" d="M332.96,114.77c0,2.71-2.2,4.91-4.91,4.91s-4.91-2.2-4.91-4.91,2.2-4.91,4.91-4.91,4.91,2.2,4.91,4.91Z"/>
      <path class="cls-4" d="M332.04,77.65c0,2.21-1.79,4-4,4s-4-1.79-4-4,1.79-4,4-4,4,1.79,4,4Z"/>
    </g>
  </g>
  <g>
    <path class="cls-21" d="M112.36,167.44c-.06.09-3.99-2.48-8.77-5.74-4.78-3.27-8.6-5.99-8.54-6.08.06-.09,3.99,2.48,8.77,5.74,4.78,3.26,8.6,5.99,8.54,6.08Z"/>
    <g>
      <path class="cls-21" d="M206.08,221.54c-.05.1-7.22-3.63-16-8.33-8.79-4.7-15.86-8.6-15.81-8.7.05-.1,7.22,3.63,16,8.33,8.78,4.7,15.86,8.6,15.81,8.7Z"/>
      <path class="cls-21" d="M174.7,203.27s-.17.12-.53.33c-.37.22-.9.53-1.6.95-1.43.83-3.51,2.05-6.18,3.61-5.4,3.14-13.19,7.66-22.79,13.24l-.08.04-.08-.04c-8.86-5.1-19.49-11.22-31.19-17.96l-.1-.06v-.11c0-11.13,0-23.3-.01-35.99h0v-.12l.1-.06c10.95-6.32,21.47-12.39,31.18-17.99l.1-.06.1.06c11.69,6.77,22.25,12.88,31.15,18.03l.08.04v.09c-.03,11.1-.06,20.11-.07,26.35-.02,3.1-.03,5.51-.04,7.16,0,.81-.02,1.42-.02,1.86,0,.42-.02.62-.02.62,0,0-.01-.22-.02-.65,0-.44-.01-1.06-.02-1.88,0-1.66-.02-4.07-.04-7.18-.02-6.23-.04-15.21-.07-26.29l.08.13c-8.91-5.13-19.48-11.22-31.19-17.96h.19c-9.7,5.61-20.22,11.68-31.17,18.01l.1-.18h0c0,12.69,0,24.87-.01,35.99l-.1-.17c11.69,6.77,22.3,12.91,31.15,18.03h-.15c9.61-5.51,17.4-9.98,22.8-13.08,2.7-1.54,4.8-2.74,6.24-3.56.71-.4,1.25-.71,1.63-.92.37-.21.57-.31.57-.31Z"/>
      <circle class="cls-4" cx="95.04" cy="155.62" r="3.18"/>
      <path class="cls-4" d="M117.27,167.44c0,2.71-2.2,4.91-4.91,4.91s-4.91-2.2-4.91-4.91,2.2-4.91,4.91-4.91,4.91,2.2,4.91,4.91Z"/>
      <path class="cls-4" d="M179.18,167.44c0,2.71-2.2,4.91-4.91,4.91s-4.91-2.2-4.91-4.91,2.2-4.91,4.91-4.91,4.91,2.2,4.91,4.91Z"/>
      <circle class="cls-4" cx="174.27" cy="204.51" r="4.91"/>
      <path class="cls-4" d="M209.75,221.54c0,2.03-1.64,3.67-3.67,3.67s-3.67-1.64-3.67-3.67,1.64-3.67,3.67-3.67,3.67,1.64,3.67,3.67Z"/>
      <path class="cls-4" d="M148.39,221.54c0,2.71-2.2,4.91-4.91,4.91s-4.91-2.2-4.91-4.91,2.2-4.91,4.91-4.91,4.91,2.2,4.91,4.91Z"/>
      <path class="cls-4" d="M117.93,202.76c0,2.71-2.2,4.91-4.91,4.91s-4.91-2.2-4.91-4.91,2.2-4.91,4.91-4.91,4.91,2.2,4.91,4.91Z"/>
      <path class="cls-21" d="M143.53,113.52c.11,0,.21,7.79.21,17.39s-.09,17.39-.21,17.39-.21-7.78-.21-17.39.09-17.39.21-17.39Z"/>
      <path class="cls-4" d="M148.44,149.27c0,2.71-2.2,4.91-4.91,4.91s-4.91-2.2-4.91-4.91,2.2-4.91,4.91-4.91,4.91,2.2,4.91,4.91Z"/>
      <circle class="cls-4" cx="143.53" cy="112.16" r="4"/>
    </g>
  </g>
  <g>
    <path class="cls-21" d="M242.19,355.73s.13.05.35.17c.26.15.57.33.95.55.87.53,2.04,1.24,3.46,2.1,2.95,1.84,6.94,4.32,11.34,7.06,4.38,2.77,8.35,5.28,11.29,7.14,1.4.9,2.55,1.63,3.41,2.18.37.24.67.44.92.6.21.13.32.21.32.23,0,.01-.12-.04-.35-.15-.23-.11-.55-.3-.97-.54-.83-.48-2.02-1.19-3.48-2.07-2.92-1.77-6.94-4.26-11.36-7.04-4.42-2.77-8.4-5.31-11.27-7.16-1.39-.91-2.54-1.66-3.39-2.21-.36-.25-.66-.45-.91-.62-.21-.15-.31-.23-.3-.24Z"/>
    <g>
      <path class="cls-21" d="M148.46,301.63c.05-.1,7.22,3.63,16,8.33,8.79,4.7,15.86,8.6,15.81,8.7-.05.1-7.22-3.63-16-8.33-8.78-4.7-15.86-8.6-15.81-8.7Z"/>
      <path class="cls-21" d="M179.84,319.9s.17-.12.53-.33c.37-.22.9-.53,1.6-.95,1.43-.83,3.51-2.05,6.18-3.61,5.4-3.14,13.19-7.66,22.79-13.24l.08-.04.08.04c8.86,5.1,19.49,11.22,31.19,17.96l.1.06v.11c0,11.13,0,23.3.01,35.99h0v.12l-.1.06c-10.95,6.32-21.47,12.39-31.18,17.99l-.1.06-.1-.06c-11.69-6.77-22.25-12.88-31.15-18.03l-.08-.04v-.09c.03-11.1.06-20.11.07-26.35.02-3.1.03-5.51.04-7.16,0-.81.01-1.42.02-1.86,0-.42.02-.62.02-.62,0,0,.01.22.02.65,0,.44.01,1.06.02,1.88,0,1.66.02,4.07.04,7.18.02,6.23.04,15.21.07,26.29l-.08-.13c8.91,5.13,19.48,11.22,31.19,17.96h-.19c9.7-5.61,20.21-11.68,31.17-18.01l-.1.18h0c0-12.69,0-24.87.01-35.99l.1.17c-11.69-6.77-22.3-12.91-31.15-18.03h.15c-9.61,5.51-17.4,9.98-22.8,13.08-2.7,1.54-4.8,2.74-6.24,3.56-.71.4-1.25.71-1.63.92-.37.21-.57.31-.57.31Z"/>
      <path class="cls-4" d="M269.96,374.87c0-1.76,1.42-3.18,3.18-3.18s3.18,1.42,3.18,3.18-1.42,3.18-3.18,3.18-3.18-1.42-3.18-3.18Z"/>
      <path class="cls-4" d="M237.27,355.73c0-2.71,2.2-4.91,4.91-4.91s4.91,2.2,4.91,4.91-2.2,4.91-4.91,4.91-4.91-2.2-4.91-4.91Z"/>
      <path class="cls-4" d="M175.36,355.73c0-2.71,2.2-4.91,4.91-4.91s4.91,2.2,4.91,4.91-2.2,4.91-4.91,4.91-4.91-2.2-4.91-4.91Z"/>
      <circle class="cls-4" cx="180.28" cy="318.66" r="4.91"/>
      <circle class="cls-4" cx="148.46" cy="301.63" r="3.67"/>
      <path class="cls-4" d="M206.15,301.63c0-2.71,2.2-4.91,4.91-4.91s4.91,2.2,4.91,4.91-2.2,4.91-4.91,4.91-4.91-2.2-4.91-4.91Z"/>
      <path class="cls-4" d="M236.61,320.41c0-2.71,2.2-4.91,4.91-4.91s4.91,2.2,4.91,4.91-2.2,4.91-4.91,4.91-4.91-2.2-4.91-4.91Z"/>
      <path class="cls-4" d="M206.1,373.89c0-2.71,2.2-4.91,4.91-4.91s4.91,2.2,4.91,4.91-2.2,4.91-4.91,4.91-4.91-2.2-4.91-4.91Z"/>
    </g>
  </g>
  <g>
    <g>
      <g>
        <g>
          <path class="cls-9" d="M232.44,284.17c-1.12,1.14,8.59,7.43,12.65,12.68,4.07,5.25,18.75,32.43,26.66,30.44,7.91-1.99,2.03-23.01,2.03-23.01,0,0,3.52-23.01,2.1-22.83-1.42.18-40.06-.72-43.45,2.72Z"/>
          <g class="cls-6">
            <path d="M232.44,284.17c-1.12,1.14,8.59,7.43,12.65,12.68,4.07,5.25,18.75,32.43,26.66,30.44,7.91-1.99,2.03-23.01,2.03-23.01,0,0,3.52-23.01,2.1-22.83-1.42.18-40.06-.72-43.45,2.72Z"/>
          </g>
        </g>
        <path class="cls-9" d="M130.81,235.18s.58,19.89,24.21,24.21l20.75,2.02s.58,28.53,34.3,29.11l26.23-3.17s40.35-1.14,66.29,1.15c7.39.65,18.17,1.71,28.84-2.04,10.66-3.75,46.97-38.02,10.36-80.68,0,0,3.17-19.31-16.43-23.92,0,0-8.65-26.52-37.47-26.23,0,0-9.51-11.82-23.92-6.92,0,0-27.67-12.47-48.71-1.19,0,0-25.08-5.44-43.81,15.02,0,0-20.18,6.34-25.36,21.62,0,0-24.79,16-17.29,34.52,0,0-4.32,3.24-3.46,9.58.86,6.34,5.48,6.92,5.48,6.92Z"/>
        <path class="cls-18" d="M280.12,213.95c.04.07-1.2.19-2.83,1.6-.78.71-1.63,1.76-2.19,3.2-.54,1.42-.81,3.28-.14,5.15l.07.21-.22-.06c-2.77-.74-6.03-1.47-9.73-1.9-3.7-.41-7.82-.52-12.23-.15-8.81.7-18.82,3.54-28,9.32l-.08.05-.09-.03c-1.93-.62-4.05-1.09-6.2-1.44-4.83-.75-9.65-.97-14.23-.5-2.29.24-4.51.71-6.57,1.52-2.08.78-4.09,1.61-5.91,2.7-1.82,1.07-3.41,2.4-4.9,3.74-1.48,1.37-2.95,2.66-4.16,4.09-2.45,2.86-4.27,5.91-5.49,8.87-.61,1.48-1.06,2.94-1.36,4.35-.28,1.41-.41,2.77-.39,4.04.03,2.55.43,4.72.85,6.46.42,1.75.85,3.07,1.16,3.97.15.43.27.77.36,1.02.08.23.11.35.11.35,0,0-.87-1.81-1.78-5.3-.44-1.75-.87-3.93-.92-6.5-.03-1.28.09-2.66.37-4.1.29-1.43.74-2.91,1.35-4.41,1.22-2.99,3.04-6.08,5.5-8.98,1.23-1.46,2.71-2.76,4.18-4.14,1.49-1.36,3.11-2.7,4.95-3.8,1.84-1.1,3.87-1.95,5.96-2.74,2.09-.82,4.36-1.31,6.67-1.55,4.63-.48,9.47-.26,14.34.49,2.17.35,4.31.82,6.27,1.45l-.17.02c9.25-5.82,19.34-8.66,28.19-9.33,4.44-.36,8.59-.23,12.3.21,3.71.45,6.98,1.2,9.76,1.97l-.14.15c-.67-1.94-.38-3.85.19-5.3.59-1.46,1.47-2.52,2.28-3.23.82-.71,1.59-1.06,2.1-1.27.53-.17.81-.24.81-.24Z"/>
        <path class="cls-18" d="M316.14,211.27s-.03.13-.1.37c-.08.26-.19.61-.34,1.06-.28.94-.79,2.29-1.48,4.01-.75,1.7-1.68,3.78-3.01,6.06-.63,1.16-1.42,2.34-2.22,3.6-.86,1.22-1.77,2.52-2.82,3.81-4.15,5.18-10.07,10.69-17.88,14.81-3.91,2.03-8.25,3.69-12.91,4.83-4.66,1.09-9.62,1.7-14.71,1.6-2.79-.02-5.52-.33-8.19-.74-2.67-.42-5.24-1.09-7.72-1.83l.18-.03c-4.33,3.28-9.37,5.08-14.18,5.65-4.83.58-9.45-.08-13.34-1.5l.16-.02c-1.75,1.33-3.62,2.29-5.48,2.97-1.86.68-3.7,1.09-5.44,1.25-.43.06-.86.09-1.28.1-.42.01-.84.04-1.24.04-.81-.05-1.6-.03-2.34-.14-.37-.04-.74-.09-1.1-.13-.35-.07-.7-.14-1.04-.2-.68-.11-1.3-.3-1.9-.47-2.38-.71-4.09-1.64-5.2-2.32-.55-.35-.95-.66-1.22-.85-.27-.2-.4-.31-.4-.31,0,0,.15.09.43.27.28.18.68.48,1.24.81,1.12.65,2.84,1.56,5.2,2.23.59.16,1.22.34,1.89.45.33.06.68.12,1.03.19.35.04.72.08,1.09.12.74.11,1.52.08,2.32.12.4,0,.81-.03,1.23-.05.42,0,.84-.04,1.27-.11,1.72-.17,3.54-.59,5.36-1.27,1.83-.68,3.67-1.64,5.38-2.95l.07-.05.08.03c3.85,1.39,8.42,2.02,13.18,1.44,4.75-.57,9.72-2.36,13.98-5.6l.08-.06.1.03c2.47.73,5.02,1.39,7.67,1.81,2.65.4,5.37.71,8.13.73,5.04.11,9.97-.49,14.6-1.58,4.62-1.13,8.94-2.77,12.82-4.78,7.76-4.07,13.67-9.53,17.83-14.66,1.06-1.28,1.97-2.56,2.84-3.78.81-1.25,1.6-2.42,2.24-3.57,1.35-2.26,2.3-4.32,3.07-6.01.71-1.71,1.25-3.05,1.55-3.98.16-.45.28-.79.37-1.05.09-.24.14-.35.14-.35Z"/>
        <path class="cls-18" d="M195.25,273.48s-.05-.27-.06-.77c-.01-.49-.01-1.21.02-2.1.08-1.76.26-4.26,1.29-6.81,1.04-2.55,2.91-4.4,4.5-5.22.8-.42,1.5-.64,1.99-.72.49-.09.77-.09.77-.06.02.09-1.11.15-2.62,1.04-1.5.86-3.25,2.66-4.26,5.13-1,2.47-1.23,4.93-1.38,6.67-.13,1.76-.18,2.85-.25,2.85Z"/>
        <path class="cls-18" d="M308.98,268.17s-.08,0-.24-.04c-.18-.04-.41-.1-.7-.17-.64-.17-1.55-.4-2.69-.7-.59-.15-1.23-.34-1.95-.5-.72-.16-1.5-.33-2.33-.52-.84-.19-1.73-.39-2.68-.6-.96-.18-1.97-.36-3.03-.56-4.24-.81-9.34-1.48-15.03-1.9-5.69-.44-11.98-.51-18.55-.11-8.45.49-16.33,1.74-23.04,3.3-6.71,1.54-12.23,3.39-16.19,4.76l.07-.09c-.14,1.2-.47,2.26-.94,3.08-.48.82-1.06,1.39-1.56,1.79-1.02.8-1.65,1.08-1.65,1.08,0,0,.13-.11.41-.29.27-.19.68-.46,1.16-.88.48-.41,1.04-.98,1.48-1.79.44-.81.75-1.83.87-3.02v-.07s.07-.02.07-.02c3.94-1.42,9.46-3.33,16.18-4.91,6.71-1.59,14.61-2.86,23.09-3.36,6.59-.4,12.9-.33,18.6.14,5.7.45,10.82,1.15,15.06,1.99,1.06.21,2.07.4,3.03.59.95.22,1.84.43,2.68.63.83.2,1.61.38,2.33.55.71.18,1.36.38,1.94.54,1.14.33,2.04.59,2.68.77.29.09.51.16.69.21.16.05.23.08.23.09Z"/>
        <path class="cls-18" d="M330.27,256.69s.07-.06.21-.15c.16-.11.37-.24.64-.41.56-.37,1.39-.91,2.4-1.68,2.02-1.53,4.88-3.94,7.46-7.69,1.28-1.87,2.46-4.09,3.27-6.62.81-2.53,1.28-5.38,1.13-8.37-.15-2.98-.93-6.11-2.6-8.9-1.66-2.78-4.14-5.23-7.2-6.81-1.89-1-3.96-1.53-5.94-1.7l-.3-.03.14-.27c1.38-2.75,2.2-5.73,2.01-8.6-.14-2.88-1.22-5.52-2.58-7.75-1.37-2.24-3.14-4.06-5.08-5.33-1.94-1.27-4-2.01-5.93-2.39-1.93-.4-3.71-.47-5.27-.43-1.56.04-2.89.18-3.98.27-1.07.1-1.91.17-2.51.23-.27.02-.48.03-.65.05-.15,0-.22,0-.22,0,0,0,.07-.02.22-.04.17-.02.38-.05.65-.08.6-.07,1.43-.17,2.5-.3,1.09-.12,2.42-.28,3.99-.34,1.56-.06,3.37-.02,5.33.37,1.95.37,4.06,1.1,6.05,2.39,1.99,1.28,3.81,3.13,5.21,5.41,1.39,2.26,2.52,4.96,2.66,7.92.2,2.96-.64,6.01-2.04,8.81l-.17-.3c2.03.17,4.16.72,6.1,1.74,3.13,1.62,5.67,4.12,7.36,6.97,1.7,2.86,2.48,6.06,2.63,9.09.14,3.04-.35,5.93-1.19,8.5-.84,2.57-2.05,4.8-3.36,6.68-2.63,3.77-5.55,6.16-7.6,7.66-2.08,1.5-3.35,2.12-3.35,2.12Z"/>
        <path class="cls-18" d="M258.24,220.83s-.22,0-.62-.08c-.2-.04-.44-.09-.71-.19-.27-.1-.59-.18-.9-.35-.66-.28-1.4-.74-2.15-1.33-.73-.61-1.47-1.37-2.1-2.27-.62-.91-1.07-1.87-1.38-2.77-.29-.91-.45-1.76-.49-2.48-.04-.36-.01-.69,0-.97,0-.29.03-.53.07-.73.06-.4.11-.61.14-.61.08,0-.07.89.09,2.28.07.7.26,1.51.55,2.38.32.86.77,1.78,1.36,2.66.61.87,1.31,1.61,2.01,2.22.71.59,1.41,1.05,2.03,1.36,1.25.64,2.12.8,2.1.88Z"/>
        <path class="cls-18" d="M229.03,218.89s.32.7.44,1.92c.13,1.22.03,2.95-.59,4.73-.62,1.78-1.62,3.2-2.47,4.08-.86.88-1.52,1.27-1.54,1.24-.05-.06.54-.52,1.32-1.43.78-.9,1.7-2.3,2.3-4.02.59-1.72.74-3.39.69-4.58-.05-1.19-.22-1.93-.15-1.94Z"/>
        <path class="cls-18" d="M203.76,229.18s-.11.03-.32.04c-.21.03-.52,0-.92-.05-.79-.13-1.92-.58-2.95-1.6-1.02-1-1.96-2.53-2.32-4.41-.38-1.87-.26-3.97-.05-6.11.22-2.15.36-4.18.24-6.03-.1-1.85-.37-3.51-.68-4.88-.31-1.37-.65-2.46-.89-3.21-.25-.75-.4-1.16-.37-1.17.01,0,.07.09.16.28.09.19.22.47.36.84.29.73.68,1.82,1.03,3.19.35,1.38.64,3.05.77,4.92.14,1.88.02,3.95-.2,6.09-.2,2.14-.33,4.19.02,6,.32,1.8,1.2,3.29,2.15,4.28.97,1,2.03,1.48,2.78,1.65.76.16,1.2.11,1.2.16Z"/>
        <path class="cls-18" d="M185.16,238.67c-.1-.05.87-1.01,1.21-3.02.35-1.97-.14-4.93-2.03-7.39-1.91-2.45-4.39-3.93-6.14-4.97-.83-.47-1.54-.87-2.11-1.2-.5-.28-.77-.45-.76-.48.01-.03.31.09.83.33.52.24,1.27.6,2.18,1.08,1.79.97,4.35,2.44,6.33,4.97,1.97,2.56,2.44,5.66,1.99,7.69-.21,1.03-.58,1.81-.92,2.28-.33.48-.56.7-.58.69Z"/>
        <path class="cls-18" d="M175.85,253.42s-.2.02-.6.03c-.43,0-1,0-1.72,0-.74-.05-1.65-.12-2.71-.24-1.04-.19-2.24-.35-3.53-.72-2.58-.67-5.59-1.82-8.61-3.65-3.02-1.83-6.09-4.32-8.65-7.5-2.56-3.19-4.37-6.71-5.41-10.09-.51-1.7-.79-3.38-.8-4.96,0-.79.05-1.56.2-2.28.14-.72.37-1.39.59-2.02.94-2.51,2.11-4.37,3.06-5.52.47-.58.92-.96,1.22-1.21.33-.22.5-.33.51-.32,0,.01-.15.14-.46.38-.28.27-.71.66-1.15,1.25-.9,1.16-2.03,3.02-2.91,5.51-.21.62-.42,1.28-.55,1.99-.13.7-.18,1.45-.17,2.22.02,1.55.31,3.19.82,4.86,1.05,3.33,2.84,6.79,5.37,9.94,2.53,3.14,5.56,5.61,8.53,7.44,2.98,1.83,5.94,2.99,8.49,3.69,1.27.39,2.46.57,3.49.77,1.04.14,1.95.24,2.68.31.71.03,1.28.05,1.71.07.39.02.6.04.6.05Z"/>
        <path class="cls-18" d="M156.16,196.91s-.15,0-.42-.03c-.32-.04-.72-.08-1.2-.14-1.04-.11-2.55-.27-4.42-.26-1.86.03-4.11.24-6.41,1.11-2.28.86-4.67,2.4-6.12,4.83-1.45,2.41-1.71,5.34-.81,7.59.92,2.28,2.82,3.68,4.49,4.44,1.69.77,3.2,1.05,4.23,1.22,1.04.15,1.62.18,1.61.22,0,.01-.15.02-.42.02-.28,0-.69-.02-1.21-.07-1.04-.12-2.58-.36-4.33-1.11-.87-.38-1.79-.91-2.63-1.66-.84-.75-1.61-1.72-2.09-2.9-.97-2.37-.71-5.43.8-7.94,1.52-2.54,4.01-4.11,6.34-4.97,2.37-.87,4.66-1.06,6.54-1.05,1.89.02,3.41.23,4.45.39.52.08.92.16,1.19.22.27.06.41.09.41.11Z"/>
        <path class="cls-18" d="M222.94,167.49s-.07-.04-.19-.13c-.14-.11-.32-.25-.54-.42-.47-.37-1.16-.92-2.09-1.59-1.83-1.33-4.65-3.15-8.6-4.17-1.96-.51-4.18-.78-6.56-.83-2.38-.03-4.94.2-7.52.93-2.56.74-5.18,1.89-7.58,3.52-2.4,1.65-4.54,3.83-6.29,6.38-.38.56-.74,1.14-1.06,1.68l-.06.11h-.12c-5.97-.15-11.53,2.06-15.53,5.23-2.03,1.57-3.64,3.42-4.92,5.3-1.26,1.9-2.15,3.83-2.78,5.66-1.24,3.67-1.4,6.85-1.31,8.99.01.54.06,1.02.1,1.43.03.41.07.76.12,1.04.04.26.06.47.09.64.02.14.02.22.02.22,0,0-.33-1.16-.48-3.33-.14-2.15-.03-5.37,1.2-9.09.61-1.85,1.51-3.82,2.77-5.75,1.28-1.91,2.92-3.8,4.97-5.41,4.05-3.24,9.69-5.49,15.77-5.35l-.18.1c.32-.55.69-1.13,1.07-1.7,1.77-2.59,3.95-4.81,6.4-6.48,2.46-1.66,5.1-2.81,7.71-3.55,2.62-.73,5.22-.96,7.63-.91,2.41.06,4.65.36,6.63.89,3.98,1.07,6.81,2.95,8.62,4.32.91.69,1.59,1.26,2.04,1.65.21.19.38.34.51.45.11.1.17.16.16.17Z"/>
        <path class="cls-18" d="M172.94,184.15s.12,0,.36.02c.23.02.57.08,1.01.18.86.2,2.1.63,3.45,1.48,1.34.86,2.79,2.17,3.86,4.01,1.09,1.82,1.68,4.18,1.54,6.62-.16,2.44-1.04,4.71-2.34,6.39-1.29,1.69-2.9,2.81-4.33,3.5-1.45.68-2.72.95-3.61,1.05-.44.04-.79.06-1.02.05-.23,0-.36,0-.36-.02,0-.04.49-.05,1.35-.19.86-.14,2.1-.46,3.5-1.15,1.38-.71,2.92-1.82,4.15-3.47,1.24-1.63,2.08-3.82,2.23-6.18.14-2.36-.42-4.64-1.45-6.41-1.02-1.79-2.41-3.08-3.7-3.95-1.3-.86-2.49-1.33-3.33-1.57-.84-.25-1.33-.31-1.32-.36Z"/>
        <path class="cls-18" d="M198.75,177.14s.16.33.34.96c.18.63.36,1.57.4,2.75.11,2.33-.5,5.74-2.69,8.65-2.21,2.91-5.32,4.43-7.59,4.95-1.15.28-2.1.36-2.76.36-.66,0-1.02-.04-1.02-.06,0-.09,1.46.03,3.7-.58,2.21-.59,5.2-2.1,7.34-4.92,2.13-2.82,2.77-6.12,2.73-8.4-.02-2.32-.54-3.7-.45-3.72Z"/>
        <path class="cls-18" d="M216.63,213.05s.02-.46.08-1.28c.07-.82.1-2.02-.02-3.49-.21-2.91-1.25-7-3.88-10.65-2.64-3.65-6.19-5.92-8.89-7.04-1.36-.57-2.5-.92-3.3-1.11-.8-.2-1.25-.29-1.25-.32,0-.01.12,0,.33.02.22.03.54.06.95.15.82.15,1.99.45,3.38,1,2.76,1.06,6.42,3.34,9.11,7.06,2.69,3.73,3.7,7.91,3.84,10.87.08,1.49,0,2.7-.11,3.52-.04.41-.12.73-.16.94-.04.21-.07.33-.09.32Z"/>
        <path class="cls-18" d="M208.14,170.25s.35.14.93.51c.58.37,1.37.98,2.21,1.89.84.9,1.7,2.11,2.37,3.6.67,1.49,1.12,3.26,1.14,5.15,0,1.89-.43,3.68-1.08,5.17-.65,1.5-1.5,2.72-2.33,3.63-.83.91-1.61,1.54-2.18,1.91-.57.38-.91.54-.92.52-.06-.08,1.32-.79,2.89-2.63,1.56-1.79,3.22-4.91,3.21-8.6-.03-3.69-1.73-6.79-3.32-8.56-1.59-1.82-2.98-2.51-2.92-2.59Z"/>
        <path class="cls-18" d="M219.33,170.86c.1.02-.36,2.18-1.74,4.5-1.37,2.33-3.05,3.77-3.11,3.69-.09-.09,1.42-1.63,2.75-3.9,1.35-2.26,1.98-4.33,2.1-4.29Z"/>
        <path class="cls-18" d="M234.65,143.08s.23.09.64.29c.22.11.47.24.76.39.29.18.63.38,1,.61,1.47.95,3.51,2.57,5.36,5.13,1.84,2.54,3.55,6.05,3.97,10.23.47,4.17-.61,8.9-3.24,12.96-2.7,4.17-6.69,7.15-10.73,8.49l.12-.24c1.8,5.93,1.76,11.28,1.3,14.92-.23,1.83-.54,3.26-.79,4.22-.12.48-.24.85-.31,1.1-.08.25-.12.37-.13.37-.01,0,.01-.14.07-.39.06-.28.15-.65.25-1.11.21-.97.49-2.4.68-4.22.39-3.62.38-8.93-1.44-14.78l-.05-.18.17-.06c3.95-1.34,7.85-4.26,10.51-8.36,2.58-3.98,3.65-8.61,3.21-12.7-.4-4.11-2.04-7.57-3.83-10.1-1.8-2.55-3.78-4.18-5.22-5.17-.36-.24-.68-.45-.97-.64-.28-.16-.53-.3-.74-.42-.4-.23-.61-.35-.6-.37Z"/>
        <path class="cls-18" d="M221.08,145.68s.29.15.73.53c.44.38,1.03.99,1.6,1.86.58.87,1.12,2.01,1.43,3.36.31,1.35.37,2.91.01,4.47-.38,1.56-1.13,2.93-2.01,4-.88,1.07-1.87,1.85-2.78,2.37-.9.52-1.7.81-2.27.95-.56.14-.88.17-.89.15-.03-.09,1.27-.27,3-1.34,1.71-1.04,3.81-3.18,4.54-6.21.7-3.03-.22-5.89-1.28-7.58-1.06-1.74-2.15-2.48-2.08-2.55Z"/>
        <path class="cls-18" d="M287.6,154.48s-.22.03-.64.06c-.42.03-1.04.07-1.84.16-1.59.18-3.9.56-6.61,1.47-1.35.46-2.81,1.05-4.28,1.88-1.46.82-2.94,1.86-4.44,3.02-2.97,2.33-6.03,5.27-8.22,9.05-2.15,3.82-4.09,7.53-5.66,10.98-1.55,3.46-2.73,6.68-3.47,9.45-.75,2.77-1.14,5.07-1.32,6.66-.12.8-.14,1.42-.19,1.84-.04.42-.07.64-.09.64-.01,0-.01-.22,0-.65.03-.42.02-1.05.11-1.85.13-1.61.48-3.92,1.2-6.72.71-2.8,1.86-6.05,3.41-9.53,1.55-3.49,3.49-7.2,5.65-11.03,2.23-3.84,5.34-6.81,8.34-9.14,1.52-1.16,3.01-2.2,4.51-3.02,1.5-.82,2.98-1.4,4.35-1.85,2.75-.89,5.09-1.22,6.69-1.36.8-.07,1.43-.09,1.86-.09.42,0,.65.01.65.02Z"/>
        <path class="cls-18" d="M262.34,148.07c0,.08-1.11.06-2.85.37-.87.15-1.89.42-3,.8-1.1.41-2.27.94-3.43,1.62-1.15.7-2.17,1.49-3.04,2.27-.86.8-1.57,1.57-2.11,2.27-1.09,1.4-1.6,2.39-1.67,2.35-.03-.01.09-.27.31-.72.11-.23.25-.5.45-.8.19-.3.39-.66.67-1.01.52-.74,1.23-1.55,2.09-2.38.87-.81,1.91-1.63,3.09-2.34,1.19-.7,2.39-1.24,3.52-1.63,1.13-.37,2.18-.62,3.08-.73.44-.08.85-.09,1.21-.12.36-.03.66-.03.92-.02.5.01.78.03.78.06Z"/>
        <path class="cls-18" d="M269.01,201.77s.33-.06.88-.26c.55-.19,1.31-.61,2.02-1.37.72-.75,1.32-1.86,1.75-3.18.43-1.32.78-2.83,1.1-4.41.63-3.17.87-6.09.95-8.21.04-1.06.04-1.92.05-2.51,0-.59.01-.92.04-.92.03,0,.07.33.12.92.04.59.09,1.46.08,2.52,0,2.13-.2,5.09-.84,8.28-.33,1.6-.69,3.1-1.15,4.45-.46,1.34-1.12,2.49-1.91,3.26-.77.77-1.59,1.17-2.18,1.32-.29.08-.53.11-.68.12-.16,0-.24,0-.24-.01Z"/>
        <path class="cls-18" d="M293.24,213.77c-.12-.03.85-1.67.82-4.58,0-1.44-.33-3.16-1.06-4.91-.74-1.75-1.92-3.53-3.55-5-1.65-1.45-3.52-2.48-5.31-3.15-1.79-.67-3.49-1.02-4.93-1.19-1.44-.18-2.62-.21-3.43-.2-.81,0-1.27.02-1.27-.01,0-.01.11-.03.32-.06.21-.02.53-.07.94-.08.82-.05,2.01-.07,3.47.07,1.46.14,3.2.46,5.03,1.13,1.83.66,3.75,1.7,5.45,3.19,1.68,1.52,2.89,3.36,3.63,5.16.73,1.81,1.03,3.58,1,5.06-.02,1.48-.29,2.66-.58,3.43-.12.39-.28.67-.37.87-.09.19-.15.29-.16.29Z"/>
        <path class="cls-18" d="M274.72,171.2s.17-.07.49-.16c.33-.1.82-.22,1.45-.36,1.27-.27,3.14-.53,5.47-.48,2.32.08,5.11.5,7.95,1.75,2.84,1.22,5.62,3.39,7.64,6.34,2.01,2.95,2.98,6.41,2.76,9.51-.21,3.11-1.44,5.74-2.84,7.59-1.43,1.86-3,2.98-4.16,3.57-.59.29-1.05.49-1.38.58-.32.11-.5.16-.5.15,0-.01.16-.09.47-.23.32-.12.77-.34,1.33-.65,1.12-.62,2.64-1.76,4-3.6,1.34-1.84,2.51-4.42,2.69-7.44.2-3.01-.76-6.37-2.72-9.25-1.97-2.88-4.68-5.01-7.45-6.22-2.77-1.24-5.52-1.69-7.8-1.81-2.3-.09-4.16.13-5.43.35-1.27.22-1.96.4-1.97.36Z"/>
        <path class="cls-18" d="M298.7,179.26c-.09-.02.25-1.24.31-3.25.01-.5.02-1.05-.03-1.64-.02-.59-.12-1.21-.21-1.87-.23-1.3-.61-2.72-1.18-4.13-.6-1.41-1.33-2.67-2.09-3.76-.4-.53-.77-1.04-1.18-1.47-.38-.45-.77-.83-1.14-1.18-1.47-1.37-2.57-2-2.52-2.07.01-.02.29.12.78.42.25.14.54.33.86.58.32.25.71.51,1.07.86.38.34.8.71,1.19,1.17.43.43.81.94,1.23,1.47.79,1.1,1.55,2.38,2.16,3.82.59,1.45.96,2.9,1.18,4.23.08.67.17,1.31.17,1.91.04.6.01,1.16-.02,1.67,0,.51-.1.97-.15,1.37-.05.4-.12.74-.2,1.02-.14.55-.23.85-.26.85Z"/>
        <path class="cls-18" d="M324.76,180.51c-.01.08-1.24-.16-3.23-.14-1,0-2.18.11-3.47.34-1.29.25-2.68.63-4.09,1.2-1.4.58-2.67,1.28-3.76,2.01-1.08.74-2.01,1.49-2.72,2.19-1.44,1.38-2.14,2.41-2.21,2.36-.02-.02.14-.28.47-.74.16-.23.36-.51.63-.81.26-.3.54-.67.91-1.01.7-.73,1.62-1.52,2.71-2.29,1.11-.75,2.39-1.48,3.82-2.07,1.44-.57,2.86-.95,4.18-1.19,1.32-.21,2.53-.29,3.54-.25.51,0,.96.05,1.36.09.4.03.74.09,1.02.14.55.11.86.18.85.2Z"/>
        <path class="cls-18" d="M340.15,248.14s.08.12.18.38c.1.26.22.64.34,1.15.23,1.01.43,2.52.27,4.38-.15,1.85-.66,4.05-1.69,6.28-1.03,2.24-2.54,4.51-4.45,6.61-1.91,2.1-4.14,3.73-6.38,4.77-2.24,1.06-4.45,1.5-6.29,1.68-1.85.18-3.35.11-4.38.08-.52-.02-.91-.02-1.18,0-.27.02-.41.03-.41.02,0-.01.13-.05.41-.1.27-.04.68-.06,1.19-.07,1.03-.02,2.53,0,4.35-.21,1.82-.21,3.98-.68,6.16-1.74,2.18-1.03,4.36-2.64,6.24-4.7,1.88-2.06,3.39-4.3,4.41-6.49,1.03-2.19,1.57-4.33,1.75-6.15.19-1.82.04-3.31-.14-4.32-.09-.51-.19-.89-.26-1.15-.07-.26-.11-.4-.1-.4Z"/>
        <g class="cls-6">
          <path d="M278.15,214.49c-3.35,1.18-6.45,3.06-9.03,5.51-12.88-4.48-27.59-3.39-39.67,2.93-2.13,1.11-4.21,2.39-6.53,3.01-2.89.77-5.94.46-8.92.29-6.74-.38-13.6.04-20.02,2.13-6.42,2.09-12.39,5.96-16.21,11.53-3.82,5.56-5.27,12.9-3.05,19.27l.75,1.11c-.59-6.89,2.4-13.72,7.48-19.34,5.09-5.62,12.1-10.57,19.61-11.6,7.51-1.03,14.72.45,22.17,1.84,15.3-8.35,33.01-11.18,49.92-6.99-1.49-3.47.13-7.96,3.49-9.68Z"/>
        </g>
        <g class="cls-6">
          <path d="M244.81,248.66c-7.91,5.27-18.07,6.92-27.16,4.14-13.2,6.81-17.16,4.19-23.28,2.18,3.03,3.71,8.64,5.72,13.42,5.95,4.78.23,9.63-1.66,13-5.06,6.6,2.4,13.87,1.6,20.85.77,5.82-.69,11.64-1.38,17.45-2.08,6.43-.76,12.9-1.54,19.08-3.48,6.17-1.95,12.1-5.16,16.3-10.08-14.63,9.89-32.64,12.4-49.65,7.66Z"/>
        </g>
        <g class="cls-6">
          <path d="M172.15,207.4c2.8.9,6.85.09,9.43-1.32,2.58-1.41,4.54-3.91,5.3-6.75.2-.76.36-1.6.97-2.09.65-.52,1.57-.45,2.4-.47,2.73-.06,5.4-1.4,7.09-3.54s2.35-5.06,1.77-7.72c-2.34,6.24-9.85,10.02-16.25,8.17-.21,5.52-1.87,12.08-10.7,13.72"/>
        </g>
        <g class="cls-6">
          <path d="M224.21,165.13c-5.14-6.99-13.7-10.54-22.3-9.38-8.6,1.16-16.58,6.28-21.23,13.61-4.38.12-8.79.8-12.8,2.56-4.01,1.76-7.6,4.67-9.66,8.54-3.43,6.43-3.85,14.31-.1,21-1.29-7.98.36-14.66,4.69-19.8s13.43-9.35,20.15-9c2.37-5.6,6.8-9.34,12.65-10.99,5.85-1.66,12.47-1.83,18.26.02,5.79,1.85,14.06,10.59,14.07,11.89.32-2.87-1.04-4.78-3.73-8.44Z"/>
        </g>
        <g class="cls-6">
          <path d="M284.67,154.42c-10.64-1.59-21.53,4.26-27.72,13.06-6.19,8.8-6.92,18.87-6.1,29.6,0,0,3.94-18.17,10.36-26.75,7.81-10.43,20.91-17.48,23.47-15.91Z"/>
        </g>
        <g class="cls-6">
          <path d="M275.98,183.58c1.16,2.64,1.57,5.61,1.17,8.47,5.51-.04,10.55,3.54,13.53,8.17-2.01-2.1-4.92-3.82-7.87-4.71-2.95-.89-5.61-1.34-8.31-.44.66-4.12,1.74-8.07,1.37-11.77"/>
        </g>
        <g class="cls-6">
          <path d="M349.17,229.2c-1.27-4.04-4.15-7.54-7.86-9.57,5.91,8.67,4.99,20.19-1.16,28.52,1.85,6.52.45,14.62-10.36,22.63,6.49-1.08,13.53-8.14,14.36-14.67.35-2.72-.02-5.54.77-8.16.7-2.3,2.24-4.24,3.31-6.4,1.87-3.79,2.22-8.32.95-12.35Z"/>
        </g>
        <g>
          <g class="cls-6">
            <path d="M135.85,207.12c.02.1.05.2.08.3.04-.16.07-.33.11-.49l-.19.19Z"/>
          </g>
          <g class="cls-6">
            <path d="M146.95,235.27c-1.15-1.7-2.24-3.5-2.71-5.5-1.13-4.72,1.27-9.5,3.59-13.77-5.59.57-10.34-2.23-11.89-8.59-.93,4.34.26,9.46,3.83,12.05-1.56,6.57-.25,13.77,3.53,19.37,3.78,5.6,9.97,9.51,16.65,10.51-5.01-4-9.4-8.77-12.99-14.08Z"/>
          </g>
        </g>
        <g>
          <path class="cls-9" d="M264.49,285.4c-.65,1.15-8.77,7.98-6.11,16.39,3.45,10.94,19.98,11.31,32.98,8.78,19.1-3.72,28.15-11.88,28.15-22.81,0-8.81-55.02-2.36-55.02-2.36Z"/>
          <path class="cls-18" d="M319.51,287.75s-.22-.02-.64-.09c-.45-.08-1.06-.19-1.82-.33-.79-.16-1.75-.32-2.88-.49-1.12-.19-2.41-.38-3.83-.55-2.84-.39-6.24-.69-10.02-.94-3.78-.23-7.95-.35-12.33-.36-8.76-.01-16.68.42-22.4.73-2.83.17-5.14.3-6.79.4-.77.04-1.39.07-1.85.1-.42.02-.64.02-.65,0,0-.01.22-.04.64-.09.46-.04,1.07-.1,1.84-.17,1.6-.14,3.91-.33,6.78-.53,5.73-.39,13.65-.86,22.42-.85,4.38.01,8.56.14,12.35.39,3.79.27,7.2.6,10.04,1.03,1.42.19,2.71.4,3.83.61,1.12.19,2.09.38,2.87.56.75.17,1.35.31,1.8.41.41.1.63.16.62.17Z"/>
          <g>
            <g class="cls-6">
              <path d="M259.83,286.05s.09,0,.14,0h-.14Z"/>
            </g>
            <g class="cls-6">
              <path d="M319.51,287.92c-19.32-4.77-39.66-2.8-59.54-1.88,21.02,1.94,41.1,1.97,59.54,1.88Z"/>
            </g>
          </g>
        </g>
        <g class="cls-6">
          <path d="M235.02,267.04c-3.35.98-9.48,2.84-12.5,3.99-.46,2.51-1.46,4.62-3.68,5.82-2.58,1.17-5.48,1.6-8.28,1.23,3.33.64,6.79,1.21,10.09.43,3.3-.78,6.43-3.26,6.94-6.62,18.89-6.41,39.05-9.07,58.96-7.79-16.96-3.46-34.91-1.93-51.53,2.95Z"/>
        </g>
        <g class="cls-6">
          <path d="M297.15,195.68c.05-.03.11-.06.16-.09,4.39-2.43,6.6-8.21,4.92-12.95-.28-.79-.66-1.57-.7-2.41-.04-.86.29-1.69.51-2.52,1.28-4.83-1.41-10.39-5.99-12.38,1.1,1.27,4.61,6.4,2.39,14.88,0,0,2.76,4.94,1.65,9.22"/>
        </g>
        <g class="cls-6">
          <path d="M216.71,212.54c2.4-2.25,2.46-6.96,1.57-10.13-.89-3.17-2.97-5.86-5.19-8.29,2.3-1.72,3.84-4.43,4.11-7.29.27-2.86-.72-5.82-2.66-7.94-.35,2.72-.37,6.1-1.57,8.56-1.2,2.46-2.58,3.88-4.99,5.19,6.22,3.11,9.15,11.96,8.92,17.73l-.19,2.17Z"/>
        </g>
      </g>
      <path class="cls-18" d="M321.57,252.4c-.11,0,.59-1.67.14-4.37-.23-1.33-.75-2.89-1.72-4.4-.96-1.51-2.37-2.93-4.07-4.1-1.71-1.17-3.53-1.99-5.23-2.57-1.71-.59-3.28-.99-4.63-1.25-1.34-.26-2.44-.42-3.2-.54-.76-.12-1.18-.2-1.17-.23,0-.03.43,0,1.19.07.76.08,1.87.19,3.23.41,1.36.23,2.96.61,4.69,1.18,1.73.57,3.59,1.39,5.35,2.59,1.74,1.2,3.19,2.67,4.16,4.24.98,1.57,1.48,3.18,1.68,4.55.2,1.38.09,2.52-.07,3.27-.08.38-.16.67-.23.86-.07.19-.11.29-.12.29Z"/>
      <g class="cls-6">
        <path d="M311.57,231.52c1.65-4.21,2.34-8.79,1.99-13.29-2.75,6.3-7.1,12.08-11.98,16.92,6.44.37,13,2.78,17.6,7.29-.1-4.7-3.24-9.2-7.62-10.92Z"/>
      </g>
    </g>
    <g>
      <path class="cls-5" d="M119.26,282.42c-8.31,0-13.31-1.34-14.2-4.15-2.06-6.54,17.68-17.54,34.6-25.62l.34.71c-23.18,11.07-35.64,20.06-34.19,24.67,3.15,9.97,68.92-1.52,143.64-25.1,74.71-23.57,135.17-51.91,132.03-61.89-1.47-4.65-17.07-4.82-42.81-.47l-.13-.78c18.78-3.17,41.61-5.58,43.69,1.01,3.39,10.74-54.83,38.36-132.54,62.88-57.37,18.1-107.01,28.72-130.43,28.73Z"/>
      <g class="cls-1">
        <path d="M119.26,282.42c-8.31,0-13.31-1.34-14.2-4.15-2.06-6.51,17.68-17.53,34.6-25.62l.34.71c-23.18,11.09-35.64,20.08-34.19,24.67,3.15,9.97,68.92-1.52,143.64-25.1,74.71-23.57,135.17-51.91,132.03-61.89-1.46-4.64-17.07-4.81-42.81-.47l-.13-.78c18.79-3.16,41.62-5.56,43.69,1.01,3.39,10.74-54.83,38.36-132.54,62.88-57.37,18.1-107.01,28.72-130.43,28.73Z"/>
      </g>
    </g>
    <g>
      <path class="cls-5" d="M209.09,325.32c0,1.63-1.32,2.95-2.95,2.95s-2.95-1.32-2.95-2.95,1.32-2.95,2.95-2.95,2.95,1.32,2.95,2.95Z"/>
      <path class="cls-5" d="M341.5,294.98c0,1.63-1.32,2.95-2.95,2.95s-2.95-1.32-2.95-2.95,1.32-2.95,2.95-2.95,2.95,1.32,2.95,2.95Z"/>
      <path class="cls-5" d="M339.86,157.6c0,1.07-.87,1.95-1.95,1.95s-1.95-.87-1.95-1.95.87-1.95,1.95-1.95,1.95.87,1.95,1.95Z"/>
      <circle class="cls-5" cx="332.09" cy="316.73" r="2.95"/>
      <path class="cls-5" d="M225.27,327.39c0,2.74-2.22,4.97-4.97,4.97s-4.97-2.22-4.97-4.97,2.22-4.97,4.97-4.97,4.97,2.22,4.97,4.97Z"/>
      <path class="cls-5" d="M376.17,305.01c0,2.74-2.22,4.97-4.97,4.97s-4.97-2.22-4.97-4.97,2.22-4.97,4.97-4.97,4.97,2.22,4.97,4.97Z"/>
      <circle class="cls-5" cx="325.67" cy="156.31" r="3.28"/>
      <g>
        <path class="cls-5" d="M248.85,129.48c0,2.59-2.1,4.7-4.7,4.7s-4.7-2.1-4.7-4.7,2.1-4.7,4.7-4.7,4.7,2.1,4.7,4.7Z"/>
        <circle class="cls-5" cx="109.32" cy="238.97" r="3.99"/>
        <circle class="cls-5" cx="184.04" cy="113.3" r="3.99"/>
        <path class="cls-5" d="M230.31,129.13c0,1.5-1.21,2.71-2.71,2.71s-2.71-1.21-2.71-2.71,1.21-2.71,2.71-2.71,2.71,1.21,2.71,2.71Z"/>
        <path class="cls-5" d="M282.27,132.8c0,1.5-1.21,2.71-2.71,2.71s-2.71-1.21-2.71-2.71,1.21-2.71,2.71-2.71,2.71,1.21,2.71,2.71Z"/>
        <path class="cls-5" d="M178.03,124.78c0,1.5-1.21,2.71-2.71,2.71s-2.71-1.21-2.71-2.71,1.21-2.71,2.71-2.71,2.71,1.21,2.71,2.71Z"/>
        <path class="cls-5" d="M245.5,116.83c0,.75-.61,1.35-1.35,1.35s-1.35-.61-1.35-1.35.61-1.35,1.35-1.35,1.35.61,1.35,1.35Z"/>
        <path class="cls-5" d="M217.33,102.62c0,.75-.61,1.35-1.35,1.35s-1.35-.61-1.35-1.35.61-1.35,1.35-1.35,1.35.61,1.35,1.35Z"/>
        <path class="cls-5" d="M195.1,131.84c0,.75-.61,1.35-1.35,1.35s-1.35-.61-1.35-1.35.61-1.35,1.35-1.35,1.35.61,1.35,1.35Z"/>
      </g>
      <circle class="cls-5" cx="376.17" cy="229.2" r="2.48"/>
      <g>
        <path class="cls-5" d="M368.92,240.69c0,1.63-1.32,2.95-2.95,2.95s-2.95-1.32-2.95-2.95,1.32-2.95,2.95-2.95,2.95,1.32,2.95,2.95Z"/>
        <path class="cls-5" d="M363.55,218.66c-.42-.54-.32-1.32.22-1.74s1.32-.32,1.74.22.32,1.32-.22,1.74-1.32.32-1.74-.22Z"/>
      </g>
      <circle class="cls-5" cx="324.68" cy="165.78" r="1"/>
      <circle class="cls-5" cx="351.09" cy="289.83" r="1.51"/>
      <circle class="cls-5" cx="185.32" cy="296.69" r="4.33"/>
      <circle class="cls-5" cx="179.34" cy="308.03" r="1.64"/>
    </g>
  </g>
  <g>
    <g>
      <g>
        <path class="cls-8" d="M448.87,294.63l-6.42,1.87c-6.79,1.98-13.9-1.91-15.88-8.7l-30.15-103.27,30.99-9.05,30.15,103.27c1.98,6.79-1.91,13.9-8.7,15.88Z"/>
        <path class="cls-11" d="M448.87,294.63s.2-.08.6-.23c.2-.08.45-.15.74-.28.28-.14.61-.29.99-.47.36-.2.76-.44,1.19-.71.4-.32.88-.61,1.31-1.04.91-.79,1.85-1.86,2.62-3.23.77-1.37,1.4-3.04,1.6-4.95.07-.95.11-1.96-.05-2.99-.11-1.04-.44-2.07-.75-3.16-1.28-4.34-2.73-9.29-4.35-14.78-6.44-21.99-15.41-52.62-25.54-87.24l.25.14c-5.99,1.75-12.29,3.59-18.7,5.46-4.21,1.23-8.38,2.45-12.3,3.59l.14-.25c10.54,36.19,19.93,68.44,26.69,91.65.84,2.9,1.64,5.66,2.4,8.27.39,1.3.73,2.58,1.12,3.79.37,1.22.97,2.3,1.62,3.28.66.99,1.48,1.8,2.3,2.53.87.67,1.74,1.29,2.67,1.7,1.83.89,3.69,1.24,5.36,1.25.42-.02.82-.01,1.21-.05.39-.05.77-.1,1.13-.15.72-.16,1.39-.31,2.01-.51,1.24-.35,2.28-.65,3.13-.89.84-.24,1.48-.42,1.93-.54.43-.12.66-.17.66-.17,0,0-.22.08-.65.21-.44.13-1.08.33-1.91.58-.85.25-1.89.56-3.12.93-.61.2-1.29.36-2.02.53-.37.05-.75.1-1.15.16-.4.04-.81.04-1.23.06-1.68,0-3.58-.34-5.44-1.23-.95-.41-1.84-1.03-2.72-1.71-.84-.74-1.68-1.55-2.35-2.56-.67-1-1.29-2.1-1.67-3.33-.41-1.22-.75-2.49-1.14-3.79-.77-2.61-1.58-5.36-2.43-8.26-6.79-23.2-16.23-55.44-26.82-91.61l-.06-.2.2-.06c3.91-1.14,8.08-2.36,12.3-3.59,6.4-1.87,12.71-3.71,18.7-5.46l.2-.06.06.2c10.09,34.64,19.01,65.28,25.41,87.28,1.59,5.5,3.03,10.45,4.29,14.8.3,1.08.64,2.14.75,3.19.16,1.05.12,2.07.03,3.04-.21,1.94-.86,3.63-1.66,5.01-.79,1.38-1.75,2.45-2.67,3.24-.44.43-.93.72-1.33,1.03-.44.27-.84.5-1.21.7-.38.17-.71.32-1,.45-.29.12-.55.19-.75.26-.4.13-.61.19-.61.19Z"/>
      </g>
      <path class="cls-22" d="M447.19,291.1l-5.21,1.52c-5.52,1.61-11.3-1.56-12.91-7.07l-30.53-104.57,25.19-7.36,30.53,104.57c1.61,5.52-1.56,11.29-7.07,12.91Z"/>
      <path class="cls-4" d="M421.96,225.56h26.24v57.16c0,5.74-4.66,10.41-10.41,10.41h-5.43c-5.74,0-10.41-4.66-10.41-10.41v-57.16h0Z" transform="translate(-55.25 132.34) rotate(-16.28)"/>
      <g>
        <path class="cls-8" d="M430.22,181.42l-32.96,9.62c-2.88.84-5.89-.81-6.73-3.69h0c-.84-2.88.81-5.89,3.69-6.73l32.96-9.62c2.88-.84,5.89.81,6.73,3.69h0c.84,2.88-.81,5.89-3.69,6.73Z"/>
        <path class="cls-11" d="M430.22,181.42s.35-.11.95-.43c.59-.32,1.45-.92,2.1-2.03.65-1.08,1.06-2.75.44-4.48-.29-.86-.84-1.69-1.63-2.34-.79-.64-1.82-1.11-2.95-1.19-1.14-.14-2.28.33-3.5.67-1.22.36-2.48.73-3.79,1.12-2.62.77-5.42,1.6-8.37,2.46-5.9,1.73-12.38,3.63-19.19,5.62-.82.24-1.57.69-2.18,1.27-.6.59-1.05,1.32-1.32,2.11-.52,1.58-.24,3.38.72,4.67.93,1.32,2.48,2.12,4.03,2.18.79.05,1.52-.13,2.28-.38.76-.22,1.5-.44,2.24-.65,5.9-1.71,11.21-3.24,15.69-4.53,4.45-1.27,8.06-2.3,10.59-3.02,1.23-.34,2.2-.61,2.88-.8.31-.08.56-.15.75-.2.17-.04.26-.06.26-.05,0,0-.08.04-.25.09-.19.06-.43.14-.74.24-.68.21-1.64.5-2.86.88-2.52.75-6.11,1.82-10.55,3.15-4.47,1.32-9.77,2.88-15.66,4.62-.74.22-1.48.44-2.24.66-.73.24-1.57.45-2.4.4-1.67-.06-3.33-.91-4.34-2.34-1.03-1.4-1.34-3.33-.78-5.04.29-.85.77-1.64,1.42-2.27.66-.63,1.47-1.11,2.35-1.37,6.81-1.98,13.29-3.87,19.2-5.59,2.95-.85,5.75-1.67,8.38-2.43,1.31-.38,2.58-.74,3.8-1.1.61-.17,1.2-.36,1.8-.51.6-.16,1.22-.2,1.82-.14,1.19.1,2.27.59,3.09,1.28.82.7,1.39,1.57,1.68,2.47.63,1.81.16,3.54-.52,4.64-.7,1.13-1.59,1.72-2.2,2.02-.31.15-.56.24-.73.28-.17.05-.26.07-.26.07Z"/>
      </g>
      <g class="cls-6">
        <rect class="cls-8" x="427.33" y="183.2" width="9.43" height="96.75" transform="translate(-47.59 130.37) rotate(-16.28)"/>
      </g>
      <g class="cls-16">
        <path d="M427.86,254.66c0,.82-.67,1.49-1.49,1.49s-1.49-.67-1.49-1.49.67-1.49,1.49-1.49,1.49.67,1.49,1.49Z"/>
      </g>
      <g class="cls-16">
        <circle cx="430.56" cy="271.34" r="1.49"/>
      </g>
      <g class="cls-16">
        <circle cx="431.28" cy="261.23" r=".9"/>
      </g>
      <g class="cls-16">
        <path d="M436.37,273.32c-.27.41-.82.53-1.24.26s-.53-.82-.26-1.24c.27-.41.82-.53,1.24-.26.41.27.53.82.26,1.24Z"/>
      </g>
      <g class="cls-16">
        <path d="M434.12,275.99c.11.52-.22,1.02-.74,1.13-.52.11-1.02-.22-1.13-.74s.22-1.02.74-1.13c.52-.11,1.02.22,1.13.74Z"/>
      </g>
    </g>
    <g>
      <g>
        <g>
          <g>
            <g>
              <path class="cls-10" d="M474.78,398.44l.11,16.76-31.06.12c.23-3.4,15.68-10.36,15.68-10.36l-.42-6.42,15.69-.11Z"/>
              <path class="cls-8" d="M469.24,403.38c.66.19,1.12.97.96,1.67-.16.7-.92,1.18-1.58,1-.67-.18-1.24-1.1-1-1.77.23-.67,1.16-1.19,1.76-.85"/>
              <path class="cls-11" d="M474.89,415.2l-.02-2.68-29.5.66s-1.71,1.02-1.55,2.14l31.06-.12Z"/>
              <path class="cls-11" d="M456.21,406.59c-.04.17.68.47,1.25,1.21.58.72.72,1.52.89,1.51.16.03.28-.99-.44-1.9-.71-.91-1.69-.99-1.7-.83Z"/>
              <path class="cls-11" d="M453.9,411.2c.15.04.39-.83-.03-1.78-.42-.96-1.2-1.34-1.28-1.2-.1.14.41.66.74,1.45.35.78.4,1.52.56,1.53Z"/>
              <path class="cls-11" d="M459.2,400.51c.07.16.84-.07,1.79,0,.95.05,1.68.39,1.77.24.1-.12-.62-.77-1.73-.85-1.11-.08-1.91.47-1.82.6Z"/>
            </g>
            <path class="cls-11" d="M458.45,406.02s-.03-.37.17-1.01c.2-.63.63-1.53,1.51-2.35.44-.4.98-.78,1.64-1.03.32-.12.79-.22,1.18.08.36.29.48.79.4,1.23-.45,1.67-2.05,2.91-3.87,3.1-1.86.17-3.5-1-4.21-2.42-.17-.36-.33-.72-.36-1.15,0-.21.02-.45.15-.65.13-.2.35-.34.57-.36.44-.04.75.17,1.02.35.26.21.47.41.67.63.8.85,1.23,1.72,1.46,2.32.23.61.28.98.25.98-.09.06-.38-1.45-1.96-3.05-.39-.36-.89-.87-1.4-.82-.23.03-.37.25-.34.56.02.3.17.64.33.96.65,1.26,2.14,2.29,3.77,2.14,1.61-.13,3.09-1.34,3.46-2.67.07-.31-.03-.64-.22-.8-.19-.16-.49-.14-.78-.04-.6.21-1.12.55-1.54.91-.85.73-1.31,1.56-1.56,2.15-.24.59-.31.95-.35.95Z"/>
          </g>
          <path class="cls-3" d="M491.84,283.28l-2.82-3.77-34.46.95,4.95,61.32,3.07,59.11,17.88.62c.91-11.41,3.35-56.54,3.35-56.54h0l3.07-23.84c.34-1.51,1.61-9.03,2.91-15.05.75-3.46,3.57-12.47,2.07-22.79Z"/>
          <g>
            <g>
              <path class="cls-10" d="M475.87,393.99l4.43,17.04-31.6,8.12c-.64-3.52,13.3-14.59,13.3-14.59l-2.08-6.43,15.95-4.14Z"/>
              <path class="cls-8" d="M472.91,400.45c.72.03,1.39.7,1.4,1.45.02.75-.63,1.44-1.36,1.42-.72-.01-1.54-.8-1.48-1.55.06-.74.87-1.51,1.57-1.32"/>
              <path class="cls-11" d="M480.3,411.04l-.71-2.72-29.87,8.26s-1.48,1.48-1.02,2.58l31.6-8.12Z"/>
              <path class="cls-11" d="M459.06,407.07c0,.18.82.3,1.58.91.78.59,1.13,1.36,1.29,1.31.17-.01.03-1.08-.93-1.82-.96-.75-1.98-.58-1.94-.41Z"/>
              <path class="cls-11" d="M457.89,412.36c.16,0,.19-.94-.49-1.81-.67-.87-1.57-1.06-1.61-.89-.06.17.59.56,1.13,1.28.56.71.79,1.44.97,1.42Z"/>
              <path class="cls-11" d="M460.54,400.11c.11.14.84-.29,1.82-.46.98-.19,1.81-.03,1.87-.21.07-.15-.83-.63-1.98-.42-1.16.21-1.82.97-1.7,1.09Z"/>
            </g>
            <path class="cls-11" d="M461.2,405.92s-.12-.37-.09-1.07c.05-.69.25-1.73.93-2.78.34-.52.8-1.05,1.4-1.48.29-.2.75-.43,1.22-.22.44.2.7.68.72,1.15-.03,1.81-1.34,3.5-3.15,4.15-1.85.65-3.82-.11-4.91-1.38-.27-.32-.52-.65-.66-1.08-.06-.21-.1-.46-.01-.7.08-.24.27-.43.49-.51.44-.15.81-.03,1.13.1.32.15.59.3.85.46,1.03.66,1.7,1.43,2.09,1.99.39.56.53.92.51.94-.08.08-.76-1.38-2.78-2.6-.49-.27-1.13-.65-1.64-.47-.22.09-.31.35-.2.66.1.3.33.61.58.89.99,1.12,2.77,1.79,4.39,1.2,1.6-.55,2.8-2.16,2.84-3.61-.01-.34-.19-.64-.43-.76-.23-.12-.54-.01-.81.16-.55.37-1,.85-1.34,1.32-.68.96-.93,1.93-1.03,2.59-.09.67-.07,1.05-.11,1.05Z"/>
          </g>
          <path class="cls-3" d="M454.04,283.28s-15.06,58.32-15.48,63.82c-.42,5.5,20.49,55.34,20.49,55.34l19.21-4.69-1.81-6.24-13.65-47.1s16.59-49.69,16.41-50.21c-.48-1.37-4.64-3.8-4.64-3.8l-20.53-7.12Z"/>
        </g>
        <path class="cls-10" d="M459.05,402.44s.12-.05.35-.11c.26-.07.6-.16,1.03-.28.93-.24,2.25-.58,3.9-1,3.39-.85,8.18-2.04,13.89-3.46l-.12.21c-1.41-5.05-3.04-10.93-4.78-17.19-2.75-10.01-5.23-19.06-7.04-25.65-.88-3.26-1.59-5.92-2.09-7.78-.23-.9-.42-1.61-.55-2.12-.05-.23-.1-.41-.13-.55-.03-.13-.04-.19-.03-.19,0,0,.03.06.07.18.05.14.1.32.17.54.15.51.36,1.21.62,2.1.53,1.86,1.28,4.5,2.21,7.75,1.84,6.58,4.36,15.63,7.15,25.62,1.72,6.26,3.34,12.14,4.74,17.2l.05.17-.17.04c-5.72,1.37-10.52,2.52-13.92,3.33-1.67.39-2.99.69-3.92.91-.43.09-.78.17-1.04.23-.24.05-.36.07-.36.06Z"/>
      </g>
      <g>
        <path class="cls-11" d="M449.45,198.17c.08-1.79-.58-3.51-1.15-5.21-.56-1.7-1.03-3.53-.55-5.26.6-2.17,2.55-3.67,3.6-5.66,1.05-2,1.13-4.35,1.31-6.6.19-2.25.57-4.64,2.06-6.33,1.89-2.15,6.83-2.53,9.16-.88.36,12.8,3.39,25.76.65,38.27-6.24.27-12.55-1.24-18-4.3,1.75-.36,2.83-2.25,2.92-4.04Z"/>
        <path class="cls-7" d="M476.73,210.55l1.76-35.34c.07-1.42-.96-2.66-2.37-2.85l-14.43-4.09c-4.64-.62-7.9,5.02-8.32,9.68-.47,5.18-.85,11.52-.34,15.41,1.02,7.82,6.95,8.98,6.95,8.98,0,7.7-.16,8.27-.16,8.27l2.94,6.06,13.97-6.13Z"/>
        <path class="cls-11" d="M455.11,184.42c-.03.53.38.99.93,1.03.55.05,1.02-.34,1.05-.87.03-.53-.38-.99-.93-1.04-.55-.05-1.02.34-1.06.87Z"/>
        <path class="cls-11" d="M454.66,181.29c.12.13.89-.4,1.97-.37,1.07.02,1.85.59,1.97.46.06-.06-.06-.3-.4-.56-.33-.26-.9-.52-1.57-.53-.67-.02-1.24.22-1.57.46-.34.24-.46.48-.4.54Z"/>
        <path class="cls-11" d="M464.22,184.72c-.03.53.38.99.93,1.03.55.04,1.02-.34,1.05-.87.03-.53-.38-.99-.93-1.04-.55-.05-1.02.34-1.06.87Z"/>
        <path class="cls-11" d="M465.21,181.79c.12.13.89-.4,1.97-.37,1.07.02,1.85.59,1.97.46.06-.06-.06-.3-.4-.55-.33-.26-.9-.52-1.57-.53-.67-.02-1.24.22-1.57.46-.34.24-.46.48-.4.54Z"/>
        <path class="cls-11" d="M461.09,189.65c0-.06-.66-.2-1.74-.36-.27-.04-.53-.1-.57-.29-.06-.2.06-.49.21-.81.28-.66.57-1.35.87-2.07,1.21-2.94,2.1-5.37,1.98-5.41-.12-.05-1.2,2.3-2.41,5.24-.29.73-.57,1.42-.84,2.08-.11.31-.3.66-.17,1.07.07.21.27.36.44.41.17.06.33.07.46.08,1.09.09,1.76.11,1.77.05Z"/>
        <path class="cls-13" d="M459.98,202.35s5.23.49,10.51-2.49c0,0-2.77,5.48-10.55,4.53l.04-2.04Z"/>
        <path class="cls-13" d="M461.17,192.21c.54-.72,1.4-1.15,2.21-1.09.56.04,1.1.31,1.39.81.29.5.29,1.23-.08,1.74-.41.57-1.16.74-1.76.58-.6-.16-1.09-.59-1.55-1.02-.13-.12-.26-.24-.33-.41-.07-.17-.07-.39.06-.54"/>
        <path class="cls-11" d="M464.23,190.48c-.17-.01-.21,1.15-1.23,1.95-1.02.8-2.26.64-2.27.8-.02.07.27.23.79.26.51.03,1.27-.11,1.9-.6.62-.49.9-1.16.96-1.64.06-.49-.06-.78-.14-.77Z"/>
        <path class="cls-22" d="M464.86,177.36c.1.3,1.17.19,2.43.37,1.26.16,2.27.56,2.44.3.08-.12-.09-.4-.49-.7-.4-.29-1.04-.58-1.8-.69-.75-.1-1.45,0-1.92.17-.47.17-.71.4-.67.54Z"/>
        <path class="cls-11" d="M455.14,177.6c.18.25.93.02,1.82.03.89-.02,1.64.21,1.82-.04.08-.12-.03-.37-.36-.61-.32-.24-.86-.44-1.47-.44-.61,0-1.15.21-1.46.45-.32.24-.43.49-.35.61Z"/>
        <path class="cls-11" d="M459.98,168.22c1.34-3.2,4.23-3.88,7.33-4.21,3.1-.33,7.7.95,10.26,2.63,2,1.31,4.25,2.96,5.68,4.81,1.38,1.77,1.99,3.8,2.84,5.85,1.33,3.19,1.24,6.71,1.43,10.12.23,4.29.92,8.56,2.05,12.72.4,1.49.82,3.28-1.29,4.14-.39.16-.81.25-1.23.3-3.28.4-6.45,1.46-10.1,1.69h-2.25c-2.85,0-4.31-1.84-4.21-4.17.29-7.03,3.72-18.58,4.1-20.8,0,0,1.18-15.17-14.62-13.09Z"/>
        <path class="cls-11" d="M461.01,168.14c1.01.71,1.47,1.99,1.64,3.21.17,1.23.09,2.48.32,3.7.46,2.43,2.18,4.59,4.46,5.57.72.31,1.72.44,2.17-.21-.09,1.72,1.01,3.43,2.6,4.07,1.15.46,2.45.39,3.66.66,1.21.27,2.49,1.11,2.55,2.35l.51-8.64-2.43-7.64-7.47-4.45-8.01,1.38Z"/>
        <path class="cls-8" d="M474.25,182.39s-.29-.16-.71-.58c-.41-.42-.88-1.16-1.18-2.18-.3-1.02-.42-2.28-.52-3.68-.1-1.4-.17-2.96-.53-4.55-.36-1.59-1.05-3.05-2.04-4.08-.49-.51-1.05-.92-1.63-1.17-.58-.26-1.16-.39-1.7-.42-1.08-.07-1.94.25-2.44.58-.13.07-.23.16-.32.23-.09.07-.16.14-.21.2-.11.11-.16.18-.16.18.02.02.22-.25.73-.56.5-.31,1.34-.6,2.4-.52,1.04.07,2.29.54,3.24,1.58.96,1.01,1.63,2.45,1.99,4.02.36,1.58.42,3.13.54,4.53.11,1.4.24,2.68.56,3.7.31,1.03.8,1.77,1.24,2.19.44.41.75.54.75.54Z"/>
        <path class="cls-10" d="M480.74,181.35s-.44,0-1.14-.28c-.7-.29-1.6-.98-2.38-2.1-.39-.56-.78-1.2-1.1-1.93-.32-.73-.5-1.57-.61-2.46-.11-.89-.15-1.84-.25-2.82-.06-.49-.12-.99-.24-1.49-.12-.5-.28-1-.49-1.48-.88-1.92-2.49-3.34-4.18-4.02-1.7-.71-3.43-.66-4.75-.32-1.34.33-2.31.94-2.91,1.41-.6.48-.87.81-.87.81,0,0,.02-.02.06-.05.04-.04.1-.09.17-.16.07-.07.16-.16.28-.25.11-.09.24-.21.4-.31.61-.45,1.57-1.04,2.9-1.35,1.31-.32,3.01-.35,4.67.35,1.65.68,3.23,2.07,4.09,3.96.21.47.37.96.48,1.45.11.49.18.99.24,1.47.1.97.15,1.92.26,2.82.11.9.3,1.75.63,2.5.33.74.72,1.38,1.12,1.94.8,1.12,1.73,1.81,2.45,2.09.36.14.66.2.86.22.09,0,.17.01.23.02.05,0,.08,0,.08,0Z"/>
        <path class="cls-10" d="M469.59,180.42s0,.02,0,.07c0,.06.01.13.02.21.01.09.02.21.04.35.03.14.06.3.1.47.1.35.23.78.5,1.24.26.45.64.93,1.18,1.33,1.07.81,2.71,1.19,4.48,1.11.89-.04,1.83-.18,2.78-.43.95-.25,1.92-.6,2.83-1.14l.18-.1-.2-.03c-1.09-.16-2.2-.49-3.25-1.01l-.06-.03-.05.14c2.45.4,4.88-.14,6.73-1.21l.13-.08-.15-.05c-1.56-.5-2.94-1.18-4-2.02-1.06-.84-1.75-1.85-2.08-2.77-.34-.93-.33-1.73-.34-2.26.02-.26.04-.46.05-.61,0-.06,0-.12,0-.16,0-.04,0-.05,0-.05,0,0,0,.02-.01.05,0,.04-.01.09-.02.16-.02.15-.04.35-.07.61,0,.53-.03,1.34.31,2.29.33.94,1.02,1.98,2.09,2.83,1.07.86,2.46,1.55,4.02,2.06v-.12c-1.85,1.04-4.24,1.58-6.65,1.18l-.5-.08.46.22.06.03c1.07.53,2.19.86,3.3,1.02l-.03-.13c-.89.53-1.86.88-2.79,1.13-.94.25-1.87.39-2.75.44-1.76.09-3.37-.27-4.42-1.06-.53-.38-.91-.84-1.17-1.29-.27-.44-.4-.87-.51-1.21-.04-.17-.08-.33-.11-.47-.03-.14-.04-.25-.06-.35-.01-.09-.03-.16-.03-.21,0-.05-.01-.07-.02-.07Z"/>
        <path class="cls-10" d="M485.58,201.7s-.43-4.17-1.06-9.29c-.62-5.13-1.16-9.28-1.2-9.28-.04,0,.43,4.17,1.06,9.3.62,5.13,1.16,9.28,1.2,9.28Z"/>
      </g>
      <g>
        <path class="cls-22" d="M489.24,217.8c2.24,2.03,3.73,4.74,4.25,7.71,1.54,8.87,4.75,27.69,4.56,29.72-.24,2.67-1.58,6.93-4.62,7.66-3.04.73-5.83,0-5.83,0l-2.12-48.49,3.76,3.4Z"/>
        <path class="cls-22" d="M489.4,267.14l-.04-47.59s-.68-1.95-3.47-4.8c-1.28-1.31-7.36-5.54-7.36-5.54l-.51-3.15c-1.95-1.51-5.43-2.48-7.9-2.45-8.01.1-12.87,3.69-12.87,3.69l-.79,3.1-3.67,1.71-6.59,25.41-2.24,35.38-6.58,72.17,57.6,1.67-.78-50.28c-.17-4.71-.73-9.4-1.67-14.01l-3.12-15.32Z"/>
        <path class="cls-11" d="M456.46,210.41s.08,0,.22-.05c.16-.04.37-.1.63-.17.55-.14,1.34-.33,2.33-.52,1.98-.39,4.74-.76,7.8-.96,3.07-.19,5.86-.17,7.86.02,1,.09,1.81.21,2.36.31.26.05.47.09.64.13.15.03.22.04.23.03,0,0-.07-.03-.22-.07-.16-.04-.37-.09-.63-.16-.55-.12-1.36-.27-2.36-.37-2.01-.23-4.81-.27-7.89-.08-3.07.21-5.84.6-7.82,1.02-.99.2-1.78.41-2.32.58-.25.08-.46.15-.62.2-.14.05-.21.08-.21.08Z"/>
        <path class="cls-11" d="M489.35,221.72c.1,0,.14,9.98.09,22.28-.05,12.31-.17,22.28-.27,22.28-.1,0-.14-9.97-.09-22.28.05-12.3.17-22.28.27-22.28Z"/>
        <path class="cls-11" d="M449.47,345.08s0-.09,0-.28c0-.2,0-.47.02-.81.02-.74.06-1.78.1-3.13.1-2.73.25-6.66.43-11.49.4-9.72.94-23.12,1.54-37.91.64-14.8,1.23-28.2,1.65-37.91.23-4.84.41-8.76.54-11.49.07-1.34.13-2.39.17-3.12.02-.34.04-.61.05-.81.01-.18.02-.28.03-.28,0,0,0,.09,0,.28,0,.2,0,.47-.02.81-.02.73-.06,1.78-.1,3.13-.1,2.73-.25,6.66-.43,11.49-.4,9.72-.94,23.12-1.54,37.92-.64,14.8-1.23,28.19-1.65,37.91-.23,4.84-.41,8.76-.54,11.49-.07,1.34-.13,2.39-.17,3.12-.02.34-.04.61-.05.81-.01.18-.02.28-.03.28Z"/>
        <path class="cls-11" d="M489.17,266.27s-.32.1-.91.22c-.59.12-1.46.27-2.53.43-2.14.31-5.12.6-8.43.61-3.31,0-6.29-.29-8.43-.6-1.07-.16-1.93-.31-2.52-.43-.59-.12-.92-.2-.91-.23,0-.02.34,0,.94.09.6.08,1.46.19,2.53.32,2.14.25,5.11.49,8.4.49,3.29,0,6.26-.25,8.4-.5,1.02-.12,1.87-.23,2.54-.31.6-.08.93-.11.94-.08Z"/>
        <path class="cls-11" d="M478.52,209.22s.06.02.16.07c.12.06.27.14.45.23.39.21.96.54,1.66,1,1.42.92,3.4,2.35,5.69,4.32,1.14.99,2.36,2.1,3.56,3.42.6.65,1.19,1.37,1.68,2.21.26.41.4.88.59,1.33.15.46.31.93.45,1.41,1.1,3.84,1.96,8.14,2.79,12.66.81,4.53,1.49,8.85,2,12.81.25,1.98.46,3.86.61,5.63.13,1.77.06,3.48-.55,4.91-.58,1.43-1.65,2.45-2.71,3.02-1.07.58-2.1.81-2.94.94-.84.13-1.5.12-1.94.1-.22,0-.39-.02-.5-.04-.11-.01-.17-.03-.17-.03,0-.01.23,0,.68,0,.44,0,1.1-.02,1.92-.17.82-.15,1.83-.39,2.86-.97,1.02-.58,2.03-1.56,2.58-2.95.57-1.38.63-3.04.49-4.79-.16-1.76-.39-3.64-.64-5.61-.52-3.94-1.21-8.27-2.02-12.79-.84-4.51-1.68-8.81-2.76-12.63-.14-.48-.3-.94-.44-1.4-.19-.44-.32-.9-.56-1.29-.46-.79-1.03-1.51-1.62-2.16-1.17-1.31-2.38-2.44-3.51-3.43-2.26-1.98-4.21-3.44-5.6-4.39-.69-.48-1.24-.83-1.62-1.06-.17-.11-.31-.19-.43-.26-.1-.06-.14-.1-.14-.1Z"/>
        <path class="cls-22" d="M449.47,280.13h-9.05s-4.19,26,.35,27.7c4.55,1.7,6.43-2.26,6.43-2.26l2.26-25.44Z"/>
        <path class="cls-11" d="M449.47,280.13s0,.15-.02.47c-.03.34-.06.81-.1,1.4-.1,1.26-.24,3.05-.42,5.28-.38,4.56-.92,10.94-1.54,18.31v.03s-.02.03-.02.03c-.37.71-.9,1.32-1.55,1.82-.65.49-1.45.83-2.28.92-.84.1-1.7,0-2.51-.29-.2-.06-.42-.12-.62-.25-.2-.12-.36-.29-.51-.46-.28-.35-.47-.76-.62-1.16-.44-1.27-.6-2.57-.7-3.84-.09-1.27-.12-2.53-.1-3.76.03-2.46.19-4.81.38-7.03.4-4.44.93-8.34,1.44-11.48l.02-.1h.1c2.83.03,5.09.05,6.69.07.75.01,1.34.02,1.77.03.18,0,.33,0,.45.01.1,0,.15,0,.14.01,0,0-.06,0-.17.01-.13,0-.28,0-.47.01-.44,0-1.04.02-1.8.03-1.58.02-3.82.04-6.61.07l.12-.1c-.47,3.14-.97,7.04-1.35,11.47-.18,2.21-.33,4.56-.36,7-.01,1.22.01,2.47.11,3.73.1,1.25.26,2.54.68,3.74.28.77.71,1.51,1.52,1.66.77.27,1.58.37,2.35.28,1.57-.16,2.88-1.26,3.56-2.54l-.02.06c.68-7.31,1.28-13.64,1.7-18.17.22-2.24.4-4.04.52-5.31.06-.6.11-1.08.15-1.43.04-.33.06-.5.07-.51Z"/>
      </g>
      <g>
        <path class="cls-7" d="M423.8,238.64l-.99-.82s-1.15-3.27-1.46-3.9c-.31-.63-2.63-4.02-3.45-5.12-.82-1.1-4.2-5.04-5.22-4.25-1.15.89.15,2.66.89,3.55.74.89,2.13,3,1.28,3.39-.85.39-6.18-2.58-6.18-2.58l-1.41-.6s-1.07-.14-1.43,1.03c-.36,1.17.76,2.37.76,2.37h0s-.75.44-.65,1.27c.1.83.5,2.05.5,2.05,0,0,.02,1.82,1.88,3.39.22.18,9.79,5.66,9.79,5.66l3.16,2.6,2.53-8.04Z"/>
        <g>
          <path class="cls-22" d="M452.7,212.02s-1.63,1.24-2.2,1.83c-.97.98-4.11,6.6-5.6,12.31-1.42,5.45-4,16.55-4,16.55,0,0-1.94-.51-2.36,1.95l-15.97-8.22s-7.09,4.15-4.78,10.95c0,0,10.92,8.43,14.92,10.59,0,0,14.77,7.97,19.33,2.25,4.17-5.23,6.75-13.26,7.94-16.41l4.51-17.23s2.7-9.4-2.75-13.15c-5.45-3.76-9.03-1.41-9.03-1.41Z"/>
          <path class="cls-11" d="M442.86,250.86c-.06.07-1.43-1.03-2.65-2.81-1.23-1.77-1.78-3.45-1.69-3.48.1-.04.79,1.54,1.99,3.27,1.19,1.74,2.43,2.94,2.35,3.02Z"/>
          <path class="cls-11" d="M445.45,249.32c-.06.07-1.43-1.03-2.65-2.81-1.23-1.77-1.78-3.45-1.69-3.48.1-.04.79,1.54,1.99,3.27,1.19,1.74,2.43,2.94,2.35,3.02Z"/>
        </g>
        <g>
          <path class="cls-11" d="M461.88,236.41s-.03.11-.1.32c-.08.23-.18.53-.31.93-.28.84-.68,2.04-1.19,3.58-1.06,3.1-2.54,7.61-4.94,12.98-.61,1.34-1.29,2.72-2.12,4.1-.41.7-.88,1.37-1.41,2.03-.55.66-1.3,1.16-2.13,1.48-1.67.62-3.54.58-5.36.33-1.84-.27-3.68-.79-5.51-1.43-1.84-.66-3.67-1.44-5.5-2.35-1.84-.91-3.55-2.13-5.28-3.34-3.45-2.45-6.94-5.1-10.49-7.87l-.05-.04v-.05c-.09-.3-.17-.63-.26-.96-.08-.25-.1-.51-.13-.77l-.08-.78c.04-.52,0-1.04.13-1.55.15-1.03.57-1.99,1.07-2.87.51-.88,1.15-1.67,1.87-2.37.72-.7,1.48-1.32,2.33-1.84l.09-.05.09.05c5.65,2.98,10.99,5.79,15.89,8.38l-.25.12c.11-.6.35-1.21.82-1.65.49-.43,1.16-.55,1.77-.41l-.2.12c2.22-9.48,4.11-17.4,6.37-22.64,1.09-2.63,2.26-4.56,3.25-5.72.49-.58.94-.97,1.24-1.22.14-.12.26-.21.34-.28.08-.06.12-.09.12-.09,0,0-.14.15-.43.41-.29.26-.72.66-1.2,1.25-.96,1.17-2.09,3.1-3.15,5.73-2.2,5.23-4.04,13.16-6.22,22.64l-.04.16-.17-.04c-.49-.11-1.07,0-1.46.35-.39.36-.61.89-.71,1.45l-.04.23-.21-.11c-4.91-2.57-10.26-5.38-15.91-8.34h.18c-.8.49-1.56,1.1-2.25,1.78-.69.68-1.32,1.44-1.8,2.29-.49.84-.88,1.76-1.03,2.74-.13.48-.09.98-.13,1.47l.07.74c.02.25.04.5.12.74.08.32.16.63.23.92l-.06-.09c3.54,2.76,7.03,5.41,10.47,7.86,1.73,1.21,3.42,2.42,5.23,3.32,1.81.91,3.64,1.7,5.46,2.35,1.82.65,3.64,1.16,5.45,1.43,1.79.25,3.61.29,5.2-.3.79-.3,1.49-.77,2.01-1.38.51-.64.98-1.3,1.39-1.99.83-1.36,1.51-2.73,2.13-4.06,2.42-5.33,3.94-9.83,5.05-12.91.54-1.53.96-2.73,1.26-3.56.15-.41.26-.71.35-.92.08-.21.13-.31.13-.31Z"/>
          <path class="cls-11" d="M463.65,227.95c-.07-.03.57-1.16,1.09-3.14.51-1.96.82-4.92-.35-7.83-.59-1.43-1.5-2.64-2.49-3.54-1-.9-2.07-1.51-3.02-1.86-1.93-.71-3.26-.46-3.25-.56,0-.01.08-.03.23-.05.15-.01.38-.06.67-.05.58-.02,1.44.08,2.43.41,1,.32,2.12.93,3.16,1.85,1.04.92,1.99,2.16,2.61,3.65.59,1.49.82,3.03.8,4.41-.01,1.39-.25,2.62-.54,3.62-.29,1-.62,1.78-.88,2.3-.26.52-.43.79-.45.78Z"/>
        </g>
      </g>
    </g>
  </g>
  <g>
    <g>
      <g>
        <g>
          <path class="cls-11" d="M65.62,390.61l-.61,14.96s15.34,5.64,15.5,8.42l-29.7-.14-.03-23.34,14.83.11Z"/>
          <path class="cls-22" d="M55.84,404.26c-.58.15-.97.78-.84,1.35.13.57.78.97,1.36.83.58-.14,1.08-.88.89-1.43-.2-.55-.99-.98-1.51-.71"/>
          <path class="cls-10" d="M50.82,413.84l.09-2.35,28.44,1.02s1.32.57,1.17,1.48l-29.7-.14Z"/>
          <path class="cls-8" d="M65.5,405.42c0,.14-.73.2-1.45.66-.73.43-1.1,1.05-1.23.99-.13-.03.09-.87.96-1.41.87-.54,1.75-.37,1.71-.24Z"/>
          <path class="cls-8" d="M68.61,406.69c.03.14-.6.38-1.09.97-.51.58-.64,1.23-.78,1.22-.14.02-.23-.81.4-1.54.62-.74,1.48-.79,1.48-.66Z"/>
          <path class="cls-8" d="M70.36,410.35c-.13.03-.33-.68.04-1.45.37-.78,1.05-1.08,1.12-.96.08.12-.36.53-.66,1.17-.31.63-.36,1.23-.5,1.24Z"/>
          <path class="cls-8" d="M65.25,401.99c-.06.13-.73-.07-1.55-.02-.82.03-1.46.3-1.53.18-.08-.1.54-.62,1.51-.67.97-.05,1.64.4,1.57.51Z"/>
        </g>
        <g>
          <path class="cls-11" d="M30.5,391.46l-1.61,18.04,2.94,14.63c.21,1.05-.53,2.06-1.62,2.2h0c-.61.08-1.22-.14-1.63-.58-2.65-2.82-12.33-13.25-12.14-14.56.22-1.52.4-19.14.4-19.14l13.66-.58Z"/>
          <path class="cls-10" d="M30.21,426.33l-13.69-16.36-.05.77c-.04.66.15,1.32.56,1.85,1.09,1.42,4.17,5.28,11.49,13.16.43.46,1.06.68,1.69.58h0Z"/>
          <g class="cls-1">
            <path class="cls-8" d="M20.69,404.37c.44.34.55,1.04.22,1.48-.33.45-1.05.56-1.5.22-.45-.33-.6-1.16-.22-1.57.38-.41,1.23-.49,1.59-.06"/>
          </g>
          <path class="cls-8" d="M26.5,418.16c.1.06.58-.86,1.71-1.3,1.12-.47,2.12-.15,2.15-.26.02-.04-.21-.2-.63-.29-.42-.09-1.05-.07-1.68.18-.62.25-1.08.67-1.32,1.03-.24.36-.29.62-.24.64Z"/>
          <path class="cls-8" d="M27.66,420.67c.08.08.71-.47,1.69-.67.97-.23,1.78,0,1.82-.11.06-.09-.8-.53-1.91-.27-1.11.24-1.69,1.01-1.6,1.06Z"/>
          <path class="cls-8" d="M24.25,414.91c.08.09,1.05-.76,2.53-1.21,1.48-.48,2.77-.33,2.78-.45.04-.09-1.32-.43-2.91.07-1.59.49-2.49,1.54-2.41,1.59Z"/>
          <path class="cls-8" d="M24.27,409.39c.04.11,1.09-.24,2.42-.21,1.33.02,2.36.41,2.41.3.06-.09-.97-.68-2.4-.7-1.43-.04-2.48.52-2.43.6Z"/>
          <path class="cls-8" d="M24.61,404.08c.05.11,1.12-.43,2.52-.28,1.4.12,2.34.85,2.41.76.03-.04-.15-.28-.56-.54-.41-.27-1.05-.53-1.81-.61-.75-.07-1.44.07-1.89.25-.46.18-.69.38-.66.42Z"/>
        </g>
        <path class="cls-3" d="M81.4,273.8s.76,8.69-.09,18.58c-.33,3.82-13.16,109.07-13.16,109.07h-19.46l5.47-99.46-1.59.31s-10.62,42.42-11.49,49.29c-.78,6.17-9.74,51.02-9.74,51.02l-17.8.18,5.68-59.32,6.61-56.92,2.49-16.57,53.08,3.82Z"/>
      </g>
      <polygon class="cls-17" points="69.74 282.5 33.52 282.59 38.75 198.05 46.27 194.7 65.27 194.39 71.28 231.09 69.74 282.5"/>
      <g>
        <g>
          <path class="cls-22" d="M26.5,200.08s12.42-4.39,15.06-5.16h0l4.71-4.65,2.38,61.69-26.04,4.73,2.14-41.89,1.74-14.73Z"/>
          <polygon class="cls-22" points="48.66 251.16 43.39 337.6 16.83 337.05 26.37 253.8 48.66 251.16"/>
          <path d="M48.15,237.8s-.08-.14-.2-.43c-.12-.28-.3-.71-.52-1.25-.44-1.09-1.06-2.68-1.8-4.65-1.5-3.94-3.5-9.4-6.13-15.27-.33-.73-.65-1.48-.79-2.27-.16-.78-.07-1.64.34-2.33.4-.68.95-1.21,1.38-1.78.44-.56.74-1.22.63-1.88-.07-.66-.44-1.24-.79-1.79-.36-.55-.75-1.07-1.03-1.64-.29-.56-.42-1.21-.31-1.8.11-.57.25-1.11.39-1.61.28-1.01.59-1.93.92-2.7.31-.77.58-1.43.81-1.99.22-.53.39-.94.52-1.25.12-.29.19-.43.2-.43,0,0-.04.16-.15.45-.12.31-.27.74-.47,1.27-.21.56-.47,1.23-.76,2.01-.32.78-.61,1.67-.87,2.69-.13.51-.27,1.04-.37,1.6-.09.55.03,1.12.3,1.66.28.54.66,1.05,1.03,1.6.36.55.76,1.16.84,1.9.12.74-.22,1.49-.68,2.07-.45.59-.99,1.12-1.35,1.75-.37.63-.45,1.4-.31,2.14.14.75.45,1.48.77,2.21,2.64,5.87,4.61,11.36,6.06,15.31.72,1.96,1.3,3.55,1.72,4.68.2.53.35.96.47,1.27.11.29.16.45.15.45Z"/>
          <g class="cls-6">
            <path d="M39.37,215.72c-.49-1.24-.91-2.68-.32-3.88.54-1.1,2.07-1.93,2.27-3.14.16-.9-.28-1.8-.8-2.57-.52-.76-1.14-1.49-1.41-2.36-.27-.88.83-4.7,1.11-5.3l1.4-3.46c-1,1.62-2,3.25-2.67,5.03-.67,1.78-.99,3.72-.59,5.58.23,1.07.71,2.11.66,3.2-.06,1.41-.98,2.63-1.44,3.97-1.02,2.98.3,6.2,1.71,9.01,2.17,4.35,5.07,9.03,7.76,13.09-2.71-7.81-5.32-13.22-7.67-19.18Z"/>
          </g>
        </g>
        <path class="cls-22" d="M27.65,200.09s-7.79-.49-10.83,13.33c-2.84,12.92-4.71,33.45-2.91,36.96,1.8,3.51,3.65,6.85,7.51,6.95,7.67.2,18.29-9.74,18.29-9.74l-6.77-14.46-2.62,1.36-.54-21.12-2.14-13.29Z"/>
        <path class="cls-11" d="M28.73,234.95s-.43-.37-1.22-.78c-.8-.42-1.95-.9-3.28-1.24-1.33-.34-2.58-.47-3.47-.49-.9-.02-1.45.05-1.45.1,0,.12,2.21.09,4.83.77,2.62.66,4.54,1.76,4.6,1.65Z"/>
        <path class="cls-11" d="M19.49,256.82s.59.26,1.73.35c1.15.09,2.84-.08,4.81-.74,3.95-1.31,8.93-4.39,13.82-8.7l.1-.09-.06-.13c-.47-1.02-.97-2.09-1.48-3.18-1.93-4.14-3.75-8.03-5.31-11.38l-.07-.16-.15.08c-3.7,1.85-6.8,3.41-9.02,4.52-1.06.54-1.9.98-2.53,1.3-.27.14-.48.26-.66.35-.15.08-.22.13-.22.14,0,0,.09-.02.24-.09.18-.08.41-.18.68-.31.63-.3,1.49-.7,2.57-1.21,2.24-1.08,5.36-2.6,9.08-4.4l-.23-.08c1.55,3.35,3.35,7.25,5.27,11.4.51,1.09,1.01,2.16,1.48,3.18l.04-.22c-4.84,4.28-9.77,7.39-13.64,8.74-1.93.68-3.59.89-4.72.84-1.13-.04-1.73-.25-1.74-.21Z"/>
        <path class="cls-11" d="M29.65,234.71c.11,0,.22-4.29.26-9.58.04-5.29-.02-9.58-.12-9.58-.11,0-.22,4.29-.26,9.58-.04,5.29.02,9.58.12,9.58Z"/>
        <g>
          <path class="cls-11" d="M40.8,281.6s-.09-.01-.28-.02c-.23,0-.52-.01-.87-.02-.82-.01-1.93-.03-3.3-.05-2.83-.04-6.85-.08-11.49-.09h-.13s-.04.12-.04.12c-.57,1.56-1.18,3.22-1.8,4.94l-.09.26h.46c6.57,0,12.44-.03,16.3-.07h.1s.02-.09.02-.09c.36-1.54.66-2.78.87-3.7.09-.39.16-.71.22-.96.05-.21.07-.32.06-.32,0,0-.05.13-.11.35-.07.26-.17.58-.28.98-.24.88-.58,2.09-.99,3.58l.12-.09c-3.85-.04-9.73-.07-16.3-.07h-.19l.18.26c.62-1.72,1.23-3.38,1.79-4.94l-.17.12c4.55,0,8.5-.05,11.35-.09,1.39-.02,2.52-.04,3.35-.05.37,0,.67-.02.91-.02.21,0,.32-.01.33-.02Z"/>
          <g class="cls-6">
            <path d="M40.44,283.05c-.03.13-.51,4.76-.51,4.76h-16.06v-1.06l15.68-.2.89-3.5Z"/>
          </g>
        </g>
      </g>
      <g>
        <g>
          <path class="cls-22" d="M83.55,258.72l-2.39-1.39.24,16.46,2.75,63.87-18.41.53-1.91-60.83.62-84.94,3.22,3.66,10.57,3.17c4.4,1.53,6.67,3.37,7.91,5.82,3.4,6.75,5.43,13.13,7.64,18.5,3.73,9.05,5.53,12.96,7.13,20.2.45,2.06.43,9.7-4.56,13.65-3.47,2.75-8.59,2.64-12.82,1.27h0Z"/>
          <path d="M64.09,239.43s.04-.16.16-.47c.12-.33.28-.77.49-1.32.42-1.15.99-2.82,1.65-4.9.67-2.08,1.44-4.56,2.42-7.29.49-1.36,1.04-2.78,1.64-4.24.31-.72.62-1.47.97-2.21.33-.75.71-1.48.98-2.26.27-.77.41-1.59.2-2.33-.2-.75-.77-1.35-1.3-1.95-.52-.59-1.08-1.25-1.18-2.07-.04-.4.02-.79.14-1.16.14-.36.32-.69.52-1,.4-.62.86-1.17,1.2-1.76.34-.58.56-1.21.47-1.81-.09-.61-.42-1.14-.73-1.65-.32-.51-.62-1-.91-1.47-1.15-1.86-2.08-3.37-2.74-4.45-.31-.51-.55-.92-.73-1.22-.16-.28-.25-.43-.24-.43,0,0,.11.13.29.4.19.29.45.69.78,1.19.68,1.06,1.64,2.56,2.82,4.4.3.47.61.95.93,1.46.32.51.67,1.06.78,1.73.1.68-.13,1.37-.49,1.97-.35.61-.81,1.17-1.2,1.77-.19.3-.36.62-.49.95-.11.34-.16.69-.13,1.04.09.71.59,1.33,1.12,1.92.52.59,1.13,1.22,1.36,2.06.23.83.08,1.7-.2,2.5-.28.8-.66,1.54-.99,2.28-.34.74-.65,1.48-.97,2.2-.61,1.45-1.16,2.86-1.66,4.22-.99,2.71-1.79,5.19-2.48,7.26-.69,2.07-1.29,3.74-1.75,4.88-.22.57-.41,1.01-.54,1.3-.13.3-.2.45-.21.45Z"/>
        </g>
        <path class="cls-11" d="M81.72,236.17s.85.52,2.26,1.24c1.51.77,3.42,1.75,5.53,2.83,2.15,1.13,4.07,2.2,5.41,3.04,1.35.83,2.11,1.46,2.15,1.41.02-.02-.16-.19-.49-.5-.34-.29-.85-.69-1.51-1.14-1.31-.91-3.23-2.02-5.38-3.16-2.16-1.13-4.14-2.08-5.59-2.74-1.45-.66-2.36-1.04-2.38-.99Z"/>
        <path class="cls-11" d="M80.65,257.16s-.03-.08-.1-.22c-.09-.17-.2-.38-.33-.63-.32-.58-.75-1.37-1.29-2.35-1.16-2.05-2.77-4.92-4.7-8.34v.18c2.1-3.11,4.57-6.75,7.2-10.64.02-.04.05-.07.07-.1l.03-.04v-.05c.21-3.58.37-6.99.4-10.1.01-1.56-.04-3.03-.06-4.41-.02-1.38-.03-2.66-.01-3.83.04-2.31.08-4.2.11-5.55.01-.62.02-1.13.03-1.51,0-.35,0-.53-.02-.53-.01,0-.03.18-.06.52-.02.38-.06.88-.1,1.51-.08,1.31-.17,3.21-.23,5.55-.03,1.17-.04,2.46-.03,3.84.01,1.38.05,2.85.03,4.4-.04,3.1-.22,6.51-.43,10.08l.03-.1s-.05.07-.07.1c-2.62,3.9-5.07,7.55-7.16,10.67l-.06.09.05.09c1.98,3.39,3.63,6.24,4.82,8.28.58.97,1.04,1.74,1.37,2.31.15.24.27.44.37.6.09.13.14.2.14.2Z"/>
        <g>
          <path class="cls-10" d="M82.88,241.86l-1.73-2.75c.6-1.62,1.09-7.82,1.1-8.82s-.53-2.04-1.36-2.33c0,0,.18-2.08-1.44-2.53,0,0-.17-2.48-1.03-3.21-.87-.73-3.44-1.39-6.42-.58-2.85.77-2.93,2.59-2.06,3.01.87.42,3.12,0,3.12,0,0,0-2.22.55-1.63,1.98.59,1.43,3,1.16,3,1.16,0,0-2.48,0-2.05,1.58l-3.87.53s.04,3.43,1.72,5.77c1.68,2.33,3.19,6.5,3.19,6.5l-.45,2.15s3.21,3.64,6.94.15l1.83-1.22,1.13-1.38Z"/>
          <path class="cls-11" d="M79.51,228.82s-.31-.14-.9-.31c-.59-.16-1.45-.4-2.54-.53-.55-.06-1.16-.09-1.81-.02-.32.03-.67.08-1.01.22-.34.14-.68.4-.84.8-.18.4-.04.91.26,1.21.29.31.65.51,1.02.67.73.32,1.5.6,2.31.84.91.26,1.81.45,2.67.57l-.16-.2c-.05,1.32-.21,2.59-.94,3.41-.35.41-.78.75-1.12,1.13-.35.38-.58.81-.73,1.21-.29.82-.25,1.53-.17,1.98.1.46.23.68.24.67.03,0-.06-.25-.11-.69-.05-.44-.04-1.12.26-1.87.16-.37.38-.76.72-1.1.33-.35.76-.67,1.15-1.11.4-.44.68-1.02.83-1.65.15-.63.2-1.29.24-1.96v-.17s-.16-.02-.16-.02c-.85-.12-1.73-.31-2.62-.57-.79-.23-1.55-.51-2.26-.81-.34-.15-.67-.33-.9-.58-.23-.24-.32-.55-.2-.83.24-.59.96-.77,1.57-.83.62-.08,1.21-.07,1.75-.03,1.08.09,1.94.28,2.53.4.6.12.93.19.94.16Z"/>
          <path class="cls-11" d="M78.02,225.25c.05-.08-1.11-.76-2.73-.87-1.62-.13-2.87.36-2.83.44.03.11,1.27-.19,2.8-.06,1.54.11,2.72.6,2.76.49Z"/>
        </g>
        <g>
          <path class="cls-11" d="M71.28,281.36s.24.03.65.04c.47.01,1.04.03,1.73.05,1.47.03,3.51.08,5.91.09l-.17-.14c.28,1.53.59,3.2.92,4.94l.19-.23h-.12c-3.2.02-6.13.03-8.45.04l.15.13c-.21-1.48-.41-2.69-.55-3.55-.14-.86-.23-1.35-.25-1.37-.02-.02.02.44.1,1.29.09.85.22,2.11.41,3.67l.02.13h.13c2.32.01,5.25.03,8.45.04h.35l-.04-.23c-.34-1.75-.66-3.41-.95-4.94l-.03-.15h-.15c-2.48.01-4.58.06-6.03.09-.67.02-1.23.03-1.69.05-.39.01-.58.03-.57.04Z"/>
          <g class="cls-6">
            <path d="M71.47,282.8c.02.13.27,4.76.27,4.76h8.35v-1.06l-8.15-.2-.46-3.5Z"/>
          </g>
        </g>
      </g>
      <g>
        <path class="cls-12" d="M64.45,194.51c0-1.73.03-4.73.03-4.73,0,0,7.84-.89,8.26-8.67.2-3.76-.01-11.54-.29-18.57-.3-7.56-6.35-13.62-13.91-13.93l-.75-.03c-8.12.14-12.54,7.11-12.18,15.23l.84,30.94,1.75,1.25c5.04,3.59,11.94,2.97,16.25-1.47h0Z"/>
        <path class="cls-2" d="M64.48,189.77s-4.92.09-10.01-3.42c0,0,2.2,5.95,10,5.57l.02-2.16Z"/>
        <path class="cls-11" d="M70.59,169.9c0,.59-.5,1.07-1.12,1.08-.61,0-1.11-.46-1.1-1.05,0-.59.5-1.07,1.12-1.08.61,0,1.11.46,1.11,1.05Z"/>
        <path class="cls-11" d="M70.58,165.02c-.11.12-.97.17-2.08.63-1.11.45-1.83,1.06-1.97,1.04-.07,0,.02-.17.34-.44.31-.27.86-.63,1.55-.91.69-.28,1.31-.4,1.68-.42.38-.02.53.05.48.1Z"/>
        <path class="cls-11" d="M59.47,169.9c0,.59-.5,1.07-1.12,1.08-.61,0-1.11-.46-1.1-1.05,0-.59.5-1.07,1.12-1.08.61,0,1.11.46,1.11,1.05Z"/>
        <path class="cls-11" d="M59,166.86c-.16.03-.85-.51-2-.86-1.14-.35-2.09-.32-2.19-.42-.05-.05.13-.13.55-.15.41-.02,1.07.04,1.78.26.71.22,1.26.53,1.56.77.3.24.37.4.3.41Z"/>
        <path class="cls-11" d="M62.82,175.07c0-.07.75-.17,1.96-.27.31-.02.6-.07.66-.27.08-.22-.03-.55-.17-.91-.26-.75-.53-1.54-.81-2.36-1.12-3.36-1.91-6.13-1.78-6.17.14-.04,1.15,2.65,2.27,6.01.27.83.52,1.62.77,2.38.1.35.28.75.11,1.21-.09.23-.32.38-.52.43-.2.05-.37.05-.52.05-1.22.02-1.97-.01-1.97-.08Z"/>
        <path class="cls-11" d="M59.45,161.97c-.18.3-1.32-.07-2.74-.16-1.41-.12-2.6.08-2.73-.24-.06-.15.19-.42.7-.64.5-.23,1.27-.39,2.12-.33.85.06,1.58.33,2.05.63.47.3.68.6.6.74Z"/>
        <path class="cls-11" d="M70.85,162.39c-.26.27-1.22-.04-2.4-.09-1.17-.08-2.17.13-2.39-.16-.1-.14.07-.41.51-.65.43-.25,1.15-.44,1.96-.39.8.04,1.5.31,1.9.6.41.29.54.57.42.7Z"/>
        <path class="cls-12" d="M46.01,169.58c-.13-.06-5.28-1.8-5.33,3.53-.05,5.33,5.31,4.28,5.32,4.13.01-.15.01-7.65.01-7.65Z"/>
        <path class="cls-2" d="M44.38,175.2s-.09.06-.25.13c-.15.07-.42.11-.69,0-.56-.21-1.03-1.11-1.04-2.07,0-.49.1-.95.27-1.33.17-.39.42-.66.71-.71.28-.06.48.11.55.26.07.15.04.26.06.27.01.01.12-.09.07-.31-.02-.11-.08-.23-.21-.34-.13-.11-.31-.16-.51-.14-.41.02-.78.4-.98.82-.22.42-.35.94-.34,1.48.02,1.07.56,2.08,1.33,2.31.37.1.69,0,.85-.13.17-.13.2-.25.18-.26Z"/>
        <path class="cls-11" d="M75.64,160.15c-3.34.52-6.77.27-9.44-1.81-.77-.6-1.48-1.28-2.14-2.02-1.18-1.34-2.11-3.02-3.7-3.83-2.06-1.05-4.53-.33-6.72.4l.09-.08c-1.14.51-2.18,1.24-3.05,2.15.52,5.14-.28,10.41-2.35,15.14-.17.39-.48.71-.87.87-1.25.49-.86-1.16-1.79-1.48-.71-.25-1.06-.1-2.47-.14-.49-1.34-.78-4.99-1.2-6.96-1.17-1.24-2.25-3.53-2.29-5.32-.04-1.79.95-4.07.95-4.07,1.35-2.56,2.14-3.87,4.21-4.59l.05.02c1.86-.72,4.15-.71,5.65.6.41-2.78,2.87-4.95,5.59-5.63,2.72-.68,7.07-.21,9.66.87,1.77.73,3.48,2.13,5.46,4.14h0s0,0,0,0c.26.27.53.54.8.83.02.02.04.05.07.08.57.37,1.28.54,2.02.62,1.18.13,1.92-.24,2.72-1.12.24-.27.55-.6.9-.49.22.07.34.3.41.51.38,1.16-.13,2.47-1,3.32-.42.41-.92.73-1.45.99,0,0,.79.98,2.15,1.2.73.12,1.39.54,1.8,1.15.2.3.35.65.35,1.04,0,2.25-2.24,3.27-4.42,3.61Z"/>
        <path class="cls-10" d="M77.07,157.81s-.02.02-.06.05c-.05.04-.12.08-.2.14-.09.06-.2.14-.33.21-.14.08-.29.17-.48.24-.73.34-1.89.66-3.35.56-1.44-.1-3.16-.63-4.69-1.79-1.55-1.14-2.89-2.8-3.99-4.71-.56-.95-1.01-1.92-1.51-2.82-.5-.9-1.05-1.73-1.72-2.39-.66-.66-1.43-1.16-2.23-1.39-.4-.12-.8-.15-1.18-.15-.39.02-.75.09-1.09.2-.68.22-1.22.58-1.64.96-.42.38-.7.78-.89,1.13-.36.71-.39,1.17-.42,1.17,0,0,0-.03,0-.08.01-.06.02-.14.04-.24.04-.21.13-.51.31-.88.19-.36.47-.78.89-1.17.42-.39.97-.78,1.67-1.01.35-.11.72-.19,1.12-.21.4,0,.82.02,1.23.15.83.23,1.63.74,2.31,1.42.69.67,1.25,1.52,1.75,2.43.51.91.96,1.88,1.51,2.82,1.09,1.89,2.42,3.54,3.93,4.66,1.5,1.16,3.18,1.68,4.6,1.8,1.43.12,2.58-.19,3.31-.5.73-.32,1.08-.6,1.1-.58Z"/>
        <path class="cls-10" d="M77.82,154.39s-.09.08-.28.19c-.19.12-.47.26-.83.41-.36.15-.81.3-1.32.42-.51.11-1.08.19-1.68.2-.6,0-1.17-.05-1.69-.13-.51-.1-.96-.22-1.33-.36-.37-.14-.66-.27-.85-.38-.19-.11-.3-.17-.29-.18.02-.03.44.2,1.18.43.37.12.82.23,1.32.32.5.08,1.07.13,1.66.12.59-.02,1.15-.09,1.65-.19.5-.11.94-.23,1.31-.37.73-.27,1.15-.51,1.16-.48Z"/>
        <path class="cls-10" d="M48,158.45s.05.18.07.5c.02.33.03.8-.03,1.39-.04.3-.04.61-.16.98-.06.18-.27.41-.53.39-.26-.02-.43-.16-.59-.29-.59-.55-1.23-1.14-1.9-1.76l.28-.16c.09.37.18.75.28,1.14.25,1.07.49,2.1.71,3.03l.12.51-.38-.36c-1-.95-1.69-1.9-2.12-2.6-.42-.7-.6-1.15-.57-1.16.08-.06.9,1.71,2.9,3.54l-.26.15c-.23-.93-.48-1.95-.74-3.03-.09-.39-.18-.78-.27-1.15l-.13-.56.41.39c.66.63,1.29,1.23,1.87,1.79.13.12.28.23.41.23.12,0,.22-.07.28-.21.1-.28.14-.63.18-.91.16-1.15.13-1.87.18-1.87Z"/>
        <path class="cls-2" d="M62.58,178.13c-.09,0-4.08-1.56-4.08-1.56,0,0-1.16,2.31.24,3.37,1.4,1.06,3.1.39,3.37-.24.27-.63.47-1.57.47-1.57Z"/>
        <path class="cls-11" d="M61.68,180.14s-.19.12-.56.18c-.36.07-.92.06-1.56-.09h.01c-.42-.16-.89-.41-1.17-.87-.27-.45-.3-1.08-.15-1.68.09-.36.22-.72.39-1.03l-.2.07c1.21.46,2.27.84,3.04,1.1.77.26,1.23.4,1.25.36.01-.04-.43-.25-1.17-.56-.75-.32-1.79-.74-3-1.21l-.14-.05-.07.13c-.19.35-.33.71-.43,1.11-.17.65-.14,1.38.2,1.93.35.55.9.8,1.36.96h0s0,0,0,0c.69.13,1.27.1,1.66-.02.39-.11.54-.32.52-.32Z"/>
      </g>
    </g>
    <path class="cls-11" d="M67.27,257.1h-25.84c-1.83,0-3.15-1.83-2.62-3.66l11.29-39.19c.35-1.2,1.41-2.03,2.62-2.03h25.84c1.83,0,3.15,1.83,2.62,3.66l-11.29,39.19c-.35,1.2-1.41,2.03-2.62,2.03Z"/>
    <g>
      <path class="cls-10" d="M54.44,233.69c.79.24,2.18-.58,1.68-1.23-1.46-1.88-3.36-4.88-4.6-5.47-2.06-.98-8.62-1.59-9.7-.86-1.08.73-5.42,7.15-5.42,7.15l-3.33,3.43,3.91,8.31s3.05-.31,4.75-2.51c1.18-1.52,1.43-3.27,1.43-3.27l3.25-1.18s-3.98,1.16-2.02,2.97c0,0,3.44-.66,4.19-1.25.75-.6,1.14-1.96,1.14-1.96,0,0,1.66-.31,1.38-1.79,0,0,1.43.28,1.42-1.37,0-1.66-1.5-3.93-1.5-3.93h0s.85,2.17,3.43,2.96Z"/>
      <path class="cls-11" d="M42.91,234.79s.45-.14,1.19-.23c.73-.08,1.84-.15,2.92.34,1.08.47,1.81,1.31,2.16,1.96.36.66.4,1.13.37,1.14-.05.01-.16-.43-.55-1.04-.38-.6-1.08-1.36-2.1-1.8-1.01-.45-2.06-.42-2.79-.4-.74.04-1.2.07-1.21.03Z"/>
      <path class="cls-11" d="M43.66,231.82s.1-.11.33-.23c.23-.13.58-.28,1.04-.39.91-.23,2.32-.24,3.62.46,1.29.72,2.02,1.91,2.28,2.79.14.44.19.82.2,1.08,0,.26-.01.4-.03.4-.06,0-.05-.57-.36-1.41-.3-.83-1.02-1.93-2.23-2.6-1.21-.66-2.55-.69-3.43-.52-.9.17-1.4.48-1.42.43Z"/>
      <path class="cls-11" d="M43.24,228.15s.58.02,1.51-.05c.46-.03,1.02-.09,1.64-.11.62-.02,1.33,0,2.04.23.7.24,1.29.67,1.7,1.14.42.47.69.96.9,1.38.4.84.53,1.4.5,1.41-.05.02-.25-.52-.68-1.32-.22-.39-.51-.86-.92-1.29-.4-.44-.94-.83-1.59-1.05-.65-.21-1.33-.24-1.94-.24-.59.02-1.14.03-1.64.05-.94.02-1.52-.12-1.51-.15Z"/>
    </g>
  </g>
</svg>