<?xml version="1.0" encoding="UTF-8"?>
<svg xmlns="http://www.w3.org/2000/svg" xmlns:xlink="http://www.w3.org/1999/xlink" viewBox="0 0 656 504">
  <defs>
    <style>
      .cls-1 {
        fill: #d7d8d8;
      }

      .cls-1, .cls-2, .cls-3, .cls-4, .cls-5, .cls-6, .cls-7, .cls-8, .cls-9, .cls-10, .cls-11, .cls-12, .cls-13, .cls-14, .cls-15, .cls-16, .cls-17, .cls-18, .cls-19, .cls-20, .cls-21, .cls-22, .cls-23, .cls-24, .cls-25, .cls-26, .cls-27, .cls-28, .cls-29, .cls-30, .cls-31 {
        fill-rule: evenodd;
      }

      .cls-32 {
        opacity: .6;
      }

      .cls-33, .cls-34 {
        fill: #cb4738;
      }

      .cls-35 {
        fill: #362d34;
      }

      .cls-36, .cls-24 {
        fill: #3e3a39;
      }

      .cls-37 {
        opacity: .27;
      }

      .cls-37, .cls-34, .cls-38, .cls-39, .cls-40, .cls-41, .cls-42, .cls-43 {
        mix-blend-mode: multiply;
      }

      .cls-37, .cls-44 {
        fill: #6e81b3;
      }

      .cls-45 {
        fill: #99dfff;
      }

      .cls-46 {
        fill: #f8cd9e;
      }

      .cls-2, .cls-47 {
        fill: #bac1c0;
      }

      .cls-3 {
        fill: #cc945d;
      }

      .cls-48 {
        fill: #fcfcfc;
      }

      .cls-34 {
        opacity: .3;
      }

      .cls-49 {
        letter-spacing: 0em;
      }

      .cls-38 {
        fill: url(#Degradado_sin_nombre_33);
      }

      .cls-50, .cls-51 {
        fill: #3e3e3e;
      }

      .cls-52 {
        stroke-width: 2.6px;
      }

      .cls-52, .cls-53, .cls-54 {
        fill: none;
        stroke-miterlimit: 10;
      }

      .cls-52, .cls-54 {
        stroke: #222;
      }

      .cls-4 {
        fill: #f0c7af;
      }

      .cls-55 {
        fill: #9b9b9a;
      }

      .cls-56 {
        fill: #df3849;
      }

      .cls-5, .cls-57 {
        fill: #dbdcdc;
      }

      .cls-6 {
        fill: #f2f2f3;
      }

      .cls-58 {
        fill: #a4a4a4;
      }

      .cls-59 {
        fill: #f8221a;
      }

      .cls-60, .cls-9, .cls-61 {
        fill: #fff;
      }

      .cls-7 {
        fill: #86746b;
      }

      .cls-62 {
        fill: #fffdfe;
        opacity: .2;
      }

      .cls-63 {
        fill: #383838;
      }

      .cls-64 {
        fill: url(#Degradado_sin_nombre_25);
      }

      .cls-65 {
        fill: #2e282d;
      }

      .cls-66 {
        opacity: .42;
      }

      .cls-66, .cls-40 {
        fill: #7aabff;
      }

      .cls-67 {
        opacity: .4;
      }

      .cls-8 {
        fill: #311506;
      }

      .cls-68 {
        fill: #f19753;
      }

      .cls-10 {
        fill: #fad9c7;
      }

      .cls-69 {
        fill: #ff6336;
      }

      .cls-11 {
        fill: #ea6001;
      }

      .cls-70 {
        fill: #43292b;
      }

      .cls-39 {
        fill: url(#Degradado_sin_nombre_2);
      }

      .cls-71, .cls-29 {
        fill: #cdcfd0;
      }

      .cls-72 {
        fill: #aedeff;
      }

      .cls-12 {
        fill: #7ecbdd;
      }

      .cls-53 {
        stroke: #e5dfdf;
        stroke-width: 3.9px;
      }

      .cls-13 {
        fill: #261305;
      }

      .cls-73 {
        opacity: .8;
      }

      .cls-14 {
        fill: #231916;
      }

      .cls-74 {
        isolation: isolate;
      }

      .cls-75 {
        fill: #afb1b3;
      }

      .cls-61 {
        opacity: .59;
      }

      .cls-76 {
        fill: #446ef1;
      }

      .cls-77 {
        fill: #aaa899;
      }

      .cls-78 {
        fill: #f77c7c;
      }

      .cls-79 {
        fill: #222;
      }

      .cls-40 {
        opacity: .41;
      }

      .cls-80 {
        fill: #dc7529;
      }

      .cls-81 {
        fill: #e9e7e8;
      }

      .cls-15 {
        fill: #009844;
      }

      .cls-16 {
        fill: #f0bd7b;
      }

      .cls-41 {
        fill: url(#Degradado_sin_nombre_2-3);
      }

      .cls-17 {
        fill: #5ec1cf;
      }

      .cls-18 {
        fill: #e50013;
      }

      .cls-82 {
        fill: #80d2ff;
      }

      .cls-83 {
        fill: url(#Degradado_sin_nombre_25-2);
      }

      .cls-19 {
        fill: #16ac5b;
      }

      .cls-84 {
        fill: #888;
      }

      .cls-85 {
        fill: #e5dfdf;
      }

      .cls-86 {
        fill: #433b42;
      }

      .cls-54 {
        stroke-width: 1.3px;
      }

      .cls-20 {
        fill: #5abac6;
      }

      .cls-87 {
        fill: #2a3655;
      }

      .cls-42 {
        fill: url(#Degradado_sin_nombre_2-2);
      }

      .cls-21 {
        fill: #eeeeef;
      }

      .cls-88 {
        fill: #f4f4f4;
      }

      .cls-22 {
        fill: #fff000;
      }

      .cls-89 {
        fill: #5084b6;
      }

      .cls-90 {
        fill: #863d22;
      }

      .cls-91 {
        fill: #9dc89e;
      }

      .cls-92 {
        fill: #56658c;
      }

      .cls-93 {
        fill: #7babff;
      }

      .cls-25 {
        fill: #46afbe;
      }

      .cls-26 {
        fill: #84cdda;
      }

      .cls-27 {
        fill: #2e2727;
      }

      .cls-28 {
        fill: #58516e;
      }

      .cls-94 {
        fill: #f08544;
      }

      .cls-51 {
        font-family: Montserrat-ExtraBold, Montserrat;
        font-size: 14.19px;
        font-weight: 700;
      }

      .cls-95 {
        fill: #599e85;
      }

      .cls-96 {
        fill: #9d5321;
      }

      .cls-97 {
        fill: #f2f0f1;
      }

      .cls-30 {
        fill: #f8ceb9;
      }

      .cls-98 {
        opacity: .7;
      }

      .cls-99 {
        fill: #473c45;
      }

      .cls-31 {
        fill: #31a3b5;
      }

      .cls-43 {
        opacity: .5;
      }
    </style>
    <linearGradient id="Degradado_sin_nombre_2" data-name="Degradado sin nombre 2" x1="156.43" y1="289.2" x2="157.19" y2="294.99" gradientUnits="userSpaceOnUse">
      <stop offset="0" stop-color="#8073ff" stop-opacity="0"/>
      <stop offset=".07" stop-color="#8073ff" stop-opacity=".07"/>
      <stop offset="1" stop-color="#8073ff"/>
    </linearGradient>
    <linearGradient id="Degradado_sin_nombre_25" data-name="Degradado sin nombre 25" x1="158.8" y1="292.45" x2="159.78" y2="284.96" gradientUnits="userSpaceOnUse">
      <stop offset="0" stop-color="#fff" stop-opacity="0"/>
      <stop offset="1" stop-color="#fff"/>
    </linearGradient>
    <linearGradient id="Degradado_sin_nombre_25-2" data-name="Degradado sin nombre 25" x1="160.5" y1="292.67" x2="161.48" y2="285.19" xlink:href="#Degradado_sin_nombre_25"/>
    <linearGradient id="Degradado_sin_nombre_33" data-name="Degradado sin nombre 33" x1="122.88" y1="383.25" x2="123.25" y2="427.65" gradientUnits="userSpaceOnUse">
      <stop offset="0" stop-color="#cb4738" stop-opacity="0"/>
      <stop offset="1" stop-color="#cb4738"/>
    </linearGradient>
    <linearGradient id="Degradado_sin_nombre_2-2" data-name="Degradado sin nombre 2" x1="193" y1="386.5" x2="166.41" y2="379.77" xlink:href="#Degradado_sin_nombre_2"/>
    <linearGradient id="Degradado_sin_nombre_2-3" data-name="Degradado sin nombre 2" x1="194.57" y1="389.99" x2="187.98" y2="392.3" xlink:href="#Degradado_sin_nombre_2"/>
  </defs>
  <g class="cls-74">
    <g id="Layer_1" data-name="Layer 1">
      <g>
        <g>
          <g>
            <g class="cls-43">
              <circle class="cls-72" cx="247.55" cy="237.02" r="179.8"/>
              <circle class="cls-72" cx="468.63" cy="323.24" r="111.52"/>
              <circle class="cls-72" cx="472.34" cy="154.14" r="41.56" transform="translate(29.35 379.14) rotate(-45)"/>
            </g>
            <g>
              <path class="cls-91" d="M102.79,432.1s-2.44-25.15-25.54-36.69c-21.5-10.73-33.43-10.14-58.85-8.4-15.82,1.09,9.42.81,16.58,21.04,6.34,17.89,14.92,43.57,45.72,44.51,30.8.94,22.09-20.47,22.09-20.47Z"/>
              <path class="cls-95" d="M87.04,434.09c-2.58-17.97-19.73-29.31-33.66-35.65-15.2-6.92-29.98-9.57-30.13-9.59l.24-1.35c.15.03,15.08,2.7,30.44,9.68,9.04,4.11,16.47,8.9,22.07,14.22,7.05,6.69,11.22,14.26,12.4,22.49l-1.36.19Z"/>
              <path class="cls-95" d="M37.33,402.17l-.55-1.25c.33-.14,8.18-3.51,23.08-.78l-.25,1.35c-14.43-2.65-22.2.65-22.28.68Z"/>
              <path class="cls-95" d="M45.02,423.01l-.45-1.29c.22-.08,22.19-7.54,39.21-.46l-.53,1.26c-16.54-6.87-38.02.42-38.23.49Z"/>
              <path class="cls-95" d="M66.6,405.71c-5.57-4.12-5.8-14.96-5.81-15.42l1.37-.02c0,.11.23,10.62,5.26,14.34l-.81,1.1Z"/>
              <path class="cls-95" d="M84.06,424.38c-2.62-7.64-2.04-21.99-1.37-23.41l1.24.59h0c-.48,1.23-1.12,14.96,1.42,22.38l-1.3.44Z"/>
            </g>
            <g>
              <path class="cls-91" d="M127.96,435.8s4.26-12.37-4.13-22.77c-7.81-9.68-13.56-11.97-25.9-16.62-7.68-2.89,4.26,2.41,3.28,13.47-.87,9.79-2.35,23.73,11.95,30.79,14.3,7.07,14.81-4.88,14.81-4.88Z"/>
              <path class="cls-95" d="M120.11,433.35c2.65-9.02-2.98-18.04-8.18-24.02-5.67-6.53-12.06-10.96-12.12-11l.4-.58c.06.04,6.52,4.52,12.25,11.11,3.37,3.88,5.84,7.73,7.33,11.44,1.88,4.67,2.21,9.13,1,13.26l-.68-.2Z"/>
              <path class="cls-95" d="M103.58,407.62v-.71c.19,0,4.62.11,11.04,4.6l-.41.58c-6.23-4.35-10.59-4.47-10.63-4.47Z"/>
              <path class="cls-95" d="M102.71,419.09l.07-.71c.12.01,12.07,1.23,18.56,8.22l-.52.48c-6.31-6.79-17.99-7.98-18.11-7.99Z"/>
              <path class="cls-95" d="M116.6,415.59c-1.74-3.14.49-8.29.58-8.51l.65.28c-.02.05-2.18,5.05-.61,7.88l-.62.34Z"/>
              <path class="cls-95" d="M120.8,428.13c.41-4.16,3.77-10.79,4.39-11.31l.46.54h0c-.5.48-3.75,6.8-4.15,10.84l-.71-.07Z"/>
            </g>
            <g>
              <path class="cls-91" d="M528.21,432.1s2.44-25.15,25.54-36.69c21.5-10.73,33.43-10.14,58.85-8.4,15.82,1.09-9.42.81-16.58,21.04-6.34,17.89-14.92,43.57-45.72,44.51-30.8.94-22.09-20.47-22.09-20.47Z"/>
              <path class="cls-95" d="M543.96,434.09c2.58-17.97,19.73-29.31,33.66-35.65,15.2-6.92,29.98-9.57,30.13-9.59l-.24-1.35c-.15.03-15.08,2.7-30.44,9.68-9.04,4.11-16.47,8.9-22.07,14.22-7.05,6.69-11.22,14.26-12.4,22.49l1.36.19Z"/>
              <path class="cls-95" d="M593.67,402.17l.55-1.25c-.33-.14-8.18-3.51-23.08-.78l.25,1.35c14.43-2.65,22.2.65,22.28.68Z"/>
              <path class="cls-95" d="M585.98,423.01l.45-1.29c-.22-.08-22.19-7.54-39.21-.46l.53,1.26c16.54-6.87,38.02.42,38.23.49Z"/>
              <path class="cls-95" d="M564.4,405.71c5.57-4.12,5.8-14.96,5.81-15.42l-1.37-.02c0,.11-.23,10.62-5.26,14.34l.81,1.1Z"/>
              <path class="cls-95" d="M546.94,424.38c2.62-7.64,2.04-21.99,1.37-23.41l-1.24.59h0c.48,1.23,1.12,14.96-1.42,22.38l1.3.44Z"/>
            </g>
            <g>
              <path class="cls-91" d="M507.32,445.45s-9.39-11.26-4.73-25.5c4.34-13.25,9.44-17.93,20.53-27.71,6.9-6.09-3.5,4.22,1.92,15.42,4.8,9.91,11.9,23.92-.27,37.02-12.17,13.09-17.45.77-17.45.77Z"/>
              <path class="cls-95" d="M514.57,439.76c-6.37-8.39-4.05-20.09-.99-28.43,3.34-9.09,8.28-16.27,8.33-16.35l-.65-.45c-.05.07-5.04,7.32-8.41,16.51-1.99,5.41-3.04,10.42-3.13,14.91-.11,5.64,1.31,10.45,4.23,14.29l.63-.48Z"/>
              <path class="cls-95" d="M521.66,406.23l-.29-.74c-.19.08-4.79,1.95-9.73,9.21l.66.45c4.79-7.04,9.32-8.9,9.36-8.91Z"/>
              <path class="cls-95" d="M527.13,417.9l-.35-.71c-.12.06-12.16,6.09-16.18,15.99l.74.3c3.91-9.63,15.67-15.52,15.79-15.58Z"/>
              <path class="cls-95" d="M511.19,419.75c.57-3.98-3.81-8.49-3.99-8.68l-.57.56s4.29,4.42,3.77,8.02l.79.11Z"/>
              <path class="cls-95" d="M511.77,434.57c-2.09-4.2-8.25-9.81-9.1-10.11l-.26.75h0c.71.3,6.64,5.64,8.66,9.71l.71-.35Z"/>
            </g>
            <rect class="cls-95" x="13.28" y="455.4" width="604.44" height="5.98"/>
            <path class="cls-95" d="M483.77,456.06s9.96-29.23,41.51-18.6c0,0,7.97-24.91,29.89-24.08,21.92.83,28.89,21.33,28.89,21.33,0,0,29.45-3.56,33.65,21.35h-133.95Z"/>
            <g>
              <path class="cls-91" d="M550.5,455.91l-1.31-.21c2.83-17.56-8.06-30.2-8.17-30.33l1-.88c.11.13,11.42,13.22,8.49,31.42Z"/>
              <path class="cls-91" d="M550.83,445.17l-1.02-.85c.1-.12,10.08-12.05,11.78-19.52l1.3.29c-1.77,7.78-11.64,19.58-12.05,20.08Z"/>
              <path class="cls-91" d="M550.27,451.49c-7.86-.43-14.81-8.52-15.1-8.86l1.01-.86c.07.08,6.88,8,14.16,8.39l-.07,1.33Z"/>
            </g>
            <path class="cls-91" d="M574.99,456.56l-.87-1.01c.57-.49,13.94-11.98,20.92-12.17l.04,1.33c-6.51.18-19.95,11.73-20.09,11.85Z"/>
            <path class="cls-91" d="M601,454.34c-.11,0-10.75-.65-19.37-2.88l.33-1.29c8.49,2.19,19.01,2.83,19.11,2.84l-.08,1.33Z"/>
            <path class="cls-91" d="M521.69,455.9c-7.01-5.83-21.8-10.49-21.95-10.53l.4-1.27c.62.19,15.2,4.79,22.41,10.78l-.85,1.02Z"/>
            <path class="cls-91" d="M516.42,451.3l-1.33-.04c.17-5.91-2.39-10.52-2.42-10.57l1.16-.65c.11.2,2.77,4.98,2.59,11.26Z"/>
            <path class="cls-95" d="M13.28,456.06s2.66-24.24,30.22-22.92c0,0,2.66-19.26,18.27-24.08,15.61-4.82,33.88,3.99,38.19,23.5,0,0,13.28-11.35,31.22-4.22,17.93,7.13,14.61,27.72,14.61,27.72H13.28Z"/>
            <path class="cls-91" d="M78.99,455.45c-1.91-23.84-15.18-35.91-15.31-36.03l.88-.99c.14.12,13.8,12.52,15.75,36.92l-1.32.11Z"/>
            <path class="cls-91" d="M77.87,447.38c-.2-10.15,7.5-22.75,7.82-23.28l1.13.7c-.08.13-7.82,12.79-7.63,22.55l-1.33.03Z"/>
            <path class="cls-91" d="M104,455.83l-1-.87c.56-.64,13.87-15.77,27.7-17.16l.13,1.32c-13.3,1.34-26.7,16.56-26.83,16.71Z"/>
            <path class="cls-91" d="M128.57,450.62c-3.48,0-10.53-.25-17.39-2.02l.33-1.29c9.38,2.41,19.12,1.95,19.21,1.94l.07,1.33s-.85.04-2.23.04Z"/>
            <path class="cls-91" d="M47.74,455.92c-6.05-4.57-19.73-7.87-19.86-7.91l.31-1.29c.57.14,14.08,3.4,20.35,8.14l-.8,1.06Z"/>
            <path class="cls-91" d="M44.39,453.71c-3.7-8.09-2-13.24-1.93-13.46l1.26.43s-1.58,4.91,1.88,12.48l-1.21.55Z"/>
            <g>
              <g class="cls-98">
                <path class="cls-88" d="M53.14,137.87c0,2.19.84,4.18,2.21,5.67h121.97l1.12-.75c1.13-.75,2.12-1.71,2.83-2.87.46-.77.78-1.55.98-2.35,1.27-5.12-2.29-10.36-7.52-10.64-2.3-.12-4.4.72-5.97,2.15.01-.24.04-.48.04-.72,0-7.08-5.68-12.81-12.69-12.81-6.15,0-11.27,4.42-12.44,10.28-.16.82-.25,1.66-.25,2.53,0,.41.02.81.06,1.21h-.06c-2.37,0-4.51,1.01-6.02,2.63h0c-.06-1.4-.47-2.71-1.14-3.85-1.43-2.44-4.06-4.08-7.07-4.08-3.5,0-6.49,2.21-7.67,5.33-1.51-1.64-3.65-2.68-6.04-2.68-1.99,0-3.81.71-5.23,1.9-.69-5.84-5.6-10.37-11.57-10.37-1.95,0-3.78.49-5.39,1.34-2.91-6.58-9.7-11.03-17.43-10.34-9.87.87-17.07,10.18-15.62,20.07,0,.04.01.09.02.13-3.13.42-5.71,2.63-6.69,5.59-.28.83-.43,1.72-.43,2.65Z"/>
              </g>
              <path class="cls-48" d="M218.79,105.53c0,1.05.18,2.06.5,3.01h.94v.04h9.02s.19,0,.19,0h6.99s.02.01.03.02c.06.06.13.11.19.16.02-.05.04-.11.06-.16,0,0,0-.02,0-.03l17.83-.02h10.76s4.39-.01,4.39-.01h9.67s13.82-.02,13.82-.02h.04s.02,0,.05,0c.36,0,2.3,0,2.43,0h.06l22.88-.02h4.99s0,0,0,0c.01,0,.02,0,.03,0,.1.01.57.02,1.19,0,1.45-.02,3.72-.08,3.96-.1,0,0,3.22-2.31,3.1-6.8-.11-3.89-3.52-6.7-7.26-6.7-.76,0-1.49.13-2.17.37.08-.51.14-1.04.14-1.58,0-5.22-4.19-9.45-9.36-9.45-2.26,0-4.34.81-5.96,2.16-2.53-4.53-7.33-7.59-12.85-7.59-7.04,0-12.92,4.98-14.38,11.64-.16.7-.26,1.42-.31,2.15,0,0,0,0,0,0-.1-.07-.21-.14-.31-.21-1.43-.9-3.11-1.41-4.92-1.41-4.25,0-7.84,2.86-8.98,6.77-1.16-.96-2.65-1.54-4.27-1.54-.06,0-.11,0-.17,0-.82.02-1.59.18-2.31.46-.4-2.92-1.71-5.55-3.65-7.57-2.44-2.56-5.87-4.15-9.67-4.15-6.97,0-12.7,5.36-13.37,12.22-1.23-.62-2.63-.97-4.1-.97-5.09,0-9.22,4.17-9.22,9.31Z"/>
              <g class="cls-32">
                <path class="cls-60" d="M498.14,278.95c0,.84.32,1.6.85,2.18h46.83l.43-.29c.43-.29.82-.65,1.09-1.1.18-.3.3-.6.38-.9.49-1.97-.88-3.98-2.89-4.09-.88-.05-1.69.28-2.29.82,0-.09.01-.18.01-.28,0-2.72-2.18-4.92-4.87-4.92-2.36,0-4.33,1.7-4.78,3.95-.06.31-.09.64-.09.97,0,.16,0,.31.02.46h-.02c-.91,0-1.73.39-2.31,1.01h0c-.02-.54-.18-1.04-.44-1.48-.55-.94-1.56-1.56-2.71-1.56-1.34,0-2.49.85-2.95,2.05-.58-.63-1.4-1.03-2.32-1.03-.76,0-1.46.27-2.01.73-.26-2.24-2.15-3.98-4.44-3.98-.75,0-1.45.19-2.07.51-1.12-2.53-3.72-4.23-6.69-3.97-3.79.34-6.55,3.91-6,7.71,0,.02,0,.03,0,.05-1.2.16-2.19,1.01-2.57,2.15-.11.32-.17.66-.17,1.02Z"/>
              </g>
              <g class="cls-73">
                <path class="cls-88" d="M141.3,303.3c0,3.59,1.38,6.84,3.62,9.28h199.76l1.84-1.23c1.84-1.23,3.48-2.79,4.63-4.7.76-1.26,1.28-2.54,1.61-3.85,2.08-8.39-3.76-16.97-12.31-17.43-3.77-.2-7.21,1.18-9.77,3.52.02-.39.06-.78.06-1.18,0-11.59-9.3-20.98-20.78-20.98-10.07,0-18.46,7.23-20.37,16.84-.26,1.34-.4,2.72-.4,4.14,0,.67.04,1.32.1,1.97h-.1c-3.89,0-7.38,1.66-9.85,4.31h0c-.1-2.29-.77-4.44-1.87-6.31-2.34-4-6.65-6.67-11.58-6.67-5.73,0-10.62,3.63-12.56,8.72-2.47-2.69-5.98-4.39-9.9-4.39-3.25,0-6.24,1.17-8.57,3.11-1.13-9.57-9.17-16.99-18.95-16.99-3.19,0-6.19.8-8.83,2.19-4.76-10.77-15.88-18.06-28.55-16.93-16.16,1.43-27.96,16.67-25.58,32.87,0,.07.02.14.03.21-5.13.69-9.36,4.31-10.96,9.15-.46,1.36-.71,2.81-.71,4.33Z"/>
              </g>
              <path class="cls-48" d="M175.27,195.96c0,3.21,1.3,6.12,3.42,8.3h188.74l1.74-1.1c1.74-1.1,3.29-2.5,4.37-4.21.72-1.13,1.21-2.27,1.52-3.45,1.96-7.51-3.55-15.18-11.63-15.59-3.56-.18-6.81,1.05-9.23,3.15.02-.35.05-.7.05-1.05,0-10.37-8.79-18.77-19.63-18.77-9.51,0-17.45,6.47-19.25,15.07-.25,1.2-.38,2.44-.38,3.71,0,.6.03,1.19.09,1.77h-.09c-3.67,0-6.97,1.48-9.31,3.86h0c-.1-2.05-.73-3.98-1.76-5.64-2.21-3.58-6.28-5.97-10.94-5.97-5.42,0-10.04,3.24-11.87,7.81-2.33-2.41-5.65-3.93-9.35-3.93-3.07,0-5.9,1.05-8.09,2.78-1.07-8.56-8.67-15.2-17.9-15.2-3.01,0-5.84.72-8.34,1.96-4.5-9.64-15-16.16-26.97-15.15-15.27,1.28-26.41,14.92-24.17,29.42,0,.06.02.13.03.19-4.85.62-8.84,3.86-10.36,8.19-.44,1.22-.67,2.52-.67,3.88Z"/>
              <g class="cls-67">
                <path class="cls-88" d="M124.47,237.7c0,1.88.72,3.59,1.9,4.87h104.86l.97-.64c.97-.65,1.83-1.47,2.43-2.47.4-.66.67-1.33.84-2.02,1.09-4.41-1.97-8.91-6.46-9.15-1.98-.11-3.79.62-5.13,1.85.01-.2.03-.41.03-.62,0-6.08-4.88-11.01-10.91-11.01-5.28,0-9.69,3.8-10.69,8.84-.14.7-.21,1.43-.21,2.17,0,.35.02.7.05,1.04h-.05c-2.04,0-3.87.87-5.17,2.26h0c-.05-1.2-.4-2.33-.98-3.31-1.23-2.1-3.49-3.5-6.08-3.5-3.01,0-5.58,1.9-6.6,4.58-1.29-1.41-3.14-2.31-5.2-2.31-1.71,0-3.28.61-4.5,1.63-.59-5.02-4.81-8.92-9.95-8.92-1.67,0-3.25.42-4.64,1.15-2.5-5.66-8.34-9.48-14.99-8.89-8.48.75-14.68,8.75-13.43,17.26,0,.04,0,.08.02.11-2.7.36-4.91,2.26-5.75,4.81-.24.71-.37,1.48-.37,2.27Z"/>
              </g>
              <path class="cls-88" d="M511.24,254.78c0,1.44.55,2.75,1.45,3.73h80.26l.74-.49c.74-.49,1.4-1.12,1.86-1.89.31-.51.52-1.02.65-1.55.83-3.37-1.51-6.82-4.95-7-1.52-.08-2.9.47-3.93,1.41,0-.16.02-.31.02-.47,0-4.66-3.74-8.43-8.35-8.43-4.04,0-7.42,2.91-8.19,6.77-.11.54-.16,1.09-.16,1.66,0,.27.01.53.04.79h-.04c-1.56,0-2.97.67-3.96,1.73h0c-.04-.92-.31-1.79-.75-2.53-.94-1.61-2.67-2.68-4.65-2.68-2.3,0-4.27,1.46-5.05,3.51-.99-1.08-2.4-1.76-3.98-1.76-1.31,0-2.51.47-3.44,1.25-.45-3.84-3.69-6.83-7.61-6.83-1.28,0-2.49.32-3.55.88-1.91-4.33-6.38-7.26-11.47-6.8-6.49.58-11.23,6.7-10.28,13.21,0,.03,0,.06.01.08-2.06.28-3.76,1.73-4.4,3.68-.19.55-.28,1.13-.28,1.74Z"/>
              <path class="cls-48" d="M444.42,144.4c0,.89.34,1.7.9,2.31h49.72l.46-.31c.46-.31.87-.7,1.15-1.17.19-.31.32-.63.4-.96.52-2.09-.93-4.22-3.06-4.34-.94-.05-1.79.29-2.43.88,0-.1.01-.19.01-.29,0-2.88-2.32-5.22-5.17-5.22-2.51,0-4.6,1.8-5.07,4.19-.07.33-.1.68-.1,1.03,0,.17,0,.33.02.49h-.02c-.97,0-1.84.41-2.45,1.07h0c-.03-.57-.19-1.11-.46-1.57-.58-.99-1.65-1.66-2.88-1.66-1.43,0-2.64.9-3.13,2.17-.61-.67-1.49-1.09-2.46-1.09-.81,0-1.55.29-2.13.77-.28-2.38-2.28-4.23-4.72-4.23-.79,0-1.54.2-2.2.55-1.18-2.68-3.95-4.49-7.11-4.21-4.02.36-6.96,4.15-6.37,8.18,0,.02,0,.04,0,.05-1.28.17-2.33,1.07-2.73,2.28-.11.34-.18.7-.18,1.08Z"/>
              <g class="cls-73">
                <path class="cls-88" d="M479.08,164.77c0,.46.18.87.46,1.18h25.47l.23-.16c.24-.16.44-.36.59-.6.1-.16.16-.32.2-.49.26-1.07-.48-2.16-1.57-2.22-.48-.03-.92.15-1.25.45,0-.05,0-.1,0-.15,0-1.48-1.19-2.68-2.65-2.68-1.28,0-2.35.92-2.6,2.15-.03.17-.05.35-.05.53,0,.09,0,.17.01.25h-.01c-.5,0-.94.21-1.26.55h0c-.01-.29-.1-.57-.24-.8-.3-.51-.85-.85-1.48-.85-.73,0-1.35.46-1.6,1.11-.31-.34-.76-.56-1.26-.56-.41,0-.8.15-1.09.4-.14-1.22-1.17-2.17-2.42-2.17-.41,0-.79.1-1.13.28-.61-1.37-2.03-2.3-3.64-2.16-2.06.18-3.57,2.13-3.26,4.19,0,0,0,.02,0,.03-.65.09-1.19.55-1.4,1.17-.06.17-.09.36-.09.55Z"/>
              </g>
            </g>
          </g>
          <g>
            <g class="cls-98">
              <path class="cls-45" d="M553.25,197.35h0c0-1.24-.5-2.36-1.32-3.17-.81-.81-1.94-1.32-3.18-1.32-2.48,0-4.49,2.01-4.49,4.49,0-2.48-2.01-4.49-4.49-4.49s-4.49,2.01-4.49,4.49c0,0-.28,2.7,2.56,6.23,2.62,3.25,6.07,5.07,6.4,5.24h0s0,.01.01,0c0,0,.01,0,.01,0h0c.34-.19,3.79-2,6.4-5.25,2.84-3.53,2.56-6.23,2.56-6.23ZM551.52,201.89h-3.33l-.53,2.6c-.04.22-.23.37-.45.37h-.01c-.22,0-.41-.17-.44-.4l-.91-6.68-1.38,4.41c-.06.19-.24.32-.44.32h0c-.2,0-.37-.13-.44-.32l-.51-1.57-1.14,3.27c-.07.21-.27.33-.49.3-.22-.03-.38-.2-.4-.41l-.25-2.69-.07.44c-.04.22-.23.38-.45.38h-2.53v-.72h2.31l.37-2.18c.04-.23.23-.38.47-.38.23,0,.42.18.44.42l.32,3.48,1-2.88c.06-.18.24-.31.43-.31h0c.2,0,.37.13.43.32l.5,1.53,1.48-4.74c.06-.21.26-.34.48-.32.22.02.39.18.42.39l.86,6.31.27-1.31c.04-.21.23-.37.45-.37h3.55v.72Z"/>
            </g>
            <g class="cls-98">
              <path class="cls-45" d="M50.05,188.5c-.43-.7-1.06-1.27-1.35-1.52v-1.15h.06c.24,0,.43-.19.43-.43v-1.24c0-.24-.19-.43-.43-.43h-8.38c-.24,0-.43.19-.43.43v1.24c0,.24.19.43.43.43h.12l-.03,1.12c-.25.19-.9.73-1.28,1.34-.42.68-.66,1.21-.79,1.76-.08.33-.12.69-.12,1.07v15.02c0,.85.69,1.54,1.54,1.54h9.48c.85,0,1.54-.69,1.54-1.54v-15.33c0-.48-.25-1.41-.8-2.31ZM48.05,184.14c0-.09.08-.17.17-.17s.17.08.17.17v1.23h-.06v.16s-.07.04-.11.04c-.09,0-.17-.08-.17-.17v-1.27ZM47.14,184.14c0-.09.08-.17.17-.17s.17.08.17.17v1.27c0,.09-.08.17-.17.17s-.17-.08-.17-.17v-1.27ZM46.23,184.14c0-.09.08-.17.17-.17s.17.08.17.17v1.27c0,.09-.08.17-.17.17s-.17-.08-.17-.17v-1.27ZM45.31,184.14c0-.09.08-.17.17-.17s.17.08.17.17v1.27c0,.09-.08.17-.17.17s-.17-.08-.17-.17v-1.27ZM44.4,184.14c0-.09.08-.17.17-.17s.17.08.17.17v1.27c0,.09-.08.17-.17.17s-.17-.08-.17-.17v-1.27ZM43.49,184.14c0-.09.08-.17.17-.17s.17.08.17.17v1.27c0,.09-.08.17-.17.17s-.17-.08-.17-.17v-1.27ZM42.57,184.14c0-.09.08-.17.17-.17s.17.08.17.17v1.27c0,.09-.08.17-.17.17s-.17-.08-.17-.17v-1.27ZM41.66,184.14c0-.09.08-.17.17-.17s.17.08.17.17v1.27c0,.09-.08.17-.17.17s-.17-.08-.17-.17v-1.27ZM40.75,184.14c0-.09.08-.17.17-.17s.17.08.17.17v1.27c0,.09-.08.17-.17.17s-.17-.08-.17-.17v-1.27ZM50.35,206.14c0,.57-.47,1.04-1.04,1.04h-9.48c-.57,0-1.04-.47-1.04-1.04v-15.02c0-.34.04-.66.11-.96.12-.5.34-.98.73-1.62.41-.67,1.24-1.27,1.24-1.28l.1-.07.03-1.38h7.19v1.39l.09.08c.14.12.88.73,1.33,1.47.53.87.73,1.7.73,2.05v15.33Z"/>
              <path class="cls-45" d="M48.91,201.48l-1.32.81-1.32.81c-.34.21-.45.66-.24,1,.21.34.66.45,1,.24l1.32-.81,1.32-.81c.34-.21.45-.66.24-1-.21-.34-.66-.45-1-.24Z"/>
              <path class="cls-45" d="M49.75,205.09c-.1-.39-.5-.62-.89-.52l-1.49.4-1.49.4c-.39.1-.62.5-.52.89.1.39.5.62.89.52l1.49-.4,1.49-.4c.39-.1.62-.5.52-.89h0Z"/>
              <path class="cls-45" d="M40.54,202.7l1.12,1.06c.29.28.75.26,1.03-.03.28-.29.26-.75-.03-1.03l-1.12-1.06-1.12-1.06c-.29-.28-.75-.26-1.03.03-.28.29-.26.75.03,1.03l1.12,1.06Z"/>
              <path class="cls-45" d="M44.63,200.55l1.49.4,1.49.4c.39.1.79-.13.89-.51s-.13-.79-.51-.89l-1.49-.4-1.49-.4c-.39-.1-.79.13-.89.51h0c-.1.39.13.79.51.89Z"/>
              <path class="cls-45" d="M43.88,199.99l-1.3-.83-1.3-.83c-.34-.22-.79-.12-1.01.22-.22.34-.12.79.22,1.01l1.3.83,1.3.83c.34.22.79.12,1.01-.22.22-.34.12-.79-.22-1.01Z"/>
              <path class="cls-45" d="M40.67,195.6l.71,1.37c.19.36.63.49.98.31s.49-.63.31-.98l-.71-1.37-.71-1.37c-.19-.36-.63-.49-.98-.31-.36.19-.49.63-.31.98l.71,1.37Z"/>
              <path class="cls-45" d="M43.69,198.04c.38.14.8-.06.93-.44l.52-1.45.52-1.45c.14-.38-.06-.8-.44-.93-.38-.14-.8.06-.93.44l-.52,1.45-.52,1.45c-.14.38.06.8.44.93Z"/>
              <path class="cls-45" d="M42.81,205.19l-1.3-.83-1.3-.83c-.34-.22-.79-.12-1.01.22-.22.34-.12.79.22,1.01l1.3.83,1.3.83c.34.22.79.12,1.01-.22s.12-.79-.22-1.01Z"/>
              <path class="cls-45" d="M45.72,201.79c-.36-.19-.8-.05-.98.3l-.72,1.37-.72,1.37c-.19.36-.05.8.3.98.36.19.8.05.98-.3l.72-1.37.72-1.37c.19-.36.05-.8-.3-.98Z"/>
              <path class="cls-45" d="M47.8,196.41c-.25-.31-.71-.36-1.02-.11h0c-.31.25-.36.71-.11,1.02l.97,1.2.97,1.2c.25.31.71.36,1.02.11.31-.25.36-.71.11-1.02l-.97-1.2-.98-1.2Z"/>
              <path class="cls-45" d="M48,188.07s0,0,0,0c-.07-.03-.15-.06-.24-.09-.15-.06-.31-.12-.47-.17-.08-.03-.16-.05-.24-.08-.24-.07-.44-.11-.5-.07-.02.01-.03.04,0,.09.03.06.12.14.26.26.14.11.25.24.36.39.77,1.12.73,3.19.73,3.19l.08,4.09c0,.19.16.34.35.34h1.04c.2,0,.36-.16.35-.36l-.08-4.05c0-1.49-.44-2.4-.81-2.9-.21-.29-.5-.51-.84-.64Z"/>
            </g>
            <g class="cls-98">
              <path class="cls-45" d="M69.47,313.51h-.35c-.24,0-.44.17-.49.4h-1.32v-8.64s0,0,0,0c.21-.08.36-.28.36-.51v-.05c0-.3-.25-.55-.55-.55h-4.51c-.3,0-.55.25-.55.55v.05c0,.23.15.43.35.51,0,0,0,.01,0,.02v8.63s-2.87,0-2.87,0v-8.64s0,0,0,0c.21-.08.36-.28.36-.51v-.05c0-.3-.25-.55-.55-.55h-4.51c-.3,0-.55.25-.55.55v.05c0,.23.15.43.35.51,0,0,0,.01,0,.02v8.63s-2.92,0-2.92,0v-8.64s0,0,0,0c.21-.08.36-.28.36-.51v-.05c0-.3-.25-.55-.55-.55h-4.51c-.3,0-.55.25-.55.55v.05c0,.23.15.43.35.51,0,0,0,.01,0,.02v8.63s-1.16,0-1.16,0c-.05-.23-.25-.4-.49-.4h-.35c-.27,0-.5.22-.5.5v.35c0,.23.15.42.36.48v5.89c0,1.88,1.53,3.41,3.41,3.41h18.13c1.88,0,3.41-1.53,3.41-3.41v-5.89c.21-.06.36-.25.36-.48v-.35c0-.27-.22-.5-.5-.5ZM62.98,312.82h3.77v1.09s0,.53,0,.53v5.75c0,1.04-.84,1.89-1.88,1.89-1.04,0-1.89-.84-1.89-1.88v-5.75s0-.53,0-.53v-1.09ZM55.19,309.12h3.77v4.79s0,.53,0,.53v5.78c0,1.04-.84,1.89-1.88,1.89-1.04,0-1.89-.84-1.89-1.88v-5.79s0-.53,0-.53v-4.79ZM51.14,320.22c0,1.04-.84,1.89-1.88,1.89-1.04,0-1.89-.84-1.89-1.88v-2.73s3.77,0,3.77,0v2.72ZM66.2,323.52h-18.13c-1.54,0-2.79-1.25-2.79-2.79v-5.89c.18-.05.33-.21.36-.4h1.17v5.95c0,1.3,1.06,2.35,2.36,2.35h.2c1.3,0,2.35-1.06,2.35-2.36v-5.95s2.92,0,2.92,0v5.95c0,1.3,1.06,2.35,2.36,2.35h.2c1.3,0,2.35-1.06,2.35-2.36v-5.95s2.88,0,2.88,0v5.95c0,1.3,1.06,2.35,2.36,2.35h.19c1.3,0,2.35-1.06,2.35-2.36v-5.95s1.31,0,1.31,0c.03.19.17.35.36.4v5.89c0,1.54-1.25,2.79-2.79,2.79Z"/>
            </g>
            <g class="cls-98">
              <g>
                <path class="cls-45" d="M425.01,107.13c.02-.06.02-.12.02-.19,0-.06-.01-.13-.04-.19-.02-.07-.06-.15-.12-.22,0,0,0,0,0,0-.77-1.07-4.31-1.8-8.91-1.87l-.64.64-1.75,1.78h-.05s-.82.84-.82.84h.04s0,0,0,0l-2.4,2.44c.88,0,1.79-.01,2.72-.06,5.13-.24,9.47-1.18,11.18-2.31l.1,2.26c.04,1-4.18,2.61-11.16,2.95-.78.04-1.56.06-2.32.06-5.85,0-9.02-1.11-9.06-1.91l-.11-2.3h0s0,0,0,0c1.32.7,4.05,1.18,7.44,1.29l2.36-2.36.84-.84,2.48-2.48c-.66,0-1.34.02-2.03.06-6.12.29-11.13,1.58-11.86,2.98-.04.07-.06.14-.07.2-.02.06-.02.12-.02.18,0,.06.01.12.03.18l.14,3.13c.09,1.97,5.36,2.67,9.85,2.67.77,0,1.56-.02,2.36-.06,5.99-.29,12.01-1.68,11.91-3.78l-.14-3.09Z"/>
                <polygon class="cls-45" points="414.84 104.66 414.84 104.66 414.85 104.66 414.84 104.66"/>
              </g>
            </g>
            <g class="cls-98">
              <path class="cls-45" d="M626.66,288.26h-.43c-.08-.26-.32-.44-.6-.44h-1.41c-.28,0-.52.19-.6.44h-1.32v-1.23c0-.81-.66-1.47-1.47-1.47h-6.2c-.81,0-1.47.66-1.47,1.47v1.23h-1.32c-.08-.26-.32-.44-.6-.44h-1.41c-.28,0-.52.19-.6.44h-.43c-.51,0-.93.42-.93.93v11.55c0,.51.42.93.93.93h17.87c.51,0,.93-.42.93-.93v-11.55c0-.51-.42-.93-.93-.93ZM614.05,287.02c0-.31.26-.57.57-.57h6.2c.32,0,.57.26.57.57v1.23h-7.34v-1.23ZM626.63,300.22c0,.46-.38.84-.84.84h-16.13c-.47,0-.84-.38-.84-.84v-10.52c0-.3.16-.56.39-.71.03-.02.06-.04.09-.05.03-.02.07-.03.1-.04.04-.01.08-.02.12-.03s.09,0,.13,0h16.13s.09,0,.13,0,.08.02.12.03c.07.02.14.05.2.09.24.15.39.41.39.71v10.52Z"/>
              <path class="cls-45" d="M617.72,291.82c-1.74,0-3.15,1.41-3.15,3.15s1.41,3.15,3.15,3.15,3.15-1.41,3.15-3.15-1.41-3.15-3.15-3.15ZM619.6,295.32h-1.53v1.53h-.71v-1.53h-1.53v-.71h1.53v-1.53h.71v1.53h1.53v.71Z"/>
            </g>
          </g>
          <g>
            <path class="cls-78" d="M31.27,302.74s-.04,0-.06,0c-.94-.03-1.69-.76-1.78-1.73l-4.74-47.31-3.41,31.09c-.1.95-.85,1.67-1.76,1.71-.9.04-1.7-.61-1.89-1.54l-1.51-7.63h-2.27c-.78,0-1.48-.52-1.74-1.28l-1.55-4.58-1.65,4.71c-.27.77-.96,1.29-1.78,1.26l-4.22-.1.08-3.21,3.21.08,2.65-7.56c.26-.76.96-1.26,1.74-1.26h0c.78,0,1.48.52,1.74,1.28l2.52,7.46h2.4c.87,0,1.61.61,1.8,1.49l3.86-35.18c.11-.98.88-1.7,1.85-1.71.95,0,1.73.75,1.83,1.73l5.01,49.98,3.31-20.09c.16-.95.93-1.63,1.88-1.6.93.03,1.69.75,1.79,1.71l.4,3.74,1.32-3.29c.27-.68.88-1.13,1.58-1.18.7-.05,1.35.31,1.71.93l2.09,3.65h25.93l2.81-7.19c.29-.73.96-1.2,1.71-1.2h0c.76,0,1.43.47,1.71,1.2l2.57,6.66h2.14c.88,0,1.63.63,1.81,1.53h0s3.61-33.68,3.61-33.68c.11-.99.88-1.71,1.84-1.71h0c.95,0,1.73.72,1.84,1.7l5.36,48.22,3.25-20.55c.15-.94.91-1.61,1.83-1.61,0,0,.02,0,.03,0,.93.01,1.69.72,1.81,1.67l.54,4.15,1.15-2.62c.28-.64.87-1.06,1.54-1.12.66-.05,1.31.27,1.68.84l2.46,3.82,25.34-.32,3.26-7.59c.31-.71,1.01-1.15,1.74-1.14.75.02,1.41.51,1.68,1.24l2.69,7.41,2.24.07c.68.02,1.29.43,1.59,1.04l3.63-31.84c.11-.99.89-1.7,1.84-1.7s1.73.72,1.84,1.7l5.32,46.69,3.06-18.19c.15-.91.91-1.58,1.8-1.59,0,0,.01,0,.02,0,.88,0,1.64.65,1.81,1.55l.45,2.36,1.19-2.72c.27-.61.81-1.03,1.45-1.11.63-.08,1.25.17,1.66.68l2.46,3.11,3.58-.09.08,3.21-4.28.1c-.58.01-1.11-.24-1.47-.7l-1.45-1.83-2.05,4.69c-.33.76-1.1,1.2-1.89,1.11-.61-.07-1.14-.45-1.42-.99l-3.45,20.48c-.16.95-.95,1.63-1.87,1.59-.93-.02-1.68-.74-1.79-1.7l-5.06-44.41-3.18,27.87c-.11.94-.84,1.65-1.75,1.7-.91.05-1.69-.58-1.89-1.49l-1.41-6.36-2.11-.06c-.75-.02-1.41-.51-1.68-1.24l-1.81-4.99-2.23,5.2c-.29.68-.95,1.13-1.66,1.14l-27.03.34c-.62,0-1.21-.31-1.56-.85l-1.47-2.28-2.1,4.81c-.34.78-1.12,1.22-1.94,1.11-.73-.1-1.3-.62-1.51-1.33l-3.36,21.26c-.15.96-.96,1.65-1.87,1.61-.93-.02-1.69-.74-1.8-1.7l-5.1-45.88-3.22,30.06c-.1.95-.84,1.67-1.76,1.71-.9.03-1.71-.6-1.89-1.53l-1.54-7.64h-1.96c-.76,0-1.43-.47-1.72-1.2l-1.63-4.21-1.85,4.74c-.28.73-.96,1.2-1.71,1.2h-27.69c-.65,0-1.26-.36-1.59-.93l-1.07-1.86-2.31,5.77c-.32.8-1.12,1.28-1.95,1.16-.66-.09-1.21-.54-1.46-1.16l-3.4,20.61c-.15.94-.91,1.6-1.82,1.6Z"/>
            <path class="cls-78" d="M503.4,377.89s-.04,0-.06,0c-.94-.03-1.69-.76-1.78-1.73l-4.74-47.31-3.41,31.09c-.1.95-.85,1.67-1.76,1.71-.9.04-1.7-.61-1.89-1.54l-1.51-7.63h-2.27c-.78,0-1.48-.52-1.74-1.28l-1.55-4.58-1.65,4.71c-.27.77-.96,1.29-1.78,1.26l-4.22-.1.08-3.21,3.21.08,2.65-7.56c.26-.76.96-1.26,1.74-1.26h0c.78,0,1.48.52,1.74,1.28l2.52,7.46h2.4c.87,0,1.61.61,1.8,1.49l3.86-35.18c.11-.98.88-1.7,1.85-1.71.95,0,1.73.75,1.83,1.73l5.01,49.98,3.31-20.09c.16-.95.93-1.63,1.88-1.6.93.03,1.69.75,1.79,1.71l.4,3.74,1.32-3.29c.27-.68.88-1.13,1.58-1.18.7-.05,1.35.31,1.71.93l2.09,3.65h25.93l2.81-7.19c.29-.73.96-1.2,1.71-1.2h0c.76,0,1.43.47,1.71,1.2l2.57,6.66h2.14c.88,0,1.63.63,1.81,1.53h0s3.61-33.68,3.61-33.68c.11-.99.88-1.71,1.84-1.71h0c.95,0,1.73.72,1.84,1.7l5.36,48.22,3.25-20.55c.15-.94.91-1.61,1.83-1.61,0,0,.02,0,.03,0,.93.01,1.69.72,1.81,1.67l.54,4.15,1.15-2.62c.28-.64.87-1.06,1.54-1.12.66-.05,1.31.27,1.68.84l2.46,3.82,25.34-.32,3.26-7.59c.31-.71,1.01-1.15,1.74-1.14.75.02,1.41.51,1.68,1.24l2.69,7.41,2.24.07c.68.02,1.29.43,1.59,1.04l3.63-31.84c.11-.99.89-1.7,1.84-1.7s1.73.72,1.84,1.7l5.32,46.69,3.06-18.19c.15-.91.91-1.58,1.8-1.59,0,0,.01,0,.02,0,.88,0,1.64.65,1.81,1.55l.45,2.36,1.19-2.72c.27-.61.81-1.03,1.45-1.11.63-.08,1.25.17,1.66.68l2.46,3.11,3.58-.09.08,3.21-4.28.1c-.58.01-1.11-.24-1.47-.7l-1.45-1.83-2.05,4.69c-.33.76-1.1,1.2-1.89,1.11-.61-.07-1.14-.45-1.42-.99l-3.45,20.48c-.16.95-.95,1.63-1.87,1.59-.93-.02-1.68-.74-1.79-1.7l-5.06-44.41-3.18,27.87c-.11.94-.84,1.65-1.75,1.7-.91.05-1.69-.58-1.89-1.49l-1.41-6.36-2.11-.06c-.75-.02-1.41-.51-1.68-1.24l-1.81-4.99-2.23,5.2c-.29.68-.95,1.13-1.66,1.14l-27.03.34c-.62,0-1.21-.31-1.56-.85l-1.47-2.28-2.1,4.81c-.34.78-1.12,1.22-1.94,1.11-.73-.1-1.3-.62-1.51-1.33l-3.36,21.26c-.15.96-.96,1.65-1.87,1.61-.93-.02-1.69-.74-1.8-1.7l-5.1-45.88-3.22,30.06c-.1.95-.84,1.67-1.76,1.71-.9.03-1.71-.6-1.89-1.53l-1.54-7.64h-1.96c-.76,0-1.43-.47-1.72-1.2l-1.63-4.21-1.85,4.74c-.28.73-.96,1.2-1.71,1.2h-27.69c-.65,0-1.26-.36-1.59-.93l-1.07-1.86-2.31,5.77c-.32.8-1.12,1.28-1.95,1.16-.66-.09-1.21-.54-1.46-1.16l-3.4,20.61c-.15.94-.91,1.6-1.82,1.6Z"/>
            <g>
              <g>
                <rect class="cls-79" x="102.04" y="362.01" width="403.72" height="69.09" rx="23.19" ry="23.19"/>
                <path class="cls-79" d="M335.54,415.5l4.18,9.87c2.87,6.78,9.52,11.19,16.89,11.19h50.93v-21.06h-72Z"/>
                <path class="cls-79" d="M133.56,415.5l4.18,9.87c2.87,6.78,9.52,11.19,16.89,11.19h50.93v-21.06h-72Z"/>
              </g>
              <g>
                <path class="cls-97" d="M535.28,362.55v52.95h-51.57l-12.19-42.22-2.02-6.98h-78.13l-2.02,6.98-12.19,42.22h-124.72l-12.18-42.22-2.02-6.98h-78.14l-2.02,6.98-12.19,42.22h-61.95s-.34-17.95.53-42.22c.44-12.36,1.19-26.36,2.47-40.45,2.5-27.48,6.98-55.31,14.97-72.03h300.9l44.82,44.1,64.83,24.6c2.34.89,4.56,2.02,6.6,3.34,9.96,6.4,16.21,17.53,16.21,29.72Z"/>
                <line class="cls-53" x1="358.81" y1="390.9" x2="384.26" y2="390.9"/>
                <path class="cls-56" d="M535.28,362.55v10.73H84.48c.44-12.36,1.19-26.36,2.47-40.45h432.13c9.96,6.4,16.21,17.53,16.21,29.72Z"/>
                <path class="cls-53" d="M395.27,257.19l46.39,51.46c3.26,3.61,5.06,8.3,5.06,13.17v44.48"/>
                <path class="cls-53" d="M258.75,260.8v119.69c0,5.75,4.66,10.4,10.4,10.4h89.66v-130.1"/>
                <path class="cls-79" d="M375.46,355.89h0c-2.17,0-3.93-1.76-3.93-3.93v-5.63c0-2.17,1.76-3.93,3.93-3.93h0c2.17,0,3.93,1.76,3.93,3.93v5.63c0,2.17-1.76,3.93-3.93,3.93Z"/>
                <path class="cls-79" d="M273.07,355.89h0c-2.17,0-3.93-1.76-3.93-3.93v-5.63c0-2.17,1.76-3.93,3.93-3.93h0c2.17,0,3.93,1.76,3.93,3.93v5.63c0,2.17-1.76,3.93-3.93,3.93Z"/>
                <g>
                  <rect class="cls-89" x="128.39" y="281.26" width="8.24" height="40.9"/>
                  <rect class="cls-89" x="112.05" y="297.59" width="40.9" height="8.24" transform="translate(-174.53 182.06) rotate(-45)"/>
                  <rect class="cls-89" x="112.05" y="297.59" width="40.9" height="8.24"/>
                  <rect class="cls-89" x="128.39" y="281.26" width="8.24" height="40.9" transform="translate(-174.53 182.06) rotate(-45)"/>
                </g>
                <text class="cls-51" transform="translate(155.2 305.47)"><tspan x="0" y="0">AMBU</tspan><tspan class="cls-49" x="46.76" y="0">L</tspan><tspan x="55.52" y="0">ANCE</tspan></text>
                <path class="cls-77" d="M529.6,422.6h-35.23c-9.42,0-17.83-6.32-20.44-15.38l-7.63-26.45c-1.25-4.34-5.29-7.38-9.81-7.38h-52.11c-4.52,0-8.55,3.03-9.81,7.38l-7.63,26.45c-2.61,9.05-11.02,15.38-20.44,15.38h-103.38c-9.42,0-17.83-6.32-20.45-15.38l-7.63-26.45c-1.25-4.34-5.29-7.38-9.81-7.38h-52.11c-4.52,0-8.55,3.03-9.81,7.38l-7.63,26.45c-2.61,9.05-11.02,15.38-20.45,15.38h-51.29v-14.19h51.29c3.14,0,5.94-2.11,6.81-5.12l7.63-26.45c3-10.38,12.64-17.63,23.44-17.63h52.11c10.8,0,20.44,7.25,23.44,17.63l7.63,26.45c.87,3.02,3.67,5.12,6.81,5.12h103.38c3.14,0,5.94-2.11,6.81-5.12l7.63-26.45c3-10.38,12.64-17.63,23.44-17.63h52.11c10.8,0,20.44,7.25,23.44,17.63l7.63,26.45c.87,3.02,3.67,5.12,6.81,5.12h35.23v14.19Z"/>
                <g>
                  <path class="cls-50" d="M425.75,304.9v9.13c0,4.31-3.51,7.81-7.81,7.81h-44.95c-4.31,0-7.81-3.49-7.81-7.81v-35.48c0-4.31,3.49-7.81,7.81-7.81h21.77c2.26,0,4.39.97,5.88,2.65l1.33,1.52,11.48,13.07,10.35,11.77c1.25,1.43,1.94,3.26,1.94,5.15Z"/>
                  <path class="cls-62" d="M425.75,304.9v9.13c0,4.31-3.51,7.81-7.81,7.81h-10.05l5.56-33.85,10.35,11.77c1.25,1.43,1.94,3.26,1.94,5.15Z"/>
                  <path class="cls-62" d="M401.98,274.91l-7.72,46.92h-14.87l8.4-51.09h6.98c2.26,0,4.39.97,5.88,2.65l1.33,1.52Z"/>
                  <path class="cls-52" d="M373,270.74h21.78c2.25,0,4.38.97,5.86,2.65l23.16,26.36c1.25,1.42,1.94,3.26,1.94,5.15v9.12c0,4.31-3.49,7.81-7.81,7.81h-44.94c-4.31,0-7.81-3.49-7.81-7.81v-35.48c0-4.31,3.49-7.81,7.81-7.81Z"/>
                </g>
                <g>
                  <path class="cls-50" d="M351.71,278.54v35.48c0,4.31-3.49,7.81-7.81,7.81h-22.71c-4.31,0-7.81-3.49-7.81-7.81v-35.48c0-4.31,3.49-7.81,7.81-7.81h22.71c.31,0,.64.01.94.06,3.87.47,6.87,3.75,6.87,7.75Z"/>
                  <path class="cls-62" d="M333.96,270.74l-8.4,51.09h-4.36c-4.31,0-7.81-3.49-7.81-7.81v-35.48c0-4.31,3.49-7.81,7.81-7.81h12.76Z"/>
                  <polygon class="cls-62" points="336.46 321.83 331.11 321.83 339.51 270.74 344.86 270.74 336.46 321.83"/>
                  <rect class="cls-52" x="313.39" y="270.74" width="38.32" height="51.09" rx="7.81" ry="7.81"/>
                </g>
                <g>
                  <path class="cls-50" d="M304.17,278.54v35.48c0,4.31-3.49,7.81-7.81,7.81h-22.71c-.6,0-1.19-.07-1.75-.2-3.48-.79-6.06-3.89-6.06-7.61v-35.48c0-4.31,3.49-7.81,7.81-7.81h22.71c4.31,0,7.81,3.49,7.81,7.81Z"/>
                  <path class="cls-62" d="M280.29,270.74l-8.37,50.89c-3.48-.79-6.06-3.89-6.06-7.61v-35.48c0-4.31,3.49-7.81,7.81-7.81h6.63Z"/>
                  <path class="cls-62" d="M304.17,278.54v35.48c0,4.31-3.49,7.81-7.81,7.81h-10.7l8.39-51.09h2.31c4.31,0,7.81,3.49,7.81,7.81Z"/>
                  <rect class="cls-52" x="265.85" y="270.74" width="38.32" height="51.09" rx="7.81" ry="7.81"/>
                </g>
                <rect class="cls-35" x="413" y="287.46" width="14.41" height="31.53" rx="5.59" ry="5.59"/>
              </g>
              <g>
                <circle class="cls-50" cx="199.18" cy="415.5" r="39.74"/>
                <circle class="cls-63" cx="199.18" cy="415.5" r="25.5" transform="translate(-261.53 423.19) rotate(-65.35)"/>
                <circle class="cls-58" cx="199.18" cy="415.5" r="20.45"/>
                <path class="cls-35" d="M216.6,415.5c0,.74-.04,1.46-.13,2.18-.4,3.18-1.66,6.1-3.53,8.51-.9,1.15-1.94,2.18-3.08,3.07-2.41,1.87-5.33,3.13-8.51,3.53-.72.09-1.44.13-2.18.13s-1.46-.04-2.18-.13c-3.18-.4-6.1-1.66-8.51-3.53-1.15-.89-2.19-1.93-3.07-3.08-1.88-2.41-3.14-5.31-3.53-8.49-.1-.72-.14-1.44-.14-2.18s.04-1.46.14-2.18c.39-3.18,1.64-6.1,3.53-8.51.88-1.15,1.92-2.19,3.07-3.08,2.41-1.87,5.33-3.13,8.51-3.52.72-.1,1.44-.14,2.18-.14s1.46.04,2.18.14c3.18.39,6.1,1.64,8.51,3.52,1.15.89,2.19,1.93,3.08,3.08,1.87,2.41,3.13,5.33,3.53,8.51.09.72.13,1.44.13,2.18Z"/>
                <path class="cls-58" d="M216.6,415.5c0,.74-.04,1.46-.13,2.18h-2.57c-3.5,0-5.24,4.21-2.77,6.69l1.81,1.82c-.9,1.15-1.94,2.18-3.08,3.07l-1.81-1.81c-2.47-2.47-6.7-.72-6.7,2.78v2.56c-.72.09-1.44.13-2.18.13s-1.46-.04-2.18-.13v-2.56c0-3.5-4.23-5.25-6.69-2.78l-1.82,1.81c-1.15-.89-2.19-1.93-3.07-3.08l1.81-1.81c2.47-2.47.72-6.69-2.78-6.69h-2.56c-.1-.72-.14-1.44-.14-2.18s.04-1.46.14-2.18h2.56c3.5,0,5.25-4.23,2.78-6.7l-1.81-1.81c.88-1.15,1.92-2.19,3.07-3.08l1.82,1.81c2.46,2.47,6.69.72,6.69-2.77v-2.56c.72-.1,1.44-.14,2.18-.14s1.46.04,2.18.14v2.56c0,3.49,4.23,5.24,6.7,2.77l1.81-1.81c1.15.89,2.19,1.93,3.08,3.08l-1.81,1.81c-2.47,2.47-.73,6.7,2.77,6.7h2.57c.09.72.13,1.44.13,2.18Z"/>
                <circle class="cls-86" cx="199.18" cy="415.5" r="6.27"/>
                <circle class="cls-65" cx="199.18" cy="415.5" r="4.44"/>
              </g>
              <g>
                <circle class="cls-50" cx="430.43" cy="415.5" r="39.74"/>
                <circle class="cls-63" cx="430.43" cy="415.5" r="25.5" transform="translate(-84.56 111.04) rotate(-13.4)"/>
                <circle class="cls-58" cx="430.43" cy="415.5" r="20.45"/>
                <path class="cls-35" d="M447.85,415.5c0,.74-.04,1.46-.13,2.18-.4,3.18-1.66,6.1-3.53,8.51-.9,1.15-1.94,2.18-3.08,3.07-2.41,1.87-5.33,3.13-8.51,3.53-.72.09-1.44.13-2.18.13s-1.46-.04-2.18-.13c-3.18-.4-6.1-1.66-8.51-3.53-1.15-.89-2.19-1.93-3.07-3.08-1.88-2.41-3.14-5.31-3.53-8.49-.1-.72-.14-1.44-.14-2.18s.04-1.46.14-2.18c.39-3.18,1.64-6.1,3.53-8.51.88-1.15,1.92-2.19,3.07-3.08,2.41-1.87,5.33-3.13,8.51-3.52.72-.1,1.44-.14,2.18-.14s1.46.04,2.18.14c3.18.39,6.1,1.64,8.51,3.52,1.15.89,2.19,1.93,3.08,3.08,1.87,2.41,3.13,5.33,3.53,8.51.09.72.13,1.44.13,2.18Z"/>
                <path class="cls-58" d="M447.85,415.5c0,.74-.04,1.46-.13,2.18h-2.57c-3.5,0-5.24,4.21-2.77,6.69l1.81,1.82c-.9,1.15-1.94,2.18-3.08,3.07l-1.81-1.81c-2.47-2.47-6.7-.72-6.7,2.78v2.56c-.72.09-1.44.13-2.18.13s-1.46-.04-2.18-.13v-2.56c0-3.5-4.23-5.25-6.69-2.78l-1.82,1.81c-1.15-.89-2.19-1.93-3.07-3.08l1.81-1.81c2.47-2.47.72-6.69-2.78-6.69h-2.56c-.1-.72-.14-1.44-.14-2.18s.04-1.46.14-2.18h2.56c3.5,0,5.25-4.23,2.78-6.7l-1.81-1.81c.88-1.15,1.92-2.19,3.07-3.08l1.82,1.81c2.46,2.47,6.69.72,6.69-2.77v-2.56c.72-.1,1.44-.14,2.18-.14s1.46.04,2.18.14v2.56c0,3.49,4.23,5.24,6.7,2.77l1.81-1.81c1.15.89,2.19,1.93,3.08,3.08l-1.81,1.81c-2.47,2.47-.73,6.7,2.77,6.7h2.57c.09.72.13,1.44.13,2.18Z"/>
                <path class="cls-86" d="M436.71,415.5c0-3.47-2.81-6.27-6.27-6.27s-6.27,2.81-6.27,6.27,2.81,6.27,6.27,6.27,6.27-2.81,6.27-6.27Z"/>
                <path class="cls-65" d="M434.87,415.5c0-2.45-1.99-4.44-4.44-4.44s-4.44,1.99-4.44,4.44,1.99,4.44,4.44,4.44,4.44-1.99,4.44-4.44Z"/>
              </g>
              <g>
                <path class="cls-35" d="M469.9,393.26h69.87c1.96,0,3.55,1.59,3.55,3.55v22.23c0,1.96-1.59,3.55-3.55,3.55h-51.74c-5.65,0-10.62-3.72-12.21-9.14l-5.93-20.19Z"/>
                <polygon class="cls-99" points="472.9 403.49 543.32 403.49 543.32 406.27 473.64 406.27 472.9 403.49"/>
              </g>
              <g>
                <path class="cls-35" d="M159.73,393.26h-84.07c-1.96,0-3.55,1.59-3.55,3.55v22.23c0,1.96,1.59,3.55,3.55,3.55h65.94c5.65,0,10.62-3.72,12.21-9.14l5.93-20.19Z"/>
                <polygon class="cls-99" points="156.73 403.49 72.11 403.49 72.11 406.27 155.99 406.27 156.73 403.49"/>
              </g>
              <g>
                <rect class="cls-69" x="520.02" y="355.89" width="18.1" height="34.11" rx="5.85" ry="5.85"/>
                <line class="cls-52" x1="520.02" y1="367.95" x2="538.12" y2="367.95"/>
                <path class="cls-81" d="M532.79,364.5h-7.33c-1.37,0-2.48-1.11-2.48-2.48h0c0-1.37,1.11-2.48,2.48-2.48h7.33c1.37,0,2.48,1.11,2.48,2.48h0c0,1.37-1.11,2.48-2.48,2.48Z"/>
                <rect class="cls-59" x="522.92" y="371.45" width="12.3" height="15.61" rx="3.19" ry="3.19"/>
                <rect class="cls-52" x="520.02" y="355.89" width="18.1" height="34.11" rx="5.85" ry="5.85"/>
              </g>
              <g>
                <rect class="cls-69" x="76.39" y="349.24" width="18.1" height="34.11" rx="5.85" ry="5.85"/>
                <path class="cls-81" d="M89.17,357.85h-7.33c-1.37,0-2.48-1.11-2.48-2.48h0c0-1.37,1.11-2.48,2.48-2.48h7.33c1.37,0,2.48,1.11,2.48,2.48h0c0,1.37-1.11,2.48-2.48,2.48Z"/>
                <rect class="cls-59" x="79.35" y="359.65" width="12.3" height="19.87" rx="3.19" ry="3.19"/>
                <rect class="cls-52" x="76.39" y="349.24" width="18.1" height="34.11" rx="5.85" ry="5.85"/>
              </g>
              <g>
                <path class="cls-85" d="M101.92,260.8h300.9l-12.93-29.08c-4.8-10.79-15.5-17.75-27.31-17.75h-227.64c-14.67,0-27.17,10.64-29.51,25.12l-3.51,21.71Z"/>
                <g>
                  <rect class="cls-59" x="309.56" y="229.11" width="20.11" height="20.11" rx="3.25" ry="3.25"/>
                  <path class="cls-62" d="M326.36,237.64h0c-4.27,2.02-9.22,2.02-13.49,0h0v-3.29c0-1.12.91-2.03,2.03-2.03h9.43c1.12,0,2.03.91,2.03,2.03v3.29Z"/>
                  <rect class="cls-54" x="309.56" y="229.11" width="20.11" height="20.11" rx="3.25" ry="3.25"/>
                </g>
                <g>
                  <rect class="cls-69" x="338.25" y="229.11" width="20.11" height="20.11" rx="3.25" ry="3.25"/>
                  <path class="cls-62" d="M355.05,237.64h0c-4.27,2.02-9.22,2.02-13.49,0h0v-3.29c0-1.12.91-2.03,2.03-2.03h9.43c1.12,0,2.03.91,2.03,2.03v3.29Z"/>
                  <rect class="cls-54" x="338.25" y="229.11" width="20.11" height="20.11" rx="3.25" ry="3.25"/>
                </g>
                <g>
                  <rect class="cls-59" x="142.57" y="229.11" width="20.11" height="20.11" rx="3.25" ry="3.25"/>
                  <path class="cls-62" d="M159.37,237.64h0c-4.27,2.02-9.22,2.02-13.49,0h0v-3.29c0-1.12.91-2.03,2.03-2.03h9.43c1.12,0,2.03.91,2.03,2.03v3.29Z"/>
                  <rect class="cls-54" x="142.57" y="229.11" width="20.11" height="20.11" rx="3.25" ry="3.25"/>
                </g>
                <g>
                  <rect class="cls-69" x="171.25" y="229.11" width="20.11" height="20.11" rx="3.25" ry="3.25"/>
                  <path class="cls-62" d="M188.05,237.64h0c-4.27,2.02-9.22,2.02-13.49,0h0v-3.29c0-1.12.91-2.03,2.03-2.03h9.43c1.12,0,2.03.91,2.03,2.03v3.29Z"/>
                  <rect class="cls-54" x="171.25" y="229.11" width="20.11" height="20.11" rx="3.25" ry="3.25"/>
                </g>
                <path class="cls-97" d="M261.29,232.32h-53.11c-2.52,0-4.56-2.04-4.56-4.56h0c0-2.52,2.04-4.56,4.56-4.56h53.11c2.52,0,4.56,2.04,4.56,4.56h0c0,2.52-2.04,4.56-4.56,4.56Z"/>
                <path class="cls-97" d="M290.73,232.32h-10.51c-2.52,0-4.56-2.04-4.56-4.56h0c0-2.52,2.04-4.56,4.56-4.56h10.51c2.52,0,4.56,2.04,4.56,4.56h0c0,2.52-2.04,4.56-4.56,4.56Z"/>
              </g>
            </g>
            <g>
              <polygon class="cls-60" points="306.66 142.43 303.69 117.61 332.03 134.56 330.95 136.38 306.31 121.65 308.77 142.18 306.66 142.43"/>
              <g>
                <circle class="cls-46" cx="330.9" cy="135.06" r="4.77" transform="translate(12.33 297.07) rotate(-49.16)"/>
                <circle class="cls-78" cx="305.43" cy="120.53" r="4.77" transform="translate(-2.66 6.97) rotate(-1.3)"/>
                <circle class="cls-82" cx="307.72" cy="142.3" r="4.77" transform="translate(117.88 423.2) rotate(-80.77)"/>
              </g>
            </g>
            <g>
              <polygon class="cls-60" points="99.17 275.14 106.2 252.19 107.72 252.65 101.77 272.09 115.48 265.35 116.19 266.78 99.17 275.14"/>
              <g>
                <circle class="cls-46" cx="106.96" cy="252.42" r="3.58"/>
                <circle class="cls-78" cx="101" cy="273.08" r="3.58"/>
                <circle class="cls-82" cx="115.84" cy="266.06" r="3.58"/>
              </g>
            </g>
            <g>
              <polygon class="cls-60" points="458 247.75 434.42 243.26 434.72 241.7 454.69 245.5 446.5 232.59 447.84 231.74 458 247.75"/>
              <g>
                <circle class="cls-46" cx="434.57" cy="242.48" r="3.58" transform="translate(69.98 581.18) rotate(-72.05)"/>
                <circle class="cls-78" cx="455.76" cy="246.15" r="3.58"/>
                <circle class="cls-82" cx="447.17" cy="232.17" r="3.58" transform="translate(-10.93 22.39) rotate(-2.83)"/>
              </g>
            </g>
          </g>
          <g>
            <ellipse class="cls-40" cx="128.92" cy="457.66" rx="46.09" ry="2.76"/>
            <g>
              <path class="cls-87" d="M148.02,449.03v8.64h23.24s.27-2.82-2.68-4.63c-2.95-1.81-10.39-4.01-10.39-4.01h-10.17Z"/>
              <path class="cls-87" d="M98.7,427.86l-7.24,4.72,12.69,19.47s2.51-1.31,2.41-4.77c-.09-3.46-2.84-11.77-2.84-11.77l-5.03-7.65Z"/>
              <g>
                <path class="cls-44" d="M137.89,347.65s-1.81,2.64-3.64,10.84c-1.83,8.2-.23,13.21-12.14,37.57-11.91,24.36-23.41,31.81-23.41,31.81l5.03,7.64s30.68-13.91,42-60.82l2.3,74.34h10.17s2.2-81.27-.12-98.41l-20.19-2.97Z"/>
                <polygon class="cls-37" points="154.36 361.6 150.33 365.24 145.68 375.05 148.95 362.98 154.36 361.6"/>
                <g>
                  <path class="cls-92" d="M148.89,364.6c.04-.2.07-.39.09-.57.02-.18.02-.33.01-.45-.01-.12-.04-.19-.1-.2-.05-.01-.1,0-.14.02-.04.03-.08.08-.11.14-.03.06-.07.14-.1.24-.03.1-.06.21-.1.33-.04.14-.13.46-.28.97-.15.51-.33,1.14-.55,1.89-.22.75-.46,1.57-.72,2.48-.26.91-.53,1.83-.79,2.77-.27.93-.52,1.84-.76,2.72-.24.88-.45,1.66-.63,2.35-.17.69-.31,1.25-.39,1.67-.09.43-.11.64-.06.66.03,0,.12-.18.26-.58.14-.4.32-.93.53-1.59.21-.66.45-1.42.71-2.27.26-.85.53-1.72.8-2.62s.53-1.78.79-2.64c.26-.86.49-1.64.69-2.34.2-.69.37-1.26.5-1.71.13-.45.2-.7.22-.76.05-.16.09-.34.13-.54Z"/>
                  <path class="cls-92" d="M149.05,362.85c-.07.04-.13.08-.18.13-.05.05-.09.1-.12.15-.03.05-.03.11-.01.16.02.05.04.09.06.11.02.02.05.04.08.05.03,0,.06,0,.1,0,.04-.01.08-.02.12-.04.05-.02.17-.05.36-.11.19-.06.43-.13.71-.21.28-.09.59-.18.93-.28.34-.11.68-.22,1.03-.33.34-.12.68-.23,1.01-.34.32-.11.61-.22.86-.32.25-.1.44-.19.59-.27s.21-.15.2-.19c0-.03-.09-.04-.25-.01-.16.02-.36.06-.62.12-.26.06-.55.13-.87.21-.33.09-.66.18-1,.27-.34.1-.67.19-1,.28-.33.09-.62.18-.88.26-.26.08-.48.14-.64.19-.17.05-.26.08-.28.09-.06.02-.12.05-.19.09Z"/>
                  <path class="cls-92" d="M149.66,360.89c-.01.11-.02.22-.02.33,0,.1.01.19.04.27.02.07.06.12.12.14.05.02.09.02.13,0s.07-.04.09-.07c.03-.04.05-.08.07-.14.02-.06.04-.12.06-.19.02-.08.08-.27.16-.56.08-.3.18-.66.27-1.1.1-.44.19-.92.29-1.46.09-.54.16-1.09.21-1.64.05-.56.09-1.1.09-1.62.01-.52,0-.99-.03-1.4-.03-.41-.06-.73-.11-.98-.05-.25-.09-.37-.14-.36-.03,0-.06.12-.07.36-.01.25-.02.56-.04.95-.02.4-.05.84-.08,1.34-.03.5-.09,1.01-.15,1.54-.07.52-.14,1.04-.23,1.54-.08.5-.18.95-.26,1.35-.09.4-.17.72-.23.98-.07.26-.1.4-.11.43-.02.09-.04.19-.06.31Z"/>
                  <path class="cls-92" d="M150.38,358.92c-.04.08-.08.16-.11.25-.03.08-.05.16-.05.23,0,.07.01.12.06.16.04.04.08.06.11.06.04,0,.07,0,.11-.02.04-.02.07-.04.11-.08.03-.04.07-.08.11-.13.05-.05.16-.18.31-.4.16-.21.34-.48.53-.82.19-.34.38-.72.55-1.16.17-.44.31-.89.43-1.35.11-.46.19-.92.25-1.36.06-.44.08-.84.09-1.18.01-.34,0-.62-.02-.83-.02-.21-.06-.32-.1-.32-.03,0-.07.1-.11.3-.04.21-.08.47-.13.79-.06.33-.12.7-.19,1.11-.08.42-.17.84-.29,1.26-.12.43-.25.84-.4,1.23-.16.39-.32.73-.48,1.03-.16.3-.31.53-.43.71-.12.18-.19.28-.21.3-.04.06-.09.13-.14.22Z"/>
                  <path class="cls-92" d="M105.28,428.39c-.88.67-1.71,1.31-2.5,1.91-.79.55-1.45,1.01-1.98,1.38-.5.37-.75.57-.72.62.03.05.14.02.36-.07s.49-.24.83-.44c.35-.2.76-.44,1.24-.74.49-.28.99-.69,1.59-1.11.32-.24.88-.61,1.62-1.2.71-.62,1.69-1.35,2.77-2.37,2.23-1.98,4.71-4.69,7.33-8.13,2.61-3.45,5.2-7.52,7.69-12.17,2.49-4.65,4.75-9.49,6.94-14.43,2.19-4.93,4.25-9.75,6.07-14.49,1.8-4.74,3.22-9.04,4.27-12.85,1.04-3.82,1.68-6.94,2.06-9.31.21-1.18.3-2.08.38-2.68.07-.6.09-.9.07-.9,0,0-.03.07-.06.21-.03.15-.07.36-.12.65-.11.57-.22,1.44-.46,2.59-.42,2.3-1.09,5.31-2.13,9.02-1.04,3.71-2.44,7.87-4.2,12.47-1.77,4.6-3.77,9.26-5.88,14.01-2.11,4.75-4.23,9.38-6.56,13.81-2.31,4.42-4.64,8.28-6.94,11.56-2.3,3.27-4.41,5.81-6.22,7.66-.87.96-1.62,1.63-2.15,2.14-.53.5-.85.81-.97.92-.7.59-1.47,1.25-2.32,1.97Z"/>
                  <path class="cls-92" d="M104.73,433.82c.07.08.14.14.21.2.07.06.14.1.21.13s.12.02.17,0c.05-.03.08-.06.09-.09.02-.03.02-.07.01-.11,0-.04-.02-.08-.04-.12s-.05-.09-.09-.15c-.04-.06-.12-.2-.26-.43-.14-.23-.3-.5-.5-.83-.2-.33-.42-.69-.67-1.09s-.5-.81-.75-1.21c-.25-.41-.5-.8-.75-1.18s-.47-.71-.67-1c-.2-.29-.38-.52-.52-.68s-.23-.23-.27-.21c-.03.02,0,.12.09.31.09.19.21.44.37.74s.35.65.57,1.03c.22.38.44.78.67,1.18s.46.79.69,1.18.43.73.62,1.04c.18.31.34.56.46.76.12.2.19.31.2.33.04.07.1.14.16.22Z"/>
                  <path class="cls-92" d="M154.29,443.19c-.04,1.02-.09,1.98-.16,2.88-.06.88-.12,1.61-.16,2.21-.04.57-.03.86.02.87.05,0,.11-.09.17-.29.06-.21.13-.48.19-.84.06-.36.12-.8.19-1.31.05-.51.12-1.1.17-1.76.06-.72.2-2.45.24-5.17.04-2.73-.06-6.07-.25-10.02-.19-3.95-.4-8.34-.63-13.16-.23-4.82-.47-9.71-.71-14.65-.24-4.94-.48-9.74-.71-14.38-.24-4.64-.46-8.77-.64-12.39-.21-3.61-.38-6.52-.5-8.72-.08-1.1-.14-1.92-.18-2.47-.05-.55-.08-.82-.11-.82-.02,0-.02.27,0,.8.02.54.04,1.34.07,2.41.09,2.14.2,4.98.34,8.5.15,3.53.33,7.56.52,12.08.2,4.52.41,9.17.63,13.93.22,4.77.43,9.44.64,14.02.21,4.58.41,8.71.58,12.39.18,3.68.31,6.7.36,9.08.05,2.38,0,3.72,0,4.02-.02.84-.05,1.77-.08,2.8Z"/>
                  <path class="cls-92" d="M148.69,446.65c-.12.02-.23.04-.34.08-.11.03-.19.07-.26.11-.07.04-.1.1-.1.15,0,.05.01.1.04.12.03.03.06.05.1.07.04.01.09.02.16.02.06,0,.13,0,.21,0,.09,0,.29,0,.61,0,.32,0,.71,0,1.18,0,.47,0,.98,0,1.55-.02s1.15-.02,1.73-.03c.58-.01,1.15-.03,1.7-.04s1.04-.04,1.46-.07c.43-.03.77-.06,1.03-.1.26-.04.39-.08.39-.13,0-.03-.13-.06-.38-.08-.25-.02-.59-.04-1-.06-.42-.02-.89-.03-1.43-.04s-1.08-.01-1.65-.02c-.56,0-1.11,0-1.66,0s-1.03,0-1.46,0c-.43,0-.79,0-1.07,0-.28,0-.44,0-.48,0-.1,0-.21.01-.33.03Z"/>
                </g>
              </g>
              <path class="cls-87" d="M137.89,347.65s7.87,6.62,20.19,2.97l2.77-34.39-5.76-6.69s-7.03-2.36-8.81-2.52c-1.78-.15-8.4,40.64-8.4,40.64Z"/>
              <g>
                <path class="cls-68" d="M164.08,299.09c-2.02,3.73-5.6,5.65-8.67,4.74l-1.31,5.7,1.11,5.8-8.92-8.32v-6.1l.61-1.46-3.93-5.49,1.92-8.17,10.54-5.54s4.54,1.11,6,5.34c1.33,3.86,1.37,5.37,2.35,6.49h0c.09.11.2.21.32.32,1.31,1.16,2.02,2.97,0,6.7Z"/>
                <path class="cls-90" d="M160.86,284.36c-3.32,1.92-7.53.71-7.53.71-.15,2.06-.54,3.68-.97,4.89-.31.86-.64,1.52-.92,2.01-.41.7-.73,1.03-.73,1.03-.06-.22-.13-.43-.22-.62h0c-.21-.45-.5-.81-.84-1.08-1.77-1.42-4.89-.38-4.85,2.72.05,3.94,4.85,4.9,4.85,4.9l-3.36,5.1c.23-6.21-7.7-10.35-5.17-17.97,2.52-7.62,7.98-6.92,11.11-7.37,3.13-.45,5.3-4.8,6.46-4,1.15.79-.61,3.48-.66,3.54,1.52-.56,2.67-4.49,4.09-3.33,1.4,1.15-.81,4.61-.86,4.69.07-.06,2.94-2.36,3.53-1.41.61.96-.61,4.29-3.93,6.21Z"/>
                <g>
                  <path class="cls-96" d="M149.89,295.02c0,.06,0,.11-.02.17-.01.05-.03.09-.05.12s-.05.04-.08.04c-.03,0-.05,0-.06-.02-.01-.01-.03-.03-.03-.04,0-.02-.01-.04-.01-.07,0-.03,0-.05,0-.09,0-.04,0-.12-.04-.25-.03-.13-.08-.29-.16-.47-.08-.18-.2-.37-.35-.57-.15-.19-.33-.38-.52-.53-.2-.15-.41-.27-.62-.35-.22-.08-.42-.1-.6-.1s-.33.03-.44.05c-.11.03-.17.04-.18.02,0-.01.03-.06.14-.11.1-.05.25-.11.45-.14.2-.03.43-.02.67.05.25.07.48.18.7.34s.41.33.57.53c.16.19.29.39.39.57.1.18.16.34.2.47.03.13.05.21.05.22,0,.05.01.1.01.16Z"/>
                  <path class="cls-96" d="M148.9,293.51s.08,0,.12.01c.04,0,.07.03.09.05s.03.04.03.07c0,.03,0,.05,0,.06s-.01.03-.02.04c-.01,0-.02.01-.04.02-.02,0-.03,0-.05,0-.02,0-.07.01-.15.04-.08.03-.17.07-.26.15-.09.07-.18.17-.25.3-.07.13-.11.28-.15.44-.03.16-.05.32-.06.47,0,.15,0,.29,0,.41,0,.1.01.19.02.3,0,.08,0,.12-.03.13-.02,0-.04-.03-.07-.1-.03-.07-.06-.17-.09-.29-.03-.12-.05-.27-.06-.43,0-.16,0-.33.03-.5s.07-.34.14-.5c.07-.16.17-.3.28-.4.11-.1.21-.16.29-.2.08-.04.13-.06.15-.06.03-.01.07-.02.11-.02Z"/>
                </g>
                <path class="cls-96" d="M159.93,286.56c.05.02.11.04.16.08.05.04.1.08.14.14s.07.13.09.21c.02.08.03.14.03.19,0,.05,0,.08-.02.11-.01.03-.03.04-.05.05-.02,0-.05.01-.08.02-.03,0-.11.02-.24.05-.13.03-.28.06-.47.09-.19.04-.39.07-.62.12-.23.04-.46.08-.69.12-.23.04-.46.07-.68.09-.22.02-.42.03-.59.03-.17,0-.32-.02-.42-.05-.11-.03-.17-.08-.18-.16,0-.05.04-.1.13-.16.09-.05.22-.11.38-.17.16-.06.34-.12.54-.18.21-.06.42-.12.63-.18.22-.05.43-.11.63-.16.21-.05.4-.09.56-.13.17-.03.31-.06.41-.08.11-.02.17-.03.18-.03.04,0,.08,0,.14.01Z"/>
                <path class="cls-70" d="M160.3,290.7c0,.85-.44,1.53-.98,1.53s-.98-.69-.98-1.53.44-1.53.98-1.53.98.69.98,1.53Z"/>
                <path class="cls-94" d="M158.4,293.71c0,1.09-.89,1.98-1.98,1.98s-1.98-.89-1.98-1.98.89-1.98,1.98-1.98,1.98.89,1.98,1.98Z"/>
                <polygon class="cls-80" points="155.41 303.83 150.93 302.29 154.99 305.66 155.41 303.83"/>
                <path class="cls-60" d="M164.08,299.09c-2.02,3.73-5.6,5.65-8.67,4.74,0,0-2.54-.34-5.77-4.92,0,0,2.66-1.59,1.06-5.91,0,0,3.72,2.44,6.5,1.81,2.77-.63,4.62-3.14,6.56-2.74h0c.09.11.2.21.32.32,1.31,1.16,2.02,2.97,0,6.7Z"/>
                <g>
                  <path class="cls-61" d="M162.86,289.28s.33,3.83-2.85,4.43c-3.17.6-5.24-1.98-5.57-3.01l-3,1.27-.95.4h0c-.21-.45-.5-.81-.84-1.08l2.71-1.33,1.63-.79,9.27-1.76.2,1.66-.6.21Z"/>
                  <path class="cls-39" d="M162.86,289.28s.33,3.83-2.85,4.43c-.06.01-.11.02-.17.03-.24.04-.47.06-.7.06-.15,0-.29,0-.43-.01-.66-.05-1.26-.24-1.78-.5-1.4-.7-2.28-1.94-2.49-2.59l-3,1.27-.95.4h0c-.21-.45-.5-.81-.84-1.08l2.71-1.33,1.63-.79,5.03-.95,2.16-.41.47-.09.73-.14h0l.87-.17.2,1.66-.6.21Z"/>
                  <g>
                    <path class="cls-64" d="M161.18,287.81l-2.47,5.98c-.66-.05-1.26-.24-1.78-.5l2.09-5.07,2.16-.41Z"/>
                    <path class="cls-83" d="M162.38,287.58l-2.54,6.16c-.24.04-.47.06-.7.06l2.51-6.08.73-.14Z"/>
                  </g>
                </g>
              </g>
              <g>
                <g>
                  <path class="cls-60" d="M147.31,339.17c-2.07,19.57-5.77,38.06-11.72,45.73l-17.41-10.19s16.05-28.68,17.13-31.48c0,0-.19-5.13-.47-10.31-.18-3.37-.39-6.75-.6-8.76,0-.05-.01-.09-.02-.14-.54-4.96-1.89-13.26.9-14.7,2.8-1.44,11.15-2.31,11.15-2.31,0,0,3.1,12.59,1.02,32.16Z"/>
                  <g>
                    <path class="cls-93" d="M146.26,338.66c.07.47.15.9.22,1.32.07.41.14.74.21,1,.07.26.13.38.19.38.05,0,.09-.06.11-.16.02-.1.03-.23.03-.4,0-.17-.01-.37-.04-.61-.03-.23-.05-.51-.09-.81-.04-.33-.14-1.12-.29-2.37-.17-1.24-.4-2.77-.73-4.57-.33-1.8-.74-3.79-1.26-5.96-.53-2.17-1.12-4.35-1.81-6.53l-.26-.81c-.08-.27-.19-.55-.2-.73-.01-.16.11-.34.29-.57l.51-.65c.68-.87,1.35-1.72,2-2.56.33-.43.66-.84.89-1.14-.19-.22-.37-.43-.55-.65-.14-.16-.27-.31-.41-.46-.27-.3-.54-.58-.79-.85-.52-.54-1.01-1.03-1.49-1.49-.35-.37-.35-.13,0-.45.3-.22.59-.43.85-.63.54-.38,1.02-.72,1.44-1.02.84-.57,1.26-.86,1.23-.9-.02-.03-.46.19-1.31.7-.42.26-.91.56-1.46.92-.27.19-.56.38-.86.59-.18.13-.36.26-.54.39-.05.04-.13.08-.17.13l.16.15.29.28c.48.48.98.99,1.5,1.55.26.29.52.58.79.89.23.27.47.56.72.85-.12.15-.3.37-.48.59-.65.82-1.32,1.65-1.99,2.49-.33.43-.68.81-1.01,1.3-.19.28-.17.72-.08.97l.24.79c.65,2.09,1.23,4.17,1.73,6.22.5,2.05.9,3.91,1.22,5.57.32,1.66.54,3.04.71,4.12.16,1.08.24,1.7.26,1.83.06.38.12.8.19,1.28Z"/>
                    <path class="cls-93" d="M128.98,363.49c-.12.05-.24.11-.34.17-.1.06-.18.13-.24.19-.06.06-.08.12-.06.18.02.05.04.09.08.11.03.02.08.03.12.03.05,0,.1,0,.17-.02.06-.02.13-.04.21-.06.09-.02.3-.08.63-.17.33-.09.74-.18,1.23-.29.49-.11,1.03-.21,1.63-.32.6-.1,1.21-.2,1.83-.31.62-.1,1.22-.19,1.81-.29.58-.1,1.09-.19,1.55-.28.45-.09.81-.17,1.09-.24s.41-.14.4-.18c0-.03-.14-.04-.42-.03-.27.01-.63.04-1.08.09-.45.05-.96.1-1.53.17-.57.07-1.16.14-1.76.22-.6.09-1.19.17-1.77.26-.58.09-1.1.19-1.56.28-.46.09-.84.18-1.14.26-.3.08-.46.12-.5.13-.1.03-.22.07-.34.12Z"/>
                    <path class="cls-93" d="M128.34,367.11s.04.08.08.11c.03.04.07.06.11.09.04.02.1.03.15.03.05,0,.09,0,.12-.02.03,0,.05-.02.07-.04s.02-.03.02-.05c0-.02,0-.04,0-.07,0-.03,0-.1,0-.21,0-.11,0-.24,0-.4,0-.16,0-.34-.01-.53s-.01-.39-.02-.59c-.01-.2-.02-.39-.04-.58-.02-.19-.04-.35-.07-.5s-.06-.26-.1-.35-.08-.13-.13-.13c-.03,0-.06.05-.08.13-.02.09-.04.2-.06.35-.02.14-.03.31-.04.49,0,.18-.02.37-.02.56s0,.38-.01.57c0,.19,0,.35,0,.5,0,.15,0,.27,0,.37s0,.15,0,.16c0,.03.01.07.03.11Z"/>
                    <path class="cls-93" d="M138.55,366.23c.12-.03.24-.07.34-.12.11-.04.19-.09.26-.14.06-.05.09-.11.09-.16,0-.05-.02-.09-.05-.12s-.07-.05-.11-.05c-.05,0-.1-.01-.16,0-.06,0-.13.02-.22.02-.09.01-.3.04-.63.08-.33.03-.74.08-1.22.13-.48.05-1.02.11-1.61.17-.59.06-1.18.13-1.79.19-.6.07-1.19.14-1.75.21-.56.08-1.06.15-1.51.21-.44.07-.79.14-1.06.2-.27.06-.4.12-.4.17,0,.03.13.05.4.05.26,0,.61-.02,1.05-.04.44-.03.93-.06,1.48-.1.56-.05,1.13-.09,1.71-.14.59-.05,1.16-.1,1.72-.15.56-.05,1.07-.1,1.52-.14.45-.05.82-.08,1.11-.11.29-.03.46-.05.49-.06.1-.01.22-.04.34-.07Z"/>
                    <path class="cls-93" d="M138.88,365.6s.04.09.08.13c.03.04.07.07.11.1.04.02.1.04.15.04.05,0,.09,0,.12-.01s.05-.02.07-.04c.01-.02.02-.04.02-.06v-.08s0-.11,0-.23c0-.12,0-.27-.01-.45,0-.18-.01-.37-.02-.59,0-.22-.02-.43-.03-.65-.02-.22-.03-.43-.05-.64-.02-.21-.04-.39-.07-.55-.03-.16-.06-.29-.1-.38-.04-.1-.08-.14-.13-.14-.03,0-.06.05-.08.15-.02.1-.04.22-.05.38s-.03.34-.03.54c0,.2-.01.41-.02.62,0,.21,0,.42,0,.62,0,.2,0,.39,0,.55,0,.16,0,.3,0,.4,0,.11,0,.17,0,.18,0,.04.01.08.03.12Z"/>
                  </g>
                  <path class="cls-66" d="M140.3,320.48l-5.45,12.43c-.18-3.37-.39-6.75-.6-8.76l6.05-3.68Z"/>
                </g>
                <g>
                  <g>
                    <path class="cls-80" d="M123.96,367s4.15,5.65,4.15,5.84-.38,3.99-.38,3.99l-5.13-5.48,1.36-4.36Z"/>
                    <g>
                      <g>
                        <rect class="cls-33" x="103.09" y="381.34" width="39.77" height="27.32" rx="5.06" ry="5.06"/>
                        <path class="cls-34" d="M142.86,386.4v17.21c0,2.79-2.26,5.06-5.06,5.06h-3.79c2.79,0,5.06-2.26,5.06-5.06v-17.21c0-2.79-2.26-5.06-5.06-5.06h3.79c2.79,0,5.06,2.26,5.06,5.06Z"/>
                        <rect class="cls-38" x="103.09" y="381.34" width="39.77" height="27.32" rx="5.06" ry="5.06"/>
                        <g>
                          <rect class="cls-60" x="119.66" y="390.67" width="3.59" height="9.15"/>
                          <rect class="cls-60" x="119.66" y="390.67" width="3.59" height="9.15" transform="translate(-273.79 516.71) rotate(-90)"/>
                        </g>
                      </g>
                      <path class="cls-87" d="M114.85,381.34h-1.82v-3.94c0-1.5,1.22-2.72,2.72-2.72h13.65c1.5,0,2.72,1.22,2.72,2.72v3.94h-1.82v-3.94c0-.5-.41-.9-.9-.9h-13.65c-.5,0-.9.41-.9.9v3.94Z"/>
                    </g>
                    <g>
                      <path class="cls-68" d="M123.96,367c.1-.05,3.77,9.84,3.77,9.84,0,0,.01,2.66-2.29,2.11,0,0-1.86,1.09-3.25.3,0,0-1.24,1.39-2.54-.6,0,0-1.46.76-2.31-.48-.86-1.24.41-9.89.41-9.89l6.21-1.28Z"/>
                      <path class="cls-96" d="M125.32,378.57c.02.05.03.1.04.16.01.05.01.09,0,.13,0,.04-.02.06-.04.08-.02.01-.04.02-.06.02s-.04-.01-.05-.03c-.02-.01-.03-.03-.05-.06-.01-.03-.03-.05-.05-.09-.02-.04-.06-.12-.13-.26-.07-.14-.15-.3-.24-.51-.09-.2-.17-.43-.26-.69-.08-.26-.16-.52-.22-.79-.06-.27-.11-.53-.14-.79-.04-.26-.05-.49-.05-.69,0-.2,0-.37.02-.49.01-.12.03-.18.06-.18.02,0,.03.06.05.18.02.14.04.29.06.46.03.19.06.41.1.65.04.24.1.49.16.74.07.25.14.5.22.73.08.24.16.45.24.63.08.18.15.33.2.45.06.12.09.18.1.2.02.04.04.09.06.14Z"/>
                      <path class="cls-96" d="M122.12,378.86c0,.06.02.11.02.16s0,.1-.01.13-.03.06-.05.07c-.02,0-.05.01-.06,0-.02,0-.03-.02-.05-.03-.01-.02-.03-.04-.04-.07-.01-.03-.02-.06-.03-.09-.01-.04-.04-.13-.09-.28-.04-.15-.1-.33-.16-.54-.06-.22-.12-.46-.18-.72-.05-.27-.1-.54-.14-.82s-.06-.55-.07-.81c-.01-.26-.01-.5,0-.7,0-.2.02-.37.05-.49.02-.12.04-.18.07-.18.02,0,.03.06.04.18,0,.14.02.29.03.47.02.21.03.43.05.67.02.25.06.5.1.77.04.26.09.52.14.76.05.25.11.47.16.67.06.2.1.36.14.48.04.12.06.2.07.21.01.04.03.09.04.15Z"/>
                      <path class="cls-96" d="M119.49,378.32c0,.06.02.11.02.16,0,.05,0,.1,0,.14,0,.04-.03.06-.05.07-.02,0-.05.01-.06,0-.02,0-.03-.02-.05-.03s-.03-.04-.04-.07c-.01-.03-.02-.06-.04-.1-.01-.04-.04-.13-.09-.28-.05-.15-.1-.33-.16-.55-.06-.22-.11-.47-.15-.74-.04-.27-.07-.56-.09-.84-.02-.28-.02-.56,0-.83.01-.27.04-.5.07-.71.04-.21.07-.37.11-.49.04-.12.07-.18.09-.17.02,0,.02.07.01.19,0,.14-.02.3-.03.48-.01.2-.02.42-.02.68,0,.25.01.51.03.78.02.27.05.53.09.78.04.25.09.48.13.68.05.2.1.36.13.49.04.13.06.2.06.21.01.04.03.1.04.15Z"/>
                    </g>
                  </g>
                  <g>
                    <path class="cls-60" d="M140.3,320.48l-15.63,19.8,1.26,27.06-8.45,1.49s-4.27-26.6-4.08-28.06c.19-1.46,17.08-28.68,21.3-31.16,4.23-2.48,8.92,4.79,5.59,10.87Z"/>
                    <g>
                      <path class="cls-93" d="M117.56,364.81c-.1.04-.19.08-.27.13s-.15.1-.2.16c-.05.05-.07.11-.05.17.01.05.03.09.06.12.03.03.06.04.1.05.04,0,.08,0,.14,0,.05,0,.11-.02.18-.03.07-.02.24-.05.51-.11.27-.06.6-.12,1-.2s.83-.17,1.31-.27.96-.21,1.46-.31c.49-.11.97-.22,1.42-.32.46-.11.87-.21,1.22-.31.35-.1.64-.19.85-.27.21-.08.31-.14.3-.19,0-.03-.12-.04-.34-.02-.22.02-.5.06-.86.11-.36.05-.76.12-1.21.2-.45.08-.92.17-1.39.25-.48.09-.94.18-1.4.27-.46.09-.87.17-1.24.24-.37.07-.67.14-.9.19-.24.05-.37.08-.4.08-.08.02-.17.05-.27.08Z"/>
                      <g>
                        <path class="cls-93" d="M132.25,330.01c-.09.13-.17.25-.24.37-.07.12-.12.23-.14.32-.03.09-.02.16.02.2.04.04.08.05.12.05.04,0,.09-.02.14-.05.05-.03.1-.07.15-.13.05-.06.11-.12.18-.19.07-.08.25-.27.53-.58.27-.31.61-.68,1.01-1.13.39-.45.83-.95,1.31-1.51.47-.56.94-1.13,1.42-1.71.47-.58.92-1.15,1.35-1.71.43-.56.8-1.06,1.12-1.51.31-.45.56-.82.73-1.1.17-.29.24-.44.2-.47-.03-.02-.15.09-.36.34-.22.26-.49.58-.83.98-.34.41-.73.88-1.16,1.4-.44.52-.89,1.06-1.35,1.61-.47.55-.93,1.08-1.38,1.61-.46.52-.87.99-1.23,1.41-.37.41-.67.76-.91,1.02-.24.27-.38.42-.41.45-.08.09-.17.2-.26.33Z"/>
                        <path class="cls-93" d="M126.4,367.63c.11-.05.2-.1.29-.16.09-.06.16-.12.21-.18.05-.06.06-.12.05-.17-.02-.05-.04-.09-.07-.11-.03-.02-.07-.04-.11-.04-.04,0-.09,0-.15.02-.06.02-.12.03-.19.05-.08.02-.26.07-.55.16-.29.08-.65.17-1.07.28-.42.1-.9.21-1.42.32-.52.1-1.06.21-1.6.29-.54.09-1.07.17-1.58.24-.51.07-.96.12-1.36.18-.4.05-.72.1-.96.14-.24.04-.36.09-.36.14,0,.03.12.06.36.07.24.02.56.02.96.01.4,0,.85-.03,1.35-.07.51-.04,1.03-.1,1.56-.16.53-.07,1.05-.15,1.56-.25.51-.09.96-.19,1.37-.28.4-.1.73-.18.99-.25.26-.07.4-.11.44-.12.09-.03.19-.06.3-.11Z"/>
                        <path class="cls-93" d="M126.32,367.02c.02.07.05.14.09.21.04.06.08.12.12.15.05.04.1.06.16.05.05,0,.09-.02.12-.03.03-.02.05-.04.06-.07.01-.03.02-.06.02-.1,0-.04,0-.08,0-.13,0-.05-.02-.18-.03-.39-.02-.2-.04-.45-.07-.75-.04-.29-.08-.62-.12-.98-.06-.36-.11-.72-.17-1.09-.06-.37-.13-.72-.21-1.06-.07-.34-.15-.64-.23-.9-.08-.26-.15-.47-.22-.62s-.13-.22-.18-.21c-.03,0-.04.09-.03.25.01.16.03.37.07.63.04.27.08.56.12.89.05.33.09.68.14,1.03.04.35.08.7.13,1.03.04.34.07.64.1.91.03.27.05.49.07.67.02.18.03.27.03.3,0,.06.02.13.04.2Z"/>
                      </g>
                    </g>
                  </g>
                </g>
              </g>
              <g>
                <g>
                  <g>
                    <g>
                      <g>
                        <polygon class="cls-60" points="194.48 392.71 188.26 392.91 186.75 390.05 185.28 387.25 171.96 389.34 170.71 383.06 189.03 377.33 193.52 390.01 194.48 392.71"/>
                        <polygon class="cls-42" points="194.48 392.71 188.26 392.91 186.75 390.05 185.28 387.25 171.96 389.34 170.71 383.06 189.03 377.33 193.52 390.01 194.48 392.71"/>
                      </g>
                      <g>
                        <path class="cls-76" d="M194.48,392.71l-6.22.2-1.51-2.87c1.85-.02,4.61-.03,6.77-.03l.96,2.7Z"/>
                        <path class="cls-41" d="M194.48,392.71l-6.22.2-1.51-2.87c1.85-.02,4.61-.03,6.77-.03l.96,2.7Z"/>
                      </g>
                    </g>
                    <g>
                      <path class="cls-68" d="M171.34,379.08s.13,2.64.25,3.68c0,0,5.56-.03,7.41-1.66,0,0,7.22,2.39,8.07,1.13.85-1.26-7.88-4.89-7.88-4.89l-7.86,1.75Z"/>
                      <g>
                        <path class="cls-68" d="M174.85,387.59s.55-3.04-.39-3.27c-.94-.23-1.42,1.68-1.78,3.46-.36,1.78.23,2.88.84,2.97s1.31-1.29,1.31-1.29c0,0,.07,1.68.78,1.65.71-.03,1.92-1.88,1.92-1.88,0,0-.36,1.29.68,1.26,1.03-.03,1.88-1.75,1.88-1.75,0,0-.42,1.33.52,1.39.94.06,4.1-5.94,3.23-6.95-.87-1.01-3.23,3.3-3.23,3.3,0,0,1.52-3.21.29-3.74-1.23-.53-2.54,2.54-2.53,2.44,0-.1.75-1.42-.28-1.97-1.03-.55-2.43,2.52-3.23,4.36Z"/>
                        <path class="cls-96" d="M174.87,389.65c0,.05-.02.12-.03.19,0,.06-.02.11-.04.15-.02.04-.04.06-.07.07-.03,0-.05,0-.06-.01s-.03-.03-.04-.06c0-.02-.02-.06-.02-.09,0-.04,0-.08-.01-.12,0-.05-.01-.17,0-.36,0-.19.02-.43.06-.7.04-.27.1-.58.19-.9.09-.32.2-.65.32-.97.12-.32.25-.62.38-.92.13-.28.25-.53.36-.77.11-.22.2-.4.28-.53.08-.13.13-.19.15-.18.02,0,0,.08-.05.22-.06.16-.12.33-.2.55-.09.23-.19.49-.31.77-.11.29-.22.59-.34.89-.11.31-.21.61-.29.91-.08.3-.14.57-.18.81-.04.24-.06.44-.07.6,0,.16-.01.25-.01.27,0,.05,0,.1-.01.19Z"/>
                        <path class="cls-96" d="M177.68,389.05c-.02.05-.05.1-.07.15s-.05.08-.08.11-.06.04-.09.03c-.03,0-.04-.01-.06-.03s-.02-.03-.02-.05c0-.02,0-.05,0-.07,0-.03.01-.06.02-.1,0-.04.03-.13.07-.28.04-.15.08-.33.13-.55.05-.22.11-.45.17-.72.06-.26.13-.53.2-.8.07-.27.13-.53.2-.78.07-.24.13-.46.19-.67.06-.19.11-.35.16-.46s.08-.17.1-.16c.02,0,.02.07,0,.19-.02.14-.05.29-.08.47-.04.2-.08.42-.13.66-.05.25-.11.5-.16.76-.06.26-.11.52-.17.76-.06.25-.11.47-.15.67-.05.2-.09.36-.12.49-.03.13-.05.2-.05.22-.01.05-.03.1-.05.15Z"/>
                        <path class="cls-96" d="M180.2,388.71s-.04.07-.07.1c-.03.03-.05.05-.08.06s-.06.02-.08,0c-.02,0-.04-.02-.05-.03-.01-.01-.02-.03-.02-.04,0-.02,0-.03,0-.05,0-.02.01-.04.02-.07,0-.03.03-.09.06-.19s.07-.23.12-.38.1-.31.17-.49c.06-.18.12-.36.19-.55.07-.18.13-.36.19-.54.06-.16.12-.31.18-.46.06-.13.11-.24.15-.32.04-.08.08-.11.1-.11.02,0,.02.05,0,.13-.02.1-.05.21-.08.33-.04.15-.08.3-.13.46l-.16.53c-.06.18-.11.36-.17.53-.06.17-.11.33-.15.47-.05.14-.08.25-.11.34-.03.09-.05.14-.05.15-.01.03-.03.07-.05.1Z"/>
                      </g>
                    </g>
                  </g>
                  <g>
                    <path class="cls-60" d="M179.2,377.33l-7.93,2.31-8.45-29.19-1.97-6.81.04-29.5v-2.01s3.88,10.36,6.38,19.25c2.51,8.88,11.93,45.95,11.93,45.95Z"/>
                    <polygon class="cls-66" points="162.82 350.45 162.82 350.45 160.85 343.64 160.89 314.15 161.36 314.15 162.82 350.45"/>
                    <path class="cls-93" d="M170.7,375.94c-.09.04-.18.08-.26.12-.08.05-.14.1-.19.15-.05.05-.06.11-.05.16.01.05.03.09.06.12.03.03.06.04.1.05.04,0,.08,0,.13,0,.05,0,.1-.02.17-.03.07-.01.23-.04.49-.09.26-.05.57-.11.95-.18.38-.07.79-.15,1.25-.24.46-.09.92-.18,1.39-.28.47-.1.92-.19,1.36-.29.44-.1.83-.19,1.17-.28.34-.09.61-.17.81-.25s.3-.14.29-.18c0-.03-.11-.04-.32-.03-.21.02-.48.05-.82.09-.34.05-.73.11-1.16.17-.43.07-.88.14-1.33.22-.46.08-.9.16-1.34.23-.44.08-.83.15-1.18.21-.35.07-.64.12-.87.16-.23.04-.35.07-.38.07-.08.02-.17.04-.26.08Z"/>
                  </g>
                </g>
                <g>
                  <path class="cls-60" d="M155.09,309.53s3.46,6.88,2.97,18.26c-.48,11.38-2.74,42.57-2.9,46.9-.16,4.33-.48,12.4,2.26,13.13,2.74.73,6.45-.24,6.78-3.31.32-3.07-.81-26.63-1.69-33.16-.89-6.54-1.37-11.38-.97-16.3.4-4.92.56-20.49-.65-22.91,0,0-.78-.85-5.8-2.61Z"/>
                  <g>
                    <path class="cls-93" d="M157.93,340.15c-.04.42-.08.82-.1,1.19-.02.37-.03.68-.02.92,0,.24.04.36.1.37.05,0,.1-.03.14-.11.04-.08.08-.19.12-.34.04-.15.07-.32.1-.53.03-.21.07-.45.11-.72.04-.29.15-1,.31-2.1.16-1.11.37-2.47.61-4.08.24-1.61.5-3.4.79-5.37.29-1.97.58-3.96.87-5.98.06-.51.18-.99.17-1.55-.02-.58-.23-1.07-.39-1.53-.34-.93-.72-1.84-1.12-2.72-.25-.54-.5-1.06-.75-1.54-.13-.24-.25-.47-.36-.69-.06-.11-.12-.21-.17-.32l-.07-.12c.54-.43.96-.76,1.36-1.08l.3-.23c.1-.1.33-.18.13-.3-.16-.17-.31-.34-.47-.5-.24-.24-.47-.47-.69-.67-.44-.41-.85-.75-1.21-1.04-.72-.56-1.12-.79-1.14-.75-.02.03.32.31.98.89.33.29.7.64,1.11,1.06.2.21.41.43.64.67.1.11.2.22.3.33.01.03.1.07.04.1l-.11.08c-.52.39-1.07.81-1.77,1.34.11.22.24.45.37.7.1.2.21.41.32.63.22.44.44.91.66,1.41.38.85.73,1.72,1.06,2.61.15.45.34.91.43,1.34.09.42,0,.88-.08,1.37-.3,1.94-.59,3.85-.87,5.72-.28,1.87-.53,3.55-.76,5.05-.22,1.5-.41,2.73-.55,3.71-.14.97-.22,1.52-.24,1.64-.05.34-.1.73-.14,1.15Z"/>
                    <g>
                      <path class="cls-93" d="M160.36,361.81s-.09,0-.14.01c-.05.01-.09.03-.13.06-.04.03-.08.07-.1.12-.02.05-.04.09-.05.12,0,.03,0,.06,0,.08,0,.02.02.04.04.05.02.01.04.02.07.03.03.01.09.05.19.1.1.05.23.11.38.19.15.07.31.16.5.25.18.09.37.18.56.27.19.08.37.16.55.24.18.08.34.14.49.18s.27.07.37.08c.1,0,.16,0,.18-.05.01-.03-.01-.08-.08-.14-.07-.06-.17-.13-.29-.22-.12-.08-.27-.17-.43-.27-.17-.1-.33-.19-.51-.29-.18-.1-.35-.19-.51-.28-.17-.09-.32-.17-.46-.24-.14-.07-.25-.13-.34-.17-.09-.04-.14-.07-.15-.07-.03-.02-.07-.02-.12-.03Z"/>
                      <path class="cls-93" d="M159.19,363.99s.02.06.04.1c.02.03.05.06.08.09.04.03.08.06.13.08.05.02.09.03.12.04s.05,0,.07,0c.02,0,.03-.01.04-.02l.02-.04s.02-.06.05-.13.06-.15.09-.25c.03-.1.07-.21.12-.33.04-.12.08-.25.12-.37.03-.12.07-.25.1-.37.03-.12.05-.23.06-.33,0-.1,0-.18,0-.25-.01-.07-.04-.1-.09-.12-.03,0-.07,0-.11.06-.04.05-.09.11-.14.19-.05.08-.1.18-.15.29l-.16.34c-.05.12-.1.23-.15.34-.05.11-.09.21-.12.3-.03.09-.06.17-.08.22-.02.06-.03.09-.03.1,0,.02,0,.05,0,.08Z"/>
                      <path class="cls-93" d="M163.1,367.13c.06.02.12.04.19.05.06,0,.12,0,.18,0,.06-.01.1-.04.14-.09.03-.04.05-.08.06-.11,0-.03,0-.06,0-.08,0-.02-.02-.05-.05-.07-.03-.02-.05-.04-.08-.06-.04-.03-.12-.09-.25-.19-.13-.1-.3-.22-.49-.36-.19-.14-.41-.3-.65-.47-.24-.17-.48-.34-.73-.52-.25-.17-.49-.33-.72-.49-.23-.16-.45-.29-.64-.4s-.35-.19-.48-.24-.2-.05-.23-.01c-.02.03.02.09.11.19.09.1.22.22.38.36.17.14.36.3.56.47.22.17.43.35.66.52.23.18.45.35.67.52.22.17.42.32.59.45.18.13.32.24.44.33.12.08.18.13.2.14.04.03.09.06.15.08Z"/>
                    </g>
                    <path class="cls-93" d="M161.85,350.98c.04.45.09.87.13,1.29.05.4.08.73.13.99.05.25.1.38.15.38.05,0,.09-.05.12-.14.03-.1.05-.22.06-.39.01-.16.02-.36.02-.59,0-.23-.02-.5-.03-.79-.01-.33-.04-1.1-.14-2.32-.09-1.22-.25-2.71-.43-4.47-.17-1.76-.37-3.71-.4-5.86-.02-1.07.02-2.15.11-3.23.08-1.08.3-2.16.45-3.26.34-2.2.49-4.37.48-6.46,0-2.09-.16-3.95-.35-5.57-.2-1.62-.44-2.9-.65-3.87-.21-.97-.35-1.44-.4-1.43-.04,0,.04.48.18,1.43.15.95.33,2.2.49,3.77.16,1.57.26,3.37.26,5.39-.01,2.02-.15,4.09-.47,6.19-.16,1.06-.34,2.1-.48,3.14-.13,1.05-.18,2.1-.2,3.13-.02,2.07.14,3.93.29,5.58.16,1.64.3,2.99.41,4.06.09,1.06.15,1.66.16,1.79.03.37.07.78.11,1.25Z"/>
                  </g>
                </g>
              </g>
            </g>
          </g>
        </g>
        <g>
          <g>
            <g>
              <rect class="cls-47" x="434.12" y="383.39" width="4.58" height="66.95"/>
              <path class="cls-24" d="M437.24,460.23c-2.59,0-4.71-2.12-4.71-4.71s2.12-4.71,4.71-4.71,4.71,2.12,4.71,4.71-2.12,4.71-4.71,4.71Z"/>
              <polygon class="cls-2" points="438.69 449.79 438.76 456.31 436.42 456.34 433.9 449.77 438.69 449.79"/>
              <path class="cls-75" d="M433.49,449.01h5.78c.39,0,.71.32.71.71h0c0,.39-.32.71-.71.71h-5.78c-.39,0-.71-.32-.71-.71h0c0-.39.32-.71.71-.71Z"/>
            </g>
            <rect class="cls-84" x="414.24" y="418.65" width="22.12" height="1.59"/>
            <g>
              <rect class="cls-47" x="411.5" y="383.39" width="4.58" height="66.95"/>
              <path class="cls-24" d="M414.63,460.23c-2.59,0-4.71-2.12-4.71-4.71s2.12-4.71,4.71-4.71,4.71,2.12,4.71,4.71-2.12,4.71-4.71,4.71Z"/>
              <polygon class="cls-2" points="416.08 449.79 416.14 456.31 413.81 456.34 411.29 449.77 416.08 449.79"/>
              <path class="cls-75" d="M410.87,449.01h5.78c.39,0,.71.32.71.71h0c0,.39-.32.71-.71.71h-5.78c-.39,0-.71-.32-.71-.71h0c0-.39.32-.71.71-.71Z"/>
            </g>
          </g>
          <g>
            <g>
              <rect class="cls-47" x="300.88" y="383.39" width="4.58" height="66.95"/>
              <circle class="cls-36" cx="304.01" cy="455.52" r="4.71"/>
              <polygon class="cls-2" points="305.46 449.79 305.52 456.31 303.19 456.34 300.66 449.77 305.46 449.79"/>
              <path class="cls-75" d="M300.25,449.01h5.78c.39,0,.71.32.71.71h0c0,.39-.32.71-.71.71h-5.78c-.39,0-.71-.32-.71-.71h0c0-.39.32-.71.71-.71Z"/>
            </g>
            <rect class="cls-84" x="281.01" y="418.65" width="22.11" height="1.59"/>
            <g>
              <rect class="cls-47" x="278.27" y="383.39" width="4.58" height="66.95"/>
              <path class="cls-24" d="M281.4,460.23c-2.59,0-4.71-2.12-4.71-4.71s2.12-4.71,4.71-4.71,4.71,2.12,4.71,4.71-2.12,4.71-4.71,4.71Z"/>
              <polygon class="cls-2" points="282.85 449.79 282.91 456.31 280.58 456.34 278.05 449.77 282.85 449.79"/>
              <path class="cls-75" d="M277.64,449.01h5.78c.39,0,.71.32.71.71h0c0,.39-.32.71-.71.71h-5.78c-.39,0-.71-.32-.71-.71h0c0-.39.32-.71.71-.71Z"/>
            </g>
          </g>
          <polygon class="cls-29" points="327.44 290.46 327.44 371.34 325.66 371.34 325.66 290.46 325.66 289.62 325.66 288.53 341.62 288.53 341.62 290.46 327.44 290.46"/>
          <path class="cls-25" d="M489.04,315.38c.05-.07.69-3.19.69-3.19l-7.81,2.12s-.05,4.36.15,4.14c.2-.22,6.97-3.07,6.97-3.07Z"/>
          <path class="cls-23" d="M483.77,373.47c0,1.19-14.12,42.17-14.12,42.17l-.1,37.79,9.76.86,2.98-33.82,11.5-28.86,9.32,28.56,19.97,33.04s9.23-.93,8.84-2.12c-.4-1.19-17.9-36.87-17.9-39.25s-4.96-20.1-4.37-23.17c.59-3.07-.72-15.55-2-16.07-1.27-.52-23.88.87-23.88.87Z"/>
          <path class="cls-27" d="M508.78,374.06c.1.27.6,4.21.6,4.21,0,0-14.7,1.09-19.54,1.34s-8.06-.25-8.06-.25l.69-3.62,26.3-1.69Z"/>
          <path class="cls-31" d="M482.68,321.5c4.37,1.39,5.26,6.55,4.57,9.72-.69,3.17-6.89,17.7-7.88,19.88-.99,2.18-24.3,2.72-24.3,2.72l-1.08-4.54,20.92-4.47-.21-17.04c.61-7.11,1.62-8.3,7.99-6.27Z"/>
          <path class="cls-17" d="M476.34,320.3c5.15-2.91,16.51-10.25,21.39-3.34,5.38,7.64,14.65,60.6,11.45,59.88-1.9-.42-27.12,2.56-27.07.95.25-8.36-9.26-45.84-5.77-57.5Z"/>
          <rect class="cls-55" x="438.18" y="374.75" width="4.33" height="6.26"/>
          <rect class="cls-55" x="328.58" y="374.75" width="4.33" height="6.26"/>
          <rect class="cls-55" x="275.36" y="374.75" width="4.33" height="6.26"/>
          <path class="cls-8" d="M290.42,328.22c.52-.06,1.7-1.23,1.7-1.23,0,0,4.55.93,5.99,2.17,1.44,1.23,2.62,2.83,2.14,2.53-.48-.3-9.82-3.46-9.82-3.46Z"/>
          <path class="cls-21" d="M310.5,355.89s-3.61,3.19-10.6,3.19c-5.72,0-20.37,0-28.71-.1-2.98-.03-6.67-4.75-7.17-6.46,9.11-9.28,39.59-6.2,46.48,3.37Z"/>
          <path class="cls-15" d="M312.47,354.19c.48-.84,2.01-5.37,6.77-7.6,4.76-2.23,22.68-1.16,22.68-1.16l.9,13.55c.3,4.47-23.69,1.98-27.16.6-3.61-1.44-3.19-5.38-3.19-5.38Z"/>
          <path class="cls-4" d="M309.58,346.27c1.84,2.02,6.66,1.2,8.73,1.2,1.67,3.89-2.86,7.37-5.42,7.1l-11.56-3.07,8.25-5.24Z"/>
          <path class="cls-10" d="M288.69,328.12c8.99.08,28.58,8.55,25.45,18.96-3.33,11.07-32.14,3.53-32.95-4.97-.57-6.06,7.5-13.99,7.5-13.99Z"/>
          <path class="cls-8" d="M292.72,326.82c-.32-3.51-6.35-4.33-5.28-3.77.51.27.99,1.14.78.96-.21-.18-3.64-.36-3.07.06,3.42,2.52-11.01,6.49-5.39,16.8-8.01,8.89,17.34,12.52,17.56,11.18.05-.32-7.23-3.11-10.43-6.7-1.99-2.23-1.93-5.72-.18-7.22,3.92-3.38,6.34-7.53,6-11.31Z"/>
          <path class="cls-8" d="M284.05,340.89c1.48,2.11,1.9,2.68,5.42,3.13,3.52.45,5.72,2.7,4.58,2.7-1.14,0-3.01-1.5-4.18-.89-1.16.61-1.57,1.07-1.57,1.07,0,0-1.06,1-3.25-.9-2.2-1.9-.99-5.12-.99-5.12Z"/>
          <path class="cls-10" d="M291.94,345.4c-1.97-.56-3.9.14-4.3,1.56-.4,1.42.87,3.03,2.84,3.59,1.97.56,3.9-.14,4.3-1.56.4-1.42-.87-3.03-2.84-3.59Z"/>
          <path class="cls-11" d="M448.73,358.98h-182.21c-2.44,0-4.44,1.95-4.44,4.33v5.06c0,2.38,2,4.33,4.44,4.33h182.21c2.44,0,4.44-1.95,4.44-4.33v-5.06c0-2.38-2-4.33-4.44-4.33Z"/>
          <path class="cls-5" d="M321.71,369.57h-59.75c-1.85,0-3.37,1.52-3.37,3.37h0c0,1.85,1.52,3.37,3.37,3.37h59.75c1.85,0,3.37-1.52,3.37-3.37h0c0-1.85-1.52-3.37-3.37-3.37Z"/>
          <path class="cls-5" d="M455.58,369.57h-129.05c-1.85,0-3.37,1.52-3.37,3.37h0c0,1.85,1.52,3.37,3.37,3.37h129.05c1.85,0,3.37-1.52,3.37-3.37h0c0-1.85-1.52-3.37-3.37-3.37Z"/>
          <rect class="cls-57" x="269.34" y="380.26" width="179.62" height="6.05" rx="3.03" ry="3.03"/>
          <path class="cls-5" d="M277.64,380.54l-14.04-10.17c-1.3-.94-3.14-.65-4.09.65h0c-.94,1.3-.65,3.14.65,4.09l14.04,10.17c1.3.94,3.14.65,4.09-.65h0c.94-1.3.65-3.14-.65-4.09Z"/>
          <path class="cls-9" d="M329.29,345.25c-.11-2.19,79.08-1.24,106.13,2.45,2.51.34,5.72-9.75,6.85-7.88,2.9,4.79,3.13,11.61,2.76,16.26h0v7.78l-114.53-.4c0-8.07-.84-10.45-1.21-18.22Z"/>
          <path class="cls-6" d="M445.03,358.98v4.88l-114.53-.4c0-1.72-.04-3.18-.1-4.49h114.63Z"/>
          <path class="cls-5" d="M453.4,351.39h0c-1.25,0-2.27,1.02-2.27,2.27v17.33h4.54v-17.33c0-1.25-1.02-2.27-2.27-2.27Z"/>
          <path class="cls-5" d="M264.16,351.49h0c-1.25,0-2.27,1.02-2.27,2.27v17.33h4.54v-17.33c0-1.25-1.02-2.27-2.27-2.27Z"/>
          <path class="cls-16" d="M329.62,355.28c.59.11,21.29,1.13,22.25.97.96-.16,23.99.05,23.99.05,0,0,3.1-.75,4.22-.8,1.12-.05,3.37.64,4.78,1.84,1.42,1.2,3.23,3.29,2.67,3.69-.56.4-1.5-.08-1.5-.08,0,0,1.34,1.18.99,1.6-.35.43-1.66-.16-1.66-.16,0,0,.45.59-.05.96-.51.37-1.34-.11-1.34-.11,0,0,.56.85-.53.83-1.1-.03-4.19-2.81-4.46-2.67-.27.13-2.14.91-4.25.43s-2.7-.85-2.7-.85c0,0-17.27,1.05-20.55,1.04-3.27,0-22.68-.33-22.68-.33l.8-6.41Z"/>
          <path class="cls-19" d="M333.75,354.74l-14.4-1.08c-2.46-.18-4.48,2.02-4.48,4.48h0c0,2.47,2.02,4.51,4.48,4.48l14.64-.16-.25-7.73Z"/>
          <path class="cls-5" d="M427.2,351.39h-72.29c-6.14,0-11.17,5.03-11.17,11.17v11.17h94.63v-11.17c0-6.14-5.03-11.17-11.17-11.17h0ZM435.57,370.93h-89.02v-8.37c0-4.6,3.77-8.37,8.37-8.37h72.29c4.6,0,8.36,3.77,8.36,8.37v8.37Z"/>
          <path class="cls-14" d="M295.61,341.14c-.16-.05-.33.04-.38.19-.05.16.03.33.19.38,1.06.34,1.93.12,2.49-.36.25-.21.43-.48.55-.77.11-.29.16-.62.12-.94-.09-.72-.58-1.44-1.59-1.89-.15-.07-.33,0-.39.15-.07.15,0,.33.15.39.79.35,1.17.89,1.24,1.42.03.22,0,.45-.08.65-.08.2-.21.39-.38.54-.41.36-1.08.52-1.92.24Z"/>
          <path class="cls-14" d="M298.94,335.07c-.16-.05-.33.03-.38.19s.03.33.19.38c1.06.34,1.93.12,2.49-.36.25-.21.43-.48.55-.78.11-.29.16-.62.12-.94-.09-.72-.58-1.44-1.59-1.89-.15-.07-.33,0-.39.15-.07.15,0,.33.15.39.79.35,1.17.89,1.24,1.42.03.22,0,.45-.08.65-.08.2-.21.39-.38.54-.41.36-1.08.52-1.92.25Z"/>
          <path class="cls-13" d="M298.74,331.01c.24-.16.31-.49.15-.73-.16-.24-.49-.31-.73-.15,0,0-1.1.65-1.75,2.26-.63,1.58-.53,2.48-.53,2.48.04.29.31.49.6.45.29-.04.49-.31.45-.6,0,0-.07-.61.46-1.94.52-1.28,1.35-1.78,1.35-1.78Z"/>
          <path class="cls-13" d="M295.33,337.03c.24-.16.31-.49.15-.73-.16-.24-.49-.31-.73-.15,0,0-1.1.65-1.75,2.26-.63,1.58-.53,2.48-.53,2.48.04.29.31.49.6.45.29-.04.49-.31.45-.6,0,0-.07-.61.46-1.94.52-1.28,1.35-1.78,1.35-1.78Z"/>
          <path class="cls-7" d="M307.46,343.76c.03.16.18.27.35.24.16-.03.27-.18.24-.35-.11-.63-.07-1.49.16-2.28.13-.47.33-.9.6-1.23.25-.31.56-.53.95-.6.24-.04.5-.03.8.06.16.05.33-.05.37-.21.04-.16-.05-.33-.21-.37-.39-.11-.74-.13-1.06-.07-.54.09-.97.39-1.31.81-.32.4-.55.91-.71,1.44-.25.87-.29,1.84-.17,2.54Z"/>
          <path class="cls-3" d="M290.3,346.55c-.15,0-1.59.01-1.4,1.2.19,1.19,2.09,1.82,3.14,1.8,1.04-.02,2.1-1.05,1.34-1.35-.76-.3-1.49.05-1.64-.41-.15-.46.37-.68-.15-1.02-.52-.33-1.29-.22-1.29-.22Z"/>
          <path class="cls-3" d="M304.62,336.54c.23.03-.74,2.74.08,3.47.12.11.31.1.42-.02.51-.57.82-1.29.89-1.97.07-.69-.1-1.35-.55-1.79-.46-.02-2.53-.06-2.33.08.08.06-.13,0,1.49.23Z"/>
          <path class="cls-12" d="M482.59,315.66c-.27.3-4.34,4.24-4.34,4.24l-.87,2.13,3.89-2.43,1.31-3.94Z"/>
          <path class="cls-25" d="M481.63,323.09l-3.38-3.19,2.75-2.67.76,2.1c-.08,1.26-.11,2.48-.13,3.76Z"/>
          <path class="cls-4" d="M485.51,302.9c.53,1.8,4.65,12.16,4.65,12.16,0,0-5.37,5.9-8.42,8.11-.56.41-1.36-12.85-2.37-16.15l6.13-4.12Z"/>
          <path class="cls-10" d="M461.46,289.14c-.05,12.05,5.1,28.28,19.52,24.87,17.89-4.22,11.46-32.89,1.08-34.85-4.74-.9-20.58,3.98-20.6,9.98Z"/>
          <path class="cls-8" d="M493.67,298.94c3.47-16.51-4.2-17.64-4.72-18.99-2.32-6.03-5.84-6.04-11.97-4.59-7.07,1.68-11.55,5.93-15.76,7.14-8.29,2.37-5.33,8.82,3.35,8.25,6.38-.42,13.98-4.21,16.07-3.44,2.58.95,1.16,7.25,3.38,10.08,1.53,1.95.62.48,1.3-3.71,2.89-.94,3.4,3.03,4.29,6.05.6,2.03,2.01,3.39,2.01,3.39.87-.46,1.82-3.08,2.05-4.17Z"/>
          <path class="cls-10" d="M484.72,295.9c-.35-2.54.85-4.81,2.68-5.07,1.83-.26,3.61,1.6,3.96,4.14.35,2.54-.85,4.81-2.68,5.07-1.83.26-3.61-1.6-3.96-4.14Z"/>
          <path class="cls-3" d="M486.43,294.07c.03-.18.29-1.96,1.73-1.53,1.44.44,1.9,2.91,1.69,4.2-.21,1.29-1.67,2.41-1.91,1.43-.24-.99.32-1.84-.22-2.1-.54-.26-.91.34-1.23-.36-.33-.7-.05-1.64-.05-1.64Z"/>
          <path class="cls-24" d="M474.32,295.19c-.77,0-1.2.86-.97,1.91.23,1.06,1.04,1.91,1.81,1.91s1.2-.86.97-1.91c-.23-1.06-1.04-1.91-1.8-1.91Z"/>
          <path class="cls-24" d="M464.27,297.69c-.77,0-1.2.86-.97,1.91.23,1.06,1.04,1.91,1.81,1.91s1.2-.86.97-1.91c-.23-1.06-1.04-1.91-1.81-1.91Z"/>
          <path class="cls-13" d="M476.71,293.96c.41.12.84-.11.96-.52.12-.41-.11-.84-.52-.96,0,0-1.74-.63-4.16.15-2.36.75-3.26,1.7-3.27,1.71-.29.31-.26.8.05,1.08s.8.26,1.08-.05c0,0,.62-.65,2.6-1.28,1.92-.61,3.24-.14,3.25-.13Z"/>
          <path class="cls-13" d="M466.34,296.67c.27.16.56-.03.65-.43.08-.4-.07-.85-.35-1,0,0-1.18-.78-2.8-.23-1.59.54-2.2,1.41-2.2,1.41-.19.29-.18.78.04,1.09.21.31.54.33.73.05,0,0,.42-.59,1.75-1.04,1.29-.44,2.18.16,2.19.16Z"/>
          <path class="cls-7" d="M476.25,306.58c.05-.15-.06-.36-.25-.46-.19-.1-.38-.06-.43.09-.62.46-3.13,2.63-4.88,1.97-.15-.16-.37-.21-.5-.11-.13.1-.11.3.04.46,2.14,1.33,5.21-.86,6.02-1.95Z"/>
          <path class="cls-3" d="M468.45,302.93c0,.26,3.14-.47,3.85.54.11.15.07.36-.08.47-.69.49-1.53.74-2.3.73-.78,0-1.49-.28-1.92-.85.03-.52.26-2.81.39-2.57.05.1.01-.14.06,1.68Z"/>
          <path class="cls-10" d="M464.63,349.37c-.15-.1-8.95-3.07-10.96-3.02-2.01.05-5.45,2.65-5.65,4.98-.2,2.33,3.4,5.73,4.07,5.18.67-.55.22-3.87.99-3.89.77-.03,1.61,1.54,4.14,2.06,2.53.52,4.63-.61,4.63-.61l2.79-4.69Z"/>
          <path class="cls-26" d="M487.84,322.4c.69-.89,3.66-8.64,8.03-7.24,4.37,1.39,5.26,6.55,4.57,9.72-.69,3.17-1.69,27.47-2.68,29.65-.99,2.18-35.66.48-35.66.48l-.68-6.72,28.21-.11-1.78-25.78Z"/>
          <path class="cls-25" d="M485.19,319.15c-.25,0-2.16.37-2.16.37,0,0-1.31,3.17-1.29,3.64,1.3-.35,4.14-2.95,4.14-2.95l-.69-1.07Z"/>
          <path class="cls-12" d="M489.73,312.19l-6.69,7.34,3.5,3.24s4.29-7.15,5.28-8.24c-.74-.84-2.08-2.33-2.08-2.33Z"/>
          <path class="cls-23" d="M472.56,450.23c-.78,1.5-2.22,3.46-7.15,5.19-4.94,1.73-10.65,1.88-8.65,3.26,2,1.39,15.84,2.14,15.99,1.53.15-.61,1.36-1.75,1.36-1.75,0,0,.34,1.81.69,1.79.35-.03,4.84-.38,4.84-.38l-1.16-7.82-5.91-1.82Z"/>
          <path class="cls-23" d="M525.88,449.73c-.66,1.56-1.95,3.61-6.74,5.71-4.79,2.1-10.47,2.68-8.38,3.91,2.1,1.23,15.95.94,16.06.32.1-.62,1.22-1.85,1.22-1.85,0,0,.48,1.78.82,1.73.34-.05,4.8-.74,4.8-.74l-1.75-7.71-6.03-1.37Z"/>
          <polygon class="cls-9" points="345.84 298.57 334.23 298.57 334.23 314.74 339.66 319.14 339.66 322.99 338.95 322.99 338.95 325.03 341.12 325.03 341.12 322.99 340.41 322.99 340.41 319.06 345.84 314.74 345.84 298.57"/>
          <polygon class="cls-18" points="345.04 304.72 345.04 314.35 339.99 318.38 335.03 314.36 335.03 304.72 345.04 304.72"/>
          <rect class="cls-71" x="339.41" y="289.5" width="1.24" height="10.71"/>
          <rect class="cls-60" x="339.49" y="323.97" width="1.09" height="25.09"/>
          <g>
            <rect class="cls-60" x="337.65" y="306.48" width="4.76" height=".4"/>
            <rect class="cls-60" x="337.65" y="308.69" width="4.76" height=".4"/>
            <rect class="cls-60" x="337.65" y="310.9" width="4.76" height=".4"/>
            <rect class="cls-60" x="337.65" y="313.1" width="4.76" height=".4"/>
          </g>
          <path class="cls-28" d="M497.46,324.21l-6.15-.12-.11,5.45c-.03,1.69,1.32,3.1,3.01,3.14h0c1.69.03,3.1-1.32,3.14-3.01l.11-5.45Z"/>
          <path class="cls-22" d="M491.31,324.09l6.15.12-.07,3.62c-.87.32-1.88.51-2.96.51-1.17,0-2.27-.22-3.19-.6l.07-3.66Z"/>
          <path class="cls-20" d="M503.81,336.12c-.73,9.4-2.21,21.14-5.9,22.24-4.02,1.2-13,1.05-18.42.83-.2-1.18-.41-2.39-.62-3.62,9,.17,18.36.07,18.87-1.05.99-2.18,1.98-26.48,2.68-29.65.07-.32.12-.66.16-1.01,1.07,3.39,2.17,7.64,3.22,12.25Z"/>
          <path class="cls-30" d="M487.07,307.16c1.41-2.14,2.23-4.67,2.57-7.33.62,1.96,1.98,3.28,1.98,3.28-.62,2.56-1.74,4.92-3.48,6.83-1.74,1.91-4.09,3.35-7.17,4.08-.17.04-.34.08-.51.11-3.81.79-6.96.19-9.52-1.35,2.19.72,4.73.84,7.65.15.58-.14,1.14-.3,1.67-.49,3.04-1.08,5.27-2.94,6.8-5.27Z"/>
          <path class="cls-30" d="M303.42,350.19c3.51-.1,6.61-.93,8.52-2.75.79-.75,1.38-1.67,1.71-2.78.26-.87.36-1.73.33-2.57.58,1.59.69,3.27.17,5-.06.19-.12.37-.19.55-1.1,2.74-3.89,4.22-7.4,4.76-.43.07-.87.12-1.32.15-2.46.21-5.18.01-7.89-.49.02-.15-1.51-.82-3.48-1.85.4-.26.7-.61.87-1.03,2.44.6,4.96.96,7.33,1.02.46.01.92.01,1.37,0Z"/>
          <path class="cls-1" d="M279.56,347.06c4.34,4.33,17.61,5.95,17.77,4.99,2.71.5,5.44.7,7.89.49l2.55.68c.5.37.96.75,1.38,1.14-1.8.14-3.65.21-5.53.21-11.72,0-22.11-2.74-28.57-6.95,1.44-.26,2.95-.44,4.5-.55Z"/>
        </g>
      </g>
    </g>
  </g>
</svg>