<?xml version="1.0" encoding="UTF-8"?>
<svg id="Layer_1" data-name="Layer 1" xmlns="http://www.w3.org/2000/svg" viewBox="0 0 100 100">
  <defs>
    <style>
      .cls-1 {
        fill: #82c8fc;
      }

      .cls-2 {
        fill: #c3d2e0;
      }

      .cls-3 {
        fill: #bdc2bd;
      }

      .cls-4 {
        fill: #c4bdad;
      }

      .cls-5 {
        fill: #0584e2;
      }

      .cls-6 {
        fill: #d9e9f9;
      }

      .cls-7 {
        fill: #b93333;
      }

      .cls-8 {
        fill: #c2bcad;
      }

      .cls-9 {
        fill: #056bb7;
      }

      .cls-10 {
        fill: #7dc1e0;
      }

      .cls-11 {
        fill: #70d940;
      }

      .cls-12 {
        fill: #0592fb;
      }

      .cls-13 {
        fill: #8bd6f9;
      }

      .cls-14 {
        fill: #054d85;
      }

      .cls-15 {
        fill: #fabc80;
      }

      .cls-16 {
        fill: #8ad6f9;
      }

      .cls-17 {
        fill: #cfd9db;
      }

      .cls-18 {
        fill: #e1a973;
      }

      .cls-19 {
        fill: #cad7dd;
      }

      .cls-20 {
        fill: #dbe5ec;
      }

      .cls-21 {
        fill: #fcddbf;
      }

      .cls-22 {
        fill: #fe4646;
      }
    </style>
  </defs>
  <path class="cls-12" d="M37.03,39.26c.23.31.2.46-.19.38-1.51,2.44-3.79,4.86-5.92,6.85-.35.33-.81.53-1.25.71-.87-.82-1.75-1.66-2.64-2.46,0,7.05,0,14.11,0,21.16l-.33.25c-3.97-.1-7.97-.16-12-.19l-.7-.25-.19-.44c1.08-1.41,1.29-2.71,1.45-4.43s.56-10.58-.06-11.56c-.55-.87-1.39-.77-2.12-.23l-.4-.15c-.34-.68-.48-1.43-.41-2.27H1.94s-.22-.38-.22-.38c0-3.05-.07-6.01-.19-8.88v-.57c1.09-4.42,3.85-6.71,8.4-7,4.19-.27,11.38-.37,15.49.01.48.04.95.19,1.42.28,3.55,2.78,6.95,5.98,10.2,9.16Z"/>
  <path class="cls-1" d="M1.72,46.25c-.05.17-.12.16-.19,0v-8.88c.31.2.19.72.19,1.04.03,2.61,0,5.23,0,7.84Z"/>
  <path class="cls-21" d="M1.72,61.56h-.19v-8.69c.05-.17.12-.16.19,0l.38.65c-.09,2.47-.11,4.93-.05,7.4l-.33.65Z"/>
  <path class="cls-3" d="M1.72,52.87h-.19v-6.61h.19c.52,2.19.51,4.42,0,6.61Z"/>
  <path class="cls-16" d="M96.14,57.21c-2.51.17-5.03.17-7.55,0-5.05.15-10.14.2-15.27.16-.07.19-.15.34-.24.35-.6.04-3.59.15-3.93.03-.09-.03-.15-.18-.19-.36h-3.41c-1.35,0-2.46.08-3.78-.17l.17-.38h2.2c-.64-.52-.8-1-.48-1.42l-.38-.17v-14.06l.38-.23c1.69.01,3.39-.05,5.1-.19-.12-.55.24-.65.57-.19l.55.23c2.88,2.83,5.81,5.64,9.02,8.11,3.15-2.4,6.06-5.06,8.73-7.97l.96-.56.22-.33c1.59.19,3.18.33,4.78.32,2.19.07,2.22-2.52.06-2.49l-2.5.06-.29-.41-.11-.51c2.83-4.19,5.15-11.65-.41-14.66-4.17-2.26-8.5-.01-11.24,3.38-.23.21-.45.2-.65-.04-3.12-5.33-12.31-6.01-14.13.7l-.47.36c-.43.34-.57-.02-.59-.49-.15-3.53-.16-7.07-.03-10.61.16-1.43.63-2.33,2.13-2.51,10.41-.15,20.91-.01,31.29.15,1.43.6,1.48,2.15,1.57,3.53.78,12.17-.61,25.17,0,37.43-.17,1.66-.4,2.52-2.08,2.92Z"/>
  <path class="cls-9" d="M7.76,65.72c1.84-.21,3.66-.4,5.52-.37l.71.37c3.94-.03,8.08-.15,12,0,.36.01.71-.02,1.03.2,0,8.66,0,17.33,0,25.99-.43,4.92-5.93,7.26-9.45,3.49l-.38-.89v-19.4c-.25-1.57-2.08-1.25-2.27.18v19.07s-.18,1.03-.18,1.03c-2.94,3.33-8.19,1.96-9.36-2.26l-.08-27.6c.43-.4,2.21-.41,2.45.19Z"/>
  <path class="cls-15" d="M18.53,25.09c-5.12-.41-8.64-5.57-8.64-10.48,0-4.91,3.52-10.08,8.64-10.49,11.78,2.02,11.68,19.06,0,20.97Z"/>
  <path class="cls-11" d="M42.7,52.68v22.21c.38,5.22,3.25,10.81,8.26,12.89,3.52,1.46,14.54,1.47,18.06.02,5.52-2.28,8.12-8.07,8.24-13.77.08-1.09.14-2.16.19-3.21.31-.62,2.66-.59,3.02,0,.88,8.36-3.32,18.13-11.94,20.46-3.13.85-11.01.79-14.4.51-8.36-.69-14.06-8.68-14.45-16.63-.06-7.52-.1-15.05-.11-22.58,1.05-.04,2.09-.01,3.13.09Z"/>
  <path class="cls-15" d="M1.72,46.25h10.95c0,.88,0,1.77,0,2.65.1.12.19.25.26.38s.13.26.13.39c.14,3.51.25,7.2.02,10.7-.21,3.17-1.95,5.53-5.32,5.35-.9-.07-1.51.05-2.45-.19-1.73-.44-3.43-2.17-3.59-3.97-.24-2.66.01-5.95,0-8.69-.01-2.2,0-4.41,0-6.61Z"/>
  <path class="cls-10" d="M65.36,13.18c-.77.5-1.53.99-1.69,2-.41,2.63-.05,7.69-.02,10.57,0,.32-.12.84.19,1.04.28.49.35,1.12.19,1.89.17.78.11,1.41-.19,1.89.3,2.31.37,4.63.19,6.97l-.38.21-.14.41c-1.96.84-.81,2.58.97,2.31l3.89-.03.38.34c-1.6.43-3.44.07-5.1.19v14.46c0,.14.34.69.47.86.3.41.79.56,1.04.94h-3.4c-1.31-.26-1.79-.53-2.08-1.98V15.16c.32-2.65,3.75-1.95,5.67-1.98Z"/>
  <path class="cls-6" d="M96.14,57.21c-.17.04-.27.17-.64.2-2.2.19-4.68-.17-6.91-.01v7.18c-1.44-.03-2.9.04-4.34,0-.07.27-.29.33-.66.17l-5.6.02c-1.4-.45-3.07-.35-4.5-.19-1.23,0-2.92.15-4.07,0-.15-.02-.28,0-.27-.19.04-.15.1-.36.21-.38.34-.04,3.33-.07,3.49,0,.14.06.21.23.27.38-.09,0-.17.01-.25-.01-.32-.11-.23-6.43-.13-6.76l.38-.22c5.22,0,10.38-.06,15.48-.19,2.51-.05,5.04.03,7.55,0Z"/>
  <path class="cls-18" d="M18.53,4.11c-11.03,3.07-11.01,17.92,0,20.97-8.35,1.37-14.81-6.86-11.55-14.68,1.89-4.53,6.72-7.12,11.55-6.3Z"/>
  <path class="cls-6" d="M38.54,40.58c.31.33.48.72.94.94,1.69.15,3.39.21,5.1.19l.38.17v10.37l-.38.23c-2.49.32-4.96.35-7.41.1v-12.82s.24-.12.24-.12l1.13.94Z"/>
  <path class="cls-14" d="M17.58,95.38c-.8-.86-1.25-1.4-1.42-2.65-.38,1.02-.68,1.82-1.42,2.65-.31-.2-.19-.72-.19-1.04-.07-6.36.06-12.73,0-19.09.23-1.96,2.8-2.17,3.03-.19v20.32Z"/>
  <path class="cls-15" d="M45.91,41.72c5.97.57,6.71,9.54.19,10.77-.54.1-1.05.1-1.51,0v-10.77h1.32Z"/>
  <path class="cls-15" d="M37.03,52.49c-.54.2-1.29.13-1.89,0-1.65-1.16-3.89-3.79-5.48-5.29,2.49-2.41,4.8-5.03,7.18-7.56.17-.18.24-.08.36.1.04,4.2-.02,8.45-.17,12.75Z"/>
  <path class="cls-13" d="M84.24,64.58v6.24c-1.26,0-2.52,0-3.78,0h-3.02c-.4-2-.5-4.03-.24-6.05-1.26.29-2.52.31-3.73-.18l.27-.19c3.28.08,6.57-.08,9.85,0,.34,0,.61.2.64.2Z"/>
  <path class="cls-2" d="M88.58,57.21s-.3.2-.64.2c-4.95.08-9.9-.09-14.85-.01v6.99h-3.97v-6.99c-1.19,0-2.39.01-3.59,0l23.04-.19Z"/>
  <path class="cls-10" d="M73.48,64.58c1.32,0,2.65,0,3.97,0,0,2.08,0,4.16,0,6.24,0,1.02.16,2.3-.19,3.21.02-1.07-.02-2.14,0-3.21h-3.78v-6.24Z"/>
  <path class="cls-17" d="M37.41,39.64l-.19,12.85c2.45,0,4.91,0,7.37,0,.16.05.16.12,0,.19-.62.03-1.26,0-1.89,0-1,0-2.02,0-3.02,0,.27,7.42-.36,15.1,0,22.49l-.19-22.49c-.82-.01-1.64.02-2.46,0-.16-.05-.16-.12,0-.19-.04-3.93.05-7.88,0-11.81,0-.32.12-.84-.19-1.04.08-.08.11-.27.19-.38.13.13.25.24.38.38Z"/>
  <path class="cls-19" d="M45.91,41.72c-.42-.04-.89.01-1.32,0-1.23-.04-4.21.24-5.1-.19l6.42.19Z"/>
  <path class="cls-20" d="M38.54,40.58c-.58-.02-.8-.6-1.13-.94.51-.06.85.64,1.13.94Z"/>
  <path class="cls-4" d="M37.03,52.49v.19c-.63-.02-1.39.16-1.89-.19h1.89Z"/>
  <path class="cls-8" d="M46.1,52.49c-.6.11-.85.16-1.51.19v-.19h1.51Z"/>
  <path class="cls-5" d="M13.99,65.72c-2.14.02-4.06.17-6.23,0,2.82-.33,4.69-2.14,4.92-5,.28-3.61.03-8.12,0-11.82,1.07-1.04,2.83-.82,3.03.85.29,2.47.23,11.53-.48,13.7-.26.79-.86,1.53-1.22,2.27Z"/>
  <path class="cls-22" d="M63.85,26.79c1.43-7.46,11.76-7.1,14.92-1.13,2.83-3.8,7.73-6.08,12.14-3.37,5.43,3.34,2.9,11.09-.06,15.27-.35.86-1.04-.29-1.35-.84l-1.88-3.35c-.44-.71-1.19-1.27-1.99-.75l-2.24,3.23c-.33.25-.6.35-.86,0l-2.25-5.66c-.62-1.28-1.65-1.98-2.49-.48l-2.11,5.35c-.22.64-.64,1.22-1.24.63l-1.33-2.41c-1.36-2.43-2.71-.45-3.51,1.17l-1.28,2.55c-.51,1.05-.93,1.3-1.27.75l-.6-.26c-1.57-2.12-2.44-4.43-2.61-6.92-.24-1.41-.27-2.36,0-3.78Z"/>
  <path class="cls-7" d="M67.06,37.75c.18-.02.21.06.39-.12,1.22-1.28,2.88-7.78,5.38-5.36.8.77,1.33,2.5,2.07,3.41.46-.22,2.06-5.57,2.77-6.49.91-1.19,2.05-.71,2.72.43,1.04,1.79,1.59,4.36,2.54,6.24l2.44-3.51c.7-.55,1.59-.33,2.17.31,1.03,1.14,1.86,3.43,2.85,4.71.12.18.29.16.47.19,1.37.21,4.43-.72,4.71,1.24.23,1.56-.81,1.91-2.16,1.98-.56.03-4.63-.24-4.82-.38l-.45.06-1.86-3.25-1.47,2.44c-1.14,1.91-3.2,2.21-4.1-.07l-1.8-4.46-.9,2.54c-.85,2.64-2.42,5.35-4.84,2.07l-1.46-2.57-1.92,3.38-.46.05c-.2-.02-.42.17-.57.19-1,.15-4.16.13-5.2,0-1.98-.23-1.83-2.79.1-3.03.54-.72,2.65-.47,3.4,0Z"/>
  <path class="cls-22" d="M88.58,40.4c-2.78,3.39-6.16,6.28-9.69,8.86-3.55-2.47-6.68-5.48-9.57-8.67l2.36-4.16c1.19,1.23,1.96,5.21,4.25,4.25.96-.4,2.41-5.16,2.84-6.33.23.02.32.26.41.44.62,1.14,1.81,5.47,2.8,5.89,2.15.91,3.13-2.86,4.25-4.05.39-.01,1.94,3.46,2.36,3.78Z"/>
  <path class="cls-13" d="M67.06,37.75c-1.04.14-2.35-.13-3.4,0l.19-7.18c.44,2.61,1.85,4.97,3.21,7.18Z"/>
</svg>