<?xml version="1.0" encoding="UTF-8"?>
<svg id="Layer_1" data-name="Layer 1" xmlns="http://www.w3.org/2000/svg" viewBox="0 0 100 100">
  <defs>
    <style>
      .cls-1 {
        fill: #6c728b;
      }

      .cls-2 {
        fill: #f7cf77;
      }

      .cls-3 {
        fill: #758f93;
      }

      .cls-4 {
        fill: #6c898c;
      }

      .cls-5 {
        fill: #6d888c;
      }

      .cls-6 {
        fill: #f6cb6d;
      }

      .cls-7 {
        fill: #6b888b;
      }

      .cls-8 {
        fill: #626680;
      }

      .cls-9 {
        fill: #f7d17f;
      }

      .cls-10 {
        fill: #626681;
      }

      .cls-11 {
        fill: #4d5471;
      }

      .cls-12 {
        fill: #fb4a32;
      }

      .cls-13 {
        fill: #6f898e;
      }

      .cls-14 {
        fill: #f8d68c;
      }

      .cls-15 {
        fill: #f3bb5f;
      }

      .cls-16 {
        fill: #fe6252;
      }

      .cls-17 {
        fill: #e13e2d;
      }
    </style>
  </defs>
  <path class="cls-12" d="M13.8,25.34c.68-.11,1.65,1.78,1.11,2.22l-.15.78c-2.52,1.83-7.54,12.77-5.71,15.6.88,1.36,3.59.99,3.72-.87.37-3.21,1.42-5.95,2.9-8.92.34-.69,1.44-2.86,2.12-1.91l.67.24c1.87,3.23,3.94,6.32,6.2,9.28v.7s-.19.7-.19.7c-7.9,6.17-6.63,12.37-.82,19.36,4.39,5.28,10.14,11.59,16.59,13.95,2.11,1.08,3.15.96,5.34,1.33.52-.03,1.06-.06,1.58,0,3.84.39,6.17-.48,9.11-3.12h.65s.82.09.82.09c5.37,3.83,10.98,7.37,16.83,10.63l.58.63c.19.06.19.14,0,.22l.1.67c-4.3,5.45-11.76,8.89-18.55,9.11-9.29-1.31-17.2-7.64-24.07-13.68C17.29,68.87-5.77,45.54,12.7,25.48c.44-.47.81-.52,1.1-.14Z"/>
  <path class="cls-6" d="M37.36,10.22l.44-.18c.71.8,1.37,1.53,1.99,2.18,20.91-12.74,50.86-1.92,56.7,22.23.17.62.34,1.36.44,2,.53,7.93-.96,15.24-5.3,22.18-.89,1.41-3.75,5.64-5.03,6.14-.18.07-.37.11-.56.14l.08-1.01c2.4-4.12,4.14-8.67,4.53-13.45l.5-.88c.22-1.25.22-2.53,0-3.78l-.31-.29c0-1.93-.2-3.83-.58-5.71-.23-1.85-.74-3.58-1.33-5.34-4.74-18.51-27.3-28.32-43.32-16.68,1.3,1.28.75,1.65-1.65,1.13-2.61,1.47-5.14,2.57-8.16,1.02l-.22-.59-.35-.34c-.06-1.83-.06-3.66-.02-5.48-.31-3.48-3.47-2.08-2.75,1l-.44.37c-.53.11-1.03-.27-1.5-1.14.03.94-.14,1.84-.5,2.69-.65-1.53,0-3.5.02-5s-1.17-5.91,1.65-5.9c1.25,0,4.6,3.64,5.67,4.68Z"/>
  <path class="cls-15" d="M88.94,34.45c-6.01-17.61-26.6-25.67-42.46-15.23,0,.35,4.39,4.02,4.86,4.92.56,1.06,0,2.54-1.21,2.74-1.32.22-3.24-.05-4.67,0-4.01.16-9.65.7-13.56.24-.92-.11-1.72-.76-1.87-1.68-.36-2.27-.03-6.49-.01-8.99,0-1.33,0-2.67,0-4l2,2.45.43.42c-.41,3.79.46,5.14,2.59,4.05l.53-.02c1.93.9,3.61,1.25,5.68.45,1.24-.48,1.94-1.58,3.53-1.34.49.07.76.46,1.24.44l-1.11-1.22c15.77-11.56,37.71-3.45,43.73,14.74.16.5.65,1.6.29,2.05Z"/>
  <path class="cls-16" d="M13.8,25.11c.18.06.18.13,0,.22-1.02.38-1.89,1.61-2.54,2.46-13.56,17.95,3.38,36.75,15.98,48.89,8.47,8.17,17.69,16.49,29.46,19.33.42-.29,1.12-.38.89.22-15.07-.48-29.52-15.38-39.24-25.78C5.14,56.33-6.01,36.78,12.46,21.33c.34.44.54,1.04.63,1.8.55.74.79,1.4.71,1.98Z"/>
  <path class="cls-10" d="M53.81,33.12c1.58.66,2.94,3.09,3.11,4.78.76,7.37-6.59,9.96-11.33,13.78.6.4,1.36.24,2,.33l6.54.25c.75.06,1.5.2,2.13.64,1.09,1.53.6,3.41-1.27,3.95-4.4-.23-9.43.47-13.76.07-.45-.04-.52-.17-.75-.24-2.61-2.77,1.08-6.91,3.4-8.75l6.55-4.43c2.64-2.02,3.29-3.26.95-5.94-2.19-1.48-4.13-1.37-6.68-.79-1.52.35-2.43,1.35-3.99.79-2-2.23.79-4.09,2.89-4.66,3.36-.92,7.05-1.7,10.23.21Z"/>
  <path class="cls-14" d="M96.5,34.45c-.63-2.25-1.95-5.19-3.07-7.26C83.06,8.07,58.61,1.64,39.88,12.63c-.48.04-2.06-1.97-2.52-2.41,22.3-15.1,54.48-2.54,59.13,24.23Z"/>
  <path class="cls-8" d="M75.15,86.03c-2.65-1.33-5.24-2.8-7.76-4.35-3.24-1.99-7.56-4.64-10.47-6.98-1.15.36-2.49-1.88-1.56-2.89,1.13-1.4,1.92-3.14,3.33-4.45l.43.08c4.85,3.62,9.92,6.96,15.21,10.03,4.93,2.46,3.62,4.82,1.36,8.5l-.55.06Z"/>
  <path class="cls-8" d="M30.92,41.34c-1.09.94-2.58,1.66-3.56,2.45-.98.88-3-.21-2.67-1.33-2.28-2.59-5.02-7.2-6.89-10.23-1.35-.83-2.83-3.08-2.89-4.67-.17-.29-1.09-2.1-1.11-2.22,0-.06-.02-.17,0-.22-.49-.83,2.26-2.12,3-2.33,2.05-.6,3.19.58,4.14,2.27,2.68,5.04,6.01,9.81,9.39,14.59.29.53.48,1.1.59,1.7Z"/>
  <path class="cls-1" d="M30.92,41.34c-2.36-3.65-4.98-7.12-7.34-10.78-1-1.55-3.13-5.93-4.21-6.91-.67-.61-1.42-.68-2.29-.49-.51.1-3.14,1.51-3.27,1.95-.88-1.15-1.58-2.25-1.33-3.78.41-.34.68-.9,1.26-1.3,1.39-.95,5.08-3,6.42-1.38,3.68,6.69,7.7,13.19,12.23,19.34.53,1.76-.3,2.35-1.45,3.34Z"/>
  <path class="cls-17" d="M27.36,43.79c-4.14,3.32-7.1,8.18-5.29,13.62,1.64,4.94,13.49,16.66,18.18,19.06-1.01.35-2.59-.59-3.48-1.07-4.56-2.47-15.13-13.41-17.23-18.12-2.74-6.15.12-11.19,5.15-14.82.76.86,1.39,1.48,2.67,1.33Z"/>
  <path class="cls-11" d="M70.26,72.91c.76-.11,1.3.06,1.33.89,1.05-.09,2.09.55,2.45,1.56,1.85,1.12,4.42,2.2,6.08,3.37.81.57,1.09,1.07,1.06,2.08-.02.7-1.88,4.61-2.36,5.21-.33.41-.86.52-.99.68-.72.69-2.49.57-2.67-.44.03-.05-.03-.17,0-.22.37-.61,2.09-3.91,2.18-4.39.28-1.43-.74-2.13-1.76-2.82-5.41-3.69-10.99-6.42-16.24-10.66-.29-.24-.67-.31-.63-.81,2.11-1.94,4.83,1.22,6.73,2.49,1.59,1.07,3.22,2.04,4.83,3.06Z"/>
  <path class="cls-15" d="M74.04,75.35c-.82-.5-1.63-1.05-2.45-1.56l.82-.77c4.66-1.71,8.97-4.32,12.58-7.73l1.05-.39c6.18-6.11,10.09-14.47,10.67-23.23.11-1.7-.27-3.6.22-5.22.84,5.29.05,11.83-1.68,16.89-3.45,10.11-11.33,18.11-21.22,22.02Z"/>
  <path class="cls-9" d="M91.16,45.79c.22,1.25.22,2.53,0,3.78-.25,5.54-2.27,10.65-5.11,15.34-4.2,4.15-8.86,6.96-14.45,8.89-.46-.29-.89-.61-1.33-.89,13.7-5.04,21.81-18.58,20.01-33.12.68,1.91.8,3.99.89,6Z"/>
  <path class="cls-17" d="M77.82,86.69c-5.75,6.68-11.02,9.85-20.23,9.56-.25-.32-.63-.16-.89-.22.35-.75,1.4-.37,2.09-.47,5.22-.75,13.58-4.63,16.37-9.31.9.36,1.67.56,2.67.44Z"/>
  <path class="cls-4" d="M40.47,56.68c-1-.29-1.59-.81-1.76-1.9-.89-5.63,6.64-8.94,10.28-11.7,1.98-1.5,3.71-2.76,2.38-5.52,1.49,1,2.42,1.93,1.61,3.94s-6.95,5.23-8.93,6.86c-2.36,1.95-5.12,5.06-3.58,8.32Z"/>
  <path class="cls-4" d="M78.04,32.89c-1.41-.84-3.47-.59-4.56.66-3.62,4.8-7.67,9.39-10.99,14.35-.05.97-.15,1.93.43,2.77-1.67-.82-1.93-2.6-1.24-4.24l10.9-14c1.01-1.16,3.9-1.24,5.01-.32.42.35.29.49.45.77Z"/>
  <path class="cls-16" d="M56.92,74.69c-2.15,2.06-5.26,3.88-8.34,3.79-1.04-.03-2.05-.52-3-.68.84-.3,1.72-.35,2.61-.61,2.72-.78,5.41-3.22,7.17-5.39-.16,1.33.63,2.14,1.56,2.89Z"/>
  <path class="cls-4" d="M53.81,33.12c-2.8-1.17-7.1-.79-9.95.16-2.16.72-4.09,1.58-3.16,4.28-2.07-.75-2.12-3.24-.3-4.41,3.17-2.05,10.43-2.81,13.41-.04Z"/>
  <path class="cls-3" d="M56.26,52.9c-2.69-.3-5.45-.33-8.13-.66-.29-.04-.48-.22-.54-.23,1.88-.26,4.43-.41,6.33-.22,1,.1,1.74.27,2.34,1.11Z"/>
  <path class="cls-5" d="M74.71,56.68c-2.15-1.17-1.1-3.45-1.33-5.56l.2.13,1.14,5.43Z"/>
  <path class="cls-13" d="M82.05,47.34c-.51.01-3.25-.84-3.33-1.11,1.43-.02,2.5-.27,3.33,1.11Z"/>
  <path class="cls-16" d="M17.8,32.23c-.48-.05-.85.7-1.07,1.04-1.39,2.14-2.4,4.52-3,7-.55,2.26-.13,5.4-3.59,4.84-2.92-.47-1.71-4.81-1.22-6.75.98-3.87,3.13-8.03,5.99-10.8.84,1.5,1.95,3.16,2.89,4.67Z"/>
  <path class="cls-14" d="M35.58,19.33c-.44,1-2.3,1.26-3,.44-.74-.86-.59-3.72-.56-4.89.03-1.24-.33-3.37,1.27-3.73,3.16-.72,2.28,3.85,2.28,5.85,0,.77.39,1.45.01,2.33Z"/>
  <path class="cls-2" d="M91.16,49.57c.05-1.2.05-2.58,0-3.78.37,1.05.37,2.75,0,3.78Z"/>
  <path class="cls-10" d="M82.05,47.34c-.99-.61-2.1-.98-3.33-1.11-.26-3.68.35-7.82,0-11.45-.08-.87-.27-1.2-.66-1.89-1.19-1.51-3.78-.99-4.9.38-3.75,4.56-7.8,9.56-11.04,14.47-.39.59.07,2.58.83,2.93.48.24.59.38,1.22.45,2.9.3,6.28-.23,9.23,0,.04,2.06.48,3.92,1.33,5.56.95.52,1.41.69,2.51.17.54-.26,1.5-1.53,1.5-2.06v-3.67c2.43.55,4.81-1.33,3.33-3.78ZM73.66,46.42c-1.77.1-3.57.04-5.4-.19l.58-1.09c1.56-1.61,2.79-4.01,4.31-5.58.13.06.24.12.27.21.2.73.46,6.27.25,6.66Z"/>
  <path class="cls-7" d="M73.15,39.56c.1-.11.03-.34.44-.22l.67,7.78-6-.89h5.11c-.14-2.18.29-4.54-.22-6.67Z"/>
</svg>