<?xml version="1.0" encoding="UTF-8"?>
<svg id="Layer_1" data-name="Layer 1" xmlns="http://www.w3.org/2000/svg" xmlns:xlink="http://www.w3.org/1999/xlink" viewBox="0 0 100 100">
  <defs>
    <style>
      .cls-1 {
        fill: #94d5a3;
      }

      .cls-2 {
        fill: #68b8c9;
      }

      .cls-3 {
        fill: none;
      }

      .cls-4 {
        opacity: .23;
      }

      .cls-5 {
        fill: #b2e49e;
      }

      .cls-6 {
        fill: #dff4fb;
      }

      .cls-7 {
        fill: #f4fbfe;
      }

      .cls-8 {
        fill: #606d76;
      }

      .cls-9 {
        clip-path: url(#clippath);
      }

      .cls-10 {
        fill: #5f6c75;
      }
    </style>
    <clipPath id="clippath">
      <rect class="cls-3" x="186.99" y="-353.61" width="630.6" height="560"/>
    </clipPath>
  </defs>
  <g>
    <path class="cls-10" d="M71.71,98.64H28.29c-1.11-.52-2.13-.77-3.17-1.47-2.59-1.75-3.68-4.46-3.84-7.54.15-27.03-.31-54.11.24-81.11.73-3.77,3.83-6.55,7.63-6.97,14.38.15,28.83-.33,43.17.24,4.17,1.04,6.56,4.73,6.61,8.94v78.89c-.21,1.07-.21,2.02-.52,3.09-.91,3.11-3.66,5.12-6.69,5.92Z"/>
    <path class="cls-7" d="M75.13,92.95l-.52.38H30.64c-2.01.02-3.86-1.13-3.88-3.3V5.68s.39-.53.39-.53c.36-.2.69-.41,1.1-.51,14.49-.41,29.2-.41,43.69,0,1.94.54,3.78,2.55,3.95,4.58v81.36c.05.98-.31,1.59-.77,2.36Z"/>
    <path class="cls-6" d="M75.13,92.95c-1.04,1.75-2.54,2.7-4.64,2.85H29.33c-2.32-.29-4.26-1.95-4.94-4.17-.45-27.64-.45-55.44,0-83.08.44-1.48,1.44-2.66,2.76-3.4v85.06c.18,1.94,1.72,2.71,3.5,2.75h44.47Z"/>
    <path class="cls-5" d="M67.35,58.25c-5.7,5.25-14.74,5.75-21.7,2.85-12.36-5.15-17.47-21.42-9.39-32.24,19.74-16.46,46.42,8.65,31.1,29.39Z"/>
    <path class="cls-1" d="M36.25,28.86c-.47,1.21-1.23,2.29-1.74,3.48-4.72,10.93.39,23.77,11.28,28.41,7.14,3.05,15.29,2.02,21.56-2.5-10.14,13.73-31.75,10.39-37.5-5.64-3.07-8.57-.47-18.02,6.4-23.75Z"/>
    <path class="cls-5" d="M38.48,78.2h23.24c.87.18,1.64,1.13,1.8,1.99.17.92.17,4.68-.04,5.56-.35,1.5-1.69,1.94-3.05,2.07-6.65-.39-13.9.53-20.48.01-1.42-.11-2.87-.51-3.23-2.08-.21-.89-.2-5.01.05-5.86.23-.8.91-1.47,1.72-1.7Z"/>
    <path class="cls-10" d="M42.65,7.28l10-.03c1.65.26,1.65,2.57,0,2.82-1.52.24-8.32.24-9.84,0-1.57-.25-1.68-2.35-.16-2.79Z"/>
    <path class="cls-8" d="M56.87,7.27c1.93-.4,2.39,2.43.67,2.78-1.93.4-2.39-2.43-.67-2.78Z"/>
    <path class="cls-7" d="M63.56,37.58c1.21,1.37.95,2.72-.19,4.02-4.1,4.72-9.36,9.02-13.65,13.61l-.4.22c-4.16-3.44-8.09-7.55-11.62-11.7-.53-.57-.63-1.04-.3-1.41.98-.58,2.24-.53,3.21.1,1.66,1.08,5.13,5.08,6.84,6.72l.46-.07c.49.79,1.09,1.3,1.79,1.55l13.44-13.16.43.11Z"/>
    <path class="cls-6" d="M63.56,37.58l-13.66,13.37c-.89.42-1.89-1.25-2.46-1.8.37,0,.53-.26.76-.47,3.99-3.62,7.6-7.9,11.57-11.56,1.42-.76,2.7-.77,3.78.47Z"/>
    <path class="cls-6" d="M49.72,55.21c-.88,1.12-2.65,1.29-3.78.46-2.6-3.1-6.81-6.05-9.21-9.18-1.06-1.37-.87-3.27.67-4.18.18.63.53,1.12.94,1.62,2.75,3.29,7.41,7.89,10.62,10.81.24.21.39.47.76.47Z"/>
  </g>
  <g class="cls-9">
    <g class="cls-4">
      <rect class="cls-2" x="32.59" y="-40.05" width="41.98" height="133.75"/>
      <rect class="cls-2" x="60.9" y="-118.03" width="40.51" height="211.73"/>
      <rect class="cls-2" x="95.55" y="-74" width="27.33" height="167.71"/>
    </g>
  </g>
</svg>