<?xml version="1.0" encoding="UTF-8"?>
<svg id="Layer_1" data-name="Layer 1" xmlns="http://www.w3.org/2000/svg" viewBox="0 0 100 100">
  <defs>
    <style>
      .cls-1 {
        fill: #71797b;
      }

      .cls-2 {
        fill: #000001;
      }

      .cls-3 {
        fill: #5f6768;
      }

      .cls-4 {
        fill: #4c5456;
      }

      .cls-5 {
        fill: #8b8b8b;
      }

      .cls-6 {
        fill: #6c7476;
      }

      .cls-7 {
        fill: #676f71;
      }

      .cls-8 {
        fill: #80b5c8;
      }

      .cls-9 {
        fill: #687072;
      }

      .cls-10 {
        fill: #606769;
      }

      .cls-11 {
        fill: #b1bac0;
      }

      .cls-12 {
        fill: #fea201;
      }

      .cls-13 {
        fill: #444c4e;
      }

      .cls-14 {
        fill: #8d8d8d;
      }

      .cls-15 {
        fill: #da0b41;
      }

      .cls-16 {
        fill: #203547;
      }

      .cls-17 {
        fill: #a17423;
      }

      .cls-18 {
        fill: #508399;
      }

      .cls-19 {
        fill: #697173;
      }

      .cls-20 {
        fill: #6a7274;
      }

      .cls-21 {
        fill: #8c8c8c;
      }

      .cls-22 {
        fill: #e6eef1;
      }

      .cls-23 {
        fill: #424a4c;
      }

      .cls-24 {
        fill: #c68717;
      }

      .cls-25 {
        fill: #485052;
      }

      .cls-26 {
        fill: #bb043c;
      }

      .cls-27 {
        fill: #575e5f;
      }

      .cls-28 {
        fill: #636b6c;
      }

      .cls-29 {
        fill: #fd7200;
      }

      .cls-30 {
        fill: #6f777a;
      }

      .cls-31 {
        fill: #5a6263;
      }

      .cls-32 {
        fill: #444d4f;
      }

      .cls-33 {
        fill: #508499;
      }

      .cls-34 {
        fill: #cdd7dc;
      }

      .cls-35 {
        fill: #d9e5e9;
      }

      .cls-36 {
        fill: #51849a;
      }

      .cls-37 {
        fill: #f2fdfe;
      }

      .cls-38 {
        fill: #122130;
      }

      .cls-39 {
        fill: #424b4d;
      }

      .cls-40 {
        fill: #6e7577;
      }

      .cls-41 {
        fill: #596162;
      }

      .cls-42 {
        fill: #464f51;
      }
    </style>
  </defs>
  <g>
    <path class="cls-40" d="M99.12,88.2v1.92c-.53.73-.89,1.04-1.82,1.15-3.06.35-6.74-.26-9.87,0-.37-.71-.14-2.27.38-2.88.18-.37.4-.37.58,0,.25-.45.5-.83.77-1.15l.37-.27c2.94-.09,5.89-.13,8.83-.11.12.65.28.88.77,1.34Z"/>
    <path d="M75.55,46.22c.4.31.95.16,1.48.34,1.74.57,1.76,2.33,2.35,3.69.35.72-1.05.87-1.15.19-.67.35-1.43.49-2.27.43.35.65.4,1.21.16,1.68.75.81,1.03,1.8.77,2.88l.4.52c.86,3.09,1.69,6.2,2.49,9.33v1.26s.37.23.37.23c2.32-.23,4.56-.12,6.71.34,1.44.03,2.59.03,4.03.19.86.48,1.69.8,2.49.97l.58.37c3.45.32,2.78,2.35,3.07,5.18-.18.51-.57.51-.77,0-.06.28-.32.49-.77.64-.45.47-.44,6.86-.06,7.55.16.28.96,1.05,1.21.82.12-.4.6-.75.96-.96.11-.22.24-.09.38.38.1,1.44.13,3.21.38,4.6-.18.36-.27.37-.65.4-2.76.19-5.76-.17-8.55-.01l-.44-.41c-1.27-7.57-10.28-11-16.19-5.94-2.13,1.82-2.6,3.46-3.31,6-.05.18-.2.28-.37.35l-.13.38H31.12l-.24-.38-.46-.5c-1.72-10.79-17.96-10.81-19.61,0l-.44.49-.49.42c-2.35-.06-4.69-.09-7.03-.09l-.53-.33v-.58c-.11-.97-.16-1.97-.12-2.95.01-.29.99-.27.89.27.12-.29.45-.4.99-.33.14-.04.2-.16.25-.29.4-1.07.44-8.25-.33-8.93-.48-.1-.78-.31-.9-.61-.13.43-.43.58-.86.44l.1-3.5c.34-1.62.76-1.29,1.73-2.39v-18.78c-.07-1.26.83-1.88,1.3-2.73.1-.19,0-.55.04-.62.18-1.08,1.49-2.59,2.63-2.59,21.67-.1,43.34-.2,65.01.04,1.36.1,2.06,1.36,2.51,2.55Z"/>
    <path class="cls-40" d="M68.84,87.24c.29.03.39.27.28.74l.29.03c.26.02.45.14.58.38.41.14.72,2.11.69,2.55l-.31.33H29.16c-.48-.47-.16-2.43.38-2.88.18-.37.4-.37.58,0,.25-.45.5-.83.77-1.15h37.95Z"/>
    <path class="cls-38" d="M87.81,88.39c.03,1.03-.12,1.89-.38,2.88-1.8,6.64-10.2,8.48-14.76,3.64-.09-.12-.2-.31-.14-.4.41-.53,1.84-1.93,2.44-1.71l.53-.06c5.16,4,11.42-2.34,7.46-7.46l.07-.53c-.53-.29,1.5-2.3,1.65-2.36s.31,0,.46.06c1.04,0,1.78,1.54,2.18,2.45.43.96,1.02,2.63.5,3.49Z"/>
    <path class="cls-16" d="M26.86,82.45c.1.11.23.29.17.38-.32.53-1.7,2.1-2.28,1.92-.05.17-.12.16-.19,0l-.52.06c-4.95-4.04-11.39,2.2-7.46,7.28l-.07.53c.17.06.17.12,0,.19.1.11.23.29.17.38-.32.53-1.7,2.1-2.28,1.92-.93-.98-1.93-2.53-2.3-3.83-.73-.16-1.07-2.55-.38-2.88-.54-.83.05-2.49.45-3.44,1.92-4.59,7.69-6.72,12.19-4.68.9.41,2.48,1.16,2.5,2.18Z"/>
    <path class="cls-16" d="M85.13,82.45l-2.11,2.3c-.05.17-.12.16-.19,0l-.51.04c-4.94-4.05-11.61,2.36-7.32,7.3l-.04.53c.16.06.16.12,0,.19l-2.3,2.11c-1.07-1.14-1.86-2.07-2.3-3.64-.22-.78-.41-2.06-.38-2.88-.54-.84.05-2.5.45-3.46,1.92-4.63,7.65-6.65,12.16-4.64.91.4,2.49,1.14,2.53,2.16Z"/>
    <path class="cls-38" d="M29.54,88.39c.01.67-.21,2.21-.38,2.88-1.63,6.31-10.27,8.57-14.76,3.83l2.11-2.3.5-.04c4.37,3.76,10.99-1.31,8.22-6.52-.63-.62-.79-1.12-.48-1.49l2.11-2.3c.98-.04,1.78,1.59,2.17,2.47.42.94,1.05,2.66.51,3.47Z"/>
    <path class="cls-36" d="M84.55,61.94l.06.47c-1.46,1.41-2.93,2.81-4.39,4.22l-.47-.08c-1.17-3.64-1.92-7.42-2.88-11.12-.16-.52,2.76-3.31,2.98-3.35.17-.03.32,0,.47.09,1.43,3.24,2.76,6.54,4.22,9.78Z"/>
    <path class="cls-42" d="M75.55,46.22c-.67-.51-1.17-2.09-2.53-2.17-21.62-.25-43.32-.16-64.96-.05-1.23.31-2.06,1.15-2.67,2.22,0-1.53,1.23-2.95,2.78-3.07h64.61c1.55.09,2.81,1.53,2.77,3.07Z"/>
    <path class="cls-40" d="M2.32,87.24c2.43-.33,5.54.24,8.05,0,.32.04.44.27.36.68l.41.09c.26.02.45.14.58.38-.02.81.16,2.09.38,2.88-2.93-.21-6.23.28-9.11,0-2.84-.27-2.55-3.78-.66-4.03Z"/>
    <path class="cls-8" d="M86.85,67.11c-2.32-.05-4.66.03-6.98,0-.24-.06-.06-.43-.11-.58l4.79-4.6c.76,1.7,1.78,3.35,2.3,5.18Z"/>
    <path class="cls-15" d="M2.32,70.75v3.26c.26-.12.47-.19.77-.19.15.02.38.07.38.17.11,2.68.2,6.29,0,8.93.12.58,0,.94-.38,1.06-.27-.05-.5-.03-.76-.19,0,.96,0,1.92,0,2.88-.44-.81-.07-1.89-.2-2.77-.67-4.34-.67-5.66,0-9.99.17-1.07-.05-1.96.2-3.15Z"/>
    <path class="cls-12" d="M97.01,73.82c1.16.31.72,4.64.77,5.75-.07.46-.14.91-.19,1.34.17.24.24.75,0,.96-.11.77-.25.81-.96.96-.32.19-.71.03-.79-.32l.04-7.64.36-1.04c.19-.02.62-.04.77,0Z"/>
    <path class="cls-8" d="M80.34,52.16l-3.45,3.26c-.25-.96-.52-1.91-.77-2.88-.03-.95,1.22-1.88,2.11-2.11.36,0,.94.13,1.15-.19.25.58.68,1.28.96,1.92Z"/>
    <path class="cls-25" d="M93.95,68.65c-.45-.04-.96.09-1.4-.04-.34-.1-1.15-1.12-1.67-1.3,1.32.15,2.25-.06,3.07,1.34Z"/>
    <path class="cls-17" d="M97.97,82.26l-.38-.38c.04-.29,0-.65,0-.96.05-.17.12-.16.19,0,.02.44.16.86.19,1.34Z"/>
    <path class="cls-24" d="M97.78,80.91h-.19c.01-.42-.15-1.08.19-1.34.02.45-.02.9,0,1.34Z"/>
    <path class="cls-14" d="M89.15,87.24c.04.37-.03.78,0,1.15-.26,0-.51,0-.77,0l-.27-.26c-1.08-11.36-16.94-11.75-18.43-.37l-.28.25c-.65.99-.62.03-.58-.77.16-2.82,2.22-5.91,4.54-7.44,6.4-4.21,14.92-.08,15.78,7.44Z"/>
    <path class="cls-2" d="M88.39,88.39c-.19,0-.38,0-.58,0-.07-2.31-1.05-4.37-2.68-5.94-5.56-5.36-14.91-1.75-15.14,5.94-.45,0-.66.13-.58-.38,1-12.25,18.38-11.88,18.98.38Z"/>
    <path class="cls-37" d="M15.45,63.09c-1.15-.2-1.04-3.95-.78-4.8.4-1.29,2.5-.9,3.56-.95-.29-2.9.56-3.61,3.36-3.46,2.58.14,2.5,1.14,2.39,3.46.87.09,2.55-.24,3.25.3.79.61.77,4.04.28,4.86-.76,1.27-3.23.06-3.5.91-.43,1.3.48,5.66-.32,6.58s-5.46.96-5.46-.86v-6.04c-.85-.1-1.97.14-2.78,0Z"/>
    <path class="cls-8" d="M72.48,50.44l.18.36c-5.27,5.34-10.55,10.68-15.84,16.02l-.63.1c-2.14-.58-1.56-3.64-1.54-5.48,0-.36.2-.73.2-.85l.27-.81c3-3,6-6,9-9l.88-.34c2.46,0,5.04-.11,7.48,0Z"/>
    <path class="cls-36" d="M74.59,54.27l-.09.63c-3.98,3.98-7.95,7.95-11.93,11.93l-.82.28c-1.68-.02-4.02.23-5.56-.19l16.29-16.48c.37.02,1.01-.13,1.25.19s.69,3,.86,3.65Z"/>
    <path class="cls-36" d="M75.35,57.14c.88,3.32,1.82,6.64,2.68,9.97-4.28-.02-8.57.03-12.84,0l-.14-.4c3.29-3.23,6.58-6.45,9.87-9.68l.43.11Z"/>
    <path class="cls-32" d="M46.41,50.91c.2-.71,1.34-.42,1.34,0v33.54c0,.56-1.34.56-1.34,0v-33.54Z"/>
    <path class="cls-8" d="M75.35,57.14l-10.16,9.97c-1.15,0-2.3.01-3.45,0l12.84-12.84c.25.95.51,1.92.77,2.88Z"/>
    <path class="cls-36" d="M65,50.44l-10.16,10.16c0-2.03-.22-4.01-.2-6.04,0-.32-.12-.85.2-1.05l.37.43c-.07,1.04-.05,2.07.05,3.1l6.18-6.26.87-.34c.89,0,1.79,0,2.68,0Z"/>
    <path class="cls-14" d="M30.88,87.24c.04.37-.03.78,0,1.15-.26,0-.51,0-.77,0l-.27-.26c-1.12-11.39-16.88-11.73-18.42-.37l-.28.25c-.78,1-.85.15-.77-.77,1.14-11.86,19.12-12.12,20.51,0Z"/>
    <path class="cls-8" d="M62.32,50.44l-7.19,7.28c-.43.08-.26-.19-.28-.47-.08-1.14-.04-2.59,0-3.74,0-.06,0-.13,0-.19.43-1.22,1.65-2.46,2.88-2.88,1.53-.05,3.07.01,4.6,0Z"/>
    <path class="cls-26" d="M3.09,83.98v-10.16c1.08,0,1.5.42,1.68,1.48.25,1.52.2,5.83.05,7.44-.12,1.32-.55,1.45-1.73,1.24Z"/>
    <path class="cls-29" d="M96.25,73.82c.08,2.77-.11,5.57,0,8.35.01.37-.2.77.38.66-.05.01-.1.21-.42.16-.7-.11-1.23-.7-1.31-1.4-.15-1.25-.17-5.5.02-6.7.13-.82.58-1,1.33-1.07Z"/>
    <path class="cls-21" d="M55.09,70.23c.7-.74,4.95-.91,4.32,1.16-.45,1.46-6.16.79-4.32-1.16Z"/>
    <path class="cls-5" d="M37.54,69.84c.86-.19,2.98-.19,3.49.66,1.04,1.75-2.91,1.91-3.93,1.43s-.6-1.86.45-2.09Z"/>
    <path class="cls-18" d="M57.72,50.44l-2.88,2.88c.13-2.64.24-2.79,2.88-2.88Z"/>
    <path class="cls-33" d="M78.23,50.44l-2.11,2.11c-.08-.33-.75-1.94-.57-2.11.89-.01,1.79.01,2.68,0Z"/>
    <path class="cls-23" d="M11.71,70.56h-2.68v-.57c.78.17,2.57-.48,2.68.57Z"/>
    <path class="cls-39" d="M11.71,72.29h-2.68v-.57c.78.17,2.57-.48,2.68.57Z"/>
    <path class="cls-13" d="M11.71,74.01h-2.68v-.57c.78.17,2.57-.48,2.68.57Z"/>
    <path class="cls-2" d="M30.12,88.39c-.19,0-.38,0-.58,0-.04-2.18-1.17-4.43-2.68-5.94-5.46-5.44-14.92-1.68-15.14,5.94-.45,0-.66.13-.58-.38,1.05-12.23,18.37-11.89,18.98.38Z"/>
    <path class="cls-4" d="M74.97,92.8c.02-.06-.02-.15,0-.19-.27-.51.14-.69.58-.38.43-.18.62-.09.58.38.55-.26,1.86.43,2.11.96.18-.54,1.11-.52,1.34,0,.33-.54,1.69-1.14,2.3-.96-.13-.39-.06-.64.38-.58.1-.14.3-.27.58-.38-.28-.51.42-2.1.96-2.3-.24-.29-.32-.89,0-1.15-.4-.13-.62-.53-.67-1.22-.37-.5-.47-.92-.29-1.28-.36.06-.57,0-.38-.38-.46-.34-.13-.75.38-.58h.19c4.72,5.77-2.4,12.85-8.05,8.05Z"/>
    <path class="cls-40" d="M24.56,84.75c.3.43.15.76-.38.58-.28.47-.77.38-.77-.19-.82-.51-1.59-.71-2.3-.58-.12-.26-.31-.07-.58.58-.32.36-.6.1-.84-.78-.08-.07-1.75.64-1.84.97.21.28.28.72,0,.96l-.31.35c-.8-.57-1.2-.05-1.22,1.57-.06.32-.12.64-.19.96.22.29.34.71.38,1.27.4.44.53.85.39,1.22.5-.23.71.16.38.58.23.52-.42.8-.77.38-4.78-5.67,2.69-12.72,8.05-7.86Z"/>
    <path class="cls-4" d="M24.75,84.75c.17.78.82,1.07,1.11,1.86,2.23,5.99-5.39,10.36-9.35,6.19-.03-.03.03-.15,0-.19l.77-.38c.43-.32.6-.08.38.38.48-.26,2.14.44,2.3.96.11-.54,1.14-.51,1.34,0,.28-.59,1.69-1.2,2.3-.96-.1-.55.4-1.06.96-.96-.3-.51.19-1.77.77-1.92-.31-.68-.36-1.24,0-1.92-.38-.12-.62-.5-.72-1.16-.35-.41-.49-.79-.43-1.14-.17-.06-.16-.12,0-.19.11-.2.27-.38.38-.58h.19Z"/>
    <path class="cls-40" d="M82.83,84.75l-.38.58c-.26.22-.52.16-.77-.19-.72-.44-1.48-.7-2.3-.77-.41.03-.73-.03-.96-.19-.78.33-1.61.65-2.49.96.33.42-.07.98-.58.77-.25.18-.86,1.41-.77,2.3-.06.32-.12.64-.19.96.21.35.34.82.39,1.41.48.4.67.76.57,1.08.57-.09.67.25.19.58-.11.12-.54.32-.58.38-5.16-5.39,2.39-12.8,7.86-7.86Z"/>
    <path class="cls-11" d="M82.83,85.71c.67.94.77,1.38.96,2.49-.1.28-.36.43-.8.47.41.19.68.42.8.68-.21,1.05-.39,1.41-.96,2.3-.34.27-.93-.09-1.15-.38-.17.35.05.67.3.91l-.11.43c-.67.5-1.46.86-2.3.96-.33-.09-.51-.38-.55-.86-.19.51-.45.79-.79.86-.78-.11-1.47-.52-2.11-.96-.19-.39-.14-1.27.38-1.34-.46-.5.24-1.17.77-.77.3-.42,1.19-.15,1.15.38.21-.02.67-.11.94-.2,1.39-.46,1.86-1.77,1.17-3.05l.19-.39c-.49-.48.15-1.46.77-1.15-.05-.66.89-.69,1.34-.38Z"/>
    <path class="cls-7" d="M83.79,88.2c.02.12.23.27.21.67-.01.27-.2.41-.21.48-1.47-.03-1.65-1.35,0-1.15Z"/>
    <path class="cls-30" d="M78.23,93.56c.37-1.62,1.28-1.78,1.34,0-.34.04-1.01.05-1.34,0Z"/>
    <path class="cls-20" d="M76.5,91.26c-.04.13.07.98-.38,1.34-.19-.13-.28.04-.58-.38-.07-.1-.05-.42-.19-.58-.58-.73,1.02-1.17,1.15-.38Z"/>
    <path class="cls-20" d="M81.68,85.13c.13.08.09-.44.77.19.15.14.23.17.38.38-.29.18-1.17.29-1.34.38-.88.44-.69-1.38.19-.96Z"/>
    <path class="cls-31" d="M82.83,91.65c-.1.15-.17.52-.21.55-.06.04-.34-.18-.36-.17-.35.47-.8-.35-.58-.77.35-.13.88.14,1.15.38Z"/>
    <path class="cls-6" d="M82.25,92.03s0,.3-.38.58c-.19-.34-.67-1.17-.19-1.34.01.38.24.62.58.77Z"/>
    <path class="cls-34" d="M20.53,85.13c.09-.31.28-.5.58-.58.12-.2.19-.54.21-.56.18-.16,1.53.4,1.79.58.29.21.27.52.3.55.16.28.1.6-.19.96.3.42-.28,1.19-.77,1.15-.44.11-1.58-.32-1.73-.77l-.22.39c-1.61.09-2.44,2.1-1.24,3.22l-.08.42c-.09.47-.71,1.24-1.15.77.01.56-.74.49-1.15.38-.35-.5-.74-.78-.88-1.53-.1-.53.13-.88.12-.96.33-.28.39-.6.19-.96-.89-.57.14-2.33.64-2.27.25.03.56.4.9.35.24-.33.2-.61,0-.96-.02-.05-.39-.18-.38-.29.02-.21,1.89-1.06,2.21-1.05.63.02.43,1.05.85,1.15Z"/>
    <path class="cls-19" d="M18.04,91.26c.79.09.33,1.7-.38,1.34-.2-.16-.24-.24-.38-.38-.13-.14-.26-.4-.38-.58.24-.49.86-.28,1.15-.38Z"/>
    <path class="cls-10" d="M16.31,88.2c.2.12.6.11.76.48-.25.32-.52.53-.95.48-.03-.2-1.08-1.1.19-.96Z"/>
    <path class="cls-9" d="M24.17,85.32s.02.14,0,.19c.57.67-.52,1.25-.96.58-.4-.2-.1-.78.19-.96.09.08.6.11.77.19Z"/>
    <path class="cls-41" d="M20.53,85.13v-1.15c.63-.06.62-.03.58.58-.12.2-.03.71-.58.58Z"/>
    <path class="cls-1" d="M17.85,86.28c-.05-.26.08-.76,0-.96.41.25.53.89,0,.96Z"/>
    <path class="cls-11" d="M25.32,87.81c.14.55-.12.87-.76.95.63.12.9.23.76.97-.15.64-.41,1.36-.77,1.92l-.43.27c-.19-.21-.36.02-.52.69-.52.35-1.69.88-2.3.96-.32-.07-.56-.33-.72-.78-.08.46-.29.72-.62.78-.71-.09-1.73-.52-2.3-.96.36-.38.45-.82.38-1.34.41-.15.61-.77,1.15-.77.32-.39.96-.1.96.38.21-.02.67-.11.94-.2,1.39-.46,1.86-1.77,1.17-3.05l.19-.39c-.02-.26.66-1.09.77-1.15.5-.27.59.27.96-.58.78.57.97,1.42,1.15,2.3Z"/>
    <path class="cls-7" d="M25.32,89.73c.13-.65-1.04-.38-1.15-.87-.17-.75,1.28-.4,1.15-1.05.2.99.24.9,0,1.92Z"/>
    <path class="cls-19" d="M21.3,93.56c-.33.04-1.01.04-1.34,0,.26-1.69,1.01-1.65,1.34,0Z"/>
    <path class="cls-27" d="M24.56,91.65c-.28.43-.54.68-.96.96l-.38-1.34,1.34.38Z"/>
    <path class="cls-34" d="M78.42,84.17c.32-.12.49.06.5.55-.02-.29.14-.36.45-.36.34-.69,1.45-.16,2,.22.31.22.28.53.3.55-.29.18-.59.76-.19.96-.13.08-.78.88-.77,1.15-.49.05-1.68-.33-1.92-.77l-.19.4c-1.48.18-2.18,2.12-1.22,3.22l-.13.41c-.28.17-.66.45-.77.77-.41-.01-.99-.11-1.15.38-.33-.36-.82-.42-1.06-1.34-.17-.65.13-.99.11-1.15.33-.28.39-.6.19-.96-.56-.36-.44-.47-.25-1.11.07-.22.57-1.28.67-1.34.07-.05.33.17.35.16.64.08.83-.18.58-.77.02-.03-.07-.25.13-.39.37-.28,1.41-.61,1.89-.73.17-.04.43.17.47.16Z"/>
    <path class="cls-28" d="M78.42,84.17c.39-.06,1.1-.99.96.19-.16.33.13.92-.76.77l-.19-.96Z"/>
    <path class="cls-3" d="M74.59,88.2c.19.12.6.11.76.48-.25.32-.52.53-.95.48-.02-.19-1.08-1.1.19-.96Z"/>
    <path class="cls-9" d="M75.35,85.9s.32-.49.58-.77c1.04.78.49,1.55-.58.77Z"/>
    <path class="cls-35" d="M80.72,87.24c1.2,1.54.13,3.98-1.83,3.85-.27-.02-.39-.19-.47-.21v-3.73c.05-.26.19-.49.38-.68.73-.02,1.45.17,1.92.77Z"/>
    <path class="cls-22" d="M78.8,86.47c-.04,1.24.05,2.5,0,3.75-.01.37.2.77-.38.66-.28-.07-.96-.22-1.15-.38-1.4-1.23-.58-3.97,1.53-4.03Z"/>
    <path class="cls-35" d="M22.45,87.24c1.2,1.54.13,3.98-1.83,3.85-.27-.02-.38-.18-.47-.21l.03-3.67c.02-.42.09-.67.55-.73.64.02,1.31.24,1.73.77Z"/>
    <path class="cls-22" d="M20.72,86.47c-.38,1.16-.14,2.52-.19,3.75-.01.37.2.77-.38.66-.47-.12-.53-.08-.96-.38-1.69-1.18-.79-4.09,1.53-4.03Z"/>
  </g>
  <path d="M18.23,66.66v.35s.35.71,1.52.92c2.44.43,4.27-.41,4.24-1s.14,3.16.14,3.16c0,0-.35,1.15-.43,1.15s-5.23.37-5.27.29-.98-4.2-.98-4.2l.78-.67Z"/>
</svg>