<?xml version="1.0" encoding="UTF-8"?>
<svg id="Layer_1" data-name="Layer 1" xmlns="http://www.w3.org/2000/svg" viewBox="0 0 100 100">
  <defs>
    <style>
      .cls-1 {
        fill: #126d7b;
      }

      .cls-2 {
        fill: #328eda;
      }

      .cls-3 {
        fill: #b20705;
      }

      .cls-4 {
        fill: #f91f23;
      }

      .cls-5 {
        fill: #f9cc2a;
      }

      .cls-6 {
        fill: #318bd3;
      }

      .cls-7 {
        fill: #cecece;
      }

      .cls-8 {
        fill: #116d7b;
      }

      .cls-9 {
        fill: #d19f9f;
      }

      .cls-10 {
        fill: #116c7b;
      }

      .cls-11 {
        fill: #ebeef0;
      }

      .cls-12 {
        fill: #f41e22;
      }

      .cls-13 {
        fill: #252f5c;
      }

      .cls-14 {
        fill: #247e8b;
      }

      .cls-15 {
        fill: #257e8c;
      }

      .cls-16 {
        fill: #1b2653;
      }

      .cls-17 {
        fill: #202b58;
      }

      .cls-18 {
        fill: #f4b829;
      }

      .cls-19 {
        fill: #fefefe;
      }

      .cls-20 {
        fill: #27315d;
      }

      .cls-21 {
        fill: #0d6a79;
      }

      .cls-22 {
        fill: #36a4fe;
      }

      .cls-23 {
        fill: #283366;
      }
    </style>
  </defs>
  <path class="cls-22" d="M25.45,44.83l.59-.67c3.39-1.63,6.74-3.36,10.04-5.18,3.64-1.8,4.23-1.86,7.84-.74,4.33,1.35,8.85,3.05,13.08,4.69,1.7,1.01,2.71,3.03.59,4.15.05.69-1.17.84-1.43.2-.27.61-.96.64-1.23,0-.41.54-1.61.06-1.64-.61-3.84-1.18-7.56-2.84-11.38-4.09-.5-.03-2.95,1.3-3.57,1.64.07.4-.3.74-1.11,1.02l8.14,17.67,3.22,10.44c6.21,1.51,12.52,3.06,18.94,4.66,1.54.52,3.03,2.25,2.14,3.89-.9.92-1.1,1.13-2.54,1l-20.85-4.54c-3.11-1.77-4.99-5.22-7.23-7.93-.27-.06-2.18,1.54-2.54,1.84l-.05.53c-.45.17-.7.4-.74.7l5.1,23.65-.22.92c-1.69,2.02-4.16,1.55-5.44-.6l-7.24-24.69c0-.64-.1-1.35.03-1.98.39-1.91,6.02-5.68,7.54-7.2l.16-.58-5.81-12.43c-.97,1.78-1.59,3.75-2.56,5.53-.17.23-.31.5-.41.82-.28.29-.48.35-.82.51-2.29,1.09-6.65,2.67-9.1,3.39-1.27.37-2.21.69-3.46-.04-1.42-.83-1.58-2.23-1.16-3.65l.8-.72,8.05-2.89c.23-.55.45-.95.97-1.3.9-2.03,1.79-5.1,2.82-6.91.12-.21.2-.39.45-.46Z"/>
  <path class="cls-11" d="M84.6,41.35l.37.23-4,17.28c-.17.47-.53.9-1.07.7l-.87.08c-6.06-1.42-12.09-2.75-18.09-3.98l-.28-.39c.22-1.02.58-2.03.82-3.07-.39-.88-.14-1.84.61-2.46-.39-.11-.4-.3,0-.41.05-3.01.75-6.09,2.05-8.8-.35-.94-.13-1.79.61-2.46-.39-.12-.4-.3,0-.41.01-.05.3-.42.41-.82,1.03.01,2.07.03,3.09.23,5.5,1.12,11.13,2.3,16.36,4.27Z"/>
  <path class="cls-4" d="M57.99,23.34c.05-.73,1.62-.6,1.43.2.04.41-.46.09-.43.09,1.49.14,1.56,2.61,1.58,3.76.03,1.63.02,4.19-2.17,3.93-5.16.05-10.21.12-15.15.2-.61-.25-1.44-.91-1.59-1.58-.18-.79-.13-3.57-.05-4.47.12-1.3.67-1.48,1.65-2.14,4.85-.62,9.9-.69,14.74,0Z"/>
  <path class="cls-5" d="M55.95,13.1c.55.14.98.35,1.17.93l1.25,9.01-.37.3c-4.91-.05-9.83.03-14.74,0,.59-2.75.57-6.2,1.28-8.85.21-.76.41-1.29,1.26-1.4,2.5-.32,7.48-.11,10.14.01Z"/>
  <path class="cls-4" d="M79.9,59.57c.38-.32.49-.31.41.2.53.59.05,2.24-.23,3.03-.35.99-.79,1.86-1.61,2.5l-16.9-4.08c-2.33-1.23-1.35-3.92-.91-5.95.42-.04.82.01,1.24.09,5.91,1.15,12.09,2.84,18.01,4.21Z"/>
  <path class="cls-6" d="M38.34,44.22l7.67,16.79,3.41,11.02,19.36,4.49c2.13,1.21,2.63,3.55.88,5.36-.03-3.24-2.17-3.54-4.71-4.2-5.52-1.44-11.23-2.33-16.68-3.99l-3.28-10.64-8.21-17.8c-.07-.41,1.16-.82,1.56-1.04Z"/>
  <path class="cls-4" d="M67.82,31.93c5.65.95,11.23,2.29,16.75,4,.75.63,1.04,1.38,1.12,2.32.06.75-.17,2.87-.88,3.09-.06.18-.12.17-.2,0-6.45-1.61-12.95-3.17-19.45-4.5.52-1.94.36-4.36,2.66-4.91Z"/>
  <path class="cls-22" d="M34.25,36.64c-.83,2.84-5.32,3.42-7.71,2.29-2.56-1.21-4.86-5.6-2.93-8.02,3.33-5.88,13.7-.1,10.64,5.73Z"/>
  <path class="cls-6" d="M54.92,40.33c.33-.52,1.49-.23,1.43.41.31-.52,1.35-.21,1.23.41.56-.51,1.33.41,1.71.89,1.01,1.27,1.31,3.28.07,4.5-.44.44-1.3,1.13-1.78.54-.36-.23.47-.42.66-.87.49-1.11-.42-2.3-1.34-2.86-1.74-1.06-6.27-2.31-8.43-3.03-1.82-.61-5.94-2.32-7.58-2.46-.87-.07-1.31.09-2.08.38-4.36,1.59-8.92,4.93-13.37,6.59.2-1.2.96-1.71,1.91-2.29,4.16-2.55,9.47-4.42,13.84-6.63,4.61,1.05,9.27,2.78,13.73,4.41Z"/>
  <path class="cls-7" d="M87.27,41.96c-1.23,5.87-2.77,11.8-4.3,17.6-.08.33-.22.54-.41.61-.57.5-1.93.3-2.25-.41-.19-.04-.33-.19-.41-.2l.65-.68,4.06-17.54c.06.02.14-.02.2,0,.5-.51,2.14.02,2.46.61Z"/>
  <path class="cls-6" d="M40.59,98.05l-5.28-24.52c-.11-.7.74-.91,1.19-1.27l4.89,23.05c.1,1.26.01,1.78-.79,2.74Z"/>
  <path class="cls-6" d="M23.6,30.91c2.85-6.87,13.02-3.97,11.82,3.53-.07.44-.56,2.21-1.18,2.2,1.79-6.14-6.83-10.52-10.64-5.73Z"/>
  <path class="cls-15" d="M69.66,18.01c1.43.29,1.43,2.37,0,2.66-1.35.24-6.95.51-7.89-.19-1.14-.85-.39-2.45,1.05-2.65,1.65-.23,5.2-.11,6.84.19Z"/>
  <path class="cls-15" d="M39.77,18.01c1.44.27,1.42,2.37,0,2.66-1.64.29-4.98.41-6.63.19-2.36-.32-2.34-2.74-.2-3.03,1.81-.25,5.04-.09,6.84.19Z"/>
  <path class="cls-3" d="M87.27,41.96c-.85-.06-1.64-.41-2.46-.61.3-1.94,1.2-3.87-.75-5.29l-16.24-4.12c.64-.15.68-.25,1.48-.15,5.36.68,11.55,3.11,16.95,4.13,2.48,1.26,1.46,3.9,1.01,6.05Z"/>
  <path class="cls-23" d="M56.77,36.23c2.64.45,5.27.99,7.89,1.62l.09.22c-.2.81-.42,1.65-.61,2.46l-.73.22-4.85-.91-.56-.54c-.19.27-.48.26-.86-.05-.06.83-.32,1.32-.77,1.48-.43-.17-.99-.25-1.43-.41.33-1.18.37-3.86,1.84-4.09Z"/>
  <path class="cls-23" d="M54.92,47.29l.15.5c1.05.33,2.09.64,3.13.94,1.27.14,2.78.45,3.89,1.02-.19.81-.42,1.64-.61,2.46l-7.65-1.87c-1.5-.97-.66-2.27-.54-3.66.44.13,1.29.56,1.64.61Z"/>
  <path class="cls-14" d="M36.7,4.91c1.89,1.84,3.77,3.8,5.64,5.88.32,1-.12,1.73-1.14,1.9-.33-.05-.38-.12-.62-.29-1.84-1.34-3.8-4.13-5.57-5.7-.5-1.15.53-2.18,1.69-1.79Z"/>
  <path class="cls-14" d="M66.59,4.91c.6.85.71,1.23.21,2.16-.62,1.16-4.03,4.24-5.2,5.19-.23.18-.45.36-.74.44-1.11-.05-1.44-1.07-1.12-2.04,1.84-1.46,3.68-4.22,5.52-5.53.27-.19.5-.39.85-.42.32-.02.38.17.48.21Z"/>
  <path class="cls-14" d="M51.44,1.02c.51.17.74.45.96.92.25.56.25,7.95,0,8.46-.21.35-.6.5-.96.64-.9-.05-1.16-.44-1.24-1.32-.15-1.56-.21-6.11.03-7.57.11-.67.53-1.11,1.22-1.14Z"/>
  <path class="cls-18" d="M59.63,23.54c-.05.17-.12.17-.2,0-.28-.36-.98-.2-1.43-.2l-1.28-9.27-.77-.97c.83.04,1.79-.19,2.15.82l1.53,9.62Z"/>
  <path class="cls-3" d="M82.56,60.18c.15-.19.22-.13.2.2-.75,2.77-.49,5.35-4.3,4.91-.33-.39,0-.47.2-.72,1.22-1.54,1.24-2.94,1.64-4.81.73.17,1.52.25,2.25.41Z"/>
  <path class="cls-6" d="M22.17,52.2c-.18.4-.47,1.45-.75,1.65l-9.07,3.26c.92-3.11,7.19-3.71,9.83-4.91Z"/>
  <path class="cls-8" d="M51.44,1.02c.72-.03,1.43.45,1.59,1.17.25,1.12.17,5.82.05,7.13-.11,1.16-.38,1.8-1.65,1.73.12-.28.49-.48.57-.76.22-.76.17-6.91.05-7.95-.07-.58-.29-.88-.62-1.33Z"/>
  <path class="cls-3" d="M59.43,23.54c.07,0,.14-.01.2,0,.83.17,1.42.74,1.59,1.58.16.78.16,3.64.03,4.44-.25,1.64-1.49,1.87-2.85,1.96-.18-.06-.18-.13,0-.2.96-.13,1.49-.84,1.62-1.76.2-1.42.45-5.35-1.21-5.82-.06-.33.4-.21.61-.2Z"/>
  <path class="cls-10" d="M66.59,4.91c.78.28,1.2.81.98,1.69-.13.53-4.5,4.96-5.18,5.47-.55.41-.79.65-1.53.62,1.31-1.95,4.3-3.79,5.53-5.63.48-.71.49-1.53-.3-1.95l.5-.2Z"/>
  <path class="cls-21" d="M36.7,4.91c.28.09.36.09.62.29,1.83,1.4,3.57,3.93,5.41,5.44.43,1.25-.17,2.23-1.53,2.04.73-.51,1.05-1.11.66-1.99-.4-.93-4.27-4.26-5.27-5.37-.27-.3-.58-.45.1-.41Z"/>
  <path class="cls-12" d="M58.4,31.32v.2c-4.94.3-10.18-.23-15.15,0,.21-.34.78-.2,1.12-.21,4.67-.06,9.35.05,14.03,0Z"/>
  <path class="cls-1" d="M39.77,18.01c.86.13,1.82,0,1.83,1.33,0,1.18-1.1,1.2-1.83,1.33.87-.86.87-1.8,0-2.66Z"/>
  <path class="cls-13" d="M64.75,37.66c-.03.12.03.29,0,.41l-7.98-1.84c2.19-.35,5.67,1.4,7.98,1.43Z"/>
  <path class="cls-21" d="M69.66,20.67c.87-.86.87-1.8,0-2.66.78.14,1.75.06,1.75,1.33,0,1.26-.97,1.19-1.75,1.33Z"/>
  <path class="cls-2" d="M27.29,56.09c-.15.28-.03.43-.41.82l.21-1.02.2.2Z"/>
  <path class="cls-9" d="M82.76,60.39c-.08-.04-.16-.19-.2-.2l.41-.61c-.07.27-.13.54-.2.82Z"/>
  <path class="cls-19" d="M64.13,40.53c-.7,2.91-1.37,5.9-2.05,8.8-1.26.1-2.52-.33-3.68-.82-.45.12-2.5-.24-2.67-.54-.26-.46-.07-.63.42-.69.69,0,.82-.04,1.43-.2,3.23-.87,2.6-4.62,0-5.94-.61-.16-.23-1.82.41-1.84,2.01.47,4.15.64,6.14,1.23Z"/>
  <path class="cls-17" d="M56.15,47.29c-.65.99,1.64,1.08,2.25,1.23.22.15.15.22-.2.2-.83-.2-2.66-.29-3.34-.62-.27-.13-.21-.69.07-.82.34.05.85,0,1.23,0Z"/>
  <path class="cls-4" d="M76.23,47.48c1.3.34,4.96.58,3.83,2.73-.81,1.55-3.33.08-4.66-.05-.41,1.35-.19,4.24-2.15,4.11-2.58-.16-.28-4.41-.51-4.73-1.13-.47-4.02-.41-4.11-1.95-.19-2.98,4.07-.52,4.74-1.01.69-1.21.22-3.92,2.14-3.92,2.7,0,.28,4.29.73,4.81Z"/>
  <path class="cls-20" d="M62.09,49.33c-.03.12.03.29,0,.41-1.32-.21-2.6-.71-3.89-1.02l.2-.2c1.22.3,2.46.57,3.68.82Z"/>
  <path class="cls-16" d="M57.99,39.3l-.41,1.84c-.16-.08-.89-.28-1.23-.41l.41-1.84c.54-.26,1.06.37,1.23.41Z"/>
</svg>