<?xml version="1.0" encoding="UTF-8"?>
<svg id="Layer_1" data-name="Layer 1" xmlns="http://www.w3.org/2000/svg" viewBox="0 0 100 100">
  <defs>
    <style>
      .cls-1 {
        fill: #6093bd;
      }

      .cls-2 {
        fill: #dbc0a3;
      }

      .cls-3 {
        fill: #f18a74;
      }

      .cls-4 {
        fill: #38648b;
      }

      .cls-5 {
        fill: #e5846e;
      }

      .cls-6 {
        fill: #5f92bc;
      }

      .cls-7 {
        fill: #6aa4d3;
      }

      .cls-8 {
        fill: #e8cbad;
      }

      .cls-9 {
        fill: #6aa3d2;
      }

      .cls-10 {
        fill: #495059;
      }

      .cls-11 {
        fill: #76b6ea;
      }

      .cls-12 {
        fill: #f4d6b6;
      }

      .cls-13 {
        fill: #325a7e;
      }
    </style>
  </defs>
  <path class="cls-2" d="M26,23.83c.8-.68,2.7-1.71,3.74-1.57.16.02.28.15.38.26l.08.59c-1.48,4.31-1.71,9.06-.56,13.48l-.13.59c-5.73-.43-8.25-7.08-5.22-11.64l1.71-1.71Z"/>
  <path class="cls-2" d="M73.98,23.83l1.81,1.81c.17.61.57,1.14.79,1.76,1.58,4.35-1.35,9.51-6.11,9.79l-.15-.52c1.1-4.42.98-9.18-.46-13.5l.11-.53.25-.3c1.42-.04,2.69.64,3.76,1.51Z"/>
  <path class="cls-10" d="M51.99,1.85l.3.3c.27.96-.36,1.62-.62,2.46-.42,1.34-.75,2.75-.58,4.17-.33.42-1.87.42-2.21,0,.09-1.74.19-3.64.9-5.27.46-1.06.86-2.16,2.21-1.66Z"/>
  <path class="cls-11" d="M29.91,37.98l.12-.33c2.45-.32,5.14.91,7.33,1.95,4.41,2.09,9.02,4.35,12.82,7.37v.25c.19.06.38.12.55.19s.34.16.48.27c4.4,3.37,8.76,6.74,12.96,10.36,3.71,3.2,5.52,6.24,5.59,11.16-.42.46-.14.31-.15.75-.06,5.02-.85,14.6-5.43,17.61-.31.21-.85.31-1.05.51-.12.05-.25.09-.38.12-1.03.19-4.57-1.27-5.75-1.76-2.13-.89-4.75-2.13-6.66-3.39-.1-.06-.18-.16-.26-.25s-.15-.22-.21-.34c-.18-.02-.37-.05-.54-.09s-.35-.09-.5-.18c-6.42-3.68-12.88-7.97-18.43-12.57-.12-.61-1.92-1.77-2.46-2.26-1.75-1.61-3.01-3.32-3.65-5.62-1.3-4.67.98-16.66,3.05-21.08.62-1.31,1.12-2.13,2.56-2.66Z"/>
  <path class="cls-12" d="M48.88,8.77c.55-.03,1.66-.03,2.21,0,8.3.47,15.86,6.1,18.87,13.85,1.64,4.22,1.79,10.22.5,14.55-.07.22-.29.57-.4.8l-.27.22c-2.41-.2-5.32,1.04-7.49,2.17-2.7,1.41-5.26,2.83-7.91,4.32-.13.07-.27.11-.42.15s-.31.06-.47.07c-2.01-.16-4.12-1.36-5.9-2.38-3.23-1.84-6.19-4.24-8.64-6.98-.12-.28.12-.33.39-.38l.19-.34c3.43-.91,3.64-4.87.19-5.93l-.18-.35c-.51-1.49,1.55-2.6,2.35-.95.28,2.27,2.32,1.14,1.42-.7-1.34-2.75-5.28-1.96-5.44,1.09l-.24.26-.1.35c-.81.23-1.56.57-2.26,1.02l-.36-.06c-.12-.07-.24-.14-.35-.23-.91-.76-2.34-4.8-2.78-6.16-.45-.99-.64-1.97-.58-2.95,3.57-6.59,10.16-11.02,17.67-11.44Z"/>
  <path class="cls-9" d="M53.5,44.91c2.94-1.86,6.31-3.75,9.49-5.17,1.73-.77,5.27-2.4,7.08-1.76,1.74.62,2.25,1.89,2.9,3.46,1.82,4.45,3.99,15.6,2.74,20.17-.62,2.24-1.67,3.75-3.32,5.37l-.36-.4c-.56-5.4-4.29-8.82-8.25-12.1-3.44-2.86-7.06-5.67-10.64-8.43l-.42-.55c-.16-.49.39-.68.8-.6Z"/>
  <path class="cls-8" d="M31.22,20.22c.87,3.23,2.01,6.43,3.71,9.33v.4c-2.46,2.63.87,5.21,3.61,4.97l.4.25c.13-.38.29-.38.4,0-.36.25-.04.35.15.55,3.86,4.18,8.66,7.33,14.01,9.19-.28.18-.55.44-.8.6l-.13.42-1.94,1.28h-.44c-2.79-2.27-9.65-5.88-13.1-7.43-1.71-.77-5.4-2.46-7.18-1.8-.11-.24-.33-.58-.4-.8-1.38-4.57-1.11-10.22.6-14.65.3-.78.7-1.57,1.1-2.31Z"/>
  <path class="cls-4" d="M61.63,90.58c-5.74,8.19-17.55,8.19-23.29,0,3.69-.96,7.28-2.49,10.78-4.58.59-.39,1-.41,1.6-.03,3.54,2.08,7.18,3.62,10.9,4.61Z"/>
  <path class="cls-9" d="M46.77,84.15l-.38.52c-1.45.95-7.81,3.9-9.22,3.53-.12-.03-.23-.08-.33-.14-.21-.2-.74-.31-1.05-.51-3.95-2.6-4.99-10.08-5.27-14.44l.27-.15c5.13,3.89,10.55,7.39,16,10.86v.33Z"/>
  <path class="cls-6" d="M52.7,45.51c3.19,2.38,6.44,4.72,9.49,7.28,2.55,2.14,6.32,5.2,8.07,7.93,1.23,1.91,1.72,4.08,2.11,6.27-.03.03-.07.07-.1.1l-.7.5c-.57.56-1.33,1.08-1.81,1.61-.36-.03-.22-.24-.25-.45-.73-4.84-.95-6.18-4.72-9.75-4.55-4.31-9.84-7.9-14.6-11.79.75-.69,1.66-1.16,2.51-1.71Z"/>
  <path class="cls-13" d="M46.77,84.15c.35-.52.92-.91,1.71-1.17.47-.37.94-.55,1.4-.54,4.09,2.34,8.62,4.74,13.25,5.62-.26.26-1.11,1.94-1.51,2.51-.22.22-.39.15-.65.12-.82-.12-2.2-.63-3.01-.94-2.77-1.06-5.33-2.62-8.03-3.85-2.62,1.28-5.21,2.8-7.93,3.85-.82.32-2.16.8-3.01.94-.26.04-.44.1-.65-.12-.4-.56-1.24-2.25-1.51-2.51,2.31-.36,4.45-1.19,6.57-2.15,1.15-.53,2.24-1.17,3.36-1.76Z"/>
  <path class="cls-6" d="M30.41,69.6c.26-.37.34-.02.55.15,5.6,4.54,12.66,9.11,18.92,12.7-.95.72-2.07,1.16-3.11,1.71l-9.49-6.14-6.78-4.91c0-.05-.15-.23-.16-.45-.05-.81.18-2.44.06-3.07Z"/>
  <path class="cls-9" d="M72.27,67.09c-.19.19-.42.56-.7.5.19-.19.43-.56.7-.5Z"/>
  <path class="cls-7" d="M57.51,74.87c.37-.69,1.05-.79,1.66-.39.91,1.04,2.7,2.07,3.52,3.1.83,1.05-.12,2.22-1.31,1.7-.93-1.1-2.77-2.14-3.62-3.21-.23-.29-.44-.85-.25-1.2Z"/>
  <path class="cls-7" d="M38.03,68.64c.58-.89,1.13-.61,1.86-.14.5.32,2.41,1.69,2.7,2.04.53.64.17,1.84-.79,1.83-.33,0-.73-.29-1-.47-.53-.34-2.33-1.65-2.67-2.05-.27-.33-.34-.84-.1-1.21Z"/>
  <path class="cls-7" d="M50.78,60.92c.2-.31.36-.39.66-.54.33-.17,2.69-.85,3.01-.84,1.1.04,1.54,1.38.51,2-.29.17-2.91.92-3.22.91-.74-.02-1.38-.87-.96-1.52Z"/>
  <path class="cls-7" d="M35.53,46.06c.91.03,1.74,2.45,1.83,3.21s-.86,1.52-1.48,1.1c-.58-.39-1.59-2.84-1.38-3.51.13-.42.58-.82,1.03-.8Z"/>
  <path class="cls-3" d="M60.42,28.55c.31.11.63.2.97.29.33-.24.64-.44.94-.59.55.34,1.18.36,1.76.66,3.49,1.82,2.18,5.67-1.41,6.3-5,.87-7.63-4.95-2.26-6.66Z"/>
  <path class="cls-3" d="M37.64,28.25l.36.12c.29.53.88.68,1.24.14l.31.04c4.03,1.09,3.95,5.63-.2,6.62-.11.03-.28-.02-.4,0l-.47-.19c-.72-.82-3.53-4.38-3.57-5.1,0-.11,0-.22.02-.33.82-.78,1.74-.86,2.71-1.3Z"/>
  <path class="cls-10" d="M39.55,28.55c-.52.94-1.58.66-1.91-.3-.22-.66.42-1.98.87-2.44,1.72-1.72,4.74-.78,5.27,1.59.34,1.53-1.14,2.29-1.83,1.31-.36-.5-.08-1.53-1.15-1.63-1-.09-.94.89-1.26,1.47Z"/>
  <path class="cls-10" d="M62.33,28.25c-.33.96-1.39,1.24-1.91.3-.32-.58-.25-1.57-1.26-1.47-1.3.12-.57,1.89-1.91,2.03-1.53.16-1.22-1.98-.58-2.82,1.59-2.09,4.51-1.72,5.5.7.13.31.26.93.15,1.25Z"/>
  <path class="cls-10" d="M46.86,29.9c.82-1.17,1.6-.07,2.27.32,1.47.86,2.29-.9,3.11-.82.97.1,1.3,1.07.71,1.81-.97,1.22-3.01,1.66-4.42,1.06-.79-.33-2.36-1.38-1.67-2.37Z"/>
  <path class="cls-1" d="M65.89,46.72c0,.26-.66,2.54-.79,2.96-.11.35-.3,1.05-.49,1.31-.73.96-2.09.4-1.91-.91.05-.36,1-3.6,1.14-3.81.69-1.06,2.05-.64,2.06.45Z"/>
  <path class="cls-5" d="M34.93,29.55c.54.92,1.18,1.89,1.81,2.76.71.97,1.56,1.84,2.2,2.86-3.55.47-7.03-2.78-4.01-5.62Z"/>
</svg>