<?xml version="1.0" encoding="UTF-8"?>
<svg id="Layer_1" data-name="Layer 1" xmlns="http://www.w3.org/2000/svg" viewBox="0 0 100 100">
  <defs>
    <style>
      .cls-1 {
        fill: #26a5fd;
      }

      .cls-2 {
        fill: #eb806b;
      }

      .cls-3 {
        fill: #fee076;
      }

      .cls-4 {
        fill: #fedece;
      }

      .cls-5 {
        fill: #fee077;
      }

      .cls-6 {
        fill: #2ed0e1;
      }

      .cls-7 {
        fill: #a6e6ef;
      }

      .cls-8 {
        fill: #feaf9d;
      }

      .cls-9 {
        fill: #a5e6ef;
      }

      .cls-10 {
        fill: #feede5;
      }

      .cls-11 {
        fill: #f79480;
      }

      .cls-12 {
        fill: #f8f2f0;
      }

      .cls-13 {
        fill: #0592fb;
      }

      .cls-14 {
        fill: #685e68;
      }

      .cls-15 {
        fill: #ccbeb9;
      }

      .cls-16 {
        fill: #f2e9e5;
      }

      .cls-17 {
        fill: #fec244;
      }

      .cls-18 {
        fill: #554e56;
      }

      .cls-19 {
        fill: #6bd8e6;
      }

      .cls-20 {
        fill: #a44f3e;
      }

      .cls-21 {
        fill: #fed05b;
      }

      .cls-22 {
        fill: #fefefe;
      }
    </style>
  </defs>
  <path class="cls-1" d="M25.98,1.56c.24.39.1.56-.28.72-.18,1.87-.21,3.74-.11,5.63l-.38.29-.18.38c-4.11-.06-8.17-.02-12.2.11-.13,24.54-.23,49.17-.31,73.87l-.23,3.5.38.25c-.1,1.81-.05,3.59.13,5.34,15.53.06,31.13.14,46.81.25l3.57.24.66-.38,4,.03.66.35.38.28c.09,2.44.2,6.19-3.04,6.37H8.13c-1.29-.58-2.44-1.59-2.48-3.13l.05-91.49c.2-1.21,1.5-2.43,2.72-2.59,5.85-.04,11.7,0,17.55-.02Z"/>
  <path class="cls-13" d="M70.03,85.87c-.12-8.03-.18-16.08,0-24.12.04-.15.11-.37.22-.38.7-.05,5.68-.11,5.96,0,.15.06.22.23.28.38.08,11.33.08,22.73,0,34.18.03,1.44-1.16,2.21-2.28,2.85h-8.36c3.04-1.03,2.69-3.99,2.66-6.65.13-.29.43-.47.91-.53.38-1.64.45-3.37.23-5.19.18-.12.3-.31.38-.55Z"/>
  <path class="cls-10" d="M63.77,16.94c1.99-.61,4.27-.58,6.27,0,2.22-.48,4.43-.48,6.65,0,3.1,0,6.21-.03,9.3,0,2.6.35,2.62,3.06,2.6,5.2.02.85.04,6.61-.24,6.8-.12.09-.31.02-.46-.04l-.54-.36c-2.08-5.55-8.13-6.39-13.35-6.03l-1.68-.25-.39.43c-7.45,1.31-9.09,8-8.33,14.65l-.4.49-.07.46c-3.09,2.21-1.11,6.69,2.63,6.01l.29.37.42.36c.38,3.05,2.62,5.68,5.56,6.57l.29.47c.54.49.53,1.21,0,1.71l-.18.38h-14.41l-.23-.38c-.48-.65-.47-1.25,0-1.9-.48-1.09-.47-2.14,0-3.23-.47-.96-.47-1.89,0-2.85-.48-2.15-.47-4.3,0-6.46-.37-.94-.37-1.9,0-2.85-.37-.94-.37-1.9,0-2.85-.47-.96-.47-1.89,0-2.85-.47-.96-.48-1.89,0-2.85-.52-.94-.53-1.92,0-2.85l-.38-.22c-.51-5.44-.28-9.27,6.4-8.33l.25.38Z"/>
  <path class="cls-15" d="M55.98,1.56l.83.24c.71.57.63,5.05.5,6.08l-.38.33.38.42c.28,1.91-.03,5.7-.91,7.43-2.24,4.44-5.94,4.65-10.28,4.83-3.62.15-7.43.19-11.04,0-7.81-.44-10.33-3.41-10.24-11.25-.13-.65,0-1.12.37-1.41,0-1.09-.18-5.51.18-6.13.1-.18.5-.24.58-.51,10-.02,20.01-.02,30,0Z"/>
  <path class="cls-19" d="M72.31,53.78l.39.27c-.16,4.76,6.41,4.8,6.25.02l.39-.29v-.25c2.8-.15,5.63-.19,8.51-.13l.22.38.38.28c.29,2.3.57,7.32-2.47,7.69-3.1.03-6.21-.02-9.31,0l-.19,34.18v-34.18h-6.46c-.06,8.03.08,16.08,0,24.12-.05.17-.12.16-.19,0l-.38-.13v-23.63c-1.97.19-3.87.08-5.7-.36-.42.52-.91.52-1.33,0-.24.58-2.33.68-2.47,0-.6.43-1.94-.3-1.9-1.14-.98-.08-1.28-2.41-.57-2.85-.61-.78-.57-2.22,0-3.04-.48-.34-.48-.61,0-.95h14.81Z"/>
  <path class="cls-4" d="M94.15,53.78c-.02.15-.06.37-.17.38-1.14.13-4.53.16-5.63,0l-.28-.38c-.37-2.92-.75-6.4-.19-9.11l.18-.45c2.34-1.12,2.74-4.5.48-5.92l-.09-.47-.4-.49c.2-2.67.08-5.28-.38-7.84l.21-.59c.31-.2.19-.72.19-1.04.03-2.4.28-6.1-.02-8.34-.18-1.29-1.06-1.93-2.07-2.58,1.65.01,4.63-.26,6.09.08.95.22,1.86,1.19,2.03,2.15,0,11.53.14,23.08.04,34.61Z"/>
  <path class="cls-13" d="M76.68,16.94c-2.21,0-4.43-.01-6.65,0-.27-.14-.47-.33-.43-.64.24-2.6.18-5.11-.16-7.54-.47-.09-.78-.27-.93-.56l-.38-.29c.48-2.79-.23-4.75-2.12-5.89l-.17-.47c2.3.01,5.96-.32,8.06.01,1.73.27,2.62,1.91,2.76,3.5.34,3.78-.25,8.04,0,11.87Z"/>
  <path class="cls-1" d="M65.86,1.56c3.04,1.03,2.69,3.99,2.66,6.65l-.62.35-4.08.03-.62-.38c-2.08.37-4.18.37-6.27,0,0-1.24.23-5.29-.29-6.07-.15-.23-.48-.36-.66-.57,3.29,0,6.59-.02,9.87,0Z"/>
  <path class="cls-6" d="M94.15,53.78c-.02,2.66.97,7.46-2.58,7.96-1.59.22-3.9,0-5.59.02,2.95-1.48,2.06-5.14,2.09-7.98h6.08Z"/>
  <path class="cls-22" d="M25.22,8.2c.03,5.1-.05,10.34,6.08,11.87,3.11.78,14.13.53,17.77.29,1.92-.12,3.46-.67,4.93-1.9,3.41-2.84,2.92-6.26,2.94-10.26,2.09,0,4.18,0,6.27,0,.77.05,1.1.59,1,1.61l-.08,6.52-.35.61c-1.98.03-4.55-.55-5.78,1.34-.82,1.26-.47,5.15-.48,6.83l-.18.38h-12.38c-1.08.45-.96,1.84.18,2.08h12.16s.23.39.23.39c0,.95,0,1.9,0,2.85l-.18.38h-12.37c-1.12.53-1.03,1.78.18,2.08h12.15s.23.38.23.38c0,.95,0,1.9,0,2.85l-.17.38h-12.21c-1.21.32-1.27,1.58-.16,2.1h12.31s.23.37.23.37c0,2.15,0,4.31,0,6.46l-.13.38-36.69.13c-.31.14-.52.73-.55,1.05-.23,2.25-.22,4.42-.19,6.68.05,3.74.11,7.55.23,11.29.01.41.43,1.01.9.98h39.92c.94-.09,1.12-.95,1.12-1.75l-.08-2.48.41-.32c.44.01.89,0,1.33,0l.38.13v23.94c-.19.18-.37.38-.56.61H12.54s-.24-.38-.24-.38c-.21-25.66.14-51.33.02-76.99.1-.72.33-.79,1.02-.87h11.87Z"/>
  <path class="cls-12" d="M63.77,61.75c2.02.03,4.06-.02,6.08,0v24.12c.18.27.16.8-.22.79l-5.48-.09.06,3.43c.19,1.31-.15,2.02-1,2.14-16.67.09-33.35-.05-50.03-.02-.2-.04-.48-.07-.63-.22-.41-.41-.23-4.88-.23-5.84h51.46s0-24.31,0-24.31Z"/>
  <path class="cls-16" d="M68.51,92.14c-1.69.12-3.6,0-5.32,0,.36-.21.5-.44.55-.86.21-1.55-.12-3.43.01-5.02.21-.21,5.13.21,5.96,0,.18-.05.14-.25.12-.39h.19c-.01,1.44.23,4.12-.04,5.37-.21.94-.74.84-1.48.9Z"/>
  <path class="cls-17" d="M57.5,45.8c0,.95,0,1.9,0,2.85-.15.63-2.4.58-2.66,0,0,.09,0,.18-.03.25-.07.19-3.6.09-4.06.05l-.28-.3c.62.28.59,2.61,0,2.94,1.33-.04,2.71-.07,4.13-.09l.24.38c.15-.63,2.4-.58,2.66,0,0,.63,0,1.27,0,1.9,0,.32,0,.63,0,.95-.15.63-2.4.58-2.66,0,0,.09,0,.18-.03.25-.07.19-3.6.09-4.06.05l-.28-.3.38.22c.11.63.17,2.55-.38,2.82l.24-.31,3.88-.07.25.37c.15-.63,2.4-.58,2.66,0,.04,1.05-.07,1.92.57,2.85,0,.15-.03.37-.13.38-.79.09-2.27.05-3.09,0-.04-.16-.09-.28-.14-.28-.62-.04-3.99-.14-4.06.06-.15.43-.12,1.58-.09,2.12.01.32.04.64.11.96,1.4-.47,2.78-.48,4.18,0,1.49-.47,3.07-.5,4.6-.25-.4-.52-.51-2.3.53-1.84.68.11,1.72-.02,2.47,0-.25,1.59.85,4.68-1.42,4.94H21.13c-.85,0-1.15-.58-1.34-1.32.27-5.65-.65-12.22-.09-17.77.06-.64.29-1.49.96-1.69l36.83-.11Z"/>
  <path class="cls-8" d="M79.34,33.27c1.29.18,1.58,1.38,1.77,2.49.1.58.25,1.99-.25,2.26l-.36.26c-2.34-.87-2.45,4.09-.17,3.46l.34.27c.81.48.64,2.03.54,2.94-.37,3.34-3.19,7.9-6.99,7.32-.27.57-1.79.47-1.9-.19-3.42-.84-6.02-3.9-6.27-7.41l-.41-.54c-.1-2.04-.05-4.08.01-6.12l.4-.55c-.89-.68-.28-2.24.33-3.06,1.03-1.39,2.33-1.51,3.96-1.62,2.57-.17,6.13-.14,8.69.12l.31.39Z"/>
  <path class="cls-14" d="M72.31,22.25c5.13.45,8.54,5.57,8.63,10.49.83-.08,1.37.1,1.62.53-.77.6-2.36.48-3.23,0-2.71-.04-8.46-.41-10.83.08-.99.21-2.29,1.48-2.45,2.49-.08.5,0,1.08-.01,1.6-.29.35-.78.48-1.48.39-.57.21-1.02.21-1.37,0,.14-2.93-.4-6.02.56-8.84,1.23-3.59,4.75-6.4,8.55-6.73Z"/>
  <path class="cls-18" d="M87.88,28.9c1.01,2.89.42,5.91.57,8.93-.34.22-.79.22-1.34,0-.63.08-1.07-.05-1.32-.39l-.4-.27c-.06-1.67-.7-3.28-2.56-3.49l-.27-.41-2.09-.19c.2-5.31-3.17-9.4-8.16-10.82,6.3-.55,13.17-.24,15.57,6.65Z"/>
  <path class="cls-12" d="M68.51,8.2c.84.06,1.33,0,1.51,1.06.37,2.24-.25,5.34.01,7.68-2.09,0-4.18-.03-6.27,0-.18-2.46.25-5.27,0-7.69-.05-.48-.13-.79-.57-1.04,1.72,0,3.63-.12,5.32,0Z"/>
  <path class="cls-9" d="M57.5,36.5c0,.95,0,1.9,0,2.85h-12.62c-1.53-.59-1.44-2.49.2-2.84h12.43Z"/>
  <path class="cls-9" d="M57.5,30.8c0,.95,0,1.9,0,2.85h-12.43c-1.64-.36-1.72-2.26-.2-2.84h12.62Z"/>
  <path class="cls-7" d="M57.5,25.1c0,.95,0,1.9,0,2.85h-12.43c-1.56-.26-1.72-2.37-.2-2.84h12.62Z"/>
  <path class="cls-2" d="M74.21,52.26c1.55-.04,3.09-.2,4.62-.47l.5.28c.47.59.48,1.12,0,1.71-.02,2.43-.95,4.31-3.71,4.19-2.54-.11-3.26-1.97-3.32-4.19-.02-.57.01-1.14,0-1.71.68.17,1.25.13,1.9.19Z"/>
  <path class="cls-11" d="M66.05,37.45c-.08,2.22-.15,5.03,0,7.22-1.47.05-2.44.15-3.61-.85-1.86-1.6-1.51-4.95.76-5.98.98-.45,1.78-.42,2.85-.38Z"/>
  <path class="cls-21" d="M57.5,48.65c0,1.07,0,2.15,0,3.23h-2.66c-.56.05-.46-2.82-.38-2.96s.23-.22.38-.27h2.66Z"/>
  <path class="cls-22" d="M54.08,8.2c.02,4.09.42,8.85-5.03,9.31-4.15.36-11.59.32-15.78,0-5.65-.42-5.24-5.04-5.21-9.31l.13-.38h25.65l.23.38Z"/>
  <path class="cls-1" d="M28.07,8.2c0-1.26,0-2.53,0-3.8h26.02c0,1.26,0,2.53,0,3.8h-26.02Z"/>
  <path class="cls-10" d="M87.88,44.66c.31.2.19.72.19,1.04.03,2.69.02,5.39,0,8.07h-8.74c0-.57,0-1.14,0-1.71l.3-.47c3-.89,5.23-3.48,5.72-6.56l.43-.37c.09-.63,1.87-.51,2.09,0Z"/>
  <path class="cls-21" d="M58.07,60.61c.52.37,1.26,1.03,1.9,1.14-.58-.11-.37.29-.38.66-.02.48.01.96,0,1.43-1.58,0-3.17,0-4.75,0-.62-.31-.6-2.67,0-3.04-.02.15-.06.37-.17.38-.35.05-3.53.06-3.74,0l-.27-.38c.62.31.6,2.67,0,3.04-.43-.95-.08-2.21-.19-3.23h7.6Z"/>
  <path class="cls-21" d="M57.5,54.73c.01,1.01-.04,2.03,0,3.04h-2.66c-.62-.31-.6-2.67,0-3.04h2.66Z"/>
  <path class="cls-2" d="M88.45,37.83c1.65.75,2.11,2.37,1.9,4.09-.13,1.04-1.49,2.57-2.47,2.75-.6.11-1.45-.08-2.09,0l-.34-.4c.15-2.13.07-4.29-.02-6.42l.36-.4c1-.06,1.74-.04,2.66.38Z"/>
  <path class="cls-19" d="M26.55,37.45c-.01-.44.15-2.28-.47-2.28h-4.56c-.21,0-.27-.46-.29-.65-.11-.97-.13-3.81,0-4.77.08-.62.23-.77.85-.85.82-.11,3.88.21,4.29-.07.59-.41-.33-4.71.56-5.14.82-.4,4.79-.03,5.89.1v4.65c0,.74,1.67.46,2.28.47.54.16.5,2.3.34,2.75-.21.58-.52.7-1.12.72-1.38-.12-2.73-.09-4.05.1-.03,1.66-.14,3.29-.33,4.9-.3.32-3.13.7-3.38.08Z"/>
  <path class="cls-7" d="M21.18,70.53l27.68-.04c1.93-.06,2.35,2.62.38,2.85h-28.31c-1.57-.2-1.56-2.48.24-2.81Z"/>
  <path class="cls-6" d="M35.09,28.9c.73.01,2.66-.22,3.02.3s.34,5.37-.08,5.78c-.58.57-4.35-.22-4.99.42s.21,4.54-.5,5.1c-.31.25-5.19.29-5.62.08-.62-.3-.36-2.41-.38-3.13l3.01-.22c.55-.35-.12-4.16.39-4.97.48-.76,4.33.04,4.96-.4.39-.27.08-2.37.18-2.96Z"/>
  <path class="cls-19" d="M62.01,78.6c-.21.21-.86.4-1.18.44-1.3.14-5.41.18-6.64-.02-1.65-.26-1.72-2.59-.19-2.83,1.04-.16,6.41-.19,7.39,0s1.34,1.69.62,2.41Z"/>
  <path class="cls-7" d="M54.22,70.53c1.09-.2,5.65-.2,6.75,0,1.65.3,2.02,2.16.42,2.8-2.16-.29-5.54.42-7.55-.04-1.3-.3-1.34-2.45.38-2.76Z"/>
  <path class="cls-19" d="M35.53,78.6c-.65-.65-.46-2.11.46-2.38.84-.25,4.2-.28,4.53.71.93,2.83-4.24,2.42-4.99,1.67Z"/>
  <path class="cls-19" d="M28.39,76.22c.42-.12,3.49-.1,3.85.06.84.38.99,1.75.27,2.35-.68.57-3.53.57-4.31.17-1.07-.55-.87-2.27.19-2.58Z"/>
  <path class="cls-19" d="M20.8,76.23c.97-.21,4.1-.37,4.38.85.52,2.27-2.32,2.14-3.86,1.96-1.8-.21-2.02-2.48-.52-2.81Z"/>
  <path class="cls-3" d="M47.63,60.61v3.23h-25.07v-2.94s.26-.28.28-.28h24.78Z"/>
  <path class="cls-3" d="M47.63,48.65v3.23h-24.78s-.28-.26-.28-.28v-2.94h25.07Z"/>
  <rect class="cls-5" x="22.56" y="54.73" width="25.07" height="3.04"/>
  <path class="cls-3" d="M54.84,48.65v3.23c-1.07,0-2.95.17-3.89,0-.16-.03-.47-.15-.47-.28v-2.94c0-.22,3.96,0,4.37,0Z"/>
  <path class="cls-3" d="M54.84,54.73v3.04c-.41,0-4.37.22-4.37,0v-3.04c0-.22,3.96,0,4.37,0Z"/>
  <path class="cls-3" d="M50.66,63.84v-3.04h4.18v3.04c-1.39,0-2.79,0-4.18,0Z"/>
  <path class="cls-11" d="M82.57,33.27c2.51.22,3.12,1.95,3.23,4.18.1,2.01.21,5.27,0,7.22-.38,3.58-2.99,6.57-6.46,7.41-1.97.47-3.21.38-5.13.19,1.27.2,2.48-.64,3.42-1.42,2.55-2.12,3.78-5.58,3.04-8.83.23-1.01.29-2.04.18-3.1-.26-.39-.26-.68.01-.89-.21-1.92.27-3.26-1.52-4.75,1.04.02,2.22-.09,3.23,0Z"/>
  <path class="cls-20" d="M79.67,45.48c.8.8.32,2.23-.81,2.4-1.03.16-5.03.16-6.05,0-1.53-.24-1.46-2.56.19-2.83,1.05-.17,4.4-.14,5.5-.02.31.03.97.23,1.18.44Z"/>
  <path class="cls-20" d="M71.31,37.87c2.95-.68,2.57,5.36-.13,4.23-1.11-.47-1.21-3.92.13-4.23Z"/>
  <path class="cls-20" d="M80.86,38.02c.02.19.33.51.37.86.09.79.22,2.76-.56,3.12-3.13,1.47-3.23-5.59.19-3.99Z"/>
</svg>