<?xml version="1.0" encoding="UTF-8"?>
<svg id="Landing_Page" data-name="Landing Page" xmlns="http://www.w3.org/2000/svg" viewBox="0 0 668.09 668.09">
  <defs>
    <style>
      .cls-1 {
        fill: #fed76b;
      }

      .cls-2 {
        fill: #d2d3d5;
      }

      .cls-3 {
        fill: #1cbd86;
      }

      .cls-4 {
        fill: #45dda5;
      }

      .cls-5 {
        fill: #fee076;
      }

      .cls-6 {
        fill: #d1d3d5;
      }

      .cls-7 {
        fill: #cbc3cb;
      }

      .cls-8 {
        fill: #f75647;
      }

      .cls-9 {
        fill: #1dbd87;
      }

      .cls-10 {
        fill: #cb2a2e;
      }

      .cls-11 {
        fill: #fed469;
      }

      .cls-12 {
        fill: #fecabd;
      }

      .cls-13 {
        fill: #a69aa6;
      }

      .cls-14 {
        fill: #6ac7ea;
      }

      .cls-15 {
        fill: #ebdeab;
      }

      .cls-16 {
        fill: #e7ebf8;
      }

      .cls-17 {
        fill: #837683;
      }

      .cls-18 {
        fill: #cc2c30;
      }

      .cls-19 {
        fill: #d13432;
      }

      .cls-20 {
        fill: #f9bdae;
      }

      .cls-21 {
        fill: #f04b4e;
      }
    </style>
  </defs>
  <path class="cls-5" d="M371.86,102.43c.33,2.03-3.6.97-3.39,1,15.94,2.38,26.75,4.07,41.76,10.86,43.42,19.65,76.56,59.51,88.72,105.51,1.75,6.6,6.51,26.27,4.15,31.24-.43.91-1.03,1.74-1.67,2.55,1.29,6.22,1.32,12.69,0,18.9.64.84,1.23,1.7,1.66,2.64,2.53,5.58-3.12,27.49-5.24,34.69-19.06,64.85-77.45,111.47-143.54,113.84-101.29-4.41-172.93-100.12-149.65-198.91,16.16-68.6,77.64-118.8,147.64-123.65,5.76-.4,14.2-.88,19.56,1.34Z"/>
  <path class="cls-12" d="M363.77,505.99l-2.59.57c-44.54-12.2-90.3-24.42-135.64-35.47-4.6-1.12-10.69,12.82-1.37,15.47,35.68,9.89,71.43,19.41,107.24,28.59,5.54-.49,9.57.51,12.11,2.99l-2.01,2.69,16.06,1.23c56.66-26.88,108.3-65.25,165.38-91.04,36-5.07,55.58,40.24,26.16,62.59l-198.89,114.25c-7.42,2.7-15.46,2.44-23.24,1.72l-141.13-37.14c-4.3-.23-11.45,1-13.76,5.1-3.48-3.58-7-7.23-9.57-11.53-10.12-16.94-20.11-34.12-29.81-51.31-1.21-2.15-2.11-4.47-2.98-6.83s-1.55-4.81-2.19-7.27l-1.27-4.42c36.75-21.52,73.66-43.06,110.71-64.63,1.25,1.32,2.11.95,2.59-1.14,33.35,8.59,73.93,17.35,105.87,28.43,20.52,7.12,32.01,27.79,18.31,47.16Z"/>
  <path class="cls-13" d="M158.61,635.56c-4.01,4.36-31.12,20.57-36.69,22.03-12.59,3.29-23.31-.07-30.56-10.79-22.76-43.46-52.69-85.54-74.71-129.1-5.09-10.08-8.76-15.15-4.86-26.92,4.78-14.41,32.13-26.3,45.58-33.38,10.09-3.07,22.81.11,28.46,9.46,26.72,44.23,53.24,89.46,77.7,134.72,6,11.1,8.75,27.51-4.93,33.98Z"/>
  <path class="cls-21" d="M639.11,12c6.18,7.28,9.27,10.92,9.27,10.92,5.01,28.86,3.5,60.63.62,89.85,1.45,5.41-13.22,16.15-14.6,12.61-.09-.24,5.02-1.13,3.36,1.34-13.87,2.88-28.84.55-43.19,1.35-13.49,7.12-25.36,17.17-35.61,30.13-3.88,5.15-7.75,7.25-11.63,6.31-.24-12.12.17-24.32,0-36.45-15.39,1.47-29.4-1.02-34.79-17.17,1.24-25.43-2.7-54.36-.36-79.38,1.04-11.13,8.43-19.3,19.62-20.87,31.45,3.78,77.92-5.63,107.3,1.35Z"/>
  <path class="cls-4" d="M193.7,12l.1,1.67c5.8,1.93,9.22,7.47,10.44,13.22,3.24,15.32,3.37,70.28-.49,85.2-3.45,13.36-15.26,14.26-14.76,13.29.11-.22,4.74-.8,3.36,1.35-6.38,1.32-9.71,1.14-16.2,1.35-1.15,2.45-2.93,2.96-5.41,2.85v31.63s-2.69,1.96-2.69,1.96c-1.89-1.68-4.68-2.8-6.77-4.71-5.57-5.12-28.46-28.98-32.72-30.71-16.31-6.62-57.97,10.57-61.77-20.56-1.84-15.04-1.94-64.8.15-79.55,1.23-8.67,9.57-16.99,18.22-18.22,31.58,3.63,79.11-5.85,108.53,1.23Z"/>
  <path class="cls-11" d="M371.86,102.43c77.46,3.1,145.1,69.99,149.82,147.12,1.39,8.47,1.37,17.17,0,25.64-4.49,77.32-67.32,138.62-143.07,147.12l-6.75,1.35c-5.45.35-12.05.24-17.55,0l36.12-7.75c62.64-20.39,107.86-77.08,111-143.42,1.32-6.21,1.28-12.68,0-18.9-3.43-76.89-63.6-142.29-140.36-149.83,1.27-2.46,8.27-1.44,10.79-1.34Z"/>
  <path class="cls-17" d="M110.02,470.9c9.09,6.93,15.72,18.42,17.55,29.69,14.93,25.38,30.26,51.22,44.54,76.93,2.92,5.26,9.96,16.84,11.22,21.84,4.65,18.49-8.32,31.11-24.72,36.19,11.72-12.74,7.03-24.18.23-37.35-22.63-43.85-51.87-86.24-75.26-129.89-2.61-3.22-6.68-6.91-10.61-8.28-5.74-2.01-10.68-.02-15.59-2.63,11.37-5.98,16.69-12.2,31.41-9.14,10.68,2.22,16.14,14.37,21.23,22.64Z"/>
  <path class="cls-20" d="M239.59,430.41c2.71,3.88.69,1.99-1.34,3.32-34.22,22.52-72.92,40.58-107.38,62.82-1.74,1.12-3.95,1.14-3.31,4.04-5.79-9.84-11.57-19.99-17.55-29.69,4.05-.3,8.19-3.17,11.7-5.17,18.64-10.62,53.96-35.37,72.25-41.13,15.96-5.03,30.19,1.82,45.62,5.8Z"/>
  <path class="cls-20" d="M363.77,505.99c-5.33,7.53-10.89,11.43-20.25,12.15-3.83.3-8.71.25-12.5-.32-34.25-5.2-72.82-22.53-107.62-28.69-10.43-4.44-8.72-18.33,2.33-20.65,43.98,11.49,88.62,21.89,132.41,34.37,2.19.62,4.8.38,5.63,3.15Z"/>
  <path class="cls-9" d="M193.7,12c10.05,2.42,15.62,7.93,17.19,18.57,2.37,16,1.84,57.15.4,73.93-1.1,12.85-6.41,19.62-18.94,22.22l-3.36-1.35c8.08-2.33,12.11-10.22,12.86-18.17,1.67-17.7,2.06-61.1-.02-78.37-.84-6.98-6.53-14.31-13.52-15.51l5.39-1.33Z"/>
  <path class="cls-18" d="M639.11,12c9.41,2.24,15.75,8.62,17.19,18.57,2.35,16.17,1.85,57.02.4,73.93-1.1,12.85-6.41,19.62-18.94,22.22l-3.36-1.34c8.21-3.3,12.05-9.63,12.86-18.18,1.67-17.7,2.06-61.11-.02-78.37-.84-6.98-6.53-14.31-13.52-15.51l5.39-1.33Z"/>
  <path class="cls-18" d="M594.56,128.07l-46.57,44.53c-1.31-2.04-.62-5.61-.67-8.09,12.31-8.24,26.36-28.27,38.4-35.15,3.48-1.99,5.4-1.1,8.84-1.29Z"/>
  <path class="cls-3" d="M176.16,128.07v44.54c-3.54-1.39-5.68-5.96-8.1-8.1v-36.45c2.68-.07,5.41.09,8.1,0Z"/>
  <path class="cls-5" d="M521.68,275.19c.45-7.78.48-17.87,0-25.64,2.26,7.28,2.27,18.26,0,25.64Z"/>
  <path class="cls-5" d="M378.61,422.31c-1.23.14-3.6,1.15-6.75,1.35,1.15-2.19,4.59-1.27,6.75-1.35Z"/>
  <path class="cls-16" d="M419.1,299.49l-.55,4.25c-15.8,19.05-37.81,44.22-62.89,48.39-35.94.04-58.34-38.26-42.57-70.23,4.39-8.9,18.89-21.84,26.37-29.64l4.05-4.05c-.25-4.61,8.89-13.16,13.5-12.15l2.8-1c20.02,20.46,40.05,40.92,60.09,61.39l-.8,3.04Z"/>
  <path class="cls-8" d="M423.15,187.46c3.17.5,5.87,1.4,8.1,2.7,29.08,4.06,42.3,39.16,31.43,64.79-5.49,12.94-27.4,34.58-38.51,44.25l-3.71.29c-.4,1.15-.85,1.13-1.35,0l-62.09-63.44c-3.65-2.18.32-8.71,4.05-6.75,16.7-16.81,37.01-41.54,62.09-41.84Z"/>
  <path class="cls-14" d="M316.53,159.12l2.7,1.26v94.28l-2.7,1.64c-62.74.54-62.64-98.71,0-97.18Z"/>
  <path class="cls-10" d="M424.5,303.53c-3.45,2.97-6.93-.69-4.05-4.05,14.71-18.73,40.85-32.71,43.17-58.72,2.03-22.75-11.06-43.29-32.37-50.61-1.28-.89-.83-1.34,1.35-1.35,30.24,5.14,48.02,33.96,37.49,63.81-5.85,16.58-32.58,37.91-45.59,50.91Z"/>
  <path class="cls-6" d="M361.07,229.3c-1.86,1.87-3.51,6.2-4.05,6.75-3.4,3.45-9.67,9.6-13.5,12.15-1.05,1.27-2.38,2.77-4.05,2.7-4.76,2.24-17.76,5.35-22.94,5.4v-97.18c37.97.93,58.03,35.61,44.54,70.18Z"/>
  <path class="cls-2" d="M424.5,303.53c-19.76,19.76-38.47,48.56-68.83,48.59,27.42-7.97,43.46-34.06,63.44-52.64.45.11,1.07-.17,1.35,0,.58.35,1.99,3.85,4.05,4.05Z"/>
  <path class="cls-1" d="M501.44,272.49c.28-5.99.27-12.9,0-18.9,2.29,4.8,2.25,14.37,0,18.9Z"/>
  <path class="cls-19" d="M432.6,188.81l-1.35,1.35c-2.64-.91-6.02-.57-8.1-2.7,4.56-.06,5.98.76,9.45,1.35Z"/>
  <path class="cls-15" d="M343.52,248.2c-.59,2.21-2.93,2.88-4.05,4.05v-1.35c.22-.1,3.26-2.17,4.05-2.7Z"/>
  <path class="cls-7" d="M57.76,494.22c3.27-3.26,9.22-3.51,13.05-.97,2.45,1.63,19.41,30.67,20.07,34,1.93,9.81-8.87,16.42-16.64,9.81-2.11-1.8-18.91-30.88-19.33-33.43-.42-2.57,1.07-7.62,2.86-9.4Z"/>
  <path class="cls-16" d="M556.42,58.21c8.51-1.54,47.52-1.54,56.05,0,13.15,2.37,13.97,19.27,1.59,21.2-17.85,2.78-42.05-1.87-60.62.05-11.47-4.89-9.46-18.99,2.98-21.24Z"/>
  <path class="cls-16" d="M149.16,57.89c8.8-.07,27.05-2.34,28.34,10.25,1.76,17.18-22.26,8.58-27.08,11.94-4.22,2.94,4.7,27.84-11.39,27.83-13.36,0-11.71-19.29-11.47-28.42h-20.92c-1.09,0-5.38-5.85-5.8-7.72-3.35-14.84,16.88-14.74,26.73-13.87-1.08-10.16-.23-31.43,15.24-26.72,1.23.37,6.35,5.36,6.35,5.79v20.92Z"/>
  <path class="cls-16" d="M317.88,254.95v-94.48c51.07,10.82,50.2,82.88,0,94.48Z"/>
</svg>