<?xml version="1.0" encoding="UTF-8"?>
<svg id="Landing_Page" data-name="Landing Page" xmlns="http://www.w3.org/2000/svg" xmlns:xlink="http://www.w3.org/1999/xlink" viewBox="0 0 2026.4 1383.43">
  <defs>
    <style>
      .cls-1, .cls-2, .cls-3, .cls-4, .cls-5, .cls-6, .cls-7, .cls-8, .cls-9, .cls-10, .cls-11, .cls-12, .cls-13, .cls-14, .cls-15, .cls-16 {
        fill: none;
      }

      .cls-1, .cls-2, .cls-3, .cls-4, .cls-5, .cls-6, .cls-7, .cls-8, .cls-10, .cls-11, .cls-12, .cls-17, .cls-13, .cls-14, .cls-15, .cls-16 {
        stroke-miterlimit: 10;
      }

      .cls-1, .cls-2, .cls-3, .cls-4, .cls-5, .cls-6, .cls-7, .cls-8, .cls-10, .cls-12, .cls-17, .cls-13, .cls-14, .cls-15, .cls-16 {
        stroke-linecap: round;
      }

      .cls-1, .cls-7, .cls-12 {
        stroke-width: 1.74px;
      }

      .cls-1, .cls-10 {
        stroke: #b0514a;
      }

      .cls-18 {
        fill: #d68a5a;
      }

      .cls-19 {
        fill: #69c5c9;
      }

      .cls-20 {
        fill: #732d02;
      }

      .cls-21 {
        fill: #24151a;
      }

      .cls-22 {
        fill: #003b40;
      }

      .cls-23 {
        fill: #64a2bc;
      }

      .cls-24 {
        fill: #407c91;
      }

      .cls-25 {
        fill: #4b8394;
      }

      .cls-2 {
        stroke: #51dbdb;
      }

      .cls-2, .cls-4, .cls-5, .cls-11, .cls-17, .cls-13, .cls-14 {
        stroke-width: 3.47px;
      }

      .cls-26 {
        fill: #381b07;
      }

      .cls-27 {
        fill: #502202;
      }

      .cls-3 {
        stroke: #502202;
      }

      .cls-3, .cls-6, .cls-8, .cls-10, .cls-15, .cls-16 {
        stroke-width: 6.94px;
      }

      .cls-28 {
        fill: #32c9cf;
      }

      .cls-29 {
        fill: #4d8ab3;
      }

      .cls-30 {
        fill: #412408;
      }

      .cls-4, .cls-11 {
        stroke: #163649;
      }

      .cls-31 {
        fill: #002a42;
      }

      .cls-32 {
        fill: #112c45;
      }

      .cls-33 {
        fill: #27b8c1;
      }

      .cls-34 {
        fill: #fff;
      }

      .cls-35 {
        fill: #a7c2d9;
      }

      .cls-36 {
        fill: #b23f37;
      }

      .cls-37 {
        fill: #b82621;
      }

      .cls-38 {
        fill: #25b2c2;
      }

      .cls-5 {
        stroke: #b82621;
      }

      .cls-39 {
        fill: #dae8f7;
      }

      .cls-6 {
        stroke: #412408;
      }

      .cls-40 {
        fill: #007569;
      }

      .cls-41 {
        fill: #d49ba0;
      }

      .cls-42 {
        fill: #00c274;
      }

      .cls-43 {
        fill: #de3b26;
      }

      .cls-7 {
        stroke: #3e7c8a;
      }

      .cls-8, .cls-12 {
        stroke: #a8473e;
      }

      .cls-44 {
        fill: #06384f;
      }

      .cls-45 {
        fill: #f0997f;
      }

      .cls-46 {
        fill: #994403;
      }

      .cls-47 {
        fill: #2d3a5e;
      }

      .cls-48 {
        fill: #163649;
      }

      .cls-49 {
        fill: #faded2;
      }

      .cls-50 {
        fill: #c9eff2;
      }

      .cls-51 {
        fill: #2f344d;
      }

      .cls-17, .cls-15 {
        stroke: #d45e4e;
      }

      .cls-17, .cls-52 {
        fill: #fbbd9a;
      }

      .cls-53 {
        fill: #6b4019;
      }

      .cls-54 {
        fill: #326894;
      }

      .cls-55 {
        fill: #ff4a63;
      }

      .cls-56 {
        fill: #664216;
      }

      .cls-57 {
        fill: #eb4a2a;
      }

      .cls-58 {
        fill: #852e03;
      }

      .cls-59 {
        fill: #316382;
      }

      .cls-60 {
        fill: #163a4a;
      }

      .cls-61 {
        fill: #db8e62;
      }

      .cls-13 {
        stroke: #b8c8e3;
      }

      .cls-14 {
        stroke: #27788f;
      }

      .cls-62 {
        fill: #dcfbff;
      }

      .cls-63 {
        fill: #1d9fb3;
      }

      .cls-64 {
        fill: #9bc8e6;
      }

      .cls-65 {
        fill: #d43226;
      }

      .cls-66 {
        fill: #8c4206;
      }

      .cls-67 {
        fill: #ffa8b1;
      }

      .cls-16 {
        stroke: #8c4206;
      }

      .cls-68 {
        fill: #f0d3d8;
      }

      .cls-69 {
        fill: #f2cdbf;
      }

      .cls-70 {
        fill: #cf6e4a;
      }

      .cls-71 {
        fill: #ebf5ff;
      }

      .cls-72 {
        fill: #136d94;
      }

      .cls-73 {
        fill: #855321;
      }

      .cls-74 {
        fill: #678ca8;
      }

      .cls-75 {
        fill: #a66317;
      }

      .cls-76 {
        fill: #d4a59b;
      }

      .cls-77 {
        clip-path: url(#clippath);
      }

      .cls-78 {
        fill: #fdbd9b;
      }

      .cls-79 {
        fill: #9bebe7;
      }

      .cls-80 {
        fill: #411f00;
      }
    </style>
    <clipPath id="clippath">
      <path class="cls-9" d="M1655.94,488.44c-182.84-126.26-555.53-204.94-754.89-383.99-199.37-179.05-564.13,62.18-607.74,437.31-43.61,375.13,101.22,718.75,372.9,831.39h949.86c279.01-273.94,222.71-758.45,39.87-884.71Z"/>
    </clipPath>
  </defs>
  <g>
    <circle class="cls-67" cx="1883.6" cy="296.59" r="71.86"/>
    <g>
      <path class="cls-34" d="M1921.95,299.77l-55,31.5c-10.46,6-23.8,2.38-29.78-8.07-2.99-5.23-3.58-11.17-2.13-16.58,1.46-5.4,4.96-10.21,10.21-13.22l55-31.5c10.44-5.98,23.78-2.36,29.78,8.11,2.99,5.23,3.58,11.17,2.11,16.56-1.46,5.4-4.96,10.21-10.19,13.2Z"/>
      <path class="cls-37" d="M1921.95,299.77l-27.52,15.75-21.69-37.86,27.52-15.75c10.44-5.98,23.78-2.36,29.78,8.11,2.99,5.23,3.58,11.17,2.11,16.56-1.46,5.4-4.96,10.21-10.19,13.2Z"/>
    </g>
  </g>
  <g>
    <g>
      <path class="cls-42" d="M1707.34,1088.68c5.87.94,11.7,2.47,17.28,4.24,77.81,24.73,134.32,90.08,155.28,167.93-71.82,26.4-162.3,5.81-219.05-43.79-12.12-10.59-23.5-23.42-26.62-39.21-3.63-18.37,4.57-36.86,13.4-53.37,6.71-12.55,14.56-25.49,27.2-32.04,9.94-5.15,21.28-5.56,32.5-3.77Z"/>
      <path class="cls-22" d="M1571.33,1093.22s.08.06.13.07c54.96,19.17,108.84,43.11,160.15,71.16,51.31,28.04,100.55,60.46,146.37,96.37.23.17.51.13.68-.08.16-.21.13-.51-.08-.68-45.86-35.94-95.15-68.39-146.5-96.46-51.35-28.07-105.29-52.03-160.3-71.22-.25-.09-.53.04-.61.3-.07.2,0,.42.16.54Z"/>
      <path class="cls-22" d="M1838.48,1270.41c.16.12.38.14.56.02.22-.15.28-.45.13-.67l-5.96-8.98c-12.22-18.4-23.09-37.5-31.42-55.24-.11-.24-.4-.35-.64-.23-.24.11-.34.4-.23.64,8.36,17.78,19.25,36.92,31.49,55.36l5.96,8.98s.07.08.11.12Z"/>
      <path class="cls-22" d="M1788.1,1271.47c.18.14.44.13.61-.02.2-.18.21-.48.04-.68-5.52-6.14-10.05-14.76-14.05-22.37-.92-1.75-1.79-3.4-2.66-5.02-12.55-23.19-26.35-50.41-33.48-76.44-.07-.26-.34-.41-.59-.34-.26.07-.41.34-.34.59,7.16,26.13,20.99,53.41,33.57,76.65.87,1.61,1.74,3.26,2.66,5.01,4.03,7.66,8.59,16.33,14.19,22.56.02.02.04.04.07.06Z"/>
      <path class="cls-22" d="M1727.66,1257.51c.16.12.39.14.57.01.22-.15.27-.45.12-.67-18.44-26.25-32.53-55.64-46.15-84.07-5.68-11.86-12.13-25.29-11.43-39.39.01-.27-.19-.49-.46-.51-.27-.01-.49.19-.51.46-.71,14.34,5.79,27.9,11.52,39.86,13.64,28.46,27.75,57.89,46.24,84.2.03.04.06.08.1.11Z"/>
      <path class="cls-22" d="M1801.06,1206.13c.09.07.21.11.33.1,19.92-1.54,39.92,1.47,61.15,9.23.25.09.53-.04.62-.29.09-.25-.04-.53-.29-.62-21.36-7.8-41.5-10.84-61.56-9.28-.27.02-.46.25-.44.52.01.14.08.27.19.35Z"/>
      <path class="cls-22" d="M1737.77,1167.59c.17.13.42.13.59,0,1.39-1.11,17.7-5.28,37.13-9.49,16.26-3.52,37.05-7.52,42.15-7.23.27.02.49-.19.51-.45.01-.27-.19-.49-.45-.51-10.13-.58-76.66,14.29-79.94,16.93-.21.17-.24.47-.07.68.02.03.05.06.08.08Z"/>
      <path class="cls-22" d="M1666.01,1132.95c.12.09.27.12.43.08,19.55-5.68,38.73-13.27,54.9-19.94l.39-.16c10.32-4.26,20.99-8.66,32.1-8.46.27,0,.49-.21.49-.47,0-.27-.21-.49-.47-.49-11.31-.21-22.08,4.24-32.49,8.53l-.39.16c-16.15,6.66-35.29,14.24-54.8,19.91-.26.07-.4.34-.33.6.03.1.09.19.17.25Z"/>
      <path class="cls-22" d="M1571.33,1093.22s.08.06.13.07c55.11,19.23,109.26,43.25,160.96,71.42,51.96,28.31,101.48,60.82,147.17,96.63h0c.21.16.51.13.67-.08.16-.21.13-.51-.08-.68-45.73-35.84-95.3-68.38-147.31-96.72-51.74-28.19-105.94-52.24-161.1-71.48-.25-.09-.53.04-.61.3-.07.2,0,.42.16.54Z"/>
    </g>
    <g>
      <path class="cls-42" d="M1635.88,978.99c2.71,3.33,5.89,6.3,9.61,8.82,14.85,10.06,34.06,12.14,51.68,8.83,28.91-5.43,53.59-23.96,75.09-44.03,77.09-71.92,125.63-170.02,142.13-273.71-40.03,52.83-107.35,73.51-164.98,100.49-48.71,22.81-97.65,54.91-117.23,105.01-10.34,26.47-16.12,70.21,3.69,94.59Z"/>
      <path class="cls-22" d="M1542.04,1041.9c.14.09.32.11.48.04,59.98-28.42,112.61-70.36,163.51-110.92,14.66-11.68,29.82-23.76,44.12-36.38,31.23-27.55,60.63-59.45,89.87-97.5,24.16-31.44,48.48-67.55,74.36-110.4.14-.23.06-.53-.16-.66-.23-.14-.52-.06-.66.16-25.86,42.82-50.16,78.9-74.3,110.31-29.21,38-58.56,69.85-89.74,97.37-14.29,12.61-29.44,24.68-44.09,36.35-50.86,40.52-103.44,82.43-163.32,110.8-.24.11-.34.4-.23.64.04.08.1.15.17.19Z"/>
      <path class="cls-22" d="M1658.86,971.11c.09.06.2.09.31.08,37.81-3.23,75.55-9.89,112.19-19.77.26-.07.41-.33.34-.59-.07-.26-.33-.41-.59-.34-36.58,9.87-74.27,16.51-112.02,19.74-.27.02-.46.26-.44.52.01.15.09.28.21.36Z"/>
      <path class="cls-22" d="M1735.49,906.75c.1.07.22.1.35.08,8.64-1.48,77.76-15.68,95.91-21.4.25-.08.39-.35.31-.6-.08-.25-.35-.39-.6-.31-18.12,5.71-87.15,19.9-95.78,21.37-.26.04-.44.29-.39.56.02.14.1.25.21.32Z"/>
      <path class="cls-22" d="M1817.38,824.18c.12.08.27.11.41.06,21.1-6.62,49.43-18.98,65.66-33.8.2-.18.21-.48.03-.68-.18-.2-.48-.21-.68-.03-16.11,14.71-44.29,27-65.29,33.59-.25.08-.4.35-.32.6.03.11.1.2.19.26Z"/>
      <path class="cls-22" d="M1817.08,824.23c.06.04.14.07.22.08.26.03.5-.16.53-.43l3.73-34.59c1.79-16.62,5.72-34.27,10.51-47.21.09-.25-.04-.53-.28-.62-.25-.09-.53.04-.62.28-4.81,13.01-8.76,30.75-10.56,47.44l-3.73,34.59c-.02.18.07.35.21.45Z"/>
      <path class="cls-22" d="M1735.49,906.75c.11.07.25.1.39.07.26-.06.42-.33.35-.58-5.96-23.82-.46-46.92,5.36-71.38.8-3.37,1.63-6.86,2.42-10.3,1.7-7.43,4-15.86,6.23-24.01,2.23-8.16,4.54-16.6,6.24-24.06.06-.26-.1-.52-.36-.58-.26-.06-.52.1-.58.36-1.7,7.43-4,15.87-6.23,24.02-2.23,8.16-4.54,16.6-6.24,24.05-.78,3.43-1.61,6.92-2.41,10.29-5.59,23.49-11.37,47.79-5.36,71.84.03.12.1.22.2.28Z"/>
      <path class="cls-22" d="M1661.71,969.15c.08.06.19.09.29.08.27-.01.47-.24.46-.51-2.27-46.07.94-92.41,9.56-137.73.05-.26-.12-.51-.38-.56-.26-.05-.51.12-.56.38-8.63,45.39-11.85,91.81-9.57,137.96,0,.16.09.29.21.38Z"/>
      <path class="cls-22" d="M1542.04,1041.9c.14.09.32.11.48.04,59.98-28.42,112.61-70.36,163.51-110.92,14.66-11.68,29.82-23.76,44.12-36.38,31.23-27.55,60.63-59.45,89.87-97.5,24.16-31.44,48.48-67.55,74.36-110.4.14-.23.06-.53-.16-.66-.23-.14-.52-.06-.66.16-25.86,42.82-50.16,78.9-74.3,110.31-29.21,38-58.56,69.85-89.74,97.37-14.29,12.61-29.44,24.68-44.09,36.35-50.86,40.52-103.44,82.43-163.32,110.8-.24.11-.34.4-.23.64.04.08.1.15.17.19Z"/>
    </g>
    <g>
      <path class="cls-40" d="M1544.66,1101.15c37.82-81.55,127.06-130.24,216.34-140.77,89.28-10.52,179.13,11.49,264.71,39.02-46.23-4.94-93.64,1.6-136.8,18.88-59.27,23.73-108.95,66.51-166.44,94.27-57.49,27.76-131.69,37.75-181.27-2.46l3.47-8.95Z"/>
      <path class="cls-22" d="M1438.37,1169.81c.36.15.72.29,1.08.44,6.41-4.29,13.33-8.85,20.72-13.6,2.58-1.66,5.22-3.35,7.9-5.05,3.99-2.53,8.1-5.12,12.32-7.74,5.68-3.53,11.57-7.14,17.65-10.79,6.21-3.74,12.42-7.41,18.63-11.01.81-.47,1.63-.94,2.44-1.41.47-.27.95-.55,1.42-.82h0c1.51-.88,3.03-1.75,4.54-2.61,2.83-1.62,5.66-3.23,8.48-4.81,0,0,0,0,.01,0,2.87-1.61,5.73-3.21,8.59-4.79.19-.1.38-.21.56-.31,20.76-11.47,41.43-22.18,61.82-32.02,1.09-.53,2.19-1.06,3.28-1.58,2.14-1.03,4.28-2.04,6.42-3.05,3.23-1.52,6.45-3.02,9.66-4.5,3.44-1.58,6.86-3.13,10.28-4.66,26.8-11.99,53.07-22.43,78.55-31.21,8.1-2.79,16.13-5.42,24.06-7.87,4.18-1.29,8.32-2.54,12.45-3.73.14-.04.28-.08.42-.12.51-.15,1.02-.29,1.52-.44,15.44-4.44,30.64-8.39,45.53-11.86.49-.12.97-.23,1.46-.34,25.44-5.88,50.01-10.34,73.45-13.32.83-.11,1.65-.21,2.48-.31,4.33-.53,8.63-1.01,12.89-1.45h0c.12-.01.24-.03.36-.04.53-.05,1.05-.11,1.58-.16,25.09-2.47,48.77-3.17,70.57-2.07,37.41,1.87,58.54,8.57,64.35,10.67,1.08.39,1.63.62,1.66.63.24.11.53,0,.63-.25.1-.24,0-.53-.25-.63-.11-.05-6.19-2.6-18.49-5.33-10.94-2.43-26.82-4.99-47.77-6.05-21.93-1.11-45.77-.4-71.02,2.09-.55.05-1.09.11-1.64.16-4.27.43-8.58.91-12.93,1.45-.82.1-1.64.21-2.47.31-23.59,3-48.33,7.49-73.95,13.43-.26.06-.52.12-.78.18-.25.06-.5.12-.75.18t0,0c-14.78,3.45-29.85,7.38-45.17,11.78-.52.15-1.04.3-1.57.45-.51.15-1.01.29-1.52.44-4.12,1.2-8.25,2.45-12.42,3.75-7.4,2.3-14.86,4.75-22.4,7.34-6.14,2.11-12.34,4.32-18.57,6.63-.39.14-.78.29-1.17.43-19.72,7.32-39.86,15.58-60.31,24.75-3.42,1.53-6.84,3.09-10.27,4.67-2.95,1.36-5.91,2.74-8.87,4.13-1.12.53-2.24,1.06-3.36,1.59-1.05.5-2.11,1-3.17,1.51-21.29,10.2-42.89,21.34-64.6,33.33-.37.2-.74.41-1.11.61-3.04,1.68-6.09,3.39-9.14,5.1,0,0,0,0-.01,0-2.83,1.59-5.65,3.2-8.48,4.82-1.69.96-3.37,1.93-5.06,2.91h0c-.47.27-.95.55-1.42.82h0c-.57.33-1.13.66-1.7.99-6.08,3.54-12.16,7.13-18.24,10.79-6.28,3.77-12.35,7.5-18.21,11.14-4.23,2.63-8.35,5.22-12.34,7.76-2.69,1.71-5.32,3.4-7.9,5.06-7.39,4.77-14.31,9.33-20.72,13.61Z"/>
      <path class="cls-22" d="M1587.98,1085.52s.04.01.06.02c42.6,11.88,86.4,21.03,130.2,27.19.26.04.51-.15.54-.41.04-.26-.15-.51-.41-.54-43.75-6.16-87.52-15.3-130.07-27.17-.26-.07-.52.08-.59.33-.07.24.06.48.28.57Z"/>
      <path class="cls-22" d="M1701.31,1046.87c30.54,12.84,66.82,20.24,99.44,20.06.27,0,.48-.22.48-.48,0-.27-.22-.48-.48-.48-36.58.2-77.79-9.17-110.25-25.07-.24-.11-.53-.02-.65.22-.12.24-.02.53.22.64,3.64,1.78,7.4,3.49,11.24,5.1Z"/>
      <path class="cls-22" d="M1820.3,1017.26c15.57,6.55,29.7,10.89,42.78,13.16.26.05.51-.13.56-.39.05-.26-.13-.51-.39-.56-19.39-3.37-41.14-11.32-66.49-24.31-.23-.12-.53-.03-.65.21-.12.24-.03.53.21.65,8.37,4.29,16.35,8.03,23.99,11.24Z"/>
      <path class="cls-22" d="M1916.44,1008.95c.19.08.42.03.56-.14.17-.21.14-.51-.06-.68-6.48-5.35-21.05-14.62-29.51-18.18-.04-.01-.07-.03-.1-.04-.25-.1-.53.01-.63.26-.1.25.01.53.26.63h0c8.37,3.5,22.92,12.75,29.37,18.08.04.03.08.06.12.07Z"/>
      <path class="cls-22" d="M1886.94,990.79c.17.07.36.04.51-.08,4-3.56,8.76-7.61,13.36-11.53,4.61-3.92,9.37-7.98,13.38-11.55.2-.18.22-.48.04-.68-.18-.2-.48-.22-.68-.04-4,3.56-8.76,7.62-13.37,11.53-4.61,3.92-9.37,7.97-13.38,11.54-.2.18-.22.48-.04.68.05.06.11.1.17.12Z"/>
      <path class="cls-22" d="M1796.34,1006.04c.19.08.42.03.56-.14,10-12.02,25.68-27.57,46.6-46.22.2-.18.22-.48.04-.68-.18-.2-.48-.22-.68-.04-20.96,18.68-36.67,34.27-46.7,46.33-.17.2-.14.51.06.68.04.03.08.06.12.07Z"/>
      <path class="cls-22" d="M1693.5,1036.4c.2.08.43.03.57-.15,9.12-11.98,19.01-23.57,29.4-34.46,4.59-4.81,9.39-9.59,14.02-14.21,7.74-7.72,15.74-15.69,23.06-24.06.18-.2.15-.5-.05-.68-.2-.18-.51-.15-.68.05-7.3,8.35-15.29,16.31-23.01,24.02-4.64,4.63-9.44,9.41-14.04,14.23-10.42,10.91-20.34,22.54-29.47,34.54-.16.21-.12.51.09.68.03.03.07.05.11.06Z"/>
      <path class="cls-22" d="M1594.08,1079.01h0c.25.1.53-.01.63-.26l17.81-43.39c2.87-7,6.13-14.94,11.89-20.62.19-.19.19-.49,0-.68-.19-.19-.49-.19-.68,0-5.89,5.82-9.19,13.85-12.1,20.94l-17.81,43.39c-.1.24.02.52.26.63Z"/>
      <path class="cls-22" d="M1438.37,1169.81c.36.15.72.29,1.08.44,6.41-4.29,13.33-8.85,20.72-13.6,2.58-1.66,5.22-3.35,7.9-5.05,3.99-2.53,8.1-5.12,12.32-7.74,5.68-3.53,11.57-7.14,17.65-10.79,6.21-3.74,12.42-7.41,18.63-11.01.81-.47,1.63-.94,2.44-1.41.47-.27.95-.55,1.42-.82h0c1.51-.88,3.03-1.75,4.54-2.61,2.83-1.62,5.66-3.23,8.48-4.81,0,0,0,0,.01,0,2.87-1.61,5.73-3.21,8.59-4.79.19-.1.38-.21.56-.31,20.76-11.47,41.43-22.18,61.82-32.02,1.09-.53,2.19-1.06,3.28-1.58,2.14-1.03,4.28-2.04,6.42-3.05,3.23-1.52,6.45-3.02,9.66-4.5,3.44-1.58,6.86-3.13,10.28-4.66,26.8-11.99,53.07-22.43,78.55-31.21,8.1-2.79,16.13-5.42,24.06-7.87,4.18-1.29,8.32-2.54,12.45-3.73.14-.04.28-.08.42-.12.51-.15,1.02-.29,1.52-.44,15.44-4.44,30.64-8.39,45.53-11.86.49-.12.97-.23,1.46-.34,25.44-5.88,50.01-10.34,73.45-13.32.83-.11,1.65-.21,2.48-.31,4.33-.53,8.63-1.01,12.89-1.45h0c.12-.01.24-.03.36-.04.53-.05,1.05-.11,1.58-.16,25.09-2.47,48.77-3.17,70.57-2.07,37.41,1.87,58.54,8.57,64.35,10.67,1.08.39,1.63.62,1.66.63.24.11.53,0,.63-.25.1-.24,0-.53-.25-.63-.11-.05-6.19-2.6-18.49-5.33-10.94-2.43-26.82-4.99-47.77-6.05-21.93-1.11-45.77-.4-71.02,2.09-.55.05-1.09.11-1.64.16-4.27.43-8.58.91-12.93,1.45-.82.1-1.64.21-2.47.31-23.59,3-48.33,7.49-73.95,13.43-.26.06-.52.12-.78.18-.25.06-.5.12-.75.18t0,0c-14.78,3.45-29.85,7.38-45.17,11.78-.52.15-1.04.3-1.57.45-.51.15-1.01.29-1.52.44-4.12,1.2-8.25,2.45-12.42,3.75-7.4,2.3-14.86,4.75-22.4,7.34-6.14,2.11-12.34,4.32-18.57,6.63-.39.14-.78.29-1.17.43-19.72,7.32-39.86,15.58-60.31,24.75-3.42,1.53-6.84,3.09-10.27,4.67-2.95,1.36-5.91,2.74-8.87,4.13-1.12.53-2.24,1.06-3.36,1.59-1.05.5-2.11,1-3.17,1.51-21.29,10.2-42.89,21.34-64.6,33.33-.37.2-.74.41-1.11.61-3.04,1.68-6.09,3.39-9.14,5.1,0,0,0,0-.01,0-2.83,1.59-5.65,3.2-8.48,4.82-1.69.96-3.37,1.93-5.06,2.91h0c-.47.27-.95.55-1.42.82h0c-.57.33-1.13.66-1.7.99-6.08,3.54-12.16,7.13-18.24,10.79-6.28,3.77-12.35,7.5-18.21,11.14-4.23,2.63-8.35,5.22-12.34,7.76-2.69,1.71-5.32,3.4-7.9,5.06-7.39,4.77-14.31,9.33-20.72,13.61Z"/>
    </g>
    <g>
      <path class="cls-40" d="M494.17,403.73c-8.58-3.87-17.81-7.84-27.09-6.23-9.27,1.61-17.67,11.45-14.11,20.16,2.5,6.11,9.38,8.98,15.66,10.99,32.76,10.52,67.55,14.65,101.86,12.09,0,0-52.06-26.05-76.33-37.01Z"/>
      <path class="cls-40" d="M565.81,435.2c-19.7-20.66-22.56-51.72-24.01-80.23-.61-11.91.58-26.76,11.57-31.4,8.77-3.7,19.25,2.22,23.77,10.6,4.52,8.38,4.53,18.39,4.09,27.9-1.28,27.53-15.41,73.13-15.41,73.13Z"/>
      <path class="cls-40" d="M446.24,347.19c-7.21-3.31-14.76-6.5-22.69-6.42-7.93.08-16.35,4.29-18.95,11.78-1.38,3.96-.99,8.37.37,12.33,3.38,9.85,12.4,16.93,22.16,20.55s20.34,4.28,30.73,4.9c19.63,1.18,39.26,2.35,58.88,3.53,0,0-45.95-35.41-70.5-46.67Z"/>
      <path class="cls-40" d="M511.44,385.36c-19.44-29.1-20.06-69.64-1.51-99.31,1.45-2.32,3.12-4.68,5.59-5.84,7.8-3.68,14.92,6.51,16.51,14.99,5.89,31.46-20.6,90.17-20.6,90.17Z"/>
      <path class="cls-40" d="M461.98,323.85c-22.37-19.75-46.27-37.77-71.41-53.85-3.26-2.08-6.71-4.19-10.57-4.44-11.63-.74-16.98,16.5-10.34,26.07,6.64,9.57,19.09,12.78,30.47,15.3,20.05,4.43,61.85,16.91,61.85,16.91Z"/>
      <path class="cls-40" d="M456.3,238.55c2.99-7.91,9.35-16.74,17.65-15.14,5.72,1.1,9.4,7.16,9.74,12.97.34,5.82-1.86,11.45-4.03,16.85-8.04,20.05-16.08,40.1-24.13,60.15,0,0-8.9-49.31.76-74.84Z"/>
      <path class="cls-40" d="M380.79,227.8c-7.42-5.52-15.55-11.29-24.8-11.26-9.25.03-18.79,9.16-15.5,17.8,2.49,6.54,10.3,8.99,17.14,10.45,20.98,4.48,42.26,7.5,63.66,9.01,0,0-30.15-18.3-40.5-26.01Z"/>
      <path class="cls-40" d="M419.12,242.92c-8.42-27.22-7.45-57.24,2.71-83.86,2.06-5.4,5.29-11.34,10.97-12.44,6.63-1.29,12.67,5.32,13.39,12.03.72,6.71-2.26,13.21-5.17,19.3-9.42,19.76-21.9,64.97-21.9,64.97Z"/>
      <path class="cls-40" d="M400.75,204.92c-8.19-22.58-21.12-43.43-37.71-60.8-5.53-5.79-11.77-11.38-19.48-13.59-7.7-2.21-17.17-.09-21.3,6.78-3.99,6.65-1.77,15.61,3.19,21.58,4.96,5.96,12.1,9.61,19.03,13.09,18.74,9.42,56.26,32.94,56.26,32.94Z"/>
      <path class="cls-40" d="M382.3,141.32c5.55-26.35,5.44-53.88-.31-80.19-2.96-13.54-10.81-29.41-24.67-29.29-11.79.1-20.08,13.05-19.81,24.84.28,11.79,6.52,22.49,12.23,32.81,9.27,16.74,32.56,51.84,32.56,51.84Z"/>
      <path class="cls-22" d="M604.46,463.08s0,.01,0,.02c-.12.24-.41.33-.65.22-.1-.05-10.18-5.11-25.95-16.24-14.54-10.26-37.05-27.94-61.69-53.87-27.69-29.14-52.37-62.54-73.37-99.28-26.24-45.92-46.75-97.22-60.97-152.48-.07-.26.09-.52.35-.59.26-.07.52.09.59.35,14.19,55.16,34.67,106.37,60.86,152.21,20.95,36.67,45.58,70.01,73.21,99.09,24.58,25.87,47.04,43.51,61.55,53.76,15.72,11.1,25.76,16.14,25.86,16.19.23.12.33.4.22.63Z"/>
      <path class="cls-40" d="M604.46,463.08s0,.01,0,.02c-.12.24-.41.33-.65.22-.1-.05-10.18-5.11-25.95-16.24-14.54-10.26-37.05-27.94-61.69-53.87-27.69-29.14-52.37-62.54-73.37-99.28-26.24-45.92-46.75-97.22-60.97-152.48-.07-.26.09-.52.35-.59.26-.07.52.09.59.35,14.19,55.16,34.67,106.37,60.86,152.21,20.95,36.67,45.58,70.01,73.21,99.09,24.58,25.87,47.04,43.51,61.55,53.76,15.72,11.1,25.76,16.14,25.86,16.19.23.12.33.4.22.63Z"/>
    </g>
    <g>
      <path class="cls-42" d="M481.03,541.07c3.52-2.46,6.72-5.42,9.5-8.94,11.11-14.07,14.6-33.08,12.58-50.9-3.31-29.23-19.98-55.19-38.43-78.11-66.11-82.13-160.39-137.7-262.61-161.74,49.77,43.78,65.47,112.43,88.17,171.88,19.19,50.25,47.63,101.4,96.17,124.58,25.65,12.25,68.84,21.21,94.61,3.23Z"/>
      <path class="cls-22" d="M536.93,639.26c.1-.13.13-.31.07-.47-23.97-61.89-61.95-117.44-98.68-171.17-10.58-15.47-21.52-31.47-33.06-46.66-25.2-33.16-54.86-64.81-90.68-96.75-29.59-26.39-63.83-53.28-104.68-82.22-.22-.15-.52-.1-.67.11-.15.22-.1.52.11.67,40.82,28.91,75.03,55.79,104.59,82.15,35.77,31.9,65.39,63.5,90.55,96.61,11.53,15.17,22.46,31.16,33.03,46.62,36.7,53.68,74.65,109.19,98.58,170.97.1.25.38.37.62.28.08-.03.15-.09.2-.15Z"/>
      <path class="cls-22" d="M474.85,517.58c.07-.08.1-.19.1-.3-.46-37.94-4.34-76.07-11.53-113.33-.05-.26-.3-.43-.56-.38-.26.05-.43.3-.38.56,7.17,37.21,11.05,75.28,11.51,113.16,0,.27.22.48.49.48.15,0,.29-.07.37-.18Z"/>
      <path class="cls-22" d="M416.25,436.46c.07-.09.11-.22.1-.34-.84-8.73-9.96-78.7-14.34-97.22-.06-.26-.32-.42-.58-.36-.26.06-.42.32-.36.58,4.37,18.49,13.48,88.37,14.32,97.09.03.27.26.46.53.43.14-.01.25-.08.33-.18Z"/>
      <path class="cls-22" d="M339.89,348.76c.09-.11.13-.26.09-.41-5.07-21.53-15.32-50.69-28.92-67.95-.16-.21-.47-.25-.68-.08-.21.17-.25.47-.08.68,13.5,17.14,23.69,46.14,28.74,67.57.06.26.32.42.58.36.11-.03.2-.09.27-.17Z"/>
      <path class="cls-22" d="M339.91,349.06c.05-.06.08-.13.1-.21.05-.26-.13-.51-.39-.56l-34.23-6.24c-16.45-3-33.76-8.21-46.32-13.92-.24-.11-.53,0-.64.24-.11.24,0,.53.24.64,12.63,5.75,30.03,10.98,46.55,14l34.23,6.24c.18.03.36-.04.47-.18Z"/>
      <path class="cls-22" d="M416.25,436.46c.08-.1.12-.24.1-.38-.05-.26-.3-.44-.56-.39-24.19,4.21-46.83-2.97-70.8-10.56-3.3-1.05-6.72-2.13-10.09-3.16-7.29-2.23-15.53-5.15-23.49-7.97-7.98-2.82-16.23-5.74-23.54-7.98-.25-.08-.52.06-.6.32-.08.25.07.52.32.6,7.29,2.23,15.53,5.15,23.5,7.97,7.98,2.82,16.22,5.74,23.53,7.98,3.37,1.03,6.78,2.11,10.08,3.16,23.02,7.29,46.83,14.83,71.25,10.59.12-.02.23-.09.3-.18Z"/>
      <path class="cls-22" d="M473.11,514.59c.06-.08.1-.18.1-.29,0-.27-.2-.49-.47-.49-46.12-1.1-92.1-7.69-136.66-19.59-.26-.07-.52.08-.59.34-.07.26.08.52.34.59,44.64,11.92,90.7,18.52,136.89,19.62.16,0,.3-.07.39-.18Z"/>
      <path class="cls-22" d="M536.93,639.26c.1-.13.13-.31.07-.47-23.97-61.89-61.95-117.44-98.68-171.17-10.58-15.47-21.52-31.47-33.06-46.66-25.2-33.16-54.86-64.81-90.68-96.75-29.59-26.39-63.83-53.28-104.68-82.22-.22-.15-.52-.1-.67.11-.15.22-.1.52.11.67,40.82,28.91,75.03,55.79,104.59,82.15,35.77,31.9,65.39,63.5,90.55,96.61,11.53,15.17,22.46,31.16,33.03,46.62,36.7,53.68,74.65,109.19,98.58,170.97.1.25.38.37.62.28.08-.03.15-.09.2-.15Z"/>
    </g>
  </g>
  <g>
    <g>
      <path class="cls-42" d="M473.85,1094.74c-4.93,3.32-9.57,7.18-13.88,11.14-60.12,55.23-83.82,138.32-69.99,217.74,76.25-6.34,149.62-63.17,180.16-132.07,6.52-14.71,11.43-31.14,7.6-46.77-4.46-18.19-19.69-31.49-34.66-42.74-11.38-8.55-23.95-16.97-38.17-17.58-11.18-.48-21.64,3.93-31.06,10.28Z"/>
      <path class="cls-22" d="M599.1,1041.51s-.05.09-.09.12c-41.75,40.56-80.52,84.99-115.22,132.05-34.7,47.06-65.68,97.23-92.09,149.1-.14.25-.41.33-.65.21-.24-.12-.33-.41-.21-.65,26.43-51.93,57.44-102.13,92.17-149.24,34.73-47.1,73.53-91.57,115.32-132.17.19-.19.5-.18.68,0,.15.15.18.38.08.56Z"/>
      <path class="cls-22" d="M431.57,1314.82c-.09.18-.29.28-.5.25-.26-.04-.44-.29-.4-.55l1.62-10.66c3.32-21.84,5.12-43.74,5.2-63.33,0-.27.22-.48.48-.48.27,0,.48.22.48.48-.08,19.64-1.88,41.59-5.21,63.48l-1.62,10.66c0,.05-.03.11-.05.15Z"/>
      <path class="cls-22" d="M477.7,1294.55c-.11.2-.34.31-.57.24-.25-.08-.4-.35-.32-.6,2.42-7.9,2.89-17.63,3.31-26.21.1-1.97.19-3.84.3-5.67,1.6-26.32,2.64-56.81-1.87-83.43-.04-.26.13-.51.39-.56.26-.04.51.13.56.39,4.52,26.72,3.49,57.28,1.88,83.65-.11,1.83-.2,3.69-.3,5.66-.42,8.64-.9,18.43-3.35,26.44,0,.03-.02.06-.03.08Z"/>
      <path class="cls-22" d="M526.62,1256.4c-.1.18-.3.29-.51.25-.26-.05-.44-.3-.39-.56,5.65-31.57,6.03-64.17,6.4-95.69.15-13.15.33-28.05-6.25-40.54-.12-.24-.03-.53.2-.65.24-.12.53-.03.65.2,6.69,12.7,6.52,27.74,6.36,41-.37,31.56-.76,64.2-6.42,95.85,0,.05-.03.1-.05.14Z"/>
      <path class="cls-22" d="M438.4,1240.76c-.05.1-.14.18-.26.23-18.71,7-35.58,18.17-51.56,34.15-.19.19-.49.19-.68,0-.19-.19-.19-.49,0-.68,16.08-16.08,33.06-27.33,51.9-34.37.25-.09.53.03.62.28.05.13.04.28-.02.39Z"/>
      <path class="cls-22" d="M479.54,1179.13c-.1.19-.32.3-.54.24-1.73-.43-18.28,2.67-37.67,7.06-16.23,3.67-36.77,8.8-41.27,11.22-.23.13-.53.04-.65-.2-.13-.23-.04-.53.2-.65,8.94-4.79,75.54-19.37,79.63-18.36.26.06.42.33.35.58,0,.04-.02.07-.04.11Z"/>
      <path class="cls-22" d="M530,1117.46c-.07.13-.2.23-.35.25-20.13,3.09-40.71,4.3-58.19,5.07l-.43.02c-11.15.49-22.68,1-32.68,5.87-.24.12-.53.02-.64-.22-.12-.24-.02-.53.22-.64,10.17-4.96,21.81-5.47,33.06-5.96l.43-.02c17.46-.77,38.01-1.97,58.09-5.06.26-.04.51.14.55.4.02.11,0,.21-.05.3Z"/>
      <path class="cls-22" d="M599.1,1041.51s-.05.09-.09.12c-41.86,40.67-80.84,85.29-115.83,132.63-35.18,47.58-66.37,97.94-92.71,149.68h0c-.12.24-.41.33-.65.21-.24-.12-.33-.41-.21-.65,26.36-51.78,57.58-102.19,92.79-149.81,35.03-47.38,74.04-92.04,115.94-132.74.19-.19.5-.18.68,0,.15.15.18.38.08.56Z"/>
    </g>
    <g>
      <path class="cls-42" d="M415.51,1039.26c.07,4.29-.46,8.62-1.68,12.93-4.9,17.25-18.27,31.21-33.9,40-25.63,14.43-56.44,16.12-85.82,14.58-105.29-5.5-205.54-49.39-284.87-118.19,64.63,14.71,129.48-12.76,190.96-29.16,51.97-13.86,110.09-20.76,157.3,5.02,24.95,13.62,57.5,43.39,58.01,74.81Z"/>
      <path class="cls-22" d="M527.83,1027.08c-.05.16-.17.29-.34.33-64.2,16.81-131.48,18.54-196.54,20.22-18.74.48-38.11.98-57.19.52-41.64-1.01-84.66-6.53-131.53-16.86-38.72-8.54-80.57-20.55-127.94-36.72-.25-.09-.39-.36-.3-.61.09-.25.36-.39.61-.3,47.34,16.16,89.16,28.16,127.84,36.69,46.81,10.32,89.77,15.83,131.34,16.84,19.05.46,38.41-.04,57.14-.52,65.01-1.68,132.22-3.41,196.32-20.19.26-.07.52.09.59.34.02.09.02.17,0,.25Z"/>
      <path class="cls-22" d="M392.84,1048.01c-.03.1-.09.2-.19.26-31.03,21.84-64.21,41.02-98.63,57.01-.24.11-.53,0-.64-.23-.11-.24,0-.53.23-.64,34.36-15.97,67.49-35.12,98.48-56.93.22-.15.52-.1.67.12.09.12.11.27.07.41Z"/>
      <path class="cls-22" d="M292.77,1048c-.03.12-.11.22-.22.28-7.57,4.43-69.63,38-87.21,45.29-.25.1-.53-.01-.63-.26-.1-.25.01-.53.26-.63,17.55-7.28,79.53-40.81,87.09-45.24.23-.13.53-.06.66.17.07.12.08.25.05.38Z"/>
      <path class="cls-22" d="M176.97,1037.44c-.04.14-.14.25-.28.31-20.42,8.5-50.06,17.26-72.01,16.34-.27-.01-.47-.24-.46-.5.01-.27.24-.47.5-.46,21.8.91,51.28-7.81,71.6-16.27.25-.1.53.01.63.26.04.1.05.22.02.32Z"/>
      <path class="cls-22" d="M177.22,1037.28c-.02.07-.06.14-.12.2-.18.19-.49.2-.68.01l-25.1-24.09c-12.06-11.58-26.42-22.57-38.41-29.4-.23-.13-.31-.43-.18-.66.13-.23.43-.31.66-.18,12.05,6.87,26.48,17.91,38.6,29.54l25.1,24.09c.13.13.18.31.13.48Z"/>
      <path class="cls-22" d="M292.77,1048c-.04.13-.12.24-.25.3-.24.12-.53.02-.64-.22-10.76-22.07-29.82-36.23-50.01-51.21-2.78-2.07-5.66-4.2-8.47-6.33-6.08-4.6-13.27-9.57-20.22-14.38-6.96-4.81-14.16-9.79-20.25-14.41-.21-.16-.25-.46-.09-.68.16-.21.46-.25.68-.09,6.08,4.6,13.27,9.57,20.22,14.38,6.96,4.81,14.16,9.79,20.25,14.4,2.81,2.13,5.68,4.26,8.47,6.32,19.39,14.39,39.44,29.28,50.3,51.56.05.11.06.23.03.34Z"/>
      <path class="cls-22" d="M389.4,1048.34c-.03.1-.09.19-.17.25-.21.16-.51.12-.68-.09-27.89-36.74-60.16-70.16-95.9-99.32-.21-.17-.24-.47-.07-.68.17-.21.47-.24.68-.07,35.8,29.21,68.12,62.68,96.05,99.48.1.13.12.28.08.42Z"/>
      <path class="cls-22" d="M527.83,1027.08c-.05.16-.17.29-.34.33-64.2,16.81-131.48,18.54-196.54,20.22-18.74.48-38.11.98-57.19.52-41.64-1.01-84.66-6.53-131.53-16.86-38.72-8.54-80.57-20.55-127.94-36.72-.25-.09-.39-.36-.3-.61.09-.25.36-.39.61-.3,47.34,16.16,89.16,28.16,127.84,36.69,46.81,10.32,89.77,15.83,131.34,16.84,19.05.46,38.41-.04,57.14-.52,65.01-1.68,132.22-3.41,196.32-20.19.26-.07.52.09.59.34.02.09.02.17,0,.25Z"/>
    </g>
    <g>
      <path class="cls-40" d="M550.58,1059.09c-81.09-38.81-180.91-19.53-256.45,29.2-75.54,48.73-130.82,122.91-179.27,198.63,32.5-33.24,73.23-58.38,117.51-72.54,60.81-19.44,126.36-18.08,188.37-33.28,62-15.2,125.58-54.73,138.22-117.31l-8.37-4.69Z"/>
      <path class="cls-22" d="M676.26,1044.36c-.18.34-.37.69-.56,1.03-7.68.77-15.91,1.67-24.64,2.7-3.05.36-6.15.74-9.31,1.14-4.69.59-9.5,1.21-14.43,1.88-6.63.9-13.47,1.86-20.48,2.92-7.17,1.07-14.29,2.2-21.38,3.37-.93.15-1.85.31-2.78.46-.54.09-1.08.18-1.62.27h0c-1.72.29-3.44.58-5.16.88-3.21.55-6.42,1.11-9.61,1.69,0,0,0,0-.01,0-3.24.58-6.46,1.17-9.67,1.77-.21.04-.42.08-.63.12-23.32,4.37-46.06,9.27-68.06,14.67-1.18.29-2.36.58-3.54.87-2.31.57-4.6,1.15-6.9,1.73-3.46.88-6.89,1.78-10.31,2.68-3.66.97-7.29,1.95-10.89,2.95-28.3,7.82-55.2,16.5-80.44,25.95-8.03,3.01-15.89,6.09-23.57,9.25-4.04,1.66-8.03,3.34-11.98,5.05-.13.06-.27.11-.4.17-.49.21-.97.42-1.45.63-14.73,6.41-28.97,13.03-42.66,19.85-.45.22-.9.44-1.34.67-23.37,11.66-45.15,23.87-65.12,36.49-.71.45-1.41.89-2.11,1.34-3.68,2.35-7.3,4.71-10.86,7.09h0c-.1.07-.2.14-.3.21-.44.29-.88.59-1.32.88-20.92,14.07-39.63,28.61-55.74,43.34-27.66,25.27-39.68,43.88-42.83,49.2-.58.99-.86,1.52-.88,1.55-.12.24-.41.33-.65.21-.23-.12-.33-.41-.21-.65.05-.11,3.12-5.95,10.87-15.88,6.89-8.84,17.5-20.93,32.99-35.08,16.21-14.82,35.04-29.45,56.1-43.61.46-.31.91-.61,1.37-.92,3.57-2.39,7.2-4.76,10.89-7.11.69-.44,1.4-.89,2.1-1.33,20.1-12.71,42.03-24.99,65.57-36.73.24-.12.48-.24.72-.36.23-.11.46-.23.69-.34t0,0c13.6-6.75,27.72-13.32,42.33-19.68.5-.22,1-.43,1.5-.65.48-.21.97-.42,1.45-.63,3.94-1.69,7.93-3.37,11.96-5.02,7.17-2.94,14.48-5.8,21.94-8.6,6.08-2.28,12.27-4.52,18.54-6.72.39-.14.78-.27,1.18-.41,19.87-6.92,40.66-13.36,62.26-19.31,3.61-1,7.24-1.97,10.89-2.94,3.14-.83,6.3-1.65,9.47-2.46,1.2-.31,2.4-.61,3.61-.91,1.13-.28,2.27-.57,3.41-.85,22.91-5.69,46.66-10.85,71.03-15.43.41-.08.83-.16,1.25-.23,3.42-.64,6.85-1.27,10.3-1.88,0,0,0,0,.01,0,3.19-.57,6.39-1.13,9.61-1.69,1.91-.33,3.83-.66,5.75-.98h0c.54-.09,1.08-.18,1.62-.27h0c.64-.11,1.29-.22,1.94-.32,6.94-1.14,13.92-2.24,20.93-3.29,7.24-1.09,14.3-2.09,21.13-3,4.94-.67,9.76-1.29,14.45-1.87,3.16-.4,6.27-.77,9.31-1.13,8.73-1.03,16.98-1.92,24.65-2.7Z"/>
      <path class="cls-22" d="M507.22,1074.62s-.02.04-.03.05c-25.29,36.28-53.24,71.23-83.08,103.87-.18.2-.48.21-.68.03-.2-.18-.21-.48-.03-.68,29.82-32.61,57.74-67.52,83-103.77.15-.22.45-.27.67-.12.2.14.26.41.15.62Z"/>
      <path class="cls-22" d="M395.23,1116.98c-15.37,29.35-38.64,58.16-63.9,78.78-.21.17-.51.14-.68-.07-.17-.21-.14-.51.07-.68,28.33-23.13,54.15-56.6,69.05-89.53.12-.24.4-.35.64-.24.24.11.35.4.24.64-1.67,3.69-3.48,7.4-5.42,11.09Z"/>
      <path class="cls-22" d="M284.62,1169.9c-7.84,14.96-15.97,27.31-24.61,37.39-.17.2-.48.23-.68.05-.2-.17-.23-.48-.05-.68,12.8-14.94,24.51-34.92,35.8-61.08.1-.24.39-.36.63-.25.24.11.36.39.25.63-3.73,8.64-7.5,16.6-11.34,23.94Z"/>
      <path class="cls-22" d="M205.19,1224.7c-.1.18-.3.29-.52.25-.26-.05-.43-.3-.38-.56,1.59-8.25,6.92-24.68,11.18-32.81.02-.03.03-.07.05-.1.12-.24.42-.33.65-.2.24.12.33.41.2.65h0c-4.23,8.03-9.55,24.42-11.14,32.64,0,.05-.02.09-.05.13Z"/>
      <path class="cls-22" d="M216.38,1191.92c-.08.16-.25.27-.45.26-5.35-.2-11.6-.29-17.64-.38-6.05-.09-12.31-.18-17.67-.38-.27-.01-.47-.23-.46-.5,0-.27.23-.47.5-.46,5.35.2,11.6.29,17.65.38,6.05.09,12.3.18,17.66.38.27.01.47.23.46.5,0,.07-.02.14-.05.21Z"/>
      <path class="cls-22" d="M295.95,1146c-.1.18-.3.29-.52.25-15.37-2.9-37.36-4.91-65.36-5.97-.27-.01-.47-.23-.46-.5,0-.27.23-.47.5-.46,28.05,1.06,50.09,3.08,65.5,5.99.26.05.43.3.38.56,0,.05-.03.09-.05.13Z"/>
      <path class="cls-22" d="M394.58,1103.93c-.1.19-.32.3-.54.25-14.66-3.43-29.67-6.07-44.61-7.85-6.61-.79-13.34-1.42-19.86-2.03-10.88-1.02-22.13-2.08-33.1-3.88-.26-.04-.44-.29-.4-.55.04-.26.29-.44.55-.4,10.94,1.79,22.17,2.85,33.03,3.87,6.52.61,13.27,1.25,19.89,2.04,14.98,1.78,30.03,4.43,44.72,7.87.26.06.42.32.36.58,0,.04-.02.08-.04.11Z"/>
      <path class="cls-22" d="M498.38,1073.49h0c-.13.24-.42.33-.65.2l-41.36-22.12c-6.68-3.57-14.24-7.62-22.3-8.33-.27-.02-.46-.26-.44-.52.02-.27.26-.46.52-.44,8.25.73,15.91,4.83,22.67,8.44l41.36,22.12c.23.12.32.41.2.65Z"/>
      <path class="cls-22" d="M676.26,1044.36c-.18.34-.37.69-.56,1.03-7.68.77-15.91,1.67-24.64,2.7-3.05.36-6.15.74-9.31,1.14-4.69.59-9.5,1.21-14.43,1.88-6.63.9-13.47,1.86-20.48,2.92-7.17,1.07-14.29,2.2-21.38,3.37-.93.15-1.85.31-2.78.46-.54.09-1.08.18-1.62.27h0c-1.72.29-3.44.58-5.16.88-3.21.55-6.42,1.11-9.61,1.69,0,0,0,0-.01,0-3.24.58-6.46,1.17-9.67,1.77-.21.04-.42.08-.63.12-23.32,4.37-46.06,9.27-68.06,14.67-1.18.29-2.36.58-3.54.87-2.31.57-4.6,1.15-6.9,1.73-3.46.88-6.89,1.78-10.31,2.68-3.66.97-7.29,1.95-10.89,2.95-28.3,7.82-55.2,16.5-80.44,25.95-8.03,3.01-15.89,6.09-23.57,9.25-4.04,1.66-8.03,3.34-11.98,5.05-.13.06-.27.11-.4.17-.49.21-.97.42-1.45.63-14.73,6.41-28.97,13.03-42.66,19.85-.45.22-.9.44-1.34.67-23.37,11.66-45.15,23.87-65.12,36.49-.71.45-1.41.89-2.11,1.34-3.68,2.35-7.3,4.71-10.86,7.09h0c-.1.07-.2.14-.3.21-.44.29-.88.59-1.32.88-20.92,14.07-39.63,28.61-55.74,43.34-27.66,25.27-39.68,43.88-42.83,49.2-.58.99-.86,1.52-.88,1.55-.12.24-.41.33-.65.21-.23-.12-.33-.41-.21-.65.05-.11,3.12-5.95,10.87-15.88,6.89-8.84,17.5-20.93,32.99-35.08,16.21-14.82,35.04-29.45,56.1-43.61.46-.31.91-.61,1.37-.92,3.57-2.39,7.2-4.76,10.89-7.11.69-.44,1.4-.89,2.1-1.33,20.1-12.71,42.03-24.99,65.57-36.73.24-.12.48-.24.72-.36.23-.11.46-.23.69-.34t0,0c13.6-6.75,27.72-13.32,42.33-19.68.5-.22,1-.43,1.5-.65.48-.21.97-.42,1.45-.63,3.94-1.69,7.93-3.37,11.96-5.02,7.17-2.94,14.48-5.8,21.94-8.6,6.08-2.28,12.27-4.52,18.54-6.72.39-.14.78-.27,1.18-.41,19.87-6.92,40.66-13.36,62.26-19.31,3.61-1,7.24-1.97,10.89-2.94,3.14-.83,6.3-1.65,9.47-2.46,1.2-.31,2.4-.61,3.61-.91,1.13-.28,2.27-.57,3.41-.85,22.91-5.69,46.66-10.85,71.03-15.43.41-.08.83-.16,1.25-.23,3.42-.64,6.85-1.27,10.3-1.88,0,0,0,0,.01,0,3.19-.57,6.39-1.13,9.61-1.69,1.91-.33,3.83-.66,5.75-.98h0c.54-.09,1.08-.18,1.62-.27h0c.64-.11,1.29-.22,1.94-.32,6.94-1.14,13.92-2.24,20.93-3.29,7.24-1.09,14.3-2.09,21.13-3,4.94-.67,9.76-1.29,14.45-1.87,3.16-.4,6.27-.77,9.31-1.13,8.73-1.03,16.98-1.92,24.65-2.7Z"/>
    </g>
    <g>
      <path class="cls-40" d="M423.25,875.72c-7.15-6.12-14.66-12.8-17.14-21.88-2.48-9.08,2.86-20.86,12.26-21.33,6.59-.33,12.11,4.68,16.6,9.51,23.43,25.19,41.95,54.94,54.2,87.08,0,0-45.69-36.07-65.92-53.39Z"/>
      <path class="cls-40" d="M482.17,927.21c-27.07-9.06-56.41,1.54-82.84,12.33-11.04,4.51-23.98,11.89-23.51,23.8.37,9.51,10.18,16.49,19.69,17.02,9.51.53,18.57-3.71,27-8.14,24.38-12.85,59.66-45.01,59.66-45.01Z"/>
      <path class="cls-40" d="M351.71,856.34c-6.05-5.12-12.15-10.61-15.45-17.82-3.29-7.21-3.06-16.62,2.62-22.16,3-2.93,7.16-4.45,11.32-4.9,10.35-1.12,20.59,4.03,28.02,11.33,7.42,7.3,12.51,16.59,17.49,25.74,9.4,17.27,18.8,34.54,28.2,51.81,0,0-51.57-26.56-72.19-44.01Z"/>
      <path class="cls-40" d="M413.96,899.16c-34.6-5.25-71.56,11.41-90.55,40.81-1.48,2.3-2.91,4.81-2.91,7.55-.02,8.62,12.23,10.75,20.58,8.58,30.98-8.03,72.89-56.94,72.89-56.94Z"/>
      <path class="cls-40" d="M337.26,880.5c-27.38-11.87-53.84-25.85-79.08-41.79-3.27-2.06-6.65-4.3-8.51-7.69-5.61-10.21,7.73-22.38,19.21-20.43,11.49,1.95,19.68,11.86,26.79,21.09,12.53,16.27,41.58,48.82,41.58,48.82Z"/>
      <path class="cls-40" d="M257.62,911.59c-5.89,6.07-11.18,15.58-6.21,22.41,3.43,4.71,10.47,5.47,15.88,3.31,5.41-2.16,9.57-6.55,13.54-10.81,14.74-15.8,29.48-31.59,44.21-47.39,0,0-48.42,12.89-67.43,32.47Z"/>
      <path class="cls-40" d="M215.82,847.79c-8.15-4.37-16.83-9.28-20.72-17.67-3.9-8.39.31-20.9,9.54-21.59,6.98-.52,12.52,5.51,16.74,11.08,12.97,17.09,24.74,35.08,35.19,53.81,0,0-29.37-19.52-40.75-25.62Z"/>
      <path class="cls-40" d="M245.79,876.07c-28.22,3.93-54.99,17.56-74.77,38.07-4.02,4.16-8.02,9.6-6.61,15.22,1.65,6.55,10.2,9.21,16.58,7.01,6.38-2.2,11-7.65,15.28-12.87,13.89-16.92,49.52-47.42,49.52-47.42Z"/>
      <path class="cls-40" d="M203.58,875.57c-23.92,2.18-48.29-.67-71.06-8.32-7.6-2.55-15.3-5.83-20.58-11.86-5.27-6.03-7.37-15.51-2.9-22.16,4.33-6.44,13.38-8.23,20.89-6.27,7.51,1.96,13.84,6.87,19.93,11.66,16.48,12.96,53.72,36.95,53.72,36.95Z"/>
      <path class="cls-40" d="M138.17,885.88c-21.5,16.21-46.47,27.81-72.74,33.77-13.52,3.07-31.22,2.7-36.99-9.9-4.91-10.72,3.28-23.72,14.07-28.48,10.79-4.76,23.13-3.65,34.9-2.86,19.09,1.28,60.76,7.46,60.76,7.46Z"/>
      <path class="cls-22" d="M523.82,950.37s0,0,.01-.01c.17-.21.13-.51-.08-.68-.09-.07-8.95-7.04-25.72-16.59-15.47-8.81-41.03-21.68-74.97-32.97-38.14-12.69-78.86-20.86-121.04-24.26-52.72-4.25-107.88-1.04-163.94,9.55-.26.05-.43.3-.38.56.05.26.3.43.56.38,55.96-10.57,111.02-13.78,163.65-9.54,42.1,3.39,82.74,11.53,120.8,24.2,33.86,11.27,59.37,24.11,74.8,32.89,16.72,9.52,25.55,16.46,25.64,16.53.2.16.5.13.67-.07Z"/>
      <path class="cls-40" d="M523.82,950.37s0,0,.01-.01c.17-.21.13-.51-.08-.68-.09-.07-8.95-7.04-25.72-16.59-15.47-8.81-41.03-21.68-74.97-32.97-38.14-12.69-78.86-20.86-121.04-24.26-52.72-4.25-107.88-1.04-163.94,9.55-.26.05-.43.3-.38.56.05.26.3.43.56.38,55.96-10.57,111.02-13.78,163.65-9.54,42.1,3.39,82.74,11.53,120.8,24.2,33.86,11.27,59.37,24.11,74.8,32.89,16.72,9.52,25.55,16.46,25.64,16.53.2.16.5.13.67-.07Z"/>
    </g>
  </g>
  <g>
    <path class="cls-62" d="M1662.5,486.5c-182.84-126.26-555.53-204.94-754.89-383.99-199.37-179.05-564.13,62.18-607.74,437.31-43.61,375.13,101.22,718.75,372.9,831.39h949.86c279.01-273.94,222.71-758.45,39.87-884.71Z"/>
    <path class="cls-62" d="M1067.27,98.4c158.4,154.36,566.74,333.26,555.7,182.57C1604.66,31.03,956.46-9.59,1067.27,98.4Z"/>
    <g class="cls-77">
      <g>
        <path class="cls-50" d="M1994.67,1226.71h0c-8.26,0-14.95,6.7-14.95,14.95v-1.29h-7.71c-11.27,0-21.85-5.67-27.87-15.19-6.44-10.18-17.79-16.93-30.72-16.93h-108.75v-137.03c0-18.54-11.69-34.35-28.11-40.46v-16.71l2.59-30.39c1.1-12.83,1.68-25.69,1.76-38.56.13-21.44-1.15-42.87-3.85-64.17l-12.17-96.2c-.11-.9-.29-1.77-.51-2.63-.1-.39-.21-.77-.33-1.15-.29-.91-.64-1.79-1.05-2.64-1.08-2.26-2.56-4.28-4.33-5.99-3.77-3.63-8.89-5.84-14.47-5.84h0s0,0,0,0c-.4,0-.8.02-1.19.04-.1,0-.19.01-.29.02-.34.02-.68.06-1.02.1-.05,0-.11.01-.16.02-.84.11-1.66.27-2.47.47,0,0,0,0,0,0h0c-8.14,2.07-14.46,8.93-15.56,17.6l-12.17,96.2c-4.31,34.07-5.01,68.5-2.09,102.72l2.59,30.39v16.71c-16.41,6.11-28.11,21.92-28.11,40.46v137.03h-61.72v-306.85c0-44.95-19.43-87.7-53.3-117.26l-24.6-21.47c-10.83-9.45-17.97-22.25-20.44-36.19h0c-.3-1.69-.53-3.39-.69-5.1-.01-.13-.03-.27-.04-.4-.03-.3-.05-.6-.07-.89-.02-.23-.03-.47-.05-.7-.02-.25-.03-.5-.04-.75-.02-.31-.03-.62-.04-.93,0-.19-.01-.39-.02-.58-.01-.51-.02-1.03-.02-1.54v-3.82c10.8-.77,19.32-9.77,19.32-20.76v-24.85h.54c4.31,0,7.8-3.49,7.8-7.8v-14.01c0-4.31-3.49-7.8-7.8-7.8h-.54v-20.16h.54c4.31,0,7.8-3.49,7.8-7.8v-14.01c0-4.31-3.49-7.8-7.8-7.8h-.54v-4.69c0-11.5-9.32-20.82-20.82-20.82h-156.96c-11.5,0-20.82,9.32-20.82,20.82v4.69h-.54c-4.31,0-7.8,3.49-7.8,7.8v14.01c0,4.31,3.49,7.8,7.8,7.8h.54v20.16h-.54c-4.31,0-7.8,3.49-7.8,7.8v14.01c0,4.31,3.49,7.8,7.8,7.8h.54v24.85c0,10.99,8.52,19.99,19.32,20.76v3.82c0,.52,0,1.03-.02,1.54,0,.19-.01.38-.02.57-.01.31-.02.63-.04.94-.01.25-.03.49-.04.74-.01.24-.03.48-.05.71-.02.29-.04.59-.07.88-.01.14-.03.28-.04.42-.16,1.71-.39,3.41-.69,5.09h0c-2.47,13.94-9.62,26.74-20.44,36.19l-24.6,21.47c-12.89,11.25-23.68,24.42-32.12,38.88-.44.76-.88,1.52-1.3,2.28-.2.35-.4.71-.59,1.06-.52.94-1.03,1.89-1.53,2.84-.18.35-.36.7-.54,1.05-.4.78-.79,1.56-1.18,2.35-.15.3-.3.6-.44.9-.48.98-.94,1.97-1.39,2.96-.17.37-.34.73-.5,1.1-.44.99-.88,1.98-1.31,2.98-.11.27-.22.54-.34.81-.36.86-.71,1.73-1.06,2.6-.14.35-.28.69-.41,1.04-.4,1.03-.79,2.06-1.17,3.1-.12.32-.23.65-.35.97-.32.89-.63,1.78-.93,2.68-.09.27-.19.54-.27.81-.35,1.07-.7,2.15-1.03,3.23-.1.34-.2.67-.31,1.01-.33,1.1-.65,2.21-.96,3.32-.05.17-.09.34-.14.51-.28,1.02-.54,2.03-.79,3.06-.08.31-.16.62-.23.93-.27,1.12-.54,2.25-.78,3.38-.06.27-.11.53-.17.8-.22,1.01-.42,2.03-.62,3.05-.04.23-.09.45-.13.68-.07.35-.13.69-.19,1.04-.31-6.42-.47-12.85-.47-19.28v-72.78h0c0-8.08-6.55-14.63-14.63-14.63-.41,0-.82.02-1.22.05-.03,0-.06,0-.09,0-7.47.66-13.32,6.93-13.32,14.56v72.78c0,38.79-5.67,77.37-16.84,114.51h0c-11.63,38.7-19.07,78.54-22.18,118.83-.8,10.37-1.49,20.76-2.05,31.15h0s0,.01,0,.02c-.34,6.24-.64,12.48-.9,18.72,0,.19-.02.38-.02.57-.25,6.11-.46,12.22-.63,18.33-.01.36-.02.73-.03,1.09-.07,2.67-.14,5.33-.19,8,0,.42-.02.83-.03,1.25-.06,2.93-.11,5.85-.15,8.78,0,.42,0,.83-.02,1.25-.03,2.45-.06,4.91-.08,7.36,0,.74-.01,1.48-.02,2.22-.02,2.84-.03,5.69-.03,8.53v144.89c0,13,10.54,23.54,23.54,23.54h48.94s0,0,0,0h19.55c6.56,0,12.49-2.68,16.76-7.01.27.13.54.26.81.39.15.07.3.14.45.21.31.15.63.29.94.43,0,0,0,0,.01,0,.76.34,1.54.67,2.32.98.1.04.2.08.31.12.32.13.63.25.95.37.16.06.32.12.48.18.31.11.62.23.93.34.17.06.34.12.51.18.31.11.62.21.93.32.16.05.32.11.49.16.33.11.65.21.98.31.1.03.2.06.31.09.8.24,1.6.47,2.41.68.02,0,.05.01.07.02h0c5.55,1.45,11.38,2.22,17.38,2.22h61.07,0,91.67,0,428.56c4.18,0,8.2-.71,11.94-2.01.45-.16.9-.33,1.35-.5.29-.11.58-.23.86-.35.39-.16.77-.34,1.15-.51.5-.23,1-.48,1.49-.73,5.69-2.98,10.5-7.42,13.92-12.82,2.12-3.35,4.81-6.22,7.88-8.54.91-.69,1.86-1.33,2.85-1.91.24-.15.49-.29.74-.43,4.93-2.78,10.57-4.31,16.41-4.31h7.71v-1.29c0,8.26,6.69,14.95,14.95,14.95h0c8.26,0,14.95-6.69,14.95-14.95v-88.25c0-8.26-6.69-14.95-14.95-14.95Z"/>
        <path class="cls-50" d="M1157.2,1017.5h-20.39v-464.71c0-3.97-.63-7.88-1.83-11.58-.6-1.85-1.34-3.65-2.22-5.39-2.05-4.05-4.83-7.74-8.26-10.85l-25.65-23.32c-.84-.76-1.64-1.55-2.4-2.38-.76-.82-1.48-1.68-2.17-2.56-1.03-1.33-1.96-2.71-2.8-4.15-.84-1.44-1.59-2.94-2.24-4.48-.43-1.03-.82-2.07-1.17-3.14-.3-.94-.57-1.89-.8-2.86-.14-.59-.27-1.18-.39-1.78,0-.02,0-.05-.01-.07-.12-.61-.22-1.23-.31-1.85l-.93-6.64h5.48c6.25,0,11.32-5.07,11.32-11.32h0c0-6.25-5.07-11.32-11.32-11.32h-.51l-5.93-58.73c-.03-.3-.07-.59-.11-.89-.05-.35-.12-.69-.19-1.03-.11-.52-.24-1.04-.39-1.55-.17-.56-.36-1.1-.57-1.63-.11-.27-.22-.53-.34-.79-.31-.68-.67-1.34-1.05-1.97-.11-.19-.23-.37-.35-.56-.49-.74-1.02-1.44-1.61-2.1-.27-.3-.54-.6-.83-.88,0,0-.01-.01-.02-.02-.01-.01-.02-.02-.03-.03-.55-.54-1.13-1.04-1.74-1.51-.11-.08-.22-.17-.33-.25-.31-.23-.63-.45-.95-.65-.18-.12-.36-.23-.54-.34-2.4-1.43-5.14-2.33-8.06-2.56v-11.22h0v-2.25c0-4.03-3.26-7.29-7.29-7.29h-3.82V113.71c0-16.21-2.43-32.33-7.2-47.82l-3.93-12.75c-.19-.62-1.1-.48-1.1.17v154.39h0s0,145.16,0,145.16h-3.82c-4.03,0-7.29,3.26-7.29,7.29v13.47c-1.57.12-3.08.44-4.52.93-.27.09-.54.19-.8.29-.53.21-1.05.44-1.55.69-.76.38-1.49.81-2.18,1.29-.93.64-1.8,1.35-2.59,2.14-.4.39-.78.81-1.14,1.24-1.45,1.72-2.6,3.71-3.36,5.89-.1.27-.18.55-.27.83-.17.56-.31,1.12-.42,1.7-.11.58-.2,1.17-.26,1.76l-5.53,54.75h0l-.4,3.98h-.51c-6.25,0-11.32,5.07-11.32,11.32h0c0,6.25,5.07,11.32,11.32,11.32h5.48l-.93,6.64c-.09.62-.19,1.24-.31,1.85,0,.02,0,.05-.01.07-.12.6-.24,1.19-.39,1.78-1.8,7.51-5.82,14.33-11.57,19.57l-25.65,23.32c-7.84,7.13-12.3,17.23-12.3,27.82v441.87h0v22.84h-20.39c-9.91,0-17.94,8.03-17.94,17.94s8.03,17.94,17.94,17.94h47.31v11.01s0,0,0,0v254.8h0v8.24h-18.76c-9.91,0-17.94,8.03-17.94,17.94s8.03,17.94,17.94,17.94h30.99s0,0,0,0h125.61c9.91,0,17.94-8.03,17.94-17.94s-8.03-17.94-17.94-17.94h-18.76v-274.05s0,0,0,0h-59.54,106.85c9.91,0,17.94-8.03,17.94-17.94s-8.03-17.94-17.94-17.94ZM974.29,1017.5h16.52-16.52,0Z"/>
        <path class="cls-50" d="M895.13,946.97c-.1-.24-.19-.49-.3-.73-.25-.6-.51-1.19-.79-1.77-.49-1.02-1.04-2.02-1.62-2.99-2.92-4.83-6.94-8.93-11.71-11.95-3.57-2.26-6.6-5.16-8.99-8.5-.52-.72-1-1.47-1.46-2.23-.15-.24-.29-.49-.43-.74-2.78-4.93-4.31-10.57-4.31-16.41v-7.71h-1.29c8.26,0,14.95-6.69,14.95-14.95h0c0-8.26-6.69-14.95-14.95-14.95h-45.17c-3.7-43.63-26.36-81.86-59.7-106.41-20.71-15.25-33.16-39.27-33.16-64.99v-23.06h5.35c10.75,0,19.47-8.72,19.47-19.47v-18.39h8.31c8.32,0,15.07-6.75,15.07-15.07v-42.24c0-8.32-6.75-15.07-15.07-15.07h-287.12c-8.32,0-15.07,6.75-15.07,15.07v42.24c0,8.32,6.75,15.07,15.07,15.07h8.31v18.39c0,10.75,8.71,19.47,19.47,19.47h5.35v23.06c0,25.72-12.44,49.74-33.16,64.99-19.34,14.24-35.08,33.08-45.62,54.9h0s0,0,0,0c-.25.52-.5,1.05-.75,1.57-.05.1-.1.2-.14.3-.22.48-.44.96-.66,1.45-.07.15-.13.3-.2.44-.21.46-.41.92-.61,1.38-.08.18-.16.35-.23.53-.19.44-.38.89-.57,1.33-.08.2-.16.39-.25.59-.18.43-.36.87-.53,1.31-.08.21-.17.42-.25.62-.17.43-.34.86-.51,1.29-.08.22-.17.43-.25.65-.16.43-.32.85-.48,1.28-.08.22-.17.45-.25.67-.16.43-.31.85-.46,1.28-.08.23-.16.46-.24.69-.15.43-.3.86-.44,1.28-.08.23-.15.46-.23.69-.14.43-.29.86-.43,1.29-.07.23-.15.46-.22.69-.14.44-.28.87-.41,1.31-.07.22-.14.45-.2.67-.13.45-.27.89-.4,1.34-.06.21-.12.42-.18.63-.13.46-.27.93-.4,1.4-.04.16-.09.32-.13.48-.48,1.75-.93,3.52-1.34,5.3-.02.09-.04.18-.06.27-.1.44-.2.88-.29,1.32-.06.26-.12.51-.17.77-.09.4-.17.8-.25,1.2-.06.3-.13.6-.19.9-.08.38-.15.77-.22,1.15-.06.32-.12.64-.18.96-.07.37-.13.75-.2,1.12-.06.33-.12.67-.18,1-.06.37-.12.73-.18,1.1-.06.34-.11.69-.17,1.03-.06.36-.11.72-.16,1.08-.05.35-.1.71-.15,1.06-.05.36-.1.71-.15,1.07-.05.36-.09.72-.14,1.08-.04.35-.09.71-.13,1.06-.04.37-.09.73-.13,1.1-.04.35-.08.7-.11,1.05-.04.38-.08.75-.11,1.13-.03.35-.07.69-.1,1.04-.03.38-.07.77-.1,1.15-.03.34-.06.68-.08,1.03-.03.39-.05.79-.08,1.18-.02.33-.04.67-.06,1-.02.41-.04.82-.07,1.23-.02.32-.03.64-.05.97-.02.43-.03.86-.05,1.29-.01.3-.02.61-.03.91-.01.48-.02.97-.03,1.45,0,.25-.01.51-.02.76-.01.71-.02,1.43-.02,2.15,0,.02,0,.05,0,.07v54.24c-4.95-25.22-7.46-50.9-7.46-76.66v-72.78c0-1.26-.16-2.49-.46-3.66-.08-.31-.17-.62-.27-.92-.31-.93-.7-1.82-1.18-2.65-.27-.47-.56-.92-.87-1.35-.2-.27-.4-.53-.61-.79-2.68-3.21-6.71-5.25-11.22-5.25-.41,0-.82.02-1.22.05-.03,0-.06,0-.09,0-7.47.66-13.32,6.93-13.32,14.56v72.78c0,38.79-5.67,77.37-16.84,114.51h0c-11.63,38.7-19.07,78.54-22.18,118.83-.8,10.37-1.49,20.76-2.05,31.15h0s0,.02,0,.03c-.34,6.23-.64,12.47-.9,18.71,0,.19-.02.38-.02.58-.25,6.11-.46,12.22-.63,18.33-.01.37-.02.73-.03,1.1-.07,2.66-.14,5.33-.19,7.99,0,.42-.02.84-.03,1.26-.06,2.93-.11,5.85-.15,8.78,0,.42,0,.83-.02,1.25-.03,2.45-.06,4.91-.08,7.36,0,.74-.01,1.48-.02,2.22-.02,2.84-.03,5.69-.03,8.53v13.36h-116.2c-12.93,0-24.29,6.76-30.72,16.93-6.02,9.52-16.61,15.19-27.87,15.19h-7.71v1.29c0-8.26-6.69-14.95-14.95-14.95h0c-8.26,0-14.95,6.7-14.95,14.95v88.25c0,8.26,6.69,14.95,14.95,14.95h0c8.26,0,14.95-6.69,14.95-14.95v1.29h7.71c5.83,0,11.48,1.52,16.41,4.31.25.14.49.28.74.43.98.59,1.93,1.23,2.84,1.91,3.08,2.32,5.76,5.19,7.88,8.54,3.31,5.23,7.92,9.56,13.38,12.53.67.36,1.34.7,2.03,1.03.38.18.77.35,1.15.51.29.12.57.24.86.35.39.15.78.3,1.17.44,3.79,1.34,7.87,2.08,12.12,2.08h541.91s0,0,.01,0h0c1.15,0,2.3-.03,3.44-.1.66.06,1.32.1,1.99.1h78.52s0,0,0,0h35.31c6.76,0,12.77-3.26,16.53-8.29.79-1.06,1.48-2.2,2.06-3.4.25-.52.47-1.05.68-1.59.87-2.29,1.36-4.76,1.36-7.36h0v-382.44h0c0-4.18-.71-8.2-2.01-11.94-.16-.45-.33-.9-.5-1.35Z"/>
      </g>
    </g>
  </g>
  <g>
    <path class="cls-23" d="M918.6,160.64s-4.45,93.21-130.91,139.67l-12.78-6.01,2.89-5.62h0s97.54-176.89,97.54-176.89c12.08,4.59,24.25,10.5,35.68,18.13,0,0-8.02,17.82,7.57,30.72Z"/>
    <path class="cls-64" d="M774.88,90.02s69.82-1.84,123.37,33.89c0,0-8.01,17.81,7.57,30.72,0,0-4.45,93.21-130.91,139.66,0,0-73.91-71.54-31.61-186.86,0,0,22.67,5.29,31.58-17.42Z"/>
    <polygon class="cls-34" points="859.94 182.94 827.15 173.64 836.45 140.85 808.85 133.03 799.55 165.81 766.77 156.51 758.94 184.11 791.73 193.41 782.43 226.19 810.03 234.02 819.33 201.24 852.11 210.54 859.94 182.94"/>
  </g>
  <g>
    <path class="cls-55" d="M759.26,574.01c-40.33-29.39-136.66,37.64,21.62,122.6,119.67-133.97,6.23-164.01-21.62-122.6Z"/>
    <path class="cls-34" d="M709.18,642.88c8.62-1.87,17.26-3.64,25.91-5.38l-.53.35c3.92-6.87,7.96-13.66,12.06-20.41l1.81-2.99,1.48,3.31c2.44,5.47,4.91,10.94,7.25,16.45,2.4,5.49,4.7,11.02,6.98,16.56l-4.79-.12c3.41-7.52,6.98-14.97,10.5-22.44,3.56-7.45,7.17-14.88,10.85-22.28l1.74-3.5,2,3.23c4.49,7.24,8.96,14.49,13.35,21.8l-1.48-.64c5.53-.84,11.09-1.51,16.63-2.27,5.54-.75,11.09-1.48,16.65-2.12-5.44,1.31-10.91,2.52-16.37,3.71-5.47,1.18-10.92,2.45-16.4,3.55l-.9.18-.58-.83c-4.89-6.98-9.7-14.01-14.49-21.06l3.74-.26c-3.3,7.57-6.66,15.12-10.07,22.64-3.45,7.5-6.85,15.03-10.42,22.48l-2.58,5.39-2.21-5.51c-2.23-5.56-4.44-11.13-6.55-16.74-2.17-5.58-4.22-11.22-6.29-16.84l3.29.32c-4.54,6.46-9.13,12.9-13.84,19.25l-.23.3-.31.05c-8.72,1.32-17.44,2.61-26.18,3.8Z"/>
  </g>
  <g>
    <circle class="cls-55" cx="144.96" cy="468.6" r="69.94"/>
    <g>
      <rect class="cls-34" x="133.38" y="425.13" width="28.69" height="86.08" transform="translate(615.9 320.45) rotate(90)"/>
      <rect class="cls-34" x="133.38" y="425.13" width="28.69" height="86.08"/>
    </g>
  </g>
  <g>
    <rect class="cls-62" x="72.16" y="98.44" width="20.83" height="62.49" transform="translate(212.26 47.11) rotate(90)"/>
    <rect class="cls-62" x="72.16" y="98.44" width="20.83" height="62.49"/>
  </g>
  <g>
    <rect class="cls-62" x="1822.06" y="103.55" width="20.83" height="62.49" transform="translate(1967.27 -1697.68) rotate(90)"/>
    <rect class="cls-62" x="1822.06" y="103.55" width="20.83" height="62.49"/>
  </g>
  <g>
    <rect class="cls-62" x="1891.46" y="427.14" width="20.83" height="62.49" transform="translate(2360.26 -1443.49) rotate(90)"/>
    <rect class="cls-62" x="1891.46" y="427.14" width="20.83" height="62.49"/>
  </g>
  <g>
    <g>
      <rect class="cls-69" x="1206.66" y="758.27" width="496.43" height="52.07"/>
      <g>
        <polygon class="cls-69" points="1688.44 810.35 1688.44 1317.81 1644.46 1317.81 1644.46 1290.04 1265.09 1290.04 1265.09 1317.81 1221.28 1317.81 1221.28 810.35 1688.44 810.35"/>
        <rect class="cls-76" x="1221.28" y="810.35" width="467.13" height="10.41"/>
      </g>
      <g>
        <g>
          <rect class="cls-76" x="1268" y="855.82" width="372.32" height="112.82"/>
          <rect class="cls-49" x="1264.19" y="845.41" width="379.96" height="112.82"/>
        </g>
        <g>
          <rect class="cls-76" x="1268" y="998.16" width="372.32" height="112.82"/>
          <rect class="cls-49" x="1264.19" y="987.74" width="379.96" height="112.82"/>
        </g>
        <g>
          <rect class="cls-76" x="1268" y="1140.49" width="372.32" height="112.82"/>
          <rect class="cls-49" x="1264.19" y="1130.07" width="379.96" height="112.82"/>
        </g>
      </g>
    </g>
    <g>
      <g>
        <g>
          <g>
            <path class="cls-34" d="M1328.44,732.97v-78.98h21.7v78.98c0,5.28-4.27,9.55-9.55,9.55h-2.6c-5.28,0-9.55-4.27-9.55-9.55Z"/>
            <path class="cls-34" d="M1324.52,651.49h0c0-1.35,1.11-2.5,2.5-2.5h24.54c1.35,0,2.5,1.11,2.5,2.5h0c0,1.35-1.11,2.5-2.5,2.5h-24.54c-1.39-.03-2.5-1.15-2.5-2.5Z"/>
          </g>
          <path class="cls-68" d="M1331.91,731.68v-51.66h14.75v51.66c0,4.06-3.3,7.36-7.36,7.36h0c-4.1,0-7.39-3.3-7.39-7.36Z"/>
        </g>
        <g>
          <g>
            <path class="cls-34" d="M1371.84,732.97v-78.98h21.7v78.98c0,5.28-4.27,9.55-9.55,9.55h-2.6c-5.28,0-9.55-4.27-9.55-9.55Z"/>
            <path class="cls-34" d="M1367.91,651.49h0c0-1.35,1.11-2.5,2.5-2.5h24.54c1.35,0,2.5,1.11,2.5,2.5h0c0,1.35-1.11,2.5-2.5,2.5h-24.54c-1.39-.03-2.5-1.15-2.5-2.5Z"/>
          </g>
          <path class="cls-68" d="M1375.31,731.68v-51.66h14.75v51.66c0,4.06-3.3,7.36-7.36,7.36h0c-4.1,0-7.39-3.3-7.39-7.36Z"/>
        </g>
        <g>
          <g>
            <path class="cls-34" d="M1417.83,732.97v-78.98h21.7v78.98c0,5.28-4.27,9.55-9.55,9.55h-2.6c-5.28,0-9.55-4.27-9.55-9.55Z"/>
            <path class="cls-34" d="M1413.91,651.49h0c0-1.35,1.11-2.5,2.5-2.5h24.54c1.35,0,2.5,1.11,2.5,2.5h0c0,1.35-1.11,2.5-2.5,2.5h-24.54c-1.39-.03-2.5-1.15-2.5-2.5Z"/>
          </g>
          <path class="cls-68" d="M1421.31,731.68v-51.66h14.75v51.66c0,4.06-3.3,7.36-7.36,7.36h0c-4.1,0-7.39-3.3-7.39-7.36Z"/>
        </g>
        <g>
          <g>
            <path class="cls-34" d="M1464.7,732.97v-78.98h21.7v78.98c0,5.28-4.27,9.55-9.55,9.55h-2.6c-5.28,0-9.55-4.27-9.55-9.55Z"/>
            <path class="cls-34" d="M1460.78,651.49h0c0-1.35,1.11-2.5,2.5-2.5h24.54c1.35,0,2.5,1.11,2.5,2.5h0c0,1.35-1.11,2.5-2.5,2.5h-24.54c-1.39-.03-2.5-1.15-2.5-2.5Z"/>
          </g>
          <path class="cls-68" d="M1468.17,731.68v-51.66h14.75v51.66c0,4.06-3.3,7.36-7.36,7.36h0c-4.1,0-7.39-3.3-7.39-7.36Z"/>
        </g>
        <g>
          <g>
            <path class="cls-34" d="M1515.04,732.97v-78.98h21.7v78.98c0,5.28-4.27,9.55-9.55,9.55h-2.6c-5.28,0-9.55-4.27-9.55-9.55Z"/>
            <path class="cls-34" d="M1511.11,651.49h0c0-1.35,1.11-2.5,2.5-2.5h24.54c1.35,0,2.5,1.11,2.5,2.5h0c0,1.35-1.11,2.5-2.5,2.5h-24.54c-1.39-.03-2.5-1.15-2.5-2.5Z"/>
          </g>
          <path class="cls-68" d="M1518.51,731.68v-51.66h14.75v51.66c0,4.06-3.3,7.36-7.36,7.36h0c-4.1,0-7.39-3.3-7.39-7.36Z"/>
        </g>
      </g>
      <g>
        <rect class="cls-35" x="1306.99" y="658.54" width="267.31" height="6.94"/>
        <rect class="cls-41" x="1293" y="740.92" width="298.55" height="17.36"/>
        <g>
          <rect class="cls-41" x="1304.84" y="648.99" width="7.6" height="100.57"/>
          <rect class="cls-41" x="1569.75" y="648.99" width="7.6" height="100.57"/>
        </g>
      </g>
    </g>
  </g>
  <g>
    <g>
      <g>
        <g>
          <g>
            <rect class="cls-54" x="365.76" y="1254.46" width="255.75" height="23.78"/>
            <g>
              <path class="cls-29" d="M409.53,1034.29c0,.59-.07,1.22-.14,1.81l-3.96,32.77-35.37,291.99c-.94,7.85-7.88,13.4-15.52,12.39-7.05-.9-12.22-7.05-12.22-14.13,0-.59.07-1.22.14-1.81l34.92-288.45,4.37-36.28c.97-7.81,7.88-13.4,15.52-12.39,7.12.87,12.25,7.01,12.25,14.09Z"/>
              <path class="cls-54" d="M409.53,1034.29c0,.59-.07,1.22-.14,1.81l-3.96,32.77h-28.02l4.37-36.28c.97-7.81,7.88-13.4,15.52-12.39,7.08.87,12.22,7.01,12.22,14.09Z"/>
            </g>
            <g>
              <path class="cls-29" d="M511.04,1031.83v327.23c0,7.92-6.21,14.27-13.89,14.27-3.82,0-7.29-1.6-9.82-4.2-2.5-2.57-4.06-6.11-4.06-10.1v-327.23c0-7.92,6.25-14.27,13.89-14.27,3.85,0,7.32,1.6,9.82,4.2s4.06,6.18,4.06,10.1Z"/>
              <path class="cls-54" d="M506.94,1021.76c2.53,2.57,4.06,6.14,4.06,10.1v37.01h-27.81v-37.01c0-7.92,6.25-14.27,13.89-14.27,3.89-.03,7.36,1.56,9.86,4.17Z"/>
            </g>
            <g>
              <path class="cls-29" d="M650.8,1359.05c0,7.15-5.14,13.26-12.19,14.16-7.64.97-14.58-4.58-15.52-12.39l-35.37-291.99-3.96-32.77c-.07-.59-.14-1.22-.14-1.81,0-7.08,5.17-13.19,12.22-14.13,7.64-.97,14.55,4.58,15.52,12.39l4.37,36.28,34.92,288.45c.1.66.14,1.22.14,1.81Z"/>
              <path class="cls-54" d="M615.77,1068.84h-28.02l-3.96-32.77c-.07-.59-.14-1.22-.14-1.81,0-7.08,5.17-13.19,12.22-14.13,7.64-.97,14.55,4.58,15.52,12.39l4.37,36.31Z"/>
            </g>
          </g>
          <g>
            <path class="cls-46" d="M676.11,994.93v9.27c0,16.21-13.12,29.33-29.33,29.33h-262.59c-16.21,0-29.33-13.12-29.33-29.33v-9.27c0-16.21,13.12-29.33,29.33-29.33h262.59c16.21-.03,29.33,13.12,29.33,29.33Z"/>
            <path class="cls-58" d="M676.11,994.93v9.27c0,16.21-13.12,29.33-29.33,29.33h-238.35c-16.21,0-29.33-13.12-29.33-29.33v-9.27c0-16.21,13.12-29.33,29.33-29.33h238.35c16.21-.03,29.33,13.12,29.33,29.33Z"/>
          </g>
        </g>
        <g>
          <path class="cls-20" d="M401.89,410.25c-3.3,6.73-6.63,13.5-9.58,20-2.01,11.59-.83,23.47,0,35.24.83,11.77,1.32,23.75-1.98,35.1-3.3,11.35-10.97,22.04-22.29,26.38-7.36,2.81-16.14,3.02-21.84,8.37-6.46,6.08-6.01,16.28-3.65,24.68,1.98,7.05,5.1,14.06,10.69,18.95,5.59,4.89,14.58,8.09,20.69,4.55,6.04-3.54,14.06-.97,18.43,4.37s6.42,12.25,10.73,17.67c6.11,7.71,16.35,11.7,26.38,11.94s20.72-1.18,27.43-5.35c14.34-8.99,32.22-14.96,46.9-6.53,7.74,4.44,13.85,11.53,22.22,14.72,7.12,2.71,15.41,2.19,22.11-1.35,6.7-3.54,9.27-11.11,13.47-16.91,7.71-10.62,26.38-2.05,39.3-5.55,13.82-3.78,23.12-18.95,19.89-32.53-3.23-13.57-18.26-18.4-31.66-20.41-9.2-1.39-12.98-13.09-15.1-21.84-2.12-8.78-1.74-17.91-1.35-26.94.8-18.36,9.16-61.2,3.85-66.97-2.78-3.02-13.19-10.66-16.98-12.36-17.43-7.95-34.85-15.93-52.28-23.88-15.86-7.26-32.49-14.65-50.02-14.16-17.5.38-42.8,7.22-55.37,32.81Z"/>
          <g>
            <path class="cls-71" d="M462.3,575.6s-77.35,12.22-85.54,39.61c-8.19,27.39,38.78,219.05,38.78,219.05l173.78-10.62s12.64-220.93-15-234.78c-27.63-13.85-112.03-13.26-112.03-13.26Z"/>
            <g>
              <path class="cls-52" d="M529.75,583.2s-11.28,38.43-31.76,46.83c-20.45,8.44-65.23-42.84-65.23-42.84,9.03-5.73,12.43-19.51,13.54-32.08,1.11-12.78-.14-24.23-.14-24.23l62.14,11.94c-1.6,19.23,4.06,29.33,10,34.65,5.62,5.07,11.46,5.73,11.46,5.73Z"/>
              <path class="cls-45" d="M518.29,577.51c-29.51,3.89-56.24-10.9-72-22.36,1.11-12.78-.14-24.23-.14-24.23l62.14,11.94c-1.63,19.2,4.06,29.33,10,34.65Z"/>
            </g>
          </g>
          <g>
            <g>
              <g>
                <path class="cls-65" d="M698.05,1303.79c-6.7,11.14-123-60.54-123-72.9,0-8.05,15.17-19.72,25.72-26.8,5.66-3.82,9.96-6.35,9.96-6.35l27.15-12.46,12.22,6.56c17.81,30.69,34.82,62.66,43.32,84.91,5.07,13.12,7.12,22.91,4.62,27.04Z"/>
                <path class="cls-45" d="M693.47,1276.71c-33.33,1.39-77.38-52.52-92.65-72.66,5.66-3.82,9.96-6.35,9.96-6.35l27.15-12.46,12.22,6.56c17.84,30.69,34.82,62.66,43.32,84.91Z"/>
              </g>
              <path class="cls-31" d="M578.39,840.03s211.69,26.8,218.88,80.99c7.19,54.16-132.79,293.31-132.79,293.31l-50.34-13.12,65.68-213.78-168.54-71.51,33.57-75.89h33.53Z"/>
            </g>
            <g>
              <g>
                <path class="cls-57" d="M646.6,1309.97c-6.7,11.14-123-60.54-123-72.9,0-8.05,15.17-19.72,25.72-26.8,5.66-3.82,9.96-6.35,9.96-6.35l27.15-12.46,12.22,6.56c17.81,30.69,34.82,62.66,43.32,84.91,5.07,13.12,7.12,22.91,4.62,27.04Z"/>
                <path class="cls-52" d="M642.02,1282.89c-33.33,1.39-77.38-52.52-92.65-72.66,5.66-3.82,9.96-6.35,9.96-6.35l27.15-12.46,12.22,6.56c17.84,30.69,34.82,62.66,43.32,84.91Z"/>
              </g>
              <g>
                <path class="cls-44" d="M399.85,821.87s-73.35,145.04,55.72,160.7c93.77,11.39,155.91,9.1,157.85,14.3,3.19,8.37-60.99,210.89-60.99,210.89l63.22,20s130.84-281.02,123.72-305.49c-5.87-20.13-186.42-50.86-186.42-50.86,15.21-7.22,26.38-33.5,24.75-67.38l-177.85,17.84Z"/>
                <g>
                  <path class="cls-14" d="M420.19,809.3s-42.07,92.59-8.4,130.15c39.68,44.26,213.22,29.99,225.3,45.65,9.69,12.53-67.04,217.25-67.04,217.25"/>
                  <line class="cls-14" x1="557.52" y1="1199.26" x2="618.69" y2="1217.9"/>
                </g>
              </g>
            </g>
          </g>
          <g>
            <path class="cls-45" d="M559.46,464.18c14.92-1.69,28.01,5.77,29.24,16.67,1.23,10.9-9.86,21.1-24.77,22.79-14.92,1.69-28.01-5.77-29.24-16.67-1.23-10.9,9.86-21.1,24.77-22.79Z"/>
            <g>
              <path class="cls-52" d="M411.79,463.3c0-51.48,32.7-93.21,76.62-93.21s79.53,41.73,79.53,93.21-22.46,95.78-63.81,97.38c-41.66,1.6-92.34-45.93-92.34-97.38Z"/>
              <path class="cls-45" d="M416.06,475.24c22.08-10.24,40.27-28.57,48.43-50.96,11.42,12.88,28.08,20.17,44.99,23.33s34.26,2.57,50.51,2.12c5.28,4.48,8.96,10.8,10.21,17.6,1.84-15.27.21-31-4.76-45.58-43.74-13.33-87.2-27.49-130.42-42.46-6.46,30.79-12.91,61.58-18.95,95.95Z"/>
            </g>
            <g>
              <path class="cls-66" d="M457.27,400.71c9.41,17.74,27.6,29.54,46.73,35.65,19.13,6.08,39.47,7.08,59.81,7.67,3.19,11.18,3.85,24.27,3.85,35.72,7.01-16.25,10.62-30.1,11.28-43.57.17-3.89.17-7.85.07-12.01-1.01-28.33-12.74-44.44-28.47-56.52-15.76-12.08-35.1-17.22-54.95-17.22s-32.08,4.44-39.54,12.19c-2.64,2.74-4.65,5.87-6.11,9.37-3.19,7.5.38,15.66,7.32,28.71Z"/>
              <path class="cls-66" d="M391.86,481.45c-.66-25.17-2.26-68.25,7.88-88.84,6.63-13.47,19.16-24.68,34.06-26.7,14.89-1.98,31.35,7.22,34.78,21.84-6.6,33.81-23.57,64.85-47.63,89.18-8.33,4.03-20.62,6.7-29.09,4.51Z"/>
              <path class="cls-75" d="M456.02,362.66c28.78-7.78,60.99-.97,84.77,17.08,18.43,13.99,31.66,34.23,38.15,56.48.17-3.89.17-7.85.07-12.01-1.01-28.33-12.74-44.44-28.47-56.52-15.76-12.08-35.1-17.22-54.95-17.22s-32.11,4.44-39.58,12.19Z"/>
            </g>
            <path class="cls-52" d="M382.58,482.24c2.72-10.62,16.71-16.22,31.26-12.5,14.54,3.72,24.13,15.35,21.41,25.98-2.72,10.62-16.71,16.22-31.26,12.5-14.54-3.72-24.13-15.35-21.41-25.98Z"/>
            <g>
              <ellipse class="cls-51" cx="491.36" cy="488.99" rx="4.13" ry="6.6"/>
              <ellipse class="cls-51" cx="548.81" cy="489.02" rx="4.13" ry="6.6"/>
              <path class="cls-16" d="M536.73,458.26c7.08-2.4,17.15-1.87,24.13,2.92"/>
              <path class="cls-16" d="M494.9,457.54c-7.74-3.44-21.94-2.71-28.64,4.93"/>
              <path class="cls-15" d="M520.76,485c1.87,7.01.49,15.73-1.77,21.21"/>
              <path class="cls-15" d="M515.8,526.62c-9.16,1.81-25.76-3.44-30.27-11.07"/>
            </g>
          </g>
          <g>
            <g>
              <path class="cls-52" d="M548.81,606.6l31-18.71s26.14,2.22,43.85,34.75c17.6,32.35,50.75,136.95,61.2,141.57s137.82,6.25,137.82,6.25l1.74,37.32s-156.01,24.75-174.62,14.51c-18.61-10.28-78.84-130.88-78.84-130.88l-22.15-84.81Z"/>
              <path class="cls-43" d="M546.9,602.4l5.97-20.9s34.23,1.46,51.73,15.17c17.5,13.71,31.83,51,31.83,51l-44.5,71.86-45.03-117.13Z"/>
              <path class="cls-48" d="M599.7,746.5s47.8-41.28,55.16-51.59c3.65-5.1,29.51,54.99,25.13,62.35-6.98,11.73-50.55,39.92-52.98,38.29-2.43-1.63-27.32-49.05-27.32-49.05Z"/>
              <path class="cls-37" d="M587.17,708.91c14.41-22.88,28.81-45.72,43.19-68.6.8-1.25,1.63-2.57,2.88-3.4,3.58-2.4,8.78.56,10.24,4.58,1.49,4.06.42,8.54-.69,12.71,4.62-.73,8.78,3.78,9.34,8.4.59,4.65-1.42,9.2-3.61,13.33-13.33,25.24-35.69,45.55-62.07,56.41-1.22-7.85-3.61-16.56.73-23.43Z"/>
              <g>
                <path class="cls-52" d="M802.99,776.29c17.84-12.53,52.35-37.39,54.95-38.57,3.05-1.39,24.02-1.49,35.44,1.94,11.42,3.44,22.04,11.32,26.18,22.56,1.15,3.16,1.46,7.36-1.32,9.2-1.81,1.22-4.3.8-6.18-.31s-3.26-2.88-4.76-4.48c-7.64-8.3-14.55-11.56-27.08-12.25,14.86,2.26,24.3,11.42,28.74,25.86.87,2.88,1.22,6.53-1.11,8.4-1.84,1.46-4.62,1.08-6.6-.21-1.98-1.28-3.33-3.3-4.83-5.14-5.45-6.94-12.74-12.39-20.9-15.66,11.35,4.83,19.86,15.9,21.66,28.19.28,1.81.38,3.71-.31,5.38s-2.46,3.02-4.24,2.71c-1.39-.24-2.4-1.35-3.33-2.4-6.18-6.98-11.04-14.41-19.27-19.41,7.5,10,13.82,26.24,12.25,30.48-.49,1.28-3.68,3.51-7.26-.03-4.06-4.06-6.91-11-13.23-18.75-10.8,12.05-28.26,17.64-43.98,14.09-5.1-10.69-10.1-21.42-14.86-31.63Z"/>
                <path class="cls-17" d="M835.38,760.39c12.67-4.55,25.59-8.44,38.71-11.56,1.74-.42,3.54-.83,5.31-.62,1.77.21,3.58,1.15,4.34,2.74.8,1.67.28,3.71-.8,5.21s-2.64,2.57-4.24,3.54c-5.52,3.44-11.39,6.35-17.57,9.3-1.22,9.3-8.05,17.6-16.94,20.55"/>
              </g>
            </g>
            <path class="cls-57" d="M519.34,578.14c7.43,6.46,12.25,42.84,16.07,65.96,5.73,34.65,34.89,185.28,36.62,195.93,3.09,18.82,62.66,17.53,65.06,7.71.45-1.81-17.39-10.1-20.24-22.11-2.53-10.76-22.32-220.48-31.87-231.52-12.6-14.58-68.04-18.05-65.65-15.97Z"/>
          </g>
          <g>
            <path class="cls-57" d="M437.58,578.14c6.21,2.22,25.72,43.67,34.99,81.62,19.37,79.25,7.85,196.94,0,212.49-7.85,15.55-83.87,22.39-96.79,18.26-7.5-2.4-15.66-239.64-10.48-269.42,3.47-19.86,70.4-43.6,72.28-42.94Z"/>
            <path class="cls-52" d="M551.48,843.15c16.04-5.87,62.45-18.09,68.87-17.43,6.46.66,13.16,2.99,17.22,8.4,2.6,3.47,3.89,7.88,5.1,12.15,1.98,6.94,3.96,13.89,5.94,20.83.69,2.43,1.39,4.96,1.04,7.46-.35,2.5-2.08,5-4.44,5.17-3.33.28-5.42-3.71-6.63-7.08-3.12-8.64-6.25-17.29-9.34-25.76,2.05,10.66,4.06,21.35,6.11,32.01.49,2.53.97,5.14.38,7.64-.59,2.5-2.53,4.83-4.93,4.79-3.54-.07-5.24-4.62-6.04-8.37-1.77-8.33-3.58-16.7-6.32-24.96,3.68,11.73,4.24,24.58,1.53,36.62-.42,1.84-.97,3.78-2.22,5.1-1.25,1.32-3.47,1.81-4.79.56-1.01-.94-1.22-2.53-1.35-3.96-1.08-10.76-2.15-21.56-3.23-32.32,1.04,11.35,2.05,23.05-1.15,33.92-.56,1.94-1.32,3.89-2.74,5.21-1.42,1.32-3.71,1.74-5.17.49-1.42-1.22-1.6-3.4-1.67-5.35-.24-6.77-.49-13.54-.52-21.45-5.97,6.98-14.23,11.63-22.95,12.98-8.71,1.35-17.84-.66-26.42-3.4.76-12.6,1.49-25.24,3.71-43.26Z"/>
            <path class="cls-57" d="M432.76,648.99c-4.86-22.46-24.99-58.88-41.42-51.34-9.41,4.34-36.52,13.4-36.52,72.8,0,80.3,10.55,185.8,36.52,203.47,13.19,8.99,157.47,17.81,157.47,17.81l10.55-51.69s-106.33-19.72-111.23-34.3c-6.91-20.59-2.46-96.99-15.38-156.74Z"/>
            <g>
              <path class="cls-5" d="M420.19,636.67c17.84,60.34,21.59,162.99,24.23,169.17,2.4,5.62,15.97,7.98,26.63,11.63"/>
              <path class="cls-5" d="M440.57,883.11c-19.79-1.98-44.37-5.83-49.85-9.93-6.46-4.83-14.34-28.43-19.89-44.54"/>
              <path class="cls-5" d="M437.69,736.47c7.12-8.92,10.03-23.71,10.62-41.73"/>
            </g>
          </g>
        </g>
      </g>
      <g>
        <g>
          <g>
            <g>
              <rect class="cls-54" x="964.52" y="1248.28" width="255.75" height="23.16"/>
              <g>
                <path class="cls-29" d="M1008.33,1033.84c0,.59-.07,1.18-.14,1.77l-3.96,31.9-35.37,284.35c-.94,7.64-7.88,13.05-15.52,12.08-7.05-.9-12.22-6.87-12.22-13.75,0-.59.07-1.18.14-1.77l34.92-280.95,4.37-35.34c.97-7.6,7.88-13.05,15.52-12.08,7.08.94,12.25,6.91,12.25,13.78Z"/>
                <path class="cls-54" d="M1008.33,1033.84c0,.59-.07,1.18-.14,1.77l-3.96,31.9h-28.02l4.37-35.34c.97-7.6,7.88-13.05,15.52-12.08,7.05.9,12.22,6.87,12.22,13.75Z"/>
              </g>
              <g>
                <path class="cls-29" d="M1109.81,1031.45v318.69c0,7.71-6.21,13.89-13.89,13.89-3.82,0-7.29-1.53-9.82-4.06s-4.06-5.97-4.06-9.82v-318.69c0-7.71,6.25-13.89,13.89-13.89,3.85,0,7.32,1.53,9.82,4.06,2.53,2.53,4.06,6.01,4.06,9.82Z"/>
                <path class="cls-54" d="M1105.75,1021.62c2.53,2.5,4.06,6.01,4.06,9.82v36.07h-27.81v-36.07c0-7.71,6.25-13.89,13.89-13.89,3.89,0,7.36,1.56,9.86,4.06Z"/>
              </g>
              <g>
                <path class="cls-29" d="M1249.61,1350.17c0,6.94-5.14,12.91-12.19,13.82-7.64.97-14.58-4.44-15.52-12.08l-35.37-284.35-3.96-31.9c-.07-.59-.14-1.18-.14-1.77,0-6.87,5.17-12.84,12.22-13.75,7.64-.97,14.55,4.48,15.52,12.08l4.37,35.34,34.92,280.95c.1.56.14,1.11.14,1.67Z"/>
                <path class="cls-54" d="M1214.58,1067.52h-28.02l-3.96-31.9c-.07-.59-.14-1.18-.14-1.77,0-6.87,5.17-12.84,12.22-13.75,7.64-.97,14.55,4.48,15.52,12.08l4.37,35.34Z"/>
              </g>
            </g>
            <g>
              <path class="cls-46" d="M1274.91,994.93v9.27c0,16.21-13.12,29.33-29.33,29.33h-262.59c-16.21,0-29.33-13.12-29.33-29.33v-9.27c0-16.21,13.12-29.33,29.33-29.33h262.59c16.21-.03,29.33,13.12,29.33,29.33Z"/>
              <path class="cls-58" d="M1274.91,994.93v9.27c0,16.21-13.12,29.33-29.33,29.33h-238.32c-16.21,0-29.33-13.12-29.33-29.33v-9.27c0-16.21,13.12-29.33,29.33-29.33h238.32c16.21-.03,29.33,13.12,29.33,29.33Z"/>
            </g>
          </g>
          <g>
            <g>
              <g>
                <g>
                  <path class="cls-78" d="M930.99,575.6c5.28-8.64.14-19.89,1.81-29.89.49-2.78,1.6-5.59,3.82-7.36s5.73-2.01,7.74-.03c2.46,2.4,1.63,6.42,1.6,9.86-.07,6.18,2.88,11.91,4.17,17.95,3.12,14.65-4.65,26.7-12.08,39.33-9.34,6.46-21.91,11-29.75,11.77-4.93.49-30.17-13.43-40.03-43.36-4.96-15-4.37-21.21-2.71-23.26s4.93-3.02,7.05-1.42c1.28.94,1.87,2.53,2.4,4.03,3.16,8.99,6.28,17.98,9.37,27.32-12.19-11.39-18.99-28.29-18.02-44.96.17-3.19,1.15-7.05,4.2-7.98,1.94-.62,4.13.28,5.59,1.74,1.46,1.46,2.36,3.33,3.23,5.21,4.37,9.48,8.78,18.92,14.93,30.17-11.14-10.55-15.9-27.36-11.94-42.18.66-2.5,2.15-5.42,4.76-5.45,2.64-.03,4.2,2.88,5.14,5.38,4.44,11.91,8.89,23.85,13.33,35.76-6.35-9.89-9.06-22.08-7.5-33.74.56-4.24,2.71-9.34,7.01-9.51,2.43-.1,4.69,1.56,5.97,3.65s1.8,4.51,2.4,6.91c3.33,13.61,9.37,26.52,17.53,50.09Z"/>
                  <path class="cls-1" d="M868.22,549.5c3.96-1.08,6.73.31,8.26,6.04,2.15,8.09,7.88,26.83,13.78,31"/>
                </g>
                <polygon class="cls-78" points="939.29 598.06 953.83 631.98 915.37 655.27 898.25 610 939.29 598.06"/>
              </g>
              <g>
                <path class="cls-59" d="M937.69,558.14c-2.78-15.52-14.48-26.87-27.84-28.29l-.21-1.08s-6.98,1.25-9.3,1.77c-15.21,3.4-24.61,20.45-21.49,38.08,3.16,17.64,17.88,30.34,33.33,28.29,2.36-.31,9.34-1.56,9.34-1.56l-.21-1.08c12.08-5.9,19.16-20.59,16.39-36.14Z"/>
                <path class="cls-24" d="M909.07,528.88c16.23-2.9,32.05,9.68,35.34,28.08,3.28,18.4-7.22,35.67-23.45,38.57-16.23,2.9-32.05-9.68-35.34-28.08-3.28-18.4,7.22-35.67,23.45-38.57Z"/>
                <path class="cls-71" d="M937.58,558.17c-2.53-14.13-14.72-23.81-27.22-21.59-.21.03-.45.07-.66.14-12.12,2.53-19.89,15.62-17.39,29.51,2.5,13.92,14.27,23.5,26.56,21.7.21,0,.45-.07.66-.1,12.46-2.19,20.59-15.48,18.05-29.65Z"/>
              </g>
            </g>
            <path class="cls-34" d="M1057.28,589l-23.68-18.02s-15.45,8.75-23.68,27.04c-8.23,18.29-19.13,79.36-19.13,79.36l-44.23-73.46-56.34,39.99s62.49,158.16,100.12,160.07c37.63,1.91,64.12-32.94,64.12-32.94l2.81-182.05Z"/>
          </g>
          <g>
            <g>
              <polygon class="cls-52" points="870.65 1272.47 877.84 1317.78 907.49 1329.82 941.54 1313.54 935.36 1268.9 870.65 1272.47"/>
              <g>
                <path class="cls-27" d="M960.71,1373.36l-153.68-2.22s-1.04-3.19-1.46-7.81c-.62-7.26.38-17.91,9.51-25.06,12.91-10.03,33.43-11.42,46.76-16.59,7.98-3.09,12.81-10.97,12.81-10.97l21.87,1.25s1.81,12.19,9.93,11.46c8.12-.73,34.96-13.89,34.96-13.89,13.89,23.75,17.95,42.91,19.06,53.81.62,6.42.24,10.03.24,10.03Z"/>
                <path class="cls-73" d="M960.71,1373.36l-153.68-2.22s-1.04-3.19-1.46-7.81h154.86c.66,6.42.28,10.03.28,10.03Z"/>
              </g>
            </g>
            <g>
              <g>
                <polygon class="cls-52" points="1054.44 1272.47 1061.62 1317.78 1091.27 1329.82 1125.32 1313.54 1119.15 1268.9 1054.44 1272.47"/>
                <g>
                  <path class="cls-27" d="M1144.49,1373.36l-153.68-2.22s-1.04-3.19-1.46-7.81c-.62-7.26.38-17.91,9.51-25.06,12.91-10.03,33.43-11.42,46.76-16.59,7.98-3.09,12.81-10.97,12.81-10.97l21.87,1.25s1.81,12.19,9.93,11.46c8.12-.73,34.96-13.89,34.96-13.89,13.89,23.75,17.95,42.91,19.06,53.81.62,6.42.24,10.03.24,10.03Z"/>
                  <path class="cls-73" d="M1144.49,1373.36l-153.68-2.22s-1.04-3.19-1.46-7.81h154.86c.66,6.42.28,10.03.28,10.03Z"/>
                </g>
              </g>
              <g>
                <path class="cls-32" d="M1045.41,824.65l-25.17,40.79s-144.1,21.94-167.43,57.25c-21.52,32.56,7.64,362.63,7.64,362.63h98.97s-7.57-243.8,0-266.37c7.57-22.56,234.5-21.28,247.52-51.9s17.36-138.06,17.36-138.06"/>
                <path class="cls-60" d="M1228.32,871.72s5.59,88.35-23.43,109.49c-25.2,18.36-89.29,23.16-89.29,23.16l12.36,274.81-94.63,6.18s-47-320.73-44.78-351.49c2.22-30.76,93.25-53.01,87.03-57.38,0,0-70.16-23.81-44.16-49.99.59-.59,1.25-1.22,1.91-1.81,6.04-5.35,79.95.17,79.95.17l68.15-6.25,26.97,30.58,19.93,22.53Z"/>
              </g>
            </g>
          </g>
          <path class="cls-32" d="M1224.82,899.7c-.59,4.34-1.25,8.99-1.94,13.71-11.66-14.82-30.51-36.52-47.14-45.65-34.47-18.95-144.66-31.9-144.66-31.9l.42-9.41c.59-.59,1.25-1.22,1.91-1.81,6.04-5.35,79.95.17,79.95.17l68.15-6.25,26.97,30.58,16.35,50.55Z"/>
          <g>
            <g>
              <path class="cls-78" d="M1179.17,544.71s-40.58,52.42-65.85,49.75c-25.27-2.67-45.03-30.65-45.03-30.65,0,0,10.14-3.75,14.51-20.31,2.57-9.55,3.16-23.36-1.22-43.19l75.12-11.14s-.52,12.53,2.81,26.04c2.85,11.53,8.47,23.81,19.65,29.51Z"/>
              <path class="cls-45" d="M1082.8,543.52c2.57-9.55,3.16-23.36-1.22-43.19l75.12-11.14s-.52,12.53,2.81,26.04c-20.27,17.05-48.18,27.32-76.72,28.29Z"/>
            </g>
            <g>
              <g>
                <path class="cls-45" d="M1012.57,455.87c1.15-10.15,13.36-17.11,27.26-15.53,13.91,1.58,24.25,11.08,23.1,21.24-1.15,10.15-13.36,17.11-27.26,15.53-13.91-1.58-24.25-11.08-23.1-21.24Z"/>
                <g>
                  <path class="cls-25" d="M1041.11,458.58v-.28c0-3.33-2.71-6.04-6.04-6.04h-3.37c-3.33,0-6.04,2.71-6.04,6.04v.28c0,3.33,2.71,6.04,6.04,6.04h3.37c3.33,0,6.04-2.71,6.04-6.04Z"/>
                  <rect class="cls-25" x="1025.66" y="458.44" width="5.07" height="13.89"/>
                </g>
              </g>
              <g>
                <path class="cls-78" d="M1182.15,429.59c0-47.98-33.19-86.89-74.15-86.89s-74.15,25.62-74.15,86.89c0,47.98,18.61,89.6,62.7,92.52,40.86,2.67,85.61-44.5,85.61-92.52Z"/>
                <path class="cls-45" d="M1173.41,452.29c-13.57-13.05-23.64-29.72-28.57-48.29-6.91,2.22-14.86.83-19.89-3.02-15.07,6.11-32.91,4.96-46.59-2.67-10.69,5-23.71,4.76-34.54-1.08-5.21,7.08-9.1,15.1-11.49,23.57,1.04-16.52,2.12-33.05,3.19-49.61,39.12-5.52,78.46-9.37,117.89-11.53,2.22-.14,4.58-.21,6.6.8,2.95,1.53,4.24,5,5.21,8.19,8.33,27.43,12.57,56.1,8.19,83.63Z"/>
              </g>
              <g>
                <path class="cls-27" d="M1192.26,365.89c-1.63,24.65-3.23,56.45-4.86,80.78-2.29,8.37-9.48,8.05-19.23,11.18-9.06-20.2-14.62-41.94-17.98-65.82-9.48,2.5-19.75,1.81-29.44-1.94-14.51,5.59-30.97,5.87-45.86-.1-11.25,3.71-23.5,4.44-34.09.62-3.99,12.12-5.94,30.51-6.98,43.43-1.39-11.84-5.97-48.46-7.12-73.56-.49-10.76-.38-19.41.87-23.09,4.65-13.64,19.72-9.23,23.75-4.55,2.74-6.32,8.61-11.21,15.31-12.78s14.13.24,20.27,4.83c4.2-7.88,12.88-13.16,21.77-13.37,8.92-.14,17.77,4.83,20.86,13.33,4.13-2.29,8.47-4.37,13.09-5.28,4.65-.87,9.69-.42,13.68,2.12,1.91,1.22,3.54,2.95,4.79,5.1,1.35,2.26,2.26,4.93,2.67,7.81,3.75-5.24,11.66-6.21,17.32-3.23,5.69,2.99,9.2,9.06,10.62,15.34,1.42,6.25,1.01,12.78.56,19.16Z"/>
                <path class="cls-53" d="M1161.08,326.8c-4.93-2.15-10.52-2.71-15.76-1.53-6.6,1.49-12.53,5.73-15.83,12.15-3.09-8.3-11.87-14.09-20.72-13.68-8.85.45-17.05,7.05-21.11,17.39-4.76-5.62-12.46-8.68-19.79-7.81s-14.13,5.55-17.36,12.91c-2.53-2.99-7.12-3.54-10.8-2.19-3.65,1.39-6.53,4.37-8.68,7.64-1.84,2.74-3.23,5.69-4.37,8.75-.49-10.76-.38-19.41.87-23.09,4.65-13.64,19.72-9.23,23.75-4.55,2.74-6.32,8.61-11.21,15.31-12.78,6.7-1.56,14.13.24,20.27,4.83,4.2-7.88,12.88-13.16,21.77-13.37,8.92-.14,17.77,4.83,20.86,13.33,4.13-2.29,8.47-4.37,13.09-5.28,4.65-.87,9.69-.42,13.68,2.12,1.94,1.25,3.58,2.99,4.83,5.14Z"/>
              </g>
              <g>
                <path class="cls-3" d="M1063.91,425.91c-6.39-1.53-13.4-.24-18.85,3.44"/>
                <path class="cls-3" d="M1112.9,427.16c6.94-3.02,15.41-2.19,21.66,2.12"/>
                <path class="cls-10" d="M1083.18,453.68c.17,6.87.87,13.71,2.01,20.48"/>
                <path class="cls-10" d="M1092.87,493.26c8.33.31,16.77-2.81,22.88-8.47"/>
                <path class="cls-47" d="M1115.59,452.16c2.1-.37,4.19,1.55,4.67,4.29.48,2.74-.82,5.26-2.92,5.63-2.1.37-4.19-1.55-4.67-4.29s.83-5.26,2.92-5.63Z"/>
                <path class="cls-47" d="M1057.47,452.96c2.1-.37,4.19,1.55,4.67,4.29.48,2.74-.83,5.26-2.92,5.63-2.1.37-4.19-1.55-4.67-4.29-.48-2.74.82-5.26,2.92-5.63Z"/>
              </g>
              <g>
                <path class="cls-78" d="M1175.76,440.33c13.86-1.91,26.24,4.74,27.63,14.87,1.4,10.12-8.71,19.88-22.58,21.79-13.86,1.91-26.24-4.74-27.63-14.87-1.4-10.12,8.71-19.88,22.58-21.79Z"/>
                <g>
                  <path class="cls-25" d="M1174.97,458.58v-.28c0-3.33,2.71-6.04,6.04-6.04h3.37c3.33,0,6.04,2.71,6.04,6.04v.28c0,3.33-2.71,6.04-6.04,6.04h-3.37c-3.33,0-6.04-2.71-6.04-6.04Z"/>
                  <rect class="cls-25" x="1185.35" y="458.44" width="5.07" height="13.89"/>
                </g>
              </g>
            </g>
          </g>
          <g>
            <path class="cls-19" d="M1169.93,533.21s-41.14,24.86-48.29,33.78c-7.15,8.96-9.34,21.18-9.34,21.18,0,0-9.86-20.79-12.08-22.53-2.22-1.74-19.48-18.09-19.48-18.09l-20.24,15.34-27.11,14.09,1.15,260.43,183.37,12.43,4.72-282.62-52.7-34.02Z"/>
            <path class="cls-7" d="M1112.1,589.7c-8.68,73.04,6.39,200.69-18.09,250.26"/>
            <path class="cls-79" d="M1115.64,577.34s3.09-11.53,10.21-17.22c7.12-5.69,43.81-27.29,44.78-27.53s18.99,12.32,18.99,12.32l-27.22,38.64s-27.91-19.61-34.44-17.95c-6.25,1.63-12.32,11.73-12.32,11.73Z"/>
            <path class="cls-79" d="M1107.1,577.37s-2.12-8.12-5.83-12.71c-4.3-5.31-18.54-20.66-20-20.55-1.46.07-15.9,8.75-18.47,13.99s-1.11,30.03-1.11,30.03c0,0,24.37-23.19,33.88-20.55,6.32,1.77,11.53,9.79,11.53,9.79Z"/>
          </g>
          <g>
            <path class="cls-34" d="M1185.69,540.4s-31.83,29.92-36.62,60.3c-4.79,30.38-2.95,190.2,26.52,243.39,25.55,46.14,27.98,193.09,27.98,261.3l89.43-30.83s-.38-122.37-29.26-235.68c-22.39-87.83-.9-248.32-13.71-264.01-8.92-10.97-64.33-34.47-64.33-34.47Z"/>
            <path class="cls-39" d="M1147.96,710.96s-7.39-84.43-.24-111.61c7.15-27.18,27.84-61.72,33.43-62.94,9.23-1.98,29.89,14.02,29.89,14.02,0,0-16.73,28.95-21.66,72.87-.45,3.96-33.26,16.07-33.26,16.07,0,0,25.62,18.75,25.27,20.59-.38,1.91-33.43,51-33.43,51Z"/>
          </g>
          <g>
            <g>
              <ellipse class="cls-24" cx="1089.26" cy="854.82" rx="34.75" ry="21.63"/>
              <path class="cls-52" d="M1136.88,826.49c-11.8-1.56-23.61-3.12-35.41-4.69-3.16-.42-6.56-.8-9.44.56-3.99,1.87-5.83,6.46-6.18,11.18,5.9.52,11.8,1.01,17.77,1.98-7.22,9.93-16.07,18.68-26.04,25.86-2.22,1.6-4.55,3.16-6.21,5.31-1.7,2.15-2.64,5.07-1.77,7.67.9,2.57,3.47,4.3,6.14,4.83,2.67.52,5.42.07,8.61.24-.97,3.92,1.01,8.33,4.55,10.24,3.54,1.91,8.33,1.11,11.8-1.53,1.81,3.4,5.31,5.87,9.13,6.42s7.88-.83,11.21-1.77c2.78,3.23,7.05,5.14,11.28,5.07,4.27-.07,8.44-2.12,11.87-5.17,10.24-9.1,18.4-20.55,23.64-33.22-11.21-10.07-21.63-20.97-30.97-32.98Z"/>
            </g>
            <g>
              <path class="cls-34" d="M1194.1,607.05c-.87-16.77,7.64-48.32,19.72-51.62,18.82-5.1,50.79,23.16,59.19,45.65,8.4,22.5,33.78,160.35,26.66,179.13-9.75,25.62-138.58,94.53-138.58,94.53l-39.92-58.36s89.32-48.46,94.63-63.88c3.3-9.65-19.65-106.12-21.7-145.46Z"/>
              <path class="cls-13" d="M1237.32,578.17s-14.41,18.85-14.41,52.8,8.33,114.35,6.39,117.3c-1.91,2.95-64.88,43.78-64.88,43.78"/>
              <path class="cls-13" d="M1223.95,682.18c-9.51-11.28-16.07-24.44-19.02-38.22"/>
              <path class="cls-13" d="M1189.76,860.89c20.45-11.14,50.02-28.54,67.83-42.73"/>
            </g>
          </g>
          <g>
            <path class="cls-34" d="M1075.61,546.34s-5.42,20.83-5.42,57.04c0,60.75-7.92,229.68-39.89,254.64-25.13,19.61-56.62,18.36-70.92,18.36,0,0,29.75-15.83,40.86-34.19,12.36-20.41,14.44-85.3,16.07-119.11,1.74-35.83,4.96-134.56,9.06-143.17,8.89-18.57,50.23-33.57,50.23-33.57Z"/>
            <path class="cls-39" d="M1065.23,716.13s7.26-57.18,7.26-96.92c0-44.5,7.32-75.12,7.32-75.12,0,0-25.27,8.02-28.05,12.12-2.78,4.1-15.86,27.6-22.56,72.14-1.11,7.36,28.74,13.43,28.74,13.43,0,0-23.02,17.88-23.02,22.36.03,8.68,30.31,52,30.31,52Z"/>
            <g>
              <path class="cls-13" d="M1023.99,597.58c0,96.86-8.78,174.34-13.02,201.24"/>
              <path class="cls-13" d="M1010.24,632.29c2.5,13.89,8.54,27.6,12.25,31.8"/>
            </g>
          </g>
        </g>
        <g>
          <path class="cls-11" d="M1028.09,472.12s4.76,111.75,71.76,116.02c56.55,3.61,87.93-65.89,87.93-116.19"/>
          <g>
            <path class="cls-4" d="M1104.08,589.52s-41.21,150.59-155.52,177.81c-139.9,33.33-276.99-4.13-276.99-4.13"/>
            <path class="cls-4" d="M919.32,593.79s15.8,91.3-54.99,138.58c-62.7,41.9-192.77,28.95-192.77,28.95"/>
            <path class="cls-4" d="M1056.87,854.26s-256.41.52-387.07-91.06"/>
          </g>
        </g>
      </g>
    </g>
    <g>
      <path class="cls-26" d="M1593.67,211.44c-1.56-27.36,18.29-54.43,44.85-61.13,26.56-6.7,56.9,7.71,68.49,32.53,9.93,21.25,6.53,46.14,1.74,69.12-4.76,22.98-10.69,46.76-5.24,69.57,4.62,19.2,17.01,36.14,19.48,55.72,3.37,26.94-15.59,54.92-41.87,61.76-14.86,3.85-34.06-.9-38.78-15.52-4.37-13.54,5.62-27.95,3.61-42.01-1.7-11.8-11.32-20.55-19.23-29.44-29.16-32.84-29.58-80.16-33.05-140.6Z"/>
      <g>
        <path class="cls-61" d="M1338.75,557.24c-13.3-15.17-23.02-42.49-23.02-51.69,0-10.87-1.74-22.01,2.08-32.18,1.98-5.24,5-10,8.02-14.72,3.44-5.38,6.84-10.76,10.28-16.14,1.42-2.22,3.05-4.58,5.59-5.28,4.27-1.15,8.19,3.68,7.98,8.12-.24,4.41-3.16,8.16-8.19,12.08,1.91-8.09,6.01-15.66,11.7-21.7,1.49-1.6,3.51-3.19,5.66-2.71,3.51.83,3.4,5.83,2.46,9.3-2.36,8.71-4.69,17.43-6.56,24.93,7.43,14.16,6.77,30.97,6.91,46.93.14,15.97,1.7,33.26,12.25,45.27-10.14,4.44-22.08-13.26-35.17-2.22Z"/>
        <path class="cls-61" d="M1337.23,555.36s35.24,120.39,61.86,122.86c32.22,3.02,58.39-26.77,58.39-26.77l21.04-107.83-47.7-28.57-26.31,86.41-37.56-42.46-29.72-3.65Z"/>
        <path class="cls-63" d="M1495.91,561.61c-26.24-9.93-52.59-19.65-78.8-29.72,7.15-34.26,17.08-75.33,25.76-88.45,16.25-24.54,42.49-25.79,42.49-25.79l11.98,35.44-1.42,107.79s0,.28,0,.73Z"/>
        <g>
          <polygon class="cls-36" points="1471.71 631.35 1394.99 433.03 1300.91 457.43 1387.98 678.25 1471.71 631.35"/>
          <polygon class="cls-71" points="1458.94 620.45 1389.82 443.93 1313.1 464.72 1388.67 657.88 1458.94 620.45"/>
          <polygon class="cls-74" points="1365.17 439.14 1369.96 451.95 1339.86 460.31 1334.48 447.22 1365.17 439.14"/>
        </g>
      </g>
      <g>
        <g>
          <g>
            <g>
              <path class="cls-72" d="M1426.37,1348.22c.28,13.02,136.81,8.61,142.96-2.12,3.99-7.01-3.37-24.65-8.99-36.07-2.99-6.14-5.49-10.48-5.49-10.48l-17.36-24.3-13.85-.38c-30.72,17.74-61.34,37.04-79.81,52.14-10.9,8.96-17.57,16.39-17.46,21.21Z"/>
              <path class="cls-61" d="M1443.84,1327.05c28.22,17.77,93.25-7.08,116.5-16.98-2.99-6.14-5.49-10.48-5.49-10.48l-17.36-24.3-13.85-.38c-30.72,17.74-61.38,37.04-79.81,52.14Z"/>
            </g>
            <polygon class="cls-61" points="1485.74 1221.34 1490.56 1274.56 1492.3 1293.65 1493.51 1306.77 1548.75 1300.98 1549.2 1291.71 1549.2 1291.67 1549.65 1281.95 1552.7 1219.05 1553.02 1212.73 1519.38 1217.03 1485.74 1221.34"/>
          </g>
          <polygon class="cls-70" points="1485.74 1221.34 1490.56 1274.56 1518.2 1277.99 1518.23 1277.99 1541.53 1280.95 1549.65 1281.95 1552.7 1219.05 1519.38 1217.03 1485.74 1221.34"/>
        </g>
        <path class="cls-63" d="M1446.72,688.88s-23.75,65.68-19.06,159.07c4.69,93.38,44.05,419.05,44.05,419.05l98.11-4.62-16.8-420.4-23.68-130.18"/>
      </g>
      <g>
        <g>
          <g>
            <g>
              <path class="cls-72" d="M1671.85,1346.9c8.64,9.72,109.7-82.21,107.44-94.32-1.49-7.92-18.54-16.56-30.24-21.59-6.25-2.71-10.97-4.41-10.97-4.41l-28.99-7.22-10.8,8.68c-11.87,33.43-22.67,68.01-26.9,91.44-2.53,13.82-2.74,23.81.45,27.43Z"/>
              <path class="cls-61" d="M1671.39,1319.44c33.01-4.79,66.38-65.89,77.66-88.49-6.25-2.71-10.97-4.41-10.97-4.41l-28.99-7.22-10.8,8.68c-11.87,33.43-22.67,67.97-26.9,91.44Z"/>
            </g>
            <polygon class="cls-61" points="1634.74 1211.83 1657.68 1234.29 1686.6 1262.58 1696.04 1271.78 1734.33 1231.58 1728.64 1224.19 1712.08 1202.73 1680.35 1161.63 1634.74 1211.83"/>
          </g>
          <polygon class="cls-70" points="1634.74 1211.83 1657.68 1234.29 1712.08 1202.73 1680.35 1161.63 1634.74 1211.83"/>
        </g>
        <g>
          <path class="cls-38" d="M1433.67,750.6c9.55,26.52,81.44,73.25,81.44,73.25,0,0-.69,185.14,1.98,231.79,2.67,46.66,99.35,198.99,99.35,198.99l90.61-80.44s-70.23-117.44-75.05-145.04c-4.83-27.63,25.55-172.74,25.55-231.83,0-10.9-1.01-22.18-2.67-33.36-3.61-24.65-10.31-48.74-16.14-66.62-5.8-17.88-10.69-29.61-10.69-29.61,0,0-49.23,7.15-98.38,20.9-44.99,12.57-89.81,30.72-96.65,53.88-.69,2.36-.42,5.1.66,8.09Z"/>
          <path class="cls-63" d="M1433.67,750.6c23.95,14.16,48.91,26.63,74.6,37.21,1.6-4.27,3.19-8.54,5.42-12.81,2.26,4.89,4.55,9.72,7.32,16.35,44.3-11.11,89.01-20.52,133.9-27.39-3.61-24.65-10.31-48.74-16.14-66.62-36.31-3.4-72.69-6.32-109.08-8.71-44.99,12.57-89.81,30.72-96.65,53.88-.73,2.36-.45,5.1.62,8.09Z"/>
        </g>
      </g>
      <path class="cls-33" d="M1685.28,446.39c-3.44-20.83-82.28-47.59-109.08-45.16-57.56,5.24-99.25,15.69-112.37,23.92-13.12,8.23-25.1,85.09-25.1,106.51,0,25.34,8.71,75.09,6.39,95.15-4.51,38.92-28.12,121.33-28.12,121.33l86.75,30.41,10.76-18.95,9.82,24.02,143.37-32.88s-10.97-114.18-10.97-134.21c.03-19.2,32.98-143.27,28.54-170.14Z"/>
      <g>
        <path class="cls-2" d="M1551.35,460c-28.81,150.07-30.41,193.05-36.97,298.48"/>
        <g>
          <circle class="cls-72" cx="1555.17" cy="489.72" r="4.83"/>
          <circle class="cls-72" cx="1543.09" cy="555.36" r="4.83"/>
          <circle class="cls-72" cx="1533.78" cy="624.55" r="4.83"/>
          <circle class="cls-72" cx="1528.96" cy="703.87" r="4.83"/>
        </g>
      </g>
      <g>
        <g>
          <g>
            <g>
              <path class="cls-72" d="M1384.02,552.9l14.37,1.15,1.11.1,96.37-25.31c6.6-3.51,7.71-8.92,6.14-13.33-1.98-5.49-8.4-8.05-13.92-6.11l-91.93,32.49-.94.83-11.21,10.17Z"/>
              <g>
                <path class="cls-18" d="M1384.02,552.9l3.96.31,10.41.83c-.31-.24-.66-.49-.94-.8-1.22-1.22-1.94-3.02-1.42-4.65.21-.69.62-1.42.35-2.08-.14-.31-.42-.52-.62-.76-.69-.8-.8-2.01-.56-3.02l-8.23,7.5-2.95,2.67Z"/>
                <path class="cls-21" d="M1384.02,552.9l3.96.31c-.42-.45-.69-.97-.87-1.56-.14-.45-.17-.94-.14-1.42l-2.95,2.67Z"/>
              </g>
            </g>
            <g>
              <path class="cls-61" d="M1497.89,574.32c-9.48-17.57-18.92-35.13-29.02-52.73-7.5-5.83-15.93-10.24-24.54-13.54-10.28,3.33-19.93,9.48-27.88,17.74-1.94,2.05-3.99,4.93-3.09,7.67.66,2.01,2.74,2.99,4.69,2.85,1.91-.14,3.71-1.18,5.45-2.19,5.24-3.05,10.48-6.14,16.56-9.1,1.7,1.46,3.4,2.92,4.69,4.41-3.54.03-7.08.1-11.32,1.32-6.77,3.19-13.4,6.84-19.82,10.94-1.81,1.15-3.78,2.67-3.99,4.96-.17,1.87.97,3.58,2.46,4.37s3.19.83,4.86.69c6.04-.42,12.05-2.6,17.01-6.35,2.01.59,4.03,1.18,5.55,2.15-2.6.49-5.21.97-7.64,2.19-2.43,1.22-4.65,3.23-5.73,5.97s-.69,6.21.73,9.1c-1.39.52-2.15,2.33-2.08,3.96.07,1.63.76,3.09,1.46,4.48,1.49,2.95,3.12,5.8,4.89,8.51,1.7,2.53,3.65,5.03,6.32,6.14,2.67,1.08,6.18.31,7.95-3.02,7.15,12.36,20.55,19.61,33.53,18.23,7.74-8.37,14.2-18.19,18.95-28.74Z"/>
              <g>
                <path class="cls-12" d="M1456.58,531.44c-3.44-1.42-7.08-1.91-10.8-2.29"/>
                <path class="cls-12" d="M1449.6,546.61c-3.47-.28-6.87-.17-9.48.28"/>
                <path class="cls-12" d="M1427.35,563.69c4.83-2.67,12.81-4.2,18.29-3.51"/>
                <path class="cls-12" d="M1443.91,583.9c-1.7-2.74-3.19-7.26-3.85-10.41"/>
                <path class="cls-12" d="M1441.16,579.14c-2.19.28-4.48.66-6.25.49"/>
              </g>
            </g>
          </g>
          <g>
            <path class="cls-61" d="M1473.1,598.58s119.98,101.75,152.37,90.29c12.88-4.58,25.65-41.94,34.92-76.72,8.54-31.97,14.09-61.72,14.09-61.72l-67.97-28.71s-4.55,30.83-9.13,55.89c-3.02,16.91-6.08,31.17-7.71,31.59-6.94,1.94-95.02-37.25-95.02-37.25l-21.56,26.63Z"/>
            <path class="cls-70" d="M1597.38,577.65c16.21,10.62,41.69,26.28,62.97,34.54,8.54-31.97,14.09-61.72,14.09-61.72l-67.97-28.71s-4.51,30.83-9.1,55.89Z"/>
          </g>
        </g>
        <path class="cls-28" d="M1674.45,586.64c-29.75-5.66-53.36-10.55-81.79-20.72,4.03-33.4,13.43-93.8,21.07-112.41,5.42-13.19,26.7-36.38,50.68-26.35,23.99,10.03,33.19,25.86,30.65,67.63-.94,14.86-15.07,61.62-20.62,91.86Z"/>
      </g>
      <g>
        <g>
          <g>
            <path class="cls-61" d="M1529.41,416.43s6.98,31.59,20.45,40.83c13.47,9.23,64.47-47.56,64.47-47.56-8.78-8.19-10.9-24.27-10.8-38.5.1-14.51,2.53-27.01,2.53-27.01l-62.14,17.95c.62,15.34-.62,26.42-2.57,34.37-4.24,17.25-11.94,19.93-11.94,19.93Z"/>
            <path class="cls-70" d="M1541.39,396.51c28.64,6.08,50.55-12.15,62.14-25.31.1-14.51,2.53-27.01,2.53-27.01l-62.14,17.95c.66,15.38-.59,26.42-2.53,34.37Z"/>
          </g>
          <g>
            <path class="cls-72" d="M1552.15,458.37c-.8-.14,3.19-21.45,5.21-23.29s51-44.75,53.91-43.15c4.27,2.29,11.32,15.9,11.32,15.9,0,0-10.07,13.64-29.06,29.06-13.05,10.59-33.88,22.77-41.38,21.49Z"/>
            <path class="cls-72" d="M1552.15,458.26c1.08-1.08-1.11-22.22-2.36-24.16-4.06-6.42-10.94-23.16-10.94-34.54,0,0-12.36,4.69-13.89,7.39-1.49,2.74,5.21,22.77,10.38,32.32,8.78,16.07,15.93,19.86,16.8,18.99Z"/>
          </g>
        </g>
        <g>
          <g>
            <ellipse class="cls-70" cx="1493.05" cy="313.52" rx="18.88" ry="25.86" transform="translate(1013.4 1761.77) rotate(-83.53)"/>
            <g>
              <path class="cls-61" d="M1640.26,283.79c0-48.95-33.85-88.63-75.61-88.63s-75.61,39.68-75.61,88.63,20.86,97.62,63.18,95.88c41.69-1.74,88.04-46.93,88.04-95.88Z"/>
              <path class="cls-70" d="M1623.49,304.79c-8.78-9.55-14.34-27.56-15.69-35.24-8.4-2.43-18.57-10.48-23.68-21.35-12.81,12.81-61.48,20.03-77.73,15.8-11.56,14.27-11.91,21.35-16,39.58-2.64-22.25-1.46-44.96,3.44-66.83,30.45-9.82,60.23-21.66,89.11-35.48,4.93-2.36,10.83-4.76,15.55-1.98,3.02,1.77,4.58,5.21,6.14,8.37,6.53,13.3,15.9,25.2,27.29,34.68,2.95,2.46,6.32,5.24,6.46,9.06.1,2.5-1.22,4.79-2.43,6.98-5.45,10.03-4.51,34.16-12.46,46.41Z"/>
            </g>
            <g>
              <path class="cls-30" d="M1476.19,253.79c-.24,18.54,14.86,57.04,14.86,57.04,0,0,.1-31.69,14.55-52.28,29.89,0,63.01-1.39,81.34-18.4,5.31,13.47,14.44,21.32,25.45,24.99-.35,16.8,7.36,32.53,12.19,46.66,9.41-5.73,16.49-3.3,24.16-12.36,4.44-16.42,9.16-42.07,7.81-57.94-1.11-12.78-4.58-25.69-11.53-36.42-1.63-2.57-3.51-5.03-5.55-7.32-10.69-11.84-27.56-18.75-43.01-14.89-8.54-10.28-21.73-16.35-34.89-17.08-13.19-.73-26.28,3.4-37.77,9.96-22.39,12.74-39.89,32.46-45.62,59.88-1.25,5.9-1.87,11.98-1.98,18.16Z"/>
              <path class="cls-56" d="M1476.19,253.79c.62-2.4,1.39-4.76,2.26-7.08,4.27-11.28,11.21-21.42,19.2-30.48,12.05-13.82,27.01-25.72,44.68-30.65,17.67-4.89,38.19-1.81,51.38,10.94,16.66-7.08,37.11-3.23,51.27,8.54-1.63-2.57-3.51-5.03-5.55-7.32-10.69-11.84-27.56-18.75-43.01-14.89-8.54-10.28-21.73-16.35-34.89-17.08-13.19-.73-26.28,3.4-37.77,9.96-22.39,12.74-39.89,32.46-45.62,59.88-1.22,5.94-1.84,12.01-1.94,18.19Z"/>
            </g>
            <path class="cls-61" d="M1635.65,295.54c13.84-3.54,27.15,1.78,29.74,11.88,2.59,10.1-6.53,21.17-20.37,24.71-13.84,3.54-27.15-1.78-29.74-11.88-2.59-10.1,6.53-21.17,20.37-24.71Z"/>
          </g>
          <g>
            <g>
              <ellipse class="cls-80" cx="1569.78" cy="316.56" rx="3.3" ry="5.28"/>
              <ellipse class="cls-80" cx="1509.21" cy="316.56" rx="3.3" ry="5.28"/>
              <path class="cls-6" d="M1518.93,284.58c-6.32-2.19-13.57-1.63-19.48,1.56"/>
              <path class="cls-6" d="M1564.65,287.33c7.08-3.09,15.73-2.22,22.08,2.15"/>
              <path class="cls-8" d="M1531.87,320.58c-.56,3.4-.52,11.53.07,14.82"/>
            </g>
            <path class="cls-8" d="M1535.59,350.06c9.2,3.65,18.82,1.67,23.78-5.87"/>
          </g>
        </g>
      </g>
    </g>
  </g>
</svg>