<?xml version="1.0" encoding="UTF-8"?>
<svg id="Layer_3" data-name="Layer 3" xmlns="http://www.w3.org/2000/svg" viewBox="0 0 668 512">
  <defs>
    <style>
      .cls-1, .cls-2, .cls-3, .cls-4, .cls-5, .cls-6 {
        fill: #fff;
      }

      .cls-1, .cls-7 {
        opacity: .2;
      }

      .cls-8 {
        fill: #fafafa;
      }

      .cls-9, .cls-10, .cls-11, .cls-12 {
        fill: #d28c65;
      }

      .cls-13 {
        fill: #1d1a35;
      }

      .cls-14 {
        fill: #d268cc;
      }

      .cls-15 {
        opacity: .65;
      }

      .cls-15, .cls-16 {
        fill: #8fffb7;
      }

      .cls-17 {
        fill: #2b454e;
      }

      .cls-18 {
        fill: #ff9090;
      }

      .cls-19 {
        fill: #f0f0f0;
      }

      .cls-16 {
        opacity: .28;
      }

      .cls-20 {
        fill: #f0f0f0;
      }

      .cls-21 {
        fill: #40c66d;
      }

      .cls-21, .cls-10, .cls-3 {
        opacity: .3;
      }

      .cls-22 {
        fill: #a7e7f9;
      }

      .cls-23 {
        fill: #c76668;
      }

      .cls-24 {
        fill: #e1e1e1;
      }

      .cls-25 {
        fill: #e2e2e2;
      }

      .cls-26 {
        fill: #f9ebe1;
      }

      .cls-27 {
        fill: #1a2e35;
      }

      .cls-28 {
        fill: #79b2c6;
      }

      .cls-29 {
        fill: #3c3764;
      }

      .cls-30 {
        fill: #42424a;
      }

      .cls-31, .cls-32 {
        fill: #291a35;
      }

      .cls-33 {
        fill: #4e3764;
      }

      .cls-34 {
        fill: #f7d5d5;
      }

      .cls-32 {
        stroke: #291a35;
        stroke-width: .58px;
      }

      .cls-32, .cls-35 {
        stroke-miterlimit: 10;
      }

      .cls-36 {
        opacity: .15;
      }

      .cls-37 {
        fill: #c87084;
      }

      .cls-4, .cls-11 {
        opacity: .4;
      }

      .cls-5, .cls-38 {
        opacity: .1;
      }

      .cls-39 {
        fill: #ececec;
      }

      .cls-40 {
        fill: #e2b3b3;
      }

      .cls-41 {
        fill: #d26a63;
      }

      .cls-42 {
        fill: #46495f;
      }

      .cls-43 {
        fill: #f5f5f5;
      }

      .cls-44 {
        fill: #f5f5f5;
      }

      .cls-45 {
        fill: #c66150;
      }

      .cls-6 {
        opacity: .6;
      }

      .cls-12 {
        opacity: .5;
      }

      .cls-46 {
        fill: #2f2b4e;
      }

      .cls-47 {
        fill: #c6c6c6;
      }

      .cls-48 {
        fill: #ececec;
      }

      .cls-49 {
        fill: #fafafa;
      }

      .cls-50 {
        fill: #ffaaa8;
      }

      .cls-35 {
        fill: none;
        stroke: #3740dd;
        stroke-width: 2.31px;
      }

      .cls-51 {
        fill: #2f6572;
      }

      .cls-52 {
        fill: #59b6c6;
      }

      .cls-53 {
        fill: #e8e8e8;
      }

      .cls-54 {
        fill: #e1e1e1;
      }
    </style>
  </defs>
  <path class="cls-26" d="M605.27,43.39c-51.46-27.66-95.88,18.19-100.56,33.28-12.69,41-72.06,39.38-119.66,4.41-14.26-10.48-11.18-58.67-59.34-51.88-58.18,8.21-222.47-32.58-249.56,14.18-34.66,59.82,37.75,74.5,30.99,111.21-11.57,62.83-74.2,35.89-95.33,105.06-28.63,93.71,21.11,193.9,119.32,209.55,26.09,4.16,74-6.34,97.91-12.73,50.29-13.44,85.67-13.22,129.29,15.18,20.74,13.5,44.7,6.01,70.79,10.17,74.72,11.9,153.59.88,188.06-60.48,15.15-26.97,4.16-52.01,29.52-78.89,26.2-27.78,27.14-78.29,3.38-111.57-75.11-105.2,59.17-131.62-44.8-187.49ZM345.1,253.28c1.66,9.54,2.54,19.28,2.57,29.16-1.67-9.53-2.54-19.28-2.57-29.16Z"/>
  <g>
    <path class="cls-28" d="M393.42,37.16c0,2.82-2.29,5.11-5.11,5.11s-5.11-2.29-5.11-5.11,2.29-5.11,5.11-5.11,5.11,2.29,5.11,5.11Z"/>
    <circle class="cls-28" cx="243.14" cy="70.48" r="1.93"/>
    <circle class="cls-28" cx="307.81" cy="26.75" r="2.79"/>
    <path class="cls-28" d="M327.3,108.77c0,1.54-1.25,2.79-2.79,2.79s-2.79-1.25-2.79-2.79,1.25-2.79,2.79-2.79,2.79,1.25,2.79,2.79Z"/>
    <circle class="cls-28" cx="107.93" cy="89.57" r="1.93"/>
    <path class="cls-28" d="M39.53,302.93c0,2.41-1.96,4.37-4.37,4.37s-4.37-1.96-4.37-4.37,1.96-4.37,4.37-4.37,4.37,1.96,4.37,4.37Z"/>
    <path class="cls-28" d="M186.19,83c0,2.35-1.91,4.26-4.26,4.26s-4.26-1.91-4.26-4.26,1.91-4.26,4.26-4.26,4.26,1.91,4.26,4.26Z"/>
    <circle class="cls-28" cx="544.88" cy="367.5" r="2.4"/>
    <path class="cls-28" d="M580.25,250.95c0,1.66-1.35,3.01-3.01,3.01s-3.01-1.35-3.01-3.01,1.35-3.01,3.01-3.01,3.01,1.35,3.01,3.01Z"/>
    <path class="cls-28" d="M105.26,489.77c0,2.05-1.66,3.71-3.71,3.71s-3.71-1.66-3.71-3.71,1.66-3.71,3.71-3.71,3.71,1.66,3.71,3.71Z"/>
    <path class="cls-28" d="M22.09,493.48c0,2.05-1.66,3.71-3.71,3.71s-3.71-1.66-3.71-3.71,1.66-3.71,3.71-3.71,3.71,1.66,3.71,3.71Z"/>
    <path class="cls-28" d="M622.45,299.65c0,2.05-1.66,3.71-3.71,3.71s-3.71-1.66-3.71-3.71,1.66-3.71,3.71-3.71,3.71,1.66,3.71,3.71Z"/>
    <path class="cls-28" d="M244.89,497.45c0,2.05-1.66,3.71-3.71,3.71s-3.71-1.66-3.71-3.71,1.66-3.71,3.71-3.71,3.71,1.66,3.71,3.71Z"/>
    <path class="cls-28" d="M248.98,382.88c0,1.13-.91,2.04-2.04,2.04s-2.04-.91-2.04-2.04.91-2.04,2.04-2.04,2.04.91,2.04,2.04Z"/>
    <circle class="cls-28" cx="30.01" cy="152.4" r="3.79"/>
    <path class="cls-28" d="M579.34,60.62c0,2.82-2.29,5.11-5.11,5.11s-5.11-2.29-5.11-5.11,2.29-5.11,5.11-5.11,5.11,2.29,5.11,5.11Z"/>
    <circle class="cls-28" cx="594.18" cy="497.45" r="3.55"/>
    <circle class="cls-28" cx="656.2" cy="450.87" r="2.19"/>
    <path class="cls-28" d="M386.2,450.5c0,2.82-2.29,5.11-5.11,5.11s-5.11-2.29-5.11-5.11,2.29-5.11,5.11-5.11,5.11,2.29,5.11,5.11Z"/>
    <circle class="cls-28" cx="25.34" cy="423.26" r="3.25"/>
    <polygon class="cls-28" points="377 394.49 371.42 394.49 371.42 388.91 364.23 388.91 364.23 394.49 358.65 394.49 358.65 401.68 364.23 401.68 364.23 407.26 371.42 407.26 371.42 401.68 377 401.68 377 394.49"/>
    <polygon class="cls-28" points="649.77 268.82 644.19 268.82 644.19 263.24 637 263.24 637 268.82 631.42 268.82 631.42 276.01 637 276.01 637 281.59 644.19 281.59 644.19 276.01 649.77 276.01 649.77 268.82"/>
    <polygon class="cls-28" points="302.02 99.47 296.44 99.47 296.44 93.89 289.25 93.89 289.25 99.47 283.67 99.47 283.67 106.66 289.25 106.66 289.25 112.24 296.44 112.24 296.44 106.66 302.02 106.66 302.02 99.47"/>
    <polygon class="cls-28" points="459.2 47.85 453.62 47.85 453.62 42.27 446.43 42.27 446.43 47.85 440.85 47.85 440.85 55.04 446.43 55.04 446.43 60.62 453.62 60.62 453.62 55.04 459.2 55.04 459.2 47.85"/>
    <polygon class="cls-28" points="89.01 145.4 77.84 145.4 77.84 134.22 63.44 134.22 63.44 145.4 52.27 145.4 52.27 159.79 63.44 159.79 63.44 170.96 77.84 170.96 77.84 159.79 89.01 159.79 89.01 145.4"/>
    <polygon class="cls-28" points="166.59 391.99 156.53 391.99 156.53 381.93 143.57 381.93 143.57 391.99 133.51 391.99 133.51 404.95 143.57 404.95 143.57 415.01 156.53 415.01 156.53 404.95 166.59 404.95 166.59 391.99"/>
    <polygon class="cls-28" points="269.81 426.7 266.37 426.7 266.37 423.26 261.94 423.26 261.94 426.7 258.5 426.7 258.5 431.13 261.94 431.13 261.94 434.57 266.37 434.57 266.37 431.13 269.81 431.13 269.81 426.7"/>
  </g>
  <g>
    <path id="Floor" class="cls-53" d="M249.16,312.09c-77.32,44.64-77.32,117.02,0,161.67,77.33,44.64,202.69,44.64,280.02,0,77.32-44.64,77.32-117.02,0-161.67-77.33-44.64-202.69-44.64-280.02,0Z"/>
    <g id="Plants">
      <g>
        <path class="cls-14" d="M555.44,424.72l20.54,11.86c-.27-7.33-.91-18.23.1-25.57,6.2-44.89,23.69-59.69,32.01-81.54,8.76-23.01-1.92-30.41-15.8-26.28-12.37,3.69-30.27,22-35.91,55.5-3.75,22.29-3.08,46.49-.94,66.03Z"/>
        <path class="cls-15" d="M555.44,424.72l20.54,11.86c-.27-7.33-.91-18.23.1-25.57,6.2-44.89,23.69-59.69,32.01-81.54,8.76-23.01-1.92-30.41-15.8-26.28-12.37,3.69-30.27,22-35.91,55.5-3.75,22.29-3.08,46.49-.94,66.03Z"/>
        <path class="cls-2" d="M566.33,431.01l2.06,1.19c-7.35-52.34,10.55-97.72,28.21-116.47.34-.36.32-.93-.03-1.27-.37-.34-.94-.32-1.28.03-17.65,18.76-35.54,64.45-28.95,116.52Z"/>
      </g>
      <g>
        <path class="cls-15" d="M570.21,433.25l11.56,6.67h0c6.14-18.09,12.45-25.34,20.29-37.24,7.14-10.83,15.44-17.54,19.85-25.15,3.91-6.74,6.84-15.21,1.04-20.33-9.24-8.16-21.29.47-29.58,9.8-7.16,8.07-21.57,29.53-23.16,66.24Z"/>
        <path class="cls-21" d="M570.21,433.25l11.56,6.67h0c6.14-18.09,12.45-25.34,20.29-37.24,7.14-10.83,15.44-17.54,19.85-25.15,3.91-6.74,6.84-15.21,1.04-20.33-9.24-8.16-21.29.47-29.58,9.8-7.16,8.07-21.57,29.53-23.16,66.24Z"/>
        <path class="cls-2" d="M574.95,435.98l1.68.98c4.85-28.61,24.29-61.72,36.37-69.54.42-.27.55-.85.27-1.28-.27-.43-.84-.56-1.27-.27-12.5,8.11-31.9,41.06-37.05,70.11Z"/>
      </g>
    </g>
    <path id="Shadow" class="cls-47" d="M562.97,422.35c29.76,17.18,29.76,45.03,0,62.22-29.76,17.18-78,17.18-107.76,0-29.76-17.18-29.76-45.03,0-62.22,29.76-17.18,78-17.18,107.76,0Z"/>
    <path id="Shadow-2" data-name="Shadow" class="cls-47" d="M325.99,399.86c-16.84-9.62-16.84-25.23,0-34.85,16.84-9.62,44.13-9.62,60.97,0,16.84,9.62,16.84,25.23,0,34.85-16.84,9.62-44.13,9.62-60.97,0Z"/>
    <path id="Shadow-3" data-name="Shadow" class="cls-47" d="M299.32,400.15c16.67,9.63,16.67,25.23,0,34.86-16.67,9.63-43.71,9.63-60.38,0-16.67-9.63-16.67-25.23,0-34.86,16.67-9.63,43.71-9.63,60.38,0Z"/>
    <g id="Nasal_Spray" data-name="Nasal Spray">
      <g>
        <path class="cls-41" d="M378.6,295.86c-1.32-.76-2.73-1.44-4.22-2.03-2.74-1.09-4.6-3.68-4.6-6.63v-14.24h-26.44v14.24c0,2.95-1.85,5.54-4.6,6.63-1.48.59-2.9,1.27-4.22,2.03-6.09,3.51-9.13,8.12-9.13,12.72v71.03c0,4.61,3.04,9.21,9.13,12.72,12.17,7.03,31.9,7.03,44.07,0,6.08-3.51,9.13-8.12,9.13-12.72v-71.03c0-4.6-3.04-9.21-9.13-12.72Z"/>
        <path class="cls-44" d="M387.72,311.58v44.64c-.38,4.32-3.41,8.56-9.12,11.85-6.57,3.79-15.36,5.53-23.97,5.23v-44.64c3.86.13,7.78-.15,11.49-.83,4.57-.83,8.86-2.3,12.48-4.39,5.71-3.28,8.74-7.53,9.12-11.85Z"/>
        <path class="cls-24" d="M378.6,357.15c-3.2,1.85-6.93,3.21-10.91,4.08v3.33c3.98-.87,7.71-2.23,10.91-4.08,5.71-3.28,8.74-7.53,9.12-11.85v-3.33c-.38,4.32-3.41,8.56-9.12,11.85Z"/>
        <path class="cls-24" d="M378.6,349.27c-3.2,1.85-6.93,3.21-10.91,4.08v3.33c3.98-.87,7.71-2.23,10.91-4.08,5.71-3.28,8.74-7.53,9.12-11.85v-3.33c-.38,4.32-3.41,8.56-9.12,11.85Z"/>
        <path class="cls-24" d="M378.6,341.38c-3.2,1.85-6.93,3.21-10.91,4.08v3.33c3.98-.87,7.71-2.23,10.91-4.08,5.71-3.28,8.74-7.53,9.12-11.85v-3.33c-.38,4.32-3.41,8.56-9.12,11.85Z"/>
        <path class="cls-24" d="M378.6,333.49c-3.2,1.85-6.93,3.21-10.91,4.08v3.33c3.98-.87,7.71-2.23,10.91-4.08,5.71-3.28,8.74-7.53,9.12-11.85v-3.33c-.38,4.32-3.41,8.56-9.12,11.85Z"/>
        <path class="cls-7" d="M335.45,379.8v-69.35c0-3.82.81-6.72,5.39-9.04,9.14-4.63,10.3-8.37,10.3-13.06v-15.4h-7.79v14.24c0,2.95-1.85,5.54-4.6,6.63-1.48.59-2.9,1.27-4.22,2.03-6.08,3.51-9.13,8.12-9.13,12.72v71.03c0,4.6,3.04,9.21,9.13,12.72,8.76,5.05,21.41,6.45,32.37,4.23-25.32,1.75-31.45-9-31.45-16.77Z"/>
        <path class="cls-4" d="M378.6,295.86c-1.32-.76-2.73-1.44-4.22-2.03-2.74-1.09-4.6-3.68-4.6-6.63v-14.24h-2.89v16.99c0,2.5,2.15,4.87,4.64,6.23,2.49,1.36,10.4,4.8,12.32,8.55,1.82,3.58,1.23,10.68,1.23,19.12v53.06c0,5.47-2.28,13.4-12.44,18.15,2.11-.74,4.14-1.62,5.97-2.67,6.08-3.51,9.12-7.93,9.12-12.78v-71.03c0-4.6-3.04-9.21-9.13-12.72Z"/>
      </g>
      <g>
        <path class="cls-48" d="M378.6,288.1v5.45c.02,3.25-2.14,6.52-6.46,9.02-8.59,4.96-22.53,4.96-31.15,0-2.14-1.24-3.76-2.67-4.83-4.21-1.07-1.52-1.6-3.14-1.6-4.77v-5.54c0-.49.04-.98.17-1.47.53-2.76,2.63-5.43,6.26-7.53.11-.06.21-.13.32-.17,8.64-4.79,22.34-4.73,30.83.17,3.63,2.1,5.75,4.77,6.29,7.5.13.51.17,1.03.17,1.54Z"/>
        <path class="cls-24" d="M358.38,300.75v-8.1c0-3.21.81-8.08-4.81-8.08-4.87,0-9.21-2.03-12.25-5.69-.11.04-.21.11-.32.17-3.63,2.1-5.73,4.77-6.26,7.53-.13.49-.17.98-.17,1.47v5.54c0,1.62.53,3.25,1.6,4.77,1.07,1.54,2.69,2.97,4.83,4.21,8.62,4.96,22.55,4.96,31.15,0-6.07,2.39-13.77,1.24-13.77-1.82Z"/>
        <path class="cls-29" d="M341.01,297.04c-8.6-4.97-8.6-13.02,0-17.98,8.6-4.96,22.54-4.96,31.14,0,8.6,4.96,8.6,13.02,0,17.98-8.6,4.96-22.54,4.96-31.14,0Z"/>
        <path class="cls-48" d="M378.6,278.12v6.9c0,.51-.04,1.03-.17,1.54-.53,2.74-2.65,5.41-6.29,7.5-3.85,2.22-8.77,3.44-13.77,3.66-6.22.3-12.61-.92-17.38-3.68-2.14-1.24-3.74-2.65-4.83-4.19-.75-1.05-1.22-2.16-1.43-3.27-.13-.49-.17-1-.17-1.5v-7c0-3.27,2.14-6.52,6.43-9,.38-.21.77-.43,1.18-.62,8.66-4.34,21.76-4.13,29.97.62,4.32,2.5,6.48,5.77,6.46,9.04Z"/>
        <path class="cls-49" d="M341.01,287.06c-8.6-4.97-8.6-13.02,0-17.98,8.6-4.96,22.54-4.96,31.14,0,8.6,4.96,8.6,13.02,0,17.98-8.6,4.96-22.54,4.96-31.14,0Z"/>
        <path class="cls-24" d="M358.42,290.73c-.03.63-.05,1.29-.05,1.92v5.08c-6.21.28-12.6-.93-17.38-3.69-2.12-1.24-3.74-2.65-4.82-4.19-.76-1.04-1.21-2.15-1.44-3.26-.13-.5-.18-1.01-.18-1.52v-7c0,3.23,2.17,6.52,6.47,8.99,4.75,2.75,11.16,3.97,17.4,3.66Z"/>
      </g>
      <g>
        <path class="cls-48" d="M373.87,264.2v12.12c.02,2.55-1.68,5.12-5.07,7.08-6.75,3.89-17.69,3.89-24.45,0-1.68-.97-2.95-2.1-3.79-3.31-.84-1.19-1.26-2.47-1.26-3.74v-12.26c0-.39.03-.77.13-1.16.42-2.17,2.07-4.18,4.92-5.83.08-.05.17-.1.25-.13,6.78-3.76,17.54-3.71,24.2.13,2.85,1.65,4.52,3.74,4.93,5.89.1.4.13.81.13,1.21Z"/>
        <path class="cls-48" d="M373.87,264.21v5.41c0,.4-.03.81-.13,1.21-.42,2.15-2.08,4.25-4.93,5.89-3.02,1.75-6.88,2.7-10.81,2.87-4.88.24-9.9-.72-13.65-2.89-1.68-.97-2.94-2.08-3.79-3.29-.59-.82-.96-1.7-1.13-2.57-.1-.39-.13-.79-.13-1.18v-5.5c0-2.57,1.68-5.12,5.05-7.07.3-.17.6-.34.92-.49,6.8-3.41,17.09-3.24,23.53.49,3.39,1.96,5.09,4.53,5.07,7.1Z"/>
        <path class="cls-24" d="M357.99,281.97v-6.36c0-2.52-1.09-3.35-3.78-6.34-2.56-2.85-7.23-9.43-9.62-12.3-.08.03-.17.08-.25.13-2.85,1.65-4.5,3.74-4.92,5.91-.1.39-.13.77-.13,1.16v12.18c0,1.28.42,2.55,1.26,3.74.84,1.21,2.11,2.33,3.79,3.31,6.76,3.89,17.71,3.89,24.45,0-4.77,1.88-10.81.97-10.81-1.43Z"/>
        <path class="cls-38" d="M368.8,257.1c-6.66-3.84-17.42-3.89-24.2-.13-.08.03-.17.08-.25.13-2.85,1.65-4.5,3.66-4.92,5.83-.1.39-.13.77-.13,1.16v11.76c.88.92,1.98,1.78,3.32,2.56,7.72,4.45,20.22,4.45,27.92,0,1.35-.78,2.46-1.66,3.33-2.58v-11.63c0-.4-.03-.81-.13-1.21-.42-2.15-2.08-4.25-4.93-5.89Z"/>
        <path class="cls-49" d="M344.35,271.22c-6.75-3.9-6.75-10.22,0-14.12,6.75-3.9,17.7-3.9,24.45,0,6.75,3.9,6.75,10.22,0,14.12-6.75,3.9-17.7,3.9-24.45,0Z"/>
      </g>
      <g>
        <path class="cls-48" d="M376.32,262.97v4.89c.02,2.91-1.92,5.85-5.79,8.09-7.7,4.45-20.2,4.45-27.92,0-1.92-1.11-3.37-2.4-4.33-3.78-.96-1.36-1.44-2.82-1.44-4.27v-4.96c0-.44.04-.88.15-1.32.48-2.47,2.36-4.87,5.62-6.75.1-.06.19-.12.29-.15,7.74-4.29,20.03-4.24,27.64.15,3.26,1.88,5.16,4.27,5.63,6.73.11.46.15.92.15,1.38Z"/>
        <path class="cls-24" d="M358.19,274.32v-7.26c0-2.87.73-7.24-4.31-7.24-4.37,0-8.26-1.82-10.98-5.1-.1.04-.19.1-.29.15-3.26,1.88-5.14,4.27-5.62,6.75-.11.44-.15.88-.15,1.32v4.96c0,1.46.48,2.91,1.44,4.27.96,1.38,2.41,2.66,4.33,3.78,7.72,4.45,20.22,4.45,27.92,0-5.44,2.15-12.34,1.11-12.34-1.63Z"/>
        <path class="cls-29" d="M342.62,270.99c-7.71-4.45-7.71-11.67,0-16.12,7.71-4.45,20.21-4.45,27.92,0,7.71,4.45,7.71,11.67,0,16.12-7.71,4.45-20.21,4.45-27.92,0Z"/>
        <path class="cls-48" d="M376.32,254.03v6.18c0,.46-.04.92-.15,1.38-.48,2.45-2.38,4.85-5.63,6.73-3.45,1.99-7.86,3.09-12.34,3.28-5.58.27-11.31-.82-15.58-3.3-1.92-1.11-3.35-2.38-4.33-3.76-.67-.94-1.09-1.94-1.28-2.93-.11-.44-.15-.9-.15-1.34v-6.28c0-2.93,1.92-5.85,5.77-8.07.34-.19.69-.38,1.05-.56,7.76-3.89,19.51-3.7,26.87.56,3.87,2.24,5.81,5.17,5.79,8.11Z"/>
        <path class="cls-49" d="M342.62,262.04c-7.71-4.45-7.71-11.67,0-16.12,7.71-4.45,20.21-4.45,27.92,0,7.71,4.45,7.71,11.67,0,16.12-7.71,4.45-20.21,4.45-27.92,0Z"/>
        <path class="cls-24" d="M358.23,265.33c-.02.57-.05,1.15-.05,1.72v4.55c-5.57.25-11.3-.84-15.58-3.31-1.9-1.11-3.35-2.38-4.32-3.76-.68-.93-1.09-1.92-1.29-2.92-.11-.45-.16-.91-.16-1.36v-6.27c0,2.9,1.95,5.84,5.8,8.06,4.26,2.47,10.01,3.55,15.6,3.28Z"/>
      </g>
      <g>
        <g>
          <path class="cls-48" d="M391.98,257.97c0-.25-.12-.52-.37-.77l-12.68-12.66c-2.53-2.53-6.23-4.66-10.61-6.12l-21.92-7.32c-.98-.33-2.13-.27-2.83.13l-18.13,10.47c-.39.23-.6.54-.6.86,0,.25,0,2.77,0,3.09,0,.25.12.52.37.77l12.68,12.66c2.53,2.53,6.23,4.66,10.61,6.12l21.92,7.32c.98.33,2.13.27,2.83-.13l18.13-10.47c.39-.23.6-.54.6-.86v-3.09Z"/>
          <path class="cls-38" d="M391.98,257.97c0-.25-.12-.52-.37-.77l-12.68-12.66c-2.53-2.53-6.23-4.66-10.61-6.12l-21.92-7.32c-.98-.33-2.13-.27-2.83.13l-18.13,10.47c-.39.23-.6.54-.6.86,0,.25,0,2.77,0,3.09,0,.25.12.52.37.77l12.68,12.66c2.53,2.53,6.23,4.66,10.61,6.12l21.92,7.32c.98.33,2.13.27,2.83-.13l18.13-10.47c.39-.23.6-.54.6-.86v-3.09Z"/>
          <path class="cls-38" d="M371.68,239.74c-1.07-.48-2.18-.93-3.35-1.32l-21.92-7.32c-.98-.33-2.13-.27-2.83.13l-18.13,10.47c-.39.23-.6.54-.6.86,0,.25,0,2.77,0,3.09,0,.25.12.52.37.77l12.68,12.66c2.53,2.53,6.23,4.66,10.61,6.12l21.92,7.32c.4.13.83.19,1.25.2v-32.98Z"/>
          <path class="cls-44" d="M348.51,262.11l21.92,7.32c.98.33,2.13.27,2.83-.13l18.13-10.47c.39-.23.6-.54.6-.86,0-.25-.12-.52-.37-.77l-12.68-12.66c-2.53-2.53-6.23-4.66-10.61-6.12l-21.92-7.32c-.98-.33-2.13-.27-2.83.13l-18.13,10.47c-.39.23-.6.54-.6.86,0,.25.12.52.37.77l12.68,12.66c2.53,2.53,6.23,4.66,10.61,6.12Z"/>
        </g>
        <g>
          <path class="cls-48" d="M373.29,239.81v9.51c0,.39-.03.78-.13,1.17-.41,2.08-2.01,4.1-4.77,5.69-2.92,1.69-6.65,2.61-10.45,2.77-4.72.23-9.57-.7-13.19-2.79-1.62-.94-2.84-2.01-3.67-3.18-.57-.8-.92-1.64-1.09-2.48-.1-.37-.13-.76-.13-1.14v-9.59c0-2.48,1.62-4.95,4.88-6.83.29-.16.58-.32.89-.47,6.57-3.29,16.51-3.13,22.74.47,3.28,1.9,4.92,4.38,4.9,6.86Z"/>
          <path class="cls-49" d="M344.77,246.59c-6.52-3.77-6.52-9.88,0-13.64,6.52-3.77,17.1-3.77,23.63,0,6.52,3.77,6.52,9.88,0,13.64-6.52,3.77-17.1,3.77-23.63,0Z"/>
          <path class="cls-24" d="M357.98,249.37c-.02.48-.04.98-.04,1.46v8.13c-4.71.21-9.56-.71-13.18-2.8-1.61-.94-2.84-2.01-3.66-3.18-.57-.79-.92-1.63-1.09-2.47-.1-.38-.13-.77-.13-1.15v-9.58c0,2.45,1.65,4.94,4.91,6.82,3.6,2.09,8.47,3.01,13.2,2.78Z"/>
        </g>
        <g>
          <g>
            <path class="cls-49" d="M356.58,248.83c-4.36,0-8.45-.98-11.52-2.75-3.11-1.8-4.74-4.16-4.57-6.65l.02-.28c.29-.86.76-2.61,1.72-6.19l9.48-35.37.05-.12c.75-2.02,2.68-3.38,4.82-3.38s4.08,1.36,4.82,3.39l.09.25,9.44,35.23c.97,3.6,1.44,5.35,1.73,6.21v.26c.18,2.49-1.45,4.85-4.56,6.65-3.07,1.77-7.16,2.75-11.52,2.75Z"/>
            <path class="cls-48" d="M356.58,194.68c1.9,0,3.61,1.21,4.27,3l.07.17,5.57,20.79,3.88,14.48,1.28,4.77.36,1.34c.03.1.05.19.08.29.12,2.24-1.39,4.39-4.28,6.05-2.98,1.72-6.97,2.67-11.23,2.67s-8.25-.95-11.23-2.67c-2.89-1.67-4.41-3.82-4.28-6.06.03-.1.06-.19.08-.28l.36-1.34,1.28-4.77,3.88-14.48,5.57-20.8.06-.16c.66-1.79,2.38-2.99,4.27-2.99M356.58,193.51c-2.47,0-4.56,1.57-5.37,3.76h-.02s-11.29,42.12-11.3,42.12h.01c-.17,2.59,1.44,5.21,4.86,7.19,3.26,1.88,7.54,2.83,11.81,2.83s8.55-.94,11.81-2.83c3.43-1.98,5.03-4.6,4.86-7.19h.01s-11.29-42.11-11.29-42.11h-.03c-.81-2.2-2.9-3.77-5.37-3.77h0Z"/>
          </g>
          <path class="cls-48" d="M357.91,249.34c-.65-.37-8.69-5.27-6.56-21.67,2.22-17.09,5.21-27.63,5.21-32.09v-2.07c-2.46,0-4.54,1.57-5.35,3.76h-.02s-11.29,42.12-11.3,42.12h.01c-.17,2.59,1.44,5.21,4.86,7.19,3.6,2.08,8.44,2.97,13.15,2.75Z"/>
        </g>
        <g>
          <g>
            <path class="cls-48" d="M360.14,181.5c0-1.97-1.59-3.56-3.56-3.56s-3.56,1.59-3.56,3.56h0v15.49c0,.08,0,.16.03.24.03.18.11.36.23.53.18.25.44.48.78.68.77.45,1.8.64,2.81.59.81-.03,1.6-.23,2.23-.59.59-.34.93-.77,1.02-1.21.02-.08.03-.17.03-.25v-15.48s0,0,0,0c0,0,0,0,0,0Z"/>
            <path class="cls-24" d="M356.88,183.54c0,.1,0,.21,0,.31v15.18c-1,.04-2.04-.15-2.81-.6-.34-.2-.6-.43-.78-.68-.12-.17-.2-.35-.23-.53-.02-.08-.03-.16-.03-.24v-15.49c0,.52.35,1.05,1.04,1.45.77.44,1.8.64,2.81.59Z"/>
          </g>
          <path class="cls-29" d="M357.43,178.9c.47.27.47.71,0,.98-.47.27-1.22.27-1.69,0-.47-.27-.47-.71,0-.98.47-.27,1.22-.27,1.69,0Z"/>
          <path class="cls-13" d="M355.73,179.72s-.06.05-.09.08c.03.03.05.05.09.08.47.27,1.22.27,1.69,0,.04-.02.06-.05.09-.08-.03-.03-.05-.05-.09-.08-.47-.27-1.22-.27-1.69,0Z"/>
        </g>
      </g>
    </g>
    <g id="Ear_Drops" data-name="Ear Drops">
      <g>
        <path class="cls-41" d="M291.39,338.33c-1.32-.76-2.73-1.43-4.2-2.02-2.73-1.09-4.58-3.67-4.58-6.61v-14.2h-26.36v14.2c0,2.94-1.85,5.52-4.58,6.61-1.48.59-2.89,1.26-4.2,2.02-6.07,3.5-9.1,8.09-9.1,12.68v62.51c0,4.59,3.03,9.18,9.1,12.68,12.13,7,31.8,7,43.93,0,6.07-3.5,9.1-8.09,9.1-12.68v-62.51c0-4.59-3.03-9.18-9.1-12.68Z"/>
        <path class="cls-44" d="M300.49,354.01v44.5c-.38,4.31-3.4,8.53-9.09,11.81-6.55,3.78-15.31,5.51-23.89,5.21v-44.5c3.85.13,7.75-.15,11.46-.83,4.56-.83,8.84-2.29,12.44-4.38,5.69-3.27,8.71-7.5,9.09-11.81Z"/>
        <path class="cls-24" d="M291.4,399.44c-3.19,1.85-6.9,3.2-10.87,4.07v3.32c3.97-.87,7.68-2.22,10.87-4.06,5.69-3.27,8.71-7.5,9.09-11.81v-3.32c-.38,4.31-3.4,8.53-9.09,11.81Z"/>
        <path class="cls-24" d="M291.4,391.58c-3.19,1.85-6.9,3.2-10.87,4.07v3.32c3.97-.87,7.68-2.22,10.87-4.06,5.69-3.27,8.71-7.5,9.09-11.81v-3.32c-.38,4.31-3.4,8.53-9.09,11.81Z"/>
        <path class="cls-24" d="M291.4,383.71c-3.19,1.85-6.9,3.2-10.87,4.07v3.32c3.97-.87,7.68-2.22,10.87-4.06,5.69-3.27,8.71-7.5,9.09-11.81v-3.32c-.38,4.31-3.4,8.53-9.09,11.81Z"/>
        <path class="cls-24" d="M291.4,375.85c-3.19,1.85-6.9,3.2-10.87,4.07v3.32c3.97-.87,7.68-2.22,10.87-4.06,5.69-3.27,8.71-7.5,9.09-11.81v-3.32c-.38,4.31-3.4,8.53-9.09,11.81Z"/>
        <path class="cls-7" d="M248.38,413.72v-60.83c0-3.81.8-6.7,5.37-9.01,9.11-4.61,10.27-8.34,10.27-13.02v-15.36h-7.77v14.2c0,2.94-1.85,5.52-4.58,6.61-1.48.59-2.89,1.26-4.21,2.02-6.07,3.5-9.1,8.09-9.1,12.68v62.51c0,4.59,3.03,9.18,9.1,12.68,8.73,5.04,21.35,6.43,32.26,4.22-25.24,1.74-31.35-8.97-31.35-16.71Z"/>
        <path class="cls-4" d="M291.39,338.33c-1.32-.76-2.73-1.43-4.2-2.02-2.73-1.09-4.58-3.67-4.58-6.61v-14.2h-2.88v16.93c0,2.49,2.15,4.86,4.63,6.21,2.48,1.35,10.37,4.78,12.28,8.53,1.82,3.57,1.22,10.65,1.22,19.06v44.6c0,5.46-2.27,13.35-12.4,18.1,2.1-.74,4.13-1.61,5.95-2.66,6.07-3.5,9.09-7.91,9.09-12.74v-62.51c0-4.59-3.03-9.18-9.1-12.68Z"/>
      </g>
      <g>
        <path class="cls-48" d="M291.4,330.6v5.43c.02,3.24-2.13,6.5-6.44,8.99-8.57,4.94-22.46,4.94-31.05,0-2.13-1.24-3.75-2.66-4.82-4.2-1.07-1.51-1.6-3.13-1.6-4.75v-5.52c0-.49.04-.98.17-1.47.53-2.75,2.62-5.41,6.25-7.5.11-.06.21-.13.32-.17,8.61-4.77,22.27-4.71,30.73.17,3.62,2.09,5.73,4.75,6.27,7.48.13.51.17,1.02.17,1.53Z"/>
        <path class="cls-24" d="M271.24,343.21v-8.08c0-3.2.81-8.06-4.79-8.06-4.86,0-9.19-2.02-12.21-5.67-.11.04-.21.11-.32.17-3.62,2.09-5.71,4.75-6.25,7.5-.13.49-.17.98-.17,1.47v5.52c0,1.62.53,3.24,1.6,4.75,1.07,1.53,2.69,2.96,4.82,4.2,8.59,4.94,22.48,4.94,31.05,0-6.05,2.39-13.72,1.24-13.72-1.81Z"/>
        <path class="cls-29" d="M253.93,339.51c-8.57-4.95-8.57-12.97,0-17.92,8.57-4.95,22.47-4.95,31.04,0,8.57,4.95,8.57,12.97,0,17.92-8.57,4.95-22.47,4.95-31.04,0Z"/>
        <path class="cls-48" d="M291.4,320.65v6.88c0,.51-.04,1.02-.17,1.53-.53,2.73-2.64,5.39-6.27,7.48-3.84,2.22-8.74,3.43-13.72,3.64-6.2.3-12.57-.92-17.33-3.67-2.13-1.24-3.73-2.64-4.82-4.18-.75-1.04-1.21-2.15-1.43-3.26-.13-.49-.17-1-.17-1.49v-6.98c0-3.26,2.13-6.5,6.41-8.97.38-.21.77-.43,1.17-.62,8.63-4.33,21.7-4.11,29.88.62,4.31,2.49,6.46,5.75,6.44,9.02Z"/>
        <g>
          <path class="cls-49" d="M269.45,332.74c-5.77,0-11.19-1.29-15.26-3.64-3.97-2.29-6.16-5.31-6.16-8.5s2.19-6.21,6.16-8.5c4.07-2.35,9.48-3.64,15.26-3.64s11.19,1.29,15.26,3.64c3.97,2.29,6.16,5.31,6.16,8.5s-2.19,6.21-6.16,8.5c-4.07,2.35-9.48,3.64-15.26,3.64Z"/>
          <path class="cls-48" d="M269.45,308.99c5.68,0,11,1.27,14.99,3.57,3.8,2.2,5.9,5.05,5.9,8.04s-2.09,5.84-5.9,8.04c-3.99,2.3-9.31,3.57-14.99,3.57s-11-1.27-14.99-3.57c-3.8-2.2-5.9-5.05-5.9-8.04,0-2.99,2.09-5.84,5.9-8.04,3.99-2.3,9.31-3.57,14.99-3.57M269.45,307.93c-5.62,0-11.24,1.24-15.52,3.71-8.57,4.95-8.57,12.97,0,17.92,4.29,2.47,9.9,3.71,15.52,3.71s11.24-1.24,15.52-3.71c8.57-4.95,8.57-12.97,0-17.92-4.29-2.47-9.9-3.71-15.52-3.71h0Z"/>
        </g>
        <path class="cls-24" d="M271.28,333.22c-.03.63-.05,1.28-.05,1.91v5.06c-6.19.28-12.56-.93-17.32-3.68-2.12-1.23-3.73-2.64-4.81-4.18-.75-1.03-1.21-2.14-1.43-3.25-.13-.5-.18-1.01-.18-1.51v-6.97c0,3.22,2.17,6.5,6.45,8.96,4.73,2.74,11.13,3.95,17.35,3.65Z"/>
      </g>
      <g>
        <path class="cls-29" d="M269.45,275.48c-6.48,0-11.73,5.25-11.73,11.73v30.09h0c0,1.73,1.15,3.47,3.44,4.79,4.58,2.64,12.01,2.64,16.59,0,2.29-1.32,3.44-3.06,3.44-4.79h0v-30.09c0-6.48-5.25-11.73-11.73-11.73Z"/>
        <path class="cls-46" d="M276.2,277.63h0c-1.91-1.35-4.23-2.15-6.75-2.15-6.48,0-11.73,5.25-11.73,11.73v30.09h0c0,1.73,1.15,3.47,3.44,4.79,4.58,2.64,12.01,2.64,16.59,0,1.33-.77,2.23-1.69,2.79-2.66-1.45.97-5.21,2.96-9.84,1.19-4.77-1.82-6.14-6.4-6.14-12.72v-19.6c0-7.81,6.32-14.32,11.64-10.69Z"/>
        <path class="cls-3" d="M273.29,304.27h0c-1.69,0-3.05-1.37-3.05-3.05v-16.71c0-1.69,1.37-3.05,3.05-3.05h0c1.69,0,3.05,1.37,3.05,3.05v16.71c0,1.69-1.37,3.05-3.05,3.05Z"/>
        <path class="cls-3" d="M276.34,310.97c0,1.69-1.37,3.05-3.05,3.05s-3.05-1.37-3.05-3.05,1.37-3.05,3.05-3.05,3.05,1.37,3.05,3.05Z"/>
      </g>
    </g>
    <g id="Ear">
      <g id="Speech_Bubble" data-name="Speech Bubble">
        <path class="cls-2" d="M127.3,334.54c12.55.03,23.95,4.95,32.45,12.94l3.75,3.95c7.03,8.31,11.29,19.07,11.26,30.79-.06,26.23-21.44,47.51-47.67,47.46-11.72-.03-22.45-4.33-30.74-11.41l-3.94-3.75c-7.94-8.54-12.81-19.97-12.79-32.51.06-26.23,21.44-47.51,47.67-47.46Z"/>
      </g>
      <g>
        <path class="cls-9" d="M105.63,339.72c1.49,5.13,2.45,9.46,5.84,12.17,3.4,2.71,8.03,4.16,8.03,4.16,0,0,7.17-6.54,14.77-4.93,7.6,1.61,16.18,7.72,16.42,19.67.24,11.95-7.39,20.03-9.76,25.24-2.37,5.21-5.92,17.44-15.81,17.84v16.21c-26.77,0-45.5-25.23-45.5-48.09s13.67-35.83,26.01-42.28Z"/>
        <path class="cls-6" d="M105.63,339.72c1.49,5.13,2.45,9.46,5.84,12.17,3.4,2.71,8.03,4.16,8.03,4.16,0,0,7.17-6.54,14.77-4.93,7.6,1.61,16.18,7.72,16.42,19.67.24,11.95-7.39,20.03-9.76,25.24-2.37,5.21-5.92,17.44-15.81,17.84v16.21c-26.77,0-45.5-25.23-45.5-48.09s13.67-35.83,26.01-42.28Z"/>
        <path class="cls-10" d="M119.17,380.23c.41-.75,1.22-1.21,2.06-1.42,1.26-.32,2.61-.16,3.81.32s2.27,1.26,3.21,2.16c-1.83-3.54-5.33-6.16-9.23-6.94-.55-.11-1.2-.16-1.6.25-.3.31-.34.79-.36,1.22-.05,1.14-.06,2.29.16,3.41.16.82.46,1.78,1.01,2.43.79.93.65-.89.94-1.42Z"/>
        <path class="cls-10" d="M120.99,364.99c.03.65.42,1.22.79,1.76,1.11,1.59,2.23,3.19,3.66,4.49,1.44,1.3,3.24,2.28,5.18,2.37-.92-.04-2.74-2.43-3.21-3.14-.9-1.38-1.11-2.82-.11-4.25.64-.91,1.6-1.56,2.6-2.04,3.88-1.85,8.7-1.36,12.3.98-2.17-3.33-5.97-5.55-9.95-5.79-2.27-.14-4.56.37-6.58,1.41-1.01.52-1.96,1.16-2.8,1.92-.65.59-1.94,1.33-1.89,2.3Z"/>
        <path class="cls-33" d="M117.88,391.9c0,2.52,2.15,3.96,3.48,5.83.25-.77.07-1.61-.13-2.39-.21-.78-.43-1.6-.27-2.39.17-.79.89-1.54,1.69-1.42.26.04.52.16.78.14,1.12-.09-.71-1.67-1.03-1.89-.97-.64-2.31-.79-3.3-.13-.75.5-1.21,1.35-1.21,2.25Z"/>
        <g>
          <path class="cls-31" d="M114.56,364.1c2.45-7.57,9.76-12.73,17.73-12.32s14.87,6.65,16.87,14.58c1.08,4.25.78,8.75-.47,12.93-1.33,4.43-3.94,8.04-6.26,11.97-4.11,6.96-5.96,16.83-13.9,20.68-2.76,1.34-5.96,1.41-8.81.29-3.23-1.26-5.08-4.04-5.13-7.49-.02-1.11-1.75-1.12-1.73,0,.05,3.3,1.45,6.25,4.25,8.08,2.32,1.52,5.32,2.14,8.06,1.86,9.55-.99,13.25-11.32,16.75-18.72,2.18-4.61,5.46-8.61,7.41-13.33,1.86-4.51,2.66-9.46,1.98-14.31-1.21-8.64-7.43-16.27-16.19-17.93-9.67-1.84-19.21,3.91-22.23,13.25-.34,1.06,1.33,1.52,1.67.46h0Z"/>
          <path class="cls-31" d="M144.93,371.59c.33-7.08-5.73-12.86-12.65-12.99-7.38-.14-13.44,5.21-15.47,12.08-1.14,3.86-1.24,8.44,1.11,11.89.62.91,2.12.05,1.49-.87-2.35-3.44-1.93-8.1-.5-11.83,1.4-3.64,4.08-6.8,7.68-8.39,3.62-1.6,8.03-1.61,11.45.51s5.34,5.73,5.16,9.6c-.05,1.11,1.68,1.11,1.73,0h0Z"/>
          <path class="cls-31" d="M124.58,391.32c-.94-2.32-3.27-3.44-5.61-2.45-1.73.74-2.35,2.42-1.97,4.21.41,1.92,3.28,2.92,3.09,4.87-.22,2.3-1.82,4.4.37,6.3,1.98,1.72,5.03,1.4,7.16.18,2.34-1.34,3.78-3.8,4.6-6.29,1.81-5.47.83-11.52-2.13-16.39-2.91-4.8-7.44-8.04-13.1-8.51-1.11-.09-1.1,1.64,0,1.73,8.3.69,14.12,8.73,14.41,16.7.15,4.2-1.19,10.21-5.71,11.75-2.01.69-5.25.14-4.56-2.59.38-1.52,1.15-3.13.34-4.64-.76-1.42-2.72-2.23-2.82-3.94-.15-2.54,3.38-2.62,4.25-.47.41,1.02,2.09.57,1.67-.46h0Z"/>
          <path class="cls-31" d="M120.16,365.55c1.09,3.17,3.1,5.72,5.87,7.59s6.35,2.18,9.49,1.69c1.1-.17.63-1.84-.46-1.67-2.7.42-5.86.03-8.16-1.52s-4.14-3.83-5.07-6.55c-.36-1.05-2.03-.6-1.67.46h0Z"/>
          <path class="cls-31" d="M106.29,345.08c1.67,5.31,6.06,9.93,11.31,11.8,1.05.37,1.5-1.3.46-1.67-4.67-1.66-8.63-5.89-10.1-10.59-.33-1.06-2-.61-1.67.46h0Z"/>
          <path class="cls-31" d="M124.26,414.47v9.88c0,1.11,1.73,1.12,1.73,0v-9.88c0-1.11-1.73-1.12-1.73,0h0Z"/>
        </g>
      </g>
      <g id="Speech_Bubble-2" data-name="Speech Bubble">
        <path class="cls-35" d="M127.3,334.54c12.55.03,23.95,4.95,32.45,12.94l3.75,3.95c7.03,8.31,11.29,19.07,11.26,30.79-.06,26.23-21.44,47.51-47.67,47.46-11.72-.03-22.45-4.33-30.74-11.41l-3.94-3.75c-7.94-8.54-12.81-19.97-12.79-32.51.06-26.23,21.44-47.51,47.67-47.46Z"/>
      </g>
    </g>
    <g id="Mouth">
      <g id="Speech_Bubble-3" data-name="Speech Bubble">
        <path class="cls-2" d="M127.3,195.08c12.55.03,23.95,4.95,32.45,12.94l3.75,3.95c7.03,8.31,11.29,19.07,11.26,30.79-.06,26.23-21.44,47.51-47.67,47.46-11.72-.03-22.45-4.33-30.74-11.41l-3.94-3.75c-7.94-8.54-12.81-19.97-12.79-32.51.06-26.23,21.44-47.51,47.67-47.46Z"/>
      </g>
      <g id="Speech_Bubble-4" data-name="Speech Bubble">
        <path class="cls-35" d="M127.3,195.08c12.55.03,23.95,4.95,32.45,12.94l3.75,3.95c7.03,8.31,11.29,19.07,11.26,30.79-.06,26.23-21.44,47.51-47.67,47.46-11.72-.03-22.45-4.33-30.74-11.41l-3.94-3.75c-7.94-8.54-12.81-19.97-12.79-32.51.06-26.23,21.44-47.51,47.67-47.46Z"/>
      </g>
      <g id="Mouth-2" data-name="Mouth">
        <path class="cls-11" d="M85.58,242.93c3.07.97,6.1,1.42,8.99,1.48,1.17.03,2.32,0,3.41-.08,5.89-.45,10.92-2.36,14.08-4.5.37-.24.71-.5,1.03-.76,4.78-3.86,9.8-1.77,14.09-1.77s9.33-2.09,14.11,1.77c.32.26.66.51,1.03.76,3.14,2.14,8.17,4.05,14.06,4.5,1.11.08,2.25.11,3.43.08,2.9-.06,5.92-.51,8.99-1.48-13.42-3.41-15.56-13.56-25.92-20-7.21-4.47-11.15,1.35-15.7,1.35s-8.48-5.82-15.69-1.35c-10.38,6.44-12.5,16.59-25.92,20Z"/>
        <path class="cls-12" d="M94.53,244.33s.03.05.05.08c2.98,4.39,5.57,25.76,32.61,25.76s29.65-21.36,32.63-25.76c.02-.03.03-.05.05-.08h-3.64c-2.49,1-5.9,4.21-11.21,6.93-4.42,2.28-10.18,4.22-17.83,4.22s-13.4-1.93-17.83-4.22c-5.29-2.72-8.7-5.94-11.2-6.93h-3.64Z"/>
        <path class="cls-11" d="M116.07,253.93c3.19.95,6.85,1.54,11.12,1.54,7.64,0,13.4-1.93,17.83-4.22.71-.35,1.38-.72,2.01-1.09,0-.23-.03-.45-.11-.68-.18-.48-.53-.87-.92-1.22-1.83-1.69-4.23-2.67-6.66-3.17-1.56-.32-3.12-.45-4.7-.51-1.05-.03-3.94-.55-4.81.02-.87.58-.05,1.53.45,2.16.77.95,1.5,1.75,1.3,3.09-.14,1.11-.95,2.04-1.87,2.69-1.82,1.32-4.17,1.71-6.4,1.72-2.25,0-4.49-.35-6.74-.37-.18,0-.35,0-.5.05Z"/>
        <path class="cls-33" d="M97.99,244.33h.18c2.49,1,5.9,4.21,11.2,6.93,5.28-2.96,11.36-4.65,17.83-4.65s12.56,1.69,17.83,4.65c5.31-2.72,8.72-5.94,11.21-6.93h.16c-5.89-.45-10.92-2.36-14.06-4.5-3.35,1.5-8.8,3.31-15.14,3.31s-11.78-1.82-15.12-3.31c-3.15,2.14-8.19,4.05-14.08,4.5Z"/>
        <path class="cls-32" d="M168.95,242.34c-7.87-2-11.76-6.36-15.88-10.97-2.78-3.11-5.65-6.33-9.87-8.95-5.03-3.12-8.56-1.5-11.67-.08-1.5.69-2.93,1.34-4.35,1.34s-2.83-.65-4.33-1.34c-3.12-1.42-6.65-3.04-11.67.08-4.23,2.62-7.11,5.85-9.89,8.96-4.11,4.61-8,8.96-15.86,10.96-.26.07-.45.3-.45.57,0,.27.17.51.42.59,2.85.9,5.82,1.39,8.81,1.49.46.78.92,1.92,1.48,3.35,3.08,7.84,8.82,22.43,31.49,22.43s28.42-14.59,31.51-22.43c.57-1.45,1.03-2.6,1.48-3.35,2.99-.1,5.96-.59,8.82-1.49.26-.08.43-.32.42-.59,0-.27-.19-.5-.45-.57ZM157.57,247.9c-2.98,7.57-8.52,21.66-30.38,21.66s-27.39-14.09-30.37-21.66c-.45-1.14-.83-2.11-1.21-2.88.79,0,1.58-.03,2.38-.09h.05c1.08.45,2.36,1.34,3.96,2.46,1.88,1.31,4.22,2.94,7.08,4.41,5.58,2.88,11.5,4.28,18.1,4.28s12.52-1.4,18.1-4.28c2.87-1.47,5.22-3.1,7.11-4.42,1.6-1.11,2.87-2,3.95-2.45h.03c.81.06,1.62.08,2.41.08-.38.77-.76,1.75-1.21,2.88ZM100.15,244.7c4.66-.64,9.03-2.19,12.25-4.38.38-.25.73-.51,1.07-.78,3.38-2.73,6.88-2.31,10.26-1.91,2.4.28,4.52.28,6.92,0,3.39-.4,6.89-.81,10.26,1.91.34.27.69.54,1.08.79,3.14,2.14,7.61,3.72,12.24,4.37-.76.47-1.59,1.04-2.53,1.69-1.86,1.29-4.17,2.9-6.97,4.33-5.41,2.79-11.15,4.15-17.55,4.15s-12.14-1.36-17.55-4.15c-2.79-1.43-5.1-3.04-6.95-4.33-.95-.66-1.78-1.23-2.54-1.7ZM160.11,243.79c-.96,0-3.7-.06-3.7-.06-5.15-.4-10.29-2.04-13.75-4.4-.36-.24-.69-.48-1-.73-3.76-3.04-7.69-2.58-11.16-2.17-2.33.27-4.3.28-6.64,0-1.23-.15-2.52-.3-3.83-.3-2.4,0-4.9.5-7.33,2.47-.31.24-.63.49-.98.72-3.49,2.36-8.63,4.01-13.78,4.41,0,0-2.35.06-3.68.06-2.19-.07-4.37-.36-6.49-.87,6.87-2.27,10.54-6.39,14.41-10.73,2.72-3.05,5.54-6.21,9.62-8.74,4.48-2.78,7.56-1.37,10.53,0,1.62.74,3.16,1.45,4.83,1.45s3.22-.7,4.85-1.45c2.98-1.36,6.06-2.77,10.53,0,4.07,2.53,6.89,5.68,9.61,8.73,3.87,4.34,7.55,8.46,14.43,10.74-2.12.52-4.3.8-6.49.87Z"/>
      </g>
    </g>
    <g id="Nose">
      <g id="Speech_Bubble-5" data-name="Speech Bubble">
        <path class="cls-2" d="M127.3,55.65c12.55.03,23.95,4.95,32.45,12.94l3.75,3.95c7.03,8.31,11.29,19.07,11.26,30.79-.06,26.23-21.44,47.51-47.67,47.46-11.72-.03-22.45-4.33-30.74-11.41l-3.94-3.75c-7.94-8.54-12.81-19.97-12.79-32.51.06-26.23,21.44-47.51,47.67-47.46Z"/>
      </g>
      <g id="Nose-2" data-name="Nose">
        <path class="cls-9" d="M79.63,103.11c.06-26.23,21.44-47.51,47.67-47.46.01,0,.03,0,.04,0-.87,2.82-2.43,5.77-2.6,7.31-.2,1.9-1.89,3.28,7.25,18.11,9.14,14.83,18.19,29.22,20.12,32.73,1.93,3.51,2.72,10.38-1.91,13.85-4.64,3.47-11.65,5.53-18.59,5.53-1.44,6.23-2.08,11.7,1.52,17.21-1.98.25-4,.39-6.05.38-11.72-.03-22.45-4.33-30.74-11.41l-3.93-3.75c-7.94-8.54-12.81-19.97-12.79-32.51Z"/>
        <path class="cls-6" d="M79.63,103.11c.06-26.23,21.44-47.51,47.67-47.46.01,0,.03,0,.04,0-.87,2.82-2.43,5.77-2.6,7.31-.2,1.9-1.89,3.28,7.25,18.11,9.14,14.83,18.19,29.22,20.12,32.73,1.93,3.51,2.72,10.38-1.91,13.85-4.64,3.47-11.65,5.53-18.59,5.53-1.44,6.23-2.08,11.7,1.52,17.21-1.98.25-4,.39-6.05.38-11.72-.03-22.45-4.33-30.74-11.41l-3.93-3.75c-7.94-8.54-12.81-19.97-12.79-32.51Z"/>
        <path class="cls-10" d="M118.39,112.3c.73-.16,1.51-.22,2.21.04.7.26,1.29.92,1.28,1.67,0,.7-.49,1.29-.97,1.8-1.81,1.94-3.81,3.74-5.23,5.98-1.42,2.24-2.14,5.34-.79,8.18-.5.33-1.66-.4-2.14-.75s-.78-.9-1.01-1.45c-2.31-5.78-.08-14.02,6.65-15.48Z"/>
        <path class="cls-33" d="M138.92,123.21c2.64,0,3.45,2.1,1.82,3.83-1.63,1.73-4.97,2.82-11.88,2.53.38.26,6.35-6.17,10.06-6.35Z"/>
        <g>
          <path class="cls-31" d="M131.62,148.22c.13,0,.26-.03.38-.09.4-.21.55-.71.34-1.11-1.55-2.95-1.58-7.92-.1-13.08,10.3-.97,14.32-2.67,18.44-5.63,3.1-2.23,5.8-8.75,1.75-15.65-1.64-2.78-5.31-8.7-9.21-14.97-5.21-8.4-11.13-17.92-13.93-22.77-4.86-8.4-4.57-10.04-2.59-15.63.15-.43-.07-.9-.5-1.05-.42-.15-.89.07-1.05.5-2.22,6.27-2.23,8.42,2.72,16.99,2.82,4.87,8.73,14.4,13.96,22.81,3.89,6.26,7.56,12.17,9.18,14.94,3.54,6.02,1.32,11.61-1.29,13.49-3.95,2.84-7.85,4.46-18.18,5.38l-.55.05-.16.53c-1.79,5.82-1.77,11.37.06,14.85.15.28.43.44.73.44Z"/>
          <path class="cls-31" d="M111.53,128.88c-2.24-3.3-2.23-7.64.05-12.22.2-.41.7-.57,1.1-.37.41.2.57.69.37,1.1-2.56,5.17-1.5,8.6-.16,10.57,1.7,2.5,4.88,4,7.89,3.76,3.12-.26,5.31-1.11,8.11-3.11.81-.58,1.6-1.3,2.43-2.06,2.09-1.91,4.47-4.07,7.58-4.15,2.71-.08,3.36,1.56,3.47,2.06.38,1.65-.88,3.59-2.92,4.51-2.82,1.27-5.75,1.4-9.14,1.56l-1.19.05c-.06,0-.12,0-.17-.01-2.66,1.76-4.93,2.53-8.03,2.8-.26.02-.53.03-.79.03-3.34,0-6.72-1.74-8.59-4.5ZM138.94,124.03c-2.5.06-4.54,1.92-6.52,3.72-.39.36-.79.72-1.2,1.08,2.9-.14,5.27-.34,7.55-1.37,1.41-.64,2.17-1.88,2-2.65-.16-.69-1.18-.79-1.72-.79-.04,0-.08,0-.11,0Z"/>
        </g>
      </g>
      <g id="Speech_Bubble-6" data-name="Speech Bubble">
        <path class="cls-35" d="M127.3,55.65c12.55.03,23.95,4.95,32.45,12.94l3.75,3.95c7.03,8.31,11.29,19.07,11.26,30.79-.06,26.23-21.44,47.51-47.67,47.46-11.72-.03-22.45-4.33-30.74-11.41l-3.94-3.75c-7.94-8.54-12.81-19.97-12.79-32.51.06-26.23,21.44-47.51,47.67-47.46Z"/>
      </g>
    </g>
    <g id="Ear-2" data-name="Ear">
      <path class="cls-50" d="M258.42,17.66c43.39-25.17,92.33-4.86,92.47,63.17.1,47.2-20.87,75.68-34.19,108.36-10.6,26.02-12.71,43.69-39.28,59.1-15.56,9.03-32.24,3.54-39.6-15.81-3.36-8.85-6.75-13.5-11.52-24.35-4.37-9.94-6.63-17.27-6.67-36.26-.05-22.41-.02-9.42-.07-36.17-.04-19.74,4.7-33.71,4.68-44.15-.05-22.12,1.53-54.95,34.18-73.89Z"/>
      <path class="cls-18" d="M265.91,121.32c-9.18-7.87-15.82-19.72-9.24-37.74,2.11-5.77,8.22-8.38,14.04-8.28,4.32.08,8.6,1.14,12.92.94,1.91-.09,3.85-.44,5.52-1.38,2.74-1.53,3.61-4.09,3.67-7.07.06-3.43-.79-6.8-1.2-10.2-.41-3.4-.33-7.05,1.41-10,5.55-9.37,17.48-.58,22.67,4.37,18.47,17.6,21.56,45.49,15.76,69.22,10.25-41.93,7.6-71.63-12.47-83.22-16.45-9.5-35.74-5.32-51.76,8.3-23.26,19.77-31.75,59.27-1.32,75.06Z"/>
      <path class="cls-18" d="M268.49,135.1c7.62,5.69,10.5,11.42,7.64,16.14-2.86,4.72-9.42,5.76-6.54,11.08,2.88,5.32-2.22,17.33-3.23,22.71-1.01,5.38,8.12,5.38,9.99-1.91.88,6.44.34,21.32-10.03,24.36-10.37,3.04-14.55-8.84-9.87-17.66,4.69-8.81,9-14.85,9.33-20.56.32-5.71-1.83-7.56-11.33-16.65-8.26-7.91-5.83-22.41,7.76-20.08,2.03.35,4.08,1.18,6.27,2.57Z"/>
      <path class="cls-23" d="M259.21,145.32c-.24.9-.31,1.87-.15,2.91.3,1.98,1.39,3.91.97,5.86-.22,1.01-.83,1.88-1.43,2.71-1.62-1.31-3.08-2.84-4.47-4.38-1.34-1.47-2.36-3.22-3.12-5.05-.97-2.34-1.53-4.92-1.15-7.43.38-2.51,1.79-4.93,4.03-6.13,2.2-1.17,4.8-1.78,7.28-1.6,2.03.15,5.36,1.24,6.97,2.64,2.61,2.27-2.96,4.38-4.63,5.34-2.07,1.19-3.7,2.94-4.3,5.12Z"/>
      <path class="cls-18" d="M256.93,115.37c10.35,8.49,23.04,11.33,38.22,7.1-4.48-11.9-23.15-26.45-45.64-30.74-.71,8.2,3.11,20.24,7.42,23.64Z"/>
      <path class="cls-23" d="M269.48,122.68c-11.78-3.19-20.86-13.6-23.05-25.58-2.41-12.04.99-24.56,6.82-35.13,8.62-16.13,24.73-28.98,43.4-30.37,24.81-2.09,40.58,15.98,42.67,39.52,2.25,26.99-7.53,54.15-19.11,78.08-2.59,5.39-5.18,10.76-7.59,16.24,1.7-4.81,4.68-11.84,6.72-16.63,10.7-24.93,22-58.92,15.23-85.91-2.8-11.07-9.98-21.36-20.81-25.62-22.56-8.62-47.4,5.76-58.38,25.9-12.6,20.98-11.87,49.92,14.1,59.51h0Z"/>
      <path class="cls-23" d="M246.08,90.95c24.42,4.35,55.31,19.17,53.27,48.26-.27,9.48-4.97,17.31-12.23,23.14-10.82,7.77-7.84,18.56-9.22,30.36-.56,6.05-3.49,12.52-9.19,15.48-6.67,3.69-14.02-.4-14.95-7.84-.88-6.2,1.38-12.09,4.6-17.18,2.63-4.66,6.38-9.58,6.25-15.01-.14-5.68-5.62-9.25-9.16-13.12-2.91-3.23-5.72-7.02-6.42-11.46-1.16-8.76,7.1-13.59,14.89-10.94,5.61,1.73,9.83,6.32,12.4,11.43-3.78-7.25-12.4-13.73-20.78-10.64-5.52,2.13-6.77,8.98-3.87,13.78,1.97,3.67,5,6.77,8.12,9.53,3.4,2.85,6.85,6.56,7.14,11.28.33,6.09-3.54,11.43-6.29,16.48-3.66,5.66-7.14,16.96-.19,21.23,4.57,2.37,9.86-1.7,12-5.78,5.06-10.28-.09-23.27,6.26-33.53,1.55-2.64,4.02-4.63,6.25-6.55,4.24-3.57,7.97-7.59,9.81-12.84,9.7-31.81-22.4-49.52-48.68-56.07h0Z"/>
      <path class="cls-18" d="M234.19,109.14c-.82-.74-1.79-1.03-2.99-.31-4.97,2.99.24,15.1,2.81,18.16.71.85,1.54,1.64,2.57,2.06.94.39,1.99.45,3.01.43,2.12-.04,8.36-.45,9.66-2.45,1.69-2.58-3-5.13-4.82-6.24-2.95-1.8-5.22-4.44-7.22-7.22-.87-1.2-1.77-3.33-3.01-4.44Z"/>
      <path class="cls-5" d="M278.67,17.22c-5.05,1.8-8.09,4.53-4.73,8.58,2.94,3.54,9.55.83,13.32.2,17.49-2.89,35.2,4.41,47.89,16.81,1.36,1.33,3.63.18,3.41-1.71-.3-2.61-2.99-7.22-4.43-8.97-9.32-11.34-20.05-16.45-35.17-17.13-2.19-.1-12.85-.45-20.3,2.21Z"/>
      <path class="cls-5" d="M323.78,101.55c-.58,12.23-2.97,26.97-11.48,36.14-1.15,1.24-2.68,2.46-4.34,2.16-1.86-.34-2.86-2.38-3.25-4.23-.84-3.97-.1-7.97-1.3-11.87-1.13-3.67-2.97-7.09-5.22-10.18-4.4-6.03-10.37-10.84-16.75-14.63-2.63-1.56-5.42-3.06-7.24-5.51-1.82-2.45-2.32-6.22-.21-8.43,1.47-1.55,3.8-1.95,5.93-1.86,5.42.22,11.46,2.81,15.87-.35,7.11-5.1.27-13.25,3.9-19.04,3.56-5.68,10.18-1.85,13.51,1.57,8.95,9.19,11.13,23.04,10.63,35.37-.01.29-.02.58-.04.87Z"/>
      <path class="cls-5" d="M262.3,214.9c-5.25,2.97-9.38,8.22-10.1,14.21-.72,5.99,2.46,12.49,8.02,14.82,3.65,1.53,7.85,1.21,11.66.12,7.96-2.28,14.79-7.8,19.41-14.67,4.78-7.11,10.87-20.4,6.21-28.8-6.33-11.42-14.63,4.09-19.91,7.54-4.7,3.07-10.43,4.03-15.29,6.79Z"/>
      <path class="cls-5" d="M246.04,154.62c-1.55-.14-2.87.4-3.6,2.06-.62,1.41-.19,3.07.58,4.4.77,1.33,1.85,2.46,2.66,3.76,2,3.22,2.2,7.2,2.64,10.97.23,1.96.7,4.15,2.38,5.19,1.64,1.01,3.88.45,5.35-.81,6.19-5.3,5.92-13.34.8-18.98-1.54-1.69-6.92-6.24-10.81-6.59Z"/>
    </g>
    <g id="Character">
      <g id="Bottom">
        <path class="cls-34" d="M557.96,429.35c-1.18-16.23.77-34.07-.58-59.41h0c-.12-6.49-.36-13.45-.79-19.63-1.47-20.8-4.67-27.91-4.97-31.92,0,0-1.57-39.85-2.93-85.36-.64-21.41-6.84-27.89-11.8-39.25h-58.92c-6.58,28.04-8.56,95.12-8.37,124.02.1,14.73,4.86,91.93,4.98,93.74.42,6.43-.14,8.97-2.66,11.67-5.28,5.66-12.93,11.06-19.55,15.99.96,2.53,10.1,4.05,14.04,2.12,6.29-3.08,12.54-7.77,14.68-9.36,5.43-4.02,12.38-7.25,12.47-13.37.01-.76.22-.97.18-1.09.1-3.57,8.44-56.29,9.13-68.53.6-10.52-.68-28.37-.68-28.37l6.89-50.5s5.21,33.83,9.44,51.81c3.45,14.64,9.13,39.61,13,57.63h0c3.72,20.75,9.07,40.93,10.01,51.31.29,2.48,3.09,26.83,4.25,32.4,1.16,5.58,13.31,5.72,14.09-3.87.52-6.38-1.72-26.99-1.94-30.05Z"/>
        <g>
          <path class="cls-27" d="M442.31,447.29c-.34,0-.88,3.7.93,5.29,2.09,1.84,8.25,4.89,16.44,3.92,8.19-.97,12.65-3.45,15.95-6.16s7.93-6.52,11.64-7.3c3.44-.72,7.19-2.24,8.31-3.29,1.11-1.05,1.01-5.78,1.01-5.78l-54.27,13.3Z"/>
          <path class="cls-17" d="M493.92,415.77s.62.03.82,1.12c.24,1.3.47,5.09.99,7.23.72,2.98,1.16,9.07.68,11.48-.48,2.41-6.1,4.04-9.69,5.36-3.67,1.35-7.93,4.18-11.68,7.2-3.88,3.13-12,6.22-17.33,6.24-8.14.03-13.39-2.23-14.98-5.17-1.97-3.64-1.56-7.33,7.83-11.57,1.78-.8,8.04-4.42,10.17-5.73,2.26-1.39,4.42-2.93,6.41-4.67,1.01-.88,1.98-1.81,2.89-2.79.8-.87,1.92-1.91,2.4-3,.11-.25.19-.53.28-.79.28-.74.48-1.42.63-2.19.26-1.29.56-2.85,2.25-2.54,2.77.5,5.5,1.18,8.18,2.06.92.3,1.97.84,2.49,1.69.61,1,.7,2.25.73,3.4.02.55,0,1.1,0,1.64,0,.23-.1.65.22.56.31-.09.67-.9.79-1.18.27-.61.44-1.26.73-1.86.33-.68.71-1.39,1.18-1.97.45-.54.94-1.06,1.5-1.49.51-.39,1.16-.58,1.61-1.02.57-.56.84-1.56.89-2.02Z"/>
          <path class="cls-8" d="M449.04,438.37c11.77.94,16.6,9.87,17.05,14.38-2.93,1-5.95,1.66-8.39,1.67-8.14.03-13.72-2.23-15.32-5.17-1.86-3.43-1.73-7.79,6.65-10.87Z"/>
          <g>
            <path class="cls-19" d="M467.89,440.29c.13,0,.26-.04.37-.13.25-.2.29-.56.09-.81-1.62-2.03-7.51-6.35-11.8-5.93-.32.03-.55.31-.52.63.03.32.3.55.63.52,4-.38,9.51,3.9,10.79,5.5.11.14.28.21.44.22Z"/>
            <path class="cls-19" d="M473,437.39c.13,0,.26-.04.37-.13.25-.2.29-.56.09-.81-1.62-2.03-7.51-6.36-11.8-5.93-.32.03-.55.31-.52.63.03.32.3.55.63.52,4-.39,9.51,3.9,10.79,5.5.11.14.28.21.44.22Z"/>
            <path class="cls-19" d="M477.74,434.07c.13,0,.26-.04.37-.13.25-.2.29-.56.09-.81-1.62-2.03-7.53-6.35-11.8-5.93-.32.03-.55.31-.52.63.03.32.3.55.63.52,4-.38,9.51,3.9,10.79,5.5.11.14.28.21.44.22Z"/>
            <path class="cls-19" d="M482.38,430.74c.13,0,.25-.04.36-.12.25-.19.3-.56.1-.81-2.23-2.87-8.5-6.42-12.78-6-.32.03-.55.31-.52.63.03.32.3.54.63.52,3.86-.38,9.78,3.01,11.76,5.56.11.15.28.22.45.22Z"/>
          </g>
        </g>
        <g>
          <path class="cls-27" d="M541.98,467.61c.32,5.56,1.19,9.24,3.16,12.5,1.97,3.26,5.69,4.28,9.46,3.33,3.77-.95,8.59-3.51,9.67-8.3,1.08-4.79,1.71-8.08.85-13.23l-23.14,5.7Z"/>
          <path class="cls-17" d="M557.82,427.37c1.55.12,2.01,7.58,2.91,15.06.96,8.01,3.35,11.32,4.21,17.89.98,7.5-.26,10.85-2.89,15.39-2.63,4.54-11.93,8.99-16.52,2.49-3.74-5.3-3.89-11.17-3.55-18.66.35-7.74-.18-13.11-.5-18.98-.3-5.62-1.55-11.28-.2-11.91.1.83.2,1.87.31,2.68.14,1,.14,2.04.5,2.99.16.42.5.86.65.18.1-.46.05-.94,0-1.4-.23-2.07.82-2.24,1.38-2.4,1.22-.35,6.04-.94,7.2-1.02,1.19-.08,5.28-.26,5.81.42.36.46.41,1.22.52,2.17.13,1.13.39,1.96.43,1.6.07-.81-.08-2.91-.1-3.42-.02-.49-.1-1.15-.11-1.64,0-.48-.01-.96-.04-1.44Z"/>
          <path class="cls-8" d="M565.37,464.66c.27,4.66-.85,7.85-2.9,11.4-2.63,4.54-12.68,9-17.27,2.5-2.28-3.23-2.89-7.05-3.21-10.95,2.75-5.01,19.04-7.21,23.38-2.95Z"/>
          <g>
            <path class="cls-19" d="M545.37,459.45c.06,0,.13-.02.19-.05.06-.03,7.25-3,14.24-1.38.31.07.62-.12.69-.43.07-.31-.12-.62-.43-.69-7.39-1.71-14.72,1.34-14.99,1.46-.29.14-.41.48-.27.77.11.22.34.35.58.32Z"/>
            <path class="cls-19" d="M559.45,452.43c.22-.02.41-.17.49-.39.1-.3-.06-.63-.36-.73-6.96-2.36-14.68,1.18-14.97,1.33-.28.15-.39.49-.24.78.15.28.5.38.78.24.07-.03,7.59-3.46,14.07-1.26.08.03.16.04.24.03Z"/>
            <path class="cls-19" d="M559.21,447.15c.21-.02.41-.16.48-.38.11-.3-.05-.63-.35-.74-7.65-2.74-14.99,1.12-15.26,1.29-.27.17-.36.52-.19.79.17.27.53.36.79.19.06-.04,7.15-3.74,14.27-1.19.08.03.17.04.25.03Z"/>
            <path class="cls-39" d="M558.83,441.96c.21-.02.4-.16.48-.37.11-.3-.04-.63-.34-.74-7.17-2.69-15.06,1.28-15.36,1.45-.28.16-.37.51-.21.79.16.28.51.38.79.21.07-.04,7.72-3.86,14.38-1.37.09.03.17.04.26.03Z"/>
          </g>
        </g>
        <g>
          <path class="cls-52" d="M538.46,193.96c6.98,12.73,12.16,23.13,12.86,60.98.71,37.85,1.62,55.94,1.77,60.51.15,4.56,2.8,12.72,5.14,35.2,2.33,22.48.19,48.8.19,48.8,0,0-2.22,4.08-10.82,4.85-7.93.71-11.86-2.27-11.86-2.27,0,0-10.87-43.77-13.88-57.31-3.01-13.54-12.77-65.56-12.77-65.56l-5.29,42.05s2.42,12.41,0,32.12c-2.42,19.71-6.68,39.91-6.68,39.91,0,0-5.39,2.09-12.18,1.99-6.78-.1-11.57-3.63-11.57-3.63,0,0-5.86-57.81-5.86-80.16,0-22.34,2-84.14,9.03-117.22l61.92-.25Z"/>
          <path class="cls-51" d="M551.11,332.92c-.28-1.3-.55-2.53-.79-3.7-2.19-10.45-3.19-31.62-3.15-48.94,0-5.23.02-10.64-.03-16.39-.2-22.54-1.93-47.78-13.34-64.06l-.92.64c7.66,10.94,10.89,26.08,12.23,41.71-11.31-1.5-13.79-12.68-17.17-28.07-.46-2.1-.94-4.28-1.46-6.51l-1.09.25c.52,2.23.99,4.4,1.45,6.5,3.37,15.36,6.04,27.52,18.35,28.99.55,6.88.75,13.84.81,20.55.05,5.74.04,11.15.03,16.38-.04,17.38.96,38.6,3.18,49.17.25,1.18.51,2.41.8,3.71,2.93,13.52,7.32,33.81,5.13,69.13.46-.26.85-.51,1.17-.76,2.08-34.97-2.29-55.13-5.21-68.61ZM481.37,231.77c1.58,7.44,11.38,11.4,16.77,12.69l.82,4.54c-.26,4.02-.55,8.25-.85,12.61-1.64,24.04-3.45,54.83-2.22,60.44,3.24,14.76,2.28,24.12.54,41.11-.18,1.74-.36,3.55-.55,5.46-.98,9.87-2.07,19.55-2.79,25.75.41-.09.8-.18,1.16-.27.72-6.22,1.78-15.7,2.74-25.37.19-1.91.38-3.72.55-5.46,1.75-17.11,2.71-26.53-.56-41.47-1.19-5.45.68-37.28,2.24-60.12.19-2.77.37-5.48.55-8.13l4.8,26.64-.79,41.01,5.29-42.05-6.43-39.04s-12.98.33-21.28-8.36Z"/>
        </g>
      </g>
      <g id="Top">
        <g id="Arm">
          <path class="cls-39" d="M491.83,129.47c-8.97,2.55-14.08,3.05-19.92,11.84-5.98,9.01-13.8,20.08-22.8,33.89l-23.59-11.02-9.46,16.44s25.37,16.3,34.74,19.47c7.01,2.37,8.66-.72,13.85-6.13,5.77-6.02,22.72-25.69,22.72-25.69l4.45-38.8Z"/>
          <path class="cls-54" d="M449.12,175.2c3.99,1.35,9.37,5.5,10.1,7.77-2.29-6.97-6.98-8.7-8.89-9.62l-1.21,1.85Z"/>
        </g>
        <path class="cls-22" d="M550.08,220.19c-2.65-12.08-5.97-25.61-6.33-28.26-2.07-15.37.66-23.17,1.67-29.9,2.19-14.65-2.01-26.92-5.42-29.8,0,0-3.54-.81-7.78-1.82-2.55-.61-3.42-.76-7.3-1.31-8.62-1.22-16.34-.86-19.56-.54-1.59.16-9.11,1.46-9.11,1.46-2.28.53-6.44,1.29-6.45,1.29,0,0-5.2,4.25-10.07,12.95-3.72,6.64-5.83,12.19-6.48,26.41-.84,18.1-1.23,38.32-2.81,52.53,15,9.22,60.81,13.07,79.64-3.01Z"/>
        <g id="Head">
          <path class="cls-27" d="M525.01,71.22c3.51-1.12,7.36-.88,10.91.12,2.69.76,5.85,2.39,7.64,4.53,2.13,2.56,2.87,6.88,2.87,13.32v52.13h-25.7l4.28-70.1Z"/>
          <path class="cls-27" d="M523.52,118.68c-.43,1.17-1.55-.11-2.62.63-.84.57-2,.27-2.91.07-.53-.12-1.05-.26-1.56-.43-2.75-.91-5.24-2.52-7.49-4.32-3.4-2.71-6.42-5.87-9.54-8.89-3.04-2.94-6.2-5.77-8.91-9.01-2.05-2.45-4.66-4.29-6.34-7.07-1.19-1.97-3.14-6.05-2.41-8.45-.4,1.3-.79,2.6-1.19,3.9-2.55-5.87-.69-13.06,3.59-17.83,4.28-4.76,10.6-7.32,16.94-8.18,5.65-.77,11.46-.29,16.91,1.38,3.09.95,6.1,2.29,8.65,4.29,2.55,1.99,4.63,4.66,5.59,7.75.24.78.42,1.61.9,2.27.35.48.83.85,1.28,1.24,2.91,2.57,4.22,7.14,4.24,10.93.02,4.39-1.66,8.75-3.47,12.68-1.5,3.23-10.52,15.99-11.65,19.05Z"/>
          <path class="cls-34" d="M524.17,124.63c-.03-2.4.3-18.45.3-18.45.1.9,4.48,3.34,8.37-1.3,4-4.77,4.15-9.58,1.8-12.72-2.6-3.47-9.37-3.38-10.01,2.48-3.36-.13-4.99-1.58-3.66-7.12-.15-1.63-1.39-2.38-2.86-2.77-3.53-.92-7.14-1.55-10.6-2.72-3.46-1.17-6.82-2.94-9.17-5.73.12,1.98.59,3.93,1.41,5.74-4.12-1.54-7.23-5.51-7.75-9.88-1.07,1.88-2.46,3.56-3.64,5.37-1.95,2.99-2.44,6.14-2.83,9.61-.42,3.73-.67,7.47-.8,11.22-.45,12.78,3.74,18.13,7.83,20.27,2.74,1.44,6.27,2.14,10.19,2.17l-.22,4.01c-.09,2.01.1,3.5-1.86,4.16-1.31.44-4.42,1.04-4.42,1.04,0,0-4.54,7.86,7.99,8.56,19.98,1.12,27.98-8.17,27.98-8.17,0,0-1.34-.41-4.42-1.36-3.26-1.01-3.61-2.02-3.63-4.42Z"/>
          <g>
            <g>
              <path class="cls-45" d="M506.19,104.4l-7.55,2.43c.63,2.16,2.83,3.37,4.92,2.7,2.09-.67,3.26-2.96,2.63-5.13Z"/>
              <path class="cls-50" d="M505.72,106.14c-2.12-.05-3.91,1.42-4.36,3.41.7.2,1.46.21,2.2-.03,1.5-.48,2.51-1.8,2.74-3.31-.19-.03-.38-.07-.59-.07Z"/>
            </g>
            <path class="cls-27" d="M488.54,87.21l4.73-2.63c-.68-1.34-2.3-1.84-3.6-1.12-1.31.73-1.81,2.41-1.13,3.75Z"/>
            <path class="cls-27" d="M511.28,87.58l-5.24-1.63c.4-1.47,1.9-2.3,3.34-1.85,1.44.45,2.29,2.01,1.89,3.49Z"/>
            <path class="cls-27" d="M493.93,91.89c.1,1.23-.83,2.33-2.07,2.47-1.24.13-2.33-.76-2.42-1.99-.1-1.23.83-2.33,2.07-2.47,1.24-.13,2.33.76,2.43,1.99Z"/>
            <path class="cls-27" d="M510.29,92.26c.1,1.23-.83,2.33-2.07,2.47-1.24.13-2.33-.76-2.42-1.99-.1-1.23.83-2.33,2.07-2.47,1.24-.13,2.33.76,2.43,1.99Z"/>
          </g>
          <polygon class="cls-40" points="492.12 99.07 499.34 101.73 500.69 88.7 492.12 99.07"/>
          <path class="cls-40" d="M502.75,120.81c8.58-.88,16.57-3.54,18.71-12.54,0,0,.18,7.35-2.92,9.95-5.73,4.8-15.96,5.63-15.96,5.63l.16-3.04Z"/>
        </g>
        <g>
          <g>
            <path class="cls-43" d="M502.5,125.68c-.93.34-10.67,3.79-10.67,3.79-10.44,8.83-16.31,17.93-18.86,23.8-3.05,7.03-3.46,14.79-3.64,25.84-.16,9.62-6.4,90.13-6.4,104.12,1.04,3.72,12.34,9.22,12.34,9.22.45-27.93,3.49-101.53,6.1-127.11,3.36-22.53,15.16-33.63,18.92-36.21,1.58-.49,2.16-1.15,2.2-3.44Z"/>
            <path class="cls-36" d="M494.68,129.47c-1.08,1.07-2.19,2.11-3.29,3.16-1.1,1.05-2.24,2.06-3.35,3.09l.12-.39.86,2.81.08.27-.23.2c-2.79,2.52-5.61,5.01-8.46,7.46l.18-.34c-.5,3.27-.98,6.54-1.52,9.8l-1.55,9.8c.02-1.66.16-3.31.27-4.96.13-1.65.31-3.3.47-4.95.33-3.3.77-6.58,1.23-9.85l.03-.2.16-.14c2.83-2.48,5.69-4.92,8.58-7.33l-.14.48-.7-2.85-.06-.25.18-.14c1.18-.95,2.34-1.93,3.55-2.87,1.2-.94,2.38-1.89,3.6-2.8Z"/>
          </g>
          <g>
            <path class="cls-43" d="M524.19,125.31c-.04,1.27-.06,2.47.09,3.12-11.13,19.92-10.54,33.14-10.65,48.45-.24,32.15,2.76,129.58,2.76,129.58,0,0,31,4.28,40.09-8,0,0-.6-73.83-8.97-99.26-3.5-10.63,2.69-37.08.79-53.08-.79-6.68-2.59-13.2-7.61-14.77-4.14-1.3-16.5-6.04-16.5-6.04Z"/>
            <path class="cls-36" d="M519.31,177.66c.26-2.42.92-4.77,1.58-7.1.71-2.32,1.5-4.62,2.34-6.9.84-2.28,1.77-4.52,2.71-6.75.95-2.23,1.89-4.47,2.94-6.66l-.02.43-3.44-9.12-.12-.33.27-.21,4.3-3.37-.11.39c-.5-1.62-1-3.25-1.47-4.88-.47-1.63-.96-3.26-1.4-4.9.62,1.58,1.21,3.18,1.81,4.77.6,1.59,1.17,3.19,1.74,4.79l.08.22-.19.16-4.14,3.56.14-.54,3.57,9.07.08.21-.1.22c-.99,2.2-2.02,4.39-2.98,6.6-.98,2.21-1.9,4.44-2.82,6.67-.94,2.23-1.82,4.47-2.63,6.75-.84,2.27-1.6,4.56-2.13,6.92Z"/>
          </g>
        </g>
        <g id="Tablet">
          <g id="Otoscope">
            <g>
              <path class="cls-37" d="M472.65,228.84c.72,1.25.89,2.76.37,4.1-.24.62-.55,1.26-.92,1.89-1.87,3.26-5.11,6.22-8.82,8.36-.52.3-1.04.58-1.58.84-3.29,1.64-6.84,2.62-10.08,2.62-.93,0-1.81-.08-2.61-.24-1.33-.26-2.46-1.15-3.14-2.32l-.18-.32-53.7-93.02,7.33-4.23,19.36-11.18,53.97,93.48h0Z"/>
              <path class="cls-36" d="M461.7,244.03c-3.29,1.64-6.84,2.62-10.08,2.62-.93,0-1.81-.08-2.61-.24-1.33-.26-2.46-1.15-3.14-2.32l-.18-.32-53.7-93.02,7.33-4.23c19.94,34.53,37.07,64.2,49.48,85.7,3.75,6.49,7.63,10.03,11.35,11.37.52.19,1.04.34,1.56.44Z"/>
              <path class="cls-7" d="M466.13,225.55c-3.59,6.22-12.37,11.29-19.56,11.29-2.55,0-4.59-.63-5.93-1.81l1.13,1.96c1.33.6,2.95.92,4.8.92,3.76,0,7.94-1.33,11.65-3.47,3.71-2.14,6.95-5.1,8.83-8.36.85-1.48,1.36-2.91,1.55-4.27l-1.01-1.75c.16,1.63-.33,3.51-1.47,5.48ZM462.53,219.32c-3.59,6.22-12.37,11.29-19.56,11.29-2.55,0-4.59-.63-5.93-1.81l1.13,1.96c1.33.6,2.95.92,4.8.92,3.76,0,7.94-1.33,11.65-3.47,3.71-2.14,6.95-5.1,8.83-8.36.85-1.48,1.36-2.91,1.55-4.27l-1.01-1.75c.16,1.63-.33,3.51-1.47,5.48Z"/>
            </g>
            <g>
              <path class="cls-20" d="M441.05,187.39h0c1.53-1.44,1.87-3.74.82-5.56l-17.68-30.62c-1.46-2.53-4.9-3.03-7.02-1.03h0c-1.53,1.44-1.87,3.74-.82,5.56l17.68,30.62c1.46,2.53,4.9,3.03,7.02,1.03Z"/>
              <path class="cls-37" d="M425.25,162.11h0c-1.1.64-2.51.26-3.14-.84l-2.79-4.84c-.64-1.1-.26-2.51.84-3.14h0c1.1-.64,2.51-.26,3.14.84l2.79,4.84c.64,1.1.26,2.51-.84,3.14Z"/>
              <path class="cls-1" d="M425.25,162.11h0c-1.1.64-2.51.26-3.14-.84l-2.79-4.84c-.64-1.1-.26-2.51.84-3.14h0c1.1-.64,2.51-.26,3.14.84l2.79,4.84c.64,1.1.26,2.51-.84,3.14Z"/>
            </g>
            <g>
              <path class="cls-30" d="M413.64,120.88l5.53,9.57c.21.37.39.76.52,1.18.75,2.19.34,4.99-1.4,8.01-1.84,3.2-4.87,6.11-8.38,8.34-4.35,2.8-9.45,4.58-14.02,4.57-2.05,0-3.79-.35-5.21-1.01-.97-.44-1.77-1.05-2.39-1.76-.3-.3-.54-.65-.74-1.01l-5.57-9.65c-1.36-2.35-1.17-5.58.89-9.14.19-.31.38-.63.59-.93,4.42-6.72,13.94-12,21.81-12,4.14,0,7.05,1.46,8.4,3.82Z"/>
              <path class="cls-42" d="M405.25,117.05c-8.25,0-18.27,5.79-22.39,12.93-4.12,7.14-.78,12.93,7.46,12.93,8.25,0,18.27-5.79,22.39-12.93,4.12-7.14.78-12.93-7.46-12.93Z"/>
            </g>
            <g>
              <path class="cls-20" d="M402.44,113.26l5.35,9.27c.84,1.57.68,3.7-.69,6.05-2.78,4.85-9.6,8.78-15.19,8.77-2.79,0-4.76-.98-5.68-2.57l-5.26-9.12c-3.43-5.93-1.4-13.52,4.53-16.95,5.93-3.43,13.52-1.38,16.94,4.55Z"/>
              <path class="cls-25" d="M380.97,125.66l5.26,9.12c.92,1.59,2.89,2.58,5.68,2.57,4.42.01,9.59-2.44,12.94-5.87-5.76,4.73-11.57,1.06-14.71-4.37-3.15-5.45.15-7.53,2.45-12.49,2.3-4.96-2.78-7.43-7.11-5.91-5.93,3.43-7.96,11.02-4.53,16.95Z"/>
            </g>
            <g>
              <path class="cls-37" d="M388.63,102l4.29,7.42c.07.12.13.25.17.39.25.73.11,1.66-.47,2.66-.61,1.06-1.62,2.03-2.78,2.77-1.44.93-3.14,1.52-4.65,1.52-.68,0-1.26-.12-1.73-.33-.32-.15-.59-.35-.79-.58-.1-.1-.18-.22-.25-.33l-4.3-7.45c-.45-.78-.39-1.85.3-3.03.06-.1.12-.21.2-.31,1.47-2.23,4.63-3.98,7.24-3.98,1.38,0,2.34.49,2.79,1.27Z"/>
              <path class="cls-1" d="M388.63,102l4.29,7.42c.07.12.13.25.17.39.25.73.11,1.66-.47,2.66-.61,1.06-1.62,2.03-2.78,2.77-1.44.93-3.14,1.52-4.65,1.52-.68,0-1.26-.12-1.73-.33-.32-.15-.59-.35-.79-.58-.1-.1-.18-.22-.25-.33l-4.3-7.45c-.45-.78-.39-1.85.3-3.03.06-.1.12-.21.2-.31,1.47-2.23,4.63-3.98,7.24-3.98,1.38,0,2.34.49,2.79,1.27Z"/>
              <path class="cls-37" d="M385.85,100.73c-2.74,0-6.06,1.92-7.43,4.29-1.37,2.37-.26,4.29,2.48,4.29,2.74,0,6.06-1.92,7.43-4.29,1.37-2.37.26-4.29-2.48-4.29Z"/>
            </g>
            <g>
              <path class="cls-37" d="M363.63,73.9c-11.19,5.35-32.65,8.05-42.2,8.05h0c-.61,0-1.21.4-1.68,1.2-.93,1.61-.93,4.21,0,5.81.46.8,1.07,1.2,1.68,1.2,9.55,0,31.01,2.7,42.2,8.05v-24.32Z"/>
              <path class="cls-7" d="M363.63,73.9c-11.19,5.35-32.65,8.05-42.2,8.05-.61,0-1.21.4-1.68,1.2-.93,1.61-.93,4.21,0,5.81.28.48.61.8.95.99-.63-1.14-.76-3.03.76-4.17,1.14-.85,3.31-1.07,6.3-1.28,9.45-.68,17.71-1.08,27.29-3.83-1.1,3.86-1.18,10.31,1.14,14.76,2.75.83,5.29,1.76,7.44,2.79v-24.32Z"/>
              <path class="cls-37" d="M370.96,99.83h-6.53c-.32,0-.64-.03-.96-.11-1.71-.33-3.38-1.66-4.7-3.93-1.39-2.41-2.15-5.48-2.29-8.61-.19-3.89.57-7.89,2.3-10.88.78-1.34,1.66-2.34,2.62-3.02.66-.47,1.35-.76,2.05-.9.31-.08.63-.11.94-.11h6.6c2.05,0,4.08,1.34,5.63,4.03.13.24.27.48.39.74,2.72,5.42,2.58,13.62-.39,18.75-1.57,2.7-3.61,4.05-5.66,4.04Z"/>
              <path class="cls-37" d="M375.42,63.18c-5.29,3.57-15.45,9.77-15.45,22.88s10.15,19.31,15.45,22.88v-45.76Z"/>
              <path class="cls-7" d="M375.42,63.18c-5.29,3.57-15.45,9.77-15.45,22.88s10.15,19.31,15.45,22.88v-45.76Z"/>
              <path class="cls-30" d="M392.54,110.73h-11.7c-.57,0-1.15-.05-1.72-.19-3.07-.6-6.06-2.97-8.41-7.04-2.49-4.31-3.86-9.82-4.1-15.43-.34-6.97,1.03-14.14,4.12-19.48,1.39-2.4,2.97-4.19,4.7-5.41,1.17-.84,2.42-1.37,3.67-1.61.55-.14,1.13-.19,1.68-.19h11.82c3.66,0,7.31,2.4,10.09,7.21.24.43.48.86.69,1.32,4.86,9.7,4.62,24.39-.69,33.59-2.8,4.84-6.47,7.26-10.14,7.24Z"/>
              <path class="cls-42" d="M402.67,103.51c5.56-9.64,5.56-25.26,0-34.9-5.56-9.64-14.58-9.64-20.15,0-5.56,9.64-5.56,25.26,0,34.9,5.56,9.64,14.59,9.64,20.15,0Z"/>
              <path class="cls-30" d="M399.89,98.68c4.03-6.97,4.03-18.28,0-25.26-4.03-6.97-10.56-6.97-14.58,0-4.03,6.97-4.03,18.28,0,25.26,4.03,6.97,10.56,6.97,14.58,0Z"/>
              <path class="cls-37" d="M397.84,98.68c4.03-6.97,4.03-18.28,0-25.26-1.75-3.04-3.98-4.75-6.27-5.14-2.29.39-4.51,2.1-6.27,5.14-4.03,6.97-4.03,18.28,0,25.26,1.75,3.04,3.98,4.75,6.27,5.14,2.29-.39,4.51-2.1,6.27-5.14Z"/>
              <path class="cls-4" d="M397.84,98.68c4.03-6.97,4.03-18.28,0-25.26-1.75-3.04-3.98-4.75-6.27-5.14-2.29.39-4.51,2.1-6.27,5.14-4.03,6.97-4.03,18.28,0,25.26,1.75,3.04,3.98,4.75,6.27,5.14,2.29-.39,4.51-2.1,6.27-5.14Z"/>
              <path class="cls-4" d="M397.52,80.67c-.3-.49-.68-.98-1.23-1.16-.72-.24-1.52.14-2,.73-.48.59-.69,1.33-.89,2.06-.79,2.94-1.44,5.95-2.83,8.65-.67,1.29-1.5,2.5-2.02,3.87-.52,1.36-.67,2.95.02,4.23.75,1.39,2.5,2.14,4.02,1.75,1.44-.38,2.49-1.6,3.3-2.85,3.08-4.75,4.81-12.16,1.64-17.27Z"/>
              <path class="cls-7" d="M385.31,98.68c.44.76.91,1.44,1.4,2.04-.88-1.73-1.55-3.56-2-5.45-1.1-4.65-.88-9.57.34-14.19.77-2.93,2.01-5.86,4.27-7.88.87-.78,1.89-1.41,3.01-1.7,1.54-.41,3.21-.13,4.64.59-1.59-2.2-3.47-3.47-5.39-3.81-2.29.39-4.51,2.1-6.27,5.14-4.03,6.97-4.03,18.28,0,25.26Z"/>
            </g>
          </g>
          <g>
            <path class="cls-34" d="M398.73,164.14c-2.15-2.4-2.02-2.77-1.15-4.21.87-1.44,2.89-3.88,6.31-4.15,2.3-.18,4.61-.48,5.86,0,1.25.48.52,3.08-2.4,4.08-4.59,1.57-4.42,2.85-4.42,2.85,0,0,4.23-1.44,5.96-1.73,1.73-.29,5,.19,7.02.29,2.02.1,2.69,2.61-.58,3.86,0,0,2.55.13,3.7.18,2.59.13,3.61,1.39,1.78,3.19-.43.43-1.05.93-2.21,1.12,0,0,2.71-.3,2.87.6.44,2.57-1.16,3.43-6.47,5.62-5.06,2.09-5.83,5.02-4.58,6.85,0,0-2.24-1-4.26-2.09-1.48-.8-2.76-1.74-2.37-3.95,0,0-2.98.38-3.37-1.44-.38-1.83.29-4.04.29-4.04,0,0-1.85-.67-1.98-2.88-.13-2.21.73-3.37.73-3.37l-.73-.77Z"/>
            <path class="cls-40" d="M415.32,165.12c-1.11-.04-2.17-.17-3.34,0-1.19.24-2.14.84-3.09,1.37-1.88,1.11-3.73,2.29-5.43,3.71,2.08-.77,4.01-1.79,5.9-2.87.94-.54,1.86-1.16,2.79-1.48.97-.27,2.11-.41,3.16-.74Z"/>
            <path class="cls-40" d="M418.59,169.61c-1.17-.21-2.44-.1-3.59.28-1.16.36-2.24.89-3.29,1.45-2.08,1.15-4.06,2.44-5.86,4.01,2.2-.91,4.26-2.05,6.32-3.16,2.07-1.11,4.03-2.27,6.41-2.58Z"/>
          </g>
        </g>
        <g id="Arm-2" data-name="Arm">
          <path class="cls-40" d="M500.97,165.53c-4.28-3.19-6.43-4.42-8.42-4.98-1.99-.56-8.99-3.47-11.67-4.14-1.7-.42-2.39,2.28-.22,4.14,1.67,1.43,6,3.31,7.9,4.35,1.9,1.04,5.64,5.58,5.64,5.58l6.77-4.95Z"/>
          <path class="cls-34" d="M561.4,147.4c-4.24-9.03-8.21-9.56-18.46-13.75-5,6.73-1.82,30.46-1.82,30.46l5.17,25.36s-25.56-6.87-28.45-8.72c-2.89-1.85-10.65-10.19-13.25-12.69-3.54-3.4-5.3-2.94-7.1-2.67-5.9.88-7.19,1.38-8.44,2.17-1.25.79-1.15,2.29-1.15,2.29-1.57.2-3.91.15-4.21,2.72-.2,1.7-.09,2.06-.09,2.06,0,0-.56.06-1.02.58-1.3,1.51.93,6.73,2.35,8.01,1,.89,2.42,1.01,4.28.75,1.59-.22.85-1.83.85-1.83l2.22.13c4.79,3.4,5.04,10.15,11.37,11.64,1.34.31,4.09.28,7.74,1.5,13.65,4.58,36.02,18.48,48.18,19.52,11.87,1.02,11.53-5.3,11.71-12.57.17-6.48-5.66-45.96-9.88-54.97Z"/>
          <path class="cls-45" d="M545.78,186.98l.51,2.49c5.4,1.39,11.24,5.28,12.54,8.24-1.01-4.68-3.53-8.19-13.04-10.72Z"/>
          <g>
            <path class="cls-40" d="M487.9,169.85l7-1.41-6.85.44c-.11.33-.16.65-.15.97Z"/>
            <path class="cls-40" d="M483.6,174.63l8.06-1.05-8.07.11c-.03.29-.03.61,0,.93Z"/>
            <path class="cls-40" d="M484.66,178.18c.24.41.65.73,1.08.94.43.23.9.37,1.38.47l-.11-.08c.21.42.44.84.68,1.25l.17-.22c-.47-.08-.93.04-1.28.31-.36.27-.57.66-.7,1.05.21-.36.49-.67.82-.88.33-.19.74-.27,1.09-.2l.31.06-.14-.28c-.22-.42-.44-.84-.67-1.25l-.04-.06h-.07c-.45-.09-.9-.22-1.34-.38-.43-.18-.86-.38-1.17-.74Z"/>
            <path class="cls-40" d="M486.8,179.21c.8.17,2.92.21,2.92.21,0,0,.06.58,1,1.55.5.52,1.56,1.31,1.56,1.31l-2.22-.13s-.54-.99-2.54-1.37l-.72-1.55Z"/>
          </g>
        </g>
        <path class="cls-39" d="M542.2,132.02c12.14,4.34,15.37,5.59,19.08,13.14,3.72,7.55,5.7,21.4,7.44,28.98,1.73,7.58,3.84,29.13,3.84,32.61s-1.98,8.93-8.55,9.17c-6.57.25-15.49-2.97-26.02-7.56-10.53-4.59-15.61-7.11-15.61-7.11,0,0,2.77-14.33-.91-19.72l23.59,6.51-5.2-25.44s-3.65-22.89,2.35-30.58Z"/>
        <path class="cls-54" d="M545.05,188.03c6.2,1.73,12.52,5.84,16.73,11.9-.74-6.33-6.34-12.22-17.36-14.98l.63,3.07Z"/>
      </g>
    </g>
  </g>
  <path class="cls-16" d="M360.94,276.65c-3.29-10.05-5.81-20.48-7.46-31.19,3.29,10.06,5.81,20.48,7.46,31.19Z"/>
  <path class="cls-16" d="M360.94,276.65c-3.29-10.05-5.81-20.48-7.46-31.19,3.29,10.06,5.81,20.48,7.46,31.19Z"/>
  <path class="cls-16" d="M360.94,276.65c-3.29-10.05-5.81-20.48-7.46-31.19,3.29,10.06,5.81,20.48,7.46,31.19Z"/>
  <path class="cls-16" d="M360.94,276.65c-3.29-10.05-5.81-20.48-7.46-31.19,3.29,10.06,5.81,20.48,7.46,31.19Z"/>
</svg>