<?xml version="1.0" encoding="UTF-8"?>
<svg xmlns="http://www.w3.org/2000/svg" xmlns:xlink="http://www.w3.org/1999/xlink" viewBox="0 0 500 500">
  <defs>
    <style>
      .cls-1 {
        fill: #d3290a;
        opacity: .44;
      }

      .cls-2 {
        opacity: .6;
      }

      .cls-3 {
        fill: #ffadc1;
      }

      .cls-4 {
        fill: #592b22;
      }

      .cls-4, .cls-5, .cls-6, .cls-7, .cls-8, .cls-9, .cls-10, .cls-11, .cls-12, .cls-13, .cls-14, .cls-15, .cls-16, .cls-17, .cls-18, .cls-19, .cls-20, .cls-21, .cls-22 {
        mix-blend-mode: multiply;
      }

      .cls-4, .cls-15, .cls-17, .cls-19 {
        opacity: .21;
      }

      .cls-23 {
        fill: #1f110c;
      }

      .cls-24 {
        stroke: #ffcbd6;
      }

      .cls-24, .cls-25, .cls-26, .cls-8, .cls-27, .cls-28, .cls-29, .cls-30, .cls-31, .cls-32, .cls-15, .cls-33, .cls-34, .cls-17, .cls-35, .cls-36, .cls-37, .cls-38, .cls-39, .cls-19, .cls-40, .cls-41, .cls-42, .cls-43, .cls-44 {
        fill: none;
      }

      .cls-24, .cls-25, .cls-27, .cls-29, .cls-30, .cls-32, .cls-33, .cls-34, .cls-38, .cls-39, .cls-40, .cls-41 {
        stroke-linecap: round;
        stroke-linejoin: round;
      }

      .cls-24, .cls-38 {
        stroke-width: .37px;
      }

      .cls-25 {
        stroke-width: .19px;
      }

      .cls-25, .cls-27, .cls-32, .cls-33, .cls-38, .cls-40, .cls-41, .cls-42 {
        stroke: #282533;
      }

      .cls-26 {
        stroke-width: .25px;
      }

      .cls-26, .cls-8, .cls-28, .cls-31, .cls-15, .cls-17, .cls-35, .cls-36, .cls-37, .cls-19, .cls-42, .cls-43, .cls-44 {
        stroke-miterlimit: 10;
      }

      .cls-26, .cls-28, .cls-31, .cls-37, .cls-43, .cls-44 {
        stroke: #617bac;
      }

      .cls-5 {
        fill: url(#linear-gradient-4);
        opacity: .71;
      }

      .cls-45 {
        fill: #ffb3b5;
      }

      .cls-6 {
        fill: url(#linear-gradient-2);
      }

      .cls-6, .cls-20 {
        opacity: .46;
      }

      .cls-46 {
        fill: #cfb3af;
      }

      .cls-47 {
        fill: #e8e9ea;
      }

      .cls-48 {
        fill: #282533;
      }

      .cls-7, .cls-14 {
        opacity: .33;
      }

      .cls-8 {
        opacity: .39;
        stroke: #ff3736;
        stroke-width: .28px;
      }

      .cls-27, .cls-35 {
        stroke-width: .19px;
      }

      .cls-9 {
        fill: #04001c;
        opacity: .28;
      }

      .cls-10 {
        fill: #e295b1;
      }

      .cls-10, .cls-11 {
        opacity: .13;
      }

      .cls-49 {
        fill: #ffe9ef;
      }

      .cls-50 {
        opacity: .68;
      }

      .cls-28 {
        stroke-width: .23px;
      }

      .cls-51 {
        fill: #ffcbd6;
      }

      .cls-29 {
        stroke-width: .22px;
      }

      .cls-29, .cls-30, .cls-39 {
        stroke: #535083;
      }

      .cls-11 {
        fill: #9ac0ff;
      }

      .cls-52 {
        fill: #ffb2b0;
      }

      .cls-30 {
        stroke-width: .28px;
      }

      .cls-53 {
        fill: #e86984;
      }

      .cls-54, .cls-22 {
        fill: #ffa46a;
      }

      .cls-31 {
        stroke-width: .17px;
      }

      .cls-32 {
        stroke-width: .4px;
      }

      .cls-55 {
        fill: #ff0100;
      }

      .cls-12 {
        opacity: .3;
      }

      .cls-12, .cls-13, .cls-18, .cls-56 {
        fill: #535083;
      }

      .cls-57 {
        fill: #617bac;
      }

      .cls-58 {
        fill: #5e3128;
      }

      .cls-13 {
        opacity: .17;
      }

      .cls-14 {
        fill: url(#linear-gradient-5);
      }

      .cls-59 {
        fill: #e2cbbe;
      }

      .cls-60 {
        isolation: isolate;
      }

      .cls-15, .cls-17 {
        stroke-width: .71px;
      }

      .cls-15, .cls-19 {
        stroke: #d3290a;
      }

      .cls-16 {
        fill: url(#linear-gradient-6);
        opacity: .67;
      }

      .cls-61 {
        fill: #ffd28b;
      }

      .cls-62 {
        opacity: .91;
      }

      .cls-33 {
        stroke-width: .15px;
      }

      .cls-34 {
        stroke-width: 2.24px;
      }

      .cls-34, .cls-36 {
        stroke: #5e3128;
      }

      .cls-63 {
        fill: #361813;
      }

      .cls-17 {
        stroke: #592b22;
      }

      .cls-64 {
        fill: #caebfc;
      }

      .cls-35 {
        stroke: #ffe9ef;
      }

      .cls-65 {
        fill: #fccdd9;
      }

      .cls-66 {
        fill: #ff7293;
      }

      .cls-18 {
        opacity: .4;
      }

      .cls-36, .cls-42 {
        stroke-width: 1.49px;
      }

      .cls-37 {
        stroke-width: .35px;
      }

      .cls-39 {
        stroke-width: .34px;
      }

      .cls-19 {
        stroke-width: .67px;
      }

      .cls-40 {
        stroke-width: .41px;
      }

      .cls-67 {
        fill: #e9f2ff;
      }

      .cls-20 {
        fill: url(#linear-gradient-3);
      }

      .cls-41 {
        stroke-width: .38px;
      }

      .cls-68 {
        fill: #fff6e9;
      }

      .cls-21 {
        fill: url(#linear-gradient);
        opacity: .27;
      }

      .cls-22 {
        opacity: .32;
      }

      .cls-69 {
        fill: #fff9fb;
      }

      .cls-70 {
        fill: #79331f;
      }

      .cls-43 {
        stroke-width: .28px;
      }

      .cls-44 {
        stroke-width: .19px;
      }
    </style>
    <linearGradient id="linear-gradient" x1="398.51" y1="273.13" x2="397.23" y2="268.01" gradientUnits="userSpaceOnUse">
      <stop offset="0" stop-color="#ffb2b0" stop-opacity="0"/>
      <stop offset="1" stop-color="#ffb2b0"/>
    </linearGradient>
    <linearGradient id="linear-gradient-2" x1="407.55" y1="208.22" x2="405.6" y2="200.54" gradientUnits="userSpaceOnUse">
      <stop offset="0" stop-color="#ffb2b0" stop-opacity="0"/>
      <stop offset="1" stop-color="#e86984"/>
    </linearGradient>
    <linearGradient id="linear-gradient-3" x1="386.93" y1="185.42" x2="390.84" y2="180.28" xlink:href="#linear-gradient-2"/>
    <linearGradient id="linear-gradient-4" x1="174.01" y1="185.6" x2="177.63" y2="172.37" gradientUnits="userSpaceOnUse">
      <stop offset="0" stop-color="#ffb2b0" stop-opacity="0"/>
      <stop offset="1" stop-color="#ff7293"/>
    </linearGradient>
    <linearGradient id="linear-gradient-5" x1="179.45" y1="158.62" x2="181.37" y2="158.62" gradientUnits="userSpaceOnUse">
      <stop offset="0" stop-color="#ff7293" stop-opacity=".3"/>
      <stop offset="1" stop-color="#ff7293"/>
    </linearGradient>
    <linearGradient id="linear-gradient-6" x1="188.32" y1="158.5" x2="190.16" y2="158.5" xlink:href="#linear-gradient-5"/>
  </defs>
  <g class="cls-60">
    <g id="Layer_5" data-name="Layer 5">
      <g>
        <g>
          <rect class="cls-10" x="36.99" y="124.26" width="81.88" height="96.82"/>
          <rect class="cls-47" x="34.16" y="122.13" width="81.88" height="96.82"/>
          <path class="cls-57" d="M100.81,135.74h-44.07c-1.5,0-2.71-1.21-2.71-2.71h0c0-1.5,1.21-2.71,2.71-2.71h44.07c1.5,0,2.71,1.21,2.71,2.71h0c0,1.5-1.21,2.71-2.71,2.71Z"/>
          <g>
            <path class="cls-57" d="M91.63,143.45h-30.41c-.27,0-.48-.22-.48-.48h0c0-.27.22-.48.48-.48h30.41c.27,0,.48.22.48.48h0c0,.27-.22.48-.48.48Z"/>
            <path class="cls-57" d="M106.17,146.25h-44.95c-.27,0-.48-.22-.48-.48h0c0-.27.22-.48.48-.48h44.95c.27,0,.48.22.48.48h0c0,.27-.22.48-.48.48Z"/>
            <path class="cls-57" d="M106.17,148.69h-44.95c-.27,0-.48-.22-.48-.48h0c0-.27.22-.48.48-.48h44.95c.27,0,.48.22.48.48h0c0,.27-.22.48-.48.48Z"/>
            <path class="cls-57" d="M106.17,151.12h-44.95c-.27,0-.48-.22-.48-.48h0c0-.27.22-.48.48-.48h44.95c.27,0,.48.22.48.48h0c0,.27-.22.48-.48.48Z"/>
          </g>
          <g>
            <path class="cls-57" d="M91.63,156.9h-30.41c-.27,0-.48-.22-.48-.48h0c0-.27.22-.48.48-.48h30.41c.27,0,.48.22.48.48h0c0,.27-.22.48-.48.48Z"/>
            <path class="cls-57" d="M106.17,159.7h-44.95c-.27,0-.48-.22-.48-.48h0c0-.27.22-.48.48-.48h44.95c.27,0,.48.22.48.48h0c0,.27-.22.48-.48.48Z"/>
            <path class="cls-57" d="M106.17,162.14h-44.95c-.27,0-.48-.22-.48-.48h0c0-.27.22-.48.48-.48h44.95c.27,0,.48.22.48.48h0c0,.27-.22.48-.48.48Z"/>
            <path class="cls-57" d="M106.17,164.58h-44.95c-.27,0-.48-.22-.48-.48h0c0-.27.22-.48.48-.48h44.95c.27,0,.48.22.48.48h0c0,.27-.22.48-.48.48Z"/>
          </g>
          <g>
            <path class="cls-57" d="M91.63,171.08h-30.41c-.27,0-.48-.22-.48-.48h0c0-.27.22-.48.48-.48h30.41c.27,0,.48.22.48.48h0c0,.27-.22.48-.48.48Z"/>
            <path class="cls-57" d="M106.17,173.88h-44.95c-.27,0-.48-.22-.48-.48h0c0-.27.22-.48.48-.48h44.95c.27,0,.48.22.48.48h0c0,.27-.22.48-.48.48Z"/>
            <path class="cls-57" d="M106.17,176.32h-44.95c-.27,0-.48-.22-.48-.48h0c0-.27.22-.48.48-.48h44.95c.27,0,.48.22.48.48h0c0,.27-.22.48-.48.48Z"/>
            <path class="cls-57" d="M106.17,178.76h-44.95c-.27,0-.48-.22-.48-.48h0c0-.27.22-.48.48-.48h44.95c.27,0,.48.22.48.48h0c0,.27-.22.48-.48.48Z"/>
          </g>
          <g>
            <path class="cls-57" d="M91.63,185.26h-30.41c-.27,0-.48-.22-.48-.48h0c0-.27.22-.48.48-.48h30.41c.27,0,.48.22.48.48h0c0,.27-.22.48-.48.48Z"/>
            <path class="cls-57" d="M106.17,188.06h-44.95c-.27,0-.48-.22-.48-.48h0c0-.27.22-.48.48-.48h44.95c.27,0,.48.22.48.48h0c0,.27-.22.48-.48.48Z"/>
            <path class="cls-57" d="M106.17,190.5h-44.95c-.27,0-.48-.22-.48-.48h0c0-.27.22-.48.48-.48h44.95c.27,0,.48.22.48.48h0c0,.27-.22.48-.48.48Z"/>
            <path class="cls-57" d="M106.17,192.94h-44.95c-.27,0-.48-.22-.48-.48h0c0-.27.22-.48.48-.48h44.95c.27,0,.48.22.48.48h0c0,.27-.22.48-.48.48Z"/>
          </g>
          <g>
            <path class="cls-57" d="M91.63,199.44h-30.41c-.27,0-.48-.22-.48-.48h0c0-.27.22-.48.48-.48h30.41c.27,0,.48.22.48.48h0c0,.27-.22.48-.48.48Z"/>
            <path class="cls-57" d="M106.17,202.24h-44.95c-.27,0-.48-.22-.48-.48h0c0-.27.22-.48.48-.48h44.95c.27,0,.48.22.48.48h0c0,.27-.22.48-.48.48Z"/>
            <path class="cls-57" d="M106.17,204.68h-44.95c-.27,0-.48-.22-.48-.48h0c0-.27.22-.48.48-.48h44.95c.27,0,.48.22.48.48h0c0,.27-.22.48-.48.48Z"/>
            <path class="cls-57" d="M106.17,207.12h-44.95c-.27,0-.48-.22-.48-.48h0c0-.27.22-.48.48-.48h44.95c.27,0,.48.22.48.48h0c0,.27-.22.48-.48.48Z"/>
          </g>
          <g>
            <rect class="cls-26" x="43.82" y="140.59" width="8.4" height="11.89" rx=".83" ry=".83" transform="translate(194.55 98.51) rotate(90)"/>
            <g>
              <path class="cls-57" d="M52.66,144.64c-.28,0-.51-.23-.51-.51s.23-.51.51-.51.51.23.51.51-.23.51-.51.51Z"/>
              <path class="cls-57" d="M50.8,144.64c-.28,0-.51-.23-.51-.51s.23-.51.51-.51.51.23.51.51-.23.51-.51.51Z"/>
              <path class="cls-57" d="M48.92,144.64c-.28,0-.51-.23-.51-.51s.23-.51.51-.51.51.23.51.51-.23.51-.51.51Z"/>
              <path class="cls-57" d="M47.05,144.64c-.28,0-.51-.23-.51-.51s.23-.51.51-.51.51.23.51.51-.23.51-.51.51Z"/>
              <path class="cls-57" d="M45.17,144.64c-.28,0-.51-.23-.51-.51s.23-.51.51-.51.51.23.51.51-.23.51-.51.51Z"/>
              <path class="cls-57" d="M43.29,144.64c-.28,0-.51-.23-.51-.51s.23-.51.51-.51.51.23.51.51-.23.51-.51.51Z"/>
            </g>
            <g>
              <circle class="cls-57" cx="52.66" cy="145.72" r=".51"/>
              <circle class="cls-57" cx="50.8" cy="145.72" r=".51"/>
              <circle class="cls-57" cx="48.92" cy="145.72" r=".51"/>
              <path class="cls-57" d="M47.05,146.23c-.28,0-.51-.23-.51-.51s.23-.51.51-.51.51.23.51.51-.23.51-.51.51Z"/>
              <circle class="cls-57" cx="45.17" cy="145.72" r=".51"/>
              <circle class="cls-57" cx="43.29" cy="145.72" r=".51"/>
            </g>
            <g>
              <circle class="cls-57" cx="52.66" cy="147.33" r=".51"/>
              <circle class="cls-57" cx="50.8" cy="147.33" r=".51"/>
              <circle class="cls-57" cx="48.92" cy="147.33" r=".51"/>
              <path class="cls-57" d="M47.05,147.84c-.28,0-.51-.23-.51-.51s.23-.51.51-.51.51.23.51.51-.23.51-.51.51Z"/>
              <circle class="cls-57" cx="45.17" cy="147.33" r=".51"/>
              <circle class="cls-57" cx="43.29" cy="147.33" r=".51"/>
            </g>
            <g>
              <path class="cls-57" d="M52.66,149.29c-.28,0-.51-.23-.51-.51s.23-.51.51-.51.51.23.51.51-.23.51-.51.51Z"/>
              <path class="cls-57" d="M50.8,149.29c-.28,0-.51-.23-.51-.51s.23-.51.51-.51.51.23.51.51-.23.51-.51.51Z"/>
              <path class="cls-57" d="M48.92,149.29c-.28,0-.51-.23-.51-.51s.23-.51.51-.51.51.23.51.51-.23.51-.51.51Z"/>
              <path class="cls-57" d="M47.05,149.29c-.28,0-.51-.23-.51-.51s.23-.51.51-.51.51.23.51.51-.23.51-.51.51Z"/>
              <path class="cls-57" d="M45.17,149.29c-.28,0-.51-.23-.51-.51s.23-.51.51-.51.51.23.51.51-.23.51-.51.51Z"/>
              <path class="cls-57" d="M43.29,149.29c-.28,0-.51-.23-.51-.51s.23-.51.51-.51.51.23.51.51-.23.51-.51.51Z"/>
            </g>
          </g>
          <g>
            <path class="cls-37" d="M53,160.32c0,2.82-2.28,5.1-5.1,5.1s-5.1-2.28-5.1-5.1,2.28-5.1,5.1-5.1,5.1,2.28,5.1,5.1Z"/>
            <circle class="cls-43" cx="47.9" cy="160.32" r="3.99"/>
            <path class="cls-57" d="M50.48,159.07c0,.18.07.34.12.51.11.38.12.8,0,1.18-.03.11-.07.22-.07.33,0,.11.06.23.16.27.13.05.27-.05.36-.17.19-.26.21-.6.22-.92.01-.3.02-.61-.05-.9-.04-.2-.14-.5-.32-.62-.23-.17-.43.06-.44.32Z"/>
            <circle class="cls-57" cx="50.55" cy="161.98" r=".24"/>
          </g>
          <g>
            <rect class="cls-28" x="43.37" y="170.02" width="9.66" height="9.89" rx=".67" ry=".67"/>
            <rect class="cls-31" x="44.53" y="171.22" width="7.33" height="7.5" rx=".67" ry=".67"/>
          </g>
          <g>
            <rect class="cls-28" x="42.69" y="186.67" width="12.51" height="3.14" transform="translate(-58.44 26.07) rotate(-18.94)"/>
            <rect class="cls-28" x="54.85" y="184.1" width=".72" height="3.84" transform="translate(-57.38 27.99) rotate(-18.94)"/>
            <rect class="cls-28" x="55.48" y="184.95" width="1.33" height="1.24" transform="translate(-57.19 28.27) rotate(-18.94)"/>
            <line class="cls-28" x1="56.42" y1="184.19" x2="57.16" y2="186.35"/>
            <rect class="cls-28" x="42.01" y="189.71" width="1.08" height="1.54" transform="translate(-59.51 24.12) rotate(-18.94)"/>
            <line class="cls-28" x1="39.98" y1="191.34" x2="42.03" y2="190.63"/>
            <line class="cls-28" x1="44.93" y1="187.96" x2="45.95" y2="190.93"/>
            <line class="cls-28" x1="46.69" y1="188.66" x2="47.3" y2="190.45"/>
            <line class="cls-28" x1="48.28" y1="189.08" x2="48.6" y2="190"/>
            <g>
              <line class="cls-28" x1="50.37" y1="188.36" x2="50.69" y2="189.29"/>
              <line class="cls-28" x1="49.12" y1="187.82" x2="49.74" y2="189.61"/>
            </g>
            <g>
              <line class="cls-28" x1="52.46" y1="187.64" x2="52.78" y2="188.57"/>
              <line class="cls-28" x1="51.21" y1="187.1" x2="51.83" y2="188.89"/>
            </g>
          </g>
          <path class="cls-44" d="M57.19,199.05c-.79-.48-1.79-.38-2.7-.23-.88.15-1.79.34-2.64.08-.01,0-.02-.01-.03-.02-.91-.45-1.87-.91-2.89-.88v.02c-1.01-.07-1.98.33-2.91.72-.02,0-.03.01-.05.02-.85.2-1.75-.04-2.62-.24-.9-.21-1.89-.35-2.71.08-.73.39-1.19,1.24-1.1,2.06.08.82.7,1.57,1.49,1.8.43.13.93.12,1.29.39.08.06.16.14.25.18.09.05.21.06.3,0,.09-.06.11-.21.02-.26.09.06.26.05.32-.05.06-.09.02-.23-.07-.29.06-.2-.03-.49-.25-.5,0,0,0-.01,0-.02.47.21,1.04.14,1.47-.15.37-.25.63-.64,1-.88.39-.25.88-.33,1.33-.21.03.07.06.13.09.2.31.68.63,1.36.94,2.03.11.23.22.49.16.74-.06.23-.25.41-.34.63-.14.36,0,.76.13,1.13.2.61.27,1.25.26,1.89,0,.6-.1,1.18-.19,1.77,0,.04-.01.08,0,.12.04.09.29.05.37.05.16,0,.33,0,.49,0,.24,0,.53.08.77.04.21-.04.16-.2.12-.37-.13-.5-.14-1.02-.11-1.54.04-.66.18-1.31.42-1.93.14-.36.31-.75.19-1.12-.08-.23-.26-.41-.31-.65-.05-.25.08-.5.2-.73.35-.66.7-1.32,1.05-1.98.03-.06.07-.13.1-.19.45-.09.94,0,1.31.28.36.26.6.67.95.94.41.31.98.41,1.46.23,0,0,0,.01,0,.02-.21,0-.33.28-.27.48-.1.05-.14.19-.09.28.05.1.22.12.31.06-.09.05-.08.2,0,.26s.2.05.3,0c.09-.04.17-.11.26-.17.38-.25.87-.21,1.31-.32.8-.19,1.46-.9,1.59-1.72.13-.82-.28-1.69-.99-2.12ZM40.52,199.91s-.01.04-.02.06c0-.01,0-.03.01-.04,0,0,0-.01,0-.02ZM40.84,201.19c-.28-.23-.43-.61-.4-.97.3-.13.66-.04.93.14.28.2.48.48.68.76.04.06.09.12.13.18-.42.19-.99.17-1.34-.12ZM45.5,200.31c-.3,0-.58-.1-.87-.17-.52-.13-1.07-.18-1.61-.15-.43.03-.86.12-1.29.07-.38-.04-.76-.21-.97-.52.16-.16.36-.29.58-.37.36-.13.75-.16,1.14-.16,1.21,0,2.42.24,3.54.68.07.07.14.14.2.22-.13.26-.44.39-.73.39ZM57.26,200.4s-.01-.04-.02-.06c0,0,0,.01,0,.02,0,.01,0,.03.01.04ZM53.12,200.35c-.29.06-.58.14-.88.12-.29-.02-.59-.16-.71-.43.06-.07.13-.14.21-.21,1.15-.39,2.37-.55,3.58-.49.38.02.77.07,1.13.22.21.09.41.23.56.4-.22.3-.62.45-.99.47-.43.02-.85-.09-1.28-.14-.54-.07-1.08-.05-1.61.06ZM56.86,201.62c-.37.27-.94.25-1.35.04.05-.06.09-.11.14-.17.21-.27.43-.54.72-.72.28-.17.65-.24.94-.09.01.36-.15.73-.45.94Z"/>
          <g>
            <rect class="cls-59" x="28.92" y="122.92" width="16.62" height="4.58" transform="translate(-69.69 50.16) rotate(-38.38)"/>
            <rect class="cls-59" x="105.23" y="212.24" width="16.62" height="4.58" transform="translate(-108.65 116.84) rotate(-38.38)"/>
          </g>
        </g>
        <g>
          <g>
            <g>
              <g class="cls-62">
                <g>
                  <path class="cls-45" d="M358.59,163.68h.43c2.85,0,5.17,2.32,5.17,5.17v10.45h-10.77v-10.45c0-2.85,2.32-5.17,5.17-5.17Z"/>
                  <path class="cls-45" d="M354.12,162.11h9.38c.34,0,.62.28.62.62v2.99h-10.62v-2.99c0-.34.28-.62.62-.62Z"/>
                </g>
                <g>
                  <path class="cls-45" d="M369.57,166.33h.36c2.37,0,4.29,1.92,4.29,4.29v8.68h-8.94v-8.68c0-2.37,1.92-4.29,4.29-4.29Z"/>
                  <path class="cls-45" d="M365.86,165.04h7.78c.28,0,.51.23.51.51v2.48h-8.81v-2.48c0-.28.23-.51.51-.51Z"/>
                </g>
                <g>
                  <path class="cls-45" d="M379.38,166.33h.36c2.37,0,4.29,1.92,4.29,4.29v8.68h-8.94v-8.68c0-2.37,1.92-4.29,4.29-4.29Z"/>
                  <path class="cls-45" d="M375.67,165.04h7.78c.28,0,.51.23.51.51v2.48h-8.81v-2.48c0-.28.23-.51.51-.51Z"/>
                </g>
                <g>
                  <path class="cls-45" d="M345.82,163.68h.43c2.85,0,5.17,2.32,5.17,5.17v10.45h-10.77v-10.45c0-2.85,2.32-5.17,5.17-5.17Z"/>
                  <path class="cls-45" d="M341.47,162.11h9.38c.34,0,.62.28.62.62v2.99h-10.62v-2.99c0-.34.28-.62.62-.62Z"/>
                </g>
              </g>
              <g class="cls-2">
                <path class="cls-55" d="M314.5,155.89c.63-1.31,1.05-4.13-1.46-6.33-2.51-2.2-5.6-.99-6.8-.52-1.2.47-2.72,1.36-4.5.37-1.5-.84-4.09-1.08-4.86-1.14,0,0,0-.01,0-.01,0,0-.04,0-.11,0-.01,0-.02,0-.02,0v-1.6c-.02-.11-.11-.2-.22-.2h0c-.11,0-.2.09-.2.2l.02,1.63c-1.01.09-3.2.36-4.54,1.11-1.78.99-3.3.1-4.5-.37-1.2-.47-4.29-1.67-6.8.52-2.51,2.2-2.09,5.02-1.46,6.33.63,1.31.78,1.67.78,1.67.07.17-.07.45-.08.64-.2,2.73,4.07,4.34,5.85,2.35.46-.52.65-1.25.61-1.94-.03-.56-.19-1.12-.48-1.61,1.49.06,3.01-.3,4.26-1.08.1,1.36.08,2.68,1.19,3.99,1.41,1.67,2.04,1.88,1.94,2.77-.1.89-.42,2.15.21,3.61.63,1.46.53,2.69.5,4.04-.03,1.35-.03,3.96.76,3.86.69-.09,1.53-.73,2-.91l.03,3.16h-.64c-1.35,0-2.45,1.1-2.45,2.45v.31h6.43v-.31c0-1.35-1.1-2.45-2.45-2.45h-.47s0,0,0,0l-.03-3.15c.47.19,1.3.82,1.99.91.78.1.78-2.51.76-3.86-.03-1.35-.13-2.58.5-4.04.63-1.46.31-2.72.21-3.61-.1-.89.52-1.1,1.94-2.77,1.09-1.3,1.09-2.59,1.19-3.94,1.26.76,2.78,1.1,4.27,1.02-.28.49-.45,1.05-.48,1.61-.04.7.15,1.42.61,1.94,1.77,1.98,6.04.38,5.85-2.35-.01-.18-.16-.47-.08-.64,0,0,.16-.37.78-1.67ZM284.91,156.06c-.19-.15-.4-.27-.63-.35-.71-.26-1.49-.13-2.19.08-.12.04-1.39.45-1.38.47,0,0-1.46-2.41-.31-4.08s4.08-2.41,6.17-1.31c1.38.72,2.21,1.43,2.72,2.33-1.19,1.31-2.71,2.3-4.38,2.87ZM312.83,156.26s-1.26-.43-1.38-.47c-.71-.21-1.48-.34-2.19-.08-.24.09-.45.21-.65.37-1.67-.55-3.19-1.54-4.38-2.83.5-.93,1.35-1.65,2.75-2.39,2.09-1.1,5.02-.37,6.17,1.31s-.31,4.08-.31,4.08Z"/>
              </g>
              <g>
                <g>
                  <path class="cls-45" d="M331.14,167.34h1.07c2.32,0,4.2,1.88,4.2,4.2v7.52h-9.47v-7.52c0-2.32,1.88-4.2,4.2-4.2Z"/>
                  <path class="cls-45" d="M327.41,166.17h8.33c.28,0,.5.23.5.5v2.2h-9.33v-2.2c0-.28.23-.5.5-.5Z"/>
                </g>
                <g>
                  <path class="cls-45" d="M320.11,165.33h.38c2.51,0,4.54,2.04,4.54,4.54v9.19h-9.47v-9.19c0-2.51,2.04-4.54,4.54-4.54Z"/>
                  <path class="cls-45" d="M316.03,163.95h8.24c.3,0,.54.24.54.54v2.62h-9.33v-2.62c0-.3.24-.54.54-.54Z"/>
                </g>
              </g>
            </g>
            <g class="cls-62">
              <rect class="cls-67" x="312.38" y="129" width="159.85" height="14.63"/>
              <rect class="cls-67" x="280.41" y="179.21" width="159.85" height="14.63"/>
              <g>
                <rect class="cls-11" x="312.56" y="143.57" width="159.19" height="9.15"/>
                <rect class="cls-11" x="282.94" y="194.38" width="159.19" height="9.15"/>
              </g>
            </g>
            <g class="cls-62">
              <g>
                <path class="cls-45" d="M353.53,117.29h1.07c2.32,0,4.2,1.88,4.2,4.2v7.52h-9.47v-7.52c0-2.32,1.88-4.2,4.2-4.2Z"/>
                <path class="cls-45" d="M349.8,116.12h8.33c.28,0,.5.23.5.5v2.2h-9.33v-2.2c0-.28.23-.5.5-.5Z"/>
              </g>
              <g>
                <path class="cls-45" d="M330.71,117.29h1.07c2.32,0,4.2,1.88,4.2,4.2v7.52h-9.47v-7.52c0-2.32,1.88-4.2,4.2-4.2Z"/>
                <path class="cls-45" d="M327.24,116.12h8.33c.28,0,.5.23.5.5v2.2h-9.33v-2.2c0-.28.23-.5.5-.5Z"/>
              </g>
              <g>
                <path class="cls-45" d="M343.05,115.28h.38c2.51,0,4.54,2.04,4.54,4.54v9.19h-9.47v-9.19c0-2.51,2.04-4.54,4.54-4.54Z"/>
                <path class="cls-45" d="M339.23,113.9h8.24c.3,0,.54.24.54.54v2.62h-9.33v-2.62c0-.3.24-.54.54-.54Z"/>
              </g>
              <g>
                <g>
                  <path class="cls-45" d="M442.39,117.29h1.07c2.32,0,4.2,1.88,4.2,4.2v7.52h-9.47v-7.52c0-2.32,1.88-4.2,4.2-4.2Z"/>
                  <path class="cls-45" d="M438.67,116.12h8.33c.28,0,.5.23.5.5v2.2h-9.33v-2.2c0-.28.23-.5.5-.5Z"/>
                </g>
                <g>
                  <path class="cls-45" d="M431.37,115.28h.38c2.51,0,4.54,2.04,4.54,4.54v9.19h-9.47v-9.19c0-2.51,2.04-4.54,4.54-4.54Z"/>
                  <path class="cls-45" d="M427.28,113.9h8.24c.3,0,.54.24.54.54v2.62h-9.33v-2.62c0-.3.24-.54.54-.54Z"/>
                </g>
              </g>
              <g>
                <rect class="cls-45" x="361.52" y="111.75" width="11.38" height="17.3"/>
                <line class="cls-8" x1="371.65" y1="111.66" x2="371.65" y2="128.96"/>
              </g>
              <g>
                <rect class="cls-45" x="374.4" y="111.75" width="11.38" height="17.3"/>
                <line class="cls-8" x1="384.54" y1="111.66" x2="384.54" y2="128.96"/>
              </g>
              <g>
                <rect class="cls-45" x="387.05" y="111.75" width="11.38" height="17.3"/>
                <line class="cls-8" x1="397.18" y1="111.66" x2="397.18" y2="128.96"/>
              </g>
              <g>
                <rect class="cls-45" x="399.69" y="111.75" width="11.38" height="17.3"/>
                <line class="cls-8" x1="409.83" y1="111.66" x2="409.83" y2="128.96"/>
              </g>
              <g>
                <rect class="cls-45" x="412.34" y="111.75" width="11.38" height="17.3"/>
                <line class="cls-8" x1="422.47" y1="111.66" x2="422.47" y2="128.96"/>
              </g>
            </g>
          </g>
          <g>
            <g class="cls-50">
              <g>
                <rect class="cls-61" x="331.11" y="215.94" width="22.15" height="55.27"/>
                <path class="cls-68" d="M345.13,226.14c0,1.89-1.53,3.42-3.42,3.42s-3.42-1.53-3.42-3.42,1.53-3.42,3.42-3.42,3.42,1.53,3.42,3.42Z"/>
                <rect class="cls-68" x="335.82" y="263.55" width="13.51" height="3.42"/>
              </g>
              <g>
                <rect class="cls-61" x="308.35" y="215.94" width="22.15" height="55.27"/>
                <path class="cls-68" d="M322.37,226.14c0,1.89-1.53,3.42-3.42,3.42s-3.42-1.53-3.42-3.42,1.53-3.42,3.42-3.42,3.42,1.53,3.42,3.42Z"/>
                <rect class="cls-68" x="313.06" y="263.55" width="13.51" height="3.42"/>
              </g>
              <g>
                <rect class="cls-61" x="285.59" y="215.94" width="22.15" height="55.27"/>
                <path class="cls-68" d="M299.61,226.14c0,1.89-1.53,3.42-3.42,3.42s-3.42-1.53-3.42-3.42,1.53-3.42,3.42-3.42,3.42,1.53,3.42,3.42Z"/>
                <rect class="cls-68" x="290.3" y="263.55" width="13.51" height="3.42"/>
              </g>
              <g>
                <rect class="cls-61" x="262.83" y="215.94" width="22.15" height="55.27"/>
                <path class="cls-68" d="M276.85,226.14c0,1.89-1.53,3.42-3.42,3.42s-3.42-1.53-3.42-3.42,1.53-3.42,3.42-3.42,3.42,1.53,3.42,3.42Z"/>
                <rect class="cls-68" x="267.54" y="263.55" width="13.51" height="3.42"/>
              </g>
              <g>
                <rect class="cls-61" x="353.77" y="215.94" width="22.15" height="55.27"/>
                <path class="cls-68" d="M367.8,226.14c0,1.89-1.53,3.42-3.42,3.42s-3.42-1.53-3.42-3.42,1.53-3.42,3.42-3.42,3.42,1.53,3.42,3.42Z"/>
                <rect class="cls-68" x="358.48" y="263.55" width="13.51" height="3.42"/>
              </g>
              <g>
                <rect class="cls-61" x="376.3" y="215.94" width="22.15" height="55.27"/>
                <path class="cls-68" d="M390.32,226.14c0,1.89-1.53,3.42-3.42,3.42s-3.42-1.53-3.42-3.42,1.53-3.42,3.42-3.42,3.42,1.53,3.42,3.42Z"/>
                <rect class="cls-68" x="381.01" y="263.55" width="13.51" height="3.42"/>
              </g>
            </g>
            <g>
              <rect class="cls-46" x="6.22" y="271.87" width="487.69" height="136.55"/>
              <g>
                <rect class="cls-4" x="6.22" y="271.87" width="487.69" height="10.77"/>
                <g>
                  <g>
                    <line class="cls-17" x1="261.42" y1="282.71" x2="261.42" y2="407.34"/>
                    <line class="cls-17" x1="389.84" y1="275.67" x2="389.84" y2="407.34"/>
                    <line class="cls-17" x1="331.71" y1="281.81" x2="331.71" y2="408.61"/>
                  </g>
                  <g>
                    <line class="cls-15" x1="120.53" y1="275.67" x2="120.53" y2="407.34"/>
                    <g>
                      <line class="cls-15" x1="5.68" y1="312.51" x2="120.56" y2="312.51"/>
                      <line class="cls-15" x1="5.68" y1="344.55" x2="120.56" y2="344.55"/>
                      <line class="cls-15" x1="5.68" y1="376.58" x2="120.56" y2="376.58"/>
                      <g>
                        <path class="cls-1" d="M70.28,328.41c0,1.66-1.35,3.01-3.01,3.01s-3.01-1.35-3.01-3.01,1.35-3.01,3.01-3.01,3.01,1.35,3.01,3.01Z"/>
                        <circle class="cls-1" cx="67.27" cy="298.31" r="3.01"/>
                        <circle class="cls-1" cx="67.27" cy="359.96" r="3.01"/>
                        <path class="cls-1" d="M70.28,391.51c0,1.66-1.35,3.01-3.01,3.01s-3.01-1.35-3.01-3.01,1.35-3.01,3.01-3.01,3.01,1.35,3.01,3.01Z"/>
                      </g>
                    </g>
                  </g>
                  <g>
                    <line class="cls-19" x1="389.87" y1="312.51" x2="493.91" y2="312.51"/>
                    <line class="cls-19" x1="389.87" y1="344.55" x2="493.91" y2="344.55"/>
                    <line class="cls-19" x1="389.87" y1="376.58" x2="493.91" y2="376.58"/>
                    <g>
                      <path class="cls-1" d="M449.12,328.41c0,1.66-1.39,3.01-3.09,3.01s-3.09-1.35-3.09-3.01,1.39-3.01,3.09-3.01,3.09,1.35,3.09,3.01Z"/>
                      <path class="cls-1" d="M449.12,298.31c0,1.66-1.39,3.01-3.09,3.01s-3.09-1.35-3.09-3.01,1.39-3.01,3.09-3.01,3.09,1.35,3.09,3.01Z"/>
                      <path class="cls-1" d="M449.12,359.96c0,1.66-1.39,3.01-3.09,3.01s-3.09-1.35-3.09-3.01,1.39-3.01,3.09-3.01,3.09,1.35,3.09,3.01Z"/>
                      <path class="cls-1" d="M449.12,391.51c0,1.66-1.39,3.01-3.09,3.01s-3.09-1.35-3.09-3.01,1.39-3.01,3.09-3.01,3.09,1.35,3.09,3.01Z"/>
                    </g>
                  </g>
                </g>
              </g>
            </g>
          </g>
        </g>
      </g>
      <g>
        <g>
          <g>
            <path class="cls-23" d="M380.6,429.16c-.07,0-.14,0-.22-.02-.82-.12-1.38-.88-1.26-1.69l10.16-69.58c.12-.82.87-1.38,1.69-1.26.82.12,1.38.88,1.26,1.69l-10.16,69.58c-.11.74-.75,1.28-1.47,1.28Z"/>
            <path class="cls-23" d="M442.56,427.39c-.7,0-1.33-.5-1.46-1.21l-13.21-69.07c-.15-.81.38-1.59,1.19-1.75.82-.15,1.59.38,1.75,1.19l13.21,69.07c.15.81-.38,1.59-1.19,1.75-.09.02-.19.03-.28.03Z"/>
            <path class="cls-23" d="M405.91,382.78c-11.2,0-18.07-1.54-18.53-1.65-.8-.19-1.3-.99-1.12-1.79.19-.8.99-1.3,1.79-1.12.18.04,18.7,4.17,44.69-1.28.81-.17,1.6.35,1.77,1.15.17.81-.35,1.6-1.15,1.77-10.65,2.23-20,2.91-27.44,2.91Z"/>
          </g>
          <path class="cls-70" d="M458.59,272.6c-1.81,20.13-3.33,38.34-5.1,58.31-.47,5.24-2.16,12.47-2.57,17.69-.28,3.7-.83,8.88-4.48,10.88-3.81,2.1-75.42,5.14-79.04,3.24s-3.62-9.9.57-14.85c2.95-3.48,42.69-6.12,66-7.38.75-8.46,5.69-63.96,7.33-87.58,1.78-25.61,9.39-25.36,9.39-25.36.64.06,1.28.19,1.88.39.07.02.14.04.21.07.6.21,1.16.5,1.69.87,4.89,3.39,5.04,11.46,5.21,16.73.28,8.99-.29,18.04-1.09,26.98Z"/>
          <path class="cls-23" d="M453.77,285.81l-.05.51c-1.6,15.81-3.24,32.17-4.94,48.24-.56,5.36-1.45,10.85-5.42,14.02-2.8,2.22-6.42,2.73-10.52,3.13-22.42,2.16-45.19,3.74-67.67,4.68-.05,0-.1-.04-.1-.09s.04-.1.09-.1c22.48-.95,45.25-2.52,67.67-4.68,4.07-.39,7.65-.9,10.41-3.09,3.92-3.12,4.79-8.56,5.35-13.88,1.69-16.08,3.34-32.43,4.94-48.25l.05-.51c1.84-18.22,3.92-38.83-1.02-57.83.07.02.14.04.21.07,4.91,19,2.83,39.58,1,57.78Z"/>
        </g>
        <g>
          <g>
            <g>
              <g>
                <g>
                  <path class="cls-65" d="M376.66,419.16c-.41,2.6-6.66,2.41-8.41,2.7-5.11.87-10.2,2.32-15.24,3.54-4.65,1.12-9.62,2.46-14.44,1.98-.38-.04-.78-.1-1.07-.35-.39-.33-.46-.92-.31-1.4.33-1.06,1.29-1.68,2.17-2.22,1.9-1.15,3.81-2.29,5.7-3.46,1.13-.69,2.24-1.4,3.35-2.13,4.42-2.94,8.69-6.12,12.82-9.45,1.28-1.04,1.93-1.96,1.96-3.62,0-.13-.04-1.9-.01-1.91,0,0,9.01-2.07,9.01-2.07,0,0,1.15,3.54,2.29,7.55,1.26,4.42,2.51,9.43,2.19,10.85Z"/>
                  <path class="cls-56" d="M376.66,419.16c-.41,2.6-6.66,2.41-8.41,2.7-5.11.87-10.2,2.32-15.24,3.54-4.65,1.12-9.62,2.46-14.44,1.98-.38-.04-.78-.1-1.07-.35-.39-.33-.46-.92-.31-1.4.33-1.06,1.29-1.68,2.17-2.22,1.9-1.15,3.81-2.29,5.7-3.46,1.38.4,4.79.88,9.96-1.61,6.9-3.33,15.74-6.36,17.39-7.81,1.17-1.03,1.47-1.83,2.07-2.21,1.26,4.42,2.51,9.43,2.19,10.85Z"/>
                  <path class="cls-13" d="M376.66,419.16c-.41,2.6-6.66,2.41-8.41,2.7-5.11.87-10.2,2.32-15.24,3.54-4.65,1.12-9.62,2.46-14.44,1.98-.38-.04-.78-.1-1.07-.35-.39-.33-.46-.92-.31-1.4.33-1.06,1.29-1.68,2.17-2.22,1.9-1.15,3.81-2.29,5.7-3.46,1.38.4,4.79.88,9.96-1.61,6.9-3.33,15.74-6.36,17.39-7.81,1.17-1.03,1.47-1.83,2.07-2.21,1.26,4.42,2.51,9.43,2.19,10.85Z"/>
                </g>
                <path class="cls-56" d="M351.39,348.69s18.03,34.28,21.84,54.34l-10.16,2.29-32-47.23s1.02-13.46,20.32-9.4Z"/>
                <path class="cls-18" d="M351.39,348.69s18.03,34.28,21.84,54.34l-10.16,2.29-32-47.23s1.02-13.46,20.32-9.4Z"/>
                <path class="cls-24" d="M348.14,350.32c8.28,17.37,16.07,34.98,23.35,52.79"/>
              </g>
              <g>
                <g>
                  <path class="cls-65" d="M351.14,426.62c-.9,2.68-7.48,1.35-9.39,1.35-5.56,0-11.21.63-16.77,1.01-5.12.35-10.63.88-15.64-.5-.4-.11-.81-.25-1.07-.56-.35-.42-.32-1.05-.07-1.54.54-1.07,1.66-1.55,2.7-1.96,2.22-.88,4.45-1.74,6.65-2.64,1.32-.53,2.63-1.08,3.92-1.66,5.21-2.32,10.29-4.92,15.27-7.71,1.54-.87,2.39-1.72,2.73-3.48.02-.13.3-2.02.33-2.02,0,0,9.91-.57,9.91-.57,0,0,.58,3.95,1.07,8.41.54,4.91.96,10.43.37,11.88Z"/>
                  <path class="cls-56" d="M351.14,426.62c-.9,2.68-7.48,1.35-9.39,1.35-5.56,0-11.21.63-16.77,1.01-5.12.35-10.63.88-15.64-.5-.4-.11-.81-.25-1.07-.56-.35-.42-.32-1.05-.07-1.54.54-1.07,1.66-1.55,2.7-1.96,2.22-.88,4.45-1.74,6.65-2.64,1.39.67,4.91,1.79,10.83.08,7.9-2.29,17.81-3.91,19.81-5.15,1.42-.88,1.89-1.67,2.59-1.97.54,4.91.96,10.43.37,11.88Z"/>
                </g>
                <g>
                  <path class="cls-56" d="M431.9,279.37l-39.43,2.22-3.75,34.09s-63.49,2.03-68.82,17.27c0,0-3.56,9.65,1.78,21.84,5.33,12.19,17.17,52.22,17.17,52.22l11.71-.19s2.86-27.9.06-42.63c-.98-5.14-1.73-9.72-2.31-13.51,8.27,1.33,16.59,1.99,22.37,2.34,16.27.97,33.7-2.47,42.74-4.99,5.15-1.33,19.46-6.16,22.47-19.38,3.5-15.39-4.01-49.27-4.01-49.27Z"/>
                  <g>
                    <path class="cls-24" d="M389.9,295.42c-.14.9.83,1.71,1.74,1.64.91-.07,1.66-.81,2.03-1.65.36-.84.42-1.78.46-2.69.19-3.77.38-7.55.57-11.32"/>
                    <path class="cls-24" d="M418.03,281.4c.29,8.13,2.47,16.1,2.72,24.23.25,8.13-1.9,17.01-8.37,21.93-4.17,3.17-9.51,4.27-14.68,5.13-16.62,2.78-33.45,4.08-50.14,6.44-2.14.3-4.4.68-6.02,2.11-3.1,2.73-2.33,7.66-1.42,11.69,3.96,17.49,5.72,35.47,5.22,53.4"/>
                  </g>
                </g>
              </g>
            </g>
            <g>
              <path class="cls-54" d="M394.76,228.83s-.15.21-.42.6c-1.9,2.76-9.6,14.34-10.44,21.68-.95,8.38,7.24,19.81,7.24,19.81,0,0-.76,6.48,1.33,11.05l37.9-.19s10.03-30.03,10.03-38.98,0-17.78-10.67-25.14c-1.15-.8-8.12-4.03-12.44-2.29-9.55,3.86-22.54,13.46-22.54,13.46Z"/>
              <g>
                <g>
                  <path class="cls-65" d="M377.09,308.95c-3.64.83-7.15,1.44-10.88,1.44-2.06,0-4.13-.2-6.15.18-2.2.41-4.21,1.49-6.18,2.55-3.08,1.66-6.17,3.33-9.25,4.99-.61.33-1.32.91-1.06,1.55.13.33.48.5.8.64,2.44,1,5.17,1.01,7.77.6,3.4-.54,4.71-1.12,7.93-2.34,0,0,9.32.58,12.6-.12,3.28-.7,5.23-2.73,5.23-2.73l-.81-6.76Z"/>
                  <g>
                    <path class="cls-33" d="M348.42,321.05s8.85-4.6,10.57-4.99"/>
                    <path class="cls-33" d="M345.14,320.51s8.66-4.91,10.92-5.77l2.26-.86"/>
                    <path class="cls-33" d="M343.58,319.67s7.92-4.54,9.76-5.52c1.83-.97,2.96-1.44,2.96-1.44"/>
                  </g>
                </g>
                <g>
                  <path class="cls-54" d="M427.29,216.33c-7.48.46-13.3,13.11-14.06,19.74-1.9,16.57-6.86,57.52-6.86,57.52l-29.9,13.9,1.71,12s49.03-4.35,54.47-23.62c4.07-14.41,4.73-29.47,5.64-44.33.56-9.07,2.25-19.4-1.19-28.13-1.69-4.28-4.99-7.37-9.82-7.07Z"/>
                  <g>
                    <path class="cls-38" d="M416.66,224.45s-4.38,5.33-5.33,16.19c-.95,10.86-3.62,40.95-3.81,42.66-.19,1.71-1.14,10.02-1.14,10.02"/>
                    <path class="cls-38" d="M406.37,293.33c4.17-2.94,8.73-4.7,13.76-5.5"/>
                  </g>
                </g>
              </g>
              <path class="cls-21" d="M391.11,270.89c3.01-1.23,8.7-2.49,10.07-2.88,1.01-.29,2.22-.58,3.01-.31.84.3.63,1.1-.08,1.66-1.07.86-2.88,1.33-4.56,1.74-1.86.46-3.71.92-5.57,1.37-.85.21-1.72.43-2.59.47-.13,0-.25,0-.38,0l.1-2.06Z"/>
            </g>
          </g>
          <g>
            <path class="cls-48" d="M416.27,216.72c-9.49,2.23-18.93,3.95-28.51,5.31-1.86-2.19-3.3-4.65-4.32-7.39-.28,2.66.14,5.38,1.23,7.81-1.78.23-3.56.46-5.34.67-.88-1.66-1.71-3.39-2.02-5.24-.31-1.85-.04-3.87,1.1-5.36.94-1.23,2.42-2.05,3.07-3.45.74-1.6.2-3.5-.69-5.01-.9-1.51-2.12-2.82-2.89-4.39-1.42-2.86-1.14-6.49.7-9.09,1.3-1.84,3.32-3.23,4.07-5.36,1.01-2.86-.6-5.91-1.22-8.88-.65-3.11-.17-6.45,1.34-9.24,1.51-2.8,4.02-5.04,6.97-6.2,5.43-2.15,12.2,4.01,16.13,8.33,3.92,4.32,6.46,9.76,7.97,15.4,1.51,5.64,2.02,11.5,2.29,17.32.22,5.02.28,9.73.13,14.76Z"/>
            <g>
              <g>
                <path class="cls-65" d="M415.39,217.78c-2.98,2.33-21.22,13.97-21.08,11.81.13-2.03,5.18-9.31,6.05-11.67,1.01-2.72.63-5.57-.01-8.33-.2-.92-.44-1.82-.66-2.71-.14-.57-1.56-4.7-1.06-5.09l16.25-12.64,4.44,25.59s-.7.51-3.93,3.04Z"/>
                <path class="cls-6" d="M412.22,196.53c-.14.44-.34.88-.55,1.28-2.33,4.33-6.01,7.78-9.86,10.84-.45.35-.94.7-1.46.94-.2-.92-.44-1.82-.66-2.71-.14-.57-1.56-4.7-1.06-5.09l13.2-6.73.39,1.47Z"/>
              </g>
              <g>
                <path class="cls-65" d="M392.9,161.44c-.16.1-.31.21-.46.33-3.64,2.75-4.41,7.17-4.89,11.43-.21,1.87.03,5.33-1.41,6.8-1.35,1.38-4.99,3.49-4.58,5.06.41,1.57,2.91,4.18,3.13,5.15.22.97,1.72,11.31,3.51,12.57,3.03,2.14,13.24-.6,13.24-.6,2.34-.57,4.66-1.55,6.75-2.75,3.88-2.24,5.33-5.49,6.52-9.66,1.23-4.31,1.76-8.81,1.56-13.28-.15-3.43-.75-6.41-2.7-9.28-1.72-2.55-4.09-4.67-6.86-6-4.28-2.05-9.76-2.5-13.81.23Z"/>
                <g>
                  <g>
                    <g>
                      <path class="cls-48" d="M392.28,180.88c-.1.71-.76,1.2-1.46,1.09-.71-.1-1.2-.76-1.09-1.46.1-.71.76-1.2,1.46-1.09.71.1,1.2.76,1.09,1.46Z"/>
                      <path class="cls-20" d="M388.43,181.53l1.41,1.96s-1.74,1.48-1.41-1.96Z"/>
                    </g>
                    <path class="cls-48" d="M385,187.62h1.42c.22-.3-.07-.89-.38-1.26-.03-.04-.03-.09,0-.13.04-.04.1-.04.14,0,.21.2.39.41.53.68.14.25.24.62.04.96h0s-.01.02-.02.03c0,0,0,0-.01,0-.03.07-.09.12-.17.12h-1.15s.28.39.28.39c.07.09.05.22-.04.28-.07.05-.16.05-.23,0-.02-.01-.04-.03-.06-.05l-.52-.71c-.04-.06-.05-.14-.02-.21.03-.07.1-.11.18-.11Z"/>
                  </g>
                  <g>
                    <path class="cls-40" d="M386.12,192.51s4.31.26,7.64-3.43"/>
                    <path class="cls-25" d="M387.33,194.55s1.33.44,3.11-.83"/>
                    <path class="cls-48" d="M389.21,176.58c.13.16.31.28.5.36.62.26,1.28.24,1.93.31.74.08,1.49.49,2.22.5.29,0,.59-.11.66-.42.2-.94-.78-1.89-1.5-2.32-1.08-.65-2.6-.64-3.62.13-.21.16-.39.39-.44.65-.05.29.06.57.25.8Z"/>
                  </g>
                </g>
              </g>
            </g>
            <path class="cls-48" d="M448.4,217.21l-5.99.99c.48-3.71.34-9.21.34-9.21-.6,3.65-2.42,7.69-3.41,9.72l-44.01,7.27s0-.38.25-8.51c.25-8.12,10.54-9.26,12.06-13.2,1.52-3.94-2.66-2.79-4.19-8.25-1.52-5.46,2.86-6.86,1.97-11.12-.72-3.46-5.14-2.1-7.3-6.03-2.16-3.94,1.02-6.47-.38-9.53-1.39-3.04-7.62-1.78-9.01-6.35-1.39-4.57,3.94-8.76,3.94-8.76,5.2-3.69,16.25-3.81,23.23-3.43,6.99.38,11.05,7.49,12.19,12.7,1.15,5.21,6.48,4.57,10.79,8.13,4.32,3.55.76,11.94,1.4,15.87.63,3.94,3.93,2.8,8.88,8,4.95,5.2-.76,21.71-.76,21.71Z"/>
          </g>
        </g>
      </g>
      <g>
        <g>
          <g>
            <g>
              <g>
                <g>
                  <path class="cls-36" d="M189.76,393.9c8.02,2.1,16.43,3.33,23.93,7.05,9.08,4.5,12.65,11.8,14.93,21.33"/>
                  <circle class="cls-58" cx="229.7" cy="427.17" r="5.71"/>
                </g>
                <g>
                  <path class="cls-58" d="M246.22,408.02c.76,2.92-.99,5.9-3.91,6.66-2.92.76-5.9-.99-6.66-3.91-.76-2.92.99-5.9,3.91-6.66,2.92-.76,5.9.99,6.66,3.91Z"/>
                  <path class="cls-36" d="M190.34,392.42c12.18.24,24.35,1.17,36.43,2.79,2.74.37,5.55.79,7.92,2.2,3.14,1.86,5.18,5.42,5.21,9.07"/>
                </g>
              </g>
              <g>
                <g>
                  <path class="cls-36" d="M187.35,394.16c-8.02,2.1-16.43,3.33-23.93,7.05-9.08,4.5-12.65,11.8-14.93,21.33"/>
                  <path class="cls-58" d="M141.71,427.43c0,3.16,2.56,5.71,5.71,5.71s5.71-2.56,5.71-5.71-2.56-5.71-5.71-5.71-5.71,2.56-5.71,5.71Z"/>
                </g>
                <g>
                  <path class="cls-58" d="M130.9,408.27c-.76,2.92.99,5.9,3.91,6.66,2.92.76,5.9-.99,6.66-3.91.76-2.92-.99-5.9-3.91-6.66-2.92-.76-5.9.99-6.66,3.91Z"/>
                  <path class="cls-36" d="M186.77,392.67c-12.18.24-24.35,1.17-36.43,2.79-2.74.37-5.55.79-7.92,2.2-3.14,1.86-5.18,5.42-5.21,9.07"/>
                </g>
              </g>
            </g>
            <rect class="cls-58" x="186.27" y="336.77" width="5.08" height="58.92"/>
          </g>
          <g>
            <g>
              <path class="cls-58" d="M243.21,265.88c.16-.02.34-.04.51-.04,3.73-.1,5.44,3.72,5.74,6.9.73,7.74,1.89,54.8-.93,56.3-2.81,1.5-7.67-3.52-7.67-3.52-.29-13.95-.57-27.89-.86-41.84-.09-4.59-1.73-9.31-.54-13.88.52-2,1.67-3.63,3.74-3.91Z"/>
              <path class="cls-58" d="M215.68,264.14c7.78.4,19.99,1.65,27.91,2.28,4.51.58,3.44,7.21-1.04,6.31-7.01-1.69-18.27-4.44-25.19-6.03,0,0-.83-.18-.83-.18l-.41-.09c-.08-.02-.08-.03-.14-.07l-.79-.59c-.68-.47-.32-1.61.49-1.63h0Z"/>
              <path class="cls-34" d="M225.08,312.53c.54.19,19.54,14.28,19.54,14.28"/>
            </g>
            <g>
              <path class="cls-58" d="M125.73,267.26s-5.59,0-5.2,8.41c.39,8.41,6.03,58.99,9.03,60.14,3,1.15,7.09-5.02,7.09-5.02l-6.98-60.55s-2.67-2.91-3.94-2.97Z"/>
              <path class="cls-58" d="M126.1,266.89l14.26-2.21c.7-.11,1.35.37,1.45,1.06.09.58-.23,1.13-.74,1.36l-13.16,5.92c-1.63.73-3.53,0-4.27-1.62-.73-1.63,0-3.53,1.62-4.27.27-.12.55-.2.83-.25Z"/>
            </g>
            <g>
              <path class="cls-63" d="M137.42,299.92s-14.73-95.23-6.35-106.4c8.38-11.17,76.44-16.51,88.12-7.62,11.68,8.89,13.97,112.5,13.97,112.5l-95.74,1.52Z"/>
              <path class="cls-63" d="M228.88,338.02h-85.15c-6.01,0-10.88-4.87-10.88-10.88l3.81-28.48s95.9-.51,95.99-.51c1.51,0,3.12,9.77,3.47,11.17,2.13,8.52,7.59,28.7-7.24,28.7Z"/>
            </g>
          </g>
        </g>
        <g>
          <g>
            <g>
              <path class="cls-52" d="M184.49,203.43c-8.69,4.06-17.64-19.4-17.64-19.4,0,0,.6-4.29,1.01-8.67.18-1.94-.28-4.06-.6-5.83h0s-.01-.09-.02-.13c-.16-.85-.32-1.61-.46-2.22,0,0,0-.02,0-.03-.23-.97-.4-1.57-.4-1.57l.79.4h0s19.56,9.77,19.56,9.77l.25.12s0,.13,0,.4c0,.75.05,2.56.21,5.33,0,.16.02.33.03.49,0,.09.01.19.02.29.48,4.37,5.74,17.07-2.75,21.04Z"/>
              <path class="cls-5" d="M187.24,182.38c-.54.82-1.3,1.48-2.22,1.79-1.59.54-3.33.03-4.88-.64-1.9-.83-3.69-1.93-5.3-3.24-2.8-2.3-5.07-5.24-6.59-8.53-.28-.62-.67-1.4-.98-2.22h0s-.03-.09-.04-.13c-.28-.76-.49-1.54-.46-2.22v-.03c0-.08,0-.16.01-.23.05-.39.19-.69.38-.94l19.56,9.76.25.12s0,.13,0,.4c0,.75.05,2.56.21,5.33,0,.16.02.33.03.49,0,.09.01.19.02.29Z"/>
            </g>
            <g>
              <path class="cls-53" d="M172.49,136.41c-.84-1.51-1.89-3-3.3-4.03-1.17-.85-1.99-1.01-3.02-.77-.72-3.44-3.51-6.03-7.18-6.51-3.17-.41-6.33.98-8.82,2.84-2.4,1.8-4.43,4.19-5.34,7.05-1.53,4.81.65,10.54,4.99,13.11,1.05.62,2.2,1.04,3.39,1.27-.44,2.17-.82,4.36-.95,6.57-.16,2.92.13,5.91,1.28,8.59,1.22,2.85,3.4,5.29,6.1,6.81,2.7,1.53,5.91,2.14,8.99,1.71,1.1-.15,2.24-.47,3-1.28.98-1.04,1.07-2.61,1.07-4.04,0-1.62-.06-3.24-.16-4.86.11-.14.22-.28.33-.43,1.32-1.87,2.09-4.08,2.57-6.32,1.41-6.64.34-13.77-2.95-19.7Z"/>
              <g>
                <g>
                  <path class="cls-52" d="M155.25,156.79c-1.1,2.35-.52,5.34,1.26,7.23,1.78,1.89,4.61,2.66,7.15,2.1.6-.13,1.22-.36,1.65-.8.56-.59.7-1.47.75-2.29.13-2.2.15-5.66-1.25-7.53-1.52-2.05-4.28-2.63-6.55-1.6-1.29.58-2.39,1.61-2.99,2.9Z"/>
                  <g>
                    <path class="cls-32" d="M158.78,157.27c1.8,1.19,3,3.26,3.14,5.42"/>
                    <path class="cls-32" d="M160.41,158.8c-.73.8-1.21,1.82-1.36,2.89"/>
                  </g>
                </g>
                <path class="cls-69" d="M163.45,164.4c0,.4-.32.72-.72.72s-.72-.32-.72-.72.32-.72.72-.72.72.32.72.72Z"/>
              </g>
              <path class="cls-52" d="M197.89,156.49c.02,2.68-.19,5.37-.66,8.01-.32,1.78-.79,3.57-1.47,5.27-.45,1.12-1,2.21-1.65,3.23-.48.76-1.01,1.47-1.62,2.13-5.32,5.82-15.03,5.2-20.97.58-.43-.33-.84-.69-1.23-1.08-3.61-3.51-5.78-8.41-6.55-13.35-.02-.14-.05-.28-.06-.41-.06-.45-.12-.91-.16-1.36-.28-2.79-.21-5.6.21-8.26.49-3.19,1.39-6.36,2.98-9.18,5-8.94,18.36-12.43,25.81-4.25,2.92,3.2,4.23,7.55,4.84,11.76.33,2.29.52,4.6.53,6.92Z"/>
              <g>
                <g>
                  <g>
                    <g>
                      <path class="cls-48" d="M179.14,157.45c-.1.9-.92,1.55-1.82,1.45-.9-.1-1.55-.92-1.45-1.82.1-.9.92-1.55,1.82-1.45.9.1,1.55.92,1.45,1.82Z"/>
                      <path class="cls-48" d="M192.49,157.16c0,.8-.65,1.44-1.44,1.44-.8,0-1.44-.65-1.44-1.44,0-.8.65-1.44,1.44-1.44.8,0,1.44.65,1.44,1.44Z"/>
                    </g>
                    <path class="cls-48" d="M181.99,163.72c-.17.35-.36.75-.43,1.13-.04.46.26.14.67.02.26-.1.54-.19.82-.26.1-.03.2.06.17.16-.15.43-.19,1.04-.42.95-.08-.02-.12-.1-.1-.18l.27-.85.17.16c-.36.2-.78.36-1.16.51-1.28.37-.53-1.25-.1-1.72.05-.07.15,0,.11.07h0Z"/>
                    <g class="cls-7">
                      <path class="cls-14" d="M180.9,157.41s-.94,1.51-1.45,2.04c0,0,1.11.79,1.71.09.59-.69-.26-2.13-.26-2.13Z"/>
                    </g>
                    <g class="cls-7">
                      <path class="cls-16" d="M188.77,157.34s.91,1.45,1.39,1.95c0,0-1.07.75-1.64.09-.57-.67.25-2.04.25-2.04Z"/>
                    </g>
                  </g>
                  <path class="cls-48" d="M187.55,153.64c-.95,2.15-1.79,4.6-.49,6.77.27.49.7.93,1.04,1.49.86,1.2.28,2.81-.96,3.48-.22.21-2.41,1.16-1.83.41,1.57-.55,3.4-1.88,2.3-3.59-.29-.49-.72-.94-1.04-1.51-.61-1.12-.86-2.45-.62-3.71.22-1.25.8-2.36,1.31-3.46.08-.18.36-.06.29.12h0Z"/>
                  <path class="cls-41" d="M179.97,167.45s3.69,2.48,7.34.83"/>
                  <path class="cls-25" d="M181.49,170.14s1.65,1.07,3.66.49"/>
                  <g>
                    <path class="cls-53" d="M172.14,154.39c.16-.81.58-1.47,1.12-2.04.55-.56,1.26-1,2.04-1.24.78-.24,1.62-.31,2.4-.13.78.15,1.49.5,2.07,1.01.19.17.21.47.04.66-.08.09-.18.14-.28.15h-.05c-.71.11-1.32.1-1.89.19-.57.05-1.09.18-1.61.32-.52.14-1.03.34-1.56.59-.53.24-1.08.56-1.69.86l-.06.03c-.18.09-.4.02-.5-.16-.04-.08-.05-.16-.03-.24Z"/>
                    <path class="cls-53" d="M195.58,153.32c-.29-.77-.78-1.35-1.38-1.83-.6-.47-1.33-.78-2.09-.89-.75-.11-1.54-.04-2.23.25-.69.27-1.28.73-1.72,1.33-.15.2-.11.49.08.65.08.07.19.11.29.1h.05c.67-.02,1.23-.12,1.77-.12.53-.04,1.03,0,1.53.06.5.06,1,.17,1.53.33.53.15,1.09.37,1.7.58l.06.02c.18.06.37-.05.43-.24.02-.08.02-.17-.01-.24Z"/>
                  </g>
                </g>
                <path class="cls-53" d="M196.93,139.82c-3.19-7.73-9.92-12.8-20.44-12.2-5.97.34-10.07,3.86-10.07,3.86-1.5,1.96-.98,4.29.22,6.78-2.51,2.14-5.97,5.85-6.73,10.45-.51,3.09.1,5.49.99,7.25.56,1.96,1.37,3.88,2.04,5.8.22.62.6,1.36,1.25,1.34.53-.02.89-.54,1.13-1.02.9-1.79,1.45-3.74,1.64-5.73.02-.24.04-.48.04-.73.64-1.45,1.36-3.43,2.12-6.14.54-1.91.74-3.91.77-5.75,2.95,3.91,7.51,5.73,10.16,5.92,0,0-2.64-3.05-2.98-4.48,0,0,5.63,5.29,12.48,5.09l-.34-3.73s3.02,4.96,9.06,5.03c0,0,1.42-5.08-1.33-11.75Z"/>
              </g>
            </g>
          </g>
          <g>
            <path class="cls-64" d="M171.06,191.82s6.69,12.91,12.09,11.53c5.41-1.38,5.82-11.89,5.82-11.89,0,0,4.39,34.55,5,41.13.61,6.58,1.07,24.8,1.07,24.8h-25.72l1.74-65.58Z"/>
            <g>
              <path class="cls-48" d="M164.15,257.26h35.43s15.24,28.57,14.09,44.57h-59.61s1.52-27.62,10.09-44.57Z"/>
              <g>
                <g>
                  <g>
                    <g>
                      <path class="cls-52" d="M194.5,439.55c-3.85-.11-8.38-10.99-11.89-20.04-3.51-9.06-5.1-11.44-4.98-15.17.11-3.74,7.36-12.45,7.36-12.45l2.51,1.05,8.02,3.36s.25,5.02.6,10.81c.32,5.28.73,11.2,1.1,14.56.79,7.02,1.13,18.01-2.72,17.9Z"/>
                      <path class="cls-9" d="M194.5,439.55c-3.85-.11-8.38-10.99-11.89-20.04-3.51-9.06-5.1-11.44-4.98-15.17.11-3.74,7.36-12.45,7.36-12.45,0,0,.8.37.8.37-.34-.17-.59,4.38-.59,5.1-.05,4.35-.03,10.11.93,14.35.57,2.51,2.34,5.44,4.36,7.21,1.39,1.22,3.72,2.13,4.83.08.87-1.62.71-3.63.66-5.4-.06-2.15.28-4.34.15-6.48.32,5.28.73,11.2,1.1,14.56.79,7.02,1.13,18.01-2.72,17.9Z"/>
                      <path class="cls-9" d="M194.5,439.55c-3.85-.11-8.38-10.99-11.89-20.04-3.51-9.06-5.1-11.44-4.98-15.17.11-3.74,7.36-12.45,7.36-12.45,0,0,.8.37.8.37-.34-.17-.59,4.38-.59,5.1-.05,4.35-.03,10.11.93,14.35.57,2.51,2.34,5.44,4.36,7.21,1.39,1.22,3.72,2.13,4.83.08.87-1.62.71-3.63.66-5.4-.06-2.15.28-4.34.15-6.48.32,5.28.73,11.2,1.1,14.56.79,7.02,1.13,18.01-2.72,17.9Z"/>
                    </g>
                    <path class="cls-48" d="M206.75,295.35s5.84-1.78,8.63,10.92c2.79,12.7-.25,32.51-5.33,46.73s-13.46,44.95-13.46,44.95l-12.88-5.72s-9.22-105.77,23.03-96.88Z"/>
                  </g>
                  <path class="cls-48" d="M186.18,271.74s-13.97-.25-14.98,31.24c-1.02,31.49,4.32,75.93,4.32,75.93l12.44,2.29s7.36-19.81,12.7-39.87c5.33-20.06,9.9-37.08,4.82-53.07-5.08-16-13.71-18.03-19.3-16.51Z"/>
                  <g>
                    <path class="cls-52" d="M187.7,397.18c-.38,5.08-19.68,34.03-26.79,28.19-4.42-3.63,4.95-19.68,7.36-25.77.78-2,1.9-4.91,3.05-7.91,2.35-6.18,4.82-12.79,4.82-12.79l11.3,2.29s.04.79.1,2.04c.16,3.41.43,10.24.15,13.96Z"/>
                    <path class="cls-9" d="M187.7,397.18c-.38,5.08-19.68,34.03-26.79,28.19-4.42-3.63,4.95-19.68,7.36-25.77.78-2,1.9-4.91,3.05-7.91-.51,2.01-1.32,4.04-1.78,5.95-.72,2.98-2.02,6.05-2.55,9.07-.26,1.51-.19,3.56,1.5,4.25,1.04.43,2.21.6,3.19.04.98-.54,1.71-1.45,2.39-2.36,5.81-7.68,10.37-16.3,13.46-25.42.16,3.41.43,10.24.15,13.96Z"/>
                  </g>
                </g>
                <g>
                  <path class="cls-35" d="M172.91,286.78c2.63-7.89,12.02-16.32,20.82-15.17,11.81,1.55,13.34,17.48,13.64,26.75.93,29.43-9.38,55.94-19.92,82.83"/>
                  <path class="cls-35" d="M207.38,296.88s3.29-.67,6.52,4.48"/>
                  <path class="cls-35" d="M184.56,258.03c-.11,3.47.48,6.96,1.75,10.2.16.4.33.81.65,1.11.31.3.8.45,1.19.26.54-.27.6-.99.59-1.59-.08-3.71-.38-7.42-.91-11.1"/>
                </g>
              </g>
            </g>
          </g>
          <g>
            <path class="cls-69" d="M254.74,223.23l-18.93,16.9c-6.08-7.91-12.39-18.13-13.9-20.84-5.53-9.95-12.61-18.82-15.64-22.44-3.13-4.87-18.8-13-18.8-13,.29,1.01.53,2.6.57,3.24,1.05,15.1,3.17,30.15,3.89,45.29.61,12.77,1.08,25.25,5.65,37.36,3.28,8.7,7.6,16.96,11.19,25.53,5.42,12.93,10.21,26.15,13.69,39.74.43,1.66,1.41,4.72.91,6.44,0-.02,17.9-26.09,17.9-26.09-.79-3.57-3.14-7.04-4.94-10.16-6.47-11.19-14.08-21.54-21.08-32.39-4.4-6.83-8.14-14.25-9.07-22.41-.43-3.41-.5-6.86-.41-10.33,4.74,4.74,18.7,18.13,27.12,20.24,7.11,1.78,13.96-5.96,13.97-5.97,8.47-7.86,18.22-21.46,18.22-21.46l-10.35-9.65Z"/>
            <g>
              <g>
                <g>
                  <path class="cls-38" d="M187.48,183.85s6.18,2.93,12.83,8.68l-6.77,2.82,8.92,6.55s-8.46,20.88-8.69,38.15"/>
                  <g>
                    <path class="cls-38" d="M204.02,218.63c3.24,8.14,3.23,15.14,1.58,24.03"/>
                    <path class="cls-38" d="M206.52,227.82c1.05-2.2,1.72-4.58,1.98-7"/>
                  </g>
                </g>
                <g>
                  <path class="cls-27" d="M206.53,236.66c6.13,6.23,12.33,12.51,19.61,17.35,2.33,1.55,4.88,2.98,7.67,3.08,3.47.13,6.65-1.81,9.45-3.85,8.17-5.95,15.03-13.14,20.43-21.68"/>
                  <path class="cls-38" d="M235.85,240c-.55,2.5-.78,5.06-.7,7.61"/>
                  <path class="cls-38" d="M251.55,226.05c3.62,3.62,7.32,6.71,10.94,10.33"/>
                </g>
              </g>
              <path class="cls-38" d="M208.79,278.85c4.25,2.86,8.79,5.3,13.52,7.26"/>
            </g>
          </g>
          <g>
            <g>
              <polygon class="cls-54" points="287.14 206.7 210.52 201.61 209.54 252.67 285.5 258.35 287.14 206.7"/>
              <polygon class="cls-49" points="284.57 207.85 212.64 203.06 211.72 251 283.03 256.33 284.57 207.85"/>
              <g>
                <g>
                  <g>
                    <path class="cls-3" d="M257.24,219.96c.31.95,1.33,1.53,2.32,1.65.99.12,1.99-.1,2.99-.23,1.81-.25,3.66-.2,5.46.14,1.43.27,2.84.72,4.29.73,1.45,0,3.03-.54,3.75-1.81.18.98.48,1.94.66,2.92-.96-.64-2.28-.49-3.3.06-1.02.55-1.8,1.44-2.57,2.3-.77.86-1.59,1.72-2.64,2.21-1.74.81-3.92.37-5.38-.89-1.14-.98-1.87-2.39-3.03-3.35-1.39-1.16-3.38-1.57-5.12-1.05.56-1.17,1.49-1.96,2.57-2.67Z"/>
                    <path class="cls-51" d="M258.23,216.13c2.88,1.19,6.14.7,9.24.36,3.1-.34,6.48-.46,9.05,1.31,2.3,1.58,3.5,4.61,2.91,7.34-.59,2.73-2.95,4.99-5.7,5.47-1.51.26-3.15.06-4.49.81-.31.17-.59.39-.91.52-.33.12-.73.13-1-.09-.27-.23-.28-.73.03-.89-.34.16-.89.06-1.05-.28-.15-.34.01-.79.35-.94-.14-.7.31-1.63,1.02-1.58-.17-.68,0-1.46.58-1.87.57-.41,1.38-.44,1.98-.08,1.35.83,3.3,1.02,4.64.17,1.34-.85,2.02-2.62,1.58-4.15-.36-1.25-1.37-2.24-2.53-2.83-1.16-.59-2.47-.82-3.76-.97-4.25-.49-8.6-.13-12.72,1.07.53-1.42.56-1.87.76-3.37Z"/>
                  </g>
                  <g>
                    <path class="cls-3" d="M239.43,218.46c-.47.89-1.57,1.27-2.57,1.22-1-.05-1.95-.45-2.9-.75-1.74-.56-3.57-.84-5.4-.82-1.45.02-2.92.22-4.35-.03-1.43-.25-2.88-1.06-3.37-2.43-.35.93-.82,1.83-1.16,2.76,1.06-.46,2.33-.09,3.24.63.91.72,1.52,1.73,2.13,2.71s1.27,1.98,2.21,2.64c1.58,1.1,3.8,1.05,5.45.07,1.3-.77,2.26-2.03,3.56-2.77,1.58-.9,3.6-.95,5.22-.14-.35-1.25-1.13-2.19-2.07-3.08Z"/>
                    <path class="cls-51" d="M239.13,214.52c-3.05.67-6.17-.38-9.16-1.26-2.99-.88-6.31-1.58-9.14-.29-2.54,1.16-4.25,3.93-4.14,6.72.11,2.79,2.03,5.42,4.65,6.38,1.44.52,3.1.61,4.28,1.58.27.22.51.49.81.67.3.18.7.26,1,.08.3-.18.4-.67.12-.88.3.22.87.21,1.08-.09.21-.31.12-.78-.19-.99.26-.67-.02-1.66-.73-1.73.28-.64.25-1.44-.24-1.94-.49-.51-1.29-.68-1.94-.42-1.48.58-3.42.43-4.6-.64-1.17-1.07-1.53-2.93-.83-4.36.57-1.17,1.74-1.96,2.98-2.34,1.24-.38,2.57-.38,3.87-.3,4.27.26,8.49,1.38,12.33,3.27-.27-1.49-.22-1.94-.16-3.46Z"/>
                    <path class="cls-66" d="M258.61,216.28c-.06-.03-.11-.07-.17-.1-2.99-1.7-6.13-3.45-9.57-3.56v.07c-3.38-.46-6.75.7-9.96,1.85-.06.02-.12.04-.18.07-.48.18-.96.43-1.14.9-.29.8.5,1.53,1.09,2.14.03.03.05.05.07.08,1.1,1.18,1.72,2.72,2.31,4.22.92,2.35,1.84,4.7,2.77,7.05.32.81.64,1.7.38,2.54-.24.78-.94,1.33-1.29,2.07-.56,1.18-.12,2.57.21,3.84.54,2.1.65,4.28.49,6.43-.15,2.01-.58,3.95-1.01,5.92-.03.13-.06.28,0,.4.12.32.98.21,1.25.23.55.03,1.1.07,1.65.12.81.07,1.78.39,2.58.3.72-.08.59-.66.48-1.21-.33-1.72-.27-3.48-.06-5.2.26-2.22.87-4.4,1.8-6.43.54-1.19,1.21-2.48.87-3.74-.22-.79-.81-1.45-.91-2.26-.11-.86.37-1.69.82-2.43,1.32-2.15,2.64-4.3,3.96-6.46.84-1.38,1.72-2.79,3.01-3.75.03-.02.06-.04.09-.07.69-.5,1.6-1.08,1.45-1.92-.09-.49-.52-.82-.96-1.09Z"/>
                  </g>
                </g>
                <g>
                  <path class="cls-56" d="M269.95,237.34l-11.09-.65c-.32-.02-.57-.3-.55-.62h0c.02-.32.3-.57.62-.55l11.09.65c.32.02.57.3.55.62h0c-.02.32-.3.57-.62.55Z"/>
                  <path class="cls-56" d="M253.02,224.01c0,.37-.3.66-.66.66s-.66-.3-.66-.66.3-.66.66-.66.66.3.66.66Z"/>
                  <line class="cls-29" x1="252.41" y1="224.12" x2="260.58" y2="235.17"/>
                </g>
                <g>
                  <path class="cls-56" d="M269.95,241.76l-11.09-.65c-.32-.02-.57-.3-.55-.62h0c.02-.32.3-.57.62-.55l11.09.65c.32.02.57.3.55.62h0c-.02.32-.3.57-.62.55Z"/>
                  <circle class="cls-56" cx="250.48" cy="227.88" r=".66"/>
                  <line class="cls-29" x1="250.41" y1="227.8" x2="258.59" y2="238.85"/>
                </g>
                <g>
                  <path class="cls-56" d="M237.2,243.25l-11.09-.65c-.32-.02-.57-.3-.55-.62h0c.02-.32.3-.57.62-.55l11.09.65c.32.02.57.3.55.62h0c-.02.32-.3.57-.62.55Z"/>
                  <path class="cls-56" d="M246.83,242.13c0,.37-.3.66-.66.66s-.66-.3-.66-.66.3-.66.66-.66.66.3.66.66Z"/>
                  <line class="cls-29" x1="239.64" y1="242.41" x2="246.17" y2="242.13"/>
                </g>
                <g>
                  <path class="cls-56" d="M231.97,234.12l-11.09-.65c-.32-.02-.57-.3-.55-.62h0c.02-.32.3-.57.62-.55l11.09.65c.32.02.57.3.55.62h0c-.02.32-.3.57-.62.55Z"/>
                  <path class="cls-56" d="M228.38,226.66c0,.37-.3.66-.66.66s-.66-.3-.66-.66.3-.66.66-.66.66.3.66.66Z"/>
                  <line class="cls-29" x1="227.72" y1="226.66" x2="227.72" y2="231.97"/>
                </g>
                <g>
                  <rect class="cls-56" x="231.04" y="227.77" width="8.9" height="1.18" rx=".5" ry=".5" transform="translate(13.82 -13.44) rotate(3.37)"/>
                  <path class="cls-56" d="M235.07,222.41c0,.37-.3.66-.66.66s-.66-.3-.66-.66.3-.66.66-.66.66.3.66.66Z"/>
                  <line class="cls-29" x1="234.4" y1="222.41" x2="234.29" y2="226.83"/>
                </g>
                <g>
                  <path class="cls-56" d="M281.26,213.23l-11.09-.65c-.32-.02-.57-.3-.55-.62h0c.02-.32.3-.57.62-.55l11.09.65c.32.02.57.3.55.62h0c-.02.32-.3.57-.62.55Z"/>
                  <path class="cls-56" d="M272.9,217.5c0,.37-.3.66-.66.66s-.66-.3-.66-.66.3-.66.66-.66.66.3.66.66Z"/>
                  <line class="cls-29" x1="272.24" y1="217.5" x2="274.45" y2="213.56"/>
                </g>
                <g>
                  <path class="cls-56" d="M259.09,209.99l-11.09-.65c-.32-.02-.57-.3-.55-.62h0c.02-.32.3-.57.62-.55l11.09.65c.32.02.57.3.55.62h0c-.02.32-.3.57-.62.55Z"/>
                  <path class="cls-56" d="M251.52,214.46c0,.37-.3.66-.66.66s-.66-.3-.66-.66.3-.66.66-.66.66.3.66.66Z"/>
                  <line class="cls-29" x1="251.25" y1="213.08" x2="252.08" y2="209.38"/>
                </g>
                <g>
                  <rect class="cls-56" x="222.57" y="207.83" width="8.9" height="1.18" rx=".5" ry=".5" transform="translate(12.63 -12.98) rotate(3.37)"/>
                  <path class="cls-56" d="M225.07,212.41c0,.37-.3.66-.66.66s-.66-.3-.66-.66.3-.66.66-.66.66.3.66.66Z"/>
                  <line class="cls-29" x1="225.22" y1="211.42" x2="227.39" y2="208.38"/>
                </g>
              </g>
            </g>
            <g>
              <path class="cls-52" d="M280.87,213.15c-.67.11-1.37.23-1.91.64-.54.41-.86,1.2-.52,1.78.33.58,1.1.71,1.76.76,2.85.23,5.71.22,8.57.21.6,0,1.2,0,1.78-.17.57-.17,1.12-.53,1.37-1.07.87-1.88-1.7-3.58-3.33-3.44-2.57.23-5.17.87-7.71,1.29Z"/>
              <path class="cls-52" d="M279.94,217.17c-.61.15-1.24.33-1.72.73-.49.4-.81,1.07-.61,1.67.15.46.58.79,1.04.95.46.16.96.17,1.45.18,3,.06,6.01.07,8.97-.37,1.08-.16,2.32-.52,2.7-1.54.36-.97-.32-2.08-1.24-2.54-1.51-.75-3.37-.2-4.95-.05-1.9.18-3.78.5-5.63.97Z"/>
              <path class="cls-52" d="M279.99,220.65c-.62.1-1.26.23-1.78.59-.52.36-.89,1-.75,1.61.11.47.51.84.96,1.04s.94.25,1.43.3c2.98.31,5.98.57,8.97.38,1.09-.07,2.35-.32,2.82-1.31.44-.94-.14-2.1-1.03-2.64-1.44-.87-3.34-.48-4.93-.46-1.9.02-3.81.19-5.69.5Z"/>
              <path class="cls-52" d="M281.68,224.33c-.43.1-.86.25-1.19.53-.34.28-.57.72-.5,1.15.11.7.87,1.06,1.55,1.26,1.96.58,4.04.75,6.06.51.66-.08,1.38-.24,1.77-.78.39-.54.31-1.32-.08-1.86-.81-1.12-2.35-1.12-3.57-.96-1.35.18-2.67-.18-4.04.14Z"/>
            </g>
          </g>
          <g>
            <path class="cls-69" d="M166.86,184.03s6.52,8.67,9.57,21.24c3.09,12.75-1.49,48.34-2.57,63.8-1.14,16.38-.13,79.1-.13,79.1,0,0-14.35-9.97-26.54-16.44-10.49-5.58-19.05-11.05-19.05-11.05,0,0,8.19-25.9,14.47-37.71,6.29-11.81,10.09-25.33,10.09-25.33l-8.19-61.9s7.92-7.97,22.33-11.71Z"/>
            <path class="cls-41" d="M164.27,184.46c-3.57,4.66-6.03,10.16-7.12,15.93,2.59-1.39,5.14-2.42,7.97-3.22-1.7,1.94-3.96,6.69-4.02,7.05-.07.4,12.38,23.94,12.56,37.56"/>
            <g>
              <path class="cls-27" d="M150.15,271.85c-6.62,16.83-12.56,33.94-17.79,51.26"/>
              <path class="cls-41" d="M145.29,297.83c6.89-3.16,13.49-6.97,19.67-11.35"/>
            </g>
            <g>
              <path class="cls-52" d="M187.52,242.55c6.06-3.47,12.75-5.68,19.38-7.87,2.5-.82,5-1.65,7.49-2.47.84-.28,2.03-.41,2.38.41.31.74-.42,1.46-1.07,1.93-2.73,1.96-5.46,3.93-8.19,5.89.9,3.92,1.62,7.94,1.01,11.92-.21,1.36-.56,2.81-1.58,3.74-1.38,1.26-3.48,1.17-5.34,1-4.25-.38-8.5-.76-12.75-1.14.21.03.42.06.63.09-1.14-4.34-2.06-9-1.96-13.48Z"/>
              <g>
                <path class="cls-69" d="M188.34,240.12l-36.39,4.19-7.41-48.57s-7.24,8.38-14.47,27.81c-7.24,19.43-12,36.95-7.24,44.38.11.18.24.32.37.46,1.51,1.74,7.65,7.75,18.67,5.13,12.82-3.05,48.12-14.86,48.12-14.86l-1.65-18.54Z"/>
                <g>
                  <path class="cls-41" d="M147.21,272.28c14.38-3.99,28.6-8.57,42.61-13.73"/>
                  <g>
                    <polyline class="cls-41" points="151.2 222.41 145.67 245.83 188.34 240.12"/>
                    <path class="cls-41" d="M145.93,245.58c-3.31,2.58-6.51,6.36-8.03,10.27"/>
                    <path class="cls-41" d="M148.82,232.74c1.74-2.96,3.47-5.92,5.21-8.89"/>
                    <path class="cls-41" d="M182.99,240.88c-.71,6.43.06,13.02,2.25,19.11"/>
                    <path class="cls-27" d="M148.4,234.41c1.23,3.65,1.52,6.87,1.87,10.7"/>
                  </g>
                </g>
              </g>
            </g>
          </g>
        </g>
      </g>
      <g>
        <g>
          <g>
            <rect class="cls-54" x="31.63" y="282.88" width="300.16" height="7.62"/>
            <rect class="cls-54" x="41.72" y="290.12" width="281.44" height="12.19"/>
            <rect class="cls-22" x="41.72" y="290.12" width="281.44" height="3.43"/>
          </g>
          <rect class="cls-54" x="43.29" y="301.93" width="4.87" height="139.8"/>
          <rect class="cls-54" x="314.98" y="301.93" width="4.87" height="139.8"/>
        </g>
        <g>
          <g>
            <path class="cls-48" d="M53.16,215.97c.76-.25,82.79-1.27,82.79-1.27l6.35,67.8H61.54l-8.38-66.53Z"/>
            <line class="cls-42" x1="61.54" y1="282.5" x2="171.75" y2="282.5"/>
          </g>
          <circle class="cls-69" cx="96.68" cy="250.6" r="9.43"/>
        </g>
        <g>
          <g>
            <path class="cls-66" d="M298.79,242.77c0-.05-1.56-.83-1.66-.88-5.13-2.98-9.34-8.42-9.57-14.52-.11-2.91,1.81-5.82,5.09-5.03.98.24,1.84.83,2.55,1.54,2.12,2.12,3.01,5.28,3.59,8.15.71,3.52.6,7.23,0,10.75Z"/>
            <path class="cls-39" d="M290.7,224.48l8.85,19.86s3.3,7.65,5.52,15.18"/>
            <polyline class="cls-39" points="290.05 227.38 292.57 228.75 293.21 226.18"/>
            <polyline class="cls-39" points="291.07 230.97 294.24 232.43 295.44 229.3"/>
            <polyline class="cls-39" points="292.44 234.78 296.17 236.62 297.11 233.5"/>
          </g>
          <g>
            <path class="cls-66" d="M311.53,243c0-.05,1.56-.83,1.66-.88,5.13-2.98,9.34-8.42,9.57-14.52.11-2.91-1.81-5.82-5.09-5.03-.98.24-1.84.83-2.55,1.54-2.12,2.12-3.01,5.28-3.59,8.15-.71,3.52-.6,7.23,0,10.75Z"/>
            <path class="cls-39" d="M319.62,224.71l-8.85,19.86s-3.3,7.65-5.52,15.18"/>
            <polyline class="cls-39" points="320.27 227.6 317.75 228.97 317.11 226.41"/>
            <polyline class="cls-39" points="319.25 231.2 316.08 232.66 314.88 229.53"/>
            <polyline class="cls-39" points="317.88 235.01 314.15 236.85 313.21 233.73"/>
          </g>
          <g>
            <path class="cls-66" d="M304.62,233.34s-1.19-1.31-1.27-1.39c-3.82-4.54-5.94-11.08-4.09-16.91.88-2.77,3.67-4.86,6.49-3.01.84.55,1.45,1.4,1.88,2.31,1.27,2.71,1.05,5.99.62,8.88-.52,3.55-1.88,7.01-3.63,10.12Z"/>
            <path class="cls-39" d="M303.2,213.39l1.61,21.69s-.25,14.87-.7,22.71"/>
            <polyline class="cls-39" points="301.6 215.89 303.51 218.03 304.99 215.83"/>
            <polyline class="cls-39" points="301.35 219.62 303.84 222.06 306.02 219.53"/>
            <polyline class="cls-39" points="301.35 223.67 304.23 226.66 306.18 224.04"/>
          </g>
          <g>
            <path class="cls-66" d="M312.43,252.01s4.57-11.09,7.6-9.24c2.98,1.82,0,5.61-3.48,7.82-2.01,1.27-4.12,1.42-4.12,1.42Z"/>
            <path class="cls-30" d="M306.96,259.18s4.76-6.25,7.15-8.98"/>
          </g>
          <g>
            <path class="cls-66" d="M297.12,252.01s-4.57-11.09-7.6-9.24c-2.98,1.82,0,5.61,3.48,7.82,2.01,1.27,4.12,1.42,4.12,1.42Z"/>
            <path class="cls-30" d="M302.59,259.18s-4.76-6.25-7.15-8.98"/>
          </g>
          <g>
            <g>
              <polygon class="cls-56" points="316.55 257.04 316.19 259.7 316.18 259.79 315.92 261.67 313.03 283.07 295.91 282.99 292.74 261.67 292.47 259.79 292.45 259.7 292.06 257.04 316.55 257.04"/>
              <rect class="cls-56" x="291.54" y="256.27" width="25.43" height="3.42"/>
            </g>
            <polygon class="cls-12" points="316.18 259.79 315.92 261.67 292.74 261.67 292.47 259.79 316.18 259.79"/>
          </g>
        </g>
      </g>
    </g>
  </g>
</svg>