<?xml version="1.0" encoding="UTF-8"?>
<svg xmlns="http://www.w3.org/2000/svg" xmlns:xlink="http://www.w3.org/1999/xlink" viewBox="0 0 668 512">
  <defs>
    <style>
      .cls-1, .cls-2 {
        mix-blend-mode: screen;
      }

      .cls-1, .cls-2, .cls-3 {
        fill: #ffefcb;
      }

      .cls-4 {
        fill: #4b5452;
      }

      .cls-5 {
        fill: #ffc5c3;
      }

      .cls-6 {
        fill: #4e635f;
      }

      .cls-7 {
        fill: #ff5553;
      }

      .cls-8 {
        fill: #863e12;
      }

      .cls-9 {
        fill: #b49e9e;
      }

      .cls-10 {
        fill: #007376;
      }

      .cls-11 {
        fill: #00888b;
      }

      .cls-12 {
        stroke: #33403e;
      }

      .cls-12, .cls-13, .cls-14, .cls-15, .cls-16, .cls-17, .cls-18, .cls-19, .cls-20 {
        fill: none;
      }

      .cls-12, .cls-18, .cls-20 {
        stroke-linecap: round;
        stroke-linejoin: round;
      }

      .cls-12, .cls-20 {
        stroke-width: 7.09px;
      }

      .cls-21 {
        fill: #586361;
      }

      .cls-22, .cls-23 {
        fill: #fbbebd;
      }

      .cls-22, .cls-24 {
        opacity: .76;
      }

      .cls-23 {
        opacity: .37;
      }

      .cls-25 {
        fill: #420c0b;
      }

      .cls-26, .cls-27 {
        fill: #425451;
      }

      .cls-28 {
        fill: #00dae4;
      }

      .cls-2 {
        opacity: .36;
      }

      .cls-29 {
        fill: #516863;
      }

      .cls-30 {
        fill: #778684;
      }

      .cls-31, .cls-32 {
        fill: #fff;
      }

      .cls-33 {
        fill: #972827;
      }

      .cls-34 {
        fill: #00ecf7;
      }

      .cls-35 {
        fill: #fce5c2;
      }

      .cls-36 {
        fill: #c2e9e9;
      }

      .cls-37 {
        opacity: .46;
      }

      .cls-38, .cls-39 {
        fill: #00b1b9;
      }

      .cls-40, .cls-3 {
        opacity: .4;
      }

      .cls-13 {
        stroke: #420c0b;
        stroke-width: 1.03px;
      }

      .cls-13, .cls-14, .cls-16, .cls-17, .cls-19 {
        stroke-miterlimit: 10;
      }

      .cls-41 {
        fill: #26cdd5;
      }

      .cls-41, .cls-39 {
        opacity: .63;
      }

      .cls-14 {
        stroke: #f99e9e;
      }

      .cls-14, .cls-16 {
        stroke-width: 1.83px;
      }

      .cls-16 {
        stroke: #e8201f;
      }

      .cls-42 {
        fill: #343b3a;
      }

      .cls-43 {
        fill: #ac3a31;
      }

      .cls-44 {
        fill: #f8332f;
      }

      .cls-45 {
        fill: #6e3310;
      }

      .cls-46 {
        fill: #56615f;
      }

      .cls-47 {
        fill: #ce4d42;
      }

      .cls-48 {
        fill: #ae302e;
      }

      .cls-49 {
        fill: #e9e0d1;
        opacity: .67;
      }

      .cls-49, .cls-50, .cls-3, .cls-51, .cls-27, .cls-52, .cls-53 {
        mix-blend-mode: multiply;
      }

      .cls-54 {
        isolation: isolate;
      }

      .cls-17 {
        stroke: #fff;
        stroke-width: .39px;
      }

      .cls-55 {
        fill: #4d5655;
      }

      .cls-56 {
        fill: #5f6b69;
      }

      .cls-57 {
        fill: #82c7c8;
      }

      .cls-58 {
        fill: #ffb5b4;
      }

      .cls-50, .cls-51, .cls-27 {
        opacity: .61;
      }

      .cls-50, .cls-59 {
        fill: #9dc8c0;
      }

      .cls-60 {
        fill: #fff7e6;
      }

      .cls-61 {
        fill: #2f0606;
      }

      .cls-62 {
        fill: #007e81;
      }

      .cls-63 {
        fill: #ffe7b2;
      }

      .cls-64 {
        fill: #fdf3e2;
      }

      .cls-18 {
        stroke: #415450;
        stroke-width: 11.28px;
      }

      .cls-65 {
        fill: #b4e7de;
      }

      .cls-51 {
        fill: #40524f;
      }

      .cls-66 {
        fill: #34423f;
      }

      .cls-67 {
        fill: #3d4544;
      }

      .cls-68 {
        fill: #00c9d2;
      }

      .cls-69 {
        fill: #8e634b;
      }

      .cls-70 {
        fill: #ffa6a4;
      }

      .cls-71 {
        fill: #576f6b;
      }

      .cls-72 {
        fill: #fd8787;
      }

      .cls-73 {
        fill: #697573;
      }

      .cls-19 {
        stroke: #779a93;
        stroke-width: 1.41px;
      }

      .cls-74 {
        fill: #500a01;
      }

      .cls-75 {
        fill: #bad2ce;
      }

      .cls-76 {
        fill: #00adb6;
      }

      .cls-77 {
        fill: #00b99a;
      }

      .cls-32 {
        opacity: .42;
      }

      .cls-52 {
        fill: #63817b;
      }

      .cls-52, .cls-53 {
        opacity: .18;
      }

      .cls-78 {
        fill: #fff5e0;
      }

      .cls-79 {
        fill: #009d82;
      }

      .cls-80 {
        fill: #efd0a0;
      }

      .cls-81 {
        fill: #ccf5f4;
      }

      .cls-82 {
        opacity: .38;
      }

      .cls-53 {
        fill: #8db4ac;
      }

      .cls-83 {
        fill: #e81818;
      }

      .cls-20 {
        stroke: #5b746f;
      }

      .cls-84 {
        fill: #b3d5cf;
      }

      .cls-24 {
        fill: #f5d0d0;
      }

      .cls-85 {
        fill: #2a3634;
      }

      .cls-86 {
        fill: #00989f;
      }

      .cls-87 {
        fill: #6f7c7a;
      }

      .cls-88 {
        fill: #8fb6af;
      }

      .cls-89 {
        clip-path: url(#clippath);
      }

      .cls-90 {
        fill: #779a93;
      }

      .cls-91 {
        fill: #00979d;
      }

      .cls-92 {
        fill: #445653;
      }
    </style>
    <clipPath id="clippath">
      <path id="SVGID" class="cls-15" d="M340.98,119.15c-5.02,1.05-22.39,4.07-39.99.05,0,0-6.15-1.74-12.69-.77-6.54.98-5.79-5.24-10.82-7.28-5.52-2.23-3.14,3.32-3.14,3.32,0,0,4.24-.41,7.31,5.82,0,0,2.16,3.65,10.35,1.18,8.19-2.47,12.51,3.52,13.61,5.59,1.1,2.06,2.6,8.62,7.56,11.8,4.96,3.18-1.22,9.95.39,12.72,1.6,2.78,2.6,4.8.91,5.07-1.69.27-6.25-5.53-6.73-3.44-.48,2.09,3.59,3.15,1.9,7.41-1.69,4.26-.75,11.96.79,17.25,1.54,5.3.65,9.01.65,9.01,0,0,3.84,2.55,9.2.31,0,0-.61-5.49,1.07-9.23s4.12-12.18,2.15-16.96c-1.97-4.78,3.96-6.41,1.27-8.06-2.69-1.65-4.79,5.96-6.61,3.6-1.83-2.36,1.25-3.4,1.66-6.71.41-3.32-2.64-7.08-.7-8.81,1.94-1.73,7.5-5.08,8.54-12.48,1.04-7.4,12.36-6.09,16.6-5.19,2.36.5,10.05-1.12,12.62-6.83,0,0,4.17-2.51,8.77-1.86s3.43-2.66,6.66-1.61c3.23,1.04,1.95,9.52-5.55,11l3.98,4.21s12.07-7.31,7.71-16.85c0,0-1.68-3.89-6.25-1.81-4.57,2.08-6.24,1.43-8.86,1.4-2.63-.03-9.52,2.51-11.5,5.71-1.71,2.77-4.51,2.73-7.8,2.33-1.01-.12-2.02-.09-3.02.12Z"/>
    </clipPath>
  </defs>
  <g class="cls-54">
    <g id="Layer_5" data-name="Layer 5">
      <g>
        <g>
          <g>
            <path class="cls-23" d="M559.27,422.86s-115.22,17.59-199.79-23.19c-84.57-40.78-213.44.85-260.83-68.48-47.39-69.33-82.5-183.33,34.03-234.68,116.53-51.35,194.09-70.07,296.9-21.01,102.81,49.06,237.76,108.22,213.15,187.29-24.61,79.07-2.09,127.74-83.47,160.07Z"/>
            <path class="cls-23" d="M607.92,350.13s-104.49,51.64-197.43,38.38c-92.94-13.26-203.17,65.42-269.32,13.69C75.02,350.46,7.04,252.44,102.56,168.22c95.52-84.22,163.77-125.54,276.61-109.9,112.84,15.64,259.37,31.17,259.85,113.98.48,82.81,36.68,122.38-31.09,177.83Z"/>
          </g>
          <g class="cls-82">
            <path class="cls-23" d="M128.06,376.58s115.22-6.08,199.79,8.02c84.57,14.1,213.44-.29,260.83,23.67,47.39,23.97,82.5,63.37-34.03,81.12-116.53,17.75-194.09,24.22-296.9,7.26-102.81-16.96-237.76-37.41-213.15-64.74,24.61-27.33,2.09-44.16,83.47-55.33Z"/>
            <path class="cls-23" d="M79.41,401.72s104.49-17.85,197.43-13.27c92.94,4.58,203.17-22.61,269.32-4.73,66.15,17.88,134.13,51.77,38.61,80.88-95.52,29.11-163.77,43.4-276.61,37.99-112.84-5.41-259.37-10.77-259.85-39.4-.48-28.63-36.68-42.3,31.09-61.47Z"/>
          </g>
        </g>
        <g>
          <polygon class="cls-81" points="544.53 381.13 653.89 364.28 653.89 108.84 544.53 125.69 544.53 381.13"/>
          <polygon class="cls-36" points="546.08 381.13 436.72 364.28 436.72 108.84 546.08 125.69 546.08 381.13"/>
          <path class="cls-57" d="M657.28,371.76h0c1.87,0,3.39-1.52,3.39-3.39V100.81c0-1.87-1.52-3.39-3.39-3.39h0c-1.87,0-3.39,1.52-3.39,3.39v267.56c0,1.87,1.52,3.39,3.39,3.39Z"/>
          <path class="cls-57" d="M536.05,389.36h0c1.87,0,3.39-1.52,3.39-3.39V118.4c0-1.87-1.52-3.39-3.39-3.39h0c-1.87,0-3.39,1.52-3.39,3.39v267.56c0,1.87,1.52,3.39,3.39,3.39Z"/>
          <path class="cls-57" d="M552.43,389.36h0c1.87,0,3.39-1.52,3.39-3.39V118.4c0-1.87-1.52-3.39-3.39-3.39h0c-1.87,0-3.39,1.52-3.39,3.39v267.56c0,1.87,1.52,3.39,3.39,3.39Z"/>
          <rect class="cls-57" x="436.86" y="97.42" width="6.79" height="274.34" rx="3.39" ry="3.39" transform="translate(880.51 469.18) rotate(-180)"/>
        </g>
        <g>
          <rect class="cls-49" x="246.76" y="72.19" width="136.62" height="182.57" transform="translate(630.13 326.95) rotate(180)"/>
          <rect class="cls-60" x="251.01" y="68.89" width="138.93" height="182.57" transform="translate(640.96 320.34) rotate(180)"/>
          <path class="cls-64" d="M303.55,68.89v55.77c0,44.95,36.44,81.4,81.4,81.4h5v45.41h-138.93V68.89h52.54Z"/>
          <g>
            <g>
              <path class="cls-63" d="M267.4,128.74c-.11-.44-.33-.98.6-2.23.16-.21.48-.2.73-.25.74-.12,1.38-.61,1.61-1.32.22-.68.73-1.27,1.48-1.56.96-.38,2.47-.32,2.76.67.69,2.35,2.65.74,4.34,2.41.23.23.27.59.31.9.11.78.62,1.47,1.37,1.7.64.19,1.2.65,1.52,1.31.45.93.26,2.06-.45,2.81,0,0-.01.01-.02.02-.03.03-.04.06-.07.08.02.29.03.59.02.88.03.04.07.08.12.11.37.27.68.65.86,1.13.37.97.09,2.1-.7,2.77-.41.35-.88.54-1.35.59-.65.08-1.16.57-1.29,1.21-.19.95-.94,1.79-2.1,1.99-.65.11-1.33-.06-1.84-.47-.02-.01-.03-.03-.05-.04-.53-.44-1.28-.45-1.84-.04-.04.03-.09.06-.13.09-1.21.76-2.8.36-3.5-.86-.13-.22-.22-.46-.27-.7-.2-.87-.74-1.63-1.58-1.95-.52-.2-.97-.57-1.27-1.08-.22-.39-.33-.81-.33-1.22,0-.69-.16-1.38-.54-1.96-.03-.04-.07-.07-.07-.12-.08-1.35.11-2.66,1.28-3.83.1-.35.24-.69.4-1.02Z"/>
              <g>
                <path class="cls-80" d="M266.24,131.65s.05.08.07.12c.38.58.53,1.27.54,1.96,0,.42.11.84.33,1.22.3.52.75.88,1.27,1.08.83.32,1.38,1.08,1.58,1.95.05.24.14.47.27.7.71,1.23,2.3,1.63,3.5.86.05-.03.09-.06.13-.09.56-.41,1.31-.4,1.84.04.02.01.03.03.05.04.52.41,1.19.58,1.84.47,1.16-.2,1.91-1.03,2.1-1.99.13-.64.64-1.13,1.29-1.21.47-.05.94-.25,1.35-.59.12-.1.22-.21.31-.32.13.84-.17,1.72-.83,2.28-.41.35-.88.54-1.35.59-.65.08-1.16.57-1.29,1.21-.19.95-.94,1.79-2.1,1.99-.65.11-1.33-.06-1.84-.47-.02-.01-.03-.03-.05-.04-.53-.44-1.28-.45-1.84-.04-.04.03-.09.06-.13.09-1.21.76-2.8.36-3.5-.86-.13-.22-.22-.46-.27-.7-.2-.87-.74-1.63-1.58-1.95-.52-.2-.97-.57-1.27-1.08-.22-.39-.33-.81-.33-1.22,0-.69-.16-1.38-.54-1.96-.03-.04-.07-.07-.07-.12-.06-.97.03-1.91.51-2.81-.01.28-.01.57,0,.85Z"/>
                <path class="cls-35" d="M282.13,132.19c.01-.29,0-.58-.02-.88.02-.03.04-.06.07-.08,0,0,.01-.01.02-.02.05-.05.1-.11.14-.16.06.41.02.84-.12,1.23-.03-.03-.06-.05-.09-.08Z"/>
                <path class="cls-35" d="M267.91,126.79c-.16.33-.29.67-.4,1.02-.08.08-.15.16-.22.23.02-.33.16-.76.59-1.37,0,.04.02.08.03.11Z"/>
              </g>
              <path class="cls-63" d="M299.91,128.93s-9.56,9.17-19.46,5.62l-.7,3.04s8.86,7.31,22.4-3.89c4.78-3.95-2.25-4.77-2.25-4.77Z"/>
              <path class="cls-80" d="M300.6,131.87c1.14-.94,1.6-1.71,1.65-2.33,1.48.64,2.66,1.88-.1,4.15-13.54,11.19-22.28,3.98-22.28,3.98l.4-.53c3.21,1.52,10.32,3,20.33-5.28Z"/>
              <path class="cls-3" d="M274.13,136.52c-.52.9-.13,2.11.88,2.69,1.01.58,2.25.32,2.77-.58s.13-2.11-.88-2.69c-1.01-.58-2.25-.32-2.77.58Z"/>
              <path class="cls-3" d="M268.59,128.62c-.52.9-.13,2.11.88,2.69,1.01.58,2.25.32,2.77-.58.52-.9.13-2.11-.88-2.69-1.01-.58-2.25-.32-2.77.58Z"/>
              <path class="cls-3" d="M275.11,128.08c-.52.9-.13,2.11.88,2.69,1.01.58,2.25.32,2.77-.58.52-.9.13-2.11-.88-2.69-1.01-.58-2.25-.32-2.77.58Z"/>
              <path class="cls-1" d="M278.48,133.75c-.3.52-.08,1.22.51,1.56.58.34,1.3.19,1.6-.34.3-.52.08-1.22-.51-1.56-.58-.34-1.3-.19-1.6.34Z"/>
              <path class="cls-1" d="M268.68,135.55c-.3.52-.08,1.22.51,1.56.58.34,1.3.19,1.6-.34.3-.52.08-1.22-.51-1.56-.58-.34-1.3-.19-1.6.34Z"/>
              <path class="cls-2" d="M272.55,133.09c-.3.52-.08,1.22.51,1.56.58.34,1.3.19,1.6-.34s.08-1.22-.51-1.56c-.58-.34-1.3-.19-1.6.34Z"/>
            </g>
            <g>
              <path class="cls-63" d="M365.37,129.4c.14-.43.39-.95-.45-2.27-.14-.22-.46-.24-.71-.3-.73-.18-1.33-.71-1.51-1.43-.17-.69-.64-1.32-1.37-1.66-.93-.44-2.44-.49-2.8.48-.85,2.3-2.69.55-4.49,2.1-.25.21-.31.57-.37.87-.17.77-.72,1.42-1.49,1.6-.65.15-1.25.56-1.61,1.2-.51.89-.4,2.03.25,2.83,0,0,.01.01.02.02.02.03.04.06.06.09-.04.29-.07.58-.08.87-.04.04-.08.07-.12.1-.39.25-.72.61-.94,1.07-.44.94-.24,2.09.5,2.81.38.37.84.6,1.31.69.65.12,1.12.64,1.2,1.3.13.96.81,1.85,1.96,2.13.64.16,1.33.03,1.87-.34.02-.01.03-.02.05-.04.56-.41,1.31-.36,1.84.09.04.03.08.07.13.1,1.15.85,2.76.56,3.55-.62.14-.21.25-.44.32-.68.26-.85.86-1.58,1.71-1.84.53-.16,1.01-.5,1.34-.99.25-.37.39-.78.42-1.2.05-.69.25-1.37.67-1.92.03-.04.08-.07.08-.12.17-1.34.07-2.66-1.01-3.91-.08-.36-.19-.71-.32-1.05Z"/>
              <g>
                <path class="cls-80" d="M366.32,132.38s-.05.08-.08.12c-.42.55-.62,1.23-.67,1.92-.03.41-.17.83-.42,1.2-.33.49-.81.83-1.34.99-.85.26-1.45.99-1.71,1.84-.07.23-.18.46-.32.68-.79,1.17-2.4,1.46-3.55.62-.04-.03-.09-.07-.13-.1-.53-.45-1.28-.49-1.84-.09-.02.01-.03.02-.05.04-.54.38-1.23.5-1.87.34-1.15-.28-1.83-1.16-1.96-2.13-.09-.65-.56-1.18-1.2-1.3-.47-.09-.92-.31-1.31-.69-.11-.11-.2-.22-.29-.35-.19.83.05,1.72.67,2.33.38.37.84.6,1.31.69.65.12,1.12.64,1.2,1.3.13.96.81,1.85,1.96,2.13.64.16,1.33.03,1.87-.34.02-.01.03-.02.05-.04.56-.41,1.31-.36,1.84.09.04.03.08.07.13.1,1.15.85,2.76.56,3.55-.62.14-.21.25-.44.32-.68.26-.85.86-1.58,1.71-1.84.53-.16,1.01-.5,1.34-.99.25-.37.39-.78.42-1.2.05-.69.25-1.37.67-1.92.03-.04.08-.07.08-.12.12-.96.11-1.91-.31-2.84,0,.28-.03.57-.07.85Z"/>
                <path class="cls-35" d="M350.43,131.82c0-.29.04-.58.08-.87-.02-.03-.04-.06-.06-.09,0,0-.01-.01-.02-.02-.05-.06-.09-.11-.13-.17-.09.41-.08.83.03,1.23.03-.02.07-.05.1-.08Z"/>
                <path class="cls-35" d="M364.99,127.42c.14.34.24.69.32,1.05.07.08.14.17.2.25,0-.33-.11-.77-.49-1.41-.01.04-.03.08-.04.11Z"/>
              </g>
              <path class="cls-63" d="M332.92,127.33s8.9,9.81,19.02,6.95l.49,3.08s-9.35,6.68-22.08-5.43c-4.49-4.27,2.57-4.6,2.57-4.6Z"/>
              <path class="cls-80" d="M332.02,130.22c-1.07-1.02-1.48-1.81-1.49-2.44-1.52.54-2.78,1.69-.19,4.15,12.73,12.11,21.95,5.51,21.95,5.51l-.36-.56c-3.3,1.29-10.5,2.28-19.91-6.67Z"/>
              <path class="cls-3" d="M358.11,136.69c.46.94-.02,2.11-1.06,2.62-1.04.51-2.26.16-2.72-.77-.46-.94.02-2.11,1.06-2.62,1.05-.51,2.26-.16,2.72.77Z"/>
              <path class="cls-3" d="M364.18,129.2c.46.94-.02,2.11-1.06,2.62-1.05.51-2.26.16-2.72-.77-.46-.94.02-2.11,1.06-2.62,1.05-.51,2.26-.16,2.72.77Z"/>
              <path class="cls-3" d="M357.72,128.2c.46.94-.02,2.11-1.06,2.62-1.04.51-2.26.16-2.72-.77-.46-.94.02-2.11,1.06-2.62,1.05-.51,2.26-.16,2.72.77Z"/>
              <path class="cls-1" d="M353.96,133.63c.27.54,0,1.22-.61,1.52s-1.31.09-1.57-.45c-.27-.54,0-1.22.61-1.52.6-.3,1.31-.09,1.57.45Z"/>
              <path class="cls-1" d="M363.61,136.1c.27.54,0,1.22-.61,1.52-.6.3-1.31.09-1.57-.45-.27-.54,0-1.22.61-1.52.6-.3,1.31-.09,1.57.45Z"/>
              <path class="cls-2" d="M359.93,133.38c.27.54,0,1.22-.61,1.52-.6.3-1.31.09-1.57-.45-.27-.54,0-1.22.61-1.52.6-.3,1.31-.09,1.57.45Z"/>
            </g>
            <path class="cls-72" d="M342.42,118.83s-2.59-9.27-26.66-9.09c-24.08.18-24.15,8.87-24.15,8.87,0,0,10.25,10.14,10.91,16.85.65,6.7,5.59,9.35,2.04,16.94-3.02,6.46,2.89,26.97,4.72,32.94.3.98,1.19,1.66,2.22,1.69l7.81.21c1.23.03,2.34-.69,2.81-1.83,2.21-5.4,8.06-21.21,5.47-31.54,0,0-1.28-1.93,1.31-5.09,2.59-3.16,3.59-8.82,3.84-11.99.25-3.17,7.88-13.16,9.69-17.96Z"/>
            <path class="cls-58" d="M319.52,184.49c2.05-5,7.7-20.1,5.46-29.7-.53-1.22-1.21-4.11,1.79-7.76,1.95-2.38,2.96-7.12,3.22-10.46.18-2.28,2.13-5.51,5.28-10.58,1.57-2.52,3.18-5.12,4.1-7.03-1.36-1.84-6.52-6.59-23.59-6.46-5.55.04-10.21.55-13.83,1.52-4.65,1.24-6.47,2.91-7.17,3.91,2.97,3.14,9.87,11.06,10.47,17.27.2,2.01.87,3.61,1.59,5.31,1.4,3.33,3,7.11.21,13.06-2.01,4.31,1.43,19.92,4.77,30.72l7.7.21Z"/>
            <path class="cls-5" d="M326.67,142.56c2.78-5.95,6.06-15.81,4.66-19.15-.71-1.7-1.39-3.3-1.59-5.31-.36-3.74-7.89-2.01-10.58-5.58,14.39.48,18.95,4.7,20.22,6.42-.92,1.91-2.53,4.5-4.1,7.03-3.15,5.07-5.1,8.3-5.28,10.58-.27,3.34-1.27,8.08-3.22,10.46-.25.3-.46.6-.66.89-.11-2.36.04-4.24.56-5.35Z"/>
            <path class="cls-70" d="M307.05,153.56c2.78-5.95,1.19-9.73-.21-13.06-.71-1.7-1.39-3.3-1.59-5.31-.6-6.21-7.51-14.13-10.47-17.27.7-1.01,2.52-2.67,7.17-3.91,1.87-.5,4.01-.87,6.4-1.13-1.34.77-2.07,1.52-2.45,2.07,2.97,3.14,9.87,11.06,10.47,17.27.2,2.01.87,3.61,1.59,5.31,1.4,3.33,3,7.11.21,13.06-1.81,3.88.79,16.9,3.77,27.34-.92,2.78-1.82,5.1-2.42,6.55l-7.7-.21c-3.35-10.8-6.79-26.41-4.77-30.72Z"/>
            <path class="cls-7" d="M340.98,119.15c-5.02,1.05-22.39,4.07-39.99.05,0,0-6.15-1.74-12.69-.77-6.54.98-5.79-5.24-10.82-7.28-5.52-2.23-3.14,3.32-3.14,3.32,0,0,4.24-.41,7.31,5.82,0,0,2.16,3.65,10.35,1.18,8.19-2.47,12.51,3.52,13.61,5.59,1.1,2.06,2.6,8.62,7.56,11.8,4.96,3.18-1.22,9.95.39,12.72,1.6,2.78,2.6,4.8.91,5.07-1.69.27-6.25-5.53-6.73-3.44-.48,2.09,3.59,3.15,1.9,7.41-1.69,4.26-.75,11.96.79,17.25,1.54,5.3.65,9.01.65,9.01,0,0,3.84,2.55,9.2.31,0,0-.61-5.49,1.07-9.23s4.12-12.18,2.15-16.96c-1.97-4.78,3.96-6.41,1.27-8.06-2.69-1.65-4.79,5.96-6.61,3.6-1.83-2.36,1.25-3.4,1.66-6.71.41-3.32-2.64-7.08-.7-8.81,1.94-1.73,7.5-5.08,8.54-12.48,1.04-7.4,12.36-6.09,16.6-5.19,2.36.5,10.05-1.12,12.62-6.83,0,0,4.17-2.51,8.77-1.86s3.43-2.66,6.66-1.61c3.23,1.04,1.95,9.52-5.55,11l3.98,4.21s12.07-7.31,7.71-16.85c0,0-1.68-3.89-6.25-1.81-4.57,2.08-6.24,1.43-8.86,1.4-2.63-.03-9.52,2.51-11.5,5.71-1.71,2.77-4.51,2.73-7.8,2.33-1.01-.12-2.02-.09-3.02.12Z"/>
            <g>
              <path class="cls-44" d="M365.62,114.66c-1.28-.18-2.52-.11-3.65.07,1.65-.61,4.04-1.21,6.57-.85.23.03.44.05.65.06-.66.53-1.56,1-3.57.71Z"/>
              <path class="cls-44" d="M370.65,110.22c.47-.18.97-.38,1.52-.63.96-.44,1.79-.6,2.51-.6-1.68.73-2.95,1.08-4.03,1.23Z"/>
              <path class="cls-44" d="M354.72,115.92c-1.13,1.83-2.73,2.43-4.64,2.52.65-.39,1.23-.95,1.72-1.74,1.73-2.81,7.25-5.11,10.35-5.61-2.89,1.01-6.17,2.78-7.43,4.83Z"/>
              <path class="cls-44" d="M372.29,113.05s-.02,0-.03,0c.75-.65,1.23-1.32,2.94-.77,3.23,1.04,1.95,9.52-5.55,11l3.23,3.41c-1.24,1.01-2.17,1.57-2.17,1.57l-3.98-4.21c7.5-1.48,8.78-9.95,5.55-11Z"/>
              <path class="cls-44" d="M310.41,177.87c-1.54-5.3-2.48-12.99-.79-17.25,1.69-4.26-2.38-5.32-1.9-7.41.32-1.41,2.51.78,4.42,2.26.69,1.03,1.2,2.33.39,4.36-1.69,4.26-.75,11.96.79,17.25,1.54,5.3.65,9.01.65,9.01,0,0,2.44,1.61,6.14,1.14-5.29,2.14-9.06-.36-9.06-.36,0,0,.88-3.71-.65-9.01Z"/>
              <path class="cls-44" d="M347.15,122.58c.6.13,1.56.12,2.68-.07-2.31.85-4.51,1.07-5.6.84-2.16-.46-6.17-1.02-9.71-.49,3.98-1.66,9.84-.89,12.63-.29Z"/>
              <path class="cls-44" d="M276.8,110.91c-.25,1.14.45,2.79.45,2.79,0,0,4.24-.41,7.31,5.82,0,0,2.16,3.65,10.35,1.18,8.19-2.47,12.51,3.52,13.61,5.59s2.6,8.62,7.56,11.8c4.96,3.18-2.03,9.89-.43,12.67.66,1.15.38,4.69-.51,4.01-.29-.85-.88-1.94-1.6-3.18-1.6-2.78,4.57-9.54-.39-12.72-4.96-3.18-6.46-9.74-7.56-11.8-1.1-2.06-5.42-8.06-13.61-5.59-8.19,2.47-10.35-1.18-10.35-1.18-3.07-6.23-7.31-5.82-7.31-5.82,0,0-2.17-5.07,2.46-3.57Z"/>
            </g>
            <path class="cls-7" d="M262.87,106.21c2.89,3.05,6.32,1.87,12.08,3.45,5.76,1.57,7.21,5.58,10.52,8.5,3.32,2.92,7.32.3,7.32.3l2.32,1.78s-11.39,4.94-14.2-1.08c-2.81-6.02-7.25-3.88-11.59-5.84-4.33-1.96-6.7-3.58-8.18-.93-1.28,2.28,6.05,7.51,8.12,8.93,6.56,1.63,9.53,6.17,6.82,5.04-2.88-1.2-5.66-2.43-1.9,1.25,3.75,3.69.9,4.98-.36,2.65-1.26-2.33-3.38-3.89-4.63-2.18-.56.77,3.74,6.03,2.08,7.01-1.66.97-2.5-4.98-4.64-4.2-2.14.78,4.22,8.25-.1,5.46-4.33-2.79-4.37-12.24-4.37-12.24h0c-3.12-3-5.01-7.95-6.85-11.18-2.3-4.03,4.66-9.78,7.55-6.73Z"/>
            <g>
              <path class="cls-83" d="M276.86,125.72c.45.7.23,1.06-.78.64-.97-.41-1.93-.81-2.63-1.03-1.14-1.55,1.1-.57,3.4.39Z"/>
              <path class="cls-83" d="M262.28,111.23c1.5-1.87,3.82-.35,7.83,1.46,4.33,1.96,8.78-.18,11.59,5.84,2.28,4.89,12.33,2.49,12.33,2.49,0,0-10.3,4.17-13.11-1.85-2.81-6.02-7.25-3.88-11.59-5.84-3.37-1.52-5.55-2.83-7.05-2.1Z"/>
              <path class="cls-83" d="M269.97,127.46s0,0,0,0c1.25-1.72,3.37-.15,4.63,2.18.4.75.97,1.12,1.43,1.16-.12.97-1.45.89-2.21-.52-1.03-1.89-2.62-3.28-3.85-2.81Z"/>
              <path class="cls-83" d="M267.42,130.26c1.95-.71,2.82,4.17,4.22,4.29-.04.24-.16.43-.36.55-1.57.92-2.41-4.34-4.3-4.26.04-.28.17-.48.44-.58Z"/>
            </g>
            <path class="cls-83" d="M262.87,106.21c2.89,3.05,6.32,1.87,12.08,3.45,3.61.98,5.52,2.92,7.26,4.95-1.31-1.16-2.9-2.16-5.17-2.78-5.76-1.57-9.19-.39-12.08-3.45-2.89-3.05-9.84,2.7-7.55,6.73,1.45,2.54,2.92,6.14,5,9.02,1.16,1.6,1.84,3.49,2.11,5.44.29,2.12.88,4.84,2.14,6.87,0,0,0,0,0,0-4.46-2.68-4.5-12.32-4.5-12.32h0c-3.12-3-5.01-7.95-6.85-11.18-2.3-4.03,4.66-9.78,7.55-6.73Z"/>
            <g class="cls-89">
              <g>
                <g>
                  <path class="cls-14" d="M300.82,162.56s11.47,15,31.22,2.62"/>
                  <path class="cls-16" d="M301.47,160.94s11.47,15,31.22,2.62"/>
                </g>
                <g>
                  <path class="cls-14" d="M300.74,167.91s11.47,15,31.22,2.62"/>
                  <path class="cls-16" d="M300.74,166.32s11.47,15,31.22,2.62"/>
                </g>
                <g>
                  <path class="cls-14" d="M300.44,173.82s11.47,15,31.22,2.62"/>
                  <path class="cls-16" d="M300.62,172.16s11.47,15,31.22,2.62"/>
                </g>
                <g>
                  <path class="cls-14" d="M299.92,179.14s11.47,15,31.22,2.62"/>
                  <path class="cls-16" d="M300.51,177.82s11.47,15,31.22,2.62"/>
                </g>
                <g>
                  <path class="cls-14" d="M301.27,156.75s11.47,15,31.22,2.62"/>
                  <path class="cls-16" d="M301.7,155.05s11.47,15,31.22,2.62"/>
                </g>
              </g>
            </g>
            <path class="cls-7" d="M369.65,123.27s-7.78-1.53-14.31,1.41c-6.54,2.93,3.74-.22,4.68,1.16.94,1.38-7.4,4.18-6.44,5.72.96,1.55,8.04-3.28,9.03-2.41.99.88-6.52,6.35-4.75,8.2.57.6,7.13-3.16,8.37-5.58,2.58-5.03-2.76,8.96,0,8.23,1.52-.4,6.44-8.57,4.93-12.65l-1.51-4.08Z"/>
          </g>
          <path class="cls-7" d="M249.55,71.99h142.82c2.43,0,4.41-1.97,4.41-4.41h0c0-2.43-1.97-4.41-4.41-4.41h-142.82c-2.43,0-4.41,1.97-4.41,4.41h0c0,2.43,1.97,4.41,4.41,4.41Z"/>
          <rect class="cls-74" x="276.03" y="82.12" width="82.11" height="6.19" rx="3.09" ry="3.09" transform="translate(634.18 170.42) rotate(180)"/>
          <g class="cls-37">
            <path class="cls-74" d="M345.01,171.86h35.02c.79,0,1.43-.64,1.43-1.43h0c0-.79-.64-1.43-1.43-1.43h-35.02c-.79,0-1.43.64-1.43,1.43h0c0,.79.64,1.43,1.43,1.43Z"/>
            <path class="cls-74" d="M338.16,178.67h41.87c.79,0,1.43-.64,1.43-1.43h0c0-.79-.64-1.43-1.43-1.43h-41.87c-.79,0-1.43.64-1.43,1.43h0c0,.79.64,1.43,1.43,1.43Z"/>
            <path class="cls-74" d="M338.16,185.13h41.87c.79,0,1.43-.64,1.43-1.43h0c0-.79-.64-1.43-1.43-1.43h-41.87c-.79,0-1.43.64-1.43,1.43h0c0,.79.64,1.43,1.43,1.43Z"/>
            <path class="cls-74" d="M338.16,191.93h41.87c.79,0,1.43-.64,1.43-1.43h0c0-.79-.64-1.43-1.43-1.43h-41.87c-.79,0-1.43.64-1.43,1.43h0c0,.79.64,1.43,1.43,1.43Z"/>
          </g>
          <g class="cls-40">
            <path class="cls-74" d="M296.84,198.58h-35.02c-.79,0-1.43-.64-1.43-1.43h0c0-.79.64-1.43,1.43-1.43h35.02c.79,0,1.43.64,1.43,1.43h0c0,.79-.64,1.43-1.43,1.43Z"/>
            <path class="cls-74" d="M303.69,205.39h-41.87c-.79,0-1.43-.64-1.43-1.43h0c0-.79.64-1.43,1.43-1.43h41.87c.79,0,1.43.64,1.43,1.43h0c0,.79-.64,1.43-1.43,1.43Z"/>
            <path class="cls-74" d="M303.69,211.85h-41.87c-.79,0-1.43-.64-1.43-1.43h0c0-.79.64-1.43,1.43-1.43h41.87c.79,0,1.43.64,1.43,1.43h0c0,.79-.64,1.43-1.43,1.43Z"/>
            <path class="cls-74" d="M303.69,218.65h-41.87c-.79,0-1.43-.64-1.43-1.43h0c0-.79.64-1.43,1.43-1.43h41.87c.79,0,1.43.64,1.43,1.43h0c0,.79-.64,1.43-1.43,1.43Z"/>
          </g>
          <path class="cls-7" d="M259.81,163.47h30.15c.91,0,1.65-.74,1.65-1.65h0c0-.91-.74-1.65-1.65-1.65h-30.15c-.91,0-1.65.74-1.65,1.65h0c0,.91.74,1.65,1.65,1.65Z"/>
          <path class="cls-7" d="M259.81,170.65h30.15c.91,0,1.65-.74,1.65-1.65h0c0-.91-.74-1.65-1.65-1.65h-30.15c-.91,0-1.65.74-1.65,1.65h0c0,.91.74,1.65,1.65,1.65Z"/>
          <path class="cls-7" d="M349.91,208.49h30.15c.91,0,1.65-.74,1.65-1.65h0c0-.91-.74-1.65-1.65-1.65h-30.15c-.91,0-1.65.74-1.65,1.65h0c0,.91.74,1.65,1.65,1.65Z"/>
          <path class="cls-7" d="M349.91,215.67h30.15c.91,0,1.65-.74,1.65-1.65h0c0-.91-.74-1.65-1.65-1.65h-30.15c-.91,0-1.65.74-1.65,1.65h0c0,.91.74,1.65,1.65,1.65Z"/>
        </g>
        <g>
          <g>
            <path class="cls-13" d="M605.38,383.05s24.93-69.71-15.22-144.03"/>
            <path class="cls-13" d="M610.3,362.51s-1.85-34.82-30.55-39.94c-28.7-5.13-35.88-24.6-35.88-24.6"/>
            <path class="cls-13" d="M613.01,327.74s1.59-24.65,17.99-32.85c16.4-8.2,14.35-25.63,14.35-25.63"/>
            <g>
              <path class="cls-7" d="M635.35,290.8c-.68.01-1.29-.43-1.48-1.09-1.23-4.16-4.54-18.9,9.07-21.72,9.72-2.01,11.57-12,11.53-19.45,0-1.67,2.29-2.13,2.92-.59,5.81,14.08,13.03,42.31-22.05,42.85Z"/>
              <path class="cls-17" d="M634.48,291.49s-2.49-14.59,7.65-16.85c15.44-3.43,14.29-19.49,13.93-26.76"/>
              <path class="cls-17" d="M637.05,291.78s21.04-3.01,24.27-30.36"/>
            </g>
            <g>
              <path class="cls-7" d="M566.23,318.48c.68.01,1.29-.43,1.48-1.09,1.23-4.16,4.54-18.9-9.07-21.72-9.72-2.01-11.57-12-11.53-19.45,0-1.67-2.29-2.13-2.92-.59-5.81,14.08-13.03,42.31,22.05,42.85Z"/>
              <path class="cls-17" d="M567.1,319.16s2.49-14.59-7.65-16.85c-15.44-3.43-14.29-19.49-13.93-26.76"/>
              <path class="cls-17" d="M564.53,319.46s-21.04-3.01-24.27-30.36"/>
            </g>
            <g>
              <path class="cls-7" d="M600.37,260.06c.65.19,1.35-.09,1.71-.67,2.26-3.7,9.26-17.09-3.16-23.33-8.87-4.45-8.08-14.58-6.13-21.77.44-1.61-1.66-2.65-2.67-1.33-9.24,12.11-23.5,37.51,10.26,47.09Z"/>
              <path class="cls-17" d="M601.29,259.95s6.17-13.46-3.04-18.25c-14.03-7.29-8.78-22.52-6.55-29.45"/>
              <path class="cls-17" d="M598.74,259.57s-19.56-8.33-15.62-35.59"/>
            </g>
            <g>
              <path class="cls-7" d="M609.99,295.68c.57-.37.83-1.07.63-1.72-1.27-4.15-6.64-18.27-19.54-13.12-9.22,3.68-16.27-3.64-20.35-9.87-.91-1.39-3.08-.52-2.77,1.12,2.92,14.95,12.45,42.48,42.02,23.59Z"/>
              <path class="cls-17" d="M610.53,295.95s-5.97-13.55-15.67-9.84c-14.77,5.65-22.67-8.39-26.37-14.65"/>
              <path class="cls-17" d="M608.55,297.6s-19.22,9.09-36.98-11.95"/>
            </g>
            <g>
              <path class="cls-7" d="M595.79,329.61c.14-.66-.18-1.34-.79-1.66-3.85-1.99-17.7-8.04-23.05,4.79-3.82,9.16-13.98,9.08-21.28,7.64-1.64-.32-2.53,1.84-1.14,2.76,12.73,8.37,39.07,20.82,46.25-13.53Z"/>
              <path class="cls-17" d="M595.62,329.72s-13.86-5.21-17.99,4.32c-6.29,14.51-21.85,10.34-28.92,8.6"/>
              <path class="cls-17" d="M595.42,332.3s-6.94,20.09-34.41,18.07"/>
            </g>
            <g>
              <path class="cls-7" d="M612.77,319.59c-.24.63-.03,1.36.52,1.76,3.49,2.57,16.22,10.71,23.51-1.12,5.21-8.45,15.23-6.78,22.22-4.21,1.56.57,2.78-1.42,1.55-2.55-11.26-10.26-35.33-26.68-47.8,6.12Z"/>
              <path class="cls-17" d="M612.79,321.55s12.87,7.32,18.44-1.44c8.49-13.34,23.2-6.79,29.91-3.96"/>
              <path class="cls-17" d="M613.39,319.04s10-18.76,36.81-12.46"/>
            </g>
            <path class="cls-25" d="M579.75,392.03s1.03-5.65,6.41-8.98c5.38-3.33,3.33-5.38,7.56-8.97,4.23-3.59,9.47-.48,11.98-5.24,2.5-4.76,8.91.92,8.91.92,0,0,11.4,6.69,12.81,11.62,1.41,4.93,3.72,7.91,3.72,7.91,0,0,6.72,13.95-22.59,15.89-29.31,1.94-28.8-13.16-28.8-13.16Z"/>
            <path class="cls-61" d="M579.75,392.03s1.03-5.65,6.41-8.98c5.38-3.33,3.33-5.38,7.56-8.97s9.47-.48,11.98-5.24c1.8-3.42,5.61-1.45,7.62-.07-2.19.28-4.61.37-6.76,2.2-4.23,3.59-2.18,5.64-7.56,8.97s-6.41,8.98-6.41,8.98c0,0-.51,15.11,28.8,13.16,1.14-.08,2.21-.18,3.25-.29-3.5,1.62-8.61,2.9-16.08,3.39-29.31,1.94-28.8-13.16-28.8-13.16Z"/>
          </g>
          <g>
            <path class="cls-8" d="M591.79,446.58h27.88c4.13,0,7.64-2.99,8.31-7.06l7.85-47.82h-59.85l7.49,47.76c.64,4.1,4.17,7.12,8.32,7.12Z"/>
            <path class="cls-69" d="M612.24,439.52l7.85-47.82h8.58l-7.85,47.82c-.67,4.07-4.19,7.06-8.31,7.06h-8.58c4.13,0,7.64-2.99,8.31-7.06Z"/>
            <path class="cls-45" d="M591.28,391.71l7.49,47.76c.64,4.1,4.17,7.12,8.32,7.12h-15.3c-4.15,0-7.68-3.02-8.32-7.12l-7.49-47.76h15.3Z"/>
            <rect class="cls-69" x="570.75" y="386.16" width="70.66" height="16.1" rx="8.05" ry="8.05" transform="translate(1212.17 788.42) rotate(180)"/>
          </g>
        </g>
        <g>
          <g>
            <g>
              <rect class="cls-59" x="420.7" y="298.11" width="106.9" height="146.78" transform="translate(948.31 743) rotate(180)"/>
              <line class="cls-19" x1="420.7" y1="374.44" x2="527.61" y2="374.44"/>
              <g>
                <polygon class="cls-59" points="527.61 423.94 493.86 444.89 486.64 444.89 527.61 418.58 527.61 423.94"/>
                <polygon class="cls-59" points="527.61 444.89 493.86 444.89 527.61 423.94 527.61 444.89"/>
                <polygon class="cls-59" points="527.61 418.58 486.64 444.89 476.4 444.89 527.61 412.08 527.61 418.58"/>
              </g>
              <polygon class="cls-53" points="527.61 369.11 420.7 435.45 420.7 409.05 527.61 342.67 527.61 369.11"/>
              <polygon class="cls-53" points="420.7 399.74 527.61 331.23 527.61 337.67 420.7 406.33 420.7 399.74"/>
              <polygon class="cls-53" points="527.61 444.89 493.86 444.89 527.61 423.94 527.61 444.89"/>
              <polygon class="cls-53" points="527.61 418.58 486.64 444.89 476.4 444.89 527.61 412.08 527.61 418.58"/>
              <path class="cls-90" d="M448.89,336.13h48.22c2.7,0,4.9-2.19,4.9-4.9h0c0-2.7-2.19-4.9-4.9-4.9h-48.22c-2.7,0-4.9,2.19-4.9,4.9h0c0,2.7,2.19,4.9,4.9,4.9Z"/>
              <path class="cls-90" d="M450.05,413.58h48.22c2.7,0,4.9-2.19,4.9-4.89h0c0-2.7-2.19-4.9-4.9-4.9h-48.22c-2.7,0-4.9,2.19-4.9,4.9h0c0,2.7,2.19,4.89,4.9,4.89Z"/>
            </g>
            <rect class="cls-84" x="420.7" y="282.56" width="106.9" height="16.58" transform="translate(948.31 581.69) rotate(180)"/>
          </g>
          <g>
            <polygon class="cls-88" points="439.95 293.7 509.53 293.7 499.73 257.74 450.21 257.74 439.95 293.7"/>
            <path class="cls-52" d="M458.55,293.7h-18.61l10.27-35.96h49.52l3.82,14.01h-15.9c-13.51,0-25.38,8.96-29.09,21.95Z"/>
            <rect class="cls-59" x="390.66" y="150.57" width="171.48" height="111.08" rx="8.41" ry="8.41" transform="translate(952.81 412.23) rotate(180)"/>
            <rect class="cls-31" x="394.58" y="154.5" width="163.64" height="103.24" transform="translate(952.81 412.23) rotate(180)"/>
            <g>
              <g>
                <g>
                  <path class="cls-24" d="M430.6,222.57l10.68-25.63c7.15,2.63,16.57,5,27.87,5.3,13.87.37,25.32-2.51,33.53-5.61l12.89,25.82c.87,1.75.2,3.87-1.52,4.79-7.14,3.83-22.52,10.56-43.29,10-18.39-.5-31.86-6.47-38.58-10.12-1.62-.88-2.31-2.85-1.6-4.56Z"/>
                  <path class="cls-24" d="M469.15,202.24c-11.29-.3-20.71-2.67-27.87-5.3l3.05-7.32c.74-1.78,2.74-2.66,4.56-2.01,5.03,1.8,13.04,3.95,23.11,3.89,9.83-.05,17.63-2.18,22.55-3.96,1.73-.63,3.65.13,4.47,1.78l3.66,7.32c-8.21,3.1-19.66,5.98-33.53,5.61Z"/>
                  <path class="cls-22" d="M469.15,202.24c-11.29-.3-20.71-2.67-27.87-5.3l3.05-7.32c.74-1.78,2.74-2.66,4.56-2.01,5.03,1.8,13.04,3.95,23.11,3.89,9.83-.05,17.63-2.18,22.55-3.96,1.73-.63,3.65.13,4.47,1.78l3.66,7.32c-8.21,3.1-19.66,5.98-33.53,5.61Z"/>
                </g>
                <path class="cls-22" d="M433.8,214.91c7.3,3.61,19.69,8.32,35.94,8.75,19.45.52,34.18-5.35,41.83-9.24l4.01,8.04c.87,1.75.2,3.87-1.52,4.79-7.14,3.83-22.52,10.56-43.29,10-18.39-.5-31.86-6.47-38.58-10.12-1.62-.88-2.31-2.85-1.6-4.56l3.2-7.67Z"/>
                <path class="cls-22" d="M433.8,214.91c7.3,3.61,19.69,8.32,35.94,8.75,19.45.52,34.18-5.35,41.83-9.24l4.01,8.04c.87,1.75.2,3.87-1.52,4.79-7.14,3.83-22.52,10.56-43.29,10-18.39-.5-31.86-6.47-38.58-10.12-1.62-.88-2.31-2.85-1.6-4.56l3.2-7.67Z"/>
                <path class="cls-22" d="M509.79,210.86c-7.82,3.89-22.25,9.42-41.15,8.91-14.67-.39-26.19-4.27-33.67-7.68l4.68-11.24c7.16,2.64,16.61,5.02,27.94,5.33,15.6.42,28.16-3.28,36.47-6.77l5.72,11.45Z"/>
              </g>
              <path class="cls-33" d="M498.99,217.41c-.26-5.02-5.59-8.14-10.31-6.41-4.43,1.63-11.68,3.08-17.07-1.81-8.31-7.54-17.68-8.6-21.3-.97-3.62,7.63,8.17,27.33,32.42,21.7,12.8-2.97,16.49-8.09,16.26-12.52Z"/>
              <path class="cls-48" d="M478.85,224.4c-.07-1.32-1.47-2.14-2.7-1.68-1.16.43-3.06.81-4.48-.47-2.18-1.98-4.64-2.26-5.59-.25-.95,2,2.14,7.17,8.51,5.69,3.36-.78,4.33-2.12,4.27-3.28Z"/>
            </g>
            <path class="cls-9" d="M463.97,169.24h84.97c1.79,0,3.24-1.45,3.24-3.24h0c0-1.79-1.45-3.24-3.24-3.24h-84.97c-1.79,0-3.24,1.45-3.24,3.24h0c0,1.79,1.45,3.24,3.24,3.24Z"/>
            <g>
              <path class="cls-9" d="M515.71,185.1h37.97c.8,0,1.45-.65,1.45-1.45h0c0-.8-.65-1.45-1.45-1.45h-37.97c-.8,0-1.45.65-1.45,1.45h0c0,.8.65,1.45,1.45,1.45Z"/>
              <path class="cls-9" d="M481.29,174.67h69.45c.8,0,1.45-.65,1.45-1.45h0c0-.8-.65-1.45-1.45-1.45h-69.45c-.8,0-1.45.65-1.45,1.45h0c0,.8.65,1.45,1.45,1.45Z"/>
              <rect class="cls-9" x="524.46" y="188.86" width="30.66" height="2.89" rx="1.25" ry="1.25" transform="translate(1079.58 380.61) rotate(180)"/>
              <path class="cls-9" d="M531.61,195.51h22.39c.62,0,1.12.5,1.12,1.12v.65c0,.62-.5,1.12-1.12,1.12h-22.39c-.62,0-1.12-.5-1.12-1.12v-.65c0-.62.5-1.12,1.12-1.12Z" transform="translate(1085.6 393.91) rotate(-180)"/>
            </g>
            <g>
              <path class="cls-9" d="M454.14,243.86h-53.25c-.8,0-1.45-.65-1.45-1.45h0c0-.8.65-1.45,1.45-1.45h53.25c.8,0,1.45.65,1.45,1.45h0c0,.8-.65,1.45-1.45,1.45Z"/>
              <path class="cls-9" d="M440.13,250.51h-39.24c-.8,0-1.45-.65-1.45-1.45h0c0-.8.65-1.45,1.45-1.45h39.24c.8,0,1.45.65,1.45,1.45h0c0,.8-.65,1.45-1.45,1.45Z"/>
            </g>
            <g>
              <path class="cls-9" d="M486.74,244h67.82c.8,0,1.45-.65,1.45-1.45h0c0-.8-.65-1.45-1.45-1.45h-67.82c-.8,0-1.45.65-1.45,1.45h0c0,.8.65,1.45,1.45,1.45Z"/>
              <rect class="cls-9" x="502.94" y="247.76" width="53.07" height="2.89" rx="1.45" ry="1.45" transform="translate(1058.94 498.41) rotate(-180)"/>
            </g>
          </g>
        </g>
        <g>
          <g>
            <rect class="cls-46" x="103.14" y="402.25" width="24.58" height="58.17" transform="translate(230.85 862.67) rotate(180)"/>
            <rect class="cls-51" x="103.14" y="402.25" width="6.59" height="58.17"/>
            <rect class="cls-30" x="118.99" y="402.25" width="3.36" height="58.17"/>
            <rect class="cls-30" x="114.2" y="402.25" width="1.68" height="58.17"/>
            <rect class="cls-47" x="66.75" y="381.91" width="100.62" height="25.1" rx="12.18" ry="12.18" transform="translate(234.11 788.91) rotate(180)"/>
            <path class="cls-43" d="M78.93,381.91h17.27c-6.73,0-12.18,5.45-12.18,12.18v.74c0,6.73,5.45,12.18,12.18,12.18h-17.27c-6.73,0-12.18-5.45-12.18-12.18v-.74c0-6.73,5.45-12.18,12.18-12.18Z"/>
            <rect class="cls-67" x="93.56" y="458.18" width="44.94" height="9.51" rx="4.75" ry="4.75" transform="translate(232.06 925.88) rotate(180)"/>
            <path class="cls-51" d="M98.32,458.18h11.68c-2.63,0-4.75,2.13-4.75,4.75s2.13,4.75,4.75,4.75h-11.68c-2.63,0-4.75-2.13-4.75-4.75s2.13-4.75,4.75-4.75Z"/>
          </g>
          <g>
            <g>
              <polygon class="cls-42" points="281.84 337.29 325.04 354.08 337.61 288.58 311.43 278.41 281.84 337.29"/>
              <g>
                <polygon class="cls-55" points="311.43 278.41 313.04 279.04 332.85 313.39 328.94 333.77 304.71 291.77 311.43 278.41"/>
                <polygon class="cls-55" points="299.97 301.22 326.39 347.04 325.04 354.08 324.97 354.05 297.42 306.28 299.97 301.22"/>
              </g>
            </g>
            <g>
              <rect class="cls-68" x="289.99" y="261.57" width="78.52" height="26.98" rx="12.13" ry="12.13" transform="translate(555.81 639.38) rotate(-161.75)"/>
              <path class="cls-76" d="M291.53,264.06l.85-2.59c1.76-5.34,6.88-8.62,12.24-8.3-.45.76-.84,1.57-1.13,2.44l-.85,2.59c-2.1,6.36,1.36,13.22,7.72,15.32l51.54,16.99c1.02.34,2.05.52,3.08.58-2.85,4.76-8.7,7.09-14.19,5.28l-51.54-16.99c-6.36-2.1-9.82-8.95-7.72-15.32Z"/>
            </g>
            <rect class="cls-59" x="189.47" y="359.75" width="49.93" height="78.54" transform="translate(428.88 798.04) rotate(180)"/>
            <rect class="cls-26" x="189.47" y="359.75" width="49.93" height="78.54" transform="translate(428.88 798.04) rotate(180)"/>
            <rect class="cls-65" x="216.61" y="359.75" width="11.67" height="78.54"/>
            <rect class="cls-65" x="232.23" y="359.75" width="3.62" height="78.54"/>
            <rect class="cls-50" x="189.47" y="359.75" width="12.32" height="78.54"/>
            <path class="cls-10" d="M207.26,373.39l137.48-.28c4.83,0,10.94-6.97,10.94-11.81h0c2.1-23.6-12.93-39.78-41.25-39.78h-72.81c-23.81,0-43.11,19.3-43.11,43.11h0c0,4.83,3.92,8.75,8.75,8.75Z"/>
            <path class="cls-21" d="M189.68,409.18c23.86,1.2,59.84,6.17,90.83,23.5,2.49,1.39,4,3.97,4,6.73h0c0,4.32-3.65,7.82-8.15,7.82h-104.47c-4.44,0-8.07-3.41-8.15-7.68l-.12-6.15c-.26-13.78,11.69-24.95,26.04-24.23Z"/>
            <path class="cls-68" d="M139.32,339.45h204.51c6.54,0,11.84,5.31,11.84,11.84v10.01c0,6.54-5.31,11.84-11.84,11.84h-201.19c-8.37,0-15.17-6.8-15.17-15.17v-6.69c0-6.54,5.31-11.84,11.84-11.84Z" transform="translate(483.15 712.61) rotate(180)"/>
            <rect class="cls-79" x="127.48" y="339.45" width="157.17" height="33.7" rx="13.98" ry="13.98" transform="translate(412.12 712.61) rotate(180)"/>
            <path class="cls-11" d="M159.52,350.68l-60.37-161.67c-3.34-8.22-18.1-12.19-26.32-8.85l-1.46.59c-8.22,3.34-12.17,12.71-8.83,20.93l65.73,164.88c3.34,8.22,15.16,7.49,20.95,5.63l1.46-.59c8.22-3.34,12.17-12.71,8.83-20.93Z"/>
            <path class="cls-77" d="M196.88,190.42c7.75,10.23,15.75,27.19,10.96,50.62,0,0,35.28,16.74,20.77,57.58,0,0,32.28,13.19,22.93,40.84l-108.16,4.61s-.59-30.9-16.81-45.07c0,0,1.36-36.66-17.61-59.11,0,0,5.65-32.03-26.52-60.5l91.08-.47c9.17-.05,17.83,4.2,23.36,11.51Z"/>
            <g>
              <path class="cls-86" d="M207.84,241.04s35.28,16.74,20.77,57.58c0,0,.31.13.85.38h-102.89s1.36-36.66-17.61-59.11h99.1c-.07.39-.14.77-.22,1.16Z"/>
              <path class="cls-38" d="M251.54,339.45l-108.16,4.61s-.59-30.9-16.81-45.07h102.89c5.03,2.32,30.53,15.49,22.08,40.46Z"/>
              <path class="cls-38" d="M82.44,179.39l91.08-.47c9.17-.05,17.83,4.2,23.36,11.51,7.62,10.06,15.48,26.63,11.18,49.46h-99.1s5.65-32.03-26.52-60.5Z"/>
            </g>
            <g>
              <path class="cls-21" d="M163.75,439.55l-.12-6.15c-.26-13.78,11.69-24.95,26.04-24.23,3.47.17,7.21.43,11.14.79v37.26h-28.92c-4.44,0-8.07-3.41-8.15-7.68Z"/>
              <path class="cls-27" d="M163.75,439.55l-.12-6.15c-.26-13.78,11.69-24.95,26.04-24.23,3.47.17,7.21.43,11.14.79v37.26h-28.92c-4.44,0-8.07-3.41-8.15-7.68Z"/>
              <path class="cls-87" d="M227.54,413.85v33.38h-13.1v-35.65c4.24.61,8.62,1.36,13.1,2.26Z"/>
              <path class="cls-87" d="M234.82,415.44v31.79h-3.7v-32.63c1.23.27,2.46.55,3.7.84Z"/>
            </g>
            <path class="cls-39" d="M145.7,277.87h57.57c7.08,0,12.43-6.61,10.74-13.49-.01-.06-.03-.12-.04-.18-1.36-5.39-4.1-9.37-6.5-12.03-2.06-2.27-5.01-3.53-8.08-3.53h-55.75c-7.57,0-12.84,7.45-10.41,14.62.21.61.41,1.24.6,1.88.44,1.44.8,2.85,1.1,4.2,1.12,5.01,5.64,8.53,10.77,8.53Z"/>
            <path class="cls-41" d="M123.58,214.84h55.28c6.8,0,11.93-6.35,10.31-12.95-.01-.06-.03-.11-.04-.17-1.31-5.17-3.93-9-6.24-11.55-1.98-2.18-4.81-3.39-7.76-3.39h-53.53c-7.27,0-12.33,7.15-9.99,14.04.2.59.39,1.19.58,1.8.42,1.39.77,2.73,1.06,4.03,1.07,4.81,5.41,8.19,10.34,8.19Z"/>
            <path class="cls-41" d="M163.76,337.17h57.62c7.09,0,12.44-6.62,10.75-13.5-.01-.06-.03-.12-.04-.18-1.36-5.39-4.1-9.38-6.51-12.04-2.06-2.28-5.02-3.53-8.09-3.53h-55.79c-7.58,0-12.85,7.45-10.42,14.63.21.61.41,1.24.6,1.88.44,1.45.8,2.85,1.1,4.2,1.12,5.01,5.64,8.53,10.78,8.53Z"/>
            <g>
              <path class="cls-91" d="M135.59,373.39h149.06v-8.11c0-22.07-17.89-39.96-39.96-39.96h-77.25c-22.07,0-39.96,17.89-39.96,39.96h0c0,4.48,3.63,8.11,8.11,8.11Z"/>
              <path class="cls-62" d="M163.01,325.57c-7.6,7.27-12.34,17.51-12.34,28.86h0c0,4.48,3.63,8.11,8.11,8.11h125.76c.06.91.1,1.82.1,2.74v8.11h-149.06c-4.48,0-8.11-3.63-8.11-8.11h0c0-20.57,15.55-37.51,35.54-39.71Z"/>
            </g>
            <g>
              <polygon class="cls-4" points="215.66 348.15 258.86 364.93 271.43 299.44 245.25 289.27 215.66 348.15"/>
              <g>
                <polygon class="cls-73" points="245.25 289.27 246.86 289.89 266.67 324.25 262.76 344.63 238.53 302.63 245.25 289.27"/>
                <polygon class="cls-73" points="233.79 312.08 260.21 357.9 258.86 364.93 258.79 364.91 231.24 317.14 233.79 312.08"/>
              </g>
            </g>
            <g>
              <path class="cls-21" d="M174.39,373.47s13.41-34.34,53.63-34.34,56.1,34.34,56.1,34.34h-109.73Z"/>
              <path class="cls-56" d="M228.02,343.57c-31.17,0-46.23,20.62-51.44,29.9h-2.19s13.41-34.34,53.63-34.34,56.1,34.34,56.1,34.34h-2.51c-5.86-9.28-22.39-29.9-53.59-29.9Z"/>
            </g>
            <g>
              <rect class="cls-34" x="223.81" y="272.43" width="78.52" height="26.98" rx="12.13" ry="12.13" transform="translate(423.38 639.83) rotate(-161.75)"/>
              <path class="cls-28" d="M225.35,274.92l.85-2.59c1.76-5.34,6.88-8.62,12.24-8.3-.45.76-.84,1.57-1.13,2.44l-.85,2.59c-2.1,6.36,1.36,13.22,7.72,15.32l51.54,16.99c1.02.34,2.05.52,3.08.58-2.85,4.76-8.7,7.09-14.19,5.28l-51.54-16.99c-6.36-2.1-9.82-8.95-7.72-15.32Z"/>
            </g>
            <g>
              <path class="cls-26" d="M235.85,354.08c0,1.48,1.2,2.68,2.68,2.68s2.68-1.2,2.68-2.68-1.2-2.68-2.68-2.68-2.68,1.2-2.68,2.68Z"/>
              <path class="cls-85" d="M236.87,351.98c-.09.27-.15.56-.15.86,0,1.48,1.2,2.68,2.68,2.68.63,0,1.2-.23,1.66-.59-.36,1.06-1.35,1.83-2.53,1.83-1.48,0-2.68-1.2-2.68-2.68,0-.85.4-1.6,1.02-2.09Z"/>
              <path class="cls-31" d="M238.77,353.72c.2.35.65.47,1,.27.35-.2.47-.65.27-1-.2-.35-.65-.47-1-.27-.35.2-.47.65-.27,1Z"/>
            </g>
            <g>
              <circle class="cls-26" cx="192.95" cy="366.45" r="2.68"/>
              <path class="cls-85" d="M191.29,364.36c-.09.27-.15.56-.15.86,0,1.48,1.2,2.68,2.68,2.68.63,0,1.2-.23,1.66-.59-.36,1.06-1.35,1.83-2.53,1.83-1.48,0-2.68-1.2-2.68-2.68,0-.85.4-1.6,1.02-2.09Z"/>
              <path class="cls-31" d="M193.19,366.09c.2.35.65.47,1,.27s.47-.65.27-1-.65-.47-1-.27-.47.65-.27,1Z"/>
            </g>
            <g>
              <path class="cls-26" d="M212.98,422.65c0,1.48,1.2,2.68,2.68,2.68s2.68-1.2,2.68-2.68-1.2-2.68-2.68-2.68-2.68,1.2-2.68,2.68Z"/>
              <path class="cls-85" d="M214,420.55c-.09.27-.15.56-.15.86,0,1.48,1.2,2.68,2.68,2.68.63,0,1.2-.23,1.66-.59-.36,1.06-1.35,1.83-2.53,1.83-1.48,0-2.68-1.2-2.68-2.68,0-.85.4-1.6,1.02-2.09Z"/>
              <path class="cls-31" d="M215.9,422.29c.2.35.65.47,1,.27.35-.2.47-.65.27-1-.2-.35-.65-.47-1-.27-.35.2-.47.65-.27,1Z"/>
            </g>
            <g>
              <path class="cls-26" d="M170.79,440.97c0,1.48,1.2,2.68,2.68,2.68s2.68-1.2,2.68-2.68-1.2-2.68-2.68-2.68-2.68,1.2-2.68,2.68Z"/>
              <path class="cls-85" d="M171.81,438.88c-.09.27-.15.56-.15.86,0,1.48,1.2,2.68,2.68,2.68.63,0,1.2-.23,1.66-.59-.36,1.06-1.35,1.83-2.53,1.83-1.48,0-2.68-1.2-2.68-2.68,0-.85.4-1.6,1.02-2.09Z"/>
              <path class="cls-31" d="M173.71,440.61c.2.35.65.47,1,.27s.47-.65.27-1c-.2-.35-.65-.47-1-.27s-.47.65-.27,1Z"/>
            </g>
            <g>
              <path class="cls-26" d="M266.13,440.25c0,1.48,1.2,2.68,2.68,2.68s2.68-1.2,2.68-2.68-1.2-2.68-2.68-2.68-2.68,1.2-2.68,2.68Z"/>
              <path class="cls-85" d="M267.15,438.15c-.09.27-.15.56-.15.86,0,1.48,1.2,2.68,2.68,2.68.63,0,1.2-.23,1.66-.59-.36,1.06-1.35,1.83-2.53,1.83-1.48,0-2.68-1.2-2.68-2.68,0-.85.4-1.6,1.02-2.09Z"/>
              <path class="cls-31" d="M269.05,439.89c.2.35.65.47,1,.27.35-.2.47-.65.27-1s-.65-.47-1-.27-.47.65-.27,1Z"/>
            </g>
            <g>
              <path class="cls-26" d="M266.21,368.41c0,1.48,1.2,2.68,2.68,2.68s2.68-1.2,2.68-2.68-1.2-2.68-2.68-2.68-2.68,1.2-2.68,2.68Z"/>
              <path class="cls-85" d="M267.23,366.32c-.09.27-.15.56-.15.86,0,1.48,1.2,2.68,2.68,2.68.63,0,1.2-.23,1.66-.59-.36,1.06-1.35,1.83-2.53,1.83-1.48,0-2.68-1.2-2.68-2.68,0-.85.4-1.6,1.02-2.09Z"/>
              <path class="cls-31" d="M269.13,368.05c.2.35.65.47,1,.27.35-.2.47-.65.27-1s-.65-.47-1-.27-.47.65-.27,1Z"/>
            </g>
          </g>
          <g>
            <g>
              <path class="cls-20" d="M58.91,72.42c-15.57,16.08-24.94,37.93-24.94,61.59v270.87"/>
              <path class="cls-18" d="M162.09,58.98h0c0-12.51-11.58-21.81-23.79-19.11l-34.91,7.71c-17.44,3.85-32.73,12.7-44.48,24.84"/>
              <g>
                <g>
                  <path class="cls-78" d="M138.88,113.94c2.84,11.24,22.25,16.04,43.35,10.72,21.11-5.32,35.92-18.75,33.09-30-2.84-11.24-22.25-16.04-43.35-10.72-21.11,5.32-35.92,18.75-33.09,30Z"/>
                  <path class="cls-75" d="M171.97,83.94c21.11-5.32,40.52-.52,43.35,10.72.15.6.24,1.21.29,1.81-6.95-7.04-22.95-9.39-40.07-5.07-19.98,5.04-34.31,17.34-33.38,28.18-1.62-1.64-2.74-3.53-3.28-5.65-2.84-11.24,11.98-24.67,33.09-30Z"/>
                </g>
                <g>
                  <ellipse class="cls-31" cx="187.37" cy="105.69" rx="23.23" ry="12.37" transform="translate(-20.16 49.03) rotate(-14.15)"/>
                  <path class="cls-31" d="M184.35,93.69c12.44-3.14,23.88-.31,25.55,6.32.09.35.14.71.17,1.07-4.09-4.15-13.52-5.53-23.61-2.99-11.78,2.97-20.22,10.22-19.67,16.61-.95-.97-1.62-2.08-1.93-3.33-1.67-6.63,7.06-14.54,19.5-17.68Z"/>
                </g>
                <path class="cls-32" d="M132.35,103.64l10.06,250.1s99.33,31.91,171.74-21.89l-98.74-246.45s-5.98-24.58-42.34-15.07c-33.22,8.69-40.32,21.3-40.72,33.32Z"/>
                <path class="cls-92" d="M136.84,112.77l82.15-20.72-2.44-9.66c-5.72-22.69-28.75-36.44-51.43-30.72h0c-22.69,5.72-36.44,28.75-30.72,51.43l2.44,9.66Z"/>
                <g>
                  <path class="cls-66" d="M199.77,58.06l-48.44,51.05-14.5,3.66-2.08-8.26,50.31-53.02c5.3,1.24,10.29,3.48,14.71,6.57Z"/>
                  <path class="cls-29" d="M133.33,88.42l35.6-37.52c2.16-.34,4.3-.51,6.43-.52l-42.19,44.47c-.11-2.17-.06-4.31.16-6.43Z"/>
                </g>
                <path class="cls-71" d="M142.1,120.53l76.6-19.32c3.63-.92,5.83-4.6,4.92-8.23h0c-.92-3.63-4.6-5.83-8.23-4.91l-76.6,19.32c-3.63.92-5.83,4.6-4.91,8.23h0c.92,3.63,4.6,5.83,8.23,4.92Z"/>
                <path class="cls-6" d="M133.87,115.62h0c-.92-3.63,1.29-7.31,4.91-8.23l15.15-3.82-15.88,16.74c-2.01-.76-3.62-2.45-4.19-4.68Z"/>
              </g>
            </g>
            <polyline class="cls-12" points="8.73 419.14 8.73 406.42 61.57 406.42 61.57 418.97"/>
          </g>
        </g>
      </g>
    </g>
  </g>
</svg>