<?xml version="1.0" encoding="UTF-8"?>
<svg id="Layer_20" data-name="Layer 20" xmlns="http://www.w3.org/2000/svg" viewBox="0 0 200 200">
  <defs>
    <style>
      .cls-1 {
        fill: #10cbf9;
      }

      .cls-2 {
        fill: #01cffa;
      }

      .cls-3 {
        fill: #baeb6c;
      }

      .cls-4 {
        fill: #01bff9;
      }

      .cls-5 {
        fill: #f1fafe;
      }

      .cls-6 {
        fill: #99e5fb;
      }

      .cls-7 {
        fill: #c7eefd;
      }

      .cls-8 {
        fill: #3ed8fb;
      }

      .cls-9 {
        fill: #62dafa;
      }

      .cls-10 {
        fill: #fefefe;
      }

      .cls-11 {
        fill: #1ad2fa;
      }

      .cls-12 {
        fill: #98e5fb;
      }
    </style>
  </defs>
  <path class="cls-12" d="M153.05,1.75c.5.5,1.26.47,1.92.77l-.21,1c-6.34,3.95-6.51,12.53.15,16.24.39.4.13.79-.32,1.15-4.53,1.53-9.59-.22-11.95-4.33-3.67-6.39,0-12.86,6.58-14.82h3.83Z"/>
  <path class="cls-9" d="M73,22.43l.19,12.64c6.99,4.57,14.77,7.28,19.42,14.68,6.21,9.89,2.99,22.27,3.73,33.38-.83,2.97-2.28,4.17-4.88,5.47-.64.32-1.24-.29-.46.87l-.92.58c-2.35-.25-4.72-.31-7.1-.18l-.79-.79-.75-1.02c.07-9.1-6.17-17.32-14.94-19.26l-.41-.78c-8.85-1.06-16.95,2.15-21.99,9.45l-.99.13-.72-1.13c-.38-6.92-.71-16.44,1.74-22.89,3.03-7.99,9.81-12.65,17.2-15.81,1.87-1.11,2.67-3.14,2.84-5.27.23-3.02.18-6.08-.23-9.09l.63-.97c2.37-1.19,6-1.1,8.43,0Z"/>
  <path class="cls-9" d="M90.23,129.3c2.99.97,5.28,2.8,6.11,5.96-.62,8.95.91,19.17.04,27.96-.35,3.53-2.97,5.63-6.15,6.68-13.34,1.24-26.87,1.14-40.22,0-1.06-.06-1.82-.31-2.3-.77-3.39,0-5.16-3.2-5.35-6.29-.52-8.71-.34-18.89.11-27.64.11-2.16,2.81-5.77,5.24-5.14.16-.42.67-.67,1.53-.77,13.59-1.14,27.4-1.26,40.99,0Z"/>
  <path class="cls-9" d="M170.29,131.6c-1.78,15.06-3.93,30.21-5.75,45.2l-.35.77h-30.21l-.46-.77c-2.6-12.3-4.16-25.02-5.3-37.57-.23-2.54-.19-5.09-.06-7.63l.26-.77h41.4l.47.77Z"/>
  <path class="cls-2" d="M91,89.47c2.84.73,4.5,2.83,5.34,5.58-.55,8.89.82,18.81.04,27.57-.3,3.35-2.87,6.07-6.14,6.69-13.65-.06-27.33.08-40.99,0-.34.23-.59.23-.77,0-3.16-.18-5.14-2.61-6.02-5.51l-.11-25.06.76-.46,1.13.46c4.7,7.94,13.25,9.73,21.85,9.5l.72-.98c7.93-2.21,13.83-9.03,14.54-17.28l.83-.9c2.93.13,5.95-.35,8.81.38Z"/>
  <path class="cls-2" d="M50.01,169.9c13.4-.07,26.82.06,40.22,0,2.55.2,5.43,2.84,5.96,5.34,1.03,4.81-.41,11.82.17,16.87-17.73,1.12-35.51,1.09-53.24,0l-.69-.66c.06-3.86-.04-7.72-.3-11.59,0-4.24,1.3-9.69,6.35-9.97.44-.27.95-.27,1.53,0Z"/>
  <path class="cls-9" d="M26.65,192.12c5.46-1.07,11.01-1.05,16.47,0,17.74-.03,35.5,0,53.24,0,7.53,0,15.07,0,22.6,0,5.49-.95,10.98-.95,16.47,0,9.17-1.05,18.41-1.07,27.58,0,10.5.02,21.02-.08,31.52.08,3.48,1.23,2.6,5.7-1.05,5.68H5.76c-3.42-.34-3.95-4.57-.68-5.68,7.18-.17,14.38-.05,21.56-.08Z"/>
  <path class="cls-7" d="M170.29,131.6h-42.13c-.54.51-.74.29-.38-.38l-.8-1.41c-.68-5.98-1.42-11.96-2.22-17.93-.56-2.62-.07-4.22,1.49-4.79,14.62-.07,29.25.07,43.88-.02,1.58-.08,2.87.79,2.83,2.46-1.09,7.33-1.79,14.72-2.65,22.07Z"/>
  <path class="cls-2" d="M59.97,22.43c1.52-.74,3.08-.74,4.6,0,.5,2.92.63,6.8.4,9.78-.54,6.8-4.65,6.44-9.46,9.3s-8.67,7.27-10.65,12.33c-2.96,7.56-1.32,15.82-1.73,23.74l.44.81c-1.44,3.17-2.25,6.68-2.37,10.16l-.75.53c-1.4,1.33-5.67,1.03-7.28,0-.52-.04-.9-.16-1.15-.38-3.39-.77-5.34-3.83-5.7-7.13-.64-5.98-.46-18.9.91-24.66,2.84-12.03,13.02-16.15,22.6-21.83l.19-12.64c2.97-1.14,7.01-1.15,9.96,0Z"/>
  <path class="cls-2" d="M127.77,131.22l.38.38c1.59,15.09,3.53,30.14,5.36,45.2,0,.3-.07.76-.26.77-1.96.1-15.23.59-15.76,0-.2-.22-.34-.49-.45-.77-1.84-15.18-3.57-30.39-5.36-45.58,0-.3.07-.75.26-.77,3.88-.36,11.52-.38,15.38,0l.45.77Z"/>
  <path class="cls-2" d="M32.39,129.68c5.05-.32,10.37-.21,15.41-.08l-.09.46c-2.61,1.18-3.94,2.74-4.56,5.59.44,8.72-.7,18.17-.05,26.79.23,3.11,1.62,5.58,4.61,6.69-.2.21-.41.37-.62.38-4.74.19-9.62.19-14.32,0-4.18-.37-6.19-3.97-6.53-7.84-.5-5.85-.65-19.55.11-25.2.43-3.2,2.62-6.43,6.03-6.8Z"/>
  <path class="cls-2" d="M147.31,46.18l.16,1.4-9.99,19.98-.89.07-.84.45c-5.36-.06-2.08,4.37-.13,6.59l-.18,1c2.09,6.84,5.2,12.29,11.97,15.34.47.5.14.84-.48,1.13-15.25,5.09-29.57-10.41-23.43-25.16l15.5-29.12c3.89-3.3,6.94,5.78,8.32,8.31Z"/>
  <path class="cls-4" d="M33.16,89.08c2.3-.23,4.93.17,7.28,0l.8.36c.39,2.79,1.23,5.53,2.37,8.1l-.49.73.09,25.38c.76,2.63,2.87,4.58,5.27,5.64-5.11.35-10.87.43-16.09,0-3.8-.53-5.84-4.35-6.14-7.84-.52-6.01-.64-19.39.06-25.25.37-3.14,2.26-5.84,5.32-6.75.4-.52.95-.69,1.53-.38Z"/>
  <path class="cls-7" d="M164.54,176.8c-.61,5.08-1.01,10.23-1.53,15.32-9.19-.02-18.39,0-27.58,0-1.91-4.65-2.53-10.33-1.92-15.32h31.03Z"/>
  <path class="cls-12" d="M126.24,107.09c-1.05,1.09-.82,2.64-.76,4.02.3,6.68,2.27,13.37,2.29,20.11h-16.09c-.78-6.6-2.44-14.4-2.68-20.89-.07-1.75.12-3.01,2.09-3.27,4.16-.55,10.68.04,15.15.02Z"/>
  <path class="cls-4" d="M32.78,169.9c5.02-.32,10.09-.44,15.18-.37l.52.37c-8.83,3.53-4.26,14.8-5.36,22.22-5.48,0-10.99-.02-16.47,0-.44-.64-.37-1.36-.4-2.09-.13-3.78-.49-11.88.58-15.15.87-2.66,3.15-4.67,5.94-4.97Z"/>
  <path class="cls-9" d="M146.92,92.15c.2-.93-.47-.79-1.01-1.08-6.01-3.21-9.98-8.42-10.48-15.39.24-.22.51-.3.81-.21l2.92,3.41c2.26,3.24,4.88,2.54,7.87-2.09l9.14-11.32,1.09-.13c6.13,9.69.24,23.28-10.34,26.81Z"/>
  <path class="cls-7" d="M73,22.43c-2.79.11-5.63-.02-8.43,0-1.53.01-3.07.01-4.6,0l-1.65-.46c-1-.73-1.13-12.62-.11-13.61l1.37-.49c4.63-.03,11.14-.52,15.52,0,1.7.2,2.29.81,2.49,2.49.21,1.77.27,8.73-.09,10.27-.52,2.24-2.76,1.74-4.51,1.81Z"/>
  <path class="cls-3" d="M157.26,65.33c-3.42,4.24-9.11,11.81-12.82,15.34-1.33,1.27-2.38,1.57-4.02.54-.84-.53-4.2-4.51-5-5.53-1.07-1.37-3.61-4.3-3.45-5.9.21-2.09,2.86-3.21,4.59-2.14l.79-.32,4.61,5.87c3.68-4.45,7.41-8.84,11.19-13.16l1.03-.43c.85-1,4-5.02,4.87-5.28,2.59-.79,4.71,1.63,3.66,4.04-2.01,2.16-3.61,4.71-5.46,6.99Z"/>
  <path class="cls-12" d="M133.52,176.8c.62,5.1,1.16,10.24,1.92,15.32-5.48,0-10.99,0-16.47,0-.51-5.12-1.3-10.22-1.92-15.32h16.47Z"/>
  <path class="cls-9" d="M154.2,59.59c-4.08,4.79-7.75,9.96-12.09,14.54-.83.19-4.6-5.92-5.53-6.5l10.73-21.45c2.39,4.4,4.94,8.78,6.89,13.41Z"/>
  <path class="cls-12" d="M59.59,7.88c-.35.63-1,.96-1.14,1.73-.21,1.08-.11,11.08.18,11.68.21.44,1.03.7,1.34,1.15-3.3-.03-6.66.13-9.96,0-1.33-.05-4.01.3-4.52-1.41-.27-.9-.19-11.26.13-11.98.12-.27.69-.84.96-.96,1.41-.62,10.63-.18,13.01-.2Z"/>
  <path class="cls-7" d="M154.58,20.9c-.12-1.17-1.66-1.45-2.5-2.29-5.06-5.01-3.16-12.92,2.89-16.1,8.04,3.61,7.57,15.69-.38,18.39Z"/>
  <path class="cls-6" d="M117.43,30.86l-.06,1.1c-3.46,3.17-3.56,7.66-.02,10.81l.08,1.1c-8.12,3.73-13.99-7.63-6.87-12.42,2.22-1.49,4.45-1.67,6.87-.6Z"/>
  <path class="cls-7" d="M117.43,43.88c-4.71-4-4.62-8.97,0-13.02,5.56,2.47,5.63,10.43,0,13.02Z"/>
  <path class="cls-1" d="M50.01,169.9c-.51,0-1.02,0-1.53,0-4.83.03-11.1-.51-15.7,0v-.38c4.91.43,10.17-.39,14.94-.38.32,0,1.94.47,2.3.77Z"/>
  <path class="cls-11" d="M48.48,129.3c.26,0,.51,0,.77,0-.4.46-1.01.53-1.53.77-.4-.63-1.45-.38-2.1-.39-3.99-.04-9.41-.41-13.22,0v-.38c4.37.61,11.37-.03,16.09,0Z"/>
  <path class="cls-8" d="M33.16,89.08c-.45.05-1.07.25-1.53.38l.38-.77c.37.08.95-.16,1.15.38Z"/>
  <path class="cls-10" d="M66.1,68.02c3.43-.02,8.88,3.77,11.1,6.33,3.5,4.05,5.22,9.43,4.99,14.74-.4,9.4-7.05,17.03-16.09,19.15-4.79,2.29-16.73-10.35-15.52-13.18.15-.34.56-.36.96-.22l.64-.5c4.91.92,11.69,1.27,16.65.47,2.37-.39,4.45-2.81,1.9-4.02-1.77-.84-15.26-.62-17.74-.19-.82.49-1.56.63-2.21.42-1.99.08-1.61-3.78-1.45-5.34.59-5.88,4.03-11.12,8.58-14.8,2.44-1.97,4.93-3.63,8.19-2.85Z"/>
  <path class="cls-5" d="M66.1,68.02c-5.76.04-12.85,7.5-14.74,12.64-1.01,2.73-2.23,7.8-.58,10.34.59.89.82,2.72.77,3.83-.61.12.07,1.2.21,1.52,2.68,5.95,7.88,10.52,14.35,11.89-8.84,2.08-18.65-1.75-22.98-9.96-1.13-2.13-2.55-6.83-2.68-9.19-.17-3.08,1.15-8.8,2.68-11.49.82-1.45,3.82-4.65,5.18-5.74,4.71-3.78,12-5.97,17.8-3.84Z"/>
  <path class="cls-10" d="M74.91,146.16c5.21.55,5.79,9.49-1.15,9.96-4.31.39-8.65.5-13.02.34-2.76.21-4.28-1.93-4.71-4.43-.76-4.5,1.25-5.73,5.16-6.11,4.31-.41,9.41-.09,13.71.25Z"/>
  <path class="cls-5" d="M74.91,146.16c-2.54-.27-12.88-.41-15.05.08-4.37.99-4.08,8.42.09,9.71,1.84.57,11.37.33,13.81.17-.4.63-1.45.38-2.1.39-6.43.07-16.94.81-22.89-.11-6.3-.97-6.55-8.99-.46-10.6,8.16.04,16.33-.13,24.5-.03.65,0,1.7-.25,2.1.39Z"/>
  <path class="cls-6" d="M51.55,94.83c-1.01-.79-1.44-2.68-.77-3.83.28-.48,1.47-1.09,2.09-1.17,3.12-.42,14.15-.41,17.28,0,3.36.44,3.47,5.15-1.21,5.72-3.41.41-11.45.4-14.89.05-.67-.07-1.99-.37-2.49-.77Z"/>
  <path class="cls-6" d="M55.66,80.75c1.76-.31,10.07-.38,11.7-.01,3.05.68,3.14,5.16.06,5.64-1.77.28-10.53.3-12.15-.06-2.92-.65-2.95-4.98.39-5.57Z"/>
</svg>