<?xml version="1.0" encoding="UTF-8"?>
<svg id="Layer_20" data-name="Layer 20" xmlns="http://www.w3.org/2000/svg" viewBox="0 0 200 200">
  <defs>
    <style>
      .cls-1 {
        fill: #f8daae;
      }

      .cls-2 {
        fill: #464a51;
      }

      .cls-3 {
        fill: #00b3d7;
      }

      .cls-4 {
        fill: #656b76;
      }

      .cls-5 {
        fill: #48c9e3;
      }

      .cls-6 {
        fill: #d99367;
      }

      .cls-7 {
        fill: #ace7f3;
      }

      .cls-8 {
        fill: #d99267;
      }

      .cls-9 {
        fill: #ecb78d;
      }

      .cls-10 {
        fill: #0095c6;
      }

      .cls-11 {
        fill: #e43935;
      }
    </style>
  </defs>
  <path class="cls-9" d="M63.26,156.09c1.03,2.22,1.02,4.36,0,6.59l-.73.85c-10.66.82-11.47,18.53-1.58,21.13,6.98,1.83,18.29.1,17.95-9.18l.83-.86c.86-.59,2.16-.59,3.89-.02,2.53-2.78,5.15-3.26,8.73-2.87l.55.83.86.78c.36,6.26,5.49,11.27,11.75,11.58,10.23.52,21.61.3,31.88-.11,8.21-.33,11.31-16.86,1.07-20.86-1.29-.08-2.21-.51-2.75-1.28-1.02-2.22-1.03-4.37,0-6.59.25-.22.5-.43.79-.59,1.2-.68,14.65-.28,17.33-.13l1.64.72c-.92,10.35,2.75,23.17-4.12,31.89-5.83,7.4-13.91,8.3-22.85,7.64-8.11-.6-13.95-4.92-22.83-2.69-6.68,1.67-8.33,3.4-16.27,2.69-3.36-.3-4.69-2.79-5.75-2.9-1.86-.18-6.96,1.85-9.24,2.28-7.31,1.38-16.9,1.38-23.03-3.34-11.68-9-6.89-22.79-7.85-35.57l1.64-.72c2.68-.15,16.13-.54,17.33.13.28.16.54.37.79.59Z"/>
  <path class="cls-2" d="M90.02,5.86l1,1.16c2.28,14.24,14.18,24.63,28.31,26.34,8.88-.49,14.3,2.35,19.55,9.6,1.45.95,2.59,2.03,3.41,3.24.14,2.85.11,6.2,0,9.05l-1.04-.18c-1.66-3.39-4.88-3.6-8.24-3.51l-.59-.84c-.94,1.15-2.37,1.17-3.29,0-1.14-2.16-1.12-4.42,0-6.59,0,.32-.07.8-.28.82-3.41.31-11.38.43-14.66,0l-.49-.82-.68.8c-9.45-.91-17.04-5.96-23.61-12.25-2.12,4.68-6.02,8.2-10.68,10.27-2.36,1.04-6.01,2.32-8.32,1.56.52,2.07.45,4.29-.55,6.21-1.08.81-2.21.81-3.29,0l-.63.82c-3.43-.15-6.8.22-8.22,3.83l-1.03.29c-.91-23.88,8.33-44.39,33.34-49.8Z"/>
  <path class="cls-2" d="M58.33,63.48l1.12.34c2,3.51,5.51,5.71,9.56,5.83l.84.83.9,1.28c.66,10,5.78,19.31,14.74,24.12l.82,1.35c1.17.53,1.13,7.37.68,7.86-.51.23-1.15.36-1.92.37.09,1.09-.48,1.22-1.23.41l-.61,1-5.77,2.37-1.03-.5c.16,1.28-2.71,1.87-3.29.82-2.79,2.28-6.28,3.57-9.88,3.7l-.9-.76c-.83-8.22-9.29-9.13-15.99-8.37l-.81-.75c-.48-10.56,8.41-16.8,10.43-26.4,1.01-4.82.62-9.66.67-14.55,0-.7-.26-1.83.42-2.26,1.12.34,2.12,2.47,1.23,3.29Z"/>
  <path class="cls-4" d="M142.29,46.2c-5.34-2.07-7.17-7.97-12.07-10.36-3.98-1.95-6.44-1.14-10.36-1.58-15.46-1.74-27.82-12.74-29.85-28.39C117.01.03,140.91,18.8,142.29,46.2Z"/>
  <path class="cls-5" d="M161.22,123.57c-1.08,2.64-3.12,4.56-5.79,5.61l.02,13.74-1.42.74-12.84.15c1.4,4.18,6.48,5.08,10.45,5.02l9.84-.18.55.87c0,3.99-2.81,6.28-6.59,6.59-6.35.51-13.34-.38-19.76,0-.21-.47-.41-.95-.55-1.44s-.27-.97-.28-1.45c-.27-12.35-.49-24.74-.14-37.09.15-1,.47-1.94.97-2.82-1.54-1.36.18-5.02,1.28-6.58,1.04-1.48,3.61-4.17,5.31-2.89l.75.98c-.55,10.68,7.17,17.89,17.6,17.81l.58.97Z"/>
  <path class="cls-2" d="M140.23,71.3c-.99,2.67-3.02,4.53-6.08,5.59-.26,9.25,5.62,17.47,14,21.18l.73,1.21c.12,1.33-.09,2.77,0,4.12-1.14,1.21-5.16,1.19-6.59.41-4.31,1.28-6.34,5.26-6.59,9.47-.81.78-3.38-.04-3.29-1.23-3.12.31-7.68-1.08-9.88-3.29-.13.15-.27.29-.43.38-.47.25-8.56-2.88-9.93-3.65-.59-.33-.61-5.56.49-6.19-1.35-.15-.96-1.43,0-2.06l.36-1.11c2.14-1.53,4.36-2.95,6.64-4.24l.28-1.42c5.28-5,8.03-11.59,8.3-18.82l.89-1.16.66-.81c4.03-.15,7.95-2.29,9.84-5.92l1.02-.27c.12-.36.25-.35.41,0-.33,2.57-.61,5.24-.82,7.82Z"/>
  <path class="cls-5" d="M43.1,104.23l.97.58c-.09,10.66,7.38,18.29,18.22,17.61l.98.74c1.33,6.44,1.26,13.3,0,19.76-.25.22-.5.43-.79.59-1.2.68-14.65.28-17.33.13l-1.64-.72c-.38-4.39.26-9.29.02-13.74-7.13-2.66-7.26-10.35-6.6-16.92.39-3.91,2.65-6.53,6.17-8.03Z"/>
  <path class="cls-7" d="M45.57,103.41c8.18-.88,16.98-.01,17.7,9.88,1.52,2.35,1.3,7.42,0,9.88-8.09.87-16.12-3.06-18.84-11-.95-2.78-.66-5.21-1.33-7.93.85-.36,1.5-.72,2.47-.82Z"/>
  <path class="cls-7" d="M148.87,103.41c5.13.02,9.14.09,11.95,5.13,1.77,3.19,1.75,11.73.4,15.04-2.72-.66-5.16-.37-7.93-1.33-7.74-2.65-11.82-10.49-11-18.43,2.03-.6,4.47-.42,6.59-.41Z"/>
  <path class="cls-11" d="M19.22,151.56c.97-2.64,1.97-6.05,5.47-5.27.65.15,10.57,6.66,11.21,7.33,2.47,2.59.37,6.48-3.2,5.68-1.5-.33-6.89-4.89-7.5-4.84-1.79,2.3-1.82,5.6-5.66,4.84-1.03-.21-12.89-6.15-14.03-6.97-3-2.17-1.36-6.56,2.37-6.1,1.75.21,10.76,5.78,11.35,5.34Z"/>
  <path class="cls-11" d="M179.75,151.56c.59.44,9.61-5.13,11.35-5.34,3.73-.46,5.37,3.93,2.37,6.1-1.14.82-13,6.77-14.03,6.97-3.84.76-3.87-2.54-5.66-4.84-.62-.05-6.01,4.51-7.5,4.84-3.57.8-5.67-3.1-3.2-5.68.64-.67,10.55-7.18,11.21-7.33,3.5-.78,4.5,2.63,5.47,5.27Z"/>
  <path class="cls-11" d="M22.82,162.75c.87-.19,1.37-.04,2.19.1,1.29.23,9.86,3.13,10.67,3.74,1.99,1.48,1.58,5.02-.79,5.78-2.56.81-6.6-1.82-9.24-2.24-2.01,2.06-1.74,5.82-5.37,5.73-1.55-.04-12.63-2.83-14.22-3.51-3.2-1.37-2.53-5.99.66-6.37,2.75-.33,9.91,3.05,11.83,2.41,1.32-.44,1.67-5.07,4.28-5.63Z"/>
  <path class="cls-11" d="M180.16,168.85c.49.38,9.72-3.16,12.09-2.88,3.18.39,3.86,5,.66,6.37-1.59.68-12.67,3.48-14.22,3.51-3.63.09-3.37-3.67-5.37-5.73-.9-.21-6.21,2.52-8.18,2.44-3.28-.13-4.28-4.47-1.6-6.15.93-.58,10.48-3.75,11.48-3.78,3.26-.1,4.06,3.76,5.14,6.2Z"/>
  <path class="cls-11" d="M26.1,182.52c1.47-.33,11.2-.27,12.36.22,2.81,1.2,2.34,5.86-1.33,6.28-1.74.2-7-.44-8.04.19-1.3.79-1.7,5.69-4.4,6.3-1.48.33-11.2.27-12.36-.22-2.8-1.19-2.35-5.86,1.33-6.28,1.74-.2,7,.44,8.04-.19,1.3-.79,1.7-5.69,4.4-6.3Z"/>
  <path class="cls-11" d="M161.1,182.52c1.41-.31,10.81-.3,12.07.1,2.3.72,2.9,5.48,4.09,6.2,1.31.8,6.92-.29,9.08.38,2.94.92,2.75,5.84-.66,6.38-1.62.25-10.39.26-11.73-.16-2.3-.72-2.9-5.48-4.09-6.2-1.1-.67-6.56.07-8.42-.22-3.56-.56-3.58-5.75-.35-6.47Z"/>
  <path class="cls-5" d="M43.51,142.92l.9.58c.62,4.44,4.15,5.17,8,5.34,3.48-.16,6.96-.23,10.44-.21l.42.88c.81,2.18.8,4.4,0,6.59-6.42-.38-13.41.51-19.76,0-8.85-.72-8.85-12.45,0-13.17Z"/>
  <path class="cls-4" d="M148.87,99.29c-8.87-3.64-14.87-11.09-15.58-20.84-.24-3.26.8-2.08,3.2-3.68,1.57-1.05,2.42-2.24,3.74-3.46-1.16,13.95,7.57,16.47,8.64,27.99Z"/>
  <path class="cls-7" d="M155.46,142.92c3.78.31,6.59,2.6,6.59,6.59-7.57-.71-19.09,3.01-22.22-6.58,5.08.3,10.61-.41,15.64,0Z"/>
  <path class="cls-9" d="M142.29,55.25c-.14,3.47-.85,5.24-1.23,8.23h-.41c-1.25,1.54-4.14-.34-5.41-1.45-1.42-1.23-2.41-2.92-3.03-4.68s-1.58-5.73.21-6.63c4.77.14,7.31-.26,9.88,4.53Z"/>
  <path class="cls-9" d="M66.56,50.72c1.78.9.82,4.88.22,6.61s-1.6,3.45-3.02,4.68c-1.3,1.13-4.13,2.97-5.43,1.46-.68-1.33-.92-1.78-1.23-3.29-.38-1.81-.34-2.72-.41-4.53,2.08-5.02,5.07-4.95,9.88-4.94Z"/>
  <path class="cls-3" d="M132.41,112.05c1.11.38,2.29.55,3.29,1.23-.81,13.71.04,28.91,0,42.8,0,2.19,0,4.4,0,6.59,1.01,3.31,1.03,6.57,0,9.88-.04.32-.13.8-.36.82-1.54.17-5.54.17-7.09,0l-.57-.82c-.78.86-2.03,1.33-3.76,1.42-8.84,3.53-16.67,3.27-25.53.02-2.15-.1-3.98-.58-5.49-1.44-1.56,0-3.59-.2-5.05.09-1.86.38-3.19,2.69-4.22,2.79-.8.08-2.92-.61-3.9-.82l-1.26.56c-5.15-1.51-10.42-1.95-15.72-2.28-.57-3.43-.41-6.87.52-10.22,0-2.19,0-4.4,0-6.59s0-4.4,0-6.59c-.81-2.18-.81-4.4,0-6.59,0-6.58.07-13.18,0-19.76-.03-3.21.23-6.73,0-9.88,3.27-1.28,6.58-2.51,9.88-3.7l.77,1.43c-2.71,22.2,10.46,42.72,33.59,44.27,25.68.16,25.19-23.16,24.05-42.26l.86-.97Z"/>
  <path class="cls-1" d="M92.9,172.55c7.88-.01,12.2,3.7,19.57,3.31,4.96-.26,11.18-3.31,15.21-3.31h8.03c0-3.29-.01-6.59,0-9.88,12.64.32,13.67,20.32,1.75,22.95-10.37-.44-21.76.92-32.02.11-7.13-.56-12.45-5.95-12.54-13.19Z"/>
  <path class="cls-1" d="M63.26,162.67c.01,3.29,0,6.59,0,9.88,5.99-.76,10.87.85,16.47,2.06.23,10.63-8.82,12.05-17.49,11.12-12.47-1.35-11.98-22.95,1.03-23.05Z"/>
  <path class="cls-9" d="M69.85,50.72c.02-2.19-.02-4.39,0-6.58,8.32-.25,16.52-5.18,19.35-13.17,3.22,2.81,5.87,6.09,9.6,8.3s10.73,4.87,14.89,4.87h15.43c.01,2.19-.02,4.4,0,6.59-4.96,1.09-10.48,1.17-15.23.41-.58,1.05-1.76.77-2.06-.41l-1.27.4c-8.17-1.71-15.63-5.37-20.83-11.97-2.18,3.92-5.29,7.5-9.23,9.65.33,4.75.21,9.37-.36,13.85.69.36.66,1.99,0,2.47.83,6.4,3.37,11.96,6.59,17.29l.64.68c-.63,2.15.75,3.28,2.83,2.76l.64.68c8.2,5.32,17.43,7.89,27.24,4.95l1.57.4c-2.29,2.19-4.02,3.9-7,5.35-1.51,2.42-5.87,3.09-8.73,3.49-3.52.49-15.33.14-17.23-2.71-.16-.24-.27-.51-.37-.78-10.54-5.16-16.01-15.29-16.46-26.75-.23-.39-.44-.78-.59-1.2-.74-2-.69-15.28.03-17.35.15-.42.34-.82.56-1.21Z"/>
  <path class="cls-8" d="M69.85,50.72c-.05,6.47-.26,13.32,0,19.76-5.15.1-9.21-2.48-11.52-7,6.3-.57,9.07-7.08,8.23-12.76,1.1,0,2.2,0,3.29,0Z"/>
  <path class="cls-8" d="M132.41,50.72c-.86,5.71,1.98,12.22,8.23,12.76-1.76,4.38-6.92,7.2-11.52,7-.2-.38-.38-.75-.5-1.15-.53-1.63-.57-15.91-.03-17.46.14-.4.33-.78.54-1.15,1.09.02,2.2-.03,3.29,0Z"/>
  <path class="cls-9" d="M112.65,99.29c0,1.9-.05,3.82.05,5.72,2.93.91,5.85,1.94,8.73,3.02.53.2.92.67,1.1.74l.78.99c1.13,17.12-.24,30.54-20.46,32.09-7.17.55-15.91-.03-21.26-5.34-1.63-1.62-4.17-4.49-3.52-6.75.16-2.86,5.27-4.06,7.88-4.12,6.73-.17,10.98,3.9,13.59,9.54,1.59-3.44,3.33-6.28,6.83-8.11-10.87-1.16-20.52-9.08-23.12-19.92l.58-1.25c.35-.08.74-.44,1.23-.41.62-.02,1.04-.23,1.27-.63,8.44,2.84,17.81-.09,24.81-5.4l1.5-.14Z"/>
  <path class="cls-5" d="M76.43,108.76l.89.9c-.27,5.54-.19,11.06.22,16.55.59,1.36.77,2.54.53,3.53,3,6.91,8.21,10.48,15.85,11.11,9.12.74,20.21.4,25.65-8.09,4.64-7.23,2.47-15.86,2.95-24.01,3.12,1.15,6.67,2.19,9.88,3.29-.67,14.86,3.96,32.18-11.52,40.96-13.42,7.62-31.85.29-40.51-11.36-7.33-9.86-7.75-20.12-7.24-32.07,1.03-.37,2.37-.5,3.29-.82Z"/>
  <path class="cls-8" d="M83.84,105.88c1.64,9.14,8.83,16.4,17.47,19.36l8.45,1.62c-2.77.18-6.05,2.76-7.59,4.97-.76,1.08-1.43,4.01-2.5,4.12-1.6.17-1.99-2.8-2.91-4.12-4.18-6-13.4-7.41-18.7-2.08-.11-.25-.55-.54-.74-1.09-2.04-5.88-.35-13.67-.91-19.9,2.46-.85,4.55-2.24,7.41-2.88Z"/>
  <path class="cls-8" d="M112.65,97.23v2.06c-6.08,4.99-13.65,7.92-21.62,7.42-1.94-.12-4.48-1.17-5.95-1.25.5-.5,1.15-.1,1.27-1,.29-2.16-.28-4.98-.03-7.23,8.11,3.97,18.23,3.97,26.34,0Z"/>
  <path class="cls-1" d="M111.83,50.72c.21.29.27.6.12.92-10.25,7.14-10.83,11.52-1.75,13.13,8.86,4.57,12.33-3.11,2.08-4.59-.63-1.13-.07-2.44,1.69-3.92.97-1.49,2.01-3.18,0-4.2l-.07-.93c.43-.68,1.56-.41,2.26-.42,4.31-.05,8.66-.06,12.97,0,.05,6.45.29,13.36,0,19.76-.41,9.27-2.83,15.06-9.47,21.4-9.49,2.94-18.84,1.97-27.12-3.54-.59-.4-1.82-.95-1.69-1.81.59-1.44,4.12-2.58,5.8-2.98,4.48-1.07,8-.03,11.88,2.4,2.49.91,4.79-1.8,2.47-4.02-5.21-4.99-18.43-5.02-23.35.45l-.91.03c-.9.1-1.56-1.3-1.98-1.93-2.13-3.23-3.7-6.94-4.5-10.73-.24-1.15-.77-3.58-.11-4.62.69.27,1.43.68,2.23,1.22,1.11.23,10.52-2.78,11.74-3.53,1.54-.96,1.6-2.16.79-3.69-.47-.88-6.69-7.04-7.5-7.38-2.39-1.01-4.72,2.04-2.93,4,1.39,1.09,2.34,2.34,2.84,3.74-1.15.88-2.58,1.44-4.31,1.69-1.02.77-1.97,1.26-2.85,1.49-.68-.43-.41-1.56-.42-2.26-.05-3.95-.01-7.92.08-11.87,4-2.82,7.55-5.85,9.41-10.56.63-.43,3.59,3.44,4.33,4.1,5.77,5.25,11.06,6.62,18.3,8.65Z"/>
  <path class="cls-7" d="M63.26,142.92c0,2.19,0,4.4,0,6.59-6.7-.88-18.9,3.35-19.76-6.59,6.34-.52,13.34.38,19.76,0Z"/>
  <path class="cls-10" d="M128.7,156.5c.19.71-.29.82-.61,1.24-3.13,4.05-8.71,8.5-14.04,8.6-7.25.13-9.86-6.14-19.01-3.37-2.41.73-4.38,2.52-6.98,2.9-8.44,1.22-12.94-3-17.8-9.15,4.1-.55,7.74,1.57,11.52,2.47,7.82,1.86,11.44-3.66,19.14-3.08,3.81.29,6.05,2.23,9.25,3.1,6.37,1.73,12.14-2.58,18.54-2.69Z"/>
  <path class="cls-6" d="M90.84,86.53c-3.17,1-5.29-.92-4.12-4.12.56-1.51,1.96-2.24,3.43-2.95,5.69-2.75,12.98-2.75,18.66,0,2.52,1.22,5.87,3.96,2.82,6.67-2.49,2.21-4.43-.29-6.69-1.15-6.55-2.5-8.65-.16-14.11,1.55Z"/>
  <path class="cls-6" d="M80.14,65.13c-.19-.51-.41-.74-.39-1.41.02-.45.26-.72.39-1.06.92-2.51,4.26-2.62,6.58-3.3-.86-1.58-3.53-2.89-3.7-4.77-.24-2.57,2.15-4.45,4.55-3.69.72.23,7.16,6.52,7.8,7.44,1.22,1.75,1.25,3.89-.67,5.09-1.05.65-10.82,3.83-11.87,3.79-1.61-.07-2.19-.73-2.68-2.08Z"/>
  <path class="cls-6" d="M113.89,51.14c4.48,1.75.53,6.26-1.65,8.23,1.78.43,5.63,1.12,6.54,2.73,1.5,2.64-.39,5.38-3.4,5.08-1.18-.12-9.72-2.98-10.83-3.6-1.39-.77-1.96-1.94-1.76-3.55.25-1.96,7.07-8,9.05-9.3.63.18,1.39.15,2.06.41Z"/>
</svg>