<?xml version="1.0" encoding="UTF-8"?>
<svg id="Layer_20" data-name="Layer 20" xmlns="http://www.w3.org/2000/svg" viewBox="0 0 200 200">
  <defs>
    <style>
      .cls-1 {
        fill: #a2e530;
      }

      .cls-2 {
        fill: #a1e52e;
      }

      .cls-3 {
        fill: #fc8087;
      }

      .cls-4 {
        fill: #fee077;
      }

      .cls-5 {
        fill: #d7ebfd;
      }

      .cls-6 {
        fill: #fc8188;
      }

      .cls-7 {
        fill: #fed05c;
      }

      .cls-8 {
        fill: #fcb3b9;
      }

      .cls-9 {
        fill: #fca8ae;
      }

      .cls-10 {
        fill: #fd646f;
      }

      .cls-11 {
        fill: #e9f5fe;
      }

      .cls-12 {
        fill: #fed05b;
      }

      .cls-13 {
        fill: #fc8086;
      }

      .cls-14 {
        fill: #fd989f;
      }
    </style>
  </defs>
  <path class="cls-14" d="M107.1,195.79h-14.06c-.42-.56-1.16-.63-1.64-1.14-1.93-2.05-1.46-10.28-2.09-13.45-1.29-6.45-7.22-6.37-12.18-8.36l-.18-.92c8.17-1.26,16.05-3.54,23.65-6.84l2.8-.76c.21-.71.53-.7.74,0l3.2-1.09c21.05-3.82,40.48-19.58,45.04-41l.97-1.2c-.32-.09-.31-.22,0-.37l-.57-1.32c1.18-8.47-.85-16.93-6.85-23.2l-.35-1.39c-.95.38-1.12.21-.74-.74-.77-1.42-1.01-3.06-.74-4.94l-1.75-10.7.64-.65c1.76.95,3.41,1.73,5.08,2.88,2.57,1.76,5.62,5.35,8.8,5.29,4.19-.08,15.51-4.08,19.89-5.67,2.54-.93,10.05-4.72,12.06-4.47,1.75.22,2.34.96,3.16,2.39,1.72,2.98,4.41,7.74,1.15,10.32-5.63,4.46-17.89,6.22-24.43,9.24-5.78,2.67-2.7,8.43-2.38,13.13,1.68,24.92-15.89,48.74-37.51,59.47-4.34,2.16-9.48,3.14-13.46,5.04-7.98,3.83-2.96,15.42-6.62,19.29-.48.51-1.22.58-1.64,1.14Z"/>
  <path class="cls-8" d="M64.17,79.23c1.78,1.62,3.46,3.34,5.05,5.14l.13,1.15-.75,1.12c-14,5.61-23.97,17.48-21.24,33.21l-.58,1.19.96,1.19c5.15,24.38,29.79,42,54.3,41.44l1.35.67c-7.47,4.66-16.06,6.28-24.6,7.78-.65.11-1.29.04-1.68.73-24.07-9.67-45.16-34.5-43.31-61.63.35-5.09,3.67-11.17-2.84-13.78-7.05-2.82-14.79-4.22-21.81-7.79-1.64-.83-2.77-1.42-3.82-3.02v-2.59c2.47-3.04,2.1-8.69,7.22-8.15,1.91.2,7.36,3.13,9.71,3.99,4.42,1.61,18.09,6.48,22.08,5.98,2.26-.28,7.55-5.07,10.02-6.64,2.2-1.39,4.52-2.56,6.85-3.69,1.29.07,3.41,2.42,2.96,3.7Z"/>
  <path class="cls-11" d="M128.19,16.32c5.72,6.35,8.48,16.22,8.77,24.69.09,2.7-.22,11.16-1.79,12.86-.2.22-.44.4-.68.57-4.51,1.57-7.37-4.47-3.39-7.23,2.41-2.06-.37-4.68-2.56-3.02-2.07,3.91-7.65,2.12-7.88-2.01-.77-2.37-4.68-1.89-3.78,1.01,1.65,3.9-.88,5.44-4.09,7.01-3.71-4.3-8.27-1.16-3.51,2.58.31.36.37.74.34,1.19-.05.63-4.73,6-5.94,4.97-3.72-4.91-7.46-1.08-3.1,2.8,1.1.95-3.09,5.03-3.49,5.19-7.14-2.27-8.5,2.87-1.26,4.25,1.39,2.89,1.79,4.68-.99,6.8-2.09,1.74.48,4.45,2.43,3.12,2.12-2.81,3.7-2.95,6.87-1.65.77,1.74,1.39,3.52,1.87,5.32.19.27.41.59.32.89-.29.93-6.58,2.26-7.95,2.47-11.29,1.75-25.88-.63-34.18-8.91-.89-1.17-2.15-2.37-2.96-3.7-26.06-43.15,27.46-90.79,66.98-59.21Z"/>
  <path class="cls-5" d="M138.92,75.53l.3.91c-2.17,3.3-4.68,6.43-7.49,9.21l-.95-.13c-.07.31-.15.62-.27.9-.75,1.68-5.75,4.59-7.66,5.65-13.98,7.73-31.59,7.71-45.56-.01-1.91-1.05-6.91-3.96-7.66-5.64-.13-.28-.21-.59-.28-.9-2.02-1.82-3.59-4.22-5.18-6.29,10.73,8.23,27.62,11.12,40.42,6.56.59-.21,1.15-.35,1.39-1.01.42-.34,1.07-.49,1.94-.43.78-1.14,1.49-1.49,2.13-1.05l.3-.83c6.24-2.55,11.45-7.37,15.73-12.62.95-.65,1.82-1.41,2.35-2.45.91-2.97,2.3-5.57,4.19-7.79.36-.55.89-.99,1.59-1.34.71-1.02.8-2.31.26-3.85,4.01-13.02.89-26.86-6.29-38.11,17.99,14.37,22.89,39.14,10.73,59.21Z"/>
  <path class="cls-9" d="M142.99,77.75l1.85,11.29v4.99s-1.4-.24-1.4-.24c-3.57-2.97-7.74-5.04-11.9-7.07l-.77-1.2c2.58-2.33,6.33-7,8.14-9.99,1.45.56,2.72,1.49,4.07,2.22Z"/>
  <path class="cls-4" d="M141.14,121.04c.08.35.15.7.16,1.05s.02.67-.08.96c-4.66,13.51-14.51,26.12-25.77,34.8-3.45,2.66-7.03,5.42-11.32,6.48-.24.02-.5-.02-.74,0-25.1,1.73-52.59-17.95-56.62-43.3,31.45-.73,62.91-.73,94.36,0Z"/>
  <path class="cls-13" d="M130.78,85.52c4.91,2.42,9.97,4.78,14.06,8.51.26.24.49.49.74.74.3.56.51,1.04.59,1.67.19,1.6-.7,9.57-1.07,11.48-.47,2.41-.97,4.81-1.5,7.21-.36,1.63-.86,3.22-1.38,4.8h10.59s.54.74.54.74c-.02.12.02.25,0,.37l-.33.74h-11.34l-.54-.74H46.78c-.84-5.25-.68-11.36,1.2-16.38,3.51-9.36,12.47-15.48,21.37-19.15,17.15,15.44,44.28,15.49,61.43,0Z"/>
  <path class="cls-12" d="M153.35,121.04c-3.73,22.92-26.69,41.24-49.22,43.3,17.14-9.27,30.75-24.75,37-43.3h12.21Z"/>
  <path class="cls-10" d="M153.35,120.67h-12.21c1.61-4.13,2.35-8.54,3.23-12.87l1.21-13.03c7.34,7.3,9.23,15.79,7.77,25.9Z"/>
  <path class="cls-2" d="M134.48,54.44c2.21,1.46,1.04,5.29-1.85,5.18-.64.52-1.7.52-3.17,0l-2.85,2.72c3.89,2.55,2.09,8.15-2.27,7.22l-2.67-2.12-3.78,3.59c5.83,4.44-.63,10.87-4.85,5-2.87,2.24-3.46,3.02-2.2,6.6l-.78.68c-1.27.74-1.4,2.8-4.07,1.48-1.95-.96-1.76-4.41-2.28-4.75-.15-.1-3.23-.76-3.41-.72-1.35.27-2.72,4.53-5.78,2.32-3.71-2.68,1.89-5.51,1.78-6.58-.02-.17-.91-3.22-1.01-3.36-.47-.7-5.54-.04-4.86-4.09.63-3.77,5.96-.99,6.6-1.37.1-.06.31-.76.6-1.06.5-.52,2.05-1.78,2.25-2.22.82-1.78-3.52-2.49-1.69-5.75,2.17-3.87,5.75,1.31,6.12,1.31.33,0,4.54-4.35,4.6-4.67.19-1.1-3.93-2.39-1.99-5.3,1.78-2.66,4.37-.69,5.95,1.07.46-.37,3.65-2.79,3.77-3,.56-.95-2.62-6.43,1.74-6.61,3.83-.15,2.73,3.67,3.88,4.64.14.12,3.34,1.2,3.52,1.19,1.13-.08,2.36-4.3,5.56-2.5,4,2.25-1.48,5.72-1.56,6.49-.02.15.61,2.68.69,2.89.49,1.23,3.01,1.09,3.99,1.74Z"/>
  <path class="cls-12" d="M81.64,39.19c.09.15,1.78,1.09,2.17,1.01,2.17-.39,5.59-4.89,7.92-1.67,2.87,3.97-4.23,5.06-5.17,6.65-.26.45-.36,2.16-.13,2.53.19.3,4.32,2.01,5,2.76,2.09,2.3.02,5.53-3.23,4.53-1.03-.32-3.31-2.34-4.26-2.43-3.88-.36-1.8,4.68-2.55,7.06s-4.47,2.41-5.22,0c-.71-2.26,1.26-7.53-2.48-6.99-1.74.25-3.38,2.58-5.64,2.57-2.4,0-3.56-2.75-2.05-4.59.59-.72,4.97-2.64,5.14-2.91.31-.5.13-2.18-.31-2.71-1.34-1.63-7.99-2.77-4.82-6.68,2.75-3.4,7.19,3.89,9.64,1.12,1.34-1.51-1.41-8.2,3.14-8.16s1.89,6.26,2.85,7.9Z"/>
  <path class="cls-3" d="M105.15,20.11c8.77-1.61,10.04,10.81,2.79,12.03-8.75,1.47-9.91-10.73-2.79-12.03Z"/>
  <path class="cls-6" d="M80.73,72.26c3.71-.76,4.73,4.65,1.31,5.41-3.85.86-4.62-4.73-1.31-5.41Z"/>
  <path class="cls-1" d="M128.09,30.86c2.55,2.54-1.24,6.48-3.96,4.14s1.24-6.84,3.96-4.14Z"/>
  <path class="cls-7" d="M87.02,20.45c3.31-.61,4.34,4.75,1.31,5.42-4.27.94-4.54-4.83-1.31-5.42Z"/>
  <path class="cls-11" d="M132.63,59.62c-3.52,10-11.47,17.77-20.47,23-.84.49-2,.62-2.1.68.33-1.73-1.28-3.5-.39-5.01.16-.27,3-3.06,3.22-3.1,1.11-.19,2.54,4.25,5.68,2,1.68-1.21,1.15-2.76.17-4.22-.49-.73-1.91-1.4-1.48-2.24.16-.3,3.89-3.96,4.17-4.03,1.37-.36,3.08,4.09,5.86,1.82,3.15-2.57-1.67-5.75-1.67-6.12,0-.25,3.34-3.38,3.59-3.45,1.3-.38,2.31.63,3.43.68Z"/>
</svg>