<?xml version="1.0" encoding="UTF-8"?>
<svg xmlns="http://www.w3.org/2000/svg" viewBox="0 0 668 512">
  <defs>
    <style>
      .cls-1 {
        fill: #21111d;
      }

      .cls-2 {
        opacity: .6;
      }

      .cls-3 {
        fill: #e83c4e;
      }

      .cls-4 {
        fill: #3f9896;
      }

      .cls-5 {
        fill: #80c5a6;
      }

      .cls-6 {
        fill: #ff424d;
      }

      .cls-7 {
        fill: #fff;
      }

      .cls-8 {
        fill: #ffd4e0;
      }

      .cls-9 {
        fill: #58a3af;
      }

      .cls-10 {
        fill: #dcf4ff;
      }

      .cls-11 {
        fill: #49263e;
      }

      .cls-12 {
        fill: #ea5942;
      }

      .cls-13 {
        fill: #69b3c4;
      }

      .cls-14 {
        fill: #a4ecff;
      }

      .cls-15 {
        fill: #302f2f;
      }

      .cls-16 {
        fill: #fbfdfc;
      }

      .cls-17 {
        fill: #b1e8fc;
      }

      .cls-18 {
        fill: #f7d6b2;
      }

      .cls-19 {
        isolation: isolate;
      }

      .cls-20 {
        fill: #fcaf90;
      }

      .cls-21 {
        fill: #fc4963;
      }

      .cls-22 {
        fill: #fec786;
      }

      .cls-23 {
        opacity: .8;
      }

      .cls-23, .cls-24, .cls-25, .cls-26 {
        mix-blend-mode: multiply;
      }

      .cls-27 {
        fill: #83d0e5;
      }

      .cls-28 {
        fill: #492906;
      }

      .cls-29 {
        fill: #e53567;
      }

      .cls-30 {
        fill: #7fc6a6;
      }

      .cls-31 {
        fill: #fe9f73;
      }

      .cls-32 {
        fill: #f07162;
      }

      .cls-33 {
        fill: #fdeacf;
      }

      .cls-34 {
        fill: #febac7;
      }

      .cls-35 {
        fill: #4cb7d8;
      }

      .cls-25 {
        opacity: .3;
      }

      .cls-36 {
        fill: #f7597f;
      }

      .cls-37 {
        fill: #213748;
      }

      .cls-38 {
        fill: #ffb357;
      }

      .cls-39 {
        fill: #f47458;
      }

      .cls-26 {
        opacity: .5;
      }
    </style>
  </defs>
  <g class="cls-19">
    <g id="Layer_2" data-name="Layer 2">
      <g>
        <path class="cls-33" d="M411.03,439.9l232.67-.4s40.43-74.11-16.69-178.68c-33.3-60.96-112.6-98.21-186.29-102.61-89.9-5.37-82.22-103.37-249.8-84.33-46.07,5.24-106.73,48.18-143.75,116.43-27.57,50.83-83.14,124.87,5.84,249.6h358.02Z"/>
        <g>
          <rect class="cls-34" x="412.18" y="247.84" width="94.55" height="57.74" rx="7.33" ry="7.33" transform="translate(-2.57 4.3) rotate(-.54)"/>
          <g class="cls-25">
            <path class="cls-39" d="M506.93,298.02l-.2-20.93-94.54.88.2,20.93c.04,3.93,3.35,7.08,7.39,7.05l79.89-.75c4.05-.04,7.3-3.25,7.26-7.18Z"/>
          </g>
          <g>
            <path class="cls-10" d="M484.81,259.4c1.02-3.72,4.72-5.99,8.45-5.29.2.04.4.08.6.14.2.05.39.12.58.19,3.56,1.3,5.59,5.14,4.57,8.86-1.02,3.72-4.72,5.99-8.45,5.29-.2-.04-.4-.08-.6-.14s-.39-.12-.58-.19c-3.56-1.3-5.59-5.14-4.57-8.86Z"/>
            <g class="cls-24">
              <path class="cls-10" d="M489.97,268.44l3.89-14.2c-3.92-1.07-7.97,1.23-9.05,5.16-1.07,3.92,1.23,7.97,5.16,9.05Z"/>
            </g>
            <path class="cls-27" d="M489.38,268.25l3.88-14.15c.2.04.4.08.6.14.2.05.39.12.58.19l-3.88,14.15c-.2-.04-.4-.08-.6-.14s-.39-.12-.58-.19Z"/>
            <path d="M489.95,268.52l.04-.15c.19.05.39.1.59.14,3.69.69,7.37-1.61,8.36-5.24.99-3.63-.99-7.48-4.52-8.77-.19-.07-.39-.13-.58-.19-.19-.05-.39-.1-.59-.14l.03-.15c.21.04.41.09.6.14.19.05.39.12.59.19,3.6,1.31,5.63,5.25,4.62,8.95-1.01,3.71-4.76,6.05-8.54,5.35-.21-.04-.41-.09-.6-.14Z"/>
            <rect x="487.21" y="261.8" width="7.83" height=".15" transform="translate(108.84 666.4) rotate(-74.69)"/>
            <rect x="486.48" y="261.67" width="11.91" height=".15" transform="translate(109.93 667.56) rotate(-74.69)"/>
            <path d="M484.48,261.44c0-1.04.2-2.24.83-3.53l.14.07c-1.91,3.89.12,6.97.15,7l-.13.09s-.97-1.47-.99-3.62Z"/>
          </g>
          <g>
            <path class="cls-10" d="M485.32,288.59c1.39-3.6,5.31-5.48,8.94-4.4.19.06.39.12.58.2s.38.16.56.25c3.41,1.66,5.04,5.68,3.64,9.28-1.39,3.6-5.31,5.48-8.94,4.4-.19-.06-.39-.12-.58-.2-.19-.07-.38-.16-.56-.25-3.41-1.66-5.04-5.68-3.64-9.28Z"/>
            <g class="cls-24">
              <path class="cls-10" d="M489.52,298.12l5.32-13.73c-3.79-1.47-8.06.42-9.52,4.21-1.47,3.79.42,8.06,4.21,9.52Z"/>
            </g>
            <path class="cls-27" d="M488.96,297.87l5.3-13.68c.19.06.39.12.58.2s.38.16.56.25l-5.3,13.68c-.19-.06-.39-.12-.58-.2-.19-.07-.38-.16-.56-.25Z"/>
            <path d="M489.5,298.19l.06-.14c.19.07.37.14.58.2,3.6,1.06,7.49-.85,8.85-4.36,1.36-3.51-.23-7.54-3.61-9.18-.19-.09-.37-.17-.56-.24-.19-.07-.37-.14-.58-.2l.04-.15c.2.06.4.13.59.2.19.07.38.16.57.25,3.45,1.67,5.07,5.79,3.68,9.38-1.39,3.58-5.36,5.54-9.04,4.45-.2-.06-.4-.13-.59-.2Z"/>
            <rect x="487.43" y="291.62" width="7.83" height=".15" transform="translate(41.9 644.56) rotate(-68.83)"/>
            <rect x="486.71" y="291.63" width="11.91" height=".15" transform="translate(42.74 645.79) rotate(-68.83)"/>
            <path d="M484.75,291.35c-.01-1.2.26-2.66,1.22-4.19l.13.08c-2.29,3.67-.59,6.95-.57,6.98l-.14.07s-.63-1.2-.64-2.94Z"/>
          </g>
          <g>
            <path class="cls-10" d="M464.23,263.89c-1.24-3.66.56-7.61,4.04-9.11.19-.08.38-.15.57-.22.2-.07.39-.12.59-.17,3.68-.92,7.51,1.13,8.74,4.79,1.24,3.66-.56,7.61-4.04,9.11-.19.08-.38.15-.57.22-.2.07-.39.12-.59.17-3.68.92-7.51-1.13-8.74-4.79Z"/>
            <g class="cls-24">
              <path class="cls-10" d="M473.56,268.5l-4.72-13.95c-3.85,1.3-5.92,5.48-4.61,9.33,1.3,3.85,5.48,5.92,9.33,4.61Z"/>
            </g>
            <path class="cls-27" d="M472.97,268.67l-4.7-13.9c.19-.08.38-.15.57-.22.2-.07.39-.12.59-.17l4.7,13.9c-.19.08-.38.15-.57.22-.2.07-.39.12-.59.17Z"/>
            <path d="M468.24,254.7c.19-.08.39-.16.58-.22.19-.06.39-.12.6-.17,3.72-.93,7.6,1.2,8.84,4.84,1.23,3.64-.56,7.68-4.08,9.21-.19.08-.39.16-.58.22l-.05-.15c.19-.06.38-.14.57-.22,3.45-1.49,5.21-5.45,4-9.02-1.21-3.56-5.01-5.64-8.65-4.74-.2.05-.4.11-.58.17-.19.06-.38.14-.57.22l-.06-.14Z"/>
            <rect x="470.78" y="258.49" width=".15" height="7.83" transform="translate(-59.26 164.75) rotate(-18.69)"/>
            <rect x="471.79" y="255.62" width=".15" height="11.91" transform="translate(-58.93 164.98) rotate(-18.69)"/>
            <path d="M463.81,262.37l.15-.02c.59,4.29,4,5.71,4.04,5.72l-.06.14s-3.53-1.46-4.13-5.84Z"/>
          </g>
          <g>
            <path class="cls-10" d="M464.44,293.62c-1.14-3.69.76-7.59,4.27-9.01.19-.08.38-.15.58-.21.2-.06.4-.11.59-.16,3.7-.82,7.48,1.32,8.62,5.01,1.14,3.69-.76,7.59-4.27,9.01-.19.08-.38.15-.58.21-.2.06-.4.11-.59.16-3.7.82-7.48-1.32-8.62-5.01Z"/>
            <g class="cls-24">
              <path class="cls-10" d="M473.65,298.47l-4.36-14.07c-3.88,1.2-6.06,5.33-4.85,9.21,1.2,3.88,5.33,6.06,9.21,4.85Z"/>
            </g>
            <path class="cls-27" d="M473.06,298.63l-4.34-14.02c.19-.08.38-.15.58-.21.2-.06.4-.11.59-.16l4.34,14.02c-.19.08-.38.15-.58.21-.2.06-.4.11-.59.16Z"/>
            <path d="M468.69,284.54c.19-.08.39-.15.58-.21.19-.06.39-.11.6-.16,3.75-.83,7.57,1.39,8.71,5.06,1.14,3.67-.76,7.67-4.32,9.1-.19.08-.39.15-.58.21l-.05-.15c.19-.06.38-.13.57-.2,3.49-1.4,5.34-5.32,4.23-8.91-1.11-3.59-4.86-5.77-8.53-4.96-.2.04-.4.1-.59.16-.19.06-.38.13-.57.2l-.06-.14Z"/>
            <rect x="471.03" y="288.39" width=".15" height="7.83" transform="translate(-65.44 152.64) rotate(-17.23)"/>
            <rect x="472.06" y="285.54" width=".15" height="11.91" transform="translate(-65.13 152.83) rotate(-17.22)"/>
            <path d="M464.06,292.09l.15-.02c.48,4.31,3.85,5.81,3.89,5.82l-.06.14s-3.49-1.55-3.98-5.95Z"/>
          </g>
          <g>
            <path class="cls-10" d="M443.24,260.47c.65-3.8,4.11-6.42,7.89-6.09.2.02.41.04.61.08.2.04.4.08.6.13,3.67.95,6.06,4.57,5.41,8.37s-4.11,6.42-7.89,6.09c-.2-.02-.41-.04-.61-.08-.2-.03-.4-.08-.6-.13-3.67-.95-6.06-4.57-5.41-8.37Z"/>
            <g class="cls-24">
              <path class="cls-10" d="M449.25,268.97l2.49-14.51c-4.01-.69-7.81,2-8.5,6.01-.69,4.01,2,7.81,6.01,8.5Z"/>
            </g>
            <path class="cls-27" d="M448.65,268.84l2.48-14.46c.2.02.41.04.61.08.2.04.4.08.6.13l-2.48,14.46c-.2-.02-.41-.04-.61-.08-.2-.03-.4-.08-.6-.13Z"/>
            <path d="M449.24,269.05l.03-.15c.19.03.4.06.6.08,3.74.33,7.17-2.32,7.81-6.03.64-3.71-1.72-7.35-5.36-8.28-.2-.05-.4-.09-.59-.13-.19-.03-.4-.06-.6-.08v-.15c.22.02.43.04.63.08.2.03.4.08.61.13,3.72.96,6.12,4.67,5.47,8.46-.65,3.79-4.15,6.49-7.97,6.15-.21-.02-.42-.04-.62-.08Z"/>
            <rect x="445.85" y="262.25" width="7.83" height=".15" transform="translate(115.19 661.27) rotate(-80.27)"/>
            <rect x="445.11" y="261.99" width="11.91" height=".15" transform="translate(116.51 662.33) rotate(-80.27)"/>
            <path d="M443.07,261.81c0-.86.13-1.83.52-2.88l.14.05c-1.52,4.05.8,6.93.83,6.95l-.12.1s-1.35-1.67-1.38-4.23Z"/>
          </g>
          <g>
            <path class="cls-10" d="M444.68,287.48c2.17-3.19,6.41-4.13,9.71-2.26.18.1.35.21.52.32s.33.24.49.37c2.95,2.39,3.62,6.68,1.44,9.86-2.17,3.19-6.41,4.13-9.71,2.26-.18-.1-.35-.21-.52-.32-.17-.12-.33-.24-.49-.37-2.95-2.39-3.62-6.68-1.44-9.86Z"/>
            <g class="cls-24">
              <path class="cls-10" d="M446.62,297.71l8.3-12.17c-3.36-2.29-7.94-1.42-10.23,1.94-2.29,3.36-1.42,7.94,1.94,10.23Z"/>
            </g>
            <path class="cls-27" d="M446.13,297.34l8.27-12.12c.18.1.35.21.52.32s.33.24.49.37l-8.27,12.12c-.18-.1-.35-.21-.52-.32-.17-.12-.33-.24-.49-.37Z"/>
            <path d="M446.58,297.77l.09-.13c.16.11.34.22.52.32,3.27,1.85,7.49.87,9.61-2.24,2.12-3.11,1.49-7.4-1.43-9.76-.16-.13-.32-.25-.49-.36-.16-.11-.34-.22-.52-.32l.08-.13c.18.1.36.21.53.33.17.11.33.24.5.37,2.98,2.41,3.62,6.79,1.46,9.97-2.16,3.17-6.47,4.18-9.81,2.28-.18-.1-.36-.21-.53-.33Z"/>
            <rect x="445.94" y="291.8" width="7.83" height=".15" transform="translate(-44.73 499.12) rotate(-55.71)"/>
            <rect x="445.18" y="292.1" width="11.91" height=".15" transform="translate(-44.42 500.3) rotate(-55.71)"/>
            <path d="M443.33,291.75c-.01-1.35.34-3.54,2.32-5.51l.11.11c-3.07,3.06-2.15,6.63-2.14,6.67l-.15.04s-.13-.52-.14-1.3Z"/>
          </g>
          <g>
            <path class="cls-10" d="M424.09,266.57c-2.44-2.99-2.15-7.32.57-9.95.15-.14.3-.28.46-.41.16-.13.32-.25.49-.37,3.12-2.15,7.43-1.58,9.87,1.4,2.44,2.99,2.15,7.32-.57,9.95-.15.14-.3.28-.46.41-.16.13-.32.25-.49.37-3.12,2.15-7.43,1.58-9.87-1.4Z"/>
            <g class="cls-24">
              <path class="cls-10" d="M434.45,267.6l-9.33-11.39c-3.15,2.58-3.61,7.21-1.03,10.36,2.58,3.15,7.21,3.61,10.36,1.03Z"/>
            </g>
            <path class="cls-27" d="M433.96,267.97l-9.3-11.35c.15-.14.3-.28.46-.41.16-.13.32-.25.49-.37l9.3,11.35c-.15.14-.3.28-.46.41-.16.13-.32.25-.49.37Z"/>
            <path d="M424.61,256.56c.15-.15.31-.29.46-.41.16-.13.32-.25.5-.37,3.16-2.18,7.54-1.56,9.97,1.42,2.43,2.97,2.18,7.39-.58,10.06-.15.15-.31.29-.46.41l-.1-.12c.15-.12.31-.26.45-.4,2.7-2.61,2.95-6.94.57-9.85-2.38-2.91-6.67-3.52-9.77-1.39-.17.12-.33.24-.49.36-.15.12-.31.26-.45.4l-.11-.11Z"/>
            <rect x="429.69" y="258.93" width=".15" height="7.83" transform="translate(-69.29 331.66) rotate(-39.3)"/>
            <rect x="430.35" y="255.76" width=".15" height="11.91" transform="translate(-68.42 331.76) rotate(-39.29)"/>
            <path d="M423.17,265.3l.13-.07c2.07,3.81,5.76,3.93,5.79,3.94v.15s-3.82-.13-5.93-4.02Z"/>
          </g>
          <g>
            <path class="cls-10" d="M423.05,294.08c-1.19-3.67.67-7.6,4.17-9.06.19-.08.38-.15.58-.21.2-.06.39-.12.59-.16,3.69-.87,7.49,1.23,8.68,4.91,1.19,3.67-.67,7.6-4.17,9.06-.19.08-.38.15-.58.21-.2.06-.39.12-.59.16-3.69.87-7.49-1.23-8.68-4.91Z"/>
            <g class="cls-24">
              <path class="cls-10" d="M432.32,298.82l-4.53-14.01c-3.87,1.25-5.99,5.4-4.74,9.27,1.25,3.87,5.4,5.99,9.27,4.74Z"/>
            </g>
            <path class="cls-27" d="M431.73,298.98l-4.51-13.96c.19-.08.38-.15.58-.21.2-.06.39-.12.59-.16l4.51,13.96c-.19.08-.38.15-.58.21-.2.06-.39.12-.59.16Z"/>
            <path d="M427.19,284.95c.19-.08.39-.15.58-.22.19-.06.39-.12.6-.17,3.74-.88,7.59,1.3,8.77,4.96,1.18,3.66-.67,7.68-4.21,9.15-.19.08-.39.15-.58.22l-.05-.15c.19-.06.38-.13.57-.21,3.47-1.45,5.28-5.38,4.12-8.96-1.16-3.58-4.93-5.71-8.59-4.86-.2.05-.4.1-.59.16-.19.06-.38.13-.57.21l-.06-.14Z"/>
            <rect x="429.62" y="288.77" width=".15" height="7.83" transform="translate(-69.17 146.27) rotate(-17.9)"/>
            <rect x="430.64" y="285.91" width=".15" height="11.91" transform="translate(-68.86 146.52) rotate(-17.9)"/>
            <path d="M422.66,292.56l.15-.02c.53,4.3,3.92,5.76,3.96,5.78l-.06.14s-3.51-1.51-4.05-5.9Z"/>
          </g>
          <path d="M411.93,268.04c-.04-4.65-.08-9-.08-11.71,0-2.78.75-4.92,2.26-6.36,2.15-2.05,5.01-1.93,5.13-1.92l79.9-.73v.31s-79.91.73-79.91.73c-.04,0-2.87-.12-4.92,1.84-1.45,1.38-2.17,3.44-2.17,6.14.03,8.4.3,32.54.3,32.78h-.31c0-.16-.13-11.29-.22-21.07Z"/>
          <rect x="453.41" y="305.35" width="46.26" height=".31" transform="translate(-2.74 4.32) rotate(-.52)"/>
          <g>
            <rect x="501.79" y="276.98" width="1.53" height=".31" transform="translate(-2.49 4.56) rotate(-.52)"/>
            <path d="M422.04,278.02v-.31s3.06-.03,3.06-.03v.31s-3.06.03-3.06.03ZM428.18,277.96v-.31s3.06-.03,3.06-.03v.31s-3.06.03-3.06.03ZM434.31,277.91v-.31s3.06-.03,3.06-.03v.31s-3.06.03-3.06.03ZM440.45,277.85v-.31s3.06-.03,3.06-.03v.31s-3.06.03-3.06.03ZM446.58,277.8v-.31s3.06-.03,3.06-.03v.31s-3.06.03-3.06.03ZM452.72,277.74v-.31s3.06-.03,3.06-.03v.31s-3.06.03-3.06.03ZM458.85,277.69v-.31s3.06-.03,3.06-.03v.31s-3.06.03-3.06.03ZM464.98,277.63v-.31s3.06-.03,3.06-.03v.31s-3.06.03-3.06.03ZM471.12,277.57v-.31s3.06-.03,3.06-.03v.31s-3.06.03-3.06.03ZM477.25,277.52v-.31s3.06-.03,3.06-.03v.31s-3.06.03-3.06.03ZM483.39,277.46v-.31s3.06-.03,3.06-.03v.31s-3.06.03-3.06.03ZM489.52,277.41v-.31s3.06-.03,3.06-.03v.31s-3.06.03-3.06.03ZM495.66,277.35v-.31s3.06-.03,3.06-.03v.31s-3.06.03-3.06.03Z"/>
            <rect x="417.44" y="277.75" width="1.53" height=".31" transform="translate(-2.52 3.82) rotate(-.52)"/>
          </g>
        </g>
        <path class="cls-7" d="M186.83,150.12c4.4-.25,14.7-.69,23.66.06,3.71.31,6.91-2.65,6.82-6.37-.03-1.52-.58-3.29-1.99-5.3-5.44-7.72-14.89-.35-14.8,3.57,0,0-1.91-5.9-7.72-4.87-5.81,1.03-3.75,9.62-3.75,9.62,0,0-1.87-.4-3.17.49-1.28.87-.59,2.87.95,2.79Z"/>
        <path class="cls-7" d="M447.49,211.02c4.4-.25,14.7-.69,23.66.06,3.71.31,6.91-2.65,6.82-6.37-.03-1.52-.58-3.29-1.99-5.3-5.44-7.72-14.89-.35-14.8,3.57,0,0-1.91-5.9-7.72-4.87-5.81,1.03-3.75,9.62-3.75,9.62,0,0-1.87-.4-3.17.49-1.28.87-.59,2.87.95,2.79Z"/>
        <path class="cls-7" d="M516.74,232.42c-.25-.83-.16-1.79.42-2.58,1.05-1.44,2.96-2.65,6.38-2.86,0,0-3.7-16.43,10.64-18.16,14.73-1.77,15.49,15.55,15.49,15.55,0,0,8.35-9.19,12.9,2.01,0,0,8.99-4.53,13.3.91,1.29,1.63,1.07,3.81-.04,5.14h-59.09Z"/>
        <path class="cls-7" d="M242.92,108.03c-.25-.83-.16-1.79.42-2.58,1.05-1.44,2.96-2.65,6.38-2.86,0,0-3.7-16.43,10.64-18.16,14.73-1.77,15.49,15.55,15.49,15.55,0,0,8.35-9.19,12.9,2.01,0,0,8.99-4.53,13.3.91,1.29,1.63,1.07,3.81-.04,5.14h-59.09Z"/>
        <g class="cls-24">
          <path class="cls-33" d="M49.31,285.73h-12.27v-9.96h-9.96v-12.27h9.96v-9.96h12.27v9.96h9.96v12.27h-9.96v9.96ZM38.69,284.08h8.98v-9.96h9.97v-8.98h-9.97v-9.96h-8.98v9.96h-9.96v8.98h9.96v9.96Z"/>
        </g>
        <g>
          <rect class="cls-22" x="369.54" y="179.58" width="39.45" height="28.32" rx="4.73" ry="4.73"/>
          <path class="cls-36" d="M418.96,213.32h-3.54s0-3.84,0-3.84c0-.79.64-1.43,1.43-1.43h0c.79,0,1.43-.64,1.43-1.43v-5.98c0-.79-.64-1.43-1.43-1.43l-55.2-.04c-.79,0-1.43.64-1.43,1.43v5.98c0,.79.64,1.43,1.43,1.43.79,0,1.43.64,1.43,1.43v3.84s-3.54,0-3.54,0c-5.82,0-10.54,4.71-10.55,10.53l-.05,70.87c0,5.82,4.71,10.54,10.53,10.55l59.42.04c5.82,0,10.54-4.71,10.55-10.53l.05-70.87c0-5.82-4.71-10.54-10.53-10.55Z"/>
          <rect class="cls-8" x="356.78" y="231.75" width="64.91" height="39.77" rx="5.54" ry="5.54"/>
          <rect class="cls-29" x="392.43" y="251.04" width="24.37" height="1.67" transform="translate(808.59 504.77) rotate(-179.86)"/>
          <rect class="cls-29" x="361.09" y="259.29" width="55.7" height="1.67" transform="translate(777.22 521.21) rotate(-179.86)"/>
          <rect class="cls-29" x="358.75" y="199.16" width="61.04" height="9.76"/>
          <g class="cls-26">
            <rect class="cls-22" x="369.55" y="184.88" width="39.45" height="1.45"/>
          </g>
          <g class="cls-26">
            <rect class="cls-22" x="369.55" y="189.76" width="39.45" height="1.45"/>
          </g>
          <g class="cls-26">
            <rect class="cls-22" x="369.55" y="194.64" width="39.45" height="1.45"/>
          </g>
          <path class="cls-29" d="M365.24,238.76c5.47-3.81,8.06,3.9,8.06,3.9,0,0,2.58-7.71,8.06-3.9,5.19,3.62-.57,14.07-8.06,17.7-7.49-3.63-13.25-14.09-8.06-17.7Z"/>
          <polygon class="cls-7" points="379.93 254.08 381.11 246.81 384.39 246.81 384.96 250.83 387.26 242.46 389.41 247.78 392.64 247.78 392.64 247.27 389.75 247.27 387.16 240.87 385.12 248.32 384.84 246.3 380.68 246.3 379.91 251.03 378.09 240.67 376.57 246.85 368.33 246.85 368.33 247.36 376.97 247.36 378 243.14 379.93 254.08"/>
          <rect x="358.75" y="213.09" width="58.6" height=".45"/>
          <rect x="355.3" y="278.77" width="12.07" height=".45" transform="translate(-75.64 146.87) rotate(-20.85)"/>
          <rect x="357.86" y="281.76" width="12.07" height=".45" transform="translate(-76.54 147.99) rotate(-20.85)"/>
          <path d="M356.99,266.55h-.45v-30.28s.96-4.16,5.15-4.73c4.05-.55,41.34-.02,42.93,0v.45c-.39,0-38.85-.55-42.86,0-3.72.51-4.68,4.04-4.75,4.35v30.2Z"/>
          <polygon points="358.98 208.92 358.52 208.92 358.52 198.94 419.79 198.94 419.79 199.39 358.98 199.39 358.98 208.92"/>
          <rect x="387.22" y="208.69" width="32.57" height=".45"/>
          <path d="M409.22,199.16h-.45s0-14.28,0-14.28c0-.19.18-4.4-3.74-5l-30.01-.09v-.45s30.05.09,30.05.09h.02c4.35.66,4.14,5.42,4.14,5.47v14.27Z"/>
        </g>
        <g>
          <g>
            <path class="cls-7" d="M302.52,261.23l-3.04-4.07c12.8-11.93,19.55-30.68,18.07-50.17l-2.62-34.44c-.33-4.37-2.36-8.41-5.57-11.1-3.21-2.69-7.15-3.65-10.83-2.64l-19.53,5.35-1.37-5.01,19.53-5.35c5-1.37,10.37-.06,14.72,3.6,4.36,3.65,7.12,9.16,7.57,15.09l2.62,34.44c.79,10.41-.57,20.87-3.95,30.24-3.38,9.37-8.77,17.69-15.61,24.06Z"/>
            <path class="cls-36" d="M278.96,157.81l1.79,6.55c.15.53-.06,1.07-.47,1.28h0s-.15.06-.15.06h0s-8.61,3.46-8.61,3.46c0,0-.02,0-.02,0-.04.02-.09.03-.13.05-.81.22-1.68-.36-1.94-1.3l-2.03-7.41c-.25-.93.18-1.85.97-2.09l.38-.06,8.99-1.38h0s.18-.03.18-.03c.01,0,.02,0,.03,0,.45,0,.88.35,1.03.86Z"/>
            <path class="cls-7" d="M280.56,267.24l.54-5.05c-17.09-3.74-32.46-16.44-41.11-33.96l-15.29-30.97c-1.94-3.93-2.25-8.44-.86-12.39,1.39-3.95,4.29-6.79,7.97-7.79l19.53-5.35-1.37-5.01-19.53,5.35c-5,1.37-8.95,5.23-10.84,10.6-1.89,5.37-1.46,11.5,1.18,16.84l15.29,30.97c4.62,9.36,11.13,17.66,18.81,24.01,7.68,6.35,16.57,10.76,25.69,12.75Z"/>
            <path class="cls-36" d="M248.14,166.25l1.79,6.55c.15.53.6.89,1.06.86h0s.16-.02.16-.02h0s9.18-1.41,9.18-1.41c0,0,.02,0,.02,0,.05,0,.09-.02.14-.03.81-.22,1.26-1.17,1.01-2.11l-2.03-7.41c-.25-.93-1.1-1.5-1.9-1.31l-.36.14-8.43,3.39h0s-.17.07-.17.07c0,0-.02,0-.03.01-.39.23-.58.75-.44,1.27Z"/>
            <path class="cls-35" d="M314.86,224.18s-.09.86-.34,2.31c-2.47,13.93-10.6,26.41-22.9,35.15h0c-.42.3-.94.44-1.46.4h0c-15.03-1.26-28.39-7.85-37.61-18.58-.96-1.11-1.47-1.8-1.47-1.81l-6.09,3.99s.65.88,1.78,2.2c5.15,5.99,11.48,10.86,18.81,14.48,7.24,3.57,15.1,5.74,23.37,6.47l20.18,73.68.06-.02,7.02-1.92.06-.02-20.18-73.68c6.75-4.84,12.41-10.71,16.82-17.47,4.46-6.84,7.42-14.26,8.81-22.04.3-1.72.41-2.76.41-2.8l-7.27-.33Z"/>
          </g>
          <path d="M312.6,234.64l-.41-.19s2.01-4.35,2.44-10.29l.02-.22,7.49.34-.02.45-7.05-.32c-.47,5.91-2.44,10.19-2.46,10.23Z"/>
          <path d="M316.94,224.23l-.44-.11c.02-.07,1.6-6.71.91-15.88-.69-9.21-2.6-34.31-2.62-34.56l.45-.03c.02.25,1.93,25.35,2.62,34.56.69,9.25-.9,15.95-.92,16.02Z"/>
          <path d="M314.84,160.81c-7.71-10.25-18.45-6.58-18.56-6.54l-.15-.43c.11-.04,2.82-.98,6.54-.64,3.44.32,8.4,1.84,12.53,7.33l-.36.27Z"/>
          <path d="M240.57,229.87l-15.26-30.85c-2.66-5.4-3.25-10.19-1.74-14.26,1.97-5.31,6.9-7.46,6.95-7.48l.18.42s-4.81,2.1-6.7,7.23c-1.46,3.95-.88,8.62,1.73,13.9l15.26,30.85-.41.2Z"/>
          <path d="M240.16,238.16c-.07-.12-7.12-12.29-11.32-21.8l.42-.18c4.19,9.48,11.23,21.63,11.3,21.75l-.39.23Z"/>
          <path d="M271.23,257.2c-8.92-2.17-18.94-13.77-20.2-15.26l-5.92,3.88-.25-.38,6.26-4.1.13.16c.11.13,10.75,12.99,20.09,15.26l-.11.44Z"/>
          <rect x="268.3" y="157.49" width="9.22" height=".45" transform="translate(-20.73 43.13) rotate(-8.71)"/>
          <rect x="248.44" y="162.9" width="9.48" height=".45" transform="translate(-42.58 106.23) rotate(-21.91)"/>
          <rect x="249.14" y="166.47" width="2.36" height=".45" transform="translate(-13.71 310.72) rotate(-62.27)"/>
          <rect x="249.69" y="167.88" width="2.36" height=".45" transform="translate(-14.67 311.91) rotate(-62.26)"/>
          <rect x="276.66" y="162.76" width="2.36" height=".45" transform="translate(4.29 333.08) rotate(-62.27)"/>
          <rect x="277.21" y="164.16" width="2.36" height=".45" transform="translate(3.24 334.14) rotate(-62.23)"/>
        </g>
        <g class="cls-24">
          <path class="cls-33" d="M141.11,160.61h-13.68v-11.1h-11.1v-13.68h11.1v-11.1h13.68v11.1h11.1v13.68h-11.1v11.1ZM129.26,158.78h10.01v-11.1h11.1v-10.01h-11.1v-11.1h-10.01v11.1h-11.1v10.01h11.1v11.1Z"/>
        </g>
        <g class="cls-24">
          <path class="cls-33" d="M176.48,190.37h-8.24v-6.69h-6.69v-8.23h6.69v-6.69h8.24v6.69h6.69v8.23h-6.69v6.69ZM169.35,189.26h6.02v-6.69h6.69v-6.02h-6.69v-6.69h-6.02v6.69h-6.69v6.02h6.69v6.69Z"/>
        </g>
        <g>
          <g>
            <path class="cls-30" d="M563.67,262.96l-9.11,3.25c-2.75.98-4.19,4.01-3.21,6.76h0c.98,2.75,4.01,4.19,6.76,3.21l9.11-3.25-3.56-9.97Z"/>
            <path class="cls-4" d="M563.67,262.96l3.56,9.97,9.11-3.25c2.75-.98,4.19-4.01,3.21-6.76h0c-.98-2.75-4.01-4.19-6.76-3.21l-9.11,3.25Z"/>
            <g class="cls-26">
              <path class="cls-22" d="M565.45,267.95l-14.09,5.03c.98,2.75,4.01,4.19,6.76,3.21l9.11-3.25-1.78-4.99Z"/>
            </g>
            <g class="cls-26">
              <path class="cls-22" d="M579.54,262.92l-14.09,5.03,1.78,4.99,9.11-3.25c2.75-.98,4.19-4.01,3.21-6.76Z"/>
            </g>
          </g>
          <rect x="554" y="262.74" width="19.34" height=".45" transform="translate(-55.59 204.75) rotate(-19.64)"/>
        </g>
        <g>
          <g>
            <path class="cls-34" d="M623.64,303.44l-7.04-6.63c-2.13-2-5.48-1.9-7.48.23h0c-2,2.13-1.9,5.48.23,7.48l7.04,6.63,7.26-7.71Z"/>
            <path class="cls-29" d="M623.64,303.44l-7.26,7.71,7.04,6.63c2.13,2,5.48,1.9,7.48-.23h0c2-2.13,1.9-5.48-.23-7.48l-7.04-6.63Z"/>
            <g class="cls-26">
              <path class="cls-22" d="M620.01,307.29l-10.9-10.26c-2,2.13-1.9,5.48.23,7.48l7.04,6.63,3.63-3.85Z"/>
            </g>
            <g class="cls-26">
              <path class="cls-22" d="M630.91,317.55l-10.9-10.26-3.63,3.85,7.04,6.63c2.13,2,5.48,1.9,7.48-.23Z"/>
            </g>
          </g>
          <rect x="623.41" y="293.76" width=".45" height="19.34" transform="translate(-24.77 549.53) rotate(-46.73)"/>
          <rect x="617.63" y="304.88" width=".45" height="15.29" transform="translate(-33.21 548.18) rotate(-46.73)"/>
        </g>
        <g>
          <g>
            <path class="cls-22" d="M186.93,244.1l-3.85-8.87c-1.16-2.68-4.28-3.91-6.96-2.75h0c-2.68,1.16-3.91,4.28-2.75,6.96l3.85,8.87,9.71-4.21Z"/>
            <path class="cls-29" d="M186.93,244.1l-9.71,4.21,3.85,8.87c1.16,2.68,4.28,3.91,6.96,2.75h0c2.68-1.16,3.91-4.28,2.75-6.96l-3.85-8.87Z"/>
            <g class="cls-26">
              <path class="cls-22" d="M182.07,246.2l-5.95-13.73c-2.68,1.16-3.91,4.28-2.75,6.96l3.85,8.87,4.86-2.1Z"/>
            </g>
            <g class="cls-26">
              <path class="cls-22" d="M188.02,259.93l-5.95-13.73-4.86,2.1,3.85,8.87c1.16,2.68,4.28,3.91,6.96,2.75Z"/>
            </g>
          </g>
          <rect x="186.7" y="234.43" width=".45" height="19.34" transform="translate(-81.65 94.47) rotate(-23.43)"/>
          <rect x="176.08" y="239.63" width=".45" height="13.15" transform="translate(-83.37 90.42) rotate(-23.43)"/>
        </g>
        <g>
          <g>
            <path class="cls-17" d="M69.35,189.43l-7.86,5.63c-2.38,1.7-2.92,5.01-1.22,7.39h0c1.7,2.38,5.01,2.92,7.39,1.22l7.86-5.63-6.17-8.6Z"/>
            <path class="cls-35" d="M69.35,189.43l6.17,8.6,7.86-5.63c2.38-1.7,2.92-5.01,1.22-7.39h0c-1.7-2.38-5.01-2.92-7.39-1.22l-7.86,5.63Z"/>
            <g class="cls-26">
              <path class="cls-22" d="M72.43,193.73l-12.16,8.72c1.7,2.38,5.01,2.92,7.39,1.22l7.86-5.63-3.08-4.3Z"/>
            </g>
            <g class="cls-26">
              <path class="cls-22" d="M84.6,185.02l-12.16,8.72,3.08,4.3,7.86-5.63c2.38-1.7,2.92-5.01,1.22-7.39Z"/>
            </g>
          </g>
          <rect x="60.65" y="189.56" width="16.39" height=".45" transform="translate(-97.69 75.66) rotate(-35.64)"/>
          <rect x="69.6" y="196.34" width="15.83" height=".45" transform="translate(-100.37 82.54) rotate(-35.82)"/>
        </g>
        <path d="M375.2,305.98v-.45h43.47c4.25-.25,7.29-2.05,9.02-5.36,1.3-2.48,1.35-4.93,1.35-4.95v-71.08s.44,0,.44,0v65.96s.01,5.12.01,5.12c0,.1-.23,10.15-10.81,10.76h-43.48Z"/>
        <g>
          <path class="cls-4" d="M300.25,350.15v67.71c0,4.94,4.01,8.95,8.95,8.95h21.51v-85.61h-21.51c-4.94,0-8.95,4.01-8.95,8.95Z"/>
          <rect class="cls-37" x="322.21" y="337.1" width="17.49" height="93.8" rx="4.02" ry="4.02"/>
          <rect x="321.98" y="341.13" width=".45" height="85.75"/>
          <rect x="300.06" y="349.52" width=".45" height="69.32"/>
          <rect x="315.94" y="345.67" width=".45" height="7.34" transform="translate(-105.72 139.54) rotate(-21.41)"/>
          <rect x="314.15" y="349.89" width=".45" height="7.34" transform="translate(-107.38 139.17) rotate(-21.41)"/>
          <path class="cls-4" d="M614.54,350.15v67.71c0,4.94-4.01,8.95-8.95,8.95h-21.51v-85.61h21.51c4.94,0,8.95,4.01,8.95,8.95Z"/>
          <path class="cls-37" d="M579.11,337.1h9.45c2.22,0,4.02,1.8,4.02,4.02v85.75c0,2.22-1.8,4.02-4.02,4.02h-9.45c-2.22,0-4.02-1.8-4.02-4.02v-85.75c0-2.22,1.8-4.02,4.02-4.02Z"/>
          <path class="cls-37" d="M527.83,326.94c-.06-.98-.21-6.3-.04-34.75.03-5.52-2.09-10.72-5.99-14.63-3.89-3.92-9.08-6.07-14.6-6.07h-86.17c-5.52,0-10.71,2.16-14.6,6.07-3.89,3.91-6.02,9.11-5.99,14.63.17,28.45.02,33.77-.04,34.75-.39,2.4.98,4.8,3.35,5.63.55.19,1.12.28,1.67.28,2.11,0,4.08-1.32,4.81-3.42.35-1.01.46-1.32.47-14.21,0-5.87-.02-13.64-.08-23.09-.02-2.79,1.06-5.42,3.03-7.4,1.97-1.98,4.59-3.07,7.38-3.07h86.17c2.79,0,5.41,1.09,7.38,3.07,1.97,1.98,3.04,4.61,3.03,7.4-.06,9.45-.08,17.22-.08,23.09,0,12.89.12,13.2.47,14.21.73,2.1,2.7,3.42,4.81,3.42.55,0,1.12-.09,1.67-.28,2.37-.82,3.75-3.23,3.35-5.63Z"/>
          <rect class="cls-4" x="336.18" y="305.29" width="241.86" height="134.39" rx="9.55" ry="9.55"/>
          <g class="cls-26">
            <rect class="cls-4" x="345.43" y="381.31" width="223.37" height="45.76"/>
          </g>
          <g class="cls-26">
            <rect class="cls-4" x="405.34" y="318.58" width="131.49" height="53.9"/>
          </g>
          <rect class="cls-4" x="355.44" y="388.89" width="13.7" height="30.46"/>
          <rect class="cls-4" x="385.12" y="388.89" width="13.7" height="30.46"/>
          <rect class="cls-4" x="414.81" y="388.89" width="13.7" height="30.46"/>
          <rect class="cls-4" x="445.15" y="388.89" width="114.08" height="6.33"/>
          <rect class="cls-4" x="445.15" y="400.96" width="114.08" height="6.33"/>
          <rect class="cls-4" x="445.15" y="413.02" width="114.08" height="6.33"/>
          <circle class="cls-5" cx="373.96" cy="333.47" r="21.31"/>
          <g class="cls-23">
            <circle class="cls-4" cx="373.96" cy="333.47" r="19.52" transform="translate(-74.31 557.31) rotate(-68.26)"/>
          </g>
          <g>
            <circle class="cls-5" cx="352.65" cy="365.14" r="11.31" transform="translate(-152.71 413.12) rotate(-51.42)"/>
            <g class="cls-23">
              <circle class="cls-4" cx="352.65" cy="365.14" r="10.35" transform="translate(-17.74 18.01) rotate(-2.85)"/>
            </g>
          </g>
          <path class="cls-37" d="M350.93,352.32h3.45c.35,0,.63.28.63.63v24.39c0,.35-.28.63-.63.63h-3.45c-.35,0-.63-.28-.63-.63v-24.39c0-.35.28-.63.63-.63Z" transform="translate(-144.74 263.67) rotate(-34.47)"/>
          <g class="cls-26">
            <rect class="cls-4" x="407.23" y="320.39" width="127.71" height="50.3"/>
          </g>
          <g class="cls-26">
            <rect class="cls-4" x="546.68" y="318.58" width="21.91" height="53.9"/>
          </g>
          <g class="cls-26">
            <rect class="cls-4" x="548.16" y="320.39" width="18.97" height="50.3"/>
          </g>
          <rect class="cls-35" x="405.34" y="374.74" width="14.94" height="3.42"/>
          <rect class="cls-37" x="427.26" y="374.74" width="14.94" height="3.42"/>
          <g class="cls-26">
            <rect class="cls-4" x="449.17" y="374.74" width="14.94" height="3.42"/>
          </g>
          <rect class="cls-4" x="549.63" y="322.26" width="15.82" height="4.22"/>
          <rect class="cls-4" x="549.63" y="329.1" width="15.82" height="4.22"/>
          <rect class="cls-4" x="549.63" y="335.93" width="15.82" height="4.22"/>
          <rect class="cls-4" x="549.63" y="342.77" width="15.82" height="4.22"/>
          <rect class="cls-35" x="549.63" y="349.6" width="15.82" height="4.22"/>
          <rect class="cls-4" x="549.63" y="356.44" width="15.82" height="4.22"/>
          <rect class="cls-21" x="549.63" y="363.28" width="15.82" height="4.22"/>
          <polygon class="cls-18" points="534.95 328.14 534.95 329.05 524.85 329.05 511.98 336.22 503.69 331.57 499.25 348.07 491.78 340.8 489.17 354.96 482.49 340.5 473.58 345.06 465.83 334.52 458.93 341.73 440.98 329.21 433.52 338.37 429.54 331.88 424.24 338.19 416.28 332.6 407.23 332.6 407.23 331.7 416.57 331.7 424.08 336.98 429.66 330.33 433.62 336.81 440.8 327.98 458.81 340.55 465.92 333.12 473.85 343.91 482.92 339.27 488.8 351.99 491.2 338.97 498.78 346.34 503.12 330.21 511.98 335.19 524.62 328.14 534.95 328.14"/>
          <polygon class="cls-18" points="534.95 349.15 534.95 350.06 523.76 350.06 514.4 360.32 504.23 354.12 499.47 362.67 481.99 359.06 479.19 364.54 477.1 356.51 474.34 366.2 460.68 354.12 450.62 365.79 435.97 352.21 428.23 354.01 426.22 348.56 420.42 352.17 407.23 352.17 407.23 351.26 420.16 351.26 426.69 347.2 428.8 352.95 436.24 351.22 450.55 364.49 460.59 352.84 473.86 364.57 477.14 353.06 479.47 362.01 481.5 358.04 499 361.65 503.9 352.85 514.23 359.16 523.36 349.15 534.95 349.15"/>
          <rect x="347.44" y="305.06" width="211.79" height=".45"/>
          <path d="M410.92,305.29h-.45v-15.15c.02-.09,1.64-8.71,10.57-8.71h48.51v.45h-48.51c-8.42,0-10.02,7.77-10.12,8.31v15.09Z"/>
          <path d="M527.08,287.65c-1.51-7.81-6.5-11.75-10.42-13.68-4.26-2.1-8.22-2.35-8.26-2.35l-77.46.09v-.45s77.47-.09,77.47-.09c.05,0,4.09.25,8.44,2.39,4.02,1.98,9.13,6.01,10.68,14.01l-.44.09Z"/>
          <rect x="519.63" y="292.97" width="6.21" height=".45" transform="translate(-6.3 574.86) rotate(-57.32)"/>
          <rect x="520.61" y="297.75" width="6.21" height=".45" transform="translate(-9.88 577.89) rotate(-57.32)"/>
          <path d="M568.49,439.9h-219.54v-.45h219.54c8.56,0,9.25-8.03,9.28-8.38l.05-108.81h.45s-.05,108.83-.05,108.83c0,.1-.75,8.81-9.73,8.81Z"/>
          <polygon points="569.02 427.29 568.8 427.29 438.22 427.15 438.22 426.7 568.57 426.84 568.57 381.54 345.43 381.54 345.43 381.09 569.02 381.09 569.02 427.29"/>
          <rect x="445.15" y="395" width="114.08" height=".45"/>
          <rect x="445.15" y="407.06" width="114.08" height=".45"/>
          <rect x="445.15" y="419.13" width="114.08" height=".45"/>
          <polygon points="405.57 372.48 405.12 372.48 405.12 318.36 537.06 318.36 537.04 340.16 536.59 340.16 536.61 318.81 405.57 318.81 405.57 372.48"/>
          <polygon points="568.82 372.48 568.37 372.48 568.37 318.81 546.68 318.81 546.68 318.36 568.82 318.36 568.82 372.48"/>
          <path d="M373.96,355.01v-.45c11.63,0,21.09-9.46,21.09-21.09s-9.46-21.09-21.09-21.09v-.45c11.88,0,21.54,9.66,21.54,21.54s-9.66,21.54-21.54,21.54Z"/>
          <path class="cls-37" d="M378.81,311.61l-.64,43.87c0,.62-.56,1.12-1.22,1.11l-6.63-.1c-.67,0-1.2-.52-1.19-1.14l.64-43.87c0-.62.56-1.12,1.22-1.11l6.63.1c.66,0,1.2.52,1.19,1.14Z"/>
          <path d="M376.97,356.81s-.02,0-.02,0l-6.63-.1c-.79-.01-1.42-.63-1.41-1.37l.64-43.87c.01-.75.67-1.34,1.45-1.33l6.63.1c.79.01,1.42.63,1.41,1.37h-.45c0-.5-.43-.91-.97-.92l-6.63-.1s-.01,0-.02,0c-.53,0-.97.39-.98.89l-.64,43.87c0,.5.43.91.97.91l6.63.1c.26,0,.51-.09.7-.26.18-.17.29-.39.29-.63h.45c0,.37-.16.71-.44.96-.27.24-.62.38-.99.38Z"/>
          <rect x="371.36" y="319.16" width="6.96" height=".45" transform="translate(-100.23 449.1) rotate(-55.71)"/>
          <rect x="371.36" y="323.78" width="6.96" height=".45" transform="translate(-104.05 451.09) rotate(-55.7)"/>
          <rect x="354.22" y="351.66" width=".45" height="23.9" transform="translate(-143.55 264.43) rotate(-34.47)"/>
          <rect x="353.08" y="363.77" width=".45" height="12.95" transform="translate(-147.51 264.94) rotate(-34.47)"/>
          <rect x="386.72" y="363.65" width="10.1" height=".45" transform="translate(-142.41 387.1) rotate(-45.37)"/>
          <rect x="385.1" y="368.84" width="10.1" height=".45" transform="translate(-146.59 387.49) rotate(-45.37)"/>
          <rect x="592.35" y="341.13" width=".45" height="85.75"/>
          <rect x="614.27" y="349.52" width=".45" height="69.32"/>
          <rect x="594.95" y="349.12" width="7.34" height=".45" transform="translate(54.83 779.08) rotate(-68.59)"/>
          <rect x="596.74" y="353.34" width="7.34" height=".45" transform="translate(52.03 783.43) rotate(-68.59)"/>
        </g>
        <g>
          <g>
            <path class="cls-31" d="M170,423.73l10.3-1s3.47-.48,4.2,2.52l4.59-1.02c1.71-.38,3.46.49,4.15,2.1.34.79.62,1.74.72,2.83.34,3.48-2.09,5.62-3.37,6.04-1.28.42-7.6.15-7.6.15l-3.06.4-11.92.75,1.98-12.79Z"/>
            <path class="cls-1" d="M175.96,431.64s0,.07-.03.1c-.05.06-.14.07-.2.02-.02-.02-2.26-1.82-.96-3.78.04-.07.13-.09.2-.04.07.04.09.13.04.2-1.15,1.74.82,3.33.9,3.39.03.03.05.06.05.1Z"/>
            <path class="cls-1" d="M174.51,425.74s0,.08-.04.11c-.06.06-.15.06-.21,0-.06-.05-1.37-1.32-.71-2.27.05-.07.14-.08.2-.04.07.05.08.14.04.2-.52.74.66,1.88.67,1.89.03.03.04.06.04.09Z"/>
            <path class="cls-1" d="M168.54,436.05l3.2-2.76s2.15-7.64-1.6-11.08c-3.75-3.44-5.26-2.13-6.85-.86-.78.63-2.23,3.39-.51,6.45.94,1.67-1.24,3.18.12,5.1,1.36,1.92,3.6,4.12,4.37,3.78.77-.35,1.27-.62,1.27-.62Z"/>
            <path class="cls-1" d="M167.08,436.05s.16,3.37,3.48,3.99c3.31.62,4.88-.8,5.84-.92.96-.13,7.5-.1,6.58-4.6l-10.82-.19-4.11,2-.96-.26Z"/>
            <path class="cls-31" d="M176.46,432.26c1.44-.14,2.72.92,2.86,2.36.14,1.44-.92,2.72-2.36,2.86-1.44.14-2.72-.92-2.86-2.36s.92-2.72,2.36-2.86Z"/>
            <path class="cls-32" d="M178.33,434.91c.05.54-.32.94-.72,1.1-.47.19-.95.07-1.23-.3-.41-.54-.24-1.09-.08-1.38-.29.14-.48.34-.59.59-.23.54.03,1.16.04,1.17.02.04,0,.08-.04.1-.04.02-.08,0-.1-.04-.01-.03-.3-.68-.04-1.28.15-.35.45-.6.89-.76l.25-.09-.17.2s-.57.71-.04,1.4c.29.38.75.37,1.06.25.32-.13.67-.45.63-.95,0,0,0,0,0-.01,0-.04.02-.08.06-.08.04,0,.08.02.08.06,0,0,0,.01,0,.02Z"/>
            <path class="cls-32" d="M182.22,432.6s5.81-.77,5.66-8.1l-3.39.75s1.41,4.63-2.27,7.35Z"/>
            <path class="cls-32" d="M179.05,426.83s-.01.06-.04.07c-.04.02-.08,0-.1-.04l-.62-1.41-3.38.79s-.08-.02-.09-.05c-.01-.04.02-.08.05-.09l3.5-.82.67,1.52s0,.01,0,.02Z"/>
            <path class="cls-16" d="M180.95,424.67s-.02,2.89-.02,2.89c0,0-1.16-.4-1.16-1.45,0-1.06,1.18-1.44,1.18-1.44Z"/>
            <g>
              <path class="cls-9" d="M265.67,395.05c-1.47,5.91-4.99,19.83-9.39,36.3h-19.98l8.57-41.98c.05-.24.11-.48.2-.71l.17-.49c.96-2.68,3.83-4.3,5.9-3.33l5.91,2.77,7.07,3.32c1.38.65,2.01,2.3,1.56,4.12Z"/>
              <path class="cls-13" d="M273.62,431.35h-21.31l4.03-28.56.7-15.17.42-9.06,25.04,14.43s-1.94,24.51-8.89,38.36Z"/>
            </g>
            <g>
              <polygon class="cls-31" points="385.39 426.21 385.58 440.49 372.03 440.09 370.33 426.47 385.39 426.21"/>
              <g>
                <path class="cls-6" d="M389.86,411.71v28.86h-2.88v-12.28l-.1-.09-1.24-1.14-.25-.23-.68-.62-3.32-3.05,3.73-6.26,1.76-2.96.1-.16v-2.03s0-.04,0-.06c.03-.67.49-1.27,1.15-1.4.55-.1,1.07.11,1.38.49.21.25.34.57.34.92Z"/>
                <path class="cls-22" d="M387,411.75v28.83h-5.49c-.06-.06-.13-.13-.21-.21-.12-.13-.25-.28-.39-.46t0,0c-.05-.07-.1-.14-.16-.22-.05-.07-.1-.15-.14-.23-.04-.07-.08-.14-.12-.22-.49-.93-.78-2.22-.08-3.77,0,0,1.6-2.25,1.32-5.05-.1-1.07-.48-2.21-1.33-3.34-.19-.25-.4-.51-.65-.76-.02-.03-.05-.05-.07-.08l4.76-10.74s.25-.73.69-1.57c.42-.8,1.02-1.68,1.76-2.11.03-.02.06-.04.1-.05,0,0,.01,0,.02,0Z"/>
                <path d="M381.86,431.06c0-.41-.04-.66-.04-.67l-.21.03s.36,2.56-1.3,4.97l.18.12c1.19-1.73,1.37-3.52,1.37-4.46Z"/>
                <rect x="384.65" y="438.74" width="1.65" height=".22" transform="translate(-193.81 513.68) rotate(-56.07)"/>
                <rect x="384.39" y="437.75" width="1.65" height=".22" transform="translate(-193.2 512.38) rotate(-56)"/>
                <path d="M389.61,410.71l-.09.08-.08.06c-.25-.3-.62-.47-1.02-.47-.73,0-1.33.6-1.33,1.33v28.86h-.22v-28.86s0-.05,0-.07c.03-.82.71-1.48,1.54-1.48.46,0,.89.2,1.18.55Z"/>
                <path d="M387.04,411.81l-.09-.19c-.05.02-1.26.61-2.2,2.81-.92,2.16-5.14,11.66-5.18,11.76l.2.09c.04-.1,4.26-9.6,5.18-11.76.9-2.12,2.08-2.7,2.09-2.7Z"/>
              </g>
            </g>
            <path class="cls-35" d="M271.46,413.39c2.11,0,102.81,6.55,102.81,6.55l-.65,20.28-106.75-.77,4.58-26.07Z"/>
            <path class="cls-3" d="M187.63,439.45c-.61-4.25-.54-8.57.28-12.79.93-4.76,2.71-10.34,6.06-12.57,6.34-4.23,48.61-7.04,70.45-4.23l9.86.7s-3.52,23.95-4.93,28.88h-81.72Z"/>
            <path d="M187.58,430.31l-.7-.04c.03-.59.85-14.39,8.39-17.22,6.28-2.36,31.43-6.11,55.11-4.56l-.05.7c-23.58-1.54-48.58,2.18-54.81,4.52-7.1,2.67-7.92,16.46-7.93,16.6Z"/>
            <path class="cls-31" d="M287.5,437.99c.11-.54-.25-1.06-.78-1.2l-3.29-.88c-.1-.03-.18-.12-.18-.22h0c-.01-.16.13-.28.28-.26l4.99.65c.57.07,1.01-.34.97-.91h0c-.04-.58-.54-1.11-1.11-1.18l-5.09-.66c-.12-.02-.21-.11-.22-.23v-.08c-.02-.14.09-.26.23-.27l5.68-.38c.55-.04,1-.48.99-1.03,0-.6-.51-1.07-1.1-1.03l-5.72.39c-.14,0-.26-.09-.27-.23l-.02-.27c0-.13.08-.24.2-.26l5.22-1.05c.54-.11.93-.61.85-1.15-.08-.6-.64-.99-1.22-.87,0,0-8.05,1.17-9.32,1.25l1.5-2.57c.37-.43.33-1.08-.1-1.45h0c-.43-.37-1.08-.33-1.45.1l-4.91,4.45c-.24.28-.2,1.02-.02,1.6-.05,6.07-.01,7.01.13,8.65l6.46-.66c1.86-.19,3.74-.04,5.55.45l.45.12c.57.15,1.16-.21,1.28-.79Z"/>
            <path class="cls-3" d="M197.84,422.19c.15,1.25,66.95,2.35,78.2,2.82l-1.57,14.54-83.68-.1,7.04-17.26Z"/>
            <polygon points="274.79 439.91 221.48 439.8 221.48 439.1 274.16 439.2 275.65 425.35 201.08 422.65 201.02 422.63 198.07 421.46 198.32 420.81 201.22 421.95 276.43 424.67 274.79 439.91"/>
            <polygon points="374.05 437.99 373.35 437.97 373.91 420.27 278.3 414.13 278.34 413.43 374.64 419.61 374.05 437.99"/>
            <g>
              <path class="cls-20" d="M214.06,353.97c-.17,7.7-.26,19.49.64,23.27,1.38,5.78,6.8,31.33,6.8,31.33l9.12,1.14-2.82-34.48,1.03-18.15c-2.01-.13-11.62-.86-14.77-3.11Z"/>
              <path class="cls-20" d="M230.44,407.03s.03.09.04.12c1.92.58,4.15,1.25,4.7,1.42,1.01.3,4.07,2.42,4.83,3.61,1.39,2.15.2,1.9.2,1.9,1.24,2.37-.64,1.72-.64,1.72,1.29,2.02-.6,1.76-.6,1.76.58,1.16.26,1.53-.1,1.64-.27.08-.56.01-.78-.16-.41-.31-1.31-1-2.25-1.74h0s-3.16-1.6-9.02-3.76l-2.24-1.08,5.85-5.41Z"/>
              <path class="cls-32" d="M237.24,415.61s-.11,0-.14.04c-.04.05-.03.13.02.18.77.61,1.75,1.8,1.76,1.81.04.05.12.06.18.02.05-.04.06-.12.02-.18-.04-.05-1.01-1.22-1.8-1.85-.01,0-.02-.01-.03-.02Z"/>
              <path class="cls-32" d="M237.8,414.11c-.06-.02-.12,0-.15.05-.04.06-.02.14.04.17,1.02.61,1.78,1.53,1.78,1.54.04.05.12.06.18.02.05-.04.06-.12.02-.18-.03-.04-.79-.96-1.85-1.6,0,0-.01,0-.02-.01Z"/>
              <path class="cls-32" d="M238.71,412.49c-.05-.02-.12,0-.15.05-.04.06-.02.14.04.17.87.56,1.52,1.42,1.52,1.43.04.06.12.07.18.03.06-.04.07-.12.03-.18-.03-.04-.69-.91-1.59-1.49,0,0-.02,0-.02-.01Z"/>
              <path class="cls-20" d="M224.59,412.44s-2.99-.99-3.61-6.31c-.62-5.32,8.09.35,8.09.35l2.19,4.85-3.74,1.55-2.92-.45Z"/>
            </g>
            <path d="M175.77,425.26s-.01,0-.02,0c-.05-.01-.08-.06-.07-.11.24-1.04-.35-1.32-.37-1.33-.05-.02-.07-.07-.05-.12.02-.05.08-.06.12-.05.03.01.76.35.48,1.54-.01.04-.05.07-.09.07Z"/>
            <path d="M176.69,430.19s-.01,0-.02,0c-.05-.01-.08-.06-.07-.11.24-1.04-.37-1.33-.37-1.33-.05-.02-.07-.07-.05-.12.02-.05.07-.07.12-.05.03.01.76.35.48,1.54-.01.04-.05.07-.09.07Z"/>
            <path class="cls-14" d="M210.91,345.85c.7-8.36,22.79-25.8,42.73-15.2,14.23,7.56,31.3,61.84,31.3,61.84,0,0-20.73,4.28-40.22-1.73l-10.22-12.22-8.89-12.72s-10.31,2.21-14.5,1.79c0,0-1.51-6.11-.2-21.76Z"/>
            <path d="M268.34,394.27c-15.59,0-23.67-3.16-23.75-3.2l-.07-.03-.05-.06c-21.92-24.45-27.95-41.13-28.01-41.3l.65-.23c.06.16,6.04,16.7,27.81,41,.91.34,10.38,3.69,27.92,3.03l.03.69c-1.57.06-3.08.09-4.52.09Z"/>
            <path d="M212.56,368.04c-1.04,0-1.49-.1-1.53-.1l-.25-.06-.02-.26c-.05-.77-1.3-19.02.01-23.31,1.33-4.33,5.61-7.66,5.79-7.8l.42.54s-4.29,3.34-5.55,7.46c-1.19,3.89-.16,20.43,0,22.78.66.07,2.7.17,6.87-.54l.12.68c-2.83.48-4.7.6-5.85.6Z"/>
            <g>
              <path class="cls-31" d="M260.03,357.75c-1,7.64-2.71,19.31-4.18,22.9-2.24,5.5-11.5,29.93-11.5,29.93l-9.19-.27,8.04-33.65,1.75-18.09c2.01.18,11.61.92,15.07-.82Z"/>
              <path class="cls-32" d="M234.85,407.92s-1.37-.42-2.59-1.09c-1.22-.68-1.28.4-1.06.82.22.42,1.56,1.83,1.56,1.83l2.09-1.55Z"/>
              <path class="cls-31" d="M235.81,407.46s-.04.08-.06.12c-2.03.29-4.39.62-4.97.7-1.06.14-4.48,1.81-5.44,2.89-1.74,1.95-.5,1.88-.5,1.88-1.62,2.2.38,1.84.38,1.84-1.62,1.84.33,1.87.33,1.87-.77,1.08-.5,1.5-.15,1.67.26.12.56.1.81-.04.46-.25,1.48-.81,2.54-1.41h0s3.43-1.12,9.68-2.39l2.43-.75-5.06-6.37Z"/>
              <path class="cls-32" d="M227.61,415.05c.05-.01.11.01.14.06.04.06.01.14-.05.18-.87.5-2.05,1.54-2.06,1.55-.05.05-.13.04-.18-.01-.05-.05-.04-.14.01-.18.05-.04,1.21-1.07,2.1-1.58.01,0,.02-.01.04-.01Z"/>
              <path class="cls-32" d="M227.28,413.45c.06-.01.12.02.15.08.03.07,0,.14-.07.17-1.13.46-2.03,1.27-2.04,1.28-.05.05-.13.04-.18,0-.05-.05-.04-.13,0-.18.04-.03.94-.85,2.11-1.32,0,0,.02,0,.02,0Z"/>
              <path class="cls-32" d="M226.62,411.68c.06-.01.12.02.14.07.03.07,0,.14-.07.17-.96.43-1.75,1.2-1.76,1.2-.05.05-.13.05-.18,0-.05-.05-.05-.13,0-.18.03-.03.83-.81,1.84-1.26,0,0,.02,0,.03,0Z"/>
              <path class="cls-31" d="M240.7,413.92s3.11-.52,4.53-5.68-8.05-.88-8.05-.88l-2.9,4.46,3.46,2.1h2.96Z"/>
            </g>
            <path d="M251.06,359.3c-4.9,0-9.08-.78-9.39-.84l-.3-.06,1.56-22.62.69.05-1.51,22c1.98.34,13.24,2.05,19.73-1.19-.16-1.6-1.13-11.02-1.8-16.75l.68-.08c.74,6.25,1.81,16.89,1.82,16.99l.02.23-.21.11c-3.19,1.67-7.47,2.15-11.3,2.15Z"/>
            <path class="cls-31" d="M210.72,323.43l6.49,8.11s1.98,2.69,4.52,1.19l2.36,3.82c.88,1.42,2.64,2.04,4.2,1.44.76-.29,1.6-.73,2.42-1.39,2.61-2.09,2.45-5.17,1.89-6.32-.56-1.15-4.95-5.3-4.95-5.3l-1.76-2.36-7.41-8.66-7.75,9.47Z"/>
            <path class="cls-32" d="M225.24,326.29s3.34,4.49-1.78,9.26l-1.74-2.82s4.1-2.12,3.52-6.45Z"/>
            <path d="M219.78,322.08s.05-.05.05-.09c.01-.08-.04-.15-.12-.16-.03,0-2.74-.34-3.23,1.86-.02.07.03.15.11.17.08.02.15-.03.17-.11.43-1.94,2.82-1.65,2.92-1.64.04,0,.08,0,.11-.03Z"/>
            <path d="M223.25,318.51l-1.95,2.36-.07.78s-2.94-4.09-3.12-5.22c-.18-1.13,5.14,2.08,5.14,2.08Z"/>
            <path d="M215.42,325.58s.05-.06.05-.1c0-.08-.06-.14-.13-.14-.07,0-1.82-.06-2.02,1.03-.01.08.04.15.11.16.08.01.15-.04.16-.11.16-.85,1.72-.8,1.74-.8.03,0,.07-.01.09-.03Z"/>
            <path d="M218.57,324.84c.14.18.41.21.59.07.18-.14.21-.41.07-.59-.14-.18-.41-.21-.59-.07-.18.14-.21.41-.07.59Z"/>
            <path d="M214.85,327.29c.14.18.41.21.59.07.18-.14.21-.41.07-.59-.14-.18-.41-.21-.59-.07-.18.14-.21.41-.07.59Z"/>
            <path class="cls-31" d="M221.17,322.57c.86,1.08,2.44,1.25,3.52.39,1.08-.86,1.25-2.44.39-3.52-.86-1.08-2.44-1.25-3.52-.39-1.08.86-1.25,2.44-.39,3.52Z"/>
            <path class="cls-32" d="M224.34,321.82c.41-.33.43-.85.28-1.22-.18-.45-.58-.7-1.02-.65-.65.08-.9.56-1,.86-.09-.29-.09-.56,0-.8.22-.52.82-.75.82-.75.04-.01.05-.05.04-.09-.01-.04-.05-.05-.09-.04-.03,0-.66.25-.9.83-.14.33-.11.71.07,1.11l.1.23.03-.25s.11-.86.93-.96c.46-.05.76.27.88.56.13.3.14.76-.24,1.06,0,0,0,0-.01,0-.03.02-.03.07-.01.1.02.03.07.04.1.01,0,0,0,0,.01,0Z"/>
            <path class="cls-32" d="M219.18,327.96s.03-.05.02-.08c-.01-.04-.05-.05-.09-.04l-1.38.51-1.71-2.84s-.06-.04-.1-.02c-.03.02-.04.06-.02.1l1.77,2.94,1.48-.55s.01,0,.02-.01Z"/>
            <path d="M223.25,318.51s-2.39-4.34-4.69-4.82c-2.3-.49-10.98,2.38-11.22,3.74-.24,1.36,1.26,1.57,1.26,1.57,0,0-3.38,1.29-2.08,4.16,1.3,2.87,7.89-.74,10.44-4.61,0,0,2.81-1.16,6.29-.03Z"/>
            <path class="cls-32" d="M220.47,328.99s.02-.04.02-.07c0-.04-.05-.07-.09-.06-.06.01-1.55.35-1.95.96-.02.04-.01.08.02.11.04.02.08.01.11-.02.36-.56,1.84-.89,1.85-.9.02,0,.03-.01.04-.02Z"/>
          </g>
          <g>
            <path class="cls-31" d="M153.08,320.58l-5.69-27.27-3.16-18.65-1.31-1.57-1.87,1.7-3.63-2.26s-5.73,11.97-5.53,18.04c.2,6.06,11.36,34.48,11.36,34.48l9.83-4.46Z"/>
            <path class="cls-31" d="M155.4,326.26l.31.16c.23.69.8,2.04,1.36,3.66-1.33.56-2.35,1.03-2.3,1.2l-.31.09c-.08.02-.14.07-.18.14-1.42.41-3.23.88-4.72,1.38-1.06.35-1.84,1-2.71.37-.5-.37-1.52-2.94-1.81-3.88l-2.51-6.1c1.87-.55,9.77-3.89,10.15-3.68l2.72,6.66Z"/>
            <path class="cls-31" d="M151.81,322.46c-.84.1-1.45.62-1.44.76l.45,4.69c.05.52.61.91,1.32.86.81-.05,1.44-.61,1.39-1.19l-.42-4.38c-.05-.49-.81-.81-1.3-.75Z"/>
            <g>
              <path class="cls-11" d="M144.6,335.1l-2.11.58-.82-2.97c-.48-1.77.56-3.6,2.32-4.08l13.76-3.77c1.77-.48,3.6.56,4.08,2.32l.77,2.82-2.11.58-.77-2.82c-.17-.6-.79-.96-1.39-.79l-13.76,3.77c-.6.17-.96.79-.79,1.39l.82,2.97Z"/>
              <rect class="cls-35" x="140.31" y="334" width="6.45" height="2.76" rx=".65" ry=".65" transform="translate(-83.61 49.92) rotate(-15.34)"/>
              <rect class="cls-35" x="158.24" y="329.08" width="6.45" height="2.76" rx=".65" ry=".65" transform="translate(-81.67 54.49) rotate(-15.34)"/>
              <rect class="cls-7" x="122.53" y="332.06" width="73.13" height="49.15" transform="translate(-88.67 54.79) rotate(-15.34)"/>
              <path class="cls-11" d="M123.12,341.02c.88,3.19-1,6.49-4.2,7.37l-1.59-5.78,5.78-1.59Z"/>
              <path class="cls-3" d="M182.07,324.85c.88,3.19,4.17,5.07,7.37,4.2l-1.59-5.78-5.78,1.59Z"/>
              <path class="cls-3" d="M195.07,372.24c-.88-3.19,1-6.49,4.2-7.37l1.59,5.78-5.78,1.59Z"/>
              <path class="cls-11" d="M136.12,388.41c-.88-3.19-4.17-5.07-7.37-4.2l1.59,5.78,5.78-1.59Z"/>
              <g class="cls-26">
                <rect class="cls-3" x="138.6" y="337.47" width="1.48" height="49.15" transform="translate(-90.81 49.76) rotate(-15.34)"/>
              </g>
              <g class="cls-26">
                <rect class="cls-3" x="176.51" y="327.08" width="1.48" height="49.15" transform="translate(-86.71 59.42) rotate(-15.34)"/>
              </g>
            </g>
            <path class="cls-31" d="M153.66,332.38c-.77.26-1.34-.11-1.38-.24l-1.45-3.94c-.18-.48.17-1.06.82-1.31.71-.28,1.46-.06,1.65.45l1.45,3.92s-.31.86-1.08,1.12Z"/>
            <path class="cls-31" d="M151.45,333.15c-.77.27-1.51.1-1.56-.02l-1.68-4.21c-.19-.47.14-1.06.79-1.32.71-.29,1.47-.09,1.67.42l1.72,4.32s-.17.54-.94.81Z"/>
            <path class="cls-31" d="M148.86,333.6c-.72.26-1.41.11-1.46,0l-1.63-3.9c-.18-.44.12-.99.72-1.23.65-.27,1.37-.09,1.56.38l1.67,4s-.15.51-.86.76Z"/>
            <path class="cls-32" d="M152.2,332.55c.05.07.17.09.28.06.13-.04.2-.15.17-.25l-1.58-4.24c-.15-.4.14-.87.66-1.07.28-.11.57-.13.83-.06.26.07.44.22.51.42l1.43,3.88c.04.09.17.13.3.09.13-.04.21-.15.17-.25l-1.43-3.88c-.11-.29-.38-.52-.75-.62-.38-.1-.81-.07-1.21.09-.76.29-1.19.98-.97,1.55l1.58,4.24s.01.02.02.03Z"/>
            <path class="cls-31" d="M156.25,331.21c-.77.28-1.51.09-1.56-.03l-1.63-4.22c-.18-.46.13-1.04.76-1.31.72-.31,1.5-.1,1.7.42l1.53,3.94c.17.44-.34,1.04-.79,1.2Z"/>
            <path class="cls-32" d="M154.5,331.28c.05.07.17.09.28.05.13-.04.2-.16.17-.25l-1.66-4.21c-.15-.4.13-.87.65-1.08.28-.11.57-.13.83-.07.26.07.44.22.52.42l1.5,3.86c.04.09.17.13.3.09.13-.04.2-.16.17-.25l-1.5-3.86c-.11-.29-.39-.51-.76-.61-.38-.1-.81-.06-1.21.1-.76.3-1.17.99-.95,1.56l1.66,4.21s.01.02.02.03Z"/>
            <path class="cls-32" d="M149.75,333.06c.05.07.17.09.28.05.13-.05.2-.16.16-.25l-1.71-4.07c-.16-.4.09-.82.6-1.03.28-.11.57-.14.83-.07.26.07.45.21.53.41l1.72,4.32c.04.09.17.13.3.09.13-.04.2-.16.17-.25l-1.72-4.32c-.12-.29-.4-.51-.77-.61-.38-.1-.81-.06-1.21.1-.75.3-1.13.94-.9,1.52l1.71,4.08s.01.02.02.03Z"/>
            <path class="cls-32" d="M147.33,333.61c.05.07.17.09.28.05.13-.05.2-.16.16-.25l-1.63-3.9c-.15-.36.1-.8.57-.99.25-.1.52-.13.76-.07.24.06.41.19.49.37l1.67,4c.04.09.17.13.3.08.13-.05.2-.16.16-.25l-1.67-4c-.11-.27-.38-.48-.74-.56-.36-.09-.77-.05-1.14.11-.71.29-1.09.94-.86,1.48l1.63,3.9s0,.02.02.03Z"/>
            <polygon class="cls-31" points="149.92 322.01 150.68 325.88 151.02 327.75 151.41 328.23 152.5 328.33 153.41 327.7 153.57 326.68 153.53 322.62 150.9 320.85 149.92 322.01"/>
            <path class="cls-32" d="M149.72,322.71c.02-.09.12-.15.25-.16.14,0,.26.07.26.17l.85,4.63c0,.44.47.79,1.05.78.31,0,.6-.1.82-.26s.34-.38.34-.61l-.09-4.31c0-.1.11-.19.25-.2.14,0,.26.07.26.17l.09,4.31c0,.33-.17.65-.49.89-.32.24-.75.38-1.21.39-.85,0-1.52-.49-1.53-1.13l-.85-4.63s0-.03,0-.04Z"/>
            <g>
              <polygon class="cls-31" points="79.04 426.78 69 419.78 75.59 410.3 86.38 416.18 79.04 426.78"/>
              <g>
                <path class="cls-35" d="M68.1,420.66l8.67,6.22,6.27-1.31,3.68,8.45,1.39.99c.48.34.68.98.44,1.51-.33.72-1.21.92-1.82.49l-20.16-14.47c-.15-.11-.18-.31-.08-.46l.94-1.31c.16-.22.46-.27.67-.11Z"/>
                <path class="cls-15" d="M68.17,420.73l2.56-3.56s2.87-.92,4.38,1.68c0,0,1.65,4.8,6.69,4.04l5.02,8.55s1.53,2.12,1.3,3.6l-19.94-14.31Z"/>
                <rect x="67.27" y="418.85" width="4.36" height=".18" transform="translate(-311.39 231.06) rotate(-54.33)"/>
                <path d="M77.39,422.02c.28.2.47.3.48.3l.08-.16s-1.93-1.01-2.77-3.34l-.17.06c.6,1.66,1.74,2.67,2.38,3.13Z"/>
                <rect x="70.19" y="419.96" width=".18" height="1.4" transform="translate(-142.16 50.85) rotate(-20.39)"/>
                <rect x="70.99" y="420.27" width=".18" height="1.4" transform="translate(-141.82 50.91) rotate(-20.33)"/>
                <path d="M87.53,437.34c.38-.03.73-.23.96-.54.42-.58.29-1.4-.3-1.82l-19.94-14.31c-.31-.23-.75-.15-.98.16l-.71.98.15.11.71-.98c.17-.23.49-.29.72-.12l19.94,14.31c.5.36.62,1.07.26,1.57-.19.27-.49.44-.82.47v.18Z"/>
                <path d="M88.05,435.04l.18.03s.2-1.16-.85-2.89c-1.03-1.69-5.47-9.26-5.51-9.34l-.16.09c.04.08,4.49,7.64,5.51,9.34,1.01,1.66.83,2.75.82,2.76Z"/>
              </g>
            </g>
            <g>
              <polygon class="cls-31" points="135.56 435.84 123.32 436.01 123.15 424.47 135.34 422.95 135.56 435.84"/>
              <g>
                <path class="cls-35" d="M123.1,437.25h10.68l4.33-4.71,7.92,4.71h1.7c.59,0,1.13.4,1.24.97.15.78-.44,1.46-1.19,1.46h-24.82c-.18,0-.33-.15-.33-.33v-1.62c0-.27.22-.48.48-.48Z"/>
                <path class="cls-15" d="M123.19,437.27v-4.38s1.8-2.42,4.54-1.18c0,0,4.14,2.94,7.79-.62l9.06,4.02s2.49.83,3.16,2.16h-24.55Z"/>
                <rect x="123.1" y="432.88" width=".18" height="4.36"/>
                <path d="M131.44,432.93c.35,0,.56-.03.56-.03l-.03-.18s-2.16.3-4.2-1.1l-.1.15c1.46,1,2.97,1.16,3.76,1.16Z"/>
                <rect x="124.78" y="435.28" width=".18" height="1.4" transform="translate(-306.56 296.19) rotate(-56.06)"/>
                <rect x="125.61" y="435.06" width=".18" height="1.4" transform="translate(-305.87 296.35) rotate(-56.01)"/>
                <path d="M148.61,439.47c.29-.25.46-.61.46-1,0-.72-.59-1.31-1.31-1.31h-24.54c-.39,0-.7.31-.7.7v1.21h.18v-1.21c0-.29.23-.52.52-.52h24.54c.62,0,1.12.5,1.12,1.12,0,.33-.14.64-.4.86l.12.14Z"/>
                <path d="M147.69,437.3l.16-.08s-.52-1.06-2.37-1.85c-1.82-.78-9.84-4.33-9.92-4.37l-.07.17c.08.04,8.1,3.59,9.92,4.37,1.79.76,2.28,1.75,2.28,1.76Z"/>
              </g>
            </g>
            <path class="cls-9" d="M114.02,321.38c.46,13.57,2.47,66.63,6.69,101.36.28,2.29,2.22,4.02,4.52,4.01,2.55,0,6.1-.31,10.04-1.51,1.9-.58,3.22-2.31,3.25-4.3l1.71-105.65c0-.26-.01-.51-.05-.77l-.08-.52c-.44-2.88-3.43-4.61-6.14-3.56l-17.01,6.54c-1.82.7-2.99,2.47-2.92,4.41Z"/>
            <path class="cls-13" d="M104.32,315.14l-2.86,48.95s-20.61,31.99-28.52,45.89c-.94,1.66-.53,3.75.97,4.93,2.12,1.68,5.55,3.94,10.08,5.51,1.54.53,3.24.04,4.26-1.22l36.89-44.1c1.11-1.33,1.87-2.93,2.18-4.64l9.04-49-32.03-6.32Z"/>
            <path class="cls-1" d="M71.41,412.68h0s0,0,0,0Z"/>
            <path class="cls-28" d="M132.87,240.74s2.78-4.05-1.57-8.7c-4.35-4.65-6.36,1.48-8.42,1.7-2.07.22-5.47-1.15-7.46,2.26-1.99,3.41-1.75,6.24-3.92,6.43-2.17.19-9.9,4.18-9.41,11.37.49,7.19,7.24,8.04,7.24,8.04,0,0,26.05,5.91,29.07-.59,3.02-6.5,1.02-9.92-1.89-12.84-1.79-1.79-5.69-3.72-3.63-7.66Z"/>
            <path class="cls-14" d="M146.17,279.96l-1.05.75-1.36,1.18-2.33.86-.56.79-.91,13.85,1.21,27.28s-27.59-.61-40.09-2.09l.41-6.37.26-4.11,1.58-24.66-1.03,2.27c-.75-.23-1.48-.49-2.19-.76.87-1.65,1.8-3.39,2.68-4.95-2.55-.82-8.19-3.28-12.16-6.44-.59,1.23-1.4,2.86-2.29,4.66-1.17-.92-1.81-1.52-1.81-1.52l1.49-2.1,4.31-5.83,4.52-5.63,4.08-4.27,4.68-2.26,2.24-.42c.11-.04.23-.08.35-.09.11-.02.23-.03.35-.04l2.84-.53.36.23c3.13-.23,6.2-.32,7.18-.34.26-.03.71-.04,1.26-.04,2.72,0,8.13.26,8.13.26l1.16-.11c1.31.15,9.34.89,10.88,2.46.41.42,2.56,4.58,4.79,13.19l1.03,4.79Z"/>
            <g>
              <path class="cls-31" d="M129.76,242.38s.51,9.74-1.31,11.72c0,0-.9,1.06-2.79.91l-.58,6.01-8.48-.82,1.9-19.72,11.27,1.9Z"/>
              <path class="cls-32" d="M126.26,249.66s-.07-.03-.07-.07c0-.04.03-.08.07-.09.51-.06.88-.64.99-.83-.67-.45-1.05-.98-1.14-1.58-.14-.99.55-1.8.58-1.83.03-.03.08-.04.11,0,.03.03.04.08,0,.11,0,0-.68.8-.55,1.71.08.58.46,1.09,1.13,1.51l.06.04-.03.06s-.46.9-1.14.98c0,0-.01,0-.02,0Z"/>
              <path class="cls-32" d="M125.42,257.43l.23-2.42s-4.06-.63-6.42-2.46c0,0,3.09,3.6,6.19,4.87Z"/>
              <path d="M121.92,245.13s-.08-.02-.1-.05c-.06-.07-.05-.16.02-.22.02-.02,2.2-1.85,3.87-.22.06.06.06.16,0,.22-.06.06-.16.06-.22,0-1.47-1.43-3.37.17-3.45.23-.03.03-.08.04-.12.04Z"/>
              <path d="M127.33,245.31s-.08-.03-.11-.06c-.05-.07-.03-.17.04-.22.06-.04,1.55-1.09,2.35-.26.06.06.06.16,0,.22-.06.06-.16.06-.22,0-.62-.64-1.94.29-1.95.29-.03.02-.07.03-.1.03Z"/>
              <path class="cls-11" d="M128.98,246.68c-.02.24-.23.41-.47.39s-.41-.23-.39-.47c.02-.24.23-.41.47-.39.24.02.41.23.39.47Z"/>
              <path class="cls-11" d="M125.17,246.31c-.02.24-.23.41-.47.39-.24-.02-.41-.23-.39-.47s.23-.41.47-.39c.24.02.41.23.39.47Z"/>
              <path class="cls-31" d="M119.51,247.62c-.13,1.33-1.31,2.31-2.65,2.18s-2.31-1.31-2.18-2.65c.13-1.33,1.31-2.31,2.65-2.18,1.33.13,2.31,1.31,2.18,2.65Z"/>
              <path class="cls-32" d="M116.78,248.86c-.51-.05-.81-.46-.88-.85-.09-.46.1-.89.49-1.08.55-.27,1.01-.04,1.25.15-.08-.27-.22-.47-.42-.61-.45-.3-1.05-.17-1.06-.17-.04,0-.08-.02-.09-.06,0-.04.02-.08.06-.09.03,0,.67-.15,1.18.19.29.2.47.52.54.95l.04.28-.18-.21s-.54-.63-1.25-.28c-.39.19-.47.61-.41.91.06.31.29.69.76.73.04,0,.07.04.07.08,0,.04-.04.07-.08.07,0,0,0,0-.01,0Z"/>
            </g>
            <path class="cls-31" d="M129.76,242.38s-.38-3.79-5.31-4.67c-4.93-.89-5.96,2.77-5.96,2.77l5.56,1.7,5.34.14.36.06Z"/>
            <path class="cls-28" d="M130.06,239.24s-3.38,2.73-7.33,1.66c0,0-1.81,4.77-4.69,4.27-2.88-.51-.65-7.14-.65-7.14,0,0,5.64-1.69,5.98-1.66.34.03,6.13.24,6.13.24l.55,2.63Z"/>
            <path class="cls-12" d="M125.19,247.7c-.12-.01-.11-.2.02-.19.12.01.11.2-.02.19h0Z"/>
            <path class="cls-12" d="M124.57,247.99c-.12-.01-.1-.2.02-.19.12.01.11.2-.02.19h0Z"/>
            <path class="cls-12" d="M123.58,247.19c-.12-.01-.11-.2.02-.19.12.01.11.2-.02.19h0Z"/>
            <path class="cls-12" d="M122.61,247.8c-.12-.01-.11-.2.02-.19.12.01.1.2-.02.19h0Z"/>
            <path class="cls-12" d="M121.75,246.78c-.12-.01-.11-.2.02-.19.12.01.1.2-.02.19h0Z"/>
            <path class="cls-12" d="M121.27,248.12c-.12-.01-.1-.2.02-.19.12.01.11.2-.02.19h0Z"/>
            <path class="cls-12" d="M127.16,247.32c-.12-.01-.11-.2.02-.19.12.01.11.2-.02.19h0Z"/>
            <path class="cls-12" d="M127.79,248.17c-.12-.01-.11-.2.02-.19.12.01.11.2-.02.19h0Z"/>
            <path class="cls-12" d="M128.69,247.9c-.12-.01-.1-.2.02-.19.12.01.11.2-.02.19h0Z"/>
            <path class="cls-12" d="M128.62,249.27c-.12-.01-.11-.2.02-.19.12.01.1.2-.02.19h0Z"/>
            <path class="cls-12" d="M129.35,248.53c-.12-.01-.11-.2.02-.19.12.01.11.2-.02.19h0Z"/>
            <path class="cls-12" d="M129.31,247.33c-.12-.01-.11-.2.02-.19.12.01.1.2-.02.19h0Z"/>
            <path class="cls-12" d="M123.82,248.52c-.12-.01-.1-.2.02-.19.12.01.11.2-.02.19h0Z"/>
            <g>
              <path class="cls-1" d="M103.76,265.16s.09-.02.11-.06c1.38-1.84,3.63-2.58,3.65-2.59.07-.02.12-.1.09-.18-.02-.07-.1-.12-.18-.09-.1.03-2.36.78-3.79,2.69-.05.06-.03.15.03.2.03.02.06.03.09.03Z"/>
              <path class="cls-1" d="M104.02,266.48s.09-.02.11-.06c1.38-1.84,3.63-2.58,3.65-2.59.07-.02.12-.1.09-.18-.02-.07-.1-.12-.18-.09-.1.03-2.36.78-3.79,2.69-.05.06-.03.15.03.2.03.02.06.03.09.03Z"/>
            </g>
            <path d="M136.75,283.41h-14.2c-.14,0-.26-.12-.26-.26s.12-.26.26-.26h14.2c.14,0,.26.12.26.26s-.12.26-.26.26Z"/>
            <path d="M134.7,285.89h-9.41c-.14,0-.26-.12-.26-.26s.12-.26.26-.26h9.41c.14,0,.26.12.26.26s-.12.26-.26.26Z"/>
            <path class="cls-16" d="M126.92,250.8s-2.83-.87-2.83-.87c0,0,.03,1.26,1.07,1.58s1.77-.71,1.77-.71Z"/>
            <path class="cls-31" d="M133.09,259.88s-4.25,3.6-11.49,3.68c-7.24.08-11.17-3.68-11.17-3.68,0,0,13.61-1.5,22.67,0Z"/>
            <path d="M141.44,283c-.13,0-.23-.09-.25-.22-.02-.14.07-.27.22-.29,2.39-.37,4.11-2.29,4.49-2.74-.1-.4-.24-.98-.41-1.68-1.1-4.64-3.67-15.51-6.4-16.47-3.26-1.15-8.72-1.83-8.78-1.83-.14-.02-.24-.15-.22-.29.02-.14.15-.24.29-.22.06,0,5.58.69,8.88,1.86,2.99,1.05,5.52,11.71,6.73,16.84.18.78.33,1.4.44,1.8l.03.12-.08.1c-.08.11-2,2.58-4.9,3.03-.01,0-.03,0-.04,0Z"/>
            <path d="M140.86,283.19l-.04.06-1.11,14.98.52-.08,1.09-14.73c4.91-7.54-1.02-13.66-1.08-13.72-.1-.1-.26-.1-.36,0-.1.1-.1.26,0,.36.24.24,5.72,5.92.98,13.13Z"/>
            <rect x="96.87" y="370.9" width="84.92" height=".66" transform="translate(-234.16 504.38) rotate(-89.05)"/>
            <path d="M93.95,412.89l-.5-.42,30.55-36.51c2.41-2.88,3-5.54,3-5.56l6.63-35.94.65.12-6.63,35.94c-.03.12-.62,2.84-3.14,5.86l-30.55,36.51Z"/>
            <path d="M86.54,281c-.06,0-.13-.02-.18-.06-.15-.1-.19-.31-.09-.46.47-.69,11.55-17.03,17.6-19.42,2.49-.98,6.35-2.11,10.59-1.9.1,0,.16,0,.2,0,0,0,0,0,.01,0,.17,0,.32.14.33.31,0,.18-.12.33-.3.34-.04,0-.13,0-.27,0-4.13-.21-7.89.89-10.32,1.85-5.86,2.31-17.18,19.01-17.29,19.17-.06.09-.17.14-.27.14Z"/>
            <polygon points="186.14 375.03 185.97 374.4 200.45 370.43 187.63 323.66 174.08 327.38 173.9 326.75 188.08 322.86 201.26 370.89 186.14 375.03"/>
            <rect x="152.08" y="367.46" width=".66" height="8.1" transform="translate(-249.14 369.67) rotate(-67.43)"/>
            <rect x="152.06" y="370.57" width=".66" height="8.1" transform="translate(-252.03 371.58) rotate(-67.43)"/>
            <g>
              <path class="cls-38" d="M86.99,298.01h.01c.55,0,.99.42,1.02.97.29,5.49,2.56,9.78,6.76,12.77,2.33,1.66,4.69,2.48,5.92,2.82.5.14.81.64.72,1.15h0c-.1.6-.69.98-1.27.82-1.39-.39-3.93-1.27-6.49-3.08-3.32-2.34-7.26-6.72-7.68-14.38-.03-.58.42-1.07,1-1.08Z"/>
              <path d="M87.1,305.14l.31-.1c2.29,6.94,9.09,9.86,9.16,9.89l-.13.3c-.07-.03-7-3-9.34-10.09Z"/>
              <rect x="106.9" y="290.56" width="2.89" height=".33" transform="translate(-199.98 256.19) rotate(-63.17)"/>
              <rect x="105.63" y="290.01" width="2.89" height=".33" transform="translate(-200.19 254.75) rotate(-63.17)"/>
            </g>
            <g>
              <path class="cls-13" d="M102.8,283.99c-.88,1.56-1.81,3.3-2.68,4.95-5.31-2.03-9.51-4.97-11.76-6.74.88-1.79,1.7-3.43,2.29-4.66,3.97,3.17,9.61,5.63,12.16,6.44Z"/>
              <path class="cls-31" d="M102.94,314.41l-1.44,1.79-3.7,4.6c-4.33-3.64-14.46-17.02-14.95-25.33-.1-1.78,2.97-8.17,5.49-13.28,2.25,1.77,6.45,4.71,11.76,6.74-1.36,2.59-2.57,4.97-3.23,6.1-.93,1.6,2.62,11.98,4.88,17.05.46,1.04.87,1.85,1.17,2.32Z"/>
            </g>
            <path class="cls-13" d="M95.03,286.59s5.37,2.97,7.28,3.37l1.77-4.99-4.34-.86-4.72,2.48Z"/>
            <path d="M102.31,289.96s-.06,0-.09-.02c-.13-.05-.2-.2-.15-.33l4.32-11.42c.05-.13.2-.2.33-.15.13.05.2.2.15.33l-4.32,11.42c-.04.1-.14.17-.24.17Z"/>
            <g>
              <path class="cls-31" d="M107.23,324.63c2.62.63,1.65-1.27,1.65-1.27,1.44.19,1.72-.28,1.7-.71-.01-.31-.19-.6-.45-.77-.83-.55-3.37-2.23-5.02-3.19-.64-1.06,1.29-1.93,2.47-2.09.61-.08,1.36-.59-.15-1.16-1.24-.47-4.19-.4-4.19-.4l-3.99-7.46-7.35,6.6s5.38,7.48,6.06,8.44c.68.96,4.06,3.42,5.59,3.8,2.79.69,2.08-.48,2.08-.48,2.96.44,1.59-1.31,1.59-1.31Z"/>
              <path class="cls-32" d="M106.17,322.23s-.04-.11-.01-.17c.04-.07.13-.09.2-.04.93.59,2.55,1.2,2.56,1.21.07.03.11.11.08.18-.03.07-.11.11-.18.08-.07-.03-1.67-.63-2.62-1.23-.01,0-.02-.02-.03-.03Z"/>
              <path class="cls-32" d="M104.79,323.37c-.04-.05-.04-.13,0-.18.05-.06.14-.07.2-.02,1.03.86,2.27,1.32,2.29,1.33.07.03.11.11.08.18-.03.07-.11.11-.18.08-.05-.02-1.31-.48-2.37-1.37,0,0-.01-.01-.02-.02Z"/>
              <path class="cls-32" d="M103.41,324.92c-.04-.05-.04-.12,0-.18.05-.06.14-.07.2-.02.91.71,2.06,1.09,2.07,1.09.07.02.12.1.09.18-.02.07-.1.12-.18.09-.05-.02-1.22-.39-2.16-1.14,0,0-.02-.01-.02-.02Z"/>
            </g>
            <g>
              <circle class="cls-6" cx="158.31" cy="355.98" r="8.89" transform="translate(-181.65 165.69) rotate(-36.79)"/>
              <polygon class="cls-7" points="155.71 350.57 157.42 350.04 158.91 354.88 163.76 353.46 164.26 355.17 159.43 356.59 160.91 361.4 159.2 361.92 157.71 357.09 152.86 358.51 152.36 356.79 157.19 355.38 155.71 350.57"/>
            </g>
          </g>
        </g>
        <rect class="cls-1" x="35.8" y="439.23" width="627.31" height="1.34"/>
        <g>
          <path class="cls-35" d="M617.54,355.22c-.83-.67-1.7-1.33-2.61-1.98v8.71c6.49,5.78,9.63,12.09,9.58,19.24-.07,9.68-3.03,17.16-9.05,22.89-7.12,6.77-18.63,11.25-35.19,13.69-8.11,1.19-17.33,1.9-28.09,2.14-9.74.22-20.74.05-33.3-.5l-.3,6.82c8.82.38,16.99.58,24.58.58,3.11,0,6.11-.03,9.02-.1,35.1-.8,56.12-6.41,67.98-17.69,7.33-6.97,11.09-16.32,11.17-27.78.07-9.82-4.57-18.57-13.8-26.02Z"/>
          <circle class="cls-35" cx="505.43" cy="412.63" r="24.36"/>
          <g class="cls-2">
            <circle class="cls-7" cx="505.43" cy="412.63" r="14.02"/>
          </g>
          <path d="M567.44,419.4l-.02-.45c50.59-2.68,55.67-25.35,56.18-29.87.07-.65.17-1.34.3-2.11,1.43-8.28-1.13-14.59-3.52-18.43-2.59-4.16-5.55-6.39-5.58-6.41l.27-.37s3.06,2.3,5.7,6.53c2.43,3.91,5.03,10.33,3.58,18.75-.13.76-.23,1.44-.3,2.08-.29,2.6-1.79,9.36-9.45,15.93-9.77,8.38-25.64,13.21-47.16,14.35Z"/>
          <path d="M505.43,437.22v-.45c13.31,0,24.13-10.83,24.13-24.13s-10.83-24.13-24.13-24.13v-.45c13.56,0,24.59,11.03,24.59,24.59s-11.03,24.59-24.59,24.59Z"/>
          <path d="M505.43,426.88v-.45c7.61,0,13.8-6.19,13.8-13.8s-6.19-13.8-13.8-13.8v-.45c7.86,0,14.25,6.39,14.25,14.25s-6.39,14.25-14.25,14.25Z"/>
          <path d="M486.64,428.48c-5.76-6.66-6.07-14.08-5.31-19.12.82-5.46,3.03-9.4,3.05-9.44l.4.22s-2.19,3.92-3,9.3c-.74,4.95-.44,12.22,5.21,18.74l-.34.3Z"/>
          <path d="M620.33,409.18l-.32-.33c8.1-7.88,10.33-17.38,10.77-23.95.48-7.14-.98-12.48-.99-12.53l.44-.12c.01.05,1.49,5.46,1.01,12.67-.45,6.66-2.7,16.28-10.91,24.26Z"/>
        </g>
      </g>
    </g>
  </g>
</svg>