<?xml version="1.0" encoding="UTF-8"?>
<svg id="Layer_2" data-name="Layer 2" xmlns="http://www.w3.org/2000/svg" xmlns:xlink="http://www.w3.org/1999/xlink" viewBox="0 0 468 312">
  <defs>
    <style>
      .cls-1 {
        fill: #f9684b;
      }

      .cls-2 {
        fill: #a9f0fc;
      }

      .cls-3 {
        filter: url(#drop-shadow-2);
      }

      .cls-4 {
        fill: #f6be8e;
      }

      .cls-5, .cls-6 {
        fill: #86b6ce;
      }

      .cls-7 {
        fill: #7cc6ce;
      }

      .cls-8 {
        filter: url(#drop-shadow-6);
      }

      .cls-6, .cls-9 {
        opacity: .71;
      }

      .cls-10 {
        filter: url(#drop-shadow-5);
      }

      .cls-11 {
        fill: #fff;
      }

      .cls-12 {
        fill: #f7ebcb;
      }

      .cls-13 {
        filter: url(#drop-shadow-8);
      }

      .cls-14 {
        filter: url(#drop-shadow-4);
      }

      .cls-15 {
        fill: #d13346;
      }

      .cls-16 {
        fill: #40ccbb;
      }

      .cls-17 {
        filter: url(#drop-shadow-7);
      }

      .cls-18 {
        fill: #4c4570;
      }

      .cls-19 {
        fill: #fc8449;
      }

      .cls-20 {
        filter: url(#drop-shadow-1);
      }

      .cls-21 {
        fill: #e27785;
      }

      .cls-22 {
        fill: #b9b419;
      }

      .cls-23 {
        fill: #2b284f;
      }

      .cls-24 {
        fill: #a37b6a;
      }

      .cls-25, .cls-26, .cls-9 {
        fill: #b6cedd;
      }

      .cls-27 {
        fill: #9b553a;
      }

      .cls-28 {
        fill: #ef5964;
      }

      .cls-29 {
        fill: #83819b;
      }

      .cls-30 {
        filter: url(#drop-shadow-3);
      }

      .cls-31 {
        fill: #77445e;
      }

      .cls-32 {
        fill: #718420;
      }

      .cls-33 {
        fill: #4a2e82;
      }

      .cls-34 {
        fill: #e6eded;
      }

      .cls-35 {
        fill: #cca18b;
      }

      .cls-26 {
        opacity: .47;
      }

      .cls-36 {
        fill: #1ca6c6;
      }

      .cls-37 {
        fill: #f5f7f7;
      }

      .cls-38 {
        fill: #f9cb64;
      }
    </style>
    <filter id="drop-shadow-1" x="282.32" y="71.85" width="24" height="22.8" filterUnits="userSpaceOnUse">
      <feOffset dx="0" dy="0"/>
      <feGaussianBlur result="blur" stdDeviation="2"/>
      <feFlood flood-color="#000" flood-opacity=".75"/>
      <feComposite in2="blur" operator="in"/>
      <feComposite in="SourceGraphic"/>
    </filter>
    <filter id="drop-shadow-2" x="301.52" y="71.85" width="24" height="22.8" filterUnits="userSpaceOnUse">
      <feOffset dx="0" dy="0"/>
      <feGaussianBlur result="blur-2" stdDeviation="2"/>
      <feFlood flood-color="#000" flood-opacity=".75"/>
      <feComposite in2="blur-2" operator="in"/>
      <feComposite in="SourceGraphic"/>
    </filter>
    <filter id="drop-shadow-3" x="320.48" y="71.85" width="24" height="22.8" filterUnits="userSpaceOnUse">
      <feOffset dx="0" dy="0"/>
      <feGaussianBlur result="blur-3" stdDeviation="2"/>
      <feFlood flood-color="#000" flood-opacity=".75"/>
      <feComposite in2="blur-3" operator="in"/>
      <feComposite in="SourceGraphic"/>
    </filter>
    <filter id="drop-shadow-4" x="339.68" y="71.85" width="24" height="22.8" filterUnits="userSpaceOnUse">
      <feOffset dx="0" dy="0"/>
      <feGaussianBlur result="blur-4" stdDeviation="2"/>
      <feFlood flood-color="#000" flood-opacity=".75"/>
      <feComposite in2="blur-4" operator="in"/>
      <feComposite in="SourceGraphic"/>
    </filter>
    <filter id="drop-shadow-5" x="282.32" y="94.89" width="24" height="22.8" filterUnits="userSpaceOnUse">
      <feOffset dx="0" dy="0"/>
      <feGaussianBlur result="blur-5" stdDeviation="2"/>
      <feFlood flood-color="#000" flood-opacity=".75"/>
      <feComposite in2="blur-5" operator="in"/>
      <feComposite in="SourceGraphic"/>
    </filter>
    <filter id="drop-shadow-6" x="301.52" y="94.89" width="24" height="22.8" filterUnits="userSpaceOnUse">
      <feOffset dx="0" dy="0"/>
      <feGaussianBlur result="blur-6" stdDeviation="2"/>
      <feFlood flood-color="#000" flood-opacity=".75"/>
      <feComposite in2="blur-6" operator="in"/>
      <feComposite in="SourceGraphic"/>
    </filter>
    <filter id="drop-shadow-7" x="320.48" y="94.89" width="24" height="22.8" filterUnits="userSpaceOnUse">
      <feOffset dx="0" dy="0"/>
      <feGaussianBlur result="blur-7" stdDeviation="2"/>
      <feFlood flood-color="#000" flood-opacity=".75"/>
      <feComposite in2="blur-7" operator="in"/>
      <feComposite in="SourceGraphic"/>
    </filter>
    <filter id="drop-shadow-8" x="339.68" y="94.89" width="24" height="22.8" filterUnits="userSpaceOnUse">
      <feOffset dx="0" dy="0"/>
      <feGaussianBlur result="blur-8" stdDeviation="2"/>
      <feFlood flood-color="#000" flood-opacity=".75"/>
      <feComposite in2="blur-8" operator="in"/>
      <feComposite in="SourceGraphic"/>
    </filter>
  </defs>
  <g>
    <g>
      <rect class="cls-22" x="164.94" y="31.03" width="14.74" height="6.11" rx=".42" ry=".42"/>
      <path class="cls-16" d="M179.16,37.49v20.08c0,.2-.15.36-.33.36h-13.03c-.19,0-.33-.16-.33-.36v-20.08c0-.2.15-.36.33-.36h13.03c.18,0,.33.16.33.36Z"/>
      <rect class="cls-36" x="165.46" y="41.31" width="9.9" height="11.33"/>
      <rect class="cls-34" x="165.46" y="42.44" width="8.78" height="9.08"/>
      <g>
        <rect class="cls-32" x="166.21" y="31.03" width=".77" height="6.11"/>
        <rect class="cls-32" x="168.13" y="31.03" width=".77" height="6.11"/>
        <rect class="cls-32" x="170.05" y="31.03" width=".77" height="6.11"/>
        <rect class="cls-32" x="171.97" y="31.03" width=".77" height="6.11"/>
        <rect class="cls-32" x="173.89" y="31.03" width=".77" height="6.11"/>
        <rect class="cls-32" x="175.81" y="31.03" width=".77" height="6.11"/>
        <rect class="cls-32" x="177.74" y="31.03" width=".77" height="6.11"/>
      </g>
      <path class="cls-36" d="M179.16,37.49v1.12h-13.7v-1.12c0-.2.15-.36.33-.36h13.03c.18,0,.33.16.33.36Z"/>
    </g>
    <g>
      <path class="cls-18" d="M108,35.89s-1.87-10.9-10.69-7.67c-8.82,3.23-7.35,11.21-4.28,15.84,3.07,4.63.27,7.82-1.74,6.29-2.01-1.54-3.07-2.81-3.07-2.81,0,0-2.14,5.71,9.36,7.71,11.5,2.01,17.4-11.12,10.43-19.36Z"/>
      <path class="cls-18" d="M137.66,31.38s3.42-12.69,0-17.67c-3.42-4.98-8.41-3.66-9.39-3.25l-.97.41s-9.54-4.98-16.58.61c-7.05,5.59-9.23,14.15-6.15,22.8,3.07,8.65,7.31,11.86,14.02,11.25,6.7-.62,19.07-14.14,19.07-14.14Z"/>
      <path class="cls-4" d="M115.85,46.92s.81,3.87-.47,6.38c-1.27,2.51-4.64,3.85-4.64,3.85,0,0,1.48,5.13,6.43,6.31,4.95,1.18,13.26,0,13.26,0l5.81-2.91,2.02-5.1s-6.24-.13-7.83-1.76c-1.59-1.63-2.09-4.34-2.09-4.34l-12.5-2.44Z"/>
      <path class="cls-4" d="M128.35,49.36s.35,7.01,3.12,9c2.78,1.98,3.39,1.85,2.78,1.98-.62.13-6.16,2.61-10.84,1.67-4.67-.94-8.06-2.66-8.06-2.66,0,0,1.23-6.7,1.13-9.99-.1-3.29-4.52-8.55-4.52-8.55,0,0-3.49-.83-4.21-2.85-.72-2.02-.1-3.49,1.23-4.39,1.34-.9,2.47-1.3,3.08-1,.62.3.41,3.08,1.54,3.28,1.13.2,1.54,1.07,1.64.44.05-.29-.19-2.92-.46-5.65,0,0,4.44-2.29,8.08-3.84,3.64-1.55,4.76-3.03,4.76-3.03,0,0,2.14,1.03,3.99,1.26,1.85.22,5.54.03,5.54.03.78,3.95,2.44,14.34-.81,18.59-4.04,5.3-7.99,5.71-7.99,5.71Z"/>
      <path class="cls-21" d="M118.63,45.52s1.87,3.85,9.71,3.84c0,0-.47,4.95-1.09,4.85-.62-.1-7.8-6.25-8.63-8.69Z"/>
      <path class="cls-21" d="M110.3,34.66c-.39.03-.76.04-1.04.34-.36.39-.45,1.02-.52,1.51-.04.28.4.4.45.12.09-.6.15-1.35.88-1.51.3-.07.66-.1.99-.04,0,0-.02.02-.02.03-.58.8-.63,1.81-.16,2.67.14.25.54.03.4-.23-.4-.73-.33-1.55.16-2.22.03-.04.04-.08.04-.12.25.13.42.35.46.68.03.28.49.29.46,0-.11-1.13-1.08-1.31-2.08-1.24Z"/>
      <g>
        <ellipse class="cls-18" cx="122.23" cy="32.42" rx="1.08" ry="1.39"/>
        <ellipse class="cls-18" cx="132.79" cy="31.84" rx=".9" ry="1.21"/>
        <path class="cls-18" d="M119.35,29.84s1.63-1.6,2.63-1.97c1-.37,2.27,0,2.27,0v1.12s-1.24-.5-2.03-.21c-.79.29-2.88,1.07-2.88,1.07Z"/>
        <path class="cls-18" d="M131.89,27.53v1.04s.91-.3,1.53-.3,1.39.49,1.39.49c0,0-.44-1.5-2.92-1.24Z"/>
      </g>
      <g>
        <path class="cls-21" d="M128.63,32.96c.05.89.55,1.53,1.15,2.16.35.36,1.04.91.82,1.45-.18.45-.72.95-1.01,1.34-.35.46.45.91.8.45.54-.72,1.51-1.54,1.11-2.5-.45-1.08-1.88-1.67-1.95-2.9-.03-.57-.96-.58-.92,0h0Z"/>
        <path class="cls-21" d="M123.93,40.96c.95,2.42,3.68,2.87,6.06,2.76.59-.03.6-.92,0-.89-1.89.08-4.38-.1-5.17-2.11-.21-.53-1.1-.3-.89.24h0Z"/>
      </g>
    </g>
    <g>
      <g>
        <path class="cls-4" d="M139.45,228.38c-.16,2.82-5.65,55.5-5.45,56.53.21,1.03,9.13,10.52,9.13,10.52-.77.65-1.79,1.09-3.21,1.21h0c-1.84.14-4.33-.27-7.78-1.49-6.12-2.16-7.36-7.89-7.67-9.02-.3-1.1-1.7-1.62-1.77-1.65.47-.82.29-2.35-.36-6.81-.78-5.35-2.64-19.3-3.27-28.31-.62-9.02,1.87-20.42,1.9-21.27.03-.85-2.68-11.83-2.68-11.83,0,0-5.6,20.71-8.25,26.9-2.64,6.2-12.65,35.07-12.72,35.82-.06.75.27,4.13.69,6.39.41,2.25,5.91,10.14,5.91,10.14-5.29.94-12.14-4.88-14-7.23-1.87-2.35-2.28-7.04-2.39-7.7-.1-.66-2.39-1.93-2.39-1.93.47-.14,2.02-2.11,2.18-4.08.16-1.97,1.56-19.44,3.58-32.12,2.02-12.68,6.48-26.67,6.59-27.23.1-.56-.1-2.91-1.14-6.76-.33-1.24-.53-4.22-.65-7.69-.25-7.33-.13-16.87-.13-16.87,2.05-9.7,35.81,1.55,45.4,9.04,1.59,1.25,2.52,2.39,2.52,3.31,0,1.19-.13,2.93-.35,4.99-.04.38-.08.78-.13,1.18-1.04,9.29-3.45,23.74-3.57,25.94Z"/>
        <path class="cls-18" d="M115.13,303.7c-.62.85-20.23-.56-22.4-1.41-2.18-.85-6.74-7.42-7.47-7.98-.73-.56-3.63,6.48-4.15,6.76s-1.35-.19-1.76-.94c-.42-.75,2.7-17.65,2.85-19.2.16-1.55,2.49-2.11,2.96-2.25,0,0,2.28,1.27,2.39,1.93.1.66.52,5.35,2.39,7.7,1.87,2.35,8.71,8.17,14,7.23,0,0,1.24.09,1.56.09s8.61,4.51,9.02,4.79c.41.28,1.24,2.44.62,3.29Z"/>
        <path class="cls-18" d="M152.26,304.67c-.73.12-13.17.53-14.94,0-1.76-.53-13.28-5.95-13.28-5.95l-1.87,5.82s-1.66.28-1.97,0c-.31-.28.52-16.62.73-17.66.21-1.03.52-1.22,1.4-1.97.15-.13.27-.26.36-.42.06.02,1.46.54,1.77,1.65.31,1.13,1.56,6.86,7.67,9.02,6.12,2.16,9.23,1.78,10.99.28,0,0,1.35-.38,2.07-.38s1.35.75,3.42,2.16c2.07,1.41,4.77,2.82,5.81,4.6,1.04,1.78-1.45,2.72-2.18,2.85Z"/>
        <path class="cls-21" d="M125.91,206.88c-.62,1.13-3.58,17.98-1.87,19.25,1.71,1.27,1.24,2.25.31,3.1-.93.85-3.4,22.19-1.07,38.25,2.33,16.06,4.2,21.26,7,23.83,2.77,2.55,9.5,5.27,9.63,5.32-1.84.14-4.33-.27-7.78-1.49-6.12-2.16-7.36-7.89-7.67-9.02-.3-1.1-1.7-1.62-1.77-1.65.47-.82.29-2.35-.36-6.81-.78-5.35-2.64-19.3-3.27-28.31-.62-9.02,1.87-20.42,1.9-21.27.03-.85-2.68-11.83-2.68-11.83l3.39-10.9,3.71-11.92,15.58-.49c1.59,1.25,2.52,2.39,2.52,3.31,0,1.19-.13,2.93-.35,4.99-1.21.49-2.68.99-4.48,1.49-3.43.95-6.03,1.61-7.96,2.14-3.03.83-4.42,1.3-4.8,1.99Z"/>
        <path class="cls-21" d="M140.97,192.96l-15.58.49-3.71,11.92c-2.37,0-4.83-.13-7.36-.36-6.46-.61-12.71-2.13-18.62-4.22-.25-7.33-.13-16.87-.13-16.87,2.05-9.7,35.81,1.55,45.4,9.04Z"/>
      </g>
      <g>
        <path class="cls-18" d="M152.25,152.56c-.48,9.51-1.47,20.64-2.35,29.49-.91,9.1-1.7,15.79-1.7,15.79-3.54.57-8.06,1.16-13.85,1.79-15.18,1.66-30.38-.84-40.14-3.31t0,0c-4.68-2.93-2.86-4.5-3.03-12.58-.02-1.11-.09-2.34-.21-3.71-.99-11.25-.02-32.88,0-33.38,1.47-6.37,2.63-11.05,2.63-11.05,1.4-14,12.23-16.33,28.19-16.46,15.95-.13,23.92,6.22,23.92,6.22,0,0,3.11,12.77,6.55,27.21Z"/>
        <path class="cls-23" d="M152.25,152.56c-.48,9.51-1.47,20.64-2.35,29.49-4.3.06-7.75-.07-9.2-.57-5.59-1.9-2.53-41.83-3.62-44.37-1.09-2.54-10.11-1.27-10.11-1.27-1.96-.21-4.2,47.75-7.84,49.02-2.13.74-16.45-.21-27.96-1.12-.02-1.11-.09-2.34-.21-3.71-.99-11.25-.02-32.88,0-33.38,1.47-6.37,2.63-11.05,2.63-11.05,1.4-14,12.23-16.33,28.19-16.46,15.95-.13,23.92,6.22,23.92,6.22,0,0,3.11,12.77,6.55,27.21Z"/>
      </g>
    </g>
    <g>
      <path class="cls-2" d="M142.18,131.01c-.36.91-6.55,2.12-9.99,1.97-3.44-.15-16.86-.91-16.86-1.51,0-.08-.05-1.37-.14-3.58-.43-10.87-1.76-43.84-2.5-62.32-.31-7.71-.52-12.9-.52-12.9l2.56-.17s4.94,7.96,11.8,8.71c6.86.76,3.59-9.15,3.59-9.15l1.63.44s6.39,10.85,9.09,19.58c.17.56.32,1.23.45,1.98,1.87,10.9-.72,40.24-.45,47.08.13,3.21.47,5.33.78,6.78.4,1.85.75,2.6.55,3.1Z"/>
      <path class="cls-7" d="M140.85,121.12c.13,3.21.47,5.33.78,6.78l-26.44-.02c-.43-10.87-1.76-43.84-2.5-62.32,3.06-.23,4.93-.14,4.93-.14,0,0,4.02,8.23,5,8.55.66.21,11.6.14,18.69.07,1.87,10.9-.72,40.24-.45,47.08Z"/>
    </g>
    <g>
      <g>
        <path class="cls-4" d="M162.78,65.82s1.25-5.58,2.02-6.58c.78-1.01,4.13-3.43,6.07-3.76,1.95-.34,2.96-.94,2.34.34-.62,1.28-3.04,2.51-3.04,2.51,0,0,5.21-1.63,5.99-2.31.78-.67,4.52-4.84,4.99-4.84s1.25.13,1.32.47c.08.34-.39,1.34-.39,1.34,0,0,1.17-1.07,1.4-.81.23.27.16.81,0,1.28-.16.47-3.66,6.11-4.21,6.65-.55.54-6.6,4.76-7.71,5.71-1.11.95-2.8,2.55-2.8,2.55l-6-2.55Z"/>
        <path class="cls-21" d="M174.93,60.38c-.09,0-.17-.04-.21-.12-.05-.1,0-.22.12-.27.03-.01,2.68-1.06,3.34-1.8.68-.77,3.69-5.26,3.72-5.31.06-.1.21-.13.32-.07.11.06.15.18.09.28-.12.19-3.05,4.56-3.76,5.35-.73.82-3.4,1.88-3.51,1.92-.03.01-.06.02-.1.02Z"/>
      </g>
      <path class="cls-34" d="M164.62,99.58c-.93,1.81-1.3,1.43-2.17,2.35-.87.92-6.14.96-6.76,1.25s-2.96-.56-3.91-1.03c-.93-.46-3.22-3.34-3.29-3.43h0s-.2,4.74-.28,10.87c-.09,6.76-.04,15.22.56,20.85.95,8.86,7.12,38.02,9.27,48.46.46,2.21.73,3.58.74,3.74.05.94-5.21,3.37-7.02,3.87-1.81.5-11.49-.2-12.35-1.1-.82-.86-1.97-72.97-1.29-87,.03-.63.06-1.14.1-1.52.33-3.33.4-7.63.34-11.83-.1-7.1-.58-13.95-.82-15.51-.4-2.48-7.02-17.82-7.02-17.82,0,0,1.31.49,3.17,1.17,2.47.91,5.89,2.14,8.43,2.98,4.44,1.47,5.61,2.02,6,2.74.39.72,8.05,22.79,8.49,22.45.44-.33,2.87-12.43,3.57-14.34.7-1.91.97-3.17,2-3.32,1.03-.15,6.1.35,6.57.43.27.05,1.7,1.02,2.94,2.05.9.75,1.71,1.53,1.88,2.01.41,1.13-8.21,29.88-9.15,31.7Z"/>
      <path class="cls-25" d="M148.5,98.71s4.43-11.78,4.13-13.97c-.29-2.19-7.34-15.04-6.25-13.63,1.09,1.41,7.34,11.56,8.48,13.52,1.14,1.97-2.52,17.75-2.52,17.75,0,0-2.51-1.38-3.84-3.68Z"/>
      <polygon class="cls-25" points="156.82 81.06 155.43 92.18 156.28 80.09 156.82 81.06"/>
      <path class="cls-26" d="M164.62,99.58c-.93,1.81-1.3,1.43-2.17,2.35-.87.92-6.14.96-6.76,1.25s-2.96-.56-3.91-1.03c0,0,7.63.6,10.35-2.91,2.01-2.6,7.21-23.03,9.76-33.36.9.75,1.71,1.53,1.88,2.01.41,1.13-8.21,29.88-9.15,31.7Z"/>
      <path class="cls-11" d="M138.57,85.04c-.1-7.1-.58-13.95-.82-15.51-.4-2.48-7.02-17.82-7.02-17.82,0,0,1.31.49,3.17,1.17,1.86,1.87,4.63,4.72,4.64,4.93.02.31-1.75,3.57-1.34,3.87.42.29,3.66,2.75,3.68,3.17.02.37.77,12.19-2.3,20.19Z"/>
      <path class="cls-25" d="M158.79,182.63c.05.94-5.21,3.37-7.02,3.87-1.81.5-11.49-.2-12.35-1.1-.82-.86-1.97-72.97-1.29-87l10.37.31s-.2,4.74-.28,10.87c-.34.07-.6.13-.73.17-.73.26-2.72,16.47-2.77,16.94-.05.47-5.14.63-5.14.63,0,0,3.55,54.58,4.53,55.31.98.74,9.67,1.9,11.17,1.05,1.5-.85,2.77-4.79,2.77-4.79.46,2.21.73,3.58.74,3.74Z"/>
      <path class="cls-37" d="M144.68,146.31c.16.71,1,5.66,2.16,6.31s4.23,1.41,5.16,1.33c.93-.08,2.33.05,2.38-.58.05-.63-1.46-7.75-1.84-8.28-.37-.53-8.06.32-7.86,1.22Z"/>
      <path class="cls-25" d="M146.1,153.13s1.51,10.17,2.6,11.22c1.09,1.04,5.98.74,5.98.74,0,0-6.38,1.47-7.04.32-.67-1.14-1.54-12.29-1.54-12.29Z"/>
    </g>
    <g>
      <path class="cls-34" d="M123.87,109.15c-.25,1.02-.73,6.66-1.25,14.24-.14,2.04-.28,4.22-.43,6.49-1.04,16.46-2.06,37.56-1.73,43.37.53,9.59-.12,11.73-.86,12.47s-14.67,3.49-18.08,3.64c-3.31.15-16.75-3.65-17.87-5.36-.03-.05-.06-.1-.07-.15-.35-1.63,8.34-49.35,9.68-56.29.73-3.77,2.02-7.46,3.04-10.62.86-2.65,1.53-4.94,1.51-6.6-.02-2.34-1.4-21.47-2.38-34.79-.54-7.37-.97-12.97-.97-12.97,0,0,3.36-5.29,5.28-6.01,1.41-.52,7.99-2.79,11.58-3.69,1.32-.33,2.23-.48,2.34-.29.3.56,5.14,16.34,7.68,28.28.71,3.36,1.24,6.42,1.44,8.75.16,1.97.33,3.77.49,5.42.7,7.19,1.26,11.43.59,14.1Z"/>
      <path class="cls-25" d="M123.87,109.15c-.32,1.3-1,10.03-1.68,20.73-6.2.35-19.83,1.01-20.02-.07-.25-1.4.15-13.14.15-13.14l-6.02.28c.86-2.65,1.53-4.94,1.51-6.6-.02-2.34-1.4-21.47-2.38-34.79,2.82-1.86,6.42-2.81,10.99-2.39,0,0-1.3,22.58-.36,19.72.95-2.86,2.79-11.43,2.79-11.43l12.48-.57c.71,3.36,1.24,6.42,1.44,8.75.16,1.97.33,3.77.49,5.42.7,7.19,1.26,11.43.59,14.1Z"/>
      <path class="cls-11" d="M115.16,66.03c.15-.48-5.91-7.08-5.93-7.55-.01-.25,1.09-3.07,2.1-5.6,1.32-.33,2.23-.48,2.34-.29.38.71,8.23,26.44,9.11,37.03.16,1.97.33,3.77.49,5.42,0,0-11.17-25.12-10.71-26.08.47-.96,2.45-2.46,2.59-2.93Z"/>
      <path class="cls-25" d="M122.61,123.39c-.14,2.04-.28,4.22-.43,6.49-1.04,16.46-2.06,37.56-1.73,43.37.53,9.59-.12,11.73-.86,12.47s-14.67,3.49-18.08,3.64c-3.31.15-16.75-3.65-17.87-5.36,6.07,1.61,16.13,4.25,16.62,4.23.7-.03,15.76-4.48,15.76-4.48,0,0,.67-3.47,1.41-11.79.74-8.32,2.63-45.63,2.63-45.63.32-1.58,1.22-2.52,2.55-2.94Z"/>
      <path class="cls-37" d="M88.61,142.99s1.56,1.28,7.6,2.47c6.04,1.18,10.42,1.61,10.69,2.22s-2.04,6.77-2.92,7.43c-.88.67-9.35,1.16-9.81,1.18-.46.02-8.31-2.75-8.35-3.48-.04-.73-.56-10.09,2.78-9.82Z"/>
      <path class="cls-25" d="M107.02,149.76s-3.25,14.02-3.96,15.82c-.7,1.8-.92,2.13-2.75,2.21-1.83.08-14-1.96-12.93-1.18,1.08.78,15.78,3.66,16.59,2.47.82-1.18,3.47-21.16,3.04-19.32Z"/>
    </g>
    <g>
      <g>
        <path class="cls-16" d="M149.45,79.1l-2.48,18.74-2.09,15.83-1.41,10.64c-.07.55-.55.97-1.13,1l-37.46,1.72c-.74.03-1.34-.58-1.26-1.28l.48-4.09,4.87-41.09c.07-.56.54-.99,1.13-1.01l38.09-1.75c.75-.03,1.35.59,1.26,1.3Z"/>
        <path class="cls-33" d="M139.17,78.59l-.19,1.57c-.09.71-.73,1.25-1.51,1.29l-17.68.81c-.98.04-1.77-.71-1.67-1.59l.17-1.57c.08-.72.72-1.27,1.51-1.31l5.78-.26c-.08-1.48,1.18-2.75,2.81-2.82s3.03,1.07,3.11,2.55l6.01-.28c.98-.05,1.78.72,1.67,1.61Z"/>
        <path class="cls-36" d="M146.97,97.84l-2.09,15.83-40.78,7.98,4.87-41.09c.07-.56.54-.99,1.13-1.01l.97-.04-2.06,17.3s16.6,2.99,18.25,2.92c1.63-.07,9.4-1.36,9.64-1.39-.18.1-5.59,2.88-4.8,2.74.8-.14,13.08-3.14,13.08-3.14l1.8-.08Z"/>
      </g>
      <g>
        <g>
          <path class="cls-4" d="M125.69,102.4c.23-.01,7.33-3.8,8.23-4.06.9-.26,3.64-.38,3.23.5-.41.89-4.42,2.8-4.42,2.8,0,0,4.34.02,5.24-.24.9-.26,6.84-4.43,7.1-3.79s.13,2.38.13,2.38c0,0,1.6-.07,1.66,1.01.06,1.08-.35,1.97-.35,1.97,0,0,1.39.37,1.21,1.24-.18.88-.38,1.32-.38,1.32,0,0,1.16.38.98,1.26-.18.88-5.48,4.15-6.84,4.43-1.36.28-16.22.09-16.22.09l.42-8.9Z"/>
          <g>
            <path class="cls-21" d="M136.41,104.05c3.35-.29,6.47-1.52,9.03-3.57.25-.2-.03-.61-.28-.41-2.5,2-5.51,3.21-8.78,3.5-.33.03-.3.52.03.49h0Z"/>
            <path class="cls-21" d="M137.83,106.16c3.35.37,6.16-1.33,8.8-3.05.27-.18,0-.59-.28-.41-2.5,1.63-5.21,3.33-8.4,2.98-.33-.04-.44.44-.11.48h0Z"/>
            <path class="cls-21" d="M146.86,105.45c-2.13,1.04-4.27,2.06-6.65,2.46-.32.05-.3.54.03.49,2.48-.41,4.7-1.45,6.91-2.53.29-.14,0-.55-.28-.41h0Z"/>
          </g>
        </g>
        <path class="cls-34" d="M127.4,103.25c-.03,3.08-.48,8.58-.73,8.77-.33.25-7.82.67-12.65,1.13-4.83.46-21.82-.02-23.21-.27-1.39-.25-3.6-2.81-4.25-3.71-.65-.91-.77-6.61-.59-10.69.17-4.07,4.63-37.54,11.16-37.89,0,0,.54.06,1.36.29,0,0,0,0,0,0,2.81.78,8.93,3.5,7.95,12.26-1.27,11.32-2.86,22.89-3.13,24.23-.27,1.34.17,1.48.77,1.45s14.2,1.38,17.9,1.37c3.7-.01,4.92.17,5.31,1.09.1.23.13.97.12,1.97Z"/>
        <path class="cls-9" d="M127.4,103.25c-4.16-.98-25.57-3.63-26.51-3.7-1.04-.08-1.78.94-2.7.98-.92.04,1.95-2.18,2.46-3.35.51-1.17,4.21-21.36,4.15-27.3-.06-5.85-6.13-8.91-6.32-9,2.81.78,8.93,3.5,7.95,12.26-1.27,11.32-2.86,22.89-3.13,24.23-.27,1.34.17,1.48.77,1.45s14.2,1.38,17.9,1.37c3.7-.01,4.92.17,5.31,1.09.1.23.13.97.12,1.97Z"/>
      </g>
    </g>
  </g>
  <g>
    <path class="cls-15" d="M244.21,72.38l-4.31,2.55-7.26-10.42c-.56-.81-1.53-1.29-2.57-1.29h-14.96c-1.04,0-2,.48-2.57,1.29l-7.26,10.42-4.31-2.55,7.26-10.42c1.51-2.17,4.08-3.46,6.88-3.46h14.96c2.79,0,5.36,1.29,6.88,3.46l7.26,10.42Z"/>
    <rect class="cls-1" x="183.65" y="70.98" width="78.43" height="7.92" rx=".97" ry=".97"/>
    <path class="cls-11" d="M255.44,114.55h-65.14c-1.84,0-3.34-1.5-3.34-3.34v-32.31h71.82v32.31c0,1.84-1.5,3.34-3.34,3.34Z"/>
    <path class="cls-28" d="M186.95,78.9h71.82v32.31c0,1.84-1.5,3.34-3.34,3.34h-65.14c-1.84,0-3.34-1.5-3.34-3.34v-32.31h0Z"/>
    <path class="cls-12" d="M232.19,94.36v4.11c0,.34-.3.61-.66.61h-5.86v5.41c0,.34-.3.61-.66.61h-4.46c-.36,0-.66-.27-.66-.61v-5.41h-5.86c-.36,0-.66-.27-.66-.61v-4.11c0-.34.3-.61.66-.61h5.86v-5.41c0-.34.3-.61.66-.61h4.46c.36,0,.66.27.66.61v5.41h5.86c.36,0,.66.27.66.61Z"/>
    <rect class="cls-15" x="186.95" y="78.9" width="71.82" height="3.66"/>
  </g>
  <g>
    <rect class="cls-16" x="194.28" y="15.75" width="21.43" height="7.36" rx=".42" ry=".42"/>
    <path class="cls-19" d="M214.96,23.54v24.2c0,.24-.22.44-.49.44h-18.94c-.27,0-.49-.19-.49-.44v-24.2c0-.24.22-.44.49-.44h18.94c.27,0,.49.19.49.44Z"/>
    <rect class="cls-28" x="195.04" y="28.14" width="14.39" height="13.65"/>
    <rect class="cls-38" x="195.04" y="29.5" width="12.77" height="10.94"/>
    <g>
      <rect class="cls-36" x="196.12" y="15.75" width="1.12" height="7.36"/>
      <rect class="cls-36" x="198.92" y="15.75" width="1.12" height="7.36"/>
      <rect class="cls-36" x="201.71" y="15.75" width="1.12" height="7.36"/>
      <rect class="cls-36" x="204.5" y="15.75" width="1.12" height="7.36"/>
      <rect class="cls-36" x="207.3" y="15.75" width="1.12" height="7.36"/>
      <rect class="cls-36" x="210.09" y="15.75" width="1.12" height="7.36"/>
      <rect class="cls-36" x="212.88" y="15.75" width="1.12" height="7.36"/>
    </g>
    <path class="cls-28" d="M214.96,23.54v1.35h-19.91v-1.35c0-.24.22-.44.49-.44h18.94c.27,0,.49.19.49.44Z"/>
  </g>
  <g>
    <rect class="cls-1" x="225.26" y="15.75" width="21.43" height="7.36" rx=".42" ry=".42"/>
    <path class="cls-35" d="M245.93,23.54v24.2c0,.24-.22.44-.49.44h-18.94c-.27,0-.49-.19-.49-.44v-24.2c0-.24.22-.44.49-.44h18.94c.27,0,.49.19.49.44Z"/>
    <rect class="cls-24" x="226.02" y="28.14" width="14.39" height="13.65"/>
    <rect class="cls-12" x="226.02" y="29.5" width="12.77" height="10.94"/>
    <g>
      <rect class="cls-15" x="227.1" y="15.75" width="1.12" height="7.36"/>
      <rect class="cls-15" x="229.89" y="15.75" width="1.12" height="7.36"/>
      <rect class="cls-15" x="232.68" y="15.75" width="1.12" height="7.36"/>
      <rect class="cls-15" x="235.48" y="15.75" width="1.12" height="7.36"/>
      <rect class="cls-15" x="238.27" y="15.75" width="1.12" height="7.36"/>
      <rect class="cls-15" x="241.06" y="15.75" width="1.12" height="7.36"/>
      <rect class="cls-15" x="243.86" y="15.75" width="1.12" height="7.36"/>
    </g>
    <path class="cls-24" d="M245.93,23.54v1.35h-19.91v-1.35c0-.24.22-.44.49-.44h18.94c.27,0,.49.19.49.44Z"/>
  </g>
  <g>
    <g>
      <path class="cls-25" d="M279.06,30.16s-8.9,6.03-10.61.48l-3.68-12s-2.16-.77-2.6-2.52c-.33-1.33,1.1-2.76,2.51-3.46.44-.22.89-.37,1.28-.41,1.62-.19,4.11-1.06,5.52.48.83.92.6,2.04.32,2.9h0c-.19.59-.41,1.06-.32,1.26,0,.02.03.07.07.14.47.88,3.08,5.42,5.09,8.92,1.34,2.33,2.42,4.2,2.42,4.2Z"/>
      <path class="cls-6" d="M279.06,30.16s-8.9,6.03-10.61.48l-3.68-12s-2.16-.77-2.6-2.52c-.33-1.33,1.1-2.76,2.51-3.46-.75,1.12-1.18,2.29-.46,2.98,1.71,1.63,7.45.03,7.57,0-.19.59-.41,1.06-.32,1.26,0,.02.03.07.07.14-1.96.24-5.18.86-4.73,2.28.65,2.03,3.03,6.87,5.19,6.87.94,0,2.8-.11,4.62-.23,1.34,2.33,2.42,4.2,2.42,4.2Z"/>
    </g>
    <path class="cls-34" d="M308.69,31.19c-.84,5.73-2.66,10.82-6.36,14.52-3.87,3.87-9.8,6.23-18.82,6.23-16.55,0-23.47-9.03-25.19-20.75-.26-1.77,1.21-3.35,3.1-3.35h44.18c1.89,0,3.36,1.58,3.1,3.35Z"/>
    <path class="cls-9" d="M302.32,45.71c-3.87,3.87-9.8,6.23-18.82,6.23-16.55,0-23.47-9.03-25.19-20.75-.26-1.77,1.21-3.35,3.1-3.35h2.55c2.69,6.76,8.67,17.87,18.88,17.87h19.48Z"/>
    <path class="cls-11" d="M302.79,32.36c0,.47-.2.9-.53,1.21-.33.31-.78.5-1.28.5h-12.61c-1,0-1.81-.77-1.81-1.71,0-.47.2-.9.53-1.21.33-.31.78-.5,1.28-.5h12.61c1,0,1.81.77,1.81,1.71Z"/>
  </g>
  <g>
    <rect class="cls-34" x="280.3" y="70.96" width="86.8" height="46.61" rx="2.5" ry="2.5"/>
    <path class="cls-25" d="M367.1,101.5v13.3c0,1.53-1.37,2.77-3.07,2.77h-80.67c-1.69,0-3.07-1.24-3.07-2.77v-18.69c11.98,6.23,30.06,10.2,50.3,10.2,13.52,0,26.08-1.77,36.5-4.81Z"/>
    <rect class="cls-5" x="280.3" y="94.26" width="86.8" height="1.08"/>
    <g class="cls-20">
      <path class="cls-11" d="M288.38,83.27c0,2.94,2.63,5.32,5.88,5.32,1.32,0,2.54-.39,3.53-1.06l-8.23-7.44c-.74.89-1.18,1.99-1.18,3.19Z"/>
      <path class="cls-11" d="M294.26,77.96c-1.43,0-2.75.46-3.76,1.23l8.28,7.49c.85-.92,1.36-2.11,1.36-3.4,0-2.94-2.63-5.32-5.88-5.32Z"/>
    </g>
    <g class="cls-3">
      <path class="cls-11" d="M307.53,83.27c0,2.94,2.63,5.32,5.88,5.32,1.32,0,2.54-.39,3.53-1.06l-8.23-7.44c-.74.89-1.18,1.99-1.18,3.19Z"/>
      <path class="cls-11" d="M313.41,77.96c-1.43,0-2.75.46-3.76,1.23l8.28,7.49c.85-.92,1.36-2.11,1.36-3.4,0-2.94-2.63-5.32-5.88-5.32Z"/>
    </g>
    <g class="cls-30">
      <path class="cls-11" d="M326.68,83.27c0,2.94,2.63,5.32,5.88,5.32,1.32,0,2.54-.39,3.53-1.06l-8.23-7.44c-.74.89-1.18,1.99-1.18,3.19Z"/>
      <path class="cls-11" d="M332.56,77.96c-1.43,0-2.75.46-3.76,1.23l8.28,7.49c.85-.92,1.36-2.11,1.36-3.4,0-2.94-2.63-5.32-5.88-5.32Z"/>
    </g>
    <g class="cls-14">
      <path class="cls-11" d="M345.83,83.27c0,2.94,2.63,5.32,5.88,5.32,1.32,0,2.54-.39,3.53-1.06l-8.23-7.44c-.74.89-1.18,1.99-1.18,3.19Z"/>
      <path class="cls-11" d="M351.71,77.96c-1.43,0-2.75.46-3.76,1.23l8.28,7.49c.85-.92,1.36-2.11,1.36-3.4,0-2.94-2.63-5.32-5.88-5.32Z"/>
    </g>
    <g class="cls-10">
      <path class="cls-11" d="M294.26,100.99c-1.43,0-2.75.46-3.76,1.23l8.28,7.49c.85-.92,1.36-2.11,1.36-3.4,0-2.94-2.63-5.32-5.88-5.32Z"/>
      <path class="cls-11" d="M288.38,106.31c0,2.94,2.63,5.32,5.88,5.32,1.32,0,2.54-.39,3.53-1.06l-8.23-7.44c-.74.89-1.18,1.99-1.18,3.19Z"/>
    </g>
    <g class="cls-8">
      <path class="cls-11" d="M313.41,100.99c-1.43,0-2.75.46-3.76,1.23l8.28,7.49c.85-.92,1.36-2.11,1.36-3.4,0-2.94-2.63-5.32-5.88-5.32Z"/>
      <path class="cls-11" d="M307.53,106.31c0,2.94,2.63,5.32,5.88,5.32,1.32,0,2.54-.39,3.53-1.06l-8.23-7.44c-.74.89-1.18,1.99-1.18,3.19Z"/>
    </g>
    <g class="cls-17">
      <path class="cls-11" d="M332.56,100.99c-1.43,0-2.75.46-3.76,1.23l8.28,7.49c.85-.92,1.36-2.11,1.36-3.4,0-2.94-2.63-5.32-5.88-5.32Z"/>
      <path class="cls-11" d="M326.68,106.31c0,2.94,2.63,5.32,5.88,5.32,1.32,0,2.54-.39,3.53-1.06l-8.23-7.44c-.74.89-1.18,1.99-1.18,3.19Z"/>
    </g>
    <g class="cls-13">
      <path class="cls-11" d="M345.83,106.31c0,2.94,2.63,5.32,5.88,5.32,1.32,0,2.54-.39,3.53-1.06l-8.23-7.44c-.74.89-1.18,1.99-1.18,3.19Z"/>
      <path class="cls-11" d="M351.71,100.99c-1.43,0-2.75.46-3.76,1.23l8.28,7.49c.85-.92,1.36-2.11,1.36-3.4,0-2.94-2.63-5.32-5.88-5.32Z"/>
    </g>
  </g>
  <g>
    <rect class="cls-18" x="316.82" y="13.14" width="50.29" height="53.19" rx="1.81" ry="1.81"/>
    <rect class="cls-34" x="319.65" y="15.39" width="44.63" height="48.69" rx="1.81" ry="1.81"/>
    <path class="cls-16" d="M352.99,12.41v4.42c0,.28-.26.5-.58.5h-20.9c-.32,0-.58-.22-.58-.5v-4.42c0-.28.26-.5.58-.5h5.71c.33-1.75,2.32-3.09,4.74-3.09s4.42,1.34,4.74,3.09h5.71c.32,0,.58.22.58.5Z"/>
    <path class="cls-22" d="M349.39,25.88v2.83c0,.23-.22.42-.49.42h-4.32v3.72c0,.23-.22.42-.49.42h-3.28c-.27,0-.49-.19-.49-.42v-3.72h-4.32c-.27,0-.49-.19-.49-.42v-2.83c0-.23.22-.42.49-.42h4.32v-3.72c0-.23.22-.42.49-.42h3.28c.27,0,.49.19.49.42v3.72h4.32c.27,0,.49.19.49.42Z"/>
    <g>
      <rect class="cls-5" x="325.23" y="38.53" width="33.74" height="1.2" rx=".56" ry=".56"/>
      <rect class="cls-5" x="325.23" y="43.42" width="33.74" height="1.2" rx=".56" ry=".56"/>
      <rect class="cls-5" x="325.23" y="48.3" width="33.74" height="1.2" rx=".56" ry=".56"/>
      <rect class="cls-5" x="325.23" y="53.18" width="33.74" height="1.2" rx=".56" ry=".56"/>
      <rect class="cls-5" x="325.23" y="58.06" width="33.74" height="1.2" rx=".56" ry=".56"/>
    </g>
  </g>
  <g>
    <path class="cls-22" d="M257.06,52.85s5.84-1.34,8.27,0c2.42,1.34-2.26,1.56,0,2.38,2.26.82,3.44-1.11,5.31-.52,1.87.59-1.97,2.39.45,2.54,2.42.15,4.85-1.57,10.11,0,5.27,1.57,2.93,4.86-1.59,4.93s-9.61-.9-7.44,0c2.17.9,4.43,2.54,1.25,2.58-3.18.04-7.94-4.67-7.77-3.4.17,1.27,1.76,2.47,0,2.47s-6.85-2.77-9.11-5.76c-2.26-2.99-1.65-5.67.51-5.23Z"/>
    <path class="cls-27" d="M254.71,52.04c-.53.36-.5,1.08.06,1.4,2.46,1.42,8.49,4.65,13.82,5.61,6.9,1.23,11.43.45,11.43.45,0,0-7.31.34-13.2-1.68-4.77-1.64-9.39-4.68-10.96-5.77-.34-.24-.81-.24-1.16,0h0Z"/>
  </g>
  <g>
    <path class="cls-22" d="M183.46,20.15s-4.19,3.73-6.99,3.11c-2.8-.62,1.03-2.64-1.34-2.74-2.37-.1-2.28,2.57-4.2,2.59-1.92.02.32-3.48-1.81-2.74-2.13.74-3.22,3.63-8.56,3.8-5.34.18-5.21-4.48-1.43-6.26,3.78-1.78,8.64-2.58,6.29-2.8-2.34-.21-5.17-1.25-2.51-2.49,2.66-1.24,9.34,2.38,8.49.98-.86-1.4-2.87-2.17-1.39-2.83,1.48-.66,7.35.6,10.95,3.19,3.59,2.59,4.59,5.88,2.51,6.19Z"/>
    <path class="cls-27" d="M185.9,20.2c.25-.61-.18-1.43-.84-1.58-2.88-.7-9.8-2.15-14.85-1.24-6.53,1.18-9.92,3.78-9.92,3.78,0,0,5.99-3.13,12.11-3.03,4.96.08,10.57,1.84,12.52,2.5.42.14.82-.03.98-.43h0Z"/>
  </g>
  <g>
    <path class="cls-25" d="M299.17,18.99c0,1.22-.49,2.34-1.3,3.21-.28.3-.6.57-.94.8-.94.63-2.1,1-3.36,1-3.09,0-5.6-2.24-5.6-5.01,0-1.13.42-2.17,1.12-3,.26-.31.56-.59.89-.84.97-.72,2.22-1.16,3.59-1.16,3.09,0,5.6,2.24,5.6,5.01Z"/>
    <path class="cls-6" d="M297.87,22.2c-.28.3-.6.57-.94.8l-7.84-7.01c.26-.31.56-.59.89-.84l7.89,7.06Z"/>
  </g>
  <g>
    <path class="cls-35" d="M175.58,127.99c0,1.56-.59,2.99-1.56,4.1-.34.38-.72.73-1.13,1.02-1.12.81-2.52,1.28-4.03,1.28-3.71,0-6.72-2.87-6.72-6.4,0-1.44.5-2.77,1.34-3.84.31-.4.67-.76,1.07-1.08,1.17-.93,2.67-1.48,4.3-1.48,3.71,0,6.72,2.87,6.72,6.4Z"/>
    <path class="cls-24" d="M174.03,132.09c-.34.38-.72.73-1.13,1.02l-9.41-8.96c.31-.4.67-.76,1.07-1.08l9.47,9.02Z"/>
  </g>
  <g>
    <path class="cls-34" d="M316.82,129.33v173.4c0,1.83-1.54,3.31-3.44,3.31h-123.24c-1.9,0-3.44-1.48-3.44-3.31v-173.4c0-1.83,1.54-3.31,3.44-3.31h123.24c1.9,0,3.44,1.48,3.44,3.31Z"/>
    <path class="cls-25" d="M312.05,133.42v165.23c0,1.74-1.43,3.15-3.19,3.15h-114.22c-1.76,0-3.19-1.41-3.19-3.15v-165.23c0-1.74,1.43-3.15,3.19-3.15h114.22c1.76,0,3.19,1.41,3.19,3.15Z"/>
    <g>
      <rect class="cls-5" x="191.46" y="156.29" width="120.59" height="8.65"/>
      <rect class="cls-5" x="191.46" y="196.21" width="120.59" height="8.65"/>
      <rect class="cls-5" x="191.46" y="235.28" width="120.59" height="8.65"/>
    </g>
    <path class="cls-34" d="M312.05,242.45v56.2c0,1.74-1.43,3.15-3.19,3.15h-114.22c-1.76,0-3.19-1.41-3.19-3.15v-56.2h120.59Z"/>
    <g>
      <rect class="cls-25" x="193.81" y="245.16" width="56.06" height="53.68" rx="1.11" ry="1.11"/>
      <rect class="cls-25" x="253.41" y="245.16" width="56.06" height="53.68" rx="1.11" ry="1.11"/>
    </g>
    <g>
      <path class="cls-5" d="M249.87,284.79v12.84c0,.66-.58,1.2-1.3,1.2h-53.46c-.72,0-1.3-.54-1.3-1.2v-29.62c10.47,9.42,31.47,16.06,56.06,16.78Z"/>
      <path class="cls-5" d="M309.47,272v25.63c0,.66-.58,1.2-1.3,1.2h-53.46c-.72,0-1.3-.54-1.3-1.2v-12.78c.29,0,.59,0,.88,0,22.78,0,42.93-5.08,55.18-12.86Z"/>
    </g>
    <g>
      <rect class="cls-29" x="241.44" y="266.66" width="3.41" height="10.68" rx="1.46" ry="1.46"/>
      <rect class="cls-29" x="258.65" y="266.66" width="3.41" height="10.68" rx="1.46" ry="1.46"/>
    </g>
    <rect class="cls-34" x="191.46" y="164.94" width="120.59" height="3.38"/>
    <rect class="cls-34" x="191.46" y="204.86" width="120.59" height="3.38"/>
    <g>
      <rect class="cls-16" x="201.34" y="147" width="41.72" height="17.95" rx=".97" ry=".97"/>
      <path class="cls-11" d="M227.56,154.79v2.35c0,.19-.17.35-.38.35h-3.34v3.09c0,.19-.17.35-.38.35h-2.54c-.21,0-.38-.16-.38-.35v-3.09h-3.34c-.21,0-.38-.16-.38-.35v-2.35c0-.19.17-.35.38-.35h3.34v-3.09c0-.19.17-.35.38-.35h2.54c.21,0,.38.16.38.35v3.09h3.34c.21,0,.38.16.38.35Z"/>
      <rect class="cls-11" x="202.32" y="145.13" width="39.81" height="1.87"/>
    </g>
    <g>
      <rect class="cls-28" x="252.88" y="145.13" width="18.4" height="19.81" rx="1.25" ry="1.25"/>
      <rect class="cls-12" x="254.63" y="150.69" width="10.26" height="6.49"/>
      <path class="cls-18" d="M256.92,141.19h10.32c.54,0,.97.44.97.97v2.97h-12.27v-2.97c0-.54.44-.97.97-.97Z"/>
    </g>
    <g>
      <rect class="cls-22" x="279.39" y="145.13" width="18.4" height="19.81" rx="1.25" ry="1.25"/>
      <rect class="cls-12" x="281.14" y="150.69" width="10.26" height="6.49"/>
      <path class="cls-27" d="M283.43,141.19h10.32c.54,0,.97.44.97.97v2.97h-12.27v-2.97c0-.54.44-.97.97-.97Z"/>
    </g>
    <path class="cls-31" d="M218.01,190.97v13.89h-14.61v-13.89c0-2.41,1.36-4.52,3.41-5.72.93-.55,1.52-1.48,1.52-2.5v-8.67c0-.66.58-1.2,1.3-1.2h2.16c.72,0,1.3.54,1.3,1.2v8.7c0,1.01.58,1.92,1.5,2.46.47.27.9.59,1.29.95,1.32,1.22,2.14,2.92,2.14,4.78Z"/>
    <path class="cls-31" d="M238.83,190.97v13.89h-14.61v-13.89c0-2.41,1.36-4.52,3.41-5.72.93-.55,1.52-1.48,1.52-2.5v-8.67c0-.66.58-1.2,1.3-1.2h2.16c.72,0,1.3.54,1.3,1.2v8.7c0,1.01.58,1.92,1.5,2.46.47.27.9.59,1.29.95,1.32,1.22,2.14,2.92,2.14,4.78Z"/>
    <g>
      <path class="cls-34" d="M283.72,177.23v27.18c0,.25-.22.45-.49.45h-36.69c-.27,0-.49-.2-.49-.45v-27.18c0-.25.22-.45.49-.45h36.69c.27,0,.49.2.49.45Z"/>
      <g>
        <rect class="cls-16" x="267.73" y="176.78" width="3.33" height="28.08"/>
        <path class="cls-16" d="M283.72,177.23v27.18c0,.25-.22.45-.49.45h-8.82v-28.08h8.82c.27,0,.49.2.49.45Z"/>
      </g>
    </g>
    <g>
      <rect class="cls-11" x="290.77" y="180.75" width="14.13" height="5.47" rx=".42" ry=".42"/>
      <path class="cls-38" d="M291.6,186.22h12.48c.18,0,.32.15.32.32v17.99c0,.18-.14.32-.32.32h-12.49c-.18,0-.32-.15-.32-.32v-17.99c0-.18.15-.32.32-.32Z"/>
      <rect class="cls-19" x="291.27" y="189.96" width="9.49" height="10.15"/>
      <rect class="cls-11" x="291.27" y="190.97" width="8.42" height="8.13"/>
      <g>
        <rect class="cls-34" x="291.99" y="180.75" width=".74" height="5.47"/>
        <rect class="cls-34" x="293.83" y="180.75" width=".74" height="5.47"/>
        <rect class="cls-34" x="295.67" y="180.75" width=".74" height="5.47"/>
        <rect class="cls-34" x="297.51" y="180.75" width=".74" height="5.47"/>
        <rect class="cls-34" x="299.35" y="180.75" width=".74" height="5.47"/>
        <rect class="cls-34" x="301.19" y="180.75" width=".74" height="5.47"/>
        <rect class="cls-34" x="303.04" y="180.75" width=".74" height="5.47"/>
      </g>
      <path class="cls-19" d="M304.4,186.55v1.01h-13.13v-1.01c0-.18.14-.32.32-.32h12.49c.18,0,.32.14.32.32Z"/>
    </g>
    <g>
      <path class="cls-28" d="M300.76,217.78v23.76c0,.5-.44.9-.97.9h-59.98c-.54,0-.97-.4-.97-.9v-23.76c0-.5.44-.9.97-.9h59.98c.54,0,.97.4.97.9Z"/>
      <path class="cls-38" d="M300.76,217.78v2.86h-61.93v-2.86c0-.5.44-.9.97-.9h59.98c.54,0,.97.4.97.9Z"/>
      <ellipse class="cls-38" cx="252.43" cy="230.62" rx="7.15" ry="6.62"/>
      <g>
        <rect class="cls-12" x="266.06" y="224.9" width="27.92" height="1.7" rx=".79" ry=".79"/>
        <rect class="cls-12" x="266.06" y="230.83" width="18.83" height="1.7" rx=".79" ry=".79"/>
      </g>
    </g>
    <g>
      <g>
        <rect class="cls-16" x="200.99" y="215.75" width="11.01" height="6.05" rx=".42" ry=".42"/>
        <path class="cls-19" d="M211.61,222.15v19.88c0,.2-.11.36-.25.36h-9.73c-.14,0-.25-.16-.25-.36v-19.88c0-.2.11-.36.25-.36h9.73c.14,0,.25.16.25.36Z"/>
        <rect class="cls-28" x="201.38" y="225.93" width="7.4" height="11.22"/>
        <rect class="cls-38" x="201.38" y="227.04" width="6.56" height="8.99"/>
        <g>
          <rect class="cls-36" x="201.93" y="215.75" width=".57" height="6.05"/>
          <rect class="cls-36" x="203.37" y="215.75" width=".57" height="6.05"/>
          <rect class="cls-36" x="204.81" y="215.75" width=".57" height="6.05"/>
          <rect class="cls-36" x="206.24" y="215.75" width=".57" height="6.05"/>
          <rect class="cls-36" x="207.68" y="215.75" width=".57" height="6.05"/>
          <rect class="cls-36" x="209.11" y="215.75" width=".57" height="6.05"/>
          <rect class="cls-36" x="210.55" y="215.75" width=".57" height="6.05"/>
        </g>
        <path class="cls-28" d="M211.61,222.15v1.11h-10.23v-1.11c0-.2.11-.36.25-.36h9.73c.14,0,.25.16.25.36Z"/>
      </g>
      <g>
        <rect class="cls-1" x="218.36" y="215.75" width="11.01" height="6.05" rx=".42" ry=".42"/>
        <path class="cls-35" d="M228.98,222.15v19.88c0,.2-.11.36-.25.36h-9.73c-.14,0-.25-.16-.25-.36v-19.88c0-.2.11-.36.25-.36h9.73c.14,0,.25.16.25.36Z"/>
        <rect class="cls-24" x="218.75" y="225.93" width="7.4" height="11.22"/>
        <rect class="cls-12" x="218.75" y="227.04" width="6.56" height="8.99"/>
        <g>
          <rect class="cls-15" x="219.3" y="215.75" width=".57" height="6.05"/>
          <rect class="cls-15" x="220.74" y="215.75" width=".57" height="6.05"/>
          <rect class="cls-15" x="222.18" y="215.75" width=".57" height="6.05"/>
          <rect class="cls-15" x="223.61" y="215.75" width=".57" height="6.05"/>
          <rect class="cls-15" x="225.05" y="215.75" width=".57" height="6.05"/>
          <rect class="cls-15" x="226.48" y="215.75" width=".57" height="6.05"/>
          <rect class="cls-15" x="227.92" y="215.75" width=".57" height="6.05"/>
        </g>
        <path class="cls-24" d="M228.98,222.15v1.11h-10.23v-1.11c0-.2.11-.36.25-.36h9.73c.14,0,.25.16.25.36Z"/>
      </g>
    </g>
  </g>
  <g>
    <path class="cls-31" d="M363.23,156.64v19.66c0,1.2-1.09,2.18-2.44,2.18h-22.15c-1.34,0-2.44-.98-2.44-2.18v-19.66c0-3.79,2.51-7.11,6.3-8.99,1.72-.86,2.81-2.32,2.81-3.92v-13.63c0-1.04,1.08-1.89,2.4-1.89h4c1.33,0,2.4.85,2.4,1.89v13.67c0,1.58,1.07,3.02,2.77,3.86.86.43,1.66.93,2.38,1.49,2.44,1.92,3.96,4.58,3.96,7.52Z"/>
    <rect class="cls-22" x="342.18" y="126.65" width="15.13" height="9.49" rx=".56" ry=".56"/>
    <rect class="cls-11" x="339.57" y="158.08" width="17.74" height="11.05"/>
    <rect class="cls-38" x="341.14" y="159.32" width="14.61" height="8.56"/>
  </g>
  <g>
    <rect class="cls-5" x="331.17" y="187.55" width="12.89" height="10.67" rx=".42" ry=".42"/>
    <path class="cls-34" d="M343.6,198.96v33.28c0,2.76-2.68,5.01-5.99,5.01h0c-3.31,0-5.99-2.24-5.99-5.01v-33.28c0-.4.13-.73.29-.73h11.39c.16,0,.29.33.29.73Z"/>
    <g>
      <rect class="cls-29" x="332.28" y="187.55" width=".67" height="10.67"/>
      <rect class="cls-29" x="333.96" y="187.55" width=".67" height="10.67"/>
      <rect class="cls-29" x="335.64" y="187.55" width=".67" height="10.67"/>
      <rect class="cls-29" x="337.31" y="187.55" width=".67" height="10.67"/>
      <rect class="cls-29" x="338.99" y="187.55" width=".67" height="10.67"/>
      <rect class="cls-29" x="340.67" y="187.55" width=".67" height="10.67"/>
      <rect class="cls-29" x="342.35" y="187.55" width=".67" height="10.67"/>
    </g>
    <path class="cls-25" d="M343.6,198.86v1.96h-11.98v-1.96c0-.35.13-.63.29-.63h11.39c.16,0,.29.28.29.63Z"/>
    <path class="cls-28" d="M342.1,211.71v19.68c0,2.07-2.01,3.75-4.49,3.75s-4.49-1.68-4.49-3.75v-19.68h8.97Z"/>
  </g>
  <g>
    <rect class="cls-5" x="352.83" y="187.55" width="12.89" height="10.67" rx=".42" ry=".42"/>
    <path class="cls-34" d="M365.27,198.96v33.28c0,2.76-2.68,5.01-5.99,5.01h0c-3.31,0-5.99-2.24-5.99-5.01v-33.28c0-.4.13-.73.29-.73h11.39c.16,0,.29.33.29.73Z"/>
    <g>
      <rect class="cls-29" x="353.94" y="187.55" width=".67" height="10.67"/>
      <rect class="cls-29" x="355.62" y="187.55" width=".67" height="10.67"/>
      <rect class="cls-29" x="357.3" y="187.55" width=".67" height="10.67"/>
      <rect class="cls-29" x="358.98" y="187.55" width=".67" height="10.67"/>
      <rect class="cls-29" x="360.66" y="187.55" width=".67" height="10.67"/>
      <rect class="cls-29" x="362.34" y="187.55" width=".67" height="10.67"/>
      <rect class="cls-29" x="364.02" y="187.55" width=".67" height="10.67"/>
    </g>
    <path class="cls-25" d="M365.27,198.86v1.96h-11.98v-1.96c0-.35.13-.63.29-.63h11.39c.16,0,.29.28.29.63Z"/>
    <path class="cls-16" d="M363.76,211.71v19.68c0,2.07-2.01,3.75-4.49,3.75s-4.49-1.68-4.49-3.75v-19.68h8.97Z"/>
  </g>
  <g>
    <path class="cls-18" d="M173.86,214.97c0,.14-.03.28-.09.42l-2.43,5.24-1.22,2.64c-.45.97-2.05.97-2.5,0l-1.22-2.64-2.43-5.24c-.06-.13-.09-.27-.09-.42-.02-3.86-.37-58.46,0-63.58.38-5.3,5-4.85,5-4.85,0,0,4.61-.45,5,4.85.37,5.12.03,59.72,0,63.58Z"/>
    <path class="cls-29" d="M171.34,220.63l-1.22,2.64c-.45.97-2.05.97-2.5,0l-1.22-2.64h4.95Z"/>
    <rect class="cls-23" x="167.61" y="156.89" width="6.42" height="34.41" rx=".83" ry=".83"/>
    <rect class="cls-29" x="168.86" y="154.59" width="6.15" height="34.41" rx=".83" ry=".83"/>
  </g>
  <g>
    <path class="cls-34" d="M172.1,241.24v17.4c0,2.82-2.4,5.1-5.35,5.1s-5.35-2.28-5.35-5.1v-17.4c0-2.82,2.4-5.1,5.35-5.1,1.48,0,2.82.57,3.79,1.49.97.92,1.57,2.2,1.57,3.61Z"/>
    <path class="cls-28" d="M172.1,241.24v8.7h-10.71v-8.7c0-2.82,2.4-5.1,5.35-5.1,1.48,0,2.82.57,3.79,1.49.97.92,1.57,2.2,1.57,3.61Z"/>
  </g>
  <g>
    <path class="cls-16" d="M172.1,282.44v17.4c0,2.82-2.4,5.1-5.35,5.1s-5.35-2.28-5.35-5.1v-17.4c0-2.82,2.4-5.1,5.35-5.1,1.48,0,2.82.57,3.79,1.49.97.92,1.57,2.2,1.57,3.61Z"/>
    <path class="cls-34" d="M172.1,282.44v8.7h-10.71v-8.7c0-2.82,2.4-5.1,5.35-5.1,1.48,0,2.82.57,3.79,1.49.97.92,1.57,2.2,1.57,3.61Z"/>
  </g>
  <g>
    <path class="cls-32" d="M340.13,267.97s-9.57-1.11-11.54-6.73c-1.97-5.63,4.86-11.85,10.17-5.18s4.1,11.1,1.37,11.92Z"/>
    <path class="cls-32" d="M349.85,279s5.47-21.92,13.82-18.36c8.35,3.55-7.59,21.01-7.59,21.01l-6.23-2.65Z"/>
    <path class="cls-22" d="M354.16,271.16c-.7,5.85-1.45,10.49-1.45,10.49h-11.2s-6.38-27.38-2.28-34.78c1.23-2.23,3.14-3.42,5.21-3.74,4.83-.75,10.56,3.23,10.88,9.96.23,4.86-.44,12.1-1.16,18.07Z"/>
    <g>
      <path class="cls-22" d="M360.01,263.57c.29-1.31.4-2.63.31-3.97-.04-.57-.95-.57-.91,0,.08,1.26,0,2.5-.28,3.73-.12.56.75.8.88.24h0Z"/>
      <path class="cls-22" d="M361.68,262.98c.65-.84,1.09-1.79,1.31-2.82.12-.56-.76-.8-.88-.24-.2.96-.61,1.83-1.22,2.61-.35.46.44.9.79.45h0Z"/>
      <path class="cls-22" d="M362.75,266.27h3.34c.59,0,.59-.89,0-.89h-3.34c-.59,0-.59.89,0,.89h0Z"/>
      <path class="cls-22" d="M360.54,269.94c.91.4,1.82.8,2.72,1.2.53.23.99-.53.46-.77-.91-.4-1.82-.8-2.72-1.2-.53-.23-.99.53-.46.77h0Z"/>
      <path class="cls-22" d="M358.64,273.4c1.13.92,2.25,1.85,3.38,2.77.45.37,1.09-.26.64-.63-1.13-.92-2.25-1.85-3.38-2.77-.45-.37-1.09.26-.64.63h0Z"/>
    </g>
    <g>
      <path class="cls-22" d="M333.35,256.89c-.96-1.04-1.99-2.02-3.08-2.92-.44-.37-1.09.26-.64.63,1.1.91,2.12,1.88,3.08,2.92.39.43,1.04-.2.64-.63h0Z"/>
      <path class="cls-22" d="M330.57,258.86h-2.13c-.59,0-.59.89,0,.89h2.13c.59,0,.59-.89,0-.89h0Z"/>
      <path class="cls-22" d="M333.28,262.11c-.24.24-.53.39-.87.47-.57.13-.33.99.24.86.48-.11.92-.35,1.27-.7.41-.41-.23-1.04-.64-.63h0Z"/>
    </g>
    <path class="cls-32" d="M354.16,271.16c-.7,5.85-1.45,10.49-1.45,10.49h-11.2s-6.38-27.38-2.28-34.78c1.23-2.23,3.14-3.42,5.21-3.74-1.71,2.91-2.96,6.77-2.55,11.62.73,8.67,4.47,14.38,12.27,16.42Z"/>
    <g>
      <path class="cls-38" d="M336.77,247.63c1.21.99,2.43,1.97,3.64,2.96.45.36,1.1-.26.64-.63-1.21-.99-2.43-1.97-3.64-2.96-.45-.36-1.1.26-.64.63h0Z"/>
      <path class="cls-38" d="M340.42,252.95c.35.3.71.59,1.06.89.19.16.46.18.64,0,.16-.16.19-.47,0-.63-.35-.3-.71-.59-1.06-.89-.19-.16-.46-.18-.64,0-.16.16-.19.47,0,.63h0Z"/>
      <path class="cls-38" d="M347.62,244.86c-.76,1.04-1.51,2.08-2.27,3.12-.34.47.45.91.79.45.76-1.04,1.51-2.08,2.27-3.12.34-.47-.45-.91-.79-.45h0Z"/>
      <path class="cls-38" d="M349.9,246.91c-.24.58-.55,1.13-.91,1.65-.33.48.46.92.79.45.4-.59.73-1.21,1-1.86.22-.53-.66-.76-.88-.24h0Z"/>
      <path class="cls-38" d="M355.31,247c-.9,1.28-2,2.39-3.29,3.29-.47.33-.02,1.1.46.77,1.42-1,2.63-2.2,3.62-3.61.33-.47-.46-.92-.79-.45h0Z"/>
      <path class="cls-38" d="M348.43,255.21c.67.79,1.42,1.49,2.26,2.1.47.34.92-.43.46-.77-.77-.57-1.46-1.23-2.08-1.97-.37-.44-1.01.19-.64.63h0Z"/>
      <path class="cls-38" d="M342.71,258.43c-1.7.09-3.36-.2-4.91-.9-.53-.24-.99.53-.46.77,1.69.76,3.5,1.12,5.37,1.02.58-.03.59-.92,0-.89h0Z"/>
      <path class="cls-38" d="M339.89,255.25c-.76-.35-1.51-.7-2.27-1.05-.53-.24-.99.52-.46.77.76.35,1.51.7,2.27,1.05.53.24.99-.52.46-.77h0Z"/>
      <path class="cls-38" d="M351.76,253.46c.65.49,1.35.9,2.09,1.24.53.24.99-.53.46-.77-.75-.34-1.44-.75-2.09-1.24-.46-.35-.92.42-.46.77h0Z"/>
      <path class="cls-38" d="M344.05,252.33c.98-.26,1.86-.8,2.51-1.57.37-.44-.27-1.07-.64-.63-.56.66-1.26,1.11-2.1,1.34-.56.15-.33,1.01.24.86h0Z"/>
      <path class="cls-38" d="M348.81,259.03c1.73.37,3.45.75,5.18,1.12.57.12.82-.73.24-.86-1.73-.37-3.45-.75-5.18-1.12-.57-.12-.82.73-.24.86h0Z"/>
      <path class="cls-38" d="M350.52,263.26c1.12.54,2.16,1.19,3.13,1.96.45.36,1.1-.26.64-.63-1.02-.82-2.12-1.53-3.31-2.1-.52-.25-.99.51-.46.77h0Z"/>
      <path class="cls-38" d="M342.56,261.99c-1.27-.06-2.53-.04-3.8.07-.58.05-.58.94,0,.89,1.27-.11,2.53-.13,3.8-.07.59.03.58-.86,0-.89h0Z"/>
      <path class="cls-38" d="M342.78,266.34c-.26.43-.61.77-1.06,1.02-.51.28-.05,1.05.46.77.58-.32,1.05-.78,1.38-1.34.3-.5-.49-.94-.79-.45h0Z"/>
      <path class="cls-38" d="M346.05,262.15c-.16-.63-.63-1.11-1.25-1.34-.23-.08-.5.09-.56.31-.07.25.09.46.32.55.32.12.53.4.61.71.14.56,1.02.32.88-.24h0Z"/>
      <path class="cls-38" d="M339.52,264.49c-.96.06-1.92.11-2.88.17-.58.03-.59.92,0,.89.96-.06,1.92-.11,2.88-.17.58-.03.59-.92,0-.89h0Z"/>
      <path class="cls-38" d="M346.51,270.57c.41.52.72,1.12.93,1.74.18.54,1.06.31.88-.24-.26-.78-.65-1.49-1.16-2.14-.36-.45-1,.18-.64.63h0Z"/>
      <path class="cls-38" d="M347.74,266.55c1.5,1.46,2.92,2.99,4.26,4.59.37.44,1.01-.19.64-.63-1.34-1.6-2.76-3.13-4.26-4.59-.42-.4-1.06.22-.64.63h0Z"/>
      <path class="cls-38" d="M352.66,267.53c1.53.85,3.18,1.33,4.94,1.47.58.04.58-.85,0-.89-1.59-.12-3.09-.58-4.48-1.34-.51-.28-.97.48-.46.77h0Z"/>
      <path class="cls-38" d="M343.05,270.14c-.86.16-1.72.32-2.57.48-.58.11-.33.96.24.86.86-.16,1.72-.32,2.57-.48.58-.11.33-.96-.24-.86h0Z"/>
      <path class="cls-38" d="M345.17,274.72c-1.16.17-2.32.33-3.48.5-.58.08-.33.94.24.86,1.16-.17,2.32-.33,3.48-.5.58-.08.33-.94-.24-.86h0Z"/>
      <path class="cls-38" d="M348.68,275.65c1.14.28,2.17.77,3.08,1.5.45.36,1.1-.27.64-.63-1.03-.82-2.19-1.41-3.48-1.72-.57-.14-.81.72-.24.86h0Z"/>
    </g>
    <path class="cls-25" d="M364.47,281.25v23.38c0,.9-.66,1.63-1.47,1.63h-28.32c-.81,0-1.47-.73-1.47-1.63v-23.38c0-.9.66-1.63,1.47-1.63h28.32c.81,0,1.47.73,1.47,1.63Z"/>
    <path class="cls-5" d="M364.47,299.28v5.35c0,.9-.66,1.63-1.47,1.63h-28.32c-.81,0-1.47-.73-1.47-1.63v-23.38c0-.9.66-1.63,1.47-1.63h5.85c2.42,9.56,7.89,20.24,20.26,19.75,1.25-.05,2.48-.08,3.68-.09Z"/>
  </g>
</svg>