<?xml version="1.0" encoding="UTF-8"?>
<svg id="Layer_8" data-name="Layer 8" xmlns="http://www.w3.org/2000/svg" viewBox="0 0 100.28 100.28">
  <defs>
    <style>
      .cls-1 {
        fill: #d03d4e;
      }

      .cls-2 {
        fill: #ed6161;
      }

      .cls-3 {
        fill: #e1e1e1;
      }

      .cls-4 {
        fill: #cb364a;
      }

      .cls-5 {
        fill: #c7eefd;
      }

      .cls-6 {
        fill: #d54b5a;
      }

      .cls-7 {
        fill: #e1dede;
      }

      .cls-8 {
        fill: #c92e43;
      }

      .cls-9 {
        fill: #fec539;
      }

      .cls-10 {
        fill: #fee682;
      }

      .cls-11 {
        fill: #fefefe;
      }

      .cls-12 {
        fill: #cf394b;
      }

      .cls-13 {
        fill: #98e5fb;
      }
    </style>
  </defs>
  <path class="cls-8" d="M65.69,25.89l.38-.13,4.2,5.49,1.54-2.88c.14-.22.46-.32.69-.23.38.14,2.84,3.45,3.17,3.95,11.03,17.22,3.22,40.21-16.52,46.28-1.68.51-7.36,1.85-8.71,1.26-.15-.06-.28-.15-.42-.25h.25c.15,2.75.19,5.54.13,8.37l-.38.22.96-.4c34.72-1.05,50.47-43.64,24.93-67.19-.26-.63,1.64-4.12,1.93-4.23.08-.03.17-.02.27,0l.36-.18c5.72,5.65,11.44,11.32,17.17,17l.8,1.33c.14.08.27.17.39.28s.22.21.27.33c1.48,3.63,1.79,7.41,2.02,11.24v1.53c-.16.49-.16,1.04,0,1.53v2.48c-.16.36-.16.78,0,1.15v1.34c-1.14,23.29-21.54,43.72-44.89,44.7h-1.34c-.3-.15-.65-.15-.96,0h-2.87c-.43-.16-.91-.16-1.34,0-.5-.03-1.03.04-1.53,0-3.07-.08-6.11-.44-9.05-1.37l-.5-.54-1.22-.72c-4.48-4.58-8.95-9.17-13.41-13.75l.11-.43c-.06-.21.08-.39.29-.43,5.51-.82,10.89-1.73,16.14-2.74l-8.81-12.15-1.42,3.05c-.11.16-.27.2-.45.24-.71.17-3.78-4.26-4.2-5.07-1.74-3.37-3.05-5.94-3.85-9.73-3.91-18.63,10.56-36.74,29.62-36.84l.17-7.94.39-.22c.1-.11.3-.24.36-.18,5.25,5.02,10.55,10.35,15.3,15.84Z"/>
  <path class="cls-11" d="M99.12,54.16v44.7h-44.89c1.71-.4,3.47-.5,5.19-.82,19.57-3.72,35.02-19.18,38.84-38.71.34-1.71.42-3.47.86-5.16Z"/>
  <path class="cls-12" d="M99.12,49.19c-.32-.3-.32-1.23,0-1.53v1.53Z"/>
  <path class="cls-1" d="M49.07,98.86h-1.34c.24-.32,1.1-.32,1.34,0Z"/>
  <path class="cls-6" d="M99.12,52.82c-.31-.19-.31-.97,0-1.15v1.15Z"/>
  <path class="cls-6" d="M52.89,98.86h-.96c.13-.3.83-.3.96,0Z"/>
  <path class="cls-2" d="M96.45,34.29l-18.34-18.15-.41.27-16.44,2.49,4.61,6.57-.18.41-15.66-15.66-.91.39C14.55,11.26-1.59,54.28,24.14,77.61c.4.49-1.53,3.92-2,4.43l14.52,14.9c-16.42-4.77-29.55-18.05-33.8-34.68C-5.6,29.18,21.2-1.94,55.09,1.25c18.72,1.76,35.7,15.13,41.36,33.04Z"/>
  <path class="cls-9" d="M78.11,16.15c-.25.73-2.02,3.56-1.89,4.07,14.98,13.84,17.08,36.65,4.44,52.83-7.3,9.35-18.71,14.89-30.64,14.92v-8.6c19.4-.12,33.57-17.57,29.71-36.68-.9-4.46-3.3-9.39-6.22-12.88-.4-.47-1.03-.81-1.14-1.44-.27-.19-1.77,3.31-2,3.63l-4.68-6.11-5.16-7.26,17.34-2.63.23.14Z"/>
  <path class="cls-10" d="M50.02,10.23l-.18,8.51c-23.35.09-38.01,25.63-25.88,45.91.5.83,3.16,4.71,3.81,4.98.32.13.26-.12.33-.24.51-.87.95-2.18,1.44-3.15.07-.14,0-.39.23-.15l9.55,13.18-17.2,2.77c-.1-.04-.13-.09-.1-.19.17-.8,1.95-3.48,1.8-4.06-4.51-4.16-8.16-9.33-10.29-15.13C4.1,37.07,22.96,10.11,50.02,10.23Z"/>
  <path class="cls-13" d="M50.22,53.59c3.98-6.81,7.85-13.7,11.93-20.46l.3-.1,4.01,2.32-16.24,27.59c-.15-.02-.38-.07-.38-.18-.1-2.18-.23-5.7,0-7.78l.38-1.4Z"/>
  <polygon class="cls-3" points="70.46 53.4 70.46 57.69 65.4 71.54 60.53 71.54 65.31 57.98 58.24 57.98 58.24 53.4 70.46 53.4"/>
  <path class="cls-11" d="M33.98,46.52h4.78v3.44h-9.93v-2.77c1.59-2.03,3.34-3.98,4.74-6.15.76-1.18,2.73-3.82.43-4.56-1.94-.62-2.44,1.48-2.49,2.97l-3.44-.57c.21-2.25.92-4.39,3.08-5.42,4.69-2.25,9.19,2.82,6.7,7.27l-3.86,5.79Z"/>
  <path class="cls-11" d="M50.22,45.95c-.25,0-.51,0-.77,0v4.01s-3.63,0-3.63,0v-4.01h-6.11l.15-2.81,5.49-9.79h4.11v9.17c.25,0,.51,0,.76,0,.55-.17.45,3.01.38,3.16-.06.14-.23.22-.38.27Z"/>
  <path class="cls-5" d="M50.22,62.95c-1.68,3.33-3.68,6.55-5.63,9.74l-4.08-2.57c3.11-5.58,6.5-11.01,9.72-16.53v9.36Z"/>
  <path class="cls-7" d="M50.22,42.51c.3,0,1.5-.09,1.53.11v3.33c-.51,0-1.02-.01-1.53,0v-3.44Z"/>
  <polygon class="cls-4" points="45.82 42.51 44.29 42.41 44.44 41.8 45.82 39.26 45.82 42.51"/>
</svg>