<?xml version="1.0" encoding="UTF-8"?>
<svg xmlns="http://www.w3.org/2000/svg" xmlns:xlink="http://www.w3.org/1999/xlink" viewBox="0 0 632 560">
  <defs>
    <style>
      .cls-1 {
        fill: #5372e3;
      }

      .cls-2 {
        fill: #06a38b;
      }

      .cls-3 {
        clip-path: url(#clippath-34);
      }

      .cls-4 {
        clip-path: url(#clippath-38);
      }

      .cls-5 {
        clip-path: url(#clippath-21);
      }

      .cls-6 {
        clip-path: url(#clippath-6);
      }

      .cls-7 {
        clip-path: url(#clippath-7);
      }

      .cls-8 {
        clip-path: url(#clippath-17);
      }

      .cls-9 {
        clip-path: url(#clippath-31);
      }

      .cls-10 {
        clip-path: url(#clippath-15);
      }

      .cls-11 {
        clip-path: url(#clippath-33);
      }

      .cls-12 {
        clip-path: url(#clippath-18);
      }

      .cls-13 {
        clip-path: url(#clippath-4);
      }

      .cls-14 {
        clip-path: url(#clippath-22);
      }

      .cls-15 {
        clip-path: url(#clippath-23);
      }

      .cls-16 {
        fill: #ffe7cf;
      }

      .cls-17 {
        clip-path: url(#clippath-9);
      }

      .cls-18 {
        clip-path: url(#clippath-10);
      }

      .cls-19 {
        clip-path: url(#clippath-42);
      }

      .cls-20 {
        fill: #fff;
      }

      .cls-21 {
        clip-path: url(#clippath-43);
      }

      .cls-22 {
        clip-path: url(#clippath-25);
      }

      .cls-23 {
        clip-path: url(#clippath-27);
      }

      .cls-24 {
        clip-path: url(#clippath-11);
      }

      .cls-25, .cls-26 {
        fill: none;
      }

      .cls-27 {
        clip-path: url(#clippath-36);
      }

      .cls-28 {
        fill: #b20f0f;
      }

      .cls-29 {
        clip-path: url(#clippath-35);
      }

      .cls-30 {
        clip-path: url(#clippath-28);
      }

      .cls-31 {
        clip-path: url(#clippath-1);
      }

      .cls-32 {
        fill: #e7f4ff;
      }

      .cls-33 {
        clip-path: url(#clippath-45);
      }

      .cls-34 {
        isolation: isolate;
      }

      .cls-35 {
        clip-path: url(#clippath-40);
      }

      .cls-36 {
        clip-path: url(#clippath-5);
      }

      .cls-37 {
        clip-path: url(#clippath-20);
      }

      .cls-38 {
        clip-path: url(#clippath-8);
      }

      .cls-39 {
        clip-path: url(#clippath-41);
      }

      .cls-40 {
        clip-path: url(#clippath-3);
      }

      .cls-41 {
        clip-path: url(#clippath-26);
      }

      .cls-42 {
        clip-path: url(#clippath-12);
      }

      .cls-43 {
        clip-path: url(#clippath-14);
      }

      .cls-26 {
        opacity: .51;
        stroke: #2b1f5d;
        stroke-miterlimit: 10;
        stroke-width: .83px;
      }

      .cls-44, .cls-45, .cls-46, .cls-47 {
        mix-blend-mode: multiply;
      }

      .cls-44, .cls-46 {
        opacity: .45;
      }

      .cls-44, .cls-48 {
        fill: #ffb368;
      }

      .cls-49 {
        fill: #f26274;
      }

      .cls-50 {
        clip-path: url(#clippath-30);
      }

      .cls-51 {
        clip-path: url(#clippath-19);
      }

      .cls-52 {
        clip-path: url(#clippath-32);
      }

      .cls-53 {
        fill: #fcb5be;
      }

      .cls-54 {
        fill: #334d7b;
      }

      .cls-55 {
        fill: #ff627f;
      }

      .cls-56 {
        fill: #5fc697;
      }

      .cls-57 {
        clip-path: url(#clippath-39);
      }

      .cls-45 {
        fill: #2b1f5d;
        opacity: .14;
      }

      .cls-58, .cls-46 {
        fill: #ffc6a0;
      }

      .cls-59 {
        fill: #422707;
      }

      .cls-60 {
        clip-path: url(#clippath-16);
      }

      .cls-61 {
        clip-path: url(#clippath-2);
      }

      .cls-62 {
        fill: #8fa1ed;
      }

      .cls-63 {
        clip-path: url(#clippath-29);
      }

      .cls-64 {
        clip-path: url(#clippath-37);
      }

      .cls-65 {
        clip-path: url(#clippath-13);
      }

      .cls-66 {
        fill: #402911;
      }

      .cls-67 {
        fill: #fbabb4;
      }

      .cls-68 {
        clip-path: url(#clippath-24);
      }

      .cls-69 {
        clip-path: url(#clippath);
      }

      .cls-70 {
        clip-path: url(#clippath-44);
      }

      .cls-47 {
        opacity: .43;
      }
    </style>
    <clipPath id="clippath">
      <path class="cls-25" d="M365.74,428.24s-12.33,16.44-46.59,12.33l-2.74,80.84h-124.69v-69.88s-50.7,17.81-78.1-10.96c0,0,1.37-97.29,34.26-121.95,21.86-13.31,41.74-21.64,51.86-25.49,4.48-1.7,7.06-2.53,7.06-2.53,0,0,30.95,14.43,67.55-2.07,0,0,3.37,1.16,8.56,3.03,14.26,5.12,42.27,15.55,51.32,21.58,12.33,8.22,31.52,115.1,31.52,115.1Z"/>
    </clipPath>
    <clipPath id="clippath-1">
      <rect class="cls-25" x="352.03" y="283" width="41.11" height="41.11"/>
    </clipPath>
    <clipPath id="clippath-2">
      <rect class="cls-25" x="352.03" y="324.1" width="41.11" height="41.11"/>
    </clipPath>
    <clipPath id="clippath-3">
      <rect class="cls-25" x="352.03" y="365.21" width="41.11" height="41.11"/>
    </clipPath>
    <clipPath id="clippath-4">
      <rect class="cls-25" x="352.03" y="406.32" width="41.11" height="41.11"/>
    </clipPath>
    <clipPath id="clippath-5">
      <rect class="cls-25" x="352.03" y="447.43" width="41.11" height="41.11"/>
    </clipPath>
    <clipPath id="clippath-6">
      <rect class="cls-25" x="352.03" y="488.53" width="41.11" height="41.11"/>
    </clipPath>
    <clipPath id="clippath-7">
      <rect class="cls-25" x="310.93" y="283" width="41.11" height="41.11"/>
    </clipPath>
    <clipPath id="clippath-8">
      <rect class="cls-25" x="310.93" y="324.1" width="41.11" height="41.11"/>
    </clipPath>
    <clipPath id="clippath-9">
      <rect class="cls-25" x="310.93" y="365.21" width="41.11" height="41.11"/>
    </clipPath>
    <clipPath id="clippath-10">
      <rect class="cls-25" x="310.93" y="406.32" width="41.11" height="41.11"/>
    </clipPath>
    <clipPath id="clippath-11">
      <rect class="cls-25" x="310.93" y="447.43" width="41.11" height="41.11"/>
    </clipPath>
    <clipPath id="clippath-12">
      <rect class="cls-25" x="310.93" y="488.53" width="41.11" height="41.11"/>
    </clipPath>
    <clipPath id="clippath-13">
      <rect class="cls-25" x="269.82" y="283" width="41.11" height="41.11"/>
    </clipPath>
    <clipPath id="clippath-14">
      <rect class="cls-25" x="269.82" y="324.1" width="41.11" height="41.11"/>
    </clipPath>
    <clipPath id="clippath-15">
      <rect class="cls-25" x="269.82" y="365.21" width="41.11" height="41.11"/>
    </clipPath>
    <clipPath id="clippath-16">
      <rect class="cls-25" x="269.82" y="406.32" width="41.11" height="41.11"/>
    </clipPath>
    <clipPath id="clippath-17">
      <rect class="cls-25" x="269.82" y="447.43" width="41.11" height="41.11"/>
    </clipPath>
    <clipPath id="clippath-18">
      <rect class="cls-25" x="269.82" y="488.53" width="41.11" height="41.11"/>
    </clipPath>
    <clipPath id="clippath-19">
      <rect class="cls-25" x="228.71" y="283" width="41.11" height="41.11"/>
    </clipPath>
    <clipPath id="clippath-20">
      <rect class="cls-25" x="228.71" y="324.1" width="41.11" height="41.11"/>
    </clipPath>
    <clipPath id="clippath-21">
      <rect class="cls-25" x="228.71" y="365.21" width="41.11" height="41.11"/>
    </clipPath>
    <clipPath id="clippath-22">
      <rect class="cls-25" x="228.71" y="406.32" width="41.11" height="41.11"/>
    </clipPath>
    <clipPath id="clippath-23">
      <rect class="cls-25" x="228.71" y="447.43" width="41.11" height="41.11"/>
    </clipPath>
    <clipPath id="clippath-24">
      <rect class="cls-25" x="228.71" y="488.53" width="41.11" height="41.11"/>
    </clipPath>
    <clipPath id="clippath-25">
      <rect class="cls-25" x="187.61" y="283" width="41.11" height="41.11"/>
    </clipPath>
    <clipPath id="clippath-26">
      <rect class="cls-25" x="187.61" y="324.1" width="41.11" height="41.11"/>
    </clipPath>
    <clipPath id="clippath-27">
      <rect class="cls-25" x="187.61" y="365.21" width="41.11" height="41.11"/>
    </clipPath>
    <clipPath id="clippath-28">
      <rect class="cls-25" x="187.61" y="406.32" width="41.11" height="41.11"/>
    </clipPath>
    <clipPath id="clippath-29">
      <rect class="cls-25" x="187.61" y="447.43" width="41.11" height="41.11"/>
    </clipPath>
    <clipPath id="clippath-30">
      <rect class="cls-25" x="187.61" y="488.53" width="41.11" height="41.11"/>
    </clipPath>
    <clipPath id="clippath-31">
      <rect class="cls-25" x="146.5" y="283" width="41.11" height="41.11"/>
    </clipPath>
    <clipPath id="clippath-32">
      <rect class="cls-25" x="146.5" y="324.1" width="41.11" height="41.11"/>
    </clipPath>
    <clipPath id="clippath-33">
      <rect class="cls-25" x="146.5" y="365.21" width="41.11" height="41.11"/>
    </clipPath>
    <clipPath id="clippath-34">
      <rect class="cls-25" x="146.5" y="406.32" width="41.11" height="41.11"/>
    </clipPath>
    <clipPath id="clippath-35">
      <rect class="cls-25" x="146.5" y="447.43" width="41.11" height="41.11"/>
    </clipPath>
    <clipPath id="clippath-36">
      <rect class="cls-25" x="146.5" y="488.53" width="41.11" height="41.11"/>
    </clipPath>
    <clipPath id="clippath-37">
      <rect class="cls-25" x="105.39" y="283" width="41.11" height="41.11"/>
    </clipPath>
    <clipPath id="clippath-38">
      <rect class="cls-25" x="105.39" y="324.1" width="41.11" height="41.11"/>
    </clipPath>
    <clipPath id="clippath-39">
      <rect class="cls-25" x="105.39" y="365.21" width="41.11" height="41.11"/>
    </clipPath>
    <clipPath id="clippath-40">
      <rect class="cls-25" x="105.39" y="406.32" width="41.11" height="41.11"/>
    </clipPath>
    <clipPath id="clippath-41">
      <rect class="cls-25" x="105.39" y="447.43" width="41.11" height="41.11"/>
    </clipPath>
    <clipPath id="clippath-42">
      <rect class="cls-25" x="105.39" y="488.53" width="41.11" height="41.11"/>
    </clipPath>
    <clipPath id="clippath-43">
      <path class="cls-25" d="M37.09,498.33c-8.08-1.97-12.08-10.69-12.26-18.46-.18-7.77,2.26-15.47,1.76-23.23-1.01-15.55-13.62-29.31-12.79-44.87.53-9.86,6.49-19.3,5.07-29.08-.45-3.11-1.65-6.15-1.56-9.29.09-3.14,2.02-6.59,5.35-7.12,3.34-.53,6.29,2.04,8.21,4.64,4.83,6.51,7.11,14.61,6.33,22.48-.69,6.97-3.67,13.9-2.23,20.77,1.82,8.67,10.25,15.03,12.61,23.58,2.83,10.27-3.68,21.21-1.22,31.57.95,4.01,3.2,7.63,4.85,11.43,1.65,3.8,2.72,8.12,1.22,11.98-1.49,3.86-6.36,6.77-10.42,5.16l-4.95.43Z"/>
    </clipPath>
    <clipPath id="clippath-44">
      <path class="cls-25" d="M58.03,510.84c-6.93-4.59-7.73-14.15-5.26-21.53,2.47-7.37,7.38-13.79,9.54-21.26,4.33-14.97-2.86-32.19,3.21-46.55,3.84-9.1,12.66-15.95,14.65-25.63.63-3.08.54-6.34,1.69-9.26,1.15-2.92,4.14-5.51,7.44-4.88,3.32.64,5.22,4.06,6.15,7.15,2.33,7.76,1.73,16.16-1.68,23.3-3.01,6.32-8.17,11.83-9.15,18.78-1.23,8.77,4.54,17.61,3.86,26.46-.82,10.63-10.67,18.7-11.86,29.28-.46,4.09.42,8.26.68,12.4.26,4.14-.2,8.56-2.92,11.68-2.72,3.12-8.29,4.21-11.55,1.32l-4.8-1.27Z"/>
    </clipPath>
    <clipPath id="clippath-45">
      <path class="cls-25" d="M45.14,507.53c-7.59-3.09-9.94-12.29-8.7-20.01,1.24-7.72,5.05-14.99,5.97-22.74,1.85-15.53-8.05-30.93-4.4-46.22,2.32-9.69,9.91-18.17,10.3-28.06.12-3.14-.5-6.32.16-9.41.66-3.09,3.19-6.24,6.56-6.28,3.38-.05,5.82,2.91,7.24,5.75,3.56,7.12,4.33,15.47,2.13,23.15-1.95,6.8-6.15,13.24-5.98,20.24.21,8.84,7.35,16.32,8.11,25.12.92,10.57-7.5,20.47-6.96,31.07.21,4.1,1.75,8,2.69,12,.93,4,1.19,8.42-.98,12.03-2.18,3.61-7.5,5.8-11.2,3.63l-4.95-.27Z"/>
    </clipPath>
  </defs>
  <g class="cls-34">
    <g id="Layer_8" data-name="Layer 8">
      <g>
        <path class="cls-32" d="M101.44,519.19c-23.82-5.28-43.71-22.05-51.39-44.33-8.18-23.75-1.06-53.14,21.2-65.6-11.24.13-22.2-5.01-30.43-12.49-8.23-7.48-13.97-17.12-18.32-27.11-7.98-18.3-11.61-38.77-6.74-57.79,3.19-12.45,9.54-26.03,18.69-35.42,2.6-2.67,30.19-22.94,33.66-17.46-9.78-15.43-27.25-39.19-26.03-57.81,1.2-18.5,10.84-39.6,21.1-54.76,24.58-36.33,67-60.97,112.42-65.3,10.67-1.02,23.91.4,28.51,9.76-4.79-15.21-.36-32.02,9.19-44.74,9.55-12.71,23.72-21.69,38.79-27.93C296.38-.14,350.79,4.69,391.73,30.59c17.9,11.33,33.92,27.58,38.05,47.57,34.2-.04,68.29,17.02,88.04,44.06,19.75,27.04,24.58,63.27,12.48,93.57,38.46,3.2,74.13,29.98,86.6,65.03,12.47,35.05,1.01,76.29-27.84,100.13,1.01,12.02.09,20.99-1.3,32.92-2.2,18.91-7.69,37.99-20.06,52.74-12.93,15.41-33.11,25.02-53.98,25.69-20.86.67-42.06-7.6-56.69-22.12,5.68,30.81-17.66,63.3-49.62,69.09-30.9,5.6-61.46-11.01-88.32-27.38-8.43,25.1-36.44,41-64.21,41.33-34.95.42-67.85-21.31-80.59-52.67,2.1,5.17-31.67,16.85-34.86,17.55-10.78,2.37-22.01,3.66-33.02,2.01-1.68-.25-3.35-.56-5-.93Z"/>
        <g>
          <g>
            <path class="cls-58" d="M515.09,182.97l-61.66,67.14-34.26-57.55s11.81-11.81,15.63-26.05c1.56-5.74,1.81-11.89-.56-17.8l40.72-52.18,3.12-4s.21,3.93.9,10.17c1.04,9.43,3.19,24.13,7.43,38.48,5.44,18.5,14.31,36.41,28.67,41.79Z"/>
            <path class="cls-46" d="M486.43,141.18c-1.48,1.51-3.03,2.96-4.65,4.32-8.51,7.17-18.9,11.69-29.24,15.83-5.71,2.27-11.67,4.51-17.73,5.19,1.56-5.74,1.81-11.89-.56-17.8l40.72-52.18c1.3,2.07,2.64,4.12,4.03,6.17,1.04,9.43,3.19,24.13,7.43,38.48Z"/>
            <polygon class="cls-54" points="390.4 465.24 380.39 557.05 587.72 557.05 556.2 455.65 390.4 465.24"/>
            <polygon class="cls-20" points="430.14 202.15 491.8 204.89 457.54 248.74 430.14 202.15"/>
            <path class="cls-58" d="M389.06,35.43c36.97-11.44,75.81,8.66,80.18,47.62,4.37,38.96-14.58,76.47-36.45,79.36-21.87,2.89-49.57-28.86-61.23-60.6-11.66-31.74-5.83-59.16,17.49-66.37Z"/>
            <path class="cls-54" d="M424.15,186.76l32.03,55.13,45.07-69.53s72.77,33.91,83.74,61.31c10.96,27.4-19.18,126.06-19.18,126.06l4.11,76.73-13.7,19.18s-86.33,34.26-165.8,9.59l-12.33-17.81-1.37-90.44-79.47-45.22s39.74-91.81,64.4-106.88,62.52-18.13,62.52-18.13Z"/>
            <path class="cls-58" d="M550.72,362.47c1.37.08-8.22,42.48-20.55,43.85-12.33,1.37-137.02-31.52-137.02-31.52l15.07-32.89,83.58,8.22,6.85-8.22s28.78,19.18,52.07,20.55Z"/>
            <path d="M421.92,51.43s10.96,23.29,28.78,27.4l5.48,20.55,9.59-16.44v38.37l5.48-2.74,12.86,13.92s-3.27-20.77.84-27.62c4.11-6.85,16.44-56.18-16.44-75.36-32.89-19.18-76.73-17.81-98.66,12.33-4.76,6.55-15.25,6.27-23.33,5.67,1.11,2.7,3.26,4.9,5.76,6.4,2.51,1.5,5.36,2.35,8.23,2.85-9.11,7.66-15.65,20.01-15.25,31.91,2.7-5.31,7-9.8,12.19-12.73-1.74,4.08-.96,8.88,1.02,12.84s5.06,7.26,8.09,10.49c1.57-9.2,5.11-16.89,10.6-24.51,2.01,7.02,9.14,11.07,15.65,14.39-2.17-7.76-2.96-15.9-2.31-23.93,3.17,8.83,10.85,15.9,19.91,18.34-2.95-8.54.03-17.86,3.01-26.39,2.23,4.92,6.25,9,11.13,11.3-.79-5.57-1.02-11.22-.71-16.84"/>
            <path class="cls-58" d="M464.12,106.46c7.87-.8,15.52-3.59,22.06-8.04,3.18-2.17,6.24-4.94,7.27-8.65.54-1.93.48-3.97.3-5.97-.29-3.3-.89-6.61-2.32-9.6-2.33-4.87-6.86-8.62-12.06-10.08-5.2-1.46-10.98-.64-15.62,2.12-4.78,2.84-8.47,8.48-7.01,13.85,2.28,8.4,4.79,18.06,7.38,26.37Z"/>
            <path d="M442.83,20.03c-1.1.35-.97-3.71-.97-4.29,0-1.61.16-3.21.45-4.79.61-3.26,1.81-6.35,3.53-9.18.6-.99-.95-1.9-1.55-.91-2.19,3.62-3.56,7.65-4.04,11.85-.23,2.01-1.1,10.4,3.06,9.06,1.1-.35.63-2.09-.48-1.74h0Z"/>
            <path d="M443.73,18.96c1.72-4.23,4.84-7.86,8.72-10.26.98-.61.08-2.17-.91-1.55-4.31,2.66-7.64,6.65-9.54,11.33-.18.45.2.99.63,1.11.52.14.92-.18,1.11-.63h0Z"/>
            <path d="M372.21,40.06c-1.62,1.24-3.42,2.22-5.37,2.85-1.98.63-4.37,1.19-6.32.21-1.65-.83-3.15-2.34-4.18-3.85-1.11-1.62-1.81-3.51-1.32-5.47.28-1.12-1.46-1.6-1.74-.48-1.11,4.46,2.33,9.09,6.07,11.21,2.19,1.24,4.72,1,7.06.38s4.71-1.78,6.71-3.3c.91-.69.01-2.26-.91-1.55h0Z"/>
            <path d="M482.48,105.95c-.55,4.01-.27,8.09.94,11.97.88,2.82,2.55,7.31,6.22,7.08,1.15-.07,1.16-1.87,0-1.8-2.94.18-4.17-4.53-4.75-6.67-.9-3.28-1.13-6.73-.68-10.1.15-1.13-1.58-1.62-1.74-.48h0Z"/>
            <path d="M481.4,108.44c.95,4.93,5.07,9.07,10,10.04.48.09.97-.14,1.11-.63.12-.44-.15-1.01-.63-1.11-4.36-.86-7.9-4.42-8.74-8.79-.09-.48-.66-.75-1.11-.63-.5.14-.72.63-.63,1.11h0Z"/>
            <path d="M481.53,72.12c-2.46-1.18-5.27-2.2-8-1.3-2.26.75-4.06,2.52-5.18,4.59-1.28,2.38-1.71,5.06-2.11,7.7-.49,3.21-.97,6.42-1.45,9.63-.16,1.07,1.01,1.94,1.9,1.1,2.03-1.93,3-4.59,4.82-6.66,1.39-1.58,4.54-3.38,6.09-1,1.3,2,.23,4.84-.88,6.66-.68,1.11-1.53,2.1-2.52,2.95-.58.49-2.31,2.02-3.09,1.21-1.02-1.05-2.62.55-1.61,1.61,2.6,2.7,6.63-1.21,8.21-3.24,1.97-2.53,3.48-6.11,2.32-9.31-1.23-3.4-5-3.98-7.89-2.31-3.38,1.95-4.35,5.92-7.06,8.5l1.9,1.1c.4-2.63.79-5.25,1.19-7.88.36-2.37.62-4.8,1.38-7.08.65-1.98,1.81-3.88,3.66-4.94,2.33-1.34,4.94-.44,7.18.64,1.31.63,2.46-1.33,1.15-1.96h0Z"/>
            <ellipse cx="397.25" cy="102.81" rx="3.43" ry="5.48" transform="translate(1.82 212.4) rotate(-30)"/>
            <ellipse cx="423.29" cy="95.96" rx="3.43" ry="5.48" transform="translate(8.73 224.5) rotate(-30)"/>
            <path d="M406.91,89.95c0,7.36,0,14.73.43,22.08.22,3.66.55,7.32,1.04,10.95.19,1.43.17,3.29.96,4.56s2.19,1.23,3.51.93c3.72-.83,7.3-2.3,10.59-4.22,1.26-.74.12-2.7-1.15-1.96-1.69.99-3.45,1.87-5.28,2.56-.93.35-1.88.67-2.83.94-.38.11-.77.21-1.15.31-.31.08-1.24.46-1.54.33-.62-.27-.58-1.75-.66-2.32-.16-1.05-.29-2.11-.42-3.16-.24-2.02-.43-4.05-.59-6.08-.63-8.29-.63-16.61-.62-24.91,0-1.46-2.27-1.46-2.27,0h0Z"/>
            <path d="M420.39,136.79c9.59-3.73,19.34-9.55,22.6-19.94.44-1.4-1.75-2-2.19-.6-3,9.56-12.21,14.94-21.01,18.36-1.35.52-.76,2.72.6,2.19h0Z"/>
            <path d="M438.52,112.92c1.67,2.34,3.74,4.34,6.16,5.9.5.32,1.28.12,1.55-.41.3-.56.13-1.21-.41-1.55-.27-.18-.54-.36-.81-.55-.13-.09-.26-.19-.39-.29-.07-.05-.13-.1-.19-.15-.11-.08.13.1-.04-.03-.51-.41-1-.83-1.47-1.28s-.9-.9-1.32-1.37c-.21-.25-.42-.5-.62-.75-.06-.07-.13-.17-.03-.04-.05-.06-.1-.13-.15-.19-.11-.14-.21-.29-.32-.43-.34-.48-1.01-.76-1.55-.41-.48.31-.78,1.04-.41,1.55h0Z"/>
            <path d="M400.28,88.04c-4.68-2-10.19-1.99-14.87.03s-8.46,6.02-10.21,10.81c6.77-5.13,16.59-10.64,25.07-10.84Z"/>
            <path d="M410.87,83.77c2.2-4.59,6.35-8.21,11.2-9.78,4.85-1.56,10.33-1.05,14.8,1.4-8.47.61-19.48,2.93-26,8.38Z"/>
            <g>
              <polygon class="cls-49" points="414.29 184.34 453.39 292.81 512.67 172.98 502.58 169.2 454.02 284.61 424.38 181.81 414.29 184.34"/>
              <rect class="cls-20" x="431.05" y="290.94" width="44.78" height="27.32" rx="1.72" ry="1.72"/>
              <rect class="cls-54" x="448.5" y="293.98" width="9.87" height="2.28" rx=".75" ry=".75"/>
              <rect class="cls-62" x="434.84" y="297.39" width="10.62" height="14.42"/>
              <g>
                <path d="M450.88,300.99c6.51,0,13.01,0,19.52,0,1.22,0,1.22-1.89,0-1.89-6.51,0-13.01,0-19.52,0-1.22,0-1.22,1.89,0,1.89h0Z"/>
                <path d="M450.88,305.55c6.51,0,13.01,0,19.52,0,1.22,0,1.22-1.89,0-1.89-6.51,0-13.01,0-19.52,0-1.22,0-1.22,1.89,0,1.89h0Z"/>
                <path d="M450.88,310.1c6.51,0,13.01,0,19.52,0,1.22,0,1.22-1.89,0-1.89-6.51,0-13.01,0-19.52,0-1.22,0-1.22,1.89,0,1.89h0Z"/>
              </g>
            </g>
            <path d="M429.51,139.73c2.95-.81,5.75-2.16,8.2-3.99.49-.37.74-.98.41-1.55-.28-.48-1.06-.78-1.55-.41-2.33,1.75-4.87,3.01-7.65,3.77-1.41.38-.81,2.58.6,2.19h0Z"/>
            <path d="M446.63,208.64c8.54.97,17.11,1.51,25.7,1.63,1.46.02,1.46-2.25,0-2.27-8.59-.12-17.17-.67-25.7-1.63-1.45-.16-1.44,2.11,0,2.27h0Z"/>
            <path d="M515.35,262.92c-6.56,18.43-11.42,37.37-17.23,56.03-1.72,5.52-3.53,11-5.47,16.44-.49,1.38,1.7,1.97,2.19.6,6.56-18.43,11.42-37.37,17.23-56.03,1.72-5.52,3.53-11,5.47-16.44.49-1.38-1.7-1.97-2.19-.6h0Z"/>
            <path d="M499.91,342.47c14.7,10.3,31.82,17.1,49.58,19.73,4.96.73,9.97,1.16,14.98,1.25,1.46.03,1.46-2.24,0-2.27-17.59-.32-35.06-4.78-50.66-12.91-4.42-2.3-8.67-4.9-12.75-7.75-1.2-.84-2.34,1.13-1.15,1.96h0Z"/>
            <path d="M520.81,341.36c9.37,4.5,19.47,7.23,29.83,8.09,1.46.12,1.45-2.15,0-2.27-9.94-.82-19.69-3.47-28.68-7.78-1.31-.63-2.46,1.33-1.15,1.96h0Z"/>
            <path d="M511.46,258.2c-1.42,4.31-1.43,9.03-.06,13.36.44,1.39,2.63.79,2.19-.6-1.26-3.97-1.24-8.19.06-12.15.46-1.39-1.74-1.99-2.19-.6h0Z"/>
            <path d="M458.88,347.56c15.5,1.12,30.83,4.2,45.56,9.16,4.19,1.41,8.32,2.97,12.39,4.68,1.35.56,1.93-1.63.6-2.19-14.49-6.06-29.74-10.27-45.29-12.49-4.4-.63-8.83-1.1-13.26-1.42-1.46-.1-1.45,2.17,0,2.27h0Z"/>
            <path d="M390.37,467.34c21.67,4.97,43.86,7.67,66.09,8.04,22.23.37,44.5-1.58,66.32-5.82,6.07-1.18,12.11-2.52,18.1-4.08,5.36-1.4,10.65-3.2,15.04-6.69,1.14-.91-.47-2.51-1.61-1.61-3.96,3.15-8.85,4.74-13.67,6.01-5.14,1.36-10.34,2.53-15.55,3.59-10.74,2.19-21.6,3.82-32.51,4.88-21.67,2.1-43.56,1.98-65.21-.37-12.24-1.33-24.4-3.39-36.4-6.14-1.42-.33-2.03,1.86-.6,2.19h0Z"/>
            <path d="M420.84,459.17c13.98-1.97,27.44-6.41,40.44-11.8,13.19-5.46,25.97-11.83,38.97-17.71,7.34-3.32,14.75-6.47,22.33-9.2,1.36-.49.78-2.69-.6-2.19-13.37,4.82-26.22,10.93-39.08,16.95-12.91,6.04-25.9,12.02-39.5,16.36-7.57,2.42-15.3,4.3-23.17,5.4-1.44.2-.83,2.39.6,2.19h0Z"/>
            <path d="M460.78,458.2c13.94-2.99,27.63-7.14,40.87-12.43,3.76-1.5,7.49-3.1,11.18-4.77,1.33-.6.18-2.56-1.15-1.96-16.5,7.5-33.79,13.18-51.51,16.97-1.43.31-.82,2.49.6,2.19h0Z"/>
            <path d="M460.1,477.23c1.46,17.04,2.92,34.08,4.38,51.13.41,4.84.83,9.67,1.24,14.51.12,1.44,2.4,1.46,2.27,0-1.46-17.04-2.92-34.08-4.38-51.13-.41-4.84-.83-9.67-1.24-14.51-.12-1.44-2.4-1.46-2.27,0h0Z"/>
            <path d="M455.11,541.21c12.31,2.49,24.84,3.8,37.39,3.88,1.46,0,1.46-2.26,0-2.27-12.36-.08-24.68-1.34-36.79-3.8-1.43-.29-2.04,1.9-.6,2.19h0Z"/>
            <path d="M483.44,502.14c-.32,9.39-1.11,18.76-2.34,28.08-.19,1.44,2.08,1.43,2.27,0,1.24-9.32,2.02-18.69,2.34-28.08.05-1.46-2.22-1.46-2.27,0h0Z"/>
            <path d="M528.9,471.2c3.28,16.24,19.85,23.64,31.64,32.9,1.14.89,2.75-.7,1.61-1.61-11.4-8.95-27.88-16.19-31.05-31.9-.29-1.43-2.48-.83-2.19.6h0Z"/>
            <path d="M552.14,476.16c8.29,18.15,16.02,36.55,23.19,55.17,2.02,5.24,3.99,10.5,5.92,15.77.5,1.36,2.69.77,2.19-.6-6.89-18.85-14.36-37.5-22.38-55.9-2.27-5.21-4.59-10.41-6.95-15.58-.61-1.33-2.56-.17-1.96,1.15h0Z"/>
            <path d="M407.01,473.05c-5.04,13.62-11.97,26.49-20.52,38.23-.86,1.18,1.11,2.32,1.96,1.15,8.67-11.9,15.64-24.96,20.75-38.77.51-1.37-1.69-1.96-2.19-.6h0Z"/>
            <path d="M387.89,499.38c-1.6,16.34-3.21,32.69-4.81,49.03-.14,1.45,2.13,1.44,2.27,0,1.6-16.34,3.21-32.69,4.81-49.03.14-1.45-2.13-1.44-2.27,0h0Z"/>
            <path d="M422.21,478.81c-.38,2.88-.12,5.84.72,8.62.18.59.79.96,1.4.79s.97-.81.79-1.4c-.79-2.61-.99-5.32-.64-8.02.08-.61-.58-1.14-1.14-1.14-.68,0-1.05.52-1.14,1.14h0Z"/>
            <path d="M430.48,476.43c.05,4.1.56,8.2,1.53,12.19.34,1.42,2.53.82,2.19-.6-.92-3.8-1.4-7.67-1.45-11.58-.02-1.46-2.29-1.46-2.27,0h0Z"/>
            <path d="M443.62,476.93c-.59,3.83-.07,7.66,1.53,11.19.25.56,1.06.69,1.55.41.57-.34.66-.99.41-1.55-1.32-2.92-1.79-6.27-1.3-9.44.09-.61-.15-1.22-.79-1.4-.54-.15-1.3.18-1.4.79h0Z"/>
            <path d="M476.8,479.99c.11,3.04,1.04,6.03,2.72,8.58.34.51,1,.73,1.55.41.51-.3.75-1.04.41-1.55-1.47-2.24-2.31-4.81-2.41-7.44-.02-.61-.51-1.14-1.14-1.14-.6,0-1.16.52-1.14,1.14h0Z"/>
            <path d="M493.32,477.62c.26,3.21.93,6.37,2.05,9.39.21.57.77.97,1.4.79.55-.15,1.01-.82.79-1.4-1.04-2.83-1.72-5.78-1.97-8.79-.05-.61-.49-1.14-1.14-1.14-.58,0-1.19.52-1.14,1.14h0Z"/>
            <path d="M508.88,474.85c.01,3.97,1.32,7.91,3.74,11.05.37.48.98.74,1.55.41.48-.28.78-1.06.41-1.55-2.2-2.85-3.42-6.3-3.43-9.9,0-1.46-2.27-1.46-2.27,0h0Z"/>
            <path d="M518.71,474.06c.4,3.69,2.13,7.16,4.96,9.59.46.4,1.15.46,1.61,0,.41-.41.47-1.2,0-1.61-1.22-1.05-2.18-2.24-2.94-3.66-.7-1.31-1.2-2.89-1.35-4.32-.07-.61-.47-1.14-1.14-1.14-.56,0-1.2.52-1.14,1.14h0Z"/>
            <path d="M540.83,468.04c1.01,2.52,2.43,4.81,4.26,6.82.4.44,1.2.44,1.61,0,.43-.47.43-1.14,0-1.61-.21-.23-.41-.46-.61-.7-.09-.11-.18-.22-.28-.34-.05-.06-.09-.11-.14-.17-.12-.14.09.12-.02-.03-.37-.5-.72-1-1.05-1.52s-.61-1.03-.89-1.56c-.13-.26-.26-.52-.38-.78-.07-.15-.13-.3-.2-.45-.08-.17.06.14-.01-.03-.03-.08-.07-.17-.1-.25-.22-.55-.77-1-1.4-.79-.53.17-1.03.81-.79,1.4h0Z"/>
            <path d="M377.43,264.17c-2.22,23.14-2.33,46.46-.29,69.62.57,6.5,1.32,12.97,2.22,19.43.2,1.44,2.39.83,2.19-.6-3.18-22.84-4.25-45.98-3.22-69.02.29-6.49.75-12.96,1.37-19.43.14-1.45-2.13-1.44-2.27,0h0Z"/>
            <path d="M372.09,265.2c1.56,4.04,3.34,7.99,5.33,11.83.67,1.3,2.63.15,1.96-1.15-1.9-3.67-3.61-7.43-5.11-11.29-.22-.57-.76-.97-1.4-.79-.55.15-1.02.82-.79,1.4h0Z"/>
          </g>
          <g>
            <path class="cls-66" d="M177.79,207.15c-9.36.95-18.55,4.82-25.46,11.29-3.16,2.96-5.89,6.77-6.42,11.16-.53,4.45,1.68,8.5,4.76,11.56,3.66,3.62,8.87,6.97,14.23,6.31,1.43-.18,1.45-2.45,0-2.27-4.35.53-8.41-1.9-11.57-4.67-2.93-2.57-5.42-5.99-5.22-10.06s2.86-7.6,5.7-10.29c3-2.85,6.55-5.15,10.28-6.92,4.3-2.05,8.97-3.34,13.7-3.82,1.44-.15,1.45-2.42,0-2.27h0Z"/>
            <path class="cls-66" d="M162.27,237.34c-4.95,2.28-7.11,9.06-6.43,14.14.79,5.89,6.26,9.51,12.02,8.78,3.1-.4,6.01-1.93,8.01-4.35.93-1.12-.67-2.73-1.61-1.61-3.63,4.38-11.69,5.58-15.06.15-1.55-2.5-1.46-5.67-.7-8.42s2.21-5.48,4.91-6.73c1.33-.61.17-2.57-1.15-1.96h0Z"/>
            <path class="cls-66" d="M287.05,205.56c7.51.73,16.4,3.28,19.55,10.97,2.66,6.5-.97,13.94-6.5,17.64-1.21.81-.07,2.78,1.15,1.96,4.99-3.33,8.57-9.07,8.51-15.17-.06-6.54-4.69-11.92-10.39-14.63-3.87-1.84-8.08-2.63-12.31-3.04-1.45-.14-1.44,2.13,0,2.27h0Z"/>
            <path class="cls-66" d="M300.18,229.12c4.75,2.63,8.95,7.09,9.72,12.66.68,4.96-1.75,10.31-6.42,12.37-1.33.59-.18,2.55,1.15,1.96,5.38-2.38,8.23-8.65,7.55-14.33-.76-6.38-5.38-11.6-10.85-14.62-1.28-.71-2.43,1.25-1.15,1.96h0Z"/>
            <path class="cls-66" d="M287.34,267.62c-.33,2.78.04,5.82,1.64,8.18,1.47,2.17,3.82,3.68,6.48,3.78,1.46.05,1.46-2.22,0-2.27-1.94-.07-3.69-1.31-4.69-2.93-1.25-2.01-1.43-4.45-1.15-6.76.07-.61-.57-1.14-1.14-1.14-.67,0-1.06.52-1.14,1.14h0Z"/>
            <path class="cls-59" d="M188.43,186.76c-3.74,8.45-7.65,17.14-14.33,23.53-4.49,4.29-10.05,7.34-14.5,11.67-2.33,2.27-4.37,4.94-5.34,8.04-.87,2.76-.84,5.76-.21,8.59,1.7,7.6,7.92,13.94,15.41,16.07-2.38,4.61-1.6,10.65,1.87,14.51s9.39,5.28,14.23,3.41c2.03,4.35,6.1,7.7,10.76,8.85,4.66,1.15,9.83.07,13.64-2.85,1.64,3.84,5.9,6.39,10.06,6s7.88-3.67,8.78-7.75c9.73,1.39,21.88,1.77,31.65.72,3.78,3.15,11.52,5.17,16.27,3.87,4.74-1.31,8.75-5.04,10.39-9.68,3.69.92,7.81-.17,10.56-2.79s4.05-6.68,3.32-10.41c2.66.44,5.37-1.11,6.87-3.35,1.5-2.24,1.95-5.03,1.88-7.72-.12-5.02-2.52-10.57-7.33-12.03,4.3-2.58,5.18-8.82,3.1-13.39s-6.32-7.73-10.62-10.32c-.9-.54-1.83-1.08-2.54-1.87-1.31-1.46-2-3.85-3.94-4.13-2.12-2.86-5.64-4.48-8.72-6.27-1.74-1.01-3.7-1.92-4.69-3.67l-86.58-9.02Z"/>
            <path class="cls-48" d="M279.41,303.55c-46.59,27.4-79.47,0-79.47,0,9.93-4.34,14.81-15.46,17.17-26.3,2.84-13.07,2.01-25.77,2.01-25.77l47.96,8.22c-1.1,7.32-.73,13.85.4,19.5,3.1,15.51,11.93,24.35,11.93,24.35Z"/>
            <path class="cls-44" d="M267.48,279.2c-3.59,1.27-7.36,2.14-11.1,2.81-8.65,1.58-17.61,2.27-26.21.47-4.6-.96-9.1-2.7-13.06-5.22,2.84-13.07,2.01-25.77,2.01-25.77l47.96,8.22c-1.1,7.32-.73,13.85.4,19.5Z"/>
            <path class="cls-48" d="M350.66,429.61s8.22,45.22,4.11,58.92c-4.11,13.7-39.74,23.29-39.74,23.29l1.37-82.21h34.26Z"/>
            <path class="cls-16" d="M365.74,428.24s-12.33,16.44-46.59,12.33l-2.74,80.84h-124.69v-69.88s-50.7,17.81-78.1-10.96c0,0,1.37-97.29,34.26-121.95,21.86-13.31,41.74-21.64,51.86-25.49,4.48-1.7,7.06-2.53,7.06-2.53,0,0,30.95,14.43,67.55-2.07,0,0,3.37,1.16,8.56,3.03,14.26,5.12,42.27,15.55,51.32,21.58,12.33,8.22,31.52,115.1,31.52,115.1Z"/>
            <g class="cls-69">
              <g class="cls-31">
                <circle class="cls-67" cx="382.87" cy="324.1" r="3.43"/>
                <circle class="cls-67" cx="362.31" cy="324.1" r="3.43"/>
                <circle class="cls-67" cx="393.14" cy="303.55" r="3.43"/>
                <circle class="cls-67" cx="372.59" cy="303.55" r="3.43"/>
                <circle class="cls-67" cx="352.03" cy="303.55" r="3.43"/>
                <circle class="cls-67" cx="382.87" cy="283" r="3.43"/>
                <circle class="cls-67" cx="362.31" cy="283" r="3.43"/>
              </g>
              <g class="cls-61">
                <circle class="cls-67" cx="382.87" cy="365.21" r="3.43"/>
                <circle class="cls-67" cx="362.31" cy="365.21" r="3.43"/>
                <circle class="cls-67" cx="393.14" cy="344.66" r="3.43"/>
                <circle class="cls-67" cx="372.59" cy="344.66" r="3.43"/>
                <circle class="cls-67" cx="352.03" cy="344.66" r="3.43"/>
                <circle class="cls-67" cx="382.87" cy="324.1" r="3.43"/>
                <circle class="cls-67" cx="362.31" cy="324.1" r="3.43"/>
              </g>
              <g class="cls-40">
                <circle class="cls-67" cx="382.87" cy="406.32" r="3.43"/>
                <circle class="cls-67" cx="362.31" cy="406.32" r="3.43"/>
                <circle class="cls-67" cx="393.14" cy="385.77" r="3.43"/>
                <circle class="cls-67" cx="372.59" cy="385.77" r="3.43"/>
                <circle class="cls-67" cx="352.03" cy="385.77" r="3.43"/>
                <circle class="cls-67" cx="382.87" cy="365.21" r="3.43"/>
                <circle class="cls-67" cx="362.31" cy="365.21" r="3.43"/>
              </g>
              <g class="cls-13">
                <circle class="cls-67" cx="382.87" cy="447.43" r="3.43"/>
                <circle class="cls-67" cx="362.31" cy="447.43" r="3.43"/>
                <circle class="cls-67" cx="393.14" cy="426.87" r="3.43"/>
                <circle class="cls-67" cx="372.59" cy="426.87" r="3.43"/>
                <circle class="cls-67" cx="352.03" cy="426.87" r="3.43"/>
                <circle class="cls-67" cx="382.87" cy="406.32" r="3.43"/>
                <circle class="cls-67" cx="362.31" cy="406.32" r="3.43"/>
              </g>
              <g class="cls-36">
                <circle class="cls-67" cx="382.87" cy="488.53" r="3.43"/>
                <circle class="cls-67" cx="362.31" cy="488.53" r="3.43"/>
                <circle class="cls-67" cx="393.14" cy="467.98" r="3.43"/>
                <circle class="cls-67" cx="372.59" cy="467.98" r="3.43"/>
                <circle class="cls-67" cx="352.03" cy="467.98" r="3.43"/>
                <circle class="cls-67" cx="382.87" cy="447.43" r="3.43"/>
                <circle class="cls-67" cx="362.31" cy="447.43" r="3.43"/>
              </g>
              <g class="cls-6">
                <circle class="cls-67" cx="382.87" cy="529.64" r="3.43"/>
                <circle class="cls-67" cx="362.31" cy="529.64" r="3.43"/>
                <circle class="cls-67" cx="393.14" cy="509.09" r="3.43"/>
                <circle class="cls-67" cx="372.59" cy="509.09" r="3.43"/>
                <circle class="cls-67" cx="352.03" cy="509.09" r="3.43"/>
                <circle class="cls-67" cx="382.87" cy="488.53" r="3.43"/>
                <circle class="cls-67" cx="362.31" cy="488.53" r="3.43"/>
              </g>
              <g class="cls-7">
                <circle class="cls-67" cx="341.76" cy="324.1" r="3.43"/>
                <circle class="cls-67" cx="321.2" cy="324.1" r="3.43"/>
                <circle class="cls-67" cx="352.03" cy="303.55" r="3.43"/>
                <circle class="cls-67" cx="331.48" cy="303.55" r="3.43"/>
                <circle class="cls-67" cx="310.93" cy="303.55" r="3.43"/>
                <circle class="cls-67" cx="341.76" cy="283" r="3.43"/>
                <circle class="cls-67" cx="321.2" cy="283" r="3.43"/>
              </g>
              <g class="cls-38">
                <circle class="cls-67" cx="341.76" cy="365.21" r="3.43"/>
                <circle class="cls-67" cx="321.2" cy="365.21" r="3.43"/>
                <circle class="cls-67" cx="352.03" cy="344.66" r="3.43"/>
                <circle class="cls-67" cx="331.48" cy="344.66" r="3.43"/>
                <circle class="cls-67" cx="310.93" cy="344.66" r="3.43"/>
                <circle class="cls-67" cx="341.76" cy="324.1" r="3.43"/>
                <circle class="cls-67" cx="321.2" cy="324.1" r="3.43"/>
              </g>
              <g class="cls-17">
                <circle class="cls-67" cx="341.76" cy="406.32" r="3.43"/>
                <circle class="cls-67" cx="321.2" cy="406.32" r="3.43"/>
                <circle class="cls-67" cx="352.03" cy="385.77" r="3.43"/>
                <circle class="cls-67" cx="331.48" cy="385.77" r="3.43"/>
                <circle class="cls-67" cx="310.93" cy="385.77" r="3.43"/>
                <circle class="cls-67" cx="341.76" cy="365.21" r="3.43"/>
                <circle class="cls-67" cx="321.2" cy="365.21" r="3.43"/>
              </g>
              <g class="cls-18">
                <circle class="cls-67" cx="341.76" cy="447.43" r="3.43"/>
                <circle class="cls-67" cx="321.2" cy="447.43" r="3.43"/>
                <circle class="cls-67" cx="352.03" cy="426.87" r="3.43"/>
                <circle class="cls-67" cx="331.48" cy="426.87" r="3.43"/>
                <circle class="cls-67" cx="310.93" cy="426.87" r="3.43"/>
                <circle class="cls-67" cx="341.76" cy="406.32" r="3.43"/>
                <circle class="cls-67" cx="321.2" cy="406.32" r="3.43"/>
              </g>
              <g class="cls-24">
                <circle class="cls-67" cx="341.76" cy="488.53" r="3.43"/>
                <circle class="cls-67" cx="321.2" cy="488.53" r="3.43"/>
                <circle class="cls-67" cx="352.03" cy="467.98" r="3.43"/>
                <circle class="cls-67" cx="331.48" cy="467.98" r="3.43"/>
                <circle class="cls-67" cx="310.93" cy="467.98" r="3.43"/>
                <circle class="cls-67" cx="341.76" cy="447.43" r="3.43"/>
                <circle class="cls-67" cx="321.2" cy="447.43" r="3.43"/>
              </g>
              <g class="cls-42">
                <circle class="cls-67" cx="341.76" cy="529.64" r="3.43"/>
                <circle class="cls-67" cx="321.2" cy="529.64" r="3.43"/>
                <circle class="cls-67" cx="352.03" cy="509.09" r="3.43"/>
                <circle class="cls-67" cx="331.48" cy="509.09" r="3.43"/>
                <circle class="cls-67" cx="310.93" cy="509.09" r="3.43"/>
                <circle class="cls-67" cx="341.76" cy="488.53" r="3.43"/>
                <circle class="cls-67" cx="321.2" cy="488.53" r="3.43"/>
              </g>
              <g class="cls-65">
                <circle class="cls-67" cx="300.65" cy="324.1" r="3.43"/>
                <circle class="cls-67" cx="280.1" cy="324.1" r="3.43"/>
                <circle class="cls-67" cx="310.93" cy="303.55" r="3.43"/>
                <circle class="cls-67" cx="290.37" cy="303.55" r="3.43"/>
                <circle class="cls-67" cx="269.82" cy="303.55" r="3.43"/>
                <circle class="cls-67" cx="300.65" cy="283" r="3.43"/>
                <circle class="cls-67" cx="280.1" cy="283" r="3.43"/>
              </g>
              <g class="cls-43">
                <circle class="cls-67" cx="300.65" cy="365.21" r="3.43"/>
                <circle class="cls-67" cx="280.1" cy="365.21" r="3.43"/>
                <circle class="cls-67" cx="310.93" cy="344.66" r="3.43"/>
                <circle class="cls-67" cx="290.37" cy="344.66" r="3.43"/>
                <circle class="cls-67" cx="269.82" cy="344.66" r="3.43"/>
                <circle class="cls-67" cx="300.65" cy="324.1" r="3.43"/>
                <circle class="cls-67" cx="280.1" cy="324.1" r="3.43"/>
              </g>
              <g class="cls-10">
                <circle class="cls-67" cx="300.65" cy="406.32" r="3.43"/>
                <circle class="cls-67" cx="280.1" cy="406.32" r="3.43"/>
                <circle class="cls-67" cx="310.93" cy="385.77" r="3.43"/>
                <circle class="cls-67" cx="290.37" cy="385.77" r="3.43"/>
                <circle class="cls-67" cx="269.82" cy="385.77" r="3.43"/>
                <circle class="cls-67" cx="300.65" cy="365.21" r="3.43"/>
                <circle class="cls-67" cx="280.1" cy="365.21" r="3.43"/>
              </g>
              <g class="cls-60">
                <circle class="cls-67" cx="300.65" cy="447.43" r="3.43"/>
                <circle class="cls-67" cx="280.1" cy="447.43" r="3.43"/>
                <circle class="cls-67" cx="310.93" cy="426.87" r="3.43"/>
                <circle class="cls-67" cx="290.37" cy="426.87" r="3.43"/>
                <circle class="cls-67" cx="269.82" cy="426.87" r="3.43"/>
                <circle class="cls-67" cx="300.65" cy="406.32" r="3.43"/>
                <circle class="cls-67" cx="280.1" cy="406.32" r="3.43"/>
              </g>
              <g class="cls-8">
                <circle class="cls-67" cx="300.65" cy="488.53" r="3.43"/>
                <circle class="cls-67" cx="280.1" cy="488.53" r="3.43"/>
                <circle class="cls-67" cx="310.93" cy="467.98" r="3.43"/>
                <circle class="cls-67" cx="290.37" cy="467.98" r="3.43"/>
                <circle class="cls-67" cx="269.82" cy="467.98" r="3.43"/>
                <circle class="cls-67" cx="300.65" cy="447.43" r="3.43"/>
                <circle class="cls-67" cx="280.1" cy="447.43" r="3.43"/>
              </g>
              <g class="cls-12">
                <circle class="cls-67" cx="300.65" cy="529.64" r="3.43"/>
                <circle class="cls-67" cx="280.1" cy="529.64" r="3.43"/>
                <circle class="cls-67" cx="310.93" cy="509.09" r="3.43"/>
                <circle class="cls-67" cx="290.37" cy="509.09" r="3.43"/>
                <circle class="cls-67" cx="269.82" cy="509.09" r="3.43"/>
                <circle class="cls-67" cx="300.65" cy="488.53" r="3.43"/>
                <circle class="cls-67" cx="280.1" cy="488.53" r="3.43"/>
              </g>
              <g class="cls-51">
                <circle class="cls-67" cx="259.54" cy="324.1" r="3.43"/>
                <circle class="cls-67" cx="238.99" cy="324.1" r="3.43"/>
                <circle class="cls-67" cx="269.82" cy="303.55" r="3.43"/>
                <circle class="cls-67" cx="249.27" cy="303.55" r="3.43"/>
                <circle class="cls-67" cx="228.71" cy="303.55" r="3.43"/>
                <circle class="cls-67" cx="259.54" cy="283" r="3.43"/>
                <circle class="cls-67" cx="238.99" cy="283" r="3.43"/>
              </g>
              <g class="cls-37">
                <circle class="cls-67" cx="259.54" cy="365.21" r="3.43"/>
                <circle class="cls-67" cx="238.99" cy="365.21" r="3.43"/>
                <circle class="cls-67" cx="269.82" cy="344.66" r="3.43"/>
                <circle class="cls-67" cx="249.27" cy="344.66" r="3.43"/>
                <circle class="cls-67" cx="228.71" cy="344.66" r="3.43"/>
                <circle class="cls-67" cx="259.54" cy="324.1" r="3.43"/>
                <circle class="cls-67" cx="238.99" cy="324.1" r="3.43"/>
              </g>
              <g class="cls-5">
                <circle class="cls-67" cx="259.54" cy="406.32" r="3.43"/>
                <circle class="cls-67" cx="238.99" cy="406.32" r="3.43"/>
                <circle class="cls-67" cx="269.82" cy="385.77" r="3.43"/>
                <circle class="cls-67" cx="249.27" cy="385.77" r="3.43"/>
                <circle class="cls-67" cx="228.71" cy="385.77" r="3.43"/>
                <circle class="cls-67" cx="259.54" cy="365.21" r="3.43"/>
                <circle class="cls-67" cx="238.99" cy="365.21" r="3.43"/>
              </g>
              <g class="cls-14">
                <circle class="cls-67" cx="259.54" cy="447.43" r="3.43"/>
                <circle class="cls-67" cx="238.99" cy="447.43" r="3.43"/>
                <circle class="cls-67" cx="269.82" cy="426.87" r="3.43"/>
                <circle class="cls-67" cx="249.27" cy="426.87" r="3.43"/>
                <circle class="cls-67" cx="228.71" cy="426.87" r="3.43"/>
                <circle class="cls-67" cx="259.54" cy="406.32" r="3.43"/>
                <circle class="cls-67" cx="238.99" cy="406.32" r="3.43"/>
              </g>
              <g class="cls-15">
                <circle class="cls-67" cx="259.54" cy="488.53" r="3.43"/>
                <circle class="cls-67" cx="238.99" cy="488.53" r="3.43"/>
                <circle class="cls-67" cx="269.82" cy="467.98" r="3.43"/>
                <circle class="cls-67" cx="249.27" cy="467.98" r="3.43"/>
                <circle class="cls-67" cx="228.71" cy="467.98" r="3.43"/>
                <circle class="cls-67" cx="259.54" cy="447.43" r="3.43"/>
                <circle class="cls-67" cx="238.99" cy="447.43" r="3.43"/>
              </g>
              <g class="cls-68">
                <circle class="cls-67" cx="259.54" cy="529.64" r="3.43"/>
                <circle class="cls-67" cx="238.99" cy="529.64" r="3.43"/>
                <circle class="cls-67" cx="269.82" cy="509.09" r="3.43"/>
                <circle class="cls-67" cx="249.27" cy="509.09" r="3.43"/>
                <circle class="cls-67" cx="228.71" cy="509.09" r="3.43"/>
                <circle class="cls-67" cx="259.54" cy="488.53" r="3.43"/>
                <circle class="cls-67" cx="238.99" cy="488.53" r="3.43"/>
              </g>
              <g class="cls-22">
                <circle class="cls-67" cx="218.44" cy="324.1" r="3.43"/>
                <circle class="cls-67" cx="197.88" cy="324.1" r="3.43"/>
                <circle class="cls-67" cx="228.71" cy="303.55" r="3.43"/>
                <circle class="cls-67" cx="208.16" cy="303.55" r="3.43"/>
                <circle class="cls-67" cx="187.61" cy="303.55" r="3.43"/>
                <circle class="cls-67" cx="218.44" cy="283" r="3.43"/>
                <circle class="cls-67" cx="197.88" cy="283" r="3.43"/>
              </g>
              <g class="cls-41">
                <circle class="cls-67" cx="218.44" cy="365.21" r="3.43"/>
                <circle class="cls-67" cx="197.88" cy="365.21" r="3.43"/>
                <circle class="cls-67" cx="228.71" cy="344.66" r="3.43"/>
                <circle class="cls-67" cx="208.16" cy="344.66" r="3.43"/>
                <circle class="cls-67" cx="187.61" cy="344.66" r="3.43"/>
                <circle class="cls-67" cx="218.44" cy="324.1" r="3.43"/>
                <circle class="cls-67" cx="197.88" cy="324.1" r="3.43"/>
              </g>
              <g class="cls-23">
                <circle class="cls-67" cx="218.44" cy="406.32" r="3.43"/>
                <circle class="cls-67" cx="197.88" cy="406.32" r="3.43"/>
                <circle class="cls-67" cx="228.71" cy="385.77" r="3.43"/>
                <circle class="cls-67" cx="208.16" cy="385.77" r="3.43"/>
                <circle class="cls-67" cx="187.61" cy="385.77" r="3.43"/>
                <circle class="cls-67" cx="218.44" cy="365.21" r="3.43"/>
                <circle class="cls-67" cx="197.88" cy="365.21" r="3.43"/>
              </g>
              <g class="cls-30">
                <circle class="cls-67" cx="218.44" cy="447.43" r="3.43"/>
                <circle class="cls-67" cx="197.88" cy="447.43" r="3.43"/>
                <circle class="cls-67" cx="228.71" cy="426.87" r="3.43"/>
                <circle class="cls-67" cx="208.16" cy="426.87" r="3.43"/>
                <circle class="cls-67" cx="187.61" cy="426.87" r="3.43"/>
                <circle class="cls-67" cx="218.44" cy="406.32" r="3.43"/>
                <circle class="cls-67" cx="197.88" cy="406.32" r="3.43"/>
              </g>
              <g class="cls-63">
                <circle class="cls-67" cx="218.44" cy="488.53" r="3.43"/>
                <circle class="cls-67" cx="197.88" cy="488.53" r="3.43"/>
                <circle class="cls-67" cx="228.71" cy="467.98" r="3.43"/>
                <circle class="cls-67" cx="208.16" cy="467.98" r="3.43"/>
                <circle class="cls-67" cx="187.61" cy="467.98" r="3.43"/>
                <circle class="cls-67" cx="218.44" cy="447.43" r="3.43"/>
                <circle class="cls-67" cx="197.88" cy="447.43" r="3.43"/>
              </g>
              <g class="cls-50">
                <circle class="cls-67" cx="218.44" cy="529.64" r="3.43"/>
                <circle class="cls-67" cx="197.88" cy="529.64" r="3.43"/>
                <circle class="cls-67" cx="228.71" cy="509.09" r="3.43"/>
                <circle class="cls-67" cx="208.16" cy="509.09" r="3.43"/>
                <circle class="cls-67" cx="187.61" cy="509.09" r="3.43"/>
                <circle class="cls-67" cx="218.44" cy="488.53" r="3.43"/>
                <circle class="cls-67" cx="197.88" cy="488.53" r="3.43"/>
              </g>
              <g class="cls-9">
                <circle class="cls-67" cx="177.33" cy="324.1" r="3.43"/>
                <circle class="cls-67" cx="156.77" cy="324.1" r="3.43"/>
                <circle class="cls-67" cx="187.61" cy="303.55" r="3.43"/>
                <circle class="cls-67" cx="167.05" cy="303.55" r="3.43"/>
                <circle class="cls-67" cx="146.5" cy="303.55" r="3.43"/>
                <circle class="cls-67" cx="177.33" cy="283" r="3.43"/>
                <circle class="cls-67" cx="156.77" cy="283" r="3.43"/>
              </g>
              <g class="cls-52">
                <circle class="cls-67" cx="177.33" cy="365.21" r="3.43"/>
                <circle class="cls-67" cx="156.77" cy="365.21" r="3.43"/>
                <circle class="cls-67" cx="187.61" cy="344.66" r="3.43"/>
                <circle class="cls-67" cx="167.05" cy="344.66" r="3.43"/>
                <circle class="cls-67" cx="146.5" cy="344.66" r="3.43"/>
                <circle class="cls-67" cx="177.33" cy="324.1" r="3.43"/>
                <circle class="cls-67" cx="156.77" cy="324.1" r="3.43"/>
              </g>
              <g class="cls-11">
                <circle class="cls-67" cx="177.33" cy="406.32" r="3.43"/>
                <circle class="cls-67" cx="156.77" cy="406.32" r="3.43"/>
                <circle class="cls-67" cx="187.61" cy="385.77" r="3.43"/>
                <circle class="cls-67" cx="167.05" cy="385.77" r="3.43"/>
                <circle class="cls-67" cx="146.5" cy="385.77" r="3.43"/>
                <circle class="cls-67" cx="177.33" cy="365.21" r="3.43"/>
                <circle class="cls-67" cx="156.77" cy="365.21" r="3.43"/>
              </g>
              <g class="cls-3">
                <circle class="cls-67" cx="177.33" cy="447.43" r="3.43"/>
                <circle class="cls-67" cx="156.77" cy="447.43" r="3.43"/>
                <circle class="cls-67" cx="187.61" cy="426.87" r="3.43"/>
                <circle class="cls-67" cx="167.05" cy="426.87" r="3.43"/>
                <circle class="cls-67" cx="146.5" cy="426.87" r="3.43"/>
                <circle class="cls-67" cx="177.33" cy="406.32" r="3.43"/>
                <circle class="cls-67" cx="156.77" cy="406.32" r="3.43"/>
              </g>
              <g class="cls-29">
                <circle class="cls-67" cx="177.33" cy="488.53" r="3.43"/>
                <circle class="cls-67" cx="156.77" cy="488.53" r="3.43"/>
                <circle class="cls-67" cx="187.61" cy="467.98" r="3.43"/>
                <circle class="cls-67" cx="167.05" cy="467.98" r="3.43"/>
                <circle class="cls-67" cx="146.5" cy="467.98" r="3.43"/>
                <circle class="cls-67" cx="177.33" cy="447.43" r="3.43"/>
                <circle class="cls-67" cx="156.77" cy="447.43" r="3.43"/>
              </g>
              <g class="cls-27">
                <circle class="cls-67" cx="177.33" cy="529.64" r="3.43"/>
                <circle class="cls-67" cx="156.77" cy="529.64" r="3.43"/>
                <circle class="cls-67" cx="187.61" cy="509.09" r="3.43"/>
                <circle class="cls-67" cx="167.05" cy="509.09" r="3.43"/>
                <circle class="cls-67" cx="146.5" cy="509.09" r="3.43"/>
                <circle class="cls-67" cx="177.33" cy="488.53" r="3.43"/>
                <circle class="cls-67" cx="156.77" cy="488.53" r="3.43"/>
              </g>
              <g class="cls-64">
                <circle class="cls-67" cx="136.22" cy="324.1" r="3.43"/>
                <circle class="cls-67" cx="115.67" cy="324.1" r="3.43"/>
                <circle class="cls-67" cx="146.5" cy="303.55" r="3.43"/>
                <circle class="cls-67" cx="125.94" cy="303.55" r="3.43"/>
                <circle class="cls-67" cx="105.39" cy="303.55" r="3.43"/>
                <circle class="cls-67" cx="136.22" cy="283" r="3.43"/>
                <circle class="cls-67" cx="115.67" cy="283" r="3.43"/>
              </g>
              <g class="cls-4">
                <circle class="cls-67" cx="136.22" cy="365.21" r="3.43"/>
                <circle class="cls-67" cx="115.67" cy="365.21" r="3.43"/>
                <circle class="cls-67" cx="146.5" cy="344.66" r="3.43"/>
                <circle class="cls-67" cx="125.94" cy="344.66" r="3.43"/>
                <circle class="cls-67" cx="105.39" cy="344.66" r="3.43"/>
                <circle class="cls-67" cx="136.22" cy="324.1" r="3.43"/>
                <circle class="cls-67" cx="115.67" cy="324.1" r="3.43"/>
              </g>
              <g class="cls-57">
                <circle class="cls-67" cx="136.22" cy="406.32" r="3.43"/>
                <circle class="cls-67" cx="115.67" cy="406.32" r="3.43"/>
                <circle class="cls-67" cx="146.5" cy="385.77" r="3.43"/>
                <circle class="cls-67" cx="125.94" cy="385.77" r="3.43"/>
                <circle class="cls-67" cx="105.39" cy="385.77" r="3.43"/>
                <circle class="cls-67" cx="136.22" cy="365.21" r="3.43"/>
                <circle class="cls-67" cx="115.67" cy="365.21" r="3.43"/>
              </g>
              <g class="cls-35">
                <circle class="cls-67" cx="136.22" cy="447.43" r="3.43"/>
                <circle class="cls-67" cx="115.67" cy="447.43" r="3.43"/>
                <circle class="cls-67" cx="146.5" cy="426.87" r="3.43"/>
                <circle class="cls-67" cx="125.94" cy="426.87" r="3.43"/>
                <circle class="cls-67" cx="105.39" cy="426.87" r="3.43"/>
                <circle class="cls-67" cx="136.22" cy="406.32" r="3.43"/>
                <circle class="cls-67" cx="115.67" cy="406.32" r="3.43"/>
              </g>
              <g class="cls-39">
                <circle class="cls-67" cx="136.22" cy="488.53" r="3.43"/>
                <circle class="cls-67" cx="115.67" cy="488.53" r="3.43"/>
                <circle class="cls-67" cx="146.5" cy="467.98" r="3.43"/>
                <circle class="cls-67" cx="125.94" cy="467.98" r="3.43"/>
                <circle class="cls-67" cx="105.39" cy="467.98" r="3.43"/>
                <circle class="cls-67" cx="136.22" cy="447.43" r="3.43"/>
                <circle class="cls-67" cx="115.67" cy="447.43" r="3.43"/>
              </g>
              <g class="cls-19">
                <circle class="cls-67" cx="136.22" cy="529.64" r="3.43"/>
                <circle class="cls-67" cx="115.67" cy="529.64" r="3.43"/>
                <circle class="cls-67" cx="146.5" cy="509.09" r="3.43"/>
                <circle class="cls-67" cx="125.94" cy="509.09" r="3.43"/>
                <circle class="cls-67" cx="105.39" cy="509.09" r="3.43"/>
                <circle class="cls-67" cx="136.22" cy="488.53" r="3.43"/>
                <circle class="cls-67" cx="115.67" cy="488.53" r="3.43"/>
              </g>
            </g>
            <path class="cls-20" d="M440.03,557.05H64.28s50.7-54.81,120.58-61.66c69.88-6.85,147.99-6.85,189.09,10.96,41.11,17.81,66.07,50.7,66.07,50.7Z"/>
            <path class="cls-62" d="M404.19,557.05H117.6c30.76-11.22,61.92-21.76,94.33-25.95,14.57-1.88,29.25-2.47,43.94-2.71,21.21-.34,42.52.03,63.51,3.19,29.27,4.43,57.34,14.2,84.8,25.47Z"/>
            <path class="cls-48" d="M229.56,145.43c24.21-5.45,55.91,11.3,58.38,47.26,2.47,35.96,3,69.55-33.39,76.33-36.4,6.78-57.75-31.95-65.87-68.05s15.48-49.83,40.88-55.54Z"/>
            <path class="cls-48" d="M213.58,242.16c-3.72,5.37-9.79,8.97-16.25,9.95s-13.21-.61-18.72-4.12c-5.25-3.34-9.53-8.79-9.87-15-.37-6.73,4.3-13.28,10.63-15.6,6.5-2.39,15.15-.04,20.53,4.14,5.01,3.89,5.93,9.5,9.62,14.11,1.95,2.43,3.32,3.5,4.06,6.53Z"/>
            <path d="M178.65,231.79c.13-2.21.93-4.65,2.88-5.91,2.15-1.39,4.98-.84,7.05.43,4.54,2.8,6.48,8.34,10.22,11.96,1.07,1.03,2.54-.5,1.61-1.61-2.09-2.47-5.19-3.99-8.43-4.09-1.65-.05-3.44.27-4.65,1.48-1.1,1.1-1.57,2.72-1.69,4.23-.24,2.97,1.15,6.22,3.83,7.68,2.63,1.43,5.95,1.12,8.15-.93,1.07-1-.54-2.6-1.61-1.61-1.51,1.41-3.93,1.52-5.66.42-1.83-1.16-2.65-3.47-2.44-5.56.11-1.15.53-2.49,1.63-3.06.96-.5,2.25-.45,3.29-.31,2.36.32,4.45,1.55,5.97,3.36l1.61-1.61c-4.44-4.29-6.6-11.2-12.89-13.35-2.71-.93-5.77-.63-7.99,1.25-2.1,1.77-2.98,4.57-3.14,7.23-.09,1.46,2.19,1.45,2.27,0h0Z"/>
            <path d="M259.93,192.33c-1.65,6.92-3.31,13.84-4.96,20.76-.18.76.55,1.74,1.4,1.4,1.76-.71,3.52-1.46,5.3-2.12,1.38-.51,3.31-1.06,3.47,1.01.24,3.01-1.63,5.89-4.22,7.29-1.29.69-.14,2.65,1.15,1.96,3.5-1.88,6.1-6.23,5.21-10.27-1.2-5.44-8.65-1.21-11.52-.06l1.4,1.4c1.65-6.92,3.31-13.84,4.96-20.76.34-1.42-1.85-2.03-2.19-.6h0Z"/>
            <path class="cls-67" d="M282.91,291.56c-4.77,3.8-16.25,11.07-37.07,14.05-22.05,3.15-39.26-7.37-46.11-12.47,4.48-1.7,7.06-2.53,7.06-2.53,0,0,30.95,14.43,67.55-2.07,0,0,3.37,1.16,8.56,3.03Z"/>
            <path d="M194.45,379.83c-2.14,23.35-3.47,46.77-3.98,70.21-.14,6.57-.22,13.14-.23,19.71,0,1.46,2.27,1.46,2.27,0,.05-23.44.92-46.89,2.61-70.27.47-6.55,1.01-13.1,1.61-19.65.13-1.45-2.14-1.45-2.27,0h0Z"/>
            <path d="M197.75,380.6c-1.1,4.48-2.59,8.87-4.46,13.09-.25.56-.16,1.22.41,1.55.48.28,1.3.16,1.55-.41,1.96-4.4,3.54-8.96,4.69-13.64.35-1.42-1.84-2.02-2.19-.6h0Z"/>
            <path d="M318.34,367.79c.99,25.61.82,51.27-.54,76.87-.39,7.29-.87,14.58-1.45,21.86-.12,1.46,2.16,1.45,2.27,0,2.02-25.55,2.88-51.2,2.55-76.83-.09-7.3-.28-14.6-.57-21.9-.06-1.46-2.33-1.46-2.27,0h0Z"/>
            <path d="M322.69,367.75c-1.23,4.91-2.45,9.82-3.68,14.73-.35,1.42,1.83,2.02,2.19.6,1.23-4.91,2.45-9.82,3.68-14.73.35-1.42-1.83-2.02-2.19-.6h0Z"/>
            <path d="M164.83,539.55c24.02-5.26,48.45-8.54,73.01-9.8,24.37-1.25,48.83-.52,73.08,2.17,13.74,1.53,27.4,3.7,40.93,6.5,1.43.29,2.04-1.89.6-2.19-24.13-4.98-48.67-7.99-73.3-8.98-24.67-.99-49.41.04-73.91,3.08-13.77,1.71-27.47,4.05-41.02,7.02-1.43.31-.82,2.5.6,2.19h0Z"/>
            <path d="M243.81,539.96c13.2-.78,26.47-.29,39.57,1.51,1.43.2,2.05-1.99.6-2.19-13.31-1.84-26.76-2.39-40.17-1.59-1.45.09-1.46,2.36,0,2.27h0Z"/>
            <path class="cls-48" d="M186.73,455.58c-12.12,2.89-49.83-1.3-49.83-1.3,0,0,12.33,65.77,31.52,64.4,19.18-1.37,110.99-76.73,115.1-79.47,9.61-6.41,16.98-11.76,26.33-18.54,4.66-3.38,9.34-6.96,12.93-11.51,1.73-2.19,8-9.46,4.94-12.43-1.77-1.72-3.99.71-5.14,1.74,5.39-4.81,12.44-13.73,12.22-21.4-.22-7.72-6.13-3.04-9.35.19,2.05-2.06,5.81-5.73,3.83-8.99-1.81-2.97-4.41-1.75-6.31.71,2.11-.82,3.04-3.58,1.25-5.32-1.76-1.71-4.76-1.42-6.82-.08-2.06,1.33-3.46,3.45-4.98,5.38-7.97,10.2-20,16.23-31.62,21.93,4.2-6.64,6.7-13.25,8.19-20.96.11-.57.21-1.16.08-1.73-.29-1.29-1.73-2.07-3.05-1.97-1.32.1-2.49.88-3.44,1.79-3.23,3.05-4.64,7.5-6.26,11.64-1.72,4.4-3.53,8.18-6.64,11.66-3.33,3.72-4.55,9.46-4.71,14.35-.06,1.83.02,3.77-.92,5.34-.63,1.05-1.64,1.8-2.62,2.52-5.24,3.83-9.98,6.96-15.75,9.96-5.88,3.07-11.75,6.15-17.62,9.25-11.89,6.3-23.79,12.63-35.45,19.36-1.69.98-3.99,3.03-5.88,3.48Z"/>
            <path d="M171.39,465.78c10.56-8.13,22.26-14.76,34.69-19.56,3.56-1.37,7.18-2.6,10.84-3.68,1.4-.41.8-2.6-.6-2.19-12.9,3.81-25.26,9.45-36.56,16.75-3.26,2.11-6.43,4.35-9.5,6.72-1.14.88-.01,2.85,1.15,1.96h0Z"/>
            <path d="M323.3,366.38c-4.36,9.4-10.9,17.62-19.08,23.98-1.15.9.46,2.49,1.61,1.61,8.31-6.46,15.01-14.89,19.44-24.44.61-1.32-1.35-2.47-1.96-1.15h0Z"/>
            <path d="M326.52,374.47c-3.27,6.78-7.22,13.2-11.79,19.18-.89,1.16,1.08,2.29,1.96,1.15,4.57-5.98,8.52-12.4,11.79-19.18.63-1.31-1.32-2.46-1.96-1.15h0Z"/>
            <path d="M329.5,387.5c-4.13,5.88-8.27,11.76-12.4,17.64-.84,1.2,1.13,2.33,1.96,1.15,4.13-5.88,8.27-11.76,12.4-17.64.84-1.2-1.13-2.33-1.96-1.15h0Z"/>
            <path class="cls-48" d="M326,452.91s-98.66,15.07-123.32,31.52l-15.07,17.81s123.67,13.51,159.12-4.21l-20.73-45.12Z"/>
            <path d="M233.74,211.04c2.03-2.16,4.56-3.84,7.39-4.77,1.11-.37,2.31-.68,3.1.4.67.92.88,2.17,1.05,3.27.09.61.85.94,1.4.79.65-.18.89-.79.79-1.4-.22-1.39-.57-2.86-1.42-4.02-1.12-1.51-2.82-1.94-4.62-1.5-3.52.85-6.82,3-9.28,5.62-1,1.06.6,2.67,1.61,1.61h0Z"/>
            <path d="M265.3,205.65c1.44-1.6,3.18-3.66,5.48-3.88,1.97-.19,3.92,1.17,4.47,3.06.41,1.4,2.6.8,2.19-.6-.8-2.74-3.46-4.77-6.33-4.74-3.12.03-5.47,2.38-7.42,4.56-.97,1.09.63,2.7,1.61,1.61h0Z"/>
            <path d="M271.08,228.3c-.19,3.23-1.48,6.45-3.48,9.18-2.66,3.66-6.6,6.43-10.87,7.22-6.14,1.15-12.63-1-17.35-5.12-1.01-.88-1.95-1.85-2.77-2.89-1.37-1.74-3.45-6.15-3.43-8.37,1.45,1.29,3.41,1.81,5.32,2.19.59.12,1.19.23,1.78.33,8.88,1.52,18.1,1.07,26.8-1.32,1.34-.36,2.67-.77,3.99-1.22Z"/>
            <path class="cls-49" d="M267.6,237.48c-2.66,3.66-6.6,6.43-10.87,7.22-6.14,1.15-12.63-1-17.35-5.12,8.81-3.81,18.92-4.54,28.21-2.1Z"/>
            <path class="cls-20" d="M267.09,229.52c-.56,1.66-1.73,3.1-3.12,4.15-1.73,1.3-3.81,2.07-5.92,2.52-4.01.86-8.3.63-12.06-1.04-2.19-.97-4.18-2.47-5.7-4.32,8.88,1.52,18.1,1.07,26.8-1.32Z"/>
            <path d="M249.11,251.3c4.55.53,9.39.17,13.11-2.76.48-.38.4-1.21,0-1.61-.48-.48-1.12-.38-1.61,0-3.2,2.51-7.66,2.54-11.5,2.09-.61-.07-1.14.57-1.14,1.14,0,.67.52,1.06,1.14,1.14h0Z"/>
            <path class="cls-59" d="M216.13,168.4c3.44,15.86-1.5,33.3-12.76,45,1.05,4.37,3.21,8.38,5.5,12.25-2.38.25-4.79-.42-6.93-1.49-2.14-1.07-4.06-2.54-5.96-4-1.07-.82-2.17-1.67-2.86-2.84,0,0-29.49-48.73,14.36-67.91,43.85-19.18,80.84-1.37,80.84,43.85,0,0-20.55-5.48-32.89-16.44-15.63-13.9-39.3-8.4-39.3-8.4Z"/>
            <path class="cls-66" d="M215.24,168.21c11.71,12.84,29.79,18.43,46.69,14.43,4.93-1.16,9.66-3.12,13.99-5.74,1.25-.76.11-2.72-1.15-1.96-14.53,8.82-33.03,8.92-47.59.15-3.85-2.31-7.31-5.18-10.34-8.49-.99-1.08-2.59.53-1.61,1.61h0Z"/>
            <path class="cls-66" d="M219.02,167.59c11.45,7.47,25.04,11.52,38.71,11.65,3.91.04,7.82-.27,11.68-.87,1.44-.22.83-2.41-.6-2.19-13.05,2.02-26.72.17-38.79-5.18-3.43-1.52-6.72-3.32-9.86-5.37-1.23-.8-2.37,1.16-1.15,1.96h0Z"/>
            <path class="cls-66" d="M201.34,212.49c1.61,5.03,7.04,8.21,12.21,7.2.6-.12.95-.84.79-1.4-.17-.63-.79-.91-1.4-.79-3.89.76-8.2-1.8-9.42-5.62-.44-1.39-2.63-.79-2.19.6h0Z"/>
            <path class="cls-66" d="M194.92,163.29c-2.63-5.89-8.36-10.28-14.73-11.29-.6-.1-1.22.16-1.4.79-.15.54.18,1.3.79,1.4,5.87.93,10.95,4.82,13.37,10.25.25.56,1.07.69,1.55.41.58-.34.66-.99.41-1.55h0Z"/>
            <path class="cls-66" d="M193.74,162.03c-4.07-3.73-10.23-4.92-15.35-2.77-.57.24-.97.75-.79,1.4.15.53.83,1.03,1.4.79,4.37-1.83,9.62-1.03,13.14,2.19,1.08.99,2.69-.62,1.61-1.61h0Z"/>
            <path class="cls-66" d="M284,269.98c2.11,2.27,2.59,5.61,1.43,8.43-.23.57.25,1.25.79,1.4.65.18,1.16-.22,1.4-.79,1.47-3.56.59-7.84-2.01-10.64-1-1.07-2.6.54-1.61,1.61h0Z"/>
            <path class="cls-66" d="M206.83,274.01c1.28,4.37-1.12,9.03-5.47,10.44-1.38.45-.79,2.64.6,2.19,2.53-.82,4.73-2.52,6.07-4.83,1.46-2.52,1.8-5.61.98-8.4-.41-1.4-2.6-.8-2.19.6h0Z"/>
            <path class="cls-59" d="M246.23,188.95c-1.91-1.64-4.6-2.1-7.11-1.93-4.46.3-8.76,2.43-11.7,5.8-.91,1.04-1.72,2.29-1.74,3.67,6.39-4.61,12.73-6.54,20.55-7.54Z"/>
          </g>
          <g>
            <rect class="cls-20" x="342.44" y="276.15" width="30.15" height="34.26"/>
            <path class="cls-58" d="M410.57,343.6c.34-4.2-.15-8.61-2.32-12.22-1.18-1.98-2.82-3.64-4.44-5.29-4.71-4.78-9.42-9.57-14.13-14.35-4.56-4.63-9.28-9.53-11.08-15.76-.33-1.15-.64-2.44-1.64-3.1-1.52-.99-3.54.15-4.77,1.48-4.1,4.42-5.03,11.49-2.21,16.83,1.24,2.35,3.1,4.33,4.35,6.68,1.25,2.35,1.79,5.37.31,7.58-3.74,5.57-9.1,9.42-15.49,7.39-1.55-.49-3.03-1.3-4.1-2.52-1.62-1.83-2.17-4.35-2.46-6.77-.94-7.8.18-15.68.13-23.53-.02-2.6-.36-5.99-2.4-7.87-2.71-2.5-5.31-.19-8.09,1.08-.47-1.79-.97-3.66-2.22-5.03-1.25-1.37-3.47-2.03-4.98-.96-1.88,1.34-3.77,3.98-4.6,6.13-1.02-1.21-3.01-.22-4,1.02-3.25,4.04-3.29,9.73-2.86,14.89,1.04,12.74,3.98,25.32,8.68,37.2,3.5,8.84,12.35,11.47,20.97,15.47,13.35,6.2,27.6,10.46,42.17,12.6,5.16-10.19,14.29-19.56,15.2-30.95Z"/>
            <path d="M340.86,296.11c-2.95,14.04-5.04,29.24,1.44,42.65,1.6,3.31,3.72,6.35,6.31,8.95,1.03,1.04,2.64-.57,1.61-1.61-9.56-9.61-10.92-23.95-9.38-36.76.51-4.25,1.33-8.45,2.21-12.64.3-1.43-1.89-2.03-2.19-.6h0Z"/>
            <path d="M331.81,292.05c-3.02,13.79-2.43,28.3,1.73,41.8,1.18,3.81,2.64,7.52,4.36,11.12.63,1.32,2.59.17,1.96-1.15-5.84-12.27-8.41-26-7.52-39.55.26-3.91.82-7.79,1.66-11.62.31-1.42-1.88-2.03-2.19-.6h0Z"/>
            <path d="M370.49,310.98c2.26,6.53,5.17,12.81,8.7,18.75.75,1.25,2.71.11,1.96-1.15-3.43-5.77-6.27-11.86-8.47-18.21-.48-1.37-2.67-.78-2.19.6h0Z"/>
            <path d="M361.54,333.55c3.29.1,6.59.21,9.88.31,1.46.05,1.46-2.22,0-2.27-3.29-.1-6.59-.21-9.88-.31-1.46-.05-1.46,2.22,0,2.27h0Z"/>
            <path d="M344.43,280.67c8.27.14,16.54.2,24.81.19,1.46,0,1.46-2.27,0-2.27-8.27,0-16.54-.05-24.81-.19-1.46-.02-1.46,2.25,0,2.27h0Z"/>
            <path d="M350.36,281.74c.62,9.16,1.23,18.31,1.85,27.47.1,1.45,2.37,1.46,2.27,0-.62-9.16-1.23-18.31-1.85-27.47-.1-1.45-2.37-1.46-2.27,0h0Z"/>
            <path d="M358.52,283.91c-.31,7.4-.1,14.8.61,22.17.14,1.44,2.41,1.46,2.27,0-.71-7.37-.92-14.77-.61-22.17.06-1.46-2.21-1.46-2.27,0h0Z"/>
            <path d="M367.42,282.71c-1,7.79-2.01,15.59-3.01,23.38-.19,1.44,2.09,1.43,2.27,0,1-7.79,2.01-15.59,3.01-23.38.19-1.44-2.09-1.43-2.27,0h0Z"/>
          </g>
        </g>
        <g>
          <g class="cls-21">
            <path class="cls-56" d="M37.09,498.33c-8.08-1.97-12.08-10.69-12.26-18.46-.18-7.77,2.26-15.47,1.76-23.23-1.01-15.55-13.62-29.31-12.79-44.87.53-9.86,6.49-19.3,5.07-29.08-.45-3.11-1.65-6.15-1.56-9.29.09-3.14,2.02-6.59,5.35-7.12,3.34-.53,6.29,2.04,8.21,4.64,4.83,6.51,7.11,14.61,6.33,22.48-.69,6.97-3.67,13.9-2.23,20.77,1.82,8.67,10.25,15.03,12.61,23.58,2.83,10.27-3.68,21.21-1.22,31.57.95,4.01,3.2,7.63,4.85,11.43,1.65,3.8,2.72,8.12,1.22,11.98-1.49,3.86-6.36,6.77-10.42,5.16l-4.95.43Z"/>
            <g class="cls-47">
              <path class="cls-2" d="M37.6,481.51c.44-3.45,1.13-6.86,1.54-10.31.62-5.21.66-10.46.05-15.68-.6-5.11-1.81-10.11-3.81-14.9-1.9-4.56-4.12-8.99-5.75-13.65-1.65-4.73-2.73-9.65-2.71-14.64.02-5.61,1.18-11.08,2.17-16.59.95-5.3,1.64-10.51.6-15.84-.88-4.5-2.61-8.83-3.89-13.25-.99-.38-2.04-.55-3.13-.38-3.32.53-5.26,3.98-5.35,7.12-.09,3.14,1.1,6.18,1.56,9.29,1.42,9.79-4.55,19.22-5.07,29.08-.83,15.56,11.78,29.32,12.79,44.87.5,7.76-1.94,15.46-1.76,23.23.18,7.77,4.18,16.49,12.26,18.46l1.3-.11c-1.86-5.24-1.48-11.33-.79-16.71Z"/>
            </g>
            <path class="cls-26" d="M17.52,353.55s15.64,16.27,11.79,39.59c-3.85,23.32-2.58,28.93,3.6,42.36,6.19,13.44,7.31,28.16,4.57,42.47-2.74,14.31,2.59,26.74,9.22,36.57"/>
          </g>
          <g class="cls-70">
            <path class="cls-56" d="M58.03,510.84c-6.93-4.59-7.73-14.15-5.26-21.53,2.47-7.37,7.38-13.79,9.54-21.26,4.33-14.97-2.86-32.19,3.21-46.55,3.84-9.1,12.66-15.95,14.65-25.63.63-3.08.54-6.34,1.69-9.26,1.15-2.92,4.14-5.51,7.44-4.88,3.32.64,5.22,4.06,6.15,7.15,2.33,7.76,1.73,16.16-1.68,23.3-3.01,6.32-8.17,11.83-9.15,18.78-1.23,8.77,4.54,17.61,3.86,26.46-.82,10.63-10.67,18.7-11.86,29.28-.46,4.09.42,8.26.68,12.4.26,4.14-.2,8.56-2.92,11.68-2.72,3.12-8.29,4.21-11.55,1.32l-4.8-1.27Z"/>
            <g class="cls-47">
              <path class="cls-2" d="M64.22,495.19c1.59-3.09,3.39-6.07,4.95-9.17,2.36-4.69,4.17-9.62,5.37-14.73,1.17-5.01,1.73-10.13,1.47-15.31-.24-4.93-.83-9.86-.78-14.79.05-5.01.71-10,2.42-14.69,1.92-5.27,4.87-10.02,7.67-14.87,2.7-4.66,5.11-9.33,5.94-14.7.7-4.53.54-9.19.84-13.78-.8-.7-1.73-1.21-2.82-1.42-3.31-.63-6.29,1.96-7.44,4.88-1.15,2.92-1.06,6.18-1.69,9.26-1.99,9.69-10.8,16.53-14.65,25.63-6.06,14.36,1.13,31.57-3.21,46.55-2.16,7.47-7.07,13.89-9.54,21.26-2.47,7.37-1.67,16.93,5.26,21.53l1.26.33c.03-5.56,2.45-11.16,4.93-15.98Z"/>
            </g>
            <path class="cls-26" d="M88.78,368.01s9.19,20.61-2.35,41.24c-11.54,20.62-12.25,26.33-10.99,41.07,1.26,14.74-2.68,28.97-10.12,41.5-7.44,12.53-6.64,26.03-3.75,37.53"/>
          </g>
          <g class="cls-33">
            <path class="cls-2" d="M45.14,507.53c-7.59-3.09-9.94-12.29-8.7-20.01,1.24-7.72,5.05-14.99,5.97-22.74,1.85-15.53-8.05-30.93-4.4-46.22,2.32-9.69,9.91-18.17,10.3-28.06.12-3.14-.5-6.32.16-9.41.66-3.09,3.19-6.24,6.56-6.28,3.38-.05,5.82,2.91,7.24,5.75,3.56,7.12,4.33,15.47,2.13,23.15-1.95,6.8-6.15,13.24-5.98,20.24.21,8.84,7.35,16.32,8.11,25.12.92,10.57-7.5,20.47-6.96,31.07.21,4.1,1.75,8,2.69,12,.93,4,1.19,8.42-.98,12.03-2.18,3.61-7.5,5.8-11.2,3.63l-4.95-.27Z"/>
            <g class="cls-47">
              <path class="cls-2" d="M48.71,490.95c1.07-3.35,2.36-6.63,3.4-9.98,1.56-5.07,2.56-10.26,2.91-15.51.35-5.14.06-10.26-1.03-15.29-1.04-4.78-2.42-9.48-3.17-14.32-.76-4.91-.92-9.94,0-14.87,1.04-5.55,3.18-10.8,5.16-16.11,1.9-5.11,3.53-10.16,3.48-15.59-.04-4.58-.96-9.11-1.41-13.66-.9-.52-1.91-.83-3.02-.82-3.37.05-5.9,3.19-6.56,6.28-.66,3.09-.04,6.27-.16,9.41-.39,9.89-7.98,18.37-10.3,28.06-3.66,15.28,6.25,30.68,4.4,46.22-.92,7.75-4.73,15.03-5.97,22.74-1.24,7.72,1.11,16.91,8.7,20.01l1.3.07c-.87-5.45.61-11.42,2.27-16.65Z"/>
            </g>
            <path class="cls-26" d="M52.29,361.47s12.42,18.32,4.38,40.85c-8.05,22.53-7.82,28.26-4.18,42.43,3.64,14.17,2.06,28.9-3.25,42.67-5.31,13.77-2.33,26.83,2.4,37.5"/>
          </g>
          <polygon class="cls-20" points="82.37 557.94 29.07 557.94 17.1 470.48 93.25 470.48 82.37 557.94"/>
          <path class="cls-45" d="M83.61,519.83c-10.24,6.1-22.93,6.2-33.86,1.85-13.7-5.46-23.14-16.65-29.7-29.62l9.01,65.88h53.31l5.06-40.7c-1.22.93-2.49,1.79-3.83,2.59Z"/>
          <polygon class="cls-55" points="91.57 483.98 92.58 475.9 17.84 475.9 18.95 483.98 91.57 483.98"/>
        </g>
        <g>
          <rect class="cls-28" x="129.75" y="26.96" width="34.43" height="13.2"/>
          <rect class="cls-28" x="129.75" y="26.96" width="34.43" height="13.2" transform="translate(180.52 -113.41) rotate(90)"/>
        </g>
        <g>
          <rect class="cls-28" x="584.67" y="185.14" width="34.43" height="13.2"/>
          <rect class="cls-28" x="584.67" y="185.14" width="34.43" height="13.2" transform="translate(793.63 -410.14) rotate(90)"/>
        </g>
        <g>
          <rect class="cls-28" x="49.33" y="226.46" width="34.43" height="13.2" transform="translate(105 -6.24) rotate(25.06)"/>
          <rect class="cls-28" x="49.33" y="226.46" width="34.43" height="13.2" transform="translate(305.84 271.52) rotate(115.06)"/>
        </g>
        <g>
          <circle class="cls-48" cx="603.1" cy="433.48" r="18.25"/>
          <circle class="cls-16" cx="600.6" cy="431.08" r="18.25"/>
          <rect class="cls-48" x="585.16" y="429.28" width="30.77" height="3.7" transform="translate(466.16 -295.83) rotate(43.85)"/>
        </g>
        <g>
          <circle class="cls-49" cx="39.55" cy="47.46" r="18.25"/>
          <circle class="cls-53" cx="37.18" cy="49.99" r="18.25"/>
          <rect class="cls-49" x="21.85" y="48.19" width="30.77" height="3.7" transform="translate(-24.75 43.04) rotate(-46.9)"/>
        </g>
        <g>
          <circle class="cls-1" cx="583.63" cy="54.14" r="18.25"/>
          <circle class="cls-62" cx="581.06" cy="51.81" r="18.25"/>
          <rect class="cls-1" x="565.62" y="50.01" width="30.77" height="3.7" transform="translate(184.87 -376.31) rotate(42.12)"/>
        </g>
        <g>
          <rect class="cls-20" x="238.76" y="75.55" width="44.27" height="18.86" rx="9.42" ry="9.42" transform="translate(1.19 173.53) rotate(-36.87)"/>
          <path class="cls-54" d="M243.19,98.26h0c-3.12-4.17-2.28-10.08,1.89-13.21l10.63-7.97,11.31,15.09-10.63,7.97c-4.17,3.13-10.08,2.28-13.2-1.88Z"/>
        </g>
        <g>
          <path class="cls-20" d="M80.28,113.12h0c4.33-2.89,10.18-1.73,13.08,2.6l14.11,21.13c2.89,4.33,1.73,10.19-2.6,13.08h0c-4.33,2.89-10.18,1.73-13.08-2.6l-14.11-21.13c-2.89-4.33-1.73-10.19,2.6-13.08Z"/>
          <path class="cls-49" d="M80.28,113.12h0c4.33-2.89,10.18-1.73,13.08,2.6l7.38,11.04-15.68,10.47-7.38-11.04c-2.89-4.33-1.73-10.19,2.6-13.08Z"/>
        </g>
        <g>
          <rect class="cls-20" x="53.95" y="323.3" width="44.27" height="18.86" rx="9.42" ry="9.42" transform="translate(-231.01 183.78) rotate(-51.25)"/>
          <path class="cls-62" d="M62.23,349.99h0c-4.06-3.26-4.71-9.2-1.45-13.26l8.31-10.36,14.71,11.8-8.31,10.36c-3.26,4.06-9.2,4.71-13.25,1.46Z"/>
        </g>
      </g>
    </g>
  </g>
</svg>