<?xml version="1.0" encoding="UTF-8"?>
<svg id="Layer_8" data-name="Layer 8" xmlns="http://www.w3.org/2000/svg" viewBox="0 0 100 100">
  <defs>
    <style>
      .cls-1 {
        fill: #fecdbe;
      }

      .cls-2 {
        fill: #3691bb;
      }

      .cls-3 {
        fill: #d7ebfd;
      }

      .cls-4 {
        fill: #00f1a5;
      }

      .cls-5 {
        fill: #0ed18f;
      }

      .cls-6 {
        fill: #feaf9e;
      }

      .cls-7 {
        fill: #b2d9fd;
      }

      .cls-8 {
        fill: #01bff9;
      }

      .cls-9 {
        fill: #feaf9d;
      }

      .cls-10 {
        fill: #62dafa;
      }

      .cls-11 {
        fill: #fc9468;
      }

      .cls-12 {
        fill: #fefefe;
      }

      .cls-13 {
        fill: #d9b9aa;
      }
    </style>
  </defs>
  <path class="cls-10" d="M98.98,69.8v27.77c-.53.66-.69,1.19-1.64,1.33-1.63.23-4.09,0-5.83.01l-.38-.17v-9.68c-1.39-.13-2.83-.16-4.32-.11l-.28-.38c.03-.3.1-.53.42-.58,1.27-.18,3.09-.04,4.3.23-.18-3.39-.36-6.83.25-10.18.01-2.1-.36-7.31.35-8.94,1.47-3.39,6.13-2.7,7.12.71Z"/>
  <path class="cls-10" d="M15.48,44.33c2.87,4.64,5.16,9.76,6.89,14.94,1.53,1.94,2.57,4.28,3.06,6.7,1.71,2.23,2.97,5.12,3.64,7.85.16-.03.29.16.38.57l.43.18c.88,2.24,1.9,4.42,3.08,6.54l-.25.36.41-.02c1.01,2.29,2.03,4.53,3.07,6.73h15.23c2.17.25,4.36.38,6.57.37,9.51-.09,19.02-.09,28.53,0,.15.02.38.07.38.18.11,2.74.2,6.39,0,9.09.12.59,0,.95-.38,1.08-19.68.07-39.36-.02-59.04-.04-.54-.12-1.04-.71-1.32-1.17-1.8-2.85-3.61-7.81-5.13-11.05l-.08-.44c2.03-1.26,3.32-2.85,3.86-4.75-2.77-6.81-5.88-14.27-9.5-20.71-.81-1.43-1.73-1.46-3.25-1.35l-3.3.45-.37-.39c-2.43-5.24-4.97-10.44-7.38-15.7-.34-1.15.18-2.09,1.12-2.72,1.24-.84,5.93-2.99,7.41-3.5,1.16-.4,2.12-.36,2.92.71s2.33,4.63,3.01,6.08Z"/>
  <path class="cls-3" d="M50.91,43.18l.38.13.29,27.7c.18.22,1.45.22,1.62,0l.19-27.6.38-.23.38.13v27.84c5.38-.18,10.74-.06,16.09.36,1.03-.47,2.03-.48,3.06,0,2.1.01,4.22-.03,6.32,0,3.08.17,5.28,2.14,6.57,4.84.27.57.93,2.05.32,2.35l.38.13v9.32l-.38.23c-9.38.27-18.77.19-28.15,0l-.03-.47c2.8-3.75-4.26-7.43-7.57-6.63l-1.98-.37c-.16.09-.32.18-.48.24-1.08.4-4.12.02-5.26-.44-.92-.43-1.92-2.06-1.72-3.06-.13-.06-.26-.12-.38-.21-.38-.29-2.02-4.28-2.33-5.13l.02-.79h12.26s0-28.34,0-28.34Z"/>
  <path class="cls-2" d="M34.82,47.4c.01.47-.28.8-.88,1.01l-4.99,2.18c-2.2,1.06-2.65,1.56-1.74,3.99.3,2.17-.63,3.14-2.42,4.1-.59.32-1.95,1.03-2.42.59-2.31-4.96-4.56-10.01-6.89-14.94,0-.87.46-1.54,1.21-1.95,4.96-2,9.81-4.93,14.75-6.89,1.57-.62,2.65-.84,3.74.74,2.28,3.29,3.3,8.41-.35,11.17Z"/>
  <path class="cls-1" d="M34.82,47.4c.89,2.94,2.85,5.77,3.92,8.62.5,1.34.79,2.73-.43,3.83-.97.88-5.1,2.57-6.56,3.25-1.77,1.48-4.05,2.48-6.32,2.87-1.04-2.22-2.03-4.48-3.06-6.7,1.96-.83,4.58-1.44,4.52-4.09-.03-1.36-1.27-2.54.17-3.96,2.13-1.54,5.75-2.31,7.76-3.83Z"/>
  <path class="cls-2" d="M21.03,86.65c-4.26-9.04-8.43-18.13-12.64-27.19,2.03.1,5.04-1.34,6.7.29.42.41.84,1.39,1.12,1.94,2.74,5.33,5.79,11.84,8.1,17.37.26.62.84,1.78.88,2.38.12,2.09-2.79,3.96-4.17,5.22Z"/>
  <path class="cls-11" d="M73.32,21.16v50.37c-1.02,0-2.05,0-3.06,0l-.38-.18V21.4l.38-.24c.4-.18.91-.18,1.53.02.62-.19,1.13-.2,1.53-.02Z"/>
  <path class="cls-10" d="M54.93,32.27l.38.43c.22,2.15.04,5.71-1.28,7.48-.57.76-2.6,2.77-3.47,2.62-.03,0,.42-.32-.04.19-5.43-1.37-5.29-6.29-5.36-10.72l.18-.38h9.36l.23.38Z"/>
  <path class="cls-7" d="M91.51,78.04c-.02,3.44.01,6.9,0,10.34-1.5.04-3.02-.06-4.52,0-.25,0-.44.2-.46.2-9.41.27-19.1.01-28.53,0-.17-.05-.16-.12,0-.19.11-.37.27-.37.38,0,9.38.03,18.77-.03,28.15,0v-9.67c0-.37-.59-2.04-.79-2.47-1.18-2.53-3.51-3.97-6.1-4.72,3.29.05,6.06-.4,8.81,1.82,1.63,1.31,2.24,2.85,3.06,4.69Z"/>
  <path class="cls-3" d="M58.95,24.22l-.47.35-3.33.09c.22,2.24.25,4.51.17,6.76,0,.14-.07.28-.13.42s-.16.28-.26.42h-9.77c-.02-1.04-.14-7.79.22-8.02,1.84-.08,3.69.01,5.53-.03.78-.59,2.07-.56,2.87,0,.59-.63,2.46-.66,3.41-.63.92-.12,1.51.09,1.76.63Z"/>
  <path class="cls-10" d="M53.78,42.99c.17.05.16.12,0,.19l-.19,28.34h-2.38s-.3-28.34-.3-28.34v-.19c.31-.32.8-.39,1.48-.21.64-.17,1.11-.09,1.4.21Z"/>
  <path class="cls-11" d="M68.53,16.37c.18.4.18.91-.02,1.53.19.62.2,1.13.02,1.53l-.18.38h-14.06c-.14,1.32-.18,2.7-.12,4.13l-.38.27c-.95.02-1.92-.02-2.87,0,.32-2.42-1.15-6.93,2.1-7.76l15.52-.09Z"/>
  <path class="cls-8" d="M86.53,88.57h4.98s0,10.34,0,10.34c-1.66.01-3.32,0-4.98,0v-10.34Z"/>
  <path class="cls-8" d="M59.53,32.27l.38.38c.15,2.67-.15,6.75-2.1,8.74-.9.91-2.83,2.19-4.03,1.6-1.24.24-1.64.22-2.87,0-.12-.02-.28.03-.38,0-.37-.54-.12-.28.19-.47,4.72-2.86,4.15-5.22,4.22-10.25.04-.15.1-.37.22-.38.47-.06,3.78-.09,4.09,0l.28.38Z"/>
  <path class="cls-5" d="M34.25,68.46c1.97.03,3.53,1.44,4.4,3.06,1.05,1.94,1.75,4.16,2.68,6.13-.91,1.01-2.48,1.75-3.83,1.72l-.46-.07-2.45-5.38c-.73-1.7-1.73-3.27-3.02-4.51-.05-.85,2.21-1.72,2.68-.96Z"/>
  <path class="cls-9" d="M31.76,63.1l2.49,5.36c-.99-.01-1.89.44-2.68.96l-.02.47c-.9.56-1.4,1.42-1.65,2.43l-.44.16c.02.65-.1,1.1-.38,1.34-1.27-2.58-2.42-5.24-3.64-7.85,2.1-.97,4.23-1.89,6.32-2.87Z"/>
  <path class="cls-2" d="M73.32,21.16c-1.16.53-1.91.53-3.06,0-.71.51-2.23-1.01-1.72-1.72-.53-1.16-.53-1.9,0-3.06.43-.93,1.41-1.88,2.44-2.06,4.51-.77,6.22,5.07,2.35,6.85Z"/>
  <path class="cls-1" d="M37.5,79.38c.38,0,.65.3.81.89,1.36.4,2.82.47,4.39.21l.36.25c1.86.02,3.84.16,5.75.19,3.15.07,7.69,3.72,5.69,7.09,1.19-.04,2.38-.05,3.51.38v.19c-7.3,0-14.6.03-21.9-.03-.37-.13-2.96-6.15-3.38-7.05,1.2-1.09,3.17-2.02,4.79-2.11Z"/>
  <path class="cls-4" d="M37.5,79.38c-1.58.72-3.16,1.49-4.79,2.11-.74-1.59-3.05-5.65-3.26-7.09-.19-.57-.19-1.21,0-1.92.43-1.53.76-2.2,2.11-3.06.44-.08.58.15.87.38,1.7,1.37,3.87,7.29,5.07,9.58Z"/>
  <path class="cls-13" d="M29.46,74.4c-.22-.14-.28-.36-.38-.57.22-.4.26-.89.38-1.34.06.61-.08,1.33,0,1.92Z"/>
  <path class="cls-12" d="M68.53,19.44c.36.78.94,1.36,1.72,1.72v50.37c-5.49-.02-10.98.01-16.47,0v-28.34s0-.19,0-.19c5.85-1.13,5.68-5.99,5.75-10.72l-.38-.17c.12-2.69.06-5.32-.19-7.88-1.62-.53-3.56-.04-5.17,0v-4.79s14.75,0,14.75,0Z"/>
  <path class="cls-9" d="M48.8,80.91c2.97.05,5.62-.42,8.13,1.54,1.78,1.38,3.86,4.13,1.44,5.93-.13,0-.26,0-.38,0-1.47,0-2.94,0-4.4,0,3.28-2.99-1.89-6.82-4.79-7.47Z"/>
  <path class="cls-6" d="M41.33,77.65c.49,1.03,1.18,2.06,1.72,3.06-.03,0-.3.21-.65.21-1.12-.01-2.8.14-3.82-.06-.76-.15-.81-.95-1.09-1.49,1.27-.58,2.53-1.2,3.83-1.72Z"/>
  <path class="cls-7" d="M58.95,24.22c.11.01.24-.05.35.03.38.3.24,6.99.23,8.02h-4.6c.04-2.67.12-5.41-.19-8.04,1.36.09,2.87-.13,4.21,0Z"/>
</svg>