<?xml version="1.0" encoding="UTF-8"?>
<svg id="Layer_8" data-name="Layer 8" xmlns="http://www.w3.org/2000/svg" viewBox="0 0 100.28 100.28">
  <defs>
    <style>
      .cls-1 {
        fill: #d90c80;
      }

      .cls-2 {
        fill: #e5eff3;
      }

      .cls-3 {
        fill: #f8c59f;
      }

      .cls-4 {
        fill: #fe98a9;
      }

      .cls-5 {
        fill: #febac9;
      }

      .cls-6 {
        fill: #febac8;
      }
    </style>
  </defs>
  <path class="cls-3" d="M79.05,54.72l-.41.53c-2.21.54-4.13,1.87-5.6,3.58-1.94,3.63-3.46,3.31-5.2-.11-4.84-6.47-17.03-4.11-18.41,4.05-2.34,13.89,9.63,25.48,21.31,30.5l.21.42c-.27.18-.88.93-1.61,1.35-10.17,5.97-22.02,4.62-32.76,1.04-.03-3.94-.55-8.06-1.62-11.85-.24-.85-.45-2.08-1.02-2.7-4.25-4.59-15.5.67-18.42-4.8-1.26-2.36.15-3.96-.31-6.48-.39-2.11-2.99-4.04-2.99-5.36,0-1.68,3-2.5,2.88-3.71-.13-1.3-3.43-1.46-3.5-3.32-.07-1.73,3.33-4.33,2.8-5.86-.39-1.12-7.12-.4-6.28-4.15.28-1.25,3.82-5.29,4.73-6.88,4.35-7.54,1.55-15.69,4.69-24C24.7-1.9,54.14-2.32,68.96,6.88c16.62,10.31,18.99,31.44,10.09,47.84Z"/>
  <path class="cls-1" d="M79.05,54.72c8.36-1.53,13.58,4.58,13.14,12.59-.8,14.34-11.03,19.35-21.24,26.4-.73.09-1.3-.31-1.9-.62-11.14-5.8-21.31-15.42-20.23-29.07.76-9.59,13.65-12.74,19.37-5.56.58.73,1.27,2.6,2.21,2.59,1.04,0,1.69-1.79,2.3-2.5,1.63-1.9,3.84-3.38,6.35-3.84Z"/>
  <path class="cls-4" d="M55.18,10.04c1.89,1.66.65,3.83-.55,5.5,1.11,1.52,3-3.29,2.49-4.4l.25-.44c6.02.34,8.26-.15,10.95,5.91l-.28.41c-1.01-.19-5.05,2.06-3.28,2.69,1.44-1.19,3.09-2.46,4.88-1.13,1.79,1.87,3.07,2.72,3.88,5.43,1.28,4.25.36,7.34-2.35,10.56-1.03.35-2.36-1.3-2.63-2.31-.67-5.69-2.16.47.14,2.05.73.49,1.19,1.01,1.4,1.57-.2.3-.33.89-.7,1.39-1.26,1.69-3.37,2.44-5.44,2.56-2.49-.63-3.18-3.24-3.48-5.43-1.91.61.17,4.45,1.36,5.34l-.07.53c-2.33,1.16-2.99,1.26-5.48.22l-.29-.37c.46-.9.35-4.64-1.21-3.57.6,1.49,1.11,2.84-.69,3.72-1.91.76-2.55,1.19-4.72.45-1.92-.66-2.34-1.43-3.17-3.08-1.42-3.87,1.29-8.32,5.46-8.85.28-1.64-2.41-.25-3.12.14-1.51,1.11-1.83,1.19-2.67-.64-1.71-2.59-6.79-2.69-7.86.5-.42,1.26,1.84-.75,2.01-.98,6.94-2.34,5.61,4.56,4.65,8.76l-.45.18c-.59,0-1.72-.42-1.98-.32-.43.16-1.4,1.55-2.54,2.04-3.75,1.6-5.9.21-8.18-2.6-.34-.46-.17-1.11.08-1.6,3.58-3.65-1.21-1.57-1.33.86l-.5.52c-2.13.24-4.11-.4-5.35-2.2-.32-.47-.37-.95-.56-1.3.02-.18.08-.36.24-.43,1.82-.74,4.39-2.55,4.01-4.77-.15-.89-1.68,2.02-1.85,2.36-.61.75-2.54,2.07-3.28,1.3-1.36-2.63-.74-7.08.76-9.65,1.67-2.86,4.14-3.85,6.91-5.25.9-.12,1.38,1.4,1.51,2.19.17,1.01-.04,1.94-.49,2.85-1.19,1.25-3.37,5.04-.1,1.84l.58-.18c3.28,4.63,10.82,1.61,8.43-4.25-.57-1.39-1.78-1.96-1.27-.39,3.48,5.51-5.62,8.92-6.44,2.66.28-1.67.38-3.68-.79-5.05l.09-.54c2.91-2.98,3.21-3.54,7.67-3.94,1.74.43,2.95,1.65,3.64,3.65,2.09.8-.65-3.33-1.32-3.79l.1-.52c2.84-1.65,4.27-3.04,7.97-2.6,2.4.28,3.17,1.29,4.95,2.39Z"/>
  <path class="cls-5" d="M32.18,14.85c1.37,1.34,1.27,2.76,1.32,4.5.01.38-.19.76-.19,1.09.11,4.37,7.01,3.59,6.3-.87-.12-.75-1.87-2.99-.06-3.14,1.35-.11,2.01,3.35,1.94,4.34-.32,4.54-7.25,6.06-9.43,1.97-.65.51-1.57,2.15-2.46,1.25-.84-.84,1.1-2.36,1.57-3.24.99-1.84.7-3.42-.53-5.02.55-.28,1.06-.39,1.53-.88Z"/>
  <path class="cls-5" d="M46.2,37.63c-.89-1.77-.45-.89-1.97-.88.25-3.19,2.91-9.39-2.73-8.99-1.8.13-2.48,2.03-3.2,1.88-1.79-.38.13-2.94,1.67-3.39,3.01-.89,6,.18,7,3.27.72-.82,4.63-2.97,5.11-1.37.43,1.43-1,1.14-1.93,1.49-3.27,1.27-4.19,4.76-3.95,7.99Z"/>
  <path class="cls-5" d="M23.86,32.16c-.27-.48-.65-1.09-.88-1.53.89-.2,2.07-.68,2.74-1.32.56-.54,1.88-4.37,2.86-2.41.77,1.55-2.84,5.52-4.72,5.25Z"/>
  <path class="cls-5" d="M63.94,39.82c-1.33.07-.71-.3-2.19.44-1.54-1.35-2.91-3.59-2.31-5.71.19-.69,1.23-.88,1.55-.2.22.46.05,1.07.16,1.59.42,1.81,1.44,2.72,2.79,3.89Z"/>
  <path class="cls-5" d="M71.17,34.57c-.38.46-.73.77-1.1,1.31-2.03-.94-3.5-3.3-3.06-5.58.15-.78,1.06-1.09,1.55-.46.35.45.11,1.79.55,2.73.46,1,1.27,1.34,2.06,1.99Z"/>
  <path class="cls-5" d="M57.37,10.69c1.01,1.31-1.1,6.03-2.47,5.67-1.9-.49.49-2.36.68-3.2.22-.97.06-2.24-.39-3.13.95.58,1.1.6,2.19.66Z"/>
  <path class="cls-5" d="M42.26,10.25c.78.71,3.78,4.4,1.76,4.95-1.04.28-1.35-1.61-1.98-2.42s-1.44-1.25-2.18-1.87c1.29-.12,1.23.03,2.41-.66Z"/>
  <path class="cls-5" d="M68.32,16.61c.15.35.17.83.34,1.08.09.14.7.6.97.89-1.19-.24-2.14-.23-3.22.39-.53.3-1.71,1.88-2.38.94-1.1-1.55,2.99-3.58,4.29-3.3Z"/>
  <path class="cls-6" d="M56.27,40.48c-1.22-.51-.68-.82-2.19-.22.34-.5.85-1.24.85-1.86,0-.77-1.2-1.91-.19-2.41,1.96-.96,2.31,3.3,1.53,4.49Z"/>
  <path class="cls-5" d="M31.52,35.88c-.94-1.17-.81-.32-1.75-.22-.07-1.33,1.92-4.76,3.4-3.51.88.75-.89,1.75-1.19,2.33-.26.5-.13,1.01-.46,1.4Z"/>
  <path class="cls-2" d="M74.67,64.36v5.69h5.69v7.99s-.31.33-.33.33h-5.37v5.37s-.31.33-.33.33h-7.99v-5.69h-5.69v-8.32h5.69v-5.69h8.32Z"/>
  <path class="cls-5" d="M59.95,20.16c.19.19.97,2.6,1.4,3.3,1.22,1.95,2.95,2.76,4.89,1.03,1.03-.92.58-2.81,1.35-3.05,1.45-.44,1.46,1.21,1.23,2.13-.6,2.48-3.42,3.91-5.86,3.53-1.78-.28-1.66-2.35-4.05-.52-1.42,1.08-.35,1.78-.87,2.42-.45.55-1.25.48-1.58-.22-1.05-2.21,1.36-3.93,3.1-4.64-.09-.85-2.15-3.79-.75-4.23.28-.09.91.04,1.11.25Z"/>
  <path class="cls-5" d="M51.43,16.8c-.13.2-2.77.66-3.2,1.18-.39.47-.37,3.42-1.06,4.53-.56.9-2.19,1.36-2.29.11-.07-.84.68-.75.88-1.14.62-1.16.06-3.15.98-4.44.61-.86,3.35-2.1,4.28-1.64.39.2.62,1.07.41,1.4Z"/>
</svg>