<?xml version="1.0" encoding="UTF-8"?>
<svg id="Layer_8" data-name="Layer 8" xmlns="http://www.w3.org/2000/svg" viewBox="0 0 100.28 100.28">
  <defs>
    <style>
      .cls-1 {
        fill: #5a5a5a;
      }

      .cls-2 {
        fill: #89c8fd;
      }

      .cls-3 {
        fill: #e84444;
      }

      .cls-4 {
        fill: #e1ddd8;
      }

      .cls-5 {
        fill: #838383;
      }

      .cls-6 {
        fill: #60b6fe;
      }

      .cls-7 {
        fill: #9b9b9b;
      }

      .cls-8 {
        fill: #e84646;
      }

      .cls-9 {
        fill: #51504f;
      }

      .cls-10 {
        fill: #eaeaea;
      }

      .cls-11 {
        fill: #d73131;
      }
    </style>
  </defs>
  <path class="cls-10" d="M64.63,44.98c2.11.01,4.24-.05,6.35,0,1.37.14,2.17.43,3.12,1.43.7.74,1.91,2.4,1.44,3.33l-.55.39c-3.7-.14-7.35-.17-10.95-.1l.4.18v14.55l-.4.24.36-.32c6.42.33,12.87.41,19.35.25l.52.26c.04-.18.1-.17.2,0,1.9.89,4.1,1.99,5.86,3.16,1.74,1.15,3.89,2.8,3.67,5.07-30.26.05-60.48.02-90.66-.1.11-8.24-.34-16.61.3-24.79.83-2.06,2.69-3.45,4.95-3.58,14.83.25,29.75-.22,44.54-.19.78-.32,1.6-.45,2.44-.37,2.97-.06,6.21-.04,9.07.57Z"/>
  <path class="cls-3" d="M93.79,73.55l.4.18v9.42c.77.14,1.61.17,2.5.12l.28.4v.2c-.69.73-1.91.32-2.78,0-2.2.59-4.76.64-6.94,0l-.65-.11c-2.03-1.82-4.53-2.77-7.48-2.86l-.41.46c-1.87.27-3.63,1.03-4.93,2.43l-.61.09-.73.4H28.47l-.73-.4-.5.04c-1.73-1.67-4.09-2.76-6.51-2.84l-.33-.37c-.48,0-.79.16-.93.49-1.96.29-3.81,1.17-5.19,2.59l-.62.09-.7.44c-2.96-.06-5.92-.09-8.88-.1l-.73-.34c-.16-3.23-.17-7.02-.03-10.36,30.16-.07,60.32-.1,90.48.05Z"/>
  <path class="cls-7" d="M73.16,83.86v.64c-1.49,1.98-2.04,4.5-1.84,6.95l-.34.54-41.26.2-.32-.54c.35-2.5-.13-5.12-1.67-7.16v-.63h45.43Z"/>
  <path class="cls-1" d="M20.4,80.69v.27c6.1,1.77,8.33,9.02,5.12,14.28-1.33,2.18-3.64,4.15-6.31,4.09-3.77-.63-7.03-3.53-7.74-7.34-.96-.91-.56-3.16-.23-4.42.36-1.33,1.06-3.25,2.41-3.71,1.68-1.95,4.18-3.04,6.74-3.17Z"/>
  <path class="cls-1" d="M79.11,80.89c4.54.4,7.56,5.11,7.47,9.42-.09,4.23-3.21,8.74-7.66,9.03-3.59-.59-7.46-3.53-7.93-7.34-.36-2.89.29-5.9,2.18-8.13,1.58-1.87,3.55-2.68,5.95-2.98Z"/>
  <path class="cls-7" d="M3.14,83.86c.05-.18.11-.17.2,0,3.26-.32,7,.24,10.31,0-1.95,2.26-2.72,5.19-2.18,8.13-2.47-.33-6.71.56-8.93-.29-1.9-.73-1.83-4.07-1.57-5.74.16-1.05,1.14-1.93,2.17-2.1Z"/>
  <path class="cls-9" d="M87.24,83.86c1.35.41,2.03,2.41,2.38,3.72.33,1.24.76,3.54-.2,4.41-.87,4.77-5.79,8.11-10.51,7.34,9.6-2.79,9.72-15.46.2-18.45,3.11-.39,6.02.6,8.13,2.98Z"/>
  <path class="cls-9" d="M27.73,83.86c1.97,2.3,2.51,5.42,1.98,8.33-.86,4.78-5.81,7.93-10.51,7.14,9.5-2.35,10-15.79.4-18.25-.07-.18.75-.39.79-.39,2.36-.22,5.81,1.39,7.34,3.17Z"/>
  <path class="cls-7" d="M94.19,83.86c3.08.24,2.67,5.74,1.28,7.52.76-.09,1.33.04,1.7.41l-7.74.2c.51-2.79-.28-5.99-2.18-8.13,2.31.03,4.63-.04,6.94,0Z"/>
  <path class="cls-6" d="M78.91,49.74c2.9,5.01,5.49,10.23,8.33,15.27-.12,1.05-2.04.63-2.78.2-.07,0-.13,0-.2,0l-.6-.27c-2.72-4.93-5.44-9.87-8.16-14.8l.23-.4c.38-.69,2.58-.57,3.17,0Z"/>
  <path class="cls-4" d="M96.96,73.55c-.33.65-2.79.62-3.17,0-30.15,0-60.31,0-90.45,0v10.32c-.06,0-.13-.01-.2,0,.05-3.28-.06-6.56-.01-9.84,0-.36.21-.64.21-.67h90.45c-.76-4.51-6.34-5.41-9.32-8.13.88,0,2.03.17,2.78-.2,2.97,2.55,9.35,4.05,9.72,8.53Z"/>
  <path class="cls-3" d="M60.07,37.25c.21.04.33.09.48.24.6.62,1.98,5.79,1.07,6.63-.54.5-6.84.34-7.97.24l-.32-.36c.44-1.47,1.14-4.97,2.07-5.96,1-1.07,3.28-.87,4.67-.78Z"/>
  <path class="cls-11" d="M96.96,73.55c.27,3.24-.2,6.83,0,10.12h-3.17s0-10.12,0-10.12h3.17Z"/>
  <path class="cls-5" d="M96.96,83.86c1.49.12,2.25,1,2.39,2.47.18,1.93.37,5.19-2.19,5.46-.88.09-1.88-.06-2.78,0,.24-.37.66-.48.99-.89.79-.99.73-3.3.61-4.57s-.72-1.82-1.8-2.47c.9.01,1.9-.07,2.78,0Z"/>
  <path class="cls-11" d="M64.63,44.98c-3.82-.02-7.76-.19-11.51-.2-.05-.31.12-.54.2-.79,1.31-.22,7.36.37,8.05-.18.99-.79-1.04-5.38-1.31-6.57.73.04,1.04-.05,1.73.35,1.67.99,2.13,5.59,2.83,7.38Z"/>
  <path class="cls-3" d="M48.3,27.79c.23.2,2.55,3.25,2.6,3.46.26,1.05-.72,2.07-1.75,1.75-.62-.19-3.17-3.41-3.28-4.07-.23-1.38,1.36-2.04,2.43-1.14Z"/>
  <path class="cls-3" d="M70.13,27.36c1.18-.22,1.95.98,1.49,2.1-.09.23-2.43,3.18-2.63,3.32-1.32.94-2.65-.3-2.03-1.83.23-.56,2.61-3.49,3.17-3.59Z"/>
  <path class="cls-3" d="M59.82,28.37c.67.63.7,5.42-.08,5.91-.54.34-1.54.31-1.95-.22s-.43-4.24-.26-5.01c.23-1.04,1.66-1.27,2.29-.68Z"/>
  <path class="cls-4" d="M78.91,49.74h-3.17c-.06.17-.12.17-.2,0-.81-2.33-2.11-4.06-4.56-4.76,5.36.13,5.34.28,7.93,4.76Z"/>
  <path class="cls-8" d="M51.88,33.51c1.77-.32,2.33,2.6.48,2.84s-2.22-2.52-.48-2.84Z"/>
  <path class="cls-8" d="M58.23,24c2.21-.65,2.68,2.16,1.06,2.65-1.77.54-2.51-2.23-1.06-2.65Z"/>
  <path class="cls-8" d="M65.37,33.51c1.25-.23,2.19,1.31,1.15,2.36-1.84,1.88-3.52-1.93-1.15-2.36Z"/>
  <path class="cls-2" d="M43.9,49.74h16.46c.32,0,.48.99.51,1.28.29,3.21.29,9.7,0,12.91-.04.44-.05.86-.4,1.18h-16.46c-.09-.05-.4-.36-.4-.4v-14.68c0-.05.23-.2.3-.3Z"/>
  <path class="cls-2" d="M75.54,49.74h.2l8.53,15.47c-6.04.01-13.26.47-19.15,0-.38-.03-.72-.12-1.08-.21v-14.98c0-.22.48-.28.68-.31,3.06-.36,7.59.01,10.82.01Z"/>
  <path class="cls-3" d="M27.93,55.1h4.66c.09,0,.73.46.79.59.19.4.18,5.5.08,6.24-.06.48-.34.91-.87.91h-4.66v4.86s-.46.5-.5.5h-6.74s-.3-.28-.3-.3v-5.06h-4.86c-.08,0-.45-.23-.51-.33-.3-.48-.3-6.65,0-7.08.06-.08.64-.33.71-.33h4.66v-5.06s.28-.3.3-.3h6.74s.5.46.5.5v4.86Z"/>
  <path class="cls-7" d="M19.95,85.89c3.47-.53,5.91,3.04,4.38,6.16-1.25,2.54-5.07,2.93-6.88.8-2.12-2.5-.77-6.47,2.5-6.96Z"/>
  <path class="cls-7" d="M79.45,85.89c3.59-.6,6.25,3.27,4.27,6.45-2.07,3.32-7.33,2.03-7.74-1.89-.22-2.07,1.4-4.21,3.47-4.56Z"/>
</svg>