<?xml version="1.0" encoding="UTF-8"?>
<svg id="Layer_8" data-name="Layer 8" xmlns="http://www.w3.org/2000/svg" viewBox="0 0 100.28 100.28">
  <defs>
    <style>
      .cls-1 {
        fill: #a8afba;
      }

      .cls-2 {
        fill: #e3e7ea;
      }

      .cls-3 {
        fill: #d4a788;
      }

      .cls-4 {
        fill: #c5e993;
      }

      .cls-5 {
        fill: #b8835e;
      }

      .cls-6 {
        fill: #a3d3fe;
      }

      .cls-7 {
        fill: #927661;
      }

      .cls-8 {
        fill: #38a7d1;
      }

      .cls-9 {
        fill: #636c77;
      }

      .cls-10 {
        fill: #d5af94;
      }

      .cls-11 {
        fill: #4fbfe7;
      }
    </style>
  </defs>
  <path class="cls-4" d="M41.11,54.5v-.48c1.43-1.1,1.61-3.51.34-4.8l.07-.47-.37-.65c.29-5.04-1.29-10.39-5.33-13.63l-.25-.71.1-24.03c.18-.36.76-.44,1.12-.52,1.81-.4,3.7-.54,5.56-1.01,5.7-1.45,10.98-4.33,15.8-7.61l18.75-.05c6.65,4.61,14.05,7.9,22.17,8.83l.51.72.05,28.71c-.81,13.49-11.86,25.61-23.2,31.82-1.84,1.01-7.39,3.75-9.25,3.51-1.26-.16-3.62-1.19-4.86-1.73-8.39-3.64-16.2-10.27-21.21-17.9Z"/>
  <path class="cls-6" d="M41.11,77.9c-.07.4-.38.76-.9,1.05-4.13,7.38,8.76,7.28,4.7.02-.54-.31-.85-.67-.92-1.07l-.39-.7c.04-2.51-.38-5.01-1.35-7.33l.09-.8c4.51,1.4,10.46.31,10.89,6.46.5,7.19-.4,14.94,0,22.19-.11,1.26-.24,1.63-1.54,1.75-7.02.64-16.06-.02-23.31,0l-.41-.14.05-20.56c.15-.42.56-.48.95-.27.69.64,1.18.91,2,.26l6.99-10.32.48.03c.45-.25.64-.03.88.36.74,1.17,1.31,2.55,1.67,3.88.43,1.54.96,3.88.11,5.2Z"/>
  <path class="cls-6" d="M15.24,68.25l.45-.07,7.24,10.59c.49.44,1,.52,1.53.1.61-.69,1.1-.76,1.46-.2v20.55s-.41.25-.41.25c-8.07-.01-16.18.1-24.22-.11l-.51-.51-.12-24.13c.09-1,.5-2.16,1.23-2.87,1.73-1.68,7.25-2.07,9.66-2.76l.26.43-1.32,4.13c-3.34,1.51-5.53,5.47-5.85,9.09-.25,2.71.72,3.77,2.81,5.25l.45-.1c3.38,2.05,3.96-3.97.15-2.55l-.39-.22c-1.34.1-.98-2.36-.78-3.34,1.58-7.76,7.57-8.17,9.55-.2.25,1.03.73,3.72-.76,3.53-.12.13-.28.22-.46.17-3.93-1.05-2.79,4.95.39,2.49l.48.21c.28-.48.74-.82,1.38-1.05,3.5-3.04-.65-12.17-4.76-13.42-.18-.55,1.44-4.55,1.93-5.04.16-.16.41-.19.63-.21Z"/>
  <path class="cls-3" d="M37.62,46.49c.27,1.59.39,3.1.49,4.71l-.29.42c-.06,1.38-.13,2.75-.21,4.11-.13,2.45-.73,4.03-2.26,5.95.27.78-1.27,2.36-2.05,2.05-.49,1.33-2.74,1.96-4.12,2.23-3.05.61-6.54-.08-8.82-2.03-.46-.25-1.76-1.25-2.07-1.68l.02-.57c-1.49-1.86-2.14-4.43-2.26-6.78-.11-.13-.21-.25-.29-.4-.32-.57-.3-5.39,0-5.97.08-.14.18-.28.28-.4-.65-.56-.62-1.88.25-2.03,5.43-.24,10.13-3.18,14.26-6.49.7-.57,1.02-.52,1.49.25,1.51,2.33,3.16,4.78,5.62,6.12l-.07.5Z"/>
  <path class="cls-9" d="M35.56,33.76c4.7,3.4,6.44,9.38,5.95,14.99l-.37.28c-1-.48-2.1-.64-3.29-.48-.11-.67-.19-1.35-.24-2.06-.24-.34-1.12-.67-1.53-1.03-1.98-1.73-3.35-3.72-4.73-5.95-4.38,3.54-9.45,6.92-15.3,6.98,0,.55.01,1.1,0,1.64l-.27.41c-1.07-.12-2.06.01-2.99.41l-.44-.2c-.2-3.96.02-7.3,2.09-10.74,4.35-7.23,14.24-9.21,21.11-4.25Z"/>
  <path class="cls-2" d="M19.9,66.84l.09.09c2.26,3.11,4.55,6.18,6.89,9.2l6.97-9.16.47.05c.04-.15.11-.3.27-.36.23-.1,3.2.71,3.43,1.18.55-.27.81.18.41.62l-7.18,10.58c-.32.3-.9.53-1.33.5-.71-.05-.91-.77-1.55-.81v20.74c-.96,0-1.92,0-2.88,0v-20.94c-.96.85-1.7,1.57-2.88.52l-7.38-10.79c-.44-.45.09-.88.62-.62,1.04-.34,2.1-.67,3.18-.97l.74-.14c.06-.18.05.14.12.31Z"/>
  <path class="cls-1" d="M20.37,63.94c-.54.91-.5,1.68-.38,2.75l1.28.35-.69-.27-.37-.86c.34-1.9-1.92-1.28-3.87,1.06l-.56.61c-.18.22-.42.5-.54.67-1.07,1.53-1.63,3.39-2.26,5.13,4.42.97,8.38,10.88,4.72,13.85-.46.37-1.14.49-1.63.73-.29-.24-.36-.67-.19-1.29-.18-.6-.25-1.12-.22-1.58,1.35-1.14.23-4.07-.37-5.48-1.86-4.32-4.94-4.87-7.06-.41-.72,1.52-1.84,4.53-.58,5.89.03.44-.04.94-.23,1.5.19.57.2,1.02.03,1.37-6.09-1.52-2.38-11.1,1.04-13.64.44-.33,1.53-.71,1.59-.78.16-.18,1.02-3.53,1.48-4.48,1.5-3.12,3.82-5.6,6.78-7.39.54.68,1.83,1.29,2.05,2.26Z"/>
  <path class="cls-1" d="M42.34,69.07c1.3,2.73,1.79,5.82,1.64,8.83-.3.3-.8.37-1.5.21-.65.17-1.11.1-1.37-.21.21-3.17-.51-6.15-2.13-8.86-.17-.29-.44-.43-.54-.58-.15-.22-.2-.34-.41-.62-1.13-.85-2.27-1.72-3.4-2.6l-.29-.68c-.53.37-1.16-.25-1.03-.82.74-.53,1.48-1.34,2.05-2.05,2.91,1.61,5.55,4.38,6.98,7.39Z"/>
  <path class="cls-5" d="M37.62,46.49c.4.57.11,1.55.2,1.64.08.08,1.73-.05,2.14.01.15.02,1.47.55,1.55.6,1.74,1.26,1.52,4.69-.41,5.75-1.01.55-2.18.41-3.29.41-.2-1.08-.11-2.2,0-3.29,0-.12-.2-.41-.21-.71-.05-1.47.04-2.96,0-4.43Z"/>
  <path class="cls-5" d="M16.06,48.13c-.05,2.17-.11,4.62,0,6.78-1.77.1-3.45.09-4.48-1.57-.86-1.4-.55-3.58.79-4.59,1.03-.77,2.49-.62,3.7-.62Z"/>
  <path class="cls-10" d="M37.82,54.91c0,.27.1.68-.21.82.07-1.33-.22-2.86.21-4.11.04,1.08.02,2.2,0,3.29Z"/>
  <path class="cls-11" d="M56.71,26.78c2.77-1.2,5,.67,6.99,2.4,1.37,1.2,2.68,2.54,3.83,3.94,1.28-1.22,2.56-2.51,3.82-3.86,1.79-1.7,4.67-3.77,7.12-2.48,2.37-.08,5.67-.32,7.78.74,1.12.57,5.44,4.66,6.18,5.73,1.2,1.73-.4,3.69-2.1,2.93-1.15-.52-3.22-3.3-4.47-4.05.1,2.19-.14,4.5,0,6.67.26,3.91,1.51,8.24,1.65,12.11.1,2.74-2.45,3.74-4.29,1.83l-3.1-10.96-2.88,11.7c-1.81,1.08-4.17.73-4.69-1.6.99-6.29,1.54-12.59,1.63-18.91l-2.39,2.48c-1.28,1.32-3,1.77-4.36.28-1.29,1.88-3.11.76-4.31-.53l-2.14-2.25c-.87.35,1.36,16.61,1.67,18.77-.31,2.21-3.25,3.26-4.71,1.56l-2.88-11.29c-.32.03-.31.31-.39.53-1.22,3.08-1.43,7.06-2.75,10.18-.83,1.6-3.95,1.13-4.23-.56-.08-.51-.04-1.3,0-1.83.24-3.79,1.38-7.91,1.64-11.71.14-2.11-.1-4.34,0-6.46-1.89.67-3.89,5.19-6.14,3.99-1.09-.58-1.24-1.78-.54-2.77s5.22-5.33,6.26-5.85c1.99-1.02,5.55-.79,7.81-.71Z"/>
  <path class="cls-8" d="M57.94,53.27c.58-.27.82.37,1.54.42,1.32.1,2.52-.65,2.77-1.98-.83-6.52-2.05-12.97-1.64-19.59,1.91,1.17,4.82,6.7,6.78,2.87,2.7,3.59,4.97-1.41,7.18-2.87.44,6.62-.94,13.04-1.63,19.58.14,1.37,1.45,2.1,2.74,1.96.71-.08,1.29-.93,1.56-.19.03,2.34,1.73,6.49-1.49,7.44-2.57.75-3.79-.18-4.56-2.51-1.47-4.42-2.08-9.36-3.7-13.76l-3.65,14.21c-.64,2.18-3.06,2.84-4.98,1.81-2.64-1.41-.9-5.09-.92-7.4Z"/>
  <path class="cls-7" d="M66.31,8.35c9.17-1.34,10.12,11.49,2.36,12.62-8.72,1.28-10.05-11.5-2.36-12.62Z"/>
  <path class="cls-8" d="M78.47,26.78c-.7.02-1.4-.05-2.1.05-3.63.51-6.45,4.79-8.98,7.13-.02-.43-.26-.72-.51-1.03-.74-.9-4.35-4.37-5.25-5.01-1.58-1.12-3.09-1.08-4.91-1.14,1-1.42,2.65-2.35,4.31-2.77,2.19-.56,9.8-.58,12.16-.26,1.9.26,4.14,1.5,5.29,3.03Z"/>
  <path class="cls-5" d="M79.66,15.75c6.19-.84,7.05,8.75.97,9.19s-6.9-8.39-.97-9.19Z"/>
  <path class="cls-5" d="M51.65,17c4.3-4.31,10.77,2.48,6.5,6.61-4.41,4.27-10.73-2.37-6.5-6.61Z"/>
  <path class="cls-9" d="M43.98,77.9c3.56,1.28,2.72,7.79-2.31,6.93-3.36-.58-3.73-5.79-.56-6.93.75-.27,2.12-.27,2.87,0Z"/>
  <path class="cls-9" d="M7.64,85.09c.75-.62,2.21-.54,2.88.15,1.98,2.04-1.36,4.99-3.09,2.72-.62-.81-.61-2.2.21-2.87Z"/>
  <path class="cls-9" d="M15.65,85.09c.77.65.73,1.99.41,2.87-1.05.5-2.09,1.57-3.29.11-1.7-2.08,1.09-4.48,2.88-2.98Z"/>
  <path class="cls-5" d="M33.3,63.74c.35.18.77.65,1.03.82.54.52.7,2.13,0,2.46l-7.49,9.85-7.29-9.85c.17-1.15-.58-2.65.82-3.08.61-.19,1.79.78,2.53,1.06,3.49,1.35,7.36.92,10.41-1.27Z"/>
  <path class="cls-5" d="M23.39,58.44c.79-.23,1.97.52,3.03.58,1.56.09,1.8-.36,2.93-.58,1.17-.23,2.12.38,1.86,1.65-.48,2.37-7.73,2.37-8.64.3-.31-.71.11-1.75.82-1.96Z"/>
  <path class="cls-5" d="M20.65,52.99c-1.83-1.79.91-4.81,2.91-3.02s-.9,4.98-2.91,3.02Z"/>
  <path class="cls-5" d="M30.99,49.61c3.25-.74,3.68,3.61.89,3.98-2.41.31-3.11-3.47-.89-3.98Z"/>
</svg>