<?xml version="1.0" encoding="UTF-8"?>
<svg id="Layer_8" data-name="Layer 8" xmlns="http://www.w3.org/2000/svg" viewBox="0 0 96.69 96.71">
  <defs>
    <style>
      .cls-1 {
        fill: #92dbf8;
      }

      .cls-2 {
        fill: #d3e3f4;
      }

      .cls-3 {
        fill: #55d0f4;
      }

      .cls-4 {
        fill: #cbe5fc;
      }

      .cls-5 {
        fill: #de646e;
      }

      .cls-6 {
        fill: #e1eff9;
      }

      .cls-7 {
        fill: #febea7;
      }

      .cls-8 {
        fill: #0aafaf;
      }

      .cls-9 {
        fill: #3fc2e7;
      }

      .cls-10 {
        fill: #0fbdbd;
      }

      .cls-11 {
        fill: #afe9f9;
      }

      .cls-12 {
        fill: #cfe3f1;
      }

      .cls-13 {
        fill: #8298fd;
      }

      .cls-14 {
        fill: #66d4f3;
      }

      .cls-15 {
        fill: #fefefe;
      }

      .cls-16 {
        fill: #fdfefe;
      }

      .cls-17 {
        fill: #6a85f1;
      }
    </style>
  </defs>
  <path class="cls-9" d="M47.73,1.19c.53.34,1.28.63,1.31,1.38-.5,7,.63,14.84,0,21.74-.07.72-.21,1.18-.93,1.49l-22.29.08c-.52.13-1.82-1.15-1.67-1.67-.33-.42.03-.56.48-.58,7.16.06,14.34.04,21.56-.05.47-.24.59-.64.62-1.16.15-6.33.12-12.66-.11-19-.02-.73.02-1.44.47-2.05-.16-.05-.16-.11,0-.19h.56Z"/>
  <path class="cls-11" d="M47.17,1.19v.19l-.13.37H5.82l-.23-.37v-.19h41.58Z"/>
  <path class="cls-3" d="M5.59,1.38h41.58c-.47,6.78.62,14.39,0,21.08-.07.72-.21,1.19-.93,1.49-7.01.22-14.06,0-21.08.08-.31,0-.83-.12-1.02.19l-.54.09c-1.94-1.18-4.41-1.13-6.35.01l-.53-.1-.84.36c-3.79-.06-7.59-.11-11.38-.17l-.22-.37c-.56-6.74.42-14.24,0-21.07.1-.86.36-1.45,1.3-1.58Z"/>
  <path class="cls-13" d="M11.72,34.61c.37,8.15.52,16.31.23,24.48l-.23,1.88c.1.81.14,1.62.09,2.43,10.18.12,20.36.18,30.54.17.03-.17.1-.16.19,0,14.19-.4,28.38-.5,42.57-.25-.34-.79-.36-1.57.13-2.35-.17-.03-.16-.1,0-.19-.15-2.59-.15-5.2,0-7.8-.24-2.54-.24-5.13,0-7.8.36-2.43,1.84-4.07,4.46-3.53l.48.35c.24,7.54.21,15.21.08,22.78-.03,1.68-1.63,3.55-3.32,3.71-27.4.04-54.81.06-82.21.05l-.23-.34c-.11-.44-.16-.74-.19-1.2-.73-10.49.52-21.86.06-32.45.85-4.4,6.48-4.55,7.38.04Z"/>
  <path class="cls-3" d="M77.06,45c3.69.24,7,3.28,7.8,6.87.32.16.31.77.19,1.11.02,2.67.08,5.27.19,7.8,0,.06,0,.12,0,.19l-.13.37h-42.34l-.23-.37c-.26-5.32-.26-10.64,0-15.96,2.8-.12,5.7-.15,8.68-.09.18-.36.36-.36.55,0,8.5-.06,16.93-.02,25.3.09Z"/>
  <path class="cls-6" d="M11.72,34.61c.41,2.09.08,4.35.19,6.5l.94-1.37c1.62-1.32,3.52-1.43,5.18-.11l.48-.08c4.23,4.38,8.7,8.78,13.42,13.22l6.59.05c.43.05.84.17,1.23.36.14,0,.37.04.37.12.13,2.56.02,5.29-.13,7.83l-.37.22H12.13s-.23-.37-.23-.37c-.05.16-.11.16-.19,0-.08-8.78.06-17.58,0-26.36Z"/>
  <path class="cls-10" d="M62.02,28.48c.68-.62,2.85-.62,3.53,0,3.03.09,5.25.2,7.7,2.23,4.33,3.59,3.09,9.14,3.25,14.1-1.47.13-2.99.15-4.46,0l-.4-.31.08-3.21c.38-2.41-2.05-3.28-1.99-.44l.11,3.66-.4.3c-3.34.15-6.69.15-10.02,0l-.4-.31.08-3.21c.38-2.41-2.05-3.28-1.99-.44l.11,3.66-.4.3c-1.75.1-3.5.13-5.26.09l.06-8.26c.4-5.74,5.29-8,10.4-8.17Z"/>
  <path class="cls-17" d="M86.53,70.99c-.74.56-1.84.55-2.6,0-1.57.11-3.15.22-4.72.29-1.57.08-3.15.15-4.72.16-20.48.19-41.01.38-61.47-.46-.76.55-1.86.56-2.6,0-2.43-.06-5.17.23-5.94-2.78l82.62-.08c1.6-.46,2.56-1.72,2.78-3.35-.31-7.27.4-14.87,0-22.1-.02-.35-.09-.68-.19-1.01,1.59.33,2.62,1.49,2.95,3.08v22.99c-.87,3.44-3.22,3.2-6.11,3.26Z"/>
  <path class="cls-12" d="M13.02,70.99c.15.04.36.1.37.22.04.74.17,5.94,0,6.19-.09.14-.21.23-.37.27l.18-.37h70.5l.23.37c-.15-.04-.36-.1-.37-.22-.1-1.27-.2-5.08,0-6.19l.37-.27c.86,0,1.74.02,2.6,0v17.26c-.29.27-.73.32-1.32.17-.65.16-1.14.1-1.47-.17.21-.31.18-.66.19-1.01.06-1.77.2-4.66,0-6.33-.02-.19-.08-.64-.29-.64H13.29c-.2,0-.27.45-.29.64-.29,2.45.23,5.12.2,7.53.36.69.34,2.89-.16,3.52-.72.9-2.04.71-2.66-.21-.44-.66-.63-3,.04-3.49-.11-5.75.08-11.52,0-17.26.86.02,1.74,0,2.6,0Z"/>
  <path class="cls-5" d="M42.35,44.82c.11,2.76.14,5.6.09,8.5-.83.42-1.88.29-2.69-.15-2.65.03-5.33.06-7.98-.1-3.35-3.27-6.74-6.52-10.13-9.74-1.12-1.07-2.51-2.84-3.62-3.72,1.19-1.15,2.68-2.3,3.53-3.71.17-.53,1.91-1.35,2.23-.74,1.3-.16,2.62.3,3.62,1.12l8.64,8.44c2.1.19,4.21.08,6.31.1Z"/>
  <path class="cls-7" d="M69.64,15.49c.41-.53,2.24.15,2.41.74,2.38,5.28-1.02,11.06-6.5,12.25-1.07-.03-2.46-.04-3.53,0-.71-.5-1.56-.66-2.35-1.08-3.05-1.64-4.84-5.19-4.49-8.64.1-.96.62-1.87.72-2.71.2-.22.43-.45.72-.54,2.16-.68,10.99-1.48,12.66-.34.13.09.25.2.36.32Z"/>
  <path class="cls-10" d="M69.64,5.46l.37.17v9.63l-.37.22c-4.58-.92-9.23-.47-13.74.56.17-1.42-.31-9.63.02-10.01,4.51-1.37,9.1-1.44,13.72-.58Z"/>
  <path class="cls-7" d="M24.15,24.21c.54.39,1.31,1.12,1.67,1.67,1.56,2.34,1.43,5.37-.29,7.6l-1.75,1.69c-.71.09-1.43.65-2.23.74-5.55.64-9.55-5.3-6.5-10.02-.4-.71.92-1.61,1.67-1.67,2.21-1.5,5.23-1.56,7.43,0Z"/>
  <path class="cls-12" d="M42.53,45v15.96c.61.14.57,2.33,0,2.6-.06,0-.12,0-.19,0l-30.52-.09c-.06-.87-.04-1.7.08-2.51h27.85s0-7.8,0-7.8c.86,0,1.74,0,2.6,0v-8.35c.06,0,.12,0,.18,0,.16.05.16.11,0,.19Z"/>
  <path class="cls-10" d="M86.53,88.25c.14.05.77.51.93.64,2.93,2.33,1.65,6.98-2.13,7.16-5.07.24-5.79-6.49-1.59-7.8.8-.25,1.99-.28,2.78,0Z"/>
  <path class="cls-10" d="M10.42,88.25c.02,1.21-.45,3.73,1.22,3.9,1.82.19,1.34-2.09,1.37-3.26,0-.24.19-.43.19-.45,4.34,2.03,2.55,8.15-2.32,7.61-4.02-.44-4.48-6.73-.46-7.8Z"/>
  <path class="cls-8" d="M69.64,5.46c.38.07,2.34.33,2.42.68v10.09c-.76-.15-1.72-.6-2.42-.74V5.46Z"/>
  <path class="cls-9" d="M16.73,24.21c-.45.31-1.38,1.23-1.67,1.67H5.51c-.98-.27-1.14-.94-1.22-1.86l12.44.19Z"/>
  <path class="cls-14" d="M51.63,36.65c-.19,2.65.14,5.5,0,8.17,1.73,0,3.47,0,5.2,0,.86-.36,1.74-.37,2.6,0,3.34,0,6.69,0,10.02,0,.86-.36,1.74-.37,2.6,0,1.48,0,2.98-.05,4.46,0,.2,0,.47-.06.56.19h-34.53v-.19c2.97.02,5.94-.02,8.91,0l.18-8.17Z"/>
  <path class="cls-4" d="M85.23,52.98c-.05.16-.11.16-.19,0,0-.43-.19-.82-.19-1.11.02-2.08.07-4.64.37-6.68v7.8Z"/>
  <path class="cls-15" d="M30.28,17.9l1.63-3.84c.37-.82,1.18-.92,1.98-.99,1.17-.1,5.77-.14,6.64.24,1.2.53.86,2.24-.36,2.51-.94.21-5.93-.14-6.16.06l-2.54,6.46c-.48.69-1.63.85-2.12.11-1.9-4.34-3.51-8.84-5.2-13.27l-2.7,5.92-.81.67-7.49.04c-1.72-.78-1.32-2.48.53-2.73.95-.13,5.5.16,5.81-.04l3.48-8.13c.49-.73,1.32-.92,2.03-.39,2.05,4.31,3.58,8.9,5.29,13.37Z"/>
  <path class="cls-16" d="M40.35,6.53c-.71-.77-.18-2.1.83-2.33,1.18-.26,4.59-.39,4.79,1.23.26,2.13-5.01,1.75-5.61,1.09Z"/>
  <path class="cls-15" d="M40.81,8.28c.4-.12,3.98-.11,4.38,0,.86.25.96,1.78.32,2.28-.51.4-3.97.41-4.65.2-1.12-.34-1.03-2.19-.04-2.48Z"/>
  <path class="cls-9" d="M85.23,60.97c0,.86,0,1.74,0,2.6-14.23,0-28.47,0-42.7,0v-2.6h42.7Z"/>
  <path class="cls-2" d="M11.9,60.97v2.41s30.44.18,30.44.18c-10.21,0-20.42,0-30.63,0,0-.86,0-1.74,0-2.6h.19Z"/>
  <path class="cls-1" d="M85.23,60.78c-.31-.19-.18-.7-.19-1.02-.03-2.26,0-4.52,0-6.78h.19c0,2.6.02,5.2,0,7.8Z"/>
  <path class="cls-8" d="M59.43,44.82c-.86,0-1.73,0-2.6,0,.19-1.52-.26-3.67,0-5.1.16-.85,1.28-1.28,2.03-.74,1.09.78.34,4.51.56,5.84Z"/>
  <path class="cls-8" d="M72.05,44.82c-.86,0-1.73,0-2.6,0,.19-1.52-.26-3.67,0-5.1.16-.85,1.28-1.28,2.03-.74,1.09.78.34,4.51.56,5.84Z"/>
</svg>