<?xml version="1.0" encoding="UTF-8"?>
<svg id="Layer_8" data-name="Layer 8" xmlns="http://www.w3.org/2000/svg" viewBox="0 0 100.28 100.28">
  <defs>
    <style>
      .cls-1 {
        fill: #feed93;
      }

      .cls-2 {
        fill: #79b490;
      }

      .cls-3 {
        fill: #039da0;
      }

      .cls-4 {
        fill: #029da1;
      }

      .cls-5 {
        fill: #f6bea8;
      }

      .cls-6 {
        fill: #8795da;
      }

      .cls-7 {
        fill: #e16186;
      }

      .cls-8 {
        fill: #29cfb2;
      }

      .cls-9 {
        fill: #fef9e2;
      }

      .cls-10 {
        fill: #049da2;
      }

      .cls-11 {
        fill: #9e1959;
      }

      .cls-12 {
        fill: #019da1;
      }

      .cls-13 {
        fill: #cde8fe;
      }

      .cls-14 {
        fill: #f2e0c0;
      }

      .cls-15 {
        fill: #fe85ad;
      }

      .cls-16 {
        fill: #009da1;
      }

      .cls-17 {
        fill: #d9387d;
      }

      .cls-18 {
        fill: #fbdb45;
      }

      .cls-19 {
        fill: #586db9;
      }

      .cls-20 {
        fill: #009ca1;
      }

      .cls-21 {
        fill: #9bcf69;
      }
    </style>
  </defs>
  <path class="cls-14" d="M12.59,12.17l.41.46-.06,5.93c-.32,5.42,2.6,10.13,7.98,11.2l.18.4.14-.39h32.17l.24.39.06.42c-2.56,1.27-4.55,3.08-5.95,5.44l-.57.2-.62.39-7.56-.17c-2.15-.26-4.02.05-5.61.93-3.94,5.92,4.03,6.02,8.16,5.5l.54.39.19.7c-1.46,4.71-.04,9.73,3.55,13.08l.18.69-.62.39c-3.45-.19-6.9-.18-10.34.02-1.09.16-1.96.79-2.41,1.79-2.22,4.91,5.27,4.95,8.21,4.46l.47.39.17.55-.85,1.84c-.24,1.43-.64,2.77-1.2,4.02-2.82,1.76-2.77,4.73-2.61,7.69l-.39.37-.25.4c-5.29-.33-5.01,6.9.2,6.24l.25.4c.04-.17.1-.17.2,0l.48.59c.78,4.62,3.45,8.7,6.91,11.78l.23.72c-11.95,0-23.91,0-35.87,0-2.93-.32-5.24-2.59-5.39-5.56l.03-76.82c1.42-5.35,4.95-4.66,9.37-4.81Z"/>
  <path class="cls-21" d="M72.8,35.04c.69.74,1.05,1.7,1.66,2.5,3.95-1.51,8.7.21,11.24,3.47.7.9,1.06,2.32,1.56,2.94.29.36,1.52.84,2.06,1.27,2.85,2.26,3.34,5.75,2.21,9.04-.14.41-.57.81-.64,1.09-.1.47.25,1.37.25,1.88,0,1.22-.46,2.78-1.13,3.81l-.53.05c-3.28-2.46-7.59-.08-10.31,2.18l-.49-.08c-.87.08-1.8-1.41-2.24-2.17-.22-.38-.74-1.28-.74-1.66,0-.28.08-.43.24-.67-.36-.13-.5-.56-.44-1.29l-1.27-.38-2.15,2.76-.44-.11c-.42,1.63-5.98,3.51-6.78,2.98-.1-.07-.18-.15-.26-.24l-.18-.5c.92-1.14,1.57-6.69.17-7.27-1.6-.66-7.41,2.76-8.06,4.68l-.53.16c-.33.37-.6.24-.92-.09-.92-1.12-1.73-2.32-2.43-3.6-.83-.04-1.41-.31-1.73-.81-.9.47-2.26-.78-2.93-1.46-1.91-1.95-2.78-4.95-2.19-7.62.21-.95.59-2.41,1.6-2.65-.28-.29-.16-.5.15-.72l2.75-1.86c.37-1.5.75-2.94,1.77-4.14l.81-.32c.05-1.14,2.07-1.89,3.12-2.2,2.06-.61,3.77-.43,5.7.36,2.37-2.31,5.88-2.73,8.88-1.38.93.42,2.05.96,2.23,2.05Z"/>
  <path class="cls-6" d="M58.53,11.98c.17.06.17.13,0,.2l.41.23c.34,1.55.29,7.85-.1,9.41-.48,1.95-2.07,3.41-3.99,3.92-8.66,0-17.35.12-26.07.36-2.49-.02-5-.06-7.45-.37-1.93-.25-3.51-1.8-4.11-3.58-.44-1.31-.67-8.95-.17-10.02l.42-.16c.31-1.69,1.21-3.19,2.88-3.87,1.22-.5,2.53-.22,3.56-.93,1.22-.85.88-1.68,1.29-2.82.76-2.15,2.42-3.36,4.68-3.53,5.3-.39,11.08.32,16.44,0,2.27.25,3.67,1.47,4.45,3.57.32.87.12,1.44.82,2.31,1.03,1.3,2.24.82,3.62,1.27,1.72.55,3.12,2.2,3.33,4.01Z"/>
  <path class="cls-5" d="M17.48,11.98c-.37,2.02-.45,8.4.18,10.28.67,1.97,2.61,3.07,4.6,3.22,10.22.76,21.37-.6,31.68,0,2.03-.04,4.21-1.87,4.54-3.87.33-1.97.21-7.31.05-9.43,1.53-.11,3.09-.11,4.69,0l.39.13v9.51l-.39.23.38.26c-.54,2.69-2.27,5.16-4.54,6.67l1.69.2c3.64-1.97,7.77-2.13,11.68-.58l.38.58v5.86c-2.25-2.42-6.21-3.13-9.17-1.64-.46.23-1.79,1.39-1.91,1.41s-1.8-.67-2.34-.73c-2.27-.26-4.88.54-6.53,2.13l-.75.39h-4.64l-.29-.39c.86-1.48,1.61-2.68,2.93-3.81l3.52-2.25H21.1c-1.38,0-4.02-1.43-5.08-2.35-4.69-4.07-3.17-10.1-3.43-15.63.11,0,.39-.19.67-.2,1.4-.05,2.81.04,4.21,0Z"/>
  <path class="cls-7" d="M55.99,99.36c-5.55-.07-10.25-3.59-12.96-8.27l.05-.72.74-.02c4.23,2.71,8.95,3.12,13.96,2.95,6.52-.2,13.03-.29,19.53-.28,5.41-.77,10.44-4.03,12.7-9.1l.58-.39c.04-.17.1-.17.2,0l.33-.25c1.98.38,3.81.21,5.51-.49l.42.15c-.34,8.49-6.66,15.79-15.34,16.43-8.02.59-17.52-.02-25.71,0Z"/>
  <path class="cls-9" d="M90.01,61.04s.31.47.39.59c3.18,3.33,2.2,8.62,1.28,12.72l-.5.38c-1.45.56-3.05.57-4.5,0l-.35-.37c.31-6.79-9.43-6.65-8.93,0l-.3.37c-1.43.38-2.87.39-4.3,0-.58-.24-.35-1.71-.22-2.31.09-.44.23-.93.61-1.21-.12-.11-.26-.24-.28-.41-.1-.87,4.45-7.42,5.26-7.68.16-.05.34.02.49.08,2.76-2.49,8.02-5.26,11.34-2.15Z"/>
  <path class="cls-14" d="M72.8,29.18c-2.9-1.26-6.37-1.66-9.43-.73-.72.22-2.09,1.07-2.62,1.12-.77.07-2.1-.43-3.01-.2l2.24-1.57c1.27-1.1,3.23-4.08,3.23-5.76v-9.87h-4.69c0-.06,0-.13,0-.2l9.63.24c1.9.44,3.53,1.77,4.21,3.61.95,2.6.44,10.16.44,13.35Z"/>
  <path class="cls-5" d="M41.52,86.26c.5.44.83,1.1,1,1.97.49.77.68,1.48.57,2.13,1.89,3.63,5.17,6.66,9.09,8.02,1.25.44,2.53.66,3.82.97-3.84,0-7.69,0-11.53,0-3.9-3.3-6.98-7.92-7.62-13.1,1.38-.58,3.35-.63,4.69,0Z"/>
  <path class="cls-19" d="M95.28,74.73c.64.03,1.6-.16,1.71.72.02,2.49.15,5.01.05,7.49-1.24,1.2-4.05.82-5.78.79-.26,0-.45-.2-.47-.2l-.11-.79c.87-2.33,1.19-4.82,1.11-7.3l.36-.71c.79-.6,2.38-.64,3.13,0Z"/>
  <path class="cls-1" d="M95.28,74.73c-1.03-.05-2.09.01-3.13,0-.31.38-.66.38-.98,0,1.09-4.17,1.79-9.32-.78-13.1,3.8,3.08,5.57,8.3,4.89,13.1Z"/>
  <path class="cls-21" d="M16.26,53.67c1.76-.26,7.35-.27,9.12-.03,1.5.2,2.87,1.49,3.05,3.01.23,1.91.22,7.26,0,9.19-.19,1.64-1.61,2.85-3.23,3.03-2.02.23-6.55.19-8.61,0-1.97-.18-3.21-1.49-3.41-3.43-.2-1.99-.22-6.61.02-8.58.2-1.71,1.35-2.94,3.06-3.2Z"/>
  <path class="cls-21" d="M16.06,32.16c1.59-.27,7.67-.25,9.32-.03,1.5.2,2.87,1.49,3.05,3.01.23,1.85.23,7.35,0,9.2-.2,1.63-1.64,2.85-3.23,3.03-2.02.23-6.55.19-8.61,0s-3.21-1.49-3.41-3.43-.22-6.61.02-8.58c.18-1.53,1.29-2.93,2.86-3.2Z"/>
  <path class="cls-21" d="M14.23,76.17c.55-.55,1.6-.97,2.37-1.05,1.99-.21,6.2-.18,8.22,0,1.94.17,3.38,1.21,3.61,3.23s.2,6.74,0,8.81c-.15,1.63-1.38,3.04-3.04,3.22-2.11.23-6.67.2-8.81,0s-3.21-1.42-3.41-3.43-.19-6.18-.01-8.22c.08-.88.43-1.93,1.06-2.56Z"/>
  <path class="cls-8" d="M47.19,36.22c.21.43.07.91-.44,1.44-1.65,1.59-2.96,3.37-3.95,5.35l-.5.25c-.06.17-.12.17-.2,0-2.1,0-4.72.2-6.74,0-4.6-.46-4.41-6.56-.2-7.04,3.46-.39,8.39,0,12.02,0Z"/>
  <path class="cls-8" d="M46.02,57.72c.06-.52.24-.5.39,0,.92.12,1.66,1.49.99,2.15-2.22.95-4.14,2.58-5.33,4.7l-.54.2c-.06.17-.12.17-.2,0-1.88,0-4.37.2-6.16,0-4.35-.49-4.18-6.59,0-7.04,3.16-.34,7.54,0,10.85,0Z"/>
  <path class="cls-5" d="M47.39,64.76l-.08.59c-2.35,2.27-3.28,5.68-2.92,8.88l-.32.5-.07.26c-.88-.01-1.67.12-2.37.42-.12,1.25-.19,2.51-.21,3.77l-.48.05c-1.2.65-3.25.56-4.5,0,.03-2.47-.4-4.83,1.17-6.94.39-.52,1.54-1.26,1.72-1.61.37-.73.61-2.78,1.02-3.87.27-.71.66-1.36.98-2.05h.2c1.95-.38,3.92-.38,5.86,0Z"/>
  <path class="cls-5" d="M47.39,43.26c-2.9,3.96-1.05,10.05,3.52,11.73.74.62,1.1,1.83.78,2.74-1.76.38-3.52.38-5.28,0h-.39c-4.2-3.69-5.77-9.11-3.91-14.47h.2c1.69-.38,3.39-.38,5.08,0Z"/>
  <path class="cls-20" d="M40.94,79.23l.39.25.18,3.16-.37.31c.58.72.83,2.54.39,3.32-1.56-.03-3.13.04-4.69,0-.07,0-.13,0-.2,0-.85-2.02-.86-4.96-.2-7.04,1.49-.06,3,.05,4.5,0Z"/>
  <path class="cls-8" d="M36.44,79.23c-.03,2.35-.04,4.7.2,7.04-1.33-.04-2.14.17-3.31-.7-2.19-1.63-1.66-5.22.92-6.09.8-.27,1.39-.21,2.2-.25Z"/>
  <path class="cls-2" d="M78.67,63.2c-1.81,1.64-4.79,5.7-5.47,8.02-.68,1.08-1.3,2.2-1.88,3.34l-.47.18c-.58.38-1.18.38-1.76,0l-.3-.5c.67-3.91-.89-8.44-4.7-10.11l-.28-.53c-.5-.49.17-1.35.78-1.17,1.57-.1,3.3-.54,4.7-1.26.47-.24,1.98-1.17,2.34-1.47l.32.45-.7,2.28,4.2-3.8.47.1c.31,1.76,1.55,3.26,2.74,4.5Z"/>
  <path class="cls-8" d="M64.59,62.41c-.19.35-.68.7-.78,1.17l-.54.23c-2.01-.57-4.32-.24-6.03.96-.73.37-2.15-.21-2.23-1-.69-.73-.03-3.23.45-4.09l.53-.21c1.34-2.66,4.76-4.63,7.61-5.19,1.02-.2,1.46-.09,1.83.92.8,2.15.24,5.23-.84,7.2Z"/>
  <path class="cls-20" d="M52.86,36.22c-.57.55-1.21,1.54-1.54,2.28-.25.58-.59,2.24-.71,2.42-.13.2-2.6,1.49-3.23,2.34-1.69,0-3.39,0-5.08,0,.42-1.3,1.24-2.61,2.15-3.62,1.45-1.61,1.57-1.4,2.74-3.42h5.67Z"/>
  <path class="cls-2" d="M50.91,54.98c.54.2,1.68.33,1.95.49.47.29,1.88,3.78,3.13,4-.62,1.23-.93,2.92-.98,4.3-.28.52-1.55-.02-1.56-.59-1.11-1.61-1.74-3.52-1.76-5.47-.28-.9-.57-1.81-.78-2.74Z"/>
  <path class="cls-12" d="M71.63,59.68c.52-.45,2.24-3.05,2.44-3.08.1-.01,1.79.48,1.84.57.14.23-.04,1.15.03,1.54l-5.18,4.69c-.51.04-.21-.08-.14-.34.29-1.14.87-2.2,1.02-3.38Z"/>
  <path class="cls-3" d="M58.87,43.09c1.64-.35,1.99,2.01.49,2.28s-1.93-1.98-.49-2.28Z"/>
  <path class="cls-3" d="M63.37,53.76c-.85.89-2.6.04-2-1.31.69-1.55,3.21.04,2,1.31Z"/>
  <path class="cls-4" d="M80.28,51.12c.89-.93,2.54.12,2,1.31-.7,1.55-3.2-.05-2-1.31Z"/>
  <path class="cls-4" d="M77.15,44.97c-.92-.92.53-2.95,1.72-1.62,1.18,1.32-.84,2.49-1.72,1.62Z"/>
  <path class="cls-4" d="M69.53,48.1c-1.28-1.28,1.29-2.9,2-1.32.6,1.33-1.27,2.05-2,1.32Z"/>
  <path class="cls-13" d="M36.98,9.09c6.2-1.05,6.88,7.33,2.21,8.27-6.44,1.3-7.19-7.43-2.21-8.27Z"/>
  <path class="cls-6" d="M44.07,74.73c.41-.11.82-.22,1.24-.29s.83-.14,1.24-.15c7.09-.19,14.22-.02,21.3.18l1.24.26c.59,0,1.17,0,1.76,0,.65-.38,1.31-.38,1.95,0,1.43,0,2.87,0,4.3,0,3.18-.54,6.4-.55,9.58,0,1.5,0,3-.01,4.5,0,.33,0,.65,0,.98,0,.16,3.05-.19,5.98-1.37,8.8-.07,0-.13,0-.2,0-1.46.17-2.93.34-4.4.34-14.69.06-29.37.11-44.06.04-.39,0-.95-.56-1-.97-.06-1.08-.21-2.75-.2-3.71,0-.03.2-.23.2-.48.01-.82-.17-2.82.1-3.43.39-.88,2.01-.57,2.83-.59Z"/>
  <path class="cls-15" d="M90.59,83.53c-2.18,5.63-7.89,9.34-13.81,9.94-8.14-.4-16.93.62-25,.02-3.2-.24-6-1.52-8.7-3.13-.75-1.44-1.21-2.5-1.56-4.11-.27-1.23-.33-2.08-.39-3.32l1.06.6c16.13.15,32.27-.24,48.39-.01Z"/>
  <path class="cls-18" d="M86.68,74.73c-3.19-.01-6.39,0-9.58,0-.77-2.17.93-4.77,2.99-5.51,3.71-1.34,7.13,1.69,6.59,5.51Z"/>
  <path class="cls-10" d="M73.19,71.21c-.27.91-.33,2.53-.39,3.52-.65,0-1.3,0-1.95,0,.23-.83.77-1.66,1.24-2.37.23-.35.63-1.14,1.1-1.15Z"/>
  <path class="cls-12" d="M22.31,58.74c1.19-.36,2,.66,1.4,1.79-.34.65-3.07,3.24-3.79,3.27-.92.03-2.61-1.62-2.02-2.63.8-1.36,1.89-.1,2.13-.21.54-.24,1.7-2.04,2.29-2.22Z"/>
  <path class="cls-12" d="M22.31,37.23c1.19-.36,2,.66,1.4,1.79-.34.65-3.07,3.24-3.79,3.27-1.06.04-3.21-2.14-1.53-3.12.97-.57,1.34.42,1.64.28.54-.24,1.7-2.04,2.29-2.22Z"/>
  <path class="cls-16" d="M22.31,80.24c1.19-.36,2,.66,1.4,1.79-.15.28-2.68,2.84-3,3.06-1.58,1.06-4.01-2.08-2.45-2.84.84-.41,1.63.27,1.76.21.54-.25,1.7-2.04,2.29-2.22Z"/>
  <path class="cls-20" d="M51.69,57.72c.57,1.82,1.18,3.65,1.76,5.47l-.45.34c-1.77-.14-3.58.27-5.05,1.29l-.56-.07c-1.95,0-3.91,0-5.86,0,1.13-2.32,3.45-4.39,5.87-5.28-.21-.68-.51-1.23-.98-1.76,1.76,0,3.52,0,5.28,0Z"/>
  <path class="cls-17" d="M53.45,63.2c.37.05,1.15.43,1.56.59.5.19,1.27.77,1.66.77.44,0,.85-.5,1.27-.67,1.96-.78,3.83-1.02,5.86-.29,4.4,1.57,6.23,6.84,5.28,11.14-8.29,0-16.76-.23-25.02,0-.6-3.43.57-7.72,3.32-9.97,1.61-1.32,4.01-1.85,6.06-1.56Z"/>
  <path class="cls-11" d="M59.48,66.74c.16.25.02,2.06-.06,2.51-1.28-.2-5.49-2.8-3.34-4.11,1.01-.62,1.51.42,2.2.96.29.23,1.17.59,1.2.65Z"/>
</svg>