<?xml version="1.0" encoding="UTF-8"?>
<svg xmlns="http://www.w3.org/2000/svg" viewBox="0 0 657.84 505.41">
  <defs>
    <style>
      .cls-1 {
        fill: #ec772e;
      }

      .cls-2 {
        fill: #379535;
      }

      .cls-3 {
        fill: #559b5b;
      }

      .cls-4 {
        fill: #2b1f5d;
      }

      .cls-5 {
        opacity: .65;
      }

      .cls-5, .cls-6, .cls-7, .cls-8, .cls-9, .cls-10, .cls-11, .cls-12, .cls-13 {
        mix-blend-mode: multiply;
      }

      .cls-5, .cls-10, .cls-14 {
        fill: #4e67c2;
      }

      .cls-6 {
        opacity: .69;
      }

      .cls-6, .cls-15 {
        fill: #b2b2e0;
      }

      .cls-16 {
        fill: #510000;
      }

      .cls-17, .cls-18 {
        fill: #fff;
      }

      .cls-18 {
        opacity: .31;
      }

      .cls-19 {
        fill: #1d9b87;
      }

      .cls-7, .cls-20, .cls-21, .cls-22 {
        fill: #ff7088;
      }

      .cls-7, .cls-23 {
        opacity: .53;
      }

      .cls-24 {
        stroke-width: .59px;
      }

      .cls-24, .cls-25, .cls-26 {
        stroke: #2b1f5d;
      }

      .cls-24, .cls-25, .cls-26, .cls-27, .cls-28, .cls-29 {
        fill: none;
        stroke-miterlimit: 10;
      }

      .cls-30 {
        fill: #ffede3;
      }

      .cls-8 {
        opacity: .18;
      }

      .cls-8, .cls-9, .cls-11, .cls-12, .cls-31, .cls-13 {
        fill: #2b1f5d;
      }

      .cls-32 {
        fill: #659585;
      }

      .cls-9 {
        opacity: .25;
      }

      .cls-10 {
        opacity: .19;
      }

      .cls-33 {
        isolation: isolate;
      }

      .cls-34, .cls-35, .cls-23 {
        fill: #f39131;
      }

      .cls-25, .cls-26, .cls-27, .cls-28, .cls-29 {
        stroke-width: 1.19px;
      }

      .cls-26 {
        stroke-linecap: round;
      }

      .cls-21 {
        opacity: .72;
      }

      .cls-36 {
        fill: #f29031;
      }

      .cls-37 {
        fill: #f8b77e;
      }

      .cls-35 {
        opacity: .63;
      }

      .cls-11 {
        opacity: .15;
      }

      .cls-38 {
        mix-blend-mode: overlay;
      }

      .cls-22 {
        opacity: .86;
      }

      .cls-27 {
        stroke: #4e67c1;
      }

      .cls-39 {
        fill: #b6cfff;
      }

      .cls-40 {
        opacity: .58;
      }

      .cls-28 {
        stroke: #e5ddfd;
      }

      .cls-29 {
        stroke: #ec772e;
      }

      .cls-41 {
        opacity: .32;
      }

      .cls-12 {
        opacity: .35;
      }

      .cls-42 {
        fill: #cdbefe;
      }

      .cls-13 {
        opacity: .11;
      }

      .cls-43 {
        opacity: .22;
      }
    </style>
  </defs>
  <g class="cls-33">
    <g id="Layer_8" data-name="Layer 8">
      <g>
        <circle class="cls-30" cx="315.51" cy="250.6" r="249.15" transform="translate(-84.79 296.5) rotate(-45)"/>
        <path class="cls-14" d="M487.47,139.14h-3.8v-3.8c0-.62-.5-1.12-1.12-1.12s-1.12.5-1.12,1.12v3.8h-3.8c-.62,0-1.12.5-1.12,1.12s.5,1.12,1.12,1.12h3.8v3.8c0,.62.5,1.12,1.12,1.12s1.12-.5,1.12-1.12v-3.8h3.8c.62,0,1.12-.5,1.12-1.12s-.5-1.12-1.12-1.12Z"/>
        <path class="cls-20" d="M607.1,183.98l-3.92-4.26,4.26-3.92c.69-.63.73-1.72.1-2.4-.63-.69-1.72-.73-2.4-.1l-4.26,3.92-3.92-4.26c-.63-.69-1.72-.73-2.4-.1-.69.63-.73,1.72-.1,2.4l3.92,4.26-4.26,3.92c-.69.63-.73,1.72-.1,2.4.63.69,1.72.73,2.4.1l4.26-3.92,3.92,4.26c.63.69,1.72.73,2.4.1.69-.63.73-1.72.1-2.4Z"/>
        <path class="cls-20" d="M161.46,135.84l-4.34-3.82,3.82-4.34c.62-.7.55-1.78-.15-2.4-.7-.62-1.78-.55-2.4.15l-3.82,4.34-4.34-3.82c-.7-.62-1.78-.55-2.4.15s-.55,1.78.15,2.4l4.34,3.82-3.82,4.34c-.62.7-.55,1.78.15,2.4.7.62,1.78.55,2.4-.15l3.82-4.34,4.34,3.82c.7.62,1.78.55,2.4-.15.62-.7.55-1.78-.15-2.4Z"/>
        <path class="cls-42" d="M73.11,50.79l-4.34-3.82,3.82-4.34c.62-.7.55-1.78-.15-2.4-.7-.62-1.78-.55-2.4.15l-3.82,4.34-4.34-3.82c-.7-.62-1.78-.55-2.4.15s-.55,1.78.15,2.4l4.34,3.82-3.82,4.34c-.62.7-.55,1.78.15,2.4.7.62,1.78.55,2.4-.15l3.82-4.34,4.34,3.82c.7.62,1.78.55,2.4-.15s.55-1.78-.15-2.4Z"/>
        <path class="cls-42" d="M434.92,27.27l-4.34-3.82,3.82-4.34c.62-.7.55-1.78-.15-2.4-.7-.62-1.78-.55-2.4.15l-3.82,4.34-4.34-3.82c-.7-.62-1.78-.55-2.4.15-.62.7-.55,1.78.15,2.4l4.34,3.82-3.82,4.34c-.62.7-.55,1.78.15,2.4.7.62,1.78.55,2.4-.15l3.82-4.34,4.34,3.82c.7.62,1.78.55,2.4-.15.62-.7.55-1.78-.15-2.4Z"/>
        <path class="cls-42" d="M617.78,359.29l-4.34-3.82,3.82-4.34c.62-.7.55-1.78-.15-2.4-.7-.62-1.78-.55-2.4.15l-3.82,4.34-4.34-3.82c-.7-.62-1.78-.55-2.4.15-.62.7-.55,1.78.15,2.4l4.34,3.82-3.82,4.34c-.62.7-.55,1.78.15,2.4.7.62,1.78.55,2.4-.15l3.82-4.34,4.34,3.82c.7.62,1.78.55,2.4-.15.62-.7.55-1.78-.15-2.4Z"/>
        <path class="cls-14" d="M547.47,258.09h-3.8v-3.8c0-.62-.5-1.12-1.12-1.12s-1.12.5-1.12,1.12v3.8h-3.8c-.62,0-1.12.5-1.12,1.12s.5,1.12,1.12,1.12h3.8v3.8c0,.62.5,1.12,1.12,1.12s1.12-.5,1.12-1.12v-3.8h3.8c.62,0,1.12-.5,1.12-1.12s-.5-1.12-1.12-1.12Z"/>
        <path class="cls-14" d="M71.28,195.83h-3.8v-3.8c0-.62-.5-1.12-1.12-1.12s-1.12.5-1.12,1.12v3.8h-3.8c-.62,0-1.12.5-1.12,1.12s.5,1.12,1.12,1.12h3.8v3.8c0,.62.5,1.12,1.12,1.12s1.12-.5,1.12-1.12v-3.8h3.8c.62,0,1.12-.5,1.12-1.12s-.5-1.12-1.12-1.12Z"/>
        <path class="cls-14" d="M362.7,72.24c-3.33,0-6.04-2.71-6.04-6.04s2.71-6.04,6.04-6.04,6.04,2.71,6.04,6.04-2.71,6.04-6.04,6.04ZM362.7,61.08c-2.83,0-5.12,2.3-5.12,5.12s2.3,5.12,5.12,5.12,5.12-2.3,5.12-5.12-2.3-5.12-5.12-5.12Z"/>
        <path class="cls-14" d="M605.9,53.16c-3.33,0-6.04-2.71-6.04-6.04s2.71-6.04,6.04-6.04,6.04,2.71,6.04,6.04-2.71,6.04-6.04,6.04ZM605.9,41.99c-2.83,0-5.12,2.3-5.12,5.12s2.3,5.12,5.12,5.12,5.12-2.3,5.12-5.12-2.3-5.12-5.12-5.12Z"/>
        <path class="cls-14" d="M30.95,308.76c-3.33,0-6.04-2.71-6.04-6.04s2.71-6.04,6.04-6.04,6.04,2.71,6.04,6.04-2.71,6.04-6.04,6.04ZM30.95,297.6c-2.83,0-5.12,2.3-5.12,5.12s2.3,5.12,5.12,5.12,5.12-2.3,5.12-5.12-2.3-5.12-5.12-5.12Z"/>
        <path class="cls-14" d="M129.28,258.22c-3.33,0-6.04-2.71-6.04-6.04s2.71-6.04,6.04-6.04,6.04,2.71,6.04,6.04-2.71,6.04-6.04,6.04ZM129.28,247.05c-2.83,0-5.12,2.3-5.12,5.12s2.3,5.12,5.12,5.12,5.12-2.3,5.12-5.12-2.3-5.12-5.12-5.12Z"/>
        <g>
          <g>
            <g>
              <path class="cls-31" d="M269.39,51.66s6.72-3.55,5.18-12.65c-1.54-9.1-12.37-7.54-12.37-7.54l7.19,20.19Z"/>
              <path class="cls-12" d="M269.39,51.66s6.72-3.55,5.18-12.65c-1.54-9.1-12.37-7.54-12.37-7.54l7.19,20.19Z"/>
              <path class="cls-37" d="M304.54,151.77l46.99,10.11.07,12.05s-67.94,1.77-71.8-.29c-3.86-2.06,24.75-21.87,24.75-21.87Z"/>
              <path class="cls-14" d="M217.19,232.07s-3.83,27.31,8.17,90.5c0,0,7.67,29.53,27.67,16.13,20-13.4,18.56-86.4,18.58-95.2,0,0-48.98-24.77-54.43-11.44Z"/>
              <path class="cls-14" d="M236.5,187.74s-17.46,27.32-19,46.34l55.85,20.76,32.81-9.61s-4.7-43.49-19.63-60.25l-50.03,2.76Z"/>
              <path class="cls-14" d="M265.84,283.97s4.87,39.88,17.59,51.3,27.73-3.54,27.77-16.48c.04-12.94-2.31-78.54-9.85-98.05,0,0-43.12,10.92-35.51,63.23Z"/>
              <path class="cls-8" d="M293.69,337.84c-14.29-22.19-12.69-48.35-13.85-73.87-2.46,1.41-5.27,2.4-7.78,3.76-.88,8.62-2.57,16.06-4.58,24.45-.06.27-.16.5-.24.75,2.23,12.45,7.29,34.36,16.19,42.35,3.72,3.34,7.63,4.41,11.31,3.95-.38-.43-.73-.9-1.05-1.39Z"/>
              <path class="cls-37" d="M293.52,427.42c.1,1.21,3.21,22.22,3.21,22.22l14.36-2.25,1.72-27.18s-20.09-2.36-19.3,7.22Z"/>
              <path class="cls-37" d="M192.06,426.12l7.45-24.1s17.6,10.39,18.42,11.93c.82,1.53-16.06,22.16-16.06,22.16,0,0-12.7-4.63-9.81-9.99Z"/>
              <path class="cls-37" d="M297.78,133.48l10.45,22.63-5.31,12.42-14.5-3.01-8.7-24.59s13.6-9.16,18.06-7.45Z"/>
              <path class="cls-31" d="M211.7,24.05c-3.35-5.29-9.59-8.62-15.85-8.44-8.1.22-15.21,5.89-19.63,12.69-1.43,2.2-2.67,4.59-3.11,7.18-.43,2.48-.11,5.04.49,7.48,1.27,5.23,3.8,10.15,7.32,14.22,2.22,2.56,4.87,4.89,6.15,8.02,1.56,3.82.78,8.24-.88,12.03-.96,2.18-2.21,4.26-2.8,6.58-1.02,3.97.11,8.41,2.89,11.42,2.78,3,7.13,4.47,11.16,3.75.73-.13,1.48-.32,2.2-.14,2.19.56,2.15,3.69,3.39,5.58,1.42,2.17,4.66,2.48,6.99,1.35,2.73-1.32,4.52-4.17,5.06-7.16.54-2.98-.03-6.08-1.07-8.93-.77-2.11-1.8-4.15-2.18-6.37-.38-2.21.01-4.73,1.69-6.23,1.25-1.11,2.96-1.48,4.49-2.15,2.78-1.22,5.03-3.58,6.12-6.41,1.51-3.91.78-8.32-.46-12.32-1.24-4-2.99-7.88-3.54-12.04-.6-4.58.16-9.7-2.59-13.41l-5.83-6.71Z"/>
              <path class="cls-9" d="M220.12,44.17c-.38-2.9-.22-6.01-.74-8.85-2.95.91-5.95.91-9.16.26-3.29-.67-9.85-4.49-13.17-3.43-6.18,1.98-2.51,14.26-.74,18.01,4.03,8.58,8.92,16.19,6.21,26.08-1.87,6.85-4.44,9.44-.8,16.24,1.66,3.1,3.48,5.75,6.06,6.97.25-.08.51-.16.79-.3,3.91-1.91,5.21-7.61,4.48-11.94-.51-1.27-.98-2.55-1.21-3.9-.38-2.21.01-4.73,1.69-6.23.05-.05.11-.07.17-.12,1.42-1.53,3.42-2.5,5.39-2.58,2.28-1.31,4.11-3.41,5.06-5.87,1.51-3.91.78-8.32-.46-12.32-1.24-4-2.99-7.88-3.54-12.04Z"/>
              <path class="cls-37" d="M225.49,76.99s4.55,19.73,3.47,25.68c0,0,18.73,13.17,29.94-1.87,0,0-3.86-24.76-4.08-30.93s-35.04-10.59-29.32,7.11Z"/>
              <path class="cls-35" d="M238.64,92.03c3.29,4.88,9.26,8.22,15.28,6.21,1.66-.56,3.01-1.53,4.17-2.73-1.14-7.63-3.12-21.27-3.28-25.64-.14-3.83-13.64-6.99-22.46-4.58.19,9.06,1.24,19.23,6.29,26.73Z"/>
              <path class="cls-14" d="M280.7,100s11.32,6.87,26.04,41.72l-22.29,9.39s-9.43-47.21-3.75-51.11Z"/>
              <path class="cls-37" d="M269.67,46.5c-1.9-13.44-13.24-23.94-27.26-24.29-15.61-.39-28.59,11.95-28.98,27.56-.27,10.69,5.43,20.13,14.06,25.16l2.04,7.59s14.02,14.4,31.59,7.14c17.57-7.25,8.54-43.16,8.54-43.16Z"/>
              <path class="cls-31" d="M231.71,33.76s13.12,6.66,28.13,5.13c15.01-1.52,15.78,1.66,13.05,9.61,0,0,8.96-12.43-5.15-21.64-14.11-9.21-28.84-10.63-44.21-3,0,0,1.71,7.64,8.19,9.91Z"/>
              <path class="cls-31" d="M219.71,68.84c.02-.63,6.97-.25,10.11,8.9,0,0,5.88,1.2,1.86-6.91-4.01-8.11-8.29-14.34-7.32-19.38.97-5.04,12.27-17.38,12.27-17.38l-12.84-10.48s-26.38,17.48-4.7,44.38"/>
              <path class="cls-14" d="M220.78,26.27s-3.68-4.73-7.52-2.72c-3.85,2.01-13.18,12.75-2.33,17.45,0,0,5.55-11.04,9.86-14.73Z"/>
              <path class="cls-14" d="M227.56,328.27s-28.92,29.94-35.76,92.04l26.58,11.47s46.29-91.49,46.36-113.75c0,0-37.72,7.13-37.18,10.24Z"/>
              <path class="cls-11" d="M239.3,370.41c-10.91,13.32-25.03,23.09-41.96,19.53-2.36,9.1-4.31,19.21-5.54,30.37l26.58,11.47s24.95-49.32,38.25-84.34c-5.39,8.17-11.52,15.89-17.33,22.98Z"/>
              <path class="cls-14" d="M276.19,324.76s-7.86,34.14,17.4,114.46l26.07-4.58s-8.52-115.99-9.06-121.16c-.54-5.18-35.51,8.69-34.41,11.29Z"/>
              <path class="cls-8" d="M305.96,409.72c-8.67-15.64-12.37-32.89-15.77-50.27-2.53-12.98-4.45-26.9-4.66-40.23-4.64,2.12-9.69,4.72-9.34,5.54,0,0-7.86,34.14,17.4,114.46l26.07-4.58s-.63-8.55-1.55-21.1c-4.08,1.87-9.35,1.24-12.15-3.81Z"/>
              <path class="cls-14" d="M210.73,111.45s17.79,55.93,15.39,63.48c-2.41,7.55-13.85,51.84-13.81,55.34.05,3.51,77.85,9.49,94.23-3.26,0,0-19.88-61.92-19.98-69.44-.1-7.52,9.64-18.61-3.13-41.04l-2.65-16.55-22.01-1.73s-7.8,14.54-29.81,3.31l-18.24,9.88Z"/>
              <path class="cls-1" d="M263.41,53.44c1.53,3.31,2.29,6.95,3.9,10.15.19.37.22.32.7.95,1.93,3.44-3.62,5.5-5.76,3.53,1.67.29,3.24-.34,4.08-1.31.27-.42.47-.76.15-1.13-.43-.32-1.24-1.59-1.47-2.22-1.26-3.22-1.75-6.53-1.59-9.96h0Z"/>
              <path class="cls-37" d="M227.67,74.28c2.44,4.48,2.41,9.2-.07,10.55-2.47,1.35-6.46-1.19-8.89-5.67-2.44-4.48-2.41-9.2.07-10.55s6.46,1.19,8.89,5.67Z"/>
              <path class="cls-35" d="M225.61,75.4c1.32,2.43,1.31,4.98-.04,5.71-1.34.73-3.5-.65-4.82-3.07-1.32-2.43-1.31-4.98.04-5.71,1.34-.73,3.5.65,4.82,3.07Z"/>
              <path class="cls-14" d="M296.73,449.64s-4.96,12.24-.47,18.38l53.31,1.31s5.36-8.41-8.98-13.05c-14.34-4.64-24.18-6.58-24.97-15.78,0,0-6.54-7.3-8.63,6.87l-10.26,2.27Z"/>
              <path class="cls-14" d="M192.06,426.12s-7.38-2.32-11.91,3.79c0,0,.75,23.36-.5,30.25-1.25,6.89,26.63,10.42,31.15,6.99,4.52-3.43,1.25-6.89-6.53-10.36-7.78-3.47-6.95-5.76-3.65-12.26,3.3-6.5,12.34-11.45,10.7-13.37-1.63-1.92-9.03,3.42-9.03,3.42l-10.23-8.46Z"/>
              <path class="cls-26" d="M228.01,104.5s12.29,9.56,24.96,4.15c0,0,5.57-2.59,7.75-8.77"/>
              <path class="cls-25" d="M280.03,115.57s2.42,6.04,6.36,10.19c3.95,4.15,6.58,14.55,1.86,23.02"/>
              <line class="cls-25" x1="193.67" y1="415.73" x2="219.07" y2="426.22"/>
              <line class="cls-25" x1="293.39" y1="433.86" x2="318.6" y2="429.52"/>
              <line class="cls-25" x1="295.15" y1="465.11" x2="349.58" y2="467.22"/>
              <path class="cls-25" d="M296.48,452.24s7.69,1.07,7.68,13.08"/>
              <line class="cls-25" x1="328.25" y1="457.16" x2="330.2" y2="453.13"/>
              <line class="cls-25" x1="333.61" y1="458.09" x2="335.06" y2="454.57"/>
              <line class="cls-25" x1="323.72" y1="454.89" x2="325.17" y2="451.36"/>
              <path class="cls-25" d="M182.25,430.16s-.77,30.05.76,32.03c1.53,1.98,20.62,6.73,28.09,3.8"/>
              <path class="cls-25" d="M194.48,446.19s2.16-.7,3.68.62"/>
              <path class="cls-25" d="M194.04,450.87c.5.16,1.98-1.53,3.5-.21"/>
              <path class="cls-25" d="M196.62,456.17s.81-2.01,2.65-1.54"/>
              <path class="cls-25" d="M182.01,437.17s10.3-3.14,8.02-11.45"/>
              <line class="cls-25" x1="227.56" y1="328.27" x2="237.65" y2="330.76"/>
              <line class="cls-25" x1="276.29" y1="326.08" x2="284" y2="324.19"/>
              <polygon class="cls-25" points="232.91 198.65 230.27 223.69 255.3 225.74 257.34 199.51 232.91 198.65"/>
              <line class="cls-25" x1="231.79" y1="204.02" x2="257.18" y2="205.47"/>
              <line class="cls-25" x1="268.18" y1="298.8" x2="271.93" y2="267.19"/>
              <line class="cls-25" x1="259.33" y1="273.65" x2="285.95" y2="260.79"/>
              <g>
                <path class="cls-20" d="M267.65,75.63s.12-2.58-.73-2.52-8.72,3.33-8.72,3.33c0,0,6.46,1.29,9.46-.81Z"/>
                <path class="cls-20" d="M258.18,76.35s6.39,4.72,8.9,2.37c0,0,1.89-1.64-.49-3.11,0,0-6.54,1.85-8.42.74Z"/>
                <path class="cls-7" d="M267.65,75.63s.12-2.58-.73-2.52-8.72,3.33-8.72,3.33c0,0,6.46,1.29,9.46-.81Z"/>
              </g>
              <path class="cls-31" d="M252.55,51.36s-7.03-2.3-12.69,5.59c0,0,7.93-3.17,11.23-3.52,0,0,2.81-.39,1.46-2.07Z"/>
              <path class="cls-31" d="M270.27,47.12c-3.97,0-6.67,1.81-6.67,1.81-1.03,2.09,2.07,1.49,2.07,1.49,1.21-.27,3.04-.41,4.95-.49-.23-.9-.35-1.85-.35-2.81Z"/>
              <path class="cls-31" d="M253.18,60.32c.29,1.56-.11,2.94-.89,3.09-.78.14-1.65-1-1.94-2.56-.29-1.56.11-2.94.89-3.09.78-.14,1.65,1,1.94,2.56Z"/>
              <path class="cls-31" d="M270.54,56.9c.29,1.56-.11,2.94-.89,3.09-.78.14-1.65-1-1.94-2.56-.29-1.56.11-2.94.89-3.09.78-.14,1.65,1,1.94,2.56Z"/>
              <path class="cls-24" d="M257.33,76.53s7.66.98,10.32-.9"/>
              <path class="cls-13" d="M217.18,231.35s58.75,4.27,86.28-2.38c0,0-15.44,25.53-86.28,2.38Z"/>
              <g>
                <path class="cls-31" d="M238.35,145.73c.05,2.83,2.39,5.08,5.22,5.02,2.83-.05,5.08-2.39,5.02-5.22-.05-2.83-2.39-5.08-5.22-5.02-2.83.05-5.08,2.39-5.02,5.22Z"/>
                <path class="cls-18" d="M240.46,145.69c.03,1.66,1.4,2.98,3.07,2.95,1.66-.03,2.98-1.4,2.95-3.07-.03-1.66-1.4-2.98-3.07-2.95-1.66.03-2.98,1.4-2.95,3.07Z"/>
                <path class="cls-31" d="M229.15,100.88c-.07-.75-.13-1.51-.17-2.29-15.31,9.57,3.41,34.85,10.96,44.26.78.97,2.45-.04,1.67-1.02-6.59-8.2-24.47-31.56-12.46-40.96Z"/>
              </g>
              <path class="cls-31" d="M258.22,95.76c.13.72.27,1.44.4,2.15,12.26,4.11,12.52,21.97,11.02,32.23-.18,1.23,1.7,1.75,1.89.51,1.68-11.53,1.04-31.11-13.31-34.89Z"/>
              <path class="cls-17" d="M270.11,156.2c-2.35-3.17-3.99-8.5-4.01-8.56l.37-.11c.02.05,1.64,5.32,3.95,8.44l-.31.23Z"/>
              <path class="cls-17" d="M274.7,156.36l-.36-.16c1.25-2.73,3.34-8.88,3.36-8.94l.37.13c-.02.06-2.12,6.23-3.37,8.98Z"/>
              <path class="cls-4" d="M277.25,149.69c-.08,0-.16-.02-.23-.05-.3-.13-.44-.48-.31-.78,1.02-2.37,3.29-10.11.51-14.46-1.31-2.05-3.61-3.13-6.85-3.23-2.61-.07-4.4.65-5.35,2.16-2.91,4.61,2.34,15,2.39,15.1.15.29.03.65-.26.8-.29.15-.65.03-.8-.26-.23-.45-5.61-11.11-2.34-16.28,1.19-1.89,3.34-2.8,6.39-2.71,3.65.11,6.28,1.37,7.82,3.77,3.07,4.81.73,12.86-.42,15.56-.1.22-.32.36-.55.36Z"/>
              <path class="cls-17" d="M275.17,156.75c0,.56-.4,1.01-.9,1.02-.5,0-.91-.45-.91-1.01,0-.56.4-1.01.9-1.02.5,0,.91.45.91,1.01Z"/>
              <path class="cls-17" d="M271.28,156.77c0,.56-.4,1.01-.9,1.02s-.91-.45-.91-1.01c0-.56.4-1.01.9-1.02.5,0,.91.45.91,1.01Z"/>
            </g>
            <path class="cls-29" d="M302.57,157.98s.65-4.89,3.59-5.87"/>
            <g class="cls-38">
              <g class="cls-41">
                <path class="cls-17" d="M224.64,27.65c12.64,7,27.19,10.13,41.59,9.53-.9.13-1.8.25-2.7.35-13.52,1.51-27.79-1.96-38.89-9.88h0Z"/>
              </g>
              <g class="cls-41">
                <path class="cls-17" d="M242.41,30.9c5.22.58,12.5,1.47,17.66,1.81,4.69.69,15.54-1.23,14.51,6.3-.06-3.76-2.37-4.57-5.72-4.86-2.92-.21-5.93-.01-8.87-.27-5.94-.45-11.83-1.44-17.58-2.99h0Z"/>
              </g>
              <g class="cls-41">
                <path class="cls-17" d="M214.25,40.64c-.56,7.56-1.14,16.05,3.9,22.31-6.46-5.19-6.17-15.07-3.9-22.31h0Z"/>
              </g>
              <g class="cls-41">
                <path class="cls-17" d="M217.71,43.24c.33,8.13,1.79,16.32,6.71,22.96-6.29-5.56-8.1-14.95-6.71-22.96h0Z"/>
              </g>
              <g class="cls-41">
                <path class="cls-17" d="M197.13,28.51c-5.38,2.94-7.47,9.5-5.68,15.19.76,2.85,2.16,5.51,3.27,8.24,2.25,5.55,4.78,11.19,5.18,17.25.26,3.15-1.71,5.81-2.69,8.64-2.31,5.65-1.84,12.01,3.38,15.88-5.7-3.58-6.42-10.25-4.24-16.19.8-2.81,2.75-5.28,2.47-8.29-.51-5.87-2.99-11.41-5.1-16.88-1.09-2.8-2.51-5.48-3.16-8.44-1.64-6.02.7-12.75,6.56-15.4h0Z"/>
              </g>
              <g class="cls-41">
                <path class="cls-17" d="M188.04,49.53c2.31,3.04,4.3,6.33,5.82,9.87,1.61,3.54,2.41,7.72.88,11.44-1.75,5.41-5.02,10.37-4.96,16.12.04,1.88.81,3.68,2.16,5.02-1.55-1.14-2.51-3.02-2.74-4.97-.22-1.96.11-3.91.58-5.78,1.15-4.68,3.57-8.81,4.56-13.43.42-2.75-.41-5.46-1.32-8.07-1.31-3.55-3.08-6.92-4.97-10.21h0Z"/>
              </g>
            </g>
          </g>
          <g>
            <path class="cls-15" d="M331.41,143.52s.25,36.62,22.26,38c0,0,2.33-21.74-.85-28.79-3.18-7.04-21.4-9.21-21.4-9.21Z"/>
            <path class="cls-15" d="M398.5,133.15s7.82,7.47-2.22,15.49c-10.04,8.02-12.64-18.17,2.22-15.49Z"/>
            <path class="cls-31" d="M511.38,423.43v-134.95c0-3.69-3.02-6.72-6.72-6.72s-6.72,3.02-6.72,6.72v133.76c4.48.46,8.95.87,13.44,1.19Z"/>
            <g>
              <path class="cls-34" d="M536.4,439.13s-3.31,7.09,4.25,16.55c7.56,9.45,25.05,13.24,30.26,13.71,5.2.47,7.09,8.04,7.09,8.04l-58.15-.95s-3.78-7.09.95-14.65l-3.31-22.22,18.91-.47Z"/>
              <path class="cls-14" d="M579.63,475.55h.28c-1.44-10.08-16.42-13.68-21.74-11.95-4.96,1.61-5.18,10.19-5.18,11.38h-33.77c-1.07,0-1.94.87-1.94,1.94s.87,1.94,1.94,1.94h59.04c1.07,0,1.94-.87,1.94-1.94,0-.53-.22-1.02-.57-1.37Z"/>
              <path class="cls-5" d="M579.63,475.55h.28c-1.44-10.08-16.42-13.68-21.74-11.95-4.96,1.61-5.18,10.19-5.18,11.38h-33.77c-1.07,0-1.94.87-1.94,1.94s.87,1.94,1.94,1.94h59.04c1.07,0,1.94-.87,1.94-1.94,0-.53-.22-1.02-.57-1.37Z"/>
            </g>
            <rect class="cls-31" x="364.88" y="283.6" width="146.82" height="12.16" rx="5.99" ry="5.99"/>
            <path class="cls-31" d="M587.46,486.49h-89.82c-2.21,0-4.02-1.81-4.02-4.02h0c0-2.21,1.81-4.02,4.02-4.02h89.82c2.21,0,4.02,1.81,4.02,4.02h0c0,2.21-1.81,4.02-4.02,4.02Z"/>
            <g>
              <path class="cls-37" d="M516.87,438.65s-3.31,7.09,4.25,16.55c7.56,9.45,25.06,13.24,30.26,13.71,5.2.47,7.09,8.04,7.09,8.04l-58.15-.95s-3.78-7.09.95-14.65l-3.31-22.22,18.91-.47Z"/>
              <g>
                <path class="cls-14" d="M558.72,478.39h-59.04c-1.07,0-1.94-.87-1.94-1.94h0c0-1.07.87-1.94,1.94-1.94h59.04c1.07,0,1.94.87,1.94,1.94h0c0,1.07-.87,1.94-1.94,1.94Z"/>
                <path class="cls-14" d="M533.45,474.64s-.14-9.79,5.18-11.52c5.33-1.73,20.3,1.87,21.74,11.95l-26.93-.43Z"/>
              </g>
            </g>
            <path class="cls-37" d="M419.13,276.48s-25-42.05-25.77-51.73c-.77-9.68,22.96-8.96,26.88-5.4,3.91,3.56,21.84,49.49,21.84,49.49l-22.95,7.64Z"/>
            <path class="cls-17" d="M404.29,189.53s14.21,2.35,24.54,32.19l3.99,9.04-19.93,14.67s-18.12-52.76-8.6-55.9Z"/>
            <polygon class="cls-15" points="314.35 222.82 397.48 213.77 417.72 370.19 337.24 373.43 314.35 222.82"/>
            <path class="cls-6" d="M401.27,307.4c-.83.7-1.69,1.35-2.6,1.96-4.76,3.15-10.69,4.28-16.3,4.72-24.55,1.96-43.13-17.63-55.16-36.68-2.17-3.44-4.23-6.98-6.17-10.6l16.2,106.62,80.48-3.24-8.38-64.76c-2.67.8-5.38,1.44-8.08,1.97Z"/>
            <ellipse class="cls-37" cx="430.88" cy="271.6" rx="12.18" ry="11.17" transform="translate(-9.18 15.15) rotate(-1.99)"/>
            <path class="cls-37" d="M438.41,260.34s31.28,8.05,47.28,12.78l1.15,10.39s-46.58,4.48-58.66-1.26l10.23-21.91Z"/>
            <ellipse class="cls-37" cx="367.15" cy="140.72" rx="28.28" ry="29.82" transform="translate(203.2 498.11) rotate(-86.33)"/>
            <path class="cls-37" d="M351.09,172.39s5.26,16.51,4.39,21.57c0,0,19.19,10.48,29.85-2.6,0,0-4.75-20.78-5.2-25.98-.44-5.2-35.4-7.75-29.04,7.01Z"/>
            <path class="cls-35" d="M363.96,184.64c6.54,5.19,13.55,4.1,20.11,1.12-1.44-6.54-3.65-16.92-3.94-20.38-.32-3.8-18.99-6.17-26.62-1.45,1.63,7.58,4.32,15.85,10.45,20.71Z"/>
            <path class="cls-37" d="M397.1,139.42s7.91,36.35-10.87,42.85c-18.78,6.5-33.01-8.48-33.01-8.48l-4.47-18.38,48.36-15.99Z"/>
            <path class="cls-17" d="M355.47,191.49s-26.14,11.59-30.06,14.05c-3.91,2.45,12.66,69.42,39.06,91.71l67.85,1.3s-19.64-88.57-27.76-108.98l-19.3-1.54s-13.09,13.87-29.78,3.47Z"/>
            <path class="cls-17" d="M366.04,289.8s-34.33,43.79.52,75.27c0,0,33.73-48.35,57.91-50.03,0,0,25.86-8.99,39.35-6.18l-30.92-20.24-66.86,1.19Z"/>
            <path class="cls-14" d="M442.04,294.29s77.39,12.9,87.47,24.59c10.08,11.69,17.74,116.89,17.74,116.89,0,0-27.41,17.33-89.89,13.3,0,0-2.42-64.49-8.06-68.52-5.64-4.03-84.53,9.38-96.62-35.77,0,0,16.95-27.95,89.37-50.49Z"/>
            <path class="cls-10" d="M541.05,375.4c-18.34,2.33-23.74-18.25-31.05-33.77-9.64,20.19-48.6,22.24-67.88,21.87-26.44-.51-64.79-3.64-82.99-26.19-4.71,4.61-6.45,7.47-6.45,7.47,12.09,45.14,90.98,31.74,96.62,35.77,5.64,4.03,8.06,68.52,8.06,68.52,62.48,4.03,89.89-13.3,89.89-13.3,0,0-2.22-30.46-5.84-60.43-.12.02-.23.04-.35.06Z"/>
            <circle class="cls-31" cx="461.73" cy="478.05" r="23.11"/>
            <path class="cls-31" d="M464.15,302.72h-141.14c-3.34,0-6.08-2.74-6.08-6.08h0c0-3.34,2.74-6.08,6.08-6.08h141.14c3.34,0,6.08,2.74,6.08,6.08h0c0,3.34-2.74,6.08-6.08,6.08Z"/>
            <path class="cls-31" d="M462.75,477.35h0c-3.69,0-6.72-3.02-6.72-6.72v-173.36c0-3.69,3.02-6.72,6.72-6.72h0c3.69,0,6.72,3.02,6.72,6.72v173.36c0,3.69-3.02,6.72-6.72,6.72Z"/>
            <g>
              <rect class="cls-31" x="326.17" y="368.86" width="143.03" height="13.32" rx="6.37" ry="6.37"/>
              <path class="cls-31" d="M334.37,379.65h0c-3.57.45-6.89-1.91-7.37-5.26l-26.6-183.85c-.48-3.34,2.04-6.45,5.61-6.9h0c3.57-.45,6.89,1.91,7.37,5.26l26.6,183.85c.48,3.34-2.04,6.45-5.61,6.9Z"/>
              <rect class="cls-31" x="272.1" y="183.33" width="39.4" height="12.11" rx="5.05" ry="5.05"/>
            </g>
            <polygon class="cls-31" points="459.59 414.63 501.66 481.29 510.17 481.29 460.53 402.34 459.59 414.63"/>
            <g>
              <path class="cls-37" d="M372.64,285.47c.32,6.16-4.87,11.43-11.59,11.78-6.72.35-12.42-4.37-12.74-10.53s4.87-11.43,11.59-11.78c6.72-.35,12.42,4.37,12.74,10.53Z"/>
              <path class="cls-37" d="M350.59,292.62s-28.42-41.08-29.79-50.69c-1.37-9.61,22.35-10.39,26.48-7.08,4.13,3.31,24.92,48.01,24.92,48.01l-21.61,9.76Z"/>
              <path class="cls-37" d="M367.81,274.72s43.47,6.57,59.55,11.02l1.42,10.49s-58.66,6.1-70.83.56l9.87-22.07Z"/>
            </g>
            <path class="cls-17" d="M326.97,204.74s-20.68,3.44-3.71,59.51l35.42-13.12s-12.73-48.83-31.7-46.39Z"/>
            <path class="cls-15" d="M395.72,127.6c-6.99-19.21-28.06-18.12-28.06-18.12-7.04.98-12.88,2.48-17.77,4.32-5.77,3.03-10.66,7.43-13.7,13.33-4.5,8.71-4.7,18.6-2.88,28.13,4.46,2.53,8.78,1.79,8.78,1.79,7.63-3.06,16.79,10.92,16.79,10.92,1.68-6.31-2.06-14.12-2.06-14.12,17.88-15.6,20.3-29.06,20.3-29.06,12.84,11.79,21.84,9.55,21.84,9.55l-3.24-6.73Z"/>
            <ellipse class="cls-15" cx="332.63" cy="131.99" rx="13.63" ry="12.36" transform="translate(159.99 445.46) rotate(-82.8)"/>
            <path class="cls-15" d="M380.4,139.77s-7.33-.48-14.06,2.23l-.96,2.2s12.08-3.2,15.33-2.51c0,0,.82-.69-.31-1.92Z"/>
            <path class="cls-15" d="M399.96,137.56c-4.93.09-8.81,1.22-8.81,1.22-.85,1.45.11,1.94.11,1.94,1.5-.68,5.32-.9,8.79-.94-.1-.73-.13-1.47-.08-2.22Z"/>
            <path class="cls-27" d="M353.38,194.01s22.57,13.43,33.71-4.27"/>
            <path class="cls-21" d="M327.75,250.51c.04.87-.63,1.62-1.5,1.66-.87.04-1.62-.63-1.66-1.5-.04-.87.63-1.62,1.5-1.66s1.62.63,1.66,1.5Z"/>
            <path class="cls-21" d="M341.18,228.15c.04.87-.63,1.62-1.5,1.66-.87.04-1.62-.63-1.66-1.5-.04-.87.63-1.62,1.5-1.66.87-.04,1.62.63,1.66,1.5Z"/>
            <path class="cls-21" d="M343.69,204.59c.04.87-.63,1.62-1.5,1.66-.87.04-1.62-.63-1.66-1.5-.04-.87.63-1.62,1.5-1.66s1.62.63,1.66,1.5Z"/>
            <circle class="cls-21" cx="359.19" cy="206.03" r="1.58"/>
            <path class="cls-21" d="M377.15,206.22c.04.87-.63,1.62-1.5,1.66s-1.62-.63-1.66-1.5.63-1.62,1.5-1.66c.87-.04,1.62.63,1.66,1.5Z"/>
            <path class="cls-21" d="M365.31,234.35c.04.87-.63,1.62-1.5,1.66s-1.62-.63-1.66-1.5c-.04-.87.63-1.62,1.5-1.66.87-.04,1.62.63,1.66,1.5Z"/>
            <circle class="cls-21" cx="393.04" cy="211.35" r="1.58"/>
            <path class="cls-21" d="M380.69,222.4c.04.87-.63,1.62-1.5,1.66-.87.04-1.62-.63-1.66-1.5-.04-.87.63-1.62,1.5-1.66s1.62.63,1.66,1.5Z"/>
            <path class="cls-21" d="M386.85,241.05c.04.87-.63,1.62-1.5,1.66s-1.62-.63-1.66-1.5c-.04-.87.63-1.62,1.5-1.66.87-.04,1.62.63,1.66,1.5Z"/>
            <path class="cls-21" d="M394.37,273.4c.04.87-.63,1.62-1.5,1.66-.87.04-1.62-.63-1.66-1.5-.04-.87.63-1.62,1.5-1.66.87-.04,1.62.63,1.66,1.5Z"/>
            <circle class="cls-21" cx="402.92" cy="256.57" r="1.58"/>
            <path class="cls-21" d="M384.1,257.54c.04.87-.63,1.62-1.5,1.66-.87.04-1.62-.63-1.66-1.5-.04-.87.63-1.62,1.5-1.66.87-.04,1.62.63,1.66,1.5Z"/>
            <path class="cls-21" d="M410.65,274.24c.04.87-.63,1.62-1.5,1.66-.87.04-1.62-.63-1.66-1.5-.04-.87.63-1.62,1.5-1.66.87-.04,1.62.63,1.66,1.5Z"/>
            <path class="cls-21" d="M364.28,312.09c0,.87-.71,1.58-1.58,1.58s-1.58-.71-1.58-1.58.71-1.58,1.58-1.58,1.58.71,1.58,1.58Z"/>
            <path class="cls-21" d="M378.4,312.09c0,.87-.71,1.58-1.58,1.58s-1.58-.71-1.58-1.58.71-1.58,1.58-1.58,1.58.71,1.58,1.58Z"/>
            <path class="cls-21" d="M395.39,308.75c0,.87-.71,1.58-1.58,1.58s-1.58-.71-1.58-1.58.71-1.58,1.58-1.58,1.58.71,1.58,1.58Z"/>
            <path class="cls-21" d="M368.37,322.12c0,.87-.71,1.58-1.58,1.58s-1.58-.71-1.58-1.58.71-1.58,1.58-1.58,1.58.71,1.58,1.58Z"/>
            <path class="cls-21" d="M359.45,332.52c0,.87-.71,1.58-1.58,1.58s-1.58-.71-1.58-1.58.71-1.58,1.58-1.58,1.58.71,1.58,1.58Z"/>
            <circle class="cls-21" cx="400.79" cy="224.72" r="1.58"/>
            <circle class="cls-21" cx="366.73" cy="256.6" r="1.58"/>
            <path class="cls-21" d="M405.47,241.49c.04.87-.63,1.62-1.5,1.66-.87.04-1.62-.63-1.66-1.5-.04-.87.63-1.62,1.5-1.66s1.62.63,1.66,1.5Z"/>
            <path class="cls-21" d="M418.62,253.06c.04.87-.63,1.62-1.5,1.66-.87.04-1.62-.63-1.66-1.5s.63-1.62,1.5-1.66c.87-.04,1.62.63,1.66,1.5Z"/>
            <path class="cls-21" d="M421.79,272.84c.04.87-.63,1.62-1.5,1.66-.87.04-1.62-.63-1.66-1.5-.04-.87.63-1.62,1.5-1.66.87-.04,1.62.63,1.66,1.5Z"/>
            <path class="cls-21" d="M392.66,196.87c.04.87-.63,1.62-1.5,1.66-.87.04-1.62-.63-1.66-1.5-.04-.87.63-1.62,1.5-1.66.87-.04,1.62.63,1.66,1.5Z"/>
            <path class="cls-21" d="M406.8,195.02c.04.87-.63,1.62-1.5,1.66-.87.04-1.62-.63-1.66-1.5-.04-.87.63-1.62,1.5-1.66.87-.04,1.62.63,1.66,1.5Z"/>
            <path class="cls-21" d="M412.35,205.45c.04.87-.63,1.62-1.5,1.66-.87.04-1.62-.63-1.66-1.5-.04-.87.63-1.62,1.5-1.66.87-.04,1.62.63,1.66,1.5Z"/>
            <path class="cls-21" d="M355.27,219.99c.04.87-.63,1.62-1.5,1.66-.87.04-1.62-.63-1.66-1.5s.63-1.62,1.5-1.66c.87-.04,1.62.63,1.66,1.5Z"/>
            <path class="cls-21" d="M420.74,212.9c.04.87-.63,1.62-1.5,1.66-.87.04-1.62-.63-1.66-1.5-.04-.87.63-1.62,1.5-1.66.87-.04,1.62.63,1.66,1.5Z"/>
            <path class="cls-21" d="M424.17,225.56c.04.87-.63,1.62-1.5,1.66s-1.62-.63-1.66-1.5c-.04-.87.63-1.62,1.5-1.66.87-.04,1.62.63,1.66,1.5Z"/>
            <path class="cls-21" d="M328.82,233.63c.04.87-.63,1.62-1.5,1.66-.87.04-1.62-.63-1.66-1.5-.04-.87.63-1.62,1.5-1.66.87-.04,1.62.63,1.66,1.5Z"/>
            <circle class="cls-21" cx="324.62" cy="218.96" r="1.58"/>
            <path class="cls-21" d="M343.51,244.4c.04.87-.63,1.62-1.5,1.66s-1.62-.63-1.66-1.5c-.04-.87.63-1.62,1.5-1.66.87-.04,1.62.63,1.66,1.5Z"/>
            <g>
              <path class="cls-31" d="M360.2,352.41c-40.38-4.84-77.04,23.98-81.88,64.36-4.84,40.38,23.98,77.04,64.36,81.88,40.38,4.84,77.04-23.98,81.88-64.36,4.84-40.38-23.98-77.04-64.36-81.88ZM351.44,487.76c-34.37,0-62.23-27.86-62.23-62.23s27.86-62.23,62.23-62.23,62.23,27.86,62.23,62.23-27.86,62.23-62.23,62.23Z"/>
              <line class="cls-25" x1="351.46" y1="354.87" x2="351.46" y2="495.34"/>
              <line class="cls-25" x1="374.92" y1="358.91" x2="327.99" y2="491.3"/>
              <line class="cls-25" x1="400.91" y1="375.24" x2="302" y2="474.98"/>
              <line class="cls-25" x1="418.26" y1="403.43" x2="284.65" y2="446.78"/>
              <line class="cls-25" x1="416.27" y1="452.15" x2="286.64" y2="398.07"/>
              <line class="cls-25" x1="400.77" y1="475.11" x2="302.14" y2="375.1"/>
              <line class="cls-25" x1="376" y1="490.91" x2="326.91" y2="359.3"/>
              <line class="cls-25" x1="421.68" y1="426.31" x2="281.23" y2="423.9"/>
              <path class="cls-31" d="M354.25,402.09c-12.95-1.55-24.7,7.69-26.25,20.63-1.55,12.95,7.69,24.7,20.63,26.25,12.95,1.55,24.7-7.69,26.25-20.63,1.55-12.95-7.69-24.7-20.63-26.25Z"/>
              <path class="cls-28" d="M353.65,407.1c-10.18-1.22-19.42,6.04-20.64,16.22-1.22,10.18,6.04,19.42,16.22,20.64,10.18,1.22,19.42-6.04,20.64-16.22,1.22-10.18-6.04-19.42-16.22-20.64Z"/>
              <path class="cls-28" d="M352.47,416.97c-4.73-.57-9.02,2.81-9.59,7.54s2.81,9.02,7.54,9.59c4.73.57,9.02-2.81,9.59-7.54s-2.81-9.02-7.54-9.59Z"/>
            </g>
            <circle class="cls-28" cx="461.73" cy="478.05" r="15.94" transform="translate(-202.79 466.51) rotate(-45)"/>
            <circle class="cls-31" cx="461.73" cy="478.05" r="9.33" transform="translate(-202.79 466.51) rotate(-45)"/>
            <path class="cls-25" d="M503.84,327.05s17.23,23.85,16.56,78.84"/>
            <path class="cls-23" d="M372.15,150.92s1.21-7.06,4.27-6.33c3.06.72,4.67,7.28,4.67,7.28,0,0-3.6,6.46-8.94-.94Z"/>
            <path class="cls-23" d="M393.69,150.04s-.76-9.14,1.7-8.68c2.46.46,3.15,8.13,3.15,8.13,0,0-2.17,5.28-4.85.54Z"/>
            <path class="cls-4" d="M381.43,151.07c-.21,1.05-.67,2.06-1.4,2.92-.37.43-.83.81-1.38,1.09-.55.27-1.21.39-1.85.34-.64-.05-1.23-.27-1.74-.56-.53-.28-.97-.65-1.39-1.03-.81-.78-1.45-1.67-2-2.59l.54.25c-.7.02-1.41.01-2.12,0-.71-.03-1.42-.06-2.13-.15.68-.24,1.37-.4,2.06-.58.69-.16,1.38-.31,2.07-.43l.29-.05.25.3c.65.78,1.31,1.53,2.03,2.17.71.63,1.5,1.15,2.3,1.28.79.15,1.64-.15,2.4-.74.76-.58,1.44-1.37,2.07-2.22Z"/>
            <path class="cls-4" d="M393.57,149.61c.52.49.99.98,1.48,1.38.47.4,1.02.73,1.35.72.16,0,.28-.04.44-.16.16-.13.34-.33.5-.55.33-.47.62-1.04.92-1.62l.21-.41.29.03c.83.08,1.67.18,2.51.43-.81.34-1.63.52-2.46.69l.5-.38c-.14.7-.36,1.39-.77,2.06-.22.33-.47.67-.85.95-.37.29-.95.46-1.46.37-.52-.08-.91-.33-1.22-.6-.3-.27-.54-.57-.73-.89-.38-.63-.63-1.3-.73-2.02Z"/>
            <ellipse class="cls-25" cx="375.8" cy="150.79" rx="8.4" ry="10.57" transform="translate(-16.87 51.92) rotate(-7.73)"/>
            <path class="cls-25" d="M402.14,147.45c.79,5.78-1.04,10.81-4.08,11.22-3.04.41-6.14-3.94-6.93-9.72-.79-5.78,1.04-10.81,4.08-11.22,3.04-.41,6.14,3.94,6.93,9.72Z"/>
            <line class="cls-25" x1="346.55" y1="155.88" x2="367.25" y2="150.33"/>
            <ellipse class="cls-37" cx="347.67" cy="164.26" rx="5.36" ry="10.16" transform="translate(-36.68 175.77) rotate(-27)"/>
            <path class="cls-35" d="M351.21,162.85c1.43,2.8,1.39,5.69-.09,6.44-1.48.75-3.84-.91-5.27-3.71-1.43-2.8-1.39-5.69.09-6.44s3.84.91,5.27,3.71Z"/>
            <g class="cls-40">
              <path class="cls-36" d="M362.14,164.74c3.36,1.57,6.11,3.56,9.44,5.18-3.72.02-7.18-2.36-9.44-5.18h0Z"/>
            </g>
            <g class="cls-40">
              <path class="cls-36" d="M380.31,136.67c2.83-1.31,6.3-2.18,9.31-1.16-3.11.63-6.08,1.44-9.31,1.16h0Z"/>
            </g>
            <g class="cls-40">
              <path class="cls-36" d="M380.38,134.23c1.84-1.14,4.3-1.72,6.3-.81-2.06.73-4.08,1.27-6.3.81h0Z"/>
            </g>
            <g class="cls-40">
              <path class="cls-36" d="M374.04,157c1.22.53,2.31.83,3.29.57.73-.17,1.57-.73,2.21-1.2.24-.19.49-.39.79-.57-.63,3.08-4.75,4.25-6.28,1.2h0Z"/>
            </g>
            <g class="cls-40">
              <path class="cls-36" d="M395.07,154.17c1.32.14,1.72.91,2.84.24.28.92-.74,1.63-1.57,1.33-.73-.26-1.21-.81-1.28-1.58h0Z"/>
            </g>
            <g>
              <path class="cls-20" d="M394.01,171.05s0-1.97-1.08-1.91c-1.07.06-8.81,3.01-8.81,3.01,0,0,9.05-.78,9.89-1.11Z"/>
              <path class="cls-22" d="M393.14,170.94s.87,1.35.16,2.46c-.72,1.12-9.09-1.3-9.09-1.3l8.93-1.16Z"/>
            </g>
            <path class="cls-1" d="M389.15,145.75c1.82,3.98,2.42,8.67,4.49,12.41.42.5.7,1.2.7,1.89-.12,3.02-4.32,4.36-6.19,2.62,1.84.4,3.53-.54,4.16-1.76.24-.56.25-.99-.17-1.41-.83-.89-1.14-1.83-1.5-2.73-1.21-3.59-1.69-7.26-1.48-11.03h0Z"/>
            <path class="cls-37" d="M427.13,285.53s26.92,1.72,27.71,3.57c.79,1.85-7.67,8.2-10.05,9.26-2.38,1.06-16.76-.36-18.3-2.82-1.54-2.47-2.07-10.67-2.07-10.67,0,0-.47-.14,2.7.66Z"/>
            <path class="cls-37" d="M485.24,272.85s23.62,6.58,24.32,8.47c.69,1.89-4.93,4.35-7.37,5.28-2.43.93-16.72-1.25-18.12-3.79-1.4-2.55-1.49-10.76-1.49-10.76,0,0-.46-.16,2.67.8Z"/>
            <path class="cls-37" d="M452.44,288.29s6,.97,7.46,3.41c1.46,2.43,3.73,9.9,3.08,10.55,0,0-2.76.16-5.03-7.79l-6-3.08.49-3.08Z"/>
            <path class="cls-37" d="M449.45,289.89s6.05.63,7.65,2.97c1.6,2.35,4.29,9.67,3.68,10.35,0,0-2.74.32-5.47-7.49l-6.17-2.73.31-3.11Z"/>
            <path class="cls-37" d="M446.23,292.44s6.06.5,7.71,2.81c1.65,2.31,4.49,9.58,3.9,10.27,0,0-2.74.38-5.62-7.37l-6.22-2.6.24-3.11Z"/>
            <path class="cls-37" d="M440.59,294.84s6.07-.43,8.05,1.6c1.98,2.03,5.91,8.77,5.43,9.55,0,0-2.65.79-6.69-6.42l-6.55-1.62-.24-3.11Z"/>
            <path class="cls-37" d="M499.19,281.74s6.08-.19,7.98,1.92c1.9,2.11,5.55,9,5.04,9.76,0,0-2.68.68-6.42-6.69l-6.48-1.88-.11-3.12Z"/>
            <path class="cls-37" d="M501.58,279.43s6.08-.21,7.98,1.89c1.9,2.1,5.58,8.98,5.07,9.75,0,0-2.67.69-6.44-6.66l-6.49-1.86-.12-3.12Z"/>
            <path class="cls-37" d="M495.89,283.43s6.07-.43,8.05,1.6c1.98,2.03,5.91,8.77,5.43,9.55,0,0-2.65.79-6.69-6.42l-6.55-1.62-.24-3.11Z"/>
            <path class="cls-25" d="M384.14,150.34s3.33-5.54,7.09-.75"/>
            <path class="cls-37" d="M485.47,283s1.23,5.22,9.52,6.6l6.45,1.23s.92-1.84-2.3-4.3c-3.22-2.46-13.66-3.53-13.66-3.53Z"/>
            <path class="cls-29" d="M360.29,279.94s3.99-4.6,7.52-5.22"/>
            <path class="cls-29" d="M432.68,266.57s3.99-4.6,7.52-5.22"/>
            <line class="cls-29" x1="493.3" y1="284.69" x2="500.21" y2="286.99"/>
            <line class="cls-29" x1="450.89" y1="293.95" x2="453.94" y2="295.25"/>
            <path class="cls-29" d="M452.88,291.03s4.6,1.07,5.07,1.84,2.46,6.29,2.46,6.29"/>
            <g class="cls-40">
              <path class="cls-36" d="M380.52,168.26c-.37,2.01-.79,4.2-1.08,6.21-.44,4.73-1.22-.62-.84-2.25.27-1.45.82-2.92,1.92-3.96h0Z"/>
            </g>
            <path class="cls-24" d="M382.16,171.15s4.18,2.15,11.72.04"/>
            <g>
              <circle class="cls-37" cx="223.26" cy="179.69" r="12.03"/>
              <path class="cls-37" d="M203.24,145.99l8.13,36.35,12.96,2.8,9.66-10.42-7.37-32.28s-24.66-4.58-23.39,3.56Z"/>
              <path class="cls-14" d="M213.52,110.16s-9.42,1.33-18.67,41.9c0,0,28.79,8.21,36.94,5.14.94,2.67-4.25-38.84-18.27-47.04Z"/>
              <path class="cls-25" d="M222.41,128.41s7.16,26.78,8.1,28.8"/>
              <path class="cls-37" d="M229.29,169.69l50.04,15.01v11.12s-58.01-2.21-61.11-5.18c-3.11-2.97,11.07-20.95,11.07-20.95Z"/>
            </g>
            <path class="cls-37" d="M289.86,186.74c-2.77-1.79-5.13-4.1-8.41-4.89-.37-.09-.74-.13-1.11-.2-5.38-.44-11.07,1.91-11.07,1.91-4.83-.22-1.32,10.67-1.32,10.67,0,0,17.25,5.49,19.92,5.08,2.45-.38,8.91-7.29,9.97-8.43-2.85-.77-5.47-2.51-7.97-4.13Z"/>
            <path class="cls-37" d="M286.35,199.3s10.28,2.49,12.13.63c0,0,1.69-.79.38-1.83,0,0-5.88-.79-7.45-1.49-1.57-.71-6.5,1.82-5.06,2.69Z"/>
            <path class="cls-37" d="M291.5,196.69s8.67,2.5,10.92.79c0,0,1.96-.66.6-1.79,0,0-6.48-1.25-8.16-2.07-1.68-.83-4.88,2.09-3.36,3.07Z"/>
            <path class="cls-37" d="M294.05,193.84s8.67,2.5,10.92.79c0,0,1.96-.66.6-1.79,0,0-6.48-1.25-8.16-2.07-1.68-.83-4.88,2.09-3.36,3.07Z"/>
            <path class="cls-37" d="M274.19,182.18s10.69-2.35,15.36-.74c4.67,1.61,12.82.37,13.18,3.47,0,0-1.05.71-4.45.91-3.4.2-7.84.66-4.95,2.96,2.88,2.3-20.33-.73-19.13-6.6Z"/>
            <path class="cls-29" d="M226.12,174.94s4.07-3.59,7-4.24"/>
            <path class="cls-29" d="M291.16,192.54s7.71,2.06,9.78,2.61"/>
            <path class="cls-29" d="M288.88,196.13s8.23,2.33,9.98,1.98"/>
            <g class="cls-43">
              <path class="cls-4" d="M356.04,149.16c7.47-7.92,14.86-16.35,18.61-26.73-2.15,10.93-10.03,20.05-18.61,26.73h0Z"/>
            </g>
            <g class="cls-43">
              <path class="cls-4" d="M378.58,120.85c5.37,3.96,10.82,8.52,17.3,10.48-6.98-.37-13.03-5.28-17.3-10.48h0Z"/>
            </g>
            <g class="cls-43">
              <path class="cls-4" d="M334.81,152.04c13.09-2.61,24.29-11.09,31.71-22.02-.4.73-.8,1.46-1.23,2.18-6.22,10.85-17.89,18.93-30.49,19.83h0Z"/>
            </g>
            <g class="cls-43">
              <path class="cls-4" d="M334.81,136.58c-4.81,2.31-11.21-.24-12.06-5.77,2.55,4.58,6.92,6.18,12.06,5.77h0Z"/>
            </g>
            <g class="cls-43">
              <path class="cls-4" d="M325.38,126.35c3.97-.92,9.18,1.17,9.96,5.5-2.34-3.39-6.04-4.62-9.96-5.5h0Z"/>
            </g>
            <g class="cls-43">
              <path class="cls-4" d="M327.47,121.37c4.29-1.34,10.8.54,11.01,5.77-1.89-4.38-6.74-5.26-11.01-5.77h0Z"/>
            </g>
            <path class="cls-25" d="M555.6,467.25s5.76,4.85,4.4,10.46"/>
            <path class="cls-27" d="M405.51,208.76s11.12,18.27,12.12,26.02l1.39,6.16"/>
            <line class="cls-27" x1="347.31" y1="231.21" x2="357.04" y2="251.47"/>
            <line class="cls-27" x1="324.27" y1="260.41" x2="355.85" y2="249.08"/>
            <line class="cls-27" x1="418.02" y1="236.37" x2="430.14" y2="228.82"/>
          </g>
        </g>
        <g>
          <path class="cls-19" d="M116.96,420.61s-11.87-13.84-.73-22.64c0,0,8.13-4.92,14.76-4.52,0,0-9.4,15.76-6.36,17.32,3.04,1.57,9.2-18.31,9.2-18.31,0,0,18.51-1.79,24.46,1.07,0,0-15.82,12.95-12.49,13.72,3.33.77,20.42-11.94,20.42-11.94,0,0,17.23,2.93,16.31,13.44-.92,10.51-6.85,13.75-9.46,13.47-2.61-.28-17.87-6.1-18.2-3.97-.33,2.14,8.85,9.12,15.29,9.45,0,0-12.14,13.39-20.22,9.53-8.07-3.87-8.76-9.99-13.79-12.29-5.03-2.3-9.33-2.29-7.25.05,2.08,2.34,11.18,4.62,14.06,9.71,2.88,5.09,5.46,8.52-2.89,7.27-8.35-1.26-21.92-7.37-22.52-14.36l-.6-7Z"/>
          <g>
            <path class="cls-19" d="M174.08,409.03s-46.79-1.8-57.12,11.58c0,0-2.29,6.84-9.32,13.08l-1.1,2.99s8.11-8.55,11.01-9.07c0,0-4.54-16.58,56.52-18.57Z"/>
            <path class="cls-19" d="M107.64,433.68s-10.04,7.43-10.74,20.7l1.82.16s3.21-13.72,9-19.09c5.8-5.37-.09-1.77-.09-1.77Z"/>
          </g>
        </g>
        <g>
          <path class="cls-32" d="M75.47,403.2s18.88-10.57,10.07-24.92c0,0-7.05-8.81-14.6-11.07,0,0,4.03,21.39,0,21.9-4.03.5-2.77-24.16-2.77-24.16,0,0-19.88-9.56-27.68-8.81,0,0,12.33,20.89,8.31,20.39-4.03-.5-17.87-21.64-17.87-21.64,0,0-20.39-3.78-23.66,8.31-3.27,12.08,2.01,18.12,5.03,18.88,3.02.76,22.4.5,21.9,3.02-.5,2.52-13.59,6.54-20.89,4.28,0,0,8.05,19.88,18.62,18.88,10.57-1.01,13.84-7.55,20.39-8.05,6.54-.5,11.33,1.26,8.05,3.02-3.27,1.76-14.35.58-19.63,5.07-5.29,4.49-9.56,7.26.25,9.28,9.82,2.01,27.43.76,30.96-6.8l3.52-7.55Z"/>
          <g>
            <path class="cls-32" d="M16.58,366.96s52.85,17.11,58.89,36.24c0,0-.25,8.56,5.03,18.37v3.78s-5.54-12.84-8.56-14.6c0,0,11.83-16.61-55.37-43.79Z"/>
            <path class="cls-32" d="M80.51,421.57s8.15,12.38,3.5,27.44l-2.1-.56s2.04-16.59-2.23-24.94c-4.26-8.35.82-1.94.82-1.94Z"/>
          </g>
        </g>
        <g>
          <path class="cls-3" d="M105.5,388.62s-24.88-13.93-13.27-32.84c0,0,9.29-11.61,19.24-14.6,0,0-5.31,28.2,0,28.86,5.31.66,3.65-31.85,3.65-31.85,0,0,26.21-12.61,36.49-11.61,0,0-16.26,27.54-10.95,26.87,5.31-.66,23.55-28.53,23.55-28.53,0,0,26.87-4.98,31.19,10.95,4.31,15.92-2.65,23.89-6.64,24.88-3.98,1-29.53.66-28.86,3.98.66,3.32,17.92,8.63,27.54,5.64,0,0-10.62,26.21-24.55,24.88-13.93-1.33-18.25-9.95-26.87-10.62-8.63-.66-14.93,1.66-10.62,3.98,4.31,2.32,18.91.76,25.88,6.68,6.97,5.92,12.61,9.57-.33,12.23-12.94,2.65-36.16,1-40.81-8.96l-4.64-9.95Z"/>
          <g>
            <path class="cls-2" d="M183.13,340.85s-69.67,22.56-77.63,47.77c0,0,.33,11.28-6.64,24.22v4.98s7.3-16.92,11.28-19.24c0,0-15.59-21.9,72.99-57.73Z"/>
            <path class="cls-2" d="M98.87,412.84s-10.74,16.32-4.62,36.18l2.76-.74s-2.68-21.88,2.94-32.88c5.62-11-1.08-2.56-1.08-2.56Z"/>
          </g>
        </g>
        <path class="cls-16" d="M104.67,492.08c26.92,0,48.74-21.82,48.74-48.74H55.93c0,26.92,21.82,48.74,48.74,48.74Z"/>
        <path class="cls-16" d="M154.08,494.56H55.25c0-3.32,2.69-6.01,6.01-6.01h86.8c3.32,0,6.01,2.69,6.01,6.01h0Z"/>
        <rect class="cls-39" x="54.32" y="443.34" width="100.19" height="1.5"/>
      </g>
    </g>
  </g>
</svg>