<?xml version="1.0" encoding="UTF-8"?>
<svg id="Layer_8" data-name="Layer 8" xmlns="http://www.w3.org/2000/svg" viewBox="0 0 100.28 100.28">
  <defs>
    <style>
      .cls-1 {
        fill: #efddc9;
      }

      .cls-2 {
        fill: #46a9d1;
      }

      .cls-3 {
        fill: #db9500;
      }

      .cls-4 {
        fill: #d1a982;
      }

      .cls-5 {
        fill: #f9b300;
      }

      .cls-6 {
        fill: #64c7ef;
      }

      .cls-7 {
        fill: #efc79f;
      }

      .cls-8 {
        fill: #1ea995;
      }

      .cls-9 {
        fill: #3cc7b3;
      }

      .cls-10 {
        fill: #efefef;
      }

      .cls-11 {
        fill: #e2a31c;
      }
    </style>
  </defs>
  <path class="cls-9" d="M29.1,29.13c3.77-.03,5.99.21,9.57-1.28.81-.33,4.06-2.22,4.53-2.18.6.05,3.6,1.86,4.53,2.24s3.11,1.21,4.05,1.21h8.87v5.37c-5.98,3.57-8.65,10.85-6.02,17.42.81,2.03,2.28,3.65,3.6,5.34-3.07,2.98-4.68,6.79-4.7,11.09-2.92,1.88-5.86,3.76-8.87,5.48-2.94-1.6-6.19-3.42-8.87-5.47-4.4-3.35-6.89-7.34-7.13-13.02v-25.95s.45-.27.45-.27Z"/>
  <path class="cls-7" d="M88.71,8.1c.61,4.65.6,9.37,0,14.02h-42.07c-.19-1.65.6-3.26,2.19-3.83l15.33-3.19c.07-1.7-1.3-3.25-2.97-3.48-2.69-.37-8.53-.2-11.37-.02-8.46.53-17.36,2.61-25.86,3.3-2.29.03-2.61-3.17-.45-3.75,9.68-2.57,19.14-6.1,28.82-8.64,2.79-.73,5.21-1.42,8.16-.71l28.22,6.3Z"/>
  <path class="cls-7" d="M11.57,78.21h42.07c.17,1.58-.63,3.3-2.19,3.83l-15.33,3.19c-.07,1.7,1.3,3.25,2.97,3.48,2.69.37,8.53.2,11.37.02,8.46-.53,17.36-2.61,25.86-3.3,2.29-.03,2.61,3.17.45,3.75-9.68,2.57-19.14,6.1-28.82,8.64-2.79.73-5.21,1.42-8.16.71l-28.22-6.3c-.61-4.65-.6-9.37,0-14.02Z"/>
  <path class="cls-6" d="M70.74,57.62c3.27,1.06,7.45,5.03,7.45,8.66v8.44c-4.67-.02-9.35.02-14.02,0l-.44-.55c-.42-6.52-.23-13.99,7.02-16.54Z"/>
  <path class="cls-9" d="M92.21,1.08c2.33-.02,4.68.01,7.01,0v24.54c-2.33-.01-4.68.02-7.01,0l-.44-.15V1.35l.44-.27Z"/>
  <path class="cls-9" d="M4.56,74.71c2.33-.02,4.68.01,7.01,0,0,1.17,0,2.34,0,3.51.04,4.67.02,9.36,0,14.02-.01,2.33,0,4.68,0,7.01-2.33-.02-4.68.02-7.01,0l-.44-.15v-24.12l.44-.27Z"/>
  <path class="cls-8" d="M29.1,29.13v26.19c.71,10.5,7.48,12.98,15.02,17.85.28.18.64.19.54.66-.49.28-1.17.95-1.76.79-5.86-3.86-12.63-6.18-15.74-12.98-.5-1.1-1.57-4.13-1.57-5.23v-27.28c1.17,0,2.34,0,3.51,0Z"/>
  <path class="cls-2" d="M69.42,57.18c.12.02,1.04.35,1.31.44.12.53-.27.45-.58.62-6.99,3.76-6.06,9.46-6,16.47-2.33-.01-4.68,0-7.01,0v-8.66c0-3.95,4.87-7.99,8.55-8.66.05-.32.4-.36.66-.22.32-.75,2.76-.77,3.07,0Z"/>
  <path class="cls-7" d="M78.19,46.66c0,4.51-3.02,8.59-7.23,10.08-2.78-.59-5.05-2.93-6.21-5.53-.55-1.24-1.37-3.44-.58-4.55,4.67-.43,9.35-.43,14.02,0Z"/>
  <path class="cls-5" d="M78.19,46.66h-14.02c-.57-.32-.57-.56,0-.88l.22-1.1-.36-.5c.52-2.5,1.96-4.5,3.9-6.09.79-.65,2.03-1.55,3.04-1.51,4.21,1.4,7.23,5.65,7.23,10.08Z"/>
  <path class="cls-8" d="M92.21,1.08v24.54c-1.17,0-2.34,0-3.51,0,0-1.17,0-2.34,0-3.51-.04-4.67-.02-9.36,0-14.02.01-2.33,0-4.68,0-7.01,1.17,0,2.34,0,3.51,0Z"/>
  <path class="cls-8" d="M4.56,74.71v24.54c-1.17,0-2.34,0-3.51,0v-24.54c1.17,0,2.34,0,3.51,0Z"/>
  <path class="cls-3" d="M70.96,36.58l-2.95,1.98c-1.78,1.45-3.32,3.82-3.62,6.13l-.22,1.1c-.01.29-.01.59,0,.88-.02.17-.08.43-.2.44-.78.06-6.11.13-6.5,0l-.32-.44c-.01-7.14,6.96-12.37,13.8-10.08Z"/>
  <path class="cls-4" d="M64.16,46.66c.11,3.27,1.45,6.29,4.06,8.32.9.7,1.97.97,2.73,1.76-.44.16-1.15.02-1.53.44-.74-.09-2.31-.08-3.07,0-.35.02-.57-.05-.66-.22-4.96-.71-8.54-5.38-8.55-10.3h7.01Z"/>
  <path class="cls-1" d="M66.36,57.18c-.14.01-.42.18-.66.22v-.44c.23.03.55-.08.66.22Z"/>
  <polygon class="cls-10" points="44.88 43.16 44.88 48.41 50.14 48.41 50.14 51.92 44.88 51.92 44.88 57.18 41.38 57.18 41.38 51.92 36.12 51.92 36.12 48.41 41.38 48.41 41.38 43.16 44.88 43.16"/>
  <path class="cls-11" d="M64.16,45.78c.01-.39-.1-.78.22-1.1-.04.34.16.91-.22,1.1Z"/>
</svg>