<?xml version="1.0" encoding="UTF-8"?>
<svg id="Layer_8" data-name="Layer 8" xmlns="http://www.w3.org/2000/svg" viewBox="0 0 100.28 100.28">
  <defs>
    <style>
      .cls-1 {
        fill: #303e58;
      }

      .cls-2 {
        fill: #a3ccea;
      }

      .cls-3 {
        fill: #fa4a59;
      }

      .cls-4 {
        fill: #fed3ce;
      }

      .cls-5 {
        fill: #9ac8e6;
      }

      .cls-6 {
        fill: #99c9e5;
      }

      .cls-7 {
        fill: #86c9e7;
      }

      .cls-8 {
        fill: #a2ceea;
      }

      .cls-9 {
        fill: #94ceee;
      }

      .cls-10 {
        fill: #f0eced;
      }

      .cls-11 {
        fill: #99cae4;
      }

      .cls-12 {
        fill: #64b8fb;
      }

      .cls-13 {
        fill: #748d98;
      }

      .cls-14 {
        fill: #6a8892;
      }

      .cls-15 {
        fill: #d0d8da;
      }

      .cls-16 {
        fill: #e8f0f2;
      }

      .cls-17 {
        fill: #f8c8c4;
      }

      .cls-18 {
        fill: #fefefe;
      }

      .cls-19 {
        fill: #8ef2ac;
      }

      .cls-20 {
        fill: #eaecef;
      }

      .cls-21 {
        fill: #fdfefe;
      }

      .cls-22 {
        fill: #4facec;
      }
    </style>
  </defs>
  <g>
    <path class="cls-13" d="M41.84,18.85l4.2-.07c.34-.03.58.17.77.46.08.34-.02.71-.32,1.13-.03,1.66.44,3.3,1.4,4.89l-.29.34c0,.09-.14.16-.4.2l-.48.53c-4.56,1.4-8.69,3.77-12.38,7.11-2.44,1.8-5.42,2.34-8.43,2.48l-.61-.37-.38.26c-7-.77-7.67,9.15-.65,9.31l.44.39.44.71c.35,5.71,3.44,10.53,8.4,13.35.2.19.08,4.66-.16,4.96-.33.4-3.95,1.24-4.5.68-.62.73-1.73,1.01-2.59.6-.29.69-2.06.91-2.59.4-4.99-2.12-9.63-5.68-11-11.19-1.35-5.45.83-13.36,2.14-18.86,1.76-7.41,3.96-15.58,9.45-21.09l.54.66c.3,1.62.65,3.15,1.06,4.57,4.8-1.41,9.95-1.96,15.07-1.86.14,0,.28.07.42.14s.28.17.41.27Z"/>
    <path class="cls-12" d="M26.32,65.81c.56.37.39,1.52-.2,1.79.17.85.18,1.74,0,2.59.53.6.4,1.68-.2,2.19l.2,2.19,4.48,1.5.09.49c.18.72.16,1.47,0,2.19.34.33.48.89.44,1.69,2.34.68,4.77,1.26,7.28,1.75l.83.55.4.19v15.49l-.4.24c-5.9,0-11.81.02-17.71,0l-.51-.31c-.6-2.29-.36-4.68.18-6.91.51-2.29-1.87-2.81-2.41-.4-.5,2.23-.56,4.58-.33,6.86l-.31.77c-2.56-.01-6.27.32-8.66,0-.34-.04-.6-.07-.79-.41l-.07-20.37c1.2-7.93,8.31-10.14,15.1-11.66.77-.17,1.76-.22,2.59-.4Z"/>
    <path class="cls-14" d="M58.15,66.2c-.5.54-2.49.29-2.79-.4-.86.42-1.97.14-2.59-.6-1.2.27-3.48,0-4.58-.55-.2-.1-.31-4.12-.2-4.4l.4-.42.31-.62c5.08-2.96,7.69-8.38,8.02-14.11,7.33.26,7.6-9.38.13-9.29l-.48-.23c-.7-2.73-2.06-5.19-4.09-7.38l-1.53-2.57c-.93-.06-1.84.04-2.76.3l-.4-.32c-.69-1.76-2.69-4.89-.8-6.37l.58-.36c2.92.07,5.74.56,8.44,1.46l.94-4.36c.13-.35.32-.66.58-.92,5.72,5.67,7.86,14.23,9.65,21.88.99,4.23,2.78,11.04,2.48,15.22-.5,6.91-5.28,11.45-11.34,14.03Z"/>
    <path class="cls-12" d="M58.15,66.2c.97.21,2.01.56,2.98.8,5.41,2.82,7.61,7.88,7.16,13.99-.23,5.53-.29,11.06-.19,16.59,0,.39-.33,1.08-.8,1.05-1.26.01-2.52,0-3.78,0l-.31-.77c.22-2.28.17-4.63-.33-6.86s-2.8-2.03-2.44.25c.5,2.26.69,4.48.33,6.85l-.43.53c-5.97.02-11.94,0-17.91,0l-.4-.19v-15.49l.4-.24.95-.57c2.48-.45,4.87-1.03,7.17-1.73-.05-.8.09-1.36.44-1.68-.15-.72-.19-1.47,0-2.19l.08-.46c1.48-.41,2.91-.95,4.28-1.63l.41.1c-.12-.86-.15-1.73,0-2.59-.61-.4-.73-1.28-.2-1.79-.19-.92-.17-1.87,0-2.79-.57-.3-.69-1.17-.2-1.59.9.19,2.02.23,2.79.4Z"/>
    <path class="cls-10" d="M54.97,4.92c.63.93.48,2.87.3,4.04-1.07,6.87-6.7,10.5-13.43,9.89-4.11-.08-9.13.2-13.13,1.09-.89.2-2.91,1.38-3.34.36-.22-1.76-.7-3.49-1.04-5.23-.38-1.94-1.09-5.01-1.19-6.87-.09-1.65,1.49-2.25,2.81-2.95,8.23-4.37,20.7-4.45,29.02-.32Z"/>
    <path class="cls-22" d="M61.14,67c5.69,1.4,10.75,4.24,11.88,10.5l.02,20.6c-.11.33-.34.47-.66.53-1.22.23-3.67,0-5.07,0l.41-1.08c-.52-6.73.68-14.44-.07-21.05-.5-4.48-3.17-6.93-6.66-9.26-.52-.35-.16-.21.15-.24Z"/>
    <path class="cls-15" d="M57.36,15.07c-.35,1.82-.73,3.7-1.19,5.47-.12.09-.25.18-.39.22-.19.05-3.11-.93-3.74-1.06-1.82-.36-3.42-.33-5.21-.46-1.57-.11-3.44-.37-4.97-.4,6.85-.1,12.6-3.53,13.13-10.85.07-1.02-.08-2.07,0-3.08.74.37,3.33,1.62,3.54,2.33.22.74-.91,6.58-1.15,7.82Z"/>
    <path class="cls-22" d="M40.65,82.92c.27-.47,1.55-.78,1.79-.2v15.92c-1.06,0-2.12,0-3.18,0v-15.92c.36-.52,1.18-.38,1.39.2Z"/>
    <path class="cls-22" d="M63.53,98.64c-1.06,0-2.12,0-3.18,0,.07-1.49.3-2.98.21-4.48s-1.67-5.19,1.08-5.08c1.5.06,1.64,1.8,1.84,2.96.37,2.19.35,4.42.06,6.61Z"/>
    <path class="cls-22" d="M21.55,98.64c-1.12,0-2.26,0-3.38,0-.29-2.19-.31-4.42.06-6.61.19-1.14.35-2.94,1.83-2.95,2.73-.03,1.2,3.34,1.09,4.87s-.06,3.27.41,4.68Z"/>
    <path class="cls-4" d="M47.21,25.82c.25-.11.67-.21.91-.06.83.49,2.84,4.19,3.26,5.29,1.91,4.97,1.44,15.2-.38,20.23-1.91,5.26-6.3,9.5-11.98,10.16.27,0,.21.06-.17.2.68-.32,2.72-.58,3.6-.4l.28.4.29-.42c1.68-.31,3.32-.91,4.89-1.57l.49.2v4.57c1.45.29,2.94.5,4.38.8l.17.43c-3.77,4.73-7.65,9.39-11.65,13.97l-.46-.08-.39.15s-3.9-4.68-11.7-14.03l.15-.44c.69-.15,4.06-.64,4.29-.99l.1-4.44c-5.46-3.04-8.28-8.06-8.56-14.27l-.42-.39c-.15-1.27-.36-9.05.35-9.52.17-.11.46-.08.66-.04,7.37-.34,7.97-1.94,13.35-5.85,2.84-2.06,5.12-3.08,8.54-3.9Z"/>
    <path class="cls-17" d="M47.61,25.62c.79-.16,2.74-.65,3.38-.3.26.14,1.34,2.24,1.67,2.71,1.61,2.33,3.75,4.32,4,7.34,1.56.32,2.65.07,4.07,1.1,4.23,3.05,1.34,9.73-3.76,8.84.09,5.85-3.37,11.81-8.55,14.53-1.05.55-4.58,1.79-5.67,1.79h-3.88c-.1-.61.17-.31.49-.4,12.29-3.39,13.32-14.36,12.65-25.37-.24-3.95-1.58-6.67-4.06-9.67-.24-.29-.15-.49-.72-.37.08-.02.21-.16.4-.2Z"/>
    <path class="cls-9" d="M28.91,65.21l11.94,14.33c.61.08.47,2.94.31,3.14-.14.17-.28.21-.51.25-.48-.03-.92-.13-1.39-.2-2.73-.43-5.39-1.25-8.11-1.74-.71-.34-.44-1.5-.45-2.24.16-.71.19-1.48,0-2.19-.95-.54-3.65-1-4.45-1.58-.21-.15-.09-.31-.13-.41l-.2-2.19c.02-.74.13-1.46.2-2.19.18-.84.17-1.74,0-2.59.03-.62.15-1.18.2-1.79.86-.18,1.72-.41,2.59-.6Z"/>
    <path class="cls-17" d="M25.33,35.56c-.46.22-.55.63-.6,1.09-.26,2.34-.11,6.41,0,8.86-7.56.41-7.85-10.32-.09-10.17.36,0,.65.22.68.22Z"/>
    <path class="cls-2" d="M26.12,70.18c.03-.86-.04-1.73,0-2.59.32.39.25,1.37.21,1.91-.03.35-.21.6-.21.67Z"/>
    <path class="cls-2" d="M26.12,74.56c-.29-.76-.23-1.37-.2-2.19.43.54.11,1.5.2,2.19Z"/>
    <path class="cls-8" d="M30.7,78.74c0-.73,0-1.46,0-2.19.33.19.32,1.89,0,2.19Z"/>
    <path class="cls-7" d="M55.37,65.81c.11.54.18,1.04.2,1.59-.16.92-.19,1.88,0,2.79.06.6.16,1.19.2,1.79-.15.86-.12,1.73,0,2.59-.15.64-4,1.65-4.78,1.99-.2.71-.15,1.48,0,2.19-.02.74.27,1.9-.45,2.24-2.71.56-5.38,1.3-8.11,1.74-.77.12-1.01.25-1.79.2.45-.97.08-2.3.2-3.38l8.55-10.05,3.39-4.27c.86.18,1.72.42,2.59.6Z"/>
    <path class="cls-16" d="M60.08,83.17c.84,1.04.1,2.52-1.25,2.71-1.22.17-5.52.18-6.7-.03-1.96-.35-1.98-2.85-.23-3.12,1.28-.2,5.84-.18,7.16-.02.3.04.85.24,1.03.46Z"/>
    <path class="cls-6" d="M55.57,70.18c0-.06-.19-.33-.21-.67-.05-.59-.1-1.66.21-2.11.04.92-.03,1.86,0,2.79Z"/>
    <path class="cls-5" d="M55.77,74.56c-.33-.6-.34-1.95,0-2.59.04.57.11,2.13,0,2.59Z"/>
    <path class="cls-11" d="M50.99,78.74c-.33-.33-.32-2.05,0-2.19-.01.73.02,1.46,0,2.19Z"/>
    <path class="cls-3" d="M41.98,6.78c.74.68.36,2.22.46,2.32.19.18,3.08-.48,2.78,1.87-.24,1.85-2.62,1.14-2.78,1.31-.18.18.59,3.1-1.87,2.78-1.85-.24-1.14-2.62-1.31-2.78-.15-.15-3,.52-2.78-1.67.2-2.01,2.61-1.34,2.78-1.51.15-.15-.39-1.63.52-2.36.66-.53,1.57-.54,2.2.04Z"/>
  </g>
  <g>
    <circle class="cls-20" cx="75.23" cy="81.32" r="17.45"/>
    <g>
      <path class="cls-1" d="M74.15,66.32c11.84-.81,19.99,11.8,14.26,22.26-5.41,9.86-19.45,10.49-25.71,1.13-6.41-9.59,0-22.61,11.45-23.39Z"/>
      <path class="cls-19" d="M74.15,67.46c11.83-.87,19.32,12.56,12.25,22.15-6.32,8.58-19.71,7.03-23.93-2.72-3.8-8.76,2.19-18.74,11.68-19.43Z"/>
      <path class="cls-1" d="M75.8,78.56c2.05.38,2.81,2.64,1.84,4.39l3.33,3.34c.35.42,0,1.04-.54.93s-2.93-2.99-3.59-3.46c-4.09,2.06-6.51-3.92-2.19-5.25.17-.99-.29-5.27.1-5.88.28-.45.99-.24,1.03.28l.02,5.65Z"/>
      <path class="cls-1" d="M75.1,68.59c.43-.08.65.21.69.6.04.32.04,1.31-.02,1.6-.14.63-1.03.63-1.12-.17-.06-.5-.16-1.92.45-2.03Z"/>
      <path class="cls-1" d="M62.91,80.78c.41-.1,1.95-.13,2.15.29.49,1.05-1.7.96-2.22.79s-.49-.95.07-1.08Z"/>
      <path class="cls-1" d="M85.76,80.78c.41-.1,1.95-.13,2.15.29.49,1.05-1.7.96-2.22.79s-.49-.95.07-1.08Z"/>
      <path class="cls-1" d="M75.1,91.44c.43-.08.65.21.69.6.04.32.04,1.31-.02,1.6-.14.63-1.03.63-1.12-.17-.06-.5-.16-1.92.45-2.03Z"/>
      <path class="cls-21" d="M69.29,70.69c1.12-.24,1.31,1.3.43,1.49-1.12.24-1.31-1.3-.43-1.49Z"/>
      <path class="cls-21" d="M80.72,70.69c1.12-.24,1.31,1.3.43,1.49-1.12.24-1.31-1.3-.43-1.49Z"/>
      <path class="cls-21" d="M65.1,74.88c1.12-.24,1.31,1.3.43,1.49-1.12.24-1.31-1.3-.43-1.49Z"/>
      <path class="cls-21" d="M84.91,74.88c1.12-.24,1.31,1.3.43,1.49-1.12.24-1.31-1.3-.43-1.49Z"/>
      <path class="cls-21" d="M65.1,86.31c1.12-.24,1.31,1.3.43,1.49-1.12.24-1.31-1.3-.43-1.49Z"/>
      <path class="cls-21" d="M84.91,86.31c1.12-.24,1.31,1.3.43,1.49-1.12.24-1.31-1.3-.43-1.49Z"/>
      <path class="cls-21" d="M69.29,90.5c1.12-.24,1.31,1.3.43,1.49-1.12.24-1.31-1.3-.43-1.49Z"/>
      <path class="cls-21" d="M80.72,90.5c1.12-.24,1.31,1.3.43,1.49-1.12.24-1.31-1.3-.43-1.49Z"/>
      <path class="cls-18" d="M74.91,79.64c2.35-.38,2.76,3.13.54,3.4-2.25.27-2.65-3.06-.54-3.4Z"/>
    </g>
  </g>
</svg>