<?xml version="1.0" encoding="UTF-8"?>
<svg id="Layer_6" data-name="Layer 6" xmlns="http://www.w3.org/2000/svg" viewBox="0 0 668 512">
  <defs>
    <style>
      .cls-1, .cls-2, .cls-3, .cls-4 {
        opacity: .2;
      }

      .cls-1, .cls-5, .cls-6, .cls-7, .cls-8, .cls-9, .cls-10 {
        fill: #fff;
      }

      .cls-11, .cls-12, .cls-10, .cls-13 {
        opacity: .7;
      }

      .cls-11, .cls-14 {
        fill: #007cff;
      }

      .cls-12, .cls-15 {
        fill: #43aaff;
      }

      .cls-2, .cls-6, .cls-3 {
        isolation: isolate;
      }

      .cls-16 {
        fill: #ffaf44;
      }

      .cls-17 {
        fill: #f0f0f0;
      }

      .cls-18, .cls-19 {
        opacity: .3;
      }

      .cls-20 {
        fill: #28a545;
      }

      .cls-21, .cls-3 {
        fill: #1a2e35;
      }

      .cls-22 {
        opacity: .1;
        stroke-miterlimit: 10;
      }

      .cls-22, .cls-4 {
        stroke-width: .54px;
      }

      .cls-22, .cls-4, .cls-19 {
        fill: none;
        stroke: #000;
      }

      .cls-6 {
        opacity: .5;
      }

      .cls-7 {
        opacity: .8;
      }

      .cls-8 {
        opacity: .4;
      }

      .cls-23 {
        fill: #e7e7e7;
      }

      .cls-24 {
        fill: #30b53f;
      }

      .cls-4, .cls-19 {
        stroke-linecap: round;
        stroke-linejoin: round;
      }

      .cls-25 {
        fill: #ffbdb6;
      }

      .cls-26 {
        fill: #f5f5f5;
      }

      .cls-27 {
        fill: #cd7a63;
      }

      .cls-9 {
        opacity: .6;
      }

      .cls-28 {
        fill: #b94d3c;
      }

      .cls-19 {
        stroke-width: 1.08px;
      }

      .cls-29 {
        fill: #b0d5f7;
      }

      .cls-30 {
        fill: #ff7300;
      }

      .cls-31 {
        fill: #ff3233;
      }

      .cls-32 {
        fill: #f74f4c;
      }

      .cls-33 {
        fill: #e1e1e1;
      }
    </style>
  </defs>
  <g>
    <g>
      <path class="cls-33" d="M543.62,351.28h-195.38c-3.49,0-6.34-2.84-6.34-6.34V60.36c0-3.49,2.84-6.34,6.34-6.34h195.38c3.49,0,6.34,2.84,6.34,6.34v284.59c0,3.49-2.84,6.34-6.34,6.34ZM348.24,54.29c-3.35,0-6.07,2.72-6.07,6.07v284.59c0,3.35,2.72,6.07,6.07,6.07h195.38c3.35,0,6.07-2.72,6.07-6.07V60.36c0-3.34-2.72-6.07-6.07-6.07h-195.38Z"/>
      <path class="cls-33" d="M318.32,351.28H122.94c-3.49,0-6.34-2.84-6.34-6.34V60.36c0-3.49,2.84-6.34,6.34-6.34h195.38c3.49,0,6.34,2.84,6.34,6.34v284.59c0,3.49-2.84,6.34-6.34,6.34ZM122.94,54.29c-3.34,0-6.07,2.72-6.07,6.07v284.59c0,3.35,2.72,6.07,6.07,6.07h195.38c3.35,0,6.07-2.72,6.07-6.07V60.36c0-3.34-2.72-6.07-6.07-6.07H122.94Z"/>
    </g>
    <g>
      <rect class="cls-33" x="63.76" y="375.41" width="540.47" height=".27"/>
      <rect class="cls-33" x="119.62" y="390.83" width="17.36" height=".27"/>
      <rect class="cls-33" x="247.9" y="387.9" width="57.86" height=".27"/>
      <rect class="cls-33" x="138.06" y="400.88" width="39.18" height=".27"/>
      <rect class="cls-33" x="472.74" y="387.76" width="46.69" height=".27"/>
      <rect class="cls-33" x="529.06" y="387.76" width="6.84" height=".27"/>
      <rect class="cls-33" x="405.57" y="394.5" width="58.25" height=".27"/>
    </g>
  </g>
  <g>
    <rect class="cls-23" x="77.91" y="205.23" width="24.59" height="24.59"/>
    <rect class="cls-17" x="77.91" y="231.43" width="24.59" height="24.59"/>
    <rect class="cls-26" x="104.47" y="205.23" width="24.59" height="24.59"/>
    <rect class="cls-17" x="104.47" y="231.43" width="24.59" height="24.59"/>
    <rect class="cls-17" x="131.22" y="205.23" width="24.59" height="24.59"/>
    <rect class="cls-17" x="131.22" y="231.43" width="24.59" height="24.59"/>
    <g>
      <rect class="cls-17" x="157.17" y="205.23" width="24.59" height="24.59"/>
      <rect class="cls-23" x="157.17" y="231.43" width="24.59" height="24.59"/>
    </g>
    <g>
      <rect class="cls-17" x="182.96" y="205.23" width="24.59" height="24.59"/>
      <rect class="cls-17" x="182.96" y="231.43" width="24.59" height="24.59"/>
    </g>
    <g>
      <rect class="cls-23" x="208.75" y="205.23" width="24.59" height="24.59"/>
      <rect class="cls-26" x="208.75" y="231.43" width="24.59" height="24.59"/>
    </g>
    <g>
      <rect class="cls-17" x="234.54" y="205.23" width="24.59" height="24.59"/>
      <rect class="cls-17" x="234.54" y="231.43" width="24.59" height="24.59"/>
    </g>
    <g>
      <rect class="cls-17" x="260.33" y="205.23" width="24.59" height="24.59"/>
      <rect class="cls-17" x="260.33" y="231.43" width="24.59" height="24.59"/>
    </g>
    <g>
      <rect class="cls-17" x="286.12" y="205.23" width="24.59" height="24.59"/>
      <rect class="cls-23" x="286.12" y="231.43" width="24.59" height="24.59"/>
    </g>
    <g>
      <rect class="cls-26" x="311.91" y="205.23" width="24.59" height="24.59"/>
      <rect class="cls-17" x="311.91" y="231.43" width="24.59" height="24.59"/>
    </g>
    <g>
      <rect class="cls-17" x="337.7" y="205.23" width="24.59" height="24.59"/>
      <rect class="cls-17" x="337.7" y="231.43" width="24.59" height="24.59"/>
    </g>
    <g>
      <rect class="cls-17" x="363.49" y="205.23" width="24.59" height="24.59"/>
      <rect class="cls-23" x="363.49" y="231.43" width="24.59" height="24.59"/>
    </g>
    <g>
      <rect class="cls-17" x="389.28" y="205.23" width="24.59" height="24.59"/>
      <rect class="cls-26" x="389.28" y="231.43" width="24.59" height="24.59"/>
    </g>
    <g>
      <rect class="cls-23" x="415.07" y="205.23" width="24.59" height="24.59"/>
      <rect class="cls-17" x="415.07" y="231.43" width="24.59" height="24.59"/>
    </g>
    <g>
      <rect class="cls-26" x="440.86" y="205.23" width="24.59" height="24.59"/>
      <rect class="cls-17" x="440.86" y="231.43" width="24.59" height="24.59"/>
    </g>
    <g>
      <rect class="cls-17" x="466.65" y="205.23" width="24.59" height="24.59"/>
      <rect class="cls-17" x="466.65" y="231.43" width="24.59" height="24.59"/>
    </g>
    <g>
      <rect class="cls-17" x="492.44" y="205.23" width="24.59" height="24.59"/>
      <rect class="cls-23" x="492.44" y="231.43" width="24.59" height="24.59"/>
    </g>
    <g>
      <rect class="cls-26" x="518.23" y="205.23" width="24.59" height="24.59"/>
      <rect class="cls-17" x="518.23" y="231.43" width="24.59" height="24.59"/>
    </g>
    <g>
      <rect class="cls-17" x="544.02" y="205.23" width="24.59" height="24.59"/>
      <rect class="cls-17" x="544.02" y="231.43" width="24.59" height="24.59"/>
    </g>
    <g>
      <rect class="cls-23" x="569.81" y="205.23" width="24.59" height="24.59"/>
      <rect class="cls-26" x="569.81" y="231.43" width="24.59" height="24.59"/>
    </g>
  </g>
  <g>
    <g>
      <path class="cls-23" d="M496.75,61.88s0,.03,0,.03c.03,0,.02-.01,0-.03Z"/>
      <path class="cls-23" d="M510.98,40.25V7.41h-14.3v27.04l-14.16,20.81-.85.28s14.48,5.87,15.07,6.34c-.13-.69,14.24-21.63,14.24-21.63Z"/>
    </g>
    <g>
      <ellipse class="cls-23" cx="479.97" cy="87.9" rx="38.02" ry="54.75" transform="translate(256.38 521.62) rotate(-73.11)"/>
      <ellipse class="cls-17" cx="477.92" cy="94.66" rx="38.02" ry="54.75" transform="translate(248.47 524.45) rotate(-73.11)"/>
      <ellipse class="cls-7" cx="442.27" cy="85.21" rx="9.05" ry="13.03" transform="translate(232.22 483.64) rotate(-73.11)"/>
      <ellipse class="cls-7" cx="471.2" cy="68.65" rx="9.05" ry="13.03" transform="translate(268.59 499.57) rotate(-73.11)"/>
      <path class="cls-7" d="M474.97,119.01c-1.45,4.78-8.21,6.96-15.09,4.87-6.88-2.09-11.29-7.66-9.84-12.44,1.45-4.78,8.21-6.96,15.09-4.87,6.88,2.09,11.29,7.66,9.84,12.44Z"/>
      <path class="cls-7" d="M512.48,120.68c-1.45,4.78-8.21,6.96-15.09,4.87-6.88-2.09-11.29-7.66-9.84-12.44,1.45-4.78,8.21-6.96,15.09-4.87,6.88,2.09,11.29,7.66,9.84,12.44Z"/>
      <path class="cls-7" d="M520.45,90.11c-1.45,4.78-8.21,6.96-15.09,4.87-6.88-2.09-11.29-7.66-9.84-12.44s8.21-6.96,15.09-4.87c6.88,2.09,11.29,7.66,9.84,12.44Z"/>
      <path class="cls-7" d="M489.47,98.17c-1.45,4.78-8.21,6.96-15.09,4.87-6.88-2.09-11.29-7.66-9.84-12.44,1.45-4.78,8.21-6.96,15.09-4.87,6.88,2.09,11.29,7.66,9.84,12.44Z"/>
    </g>
  </g>
  <g>
    <g>
      <path class="cls-23" d="M311.77,60.59s0,.03,0,.03c-.03,0-.02-.01,0-.03Z"/>
      <path class="cls-23" d="M297.53,38.96V6.11h14.3v27.04l14.16,20.81.85.28s-14.49,5.87-15.07,6.34c.13-.69-14.24-21.63-14.24-21.63Z"/>
    </g>
    <g>
      <ellipse class="cls-23" cx="328.54" cy="86.61" rx="54.75" ry="38.02" transform="translate(-10.99 99.21) rotate(-16.89)"/>
      <ellipse class="cls-17" cx="330.6" cy="93.36" rx="54.75" ry="38.02" transform="translate(-12.86 100.1) rotate(-16.89)"/>
      <path class="cls-7" d="M353.78,87.7c1.45,4.78,8.21,6.96,15.09,4.87,6.88-2.09,11.29-7.66,9.84-12.44-1.45-4.78-8.21-6.96-15.09-4.87-6.88,2.09-11.29,7.66-9.84,12.44Z"/>
      <path class="cls-7" d="M324.84,71.14c1.45,4.78,8.21,6.96,15.09,4.87,6.88-2.09,11.29-7.66,9.84-12.44-1.45-4.78-8.21-6.96-15.09-4.87s-11.29,7.66-9.84,12.44Z"/>
      <ellipse class="cls-7" cx="346.01" cy="113.93" rx="13.03" ry="9.05" transform="translate(-18.18 105.46) rotate(-16.89)"/>
      <path class="cls-7" d="M296.04,119.38c1.45,4.78,8.21,6.96,15.09,4.87,6.88-2.09,11.29-7.66,9.84-12.44-1.45-4.78-8.21-6.96-15.09-4.87-6.88,2.09-11.29,7.66-9.84,12.44Z"/>
      <path class="cls-7" d="M288.07,88.82c1.45,4.78,8.21,6.96,15.09,4.87,6.88-2.09,11.29-7.66,9.84-12.44-1.45-4.78-8.21-6.96-15.09-4.87-6.88,2.09-11.29,7.66-9.84,12.44Z"/>
      <path class="cls-7" d="M319.04,96.87c1.45,4.78,8.21,6.96,15.09,4.87,6.88-2.09,11.29-7.66,9.84-12.44-1.45-4.78-8.21-6.96-15.09-4.87-6.88,2.09-11.29,7.66-9.84,12.44Z"/>
    </g>
  </g>
  <g>
    <g>
      <path class="cls-23" d="M152.14,141.92c-1.45,2.8-3.66,5.25-4.19,5.25-.18,0-.41.51-.65,1.22-.66,1.92-2.47,3.2-4.5,3.17h-10.27c-2.03.03-3.85-1.25-4.5-3.17-.22-.67-.45-1.22-.65-1.22-.55,0-2.73-2.44-4.19-5.25-1.45-2.81.18-13.29.92-17.32.73-4.03-2.37-12.77,0-16.27,2.03-3,25.08-3,27.11,0,2.37,3.5-.72,12.21,0,16.27.72,4.06,2.37,14.53.92,17.32Z"/>
      <path class="cls-23" d="M141.58,101.89h-7.92l-2.44,4.59h12.8l-2.44-4.59ZM137.8,105.23c-2.01,0-3.66-.51-3.66-1.12s1.64-1.12,3.66-1.12,3.66.5,3.66,1.12-1.65,1.12-3.66,1.12Z"/>
      <path class="cls-6" d="M126.15,124.61c.63-3.66-2.06-11.56,0-14.73,1.77-2.72,21.83-2.72,23.61,0,2.05,3.17-.63,11.08,0,14.73.63,3.65,2.05,13.15.78,15.69-1.27,2.54-3.16,4.75-3.66,4.75-.16,0-.37.48-.56,1.09-.41,1.33-1.47,2.35-2.81,2.72l.12,6.34c0,.57-.46,1.03-1.03,1.03s-1.03-.46-1.04-1.03l-.09-4.96c0-.67-.55-1.22-1.22-1.22h-.11c-.67,0-1.22.55-1.22,1.22l.09,4.88c0,.57-.46,1.03-1.02,1.03-.57,0-1.03-.46-1.03-1.02h0s-.1-4.96-.1-4.96c0-.67-.55-1.22-1.22-1.22h-.66c-.67,0-1.22.55-1.22,1.22l.1,4.88c-.06.57-.57.98-1.14.92-.48-.05-.87-.43-.92-.92l-.12-6.65c-.97-.51-1.69-1.39-2-2.44-.2-.61-.4-1.09-.56-1.09-.48,0-2.38-2.22-3.66-4.75-1.28-2.53.15-12.05.78-15.69"/>
      <path class="cls-33" d="M149.76,124.61c.62,3.66,2.05,13.15.78,15.69-1.27,2.54-3.16,4.75-3.66,4.75-.16,0-.37.48-.56,1.09-.41,1.33-1.47,2.35-2.81,2.72l.12,6.34c0,.57-.46,1.03-1.03,1.03s-1.03-.46-1.04-1.03l-.09-4.96c0-.67-.55-1.22-1.22-1.22h-.11c-.67,0-1.22.55-1.22,1.22l.09,4.88c0,.57-.46,1.03-1.02,1.03-.57,0-1.03-.46-1.03-1.02h0s-.1-4.96-.1-4.96c0-.67-.55-1.22-1.22-1.22h-.66c-.67,0-1.22.55-1.22,1.22l.1,4.88c-.06.57-.57.98-1.14.92-.48-.05-.87-.43-.92-.92l-.12-6.65c-.97-.51-1.69-1.39-2-2.44-.2-.61-.4-1.09-.56-1.09-.48,0-2.38-2.22-3.66-4.75-1.28-2.53.15-12.05.78-15.69h0c7.36,4,16.25,4,23.61,0l-.09.18Z"/>
      <path class="cls-33" d="M138.07,104.2v-19.53c0-.52-.81-.52-.81,0v19.53c0,.52.81.52.81,0h0Z"/>
    </g>
    <path class="cls-33" d="M129.92,465.83c.1,2.43-1.79,4.48-4.22,4.58-2.43.1-4.48-1.79-4.58-4.22-.1-2.43,1.79-4.48,4.22-4.58,2.43-.1,4.48,1.79,4.58,4.22Z"/>
    <path class="cls-33" d="M213.35,465.83c.1,2.43-1.79,4.48-4.22,4.58-2.43.1-4.48-1.79-4.58-4.22-.1-2.43,1.79-4.48,4.22-4.58,2.43-.1,4.48,1.79,4.58,4.22Z"/>
    <path class="cls-23" d="M124.34,83.13h86.34c4.05,0,7.35,3.29,7.35,7.35v.95h-101.03v-.95c0-4.05,3.29-7.35,7.35-7.35Z"/>
    <path class="cls-23" d="M165.41,61.09h1c2.14,0,3.88,1.74,3.88,3.88v399.34h-8.76V64.97c0-2.14,1.74-3.88,3.88-3.88Z"/>
    <path class="cls-23" d="M123.59,458.91h85.78c2.64,0,4.78,2.14,4.78,4.78v.62h-94.69v-1.28c0-2.28,1.85-4.12,4.12-4.12Z"/>
  </g>
  <path class="cls-26" d="M587.47,488.69c0,10.96-113.01,19.84-252.41,19.84s-252.41-8.88-252.41-19.84,113.01-19.84,252.41-19.84,252.41,8.88,252.41,19.84Z"/>
  <g>
    <g>
      <path class="cls-14" d="M305.9,165.84s-5.02,4.91-4.71,21.5c.31,16.59-3.61,33.1-4.4,35.75-.79,2.65-6.41,9.06-.78,12.74s16.89.57,21.8-6.39c4.91-6.96,16.2-26.83,16.2-26.83l-28.11-36.77Z"/>
      <g>
        <path class="cls-14" d="M304.48,230.98s-1.78-3.79-7.5-4.12-6.05,3.07-6.05,3.07c0,0-3.01.19-4.39,1-1.37.81-.87,1.72-.87,1.72,0,0-2.41-.13-4.03.35-1.61.48-.68,3.75-.07,3.75s1.2-1.59,1.2-1.59c0,0,0,4.38,1.61,4.05,1.61-.32,1.15-4.63,1.15-4.63l1.44.03s-.08,5.19,1.53,4.61c1.61-.58,1.37-6.17,1.37-6.17,0,0,.97-.14.97.99s.3,5.33,1.6,5.49,2.19-1.61,2.19-3.07-.08-2.1-.08-2.1c0,0,5.33-.32,7.34,0,2.02.32.65,4.03,2.91,4.44,2.26.4,3.07-.65,2.58-2.18-.48-1.53-2.91-5.65-2.91-5.65Z"/>
        <path class="cls-10" d="M304.48,230.98s-1.78-3.79-7.5-4.12-6.05,3.07-6.05,3.07c0,0-3.01.19-4.39,1-1.37.81-.87,1.72-.87,1.72,0,0-2.41-.13-4.03.35-1.61.48-.68,3.75-.07,3.75s1.2-1.59,1.2-1.59c0,0,0,4.38,1.61,4.05,1.61-.32,1.15-4.63,1.15-4.63l1.44.03s-.08,5.19,1.53,4.61c1.61-.58,1.37-6.17,1.37-6.17,0,0,.97-.14.97.99s.3,5.33,1.6,5.49,2.19-1.61,2.19-3.07-.08-2.1-.08-2.1c0,0,5.33-.32,7.34,0,2.02.32.65,4.03,2.91,4.44,2.26.4,3.07-.65,2.58-2.18-.48-1.53-2.91-5.65-2.91-5.65Z"/>
      </g>
    </g>
    <g>
      <g>
        <path class="cls-25" d="M323.8,158.09c4.12-1.53,2.36-6.62.82-10.47-.57-1.37-1.26-2.69-2.05-3.96l5.8-8.06,5.23-7.37c.22,2.59.58,5.17,1.08,7.73.75,4.45,2.13,7.8,3.77,11.85,1,1.73,2.5,2.89,3.72,3.83,0,0-6.11,7.68-11.36,8.88-5.25,1.19-7.01-2.43-7.01-2.43Z"/>
        <path class="cls-2" d="M335.64,139.26s-1.69,11.65-10.59,9.56l-.59-1.81,11.17-7.75Z"/>
        <path class="cls-25" d="M333.49,114.52c-4.36-6.64-13.59-8.71-20.61-4.61-9.67,5.66-8.25,20.83-4.21,29.49,4.5,9.64,18.56,12.15,25.17,3.09,4.4-6.02,3.1-11.91,1.82-22.08-.25-2.09-.99-4.11-2.16-5.9Z"/>
        <path class="cls-21" d="M300.44,119.76s1.25.88,2.07.32c-1.28-1.23-1.63-3.07-.88-4.64,0,0,1.05,1.39,1.83,1.22-.48-3.79.28-7.63,2.18-10.99,3.21-6.16,19.61-3.49,19.61-3.49,0,0,2.76-3.9,9.67-.27,5.54,2.91,8.2,11.08,8.7,14.77-.75,3.87-3.76,8.19-8.55,11.22-3.32-2.26-4.63-6.63-5.16-9.75-.83-.02-1.66-.23-2.39-.65-2.86-1.61-3.12-9.72-11.99-6.23-1.87-.57-3.92-.06-5.24,1.32-2.39,2.36-1.61,11.71-6.18,10.09-4.57-1.62-3.66-2.93-3.66-2.93Z"/>
        <path class="cls-8" d="M300.44,119.76s1.25.88,2.07.32c-1.28-1.23-1.63-3.07-.88-4.64,0,0,1.05,1.39,1.83,1.22-.48-3.79.28-7.63,2.18-10.99,3.21-6.16,19.61-3.49,19.61-3.49,0,0,2.76-3.9,9.67-.27,5.54,2.91,8.2,11.08,8.7,14.77-.75,3.87-3.76,8.19-8.55,11.22-3.32-2.26-4.63-6.63-5.16-9.75-.83-.02-1.66-.23-2.39-.65-2.86-1.61-3.12-9.72-11.99-6.23-1.87-.57-3.92-.06-5.24,1.32-2.39,2.36-1.61,11.71-6.18,10.09-4.57-1.62-3.66-2.93-3.66-2.93Z"/>
        <g>
          <path class="cls-21" d="M321.36,126.8c.18,1.15-.48,2.15-1.31,2.21-.82.05-1.53-.86-1.63-2.03-.1-1.16.5-2.16,1.31-2.21.8-.05,1.53.84,1.63,2.03Z"/>
          <path class="cls-21" d="M310.99,129.17c.18,1.15-.5,2.16-1.31,2.21-.8.05-1.53-.86-1.63-2.03-.1-1.16.5-2.16,1.31-2.21.8-.05,1.54.92,1.63,2.03Z"/>
          <path class="cls-21" d="M305.76,124.3c.2.07.42.04.58-.09,1.09-.89,2.55-1.25,3.96-.97.3.09.61-.07.7-.35.09-.28-.07-.58-.37-.66,0,0,0,0,0,0-1.77-.4-3.63.03-5,1.16-.24.18-.29.51-.1.74,0,0,0,0,0,0,.06.06.14.11.22.15Z"/>
          <path class="cls-8" d="M305.76,124.3c.2.07.42.04.58-.09,1.09-.89,2.55-1.25,3.96-.97.3.09.61-.07.7-.35.09-.28-.07-.58-.37-.66,0,0,0,0,0,0-1.77-.4-3.63.03-5,1.16-.24.18-.29.51-.1.74,0,0,0,0,0,0,.06.06.14.11.22.15Z"/>
          <path class="cls-21" d="M320.96,121.79c.1-.06.18-.14.23-.24.08-.29-.1-.57-.4-.63,0,0,0,0-.01,0-1.75-.38-3.61.1-5,1.27-.22.21-.23.55-.02.76h0c.22.2.56.2.79,0h0c1.12-.89,2.59-1.24,3.97-.94.17,0,.33-.07.44-.19Z"/>
          <path class="cls-8" d="M320.96,121.79c.1-.06.18-.14.23-.24.08-.29-.1-.57-.4-.63,0,0,0,0-.01,0-1.75-.38-3.61.1-5,1.27-.22.21-.23.55-.02.76h0c.22.2.56.2.79,0h0c1.12-.89,2.59-1.24,3.97-.94.17,0,.33-.07.44-.19Z"/>
        </g>
        <path class="cls-32" d="M313.74,126.31c-1.05,3.23-2.58,6.3-4.52,9.14,1.59.92,3.53,1.14,5.3.58l-.78-9.72Z"/>
        <g class="cls-18">
          <path class="cls-5" d="M315.72,110.29c-.34-.49-.68-.99-1.09-1.43-.5-.52-1.1-.94-1.72-1.31-1.2-.72-2.68-1.09-4.07-.83-1.52.28-2.79,1.36-3.54,2.68-.75,1.34-1.02,2.9-1.08,4.43-.02.52.79.52.81,0,.04-1.25.24-2.53.78-3.66.19-.4.42-.79.7-1.12.23-.27.55-.59.78-.76.26-.19.54-.36.84-.5.02,0,.12-.05.08-.04s.05-.02.06-.02c.07-.03.13-.05.2-.07.12-.04.24-.08.37-.11.1-.03.21-.04.31-.06.12-.02-.08,0,.05,0,.15-.01.3-.02.46-.03.78-.01,1.56.16,2.27.49s1.41.79,1.97,1.34c.44.42.78.92,1.12,1.42.29.43,1,.02.7-.41h0Z"/>
        </g>
        <g class="cls-18">
          <path class="cls-5" d="M317.66,109.07c-.93-2.56-3.09-4.56-5.68-5.38-.73-.23-1.49-.36-2.25-.38-.52-.02-.52.79,0,.81,2.42.08,4.76,1.39,6.17,3.35.4.56.74,1.17.97,1.82.07.21.28.34.5.28.2-.05.36-.29.28-.5h0Z"/>
        </g>
        <path class="cls-21" d="M319.4,137.64c1.5-.68,2.78-1.81,3.66-3.19.24-.38.45-.78.63-1.2.08-.19.06-.44-.15-.55-.17-.09-.47-.06-.55.15-.15.36-.33.71-.54,1.04-.1.17-.21.33-.32.49-.03.04-.05.07-.08.11-.01.02-.03.03-.04.05,0,0-.06.09-.03.04s-.03.04-.03.04c-.01.02-.03.03-.04.05-.03.04-.07.08-.1.13-.25.3-.52.58-.8.83-.15.13-.3.26-.45.38-.05.04.08-.06,0,0-.02.01-.03.03-.05.04-.03.03-.07.05-.11.08-.08.06-.17.12-.25.18-.37.24-.75.46-1.15.64-.19.09-.26.38-.15.55.13.2.35.24.55.15h0Z"/>
      </g>
      <path class="cls-21" d="M303.8,126.3c.03.98.18,1.97.4,2.92.34,1.48.93,3.2,2.28,4.05,1.46.92,3.31.3,4.33-.96,1.1-1.36,1.57-3.17,1.86-4.87.2-1.18.3-2.37.37-3.57,0-.03.03-.09,0,0-.02.05-.01.12-.1.2l-.18.1h0c-.07,0-.14,0-.22,0h0c-.1-.13-.2-.26-.3-.39h0c.07-.12.13-.23.2-.35.1-.08.1-.04.03-.02-.06.02-.12.04-.17.05-.21.07-.42.13-.63.19-.67.2-1.35.4-2.02.61-1.5.45-3,.89-4.51,1.34-.35.1-.69.2-1.04.31-.5.15-.29.93.22.78.98-.29,1.96-.58,2.94-.87,1.53-.45,3.06-.91,4.58-1.37.24-.07.48-.14.71-.22s.49-.14.5-.46c0-.16-.13-.37-.3-.39-.6-.09-.54.59-.56.98-.04.61-.09,1.21-.16,1.82-.03.22-.04.31-.07.5-.03.21-.06.41-.1.62-.07.42-.16.83-.26,1.24-.2.83-.46,1.62-.85,2.35-.09.18-.19.35-.3.51-.12.18-.19.28-.31.41-.26.3-.49.51-.79.69-.08.05-.16.09-.24.13-.03.02-.07.03-.11.05-.06.03.05-.02-.01,0-.02,0-.05.02-.07.03-.18.07-.37.12-.57.15-.1.02-.35.03-.52.02-.04,0-.08,0-.12,0-.07,0,.03,0-.06,0s-.18-.04-.27-.07c-.04-.01-.08-.03-.12-.04-.02,0-.13-.05-.06-.02-.08-.03-.15-.07-.23-.11s-.15-.09-.21-.14c-.03-.02-.06-.04-.09-.06.06.04-.04-.04-.06-.05-.3-.26-.47-.47-.66-.77-.42-.66-.65-1.31-.86-2.08-.1-.36-.18-.72-.25-1.09-.03-.17-.06-.35-.09-.53-.01-.07-.02-.15-.03-.22,0-.02,0-.04,0-.07,0,0,0,.07,0,.03,0-.04-.01-.08-.02-.13-.05-.39-.08-.78-.1-1.17,0-.02,0-.04,0-.06-.02-.52-.83-.52-.81,0Z"/>
      <path class="cls-21" d="M314.72,122.93c-.03,1.02.09,2.06.28,3.06.31,1.6.94,3.42,2.41,4.31.83.5,1.82.57,2.75.38,1.1-.22,2.17-.73,2.98-1.51,1.4-1.34,1.89-3.33,1.93-5.22.03-1.23-.12-2.47-.37-3.67-.02-.08,0-.01,0,.05,0-.07,0,.05-.01.08l-.1.18h0c-.06.03-.12.07-.18.1h0c-.07,0-.14,0-.22,0h0c-.09-.17-.19-.33-.28-.5h0c.06-.08.12-.16.19-.24.13-.08.09-.04.02-.02-.06.02-.13.04-.19.06-.23.07-.46.13-.69.2-.73.21-1.47.42-2.2.63-1.63.47-3.27.93-4.9,1.39-.37.11-.75.21-1.12.32-.5.14-.29.92.22.78,1.06-.3,2.12-.6,3.18-.9,1.66-.47,3.32-.94,4.98-1.42.26-.08.53-.15.79-.23.2-.06.48-.11.52-.36.04-.2-.05-.46-.28-.5-.73-.11-.46.71-.39,1.1.02.12.04.24.06.37.01.07.02.13.03.2,0,.04.01.08.02.12,0,.04.02.14,0,.05.05.35.08.71.1,1.07.03.41.03.82.02,1.23s-.05.88-.11,1.23c-.15.91-.41,1.73-.89,2.49s-1.25,1.41-2.14,1.78c-.47.2-1.04.36-1.52.41s-.81.02-1.22-.1c-.68-.2-1.23-.71-1.62-1.32-.44-.69-.68-1.38-.87-2.19-.09-.38-.17-.77-.22-1.16,0-.04-.01-.08-.02-.13,0-.06,0,.06,0,0,0-.02,0-.04,0-.05-.01-.09-.02-.19-.03-.28-.02-.16-.03-.32-.05-.48-.03-.41-.04-.83-.05-1.24,0-.02,0-.04,0-.06.01-.52-.8-.52-.81,0Z"/>
      <path class="cls-21" d="M313.02,124.13c.21-.15.43-.27.66-.37l-.1.04c.28-.12.57-.2.87-.24h-.11c.2-.01.4-.02.59-.01.21,0,.41-.19.41-.41-.01-.23-.18-.4-.41-.41-.82-.03-1.66.21-2.33.69-.09.06-.16.13-.19.24-.03.1-.01.23.04.31s.14.16.24.19.22.02.31-.04h0Z"/>
      <path class="cls-21" d="M324.51,120.82c4.04.49,8.08.98,12.12,1.47.22.03.4-.21.41-.41,0-.24-.19-.38-.41-.41-4.04-.49-8.08-.98-12.12-1.47-.22-.03-.4.21-.41.41,0,.24.19.38.41.41h0Z"/>
      <path class="cls-14" d="M306.7,135.53c.81-.29,19.67-5.03,22.84-9.84l8.89,8.2s-4.04,8.69-12.05,13.97c-4.54,2.99-8.39,3.18-12.71.94-4.32-2.24-6.98-13.27-6.98-13.27Z"/>
      <g class="cls-13">
        <path class="cls-5" d="M306.7,135.53c.81-.29,19.67-5.03,22.84-9.84l8.89,8.2s-4.04,8.69-12.05,13.97c-4.54,2.99-8.39,3.18-12.71.94-4.32-2.24-6.98-13.27-6.98-13.27Z"/>
      </g>
      <path class="cls-14" d="M330.17,126.84c1.71-1.79,3.87-3.26,6.15-4.22.61-.26,1.25-.47,1.9-.63.51-.12.29-.9-.22-.78-2.52.61-4.87,2.01-6.86,3.64-.54.44-1.06.91-1.54,1.42-.36.38.21.95.57.57h0Z"/>
      <g class="cls-13">
        <path class="cls-5" d="M330.17,126.84c1.71-1.79,3.87-3.26,6.15-4.22.61-.26,1.25-.47,1.9-.63.51-.12.29-.9-.22-.78-2.52.61-4.87,2.01-6.86,3.64-.54.44-1.06.91-1.54,1.42-.36.38.21.95.57.57h0Z"/>
      </g>
      <g>
        <path class="cls-25" d="M343.37,126.16c-.49,2.77-2.12,5.25-4.54,6.88-3.22,2.14-6.15-.29-6.38-3.82-.17-3.13,1.26-8.12,5.04-8.82,3.78-.7,6.42,2.35,5.87,5.76Z"/>
        <path class="cls-22" d="M335.12,129.26c-.26-1.89.4-3.87,1.77-5.26.58-.59,1.47-1.1,2.26-.78"/>
      </g>
      <path class="cls-11" d="M309.88,116.76s-2.57,10.31-9.51,5.32c-2.24-1.61-2.23-7.13-1.37-8.25.86-1.13,1.94-10.72,11.01-12.41,9.07-1.69,14.5-1.05,14.5-1.05,0,0,4.61-1.99,8.9-.77,4.29,1.22,12,12.99,12.25,17.27.57,10.21-5.52,15.77-5.52,15.77,0,0-4.89-10.74-8.81-12.52-3.92-1.78-6.81-9.68-14.38-8.28-6.58,1.22-7.06,4.93-7.06,4.93Z"/>
      <path class="cls-14" d="M339.71,132.59c-.03,1.35.28,2.69.87,3.9.56,1.14,1.42,2.29,2.57,2.89.57.3,1.33.51,1.89.07.51-.41.55-1.13.34-1.71-.4-1.08-1.26-1.91-2.13-2.63-.96-.78-2.03-1.5-2.74-2.53l-.55.55c2.37,1.58,5.27,2.26,8.1,2.11.68-.04,1.49-.06,1.98-.62s.35-1.39-.22-1.86-1.35-.69-2.06-.84-1.49-.21-2.23-.21c-1.83,0-3.64.34-5.47.35-.52,0-.52.81,0,.81,2.77-.01,5.68-.86,8.38.08.36.13,1.28.45,1.07,1s-1.15.47-1.59.49c-1.25.06-2.5-.05-3.71-.34-1.38-.33-2.68-.88-3.86-1.67-.33-.22-.78.22-.55.55.57.83,1.34,1.48,2.12,2.1s1.56,1.19,2.14,1.96c.28.37.64.88.62,1.37-.02.59-.6.5-1,.33-1.01-.45-1.76-1.42-2.27-2.37-.63-1.16-.94-2.47-.91-3.79.01-.52-.8-.52-.81,0h0Z"/>
    </g>
    <g>
      <path class="cls-21" d="M324.76,453.71s-.53,19.55-.38,20.08l2.01,10.87c.3.99-.26,2.03-1.25,2.33-.18.05-.36.08-.54.08-5.31.07-7.82.1-14.43.19l-20.21.27c-5.51.07-6.73-5.46-4.46-6.01,10.17-2.39,19.92-7,23.04-10.01l-1.6-19.09,17.82,1.28Z"/>
      <path class="cls-14" d="M327.21,485.11c.31,1.04-.28,2.13-1.32,2.45-.18.06-.38.08-.57.08-5.58.07-8.22.11-15.16.2l-21.24.28c-5.79.08-7.07-5.74-4.69-6.31,10.69-2.51,20.93-7.36,24.2-10.52l4.95,11.31,13.82,2.51Z"/>
      <path class="cls-9" d="M327.21,485.11c.31,1.04-.28,2.13-1.32,2.45-.18.06-.38.08-.57.08-5.58.07-8.22.11-15.16.2l-21.24.28c-5.79.08-7.07-5.74-4.69-6.31,10.69-2.51,20.93-7.36,24.2-10.52l4.95,11.31,13.82,2.51Z"/>
      <path class="cls-21" d="M326.91,485c-11.13,0-22.25.35-33.37.51-3.04.04-6.08.07-9.12.07-.52,0-.52.81,0,.81,11.13,0,22.25-.35,33.37-.51,3.04-.04,6.08-.07,9.12-.07.52,0,.52-.81,0-.81h0Z"/>
    </g>
    <g>
      <path class="cls-21" d="M377.94,453.41s-.53,19.55-.38,20.08l2.01,10.87c.3.99-.26,2.03-1.25,2.33-.18.05-.36.08-.54.08-5.31.07-7.82.1-14.43.19l-20.21.27c-5.51.07-6.73-5.46-4.46-6.01,10.17-2.39,19.92-7,23.04-10.01l-1.6-19.09,17.82,1.28Z"/>
      <path class="cls-14" d="M380.39,484.82c.31,1.04-.28,2.13-1.32,2.45-.18.06-.38.08-.57.08-5.58.07-8.22.11-15.16.2l-21.24.28c-5.79.08-7.07-5.74-4.69-6.31,10.69-2.51,20.93-7.36,24.2-10.52l4.95,11.31,13.82,2.51Z"/>
      <path class="cls-9" d="M380.39,484.82c.31,1.04-.28,2.13-1.32,2.45-.18.06-.38.08-.57.08-5.58.07-8.22.11-15.16.2l-21.24.28c-5.79.08-7.07-5.74-4.69-6.31,10.69-2.51,20.93-7.36,24.2-10.52l4.95,11.31,13.82,2.51Z"/>
      <path class="cls-21" d="M380.09,484.7c-11.13,0-22.25.35-33.37.51-3.04.04-6.08.07-9.12.07-.52,0-.52.81,0,.81,11.13,0,22.25-.35,33.37-.51,3.04-.04,6.08-.07,9.12-.07.52,0,.52-.81,0-.81h0Z"/>
    </g>
    <path class="cls-18" d="M306.05,262.39l69.86,1.24.13,3.32c-26.15,2.04-50.3,2.65-70.35.33l.36-4.9Z"/>
    <g>
      <path class="cls-14" d="M377.52,362.75c-1.66-16.69-5.89-118.89-5.89-118.89l-63.71-.76s-4.06,27.57-3.13,71.81h0s-2.72,120.05-.02,153.11l24.63-.16c.7-20.93,5.56-103.47,5.56-103.47,1.55-14.04,5.1-51.76,6.21-63.59.46-2.62.91-5.26,1.35-7.89,4.38,12.83,4.76,67.37,6.31,75.25,1.78,9.03,5.96,101.97,5.96,101.97l25.68-.58s-1.29-90.11-2.95-106.8Z"/>
      <polygon class="cls-18" points="304.71 318.28 339.45 318.99 338.81 325.67 304.55 326.12 304.71 318.28"/>
      <polygon class="cls-18" points="346.36 325.57 345.94 318.95 375.41 318.49 375.64 324.69 346.36 325.57"/>
    </g>
    <g>
      <path class="cls-14" d="M311.7,216.08c-1.9,1.48-5.3,24.93-7.39,46.64-2.14,22.31-7.74,53.05-1.84,55.16,5.91,2.11,74.19.68,77.99.47,3.8-.21-7.69-94.37-10.57-100.16-2.87-5.78-58.2-2.11-58.2-2.11Z"/>
      <path class="cls-14" d="M323.44,154.64c-1.64.45-15.24,5.65-17.54,11.2-2.3,5.55-2.04,52.68,4.21,59.01,6.25,6.33,59.08-2.26,60.55-5.25,1.48-2.99-8.64-65.62-12.54-68.11-6.12-3.91-19.7-1.08-19.52-1l-15.17,4.15Z"/>
      <path class="cls-21" d="M308.62,225.11c8.72,2.21,17.91,2.71,26.87,2.53s17.64-.95,26.06-3.3c3.23-.9,6.63-2.03,9.32-4.09.41-.31,0-1.02-.41-.7-2.33,1.78-5.19,2.83-7.96,3.67-3.77,1.14-7.67,1.88-11.57,2.43-9.21,1.29-18.62,1.55-27.89.85-4.78-.36-9.55-.99-14.2-2.17-.51-.13-.72.65-.22.78h0Z"/>
      <path class="cls-21" d="M308.24,225.41c-1.5,6.25-2.61,12.57-2.92,19-.11,2.37-.13,4.75-.05,7.12.02.52.83.52.81,0-.24-7.21.45-14.38,1.92-21.44.31-1.5.66-2.98,1.01-4.47.12-.51-.66-.72-.78-.22h0Z"/>
      <g class="cls-18">
        <path d="M305.2,170.51c.28,6.85.4,13.71.61,20.57.22,7.35.5,14.71,1.13,22.04.32,3.67.72,7.33,1.32,10.97.08.51.87.3.78-.22-1.11-6.75-1.59-13.6-1.94-20.43-.38-7.29-.55-14.58-.74-21.88-.1-3.69-.2-7.37-.35-11.06-.02-.52-.83-.52-.81,0h0Z"/>
      </g>
    </g>
    <g>
      <path class="cls-21" d="M332.77,220.04c-.63.25-24.13,15.22-24.13,15.22,0,0,3.5,1.65,8.27-.74,4.78-2.39,7.36-4.51,7.7-5.3.1-.23-.26-1.56-.26-1.56l10.58-6.18-2.16-1.44Z"/>
      <path class="cls-14" d="M319.31,228.16c-.17-.2,8.89-13.86,11.07-15.34s15.51-.35,15.73-.61,4.95-3.99,5.45-3.43c.5.55,7.12,7.87,5.06,8.95s-6.46,2.74-6.46,2.74c0,0-1.84,3.36-3.65,3.66s-4.18.99-5.41,1.88c-1.23.89-3.36,2.02-4.39.74,0,0-2.33.57-3.37-.72,0,0-2.55.13-3.22-1.07-.67-1.2-.46-2.88-.52-2.83s.27-2.02-.28-1.93c-.55.09-3.35,5.07-5.89,6.9-2.54,1.84-3.43,1.87-4.12,1.05Z"/>
      <path class="cls-10" d="M319.31,228.16c-.17-.2,8.89-13.86,11.07-15.34s15.51-.35,15.73-.61,4.95-3.99,5.45-3.43c.5.55,7.12,7.87,5.06,8.95s-6.46,2.74-6.46,2.74c0,0-1.84,3.36-3.65,3.66s-4.18.99-5.41,1.88c-1.23.89-3.36,2.02-4.39.74,0,0-2.33.57-3.37-.72,0,0-2.55.13-3.22-1.07-.67-1.2-.46-2.88-.52-2.83s.27-2.02-.28-1.93c-.55.09-3.35,5.07-5.89,6.9-2.54,1.84-3.43,1.87-4.12,1.05Z"/>
      <path class="cls-18" d="M353.31,152.37s5.78-5.47,17.78,12.04c4.38,6.4,3.04,43.92-.43,50.76,0,0-13.01,6.53-15.85,5.34-2.85-1.19-7.79-11.01-7.32-13.39.48-2.38,10.05-3.3,8.1-5.29-1.95-2-4.18-6.16.14-6.21,4.33-.05,9.1.33,9.1.33,0,0-13.56-23.53-12.51-32.51,1.05-8.99.99-11.07.99-11.07Z"/>
      <path class="cls-14" d="M353.17,150.04s8.82-1.28,20.82,16.23c4.38,6.4,16.69,30.92,13.22,37.75-3.47,6.84-26.02,15.78-28.87,14.59-2.85-1.19-8.43-7.25-7.95-9.62.48-2.37,10.05-3.3,8.1-5.29s-4.18-6.16.14-6.21c4.33-.05,9.75-.78,9.75-.78,0,0-16.32-26.36-19.21-33.97-3.2-8.46,3.99-12.68,3.99-12.68Z"/>
      <g class="cls-18">
        <path d="M353.46,151.1c-2.17.54-3.97,2.08-5.06,4-1.23,2.17-1.46,4.72-.94,7.13.31,1.47.9,2.87,1.68,4.16.27.45.97.04.7-.41-1.24-2.07-1.98-4.47-1.8-6.89.15-2.11,1.08-4.13,2.64-5.57.85-.79,1.88-1.36,3.01-1.64.51-.13.29-.91-.22-.78h0Z"/>
      </g>
      <g class="cls-18">
        <path d="M367.07,196.63c2,.59,3.91,1.55,5.55,2.83.17.13.41.17.57,0,.14-.14.17-.44,0-.57-1.38-1.08-2.9-1.94-4.53-2.58-.45-.18-.91-.33-1.38-.47-.21-.06-.44.07-.5.28s.07.44.28.5h0Z"/>
      </g>
      <g class="cls-18">
        <path d="M359.26,204.52c1.81.51,3.53,1.32,5.09,2.38.44.3.86.62,1.27.95.17.14.41.16.57,0,.14-.14.17-.43,0-.57-1.54-1.28-3.27-2.3-5.14-3.02-.52-.2-1.04-.37-1.58-.53-.5-.14-.72.64-.22.78h0Z"/>
      </g>
    </g>
  </g>
  <g>
    <g>
      <g>
        <g>
          <path class="cls-14" d="M275.61,187.41c1.07-2.09,3.26-3.36,4.58-4.53,2.12-1.89,2.16-5.16,3.17-5.88,2.7-1.93,8.85-3.28,8.32-5.15-.53-1.87-7,.44-7,.44,0,0,6.6-3.34,6.07-5.07-.45-1.44-1.16-1.66-1.52-1.8-.2-.08,0,.22,0,0,0-.32-.13-1.81-.99-2.12-1.36-.49-5.43.92-9.94,4.97,0,0,1.11-1.61,3.14-4.05.81-.97,2.37-1.53,3.04-2.93.93-1.96-3.53-1.28-6.01,1.35-2.48,2.63-4.99,8.93-6.7,13.42-.19.49-.39,1.1-.61,1.76l-6.1,6.12h0c.51,2.48,1.78,4.74,3.64,6.45l3.53,3.25,3.39-6.21Z"/>
          <path class="cls-11" d="M275.61,187.41c1.07-2.09,3.26-3.36,4.58-4.53,2.12-1.89,2.16-5.16,3.17-5.88,2.7-1.93,8.85-3.28,8.32-5.15-.53-1.87-7,.44-7,.44,0,0,6.6-3.34,6.07-5.07-.45-1.44-1.16-1.66-1.52-1.8-.2-.08,0,.22,0,0,0-.32-.13-1.81-.99-2.12-1.36-.49-5.43.92-9.94,4.97,0,0,1.11-1.61,3.14-4.05.81-.97,2.37-1.53,3.04-2.93.93-1.96-3.53-1.28-6.01,1.35-2.48,2.63-4.99,8.93-6.7,13.42-.19.49-.39,1.1-.61,1.76l-6.1,6.12h0c.51,2.48,1.78,4.74,3.64,6.45l3.53,3.25,3.39-6.21Z"/>
        </g>
        <g class="cls-18">
          <path d="M274.61,173.61c1.75-.92,3.49-1.84,5.24-2.76.43-.22.85-.45,1.28-.67.36-.19.76-.37,1.18-.38.31,0,.65.1.82.37.21.35.07.83-.08,1.17-.33.75-.89,1.42-1.54,1.91s-1.36.84-1.75,1.55-.39,1.54-.36,2.33c.02.75.03,1.46-.19,2.19-.47,1.53-1.67,2.82-3.19,3.34-.49.17-.28.95.22.78,1.52-.52,2.79-1.67,3.46-3.13.35-.76.53-1.56.54-2.4s-.18-1.81.18-2.61,1.38-1.19,2.02-1.78,1.2-1.35,1.48-2.18.13-1.72-.67-2.14c-.83-.44-1.74-.13-2.52.27-2.19,1.11-4.35,2.28-6.52,3.43-.46.24-.05.94.41.7h0Z"/>
        </g>
      </g>
      <path class="cls-29" d="M219.75,181.32c.5.87,17.5,37.16,22.7,36.76,2.62-.2,2.7-.45,2.7-.45,0,0,4.45,6.71,10.66,4.98,7.35-2.05,10-8.84,10-8.84,0,0,6.2-.4,6.6-3.2.4-2.8,0-5.48,0-5.48,0,0,2.8-.52,3.6-2.92.8-2.4,0-5.97,0-5.97,0,0,4.2-4.81,1.4-8.93-2.8-4.11-12.81-4.51-14.01-4.71s-2.8,3.6-2.8,3.6c0,0-5-1.8-6.8.2-1.8,2-2.2,3.4-2.2,3.4,0,0-12.89-25.36-18.16-28.2-7.44-4.02-17.12,13.82-13.7,19.75Z"/>
      <g class="cls-18">
        <path d="M251.38,190.18c1.48,4.58,2.97,9.16,4.45,13.74.16.49.94.28.78-.22-1.48-4.58-2.97-9.16-4.45-13.74-.16-.49-.94-.28-.78.22h0Z"/>
      </g>
      <g class="cls-18">
        <path d="M260.08,186.55c1.66,2.83,3.33,5.66,4.99,8.48.26.45.97.04.7-.41-1.66-2.83-3.33-5.66-4.99-8.48-.26-.45-.97-.04-.7.41h0Z"/>
      </g>
    </g>
    <g>
      <path class="cls-21" d="M190.24,110.12c-.55-3.73,1.35-7.7,4.6-9.61,3.25-1.91,7.65-1.64,10.64.66.78-1.07,2.62-2.87,4.87-2.53,1.31.2,3.36,1.18,3.36,1.18,0,0,.82-1.26,2.1-2.21,1.57-1.16,4.39-.91,5.87.36,1.48,1.27,2.24,2.79,1.33,4.52,4.22-.79,8.82,1.89,10.22,5.95,1.39,4.06-1.95,8.95-5.77,10.91-.42,2.54-1.62,6.25-2.04,8.8l-31.22-.6c-.42-2.31-2.36-8.53-2.78-10.83-1.8.51-3.9-.79-4.23-2.64-.33-1.84,1.18-3.8,3.05-3.94Z"/>
      <path class="cls-21" d="M221.12,122.89c5.93,1.72,5.27-6.48,3.36-10.22-3.25-6.48-9.29,8.5-3.36,10.22Z"/>
      <path class="cls-27" d="M210.73,164.03c-6.55-1.64-12.05-6.06-15.07-12.09,1.73-.96,3.17-2.36,4.18-4.07,2.29-3.9,3.88-8.17,4.73-12.61.55-2.55.97-5.13,1.26-7.72l4.73,7.57,5.25,8.28c-.79,1.25-1.48,2.55-2.07,3.91-1.58,3.82-1.5,7.49,3.15,10.31.63,2.84.06,8.18-6.16,6.43Z"/>
      <path class="cls-2" d="M202.4,142.63s2.39,8.19,10.74,6.41l.6-1.76-11.34-4.65Z"/>
      <path class="cls-27" d="M197.7,116.43c2.55-7.41,10.62-11.35,18.03-8.8,10.22,3.53,12.3,18.68,10.5,28-2,10.37-14.46,15.75-22.59,8.26-5.42-4.98-5.53-11.02-6.62-21.24-.24-2.1,0-4.23.68-6.22Z"/>
      <path class="cls-21" d="M210.48,133.3c-.09-.1-.09-.25,0-.35.1-.09.25-.09.35,0,1.37,1.6,3.42,2.45,5.52,2.29.04-.01.08-.01.13,0,.14.03.22.17.18.31-.03.13-.17.22-.31.18-.36.02-.73.02-1.09,0-1.86-.12-3.59-1-4.78-2.43Z"/>
      <path class="cls-21" d="M211.93,125.11c.1,1.17.93,2.01,1.7,1.89.77-.12,1.23-1.16,1.06-2.32-.17-1.16-.95-2.01-1.7-1.89-.75.12-1.23,1.14-1.06,2.32Z"/>
      <path class="cls-21" d="M222.1,123.73c.1,1.17.95,2.01,1.7,1.89.75-.12,1.23-1.16,1.06-2.32-.17-1.16-.95-2.01-1.7-1.89-.75.12-1.22,1.22-1.06,2.32Z"/>
      <path class="cls-21" d="M225.22,117.97c-.16.12-.37.15-.56.08-1.24-.57-2.67-.52-3.87.14-.24.16-.58.1-.74-.15-.16-.24-.1-.58.15-.74,0,0,0,0,0,0,1.49-.86,3.31-.95,4.88-.24.27.11.41.42.3.69,0,0,0,0,0,.01-.04.08-.09.15-.16.21Z"/>
      <path class="cls-21" d="M209.27,120.7c-.11.01-.22,0-.31-.06-.23-.19-.26-.52-.07-.75,0,0,0,0,0,0,1.1-1.33,2.78-2.05,4.5-1.92.29.04.5.31.46.6h0c-.05.29-.31.49-.6.46h0c-1.36-.06-2.68.52-3.54,1.58-.13.1-.29.14-.45.1Z"/>
      <path class="cls-21" d="M216.34,134.5c-2.18-.32-4.27-1.09-6.13-2.28-.14.35-.23.72-.26,1.1-.08.67.01,1.35.26,1.98.51,1.28,1.83,2.58,5.06,3.07.24.05.48.08.72.11.41-1.3.92-2.57,1.51-3.8,0,0-.44-.05-1.16-.18Z"/>
      <path class="cls-5" d="M210.26,132.21c-.14.35-.23.72-.26,1.1.81,1.07,2.88,1.81,5.92,2.29l.47-1.12c-2.18-.32-4.27-1.09-6.13-2.28Z"/>
      <path class="cls-31" d="M213.69,136.56c-1.08-.62-2.26-1.04-3.48-1.25.51,1.28,1.83,2.58,5.06,3.07-.32-.76-.88-1.39-1.58-1.82Z"/>
      <path class="cls-28" d="M218.94,123.85c1.5,2.59,3.35,4.97,5.49,7.06-1.12,1.09-2.66,1.63-4.21,1.47l-1.28-8.53Z"/>
      <path class="cls-21" d="M196.54,109.13c.26-.66.54-1.33,1.03-1.85.51-.55,1.21-.88,1.91-1.15,3.19-1.25,6.72-1.48,10.12-1.01,3.39.48,6.66,1.64,9.76,3.11,1.87.88,3.71,1.9,5.16,3.37,1.46,1.46,2.5,3.43,2.48,5.5,0,.17-.02.35-.12.48-.19.25-.57.21-.88.14-2.08-.54-8.49-.28-8.9-4.71-.05-.53-.29.45,0,0-3.71.7-4.06.22-7.76-.55.73.93.55,2.39-.27,3.23s-2.15,1.1-3.28.77c0,1.51-.07,3.12-.9,4.38-.56.85-1.7,1.49-2.57.97.12.96.19,1.92.2,2.89.02.93-.03,1.92-.53,2.7-.54.84-1.5,1.3-2.41,1.71l-5.36-7.29c-.02-4.33.77-8.66,2.33-12.69Z"/>
      <path class="cls-27" d="M191.48,131.22c1.07,2.61,3.13,4.7,5.74,5.79,3.46,1.43,5.63-1.57,5.05-5.06-.55-3.1-2.98-7.69-6.64-7.59-3.66.1-5.42,3.64-4.14,6.86Z"/>
      <g class="cls-18">
        <path d="M194.71,128.09s.06-.08.02-.03.02-.02.02-.03c.03-.03.06-.05.08-.08.07-.07-.05.03,0,0,.02-.01.04-.03.06-.04.04-.03.08-.05.13-.07.09-.04-.06.02,0,0,.02,0,.05-.02.07-.02.04-.01.08-.02.11-.03.02,0,.05-.01.07-.02.04,0,.07-.04,0,0,.04-.02.11,0,.15,0,.05,0,.09,0,.14,0,.02,0,.05,0,.07,0-.01,0-.09-.02-.02,0,.11.02.22.05.32.09.07.03.01,0,0,0,.03.01.05.02.08.04.05.02.09.05.14.07s.09.05.13.08c.02.02.05.03.07.05.01.01.1.07.03.02.17.13.33.29.47.45.08.08.15.17.22.25.02.02.09.12.05.06.04.05.08.1.12.16.13.18.24.36.35.55.05.1.11.2.16.3.02.05.05.1.07.14,0,.02.02.04.03.06.04.09-.02-.05.01.03.09.23.17.47.24.71.03.13.06.25.09.38.01.06.02.12.03.17,0,.03,0,.06.01.09,0,.03,0,.02,0-.02,0,.02,0,.05,0,.07.03.21.17.42.41.41.2,0,.43-.18.41-.41-.12-1.04-.48-2.04-1.09-2.89s-1.43-1.69-2.5-1.7c-.57,0-1.13.25-1.45.73-.12.18-.04.46.15.55.2.11.43.04.55-.15h0Z"/>
      </g>
      <g class="cls-18">
        <path d="M205.96,115.94c-.92-.22-1.69-.71-2.3-1.44-.19-.23-.62-.11-.68.18-.29,1.55-1.72,2.78-3.32,2.72s-2.94-1.45-3.06-3c-.03-.35-.58-.61-.76-.2-.78,1.85-2.92,2.92-4.86,2.37-.5-.14-.72.64-.22.78,2.26.63,4.86-.57,5.78-2.74l-.76-.2c.15,1.97,1.78,3.66,3.76,3.8s3.85-1.39,4.2-3.31l-.68.18c.69.82,1.62,1.39,2.66,1.65.51.12.72-.66.22-.78h0Z"/>
      </g>
      <path class="cls-12" d="M193.43,124.36s-7.5-5.47-8.24-8.99c-.74-3.52,2.96-6.95,2.96-6.95,0,0,2.45-9.72,10.21-10.93l6.74,2.13s3.08-2.77,5.25-2.77c2.16,0,3.19,1.11,3.19,1.11,0,0,2.13-3.43,7.59-2.32,5.46,1.11,2.82,5.83,3.31,5.83s4.79-1.97,9.12,3.41c4.33,5.39-2.43,12.85-5.39,14.44,0,0-8.44-9.44-23.89-1.91-3.34,1.63-10.84,6.93-10.84,6.93Z"/>
      <path class="cls-14" d="M203.95,128.93c-1.22-1.07-2.43-2.14-3.65-3.21-.34-.3-.69-.6-1.03-.91-.16-.14-.42-.17-.57,0-.14.15-.17.42,0,.57,1.22,1.07,2.43,2.14,3.65,3.21.34.3.69.6,1.03.91.16.14.42.17.57,0,.14-.15.17-.42,0-.57h0Z"/>
      <g class="cls-13">
        <path class="cls-5" d="M203.95,128.93c-1.22-1.07-2.43-2.14-3.65-3.21-.34-.3-.69-.6-1.03-.91-.16-.14-.42-.17-.57,0-.14.15-.17.42,0,.57,1.22,1.07,2.43,2.14,3.65,3.21.34.3.69.6,1.03.91.16.14.42.17.57,0,.14-.15.17-.42,0-.57h0Z"/>
      </g>
      <path class="cls-14" d="M199.34,137.38l4.59-8.26s23.99.83,23.71.92c-.28.09,1.49,15.37-12.36,17.78-13.85,2.41-15.94-10.44-15.94-10.44Z"/>
      <path class="cls-10" d="M199.34,137.38l4.59-8.26s23.99.83,23.71.92c-.28.09,1.49,15.37-12.36,17.78-13.85,2.41-15.94-10.44-15.94-10.44Z"/>
    </g>
    <path class="cls-21" d="M197.34,151.9c.52-1.92.5-3.97,0-5.89s-1.49-3.81-2.95-5.1c-.75-.67-1.73-1.08-2.7-.63s-1.4,1.48-1.41,2.48c-.03,1.84,1.08,3.48,2.26,4.8,1.34,1.49,2.93,2.79,3.93,4.56l.55-.55c-1.77-.88-3.65-1.54-5.59-1.94-.97-.2-1.95-.34-2.93-.42-.92-.07-1.93-.17-2.83.08-.78.22-1.52.81-1.67,1.64-.15.79.29,1.46.93,1.88.72.48,1.61.65,2.44.83,1,.21,2.01.35,3.03.43,2.3.18,4.62,0,6.87-.49.51-.11.29-.89-.22-.78-1.79.39-3.62.57-5.45.52s-3.61-.26-5.32-.79c-.52-.16-1.21-.43-1.44-.97-.3-.72.44-1.32,1.05-1.49.77-.22,1.65-.12,2.44-.06.89.06,1.78.18,2.66.36,1.95.39,3.84,1.03,5.62,1.91.36.18.76-.19.55-.55-.79-1.41-1.96-2.55-3.08-3.69s-2.21-2.28-2.73-3.77c-.29-.84-.45-1.87.04-2.66.21-.33.55-.61.94-.68.43-.08.85.11,1.2.35.72.5,1.29,1.29,1.75,2.03s.86,1.6,1.13,2.46c.6,1.92.67,3.99.15,5.94-.14.5.65.72.78.22h0Z"/>
    <g>
      <path class="cls-21" d="M208.77,459.8s-.73,13.94-.88,14.47l-1.96,10.6c-.29.96.26,1.98,1.22,2.27.17.05.35.08.53.08,5.18.07,7.63.1,14.07.19l19.71.26c5.37.07,6.56-5.33,4.35-5.86-9.92-2.33-19.42-6.83-22.46-9.76l-.42-15.66-14.15,3.41Z"/>
      <path class="cls-14" d="M205.13,485.31c-.3,1.01.27,2.08,1.28,2.39.18.05.37.08.56.08,5.44.07,8.01.11,14.78.2l20.71.28c5.64.08,6.89-5.6,4.57-6.15-10.42-2.45-20.41-7.17-23.6-10.26l-4.83,11.03-13.47,2.44Z"/>
      <path class="cls-21" d="M205.43,486c10.88,0,21.75.35,32.63.5,2.93.04,5.87.07,8.8.07.52,0,.52-.81,0-.81-10.88,0-21.75-.35-32.63-.5-2.93-.04-5.87-.07-8.8-.07-.52,0-.52.81,0,.81h0Z"/>
    </g>
    <g>
      <path class="cls-21" d="M137,451.39s-2.89,13.1-3.22,13.53l-5.76,9.11c-.63.79-.5,1.93.29,2.56.14.11.3.2.46.27,4.78,1.99,7.04,2.93,12.99,5.41l18.2,7.57c4.96,2.06,8.07-2.51,6.22-3.82-8.34-5.85-15.49-13.56-17.22-17.42l5.43-14.69-17.38-2.53Z"/>
      <path class="cls-14" d="M127.12,474.15c-.66.83-.52,2.03.3,2.69.15.12.31.21.49.28,5.02,2.09,7.4,3.08,13.65,5.68l19.12,7.96c5.21,2.17,8.48-2.63,6.53-4.01-8.77-6.15-16.28-14.25-18.09-18.3l-8.59,8.44-13.41-2.74Z"/>
      <path class="cls-21" d="M127.18,474.92c10.1,4.05,20.06,8.41,30.1,12.6,2.71,1.13,5.42,2.25,8.15,3.34.48.19.69-.59.22-.78-10.1-4.05-20.06-8.41-30.1-12.6-2.71-1.13-5.42-2.25-8.15-3.34-.48-.19-.69.59-.22.78h0Z"/>
    </g>
    <g>
      <path class="cls-29" d="M214.1,239.86s-11.71,72.26-18.12,99.33c-7.03,29.65-44.74,127.79-44.74,127.79l-18.51-3.73s26.38-79.93,32.27-121.37c4.54-31.83,13.47-101.99,13.47-101.99l35.62-.02Z"/>
      <path class="cls-29" d="M234.4,243.76s4.23,66.79,3.05,95.63c-1.23,29.99-13.28,128.2-13.28,128.2h-18.51s-.67-96.45-1.5-125.91c-.89-32.11-5.4-101.82-5.4-101.82l35.65,3.9Z"/>
      <polygon class="cls-18" points="168.37 317.38 167.51 323.78 198.49 327.67 200.53 317.38 168.37 317.38"/>
      <path class="cls-18" d="M203.18,317.38l.46,10.29s29.7.22,34.12-.9l.13-11.34-34.72,1.96Z"/>
    </g>
    <g>
      <path class="cls-29" d="M168.78,175.91c-.2.81,4.84,46.34,8.86,48.76,4.03,2.42,54.8-1.41,54.8-1.41,0,0,6.1-58.42,1.06-61.64-5.04-3.22-20.21-9.39-20.21-9.39l-17.72-.49s-23.17,10.48-25.18,14.1c-2.01,3.63-1.61,10.07-1.61,10.07Z"/>
      <path class="cls-29" d="M177.28,224.31s-5.87,10.3-6.55,25.1c-.67,14.81-9.06,65.64-5.7,67.49,3.37,1.85,76.13.27,79.66-2.92,3.53-3.2-8.02-70.86-9.2-77.08-1.18-6.23-3.42-14-3.42-14l-54.8,1.41Z"/>
      <path class="cls-21" d="M177.28,224.71c14.24.17,28.48-.36,42.71-.5,4.09-.04,8.17-.04,12.26,0,.52,0,.52-.8,0-.81-14.24-.17-28.48.36-42.71.5-4.09.04-8.17.04-12.26,0-.52,0-.52.8,0,.81h0Z"/>
      <path class="cls-21" d="M234.19,209.98c.62-11.06.77-22.15.44-33.23-.1-3.14-.23-6.28-.4-9.42-.03-.52-.84-.52-.81,0,.61,11.07.74,22.16.38,33.23-.1,3.14-.24,6.28-.42,9.42-.03.52.78.52.81,0h0Z"/>
    </g>
    <g>
      <g>
        <path class="cls-21" d="M221.7,196.18c1.47-1.77,1.83-3.24,2-5.53.2-2.57-.72-11.04-.53-13.61.08-1.11.2-2.3.93-3.14.7-.81,1.81-1.1,2.74-1.63,2.31-1.29,3.55-4.32,2.64-6.81-.91-2.49-3.96-4.02-6.45-3.1-2.49.92-3.64,1.82-3.27,6.5.47,6,1.5,21.3,1.93,27.33ZM221.27,165.99h0c.13-1.63,1.76-2.23,3.1-2.4,1.3-.16,2.62.65,3.17,1.84.55,1.19.34,2.65-.41,3.72-.75,1.07-2,1.74-3.3,1.9-.55.07-1.13.05-1.6-.24-.7-.43-.83-1.33-.98-2.14-.17-.88-.26-2.29.03-2.68Z"/>
        <g class="cls-13">
          <path class="cls-5" d="M221.7,196.18c1.47-1.77,1.83-3.24,2-5.53.2-2.57-.72-11.04-.53-13.61.08-1.11.2-2.3.93-3.14.7-.81,1.81-1.1,2.74-1.63,2.31-1.29,3.55-4.32,2.64-6.81-.91-2.49-3.96-4.02-6.45-3.1-2.49.92-3.64,1.82-3.27,6.5.47,6,1.5,21.3,1.93,27.33ZM221.27,165.99h0c.13-1.63,1.76-2.23,3.1-2.4,1.3-.16,2.62.65,3.17,1.84.55,1.19.34,2.65-.41,3.72-.75,1.07-2,1.74-3.3,1.9-.55.07-1.13.05-1.6-.24-.7-.43-.83-1.33-.98-2.14-.17-.88-.26-2.29.03-2.68Z"/>
        </g>
      </g>
      <path class="cls-21" d="M220.33,168.55c-.18-4.69-1.43-5.45-4-6.07-2.58-.62-5.43,1.25-6.05,3.83-.61,2.58.96,5.45,3.41,6.46.99.41,2.12.58,2.91,1.3.82.75,1.08,1.92,1.29,3.01.49,2.53.57,11.05,1.06,13.58.44,2.26.96,3.67,2.63,5.26-.27-6.03-1.03-21.35-1.26-27.37ZM218.84,168.54c-.06.82-.08,1.73-.73,2.24-.43.34-1.01.43-1.57.43-1.31-.01-2.62-.53-3.5-1.51-.87-.97-1.24-2.41-.84-3.65.41-1.24,1.63-2.2,2.93-2.19,1.35.01,3.04.42,3.36,2.02h0c.32.35.4,1.76.34,2.66Z"/>
      <g class="cls-13">
        <path class="cls-5" d="M220.33,168.55c-.18-4.69-1.43-5.45-4-6.07-2.58-.62-5.43,1.25-6.05,3.83-.61,2.58.96,5.45,3.41,6.46.99.41,2.12.58,2.91,1.3.82.75,1.08,1.92,1.29,3.01.49,2.53.57,11.05,1.06,13.58.44,2.26.96,3.67,2.63,5.26-.27-6.03-1.03-21.35-1.26-27.37ZM218.84,168.54c-.06.82-.08,1.73-.73,2.24-.43.34-1.01.43-1.57.43-1.31-.01-2.62-.53-3.5-1.51-.87-.97-1.24-2.41-.84-3.65.41-1.24,1.63-2.2,2.93-2.19,1.35.01,3.04.42,3.36,2.02h0c.32.35.4,1.76.34,2.66Z"/>
      </g>
      <g>
        <path class="cls-14" d="M211.96,197.82c1.54-1.77,3.97-2.47,5.53-3.3,2.51-1.32,3.34-4.49,4.49-4.94,3.08-1.22,9.38-1.05,9.32-3-.06-1.94-6.9-1.26-6.9-1.26,0,0,7.21-1.65,7.11-3.46-.09-1.51-.73-1.89-1.04-2.12-.18-.13-.06.21,0,0,.08-.31.31-1.79-.45-2.3-1.2-.81-5.49-.41-10.84,2.43,0,0,1.47-1.3,4.02-3.18,1.02-.75,2.67-.92,3.65-2.12,1.38-1.68-3.12-2.09-6.16-.13-3.04,1.96-7,7.46-9.74,11.41-.3.43-.64.97-1.01,1.56l-7.4,4.47h0c-.11,2.53.59,5.03,1.98,7.14l2.65,4.01,4.79-5.21Z"/>
        <path class="cls-11" d="M211.96,197.82c1.54-1.77,3.97-2.47,5.53-3.3,2.51-1.32,3.34-4.49,4.49-4.94,3.08-1.22,9.38-1.05,9.32-3-.06-1.94-6.9-1.26-6.9-1.26,0,0,7.21-1.65,7.11-3.46-.09-1.51-.73-1.89-1.04-2.12-.18-.13-.06.21,0,0,.08-.31.31-1.79-.45-2.3-1.2-.81-5.49-.41-10.84,2.43,0,0,1.47-1.3,4.02-3.18,1.02-.75,2.67-.92,3.65-2.12,1.38-1.68-3.12-2.09-6.16-.13-3.04,1.96-7,7.46-9.74,11.41-.3.43-.64.97-1.01,1.56l-7.4,4.47h0c-.11,2.53.59,5.03,1.98,7.14l2.65,4.01,4.79-5.21Z"/>
        <g class="cls-18">
          <path d="M230.54,179.52c-1.65.14-3.31.29-4.91.71s-3.09,1.14-4.45,2.07c-1.02.69-1.97,1.47-2.88,2.29-.39.35.19.92.57.57,1.42-1.27,2.93-2.45,4.65-3.29,1.34-.65,2.79-1.03,4.27-1.25.91-.14,1.83-.22,2.75-.29.52-.04.52-.85,0-.81h0Z"/>
        </g>
        <g class="cls-18">
          <path d="M224.52,184.93c-.75.27-1.52.53-2.26.82s-1.41.62-1.99,1.14c-.3.27-.56.59-.75.95-.1.19-.05.45.15.55s.45.05.55-.15c.04-.07.07-.13.12-.2.02-.03.04-.06.06-.1.01-.02.02-.03.03-.05,0,0,.05-.07.03-.04-.02.03.01-.02.02-.02.01-.01.02-.03.04-.04.02-.03.05-.06.08-.09.06-.06.11-.12.17-.18.06-.05.11-.1.17-.15.03-.02.06-.05.09-.07,0,0,.05-.04.02-.02-.03.02.03-.02.04-.03.13-.09.26-.18.4-.26.65-.38,1.29-.59,2.01-.85.42-.15.83-.3,1.25-.45.2-.07.35-.28.28-.5-.06-.2-.29-.36-.5-.28h0Z"/>
        </g>
      </g>
      <path class="cls-29" d="M173.52,162.58c-.41.18-5.23,3.12-5.59,7.35-.36,4.23-7.76,43.79.18,50.56,7.72,6.58,25.55-3.81,28.25-5.09.31-.15,3.24,1.3,6.17-.97,2.92-2.27,9.2-11.15,6.6-14.29-2.6-3.14-5.94-7.95-6.59-8.25-.66-.3-17.22,5.87-17.22,5.87,0,0,1.74-24.6.54-29.01-1.31-4.81-8.46-7.93-12.34-6.17Z"/>
      <path class="cls-19" d="M186.81,182.61c-.32,3.97-1.49,15.15-1.49,15.15,0,0,16.56-6.17,17.22-5.87.66.3,4,5.11,6.59,8.25,2.6,3.14-3.68,12.01-6.6,14.29-2.92,2.27-5.86.83-6.17.97,0,0-10.39,7.38-19.89,7.49"/>
      <path class="cls-21" d="M177.78,163.22c3.43,1.5,6.21,4.37,7.62,7.83.4.99.69,2.02.87,3.08.08.51.87.3.78-.22-.64-3.88-2.89-7.41-6.03-9.75-.88-.66-1.83-1.21-2.84-1.65-.2-.09-.43-.06-.55.15-.1.17-.05.47.15.55h0Z"/>
    </g>
  </g>
  <path d="M250.33,234.44c1.94-.37,4.11,0,5.87,1.06.83.5,1.4.99,2.08,1.78.25.29.51.64.78,1.1.12.2.23.41.34.62.07.13.13.26.19.4.13.29-.13-.34.07.18.32.82,1.09,1.38,1.99,1.13.78-.21,1.45-1.17,1.13-1.99-.97-2.49-2.65-4.62-4.96-6.01-2.51-1.51-5.51-1.93-8.37-1.38-.86.17-1.35,1.2-1.13,1.99.25.9,1.13,1.3,1.99,1.13h0Z"/>
  <g>
    <g>
      <rect class="cls-21" x="213.9" y="294.55" width="7.32" height="196.43"/>
      <rect class="cls-21" x="157.74" y="294.55" width="7.32" height="196.43"/>
      <rect class="cls-8" x="157.74" y="294.55" width="7.32" height="196.43"/>
      <rect class="cls-8" x="213.9" y="294.55" width="7.32" height="196.43"/>
      <rect class="cls-21" x="471.5" y="294.55" width="7.32" height="194"/>
      <rect class="cls-8" x="471.5" y="294.55" width="7.32" height="194"/>
      <rect class="cls-21" x="527.65" y="294.55" width="7.32" height="194"/>
      <rect class="cls-8" x="527.65" y="294.55" width="7.32" height="194"/>
      <rect class="cls-21" x="132.73" y="282.13" width="426.34" height="14.81"/>
      <rect class="cls-8" x="132.73" y="282.13" width="426.34" height="14.81"/>
      <rect class="cls-18" x="213.89" y="296.94" width="7.32" height="4.27"/>
    </g>
    <g>
      <g>
        <g>
          <path class="cls-21" d="M172.33,261.27c-1.35-25.13,14.5-23.52,27.87-20.98,13.37,2.54,20.52,16.32,20.52,16.32,0,0,.11,10.49-12,21.58-4.85,4.44-35.04,8.21-36.39-16.92Z"/>
          <path class="cls-25" d="M207.37,249.99c6.66,2.86,19.66,6.45,26.15,1.84,0,0,5.19-.8,5.99,2.39-1.5,3.66-11.28,16.14-11.28,16.14-2.91-6.53-10.58-4.53-16.13-4.33l-4.73-16.03Z"/>
          <path class="cls-3" d="M212.47,261.77l7.16-8.29c1.27.28,2.51.52,3.82.58-.54,2.97-4.01,7.31-7.17,7.74-1.26.22-2.55.21-3.8-.02Z"/>
          <path class="cls-25" d="M191.5,271.75c11.55-.55,16.45-.54,22.76-6.27,9.44-8.59,7.06-22.52-4.23-25.43-10.13-2.61-27.37-1.28-32.72,9.86-3.84,7.28-1.08,16.31,6.17,20.16,2.46,1.31,5.25,1.89,8.03,1.69Z"/>
          <path class="cls-21" d="M191.45,254.79c.05-.14.05-.29-.03-.42-1.15-2.09-.1-3.88-.09-3.9.16-.27.07-.59-.21-.73-.28-.13-.63-.03-.79.24-.06.09-1.38,2.34.05,4.93.14.26.49.35.78.2.14-.07.24-.19.28-.32Z"/>
          <path class="cls-21" d="M189.8,239.79c-.07-.1-.18-.16-.31-.17-.28-.02-.55.21-.62.5-.64,2.96.99,4.47,1.06,4.53.2.18.52.13.73-.11.2-.24.21-.57.01-.75-.06-.06-1.31-1.25-.8-3.6.03-.15,0-.29-.07-.4Z"/>
          <path class="cls-32" d="M196.85,246.93s4.23-2,6.85-4.15c.46-.38,1.14-.19,1.36.35.56,1.39.14,3.06.14,3.06l-8.35.74Z"/>
          <path class="cls-21" d="M184.17,252.61c26.63,21.3,19.72,12.17,32.42,13.5-8.03,3.83-9.6,10.83-18.61,10.92-4.51.24-12.43-5.02-16.57-6.84-4.03-2.07-7.4-7.15-7.17-11.48.02-1.58,2.35-8.9,3.5-9.98,1.11-1.11,5.15,2.92,6.43,3.88Z"/>
          <g>
            <path class="cls-21" d="M198.06,255.2c.51-.04,1-.16,1.45-.4.37-.19.72-.48.92-.85.1-.19.16-.4.18-.62s-.04-.42-.13-.61c-.16-.35-.5-.62-.85-.78-.5-.23-1.04-.31-1.59-.27-.11,0-.21.04-.29.12-.07.07-.12.19-.12.29,0,.21.18.42.41.41s.45,0,.68.02h-.11c.23.02.45.07.66.16l-.1-.04c.09.04.17.08.25.13.04.02.07.05.11.07.08.06-.07-.06-.02-.01.02.01.03.03.05.04.03.03.06.06.09.09.01.01.03.03.04.05.06.07-.05-.08-.02-.02.04.06.08.13.11.2l-.04-.1c.03.07.05.14.06.22v-.11c0,.08,0,.15-.01.23v-.11c0,.09-.02.17-.05.25l.04-.1c-.04.09-.09.18-.15.26-.02.03.07-.09.03-.04,0,0-.01.02-.02.03-.02.02-.04.04-.05.06-.04.04-.08.08-.12.12-.02.02-.04.03-.06.05-.05.04.03-.02.03-.02,0,.01-.03.02-.04.03-.05.03-.1.07-.15.1-.11.07-.23.13-.35.18l.1-.04c-.26.11-.54.18-.82.22h.11c-.08,0-.15,0-.23,0-.11,0-.21.04-.29.12-.07.07-.12.19-.12.29,0,.21.18.42.41.41h0Z"/>
            <path class="cls-21" d="M197.73,252.43l-.67-2.6s1.96,1.38.67,2.6Z"/>
          </g>
          <g>
            <path class="cls-21" d="M196.65,244.81c.51-.04,1-.16,1.45-.4.37-.19.72-.48.92-.85.1-.19.16-.4.18-.62s-.04-.42-.13-.61c-.16-.35-.5-.62-.85-.78-.5-.23-1.04-.31-1.59-.27-.11,0-.21.04-.29.12-.07.07-.12.19-.12.29,0,.21.18.42.41.41s.45,0,.68.02h-.11c.23.02.45.07.66.16l-.1-.04c.09.04.17.08.25.13.04.02.07.05.11.07.08.06-.07-.06-.02-.01.02.01.03.03.05.04.03.03.06.06.09.09.01.01.03.03.04.05.06.07-.05-.08-.02-.02.04.06.08.13.11.2l-.04-.1c.03.07.05.14.06.22v-.11c0,.08,0,.15-.01.23v-.11c0,.09-.02.17-.05.25l.04-.1c-.04.09-.09.18-.15.26-.02.03.07-.09.03-.04,0,0-.01.02-.02.03-.02.02-.04.04-.05.06-.04.04-.08.08-.12.12-.02.02-.04.03-.06.05-.05.04.03-.02.03-.02,0,.01-.03.02-.04.03-.05.03-.1.07-.15.1-.11.07-.23.13-.35.18l.1-.04c-.26.11-.54.18-.82.22h.11c-.08,0-.15,0-.23,0-.11,0-.21.04-.29.12-.07.07-.12.19-.12.29,0,.21.18.42.41.41h0Z"/>
            <path class="cls-21" d="M196.32,242.04l-.67-2.6s1.96,1.38.67,2.6Z"/>
          </g>
          <path class="cls-25" d="M204.33,272.19c2.31-1.47,3.72-3.74,4.17-5.77.67-3.07-4.24-4.39-7.25-3.21-2.71,1.06-4.43,4.13-3.75,7.05.67,2.88,4.19,3.61,6.83,1.94Z"/>
          <path class="cls-4" d="M203.51,265.49c-1.08.13-2.12.69-2.81,1.55-.69.85-1.04,1.98-.94,3.06"/>
        </g>
        <g class="cls-13">
          <path class="cls-20" d="M194.9,239.25c-.52-.94-1.64-1.07-2.69-1.3-4.62-1-9.6-.53-13.83,1.58-4.24,2.11-7.66,5.9-9.07,10.41-1.15,3.68-.95,7.65-.43,11.47.6,4.38,3.69,12.84,6.74,16.04,0,0,1.5,6.43,20.33,5.42,18.83-1.01,23.71-16.53,23.17-16.6-.54-.07-5.26-2.22-10.92-1.22,0,0-5.88-.88-10.1-3.15-4.22-2.27-14.16-10.93-15.62-13.41-2.75-4.67,12.43-9.24,12.43-9.24Z"/>
        </g>
        <path class="cls-21" d="M192.97,261.23c-1.63,1.65-3.2,3.36-4.69,5.13-.42.5-.84,1-1.25,1.51-.14.17-.17.41,0,.57.14.14.44.17.57,0,1.45-1.8,2.98-3.55,4.57-5.23.45-.47.9-.94,1.36-1.41.37-.37-.21-.94-.57-.57h0Z"/>
        <path class="cls-21" d="M194.25,262.48c-.62.93-1.24,1.86-1.86,2.79-.12.18-.04.46.15.55.2.11.43.04.55-.15.62-.93,1.24-1.86,1.86-2.79.12-.18.04-.46-.15-.55-.2-.11-.43-.04-.55.15h0Z"/>
      </g>
      <path class="cls-25" d="M234.54,251.82s15.83-7.2,22.83-8.78c7-1.58,26.72,0,26.72,0l-5.09,41.36s-25.78-2.61-27.29-2.98c-1.5-.36-20.91-1.48-23.61-11.34-2.7-9.86,6.43-18.27,6.43-18.27Z"/>
      <g>
        <path class="cls-24" d="M245.67,284.59s-14.35-31.78-12.3-33.22c22-15.39,59.6-8.88,64.19-9.46,4.59-.58,23.55-1.46,27.25-1.54,8.43-.18,5.56-3.81,22.79-3.71,17.38.11,65.22-1.3,85.37-1.73,20.15-.43,89.53,15.66,92.86,15.18,3.33-.49,17.94-12.9,24.73-12.2,6.8.7,7.81,4.32,8.81,12.67,1.01,8.34-2.22,24.87-5.24,31.56l-45.65.79-12.65,12.16s-1.3,12.6-3.81,14.11c-2.52,1.51-160.1-7.12-165.73-7.98-5.62-.86-24.5-3.84-29.67-4.92s-6.44,1.73-15.5.22c-9.07-1.51-35.45-11.91-35.45-11.91Z"/>
        <path class="cls-18" d="M245.67,284.59s-14.35-31.78-12.3-33.22c22-15.39,59.6-8.88,64.19-9.46,4.59-.58,23.55-1.46,27.25-1.54,8.43-.18,5.56-3.81,22.79-3.71,17.38.11,65.22-1.3,85.37-1.73,20.15-.43,89.53,15.66,92.86,15.18,3.33-.49,17.94-12.9,24.73-12.2,6.8.7,7.81,4.32,8.81,12.67,1.01,8.34-2.22,24.87-5.24,31.56l-45.65.79-12.65,12.16s-1.3,12.6-3.81,14.11c-2.52,1.51-160.1-7.12-165.73-7.98-5.62-.86-24.5-3.84-29.67-4.92s-6.44,1.73-15.5.22c-9.07-1.51-35.45-11.91-35.45-11.91Z"/>
        <path class="cls-1" d="M282.31,241.06c.42,0,.19,14.57,1.79,14.86s41.12,2.15,41.39.42c.27-1.73-1.44-15.86-1.44-15.86l-41.74.57Z"/>
        <path class="cls-25" d="M285.96,241.08s-.42,10,3.1,10.18c3.52.18,32.5-.03,32.87-.89.37-.86-.64-9.88-.64-9.88l-35.34.59Z"/>
        <path class="cls-32" d="M292.99,245.25c6.22-.04,12.43-.06,18.65-.09,1.6,0,3.21-.02,4.81-.02.52,0,.52-.81,0-.81-6.22.04-12.43.06-18.65.09-1.6,0-3.21.02-4.81.02-.52,0-.52.81,0,.81h0Z"/>
      </g>
      <path class="cls-21" d="M497.08,295.67c-.47-9.38-.5-18.78-.07-28.16.12-2.69.28-5.37.48-8.05.04-.52-.77-.52-.81,0-.68,9.37-.92,18.76-.7,28.15.06,2.69.16,5.38.3,8.06.03.52.84.52.81,0h0Z"/>
      <g class="cls-18">
        <path d="M486.38,265.46c-7.55,8.21-15.09,16.42-22.64,24.63-2.14,2.33-4.28,4.66-6.42,6.99-.35.38.22.96.57.57,7.55-8.21,15.09-16.42,22.64-24.63,2.14-2.33,4.28-4.66,6.42-6.98.35-.38-.22-.96-.57-.57h0Z"/>
      </g>
      <g>
        <g>
          <path class="cls-14" d="M204.69,238.05c-3.05,2.29-3.83,7.08-1.67,10.22,1.36,1.99,3.59,3.19,5.8,4.14,2.45,1.05,4.99,1.89,7.59,2.49,1.3.3,2.82.5,3.86-.34,1.11-.9,1.29-5.42,1.07-6.83-.6-3.85-1.39-5.07-4.3-7.66-2.74-2.44-6.73-3.24-12.16-2.03"/>
          <g class="cls-18">
            <path d="M204.69,238.05c-3.05,2.29-3.83,7.08-1.67,10.22,1.36,1.99,3.59,3.19,5.8,4.14,2.45,1.05,4.99,1.89,7.59,2.49,1.3.3,2.82.5,3.86-.34,1.11-.9,1.29-5.42,1.07-6.83-.6-3.85-1.39-5.07-4.3-7.66-2.74-2.44-6.73-3.24-12.16-2.03"/>
          </g>
        </g>
        <path d="M216.24,241.49c.73-1.6,1.53-3.16,2.29-4.74.11-.22.22-.44.35-.64.03-.04.07-.09.09-.13,0,0-.21.26-.1.14.15-.15-.42.28-.21.17-.05.03-.48.16-.23.11.05,0,.09-.02.14-.03.13-.03.27-.05.4-.07.09-.02-.46.05-.16.02.09,0,.17-.02.26-.03.17-.02.34-.03.51-.04.37-.03.75-.04,1.12-.06s.72-.02,1.08-.01c.14,0,.28,0,.42.01.05,0,.11,0,.16.01.25,0-.4-.06-.29-.04.83.15,1.79-.23,1.99-1.13.18-.79-.24-1.83-1.13-1.99-.64-.12-1.3-.1-1.95-.09-.76.02-1.53.05-2.28.15-.38.05-.78.08-1.15.19-.62.19-1.01.55-1.38,1.07-.31.43-.51.93-.74,1.4s-.46.92-.69,1.38c-.45.9-.88,1.81-1.3,2.73-.35.77-.25,1.78.58,2.22.71.38,1.84.24,2.22-.58h0Z"/>
        <g>
          <path class="cls-14" d="M222.77,232.83s2.7-4.94,2.99-5.21c1.65-1.54,21.41-1.89,23.33.26l2.28,5.26-.05,4.26-2.63,4.8c-7.14,1.74-14.71,1.73-22.76-.25l-3.21-4.37.05-4.75Z"/>
          <path class="cls-18" d="M222.77,232.83s2.7-4.94,2.99-5.21c1.65-1.54,21.41-1.89,23.33.26l2.28,5.26-.05,4.26-2.63,4.8c-7.14,1.74-14.71,1.73-22.76-.25l-3.21-4.37.05-4.75Z"/>
          <g class="cls-18">
            <path d="M226.24,240.45c.2-3.92.19-7.85-.02-11.78-.03-.52-.84-.52-.81,0,.21,3.92.21,7.85.02,11.78-.03.52.78.52.81,0h0Z"/>
          </g>
          <g class="cls-18">
            <path d="M248.63,240.83c.61-4.15.67-8.37.17-12.53-.03-.22-.17-.4-.41-.41-.2,0-.43.19-.41.41.49,4.09.45,8.24-.14,12.32-.03.22.05.43.28.5.19.05.47-.07.5-.28h0Z"/>
          </g>
          <rect class="cls-21" x="221.04" y="231.89" width="1.91" height="5.46" transform="translate(2.59 -2.43) rotate(.63)"/>
          <rect class="cls-21" x="250.73" y="232.21" width="1.91" height="5.46" transform="translate(2.6 -2.75) rotate(.63)"/>
        </g>
        <g class="cls-18">
          <path d="M220.22,243.84c-1.51.96-3.33,1.43-5.12,1.32-1.19-.08-2.39-.42-3.37-1.11s-1.72-1.75-1.9-2.93c-.18-1.18.26-2.47,1.21-3.2,0,0,1.17-1.05,4.57,1.1,3.4,2.15,4.62,4.82,4.62,4.82Z"/>
        </g>
      </g>
    </g>
  </g>
  <g>
    <path class="cls-21" d="M463.21,466.23s-2.19,13.24-2.04,13.76l1.96,10.6c.29.96-.26,1.98-1.22,2.27-.17.05-.35.08-.53.08-5.18.07-7.63.1-14.07.19l-19.71.26c-5.37.07-6.56-5.33-4.35-5.86,9.92-2.33,19.42-6.83,22.46-9.76l.42-15.66,17.07,4.12Z"/>
    <path class="cls-14" d="M463.92,491.03c.3,1.01-.27,2.08-1.28,2.39-.18.05-.37.08-.56.08-5.44.07-8.01.11-14.78.2l-20.71.28c-5.64.08-6.89-5.6-4.57-6.15,10.42-2.45,20.41-7.17,23.6-10.26l4.83,11.03,13.47,2.44Z"/>
    <path class="cls-21" d="M463.63,490.91c-10.88,0-21.75.35-32.63.5-2.93.04-5.87.07-8.8.07-.52,0-.52.81,0,.81,10.88,0,21.75-.35,32.63-.5,2.93-.04,5.87-.07,8.8-.07.52,0,.52-.81,0-.81h0Z"/>
  </g>
  <g>
    <path class="cls-21" d="M531.8,457.59s2.89,13.1,3.22,13.53l5.76,9.11c.63.79.5,1.93-.29,2.56-.14.11-.3.2-.46.27-4.78,1.99-7.04,2.93-12.99,5.41l-18.2,7.57c-4.96,2.06-8.07-2.51-6.22-3.82,8.34-5.85,15.49-13.56,17.22-17.42l-5.43-14.69,17.38-2.53Z"/>
    <path class="cls-14" d="M541.69,480.35c.66.83.52,2.03-.3,2.69-.15.12-.31.21-.49.28-5.02,2.09-7.4,3.08-13.65,5.68l-19.12,7.96c-5.21,2.17-8.48-2.63-6.53-4.01,8.77-6.15,16.28-14.25,18.09-18.3l8.59,8.44,13.41-2.74Z"/>
    <path class="cls-21" d="M541.41,480.33c-10.1,4.05-20.06,8.41-30.1,12.6-2.71,1.13-5.42,2.25-8.15,3.34-.48.19-.27.98.22.78,10.1-4.05,20.06-8.41,30.1-12.6,2.71-1.13,5.42-2.25,8.15-3.34.48-.19.27-.98-.22-.78h0Z"/>
  </g>
  <g>
    <path class="cls-21" d="M452.06,123.56c-.17.83-.74,1.41-1.23,1.23s-.84-.88-.68-1.7c.16-.83.75-1.41,1.23-1.23.48.17.89.88.68,1.7Z"/>
    <path class="cls-30" d="M451.4,124.98c-1.5,2.33-3.32,4.44-5.39,6.28,1.23,1.67,3.8,1.54,3.8,1.54l1.59-7.82Z"/>
    <path class="cls-21" d="M455.98,119.57c.12,0,.24-.05.33-.14.19-.2.19-.51,0-.7-1.06-1.2-2.63-1.81-4.22-1.64-.27.09-.41.37-.33.64.07.21.26.35.49.35h0c1.26-.12,2.5.38,3.33,1.33.1.11.25.17.39.16Z"/>
    <path class="cls-16" d="M474.48,138.18c-1.43,7.28-2.28,17.36,2.8,22.21,0,0-1.99,7.4-15.51,7.4-14.88,0-7.16-6.49-7.16-6.49,6.17-1.91,6.17-8.96,4.71-14.61l15.15-8.51Z"/>
    <path class="cls-16" d="M480.05,127.41c-2.69,10.04-3.7,16.04-9.96,20.23-9.33,6.29-20.97-.93-21.29-11.57-.32-9.57,4.13-24.39,14.9-26.42,7.69-1.49,15.13,3.53,16.62,11.22.42,2.17.33,4.41-.27,6.54Z"/>
  </g>
  <path class="cls-14" d="M462,130.56c-.41,1.03-1.12,1.85-2.06,2.37-.87.47-1.92.69-2.9.75-.6.04-1.2.04-1.81,0-.22-.01-.41.19-.41.41,0,.23.19.4.41.41,2.23.1,4.76-.13,6.38-1.85.51-.54.89-1.18,1.16-1.87.08-.2-.09-.45-.28-.5-.23-.06-.42.08-.5.28h0Z"/>
  <g class="cls-13">
    <path class="cls-5" d="M462,130.56c-.41,1.03-1.12,1.85-2.06,2.37-.87.47-1.92.69-2.9.75-.6.04-1.2.04-1.81,0-.22-.01-.41.19-.41.41,0,.23.19.4.41.41,2.23.1,4.76-.13,6.38-1.85.51-.54.89-1.18,1.16-1.87.08-.2-.09-.45-.28-.5-.23-.06-.42.08-.5.28h0Z"/>
  </g>
  <path class="cls-14" d="M457.91,123.39c-1.45.79-2.77,1.83-3.88,3.06-.32.36-.63.74-.92,1.12-.13.17-.03.46.15.55.21.11.42.04.55-.15.03-.04.06-.08.09-.12.01-.02.02-.03.04-.05.04-.05-.03.04,0-.01.06-.08.13-.16.19-.24.12-.15.25-.3.38-.45.26-.3.54-.58.83-.86s.6-.54.91-.8c.18-.14.23-.19.41-.32.16-.12.32-.23.48-.34.38-.26.77-.49,1.17-.71.19-.1.26-.37.15-.55s-.36-.25-.55-.15h0Z"/>
  <g class="cls-13">
    <path class="cls-5" d="M457.91,123.39c-1.45.79-2.77,1.83-3.88,3.06-.32.36-.63.74-.92,1.12-.13.17-.03.46.15.55.21.11.42.04.55-.15.03-.04.06-.08.09-.12.01-.02.02-.03.04-.05.04-.05-.03.04,0-.01.06-.08.13-.16.19-.24.12-.15.25-.3.38-.45.26-.3.54-.58.83-.86s.6-.54.91-.8c.18-.14.23-.19.41-.32.16-.12.32-.23.48-.34.38-.26.77-.49,1.17-.71.19-.1.26-.37.15-.55s-.36-.25-.55-.15h0Z"/>
  </g>
  <path class="cls-21" d="M464,143.05c2.62,2.33,7.06,2.17,9.51-.33.04.94.98,1.65,1.91,1.74.94.1,1.85-.26,2.71-.65,2.97-1.34,5.87-3.24,7.41-6.12,1.53-2.88,1.25-6.91-1.34-8.89,1.86-1.97,2.48-5.03,1.53-7.57-.95-2.54-3.41-4.45-6.11-4.72,1.01-3.64-.51-7.84-3.62-9.99s-7.58-2.09-10.63.14c-3.73-2.27-9-1.55-11.99,1.63-.86.92-1.53,2-2.42,2.89-.62.62-1.33,1.14-1.88,1.82-1.84,2.27-1.25,5.89.81,7.96,2.06,2.07,5.2,2.77,8.1,2.5-1.32,1.73-1.75,4.1-1.14,6.19.62,2.09,2.28,3.84,4.33,4.57-1.97,1.29-3.21,3.81-2.59,6.08s3.39,3.83,5.52,2.83"/>
  <path class="cls-16" d="M463.75,128c-.65,2.49-2.08,3.53-4.31,4.8-2.73,1.23-3.56-1.73-3.02-4.72.48-2.73,1.54-4.07,3.75-5.14,2.6-1.34,4.49,2.07,3.59,5.06Z"/>
  <path class="cls-14" d="M454.63,126.68c-.21,0-2.08.15-4.83,0l-3.49,3.87s-2.3,3.05.22,9.13c2.34,5.65,6.95,7.33,7.56,7.5.61.18-1.57-5.5,4.58-13.32,0,0-1.24-1.93-2.79-4.66-1.55-2.72-1.26-2.53-1.26-2.53Z"/>
  <path class="cls-10" d="M454.63,126.68c-.21,0-2.08.15-4.83,0l-3.49,3.87s-2.3,3.05.22,9.13c2.34,5.65,6.95,7.33,7.56,7.5.61.18-1.57-5.5,4.58-13.32,0,0-1.24-1.93-2.79-4.66-1.55-2.72-1.26-2.53-1.26-2.53Z"/>
  <path class="cls-21" d="M490.24,119.3c2-1.51,2.93-4.3,2.24-6.71-.69-2.41-2.97-4.28-5.47-4.49-2.5-.21-5.05,1.25-6.14,3.5-2.2-1.12-4.98-1-7.07.29-2.1,1.3-3.44,3.74-3.41,6.2l2.08,3.9c-1.31,2.86-1.77,6.19-.78,9.17.99,2.98,3.57,5.51,6.68,5.96,3.96.57,8.05-2.71,8.35-6.71,2.74.39,5.63-1.43,6.47-4.06.84-2.64-.47-5.79-2.93-7.06Z"/>
  <g class="cls-13">
    <path class="cls-15" d="M467.56,145.64c-2.22.32-4.51.64-6.68.01-2.18-.63-2.84-2.88-3.34-5.41-.34-1.72.49-1.87.59-3.64.15-2.8.17-4.68-1.24-6.97-1.37-2.2-5.87-5.95-7.46-7.93-1.59-1.99-2.87-4.65-2.41-7.31.43-2.42,2.17-4.2,3.82-5.78,2.23-2.15,4.65-4.38,7.53-4.76,2.04-.27,4.08.43,6.13.34,1.82-.08,3.59-.77,5.4-.8,3.17-.06,8.45,2.68,9.94,5.91,3.44-1.39,5.06-2.26,8.62-1.36,2.08.53,4.19,1.55,5.42,3.55,1.12,1.82,1.35,4.17,1.36,6.41.02,3.37-.74,7.92-1.98,10.97-1.4,3.43-4.25,5.23-4.93,7.68-.93,3.35-4.66,5.1-7.38,7.23-1.42,1.11-4.82.97-6.39,1.75-1.57.78-3.38,1.13-4.99.48"/>
  </g>
  <g>
    <g>
      <path class="cls-21" d="M456.96,245.12s11.71,72.26,18.12,99.33c7.03,29.65,44.74,127.79,44.74,127.79l18.51-3.73s-26.38-79.93-32.27-121.37c-4.54-31.83-13.47-101.99-13.47-101.99l-35.62-.02Z"/>
      <path class="cls-29" d="M456.96,245.12s11.71,72.26,18.12,99.33c7.03,29.65,39.17,128.91,39.17,128.91l24.07-4.85s-26.38-79.93-32.27-121.37c-4.54-31.83-13.47-101.99-13.47-101.99l-35.62-.02Z"/>
      <path class="cls-21" d="M433.92,245.12s-1.5,70.69-.31,99.53c1.23,29.99,13.28,128.2,13.28,128.2h18.51s.67-96.45,1.5-125.91c.89-32.11,5.4-101.82,5.4-101.82h-38.38Z"/>
      <path class="cls-29" d="M433.92,245.12s-1.5,70.69-.31,99.53c1.23,29.99,8.46,128.2,8.46,128.2h23.33s.67-96.45,1.5-125.91c.89-32.11,5.4-101.82,5.4-101.82h-38.38Z"/>
    </g>
    <polygon class="cls-18" points="502.68 322.64 503.55 329.03 472.57 332.93 470.52 322.64 502.68 322.64"/>
    <path class="cls-18" d="M467.87,322.64l-.46,10.29s-29.7.22-34.12-.9l-.13-11.34,34.72,1.96Z"/>
  </g>
  <g>
    <path class="cls-14" d="M398.11,184.98c-1.6-.44-3.31-.17-4.95.09-4.63.75-9.26,1.5-13.89,2.25-.87.14-1.93.45-2.1,1.32-.12.59.29,1.19.81,1.49.52.3,1.14.37,1.74.43,5.08.54,10.16,1.07,15.24,1.61l6.29-2.95c.41-1.9-1.27-3.73-3.15-4.24Z"/>
    <g>
      <path class="cls-14" d="M398.11,184.98c-1.6-.44-3.31-.17-4.95.09-4.63.75-9.26,1.5-13.89,2.25-.87.14-1.93.45-2.1,1.32-.12.59.29,1.19.81,1.49.52.3,1.14.37,1.74.43,5.08.54,10.16,1.07,15.24,1.61l6.29-2.95c.41-1.9-1.27-3.73-3.15-4.24Z"/>
      <path d="M398.21,184.62c-2.31-.58-4.73.03-7.03.4-2.51.41-5.02.81-7.53,1.22-1.26.2-2.51.41-3.77.61-.84.14-1.78.22-2.47.77-.58.46-.8,1.21-.48,1.9.4.87,1.3,1.21,2.19,1.34,2.45.36,4.93.53,7.39.79s5.08.54,7.62.81c.48.05.83.13,1.25-.07l1.12-.52,3.31-1.55,1.35-.63c.43-.2.51-.44.52-.95.06-1.99-1.7-3.58-3.48-4.1-.46-.14-.66.59-.2.72.83.24,1.58.71,2.15,1.37.27.31.49.67.62,1.06.06.17.1.33.13.51.02.12.03.24.03.36,0,.02.03.34.06.25-.01.04.08-.04-.05.06-.09.07-.25.12-.35.16l-1.07.5-2.88,1.35-1.18.55c-.18.08-.46.29-.66.31-.14.01-.48-.1-.68-.12-.6-.06-1.19-.13-1.79-.19-1.07-.11-2.14-.23-3.21-.34-2.18-.23-4.37-.46-6.55-.69-1.07-.11-2.14-.2-3.21-.34-.52-.07-1.1-.18-1.49-.56s-.49-.95-.05-1.34c.58-.51,1.52-.56,2.25-.67,1.1-.18,2.2-.36,3.3-.53,2.39-.39,4.79-.77,7.18-1.16s5.04-1.14,7.45-.53c.47.12.67-.61.2-.72Z"/>
    </g>
    <g>
      <path class="cls-21" d="M374.62,184.08h68.2v.11c0,1.52-1.23,2.75-2.75,2.75h-62.7c-1.52,0-2.75-1.23-2.75-2.75v-.11h0Z"/>
      <path class="cls-10" d="M374.62,184.08h68.2v.11c0,1.52-1.23,2.75-2.75,2.75h-62.7c-1.52,0-2.75-1.23-2.75-2.75v-.11h0Z"/>
    </g>
    <path class="cls-29" d="M517.35,217.88s1.61,11.48-5.44,14.71c-7.05,3.22-14.1.4-14.71,0-.6-.4-7.66-10.48-7.66-10.48l11.48-51.38s3.63,5.84,9.07,19.74c0,0,4.84,6.56,3.02,11.95,0,0,5.07,10.27,4.23,15.46Z"/>
    <path class="cls-18" d="M501.75,191.88s7.1,20.7,1.78,26.73c-5.33,6.03-10.31,8.68-10.31,8.68,0,0,9.1-27.21,8.34-33.79"/>
    <path class="cls-29" d="M502.64,180.81c.2.81-4.84,46.34-8.86,48.76-4.03,2.42-54.8-1.41-54.8-1.41,0,0-10.88-55.81-5.84-59.03,5.04-3.22,24.99-12,24.99-12l17.72-.49s23.17,10.48,25.18,14.1c2.01,3.63,1.61,10.07,1.61,10.07Z"/>
    <path class="cls-29" d="M447.58,187.54c-.5.87-17.5,37.16-22.7,36.76-2.62-.2-2.7-.45-2.7-.45,0,0-4.45,6.71-10.66,4.98-7.35-2.05-10-8.84-10-8.84,0,0-6.2-.4-6.6-3.2-.4-2.8,0-5.48,0-5.48,0,0-2.8-.52-3.6-2.92-.8-2.4,0-5.97,0-5.97,0,0-4.2-4.81-1.4-8.93,2.8-4.11,12.81-4.51,14.01-4.71,1.2-.2,2.8,3.6,2.8,3.6,0,0,5-1.8,6.8.2,1.8,2,2.2,3.4,2.2,3.4,0,0,12.89-25.36,18.16-28.2,7.44-4.02,17.12,13.82,13.7,19.75Z"/>
    <g class="cls-18">
      <path d="M415.06,195.5c-2.72,4.12-5.46,8.24-7.17,12.89-.51,1.39-.93,2.81-1.27,4.25-.12.51.66.72.78.22.58-2.45,1.39-4.83,2.46-7.1,1.01-2.14,2.22-4.17,3.49-6.16.79-1.24,1.6-2.46,2.41-3.69.29-.44-.41-.84-.7-.41h0Z"/>
    </g>
    <path class="cls-29" d="M493.77,229.57s5.87,10.3,6.55,25.1c.67,14.81,9.06,65.64,5.7,67.49-3.37,1.85-76.13.27-79.66-2.92-3.53-3.2,5.62-72.38,6.8-78.6,1.18-6.23,5.82-12.48,5.82-12.48l54.8,1.41Z"/>
    <path class="cls-21" d="M471.99,161.07c.03-1.84.99-3.53,2.33-4.75,1.49-1.36,3.43-2.12,5.36-2.61.84-.21,2.14-.69,2.89-.02.81.73-.38,1.72-.91,2.19-1.47,1.29-3.13,2.36-4.89,3.19-2.01.94-4.17,1.56-6.37,1.82-.51.06-.52.87,0,.81,4.4-.52,8.6-2.37,11.92-5.31.75-.66,1.68-1.62,1.22-2.71s-1.72-1.2-2.73-1.03c-2.22.37-4.53,1.16-6.34,2.53-1.86,1.4-3.23,3.53-3.27,5.9,0,.52.8.52.81,0h0Z"/>
    <path class="cls-21" d="M469.95,161.56c-3.57-1.26-6.58-3.96-8.28-7.33-.21-.42-.4-.84-.57-1.28-.16-.41-.45-1.03-.14-1.44.64-.83,1.93,0,2.56.39,1.6,1,2.99,2.35,4.05,3.91,1.2,1.77,2.01,3.82,2.28,5.95.03.22.17.4.41.41.2,0,.43-.19.41-.41-.53-4.22-2.95-8.11-6.52-10.43-.91-.59-2.06-1.29-3.17-.81-.48.21-.85.62-.93,1.15-.09.6.15,1.18.37,1.73.78,1.93,1.94,3.7,3.41,5.18,1.66,1.68,3.69,2.98,5.92,3.77.49.17.7-.61.22-.78h0Z"/>
    <path class="cls-21" d="M469.74,161.72c2.95,7.45,3.71,15.71,2.18,23.57-.43,2.21-1.04,4.37-1.82,6.48-.18.49.6.7.78.22,2.8-7.58,3.36-15.93,1.66-23.83-.49-2.27-1.17-4.5-2.02-6.66-.19-.48-.97-.27-.78.22h0Z"/>
    <path class="cls-21" d="M470.5,161.62c-1.39,6.86-2.77,13.73-4.16,20.59-.1.51.68.73.78.22,1.39-6.86,2.77-13.73,4.16-20.59.1-.51-.68-.73-.78-.22h0Z"/>
    <path class="cls-21" d="M439.23,229.69c14.66,1.41,29.43,1.67,44.15.98,1.54-.07,3.07-.15,4.61-.26,1.07-.08,2.16-.16,3.21-.42,1.92-.47,3.24-1.71,4.09-3.47.66-1.38,1.09-2.87,1.53-4.33.51-1.67.97-3.35,1.39-5.04.89-3.57,1.6-7.18,2.2-10.81,1.32-8.05,2.06-16.17,2.77-24.29.05-.52-.77-.52-.81,0-1.23,14.15-2.51,28.53-7.01,42.08-.64,1.92-1.49,4.01-3.5,4.81-.95.38-2,.5-3.01.59-1.4.13-2.81.2-4.21.27-6.74.35-13.49.46-20.23.4-8.4-.07-16.8-.51-25.17-1.32-.52-.05-.52.76,0,.81h0Z"/>
    <g class="cls-18">
      <path d="M435.48,211.14c4.67-7.11,8.49-14.75,11.39-22.75.18-.49-.61-.7-.78-.22-2.87,7.93-6.68,15.51-11.31,22.56-.29.44.41.84.7.41h0Z"/>
    </g>
    <path class="cls-18" d="M444.36,194.28s9.98,21.67-7.02,25.36l-1.6-9.63,8.62-15.72Z"/>
  </g>
</svg>