<?xml version="1.0" encoding="UTF-8"?>
<svg id="Layer_5" data-name="Layer 5" xmlns="http://www.w3.org/2000/svg" viewBox="0 0 100.28 100.28">
  <defs>
    <style>
      .cls-1 {
        fill: #666e79;
      }

      .cls-2 {
        fill: #e5e8ec;
      }

      .cls-3 {
        fill: #ec5565;
      }

      .cls-4 {
        fill: #a9b1bc;
      }

      .cls-5 {
        fill: #fecd54;
      }

      .cls-6 {
        fill: #545c66;
      }

      .cls-7 {
        fill: #f3f5f8;
      }

      .cls-8 {
        fill: #cbd0d8;
      }
    </style>
  </defs>
  <path class="cls-8" d="M95.04,34.52v54.62c-.13,2.4-2.28,3.73-4.51,3.89H5.19c-2.37-.02-4.8-1.3-4.94-3.89-.25-17.98.19-35.99,0-53.98.22-2.59,2.13-4.26,4.72-4.35h85.55c2.38.21,3.82,1.47,4.53,3.71Z"/>
  <path class="cls-4" d="M95.04,89.14v4.63c-1.04,2-2.18,3.14-4.53,3.34H4.6c-4.81-.73-4.3-4.19-4.35-7.97.87,2.26,2.27,3.34,4.71,3.53h85.55c2.33-.2,3.72-1.39,4.53-3.53Z"/>
  <path class="cls-4" d="M5.75,35.48l83.92.06.65.65.11,50.27c.04,1.1-.75,1.57-1.76,1.57H6.63c-1.02,0-1.8-.48-1.76-1.57l.11-50.27.77-.71Z"/>
  <path class="cls-2" d="M15.43,42.11l.36,1.18-.17,15.55c.54.04.91.2,1.11.49-.84.42-2.02.08-2.96.19v23.05c0,.23-1.05.94-1.42.96-.43.02-1.55-.69-1.55-.96v-42.68c1.8-.05,3.52.86,4.63,2.22Z"/>
  <path class="cls-2" d="M45.24,80.25c.12.09.34-.32.4-.43,2.8-4.47,2.1-7.79,2.37-12.81.43-8.01.87-16.05,1.3-24.06.04-.83-.2-3.07.27-3.62s1.41-.07,1.36.64l-1.84,36.1-3.06,6.39c-.58.53-.9.52-1.35-.11-.41-.57-3.09-5.95-3.17-6.46-.14-.88.05-2.03,0-2.96-.59-11.04-1.18-22.05-1.67-33.13,1.37-1.96,1.58.72,1.66,1.85.57,8.53.67,17.16,1.11,25.73.12,2.38.08,5.7.38,7.95.21,1.53,1.83,3.36,2.21,4.92Z"/>
  <path class="cls-2" d="M84.49,39.89v42.21h-2.96v-39.9c0-.99,1.88-2.56,2.96-2.31Z"/>
  <path class="cls-2" d="M28.76,39.7c.27,7.63.2,15.18-.21,22.67l-.34.66c-.22,4.68-.61,9.39-1.16,14.12l-.32.69c.14.34.57,1.38.08,1.72-.08.06-.17.1-.27.13-.61,4.26-5.17,6.46-7.96,2.68-3.44-4.66,2.15-12.01,6.85-6.94l1.86-21.01c.46-4.39-.65-10.21,0-14.44.16-1.01,1.01-1.2,1.47-.29Z"/>
  <path class="cls-8" d="M28.76,39.7c.06.11.25.23.2.44v15.01s1.84,20.09,1.84,20.09c5.13-4.74,10.39,2.88,6.48,7.5-2.79,3.3-7.37.81-7.6-3.05h-3.14c.08-.6.12-1.29.19-1.86.94-.09,1.78,0,2.54.23-.57-4.66-1.12-9.38-1.19-14.08l.14-.96c-.18-2.82.43-5.43.56-8.23.23-4.96-.19-10.12,0-15.1Z"/>
  <path class="cls-8" d="M58.57,63.22l.18.71c-.62,4.98-1.17,9.91-1.66,14.79-.22,2.68,3.54,2.93,3.72.33l-1.83-15.56.34-.27c0-.48,1.17-.96,1.48-.56.48,5.66,1.63,11.27,1.85,16.94-1.41,5.28-8.37,3.46-7.4-1.85l1.85-15.09c.34-.37,1.41.09,1.48.56Z"/>
  <path class="cls-8" d="M69.49,63.96c0-1.48,0-2.97,0-4.44h5.92c0,1.48,0,2.97,0,4.44-.15.59-2.02.56-2.22,0,.15.02.37.07.37.17.1,2.24.21,5.62,0,7.79.11.51-.02.82-.37.92.13-.64,1.54-.44,1.85,0-.43.34-1.27.18-1.85.19-.49.37-.99.37-1.48,0-.58,0-1.43.15-1.85-.19.23-.48,1.61-.59,1.85,0l-.37-.17v-8.49l.37-.22c-.15.59-2.02.56-2.22,0Z"/>
  <path class="cls-2" d="M56.72,40.63c.49-.02.99,0,1.48,0,.49-.37,1-.37,1.48,0,.49,0,.99-.03,1.48,0,.24-.69,1.48-.44,1.48.37.05,1.23.23,3.17-1.04,3.86-.44.24-.68.12-.99.21-.75.28-1.52.4-2.34.37-.25-.24-.64-.36-1.18-.37-2.26-.62-1.93-2-1.85-4.07.03-.81,1.12-1.04,1.48-.37Z"/>
  <path class="cls-2" d="M59.68,55.81c3.45.78,4.13,5.2,1.11,6.85-.43.23-1,.5-1.48.56-.2.54-.54.53-.74,0-.6-.06-.98-.27-1.48-.56-3.01-1.68-2.37-6.06,1.11-6.85.07-.79,1.43-.8,1.48,0Z"/>
  <path class="cls-7" d="M16.73,59.33c-.33.11-1.08-.08-1.48,0l.19-17.22c1.01,1.24,1.36,2.4,1.48,3.98.23,3.06.37,9.85.01,12.78-.03.2.08.36-.19.45Z"/>
  <path class="cls-3" d="M43.2,39.61c.11-.39.67-.44,1.01-.47.56-.06,3.44-.15,3.44.47v5s-.43.46-.46.46h-3.7s-.28-.26-.28-.28c0-1.1-.22-4.41,0-5.18Z"/>
  <path class="cls-5" d="M75.42,54.89c.02,1.48-.01,2.97,0,4.44h-5.92c.02-1.48-.02-2.97,0-4.44.89-.28,1.88-.33,2.97-.15,1.07-.15,2.06-.1,2.96.15Z"/>
  <path class="cls-2" d="M69.49,63.96h2.22v8.89c-.54-.08-1.37.12-1.85,0-.35-.09-.34-.33-.38-.64-.29-2.25,0-5.84,0-8.25Z"/>
  <path class="cls-2" d="M75.42,63.96c0,2.41.3,6,0,8.25-.04.31-.03.55-.38.64-.48.12-1.31-.08-1.85,0v-8.89h2.22Z"/>
  <path class="cls-8" d="M73.2,51.92c-.48.49-1.01.49-1.48,0v-11.95c.06-1.11,1.42-1.13,1.49,0v11.95Z"/>
  <path class="cls-2" d="M71.72,51.92c.49-.01.99-.01,1.48,0,2.91.09,2.19.25,2.22,2.96-1.94.32-3.98.26-5.92,0,.05-2.78-.67-2.88,2.22-2.96Z"/>
  <path class="cls-8" d="M60.61,45.07c-.27.07-.53.31-.92.19v10.55c-.2-.05-.36-.19-.65-.19-.4,0-.55.13-.83.19v-10.55c-.48.14-.78-.09-1.11-.18h3.52Z"/>
  <path class="cls-6" d="M73.2,73.03v8.15c-.14.55-1.36.6-1.48,0v-8.15c.49,0,.99,0,1.48,0Z"/>
  <path class="cls-1" d="M71.72,81.18c.62.03.96,0,1.48,0,.73,0,1.65.04,1.49,1.01-.14.89-2.51.73-3.26.66-1.85-.16-1.58-1.75.29-1.68Z"/>
  <path class="cls-8" d="M62.64,41c-.45-.47-.92-.34-1.48-.37-.12-.72.07-1.71.98-1.46.7.19.48,1.27.5,1.83Z"/>
  <path class="cls-8" d="M56.72,40.63c-.56.03-1.03-.1-1.48.37.02-.56-.2-1.62.5-1.82.88-.25,1.05.79.98,1.45Z"/>
  <path class="cls-8" d="M59.68,40.63c-.49,0-.99,0-1.48,0-.3-2.01,1.78-2,1.48,0Z"/>
  <path class="cls-4" d="M21.49,75.29c4.34-.89,4.81,7.37.67,7.48-3.82.11-4.03-6.79-.67-7.48Z"/>
  <path class="cls-4" d="M28.21,63.03c.33,5.07.94,10.12,1.3,15.18-.71-.02-1.43.03-2.14,0-.36-.01-.74.19-.64-.37.52-4.51.65-9.09,1.11-13.61.04-.39.1-.9.37-1.21Z"/>
  <path class="cls-4" d="M33.53,75.29c4.34-.89,4.81,7.37.67,7.48-3.82.11-4.03-6.79-.67-7.48Z"/>
  <path class="cls-4" d="M59.31,63.22l1.86,15.84c-.16,1.43-.86,2.17-2.33,2.13-2.8-.06-2.1-3.18-1.92-5.08.42-4.3,1.24-8.58,1.64-12.89.21.02.53.02.74,0Z"/>
  <path class="cls-4" d="M58.15,57.33c3.56-.82,3.95,3.83,1.21,4.36-2.82.55-3.62-3.81-1.21-4.36Z"/>
</svg>