<?xml version="1.0" encoding="UTF-8"?>
<svg id="Layer_2" data-name="Layer 2" xmlns="http://www.w3.org/2000/svg" viewBox="0 0 86.34 95.97">
  <defs>
    <style>
      .cls-1 {
        fill: #64c9fd;
      }

      .cls-2 {
        fill: #f46baa;
      }

      .cls-3 {
        fill: #fd60a8;
      }

      .cls-4 {
        fill: #fd7ab5;
      }

      .cls-5 {
        fill: #585b6a;
      }

      .cls-6 {
        fill: #fa61a8;
      }

      .cls-7 {
        fill: #f76aab;
      }

      .cls-8 {
        fill: #fd5da7;
      }

      .cls-9 {
        fill: #f766a9;
      }

      .cls-10 {
        fill: #baafb8;
      }

      .cls-11 {
        fill: #04b7fd;
      }

      .cls-12 {
        fill: #ad9fab;
      }

      .cls-13 {
        fill: #fd5ca7;
      }

      .cls-14 {
        fill: #fd5ea7;
      }

      .cls-15 {
        fill: #fd5fa8;
      }

      .cls-16 {
        fill: #fc5da7;
      }

      .cls-17 {
        fill: #fd5ea8;
      }
    </style>
  </defs>
  <g id="Layer_5" data-name="Layer 5">
    <g>
      <path class="cls-4" d="M39.7,0c1.97,1.73,2.59,4.75,1.85,9.06,2.33.47,3.69,1.41,4.08,2.81,7.36-.13,12.56-1.76,19.77,2.97,2.43-.03,3.09.63,1.98,1.98,2.7,2.37,6.87,9.14,11.21,8.69,1.7-.18,4.88-3.43,7.09.21,3.5,5.79-8.08,6.85-12.33,5.4s-8.29-8.62-11.98-10.75c-2.13-1.23-3.78-1.05-5.86-1.56l-1.9,1.31c.26-1.7-.1-1.81-1.07-.32-1.13-3.58-2.83-.97-3.95-.99-1.12-.97-6.83,2.4-6.98,2.76l.06,38.57-1.98,1.18c-.19.09-.62,1.24-1.69,1.73-1.69.77-11.16,5.44-11.16,1.73v-19.77c0-.6-2.99-3.14-4.33-2.42-3.16,3.6-5.13,9.11-9.78,11.06-3.6,1.51-15.62,3.54-12.1-3.21,1.28-2.46,6.76-2.33,9.4-2.95-.36-1.59.39-2.62,1.98-2.97.26-.5,6.16-6.88,7.42-7.91,1.4-1.13,6.9-3.64,7.2-4.16.68-1.18.23-10.74.24-13.21,0-1.25-1.02-2.27-1.02-2.4-1.87-.77-1.87-1.76,0-2.97l1.98-13.84h11.86Z"/>
      <path class="cls-13" d="M44.65,0l.99,11.86c-9.26.16-5.19-4.73-5.93-11.86h4.94Z"/>
      <path class="cls-16" d="M48.6,18.79c-5.32-1.15-4.59,15.2-3.95,15.81.55.52,8.38-.47,13.31,5.99.84,1.11,1.44,3.72,1.6,3.85.8.6,6.9-1.89,7.83-.93,2.87,2.98-4.42,3.18-5.93,4.44,1.84,5.19,12.23,3.06,12.76,3.51.12.1,1.19,2.8,1.08,2.91-.23.22-5.27,1-6.29.95-12.75-.7-9.9-11.76-15.9-15.83-5.01-3.4-3.84,1.8-1.54,4.99-4.96,1.34-5.41-3.16-3.95-6.9h-2.96s.06,22.12.06,22.12c-.31,1.11-3.79,1.01-5,1.6l-.06-40.92c.1-.36,5.66-2.44,6.61-2.59,1.26-.2,2.18.99,2.35,1Z"/>
      <path class="cls-4" d="M39.7,70.2c.77.21,1.93.54,1.98,1.14.51,6.21.5,16.93,0,23.14l-1.98,1.42c-4.26.19-8.59-.14-12.86,0-.3-3.82.43-8.14,0-11.87-1.64-.26-2.63-.92-2.97-1.98,5.18-2.01,1.59-3.44,3.96-6.43,1.36-1.72,9.36-4.66,11.86-5.44Z"/>
      <path class="cls-8" d="M39.7,70.2c7.92-2.45,3.92,4.05,4.94,9.4.68,3.59,8.13,1.96,10.89,5.94-1.7,5.4-3.48.33-5.65-.3-8.35-2.46-4.47,4.76-5.23,10.68-1.64.06-3.31-.08-4.95,0v-25.71Z"/>
      <path class="cls-1" d="M78.26,88c-.02,2.05.64,3.04,1.98,2.97,3.16-1.01,2.52,2.78,0,3.95-.58.24-.78,1.18-2.35,1.02-4.64-.48-14.01-16.33-15.45-20.79-.15-2.41,1.68-3.79,3.95-2.97,4.73,2.64,12.23,10.15,11.86,15.82Z"/>
      <path class="cls-10" d="M61.45,72.18c-6.91.52-13.36-12.98-8.92-17.32,1.87-1.83,1.67.12,2.26.78,3.42,3.78,6.71,10.32,9.62,13.58,2.3,1.77-1.08,4.63-2.97,2.97Z"/>
      <path class="cls-6" d="M25.86,13.84c1.38,1.13,0,2.32,0,2.97-7.96.94-7.38,11.8-11.95,15.24-1.03.78-8.98,4.13-8.8,1.07.05-.88,11.21-4.54,10.81-11.92-.06-1.09-5.21-6.27-1.44-6.35.58-.01,2.79,2.42,3.97,2.58,1.81.25,4.1-4.87,7.4-3.6Z"/>
      <path class="cls-11" d="M67.39,71.19c.33.19,1.72-.4,2.71.22,2.75,5.64,16.12,14.53,13.23,21.1-1.11,2.53-1.35,1.68-3.09,2.4,1.74-2.06.5-2.61,0-3.95-1.9.42-2.79-1.37-1.98-2.97-3.76-5.8-8.2-10.14-11.86-15.82-.25-.91.08-1.24.99-.99Z"/>
      <path class="cls-6" d="M26.85,84.04c-6.38-.46-7.51,5.2-11.78,7.5-1.43.77-6.8,2.72-8.01,1.95-1.09-.69-1.34-3.17-.98-3.51s7.99-.06,9.86-2.05c-3.99-8.22,4.99-16.07,2.01-3.89,1.77-1.67,4.32-1.36,5.92-1.98.75.15,2.67-.25,2.97,0,.16.14-.07,1.39,0,1.98Z"/>
      <path class="cls-2" d="M67.39,16.81c-.63-.55-1.79-1.85-1.98-1.98l6.93-1.49-4.95,3.47Z"/>
      <path class="cls-12" d="M67.39,71.19c-.31.34-.62.7-.99.99-1.29,1.01-2.61,2.03-3.95,2.97-.25-.78-1.31-2.17-.99-2.97.08-.19,2.89-1.6,2.97-2.97.48.54,2.19,1.53,2.97,1.98Z"/>
      <path class="cls-9" d="M55.52,18.79l-.97.49c1.07,1.15,2.34,1.76,1.96,3.46-5.71.56-3.19-.54-3.95-2.96-.39-3.81,1.52-1.34,2.97-.99Z"/>
      <path class="cls-7" d="M12.02,44.49c-.84,1.65,1.85,2.07-1.98,2.97-3.27-4.31-1.34-8.5,1.98-2.97Z"/>
      <path class="cls-15" d="M36.73,11.87v7.91s-2.96,0-2.96,0c.13-2.92-1.28-7.98,2.96-7.91Z"/>
      <path class="cls-14" d="M36.73,41.53v7.91s-2.96,0-2.96,0c.13-2.92-1.28-7.98,2.96-7.91Z"/>
      <rect class="cls-14" x="33.77" y="22.74" width="2.96" height="6.93"/>
      <path class="cls-17" d="M36.73,32.62c-.58,1.56,1.55,7.17-1.46,6.92l-1.49-6.92h2.96Z"/>
      <path class="cls-3" d="M36.73,4.94l-1.46,5.93c-2.49-2.71-2.72-7.14,1.46-5.93Z"/>
      <path class="cls-15" d="M36.73,51.42v5.93c-6.12,1.82-1.9-8.14,0-5.93Z"/>
      <path class="cls-5" d="M80.24,90.96l-.5.98c-3.06.93-3.53-1.82-1.48-3.94.67,1.03,1.1.61,1.98,2.97Z"/>
    </g>
  </g>
</svg>