<?xml version="1.0" encoding="UTF-8"?>
<svg id="Layer_5" data-name="Layer 5" xmlns="http://www.w3.org/2000/svg" viewBox="0 0 100.28 100.28">
  <defs>
    <style>
      .cls-1 {
        fill: #4a84e3;
      }

      .cls-2 {
        fill: #3e3a62;
      }

      .cls-3 {
        fill: #faebd7;
      }

      .cls-4 {
        fill: #322e3e;
      }

      .cls-5 {
        fill: #58b2fe;
      }

      .cls-6 {
        fill: #52527b;
      }

      .cls-7 {
        fill: #302d3d;
      }

      .cls-8 {
        fill: #fac3aa;
      }

      .cls-9 {
        fill: #cdbfc7;
      }

      .cls-10 {
        fill: #fa9b88;
      }

      .cls-11 {
        fill: #3e3962;
      }

      .cls-12 {
        fill: #447ce0;
      }

      .cls-13 {
        fill: #fa9b87;
      }

      .cls-14 {
        fill: #93dffe;
      }

      .cls-15 {
        fill: #dcc3a5;
      }
    </style>
  </defs>
  <path class="cls-8" d="M33.82,32.76c0-.15.04-.37.13-.38,4.92-.16,9.97-.02,14.88.22-.05,1.13-.02,2.25.09,3.37l.27-.32c1.91.1,3.7-1.47,4.79-2.93l.42.03.42-.38h12.19l.23.38c-.02,1.03.13,1.93.46,2.71.16,1.37.39,5.52,0,6.57-.07.19-.17.37-.27.54-.29,7.33-3.41,12.78-10.3,15.67l-.09,5.1c-.04.17-.1.16-.19,0l-.38-.17v-4.38c-3.88,1.13-8.02,1.13-11.9,0v4.28s-.38.27-.38.27c-.04.16-.11.16-.19,0l-.09-5.1c-6.89-2.94-10-8.3-10.3-15.67-.1-.18-.2-.35-.27-.54-.39-1.04-.17-5.21,0-6.57.36-.77.51-1.67.47-2.71Z"/>
  <path class="cls-15" d="M64.98,11.8l-.03.41-10.74,3.97c-.24.16,3.51,2.11,5.36,1.39s3.62-1.49,5.38-2.38c.97-.6,1.86-.79,2.66-.56.72.95,1.33,1.96,1.89,3.02l-.08.43-3.25,1.16c.85,1.56,2.72,2.04,4.42,1.85l.41.34c1.52,5.01,1.12,9.73,1.13,14.92-.17.05-.24-.01-.19-.19l-.38-.48v-7.49s-3.69.02-3.69.02c-.27.06-.46.1-.65-.17-.55.2-1.12.33-1.7.36-3.01.18-6.49-.07-9.44-.55-1.1-.13-2.17-.33-3.25-.64-7.31-2.1-14.96-4.64-22.14-7.05l-.11-.43c.45-1.12.88-2.16,1.51-3.21l.33-.29,25.62,7.95c3.11.44,6.24.55,9.38.35l-24.08-7.4c-.35-.14-.27-.5-.11-.83l18.68-6.35.77.14c.8.54,1.54,1.05,2.27,1.7Z"/>
  <path class="cls-15" d="M69.13,84.51l.44.16c1.11,3.66,2.23,7.37,3.34,11.03l-.3.33c.26-.62,2.41-.57,2.74,0l-.45-.15-3.62-11.04.29-.33c1.18-.52,2.41-.53,3.59,0,.36.62.64,1.26.84,1.95l2.01,9.13c2.31.04,2.73-2.76,2.71-4.66l-.13-5.92c-.03-.31.11-.43.43-.49,1.4.09,2.45.33,2.65,1.98.24,1.98.2,7.49-.66,9.17-.24.48-.85,1.34-1.23,1.69,0,.62-.37.78-.89,1l-1.38.32c-10.12.58-20.78.19-30.97.19-.16-.05-.16-.12,0-.19-.32-.13-.48-.52-.48-1.15-1.53.07-3.06.04-4.59-.1l-.41-.46.17-.38h4.9c0-.28.11-.46.4-.57.05-.16.12-.16.19,0l.17-.38,11.8-.03,3.61-10.9c.09-.12.25-.19.47-.21.11-.36.27-.36.38,0,.16-.56,1.79-.74,2.08-.19.29-.54,1.74-.37,1.89.19Z"/>
  <path class="cls-5" d="M37.22,68.27l.02.43c-7.67,3.76-10.48,10.48-11.39,18.81-.39,3.59-.1,6.44,4.17,6.46l.41.36c.15.02.36.08.37.18.03.45-.08,3.81-.17,4.1l-.39.25c-3.46,0-6.93,0-10.39,0,.72-5.03,1.09-10.15,1.92-15.17,1.36-8.21,5.52-15.67,13.57-18.82l.38.18c.31,1.03.87,1.96,1.67,2.8l-.16.41Z"/>
  <path class="cls-5" d="M44.02,63.36c.07,0,.14-.02.19,0,.08-.16.2-.25.38-.24,3.8,3.64,8.1,3.62,11.89,0l.38.24c.05-.02.12,0,.19,0,3.3-.44,7.79.87,10.7,2.42,7.03,3.75,10.62,11.09,11.77,18.73-1.33.55-3.03.58-4.34,0l-.51-.51c-1.07-9.34-10.52-20.02-20.15-13.9-1.58.57-3.91,1.03-5.4.24-.14-.03-.29-.06-.42-.12-.5-.22-4.37-5.15-5.07-6.09l-.18-.78c.19.01.38-.02.57,0Z"/>
  <path class="cls-3" d="M43.45,63.36c1.85,2.09,3.91,4.78,5.67,6.99.55.37,1.06.79,1.5,1.29,2.29,2.58,4.5,5.77,6.24,8.72l-.17.38h-9.55l-.66-.38c-2.62-2.55-4.94-5.64-7.11-8.62-.86-1.07-1.7-2.15-2.14-3.47-.71-.96-1.92-2.24-1.89-3.4.03-.85.3-1.32,1.09-1.65.72-.29,4.76-1.24,5.38-1.15.83.12,1.16.73,1.66,1.29Z"/>
  <path class="cls-3" d="M62.71,10.1l-19.45,6.61,26.44,8.12c-3.91.1-7.85.41-11.71-.28l-25.87-8.03c.55-.91,1.37-2.04,2.08-2.83l.48-.15c.83.46,1.77.68,2.69.83,7.55-2.16,15.06-4.15,22.51-5.97,1.07.5,1.87,1.05,2.83,1.7Z"/>
  <path class="cls-6" d="M34.2,13.69c1.23-1.37,2.91-2.77,4.45-3.77-.68-2.01-.51-3.94.69-5.73.29-.43,1.68-2.11,2.21-1.81.24.14,2.28,4.2,2.67,4.89l.44.03c.92,3.33,3.66,3.24,1.4-.18l.24-.42c4.68-.88,9.29-.32,13.6,1.7-.12.39-.48.35-.79.44-7.2,2.06-14.48,3.83-21.68,5.9-1.06-.11-2.32-.46-3.22-1.05Z"/>
  <path class="cls-3" d="M56.1,27.85c-.3.37-.64.37-.94,0-3.08.37-6.17.37-9.25,0-.21.23-.34.23-.38,0l-2.46-.36c-4.51-1.38-9-2.75-13.48-4.12l-.11-.43c.25-1.1.71-2.17,1.13-3.21l25.49,8.12Z"/>
  <path class="cls-3" d="M79.52,84.51c.5.01,1.01-.03,1.51,0-.41,2.78,1.06,9.01-1.32,10.86-.44.34-1.77,1.08-2.05.34-.86-3.72-1.61-7.48-2.49-11.2,1.44.01,2.9-.03,4.34,0Z"/>
  <path class="cls-15" d="M45.53,27.85c-2.91.54-6.22.63-9.22.54-.85.07-1.69-.05-2.49-.36l-.26.29c-1.61.01-3.16-.15-4.65-.48.07-1.58.22-3.37.57-4.91l16.05,4.91Z"/>
  <path class="cls-3" d="M67.62,14.63c-2.68.66-5.36,2.53-7.94,3.3-1.08.32-1.58.42-2.69.06-.4-.13-3.09-1.46-3.26-1.65-.11-.13-.2-.34.01-.39l11.23-4.15c.96.86,1.86,1.8,2.64,2.83Z"/>
  <path class="cls-10" d="M33.82,32.76c-.07,3.26-.32,6.54-.19,9.82-1.78.07-3.9.16-5-1.52-.77-1.18-.69-3.66.27-4.71l.29-.73c1.25-.62,2.6-.89,4.06-.82l.17-5.56.39-.26c.57,1.16.59,2.62,0,3.78Z"/>
  <path class="cls-10" d="M67.24,29.18c.37-.3.53-.08.58.34v5.32c1.32-.01,2.7.05,3.89.69l.25.64c.06.05.14.13.19.19.93,1.15,1.08,3.48.27,4.71-1.09,1.68-3.22,1.59-5,1.52.13-3.28-.12-6.56-.19-9.82-.58-1.09-.57-2.49,0-3.59Z"/>
  <path class="cls-6" d="M33.82,28.04c.56.01.52.84,0,.94l-.19,6.23c-1.42-.06-3.69,0-4.72,1.13.09-2.82-.12-5.68,0-8.5,1.42.02,2.85-.01,4.27-.01.34,0,.61.2.64.2Z"/>
  <path class="cls-11" d="M30.42,94.33l-.32-.34.84-10.69c0-1.97,2.21-2.44,2.81-.48.53,1.73-.33,8.83-.66,10.96l-.41.35.24.33c0,.59-.19,3.82-.34,4.08-.1.17-.28.25-.46.31-.63,0-1.26,0-1.89,0l.19-4.53Z"/>
  <path class="cls-5" d="M38.16,94.33l.38.22.04,3.75h9.74s.23.38.23.38v.19c-5.47,0-10.96,0-16.43,0,.37-1.35.26-2.9.37-4.26.02-.24.19-.42.2-.46,1.57-.49,3.8-.24,5.48.19Z"/>
  <path class="cls-3" d="M69.51,17.66c.71,1.35,1.07,2.33,1.51,3.78-2.4.28-4.19-.24-5.48-2.36l3.96-1.41Z"/>
  <path class="cls-11" d="M46.28,6.7c.26.88,1.64,2.11.84,3.01-1.43,1.61-2.42-1.57-2.92-2.45.66-.33,1.37-.43,2.08-.57Z"/>
  <path class="cls-1" d="M81.78,97.35l.19,1.32c-.81.03-1.64-.05-2.46,0,.71-.5,1.61-.72,2.27-1.32Z"/>
  <path class="cls-13" d="M44.2,63.36v-5.1c3.94,1.36,8.71,1.36,12.65,0v5.1c-.53.15-2.24,1.78-3.17,2.21-1.98.92-4.33.92-6.31,0-1.03-.48-2.47-1.97-3.17-2.21Z"/>
  <path class="cls-13" d="M56.1,27.85c3.71,0,7.49.18,11.14.19.57-.07.54,1.03,0,1.13,0,1.19-.03,2.4,0,3.59h-12.84l-.17-.49c.62-1.26.61-2.68.56-4.05l.37-.37c.31,0,.63,0,.94,0Z"/>
  <path class="cls-13" d="M45.53,27.85c.13,0,.25,0,.38,0,.26.31.16.63-.3.97-3.98,2.45.72,3.04,3,3.17l.32.39c.59.11.56,1.73,0,1.89.58.09.56,1.56,0,1.7-.41-.14-.08-2.67-.19-3.21h-14.92c.03-1.25,0-2.52,0-3.78v-.94c3.84,0,7.82-.19,11.71-.19Z"/>
  <path class="cls-6" d="M55.16,27.85c.05,1.82.15,3.28-.76,4.91-.81,1.47-3.76,3.79-5.48,3.21v-1.7l.2-.34c3.57-.35,4.79-4.32.29-1.36l-.48-.19c-1.09-.06-1.89-.02-2.98-.32-.6-.17-2.88-1.03-2.32-1.85.53-.78,1.77-1.48,2.28-2.35,3.08,0,6.17,0,9.25,0Z"/>
  <path class="cls-4" d="M48.31,48.86c.62-.14,3.64-.14,4.26,0,.96.21,1.24,1.38.5,1.93-.56.42-3.96.4-4.72.21-1.26-.3-1.28-1.87-.04-2.14Z"/>
  <path class="cls-7" d="M55.58,36.21c.31-.31,3.81-.34,4.39-.23,1.15.21,1.14,1.86,0,2.07-.55.1-3.41.1-3.96,0-.83-.16-.86-1.41-.43-1.84Z"/>
  <path class="cls-7" d="M40.94,36.01c.4-.12,3.67-.12,4.07,0,.86.25,1.07,1.84.03,2.03-.49.09-3.69.09-4.11-.03-.93-.27-.93-1.73,0-2Z"/>
  <path class="cls-6" d="M67.24,28.04s.3-.2.64-.2c1.36,0,2.72.02,4.08.01v8.31c-1.09-.96-3.16-.98-4.53-.94-.02-1.67.02-3.34,0-5.01,0-.32.12-.84-.19-1.04v-1.13Z"/>
  <path class="cls-14" d="M75.18,84.51c-1.19-.01-2.39,0-3.59,0-.81.37-1.64.37-2.45,0-.66,0-1.43-.19-1.89-.19-.17.01-.3-.05-.39-.19l-.09-2.84c.16-2.42-1.85-2.65-1.51-.06l.31,3.02-.4.25c-.13,0-.25,0-.38,0-1.56.52-3.16.51-4.72,0l-.61-.26c-.79-1.12-1.64-2.2-2.55-3.22l-.06-.67c-2.63-3.29-5.13-6.73-7.74-10.01,1.5.01,2.88.09,4.34-.28,1.46-.36,2.58-1.29,3.91-1.75,5.25-1.85,11.38,2.23,14.22,6.47,2.11,3.15,2.73,6.14,3.58,9.73Z"/>
  <path class="cls-3" d="M50.44,84.7c.17-.11.32-.07.47.03l5.89,9.09c.33-.73.54-1.5.61-2.29l-3.23-6.09.23-.37c-.33-.18-.65-.56-.32-.82.39-.31,4.42-.18,5.3-.12l.68.38c1.57,0,3.15,0,4.72,0l-3.8,11.49-12.25.03c-.03-2.34-.1-4.67-.19-6.99,0,.09-.02.17-.06.24-.09.16-3.22.16-3.62.12l-.28-.36.19-.45c.54-.27,3.37-.28,3.78.26-.62-.28-.59-2.6,0-2.93-.59-.32.36-1.73.94-1.42.09-.67.98-.42.94.19Z"/>
  <path class="cls-8" d="M44.58,89.04c.6-.04,3.62-.12,3.97,0,.24,2.31.13,4.68,0,6.99-.01.31.01.63,0,.95h-5.48c-1.23.97-3.16-1.65-2.08-2.64-.87-.74-.19-3.1.43-4,.6-.88,2.25-2.08,3.16-1.28Z"/>
  <path class="cls-3" d="M71.59,84.51l3.78,11.52h-2.74l-3.49-11.52c.82,0,1.64,0,2.45,0Z"/>
  <path class="cls-12" d="M40.99,94.33c.11,1.73.37,2.28,2.08,2.64,1.77.37,3.65.12,5.48.19v1.51s-10.39,0-10.39,0v-4.34c.18-.63,2.54-.58,2.83,0Z"/>
  <polygon class="cls-3" points="69.32 96.03 64.03 96.03 65.92 89.79 69.32 96.03"/>
  <path class="cls-2" d="M67.24,84.32c-.47,0-1.37.19-2.08.19.27-1.6-1.59-6.32,1.43-5.3.72.51.58,4.12.65,5.11Z"/>
  <path class="cls-9" d="M48.74,96.03h-.19c.11-2.32-.08-4.67,0-6.99.28.09.17.25.2.46.25,1.99-.2,4.48,0,6.53Z"/>
  <path class="cls-14" d="M46.47,80.35c1.39.88,2.56,2.58,3.02,4.15-.13.05-.94,1.21-.94,1.42v2.93c-1.27.11-2.76-.24-3.97.19-3,.22-3.76,2.59-3.59,5.29h-2.83c-1.48,0-2.96.02-4.44,0-.32,0-.84.12-1.04-.19.25-2.93.98-8.19.76-10.87-.09-1.13-1.08-1.76-1.85-.98-.61.61-.77,10.44-1.18,12.04-3.27.23-5.25-1.48-5.1-4.81.32-6.86,2.21-14.22,7.76-18.68l4.14-2.57c3,4.08,6.22,8.03,9.25,12.09Z"/>
  <path class="cls-15" d="M56.86,80.35c1.09,1.36,2.32,2.64,3.21,4.15-1.81,0-3.78-.11-5.57,0-.56.03-.24.32-.09.57-.37.51-.61.2-.9-.22l-2.72.07-.35-.22c-.15,0-.61-.31-.94-.19-1.04-1.36-2-2.79-3.02-4.15h10.39Z"/>
  <path class="cls-11" d="M48.93,34.27v-1.89c.96-.36,2.2-1.67,3.21-1.22,2.21,1-2.05,3.52-3.21,3.11Z"/>
  <path class="cls-15" d="M50.44,84.7s.22-.19.46-.19c.6-.02,2.37-.11,2.81,0,.19.05.27.65.7.57l3.36,6.37c.12.64-.43,1.98-.67,2.65-.09.24.08.5-.33.42l-6.33-9.82Z"/>
</svg>