<?xml version="1.0" encoding="UTF-8"?>
<svg id="Layer_5" data-name="Layer 5" xmlns="http://www.w3.org/2000/svg" viewBox="0 0 100.28 100.28">
  <defs>
    <style>
      .cls-1 {
        fill: #f8e38b;
      }

      .cls-2 {
        fill: #3b9cae;
      }

      .cls-3 {
        fill: #77d4d7;
      }

      .cls-4 {
        fill: #cd3521;
      }

      .cls-5 {
        fill: #e78080;
      }

      .cls-6 {
        fill: #b6b6b6;
      }

      .cls-7 {
        fill: #e4e4e4;
      }

      .cls-8 {
        fill: #f9a5a5;
      }

      .cls-9 {
        fill: #f6cd23;
      }

      .cls-10 {
        fill: #066990;
      }
    </style>
  </defs>
  <path class="cls-3" d="M21.24,63.36l.42.14v22.66l-.42.25.2-.42h52.72l.26.42c-.51-1.67-.52-3.32,0-4.98-.61-5.72-.64-11.52,0-17.24,2.51.55,4.96,1.07,7.43,1.81,4.84,1.45,9.49,3.41,14.17,5.25v28.46h-2.08c-15.6-.97-31.37-2.22-47.3-3.74-18.52-1.96-34.44-10.57-46.44-24.69-.14-.17-.24-.37-.33-.59s-.16-.45-.22-.68c.09-.32.36-.39.62-.52,2.34-1.21,6.58-2.48,9.19-3.28,3.87-1.19,7.81-2.12,11.8-2.85Z"/>
  <path class="cls-2" d="M93.94,99.7H-.36s0-29.7,0-29.7c3.74,4.33,7.71,8.44,12.27,11.93,10.08,7.68,22.17,12.21,34.77,13.62,15.02,1.68,30.22,2.37,45.28,3.74.57.05,1.46.18,1.97.41Z"/>
  <path class="cls-5" d="M29.55,62.11l.43.58c.13,3.08.84,6.2,2.53,8.82l.36,1.2c.42.43.55.99.39,1.7.45-.12.82-.04,1.07.38l.76.29c3.27,3.49,7.71,5.5,12.45,5.95h26.62s.25.41.25.41c0,1.66,0,3.33,0,4.98H21.24v-23.06c2.76-.51,5.52-.95,8.31-1.25Z"/>
  <path class="cls-8" d="M74.41,64.19c-.02,5.74.02,11.5,0,17.24h-26.91c-5.06-.48-9.93-2.71-13.18-6.65l.22-.41,4.42.07c2.01.06,3.5-.21,5.12-1.32l.74-.27c3.25-.09,6.41-.18,9.48-.27l9.4-9.37c.05-.48.23-.78.52-.89,3.43.42,6.81,1.14,10.18,1.87Z"/>
  <path class="cls-10" d="M74.2,13.09c.34.47-.23.64-.69.64-17.14-.14-34.24-.15-51.38,0-.46,0-.82-.11-.69-.64,5.92-5.83,13.98-9.34,22.32-9.77,5.27-.27,11.21-.07,16.27,1.41,5.34,1.56,10.19,4.51,14.17,8.36Z"/>
  <path class="cls-7" d="M81.06,35.32c.72.67-.11,1.77-.62,2.4-5.59,5.91-11.36,11.71-17.32,17.39-.22,5.14-3.98,9.87-8,12.81-3.64,2.66-7.63,2.68-11.95,2.51l-.54-.43c.1-.24.21-.49.34-.71s.26-.44.43-.62c2.03-2.16,4.11-4.32,6.2-6.42.17-.17.39-.3.62-.43s.47-.23.72-.33c8.76-8.72,17.57-17.39,26.27-26.17,1.36-.9,2.51-.82,3.84,0Z"/>
  <path class="cls-2" d="M74.2,13.09c.33,0,1.58.18,1.93.25,1.91.39,1.81,3.2,1.6,4.73l-.57-.04c-.39-.49-.83-1.02-1.49-1.01H19.9c-.58.11-1.06.44-1.42,1.01l-.57.04c-.21-1.53-.31-4.34,1.6-4.73.35-.07,1.6-.25,1.93-.25.04,0,.32.23.7.22,16.94-.3,34.41-.3,51.35,0,.38,0,.67-.22.7-.22Z"/>
  <path class="cls-3" d="M77.74,18.08c-.18,1.31-1.14,1.29-1.66,1.87l-.64.42h-15.42l-.55-.42h-3.32l-.47.38c-5.2.04-10.4.05-15.6.03l-.55-.42h-3.32c-5.54.41-11.08.41-16.62,0-.51-.57-1.48-.55-1.66-1.87.6-.7,1.12-1.54,2.17-1.46h55.48c1.05-.07,1.58.77,2.17,1.46Z"/>
  <path class="cls-6" d="M64.23,62.32c-.03.39.11.81-.2,1.15l-9.57,9.54c-3.45.19-6.93.12-10.38.11-1.16.35-4.19.82-4.9.18-.46-.42.9-1.94,1.58-1.84-.38-.64,1.29-1.72,1.87-1.45,4.58.07,8.69.41,12.46-2.59s7.41-7.28,7.67-12.48c5.11-5.57,11.34-10.65,16.32-16.29.85-.96,1.92-1.99,1.97-3.33,1.72,1.06,2.16,3,1.13,4.76-5.67,6.2-11.86,11.97-17.76,17.97-.44.77-.12,3.19-.2,4.27Z"/>
  <path class="cls-8" d="M50.94,61.49c-2.8,2.79-5.46,5.79-8.31,8.52-.38.36-1.34.94-1.87,1.45l-.9.42h-6.46c-.07.39-.24.67-.53.83-2.34-2.87-3.28-6.94-3.32-10.59,7.11-.75,14.25-.66,21.39-.62Z"/>
  <path class="cls-1" d="M36.19,19.95c-2.9,5.3-10.11,6.51-14.65,2.5-.93-.82-1.28-1.72-1.97-2.5h16.62Z"/>
  <path class="cls-1" d="M56.13,19.95c-3.53,6.48-13.09,6.48-16.62,0h16.62Z"/>
  <path class="cls-1" d="M76.07,19.95c-.38.42-.65,1.12-1.04,1.55-4.55,4.99-12.2,4.3-15.57-1.55h16.62Z"/>
  <path class="cls-9" d="M87.92,37.6l-8.09-11.56c-.03-.21,2.21-1.88,2.41-1.91.7-.11,7.23,10.13,8.35,11.33.08.48-2.22,1.78-2.67,2.14Z"/>
  <path class="cls-9" d="M13.27,24.13c.31-.06,2.6,1.56,2.54,1.9-1.11,1.2-7.65,11.44-8.35,11.33-.24-.04-2.45-1.66-2.41-1.91,1.14-1.21,7.53-11.19,8.22-11.32Z"/>
  <path class="cls-9" d="M61.12,29.5l3.32,13.29-3.32.83-3.29-13.2c.06-.34,2.78-.82,3.28-.93Z"/>
  <rect class="cls-9" x="26.02" y="34.85" width="13.7" height="3.43" transform="translate(-10.58 59.57) rotate(-75.95)"/>
  <path class="cls-4" d="M40.76,71.46c-.48.47-1,1.14-1.45,1.66,1.59,0,3.19,0,4.78,0-.26.38-.67.89-1.05,1.13-1.31.85-6.85.58-8.71.53-.48-.01-.97.01-1.46,0,.02-.69-.02-1.39,0-2.08.01-.41-.01-.83,0-1.25h7.89Z"/>
  <rect class="cls-4" x="26.22" y="71.46" width="3.32" height="3.32"/>
</svg>