<?xml version="1.0" encoding="UTF-8"?>
<svg id="Layer_5" data-name="Layer 5" xmlns="http://www.w3.org/2000/svg" viewBox="0 0 100.28 100.28">
  <defs>
    <style>
      .cls-1 {
        fill: #c5c5ee;
      }

      .cls-2 {
        fill: #6b6d8f;
      }

      .cls-3 {
        fill: #757793;
      }

      .cls-4 {
        fill: #fec9d3;
      }

      .cls-5 {
        fill: #666689;
      }

      .cls-6 {
        fill: #f8d09e;
      }

      .cls-7 {
        fill: #767793;
      }

      .cls-8 {
        fill: #ee92a3;
      }

      .cls-9 {
        fill: #3d4165;
      }

      .cls-10 {
        fill: #a1aefd;
      }

      .cls-11 {
        fill: #fdfdfe;
      }

      .cls-12 {
        fill: #ee91a3;
      }

      .cls-13 {
        fill: #f8d19f;
      }

      .cls-14 {
        fill: #668;
      }

      .cls-15 {
        fill: #f64f86;
      }
    </style>
  </defs>
  <path class="cls-9" d="M.86,89.38c9.83-.14,19.77-.17,29.82-.1l.49-.29h63.63c.45.38.22,7.49.11,8.6H.86v-8.21Z"/>
  <path class="cls-10" d="M41.73,72.57l.44.21.49,3.56c.63,3.07,1.13,4.57,4.52,4.88,1.94.18,4.13.16,6.09.1,3.63-.11,5.54-.21,6.29-4.31l.7-3.89.45-.17c2,.23,4.09.42,6.06.78.23-.06.47-.11.7-.13s.46-.04.68,0c4.27.8,8.93,2.17,12.96,3.78.21.08.39.22.58.36s.36.31.52.49c3.26,1.3,9.65,3.83,11.54,6.74s1.4,8.16,1.37,11.54c0,.33.12.87-.2,1.07v-8.21s-94.05,0-94.05,0l.2-.57c5.58-.08,11.51-.06,17.26-.02.55,0,1.09.07,1.64.13s1.09.16,1.64.26c3.05-.51,6.14-.49,9.21-.25-.32-3.43-.36-6.99-.11-10.43l.28-.66c.11-2.99.15-3.82,3.28-4.44,2.3-.45,5.11-.68,7.47-.84Z"/>
  <path class="cls-15" d="M21,3.35v9.58h9.48s.29.27.29.29v10.17s-.27.29-.29.29h-9.48v9.58h-10.56v-9.58H.86v-10.75h9.58V3.35h10.56Z"/>
  <path class="cls-1" d="M90.22,30.73c.26.09.81.25.98.32,2.84,1.11,4.3,3.57,3.89,6.61-3.74,11.91-7.53,23.81-11.32,35.7-3.45-1.36-7.13-2.63-11.04-3.82,2.16-7.34,4.42-14.66,6.74-21.95.16-.52.39-1.01.62-1.51s.48-.99.75-1.47c.1-.24.01-.43-.22-.59.89-3.3,1.95-6.53,3.19-9.71l.56-.26c-.42-.88.95-2.04,1.68-2.54.7-.47,2.18-1.28,2.81-.59.44-.14.9-.2,1.37-.2Z"/>
  <path class="cls-1" d="M62.06,27.01l.22.53c-1.44,3.08-3.02,6.09-4.75,9.04l-.55.21c-1.19,2.29-3.84,8.39-5.68,9.67-1.31.91-2.95,1.11-4.48.7-.33.58-1.92-.13-1.76-.78-1.68-1.24-2.57-4.21-1.77-6.17l13.2-25.9c.97-1.18,2.37-.8,3.2.33,2.51,3.45,3.9,8.24,2.38,12.38Z"/>
  <path class="cls-4" d="M.86,97.6l.19-29.83c.51-.36,1.61,1.15,1.96,1.58,1.02,1.24,1.79,2.65,2.65,4,.55-.33,1.76-2.62,2.33-2.53.62.1,1.02,2.68,1.11,3.3l11.88,1.22c.1,1.91-.03,3.84.02,5.76,0,.25.2.45.2.47l.27.6c.14,2.11.18,4.19.12,6.24.57,0,.55.65,0,.78-6.55.02-13.11-.08-19.65,0-.33,0-.87-.13-1.07.2v8.21Z"/>
  <path class="cls-9" d="M76.53,43.04c.57-.33,4.25.63,4.34.83l-.04.73c-2.67,8.25-5.1,16.59-7.82,24.83,3,.75,6.02,1.63,8.9,2.74.59.22,1.78.46,1.85,1.18-.52,1.63-1.05,3.26-1.56,4.89-4.93-1.96-10.22-3.55-15.45-4.5l9.78-30.7Z"/>
  <path class="cls-14" d="M65.78,28.18c4.73,1.52,9.5,3.06,14.24,4.47.05-.14.15-.25.22-.37,1.22.58,2.53.97,3.86,1.28l.25.48c-1.34,2.73-2.52,7.49-3.52,10.56.11-.52-.26-.38-.58-.49-1.22-.41-2.5-.69-3.72-1.08-3.13-.99-6.25-2.13-9.39-3.13-.52-.26-.59-.52-.2-.78.14-.3.14-.63,0-.98-.56-.02-.67-.27-.2-.59.14-.3.14-.63,0-.98-.7-.42-.92-1.72-.39-2.35.14-.3.14-.63,0-.98-.57.03-.64-.22-.2-.59.14-.3.14-.63,0-.98-.56-.02-.67-.27-.2-.59.14-.3.14-.63,0-.98-.69-.1-.9-1.75-.2-1.96Z"/>
  <path class="cls-9" d="M60.69,72.96c-.81,3.04-.44,8.14-4.59,8.6-2.24.25-7.31.21-9.59,0-4.5-.4-4.14-5.65-4.78-9,6.27-.43,12.72-.31,18.97.39Z"/>
  <path class="cls-9" d="M65.78,28.18c-.08.7.05,1.29.2,1.96.14.35.14.68,0,.98.03.15.15.38.2.59.14.35.14.68,0,.98.04.25.15.41.2.59.15.36.15.68,0,.98.09.76.23,1.6.39,2.35.14.35.14.68,0,.98.03.15.15.38.2.59.15.36.15.68,0,.98.03.26.15.52.2.78-3.37-1.07-6.78-2.08-10.17-3.13,1.43-2.74,4.1-7.1,5.08-9.78,1.24.38,2.48.78,3.72,1.17Z"/>
  <path class="cls-4" d="M30.97,77.85c-.14,3.77.1,7.57,0,11.34-3.13,0-6.26,0-9.39,0v-.78c-.07-.2-.14-.43-.07-.64.22-.66,2.56-5.71,2.8-5.96l.59-.25c.15-.26,1.99-1.76,2.36-2.04,1.07-.77,2.35-1.59,3.7-1.68Z"/>
  <path class="cls-9" d="M89.44,30.53c.23.18.03.31-.59.39-2.01.2-3.62,1.34-4.5,3.13-1.1-.33-2.5-.59-3.52-1.07-.34-.16-.6-.24-.58-.69,2.62-4.11,5.1-3.05,9.19-1.76Z"/>
  <path class="cls-6" d="M46.81,47.15l-4.34,8.47c-.63,1.32-2.39.63-1.94-.75,1.64-2.76,2.71-5.86,4.51-8.51.27.2,1.4.69,1.76.78Z"/>
  <path class="cls-12" d="M24.91,81.56c-1.15,1.97-2.05,4.82-3.32,6.84-.1.16-.18.43-.39.39-.05-2.41.06-4.83,0-7.23h3.72Z"/>
  <path class="cls-13" d="M38.45,58.54c.99-.99,2.92.56,1.62,1.72-1.32,1.18-2.49-.84-1.62-1.72Z"/>
  <path class="cls-2" d="M90.22,30.73c-.28.37-.94.15-1.37.2l.59-.39c.28.09.58.13.78.2Z"/>
  <path class="cls-5" d="M88.6,36.83c1.54-.46,2.22,1.47,1.03,2.01-1.65.74-2.44-1.59-1.03-2.01Z"/>
  <path class="cls-11" d="M56.73,21.77c1.75-.37,1.96,2.22.33,2.31-1.11.06-1.86-1.99-.33-2.31Z"/>
  <path class="cls-11" d="M54.38,25.87c1.98-.54,1.84,3.19-.29,2.17-1.03-.49-.51-1.96.29-2.17Z"/>
  <path class="cls-8" d="M9.99,78.27c1.78-.54,2.02,3,.48,3.19-1.66.2-1.5-2.88-.48-3.19Z"/>
  <path class="cls-7" d="M65.97,31.12c-.05-.29.04-.67,0-.98.04.2.51.69,0,.98Z"/>
  <path class="cls-7" d="M66.17,32.68c-.05-.29.03-.67,0-.98.05.21.51.69,0,.98Z"/>
  <path class="cls-3" d="M66.36,34.25c-.04-.32.03-.66,0-.98.05.2.51.69,0,.98Z"/>
  <path class="cls-7" d="M66.76,37.57c-.05-.29.04-.67,0-.98.04.2.51.69,0,.98Z"/>
  <path class="cls-7" d="M66.95,39.13c-.03-.32.02-.66,0-.98.05.21.51.69,0,.98Z"/>
</svg>