<?xml version="1.0" encoding="UTF-8"?>
<svg id="Layer_5" data-name="Layer 5" xmlns="http://www.w3.org/2000/svg" viewBox="0 0 100 100">
  <defs>
    <style>
      .cls-1 {
        fill: #a9cbf9;
      }

      .cls-2 {
        fill: #c7e0fe;
      }

      .cls-3 {
        fill: #606060;
      }

      .cls-4 {
        fill: #50ccc7;
      }

      .cls-5 {
        fill: #bdc2d1;
      }

      .cls-6 {
        fill: #64e0db;
      }

      .cls-7 {
        fill: #fefefe;
      }
    </style>
  </defs>
  <path class="cls-5" d="M72.69,42.54c-5.71,8.51-18.64,2.35-23.93-3.64-4.8-5.43-8.85-17.09-1.12-21.78,1.19-1.13,2.35-1.58,3.93-1.86,10.87-1.93,24.25,11.32,23.3,22.12-.18,2.03-.71,3.69-2.18,5.16Z"/>
  <path class="cls-6" d="M22.4,60.3l1.14-1.01,1.19-.3h52.36s1.26.24,1.26.24l1.26,1.08.28.38c-.14,1.33-.16,2.66-.07,4.01l-.39.29c-3.99,0-7.98,0-11.96,0-10.97.37-21.94.37-32.9,0-3.99,0-7.98,0-11.96,0l-.39-.3c.08-1.34.06-2.67-.08-3.99l.28-.38Z"/>
  <path class="cls-2" d="M43.53,87.41c4.98-.48,9.97-.48,14.96,0,3.84.01,8.73-.37,12.43,0,4.2.43,4.82,6.09.67,7.39-.64.2-1.09-.23-1.32.64l-.35-.34c.16-3.77-5.26-3.73-5.1,0l-.35.34-.46-.58h-26.01l-.46.58-.35-.33c.12-3.54-4.78-3.89-5.23-.39l-.41.15c-5,.08-5.41-7.04-.29-7.48,3.75-.32,8.39.02,12.25,0Z"/>
  <path class="cls-2" d="M67.46,64.97v8.97c-2.99,0-5.99,0-8.97,0-4.98.47-9.97.47-14.96,0-2.99,0-5.99,0-8.97,0v-8.97c10.97,0,21.94,0,32.9,0Z"/>
  <path class="cls-2" d="M70.26,16.18l.62.04c1.26,1.11,2.42,2.34,3.48,3.64v.62c2.46,3.17,5.43,8.54,5.06,12.62-.38,4.22-3.98,6.7-6.73,9.44,8.11-12.09-12.32-33.15-25.05-25.43,2.73-2.72,5.06-6.22,9.25-6.55,4.47-.36,10.01,2.83,13.37,5.62Z"/>
  <path class="cls-2" d="M12.12,49.64c-2.49,0-4.99,0-7.48,0v-14.96h17.95v14.96c-2.49,0-4.99,0-7.48,0-.99.37-2,.37-2.99,0Z"/>
  <path class="cls-1" d="M58.48,73.95v13.46c-4.98-.02-9.97-.02-14.96,0v-13.46c4.98.01,9.97.01,14.96,0Z"/>
  <path class="cls-1" d="M70.26,16.18l10.94-11.03h16.17v5.98h-13.74l-9.25,9.35c-1.14-1.47-2.68-3.11-4.11-4.3Z"/>
  <path class="cls-4" d="M79.61,60.3c.18-.53.86-1.31,1.4-1.31h16.36v5.98c-5.98,0-11.97,0-17.95,0,.14-1.45-.27-3.31.19-4.67Z"/>
  <path class="cls-4" d="M12.12,58.99c1.01-.47,1.98-.47,2.99,0,1.68.01,4.31-.23,5.84.04.73.13,1.22.56,1.45,1.26.44,1.37.06,3.23.19,4.67-5.98,0-11.97,0-17.95,0v-5.98c2.49,0,4.99,0,7.48,0Z"/>
  <path class="cls-1" d="M15.11,49.64v9.35c-.99,0-2,0-2.99,0v-9.35c.99,0,2,0,2.99,0Z"/>
  <path class="cls-3" d="M31.56,94.89c0-.12.26-1.09.33-1.26,1.26-2.92,6.11-2.03,5.65,1.82-.42,3.48-5.98,3-5.98-.56Z"/>
  <path class="cls-3" d="M70.26,95.45c-.35,3.17-5.41,3.18-5.8,0-.56-4.65,6.32-4.76,5.8,0Z"/>
  <path class="cls-7" d="M60.67,24.44c2.88-.65,6.69,4.03,4.53,6.03-2.27,2.1-7.46-2.58-5.6-5.22.21-.3.71-.72,1.07-.8Z"/>
  <path class="cls-7" d="M53.57,31.55c2.88-.65,6.69,4.03,4.53,6.03-2.27,2.1-7.46-2.58-5.6-5.22.21-.3.71-.72,1.07-.8Z"/>
  <path class="cls-7" d="M63.68,34.16c3.11-.42,6.51,4.92,3.85,6.3-3.59,1.85-8.16-5.71-3.85-6.3Z"/>
  <path class="cls-7" d="M50.96,21.45c1.55-.17,3.64,1.36,4.31,2.71.94,1.88.6,4.02-1.93,3.8-3.5-.31-5.8-6.13-2.38-6.51Z"/>
  <path class="cls-7" d="M9.45,38.28l8.18-.03c1.54.66,1.4,2.7-.38,2.97-1.21.19-6.05.19-7.27,0-1.69-.26-1.93-2.09-.53-2.94Z"/>
  <path class="cls-7" d="M9.83,43.14c.97-.19,6.61-.19,7.58,0,1.64.33,1.69,2.38.23,2.94h-8.03c-1.48-.6-1.41-2.61.23-2.94Z"/>
</svg>