<?xml version="1.0" encoding="UTF-8"?>
<svg id="Layer_5" data-name="Layer 5" xmlns="http://www.w3.org/2000/svg" viewBox="0 0 100.28 100.28">
  <defs>
    <style>
      .cls-1 {
        fill: #01cffa;
      }

      .cls-2 {
        fill: #8db9c4;
      }

      .cls-3 {
        fill: #fc4755;
      }

      .cls-4 {
        fill: #7ca0b0;
      }

      .cls-5 {
        fill: #fc8086;
      }

      .cls-6 {
        fill: #fc7f86;
      }

      .cls-7 {
        fill: #fd989f;
      }
    </style>
  </defs>
  <path class="cls-4" d="M4.9,3.43l17.1,17.18c.58,1.01.19,1.43-.38,2.17.52.41-1.49,2.26-1.74,2.33l-.52-.08c-1.01.71-1.29.76-2.35,0L.58,8.41c-1.22-1.83,2.14-3.73,3.19-4.98h1.13Z"/>
  <path class="cls-7" d="M79.67,23.72l.19.32c.07,10.97-.08,21.25-6.68,30.62-9.42,13.39-21.06,16.49-36.63,16.78-7.94-.16-15.68-.22-23.2-.19-2.58-5.39-1.83-11.24,1.88-15.87.4-.5,1.57-1.29,1.51-1.88-.04-.42-1.33-1.13-1.7-1.51-3.88-3.93-2.66-10.78,2.37-13.03,2.33-1.04,4.03-.79,6.46-.4.02-2.59,1.01-4.85,2.07-7.14l.54.19c3.84,3.84,7.71,7.65,11.62,11.44,1.25,1.8,9.06,4.97,10.62,4.24,3.29-1.54-3.57-3.23-4.61-3.22-1.46-.3-2.66-.93-3.77-1.91-4.32-3.79-8.32-8.12-12.22-12.35-.09-.1-.14-.23-.2-.38s-.08-.3-.1-.46c3.11-3.01,7.09-4.66,11.46-4.6.5-.89.68-1.82,1.23-2.71,2.57-4.13,8.27-5,12-1.89.49.4,1.53,1.84,1.89,1.88.41.04,2.38-1.05,3.05-1.27,4.22-1.35,9.09-.66,12.76,1.78.47.31,2.11,1.86,2.25,1.9.2.05,2.24-.84,2.97-.91,1.62-.16,2.74-.01,4.23.56Z"/>
  <path class="cls-6" d="M79.67,23.72c3.48,1.35,5.41,4.61,5.07,8.36-.07.72-.48,1.4-.36,2.15,5.01.13,8.93,3.96,8.41,9.1-.18,1.76-1.01,3.02-1.83,4.5,12.41,12.56-2.33,32.02-17.76,23.43-.24.05-1.03,2.06-1.28,2.49-3.29,5.66-10.77,7.52-16.31,3.89l-.45.14c-.82-.64-1.64-1.29-2.2-2.18-1.63,1.67-3.53,2.67-5.58,3.64l-.41-.09c-3.77,1.12-8.15.08-10.97-2.69-5.23,4.5-12.92,4.38-18.5.6l-.05,3.72-.35.62c-.63-1.39.21-4.25-.22-5.51-.04-.13-1.54-1.53-1.84-1.91-.7-.88-1.21-1.7-1.7-2.72-.1-.57.29-.36.65-.38,21.23-.71,42.32,4.7,57.29-14.3,8.23-10.44,8.03-19.16,8.19-31.83,0-.32-.12-.84.19-1.03Z"/>
  <path class="cls-3" d="M46.98,79.14c.44.19.13,1.09-.03,1.49-2.22,5.5-6.61,7.71-12.37,7.89l-.57-.36c-5.55.14-16.38.84-16.91-6.76-.12-1.71.09-3.54,0-5.26,5.53,4.54,13.32,4.44,18.88,0,1.37,1,2.77,2.02,4.41,2.54,2.02.65,3.58.58,5.64.37.28-.03.74-.28.94.1Z"/>
  <path class="cls-1" d="M55.62,77.64c-1.2,2.79-2.02,6.4-3.87,8.81-2.82,3.68-7,3.7-8.29,9.18-.4,1.7.24,3.79-2.02,3.99-1.01.09-6.56.12-7.19-.15-.52-.22-.74-.73-.8-1.26-.17-1.45-.08-4.13,0-5.65.08-1.43.39-2.98.57-4.41,5.46-.13,9.96-1.76,12.37-7.07.29-.64.38-1.47.59-1.95.2-.44,2.02-1.06,2.63-1.41,1.31-.74,2.13-1.64,3.28-2.55.46,0,.69.75,1.03,1.05.4.36,1.3,1.14,1.7,1.4Z"/>
  <path class="cls-2" d="M27.82,28.98c4.04,4.04,8.76,9.65,13.06,13.15.55.45,1.06.81,1.73,1.09,1.77.75,4.99,1.03,6.42,1.84,1.49.84.9,2.91-1.16,2.66-2.78-.34-7.15-1.87-9.26-3.7-4.2-3.65-8.66-8.58-12.68-12.59-1.95-1.95-3.79-4.05-5.82-5.92-.23-.21-.39-.47-.75-.47.72-.51,1.71-1.55,2.25-2.25l6.2,6.2Z"/>
  <path class="cls-5" d="M64.32,33.43c-.67-.73-.39-2.19.6-2.38,2.64-.49,6.06,1.42,7.5,3.58.84,1.27,2.76,6.19.17,6.32-1.95.1-1.49-2.44-2.09-3.83-.75-1.73-2.33-2.77-4.12-3.21-.68-.17-1.47.17-2.06-.48Z"/>
  <path class="cls-5" d="M47.1,60.6c.95-.05,1.65,1.01,2.46,1.4,1.38.65,3.31.62,4.65-.13.81-.45,2.34-2.24,3.26-.64,1.33,2.29-3.3,4.03-4.98,4.18-1.83.17-5.5-.82-6.47-2.5-.52-.9-.04-2.25,1.07-2.3Z"/>
</svg>