<?xml version="1.0" encoding="UTF-8"?>
<svg id="Layer_5" data-name="Layer 5" xmlns="http://www.w3.org/2000/svg" viewBox="0 0 100.28 100.28">
  <defs>
    <style>
      .cls-1 {
        fill: #fee0d6;
      }

      .cls-2 {
        fill: #e5e5e5;
      }

      .cls-3 {
        fill: #fe6666;
      }

      .cls-4 {
        fill: #fe9898;
      }

      .cls-5 {
        fill: #66cbcb;
      }
    </style>
  </defs>
  <path class="cls-4" d="M86.08,54.35l-.48.02c-.54-1.07-1.33-1.82-2.31-2.5l.02-.49c2.22-2.2,7.49-4.07,7.87-7.55.59-5.47-6.38-6.37-10.39-5.5-7.2,1.57-10.54,9.79-17.45,12.01,1.51,6.89-1.5,12.99-4.67,18.84-1.45,2.68-3.46,5.21-4.29,8.15l-.15.59c-2.12,1.22-4.07,2.64-5.86,4.29h-.59c.32.64-.36,1.12-.85.65l-.41-.23.42-5.2c-.89-6.89,1.71-12.19,4.8-17.9,1.95-3.77-1.3-7.17-4.41-3.75-.79,2.12-1.57,2.37-2.49.15-7.65-4.95-3.33,6.68-.94,9.47,2.72,5.43,2.32,12.48,1.55,18.3-.84,1.33-2.27,2.31-3.83,2.55-3.2-3.03-2.84-7.69-3.72-11.7-1.82-8.33-9.16-15.49-6.92-24.45-7.15-2.95-10.83-12.3-19.47-12.14-2.32.04-6.57,1.16-7.52,3.54-1.82,4.54,5.07,7.65,7.85,9.87.57.32.19.69-.25,1.01l-1.24.79c-.61,1.33-1.11,1.72-1.49,1.17C3.16,51.93-3.97,46.38.05,39.48s15.83-7.36,21.45-1.91c2.58,2.5,5.83,8.07,9.64,8.86,2.14.45,2.99-1.43,4.74-2.4,4.79-2.67,12.72-3.39,17.96-2,3.34.89,5.86,2.67,8.48,4.83,6.56-1.2,8.99-8.69,14.34-11.61,4.91-2.68,11.92-1.63,16.22,1.79,8.1,6.44,0,14.6-6.79,17.32Z"/>
  <path class="cls-5" d="M50.34,86.47h-.54c-.72-1.24-1.43-2.49-2.14-3.74l.13-.51c1.51-1.74,4.53-3.61,6.59-4.89,3.93-2.43,9.39-5.87,13.47-7.91,1.82-.91,4.32-1.83,5.64.39s-1.09,3.96-2.67,5.14c-4.08,3.06-9.11,5.76-13.41,8.71-1.29.89-4.26,3.66-5.7,3.64-.37,0-1.14-.56-1.38-.83Z"/>
  <path class="cls-1" d="M83.32,51.37c.23.1,1.59,1.22,1.81,1.48.14.17.93,1.41.95,1.49,1,4.17-5.34,9.18-8.92,9.9-3.88.78-8.53-1.79-8.07-6.16.65-6.2,9.11-8.87,14.23-6.72Z"/>
  <path class="cls-1" d="M8.86,54.35s.28.04.35-.06c.3-.45.46-1,.84-1.4.52-.55,1.66-.76,1.79-1.51.68.28,2.89-.56,3.94-.63,5.78-.43,12.48,4.19,9.65,10.5-3.11,6.94-14.3.94-16.02-4.34-.12-.35-.61-2.44-.54-2.55Z"/>
  <path class="cls-2" d="M50.34,86.47c-.96.41-2.14.63-3.06,1.09-2.37,1.17-2.9,3.92-4.95,5.47-3.12,2.34-8.74,4.39-12.58,3.29-.58-.17-2.19-.7-1.64-1.34,4.41-3.06,9-5.82,13.51-8.72,1.3-.83,2.55-1.7,3.83-2.55-.25-.62,1.03-1.25,1.49-.85.35-.26.47-.2.85-.64,1.02,1.13,1.57,3.17,2.55,4.25Z"/>
  <path class="cls-3" d="M46.94,82.86c-.49.36-1.08.58-1.49.85-.36-.22-.23-.79-.19-1.14.42-3.95.48-10.16-.51-14-1.06-4.08-5.56-8.4-4.57-12.78.55-2.43,3.82-1.55,5.06-.04.39.48.59,1.32.65,1.38.38.38.93-1.32,1.1-1.56,1.05-1.5,3.2-2.19,4.72-.96,3.11,2.52-1.63,8.81-2.78,11.41-1.66,3.73-1.66,7.41-1.54,11.43l-.43,5.42Z"/>
  <path class="cls-5" d="M43.64,86.05c.19.17.33.25.33.53,0,.43-2.66,2.15-3.22,2.53-1.48.99-7.59,4.9-8.91,5.14-.25.05-.63.05-.64-.23-.02-.55,2.05-1.77,2.57-2.11,3.17-2.12,6.55-4,9.88-5.86Z"/>
</svg>