<?xml version="1.0" encoding="UTF-8"?>
<svg id="Layer_2" data-name="Layer 2" xmlns="http://www.w3.org/2000/svg" viewBox="0 0 81.46 89.24">
  <defs>
    <style>
      .cls-1 {
        fill: #e73d62;
      }

      .cls-2 {
        fill: #eddde8;
      }

      .cls-3 {
        fill: #ecd8e3;
      }

      .cls-4 {
        fill: #ed8678;
      }

      .cls-5 {
        fill: #ecdae5;
      }

      .cls-6 {
        fill: #eedde7;
      }

      .cls-7 {
        fill: #ebd9e5;
      }

      .cls-8 {
        fill: #e1d8f2;
      }

      .cls-9 {
        fill: #e84165;
      }

      .cls-10 {
        fill: #dddcfe;
      }

      .cls-11 {
        fill: #feae92;
      }

      .cls-12 {
        fill: #e9d9e9;
      }

      .cls-13 {
        fill: #e8d6e7;
      }

      .cls-14 {
        fill: #ed8778;
      }

      .cls-15 {
        fill: #e8d6e8;
      }

      .cls-16 {
        fill: #e84266;
      }

      .cls-17 {
        fill: #e9d8e8;
      }

      .cls-18 {
        fill: #ead9e8;
      }

      .cls-19 {
        fill: #efdee7;
      }

      .cls-20 {
        fill: #ecdae6;
      }

      .cls-21 {
        fill: #ebdae8;
      }

      .cls-22 {
        fill: #ead8e7;
      }

      .cls-23 {
        fill: #c5c5f6;
      }

      .cls-24 {
        fill: #e9d8e7;
      }
    </style>
  </defs>
  <g id="Layer_5" data-name="Layer 5">
    <g>
      <path class="cls-11" d="M54.03,52.28c-.34,5.38-1.4,11.15-1.54,16.49-.06,2.12.21,3,1.94,4.22,5.09,3.6,11.56,6.28,16.77,9.84.86.22,1.8.09,2.69.11,3.62.31,3.48,5.77,0,6.17-10.56.2-21.45.16-32.01,0-4.57-.45-6.72-5.27-5.45-9.41,2.6-8.23,3.82-16.35,2.92-25.14l.21-.54.87-.22c4.32.86,8.71.29,12.7-1.53l.89.02Z"/>
      <path class="cls-11" d="M19.91.02c.17.05.17.12,0,.19v.89c-3.74,8.11-2.42,17.57.04,25.68l-.23.42.13.43c-3.93,0-7.83.06-11.7.14-1.41-.01-3.21.15-4.55.01-.27-.03-.28,0-.46-.2l.22-.39h3.89c-2.52-7.25-3.78-14.86-1.59-22.4.32-1.11,1.13-3.85,1.87-4.49.13-.11.28-.2.43-.29C11.93,0,15.92.03,19.91.02Z"/>
      <path class="cls-23" d="M50.37,1.95l-.49.75c-7.59,5.01-11.73,13.93-14.95,21.89,6.61-3.15,13.68-6.23,21.16-5.91.14,0,.28.07.42.15s.28.18.41.28c-.03.68-.14,1.27-.19,1.93l-.74.32c-7.13-.38-14,2.67-20.22,5.8-.57.29-3.08,1.61-3.28,2.01-.29.6.48,6.33.8,6.29,5.83-2.8,12.22-5.55,18.85-4.68.83.11,2.9.38,3.38.89.1.11.18.23.25.36-.03.71-.15,1.3-.19,1.93l-.74.15c-7-2.11-14.63.47-20.53,4.1,1.94,2.92,3.41,5.99,4.4,9.22,4.73-2.99,10.27-4.36,15.76-5.09l.34.29c0,.73-.16,1.38-.19,1.93-.21.23-.46.41-.75.51-5.05.87-10.66,1.83-14.47,5.32l.53,3.29-.35.32c-.45.28-.96.28-1.52,0-1.15-.26-2.89-.77-3.68-1.54-.82-5.72-1.69-7.15-4.27-12.02-2.21-4.16-2.73-6.6-2.86-11.31.32-.37.31-.89-.02-1.55.4-.29.83-.3.98.2,0-.17.05-.3.19-.39l2.52-.02c2.87-7.18,5.87-14.61,10.8-20.67,1.11-1.36,4.57-5.29,6.02-5.65.17-.04.35-.06.53-.06.73.25,1.46.57,2.12.96Z"/>
      <path class="cls-10" d="M57.12,12.75c.19.89.17,1.81,0,2.7,0,.45,0,.9,0,1.35l-.19,1.54c0,.26.01.52,0,.77-8.2-.61-15.77,2.93-22.94,6.36,3.85-8.61,7.93-18.51,16.39-23.52,3.71,2.2,6.5,6.47,6.75,10.8Z"/>
      <path class="cls-10" d="M44.01.22c.31-.18.81-.15,1.16,0,.88.09,2.22.48,3.08.77-8.76,6.24-13.15,16.94-17.06,26.61-.35.36-2.32.15-2.99.19-.11-.16-.21-.32-.28-.49s-.14-.34-.15-.5c-.31-7.2-.39-14.69,2.06-21.52.37-1.04,1.92-4.5,2.76-4.94.2-.11.41-.15.63-.11,3.6-.18,7.2-.18,10.8,0Z"/>
      <path class="cls-10" d="M56.73,21.04c0,.06,0,.13,0,.19l-.19,1.54c0,.19,0,.39,0,.58l-.19,1.54c0,.26,0,.51,0,.77l-.19,1.35c0,.26,0,.51,0,.77l-.19,1.54c0,.19,0,.39,0,.58l-.19,1.54c0,.19,0,.39,0,.58-7.77-2.74-15.86.53-22.75,4.05-.24-1.42-1.54-6.19-.79-7.24.13-.18.68-.47.92-.62,1.67-1.09,4.13-2.26,5.97-3.1,5.35-2.44,11.67-4.76,17.61-4.08Z"/>
      <path class="cls-10" d="M55.57,33.96c0,.13.01.26,0,.39l-.19,1.54c0,.26,0,.51,0,.77l-.19,1.54c0,.19,0,.39,0,.58l-.19,1.54c0,.26,0,.52,0,.77l-.19,1.54c-.19.17-4.26.7-5.02.87-2.32.5-4.61,1.16-6.81,2.05l-4.56,2.48c-.5-3.79-3-6.6-4.58-9.93.03-.41,4.28-2.4,4.97-2.69,5.19-2.17,11.34-3.51,16.77-1.45Z"/>
      <path class="cls-4" d="M39.57,54.01c.47,5.36.68,10.9-.28,16.2-.62,3.4-2.9,9.35-2.82,12.43.09,3.22,2.49,5.54,5.41,6.46-3.97-.06-8.23.31-9.87-4.3-1.15-3.24,1.37-9.85,2.1-13.4,1.23-6.03,1.12-12.84.25-18.93,1.81.44,3.35,1.14,5.21,1.54Z"/>
      <path class="cls-4" d="M7.95.02c-4.48,8.79-3.63,18.65,0,27.57H3.13c-.33-.37-1.62-4.43-1.83-5.21C-.74,14.94-.57,6.93,3.16.06c1.59-.07,3.2-.02,4.79-.03Z"/>
      <path class="cls-10" d="M54.61,44.56c-.02.32.02.64,0,.96l-.19,1.54c0,.19,0,.39,0,.58l-.19,1.54c0,.26,0,.51,0,.77l-.19,1.35c0,.32.02.65,0,.96-4.79,2.28-9.26,2.88-14.46,1.74-.07-.75-.66-3.25-.55-3.72.17-.75,3.47-2.51,4.27-2.87,3.53-1.57,7.52-2.25,11.31-2.86Z"/>
      <path class="cls-23" d="M33.21.02c.17.05.17.12,0,.19-1.95,1.97-3.09,5.01-3.8,7.67-1.7,6.41-1.53,13.32-1.21,19.9-.26.01-.52-.01-.77,0-.17.16,1.05,1.27-.19,1.35-.01-.45.01-.9,0-1.35-.26,0-.51,0-.77,0-.15-.03-.22-.1-.19-.19-.1-.13-.2-.27-.28-.42s-.14-.28-.15-.42c-.26-6.32-.34-12.95,1.32-19.09.43-1.6,1.95-6.37,3.09-7.2.14-.1.29-.18.45-.25-.09-.09-.02-.16.19-.19h2.31Z"/>
      <path class="cls-14" d="M73.89,89.1c2.98-1.38,3.11-4.89,0-6.17,2.36.05,6.05-.45,5.91,3.15-.13,3.36-3.6,2.97-5.91,3.02Z"/>
      <path class="cls-1" d="M70.42,7.35l7.23-3.29c.74-.07.96.74.36,1.15l-7.88,3.7c-.59-.05-1.72-3.01-2.04-3.66-.36-.25-1.85.89-2.41.95-.8.09-1.19-.48-.66-1.06.24-.26,2.98-1.5,3.36-1.45.86.12,1.67,2.88,2.04,3.67Z"/>
      <path class="cls-1" d="M72.78,12.6c.29-.31.94-.03,1.3.06.78.18,6.87,2.24,7.14,2.5.47.46.22,1.06-.48,1.08-1.58.06-5.17-2.01-6.95-2.3-.78.77-.85,4.08-2.09,4.02-.32-.02-3.2-1.06-3.4-1.25-.5-.46.05-1.09.66-1.06.54.02,2.09.9,2.43.69.52-.32.93-3.24,1.39-3.73Z"/>
      <path class="cls-16" d="M63.53,14.15c.47-.47,3.02.41,2.82,1.17-.3,1.15-3.85-.15-2.82-1.17Z"/>
      <path class="cls-3" d="M19.71,27.21c1.98.06,4.02.05,6.13-.03l.43.42c.09,0,.17.1.19.19-6.1-.12-12.22.05-18.32,0,.2-.32.73-.19,1.06-.2,3.27-.03,6.58.13,9.84,0,.37-.01.77.2.67-.39Z"/>
      <path class="cls-9" d="M62.46,6.41c.7-.1,1,.7.43,1.22-.96.86-3.17.92-2.13-.39.07-.08,1.57-.8,1.7-.82Z"/>
      <path class="cls-8" d="M30.9.02c-.05.07-.15.13-.19.19l-.43.36c-3.38.03-6.76.03-10.14.02l-.23-.39V.02c3.66,0,7.33,0,10.99,0Z"/>
      <path class="cls-8" d="M44.01.02c.17.05.17.12,0,.19-3.58-.16-7.21.12-10.8,0V.02c3.59,0,7.2-.04,10.8,0Z"/>
      <path class="cls-13" d="M57.12,15.45c0-.89.05-1.82,0-2.7.32.65.33,2.01,0,2.7Z"/>
      <path class="cls-12" d="M55.96,29.33c0-.48-.15-1.22.19-1.54,0,.48.15,1.22-.19,1.54Z"/>
      <path class="cls-20" d="M55.77,31.45c0-.48-.15-1.22.19-1.54,0,.48.15,1.22-.19,1.54Z"/>
      <path class="cls-6" d="M56.54,22.78c0-.48-.15-1.22.19-1.54-.03.49.17,1.21-.19,1.54Z"/>
      <path class="cls-24" d="M55.38,35.89c0-.48-.15-1.22.19-1.54-.04.49.18,1.21-.19,1.54Z"/>
      <path class="cls-21" d="M55.19,38.2c0-.48-.15-1.22.19-1.54,0,.48.15,1.22-.19,1.54Z"/>
      <path class="cls-5" d="M55,40.32c0-.48-.15-1.22.19-1.54,0,.48.15,1.22-.19,1.54Z"/>
      <path class="cls-22" d="M54.8,42.64c0-.48-.15-1.22.19-1.54-.02.48.16,1.23-.19,1.54Z"/>
      <path class="cls-24" d="M56.92,18.34c0-.48-.15-1.22.19-1.54,0,.48.15,1.22-.19,1.54Z"/>
      <path class="cls-2" d="M54.42,47.07c0-.48-.15-1.22.19-1.54-.03.49.17,1.21-.19,1.54Z"/>
      <path class="cls-17" d="M54.23,49.19c0-.48-.15-1.22.19-1.54,0,.48.15,1.22-.19,1.54Z"/>
      <path class="cls-7" d="M56.35,24.9c0-.48-.15-1.22.19-1.54,0,.48.15,1.22-.19,1.54Z"/>
      <path class="cls-18" d="M56.15,27.02c0-.42-.14-1.09.19-1.35,0,.42.14,1.09-.19,1.35Z"/>
      <path class="cls-19" d="M54.03,51.31c0-.42-.15-1.08.19-1.35,0,.42.14,1.09-.19,1.35Z"/>
      <path class="cls-15" d="M45.16.22c-.37-.04-.78.02-1.16,0V.02c.36,0,.95-.13,1.16.19Z"/>
      <path class="cls-14" d="M45.11,69.65c.7-.1,1.03.67,1.03,1.22.03,1.98-1.72,4.4-3.49,5.21-.87.4-3.49,1.11-3.49-.38,0-1.09,1.57-.89,2.46-1.22,1.06-.39,2.04-1.34,2.39-2.43.25-.79.02-2.25,1.09-2.4Z"/>
      <path class="cls-10" d="M30.7.22c-4.95,8.13-4.84,18.14-4.43,27.38-1.9-.18-4.23.24-6.08.01-.27-.03-.37-.18-.48-.4-.54-1.07-1.17-4.1-1.45-5.4-1.53-7.13-1.79-14.96,1.64-21.6h10.8Z"/>
    </g>
  </g>
</svg>