<?xml version="1.0" encoding="UTF-8"?>
<svg xmlns="http://www.w3.org/2000/svg" viewBox="0 0 100 100">
  <defs>
    <style>
      .cls-1 {
        fill: #f69220;
      }

      .cls-2 {
        fill: #cccbcb;
      }

      .cls-3 {
        fill: #ec1e27;
      }

      .cls-4 {
        fill: #ccc8ce;
      }

      .cls-5 {
        fill: #fff;
      }

      .cls-6 {
        fill: #d71b23;
      }

      .cls-7 {
        fill: none;
      }

      .cls-8 {
        fill: #f6eb0f;
      }

      .cls-9 {
        fill: #f2f2f2;
      }

      .cls-10 {
        isolation: isolate;
      }

      .cls-11 {
        fill: #4d4e4e;
      }

      .cls-12 {
        opacity: .26;
      }

      .cls-12, .cls-13, .cls-14 {
        mix-blend-mode: multiply;
      }

      .cls-15 {
        fill: #668aaa;
      }

      .cls-13 {
        opacity: .1;
      }

      .cls-16 {
        fill: #666667;
      }

      .cls-17 {
        fill: #5e5f5f;
      }

      .cls-18, .cls-14 {
        opacity: .32;
      }

      .cls-19 {
        fill: #2492c2;
      }

      .cls-20 {
        fill: #28aae1;
      }

      .cls-21 {
        fill: #989898;
      }
    </style>
  </defs>
  <g class="cls-10">
    <g id="Layer_3" data-name="Layer 3">
      <g>
        <path class="cls-4" d="M62.33,73.6v-38.74c0-3.54-2.15-7.6-10.89-7.6h-29.62C11.19,27.27.68,34.87.68,44.74v23.42c0,4.56,1.9,5.44,6.2,5.44h55.45Z"/>
        <path class="cls-4" d="M62.33,36.57h8.42c3.91,0,7.52,2.09,9.47,5.49l3.85,6.23c.9,1.45,2.13,2.67,3.59,3.55l7.31,4.39c2.75,1.88,4.39,5,4.39,8.33v3.48c0,3.11-2.52,5.63-5.63,5.63h-31.33l-.06-37.09Z"/>
        <path class="cls-9" d="M7.98,71.83c.88-5.41,5.6-9.56,11.24-9.56s10.36,4.15,11.24,9.56h30.09v-36.97c0-1.59-.53-2.87-1.58-3.81-1.5-1.34-4.04-2.02-7.54-2.02h-29.62c-4.82,0-9.73,1.69-13.46,4.65-3.81,3.02-5.91,6.94-5.91,11.05v23.42c0,2.4.61,2.88.81,3.03.73.57,2.42.64,3.62.64h1.1Z"/>
        <path class="cls-11" d="M95.06,68.22h4.3c-.1,3.02-2.58,5.44-5.63,5.44h-2.01c.06-2.14.6-5.44,3.34-5.44Z"/>
        <path class="cls-11" d="M.68,68.22s.04,0,.06,0c7.72,0,7.08,5.38,7.08,5.38h-.94c-4.28,0-6.18-.88-6.2-5.38Z"/>
        <path class="cls-11" d="M62.33,73.6H6.88c-2.21,0-3.78-.23-4.79-1.08h95.03c-.94.71-2.12,1.14-3.4,1.14h-31.33l-.06-.1v.04Z"/>
        <path class="cls-3" d="M.68,62.27h3.48c.84,0,1.52.68,1.52,1.52v.63c0,.84-.68,1.52-1.52,1.52H.68v-3.67Z"/>
        <path class="cls-8" d="M99.1,62.27h-1.89c-.84,0-1.52-.68-1.52-1.52v-3.04c0-.28.08-.54.21-.77,1.61,1.4,2.72,3.27,3.2,5.33Z"/>
        <path class="cls-3" d="M94.11,67.08h2.66c.31,0,.57-.26.57-.57h0c0-.31-.26-.57-.57-.57h-2.66c-.31,0-.57.26-.57.57h0c0,.31.26.57.57.57Z"/>
        <path class="cls-11" d="M80.12,64.05c5.31,0,9.62,4.32,9.62,9.62h-19.24c0-5.31,4.32-9.62,9.62-9.62Z"/>
        <circle class="cls-16" cx="80.12" cy="73.67" r="8.74"/>
        <circle class="cls-11" cx="80.12" cy="73.67" r="6.08"/>
        <circle class="cls-2" cx="80.12" cy="73.67" r="4.3"/>
        <path class="cls-11" d="M28.85,73.6H9.61c.03-5.28,4.34-9.56,9.62-9.56s9.59,4.28,9.62,9.56Z"/>
        <circle class="cls-16" cx="19.23" cy="73.67" r="8.74"/>
        <circle class="cls-11" cx="19.23" cy="73.67" r="6.08"/>
        <circle class="cls-2" cx="19.23" cy="73.67" r="4.3"/>
        <g>
          <circle class="cls-3" cx="19.95" cy="44.11" r="7.72"/>
          <polygon class="cls-5" points="14.76 42.59 18.44 42.59 18.44 38.92 21.47 38.92 21.47 42.59 25.15 42.59 25.15 45.62 21.47 45.62 21.47 49.3 18.44 49.3 18.44 45.62 14.76 45.62 14.76 42.59"/>
        </g>
        <g class="cls-12">
          <path class="cls-21" d="M37.08,69.74h16.71c1.05,0,1.9-.85,1.9-1.9v-33.29c0-1.05-.85-1.9-1.9-1.9h-16.71c-1.05,0-1.9.85-1.9,1.9v33.29c0,1.05.85,1.9,1.9,1.9ZM53.79,33.41c.63,0,1.14.51,1.14,1.14v33.29c0,.63-.51,1.14-1.14,1.14h-16.71c-.63,0-1.14-.51-1.14-1.14v-33.29c0-.63.51-1.14,1.14-1.14h16.71Z"/>
        </g>
        <path class="cls-21" d="M53.6,52.78h0c.24,0,.44-.2.44-.44v-2.41c0-.24-.2-.44-.44-.44h0c-.24,0-.44.2-.44.44v2.41c0,.24.2.44.44.44Z"/>
        <rect class="cls-15" x="38.47" y="36.57" width="14.05" height="11.39" rx="2.96" ry="2.96" transform="translate(90.99 84.54) rotate(180)"/>
        <path class="cls-9" d="M68.89,71.15c1.17-5.23,5.83-8.99,11.23-8.99.49,0,.98.03,1.47.1v-13.19l-3.53-5.71-.02-.04c-1.49-2.6-4.28-4.22-7.28-4.22h-5.9l.05,32.05h3.98Z"/>
        <path class="cls-15" d="M65.69,52.78h15.19v-2.28c0-2.15-3.54-6.96-5.06-8.23-1.52-1.27-2.28-1.9-4.05-1.9h-6.08v12.41Z"/>
        <g class="cls-14">
          <path class="cls-21" d="M64.17,71.89h5.34l.02-.1c.91-5.15,5.36-8.88,10.59-8.88.69,0,1.38.07,2.06.2l.15.03v-14.29l-3.65-5.91c-1.62-2.83-4.66-4.6-7.93-4.6h-6.65v.13s.06,33.42.06,33.42ZM69.3,71.64h-4.88l-.06-33.04h6.4c3.18,0,6.13,1.71,7.71,4.47l.02.03,3.6,5.83v13.91c-.65-.12-1.31-.18-1.96-.18-5.32,0-9.85,3.77-10.82,8.99Z"/>
        </g>
        <g class="cls-18">
          <path class="cls-5" d="M65.89,52.78l7.81-12.02c.67.31,1.28.82,2.11,1.51.07.06.15.13.24.21l-6.69,10.3h-3.47Z"/>
          <path class="cls-5" d="M70.27,52.78l6.33-9.74c.19.21.4.44.6.7l-5.88,9.04h-1.06Z"/>
          <path class="cls-5" d="M65.69,48.91l5.55-8.54h.53c.46,0,.85.04,1.2.13l-7.27,11.2v-2.79Z"/>
          <path class="cls-5" d="M71.93,52.78l5.61-8.63c.19.24.38.49.57.75l-5.12,7.88h-1.06Z"/>
        </g>
        <g class="cls-18">
          <path class="cls-5" d="M39.99,47.97c-.05,0-.1,0-.15,0l7.4-11.39h3.47l-7.4,11.39h-3.31Z"/>
          <path class="cls-5" d="M44.21,47.97l7.34-11.29c.28.11.53.3.7.55l-6.98,10.74h-1.06Z"/>
          <path class="cls-5" d="M38.47,46.45v-.57l6.05-9.31h1.81l-7.22,11.11c-.39-.28-.64-.73-.64-1.24Z"/>
          <path class="cls-5" d="M45.87,47.97l6.62-10.19c.02.1.03.21.03.31v1.26l-5.6,8.61h-1.06Z"/>
        </g>
        <rect class="cls-7" x="63.16" y="58.6" width="18.36" height=".76"/>
        <path class="cls-3" d="M87.84,55.44c.84,0,1.52.68,1.52,1.52v.13c0,.84-.68,1.52-1.52,1.52h-4.81v-3.16h4.81Z"/>
        <rect class="cls-3" x="63.16" y="55.44" width="18.36" height="3.16"/>
        <path class="cls-6" d="M.68,58.6v-3.16h60.96v3.16H.68Z"/>
        <path class="cls-19" d="M.68,60.88v-1.52h60.96v1.52H.68Z"/>
        <path class="cls-20" d="M88.6,59.36c.42,0,.76.34.76.76s-.34.76-.76.76h-5.57v-1.52h5.57Z"/>
        <rect class="cls-20" x="63.16" y="59.36" width="18.36" height="1.52"/>
        <polygon class="cls-5" points="62.4 58.6 63.16 58.6 63.16 59.36 62.4 59.36 61.64 59.36 61.64 58.6 62.4 58.6"/>
        <path class="cls-3" d="M71.47,36.57s-.59-2.79-.72-3.54c-.13-.76-.76-.89-1.14-.89h-3.92c-.76,0-.89.51-.89.89v3.54h6.67Z"/>
        <path class="cls-1" d="M65.69,35.94h0c-.14,0-.25-.11-.25-.25v-2.53c0-.14.11-.25.25-.25h0c.14,0,.25.11.25.25v2.53c0,.14-.11.25-.25.25Z"/>
        <path class="cls-1" d="M70.27,35.92h0c.14-.02.23-.15.21-.29l-.49-2.5c-.02-.14-.15-.23-.29-.21h0c-.14.02-.23.15-.21.29l.49,2.5c.02.14.15.23.29.21Z"/>
        <path class="cls-13" d="M67.84,35.69c2.08,0,2.99-.35,3.39-.61.13.83.24,1.5.24,1.5h-6.67v-1.75c.51.43,1.43.86,3.04.86Z"/>
        <g>
          <path class="cls-16" d="M81.45,50.28c1.43,0,2.6.89,2.6,1.86s-.39,1.05-.85,1.05h-3.45c-.7,0-.89-.58-.89-1.47s.81-1.43,2.6-1.43Z"/>
          <ellipse class="cls-21" cx="80.31" cy="51.13" rx=".48" ry=".31"/>
          <path class="cls-17" d="M79.74,53.19c-.7,0-.89-.58-.89-1.47,0-.5.25-.89.79-1.13-.92,1.08-.05,2.18,2.19,2.18,1.96,0,2.18-.56,2.2-.7,0,.03,0,.05,0,.08,0,.97-.39,1.05-.85,1.05h-3.45Z"/>
        </g>
      </g>
    </g>
  </g>
</svg>