<?xml version="1.0" encoding="UTF-8"?>
<svg id="Layer_3" data-name="Layer 3" xmlns="http://www.w3.org/2000/svg" viewBox="0 0 100 100">
  <defs>
    <style>
      .cls-1 {
        opacity: .3;
      }

      .cls-2 {
        fill: #fff;
      }

      .cls-3 {
        fill: #375a64;
      }

      .cls-4 {
        fill: red;
      }

      .cls-5 {
        fill: #647aa0;
      }

      .cls-6 {
        fill: #ffc800;
      }

      .cls-7 {
        fill: #47c9fc;
      }

      .cls-8 {
        opacity: .2;
      }

      .cls-9 {
        fill: #a8a8a8;
      }

      .cls-10 {
        fill: #34436c;
      }

      .cls-11 {
        fill: #f1606b;
      }

      .cls-12 {
        fill: #ececec;
      }

      .cls-13 {
        fill: #dcdcdc;
      }

      .cls-14 {
        fill: #c8c8c8;
      }

      .cls-15 {
        fill: #28af15;
      }

      .cls-16 {
        opacity: .32;
      }

      .cls-17 {
        fill: #e75665;
      }
    </style>
  </defs>
  <g class="cls-16">
    <path class="cls-5" d="M86.62,67.75s-.01.04-.02.06c-2.27,9.28-6.75,19.8-15.54,26.43-.95.72-1.96,1.39-3.01,2.01h-3.26c-21.8-12.8-20.82-47.81-20.82-47.81,3.82-.39,8.09-2.01,12.55-4.16,3.22-1.55,6.69-2.31,10.16-2.27,3.29.03,6.58.78,9.63,2.25,4.49,2.15,8.79,3.79,12.63,4.18,0,0,.23,8.87-2.32,19.3Z"/>
  </g>
  <g>
    <g>
      <g>
        <rect class="cls-6" x="6.95" y="8.29" width="66.91" height="88.87"/>
        <g class="cls-1">
          <rect x="6.95" y="8.29" width="66.91" height="88.87"/>
        </g>
      </g>
      <g>
        <rect class="cls-6" x="5.02" y="8.29" width="66.91" height="88.87"/>
        <g class="cls-8">
          <rect x="5.02" y="8.29" width="66.91" height="88.87"/>
        </g>
      </g>
    </g>
    <g>
      <rect class="cls-12" x="8.94" y="12.21" width="59.07" height="80.07" transform="translate(-.66 .49) rotate(-.73)"/>
      <rect class="cls-13" x="-2.47" y="22.71" width="80.07" height="59.07" transform="translate(-15.47 88.67) rotate(-88.76)"/>
      <rect class="cls-2" x="8.03" y="12.21" width="59.07" height="80.07"/>
      <g>
        <g>
          <rect class="cls-12" x="14.78" y="58.33" width="5.02" height="5.02"/>
          <g>
            <rect class="cls-3" x="22.5" y="58.33" width="16.25" height=".74"/>
            <rect class="cls-12" x="22.5" y="59.75" width="37.85" height=".73"/>
            <rect class="cls-12" x="22.5" y="61.18" width="37.85" height=".74"/>
            <rect class="cls-12" x="22.5" y="62.61" width="37.85" height=".74"/>
          </g>
        </g>
        <g>
          <rect class="cls-12" x="14.78" y="66.63" width="5.02" height="5.02"/>
          <g>
            <rect class="cls-3" x="22.5" y="66.63" width="16.25" height=".73"/>
            <rect class="cls-12" x="22.5" y="68.05" width="37.85" height=".73"/>
            <rect class="cls-12" x="22.5" y="69.48" width="37.85" height=".74"/>
            <rect class="cls-12" x="22.5" y="70.91" width="37.85" height=".73"/>
          </g>
        </g>
        <g>
          <rect class="cls-12" x="14.78" y="74.92" width="5.02" height="5.02"/>
          <g>
            <rect class="cls-3" x="22.5" y="74.92" width="16.25" height=".73"/>
            <rect class="cls-12" x="22.5" y="76.35" width="37.85" height=".73"/>
            <rect class="cls-12" x="22.5" y="77.78" width="37.85" height=".73"/>
            <rect class="cls-12" x="22.5" y="79.2" width="37.85" height=".73"/>
          </g>
        </g>
        <rect class="cls-12" x="34.99" y="84.8" width="25.36" height=".74"/>
      </g>
      <g>
        <rect class="cls-3" x="30.49" y="32.31" width="13.75" height=".73"/>
        <rect class="cls-12" x="30.49" y="33.74" width="29.86" height=".74"/>
        <rect class="cls-12" x="30.49" y="35.17" width="29.86" height=".74"/>
        <rect class="cls-12" x="30.49" y="38.02" width="29.86" height=".74"/>
        <rect class="cls-12" x="30.49" y="39.45" width="12.99" height=".74"/>
      </g>
      <g>
        <rect class="cls-7" x="14.78" y="19.87" width="45.58" height="6.98"/>
        <g>
          <path class="cls-2" d="M17.92,25.52v-4.08h.79v4.08h-.79Z"/>
          <path class="cls-2" d="M21.22,22.91v2.61h-.79v-4.08h.61l2.13,2.68v-2.67h.79v4.07h-.64l-2.1-2.61Z"/>
          <path class="cls-2" d="M28.1,22.51s-.08-.06-.15-.11c-.07-.05-.16-.09-.26-.14-.1-.04-.21-.08-.33-.11-.12-.03-.24-.05-.36-.05-.22,0-.38.04-.49.12-.11.08-.16.19-.16.34,0,.08.02.15.06.21.04.06.1.1.18.15.08.04.17.08.29.11.12.03.25.07.4.11.2.05.38.11.54.17.16.06.3.14.41.23.11.09.2.2.26.33.06.13.09.29.09.47,0,.22-.04.41-.12.56-.08.16-.19.28-.33.38-.14.1-.3.17-.48.21-.18.04-.37.07-.57.07-.31,0-.61-.05-.91-.14-.3-.09-.57-.22-.8-.39l.35-.68s.1.08.19.14c.09.06.2.11.32.17.12.06.26.1.41.14.15.04.3.06.46.06.44,0,.65-.14.65-.42,0-.09-.03-.16-.07-.22-.05-.06-.12-.11-.21-.16-.09-.05-.2-.09-.33-.13-.13-.04-.28-.08-.44-.13-.2-.05-.36-.11-.51-.18-.14-.06-.26-.14-.36-.22-.1-.09-.17-.19-.22-.3-.05-.11-.07-.25-.07-.41,0-.21.04-.39.11-.55.08-.16.18-.29.32-.4.14-.11.29-.19.47-.24.18-.06.37-.08.58-.08.29,0,.55.04.79.14.24.09.45.2.63.32l-.35.64Z"/>
          <path class="cls-2" d="M31.78,24.85c.19,0,.35-.04.47-.11s.23-.18.31-.3c.08-.12.13-.26.17-.42.03-.16.05-.32.05-.49v-2.08h.79v2.08c0,.28-.03.54-.1.79-.07.25-.17.46-.32.64-.14.18-.33.33-.55.44-.23.11-.5.16-.81.16s-.6-.06-.83-.17c-.23-.11-.41-.26-.55-.45-.14-.19-.24-.4-.31-.65-.06-.25-.09-.5-.09-.76v-2.08h.79v2.08c0,.17.02.34.05.5.03.16.09.3.17.42.08.12.18.22.31.3.13.07.28.11.47.11Z"/>
          <path class="cls-2" d="M35.22,25.52v-4.08h1.8c.19,0,.36.04.52.12.16.08.3.18.41.31.11.13.2.27.27.44.06.16.1.33.1.49,0,.26-.07.5-.2.72-.13.22-.31.37-.54.47l.93,1.53h-.89l-.83-1.37h-.78v1.37h-.79ZM36.02,23.46h.99c.07,0,.14-.02.2-.05.06-.03.12-.08.16-.14.05-.06.08-.13.11-.21.03-.08.04-.17.04-.26s-.02-.18-.05-.26c-.03-.08-.07-.15-.12-.21-.05-.06-.11-.11-.18-.14-.07-.03-.13-.05-.2-.05h-.96v1.32Z"/>
          <path class="cls-2" d="M41,21.44h.7l1.55,4.08h-.82l-.38-1.02h-1.42l-.37,1.02h-.82l1.56-4.08ZM41.92,23.95l-.56-1.6-.59,1.6h1.15Z"/>
          <path class="cls-2" d="M45.36,22.91v2.61h-.79v-4.08h.61l2.13,2.68v-2.67h.79v4.07h-.64l-2.1-2.61Z"/>
          <path class="cls-2" d="M49.56,23.45c0-.25.04-.5.14-.74.09-.24.22-.46.39-.65.17-.19.38-.35.63-.47.25-.12.53-.18.85-.18.38,0,.7.08.97.25.27.16.48.38.61.64l-.61.42c-.05-.11-.12-.21-.2-.29-.08-.08-.16-.14-.25-.19-.09-.05-.18-.08-.28-.1-.1-.02-.19-.03-.28-.03-.2,0-.37.04-.52.12-.15.08-.27.18-.37.31-.1.13-.17.27-.22.44-.05.16-.07.32-.07.49,0,.18.03.35.09.52.06.17.14.31.24.44.11.13.23.23.38.3.15.08.31.11.49.11.09,0,.19-.01.29-.03.1-.02.19-.06.28-.11.09-.05.17-.11.25-.19.08-.08.14-.17.18-.28l.65.37c-.07.15-.16.29-.28.41-.12.12-.26.22-.41.3-.15.08-.31.14-.49.18-.17.04-.34.06-.51.06-.29,0-.56-.06-.8-.18-.24-.12-.45-.28-.62-.48-.17-.2-.31-.42-.41-.67-.1-.25-.15-.51-.15-.77Z"/>
          <path class="cls-2" d="M57.44,24.83v.7h-2.83v-4.08h2.78v.7h-1.99v.98h1.72v.64h-1.72v1.06h2.04Z"/>
        </g>
      </g>
      <g>
        <path class="cls-12" d="M60.48,54.68H14.65v-9.8h45.83v9.8ZM14.9,54.43h45.33v-9.3H14.9v9.3Z"/>
        <rect class="cls-12" x="14.78" y="50.65" width="45.58" height=".25"/>
        <rect class="cls-12" x="14.78" y="46.88" width="45.58" height=".25"/>
        <rect class="cls-12" x="29.53" y="45" width=".25" height="9.55"/>
        <rect class="cls-12" x="45.35" y="45" width=".25" height="9.55"/>
        <path class="cls-3" d="M17.38,46.02c.81-.05,1.61-.08,2.42-.1.81-.02,1.61-.03,2.42-.03.81,0,1.61,0,2.42.03l1.21.03c.4.02.81.03,1.21.06-.4.03-.81.04-1.21.06l-1.21.03c-.81.02-1.61.03-2.42.03-.81,0-1.61,0-2.42-.03-.81-.02-1.61-.04-2.42-.1Z"/>
        <path class="cls-3" d="M32.73,46.02c.81-.05,1.61-.08,2.42-.1.81-.02,1.61-.03,2.42-.03.81,0,1.61,0,2.42.03l1.21.03c.4.02.81.03,1.21.06-.4.03-.81.04-1.21.06l-1.21.03c-.81.02-1.61.03-2.42.03-.81,0-1.61,0-2.42-.03-.81-.02-1.61-.04-2.42-.1Z"/>
        <path class="cls-3" d="M48.18,46.02c.81-.05,1.61-.08,2.42-.1.81-.02,1.61-.03,2.42-.03.81,0,1.61,0,2.42.03l1.21.03c.4.02.81.03,1.21.06-.4.03-.81.04-1.21.06l-1.21.03c-.81.02-1.61.03-2.42.03-.81,0-1.61,0-2.42-.03-.81-.02-1.61-.04-2.42-.1Z"/>
        <path class="cls-12" d="M17.38,48.43c.81-.05,1.61-.08,2.42-.1.81-.02,1.61-.03,2.42-.03.81,0,1.61,0,2.42.03l1.21.03c.4.02.81.03,1.21.06-.4.03-.81.04-1.21.06l-1.21.03c-.81.02-1.61.03-2.42.03-.81,0-1.61,0-2.42-.03-.81-.02-1.61-.04-2.42-.1Z"/>
        <path class="cls-12" d="M32.73,48.43c.81-.05,1.61-.08,2.42-.1.81-.02,1.61-.03,2.42-.03.81,0,1.61,0,2.42.03l1.21.03c.4.02.81.03,1.21.06-.4.03-.81.04-1.21.06l-1.21.03c-.81.02-1.61.03-2.42.03-.81,0-1.61,0-2.42-.03-.81-.02-1.61-.04-2.42-.1Z"/>
        <path class="cls-12" d="M48.18,48.43c.81-.05,1.61-.08,2.42-.1.81-.02,1.61-.03,2.42-.03.81,0,1.61,0,2.42.03l1.21.03c.4.02.81.03,1.21.06-.4.03-.81.04-1.21.06l-1.21.03c-.81.02-1.61.03-2.42.03-.81,0-1.61,0-2.42-.03-.81-.02-1.61-.04-2.42-.1Z"/>
        <path class="cls-12" d="M17.38,49.4c.81-.05,1.61-.08,2.42-.1.81-.02,1.61-.03,2.42-.03.81,0,1.61,0,2.42.03l1.21.03c.4.02.81.03,1.21.06-.4.03-.81.04-1.21.06l-1.21.03c-.81.02-1.61.03-2.42.03-.81,0-1.61,0-2.42-.03-.81-.02-1.61-.04-2.42-.1Z"/>
        <path class="cls-12" d="M32.73,49.4c.81-.05,1.61-.08,2.42-.1.81-.02,1.61-.03,2.42-.03.81,0,1.61,0,2.42.03l1.21.03c.4.02.81.03,1.21.06-.4.03-.81.04-1.21.06l-1.21.03c-.81.02-1.61.03-2.42.03-.81,0-1.61,0-2.42-.03-.81-.02-1.61-.04-2.42-.1Z"/>
        <path class="cls-12" d="M48.18,49.4c.81-.05,1.61-.08,2.42-.1.81-.02,1.61-.03,2.42-.03.81,0,1.61,0,2.42.03l1.21.03c.4.02.81.03,1.21.06-.4.03-.81.04-1.21.06l-1.21.03c-.81.02-1.61.03-2.42.03-.81,0-1.61,0-2.42-.03-.81-.02-1.61-.04-2.42-.1Z"/>
        <path class="cls-12" d="M17.38,51.99c.81-.05,1.61-.08,2.42-.1.81-.02,1.61-.03,2.42-.03.81,0,1.61,0,2.42.03l1.21.03c.4.02.81.03,1.21.06-.4.03-.81.04-1.21.06l-1.21.03c-.81.02-1.61.03-2.42.03-.81,0-1.61,0-2.42-.03-.81-.02-1.61-.04-2.42-.1Z"/>
        <path class="cls-12" d="M32.73,51.99c.81-.05,1.61-.08,2.42-.1.81-.02,1.61-.03,2.42-.03.81,0,1.61,0,2.42.03l1.21.03c.4.02.81.03,1.21.06-.4.03-.81.04-1.21.06l-1.21.03c-.81.02-1.61.03-2.42.03-.81,0-1.61,0-2.42-.03-.81-.02-1.61-.04-2.42-.1Z"/>
        <path class="cls-12" d="M48.18,51.99c.81-.05,1.61-.08,2.42-.1.81-.02,1.61-.03,2.42-.03.81,0,1.61,0,2.42.03l1.21.03c.4.02.81.03,1.21.06-.4.03-.81.04-1.21.06l-1.21.03c-.81.02-1.61.03-2.42.03-.81,0-1.61,0-2.42-.03-.81-.02-1.61-.04-2.42-.1Z"/>
        <path class="cls-12" d="M17.38,52.96c.81-.05,1.61-.08,2.42-.1.81-.02,1.61-.03,2.42-.03.81,0,1.61,0,2.42.03l1.21.03c.4.02.81.03,1.21.06-.4.03-.81.04-1.21.06l-1.21.03c-.81.02-1.61.03-2.42.03-.81,0-1.61,0-2.42-.03-.81-.02-1.61-.04-2.42-.1Z"/>
        <path class="cls-12" d="M32.73,52.96c.81-.05,1.61-.08,2.42-.1.81-.02,1.61-.03,2.42-.03.81,0,1.61,0,2.42.03l1.21.03c.4.02.81.03,1.21.06-.4.03-.81.04-1.21.06l-1.21.03c-.81.02-1.61.03-2.42.03-.81,0-1.61,0-2.42-.03-.81-.02-1.61-.04-2.42-.1Z"/>
        <path class="cls-12" d="M48.18,52.96c.81-.05,1.61-.08,2.42-.1.81-.02,1.61-.03,2.42-.03.81,0,1.61,0,2.42.03l1.21.03c.4.02.81.03,1.21.06-.4.03-.81.04-1.21.06l-1.21.03c-.81.02-1.61.03-2.42.03-.81,0-1.61,0-2.42-.03-.81-.02-1.61-.04-2.42-.1Z"/>
      </g>
      <g>
        <path class="cls-4" d="M25.71,37.48c-2.21,2.92-4.84,4.2-4.84,4.2,0,0-2.63-1.28-4.84-4.2-1.7-2.26-1.62-5.79.82-6.55,2.7-.84,4.02,3.21,4.02,3.21,0,0,1.34-4.09,4.03-3.21,2.43.79,2.52,4.3.82,6.55Z"/>
        <polygon class="cls-2" points="18.96 39.9 18.23 36.84 17.75 37.92 14.78 37.92 14.78 37.58 17.52 37.58 18.33 35.77 18.9 38.16 19.71 33.21 20.42 37.13 20.99 35.49 21.88 38.17 22.08 37.58 26.96 37.58 26.96 37.92 22.33 37.92 21.88 39.26 20.98 36.57 20.32 38.48 19.73 35.24 18.96 39.9"/>
      </g>
    </g>
    <g>
      <path class="cls-14" d="M57.6,13.86H17.53c0-4.21,3.41-7.61,7.61-7.61h24.84c4.21,0,7.61,3.41,7.61,7.61h0Z"/>
      <path class="cls-14" d="M46.61,1.32h-18.36l-.81,4.93h20.26l-1.09-4.93ZM37.57,4.86c-.6,0-1.08-.48-1.08-1.08,0-.6.49-1.08,1.08-1.08s1.08.49,1.08,1.08-.48,1.08-1.08,1.08Z"/>
      <polygon class="cls-9" points="47.7 6.25 27.44 6.25 27.62 5.14 47.45 5.14 47.7 6.25"/>
    </g>
  </g>
  <polygon class="cls-15" points="17.3 62.63 15.17 59.91 15.85 59.37 17.29 61.22 19.5 58.33 20.18 58.86 17.3 62.63"/>
  <polygon class="cls-15" points="17.3 70.94 15.17 68.22 15.85 67.68 17.29 69.53 19.5 66.64 20.18 67.17 17.3 70.94"/>
  <polygon class="cls-15" points="17.3 79.25 15.17 76.53 15.85 75.99 17.29 77.84 19.5 74.95 20.18 75.48 17.3 79.25"/>
  <g>
    <g>
      <g>
        <path class="cls-11" d="M95.86,66.18s-.01.05-.02.07c-2.48,10.01-7.37,21.36-16.97,28.51-1.56,1.16-3.25,2.22-5.07,3.14-.22-.11-.44-.22-.65-.34-24.97-13.25-23.87-52.19-23.87-52.19,4.18-.42,8.84-2.17,13.71-4.48,3.52-1.67,7.31-2.49,11.1-2.45,3.59.04,7.18.84,10.52,2.43,4.9,2.32,9.61,4.09,13.8,4.5,0,0,.25,9.56-2.54,20.82Z"/>
        <path class="cls-17" d="M95.86,66.18s-.01.05-.02.07c-2.54,9.98-7.46,21.22-16.97,28.51-1.56,1.16-3.25,2.22-5.07,3.14-.22-.11-.44-.22-.65-.34,2.77-5.67,19.52-42.08.94-59.13,3.59.04,7.18.84,10.52,2.43,4.9,2.32,9.61,4.09,13.8,4.5,0,0,.25,9.56-2.54,20.82Z"/>
        <path class="cls-2" d="M73.8,92.82l-.17-.08c-4.83-2.43-8.9-6.22-12.09-11.27-2.55-4.02-4.55-8.85-5.94-14.34-2.37-9.33-2.17-17.49-2.17-17.57v-.33s.33-.03.33-.03c2.96-.3,6.48-1.45,11.06-3.62,5.7-2.71,12.25-2.71,17.95-.02,4.61,2.18,8.15,3.34,11.13,3.64l.33.03v.33c.01.08.19,8.23-2.19,17.57-1.4,5.49-3.41,10.31-5.96,14.34-3.2,5.04-7.27,8.84-12.1,11.27l-.17.08ZM54.17,49.9c0,1.6.07,8.87,2.16,17.06,2.15,8.44,6.92,19.61,17.47,25.02,10.55-5.41,15.34-16.58,17.5-25.02,2.1-8.19,2.19-15.46,2.19-17.06-2.99-.36-6.51-1.53-11.04-3.67-5.5-2.6-11.81-2.6-17.31.01-4.49,2.13-7.99,3.3-10.97,3.65Z"/>
      </g>
      <polygon class="cls-2" points="85.58 62.47 85.58 68.32 77.36 68.32 77.36 76.54 71.52 76.54 71.52 68.32 63.29 68.32 63.29 62.47 71.52 62.47 71.52 54.25 77.36 54.25 77.36 62.47 85.58 62.47"/>
    </g>
    <g>
      <path class="cls-10" d="M73.72,98.03c-.24-.12-.46-.23-.66-.34-9.01-4.78-15.66-13.39-19.75-25.59-3.28-9.76-4.02-19.23-4.17-24.01h.3c.28,8.75,2.82,38.21,23.77,49.33.2.11.41.22.65.34l-.13.27Z"/>
      <path class="cls-10" d="M78.95,94.88l-.18-.24c8.03-5.98,13.72-15.55,16.92-28.42,0-.03.01-.05.02-.07,1.85-7.48,2.35-14.26,2.48-17.63h.3c-.13,3.4-.64,10.2-2.49,17.7,0,.03-.01.05-.02.08-1.42,5.72-3.38,10.89-5.83,15.35-3.01,5.48-6.78,9.93-11.2,13.23Z"/>
      <path class="cls-10" d="M96.35,45.21c-3.3-.62-7.05-1.97-11.81-4.22-3.3-1.56-6.82-2.38-10.46-2.41-3.78-.04-7.6.8-11.03,2.43-4.65,2.21-8.32,3.53-11.56,4.17l-.06-.29c3.21-.63,6.86-1.95,11.49-4.14,3.48-1.65,7.34-2.5,11.16-2.46,3.68.04,7.25.86,10.59,2.44,4.74,2.24,8.47,3.58,11.74,4.2l-.06.29Z"/>
    </g>
  </g>
</svg>