<?xml version="1.0" encoding="UTF-8"?>
<svg id="Layer_1" data-name="Layer 1" xmlns="http://www.w3.org/2000/svg" viewBox="0 0 100 100">
  <defs>
    <style>
      .cls-1 {
        fill: #e4d6d6;
      }

      .cls-1, .cls-2, .cls-3, .cls-4, .cls-5, .cls-6, .cls-7, .cls-8, .cls-9, .cls-10, .cls-11 {
        fill-rule: evenodd;
      }

      .cls-2 {
        fill: #efb699;
      }

      .cls-3 {
        fill: #f3c4ac;
      }

      .cls-4 {
        fill: #fff;
      }

      .cls-5 {
        fill: #95bcd2;
      }

      .cls-6 {
        fill: #d0eeff;
      }

      .cls-7 {
        fill: #da9d80;
      }

      .cls-8 {
        fill: #471d0f;
      }

      .cls-9 {
        fill: #e1e8ec;
      }

      .cls-10 {
        fill: #e8c1c6;
      }

      .cls-11 {
        fill: #b7c6cf;
      }
    </style>
  </defs>
  <path class="cls-10" d="M16.46,49.34c1.02.42,2.08.53,3.14.46-.29-.44-.59-.89-.88-1.37-.71-1.04-1.19-2.26-1.92-3.28-.02,0-.05,0-.07,0-1.73-.16-3.48-.56-5.13-1.2.45,2.49,2.5,4.56,4.87,5.4h0ZM75.13,67.3c-.54.21-1.08.42-1.62.62-1.18.43-2.35.88-3.53,1.27,1.77-.46,3.51-1.09,5.16-1.88h0ZM95.55,35.37c1.03.53.73,3.21.58,4.13-.18,1.21-.58,2.36-1.08,3.48-1.01,2.15-2.4,4.13-3.96,5.93-.32.27-.75.83-1.21,1.33.26,2.62-.08,5.32-.85,7.81-1.43,4.17-4.31,7.79-7.6,10.68-4.54,3.73-10.43,5.62-16.28,5.42-4.68-.2-9.51-.99-13.8-2.93-.02.07-.04.14-.06.21-2.08,7.73,6.37,8.93,10.46,13.43,1.18,1.16,2.06,2.63,2.5,4.22.39,1.12-1.38,1.72-1.74.58-1.8-6.47-10.58-7.06-12.9-13.17-.65-1.91-.64-4.16.09-6.09-.63-.34-1.25-.71-1.84-1.11-1-.51-1.98-1.08-2.95-1.7-2.83-1.57-5.42-3.56-8.36-4.91-7.46-2.75-11.59-5.46-15.76-11.18-.71.12-1.43.18-2.15.16-3.39-.2-6.77-2.25-8.16-5.4-.49-.99-.84-2.1-.82-3.21-3-1.59-5.49-4.05-6.68-7.33-.41-1.36-.78-2.87-.53-4.29.52-1.24,2.13-.5,1.75.74.05,3.86,2.61,7.17,5.88,9.05.24-.46.61-.79,1.18-.62.78.32.67.86.48,1.42.12.05.24.09.35.14,1.25.46,2.54.82,3.85,1.02.15-.24.42-.42.71-.45-.02-.06-.04-.12-.06-.18-.12-1.06,1.51-1.37,1.79-.36.16.42.36.81.57,1.19.04,0,.07,0,.11,0,.85.1,2.29-.47,2.92.03.61.5.27,1.56-.52,1.61-.46.06-.92.11-1.39.15,1.01,1.36,2.24,2.56,3.53,3.63.46-.17.9-.35,1.34-.54.7-.42,1.61.3,1.34,1.08-.2.53-.98.82-1.71,1.06-.15.39-.56.64-1.15.46,2.14,3.08,5.52,5.16,8.95,6.6,3.1,1.24,5.91,3.02,8.58,5,.27-.23.69-.3,1.18-.01.68.28,1.38.54,2.08.79.28.01.59.12.85.31.04.01.08.03.12.04.69-.52,2.81,1.02,3.68,1.26,2,.89,3.79,1.66,5.81,2.34.97.33,1.96.62,2.97.81.98.2,2.62-.25,3.17.77,3.15.05,6.3-.52,9.26-1.56,2.93-1.02,5.82-2.15,8.6-3.52.83-.3,1.84-1.17,2.69-.5.03.04.07.08.09.12.43-.68.81-1.39,1.16-2.12.13-.28.39-.46.68-.51-.33-.69.66-1.49,1.22-2,.56-.46,1.03-1.27,1.83-1.25.71-2.12,1.14-4.34,1.22-6.58-.02,0-.03,0-.05,0-.85-.17-.97-1.34-.23-1.74.09-.07.18-.14.27-.21,0-.14-.02-.28-.03-.42-.48.5-1.53.35-1.6-.56-.36-3.94-.57-8.27-3.04-11.55-.26-.32-.53-.65-.85-.92-.3-.06-.57-.3-.67-.59-.34-1.28,1.28-1.57,1.97-.71,1.71,1.61,2.74,3.8,3.31,6.05.54,2,.79,4.07.97,6.13.53-.49,1.55-.13,1.65.85.02.05.03.11.05.16.54-.52,1.04-1.08,1.49-1.69,2.46-3.21,4.66-8.16,1.93-11.82-1.92-2.64-5.59-2.6-8.46-1.92-.63.2-1.26.42-1.85.71-.57.55-1.61.02-1.52-.76.21-1.1,1.66-1.21,2.52-1.61,2.41-.69,5.05-.82,7.45,0,2.66,1.1,4.11,2.96,4.66,5.12Z"/>
  <g>
    <path class="cls-2" d="M84.86,35c.37,1,.17,2.05-.62,2.78-1.42,1.16-4.3.29-5.9-.2-.7-.24-1.39-.53-2.07-.83-1.18-.5-2.24-1.25-3.44-1.72-.28-.11-.57-.21-.86-.3-.04.11-.09.22-.12.33-.23,1.49-.66,3.02-1.82,4.07-.25.23-.52.47-.8.69.13,0,.26.02.39.03,2.74.03,5.57.5,7.92,1.99,1.71,1.01,3.34,2.31,4.13,4.19.85,2.2.96,4.77,0,6.95-1.85,3.84-5.7,6.32-9.99,6.22-3.6-.23-6.96-1.87-9.86-3.95-.09,1.12-.31,2.25-.82,3.26-.97,2.17-2.81,3.74-4.72,5.06-1.96,1.36-4.28,3.11-6.73,3.24-.55-.02-1.05-.28-1.55-.5-.66-.3-1.31-.6-1.96-.9-3.43-1.58-6.44-3.93-9.79-5.66-2.22-1.13-4.51-2.16-6.63-3.46-.06-.01-.12-.04-.18-.07-1.64-1.07-3.23-2.28-4.63-3.66,0,0,0,0,0,0,0,0,0,0,0,0-.07-.03-.14-.08-.21-.15-.06-.08-.13-.17-.2-.25-.77-.78-1.48-1.62-2.06-2.56-.2-.32-.44-.62-.6-.97,0-.02,0-.03-.01-.05-.03-.05-.05-.1-.08-.15-.02-.07-.03-.15-.01-.22,0-.01-.01-.02-.02-.03-.6-1.04-.93-2.2-1.38-3.3-.04,0-.08,0-.12,0-1.36-.04-2.74-.24-3.91-.97-.03-.03-.06-.06-.1-.09-.12.05-.25.07-.39.04-1.61-.32-3.07-1.03-4.58-1.63-2.2-.9-4.28-2.34-5.66-4.3-.07-.02-.13-.04-.19-.09-1.01-1.19-1.53-2.71-1.86-4.21-.19-.91-.43-1.81-.47-2.74-.11-2.61.45-5.33,1.78-7.6-.28-.58.79-1.69,1.07-2.13,1.32-1.85,3.07-3.37,5.07-4.45,1.57-.86,3.25-1.69,5.05-1.89.1-.04.22-.07.34-.1.58-.3,1.75-.26,2.18-.34,4.34-.27,8.85.87,12.32,3.54.97.77,1.98,1.54,2.82,2.45.17.01.34.03.51.05,2.05.21,3.11,2.27,4.68,3.35.56.42,1.16.8,1.81,1.07,1.14.37,2.28.74,3.41,1.13.08.03.15.07.21.12,0,0,0,0,0,0,1.02.28,1.99.71,2.97,1.09.29-.05.55.12.79.26.23.16.49.28.72.44,0-.84.06-1.68.29-2.48.26-1.03,1-1.82,1.55-2.7.17-.42.61-.79,1.03-.43.3.29.19.81.27,1.17.46-.89,1.54-1.45,2.5-.99.38.19.64.55.83.93.16-.2.35-.4.57-.53.03-.06.07-.12.13-.16.14-.12.3-.23.46-.32-.99-.76.09-1.53.88-1.78-.41-.1-.6-.63-.3-.94.35-.31.83-.41,1.29-.51-.28-.29-.13-.81.22-1.01.96-.51,2.57-.16,3.63-.05,1.62.07,3.23.28,4.79.76,1.25.4,4.68,1.43,5.41,2.39.03.05.04.11.05.16.21.13.43.27.64.41.19.13.36.27.52.43.48.18.86,1.05,1.1,1.43.04.08.06.16.07.24.91.4,2.85,1.91,3.06,2.6,1.23.68,2.33,1.56,3.33,2.53.56.54,1.06,1.14,1.54,1.77.1.04.2.1.27.19.38.52.76,1.05,1.08,1.61.15.33.53.72.39,1.07.24.43.44.88.6,1.35Z"/>
    <path class="cls-7" d="M55.07,23.86c.13.3-.13.54-.39.54-.13,0-.25-.06-.33-.21-.16-.89-.67-1.19-.8-1.48h0c-.16-.11-.23-.29-.21-.45.05.01.09.02.14.01h.05c.05,0,.11,0,.16,0,0,0,0,0,0,0,0,0,0,0,0,0h0s0,0,0,0h0s0,0,0,0h0s0,0,0,0h0s0,0,0,0h0s0,0,0,0h0s0,0,0,0h0s0,0,0,0h0s0,0,0,0h0s0,0,0,0h0s0,0,0,0h0s0,0,0,0h0s0,0,0,0h0s0,0,0,0h0s0,0,0,0h0s0,0,0,0h0s0,0,0,0h0s0,0,0,0h0s0,0,0,0h0s0,0,0,0h0s0,0,0,0h0s0,0,0,0h0s0,0,0,0h0s0,0,0,0h0s0,0,0,0h0s0,0,0,0h0s0,0,0,0h0s0,0,0,0h0s0,0,0,0h0s0,0,0,0h0s0,0,0,0h0s0,0,0,0h0s0,0,0,0h0s0,0,0,0h0s0,0,0,0h0s0,0,.01,0c.03,0,.05,0,.08,0h0s0,0,0,0h0s0,0,0,0h0s0,0,0,0h0s0,0,0,0h0s0,0,0,0h0s0,0,0,0h0s0,0,0,0h0s0,0,0,0h0s0,0,0,0h0s0,0,0,0h0s0,0,0,0h0s0,0,0,0h0s0,0,0,0h0s0,0,0,0h0s0,0,0,0h0s0,0,0,0h0s0,0,0,0h0s0,0,0,0h0s0,0,0,0h0s0,0,0,0h0s0,0,0,0h0s0,0,0,0h0s0,0,0,0h0s0,0,0,0h0s0,0,0,0h0s0,0,0,0h0s0,0,0,0c0,0,.01,0,.02,0h0s0,0,0,0h0s0,0,0,0h0s0,0,0,0h0s0,0,0,0h0s0,0,0,0h0s0,0,0,0h0s0,0,0,0h0s0,0,0,0h0s0,0,0,0h0s0,0,0,0h0s0,0,0,0h0s0,0,0,0h0s0,0,0,0h0s0,0,0,0h0s0,0,0,0h0s0,0,0,0h0s0,0,0,0h0s0,0,0,0h0s0,0,0,0h0s0,0,0,0h0s0,0,0,0h0s0,0,0,0h0s0,0,0,0h0s0,0,0,0h0s0,0,0,0h0s0,0,0,0h0s0,0,0,0h0s0,0,0,0h0s0,0,0,0h0s0,0,0,0h0s0,0,0,0h0s0,0,0,0h0s0,0,0,0h0s0,0,0,0h0s0,0,0,0h0s0,0,0,0h0s0,0,0,0h0s0,0,0,0h0s0,0,0,0h0s0,0,0,0h0s0,0,0,0h0s0,0,0,0h0s0,0,0,0h0s0,0,0,0h0s0,0,0,0h0s0,0,0,0h0s0,0,0,0h0s0,0,0,0h0s0,0,0,0h0s0,0,0,0h0s0,0,0,0h0s0,0,0,0h0s0,0,0,0h0s0,0,0,0h0s0,0,0,0h0s0,0,0,0h0s0,0,0,0h0s0,0,0,0h0s0,0,0,0h0s0,0,0,0h0s0,0,0,0h0s0,0,0,0h0s0,0,0,0h0s0,0,0,0h0s0,0,0,0h0s0,0,0,0h0s0,0,0,0h0s0,0,0,0h0s0,0,0,0h0s0,0,0,0h0s0,0,0,0h0s0,0,0,0h0s0,0,0,0h0s0,0,0,0h0s0,0,0,0h0s0,0,0,0h0s0,0,0,0h0s0,0,0,0h0s0,0,0,0h0s0,0,0,0h0s0,0,0,0h0s0,0,0,0h0s0,0,0,0h0s0,0,0,0h0s0,0,0,0h0s0,0,0,0c.04,0,.08,0,.13.01,0,0,0,0,0,0,0,0,0,0,.01,0,0,0,0,0,0,0,0,0,0,0,0,.01.42.32.75,1.16.82,1.51h0ZM44.09,53.46c-1.47.16-3.02.03-4.4-.2-3.11-.52-6.33-1.49-8.77-3.57-1-.95-1.96-2.15-2.18-3.54-.08-1.41,1.08-2.46,2.41-2.62,1.02-.19,2.14-.14,3.16.14.07.01.14-.02.19-.07.12.03.23.06.35.09,0,.07.05.13.13.17.13.05.27.09.41.13,1.94.65,3.89,1.82,4.9,3.67.04.11.09.22.13.34.07.1.22.12.31.05.1-.1.1-.22.05-.35.02-.05,0-.11-.02-.17-.01-.02-.02-.04-.04-.05-.03-.06-.06-.13-.1-.2l-.03-.06s0,0,0,0c.16-.04.19-.22.18-.36.13-.09.16-.26.24-.39.12-.05.18-.17.19-.3.53-.09.8-.78,1.14-1.16.12-.13.26-.32.34-.51.67-.27.29-1.01-.27-.73-.14.01-.28.02-.41.02-.22-.01-.44-.03-.66-.07-1.49-.32-1.87-1.7-.51-3.14.78-.74,1.72-1.27,2.54-1.95.77-.61,1.51-1.28,2.41-1.7.66-.28,1.34-.51,2.05-.64.35-.07.97.01.94-.5,0-.08-.03-.15-.08-.2.15-.05.26-.14.28-.35,0-.04,0-.07-.01-.11.01-.05.01-.11,0-.17.57-.37-.02-.9-.52-.98,0,0,0,0,0,0,.52.05,1.14.09,1.31-.46,0-.04.01-.09.01-.13.04.02.08.02.13.02.27,0,.49-.33.57-.59-.02-.05-.03-.11-.03-.16,0-.1,0-.2-.01-.3-.02-.23-.03-.46-.05-.68-.02-.19-.05-.37-.09-.55-.07-.28-.17-.56-.28-.84,0,0,0,0,0,0-.13-.33-.28-.66-.44-.98s-.32-.64-.43-.99c-.04-.14-.08-.29-.1-.44-.83-.06.18,2.39.38,2.8-.07.04-.12.09-.16.15-.08-.12-.16-.23-.26-.33-1.76-1.35-4.04-1.69-6.04-2.55-1.47-.65-2.8-1.66-3.8-2.92-.28-.39-.5-.83-.63-1.3-.05-.17,0-.36-.13-.51-.11-.16-.35-.18-.51-.08-.02-.03-.04-.06-.06-.09.11-.71-3.69-3.72-3.66-2.09.13.37.49.62.7.95.27.34.43.78.69,1.12-.03-.02-.06-.03-.09-.04-.06-.23-.45-.2-.44.07,0,.45-.25.87-.61,1.12-.02.02-.04.03-.06.04h0c-.09,0-.17.03-.22.12-.06.16.02.3.12.43.12.27.46.56.64.73.62.48,1.38.63,2.1.85.71.34.98,1.21.88,1.94-.07.22-.1.42-.03.55-.08.19-.17.38-.28.55-.07.01-.13.06-.16.13-.06.24-.06.49-.12.73-.23.03-.21.36-.26.54-.63,1.95-2.39,3.37-4.2,4.22-.24.1-.47.2-.72.29-.26.06-.53.12-.79.16-.37.06-.78.1-1.18.13-.12,0-.21.13-.2.25.02.21.24.22.4.19.04,0,.07,0,.11,0,0,.04,0,.09.04.15-.04.09-.07.2-.14.27-.53.27-1.19.22-1.77.36-.65.05-1.39.31-2.01.03-.04-.03-.08-.06-.1-.1,0-.02.01-.05.01-.07,0-.09-.05-.18-.13-.21,0,0,0-.01-.01-.02-.08-.09-.23-.09-.32,0,0,0-.01.01-.02.02-.01,0-.03,0-.04-.01-.06-.04-.12-.04-.17-.03-.65-.08-1.73.18-2.13.22-.41-.1-.86.09-1.27.15-.14-.41-.91.09-1.2.14-.27.12-.57.21-.84.33-2.67-1.19-5.1-2.66-6.98-4.22-7-5.94-4.11-15.73,4.35-18.23.11-.04.18-.13.22-.23-.17.02-.34.05-.51.08-.1.02-.2.04-.3.07-.04,0-.08.01-.12.01-.11,0-.21-.04-.3-.1-.73.15-1.46.32-2.18.53-.04.01-.08.02-.12.02-.04,0-.07,0-.1-.01-.59.26-1.13.53-1.36.58-3.49,1.42-6.71,3.86-8.35,7.33-.96,2.01-1.62,4.26-1.65,6.5-.04.03-.07.07-.09.11-.16.7.09,1.44.12,2.15.07.72.12,1.45.32,2.15.45,1.41,1.2,2.71,2.04,3.92.67.9,1.52,1.65,2.43,2.32,2.09,1.66,4.73,2.5,7.22,3.39.05.02.1.03.15.03.22,0,.37-.21.38-.41.04-.13,0-.28-.15-.43-.17-.35-.22-.73-.17-1.11.09-.07.16-.17.16-.3.07-.16.17-.3.29-.43.69-.57,1.86-1.01,2.63-.36-.04.08-.1.16-.18.24-.27.08-.52.19-.75.36-.71.51-.51,1.52.06,2.05.51.44,1.2.68,1.87.76.55.06,1.03-.25,1.39-.65.35-.35.81-.65,1.11-1.05,0,0,0,0,0,0,.04.09.13.17.23.2.45.31.45.56.36.78-.07.08-.14.17-.19.25-.08.07-.17.13-.26.18-.78.44-1.68.53-2.56.56-.7,0-1.4-.09-2.08-.21-.26-.05-.43.13-.46.33.08.01.15.03.22.05.12.02.24.05.35.07.25.05.49.1.74.16.46.11.92.23,1.38.3.2.02.39.04.59.06.09,0,.18-.02.27-.03-.03.27.12.62.17.87.51,1.95,1.57,3.74,2.79,5.32,1.45,1.71,3.23,3.09,4.99,4.47,2.41,1.79,5.26,2.85,7.91,4.22,1.78.76,3.33,1.91,4.92,3,.85.48,2.43,1.76,3.37,1.68,1.41.72,2.76,1.71,4.32,2.06.4.06.76-.15,1.13-.26.65-.23,1.3-.48,1.95-.72,2.44-.85,4.78-2.12,6.53-4.05,1.48-1.76,3-3.82,2.91-6.24.02-.32-.05-.61-.2-.87,2.95,1.62,5.57,4.13,9.07,4.34,2.21.13,4.55-.05,6.47-1.26,3.31-2.03,5.62-5.87,5.07-9.81.08-.24-.08-.43-.27-.48-.05-.05-.11-.09-.17-.12-.1-.51-.26-1.02-.46-1.5-.18-.43-1.04-2.53-1.65-1.86-1.19-1.41-2.65-2.73-4.36-3.44-.52-.25-1.07-.44-1.63-.56-.43-.08-1.37-.41-1.31.34.01.05.03.09.06.13.06,0,.12,0,.18,0,.04,0,.08.02.12.03.02,0,.04,0,.05.01,0,0,0,0,.01,0,.02,0,.04,0,.05.01.02,0,.04.01.06.02,0,0,0,0,0,0,.02,0,.04.01.06.02.02,0,.04.01.06.02.02,0,.04.01.06.02.02,0,.04.01.06.02.02,0,.04.01.06.02.06.02.12.04.18.07.02,0,.04.02.06.02.04.02.08.03.12.05.03.01.07.03.1.04.09.04.18.08.27.13.37.08.74.2,1.1.35,0,0,.01,0,.02,0,1.63.93,3.21,2.09,4.2,3.72.85,1.33,1.33,2.95.57,4.43-.14.24-.3.47-.48.69t0,0c-.63.55-1.34,1.01-2.08,1.37-4.01,1.98-8.73.9-12.48-1.17-4.98-2.52-11.32-8.09-7.93-14.15.56-1.09,1.26-2.12,2.1-3,.17-.13.21-.37.08-.55-.02-.02-.03-.04-.05-.05.94-.8,1.79-1.7,2.75-2.49.51-.43,1.02-.85,1.56-1.25.37-.35,1.12-.66,1.26-1.15,0-.04,0-.08,0-.11.03-.03.06-.06.09-.08.11-.05.23-.1.34-.15.08,0,.16-.05.2-.13.03-.08.02-.14,0-.2.72-.61,1.51-1.13,2.3-1.65.05-.02.1-.05.15-.08,0,0,0,0,0,0,.17-.06.31-.16.42-.28.13-.08.22-.2.22-.34.08-.15.11-.33.02-.47-.52-1.01-1.98-1.11-2.98-1.28-2.19-.13-4.42-.03-6.54-.68-.48-.16-1.14-.35-1.43-.79-.01-.06-.02-.11-.02-.17,0,0,0,.01,0,.02,0,0,0,0,0,.01,0,0,0-.01,0-.02,0,0,0,0,0,0,.06-.27.48-.24.44-.53-.12-.37-.57-.08-.71.12-.06.07-.11.15-.14.23-.14.04-.25.16-.32.28,0,.01-.01.02-.02.03h0c-.12.07-.18.25-.02.4,0,0,.02.01.02.02-.12.05-.2.19-.13.32.11.14.24.27.35.4-.15.18-.6.4-.59.66-.42.07-.37.7.01.88h0c.05.26.34.55.37.82.16.34-.08.92.4,1.03.45.08.54-.43.43-.98.05.06.1.11.16.17-.05.21.08.5.25.68.02.04.05.08.08.1.1.29.17.6.17.9-.03.19-.15.37,0,.55.12.17.38.23.55.1.05-.06.1-.11.13-.18.02.06.04.11.06.16.66,2.35-.95,4.79-2.47,6.89,0,0,0,0,0,0-.41.5-.81,1.02-1.19,1.55-1.2,1.6-1.91,3.4-2.47,5.27-1.67,4.13-2.37,9.75-6.68,11.87-.48.22-.97.44-1.47.62h0ZM37.86,24.37s.03-.02.04-.02c.01.03.03.07.04.1-.03-.03-.05-.05-.08-.08h0ZM41.24,36.5c-.39,1.12-1.56,1.85-2.6,2.51-.1-.11-.26-.17-.44-.09-.48.22-.98.4-1.46.61.02,0,.04,0,.07,0,0,0,0,0,0,0-.02,0-.04,0-.06,0-.02,0-.04.02-.05.02-4.33,1.13-9.79.23-14.68-1.66.36-.16.73-.29,1.1-.43.76-.25,1.55-.36,2.34-.43.18-.06.42.08.57-.07.02,0,.05,0,.07-.01.01,0,.03,0,.04,0,.1.12.23.23.35.29.99.34,2.33-.11,3.37-.21.4-.04.86-.14,1.02-.56.04-.09.07-.2.06-.29.25-.07.55-.22.7-.24.22-.07.44-.15.67-.23.03,0,.07-.02.1-.02,2.77-.61,5.08-2.96,5.43-5.81,0,0,0,0,0,0,.32-.04.61-.33.84-.65.7.38,1.21.95,1.56,1.64-.32.37-.7.87-.77,1.24-.33.48-.54,1.04-.94,1.46-.13.2-.48.3-.45.57.32.71,1.37-1.09,1.52-1.39.24-.46.61-.84.89-1.29.05.14.09.29.13.44.1.29.01.67.22.9.06.04.12.05.16.05.09.85.78,2.27.25,3.67h0ZM42,32.65s-.03-.05-.04-.07c.03.02.06.03.1.04-.02,0-.04.01-.06.02h0ZM52.65,48.46c-.06.2-.13.41-.21.61,0,.02-.02.03-.02.05.08-.22.16-.44.23-.66h0ZM57.7,26.64s-.06.06-.09.1c.02-.03.04-.06.07-.08,0,0,.01,0,.02-.01h0ZM35.96,30.09c-.07-.07-.11-.17-.17-.25-.16-.21.14-.48.33-.3.21.03.42.37.24.54-.11.09-.29.13-.4,0h0ZM28.9,32.24c-.03-.23.21-.33.39-.39.38-.14.74-.35,1.06-.59.91-.63,1.98-1.92,1.15-3-.19-.22.16-.52.35-.29,1.32,1.8-.91,3.77-2.54,4.35-.09.17-.39.12-.41-.08h0ZM29.34,32.27s.02-.07.01-.1c0,.03,0,.07-.01.1,0,0,0,0,0,0h0ZM32.02,21.51c-.05-.22.18-.39.29-.55.2-.18.45-.72.75-.44.2.29-.3.51-.42.74-.13.12-.18.33-.34.4-.12.04-.24-.03-.28-.15h0ZM27,29.08c-.29-.13-.05-.45.03-.64.3-.55.58-1.17,1.07-1.57.31-.17.55.32.19.42-.29.33-.52.71-.72,1.09-.16.2-.24.82-.57.7h0ZM69.25,25.17c-.07-.26.19-1.17.56-.96.27.19-.08.46-.1.69-.04.14.02.35-.17.4-.12.04-.25-.01-.29-.14h0ZM68.03,27.73s-.08-.07-.12-.11c-.08.1-.17.11-.27.07-.06.08-.16.12-.27.07-.07-.03-.14-.04-.21-.04-.08.11-.29.13-.42.19-1.13.71.35,2.55.93,3.23.51.56,1.08,1.05,1.75,1.4.06.03.13.07.19.1.41.17.83.3,1.26.4.32.09.66.12.99.11h0c.58-.14,1.14-.41,1.66-.69,1.08-.67,2.09-1.46,2.89-2.46.7-.9,1.18-1.88,1.69-2.88.53-.45.71.48.55.85-.5,1.54-1.59,2.81-2.68,3.98-.94.87-2.04,2.67-3.41,2.66-.29-.02-.59-.07-.89-.14.19.22.26.55.15,1.15-.22,1.37-1.06,2.56-2.08,3.47-.36.33-1.28,1.12-1.78.85-.06-.05-.11-.1-.13-.16-.01,0-.02.02-.03.03-.06.06-.12.11-.18.17-.01.01-.03.03-.04.04-.05.05-.11.07-.18.09-.03,0-.06.01-.09.01-.18,0-.34-.14-.38-.31-.02-.1,0-.21.06-.3.03-.05.07-.08.11-.11,0,0,0,0,0,0h0s-.03.02-.04.03c.12-.1.23-.21.34-.32.17-.18.33-.36.48-.55.12-.16.24-.32.35-.49.1-.16.2-.32.29-.48.22-.4.42-.82.6-1.24.11-.27.2-.54.29-.81.05-.15.1-.29.14-.44-1.92-.79-3.48-2.36-4.28-4.28-.05-.13-.13-.36-.21-.63,0-.08-.01-.15-.02-.23,0-.15-.02-.3-.02-.46.01-.16.03-.32.06-.49.03-.15.07-.29.11-.44.03,0,.05-.01.08-.02.14,0,.26.05.33.15h0c0-.11,0-.23.02-.34.09-.52.5-1.14,1.09-1.11.03,0,.05.02.08.03.15-.03.31-.04.47-.02-.26-.54.08-1.22.45-1.65.09-.1.17-.25.32-.27.07,0,.12.02.16.05.12-.28.32-.51.57-.33.22.29-.3.37-.23.93.01.66.31,1.31.7,1.83.18.22.36.44.56.64.09.06.14.18.09.29-.05.11-.19.16-.3.11-.38-.33-.72-.72-.98-1.16-.06.15-.29.25-.57.01h0ZM68.08,26.1c.02.47.16.92.37,1.34-.02,0-.04-.01-.06-.02-.44-.26-.44-.85-.31-1.32h0ZM58.49,18.99c-.13-.06-.21-.13-.26-.2-.08-.09-.14-.2-.13-.33.03-.13.18-.19.3-.16.08.02.13.08.15.15,0,0,.01.01.02.02.03.03.06.06.1.08.03.02.06.04.08.06.08.05.17.09.26.11.28.08.15.52-.13.43-.12-.04-.26-.1-.39-.17h0ZM57.28,20.39s0-.01,0-.02c-.35-.12-.71-.3-.58-.56.22-.28.55.12.81.16.19.09.57.06.53.36-.02.11-.13.21-.25.19-.04.06-.11.1-.19.09,0,0,0,0,0,0,0,0,.02,0,.03,0-.16.04-.36-.03-.36-.22h0ZM74.15,25.33c-.19-.18-.61-1.18-.16-1.22.35,0,.24.54.39.76.07.14.22.28.09.43-.08.09-.23.11-.32.02h0ZM72.67,25.84c-.2-.33-1.41-2.07-.74-2.22.34,0,.23.46.38.67.22.52.53.94.79,1.41.08.26-.33.4-.43.14h0ZM71.01,27.02c-.48-.42-1.02-1.57-.99-2.22-.16-.21.03-.77.24-.91.16-.12.43,0,.41.21-.09.32-.27.63-.19.98.12.57.41,1.06.73,1.53.25.14.07.53-.2.41h0ZM65.94,30.12s-.04,0-.06,0c-.01-.02-.03-.04-.05-.07,0-.03-.02-.06-.03-.1-.02-.09-.04-.18-.06-.28h0c.06.15.12.29.2.43h0ZM69.7,33.52c.12.09.24.17.37.26,0,0,0,0-.01,0-.15-.1-.3-.2-.45-.31h0s.06.03.1.05h0ZM83.36,31.59c.1.05.16.16.09.3,0,0,0,0,0,0,0,0,0-.02.01-.03-.31,1.53-3.1,3.44-2.35,4.93.22.24.49.44.79.59.53.32,1.14.64,1.77.47.21-.09.42.19.26.36-.38.21-.88.14-1.3.16-.65-.07-4.56-.41-4.54-1.11.06-.32.42-.47.66-.66.43-.3.86-.62,1.2-1.02-.04-.13-.07-.25-.08-.39-.01-.12.09-.23.21-.24.19-.01.24.18.26.33.05,0,.08.03.11.06.37-1.01,1.2-1.88,1.88-2.68.21-.27.39-.56.53-.87.06-.13.12-.3.29-.31.12.02.19.06.22.11h0ZM67.32,32.17c-.17-.17-.34-.35-.49-.54.17.17.35.34.53.49-.02.01-.03.03-.05.05h0ZM51.58,22.02c.15.18.16.44.14.72h0c.2.48.1,1.51.05,1.83-.1.36-.13,1.15-.51,1.31h0c-.2.22-.67.17-.7-.22,0-.95.44-1.84.36-2.8.03-.26-.06-.57.11-.8.14-.16.39-.18.56-.04Z"/>
    <path class="cls-3" d="M27.42,17.96c-1.83-1.06-3.9-1.83-6.04-1.67-1.04.07-2.07.28-3.08.57-.76.25-1.47-.68-1.04-1.35.32-.53,1.03-.52,1.56-.68,1.99-.48,4.11-.57,6.09.03,1.19.4,2.36.87,3.44,1.51,1.03.59.09,2.2-.93,1.59h0ZM76.22,44.21c-.43-.45-1.5-.66-1.23-1.46.48-.96,1.47.01,2.01.4.69.5-.11,1.57-.78,1.05h0ZM73.5,42.26c-1.78-.93-3.8-1.24-5.79-.96-.93.33-1.35-1.09-.38-1.27,1.68-.24,3.47-.22,5.09.36.63.32,1.72.43,2.03,1.12.16.54-.46,1.03-.95.75h0ZM47.64,39.78c-.51-.13-.57-.73-.34-1.14.12-.48.46-1.05,1.04-.81.65.28.32.98.12,1.46-.06.36-.47.58-.82.49h0ZM41.75,45.99c.19-1.35,3.66-5.12,4.91-5.58.56-.02.89.74.46,1.12-.86.77-1.72,1.54-2.49,2.4-.58.69-1.19,1.38-1.58,2.19-.14.75-1.31.64-1.3-.14h0ZM70.05,21.46c-.9-.12-1.08-1.28-.11-1.39,1.28.01,1.38,1.63.11,1.39h0ZM67.22,20.54c-1.45-.43-2.92-.89-4.44-1-.37-.02-.74-.07-1.11-.01-.84.12-1.02-1.19-.18-1.3,1.47-.12,2.95.18,4.37.56.69.32,2.33.22,2.16,1.3-.09.34-.47.56-.81.46h0ZM38.06,32.38c-.2-.47.26-.78.52-1.1.35-.38,1.04-.09,1.03.42-.08.65-1.11,1.54-1.54.67h0ZM34.08,24.26c-.77-.25-.28-.99-.11-1.49.45-.96,1.8-.3.79,1.2.01-.02.02-.04.03-.06,0-.01,0-.02.01-.03-.1.29-.43.47-.73.38h0ZM29.55,31.07c-.46-.64.47-1.03.65-1.58.31-1.39,1.47-1.06,1.35-.17-.23.71-1.07,2.62-2,1.76h0ZM36.19,27.45s-.01-.06,0-.04c-.26-1.32,1.76-1.54,1.83-.21.15,1.19-1.64,1.44-1.82.25Z"/>
    <path class="cls-4" d="M90.09,46.62c.51,2.08.48,4.26.1,6.36-.32,1.37-.83,2.68-1.37,3.97-.83,2-1.91,3.91-3.26,5.6-.8,1.02-1.67,1.98-2.63,2.85-.2.18-.4.37-.6.55-.03.04-.06.08-.11.12-.03.03-.07.05-.1.08-.07.07-.15.13-.22.2-.09.1-.22.2-.35.24-.12.1-.24.19-.36.23-.24.17-.48.34-.72.5-2.21,1.54-4.75,2.61-7.38,3.17-2.69.48-5.39.54-8.1.46-4.13-.15-8.19-.98-12.22-1.83-.09,0-.17-.04-.22-.08-.39-.1-.78-.21-1.17-.34-.53-.23-1.12-.37-1.62-.67-.26-.08-.54-.14-.72-.34,0,0,0-.02-.01-.02h0s-.04-.04-.06-.06c-.14-.03-.28-.09-.38-.2-.26-.19-.17-.63.16-.67.6.07,1.18-.14,1.74-.32.44-.16.91-.26,1.31-.49,1.19-.66,2.41-1.25,3.58-1.94.12-.09.27-.15.41-.13.12-.09.23-.18.35-.28.02-.06.06-.12.12-.17.47-.36.94-.72,1.38-1.11.33-.29.64-.59.96-.89.36-.44.72-.91,1.04-1.38,1-1.34,1.55-2.84,1.64-4.5.06-.34-.21-.92.28-1.02.12-.02.22.02.28.1.06,0,.11.03.17.07,1.02.68,2.04,1.38,3.12,1.96,1.22.64,2.49,1.22,3.79,1.7.22.1.49.11.69.26.23.05.46.11.69.15.08.01.15.04.21.08,1.38.13,2.8.18,4.14-.25.62-.21,1.2-.51,1.76-.87,1.02-.62,2.01-1.32,2.82-2.21.42-.61.92-1.18,1.31-1.81.43-.66.77-1.37,1.14-2.07.01-.02.03-.03.05-.05.1-.48.18-.96.26-1.44.17-1.64-.4-3.26-1.19-4.68-.24-.31-.49-.69-.64-.85-.26-.37-.54-.73-.82-1.09,0,0,0,0,0,0-.78-.71-1.55-1.45-2.48-1.95-.93-.52-1.95-.84-2.98-1.09-.91-.21-1.83-.42-2.77-.46-.25-.01-.51-.04-.76-.01-.17.03-.38.03-.5-.1-.09,0-.17,0-.26,0-.07,0-.15,0-.23.01-.02-.1,0-.2.05-.29.07-.11.19-.16.31-.16.38-.34.64-.79.91-1.22.59-.96,1.16-1.94,1.36-3.06.07-.6.61-.55.76-.24.02.02.04.03.06.06.54.62,1.32.89,2.01,1.28.69.36,1.37.75,2.12.98.31.1.63.12.95.11.51.1.99.33,1.49.47,1.25.44,2.63.72,3.94.41.51-.13,1.09-.33,1.34-.83.39-.48.7.07.94.38.35.43.68.89,1.01,1.34.84,1.17,1.58,2.41,2.23,3.7.13.33.77,1.59.87,2.38.15.46.3.93.42,1.41Z"/>
    <path class="cls-1" d="M65.33,70.93c-1.2-.01-2.38-.24-3.56-.37-1.84-.18-3.69-.32-5.49-.72-1.02-.27-7.11-1.33-7.47-2.51-.42-.17-.44-.78.14-.75.8-.04,1.6-.19,2.35-.46,1.38-.43,2.66-1.08,3.87-1.85-.15.34-.09.76.17,1.04.17.19.42.3.67.3,0,0,.02,0,.03,0,.25,0,.46-.1.65-.26.18-.15.33-.33.51-.48.02-.01.04-.03.06-.05.22-.19.32-.5.29-.78-.03-.28-.19-.54-.43-.69-.12-.08-.26-.12-.4-.14.66-.48,1.31-.99,1.96-1.49-.07-.2.14-.33.25-.47.38-.43.69-.91,1-1.4.33-.49.62-1.01.86-1.56-.01.05-.02.1-.03.15-.05.21-.11.42-.19.63-.05.12-.11.24-.17.36-.25.42-.52.83-.81,1.22-.2.27-.41.55-.63.81-.04.04-.09.08-.13.12-.19.16-.3.43-.31.68,0,.26.09.51.26.69.17.19.42.3.68.31.01,0,.02,0,.03,0,.25,0,.47-.1.66-.26.31-.26.56-.59.8-.9.51-.66,1.03-1.36,1.36-2.13.32-.74.44-1.56.54-2.36.03-.26-.01-.51-.17-.72-.15-.2-.37-.34-.62-.38-.25-.04-.49.02-.69.15,0-.03.02-.06.02-.08-.09-.12-.04-.3-.04-.45,0-.45.09-.91,0-1.36-.01-.26.31-.38.49-.2.41.33.83.65,1.27.95,2,1.42,4.24,2.47,6.57,3.24.6.17,1.23.23,1.85.29.02-.01.05-.02.07-.02.46-.07.93-.12,1.39-.2.35-.06.69-.11,1.04-.17-.03.02-.06.05-.08.08-.17.18-.26.43-.25.68.02.49.44.89.93.89.01,0,.03,0,.04,0,.27-.01.53-.04.79-.1.24-.05.48-.12.71-.19.21-.07.42-.14.62-.23.19-.09.37-.18.56-.27.2-.1.4-.21.6-.32.17-.1.33-.22.5-.34.37-.26.72-.55,1.05-.86.11-.11.22-.22.32-.34.08-.1.14-.2.21-.3.13-.2.25-.4.36-.61.24-.45.06-1.02-.38-1.26-.14-.08-.3-.11-.45-.11.05-.06.1-.13.15-.19.29-.37.58-.74.86-1.12.06-.16.19-.34.25-.47.3-.57.56-1.17.82-1.77.06-.14.11-.28.16-.43.01-.04.02-.08.04-.12-.02-.11.04-.25.08-.36.56-2.36-.54-4.79-1.97-6.63-.05-.07-.06-.14-.04-.21-.38-.26-.86-.59-.76-.85.08.04.16.08.23.12.1.05.2.1.3.16.39.29.77.59,1.13.92-.02-.01-.03-.03-.05-.04.06.05.12.11.17.16.44.41.86.84,1.25,1.3.35.41.65.85.94,1.3,0,0,0-.01-.01-.02,0,0,0-.01-.01-.02,0,0,0,.01.01.02.17.27.35.54.51.82.24.43.46.87.64,1.32.11.27.2.55.28.83.06.19.11.38.15.58.04.18.07.37.18.52.11.15.28.25.46.25.04,0,.08,0,.12-.01.22-.05.38-.23.47-.43.37-.58.28-2.46.36-2.8.08-.11.15-.17.21-.2.08.2.15.39.25.58.09.17.19.33.32.46.12.13.27.25.43.32.45.18.98.1,1.35-.2.26-.21.46-.5.62-.78.1-.18.18-.36.24-.56.06-.2.11-.41.15-.62.04-.2.07-.4.08-.6.6.23.36,3.23.42,3.66-.05,2.38-.74,4.73-1.62,6.93-.85,1.75-1.88,3.4-3.01,4.98-.64.94-1.47,1.72-2.26,2.53-.94.97-1.91,1.92-3.03,2.67-1.63,1.04-3.39,1.86-5.19,2.57-2.54.92-5.27,1.02-7.96,1.02-.65,0-1.3,0-1.95,0h0ZM88.71,42.44s0-.03,0-.04c-.11-.52-.56-.93-.89-1.34.14-.26-.19-.48-.31-.68.13-.37-.3-.66-.49-.93-.23-.21-.42-.59-.74-.67-.03-.3-.39-.59-.54-.85-.17-.33-.49-.84-.91-.52-1.54,1.44-3.84.92-5.66.36-.68-.28-1.39-.35-2.12-.41-.8-.19-1.5-.64-2.24-1.01-.51-.28-1.02-.57-1.48-.92-.38-.21-.8-.99-1.25-.52-.51.73-.63,1.66-1.06,2.44-1.06,2.32-2.98,2.83.91,2.75.05.06.13.1.21.1s.16-.03.21-.1c.67-.4,1.44-.6,2.2-.69.43-.03.87-.02,1.3,0,.08-.03.16-.05.24-.05,0,0,.02,0,.03,0,.28-.02.56-.05.84-.07.33-.02.67.01,1,.04.08,0,.15.02.23.03.01,0,.03-.01.04-.02.19.03.39.07.58.11,1.03.1,2.07.24,3.08.46.44.07.88.16,1.31.26.29.07.57.14.86.21.31.08.61.18.9.29.6.23,1.19.52,1.76.82-.03-.01-.05-.03-.08-.04.09.04.17.09.26.14.02.01.05.03.08.04-.01,0-.03-.01-.04-.02,0,0,0,0,0,0l-.03-.02s.03.01.04.02h0s0,0,0,0c.42.22.83.46,1.2.74l.44.37h0c.07.07.15.14.22.22h0c.19.19.36.4.49.63-.04-.15-.13-.33-.25-.52.03-.08.02-.16-.05-.24-.03-.03-.07-.08-.11-.13-.01-.04-.04-.08-.08-.11-.01-.01-.02-.02-.03-.03-.02-.03-.04-.06-.07-.09h0ZM86.94,41.61s0,0,0,0c0,0,0,0,0,0,0,0,0,0,0,0,0,0,0,0,0,0,0,0,0,0,0,0h0ZM88.59,42.72l-.38-.32c.13.1.26.21.38.32h0ZM80.9,44.51l.02.02h0s0,0,0,0h0s0,0,0,0h0s0,0,0,0h0s0,0,0,0h0s0,0,0,0h0s0,0,0,0h0s0,0,0,0h0s0,0,0,0c0,0,.01.01.02.02,0,0,0,0,0,0,0,0-.02-.02-.03-.02h0s0,0,0,0h0s-.02-.01-.02-.02h0ZM80.93,44.53l-.03-.02s.02.02.03.02h0ZM80.93,44.53h0s0,0,0,0h0ZM77.39,57.26c-.21.14-.42.28-.63.41,0,0,.02,0,.03-.01.21-.12.41-.26.6-.4Z"/>
    <path class="cls-6" d="M30.72,35.53c-.15-.02-.22-.22-.11-.32,0,0,0,0,0,0-.31-.08-.24-.45-.02-.59.14-.06.3-.08.45-.13.35-.09.7-.19,1.03-.33.16-.05.3-.18.47-.17-.01-.08.02-.15.09-.19.17-.1.35-.19.52-.29.51-.28.99-.61,1.51-.87.03-.09.12-.15.19-.21.14-.13.28-.25.42-.38.36-.35.7-.72,1.01-1.11.14-.31.26-.64.34-.97.06-.17.07-.39.25-.48.04-.11.18-.16.28-.09.37.08.2.85.14,1.12-.15.53-.4,1.02-.79,1.41-.08.11-.16.22-.24.32-.03.04-.07.06-.11.07-.03.04-.07.07-.1.11.19.24-.29.48-.44.62-.49.37-1,.71-1.53,1.02-.28.17-.57.33-.83.48-.08.06-.19.07-.26,0-.38.24-.78.43-1.18.62-.12.16-.35.18-.52.26-.17.05-.34.14-.52.14h0ZM60.09,85.73s.09.03.13.06c.25.18.49.35.73.54.8.59,1.44,1.36,1.98,2.19.26.31.5.63.76.94.12.11.12.28.04.4.09.15.21.28.27.44.1.28.33.55.27.86-.07.22-.25.47-.5.47-.12,0-.23-.06-.28-.17-.03-.05-.04-.1-.04-.16-.25-.3-.3-.7-.53-1-.49-.85-1.07-1.66-1.73-2.38-.69-.52-1.4-1.03-2.09-1.55-.24-.23-.85-.48-.81-.85-.29-.21-.59-.39-.9-.56-.43.04-1.16-.47-1.58-.65-.74-.39-1.51-.73-2.25-1.12,0,0,0,0,.01,0-.41.11-.76-.28-1.11-.44-.45-.27-.87-.58-1.33-.82-.65-.56-1.3-1.14-1.85-1.81-.18-.22-.32-.47-.46-.72-.34-.38-.74-.73-.98-1.19-.05-.14,0-.26.09-.33-.43-.93-.72-1.93-.82-2.95-.04-.22.03-.44-.02-.66-.06-.14-.07-.32.01-.43,0-.08.02-.16.04-.23.07-.47.17-.92.31-1.38-.25-.37.41-1.16.59-1.52.31-.41.53-.95.95-1.26.23-.35.73-1.05,1.17-1.1.74-.1.77.62.26.62.06.35-.5.82-.66,1.12-.35.5-.73,1.03-.99,1.58-.14.58-.28,1.17-.38,1.76-.04.23.03.56-.06.79.01.03.02.06.03.1.03.24.06.49.08.73.06.34.12.68.17,1.01,0,.03,0,.06,0,.09.06.09.11.2.15.29.25.52.45,1.06.69,1.57.68,1.19,1.72,2.1,2.81,2.92,1.16.82,2.47,1.46,3.74,2.06.79.21,1.51.63,2.19,1.09.3.2.65.37.77.73.39.28.77.59,1.13.91h0ZM90.39,47.63c-.07-.11-.07-.24.05-.37.06-.06.13-.08.21-.08.14-.1.3-.18.43-.3.78-.67,1.47-1.4,2.1-2.19.37-.46.71-.93,1.09-1.38.24-.44.48-.88.65-1.35.11-.21.14-.54.4-.62.4-.69.47-1.49.62-2.26.07-.28.06-.62.26-.85.01-.97.08-1.97-.22-2.9-.29-.73-.56-1.42-.88-2.12-.2-.19-.34-.43-.51-.65-.35-.52-.78-.96-1.26-1.36-.23-.2-.46-.41-.7-.6-.02-.01-.04-.02-.06-.04-.31-.14-.62-.28-.93-.4-.18-.07-.37-.14-.55-.22-.09-.04-.22-.06-.27-.17-1.49-.36-3.01-.71-4.55-.56-.62.09-1.24.14-1.86.26-.32.13-.65.26-.97.39-.14.06-.28.11-.42.16-.09.03-.2.05-.28,0-.11-.08-.15-.21-.22-.32-.06-.1-.15-.23-.08-.35.05-.1.2-.13.29-.06.1-.05.19-.1.29-.14.05-.12.2-.14.31-.19.23-.08.47-.15.7-.23.23-.07.47-.14.7-.2.12-.03.27-.11.38-.03.65-.12,1.3-.19,1.96-.26.21,0,.44-.07.64.02.54,0,1.08.06,1.62.15.26.05.53.07.8.11.06,0,.12.02.17.05.08.03.16.03.24.05.28.06.57.12.85.17.2.06.58.04.6.32.35.13.69.3,1.02.47.17.11.45.18.5.4.06.02.11.04.16.07.49.04.85.49,1.18.81.56.58,1,1.27,1.32,2.01.36.56.56,1.21.74,1.85.22.14.16.44.18.66,0,.35.05.7.08,1.05.3.2.11.65.12.95-.07.74-.17,1.48-.24,2.23.14.68-.72,2.61-1.1,3.24-.23.32-.35.77-.69,1-.67,1.04-1.58,1.88-2.43,2.78-.31.27-.74.98-1.15.99-.31.25-.58.68-1.01.72-.35-.04-.36-.42-.29-.72h0ZM18.99,50.72c-.14-.03-.45-.04-.67-.12-.04.07-.12.12-.22.11-.74-.19-1.48-.51-2.17-.82-.24-.12-.51-.17-.76-.29-.2.07-.51-.23-.68-.32-.26-.18-.53-.34-.78-.54-.41-.34-.83-.68-1.19-1.09-.18-.24-.31-.52-.49-.75-.12-.23-.23-.47-.32-.71-.17-.4-.32-.8-.44-1.22-.03-.13-.11-.35-.07-.5-.02-.14-.03-.29-.03-.44-.01-.27-.02-.55-.03-.82,0-.1-.01-.22.05-.3.04-.23,0-.96.28-.99.19-.63.42-1.25.72-1.84.11-.19.18-.42.34-.57,0-.04.01-.08.04-.12.13-.16.29-.28.44-.41.22-.18.43-.36.66-.54.1-.19.34-.29.51-.4.24-.14.47-.28.71-.41.02-.15.2-.19.32-.26.18-.08.37-.16.56-.23.31-.11,1.73-.72,2.01-.57.03-.08.13-.15.28-.18,1.4-.28,2.82-.52,4.25-.67.1-.14.31-.11.46-.15.28-.04.57-.07.86-.1.69-.08,1.39-.19,2.08-.27.2-.03.4-.05.59-.06.11,0,.24-.02.3.09.1.24-.13.3-.31.32,0,.03,0,.07,0,.1.04.08.01.19-.07.24,0,.1-.06.19-.16.2-.24.04-.49.04-.74.06-.4.02-.79.07-1.19.13-.03.02-.06.04-.1.05-.78.13-1.56.22-2.34.35-.01,0-.03.01-.05.01-.03,0-.06,0-.09.01-.04,0-.09.01-.13.02-.68.18-1.37.31-2.07.4-.23.03-.46.07-.7.11-.09,0-.19.05-.29.03-.41.1-.82.21-1.21.34-.72.25-1.39.61-2.1.89.11.22-.29.42-.41.56-.29.25-.58.5-.86.75-.23.2-.39.47-.58.7-.18.34-.32.7-.48,1.04-.08.48-.17.96-.25,1.43-.02.1-.03.19-.05.29.07.27.05.59.08.86.02.27.05.54.09.81.02.18.13.38.06.56,0,.04.01.08.02.12.3.44.45.98.77,1.41.29.38.64.72.98,1.05.29.23.59.45.89.68.2-.02.39.1.57.15.49.18.97.38,1.46.56.48.05.95.1,1.43.16.23.01.46.02.69.04.05,0,.1.03.13.06.39.02.78.03,1.17.01.2,0,.41-.06.6,0,.2,0,.41-.02.61-.02.14-.01.31.05.31.21.19,0,.41.19.27.38-.15.17-.4.16-.6.2-.5.05-.98.14-1.48.19-.49.02-.99.03-1.48-.03Z"/>
    <path class="cls-5" d="M22.26,49.82c.28.04.43.39.21.6-.42.28-1.06.17-1.55.23-.27.27-1.12.12-1.5.13-.04.02-.08.03-.13.03-.79-.1-1.6-.23-2.36-.48-.21-.08-.48-.11-.63-.29-.05-.02-.09-.03-.14-.05-.35.06-1.23-.5-1.62-.65-.28-.18-1.68-.74-1.53-1.19-.09-.09-.18-.17-.26-.26-.53.14-.47-.71-.69-1.01-.53.08-.68-1.29-.76-1.68-.33-.02-.28-.43-.28-.67.02-.42.05-.83.09-1.25.16-1.64.22-1.94,1.16-3.31-.17-.41.97-1.33,1.31-1.52-.02-.36,1.29-.87,1.61-1.1.41-.19,2.26-1.24,2.54-.79.11-.03.22-.05.33-.05-.08-.18.04-.42.25-.4.07,0,.12.03.16.06.04-.02.08-.03.13-.04.07.02.13.05.19.1.03.04.05.08.06.13,0-.05-.03-.09-.06-.13.18.15.3.4.55.43.33.11.16.6-.16.5-.04,0-.09-.03-.15-.05-.11.11-.3.13-.45.16-.63.14-1.2.3-1.8.51-.09.24-.39.31-.59.45-.62.36-1.27.68-1.9,1.03-.56.27-.78.83-1.09,1.33-.24.31-.35.66-.4,1.04-.18.81-.35,1.62-.44,2.44.25.15.32,1.39.42,1.76.01.12.07.32.12.53.07.02.15.07.21.17.24.36.56.67.86.96.16.19.52.35.44.65.18.21.39.34.65.42.41.17.81.35,1.22.52.39.16.77.3,1.16.45.34.03.69.06,1.03.08.76.04,1.51-.02,2.27-.05.35.03,1.48-.19,1.53.27h0ZM55.04,84.1s-.09-.06-.13-.09c-.08-.06-.13-.14-.13-.24-.04-.05-.08-.1-.11-.15,0,0-.02-.02-.02-.03-.37.28-1.19-.43-1.59-.56-.58-.13-1.08-.57-1.6-.86-.8-.54-1.58-1.1-2.16-1.88-.51-.74-1.27-1.52-1.31-2.44-.6-1.11-1.15-2.41-1.02-3.7.05-.45-.13-1.29.43-1.44.01-.09.03-.18.05-.27.05-.27.13-.53.22-.78-.05-.41.3-.77.46-1.12.11-.25.49-.77.74-.68v-.02c.46-.79,1.06-1.72,1.55-1.47.7.47-.25,1.07-.55,1.48-.86,1.2-1.56,2.59-1.57,4.09.03,2.89,1.68,5.57,4.17,7.02.46.3.92.59,1.38.88.34.23.72.4,1.05.64.11.21.21.41.33.62.23.4.47.8.73,1.19-.05.04-.11.07-.18.07-.05,0-.11-.02-.17-.06-.09-.06-.16-.14-.23-.22-.08.08-.19.12-.33.03h0ZM50.48,80.12s.04.08.05.12c0,0,0,0,0,0,.02-.01.04-.02.06-.02-.04-.04-.08-.07-.12-.11h0ZM90.64,48.27c-.27-.18-.39-.75-.15-1,.15-.4.6-.57.87-.88.84-.77,1.71-1.53,2.47-2.39.62-.85,1.1-1.79,1.58-2.72.24-.67.36-1.4.66-2.03.04-.17.08-.33.11-.49-.17-.31,0-.72-.03-1.07.01-.47.03-.95,0-1.42.11-.23.22-.46.31-.69.07-.19.15-.39.21-.58.05-.15.09-.3.13-.45.02.02.04.04.05.07.09.24.04.51.04.76.26.22.22.64.26.95.34.21.07.84.13,1.18.36.35-.15,2.08-.26,2.59-.23.82-.57,1.61-1.04,2.33-.65,1.34-1.55,2.54-2.58,3.61-.59.63-1.76,2.26-2.7,2.26-.02,0-.04,0-.07,0h0ZM82.75,30.06c-.08-.07-.12-.17-.12-.27-.33-.47.02-.77.48-.88.83-.28,1.69-.59,2.57-.54,0-.09.03-.16.09-.2.13.23.26.45.39.67.06.09.12.19.18.28-.17.05-.41,0-.59-.16-.07.26-1.09.42-1.4.62-.3.12-.94.55-1.36.55-.09,0-.18-.02-.24-.07h0ZM36.94,29.25c.23-.16.52.15.36.37.12.29.08.99-.39.8-.08-.04-.15-.09-.24-.13-.16-.08-.19-.32-.05-.43-.03-.24.06-.55.32-.61h0ZM26.23,35.16c.2.13.08.64.1.87,0,.14-.15.25-.28.24-.36-.05-.2-.48-.23-.73-.05-.26.15-.55.42-.38h0ZM33.03,34.45c.07,0,.13-.01.2-.02-.02.21-.32.32-.68.37.02.13-.08.27-.21.29-.43.07-.86.16-1.3.1,0,0,0,0,0,0-.05.28-.58.31-.59-.03,0-.05,0-.09.02-.13-.04-.21-.14-.47.06-.61.05-.03.11-.05.16-.04.01-.07.05-.13.11-.17.19-.1.43.02.64.06.06.06.14.1.22.12.08.03.16.04.24.04.11,0,.22.02.33.02.11,0,.22,0,.33,0,.15,0,.31,0,.46-.02Z"/>
    <path class="cls-9" d="M82.12,29.3c.85.93,1.32,1.65.56,2.84-.45.79-1.04,1.48-1.61,2.19-.84,1.11-1.87,2.03-3.07,2.72-.36.23-.75.54-1.2.37-.91-.3-1.64-.95-2.47-1.39-.31-.22-.99-.45-1.08-.83-.21-.04-.32-.31-.18-.48.33-.31.75-.49,1.08-.8,1.19-1.11,2.18-2.44,3.21-3.7.45-.66.9-1.4,1.26-2.1.26-.49.29-1.09,1.02-.84.54.16.95.56,1.36.93.39.35.78.69,1.13,1.08Z"/>
    <path class="cls-9" d="M30.42,35.99c.02.46-.37.62-.75.71-.38.08-.77.2-1.15.18-.45.08-.91.17-1.37.21-.47-.06-.65-.5-.7-.92-.11-.25-.41-.87-.25-1.12-.26-.61.5-.59.89-.67.94-.14,1.91-.44,2.86-.29.58.24.48,1.36.48,1.9Z"/>
    <path class="cls-11" d="M27.05,37c-.21.03-.5-.07-.43-.34-.03-.04-.04-.08-.05-.13,0-.01,0-.03,0-.04-.31-.12-.17-.54.14-.53.63-.05,1.24-.13,1.85-.24.5-.1,1-.21,1.49-.35.32-.15.62.19.35.45.52,1.31-2.61,1.13-3.35,1.17h0ZM81,32.75c-.64-.11-1.61-.96-1.7-1.61,0-.36.57-.35.54.02.08.19.27.42.49.63-.02-.09,0-.19.1-.27.1-.09.2-.18.3-.28.47-.56.97-1.27.77-2.03-.04-.14.06-.28.19-.32.26-.03.34.17.37.4.17.01.32.2.23.41.36.54-.53,1.65-.89,2.07-.14.19-.43.41-.61.13,0,0,0,0,0,0-.07.07-.14.1-.21.09.17.12.35.21.5.22.73-.41,1.26-1.23,1.39-2.05.05-.34.58-.25.52.08-.12.93-.99,2.37-1.99,2.5h0ZM80.43,31.51s.06-.04.1-.05c-.03.01-.07.02-.1.05h0ZM72.84,35c.03.2.18.25.32.22.11.17.35.26.51.37.43.26.85.51,1.3.73.7.31,1.37.77,2.13.89.79.11,1.42-.48,2.02-.91.36-.27.71-.54,1.06-.82.23-.21.79-.52.46-.87-1.22-.17-1.96-.8-2.86-1.61-.51-.44-.96-1-1.32-1.57-.29-.16-.51.2-.34.44-.3.02-.41.42-.61.6-.31.38-.62.72-.98,1.06-.37.41-.93.69-1.25,1.14-.19-.09-.46.09-.43.31Z"/>
  </g>
  <g>
    <path class="cls-8" d="M26.95,37.28c-.87-.12-.76-.58-.91-1.27-.08-.37-.17-.73-.27-1.09-.05-.13-.06-.32.11-.36-.03-.32.88-.37,1.12-.42.92-.13,1.85-.26,2.78-.27.25-.01.55.06.63.34.11.34.16.7.22,1.06.05.38.09.77.04,1.16-.02.25-.25.38-.47.44-.53.16-1.07.26-1.61.35-.54.08-1.09.16-1.63.08h0ZM27.72,36.93c.64-.05,1.26-.16,1.88-.31.23-.06.47-.1.68-.21.05-.22.02-.45.02-.67-.03-.36-.09-.72-.16-1.07-.03-.13-.05-.26-.1-.38-.03-.05-.1-.04-.14-.05-.98-.02-1.95.14-2.91.27-.29.05-.59.08-.86.21.18.66.31,1.3.44,1.96.13.29.89.25,1.16.24Z"/>
    <path class="cls-8" d="M30.45,34.55c-.03-.1.03-.2.13-.23.27-.07.54-.16.8-.25.35-.12.69-.26,1.02-.43,1.33-.7,3.29-1.84,3.81-3.31.07-.2.12-.41.11-.63-.03-.13.04-.27.18-.27.28.02.19.39.18.58-.3,1.9-2.88,3.37-4.49,4.14-.49.21-1,.38-1.51.52-.1.03-.2-.03-.23-.13Z"/>
    <path class="cls-8" d="M19.15,51.07c-1.29-.09-2.56-.5-3.75-.96-1.45-.69-2.93-1.59-3.7-3.04-.78-1.42-.99-3.1-.73-4.69.23-1.27.86-2.45,1.7-3.42,1.75-1.95,4.38-2.73,6.89-3.15,1.56-.25,3.12-.47,4.7-.61.61-.05,1.24-.11,1.83-.26.1,0,.19.09.19.19,0,.12-.1.18-.21.2-.69.18-1.41.21-2.12.28-1.57.15-3.13.37-4.68.63-2.58.46-5.32,1.39-6.84,3.65-.48.72-.86,1.52-1.04,2.36-.32,1.69-.08,3.52.86,4.99.54.81,1.32,1.41,2.14,1.9.54.32,1.1.62,1.69.82,0,0,0,0,0,0,0,0,0,0-.01,0,.98.34,2,.66,3.04.74,1.11.05,2.24-.02,3.3-.33.24-.06.34.29.1.36-1.08.3-2.22.39-3.33.34Z"/>
    <path class="cls-8" d="M30.62,35.68c-.14-.07-.12-.31.04-.35.37-.08.72-.2,1.07-.32.56-.2,1.12-.44,1.65-.71,1.33-.73,2.87-1.75,3.49-3.19.24-.54.43-1.15.28-1.74-.14,0-.28.08-.36.19.06.19-.2.33-.32.17-.21-.32.21-.65.5-.71.35-.1.58.11.59.46.03.28.03.57-.03.85-.12.57-.37,1.11-.67,1.6-1.03,1.51-3,2.67-4.69,3.31-.33.13-.67.25-1.02.35-.13.04-.26.07-.39.1-.05.01-.1,0-.14-.01Z"/>
    <path class="cls-8" d="M19.3,49.81c-.76-.03-1.51-.11-2.25-.27-1.51-.37-2.96-1.21-3.8-2.54-1.56-2.32-1.17-5.67.78-7.65.84-.78,1.88-1.32,2.94-1.72,1.08-.39,2.23-.56,3.36-.77,1.75-.36,3.49-.63,5.27-.74.21,0,.41,0,.62,0,.08,0,.17.04.2.12.05.13-.06.28-.2.26-.66-.04-1.32.05-1.97.11-.89.11-1.79.21-2.67.39-1.45.31-2.93.47-4.34.93-.77.27-1.47.62-2.15,1.05-2.1,1.34-2.89,4.19-2.15,6.51.66,1.93,2.07,3.09,4,3.63,1.3.31,2.65.36,3.98.32.37-.02.73-.05,1.1-.11.1-.02.2.07.21.16.01.11-.06.19-.16.21-.17.03-.33.05-.5.07-.75.07-1.5.07-2.25.03Z"/>
    <path class="cls-8" d="M36.01,30.51c-.24-.16-.39-.42-.43-.71-.02-.2-.1-.64.21-.62.23.05.13.25.14.41,0,.25.1.5.32.63.15.16-.06.41-.24.29Z"/>
    <path class="cls-8" d="M37.47,29.34c-.1-.1-.02-.24.02-.35.09-.23.2-.44.28-.67.26-.63.15-1.49-.53-1.8-.22-.11-.08-.44.15-.34.98.45,1.06,1.64.64,2.52-.06.15-.14.3-.19.44-.03.07-.04.15-.1.21-.07.07-.2.07-.27,0Z"/>
    <path class="cls-8" d="M36.15,26.13c-.72-.11-1.41-.41-1.97-.87-.19-.16.04-.44.24-.29.2.16.41.3.63.42.36.18.72.29,1.11.37.06-.01.13,0,.18.05.13.14,0,.35-.18.32Z"/>
    <path class="cls-8" d="M29.14,42.94c-.25-.02-.24-.37.01-.38.38,0,.75-.04,1.13-.07.98-.1,1.95-.28,2.89-.53,1.73-.48,3.17-1.59,4.63-2.6,1.53-1,3.9-2.04,3.62-4.23-.12-.68-.44-1.31-.59-1.99-.13-.53-.06-1.08.02-1.61.08-.58.13-1.18.11-1.75.02-.85-.47-1.59-.97-2.24-1.31-1.56-3.26-2.46-4.43-4.14-.47-.72-.91-1.5-1.44-2.16-.53-.67-1.15-1.28-1.79-1.85-1.75-1.65-3.88-2.9-6.12-3.76-1.06-.4-2.15-.64-3.25-.85-.79-.16-1.59-.24-2.39-.27-.58-.03-1.16,0-1.74.04-.1-.01-.17-.12-.16-.22.02-.1.1-.16.19-.16,0,0,0,0,0,0,0,0-.02,0-.02,0,1.7-.16,3.41.03,5.07.41,1.73.34,3.37,1.01,4.91,1.83,1.55.81,2.92,1.89,4.18,3.09.82.76,1.55,1.61,2.15,2.55.3.47.57.97.92,1.41.22.26.45.51.69.74,1.22,1.17,2.76,2.02,3.76,3.41.45.61.81,1.33.8,2.11.01.52-.02,1.04-.08,1.56-.07.54-.17,1.05-.09,1.58.14.83.59,1.59.66,2.44.05.78-.27,1.56-.77,2.15-.82.95-1.98,1.51-3.02,2.19-1.4.96-2.77,2.02-4.4,2.55-.53.18-1.08.3-1.63.4-.94.19-1.91.32-2.87.33Z"/>
    <path class="cls-8" d="M10.92,42.41c-1.99-.84-3.89-2.03-5.26-3.73-1.11-1.4-1.97-3-2.49-4.71-.49-1.66-.66-3.43-.53-5.15.27-3.5,2.03-6.75,4.36-9.31.81-.83,1.68-1.61,2.63-2.27,1.9-1.26,4.04-2.19,6.28-2.66.92-.2,1.85-.31,2.79-.38.1,0,.2-.01.3-.03.06-.02.12-.02.18.01.15.1.09.33-.09.35-.29.05-.59.05-.89.08-4.11.34-8.12,2.14-10.95,5.16-1.9,2.11-3.4,4.62-4,7.4-.46,2.23-.35,4.55.29,6.72.65,2.05,1.75,4,3.3,5.49.88.84,1.9,1.5,2.97,2.07.41.22.83.4,1.26.59.21.09.09.44-.15.34Z"/>
    <path class="cls-8" d="M15.69,43.99c-.76-.13-1.51-.3-2.23-.58-.29-.11-.58-.21-.86-.35-.11-.05-.24-.13-.21-.27.03-.17.24-.21.35-.08.73.33,1.5.6,2.28.77.24.05.48.1.73.14.1.02.17.11.16.21-.01.1-.11.17-.21.16Z"/>
    <path class="cls-8" d="M18.22,44.89c-1.13-.22-2.4-.6-3.02-1.66-.46-.78-.54-1.42-.25-2.28.15-.55.58-.95,1.07-1.21.45-.27,1.01-.36,1.51-.38.56-.03,1.12.04,1.65.18.15.02.34.11.27.3-.04.09-.15.14-.25.1-.11-.04-.22-.06-.31-.08-.42-.09-.89-.13-1.31-.12-.44.02-.88.07-1.27.27-.35.19-.72.41-.9.78-.21.48-.36,1.05-.2,1.57.29.93.91,1.5,1.82,1.82,1.15.42,2.38.51,3.59.45,1.08-.05,2.93-.47,3.25-1.66.01-.07.02-.14.02-.21,0-.16.22-.25.32-.13.04.04.05.08.05.13.02.6-.41,1.12-.89,1.43-1.46.97-3.49.93-5.16.68Z"/>
    <path class="cls-8" d="M19.57,43.93c-.89-.02-1.81-.28-2.47-.9-.36-.34-.6-.87-.5-1.37.07-.33.32-.59.59-.79.49-.32,1.1-.36,1.67-.33.17.04.48-.07.52.18.01.28-.33.21-.51.2-.14,0-.29-.01-.43,0-.57.02-1.26.22-1.46.82-.12.83.7,1.36,1.38,1.62.55.17,1.15.26,1.72.17.14-.03.31-.06.39-.2.13-.21.25-.42.42-.6.09-.09.2-.17.3-.24.14-.1.34-.15.42-.32-.49-.14-1.06-.12-1.44-.5-.17-.18.09-.43.27-.26.28.25.66.28,1.01.34.39.04.72.27.45.67-.12.2-.34.28-.53.4-.32.19-.45.54-.67.82-.28.3-.74.3-1.13.31Z"/>
    <path class="cls-8" d="M40.75,46.28c-.74-.45-1.45-.85-2.24-1.16-1.3-.54-2.63-.98-3.99-1.32-2.21-.56-4.52-.95-6.8-.65-.46.06-.9.15-1.34.26-.21.05-.41.11-.61.16-.1.03-.2-.03-.23-.13-.03-.1.03-.21.13-.23.35-.09.69-.19,1.04-.27,1.95-.43,3.99-.32,5.94.05,1.97.37,3.9.92,5.76,1.67.88.34,1.73.78,2.53,1.28.2.13.03.45-.19.32Z"/>
    <path class="cls-8" d="M49.08,66.96c-2.86-.87-5.49-2.32-8.01-3.91-.94-.6-1.86-1.24-2.82-1.81-1.5-.87-3.02-1.61-4.55-2.41-2.17-1.1-4.37-2.18-6.31-3.67-3.02-2.12-5.4-4.89-6.73-8.36-.22-.58-.41-1.18-.56-1.78-.03-.08,0-.18.07-.22.12-.08.28,0,.3.13.05.19.1.4.15.58.16.55.35,1.09.58,1.62,1.72,4.08,4.59,6.64,8.23,8.98,1.57.96,3.23,1.76,4.87,2.6,1.63.85,3.29,1.65,4.84,2.63,1.02.65,2.01,1.34,3.05,1.96,1.62.98,3.28,1.88,5.03,2.6.65.26,1.3.49,1.97.7.1.03.15.14.12.23-.03.1-.14.15-.23.12Z"/>
    <path class="cls-8" d="M37.73,34.26c0-.09.06-.16.12-.21.19-.19.37-.39.52-.61.25-.39.38-.85.59-1.26.16-.33.36-.64.63-.9.21-.21.42-.44.52-.72.1-.22.44-.08.35.15-.04.09-.08.18-.13.26-.3.47-.79.8-1.01,1.33-.25.49-.39,1.04-.73,1.48-.15.2-.32.39-.51.57-.09.17-.35.1-.35-.09Z"/>
    <path class="cls-8" d="M28.81,32.5c-.2-.14-.04-.34.11-.44.31-.25.67-.44,1.01-.65.57-.37.98-.94,1.29-1.54.27-.53.44-1.17.06-1.69-.09-.11-.18-.26-.04-.37.08-.06.2-.05.26.03.5.58.45,1.37.13,2.03-.38.85-.99,1.6-1.82,2.05-.28.16-.51.3-.74.5-.06.09-.17.13-.26.07Z"/>
    <path class="cls-8" d="M33.94,24.47c-.19-.08-.12-.38.08-.36.33-.21.57-.56.72-.92.07-.2.09-.42.09-.64,0-.1.09-.18.19-.18.3.02.15.52.14.71-.04.4-.77,1.54-1.22,1.4Z"/>
    <path class="cls-8" d="M26.58,29.32c-.1-.03-.15-.14-.12-.23.08-.4.25-.77.46-1.11.25-.42.53-.84.85-1.21.1-.12.26-.31.42-.15.07.07.07.2,0,.27-.2.2-.36.42-.52.64-.26.39-.53.79-.71,1.23-.05.15-.09.3-.13.45-.02.1-.14.15-.23.12Z"/>
    <path class="cls-8" d="M31.92,21.59c-.13-.11-.04-.25.02-.36.21-.39.49-.75.83-1.04.18-.16.43.1.26.27-.1.09-.2.18-.29.28-.19.21-.33.42-.46.66-.06.16-.17.32-.35.19Z"/>
    <path class="cls-8" d="M40.61,48.29c-.33-.21.09-1.24.23-1.53.75-1.63,1.95-2.99,3.1-4.35,1.5-1.77,2.93-3.63,3.99-5.71.55-1.05.91-2.21,1.59-3.18.21-.31.47-.59.74-.85.17-.12.42-.49.62-.27.06.08.05.2-.03.26-1.35.99-1.81,2.66-2.53,4.09-1.07,2.15-2.54,4.06-4.08,5.88-1.21,1.44-2.52,2.88-3.21,4.65-.07.24-.15.48-.16.73.1.15-.09.37-.25.26h0ZM40.86,48.03s-.02-.02-.03-.03c0,0,0,0,0,0,0,0-.01-.01-.02-.02,0,0,0,0,0,0,0,0-.01,0-.02-.01.02.02.04.04.06.06Z"/>
    <path class="cls-8" d="M41,46.35c-.33-.14-.07-.54.19-.32.21.13.01.44-.19.32Z"/>
    <path class="cls-8" d="M49.43,33.73c-.13-1.9-.6-3.77-.74-5.67-.12-1.17-.05-2.41.52-3.46.19-.34.42-.66.63-.99.21-.31.41-.63.63-.95.17-.23.32-.49.57-.65.43-.23.78.26.88.63.22.75.09,1.56-.14,2.29-.05.18-.11.35-.17.53-.04.15-.11.29-.29.23-.17-.08-.11-.24-.06-.37.17-.5.34-1.02.38-1.55.03-.44.03-.93-.22-1.32-.04-.06-.1-.13-.17-.13-.21.12-.32.36-.47.55-.42.66-.89,1.29-1.28,1.98-.29.57-.42,1.21-.48,1.85-.04,1.48.22,2.92.44,4.37.15.87.28,1.74.34,2.62.03.24-.33.3-.37.05Z"/>
    <path class="cls-8" d="M55.02,24.05c-.1,0-.19-.09-.19-.19.01-.22,0-.45-.08-.66-.13-.39-.47-.75-.91-.77-.47-.02-.99.1-1.31.47-.18.22-.32.47-.46.73-.09.15-.13.48-.38.39-.18-.09-.1-.26-.03-.4.12-.27.27-.53.43-.77.42-.66,1.33-.92,2.07-.73.38.12.69.43.86.79.14.3.18.63.17.96,0,.1-.08.19-.19.19Z"/>
    <path class="cls-8" d="M57,25.13c-.27-.06-.11-.4-.15-.59-.08-.73-.87-1.23-1.56-1.18-.13.2-.42.03-.33-.19.22-.36.79-.16,1.11-.06.35.12.67.36.88.66.12.17.21.35.25.55.05.21.03.43.01.64-.01.1-.11.17-.21.16Z"/>
    <path class="cls-8" d="M58.41,26.65c-.14-.02-.18-.17-.15-.29.02-.24,0-.48-.11-.7-.19-.33-.53-.6-.91-.7-.42.12-.41-.79.61-.14.42.28.76.7.79,1.22,0,.2.08.62-.22.6Z"/>
    <path class="cls-8" d="M70.81,59.02c-2.26-.3-4.3-1.33-6.22-2.49-1.42-.85-2.83-1.71-4.18-2.66-1.11-.78-2.13-1.69-3.13-2.61-.47-.45-.94-.89-1.36-1.39-.61-.76-1.29-1.49-1.64-2.41-.79-1.84-.86-3.88-.57-5.84.17-1.66.63-3.27,1.38-4.76.66-1.45,1.49-2.81,2.39-4.12.65-.93,1.23-1.92,1.6-2.99.18-.51.33-1.06.21-1.6-.1-.51-.35-1-.72-1.36-.08-.07-.17-.14-.27-.19-.09-.02-.15-.1-.15-.19.1-.48.68.1.84.27.31.39.55.84.65,1.33.25,1.09-.33,2.24-.79,3.21-.31.61-.69,1.18-1.07,1.74-.69,1.02-1.37,2.06-1.92,3.16-.42.85-.84,1.71-1.16,2.6-.31.89-.48,1.8-.6,2.73-.26,1.78-.29,3.63.32,5.34.16.45.33.9.59,1.3.2.29.42.57.64.85.53.7,1.14,1.35,1.78,1.94,1.17,1.11,2.36,2.14,3.7,3.03,1.45.98,2.95,1.89,4.46,2.77,1.54.87,3.17,1.64,4.93,1.91.5.1,1.03.13,1.53.09.24-.01.47-.03.71-.05.1,0,.2.06.21.16.01.1-.06.2-.16.21-.66.06-1.33.12-2,.02Z"/>
    <path class="cls-8" d="M42.39,57.55c-2.51-.19-4.96-.81-7.35-1.58-1.5-.44-2.95-1.05-4.37-1.71-1.43-.63-2.83-1.36-4.14-2.23-1.52-1.03-2.88-2.54-3.14-4.41-.04-.22-.07-.45-.1-.67-.01-.1.07-.19.17-.2.23,0,.2.25.23.41.06.37.12.73.22,1.09.27.94.87,1.73,1.54,2.42.7.69,1.5,1.22,2.34,1.71,1.06.62,2.16,1.16,3.28,1.65,1.68.79,3.41,1.41,5.19,1.92,1.67.52,3.39.91,5.13,1.12,1.5.17,3.04.29,4.52-.09,1.36-.36,2.5-1.28,3.35-2.38,1-1.32,1.77-2.79,2.41-4.31.68-1.65,1.23-3.35,1.56-5.11.1-.57.23-1.14.3-1.72-.02-.27.41-.28.37.03-.43,3.02-1.31,5.99-2.71,8.71-.72,1.36-1.53,2.72-2.69,3.76-1.69,1.59-3.93,1.8-6.14,1.6Z"/>
    <path class="cls-8" d="M23.53,46.2c-.16-.03-.17-.2-.12-.33.04-.15.1-.39.31-.33.21.09.1.27.05.42-.01.13-.09.26-.24.23Z"/>
    <path class="cls-8" d="M72.97,58.98c-.13,0-.31.04-.37-.12-.04-.1.01-.2.11-.24.16-.04.33,0,.5-.02,1.28-.12,2.51-.64,3.58-1.33,1.84-1.14,3.21-2.66,4.13-4.61.57-1.07.86-2.3.78-3.51-.14-2.78-2.28-5.54-4.47-7.12-.94-.63-1.96-1.09-3.05-1.39-1.42-.36-2.9-.46-4.36-.47-.84,0-1.68-.03-2.51-.08-.23,0-.26-.37,0-.38.79.04,1.57.08,2.36.08,1.37,0,2.75.07,4.09.36,1.01.2,1.98.59,2.89,1.07,2.58,1.44,5.15,4.65,5.4,7.65.16,1.51-.24,3.02-.99,4.32-.38.72-.81,1.42-1.34,2.04-1.56,1.84-4.28,3.68-6.75,3.74Z"/>
    <path class="cls-8" d="M68.89,40c-.1-.22.13-.27.27-.36.21-.14.39-.33.57-.51.64-.71,1.15-1.5,1.5-2.39.28-.64.5-1.3.56-1.99.04-.24.4-.19.37.05-.07.74-.31,1.45-.61,2.13-.29.73-.7,1.41-1.19,2.02-.18.23-1.2,1.46-1.47,1.04Z"/>
    <path class="cls-8" d="M72.49,35.05c-.16-.25.23-.41.39-.55.53-.4,1.03-.84,1.51-1.3.98-.96,1.89-1.99,2.71-3.1.7-.88,1.25-1.88,1.64-2.93.1-.22.44-.09.35.15-.4,1.06-.94,2.07-1.65,2.96-.73.97-1.5,1.91-2.36,2.76-.68.72-1.43,1.38-2.23,1.96-.09.12-.23.18-.34.05Z"/>
    <path class="cls-8" d="M77.11,37.61c-.49-.06-.92-.37-1.35-.58-.27-.15-.55-.29-.82-.43-.71-.38-1.49-.68-2.1-1.22-.15-.14-.35-.43-.15-.61.15-.11.36.05.31.22.09.14.22.23.35.33.57.38,1.15.64,1.75.95.44.23.92.49,1.35.71.25.12.5.28.79.27,1.07-.07,2.68-1.85,3.43-2.63.7-.81,2.93-3.09,2.12-4.17-.62-.84-1.43-1.51-2.22-2.18-.32-.23-1.12-1.08-1.48-.95-.1.04-.21-.01-.24-.11-.08-.22.2-.3.37-.29.28.02.52.19.74.35.29.23.57.47.86.7.59.49,1.16.99,1.68,1.54.38.41.85.86.85,1.46-.06,1.26-1.23,2.54-2.03,3.47-.87.94-2.9,3.29-4.22,3.17Z"/>
    <path class="cls-8" d="M72.64,35.04c-2.17-.65-4.21-1.82-5.84-3.4-.63-.6-1.23-1.29-1.49-2.13-.21-.81-.03-1.89.82-2.24.67-.26,1.41.02,2.02.32.5.26.88.7,1.32,1.05.13.13.45.22.33.45-.15.22-.36-.01-.51-.11-.36-.28-.67-.62-1.05-.89-.58-.38-1.72-.86-2.29-.25-.46.52-.42,1.35-.13,1.95.4.81,1.05,1.42,1.71,2.02.33.31.69.58,1.06.84,1.18.85,2.45,1.47,3.82,1.94.09.03.18.07.28.09.24.03.19.4-.04.37Z"/>
    <path class="cls-8" d="M69.27,28.94c-.59-.64-1.18-1.35-1.4-2.21-.22-.89.18-2.11,1.3-1.81.67.2,1.04.84,1.49,1.33.18.2.36.4.55.59.07.07.07.2,0,.27-.07.07-.19.07-.27,0-.25-.25-.49-.51-.72-.78-.33-.38-.62-.84-1.11-1.02-1.07-.32-1.06,1.23-.7,1.85.21.43.5.81.81,1.18.09.11.18.22.28.31.08.06.1.18.03.26-.06.08-.19.1-.26.03Z"/>
    <path class="cls-8" d="M70.98,27.14c-.26-.26-.48-.55-.69-.85-.31-.46-.71-.95-.69-1.54,0-.45.19-.98.67-1.08.65-.09,1.19.54,1.61.96.25.27.48.54.72.82.1.15.39.33.22.52-.07.07-.2.07-.27,0-.51-.53-1.44-1.91-2.18-1.93-.29.06-.37.39-.38.65-.04.34.13.64.3.92.23.36.48.71.75,1.04.07.08.15.16.22.24.17.18-.1.43-.27.26Z"/>
    <path class="cls-8" d="M72.69,26.03c-.46-.43-.86-.95-1.09-1.53-.34-.83-.02-1.67.99-1.3.55.2.88.72,1.18,1.19.11.17.22.34.34.5.09.14.3.31.11.46-.08.06-.2.04-.26-.04-.17-.22-.32-.44-.47-.68-.19-.3-.39-.6-.65-.85-.18-.16-.41-.28-.66-.3-.68-.03-.18,1.09.02,1.38.21.31.44.62.72.87.19.16-.04.44-.23.29Z"/>
    <path class="cls-8" d="M78.83,27.38c-.75-.46-1.41-1.04-2.05-1.63-.34-.3-2.74-2.66-2.89-1.54-.03.38.18.72.4,1,.08.06.13.15.09.25-.19.31-.44-.08-.55-.26-.65-.92-.28-2.13.98-1.49,1,.53,1.78,1.39,2.63,2.12.5.44,1.02.87,1.59,1.22.21.13.02.45-.19.32Z"/>
    <path class="cls-8" d="M81.9,38.54c-1.19-.1-2.38-.38-3.48-.8-.14-.05-.28-.1-.43-.14-.16-.05-.43-.1-.35-.32.04-.1.16-.14.25-.1.62.18,1.2.43,1.82.6.93.23,1.88.42,2.84.4.65-.04,1.34-.2,1.78-.7.49-.59.56-1.44.41-2.16-.14-.76-.4-1.51-.72-2.21-.27-.56-.57-1.12-.97-1.61-.14-.2.15-.42.3-.22.91,1.18,1.49,2.62,1.77,4.08.16.81.03,1.72-.51,2.36-.67.76-1.77.9-2.72.82Z"/>
    <path class="cls-8" d="M56.19,35.06c-.15-.16.04-.31.13-.44.17-.22.34-.45.52-.67,1.05-1.38,2.38-2.51,3.71-3.61,1.21-1.03,2.44-2.03,3.63-3.08.92-.77,1.78-1.61,2.75-2.31.15-.1.3-.2.45-.29.09-.05.2-.03.26.06.05.09.03.21-.06.26-.15.08-.29.18-.43.27-.61.43-1.16.94-1.73,1.43-.6.51-1.2,1.03-1.79,1.55-1.53,1.3-3.09,2.57-4.59,3.9,0,0,0,0,0,0,0,0,0,0,.01-.01-.79.7-1.48,1.5-2.13,2.33-.1.13-.2.26-.3.38-.1.14-.25.39-.44.23Z"/>
    <path class="cls-8" d="M65.01,26.81c-.09-.04-.15-.15-.11-.24.05-.13.1-.26.15-.39.21-.54.45-1.09.86-1.51.07-.08.19-.08.27,0,.14.14,0,.29-.11.4-.31.36-.49.81-.67,1.25-.09.17-.11.58-.39.5Z"/>
    <path class="cls-8" d="M59.27,27.31c0-.11.07-.19.17-.2.32-.04.63-.13.94-.21.73-.18,1.49-.25,2.25-.2.58.06,1.17.22,1.72.4.08.07.09.19.02.26-.09.11-.23.07-.35.03-.44-.14-.85-.25-1.3-.31-.52-.05-1.07-.02-1.58.05-.43.06-.84.18-1.26.28-.2.02-.57.2-.62-.1Z"/>
    <path class="cls-8" d="M55.34,23.28c-.37-.31.63-.95.9-1.03.09-.04.21.02.24.12.07.21-.19.26-.32.34-.18.11-.35.24-.48.4-.03.04-.05.08-.07.13-.05.08-.18.11-.26.05Z"/>
    <path class="cls-8" d="M56.29,22.56c-.55-.2-.75-.72-.56-1.26.15-.35.48-.6.82-.74.15-.06.31-.1.47-.13.1-.02.2.04.22.15.04.25-.25.23-.41.28-.27.07-.5.24-.68.45-.13.18-.14.43-.07.63.07.15.23.23.38.29.33.08.14.5-.17.34Z"/>
    <path class="cls-8" d="M57.17,20.76c-.28-.05-.51-.25-.62-.51-.2-.51.3-.98.73-1.16.26-.11.55-.13.83-.14.1,0,.19.07.2.17,0,.3-.39.18-.58.23-.26.03-.51.16-.7.35-.09.1-.17.23-.15.36.05.16.18.29.35.32.03,0,.06.02.1.02.1-.01.19.05.21.15.03.22-.21.26-.37.2Z"/>
    <path class="cls-8" d="M74.23,23.63c-.23-.95-1.05-1.54-1.77-2.11-.65-.5-1.37-.88-2.11-1.22-1.1-.51-2.24-.93-3.41-1.26-1.68-.46-3.39-.7-5.1-.93-.6-.08-1.17-.15-1.77-.16-.55.03-1.9.03-1.9.79,0,.08.03.17.09.23.08.04.13.14.1.23-.35.62-1.34-1.16.6-1.51,1.57-.29,3.17.11,4.73.31,2.37.34,4.69.96,6.85,1.99,1.1.48,2.12,1.14,3.01,1.96.5.43.89.98,1.05,1.62.04.24-.3.32-.37.08Z"/>
    <path class="cls-8" d="M58.62,19.38c-.15-.03-.3-.07-.45-.09-.1-.01-.18-.11-.17-.21.03-.2.24-.17.39-.14.17.04.5.04.45.3-.02.1-.13.16-.23.14Z"/>
    <path class="cls-8" d="M49.19,34.28c-1.51-.62-3.18-.55-4.76-.87-.78-.16-1.53-.41-2.27-.69-.37-.15-.74-.31-1.07-.54-.59-.38-.04-.78.1-.4.48.4,1.1.59,1.67.81.5.17,1,.32,1.51.44,1.13.23,2.29.27,3.42.48.36.07.71.15,1.06.26.19.08.68.14.58.42-.04.09-.16.14-.25.1Z"/>
    <path class="cls-8" d="M48.79,28.16c-.62-.39-1.21-.84-1.9-1.1-1.46-.57-2.97-1-4.49-1.39-.38-.1-.76-.2-1.13-.34-.72-.27-1.41-.64-2.02-1.1-.96-.7-1.75-1.58-2.64-2.35-.56-.5-1.17-.98-1.92-1.14-.19-.05-.38-.08-.56-.1-.18-.04-.51.05-.52-.23,0-.1.1-.18.2-.18.71.04,1.42.2,2.03.58.97.63,1.76,1.5,2.61,2.27,1.11,1.05,2.45,1.87,3.95,2.21,1.7.46,3.42.9,5.04,1.61.53.25,1.01.59,1.5.92.2.1.08.42-.14.35h0Z"/>
    <path class="cls-8" d="M49.61,66.7c-.03-.1.02-.21.12-.24.43-.13.85-.28,1.26-.45.72-.3,1.42-.64,2.12-.99,1.18-.62,2.38-1.22,3.45-2.03,1.97-1.45,3.55-3.39,4.28-5.75,0,0,0,0,0,0,0,0,0,0,0,0,.19-.66.31-1.34.33-2.02,0-.2,0-.41-.02-.61,0-.19-.13-.54.15-.57.1,0,.2.08.2.18.01.3.06.61.05.91,0,1.99-.85,3.87-2,5.45-.96,1.29-2.2,2.35-3.53,3.25-1.01.66-2.09,1.19-3.15,1.73-.97.48-1.96.93-3,1.24-.1.03-.21-.02-.24-.12Z"/>
    <path class="cls-8" d="M49.15,66.76c-.06-.25.24-.25.4-.3.07-.02.14-.03.21-.06.03-.03.08-.05.12-.05.2,0,.25.27.08.37-.18.09-.39.12-.58.17-.1.02-.2-.03-.23-.13Z"/>
    <path class="cls-8" d="M65.19,71.17c-2.66-.13-5.3-.5-7.92-.94-1.99-.31-8.26-1.3-9.07-3.11-.11-.21-.09-.46.01-.67.05-.13.24-.16.32-.05.12.14-.06.29-.03.44.18.58.8.86,1.3,1.13,2.11.92,4.39,1.38,6.64,1.75,2.11.34,4.21.69,6.33.89,2.14.21,4.25.28,6.4.2,1.3-.05,2.58-.16,3.83-.44,1.37-.29,2.72-.7,3.99-1.29,1.27-.58,2.5-1.24,3.63-2.03,1.71-1.22,3.25-2.68,4.59-4.3.64-.75,1.21-1.57,1.74-2.4.77-1.21,1.47-2.48,1.97-3.83.3-.8.57-1.56.79-2.37.36-1.46.58-2.96.57-4.46-.04-1.43-.32-2.84-.68-4.21-.47-1.76-1.21-3.43-2.11-4.98-.75-1.21-1.66-2.33-2.66-3.36-.07-.07-.08-.19,0-.27.07-.07.19-.08.27,0,1.06,1.09,2.03,2.28,2.81,3.58.63,1.08,1.13,2.24,1.58,3.4.45,1.21.73,2.47.97,3.73.21,1.26.27,2.55.12,3.83-.17,1.74-.6,3.45-1.24,5.08-.3.82-.66,1.63-1.08,2.4-1.87,3.49-4.57,6.54-7.85,8.76-2.59,1.68-5.52,2.87-8.59,3.31-2.19.28-4.42.29-6.62.2Z"/>
    <path class="cls-8" d="M90.35,47.3c-.07-.08-.06-.2.02-.26.54-.45,1.07-.91,1.55-1.39.62-.62,1.19-1.28,1.73-1.96,2-2.53,2.91-6.05,1.82-9.15-.44-1.25-1.28-2.34-2.3-3.17-.61-.48-1.3-.81-2.01-1.11-1.29-.54-2.68-.93-4.09-.9-1.02-.02-2.05.13-3,.52-.39.17-.77.36-1.13.59-.18.16-.43-.11-.25-.28.6-.4,1.27-.71,1.97-.91.77-.23,1.58-.3,2.38-.29,1.31-.03,2.6.29,3.81.75.94.37,1.88.79,2.67,1.45,1.36,1.13,2.33,2.73,2.62,4.48.46,2.19-.04,4.49-1.03,6.47-.62,1.16-1.45,2.2-2.34,3.17-.51.56-1.07,1.09-1.65,1.59-.17.15-.34.29-.51.44-.08.07-.2.06-.26-.02Z"/>
    <path class="cls-8" d="M90.31,48.71c-.05-.09-.01-.21.08-.25.21-.11.42-.21.62-.33.71-.46,1.38-.99,1.97-1.58,1.46-1.61,2.76-3.41,3.6-5.43.46-1.21.6-2.52.6-3.81-.03-.8-.17-1.59-.33-2.38-.28-1.52-1.04-2.95-2.16-4.02-1.18-1.05-2.59-1.84-4.11-2.24-1.24-.26-2.51-.38-3.78-.33-.95.04-1.9.14-2.8.43-.49.15-.95.35-1.4.57-.12.05-.22.14-.35.14-.19,0-.26-.3-.05-.37.76-.39,1.55-.71,2.38-.89.85-.19,1.72-.26,2.59-.27,1.29-.02,2.59.11,3.84.44,1.09.33,2.12.86,3.04,1.52,1.78,1.2,2.91,3.2,3.23,5.3.24,1.19.34,2.4.19,3.6-.08.83-.24,1.66-.55,2.45-.5,1.2-1.17,2.33-1.93,3.39-.62.83-1.24,1.66-1.98,2.38-.44.41-.91.78-1.4,1.13-.33.24-.69.45-1.06.63-.09.05-.2.01-.25-.08Z"/>
    <path class="cls-8" d="M80.67,32.27c-.37-.22-.69-.52-.99-.83-.19-.21-.4-.48-.33-.78.14-.42.47-.74.66-1.13.19-.34.33-.71.44-1.08.03-.1.04-.23.15-.27.15-.07.32.1.24.25-.09.33-.19.65-.34.96-.15.32-.34.62-.53.91-.24.37-.4.47-.04.85.24.26.52.52.81.72.08.06.17.1.27.04.65-.41,1.19-1.26,1.35-2,.03-.16.27-.19.34-.04.07.15-.04.32-.07.46-.18.59-1.23,2.29-1.97,1.93Z"/>
    <path class="cls-8" d="M64.1,90.67c-.41-.91-1-1.7-1.6-2.49-1.56-1.93-3.49-3.5-5.64-4.71-2.05-1.12-4.3-1.94-6.04-3.55-1.53-1.44-2.51-3.48-2.59-5.59-.1-1.15.21-2.29.73-3.31.42-.8.93-1.57,1.62-2.15.14-.12.3-.22.45-.33.08-.07.2-.07.27,0,.07.07.07.2-.01.27-.03.03-.07.05-.11.08-.28.18-.5.37-.73.61-.64.7-1.12,1.51-1.47,2.39-.42,1.03-.46,2.11-.31,3.2.08.69.32,1.34.58,1.99.27.63.65,1.2,1.06,1.75,1.1,1.39,2.69,2.29,4.25,3.07.83.41,1.67.8,2.48,1.25,1.6.89,3.11,2.02,4.4,3.31.66.63,1.25,1.33,1.79,2.07.45.62.9,1.27,1.21,1.97.04.09.01.2-.08.25-.09.04-.21,0-.25-.08Z"/>
    <path class="cls-8" d="M63.47,92.08c-.34-1.02-.92-1.99-1.58-2.82-1.18-1.53-2.64-2.87-4.32-3.81-1.25-.67-2.55-1.25-3.84-1.86-1.31-.65-2.68-1.26-3.76-2.27-.54-.51-1.04-1.07-1.46-1.69-.41-.63-.73-1.31-1.04-1.99-.89-2-.93-4.57.06-6.54.45-.84,1.02-1.61,1.66-2.31.15-.17.31-.33.48-.48.12-.12.34-.25.46-.04.06.11-.02.26-.14.27-.13.11-.25.23-.37.35-.65.68-1.21,1.44-1.68,2.25-1,1.84-.99,4.32-.18,6.23.33.74.66,1.48,1.12,2.15.54.75,1.18,1.45,1.92,2.02,1.16.83,2.47,1.42,3.76,2.04,1.28.62,2.61,1.17,3.81,1.94,2.02,1.3,3.74,3.11,4.91,5.21.21.4.39.82.54,1.25.03.1-.02.21-.12.24-.09.03-.21-.02-.24-.12Z"/>
    <path class="cls-8" d="M77.44,69.12c-.06-.08-.04-.2.04-.26.04-.03.07-.06.09-.08.41-.36.78-.74,1.12-1.13,3.38-4.07,5.72-9.12,6.18-14.42.05-.49.05-.99,0-1.49-.02-.25-.06-.49-.08-.74-.01-.1.06-.2.16-.21.25-.01.21.24.24.42.09.7.11,1.4.04,2.1-.38,4.35-2.02,8.53-4.44,12.15-.58.87-1.17,1.71-1.86,2.49-.38.43-.79.85-1.23,1.22-.08.07-.2.04-.26-.04Z"/>
    <path class="cls-8" d="M84.18,49.11c-.09-.23-.2-.46-.31-.69-.07-.14-.21-.33-.03-.44.09-.05.21-.02.26.07.16.3.3.6.43.91.09.23-.25.37-.35.15Z"/>
    <path class="cls-8" d="M83.67,64.72c-.08-.06-.09-.18-.03-.26.3-.41.6-.81.88-1.23.8-1.19,1.39-2.53,1.86-3.88.53-1.64.99-3.33,1.15-5.05.03-.24.4-.2.37.05-.1,1.26-.4,2.47-.72,3.68-.62,2.26-1.55,4.46-3,6.32-.14.15-.26.53-.51.37Z"/>
    <path class="cls-8" d="M71,60.66c-.83-.1-1.68-.21-2.48-.45-.23-.1-.08-.44.15-.34,1.02.26,2.05.44,3.09.46.94-.01,1.85-.23,2.75-.49.24-.06.34.29.1.36-1.17.34-2.39.6-3.61.46Z"/>
    <path class="cls-8" d="M75.93,59.55c-.04-.09,0-.21.1-.25.23-.1.46-.2.69-.32.16-.07.39-.29.53-.08.05.09.02.21-.07.26-.18.1-.36.19-.55.28-.19.06-.57.38-.7.1Z"/>
    <path class="cls-8" d="M51.22,68.73c-.15-.14-.03-.32.15-.35.32-.08.64-.17.95-.28.77-.28,1.49-.61,2.22-.98.96-.51,1.87-1.09,2.72-1.77,2.38-1.83,4.49-4.15,5.57-6.99.3-.72.49-1.5.58-2.26.03-.17-.02-.45.22-.45.1,0,.18.1.18.2-.07.73-.21,1.46-.45,2.15-1.03,3.04-3.19,5.56-5.69,7.5-1.31,1.06-2.76,1.93-4.31,2.58-.63.28-1.27.51-1.94.67h0s0,0,0,0c.02,0,.04-.02.06-.04-.02.02-.04.03-.07.04,0,0,0,0,0,0-.06.03-.14.02-.19-.03Z"/>
    <path class="cls-8" d="M63.74,69.29c-1.12-.06-2.27-.15-3.37-.32-1.93-.34-3.84-.8-5.73-1.28-.09-.02-.18-.03-.26-.06-.22-.09-.11-.42.12-.35,1.96.47,3.92.97,5.91,1.32,1.12.17,2.23.25,3.36.32.24.02.22.39-.03.37Z"/>
    <path class="cls-8" d="M60.88,66.7c-.79-.11-1.57-.28-2.34-.49-.44-.13-.91-.21-1.32-.42-.21-.19.05-.46.26-.28.63.22,1.33.39,1.96.54.49.11.99.2,1.49.28.24.04.18.4-.06.37Z"/>
    <path class="cls-8" d="M72.15,40.24c-.23-.05-.2-.33.02-.39.45-.19.92-.33,1.39-.46.99-.27,2.03-.31,3.05-.29.82,0,1.64.08,2.44.29.23.07.13.42-.11.36-.43-.11-.91-.2-1.35-.24-1.11-.07-2.23-.08-3.33.1-.67.13-1.32.33-1.95.58-.04.03-.09.05-.15.04Z"/>
    <path class="cls-8" d="M76.01,68.04c-.13-.16.04-.29.15-.39.48-.46.95-.94,1.38-1.45.63-.82,1.14-1.73,1.54-2.69.12-.21.44-.05.33.17-.57,1.35-1.35,2.62-2.4,3.65-.2.2-.4.41-.61.6-.11.12-.24.25-.39.1Z"/>
    <path class="cls-8" d="M1.62,27.92c-.1-.01-.18-.11-.16-.21.3-1.6.7-3.19,1.46-4.63.39-.74.79-1.5,1.33-2.14.16-.19.45.03.3.23-.06.07-.12.14-.18.21-.97,1.39-1.73,2.95-2.15,4.6-.12.46-.22.93-.32,1.39-.07.19,0,.57-.29.55Z"/>
    <path class="cls-8" d="M1.23,30.8c-.05-.43-.05-.86-.05-1.29,0-.25.37-.25.38,0,0,.41,0,.84.05,1.24.03.24-.33.29-.37.05Z"/>
    <path class="cls-8" d="M72.4,20.32c-.89-.86-2.01-1.42-3.19-1.76-.19-.06-.38-.12-.56-.21-.04-.02-.08-.05-.1-.1-.07-.15.1-.32.25-.25.26.13.55.2.82.29.57.18,1.12.42,1.64.71.51.29.98.65,1.41,1.05.08.07.07.2,0,.27-.07.07-.19.07-.27,0Z"/>
    <path class="cls-8" d="M96.43,44.96c-.09-.05-.12-.17-.07-.26.12-.23.24-.45.36-.68.25-.5.49-1,.69-1.51.68-1.72,1.06-3.56.98-5.41,0-.24.37-.25.38,0,.08,2-.36,4-1.13,5.84-.16.37-.33.73-.5,1.08-.15.29-.3.59-.45.87-.05.09-.17.12-.26.07Z"/>
    <path class="cls-8" d="M94.27,47.74c-.07-.07-.07-.19,0-.27.16-.16.31-.32.44-.46.16-.19.32-.38.46-.58.05-.12.17-.22.3-.14.09.05.12.17.07.26-.12.2-.28.39-.43.57-.18.22-.38.42-.58.62-.07.07-.19.07-.27,0Z"/>
    <path class="cls-8" d="M42.84,66.26c-.72-.39-1.41-.84-2.07-1.32-.92-.67-1.76-1.43-2.72-2.04-.53-.33-1.11-.58-1.7-.8-.21-.12-.05-.44.17-.33.74.27,1.46.62,2.11,1.06.66.45,1.27.97,1.9,1.46.79.61,1.61,1.16,2.48,1.64.21.12.05.44-.17.33Z"/>
    <path class="cls-8" d="M50.66,55.12c-.07-.12,0-.23.1-.29.12-.13.23-.27.32-.41.46-.79.78-1.63,1.04-2.5.08-.23.43-.11.35.13-.23.77-.52,1.52-.89,2.24-.12.22-.64,1.22-.92.84Z"/>
    <path class="cls-8" d="M69.22,39.73c-.48-.27-1.01-.45-1.56-.53-.24.04-.36-.26-.13-.36.13-.04.28.01.41.03.52.1,1.03.28,1.49.55.2.13,0,.45-.2.32Z"/>
    <path class="cls-8" d="M79.46,52.79c-.12-.08-.09-.23-.02-.33.14-.25.26-.51.37-.77.07-.17.13-.34.17-.51.01-.05.02-.1.03-.15.01-.1.12-.17.22-.15.1.02.17.12.15.22-.04.27-.14.52-.24.77-.12.3-.26.58-.42.86-.05.09-.18.11-.26.06Z"/>
    <path class="cls-8" d="M53.44,85.2c-1.1-.5-2.22-1-3.2-1.72-.71-.55-1.36-1.19-1.97-1.84-.11-.12,0-.33.16-.31.11,0,.18.13.25.19.75.77,1.51,1.54,2.43,2.09.69.4,1.4.76,2.13,1.08.12.06.25.11.37.16.22.11.05.44-.17.33Z"/>
    <path class="cls-8" d="M56.41,86.51c-.38-.25-.79-.44-1.16-.71-.18-.17.07-.44.25-.28.36.24.76.44,1.12.68.09.05.1.18.05.26-.06.09-.18.1-.26.05Z"/>
  </g>
</svg>