<?xml version="1.0" encoding="UTF-8"?>
<svg id="Layer_3" data-name="Layer 3" xmlns="http://www.w3.org/2000/svg" viewBox="0 0 100 100">
  <defs>
    <style>
      .cls-1 {
        fill: #ef918f;
      }

      .cls-1, .cls-2, .cls-3, .cls-4, .cls-5, .cls-6, .cls-7, .cls-8, .cls-9, .cls-10, .cls-11, .cls-12, .cls-13, .cls-14, .cls-15, .cls-16, .cls-17, .cls-18, .cls-19 {
        fill-rule: evenodd;
      }

      .cls-2 {
        fill: #ffc0bf;
      }

      .cls-3 {
        fill: #4f8baf;
      }

      .cls-4 {
        fill: #a7aebd;
      }

      .cls-5 {
        fill: #d9e296;
      }

      .cls-6 {
        fill: #b6d7a2;
      }

      .cls-7 {
        fill: #bcc672;
      }

      .cls-8 {
        fill: #d8dbe1;
      }

      .cls-9 {
        fill: #fff;
      }

      .cls-10 {
        fill: #d9ccbf;
      }

      .cls-11 {
        fill: #3e2c1e;
      }

      .cls-12 {
        fill: #ddf3d0;
      }

      .cls-13 {
        fill: #79b1d2;
      }

      .cls-14 {
        fill: #dc9051;
      }

      .cls-15 {
        fill: #a2cfea;
      }

      .cls-16 {
        fill: #fed185;
      }

      .cls-17 {
        fill: #dbaa57;
      }

      .cls-18 {
        fill: #89a976;
      }

      .cls-19 {
        fill: #f3f4f8;
      }
    </style>
  </defs>
  <g>
    <path class="cls-10" d="M53.89,94.02c18.88.12,33.92,1.27,33.6,2.57-.31,1.23-14.23,2.15-31.69,2.15-1.02,0-2.05,0-3.08,0-18.88-.12-33.92-1.27-33.6-2.57.32-1.3,15.89-2.26,34.77-2.15Z"/>
    <g>
      <path class="cls-8" d="M75.76,17.37c.34,1.26-.05,2.65-.75,3.74.04.25-.17.44-.28.65-.29.44-.59.87-.89,1.3-.93,1.43-1.9,2.83-2.8,4.27-.35.47-1.09,2.32-1.73,3.12,0,0,0,0,0,0-.09.15-.22.28-.3.43-.78,1.24-1.69,2.39-2.52,3.6-1.34,2.29-2.79,4.51-4.11,6.81-1.33,2.47-2.8,4.88-4.38,7.2-1,1.58-2.22,3.09-3.81,4.1-.94.45-2.05.6-3.08.42-1.62-.31-3.19-.9-4.57-1.81-.94-.66-1.71-1.52-2.59-2.25-2.02-1.84-2.18-3.69-1.26-6.17.32-.92.78-1.78,1.28-2.62,0,0,0-.01,0-.02-.08-.24.15-.54.29-.76.05-.11.12-.22.2-.31.28-.42.57-.85.83-1.23.95-1.46,2-2.93,2.98-4.36,2.1-2.85,3.62-6.1,5.75-8.95-.21-.25,0-.54.17-.75.28-.35.53-.73.78-1.11,1.21-2.33,2.76-4.47,4.17-6.66.55-1.03,1.15-2.02,1.83-2.96.62-.95,1.41-1.77,2.55-2.05,1.4-.45,2.94-.56,4.38-.2,1.1.4,2.07,1.08,3.15,1.55.07.04.13.1.16.17,1.53.55,2.63,2.02,3.6,3.25.27.31.6.59.77.97.1.2.16.42.2.64Z"/>
      <path class="cls-8" d="M59.39,76.27c.22,2.59.02,5.16.1,7.74,0,.25-.2.38-.4.38-.05.07-.14.12-.25.13-1.05.17-2.11.27-3.17.26-.68-.06-4.01.12-5.24-.29-.13.19-.42.28-.62.07-.13-.13-.15-.34-.15-.52,0-.1,0-.2,0-.3-.18-.24-.08-.57-.1-.84,0-.8.06-1.59.1-2.39.11-2.04.19-4.13.98-6.04.48-1.05,1.14-2.11,2.24-2.59,1.35-.57,3.06-.79,4.41-.09,1.73.79,2,2.78,2.11,4.47Z"/>
      <path class="cls-8" d="M79.66,2.63c.84,1.33-1.31,3.44-1.98,4.57-.38.51-.77,1.02-1.13,1.54-.38.42-.66,1.65-1.4,1.16-.48-.47-1.01-.93-1.7-1.04-.28-.07-.68,0-.76-.36-.46-.45.28-1.02.53-1.4.47-.64.87-1.32,1.31-1.98.7-1.09,1.36-2.2,2.16-3.23.13-.31.47-.35.77-.36.89-.12,1.72.37,2.21,1.09Z"/>
      <path class="cls-8" d="M78.78,94.74c.48,1.19-.33,1.25-1.3,1.22-3.59-.15-7.18-.04-10.77-.06-5.24-.17-10.48-.15-15.72-.02-2.69-.14-5.37-.3-8.06-.21-4.16-.15-8.31-.09-12.47,0-.35,0-.7,0-1.05-.02-.08.04-.17.05-.27.03-.52-.22-.42-1.23-.16-2.06-.19-.46.21-1.31.48-1.6.65-.73,1.63-.98,2.57-.99,1.47-.08,2.95-.03,4.42-.12,4.44-.32,8.9-.16,13.34-.04,4.55.29,9.12.5,13.68.37.1,0,.21,0,.31-.01.08-.11.22-.17.39-.12.32.05.63.06.95.06.22-.01.44-.03.67-.04.06,0,.12,0,.17.03h0c2.46-.06,4.91-.21,7.37-.11,1.78-.07,4.53-.11,5.17,1.96.16.57.16,1.17.27,1.75Z"/>
      <path class="cls-8" d="M47.16,55.48c-.04.4-.47.6-.69.89-.3.32-.55.84-1.05.84-1.22-.14-2.24-.96-3.06-1.83-.63-.67-.63-.52-.29-1.4.21-.39.53-1.41,1.05-1.34.22.03.35.23.51.36.7.58,1.43.97,2.2,1.43.42.29,1.28.48,1.33,1.05Z"/>
      <path class="cls-4" d="M70.45,11.98c2.85,1.54,6.79,4.58,4.93,8.2-1.28,2.71-2.97,5.21-4.52,7.77-1.45,2.46-3.28,4.66-4.81,7.06-2.27,3.59-4.66,7.09-6.76,10.79-.04.44-.43.78-.62,1.16-.65,1.04-1.38,2.03-2.18,2.96-.17.3-.69.92-1.28,1.48-.09.23-.31.38-.49.55.02.36-2.27,1.22-3.02,1.22-.11,0-.18-.02-.22-.06-.08-.06-.13-.15-.14-.24,0-.03,0-.06,0-.09-.69-.05-2.5-.32-3.15-.8-.17.03-.32-.02-.44-.16-.03,0-.06,0-.08,0-.31.04-.51-.1-.59-.27-.37-.09-.78-.22-.99-.43-.53-.17-.94-.42-.73-.8.33-.6,1.79,1.03,3.61,0,.26-.16.5-.33.73-.52.17-.21.34-.42.48-.65.16-.25.32-.51.48-.77.3-.49.59-.98.9-1.47.24-.38.48-.75.72-1.13.24-.37.48-.74.71-1.11-1.68-1.18-3.44-2.24-5.32-3.03-.64-.24-1.29-.47-1.94-.69-.03,0-.06-.02-.09-.03-.17.28-.34.56-.51.84-.29.49-.59.97-.85,1.47-.14.27-.26.55-.38.83-.11.27-.22.54-.33.81-.09.23-.16.46-.23.69-.08.19-.14.39-.19.59,0,0,0,0,0,0,0,.02,0,.03-.01.05h0c.02.63.17,1.25.52,1.77.28.41.6.8.92,1.17.08.09.15.18.14.31,0,.31-.42.49-.63.25-.62-.68-1.15-1.37-1.45-2.16-.01,0-.03-.02-.04-.03-.05-.04-.1-.09-.13-.15-.03-.06-.04-.13-.05-.2-.02-.12-.02-.24-.02-.36,0-.12,0-.24,0-.37h0s0-.02,0-.02c0,0,0,0,0,0-.08,0-.16-.04-.22-.1-.07-.07-.11-.15-.12-.25,0-.08,0-.17,0-.25,0-.1.01-.2.02-.3.02-.2.05-.4.08-.6.03-.2.07-.41.11-.61.02-.1.05-.2.07-.3.02-.07.04-.14.06-.21.01-.04.03-.07.04-.11.1-.37.21-.74.35-1.1.14-.37.3-.73.47-1.09.33-.69.67-1.38,1.03-2.06.17-.33.35-.66.54-.99.21-.35.43-.7.65-1.04.31-.48.63-.95.94-1.43.32-.49.65-.97.99-1.44.11-.15.31-.2.47-.11.04-.07.08-.13.12-.19-.32-.41,1.4-2.34,1.69-2.84.7-1.16,1.41-2.31,2.16-3.44.95-1.7,1.89-3.39,2.97-5.01,2.23-3.21,4.01-6.71,6.27-9.89-.54-.51.95-1.37,1.37-1.47.7-.57,1.6-.76,2.46-.87.08,0,.16.04.21.09h0s.1-.02.14-.03c.66-.26,1.39-.44,1.51-.01.19.02.38.05.56.1h0c.37-.41,1.8.35,2.22.71.3.13.6.26.89.41h0ZM51.31,95.81c-.33-.07-1.74,0-2-.26-1.09,0-2.19,0-3.28.02-1.47.02-2.94.04-4.41,0-1.83-.02-3.64-.07-5.45-.13-.04.05-.11.08-.17.08-.99-.07-1.97-.06-2.96-.08-.18,0-.36-.01-.54-.01,0,.06-.08.13-.23.22-.31-.09-.85-.08-1.41-.07-.83.01-1.7.02-1.92-.28.02-1.41-.06-2.46.99-3.54.04-.04.08-.09.11-.14.03-.08.07-.17.13-.27.09-.17.3-.12.36.01,0,.03,0,.06.01.1,0,.01,0,.03-.01.04-.02.02-.03.04-.04.07,0,.04,0,.09-.03.14-.02.04-.04.07-.07.11-.05.33.29.54.79.68.13.07.27.13.41.17.15.04.31.08.47.11.6.12,1.22.14,1.83.18,1.22.07,2.43.13,3.65.16.14,0,.28,0,.42,0,.5,0,1-.01,1.5-.03.62-.02,1.23-.03,1.85-.04.62-.01,1.24-.03,1.86-.05.6-.02,1.2-.03,1.8-.04.52,0,1.04-.02,1.57-.04.5,0,.99.02,1.49.03-.02,0-.04,0-.06,0,.25,0,.49.01.74.02.61.02,1.22.04,1.82.06.52.02,1.05.04,1.57.04.03,0,.05,0,.08,0,.46.02.93.03,1.39.04.62.02,1.24.04,1.86.05.72.01,1.44.02,2.16.02.53,0,1.06,0,1.59-.01.15,0,.3,0,.44,0,3.35.09,6.7.11,10.05.05.48-.03.98-.03,1.5-.02,1.73.01,3.55.03,4.74-1.33.09-.07.14-.19.19-.3-.03-.05-.02-.12.04-.22,1.05-.33,1.99.82,2.37,1.69.12.24.95,3,.23,2.56,0,0,0,.02,0,.03,0,.1-.08.21-.19.21-4.68-.25-9.37-.07-14.05,0-.06,0-.13,0-.2,0-.17,0-.36,0-.43-.11-1.65-.02-3.3-.03-4.95,0-2.02.03-4.04.16-6.06.16-.52,0-1.03,0-1.55-.03h0ZM54.86,79.4c-1.34,0-2.58-1.17-2.57-2.47-.06-.35-.04-.66.17-.78,0,0,0,0,0-.01.26-.8,1.36-.17.66.33-.05.14-.08.27-.09.4,0,0,0,.01,0,.02.11.73.65,1.34,1.39,1.45.34.08.68.03.99-.1,0-.94-.03-1.88-.2-2.81,0-.05-.01-.11-.02-.16-.04-.29-.1-.57-.19-.85-.09-.27-.18-.55-.3-.81-.09-.18-.19-.36-.3-.52-.2-.3-.45-.56-.77-.72-.04-.03-.09-.05-.13-.08-.26-.15-.56-.26-.86-.28,0,0-.01,0-.02,0,0,0,0-.01-.01-.02.01,0,.02-.01.04-.02.06-.03.12-.06.17-.09.33-.15.68-.28,1.02-.41.13-.05.26-.1.39-.15.33-.03.68-.03.91-.08,1.71-.12,3.32.79,3.88,2.45.72,1.84.35,3.88.44,5.81,0,1.51-.01,3.02.09,4.53.03.87-1.1.9-1.73,1.02-.47.05-.95.12-1.43.12-.24,0-.47-.02-.7-.06-.47-.16-.27-.73-.3-1.11.04-1.55.04-3.09.02-4.64-.19.04-.38.06-.57.04h0ZM74.35,9.6c-.17-.1-.24-.33-.14-.5.31-.53.67-1.03,1.02-1.54,1.12-1.67,2.21-3.39,2.96-5.26.06-.16.08-.32.09-.49.08-.3.44-.34.62-.16.02,0,.05.01.07.02.07.04.13.08.16.13.14.07.24.24.24.49.06.02.13.06.21.13.11.15.07.32.03.49.56.66-2.11,4.4-2.4,4.82-.41.53-.75,1.1-1.1,1.67-.2.29-.44.9-.88.61-.09-.07-.14-.14-.18-.22-.04,0-.09,0-.14-.01-.04-.01-.07-.03-.1-.05-.1.04-.22.03-.35-.05-.02-.02-.04-.04-.06-.06-.02,0-.04-.01-.06-.02h0ZM79.58,2.88h0s.04-.07.05-.1c-.01.04-.03.07-.06.1,0,0,0,0,0,0h0ZM45.42,56.97c.45.29.7-.36.94-.63.13-.2.3-.38.4-.6.08,0,.14-.03.19-.08.35-.03.48-.6.07-.72-.98-.37-1.93-.84-2.8-1.43-.32-.24-.65-.48-.89-.81-.1-.28-.4-.29-.58-.15-.14.04-.25.15-.27.29.07.62,1.18,1.45,2.29,2.07-.06.16-.13.31-.24.44-.2.34-.52.57-.78.84-.2.34.2.7.53.53.07.28.43.33.63.17.09.11.24.17.39.13.04-.01.08-.03.11-.05,0,0,0,0,0,0h0ZM53.77,43.42c.15-.23.29-.47.44-.7.32-.51.63-1.04.94-1.56.3-.5.6-1.01.92-1.5.25-.39.5-.78.75-1.18.32-.51.65-1.01.98-1.51.33-.49.67-.98,1-1.47.68-.99,1.33-2.01,1.98-3.03.02-.04.05-.07.07-.11.17-.27.34-.53.5-.8.31-.51.61-1.02.92-1.53.26-.4.51-.81.76-1.22.06-.11.13-.21.19-.31.24-.38.47-.76.71-1.15.56-.87,1.11-1.74,1.64-2.62.02-.03.04-.06.06-.09.16-.24.32-.47.48-.71.05-.07.07-.15.07-.24.75-1.31,1.44-2.64,2.04-4.02.33-.65.66-1.3.95-1.97,0,0,0,0,0,0,0,0,0-.01,0-.02,0,0,0-.01,0-.02.15-.34.28-.69.4-1.04.12-.34.22-.69.31-1.04.08-.3.14-.6.17-.91-.05-.35-.14-.69-.27-1.02-.55-.8-1.34-1.46-2.19-1.9-.36-.14-.74-.24-1.13-.28-.64,0-1.28.19-1.88.43-1.15.68-2.08,1.75-2.79,2.89-.29.46-.57.91-.86,1.37h0c-.31.56-.63,1.12-.95,1.68-.03.05-.06.1-.09.16-.17.29-.34.58-.52.86-.19.29-.38.58-.57.87-.2.31-.41.61-.61.92h0c-.25.41-.49.82-.74,1.22-.79,1.28-1.63,2.54-2.47,3.79-.6.95-1.2,1.91-1.79,2.86,0,0,0,.01-.01.02,0,0,0,0,0,0,0,0,0,0,0,0,0,0,0,.01-.01.02,0,0,0,0,0,0-.26.42-.53.84-.78,1.27-.35.6-.7,1.2-1.05,1.8-.31.54-.61,1.08-.92,1.62-.36.55-.72,1.11-1.07,1.67-.19.31-.38.63-.56.95-.19.33-.37.66-.56.99-.28.5-.56.99-.84,1.48-.05.07-.09.13-.14.2-.07.1-.14.2-.21.3-.27.36-.52.72-.77,1.09.59.19,1.17.42,1.74.64,1.99.79,3.94,1.69,5.75,2.84h0ZM67.96,11.09c.06.03.13.07.19.11.05.02.11.05.16.08.01-.02.03-.04.05-.05,0,0,0,0,0,0-.13-.05-.26-.09-.39-.13h0Z"/>
      <path class="cls-19" d="M52.08,35.26c-1.01-.42.63-3.5,1.5-3.53,1.82-.06-.46,3.76-1.5,3.53h0ZM54.6,29.61v-.06c.02-.12.04-.23.07-.35.02-.04.05-.09.08-.13.06-.1.12-.21.18-.31h0c.22-.38.43-.76.65-1.14.04-.07.09-.15.13-.22h0s0-.01,0-.01h0s0-.01,0-.01h0s0-.02,0-.02h0s0-.02,0-.02h0c.12-.2.24-.4.36-.6h0c.06-.09.11-.19.17-.28h0s0,0,0,0h0s0-.02,0-.02h0s0,0,0,0h0s0-.01,0-.01h0s0-.01,0-.01h0s0,0,0,0h0c.05-.1.11-.19.16-.28,0,0,0,0,0,0,0,0,0,0,0,0h0s0,0,0,0c0,0,0,0,0,0,0,0,0,0,0,0h0s0,0,0,0c0,0,0,0,0,0,0,0,0,0,0,0,0,0,0,0,0,0,0,0,0,0,0,0,0,0,0,0,0,0,0,0,0,0,0-.01.25-.42.5-.85.77-1.26.31-.48.61-.96.91-1.45.32-.51.62-1.04.93-1.55,0,0,0-.01.01-.02,0,0,0,0,0,0,0,0,0-.01.01-.02,0,0,0,0,0,0,0,0,0,0,0,0,.15-.26.31-.52.47-.78.58-.97,1.15-1.94,1.72-2.92.26-.4.52-.79.79-1.19.1-.13.19-.26.28-.4.33-.58.68-1.14,1.11-1.64.04-.04.08-.08.12-.13h0s.1-.09.14-.14c.05-.05.11-.09.16-.14h0s0,0,0,0h0s0,0,0,0h0s0,0,0,0h0s0,0,0,0h0s0,0,0,0h0s0,0,0,0h0s0,0,0,0h0s0,0,0,0h0s0,0,0,0h0s0,0,0,0h0s0,0,0,0h0s0,0,0,0h0s0,0,0,0h0s0,0,0,0h0s0,0,0,0h0s0,0,0,0h0s0,0,0,0h0s0,0,0,0h0s0,0,0,0h0s0,0,0,0h0s0,0,0,0h0s0,0,0,0h0s0,0,0,0h0s0,0,0,0h0s0,0,0,0h0s0,0,0,0h0s0,0,0,0h0s0,0,0,0h0s0,0,0,0h0s0,0,0,0h0s0,0,0,0h0s0,0,0,0h0s0,0,0,0h0s0,0,0,0h0s0,0,0,0h0s0,0,0,0h0s0,0,0,0h0s0,0,0,0h0s0,0,0,0h0s0,0,0,0h0s0,0,0,0h0s0,0,0,0h0s0,0,0,0h0s0,0,0,0h0s0,0,0,0h0s0,0,0,0h0s0,0,0,0h0s0,0,0,0h0s0,0,0,0h0s0,0,0,0h0s0,0,0,0h0s0,0,0,0h0s0,0,0,0h0s0,0,0,0h0s0,0,0,0h0s0,0,0,0h0s0,0,0,0h0s0,0,0,0h0s0,0,0,0h0s0,0,0,0h0s0,0,0,0h0s0,0,0,0h0s0,0,0,0h0s0,0,0,0h0s0,0,0,0h0s0,0,0,0h0s0,0,0,0h0s0,0,0,0h0s0,0,0,0h0s0,0,0,0h0s0,0,0,0h0s0,0,0,0h0s0,0,0,0h0s0,0,0,0h0s0,0,0,0h0s0,0,0,0h0s0,0,0,0h0s0,0,0,0h0s0,0,0,0h0s0,0,0,0h0s0,0,0,0h0s0,0,0,0h0s0,0,0,0h0s0,0,0,0h0s0,0,0,0h0s0,0,0,0h0s0,0,0,0h0s0,0,0,0h0s0,0,0,0h0s0,0,0,0h0s0,0,0,0h0s0,0,0,0h0s0,0,0,0h0s.09-.06.14-.08c.05-.02.11-.05.16-.07.04-.01.08-.02.12-.03.01,0,.02,0,.04,0,.06,0,.13,0,.19-.02.01,0,.02,0,.03,0,.23.14.34.47.26.77-.25,1.29-1.17,2.3-1.78,3.43-1.9,2.92-3.64,5.93-5.47,8.89-.25.34-.73,1.16-1.3,2.08-.08.11-.17.22-.25.32-.11.13-.23.25-.35.36,0,0-.02.02-.03.02-.04.04-.09.08-.13.11-.22.25-.47.43-.75.47-.08-.05-.15-.1-.22-.15-.08-.06-.16-.13-.23-.19-.05-.15-.06-.33-.04-.52Z"/>
      <path class="cls-13" d="M49.76,52.49c.63.17,1.86.29.99,1.16-.49.51-.76,1.91-1.58,1.86-1.15-.23-2.3-.51-3.32-1.12-1.04-.48-1.98-1.15-2.79-1.97-.26-.34-1.4-1.26-1.21-1.63-.07-.37.43-.82.52-1.22.46-.99.83-1.69,1.72-.53.47.49.95.96,1.49,1.38,1.24.95,2.67,1.67,4.18,2.07Z"/>
      <path class="cls-13" d="M61.5,43.44c1.19,1.49-.6,3.81-2.35,3.22-.9-.43-1.68-1.07-2.53-1.59-1.46-.95-3.06-1.65-4.59-2.49-1.22-.69-2.49-1.31-3.71-1.99-.89-.57-1.86-.92-2.83-1.32-.28.15-.54-.12-.8-.21-.48-.18-.67-.69-.76-1.16-.29-2.25,1.5-3.02,3.44-2.41,3.85,1.28,7.54,3.13,10.82,5.52,1.04.88,2.38,1.45,3.31,2.43Z"/>
      <path class="cls-13" d="M74.94,9.87c.49.45,1.78,1.7,1.56,2.39-.03.13-.12.23-.23.28.02.03.04.07.05.11.07.25-.12.47-.22.68-.19.36-.35.74-.54,1.1-.26.36-.44,1.19-1.02.93-.34-.27-.52-.68-.86-.96-.11-.1-.14-.22-.13-.32-.11.02-.22,0-.33-.1-.22-.19-.58-.45-.47-.75-.12.07-.28.07-.4-.02-.85-.71-1.79-1.31-2.82-1.73-.06.02-.12.02-.19,0-.52-.15-1.04-.34-1.57-.41-.14-.02-.29.06-.43-.03-.24-.11-.31-.45-.13-.64,0,0,.01-.01.02-.02-.05-.11-.05-.24.04-.37.73-1.15,1.25-2.26,2.81-2.17.57,0,2.78.58,3.09.99.65.23,1.25.58,1.76,1.03Z"/>
      <path class="cls-13" d="M85.01,40.47c1.66,5,2.23,10.29,1.27,15.49-.19,1.33-.39,2.66-.86,3.92-.07.15-.11.37-.19.57.02.1,0,.21-.07.32-.47,1.06-.85,2.16-1.34,3.21-.72,1.64-1.69,3.14-2.83,4.52-.04.06-.09.11-.13.17,0,.07-.03.15-.09.22-.37.42-.71.87-1.07,1.3-1.82,2.22-4.09,4.04-6.48,5.62-1.89,1.34-3.95,2.44-6.14,3.18-1.01.38-2.04.77-3.11.94-.06,0-.13.02-.19.03-.27.21-.7.2-1.01.33-.87.23-1.76.51-2.67.42-.78-.08-.87-.72-.75-1.35.07-.77.09-1.54.08-2.3-.06-.71-.12-1.42-.33-2.11-.13-.43-.41-1.09.11-1.37,1-.26,2.01-.53,2.98-.9,1.49-.46,3-.9,4.43-1.55.69-.28,1.3-.71,1.96-1.03.08-.02.16-.01.23.01.33-.2.66-.4.99-.61,1.63-1.03,3.09-2.34,4.34-3.81.23-.22.41-.59.73-.67.47-.59.91-1.21,1.31-1.84,0-.02.02-.04.03-.06.12-.18.23-.36.34-.55,0,0,0,0,0,0,.29-.49.56-.99.81-1.49.03-.07.07-.14.1-.22.04-.16.1-.29.16-.38.11-.28.21-.56.29-.85-.02-.07-.03-.15,0-.23.17-.56.33-1.11.49-1.67.36-1.19.58-2.43.83-3.64.54-2.3.11-4.67-.08-6.99-.03-.29-.07-.57-.1-.86-.01-.08,0-.16.03-.22-.07-.49-.15-.97-.24-1.46-.13-.58-.28-1.15-.44-1.72-.03-.11,0-.23.05-.32-.42-1.5-1.02-2.94-1.79-4.29-.03-.03-.06-.06-.08-.1-.11-.19-.22-.39-.33-.58,0,0,0,0,0,0-.15-.24-.31-.47-.47-.7-.04-.06-.05-.12-.06-.17-.76-1.21-1.62-2.37-2.64-3.36-.34-.21-.49-.44-.51-.63-.76-.45-1.51-.91-2.23-1.43-.37-.1-1.07-.08-1.11-.57,0-.05,0-.09.02-.14-.01-.14.03-.28.15-.36.24-.11.52-.07.8,0,.34-.03.72,0,.91.19.41.02.83.05,1.25.02.55-.03,1.09-.12,1.62-.27.28-.64,1.46-1.25,1.67-1.81.14-.24.08-.58.35-.73.43-.13.58.05.57.35.13-.01.27.02.38.11.68.52,1.22,1.18,1.71,1.88.1.11.21.21.31.32,1.09,1.18,2.04,2.49,2.91,3.85.47.57.9,1.17,1.23,1.84.21.39.4.8.58,1.21.14.43.47.86.54,1.31.09.21.18.43.26.65.14.39.28.78.4,1.17.06.05.1.11.11.19Z"/>
      <path class="cls-13" d="M69.59,89.39c.35.14.35.79.07,1.02,0,.04,0,.07,0,.11.06.25-.19.51-.44.47-.07-.01-.13-.04-.18-.07-1.57.09-3.15.19-4.73.15-.85,0-1.7,0-2.55.02-1.21.03-2.42.04-3.63,0-.56-.02-1.11-.04-1.67-.08-1.34.04-2.67.08-4.01.04-1.94-.02-3.88-.05-5.8-.28-.08,0-.15-.02-.21-.04-.1-.01-.2-.03-.29-.06-2.01.02-4.03.07-6.04.06-.06,0-.12,0-.16-.02-.02,0-.05,0-.07,0-.08,0-.15-.02-.21-.06-.03.02-.06.03-.1.04-.03.01-.07.02-.1.02-.14,0-.28-.08-.35-.2-.04-.07-.06-.15-.06-.23,0-.05,0-.1,0-.15,0-.07.01-.14.02-.21.02-.14.04-.29.07-.43.02-.13.05-.26.07-.39.03-.14.06-.28.09-.42.04-.16.11-.3.18-.45.07-.13.16-.25.25-.37.19-.25.39-.48.61-.69.19-.18.39-.34.6-.5.22-.17.45-.34.69-.49.11-.07.22-.14.33-.2.05-.03.11-.06.16-.08.04-.02.08-.04.12-.06,0,0,0,0,0,0,.01,0,.03-.01.04-.02.02,0,.03-.02.05-.02.25-.12.49-.25.74-.37.27-.13.54-.23.81-.33.27-.1.54-.2.8-.3.27-.1.54-.21.82-.3.24-.08.49-.16.73-.23.26-.08.52-.17.78-.26.48-.15.95-.3,1.43-.47.04-.01.08-.03.13-.04.1-.04.21-.04.31,0,0,0,.02,0,.03.01.13-.14.26-.31.48-.27.34.05.37.36.3.64.03.1.02.21-.05.32,1.08.54,2.3.64,3.48.65,1.26.05,2.51.15,3.77.1.54-.04,2.22-.07,2.53-.44.19-.42-.22-.9.13-1.27.5-.43,1.11.22,1.63.33.9.32,1.77.74,2.67,1.02.5.17,1.82.8,2.98,1.47.04-.01.09-.02.13-.02,1.59.38,2.14,1.36,2.52,2.87.04.17.07.34.08.51Z"/>
      <path class="cls-13" d="M40.95,77.59c-1-.47-2.14-.75-3.04-1.4-.35-.37.23-.91.58-.54.47.29.99.47,1.49.69.45.2.93.36,1.37.58.43.26.03.94-.41.68Z"/>
      <path class="cls-13" d="M49.22,81.09c-.12-.02-.24-.07-.35-.12-.12-.05-.25-.09-.37-.14-.22-.08-.43-.17-.65-.25-.53-.21-1.06-.43-1.6-.64-.54-.21-1.07-.45-1.6-.67-.54-.23-1.09-.43-1.63-.67-1.09-.49-2.17-1-3.26-1.49-.38-.17-.76-.35-1.14-.52-.17-.08-.35-.16-.52-.25-.05-.02-.09-.05-.14-.07-.03-.02-.06-.04-.09-.06-.06-.04-.1-.09-.15-.14-.07-.1-.1-.24-.06-.35.02-.08.07-.14.12-.19.09-.09.21-.12.33-.1-.01-.12.02-.24.1-.33.07-.09.18-.15.3-.17.21-.05.45,0,.66.07.07.02.13.05.2.07.08-.02.18-.02.26.02.23.1.45.23.67.35.51.19,1.02.37,1.53.55.54.18,1.07.4,1.6.61.28.11.55.22.83.34.28.12.55.24.82.37.53.24,1.06.5,1.59.74.31.14.63.28.95.41.27.1.54.19.81.29.29.12.57.26.84.42.17.1.33.23.45.38.05.07.09.14.12.22.03.08.04.17.04.25,0,.08-.01.17-.02.25-.01.12-.02.24-.05.35-.03.13-.06.25-.15.35-.09.1-.22.16-.35.16-.03,0-.06,0-.09,0Z"/>
      <path class="cls-13" d="M38.13,75.54c-.51-.34.16-1.15.62-.81.5.21.36.96-.21.81-.13.08-.29.08-.42,0Z"/>
      <path class="cls-13" d="M50.47,72.03c.4.29,1.21.67.83,1.27-.32.46-.48,1.55-1.21,1.41-.36-.19-.8-.41-1.02-.76-.82-.61-1.66-1.18-2.53-1.71-.54-.39-3.13-1.58-2.91-2.25-.36-.39.21-.78.4-1.1.46-.75,1.06-.41,1.6.03.75.53,1.49,1.07,2.3,1.53.86.5,1.7,1.04,2.54,1.58Z"/>
      <path class="cls-13" d="M44.14,70.68c-.35-.18-1.12-.36-.84-.89.33-.46.86.1,1.24.21.43.26.03.94-.4.68Z"/>
      <path class="cls-3" d="M48.22,36.32c-.06.06-.17.08-.26.1-.12.07-.25.19-.37.36-.75.98-.18,1.86.71,2.47,1.45,1.05,3.05,1.81,4.68,2.52.45.12.91.2,1.37.21.52-.07,1.02-.27,1.42-.63.23-.52.29-1.1,0-1.57-.53-.25.25-.78.52.13.2.1.43.38.61.42,1.44.71,2.91,1.42,4.06,2.57.76.59.93,1.79.56,2.65-.4.63-1.16,1.18-1.93,1.18-1.37-.26-2.47-1.26-3.6-2.02-.67-.5-1.37-.95-2.1-1.37-.05-.02-.1-.04-.14-.07-.05,0-.1,0-.15,0-.16,0-.22-.17-.17-.29-.03-.02-.06-.03-.1-.05-.22.35-.76-.26-1.02-.36-1.18-.7-2.35-1.4-3.55-2.05-.2.43-.9-.4-1.16-.52-.2.29-.55-.1-.78-.18-.07-.04-.14-.08-.21-.12-.02,0-.05,0-.08,0-1.51-.26-3.06-.88-2.59-2.72.6-1.79,2.64-1.8,4.13-1.2.32-.1.59-.08.68.09.16.03.27.1.26.25-.1.27-.43.11-.82.2h0ZM81.01,43c-.35-1.43-.75-2.86-1.44-4.16-.08-.18-.18-.36-.27-.53,0,0,0,0,0,0-.02-.05-.05-.11-.08-.15,0,0,0,0,0,0-.24-.44-.47-.81-.53-.88-.2-.19-.55-1.09-.85-1.13,0,0,0-.02-.01-.02-.22-.33-.46-.66-.68-.99.06-.06.08-.16.01-.25-.32-.39-.67-.76-1.02-1.14.06-.07.09-.17.04-.27-.24-1.02.89-1.66,1.77-1.7.96-.01,1.87.47,2.6,1.07h0c.08.09.15.18.23.27.03,0,.05,0,.08,0,.05.05.1.11.15.16.32.22.45-.24.17-.4-.11-.11-.22-.21-.33-.31-.44-.6-1.43-1.5-1.54-1.63-.76-.67-1.29-1.66-2.11-2.25.02-.12.04-.25.06-.37,0-.01,0-.02,0-.04,0-.03,0-.06-.01-.09-.08-.07-.19-.12-.34-.16-1.67-1.2-.58,1.02-4.16,2.45-.09.04-.14.15-.11.24-1.15-.38-3.26-.78-3.55-.22-.18.29.24.54.34.24.02.05.06.09.11.12.57.23,1.14.47,1.65.82,2.79,2.04,4.78,5.01,6.09,8.17.83,1.7,1.3,3.55,1.72,5.4.19,1.08.42,2.16.54,3.25.06,1.37-.09,2.75-.3,4.11-.21,1.19-.2,2.41-.46,3.6-.57,2.38-1.27,4.8-2.56,6.9-1.75,2.27-3.85,4.32-6.17,6-1.52,1.1-3.24,1.85-4.92,2.66-1.29.52-2.59,1.01-3.89,1.5-.54.18-1.12.33-1.68.44-.04-.4-.62-.18-.31.35,0,0,0,0,0,0,.19.37.21.77.26,1.11-.02.03-.03.06-.03.1,0,.17,0,.33,0,.5-.07.06-.1.15-.02.29,0,0,.01.02.02.02,0,.32,0,.63,0,.95.14.72-.56,3.32.27,3.47,3.78.09,7.16-1.79,10.66-2.94.14-.03.23-.09.28-.15.36-.06.63-.19.64-.4-.12-.3-.47-.02-.69-.02-1.31.19-2.92.1-3.91-.87-.55-.67-.4-1.34-.13-1.89,3.37-1.74,6.53-3.9,9.17-6.63,1.04-.69,2.99-3.82,3.36-4.48,1.12-2.08,2.08-4.28,2.49-6.62.73-4.48.45-9.11-.58-13.52h0ZM68.93,87.3c.74.87,1.1,2.09.93,3.21-.12.5-.95.33-1.35.47-1.16.19-2.33.07-3.5.1-1.36.06-2.72,0-4.08-.03-1.34-.01-2.63.12-3.97.13-5.33-.17-10.66-.28-15.99-.37-.57-.05-1.79.1-1.74-.75.2-.87.26-1.96,1.09-2.49.11-.08.24-.02.29.08.65-.11,1.62-.03,1.86-.03,1.26.03,2.52.04,3.78.06,2.7.1,5.4.13,8.1.09,1.55-.01,3.13.14,4.66-.11-.76-1.31-2.14-2.04-3.56-2.46-.32.02-.32-.44-.01-.4.22.06.44.13.65.2.03-.01.06-.02.09-.02.62-.03,1.24-.07,1.85-.17.42-.11.94-.15,1.24-.49.12-.46.04-1.44.82-1.08.81.37,1.72.41,2.55.72.84.31,1.66.66,2.45,1.06,1.31.68,2.88,1.07,3.84,2.27h0ZM49.51,79.26c.11.34-.07.71-.05,1.07.07.43.1.78-.47.55-1.73-.73-3.48-1.4-5.19-2.15-.22-.09-.43-.18-.64-.26-.19-.12-.53-.09-.61-.32-.56.01-1.16-.08-1.64-.37-.16-.17.08-.43.26-.29h0c.78.34,1.79.4,2.53-.05.32-.25.21-.67.75-.39,1.22.57,2.45,1.02,3.71,1.46.45.22,1.01.37,1.35.76h0ZM51.15,72.74c.38.22.14.53-.04.8-.23.33-.47,1.22-.97,1.07-.77-.27-1.4-.83-2.08-1.26-.2-.19-1.21-.65-1.13-.87-.32,0-1.63-.33-1.42-.77.13-.19.32-.02.46.07.17.09.35.17.54.23.67.2,1.9.03,1.9-.85.25-.36.65.28.91.39.58.45,1.24.78,1.84,1.19h0ZM45.08,53.62c.02-.06.07-.12.11-.16,1.13-1.32-.51-2.66-1.51-3.44-.15-.16-.51-.32-.72-.49-.02-.01-.03-.02-.05-.03-.28-.13-.13-.41.11-.38.02-.07.06-.14.11-.19.36-.52.82.11,1.15.34.43.31.85.66,1.25,1.01.83.62,1.78,1.05,2.71,1.48.58.24,1.13.54,1.7.8.34.17,1,.28.89.78-.39.67-1.2,2.29-2.09,2.16-1.33-.1-2.49-.77-3.57-1.49,0,0,0,0,0,0-.22-.03-.22-.25-.1-.38h0ZM76.22,11.25c.57,1.22-.25,2.44-.98,3.39-.21.22-.36.75-.74.59-.59-.42-.94-1.1-1.44-1.61-.56-.62-1.43-.83-2.04-1.33-.43.05-.4-.46.02-.41,1.34-.41,1.92-1.79,2.12-3.05.31-.5,3.02,1.96,3.06,2.42Z"/>
      <path class="cls-15" d="M83.44,48.07c-.19-.45-.73-2.94.37-2,.34.44.44,1.06.42,1.61.03.55-.49,1.12-.79.39h0ZM80.93,63.98c-.06,0-.13-.01-.19-.03-.04-.03-.08-.07-.1-.12,0,0,0,0,0-.01,0,0-.02,0-.03,0,.03-.07.06-.14.09-.2.01-.03.03-.06.04-.09.27-.52.53-1.04.77-1.58.25-.56.47-1.14.68-1.72.2-.56.38-1.12.54-1.69.17-.59.33-1.17.48-1.77.13-.53.26-1.07.34-1.61.14-.59.22-1.19.28-1.79,0,.02,0,.04,0,.06,0,0,0-.02,0-.03,0-.02,0-.04,0-.06,0,0,0-.02,0-.03,0,.02,0,.04,0,.06,0-.03,0-.07,0-.1,0,.02,0,.04,0,.06.04-.45.05-.9.05-1.35,0-.6-.02-1.2-.06-1.8-.02-.24-.03-.47-.05-.71,0,0,.01,0,.02,0,.08-.04.16-.08.25-.11.02,0,.04-.01.06-.02,0,0,0,0,.01,0,.01,0,.03,0,.04,0,.01,0,.02,0,.04.01.02.01.05.02.07.03.05.03.09.06.14.09.03.03.07.05.1.08.04.06.07.12.1.18.05.11.1.22.15.33.09.24.17.49.23.74.06.29.1.59.13.88.03.31.04.62.05.93,0,.29.02.59.01.88-.02.37-.06.73-.11,1.09-.05.35-.1.7-.16,1.04-.2,1.09-.47,2.16-.8,3.22-.12.38-.25.76-.4,1.13-.15.37-.31.73-.47,1.09-.18.39-.38.77-.59,1.15,0,0,0,0,0,0-.06.1-.11.2-.17.29-.2.33-.4.66-.62.97-.3.3-.61.5-.9.5,0,0,0,0,0,0Z"/>
      <path class="cls-6" d="M44.72,67.19c.15,1.32-.97,3.42-2.49,3.22-1.78-.19-3.35-1.12-5.01-1.73-1.04-.47-2.05-1.02-2.95-1.71-.64-.55-1.63-1.14-2.21-1.86-.73-.77-1.45-1.61-1.9-2.57-.13-.45.22-.85.4-1.24.21-.42.54-.75.91-1.03,0-.05,0-.11.02-.16.15-.39.65-.44,1.01-.5,1.01-.19,1.98.14,2.89.55,2.1.89,4.13,1.93,6,3.23.91.82,3.21,2.66,3.33,3.81Z"/>
      <path class="cls-6" d="M34.51,69.8c1.44.86,5.61,3.39,3.55,5.27-.66.47-1.38,1.28-2.26,1.09-2.63-.88-5.82-2.69-7.5-4.92-.7-.49.6-2.72,1.25-2.97.94-.49,1.89-.25,2.75.28.75.39,1.49.81,2.22,1.24Z"/>
      <path class="cls-18" d="M43.65,68.85c.25.03.73-.28.74.15-.12.31-.48.46-.73.66-.61.55-1.36.73-2.16.58-1.65-.16-3.16-.95-4.56-1.79-.91-.38-1.74-1.03-2.57-1.57-1.18-.73-2.11-1.69-2.94-2.78-.36,0-.91-1.17-1.06-1.49-.6-.04.32-1.23.41-1.51.1-.27.38-.49.56-.15.55,1.78,2.09,2.82,3.49,3.92,1.73,1.27,3.58,2.38,5.55,3.24,1.07.32,2.15.76,3.28.74Z"/>
      <path class="cls-18" d="M38.11,74.87c.05.49-.62.65-.94.88-.28.19-.54.43-.91.34-2.65-.41-5.01-1.87-6.88-3.74-1.06-1.02-1.74-1.37-.62-2.77-.11-.47.72-.31.45.07.48,1.16,1.48,1.9,2.46,2.63,1.26,1.05,2.8,1.68,4.35,2.17.46.12.94.23,1.41.27.23.05.57-.13.69.15Z"/>
      <path class="cls-12" d="M42.16,68.54s-.06,0-.09-.01c-.43-.12-.92-.28-1.29-.56-.07.09-.21.13-.31,0-1.69-2.41-3.46-4.78-5.16-7.19-.12-.25-.91-.99-.29-1.04.11.05.19.19.28.33.21,0,.65.25,1,.46.05-.11.2-.17.31-.07.02.03.05.05.07.08,0,0,.02-.02.03-.02.18-.11.28.07.36.21.74.96,1.4,1.99,2.09,2.98.68.96,1.39,1.88,2.06,2.85.28.39.57.76.84,1.15.17.23.33.47.5.71.1.14-.05.34-.21.3-.07-.05-.14-.11-.19-.18h0ZM37.85,66.82c.07.09.2.09.28.03.02-.01.03-.03.04-.04.14.2.29.4.43.6.1.14.34.06.35-.11.01-.11-.08-.19-.13-.27-.54-.76-1.09-1.53-1.64-2.28-1.26-1.71-2.44-3.46-3.69-5.17-.11-.11-.23-.08-.29,0-.14-.07-.33.02-.29.23,1.6,2.37,3.25,4.72,4.94,7.03Z"/>
      <path class="cls-16" d="M56.47,75.42c.73,1.29-.52,3.12-1.99,2.92-3-.3-1.94-3.8-.86-3.57.82-.65,2.28-.14,2.85.64Z"/>
      <path class="cls-16" d="M76,26.09c.14,2.92-2.31,5.09-5.18,4.19-1.08-.27-2.2-.76-2.76-1.78-1-1.48-.88-3.76.49-4.97,2.51-2.37,7.14-1.01,7.46,2.56Z"/>
      <path class="cls-14" d="M75.62,24.65c.53,1.12.4,2.44-.01,3.58-.66,1.67-2.57,2.74-4.34,2.42-.58-.1-1.14-.36-1.62-.69-.19-.17-1.04-.7-1.06-1.03-.37-.14-.78-.44-.45-.7.33-.12.21.57,1.36.36.9-.2.9-.95,1.14-1.04.04-.08.12-.15.23-.15.28-.02.59-.02.83-.19.5-.38.76-1.07.71-1.69-.03-.1,0-.23.09-.29.11-.06.22,0,.33.02.62.04,1.17-.5,1.39-1.05.05-.15.08-.31.07-.48-.03-.13.02-.27.16-.29.03,0,.05,0,.08,0,.07-.03.16-.02.25.06.26.39.66.7.84,1.15Z"/>
      <path class="cls-14" d="M55.99,75.07c1.23,1.29.09,3.31-1.62,3.12-.25-.07-1.17-.23-1.05-.58,0-.01.01-.02.02-.03-.42-.08-1.1-.36-.71-.69.09-.04.2,0,.25.08.55.4,1.42.34,1.86-.2.38-.46.62-1.21.28-1.74-.07-.03-.1-.08-.1-.14,0-.01-.02-.02-.03-.03-.16-.2.16-.45.31-.24,0,.01.02.02.03.03.19,0,.45.11.77.43Z"/>
    </g>
    <g>
      <path class="cls-11" d="M47.14,35.37c-.36-.23.52-1.11.63-1.42.49-.78.96-1.58,1.43-2.37,2.04-3.31,4.06-6.63,6.13-9.92,1.25-2.05,2.58-4.05,3.79-6.14.36-.48,2-3.88,2.47-3.46.18.17,0,.36-.12.5-.27.37-.52.76-.76,1.15-2.15,3.75-4.51,7.37-6.78,11.05-1.51,2.5-3.08,4.96-4.58,7.46-.46.79-.94,1.57-1.42,2.35-.23.24-.38.96-.77.8Z"/>
      <path class="cls-11" d="M51.5,53.22c-3.39-.47-7.46-3.08-9.27-5.99-.97-1.75-.22-3.77.57-5.43.36-.84.73-1.68,1.26-2.42.11-.15.2-.31.28-.47.28-.25.54.15.31.4-.87,1.24-1.43,2.65-2.01,4.04-1.11,2.62.1,4.39,2.09,6.06,1.74,1.43,3.72,2.7,5.94,3.2,3.55,1.15,5.8-2.47,7.45-5,.26-.24.69-1.38,1.05-1.16.3.26-.19.6-.29.86-.38.55-.76,1.1-1.13,1.66-1.39,2.13-3.42,4.69-6.27,4.27Z"/>
      <path class="cls-11" d="M61.13,42.93c-.36-.23.51-1.14.62-1.44.49-.79.99-1.58,1.51-2.35,1.79-2.87,3.77-5.61,5.48-8.53.31-.79.84-.46.58-.1-1.44,2.5-3.09,4.87-4.67,7.29-.76,1.21-1.56,2.39-2.31,3.61-.23.37-.47.75-.7,1.13-.12.18-.23.55-.51.4Z"/>
      <path class="cls-11" d="M44.25,39.15c-1.74-1.8.26-4.51,2.52-4.07.52-.04.48.67,0,.46-1.25-.26-2.72.66-2.72,2.01.02.45.16.94.5,1.26.22.19-.07.54-.29.35Z"/>
      <path class="cls-11" d="M59.22,46.98c-.28-.09-.14-.52.14-.43.4.12.83-.03,1.18-.24,1.06-.6,1.48-2.09.65-3.04-.37-.26-.05-.77.25-.4,1.6,1.6-.05,4.57-2.22,4.11Z"/>
      <path class="cls-11" d="M58.92,46.93c-4.32-2.86-8.75-5.7-13.69-7.37-.23-.1-.54-.1-.7-.3-.12-.22.19-.47.37-.28,4.03,1.27,7.73,3.39,11.3,5.62.97.66,1.96,1.3,2.95,1.94.25.15.01.54-.24.39Z"/>
      <path class="cls-11" d="M61.11,43.26c-1.04-.94-2.27-1.63-3.45-2.38-1.11-.7-2.23-1.39-3.38-2.02-2.35-1.1-4.65-2.38-7.11-3.23-.6,0-.38-.66.21-.41,1.8.63,3.51,1.49,5.22,2.33.85.41,1.72.78,2.53,1.26,1.97,1.18,3.97,2.34,5.82,3.72.17.17.45.29.53.53.02.19-.22.33-.37.2Z"/>
      <path class="cls-11" d="M71.2,30.69c-4.29-.42-5.52-6.13-1.57-8.05-.03.01-.06.03-.09.05.05-.05.13-.07.2-.06,2.46-1.15,5.83.22,6.4,2.97.76,2.99-2.03,5.54-4.95,5.09h0ZM71.82,30.27c2.5.12,4.62-2.3,3.85-4.76-.41-1.57-1.98-2.66-3.55-2.83-.8-.11-1.57.18-2.32.38-3.79,1.96-2.09,7.34,2.05,7.21,0,0-.03,0-.03,0Z"/>
      <path class="cls-11" d="M71.65,28.18c-2.7-.33-1.52-3.76.81-3.24,1.92.81,1.25,3.34-.81,3.24h0ZM71.75,27.73c2.1-.03,1.63-2.87-.18-2.3-1.36.43-1.43,2.21.18,2.3Z"/>
      <path class="cls-11" d="M69.2,30.32c-.27-.19.09-.68.36-.49.28.18-.11.66-.36.49Z"/>
      <path class="cls-11" d="M73.79,22.94c-.04-.31.25-.56.37-.83.73-1.33,1.82-2.66,1.55-4.26-.22-1.42-1.34-2.46-2.29-3.46-1.85-1.91-4.4-3.09-7.01-3.48-1.31-.14-2.7.01-3.85.7-.32.09-.83.82-1.08.53-.27-.43.83-.86,1.11-1.06,1.04-.56,2.24-.71,3.4-.66,2.9.27,5.75,1.57,7.78,3.67,1.67,1.56,3.27,3.78,1.98,6.09-.43.9-.96,1.74-1.45,2.6-.06.27-.32.49-.5.16Z"/>
      <path class="cls-11" d="M66.84,11c-.34-.15-.02-.52.1-.72.37-.58.73-1.16,1.13-1.72.16-.18.26-.46.49-.56.19-.05.35.19.23.35-.56.72-1.04,1.5-1.52,2.27-.12.15-.16.47-.42.39Z"/>
      <path class="cls-11" d="M74.76,15.52c-.11-.06-.14-.21-.08-.31.47-.78.94-1.56,1.4-2.36.12-.18.23-.55.5-.4.11.06.14.21.08.31-.44.76-.87,1.51-1.33,2.26-.15.19-.25.65-.57.5Z"/>
      <path class="cls-11" d="M76.39,12.79c-.4-.05.05-.78-.37-1.51-1.12-2-4.07-3.15-6.27-3.24-.3.01-.6.07-.87.21-.07.11-.21.17-.33.09-.32-.26.15-.56.4-.62,2.19-.6,6.25,1.2,7.38,3.17.23.32.66,1.88.06,1.9Z"/>
      <path class="cls-11" d="M72.47,8.28c-.37-.21.48-1.13.61-1.42.25-.37.5-.74.73-1.11.71-1.13,1.4-2.27,2.12-3.4.24-.3.37-.74.69-.93.22-.06.38.25.2.39-.15.21-.28.42-.41.63-.38.59-.75,1.19-1.12,1.79-.65,1.07-1.32,2.13-2.02,3.16-.21.21-.46,1.08-.8.87Z"/>
      <path class="cls-11" d="M75.56,10.32c-.1-.06-.14-.21-.08-.31.23-.34.46-.68.69-1.02.25-.37.49-.75.74-1.12.98-1.47,1.88-3,2.78-4.52.15-.25.54-.01.39.24-.7,1.18-1.4,2.35-2.13,3.51-.47.74-.96,1.47-1.44,2.21-.21.21-.63,1.24-.95,1.02Z"/>
      <path class="cls-11" d="M79.74,3.74c-.35-.03-.17-.44-.23-.67-.18-1.08-1.47-1.47-2.42-1.3-.13,0-.26.12-.39.04-.1-.06-.14-.21-.08-.31.93-.57,2.76-.02,3.18,1.03.12.28.4,1.16-.06,1.22h0ZM76.93,1.8s.03-.02.05-.03c0,0,0,0,0,0,0,0,.01-.01.02-.02,0,0,0,0,0,0,0,0,0-.01.01-.02-.02.03-.05.05-.08.07Z"/>
      <path class="cls-11" d="M78.48,5.41c-.3-.88-1.15-1.5-2.03-1.7-.18-.04-.36-.07-.54-.06-.09.02-.2.02-.27-.06-.13-.13-.04-.36.14-.38,1.31-.08,2.69.79,3.13,2.03.11.27-.32.44-.42.16h0ZM75.89,3.65s.01,0,.02,0c0,0,0,0,0,0,0,0,0,0,0,0,0,0,0,0,0,0,0,0,0,0,0,0,0,0,.01,0,.02-.01,0,0,.02-.01.02-.02h0s-.04.03-.06.04Z"/>
      <path class="cls-11" d="M41.78,51.06c-.11-.05-.17-.19-.11-.3.42-.87.95-1.67,1.42-2.51.1-.26.51-.11.43.15-.15.32-.35.62-.53.92-.2.32-.4.65-.58.98-.19.23-.24.85-.63.75Z"/>
      <path class="cls-11" d="M49.31,55.61c-.27-.3.29-.61.4-.86.22-.3.41-.61.61-.92.22-.29.36-.66.64-.88.22-.09.41.22.23.38-.33.32-1.46,2.66-1.88,2.28Z"/>
      <path class="cls-11" d="M48.99,55.7c-1.34-.03-2.53-.74-3.68-1.36-1.4-.81-2.77-1.77-3.6-3.2-.33-.39.25-.64.42-.19,1.23,1.98,3.43,3.11,5.5,4.03.54.21,1.13.3,1.71.26.12-.01.24.08.25.2.01.32-.39.26-.6.26Z"/>
      <path class="cls-11" d="M41.72,54.63c-.32-.24.28-.79.37-1.08.19-.37.38-.74.55-1.11.02-.16.21-.25.34-.16.32.24-.25.88-.34,1.18-.19.24-.58,1.43-.93,1.18Z"/>
      <path class="cls-11" d="M45.72,57.14c-.32-.26.53-.89.68-1.16.27-.26.41-.68.74-.86.24-.06.39.29.17.41-.2.28-.41.55-.62.81-.25.19-.62,1.03-.96.79Z"/>
      <path class="cls-11" d="M45.45,57.31c-1.23,0-2.62-.94-3.35-1.89-.14-.29-.64-.74-.36-1.05.2-.13.36.08.4.26.18.32.37.64.63.9.69.55,1.44,1.18,2.35,1.29.23.02.46.05.69.02.4.03.36.57-.36.46Z"/>
      <path class="cls-11" d="M59.11,76.34c-.04-.43.81-.3,1.09-.41,1.43-.25,2.86-.55,4.24-1.02,4.66-1.89,9.25-4.54,12.33-8.6,3.67-4.22,5.37-9.89,5.07-15.43-.18-3.29-.43-6.66-1.44-9.81-.65-1.9-1.66-3.62-2.81-5.26-1.32-2.1-3.15-3.9-5.28-5.12-.19-1,1.44.45,1.72.59,2.73,2.06,4.67,5.04,6.16,8.08,1.36,2.88,1.66,6.08,1.97,9.21.51,4.96-.11,10.11-2.58,14.5-1.2,2.17-2.85,4.08-4.52,5.89-2.04,1.91-4.42,3.44-6.89,4.74-2.03,1.09-4.17,1.97-6.44,2.4-.44.02-2.64.68-2.63.24Z"/>
      <path class="cls-11" d="M59.39,80.7c-.03-.39,1.07-.28,1.33-.37.91-.14,1.84-.22,2.73-.46,4.14-1.13,8.13-2.94,11.56-5.53,4.75-3.64,8.57-8.68,10.23-14.47,1.77-6.21,1.46-12.95-.34-19.12-1.32-4.27-4.01-7.97-6.96-11.27-.49-.48-1.01-.93-1.5-1.4-.14-.18-.41-.3-.42-.55,0-.13.15-.24.28-.21.14.02.17.16.26.24,1.56,1.39,2.99,2.9,4.19,4.61,1.94,2.51,3.6,5.25,4.55,8.29,1.83,6.11,2.19,12.8.54,18.99-1.19,4.66-3.88,8.86-7.18,12.31-3.43,3.45-7.64,5.99-12.21,7.64-1.79.66-3.65,1.14-5.55,1.34-.37-.02-1.46.38-1.49-.06Z"/>
      <path class="cls-11" d="M59.09,73.79c-.11-.4,1.04-.47,1.32-.61,1.02-.29,2.04-.61,3.04-.94,4.14-1.49,8.06-3.7,10.92-7.1,1.99-2.53,3.57-5.46,4.1-8.66,1.15-5.45,1.01-11.4-1.3-16.54-1.16-2.66-2.76-5.16-4.9-7.13-.91-.77-1.93-1.38-3.06-1.74-.1.03-.23-.03-.26-.13-.09-.79,1.31.1,1.62.2,3.02,1.55,4.98,4.57,6.5,7.5,2.4,4.68,2.94,10.13,2.31,15.3-.43,3.01-1.07,6.06-2.73,8.66-2.48,4.51-6.86,7.68-11.6,9.51-1.26.57-2.6.95-3.92,1.36-.58.17-1.17.32-1.76.5-.12.03-.25-.04-.28-.16Z"/>
      <path class="cls-11" d="M49.46,84.38c-.19-3.49-.43-8.48,1.75-11.42.86-1.15,2.21-1.77,3.64-1.76,1.05-.03,2.18.07,3.04.74,2.17,1.65,1.72,5.13,1.84,7.58,0,.9-.02,1.8-.04,2.7,0,.45,0,.91,0,1.36,0,.22.05.6-.27.57-.34-.08-.14-.53-.18-.78,0-.63,0-1.26.03-1.9.04-1.77.04-3.58-.08-5.34-.09-1.32-.3-2.79-1.37-3.69-1.09-.97-2.7-.89-4.05-.67-2.6.63-3.46,3.62-3.74,5.97-.23,1.46-.21,2.94-.18,4.41,0,.43.02.86.03,1.29,0,.31.17,1.23-.39.93Z"/>
      <path class="cls-11" d="M54.67,85.17c-1.01-.02-4.75-.05-5.28-.82,0-.36.33-.25.54-.14.54.17,1.04.25,1.58.33,1.56.18,3.13.21,4.7.15,1.01-.08,2.08-.05,3.04-.43-.05-.34.42-.44.46-.08.17,1.12-4.22.93-5.03.99Z"/>
      <path class="cls-11" d="M38.87,90.77c-.07-2.02.57-3.52,2.4-4.49,2.39-1.59,5.17-2.42,7.87-3.33.16-.04.31-.14.47-.09.15.05.2.27.08.38-.43.19-.93.29-1.38.46-2.18.78-4.43,1.45-6.39,2.72-1.01.58-2.08,1.27-2.39,2.46-.19.61-.19,1.26-.21,1.89,0,.28-.45.3-.45,0Z"/>
      <path class="cls-11" d="M69.85,90.84c-.41-.03-.15-.79-.22-1.07-.04-.88-.33-1.78-.91-2.45-.79-.89-1.99-1.26-3.03-1.77-1.39-.66-2.8-1.3-4.27-1.77-.62-.24-1.31-.32-1.92-.58-.1-.07-.11-.22-.04-.32.16-.22.75.13,1,.14,2.69.77,5.26,1.96,7.73,3.27,1.21.72,1.84,2.15,1.88,3.52-.04.29.17.99-.23,1.03Z"/>
      <path class="cls-11" d="M78.87,95.69c-.35-1.52-.21-3.68-2.14-4.1-1.67-.46-3.39-.43-5.09-.45-1.47,0-2.94,0-4.4.03-3.55.17-7.1.16-10.66.18-7.12,0-14.25-.71-21.37-.32-1.43.09-2.89.12-4.31.37-.71.12-1.28.65-1.61,1.27-.23.57-.23,1.21-.32,1.82-.02.24-.06.49,0,.73.12.16-.06.39-.24.34-.54-.09-.01-2.55.09-2.93.43-1.05,1.45-1.71,2.57-1.77,1.45-.17,2.91-.22,4.37-.31,7.07-.33,14.14.38,21.2.35,3.04-.04,6.08.03,9.12-.15,2.45-.07,4.9-.08,7.35-.03,1.94.13,4.75.05,5.39,2.33.25.8.29,1.65.46,2.46.11.26-.28.46-.41.19h0ZM28.96,95.2s-.07-.06-.11-.08c.04.02.08.04.11.08Z"/>
      <path class="cls-11" d="M70.4,96.17c-5.15-.15-10.29-.14-15.44-.06-4.56,0-9.11-.21-13.67-.26-3.6-.09-7.21.04-10.81.02-.59-.08-1.29.08-1.82-.22-.19-.24.16-.59.37-.32,1.62.14,3.24.14,4.86.05,2.08-.07,4.16.02,6.24,0,5.06.04,10.12.29,15.18.27,5.14-.08,10.28-.06,15.43.07,2.02.01,4.04-.06,6.07-.06.45,0,.9,0,1.35-.01.33.06.93-.2,1.02.22,0,.12-.1.23-.23.23-.84.01-1.68.03-2.53.02-2.01.01-4.01.08-6.02.06Z"/>
      <path class="cls-11" d="M69.18,88c-6.2-.18-12.41.08-18.61-.01-3.36.03-6.72-.24-10.08-.19-.24-.04-.61.09-.72-.19-.04-.18.13-.33.31-.28,7.37.14,14.75.3,22.13.17,1.79,0,3.58-.01,5.37-.02.39.06,1.91-.15,1.86.32-.02.13-.13.21-.26.19Z"/>
      <path class="cls-11" d="M54.6,78.49c-1.43.02-2.9-1.29-2.13-2.76.27-.46.86-1.42,1.48-1.27,1.01-.35,2.24.21,2.76,1.11.51,1.32-.66,3.02-2.1,2.92h0ZM54.75,78.04c1.03-.04,1.78-1.2,1.57-2.17-.26-.64-1.06-1.03-1.72-1.07-.31-.03-.62.22-.92.15-1.69,1.28-1.01,3.1,1.07,3.09Z"/>
      <path class="cls-11" d="M43.17,68.95c-3.28-.28-8.4-3.33-10.66-5.73-.61-.71-1.98-2.07-1.4-3.04,0,0,0,0,0,0,2.23-2.89,9.84,2.5,11.8,4.32.85.76,1.86,1.59,2.06,2.77.13,1.01-.82,1.84-1.8,1.68h0ZM43.59,68.49c2.78-.99-1.3-3.92-2.35-4.79-1.71-1.35-8.11-5.59-9.83-3.18.45,3.25,9.03,8.15,12.18,7.97Z"/>
      <path class="cls-11" d="M29.95,62.51c-.37-.35.81-1.86,1.04-2.26.17-.24.54.03.37.26-.15.2-.28.41-.41.63-.21.34-.41.66-.57,1.02-.05.2-.16.52-.43.36Z"/>
      <path class="cls-11" d="M41.98,70.5c-4.21-.79-8.22-2.94-10.98-6.25-.42-.55-.96-1.13-1.12-1.81.04-.19.31-.24.41-.07.27.58.64,1.11,1.05,1.6,2.35,2.87,5.68,4.74,9.21,5.76.65.16,1.33.42,2.01.31.89-.32,1.55-1.11,1.87-1.99.09-.28.53-.12.43.16-.44,1.16-1.52,2.46-2.88,2.29Z"/>
      <path class="cls-11" d="M50.16,75.03c-2.42-1.47-4.82-3.08-7.05-4.78-.07-.22.22-.39.38-.23,1.55,1.05,3.06,2.17,4.63,3.18.74.53,1.53.98,2.31,1.45.24.16-.02.54-.26.37Z"/>
      <path class="cls-11" d="M51.27,73.02c-2.29-1.43-4.67-2.79-6.74-4.52-.16-.26.25-.49.39-.23,1.32,1.01,2.7,1.95,4.1,2.85.83.51,1.68,1,2.5,1.53.24.17-.02.54-.26.37Z"/>
      <path class="cls-11" d="M37.07,74.78c-1.94-.2-3.73-1.13-5.32-2.21-1.07-.78-2.2-1.65-2.8-2.87-.8-2.11,2.31-2.22,3.51-1.37,1.99,1.08,4.03,2.24,5.63,3.88,1.34,1.38,1.13,2.77-1.02,2.56h0ZM37.77,74.33c1.72-.19-.12-1.99-.73-2.5-1.59-1.26-3.31-2.35-5.13-3.25-.79-.35-2.03-.55-2.59.27-.23.94.82,1.71,1.39,2.33,1.11,1.01,2.43,1.82,3.8,2.43,0,0,0,0-.01,0,1.03.44,2.14.82,3.27.73Z"/>
      <path class="cls-11" d="M27.98,71.11c-.55-.27.14-.95.29-1.3.25-.25.56-1.46.93-1.26.44.27-.86,1.8-.97,2.24.08.16-.09.36-.26.31Z"/>
      <path class="cls-11" d="M36.15,76.4c-2.68-.45-6.1-2.47-7.77-4.62-1.12-1.29-.05-1.44-.07-.92,1.37,2.39,5.48,4.85,8.2,5.12.72-.14,1.21-.92,1.63-1.48.1-.16.19-.45.44-.33.4.3-.46,1.08-.65,1.36-.46.5-1.03,1.08-1.77.88Z"/>
      <path class="cls-11" d="M49.7,79.48c-3.76-1.45-7.46-3.09-11.15-4.71-.38-.05-.18-.61.16-.42,2.77,1.16,5.48,2.48,8.28,3.56.95.37,1.91.74,2.86,1.14.27.09.12.53-.15.43h0ZM38.68,74.74s.06-.04.08-.07c-.02.03-.05.05-.08.07Z"/>
      <path class="cls-11" d="M49.39,81.36c-4.03-1.75-8.26-3.07-12.1-5.25-.24-.15-.03-.53.22-.39.09.06.19.11.28.16,2.82,1.56,5.84,2.7,8.84,3.85.97.39,1.93.82,2.9,1.21.27.1.12.53-.15.43Z"/>
      <path class="cls-11" d="M87.68,58.26c-.39-.02.16-1.53.13-1.87.15-1.14.27-2.28.36-3.42.21-2.89-.15-5.8-.9-8.59-.08-.28.36-.41.44-.12.89,3.27,1.21,6.7.8,10.07-.11.5-.27,4.18-.82,3.93Z"/>
      <path class="cls-11" d="M86.27,62.5c-.28-.18.03-.49.1-.71.13-.31.24-.62.35-.94.18-.3.27-1.58.7-1.43.12.04.18.17.14.29-.2.43-.74,3.04-1.28,2.79Z"/>
      <path class="cls-11" d="M58.36,40.95c.07-.44.43-.79.64-1.17.24-.22.89-1.8,1.19-1.07-.21.6-.73,1.1-1.04,1.66-.19.22-.49,1.2-.79.58h0ZM58.8,40.96s0-.04,0-.07c0,.02,0,.04,0,.07Z"/>
      <path class="cls-11" d="M59.61,41.79c-.27-.25.17-.56.27-.8.17-.19.27-.69.6-.55.31.22-.12.56-.22.79-.18.19-.31.75-.65.56Z"/>
      <path class="cls-11" d="M54.82,46.66c-.42-.21.68-1.36.83-1.67.17-.24.54.03.36.27-.28.26-.89,1.66-1.19,1.4Z"/>
      <path class="cls-11" d="M56.78,46.1c0-.23.15-.69.46-.55.22.13.05.35,0,.52,0,.27-.41.31-.45.03Z"/>
      <path class="cls-11" d="M77.55,9.98c-.38-.2.07-.62.18-.87.38-.61.75-1.22,1.12-1.83.24-.24.46-1.18.85-1.03.11.05.16.2.1.3-.47.84-.98,1.65-1.49,2.47-.22.22-.44,1.06-.77.96Z"/>
      <path class="cls-11" d="M74.33,24.37c-.19-.06-.23-.34-.04-.43.19,0,.36-.17.55-.13.18.06.21.34.03.42-.17.06-.35.19-.54.14Z"/>
      <path class="cls-11" d="M75.14,25.53c-.76-.25.74-1.08.56-.31-.07.13-.24.14-.35.22-.06.05-.12.1-.21.09Z"/>
      <path class="cls-11" d="M75.8,27c-.18-.06-.49-.03-.48-.3.03-.3.38-.2.57-.14.29.06.19.51-.09.44Z"/>
      <path class="cls-11" d="M75.4,28.55c-.17-.11-.39.04-.53-.11-.11-.12-.05-.32.1-.37.74-.17.99.52.43.49Z"/>
      <path class="cls-11" d="M74.05,29.62c-.11-.19-.32-.52,0-.61.25-.05.29.26.4.41.13.26-.27.47-.41.2Z"/>
      <path class="cls-11" d="M72.47,30.35c-.11-.45.38-.73.48-.25-.05.17.01.44-.24.46-.12,0-.24-.09-.24-.21Z"/>
      <path class="cls-11" d="M71.23,30.53c-.3-.12-.08-.57.14-.67.28-.11.49.31.19.43-.05.15-.16.3-.33.24Z"/>
      <path class="cls-11" d="M69.89,30.2c-.26-.17.14-.83.41-.77.21.03.27.35.06.44-.09.18-.22.48-.47.33Z"/>
      <path class="cls-11" d="M68.72,29.26c-.29-.34.81-1.01.83-.42,0,.19-.21.18-.32.28-.14.12-.34.33-.51.14Z"/>
      <path class="cls-11" d="M67.74,27.75c-.16-.1-.11-.38.08-.41.24.01.61-.25.75.05.11.36-.61.43-.83.36Z"/>
      <path class="cls-11" d="M67.85,26.22c-.2-.03-.55.02-.54-.27,0-.12.12-.22.24-.21.2.03.55-.02.54.27,0,.12-.12.22-.24.21Z"/>
      <path class="cls-11" d="M68.45,24.75c-.17-.11-.46-.33-.25-.54.21-.17.38.1.55.2.22.19-.08.53-.3.34Z"/>
      <path class="cls-11" d="M69.93,23.71c-.18-.11-.24-.43-.16-.61.2-.25.46,0,.44.25.18.18-.06.48-.28.36Z"/>
      <path class="cls-11" d="M71.76,23.01c-.04-.22-.01-.69.31-.64.26.06.16.33.13.52.07.27-.35.39-.43.13Z"/>
      <path class="cls-11" d="M73.42,23.52c-.09-.08-.1-.22-.03-.31-.02.02,0,0-.03.04.17-.58.65-.49.55-.09-.09.19-.23.56-.5.36Z"/>
      <path class="cls-11" d="M53.85,21.33c-.36-.22.49-1.18.62-1.48.82-1.22,1.67-2.42,2.42-3.68.22-.24.38-1.07.78-.9.11.07.14.2.08.31-.24.42-.48.85-.73,1.26-.77,1.24-1.62,2.43-2.42,3.65-.23.23-.33.99-.75.84Z"/>
      <path class="cls-11" d="M58.45,14.35c-.37-.05-.18-.41-.02-.57.25-.23.56-1.17.94-1,.1.06.15.21.08.31-.31.35-.57,1.1-.99,1.26Z"/>
      <path class="cls-11" d="M61.3,80.7c-.12-.02-.22-.13-.19-.26.1-.56.21-1.12.21-1.69,0-.29.46-.29.45,0-.04.33-.04,2.03-.47,1.95Z"/>
      <path class="cls-11" d="M63.04,80.48c-.4-.09-.03-.84-.09-1.14,0-.2,0-.52.28-.49.17.02.22.19.19.34-.08.33.08,1.27-.38,1.29Z"/>
      <path class="cls-11" d="M42.01,62.5c-.52-.3-.94-.82-1.47-1.14-.99-.7-2.09-1.28-3.26-1.63-.41.03-.59-.44-.13-.48.45.06.88.25,1.3.42.89.39,1.75.86,2.52,1.44.22.24,1.86,1.19,1.04,1.39Z"/>
      <path class="cls-11" d="M43.69,64.14c-.12-.3-.9-.79-.62-1.07.39-.25.74.57.99.8.17.24-.2.5-.37.27Z"/>
      <path class="cls-11" d="M31.99,76.51c-.44-.22-3.96-2.5-3.35-2.93.33-.17.5.35.74.49.28.25.57.48.87.72.63.49,1.27.97,1.97,1.34.25.15.01.54-.24.39Z"/>
      <path class="cls-11" d="M34.6,77.57c-.32-.12-1.44-.19-1.31-.66.17-.34.87.17,1.19.17.4,0,.57.46.12.49Z"/>
      <path class="cls-11" d="M72.62,95.68c-.12-.06-.15-.21-.09-.32.21-.52.36-1.07.47-1.62.13-.28,0-1.02.38-1.04.12,0,.22.12.21.24-.08.4-.42,3.01-.97,2.74Z"/>
      <path class="cls-11" d="M70.59,96.24c-.38-.19.42-1.09.42-1.48.06-.29.51-.19.44.09-.11.3-.46,1.57-.86,1.39Z"/>
      <path class="cls-11" d="M34.85,93.3c-.78,0-1.56-.06-2.34-.07-.1.06-.24.02-.3-.08-.37-.69,2-.22,2.35-.31,1.05.03,2.1-.02,3.14-.05,1.01-.03,2.02-.07,3.02-.12.29-.01.31.44.02.45-1.96.08-3.93.18-5.89.17Z"/>
      <path class="cls-11" d="M42.75,93.29c-.39.1-.62-.41-.17-.46.36.03.71-.01,1.07-.02.32.06,1.25-.23,1.3.19,0,.12-.09.23-.22.24-.66,0-1.33.05-1.99.06Z"/>
    </g>
  </g>
  <g>
    <path class="cls-9" d="M32.11,26.27c4.3,2.33,7.1,6.95,6.61,11.89-.11,1.35-.16,2.76-.69,4.02,0,0,0,0,0,0-.41,1.07-.94,2.12-1.69,2.99-.1.09-.21.24-.32.38-.31.46-.65.9-1.03,1.3.23,2.49,1.03,4.84,1.4,7.31.18.83.41,1.64.68,2.44.27.37.04.91-.45.69-.1-.09-.17-.21-.23-.33-.01-.02-.02-.03-.04-.05-.34-.65-.94-1.1-1.4-1.67-.72-.88-1.42-1.77-2.12-2.66-.34-.14-.47-.55-.7-.81-.53-.76-1.1-1.5-1.57-2.3-.51.27-1.08.36-1.65.46-1.05.25-2.14.52-3.23.4-1.84-.24-3.7-.53-5.37-1.38-1.24-.67-2.33-1.6-3.42-2.48-1.36-1.42-2.39-3.16-2.95-5.04-.5-1.46-.73-2.99-.46-4.53-.51-1.51,1.03-5.01,1.93-6.3.03-.02.06-.03.09-.05.43-.75.93-1.45,1.54-2.07,1.66-1.81,3.45-2.85,5.87-3.3,2.14-.56,4.18-.59,6.27-.06.03,0,.06-.01.1,0,.69.15,1.36.44,2.02.69.28.14.64.21.83.47Z"/>
    <path class="cls-16" d="M23.57,29.41c.82,1.16-.68,2.28-1.45,3.01-.48.39-1.02.7-1.42,1.18-.65.82-1.15,2.27-2.48,1.84-.87-.18-1.2-1.47-.57-2.06-.16-.3.17-.55.31-.78.2-.31.38-.63.55-.96.46-1.03,1.06-2.06,2.12-2.56.91-.54,2.15-.35,2.94.33Z"/>
    <path class="cls-16" d="M35.61,40.83c.13,1.45-1.22,3.75-2.9,3.39-.98-.14-1.36-1.26-1.15-2.12.09-.32.06-.78.38-.97.27-.82.98-1.56,1.89-1.55.76,0,1.64.44,1.79,1.25Z"/>
    <path class="cls-5" d="M26.11,40.02c.59,1.01.94,2.86.89,4.03-.13,1.38-1.13,3.33-2.78,2.73-.82-.38-1.09-1.37-1.02-2.21.05-.74.36-1.46.18-2.2-.21-.96-1.02-1.74-.98-2.76-.04-1,.99-1.5,1.85-1.14.8.24,1.44.84,1.85,1.55Z"/>
    <path class="cls-2" d="M15.92,40.54c-.69-.34-.84-1.4-.46-2.03.34-.47.79-1.01,1.4-.59.94.66.34,2.94-.94,2.62Z"/>
    <path class="cls-2" d="M34.72,33.65c.28,1.74-1.07,3.72-2.95,3.51-1.42-.13-1.63-1.85-2.68-2.55-.63-.5-1.36-1.01-1.5-1.86-.19-.56.09-2.56.82-2.58,1.2-1.26,3.09-1.3,4.31-.05,1.15.82,1.81,2.17,2.01,3.54Z"/>
    <path class="cls-7" d="M26.78,41.29c.47,1.46.3,3.06-.25,4.47-.26.88-1.37,1.53-2.25,1.14-.93-.44-1.26-1.53-1.12-2.5.05-.55.29-1.07.32-1.62.03-.47-.07-.95-.28-1.37-.06-.16-.27-.33-.17-.51-.28-.53-.69-1.08-.56-1.71.03-.21.21-.6.46-.4.07.06.07.19.01.26-.39.67.34,1.37.59,1.97.37.68.52,1.46.53,2.23.01.61-.13,1.25.17,1.81.34.66,1.26.5,1.65-.02.44-.51.59-1.2.64-1.85.02-.64-.04-1.27-.14-1.91-.04-.32.38-.31.4,0Z"/>
    <path class="cls-17" d="M23.76,29.63c.57,1.84-1.5,2.55-2.58,3.58-.93.67-1.08,2.69-2.57,2.3-.33-.08-.64-.22-.92-.41-.16-.15-.55-.45-.3-.66-.59-.93.37-1.07.2-.56.04.66,1,.81,1.44.44.61-.51.83-1.36,1.44-1.88.86-.77,2.16-1.02,2.73-2.09.14-.25.09-.54.08-.81.07-.35.43-.19.48.09Z"/>
    <path class="cls-17" d="M32.94,43.99c-.25-.04-.94-.18-.81-.53-.51-.4-.51-1.11-.5-1.7,0-.1.09-.19.19-.19.33.04.14.52.19.74.11,1.58,1.69,1.09,2.26.06.49-.72.61-1.33.53-2.18.42-.5.55.55.53.82.49.14-.55,2.31-.9,2.33-.38.42-.91.73-1.49.65Z"/>
    <path class="cls-1" d="M34.65,33.18c.07.75.04,1.52-.17,2.24-.32,1.16-1.58,1.81-2.73,1.71-.37-.01-.77-.05-1.08-.29-.6-.49-.92-1.24-1.33-1.88-.57-.75-1.58-1.17-1.79-2.16-.05-.24-.18-.79.14-.86-.04-.58.13-1.18.48-1.65.17-.19.34-.41.58-.49.16-.05.3.14.22.28-.27.19-.53.41-.67.72-.72,1.49.34,2.23,1.39,3.08.73.53.92,1.56,1.72,1.99.9.45,1.99-.13,2.4-.99.37-.74.33-1.6.25-2.4-.03-.18.18-.33.33-.21.21.24.21.61.26.91Z"/>
    <path class="cls-1" d="M15.93,40.4s-.05-.07-.06-.11c-.2,0-.56.02-.59-.24,0-.09.07-.18.17-.19.57.21,1.12-.18,1.36-.7.16-.25.04-.55.01-.82-.11-.23.09-.53.32-.3.28.69.27,1.75-.38,2.22-.24.11-.58.33-.83.14Z"/>
    <path class="cls-1" d="M15.7,40.17c-.26.03-.44-.28-.16-.4.81.19,1.32-.73,1.06-1.43-.03-.08-.06-.16-.1-.24-.1-.23.26-.38.35-.15.51.88-.03,2.3-1.16,2.21Z"/>
    <g>
      <path class="cls-11" d="M26,50.62c-7.02.11-13.22-6.14-13.04-13.16-.11-7.93,7.51-14.35,15.3-12.9,6.48.96,11.48,7.28,10.92,13.81-.18,2.93-1.39,5.77-3.36,7.94-.22.18-.48.74-.8.5-.19-.23.14-.41.27-.57.75-.79,1.39-1.66,1.91-2.6,2.49-4.4,1.98-10.23-1.24-14.11-6.09-7.55-18.15-5.67-21.68,3.35-3.83,9.86,5.38,19.81,15.51,16.77.25-.02.62-.36.78-.04.2.62-3.46,1.03-4.4,1.03-.07,0-.12,0-.16,0Z"/>
      <path class="cls-11" d="M36.73,57.81c-2.21-2.66-4.38-5.37-6.48-8.12-.18-.26.25-.51.38-.22,1.61,2.16,3.35,4.23,5.02,6.35.46.58.93,1.15,1.42,1.71.14.16-.02.36-.18.36-.05,0-.11-.02-.16-.08Z"/>
      <path class="cls-11" d="M36.93,57.64c-.68-3.65-1.65-7.29-2.04-10.98.1-.2.42-.12.41.11.43,2.66.86,5.31,1.48,7.94.2.95.4,1.9.58,2.86.03.16-.1.25-.22.25-.09,0-.19-.05-.21-.18Z"/>
      <path class="cls-11" d="M36.86,57.68c0-.12.09-.23.21-.23s.22.09.23.21c0,.12-.09.23-.21.23s-.22-.09-.23-.21Z"/>
      <path class="cls-11" d="M24.49,47.24c-.9-.23-1.53-1.13-1.62-2.03-.09-1.21.58-2.41.06-3.59-.27-.69-.83-1.32-.72-2.12.21-1.73,2.38-1.46,3.29-.44,1.44,1.69,2.15,4.22,1.45,6.37-.3.91-1.11,1.84-2.11,1.84-.11,0-.23-.01-.34-.04h0ZM22.64,39.77c.04.47.3.89.53,1.29.27.55.43,1.17.41,1.78-.04.76-.32,1.51-.28,2.27.07.81.71,1.75,1.6,1.72,3.03-.76,1.91-5.96.18-7.58-.35-.34-.91-.57-1.41-.57-.58,0-1.06.3-1.03,1.08Z"/>
      <path class="cls-11" d="M24.71,45.92c-.58-.24-.58-1.22-.22-1.65.13-.46.91-.57,1.14-.14.37.62-.04,1.8-.82,1.8-.04,0-.07,0-.11,0h0ZM24.91,44.38s0,.01,0,.02c0,.09-.05.16-.12.2-.14.24-.16.72.06.9.43-.04.7-1.2.29-1.2-.06,0-.14.03-.23.08Z"/>
      <path class="cls-11" d="M23.31,38.36s0,.02,0,.02c-.11-.38-.22-.76-.35-1.13-.68-.08-.79-1.02-.05-1.11.65-.09.98.6.49,1.05.07.27.56,1.22.18,1.32-.02,0-.04,0-.06,0-.1,0-.19-.06-.21-.16h0ZM23.03,36.82s.05.01.08.03c.19-.2.06-.27-.08-.27-.17,0-.36.11,0,.25Z"/>
      <path class="cls-11" d="M25.01,38.57c.27-.32.48-.69.74-1.01-.42-.53.58-1.06.99-.67.75.56.04,1.44-.73,1.04-.26.31-.48.88-.86,1.02,0,0,0,0,0,0-.19,0-.29-.26-.14-.38h0ZM26.05,37.5c.13.02.26.11.4.1.36-.1.08-.39-.15-.39-.12,0-.23.08-.24.29Z"/>
      <path class="cls-11" d="M28.37,42.17c-.17-.08-.28-.23-.35-.39-.37.11-.72.27-1.06.43-.21,0-.29-.27-.14-.41.36-.23.81-.37,1.23-.47-.13-.43.59-.49.83-.27.45.29.19,1.16-.3,1.16-.06,0-.13-.01-.2-.05h0ZM28.32,41.43c.1.1.11.29.25.35.19-.16.09-.41-.09-.41-.05,0-.11.02-.16.07Z"/>
      <path class="cls-11" d="M27.62,46.43c-.26-.17-1.47-.65-.89-1.02.13-.04.22.06.29.15.28.26.67.36.96.61.98-.21,1,1.29.11,1.32-.51-.05-.57-.66-.47-1.06h0ZM28.04,46.57c-.02.15-.08.42.09.48,0,0,.01,0,.02,0,.2-.16.22-.48-.07-.48-.01,0-.03,0-.04,0Z"/>
      <path class="cls-11" d="M20.41,44.08c-.68-.73.43-1.55,1.04-.84.2.38.65.23,1.01.29.27.04.56.02.82.07.25.16.03.48-.23.41-.52-.06-1.02-.05-1.53-.12-.12.25-.36.38-.61.38-.18,0-.36-.07-.5-.2h0ZM20.92,43.85c.14,0,.2-.14.26-.25-.1-.14-.21-.2-.31-.2-.25,0-.4.34.05.44Z"/>
      <path class="cls-11" d="M20.07,40.74c-1.19-.83.37-2.08.97-.7.47.1.95.18,1.42.28.17.03.43.01.43.25.02.33-.62.19-1.18.05-.32-.08-.6-.15-.73-.15-.15.19-.4.32-.64.32-.09,0-.18-.02-.27-.06h0ZM20.36,40.36c.1,0,.2-.06.27-.14-.21-.61-.86-.35-.39.11,0,0-.01,0-.02-.01,0,0,0,0,0,0,.04.04.09.04.14.04Z"/>
      <path class="cls-11" d="M15.75,40.76c-1.58-1.03-.63-4.04,1.34-2.96.74.51.68,1.6.17,2.26-.18.43-.63.81-1.1.81-.14,0-.28-.03-.42-.11h0ZM16.2,38.03c-1.13.19-1.04,2.22,0,2.41,1.04-.26,1.52-2.42.13-2.42-.04,0-.09,0-.13,0Z"/>
      <path class="cls-11" d="M18.62,35.77c-.25-.03-.82-.09-.93-.33-1.49-.85-.16-2.55.47-3.53.57-1.56,1.37-2.71,3.03-3.21,1.45-.3,3.5.41,2.7,2.22-.49,1.09-1.65,1.58-2.51,2.32-.94.74-1.14,2.56-2.5,2.56-.08,0-.17,0-.26-.02h0ZM21.17,29.16c-1.37.47-2.1,1.51-2.55,2.82-.5,1.03-2.08,2.51-.4,3.26.25.1.53.1.8.09,1.02-.14,1.25-2,2.29-2.59.75-.6,1.7-1.04,2.17-1.92.64-1.2-.53-1.76-1.58-1.76-.25,0-.5.03-.71.09Z"/>
      <path class="cls-11" d="M22.02,33.84c-.17-.17-.33-.36-.52-.52-.21-.09-.14-.42.09-.42.32.07.5.43.74.63.16.15,0,.37-.16.37-.05,0-.1-.02-.15-.07Z"/>
      <path class="cls-11" d="M23.57,32.42c-.2-.19-.8-.26-.65-.62.25-.31.61.15.87.24.21.12.08.41-.11.41-.03,0-.07,0-.11-.03Z"/>
      <path class="cls-11" d="M24.47,30.97c-.08,0-.16,0-.22,0-.03,0-.07,0-.1,0-.18,0-.41,0-.41-.22,0-.12.1-.22.22-.22.26,0,.53,0,.79,0,.12,0,.22.1.22.22-.02.2-.18.23-.36.23-.04,0-.09,0-.13,0Z"/>
      <path class="cls-11" d="M23.56,29.59c-.24-.16-.02-.41.14-.54.15-.11.27-.32.47-.35.44.09.11.45-.1.61-.13.09-.23.31-.4.31-.03,0-.07,0-.11-.03Z"/>
      <path class="cls-11" d="M21.9,28.93c-.3-.1-.08-.44-.04-.65.1-.21.08-.67.41-.61.32.12.05.5.01.72-.08.18-.08.54-.32.54-.02,0-.04,0-.06,0Z"/>
      <path class="cls-11" d="M20.13,29.24c-.03-.25-.32-.66.01-.8.11-.03.24.04.27.15.02.23.2.47.12.7-.04.07-.11.11-.19.11-.09,0-.19-.06-.21-.16Z"/>
      <path class="cls-11" d="M20.09,32.29c-1.01-.31-.29-1.99.57-1.93.48-.5,2-.54,1.78.45-.15.3-.48.43-.74.62-.47.28-.88.87-1.45.87-.05,0-.11,0-.16-.02h0ZM20.39,30.91c-.25.2-.62.88-.12.97.39-.09.65-.42.96-.64.25-.22.62-.34.81-.61-.22-.29-.52-.18-.81-.07-.16.06-.32.12-.46.12-.08.14-.28.1-.38.23Z"/>
      <path class="cls-11" d="M31.79,37.34c-1.56.02-1.91-1.41-2.68-2.42-.47-.59-1.29-.89-1.57-1.62-.42-.97-.18-2.63.72-3.23,2.02-2.23,5.26-.4,6.22,1.96,1.08,2.24.29,5.32-2.54,5.32-.05,0-.1,0-.15,0h0ZM28.44,30.39c-.67.77-.91,1.96-.44,2.88.31.5.89.75,1.27,1.19.89.92,1.15,2.67,2.79,2.43,2.22-.05,2.85-2.5,2.17-4.28-.59-1.69-2.12-3.12-3.73-3.12-.7,0-1.41.27-2.07.9Z"/>
      <path class="cls-11" d="M32.04,35.71c-.91-.19-1.29-1.44-.96-2.22,0-1.24,1.69-1.13,2.11-.19.53.83.1,2.41-.97,2.42-.06,0-.11,0-.17-.01h0ZM31.57,33.25c-.07.11-.04.26-.15.34-.05.64,0,1.65.84,1.71.8-.23.9-1.39.41-1.97-.16-.18-.44-.33-.69-.33-.17,0-.33.07-.42.25Z"/>
      <path class="cls-11" d="M32.87,44.41c-2.07-.45-1.71-3.5-.28-4.49.85-1.15,2.85-.45,3.12.86.25,1.46-1.09,3.64-2.69,3.64-.05,0-.1,0-.16,0h0ZM32.86,40.2c-1.12.89-1.64,3.59.28,3.79,1.3-.18,2.46-2.04,2.1-3.29-.24-.56-.83-.91-1.41-.91-.35,0-.7.13-.97.42Z"/>
      <path class="cls-11" d="M32.85,41.78c.13-.33.66-.2.86.01.37.42-.05,1.21-.58,1.23-.58-.04-.63-.92-.28-1.25h0ZM33.15,42.59c.25-.09.42-.62.01-.56-.06.16-.17.44-.02.56,0,0,0,0,0,0Z"/>
      <path class="cls-11" d="M13.41,44.78c-2.14-3.39-2.42-6.83-1.8-10.71,0-.12.12-.21.24-.2.37.09.12.58.13.84-.4,2.57-.32,5.25.7,7.68.32.74.71,1.45,1.1,2.15.16.23-.22.48-.37.24Z"/>
      <path class="cls-11" d="M16.36,48.12c-.46-.25-.95-.48-1.3-.88-.16-.25-.69-.68-.34-.95.32-.15.54.69.86.85.3.23.64.41.98.59.25.13.04.52-.2.39Z"/>
      <path class="cls-11" d="M38.02,30.05c-1.18-2.55-3.05-4.13-5.57-5.28-.21-.11-.41-.22-.61-.35-.23-.16.02-.52.25-.36,2.07,1.08,4.24,2.21,5.47,4.29.13.32,1.17,1.62.75,1.79-.11.05-.24,0-.29-.1Z"/>
      <path class="cls-11" d="M38.31,56.99c0-.91.07-1.82.13-2.73.03-.21-.04-.59.27-.58.12.01.21.12.2.24-.07.9-.13,1.81-.16,2.72-.02.2.08.54-.21.56-.12,0-.22-.09-.23-.21Z"/>
      <path class="cls-11" d="M34.95,58.22c-.47-.28-.89-.63-1.35-.93-.1-.07-.12-.21-.05-.3.3-.28.65.26.92.38.23.16.46.35.71.48.11,0,.2.1.2.21,0,.23-.27.28-.43.16Z"/>
    </g>
  </g>
</svg>