<?xml version="1.0" encoding="UTF-8"?>
<svg xmlns="http://www.w3.org/2000/svg" viewBox="0 0 100 100">
  <defs>
    <style>
      .cls-1 {
        fill: #d1fcff;
      }

      .cls-2 {
        fill: #ffdbbd;
      }

      .cls-3 {
        fill: #c7c8c9;
      }

      .cls-3, .cls-4, .cls-5, .cls-6, .cls-7, .cls-8, .cls-9, .cls-10, .cls-11, .cls-12, .cls-13, .cls-14, .cls-15, .cls-16, .cls-17, .cls-18, .cls-19, .cls-20, .cls-21, .cls-22 {
        mix-blend-mode: multiply;
      }

      .cls-3, .cls-17, .cls-20 {
        opacity: .7;
      }

      .cls-4, .cls-23, .cls-11, .cls-24, .cls-12, .cls-13, .cls-15, .cls-19, .cls-21 {
        opacity: .4;
      }

      .cls-4, .cls-10, .cls-25, .cls-26 {
        fill: #8dccc3;
      }

      .cls-5 {
        fill: #231f20;
        opacity: .1;
      }

      .cls-6 {
        fill: #388448;
      }

      .cls-6, .cls-7, .cls-8, .cls-14, .cls-27, .cls-28 {
        opacity: .6;
      }

      .cls-7 {
        fill: #387d87;
      }

      .cls-8, .cls-17, .cls-18, .cls-19, .cls-29 {
        fill: #32394b;
      }

      .cls-9, .cls-10, .cls-18 {
        opacity: .3;
      }

      .cls-9, .cls-12 {
        fill: #1d1d1b;
      }

      .cls-30 {
        fill: #fff;
      }

      .cls-31, .cls-11, .cls-27, .cls-28 {
        fill: #9caab3;
      }

      .cls-23, .cls-32 {
        fill: #505767;
      }

      .cls-33 {
        fill: #938a85;
      }

      .cls-34 {
        fill: #918681;
      }

      .cls-14 {
        fill: #ffc7c0;
      }

      .cls-35 {
        isolation: isolate;
      }

      .cls-36 {
        fill: #dbefed;
      }

      .cls-37 {
        fill: #c9d2e3;
      }

      .cls-25, .cls-28, .cls-38 {
        mix-blend-mode: screen;
      }

      .cls-39, .cls-21 {
        fill: #495b69;
      }

      .cls-15, .cls-20 {
        fill: #7598af;
      }

      .cls-40 {
        fill: #70655e;
      }

      .cls-41 {
        fill: #3d1a0b;
      }

      .cls-42 {
        fill: #c69777;
      }

      .cls-16, .cls-43 {
        fill: #505156;
      }

      .cls-44, .cls-38 {
        fill: #86b6d7;
      }

      .cls-38, .cls-22 {
        opacity: .5;
      }

      .cls-45 {
        fill: #42413e;
      }

      .cls-22 {
        fill: #003c82;
      }

      .cls-46 {
        fill: #9e948d;
      }

      .cls-47 {
        fill: #f9f9f2;
      }

      .cls-48 {
        fill: #1c1c1e;
      }

      .cls-49 {
        fill: #7f99ba;
      }
    </style>
  </defs>
  <g class="cls-35">
    <g id="Layer_3" data-name="Layer 3">
      <g>
        <path class="cls-5" d="M5.01,73.69c-7.67,5.57-.08,8.07,13.59,11.88,56.44,15.73,55.35,15.75,65.66,6.7,10.31-9.05,17.08-10.43,11.26-13.65-5.82-3.22-53.39-14.27-61.18-17.19-7.79-2.92-9.33-2.27-29.32,12.26Z"/>
        <g>
          <g>
            <path class="cls-32" d="M34.11,34.51c-2.48.83-28.14,7.51-30.09,8.33-1.95.81-2.41,1.63-2.46,2.87-.05,1.24-.59,11.95-.67,14.05-.08,2.09.33,2.28.91,2.6,1.55.89,2.38.31,3.68-.08,1.29-.39,26.54-9.44,28.86-10.27,2.32-.83,3.06-1.9,3.11-3.14.05-1.24,0-11.09.06-12.74.05-1.14-.91-2.45-3.4-1.62Z"/>
            <path class="cls-31" d="M3.76,45.84c.05-1.25.51-2.06,2.46-2.87,1.95-.82,25.93-6.77,28.41-7.6,1.38-.46,2.29-.27,2.81.2-.25-.95-1.26-1.74-3.33-1.04-2.48.83-28.14,7.51-30.09,8.33-1.95.81-2.41,1.63-2.46,2.87-.05,1.24-.59,11.95-.67,14.05-.08,2.09.33,2.28.91,2.6.55.31,1,.44,1.42.46-.14-.35-.21-.91-.18-1.88.08-2.09.67-13.86.72-15.11Z"/>
            <path class="cls-21" d="M3.76,45.84c.01-.35.06-.67.17-.97-.23-.07-.47-.14-.7-.2-.42-.11-.87-.2-1.33-.28-.22.39-.31.82-.33,1.32-.05,1.24-.59,11.95-.67,14.05-.08,2.09.33,2.28.91,2.6.55.31,1,.44,1.42.46-.14-.35-.21-.91-.18-1.88.08-2.09.67-13.86.72-15.11Z"/>
            <path class="cls-19" d="M7.19,55.27l-.33,6.54c6.47-2.23,22.12-7.91,26.86-9.58.09-1.19.41-5.48.41-5.48l-26.93,8.52Z"/>
            <path class="cls-16" d="M4.55,60.77c0,.2-.13.37-.26.37-.14,0-.24-.15-.23-.36,0-.2.13-.37.26-.37.14,0,.24.15.23.36Z"/>
            <path class="cls-16" d="M36.49,49.35c0,.2-.13.37-.26.37-.14,0-.24-.15-.23-.36,0-.2.13-.37.26-.37.14,0,.24.16.23.36Z"/>
          </g>
          <g>
            <g>
              <path class="cls-48" d="M59.78,89.81c-1.28-.02-3.45.67-3.87,1.79-.43,1.12,1.08,2.5,1.08,2.5.54.55.71.72,1.79.19,1.08-.53,2.22-1.11,2.42-2,.2-.89-.14-2.46-1.43-2.47Z"/>
              <path class="cls-45" d="M59.2,91.59c.53,1.14.13,2.45-.88,2.91-1.02.47-2.27-.08-2.8-1.23-.53-1.14-.13-2.45.88-2.92,1.02-.47,2.27.08,2.8,1.23Z"/>
              <path class="cls-48" d="M57.81,92.29c.15.33.04.71-.26.85-.29.14-.66-.02-.81-.36-.15-.33-.04-.71.26-.85.3-.13.66.02.81.36Z"/>
              <path class="cls-49" d="M55.32,90.86s3.95,1.6,4.25,1.64c.3.05.91-.24,2.01-.99,0,0,.27-2.64-2.2-2.92-2.47-.29-3.72,1.22-4.06,2.27Z"/>
              <path class="cls-31" d="M59.61,92.5c.08-1.01-.18-2.07-1.12-2.57-1.02-.54-2.34-.28-3.04.61-.05.11-.09.21-.13.31,0,0,3.95,1.6,4.25,1.64,0,0,.02,0,.03,0Z"/>
              <path class="cls-12" d="M59.38,88.59c-1.76-.2-2.9.5-3.53,1.31.72-.49,1.67-.63,2.49-.27,1.18.51,1.57,1.68,1.49,2.86.35-.09.9-.39,1.75-.97,0,0,.27-2.64-2.2-2.92Z"/>
              <path class="cls-49" d="M57.64,87.37l.04,1.91s.68.62,1.86-.27l-.11-2.04-1.79.41Z"/>
              <path class="cls-9" d="M59.42,86.96l-1.79.41.02,1.01c.07-.23.07-.29.28-.27.68.09.87-.14.88.19,0,.15.02.77,0,.92-.03.21-.23.19-.44.27.3-.01.69-.13,1.16-.48l-.11-2.04Z"/>
              <path class="cls-19" d="M59.49,88.18l-.07-1.22-1.79.41.02.91c.57.28,1.23.18,1.83-.09Z"/>
              <path class="cls-39" d="M56.76,83.57l.3,4.01s1.41,1.07,2.89-.42l-.08-3.92-3.11.33Z"/>
              <path class="cls-27" d="M58.4,83.4l-1.17.12c.11,1.43.21,2.85.27,4.28.27.1.64.19,1.08.12-.01-1.51-.06-3.03-.17-4.53Z"/>
              <path class="cls-19" d="M59.92,85.31l-.04-2.07-3.11.33.14,1.85c.89.39,1.96.26,3.01-.11Z"/>
            </g>
            <polygon class="cls-31" points="55.15 80.43 55.39 85.49 58.81 86.89 61.34 85.66 61.26 80.81 55.15 80.43"/>
            <polygon class="cls-29" points="58.73 80.64 58.81 86.89 61.34 85.66 61.26 80.81 58.73 80.64"/>
            <path class="cls-32" d="M59.47,80.98s0,3.19.05,3.72c.05.54.21.99.68.86.47-.13.5-.55.5-1.19s-.11-3.42-.11-3.42l-1.13.03Z"/>
          </g>
          <g>
            <path class="cls-48" d="M18.21,78.31c-.89-.01-2.39.46-2.69,1.24-.3.77.75,1.73.75,1.73.37.38.49.5,1.24.13.75-.37,1.54-.77,1.68-1.39.14-.62-.1-1.7-.99-1.71Z"/>
            <path class="cls-45" d="M17.8,79.54c.37.79.09,1.7-.61,2.02-.7.32-1.57-.06-1.94-.85-.37-.79-.09-1.7.61-2.02.7-.32,1.57.06,1.94.85Z"/>
            <path class="cls-48" d="M16.84,80.02c.11.23.03.49-.18.59-.2.09-.46-.02-.56-.25-.11-.23-.03-.49.18-.59.2-.09.46.02.56.25Z"/>
            <path class="cls-49" d="M15.11,79.03s2.74,1.11,2.95,1.14c.21.03.63-.17,1.39-.69,0,0,.18-1.83-1.53-2.02-1.71-.2-2.58.84-2.82,1.57Z"/>
            <path class="cls-31" d="M18.09,80.17c.05-.7-.12-1.43-.77-1.78-.71-.38-1.62-.2-2.11.42-.03.07-.06.15-.09.22,0,0,2.74,1.11,2.95,1.14,0,0,.02,0,.02,0Z"/>
            <path class="cls-12" d="M17.93,77.46c-1.22-.14-2.01.35-2.45.9.5-.34,1.15-.44,1.73-.19.82.36,1.09,1.17,1.03,1.98.24-.06.63-.27,1.21-.67,0,0,.18-1.83-1.53-2.02Z"/>
            <path class="cls-49" d="M16.72,76.62l.03,1.32s.47.43,1.29-.19l-.08-1.42-1.24.28Z"/>
            <path class="cls-9" d="M17.96,76.33l-1.24.28v.7c.07-.16.06-.2.21-.18.47.06.61-.09.61.13,0,.1.01.53,0,.64-.02.14-.16.13-.3.19.21,0,.48-.09.8-.33l-.08-1.42Z"/>
            <path class="cls-19" d="M18,77.18l-.05-.85-1.24.28v.63c.41.19.86.12,1.28-.06Z"/>
            <path class="cls-39" d="M16.11,73.99l.21,2.78s.97.74,2-.29l-.05-2.72-2.16.23Z"/>
            <path class="cls-27" d="M17.25,73.87l-.81.09c.08.99.14,1.98.18,2.97.19.07.45.13.75.08,0-1.05-.04-2.1-.12-3.14Z"/>
            <path class="cls-19" d="M18.3,75.19l-.03-1.43-2.16.23.1,1.28c.62.27,1.35.18,2.09-.07Z"/>
            <polygon class="cls-31" points="13.77 68.54 14.01 73.6 17.43 75 19.96 73.76 19.88 68.91 13.77 68.54"/>
            <polygon class="cls-29" points="17.35 68.75 17.43 75 19.96 73.76 19.88 68.91 17.35 68.75"/>
            <path class="cls-32" d="M18.09,69.09s0,3.19.05,3.72c.05.54.21.99.68.86.47-.13.5-.55.5-1.19s-.11-3.42-.11-3.42l-1.13.03Z"/>
          </g>
          <polygon class="cls-31" points="11.3 64.77 11.38 69.17 61.52 83.35 96.74 69.61 96.98 65.77 61.76 79.07 11.3 64.77"/>
          <polygon class="cls-21" points="11.3 64.77 11.38 69.17 61.52 83.35 96.74 69.61 96.98 65.77 61.76 79.07 11.3 64.77"/>
          <polygon class="cls-31" points="61.52 83.35 96.74 69.61 96.98 65.77 61.76 79.07 61.52 83.35"/>
          <polygon class="cls-17" points="61.52 83.35 96.74 69.61 96.98 65.77 61.76 79.07 61.52 83.35"/>
          <polygon class="cls-21" points="11.3 64.77 11.38 67.11 61.52 81.29 96.74 69.61 96.98 65.77 61.76 79.07 11.3 64.77"/>
          <polygon class="cls-31" points="3.8 61.72 64.55 79.04 64.6 81.3 3.85 63.92 3.8 61.72"/>
          <polygon class="cls-31" points="3.8 61.72 64.55 79.04 98.01 66.28 37.25 48.91 3.8 61.72"/>
          <polygon class="cls-28" points="3.8 61.72 64.55 79.04 98.01 66.28 37.25 48.91 3.8 61.72"/>
          <g>
            <path class="cls-31" d="M43.47,32.52c.78-.53,1.09-.61,1.76-.82.66-.21,1.02.58,1.51,1.23.49.65,7.22,11.56,7.53,12.22.32.66-.03,1.01-1.51,1.95l-1.18.26.81-2.08-7.92-12.49-.99-.27Z"/>
            <path class="cls-21" d="M43.47,32.52c.78-.53,1.09-.61,1.76-.82.66-.21,1.02.58,1.51,1.23.49.65,7.22,11.56,7.53,12.22.32.66-.03,1.01-1.51,1.95l-1.18.26.81-2.08-7.92-12.49-.99-.27Z"/>
            <path class="cls-31" d="M52.77,44.65c-.56-.83-7.05-10.68-7.75-11.68-.7-.99-1.26-.69-2.24-.02-.98.68-2.66,1.84-3.32,2.5-1.12,1.12-.65,1.35.19,2.64.84,1.29,5.79,9.2,6.63,10.8.84,1.59,1.96,1.12,2.61.69.65-.44,2.15-1.41,3.6-2.3,1.45-.89.84-1.8.28-2.63ZM50.88,46.44c-1.07.65-1.48.74-1.96,1.06-.48.32-1.31.67-1.93-.51-.62-1.17-5.09-8.16-5.71-9.11-.62-.95-.96-1.12-.14-1.95.48-.48,1.04-.71,1.76-1.21.72-.5,1.14-.72,1.65.01.52.73,6.12,9.15,6.53,9.76.41.61.86,1.29-.21,1.94Z"/>
            <path class="cls-29" d="M47.88,46.72c-.62-1.17-5.09-8.16-5.71-9.11-.62-.95-.96-1.12-.14-1.95.48-.48,1.04-.71,1.76-1.21.08-.06.16-.11.23-.16-.32-.09-.66.12-1.12.44-.72.5-1.27.73-1.76,1.21-.83.83-.48,1,.14,1.95.62.95,5.09,7.94,5.71,9.11.6,1.14,1.4.85,1.89.53-.34-.03-.69-.23-1-.81Z"/>
          </g>
          <g>
            <path class="cls-44" d="M8.88,44.49s10.82,18.58,11.61,19.26c.79.68,1.11.88,2.21,1.24,1.11.36,43.59,11.48,44.46,11.71.87.23,1.26.94,3.16.29,1.89-.65,27.01-11.1,27.01-11.1l.24-5.39s-47.07-11.75-47.3-11.95c-.24-.2-9.24-14.06-9.24-14.06l-29.38,7.3-2.76,2.7Z"/>
            <path class="cls-7" d="M87.85,59.5c-3.32-1.09-7.66-1.52-11.29-2.14-8.84-1.73-17.85-1.39-26.06-4.63-4.49-1.77-3.99-6.44-4.38-10.42-2.46-3.76-5.1-7.82-5.1-7.82l-24.58,6.11c-.69,6.78,3.38,13.15,8.78,17.16-.13.41-.34.83-.15,1.18.28.62,1.02.38,1.52-.2,1.58-.06,3.25-.94,4.8-1.57-1.21,1.21-2.42,2.55-4.04,3.29,2.11,1.59,4.81,2.37,7.51,2.94,10.9,2.32,20.85,5.73,31.43,8.52,1.27.33,2.49.61,3.79.91,20.96-6.86,25.95-11.31,26.38-11.57-2.69-.79-5.89-.88-8.61-1.74Z"/>
            <path class="cls-20" d="M8.88,44.49s10.82,18.58,11.61,19.26c.79.68,1.11.88,2.21,1.24,1.11.36,43.59,11.48,44.46,11.71.87.23,1.26.94,3.16.29,1.89-.65,27.01-11.1,27.01-11.1l.24-5.39s-28.03,12.28-28.27,12.08c-.24-.2-46.2-11.96-46.2-11.96l-11.45-18.83-2.76,2.7Z"/>
            <path class="cls-20" d="M50.28,48.56c-3.1,1-25.64,10.64-26.85,11.19-.06.09-.13.18-.24.26-1.3,1.04-1.79,2.64-2.1,4.22.44.32.83.5,1.61.76,1.11.36,43.59,11.48,44.46,11.71.87.23,1.26.94,3.16.29,1.89-.65,27.01-11.1,27.01-11.1l.24-5.39s-46.25-11.55-47.29-11.94Z"/>
            <path class="cls-44" d="M17.23,39.63s3-3.01,12.11-4.58c0,0,4.84-1.52,10.42-2.5,0,0,.68-.78,1-.71.32.08-.11,1.04-.11,1.04,0,0,6.48,5.57,7.69,15,0,0,2,1.43.37,1.15,0,0-6.27,2.9-10.27,3.62,0,0-5.05,3.84-11,5.09,0,0-.53,1.07-1.11,1.11-.58.04-.05-1.52-.05-1.52,0,0-5.02-3.81-7.26-9.05-.63-1.48-2.32-6.11-2.32-7.44,0,0-1.32-1.08-.84-1.46.47-.38,1.37.25,1.37.25Z"/>
            <path class="cls-15" d="M22.14,41.48c.15.92-.13,1.84-.13,2.77,0,.98.26,2.38.8,3.18.54.8,1.29,1.75,2.11,2.3.75.51,1.99.75,2.58,1.44,1.03,1.21,1.13,2.25,1.17,3.83.48-1.15.67-2.37.55-3.56,0-.06.06-.11.12-.12,1.89-.21,3.82-.14,5.7-.56.51-.11,1.01-.26,1.5-.44.35-.17.7-.35,1.02-.56.43-.29.86-.6,1.3-.89.32-.32.61-.67.91-1.03.9-1.11,1.85-1.98,3.38-2,1.13-.01,2.34.24,3.21.88-.24-2.87-4.61-2.15-6.32-3.82-2.72-2.66.62-6.33.37-9.47-.35.61-.76,1.23-1.43,1.55-.74.35-1.62.12-2.32-.08-1-.29-2.24-.76-3.46-.92-2.32.59-3.85,1.07-3.85,1.07-.3.05-.59.11-.87.16-.95.5-1.74,1.21-2.49,1.97-.65.66-1.3,1.5-2.17,1.93-.8.39-1.78.39-2.64.38-.74,0-1.49-.04-2.24.01,1.37.2,2.99.64,3.21,1.98Z"/>
            <path class="cls-15" d="M47.95,48.36c-.58.11-1.03.38-1.59.56-.93.31-1.63-.06-2.42-.43-1.05-.5-2.26-.61-3.46-.21-.54.18-1.02.46-1.49.76-.58.56-1.25.99-2.01,1.32-.13.06-.26.11-.39.16-.64.3-1.3.56-1.97.81-.93.36-1.88.71-2.54,1.47-.63.72-.93,1.58-1.05,2.47,0,.05-.03.1-.09.11-.64.18-1.29.34-1.92.56-.63.22-1.39.46-1.82,1-.05.07-.19.04-.2-.03-.16-.9-.77-1.65-1.25-2.41-.5-.78-.83-1.63-1.22-2.47-.83-1.83-1.78-3.61-2.69-5.4-.79-1.57-1.61-3.2-2.83-4.5-.29-.31-.59-.6-.92-.86-.19-.15-.74-.37-.81-.59-.14-.48-.27-.89-.8-1.11-.22-.09-.45-.15-.68-.15-.35.41.88,1.42.88,1.42,0,1.32,1.68,5.96,2.32,7.44,2.24,5.23,7.26,9.05,7.26,9.05,0,0-.53,1.56.05,1.52.58-.04,1.11-1.11,1.11-1.11,5.95-1.25,11-5.09,11-5.09,4-.72,10.27-3.62,10.27-3.62,1.02.17.62-.32.17-.72-.31-.02-.62,0-.94.05Z"/>
            <path class="cls-6" d="M42.13,49.79c-.12-.09-.24-.16-.37-.24-.53.11-1.06.24-1.57.42-1.21.44-2.29.81-3.35,1.77-.36.32-.95.95-1.62,1.32-.11.06-.97-1-1.06-1.06.08.16,1.01,1.29.88,1.4-.44.37-.93.83-1.29,1.04-.05.03-.11.03-.15,0-.71-.6-.93-1.5-.93-2.41-.63,1.54-.09,3.17.72,4.75,1.26,2.46,4.84,2.89,8.58.67,3.74-2.23,4.48-6.74,4.48-6.74-1.26-.89-4.32-.92-4.32-.92Z"/>
            <path class="cls-44" d="M28.18,60.19s2.79-1.86,3.79-2.67c0,0,.16-.31.53-.82.37-.52,7.48-10.38,18.16-7.71,0,0,6.37,1.36,9.84,4.16,0,0,9.85-.11,19.58,4.06,0,0,3.84-.22,9.11,1.61,5.27,1.83,6.37,2.49,6.37,2.49,0,0-7.27,4.19-12.21,6.06-4.95,1.87-9.48,3.81-11.27,4.38-1.79.57-3.21.67-5.37-.45-2.16-1.12-9.37-2.38-11.74-3.29-2.37-.91-7.37-2.32-9.9-2.93-2.53-.61-5.58-1.62-6.79-1.73-1.21-.11-7.21-1.5-10.11-3.16Z"/>
            <path class="cls-1" d="M37.31,56.68c.54-.76,1.14-1.45,1.89-2.04,1.7-1.35,3.79-2.47,5.83-3.25,2.2-.84,4.6-1.34,6.92-1.35.96,0,1.9.06,2.84.15-2.26-.81-4.13-1.21-4.13-1.21-10.69-2.68-17.8,7.19-18.16,7.71-.37.52-.53.82-.53.82-1,.81-3.79,2.67-3.79,2.67.76.44,1.74.85,2.78,1.23,1.46-1.2,3.18-2.1,4.98-2.7.5-.65.88-1.36,1.36-2.04Z"/>
            <path class="cls-38" d="M57.19,52.75c2.18,1.13,4.09,2.72,5.91,4.29,1.23,1.06,2.63,2.33,3.23,3.88-.6-3.16-2.79-5.77-5.46-7.76-.24,0-.36,0-.36,0-3.48-2.79-9.84-4.16-9.84-4.16-2.54-.64-4.87-.56-6.96-.08,1.82.02,3.62.34,5.34.81,2.8.77,5.62,1.72,8.15,3.02Z"/>
            <path class="cls-38" d="M85.58,59.71c-1.4-.55-2.9-.92-4.44-1.1.26.53.42,1.07.44,1.68,0,.12-.16.15-.22.07-.84-.98-1.97-1.75-3.09-2.42-1.36-.82-2.81-1.52-4.34-2.06-2.36-.83-5.87-1.69-8.21.03,4.21-.21,8.4,1.02,11.86,2.96,2.04,1.14,4.34,2.71,5.61,4.75-.31-1.25-.51-2.54-.99-3.74-.03-.08.07-.16.15-.15,2.42.29,4.78.97,6.67,2.33-.81-1.1-2.11-1.84-3.42-2.36Z"/>
            <path class="cls-15" d="M89.2,58.82c-5.26-1.83-9.11-1.61-9.11-1.61-9.74-4.17-19.58-4.06-19.58-4.06-.79-.63-1.72-1.19-2.7-1.68,1.25.95,2.5,1.92,3.78,2.84,1.97,1.4,3.9,3.12,4.73,5.38-.2-1.62-1.63-2.99-2.34-4.4-.03-.06,0-.14.07-.17,2.95-1.07,6.26.02,9.01.75,1.54.41,3.31.69,4.66,1.48,1.23.72,1.97,1.94,3.17,2.67.04-.35-.09-.65-.05-1,.03-.19.12-.3.31-.39.81-.38,1.86-.12,2.61.12,1.02.33,1.97.79,2.96,1.18.76.3,1.59.4,2.38.65.52.16.83.4.41.93-.55.69-1.46,1.16-2.24,1.56-2.26,1.18-4.63,2.25-7,3.18-1.77.69-3.56,1.3-5.39,1.78-1.65.44-3.33.88-5.03.81-3.35-.16-6.33-1.5-9.45-2.36-.11-.03-.12-.17,0-.22,1.37-.52,2.86-.94,4.1-1.75.96-.63,1.51-1.41,1.69-2.32-.2.29-.48.56-.87.79-1.34.78-3,1.01-4.5,1.13-4.4.37-8.96-.04-13.04-1.28-3.1-.94-6.15-2.26-8.75-4.04-1.86-1.28-3.53-3.05-3.65-5.29-1.74,1.59-2.75,2.99-2.88,3.18-.37.52-.53.82-.53.82-1,.81-3.79,2.67-3.79,2.67,2.89,1.66,8.9,3.05,10.11,3.16,1.21.11,4.26,1.12,6.79,1.73,2.53.61,7.53,2.02,9.9,2.93,2.37.91,9.58,2.17,11.74,3.29,2.16,1.12,3.58,1.02,5.37.45,1.79-.57,6.32-2.51,11.27-4.38,4.95-1.87,12.21-6.06,12.21-6.06,0,0-1.1-.66-6.37-2.49Z"/>
          </g>
          <path class="cls-29" d="M7.31,61.61c0,.09-.16.17-.36.19-.2.01-.36-.05-.36-.13s.16-.17.36-.18c.2-.01.36.05.36.13Z"/>
          <path class="cls-31" d="M1.43,49.14s1.6.28,2.13.44c.2.06,1.18-.3,1.66-.34.47-.03.43.41.39.89-.04.48-.16,5.12-.24,5.75-.08.63-.35.61-1.1.81-.75.2-.99.44-1.97.18-.99-.26-1.78-.06-1.7-.8.08-.74.08-5.23.16-6.04.08-.81.67-.89.67-.89Z"/>
          <path class="cls-23" d="M5.22,49.23c-.47.03-1.46.4-1.66.34-.06-.02-.13-.04-.22-.06-.03,2.34-.13,5.28-.3,7.47.44,0,.71-.15,1.23-.29.75-.2,1.03-.18,1.1-.81.08-.63.2-5.27.24-5.75.04-.48.08-.92-.39-.89Z"/>
          <path class="cls-11" d="M2.8,56.57c-.76,0-1.48-.22-2.2-.4,0,.61.77.44,1.7.69.99.26,1.22.02,1.97-.18.71-.19,1-.18,1.09-.72-.85.27-1.67.6-2.56.6Z"/>
          <path class="cls-28" d="M3.01,49.91c.74.19.84.14,2.14-.31.17-.06.31-.12.46-.13-.05-.15-.16-.25-.38-.23-.47.03-1.46.4-1.66.34-.53-.16-2.13-.44-2.13-.44,0,0-.39.05-.58.51.27-.25,1.45.07,2.16.26Z"/>
          <g>
            <g>
              <path class="cls-31" d="M9.31,42.45c.88-.59,1.23-.69,1.98-.93.75-.24,1.15.65,1.7,1.39.55.73,8.13,13.03,8.49,13.78.36.75-.04,1.14-1.71,2.2l-1.33.3.91-2.34-8.92-14.08-1.12-.31Z"/>
              <path class="cls-21" d="M9.31,42.45c.88-.59,1.23-.69,1.98-.93.75-.24,1.15.65,1.7,1.39.55.73,8.13,13.03,8.49,13.78.36.75-.04,1.14-1.71,2.2l-1.33.3.91-2.34-8.92-14.08-1.12-.31Z"/>
              <path class="cls-31" d="M19.8,56.12c-.63-.94-7.95-12.04-8.74-13.16-.79-1.12-1.42-.78-2.53-.02-1.11.76-3,2.07-3.74,2.81-1.26,1.27-.74,1.52.21,2.98.95,1.45,6.53,10.37,7.48,12.17.95,1.8,2.21,1.27,2.95.77.74-.49,2.42-1.59,4.05-2.59,1.63-1,.95-2.03.32-2.96ZM17.67,58.15c-1.2.74-1.67.84-2.22,1.2-.54.36-1.47.75-2.17-.57-.7-1.32-5.74-9.2-6.43-10.27-.7-1.07-1.09-1.26-.16-2.19.54-.55,1.17-.8,1.98-1.36.82-.56,1.28-.81,1.86.01.58.83,6.9,10.31,7.37,11,.47.69.97,1.45-.23,2.19Z"/>
              <path class="cls-29" d="M14.28,58.46c-.7-1.32-5.74-9.2-6.43-10.27-.7-1.07-1.09-1.26-.16-2.19.54-.55,1.17-.8,1.98-1.36.09-.06.18-.12.26-.18-.36-.1-.74.13-1.26.49-.82.56-1.44.82-1.98,1.36-.93.93-.54,1.12.16,2.19.7,1.07,5.74,8.95,6.43,10.27.68,1.29,1.58.95,2.13.6-.38-.03-.78-.26-1.13-.92Z"/>
            </g>
            <g>
              <path class="cls-29" d="M14.75,59.17c0-1.26-.44-1.97-1.35-1.9-.92.07-1.5.55-1.5,1.18,0,1.56-.05,6.38-.05,7.19s.58,1.74,1.65,1.74c1.06,0,1.35-.73,1.35-2.28s-.1-4.66-.1-5.92Z"/>
              <path class="cls-37" d="M14.22,59.19c0-1.25-.35-1.96-1.11-1.91-.75.05-1.22.53-1.22,1.15,0,1.55-.04,6.33-.04,7.14s.47,1.73,1.34,1.74c.87.01,1.11-.7,1.11-2.25s-.08-4.63-.08-5.88Z"/>
              <path class="cls-29" d="M13.31,65.6c0,.29-.15.54-.34.56-.19.01-.34-.21-.34-.51s.15-.54.34-.56c.19-.01.34.21.34.51Z"/>
              <path class="cls-29" d="M13.33,58.81c0,.29-.15.54-.34.56-.19.01-.34-.21-.34-.51s.15-.54.34-.56c.18-.01.34.22.34.51Z"/>
            </g>
          </g>
          <g>
            <path class="cls-32" d="M58.34,69.73c-2.26-.62-15.69-4.68-16.79-4.99-.37-.1-.7-.1-.98-.02-.56.16-2.37,1.08-2.42,1.68h0c.27-.61.94-.96,1.82-.71,1.11.31,14.53,4.37,16.79,4.99,2.26.62,2.53,1.1,2.53,2.32v7.55c0,1.85-1.15,2.06-2.05,1.85.9.37,3.63-.6,3.63-2.8v-7.55c0-1.23-.26-1.7-2.53-2.32Z"/>
            <g class="cls-24">
              <path class="cls-31" d="M58.86,71.6c.56-.29,1.12-.57,1.68-.83-.32-.4-.96-.7-2.21-1.04-2.26-.62-15.69-4.68-16.79-4.99-.37-.1-.7-.1-.98-.02-.56.16-2.37,1.08-2.42,1.68h0c.27-.61.94-.96,1.82-.71,1.11.31,14.53,4.37,16.79,4.99,1.12.31,1.75.58,2.1.93Z"/>
            </g>
            <path class="cls-31" d="M56.76,70.67c-2.26-.62-15.69-4.68-16.79-4.99-1.11-.31-1.87.32-1.95,1.22-.16,1.92,0,6.82,0,7.75s-.11,1.92,1.16,2.42c1.26.5,16.69,4.8,17.58,5.18.9.38,2.53.51,2.53-1.7v-7.55c0-1.23-.26-1.7-2.53-2.32ZM57.76,79.43c0,.2-.02.36-.05.51-.23.99-1.15.89-1.69.66-.62-.26-15.09-4.25-15.96-4.6-.87-.34-.8-1.02-.8-1.67s-.06-4.95.05-6.27c.04-.54.45-.94,1.06-.89.09,0,.18.02.28.05.76.22,13.86,4.04,15.42,4.47,1.56.43,1.74.76,1.74,1.6s-.05,4.62-.05,6.14Z"/>
            <path class="cls-29" d="M41.11,75.19c-.87-.34-.8-1.02-.8-1.67s-.06-4.95.05-6.27c0-.03,0-.05.01-.08-.61-.05-1.02.35-1.06.89-.11,1.33-.05,5.63-.05,6.27s-.07,1.32.8,1.67c.87.34,15.34,4.34,15.96,4.6.54.23,1.46.32,1.69-.66-.23-.01-.45-.07-.64-.15-.62-.26-15.09-4.25-15.96-4.6Z"/>
            <path class="cls-37" d="M44.06,68.21v8.97l9.45,2.67,1.23-.76v-7.79l-10.68-3.1ZM51.18,77.47c-.34-.08-4.42-1.28-5.08-1.48-.26-.08-.68-.21-.79-.58-.17-.56.13-1.37.92-1.14,1.82.53,4.5,1.27,5.34,1.56.32.11.68.32.82.65.22.56-.05,1.26-1.21,1ZM51.6,73.74c-.34-.08-4.42-1.28-5.08-1.48-.26-.08-.68-.21-.79-.58-.17-.55.13-1.37.92-1.14,1.82.53,4.5,1.28,5.34,1.56.32.11.68.32.82.65.22.56-.05,1.26-1.21,1Z"/>
            <polygon class="cls-29" points="53.39 70.92 53.51 79.85 54.74 79.09 54.74 71.31 53.39 70.92"/>
            <path class="cls-29" d="M52.81,72.74s-.01-.02-.02-.03c-.16.27-.53.44-1.2.29-.34-.08-3.8-1.05-4.46-1.24-.26-.08-.68-.21-.79-.58-.06-.21-.06-.47.02-.68-.57.02-.78.7-.63,1.18.11.37.53.5.79.58.66.2,4.74,1.41,5.08,1.48,1.16.26,1.44-.44,1.21-1Z"/>
            <path class="cls-29" d="M52.39,76.47s-.01-.02-.02-.03c-.16.27-.53.44-1.2.29-.34-.08-3.8-1.04-4.46-1.24-.26-.08-.68-.21-.79-.58-.06-.21-.06-.47.02-.68-.57.02-.78.7-.63,1.18.11.37.53.5.79.58.66.2,4.74,1.41,5.08,1.48,1.16.26,1.44-.44,1.21-1Z"/>
            <path class="cls-18" d="M53.43,71.27c.1-.05,1.01.29,1.32.16v-.12l-10.68-3.1v.45c1.49.27,9.25,2.49,9.36,2.61Z"/>
          </g>
          <g>
            <g>
              <path class="cls-48" d="M92.42,76.71c-1.28-.02-3.45.67-3.87,1.79-.43,1.12,1.08,2.5,1.08,2.5.54.55.71.72,1.8.19,1.08-.53,2.22-1.11,2.42-2,.2-.89-.14-2.46-1.43-2.47Z"/>
              <path class="cls-45" d="M91.84,78.49c.53,1.14.13,2.45-.88,2.91-1.02.47-2.27-.08-2.8-1.23-.53-1.14-.13-2.45.88-2.91,1.02-.47,2.27.08,2.8,1.23Z"/>
              <path class="cls-48" d="M90.45,79.19c.15.33.04.71-.26.85-.29.13-.66-.02-.81-.36-.15-.33-.04-.71.26-.85.29-.14.66.02.81.36Z"/>
              <path class="cls-49" d="M87.96,77.76s3.95,1.6,4.25,1.65c.3.05.91-.24,2.01-.99,0,0,.27-2.64-2.2-2.92-2.47-.29-3.72,1.22-4.06,2.27Z"/>
              <path class="cls-31" d="M92.25,79.41c.07-1.01-.18-2.07-1.12-2.56-1.02-.54-2.34-.28-3.04.61-.05.11-.09.21-.13.31,0,0,3.95,1.6,4.25,1.65,0,0,.02,0,.03,0Z"/>
              <path class="cls-12" d="M92.02,75.49c-1.76-.2-2.9.5-3.53,1.31.72-.49,1.67-.63,2.49-.27,1.18.51,1.57,1.68,1.49,2.86.35-.09.9-.39,1.75-.97,0,0,.27-2.64-2.2-2.92Z"/>
              <path class="cls-49" d="M90.28,74.27l.04,1.91s.68.62,1.86-.27l-.11-2.04-1.79.41Z"/>
              <path class="cls-9" d="M92.06,73.86l-1.79.41.02,1.01c.07-.23.07-.3.28-.27.68.09.87-.14.88.18,0,.15.02.77,0,.92-.03.21-.23.19-.43.27.3-.01.69-.12,1.16-.48l-.11-2.04Z"/>
              <path class="cls-19" d="M92.13,75.09l-.07-1.22-1.79.41.02.91c.57.28,1.23.18,1.84-.09Z"/>
              <path class="cls-39" d="M89.4,70.48l.3,4.01s1.41,1.07,2.89-.42l-.08-3.92-3.11.33Z"/>
              <path class="cls-27" d="M91.04,70.31l-1.17.12c.11,1.42.21,2.85.27,4.28.27.1.65.19,1.08.12-.01-1.51-.06-3.03-.17-4.53Z"/>
              <path class="cls-19" d="M92.56,72.22l-.04-2.07-3.11.33.14,1.85c.89.39,1.96.26,3.02-.11Z"/>
            </g>
            <polygon class="cls-31" points="87.79 67.34 88.03 72.39 91.45 73.79 93.98 72.56 93.9 67.71 87.79 67.34"/>
            <polygon class="cls-29" points="91.37 67.55 91.45 73.79 93.98 72.56 93.9 67.71 91.37 67.55"/>
            <path class="cls-32" d="M92.11,67.89s0,3.19.05,3.72c.05.54.21.99.68.86.47-.13.5-.55.5-1.19s-.11-3.42-.11-3.42l-1.13.03Z"/>
          </g>
          <path class="cls-32" d="M96.43,55.25c-1.82.68-29.38,11.68-30.8,12.33-1.42.65-1.74,1.26-1.74,2.18s-.08,8.83-.08,10.38.32,1.67.75,1.9c1.18.62,1.78.17,2.72-.16.95-.32,27.32-10.61,29.02-11.28,1.7-.67,2.21-1.48,2.21-2.4s.47-10.62.47-11.84c0-.85-.75-1.79-2.57-1.11ZM70.26,71.57c-.96.87-2.27,1.06-2.93.42-.65-.63-.4-1.85.56-2.72.96-.87,2.27-1.06,2.93-.42.65.64.4,1.85-.56,2.72ZM91.71,64.03c-1.47.55-15.32,5.74-16.48,6.17-1.16.43-1.68-.03-1.05-1.35.63-1.32.89-1.68,1.16-2.24.26-.56.42-1.11,1.53-1.63,1.1-.52,10.21-4.16,11.69-4.75,1.47-.59,1.58-.65,2.53.31.95.96,1.26,1.28,1.69,1.7.42.41.42,1.25-1.05,1.79ZM96.76,60.54c-.89.8-2.1.98-2.71.39-.6-.59-.37-1.72.52-2.52.89-.8,2.1-.98,2.71-.39.6.59.37,1.72-.52,2.52Z"/>
          <path class="cls-31" d="M65.52,69.79c0-.92.32-1.53,1.74-2.18,1.42-.65,27.76-11.07,29.57-11.75,1.01-.38,1.69-.26,2.09.07-.22-.69-.99-1.25-2.5-.68-1.82.68-29.38,11.68-30.8,12.33-1.42.65-1.74,1.26-1.74,2.18s-.08,8.83-.08,10.38.32,1.67.75,1.9c.41.22.76.3,1.07.3-.12-.26-.19-.67-.19-1.38,0-1.54.08-10.24.08-11.16Z"/>
          <path class="cls-21" d="M65.52,69.79c0-.26.03-.5.1-.72-.17-.04-.35-.09-.53-.13-.31-.07-.65-.12-.99-.17-.15.29-.21.61-.21.98,0,.92-.08,8.83-.08,10.38s.32,1.67.75,1.9c.41.22.76.3,1.07.3-.12-.26-.19-.67-.19-1.38,0-1.54.08-10.24.08-11.16Z"/>
          <path class="cls-19" d="M77.33,72.7c-.94.36-1.91.66-2.83,1.06-.72.31-1.43.66-2.18.91-.6,1.06-1.22,2.11-1.85,3.16-.73,1.21-1.4,2.47-2.16,3.68,4.73-1.81,24.09-9.36,27.56-10.72-.32-.48-.67-.96-1.02-1.42-.64-.85-1.28-1.72-1.96-2.55-3.11,1.24-6.28,2.36-9.4,3.56-2.05.79-4.11,1.55-6.15,2.33Z"/>
          <path class="cls-29" d="M69.89,68.48s.08.06.12.1c.58.57.32,1.69-.59,2.5-.72.65-1.62.91-2.25.71.05.07.1.14.16.2.65.64,1.96.45,2.93-.42.96-.87,1.21-2.09.56-2.72-.24-.23-.57-.35-.93-.37Z"/>
          <path class="cls-29" d="M97.28,58.02c-.22-.22-.52-.33-.86-.34.04.03.07.06.11.09.54.52.3,1.56-.54,2.32-.66.6-1.49.84-2.08.66.04.07.09.13.15.19.6.59,1.82.41,2.71-.39.89-.8,1.12-1.93.52-2.52Z"/>
          <path class="cls-29" d="M91.08,60.55c-.8-.81-1-.9-1.93-.55.2.08.4.27.71.58.8.82,1.07,1.09,1.43,1.44.36.35.36,1.06-.9,1.52-1.25.46-14.22,5.04-15.2,5.41-.51.19-.88.17-1.03-.04-.59,1.28-.07,1.72,1.08,1.3,1.16-.43,15-5.62,16.48-6.17,1.47-.55,1.47-1.38,1.05-1.79-.42-.41-.74-.73-1.69-1.7Z"/>
          <polygon class="cls-8" points="79.46 63.12 88.29 59.72 88.13 71.44 79.01 75.2 79.46 63.12"/>
          <polygon class="cls-47" points="79.72 63.24 88.29 59.95 88.13 71.28 79.29 74.92 79.72 63.24"/>
          <path class="cls-43" d="M84.03,62.2c0,.15-.08.28-.18.28-.1,0-.18-.11-.18-.26s.08-.28.18-.28c.1,0,.18.11.18.26Z"/>
          <path class="cls-16" d="M72.84,75.38c0,.15-.08.28-.18.28-.1,0-.18-.11-.18-.26s.08-.27.18-.28c.1,0,.18.11.18.26Z"/>
          <path class="cls-16" d="M66.56,80.79c0,.15-.08.28-.18.28-.1,0-.19-.11-.19-.26s.08-.28.19-.28c.1,0,.18.11.18.26Z"/>
          <path class="cls-16" d="M97.83,68.57c0,.15-.08.28-.18.28-.1,0-.18-.11-.18-.26s.08-.27.18-.28c.1,0,.18.11.18.26Z"/>
          <path class="cls-16" d="M92.7,67.54c0,.15-.08.28-.18.28-.1,0-.18-.11-.18-.26s.08-.28.18-.28c.1,0,.18.11.18.26Z"/>
          <path class="cls-22" d="M87.23,63.91l-.02-2.16v-.1s-.1.04-.1.04l-3.12,1.23-1.56.61-1.56.63h0c-.02.4-.04.79-.07,1.18,0,0,0,0,0,0h0s0,.01,0,.01c-.02.31-.03.63-.05.94-.02.39-.04.79-.06,1.18-.01,0-.02,0-.02,0h0s0,.01.01,0c-.01.31-.03.62-.04.93-.03.71-.06,1.42-.09,2.13-.02.71-.05,1.42-.06,2.13v.07s.07-.02.07-.02l1.65-.59,1.65-.58,1.66-.57,1.66-.56h.03v-2.2s0-2.16,0-2.16v-2.16ZM86.21,69.91c0-.16,0-.35.01-.55.07-.03.14-.06.2-.09.12-.05.22-.09.3-.13.17-.08.26-.12.26-.12h0s-.1.01-.28.07c-.09.03-.19.06-.31.1-.05.02-.11.03-.16.05,0-.17,0-.35,0-.54,0-.08,0-.16,0-.25.09-.04.17-.07.25-.1.12-.05.22-.09.3-.13.17-.08.26-.13.26-.13h0s-.1.01-.28.07c-.09.03-.19.06-.31.1-.07.02-.14.05-.22.07,0-.12-.01-.24-.02-.36-.01-.17-.02-.35-.02-.53,0,0,0,0,0,0,.15-.06.28-.11.4-.17.12-.05.22-.09.3-.13.11-.05.18-.08.22-.1v1.19s.05,2.12.05,2.12l-.97.34s.01-.16.02-.36c0-.12,0-.26.02-.43ZM86.93,65.07s-.1.03-.28.08c-.09.03-.19.06-.31.1-.04.01-.09.03-.14.05,0-.17,0-.33,0-.5,0-.14,0-.28,0-.42.1-.04.2-.08.29-.12.12-.05.22-.1.3-.13.17-.08.26-.12.26-.12h0s-.1.01-.28.07c-.09.03-.19.06-.31.1-.08.03-.17.06-.26.09,0-.3,0-.59-.02-.84,0-.03,0-.06,0-.09.11-.05.22-.09.31-.13.12-.05.22-.09.3-.13.17-.08.26-.13.26-.12h0s-.1.01-.28.07c-.09.03-.19.06-.31.1-.09.03-.18.06-.28.1-.01-.31-.03-.57-.04-.76,0-.1-.01-.18-.02-.24l.93-.35v2.06s.03,2.04.03,2.04c-.05.01-.12.04-.23.07-.09.03-.19.06-.31.1-.11.03-.23.08-.36.12,0-.22.01-.44.02-.66,0-.06,0-.11,0-.17.06-.03.12-.05.17-.07.12-.05.22-.1.3-.14.17-.08.26-.12.26-.12h0ZM87.08,66.08v.94s-.11.04-.23.07c-.09.03-.19.06-.31.1-.11.04-.24.08-.37.13,0-.04,0-.08,0-.12,0-.27,0-.54.01-.81,0,0,0,0,0-.01.14-.06.28-.11.39-.17.12-.05.22-.09.3-.13.09-.04.16-.08.21-.1v.09ZM80.88,64.17l1.57-.58,1.57-.59,2.07-.78c0,.06,0,.14-.01.23,0,.2-.02.47-.03.8-.15.05-.3.11-.47.18-.17.07-.34.15-.52.23-.18.08-.37.16-.56.23-.19.07-.39.14-.59.21-.2.07-.4.13-.59.2-.19.07-.39.14-.57.21-.37.14-.71.27-1,.4-.29.12-.53.23-.7.31-.08.04-.15.07-.19.09,0-.38.01-.76.02-1.14ZM81.07,65.27c.17-.06.42-.13.72-.24.3-.1.64-.23,1.01-.37.18-.07.37-.15.56-.23.19-.08.38-.16.58-.25.19-.08.39-.17.58-.24.19-.08.38-.14.57-.2.19-.06.37-.12.54-.18.15-.06.29-.11.42-.16,0,.02,0,.03,0,.05,0,.27-.01.57,0,.89-.14.05-.3.11-.46.17-.17.07-.34.15-.52.23-.18.08-.37.16-.56.23-.19.07-.39.14-.59.21-.2.07-.4.13-.59.2-.19.07-.39.14-.57.21-.37.14-.71.27-1,.4-.29.12-.53.23-.7.3-.1.05-.17.08-.22.1,0-.03,0-.06,0-.1,0-.32.02-.64.02-.95.05-.01.12-.04.21-.07ZM80.83,66.4s.13-.04.24-.07c.17-.06.42-.13.72-.24.3-.1.64-.23,1.01-.37.18-.07.37-.15.56-.23.19-.08.38-.16.58-.25.19-.08.39-.17.58-.24.19-.08.38-.14.57-.2.19-.06.37-.12.54-.18.15-.05.28-.11.41-.16,0,.12,0,.24,0,.36,0,.17,0,.35.01.54-.04.01-.08.03-.12.04-.15.06-.31.11-.48.18-.17.07-.34.15-.52.23-.18.08-.37.16-.56.23-.19.07-.39.14-.59.21-.2.07-.4.13-.59.2-.19.07-.38.14-.57.21-.37.14-.71.27-1,.4-.29.12-.53.23-.7.3-.05.02-.09.04-.13.06,0-.34.02-.67.03-1.01ZM85.52,70.93l-1.66.58-1.66.56-1.59.53c.04-.69.07-1.37.09-2.06.03-.71.05-1.42.07-2.13.01-.32.02-.64.03-.96.04-.01.09-.03.15-.04.18-.06.43-.14.72-.24.3-.1.64-.23,1.01-.37.18-.07.37-.15.56-.23.19-.08.38-.16.58-.25.19-.08.39-.17.58-.24.19-.08.38-.14.57-.2.19-.06.37-.12.54-.18.17-.06.33-.12.47-.18.03-.01.05-.02.08-.03,0,.04,0,.08,0,.12,0,.23.02.46.03.68-.13.05-.28.1-.43.16-.17.07-.34.15-.52.23-.18.08-.37.16-.56.23-.19.07-.39.14-.59.21-.2.06-.4.13-.59.2-.19.07-.39.14-.57.21-.37.14-.71.27-1,.4-.29.12-.53.23-.7.31-.17.08-.26.12-.26.12h0s.1-.02.28-.07c.18-.06.42-.14.72-.24.3-.1.64-.23,1.01-.37.18-.07.37-.15.56-.23.19-.08.38-.16.58-.25.19-.08.39-.17.58-.24.19-.08.38-.14.57-.2.19-.06.37-.12.54-.18.14-.05.27-.1.39-.15.01.26.02.53.02.79,0,.05,0,.09,0,.13-.14.05-.29.11-.45.17-.17.07-.34.15-.52.23-.18.08-.37.16-.56.23-.19.07-.39.14-.59.21-.2.06-.4.13-.59.2-.19.07-.39.14-.57.21-.37.14-.71.27-1,.4-.29.12-.53.23-.7.3-.17.08-.26.12-.26.12h0s.1-.01.28-.07c.18-.06.42-.13.72-.24.3-.1.64-.23,1.01-.37.18-.07.37-.15.56-.23.19-.08.38-.16.58-.25.19-.08.39-.17.58-.24.19-.08.38-.14.57-.2.19-.06.37-.12.54-.18.15-.05.28-.11.41-.16,0,.17,0,.34-.01.51,0,.13-.01.27-.01.4-.02,0-.05.02-.07.03-.15.05-.31.11-.47.18-.17.07-.34.15-.52.23-.18.08-.37.16-.56.23-.19.07-.39.14-.59.21-.2.07-.4.13-.59.2-.19.07-.39.14-.57.21-.37.14-.71.27-1,.4-.29.12-.53.23-.7.31-.17.08-.26.12-.26.12h0s.1-.01.28-.07c.18-.06.43-.13.72-.24.3-.1.64-.23,1.01-.37.18-.07.37-.15.56-.23.19-.08.38-.16.58-.25.19-.09.39-.17.58-.24.19-.08.38-.14.57-.2.19-.06.37-.12.54-.18.17-.06.33-.13.47-.18,0,0,.02,0,.03-.01,0,.07,0,.14,0,.2,0,.2,0,.39,0,.57-.04.01-.07.03-.11.04-.15.05-.31.11-.48.18-.17.07-.34.15-.52.23-.18.08-.37.16-.56.23-.19.07-.39.14-.59.21-.2.07-.4.13-.59.2-.19.07-.39.14-.57.21-.37.14-.71.27-1,.4-.29.12-.53.23-.7.3-.17.08-.26.12-.26.12h0s.1-.02.28-.07c.18-.06.43-.13.72-.24.3-.1.64-.23,1.01-.37.18-.07.37-.15.56-.23.19-.08.38-.16.58-.25.19-.08.39-.16.58-.24.19-.08.38-.14.57-.2.19-.06.37-.12.54-.18.17-.06.33-.13.47-.18.02-.01.05-.02.07-.03,0,.18,0,.35.01.5,0,.16.01.31.02.42.01.2.02.33.03.36l-.63.22Z"/>
          <path class="cls-3" d="M86.87,67.64c-.49.92-1.18,1.84-2.24,2.23-2.43.89-4.29-1.32-4.85-3.18-.06-.2-.11-.41-.16-.61l-.33,8.84,8.84-3.64.09-6.55c-.38.99-.85,1.96-1.36,2.91Z"/>
        </g>
        <g>
          <g>
            <path class="cls-2" d="M37.2,37.55c-2.19.29-4.73,1.77-5.74,5.13-1.01,3.35.96,6.09.96,6.09-.53-.25-1.03-.07-1.09.6-.07.66.78,1.51,1.37,1.32.59-.19.5-.77.5-.77.8,1.09,2.04,1.06,2.04,1.06,0,0,2.31.24,4.76-1.58,1.6-1.19,2.1-2.82,2.1-2.82,0,0,1.19-1.69.32-4.16-.95-2.7-2.59-3.86-2.59-3.86,0,0-.78-1.24-2.62-.99Z"/>
            <path class="cls-46" d="M30.33,34.55c-4.76,2.88-5.04,7.81-5.04,7.81,0,0-.83,3.68,2.03,7.41,0,0,1.47,2.27,3.77,2.6,2.37.34,3.75-.84,3.75-.84,0,0,.33-.26.39-.56,0,0-1.23.03-2.04-1.06,0,0,.09.58-.5.77-.59.19-1.43-.65-1.37-1.32.07-.66.56-.85,1.09-.6,0,0-1.97-2.74-.96-6.09,1.01-3.35,3.55-4.84,5.74-5.13,1.85-.24,2.62.99,2.62.99,1.47-3.23-3.33-7.71-9.49-3.99Z"/>
            <path class="cls-34" d="M25.29,42.36c-2.2-.49-4.37,2.91-2.19,6.28,2.19,3.4,4.22,1.13,4.22,1.13-2.86-3.73-2.03-7.41-2.03-7.41Z"/>
          </g>
          <g>
            <path class="cls-40" d="M23.18,45.54s.09-.12.28-.25c.09-.07.21-.12.35-.17.07-.02.14-.05.21-.05.07-.02.15-.02.23-.02.08,0,.15,0,.23.01.08,0,.15.03.22.05.07.02.13.05.19.07.06.02.11.06.16.09.1.05.17.12.22.16.05.04.08.07.08.07,0,0-.03-.01-.09-.04-.03-.01-.07-.03-.11-.05-.04-.02-.09-.03-.14-.05-.05-.02-.1-.04-.16-.06-.06-.01-.12-.03-.18-.05-.07,0-.13-.02-.2-.03-.07,0-.14-.01-.21,0-.07,0-.14,0-.21.02-.07,0-.13.02-.2.04-.06.02-.13.03-.18.05-.06.02-.11.04-.16.06-.2.08-.33.16-.33.16Z"/>
            <path class="cls-40" d="M23.83,48.23s.04.02.1.05c.07.03.16.06.28.1.06.02.12.04.19.06.07.02.14.03.21.05s.15.02.23.03c.08,0,.16.01.23,0h.12s.11-.03.11-.03c.08,0,.15-.03.22-.05.07-.02.13-.05.2-.08.06-.02.12-.06.17-.09.05-.03.1-.05.14-.08.04-.03.07-.06.1-.08.06-.04.09-.07.09-.07,0,0-.02.03-.07.09-.02.03-.05.06-.09.1-.03.04-.08.08-.13.12-.05.04-.1.09-.17.12-.06.04-.13.08-.21.11-.08.03-.15.06-.24.07l-.13.02h-.13c-.09.02-.17,0-.26,0-.08-.01-.17-.03-.24-.05-.16-.04-.29-.1-.4-.16-.22-.12-.34-.24-.34-.24Z"/>
            <path class="cls-40" d="M24.85,49.55s.13,0,.33-.01c.05,0,.1-.01.15-.02.05,0,.11-.03.17-.04.06-.02.11-.03.17-.06.06-.02.11-.05.17-.08.06-.02.1-.07.16-.1.05-.04.09-.08.14-.11.04-.04.08-.08.12-.12.04-.04.07-.08.1-.12.06-.07.11-.14.14-.19.04-.05.06-.07.06-.07,0,0,0,.03-.02.09-.02.06-.04.14-.09.23-.02.04-.04.1-.08.14-.03.05-.07.1-.11.15-.05.04-.09.1-.15.14-.06.04-.11.09-.17.12-.06.03-.12.06-.19.08-.06.03-.13.04-.19.05-.13.02-.25.02-.35.01-.2-.02-.33-.09-.33-.09Z"/>
            <path class="cls-40" d="M24.11,44.2s.07-.04.2-.06c.06-.01.14-.01.22,0,.04,0,.08,0,.12.02.04.01.08.02.12.04.04.02.08.04.12.06.04.02.07.05.1.07.03.02.06.05.08.08.03.03.05.05.06.08.04.05.06.1.07.14.01.03.02.05.02.05,0,0-.02-.01-.05-.03-.03-.02-.07-.05-.11-.09-.09-.07-.22-.14-.36-.2-.07-.03-.14-.05-.21-.07-.07-.02-.13-.03-.19-.04-.11-.02-.2-.04-.2-.04Z"/>
            <path class="cls-40" d="M23.95,43.12s.08-.06.22-.1c.07-.02.15-.04.25-.04.09,0,.19.01.29.04.05.02.1.03.14.06.05.02.09.05.12.09.04.03.07.07.09.1.01.02.02.03.04.05,0,.02.02.04.02.05.03.07.04.13.05.17,0,.04,0,.07,0,.07,0,0-.02-.02-.04-.05-.01-.02-.03-.04-.04-.06-.01-.02-.04-.04-.06-.07-.02-.03-.04-.05-.07-.07-.03-.03-.06-.05-.09-.07-.03-.02-.07-.04-.1-.06-.03-.02-.08-.03-.11-.05-.16-.05-.34-.06-.47-.07-.14,0-.23,0-.23,0Z"/>
          </g>
          <g>
            <path class="cls-40" d="M27.4,47.64s.06.04.18.09c.11.06.28.13.48.2.1.04.21.07.33.11.12.03.25.06.38.08.13.02.27.05.41.05.14.02.28.02.42.02.14,0,.28-.02.42-.02.14-.01.27-.04.41-.06.13-.03.25-.07.37-.09.12-.02.23-.08.33-.11.1-.04.2-.07.28-.11.08-.04.15-.07.21-.1.12-.05.18-.08.18-.08,0,0-.06.04-.17.11-.05.03-.12.08-.2.12-.07.05-.17.09-.27.14-.1.04-.21.11-.33.14-.12.04-.25.09-.38.12-.14.03-.28.07-.42.08-.15,0-.29.04-.44.03-.15,0-.3,0-.44-.02-.15-.01-.29-.04-.42-.07-.14-.03-.26-.07-.38-.11-.12-.05-.23-.09-.33-.14-.1-.04-.19-.09-.27-.14-.08-.05-.14-.09-.2-.12-.11-.07-.16-.12-.16-.12Z"/>
            <path class="cls-40" d="M27.59,49.76s.24.2.62.45c.19.13.42.26.67.39.13.06.26.12.4.18.14.05.28.1.42.14.14.04.29.07.44.09.15.02.29.03.43.02.28,0,.54-.06.75-.14.11-.03.2-.08.28-.12.08-.04.15-.08.21-.12.11-.07.18-.11.18-.11,0,0-.06.05-.16.14-.05.04-.12.09-.2.15-.08.05-.17.11-.28.15-.11.05-.23.09-.36.13-.13.04-.27.06-.42.07-.15.01-.3,0-.46,0-.15-.02-.31-.05-.46-.09-.15-.04-.3-.09-.44-.15-.14-.06-.28-.13-.41-.2-.25-.14-.48-.3-.66-.44-.18-.14-.32-.28-.42-.37-.09-.1-.14-.16-.14-.16Z"/>
            <path class="cls-40" d="M31.08,51.9s.11-.05.25-.14c.07-.04.16-.1.24-.16.08-.06.17-.13.25-.2.08-.07.16-.15.23-.23.04-.04.06-.08.09-.12.03-.04.06-.08.08-.11.02-.04.05-.07.07-.1.02-.03.03-.06.05-.08.03-.04.05-.07.05-.07,0,0,0,.03-.01.08,0,.05-.02.13-.06.21-.02.04-.03.09-.06.13-.03.04-.05.1-.08.14-.03.05-.06.1-.11.14-.04.04-.08.09-.13.13-.18.16-.4.27-.57.32-.17.05-.29.05-.29.05Z"/>
            <path class="cls-40" d="M27.82,41.77s.06-.02.16-.05c.1-.03.25-.07.44-.09.18-.03.4-.03.63-.03.12.01.24.01.36.03.12.02.24.04.36.07.12.03.24.07.35.11.12.03.22.09.33.14.11.04.2.11.29.16.09.05.17.11.25.17.07.06.14.1.2.16.05.05.1.1.14.13.08.07.12.12.12.12,0,0-.05-.03-.14-.09-.04-.03-.1-.07-.16-.11-.06-.04-.14-.08-.21-.12-.08-.05-.16-.1-.26-.14-.09-.04-.19-.1-.29-.13-.1-.04-.21-.09-.32-.12-.11-.03-.22-.07-.34-.1-.11-.03-.23-.05-.35-.07-.11-.02-.23-.03-.34-.05-.11,0-.22-.02-.32-.02-.1,0-.2,0-.29,0-.18,0-.33,0-.44.02-.11,0-.17.02-.17.02Z"/>
            <path class="cls-40" d="M29.34,43.31s.11-.06.3-.1c.09-.02.2-.04.32-.04.06,0,.12,0,.18,0,.06,0,.13,0,.19.02.13.02.25.05.36.09.06.02.11.04.16.06.05.02.1.05.14.07.08.05.14.1.19.13.04.04.07.06.07.06,0,0-.03,0-.08-.03-.05-.02-.12-.05-.21-.07-.17-.06-.41-.11-.64-.14-.12-.02-.24-.03-.35-.04-.11,0-.22,0-.31,0-.18,0-.31,0-.31,0Z"/>
            <path class="cls-40" d="M29.69,45.18s.1.02.24.03c.07,0,.15.01.24.02.09,0,.18,0,.27,0,.09,0,.18-.01.27-.02.04,0,.08-.01.12-.02.04,0,.08-.01.11-.02.07-.01.13-.03.17-.04.04,0,.07-.01.07-.01,0,0-.02.02-.05.04-.03.03-.08.07-.15.1-.03.02-.07.04-.11.05-.04.01-.08.04-.13.05-.05.01-.09.03-.14.03-.05,0-.1.01-.15.01-.05,0-.1,0-.15,0-.05,0-.1-.01-.14-.02-.09-.02-.18-.04-.25-.08-.14-.06-.21-.13-.21-.13Z"/>
            <path class="cls-40" d="M30.7,38.7s.04,0,.12.01c.07.01.18.03.3.07.12.04.26.1.4.19.07.05.14.09.2.14.07.05.13.11.19.17.06.06.11.13.17.2.05.07.09.14.14.21.04.07.07.14.1.21.03.07.05.14.07.2.02.06.04.12.04.17,0,.05.02.1.02.13.01.07.01.12.01.12,0,0-.02-.04-.05-.11-.01-.03-.03-.07-.05-.12-.02-.05-.05-.1-.07-.15-.03-.05-.05-.12-.09-.18-.04-.06-.07-.12-.11-.19-.04-.06-.09-.13-.14-.19-.05-.06-.1-.13-.16-.18-.11-.12-.23-.22-.35-.31-.12-.09-.24-.16-.35-.22-.11-.06-.2-.11-.27-.13-.07-.03-.11-.04-.11-.04Z"/>
            <path class="cls-40" d="M32.03,37.4s.16.03.37.15c.11.06.22.14.34.23.06.05.12.1.17.16.05.06.11.12.16.19.05.06.09.13.13.2.05.07.07.14.1.21.04.07.05.14.07.21.02.07.03.13.04.19,0,.06.02.11.02.16,0,.05,0,.09,0,.13,0,.07,0,.11,0,.11,0,0-.01-.04-.03-.1,0-.03-.02-.07-.04-.12-.01-.05-.04-.09-.05-.15-.02-.05-.04-.11-.07-.17-.03-.06-.05-.12-.09-.19-.04-.06-.07-.13-.11-.19-.04-.06-.08-.13-.13-.19-.09-.13-.19-.23-.29-.34-.05-.05-.1-.1-.15-.14-.05-.04-.1-.08-.14-.12-.18-.15-.32-.23-.32-.23Z"/>
            <path class="cls-40" d="M34.72,35.48s.04.02.11.06c.07.04.17.09.28.17.11.08.24.18.36.3.06.06.13.12.18.2.06.07.12.14.17.22.06.08.1.16.14.24.04.08.07.17.1.26.02.09.04.17.04.25,0,.08,0,.16,0,.23-.01.07-.03.13-.04.19-.02.05-.04.1-.06.13-.04.07-.06.11-.06.11,0,0,0-.05.03-.12,0-.04.02-.08.03-.14,0-.05,0-.11,0-.18,0-.06-.02-.13-.02-.21-.01-.07-.04-.15-.06-.22-.03-.07-.06-.15-.1-.23-.04-.07-.08-.15-.13-.22-.05-.07-.1-.15-.15-.21-.05-.07-.11-.13-.16-.2-.11-.12-.22-.23-.32-.33-.19-.19-.33-.31-.33-.31Z"/>
            <path class="cls-40" d="M37.01,34.67s.17.13.36.37c.2.24.42.62.5,1.05.02.11.03.22.02.32,0,.11-.02.21-.05.31-.03.1-.07.19-.11.27-.05.08-.1.15-.15.21-.05.06-.1.11-.15.16-.05.04-.09.08-.13.1-.08.05-.12.08-.12.08,0,0,.03-.04.1-.1.06-.06.14-.17.22-.29.04-.06.08-.14.11-.21.03-.08.06-.16.08-.25.03-.18.04-.38,0-.57-.02-.1-.04-.19-.07-.29-.03-.09-.06-.19-.1-.27-.08-.17-.16-.33-.24-.46-.08-.13-.15-.24-.2-.31-.05-.07-.08-.12-.08-.12Z"/>
            <path class="cls-40" d="M38.51,35.55s.12.09.23.28c.03.05.06.1.08.16.03.06.05.13.06.19.01.07.03.14.03.22,0,.04,0,.08,0,.11v.12c-.02.08-.06.15-.08.22-.03.07-.07.13-.1.2-.04.06-.08.11-.12.16-.04.05-.09.09-.13.13-.08.08-.17.12-.22.16-.06.03-.09.05-.09.05,0,0,.02-.03.07-.08.02-.02.05-.05.08-.09.03-.03.06-.07.09-.11.03-.04.07-.09.1-.14.03-.05.06-.11.1-.16.02-.06.05-.12.08-.18.01-.06.04-.13.05-.19l.02-.1s0-.07,0-.1c0-.07,0-.13-.01-.19-.02-.06-.02-.13-.04-.18-.02-.06-.03-.11-.05-.16-.07-.2-.14-.33-.14-.33Z"/>
          </g>
          <g>
            <path class="cls-34" d="M35.64,43.84c.16.21.28.24.08-.45-.18-.64.23-1.19,1.27-.73.33.14-.91-1.02-1.56-.38-.45.44.07,1.39.2,1.56Z"/>
            <path class="cls-34" d="M38.6,40.87c.13.17.23.2.07-.37-.15-.53.19-.98,1.05-.6.27.12-.75-.84-1.28-.31-.37.36.06,1.15.17,1.29Z"/>
            <g>
              <path class="cls-41" d="M38.25,44.55c.24.36.28.75.11.86-.18.12-.51-.08-.75-.44-.24-.36-.28-.75-.11-.86.18-.11.51.08.75.45Z"/>
              <path class="cls-30" d="M38.33,44.79c.06.12.06.23,0,.26-.06.03-.15-.04-.21-.15-.06-.12-.07-.23,0-.26.06-.03.15.04.21.15Z"/>
            </g>
            <g>
              <path class="cls-41" d="M40.81,41.82c.2.31.24.63.09.73-.15.1-.44-.07-.64-.38-.2-.31-.24-.63-.09-.73.15-.1.44.07.64.38Z"/>
              <path class="cls-30" d="M40.88,42.02c.05.1.06.2,0,.22-.05.03-.13-.03-.18-.13-.05-.1-.06-.2,0-.22.05-.03.13.03.18.13Z"/>
            </g>
            <path class="cls-42" d="M40.47,44.3s0-.04.02-.1c.02-.06.04-.16.09-.26.03-.05.06-.11.1-.16.04-.05.1-.1.17-.14.07-.03.16-.05.24-.04.07.01.16.04.23.09.14.1.21.28.19.43-.01.16-.09.28-.17.37-.08.09-.16.14-.22.17-.06.03-.09.04-.09.04,0,0,.03-.02.08-.07.05-.04.11-.11.17-.19.06-.09.11-.2.11-.33,0-.12-.05-.25-.16-.32-.05-.04-.11-.06-.18-.07-.06,0-.12,0-.18.02-.11.04-.2.14-.26.23-.06.09-.1.17-.13.23-.03.06-.04.09-.04.09Z"/>
            <path class="cls-42" d="M38.57,47.97s.06.03.17.07c.06.02.12.04.2.05.04,0,.08.01.13.02.04,0,.09,0,.14,0,.05,0,.1,0,.15,0,.05,0,.11,0,.16-.01.11,0,.23-.03.35-.06.12-.02.24-.07.36-.11.06-.02.13-.04.18-.07l.18-.09c.11-.07.22-.13.31-.21.05-.04.1-.08.14-.13.05-.04.09-.09.13-.13.04-.04.08-.09.11-.14.03-.05.07-.09.09-.14.06-.1.1-.19.14-.28.07-.18.12-.34.14-.46.02-.11.03-.18.03-.18,0,0,0,.07,0,.19,0,.12-.02.29-.08.49-.03.1-.07.21-.12.31-.02.05-.06.11-.09.16-.03.05-.07.11-.11.16-.04.05-.08.1-.13.15-.05.05-.09.1-.15.14-.1.09-.22.17-.34.24l-.18.09c-.07.03-.13.05-.2.07-.13.04-.25.09-.38.11-.13.02-.25.04-.37.04-.06,0-.12,0-.17,0-.06,0-.11-.02-.16-.02-.05-.01-.1-.01-.15-.03-.04-.01-.09-.03-.13-.04-.08-.02-.14-.06-.2-.08-.05-.02-.09-.05-.12-.07-.03-.02-.04-.03-.04-.03Z"/>
            <path class="cls-42" d="M38.75,47.42s0,.02-.02.06c-.01.04-.03.09-.04.15-.02.06-.03.14-.05.21,0,.08-.03.16-.03.24,0,.08-.01.17,0,.25,0,.04,0,.08,0,.11,0,.04,0,.07.01.1.02.12.04.21.04.21,0,0-.04-.08-.08-.2-.03-.06-.03-.14-.05-.22,0-.04-.01-.08-.01-.13,0-.04,0-.09,0-.13,0-.09.03-.17.04-.26.03-.08.05-.15.08-.21.05-.12.11-.19.11-.19Z"/>
            <path class="cls-42" d="M41.3,45.82s.05-.02.13-.02c.02,0,.04,0,.06,0,.02,0,.05,0,.07.01.02,0,.05.02.07.03.03,0,.05.03.07.04l.07.05s.04.04.05.06c.03.04.06.07.08.11.03.07.05.12.05.12,0,0-.04-.04-.09-.09-.02-.03-.06-.06-.09-.08-.02-.02-.03-.03-.05-.05l-.06-.04s-.04-.03-.06-.04c-.02,0-.04-.02-.06-.03-.02-.01-.04-.02-.06-.02-.02,0-.04-.02-.06-.02-.04,0-.07-.02-.09-.02-.02,0-.03,0-.03,0Z"/>
            <path class="cls-42" d="M31.96,49.78s0-.02,0-.05c0-.03.02-.08.05-.13.01-.03.03-.05.05-.08.02-.02.05-.05.08-.07.03-.02.07-.03.11-.04.04,0,.08,0,.12,0,.04,0,.08.02.12.03.04,0,.07.03.1.05.07.03.11.08.16.11.04.04.07.07.1.1.02.02.03.04.03.04,0,0-.07-.04-.16-.1-.05-.02-.1-.06-.16-.08-.06-.03-.13-.05-.19-.06-.03,0-.07,0-.1,0-.03,0-.06.01-.09.03-.06.03-.1.07-.13.11-.03.04-.06.08-.07.11-.01.03-.02.05-.02.05Z"/>
            <path class="cls-42" d="M34.54,40.38s.09-.14.25-.32c.08-.09.18-.19.28-.3.11-.11.23-.21.35-.32.13-.1.25-.2.38-.28.06-.04.13-.08.19-.12.06-.04.11-.07.17-.1.22-.1.37-.16.37-.16,0,0-.13.1-.33.23-.05.03-.1.08-.16.12-.05.04-.11.08-.17.13-.06.04-.12.1-.18.14-.06.05-.12.1-.19.15-.06.05-.12.1-.18.15-.06.05-.12.1-.18.15-.11.1-.22.19-.31.27-.18.16-.3.27-.3.27Z"/>
            <path class="cls-42" d="M34.27,41.48s.04-.06.11-.15c.07-.09.18-.23.31-.38.13-.15.29-.33.47-.51.18-.18.38-.37.57-.56.1-.09.21-.18.31-.26.1-.09.2-.17.3-.25.1-.07.2-.15.3-.21.1-.07.18-.13.27-.19.36-.2.59-.33.59-.33,0,0-.22.16-.55.39-.08.06-.16.13-.26.2-.09.07-.19.15-.28.23-.1.08-.19.17-.29.25-.1.09-.2.17-.3.26-.1.09-.2.18-.29.27-.1.09-.2.18-.28.27-.18.18-.36.34-.5.48-.14.14-.26.26-.35.35-.08.08-.13.13-.13.13Z"/>
          </g>
          <g class="cls-13">
            <path class="cls-33" d="M25.29,42.36c-.66-.15-1.32.06-1.86.51.91-.73,1.78.05,1.15.04-.64,0-.93.27-.68.24.72-.08,1.05.81.63.83-.43.02-.83.33-.57.31.68-.05,1.01.6.48.61-1.07.01-1.38.78-1.38.78.81-.65,2.15-.29,2.19,1.11.04,1.4-1.45,1.36-1.45,1.36.84.91,2.42.69,1.85,1.09-.58.4-.92.31-.92.31,1.06.38,1.3.79.52.71-.68-.07-1.08-.37-1.18-.45,1.79,1.61,3.26-.03,3.26-.03-2.86-3.73-2.03-7.41-2.03-7.41Z"/>
          </g>
          <g class="cls-13">
            <path class="cls-33" d="M36.82,33.44c.08.03,1.53.55,2.3,1.66.79,1.15.12,2.58-.15,1.5-.27-1.07-.53-1.23-.53-1.23,0,0,.59,1.23-.07,1.53-.66.3.14-1.18-1.48-2.36,0,0,1.44,1.53.33,2.07-1.11.55-1.35-.97-2.72-1.24,0,0,2.03,1.45.28,2.65-1.46,1-1.74-.81-2.91-.65,0,0,1.53.8.91,1.67-.61.87-1.2-.54-2.24-.4,0,0,2.13.83,1.09,2.32-1.04,1.49-2.6.12-3.91.85,0,0,2.05-.35,2.87.56.82.92-.43.59-1.37.91,0,0,1.69-.13,1.67.69-.02.82-1.47,1.19-1.47,1.19,0,0,1.99.56,1.49,1.81-.65,1.65-3.19.86-3.19.86,0,0,1.32,1.08,2.44,1.13,1.12.05.41,1.83-1.25,1.68-1.65-.15-4.13-4.85-3.62-8.28,0,0-.83,3.68,2.03,7.41,0,0,1.47,2.27,3.77,2.6,2.37.34,3.75-.84,3.75-.84,0,0,.33-.26.39-.56,0,0-1.23.03-2.04-1.06,0,0,.09.58-.5.77-.59.19-1.43-.65-1.37-1.32.07-.66.56-.85,1.09-.6,0,0-1.97-2.74-.96-6.09,1.01-3.35,3.55-4.84,5.74-5.13,1.85-.24,2.62.99,2.62.99.88-1.92-.47-4.29-3-5.1Z"/>
          </g>
          <path class="cls-14" d="M41.51,43.06c.26.23.97-.79.66-1-.3-.21-1.06.65-.66,1Z"/>
          <path class="cls-14" d="M38.81,46.04c.32.33-1.43,1.63-1.71,1.23-.28-.39,1.23-1.73,1.71-1.23Z"/>
        </g>
        <g>
          <path class="cls-36" d="M40.56,43.48c-.47.27-.79.53-1.31,1.15-.52.62-2.73,3.51-2.73,3.51l.06.02,2.01,1.38s.97-.12,1.17-.2c1.14-.42,2.58-1.4,3.39-2.84.82-1.44.45-2.4.12-2.93-.32-.53-.91-1.21-.91-1.21-.15.05-1.34.85-1.81,1.12Z"/>
          <path class="cls-25" d="M39.69,44.37s1.16.91,1.87,2.16c0,0,.1.17.23.11.13-.06,1.37-1.13.8-2.4-.56-1.27-.81-1.39-.81-1.39,0,0-1,.61-1.42.86-.42.26-.68.66-.68.66Z"/>
          <g class="cls-24">
            <path class="cls-26" d="M41.98,43.54c-.21.08-.39.21-.57.34-.2.14-.4.27-.59.41-.29.21-.56.45-.81.71-.16-.12-.32-.23-.48-.35,0,0-.02,0-.01.01.14.13.3.25.45.37-.09.09-.17.18-.25.27-.66.74-1.23,1.57-1.62,2.48,0,0,0,.02.01,0,.42-.87.98-1.66,1.62-2.4.1-.11.19-.22.29-.32.05.04.1.08.14.12.21.2.42.41.61.62.2.22.38.46.56.7.16.22.31.45.49.66,0,0,.02,0,.01-.01-.3-.47-.61-.93-.98-1.36-.19-.22-.4-.43-.61-.63-.06-.05-.12-.11-.19-.16.23-.24.47-.46.74-.66.19-.15.4-.27.59-.42.19-.15.38-.29.59-.41,0,0,0-.02,0-.01Z"/>
            <path class="cls-26" d="M40.92,46.07c-.14.13-.24.3-.37.44-.15.18-.28.36-.43.54-.28.34-.58.66-.89.98,0,0,0,.02.01.01.33-.29.64-.61.92-.94.27-.32.5-.68.77-1.01.01-.01,0-.03-.02-.02Z"/>
            <path class="cls-26" d="M42.91,44.19c-.16.14-.27.32-.42.47-.15.15-.3.29-.47.43-.32.27-.66.53-.95.84,0,0,0,.02.01.01.31-.29.65-.55.98-.82.33-.27.62-.58.86-.93,0-.01,0-.02-.02-.02Z"/>
            <path class="cls-26" d="M41.53,47.16c-.13.12-.23.27-.35.4-.14.14-.3.27-.46.38-.32.22-.66.41-.98.64-.01,0,0,.03.01.02.34-.22.71-.4,1.05-.63.32-.22.55-.47.74-.8,0,0,0-.01-.01,0Z"/>
            <path class="cls-26" d="M42.94,45.41c-.36.5-.74.97-1.13,1.45,0,0,0,0,0,0,.23-.21.43-.44.62-.68.09-.11.17-.22.24-.33.1-.14.17-.29.26-.43,0,0,0,0,0,0Z"/>
          </g>
          <path class="cls-10" d="M42.89,45.49c-.23.33-.43.68-.71.97-.18.19-.45.39-.68.24.06.24.12.43-.07.66-.26.31-1.05.82-1.37,1.05-.02.01-.04.03-.06.04-.16.11-.34.2-.52.25-.34.08-.63-.17-.88-.36-.36-.29-.76-.51-1.15-.76-.09-.06-.21-.13-.24-.24,0-.03-.01-.06-.01-.09-.4.51-.69.89-.69.89l.06.02,2.01,1.38s.97-.12,1.17-.2c1.14-.42,2.58-1.4,3.39-2.84.6-1.07.56-1.87.36-2.43.05.56-.31.98-.63,1.42Z"/>
          <path class="cls-4" d="M40.98,48.46c-.33.2-1.28.71-1.67.75-.3.04-.55-.07-.8-.22-.37-.22-.71-.5-1.07-.74-.25-.16-.46-.34-.54-.62-.23.3-.39.5-.39.5l.06.02,2.01,1.38s.97-.12,1.17-.2c1.14-.42,2.58-1.4,3.39-2.84.17-.3.29-.57.36-.83-.49,1.03-1.29,2.03-2.53,2.78Z"/>
        </g>
        <path class="cls-26" d="M36.57,48.05c-1.19.42-2.43,1-3.57,1.61.31-.08.61-.15.89-.21.32-.16.63-.33.97-.48.59-.26,1.03-.39,1.95-.69.08-.03-.17-.26-.25-.24Z"/>
      </g>
    </g>
  </g>
</svg>