<?xml version="1.0" encoding="UTF-8"?>
<svg xmlns="http://www.w3.org/2000/svg" xmlns:xlink="http://www.w3.org/1999/xlink" viewBox="0 0 100 100">
  <defs>
    <style>
      .cls-1, .cls-2 {
        fill: #4b5b6a;
      }

      .cls-3, .cls-4, .cls-5, .cls-6, .cls-7, .cls-8, .cls-9 {
        mix-blend-mode: screen;
      }

      .cls-3, .cls-4, .cls-10 {
        fill: #88cfc4;
      }

      .cls-11, .cls-12, .cls-13, .cls-14, .cls-15, .cls-16, .cls-17, .cls-18, .cls-2, .cls-19, .cls-20, .cls-21, .cls-22, .cls-23, .cls-24, .cls-25, .cls-26, .cls-27, .cls-28, .cls-29, .cls-30, .cls-31, .cls-32, .cls-33, .cls-34, .cls-35, .cls-36, .cls-37, .cls-38 {
        mix-blend-mode: multiply;
      }

      .cls-11, .cls-39 {
        fill: #7e7f80;
      }

      .cls-12, .cls-40, .cls-41, .cls-25, .cls-6 {
        fill: #9ca9b2;
      }

      .cls-12, .cls-18, .cls-2, .cls-42, .cls-43, .cls-30, .cls-33, .cls-34, .cls-38 {
        opacity: .4;
      }

      .cls-44 {
        fill: #c8d3db;
      }

      .cls-45 {
        fill: #c6e3ef;
      }

      .cls-40, .cls-17, .cls-6, .cls-31, .cls-46 {
        opacity: .6;
      }

      .cls-47 {
        fill: #a4a3a3;
      }

      .cls-47, .cls-48 {
        mix-blend-mode: color-burn;
      }

      .cls-49 {
        fill: #5d666c;
      }

      .cls-13, .cls-50 {
        fill: #359846;
      }

      .cls-14, .cls-4, .cls-36, .cls-37 {
        opacity: .5;
      }

      .cls-14, .cls-51 {
        fill: #e3bfa9;
      }

      .cls-52 {
        fill: #9a9a9a;
      }

      .cls-48, .cls-53, .cls-24, .cls-5, .cls-54 {
        fill: #c6c5c5;
      }

      .cls-55 {
        fill: #c8df8e;
      }

      .cls-15, .cls-56 {
        fill: #801417;
      }

      .cls-16 {
        fill: url(#radial-gradient);
      }

      .cls-57 {
        fill: #f3d9bf;
      }

      .cls-17, .cls-28, .cls-32, .cls-33, .cls-58 {
        fill: #32394b;
      }

      .cls-59 {
        fill: #964922;
      }

      .cls-60, .cls-7 {
        fill: #fff;
      }

      .cls-18, .cls-21 {
        fill: #1d1c1a;
      }

      .cls-61 {
        fill: #f8f8f1;
      }

      .cls-62 {
        fill: #c8d1e3;
      }

      .cls-63 {
        fill: #42423f;
      }

      .cls-19, .cls-64 {
        fill: #515257;
      }

      .cls-20 {
        fill: #929292;
      }

      .cls-65 {
        fill: #949492;
      }

      .cls-66, .cls-27, .cls-37 {
        fill: #efcfb0;
      }

      .cls-67 {
        fill: #50130d;
      }

      .cls-21, .cls-53, .cls-32 {
        opacity: .3;
      }

      .cls-68 {
        fill: #7f98b9;
      }

      .cls-69 {
        fill: #d6ebde;
      }

      .cls-70 {
        fill: #4c7b90;
      }

      .cls-22, .cls-71, .cls-9 {
        fill: #b4b4b5;
      }

      .cls-72 {
        fill: #bb9e8b;
      }

      .cls-73 {
        fill: #575858;
      }

      .cls-74, .cls-43 {
        fill: #505868;
      }

      .cls-23, .cls-26, .cls-28 {
        opacity: .7;
      }

      .cls-23, .cls-38 {
        fill: #75aea3;
      }

      .cls-75 {
        fill: #b3b2b3;
      }

      .cls-26 {
        fill: #c6c7c7;
      }

      .cls-76 {
        fill: #231f20;
      }

      .cls-77 {
        isolation: isolate;
      }

      .cls-8 {
        fill: url(#linear-gradient);
        opacity: .9;
      }

      .cls-78 {
        fill: #fff2e7;
      }

      .cls-79 {
        fill: #6eaccb;
      }

      .cls-80, .cls-30 {
        fill: #7f7f7e;
      }

      .cls-81 {
        fill: #6c6d6c;
      }

      .cls-82 {
        fill: #259747;
      }

      .cls-83 {
        fill: #1c1c1d;
      }

      .cls-84 {
        fill: #d4d3d3;
      }

      .cls-85 {
        fill: #9b9a7d;
      }

      .cls-31 {
        fill: #3f8668;
      }

      .cls-86 {
        fill: #e7e4b7;
      }

      .cls-34, .cls-87 {
        fill: #b38055;
      }

      .cls-88 {
        fill: #e4e0d0;
      }

      .cls-35 {
        fill: url(#radial-gradient-2);
      }

      .cls-36 {
        fill: #20407e;
      }

      .cls-46 {
        fill: #c29369;
      }

      .cls-89 {
        fill: #ececec;
      }

      .cls-90 {
        fill: #aeadaa;
      }

      .cls-91 {
        fill: #bbb9ac;
      }

      .cls-92 {
        fill: #2d282a;
      }
    </style>
    <linearGradient id="linear-gradient" x1="55.14" y1="7.17" x2="55.14" y2="11.15" gradientUnits="userSpaceOnUse">
      <stop offset="0" stop-color="#fff"/>
      <stop offset="1" stop-color="#000"/>
    </linearGradient>
    <radialGradient id="radial-gradient" cx="40.43" cy="44.47" fx="40.43" fy="44.47" r="2.86" gradientUnits="userSpaceOnUse">
      <stop offset=".34" stop-color="#f7cac0"/>
      <stop offset=".94" stop-color="#fff"/>
    </radialGradient>
    <radialGradient id="radial-gradient-2" cx="42.6" cy="44.88" fx="42.6" fy="44.88" r="2.39" xlink:href="#radial-gradient"/>
  </defs>
  <g class="cls-77">
    <g id="Layer_1" data-name="Layer 1">
      <g>
        <g>
          <g>
            <g>
              <path class="cls-83" d="M69.68,64.75c-.68-.06-1.83.24-2.05.86-.23.62.57,1.46.57,1.46.29.33.38.44.95.18.57-.26,1.18-.54,1.28-1.04.11-.5-.08-1.4-.75-1.46Z"/>
              <path class="cls-63" d="M69.37,65.74c.28.67.07,1.4-.47,1.62-.54.22-1.2-.14-1.48-.81-.28-.67-.07-1.4.47-1.62.54-.22,1.2.14,1.48.81Z"/>
              <path class="cls-83" d="M68.64,66.08c.08.19.02.41-.14.47-.16.07-.35-.04-.43-.23-.08-.19-.02-.4.14-.47.16-.07.35.04.43.23Z"/>
              <path class="cls-68" d="M67.32,65.17s2.09,1.07,2.25,1.11c.16.04.48-.1,1.07-.48,0,0,.14-1.49-1.17-1.75-1.31-.26-1.97.54-2.15,1.13Z"/>
              <path class="cls-41" d="M69.59,66.28c.04-.57-.1-1.18-.59-1.5-.54-.35-1.24-.26-1.61.22-.03.06-.05.12-.07.17,0,0,2.09,1.07,2.25,1.11,0,0,.01,0,.02,0Z"/>
              <path class="cls-18" d="M69.47,64.04c-.93-.19-1.54.17-1.87.6.38-.25.88-.29,1.32-.06.63.34.83,1.02.79,1.68.18-.03.48-.18.93-.48,0,0,.14-1.49-1.17-1.75Z"/>
              <path class="cls-68" d="M68.55,63.28l.02,1.09s.36.38.99-.08l-.06-1.17-.94.16Z"/>
              <path class="cls-21" d="M69.49,63.12l-.94.16v.57c.05-.13.05-.16.16-.14.36.08.46-.04.47.14,0,.08,0,.44,0,.52-.02.12-.12.1-.23.14.16,0,.36-.04.61-.23l-.06-1.17Z"/>
              <path class="cls-33" d="M69.53,63.82l-.04-.7-.94.16v.52c.31.18.66.15.98.02Z"/>
              <path class="cls-1" d="M68.08,61.09l.16,2.29s.74.66,1.53-.12l-.04-2.23-1.65.06Z"/>
              <path class="cls-40" d="M68.95,61.05l-.62.02c.06.81.11,1.63.14,2.45.14.07.34.13.57.11,0-.86-.03-1.72-.09-2.58Z"/>
              <path class="cls-33" d="M69.75,62.2l-.02-1.18-1.65.06.07,1.06c.47.26,1.03.22,1.6.06Z"/>
            </g>
            <g>
              <path class="cls-83" d="M57.64,65.83c-.68-.06-1.83.24-2.05.86-.23.62.57,1.46.57,1.46.29.33.38.44.95.18.57-.26,1.18-.54,1.28-1.04.11-.5-.08-1.4-.75-1.46Z"/>
              <path class="cls-63" d="M57.33,66.82c.28.67.07,1.4-.47,1.62-.54.22-1.2-.14-1.48-.81-.28-.67-.07-1.4.47-1.62.54-.22,1.2.14,1.48.81Z"/>
              <path class="cls-83" d="M56.6,67.16c.08.19.02.41-.14.47-.16.07-.35-.04-.43-.23-.08-.19-.02-.4.14-.47.16-.06.35.04.43.24Z"/>
              <path class="cls-68" d="M55.28,66.25s2.09,1.07,2.25,1.11c.16.04.48-.1,1.07-.48,0,0,.14-1.49-1.17-1.75-1.31-.26-1.97.54-2.15,1.13Z"/>
              <path class="cls-41" d="M57.55,67.36c.04-.57-.1-1.18-.59-1.5-.54-.35-1.24-.26-1.61.22-.03.06-.05.12-.07.17,0,0,2.09,1.07,2.25,1.11,0,0,.01,0,.02,0Z"/>
              <path class="cls-18" d="M57.43,65.12c-.93-.19-1.54.17-1.87.6.38-.25.88-.29,1.32-.06.63.34.83,1.02.79,1.68.18-.04.48-.18.93-.48,0,0,.14-1.49-1.17-1.75Z"/>
              <path class="cls-68" d="M56.51,64.36l.02,1.09s.36.38.99-.08l-.06-1.17-.95.16Z"/>
              <path class="cls-21" d="M57.45,64.2l-.95.16v.57c.05-.13.05-.16.16-.14.36.08.46-.04.47.14,0,.08,0,.44,0,.52-.02.12-.12.1-.23.14.16,0,.36-.04.61-.23l-.06-1.17Z"/>
              <path class="cls-33" d="M57.49,64.9l-.04-.7-.95.16v.52c.31.18.66.15.98.02Z"/>
              <path class="cls-1" d="M56.04,62.17l.16,2.29s.74.66,1.53-.12l-.04-2.23-1.65.06Z"/>
              <path class="cls-40" d="M56.91,62.14l-.62.02c.06.81.11,1.63.14,2.45.14.07.34.13.57.11,0-.86-.03-1.72-.09-2.58Z"/>
              <path class="cls-33" d="M57.71,63.28l-.02-1.18-1.65.06.07,1.06c.47.26,1.04.22,1.6.06Z"/>
            </g>
            <g>
              <path class="cls-83" d="M61.49,67.75c-.68-.06-1.82.24-2.05.86s.57,1.46.57,1.46c.29.33.38.44.95.18.57-.26,1.18-.54,1.28-1.04.1-.5-.08-1.4-.75-1.46Z"/>
              <path class="cls-63" d="M61.18,68.74c.28.67.07,1.4-.47,1.62-.54.22-1.2-.14-1.48-.81-.28-.67-.07-1.4.47-1.62.54-.22,1.2.14,1.48.81Z"/>
              <path class="cls-83" d="M60.45,69.08c.08.19.02.41-.14.47-.16.07-.35-.04-.43-.23-.08-.19-.02-.4.14-.47.16-.07.35.04.43.23Z"/>
              <path class="cls-68" d="M59.13,68.16s2.09,1.07,2.25,1.11c.16.04.48-.1,1.07-.48,0,0,.14-1.49-1.17-1.75-1.31-.26-1.97.54-2.15,1.13Z"/>
              <path class="cls-41" d="M61.4,69.27c.04-.57-.09-1.18-.59-1.5-.54-.35-1.24-.26-1.61.22-.03.06-.05.12-.07.17,0,0,2.09,1.07,2.25,1.11,0,0,.01,0,.02,0Z"/>
              <path class="cls-18" d="M61.28,67.04c-.93-.19-1.54.17-1.87.6.38-.25.88-.29,1.32-.06.63.34.83,1.02.79,1.68.18-.03.48-.18.93-.48,0,0,.14-1.49-1.17-1.75Z"/>
              <path class="cls-68" d="M60.36,66.27l.02,1.09s.36.38.99-.08l-.06-1.17-.94.16Z"/>
              <path class="cls-21" d="M61.3,66.11l-.94.16v.57c.05-.13.05-.16.16-.14.36.08.46-.04.47.14,0,.08,0,.44,0,.52-.02.12-.12.1-.23.14.16,0,.36-.04.61-.23l-.06-1.17Z"/>
              <path class="cls-33" d="M61.34,66.81l-.04-.7-.94.16v.52c.31.18.66.15.98.02Z"/>
              <path class="cls-1" d="M59.89,64.08l.16,2.29s.74.66,1.53-.12l-.04-2.23-1.65.06Z"/>
              <path class="cls-40" d="M60.76,64.05l-.62.02c.06.81.11,1.63.14,2.45.14.07.34.13.57.11,0-.86-.03-1.72-.09-2.58Z"/>
              <path class="cls-33" d="M61.56,65.2l-.02-1.18-1.65.06.07,1.06c.47.26,1.04.22,1.6.06Z"/>
            </g>
            <g>
              <path class="cls-83" d="M65.83,62.84c-.68-.06-1.83.24-2.05.86-.23.62.57,1.46.57,1.46.29.33.38.44.95.18.57-.26,1.18-.54,1.28-1.04.11-.5-.08-1.4-.75-1.46Z"/>
              <path class="cls-63" d="M65.53,63.83c.28.67.07,1.4-.47,1.62-.54.22-1.2-.14-1.48-.81-.28-.67-.07-1.4.47-1.62.54-.22,1.2.14,1.48.81Z"/>
              <path class="cls-83" d="M64.79,64.17c.08.19.02.4-.14.47-.16.07-.35-.04-.43-.23-.08-.19-.02-.4.14-.47.16-.07.35.04.43.23Z"/>
              <path class="cls-68" d="M63.47,63.25s2.09,1.07,2.25,1.11c.16.04.48-.1,1.07-.48,0,0,.14-1.49-1.17-1.75-1.31-.26-1.97.54-2.15,1.13Z"/>
              <path class="cls-41" d="M65.74,64.36c.04-.57-.09-1.18-.59-1.5-.54-.35-1.24-.26-1.61.22-.03.06-.05.12-.07.17,0,0,2.09,1.07,2.25,1.11,0,0,.01,0,.02,0Z"/>
              <path class="cls-18" d="M65.62,62.13c-.93-.19-1.54.17-1.87.6.38-.25.88-.29,1.32-.06.63.34.83,1.02.79,1.68.18-.03.48-.18.93-.48,0,0,.14-1.49-1.17-1.75Z"/>
              <path class="cls-68" d="M64.7,61.36l.02,1.09s.36.38.99-.08l-.06-1.17-.94.16Z"/>
              <path class="cls-21" d="M65.64,61.2l-.94.16v.57c.05-.13.05-.16.16-.14.36.08.46-.04.47.14,0,.08,0,.44,0,.52-.02.12-.12.1-.23.14.16,0,.36-.04.61-.23l-.06-1.17Z"/>
              <path class="cls-33" d="M65.68,61.9l-.04-.7-.94.16v.52c.31.18.66.15.98.02Z"/>
              <path class="cls-1" d="M64.24,59.17l.16,2.29s.74.66,1.53-.12l-.04-2.23-1.65.06Z"/>
              <path class="cls-40" d="M65.1,59.14l-.62.02c.06.81.11,1.63.14,2.45.14.07.34.13.57.11,0-.86-.03-1.72-.09-2.58Z"/>
              <path class="cls-33" d="M65.91,60.29l-.02-1.18-1.65.06.07,1.06c.47.26,1.04.22,1.6.06Z"/>
            </g>
            <path class="cls-41" d="M69.85,61.89v-2.33h-3.85c-.46-.23-.78-.37-.78-.37,0,0-1.03-.52-1.75-.12l-1.46.49h-5.96l.03,2.36c-.06.21.04.47.47.76l3.77,2.04s.7.52,1.57.29l6.99-2.27s1.21-.25.96-.85Z"/>
            <path class="cls-25" d="M62.32,59.46l-.29.1h-1.74v5.13l.05.03s.7.52,1.57.29l.41-.13v-5.42Z"/>
            <path class="cls-44" d="M63.44,56.54l-6.6,2.21s-1.55.54-.31,1.4l3.77,2.04s.7.52,1.57.29l6.99-2.27s1.4-.29.87-.99-4.54-2.56-4.54-2.56c0,0-1.03-.52-1.75-.12Z"/>
            <path class="cls-12" d="M69.74,59.22c-.52-.7-4.54-2.56-4.54-2.56,0,0-1.03-.52-1.75-.12l-6.6,2.21s-.07.03-.18.08c.89-.14,1.76-.46,2.62-.7.73-.2,1.69-.53,2.43-.2.04.02.04.08.01.11-.29.29-.79.7-.77,1.15.02.54.63.76,1.09.8.85.08,1.7-.1,2.52-.27,1.56-.33,3.23-.46,4.57.41.38-.13.96-.42.59-.91Z"/>
          </g>
          <g>
            <path class="cls-41" d="M61.77,43v15.94c.36.55,1.37.53,1.93.1v-16.04h-1.93Z"/>
            <path class="cls-33" d="M61.77,43v15.94c.13.19.33.32.57.38v-16.31h-.57Z"/>
            <path class="cls-33" d="M63.08,43v16.31c.23-.05.45-.14.62-.28v-16.04h-.62Z"/>
          </g>
          <g>
            <rect class="cls-39" x="57.31" y="35.13" width="10.52" height="8.52" rx="1.39" ry="1.39"/>
            <path class="cls-11" d="M67.84,38.4v-1.87c0-.77-.62-1.39-1.39-1.39h-7.74c-.77,0-1.39.62-1.39,1.39v1.87h10.52Z"/>
            <g>
              <g>
                <g>
                  <rect class="cls-54" x="57.64" y="5.99" width="7.27" height=".65" transform="translate(17.59 49.75) rotate(-50.72)"/>
                  <path class="cls-24" d="M62.79,4.04c.07.22.17.4.3.56l.73-.89-.5-.41-.55.67s.01.05.02.07Z"/>
                  <path class="cls-24" d="M60.84,6.34l-2.11,2.58.5.41,2.45-2.99c-.28,0-.56,0-.83,0Z"/>
                  <rect class="cls-54" x="64.28" y="3.67" width=".95" height="25.96" transform="translate(-.54 2.27) rotate(-2)"/>
                  <polygon class="cls-20" points="65.68 29.61 65.15 29.61 64.36 3.41 64.78 3.67 65.68 29.61"/>
                  <path class="cls-48" d="M64.82,4.68l-.03-1.01-.95.03.04,1.05c.31.06.64.03.95-.07Z"/>
                  <g>
                    <path class="cls-89" d="M65.23,3.41c-.01-.43-.09-.75-.4-1.05-.13-.12-.31-.17-.48-.17-.51,0-1.05.04-1.34.52-.32.51-.11,1.7.63,1.7.38,0,.76.04,1.11-.12.34-.16.48-.52.47-.87Z"/>
                    <path class="cls-53" d="M65.23,3.41c-.01-.43-.09-.75-.4-1.05-.09-.09-.22-.14-.35-.16-.5-.03-.79.19-.96.58-.13.28-.1.55-.21.83-.03.08-.14.13-.21.06-.24-.24-.21-.67-.07-.96,0,0,0,0,0,0-.32.51-.11,1.7.63,1.7.38,0,.76.04,1.11-.12.34-.16.48-.52.47-.87Z"/>
                    <path class="cls-54" d="M65.23,3.41c-.01-.39-.11-.96-.53-1.11-.14-.05-.36-.06-.5-.02-.43.13-.7.61-.71,1.04,0,.27.07.53.22.75.25.38.68.39,1.07.21.34-.16.48-.52.47-.87Z"/>
                    <path class="cls-75" d="M64.77,3.69c-.08.19-.32.25-.45.08-.11-.14-.09-.41-.05-.57.02-.09.08-.2.17-.24.16-.08.28.06.34.2.06.17.08.36,0,.53Z"/>
                    <path class="cls-52" d="M64.77,3.16c-.05-.14-.17-.28-.34-.2-.02,0-.04.02-.05.04.06,0,.12.01.16.05.15.14.15.41.08.59-.05.15-.23.21-.34.09,0,.02.02.03.03.05.13.17.37.11.45-.08.07-.17.06-.36,0-.53Z"/>
                  </g>
                  <g>
                    <path class="cls-65" d="M62.96,6.66s.69-.06.71.63c.01.69-.33,11.28-.33,11.28,0,0,.11,1.11-.53,1.12l-14.07-.27s-1.2.09-1.3-.9c-.06-.65-.05-11.6-.05-11.6,0,0,.04-.51.87-.62l14.7.35Z"/>
                    <path class="cls-73" d="M63.49,13.83c-.08,2.49-.15,4.74-.15,4.74,0,0,.11,1.11-.53,1.12l-14.07-.27s-1.2.09-1.3-.9c-.03-.27-.04-2.36-.05-4.69h16.09Z"/>
                    <g>
                      <path class="cls-90" d="M62.09,7.61l1.4-.77c.1.09.17.24.18.46.01.69-.33,11.28-.33,11.28,0,0,.08.73-.25,1.01l-1.43-.98.42-11Z"/>
                      <path class="cls-81" d="M47.4,6.93s.02-.28.36-.46l.24.71.17,11.39s-.26.26-.49.5c-.12-.13-.21-.3-.23-.54-.06-.65-.05-11.6-.05-11.6Z"/>
                    </g>
                    <g>
                      <path class="cls-80" d="M61.94,7.72s.62-.05.63.57c.01.62-.29,10.11-.29,10.11,0,0,.1.99-.48,1l-12.61-.24s-1.07.08-1.16-.8c-.06-.58-.04-10.39-.04-10.39,0,0,.03-.46.78-.55l13.18.31Z"/>
                      <path class="cls-30" d="M48.09,14.88c.54.43,1.17.78,1.8,1.07,1.42.66,2.97,1.01,4.54,1.06,1.18.04,2.37-.03,3.54-.21,1.48-.22,3.11-.63,4.41-1.46-.05,1.71-.1,3.05-.1,3.05,0,0,.1.99-.48,1l-12.61-.24s-1.07.08-1.16-.8c-.02-.22-.03-1.73-.04-3.54.03.02.06.05.09.07Z"/>
                    </g>
                    <path class="cls-7" d="M63.03,6.85c.33.07.45.34.49.53.02.1.04.23.04.43,0,.68-.31,10.82-.31,10.82,0,0,0,.71-.23.71,0,0,.11-.23.11-.93s.23-10.42.23-10.42c0,0-.02-.36-.09-.57-.02-.05-.05-.09-.09-.13,0,0-.01,0-.02,0-.05-.02-.05-.03-.04-.05-.22-.19-.55-.18-.55-.18l-14.39-.57s14.31.26,14.84.38Z"/>
                  </g>
                  <path class="cls-76" d="M48.17,17.54v-8.92c0-.96.67-.84.67-.84l12.42.29s1.09-.24.92.94l-.17,8.83s-.03,1.23-.79,1.18l-12.35-.22s-.7-.1-.7-1.27Z"/>
                  <path d="M48.17,17.54v-8.92c0-.96.67-.84.67-.84l12.42.29s1.09-.24.92.94l-.17,8.83s-.03,1.23-.79,1.18l-12.35-.22s-.7-.1-.7-1.27Z"/>
                  <path class="cls-92" d="M48.56,17v-8.43c0-.91.63-.79.63-.79l11.74.28s1.03-.23.87.89l-.16,8.35s-.03,1.16-.75,1.12l-11.68-.21s-.66-.09-.66-1.2Z"/>
                  <path class="cls-8" d="M61.66,11.2c-.15-.32-.3-.63-.49-.92-.16-.24-.33-.41-.6-.55-.51-.28-1.09-.42-1.66-.51-.62-.1-1.25-.14-1.88-.16-.62-.02-1.24-.02-1.86-.05-.83-.03-1.66-.08-2.5-.08-.78,0-1.6.04-2.36.24-.49.13-.92.41-1.23.81-.34.45-.53.97-.66,1.52,0-1.65,0-2.98,0-2.98,0,0,.03-.4.71-.49l12.09.28s.57-.05.58.5c0,.19-.03,1.27-.07,2.62-.03-.08-.07-.15-.1-.23Z"/>
                </g>
                <rect class="cls-54" x="55.69" y="27.82" width="12.47" height="10.1" rx="1.65" ry="1.65"/>
                <path class="cls-24" d="M56.47,28.07c-.47.29-.78.81-.78,1.4v6.81c0,.59.31,1.11.78,1.4v-9.6Z"/>
                <rect class="cls-5" x="58.73" y="27.82" width="1.9" height="10.1"/>
                <path class="cls-24" d="M66.51,27.82h-.84v10.1h.84c.91,0,1.65-.74,1.65-1.65v-6.81c0-.91-.74-1.65-1.65-1.65Z"/>
                <path class="cls-39" d="M68.7,28.75c0,.52-.74.95-1.65.95h-10.43c-.91,0-1.65-.42-1.65-.95v-.33c0-.52.74-.95,1.65-.95h10.43c.91,0,1.65.42,1.65.95v.33Z"/>
                <path class="cls-54" d="M68.7,28.24c0,.52-.74.95-1.65.95h-10.43c-.91,0-1.65-.42-1.65-.95v-.33c0-.52.74-.95,1.65-.95h10.43c.91,0,1.65.42,1.65.95v.33Z"/>
                <path class="cls-70" d="M68.16,28.27c0,.42-.69.76-1.54.76h-9.77c-.85,0-1.54-.34-1.54-.76v-.27c0-.42.69-.76,1.54-.76h9.77c.85,0,1.54.34,1.54.76v.27Z"/>
                <path class="cls-79" d="M68.16,28.21c0,.4-.69.72-1.54.72h-9.77c-.85,0-1.54-.32-1.54-.72v-.25c0-.4.69-.72,1.54-.72h9.77c.85,0,1.54.32,1.54.72v.25Z"/>
                <g>
                  <path class="cls-88" d="M57.53,27.67c-.08-.03-.18-.04-.28-.04s-.21.02-.28.04h-.17v.15c0,.11.2.19.46.19s.45-.09.45-.19v-.15h-.17Z"/>
                  <path class="cls-78" d="M57.7,27.67c0,.11-.2.19-.45.19s-.46-.09-.46-.19.2-.19.46-.19.45.09.45.19Z"/>
                </g>
                <g>
                  <path class="cls-88" d="M57.53,28.32c-.08-.03-.18-.04-.28-.04s-.21.02-.28.04h-.17v.15c0,.11.2.19.46.19s.45-.09.45-.19v-.15h-.17Z"/>
                  <path class="cls-78" d="M57.7,28.32c0,.11-.2.19-.45.19s-.46-.09-.46-.19.2-.19.46-.19.45.09.45.19Z"/>
                </g>
                <g>
                  <path class="cls-88" d="M58.6,27.67c-.08-.03-.18-.04-.28-.04s-.21.02-.28.04h-.17v.15c0,.11.2.19.45.19s.45-.09.45-.19v-.15h-.17Z"/>
                  <path class="cls-78" d="M58.77,27.67c0,.11-.2.19-.45.19s-.45-.09-.45-.19.2-.19.45-.19.45.09.45.19Z"/>
                </g>
                <g>
                  <path class="cls-88" d="M58.6,28.32c-.08-.03-.18-.04-.28-.04s-.21.02-.28.04h-.17v.15c0,.11.2.19.45.19s.45-.09.45-.19v-.15h-.17Z"/>
                  <path class="cls-78" d="M58.77,28.32c0,.11-.2.19-.45.19s-.45-.09-.45-.19.2-.19.45-.19.45.09.45.19Z"/>
                </g>
                <g>
                  <path class="cls-88" d="M59.71,27.67c-.08-.03-.18-.04-.28-.04s-.21.02-.28.04h-.17v.15c0,.11.2.19.45.19s.45-.09.45-.19v-.15h-.17Z"/>
                  <path class="cls-78" d="M59.88,27.67c0,.11-.2.19-.45.19s-.45-.09-.45-.19.2-.19.45-.19.45.09.45.19Z"/>
                </g>
                <g>
                  <path class="cls-88" d="M59.71,28.32c-.08-.03-.18-.04-.28-.04s-.21.02-.28.04h-.17v.15c0,.11.2.19.45.19s.45-.09.45-.19v-.15h-.17Z"/>
                  <path class="cls-78" d="M59.88,28.32c0,.11-.2.19-.45.19s-.45-.09-.45-.19.2-.19.45-.19.45.09.45.19Z"/>
                </g>
                <g>
                  <g>
                    <path class="cls-91" d="M60.24,28.32v.17c0,.1.14.17.32.17h6.24c.17,0,.32-.08.32-.17v-.17h-6.87Z"/>
                    <path class="cls-78" d="M67.1,28.32c0,.1-.14.17-.32.17h-6.24c-.17,0-.32-.08-.32-.17h0c0-.09.14-.17.32-.17h6.24c.17,0,.32.08.32.17h0Z"/>
                  </g>
                  <g>
                    <path class="cls-91" d="M60.24,27.66v.17c0,.1.14.17.32.17h6.24c.17,0,.32-.08.32-.17v-.17h-6.87Z"/>
                    <path class="cls-78" d="M67.1,27.66c0,.09-.14.17-.32.17h-6.24c-.17,0-.32-.08-.32-.17h0c0-.09.14-.17.32-.17h6.24c.17,0,.32.08.32.17h0Z"/>
                  </g>
                </g>
                <path class="cls-55" d="M57.29,15.75s0,0,0,0c-.06,0-.11-.05-.12-.11l-.21-2.96-.59,1.22s-.07.07-.11.07l-2.9-.1-.24,1.27c-.01.06-.07.1-.12.1-.06,0-.11-.04-.12-.1l-.27-1.73-.4,2.11c-.01.06-.07.1-.13.1-.06,0-.11-.05-.11-.11l-.18-2.64-.61,2.78c-.01.06-.07.1-.12.1-.06,0-.11-.04-.12-.1l-.32-2.01-.3.85c-.02.05-.06.08-.12.08-.05,0-.1-.04-.11-.09l-.46-2.01-.51,1.92c-.02.06-.08.1-.15.09-.06-.02-.1-.08-.09-.15l.64-2.39c.01-.05.07-.09.12-.09.06,0,.1.04.12.09l.48,2.07.32-.91c.02-.05.07-.09.13-.08.06,0,.1.05.11.1l.29,1.85.65-2.97c.01-.06.07-.1.13-.09.06,0,.11.05.11.11l.18,2.54.35-1.87c.01-.06.05-.1.12-.1.06,0,.11.04.12.1l.28,1.74.13-.69c.01-.06.07-.1.12-.1l2.93.1.75-1.56s.08-.08.13-.07c.05.01.09.06.1.11l.16,2.3.16-1.1c0-.06.06-.11.13-.1.06,0,.11.06.11.12v.46s.08-.31.08-.31c.01-.05.06-.09.11-.09.06,0,.1.03.12.09l.11.35.04-.2c.01-.06.06-.1.12-.1h0l2.82.02c.07,0,.12.06.12.12,0,.07-.05.12-.12.12h0l-2.73-.02-.12.57c-.01.05-.06.09-.11.1-.05,0-.1-.03-.12-.09l-.12-.39-.2.77c-.02.06-.07.1-.13.09-.04,0-.08-.03-.09-.06l-.12.79c0,.06-.06.1-.12.1Z"/>
                <path class="cls-45" d="M61.17,17.36h0l-3.51-.16c-.07,0-.12-.06-.12-.13,0-.07.06-.12.13-.12l3.51.16c.07,0,.12.06.12.13,0,.06-.06.12-.12.12Z"/>
                <path class="cls-45" d="M61.17,17.36h0l-3.51-.16c-.07,0-.12-.06-.12-.13,0-.07.06-.12.13-.12l3.51.16c.07,0,.12.06.12.13,0,.06-.06.12-.12.12Z"/>
                <path class="cls-45" d="M61.17,17.97s0,0,0,0l-3.51-.16c-.07,0-.12-.06-.12-.13,0-.07.06-.12.13-.12l3.51.16c.07,0,.12.06.12.13,0,.06-.06.12-.12.12Z"/>
              </g>
              <polygon class="cls-47" points="65.59 27.04 65.57 26.56 64.62 26.56 64.64 27.04 65.59 27.04"/>
              <g>
                <path class="cls-88" d="M56.42,27.67c-.08-.03-.18-.04-.28-.04s-.21.02-.28.04h-.17v.15c0,.11.2.19.45.19s.45-.09.45-.19v-.15h-.17Z"/>
                <path class="cls-78" d="M56.6,27.67c0,.11-.2.19-.45.19s-.45-.09-.45-.19.2-.19.45-.19.45.09.45.19Z"/>
              </g>
              <g>
                <path class="cls-88" d="M56.42,28.32c-.08-.03-.18-.04-.28-.04s-.21.02-.28.04h-.17v.15c0,.11.2.19.45.19s.45-.09.45-.19v-.15h-.17Z"/>
                <path class="cls-78" d="M56.6,28.32c0,.11-.2.19-.45.19s-.45-.09-.45-.19.2-.19.45-.19.45.09.45.19Z"/>
              </g>
            </g>
          </g>
        </g>
        <g>
          <g>
            <path class="cls-74" d="M38.03,35.6c-2.35.67-26.63,5.61-28.48,6.3-1.85.69-2.28,1.48-2.33,2.74-.05,1.26-.56,12.11-.64,14.22-.08,2.12.32,2.34.86,2.71,1.47,1.01,2.26.49,3.48.18,1.22-.31,25.12-7.69,27.31-8.36,2.2-.68,2.89-1.71,2.94-2.97.05-1.26,0-11.27.06-12.94.04-1.16-.86-2.56-3.21-1.89Z"/>
            <path class="cls-41" d="M9.31,44.93c.05-1.26.48-2.05,2.33-2.74,1.84-.69,24.54-5.02,26.89-5.69,1.31-.37,2.16-.11,2.66.4-.24-.98-1.2-1.85-3.15-1.3-2.35.67-26.63,5.61-28.48,6.3-1.85.69-2.28,1.48-2.33,2.74-.05,1.26-.56,12.11-.64,14.22-.08,2.12.32,2.34.86,2.71.52.36.95.52,1.34.57-.14-.37-.2-.94-.17-1.93.08-2.12.63-14.04.68-15.3Z"/>
            <path class="cls-2" d="M9.31,44.93c.01-.36.06-.68.16-.97-.22-.09-.44-.17-.66-.25-.4-.15-.82-.27-1.26-.38-.21.38-.3.81-.31,1.32-.05,1.26-.56,12.11-.64,14.22-.08,2.12.32,2.34.86,2.71.52.36.95.52,1.34.57-.14-.37-.2-.94-.17-1.93.08-2.12.63-14.04.68-15.3Z"/>
            <path class="cls-33" d="M12.56,54.77l-.31,6.62c6.12-1.8,20.94-6.45,25.42-7.81.08-1.2.38-5.54.38-5.54l-25.49,6.73Z"/>
            <path class="cls-19" d="M10.06,60.17c0,.2-.12.37-.25.36-.13,0-.23-.17-.22-.38,0-.2.12-.37.25-.36.13,0,.23.17.22.38Z"/>
            <path class="cls-19" d="M40.29,50.85c0,.2-.12.37-.25.36-.13,0-.23-.17-.22-.38,0-.2.12-.37.25-.36.13,0,.23.17.22.38Z"/>
          </g>
          <g>
            <g>
              <path class="cls-83" d="M62.33,93.64c-1.21-.11-3.26.43-3.67,1.54-.4,1.11,1.02,2.62,1.02,2.62.51.59.67.78,1.7.32,1.02-.46,2.1-.97,2.29-1.86.19-.89-.14-2.51-1.35-2.62Z"/>
              <path class="cls-63" d="M61.78,95.41c.5,1.2.13,2.5-.84,2.9-.96.4-2.15-.25-2.65-1.45-.5-1.2-.13-2.5.84-2.9.96-.4,2.15.25,2.65,1.45Z"/>
              <path class="cls-83" d="M60.47,96.02c.14.35.04.72-.24.84-.28.12-.62-.07-.77-.42-.14-.35-.04-.72.24-.84.28-.12.62.07.77.42Z"/>
              <path class="cls-68" d="M58.11,94.39s3.74,1.91,4.03,1.98c.29.07.86-.18,1.91-.86,0,0,.25-2.66-2.09-3.13-2.34-.47-3.52.97-3.85,2.01Z"/>
              <path class="cls-41" d="M62.17,96.37c.07-1.02-.17-2.11-1.06-2.69-.97-.62-2.22-.46-2.88.4-.05.1-.09.21-.12.31,0,0,3.74,1.91,4.03,1.98,0,0,.02,0,.03,0Z"/>
              <path class="cls-18" d="M61.96,92.37c-1.67-.33-2.74.3-3.35,1.07.68-.44,1.58-.52,2.36-.1,1.12.61,1.48,1.82,1.41,3.01.33-.06.85-.33,1.66-.86,0,0,.25-2.66-2.09-3.13Z"/>
              <path class="cls-68" d="M60.3,91.01l.04,1.94s.65.68,1.76-.14l-.11-2.09-1.69.29Z"/>
              <path class="cls-21" d="M61.99,90.72l-1.69.29.02,1.02c.07-.23.07-.29.27-.25.65.14.83-.07.83.25,0,.15.02.78,0,.93-.03.21-.21.18-.41.24.28.01.65-.08,1.09-.41l-.11-2.09Z"/>
              <path class="cls-33" d="M62.06,91.97l-.07-1.25-1.69.29.02.92c.54.32,1.16.27,1.74.04Z"/>
              <path class="cls-1" d="M59.48,87.09l.29,4.1s1.33,1.19,2.73-.22l-.07-3.99-2.95.11Z"/>
              <path class="cls-40" d="M61.03,87.03l-1.11.04c.11,1.46.2,2.91.25,4.37.25.13.61.24,1.02.2-.01-1.54-.05-3.08-.16-4.62Z"/>
              <path class="cls-33" d="M62.46,89.08l-.04-2.1-2.95.11.13,1.89c.84.46,1.85.4,2.85.11Z"/>
            </g>
            <polygon class="cls-41" points="57.95 83.78 58.18 88.94 61.42 90.61 63.81 89.53 63.73 84.6 57.95 83.78"/>
            <polygon class="cls-58" points="61.34 84.25 61.42 90.61 63.81 89.53 63.73 84.6 61.34 84.25"/>
            <path class="cls-74" d="M62.04,84.65s0,3.24.05,3.79c.05.55.2,1.02.65.92.45-.1.47-.52.47-1.17s-.1-3.49-.1-3.49l-1.07-.05Z"/>
          </g>
          <g>
            <path class="cls-83" d="M22.98,78.96c-.84-.07-2.26.3-2.54,1.07-.28.77.71,1.81.71,1.81.36.41.47.54,1.18.22.71-.32,1.46-.67,1.59-1.29.13-.62-.09-1.74-.93-1.81Z"/>
            <path class="cls-63" d="M22.6,80.19c.35.83.09,1.73-.58,2.01-.67.28-1.49-.17-1.83-1-.35-.83-.09-1.73.58-2.01.67-.28,1.49.17,1.83,1Z"/>
            <path class="cls-83" d="M21.69,80.61c.1.24.03.5-.17.58-.19.08-.43-.05-.53-.29-.1-.24-.03-.5.17-.58.19-.08.43.05.53.29Z"/>
            <path class="cls-68" d="M20.06,79.48s2.59,1.32,2.79,1.37c.2.05.6-.12,1.32-.6,0,0,.17-1.84-1.44-2.17-1.62-.32-2.44.67-2.67,1.4Z"/>
            <path class="cls-41" d="M22.87,80.85c.05-.71-.12-1.47-.73-1.86-.67-.43-1.54-.32-2,.28-.03.07-.06.14-.08.21,0,0,2.59,1.32,2.79,1.37,0,0,.02,0,.02,0Z"/>
            <path class="cls-18" d="M22.72,78.09c-1.15-.23-1.9.21-2.32.74.47-.31,1.09-.36,1.64-.07.78.42,1.03,1.26.98,2.09.23-.04.59-.23,1.15-.59,0,0,.17-1.84-1.44-2.17Z"/>
            <path class="cls-68" d="M21.58,77.14l.02,1.35s.45.47,1.22-.1l-.07-1.45-1.17.2Z"/>
            <path class="cls-21" d="M22.75,76.94l-1.17.2v.71c.06-.16.06-.2.2-.17.45.1.57-.05.58.17,0,.1.01.54,0,.65-.02.14-.15.13-.29.17.2,0,.45-.05.76-.28l-.07-1.45Z"/>
            <path class="cls-33" d="M22.79,77.81l-.05-.87-1.17.2v.64c.39.22.82.19,1.22.03Z"/>
            <path class="cls-1" d="M21,74.42l.2,2.84s.92.82,1.89-.15l-.05-2.77-2.04.08Z"/>
            <path class="cls-40" d="M22.08,74.38l-.77.03c.07,1.01.14,2.02.17,3.03.18.09.42.17.71.14,0-1.07-.04-2.13-.11-3.2Z"/>
            <path class="cls-33" d="M23.07,75.81l-.03-1.46-2.04.08.09,1.31c.58.32,1.28.28,1.98.07Z"/>
            <polygon class="cls-41" points="18.79 68.72 19.01 73.88 22.25 75.54 24.64 74.47 24.57 69.54 18.79 68.72"/>
            <polygon class="cls-58" points="22.17 69.19 22.25 75.54 24.64 74.47 24.57 69.54 22.17 69.19"/>
            <path class="cls-74" d="M22.87,69.59s0,3.24.05,3.79c.05.55.2,1.02.65.92.45-.1.47-.52.47-1.17s-.1-3.49-.1-3.49l-1.07-.05Z"/>
          </g>
          <polygon class="cls-41" points="16.44 64.71 16.52 69.19 63.98 87.2 97.32 75.77 97.54 71.88 64.21 82.87 16.44 64.71"/>
          <polygon class="cls-2" points="16.44 64.71 16.52 69.19 63.98 87.2 97.32 75.77 97.54 71.88 64.21 82.87 16.44 64.71"/>
          <polygon class="cls-41" points="63.98 87.2 97.32 75.77 97.54 71.88 64.21 82.87 63.98 87.2"/>
          <polygon class="cls-28" points="63.98 87.2 97.32 75.77 97.54 71.88 64.21 82.87 63.98 87.2"/>
          <polygon class="cls-2" points="16.44 64.71 16.52 67.1 63.98 85.11 97.32 75.77 97.54 71.88 64.21 82.87 16.44 64.71"/>
          <polygon class="cls-41" points="9.34 61.07 66.85 83.04 66.9 85.34 9.39 63.31 9.34 61.07"/>
          <polygon class="cls-41" points="9.34 61.07 66.85 83.04 98.51 72.48 41.01 50.46 9.34 61.07"/>
          <polygon class="cls-6" points="9.34 61.07 66.85 83.04 98.51 72.48 41.01 50.46 9.34 61.07"/>
          <g>
            <path class="cls-41" d="M46.89,34.25c.74-.48,1.04-.55,1.67-.71.63-.17.96.66,1.43,1.36.46.7,6.83,12.27,7.13,12.96.3.7-.03,1.03-1.43,1.87l-1.12.18.76-2.06-7.49-13.26-.94-.35Z"/>
            <path class="cls-2" d="M46.89,34.25c.74-.48,1.04-.55,1.67-.71.63-.17.96.66,1.43,1.36.46.7,6.83,12.27,7.13,12.96.3.7-.03,1.03-1.43,1.87l-1.12.18.76-2.06-7.49-13.26-.94-.35Z"/>
            <path class="cls-41" d="M55.7,47.24c-.53-.88-6.67-11.36-7.34-12.42-.66-1.06-1.19-.8-2.12-.18-.93.62-2.52,1.68-3.14,2.3-1.06,1.06-.62,1.33.18,2.7.8,1.37,5.48,9.77,6.28,11.45.8,1.68,1.86,1.28,2.48.88.62-.4,2.03-1.28,3.4-2.08,1.37-.8.8-1.77.26-2.65ZM53.91,48.93c-1.01.59-1.4.65-1.86.94-.46.29-1.24.59-1.83-.65-.59-1.24-4.82-8.66-5.4-9.67-.59-1.01-.91-1.21-.13-1.99.46-.46.98-.65,1.66-1.1.68-.46,1.08-.65,1.57.13.49.78,5.79,9.74,6.18,10.39.39.65.82,1.37-.2,1.96Z"/>
            <path class="cls-58" d="M51.06,49c-.59-1.24-4.82-8.66-5.4-9.67-.59-1.01-.91-1.21-.13-1.99.46-.46.98-.65,1.66-1.1.08-.05.15-.1.22-.14-.3-.11-.62.07-1.06.36-.68.46-1.21.65-1.66,1.1-.78.78-.46.98.13,1.99.59,1.01,4.82,8.43,5.4,9.67.57,1.2,1.32.96,1.79.68-.32-.05-.66-.29-.95-.9Z"/>
          </g>
          <g>
            <path class="cls-10" d="M14.16,43.93s10.24,19.66,10.99,20.4c.75.75,1.05.97,2.09,1.42,1.05.45,41.26,14.8,42.08,15.1.82.3,1.2,1.05,2.99.52,1.79-.52,25.56-9.34,25.56-9.34l.22-5.46s-44.55-15.32-44.77-15.55c-.22-.22-8.75-14.95-8.75-14.95l-27.8,5.31-2.62,2.54Z"/>
            <path class="cls-31" d="M88.9,64.86c-3.14-1.35-7.25-2.09-10.69-2.99-8.37-2.39-16.89-2.69-24.67-6.58-4.24-2.12-3.78-6.84-4.15-10.9-2.33-3.99-4.82-8.31-4.82-8.31l-23.26,4.44c-.65,6.84,3.2,13.6,8.31,18.07-.12.41-.32.82-.14,1.18.26.65.97.46,1.44-.09,1.49.05,3.07-.72,4.54-1.25-1.14,1.14-2.29,2.42-3.82,3.05,2,1.77,4.55,2.76,7.11,3.52,10.31,3.14,19.73,7.32,29.75,10.91,1.2.43,2.36.8,3.59,1.2,19.83-5.47,24.56-9.62,24.96-9.87-2.55-1-5.58-1.32-8.15-2.39Z"/>
            <path class="cls-23" d="M14.16,43.93s10.24,19.66,10.99,20.4c.75.75,1.05.97,2.09,1.42,1.05.45,41.26,14.8,42.08,15.1.82.3,1.2,1.05,2.99.52,1.79-.52,25.56-9.34,25.56-9.34l.22-5.46s-26.53,10.46-26.76,10.24c-.22-.22-43.72-15.47-43.72-15.47l-10.84-19.96-2.62,2.54Z"/>
            <path class="cls-23" d="M53.34,51.04c-2.93.79-24.27,8.97-25.42,9.45-.05.09-.13.17-.22.25-1.23.96-1.69,2.55-1.99,4.14.42.36.78.57,1.53.89,1.05.45,41.26,14.8,42.08,15.1.82.3,1.2,1.05,2.99.52,1.79-.52,25.56-9.34,25.56-9.34l.22-5.46s-43.78-15.06-44.75-15.54Z"/>
            <path class="cls-10" d="M22.06,39.59s2.84-2.84,11.46-3.79c0,0,4.58-1.2,9.87-1.79,0,0,.65-.75.95-.65.3.1-.1,1.05-.1,1.05,0,0,6.13,6.13,7.28,15.8,0,0,1.89,1.59.35,1.2,0,0-5.93,2.49-9.72,2.94,0,0-4.78,3.54-10.41,4.38,0,0-.5,1.05-1.05,1.05s-.05-1.54-.05-1.54c0,0-4.76-4.24-6.88-9.72-.6-1.54-2.19-6.38-2.19-7.72,0,0-1.25-1.2-.8-1.54.45-.35,1.3.35,1.3.35Z"/>
            <path class="cls-3" d="M33.83,36.31c1.83-.11,3.64-.34,5.44-.69.84-.16,1.67-.33,2.49-.58.41-.13.79-.3,1.18-.48.27-.12.54-.23.83-.26.03,0,.05.03.05.05.05.48.04.97.07,1.45.12-.25.25-.49.42-.71.02-.02.05-.04.07-.02.08.06.16.11.23.18.97.83,1.58,2.04,2.11,3.18.64,1.38,1.28,2.77,1.9,4.16.69,1.55,1.3,3.13,1.85,4.73.22.64.42,1.29.69,1.92.08.18.17.4.29.59-1.25-9.46-7.23-15.43-7.23-15.43,0,0,.4-.95.1-1.05-.3-.1-.95.65-.95.65-5.28.6-9.87,1.79-9.87,1.79-3.27.36-5.71.99-7.47,1.64.88-.29,1.79-.52,2.69-.68,1.69-.3,3.39-.35,5.1-.45Z"/>
            <path class="cls-38" d="M26.71,41.82c.14.94-.13,1.86-.13,2.8,0,1,.25,2.44.76,3.29.51.85,1.22,1.87,1.99,2.49.71.57,1.88.9,2.44,1.64.97,1.3,1.07,2.36,1.11,3.97.45-1.13.64-2.36.52-3.58,0-.06.06-.11.11-.11,1.79-.08,3.62.13,5.39-.16.48-.08.95-.19,1.42-.34.33-.14.66-.3.96-.5.41-.26.81-.55,1.23-.81.3-.3.58-.64.86-.98.85-1.06,1.76-1.87,3.2-1.78,1.07.07,2.21.41,3.04,1.13-.23-2.93-4.36-2.52-5.98-4.34-2.57-2.89.59-6.38.35-9.59-.33.6-.72,1.2-1.36,1.47-.7.31-1.53,0-2.2-.25-.95-.37-2.11-.93-3.27-1.18-2.2.44-3.64.81-3.64.81-.28.03-.56.06-.83.1-.9.44-1.65,1.11-2.35,1.82-.62.63-1.23,1.43-2.05,1.8-.76.34-1.69.27-2.49.2-.7-.06-1.42-.15-2.12-.15,1.3.3,2.83.87,3.04,2.24Z"/>
            <path class="cls-38" d="M51.13,50.67c-.55.07-.98.31-1.5.46-.88.25-1.55-.18-2.29-.61-.99-.58-2.14-.78-3.27-.46-.51.14-.97.39-1.41.67-.55.53-1.18.92-1.91,1.2-.12.05-.25.09-.37.13-.61.26-1.23.47-1.86.68-.88.3-1.78.58-2.41,1.31-.6.69-.88,1.54-.99,2.44,0,.05-.03.1-.08.11-.61.14-1.22.26-1.82.43-.59.18-1.32.37-1.72.88-.05.06-.18.03-.19-.05-.16-.93-.72-1.73-1.18-2.53-.47-.83-.79-1.72-1.15-2.6-.79-1.92-1.69-3.79-2.55-5.68-.75-1.65-1.52-3.36-2.68-4.78-.27-.33-.56-.66-.87-.94-.18-.17-.7-.43-.76-.65-.14-.5-.26-.92-.75-1.18-.21-.11-.43-.18-.64-.21-.33.39.83,1.51.83,1.51,0,1.35,1.59,6.18,2.19,7.72,2.12,5.48,6.88,9.72,6.88,9.72,0,0-.5,1.54.05,1.54s1.05-1.05,1.05-1.05c5.63-.85,10.41-4.38,10.41-4.38,3.79-.45,9.72-2.94,9.72-2.94.97.25.59-.28.16-.72-.29-.04-.59-.05-.89-.01Z"/>
            <path class="cls-86" d="M38.9,50.95s3.49-1.94,6.73.75c0,0,2.89.25,4.09,1.25,0,0-.7,4.53-4.24,6.53-3.54,1.99-6.93,1.3-8.12-1.3-1.2-2.59-1.79-5.28,1.54-7.22Z"/>
            <path class="cls-14" d="M45.63,51.7c-.22-.18-.44-.34-.66-.49-.41.15-.81.31-1.25.29-.22,0-.6-.24-.75-.28-.02,0-.04-.01-.07-.02.16.13.31.29.42.49.06.11,0,.22-.11.26-.94.39-1.76.75-2.54,1.42-.32.27-.72.71-1.13.82-.32.09-.56-.33-.74-.5-.52-.5-1.08-.92-1.75-1.08-1.13,1.68-.57,3.66.31,5.58,1.2,2.59,4.58,3.29,8.12,1.3,3.54-1.99,4.24-6.53,4.24-6.53-1.2-1-4.09-1.25-4.09-1.25Z"/>
            <path class="cls-87" d="M37.4,51.13s1.02,1.42,1.99.9c.97-.52.12-1.52.12-1.52l-2.12.62Z"/>
            <path class="cls-34" d="M40.44,51.49c.53-.35,1.01-.77,1.45-1.21-1.72-.03-2.99.68-2.99.68-.9.53-1.52,1.11-1.91,1.73,1.22-.11,2.45-.53,3.45-1.19Z"/>
            <path class="cls-56" d="M42.16,36.27c.12-.16.2-.36.25-.55.06-.24.09-.64-.17-.78-.04-.02-.07,0-.08.04-.01,0-.02.01-.03.03-.27.36-.7.62-1.17.73-2.44-1.14-5.53-1.13-7.99-.08-1.99.85-4,2.88-3.86,5.17-.22-.34-.22-.88-.44-1.21-.03-.05-.12-.06-.15,0-.24.33-.18.79-.1,1.16.03.16.1.39.21.58-.48-.15-1.17-.13-1.38.27,0,.01,0,.02,0,.03-.02.02,0,.06.03.06.25,0,.46.06.68.18.02.01.04.02.06.04-.45.46-.66,1.17-.79,1.78-.08.41-.11.82-.15,1.24-.03.3-.08.66.11.92.04.05.13.06.17,0,.12-.17.21-.35.3-.54-.08.4-.1.8,0,1.2.03.14.15.88.45.67.13-.09.18-.33.22-.56,0,.15.02.3.04.45.04.3.09.59.12.89.03.31-.05.58-.1.88,0,0,0,.01,0,.02-.02.02,0,.07.03.06.35-.06.53-.43.67-.73,0-.01.01-.03.02-.04.02.32.12.63.23.94.12.32.31.82.69.9.04,0,.1-.02.11-.06.09-.28.16-.59.18-.9.29.9.97,1.68,1.73,2.21.13.09.68.43.76.08.04-.2-.01-.41-.06-.61-.05-.23-.1-.52-.22-.72-.02-.03-.05-.03-.07,0-.15-.43-.6-.72-.86-1.09-.47-.67-.64-1.46-.62-2.27.04-1.59.72-3.17,1.63-4.45.92-1.29,2.19-2.13,3.66-2.67.74-.27,1.52-.47,2.3-.55.92-.1,1.7.19,2.57.4.19.28.45.51.7.73.31.27.62.63,1.06.64.04,0,.08-.04.09-.08.05-.27.08-.56.06-.84.12.15.26.29.45.4.05.03.1-.01.11-.06.17-.58.05-1.21-.21-1.74-.09-.18-.22-.42-.39-.61.32.09.66.1.99.07.04,0,.09-.05.08-.09-.17-.88-1.06-1.4-1.92-1.52Z"/>
            <path class="cls-15" d="M32.53,50.03s-.05-.03-.07,0c-.15-.43-.6-.72-.86-1.09-.47-.67-.64-1.46-.62-2.27.02-.84.22-1.67.53-2.46-.01-.22,0-.44,0-.66-.12.45-.23.91-.4,1.34-.21.54-.51,1.42-1.16,1.54-.75.14-.97-.86-.97-1.39,0-.62.08-1.32.31-1.94-.46.43-1.09.91-1.01.23.07-.58.68-2.14,1.44-2.17-.15-.88-.19-1.78-.02-2.64-.41.72-.64,1.51-.58,2.34-.22-.34-.22-.88-.44-1.21-.03-.05-.12-.06-.15,0-.24.33-.18.79-.1,1.16.03.16.1.39.21.58-.48-.15-1.17-.13-1.38.27,0,.01,0,.02,0,.03-.02.02,0,.06.03.06.25,0,.46.06.68.18.02.01.04.02.06.04-.45.46-.66,1.17-.79,1.78-.08.41-.11.82-.15,1.24-.03.3-.08.66.11.92.04.05.13.06.17,0,.12-.17.21-.35.3-.54-.08.4-.1.8,0,1.2.03.14.15.88.45.67.13-.09.18-.33.22-.56,0,.15.02.3.04.45.04.3.09.59.12.89.03.31-.05.58-.1.88,0,0,0,.01,0,.02-.02.02,0,.07.03.06.35-.06.53-.43.67-.73,0-.01.01-.03.02-.04.02.32.12.63.23.94.12.32.31.82.69.9.04,0,.1-.02.11-.06.09-.28.16-.59.18-.9.29.9.97,1.68,1.73,2.21.13.09.68.43.76.08.04-.2-.01-.41-.06-.61-.05-.23-.1-.52-.22-.72Z"/>
            <path class="cls-15" d="M43.85,37.59c-.57,0-1.15-.35-1.68-.63.42.62.94,1.55.62,2.12-.24.44-.72,0-1.12-.48.21.5.37,1.06.03,1.22-.04.02-.09.04-.13.05.09.09.18.17.27.25.31.27.62.63,1.06.64.04,0,.08-.04.09-.08.05-.27.08-.56.06-.84.12.15.26.29.45.4.05.03.1-.01.11-.06.17-.58.05-1.21-.21-1.74-.09-.18-.22-.42-.39-.61.32.09.66.1.99.07.04,0,.09-.05.08-.09-.02-.08-.04-.16-.07-.23-.05.02-.1.03-.17.03Z"/>
            <path class="cls-66" d="M40.99,38.55s.95.1,1.45,1.74c.5,1.64.5,1.4,1.15,2.04.65.65,1.79,2.24.25,5.43-1.54,3.19-6.93,5.33-10.66,2.64-3.74-2.69-2.64-5.38-1.3-7.67,1.35-2.29,9.12-4.19,9.12-4.19Z"/>
            <path class="cls-27" d="M41.23,49.08c.15-.22.37-.38.61-.49.17-.08.35-.16.52-.13-.33-.38-.93.18-1.14.62Z"/>
            <path class="cls-27" d="M42.4,47.45c-.18,0-.36.02-.53.09-.3.11-.58.26-.8.49-.33.33-.58.75-.65,1.21.27-.4.55-.81.96-1.07.26-.17.55-.31.85-.38.26-.06.48-.02.74-.04-.06-.21-.39-.3-.57-.3Z"/>
            <path class="cls-27" d="M32.12,47.18c-.34-.08-.38.33-.37.56,0,.04-.04.06-.07.05-.06.59.12,1.24.65,1.49-.17-.27-.36-.57-.33-.9.01-.13.03-.26.12-.37.09-.11.28-.22.31-.36.06-.2-.12-.43-.32-.48Z"/>
            <path class="cls-37" d="M43.58,42.33c-.65-.65-.65-.4-1.15-2.04-.5-1.64-1.45-1.74-1.45-1.74,0,0-7.77,1.89-9.12,4.19-1.35,2.29-2.44,4.98,1.3,7.67,3.74,2.69,9.12.55,10.66-2.64,1.55-3.19.4-4.78-.25-5.43ZM32.14,48.63c.08.27.23.49.37.73.02.04-.02.09-.06.08-.9-.26-1.05-1.48-.73-2.24.01-.02.03-.03.05-.03.04-.05.09-.09.17-.11.2-.05.4.06.52.22.11.14.16.37.03.51-.23.25-.45.44-.35.83ZM43.55,47.53c-.63,1.22-1.67,2.31-2.95,2.86-1.18.51-2.85.62-3.94-.18-.16-.12-.31-.25-.46-.39-.82-.66-1.29-1.66-1.53-2.68-.17-.69-.29-1.43-.19-2.14.06-.38.16-.76.36-1.09.19-.31.41-.6.62-.89.03-.04.08-.03.1.01.03.11.03.22.05.33.72-.41,1.11-1.24,1.62-1.87.02-.03.09-.01.09.02.02.12.03,1.08.21,1,.25-.11.5-.47.67-.71.16-.39.35-.78.5-1.17.01-.03.05-.06.08-.03.46.33.78.78,1.34.97.18.06.42.11.47-.14.02-.12.03-.23.02-.35-.01-.2-.05-.4-.08-.6,0-.03.01-.07.05-.07.56.03,1.46.15,1.73.73.19.42.27.88.56,1.26.16.21.31.4.43.61.18.24.37.48.51.74.66,1.18.34,2.64-.26,3.78Z"/>
            <path class="cls-56" d="M42.35,37.78c-.08-.18-.17-.38-.28-.57-.53-1.17-1.91-1.19-6.28-.46-4.76.8-6.28,4.78-6.1,8.79.17,4.01,2.54,4.48,2.54,4.48,1.05,1.74,2.72,1.27,2.72,1.27-1.02-.9-1.37-1.84-1.37-1.84-.95.7-2.24-.5-2.09-1.72.09-.76.57-.86.92-.83.08.11.16.21.23.3.44.53,1.29,1.27,2,1.4.07.01.11-.03.13-.08.05-.03.08-.09.03-.14-.65-.73-.87-1.83-1.12-2.75-.15-.55-.21-1.09-.25-1.62.54-.27.96-.85,1.3-1.31.02-.02.03-.05.05-.07-.04.18-.09.37-.14.55-.01.04-.02.08-.04.11,0,.02,0,.03,0,.05,0,0,0,0,0,.01-.03.08.06.17.14.11.51-.36.83-.8,1.05-1.29,0,.02,0,.04,0,.06,0,.02,0,.04,0,.07,0,.04.03.06.07.07.03.01.06.02.09,0,.56-.22.9-.77,1.24-1.24.17-.24.34-.49.48-.76-.02.27-.05.55.04.81,0,0,0,.01.01.02,0,.06.07.11.14.09.41-.16.61-.69.74-1.08.02-.07.05-.15.07-.23.38.53.99.95,1.52,1.17.03.01.07.01.1,0,.05.02.12,0,.13-.07.06-.43-.08-.87-.2-1.29.04.02.08.04.12.07.49.27,1.08.48,1.65.47.03.07.12.06.16,0,.05.05.16.03.17-.05.01-.16,0-.31-.04-.46.17.05.38.1.51-.01.07.02.15-.03.15-.12-.02-.68-.29-1.28-.56-1.9Z"/>
            <path class="cls-15" d="M42.8,39.07c-.24.44-.72,0-1.12-.48.21.5.37,1.06.03,1.22-.77.38-1.43-.43-1.83-1.1.07.55.18,1.1.15,1.66,0,.07-.07.14-.14.11-.77-.3-.79-1.15-.92-1.88-.23.7-.4,1.42-.85,2.01-.06.08-.21.07-.21-.06,0-.62.24-1.19.3-1.8-.55,1.01-1.02,2.07-1.9,2.85-.07.06-.2.02-.19-.08.02-.38.1-.74.18-1.1-.35.8-.58,1.68-1.32,2.21-.07.05-.17-.02-.17-.1,0-.62.19-1.21.28-1.81-.17.33-.31.69-.47,1.02-.21.42-.45,1-.86,1.28-.4.27-.59.07-.68-.26-.1.8-.18,1.61-.21,2.4-.02.34.05.92-.35,1.07-.47.17-.72-.73-.8-1-.17-.57-.2-1.13-.17-1.69-.12.45-.23.91-.4,1.34-.21.54-.51,1.42-1.16,1.54-.07.01-.13.01-.19,0,.45,3.2,2.46,3.6,2.46,3.6,1.05,1.74,2.72,1.27,2.72,1.27-1.02-.9-1.37-1.84-1.37-1.84-.95.7-2.24-.5-2.09-1.72.09-.76.57-.86.92-.83.08.11.16.21.23.3.44.53,1.29,1.27,2,1.4.07.01.11-.03.13-.08.05-.03.08-.09.03-.14-.65-.73-.87-1.83-1.12-2.75-.15-.55-.21-1.09-.25-1.62.54-.27.96-.85,1.3-1.31.02-.02.03-.05.05-.07-.04.18-.09.37-.14.55-.01.04-.02.08-.04.11,0,.02,0,.03,0,.05,0,0,0,0,0,.01-.03.08.06.17.14.11.51-.36.83-.8,1.05-1.29,0,.02,0,.04,0,.06,0,.02,0,.04,0,.07,0,.04.03.06.07.07.03.01.06.02.09,0,.56-.22.9-.77,1.24-1.24.17-.24.34-.49.48-.76-.02.27-.05.55.04.81,0,0,0,.01.01.02,0,.06.07.11.14.09.41-.16.61-.69.74-1.08.02-.07.05-.15.07-.23.38.53.99.95,1.52,1.17.03.01.07.01.1,0,.05.02.12,0,.13-.07.06-.43-.08-.87-.2-1.29.04.02.08.04.12.07.49.27,1.08.48,1.65.47.03.07.12.06.16,0,.05.05.16.03.17-.05.01-.16,0-.31-.04-.46.17.05.38.1.51-.01.07.02.15-.03.15-.12,0-.22-.04-.44-.1-.64,0,.01,0,.02-.02.04Z"/>
            <path class="cls-87" d="M33.89,48.95c-.45.7-1.3.75-1.9.21-.01-.01-.03,0-.02.02.25.33.62.51,1.04.51.41,0,.86-.31.9-.73,0,0,0-.01-.01,0Z"/>
            <path class="cls-87" d="M33.32,48.13c-.18-.28-.53-.49-.87-.32-.14.07-.23.21-.28.36-.08.22-.01.39.08.59,0,0,.02,0,.02,0-.06-.28-.01-.61.21-.8.14-.12.3-.13.45-.07-.01.06-.01.13-.01.19,0,.11-.03.22-.08.32,0,.02.02.04.03.02.08-.12.18-.31.17-.48.09.06.18.13.25.21.01.01.03,0,.02-.01Z"/>
            <path class="cls-87" d="M42.38,44.12c-.16-.21-.53-.28-.76-.15,0,0-.01,0-.02.01-.04-.06-.09-.1-.14-.15-.07-.07-.16-.13-.24-.18-.01,0-.03.01-.02.02.05.07.11.14.16.21.05.06.08.12.13.18-.22.19-.35.5-.43.77,0,.02.02.02.03,0,.1-.23.22-.47.42-.63.27-.22.75-.2.82.2.09.52-.36.97-.72,1.25-.03.02,0,.08.03.06.54-.24,1.2-1.01.74-1.61Z"/>
            <path class="cls-67" d="M38.09,41.84c-.26-.32-.82-.17-1.1.04-.28.21-.53.67-.33,1,.03.05.09.03.11-.01.15-.25.19-.5.43-.69.11-.09.24-.13.38-.14.14-.01.26.06.4.04.11-.01.19-.14.11-.24Z"/>
            <path class="cls-67" d="M42.17,40.5c-.22-.17-.55-.18-.78-.02-.22.16-.3.45-.27.71,0,.08.11.12.16.05.11-.14.2-.4.36-.48.17-.08.53.2.58-.1.01-.06-.01-.13-.06-.16Z"/>
            <path class="cls-59" d="M38.58,43.25s-.05-.02-.05,0c-.04.32-.15.57-.5.59-.32.01-.65-.12-.88-.33-.02-.02-.05.01-.03.03.24.3.63.52,1.02.48.41-.04.57-.42.44-.78Z"/>
            <path class="cls-59" d="M42.84,41.76s-.05-.04-.06,0c-.04.29-.23.62-.56.59-.27-.02-.45-.21-.63-.39-.01-.01-.03,0-.03.02.05.31.38.59.7.59.46,0,.61-.41.58-.81Z"/>
            <path class="cls-10" d="M32.42,61.27s2.64-1.69,3.59-2.44c0,0,.15-.3.5-.8.35-.5,7.08-10.02,17.19-6.53,0,0,6.03,1.84,9.32,4.93,0,0,9.32.6,18.54,5.53,0,0,3.64.05,8.62,2.29,4.98,2.24,6.03,2.99,6.03,2.99,0,0-6.88,3.74-11.56,5.28-4.68,1.54-8.97,3.19-10.66,3.64-1.69.45-3.04.45-5.08-.85-2.04-1.3-8.87-3.09-11.11-4.19-2.24-1.1-6.98-2.89-9.37-3.69-2.39-.8-5.28-2.04-6.43-2.24-1.15-.2-6.83-2.04-9.57-3.94Z"/>
            <path class="cls-69" d="M41.07,58.36c.51-.73,1.08-1.39,1.79-1.94,1.61-1.25,3.59-2.24,5.52-2.88,2.08-.7,4.35-1.04,6.55-.87.91.07,1.8.2,2.69.36-2.14-.99-3.91-1.53-3.91-1.53-10.12-3.49-16.84,6.03-17.19,6.53-.35.5-.5.8-.5.8-.95.75-3.59,2.44-3.59,2.44.72.5,1.65.99,2.64,1.45,1.39-1.12,3.01-1.91,4.72-2.38.47-.63.83-1.32,1.29-1.98Z"/>
            <path class="cls-4" d="M59.88,55.79c2.07,1.3,3.87,3.06,5.59,4.78,1.16,1.16,2.49,2.56,3.06,4.17-.57-3.25-2.64-6.07-5.17-8.28-.22-.02-.34-.03-.34-.03-3.29-3.09-9.32-4.93-9.32-4.93-2.4-.83-4.61-.92-6.59-.58,1.72.15,3.42.61,5.05,1.21,2.65.98,5.32,2.15,7.72,3.66Z"/>
            <path class="cls-4" d="M86.75,64.91c-1.33-.66-2.75-1.14-4.2-1.44.25.55.4,1.12.42,1.74,0,.12-.15.14-.21.06-.79-1.05-1.86-1.92-2.92-2.68-1.29-.93-2.66-1.75-4.11-2.4-2.23-1.01-5.55-2.14-7.77-.56,3.98.09,7.95,1.64,11.22,3.86,1.93,1.31,4.1,3.07,5.31,5.23-.29-1.3-.49-2.62-.94-3.87-.03-.09.06-.16.14-.14,2.29.47,4.53,1.33,6.31,2.85-.76-1.18-2-2.02-3.24-2.64Z"/>
            <path class="cls-38" d="M90.17,64.26c-4.98-2.24-8.62-2.29-8.62-2.29-9.22-4.93-18.54-5.53-18.54-5.53-.75-.7-1.63-1.34-2.56-1.9,1.19,1.06,2.36,2.13,3.58,3.16,1.86,1.56,3.69,3.45,4.48,5.81-.19-1.66-1.55-3.16-2.21-4.64-.03-.07,0-.14.07-.17,2.79-.87,5.93.47,8.53,1.41,1.45.52,3.13.94,4.41,1.84,1.16.82,1.86,2.11,3,2.95.03-.36-.09-.67-.05-1.02.02-.19.12-.29.3-.37.77-.32,1.76.01,2.47.31.97.41,1.87.94,2.8,1.41.72.36,1.51.52,2.25.83.49.2.79.46.39.97-.52.66-1.38,1.07-2.12,1.43-2.14,1.04-4.38,1.96-6.63,2.72-1.67.57-3.37,1.06-5.11,1.43-1.56.33-3.16.66-4.76.46-3.17-.4-5.99-1.98-8.94-3.08-.1-.04-.11-.18,0-.22,1.3-.43,2.7-.75,3.88-1.48.91-.57,1.43-1.33,1.6-2.24-.19.28-.46.54-.83.74-1.27.7-2.84.81-4.26.83-4.16.06-8.48-.68-12.34-2.23-2.93-1.18-5.82-2.73-8.29-4.73-1.76-1.43-3.34-3.36-3.46-5.63-1.65,1.49-2.6,2.85-2.73,3.03-.35.5-.5.8-.5.8-.95.75-3.59,2.44-3.59,2.44,2.74,1.89,8.42,3.74,9.57,3.94,1.15.2,4.04,1.44,6.43,2.24,2.39.8,7.13,2.59,9.37,3.69,2.24,1.1,9.07,2.89,11.11,4.19,2.04,1.3,3.39,1.3,5.08.85,1.69-.45,5.98-2.09,10.66-3.64,4.68-1.54,11.56-5.28,11.56-5.28,0,0-1.05-.75-6.03-2.99Z"/>
          </g>
          <path class="cls-58" d="M12.67,61.22c0,.09-.15.16-.34.16s-.34-.07-.34-.16.15-.16.34-.16.34.07.34.16Z"/>
          <path class="cls-41" d="M7.1,48.11s1.51.4,2.02.6c.19.07,1.12-.22,1.57-.22s.41.45.37.93c-.04.49-.15,5.19-.22,5.83-.07.63-.34.6-1.05.75-.71.15-.93.37-1.87.04-.93-.34-1.68-.19-1.61-.93.07-.75.07-5.31.15-6.13.07-.82.64-.86.64-.86Z"/>
          <path class="cls-43" d="M10.69,48.49c-.45,0-1.38.3-1.57.22-.06-.02-.13-.05-.21-.07-.02,2.37-.12,5.36-.29,7.57.42.03.68-.11,1.16-.21.71-.15.97-.11,1.05-.75.08-.64.19-5.34.22-5.83.04-.49.07-.93-.37-.93Z"/>
          <path class="cls-12" d="M8.4,55.77c-.72-.05-1.4-.33-2.08-.56,0,.62.73.51,1.61.83.93.34,1.16.11,1.87-.04.67-.14.94-.12,1.03-.65-.8.22-1.58.49-2.43.43Z"/>
          <path class="cls-6" d="M8.6,49.01c.7.25.8.2,2.02-.16.16-.05.3-.1.43-.1-.05-.16-.15-.26-.36-.26-.45,0-1.38.3-1.57.22-.51-.2-2.02-.6-2.02-.6,0,0-.37.03-.55.48.25-.23,1.37.17,2.05.42Z"/>
          <g>
            <g>
              <path class="cls-41" d="M14.57,41.89c.83-.54,1.17-.61,1.88-.8.71-.19,1.08.75,1.61,1.53.52.78,7.7,13.83,8.04,14.61.34.78-.03,1.16-1.62,2.11l-1.26.21.86-2.32-8.45-14.95-1.06-.39Z"/>
              <path class="cls-2" d="M14.57,41.89c.83-.54,1.17-.61,1.88-.8.71-.19,1.08.75,1.61,1.53.52.78,7.7,13.83,8.04,14.61.34.78-.03,1.16-1.62,2.11l-1.26.21.86-2.32-8.45-14.95-1.06-.39Z"/>
              <path class="cls-41" d="M24.49,56.53c-.6-1-7.52-12.81-8.27-14-.75-1.2-1.35-.9-2.39-.2-1.05.7-2.84,1.89-3.54,2.59-1.2,1.2-.7,1.49.2,3.04.9,1.54,6.18,11.01,7.08,12.91.9,1.89,2.09,1.44,2.79,1,.7-.45,2.29-1.44,3.84-2.34,1.54-.9.9-1.99.3-2.99ZM22.48,58.44c-1.14.66-1.58.73-2.1,1.06-.51.33-1.4.66-2.06-.73-.66-1.4-5.43-9.76-6.09-10.9-.66-1.14-1.03-1.36-.15-2.24.52-.52,1.1-.73,1.88-1.24.77-.51,1.21-.73,1.76.15.55.88,6.53,10.97,6.97,11.71.44.73.92,1.54-.22,2.2Z"/>
              <path class="cls-58" d="M19.27,58.52c-.66-1.4-5.43-9.76-6.09-10.9-.66-1.14-1.03-1.36-.15-2.24.52-.52,1.1-.73,1.88-1.24.09-.06.17-.11.25-.16-.34-.13-.7.08-1.2.41-.77.51-1.36.73-1.88,1.24-.88.88-.51,1.1.15,2.24.66,1.14,5.43,9.5,6.09,10.9.64,1.36,1.49,1.08,2.01.76-.36-.06-.74-.33-1.07-1.01Z"/>
            </g>
            <g>
              <path class="cls-58" d="M19.72,59.26c0-1.28-.41-2.03-1.28-2.03s-1.42.45-1.42,1.09c0,1.58-.05,6.48-.05,7.3s.55,1.81,1.56,1.88c1.01.08,1.28-.64,1.28-2.22s-.09-4.74-.09-6.02Z"/>
              <path class="cls-62" d="M19.21,59.25c0-1.27-.34-2.02-1.05-2.02s-1.16.45-1.16,1.08c0,1.57-.04,6.43-.04,7.25s.45,1.79,1.27,1.87c.82.08,1.05-.63,1.05-2.2s-.07-4.71-.07-5.98Z"/>
              <path class="cls-58" d="M18.35,65.7c0,.3-.14.54-.32.54s-.32-.24-.32-.54.14-.54.32-.54.32.24.32.54Z"/>
              <path class="cls-58" d="M18.37,58.8c0,.3-.14.54-.32.54s-.32-.24-.32-.54.14-.54.32-.54.32.24.32.54Z"/>
            </g>
          </g>
          <g>
            <path class="cls-74" d="M60.97,73.13c-2.14-.8-14.85-5.88-15.9-6.28-.35-.13-.66-.16-.93-.09-.53.12-2.24.93-2.29,1.53h0c.26-.6.89-.91,1.72-.59,1.05.4,13.75,5.48,15.9,6.28,2.14.8,2.39,1.3,2.39,2.54v7.67c0,1.88-1.09,2.01-1.94,1.73.85.44,3.44-.35,3.44-2.58v-7.67c0-1.25-.25-1.74-2.39-2.54Z"/>
            <g class="cls-42">
              <path class="cls-41" d="M61.46,75.07c.53-.25,1.06-.5,1.59-.73-.31-.43-.91-.78-2.09-1.22-2.14-.8-14.85-5.88-15.9-6.28-.35-.13-.66-.16-.93-.09-.53.12-2.24.93-2.29,1.53h0c.26-.6.89-.91,1.72-.59,1.05.4,13.75,5.48,15.9,6.28,1.06.4,1.66.72,1.99,1.1Z"/>
            </g>
            <path class="cls-41" d="M59.47,73.98c-2.14-.8-14.85-5.88-15.9-6.28-1.05-.4-1.77.19-1.84,1.1-.15,1.94,0,6.93,0,7.87s-.1,1.94,1.1,2.54c1.2.6,15.8,6.08,16.64,6.53.85.45,2.39.7,2.39-1.54v-7.67c0-1.25-.25-1.74-2.39-2.54ZM60.42,82.94c0,.2-.02.37-.05.51-.22.98-1.09.82-1.6.55-.58-.31-14.28-5.41-15.11-5.82-.82-.41-.76-1.1-.76-1.75s-.05-5.03.05-6.37c.04-.54.43-.92,1.01-.83.08.01.17.04.26.07.72.28,13.12,5.1,14.59,5.65,1.48.55,1.65.89,1.65,1.75s-.05,4.69-.05,6.23Z"/>
            <path class="cls-58" d="M44.66,77.44c-.82-.41-.76-1.1-.76-1.75s-.05-5.03.05-6.37c0-.03,0-.05.01-.08-.58-.1-.97.28-1.01.83-.1,1.34-.05,5.72-.05,6.37s-.07,1.34.76,1.75c.82.41,14.52,5.51,15.11,5.82.51.27,1.38.43,1.6-.55-.22-.03-.43-.11-.6-.2-.58-.31-14.28-5.41-15.11-5.82Z"/>
            <path class="cls-62" d="M47.46,70.56v9.11l8.94,3.4,1.17-.68v-7.91l-10.11-3.92ZM54.19,80.48c-.32-.1-4.19-1.62-4.81-1.87-.25-.1-.64-.26-.75-.65-.16-.58.12-1.38.87-1.1,1.72.67,4.26,1.62,5.06,1.97.3.13.65.37.77.72.21.58-.05,1.28-1.15.93ZM54.59,76.72c-.32-.1-4.19-1.62-4.81-1.87-.25-.1-.64-.26-.75-.65-.16-.58.12-1.39.87-1.1,1.72.67,4.26,1.62,5.06,1.97.3.13.65.37.77.72.21.58-.05,1.28-1.15.93Z"/>
            <polygon class="cls-58" points="56.29 73.98 56.4 83.07 57.56 82.39 57.56 74.48 56.29 73.98"/>
            <path class="cls-58" d="M55.74,75.79s-.01-.02-.02-.04c-.15.27-.5.41-1.13.21-.32-.1-3.6-1.33-4.22-1.58-.25-.1-.64-.26-.75-.65-.06-.22-.06-.48.02-.69-.54-.02-.74.66-.6,1.16.11.39.5.55.75.65.62.25,4.49,1.77,4.81,1.87,1.1.35,1.36-.34,1.15-.93Z"/>
            <path class="cls-58" d="M55.34,79.55s-.01-.02-.02-.03c-.15.27-.5.41-1.13.21-.32-.1-3.6-1.33-4.22-1.58-.25-.1-.64-.26-.75-.65-.06-.22-.06-.48.01-.69-.54-.02-.74.66-.6,1.15.11.39.5.55.75.65.62.25,4.48,1.77,4.81,1.87,1.1.35,1.36-.34,1.15-.93Z"/>
            <path class="cls-32" d="M56.32,74.35c.09-.05.95.37,1.25.26v-.13l-10.11-3.92v.46c1.41.39,8.75,3.19,8.86,3.33Z"/>
          </g>
          <g>
            <g>
              <path class="cls-83" d="M93.23,82.68c-1.21-.11-3.26.43-3.67,1.54-.4,1.11,1.02,2.62,1.02,2.62.51.59.67.78,1.7.32,1.02-.46,2.1-.97,2.29-1.86.19-.89-.13-2.51-1.35-2.62Z"/>
              <path class="cls-63" d="M92.68,84.45c.5,1.2.13,2.5-.84,2.9-.96.4-2.15-.25-2.65-1.45-.5-1.2-.12-2.5.84-2.9.96-.4,2.15.25,2.65,1.45Z"/>
              <path class="cls-83" d="M91.36,85.06c.15.35.04.72-.24.84-.28.12-.62-.07-.77-.42-.14-.35-.04-.72.24-.84.28-.12.62.07.77.42Z"/>
              <path class="cls-68" d="M89,83.42s3.74,1.91,4.03,1.98c.29.07.86-.18,1.91-.86,0,0,.25-2.66-2.08-3.13-2.34-.47-3.52.97-3.85,2.01Z"/>
              <path class="cls-41" d="M93.06,85.4c.07-1.02-.17-2.11-1.06-2.69-.97-.62-2.22-.46-2.88.4-.05.11-.09.21-.12.31,0,0,3.74,1.91,4.03,1.98,0,0,.02,0,.03,0Z"/>
              <path class="cls-18" d="M92.85,81.41c-1.67-.33-2.74.3-3.35,1.07.68-.44,1.58-.52,2.36-.1,1.12.61,1.48,1.82,1.41,3.01.33-.06.85-.33,1.66-.86,0,0,.25-2.66-2.08-3.13Z"/>
              <path class="cls-68" d="M91.2,80.04l.04,1.94s.65.68,1.76-.14l-.11-2.09-1.69.29Z"/>
              <path class="cls-21" d="M92.89,79.76l-1.69.29.02,1.02c.07-.23.07-.29.27-.25.65.14.83-.08.83.25,0,.15.02.78,0,.93-.03.21-.21.18-.41.24.28.01.65-.08,1.09-.41l-.11-2.09Z"/>
              <path class="cls-33" d="M92.95,81.01l-.06-1.25-1.69.29.02.92c.54.32,1.16.27,1.74.04Z"/>
              <path class="cls-1" d="M90.37,76.13l.29,4.1s1.33,1.19,2.73-.22l-.07-3.99-2.95.11Z"/>
              <path class="cls-40" d="M91.92,76.07l-1.11.04c.11,1.46.2,2.91.25,4.37.25.13.61.24,1.02.2-.01-1.54-.05-3.08-.16-4.62Z"/>
              <path class="cls-33" d="M93.36,78.12l-.04-2.1-2.95.11.13,1.89c.84.46,1.85.4,2.85.11Z"/>
            </g>
            <polygon class="cls-41" points="88.85 72.82 89.07 77.97 92.31 79.64 94.7 78.57 94.63 73.64 88.85 72.82"/>
            <polygon class="cls-58" points="92.23 73.29 92.31 79.64 94.7 78.57 94.63 73.64 92.23 73.29"/>
            <path class="cls-74" d="M92.93,73.69s0,3.24.05,3.79c.05.55.2,1.02.65.92.45-.1.47-.52.47-1.17s-.1-3.49-.1-3.49l-1.07-.05Z"/>
          </g>
          <path class="cls-74" d="M97.02,61.16c-1.72.56-27.8,9.75-29.15,10.31-1.34.56-1.64,1.16-1.64,2.09s-.07,8.97-.07,10.54.3,1.72.71,1.98c1.11.71,1.68.3,2.58.04.9-.26,25.86-8.82,27.47-9.38,1.61-.56,2.09-1.35,2.09-2.28s.45-10.76.45-12c0-.86-.71-1.87-2.43-1.31ZM72.25,75.86c-.91.81-2.15.91-2.77.22-.62-.69-.38-1.91.53-2.73.91-.81,2.15-.91,2.77-.22.62.69.38,1.91-.53,2.73ZM92.56,69.74c-1.4.45-14.5,4.73-15.6,5.08-1.1.35-1.59-.15-1-1.45.6-1.3.85-1.64,1.1-2.19.25-.55.4-1.1,1.45-1.54,1.04-.45,9.67-3.49,11.06-3.99,1.4-.5,1.49-.55,2.39.5s1.2,1.4,1.59,1.84c.4.45.4,1.3-1,1.74ZM97.33,66.55c-.84.75-1.99.84-2.56.2-.57-.64-.35-1.77.49-2.52.84-.75,1.99-.84,2.56-.2.57.64.35,1.77-.49,2.52Z"/>
          <path class="cls-41" d="M67.77,73.71c0-.93.3-1.53,1.64-2.09,1.35-.56,26.27-9.26,27.99-9.82.96-.31,1.6-.14,1.98.22-.2-.72-.94-1.34-2.37-.87-1.72.56-27.8,9.75-29.15,10.31-1.34.56-1.64,1.16-1.64,2.09s-.07,8.97-.07,10.54.3,1.72.71,1.98c.39.25.72.36,1.01.39-.11-.27-.18-.69-.18-1.42,0-1.57.07-10.4.07-11.34Z"/>
          <path class="cls-2" d="M67.77,73.71c0-.27.03-.5.09-.72-.17-.06-.33-.11-.5-.17-.3-.1-.61-.17-.94-.24-.15.29-.2.61-.2.98,0,.93-.07,8.97-.07,10.54s.3,1.72.71,1.98c.39.25.72.36,1.01.39-.11-.27-.18-.69-.18-1.42,0-1.57.07-10.4.07-11.34Z"/>
          <path class="cls-33" d="M78.94,77.51c-.89.3-1.81.54-2.68.87-.69.27-1.36.57-2.07.76-.57,1.03-1.16,2.05-1.75,3.07-.69,1.18-1.33,2.41-2.05,3.58,4.48-1.5,22.8-7.79,26.08-8.92-.31-.51-.63-1.02-.97-1.52-.61-.91-1.21-1.84-1.85-2.73-2.95,1.03-5.95,1.94-8.9,2.94-1.94.65-3.89,1.28-5.82,1.93Z"/>
          <path class="cls-58" d="M71.9,72.69s.08.07.11.11c.55.62.3,1.74-.56,2.5-.68.6-1.53.8-2.13.56.04.08.09.15.16.22.62.69,1.86.59,2.77-.22.91-.81,1.15-2.04.53-2.73-.23-.25-.54-.4-.88-.45Z"/>
          <path class="cls-58" d="M97.82,64.03c-.21-.23-.5-.37-.82-.41.04.03.07.06.1.1.51.57.28,1.61-.51,2.32-.63.56-1.41.74-1.97.52.04.07.09.14.14.2.57.64,1.72.55,2.56-.2.84-.75,1.06-1.88.49-2.52Z"/>
          <path class="cls-58" d="M91.96,66.15c-.76-.88-.95-.98-1.82-.7.19.1.38.3.67.64.76.89,1.02,1.19,1.35,1.57.34.38.34,1.1-.85,1.48-1.18.38-13.46,4.1-14.39,4.4-.48.15-.83.11-.98-.12-.56,1.26-.06,1.74,1.02,1.4,1.1-.35,14.2-4.63,15.6-5.08,1.4-.45,1.4-1.3,1-1.74-.4-.45-.7-.8-1.59-1.84Z"/>
          <polygon class="cls-17" points="80.96 67.94 89.32 65.12 89.16 77.01 80.54 80.18 80.96 67.94"/>
          <polygon class="cls-61" points="81.21 68.07 89.32 65.34 89.17 76.85 80.8 79.92 81.21 68.07"/>
          <path class="cls-64" d="M85.28,67.32c0,.15-.08.27-.17.27s-.17-.12-.17-.27.08-.27.17-.27.17.12.17.27Z"/>
          <path class="cls-19" d="M74.69,79.92c0,.15-.08.27-.17.27s-.17-.12-.17-.27.08-.27.17-.27.17.12.17.27Z"/>
          <path class="cls-19" d="M68.75,84.96c0,.15-.08.27-.17.27s-.17-.12-.17-.27.08-.27.17-.27.17.12.17.27Z"/>
          <path class="cls-19" d="M98.35,74.8c0,.15-.08.27-.17.27s-.17-.12-.17-.27.08-.27.17-.27.17.12.17.27Z"/>
          <path class="cls-19" d="M93.49,73.38c0,.15-.08.27-.17.27s-.17-.12-.17-.27.08-.27.17-.27.17.12.17.27Z"/>
          <path class="cls-36" d="M88.31,69.29l-.02-2.19v-.1s-.1.03-.1.03l-2.96,1.02-1.48.51-1.48.53h0c-.02.4-.04.8-.06,1.19,0,0,0,0,0,0h0s0,.01,0,.01c-.02.32-.03.63-.05.95-.02.4-.04.8-.05,1.19-.01,0-.02,0-.02,0h0s0,.01.01.01c-.01.31-.03.63-.04.94-.03.72-.06,1.44-.08,2.16-.02.72-.04,1.44-.06,2.16v.07s.07-.02.07-.02l1.56-.48,1.57-.47,1.57-.46,1.57-.45h.03v-2.23s0-2.19,0-2.19v-2.19ZM87.35,75.32c0-.17,0-.35,0-.56.07-.02.13-.05.19-.07.11-.04.21-.08.29-.12.16-.07.25-.11.25-.11h0s-.1,0-.26.05c-.08.02-.18.05-.3.08-.05.01-.1.03-.15.04,0-.17,0-.35,0-.55,0-.08,0-.17,0-.25.08-.03.16-.06.23-.09.11-.04.21-.08.29-.12.16-.07.25-.11.25-.11h0s-.1,0-.26.05c-.08.02-.18.05-.3.08-.06.02-.13.04-.21.06,0-.12-.01-.24-.02-.37,0-.17-.01-.36-.02-.54,0,0,0,0,0,0,.14-.05.26-.1.37-.14.11-.04.21-.08.29-.12.1-.04.17-.07.21-.09v1.21s.04,2.16.04,2.16l-.92.28s.01-.16.02-.36c0-.12,0-.27.01-.43ZM88.03,70.46s-.1.02-.26.06c-.08.02-.18.05-.3.08-.04.01-.09.02-.13.04,0-.17,0-.34,0-.5,0-.14,0-.28,0-.42.1-.04.19-.07.27-.1.11-.04.21-.08.29-.12.16-.07.25-.11.25-.11h0s-.1,0-.26.05c-.08.02-.18.05-.3.08-.07.02-.16.05-.24.07,0-.31,0-.6-.02-.86,0-.03,0-.06,0-.09.11-.04.21-.08.29-.11.11-.04.21-.08.29-.12.16-.07.25-.11.25-.11h0s-.1,0-.26.05c-.08.02-.18.05-.3.08-.08.02-.17.05-.27.08-.01-.31-.02-.58-.03-.77,0-.1-.01-.18-.02-.25l.88-.29v2.09s.03,2.07.03,2.07c-.04.01-.12.03-.22.05-.08.02-.18.05-.3.08-.1.03-.22.06-.34.1,0-.22.01-.45.02-.67,0-.06,0-.11,0-.17.06-.02.11-.04.17-.06.11-.04.21-.08.29-.11.16-.07.25-.11.25-.11h0ZM88.17,71.48v.96s-.11.03-.22.06c-.08.02-.18.05-.3.08-.11.03-.23.07-.35.1,0-.04,0-.08,0-.12,0-.27,0-.54.01-.82h0c.14-.06.26-.11.37-.16.11-.04.21-.08.29-.12.09-.04.15-.07.2-.09v.09ZM82.3,69.1l1.49-.47,1.49-.48,1.96-.64c0,.06,0,.14-.01.24,0,.2-.02.48-.03.81-.14.04-.29.09-.45.15-.16.06-.32.13-.49.19-.17.07-.35.14-.53.2-.18.06-.37.12-.56.17-.19.05-.38.11-.56.16-.18.06-.36.11-.54.17-.35.11-.67.23-.95.33-.27.1-.5.19-.66.26-.08.03-.14.06-.18.08,0-.39.01-.77.02-1.15ZM82.48,70.23c.17-.04.4-.11.68-.19.28-.08.61-.19.95-.31.17-.06.35-.13.53-.19.18-.07.36-.14.55-.21.18-.07.37-.14.55-.2.18-.06.36-.12.54-.16.18-.05.35-.09.51-.14.14-.04.28-.09.4-.14,0,.02,0,.03,0,.05,0,.27,0,.58,0,.9-.14.04-.28.09-.43.14-.16.06-.32.12-.49.19-.17.07-.35.14-.53.2-.18.06-.37.12-.56.17-.19.05-.38.11-.56.16-.18.06-.36.11-.54.17-.35.11-.67.23-.95.33-.27.1-.5.19-.66.26-.1.04-.17.07-.21.09,0-.03,0-.07,0-.1,0-.32.01-.64.02-.97.04-.01.11-.03.2-.05ZM82.26,71.37s.12-.03.23-.06c.17-.04.4-.11.68-.19.28-.08.61-.18.95-.31.17-.06.35-.13.53-.19.18-.07.36-.14.55-.21.18-.07.37-.14.55-.2.18-.06.36-.12.54-.16.18-.05.35-.09.51-.14.14-.04.27-.09.39-.13,0,.12,0,.24,0,.37,0,.18,0,.36.01.54-.04.01-.07.02-.11.03-.14.04-.29.09-.45.15-.16.06-.32.12-.49.19-.17.07-.35.14-.53.2-.18.06-.37.12-.56.17-.19.05-.38.11-.56.16-.18.06-.36.11-.54.17-.35.11-.67.23-.95.33-.28.1-.5.19-.66.26-.05.02-.08.04-.12.05,0-.34.02-.68.03-1.02ZM86.7,76.3l-1.57.46-1.57.45-1.51.42c.03-.69.06-1.39.09-2.08.03-.72.05-1.44.07-2.16.01-.32.02-.65.03-.97.04,0,.08-.02.14-.04.17-.04.4-.11.68-.19.28-.08.61-.19.95-.31.17-.06.35-.13.53-.19.18-.07.36-.14.54-.21.18-.07.37-.14.55-.2.18-.06.36-.12.54-.16.18-.05.35-.09.51-.14.16-.05.31-.1.45-.15.03,0,.05-.02.07-.03,0,.04,0,.08,0,.12,0,.23.02.46.03.7-.13.04-.26.08-.4.13-.16.06-.32.13-.49.19-.17.07-.35.14-.53.2-.18.06-.37.12-.56.17-.19.05-.38.11-.56.16-.18.06-.37.11-.54.17-.35.11-.67.23-.95.33-.28.1-.5.19-.66.26-.16.07-.25.11-.25.11h0s.1,0,.26-.05c.17-.04.4-.11.68-.19.28-.08.61-.18.95-.31.17-.06.35-.13.53-.19.18-.07.36-.14.55-.21.18-.07.37-.14.55-.2.18-.06.36-.12.54-.16.18-.05.35-.09.51-.14.13-.04.25-.08.37-.12.01.27.02.54.02.8,0,.05,0,.09,0,.14-.14.04-.28.09-.43.14-.16.06-.32.13-.49.19-.17.07-.35.14-.53.2-.18.06-.37.12-.56.17-.19.05-.38.11-.56.16-.18.06-.37.11-.54.17-.35.11-.67.23-.95.33-.28.1-.5.19-.66.26-.16.07-.25.11-.25.11h0s.1,0,.26-.05c.17-.04.4-.11.68-.19.28-.08.61-.19.95-.31.17-.06.35-.13.53-.19.18-.07.36-.14.55-.21.18-.07.37-.14.55-.2.18-.06.36-.12.54-.16.18-.05.35-.09.51-.14.14-.04.27-.09.39-.13,0,.18,0,.35-.01.52,0,.14,0,.27-.01.4-.02,0-.04.01-.07.02-.14.04-.29.09-.45.15-.16.06-.32.12-.49.19-.17.07-.35.14-.53.2-.18.06-.37.12-.56.17-.19.05-.38.11-.56.16-.18.06-.36.11-.54.17-.35.11-.67.23-.95.33-.28.1-.5.19-.66.26-.16.07-.25.11-.25.11h0s.1,0,.26-.05c.17-.04.4-.11.68-.19.28-.08.61-.18.95-.31.17-.06.35-.13.53-.19.18-.07.36-.14.54-.21.18-.07.37-.14.55-.2.18-.06.36-.12.54-.16.18-.05.35-.09.51-.14.16-.05.31-.1.45-.15,0,0,.02,0,.02,0,0,.07,0,.14,0,.21,0,.21,0,.4,0,.58-.03,0-.07.02-.1.03-.14.04-.29.09-.45.15-.16.06-.32.13-.49.19-.17.07-.35.14-.53.2-.18.06-.37.12-.56.17-.19.05-.38.11-.56.16-.18.06-.36.11-.54.17-.35.11-.67.23-.95.33-.28.1-.5.19-.66.26-.16.07-.25.11-.25.11h0s.1,0,.26-.05c.17-.04.4-.11.68-.19.28-.08.61-.18.95-.31.17-.06.35-.13.53-.19.18-.07.36-.14.54-.21.18-.07.37-.14.55-.2.18-.06.36-.12.54-.16.18-.05.35-.09.51-.14.16-.05.31-.1.45-.15.02,0,.04-.02.07-.02,0,.19,0,.36.01.51,0,.17.01.31.02.43.01.21.02.34.03.37l-.6.18Z"/>
          <path class="cls-26" d="M87.97,73.06c-.46.9-1.12,1.79-2.12,2.11-2.3.73-4.06-1.65-4.59-3.58-.06-.21-.11-.42-.15-.63l-.31,8.96,8.37-3.06.09-6.65c-.36.98-.81,1.93-1.28,2.86Z"/>
        </g>
        <path class="cls-85" d="M40.57,56.11h.39s-.8,2.1-1.91,2.35c0,0-.49-1.21,1.52-2.35Z"/>
        <g>
          <path class="cls-57" d="M51.18,54.23c.18-.28-.08-.72-.41-.91-.29-.73-1.62-1.3-2.32-1.12.14-.44-.3-.45-.54-.34-.03.02-.06.03-.09.05-1.37.77-2.05,2.08-2,2.84-3.84,2.48-5.75,1.63-6.32.88-.79.09-2.21,1.01-2.21,1.01,0,0,1.47,2.36,4.27,1.91,2.8-.45,5.17-2.34,5.17-2.34l.27.18s1.15.46,1.99-.7c.33-.44.39-.47.39-.47,0,0,.29-.2,1.2-.11.3,0,.44-.15.38-.33.23.02.36-.31.23-.55Z"/>
          <g class="cls-29">
            <path class="cls-57" d="M50.77,53.33c-.29-.73-1.62-1.3-2.32-1.12.14-.44-.3-.45-.54-.34-.03.02-.06.03-.09.05-.02.01-.05.03-.07.04.06.01.13.03.18.06.02.01.03.04.03.06-.06.21-.26.29-.44.39-.18.1-.37.25-.53.41.37-.23.75-.46,1.19-.53.31-.05.72-.13,1.01.02.18.1.33.38.05.45-.23.06-.43.08-.64.21-.07.04-.13.08-.2.13.22-.08.44-.15.69-.2.28-.06.79-.18.95.15.11.24-.33.28-.46.3-.48.05-.99.27-1.23.71.31-.21.66-.38,1.01-.49.35-.11.83-.2,1.09.13.25.33,0,.52-.33.53-.26,0-.5-.02-.74.06-.25.09-.48.22-.67.4.52-.32,1.27-.52,1.64-.07.02.03.02.08-.02.09-.34.06-.7.04-1.03.17-.6.23-.86.97-1.5,1.13-.29.07-.62.03-.89-.12-.07-.04-.4-.31-.47-.26-.1.07-.17.18-.25.28-.22.26-.53.44-.81.62-.35.21-.7.41-1.06.6-.67.34-1.37.64-2.1.82-.38.09-2.67.59-2.41-.4.09-.36.4-.67.67-.9.13-.12.27-.23.42-.33-.71-.11-1.16-.43-1.4-.73-.79.09-2.21,1.01-2.21,1.01,0,0,1.47,2.36,4.27,1.91,2.8-.45,5.17-2.34,5.17-2.34l.27.18s1.15.46,1.99-.7c.33-.44.39-.47.39-.47,0,0,.29-.2,1.2-.11.3,0,.44-.15.38-.33.23.02.36-.31.23-.55.18-.28-.08-.72-.41-.91Z"/>
          </g>
          <g>
            <path class="cls-46" d="M47.88,53.38s.04-.02.12-.06c.08-.04.18-.09.32-.15.07-.03.14-.06.21-.09.08-.03.16-.06.24-.09.09-.03.17-.06.27-.09.09-.03.19-.05.28-.07h.04s0,0,0,0h0s0,0,0,0h0s.02,0,.02,0h.07c.05,0,.1,0,.15,0,.1.01.19.03.28.06.18.05.33.13.46.19.13.06.23.13.3.17.07.05.11.07.11.07,0,0-.04-.02-.12-.06-.08-.04-.19-.08-.32-.13-.13-.05-.29-.11-.46-.15-.08-.02-.17-.04-.26-.05-.05,0-.09,0-.13,0h-.07s-.02,0-.02,0h0s0,0,0,0h0s0,0,0,0h-.03c-.09.02-.18.04-.27.07-.09.02-.18.05-.26.07-.17.05-.33.1-.47.15-.27.09-.45.15-.45.15Z"/>
            <path class="cls-46" d="M48.26,54.11s.04-.03.11-.08c.07-.05.18-.12.31-.2.07-.04.14-.08.22-.11.08-.04.16-.08.25-.11.09-.03.19-.06.29-.09.1-.02.2-.04.31-.04.05,0,.11,0,.16,0,.05,0,.11.02.16.03.05.02.1.03.15.06.04.02.09.05.13.07.08.04.16.09.24.13.08.04.15.09.21.13.06.04.12.09.17.12.05.04.09.08.12.11.03.03.06.05.07.07.02.02.02.03.02.03,0,0,0,0-.03-.02-.02-.02-.05-.03-.08-.06-.04-.02-.08-.06-.13-.09-.05-.03-.11-.06-.18-.1-.06-.04-.13-.08-.21-.12-.08-.04-.16-.08-.25-.12-.04-.02-.09-.04-.13-.06-.04-.01-.09-.03-.13-.05-.05-.01-.09-.02-.14-.02-.05,0-.1,0-.15,0-.1,0-.19.01-.29.03-.09.02-.19.04-.28.07-.09.03-.17.06-.25.09-.08.03-.15.06-.22.1-.14.07-.25.12-.33.16-.08.04-.12.07-.12.07Z"/>
            <path class="cls-46" d="M48.47,55.02s.02-.04.07-.1c.02-.03.05-.07.09-.11.04-.04.08-.08.13-.12.05-.04.11-.09.17-.13.03-.02.07-.04.1-.06.04-.02.07-.04.11-.06.04-.02.08-.03.12-.05.04-.02.08-.02.13-.04.08-.03.17-.03.26-.04.09,0,.18,0,.27,0,.09.02.17.03.25.05.08.03.16.05.23.08.07.03.13.07.19.1.03.01.06.03.08.04.03.02.05.03.07.05.04.03.08.06.11.08.06.04.1.07.1.07,0,0-.04-.02-.11-.05-.03-.02-.07-.04-.12-.06-.02-.01-.05-.02-.08-.04-.03-.01-.06-.02-.09-.03-.06-.02-.12-.05-.19-.08-.07-.02-.15-.04-.22-.06-.08-.02-.16-.02-.24-.04-.08,0-.17,0-.25,0-.08.01-.17.01-.25.04-.04.01-.08.02-.12.03-.04.01-.08.03-.11.04-.04.01-.07.03-.11.05-.03.02-.07.03-.1.05-.06.04-.12.07-.17.11-.1.07-.19.14-.24.2-.05.05-.08.09-.08.09Z"/>
            <path class="cls-46" d="M48.36,52.23c-.06.01-.14.03-.24.05-.1.03-.21.07-.33.12-.09.04-.18.08-.27.12-.09.08-.17.16-.24.24.07-.03.13-.07.2-.1.12-.06.24-.12.35-.18.12-.05.22-.1.31-.15.1-.04.17-.07.23-.09.06-.02.09-.04.09-.04,0,0-.03,0-.09.02Z"/>
          </g>
        </g>
        <path class="cls-86" d="M39.42,54.8c-.68-.8-1.38-1.56-2.17-2.24-.07-.04-.11-.05-.11-.05,0,0-2.2,1.23.1,4.41,0,0,.71,1.02,1.8,1.54,0,0,.26-1.51,1.91-2.36-.6-.3-1.09-.78-1.53-1.3Z"/>
        <path class="cls-14" d="M39.42,54.8c-.68-.8-1.38-1.56-2.17-2.24-.07-.04-.11-.05-.11-.05,0,0-.22.12-.45.4.54-.32,1.21.64,1.44.96.5.7,1.27,1.29,1.65,2.06.1.21.06.5-.07.69-.42.63-.85,1.04-.71,1.82.02,0,.03.02.05.02,0,0,.26-1.51,1.91-2.36-.6-.3-1.09-.78-1.53-1.3Z"/>
        <path class="cls-89" d="M21.04,67.49c-1.77,0-3.25-.39-4.45-1.18-3.21-2.12-3.53-6.55-3.69-8.68-.02-.24-.03-.45-.05-.63-.2-2.06-.98-2.47-3.09-3.57-.68-.36-1.54-.8-2.54-1.4-1.71-1.01-2.73-3.15-2.97-6.16-.17-2.26.16-4.24.16-4.26l.32.05c-.01.08-1.26,7.76,2.65,10.09.99.59,1.84,1.03,2.52,1.39,2.15,1.13,3.05,1.59,3.26,3.83.02.18.03.4.05.64.15,2.08.47,6.4,3.54,8.43,2.31,1.53,5.79,1.51,10.33-.05,8.39-2.88,10.91-5.04,13.35-7.12,1.62-1.39,3.15-2.69,6.31-4.11l.13.3c-3.11,1.39-4.63,2.69-6.23,4.06-2.46,2.1-5.01,4.28-13.46,7.18-2.33.8-4.39,1.2-6.17,1.2Z"/>
        <g>
          <g>
            <g>
              <g>
                <path class="cls-83" d="M18.31,81.26c-.53-.05-1.42.19-1.6.67-.18.48.45,1.14.45,1.14.22.26.29.34.74.14.45-.2.92-.42,1-.81.08-.39-.06-1.1-.59-1.14Z"/>
                <path class="cls-63" d="M18.07,82.03c.22.52.05,1.09-.37,1.27-.42.17-.94-.11-1.16-.63-.22-.52-.06-1.09.37-1.27.42-.17.94.11,1.16.63Z"/>
                <path class="cls-83" d="M17.5,82.29c.06.15.02.32-.11.37-.12.05-.27-.03-.34-.18-.06-.15-.02-.32.11-.37.12-.05.27.03.33.18Z"/>
                <path class="cls-68" d="M16.47,81.58s1.63.83,1.76.86c.13.03.38-.08.83-.38,0,0,.11-1.16-.91-1.37-1.02-.2-1.54.42-1.68.88Z"/>
                <path class="cls-41" d="M18.24,82.45c.03-.44-.07-.92-.46-1.17-.42-.27-.97-.2-1.26.17-.02.05-.04.09-.05.13,0,0,1.63.83,1.76.86,0,0,0,0,.01,0Z"/>
                <path class="cls-18" d="M18.15,80.7c-.73-.15-1.2.13-1.46.47.3-.19.69-.23,1.03-.04.49.26.65.8.62,1.32.14-.03.37-.14.72-.37,0,0,.11-1.16-.91-1.37Z"/>
                <path class="cls-68" d="M17.43,80.11l.02.85s.28.3.77-.06l-.05-.91-.74.13Z"/>
                <path class="cls-21" d="M18.17,79.98l-.74.13v.45c.04-.1.04-.13.13-.11.28.06.36-.03.36.11,0,.07,0,.34,0,.41-.01.09-.09.08-.18.11.12,0,.28-.03.48-.18l-.05-.91Z"/>
                <path class="cls-33" d="M18.19,80.53l-.03-.55-.74.13v.4c.24.14.51.12.77.02Z"/>
                <path class="cls-1" d="M17.07,78.4l.13,1.79s.58.52,1.19-.09l-.03-1.74-1.29.05Z"/>
                <path class="cls-40" d="M17.74,78.37l-.49.02c.05.64.09,1.27.11,1.91.11.05.27.11.45.09,0-.67-.02-1.34-.07-2.02Z"/>
                <path class="cls-33" d="M18.37,79.27l-.02-.92-1.29.05.06.82c.37.2.81.18,1.25.05Z"/>
              </g>
              <g>
                <path class="cls-83" d="M8.91,82.1c-.53-.05-1.42.19-1.6.67-.18.48.45,1.14.45,1.14.22.26.29.34.74.14.45-.2.92-.42,1-.81.08-.39-.06-1.1-.59-1.14Z"/>
                <path class="cls-63" d="M8.67,82.87c.22.52.06,1.09-.36,1.27-.42.17-.94-.11-1.16-.63-.22-.52-.05-1.09.37-1.27.42-.17.94.11,1.16.63Z"/>
                <path class="cls-83" d="M8.1,83.14c.06.15.02.32-.11.37-.12.05-.27-.03-.34-.18-.06-.15-.02-.32.11-.37.12-.05.27.03.34.18Z"/>
                <path class="cls-68" d="M7.07,82.43s1.63.83,1.76.86c.13.03.38-.08.83-.38,0,0,.11-1.16-.91-1.37-1.02-.2-1.54.42-1.68.88Z"/>
                <path class="cls-41" d="M8.84,83.29c.03-.44-.07-.92-.46-1.17-.42-.27-.97-.2-1.26.17-.02.05-.04.09-.05.13,0,0,1.63.83,1.76.86,0,0,0,0,.01,0Z"/>
                <path class="cls-18" d="M8.75,81.55c-.73-.15-1.2.13-1.46.47.3-.19.69-.23,1.03-.04.49.26.65.8.62,1.32.14-.03.37-.14.72-.37,0,0,.11-1.16-.91-1.37Z"/>
                <path class="cls-68" d="M8.03,80.95l.02.85s.28.3.77-.06l-.05-.91-.74.13Z"/>
                <path class="cls-21" d="M8.77,80.83l-.74.13v.45c.04-.1.04-.13.13-.11.28.06.36-.03.36.11,0,.07,0,.34,0,.41-.01.09-.09.08-.18.11.12,0,.28-.03.48-.18l-.05-.91Z"/>
                <path class="cls-33" d="M8.79,81.37l-.03-.55-.74.13v.4c.24.14.51.12.77.02Z"/>
                <path class="cls-1" d="M7.67,79.24l.13,1.79s.58.52,1.19-.09l-.03-1.74-1.29.05Z"/>
                <path class="cls-40" d="M8.34,79.22l-.49.02c.05.64.09,1.27.11,1.91.11.05.27.11.45.09,0-.67-.02-1.34-.07-2.02Z"/>
                <path class="cls-33" d="M8.97,80.11l-.02-.92-1.29.05.06.82c.37.2.81.18,1.25.05Z"/>
              </g>
              <g>
                <path class="cls-83" d="M11.92,83.6c-.53-.05-1.42.19-1.6.67-.18.48.45,1.14.45,1.14.22.26.29.34.74.14.45-.2.92-.42,1-.81.08-.39-.06-1.09-.59-1.14Z"/>
                <path class="cls-63" d="M11.68,84.37c.22.52.05,1.09-.37,1.27-.42.17-.94-.11-1.16-.63-.22-.52-.06-1.09.37-1.27.42-.17.94.11,1.16.63Z"/>
                <path class="cls-83" d="M11.1,84.63c.06.15.02.32-.11.37-.12.05-.27-.03-.34-.18-.06-.15-.02-.32.11-.37.12-.05.27.03.33.18Z"/>
                <path class="cls-68" d="M10.08,83.92s1.63.83,1.76.86c.13.03.38-.08.83-.38,0,0,.11-1.16-.91-1.37-1.02-.2-1.54.42-1.68.88Z"/>
                <path class="cls-41" d="M11.85,84.79c.03-.44-.07-.92-.46-1.17-.42-.27-.97-.2-1.26.17-.02.05-.04.09-.05.13,0,0,1.63.83,1.76.86,0,0,0,0,.01,0Z"/>
                <path class="cls-18" d="M11.75,83.04c-.73-.15-1.2.13-1.46.47.3-.19.69-.23,1.03-.04.49.26.65.8.62,1.32.14-.03.37-.14.72-.37,0,0,.11-1.16-.91-1.37Z"/>
                <path class="cls-68" d="M11.03,82.45l.02.85s.28.3.77-.06l-.05-.91-.74.13Z"/>
                <path class="cls-21" d="M11.77,82.32l-.74.13v.45c.04-.1.04-.13.13-.11.28.06.36-.03.36.11,0,.07,0,.34,0,.41-.01.09-.09.08-.18.11.12,0,.28-.03.48-.18l-.05-.91Z"/>
                <path class="cls-33" d="M11.8,82.87l-.03-.55-.74.13v.4c.24.14.51.12.77.02Z"/>
                <path class="cls-1" d="M10.67,80.73l.13,1.79s.58.52,1.19-.09l-.03-1.74-1.29.05Z"/>
                <path class="cls-40" d="M11.35,80.71l-.48.02c.05.64.09,1.27.11,1.91.11.05.27.11.45.09,0-.67-.02-1.34-.07-2.02Z"/>
                <path class="cls-33" d="M11.97,81.6l-.02-.92-1.29.05.06.82c.37.2.81.18,1.25.05Z"/>
              </g>
              <g>
                <path class="cls-83" d="M15.31,79.76c-.53-.05-1.42.19-1.6.67-.18.48.45,1.14.45,1.14.22.26.29.34.74.14.45-.2.92-.42,1-.81.08-.39-.06-1.1-.59-1.14Z"/>
                <path class="cls-63" d="M15.07,80.54c.22.52.06,1.09-.37,1.27-.42.17-.94-.11-1.16-.63-.22-.52-.05-1.09.37-1.27.42-.17.94.11,1.16.63Z"/>
                <path class="cls-83" d="M14.49,80.8c.06.15.02.32-.11.37-.12.05-.27-.03-.34-.18-.06-.15-.02-.32.11-.37.12-.05.27.03.34.18Z"/>
                <path class="cls-68" d="M13.47,80.09s1.63.83,1.76.86c.13.03.38-.08.83-.38,0,0,.11-1.16-.91-1.37-1.02-.2-1.54.42-1.68.88Z"/>
                <path class="cls-41" d="M15.24,80.95c.03-.44-.07-.92-.46-1.17-.42-.27-.97-.2-1.26.17-.02.05-.04.09-.05.13,0,0,1.63.83,1.76.86,0,0,0,0,.01,0Z"/>
                <path class="cls-18" d="M15.15,79.21c-.73-.15-1.2.13-1.46.47.3-.19.69-.23,1.03-.04.49.26.65.8.62,1.31.14-.03.37-.14.72-.37,0,0,.11-1.16-.91-1.37Z"/>
                <path class="cls-68" d="M14.42,78.61l.02.85s.28.3.77-.06l-.05-.91-.74.13Z"/>
                <path class="cls-21" d="M15.16,78.49l-.74.13v.45c.04-.1.04-.13.13-.11.28.06.36-.03.36.11,0,.06,0,.34,0,.41-.01.09-.09.08-.18.11.12,0,.28-.03.48-.18l-.05-.91Z"/>
                <path class="cls-33" d="M15.19,79.03l-.03-.55-.74.13v.4c.24.14.51.12.77.02Z"/>
                <path class="cls-1" d="M14.06,76.9l.13,1.79s.58.52,1.19-.09l-.03-1.74-1.29.05Z"/>
                <path class="cls-40" d="M14.74,76.88l-.48.02c.05.64.09,1.27.11,1.91.11.05.27.11.45.09,0-.67-.02-1.34-.07-2.02Z"/>
                <path class="cls-33" d="M15.37,77.77l-.02-.92-1.29.05.06.82c.37.2.81.18,1.25.05Z"/>
              </g>
              <path class="cls-41" d="M18.45,79.02v-1.82h-3c-.36-.18-.61-.29-.61-.29,0,0-.8-.41-1.36-.09l-1.14.38h-4.65l.02,1.85c-.04.16.03.36.36.59l2.94,1.59s.55.41,1.23.23l5.46-1.77s.94-.2.75-.66Z"/>
              <path class="cls-25" d="M12.56,77.12l-.23.08h-1.36v4.01l.04.02s.55.41,1.23.23l.32-.1v-4.23Z"/>
              <path class="cls-44" d="M13.44,74.85l-5.15,1.73s-1.21.42-.24,1.09l2.94,1.59s.55.41,1.23.23l5.46-1.77s1.09-.23.68-.77c-.41-.55-3.55-2-3.55-2,0,0-.8-.41-1.36-.09Z"/>
              <path class="cls-12" d="M18.36,76.94c-.41-.55-3.55-2-3.55-2,0,0-.8-.41-1.36-.09l-5.15,1.73s-.06.02-.14.06c.69-.11,1.38-.36,2.05-.55.57-.16,1.32-.42,1.9-.16.03.01.03.06.01.09-.23.23-.62.55-.6.9.02.43.49.59.85.63.66.07,1.32-.08,1.97-.21,1.22-.25,2.52-.36,3.57.32.29-.1.75-.33.46-.71Z"/>
            </g>
            <g>
              <path class="cls-41" d="M13.64,76.8V25.62h-1.51v51.09c.28.43,1.07.42,1.51.08Z"/>
              <path class="cls-33" d="M12.58,77.01V25.62h-.45v51.09c.1.15.26.25.45.29Z"/>
              <path class="cls-33" d="M13.64,76.8V25.62h-.49v51.39c.18-.04.35-.11.49-.22Z"/>
            </g>
            <path class="cls-49" d="M4.06,28.14c-.36,0-.71-.15-1.02-.44-.56-.52-.09-1.62,0-1.83.08-.17.27-.24.44-.16.16.08.24.27.16.44-.18.4-.29.95-.16,1.07.4.37.81.35,1.25-.06.23-.21.24-.33.24-.47.01-.27.06-.56.59-.79.75-.34,10.93-.99,12.99-1.11.11-.01.52-.05.8.18.14.12.23.28.24.47,0,.05.09.19.29.3.14.07.5.22.92-.02.12-.07.27-.18.29-.32,0-.09-.04-.18-.07-.22-.11-.05-.19-.17-.19-.3,0-.18.15-.33.33-.33.3,0,.5.36.56.59.06.21.11.75-.59,1.15-.49.28-1.07.29-1.56.02-.37-.2-.61-.52-.63-.84,0,0,0-.01,0-.01-.03-.02-.18-.05-.3-.03,0,0-.02,0-.02,0-4.63.29-12.2.83-12.78,1.06-.16.07-.19.11-.19.11,0,.01,0,.06,0,.1-.01.27-.05.56-.46.93-.36.33-.74.49-1.12.49Z"/>
          </g>
          <g>
            <polygon class="cls-71" points="12.02 56.08 13.78 56.08 13.78 59.15 11.99 59.15 12.02 56.08"/>
            <rect class="cls-9" x="12.24" y="56.08" width=".23" height="3.07"/>
            <polygon class="cls-22" points="13.21 56.08 13.78 56.08 13.78 59.15 13.2 59.15 13.21 56.08"/>
          </g>
          <g>
            <path class="cls-50" d="M3.83,41.39l.04.75s.02.29.6.27c.58-.02.78-.23.83-.41.05-.18.02-.87.02-.87l-1.49.26Z"/>
            <path class="cls-13" d="M4.61,41.87c.26-.02.5-.1.72-.21,0-.25-.01-.53-.01-.53l-1.49.26.02.43c.24.08.53.07.76.05Z"/>
            <path class="cls-41" d="M7.92,29.75s-4.34-1.05-7.08.79v6.82s.19,2,1.26,2.66c0,0,.52.36,1.26.69,0,0,.17.39.28.82.27.19.65.15.95.1.33-.06.62-.18.89-.35.07-.36.26-.81.73-1.09.88-.52,1.59-.82,1.67-3.54.08-2.71.04-6.9.04-6.9Z"/>
            <path class="cls-41" d="M4.16,29.99c-.09,0-.16-.07-.16-.16v-2.41c0-.09.07-.16.16-.16s.16.07.16.16v2.41c0,.09-.07.16-.16.16Z"/>
            <path class="cls-60" d="M7.3,30.17s-4.24-.46-5.81.69c0,0-.27.15-.29.71-.02.57.04,6.07.04,6.07,0,0,.07,1.79,1.72,2.32,1.64.53,4.48-.62,4.68-2.81.2-2.19.02-6.4.02-6.4,0,0,0-.49-.35-.58Z"/>
            <path class="cls-82" d="M1.76,33.9s4.19,0,5.62-1.01l-.07,3.14s-3.08,1.36-5.41.89l-.14-3.01Z"/>
            <g>
              <polygon class="cls-60" points="6.53 35.82 5.98 35.98 6 34.14 6.55 33.94 6.53 35.82"/>
              <polygon class="cls-60" points="5.46 34.96 7 34.42 7 34.96 5.47 35.46 5.46 34.96"/>
            </g>
            <path class="cls-84" d="M3.05,37.55c-.73,0-1.12-.11-1.14-.12l.03-.11s1.95.55,5.17-.82l.04.1c-1.7.73-3.03.91-3.85.94-.09,0-.17,0-.25,0Z"/>
            <path class="cls-84" d="M3.05,38.26c-.73,0-1.12-.11-1.14-.12l.03-.11s1.95.55,5.17-.82l.04.1c-1.7.73-3.03.91-3.85.94-.09,0-.17,0-.25,0Z"/>
            <path class="cls-25" d="M7.92,29.75s-4.34-1.05-7.08.79v6.82s.19,2,1.26,2.66c0,0,.52.36,1.26.69,0,0,.17.39.28.82.27.19.65.15.95.1.33-.06.62-.18.89-.35.07-.36.26-.81.73-1.09.88-.52,1.59-.82,1.67-3.54.08-2.71.04-6.9.04-6.9ZM7.32,33.38c-.05.79-.03,1.59-.09,2.38-.09,1.18-.16,2.61-1.17,3.4-.83.66-2.14.71-3.08.29-.49-.22-.93-.58-1.15-1.07-.29-.63-.37-1.38-.43-2.06-.07-.81-.06-1.62-.05-2.43.01-.88.03-1.75.1-2.63,0-.03.03-.07.07-.05.12.05.23.1.34.16-.33-.4-.54-.84-.07-1.11.92-.54,2.06-.6,3.1-.63.52-.02,1.09-.02,1.59.15.23.08.57.19.56.49-.02.57-.59.95-.87,1.41.4-.13.69-.53,1.14-.52.02,0,.05.02.05.04.1.72,0,1.44-.03,2.16Z"/>
          </g>
        </g>
        <g>
          <polygon class="cls-72" points="46.95 53.49 46.1 54.29 47.37 55.92 48.26 55.12 46.95 53.49"/>
          <polygon class="cls-51" points="46.95 53.8 46.32 54.4 47.26 55.61 47.92 55.01 46.95 53.8"/>
        </g>
        <path class="cls-16" d="M38.12,44.62c-.37.23-.74.48-1.03.81-.18.2-.34.63-.06.84.19.15.42.22.63.03.53-.49.96-1.07,1.49-1.56.51-.47,1.07-.87,1.71-1.15.36-.16.93-.35,1.32-.4.52-.06.91.09,1.41-.07.25-.08.56-.35.24-.52-1-.53-5.03,1.59-5.72,2.01Z"/>
        <path class="cls-35" d="M42.42,44.07c-.05-.07-.15.04-.15.09,0,.02,0,.03,0,.05-.01,0-.02.03-.01.04,0,0,0,0,0,.01,0,.06,0,.12-.01.18-.25.3-1.37.65-1.49.75-.23.2.1.56.29.64.43.18.94-.13,1.19-.47.29-.39.45-.85.17-1.29Z"/>
        <path class="cls-87" d="M41.23,47.9c-.4.37-.9.93-.93,1.52.31-.59.66-1.16,1.22-1.55.33-.23.75-.4,1.15-.32.07.01.11.04.16.04-.48-.44-1.16-.09-1.6.31Z"/>
      </g>
    </g>
  </g>
</svg>