<?xml version="1.0" encoding="UTF-8"?>
<svg id="Layer_12" data-name="Layer 12" xmlns="http://www.w3.org/2000/svg" viewBox="0 0 800 600">
  <defs>
    <style>
      .cls-1 {
        fill: #8cb685;
      }

      .cls-2 {
        opacity: .5;
      }

      .cls-2, .cls-3 {
        fill: #4b83db;
      }

      .cls-4 {
        fill: #84b884;
      }

      .cls-5 {
        fill: #ddefff;
      }

      .cls-6 {
        fill: #51497a;
      }

      .cls-7, .cls-8, .cls-9 {
        opacity: .4;
      }

      .cls-7, .cls-10 {
        fill: #ed938b;
      }

      .cls-11 {
        fill: #7e3254;
      }

      .cls-12 {
        fill: #9cbde8;
      }

      .cls-13 {
        fill: #e58f78;
      }

      .cls-14 {
        fill: #a1c58e;
      }

      .cls-15 {
        fill: #75acf2;
      }

      .cls-16 {
        fill: #fff;
      }

      .cls-17 {
        fill: #ed4c62;
      }

      .cls-18 {
        fill: #fabba5;
      }

      .cls-19 {
        fill: #666294;
      }

      .cls-20 {
        fill: #954067;
      }

      .cls-21 {
        fill: #f13a56;
      }

      .cls-22 {
        fill: #dc826f;
      }

      .cls-23 {
        fill: #288b54;
      }

      .cls-24, .cls-25, .cls-26 {
        opacity: .2;
      }

      .cls-27 {
        fill: #752d4b;
      }

      .cls-25 {
        fill: #b2d0f6;
      }

      .cls-28 {
        fill: #7a94d2;
      }

      .cls-29 {
        fill: #79a671;
      }

      .cls-30 {
        fill: #ff6576;
      }

      .cls-8, .cls-31, .cls-26 {
        fill: #abc7f2;
      }

      .cls-32 {
        fill: #ff8091;
      }

      .cls-33 {
        fill: #383463;
      }

      .cls-34 {
        fill: #29274f;
      }

      .cls-9, .cls-35 {
        fill: #e84261;
      }

      .cls-36 {
        fill: #e38472;
      }

      .cls-37 {
        fill: #2d2b4e;
      }

      .cls-38 {
        fill: #ff676d;
      }

      .cls-39 {
        fill: #94aae6;
      }

      .cls-40 {
        opacity: .7;
      }
    </style>
  </defs>
  <path class="cls-26" d="M739.89,573.45H25.15S-65.78,236.29,171.59,317.33c174.9,59.71,232.02-228.27,414.22-199.82,151.11,23.6,89.01,212.49,137.9,205.72,113.76-15.74,64.49,228.09,16.18,250.22Z"/>
  <g>
    <g>
      <path class="cls-31" d="M329.66,389.59c0,.82.12,1.61.35,2.36.39,1.29,1.1,2.44,2.03,3.38,1.47,1.46,3.49,2.37,5.73,2.37h47.22c3.77,0,6.94-2.58,7.85-6.07.17-.65.26-1.34.26-2.04,0-2.24-.91-4.26-2.37-5.73-1.47-1.46-3.49-2.37-5.73-2.37h-47.22c-4.48,0-8.11,3.63-8.11,8.1Z"/>
      <path class="cls-31" d="M310.83,382.48c.62.87,3.17,2.01,3.17,3.57l-.11,6.03v.71c-.01,1.12-1.98,2.25-2.31,3.07-.35.86.22,1.84,1.09,1.84h28.86s.09,0,.14,0c2.51-.06,4.61-2,5.18-4.58.1-.46.16-.94.16-1.43v-4.17c0-3.33-2.45-6.02-5.47-6.02h-30.25c-.46,0-.73.58-.45.99Z"/>
      <path class="cls-39" d="M312.66,397.7h28.86s.09,0,.14,0h43.32c3.77,0,6.94-2.58,7.85-6.07,0,0-4.18,2.49-15.72,2.86-11.44.37-25.43.49-30.27-1.38-.04-.01-.08-.03-.13-.05-1.93-.78-9.01-1.06-16.7-1.12-5.64-.04-11.61.04-16.13.13v.71c-.01,1.12-1.98,2.25-2.31,3.07-.35.86.22,1.84,1.09,1.84Z"/>
      <path class="cls-16" d="M312.64,386.68v5.82c0,.48-.07.94-.18,1.37-.12.46-.29.87-.47,1.25-.37.76.24,1.62,1.15,1.62h30.41c3.19,0,5.77-2.38,5.77-5.31v-3.74c-.03-2.9-2.6-5.24-5.77-5.24h-31.86c-.49,0-.77.51-.47.87.65.77,1.43,2,1.43,3.37Z"/>
      <path class="cls-25" d="M313.14,396.74h30.41c3.19,0,5.77-2.38,5.77-5.31v-3.74c-1.87,1.86-6.11,4.88-14.52,5.81-7.63.84-16.58.65-22.34.37-.12.46-.29.87-.47,1.25-.37.76.24,1.62,1.15,1.62Z"/>
    </g>
    <g>
      <path class="cls-31" d="M341.19,365.74c0,.55.08,1.09.23,1.59.27.87.74,1.65,1.37,2.28.99.99,2.36,1.6,3.88,1.6h31.92c2.55,0,4.69-1.74,5.3-4.1.11-.44.17-.9.17-1.38,0-1.51-.61-2.88-1.6-3.87-.99-.99-2.36-1.6-3.88-1.6h-31.92c-3.03,0-5.48,2.45-5.48,5.48Z"/>
      <path class="cls-31" d="M328.46,360.93c.42.59,2.14,1.36,2.14,2.41l-.07,4.08v.48c-.01.75-1.34,1.52-1.56,2.08-.24.58.15,1.24.73,1.24h19.51s.06,0,.09,0c1.7-.04,3.11-1.35,3.5-3.1.07-.31.11-.63.11-.97v-2.82c0-2.25-1.66-4.07-3.7-4.07h-20.45c-.31,0-.49.39-.3.67Z"/>
      <path class="cls-12" d="M329.7,371.22h19.51s.06,0,.09,0h29.29c2.55,0,4.69-1.74,5.3-4.1,0,0-2.83,1.68-10.63,1.94-7.73.25-17.19.33-20.46-.93-.03-.01-.06-.02-.09-.03-1.3-.53-6.09-.72-11.29-.75-3.81-.03-7.85.03-10.9.09v.48c-.01.75-1.34,1.52-1.56,2.08-.24.58.15,1.24.73,1.24Z"/>
      <path class="cls-16" d="M329.69,363.78v3.94c0,.33-.05.64-.12.93-.08.31-.19.59-.32.84-.25.52.16,1.1.78,1.1h20.55c2.15,0,3.9-1.61,3.9-3.59v-2.53c-.02-1.96-1.76-3.54-3.9-3.54h-21.54c-.33,0-.52.35-.32.59.44.52.97,1.35.97,2.27Z"/>
      <path class="cls-25" d="M330.02,370.58h20.55c2.15,0,3.9-1.61,3.9-3.59v-2.53c-1.26,1.25-4.13,3.3-9.81,3.93-5.16.57-11.21.44-15.1.25-.08.31-.19.59-.32.84-.25.52.16,1.1.78,1.1Z"/>
    </g>
    <g>
      <path class="cls-39" d="M335.57,376.35c0,.52.09,1.02.26,1.5.29.82.82,1.55,1.51,2.14,1.1.93,2.61,1.5,4.28,1.5h35.22c2.81,0,5.18-1.63,5.85-3.85.13-.41.19-.85.19-1.29,0-1.42-.68-2.7-1.77-3.63-1.1-.93-2.61-1.5-4.28-1.5h-35.22c-3.34,0-6.04,2.3-6.04,5.14Z"/>
      <path class="cls-39" d="M321.52,371.83c.46.55,2.36,1.28,2.36,2.26l-.08,3.83v.45c-.01.71-1.48,1.43-1.72,1.95-.26.55.17,1.17.81,1.17h21.52s.07,0,.1,0c1.87-.04,3.43-1.27,3.86-2.91.08-.29.12-.6.12-.91v-2.65c0-2.11-1.83-3.82-4.08-3.82h-22.56c-.34,0-.54.37-.33.63Z"/>
      <path class="cls-28" d="M322.89,381.49h21.52s.07,0,.1,0h32.31c2.81,0,5.18-1.63,5.85-3.85,0,0-3.12,1.58-11.73,1.82-8.53.23-18.97.31-22.58-.88-.03,0-.06-.02-.1-.03-1.44-.5-6.72-.67-12.46-.71-4.21-.03-8.66.03-12.03.08v.45c-.01.71-1.48,1.43-1.72,1.95-.26.55.17,1.17.81,1.17Z"/>
      <path class="cls-16" d="M322.88,374.5v3.69c0,.31-.05.6-.14.87-.09.29-.21.55-.35.79-.27.48.18,1.03.86,1.03h22.68c2.38,0,4.3-1.51,4.3-3.37v-2.37c-.03-1.84-1.94-3.32-4.3-3.32h-23.76c-.37,0-.57.32-.35.55.48.49,1.07,1.27,1.07,2.13Z"/>
      <path class="cls-25" d="M323.25,380.88h22.68c2.38,0,4.3-1.51,4.3-3.37v-2.37c-1.39,1.18-4.56,3.1-10.83,3.69-5.69.53-12.37.41-16.66.24-.09.29-.21.55-.35.79-.27.48.18,1.03.86,1.03Z"/>
    </g>
  </g>
  <g>
    <rect class="cls-8" x="261.67" y="397.64" width="138.07" height="166.64" transform="translate(661.42 961.93) rotate(180)"/>
    <rect class="cls-31" x="259.43" y="397.64" width="143.42" height="4.32" transform="translate(662.27 799.6) rotate(180)"/>
    <path class="cls-31" d="M266.63,454.82h129.99v-48.61h-129.99v48.61ZM395.9,454.08h-128.54v-47.14h128.54v47.14Z"/>
    <path class="cls-31" d="M266.63,507.31h129.99v-48.61h-129.99v48.61ZM395.9,506.58h-128.54v-47.14h128.54v47.14Z"/>
    <path class="cls-31" d="M266.63,559.81h129.99v-48.61h-129.99v48.61ZM395.9,559.07h-128.54v-47.14h128.54v47.14Z"/>
    <path class="cls-31" d="M327.85,415.85h7.56c1.2,0,2.18-.99,2.18-2.21s-.98-2.21-2.18-2.21h-7.56c-1.2,0-2.18.99-2.18,2.21s.98,2.21,2.18,2.21ZM335.41,412.16c.8,0,1.45.66,1.45,1.48s-.65,1.48-1.45,1.48h-7.56c-.8,0-1.45-.66-1.45-1.48s.65-1.48,1.45-1.48h7.56Z"/>
    <path class="cls-31" d="M327.85,466.94h7.56c1.2,0,2.18-.99,2.18-2.21s-.98-2.21-2.18-2.21h-7.56c-1.2,0-2.18.99-2.18,2.21s.98,2.21,2.18,2.21ZM335.41,463.25c.8,0,1.45.66,1.45,1.48s-.65,1.48-1.45,1.48h-7.56c-.8,0-1.45-.66-1.45-1.48s.65-1.48,1.45-1.48h7.56Z"/>
    <path class="cls-31" d="M327.85,521.26h7.56c1.2,0,2.18-.99,2.18-2.21s-.98-2.21-2.18-2.21h-7.56c-1.2,0-2.18.99-2.18,2.21s.98,2.21,2.18,2.21ZM335.41,517.58c.8,0,1.45.66,1.45,1.48s-.65,1.48-1.45,1.48h-7.56c-.8,0-1.45-.66-1.45-1.48s.65-1.48,1.45-1.48h7.56Z"/>
  </g>
  <g class="cls-40">
    <g>
      <path class="cls-29" d="M730.47,491.72s-24.37-17.21-20.69-35.28c3.68-18.06,14.13-14.55,13.63-28-.5-13.45,11.89-19.18,20.98-19.06,9.09.12,19.54-18.91,30.8-14.32,11.26,4.59-5.3,17.78-1.74,25.7,3.56,7.92,2.9,17.56-8.25,24.51-11.15,6.95,10.91,30.27-34.73,46.44Z"/>
      <path class="cls-23" d="M775.53,395.7c-5.3,3.94-10.07,8.6-14.44,13.55-5.99,6.78-11.23,14.25-15.57,22.19-4.52,8.28-8.06,17.09-10.33,26.25-2.12,8.54-3.45,17.31-4.11,26.08-.6,7.91-.8,16.09.69,23.91.16.82.34,1.63.55,2.44.07.27-.34.41-.41.14-1.91-7.41-1.87-15.35-1.48-22.94.46-8.95,1.67-17.89,3.62-26.63,2.03-9.12,5.17-17.89,9.39-26.23,4.2-8.28,9.36-16.07,15.33-23.18,4.5-5.36,9.45-10.4,14.95-14.74.52-.41,1.05-.81,1.58-1.21.23-.17.47.19.25.36h0Z"/>
      <path class="cls-23" d="M712.32,449.36c2.76,10.55,11.56,17.66,19.74,24.12.07.05-.02.16-.09.1-8.2-6.47-17.02-13.61-19.78-24.18-.02-.08.11-.13.13-.04h0Z"/>
      <path class="cls-23" d="M733.77,462.89c5.09-.13,10.05-1.66,14.67-3.73,4.69-2.1,9.12-4.8,13.2-7.91.07-.05.14.06.08.11-4.09,3.12-8.53,5.83-13.23,7.93-4.63,2.07-9.61,3.6-14.7,3.73-.09,0-.1-.13,0-.13h0Z"/>
      <path class="cls-23" d="M741.31,409.46c-.85,7.39.96,14.96,4.22,21.59.04.08-.09.12-.13.04-3.27-6.64-5.08-14.24-4.23-21.66,0-.09.14-.06.13.03h0Z"/>
      <path class="cls-23" d="M736.75,410.72c-.22,4.39.14,8.8,1.12,13.09.95,4.18,2.31,8.44,5.36,11.59.06.06-.03.16-.09.1-3.01-3.11-4.37-7.26-5.33-11.38-1.02-4.38-1.41-8.89-1.18-13.38,0-.09.14-.1.13,0h0Z"/>
      <path class="cls-23" d="M738.48,446.5c11.04-.96,21.73-5.67,30.09-12.9,2.4-2.08,4.6-4.37,6.57-6.87.05-.07.16.02.1.09-6.94,8.79-16.86,15.17-27.62,18.16-2.99.83-6.04,1.39-9.13,1.65-.09,0-.1-.13,0-.13h0Z"/>
      <path class="cls-23" d="M740.39,442.13c10.35-1.52,19.98-6.71,27.67-13.7,2.13-1.93,4.11-4.03,5.93-6.25.05-.07.16.02.1.09-6.61,8.08-15.46,14.54-25.36,17.96-2.71.93-5.5,1.62-8.33,2.04-.09.01-.09-.12,0-.13h0Z"/>
      <path class="cls-23" d="M755.01,404c-.35,3.26.64,6.68,2.23,9.51.04.07-.07.15-.11.08-1.6-2.86-2.6-6.32-2.25-9.61,0-.09.14-.06.13.03h0Z"/>
      <path class="cls-23" d="M763.98,405.68c4.67,1.34,9.73.79,14-1.54.08-.04.15.07.08.11-4.3,2.34-9.4,2.91-14.1,1.56-.08-.02-.06-.16.03-.13h0Z"/>
      <path class="cls-23" d="M721.55,436.79c2.08,3.41,3.95,6.95,5.96,10.41,1.93,3.32,4.39,6.44,7.87,8.22.08.04.02.16-.06.12-3.33-1.71-5.76-4.64-7.65-7.8-2.14-3.59-4.06-7.3-6.23-10.87-.04-.07.07-.15.11-.08h0Z"/>
      <path class="cls-23" d="M760.26,467.51c-6,6.26-14.16,10.3-22.24,13.16-2.32.82-4.68,1.54-7.06,2.15-.08.02-.13-.11-.04-.13,5.33-1.38,10.54-3.25,15.48-5.67,5.03-2.47,9.87-5.54,13.76-9.6.06-.06.16.02.1.09h0Z"/>
    </g>
    <g>
      <path class="cls-4" d="M775.72,445.79c1.93-2.08,2.91-2.06,3.83-1.31s1.3,1.96.21,3.55c-2.63,3.84-7.48,6.63-8.1,6.13-.45-.36,1.36-5.47,4.05-8.36Z"/>
      <path class="cls-23" d="M771.19,454.6c3.33-2.72,5.11-6.89,8.55-9.49.03-.02-.01-.07-.04-.05-3.44,2.61-5.22,6.78-8.55,9.49-.03.03.01.07.04.05h0Z"/>
      <path class="cls-23" d="M775.83,449.37c-.6-.64-.99-1.6-.98-2.48,0-.04-.06-.04-.06,0,0,.9.39,1.87,1,2.52.03.03.07-.01.05-.04h0Z"/>
      <path class="cls-23" d="M776.97,447.86c.98.23,2.03.13,2.98-.15.04-.01.03-.07-.01-.06-.94.28-1.98.39-2.95.16-.04,0-.06.05-.02.06h0Z"/>
      <path class="cls-23" d="M775.24,446.38c.11.92.41,1.77.89,2.56.02.04.08,0,.06-.03-.48-.78-.77-1.63-.88-2.54,0-.04-.07-.03-.06.01h0Z"/>
    </g>
    <g>
      <path class="cls-1" d="M716.75,495.65s15.31-15.2,10.51-27.64c-4.79-12.44-11.82-8.67-13.08-18.32-1.26-9.65-10.79-12.24-17.25-11.06-6.47,1.18-16.2-11.13-23.68-6.5-7.48,4.63,5.91,12.04,4.33,18.12-1.58,6.07.04,12.87,8.83,16.48,8.79,3.61-4.14,22.89,30.34,28.93Z"/>
      <path class="cls-23" d="M673.09,432.62c4.25,2.17,8.21,4.92,11.92,7.92,5.09,4.12,9.72,8.81,13.77,13.95,4.22,5.36,7.8,11.21,10.52,17.47,2.54,5.84,4.54,11.92,6.07,18.1,1.38,5.57,2.5,11.37,2.38,17.13-.01.6-.04,1.2-.1,1.81-.02.2.29.25.31.05.47-5.51-.51-11.17-1.7-16.53-1.4-6.32-3.34-12.55-5.78-18.55-2.54-6.25-5.84-12.13-9.85-17.57-3.99-5.4-8.61-10.33-13.71-14.68-3.85-3.28-7.99-6.28-12.43-8.71-.42-.23-.84-.45-1.27-.67-.18-.09-.31.19-.13.29h0Z"/>
      <path class="cls-23" d="M724.6,463.27c-.7,7.85-6.12,13.98-11.18,19.57-.04.05.03.11.07.06,5.07-5.6,10.5-11.75,11.2-19.62,0-.06-.09-.08-.1-.02h0Z"/>
      <path class="cls-23" d="M710.94,475.5c-3.64.52-7.37.02-10.91-.89-3.6-.93-7.08-2.32-10.36-4.05-.06-.03-.1.06-.04.09,3.29,1.74,6.78,3.13,10.39,4.06,3.55.92,7.28,1.41,10.93.89.06,0,.05-.11,0-.1h0Z"/>
      <path class="cls-23" d="M699.13,438.31c1.5,5.17,1.12,10.78-.41,15.9-.02.06.08.07.1.02,1.53-5.13,1.91-10.76.41-15.95-.02-.06-.11-.03-.09.03h0Z"/>
      <path class="cls-23" d="M702.53,438.66c.69,3.1.96,6.29.78,9.46-.17,3.1-.63,6.29-2.43,8.9-.04.05.04.11.07.06,1.77-2.58,2.25-5.7,2.44-8.76.2-3.25-.06-6.51-.77-9.68-.01-.06-.11-.05-.1,0h0Z"/>
      <path class="cls-23" d="M705.6,464.38c-7.99.65-16.17-1.43-23.01-5.58-1.96-1.19-3.81-2.57-5.51-4.11-.05-.04-.11.03-.06.07,6,5.43,13.84,8.79,21.88,9.63,2.23.23,4.48.26,6.71.08.06,0,.05-.1,0-.1h0Z"/>
      <path class="cls-23" d="M703.72,461.49c-7.56.16-15.05-2.38-21.38-6.44-1.75-1.12-3.41-2.38-4.98-3.75-.05-.04-.11.03-.06.07,5.68,4.97,12.77,8.51,20.24,9.75,2.04.34,4.11.5,6.19.45.06,0,.05-.1,0-.1h0Z"/>
      <path class="cls-23" d="M688.71,436.06c.64,2.28.35,4.84-.45,7.05-.02.06.07.1.09.04.8-2.23,1.1-4.82.45-7.12-.02-.06-.11-.03-.09.03h0Z"/>
      <path class="cls-23" d="M682.52,438.34c-3.17,1.52-6.85,1.73-10.17.59-.06-.02-.1.07-.04.09,3.35,1.15,7.05.94,10.24-.58.06-.03.02-.12-.03-.09h0Z"/>
      <path class="cls-23" d="M716.51,455.42c-1.07,2.68-1.98,5.43-3,8.13-.97,2.6-2.36,5.12-4.62,6.81-.05.04,0,.12.06.08,2.17-1.62,3.55-4,4.52-6.48,1.1-2.81,2.01-5.69,3.14-8.5.02-.06-.06-.1-.09-.04h0Z"/>
      <path class="cls-23" d="M692.6,481.97c5.03,3.74,11.33,5.64,17.44,6.71,1.75.31,3.52.53,5.3.68.06,0,.08-.09.02-.1-3.96-.34-7.91-1.05-11.72-2.18-3.88-1.15-7.7-2.76-10.96-5.19-.05-.04-.11.04-.06.07h0Z"/>
    </g>
    <g>
      <path class="cls-14" d="M744.26,491.11s-6.7-11.99-1.58-18.76c5.12-6.77,8.76-3.23,11.23-8.92,2.47-5.68,8.75-5.6,12.5-3.74,3.75,1.86,11.87-3.97,15.64.18,3.76,4.15-5.73,6.33-5.83,10.33-.1,4-2.29,7.87-8.3,8.54-6.01.67-1.49,14.74-23.66,12.38Z"/>
      <path class="cls-23" d="M782.06,460.2c-2.98.58-5.89,1.57-8.69,2.75-3.84,1.63-7.5,3.68-10.88,6.12-3.53,2.54-6.74,5.49-9.51,8.85-2.58,3.13-4.87,6.5-6.89,10.01-1.82,3.16-3.53,6.52-4.47,10.07-.1.37-.18.75-.26,1.12-.02.13-.23.1-.2-.02.68-3.46,2.27-6.75,3.94-9.82,1.97-3.62,4.25-7.1,6.8-10.34,2.66-3.38,5.7-6.4,9.12-9.02,3.39-2.6,7.08-4.81,10.97-6.58,2.93-1.33,5.99-2.44,9.14-3.15.3-.07.6-.13.9-.19.13-.02.16.17.03.2h0Z"/>
      <path class="cls-23" d="M745.14,469.91c-.95,4.93,1.29,9.63,3.4,13.94.02.04-.04.06-.06.03-2.12-4.32-4.36-9.04-3.41-13.98,0-.04.07-.03.06,0h0Z"/>
      <path class="cls-23" d="M751.36,479.8c2.14.96,4.51,1.31,6.83,1.37,2.36.06,4.74-.18,7.05-.66.04,0,.05.05,0,.06-2.32.48-4.7.72-7.07.66-2.33-.06-4.71-.42-6.85-1.37-.04-.02-.01-.07.02-.06h0Z"/>
      <path class="cls-23" d="M765.12,459.11c-1.82,2.9-2.58,6.41-2.54,9.8,0,.04-.06.03-.06,0-.04-3.41.72-6.92,2.55-9.83.02-.03.07,0,.05.04h0Z"/>
      <path class="cls-23" d="M762.97,458.73c-.97,1.78-1.69,3.68-2.14,5.66-.44,1.93-.72,3.96-.08,5.88.01.04-.04.06-.06.03-.63-1.89-.37-3.88.05-5.79.45-2.02,1.18-3.97,2.17-5.79.02-.03.08-.01.06.02h0Z"/>
      <path class="cls-23" d="M756.58,473.93c4.78,1.8,10.15,1.97,15.06.63,1.41-.39,2.78-.9,4.09-1.55.04-.02.06.04.03.06-4.63,2.27-10.02,2.95-15.08,2.05-1.41-.25-2.79-.63-4.12-1.13-.04-.01-.01-.07.02-.06h0Z"/>
      <path class="cls-23" d="M758.24,472.49c4.6,1.43,9.63,1.19,14.22-.19,1.27-.38,2.51-.86,3.7-1.42.04-.02.06.04.03.06-4.35,2.04-9.31,2.96-14.1,2.41-1.31-.15-2.61-.42-3.87-.81-.04-.01-.02-.07.02-.06h0Z"/>
      <path class="cls-23" d="M771.89,459.56c-.79,1.28-1.06,2.9-.97,4.39,0,.04-.06.05-.06,0-.1-1.51.17-3.14.98-4.44.02-.03.07,0,.05.04h0Z"/>
      <path class="cls-23" d="M775.28,462.04c1.67,1.48,3.89,2.26,6.12,2.15.04,0,.05.06,0,.06-2.25.12-4.48-.66-6.17-2.16-.03-.03,0-.08.04-.05h0Z"/>
      <path class="cls-23" d="M751.47,466.53c.19,1.83.26,3.67.41,5.51.14,1.76.55,3.55,1.63,4.98.02.03-.02.07-.05.04-1.04-1.37-1.47-3.07-1.63-4.76-.18-1.92-.23-3.84-.43-5.75,0-.04.06-.05.06,0h0Z"/>
      <path class="cls-23" d="M761.44,486.98c-3.74,1.41-7.93,1.46-11.85,1.04-1.13-.12-2.25-.29-3.36-.51-.04,0-.03-.07,0-.06,2.49.49,5.02.75,7.56.72,2.58-.02,5.2-.34,7.62-1.25.04-.01.06.04.03.06h0Z"/>
    </g>
    <path class="cls-31" d="M751.28,564.01h-32.19c-6.71,0-12.39-5.58-13.32-13.08l-6.18-49.8h69.76l-6.69,51.78c-.82,6.37-5.67,11.1-11.37,11.1Z"/>
    <rect class="cls-31" x="696.15" y="497.35" width="75.39" height="7.94" rx="2.79" ry="2.79"/>
    <path class="cls-2" d="M701.83,505.29s8.91,3.42,32.02,3.71c23.11.29,31.5-3.71,31.5-3.71h-63.52Z"/>
  </g>
  <g>
    <polygon class="cls-34" points="418.13 560.2 418.13 564.01 436.26 564.01 438.35 556.64 418.13 560.2"/>
    <path class="cls-33" d="M410.69,517.94s-6.77,20.24-17.05,26.26c-8.29,4.85-24.14,5.58-28.36,15.22-.94,2.15.61,4.59,2.86,4.59h42.55s15.48-4.49,22.79-3.4c7.31,1.09,6.96-17.36,4.87-24.18-2.09-6.82-.35-18.49-.35-18.49h-27.31Z"/>
  </g>
  <g>
    <path class="cls-6" d="M619.02,434.12h18.4c5.94,0,10.8-4.86,10.8-10.8h0c0-5.94-4.86-10.8-10.8-10.8h-18.4c-5.94,0-10.8,4.86-10.8,10.8h0c0,5.94,4.86,10.8,10.8,10.8Z"/>
    <rect class="cls-6" x="625.07" y="415.07" width="7.87" height="128.26" transform="translate(1258.01 958.4) rotate(180)"/>
    <path class="cls-6" d="M592.72,550.27c.14,0,.29-.02.44-.05,32.54-7.41,69.8-.06,70.17.01,1.06.21,2.1-.47,2.31-1.54.21-1.06-.47-2.1-1.54-2.31-.38-.08-38.44-7.6-71.82.01-1.06.24-1.72,1.29-1.48,2.35.21.91,1.02,1.53,1.91,1.53Z"/>
    <circle class="cls-6" cx="655.62" cy="556.21" r="7.8" transform="translate(23.8 1139.32) rotate(-83.01)"/>
    <circle class="cls-6" cx="602.42" cy="556.21" r="7.8" transform="translate(-76.44 1016.03) rotate(-76.83)"/>
    <path class="cls-33" d="M676.2,352.12s-3.6,30-2.8,42.8h-15.32s-.68-26.4,6.12-42.8c6.8-16.4,12,0,12,0Z"/>
    <path class="cls-31" d="M700.94,423.32h-167.53s-10.53-17.73,16.41-29.49c26.93-11.76,75.53-1.86,92.63-5.46,17.1-3.6,37.11-5.74,61.98,7.32,13.79,7.24,21.72,27.64-3.48,27.64Z"/>
    <path class="cls-31" d="M660.57,366.55c-15.97-1.1-51.4-6.2-61.6-20.3-12.16-16.81,4-135.7,52.4-148.1,48.4-12.4,72.4,16.8,77.2,39.6,4.8,22.8,13.2,99.6,1.2,114-12,14.4-33,17.3-69.2,14.8Z"/>
  </g>
  <g>
    <g>
      <path class="cls-6" d="M156.05,434.12h-18.4c-5.94,0-10.8-4.86-10.8-10.8h0c0-5.94,4.86-10.8,10.8-10.8h18.4c5.94,0,10.8,4.86,10.8,10.8h0c0,5.94-4.86,10.8-10.8,10.8Z"/>
      <rect class="cls-6" x="142.13" y="415.07" width="7.87" height="128.26"/>
      <path class="cls-6" d="M182.35,550.27c-.14,0-.29-.02-.44-.05-32.54-7.41-69.8-.06-70.17.01-1.06.21-2.1-.47-2.31-1.54-.21-1.06.47-2.1,1.54-2.31.38-.08,38.44-7.6,71.82.01,1.06.24,1.72,1.29,1.48,2.35-.21.91-1.02,1.53-1.91,1.53Z"/>
      <circle class="cls-6" cx="119.45" cy="556.21" r="7.8" transform="translate(-449.33 544.68) rotate(-76.72)"/>
      <circle class="cls-6" cx="172.65" cy="556.21" r="7.8" transform="translate(-342.73 284.99) rotate(-45)"/>
    </g>
    <path class="cls-33" d="M98.87,352.12s3.6,30,2.8,42.8h15.32s.68-26.4-6.12-42.8c-6.8-16.4-12,0-12,0Z"/>
    <path class="cls-31" d="M74.13,423.32h167.53s10.53-17.73-16.41-29.49c-26.93-11.76-75.53-1.86-92.63-5.46-17.1-3.6-37.11-5.74-61.98,7.32-13.79,7.24-21.72,27.64,3.48,27.64Z"/>
    <path class="cls-31" d="M114.5,366.55c15.97-1.1,51.4-6.2,61.6-20.3,12.16-16.81-4-135.7-52.4-148.1-48.4-12.4-72.4,16.8-77.2,39.6-4.8,22.8-13.2,99.6-1.2,114,12,14.4,33,17.3,69.2,14.8Z"/>
  </g>
  <path class="cls-6" d="M641.18,316.79s18.59,27.17,13.39,57.81c-5.21,30.64-23.03,25.63-46.35,27.59-33.2,2.8-67.86-.88-68.93,6.24-1.65,11.05-46.54-3.9-46.54-3.9,0,0-51.82-25.11-46.93-38.31,12.5-33.73,159.6-55.98,195.36-49.43Z"/>
  <path class="cls-6" d="M446.81,364.08c-12,16.54-38.55,150.97-37.12,153.6,2.5,4.6,6.35,1.46,19.11,7.1,13.85,6.12,21.63.26,21.63.26,0,0,9.1-26.5,24.54-71.27,5.54-16.07,11.55-33.46,17.64-51.04,20.23-58.43-34.82-53.77-45.81-38.64Z"/>
  <path class="cls-33" d="M478.06,382.19c-6.67,19.2-5.08,77.32-5.08,77.32l30.35-97.5s-20.4,6.15-25.27,20.18Z"/>
  <g>
    <path class="cls-18" d="M396.56,299.62s46.03.31,62.22.81c35.35,1.09,48.82-1.79,48.82-1.79,0,0,31.12-25.21,49.08-95.49,0,0-25.86-15.14-32.34-9.1-9.94,9.28-39.1,65.38-44.65,70.28-1.75,1.55-55.74,18.63-78.52,7.97l-4.61,27.31Z"/>
    <path class="cls-18" d="M415.22,283.04s-7.81-10.04-15.45-11.95c-5.24-1.32-16.37-9.97-17.79-9.44-5.42,2.04,7.02,10.84,4.86,13.16-1.47,1.59-20.59,1.36-26.05,1.64-2.88.15-7,3.35,2.6,5.32,2.22.46,6.62.94,9.3,1.87,1.69.59,2.89,1.68-.82,2.21-4.63.66-19.84.07-19.08,3.59.63,2.91,22.23,1.43,22.35,4.78.06,1.79-18.05,3.92-17.83,6.38.35,3.79,14.86.44,21.44,1.66,6.97,1.3-7.02,7.2-5.95,9.21,1.14,2.14,5.41-.47,13.15-3.9,6.66-2.95,16.75-1.75,21.83-4.88,5.08-3.14,7.44-19.66,7.44-19.66Z"/>
  </g>
  <path class="cls-27" d="M613.85,83.66s3.87-1.15,6.95,1.15c0,0-2.65-.67-5.33.5-2.68,1.17-1.62-1.65-1.62-1.65Z"/>
  <path class="cls-27" d="M611.56,85.07s3.94-.85,5.66-4.38c0,0-2.05,1.88-4.95,2.14-2.9.26-.71,2.24-.71,2.24Z"/>
  <path class="cls-27" d="M564.28,89.22s-1.87,11.58-.7,14.97,5.1-13.52,5.1-13.52l-4.4-1.45Z"/>
  <g>
    <polygon class="cls-34" points="496.03 560.2 496.03 564.01 514.17 564.01 516.25 556.64 496.03 560.2"/>
    <path class="cls-33" d="M488.59,517.94s-6.77,20.24-17.05,26.26c-8.29,4.85-24.14,5.58-28.36,15.22-.94,2.15.61,4.59,2.86,4.59h42.55s15.48-4.49,22.79-3.4c7.31,1.09,6.96-17.36,4.87-24.18-2.09-6.82-.35-18.49-.35-18.49h-27.31Z"/>
  </g>
  <path class="cls-6" d="M482.9,404.08c-7.99,72.58-4.11,118.25-2.23,120.57,3.3,4.06,6.51.27,20.09,3.46,14.74,3.47,21.31-3.72,21.31-3.72,0,0,4.07-27.72,11.04-74.57,2.5-16.81,5.21-35.01,7.97-53.42,8.18-54.66-51.08-35.5-52.77-21.23-.64,5.45-4.72,22.53-5.42,28.89Z"/>
  <path class="cls-30" d="M657.94,192.83c-.31,3.69-2.19,15.52-4.48,29.49-.38,2.31-.77,4.67-1.16,7.07h0c-3.84,23.32-8.23,49.54-8.38,53.67-.45,12.37,7.2,43.35,7.72,51.39.13,2.01-6.09.99-13,.6-7.61-.43-21.67,5.34-42.37,5.42-35.56.12-48.36-16.63-48.36-16.63,3.78-10.69,2.59-25.18.75-36.88-.91-5.81-15.27-90.81-15.27-90.81l9.71-24.97c45.3-12,95.06-3.47,95.06-3.47,0,0,21.71,2.76,19.79,25.13Z"/>
  <path class="cls-30" d="M599.78,159.55s-.74,1.45-2.06,3.93c-.71,1.34-1.6,2.98-2.63,4.86-2.47,4.5-5.78,10.33-9.59,16.58-11.14,18.26-26.54,40-37.7,41.87-2.17.36-.42,20.23-1.84,19.87-21.27-5.51-43.67-31.8-37.16-36.97,15.86-12.6,24.61-42.21,49.59-44.52,4.91-.45,10.11-1.63,15.18-2.34,9.47-1.33,18.33-2.39,22.93-2.91,2.08-.24,3.28-.37,3.28-.37Z"/>
  <path class="cls-30" d="M656.97,233.87c-6.66-3.72-13.86-6.72-20.9-7.82-11.22-1.75-22.85-24.04-30.72-42.68-2.33-5.52-4.33-10.72-5.89-14.97-.67-1.83-1.26-3.48-1.76-4.91-.5-1.42-.91-2.62-1.22-3.56-.47-1.41-.72-2.2-.72-2.2,0,0,9.26,2.27,21.1,4.69,4.59.94,9.56,1.9,14.54,2.77,17.11,2.97,17.68,12.59,31.33,27.55,13.65,14.96,7.84,48.71-5.76,41.14Z"/>
  <path class="cls-18" d="M613.19,161.65c-2.82-.59-5-2.92-5.51-5.89-1.03-5.96-2.3-13.95-3.14-21.41-.22-1.99,1.77-9.59,1.85-9.72-.23.07-31.31,9.11-27.52,18.66.17.43.32.88.46,1.34.92,3.05,1.23,6.89,1.23,10.76,0,2.32-.16,4.53-.38,6.55-2.14.28-4.35.58-6.61.9-.39,1.76-2.02,23.47,16.62,23.48,15.29,0,26.19-21.84,26.69-23.9-1.26-.26-2.49-.51-3.68-.77Z"/>
  <path class="cls-10" d="M605.08,133.4c-.19,1.42.4,6.7.39,8.33-7.01,14.28-24.66,13.57-24.92,13.66,0-3.87-.31-7.71-1.23-10.76,6.99-3.49,21.79-11.84,25.75-11.23Z"/>
  <path class="cls-18" d="M603.16,141.73c-1.2,3.89-14.56,7.03-19.9,7.63-3.52.4-8.92,1.24-11.92-.92-2.55-1.84-9.7-17.58-8.02-25.68.33-1.57.76-8.17.12-12.61-1.06-7.38,3.88-19.58,3.88-19.58,20.35-15.05,38.12,6.2,39.62,14.39,1.49,8.19,1.07,21.09-3.78,36.77Z"/>
  <path class="cls-27" d="M593.7,107.4c.91.51,1.3-.27.67-1.12-1.5-2.01-3.48-4.18-10.02-4.53-6.14-.33-6.86,3.1-3.5,3.73,2.94.55,6.8-1.45,12.85,1.92Z"/>
  <path class="cls-27" d="M564.66,108.44c-.43.36-1.41-1.28-1.25-1.92.37-1.54,1.57-3.19,5.02-3.06,3.79.13,4.58,2.21,2.64,2.51-1.7.27-3.56.11-6.41,2.48Z"/>
  <path class="cls-27" d="M572.09,114.65c-.72-.86-2.14-2.34-3.78-2.44-.36-.03-.72.01-1.09.14-.64.21-1.47.98-2.33,1.52-.31.2,3.67-5.43,6.91-.25.11.18.22.36.33.57.12.22.24.46.36.72.28.63.11.33-.39-.26Z"/>
  <path class="cls-27" d="M571.28,113.34c0,.13,0,.68-.15,1.22-.1.37-.35.81-.76,1.12-.51.38-1.48.56-2.08.34-.59-.21-1.15-.49-1.51-1.03-.43-.65-.47-1.74.02-2.34.15-.19.31-.39.43-.52.1-.13.17-.21.17-.21l1.81.35.98.06.35.1.24.4c.11.18.4.31.51.51Z"/>
  <path class="cls-27" d="M589.24,114.58c0,1.43-1.11,2.59-2.47,2.59s-2.47-1.16-2.47-2.59c0-.47.12-.91.33-1.29.2-.37.49-.68.83-.9.93,0,1.85.01,2.71.06.49.35.86.89,1,1.52.05.2.07.4.07.61Z"/>
  <path class="cls-27" d="M594.31,114.32c.39,1.07-2.08-2.66-7.77-1.5-1.4.29-2.8,1.16-3.92,2.08-.41.33-.44-.19-.07-.56,1.37-1.4,2.72-2.39,4.91-2.62,3.75-.39,6.7,2.17,6.86,2.61Z"/>
  <path class="cls-13" d="M573.96,111.04c1.74.88,2.56,2.85,2.55,4.81,0,2.17-1.1,4.16-2.29,5.87-.81,1.16-2.82,2.96-2.08,4.61.32.73,1.12,1.08,1.78,1.39.92.43,1.89.73,2.88.94.29.06.42-.41.12-.47-1.11-.23-2.19-.58-3.21-1.11-.86-.45-1.49-1.05-1.1-2.14.2-.57.58-1.04.94-1.51,1.14-1.5,2.26-3.04,2.91-4.85,1.01-2.79.53-6.53-2.27-7.94-.27-.14-.5.28-.23.42h0Z"/>
  <path class="cls-13" d="M574.05,141.43c1.56-.59,3.13-.62,4.71-.1.57.19.82-.75.25-.94-1.72-.57-3.51-.54-5.2.1-.56.21-.32,1.15.25.94h0Z"/>
  <path class="cls-27" d="M619.08,117.44c-2.83,10.55-13.7,16.02-13.7,16.02,1.02-6.57,1.51-20.18,0-20.15-1.53.02-5.66,4.92-5.27,2.5.4-2.41,2.67-5.97-.33-11.17-3-5.2-.43-11.6-.43-11.6,0,0-.02,0-.07.03-.01,0-.03,0-.04.02-.54.25-1.16.46-1.83.64,0,0-.01,0-.02,0-1.79.49-3.98.77-6.32.89-2.07.11-4.26.08-6.43-.04-2.32-.14-4.59-.38-6.64-.71-1.94-.31-3.67-.69-5.02-1.12-.84-.26-1.57-.43-2.22-.53-.52-.08-.98-.11-1.4-.11-2.92.02-3.28,1.87-3.28,1.87-4.42-6.29-3.56-10.53-2.49-14.49,1.91-7.06,7.48-10.48,7.48-10.48,1.46,2.52,4.33,2.91,4.33,2.91-.2-.59-.31-1.15-.35-1.66-.15-1.71.38-2.88.45-3.01,0,0,0,0,0,0,0,0,5.92,5.7,20.22,4.04,19.51-2.27,19.23,12.2,19.23,12.2,9.54,5.75,6.95,23.42,4.12,33.97Z"/>
  <g>
    <path class="cls-18" d="M600.99,117.68s4.69-7.54,9.08-4.12c4.39,3.42-.11,9.73-1.8,12.15-1.81,2.59-2.86,2.61-6.05,1.78-3.19-.84-1.22-9.8-1.22-9.8Z"/>
    <path class="cls-13" d="M602,126.86c1.04,1.91,3.51,1.78,5.02.6.95-.74,1.62-1.79,2.24-2.83.74-1.25,1.45-2.54,1.97-3.92.86-2.3,1.26-5.43-.85-7.14-2.08-1.68-4.85-.89-6.52.99-.22.25.13.62.35.37,1.55-1.75,4.22-2.52,6.07-.76,1.86,1.77,1.13,4.87.23,6.96-.77,1.8-1.78,3.78-3.08,5.23-1.25,1.39-3.86,2.34-5.01.24-.16-.29-.59-.03-.43.26h0Z"/>
    <path class="cls-13" d="M607.11,115.06c-.74.32-1.46.75-1.89,1.5-.49.87-.31,1.54-.07,2.43.47,1.68-1.16,2.02-1.97,3.09-.46.61-.59,1.35-.21,2.03.16.29.59.03.43-.26-.88-1.59,2.1-2.5,2.36-3.96.11-.61-.2-1.02-.34-1.58-.33-1.34.77-2.28,1.81-2.73.29-.12.17-.63-.13-.5h0Z"/>
  </g>
  <path class="cls-11" d="M614.97,83.48c-3.06,6.72-15.62,9.57-15.62,9.57,0,0-.02,0-.07.03-.01,0-.03,0-.04.02-.24.09-.89.32-1.83.64,0,0-.01,0-.02,0-1.79.49-3.98.77-6.32.89-2.07.11-4.26.08-6.43-.04-2.32-.14-4.59-.38-6.64-.71-1.94-.31-3.63-.86-5.02-1.12-6.41-1.21-.05-11.06-.05-11.06,2.13,3.51,5.4,3.93,5.4,3.93-2.25-3.65,1.24-7.98,1.24-7.98,3.37,6.43,9.75,2.51,9.75,2.51,0,0-3.33-.78-5.1-3.44-2.82-4.22-.68-7.83-.68-7.83,0,0,3.19,3.95,12.19,2.41,19.23-3.29,19.23,12.2,19.23,12.2Z"/>
  <path class="cls-11" d="M585.77,68.58s2.72,4.38,8.36,4.16l.28-1.27s-4.73.03-8.64-2.89Z"/>
  <path class="cls-27" d="M573.61,67.83s.37,4.03,2.93,4.92v-1.25s-1.78-.77-2.93-3.67Z"/>
  <path class="cls-11" d="M569.21,81.78s-2.73,9.66,2.35,10.54l-.47-3.51s-2.42-2.23-1.88-7.03Z"/>
  <path class="cls-11" d="M576.96,78.51s-.89,5.92,1.46,7.56c2.35,1.64,1.99-1.01,1.99-1.01,0,0-3.03-1.68-3.45-6.55Z"/>
  <path class="cls-18" d="M610.44,352.08s32.53-13.27,47.61-21.71c19.19-10.74,24.23-16.92,30.83-22.33,6.64-5.45,8.82-9.39,8.82-9.39,0,0,8.83-57.5-45.92-119.82l-30.99,31.56s39.57,65.11,34.99,70.93c-21.29,27.05-40.84,48.73-57.37,52.39l12.03,18.37Z"/>
  <path class="cls-33" d="M546.35,404.46c-7.76,2.08-15.85,1.65-23.34-1.28-.44-.17-.25-.9.2-.72,7.36,2.88,15.3,3.33,22.94,1.28.47-.13.67.6.2.72h0Z"/>
  <path class="cls-33" d="M533.85,408.38c2.8-.8,5.35-2.08,7.66-3.84.38-.29.76.36.38.65-2.36,1.8-4.99,3.1-7.84,3.92-.46.13-.66-.59-.2-.72h0Z"/>
  <path class="cls-33" d="M534.73,336.82c1.07,2.26,1.74,4.61,2.03,7.1.03.3-.34.45-.56.32-2.35-1.27-4.82-2.14-7.44-2.66-.47-.09-.27-.82.2-.72,2.68.52,5.21,1.44,7.62,2.73-.19.11-.38.22-.56.32-.27-2.35-.91-4.58-1.93-6.72-.21-.43.44-.81.65-.38h0Z"/>
  <path class="cls-33" d="M479.49,440.97c.16,0,.29-.12.3-.28.02-.43,2.38-42.8,8.82-65.41,3.15-11.07,38.36-23.92,53.35-28.93,4.51-1.51,6.97-3.97,7.07-4.07.12-.12.12-.31,0-.42-.12-.12-.31-.11-.42,0-.02.02-2.48,2.47-6.84,3.93-8.36,2.8-20.6,7.2-31.43,12.34-13.4,6.36-20.91,12.08-22.31,17-6.46,22.68-8.82,65.12-8.84,65.54,0,.17.12.31.28.32,0,0,.01,0,.02,0Z"/>
  <path class="cls-33" d="M469.13,445.52c-4.62,5.36-8.69,11.12-12.2,17.25-.24.42-.89.04-.65-.38,3.55-6.19,7.66-12,12.32-17.4.32-.37.84.17.53.53h0Z"/>
  <path class="cls-33" d="M464.16,455.88c-.69,2.47-1.17,4.97-1.42,7.52-.05.48-.8.48-.75,0,.26-2.62.73-5.19,1.45-7.72.13-.46.85-.27.72.2h0Z"/>
  <path class="cls-33" d="M561.02,343.74c8.42.3,16.81.88,25.19,1.73.48.05.48.8,0,.75-8.38-.85-16.78-1.43-25.19-1.73-.48-.02-.48-.77,0-.75h0Z"/>
  <path class="cls-33" d="M561.53,344.61c7.48,1.99,14.61,4.95,21.3,8.83.42.24.04.89-.38.65-6.64-3.85-13.71-6.78-21.12-8.76-.47-.12-.27-.85.2-.72h0Z"/>
  <path class="cls-33" d="M632.59,354.59v2.8c0,.48-.75.48-.75,0v-2.8c0-.48.75-.48.75,0h0Z"/>
  <path class="cls-33" d="M631.48,365.12c-.4,1.6-.79,3.2-1.19,4.8-.12.47-.84.27-.72-.2.4-1.6.79-3.2,1.19-4.8.12-.47.84-.27.72.2h0Z"/>
  <path class="cls-33" d="M625.21,375.32c-1.6,1.07-3.2,2.13-4.8,3.2-.4.27-.78-.38-.38-.65,1.6-1.07,3.2-2.13,4.8-3.2.4-.27.78.38.38.65h0Z"/>
  <path class="cls-33" d="M613.91,380.89c-1.24.21-2.39.63-3.48,1.26-.42.24-.8-.4-.38-.65,1.14-.66,2.36-1.11,3.66-1.34.47-.08.67.64.2.72h0Z"/>
  <path class="cls-33" d="M600.61,382.9c-1.46.16-2.93.32-4.39.48-.48.05-.48-.7,0-.75,1.46-.16,2.93-.32,4.39-.48.48-.05.48.7,0,.75h0Z"/>
  <path class="cls-33" d="M586.62,383.77h-2.8c-.48,0-.48-.75,0-.75h2.8c.48,0,.48.75,0,.75h0Z"/>
  <path class="cls-33" d="M575.42,384.17h-3.6c-.48,0-.48-.75,0-.75h3.6c.48,0,.48.75,0,.75h0Z"/>
  <path class="cls-33" d="M562.22,384.17h-3.6c-.48,0-.48-.75,0-.75h3.6c.48,0,.48.75,0,.75h0Z"/>
  <path class="cls-33" d="M551.33,384.1c-.53-.14-1.07-.27-1.6-.41-.47-.12-.27-.84.2-.72l1.6.41c.47.12.27.84-.2.72h0Z"/>
  <path class="cls-33" d="M543.82,383.37h-2c-.48,0-.48-.75,0-.75h2c.48,0,.48.75,0,.75h0Z"/>
  <path class="cls-33" d="M535.71,384.18c-.61-.15-1.2-.03-1.72.31-.4.27-.78-.38-.38-.65.69-.45,1.5-.58,2.3-.39.47.11.27.84-.2.72h0Z"/>
  <path class="cls-33" d="M527.02,386.17c-.98.12-1.87.63-2.47,1.42-.29.38-.94,0-.65-.38.77-1.02,1.84-1.63,3.11-1.79.48-.06.47.69,0,.75h0Z"/>
  <path class="cls-33" d="M520.49,390.86c-.4.4-.8.8-1.2,1.2-.34.34-.87-.19-.53-.53.4-.4.8-.8,1.2-1.2.34-.34.87.19.53.53h0Z"/>
  <path class="cls-33" d="M517.3,398.36c-.35.66-.45,1.39-.29,2.13.1.47-.62.67-.72.2-.2-.94-.08-1.86.37-2.7.22-.43.87-.05.65.38h0Z"/>
  <path class="cls-33" d="M516.2,406.19v1.6c0,.48-.75.48-.75,0v-1.6c0-.48.75-.48.75,0h0Z"/>
  <path class="cls-33" d="M518.19,416.19c.15,1.46.3,2.93.46,4.39.05.48-.7.48-.75,0-.15-1.46-.3-2.93-.46-4.39-.05-.48.7-.48.75,0h0Z"/>
  <path class="cls-33" d="M518.6,427.79v4.8c0,.48-.75.48-.75,0v-4.8c0-.48.75-.48.75,0h0Z"/>
  <path class="cls-33" d="M517.24,440.27c-.19,1.34-.39,2.69-.58,4.03-.07.48-.79.27-.72-.2.19-1.34.39-2.69.58-4.03.07-.48.79-.27.72.2h0Z"/>
  <path class="cls-33" d="M514.93,453.57c-.4.93-.8,1.87-1.2,2.8-.19.44-.84.06-.65-.38.4-.93.8-1.87,1.2-2.8.19-.44.84-.06.65.38h0Z"/>
  <path class="cls-33" d="M512.2,465.39v1.6c0,.48-.75.48-.75,0v-1.6c0-.48.75-.48.75,0h0Z"/>
  <path class="cls-33" d="M509.37,477.69c.16,1.08.02,2.09-.41,3.09-.19.44-.84.06-.65-.38.34-.79.46-1.66.34-2.51-.07-.47.65-.68.72-.2h0Z"/>
  <path class="cls-33" d="M508.6,489.39v1.2c0,.48-.75.48-.75,0v-1.2c0-.48.75-.48.75,0h0Z"/>
  <path class="cls-33" d="M507,500.59v4c0,.48-.75.48-.75,0v-4c0-.48.75-.48.75,0h0Z"/>
  <path class="cls-33" d="M505.7,514.27c-.13.67-.26,1.33-.4,2-.09.47-.82.27-.72-.2.13-.67.26-1.33.4-2,.09-.47.82-.27.72.2h0Z"/>
  <path class="cls-33" d="M505,524.19v.4c0,.48-.75.48-.75,0v-.4c0-.48.75-.48.75,0h0Z"/>
  <path class="cls-30" d="M631.41,165.18s16.18,2.11,26,12.21c6.12,6.29,18.96,28.51,24.85,39.98,0,0-16.74,27.16-51.73,23.43-15.08-1.61-17.61-28.95-17.61-28.95l18.49-46.67Z"/>
  <path class="cls-35" d="M533.96,213.42c3.65,7.09,6.06,14.66,7.17,22.55.05.38-.53.54-.58.16-1.11-7.84-3.49-15.36-7.11-22.41-.18-.34.34-.65.52-.3h0Z"/>
  <path class="cls-35" d="M593.89,261.19c-4.81,8.46-12.36,14.95-21.43,18.46-.36.14-.52-.44-.16-.58,8.92-3.46,16.34-9.87,21.07-18.19.19-.34.71-.03.52.3h0Z"/>
  <path class="cls-35" d="M591.35,272.06c-3.27,7.78-7.56,15.01-12.83,21.6-.24.3-.67-.13-.43-.43,5.2-6.5,9.45-13.66,12.67-21.33.15-.35.73-.2.58.16h0Z"/>
  <path class="cls-35" d="M640.87,241c-1.07.21-2.14.42-3.21.62-.59.12-1.83.58-2.47.33-.89-.35-1.33-1.46-1.83-2.19-2.75-4.02-5.83-7.79-9.17-11.34-.27-.28.16-.71.43-.43,2.38,2.54,4.64,5.18,6.74,7.96,1,1.33,1.84,3.06,3.01,4.22.38.96,1.16,1.3,2.34,1.03.27-.05.53-.1.8-.16,1.07-.12,2.15-.42,3.21-.62.38-.07.54.51.16.58h0Z"/>
  <g>
    <path class="cls-18" d="M549.33,340.05c1.12-4.01,26.11-9.52,31.02-9.68,5.35-.17,26.89,4.2,26.89,4.2l3.2,17.51s-23.01,6.8-32.4,4.61c-1.28-.3-4.55,8.24-6.61,7.56-1.16-.38,1.15-8.23,1.95-12.26.1-.49-.47-.86-.85-.54-4.29,3.59-9.03,13.61-12.03,12.48-.63-.24,1.12-6.43,2.12-10.35.54-2.1,2.85-5.17,4.89-7.56.16-.19-.07-.47-.28-.34-2.45,1.42-5.1,3.76-6.41,5.35-2.26,2.72-7.31,10.48-11.24,10.12-1.64-.15,4.4-10.2,6.34-14.52.31-.7.91-1.45,1.67-2.23.14-.15-.04-.39-.22-.29-1.57.9-2.86,1.72-3.3,2.19-4.07,4.35-8.55,10.58-12.56,9.44-1.04-.3,7.37-14.04,7.83-15.68Z"/>
    <path class="cls-13" d="M600.8,332.87c3.05.8,5.75,2.45,7.87,4.79.26.29-.17.71-.43.42-2.05-2.27-4.65-3.85-7.61-4.63-.37-.1-.2-.68.17-.58h0Z"/>
    <path class="cls-13" d="M570.2,342.92c-1.24,1.41-2.57,2.73-3.98,3.97-.29.26-.71-.18-.42-.43,1.41-1.24,2.74-2.56,3.98-3.97.26-.29.67.14.42.43h0Z"/>
    <path class="cls-13" d="M559.66,342.38c-.82.7-1.64,1.4-2.46,2.09-.29.25-.71-.18-.42-.43l2.46-2.09c.29-.25.71.18.42.43h0Z"/>
    <path class="cls-13" d="M574.62,349.5c-.63,1-1.39,1.91-2.27,2.7-.29.26-.71-.17-.42-.43.84-.76,1.57-1.62,2.17-2.58.21-.33.72-.02.51.31h0Z"/>
  </g>
  <g>
    <path class="cls-27" d="M203.11,129.42l.65,38.72-69.25,74.22s-15.29-15.91-38.73-11c-6.5,1.36-11.82.62-16.11-1.16-4.59-21.37,4.46-38.29,4.46-38.29-8.96,9.85-10.39,25.82-10.5,34.69-6.64-5.34-9.27-12.67-9.27-12.67-2.35-23.18,18.31-67.82,62.3-71.98,43.99-4.16,44.56-34.67,44.56-34.67l31.89,22.14Z"/>
    <path class="cls-20" d="M71.16,222.67c-3.99-20.96,3.12-42.75,18.97-57.1,7.69-6.96,17.06-11.93,27.18-14.2,5.97-1.34,12.08-1.94,17.97-3.64,5.25-1.52,10.36-3.69,15-6.59,8.06-5.05,15.04-12.65,16.4-22.38.05-.32-.46-.37-.51-.04-1.41,10.15-9.09,17.96-17.65,22.89-5.31,3.05-11.12,5.24-17.09,6.58-5.84,1.31-11.83,1.89-17.6,3.54-18.52,5.28-34,19.81-40.58,37.9-3.84,10.58-4.69,22.1-2.59,33.14.06.32.56.23.5-.09h0Z"/>
    <path class="cls-20" d="M163.2,123.15c.49,10.05-10.45,16.52-18.15,20.49-9.24,4.77-19.21,7.83-28.86,11.6-17.58,6.88-34.22,17.81-42.27,35.56-4.36,9.6-5.79,20.48-3.32,30.78.08.32.57.21.5-.11-4.81-20.06,5.29-39.97,20.83-52.36,7.95-6.34,17.09-10.61,26.53-14.21,9.67-3.68,19.63-6.82,28.73-11.83,7.33-4.03,16.99-10.36,16.53-19.9-.02-.32-.52-.35-.51-.03h0Z"/>
    <path class="cls-20" d="M162.92,124.03c6.01,10.4-5.89,19.66-13.53,24.55-8.43,5.4-17.68,9.31-26.67,13.65-14.74,7.1-30.6,16.65-36.57,32.8-3.52,9.53-2.61,20.28,2.19,29.2.15.29.6.05.45-.24-4.84-9-5.65-19.82-1.94-29.37,3.16-8.12,9.16-14.75,15.96-20.05,15.34-11.93,34.77-16.72,50.49-28.04,6.88-4.96,15.33-13.65,10.07-22.75-.16-.28-.61-.05-.45.24h0Z"/>
    <path class="cls-18" d="M223.81,286.9c.17.45.47.84.86,1.12,3.66,2.69,13.87,6.79,43.57,10.09,21.04,2.33,43.47,1.52,43.47,1.52l3.26-23.65s-7.97,2.04-40.42-5.07c-15.52-3.4-23.76-2.4-23.76-2.4,0,0-39.56-14.26-26.97,18.41Z"/>
    <path class="cls-15" d="M210.1,327.57l-1.52-45.4c.55,3.08,1.83,6.05,3.49,8.66,3.47,5.47,8.61,9.37,12.16,9.37h75.48c7.34-4.13,4.18-24.34,4.18-24.34,0,0-57.61-11.3-62.74-16.68-6.64-6.98-8.07-35.07-14.27-60.85-5.65-23.5-23.13-30.18-23.13-30.18l-31.19,52.43-7.97,104.84,45.5,2.15Z"/>
    <path class="cls-18" d="M123.1,401.34c25.16-12.65,88.42-7.28,114.76-15.52,1.51-.47,2.96-.93,4.35-1.38-2.95,10.27-5.88,24.1-3.92,38.03,1.02,7.22,2.96,19.73,5.06,32.86,3.81,23.94,8.09,49.97,8.09,49.97,11.59,6.35,27.32,4.64,27.32,4.64,0,0,3.34-78.06,10.46-141.56.41-3.66-1.38-29.12-30.8-33.12-31.55-4.28-57.47-8.58-78.75-12.71-77.33-15.02-81.94,91.53-56.59,78.78Z"/>
    <path class="cls-7" d="M238.29,422.47c1.02,7.22,2.96,19.73,5.06,32.86,17-3.21,5.69-51.25,17.46-75.86,12.17-25.45-17.13-35.88-17.13-35.88l-5.82,42.23c1.51-.47,2.96-.93,4.35-1.38-2.95,10.27-5.88,24.1-3.92,38.03Z"/>
    <path class="cls-18" d="M91.24,347.98c-1.43-22.54,16.17-40.85,34.72-36.07,16.85,4.34,44.2,14.51,108.82,32.86,51.96,14.75,7.53,48.08.59,43.51-13.89-9.15-68,20.92-120.97,2.85-22.78-7.77-17.99-29.5-23.16-43.14h0Z"/>
    <path class="cls-2" d="M198.62,265.79s-4.05,35.72-.72,50.87c3.33,15.15-27.29-14.84-27.29-14.84l2.73-20.38,25.28-15.65Z"/>
    <path class="cls-18" d="M258.04,372.07c-30.49,86.42-40.54,143.87-40.54,143.87,0,0-16.96,2.75-26.6-6.3,0,0-1-43.67-3.74-64.09-3.94-29.3,12.28-51.07,17.27-59.21,4.06-6.61,58.59-28.39,53.61-14.28Z"/>
    <path class="cls-6" d="M91.07,397.8c13.12,3.59,33.7,2.37,53.07.57,10.91-1.02,21.43-2.22,30.02-2.85,17.16-1.26,23.13,2.51,23.13,2.51,0,0,3.65-6.14,8.47-13.82,9.8-15.63,27.01-38.56,41.23-33.83,1.81.61,3.54,1.05,5.19,1.37,0,0,.02,0,.02,0,7.16,1.39,12.75.31,16.86-1.47,6-2.58,8.86-6.64,8.86-6.64-5.86-6.26-22.57-15.67-57.75-22.94-16.28-3.36-26.76-7.09-33.32-10.12-6.07-2.8-10.08-8.74-10.4-15.42l-.24-5.07-65.94-19.19s1.3,12.65-18.17,42.92c-19.47,30.27-36.27,74.34-1.02,83.99Z"/>
    <path class="cls-18" d="M252.92,545.87c8.57,1.35,12.32,11.11,15.35,11.33,3.03.23,33.52,2,36.15,0,2.63-2-8.81-8.34-8.81-8.34-1.13-.35-10.51-13.11-14.01-19.76-4.04-7.67-2.83-19.16-2.83-19.16l-27.32-4.64s.34,2.41.61,5.78c.6,7.61-1.09,17.37-2.36,21.42,0,0-5.34,12.01,3.23,13.36Z"/>
    <path class="cls-37" d="M253.47,548.99c9.22,1.65,13.83,15.02,17.09,15.29l39.39-.27c2.82-2.44-1.96-10.33-11.09-13.54-1.22-.43-2.3-.97-3.26-1.61.06.19,1.36,4.74-6.3,4.04-7.82-.71-18.46-1.2-25.19-10.84-6.73-9.64-14.15-10.52-14.15-10.52-5.18,5.64-5.71,15.79,3.5,17.44Z"/>
    <path class="cls-37" d="M246.98,544.44l4.96,18.72c.17.66.77,1.12,1.45,1.12h3.47c1.1,0,1.99-.9,1.96-2l-.32-15.02-11.52-2.82Z"/>
    <path class="cls-18" d="M191.89,545.87c8.57,1.35,12.32,11.11,15.35,11.33,3.03.23,33.52,2,36.15,0,2.63-2-8.81-8.34-8.81-8.34-1.13-.35-10.51-13.11-14.01-19.76-4.04-7.67-2.83-19.16-2.83-19.16l-27.02-6.88s.04,4.65.3,8.02c.6,7.61-1.09,17.37-2.36,21.42,0,0-5.34,12.01,3.23,13.36Z"/>
    <path class="cls-6" d="M192.44,548.99c9.22,1.65,13.89,15.02,17.15,15.29l38.84-.27c2.82-2.44-1.47-10.33-10.6-13.54-1.22-.43-2.3-.97-3.26-1.61.06.19,1.36,4.74-6.3,4.04-7.82-.71-18.46-1.2-25.19-10.84-6.73-9.64-14.15-10.52-14.15-10.52-5.18,5.64-5.71,15.79,3.5,17.44Z"/>
    <path class="cls-6" d="M185.94,544.44l5.2,18.86c.16.58.69.98,1.29.98h3.85c.66,0,1.19-.53,1.19-1.19v-15.83l-11.52-2.82Z"/>
    <path class="cls-33" d="M144.14,398.37c10.91-1.02,21.43-2.22,30.02-2.85,17.16-1.26,23.13,2.51,23.13,2.51,0,0,3.65-6.14,8.47-13.82-11.37-1.16-57.22-7.85-58.9-40.62-1.43-27.83-2.34,25.57-2.71,54.78Z"/>
    <path class="cls-18" d="M307.4,279.77s16.35-11.04,15.99-4.63c-.57,10.02,19.24,6.43,20.16,9.75s-9.01,10.08-13.52,13.12c-4.52,3.04-15.99,3.54-20.33-.32-3.93-3.49-2.29-17.92-2.29-17.92Z"/>
    <path class="cls-18" d="M142.06,255.76c2.87-36.74-6.16-86.17,3.42-89.4,9.58-3.23,14.46-2.62,22.82-5.23,10.33-3.22,11.08-4.42,27.16,4.64,16.07,9.05,13.86,8.98,13.86,8.98,0,0,8.88,40.02,8.8,49.61-.13,14.75-8.41,17.66-8.41,17.66,0,0-17.98,19.7-21.01,30.42-.88,3.13-8.38,3.36-8.38,3.36l-55.17.43s16.13-10.42,16.91-20.47Z"/>
    <path class="cls-30" d="M135.69,214.19s4.47,35.03,4.81,40.49c.04.61-.16,1.27-.53,1.98-2.98,5.64-17.25,14.07-14.82,19.57.72,1.61,5.64,3.47,12.54,5.33,0,0,0,0,.01,0h.03s.06.02.11.04c1.16.31,36.39,10.65,36.39,10.64-.03-.16,4.61,3.97,4.54,1.4-.12-4.43,13.83-17.58,18.33-25.18h0c7.13-12.07,12.44-26.01,12.61-26.44,0,0,0-.01,0-.01,0,0,0,0,.02,0,.22-.05,2.78-.68,5.31-2.83,3.43-2.91,6.8-8.62,4.19-19.46-2.78-11.55-3.22-35.81-8.98-46.02-1.04-1.84-14.88-8.09-14.88-8.09,0,0,5.4,26.24,0,31.61-5.31,5.29-16.7-1.47-24.73-18.16-.98-2.03-8.17-14.11-10.76-16.13-.13-.1-8.25.98-17.64,3.65-4.06,1.15-11.63,8.88-6.55,47.61Z"/>
    <path class="cls-18" d="M114.95,255.51s17.96-35.15,29.85-41.42c11.88-6.27-13.9-19.27-25.34-16.49-11.44,2.77-34.84,47.24-26.7,73.37l22.19-15.45Z"/>
    <path class="cls-27" d="M213.94,118.81s6.53-8.41-.47-19.29c-7-10.88-12.27-14.37-22.29-14.47-10.03-.1-22.27-2.55-29.93,3.84-11.87,9.89-15.35,28.38-7.62,44.3,7.72,15.92,20.97,11.6,26.55,15.58,5.58,3.98,33.76-29.94,33.76-29.94Z"/>
    <path class="cls-18" d="M165.95,167.66s8.73,12.02,24.53,9.78c0,0,.44-7.72,2.28-14.93.8-3.15,1.87-6.21,3.29-8.48.22-.35.44-.68.68-.99,5.22-6.94-19.41-21.08-19.59-21.18.04.13,1.38,4.16.74,9.95-.13,1.19-.35,2.46-.68,3.79-.36,1.44-.85,2.94-1.51,4.49-4.28,9.98-9.72,17.59-9.72,17.59Z"/>
    <path class="cls-10" d="M177.87,141.8c-.13,1.19-.35,2.46-.68,3.79,3.41,8.68,15.37,16.79,15.57,16.92.8-3.15,1.87-6.21,3.29-8.48-5.23-4.36-14.67-11.85-18.18-12.23Z"/>
    <path class="cls-15" d="M195.37,165.6c7.48.8,14.88,8.09,14.88,8.09l7.87,11.7,5.72,42.13s-14.23,56.73-14.36,81.22c-.02,3.15-12.07,3.32-12.6,0-4.82-30.33,5.24-100.75,5.24-100.75l-6.74-42.4Z"/>
    <path class="cls-18" d="M176.45,147.52c12.93,10.32,25.74,9.88,28.87,8.99,3.13-.89,3.25-3.69,7.87-10.91,3.19-4.98,4.02-9.69,3.65-13.25h0c-.16-1.61-.58-2.98-1.13-4.03-.17-.33-.32-.63-.43-.91,0-.02-.02-.04-.02-.06-1.02-2.56.25-3.39.54-7.85.06-1.05-.27-2.4-.84-3.89-.25-.66-.55-1.35-.88-2.04-2.45-5.16-6.65-10.88-6.65-10.88-21.25-15.32-37.73,1.85-39.38,10.05-1.66,8.2-4.52,24.46,8.4,34.79Z"/>
    <g>
      <path class="cls-18" d="M184.89,274.7s22.65,12.41,21.86,14.17c-1.4,3.13-7.66-.73-7.66-.73,0,0,8.52,6.2,8.27,7.16-.87,3.31-11.32-2.21-11.32-2.21,0,0,6.73,4.62,6.16,5.66-1.8,3.28-12.08-2.34-12.08-2.34,0,0,2.62,2.17,3.92,3.72.53.63-1.89,2.36-3.56,1.38-4.24-2.48-11.13-5.2-15.74-6.82-.57-.2-1.53.37-2.9.94-4.85,2.01-13.58-5.87-15.9-10.33-2.31-4.46,5.76-6.04,7.59-7.24,4.51-2.98,15.44-5.18,21.37-3.34Z"/>
      <path class="cls-36" d="M190.76,296.68c-2.03-1.48-4.81-2.58-6.22-4.75-.11-.16-.38-.02-.27.14,1.46,2.23,4.24,3.34,6.33,4.86.16.12.32-.14.17-.25h0Z"/>
      <path class="cls-36" d="M197.85,294.23c-1.83-1.46-3.78-2.74-5.72-4.04-1.32-.88-3.49-1.92-4.28-3.36-.09-.17-.37-.03-.27.14.69,1.26,2.37,2.12,3.5,2.88,2.23,1.51,4.5,2.95,6.6,4.63.15.12.32-.13.17-.25h0Z"/>
      <path class="cls-36" d="M200.52,288.84c-3.43-2.61-7.97-4.21-10.94-7.35-.13-.14-.36.06-.23.2,2.99,3.17,7.55,4.77,11,7.4.16.12.32-.14.17-.25h0Z"/>
      <path class="cls-36" d="M174.52,294.79c-.98-1.07-2.23-2.77-2.05-4.31.02-.19-.28-.21-.3-.02-.19,1.64,1.09,3.39,2.13,4.53.13.14.36-.06.23-.2h0Z"/>
      <path class="cls-36" d="M174.52,294.86c-.45-1-.55-2.06-.29-3.12.05-.19-.24-.29-.29-.1-.28,1.15-.18,2.28.31,3.36.08.18.35.04.27-.14h0Z"/>
      <path class="cls-36" d="M174,294.31c-.99.49-2.09,1.26-3.23,1.26-.2,0-.21.3-.02.3,1.22,0,2.33-.77,3.39-1.29.17-.09.04-.36-.14-.27h0Z"/>
    </g>
    <path class="cls-27" d="M184.59,115.61s2.49-5.59,12.87-2.51c6.17,1.83,5.13,4.72,1.59,4.15-3.54-.57-4.5-4-14.46-1.64Z"/>
    <path class="cls-27" d="M211.69,117.79c1.4-.25,2.72-1.88,3.83-2.49-.25-.66-.55-1.35-.88-2.04-.44,0-.96.11-1.55.34-4.07,1.66-3.74,4.61-1.4,4.19Z"/>
    <path class="cls-27" d="M193.44,123.15c-.01,1.43,1.14,2.61,2.57,2.62,1.43.02,2.61-1.13,2.62-2.57,0-.1,0-.19-.02-.29,0-.09-.02-.17-.04-.26-.03-.17-.08-.33-.15-.48-2.07-.2-3.36-.48-4.24-.82-.3.31-.53.69-.65,1.12,0,.02-.01.04-.02.05,0,.03-.02.06-.02.1-.04.17-.06.34-.06.52Z"/>
    <path class="cls-27" d="M209.77,123.41c0,.16.01.32.04.46.2,1.07,1.14,1.87,2.27,1.89,1.22.02,2.22-.9,2.34-2.09.01-.07.02-.15.02-.22,0-.17-.02-.33-.05-.49-.04-.22-.12-.43-.23-.63-.26.14-.56.29-.91.45-.74.33-2.45.45-3.48.55,0,.02,0,.04,0,.06Z"/>
    <g class="cls-24">
      <path class="cls-17" d="M185.85,126.92c1.49-1.01,3.59-1.3,5.44-.73,1.02.31,2.04.61,3.06.92,2,.6,4.12,1.28,5.26,2.74.32.42.52.9.49,1.38-.06,1.21-1.31,1.66-2.5,1.93-3.18.71-6.69.54-9.75-.49-.49-.16-.97-.36-1.43-.58-2.38-1.14-2.67-3.75-.58-5.17h0Z"/>
    </g>
    <g class="cls-24">
      <path class="cls-17" d="M211.48,130.98c.02.93.58,1.3,1.11,1.52,1.37.56,2.9.51,4.25-.16h0c-.16-1.61-.58-2.98-1.13-4.03-.17-.33-.32-.63-.43-.91,0-.02-.02-.04-.02-.06-.37.18-.74.36-1.11.53-.92.44-1.89.93-2.42,2.04-.15.32-.25.69-.24,1.06Z"/>
    </g>
    <path class="cls-10" d="M209.3,118.79c-1.98.97-2.87,3.16-2.72,5.3.19,2.62,1.87,4.84,3.42,6.84.73.94,1.72,2.23.92,3.42-.89,1.33-3.36,1.8-4.79,2.08-.31.06-.43-.41-.13-.47,1.19-.23,2.7-.54,3.71-1.24,2.09-1.45.11-3.16-.83-4.42-1.06-1.41-2.03-2.93-2.51-4.64-.77-2.71,0-5.96,2.68-7.28.28-.14.53.29.24.42h0Z"/>
    <path class="cls-38" d="M210.29,140.74s0,0,0,0c0,0,0,.02,0,.05,0,.05,0,.13-.01.25,0,.06,0,.13-.02.2-.15,1.56-1.01,6.17-6.12,5.36-4.95-.78-6.36-4.58-6.72-6.02-.03-.1-.04-.19-.06-.26h0c.05-.08.1-.13.16-.18h0c.08.04.15.06.24.1,1.54.53,3.85-.16,5.16-1.06,1.45-1,3.19.38,3.19.38,0,0,0,0,0,0,.49-.5,1.03-.63,1.55-.57,1.33.17,2.55,1.65,2.62,1.75Z"/>
    <path class="cls-21" d="M210.35,141.02s-.05.02-.08.03c-4.19,1.68-8.81,1.41-12.72-.61-.07-.03-.14-.07-.2-.11h0c.05-.08.1-.13.16-.18h0c.07.04.14.08.21.11,3.86,1.98,8.43,2.21,12.55.53t0,0c.14-.05.2.17.07.22Z"/>
    <path class="cls-21" d="M210.41,140.05c-.2.44-.07.95.3,1.25.11.1.25-.09.13-.19-.29-.24-.37-.64-.22-.98.06-.14-.16-.22-.22-.08h0Z"/>
    <path class="cls-21" d="M197.94,140.07c-.07.05-.13.11-.19.17,0,0-.02,0-.02.02-.06.06-.12.11-.17.18-.05.05-.1.1-.15.15-.14.17-.27.35-.38.54-.07.13-.28.02-.21-.11.15-.26.33-.49.53-.7.05-.06.1-.12.16-.17h0c.1-.09.19-.19.3-.27.12-.09.24.1.13.2Z"/>
    <path class="cls-32" d="M202.88,143.05l.19-.1c1.06.02,2.13.04,3.15-.23.39-.1.77-.25,1.17-.22.4.03.81.31.83.71.01.39-.33.68-.67.87-1.09.61-2.4.73-3.64.63-.46-.04-.98-.15-1.24-.54-.23-.35-.13-.88.21-1.13Z"/>
    <path class="cls-10" d="M207.53,149.99c-1.81-.72-3.7-.85-5.58-.31-.61.17-.33,1.11.28.94,1.61-.46,3.27-.39,4.83.23.58.23,1.05-.62.47-.86h0Z"/>
    <g class="cls-24">
      <path class="cls-30" d="M209.15,133.27c-1.47.21-2.86.65-4.18,1.33-.56.29-.14,1.17.42.88,1.25-.64,2.55-1.05,3.93-1.25.62-.09.46-1.05-.17-.96h0Z"/>
    </g>
    <path class="cls-15" d="M165.69,161.87s11.79,36.12,13.02,60.52c1.24,24.4-28.01,32.72-23.65,125,2.34,49.58-2.7,76.01-5.55,84.35,0,0-37.44,12.35-52.86-2.76-15.42-15.11-22.3-25.41-34.91-28.06,0,0,4.74-39.53,21.09-80.04,21.27-52.69,36.62-123.29,36.62-123.29l46.24-35.73Z"/>
    <path class="cls-27" d="M197.72,99.36s-7.54-.84-11.59,6.49c-4.05,7.34-12.48,17.04-14.49,17.91-2.02.87.94,10.37.94,10.37,0,0,7.59,8.88,3.4,15.21,0,0-10.35-7.36-13.47-13.61-3.12-6.25,2.84-28.7,8.64-35.89,5.8-7.19,18.94-9.09,22.35-7.66,3.41,1.43,4.22,7.17,4.22,7.17Z"/>
    <g>
      <path class="cls-18" d="M178.14,124.14s-4.85-7.61-9.5-4.24c-4.65,3.38.01,9.76,1.77,12.21,1.88,2.62,2.98,2.65,6.35,1.85,3.37-.8,1.39-9.82,1.39-9.82Z"/>
      <g>
        <path class="cls-10" d="M176.55,133.06c-1.72,2.54-4.6.72-5.93-1.08-1.06-1.43-2.02-3.16-2.68-4.81-.93-2.34-1.5-5.76,1.22-7.19,1.99-1.05,4.17-.18,5.61,1.34.22.24.61-.09.39-.33-1.54-1.62-3.79-2.55-5.96-1.58-2.58,1.15-2.87,4.03-2.22,6.49.69,2.62,2.37,5.98,4.49,7.77,1.65,1.4,4.2,1.6,5.5-.33.18-.27-.23-.56-.41-.29h0Z"/>
        <path class="cls-10" d="M171.57,121.93c.77.26,1.36.75,1.78,1.46.12.82.04,1.6-.26,2.34.02.21-.02.44.03.66.3,1.34,3.17,2.32,2.4,3.93-.14.3.34.47.48.18.33-.7.25-1.3-.19-1.94-.96-1.38-2.28-1.21-1.96-3.44.27-1.85-.32-2.88-2.1-3.67-.3-.13-.47.34-.18.48h0Z"/>
      </g>
    </g>
    <path class="cls-2" d="M158.22,296.74s-37.2,10.27-66.97,1.62l6.85-20.77,58.38,14.31,1.75,4.84Z"/>
    <path class="cls-27" d="M197.72,99.36s8.11.59,13.93,8.71c.56.78,1.13,1.5,1.48,2.29,2.86,6.33-.43-21.02-19.63-18.17-19.21,2.85,4.22,7.17,4.22,7.17Z"/>
    <path class="cls-15" d="M159.89,162.93s-19.38,2.15-28.03,6.4c-8.66,4.26-16.13,19.82-26.54,33.96-10.42,14.14-25.54,48.53-16.58,72.32,8.96,23.79,68.73,26.3,75.87,18.4,0,0-3.56-7.23-2.01-14.94,0,0,.55-5.15-6.32-9.78-3.4-2.29-1.24-9.96-2.05-12.09-2.49-6.52-9.98-26.08-9.98-26.08l15.64-68.19Z"/>
    <path class="cls-3" d="M162.68,279.09c.75-8.65-10.1-11.72-17.64-14.07-9.83-3.05-19.11-9.67-30.24-7.96-.37.06-.34.56.03.51,10.29-1.58,18.79,4.1,27.75,7.2,7.61,2.63,20.33,4.99,19.53,14.23-.03.32.55.42.58.1h0Z"/>
    <path class="cls-3" d="M124.14,257.3c-1.86-3.01-4.04-5.76-6.53-8.26-.23-.23-.56.15-.33.38,2.47,2.47,4.61,5.19,6.45,8.17.17.28.59,0,.42-.29h0Z"/>
    <path class="cls-3" d="M124.28,257.37c.02-3.14,1.8-5.83,3.39-8.41,1.57-2.55,3.04-5.15,4.39-7.82,2.62-5.18,4.79-10.56,6.55-16.09.1-.31-.4-.41-.5-.1-1.96,6.17-4.46,12.17-7.51,17.89-1.42,2.67-3.04,5.21-4.56,7.82-1.22,2.11-2.26,4.28-2.27,6.75,0,.33.5.29.51-.03h0Z"/>
    <path class="cls-20" d="M196.59,96.94c-16.31-1.03-22.36,20.56-38.34,20.49-.32,0-.38.5-.05.5,16.05.07,22.13-21.51,38.34-20.49.33.02.38-.48.05-.5h0Z"/>
    <path class="cls-20" d="M196.56,96.77c-7.01-3.8-14.17,1.32-19.51,5.61-3.77,3.03-7.61,5.69-12.37,6.87-4.72,1.18-9.66.95-14.28-.55-.31-.1-.49.37-.18.48,7.32,2.39,15.46,1.52,22.01-2.59,6.87-4.32,14.93-14.34,24.03-9.4.28.15.58-.26.29-.41h0Z"/>
    <path class="cls-2" d="M135.45,233.34c2.07-4.42-5.67,12.19.12,19.51,5.79,7.33,14.46,13.76,14.46,13.76,0,0-16.08-5.35-25.89-9.31-2.03-.82,7.76-16.39,11.31-23.96Z"/>
    <path class="cls-3" d="M129.06,172.19c4.46,1.54,9.26,3.23,12.56,6.95,3.6,4.06,4.54,10.26,4.88,15.59.68,10.68-2.25,21.41-8.15,30.08.14.1.27.2.41.31.58-1.53,1.15-3.06,1.73-4.59.12-.32-.33-.57-.45-.25-.58,1.53-1.15,3.06-1.73,4.59-.1.25.23.57.41.31,6.24-9.16,9.22-20.57,8.18-31.84-.47-5.09-1.5-10.72-4.93-14.58-3.36-3.79-8.24-5.5-12.79-7.08-.31-.11-.42.41-.11.52h0Z"/>
    <path class="cls-3" d="M138.77,174.77c5.91-4.93,12.87-8.3,20.42-9.84.32-.06.28-.57-.03-.51-7.64,1.56-14.69,4.93-20.67,9.93-.25.21.03.63.29.42h0Z"/>
    <path class="cls-27" d="M187.69,86.43c4.91-2.26,11.29-1.59,15.91,1.12,5.14,3.01,5.83,8.65,6.08,14.08.01.33.51.24.5-.09-.27-5.87-1.17-11.69-6.81-14.7-4.74-2.53-10.97-3.14-15.9-.87-.3.14-.08.6.22.46h0Z"/>
    <path class="cls-18" d="M308.2,279.72s7.12-6.81,10.59-7.18c3.47-.37,11.29,3.12,14.6,2.2,3.32-.92,2.6,2.4-.75,4-3.35,1.6-11.79-1.8-17.79,3.22-1.35,1.13-6.65-2.25-6.65-2.25Z"/>
    <path class="cls-22" d="M321.72,279.21c-1.5,1.85-2.86,3.76-5.09,4.77-2.04.93-4.29,1.17-6.5,1.4-.32.03-.32.54,0,.51,2.26-.23,4.6-.47,6.69-1.43,2.29-1.04,3.7-2.99,5.24-4.89.2-.25-.15-.61-.36-.36h0Z"/>
    <path class="cls-22" d="M309.77,278.08c-.76.97-1.29,2.04-1.58,3.24-.08.32.41.44.49.12.27-1.11.74-2.11,1.45-3.01.2-.25-.16-.61-.36-.36h0Z"/>
    <path class="cls-22" d="M308.02,294.17c.11,1.43.59,2.78,1.44,3.94.19.26.63,0,.44-.26-.8-1.09-1.27-2.34-1.37-3.69-.02-.32-.53-.32-.51,0h0Z"/>
    <path class="cls-27" d="M190.12,121.13c1.09.65,2.24,1.07,3.42,1.35,1.64.39,3.35.48,5.08.44.51-.02,1.02-.04,1.53-.07,1.29-.08,1.37-.45.08-.53-.66-.04-1.25-.08-1.79-.14-2.07-.2-3.36-.48-4.24-.82-1.51-.57-1.89-1.29-3.05-1.97-1.12-.66-2.14,1.08-1.02,1.74Z"/>
    <path class="cls-27" d="M209.04,123.56c.02.15.32.25.78.32,1.19.16,3.46.05,4.61-.2.67-.15,1.35-.4,2.04-.81.85-.5.54-2.34-.31-1.84-.6.35-1.03.78-1.99,1.31-.26.14-.56.29-.91.45-.74.33-2.45.45-3.48.55-.67.06-1.05.12-.74.21Z"/>
    <path class="cls-5" d="M165.69,161.87s14.07,39.97,13.02,60.52c0,0-10.05-10.94-12.15-18.61,0,0,3.58-4.54,3.47-6.56,0,0-4.46-1.72-7.69-.51,0,0-7.43-16.8-9.32-32.83,0,0,5.68-3.18,12.67-2Z"/>
    <path class="cls-5" d="M192.39,164.05s10.94,34.43,6.95,66.43c0,0,10.37-21.31,9.96-31.31,0,0-3.77-1.25-4.44-2.46,0,0,3.23-4.07,5.39-4.39,0,0-4.52-18.05-9.8-24.33-5.28-6.28-8.05-3.93-8.05-3.93Z"/>
    <path class="cls-2" d="M211.23,289.4c3.29,6.26,9.46,10.8,13.01,10.8h41.88c-3.03-2.38-9.27-6.27-17.69-6.28-12.12,0-23.32-8.95-24.59-15.93-1.26-6.97,9.07-39.35,0-55.6,0,0,2.21,15.62-4.1,28.36-4.74,9.57-7.73,28.92-8.5,38.65Z"/>
    <path class="cls-3" d="M248.85,263.11c-3.67-1.55-7.68-2.93-11.66-1.71-3.54,1.08-6.28,3.77-8.07,6.92-.16.28-.6.03-.44-.25,1.76-3.11,4.41-5.74,7.81-6.97,4.23-1.52,8.54-.14,12.49,1.53.29.12.17.61-.13.49h0Z"/>
    <path class="cls-3" d="M236.5,258.73c2.77-.47,6.12,1.07,8.52,2.32.29.15.03.59-.25.44-2.2-1.15-5.56-2.71-8.13-2.27-.32.05-.45-.43-.13-.49h0Z"/>
    <path class="cls-3" d="M123.41,371.51c3.09,0,5-.51,5.7-1.51,3.41-4.92,7.8-28.47,7.98-29.47.01-.06,0-.13-.05-.17-.04-.05-.1-.07-.17-.06-21.02,2.39-39.91-8.75-40.1-8.86-.05-.03-.12-.04-.18-.01-.06.02-.1.07-.12.13-.02.07-2.2,7.36-4.21,14.85-4.07,15.22-3.48,16.41-3.28,16.8,1.01,2.01,20.8,7.42,31.77,8.21.97.07,1.85.1,2.66.1ZM136.64,340.72c-.51,2.68-4.7,24.48-7.87,29.05-.78,1.13-3.55,1.55-8,1.23-12-.86-30.66-6.44-31.43-7.99-.95-1.91,4.98-22.87,7.44-31.11,2.19,1.25,20.04,10.96,39.86,8.81Z"/>
    <path class="cls-3" d="M145.18,306.17c-.25,3.06-2.46,5.52-4.37,7.76-2.29,2.68-4.85,5.11-7.64,7.26-5.28,4.09-11.3,7.1-17.72,8.93-.31.09-.45-.4-.13-.49,5.94-1.7,11.54-4.41,16.53-8.07,2.56-1.88,4.95-4,7.12-6.33,2.28-2.45,5.44-5.58,5.72-9.08.03-.32.53-.32.5,0h0Z"/>
    <path class="cls-3" d="M126.9,319.38c-2.03,1.46-4.07,2.92-6.1,4.38-.26.19-.52-.25-.25-.44,2.03-1.46,4.07-2.92,6.1-4.38.26-.19.52.25.25.44h0Z"/>
    <path class="cls-33" d="M203.46,331.61c6.89,6.89,47.44,19.74,48.71,20.14,0,0,.02,0,.02,0,7.16,1.39,12.75.31,16.86-1.47-2.06-7.77-37.92-10.6-48.89-13.79-10.97-3.19-23.7-11.88-16.7-4.88Z"/>
    <path class="cls-3" d="M224.2,213.4c-.75,8.73,1.02,17.49-.35,26.18-1.16,7.32-4.87,15.34-11.88,18.73-.29.14-.55-.29-.25-.44,7.57-3.67,11.06-12.54,11.91-20.42.87-8.01-.62-16.04.07-24.06.03-.32.53-.32.5,0h0Z"/>
  </g>
  <g>
    <path class="cls-33" d="M145.14,563.75c.6,0,1.11-.44,1.19-1.05l31.8-254.39c.08-.66-.38-1.25-1.04-1.34-.66-.08-1.25.38-1.34,1.04l-31.8,254.39c-.08.66.38,1.25,1.04,1.34.05,0,.1,0,.15,0Z"/>
    <path class="cls-33" d="M553.3,563.93s.1,0,.15,0c.66-.08,1.12-.68,1.04-1.34l-31.8-254.57c-.08-.66-.68-1.12-1.34-1.04-.66.08-1.12.68-1.04,1.34l31.8,254.57c.08.61.59,1.05,1.19,1.05Z"/>
    <g>
      <path class="cls-37" d="M138.24,308.17h388.64c2.36,0,4.27-1.91,4.27-4.27h0c0-2.36-1.91-4.27-4.27-4.27H138.24c-2.36,0-4.27,1.91-4.27,4.27h0c0,2.36,1.91,4.27,4.27,4.27Z"/>
      <path class="cls-19" d="M124.05,308.17h309.05c2.36,0,4.27-1.91,4.27-4.27h0c0-2.36-1.91-4.27-4.27-4.27H124.05c-2.36,0-4.27,1.91-4.27,4.27h0c0,2.36,1.91,4.27,4.27,4.27Z"/>
    </g>
    <path class="cls-33" d="M444.83,564.01s.1,0,.15,0c.66-.08,1.12-.68,1.04-1.34l-31.8-254.65c-.08-.66-.68-1.13-1.34-1.04-.66.08-1.12.68-1.04,1.34l31.8,254.65c.08.61.59,1.05,1.19,1.05Z"/>
  </g>
  <rect class="cls-26" x="270.57" y="26.55" width="132.28" height="147.6" rx="9.2" ry="9.2" transform="translate(673.41 200.7) rotate(180)"/>
  <path class="cls-37" d="M309.52,290.03l49.96-17.29c.36-.13.73-.2,1.09-.23h0s.11,0,.11,0c.16,0,.31,0,.46,0h30.13l-2.98,13.01h-23.09v9.78c0,2.39-1.94,4.32-4.32,4.32h-49.96c-2.39,0-4.32-1.94-4.32-4.32v-1.18c0-1.84,1.17-3.48,2.91-4.09Z"/>
  <path class="cls-6" d="M341.03,299.62h49.96c2.39,0,4.32-1.94,4.32-4.32v-18.47c0-2.97-2.93-5.06-5.74-4.09l-49.96,17.29c-1.74.6-2.91,2.24-2.91,4.09v1.18c0,2.39,1.94,4.32,4.32,4.32Z"/>
  <path class="cls-6" d="M539.2,252.61s-25.95-8.05-37.6-23.86l-12.55,21.45s6.34,18.09,39.43,23.13l10.72-20.71Z"/>
  <path class="cls-6" d="M505.59,262.38c-3.86,2.43-7.22,5.57-9.82,9.32-2.71,3.92-4.12,8.31-5.77,12.73-2.79,7.49-7.79,13.89-16.58,12.75-4.51-.58-8.68-2.57-13.12-3.49-4.73-.98-9.65-.66-14.39.06-8.75,1.33-17.41,4.08-26.34,3.68-10.49-.46-20.13-6.78-30.75-5.46-1.29.16-1.27-1.86,0-2.02,9.12-1.14,17.44,3.34,26.21,4.94,9.29,1.7,18.53-1,27.62-2.64,4.13-.74,8.33-1.32,12.53-1.18,4.45.15,8.55,1.39,12.78,2.71,4.46,1.39,9.46,2.63,13.65-.22,3.72-2.53,5.5-6.95,6.95-11.02,1.63-4.58,3.31-8.98,6.24-12.91,2.68-3.6,6-6.62,9.79-9,1.1-.69,2.12,1.05,1.02,1.74h0Z"/>
  <path class="cls-27" d="M585.15,130.92c-3.39,2.31-7.38,2.43-11.34,2.11-.32-.03-.32-.53,0-.5,3.87.31,7.76.23,11.09-2.04.27-.18.52.25.25.44h0Z"/>
  <path class="cls-27" d="M584.79,129.64c.42.61.65,1.3.7,2.04.02.32-.48.32-.5,0-.04-.65-.26-1.25-.63-1.79-.18-.27.25-.52.44-.25h0Z"/>
  <path class="cls-27" d="M197.72,97.81s-9.41,1.9-10.38,9.97c-.97,8.08-7.26,12.39-12.18,11.66v-4.87s7.61.65,9.29-4.81c1.68-5.46,1.77-9.79,6.8-11.96,5.02-2.17,6.48,0,6.48,0Z"/>
  <path class="cls-13" d="M678.94,278.13c-8.07-1.5-16.37-.15-23.56,3.8-.28.16-.54-.28-.25-.44,7.32-4.03,15.73-5.38,23.95-3.86.32.06.18.55-.13.49h0Z"/>
  <path class="cls-9" d="M636.7,290.47s-25.58,22.03-44.43,21.79c-18.85-.25-18.71.55-16.49,3.39s21.61,9.29,27.53,7.41c5.92-1.88,38.24-33.93,33.39-32.58Z"/>
  <path class="cls-9" d="M586.98,326.55s-19.03-2.53-21.27-5.71c-2.24-3.18-7.72-12.06-9.02-10.18-1.3,1.88.42,13.19,3.74,15.89,3.31,2.69,30.24.55,26.56,0Z"/>
  <g>
    <path class="cls-30" d="M300.39,46.35c16.31-7.32,33.49,6.25,36.4,17.54,3.2-12.7,20.25-24.71,36.21-17.54,24.89,11.17,7.9,49.17-36.26,70.44-44.16-21.27-61.24-59.27-36.35-70.44Z"/>
    <path class="cls-16" d="M355.01,96.28s.06,0,.09,0c.5-.04.9-.43.96-.92l3.83-29.56,5.49,12.56c.17.39.55.64.97.64h20.81c.59,0,1.06-.48,1.06-1.06s-.48-1.06-1.06-1.06h-20.11l-6.75-15.43c-.19-.44-.65-.69-1.12-.63-.47.07-.84.44-.9.91l-3.69,28.51-3.69-12.01c-.14-.45-.55-.75-1.01-.75h-7.45l-2.66-12.34c-.11-.5-.56-.85-1.08-.84-.51.02-.94.4-1.01.91l-3.3,23.13-1.7-9.98c-.09-.51-.53-.88-1.05-.88h-10.48l-3.27-15.83c-.1-.51-.56-.87-1.08-.85-.52.02-.95.41-1.01.93l-3.4,26.62-2.01-10.82c-.09-.5-.53-.87-1.04-.87h-23.11c-.59,0-1.06.48-1.06,1.06s.48,1.06,1.06,1.06h22.22l3.08,16.63c.1.51.56.88,1.07.87.52-.01.96-.41,1.02-.93l3.45-27.05,2.16,10.45c.1.49.54.85,1.04.85h10.45l2.69,15.8c.09.51.53.88,1.05.88h.01c.52,0,.96-.39,1.04-.91l3.42-23.97,1.59,7.37c.11.49.54.84,1.04.84h7.53l4.9,15.93c.14.45.55.75,1.01.75Z"/>
  </g>
  <g>
    <path class="cls-16" d="M385.28,133.05c-11.29-.66-22.61-.89-33.92-.7-1.3.02-1.3-2,0-2.02,11.31-.2,22.62.03,33.92.7,1.29.08,1.3,2.1,0,2.02h0Z"/>
    <path class="cls-16" d="M342.46,133.1c-18.49-.2-36.98-.15-55.47.16-1.3.02-1.3-2,0-2.02,18.49-.31,36.98-.37,55.47-.16,1.3.01,1.3,2.03,0,2.02h0Z"/>
    <path class="cls-16" d="M385.39,141.91c-15.89,0-31.77,0-47.66,0-1.3,0-1.3-2.02,0-2.02,15.89,0,31.77,0,47.66,0,1.3,0,1.3,2.02,0,2.02h0Z"/>
    <path class="cls-16" d="M329.38,142.27c-11.22.4-22.45.33-33.66-.2-1.29-.06-1.3-2.08,0-2.02,11.21.53,22.44.6,33.66.2,1.3-.05,1.3,1.97,0,2.02h0Z"/>
    <path class="cls-16" d="M384.97,150.73c-6.3-.26-12.59-.1-18.86.48-1.29.12-1.29-1.9,0-2.02,6.27-.58,12.56-.73,18.86-.48,1.29.05,1.3,2.07,0,2.02h0Z"/>
    <path class="cls-16" d="M359.11,151.29c-11.4-.17-22.8-.34-34.19-.51-1.3-.02-1.3-2.04,0-2.02,11.4.17,22.8.34,34.19.51,1.3.02,1.3,2.04,0,2.02h0Z"/>
  </g>
  <path class="cls-3" d="M100.31,412.45c8.38,5.73,17.83,9.61,27.81,11.41.32.06.18.54-.13.49-10.03-1.81-19.52-5.71-27.93-11.46-.27-.18-.01-.62.25-.44h0Z"/>
  <path class="cls-3" d="M140.17,413.47c-8.83,2.54-18.08,2.84-27.05.87-.32-.07-.18-.56.13-.49,8.89,1.95,18.04,1.65,26.78-.87.31-.09.45.4.13.49h0Z"/>
  <g>
    <path class="cls-16" d="M68.9,549.82c.2-1.04-.46-2.01-.97-2.93-.51-.92-.87-2.16-.19-2.96.37-.43.95-.61,1.5-.77,2.44-.69,4.88-1.38,7.32-2.06l1.36-.44c1.91,1.62,4.15,2.84,6.54,3.57-.48,1.77-.77,3.58-.86,5.41,1.21.42,2.41.84,3.62,1.25.38.13.81.31.93.7.07.22,0,.46-.06.69-.64,2.38-1.28,4.77-1.92,7.15-.14.51-.29,1.04-.68,1.4-.28.26-.65.38-1.01.51-1.01.34-2.01.68-3.02,1.02-.6.2-1.32.39-1.84.02-.86-.62-.62-2.42-1.68-2.54-.35-.04-.67.16-.96.35-1.16.76-2.53,1.54-3.86,1.13-.5-.15-.93-.46-1.34-.78-2.5-1.91-4.7-4.22-6.5-6.81.76-1.64,3.26-2.13,3.6-3.91Z"/>
    <path class="cls-16" d="M32.68,553.05c-.15-1.04-1.08-1.76-1.86-2.47s-1.52-1.76-1.13-2.74c.21-.53.71-.88,1.18-1.21,2.09-1.44,4.18-2.87,6.27-4.31l1.14-.86c2.32.92,4.84,1.36,7.34,1.28.11,1.83.43,3.64.93,5.4,1.28,0,2.55.02,3.83.03.4,0,.87.04,1.1.37.13.19.15.44.17.67.16,2.46.32,4.93.48,7.39.03.52.06,1.08-.19,1.54-.18.33-.49.57-.8.8-.84.65-1.69,1.29-2.53,1.94-.51.39-1.12.8-1.73.61-1.02-.31-1.36-2.1-2.4-1.87-.34.08-.58.37-.8.64-.85,1.09-1.9,2.27-3.29,2.31-.52.01-1.03-.14-1.52-.31-2.98-1.01-5.81-2.49-8.34-4.36.19-1.8,2.41-3.07,2.16-4.86Z"/>
    <path class="cls-16" d="M45.84,541.67c-.15-1.04-1.08-1.76-1.86-2.47-.78-.71-1.52-1.76-1.13-2.74.21-.53.71-.88,1.18-1.21,2.09-1.44,4.18-2.87,6.27-4.31l1.14-.86c2.32.92,4.84,1.36,7.34,1.28.11,1.83.43,3.64.93,5.4,1.28,0,2.55.02,3.83.03.4,0,.87.04,1.1.37.13.19.15.44.17.67.16,2.46.32,4.93.48,7.39.03.52.06,1.08-.19,1.54-.18.33-.49.57-.8.8-.84.65-1.69,1.29-2.53,1.94-.51.39-1.12.8-1.73.61-1.02-.31-1.36-2.1-2.4-1.87-.34.08-.58.37-.8.64-.85,1.09-1.9,2.27-3.29,2.31-.52.01-1.03-.14-1.52-.31-2.98-1.01-5.81-2.49-8.34-4.36.19-1.8,2.41-3.07,2.16-4.86Z"/>
    <g class="cls-40">
      <path class="cls-31" d="M22.43,564.28h67.07c1.34,0,2.48-1,2.65-2.32l15.21-116.13H8.04l.21,2.08,11.19,113.66c.15,1.55,1.44,2.71,2.99,2.71ZM106.45,446.65l-.15,1.17-14.94,114.03c-.12.92-.92,1.62-1.85,1.62H22.43c-1.13,0-2.07-.85-2.18-1.98l-11.31-114.85h97.51Z"/>
      <path class="cls-31" d="M8.3,447.87h98.84c.82,0,1.49-.67,1.49-1.49h0c0-.82-.67-1.49-1.49-1.49H8.3c-.82,0-1.49.67-1.49,1.49h0c0,.82.67,1.49,1.49,1.49Z"/>
      <rect class="cls-31" x="9.45" y="504.6" width="117.39" height=".81" transform="translate(-439.57 548.61) rotate(-87.22)"/>
      <rect class="cls-31" x="19.66" y="504.6" width="117.71" height=".81" transform="translate(-431.45 538.64) rotate(-84.94)"/>
      <rect class="cls-31" x="30.68" y="504.6" width="118.1" height=".81" transform="translate(-422.4 533.38) rotate(-83.1)"/>
      <rect class="cls-31" x="32.87" y="446.21" width=".81" height="117.6" transform="translate(-38.94 4.08) rotate(-4.43)"/>
      <rect class="cls-31" x="22.75" y="445.85" width=".81" height="118.05" transform="translate(-47.45 4.43) rotate(-5.4)"/>
      <rect class="cls-31" x="43.3" y="445.66" width=".81" height="118.27" transform="translate(-20.08 2.14) rotate(-2.28)"/>
      <rect class="cls-31" x="55.84" y="447.87" width=".81" height="115.76"/>
    </g>
  </g>
</svg>