<?xml version="1.0" encoding="UTF-8"?>
<svg id="Layer_12" data-name="Layer 12" xmlns="http://www.w3.org/2000/svg" viewBox="0 0 200 200">
  <defs>
    <style>
      .cls-1 {
        fill: #9bd2fb;
      }

      .cls-2 {
        fill: #f5c8a9;
      }

      .cls-3 {
        fill: #f2aa7d;
      }

      .cls-4 {
        fill: #399249;
      }

      .cls-5 {
        fill: #3279ae;
      }

      .cls-6 {
        fill: #d74861;
      }

      .cls-7 {
        fill: #285e87;
      }

      .cls-8 {
        fill: #399349;
      }

      .cls-9 {
        fill: #275e86;
      }
    </style>
  </defs>
  <path class="cls-1" d="M158.21,127.42c28.1-2.73,47.72,27.64,33.24,52.04s-50.89,21.8-61.62-4.31c-8.76-21.31,5.42-45.5,28.38-47.73Z"/>
  <path class="cls-1" d="M34.66,127.42c28.1-2.73,47.72,27.64,33.24,52.04s-50.89,21.8-61.62-4.31c-8.76-21.31,5.42-45.5,28.38-47.73Z"/>
  <path class="cls-1" d="M158.21,3.87c28.1-2.73,47.72,27.64,33.24,52.04s-50.89,21.8-61.62-4.31c-8.76-21.31,5.42-45.5,28.38-47.73Z"/>
  <path class="cls-1" d="M34.66,3.87c28.1-2.73,47.72,27.64,33.24,52.04s-50.89,21.8-61.62-4.31C-2.48,30.29,11.69,6.1,34.66,3.87Z"/>
  <path class="cls-2" d="M74.26,103.9l.38-.9c4.21-1.34,5.39-5.12,5.72-9.13,5.61-.74,8.19-1.58,9.21-7.49-1.25-9.4,1.1-16.67,10.31-7.69,4.17-3.77,10.5-7.51,10.84,1.48-1.23,7.36.11,13.44,8.85,13.7.34,4,1.51,7.79,5.73,9.13l.38.9.67.55c-.11,5.29-.99,10.7-2.97,15.61.05.94-.21,1.56-.77,1.88-1.47.22-1.65,2.07-2.38,3.19-11.66,17.83-28.87,17.82-40.52,0-.73-1.12-.91-2.97-2.38-3.19-.56-.31-.82-.94-.77-1.88-1.41-3.53-2.16-7.07-2.71-10.93-.19-1.36-.49-4.44.41-5.23Z"/>
  <path class="cls-5" d="M69.27,101.22c-.77-1.98-.17-4.62-.86-6.62-.48-1.4-4.39-2.98-4.87-6.26-.66-4.42,5.94-14.12,8.81-17.61,6.63-8.05,12.03-11.43,22.51-7.18,1.03.42,4.58,2.66,4.98,2.69.35.03,5.06-2.67,6.36-3.11,9.94-3.4,14.44-.32,20.83,7.01,3.04,3.49,10.24,13.98,9.31,18.53-.66,3.24-4.26,4.35-4.82,5.35-.75,1.34-.07,5.55-.85,7.21-.13.75-.91,1.27-2.36,1.57-.93.75-1.8,1.13-2.63,1.12-4.37-1.06-6.96-5.19-6.52-9.59-5.83.14-9.25-2.8-9.59-8.64-.15-2.56,1.45-8.26-.94-9.81-3.46-2.23-7.88,4-8.8,3.84-1.88-1.76-5.81-5.82-8.5-3.82-2.11,1.57-.73,7.53-.96,10.17-.52,5.85-3.8,8.3-9.59,8.25.44,4.41-2.15,8.54-6.52,9.59-1-.23-3.74-1.29-4.64-1.86l-.35-.82Z"/>
  <path class="cls-3" d="M74.26,103.9c.41,1.62.17,4.22.43,5.9.3,1.92.67,3.88,1.13,5.77.5,2.03,2.08,4.44,1.51,6.36-1.11-.16-2.36.16-3.56-.09-5.38-1.1-9.34-11.29-8.68-16.19.29-2.17,1.75-4.45,4.19-4.44,1.02,0,4.69,1.53,4.99,2.69Z"/>
  <path class="cls-3" d="M122.61,121.94c-.57-1.92,1.01-4.33,1.51-6.36.47-1.89.83-3.85,1.13-5.77.26-1.66.07-4.36.43-5.9.27-1.15,3.97-2.68,4.99-2.69,8.09-.06,3.02,19.09-4.5,20.63-1.2.25-2.45-.08-3.56.09Z"/>
  <path class="cls-4" d="M152.15,142.66c1.1.14,2.54-.22,3.57.01.27.06.24.62.8.81,6.3,2.17,13.85,5.05,20.17,6.68.77.2,1.54.21,2.32.17v26.86c-2.79-.68-1.6,1.47-3.09,2.85-5.72,5.31-10.62-8.61-.75-6.31v-14.58l-19.19-6.14v16.5c0,.09-1.61-.18-1.88.04-.44.37-.05,2.9-2.72,3.61-6.73,1.8-6.59-9.72.76-7.11v-23.41Z"/>
  <path class="cls-5" d="M20.92,150.33c.02-1.27-.02-2.56,0-3.84h7.67c0,3.83,0,7.68,0,11.51.76,2.55.76,5.13,0,7.67,0,3.83,0,7.68,0,11.51h-7.67c-.02-1.27.02-2.56,0-3.84-1.31-7.57-1.31-15.46,0-23.02Z"/>
  <path class="cls-5" d="M47.78,158.01c0-3.83,0-7.68,0-11.51h7.67c.02,1.27-.02,2.56,0,3.84,1.31,7.57,1.31,15.46,0,23.02-.02,1.27.02,2.56,0,3.84h-7.67c0-3.83,0-7.68,0-11.51-.76-2.55-.76-5.13,0-7.67Z"/>
  <path class="cls-9" d="M20.92,150.33c-.13,7.64-.13,15.38,0,23.02h-7.67v-23.02h7.67Z"/>
  <path class="cls-9" d="M55.46,150.33h7.67v23.02h-7.67c.13-7.64.13-15.38,0-23.02Z"/>
  <path class="cls-9" d="M47.78,158.01c0,2.55,0,5.12,0,7.67h-19.19c0-2.55,0-5.12,0-7.67h19.19Z"/>
  <path class="cls-6" d="M161.74,29.85c-.01-.18-.01-.35.04-.51.1-.31,4.7-3.79,5.15-4.05l.95.34c2.45-1.06,5.89-.24,7.86,1.54,5.5,4.95,3,16.25.26,22.13-1.58,3.38-5.25,9.03-9.43,8.92-1.82-.05-3.67-1.71-4.7-1.8-.85-.07-3.26,1.75-4.96,1.8-7.11.19-12.01-13.99-12.43-19.73-.45-6.19,1.95-14.43,9.76-13.21,2.91.46,5.12,4.7,7.51,4.58Z"/>
  <path class="cls-8" d="M167.88,25.63c-1.55.67-4.18,4.12-6.14,4.22-2.09-6.6.68-13.28,7.88-14.51,2.23,3.39.21,7.25-1.74,10.29Z"/>
  <path class="cls-6" d="M19.77,36.37c-2.79-7.48,1.35-21.13,11.47-16.27,3.91,1.88,4.42,4.56,6.47,7.72.24.37-.04.69.85.49,6.92-17.04,22.84-7.84,18.04,8.06-2.41,1.13-5.95,1-8.64.59-1.29-2.39-2.4-4.93-3.31-7.59-.53-1.14-1.88-.93-2.45.1l-6.68,11.14c-.98,2.02-2.08,2.62-3.3,1.8-.58-1.79-1.31-3.5-2.18-5.13-3.18-.31-6.38-.36-9.61-.15l-.67-.76Z"/>
  <path class="cls-6" d="M55.07,40.21c-3.09,7.46-10.15,13.33-17.01,17.19-6.77-4.25-13.63-9.6-16.75-17.19,1.89-1.16,6.08-1.26,7.73.05l2.71,7.02c.39.83,1.34.89,2.04.34,2.82-4.72,5.77-9.43,8.74-14.02,1.25-.11,1.71.78,2.13,1.82.52,3.08,1.96,4.46,4.32,4.12l5.49-.09.59.76Z"/>
  <path class="cls-9" d="M19.77,36.37c2.16-.02,9.15-.39,10.66.25.81.35,1.74,3.68,2.22,4.73.14.3.09,1.1.74.77,1.2-.59,7.03-11.86,8.62-13.64.82-.84,2.3-.89,3.05.06.87,1.1,2.81,7.55,3.16,7.78,2.79.12,5.6.03,8.39.05,2.04.02,4.1-.01,6.14,0v3.84c-2.55,0-5.12-.02-7.68,0-1.77,0-7.65.33-8.82-.2-1.77-.8-1.8-4.89-3.46-5.94-2.35,4.87-5.77,9.27-8.42,14.03-.82.84-2.3.89-3.05-.06-.95-1.21-2.81-7.55-3.16-7.77-2.28-.12-4.58-.03-6.85-.05-2.55-.03-5.12.02-7.68,0v-3.84c2.04,0,4.1.02,6.14,0Z"/>
  <path class="cls-3" d="M93.74,117.78c1.14-.12,1.5,1.03,2.51,1.55,1.54.81,4.44.95,6.13.6,2.56-.52,3.17-3.99,6.79-.87-3.43,6.6-15.3,6.81-18.23-.2.19-.25,2.41-1.04,2.8-1.08Z"/>
  <path class="cls-7" d="M117.23,106.21c-2.55,4.16-6.88,6.43-11.41,3.54-.76-.49-2.65-2.18-2.73-3.04-.07-.7,2.59-2.43,2.83-2.41.6.05,2.31,5.11,6.46,1.84.54-.43,1.46-1.84,1.58-1.85.42-.04,2.41,1.97,3.27,1.91Z"/>
  <path class="cls-7" d="M82.7,106.21c4.01-2.47,2.78-1.05,5.49.45,3.98,2.21,5.18-2.3,5.83-2.36.24-.02,2.9,1.71,2.83,2.41-.08.85-1.97,2.55-2.73,3.04-4.53,2.89-8.87.62-11.41-3.54Z"/>
</svg>