<?xml version="1.0" encoding="UTF-8"?>
<svg id="Layer_12" data-name="Layer 12" xmlns="http://www.w3.org/2000/svg" viewBox="0 0 200 200">
  <defs>
    <style>
      .cls-1 {
        fill: #a8afba;
      }

      .cls-2 {
        fill: #a9b0bb;
      }

      .cls-3 {
        fill: #e3e7ea;
      }

      .cls-4 {
        fill: #a9afba;
      }

      .cls-5 {
        fill: #f66c81;
      }

      .cls-6 {
        fill: #fcf7f2;
      }

      .cls-7 {
        fill: #fccc56;
      }

      .cls-8 {
        fill: #eec6a3;
      }

      .cls-9 {
        fill: #a9b0ba;
      }

      .cls-10 {
        fill: #c9cfd6;
      }

      .cls-11 {
        fill: #f3f5f7;
      }
    </style>
  </defs>
  <path class="cls-11" d="M74.46,47.22c17.81-1.16,35.69-1.19,53.51,0l.51-.79,16.2-.1c2.06-.27,3.59.17,4.59,1.32l.11,87.55c-.06,1.01-1.1,1.44-1.98,1.21-.82-.75-1.07-2.03-.74-3.86-.03-.9-.13-1.43-1.06-1.66-4.82-1.19-5.61.85-4.9,5.25-.09.37-.32.94-.54.9-1.76-.31-2.95-.52-4.95-.47-.57.01-1.13.04-1.67.23-.06,1.13-1.44,1.46-1.98.4-1.37.46-2.77.76-4.21.87l-38.15-.08c-2.28.03-2.99,3.57-.53,3.95l39.23.02.48.79c1.1,1.3,1.33,5.22,0,6.34l.28-.79h67.01l.49.79c-.36-.13-.65-.36-.84-.69s-.1-6.84.84-7.23c1.1,3.01.06,6.7-.02,9.69-.37,13.86.31,27.78.03,41.64-.19,2.06-2.2,3.57-3.96,4.36l-58.83.15c-5.57-1.2-4.87-5.84-4.99-10.27-1.33-3.37-1.19-8.06,0-11.49l-.28.79H54.34l-.49-.79-.79-.38c-.13-41.09-.05-82.15.24-123.18l.55-.49c-.14-1.54,2.42-4.13,3.96-3.96l1.73-.79h14.45l.47.79Z"/>
  <path class="cls-8" d="M53.85,51.18v124.06h74.51c.08,3.82-.1,7.67,0,11.49l-79.88.02c-3.28-.09-5.65-2.45-5.75-5.75l.02-122.68c.51-.47,1.29-.62,2.35-.46l7.42-6.98c.55-.41.91-.26,1.33.31Z"/>
  <path class="cls-8" d="M159.68,130.05l.45.76c-.59,1.73-.74,3.56-.46,5.5l-.78.48c-.04.31-.14.77-.36.79-1.39.13-9.65.26-10.55,0l-.58-.79c-.35-.07-.34-.21,0-.4l1.19-.97-.06-87.56c-.05-.2-.15-.36-.32-.48-.83-.58-17.61-.17-20.24-.17-.91-3.81-1.09-7.48-.54-10.99l.94-.11,26.73.03c2.02.5,3.79,1.98,4.31,4.01.63,29.91.09,59.95.27,89.9Z"/>
  <path class="cls-3" d="M74.46,30.17c.41-.67,1.07-.74,1.78-.8,4.1-.38,8.73.3,12.89.01.77-16.2,23.35-16.22,24.18,0,2.42.42,12.76-.7,14.1.36.94.74.52,3.72.56,5.01.02.56.39,1.16.39,1.37,0,.07-.43.62-.42,1.34.03,3.25.04,6.51.03,9.76-17.83-.04-35.68,0-53.51,0-.31-.04-.76-.13-.79-.36-.23-1.76-.26-8.45,0-10.16l.79-.58c-.35-.11-.34-.24,0-.4,0-.37.16-.64.49-.79l5.55.08c5.14.58,5.88-4.66.44-4.2l-5.89.15-.59-.79Z"/>
  <path class="cls-5" d="M71.29,30.17l-.57.8c-3.04.4-8.75.71-11.14-1.18l-4.25-4.85c-1.93-1.92-3.05-.35-4.21,1.38l-5.06,9.05c-.64,1.03-1.42,1.73-2.54.84l-6.31-13.82c-.85-1.04-2.83-.87-3.46.36-1.93,2.69-3.88,5.36-5.84,8.01-3.04.59-7.71.52-10.51-.59-3.02-7.04-4.23-14.65,2.37-20.02,5.38-4.37,14.17-4.61,19.61-.18,1.31,1.07,3.83,5.28,5.14,5.16,1.24-.12,3.12-3.6,4.17-4.59,5.41-5.14,14.85-4.92,20.44-.19,6.41,5.43,5.35,12.87,2.17,19.83Z"/>
  <path class="cls-5" d="M133.52,136.79c2.28-.08,4.5-.26,6.67-.54.42,1.68.62,3.51.59,5.47,4.65,1.64,6.77.95,5.81-4.4l.79-.53h11.49c.79.65,1,1.92.64,3.79-.35,2.54,6.33,2.78,5.78.09-.35-1.83-.12-3.13.71-3.88,3.92-.11,7.9-.26,11.95-.44l.33,1.01c-.84,4.95.94,6.35,5.49,4.36-.03-1.9.12-3.71.46-5.44,2.2.24,4.45.41,6.75.51,2.59.23,4.77,1.58,5.15,4.36.33,2.41-.24,5.44,0,7.93h-67.77c.14-2.06-.19-4.32,0-6.34-1.66-1.74.77-5.46,3.17-5.55.55-.01,1.26-.37,1.98-.4Z"/>
  <path class="cls-7" d="M17.39,30.17c3.4-.02,6.83.09,10.23-.08,1.04-1.45,5.57-8.61,6.7-8.95s3.08-.3,3.62.97l6.41,14.01c2.69-2.17,5.8-12.48,9.06-12.88,2.75-.34,6.2,6.37,7.87,6.85,1.8.52,7.68.06,10.02.08,1.06,0,2.12-.01,3.17,0,2.2.02,7.53-.41,9.23.08,1.76.52,2.26,3.03,1.08,4.49-1.29,1.6-8,.95-10.32.98-2.24.3-4.51.37-6.74,0-.07.35-.21.34-.4,0-2.47,1.48-7.7,1.4-10.12-.41l-2.9-3.35c-2.27,3.94-4.49,7.92-6.65,11.95-1.68,2.48-4.53,2.94-6.31.3l-6.29-13.66c-2.78,5.62-8.14,7.76-13.71,5.17-4.44.06-10.65.48-14.87.01-3.74-.41-4.02-4.58-1.4-5.38,2.31-.7,9.4-.16,12.31-.18Z"/>
  <path class="cls-5" d="M67.33,35.72c.07.27.12.55.13.82.01,1.82-7.14,10.11-9.64,10.67-1.24,1.25-2.72,2.8-3.96,3.96-.09.09-.75.15-1.2.57-2.4,2.21-4.65,4.63-7.13,6.77-.91.49-1.86.02-2.77-.2-7.12-7.51-15.88-13.69-21.4-22.59,3.03-.04,7.86.83,9.91-1.39l3.96-5.34,6.8,14.8c1.47,2.11,3.41,1.76,4.87-.16,1.21-1.59,6.46-12.5,7.16-12.66,2.05.66,2.99,3.99,4.92,4.58,1.83.56,6.16.15,8.34.18Z"/>
  <path class="cls-10" d="M166.02,136.39h11.5c-.17-5.32-.8-7.18,5.37-6.36,2.97.39,1.4,4.13,1.76,6.36.36.36,5.46-.57,6.34.39-2.03-.18-4.28.13-6.34,0-.42,2.71,1.43,6-2.15,6.37-5.97.61-5.05-1.34-4.98-6.37h-11.5c-.35-.07-.34-.21,0-.39Z"/>
  <path class="cls-10" d="M166.02,136.39c0,.13,0,.26,0,.4-.06,5.01,1.29,7-4.98,6.36-3.23-.33-2.14-3.6-2.16-6.36-.02-2.17-.5-5.03.79-6.74,7.39-.41,6.26.04,6.34,6.34Z"/>
  <path class="cls-10" d="M88.22,71.88l49.86-.09c3.82.42,3.3,5.29-.39,5.57h-48.37c-3.27-.22-4.29-4.26-1.1-5.47Z"/>
  <path class="cls-10" d="M87.82,104.77l50.67-.1c3.55.47,2.43,5.87-1.21,5.57h-47.56c-3.3-.04-4.9-3.61-1.9-5.46Z"/>
  <path class="cls-10" d="M71.62,133.72c13.92-.7,14.23,20.47,1.06,20.93-13.85.48-14.6-20.25-1.06-20.93Z"/>
  <path class="cls-10" d="M69.6,101.21c17.23-2.93,16.65,23.21.4,20.42-10.83-1.86-10.68-18.67-.4-20.42Z"/>
  <path class="cls-10" d="M70.4,68.33c15.63-2.27,16.43,22.8-.46,20.47-10.69-1.47-11.03-18.8.46-20.47Z"/>
  <path class="cls-10" d="M131.54,137.19c-2.04,1.44-2.94,3.06-3.17,5.55l-39.81-.02c-3.47-.55-2.71-5.46.76-5.53,14.06-.25,28.17.37,42.22,0Z"/>
  <path class="cls-10" d="M88.22,145.59l25.65-.06c3.03.47,3.21,5.11-.36,5.53-7.68.9-17.08-.66-24.95-.03-2.84-.27-3.05-4.82-.34-5.44Z"/>
  <path class="cls-10" d="M115.58,113.51c1.2,1.28.56,4.76-1.66,4.68-7.74-.88-17.93,1.12-25.36-.05-3.22-.5-3.08-5.08.76-5.53,7.56.64,16.4-.82,23.8,0,.61.07,2.08.5,2.46.9Z"/>
  <path class="cls-10" d="M87.82,80.2l26.46-.07c3.4,1.75,2.08,5.12-1.58,5.54-4.66.53-18.82.6-23.35-.04-3.24-.46-4.36-3.59-1.54-5.43Z"/>
  <path class="cls-8" d="M74.46,36.12v11.1h-16.65c3.39-3.42,7.1-7.33,9.51-11.49.13,0,.26,0,.4,0,2.3.15,4.54.29,6.74.4Z"/>
  <path class="cls-10" d="M133.52,136.79c.88-.97,5.98-.03,6.34-.39.37-3.06-1.43-6.03,2.56-6.36,6.13-.5,4.91,1.31,4.97,6.36,0,.13,0,.26,0,.4-.06,4.92,1.24,6.63-4.58,6.36-4.47-.21-2.59-2.85-2.95-6.36-2.11.05-4.24-.07-6.34,0Z"/>
  <path class="cls-2" d="M172.27,183.65c.79.79.77,5.02-.08,5.87-1.16,1.15-5.23,1.16-6.19-.19-.6-.85-.61-4.95.12-5.68.75-.75,5.43-.73,6.15,0Z"/>
  <path class="cls-2" d="M185.74,183.65c.75.75.73,5.43,0,6.15-.84.84-5.1.77-6.04-.32s-.95-5.04.35-5.96c.85-.6,4.95-.61,5.68.12Z"/>
  <path class="cls-2" d="M152.64,189.8c-.76-.65-.72-5.43,0-6.15.73-.73,4.84-.72,5.68-.12,1.36.96,1.29,5.08.16,6.17-.9.87-5.03.81-5.84.11Z"/>
  <path class="cls-2" d="M139.74,183.24c.96-.28,4.7-.3,5.31.48.58.73.61,5.35-.03,5.99-.87.88-5.49.93-6.16-.2-.51-.87-.6-5.83.88-6.27Z"/>
  <path class="cls-2" d="M153.22,156.29c.86-.25,4.98-.27,5.47.31.82.96.85,5.48-.19,6.16-.7.46-5.41.38-6-.37-.67-.85-.83-5.65.71-6.1Z"/>
  <path class="cls-2" d="M166.68,156.28c.78-.26,4.94-.22,5.49.32.88.87.93,5.49-.2,6.16-.7.41-5.18.38-5.76-.19-.94-.93-.98-5.8.47-6.29Z"/>
  <path class="cls-9" d="M180.14,156.27c1.33-.45,5.73-.49,6.08,1.34.96,5.05-.64,5.94-5.36,5.36-2.7-.33-1.95-6.29-.72-6.71Z"/>
  <path class="cls-2" d="M172.27,170.18c.78.78.8,5.41-.3,6.05-.76.45-5.38.42-5.99-.36-.66-.84-.63-5.36.43-5.99.75-.44,5.22-.34,5.86.3Z"/>
  <path class="cls-2" d="M179.59,170.18c.62-.72,5.33-.73,6.09-.14.85.67.81,5.05.2,5.82s-5.23.81-5.99.36c-1.12-.66-1-5.24-.3-6.05Z"/>
  <path class="cls-4" d="M158.79,170.18c.72.83.7,5.41-.29,6.06-.7.46-5.41.38-6-.37s-.65-5.16.2-5.82c.76-.6,5.46-.59,6.09.14Z"/>
  <path class="cls-1" d="M139.07,176.42c-1.04-5.02-1.13-7.86,4.94-6.73,2.41.45,1.42,6.73.8,6.73h-5.75Z"/>
  <path class="cls-1" d="M139.74,156.29c1.44-.42,5.31-.53,5.66,1.32.89,4.7-.36,5.97-4.96,5.36-2.86-.38-2.13-6.25-.69-6.68Z"/>
  <path class="cls-11" d="M100.11,26.29c5.61-1.27,5.61,7.05,0,5.78-2.61-.59-2.59-5.19,0-5.78Z"/>
  <path class="cls-6" d="M74.46,35.72v.4c-2.15-.23-4.81.5-6.74-.4,2.24.03,4.5.03,6.74,0Z"/>
  <path class="cls-11" d="M75.52,147.75c-4.76,4.54-11.63-3.25-6.42-7.41,4.79-3.82,10.75,3.27,6.42,7.41Z"/>
  <path class="cls-11" d="M68.65,114.86c-4.17-4.17,1.48-10.85,6.41-7.4,5.39,3.78-1.42,12.39-6.41,7.4Z"/>
  <path class="cls-11" d="M68.65,75.1c4.17-4.17,10.85,1.48,7.4,6.41-3.78,5.39-12.39-1.42-7.4-6.41Z"/>
</svg>