<?xml version="1.0" encoding="UTF-8"?>
<svg id="Layer_12" data-name="Layer 12" xmlns="http://www.w3.org/2000/svg" viewBox="0 0 200 200">
  <defs>
    <style>
      .cls-1 {
        fill: #413842;
      }

      .cls-2 {
        fill: #5e400d;
      }

      .cls-3 {
        fill: #7b5e2c;
      }

      .cls-4 {
        fill: #dcc09f;
      }

      .cls-5 {
        fill: #66450e;
      }

      .cls-6 {
        fill: #f6e3c7;
      }

      .cls-7 {
        fill: #5c505b;
      }

      .cls-8 {
        fill: #efc692;
      }

      .cls-9 {
        fill: #514654;
      }

      .cls-10 {
        fill: #63430e;
      }

      .cls-11 {
        fill: #63440e;
      }

      .cls-12 {
        fill: #f4d2a5;
      }

      .cls-13 {
        fill: #403742;
      }

      .cls-14 {
        fill: #64440e;
      }

      .cls-15 {
        fill: #7f8a4b;
      }

      .cls-16 {
        fill: #704c0f;
      }

      .cls-17 {
        fill: #727d43;
      }

      .cls-18 {
        fill: #efc691;
      }

      .cls-19 {
        fill: #a78f7d;
      }
    </style>
  </defs>
  <path class="cls-9" d="M77.94,150.25l.28-.8h43.35l.49.8c13.82,4.63,29.46,7.03,43.01,12.13,10.4,3.92,19.49,11.31,10.72,22.55-7.6,9.73-21.34,9.46-32.48,9.43-.35-.11-.35-.25,0-.4l-.31-1.01c2.61-4.29,4.64-10.32.39-14.16l.32-.87c-1.62.18-3.54-2.12-1.6-2.81-.02-1.19,2.45-2.19,3.21-1.2l1.36-.89,6.09-.82c-2.71-1.01-5.36-2.14-7.97-3.4-5.14-.29-10.3-.53-15.51-.73-7.6-1.31-13.76-2.29-21.39-.69-6.05,2.02-12.79,2.84-19.13,2.53l-1.43.55c-8.62-2.21-17.34-3.49-26.15-3.84l-1.3-.72c-4.52,0-9.01-.53-13.45-1.6.72.99,1.86,1.66,3.04,1.94l.38.86.17,1.39c-3.14,5.99-2.65,12.85,1.07,18.46l-.03,1.4c-4-.3-8.22,0-12.12-1.31-2.49-.84-14.76-7.36-16.16-9.11-4.94-6.16,6.34-13.53,11.33-15.55,13.15-5.33,30.26-7.16,43.82-12.13Z"/>
  <path class="cls-15" d="M90.38,79.66l.82.54c-.36,13.14,17.94,13.1,17.6,0l.83-.55.77-.4c6.12,1.28,12.15,2.75,18.08,4.41.13.76.24,1.52.3,2.28s.1,1.51.04,2.26c-.81,9.68-1.63,19.42-3.14,29l-.8,2.16c.24.66.29,1.82-.4,2.01-.54,3.98-.91,8.6-1.79,12.47-.35,1.56-.97,1.09-1.02,1.17l-.28.8h-42.55l-.49-.8s-.59.23-.88-.54c-.66-1.78-2.03-10.39-2.33-12.69-.58-1.11-1-2.27-1.25-3.49-1.06-10.29-2.01-20.6-2.8-30.92-.05-.6.02-1.22.09-1.83s.2-1.24.35-1.86l.68-.51c5.8-1.21,11.6-2.51,17.4-3.9l.77.4Z"/>
  <path class="cls-12" d="M88.77,169.9c4.55.16,9.06.81,13.54,1.95,4.89,1.37,6.47.29,9.41-3.38,1.51-1.51,3.33-2.33,5.5-2,7.83,1.34,15.64,2.18,23.56,1.99,1.17.09,3.83.3,4.63,1.04,1.28,1.19,1.8,3.89-.09,4.41-.17,0-2.18.96-3.21,1.2-1.15.68-2.34,1.31-3.63,1.67-6.18,1.42-12.37,2.74-18.59,3.96-14.73,2.91-31.45,6-46.38,6.83-1.34.07-2.68-.14-3.99-.42-.73.43-1.39.56-2.01.4-3.6.83-7.34,1.23-11.23,1.2-1.82-.07-3.44-.27-5.21-.4-4.72-6.74-5.27-14-1.2-21.26l.68-.77c3.11-.41,6.23-.55,9.35-.44,8.71-.73,20.02,2.42,28.88,4.01Z"/>
  <path class="cls-12" d="M71.12,78.86c1.13.87,1.49,3.83.4,4.81,1.34,12.61,1.94,25.58,3.61,38.1-1.36,6.75-4.91,17.04-10.46,21.42-6.05,4.77-16.04,7.58-22.56,11.93-.9.6-1.46,1.53-2.31,2.11-6.96,4.74-15.22,4.74-23.23,6.65-1.34-10.87,9.43-10.31,16.65-13.23l23.79-22.73c.64-1.11,1.09-2.26,1.27-3.54,1.44-10.13,1.09-21.74,2.01-32.08.56-6.3.81-12,8.27-13.39.84-.16,1.86.11,2.56-.04Z"/>
  <path class="cls-12" d="M128.88,78.86c.69.15,1.72-.11,2.56.04,7.45,1.4,7.72,7.09,8.27,13.4.9,10.34.57,21.97,2.01,32.08.18,1.28.63,2.43,1.27,3.54l23.22,22.1c7.12,3.38,18.58,2.77,17.22,13.86-7.82-1.94-15.25-1.83-22.02-6.65-1.07-.76-1.75-1.85-2.96-2.65-6.93-4.56-20.8-7.88-25.88-14.23-3.61-4.5-7.13-13.24-7.29-18.98-.29-.4-.42-1.07-.4-2.01,1.5-11.84,2.33-23.82,3.61-35.69-1.09-.98-.73-3.94.4-4.81Z"/>
  <path class="cls-12" d="M108.42,26.32c.17-.24.3-.1.4.4,1.76-.24,4.31,1.4,4.81,3.21v.4c.54-.46,1.1-.25,1.53.22,2.68,2.94,5.02,7.43,5.29,11.41-.59,6.8-5.6,18.38-10.83,22.86-1.15,3.23-6.26,4.67-9.51,4.62s-8.55-1.73-9.74-5.02c-5.44-4.79-10.15-14.87-10.83-22.06-.45-3.22,5.67-13.62,8.21-14.27.35-.09.71.08,1.01.23-.03-.41.01-.55.4-.4.08-1.38,3-3.04,4.01-2.01,1.18-2.06,5.11-2.1,7.42-2.04,2.42.06,6.51.42,7.82,2.44Z"/>
  <path class="cls-12" d="M143.72,177.92c.89,1.13,2.12,2.23,2.54,3.68,1.23,4.24-.69,8.85-2.94,12.36-1.44.12-2.91.25-4.41.4-12.2-.1-24.49-.88-36.68-1.22-4.56-.13-10.98-.71-15.27-.4-8.76.64-18.69,4.95-27.66,5.65-5.37-1.91-4.42-6.07.6-8.04,27.18-2.87,54.45-7.03,81.8-12.5l2.02.06Z"/>
  <path class="cls-12" d="M121.66,135.01c-.9,1.54,1.07,12.64.4,15.24h-44.12c-.76-2.68,1.3-13.62.4-15.24h43.31Z"/>
  <path class="cls-18" d="M109.63,64.82c0,3.07,0,6.15,0,9.22,1.23,1.41,1.28,4.26,0,5.61-.15,3.28,0,4.92-2.2,7.62-4.02,4.92-11.15,4.84-15.03-.21-2.05-2.66-1.87-4.29-2.02-7.41-1.28-1.36-1.23-4.2,0-5.61,0-3.2,0-6.42,0-9.63,6.06,5.34,12.97,5.78,19.25.4Z"/>
  <path class="cls-16" d="M102.41,13.89c2.9-.51,4.75.16,6.84,2.31,1.64.35,2.57,1.05,2.78,2.1,6.71,5.35,9.14,15.45,8.42,23.66-1.41-4.06-3.11-7.18-5.63-10.62-.27-.38-1.03-.62-1.19-1.01.12-1.21.12-2.41,0-3.61-.9-1.69-1.57-3.43-2.01-5.21-.78-1.47-.91-1.34-.4.4,1.04,1.19,1.9,3.22,2.01,4.81.56.83.67,2.23.4,3.21-1.15-1.17-3.86-2.17-4.81-3.21-.31-.48-.28-1.11,0-1.6-.45-.66-.58-.53-.4.4.32.15.29.57,0,.8-5.13-1.85-10.05-2.35-15.24-.4-.73-3.52-.47-7.3,0-10.83-.31-1.16.66-1.06,1.57-.79.87-.73,2.01-1.51,2.84-.41,1.6.29,3.21.26,4.81,0Z"/>
  <path class="cls-8" d="M142.11,175.12c-.7.82.93,1.95,1.6,2.81-8.84,2.15-17.74,4.1-26.74,5.55-17.12,2.75-35.22,5.06-52.48,6.88-1.27.13-3.45.45-4.61,0,1.02-.4,2.35-.4,3.21-1.2.04-.3.1-.67.32-.74,1.13-.35,3.3-.43,4.49-.46.34-.36.87-.62,1.6-.8,25.59-2.37,47.69-6.18,72.59-12.03Z"/>
  <path class="cls-16" d="M112.43,16.7l-1.37-.06c-6.61-5.06-15.51-5.07-22.12,0l-1.37.07c-1.1-17.18,25.29-18.45,24.87,0Z"/>
  <path class="cls-17" d="M90.38,74.05c0,1.86-.08,3.76,0,5.61-5.52.98-11.38,3.37-16.84,4.25-.76.12-1.33.29-2.01-.24-.17-1.6-.46-3.2-.4-4.81,6.44-1.39,12.75-3.64,19.25-4.81Z"/>
  <path class="cls-17" d="M128.88,78.86c.06,1.62-.23,3.22-.4,4.81-.68.53-1.25.36-2.01.24-5.46-.88-11.32-3.27-16.84-4.25.08-1.85,0-3.76,0-5.61,6.5,1.17,12.81,3.43,19.25,4.81Z"/>
  <path class="cls-16" d="M90.78,16.7c-1.17,3.82-1.83,7.7-2.01,11.63-2.26,1.64-4.8,4.81-6.18,7.25-1.3,2.3-1.74,4.58-3.04,6.79-.85-8.94,1.54-18,8.42-24.06-.37-1.26,1.91-2.49,2.81-1.6Z"/>
  <path class="cls-2" d="M112.43,16.7c-.01.53.2,1.33-.4,1.6-.92-.73-2.3-.84-3.2-1.42-1.1-.71-1.86-2.07-3.95-2.39-.57-.09-1.21.31-1.77.2-.37-.07-.56-.76-.71-.8-1.58.26-3.23.3-4.81,0-1.39.14-2.46,1.11-2.67,1.17-.3.09-1.17-.32-1.74.03l-.4.8c-.44.75-.72.67-1.2,0-.18.56-.45.82-.8.8-.67.42-2.31,1.16-2.81,1.6-.34-.49-.36-1.03-.4-1.6,7.51-6.26,17.35-6.23,24.87,0Z"/>
  <path class="cls-7" d="M67.52,187.55c.36,0,.52,0,.4.4-1.32.41-3.5,1.1-4.81,1.2-1.91.14-4.7-.32-6.82-.4,3.23-1.3,7.62-.89,11.23-1.2Z"/>
  <path class="cls-4" d="M143.32,193.97v.4c-1.47,0-2.94.01-4.41,0,1.09-.87,3.02-.21,4.41-.4Z"/>
  <path class="cls-6" d="M125.27,121.37h-.8c.09-.64.31-1.29.4-2.01.65.34.38,1.36.4,2.01Z"/>
  <path class="cls-13" d="M88.77,169.9l15.72-2.12c10.32-4.66,19.81-.47,30.2.11,3.5.2,6.48-.71,9.97.05,3.49.76,5.35,3.23,8.88,3.55,1.51.14,3.09-.09,4.6.01.1.57-.71.58-1.11.68-3.79.92-8,1.54-11.72,1.72.46-1.27.72-2.83-.42-3.8-1.54-1.31-15.06-1.18-18.23-1.42s-7.86-1.57-10.91-1.46c-3.41.12-5.89,5.46-7.95,5.87-.74.15-1.59.01-2.35-.04-5.01-.39-11.55-2.23-16.69-3.15Z"/>
  <path class="cls-1" d="M59.9,165.89c-2.98.25-7.14,1.46-10.03,1.2-2.46-.22-4.2-2.18-5.61-4.01l15.64,2.8Z"/>
  <path class="cls-19" d="M69.52,187.15c-.43.43-1.04.63-1.6.8l-.4-.4c.24-.02,1.2-.33,2.01-.4Z"/>
  <path class="cls-16" d="M92.78,15.9c-.16,3.34-.03,6.69.4,10.03-.89.33-3.24,1.49-4.01,2.01-.42-4.02.38-8.03,2.41-12.03.48-.26.73-.38,1.2,0Z"/>
  <path class="cls-14" d="M89.17,27.93c-.13.09-.25.29-.4.4-.44-1.21-.12-3.67.1-4.91.41-2.3,1.41-4.45,1.9-6.72.3-.18.56-.67.8-.8-1.02,3.97-2.87,7.79-2.41,12.03Z"/>
  <path class="cls-10" d="M113.64,30.33c-.04-.11.04-.27,0-.4-.24-.81-.16-2.39-.4-3.21.11-.35.25-.35.4,0,.23,1.04.82,2.85,0,3.61Z"/>
  <path class="cls-11" d="M108.82,26.72c-.12-.13-.3-.22-.4-.4-.09-.16.09-.62,0-.8-.18-.58-.17-.69.4-.4v1.6Z"/>
  <path class="cls-5" d="M93.18,25.92c-.63-.61-.76-2.14-.82-2.99-.13-2,.12-5.03.42-7.03.07-.45-.07-.52.4-.8v10.83Z"/>
  <path class="cls-14" d="M113.64,26.72h-.4c-.46-1.56-1.39-3.28-2.01-4.81-.12-.5-.1-.63.4-.4.81,1.74,1.59,3.31,2.01,5.21Z"/>
  <path class="cls-14" d="M108.82,25.12l-.4.4c-.67-1.41-1.44-2.82-1.6-4.41l2,4.01Z"/>
  <path class="cls-3" d="M102.41,13.89c-1.07.67-3.66.68-4.81,0,.85-.09,4.21-.17,4.81,0Z"/>
  <path class="cls-10" d="M111.63,21.51l-.4.4c-.42-1.05-.91-2.12-1.2-3.21,1.11.45,1.2,1.93,1.6,2.81Z"/>
  <path class="cls-10" d="M106.01,19.51c-.87-.47-1.49-1.86-1.6-2.81.87.47,1.49,1.86,1.6,2.81Z"/>
</svg>