<?xml version="1.0" encoding="UTF-8"?>
<svg id="Layer_17" data-name="Layer 17" xmlns="http://www.w3.org/2000/svg" viewBox="0 0 200 200">
  <defs>
    <style>
      .cls-1 {
        fill: #9857bc;
      }

      .cls-2 {
        fill: #fecdbe;
      }

      .cls-3 {
        fill: #26a5fd;
      }

      .cls-4 {
        fill: #f5aa31;
      }

      .cls-5 {
        fill: #fee077;
      }

      .cls-6 {
        fill: #bc80e0;
      }

      .cls-7 {
        fill: #feaf9d;
      }

      .cls-8 {
        fill: #99e5fb;
      }

      .cls-9 {
        fill: #f79580;
      }

      .cls-10 {
        fill: #f79480;
      }

      .cls-11 {
        fill: #9757bc;
      }

      .cls-12 {
        fill: #0592fb;
      }

      .cls-13 {
        fill: #f7dee3;
      }

      .cls-14 {
        fill: #ae66d9;
      }

      .cls-15 {
        fill: #fed05b;
      }

      .cls-16 {
        fill: #f5ab31;
      }

      .cls-17 {
        fill: #b879de;
      }
    </style>
  </defs>
  <path class="cls-5" d="M31.07,16.9c6.33.06,18.65,8.67,20.81,14.34.36.94.47,1.51-.71,1.3-.72.26-1.57.43-2.53.51-2.16,1.03-2.47,14.96,2.72,9.64.3-2.6.34-5.23.13-7.91l.79-.75c-.59-.4.13-1.08.56-.8,1.58,1.01,3.22,7.2,3.68,9.34,3.11,14.55-2.96,29.07-15.61,36.91-2.9,1.8-6.41,3.8-9.85,3.68-2.45-.54-4.09-1.24-6.33-2.23-1.45.64-4.18-.65-4.47-2.23-5.75-3.67-10.86-9.89-13.31-16.28-.99-2.59-1.38-5.32-2.32-7.92v-9.31c1.01-2.33,1.34-4.87,2.22-7.27,3.8-10.32,13.43-18.68,24.2-21.02Z"/>
  <path class="cls-2" d="M94.71,47.05l.65.27c22.06,2.41,41.32,23.33,42.91,46.37l-.03,40.66c-3.33.22-6.68.4-10.03.53l-1.51,2.45s.5.92,1.51,2.76c3.18.22,6.37.28,9.59.19,1.03,1,.16,3.97-.36,5.33-2.28,5.99-9.85,9.88-14.91,10.6l-.65.26c-2.21.07-3.59-.71-5.96,0-2.26.33-4.53.4-6.89.25-4.79-.12-8.88.66-8.46,6.36l.13,6.43-.78.37c-9.97,1.12-20.17,1.07-30.15,0-.16-9.76.33-19.61-.25-29.34l-.86-1.75c-17.06-12.94-24.91-36.12-18.24-56.76-.12-.24-.22-.48-.28-.74-.93-4.2,12.34-21.14,16.75-23.78,1.71-1.8,3.54-2.81,5.49-3.03,6.17-3.82,15.06-6.94,22.33-7.44Z"/>
  <path class="cls-6" d="M153.9,16.9c4.58.15,9.46,3.17,13.03,5.99,1.91,1.51,7.74,7.06,7.6,9.25-.02.26-.08.51-.16.77-.39.45-.98.46-1.77.03-3.36-1.88-2.56,9.38-2.23,10.08,3.46,1.71,4.81-.83,4.05-7.61l.69-.64c-.16-.54-.15-.64.37-.37.26.08.51.16.73.29,1.13.65,2.32,4.73,2.72,6.23,2.25,8.47.92,17.84-2.9,25.66-.8,1.02-1.35.71-1.68-.92l-.85-.66c-2.56-13.85-23.26-12.97-24.76.85-.45,4.13,2.77,5.15,3.77,2.08.88-11.7,16.84-11.95,17.38.05.74.77,1.11,1.49,1.11,2.15,4.05-.03-.37,3.8-1.91,5.1-4.38,3.68-9.21,7.56-15.21,7.93-2.29-.5-4.58-1.21-6.7-2.23l-1.15-.99c-3.51-9.02-9.78-16.86-17.56-22.58l-.65-1.37c-.33-.5-.45-1-.37-1.49-1.03-7.86,1.05-16.08,5.21-22.71-.98-.59,1.86-4.5,2.4-4.87l.95.03c4.33-4.72,11.63-8.68,17.87-10.05Z"/>
  <path class="cls-3" d="M69.78,169.88c10.04-.1,20.11-.04,30.15,0,2.83-1.02,5.73-1.04,8.56,0,8.6.63,12.37,8.5,12.33,16.33-.01,2.59-.76,5.49-3.77,5.63-18.67.09-37.35-.07-56.03,0-2-.27-3.29-1.36-3.53-3.36-.34-4.51-.42-9.05-.24-13.63-1.21-2.36.48-5.92,3.22-4.98,2.32-.41,6.69.03,9.31,0Z"/>
  <path class="cls-7" d="M127.1,55.23c.46-.28.64.29.74.74,8.54,5.84,15.96,15.08,19.36,24.94,1.12,3.26,2.36,9.05,2.6,12.47.24,3.32-.53,8.05.09,11.08.93,4.58,11.89,13.54,3.9,17.84-2.1,1.13-3.79.48-6.01.69-.7.06-1.2.62-1.69.72-.72.38-.88.66-.49.84.11,3.37.02,6.68-.25,9.95.02.17.03.34-.02.5-.21.68-12.64.58-14.18.56-1.51.3-2.48.07-2.92-.68,1.19-.94,8.92.02,9.31-.37v-40.77c-2.22-23.25-18.67-41.4-41.53-45.95-.68-.14-1.49.44-1.28-.75,11.32-.78,22.88,2.02,32.38,8.19Z"/>
  <path class="cls-14" d="M153.9,83.15c4.57-1.76,9.01-3.54,12.83-6.71.67-.56,5.26-5.04,5.41-5.39.24-.61-.67-.68-1.11-.93l.51-.71c2.26.19,2.4-1.39,2.14-3.27l.69-.48.74,1.11c5.02-9.61,5.93-22.79.38-32.38-.5-.04-.64-.65-.74-1.12-.34.09-.47-.03-.37-.37-4.02-8.01-12.1-13.24-20.47-16.01,28.44-6.24,51.14,23.65,37.29,49.38-7.2,13.36-22.48,20.12-37.29,16.87Z"/>
  <path class="cls-15" d="M63.82,26.95c1.61.02,4.19,3.36,3.72,4.84,1.01,1.62,2.21,4.4,2.88,6.24,1.99,5.38,2.58,10.78,1.95,16.47-9.5,5.88-18.51,16.86-21.96,27.54l-7.26,1.86h-8.93c-.43,0-2.46-.59-3.16-.74,8.09-2.68,14.82-6.92,19.66-14.03,7.28-10.7,7.61-23.97,1.89-35.46-.16.04-.3.36-.33.36-.93.88-1.88-.64-1.12-1.49.58-.54.02-.93-.28-1.38-4.78-7.25-11.69-11.53-19.82-14.25,11.8-2.56,24.59,1.06,32.75,10.05Z"/>
  <path class="cls-12" d="M112.21,169.88c6.9.07,14.01-1.46,19.36,3.72,1.45-.25,4.15,3.19,3.35,4.47,1.38,3.35,2.74,13.18-2.41,13.78-4.43.52-10.78-.03-15.46,0,3.08-1.52,3.15-4.54,2.97-7.63-.42-7.23-4.55-12.45-11.53-14.33,1.28-.93,2.45-.94,3.72,0Z"/>
  <path class="cls-7" d="M115.93,156.48c-5.64,1.69-3.22,9-3.72,13.4-1.24-.01-2.48,0-3.72,0-2.85-.02-5.71.01-8.56,0,.43-3.44-1.22-9.86,1.67-12.29,2.6-2.18,8.91-1.53,12.29-1.49.63,0,1.66-.24,2.04.38Z"/>
  <path class="cls-7" d="M146.08,123.72c-1.72,10.17,3.1,23.42-7.25,30.16-4.51,2.94-11.61,2.43-16.94,2.6-.23-1.11.56-.65,1.18-.84,7.03-2.17,14.87-6.75,14.45-15.16-.39-.39-8.12.57-9.31-.37-.07-.31,0-.57.25-.74h16.2c-.2-1.66-.2-3.36.67-4.84.02-2.67.35-6.67.03-9.15-.1-.77-1.16-.41-.77-1.46s1.4-.17,1.49-.19Z"/>
  <path class="cls-8" d="M179.12,85.82c3.26-.43,3.7,4.83,3.81,7.2.19,4.33-4.14,5.12-5.31,2.32-.31-.73-1.01-5.5-1.04-6.44-.04-1.66.88-2.86,2.53-3.08Z"/>
  <path class="cls-8" d="M179.85,102.57c4.54-.92,3.77,6.59,2.91,9.26-.62,1.95-3.29,2.49-4.68.92-1.6-1.79,0-6.08-.2-8.4.25-.79,1.16-1.61,1.97-1.78Z"/>
  <path class="cls-8" d="M18.68,93.65c4.38-.99,3.92,6.23,3.29,8.88-.76,3.21-4.96,2.57-5.41.15-.4-2.11-.52-8.44,2.12-9.03Z"/>
  <path class="cls-8" d="M162.72,149.1c2.25-.68,4.41,1.36,3.67,3.67-.13.39-3.9,5.07-4.31,5.37-2.22,1.63-5.48-.14-4.68-2.79.27-.89,4.54-6.01,5.32-6.25Z"/>
  <path class="cls-8" d="M22.77,126.78c2.03-.61,3.07.23,3.9,1.9.33.66,2.13,5.26,2.16,5.68.14,2.23-2.59,3.48-4.46,2.58-.89-.43-3.41-6.74-3.34-7.8.05-.77,1-2.14,1.74-2.37Z"/>
  <path class="cls-8" d="M154.17,161.79c.48.48.92,1.91.79,2.6-.24,1.29-5.08,5.24-6.35,5.62-2.94.9-4.9-2.43-2.17-5.17,1.62-1.63,5.59-5.18,7.72-3.05Z"/>
  <path class="cls-8" d="M103.93,19.6c1.37,1.28.88,3.87-.91,4.67-2.54-.37-6.71,1.33-8.65-.5-1.28-1.21-.89-4,.69-4.47,1.8-.54,7.48-.99,8.87.31Z"/>
  <path class="cls-8" d="M18.89,120.64c-.87-.87-1.84-6.96-1.58-8.26.48-2.44,4.23-2.91,5.23-.41.39.98,1.21,6.06,1.07,7.07-.3,2.21-3.16,3.16-4.72,1.6Z"/>
  <path class="cls-8" d="M177.24,119.34c1.95-.45,3.87.59,3.81,2.67-.03.86-1.58,6.21-2.05,6.91-1.43,2.16-5.01,1.07-5.04-1.65-.02-1.65,1.55-7.53,3.28-7.93Z"/>
  <path class="cls-8" d="M112.48,19.93c1.04-.18,6.58,1.01,7.53,1.63,1.74,1.15,1.55,4.22-.33,4.84-1.28.42-6.84-.59-8.03-1.32-2.19-1.34-1.42-4.78.84-5.16Z"/>
  <path class="cls-8" d="M84.22,20.34c4.31-.38,5.21,4.05,1.65,5.39-1.27.48-5.7,1.4-6.89,1.14-1.95-.43-2.42-3.24-1.03-4.6.89-.88,4.92-1.81,6.27-1.93Z"/>
  <path class="cls-8" d="M33.18,142.45c.4.37,3.8,5.96,3.83,6.43.13,2.29-2.88,3.96-4.84,2.21-.87-.78-3.66-5.24-3.74-6.34-.2-2.77,2.77-4.1,4.75-2.3Z"/>
  <path class="cls-8" d="M172.02,144.45c-1.98,1.8-4.94.48-4.75-2.3.06-.79,2.66-5.91,3.2-6.5,1.59-1.72,5.03-.55,4.9,1.97-.04.8-2.76,6.28-3.35,6.83Z"/>
  <path class="cls-8" d="M40.26,155.06c.89-.27,1.69-.06,2.48.35.36.19,4.52,4.24,4.72,4.58,1.49,2.58-.73,5.23-3.65,4.02-.53-.22-4.36-3.98-4.73-4.57-.94-1.49-.73-3.8,1.18-4.38Z"/>
  <path class="cls-8" d="M60.47,169.88c-1.17.2-2.74,1.59-2.96,2.81-.45,2.45-.34,13.13-.02,15.8-.62-.39-.37-1.41-.38-2.04-.03-2.42.48-10.65-.05-12.23s-6.32-2.61-5.89-5.98c.69-5.32,7.45-.22,9.3,1.64Z"/>
  <path class="cls-8" d="M131.56,173.6c2.48-.85,7.04-4.95,9.1-1.84,2.3,3.48-3.29,5.37-5.75,6.31-.43-1.05-2.48-3.62-3.35-4.47Z"/>
  <path class="cls-8" d="M136.03,26.95c-.98,1.07-2.52,3.52-3.35,4.84-2.18-1.3-8.48-2.56-5.76-6.32,2.12-2.93,6.57,1.02,9.11,1.48Z"/>
  <path class="cls-8" d="M24.74,80.92c-.2,2.83-.92,8.74-5.12,6.8-2.46-1.14-.56-7.26.66-9.03,1.41.9,2.94,1.56,4.47,2.23Z"/>
  <path class="cls-8" d="M67.54,31.79c-.69-1.11-2.82-3.84-3.72-4.84,2.31-.51,6.11-3.62,7.83-.58,1.9,3.34-2.22,4.02-4.11,5.42Z"/>
  <path class="cls-13" d="M127.84,55.98c-.38-.26-.62-.66-.74-.74l.37-.74c.03.24.67.9.37,1.49Z"/>
  <path class="cls-4" d="M25.96,54.97c1.3-1.3,4.03-.93,4.65.91.62,1.85.21,3.53,1.57,5.5,3.39,4.89,11.46,4.23,13.58-1.31.86-2.23-.02-6.19,3.71-5.94,3.53.24,2.4,5.34,1.61,7.53-3.68,10.25-17.9,11.64-23.67,2.62-1.3-2.04-3.37-7.4-1.45-9.32Z"/>
  <path class="cls-16" d="M26.49,32.24c1.07-.32,2.79-.1,3.42.89.55.87.64,8.33.4,9.63-.4,2.14-3.87,2.4-4.98.54-1.02-1.71-1.27-10.33,1.16-11.06Z"/>
  <path class="cls-4" d="M51.17,32.53c.33.24.64,1.4,1.12,1.49-.22,2.55.3,5.53,0,8.01-.41,3.48-5.19,3.42-5.61,0-.17-1.37-.17-6.87.18-8.04.53-1.74,2.88-2.51,4.3-1.47Z"/>
  <path class="cls-10" d="M83.85,94.42c2.62-.18,5.47.47,7.77,1.69,2.16,1.14,8.01,5.8,4.95,8.43-2.85,2.45-4.83-1.64-6.71-2.94-4.82-3.35-12.4-.77-13.58,4.98-.42,2.05-.44,8.85-.17,11.01.47,3.89,4.26,6.87,8.02,7.24,2.41.24,6.48-1.02,7.11,2.23.97,4.98-8.34,3.49-11.13,2.53-10.04-3.44-10.49-13.69-9.57-22.8.66-6.52,6.92-11.92,13.32-12.37Z"/>
  <path class="cls-9" d="M86.16,115.9c-.49-.49-7.87,1.33-6.25-4.2.73-2.48,4.75-.74,5.9-1.54.89-.62-.64-4,2.29-4.81,1.67-.46,3.36.93,3.62,2.58.25,1.56.26,8.88-.06,10.32-.4,1.8-2.45,2.8-4.1,2.04-2.16-1-1.14-4.11-1.4-4.38Z"/>
  <path class="cls-9" d="M145.34,134.52c-.02,1.86.01,3.73,0,5.59h-17.12c-2.94-.6-3.07-4.84,0-5.21l17.12-.37Z"/>
  <path class="cls-10" d="M129.23,82.11c2.77-.61,4.08,1.5,3.26,4.02-2.73,1.92-6.72,7.88-9.35,9.26s-5.33-1.43-3.65-4.03c.72-1.12,7.15-7.51,8.35-8.4.46-.34.78-.71,1.39-.85Z"/>
  <path class="cls-9" d="M132.2,94.4c1.46-.43,3.37.03,3.75,1.68.26,1.15.26,6.12.06,7.34-.51,3.12-4.87,2.93-5.47-.44-.34-1.86-.57-7.92,1.67-8.58Z"/>
  <path class="cls-11" d="M174.37,65.66c.35,2.82.16,4.79-3.35,4.47-2.7-1.51-1.55-2.66-2.42-5.21-2.43-7.1-12.72-6.77-14.91.72-.47,1.62-.07,4.69-2.96,4.7-5.06.01-2.12-8.17-.35-10.6,7.04-9.66,22.5-5.97,23.98,5.93Z"/>
  <path class="cls-11" d="M152.3,43.96c-1.43,1.22-4.21.63-4.65-1.27-.29-1.27-.24-8.32.27-9.24,1.22-2.17,4.6-1.62,5.15.84.28,1.26.27,6.37.09,7.75-.07.58-.44,1.56-.87,1.92Z"/>
  <path class="cls-1" d="M174.37,32.9c.12.09.26.25.37.37.3.58.43,1.08.37,1.49.22,1.69.21,7.2-.59,8.53-1.06,1.76-4.39,1.6-4.91-.23-.29-1.02-.2-8.82.2-9.7.79-1.73,3.2-1.43,4.56-.46Z"/>
  <path class="cls-17" d="M175.49,34.39l-.37.37c-.03-.24-.67-.9-.37-1.49.41.43.48.66.74,1.12Z"/>
</svg>