<?xml version="1.0" encoding="UTF-8"?>
<svg id="Layer_17" data-name="Layer 17" xmlns="http://www.w3.org/2000/svg" viewBox="0 0 200 200">
  <defs>
    <style>
      .cls-1 {
        fill: #8ac8fd;
      }

      .cls-2 {
        fill: #89c8fd;
      }

      .cls-3 {
        fill: #8694dd;
      }

      .cls-4 {
        fill: #60b6fe;
      }

      .cls-5 {
        fill: #d7ebfd;
      }

      .cls-6 {
        fill: #9d9696;
      }

      .cls-7 {
        fill: #888383;
      }

      .cls-8 {
        fill: #d6af92;
      }

      .cls-9 {
        fill: #00f1a5;
      }

      .cls-10 {
        fill: #6dbcfe;
      }

      .cls-11 {
        fill: #d6ebfd;
      }

      .cls-12 {
        fill: #e8d5c5;
      }

      .cls-13 {
        fill: #ffeddc;
      }

      .cls-14 {
        fill: #d6eafd;
      }

      .cls-15 {
        fill: #6c7fd7;
      }

      .cls-16 {
        fill: #8ac9fd;
      }

      .cls-17 {
        fill: #64b8fe;
      }

      .cls-18 {
        fill: #6cf4c1;
      }

      .cls-19 {
        fill: #c3e1fe;
      }

      .cls-20 {
        fill: #edcbae;
      }
    </style>
  </defs>
  <path class="cls-5" d="M26.2,113.28l.53,3.48c.39,18.59.28,37.23.15,55.83-.02,2.34-.34,4.67-.67,6.98,1.18,1.47,1.03,5.15,0,6.7-.85-2.13-.15-4.82-.37-7.08H9.63c-1.83,0-4.55-3.52-5.03-5.21.07-1.23-.09-2.5,0-3.72,0-.07.31-.29.34-.6,1.09-13.04,2.68-28.82,4.93-41.63,1.59-9.06,7.02-14.27,16.34-14.76Z"/>
  <path class="cls-3" d="M65.68,113.28l.8.72c.86,13.96,26.75,14.01,27.76.09l.87-.8c5.95.01,11.92-.03,17.88,0,3.26.15,5.26,2.33,6.22,5.34l.11,19.55-.74.45c-.76.18-1.53.34-2.3.45s-1.53.21-2.3.22c-13.84.1-27.72.11-41.52.09-.87.14-1.58.48-1.83,1.43-.32,8.51-.35,17.55-.1,26.15,0,.33.89,1.22,1.01,1.22,13.93.32,27.87.4,41.8.33,1.77.02,3.51.32,5.24.65.29.03.73.13.74.33.2,2.53.19,6.65,0,9.18l-.74.54-2.17.49c-28.03-.21-56.07-.33-84.12.13l-5.57.51-.5-.76c-.31-22.08.23-44.21,0-66.3,12.73-.68,26.6.03,39.47,0Z"/>
  <path class="cls-13" d="M118.93,19.79c.33.1.33.23,0,.37l.16,1.28c-2.5,3.46-4.67,7.07-6.52,10.84,1.8,3.99,4.36,2.41,7.68-4.74.63-.91,1.47-1.2,2.07-.23,1.28,2.97,3.01,5.55,5.18,7.75.52-.48.75-.23.37.37.29.12.57.26.82.43s.47.34.61.56c3.84,6.31,7.78,12.96,11.02,19.59,3.1,6.35,2.63,12.03-3.41,16.29h7.56s.54.75.54.75c-4.73.65-9.9.57-14.69-.02-10.48-1.05-24.07,1.49-34.19-.07-5.35-.83-8.94-6.45-8.43-11.6.1-1.06.64-2.05.7-3.2,1.88-.93,3.7-.92,5.59,0,2.13-.93,4.2-.92,6.33,0,1.83-1.03,3.75-1.01,5.59,0,1.89-1.11,4.41-1.08,6.33,0,.97-1.17,4.52-1.02,5.59,0l.58-.83c8.04-1.4,7.91-12.5-.01-13.98l-.57-.84c-.96,1.01-4.72,1.15-5.59,0l-1.71.48c-3.37.05-6.77-.11-10.21-.48-1.65,1.15-4.31,1.15-5.96,0l3.29-.06c4.48-7.74,8.47-15.9,13.17-23.52,1.33-2.16,1.97-3.47,4.02-5.1,2.13.7,4.16,3.72,4.1,5.96Z"/>
  <path class="cls-6" d="M118.56,179.2c.07-.33.2-.32.37,0,.58.49.7,1.28.39,2.36.72,4.6-.31,8.26-3.09,10.97l11.68.15,1.45.66c-.39.62-1.41.37-2.04.38-31.59.39-63.33-1.07-94.98-.37-3.68-.83-5.83-3.35-6.14-7.09-.17-2.12.03-4.53,0-6.7,1.33.12,2.57-.32,3.89-.39,28.54-1.43,59.64-.01,88.46.02Z"/>
  <path class="cls-15" d="M136.44,163.93c1.15,4.89,1.22,10.4,0,15.27,0,.12,0,.25,0,.37-.53.3-1.1.55-1.71.57-2.14.09-14-.02-14.96-.45-.29-.13-.57-.31-.83-.5-.12,0-.25,0-.37,0v-10.06c.07-.33.2-.32.37,0l.37-.75c3.46.64,5.44-.11,5.95-2.25.2-8.38.26-16.93-.06-25.32-.07-1.77-4.34-1.58-5.63-1.48l-.64-.74c-.07.33-.2.32-.37,0l-.08-19.84c-.93-2.82-2.81-4.4-5.5-5.48,5.11.03,12.5-.63,17.28.03,3.5.48,6,3.77,6.19,7.21-.07,14.47.04,28.94-.02,43.41Z"/>
  <path class="cls-20" d="M145,73.05h-11.54s2.43-1.11,2.43-1.11c5.85-3.44,6.92-8.97,4.09-14.92-3.26-6.85-8.26-14.85-12.11-21.6l.25-.85c4.78-.91-3.82-12.74-5.22-14.1-.92-.89-2.15-.92-3.21-.28l-.75-.42c-1.22-2.06-2.56-4.12-4.1-5.96,4.42-3.52,10.45-3.07,14.34,1.11,7.42,13.68,17.01,27.43,23.84,41.34,1.98,4.03,2.86,6.54.88,10.95-1.81,4.01-4.81,5.26-8.89,5.82Z"/>
  <path class="cls-2" d="M95.1,113.28c-1.3,10.6-8.7,12.24-18.08,11.56-6.51-.47-11.05-5.04-11.34-11.56,9.8-.02,19.62-.02,29.42,0Z"/>
  <path class="cls-7" d="M136.44,179.57c-.1,5.96,1.01,13.18-7.08,13.78-5.17.38-10.79-.28-16.01,0l2.61-1.66c4.3-3.5,1.72-7.9,2.97-12.49,5.81,0,11.77-.31,17.5.37Z"/>
  <path class="cls-5" d="M145,163.93c.29,0,.73.09.74.27.09,2.55.17,12.74-.36,14.58l-.76.42c-2.72-.05-5.47.04-8.19,0,.07-5.08-.02-10.19,0-15.27h8.57Z"/>
  <path class="cls-5" d="M97.33,83.48l.74.25v14.28s4.33,0,4.33,0l.52.74c.33.11.32.23,0,.37-5.81.05-11.67.05-17.5,0-.33-.11-.32-.23,0-.37l.32-.74h4.52s0-14.09,0-14.09l.74-.44c2.11,0,4.23,0,6.33,0Z"/>
  <path class="cls-5" d="M88.4,42.51c.33.11.32.23,0,.37l.7,1.61c.16,2.28.51,11.6-.16,12.89-.14.28-.33.53-.54.77-2.11.01-4.23-.02-6.33,0l-.74-.25v-14.35c-1.66.2-3.36.2-4.84-.67.04-.51.55-.34.91-.39,2.7-.33,7.92.06,11.01.02Z"/>
  <path class="cls-5" d="M94.35,42.51c1.93.03,4.01.03,5.96,0,.33.11.32.23,0,.37.29,0,.73.07.74.25.22,3.8.25,9.02,0,12.8.24,1.22,0,1.97-.74,2.23-2.11.01-4.23-.01-6.33,0l-.74-.25v-14.28s-4.33,0-4.33,0l-.52-.74v-.37c1.98-.03,3.98-.03,5.96,0Z"/>
  <path class="cls-5" d="M85.42,83.48c.29,0,.73.07.74.25.3,3.6.41,11.08,0,14.58l-.74.44v.37c-3.87-.03-8.02.16-11.92,0-.33-.11-.32-.23,0-.37l.32-.74h4.52s0-14.09,0-14.09l.74-.44c2.11.02,4.23-.01,6.33,0Z"/>
  <path class="cls-5" d="M109.25,83.48l.74.25v14.35c1.79-.35,3.41-.12,4.84.67-.04.51-.55.34-.91.39-2.65.33-7.98-.04-11.01-.02v-.37c-.29,0-.74-.07-.74-.25-.09-1.78-.37-13.95,0-14.58l.74-.44c2.11,0,4.23,0,6.33,0Z"/>
  <path class="cls-5" d="M121.17,83.48l.74.25v14.35c1.66-.2,3.36-.2,4.84.67-.2.6-3.49.43-4.3.39-2.56-.12-5.03-.35-7.62-.39-.29,0-.73-.07-.74-.25-.18-2.84-.51-12.29,0-14.58l.74-.44c2.11,0,4.23,0,6.33,0Z"/>
  <path class="cls-1" d="M66.05,73.8c0,.19.36.74.37,1.28.05,1.42-.22,3.41,0,4.68l-.8,1.38c-1.58,1.16-11.31,7.55-11.99,7.08l-.62-.63c-.7-1.37-1.13-2.97-1.49-4.47-.09-.45-.24-1.43,0-1.76.99-1.38,10.56-6.36,12.88-7.52.22-.11.49-.12.77-.13s.58.04.88.1Z"/>
  <path class="cls-1" d="M150.59,163.93c.29,0,.73.07.74.25.24,3.35.49,11.52,0,14.58l-.74.44c-1.94.03-3.99.04-5.96,0l.37-15.27h5.59Z"/>
  <path class="cls-1" d="M66.05,66.35c.02,1.89-.03,4.11,0,5.96,0,.29-.09.73-.27.74-3.35.15-11.53.21-14.58-.36l-.42-.76c-.02-1.85-.06-3.74,0-5.59,0-.29.07-.74.25-.74,1.78-.09,14.01-.45,14.58,0l.44.74Z"/>
  <path class="cls-1" d="M162.5,163.93c.29,0,.73.07.74.25.15,2.55.48,12.73,0,14.58l-.74.44c-1.88,0-4.04.02-5.96,0-.29,0-.73-.09-.74-.27-.11-2.85-.21-12.3.36-14.58l.76-.42c1.86,0,3.73.01,5.59,0Z"/>
  <path class="cls-1" d="M67.17,43.25l.92.17c2.33,4.67,4.67,9.33,7,14l-.47.73c-2.11.07-3.99-.3-5.96.74-.18.07-.36.12-.52.08-.7-.18-6.41-11.2-6.96-12.66l.4-.83c2.11-1.18,3.09-1.78,5.59-2.23Z"/>
  <path class="cls-5" d="M67.17,81.24l.39.93c-4.15,8.77-6.23,13.15-6.23,13.15l-.86.08c-3.22-2.09-5.64-4.31-7.45-7.82.77.1,1.22-.27,1.83-.59,3.9-2.04,7.8-4.93,11.57-7.24.01.08.68,1.4.74,1.49Z"/>
  <path class="cls-5" d="M168.46,163.93c.29,0,.74.07.74.25.14,2.7.5,12.43,0,14.44-.08.32-.23.84-.74.95-2.05.02-3.9-.36-5.96-.37v-15.27c1.98-.01,3.98.03,5.96,0Z"/>
  <path class="cls-5" d="M145,83.48c.29,0,.73.09.74.27.09,2.55.17,12.74-.36,14.58l-.76.42c-1.98,0-3.98,0-5.96,0-.29,0-.74-.07-.74-.25-.09-1.78-.45-14.01,0-14.58l.74-.44c2.11,0,4.23,0,6.33,0Z"/>
  <path class="cls-5" d="M156.92,163.93l-.37,15.27c-1.98-.02-3.98-.03-5.96,0v-15.27c2.11,0,4.23,0,6.33,0Z"/>
  <path class="cls-5" d="M133.08,83.48c.29,0,.73.09.74.27.12,3.76.05,9.09-.31,12.8.21,1.23-.06,1.97-.8,2.21-1.98,0-3.98.02-5.96,0-.29,0-.74-.07-.74-.25-.09-1.78-.37-13.95,0-14.58l.74-.44c2.11,0,4.23,0,6.33,0Z"/>
  <path class="cls-5" d="M156.55,83.48c.29,0,.72.06.74.25.45,3.33.27,11.07,0,14.58l-.74.44c-1.98-.01-3.98,0-5.96,0-.29,0-.73-.07-.74-.25-.18-2.84-.51-12.29,0-14.58l.74-.44c1.98,0,3.98-.01,5.96,0Z"/>
  <path class="cls-5" d="M168.46,83.48c.26.03.68.23.74.44.25.78.17,12.91,0,14.39l-.74.44c-1.98-.04-3.98.02-5.96,0-.29,0-.73-.07-.74-.25-.17-2.7-.5-12.5,0-14.58l.74-.44c1.98.02,3.98-.03,5.96,0Z"/>
  <path class="cls-1" d="M162.5,83.48v15.27c-1.98-.02-3.98.01-5.96,0v-15.27c1.98.01,3.98-.02,5.96,0Z"/>
  <path class="cls-1" d="M150.59,83.48v15.27c-1.98,0-3.98,0-5.96,0l.37-15.27c1.86,0,3.73,0,5.59,0Z"/>
  <path class="cls-1" d="M138.67,83.48v15.27c-1.98,0-3.98,0-5.96,0l.37-15.27c1.86,0,3.73,0,5.59,0Z"/>
  <path class="cls-1" d="M72.01,83.48c.27.12.65.36.58.53-1.36,3.65-3.58,9.07-5.41,12.42-.24,1.13-.74,1.65-1.5,1.58-2.48-.68-3.23-1.32-5.21-2.61l6.7-14.15c1.21,1.59,2.96,2.08,4.84,2.23Z"/>
  <path class="cls-1" d="M54.13,52.19c.38-.03.77-.05,1.14-.01,1.68.16,12.69,6.2,12.73,6.93l-.47.9c-.89,1.28-.72,1.77-1.12,2.98.03,1.67-.43,2.49-1.38,2.45l-13.03-7.12-.12-.91c.53-1.77,1.21-3.62,2.23-5.21Z"/>
  <path class="cls-1" d="M184.1,95.03c.33.1.33.23,0,.37l.05.94-2.45,3.98c1.58-.8,2.75-.95,3.52-.45.12-.32.25-.32.37,0,1.39.37,1.41,4.53.74,5.59.51.52.28.75-.37.37-.39,1.43-5.37,3.18-6.05,1.93l-.28-4.54c-.7-2.76-1.79-3.45-4.47-4.1-.19-.1-.34-.2-.35-.32-.05-.53,3.77-8.01,4.27-8.5l.92-.13c.11-.33.23-.32.37,0,.25-.15.62-.34.79-.2.98.86,3.27,3.79,2.94,5.04Z"/>
  <path class="cls-16" d="M174.42,163.93c.73,4.34.73,8.7,0,13.04.33.11.32.23,0,.37l-.2.78c-.82-.04-.76.32.2,1.08.33.11.32.23,0,.37-1.91.14-4.02-.02-5.96,0v-15.64c1.94-.03,4.07.15,5.96,0Z"/>
  <path class="cls-5" d="M66.05,72.31c0,.5,0,.99,0,1.49-4.47,2.37-9.65,5.09-13.8,8-.59.42-.96.12-.73,1.31-.93-3.9-.71-7.22-.74-11.17l15.27.37Z"/>
  <path class="cls-5" d="M61.58,45.49l7.08,13.41c-.38.2-.86.75-1.12,1.12.14-.86-1.03-1.21-1.62-1.55-3.85-2.19-7.77-4.42-11.79-6.27,1.93-3.02,4.36-4.98,7.45-6.7Z"/>
  <path class="cls-5" d="M76.48,42.88c.29,0,.73.07.74.25.22,3.8.25,9.02,0,12.8.24,1.22,0,1.97-.74,2.23-.62.01-1.24-.02-1.86,0l-7.45-14.9c3.08-.56,6.17-.4,9.31-.37Z"/>
  <path class="cls-1" d="M76.48,42.88c1.86.02,3.73-.01,5.59,0v15.27c-1.86.02-3.73-.04-5.59,0v-15.27Z"/>
  <path class="cls-2" d="M126.75,83.48v15.27c-1.86-.02-3.73.01-5.59,0v-15.27c1.86,0,3.73,0,5.59,0Z"/>
  <path class="cls-2" d="M79.09,83.48v15.27s-5.59,0-5.59,0c-.29,0-.73-.07-.74-.25-.18-2.84-.51-12.29,0-14.58l.74-.44c1.85.07,3.73-.02,5.59,0Z"/>
  <path class="cls-2" d="M91,83.48v15.27s-5.59,0-5.59,0v-15.27c1.86.01,3.73,0,5.59,0Z"/>
  <path class="cls-2" d="M102.92,83.48v15.27h-5.59s0-15.27,0-15.27c1.86,0,3.73,0,5.59,0Z"/>
  <path class="cls-2" d="M114.84,83.48v15.27c-1.86-.03-3.73.02-5.59,0v-15.27c1.86,0,3.73,0,5.59,0Z"/>
  <path class="cls-1" d="M174.42,85.34c.33.11.32.23,0,.37.73,4.34.73,8.7,0,13.04-1.78-.21-4.08.04-5.96,0v-15.27c.12,0,.25,0,.37,0,1.8.2,3.58.53,5.33.99l.26.87Z"/>
  <path class="cls-5" d="M51.9,57.41l13.6,7.44c.66.18.71-1.21.92-1.86.25,1.15-.38,2.3-.37,3.35h-15.27c.11-3.5.08-5.51,1.12-8.94Z"/>
  <path class="cls-5" d="M73.5,83.48v15.64c-2.39-.1-5.47-.47-7.82-1.12l6.33-14.53c.49.04,1-.02,1.49,0Z"/>
  <path class="cls-19" d="M194.16,165.42c-1.3,3.84-3.31,6.35-6.33,8.94-.85.06-4.12-4.87-4.1-5.21l.38-1.12c-.34-.09-.33-.21,0-.37-.79-1.41.1-4.74,1.49-5.21,3.13-.09,6.16.99,8.57,2.98Z"/>
  <path class="cls-19" d="M193.79,96.52l-.62.92c-2.22.79-4.39,1.72-6.51,2.79l-1.07-.36c-.11.04-.26-.04-.37,0-1-.64-1.66-3.35-1.12-4.47-.05-.1.05-.27,0-.37-.22-.47-.3-.74-.21-1.22.06-.29,2.8-4.86,3.04-5.14l.89-.35c2.55,2.12,4.71,5.13,5.96,8.19Z"/>
  <path class="cls-19" d="M195.28,151.64c-.04,2.57.15,5.28,0,7.82-2.72.28-6.58-.75-8.57-2.61-.89.14-1.14.02-.74-.37-1.16-.57-1.17-4.32,0-4.84.11-.33.23-.32.37,0,.08-.29.2-.72.43-.74.91-.11,7.35-.17,7.96,0l.54.74Z"/>
  <path class="cls-19" d="M195.28,102.1c.21,2.45-.04,5.3,0,7.82-2.94.31-6.34.29-9.31,0-1.2-.3-1.08-3.58,0-4.1.13-.05.25-.33.37-.37,2.36-2.11,5.78-3.33,8.94-3.35Z"/>
  <path class="cls-4" d="M186.71,156.85c2.83.91,5.76,1.62,8.57,2.61-.13,2.2-.41,3.87-1.12,5.96-2.85-1-5.71-2.03-8.57-2.98-.76-.14-.54-4.93-.41-5.17.42-.8.62-.76,1.53-.42Z"/>
  <path class="cls-19" d="M195.28,139.72c0,1.98.01,3.98,0,5.96-.08.29-.2.72-.43.74-.93.1-7.8.17-8.35,0l-.53-.74c-.93-2.01-.93-3.95,0-5.96.08-.29.19-.72.43-.74,1.15-.15,7.38-.2,8.35,0l.53.74Z"/>
  <path class="cls-19" d="M195.28,127.8c0,1.98,0,3.98,0,5.96-.08.29-.2.72-.43.74-.89.09-7.97.17-8.35,0-.28-.12-.42-.45-.53-.74-1.02-1.96-1.03-4.01,0-5.96.08-.29.2-.72.43-.74,1.12-.14,7.45-.2,8.35,0l.53.74Z"/>
  <path class="cls-4" d="M195.28,133.76c0,1.98,0,3.98,0,5.96h-9.31c-.74-1.98-.74-3.98,0-5.96h9.31Z"/>
  <path class="cls-19" d="M195.28,115.88c.02,1.98-.01,3.98,0,5.96-2.94.31-6.34.29-9.31,0-.73-1.98-.73-3.98,0-5.96.08-.29.2-.73.43-.74,2.2-.19,6.16-.18,8.35,0l.53.74Z"/>
  <path class="cls-4" d="M195.28,145.68c-.01,1.98.03,3.98,0,5.96h-8.94c-1.65-.36-1.64-5.14-.37-5.96h9.31Z"/>
  <path class="cls-4" d="M193.79,96.52c.72,1.77,1.32,3.67,1.49,5.59-2.96,1.16-5.97,2.22-8.94,3.35-.7-1.56-.27-3.77-.74-5.59,2.72-1.07,5.29-2.71,8.19-3.35Z"/>
  <path class="cls-1" d="M184.1,167.66c0,.12-.02.26,0,.37.18,1.56-2.17,4.89-3.72,4.84-.11.33-.23.32-.37,0-.27.11-.66.26-.81.09-1.55-1.78-4.08-6.76-4.4-9.03,2.12-.24,3.53-1.01,4.47-2.98,2.07.78,4.48,4.41,4.84,6.7Z"/>
  <path class="cls-4" d="M195.28,122.22c0,1.86,0,3.73,0,5.59h-9.31c-.9-1.76-1.11-3.94-.32-5.77,3.26-.09,6.48-.03,9.63.19Z"/>
  <path class="cls-4" d="M195.28,110.3c.03,1.86-.02,3.73,0,5.59h-9.31c-.64-1.92-1.05-3.84-.34-5.77,3.27-.09,6.49-.03,9.65.19Z"/>
  <path class="cls-5" d="M180.01,90.18l-4.84,8.94c-.24-.06-.54-.35-.74-.37v-13.04c1.11-1.2,5.83,2.73,5.97,3.67l-.39.8Z"/>
  <path class="cls-5" d="M180.01,172.87c.57,1.8-4.05,5.34-5.59,4.1v-13.04c.12,0,.25.01.37,0l5.21,8.94Z"/>
  <path class="cls-16" d="M185.97,109.92h9.31c0,.12,0,.25,0,.37h-9.31c0,1.86,0,3.73,0,5.59-.61,1.22-5.24,1.17-5.96,0-.03-1.98.07-3.98,0-5.96.61-1.22,5.24-1.17,5.96,0Z"/>
  <path class="cls-16" d="M185.97,121.84h9.31c0,.12,0,.25,0,.37h-9.31c0,1.86.02,3.73,0,5.59-.61,1.22-5.24,1.17-5.96,0,0-1.98.01-3.98,0-5.96.61-1.22,5.24-1.17,5.96,0Z"/>
  <path class="cls-4" d="M187.83,88.32c-.68,2.46-2.67,4.39-3.72,6.7l-3.72-4.84c-.82-1.01,1.3-4.87,2.61-4.84,1.75.77,3.37,1.76,4.84,2.98Z"/>
  <path class="cls-4" d="M187.83,174.36c-1.68,1.44-2.35,2.02-4.47,2.98-1.64.53-3.96-3.26-2.98-4.47l3.72-4.84c.32,1.62,3.23,4.47,3.72,6.33Z"/>
  <path class="cls-1" d="M185.97,156.48c.32.1.57.32.74.37-1.13-.21-.72.57-.75,1.29-.07,1.59-.09,2.72-.37,4.3-2.19.41-4.4-.27-5.96-1.86.54-1.69.32-4.17.37-5.96,2.27-.39,4.31.26,5.96,1.86Z"/>
  <path class="cls-16" d="M185.97,145.68c.01,1.95-.29,4.17.37,5.96h-.37c-.61,1.22-5.24,1.17-5.96,0,.03-1.98-.02-3.98,0-5.96.61-1.22,5.24-1.17,5.96,0Z"/>
  <path class="cls-5" d="M185.97,139.72c0,1.98-.01,3.98,0,5.96h-5.96c.02-1.98,0-3.98,0-5.96.61-1.22,5.24-1.17,5.96,0Z"/>
  <path class="cls-16" d="M185.97,133.76c0,1.98,0,3.98,0,5.96h-5.96c0-1.98,0-3.98,0-5.96.61-1.22,5.24-1.17,5.96,0Z"/>
  <path class="cls-5" d="M185.97,127.8c-.02,1.98,0,3.98,0,5.96h-5.96c0-1.98,0-3.98,0-5.96h5.96Z"/>
  <path class="cls-5" d="M185.97,115.88c0,1.98,0,3.98,0,5.96h-5.96c-.01-1.98.03-3.98,0-5.96h5.96Z"/>
  <path class="cls-19" d="M182.99,85.34l-2.61,4.84h-.37c-.95-2.04-3.66-3.46-5.59-4.47v-.37c-1-.44-1.12-1.52,0-1.86,3.35.19,5.49.51,8.57,1.86Z"/>
  <path class="cls-19" d="M183.36,177.34c-2.96,1.34-5.69,2-8.94,2.23v-.37c-1.14-.08-1-1.55,0-1.86v-.37c2.17-.58,4.24-2.31,5.59-4.1h.37c.69,1.56,1.56,3.47,2.98,4.47Z"/>
  <path class="cls-5" d="M185.97,151.64v4.84c-1.98-.63-3.97-1.27-5.96-1.86.03-.99-.02-1.99,0-2.98h5.96Z"/>
  <path class="cls-5" d="M179.63,103.22c.4,1.57.49,2.78.37,4.47.31.3,5.11-1.54,5.96-1.86v4.1h-5.96c-.08-2.22-.64-4.44-.37-6.7Z"/>
  <path class="cls-11" d="M185.59,162.44c-.3,1.66-1.44,3.93-1.49,5.21l-4.84-6.7c.07-.15.34-.27.37-.37,1.98.61,3.99,1.21,5.96,1.86Z"/>
  <path class="cls-17" d="M174.42,83.48v1.86l-5.59-1.86c1.85.03,3.74-.1,5.59,0Z"/>
  <path class="cls-18" d="M118.56,138.6c.12,0,.25,0,.37,0l.74.26v29.83l-.74.45c-.12,0-.25,0-.37,0-15.68.35-31.56-.03-47.2-.28-.8-.49-1.62-1.08-1.61-2.12.64-8.14-.78-17.37,0-25.37.17-1.79,1.06-2.55,2.81-2.78,15.32.27,30.69-.34,46,0Z"/>
  <path class="cls-19" d="M42.96,154.99l.22-.98c5.27-3.36,5.27-11.44,0-14.8l-.22-.98c4.72-2.81,10.54-1.63,13.33,3.24,5.15,8.99-4.3,18.67-13.33,13.52Z"/>
  <path class="cls-5" d="M42.96,138.23c6.55,3.37,6.56,13.39,0,16.76-6.73-3.84-6.51-12.88,0-16.76Z"/>
  <path class="cls-15" d="M43.23,166.25c1.25-.28,8.29-.26,9.44.09,2.78.85,2.29,4.93-.21,5.41-1.18.22-8.46.16-9.51-.16-2.45-.76-2.28-4.77.28-5.34Z"/>
  <path class="cls-5" d="M112.23,42.51c1.09,0,1.04,1.24,0,1.49.73,4.21.73,8.45,0,12.66,1.09,0,1.04,1.24,0,1.49-2.1.04-4.23-.02-6.33,0l-.74-.25v-14.28s-4.33,0-4.33,0l-.52-.74v-.37c3.99-.06,7.93-.04,11.92,0Z"/>
  <path class="cls-12" d="M127.5,35.06c-2.97-.69-4.56-5.32-5.96-7.82-1.97,1.64-3.85,8.01-6.54,8.19-1.49.1-3.17-1.7-3.16-3.16,0-2,6.03-9.69,7.1-12.1,3.82,4.3,6.74,9.44,8.57,14.9Z"/>
  <path class="cls-19" d="M117.82,58.15c-.29,0-.73-.07-.74-.25-.35-3.77-.37-11.2,0-14.95l.74-.44c9.73,1.13,9.77,14.68,0,15.64Z"/>
  <path class="cls-1" d="M100.31,42.88h5.59s0,15.27,0,15.27c-1.86.02-3.73,0-5.59,0v-15.27Z"/>
  <path class="cls-1" d="M88.4,42.88h5.59s0,15.27,0,15.27c-1.86,0-3.73-.01-5.59,0,.3-4.99-.22-10.25,0-15.27Z"/>
  <path class="cls-8" d="M127.87,35.43s-.2-.07-.37-.37c-2.84-4.97-5.66-9.97-8.57-14.9-.05-.09.05-.28,0-.37,1.59-1.01,3.01-1.12,4.48.17.58.51,6.47,9.89,6.77,10.73.89,2.49.24,4.09-2.32,4.74Z"/>
  <path class="cls-4" d="M117.82,42.51v15.64c-1.73.17-3.79-.03-5.59,0v-1.49l.39-1.02c3.3-2.63,3.32-7.7.13-10.41l-.51-1.23v-1.49c1.75.02,3.92-.19,5.59,0Z"/>
  <path class="cls-9" d="M118.93,169.15v-30.54c2.2.06,6.37-.68,7,2.13-.41,8.11.82,17.27.1,25.27-.37,4.09-3.97,3.06-7.09,3.15Z"/>
  <path class="cls-14" d="M185.22,99.87c-.71.28-5,2.03-5.21,1.86,1.35-2.07,2.34-4.6,4.1-6.33.6,1.34,1.2,2.99,1.12,4.47Z"/>
  <polygon class="cls-10" points="174.42 177.34 174.42 179.2 168.83 179.02 174.42 177.34"/>
  <path class="cls-2" d="M93.13,146.53c.41.41.79,1.69.86,2.31.25,2.25.26,8.2-.04,10.4-.56,3.98-5.36,3.89-5.89-.37-.26-2.11-.31-8.29.06-10.31.44-2.44,3.16-3.88,5.02-2.03Z"/>
  <path class="cls-2" d="M100.59,150.97c2.07-.2,2.93,1.24,3.09,3.07.12,1.31.17,5.06-.18,6.18-.84,2.69-5.07,2.31-5.44-.56-.32-2.48-.75-8.38,2.53-8.69Z"/>
  <path class="cls-2" d="M80.86,153.57c5.36-.89,3.86,11.7-1.39,7.94-1.94-1.39-1.93-7.39,1.39-7.94Z"/>
  <path class="cls-2" d="M112.23,56.66v-12.66c4.75,2.58,4.92,10.18,0,12.66Z"/>
</svg>