<?xml version="1.0" encoding="UTF-8"?>
<svg id="Layer_17" data-name="Layer 17" xmlns="http://www.w3.org/2000/svg" viewBox="0 0 200 200">
  <defs>
    <style>
      .cls-1 {
        fill: #fedf77;
      }

      .cls-2 {
        fill: #8ceda0;
      }

      .cls-3 {
        fill: #dad7da;
      }

      .cls-4 {
        fill: #7ad6ed;
      }

      .cls-5 {
        fill: #fe5f7a;
      }

      .cls-6 {
        fill: #736572;
      }

      .cls-7 {
        fill: #5ee3aa;
      }

      .cls-8 {
        fill: #5ecaef;
      }

      .cls-9 {
        fill: #8beda0;
      }

      .cls-10 {
        fill: #615260;
      }

      .cls-11 {
        fill: #f7eacb;
      }

      .cls-12 {
        fill: #fecf5b;
      }

      .cls-13 {
        fill: #4bc2ee;
      }

      .cls-14 {
        fill: #f3a973;
      }

      .cls-15 {
        fill: #4ce0a1;
      }

      .cls-16 {
        fill: #faf3da;
      }

      .cls-17 {
        fill: #5ec9f0;
      }

      .cls-18 {
        fill: #c8c4c8;
      }

      .cls-19 {
        fill: #faf2e0;
      }

      .cls-20 {
        fill: #fcf7ed;
      }

      .cls-21 {
        fill: #fe8a57;
      }

      .cls-22 {
        fill: #fabc80;
      }

      .cls-23 {
        fill: #fefefe;
      }

      .cls-24 {
        fill: #fe744d;
      }

      .cls-25 {
        fill: #fe7e91;
      }

      .cls-26 {
        fill: #4ce0a0;
      }

      .cls-27 {
        fill: #eae9eb;
      }
    </style>
  </defs>
  <path class="cls-26" d="M68.61,184.01c-4.34,4.91-10.09,8.44-16.24,10.63l-7.06,1.77h-2.25c-.59-.3-1.28-.3-1.88,0h-.75c-.71-.31-1.54-.31-2.25,0h-2.25c-16.67-1.25-31.15-15.61-32.32-32.32v-9.77c1.92-8.77,5.56-16.94,12.4-22.92l.5.65c-23.75,34.72,16.4,75.25,51.28,51.56l.84.4Z"/>
  <path class="cls-13" d="M132.88,133.28l-.06,1.48c-20.96,32.91,19.52,71.67,51.59,49.73l1.47-.11c.03.85-.52,1-1.01,1.43-3.78,3.35-7.56,6.11-12.33,7.97l-9.22,2.62h-2.25c-.59-.3-1.28-.3-1.88,0h-5.26c-3.3-1.04-6.43-1.59-9.65-2.94-24.41-10.22-30.38-41.75-11.77-60.57.53-.5.72-.29.38.38Z"/>
  <path class="cls-11" d="M68.23,66.39C47.19,89.33,7.15,77.34,3.97,46.1c-.13-.6-.25-1.22-.38-1.88v-5.26c.14-.79.26-1.54.38-2.25.56-8.25,5.34-16.94,11.27-22.55.92-.39,1.25.12.89,1.03-23.16,34.46,17.29,73.52,51.28,50.79l.82.42Z"/>
  <path class="cls-19" d="M3.59,38.96v-2.25h.38c-.05.71.28,1.84-.38,2.25Z"/>
  <path class="cls-7" d="M40.42,196.41h-2.25c.38-.62,1.9-.6,2.25,0Z"/>
  <path class="cls-20" d="M3.97,46.1h-.38v-1.88c.64.32.32,1.29.38,1.88Z"/>
  <path class="cls-7" d="M43.05,196.41h-1.88c.25-.59,1.63-.59,1.88,0Z"/>
  <path class="cls-17" d="M161.06,196.41h-1.88c.25-.59,1.63-.59,1.88,0Z"/>
  <path class="cls-1" d="M185.87,66.76c-34.67,24.81-78.23-18.01-52.62-52.61,35.01-32.67,85.2,17.84,52.62,52.61Z"/>
  <path class="cls-4" d="M185.87,184.38c-33.38,24.08-76.11-16.54-52.99-51.11.47-.84.84-1.47,1.13-1.88,26.37-23.31,67.12-.68,61.53,33.9-.92,5.66-4.95,15.69-9.66,19.09Z"/>
  <path class="cls-16" d="M68.23,66.39l-8.01,4.2C26.2,84.19-5.32,46.8,14.94,15.55c.21-.33,1.12-1.16.3-1.39,34.43-32.5,85.16,17.16,52.99,52.23Z"/>
  <path class="cls-9" d="M68.61,184.01l-7.64,4.2c-31.46,13.66-62.82-18.37-49.06-49.43l4.08-7.38c35.27-30.85,83.35,17.84,52.62,52.61Z"/>
  <path class="cls-3" d="M115.21,125.01l-.75-.35-.02-18.91c-.55-2.3-3.95-2.26-4.48,0l-.02,18.79-.75.45c-6.24.1-12.55.1-18.79,0l-.75-.35v-18.89c-.55-2.25-4-2.32-4.49,0l-.02,18.79-.75.45c-1.59-.11-1.94-.23-3.38-.75l-.69-1.67c-.26-4.57-.27-9.72-.22-14.32.07-6.5.73-12.89,6.95-16.32-.79.09-1.3-.17-1.53-.76.39-.61,1.43-.38,2.06-.38,7.89,0,17.53-.67,25.18.01,4.5.4,8.65,2.96,10.61,7.05,1.66,3.47,1.72,15.31,1.14,19.33-.71,4.94-4.61,7.47-9.3,7.8Z"/>
  <path class="cls-12" d="M185.87,66.76c-12.54,13.37-33.02,15.58-48.22,5.19-19.49-13.31-21.65-41.69-4.39-57.8.7.12-.2,1.07-.37,1.32-22.03,33.44,15.95,73.35,51.68,51.67.28-.17,1.17-1.09,1.31-.38Z"/>
  <path class="cls-18" d="M85.52,91.19c1.07-.09,2.49-.06,3.58,0,.42.02,1.03-.25.93.37-6.01,1.7-8.62,6.64-9.03,12.58-.45,6.51.37,13.55.02,20.12-2.83-1.02-4.81-2.83-5.62-5.85-.77-2.89-.75-13.64-.36-16.85.62-5.13,5.27-9.94,10.48-10.38Z"/>
  <path class="cls-22" d="M108.07,79.54c-2.83,2.6-8.22.82-10.72-1.68-2.5-2.5-4.28-7.9-1.68-10.72,8.25-3.88,16.39,4.35,12.4,12.4Z"/>
  <path class="cls-18" d="M115.21,125.01c-1.93.14-4.05-.03-6.01,0l.02-19.33c.5-3.15,5.47-3.15,5.97,0l.02,19.33Z"/>
  <path class="cls-18" d="M84.39,125.01l.02-19.33c.5-3.14,5.31-3.18,5.97,0l.02,19.33c-1.97-.03-4.08.13-6.01,0Z"/>
  <path class="cls-14" d="M95.67,67.14c-2.31,8.34,4.06,14.71,12.4,12.4-3.01,6.08-11.09,6.98-15.42,1.7-3.82-4.65-2.45-11.53,3.02-14.1Z"/>
  <path class="cls-8" d="M132.88,133.28l-.38-.38c.55-.55.86-.94,1.5-1.5l.37.19c-.48.55-1.1,1.1-1.5,1.69Z"/>
  <path class="cls-21" d="M177.22,47.6l-.85-.09c-.92-1.8-2.78-3.05-4.78-3.28l-.38-.77v-17.66c-3.25,1.22-15.97,2.9-17.83,4.91-.39.43-.85,1.48-.94,2.07-.72,4.71.02,12.7-.02,17.83l-.91-.02c-1.08-1.63-2.61-3.1-4.63-3.33l-.48-.78c.87-8.11-3.32-18.97,6.56-22.56,2.58-.94,15.85-4.49,18.05-4.49,2.39,0,5.62,1.96,6.12,4.41l.09,23.78Z"/>
  <path class="cls-24" d="M171.21,43.47c2.44,0,5.16,1.83,6.01,4.13,1.89,5.1-4.29,10.54-9.38,7.31-5.24-3.32-2.7-11.44,3.36-11.44Z"/>
  <path class="cls-24" d="M146.41,46.47c2.77.06,4.65,1.97,6.01,4.13,0,.94.34,1.65.23,2.64-.78,6.77-10.27,7.89-12.23,1.29-1.13-3.8,1.95-8.14,5.99-8.06Z"/>
  <path class="cls-10" d="M143.4,146.81l.75.25.03,13.2c.5,1.41,3.37,1.31,4.65,1.21l.58.75c1.06.85,1.08,2.16,0,3.01-.04,1.63.44,4.29-.77,5.43-1.52,1.42-10.72,2.01-11.46-1.28l-.08-20.04c.78-3.25,3.61-2.55,6.3-2.53Z"/>
  <path class="cls-10" d="M174.22,146.81c.85.02.9.44.89,1.16l-.34,8.28c.14,4.45,1.01,5.72,5.71,5.47.13,2.56.05,5.11-.25,7.64-.38,1.06-.94,1.9-2.15,2.18s-6.94.25-8.02-.09c-2.5-.78-1.8-4.19-1.86-6.22-1.12-2.06-1.26-4.96-.23-7.03-.08-1.68,0-3.35.23-5,.17-6.03-.41-6.35,6.01-6.39Z"/>
  <path class="cls-3" d="M167.83,153.19l-.34.75h-10.89c.06,1.95,2.03,3.79,3.88,4.46l.39.8c.36-.81,1.43-1.06,3.18-.75,1.78-.3,3.04-.05,3.77.75-1.23-.62-1.18-5.28,0-6.01h.38c-.11,3.91-.11,8.12,0,12.02h-18.79c.02-1-.01-2.01,0-3.01-1.11-2.83-1.07-6.55,0-9.39,5.65.23,11.52-.3,17.14-.03.48.02.93,0,1.27.4Z"/>
  <path class="cls-6" d="M180.23,169.35v-7.14c-9.52,1.86-4.97-9.83-6.01-15.41,2.79-.02,5.15-.65,6.31,2.52-.29,6.01.65,12.85.11,18.75-.07.76-.24.81-.4,1.27Z"/>
  <path class="cls-6" d="M149.41,152.82c.1,3.11.04,6.29,0,9.39-2.23-.03-4.7.55-5.94-1.77l-.08-13.64c6.12.05,5.83.1,6.01,6.01Z"/>
  <path class="cls-25" d="M37.42,31.82c1.11-1.12,3.06-1.14,4.13,0,.27-1.09,5.25-.75,6.02-.43l.37.81c3.87.61,7.81,2.67,8.27,6.95.81,7.46-2.46,20.16-11.58,20.77-1.3.09-2.45-.29-3.83-.29-3.03-.15-5.09-2.86-6.6-5.27-4.06-6.44-5.7-16.53,1.32-21.46-.71.09-1.19.06-1.48-.7.74-.68,2.32-.37,3.38-.38Z"/>
  <path class="cls-5" d="M34.03,32.19c1.09-.08,2.48-.06,3.58,0,.42.02,1.03-.25.93.37-12.21,3.33-6.76,22.88,2.26,27.06-2.57,0-3.82.67-6.6-.36-9.4-3.47-13.87-26.09-.17-27.08Z"/>
  <path class="cls-2" d="M47.94,32.19c-1.66-.26-4.59-.31-6.39-.38-2.49-.32-1.29-5.55.38-6.01.09-.15,2.35-2.2,2.65-2.42,2.51-1.77,9.87-3.38,9.5,1.23-.28,3.53-3.31,6-6.14,7.58Z"/>
  <path class="cls-15" d="M41.93,25.8c-.11.19-1.1,3.71-1.11,3.99-.01.82.37,1.35.73,2.02-1.37-.05-2.76,0-4.13,0-.53-2.9-5.65-12.05.22-12.4,2.66-.15,4.03,4.28,4.29,6.38Z"/>
  <path class="cls-23" d="M41.55,175.74c-.55.32-1.15.23-1.53-.32-.52-8.42-.42-16.83.3-25.21l.85-.41c.7-2.96,2.75-4.57,5.83-4.88,2-.2,8.55-.28,10.27.25,1.83.56,2.17,1.98,2.33,3.68.39,4.2.39,12.75,0,16.94-.14,1.48-.76,3.6-2.47,3.92-3.14.6-11.33-1.42-12.87,1.78-1,2.07.31,3.41-2.72,4.24Z"/>
  <path class="cls-11" d="M41.17,149.81c-1.21,5.12-.57,18.73-.38,24.63.02.72-.38,1.51.75,1.3-.15.04-.29.43-.89.38-3.01-.23-2.44-2.67-3.16-4.42-1.41-3.47-9.92-1.39-13.05-1.98-.93-.18-2.11-1.45-2.1-2.41.56-6.2-.69-13.51.01-19.57.23-2.03,1.31-2.6,3.2-2.81,2.15-.24,7.99-.26,10.06.09,3.07.52,3.89,2.65,5.54,4.8Z"/>
  <path class="cls-27" d="M167.83,153.19v6.01h-6.95c-2.16,0-5.72-3.6-5.08-6.01h12.03Z"/>
</svg>