<?xml version="1.0" encoding="UTF-8"?>
<svg id="Layer_17" data-name="Layer 17" xmlns="http://www.w3.org/2000/svg" viewBox="0 0 200 200">
  <defs>
    <style>
      .cls-1 {
        fill: #01cffa;
      }

      .cls-2 {
        fill: #02cffa;
      }

      .cls-3 {
        fill: #0573cd;
      }

      .cls-4 {
        fill: #c7eefd;
      }

      .cls-5 {
        fill: #def5fc;
      }

      .cls-6 {
        fill: #62dafa;
      }

      .cls-7 {
        fill: #fd646f;
      }

      .cls-8 {
        fill: #fec244;
      }

      .cls-9 {
        fill: #fed05b;
      }

      .cls-10 {
        fill: #98e5fb;
      }

      .cls-11 {
        fill: #528ed7;
      }
    </style>
  </defs>
  <path class="cls-11" d="M153.55,179.22c.08-.3.21-.74.44-.76,2.27-.19,9.92-.38,11.86,0l.55.76c0,2.16.32,4.79-.38,6.81-1.05-1.38-1.27-5.21,0-6.43-.04.29-.12.71-.34.76-1.95.37-9.37.2-11.59,0l-.55-.76c1.08-.31.9,6.14.76,6.46-.13.28-.46.42-.76.54.3.13.69.38.63.61-1.37,5.21-5.16,9.58-10.84,9.79H50.31c-4.69-1.51-9.29-5.4-9.83-10.59-.24-2.45-.32-4.99-.22-7.62,37.76-.6,75.53-.19,113.29.43Z"/>
  <path class="cls-3" d="M143.34,197c3.78-1.08,7.31-3.39,9.03-7.04.24-.51,1.18-3.04,1.18-3.36v-7h12.48c-.13,2.09.17,4.36,0,6.43-.48,5.65-4.71,9.32-9.83,10.97h-12.86Z"/>
  <path class="cls-5" d="M40.48,78.64l.76.33v5.33c37.27.01,74.55.02,111.84,0l.47.76.76.26v93.43l-.76.47c-37.68,0-75.38,0-113.07,0,.18,2.31-.24,4.92,0,7.19-.63-.39-.38-1.43-.38-2.07-.43-34.8.36-69.62-.02-104.42-.21-.5.37-1.08.41-1.28Z"/>
  <path class="cls-11" d="M55.99,50.65c20.47-1.06,41.05-.98,61.56-.82,7.48-.07,14.95-.1,22.38.82,2.05.37,2.68,1.07,1.89,2.08.29.08.72.2.76.44.15,1.07.19,7.13,0,8.08l-.76.55c.26-.1.59-.21.79-.06,1.63,1.21,7.32,7.44,8.43,9.08,3.21,4.75,3.33,7.8,3.43,13.17l-.55.68c.5.53.29.73-.38.38H40.48s0-6.43,0-6.43c.41-2.54,1.09-4.6,2.49-6.77,1.49-2.31,8.82-8.63,9.15-9.75,1.07-3.6-2.46-11.81,3.86-11.46Z"/>
  <path class="cls-10" d="M131.61,3.39c3.14.09,5.05,1.58,6.28,4.43.56,1.3,1.45,3.79.15,4.65-.51.82-1.01,1.69-1.51,2.62-.12,3.65-.11,7.32.06,11l-.82.76c-1.99,1.02-4.06,1.01-6.05,0-.47-.13-.89-.31-.84-.78l.27-8.85c.34-3.05-1.78-5.72-4.25-2.88l-.85-.16c.29,0,.68.04.76.26.22.6.1,10.57,0,11.97l-.76.45c.36-1.26,5.09-1.16,5.67,0-3.62,1.22-8.07,1.13-11.72,0l-.82-.56.13-8.64c-.23-4.13-.64-5.58-4.99-3.46.29,0,.68.04.76.26.22.6.1,10.57,0,11.97l-.76.45c.36-1.26,5.09-1.16,5.67,0-3.63,1.21-8.07,1.13-11.72,0l-.8-.35c.14-3.69.12-7.37-.06-11.04-.8-3.8-3.36-2.18-5.19-.15.3.03.74.13.76.34.09,1.18.19,10.14,0,10.64-.11.29-.46.43-.76.55.62-1.24,5.32-1.18,6.05,0-5.68,1.26-12.09,1.26-17.77,0,.37-1.25,5.08-1.16,5.67,0-.29,0-.74-.07-.76-.26-.13-1.77-.33-10.79,0-11.97l.76-.45c-.27.07-.51.02-.76-.07-3.88-1.53-4.05-.6-4.28,3.63l.21,8.59-.84.52c-3.65,1.13-8.1,1.22-11.72,0,.36-1.26,5.09-1.16,5.67,0-.29,0-.74-.07-.76-.26-.09-1.39-.21-11.18,0-11.73.14-.34.25-.58.76-.68l-.74.27c-3.04-3.46-4.32.23-4.27,3.3l.16,8.68-.82.42c-2.04.91-4.01.91-6.05,0-.47-.13-.89-.31-.84-.78l.27-8.85c.34-3.05-1.78-5.72-4.25-2.88l-.85-.16c.29,0,.68.04.76.26.22.6.1,10.57,0,11.97l-.76.45c.36-1.26,5.09-1.16,5.67,0-.33.2-.67.38-1.03.51-1.46.54-11.12.48-12.66-.04-.37-.12-.71-.29-1.06-.48.91-6.63-3.25-21.37,6.03-23.28,23.19-.16,46.41-.37,69.6-.17Z"/>
  <path class="cls-4" d="M166.4,84.69c.91,31.16.04,63.28,0,94.54h-12.86v-94.16l.38-.38c.03-.3.13-.73.34-.76,2.42-.26,9.27-.33,11.59,0l.55.76Z"/>
  <path class="cls-5" d="M55.99,26.83c4.9-.14,9.95.06,14.75,0,2.01-.03,4.04-.03,6.05,0,3.84.05,7.8-.04,11.72,0,5.84.06,11.93.06,17.77,0,3.91-.04,7.9.04,11.72,0,3.92-.04,7.89.05,11.72,0,2.01-.03,4.04-.02,6.05,0,1.94-.03,3.83.1,5.67.38,1.67-.28,3.31-.28,4.92,0,.29.03.74.13.76.34.13,1.49.28,9.43,0,10.46l-.76.54c-29.96.67-60.08.79-90.38.38-7.02-.17-8.75.11-7.96-8.15.46-4.81,4.33-3.85,7.96-3.95Z"/>
  <path class="cls-6" d="M150.52,38.93c.2,3.4-.26,7.07-.03,10.43.05.76.06.93.78,1.29l-1.11.68-8.56.07-1.67-.75c-27.97-.19-55.97.14-83.95,0v-11.72c30.45.43,60.9.28,91.32-.43l3.21.43Z"/>
  <path class="cls-3" d="M151.28,50.65c5.66.5,1.69,8.33,3.22,11.72.63,1.39,6.45,6.13,7.94,7.94,3.88,4.74,3.8,8.55,3.97,14.37h-12.48c-.83-1.88-.18-4.18-.42-6.2-.44-3.77-2.65-6.91-5.06-9.69-.96-1.1-6.62-6.21-6.62-6.99v-9.08c0-.54-1.43-1.68-1.89-2.08,3.61.02,7.84-.31,11.34,0Z"/>
  <path class="cls-6" d="M150.52,26.83c-.86,1.1-3.43.98-4.36.15l-4.72.23c-1.88-.03-4.14-.37-5.67-.38.36-1.26,5.09-1.16,5.67,0-.29,0-.74-.07-.76-.26-.11-1.52-.27-11.18,0-11.97l.76-.45c-1.04-.13-2.97-.78-3.4-1.7-.07-4.46-2.04-7.79-6.43-9.08,6.42.06,17.88-2.11,18.91,6.99.58,5.12-.43,11.23,0,16.45Z"/>
  <path class="cls-4" d="M150.52,26.83c7.36.18,8.73.08,7.96,8.53-.41,4.52-4.58,3.49-7.96,3.57-30.88.73-63.66.73-94.54,0l90.38-.38v-11.34c-1.63-.02-3.28.02-4.92,0,2.78-.64,6.18-.45,9.08-.38Z"/>
  <path class="cls-8" d="M119.89,144.81l2.03-1.05c13.06-1.89,20.99-13.11,22.08-25.42l.85-.38c13.82,21.83-8.67,48.43-32.62,39.24-2.35-.9-9-3.81-7.04-6.87.7-1.1,6.18-1.44,8.1-2.1,2.17-.75,4.87-2.91,6.6-3.42Z"/>
  <path class="cls-9" d="M144.85,117.96l-1.98,9.56c-3.34,8.22-9.73,14.1-18.28,16.51-1.51.43-3.47.43-4.7.78,9.96-8.07,12.15-22.03,4.32-32.49-1.22-1.63-4.94-4.14-3.22-6.31,1.48-1.87,9.39.54,11.51,1.41,5.05,2.08,9.44,5.94,12.34,10.53Z"/>
  <path class="cls-7" d="M97.2,119.1h10.02c1.97,0,3.41,5.06-.78,5.65-2.76.39-11.94.39-14.7,0-1.73-.24-2.76-1.36-2.79-3.1,3.42-6.38,7.88-12.24,11.66-18.43h-8.13c-3.09,0-4.21-4.63-1.12-5.66h15.48c2.44,1.19,2.4,2.47,1.26,4.64-2.99,5.68-7.95,11.09-10.89,16.9Z"/>
  <path class="cls-7" d="M75.27,134.6h5.48c.14,0,1.28,1.29,1.42,1.61.73,1.71-.21,3.42-1.98,3.88-1.67.43-8.15.4-10.04.19-1.64-.18-3.1-1.1-3.2-2.88-.1-1.89,5.95-9.56,7.18-11.69-1.48-.5-3.14.07-4.64-.27-2.56-.57-2.94-4.29-.55-5.31,1.09-.46,9.19-.5,10.66-.26,7.21,1.14-3.81,11.68-4.33,14.73Z"/>
  <path class="cls-6" d="M71.87,150.86c.29,0,.75.07.76.25.22,4.08.32,9.95,0,13.95.23,1.14-.02,1.82-.76,2.05-3.43-.05-7.1.56-10.22-.93-4.34-2.07-5.7-7.23-3.4-11.37,2.8-5.04,8.76-3.88,13.63-3.96Z"/>
  <path class="cls-6" d="M77.54,167.12c-.29,0-.74-.07-.76-.25-.33-3.97-.42-11.67,0-15.56l.76-.44c4.86.08,10.82-1.08,13.63,3.96,1.49,2.68,1.49,5.05.19,7.78-2.68,5.61-8.63,4.44-13.82,4.52Z"/>
  <path class="cls-1" d="M77.54,150.86v16.26c-1.88.03-3.79.03-5.67,0v-16.26c1.88-.03,3.79-.03,5.67,0Z"/>
  <path class="cls-2" d="M106.28,26.83h-6.05v-11.53c0-2.43,3.69-4.07,5.25-1.84,1.77,2.54.32,10.14.8,13.38Z"/>
  <path class="cls-1" d="M88.51,26.83c.69-3.07-1.87-14.01,2.45-14.4,1.06-.1,3.22.54,3.22,1.73v12.67h-5.67Z"/>
  <path class="cls-1" d="M118,26.83h-5.67v-12.67c0-1.45,2.88-2.08,4.15-1.5,2.73,1.23,1.05,11.39,1.52,14.17Z"/>
  <path class="cls-1" d="M70.73,26.83h-5.67v-12.67c0-.11,1.34-1.42,1.52-1.5,1.59-.69,3.47-.02,3.98,1.67.94,3.09-.35,9.07.17,12.5Z"/>
  <path class="cls-1" d="M76.78,26.83c.61-3.03-2.25-16.92,4.15-14.17.18.08,1.52,1.4,1.52,1.5v12.67h-5.67Z"/>
  <path class="cls-1" d="M129.72,26.83h-5.67v-12.67c0-.11,1.34-1.42,1.52-1.5,1.59-.69,3.47-.02,3.98,1.67.94,3.09-.35,9.07.17,12.5Z"/>
  <path class="cls-1" d="M138.04,12.46c1.09-.16,3.4.83,3.4,1.7v12.67h-5.67c.39-3.66-.54-8.37.02-11.89.18-1.14,1.06-2.31,2.25-2.48Z"/>
</svg>