<?xml version="1.0" encoding="UTF-8"?>
<svg xmlns="http://www.w3.org/2000/svg" xmlns:xlink="http://www.w3.org/1999/xlink" viewBox="0 0 800 600">
  <defs>
    <style>
      .cls-1 {
        stroke: #070c24;
        stroke-width: 1.14px;
      }

      .cls-1, .cls-2, .cls-3, .cls-4, .cls-5, .cls-6, .cls-7 {
        fill: none;
      }

      .cls-1, .cls-2, .cls-4, .cls-7 {
        stroke-linecap: round;
        stroke-linejoin: round;
      }

      .cls-8 {
        fill: #00666c;
      }

      .cls-9 {
        fill: #fff;
      }

      .cls-10 {
        fill: #f6c7af;
      }

      .cls-11 {
        fill: #2d7a80;
      }

      .cls-2 {
        stroke-width: 2.05px;
      }

      .cls-2, .cls-4 {
        stroke: #bfbfbf;
      }

      .cls-12 {
        fill: #030512;
      }

      .cls-13 {
        isolation: isolate;
      }

      .cls-4 {
        stroke-width: 1.06px;
      }

      .cls-14 {
        fill: #ffc195;
      }

      .cls-15 {
        fill: #eca23c;
      }

      .cls-16 {
        fill: #fbe3d4;
      }

      .cls-17 {
        fill: #d68926;
      }

      .cls-18 {
        mix-blend-mode: multiply;
      }

      .cls-19 {
        fill: #f63d6a;
      }

      .cls-20 {
        fill: #ee9eaf;
      }

      .cls-21 {
        fill: #343c77;
      }

      .cls-22 {
        opacity: .1;
      }

      .cls-23 {
        opacity: .04;
      }

      .cls-24 {
        fill: #070c24;
      }

      .cls-25 {
        fill: #161b43;
      }

      .cls-5 {
        stroke-width: 2.2px;
      }

      .cls-5, .cls-6 {
        stroke: #fff;
        stroke-miterlimit: 10;
      }

      .cls-26 {
        fill: #ff904c;
      }

      .cls-6 {
        stroke-width: 2.03px;
      }

      .cls-27 {
        clip-path: url(#clippath);
      }

      .cls-7 {
        stroke: #ff904c;
        stroke-width: .76px;
      }
    </style>
    <clipPath id="clippath">
      <path class="cls-3" d="M282.2,63.92c-15.72,17.15-22.8,42.05-33.59,61.82-11.51,21.09-32.66,34.59-55.93,43.34-35.22,13.24-63.39,27.77-85.46,52.54-6.89,7.73-13.18,16.45-18.91,26.45-27.46,47.91-26.42,107.84-10.98,159.07,12.63,41.9,37.33,85.17,77.91,109.41,22.12,13.21,45.28,24.98,69.42,34.75,82.29,33.3,165.28,50.02,255.74,36.57,64.76-9.63,131.89-28.63,183.25-71.03,21.28-17.57,40.43-39.01,52.86-63.81,10.03-20.02,13.1-48.58,15.67-70.83,4.31-37.21-1.64-75.59-17.01-109.76-14.16-31.48-37.41-55.36-47.59-89.08-11.33-37.52-28.32-73.31-50.24-105.8-70.6-104.65-253.43-102.79-335.15-13.62Z"/>
    </clipPath>
  </defs>
  <g class="cls-13">
    <g id="Layer_17" data-name="Layer 17">
      <g>
        <path class="cls-21" d="M88.73,248.77c-28.64,46.32-28.03,103.19-11.4,158.36,12.63,41.9,37.33,85.17,77.91,109.41,22.12,13.21,45.28,24.98,69.42,34.75,82.29,33.3,165.28,50.02,255.74,36.57,64.76-9.63,131.89-28.63,183.25-71.03,21.28-17.57,40.43-39.01,52.86-63.81,10.03-20.02,13.1-48.58,15.67-70.83,4.31-37.21-1.64-75.59-17.01-109.76-14.16-31.48-37.41-55.36-47.59-89.08-14.38-47.63-35.17-95.36-74.97-126.16-32.61-25.24-73.6-35.48-113.86-40.22-40.04-4.72-85.96-11.69-125.25-1.93-31.15,7.74-59.99,23.36-85.43,42.92-18.34,14.11-35.22,30.51-47.48,50.14-13.2,21.13-21.62,42.76-40.63,59.79-18.57,16.64-40.91,28.39-59.86,44.58-12.97,11.08-23.33,23.28-31.39,36.3Z"/>
        <g>
          <path class="cls-21" d="M154.93,167.79c4.39-2.67,9.05-5.16,14-7.81,13.31-7.12,27.07-14.48,35.4-25.42l2.02-2.65c7.92-10.38,16.11-21.11,22.82-32.1,1.62-2.65,3.17-5.36,4.71-8.12.8.29,1.63.52,2.47.67-1.65,2.98-3.33,5.92-5.06,8.75-6.78,11.1-15.01,21.89-22.96,32.32l-2.02,2.64c-8.66,11.36-22.66,18.86-36.21,26.1-4.91,2.63-9.55,5.11-13.88,7.74-45.62,27.72-75.87,69.91-80.93,112.85-.07.6-.56,1.05-1.14,1.1-.08,0-.16,0-.24,0-.68-.08-1.17-.7-1.09-1.38,5.15-43.7,35.84-86.58,82.1-114.69Z"/>
          <path class="cls-21" d="M341.76,585.81c.67,0,1.21-.52,1.24-1.19.03-.69-.51-1.26-1.19-1.29-39.82-1.58-73.06-3.84-108.06-17.17l-.76-.29c-38.3-14.58-81.71-31.1-105.82-62.36-17.67-22.91-30.68-49.48-37.65-76.85-.17-.67-.84-1.06-1.51-.9-.67.17-1.07.85-.9,1.51,7.05,27.69,20.22,54.58,38.09,77.75,24.54,31.82,68.3,48.47,106.91,63.17l.76.29c35.35,13.46,68.8,15.74,108.85,17.33h.05Z"/>
          <path class="cls-21" d="M481.63,590.23c7.59-.15,15.44-1.11,23.05-2.05,5.55-.68,11.29-1.39,16.8-1.76,27.7-1.85,63.73-5.95,96.76-21.38,48.86-22.82,85.79-69.55,96.37-121.94,4.92-24.35,4.41-49.44,3.91-73.7-.12-6.05-.25-12.31-.29-18.44-.04-6.84.2-13.64.44-20.22.8-22.2,1.56-43.17-8.14-64.87-3.85-8.62-8.54-16.94-13.07-24.99-1.42-2.53-2.85-5.05-4.25-7.59-3.29-5.97-5.07-11.79-6.95-17.95-.76-2.49-1.55-5.07-2.45-7.72-2.82-8.24-5.37-16.75-7.83-24.98-4.29-14.33-8.73-29.15-14.78-43.19-18.18-42.15-52.37-78.1-93.81-98.62l-1.57,3.09c40.71,20.16,74.3,55.47,92.16,96.89,5.98,13.86,10.38,28.58,14.65,42.81,2.47,8.26,5.03,16.8,7.87,25.11.89,2.6,1.66,5.14,2.42,7.61,1.93,6.34,3.76,12.32,7.22,18.61,1.41,2.55,2.83,5.08,4.26,7.62,4.5,7.98,9.15,16.24,12.93,24.71,9.37,20.97,8.63,41.56,7.84,63.35-.24,6.61-.49,13.46-.44,20.37.04,6.15.17,12.42.29,18.48.49,24.08,1,48.97-3.85,72.95-10.37,51.34-46.55,97.13-94.44,119.5-32.5,15.18-68.11,19.23-95.5,21.06-5.61.37-11.4,1.09-16.99,1.77-8.6,1.06-17.49,2.14-25.84,2.03-15.98-.22-33.72-2.64-52.72-7.18l-.82,3.36c19.25,4.6,37.25,7.05,53.49,7.28,1.08.02,2.18.01,3.27,0Z"/>
        </g>
        <g class="cls-27">
          <g>
            <g class="cls-23">
              <path class="cls-9" d="M228.95,546.49h0c31.37,25.42,77.41,20.6,102.83-10.77l274.11-312c25.42-31.37,20.6-77.41-10.77-102.83h0c-31.37-25.42-77.41-20.6-102.83,10.77L218.18,443.66c-25.42,31.37-20.6,77.41,10.77,102.83Z"/>
              <path class="cls-9" d="M63.07,454.66h0c31.37,25.42,77.41,20.6,102.83-10.77L440.01,131.89c25.42-31.37,20.6-77.41-10.77-102.83h0c-31.37-25.42-77.41-20.6-102.83,10.77L52.31,351.83c-25.42,31.37-20.6,77.41,10.77,102.83Z"/>
            </g>
            <g class="cls-22">
              <g>
                <rect class="cls-5" x="232.4" y="-14.85" width="323.83" height="279.96" transform="translate(788.63 250.27) rotate(180)"/>
                <g>
                  <rect class="cls-6" x="400.94" y="-2.22" width="144.65" height="254.71"/>
                  <rect class="cls-6" x="243.04" y="-2.22" width="144.65" height="254.71"/>
                </g>
              </g>
              <g>
                <path class="cls-9" d="M371.02,34.61c0,1.12.91,2.03,2.03,2.03s2.03-.91,2.03-2.03-.91-2.03-2.03-2.03-2.03.91-2.03,2.03Z"/>
                <path class="cls-9" d="M483.66,25.23c0,1.12.91,2.03,2.03,2.03s2.03-.91,2.03-2.03-.91-2.03-2.03-2.03-2.03.91-2.03,2.03Z"/>
                <path class="cls-9" d="M256.83,86.08c0,1.12.91,2.03,2.03,2.03s2.03-.91,2.03-2.03-.91-2.03-2.03-2.03-2.03.91-2.03,2.03Z"/>
                <path class="cls-9" d="M419.68,54.32c0,1.12.91,2.03,2.03,2.03s2.03-.91,2.03-2.03-.91-2.03-2.03-2.03-2.03.91-2.03,2.03Z"/>
                <path class="cls-9" d="M315.65,63.63c0,.56.46,1.02,1.02,1.02s1.02-.46,1.02-1.02-.46-1.02-1.02-1.02-1.02.46-1.02,1.02Z"/>
                <path class="cls-9" d="M424.06,132.7c0,.56.46,1.02,1.02,1.02s1.02-.46,1.02-1.02-.46-1.02-1.02-1.02-1.02.46-1.02,1.02Z"/>
                <path class="cls-9" d="M521.67,16.78c0,.56.46,1.02,1.02,1.02s1.02-.46,1.02-1.02-.46-1.02-1.02-1.02-1.02.46-1.02,1.02Z"/>
                <path class="cls-9" d="M303.83,8.1c0,.56.46,1.02,1.02,1.02s1.02-.46,1.02-1.02-.46-1.02-1.02-1.02-1.02.46-1.02,1.02Z"/>
                <circle class="cls-9" cx="531.14" cy="95.16" r="1.02"/>
                <path class="cls-9" d="M466.92,72.16c0,.56.46,1.02,1.02,1.02s1.02-.46,1.02-1.02-.46-1.02-1.02-1.02-1.02.46-1.02,1.02Z"/>
                <path class="cls-9" d="M296.01,142.95c0,.56.46,1.02,1.02,1.02s1.02-.46,1.02-1.02-.46-1.02-1.02-1.02-1.02.46-1.02,1.02Z"/>
                <path class="cls-9" d="M330.43,105.75c0,1.02.82,1.84,1.84,1.84s1.84-.82,1.84-1.84-.82-1.84-1.84-1.84-1.84.82-1.84,1.84Z"/>
                <path class="cls-9" d="M452.72,158.94c0,1.02.82,1.84,1.84,1.84s1.84-.82,1.84-1.84-.82-1.84-1.84-1.84-1.84.82-1.84,1.84Z"/>
                <circle class="cls-9" cx="261.4" cy="181.04" r="1.84"/>
                <path class="cls-9" d="M346.26,23.24c-.08.19-.16.38-.24.57-.52-1.71-1.07-3.46-2.19-4.86-.51-.64-1.14-1.25-1.85-1.65-.18-.1-1.46-.62-1.46-.83,0-.09.09-.14.17-.18,1.53-.69,2.86-1.79,3.83-3.15.44-.62.77-1.29,1.12-1.97.21-.42.79-1.26.58-1.76.41.97.87,1.92,1.36,2.85.3.57.61,1.13,1.01,1.64.95,1.22,2.31,2.05,3.75,2.61-1.06,1.14-2.52,1.87-3.64,2.97-1.02,1-1.83,2.41-2.42,3.75Z"/>
                <path class="cls-9" d="M439.41,109.95c-.08.19-.16.38-.24.57-.52-1.71-1.07-3.46-2.19-4.86-.51-.64-1.14-1.25-1.85-1.65-.18-.1-1.46-.62-1.46-.83,0-.09.09-.14.17-.18,1.53-.69,2.86-1.79,3.83-3.15.44-.62.77-1.29,1.12-1.97.21-.42.79-1.26.58-1.76.41.97.87,1.92,1.36,2.85.3.57.61,1.13,1.01,1.64.95,1.22,2.31,2.05,3.75,2.61-1.06,1.14-2.52,1.87-3.64,2.97-1.02,1-1.83,2.41-2.42,3.75Z"/>
                <path class="cls-9" d="M511.03,191.71c-.08.19-.16.38-.24.57-.52-1.71-1.07-3.46-2.19-4.86-.51-.63-1.14-1.25-1.85-1.65-.18-.1-1.46-.62-1.46-.83,0-.09.09-.14.17-.18,1.53-.69,2.86-1.79,3.83-3.15.44-.62.77-1.29,1.12-1.97.21-.42.79-1.26.58-1.76.41.97.87,1.92,1.36,2.85.3.57.61,1.13,1.01,1.64.95,1.22,2.31,2.05,3.75,2.61-1.06,1.14-2.52,1.87-3.64,2.97-1.02,1-1.83,2.41-2.42,3.75Z"/>
                <path class="cls-9" d="M499.26,134.94c-.08.19-.16.38-.24.57-.52-1.71-1.07-3.46-2.19-4.86-.51-.63-1.14-1.25-1.85-1.65-.18-.1-1.46-.62-1.47-.83,0-.09.09-.14.17-.18,1.53-.69,2.86-1.79,3.83-3.15.44-.62.77-1.29,1.12-1.97.21-.42.79-1.26.58-1.76.41.97.87,1.92,1.36,2.85.3.57.61,1.13,1.01,1.64.95,1.22,2.31,2.05,3.75,2.61-1.06,1.14-2.52,1.87-3.64,2.97-1.02,1-1.83,2.41-2.42,3.75Z"/>
                <path class="cls-9" d="M273.66,39.12c-.04.1-.08.19-.12.29-.27-.87-.54-1.75-1.11-2.46-.26-.32-.58-.63-.94-.84-.09-.05-.74-.32-.74-.42,0-.05.05-.07.09-.09.77-.35,1.45-.91,1.94-1.6.22-.31.39-.66.57-1,.11-.21.4-.64.29-.89.21.49.44.97.69,1.44.15.29.31.57.51.83.48.62,1.17,1.04,1.9,1.32-.54.58-1.27.95-1.85,1.51-.52.51-.93,1.22-1.23,1.9Z"/>
                <path class="cls-9" d="M362.22,86.72c-.07.15-.13.3-.19.45-.42-1.36-.85-2.75-1.74-3.85-.4-.5-.91-.99-1.47-1.31-.14-.08-1.16-.49-1.16-.66,0-.07.07-.12.14-.14,1.21-.55,2.27-1.42,3.04-2.5.35-.49.62-1.03.89-1.56.17-.33.63-1,.46-1.39.33.77.69,1.52,1.08,2.26.24.45.49.9.8,1.3.75.97,1.84,1.62,2.97,2.07-.84.91-2,1.48-2.89,2.36-.81.79-1.45,1.91-1.92,2.98Z"/>
                <path class="cls-9" d="M511.85,70.46c-.07.15-.13.3-.19.45-.42-1.36-.85-2.75-1.74-3.85-.4-.5-.91-.99-1.47-1.31-.14-.08-1.16-.49-1.16-.66,0-.07.07-.11.14-.14,1.21-.55,2.27-1.42,3.04-2.5.35-.49.61-1.03.89-1.56.17-.33.63-1,.46-1.39.33.77.69,1.52,1.08,2.26.24.45.49.9.8,1.3.75.97,1.84,1.62,2.97,2.07-.84.91-2,1.48-2.89,2.36-.81.79-1.45,1.91-1.92,2.98Z"/>
                <path class="cls-9" d="M262.97,130.66c-.05.11-.09.22-.14.32-.3-.97-.6-1.96-1.24-2.74-.29-.36-.65-.71-1.04-.93-.1-.06-.82-.35-.83-.47,0-.05.05-.08.1-.1.86-.39,1.61-1.01,2.16-1.78.25-.35.44-.73.63-1.11.12-.24.45-.71.33-.99.23.55.49,1.08.77,1.61.17.32.35.64.57.93.53.69,1.31,1.16,2.12,1.47-.6.65-1.42,1.06-2.06,1.68-.58.56-1.04,1.36-1.37,2.12Z"/>
                <path class="cls-9" d="M299.01,98.61c-.07.15-.13.3-.19.45-.42-1.36-.85-2.75-1.74-3.85-.4-.5-.91-.99-1.47-1.31-.14-.08-1.16-.49-1.16-.66,0-.07.07-.12.14-.14,1.21-.55,2.27-1.42,3.04-2.5.35-.49.62-1.03.89-1.56.17-.33.63-1,.46-1.39.33.77.69,1.52,1.08,2.26.24.45.49.9.8,1.3.75.97,1.84,1.62,2.97,2.07-.84.91-2,1.48-2.89,2.36-.81.79-1.45,1.91-1.92,2.98Z"/>
                <path class="cls-9" d="M447.79,28.21c-.07.15-.13.3-.19.45-.42-1.36-.85-2.75-1.74-3.85-.4-.5-.91-.99-1.47-1.31-.14-.08-1.16-.49-1.16-.66,0-.07.07-.12.14-.14,1.21-.55,2.27-1.42,3.04-2.5.35-.49.61-1.03.89-1.56.17-.33.63-1,.46-1.39.33.77.69,1.52,1.08,2.26.24.45.49.9.8,1.3.75.97,1.84,1.62,2.97,2.07-.84.91-2,1.48-2.89,2.36-.81.79-1.45,1.91-1.92,2.98Z"/>
              </g>
            </g>
            <g>
              <g>
                <path class="cls-25" d="M475.51,496.65c-1.04-3.02-1.33-6.71-1.91-9.14-1.45-6.02-2.51-12.14-3.19-18.29-.9-8.22-2.03-16.16,2.07-23.63,2.85-5.18,9.5-9.61,15.39-6.51,6.51,3.43,6.51,13.14,6.28,19.44-.4,10.76-1.5,21.54-3.75,32.07-.65,3.03-1.45,6.16-3.49,8.49-2.04,2.33-5.66,3.56-8.31,1.97-1.49-.89-2.43-2.52-3.08-4.4Z"/>
                <path class="cls-25" d="M421.74,461.9c-1.04-3.02-1.33-6.71-1.91-9.14-1.45-6.02-2.51-12.14-3.19-18.29-.9-8.22-2.03-16.16,2.07-23.63,2.85-5.18,9.5-9.61,15.39-6.51,6.51,3.43,6.51,13.14,6.28,19.43-.4,10.76-1.5,21.54-3.75,32.07-.65,3.03-1.45,6.16-3.49,8.49-2.04,2.33-5.66,3.56-8.31,1.97-1.49-.89-2.43-2.52-3.08-4.4Z"/>
              </g>
              <rect class="cls-11" x="-65.33" y="319.69" width="567.49" height="129.82" transform="translate(436.82 769.21) rotate(180)"/>
              <g>
                <path class="cls-11" d="M350.52,233.94c-.17.41-.3.84-.41,1.29-2.44,10.63,8.4,23.05,16.28,28.5,10.72,7.42,23.8,10.39,36.53,13.21,9.64,2.14,19.34,4.29,29.2,4.85,8.29.48,17-.08,24.45,3.59,4.68,2.31,8.43,6.11,11.9,10,1.93,2.17,4.37,4.61,7.23,4.14,3.65-.6,4.83-5.53,3.66-9.03-1.83-5.45-5.69-7.03-2.04-11.35,3-3.56,8.69-6.02,12.17-9.41,6.93-6.74,12.45-14.89,16.44-23.67,6.25-13.77,8.81-29.02,8.86-44.14.02-5.49,1.1-8.43,4.33-12.65,2.44-3.2,6.17-6.79,5.41-11.21-.73-4.28-5.61-6.64-9.95-6.71-5.59-.09-8.79,2.63-13.72,3.71-5.02,1.11-11.53-1.77-16.64-3.02-16.26-3.99-32.69-8.01-49.43-8.19-16.74-.18-34.07,3.82-47.1,14.34-9.62,7.77-16.3,18.53-22.41,29.28-3.22,5.67-4.98,12.13-8.38,17.69-1.85,3.03-5.05,5.48-6.38,8.81Z"/>
                <path class="cls-8" d="M469.14,260.71c-.04,1.87.12,3.58.57,5.02,2.14,6.87,10.06,4.42,14.86,1.45,6.98-4.32,11-12.37,14.03-19.71,5.3-12.85,9.42-26.19,12.31-39.79,1.52-7.16-1.48-14.56,2.71-20.89.85-1.29,1.9-2.99.96-4.22-.43-.57-1.17-.8-1.87-.94-14.68-2.88-26.25,22.55-31.04,33.14-3.58,7.92-6.29,16.21-8.26,24.67-1.23,5.3-4.12,14.36-4.26,21.27Z"/>
              </g>
              <g>
                <path class="cls-15" d="M363.03,208.64c-5.85,1.11-11.61,2.84-17.21,4.83-14.16,5.03-28.31,12.21-37.03,24.45-1.86,2.61-3.48,5.51-3.89,8.69-.51,3.96.92,7.93,2.91,11.38,5.92,10.28,16.42,16.86,25.82,24.08,12.27,9.42,28.63,22.84,35.3,37.19,2.67,5.74,1.36,11.53,5.86,16.58,4.34,4.87,12.53,8.25,17.45,2.27.69-.84,1.31-1.86,2.34-2.2,1.1-.37,2.27.16,3.33.65,13.73,6.34,29.53,7.54,44.39,4.72,14.86-2.82,28.8-9.51,41.19-18.18,4.5-3.15,7.52-3.95,12.83-3.75,4.02.16,9.1,1.13,12.28-2.04,3.08-3.07,2.2-8.41-.24-12-3.78-5.56-7.57-8.33-13.83-10-5-14.23-15.65-25.7-26.76-35.91-15.57-14.31-32.6-27.04-50.73-37.92-10.65-6.39-21.99-12.25-34.32-13.75-6.57-.8-13.17-.33-19.68.9Z"/>
                <path class="cls-17" d="M408.6,317.2c-1.55,1.04-2.86,2.16-3.78,3.35-4.39,5.71,2.18,10.77,7.37,12.99,7.55,3.22,16.44,1.87,24.19.11,13.56-3.07,26.84-7.38,39.62-12.85,6.73-2.88,11.05-9.59,18.64-9.81,1.55-.05,3.54-.17,4-1.64.21-.68-.02-1.42-.31-2.07-6.1-13.66-33.55-8.47-44.97-6.29-8.54,1.63-16.88,4.19-24.92,7.46-5.04,2.05-14.11,4.9-19.84,8.76Z"/>
              </g>
              <path class="cls-1" d="M440.49,153.2c-4.79,4.31-4.51,12.04-2.12,18.03,2,5,4.37,9.62,6.78,14.47,1.61,3.24,3.15,6.63,3.31,10.24.43,10.02-9.66,17.67-11.02,27.61-.86,6.31,1.91,12.46,4.25,18.39,2.33,5.92,4.27,12.65,1.81,18.52"/>
              <path class="cls-24" d="M317.65,168c-.39.48-.8.95-1.23,1.4-5.94,6.32-16.7,8.66-23.62,14.07-3.89,3.04-7.22,6.75-10.12,10.75-1.64,2.26-3.25,4.72-5.75,5.98-2.15,1.08-4.65,1.11-7.05,1.27-3.9.27-7.76.95-11.52,2.03-2.87.82-5.83,2-7.59,4.41-2.58,3.53-1.64,8.75,1.11,12.16,2.75,3.41,6.88,5.36,10.97,6.93,4.73,1.82,9.61,3.26,14.55,4.4,4.53,1.04,10.49.86,14.63,2.84,4.01,1.91,7.51,5.07,11.74,6.89,4.64,1.99,9.53,3.4,14.52,4.16,7.54,1.14,11.27,2.8,17.32,7.77,10.31,8.46,20.11,15.51,31.13,22.87,11.45,7.65,20.08,19.63,23.19,33.09.36,1.57.77,3.33,2.13,4.2.77.49,1.71.6,2.62.7,9.41,1.01,19.26,2.23,28.66.5,6.27-1.15,14.99-.88,20.06-5.01,3.93-3.21,6.06-8.51,5.42-13.54-1.06-8.36-8.95-15.12-8.41-23.53.22-3.45,1.87-6.62,2.92-9.91,2.5-7.8,1.53-16.64-2.6-23.71-2.02-3.46-4.78-6.6-5.7-10.49-2.07-8.77,5.8-16.68,7.39-25.55,1.29-7.22-1.67-14.42-4.07-21.35-3.49-10.05-2.09-19.1-.86-29.36.36-3.01.78-6.1.08-9.05-.15-.64-.42-1.34-1.02-1.59-.61-.26-1.31.05-1.88.38-4.59,2.67-10.18,11.3-16.02,10.32-2.55-.43-5.1-2.9-7.56-3.83-3.49-1.32-7.21-2.04-10.81-2.99-11-2.9-21.47-7.77-30.8-14.27-2.36-1.65-4.46-3.79-6-6.22-.63-.99-1.9-6.38-3.48-5.65-.33.15-.54.48-.73.78-3.84,6.22-7.17,12.76-11.25,18.82-6.45,9.58-15.19,14.61-23.87,21.78-2.73,2.26-4.4,5.01-6.49,7.55Z"/>
              <path class="cls-16" d="M328.84,179.87c-5.03,3.91-1.37,12.67-1.77,18.18-.97,13.42-1.92,26.85-2.99,40.26-1.92,23.91-4.53,48.8-17.33,69.08-1.23,1.95-2.59,4.39-1.47,6.41.69,1.24,2.11,1.86,3.43,2.36,12.51,4.78,25.7,7.75,39.04,8.87,6.21.52,12.53.07,18.69.98,3.63.53,7.47,2.22,11.17,1.92,10.74-.87,16.56-12.33,20.18-21.1,2.26-5.5,4.67-11.49,5.58-17.36.98-6.35,4.5-11.18,6.56-17.27,2.84-8.39,1.13-17.56-.61-26.24-1.85-9.27-3.71-18.53-5.56-27.8-1.49-7.46-1.39-19.44-7.35-24.52-5.17-4.41-9.29-10.52-14.93-14.29-8.3-5.55-19.57-.55-28.77-.96-7.11-.32-17.3-3.25-23.67,1.33-.07.05-.14.1-.2.15Z"/>
              <path class="cls-26" d="M385.12,187.49c-2.72-2.06-5.59-3.9-8.33-5.94-2.8-2.08-3.75-5.1-6.21-7.4.07.07-7.53,3.18-8.33,3.37-3.1.72-6.05.53-9.17.64,1.21,3.58,2.6,7.06,4.14,10.54,2.72,6.16,5.44,12.32,8.46,18.33,3.15,6.26,6.83,12.59,12.62,16.54,2.93,2,6.55,3.33,10.02,2.59,4.47-.96,7.65-5.22,8.62-9.68.96-4.47.11-9.11-.99-13.55-.81-3.29-1.6-5.74-3.61-8.45-2-2.7-4.55-4.97-7.22-6.99Z"/>
              <path class="cls-25" d="M302.87,190.94c-6.44,2.37-9.44,6.08-14.44,10.3-6.63,5.59-15.4,8.96-23.34,12.19-8.27,3.36-16.71,6.59-25.58,7.62-10.86,1.26-21.79-.84-32.68-1.85-28.53-2.66-55.14,3.02-81.57,13.29-11.84,4.6-25.37,6.3-37.71,10.37-13.69,4.5-27.22,9.65-41.35,12.65-19.17,4.07-34.31,3.86-52.96,12.62-11.07,5.2-22.31,10.52-31.41,18.69-8.48,7.62-16.53,19.68-15.19,31.51,20.36-10.18,49.31.73,70.16,5.64,23.62,5.56,45.15,6.61,69.16,6.76,21.35.14,43.55,4.06,65.17,5.15,36.34,1.83,72.72,2.7,109.1,2.61,10.41-.03,155.89-7.84,155.55,1.06.27-7.25-5.44-13.53-11.95-16.75-6.5-3.21-13.85-4.17-20.83-6.15-17.67-5.03-32.74-17.52-42.06-33.22-4.76-8.02-8.06-16.94-9.44-26.17-1.42-9.51-.66-19.33-4.8-28.31-2.94-6.36-6.28-10.74-5.85-17.69.49-7.98,2.64-16.47,3.73-24.47.44-3.25-14.5,1.51-21.72,4.17Z"/>
              <g>
                <path class="cls-14" d="M376.13,271.77c-.82,3.91-1.67,7.89-3.33,11.47-1.9,4.12-3.31,8.55-4.1,13.05-1.53,8.71-2.06,17.56-2.45,26.38-.37,8.46,6.54,17.72,15.65,14.19,9.25-3.59,15.72-12.23,18.95-21.33,3.11-8.78,3.68-18.23,3.87-27.54.36-17.41-.51-34.85-2.59-52.14-1.03-8.55-2.35-17.07-3.96-25.53-.65-3.42-.51-5.75-4.25-6.31-3.69-.55-7.74-.04-11.39.56-1.5.24-3.48,1.39-3.76,3.05-.11.67.2,1.14.36,1.77.29,1.11.37,2.28.5,3.42.54,4.75.89,9.52,1.05,14.29.32,9.55-.13,19.13-1.33,28.61-.19,1.52-.4,3.03-.64,4.54-.6,3.94-1.77,7.67-2.58,11.52Z"/>
                <path class="cls-14" d="M328.88,179.18c-7.78,4.56-11.32,14.22-10.76,22.96.62,9.7,2.62,20.77,4.32,30.51,3.88,22.25,13.5,43.07,24.03,62.88,6.66,12.53,9.99,26.86,21.51,36.38,1.19.98,2.49,1.91,3.99,2.27,2.28.55,4.72-.31,6.59-1.74,7.88-6.02,4.57-17.05,4.04-25.49-.48-7.61-2.7-15.01-5.31-22.13-5.8-15.77-13.17-31.7-18.95-47.77-2.96-8.23-5.55-16.61-7.36-25.18-1.79-8.44-5.45-16.01-7.31-24.49-.51-2.31-1.02-4.69-2.25-6.67-2.75-4.43-8.59-3.83-12.52-1.53Z"/>
              </g>
              <g>
                <path class="cls-14" d="M367.2,145.94c2.63-9.31,6.26-18.34,10.82-26.87,3.11-5.82,7.08-11.78,13.27-14.06,4.14-1.52,8.57-1.64,12.7-3.27,3.54-1.39,6.19-2.02,9.66-.35,8.69,4.17,14.68,12.21,18.27,20.97,4.23,10.33,7.12,23.69,2.26,34.01-2.17,4.6-2.99,9.71-4.84,14.4-4.16,10.55-12.57,19.79-22.12,25.86-4.64,2.95-11,5.69-16.64,4.98-6.16-.77-11.68-5.88-15.5-10.39-10.39-12.27-12.56-27.46-8.56-42.78.22-.84.45-1.67.68-2.5Z"/>
                <path class="cls-24" d="M387.16,95.59c-.38.08-.76.17-1.14.29-5.76,1.7-10.71,5.37-15.06,9.36-4.94,4.54-9.69,9.57-12.95,15.48-2.78,5.03,1.3,5.21,4.72,7.57,3.4,2.34,4.31,5.58,5.36,9.3.58,2.04,1.08,3.72,1.19,5.88.1,1.98.12,4.03.92,5.88.08.18.18.37.36.44.14.05.29.02.43,0,1.58-.37,3.02-1.26,4.06-2.5,1.52-1.81,2.1-4.22,3.3-6.26,2.8-4.77,8.43-6.89,13.14-9.79,1.29-.79,2.54-1.67,3.78-2.54,2.17-1.52,4.4-3.11,5.81-5.36,1.11-1.77,1.64-3.86,2.75-5.63,1.28,1.4,1.76,3.26,2.2,5.05,1.02,4.14,1.89,8.31,2.6,12.52.33,1.96.71,4.08,2.18,5.42.58.53,1.28.89,1.98,1.24,1.33.68,2.67,1.36,4,2.04-.61-.31,1.28-4.31,1.54-4.75.92-1.55,2.21-2.96,3.28-4.42.17,3.41-.13,6.84-.89,10.16,3.3,1.51,6.66,3.04,9.42,5.41,4.18,3.58,4.38,9.39,4.02,14.6,4.34-2.7,7.88-6.65,10.11-11.25,1.68-3.48,2.61-7.29,3.03-11.14,1.54-14.22-4.44-28.9-15.04-38.41-7-6.28-18.71-15.18-28.69-11.4-1.95.74-3.69,1.91-5.41,3.09-1,.68-3.54-.31-4.86-.43-2.14-.2-4.09-.27-6.14.15Z"/>
                <path class="cls-14" d="M369.89,152.3c.12-.09.23-.18.35-.29,2.17-1.91,2.32-4.92,2.83-7.57.72-3.73,1.31-8.01-.59-11.52-1.25-2.31-4.17-3.95-6.57-2.88-1.94.87-2.85,3.11-3.31,5.19-1.05,4.72-1.35,12.48,1.9,16.51,1.55,1.92,3.57,1.96,5.4.55Z"/>
                <g>
                  <g>
                    <path class="cls-26" d="M404.18,170.87c-.18.26-.38.51-.6.74-1.36,1.38-2.91,1.39-4.73,1.62-.15.02-.33.07-.35.21,1.52,1.16,4.17,2.96,6.06,1.69.7-.47,1.03-1.32,1.21-2.14.3-1.36.31-2.78.04-4.14-.1-.51-.25-1.02-.18-1.53-.35,1.23-.73,2.51-1.45,3.56Z"/>
                    <path class="cls-12" d="M401.86,146.45c.66-.17,1.41-.55,1.44-1.23.03-.61-.56-1.06-1.12-1.3-.98-.41-2.06-.51-3.12-.6-3.65-.31-7.73-.99-10.63,1.82-1.22,1.18.04,1.99,1.24,1.74,4.01-.84,8.16.56,12.18-.44Z"/>
                    <path class="cls-12" d="M417.71,152.22c-.03-.1-.06-.19-.09-.29-.18-.73.43-1.7,1.25-1.56.49.08.89.43,1.26.77,2.22,2.03,4.39,4.14,6.29,6.47.7.86,2.06,2.82,1.08,3.93-.63.72-1.51.19-1.94-.51-1.67-2.69-4.43-4.18-6.47-6.6-.56-.67-1.11-1.38-1.38-2.21Z"/>
                  </g>
                  <path class="cls-26" d="M402.06,185.69c-.93-.04-1.82-.85-2.6-1.25-1.06-.54-2.18-1-3.34-1.38-1.49-.49-3.02-.77-4.59-1.02-.63-.1-2.35-.19-2.47-.95-.28-1.79,5.07-1.45,6.17-1.2,1.83.42,3.52,1.24,5,2.26.65.45,1.28.94,1.67,1.56.38.6.55,1.38.15,1.97Z"/>
                  <path class="cls-26" d="M385.9,156.15c-.65,1.76-.51,3.8.36,5.46.76,1.44,2.25,2.66,3.87,2.47,1.78-.21,3.58-1.85,4.69-3.15.37-.44.76-.94.84-1.52-1.78,1.24-3.42,2.23-5.65,1.59-2.17-.62-3.85-2.61-4.11-4.85Z"/>
                  <path class="cls-26" d="M422.22,171.27c-.93,1.63-2.57,2.84-4.41,3.25-1.59.35-3.48,0-4.38-1.36-.99-1.49-.9-3.93-.62-5.61.09-.57.23-1.18.61-1.63.2,2.16.51,4.05,2.44,5.34,1.87,1.26,4.48,1.25,6.36.01Z"/>
                  <path class="cls-12" d="M388.76,152.28c1.12.32,2.31.4,3.48.3,1.01-.08,2.02-.28,3-.53.19.32.33.65.37,1,.25,2.44-1.32,7.52-5.3,6.5-3.45-.88-2.8-5.14-1.71-7.02.05-.09.11-.17.16-.26Z"/>
                  <path class="cls-12" d="M415.8,162.35c.47-.8,1.07-1.6,2-2.02.08-.03.15-.07.23-.1.58-.21,1.19-.23,1.79-.12.27,1.01.85,2.08,1.2,2.79.42.84.96,1.62,1.59,2.31-.56,2.37-2.17,4.91-5.11,4.16-3.45-.88-2.8-5.14-1.71-7.02Z"/>
                </g>
              </g>
              <g>
                <path class="cls-14" d="M412.4,210.15c3.44,0,7.07-.94,10.33-1.94.16-.05.32-.1.45-.2.25-.2.32-.54.39-.85.61-2.75,2.2-4.66,3.83-6.86,2.22-3,4.45-6,6.67-9.01.93-1.25,1.87-2.54,2.32-4.03,1.16-3.87-1.62-8.63-3.25-11.95-.65-1.32-1.37-2.68-2.56-3.56-1.33-.99-3.07-1.24-4.73-1.35-1.59-.11-3.19-.12-4.78-.04-.43.02-.88.06-1.25.29-.36.23-.59.74-.38,1.11-.93.18-1.88.44-2.59,1.07-.71.63-1.09,1.71-.67,2.55-.43-.86-3.02,1.05-3.31,1.4-.64.77-.67,3.01-1.71,3.18-.45.07-.9-.08-1.35-.1-1.16-.04-2.25,1-2.27,2.16-.04,2.19,3.07,3.79,4.53,5.02.19.16.38.33.43.57.03.19-.04.38-.11.57-.64,1.63-1.81,3.58-3.16,4.7-1.56,1.3-3.13,2.76-3.79,4.75-.33,1-.4,2.07-.47,3.12-.18,2.73-.67,6.47.8,8.94,1.18,1.99,4.89.68,6.64.45Z"/>
                <path class="cls-14" d="M454.01,325.7c.6-1.6.82-3.31.96-5.01.8-9.32-.48-18.86-1.94-28.06-3.62-22.78-12.26-44.27-22.37-64.87-1.77-3.61-3.73-7.13-5.23-10.86-.74-1.85-1.37-3.76-1.77-5.72-.41-2.02-.26-3.96-.5-5.98-.02-.18-.05-.38-.18-.52-.14-.15-.37-.19-.57-.22-1.96-.25-3.96-.24-5.91.03-2.83.4-5.83.51-8.62,1.28-.67.19-1.38.43-1.81.98-.57.71-.51,1.72-.41,2.62.7,6.13,2.69,11.95,3.99,17.96,1.34,6.23,2.62,12.47,3.8,18.73,1.46,7.76,2.77,15.55,3.87,23.5,1.25,8.97,2.98,17.72,4.69,26.58,1.73,8.98,4.16,17.93,8.53,26.01,2.44,4.52,6.01,8.51,11.28,9.5,5.31,1,10.14-.51,12.2-5.96Z"/>
              </g>
              <path class="cls-25" d="M297.68,278.81c-16.94-2.66-34.56-2.5-54.18-2.26-26.05.32-52.14,1.71-77.93,5.49-11.17,1.64-20.89,6.49-32.07,7.24-11.46.77-23.02-.93-34.36-2.44-18.29-2.44-37.1-6.33-55.62-5.95-16.4.34-34.11,6.84-48.7,13.93-16.47,8-32.17,18.24-49.5,24.5,3.48-1.26,26.36,33.92,28.59,36.86,11.3,14.88,22.6,29.76,33.9,44.65,3.98,5.24,8.09,10.6,13.68,14.04,15.96,9.83,36.29.88,53.55-6.42,33.14-14.01,69.02-21.39,104.98-21.91,17.59-.25,35.28,1.08,52.6,4.2,14.36,2.59,25.8,11.27,37.53,19.92,17.21,12.71,31.92,28.44,47.76,42.82,11.11,10.08,23.55,19.87,38.35,22.29,54.29,8.89,71.21-50.73,115.28-63.12,3.05-.86,6.47-1.59,8.34-4.14,1.64-2.25,1.6-9.37,1.38-12.14-1.75-22.87-10.22-45.2-24.08-63.47-17.34-22.87-36.08-21.3-62.2-21.23-17,.04-33.85-5.07-48.13-14.24-16.59-10.65-32.56-15.99-49.18-18.6Z"/>
              <g>
                <path class="cls-7" d="M419.79,172.16c2.33.15,4.65.52,6.91,1.12.4.11.82.23,1.13.51.31.27.47.67.63,1.05,1.09,2.67,2.04,5.4,2.85,8.16"/>
                <path class="cls-7" d="M415.86,175.15c1.61.17,3.2.52,4.73,1.04.72.24,1.44.53,1.99,1.04.5.47.83,1.09,1.14,1.7,1.26,2.5,2.32,5.09,3.18,7.75"/>
                <path class="cls-7" d="M411.59,180.18c1.48.17,2.93.56,4.3,1.16.85.37,1.68.83,2.27,1.54.53.65.83,1.45,1.11,2.24.62,1.74,1.25,3.48,1.87,5.23"/>
                <path class="cls-7" d="M430.21,171.83c-1.04-.96-2.5-1.36-3.91-1.49-1.42-.13-2.84-.02-4.26-.12-.69-.05-1.41-.14-2.03.16-.62.3-.99,1.2-.52,1.7-.89-.22-1.82.18-2.56.74-.73.55-1.2,1.44-1.23,2.36-1.19.14-2.28.7-2.97,1.68-.69.98-.93,2.26-.66,3.43-.65-.51-1.83-.63-2.6-.36-.78.27-1.4.95-1.59,1.74-.72,2.92,3.13,4.02,4.83,5.54,2.01,1.8,2.97,4.47,3.86,7.02"/>
                <path class="cls-7" d="M412.51,187.34c-.27,2.17-1.83,3.94-3.39,5.47-1.56,1.53-3.27,3.06-4,5.12"/>
                <path class="cls-7" d="M367.98,141.42c.6.36.94,1.04,1.21,1.69.27.66.49,1.35.49,2.06,0,1.48-1.05,2.9-2.47,3.31"/>
                <path class="cls-7" d="M369.2,146.48c.04-.51-.15-1.02-.44-1.45-.51-.76-1.37-1.3-2.28-1.27-.91.04-1.79.75-1.87,1.65"/>
                <path class="cls-7" d="M374.88,278.16c-2.15,8.64-3.42,17.51-3.8,26.41"/>
              </g>
              <path class="cls-24" d="M328.36,204.59c-1.32,14.02-.78,28.23,1.23,42.15,1.37,9.49,1.8,18.28-1.01,27.54-2.94,9.68-6.52,19.34-7.13,29.53-.38,6.25,1.38,15.23,8.76,16.5,3.03.52,6.05,1.04,9.08,1.56.35.06.73.12,1.05-.04.39-.19.57-.62.73-1.02.99-2.55,1.97-5.1,2.96-7.65.8,3.45,1,7.04.61,10.56,4.57-1.17,9.13-2.35,13.7-3.52.7-.18,1.47-.41,1.85-1.03.34-.56.24-1.27.12-1.92-1.39-8.05-2.88-16.25-1.66-24.33,1.36-9.03,6.06-17.44,6.49-26.56.29-6.08-1.34-12.06-2.78-17.97-3.39-13.95-5.73-28.32-5.18-42.72.56-14.46,6.4-27.44,6.05-41.92-.24-10.1-10.23-4.65-15.29-2.46-4.16,1.81-7.94-.57-10.31,3.9-2.54,4.79-3.86,10.79-5.21,16-1.98,7.68-3.31,15.5-4.06,23.39Z"/>
              <path class="cls-1" d="M334.2,173.61c-10.65,19.99-14.03,43.75-9.37,65.91,2.23,10.62,6.25,21.59,3.22,32.02-1.25,4.32-3.64,8.2-5.3,12.38-1.86,4.69-2.77,9.7-3.68,14.67-.53,2.93-1.06,5.99-.22,8.85.88,3,3.17,5.4,4.33,8.31"/>
              <path class="cls-1" d="M360.08,119.33c-8.44,11.66-14.11,23.49-27.22,30.84-5.15,2.89-10.99,5.09-14.65,9.73-3.09,3.91-4.37,9.28-8.36,12.26-3.14,2.35-7.28,2.69-11.04,3.78-5.29,1.53-10.09,4.69-13.59,8.94-2.01,2.44-3.58,5.21-5.64,7.61-3.07,3.58-7.19,6.25-11.72,7.58-3.32.98-6.84,1.26-10.01,2.64-3.17,1.38-6.05,4.32-5.86,7.77"/>
              <path class="cls-1" d="M437.27,162.85c8.4-3.06,12.96-12.48,13.64-21.4.72-9.5-2.1-19.23-7.79-26.88-3.18-4.28-7.19-7.88-11.29-11.3-5.16-4.31-10.98-8.56-17.7-8.85"/>
              <g class="cls-18">
                <path class="cls-4" d="M435.4,155.48c4.24-12.88,4.01-27.57-2.5-39.47-6.51-11.9-19.81-20.31-33.33-19.21"/>
                <path class="cls-4" d="M413.75,138.51c3.62-14.42-1.6-30.69-12.93-40.32-.48-.4-.38-.28-.95-.53"/>
                <path class="cls-4" d="M390.86,101.53c-8.05,3.54-16.36,7.43-21.84,14.31-5.78,7.26-7.7,17.04-13.6,24.2-6.11,7.41-15.94,11.35-20.99,19.51-1.7,2.75-2.78,5.86-4.59,8.53-4.37,6.45-11.54,8.16-17.89,11.81-6.81,3.91-14.28,5.45-20.14,11.18-3.56,3.48-6.28,7.88-10.38,10.71-7.65,5.27-18.93,4.26-25.23,11.09"/>
                <path class="cls-4" d="M359.28,155.31c-3.91,7.45-1.63,16.52-2.69,24.87-1.03,8.1-5.23,15.34-6.92,23.25-1.81,8.53-4.26,16.94-3.22,25.79,1.39,11.81,8.41,22.55,8.89,34.43.34,8.37-2.61,16.47-4.65,24.6-2.04,8.13-3.1,17.12.73,24.57"/>
                <path class="cls-4" d="M324.01,310.63c4.32-6.95,8.66-13.98,11.37-21.71,2.04-5.81,3.11-11.96,3.18-18.11.16-15.25-5.81-30.51-2.83-45.47"/>
                <path class="cls-4" d="M349.98,154.45c-10.41,17.99-11.21,39.75-11.75,60.52"/>
              </g>
              <g class="cls-18">
                <path class="cls-2" d="M310.33,314.09c-46.08-13.29-97.14,4.75-142.78-9.97"/>
                <path class="cls-2" d="M235.94,224.75c-2.98,15.62-.44,32.23,7.08,46.25"/>
                <path class="cls-2" d="M114.12,305.06c-28.31-7.66-54.82-21.88-76.86-41.22"/>
                <path class="cls-2" d="M366.84,320.46c35.55,10.26,67.13,33.68,87.28,64.71"/>
              </g>
              <path class="cls-14" d="M392.21,195.01c-1.17-1-2.56-1.68-3.98-2.27-1.55-.64-3.14-1.19-4.76-1.62-3.39-.9-6.62-1.81-6.35-5.97.1-1.58.33-3.16.68-4.71.14-.62.3-1.24.29-1.87-.01-.63-.23-1.29-.72-1.69-.49-.4-1.29-.45-1.73,0,.07-1.58-.32-4.5-2.61-3.48-.66.29-1.2.79-1.66,1.35.06-.57.11-1.15,0-1.71-.12-.56-.44-1.11-.96-1.35-.66-.31-1.45-.06-2.06.34-.45.3-.79.69-1.12,1.1-.49-.39-.6-1.43-1.07-1.97-.5-.57-1.16-.93-1.93-.75-1.31.31-1.75,1.91-1.95,3.23-.64,4.25-1.25,8.54-1.03,12.83.21,4.29,1.29,8.64,3.77,12.15,3.83,5.42,10.41,8.19,14.99,12.99.7.74,1.37,1.53,2.24,2.05.99.6,2.17.8,3.32.98,2.3.37,4.78.69,6.86-.36,6.81-3.45,4.78-15.03-.19-19.27Z"/>
              <path class="cls-7" d="M396.09,201.5c-.77-2.62-2.14-5.01-3.88-6.49-1.17-1-2.56-1.68-3.98-2.27-1.55-.64-3.14-1.19-4.76-1.62-3.39-.9-6.62-1.81-6.35-5.97.1-1.58.33-3.16.68-4.71.14-.62.3-1.24.29-1.87-.01-.63-.23-1.29-.72-1.69-.49-.4-1.29-.45-1.73,0,.07-1.58-.32-4.5-2.61-3.48-.66.29-1.2.79-1.66,1.35.06-.57.11-1.15,0-1.71-.12-.56-.44-1.11-.96-1.35-.66-.31-1.45-.06-2.06.34-.45.3-.79.69-1.12,1.1-.49-.39-.6-1.43-1.07-1.97-.5-.57-1.16-.93-1.93-.75"/>
              <path class="cls-7" d="M391.22,210.5c-.58.44-1.17.89-1.85,1.14-.57.2-1.17.24-1.77.29-2.62.19-5.32.38-7.82-.41"/>
              <path class="cls-7" d="M375.39,176.47c-.64,2.02-1.24,4.06-1.81,6.1-.21.74-.41,1.49-.49,2.25-.12,1.14.05,2.32.49,3.38"/>
              <path class="cls-7" d="M371.63,173.92c-.63,1.22-1,2.56-1.37,3.89-.84,3.03-1.69,6.14-1.51,9.28,0,.07.02.16.09.18.07.02.08-.14.02-.1"/>
              <path class="cls-7" d="M366.88,172.4c-.73,2.36-1.47,4.74-1.85,7.18-.38,2.44-.4,4.98.28,7.36"/>
            </g>
            <g>
              <g>
                <ellipse class="cls-8" cx="596.78" cy="288.09" rx="85.58" ry="6.91"/>
                <path class="cls-11" d="M511.24,288.21c.78,3.76,38.77,6.8,85.54,6.8s85.57-3.1,85.58-6.91v10.5c0,3.82-38.31,6.91-85.58,6.91s-85.58-3.09-85.58-6.91c0-.04.03-.08.04-.12v-10.26Z"/>
                <path class="cls-8" d="M525.69,429.02c0,3.82,31.83,6.91,71.09,6.91s71.09-3.09,71.09-6.91-31.83-6.91-71.09-6.91-71.09,3.1-71.09,6.91Z"/>
                <path class="cls-11" d="M525.72,429.14c.65,3.76,32.21,6.8,71.06,6.8s71.09-3.1,71.09-6.91v10.5c0,3.82-31.83,6.91-71.09,6.91s-71.09-3.09-71.09-6.91c0-.04.02-.08.03-.12v-10.26Z"/>
                <g>
                  <path class="cls-11" d="M663.12,501.77c2.64,0,4.77-2.14,4.77-4.77v-196.36c0-2.64-2.14-4.77-4.77-4.77s-4.77,2.14-4.77,4.77v196.36c0,2.64,2.14,4.77,4.77,4.77Z"/>
                  <path class="cls-11" d="M530.44,501.77c2.64,0,4.77-2.14,4.77-4.77v-196.36c0-2.64-2.14-4.77-4.77-4.77s-4.77,2.14-4.77,4.77v196.36c0,2.64,2.14,4.77,4.77,4.77Z"/>
                </g>
              </g>
              <g>
                <g>
                  <path class="cls-8" d="M650.07,92.25c-.3-.33-.62-.63-1-.86-1.99-1.2-9.07,2.79-9.32-.91-.03-.48.21-.94.53-1.3,1.39-1.56,4.16-1.47,5.25-3.25.9-1.47.13-3.39-.85-4.8-2.37-3.43-5.52-5.01-9.14-6.77-3.24-1.57-7.02-2.6-10.03-4.57-2.46-1.6-4.32-4-6.83-5.51-2.4-1.45-5.32-2-8.08-1.53,1.16-.2,2.57,3.07,2.78,3.86.86,3.27-2.6,4.81-2.26,7.89.39,3.51,3.36,5.71,5.89,7.65.95.73,1.82,1.71,1.96,2.9-2.98-2.18-7.53-5.03-11.32-3.58-2.33.89-3.42,3.09-3.91,5.41-.48,2.24-.07,4.95.02,7.21.08,2.02-.19,6.79,2.18,7.72.64.25,1.37.17,2.05,0,1.29-.31,2.5-.86,3.77-1.25,1.26-.39,2.63-.62,3.91-.26,1.27.36,2.41,1.44,2.5,2.76.12,1.67-1.47,3.07-3.12,3.32-1.65.25-3.31-.35-4.84-1.02-.56-.25-1.13-.5-1.74-.58-2.39-.29-4.89,1.93-4.8,4.25.18,4.62,1.32,9.19,3.34,13.35,2.93-1.91,10.37-3.8,13.2-.78.76.81.99,2.14.34,3.04-.87,1.2-2.64,1.09-4.12,1.01-2.33-.12-4.69.16-6.92.83-.83.25-1.68.57-2.27,1.2-.75.79-.98,1.93-1.03,3.02-.1,1.99.51,3.89.53,5.84.06,5.02,2.35,9.92,6.94,12.44,4.86,2.67,11.66,1.93,15.75-1.65.91-.8,4.56-4.19,4.21-5.56.75,2.85,2.12,5.54,4,7.82,1.34,1.63,3,3.09,5,3.75,4.15,1.37,8.69-.99,11.7-4.15,4.87-5.12,7.84-13.91,6.65-20.92-.58-3.44-1.9-2.86-4.42-2.14-2.81.8-6.31-.51-8.52-2.27-.31-.24-.62-.56-.6-.95.02-.25.17-.47.35-.65.98-1,2.52-1.15,3.92-1.16,2.44-.01,4.89.23,7.28.73.33-2.57-.18-5.25-1.42-7.53-.32-.58-.7-1.16-1.28-1.48-1.47-.83-3.22.34-4.89.63-1.96.34-4.14-.82-4.74-2.71s.71-4.23,2.68-4.5c1.26-.17,2.47.42,3.72.68,1.24.26,2.82.01,3.3-1.16.2-.49.16-1.05.08-1.57-.61-4.06-3.11-7.54-5.53-10.86-.27-.37-.54-.74-.84-1.07Z"/>
                  <path class="cls-11" d="M621.59,69.69c.13-.12,1.52.98,3.5,3.51,1.98,2.52,4.46,6.55,6.48,12.01,1.95,5.47,3.76,12.15,4.9,19.83,1.1,7.67,1.51,16.33.5,25.43h0s0,0,0,0c-.23,1.83-.45,3.62-.78,5.41-.27,1.79-.68,3.56-1.07,5.36h0s0,0,0,0c-4.41,17.75-11.73,32.21-17.29,42.23-2.82,5.01-5.26,8.92-7.04,11.55-1.77,2.64-2.85,4.01-3.01,3.9-.36-.22,3.25-6.16,8.53-16.28,5.18-10.12,12.23-24.56,16.49-41.95h-.01s0,0,0,0c.38-1.75.78-3.47,1.05-5.22.32-1.74.53-3.49.76-5.27h0s.01,0,.01,0c2.01-17.79-1.24-33.68-4.66-44.42-1.78-5.37-3.97-9.38-5.67-12-1.69-2.64-2.83-3.96-2.67-4.1Z"/>
                </g>
                <g>
                  <path class="cls-11" d="M634.73,128.64c-.09,6.71-4.18,13.98-9.55,17.19-1.15.69-2.45.95-3.75,1.19-1.37.25-3.91-.23-5.05.25-1.73.73-1.96,2.67-2.85,4.07-.92,1.45-2.34,2.55-3.66,3.69-3.04,2.62-6.36,5.04-10.22,6.3-5.33,1.74-12.02.63-15.11-4.05-.99-1.5-1.55-3.26-1.79-5.05-.07-.56-.11-1.16.14-1.67.23-.46.68-.77,1.1-1.06,2.08-1.43,4.16-2.85,6.24-4.28-.28-1.28-2.16-1.08-3.37-.57-1.75.74-3.5,1.48-5.25,2.22-.4.17-.85.34-1.26.19-.38-.14-.61-.51-.8-.86-1.58-2.86-2.6-6.03-2.98-9.28-.31-2.66.24-6.01,2.78-6.86,1.09-.37,2.61-.39,2.91-1.5.24-.91-.71-1.74-1.64-1.9-.93-.17-1.89.05-2.82-.1-2.11-.36-3.45-2.61-3.6-4.74-.16-2.14.55-4.22,1.03-6.31,1.02-4.46,1.01-9.16-.04-13.61-.09-.39-.19-.82-.02-1.19.2-.42.68-.62,1.12-.77,6.7-2.33,14.23-3.87,20.74-1.07,1.56.67,3.07,1.63,3.93,3.1.58.99.82,2.14,1.38,3.14.56,1,1.62,1.88,2.74,1.67,1.34-.25,1.96-1.8,3.1-2.54,2.02-1.32,4.62.29,6.47,1.83.41.34.84.71.96,1.23.13.53-.11,1.08-.34,1.58-.64,1.4-1.28,2.79-1.92,4.19-.18.38-.36.79-.28,1.21.17.98,1.65,1.17,2.42.54.77-.63,1.04-1.67,1.38-2.61.34-.94.91-1.94,1.88-2.16.72-.16,1.46.16,2.12.49,4.75,2.42,8.85,6.08,11.79,10.53,1.48,2.23,2.1,4.87,2.07,7.6Z"/>
                  <path class="cls-8" d="M611.24,192.58c-.43-.19,1.61-4.6,3.36-12.28,1.75-7.63,2.93-18.82-.16-30.82h0s0,0,0,0c-.15-.6-.3-1.2-.44-1.8l-.56-1.74c-.39-1.16-.71-2.34-1.22-3.47h0s0,0,0,0c-2.22-5.75-5.19-10.8-8.39-14.95-3.16-4.2-6.68-7.35-9.7-9.84-6.18-4.86-10.66-6.77-10.44-7.25.08-.17,1.22.22,3.28,1.09,1.05.39,2.24,1.07,3.63,1.85,1.43.73,2.92,1.77,4.58,2.94,3.24,2.41,6.99,5.57,10.37,9.87,3.41,4.25,6.57,9.47,8.9,15.44h0s0,0,0,0c.53,1.18.86,2.41,1.26,3.61l.59,1.81c.15.62.31,1.24.46,1.87h0s-.01,0-.01,0c1.55,6.22,2.01,12.29,1.76,17.72-.22,5.45-1.18,10.21-2.24,14.1-2.18,7.79-4.78,12.01-5.04,11.87Z"/>
                </g>
                <path class="cls-20" d="M601.39,182.7c0,1.31,7.97,2.38,17.8,2.38s17.8-1.06,17.8-2.38-7.97-2.38-17.8-2.38-17.8,1.06-17.8,2.38Z"/>
                <g>
                  <path class="cls-11" d="M644.98,149.76c.42.1.8.23,1.12.42,1.12.66,2.72,6.92,5.25,4.16.26-.28.37-.68.44-1.06.22-1.16.21-2.37-.03-3.53-.14-.7-.36-1.44-.09-2.1.23-.54.75-.9,1.25-1.2,2.82-1.69,6-2.76,9.27-3.12.77-.08,1.57-.12,2.28.17,1.76.71,2.25,3.03,3.79,4.14.2-3.12,1.93-4.17,5.01-4.19,4.42-.04,8.84.9,12.86,2.74-.72,2.1-1.43,4.19-2.15,6.29-.18.54-.38,1.1-.79,1.5-1.33,1.29-4.13.26-5.02,1.89,1.35.15,2.42,1.37,2.72,2.7.3,1.33-.03,2.73-.56,3.98-.94,2.23-2.82,4.33-5.24,4.45-2.69.13-5.2-2.21-7.82-1.58,1.75,2.07,3.46,3.04,5.92,3.86,1.95.65,3.47,2.54,2.91,4.75-.25.96-.89,1.76-1.51,2.53-.74.91-1.49,1.83-2.23,2.74-.97,1.19-1.95,2.4-3.24,3.22-1.29.82-2.96,1.21-4.37.63-1.29-.53-2.15-1.74-2.95-2.88-.81-1.14-1.71-2.33-3.04-2.77-.97-.32-2.94-.13-3.62.69-.82.99.02,2.51,1.08,3.24,1.06.72,2.4,1.18,3.05,2.28.92,1.55.02,3.53-1,5.02-2.15,3.13-3.62,5.26-7.63,4.78-3.52-.41-6.86-2.28-9.1-5.02-3.19-3.91-4.21-9.35-3.21-14.29-.27,1.35-5.78.88-6.67.78-1.87-.21-3.45-.14-5.04-1.28-3.49-2.51-5.16-7.5-3.53-11.54.49-1.21,1.32-2.37,2.54-2.84.77-.3,1.63-.29,2.46-.23,2.71.18,5.38.83,7.87,1.92.33-1.99-2.42-3.09-3.07-5.01-1.74-5.17,9.1-6.93,12.08-6.26Z"/>
                  <path class="cls-8" d="M676.41,151.35c.04.19-1.12.52-3.14,1.26-2.03.73-4.89,1.98-8.42,3.73-1.75.88-3.79,1.78-5.79,2.81-2.02,1.07-4.09,2.41-6.21,3.93-4.25,3.07-8.81,6.69-13.14,11.04h0s0,0,0,0c-.89.86-1.69,1.78-2.54,2.65-.84.88-1.6,1.83-2.42,2.76h0s0,0,0,0c-7.98,9.38-12.82,19.32-15.53,26.62-2.74,7.33-3.6,12.05-4.04,11.96-.16-.03-.06-1.23.27-3.4.38-2.16,1.07-5.28,2.3-9.07,2.42-7.55,7.21-17.83,15.35-27.49h0s0,0,0,0c.84-.95,1.61-1.93,2.48-2.83.86-.9,1.69-1.84,2.6-2.72h0s0,0,0,0c4.47-4.45,9.16-8.09,13.53-11.13,2.21-1.51,4.38-2.85,6.52-3.91,2.18-1.05,4.14-1.82,5.95-2.64,3.62-1.6,6.66-2.69,8.81-3.19,2.15-.51,3.38-.54,3.4-.39Z"/>
                </g>
                <g>
                  <path class="cls-8" d="M587.75,147.35c-.29.21-.53.43-.71.67-.64.85.15,6.07-2.64,4.8-.29-.13-.49-.39-.66-.66-.53-.81-.91-1.72-1.09-2.67-.11-.57-.18-1.2-.6-1.61-.34-.34-.85-.44-1.32-.51-2.66-.38-5.4-.18-7.97.59-.6.18-1.22.4-1.66.85-1.1,1.09-.74,3-1.55,4.32-1.14-2.29-2.78-2.53-5.11-1.57-3.34,1.37-6.38,3.49-8.82,6.15,1.2,1.35,2.41,2.7,3.61,4.06.31.35.64.71,1.07.88,1.41.55,3.2-1.11,4.38-.17-.97.54-1.39,1.8-1.2,2.9.19,1.1.89,2.05,1.68,2.82,1.42,1.38,3.5,2.37,5.36,1.69,2.07-.75,3.22-3.32,5.39-3.67-.66,2.11-1.64,3.39-3.24,4.79-1.27,1.11-1.81,3.02-.68,4.51.49.65,1.23,1.05,1.94,1.43.85.45,1.7.91,2.55,1.36,1.1.59,2.23,1.18,3.47,1.4,1.23.21,2.61-.02,3.49-.91.8-.81,1.07-1.99,1.31-3.1.25-1.11.55-2.3,1.41-3.05.63-.55,2.17-1.03,2.95-.63.93.48.78,1.9.21,2.78-.57.88-1.43,1.65-1.58,2.69-.2,1.46,1.11,2.67,2.35,3.47,2.62,1.68,4.4,2.81,7.27,1.19,2.52-1.43,4.45-3.89,5.26-6.67,1.17-3.96.21-8.38-2.11-11.79.63.93,4.64-1.17,5.27-1.53,1.34-.75,2.56-1.2,3.39-2.56,1.83-3,1.51-7.29-1-9.82-.75-.76-1.75-1.37-2.81-1.33-.68.02-1.32.3-1.92.6-1.98,1-3.79,2.34-5.32,3.94-.88-1.4.84-3.1.72-4.75-.33-4.44-9.05-2.34-11.09-.88Z"/>
                  <path class="cls-11" d="M564.57,158.52c-.03-.13.94-.52,2.79-.82,1.85-.32,4.59-.44,7.94-.37,1.67.05,3.49-.02,5.54.14,2.02.17,4.15.53,6.36,1.01,2.23.48,4.5,1.13,6.88,1.67,2.39.56,5,1.18,7.45,2.5h0s0,0,0,0c.99.53,1.9,1.14,2.76,1.82.85.67,1.66,1.39,2.43,2.17h0s0,0,0,0c3.85,3.88,6.23,8.58,7.56,12.95,1.35,4.38,1.82,8.45,2.02,11.82.33,6.75-.15,10.8-.39,10.8-.32,0-.26-4.08-.87-10.7-.34-3.3-.91-7.24-2.28-11.43-1.35-4.18-3.64-8.57-7.27-12.21h0s0,0,0,0c-.73-.73-1.47-1.41-2.27-2.03-.79-.62-1.61-1.17-2.5-1.64h0s0,0,0,0c-2.2-1.2-4.64-1.81-7.02-2.4-2.41-.57-4.69-1.26-6.84-1.76-2.16-.52-4.22-.91-6.15-1.12-1.91-.21-3.77-.2-5.44-.33-3.34-.21-5.99-.27-7.82-.16-1.83.09-2.84.23-2.87.08Z"/>
                </g>
                <path class="cls-19" d="M619.2,185.08c9.53,0,17.29-1,17.76-2.26v96.88c0,3.78-6.61,7.93-18.71,6.84,0,0-16.45.14-16.81-6.84v-96.88c.47,1.26,8.23,2.26,17.76,2.26Z"/>
              </g>
              <g>
                <path class="cls-25" d="M550.88,279.24c-2.87-2.42-7.06,1.18-8.27,3.75-.89,1.9-1.1,4.14-.39,6.12.3.84.79,1.66,1.55,2.12.76.46,1.84.48,2.49-.13.75-.7.69-1.87.81-2.89.23-2,1.39-3.88,3.07-4.99.44-.29.92-.54,1.24-.95.7-.89.35-2.3-.52-3.03Z"/>
                <g>
                  <path class="cls-10" d="M534.53,204.05c-.5.81-.97,1.67-1.4,2.58-1.01,2.12-1.27,4.79-1.03,7.1.22,2.1.74,4.9,2.4,6.37,1.88,1.67,4.72.75,6.8,0,5.25-1.91,9.74-4.74,14.44-7.65,3.18-1.97,6.42-4.02,8.72-6.96.53-.67,1.01-1.43,1.1-2.27.15-1.51-1.95-3.61-2.95-4.58-1.5-1.46-3.34-2.57-5.31-3.24-3.39-1.17-7.13-1.12-10.62-.26-5.45,1.36-9.38,4.44-12.16,8.92Z"/>
                  <path class="cls-15" d="M542.14,199.64c2.24.16,1.66-2.84.67-3.88-.43-.46-1.03-.79-1.66-.84-.35-.03-.73.04-1,.27-.34.29-.45.78-.45,1.24,0,.69.2,1.37.57,1.95.41.66,1.09,1.2,1.87,1.26Z"/>
                </g>
                <path class="cls-25" d="M530.33,248.19c2.14,21.7,16.52,38.04,32.12,36.5,15.6-1.54,26.51-20.38,24.37-42.08-2.14-21.7-16.52-38.04-32.12-36.5-15.6,1.54-26.51,20.38-24.37,42.08Z"/>
                <path class="cls-15" d="M532.34,247.99c1.97,19.97,15.04,35.04,29.19,33.64,1.3-.13,2.56-.39,3.79-.79,12.07-3.81,20.05-19.78,18.26-37.91-1.79-18.14-12.73-32.23-25.32-33.61-1.28-.15-2.56-.16-3.87-.03-14.15,1.4-24.02,18.72-22.05,38.7Z"/>
                <path class="cls-11" d="M540.01,247.24c1.79,18.13,12.72,32.22,25.31,33.61,12.07-3.81,20.05-19.78,18.26-37.91-1.79-18.14-12.73-32.23-25.32-33.61-12.07,3.82-20.04,19.77-18.25,37.91Z"/>
                <path class="cls-15" d="M563.66,284.49c14.95-2.37,25.25-20.78,23.16-41.92-2.05-20.74-15.28-36.58-30.07-36.59l24.35-2.4v.03c15.2-.8,29.02,15.27,31.11,36.48,2.09,21.22-8.32,39.68-23.38,41.86v.05s-25.18,2.48-25.18,2.48Z"/>
                <path class="cls-10" d="M583.04,193.16c-.95.11-1.91.28-2.89.5-2.29.52-4.55,1.98-6.2,3.6-1.51,1.48-3.38,3.62-3.5,5.84-.14,2.51,2.34,4.16,4.23,5.33,4.76,2.93,9.76,4.69,14.97,6.57,3.52,1.27,7.13,2.54,10.87,2.52.85,0,1.75-.09,2.46-.55,1.28-.82,1.62-3.77,1.76-5.15.22-2.08-.06-4.21-.76-6.18-1.19-3.39-3.55-6.29-6.39-8.48-4.45-3.43-9.3-4.6-14.55-3.99Z"/>
                <path class="cls-15" d="M591.22,196.39c1.26,1.85,3.25-.46,3.46-1.88.09-.63-.02-1.3-.37-1.82-.2-.29-.49-.55-.83-.61-.44-.09-.89.14-1.25.42-.54.43-.95,1.01-1.18,1.66-.26.73-.26,1.6.17,2.24Z"/>
                <path class="cls-25" d="M582.24,280.96c2.77-2.53,7.1.91,8.41,3.43.96,1.86,1.25,4.1.63,6.1-.27.85-.73,1.69-1.47,2.18-.75.49-1.82.55-2.5-.03-.77-.67-.76-1.84-.92-2.85-.31-1.99-1.54-3.82-3.26-4.87-.45-.27-.94-.5-1.28-.9-.73-.87-.44-2.29.4-3.05Z"/>
                <g>
                  <g>
                    <path class="cls-25" d="M559.08,217.24c.03.32.11.44.46.41l.21-.02.03.35-2.22.18-.03-.35h.17c.46-.05.46-.21.43-.55l-.22-2.8c-.03-.4-.1-.49-.62-.45h-.12s-.03-.32-.03-.32c.84-.18,1.04-.28,1.28-.47l.34-.03.32,4.05Z"/>
                    <path class="cls-25" d="M563.36,217.98c.02-.17,0-.28-.19-.26l-2.38.19-.03-.34c.78-.86,1.84-2.27,1.75-3.4-.05-.64-.47-.88-.84-.85-.39.03-.65.35-.62.69.01.19.11.36.19.48.03.06.02.07-.13.14l-.23.12c-.06.03-.13.06-.14.06-.07,0-.23-.27-.26-.6-.05-.61.38-1.17,1.38-1.24,1.29-.1,1.56.8,1.59,1.15.06.76-.53,1.51-1.06,2.13-.14.16-.79.86-.91,1l2.26-.18-.09.91-.3.02Z"/>
                  </g>
                  <path class="cls-25" d="M571.44,222.13c.02.33.11.44.46.42l.21-.02.03.35-2.22.18-.03-.35h.17c.46-.05.46-.21.43-.55l-.22-2.8c-.03-.4-.1-.49-.62-.45h-.13s-.03-.32-.03-.32c.84-.18,1.04-.28,1.28-.47l.34-.03.32,4.05Z"/>
                  <path class="cls-25" d="M575.51,264.84l-.13.33c-.12.3-.17.3-.35.32l-1.37.11.07,1.29c.18-.18.39-.37.85-.41.93-.07,1.54.69,1.6,1.46.07.83-.53,1.76-1.81,1.87-.79.06-1.2-.28-1.23-.61-.02-.26.17-.41.33-.42.18-.01.26.1.35.24.25.37.48.45.73.43.78-.06.72-.89.68-1.28-.06-.76-.24-1.37-.84-1.32-.15.01-.45.1-.59.55l-.38.03-.12-2.41,2.21-.18Z"/>
                  <path class="cls-25" d="M578.45,234.53c.02-.16,0-.28-.18-.26l-2.38.19-.03-.34c.78-.86,1.84-2.27,1.75-3.4-.05-.64-.47-.88-.84-.85-.39.03-.65.35-.62.69.01.19.11.36.19.48.03.06.02.07-.13.14l-.23.12c-.06.03-.13.06-.14.06-.07,0-.23-.26-.26-.6-.05-.61.38-1.17,1.38-1.25,1.29-.1,1.56.8,1.59,1.15.06.76-.53,1.51-1.06,2.13-.14.16-.79.86-.91,1l2.26-.18-.09.91-.3.02Z"/>
                  <path class="cls-25" d="M577.46,255.9l1.89-2.99.49-.04.23,2.87.66-.05.03.41-.66.05.06.71c.03.45.1.5.58.46h.12s.03.34.03.34l-2.22.18-.03-.35h.13c.55-.05.55-.17.52-.56l-.06-.71-1.73.14-.04-.47ZM579.19,255.81l-.14-1.8-1.2,1.91,1.34-.11Z"/>
                  <path class="cls-25" d="M552.51,266.4c-.02.12-.03.19,0,.22.04.03.13.03.29.02l2.01-.16-1.02,4.31c-.07.31-.16.66-.5.69-.22.02-.43-.14-.45-.39-.01-.18.12-.44.16-.53l1.27-3.25-1.52.12c-.4.03-.48.04-.57.4l-.03.11-.36.03.37-1.55.34-.03Z"/>
                  <path class="cls-25" d="M547.31,259.03c.07.89-.56,1.46-1.5,1.54-1.05.08-1.71-.46-1.77-1.28-.06-.75.43-1.17,1.05-1.32-.69-.13-1.06-.49-1.11-1.04-.05-.64.47-1.25,1.39-1.32.91-.07,1.57.42,1.62,1.1.02.27,0,.83-.91,1.18.84-.02,1.18.71,1.22,1.14ZM545,259.27c.04.52.24.99.76.95.68-.05.6-.89.58-1.2-.06-.78-.44-.94-.74-.91-.69.06-.62.89-.6,1.16ZM545.43,255.93c-.31.02-.62.25-.56.97.01.16.07.91.7.86.61-.05.55-.81.54-.97-.05-.63-.33-.89-.68-.86Z"/>
                  <g>
                    <path class="cls-25" d="M548.56,223.95c.03.32.11.44.46.42l.21-.02.03.35-2.22.18-.03-.35h.17c.47-.05.46-.21.43-.55l-.22-2.8c-.03-.4-.1-.49-.62-.45h-.12s-.03-.32-.03-.32c.84-.18,1.04-.28,1.28-.47l.34-.03.32,4.05Z"/>
                    <path class="cls-25" d="M552.17,223.66c.03.32.11.44.46.42l.21-.02.03.35-2.22.18-.03-.35h.17c.47-.05.46-.21.43-.55l-.22-2.8c-.03-.4-.1-.49-.62-.45h-.13s-.03-.32-.03-.32c.84-.18,1.04-.28,1.28-.47l.34-.03.32,4.05Z"/>
                  </g>
                  <g>
                    <path class="cls-25" d="M544.32,236.17c.03.33.11.44.46.42l.21-.02.03.35-2.22.18-.03-.35h.17c.46-.05.46-.21.43-.55l-.22-2.8c-.03-.4-.1-.49-.62-.45h-.13s-.03-.32-.03-.32c.84-.18,1.04-.28,1.28-.47l.34-.03.32,4.05Z"/>
                    <path class="cls-25" d="M545.71,234.61c-.1-1.31.12-1.72.3-2.02.19-.32.51-.67,1.13-.72.59-.05.97.22,1.23.53.21.26.51.66.6,1.86.08,1.06-.09,1.56-.39,1.96-.34.44-.75.58-1.05.61-.67.05-1.67-.36-1.82-2.22ZM547.16,232.22c-.64.05-.6.84-.5,2.19.1,1.3.19,2.13.83,2.08.69-.06.58-1.07.49-2.19-.08-.99-.1-2.14-.83-2.08Z"/>
                  </g>
                  <path class="cls-25" d="M579.68,241.83s-.09.05-.14.06c-.11,0-.28-.23-.31-.49-.02-.27.16-1.09,1.47-1.19.71-.06,1.3.16,1.35.75.05.6-.58,1.05-.84,1.24.18,0,.54.01.8.29.14.15.32.36.36.83.08.97-.75,1.8-1.81,1.89-.71.06-1.25-.21-1.28-.64-.02-.27.17-.41.34-.43.26-.02.37.17.51.4.13.22.24.33.48.31.91-.07.84-1.05.82-1.28-.05-.63-.17-1.02-.53-.99-.15.01-.28.12-.36.19-.14.14-.19.19-.28.2-.08,0-.18-.04-.19-.16,0-.12.07-.2.19-.3.69-.55.98-.81.94-1.35-.03-.44-.4-.62-.73-.6-.35.03-.65.3-.62.59,0,.13.06.23.15.33q.06.07.07.08s-.06.07-.1.1l-.29.16Z"/>
                  <path class="cls-25" d="M543.13,246.65c-.12.06-.26.11-.43.12-.5.04-1.4-.27-1.49-1.41-.09-1.11.7-1.73,1.41-1.79.59-.05,1.65.32,1.78,2,.12,1.51-.51,2.89-1.89,3-.71.06-.96-.26-.98-.49-.01-.14.09-.34.31-.36.19-.01.28.1.43.26.05.06.21.24.47.22.72-.06.72-1.29.72-1.76-.1.07-.2.14-.32.2ZM542.67,243.91c-.61.05-.55.73-.5,1.42.02.31.08,1.12.7,1.07.62-.05.59-.89.55-1.32-.04-.52-.16-1.22-.76-1.17Z"/>
                  <path class="cls-25" d="M565.64,273.42c.63-.05,1.4.31,1.49,1.41.09,1.11-.7,1.73-1.41,1.79-.59.05-1.65-.32-1.78-2-.12-1.5.51-2.89,1.89-3,.71-.06.96.26.98.48.01.15-.08.34-.3.36-.19.01-.28-.1-.43-.26-.05-.06-.21-.24-.47-.22-.71.06-.71,1.29-.72,1.76.19-.15.42-.3.75-.33ZM565.67,276.28c.6-.05.56-.66.5-1.42-.03-.4-.11-1.12-.7-1.07-.62.05-.59.92-.55,1.33.04.52.15,1.21.76,1.16Z"/>
                </g>
                <g>
                  <path class="cls-16" d="M558.71,245.56c.1,1.04.87,1.81,1.72,1.72.85-.08,1.45-.99,1.35-2.03-.1-1.04-.87-1.81-1.72-1.72-.85.08-1.45.99-1.35,2.03Z"/>
                  <polygon class="cls-16" points="560.61 245.55 567.73 226.43 566.99 226.15 559.87 245.27 560.61 245.55"/>
                  <rect class="cls-16" x="547.5" y="245.96" width="12.06" height=".79" transform="translate(-21.51 55.52) rotate(-5.63)"/>
                  <path class="cls-16" d="M566.2,227.42c.68-1.1,1.31-2.23,2.08-3.27-.4,1.4-.71,2.83-.92,4.28-.19,1.35-.25,2.68-.37,4.05-.04.49-.05,1.05-.28,1.5-.29.57-1.08.61-1.54.19-.26-.24-.39-.62-.32-.98-.22.22-.45.45-.75.54-.52.16-.82-.2-.95-.65-.11-.4-.02-.83.13-1.21.41-1.1,1.21-1.99,1.91-2.93.36-.49.69-1,1.01-1.51Z"/>
                  <path class="cls-16" d="M546.52,247.37c-.74-.04-1.48-.04-2.22-.15.82-.18,1.62-.42,2.41-.72.73-.28,1.42-.61,2.14-.93.26-.11.54-.26.83-.27.37,0,.6.38.52.72-.05.2-.21.37-.4.43.17.05.35.1.48.23.23.22.13.47-.07.66-.17.17-.41.24-.65.27-.67.09-1.34-.06-2-.15-.35-.05-.69-.07-1.04-.09Z"/>
                </g>
              </g>
            </g>
            <g>
              <g>
                <path class="cls-20" d="M322.57,515.65c.32-2.93,3.49-4.79,5.7-5.84,5.24-2.5,11.65-3.3,17.34-3.23,7.2.1,14.3,1.48,21.24,3.56-1.22,2.41-1.99,5.08-2.59,7.76-1.27,5.66-2.36,11.68-1.63,17.51.16,1.3.53,2.32,1.06,3.17-1.88-.36-3.68-1.14-5.44-1.94-9.32-4.23-18.65-8.47-27.97-12.7-2.26-1.03-5.69-2.74-7.1-5.32-.48-.88-.73-1.87-.61-2.96Z"/>
                <path class="cls-16" d="M404.4,504.97c.77,3.17,3.14,5.76,6.16,6.43,3.45.77,4.85-1.2,7.22-3.37,4.99-4.55,9.14-9.96,8.8-17.39-.12-2.67-.86-5.37-2.46-7.41-1.6-2.04-4.15-3.32-6.61-2.89-1.99.35-3.68,1.72-5.13,3.21-4.36,4.51-7.25,10.63-8.07,17.07-.18,1.45-.26,2.94.08,4.36Z"/>
                <path class="cls-20" d="M410.09,502.46c1.65,6.81,7.32-.13,9.1-2.83,1.04-1.57,2.02-3.23,2.45-5.1.65-2.85-.19-7.39-3.72-6.78-1.18.21-2.2,1.02-3.06,1.92-2.6,2.69-4.33,6.34-4.82,10.19-.11.86-.16,1.76.05,2.6Z"/>
                <path class="cls-16" d="M380.15,505.62c.14,3.28-1.42,6.49-4.13,8.09-3.09,1.82-4.96.38-7.83-.94-6.02-2.78-11.47-6.64-13.18-13.85-.61-2.59-.65-5.4.32-7.86.97-2.46,3.06-4.49,5.52-4.85,1.99-.29,3.99.48,5.78,1.46,5.41,2.94,9.85,7.87,12.39,13.77.57,1.33,1.06,2.73,1.12,4.19Z"/>
                <path class="cls-20" d="M374.02,505.02c.29,7.03-7.03,2.19-9.48.17-1.42-1.17-2.82-2.45-3.74-4.1-1.4-2.52-1.84-7.13,1.7-7.65,1.19-.18,2.38.29,3.45.87,3.23,1.75,5.88,4.7,7.4,8.22.34.79.63,1.63.67,2.5Z"/>
                <path class="cls-16" d="M391.62,545.89c3.22-.05,6.43-.25,9.59-.49,3.59-.27,7.2-.58,10.64-1.69,4.04-1.3,8.23-4.1,10.46-8.05.71-1.26.95-2.76,1-4.23.12-3.73-.89-7.39-2.2-10.85-4.83-12.75-16.44-21.41-29.27-21.81-8.85-.28-18.8,1.7-23.9,9.46-1.88,2.86-2.92,6.26-3.68,9.67-1.27,5.66-2.35,11.68-1.63,17.51.6,4.81,4.02,5.97,8.03,7.47,6.72,2.52,13.85,3.12,20.97,3Z"/>
                <path class="cls-25" d="M399.03,522.66c-1.39.11-2.99.36-3.71,1.64-.39.69-.42,1.55-.22,2.33s.61,1.47,1.07,2.1c.53.73,1.19,1.44,2.04,1.64.83.19,1.69-.15,2.45-.57,1.04-.57,2.01-1.33,2.69-2.35.65-.99,1.26-2.59.62-3.8-.91-1.74-3.41-1.11-4.93-.99Z"/>
                <path class="cls-25" d="M409.17,521.19c1.22.8,3.4.43,3.89-1.18.3-.99.09-2.84-.1-3.85-.37-1.93-1.86-5.19-4.13-4.38-.42.15-.77.48-1.04.85-1.28,1.74-1.05,4.3-.22,6.33.36.87.84,1.73,1.6,2.23Z"/>
                <path class="cls-25" d="M385.9,521.19c1.22.8,3.4.43,3.89-1.18.3-.99.09-2.84-.1-3.85-.37-1.93-1.86-5.19-4.13-4.38-.42.15-.77.48-1.04.85-1.28,1.74-1.05,4.3-.22,6.33.36.87.84,1.73,1.6,2.23Z"/>
              </g>
              <g>
                <path class="cls-20" d="M235.8,515.65c.32-2.93,3.49-4.79,5.7-5.84,5.24-2.5,11.65-3.3,17.34-3.23,7.2.1,14.3,1.48,21.24,3.56-1.22,2.41-1.99,5.08-2.59,7.76-1.27,5.66-2.35,11.68-1.63,17.51.16,1.3.53,2.32,1.06,3.17-1.88-.36-3.68-1.14-5.44-1.94-9.32-4.23-18.65-8.47-27.97-12.7-2.26-1.03-5.69-2.74-7.1-5.32-.48-.88-.73-1.87-.61-2.96Z"/>
                <path class="cls-16" d="M317.64,504.97c.77,3.17,3.14,5.76,6.16,6.43,3.45.77,4.85-1.2,7.22-3.37,4.99-4.55,9.14-9.96,8.8-17.39-.12-2.67-.86-5.37-2.46-7.41-1.6-2.04-4.15-3.32-6.61-2.89-1.99.35-3.68,1.72-5.13,3.21-4.36,4.51-7.25,10.63-8.07,17.07-.18,1.45-.26,2.94.08,4.36Z"/>
                <path class="cls-20" d="M323.33,502.46c1.65,6.81,7.32-.13,9.1-2.83,1.04-1.57,2.02-3.23,2.45-5.1.65-2.85-.19-7.39-3.72-6.78-1.19.21-2.2,1.02-3.06,1.92-2.6,2.69-4.33,6.34-4.82,10.19-.11.86-.16,1.76.05,2.6Z"/>
                <path class="cls-16" d="M293.38,505.62c.14,3.28-1.42,6.49-4.13,8.09-3.09,1.82-4.96.38-7.83-.94-6.02-2.78-11.47-6.64-13.18-13.85-.61-2.59-.65-5.4.32-7.86.97-2.46,3.06-4.49,5.52-4.85,1.99-.29,3.99.48,5.78,1.46,5.41,2.94,9.85,7.87,12.39,13.77.57,1.33,1.06,2.73,1.12,4.19Z"/>
                <path class="cls-20" d="M287.25,505.02c.29,7.03-7.03,2.19-9.48.17-1.42-1.17-2.82-2.45-3.74-4.1-1.4-2.52-1.84-7.13,1.7-7.65,1.19-.18,2.38.29,3.45.87,3.23,1.75,5.88,4.7,7.4,8.22.34.79.63,1.63.67,2.5Z"/>
                <path class="cls-16" d="M304.85,545.89c3.22-.05,6.43-.25,9.59-.49,3.59-.27,7.2-.58,10.64-1.69,4.04-1.3,8.23-4.1,10.46-8.05.71-1.26.95-2.76,1-4.23.12-3.73-.89-7.39-2.2-10.85-4.83-12.75-16.44-21.41-29.27-21.81-8.85-.28-18.8,1.7-23.9,9.46-1.88,2.86-2.92,6.26-3.68,9.67-1.27,5.66-2.35,11.68-1.63,17.51.6,4.81,4.02,5.97,8.03,7.47,6.72,2.52,13.85,3.12,20.97,3Z"/>
                <path class="cls-25" d="M312.26,522.66c-1.39.11-2.99.36-3.71,1.64-.39.69-.42,1.55-.22,2.33.2.77.61,1.47,1.07,2.1.53.73,1.19,1.44,2.04,1.64.83.19,1.69-.15,2.45-.57,1.04-.57,2.01-1.33,2.69-2.35.65-.99,1.26-2.59.62-3.8-.91-1.74-3.41-1.11-4.93-.99Z"/>
                <path class="cls-25" d="M322.4,521.19c1.22.8,3.4.43,3.89-1.18.3-.99.09-2.84-.1-3.85-.37-1.93-1.86-5.19-4.13-4.38-.42.15-.77.48-1.04.85-1.28,1.74-1.05,4.3-.22,6.33.36.87.84,1.73,1.6,2.23Z"/>
                <path class="cls-25" d="M299.13,521.19c1.22.8,3.4.43,3.89-1.18.3-.99.09-2.84-.1-3.85-.37-1.93-1.86-5.19-4.13-4.38-.42.15-.77.48-1.04.85-1.28,1.74-1.05,4.3-.22,6.33.36.87.84,1.73,1.6,2.23Z"/>
              </g>
            </g>
          </g>
        </g>
      </g>
    </g>
  </g>
</svg>